<?xml version="1.0" encoding="utf-8" ?>
<svg baseProfile="full" height="119.48621531331337" version="1.1" width="106.95286245192472" xmlns="http://www.w3.org/2000/svg" xmlns:ev="http://www.w3.org/2001/xml-events" xmlns:xlink="http://www.w3.org/1999/xlink"><defs /><rect fill="white" height="119.48621531331337" width="106.95286245192472" x="0" y="0" /><path d="M25,27.990167662983815 m0.0,0.0 m19.50176772921388,3.7633984818554036 l0.03286850420403783,0.4980782854945408 -0.11266802840927334,1.8583914400176886 l-0.45061146712822037,2.2181385425078206 -2.5815309787207457,7.57326615579813 l-2.821898834818818,6.484571702903373 -3.4824045168643893,6.111501245457932 m6.694792100085105,-11.094767535054768 l0.5767604499822344,1.102632441370518 0.21518603183737509,1.7738491886407495 l-0.0022593272960023817,30.054360690271874 m6.187347598281204,-36.59832566818071 l1.0297751894930849,0.3864741436384911 1.2173553101810197,-0.061436081430678066 l18.411281493734204,-3.1751283926675447 2.7849179935329027,0.14710140700834162 m-18.00699140224843,-14.032273710614966 l0.6775697037902763,1.2229961708315713 0.19796646993522674,1.0245117385091094 l0.9280751366954352,10.79662647827261 1.2457642012623915,7.8212936408106986 l1.845926314436079,6.723240596609652 2.4392623932217905,6.294805707435304 l2.144251161638414,4.257642086706166 2.369593569479255,3.7622744380771658 l2.627972849892973,3.2573042129905825 1.919383175528555,2.531438398250515 l1.7933837278932547,3.197576283788779 2.322305581687031,4.098122515020979 l1.4579361246488294,3.4985402508115695 1.3483828195089402,4.352500986531551 l2.407232402448768,5.06582297450534 1.0880793144634164,1.3430642193915199 l0.7971405744039225,0.23845461477025515 0.14894908593098266,-0.4219461761650431 l-0.09559063324356451,-1.7806476820174761 m-4.555467042653891,-27.062657482268005 l0.0383710400813307,1.982339608378714 -1.0948540576087953,3.403975851006045 l-2.0919662950612334,4.130581633760491 -2.7435974979750393,4.243304996109335 l-3.3268280159805674,4.366237380874396 -6.60541893079246,3.6379231994305714 l-3.393823194882533,1.1656649762643267 m15.876411812636047,-39.6759751839237 l2.9786749392498884,2.6591888022163572 1.571491755473116,2.091926599536321 l0.6903496756298501,1.401855742899147 " fill="none" stroke="black" stroke-width="1" /></svg>