<?xml version="1.0" encoding="utf-8" ?>
<svg baseProfile="full" height="118.40047900753775" version="1.1" width="116.16697263205901" xmlns="http://www.w3.org/2000/svg" xmlns:ev="http://www.w3.org/2001/xml-events" xmlns:xlink="http://www.w3.org/1999/xlink"><defs /><rect fill="white" height="118.40047900753775" width="116.16697263205901" x="0" y="0" /><path d="M25,25 m0.0,0.0 m25.887634854540472,6.31377139485243 l0.032204994170825375,0.49781000058915154 -0.46020712693053745,0.7130025112901768 l-1.4251606575585722,1.280657547054364 -4.123695579730072,2.9118054932494597 l-4.937347436065385,2.410219924758098 -5.84091718205307,2.0801363222424367 m-2.7103488155880853,10.393996377737427 l2.965619922940495,0.24250573692073107 18.956466553587546,-3.0376111894909186 l3.4032132243545123,-0.013405957550124597 m-12.427731464308627,-9.257715088559193 l0.6221484642982202,1.1147501066915588 0.25083570653743903,2.1076276503760427 l-0.07081126688593842,22.169701327317323 m-9.587583357114768,1.1059055820189063 l0.6400799375466889,0.9881681022779824 0.3583029760587129,1.1677147260701464 l1.7746917934200115,14.166760271543888 m-1.4542329448083082,-15.260602747869031 l14.875223462874402,-2.634390405651526 1.6570258204136152,-0.052548229685793243 l0.5520007635732571,0.3105325281071084 0.48845483459210665,1.201231409006645 l-0.054698061332642905,0.9811593157392402 m-15.633487322593764,8.032086427090464 l14.698101363483499,-2.099292232630278 2.3104860747718696,0.01798908317529054 l0.9562432370153323,0.4134270439051829 0.5340779521699915,1.0677509394707978 l-0.0003939737372248876,0.9142845831509256 -2.1030375153209135,9.606198461167748 m-14.93122931558748,2.797199468005358 l16.38194681614104,-1.966201973178391 m14.598540577415061,-47.227434871575106 l-0.0430292455422842,1.1871591642408241 -0.3804437032443601,1.8574802320939678 l-2.376642616669494,7.049111776449084 -2.6844451715866158,6.022630594711194 l-3.2080365198440672,5.2890279453266595 m6.372757999766077,-7.695306027689541 l3.0850108588585847,-0.23831564665787008 14.062975859322217,-3.4721307793873173 l1.7102507471521173,0.030958525047271715 0.6707183390933813,0.7373976213866925 l-0.1582008200805804,1.3897168931793709 -1.0133753213096055,2.540847121525377 l-1.967337727806578,3.3493625159159404 m-12.228406940116606,2.0686383325748046 l0.4668556875776159,1.2240152841248566 0.0794395681503779,1.3209739172396318 l-0.7971922955615459,7.572549088632048 -1.3172812055406764,6.103334038481556 l-1.4835834505440004,4.647142922491786 -1.9578561190348067,4.4560218942166 l-5.070161946879804,7.0319395750613864 -2.8516776350563378,2.470734380954874 m13.493019649223003,-25.723742209605476 l4.661235312535256,7.512112429808845 6.463618430556955,9.587901768677161 l4.861823746516172,5.865830517199347 1.5945198418349071,1.409423370425367 " fill="none" stroke="black" stroke-width="1" /></svg>