<?xml version="1.0" encoding="utf-8" ?>
<svg baseProfile="full" height="94.20655304961878" version="1.1" width="105.26190801017096" xmlns="http://www.w3.org/2000/svg" xmlns:ev="http://www.w3.org/2001/xml-events" xmlns:xlink="http://www.w3.org/1999/xlink"><defs /><rect fill="white" height="94.20655304961878" width="105.26190801017096" x="0" y="0" /><path d="M25,25 m0.0,0.0 m13.216762736170038,5.503078428592428 l0.4978611332449988,0.1639899513546172 3.32377461022609,1.9700105004936443 l1.726003203330843,1.2336375308911698 m-9.044166081241444,6.76469957348739 l3.586406255976838,0.6782860527543024 2.8179161803162343,0.8943453133805099 l1.8681171647513495,0.9692652993440866 0.7795542624703268,0.6328580974012338 m-7.942702294526389,16.094720824705323 l1.259114333049273,-0.016898000112938953 1.4437999839104183,-0.6295158437279574 l2.8066126671527645,-3.180438556680789 2.952689210163464,-4.070716781274667 m8.399101923766363,-22.896966133988464 l1.5755506119789935,0.5881274522511191 1.5093069084426471,0.1499819142654031 l18.52424521898248,-1.998204626575348 1.6163659731789042,0.11588077328992512 l0.8220480053924331,0.6083981089840337 0.1713280249583464,0.4769333497145378 l-0.082909452618946,0.5150870150688834 -1.0387148649232008,5.6562362228441705 l-0.9882657272858245,4.620430706066 -0.6439071726734192,3.4618616788670313 l-0.9945107809222232,2.8750762125745486 -1.1334519763585351,1.5184419185461633 l-0.576854172578991,0.190412771631459 -0.5414376905903681,-0.14299356537519653 l-1.126213954518407,-1.3069365779500988 -0.9872088163397683,-1.2915948681059297 m-15.82755625156954,-13.159255428428255 l0.5082577065022074,1.0214116036473202 0.09722887408430525,0.9382694573730127 l-0.5152126299401799,24.72286992480817 0.38979137491377,2.7422827748943344 l0.5863403814587832,1.7744417488286186 0.5243903505535012,0.8369691929299273 l0.6859619147350356,1.166942308467659 0.7340044681620692,1.3262081946096032 l2.0897009871358008,1.5894257215197531 3.433212609220387,0.9058415483542612 l7.690252805716875,0.1936512598977703 5.723782472385888,-0.41225419789133255 l2.4051428230916154,-0.5583607549567456 1.5067243307638751,-0.8300184452080758 l0.9995958025500737,-1.3389151779596082 0.3615864756131785,-2.0005380352892517 l0.07248809190803383,-2.7567911990990637 " fill="none" stroke="black" stroke-width="1" /></svg>