<?xml version="1.0" encoding="utf-8" ?>
<svg baseProfile="full" height="123.87045943717209" version="1.1" width="93.25036772477605" xmlns="http://www.w3.org/2000/svg" xmlns:ev="http://www.w3.org/2001/xml-events" xmlns:xlink="http://www.w3.org/1999/xlink"><defs /><rect fill="white" height="123.87045943717209" width="93.25036772477605" x="0" y="0" /><path d="M25,25 m0.0,0.0 m13.945352866476927,20.406238559563178 l0.5034875060497747,0.20457447301424023 1.4436986675653654,0.3189168703844878 l1.7801444448512986,-0.07335196947511692 14.520330434360524,-5.258160649045546 l9.899166281356335,-0.43273122360138067 1.1581875241158341,1.361310382407221 m-14.85368962876204,-12.73567101362722 l0.8981889844614263,1.797235631752222 0.2412491578131067,1.6086845506292025 l0.04913546882709575,36.32050356216103 0.051246893506487035,4.367507993010642 l-0.41408997603599107,3.685781098981918 -0.8113316316125314,2.482711668057375 l-1.1491993868661867,2.343307191458086 -3.5970443070865556,1.653201813877191 l-1.9222466584143263,-0.27898517580659044 -1.0236985608814626,-1.080696898647305 l-0.40719589677483414,-1.4401268061363766 0.05418295184075743,-1.4542692986811778 l0.28022507345867353,-1.28404697902141 0.30187861939389976,-1.245324379453091 l0.34928008874030286,-1.0099649792311753 0.9250610895009862,-1.4662931182396106 l1.4417323647458757,-0.9846452824998487 1.8358020433557682,-0.45919931414504217 l2.1510924533682454,0.12497722485966896 1.9090824292262099,0.8390315657533873 l1.0122660623039237,1.4961259468833037 0.5593651522171061,2.6132170673961017 l-0.044845142770288574,3.2890980886649723 -0.7359486070972818,4.604215323485339 l-1.5872968243345733,4.769986154981598 -2.1971950982759276,4.497848075923203 l-2.9134679038674625,4.2894532815386075 " fill="none" stroke="black" stroke-width="1" /></svg>