<?xml version="1.0" encoding="utf-8" ?>
<svg baseProfile="full" height="99.98958106684685" version="1.1" width="111.84973759801045" xmlns="http://www.w3.org/2000/svg" xmlns:ev="http://www.w3.org/2001/xml-events" xmlns:xlink="http://www.w3.org/1999/xlink"><defs /><rect fill="white" height="99.98958106684685" width="111.84973759801045" x="0" y="0" /><path d="M25,25 m0.0,0.0 m17.56706224828002,15.288295687465206 l0.5254985916927217,0.11858456713780866 3.4226603830478073,0.06385306495750753 l25.061738333065946,-1.9573618354231406 3.8803151335068784,-0.10794994227690578 m-39.777815497656796,13.117008312902088 l2.318108063143693,0.2224723579796145 2.8574147094380913,-0.05556201667870676 l38.46480460874205,-2.503968295528971 3.562920669920416,0.30806835168686014 m-30.438975127497727,3.131257794694932 l0.2029705770093089,1.551193043759691 -0.5685334402474382,1.2904827706966406 l-2.334115262999765,6.775140164216 -2.001384963458683,4.759541101624013 l-1.8687446401803582,3.4390293116117596 -4.9302705821232795,3.330924479575686 l-3.1241983460683214,1.2185721484467644 m26.490115028116914,-23.490397177797817 l0.7484006719053252,1.003714295522508 0.2784127026381227,1.2213385734949576 l0.20992675281464562,16.591874566849903 0.5472235258821383,2.0007432727054777 l0.843583769455313,0.9338522149254472 1.5331613641190602,0.7489865809156374 l3.563199497147055,0.5463853823663737 7.1570703982698545,0.09620136593449687 l4.356597818547074,-0.3999573779115663 1.553544186790719,-0.5679363233094092 l1.014209805322546,-0.9529933894446521 0.5438101030394972,-1.323406152340837 l0.19102651634763354,-2.433754148747768 " fill="none" stroke="black" stroke-width="1" /></svg>