<?xml version="1.0" encoding="utf-8" ?>
<svg baseProfile="full" height="108.53483673533952" version="1.1" width="94.16135595928343" xmlns="http://www.w3.org/2000/svg" xmlns:ev="http://www.w3.org/2001/xml-events" xmlns:xlink="http://www.w3.org/1999/xlink"><defs /><rect fill="white" height="108.53483673533952" width="94.16135595928343" x="0" y="0" /><path d="M25,25 m0.0,0.0 m30.373141764103362,28.916896054431657 l0.41941207155791843,-0.08255681704445061 9.294648592058714,-1.8263463859312168 l2.830317294472614,-0.24019004456085086 m-14.023120030934333,-13.062449680529495 l0.7883449999359851,2.36505005797767 0.019585082027880323,24.33363066378244 m-12.067887992680905,1.4277159254797838 l0.4787194754098194,0.9269435938563317 0.5895766507182384,2.9550630281593446 l1.679668744411793,12.821080339718321 m-1.8121741011552077,-15.59022465571967 l19.556854222461606,-3.084878638558986 3.9762264637215443,-0.30417798644815336 l0.9156121992479158,0.2222177633054128 0.80984403888953,0.8099541146640394 l0.3325864850369519,1.079549021702106 -2.4433155020782804,11.426651520586178 m-20.759515960584096,3.388277481162883 l21.721754779766105,-2.6871184301724282 m-33.2812280481174,-32.96416836665498 l0.6542214862038509,1.18540037980941 0.22623868780354764,1.3964865970328293 l-0.017921962485894886,22.28819384916606 0.2215912226520215,2.397399296397702 l0.29841253846401555,1.8218955050684904 2.1869340529218206,0.8786551579720389 l24.743396585631853,-1.4933010507636686 2.642459459992507,0.27782258119211267 l3.0494634469225645,0.4753818583811223 " fill="none" stroke="black" stroke-width="1" /></svg>