<?xml version="1.0" encoding="utf-8" ?>
<svg baseProfile="full" height="121.26561425248994" version="1.1" width="103.30845854420122" xmlns="http://www.w3.org/2000/svg" xmlns:ev="http://www.w3.org/2001/xml-events" xmlns:xlink="http://www.w3.org/1999/xlink"><defs /><rect fill="white" height="121.26561425248994" width="103.30845854420122" x="0" y="0" /><path d="M25,25 m0.0,0.0 m5.9168739301596895,18.60521667075802 l0.6383775412243271,0.09606525661673405 3.079856258029713,0.06575215014184282 l14.69316993321463,-2.2380344874686755 m-7.655174909791814,-12.424330022895553 l0.8094020731832768,1.3150214174646506 0.2539658084751753,1.8192632645165767 l-0.16075036927706918,43.8603885313017 -0.4143143629422326,1.4248318840478014 l-0.6147140575427747,0.5621106406041068 -0.7386252690763853,-0.10504445845251331 l-1.5746602388556437,-1.2875256317318686 -1.7196555699170475,-2.1483926421511295 m-7.235146311540335,-13.762960650624143 l1.070733002254618,0.3042782935562879 1.5963333147856174,-0.3594114033857219 l14.651726659183138,-8.943059759765466 m16.182997719004508,-21.60928646969359 l0.7177848405047138,1.004681217218748 0.28918826164916944,1.7642339220855714 l-0.04285905866312378,44.51656506306035 -0.31651108227558,1.5546823236225031 l-0.4654477982624837,0.670353371662107 -0.6632967928789669,0.09369469317653195 l-1.5045428071608784,-0.829650541500521 -1.9454014375466506,-1.8505526762508913 m-3.498564353391097,-21.03747155734271 l0.06219285442737036,1.8987543170927914 -1.4539635966298599,3.673347854648227 l-2.0863392563062155,5.363121890684003 -2.341462537687374,4.814193984160663 m20.509813503279535,-16.361629087499768 l2.1161074601000083,1.7403002822430143 2.446055619008715,2.875675246877488 l1.8198518758331175,2.9747614805143656 0.8854576996294234,2.274392263029443 m-5.522862509778604,1.4039016409252532 l-0.17222402427843417,2.8673639419934416 -1.7347776608093375,4.917249161357778 l-2.9002320503134906,5.453567897500351 -3.8592057089944096,5.361508364132694 l-3.6444962072486775,4.0968668805418105 -4.04442028068658,3.7595680762764463 l-4.312514052655956,3.09125165944119 " fill="none" stroke="black" stroke-width="1" /></svg>