<?xml version="1.0" encoding="utf-8" ?>
<svg baseProfile="full" height="109.49251213668482" version="1.1" width="102.48397720977664" xmlns="http://www.w3.org/2000/svg" xmlns:ev="http://www.w3.org/2001/xml-events" xmlns:xlink="http://www.w3.org/1999/xlink"><defs /><rect fill="white" height="109.49251213668482" width="102.48397720977664" x="0" y="0" /><path d="M25,25 m0.0,0.0 m35.85887908935547,9.74150466959145e-07 l-0.12308628298342228,0.6280077248811722 -0.7432236522436142,0.8933288604021072 l-2.5672048330307007,1.4892059564590454 -7.226794958114624,2.8359338641166687 l-8.740180730819702,2.2936077415943146 -9.01929497718811,1.4978066086769104 m-6.979162096977234,5.7744258642196655 l1.9906385242938995,0.5254494026303291 1.9703540205955505,0.12586524710059166 l38.44316244125366,-3.992514908313751 5.590080618858337,-0.37126194685697556 l3.353918492794037,0.48871420323848724 m-51.180524826049805,15.41231632232666 l2.3335276544094086,0.2767818421125412 10.654549598693848,-1.5528790652751923 m-0.5650447309017181,-7.093404531478882 l0.7338116317987442,1.2410861998796463 0.21022845059633255,1.0917922854423523 l0.11300488375127316,12.622307538986206 m-12.971687316894531,3.775186538696289 l1.3352061808109283,0.5768908560276031 1.7269401252269745,0.04815537482500076 l12.271952629089355,-4.758578836917877 m31.90474271774292,-15.8277428150177 l0.06896725855767727,0.3573315590620041 -0.4658130183815956,0.7626967877149582 l-3.659646213054657,2.953746020793915 -3.630436658859253,2.0917364954948425 l-3.832307755947113,1.4851491153240204 m-2.5055399537086487,-8.703181147575378 l0.8043204993009567,1.3290396332740784 0.1434214785695076,13.6715829372406 l0.25842439383268356,0.9635943174362183 0.5551458522677422,0.7448463886976242 l1.4760616421699524,0.7579907774925232 2.3672810196876526,0.3970080241560936 l7.37251877784729,-0.09060067124664783 2.0635005831718445,-0.5066253617405891 l0.9538578242063522,-0.5564441159367561 0.8207915723323822,-1.2303759157657623 l0.15369556844234467,-1.1235984414815903 m-25.943374633789062,-23.326189517974854 l0.7086589187383652,0.9304900467395782 0.37562813609838486,1.8611423671245575 l-0.14044727198779583,48.72269153594971 m-0.09306523948907852,-29.121387004852295 l-1.4987802505493164,2.872932553291321 -2.5477316975593567,3.860868513584137 l-3.0722075700759888,3.818027377128601 -3.484388291835785,3.688206970691681 l-3.784274160861969,3.474651575088501 -3.971216082572937,3.1754150986671448 l-7.064194679260254,4.579101800918579 m25.590262413024902,-24.115498065948486 l7.580556869506836,7.666887640953064 9.484702348709106,8.523380160331726 l6.1288368701934814,4.831602871417999 2.8959760069847107,1.2700523436069489 " fill="none" stroke="black" stroke-width="1" /></svg>