<?xml version="1.0" encoding="utf-8" ?>
<svg baseProfile="full" height="88.79649171074627" version="1.1" width="97.23493918157936" xmlns="http://www.w3.org/2000/svg" xmlns:ev="http://www.w3.org/2001/xml-events" xmlns:xlink="http://www.w3.org/1999/xlink"><defs /><rect fill="white" height="88.79649171074627" width="97.23493918157936" x="0" y="0" /><path d="M25,25 m0.0,0.0 m10.346567403770427,4.089756690416342 l0.3989231291151929,0.37147868452181076 0.6822886901846871,0.9993720505610391 l0.2896392796077373,1.4122548238385386 2.483061884603826,12.683165248734213 m-2.532418062514601,-15.152724697723665 l23.23680448643755,-2.754409071710797 3.8803840702461305,-0.3859693171778958 l1.4624074771734388,0.18371141002474004 0.8682293779045578,0.6765081462563655 l0.24180075394838357,1.2901680297570313 -2.9174177811450277,11.142133497083394 m-23.554583132005433,3.039535527201426 l24.926353216263113,-2.1541163905513883 m-14.735526229652395,7.874825671127231 l0.08900275310368504,0.9732633997316366 -0.5544009445227449,1.0282959340137305 l-4.460417622009754,4.499384908930793 -6.372764744879047,5.0325943220626135 l-6.602852594790873,3.9472628436491046 m29.762382189209955,-14.58166412868783 l2.5058421613382396,1.8603675695859703 3.3963298135794506,3.374201479786373 l2.8232346418164354,3.6387024435615944 1.5720689647964519,2.926642980203369 " fill="none" stroke="black" stroke-width="1" /></svg>