<?xml version="1.0" encoding="utf-8" ?>
<svg baseProfile="full" height="95.60095319658976" version="1.1" width="109.28393857819478" xmlns="http://www.w3.org/2000/svg" xmlns:ev="http://www.w3.org/2001/xml-events" xmlns:xlink="http://www.w3.org/1999/xlink"><defs /><rect fill="white" height="95.60095319658976" width="109.28393857819478" x="0" y="0" /><path d="M25,25 m0.0,0.0 m16.94491633404036,18.79837217264137 l0.317092554358446,0.3536243361782712 0.4895401097874195,0.5221649871177112 l0.2191272262044842,0.8270882302344996 -0.04226473488114275,18.33268776256582 m0.5047769735343588,-9.989801806581154 l7.829076141297567,-1.0686271897416317 2.2854557459634925,-0.0451503131676857 m-20.842421507860536,0.43538448890561215 l0.6994846148850327,0.6358340864924164 0.26122919092992614,0.6165339865192361 l0.06421261422964519,12.676036020395074 m-4.013784765217808,0.6857264031628152 l1.3891720202290798,0.3269107197837883 1.082293488337678,-0.18329423873805534 l9.600483075325702,-6.680615227650787 m20.33539254633543,-5.322100475938476 l11.824359138039561,0.4704788801467763 2.778799858828074,0.17852099875691327 m-14.063150499149414,-20.198009829377224 l0.5747943607576095,0.8876631827658452 0.2275277601492684,1.365772378335858 l-0.01398797111705798,31.016951787528974 m-27.22056974652411,0.6947053308669204 l4.993219332051364,0.26409652538687917 31.338434416157018,-1.3791531311573157 l8.46676439789258,-0.06480614174391046 3.2539659036107453,0.2864430935084795 " fill="none" stroke="black" stroke-width="1" /></svg>