<?xml version="1.0" encoding="utf-8" ?>
<svg baseProfile="full" height="107.87049040198326" version="1.1" width="109.4925159891136" xmlns="http://www.w3.org/2000/svg" xmlns:ev="http://www.w3.org/2001/xml-events" xmlns:xlink="http://www.w3.org/1999/xlink"><defs /><rect fill="white" height="107.87049040198326" width="109.4925159891136" x="0" y="0" /><path d="M25.000000866129994,25 m0.0,0.0 m15.384793281555176,3.9634472131729126 l0.04657167010009289,0.6263551861047745 -0.13324759900569916,1.8179824948310852 l-0.4868089407682419,1.7025656998157501 -4.757565855979919,10.791127681732178 l-4.628144204616547,8.05824875831604 -5.425599217414856,7.616155743598938 m10.567045211791992,-14.028197526931763 l0.6280425935983658,0.9486446529626846 0.24960558861494064,1.29084512591362 l-0.03455963684245944,35.08331537246704 m35.20548343658447,-53.736958503723145 l-0.8833430707454681,1.415373831987381 -1.2753212451934814,1.0431379079818726 l-6.093126535415649,3.6675187945365906 -6.832536458969116,2.7765828371047974 l-7.957680821418762,2.3699243366718292 m-4.589672088623047,15.58328628540039 l4.420933723449707,0.3806174173951149 25.47335386276245,-2.4940311908721924 l7.472728490829468,-0.3577982261776924 3.1415629386901855,0.34239035099744797 m-21.090891361236572,-15.486093759536743 l0.7032997161149979,1.1075957864522934 0.25753628462553024,1.283758133649826 l-0.1244073174893856,35.0623083114624 m-15.324103832244873,1.3688020408153534 l4.5339882373809814,0.1313203014433384 21.70847177505493,-1.598074734210968 l4.1529780626297,-0.10692711919546127 2.47504785656929,0.23962896317243576 " fill="none" stroke="black" stroke-width="1" /></svg>