<?xml version="1.0" encoding="utf-8" ?>
<svg baseProfile="full" height="100.11980665055171" version="1.1" width="96.81991539229794" xmlns="http://www.w3.org/2000/svg" xmlns:ev="http://www.w3.org/2001/xml-events" xmlns:xlink="http://www.w3.org/1999/xlink"><defs /><rect fill="white" height="100.11980665055171" width="96.81991539229794" x="0" y="0" /><path d="M25,25 m0.0,0.0 m26.351966122481716,3.2612634356076455 l0.3246812777182085,0.3861660969957793 0.4004881358027202,1.1578746872131207 l0.02256037791884388,5.783939409883105 m-17.47603206921184,-0.2190288987984042 l-0.7490420430811584,3.6523615946343377 -1.848146108011183,4.7472150267577495 m3.2589882844660836,-6.582586816422542 l23.77145777049238,-2.3623038409296226 8.227693838749547,-0.5568880177204888 l3.0934147466840227,-0.02398862112937535 1.0236746726801031,0.2826938364047882 l0.41821038560849466,0.46004234686924605 -0.06660135921317772,0.5896976044907003 l-1.0732013466060666,1.3372603506135627 -2.1963817229288125,1.6333231504374812 m-28.462555581091593,4.335315989264017 l2.0763099940791143,0.12433360431750033 15.437405336400053,-1.6303707314877294 l2.9228241894046145,0.041373074459779335 m-27.37201986257301,11.502389441386802 l3.6484663146439535,0.2532048255522295 25.749291299687574,-2.493952524104103 l4.564058004232683,-0.20280286791519317 3.288244240220395,0.25489944967938216 m-20.36397587035842,-7.305800725015789 l0.5871623938577425,0.9074851685402282 0.2903715274576732,1.6197074532659217 l0.07529716505600645,28.11456395700323 -0.6518605009395217,1.0524191906983682 l-0.6521067126467558,-0.0610779657882131 -1.4723750776138693,-1.0500594965946013 l-1.4486723472071041,-1.4303471497413511 " fill="none" stroke="black" stroke-width="1" /></svg>