<?xml version="1.0" encoding="utf-8" ?>
<svg baseProfile="full" height="112.88695023658906" version="1.1" width="96.81750136436139" xmlns="http://www.w3.org/2000/svg" xmlns:ev="http://www.w3.org/2001/xml-events" xmlns:xlink="http://www.w3.org/1999/xlink"><defs /><rect fill="white" height="112.88695023658906" width="96.81750136436139" x="0" y="0" /><path d="M25,25 m0.0,0.0 m26.238564109960038,2.9398521382755165 l0.3332448642558759,0.4526520047585425 0.4080657823127849,1.6640838602955161 l-0.04934722746547369,6.76928205483213 m-17.16424202262828,0.24256171875524912 l-0.8388027563284631,4.60593770150441 -1.794413955222172,5.7976767481293905 m3.124034788693087,-8.498200248575879 l23.40781623479384,-2.7658163930476865 8.527408970784075,-0.7083976601292503 l3.097375340274157,-0.0570962286455385 1.0616157132074766,0.31872851136104985 l0.4661815217244597,0.5325425079175463 -0.0066177350448691176,0.6895303126786719 l-0.9836948263123152,1.6396615979374265 -2.3843796245631963,2.208607952052004 m-28.32468542350859,4.9701019295715705 l2.090887975220547,0.16911230607757777 14.855647437020988,-2.0295697663826573 l3.073810312010846,0.04113956570632891 m-27.377359997681452,13.909053323533726 l1.4731368429547345,0.3237361905486663 2.0657697529612293,0.029896858225307524 l28.100575881148508,-3.096556898771249 2.6857405583733445,-0.16383052198382736 l2.723569337083792,0.2816874805012951 m-19.858495379785754,-7.93539432316127 l0.6274239320336152,1.5451924054947326 0.2552387898912842,2.1101267653279474 l0.20487056409900956,35.68180851610738 -0.5734264108433393,1.2188398276944166 l-0.6445569787348432,-0.03162633992345662 -1.4776815657510367,-1.3595909007176479 " fill="none" stroke="black" stroke-width="1" /></svg>