<?xml version="1.0" encoding="utf-8" ?>
<svg baseProfile="full" height="108.78080624543963" version="1.1" width="101.63927075284741" xmlns="http://www.w3.org/2000/svg" xmlns:ev="http://www.w3.org/2001/xml-events" xmlns:xlink="http://www.w3.org/1999/xlink"><defs /><rect fill="white" height="108.78080624543963" width="101.63927075284741" x="0" y="0" /><path d="M25,25 m0.0,0.0 m11.998054409866718,3.7643975075433334 l0.06376431789484369,0.4794498938908719 -0.15462232379019683,2.347773922905577 l-3.190706843944732,8.263614921468712 -3.4109729773369604,6.923001927047412 l-4.564161841815863,7.47942237548457 m7.2758936647809564,-10.167781028225226 l0.47234214483542997,0.8637309965441436 0.15533529369392748,1.0975464435622824 l-0.08715258961583963,27.760755359906167 m12.861932401140864,-39.97158015933094 l3.008690640601959,0.23205619517591813 17.290473266068602,-1.4974390813280176 l3.006987379977478,0.25050685633249165 m-29.625156513689966,19.300487423407784 l1.70312760045645,0.25821406258009716 1.8692520086250586,0.026985857580203658 l27.183646828065132,-1.9330093177240462 3.4065371331888183,-0.09754766735112484 l2.3760067538447203,0.26863456470377645 m-19.24899155962673,3.138061106449143 l0.6610589661211933,1.9521681679536675 0.14729918736959122,3.4102195800875914 l-0.8319634136952282,23.956191177829535 -0.5661135608582103,0.6615891090289298 l-0.6873292626235119,0.013356049916766654 -1.5624568092155504,-1.0047207696153684 l-1.7934810639254573,-1.8319395085783388 " fill="none" stroke="black" stroke-width="1" /></svg>