<?xml version="1.0" encoding="utf-8" ?>
<svg baseProfile="full" height="112.38159461185967" version="1.1" width="105.56236830308274" xmlns="http://www.w3.org/2000/svg" xmlns:ev="http://www.w3.org/2001/xml-events" xmlns:xlink="http://www.w3.org/1999/xlink"><defs /><rect fill="white" height="112.38159461185967" width="105.56236830308274" x="0" y="0" /><path d="M25,25 m0.0,0.0 m29.570370215070312,5.682286420975784 l0.032301866928722035,0.4101495362057162 -0.6019715799553952,2.0480402674595557 l-1.943086518155563,3.1277033394107128 -2.659632324712123,3.641989369234907 l-3.541859089062024,4.146704636013813 -3.4397868712046358,3.425389982445842 l-3.9320159414881544,3.379526408978544 -4.6292543579445535,3.319572411969415 l-3.8950211596487625,2.405867908730186 m25.87753382022535,-23.244875310861197 l9.22541709813728,8.109566171382038 9.989562288306946,10.593186563126174 l2.7054322010302316,2.4372578812813526 2.80437865555511,1.247956654139318 m-33.75552570259691,-4.785935707316725 l2.5602968581767103,0.0829297673505361 10.55181487559732,-1.1542652702022698 l3.13069724859116,0.02540117059299983 m-22.236349216186063,10.801920497456011 l2.1537664840464497,0.2555628988268206 1.8982857219064915,-0.08357392601335852 l18.98877879334881,-2.219830024165131 1.8935727776303348,-0.07175240830110284 l1.7509241151038037,0.1725369045508248 0.8456156061759851,0.31721870915593126 l0.43300631194774436,0.5062401078909972 -0.11996969511562393,0.6958079015239499 l-0.6386365169248779,0.8812068555036768 -11.484925664872726,11.349562487390813 m-8.060047192099441,0.929762344605949 l0.7034469767511445,0.8447579186486377 0.4385954955410679,1.0742675969050866 l1.3543781974516533,6.301180105469954 0.8103812604713692,5.728274441493904 m-1.6582189991827485,-13.384450953841403 l19.039624343258836,-2.1501458737762182 0.8351736204664293,0.03339592137506473 l0.6220153212008523,0.3284714294151473 0.5675377953205466,1.055941376591992 l-0.08138935561300237,1.3097410560007594 -2.694076250380155,10.140817954977296 m-16.27330147650346,1.9774186544316226 l17.952679802360098,-1.5058337224078913 " fill="none" stroke="black" stroke-width="1" /></svg>