<?xml version="1.0" encoding="utf-8" ?>
<svg baseProfile="full" height="110.05762953552855" version="1.1" width="105.21460240580663" xmlns="http://www.w3.org/2000/svg" xmlns:ev="http://www.w3.org/2001/xml-events" xmlns:xlink="http://www.w3.org/1999/xlink"><defs /><rect fill="white" height="110.05762953552855" width="105.21460240580663" x="0" y="0" /><path d="M25,28.172864889037758 m0.0,0.0 m12.80913656029854,5.779837214969309 l0.5370782045728543,0.17845482584982184 2.0809265203451712,0.16621560131394153 l2.743779259132061,-2.69686457645581 6.280459352967358,-5.031143675850354 l2.878715543853869,-1.15603594350244 1.8280286201559561,-0.41332833536222646 l1.8078902724197121,0.0004671105167610882 2.674102174707343,0.448996530924763 l3.3952736246101334,1.4084307640900389 2.6406050948514785,2.107635467890039 l1.337641173570619,2.409893261477339 0.4307292087293935,2.0416004427303105 l0.15029673222142226,2.2681728698549932 -0.15083956098194434,2.6385712207982728 l-0.38846480494954677,2.881408750912791 -1.3250017156893685,2.945357193120041 l-2.4575272517626843,1.9345635000844923 -1.3867666296351515,0.8825195005788137 l-2.8833986266153855,0.8009701116741655 -3.5078356928596497,0.011684086325688979 l-4.337390627970459,-0.2689870288001552 -5.665975829908653,-0.17958757939908135 l-3.331840217487442,-0.13851353676036834 -2.9052011494281653,-0.24874610529936358 l-2.673624291434049,-0.4843061196806579 -2.6437119461432617,-0.5933200534454364 l-2.36604713132507,-0.7145819577629048 -2.0955751848987725,-1.0699630352739986 l-1.5264161453815908,-1.2538467547210663 -1.1445120569120142,-1.5711399080814998 m28.093327653866183,-13.511950151612197 l-0.4067166036205773,1.5415826165245685 -1.3861758709147882,2.1867912300519294 l-2.1403421911312535,6.529417334781382 -1.434486730087949,5.2564302719006335 l-2.7362471914703987,8.524280984559036 -2.028741785373801,4.917776010497682 l-1.864856679223395,3.9971851641635534 -2.1851333583211985,8.831047801103118 l1.0287482379920898,6.529430620273612 1.468985624087119,3.234522923682026 l2.5938184985915633,2.805271098939186 3.6714360814845914,1.9636343469714652 l4.513532500271095,0.9691583319649955 10.51929767480135,0.02577221997358275 l5.566615300448814,-0.5899082152878835 m0.7599296972823553,-32.97438381128223 l2.7758817248997913,2.519619015327344 2.415703698437943,3.3948069273888617 m-1.1414475627174407,-9.523438084672183 l3.4537826948088,2.422721857148531 2.8731575126430395,3.043432418435806 " fill="none" stroke="black" stroke-width="1" /></svg>