<?xml version="1.0" encoding="utf-8" ?>
<svg baseProfile="full" height="128.30619906007144" version="1.1" width="109.6040037314581" xmlns="http://www.w3.org/2000/svg" xmlns:ev="http://www.w3.org/2001/xml-events" xmlns:xlink="http://www.w3.org/1999/xlink"><defs /><rect fill="white" height="128.30619906007144" width="109.6040037314581" x="0" y="0" /><path d="M25,25 m0.0,0.0 m14.738246426923501,12.421326570632289 l0.5126650476774578,0.21021195074386276 2.0157626029672224,0.19871575751355516 l14.70047363076021,-2.8152524350608257 1.0973087082196378,0.08591512167455687 l0.5807915773891551,0.377508659874222 0.23604244069085706,0.670481872303898 l-0.43092539963121973,0.7826170769928256 -8.029890095029026,8.61324949158918 m-4.8110348769998,0.523254173138055 l1.6661093947334955,1.0988447856976726 1.5786536046124993,1.6159324554211412 l1.243104417640782,1.7745160263003168 0.8062387585709341,1.796441883467144 l1.2311797622213019,2.166923446022947 1.8626282237841612,5.346004398234774 l1.0155751974477212,5.662998796671837 0.2516650332482713,3.5911172535401685 l-0.06964060830656624,7.075490794009279 -0.638281844912279,5.05046521956509 l-0.6443379194950672,3.9932560407930375 -0.859883027997923,4.118565214824397 l-1.0149503682902505,1.6939364368764938 -1.42753711762161,0.2406387762763378 l-1.49060756261012,-0.9122717506855329 -1.928975038080557,-2.228009650668636 m-7.851087439074674,-15.417364250056758 l1.0754276325893886,0.33576926879098534 1.688937086818844,-0.6518570964469673 l18.122043863459556,-13.177156789437285 m9.093776494604745,-22.53681179844877 l0.23288139787643594,1.0247604411564764 0.03999899620007765,1.8142711775845217 l-1.715579559059012,17.928878903323067 -1.7283219388692976,6.834615957329231 l-2.0932994394934394,6.329310507890865 m5.375954884378049,-14.654746910664157 l2.8868229201125852,-2.015932507513416 9.643171099756824,-3.1650186523029653 l2.3071646868209297,0.31716773463275955 0.33573207742430256,1.363892756118487 l-0.538882672279401,3.416868509485936 -1.687740284419052,7.806716138360847 l-1.3825885944142235,6.74761678598062 -1.1247070286984269,12.067654257502229 l-0.8106199974033024,6.669315149974102 -0.5028528059012128,5.4171687725983615 l-0.45350375875468596,3.345785690567019 -0.30624474897997417,2.4313906159718353 l-1.6443511166711573,2.921026031926316 -1.1816959801341098,-0.17209685467376876 l-1.2386136502695524,-1.2769328547793206 m-6.314156248113948,-32.58644506153177 l1.7935457463523867,2.954264144836785 1.3940942630581326,3.86331649749227 l0.9982051048972274,3.8480779930141504 0.4336139092765679,4.464438160896008 " fill="none" stroke="black" stroke-width="1" /></svg>