<?xml version="1.0" encoding="utf-8" ?>
<svg baseProfile="full" height="101.9771728037959" version="1.1" width="98.01027963428754" xmlns="http://www.w3.org/2000/svg" xmlns:ev="http://www.w3.org/2001/xml-events" xmlns:xlink="http://www.w3.org/1999/xlink"><defs /><rect fill="white" height="101.9771728037959" width="98.01027963428754" x="0" y="0" /><path d="M25,25 m0.0,0.0 m14.514782446930848,3.4478711705310596 l0.5591224893949729,0.1517222351984035 2.005435239264831,0.32258432890312005 l2.3413775293652277,-0.06520421009342285 25.969968243739057,-3.672416426817049 l1.5757849471561718,0.05330144942118146 0.727934715047869,0.3652620932037188 l0.31587402338855874,0.5566655059222886 -0.05957594144856002,0.7213323582955079 l-0.5778932233435988,0.8029480913909016 -12.950962276172318,12.57212092312327 m-1.902403652706372,0.9090868981650124 l0.8773703886767534,0.8305824372846327 1.296481797773769,1.9355234321422687 l1.1768689308970004,2.845098204252067 0.9254313969126761,3.5460508529726296 l0.6805889197705589,3.897977611912383 0.4047001974501098,7.0602418787481644 l-0.2333969182026957,4.285025120227989 -0.6509261287532287,4.150810331219642 l-0.9636687271200021,3.751555038739345 -1.0348780566372346,2.434764400670504 l-0.6285092401889986,0.8716640185170419 -2.0824506940817464,0.20260505986522853 l-1.8481028899754874,-1.950007889265102 " fill="none" stroke="black" stroke-width="1" /></svg>