<?xml version="1.0" encoding="utf-8" ?>
<svg baseProfile="full" height="109.37610186636448" version="1.1" width="109.4925133138895" xmlns="http://www.w3.org/2000/svg" xmlns:ev="http://www.w3.org/2001/xml-events" xmlns:xlink="http://www.w3.org/1999/xlink"><defs /><rect fill="white" height="109.37610186636448" width="109.4925133138895" x="0" y="0" /><path d="M25.00000013038516,25 m0.0,0.0 m16.409119367599487,2.6798462867736816 l0.018465761095285416,0.5054565519094467 -0.35814128816127777,1.710270494222641 l-1.6129915416240692,4.066000580787659 -4.2322951555252075,8.571728467941284 l-4.494882524013519,7.153295278549194 -5.729274749755859,7.522035241127014 m9.359819889068604,-11.189718246459961 l0.941568985581398,1.4693735539913177 0.2362549491226673,1.3040648400783539 l-0.020192433148622513,35.58374881744385 m6.146982908248901,-34.347383975982666 l2.37314835190773,0.40242623537778854 2.5272828340530396,0.07094631902873516 l27.445175647735596,-1.9894547760486603 6.38032078742981,-0.20604010671377182 l4.102151393890381,0.44331181794404984 m-22.042901515960693,-20.065772533416748 l0.9941522777080536,1.4677302539348602 0.183959249407053,1.0559376329183578 l0.0,43.74894618988037 m-20.528504848480225,1.123967245221138 l4.019661545753479,0.4192487895488739 28.35453748703003,-1.5201285481452942 l5.044049024581909,-0.06512313615530729 2.6367217302322388,0.3448311612010002 " fill="none" stroke="black" stroke-width="1" /></svg>