<?xml version="1.0" encoding="utf-8" ?>
<svg baseProfile="full" height="96.69289917286608" version="1.1" width="105.44161255395022" xmlns="http://www.w3.org/2000/svg" xmlns:ev="http://www.w3.org/2001/xml-events" xmlns:xlink="http://www.w3.org/1999/xlink"><defs /><rect fill="white" height="96.69289917286608" width="105.44161255395022" x="0" y="0" /><path d="M25,25 m0.0,0.0 m12.647216172289397,4.107414083286683 l0.5302594754629938,0.12390985063581728 3.2432142339775054,0.1466017320328942 l24.338539368639765,-2.9773299496664767 4.116219708233628,0.22070830889470958 l2.6287340710449905,0.47077157852430696 m-19.429566132880495,2.8650252438479593 l0.7710412357870673,1.1615787079170805 0.31950638910772944,1.314479227759601 l0.018093713158003413,35.855540358841026 m-17.11472319691385,-20.085699267078933 l2.904513820843529,0.2199611989468691 26.068045781884862,-3.369399613605255 l2.612153747084568,0.16291046067523687 1.8625459233531023,0.45251113770601376 m-41.185902503247554,25.744337961340044 l2.4562466182584126,0.27957815280851256 2.8007393577895914,-0.038839563552012304 l22.525060489896482,-2.7675852824486 12.002083451735723,-1.0315520619495029 l7.498608020340762,-0.14220557193814576 3.82898280810402,0.6198097147999602 m-17.0219612419223,-15.565588554418422 l2.5108072883693793,1.4906236916609286 2.1430750195511936,1.9277599132152152 l1.642450689209846,2.0140454041091838 1.2311448240227818,2.2409970023970707 " fill="none" stroke="black" stroke-width="1" /></svg>