<?xml version="1.0" encoding="utf-8" ?>
<svg baseProfile="full" height="109.49251349084079" version="1.1" width="107.85382413771003" xmlns="http://www.w3.org/2000/svg" xmlns:ev="http://www.w3.org/2001/xml-events" xmlns:xlink="http://www.w3.org/1999/xlink"><defs /><rect fill="white" height="109.49251349084079" width="107.85382413771003" x="0" y="0" /><path d="M25,25.00000047717112 m0.0,0.0 m28.0908465385437,-4.771711203943596e-07 l0.4798416420817375,0.5833503976464272 0.5438490957021713,1.9255360960960388 l-0.048128762282431126,11.439082622528076 m-25.269832611083984,2.2744494676589966 l2.5743505358695984,0.42230352759361267 2.6559236645698547,-0.03992164973169565 l22.021989822387695,-2.131268233060837 19.16761875152588,-1.3818582892417908 l4.285328686237335,-0.03065417055040598 3.352036774158478,0.5641138926148415 m-35.51376819610596,4.121154546737671 l0.6215663254261017,1.0673049837350845 0.19973410293459892,1.3819439709186554 l-0.3585745394229889,9.023765325546265 -1.0133227705955505,7.2332704067230225 l-1.828196793794632,7.1373021602630615 -2.1603158116340637,5.359145998954773 l-2.082855701446533,3.6728453636169434 -3.46171498298645,4.264421164989471 l-3.15598726272583,2.606225907802582 m26.827261447906494,-43.27897548675537 l0.8757110685110092,1.206459105014801 0.3596670553088188,2.317635267972946 l-0.18130624666810036,36.62562847137451 -0.46853113919496536,1.1098052561283112 l-0.6810324639081955,0.29236068949103355 -1.672590970993042,-0.99892757833004 l-2.0633192360401154,-2.197674810886383 m-20.389156341552734,-26.037580966949463 l-0.3298483043909073,2.6816293597221375 -2.819240987300873,5.267975926399231 l-3.5760200023651123,5.225133299827576 -3.951496183872223,4.605109095573425 m44.902215003967285,-16.7697811126709 l2.604854702949524,2.5772637128829956 3.1984874606132507,4.293897747993469 l2.6396432518959045,4.60956484079361 1.2361064553260803,3.3516940474510193 " fill="none" stroke="black" stroke-width="1" /></svg>