<?xml version="1.0" encoding="utf-8" ?>
<svg baseProfile="full" height="100.29876626464807" version="1.1" width="104.10910557850454" xmlns="http://www.w3.org/2000/svg" xmlns:ev="http://www.w3.org/2001/xml-events" xmlns:xlink="http://www.w3.org/1999/xlink"><defs /><rect fill="white" height="100.29876626464807" width="104.10910557850454" x="0" y="0" /><path d="M25,25 m0.0,0.0 m28.12814483242317,3.034146443252622 l0.052788910521177866,0.4632261108587307 -0.5451850495216176,1.8209682424830482 l-1.986202870365434,3.308684596248471 -2.558667110076625,3.7199688033738836 l-3.374541917881915,4.179368468461941 -3.3203068311647876,3.5354073989648254 l-3.120479727416409,2.6518513446505567 -4.3494725496873485,2.8782365546577635 l-3.787991537194916,2.028363151985517 m23.81809616071431,-21.27228578879692 l7.433673962222092,6.268748322220212 12.104483670991781,9.222871003294063 l2.477804985157941,1.6058705716403892 3.136960649783126,0.9483609423256454 m-26.27302088190764,-3.6645330145723634 l2.040475966309637,1.2684440672200288 1.7316411703559438,1.7291383892566476 l1.3520190620047015,1.7454104190613424 0.5956118660371557,1.6286628779108365 m-18.544865298005817,4.762866273264081 l1.7783260908250327,0.49268054300207115 2.238876556510654,0.07480311629211875 l24.608803523190094,-2.9099161440855967 0.2789199345198688,0.3768610420307495 l0.03392519673221456,0.6294798942408866 -0.513364672409954,0.6904256872894312 l-14.380522628354827,12.460763529388613 m-7.6745182123926154,-2.3288150850318843 l3.3603890261454783,1.8999833893361286 3.2750319921022966,2.181423997448364 l2.744459768875057,2.5628663868445436 1.642641976421543,2.3044347301313115 " fill="none" stroke="black" stroke-width="1" /></svg>