<?xml version="1.0" encoding="utf-8" ?>
<svg baseProfile="full" height="99.53538391363611" version="1.1" width="101.04030959605925" xmlns="http://www.w3.org/2000/svg" xmlns:ev="http://www.w3.org/2001/xml-events" xmlns:xlink="http://www.w3.org/1999/xlink"><defs /><rect fill="white" height="99.53538391363611" width="101.04030959605925" x="0" y="0" /><path d="M25,25 m0.0,0.0 m13.464083303055407,11.788776546119959 l0.35156707434651047,0.2813799970816118 0.5755453349895935,1.311614233264779 l-0.004369438930564574,21.375144396084348 m0.797746934866043,-12.078864888669411 l9.9269578219404,-1.2953810856750558 m-19.236547172430438,0.07161425469391992 l0.5700780540141357,0.38052917297291916 0.38205977218935516,0.8756587008227104 l0.12897874872029,13.641603173646498 m-4.645463009249133,0.7176551852795678 l1.2007936508164618,0.3744405332525312 2.213963204551576,-0.4652732399860547 l19.010940671674735,-6.270628802894927 m22.546361728450634,-15.178701213440794 l-0.37906136628239534,0.9557081611601727 -3.7696685925061932,2.1892210425931826 l-4.762985236183222,2.2239991624131448 -4.719464011934386,1.7296316973680625 m-2.648022594042594,-12.18114518767087 l0.6749372392371562,0.7837806703789048 0.16967117529749545,0.7813530673800824 l0.003368006763213732,17.092880731806517 0.3218507137079324,1.4041700975943405 l0.9016731286598976,1.013494662914723 1.9230650598809211,0.7169848249485827 l3.4007503693056838,0.34247995486792027 4.874653234175861,0.07640990615047426 l4.103197454747134,-0.3454804708925968 1.8423119181386434,-0.5134212672641463 l1.1112712500610418,-0.808757976611034 0.4626373056134467,-1.1031343666757083 l0.08509890469246635,-1.6100593602232551 m-40.35788612301692,11.572329698375736 l4.292493464251354,0.13879956673276983 23.909898783343298,-1.5205494702741809 l5.221093029754873,0.164034889658539 m-40.33020940078843,10.65704227958165 l3.427630098792854,0.24604463677048066 35.07373513119293,-1.7881315568325158 l5.888307273515065,-0.11896059987952572 3.0372667006771015,0.27678009354134786 " fill="none" stroke="black" stroke-width="1" /></svg>