<?xml version="1.0" encoding="utf-8" ?>
<svg baseProfile="full" height="109.49251358862966" version="1.1" width="108.61084591597319" xmlns="http://www.w3.org/2000/svg" xmlns:ev="http://www.w3.org/2001/xml-events" xmlns:xlink="http://www.w3.org/1999/xlink"><defs /><rect fill="white" height="109.49251358862966" width="108.61084591597319" x="0" y="0" /><path d="M25,25.000000035896953 m0.0,0.0 m29.954078197479248,-3.58969542979537e-08 l0.44403623789548874,0.5240114405751228 0.6583175808191299,1.9680854678153992 l-0.04120461642742157,8.909237384796143 m-26.70476198196411,2.592587471008301 l5.955371260643005,0.16627725213766098 44.143877029418945,-3.6854660511016846 l2.139858305454254,0.043138801120221615 2.061273902654648,0.46376924961805344 m-30.99977731704712,3.7108492851257324 l-0.16467448323965073,1.2677808105945587 -0.8964177221059799,1.2034529447555542 l-9.122388362884521,7.968311905860901 -0.4939337819814682,1.2187526375055313 l0.11848499998450279,0.62484972178936 0.37553571164608,0.3426763415336609 l6.332992911338806,1.78170844912529 5.189347267150879,1.9713889062404633 m11.839112043380737,-11.4830482006073 l-0.11219890788197517,1.0796651989221573 -0.5714749917387962,1.0852286964654922 l-5.048174262046814,5.236636996269226 -5.826367139816284,5.236636996269226 l-7.9425811767578125,5.897302031517029 -9.682562947273254,5.7060569524765015 m32.0012092590332,-12.317571640014648 l-0.6399320065975189,1.95278599858284 -3.0477505922317505,3.283851146697998 l-5.701884627342224,5.425795912742615 -5.372942686080933,4.420194923877716 l-4.789471626281738,3.4319794178009033 -5.288794636726379,3.3116689324378967 l-5.848621129989624,3.1635409593582153 -6.468951106071472,2.9903772473335266 m27.238857746124268,-13.919857740402222 l5.435532331466675,2.3170205950737 6.537798643112183,3.775872588157654 l5.409801006317139,4.050570428371429 2.5997155904769897,3.00915390253067 " fill="none" stroke="black" stroke-width="1" /></svg>