<?xml version="1.0" encoding="utf-8" ?>
<svg baseProfile="full" height="104.2334982074934" version="1.1" width="97.68564860250018" xmlns="http://www.w3.org/2000/svg" xmlns:ev="http://www.w3.org/2001/xml-events" xmlns:xlink="http://www.w3.org/1999/xlink"><defs /><rect fill="white" height="104.2334982074934" width="97.68564860250018" x="0" y="0" /><path d="M25,25 m0.0,0.0 m26.582221142705897,11.094916456259979 l0.43628569228542136,0.20855481636570466 1.6908431919230862,1.489006558651715 l0.9402033683692785,1.2673202922763371 m-18.494676203993563,3.2427756950357436 l2.823100858647303,0.17064473831438096 27.91240650885994,-1.9768836439978728 l4.010795594323495,-0.08620677309030687 1.7844684493793108,0.22604928252238074 m-29.743710354904266,1.6951902201667972 l-0.6339340431218339,0.49367815854852753 -2.9447204430942397,1.6640329379708902 l-2.263412936498784,1.079921023175719 -2.7460712929022066,1.048785114928526 m23.13414931071268,-5.426956017275499 l-0.10201724514679492,0.5574823790532044 -1.6274610007243213,0.6699842348198273 l-5.34917106103147,1.5943507150594132 -5.587453439249908,1.291164172558831 m-0.793625329452752,2.9915731843030877 l1.9739010748874357,0.9178699976834722 1.6006757499421809,1.3676317230448238 l1.2963357887605809,1.4766373419053425 0.7920390124233806,1.3058807205301126 m12.964705670633506,-6.164457174953344 l-0.1616334446062336,0.8773879650551173 -1.4308815714590477,1.8216927215792382 l-1.6597244870500332,1.4657732092479243 -1.8902540564915848,1.3312966354914375 m-19.850334821917627,-2.8126883235784588 l0.5336767342036565,0.3839282347318049 0.2552591840940747,0.9945233636709988 l-0.13622789229342103,11.666369038111911 0.22943573103376463,0.24916424947795524 l0.5001340150761505,0.10031099868968396 10.079076881528529,-1.8138913088878628 m-1.8437811927399912,-9.375097967384873 l0.5535450732971172,1.6410831418334648 -0.5018344368229127,13.575444000867884 l-0.7164413736706344,3.617813913086948 -0.9744387093313541,2.3364204949666156 l-1.403509997867558,2.066870060600755 -1.9090354510605423,1.9695987149266676 l-2.4592310725619626,1.938552911148375 m-4.776057955253131,-22.47218295932372 l2.4448157042776777,1.5042828177299583 1.651030137866419,1.359658925697771 m-7.553977794171726,4.371870299798576 l3.2739407985451074,0.283391821387919 9.083181917034159,-0.9344962890663427 m-14.371046378721335,6.980979551749749 l2.0587404436642034,0.2436875380913734 11.17725369125821,-3.035615866666147 m15.024183519064062,-10.144936576524525 l-0.097723950511443,0.6340710965815274 -0.5537628439383174,0.6619985985256427 l-3.834367977186021,2.3703614909395467 -3.530071971275531,1.56468681076346 l-3.7373901270407606,1.0677518682104001 m-0.7227214826515345,3.437110831880775 l2.74371954563599,1.5238623538246856 2.3138684505074205,1.8594341997028996 l1.8602227679759515,1.914511157387896 1.2127496649168872,1.8881535188920813 m-1.4711980905059363,-16.096073796314286 l1.8580878184183707,1.1929975415718703 1.680468794328554,1.5854575468046879 l1.3239615794926012,1.5252913801913022 0.6368742717837442,1.3410405404469408 " fill="none" stroke="black" stroke-width="1" /></svg>