<?xml version="1.0" encoding="utf-8" ?>
<svg baseProfile="full" height="106.3151776485323" version="1.1" width="97.02477342479213" xmlns="http://www.w3.org/2000/svg" xmlns:ev="http://www.w3.org/2001/xml-events" xmlns:xlink="http://www.w3.org/1999/xlink"><defs /><rect fill="white" height="106.3151776485323" width="97.02477342479213" x="0" y="0" /><path d="M25,25 m0.0,0.0 m20.15339774007086,3.965893334889178 l0.03372893611738495,0.4181327669731179 -0.26328506479187985,0.7462331212799252 l-1.046843231735661,1.6643887134087598 -2.9955224290821127,3.304471034226729 l-3.5677861849209824,2.775291260323217 -4.2404405871714745,2.2299905881016278 m-1.2299434532863016,-6.093627322009659 l0.6262802967149813,0.9897853684937088 0.28560932862785,1.0040884344543122 l0.21429887911017853,19.732905345516617 8.75129039296102,0.2112719396588957 l2.527840959647787,-0.17082707049809812 m-0.46001154425997837,-14.003169585150703 l0.47886090662429664,1.3571803556119078 -0.053622860213404636,3.666012323054509 l-0.6425747794788906,3.5404787319878808 -1.2051044900010826,3.6939465354596983 l-1.4905183768903687,2.9779717317682897 -2.0585042270788056,2.852027968729141 l-2.0239454800083343,2.0685491180751363 -3.26919660658207,2.39615788530258 l-3.237578163998861,1.6783440242628123 m32.13679509837563,-33.95598880447351 l-0.11630071235998277,1.0071482010812676 -0.5620926988014239,1.8966823354179259 l-1.4281914236790307,3.58708768292512 -1.697976692355812,2.904829738258437 l-2.8970898105322855,3.6297763184459098 -3.7627921828939,3.3311449726439113 m8.700045637294542,-8.034647178809564 l2.9956553838906577,0.1424252919535209 6.853104296054836,-1.5179661738795376 l1.353465512511639,0.34057152102775856 0.16372105691311187,0.5445312972549927 l-0.6509584262106223,1.5503442844124633 -1.8879623190936068,3.2378275764228235 l-2.149997637554667,2.875826697122291 -2.47136507882997,2.7966944399599325 l-2.9544113413600597,4.755640272965744 -4.4475658880542905,6.371194160489041 l-2.475682075661564,5.524899614952186 -2.14419584026804,5.613895687142863 l-2.0090856410737756,4.613106769042642 -2.1900168112133667,4.094656340256503 m3.5087409287635194,-25.22977392943384 l2.8902111377967485,0.6521805267790693 4.437041465473934,7.9053509065445855 l4.013678810248611,6.815681570597551 3.1148764598473226,4.47207348964602 l2.245707409535737,2.3107592404394515 1.4195961732208309,1.6891286323947226 " fill="none" stroke="black" stroke-width="1" /></svg>