<?xml version="1.0" encoding="utf-8" ?>
<svg baseProfile="full" height="115.28042633908849" version="1.1" width="104.39156379002488" xmlns="http://www.w3.org/2000/svg" xmlns:ev="http://www.w3.org/2001/xml-events" xmlns:xlink="http://www.w3.org/1999/xlink"><defs /><rect fill="white" height="115.28042633908849" width="104.39156379002488" x="0" y="0" /><path d="M26.66939832549703,25 m0.0,0.0 m14.635207431727732,4.6964916293753305 l0.027781471392324095,0.5090265788761866 -0.23990756219541157,1.8326297255509223 l-0.7768822114670987,1.877236500778972 -4.663895022310439,7.365739258143782 l-4.84559570883899,6.632115748442074 -5.806106723805151,6.799864786610049 m11.486732837445585,-11.241346096137296 l0.6442012091976353,0.8319458925382125 0.3433247448526039,1.0476214698638353 l0.020200223946733483,30.08801097960636 m24.200669761591236,-44.92338334536035 l0.47847070676921444,1.2237614139655986 0.06025128885427681,1.5588359671387246 l-0.5722604640762202,38.35745807072137 -0.3527930991450435,1.0614171302855175 l-0.4705153440369736,0.5023800838739607 -0.5989110485256512,0.11732363868377284 l-0.6682181555163188,-0.6170606381392396 -1.739965010511098,-2.280658407831046 m-4.73121532119898,-19.1015851173678 l-0.268139312619637,0.883842018993167 -0.6447825910705547,1.3065505622237243 l-2.699546575779558,4.3734441774541315 -3.0436691572893997,3.6567633588132513 l-3.1328070753369377,2.9268592402683615 m27.59303013657663,-13.728568919424257 l2.319178452352747,1.8631289765076786 2.7833620612708154,2.986601915600772 l2.2871516475435567,3.25625039041259 1.0978138747302328,2.5824286942825374 m-7.316594712299935,0.19312024279124265 l-0.45040440380994007,2.909274308855949 -2.3668200179862158,4.893309203314609 l-3.645170252881226,5.11643653287445 -4.787271519395245,4.2540173573157665 l-4.824430471722613,3.500360173458994 -5.457913744751478,3.2665292859830255 l-5.856028701272713,2.749802072275429 -5.708950960481733,1.9524514774681279 " fill="none" stroke="black" stroke-width="1" /></svg>