<?xml version="1.0" encoding="utf-8" ?>
<svg baseProfile="full" height="110.19496705485946" version="1.1" width="102.4550901246121" xmlns="http://www.w3.org/2000/svg" xmlns:ev="http://www.w3.org/2001/xml-events" xmlns:xlink="http://www.w3.org/1999/xlink"><defs /><rect fill="white" height="110.19496705485946" width="102.4550901246121" x="0" y="0" /><path d="M25,25 m0.0,0.0 m16.909375009752644,13.079295199373577 l0.4145752731272978,0.11403714798456585 2.509937120536687,0.04398524856557949 l20.501653125465563,-2.2127093094941808 2.7927302017689204,0.13613163619526872 m-24.702334410177127,9.388736596267986 l2.956294120825798,0.16384727061391507 15.761022312469967,-2.1210227558643644 l2.673811192784826,-0.1417559476781575 1.4098598252985177,0.182115802360356 m-28.85463326813125,11.041625896923192 l1.5103220794499412,0.19609114453415394 1.9099884995836804,-0.04793212274000835 l24.807958564512145,-2.699614638439718 5.453872310901154,-0.39340706505087353 l2.4035538470363647,0.2664278839192333 m-18.241226323683808,-22.140024357033703 l0.20291182008982528,0.9192129973591209 -0.11609059104242529,1.564865319721967 l-2.0706645325762216,8.458261994288168 -2.241124179314554,6.145871295965299 l-2.4492276000546847,5.095714222680859 -3.0802860408524966,4.895090180480752 l-2.889742560763046,3.5367756416381244 -3.4350715676957293,3.206770886510265 l-3.9551999922111127,2.7764700815099657 m20.533815304043834,-21.069898499391986 l3.176245122433199,2.617567001952668 14.327482708284608,13.667539467136162 l1.8659212645673091,1.276677432135425 2.36936148818226,1.16917179226389 m-28.96375572184911,-4.846198958458647 l2.2009026619662646,0.20240260169668006 10.58750195058342,-1.1500325289927162 l3.2841625713041442,0.016573842620646612 m-21.289532852763198,9.694639861755824 l3.2748685527148393,0.28393446745519046 11.537887538229077,-1.3170333152658809 l6.855956751448667,-0.5194592361791946 3.1116035821339905,0.005744054418077573 l2.87621208999884,0.4097162949061757 m-14.795703965655004,-6.429248616849355 l0.402146073831389,0.8117855034039846 0.14155470375376064,1.5564692654937617 l-0.038377816488925076,19.68394113389299 -0.16603851722226146,1.793705453702667 l-0.3473012628178743,0.80125675497279 -0.4801067025617595,0.08085303159896788 l-0.5567785109540825,-0.4226373578784171 -1.5844027992629766,-2.1581571888048234 m-5.597267496710364,-10.08640477725929 l-0.1976762558556493,2.271664979760992 -0.7578317977916316,2.5894248059164586 l-1.2216074659644087,2.497839117346544 -1.4182641662669992,1.9927207961255868 m18.35186657648218,-9.884909784292475 l1.3005705721350218,1.988902317001539 1.3976034572209162,2.815654899023539 l1.3542314700471476,4.404552622592172 " fill="none" stroke="black" stroke-width="1" /></svg>