<?xml version="1.0" encoding="utf-8" ?>
<svg baseProfile="full" height="102.99049228326297" version="1.1" width="114.75313194371252" xmlns="http://www.w3.org/2000/svg" xmlns:ev="http://www.w3.org/2001/xml-events" xmlns:xlink="http://www.w3.org/1999/xlink"><defs /><rect fill="white" height="102.99049228326297" width="114.75313194371252" x="0" y="0" /><path d="M25,25 m0.0,0.0 m31.150991494146012,17.514461725910852 l0.3595429326620381,0.4285826986251361 0.5461843892167356,1.49912475040887 l0.009906564925246247,6.592479557950284 -0.4272555687658898,5.457983708502276 l-0.834104152403935,4.648176372260622 -1.187949262646354,3.779663869598451 l-1.696197535748219,3.711910461163621 -2.044363365548625,3.1704619193495245 l-2.677308532797798,2.9430376233240305 -3.6435874811553868,3.2446095961693033 m-4.053301991961252,-37.66194381874593 l2.2037788627620682,0.0832463213148646 2.4513524570707443,-0.1656331202768935 l11.829175606911665,-1.8480373043038762 m-15.094030555839641,8.752243926816812 l3.763711256533423,0.6935916119153652 11.098457102253638,-1.9636301403309464 m-16.17943885386876,10.562349432381641 l1.2038881821857905,0.34691658582461593 1.8634943169253595,-0.17614551026629066 l11.740865756109555,-3.5431595643654616 m15.29221834792627,-26.040500764101708 l0.6886563434563694,0.6861481058815768 0.3951431620254606,1.3163246472609886 l-0.037808304545805,40.86211606299776 m2.426723955577015,-33.79022472328764 l5.200538274297267,-0.6404794752664641 6.652773080974984,-1.1463630102945295 l2.194903671585616,0.006839009792778566 m-14.176712261561777,10.410573154848567 l4.103050364373321,-0.11505427359500983 7.857568419507379,-1.0846151515762232 l2.151798306960044,0.007698507464919794 m-14.393848414237546,11.975489066342924 l13.942043745168402,-1.6213498116559735 2.0722716312391034,0.010073531667486642 " fill="none" stroke="black" stroke-width="1" /></svg>