<?xml version="1.0" encoding="utf-8" ?>
<svg baseProfile="full" height="87.69318222866224" version="1.1" width="99.43156850440567" xmlns="http://www.w3.org/2000/svg" xmlns:ev="http://www.w3.org/2001/xml-events" xmlns:xlink="http://www.w3.org/1999/xlink"><defs /><rect fill="white" height="87.69318222866224" width="99.43156850440567" x="0" y="0" /><path d="M25.060266839494886,25 m0.0,0.0 m5.661104972316925,10.679057638433086 l0.09614562911359259,0.5306700609659999 -0.5568004101857591,10.490303258517724 l-0.6650034313565106,5.287040344321048 -1.3358444513225372,3.8141251572651016 l-1.556199605814493,2.4259874045544967 -1.703669542246103,1.684414484144819 m5.268073293468076,-27.25031509341936 l7.771603198941795,-1.7967324339104167 5.326686386521787,-0.017497498347002174 l3.6029548224914265,1.5777857238461024 0.2758719597411976,1.9239093138381538 l-0.7078209173879516,14.37592810488678 -0.5414201009127033,3.7351947891190664 l-0.6141761850657602,2.492820673945765 -1.0210576229956028,1.8517232468318678 l-0.6682325426837955,0.23477535008403078 -0.6935694738102123,-0.24496019731923038 l-1.773369321548347,-1.6352918164661634 m-8.058350917014042,-17.411504873889132 l2.326711072554783,-1.4192996345181124 7.570088763686352,-1.1886799845882206 l2.032201069798209,0.09197790786787204 m-12.138928637335985,7.951509065697114 l1.5396825420560236,0.19168848559105492 10.567954678909791,-1.5865792965578045 l2.3207145064651313,0.1254992835411001 m-13.995582013945942,6.9533340174251075 l1.0604309134954581,0.1946215553028813 1.6492009794462965,-0.1098301018135845 l10.050019906127662,-1.6141958301168515 1.9961722697079223,0.14226703687841533 m-7.296843037652709,-10.712813337129875 l0.5370976120077654,1.538730776545109 -0.03642931434807274,20.031681406252908 m15.701674173691341,-27.138805305097947 l-0.023124539076159075,1.2563355376740417 -0.5871690338076173,1.7121750278188792 l-1.70524994842733,3.856018830091591 -2.069681053840096,3.4389137658781586 l-2.787573154683164,3.033530953878046 m4.574293892358292,-4.6204525528481195 l1.037015139082485,0.23085640707294675 1.4109883246690313,-0.06974121718933107 l10.46810344629772,-1.7898730644970562 1.961366109768023,-0.07154750787026766 m-5.816273075215959,3.040074260460468 l0.21617355567330762,0.7086646784981335 -0.07909727828493249,1.337128378764978 l-1.4898867961172604,4.283751247820075 -1.929122380618157,3.883216366793695 l-2.399340036137274,3.78764363371324 -2.1167953679680647,2.6932520190922795 l-2.3938427234318573,2.5176718320476765 -2.6584112018231956,2.2670239487809 m2.800105516926548,-16.943817994065117 l0.7503263037523183,0.45033625826663576 1.4822367533400698,1.3685703400814349 l11.632492499462662,9.0055714675048 3.646229935587442,2.3032365243177666 l1.7255255746943956,1.0119329634680905 1.730919977814565,0.38827482398962404 " fill="none" stroke="black" stroke-width="1" /></svg>