<?xml version="1.0" encoding="utf-8" ?>
<svg baseProfile="full" height="104.55155943728873" version="1.1" width="241.43317243602903" xmlns="http://www.w3.org/2000/svg" xmlns:ev="http://www.w3.org/2001/xml-events" xmlns:xlink="http://www.w3.org/1999/xlink"><defs /><rect fill="white" height="104.55155943728873" width="241.43317243602903" x="0" y="0" /><path d="M36.198879604374454,25.252910842857254 m0.0,0.0 m43.37961771777449,23.861024784460152 l-0.21785294984568027,0.09249334596182275 -0.9377777468085413,0.19221285922035689 l-1.5212190748729604,0.02706032062078248 -6.175268842272113,0.7308421540584881 l-5.5051841956055085,0.8740331068203068 -5.775628182866739,1.125649768778994 l-5.227418008168323,1.1667972311843495 -5.072680700256565,1.222688930899586 l-4.962674455606762,1.23004157859921 -4.528982681189226,1.2699591119380627 l-3.6532304291316624,1.3434489296756529 -2.9179563279168685,1.2766796865026246 l-2.6419775440666418,1.259906486744425 -2.2970854757781285,1.3471683988028709 l-1.7332510481407606,1.3586900950582426 -1.062749298175331,1.4309672167645366 l-0.34756036144712876,2.380549454624353 0.511307950347851,3.1297370963662305 l1.5090716695420843,2.3853698045904377 1.7833191986814596,1.7810470917193224 l3.4884803610054953,1.516798655510299 3.8833262865358096,1.5665136730829554 l4.406326703835468,1.0526041841741272 4.5765063676307305,0.4940753032074406 l5.002504224651504,0.18228932506582862 8.795264379610815,-0.019194498219085882 l3.654575466797283,-0.42968461119707596 3.318202661982441,-0.7185592960332121 l3.300051479705,-0.9828790486865399 3.2998229325862947,-1.293948355152429 l2.9776395046131334,-1.5729154999080304 3.054525166148293,-1.7875715947348743 l2.632853856900002,-1.8145723039062913 4.160241830698392,-1.806378084420506 l5.456178266187311,-1.3837057345524413 6.1783689384231675,-0.940089604682253 l6.315918587955956,-0.7784620073962815 4.6727040721282,-0.7705852708106932 l4.075612457883297,-0.9527035522656877 3.1123615924460584,-1.1175002603913167 l2.838936365559979,-1.356323104497388 2.5188348632402144,-1.5706303721272812 l2.3282704986368663,-1.7602758627409825 3.904300606986674,-1.4107416523625789 l5.610329868165549,-1.2093041410257965 6.270892085107331,-0.9341943730450115 l6.564360745687404,-0.8739634801435527 3.4949979642349582,-0.8637079491894246 l3.7469824145653954,-1.1095342783431772 5.848816216882568,-1.3354222733735799 l3.779436149224103,-1.255834087423834 3.176106767449243,-1.4331722549024277 l2.6638143969092356,-1.612600954589121 2.203077207915231,-1.5180781207359584 l1.5765510987369584,-1.3351282501564594 1.1059873819218895,-1.2779436890484182 l0.5843041142065586,-1.276764446209105 0.1545254686559916,-1.4675368456925846 l-0.17511418771009635,-1.6174648153589122 -1.0764418913056812,-4.508883304745696 l-1.7219988299725302,-1.951482867405613 -2.383983187665496,-3.607993065364331 l-11.90724645077911,-2.0821824832972724 -10.166543410643111,-0.8136470431535171 l-4.733474481311299,0.4473145912925942 -3.5494089066646204,0.6901689112371842 l-2.8346335031391616,1.0928029700768231 -2.6418620724408717,1.8045523448082523 l-1.8120597529466211,1.9926310008291144 -1.1342256303103078,2.0649328031237286 l-0.7218900120188704,1.8548647316214717 -0.4028539222304489,1.6485695036009929 l-0.24693732251749403,1.621254736299208 -0.12475327506414484,1.74329300014958 l-0.037506485861220025,1.9405275420069148 0.8556993751504817,2.081119105443429 l2.038476835373114,2.0413535505510314 3.4168705171301887,1.4342276619847993 l8.136044585029865,1.8506078414914178 8.424171354992993,0.7902327890774491 l6.798907904819311,0.19306376230535507 8.090815122700405,-0.14687460476956857 l7.8036077706581715,-0.7069585872789477 5.41825300711317,-1.0601417503112849 l4.657162453833612,-0.9675412643378059 4.50386876081103,-0.838127163615039 l3.4535163191596934,-0.7763932996436068 2.845749414980082,-0.8556763556627964 l2.8009583993931284,-0.8908615478848636 2.7717765867802866,-0.9276590569519474 l2.780269930336096,-1.0290053061508897 2.7379990727630448,-1.120278683499805 l2.6797479979158076,-1.0696127882107243 2.834757176482013,-1.6438659305234744 l2.3805547293169824,-2.128485426700981 1.8163694509203092,-2.1412909763391634 l1.322840822568177,-2.298682852767125 " fill="none" stroke="black" stroke-width="1" /></svg>