<?xml version="1.0" encoding="utf-8" ?>
<svg baseProfile="full" height="95.17790978359383" version="1.1" width="96.15107103390531" xmlns="http://www.w3.org/2000/svg" xmlns:ev="http://www.w3.org/2001/xml-events" xmlns:xlink="http://www.w3.org/1999/xlink"><defs /><rect fill="white" height="95.17790978359383" width="96.15107103390531" x="0" y="0" /><path d="M25,25 m0.0,0.0 m16.665570286267968,3.4901050085199716 l0.04591069755624934,0.519752944548661 -0.1056303924418214,1.5889291653435105 l-0.3553661645805738,1.4514848171592536 -3.1291448025691317,6.600972214684046 l-3.7661783929167494,6.394133513103569 -4.54227244605383,6.183251340292104 m8.387450524857819,-10.053841565606085 l0.4845084096373481,1.2608842312703579 0.12701828115916114,3.177064167233324 l-0.3732090620117632,24.200528639828427 m6.340267969943687,-40.434449503355125 l1.9388777887630841,0.25132565322091127 19.299551927906496,-1.9841103550869603 l3.6335822923363317,-0.20533134589225469 1.500134116051039,0.2579919191607061 m-13.83617406525536,2.629133764705509 l0.08498337229873776,1.3203121908837039 -0.7114914062357716,2.5890816290959897 l-1.3957555412535718,3.335470959571561 -1.5154829060087132,2.6409051605913363 m-5.712110297638052,0.5651194171447886 l0.5551245411983909,1.4021218021853095 0.3198331926222134,4.075214708103447 l0.5622055020592128,23.92185930688776 m-0.5390644019607761,-28.61108265130631 l17.514928821002858,-2.219833871077735 0.7463771605911945,0.040304371985944894 l1.0475432151592432,0.6339448111505132 0.31820368204901567,0.8996973998846699 l-0.8706286172290725,28.305113403734463 m-18.0794761941694,-15.13493843976891 l11.408063404901958,-1.117351811222828 6.401510419636421,-0.24085108624182283 m-17.31535854601563,15.589586554953364 l9.228652467071774,-0.74258889468866 8.25574575960197,-0.29066079082895646 " fill="none" stroke="black" stroke-width="1" /></svg>