<?xml version="1.0" encoding="utf-8" ?>
<svg baseProfile="full" height="107.63286241468728" version="1.1" width="117.67636863289107" xmlns="http://www.w3.org/2000/svg" xmlns:ev="http://www.w3.org/2001/xml-events" xmlns:xlink="http://www.w3.org/1999/xlink"><defs /><rect fill="white" height="107.63286241468728" width="117.67636863289107" x="0" y="0" /><path d="M25,25 m0.0,0.0 m12.123060379321162,13.627934919477529 l0.3381720070754916,0.4247183843459622 0.45821918325403,1.6886089658186316 l-0.014069160946408954,27.328435753180592 m0.5303498431873986,-28.78598821925495 l12.73490945856556,-1.834080843132465 0.6615527206404983,0.034424220700471526 l0.977904608700605,0.7889544754624497 -0.3974648219272373,28.521372142426575 m-13.55138819708301,-14.335302597031273 l13.374732010939011,-1.3281617988678036 m-13.549441499807788,14.832546848854053 l13.059776501245976,-1.2932812062040737 m9.605207974889254,-32.212173665312065 l3.7321226977114,0.16553844118817773 14.431512622695687,-1.8710115034938062 l1.8003778697778963,-0.11458945609989966 1.5655654912732,0.2030486835450561 l0.5726150489386881,0.34034354961833496 0.30064474462772145,1.1759945945041563 l-2.074743972587414,6.317914011197883 -1.8327405040850808,4.061357856936372 m-18.10729811532408,2.4269972874293586 l19.366785189894753,-1.6610660786139735 3.400340196195795,0.06726993551471196 m-24.38876770542821,-9.175011310427095 l0.4828126313207129,1.3001880529838141 -0.10557527161401627,1.1026129324902811 l-0.3961047758993723,41.65457918222573 0.06081576424113253,2.0713912124286114 l0.3414003446399414,0.8514005718026696 1.2761222074497998,-0.0020446761321837176 l1.2234662490925614,-0.5440543024261424 8.51100623705387,-6.014556996966805 m-7.97466339935821,-14.90051008364282 l3.295291817692043,-0.5511970591241117 17.768512699952712,-2.8875633539212773 l3.1925375937258873,-0.033559004649871216 m-15.570113826597773,-8.640349509535525 l1.0047980901007443,1.6000822636129803 1.228092458759006,7.6140730405515855 l1.9820906327001897,6.536476988938498 2.5365533778961558,5.898625523158419 l2.491739040294726,4.182811292041049 2.099038362828482,2.749377915530218 l2.3401626033160827,2.466659039046201 2.618502888731172,2.1728768656772504 l2.878945122092439,1.6107491288357918 0.8871132864005078,-0.11260124236897727 l0.38588992632739083,-0.5745138236116957 -0.043795354746423154,-3.524191792415632 " fill="none" stroke="black" stroke-width="1" /></svg>