<?xml version="1.0" encoding="utf-8" ?>
<svg baseProfile="full" height="96.85607766639153" version="1.1" width="102.6615271109653" xmlns="http://www.w3.org/2000/svg" xmlns:ev="http://www.w3.org/2001/xml-events" xmlns:xlink="http://www.w3.org/1999/xlink"><defs /><rect fill="white" height="96.85607766639153" width="102.6615271109653" x="0" y="0" /><path d="M25,25 m0.0,0.0 m17.541272122625628,3.4483862953722357 l0.04998043953932987,0.49004465051029317 -0.1057856393984226,1.5484417070996492 l-0.7283432224874483,2.3959190150573138 -3.104367783121383,6.725354958842196 l-3.8571222774680463,6.257016488832903 -4.668727863503485,5.919296569965466 m8.69789193585551,-10.090097548117642 l0.5582543124371842,0.8696678491153509 0.13788885635430173,1.054707295316553 l-0.01814322349806552,28.23734038439721 m7.129914845390051,-34.399624269785974 l1.1714517516799523,1.0631458880833766 1.4934673143576722,1.7302535597615447 l1.2450546154558157,1.9186548531462246 0.6826278469582444,1.6261174933572355 m19.515214459777347,-9.427956168205963 l0.00827738113518933,0.840578397178133 -1.3107483712718628,1.9374506423278848 l-4.059317644804354,4.639035351619511 m-7.255134908281102,-13.279885262239981 l0.4312214967599251,0.7567610960608742 0.210544595186641,1.291758192402933 l-0.4156121174952167,10.145093849269283 -0.8968467742774584,6.593352921005664 l-1.3851675199095639,5.012407152059497 -1.9302387994633385,4.036249650014366 l-2.428842643586695,3.256829230565151 -2.774940012045416,2.557769894079072 l-4.320866535216854,3.029855544020903 m13.916042387026847,-19.534387742850726 l6.305789069425387,7.575043057938868 5.527477381501932,5.823329648114606 l3.659137771579977,3.464660899033314 2.568265705249312,1.746035759213873 l1.0719581584977815,0.28052799944924794 " fill="none" stroke="black" stroke-width="1" /></svg>