<?xml version="1.0" encoding="utf-8" ?>
<svg baseProfile="full" height="114.01264209931115" version="1.1" width="108.20007988712089" xmlns="http://www.w3.org/2000/svg" xmlns:ev="http://www.w3.org/2001/xml-events" xmlns:xlink="http://www.w3.org/1999/xlink"><defs /><rect fill="white" height="114.01264209931115" width="108.20007988712089" x="0" y="0" /><path d="M25,25 m0.0,0.0 m8.567396146141085,20.15402912958708 l0.43087084554378074,0.4051631720518344 0.5803260839958297,0.6777477669122656 l0.5433195834370516,1.2396619038176155 2.0974598248866494,10.047719093367439 m-2.1965747319127717,-12.0318273748184 l27.280119163751923,-2.0921243015455078 10.970994486536757,-0.5005009122536523 l1.6387590591118661,0.5235306776295657 0.4405188602263863,0.912385136140714 l-1.460252574109987,4.577193421633084 -2.2872409676450056,4.759116478422021 m-32.0969919175934,2.4583215142662707 l33.65994989693878,-1.9894107867277506 m-19.7299443931679,8.202022824728083 l15.283566841653293,1.0058587966384396 10.583971694204694,0.27530999361600555 l1.7964891273486032,0.2186764286759979 0.9231899520566991,0.36138606472887624 l0.8731899046036318,0.6733856802113584 0.3009630011129402,1.0478180740245968 l-2.1250270327754612,3.83900125140481 -4.358796523957511,6.236788555927705 l-3.9104227675135905,4.751819023679832 -3.5073112501828216,4.872762028717575 l-2.3076643122500946,2.3571606780373555 -2.02742667148047,1.0296477804379396 l-0.8551517006964667,-0.3700889628694462 -2.1424088986723455,-2.0397073716010583 m0.20242012888501879,-32.127798307292096 l-0.048297921301680584,2.173932117673596 -2.129857318895736,3.8173572596404473 l-3.2562962258688257,4.515396178400686 -4.185539647881875,4.670473013158101 l-4.006012560652488,3.6960475126726453 -4.664096638384677,3.5473705170790537 l-5.286494681653664,3.220843150627993 -4.288629110605969,2.035002701586417 " fill="none" stroke="black" stroke-width="1" /></svg>