<?xml version="1.0" encoding="utf-8" ?>
<svg baseProfile="full" height="112.31649609310271" version="1.1" width="118.41843105650274" xmlns="http://www.w3.org/2000/svg" xmlns:ev="http://www.w3.org/2001/xml-events" xmlns:xlink="http://www.w3.org/1999/xlink"><defs /><rect fill="white" height="112.31649609310271" width="118.41843105650274" x="0" y="0" /><path d="M25,37.95340271680594 m0.0,0.0 m34.47934316300071,6.166599996898621 l0.030370656021496762,0.5942220383276331 -0.41671531840749326,1.9929253096045936 l-1.6703811495579146,3.897118798670492 -4.434413339281319,7.893904210889617 l-5.2590320577381595,6.976304926026975 -3.4505614232474495,3.904356685630715 m6.871246998732847,-37.979308230650034 l1.2382515388172537,0.6203931113203629 1.0021006813049689,0.8241765497172946 l2.209396743619975,17.95907746273178 2.3729087083560674,4.377448770062577 l4.452994410258637,9.011444450555027 3.0246212737925324,5.641385446019204 l1.7594073018500536,5.109518816658667 1.2468804125018975,5.753309209548911 l0.7695285667217873,6.620215824284335 m11.220345513452871,-46.170891530189365 l0.2600245514849221,1.4251862281598662 -0.8724032633914844,1.8639730064232403 l-2.735837467343776,4.306266319123788 -3.5807715631901624,4.644523706489641 l-4.590814854538882,4.824369665814367 -0.082414218619176,2.419949893173619 l2.94913036512769,-0.1657266113554033 18.62633214401919,-4.6507997045456495 m-5.32338068240872,-6.29142444480524 l2.2368030111661774,2.502893584891953 2.768993483575544,4.059525407740768 l2.226046513358414,4.348156173653304 1.090430357064242,3.285521390866935 m-46.24315633085596,-38.718019178544544 l2.4453714978699277,1.5925799083483863 2.4399636341348097,2.1372216496845833 l1.87604432873411,2.1384124800950923 0.758879515944709,1.3383335098825 m-11.792796071600833,16.833407501138392 l1.4381557724142426,0.4300117580737872 1.1100530077663024,-0.10184789713928515 l7.672082184874479,-2.6245564888429964 0.6949032372152153,0.3418657348497353 l0.388031439686335,0.6547292215854297 -0.08689936146518522,0.7993168383347973 l-3.849828741702308,6.312437929779085 -0.44429140813764156,1.3933795513642433 l0.3526841021706104,1.164488833549494 3.491606126506255,4.171459638790039 l0.09580209941836032,2.206681990371037 -8.774788455455855,7.320138653569817 m-3.0588712213791274,1.2142924979245213 l4.735130174398316,-0.5953531858454987 6.072719369224158,0.30134548274800765 l11.418913769378884,6.272351703923937 15.850344922877682,7.0047546480706195 l5.241519492076526,0.9718147076694248 3.171004214564615,0.10505531455880138 " fill="none" stroke="black" stroke-width="1" /></svg>