<?xml version="1.0" encoding="utf-8" ?>
<svg baseProfile="full" height="106.82634783195078" version="1.1" width="102.98493254779021" xmlns="http://www.w3.org/2000/svg" xmlns:ev="http://www.w3.org/2001/xml-events" xmlns:xlink="http://www.w3.org/1999/xlink"><defs /><rect fill="white" height="106.82634783195078" width="102.98493254779021" x="0" y="0" /><path d="M25,25 m0.0,0.0 m26.40391046419736,5.011282969467584 l0.4946952323605087,0.34838282461248604 2.1120688187802408,1.4818230137241089 l1.7045483979736404,1.778220667732068 1.5326004573335987,2.1090412130772127 l0.9727436420792713,1.8676503328382332 m-22.683575928077694,7.101883447759678 l1.868517597357054,0.47165517463881823 1.4498555894457572,-0.048319778682249105 l30.542324957833372,-5.006883475216159 1.791539316266119,0.013012203332329705 l0.8855187559013724,0.4032229597013656 0.2777775808558132,0.6763459459372629 l-0.30406008955118263,0.9135822714409609 -1.1376701551984947,1.0527156299279221 l-1.5148327039183953,1.3634312855840287 -9.65993654013234,6.7956784585764645 l-11.242276945188605,6.943662232667404 -12.784954694516042,6.863122579163636 m-6.61191433368122,0.43868871734775994 l5.890261313171099,0.8774305687006695 7.591993856821097,2.2642069151534625 l19.75277855625491,7.929523442425854 6.452992614114213,3.0411629315164617 l4.180459799442563,1.350623007382734 5.019566987866205,0.7852022931406916 " fill="none" stroke="black" stroke-width="1" /></svg>