<?xml version="1.0" encoding="utf-8" ?>
<svg baseProfile="full" height="94.33080739364411" version="1.1" width="106.57317927351549" xmlns="http://www.w3.org/2000/svg" xmlns:ev="http://www.w3.org/2001/xml-events" xmlns:xlink="http://www.w3.org/1999/xlink"><defs /><rect fill="white" height="94.33080739364411" width="106.57317927351549" x="0" y="0" /><path d="M25,25 m0.0,0.0 m27.31261792555271,3.324823576366703 l0.39033026614778493,0.4447797413424426 0.4626450164443067,1.115664690591563 l0.11074933283365891,1.2020022115144604 -0.06599857799033076,7.676064779818248 m-21.489513218782612,2.0765120746466503 l2.227092060090794,0.32981572584201463 2.427123099653242,0.004019878378986651 l21.478344557897167,-2.997083136244633 10.694918963638475,-1.2404193615520054 l3.1537501470325,-0.14803961238908267 2.3367120316035184,0.47771961729326246 m-12.286283504839952,3.6339204631319735 l-0.12931660690094882,1.571201665597239 -0.5079166009658918,1.617070721541819 l-2.537373985513426,5.13912770199435 -3.5812676013998725,5.792774158679024 l-4.603166041675817,6.031666454696587 -9.53491584128666,5.4761532972565785 l-5.771298874848352,2.8030327451379287 m9.459052464037557,-25.449203359456106 l2.0300362097320233,0.6886403072941683 2.714817669823295,1.8499036383375833 l14.531391706300875,10.815218238957188 12.610889809023224,5.176212596629273 l3.476596184099459,0.5196095976069139 1.6631626838087734,0.01905157213542998 " fill="none" stroke="black" stroke-width="1" /></svg>