<?xml version="1.0" encoding="utf-8" ?>
<svg baseProfile="full" height="102.08479667741923" version="1.1" width="120.89899596676814" xmlns="http://www.w3.org/2000/svg" xmlns:ev="http://www.w3.org/2001/xml-events" xmlns:xlink="http://www.w3.org/1999/xlink"><defs /><rect fill="white" height="102.08479667741923" width="120.89899596676814" x="0" y="0" /><path d="M29.72841655978709,25 m0.0,0.0 m15.156881208671733,4.716188377066356 l0.04852051298989032,0.536525320297464 -0.19508890366703557,1.870513557208025 l-0.8313756804242097,1.474071087321562 -5.985673288290753,7.438695968619819 l-5.907019297710001,6.468903473742289 -7.014661111356714,6.881857291048395 m14.099356573825533,-11.147022523124384 l0.6694016907798792,1.5542709921050704 0.1989375023441501,3.395461932464302 l-0.5230998833676744,25.905370290087372 m11.558975367985655,-27.333822793304723 l2.2531520937195917,0.16783025317008135 4.029524953823667,-0.31530355150601347 l28.766074364004606,-2.5167075481404875 6.4209156728389365,-0.2775433933407178 l3.425757630813795,0.3244696373215723 m-17.651754335518177,-16.675190800678795 l1.0486612675207492,1.3291937674304177 0.251419688910511,1.254151806394539 l-0.15385887371058937,44.750157677463314 -0.36806842295838177,1.4023252128876007 l-0.6231951427749749,0.6939797446295294 -0.8519167968466588,0.18642089825663377 l-2.01065239578603,-0.694998564477501 -2.70191137937457,-1.7910810851864405 m-13.95002150994424,-20.557496201742858 l2.2005509179105696,1.5339997615690706 2.6319551962201992,2.589932528852623 l1.8692867614132058,2.329655174989747 0.9796502018349951,1.8842490290756935 " fill="none" stroke="black" stroke-width="1" /></svg>