<?xml version="1.0" encoding="utf-8" ?>
<svg baseProfile="full" height="140.38975423166625" version="1.1" width="101.26605002217505" xmlns="http://www.w3.org/2000/svg" xmlns:ev="http://www.w3.org/2001/xml-events" xmlns:xlink="http://www.w3.org/1999/xlink"><defs /><rect fill="white" height="140.38975423166625" width="101.26605002217505" x="0" y="0" /><path d="M25,25 m0.0,0.0 m9.085537345232705,32.29866042135646 l0.5427168832089604,0.31794869880396825 1.9835063415050331,0.8560730377328386 l1.6446650595618857,-0.05045906265122793 30.148540019331868,-9.750341730382312 l3.2806712726427283,-0.7364544598659174 2.355818106724954,-0.19489549745700344 l0.9982545498019165,0.17279344923227946 1.050458850808087,0.817689831065468 l0.17588159335690967,1.7382859830154547 -1.287247232156812,2.449692140590942 l-2.730496763018141,3.1070721116652136 -5.257738241131785,2.99959829063684 m-19.135919065437214,-24.989846284037966 l1.4155853578885758,1.4255832499955503 0.6973857360187342,1.6745978936140529 l9.271641457990349,33.301163177192535 0.024308775966757207,12.517279472018219 l-0.5367709997975789,8.512533531790112 -1.245748228709822,5.023825959000778 l-2.622938578450346,2.9158579779808855 -7.123318737838948,1.6611957137576094 l-1.4798643552092479,-0.7025712983452659 -1.8058740850223802,-1.2199431548576531 l-1.894326402698257,-1.6683140256213336 -1.1201049491740498,-1.8390401879143161 l0.05128994812901893,-1.4754172521799116 2.84125977647616,-1.2009702947570828 l2.290468697346967,-0.23057997049084836 3.0498727727173534,0.1003908600809258 l1.6680310832952645,0.6575561731668664 2.554478686826307,1.30163900961792 l1.596410888709617,1.8174350722983004 1.8233621578499188,3.27452037045215 l2.11192225788308,4.430944533648899 2.2213939149168125,5.409902746658634 l1.8263872236140866,5.666347744854208 " fill="none" stroke="black" stroke-width="1" /></svg>