<?xml version="1.0" encoding="utf-8" ?>
<svg baseProfile="full" height="99.9823238092376" version="1.1" width="92.99458732079856" xmlns="http://www.w3.org/2000/svg" xmlns:ev="http://www.w3.org/2001/xml-events" xmlns:xlink="http://www.w3.org/1999/xlink"><defs /><rect fill="white" height="99.9823238092376" width="92.99458732079856" x="0" y="0" /><path d="M25,25 m0.0,0.0 m16.36210323569251,3.7403089221096897 l0.057577397269469706,0.519410200638931 -0.11045651481294369,1.646553430066554 l-0.7326682323630419,2.4651277588078053 -3.000431890738931,7.192429191975385 l-3.625055157774495,6.707747767311695 -4.349266389705438,6.325319590697573 m8.418625379576072,-11.185305206363456 l0.5048523136315844,0.8976567889731127 0.13823673071723974,1.1345182781052852 l-0.033757955407217724,30.538557086915027 m6.8483465461155175,-37.878108785450955 l1.121264003017055,1.1401717545867 1.3857409060465602,1.8358407192757686 l1.1270999261071815,2.007020136102985 0.6084922282452804,1.6986082970989942 m18.267544619948254,-10.16799587331977 l0.0063401752339023645,0.8997063098701478 -1.1944883802089197,2.139737145252757 l-3.681479610700543,5.208391990100711 m-17.121244404990534,-14.500797635325675 l0.5181777764786127,1.017076633551689 0.20052319880018593,1.0928924664484305 l-0.12871688892471386,9.828326634022197 -0.5541577043835957,8.031519067583831 l-0.8355747495513157,6.05681689097187 -1.2200853115731762,4.911048862833322 l-1.6948612874687121,3.1992863218250265 -2.597102046393366,2.9672470304840903 l-2.519553007041751,1.854340972624259 m14.854732398571247,-24.34836229671616 l0.6493973765700845,0.8944026375758127 0.20286617350312375,1.4785656128072595 l-0.0055306292254305115,23.992542773470248 m-22.454300786894894,-25.14908891643563 l3.2424825147022585,0.9658131855250647 10.36748313676656,1.4111992790445673 l12.205620367295621,1.8057302488986922 3.0816369672243886,1.2894912903076694 " fill="none" stroke="black" stroke-width="1" /></svg>