<?xml version="1.0" encoding="utf-8" ?>
<svg baseProfile="full" height="107.96396590769291" version="1.1" width="109.49251440353692" xmlns="http://www.w3.org/2000/svg" xmlns:ev="http://www.w3.org/2001/xml-events" xmlns:xlink="http://www.w3.org/1999/xlink"><defs /><rect fill="white" height="107.96396590769291" width="109.49251440353692" x="0" y="0" /><path d="M25.000003054738045,25 m0.0,0.0 m14.930620193481445,1.9109097123146057 l0.04507377743721008,0.6594771146774292 -0.3154384344816208,2.167821377515793 l-1.050918996334076,3.0191853642463684 -3.8313159346580505,8.776146173477173 l-4.321376383304596,7.790318727493286 -5.456647276878357,7.952245473861694 m9.473073482513428,-12.383475303649902 l0.7386571168899536,1.1227873712778091 0.3644689917564392,2.332601696252823 l-0.029218820855021477,34.61594820022583 m28.670313358306885,-56.33625030517578 l1.0207807272672653,1.6552910208702087 0.26482516899704933,1.9894880056381226 l0.0,44.8699426651001 m-17.359691858291626,-17.49665141105652 l0.6395037472248077,1.00758396089077 0.28085289523005486,2.0529748499393463 l-0.8938072621822357,16.666687726974487 0.3158285468816757,0.7468605041503906 l0.6049070879817009,0.3909069299697876 18.54382634162903,-2.937988042831421 l16.492990255355835,-1.572856456041336 m-0.7375872135162354,-22.073400020599365 l0.7447205483913422,1.1427607387304306 0.35807128995656967,2.1367914974689484 l-0.5477846413850784,25.63115358352661 " fill="none" stroke="black" stroke-width="1" /></svg>