<?xml version="1.0" encoding="utf-8" ?>
<svg baseProfile="full" height="110.4295057634106" version="1.1" width="104.6628320809924" xmlns="http://www.w3.org/2000/svg" xmlns:ev="http://www.w3.org/2001/xml-events" xmlns:xlink="http://www.w3.org/1999/xlink"><defs /><rect fill="white" height="110.4295057634106" width="104.6628320809924" x="0" y="0" /><path d="M25,25 m0.0,0.0 m14.508913180536284,3.00638072619564 l0.5697733116531369,0.1781826059579466 2.0476515121629943,0.17318626094665296 l2.401932378054285,-0.3216286137453885 14.695817334423575,-2.8166884623961517 l1.1973912495086136,0.17447167046202794 0.5987341721717768,0.4540719598912669 l0.31469286349547526,0.637544664796576 -0.2113737243264407,0.6368033735757417 l-0.6008574548710268,0.6804742614240962 -5.221693476477613,5.957062672784166 l-4.29984892112162,6.439583314361297 m-1.0703554172284928,0.8900810955827876 l2.5425188848560456,3.837350643297418 1.9635791878664643,5.121066126073051 l1.068894323203561,4.246069083230506 0.6475096812698952,4.3881102601145034 l0.2013918928298943,6.594702011474212 -0.30035478624607315,4.43089650438471 l-0.6967800828933642,4.248891715767676 -0.8379459277485375,5.011100717960383 l-0.8735384989364531,3.738882676413944 -0.6042830889053271,1.460802646298478 l-0.6219614728182024,0.9306100407226673 -0.6225365920923998,0.3314978078363976 l-1.1517009952475716,-0.2440735920371212 -2.295104676953077,-1.0260394133508357 m-18.181332210992853,-45.59140586810234 l1.5175111829648427,0.635688975831893 0.6215640513861524,-0.04729591334105476 l1.2493650962576637,-2.201509757593419 7.20622629008582,-2.949150497348009 l1.7025469217795912,0.5518381969421468 0.2225597666254698,0.8069190994126385 l-0.44171942981122275,2.4213394893119817 -1.6055057433053361,4.466575693906427 l-4.0954564869342525,8.840875639100327 -4.234868113319205,6.881913355499997 l-4.0194354218896455,4.988627816932672 m42.45831270182721,-37.16646498264365 l-0.22702916615976199,1.8579309160827944 -0.6031002527627254,1.6258350111394062 l-3.5812076209114934,3.4335396899369983 -4.7793184878222545,3.6928287086582934 l-4.806887572520083,2.981151280008556 m-0.5273183949129459,-0.9205141855605331 l8.802163735426458,10.553914801791754 5.4836754167050366,5.494602066542103 l5.755749704204375,4.472680831206837 3.395871258905756,2.3349157505236655 " fill="none" stroke="black" stroke-width="1" /></svg>