<?xml version="1.0" encoding="utf-8" ?>
<svg baseProfile="full" height="100.73299778248871" version="1.1" width="104.51484663174037" xmlns="http://www.w3.org/2000/svg" xmlns:ev="http://www.w3.org/2001/xml-events" xmlns:xlink="http://www.w3.org/1999/xlink"><defs /><rect fill="white" height="100.73299778248871" width="104.51484663174037" x="0" y="0" /><path d="M26.409103894919774,25 m0.0,0.0 m5.632157555600325,19.767104841698185 l0.38766898975382935,0.3433105155235225 0.7130532484490684,1.1389297741949105 l0.19579369528400464,1.1301415590100734 2.3844935000998126,27.59777022229743 m-1.499076419458792,-28.040125779648985 l30.34648434844688,-2.533294660180426 3.0226213048327137,-0.0015995522883578868 l2.3496150838248933,0.4493144347025663 0.8534298150050021,0.6653047606005138 l0.2904839795674425,1.8473341860948773 -3.4732105005740563,26.65474122920939 m-23.91930912188304,-25.45529200151745 l0.512735478606718,0.7195974555962221 0.2455019637962226,0.8434595522711491 l1.7500537575932609,24.212429313605618 m10.935172638063134,-25.94914626114442 l0.3775003897139419,1.0036797906892998 0.07962797887066106,1.158658283258018 l-1.785781378840962,22.890894353969795 m-30.80812020167083,1.5952315160232604 l2.191206552898552,0.5260343585961675 3.1125005527973584,0.16851988992734898 l21.383125401723596,-1.323680032636562 15.338015562955313,-0.7038625456565911 l8.518461269860152,-0.05445991889339978 3.9715372915053897,0.5068800022712537 " fill="none" stroke="black" stroke-width="1" /></svg>