<?xml version="1.0" encoding="utf-8" ?>
<svg baseProfile="full" height="116.04891543449962" version="1.1" width="100.08258101049805" xmlns="http://www.w3.org/2000/svg" xmlns:ev="http://www.w3.org/2001/xml-events" xmlns:xlink="http://www.w3.org/1999/xlink"><defs /><rect fill="white" height="116.04891543449962" width="100.08258101049805" x="0" y="0" /><path d="M25,25 m0.0,0.0 m15.312019097562468,14.680673161987317 l0.3594303751333389,0.12272388307507574 2.7647041802972487,0.22697440584936973 l24.662282091278467,-2.195559072743693 4.0135397763503455,-0.11413413922284893 l2.970605489876185,0.27729719497247907 m-18.64422491964372,-5.634157411892888 l0.2597656270220389,0.644168526500742 -0.06262802789536331,1.346191032411655 l-1.1451759999038258,4.760989249842907 -1.665925019652095,4.170004493521035 l-1.995219683545751,3.542774553470124 -2.5194881795828388,3.7784137242779057 l-2.855926863276451,3.910170557523638 -3.138211269056866,3.4776973286870843 l-3.0253808244622062,3.0813578647643727 m5.9238366715980835,-20.92577896091778 l2.8895589288245693,0.6324155867111542 13.950016401347781,-2.475968631734262 l1.0887989776624296,0.1532328629114448 0.3947448851845194,0.7907412947172959 l-0.17200867100842948,0.6971464959980768 -1.3352263599228167,4.599088634966294 l-1.9814578880921814,4.698517662871203 -2.2686539745316225,4.15691053631114 l-2.3941959846290533,4.151090357344502 -3.147386447074929,4.651060902524156 l-2.815804242922356,3.458714492025753 -3.0813587476078217,3.188498253535431 l-3.3667843085483065,2.7787730217316797 -3.3100374984508893,2.14028513241477 m6.063494903632187,-24.215445829389733 l1.394639122680479,9.542430860003794 0.09715026581389585,12.53152245581758 l-0.09960062350741103,11.773577033184809 -0.2677282864712567,2.698617695207195 l-0.016188199019531845,1.857211791960144 0.5445810597370873,1.5666120415073748 l0.9367628544493115,0.7798936914116922 2.6962940482939435,0.5913891904696805 l7.10323129659946,0.1527935098919528 4.325917805500892,-0.49859984997778023 l1.5590302436930605,-0.6999093766173179 1.406579882326301,-1.1019507610958326 l0.8259288495154787,-1.4115695154789791 0.4212227439651987,-2.3670499624273513 l0.11732524631334777,-3.528021692065482 m-25.698106437486395,-33.930805616894745 l2.679317623180891,1.660300331161375 1.9525911262766908,1.7868507354324081 l1.4747230694923075,1.6800836949376403 0.708824415042002,1.141890755973256 " fill="none" stroke="black" stroke-width="1" /></svg>