<?xml version="1.0" encoding="utf-8" ?>
<svg baseProfile="full" height="133.16580300719704" version="1.1" width="99.03794783503756" xmlns="http://www.w3.org/2000/svg" xmlns:ev="http://www.w3.org/2001/xml-events" xmlns:xlink="http://www.w3.org/1999/xlink"><defs /><rect fill="white" height="133.16580300719704" width="99.03794783503756" x="0" y="0" /><path d="M25,25 m0.0,0.0 m28.231535701782565,5.988575880688967 l0.3900559038068927,0.3992377392056064 0.4805590040604708,1.0239058152381415 l0.10926075734640557,1.156997236866641 -0.07321153341693462,6.650288941453941 m-21.67282880646935,1.7693321548174403 l2.274726481216279,5.708053318435494 1.8866253908370014,10.91012699067532 m-2.06804958007461,-15.493256761617973 l30.51482163932275,-2.92689155070355 7.54825366708595,-0.4121815414484147 l1.2751269021867244,0.8054963203986051 0.14107230735339926,1.4379031280188304 l-1.5513410925734286,7.717705236612355 -1.8017239377651544,6.373659689586765 m-21.01012918582286,-13.056427077054517 l0.8029458038810434,1.2181710337999194 0.24590422099915626,1.207332692324828 l-0.009688309409090514,10.147988529681996 m11.035430509130617,-13.890118177524467 l0.3982278638528328,1.221161456390409 -0.0030906996857644944,1.3956097704249952 l-1.0546404650550882,9.37949313500749 m-21.334259158189948,2.9558684507419195 l32.22206625669044,-2.488846246607069 m-33.317325532749706,9.947356332550065 l2.241191579941499,0.28144498206963947 2.330911948525092,-0.0765525151124048 l24.724484935223547,-2.9695848607386197 1.7725265279743354,-0.12530895907142195 l1.3273112438078287,0.26478031560082116 0.7083287903752756,0.7980753748243342 l0.09319394480688178,0.7965429912812231 -0.7048882409329893,0.8420903959493662 l-7.730573211931399,6.449731634973339 -8.65757947772529,6.141440063934082 m-1.6618615367048741,0.24281783616338165 l2.1225300110258303,3.5917884998803533 1.6210731965362972,4.530146889209423 l0.9780240787169038,4.550237702902791 0.27466542995784154,5.274663379217649 l-0.35719020474296537,8.187060506861409 -0.9488997778375426,3.3848585252639576 l-0.6825464278133253,1.130011499783156 -0.7600514647648079,0.6116906248318884 l-0.7563023628587839,0.11332562140895872 -1.415290769064568,-0.7788217583300892 l-1.5081208269486857,-1.4674584219305913 " fill="none" stroke="black" stroke-width="1" /></svg>