<?xml version="1.0" encoding="utf-8" ?>
<svg baseProfile="full" height="107.18707837164402" version="1.1" width="109.492513674777" xmlns="http://www.w3.org/2000/svg" xmlns:ev="http://www.w3.org/2001/xml-events" xmlns:xlink="http://www.w3.org/1999/xlink"><defs /><rect fill="white" height="107.18707837164402" width="109.492513674777" x="0" y="0" /><path d="M25,25 m0.0,0.0 m16.502344608306885,0.27422092854976654 l0.05474193952977657,0.5880443751811981 -0.20513292402029037,1.81051105260849 l-0.764351487159729,2.150026261806488 -4.977312386035919,10.77668309211731 l-5.015547275543213,8.66595447063446 -5.594741702079773,8.120747804641724 m10.535942316055298,-13.991278409957886 l0.9284445643424988,1.5067531168460846 0.16610661521553993,1.3789482414722443 l-0.02900283085182309,35.90646743774414 m27.325477600097656,-52.29453086853027 l0.2757011353969574,1.133251041173935 -0.2902938239276409,1.9266331195831299 l-3.6654531955718994,10.804297924041748 -5.476141571998596,14.233436584472656 l-5.969659686088562,13.37526559829712 -0.1028458122164011,0.9799559414386749 l0.42165014892816544,0.457761213183403 2.2792471945285797,-0.34239158034324646 l28.284192085266113,-8.729857206344604 m-7.828319072723389,-12.461867332458496 l3.438342809677124,3.793081045150757 4.136136472225189,6.182431578636169 l3.421880304813385,6.63311243057251 1.6411076486110687,4.925977885723114 " fill="none" stroke="black" stroke-width="1" /></svg>