<?xml version="1.0" encoding="utf-8" ?>
<svg baseProfile="full" height="109.06375935301185" version="1.1" width="109.4925150834024" xmlns="http://www.w3.org/2000/svg" xmlns:ev="http://www.w3.org/2001/xml-events" xmlns:xlink="http://www.w3.org/1999/xlink"><defs /><rect fill="white" height="109.06375935301185" width="109.4925150834024" x="0" y="0" /><path d="M25.000000212575628,25 m0.0,0.0 m-2.125756282111979e-07,5.203821659088135 l0.7773717492818832,0.2134234830737114 4.349079728126526,0.47040797770023346 l4.294196367263794,-0.45694172382354736 26.58113956451416,-4.617547392845154 l1.1825654655694962,0.09218694642186165 0.7589343190193176,0.6847560405731201 l0.06244056858122349,1.1199640482664108 -0.9064334630966187,1.3960961997509003 l-7.081671953201294,7.711973786354065 -7.200871706008911,8.792489767074585 l-8.58153223991394,11.437183618545532 -6.772524118423462,10.03980040550232 l-2.3466935753822327,4.386383295059204 -1.1817079037427902,3.6917653679847717 l-0.04212728701531887,1.5929044783115387 0.3833261504769325,1.427396833896637 l1.4704889059066772,1.8373072147369385 2.678995430469513,1.481851488351822 l2.532353699207306,0.7953803241252899 9.266717433929443,1.333923488855362 l16.35867953300476,0.42923204600811005 13.765439987182617,-0.5686379969120026 l4.876903593540192,-1.0007642954587936 2.742454409599304,-1.667511761188507 l1.2176179885864258,-2.4763984978199005 0.30737243592739105,-4.239741861820221 " fill="none" stroke="black" stroke-width="1" /></svg>