<?xml version="1.0" encoding="utf-8" ?>
<svg baseProfile="full" height="96.9587588673099" version="1.1" width="100.54318137772796" xmlns="http://www.w3.org/2000/svg" xmlns:ev="http://www.w3.org/2001/xml-events" xmlns:xlink="http://www.w3.org/1999/xlink"><defs /><rect fill="white" height="96.9587588673099" width="100.54318137772796" x="0" y="0" /><path d="M25,25 m0.0,0.0 m12.62768868300516,4.340680349704756 l0.5236607858836662,0.12645448116257388 3.953565529853741,-0.00010063371577033291 l25.855383589686102,-2.1340625158674085 4.494654881803434,-0.175302569821825 l2.4789468115192483,0.17450756356129152 m-26.477924814861378,3.2729561520961026 l0.4576061272885587,0.989870716083064 0.14719878329120697,1.9090180883253376 l-1.0857538288866633,26.787351501039147 -1.775180478279568,3.1695349947158107 l-2.3744296077302844,3.2211407987206644 -2.673559661253341,2.7386536972638655 m20.114544976568958,-31.608740134363064 l0.6019955971543582,0.5428581101138482 0.26727641626738535,1.3449292911571789 l-0.06887201759227687,26.96475547176913 0.1409860552992687,2.0372474264006546 l0.2668927782023729,1.1661077833076994 0.5178395153652419,0.9966282838586141 l1.493857677173526,0.800707759699916 2.735556081732807,0.2935622520983176 l5.293873845178816,-0.21734813857614138 1.2243180805330312,-0.435547630574723 l0.8087347959330504,-0.6237118872440243 0.6156684000026572,-1.003754548234418 l0.37865237458889267,-3.788465181796509 m-36.222261583487516,-29.947295977360632 l1.731574137601422,1.1610662661529652 2.248934875692643,2.0842721638323303 l1.4225275641325488,1.8025324737565822 0.7751827872289653,1.4895604447388937 m-9.466858200196704,13.931494242565568 l1.0465286883406895,0.3059646361272559 1.4267220059611674,-0.1741673852180189 l10.104204648593315,-6.480210514760626 " fill="none" stroke="black" stroke-width="1" /></svg>