<?xml version="1.0" encoding="utf-8" ?>
<svg baseProfile="full" height="85.29201411521657" version="1.1" width="111.47855007676567" xmlns="http://www.w3.org/2000/svg" xmlns:ev="http://www.w3.org/2001/xml-events" xmlns:xlink="http://www.w3.org/1999/xlink"><defs /><rect fill="white" height="85.29201411521657" width="111.47855007676567" x="0" y="0" /><path d="M25,25 m0.0,0.0 m13.629828877582506,4.26865314051719 l0.07248514603567068,0.40290370679941856 -0.08795692336822503,0.8999289187608459 l-0.7394621717944706,1.8312871804336217 -2.336367515794374,3.770044191531892 l-2.9298748718798784,3.2780153136267054 -3.517610585278932,2.779895071127088 m8.648449285886318,-7.61591348670562 l11.167384432040299,-0.4012872085602103 0.8252886693929667,0.1430007445899934 l0.5135191357051574,0.3797724544300359 0.15454908428908182,0.4872074308630617 l-0.4776037317298798,3.788461605186723 -2.680847321224307,8.57729843867359 l-1.708795691915067,3.2167028147394716 -0.8609462639443746,0.8429247887080382 l-2.1994191699230488,0.15707361500805686 -1.3628107142298902,-0.7144665624297888 m0.05020398746658893,-11.364218815456377 l-0.05987918473777811,0.5806996089247074 -0.30281045527026446,0.8257354045888146 l-3.500343325328206,4.354094278322928 -2.69003058098067,1.8847711066194957 m6.582481008289771,-7.612915316223948 l1.2944196361155642,0.7838258770063328 1.6166338384914338,1.1502047537515385 l2.2157327711676795,1.8922055352792888 m12.932397822351179,6.996016161685829 l-0.1298188826803224,1.0597785136378508 -0.35380609570473487,0.6733103219801082 l-3.7031423539593593,2.2271292973391135 -3.687931956020155,1.8854046043666541 l-6.451794010582157,2.5313872285937826 m4.332655552098155,-4.073922809814944 l2.9654010391910135,0.732945910570997 3.2195082838092484,1.5294277469734554 l2.468518342611346,1.6260004223528342 1.678420639793919,1.518632127417995 m4.7330740817031405,-20.67164022730781 l1.6006245525261305,0.2000905643143511 1.6485401126249855,-0.021778909407088983 l15.275644870651549,-1.3498540643719825 2.4205601961815395,0.08039640653478325 l0.9273259938829684,0.5082853631495523 0.28615452322354934,0.9392424942553834 l-0.10428422336399086,3.1214899182963523 -1.0137588941235776,7.064061283761413 l-1.1581958423189014,4.993617699571369 -0.5337601469377216,1.7307305798065376 l-0.5205337925021407,1.0384802172893635 -0.5844270479154471,0.6429221137839106 l-0.6331313289540255,0.3432725573785393 -0.6385806775593839,0.09699998246877298 l-0.6473532247498492,-0.32477945925891416 -1.461636699691509,-1.2557877128031876 m-3.687497007682015,-18.965467531803178 l-0.022424378404842446,1.9089357260151587 -0.8017013869747073,2.9186007827572995 l-1.158920718813906,2.8332284303544983 -3.1255955694521242,5.188280857900025 l-4.0856581288539875,4.258019145614953 -1.9594681011325157,1.4104300464726187 " fill="none" stroke="black" stroke-width="1" /></svg>