<?xml version="1.0" encoding="utf-8" ?>
<svg baseProfile="full" height="102.11148505353535" version="1.1" width="166.45620669166564" xmlns="http://www.w3.org/2000/svg" xmlns:ev="http://www.w3.org/2001/xml-events" xmlns:xlink="http://www.w3.org/1999/xlink"><defs /><rect fill="white" height="102.11148505353535" width="166.45620669166564" x="0" y="0" /><path d="M36.679407545627534,25 m0.0,0.0 m41.34087371963539,27.238587337904136 l-0.227257933720086,0.016477458236657215 -0.9852136973836546,0.17579123418472942 l-1.6745993542240123,-0.11689891291287786 -6.14400144599869,0.4858667464588879 l-4.73891350027493,0.8651948145697408 -8.321616714142117,1.2013831734452753 l-6.650019266869364,1.105114551587894 -5.568846866200725,1.3452229676023986 l-4.534356782750353,1.271792700050134 -4.163132907591796,1.3605393866362296 l-3.4008745908069202,1.4873915379284275 -2.4571876471546976,1.4299026591481108 l-1.9981251827156867,1.4321228274293287 -1.4703350039327217,1.4596139037219684 l-0.6858003714971639,2.3503307275142786 0.46861891426689994,2.997589717633226 l1.463901298427815,2.021779394024662 2.561252495057597,1.5520589946363499 l4.20686026646469,1.072994270168806 4.823795461155046,0.9261545968271812 l17.41685244221486,0.43247496673982133 8.162445635123673,-0.5631508773478783 l5.534036041148968,-0.6295172681591334 4.070073463265364,-1.665441897865015 l2.3886128887604983,-1.496147821443372 2.3185443509915626,-1.6942905284418142 l2.647623045765846,-1.7899133828974034 2.4818154531378536,-1.7425491093285574 l2.3609004888763088,-1.6750356530928194 4.081586918090057,-1.6202907993903255 l5.435201924426886,-1.1504410626280737 6.065836729808766,-0.8083108161059349 l5.99542439280867,-0.7068704926269679 6.29589383372633,-0.7047909567255747 l6.295651190037253,-0.7357179747135106 3.4973782241022264,-0.7784249011045306 l3.1495981346635404,-0.9467132718109367 2.920372341994817,-1.1743953826080273 l2.7419951317394413,-1.4372055542904718 2.4575033779146267,-1.6599167370961516 l2.1812474831440913,-1.4633728863478184 1.5176102357919679,-1.1854097472696041 l1.1913514451637803,-0.9104624300396936 0.9976317351765702,-0.9127543335154042 l0.6176382030164999,-1.5935232313242043 0.10895314540315548,-1.2292729056001506 l-1.8173607226155681,-3.9992290732159472 -2.3297359195259557,-1.548066045771518 l-3.1028799495228,-1.0817088283577063 -3.576270478215005,-1.1516548905240223 l-3.6473136965155653,-1.0960661269943122 -3.881891120036645,-0.7249441775957467 l-4.05625109997113,-0.24754514483696569 -3.9828477720204694,0.12553763858451558 l-3.6629932695835032,0.4601392328044861 -3.622785774528353,0.8533103352939031 l-3.2330735143902736,1.6187616615436664 -2.4387138644042192,1.8986394041237267 l-1.9101186892170308,2.100202005192565 -1.4861226910624241,2.320446639972205 l-1.0288935932298517,2.548603160530574 " fill="none" stroke="black" stroke-width="1" /></svg>