<?xml version="1.0" encoding="utf-8" ?>
<svg baseProfile="full" height="103.30831608238518" version="1.1" width="107.79460501078933" xmlns="http://www.w3.org/2000/svg" xmlns:ev="http://www.w3.org/2001/xml-events" xmlns:xlink="http://www.w3.org/1999/xlink"><defs /><rect fill="white" height="103.30831608238518" width="107.79460501078933" x="0" y="0" /><path d="M25,25 m0.0,0.0 m14.829096738342493,3.175270751318072 l0.06498471726510548,0.45090645565677046 -0.15711559181833668,2.304302519064586 l-3.203787113741191,7.43015198455506 -3.698877879584424,6.350767628876889 l-4.828072763634614,6.905655981666726 m7.597723447438079,-9.178157108987945 l0.49774119321396276,0.8117343383617668 0.16419665880092027,1.0534177720711 l-0.09312321577651682,26.565844271527087 m14.388472235393852,-39.45678347658878 l2.861150230876047,0.28437869498963436 18.811244066150092,-1.263896700596645 l3.060785793252066,0.2494349577649327 m-31.12110447950489,16.71315799499757 l1.8697027954056533,0.22914253749251073 2.060929569881811,0.016543858423098665 l28.57543476593007,-1.8290398130769765 3.6094932694936666,-0.08790319692662407 l2.505730573405478,0.24072275121590012 m-20.808879831231017,3.09076249508997 l0.7021699191733471,1.6803948820881314 0.1725620407461309,3.0877071527107582 l-0.7698967175193195,23.66548142673892 -0.5649559070616516,0.7079118762865968 l-0.6776201431336804,0.1104060476660742 -1.5809423402846101,-0.848865393312922 l-1.9718325946713282,-1.8404221844201376 " fill="none" stroke="black" stroke-width="1" /></svg>