<?xml version="1.0" encoding="utf-8" ?>
<svg baseProfile="full" height="107.64988321840056" version="1.1" width="92.63446329596496" xmlns="http://www.w3.org/2000/svg" xmlns:ev="http://www.w3.org/2001/xml-events" xmlns:xlink="http://www.w3.org/1999/xlink"><defs /><rect fill="white" height="107.64988321840056" width="92.63446329596496" x="0" y="0" /><path d="M25,25 m0.0,0.0 m16.375478081030348,4.391286059228887 l0.04240486689236716,0.5891032792592432 -0.19414744028453113,1.6031718068906191 l-0.447436736846676,2.890645367479857 -1.8100158949641538,9.390043013056722 l-1.999657382820406,7.595502680326898 -2.530811740960457,7.535122901497968 m4.545725382909307,-12.355431125791567 l0.4842238217958925,1.0848974241649156 0.12477853394277785,1.8073151483548606 l-0.030180454043249455,33.11822666393217 m13.580862608091518,-50.77798410080972 l2.02246815643296,2.9095501888894386 0.891721122665847,2.255360829415115 l0.509100145785584,1.7195040753243946 m-10.982757839788741,7.349071872497395 l1.9075276636179284,0.26801873601475656 14.682930899990964,-2.414670729536036 l2.4430427491874305,-0.1503424625813416 1.3172049263345702,0.3392793315520934 m-17.186160530705102,16.72040292069349 l1.6017313081742202,0.18082537713941796 11.084110500148418,-1.9154946898201555 l2.0637393004307345,0.1259465603601461 m-17.889316306260213,18.279290220893742 l2.261679023362827,0.06519042426654946 9.149445916156504,-1.5449120717485343 l7.313436741426433,-0.7702124139915614 1.629097692055991,-0.08661292356417213 l1.674238182205869,0.43137630666839594 m-12.574118012166643,-30.562270526831895 l0.49707675451663996,1.118582438353796 0.34766283969389083,1.6431591371757752 l0.08763928908009318,28.570158838804364 " fill="none" stroke="black" stroke-width="1" /></svg>