<?xml version="1.0" encoding="utf-8" ?>
<svg baseProfile="full" height="114.60433842968365" version="1.1" width="95.59502484530793" xmlns="http://www.w3.org/2000/svg" xmlns:ev="http://www.w3.org/2001/xml-events" xmlns:xlink="http://www.w3.org/1999/xlink"><defs /><rect fill="white" height="114.60433842968365" width="95.59502484530793" x="0" y="0" /><path d="M25,25 m0.0,0.0 m18.06446128411168,3.820607408764183 l0.04022504057151008,0.4898999163049103 -0.15607150209890472,1.682635251283292 l-0.8652374860850511,3.1650342183488855 -2.847516061364453,7.80250716872877 l-3.3672348149831546,7.045609155989618 -4.0220691188270825,6.3341621195605144 m7.9095085309962485,-11.369252167140425 l0.4075318095889029,0.8797372173947711 0.10404159927299127,1.1129243807866531 l-0.15806193731498572,31.750804822356397 m17.334582137006922,-49.035224613410406 l0.42244828725885564,1.2504155872655094 0.16662908776920937,1.1485680076004878 l-0.3143769173000184,40.361820678336684 -0.24733994882295343,0.4812281012713505 l-0.3434152822900203,0.17019045757362217 -0.8344776223827836,-0.525359316955085 l-1.889527283399698,-2.0764651739338724 m-4.243797572285765,-25.10006936550184 l0.018864815572685868,1.006372949506739 -0.26532151861283115,1.52392444562643 l-1.6660547811689792,5.366115945869239 -1.9152049564955782,4.577225170710622 l-2.1438219956861246,3.7766605741094326 m20.099511013887145,-16.654782896226717 l1.7848465416369,2.107792998548954 2.0912904910588224,3.4372148526584922 l1.631213024390136,3.6195780537957742 0.7993999813043066,2.9634018548024432 m-5.615986995865925,-0.8430421708197566 l-0.25683680359498917,3.0702201785713017 -1.6040200362876107,5.284314139690804 l-2.5042067734677054,5.812220492379587 -3.3429746998448744,5.779815197052128 l-3.1427035406017345,4.3574823413757775 -3.5907076995615426,4.125333794658846 l-3.8971642990035957,3.4595372713379895 -3.7357616754785696,2.4451793814115383 " fill="none" stroke="black" stroke-width="1" /></svg>