<?xml version="1.0" encoding="utf-8" ?>
<svg baseProfile="full" height="100.16409593580542" version="1.1" width="114.42431538636171" xmlns="http://www.w3.org/2000/svg" xmlns:ev="http://www.w3.org/2001/xml-events" xmlns:xlink="http://www.w3.org/1999/xlink"><defs /><rect fill="white" height="100.16409593580542" width="114.42431538636171" x="0" y="0" /><path d="M27.02577531739661,25 m0.0,0.0 m14.790872839245104,5.140126610911537 l0.05200525239728287,0.5371750197802102 -0.2676089223229491,1.7002583093407655 l-1.006292649719818,1.9727292578315458 -5.021840440532671,7.350575501928745 l-4.865373976287057,6.363754909585597 -5.707537420176504,6.6278246493945945 m11.454392925246145,-11.331417946850692 l0.6524144357478635,0.8607982793491122 0.31724307652601647,1.0791068593673536 l0.02603353201240923,29.863164485166646 m39.9982337014873,-46.47521238825684 l-0.7192615267989844,1.1876518704539716 -1.138745276934654,0.8414507598539461 l-6.671755571331291,3.3525626393109995 -7.443719132418923,2.469297985076364 l-9.309012699100148,2.0637239549836925 m-4.271219789638822,12.681696838848934 l4.660352437823569,0.2702585159774105 26.488761128484136,-2.100320281931512 l7.141893756534275,-0.30456786429734944 3.2387043887228173,0.27226997959528304 m-21.789992175997323,-12.386384601693072 l0.8169611909837623,0.9601748224193586 0.31350703731294605,1.1904265636133116 l-0.16323875809809799,28.635672985660968 m-15.873551699572248,1.2105674926111971 l4.699444298544373,0.1116804816707127 21.410251288344483,-1.2844011071093622 l4.408987342695069,-0.09773016165703333 2.501365939295177,0.19291758397590084 " fill="none" stroke="black" stroke-width="1" /></svg>