<?xml version="1.0" encoding="utf-8" ?>
<svg baseProfile="full" height="113.17426603110528" version="1.1" width="103.42753290124949" xmlns="http://www.w3.org/2000/svg" xmlns:ev="http://www.w3.org/2001/xml-events" xmlns:xlink="http://www.w3.org/1999/xlink"><defs /><rect fill="white" height="113.17426603110528" width="103.42753290124949" x="0" y="0" /><path d="M25,25 m0.0,0.0 m42.47277467058333,7.134363126455174 l-0.29819369750732916,0.5259091751599132 -0.8532474700263137,0.8538637098564518 l-1.4100489841060877,0.9216892967199432 -6.834164476990923,2.702132099456888 l-7.508313739290364,2.1717981696211455 -8.796846550567466,2.018917376939353 m-4.817343713786144,6.81142615932391 l2.0314876302908105,0.34231559109748066 1.9460263019161017,-0.023516789870609706 l28.51395385071296,-2.936731738996429 5.6303179276991155,-0.37695977639290573 l3.3511311523218,0.20113393690277526 m-20.687301354890845,13.406526156582219 l7.022053585389388,0.8241280245860159 5.4001379480855825,0.6053752811285246 l3.8898747031771177,1.3985007741436264 2.035583687955873,7.156906703451319 l-0.06615706427015339,5.319255785413615 -1.205139040499402,8.647334300289248 l-1.5171276784856582,3.7184737125478895 -1.4322646291570074,1.5827740240350447 l-0.8030088113571962,0.16865093265467987 -1.5088748301090606,-0.487899890627753 l-2.612776637543155,-1.9550168090195585 m-1.6815321231351417,-32.853918066608415 l-0.5491342404506684,1.0820366358548978 -0.8017273757065587,1.02745919606234 l-4.658219826206133,4.293909274401392 -6.088591284691091,3.7518641933582946 l-7.253285613392005,3.2523347949964756 m26.3284633628602,-5.046885055410556 l-0.1856107125320843,1.7396126527192448 -0.9658857690957399,1.4851244528831948 l-2.6183302007055254,2.8249134444418202 -3.4388714580584843,3.0083344902116154 l-7.960004464250028,5.592795960347955 -4.586141224485021,2.614242242818998 " fill="none" stroke="black" stroke-width="1" /></svg>