<?xml version="1.0" encoding="utf-8" ?>
<svg baseProfile="full" height="102.1631756047587" version="1.1" width="88.77972465768713" xmlns="http://www.w3.org/2000/svg" xmlns:ev="http://www.w3.org/2001/xml-events" xmlns:xlink="http://www.w3.org/1999/xlink"><defs /><rect fill="white" height="102.1631756047587" width="88.77972465768713" x="0" y="0" /><path d="M25,25 m0.0,0.0 m23.661754288602285,2.651391076446318 l0.0556449953707901,0.5202025891323445 -0.20133902384360916,1.09218969330271 l-0.7965574298709184,1.9170945567586286 -2.7724539180966623,4.581645650542198 l-3.208828612093851,4.23320122711662 -3.566757197247131,3.8363935396697277 m10.13246817005764,-10.357461374397454 l2.482324619389103,-0.3816423373601916 8.019508503661172,-2.235103163234727 l0.6349451292620822,0.12619679191358543 0.36484688293088463,0.46034978798598675 l0.06922753931601584,0.7235185344510294 -0.20015398271782142,0.788415007332837 l-2.318297733281468,4.815598540200063 -2.6502494566236723,4.357860318219305 l-3.2397117263081325,4.535959749897418 -3.58474712640378,4.270607564384903 l-2.875153109482673,2.929898616667097 -3.0973981777648874,2.6773442369237546 l-3.1747443462029343,2.2733476312514647 -2.6514845479853553,1.6833079019248225 m9.039307014071287,-20.237144168831243 l2.1582707886807,3.0548024757520844 1.035533508115745,1.9518927830879935 l0.5549498547434076,1.5098223547508867 m-3.2044522217726126,9.827696752188505 l0.35467627816572506,0.9965017034407216 0.11317991030950875,1.6642459459800858 l1.21490276705906,14.030777341193748 m-1.1781659193212481,-15.931909257389378 l13.221245403477386,-2.517348721172723 2.22831491090335,-0.24629115977327296 l1.4501476124502106,0.258643687120987 0.6231056099598148,0.9226319672446857 l0.08586540017770987,0.6888389122501029 -2.0923474258522057,13.201501785858937 l-0.9714533106859575,5.449357915966724 m-14.89097273099601,2.038839147961419 l15.74529515463285,-1.5681988540576466 " fill="none" stroke="black" stroke-width="1" /></svg>