<?xml version="1.0" encoding="utf-8" ?>
<svg baseProfile="full" height="90.32847857400213" version="1.1" width="92.99522948433477" xmlns="http://www.w3.org/2000/svg" xmlns:ev="http://www.w3.org/2001/xml-events" xmlns:xlink="http://www.w3.org/1999/xlink"><defs /><rect fill="white" height="90.32847857400213" width="92.99522948433477" x="0" y="0" /><path d="M25,25 m0.0,0.0 m41.190448662174575,26.334103664932435 l-0.16399807157937363,-0.04678160741490725 -0.9217372275142994,-2.080529254080735 l-1.2809301429187874,-3.684919175950794 -2.8818623950029902,-2.632044943006443 l-2.493394836916444,-1.5863605707005648 -2.9903318426851078,-1.3752056887099224 l-3.5047890199212284,-0.8663329950122053 -4.016155978920628,-0.28264979003900714 l-3.585233130268233,0.45170741759304367 -3.5817285080368944,1.177300692185389 l-3.3705958353611836,1.4026928814882058 -2.9509356537388047,1.6154146492720185 l-2.8012601562422645,1.9676127755429424 -2.4606157921702976,2.302917649378322 l-2.061911800309338,2.648659422689535 -1.4624017249891437,6.20896282959977 l1.3578532633572744,3.8849332409619177 1.8337937101087345,2.2241649320198316 l2.985956913026566,1.630716292438305 3.4053248841994024,0.8137485135906186 l3.8191808259333047,0.22036763722437877 4.293719823600497,-0.28488184978020864 l4.363082978942491,-0.7996839249166744 4.179823478842303,-1.2838067463210419 l2.919883955231998,-1.7613359787947562 2.145400491532249,-2.229895676356202 l1.7711656345970752,-1.7975296918147823 1.4260559418274272,-1.9315001663647169 l2.735682671415315,-1.9198348220374772 2.36350798213907,-2.16066518853461 l1.9561743068935948,-2.6185171017094233 m0.6156661282189415,-9.40192192409456 l0.16038994886897265,1.7297195003488044 -1.5648917026256137,2.3912846998002033 l-5.4213104991312,7.013731748959598 -9.385069651298515,7.194751824668109 l-3.2462810000641045,1.6704766417041808 " fill="none" stroke="black" stroke-width="1" /></svg>