<?xml version="1.0" encoding="utf-8" ?>
<svg baseProfile="full" height="112.48000065414969" version="1.1" width="99.27148176871663" xmlns="http://www.w3.org/2000/svg" xmlns:ev="http://www.w3.org/2001/xml-events" xmlns:xlink="http://www.w3.org/1999/xlink"><defs /><rect fill="white" height="112.48000065414969" width="99.27148176871663" x="0" y="0" /><path d="M25,25 m0.0,0.0 m27.026293057360576,3.3430290255757993 l0.3765666126971977,0.4260075432175711 0.6115975260721782,1.5315503621664501 l-0.04932025187276539,5.221089028292651 m-20.743401418910086,1.7672923994481726 l2.1949821378842937,0.16103398731339555 2.2585193882110874,-0.04290853595173698 l32.39652201944282,-2.716656656975308 2.899731643144237,0.0049134717165640295 l2.299991054687083,0.36366935859919725 m-13.416247492709678,3.040713717771474 l-0.09210694392940766,0.7814000687413089 -0.48470988035878165,1.0734252754545601 l-2.4738640499177507,3.8092281223121205 -3.1350681731742136,7.614785819999901 l-2.7047289682220303,5.35848567779425 -2.9101489465127086,4.61422838610946 l-3.354976028648287,4.255688851812788 -3.8625447403603044,3.871028475633427 l-4.2856849713921426,3.3695754823020967 m7.141676094634489,-28.483846783330783 l1.9015005210694982,18.07053763530273 0.46323383318744205,9.569056439509561 l0.7030914451912427,11.687843510540018 0.5045197712055113,1.5342431392806573 l1.484849213539844,1.4780888720969232 2.38402063621557,0.7764979794164389 l3.4023950555396776,-0.3259058810691716 6.567822349200636,-0.7664359432296328 l2.310599124263291,-0.8723968536310729 1.707851393283725,-1.3713849385440542 l1.1877643300178116,-1.91995902389561 0.6995286320006617,-2.7132330326550926 l0.2667635297976979,-3.646741522849334 " fill="none" stroke="black" stroke-width="1" /></svg>