<?xml version="1.0" encoding="utf-8" ?>
<svg baseProfile="full" height="100.28405164516137" version="1.1" width="96.14636145214257" xmlns="http://www.w3.org/2000/svg" xmlns:ev="http://www.w3.org/2001/xml-events" xmlns:xlink="http://www.w3.org/1999/xlink"><defs /><rect fill="white" height="100.28405164516137" width="96.14636145214257" x="0" y="0" /><path d="M25,25 m0.0,0.0 m19.31763381761814,3.735008360649812 l0.05116764319197715,0.5636823748197684 -0.11705369904977479,1.6559273243061452 l-0.4195746977946714,1.6391613274866663 -3.4032568799510186,7.42973464373998 l-3.942138299727627,6.938149965015605 -4.67622096799638,6.785534671630424 m8.58232279796344,-11.048358789300583 l0.5246299162794619,0.9509638435267589 0.13869458248587285,1.1691831533349533 l-0.02490347533509642,30.46506476995184 m6.570097525981537,-38.55368379492791 l1.107848424841108,1.0615581723106982 1.538901753468389,1.7890217770116092 l1.2452606181223598,1.9725833178427106 0.6457074793172848,1.6675126293463294 m19.007244912727568,-10.058894195676352 l-0.016307267239172724,0.920754750337226 -1.310982967830861,2.3385911280402585 l-3.8259462427251876,5.1699425324302295 m-17.53821660286497,-14.622565159456197 l0.5412129048979106,1.0362311858877555 0.21324607301602358,1.1239468121937595 l-0.2082292859011348,10.106236457910732 -0.6668511362371083,7.585152864301423 l-0.9574727308611577,5.0662611828904485 -1.4176844226138832,4.422645885308573 l-1.9268059851114065,3.930851895183455 -2.5954406318016208,3.60777032981106 l-2.290402215664519,2.1585738042342975 m14.775352588716208,-35.63090296724519 l0.7281620958342473,0.9451624904540942 0.2350966921570892,1.575636763357631 l-0.04722278331300373,31.932277300232766 0.3119368547919475,1.5322074434631516 l0.4367234601098325,0.8448885499252087 0.942516561439399,0.6038460021356293 l2.0692220570085427,0.327880879313129 5.052524711145034,-0.026646131276694893 l2.997684213977423,-0.4302205332180935 0.9372229923837319,-0.43950310588940456 l0.9707276939911982,-1.0195938580792847 0.4024272370582549,-1.5967556863650856 l0.10878430203015904,-2.3914649785015865 " fill="none" stroke="black" stroke-width="1" /></svg>