<?xml version="1.0" encoding="utf-8" ?>
<svg baseProfile="full" height="107.44848112416584" version="1.1" width="97.36208464340788" xmlns="http://www.w3.org/2000/svg" xmlns:ev="http://www.w3.org/2001/xml-events" xmlns:xlink="http://www.w3.org/1999/xlink"><defs /><rect fill="white" height="107.44848112416584" width="97.36208464340788" x="0" y="0" /><path d="M25,25 m0.0,0.0 m9.275845766771678,9.320765298890086 l0.4555563347664868,0.13925873979543701 3.405358083505211,0.1608051622171477 l24.54200599621719,-3.055002191182148 5.568487029192007,-0.07836864663428382 l2.501076451520522,0.3895736826321769 m-27.291110359380042,16.38061259064294 l1.2020895777515783,0.38131987014895025 1.788023691925733,-0.08270301946584391 l14.559477121442239,-1.5687781362998656 3.5085647787000016,-0.1348080711811463 m-22.974590741807283,17.3566031510083 l2.935646821889575,0.32647219376066305 18.970712499948203,-2.0772494269902944 l3.121553388476448,0.15678367370437257 m-28.537975471287055,19.485031102601205 l2.6988728949885292,0.3481651505181342 13.877429069939337,-1.635029800458328 l11.24955385091241,-0.9138682764125111 3.8942373850253977,-0.10862383042727639 l2.61127047290972,0.5413674158565629 m-18.44291481234034,-34.698883055124554 l0.6617634675311314,1.3923525086443833 0.18171529056689675,1.7083055046144406 l0.01884612912241637,32.32527611912911 " fill="none" stroke="black" stroke-width="1" /></svg>