<?xml version="1.0" encoding="utf-8" ?>
<svg baseProfile="full" height="114.67328187178657" version="1.1" width="95.3223604419368" xmlns="http://www.w3.org/2000/svg" xmlns:ev="http://www.w3.org/2001/xml-events" xmlns:xlink="http://www.w3.org/1999/xlink"><defs /><rect fill="white" height="114.67328187178657" width="95.3223604419368" x="0" y="0" /><path d="M25,25 m0.0,0.0 m14.479157495883985,12.794770454296307 l0.406289681879821,0.11419846998445041 2.820150214007445,0.14712218372807156 l21.603077563785842,-2.0866123516192627 3.4847357224436197,-0.1271682711478093 l2.5289497639360827,0.2562689923633443 m-30.28008386821366,-4.646173960915985 l0.9184728949696942,1.5266946170804558 1.7234111580389666,12.320646463157315 m15.175595071734184,-15.045576258431876 l0.24156037677687112,1.0307444494859637 -0.04602939269363126,1.0430816221037549 l-2.1587485373892066,11.62020282278441 m-8.508019679901942,-0.46910445660176 l-0.060373908931143964,0.650106051769202 -0.49229680293995165,0.6945066268505891 l-2.6979954661100938,2.4414146959490566 m-2.0757199671321116,0.6746617528063826 l0.40003742396166536,1.5240942307820093 0.6513767578473371,11.149043281307733 m-0.4501938570612485,-12.534401862661714 l11.625084401696402,-1.6374512296937394 1.0826787885389118,0.23009240837112074 l0.3285583882429871,0.8205354505130952 -0.4514827420220361,12.669665616035696 m-11.907876539485871,-5.999349439301462 l7.62338631976973,-0.9777047680113612 m-6.99002812320521,6.605839941814158 l10.400789060490961,-1.0494656513880491 m-22.340404913839595,-11.138598031353386 l0.06774986338737932,2.2766114633310086 -1.3306953567238962,4.189530119193932 l-1.676995546688447,3.3401263984216416 -0.056401971197168076,1.0127218091150714 l0.2469655190518047,0.4074719620993153 0.7356435751029253,1.3576741850525025 m6.868762255167742,-6.4437825448098724 l0.09548021266548548,0.838343201737218 -0.5416821881157845,1.3658586146982827 l-3.0790688455225865,4.4790124018962425 -5.014516959768716,6.159072974183807 l-0.2721117598141685,0.8294602774179836 0.5457227210114959,0.19384515726801804 l9.310288057114477,-2.9619005949081725 m-1.4162159188770003,-3.208375430193077 l1.6982429919264723,3.1560586510975335 1.130949761801328,3.544665508074539 m21.1922003498078,-20.750100188853715 l0.17545681165931767,1.08112524298472 -0.20741515324476453,0.52428259433684 l-5.7009503717512064,4.525631597031565 -0.24862616757795789,1.3294668381668286 l3.213562336635495,0.20341897022133268 3.819810572297344,0.6300525779609663 m4.178097584068719,-5.617897044348063 l0.006310034011486896,1.2842859225170078 -0.850351214538497,1.3107146641684444 l-9.17894889218072,10.842994645893222 -0.2271932369052209,0.5617947504232512 l0.29788487037300626,0.3784806980422057 0.4965684281636701,-0.0813734515637973 l1.3119648841900835,-2.4933402876512583 4.70985865056659,-3.0077178258649018 m-1.413372799303626,-2.2733026897818083 l2.3637903636809896,2.929086283310809 1.3328108902028286,3.257290129985522 m-39.12895425095781,7.2167923253922845 l3.332959972686472,0.31058746641180146 28.368279862485707,-2.363009453189719 l8.723180576133279,-0.6062907961090728 1.9491194244781325,0.10345841595004635 m-22.380673603883835,-3.6181683333235752 l0.8155449826279968,0.8892676377742914 0.1591539103303622,0.7498925680642904 l-0.09770059300737102,21.149103903676973 -0.24678612955903012,2.0968635760796475 l-0.5315599897917409,0.9714131303477453 -0.6828891938791412,-0.07038968410867155 l-1.8038567118860371,-0.6531820661224134 -1.8857623159394266,-1.654286693675631 m3.8262968875190055,-17.188532406429925 l-2.6597772871574814,4.677093948213821 -2.010240902044974,2.7505726548780842 l-2.3514415096121994,2.6787724278102574 -4.321045272696873,3.7551483078432515 l-5.153360447613018,2.9343433587822143 -3.1249911249751396,1.191363931530025 m21.737449540351932,-16.524577873348154 l5.043993157140412,4.412124419847764 6.604619822188494,5.103314070240248 l4.926602352730669,3.3148646406774693 2.3873430091593097,1.2588021048237774 l1.3685178275338408,0.4636465082921221 " fill="none" stroke="black" stroke-width="1" /></svg>