<?xml version="1.0" encoding="utf-8" ?>
<svg baseProfile="full" height="109.4925133138895" version="1.1" width="108.42307399958372" xmlns="http://www.w3.org/2000/svg" xmlns:ev="http://www.w3.org/2001/xml-events" xmlns:xlink="http://www.w3.org/1999/xlink"><defs /><rect fill="white" height="109.4925133138895" width="108.42307399958372" x="0" y="0" /><path d="M25,25.000000079373976 m0.0,0.0 m39.2642617225647,-7.937397406010405e-08 l-0.2564055100083351,0.6119850650429726 -0.7192765921354294,1.0023285448551178 l-0.9832701832056046,0.7277470082044601 -8.160860538482666,3.94384503364563 l-7.468053698539734,2.7548152208328247 -8.794373869895935,2.552937865257263 m-2.335001826286316,5.087875723838806 l1.8525430560112,1.6917823255062103 2.480410188436508,3.0383965373039246 l2.045420855283737,3.2709792256355286 0.8783609420061111,2.21288725733757 m31.41946792602539,-17.031114101409912 l-0.556618794798851,2.153947502374649 -2.768756151199341,4.314247965812683 l-2.9854565858840942,3.9468449354171753 -3.4181520342826843,3.730144500732422 m-38.89599323272705,8.668023943901062 l4.262014031410217,0.2598355710506439 4.231308996677399,-0.18159206956624985 l19.723637104034424,-2.600671947002411 15.2360999584198,-1.4915372431278229 l7.995688319206238,-0.36355916410684586 6.3760799169540405,0.4670235142111778 m-31.50982141494751,-19.572229385375977 l1.319967806339264,1.7258402705192566 1.6129019856452942,3.3959174156188965 l1.206500083208084,4.197780191898346 0.8383913338184357,4.811176955699921 l0.5086640641093254,5.237519145011902 0.23099437355995178,7.318410277366638 l-0.7304270565509796,14.120126962661743 -0.7802456617355347,5.909503102302551 l-0.33510949462652206,1.386319100856781 -1.0492685437202454,1.6891354322433472 l-1.4219653606414795,0.5058406293392181 -1.6354896128177643,-0.3632558509707451 l-1.6891354322433472,-0.9186834841966629 -2.9035764932632446,-2.2485335171222687 " fill="none" stroke="black" stroke-width="1" /></svg>