<?xml version="1.0" encoding="utf-8" ?>
<svg baseProfile="full" height="107.98465614062714" version="1.1" width="103.60652684699605" xmlns="http://www.w3.org/2000/svg" xmlns:ev="http://www.w3.org/2001/xml-events" xmlns:xlink="http://www.w3.org/1999/xlink"><defs /><rect fill="white" height="107.98465614062714" width="103.60652684699605" x="0" y="0" /><path d="M25,25 m0.0,0.0 m25.34287875007487,3.0224719749175155 l0.36516227630263703,0.3924088168332526 0.5924931455610059,1.1334531069547438 l0.08103215603163164,5.695779472816783 0.08574251972199608,42.91390649101661 l-0.22328650874955464,0.8921759622990694 -0.4884518167605682,0.42669307398317374 l-0.7079804206353119,0.033505248499587394 -1.7488940883021427,-0.9625734819007692 l-2.7444990415569213,-2.2560291824073078 m-18.682958732063824,-28.459537002238672 l2.326873406218628,0.2905454307196123 2.2673381212075414,-0.26202843413960003 l13.299291517222965,-4.1394547356094336 1.4397569120385827,0.459608523351321 l0.5988478909763204,1.2614432062295022 -0.7131515675936895,2.0120149818629027 l-1.9082752664799911,6.497619628796932 -1.77386945618106,5.465922897919726 l-2.32273661276054,5.257347487229703 -4.498668344942813,7.820401428256278 l-4.71402846972981,5.543361860466849 -2.8274024612090445,2.5123329612768153 m43.722440974048496,-43.40715737742865 l-0.08073766639054625,1.081694154031761 -0.4377896255198761,1.0741042422307092 l-3.7900938841063447,4.837758271030113 -4.131012439039936,3.9086552183387977 l-4.625361010393308,3.1132882116745275 m-4.57705439579524,0.9036890638966467 l7.090528372326195,10.066192751688101 7.101774887740831,8.490571987362237 l6.51666394019081,7.642784686060909 2.0713322738517506,2.6463194953705798 l1.7006215116923085,2.075385719236843 " fill="none" stroke="black" stroke-width="1" /></svg>