<?xml version="1.0" encoding="utf-8" ?>
<svg baseProfile="full" height="158.6595209445248" version="1.1" width="95.03411017611006" xmlns="http://www.w3.org/2000/svg" xmlns:ev="http://www.w3.org/2001/xml-events" xmlns:xlink="http://www.w3.org/1999/xlink"><defs /><rect fill="white" height="158.6595209445248" width="95.03411017611006" x="0" y="0" /><path d="M25,25 m0.0,0.0 m8.340116851102906,19.409075833987234 l0.5191280169840377,0.14110103292813278 3.102514076654177,0.26554491850923817 l28.946256498850328,-2.947135812793459 1.9543632454935689,-0.026737001115917838 l2.171731487025046,0.27598112783033857 m-38.0920557314613,22.199684248725074 l2.023997775447895,0.4782364458726058 2.505857657170574,-0.00040965565409643325 l16.35955445784175,-2.8724942407623164 2.609219236851923,-1.5865012112395933 l1.9026737734572123,-0.8348250960520559 m-29.16474563476397,-19.263295013398416 l0.7964705184375337,0.6742808356258936 0.8849756806129684,1.6540545076935227 l1.5890683160492847,17.5074187928331 2.2329628255891403,7.082862999584445 l2.8380141903232023,5.821340356002824 3.6662819296819498,8.265338907573954 l5.41056327285059,8.898496273062353 2.1148603483224857,3.7124358331289042 l1.6683222473536035,4.062870299978622 1.3195383093961321,4.324558043979186 l1.2097857174906794,4.424103622303603 1.1851950451005033,4.124640598927855 l1.2134501305025873,4.281918774458056 1.2446291177314355,3.972448623248684 l1.2906286362332038,3.9829821063428166 1.2561070910442946,3.6656175099788424 l1.258239673430771,3.0965411873868556 1.4612235862767387,2.4207119905558017 l1.57473716613806,1.4486741050226892 1.29966461914653,-0.21392873825490336 l0.21742026942696108,-1.784991417658184 -0.2190270799892082,-4.208839330855346 m-15.14375336210145,-54.303763412766095 l4.295426157322074,2.9191373256952544 1.8683526749667412,1.7717849546978452 l0.8685719510475957,1.2647509207777248 " fill="none" stroke="black" stroke-width="1" /></svg>