<?xml version="1.0" encoding="utf-8" ?>
<svg baseProfile="full" height="99.65850427060352" version="1.1" width="100.85137784974269" xmlns="http://www.w3.org/2000/svg" xmlns:ev="http://www.w3.org/2001/xml-events" xmlns:xlink="http://www.w3.org/1999/xlink"><defs /><rect fill="white" height="99.65850427060352" width="100.85137784974269" x="0" y="0" /><path d="M25,25 m0.0,0.0 m0.9192042912650942,30.57221457636736 l0.5525555583388786,0.3350826186281943 2.1374926053286925,0.8414988236846094 l1.7578285125214372,-0.07296589927994611 31.352883011050448,-9.585825707784664 l3.8021622221352263,-0.8830208968392073 2.7689766057726115,-0.4990936505699665 l2.3598441212644787,-0.11777040230369201 2.225685999164683,0.23975459464693447 l1.2297054874223878,0.7847730564746244 0.7162651558331288,1.396175276883184 l-0.022233707656229926,1.8281016415148155 -1.6012144198846812,1.6825058081660407 l-6.773805780938997,2.237777680442997 m-16.796518322917418,-22.18407118917602 l0.7651133106016096,1.4082528593918393 0.36878963725392516,2.0916921256628944 l-0.622232370933226,28.95844973539708 0.4221259479081858,4.285011691454004 l1.0394800739128238,2.8336818077208314 0.9846057816299573,1.9002876793887424 l2.0756015892337434,1.1882785081773077 3.5585267571835453,0.41771353255555016 l11.779044926623842,-0.16607022890236958 5.851490857628554,-0.7776646010422757 " fill="none" stroke="black" stroke-width="1" /></svg>