<?xml version="1.0" encoding="utf-8" ?>
<svg baseProfile="full" height="109.49251253157854" version="1.1" width="108.33963317185408" xmlns="http://www.w3.org/2000/svg" xmlns:ev="http://www.w3.org/2001/xml-events" xmlns:xlink="http://www.w3.org/1999/xlink"><defs /><rect fill="white" height="109.49251253157854" width="108.33963317185408" x="0" y="0" /><path d="M25,25.000001033768058 m0.0,0.0 m0.017976106610149145,29.44798707962036 l0.7654936611652374,0.29343923553824425 2.8559669852256775,0.48002831637859344 l2.715626358985901,-0.4016496613621712 20.41541576385498,-6.72321081161499 l21.659717559814453,-7.718915343284607 3.069479465484619,-0.5334827303886414 l1.2867048382759094,0.5928823351860046 0.3641723468899727,0.600011944770813 l-0.11519929394125938,3.012442886829376 -2.0111094415187836,9.195680618286133 l-1.4051873981952667,3.9036422967910767 -1.6090376675128937,3.247344195842743 l-1.242051050066948,1.348244547843933 -1.2195365130901337,0.15535018406808376 l-2.0454441010951996,-1.6300511360168457 -2.656713128089905,-3.353162407875061 m-10.446736812591553,-31.916582584381104 l1.007712408900261,1.6754554212093353 0.22964810952544212,1.9748985767364502 l-0.0153702637180686,40.628952980041504 m-19.476560354232788,-27.449703216552734 l0.6692440807819366,1.0180315375328064 0.36759644746780396,2.201169580221176 l0.0036996518610976636,25.708203315734863 0.25864727795124054,5.627879500389099 l1.065874919295311,3.852984607219696 1.8009740114212036,2.0278076827526093 l1.3129717111587524,0.7210274785757065 2.583916485309601,0.7754375785589218 l6.235021352767944,0.6536715477705002 15.023189783096313,0.07669594138860703 l9.632461667060852,-0.8020797371864319 3.3449071645736694,-0.9716891497373581 l1.1955209821462631,-0.6532963365316391 1.2951476871967316,-1.2125945091247559 l1.117001622915268,-2.711873948574066 0.28849074617028236,-4.5561882853508 " fill="none" stroke="black" stroke-width="1" /></svg>