<?xml version="1.0" encoding="utf-8" ?>
<svg baseProfile="full" height="106.8033105293368" version="1.1" width="104.94430438563737" xmlns="http://www.w3.org/2000/svg" xmlns:ev="http://www.w3.org/2001/xml-events" xmlns:xlink="http://www.w3.org/1999/xlink"><defs /><rect fill="white" height="106.8033105293368" width="104.94430438563737" x="0" y="0" /><path d="M25,25 m0.0,0.0 m28.012505083887888,4.18776559193325 l0.035282268935850784,0.4782285727655747 -0.5440519368708693,2.356504074519973 l-1.7976694242922242,3.621636642453577 -2.7889999043075013,4.6772343122188005 l-3.523928180738035,4.6478218424455475 -3.7313718817841415,4.0655371911581515 l-4.264998639149892,3.95354058450921 -4.621096022944078,3.686380275068938 l-3.6808750874305205,2.465828173946757 m25.276189995004366,-26.756923309585776 l7.959065007682935,8.342466981642186 9.476543499799385,8.929430935461005 l5.202695343676567,4.921959784454555 3.935014264167631,2.668847474212322 m-33.857539890462306,-5.063341362718275 l0.4769699809821166,0.8624915536268161 0.14431060821168168,1.0765901287320883 l-0.08353764613919465,6.121267103925213 -0.3621090863428286,4.833087515767453 l-0.8759254316058359,4.720219934813259 -1.1846857483872075,3.535091735829075 l-1.2652062617725963,2.524465064509849 -2.325787021284211,3.0972875188458273 l-2.235236584509747,1.9645378627194572 m23.027253210245917,-31.897891047971715 l0.549253620627323,0.8451508952269355 0.21936776195191013,1.5478781699268578 l0.007696990821582725,30.390216328899886 " fill="none" stroke="black" stroke-width="1" /></svg>