<?xml version="1.0" encoding="utf-8" ?>
<svg baseProfile="full" height="100.64543480107672" version="1.1" width="104.37114250152945" xmlns="http://www.w3.org/2000/svg" xmlns:ev="http://www.w3.org/2001/xml-events" xmlns:xlink="http://www.w3.org/1999/xlink"><defs /><rect fill="white" height="100.64543480107672" width="104.37114250152945" x="0" y="0" /><path d="M25,25 m0.0,0.0 m15.480104349510706,3.218747759985215 l0.04117112514220214,0.5801240915406747 -0.36616514092320707,2.569822018374424 l-3.482499881829082,8.650163086281077 -3.6170486958425405,6.457439056752756 l-4.444724274639634,6.312993737787512 m7.993190586482092,-10.09258890922567 l0.6639882229007429,0.9238373965786246 0.28242271249319845,1.7315793304264189 l-0.01914591857057744,30.293317232575685 m8.278370462288164,-33.554391138760934 l4.124337186131608,0.12938937388653185 20.6737254196337,-2.406143084784872 l6.051896718311638,-0.3504746493184767 2.711519630440443,0.21590911997704942 m-17.85793751974025,-11.731917462722269 l0.6194491499785846,0.8939063425552691 0.28752948204912754,1.610906943252393 l-0.08950411008556099,21.52712490574962 m-11.872025743786173,1.3134539389525237 l0.4488275043993072,0.7742063875212424 0.2895033112723283,1.1607815946606919 l2.0720854550428323,13.483974614892622 m-1.516847943684424,-14.505858884562983 l18.887138678566426,-2.1516442507627205 1.481790939311528,0.028756497566422887 l1.1440976195079748,0.2932818792313506 0.7899986555100317,0.8625288713895903 l0.0020131528120973397,1.3406807025960117 -2.5530799558922816,10.941428445993203 m-18.32047462119193,1.8724020318159842 l19.735462350888774,-1.5529794972585338 " fill="none" stroke="black" stroke-width="1" /></svg>