<?xml version="1.0" encoding="utf-8" ?>
<svg baseProfile="full" height="133.46142679491243" version="1.1" width="97.60472403365588" xmlns="http://www.w3.org/2000/svg" xmlns:ev="http://www.w3.org/2001/xml-events" xmlns:xlink="http://www.w3.org/1999/xlink"><defs /><rect fill="white" height="133.46142679491243" width="97.60472403365588" x="0" y="0" /><path d="M25,25 m0.0,0.0 m30.837141608068908,3.3706359101846677 l0.0435210999742507,0.46662202440680156 -0.507282472578026,1.845104813876886 l-1.8810215184924108,3.1105486284087758 -2.6062225486753987,3.597075928741481 l-3.3177875228212153,4.01413392086311 -3.3431037912252246,3.4899644791792594 l-3.776951609750726,6.392032362681504 -5.246588287905263,9.958953938913393 m17.607130917015947,-29.461215692891496 l5.95435681858844,7.7358806035085514 9.901063372113292,11.129722600918647 l2.1554562161618716,3.7978602454521413 1.7850117531814436,2.575028256762242 m-24.560647321700507,-5.07630738296259 l1.7653969497230333,0.14133185962285152 8.548041234396434,-1.689290004442624 l2.5693804442652466,0.12274508735547734 m-18.727846858786297,10.648875852486883 l1.4280314727414092,0.3940335556965605 1.347411021607254,-0.02937555828472574 l6.797345739233822,-1.3841487560417287 10.070186996786061,-1.3385196632256235 l0.17316191817376314,1.1513719131761606 -0.5558834942436717,1.2695230740320247 l-8.608215471454699,15.110977046841569 m-7.680086232644308,0.7237868170873774 l0.4779936302371185,1.132257313021907 0.21415437996130676,1.449115252198222 l0.6353027710867256,25.55302020149089 0.8553838036377643,1.8705403543995407 l0.8744519561672566,0.813554259754285 1.217265820046345,0.37991719969456994 l3.2720967313459757,0.19567035200542487 5.921807838109172,-0.554880728749607 l1.9565391631713018,-0.7372103213582161 0.9506226532706631,-0.978073126446557 l0.5379339456151614,-1.518714228991474 0.19135053094112042,-2.7213008965747125 l-0.03586168099180441,-3.6543195049951103 " fill="none" stroke="black" stroke-width="1" /></svg>