<?xml version="1.0" encoding="utf-8" ?>
<svg baseProfile="full" height="103.61943815724493" version="1.1" width="98.27503402036638" xmlns="http://www.w3.org/2000/svg" xmlns:ev="http://www.w3.org/2001/xml-events" xmlns:xlink="http://www.w3.org/1999/xlink"><defs /><rect fill="white" height="103.61943815724493" width="98.27503402036638" x="0" y="0" /><path d="M25,25 m0.0,0.0 m13.665870620269628,6.2503468940722655 l0.513240149968926,0.19996811134944578 1.9450678472641638,0.2339127696058189 l2.3774134147131134,-0.2505434189840392 22.306974475311232,-3.4719224338435377 l1.1659388698528177,0.15772028530436988 1.0235755749329967,0.8825491359630607 l0.2567951290224272,0.6606200919381318 0.03818614074478107,0.7343157530563044 l-0.46152702565334774,0.7681991030725586 -4.649237100364456,8.349613892869982 l-2.1763608920557798,6.094249291650954 m-28.694040439915092,2.7627033303888275 l3.452522745043163,0.42240055909212704 27.139623126992365,-3.283216206451136 l4.1894904942693305,-0.2474291048533058 3.358012910914755,0.37832911171073197 m-34.9411443677427,4.7400427680846535 l0.5570278645810148,1.3518404258665486 0.04186294162288882,1.4826233780045561 l-0.22009389995657844,17.344802013212135 0.36511868156016203,3.2224368364664726 l0.6793728968872293,1.7898648989082089 1.6006825842373642,1.4669275625201275 l3.3125773206519353,1.145899124741084 5.747967818702584,0.43318398349859194 l11.467401357544972,-0.057156767204655394 6.385214953523978,-0.654858855524495 l2.5918538999648475,-0.8804357914972951 2.678180074770907,-1.2837834555190382 l1.5566290871875603,-1.5326899376700325 0.7995354441021164,-2.43006152349235 l0.20130132141708265,-3.6522948520933545 " fill="none" stroke="black" stroke-width="1" /></svg>