<?xml version="1.0" encoding="utf-8" ?>
<svg baseProfile="full" height="113.81884406376825" version="1.1" width="105.828166874396" xmlns="http://www.w3.org/2000/svg" xmlns:ev="http://www.w3.org/2001/xml-events" xmlns:xlink="http://www.w3.org/1999/xlink"><defs /><rect fill="white" height="113.81884406376825" width="105.828166874396" x="0" y="0" /><path d="M25,25 m0.0,0.0 m8.295831577441062,16.991703671063068 l0.45296397309575964,0.3332699748761795 0.8462760324037896,1.2703069075434636 l0.21620588794544393,1.5547762540527892 2.2465831674606007,24.72269310277034 m-1.666573373827264,-25.403712891144217 l3.8150839599409845,-0.796714997932117 12.917507383223976,-2.3088088422065747 l3.2439263908953144,0.0409499962055428 0.7336907189876607,0.7981924311309738 l0.06925902756641127,0.7551051577441498 -2.5029859705415696,20.876355007407927 m-11.409478692263578,2.092157421217802 l9.219649272186095,-1.6724843080716922 5.786455455789858,-0.2065326818428307 m-8.034775811216264,-34.85382915958647 l0.5747482620050268,0.9533369780528801 0.3624830961439244,2.0276655969898125 l0.004305683314618741,56.64441444549722 m14.045679421174132,-58.37859747150778 l1.153201139211721,0.3698197306929542 1.688751038654337,-0.04864152934580131 l11.733847400462206,-2.8566722125549737 1.1867655615669208,0.3486173480013943 l0.7151457863422609,1.1425027239465557 0.13362048643256985,2.024581867300393 l-2.026709223782727,16.090249941819593 -1.1803419556260868,8.114321032603437 l-0.6090394299507154,7.057662930513546 -0.4406415372434831,1.98456500607641 l-0.5579954017479979,1.0264127746667335 -0.6046365811171747,0.24113459048871042 l-0.5887693367666025,-0.8583484160304136 -1.1372220594379288,-2.5359215250207217 m-9.307443380758286,-32.81934035823106 l0.5754905669069841,1.2246636196332747 0.1785146395891451,1.7328181604248487 l-0.010042901499869245,54.96017462812599 " fill="none" stroke="black" stroke-width="1" /></svg>