<?xml version="1.0" encoding="utf-8" ?>
<svg baseProfile="full" height="108.54792902478948" version="1.1" width="109.49251294136047" xmlns="http://www.w3.org/2000/svg" xmlns:ev="http://www.w3.org/2001/xml-events" xmlns:xlink="http://www.w3.org/1999/xlink"><defs /><rect fill="white" height="108.54792902478948" width="109.49251294136047" x="0" y="0" /><path d="M25.0000034365803,25 m0.0,0.0 m22.867586612701416,12.426900863647461 l0.45168034732341766,-0.04453836474567652 16.437804698944092,-2.24920853972435 l4.947998821735382,-0.28534358367323875 m-20.9767746925354,-9.800623655319214 l0.7537520676851273,1.6361239552497864 -0.06590503267943859,1.6791090369224548 l-4.451485872268677,19.494792222976685 0.06682854145765305,1.4910487830638885 l1.2133242189884186,0.2507801912724972 18.30279231071472,-3.0043038725852966 l0.8348529785871506,0.01094569219276309 1.3335484266281128,0.5928933992981911 l0.7906924933195114,1.2193690240383148 0.15666088089346886,0.7938827574253082 l-1.3144591450691223,9.335846304893494 -1.95313960313797,8.912038803100586 l-2.250845730304718,7.23561704158783 -2.3312750458717346,5.143446922302246 l-1.05011485517025,1.658959835767746 -1.2160107493400574,1.3080260157585144 l-1.7899303138256073,0.7421661913394928 -1.2109734863042831,-0.17450140789151192 l-1.2576526403427124,-0.5950762704014778 -3.5294872522354126,-2.6825448870658875 m-24.75947141647339,-17.602436542510986 l2.968664765357971,0.4138164222240448 3.3007925748825073,-0.013899874174967408 l24.83234405517578,-2.4304264783859253 13.780112266540527,-0.9488225728273392 l9.976258277893066,-0.21693039685487747 4.63434100151062,0.5071328952908516 " fill="none" stroke="black" stroke-width="1" /></svg>