<?xml version="1.0" encoding="utf-8" ?>
<svg baseProfile="full" height="97.24732809482275" version="1.1" width="103.19691832064927" xmlns="http://www.w3.org/2000/svg" xmlns:ev="http://www.w3.org/2001/xml-events" xmlns:xlink="http://www.w3.org/1999/xlink"><defs /><rect fill="white" height="97.24732809482275" width="103.19691832064927" x="0" y="0" /><path d="M25.246026528022703,25 m0.0,0.0 m24.082507196598918,3.217687980963657 l0.39268944086403335,0.3566116729378042 0.6459433195854131,0.9483207083959212 l0.3150507475507115,1.5188383264003773 -0.019700039971673397,9.110918314002033 m-25.662517192650103,1.989422602827973 l2.02323749715158,0.37464862461651427 2.638430142871057,0.030224728456921177 l24.05961157233964,-2.0727062636667712 16.82218804433446,-1.1445516500494084 l4.617945867707194,-0.1628421336256286 3.035505196245341,0.45968612874468867 m-42.02374281407147,4.179469612743907 l0.5611772114161494,0.7684395849591455 0.34708683402591795,1.7058227235010421 l0.15242465307011901,19.273349204171677 0.5974521632825804,2.9494135836977895 l0.9668658812107189,1.4386021927611194 1.4852100092334308,1.0510232159267339 l2.208382424231589,0.6826584952279813 3.5198263503069387,0.43408644529614243 l4.550623624071186,0.13820399653312304 11.882680537758592,-0.24264662231325404 l4.86720540608474,-0.5927538090609393 4.073002667075762,-0.9154486829386245 " fill="none" stroke="black" stroke-width="1" /></svg>