<?xml version="1.0" encoding="utf-8" ?>
<svg baseProfile="full" height="90.37647205368215" version="1.1" width="105.22263123726012" xmlns="http://www.w3.org/2000/svg" xmlns:ev="http://www.w3.org/2001/xml-events" xmlns:xlink="http://www.w3.org/1999/xlink"><defs /><rect fill="white" height="90.37647205368215" width="105.22263123726012" x="0" y="0" /><path d="M25,25 m0.0,0.0 m15.568050263687146,2.8418271518846163 l0.4417234007096644,0.19549654576774492 3.485784621295776,2.231191202051188 l1.719416326908583,1.3777381543320604 0.660895318546797,0.878341785273766 m-10.119426940954707,7.823998114152772 l1.725913068891906,0.8958754896468657 2.1149854578712777,1.3589861020509844 l1.7121969186346981,1.360351572855365 0.9493375650316291,1.1458296346083081 m-6.424610774736885,20.204855438947188 l1.185167257689004,0.0619808621112899 0.7838722514452515,-0.7173944897232639 l2.502036025525333,-4.410351592593735 2.956396283964158,-5.488557451272776 m8.199265102526597,-19.5244324979108 l2.5043100523654465,0.23756520176753163 17.078589443932668,-2.0305998262740323 l3.2182311100544068,0.1257065090733028 m-12.201399093699061,2.6222131931042156 l0.44990297887587605,1.076906680482774 0.19316309774345874,1.609885130436965 l-0.04128159933447133,22.433775635285482 m-16.72428990525629,1.826719786981036 l2.1350334361698353,0.34807814807969834 2.1983705310501143,-0.028080120784566176 l12.771824618793596,-1.5274429088290569 12.240417590969194,-1.0226408303973948 l2.039973745688981,0.09984302581977848 1.8987830828701395,0.5282445322386731 " fill="none" stroke="black" stroke-width="1" /></svg>