<?xml version="1.0" encoding="utf-8" ?>
<svg baseProfile="full" height="105.23485096302188" version="1.1" width="87.11845994743182" xmlns="http://www.w3.org/2000/svg" xmlns:ev="http://www.w3.org/2001/xml-events" xmlns:xlink="http://www.w3.org/1999/xlink"><defs /><rect fill="white" height="105.23485096302188" width="87.11845994743182" x="0" y="0" /><path d="M26.31281516684207,25 m0.0,0.0 m35.44434310393355,24.94247784428106 l-0.07683754687963446,-0.04960450469812463 -0.771063531626033,-2.4483071846109885 l-1.1527786004397895,-3.7500744981908674 -2.676005043256074,-2.5850306693354352 l-2.2363411946229093,-1.3980742020930972 -2.7903534805932177,-1.2572021554119377 l-3.282205304360951,-0.7705555968941324 -3.7385431520513235,0.0495169077490039 l-3.6349708220381616,0.9319961339857347 -3.3005273900009167,1.4759245495853495 l-2.5866832656638796,1.6538531085909216 -2.256529951293278,2.048957388823931 l-1.9420797746835823,2.460370797304746 -1.4961872949801107,2.6912469031779382 l-1.1668638149981316,3.0671304332467524 -0.7870514771286813,3.4905319659766576 l-0.305626733241748,3.9009169355311872 0.2203777638871914,3.442791660168623 l0.5770797604476999,3.7467826642839817 0.9921973560590094,3.460543913826405 l1.3492029328827289,2.9371269918351706 1.6685945897439718,2.3166539168684586 l2.0755368314124767,1.9306265510626734 2.322164932250521,1.465551153108588 l2.602126324723911,0.9719335216711895 2.9398458830108125,0.5087664331780851 l3.9743580557776115,-0.004880325962764907 3.8224655112995007,-0.5507065120746948 l3.4639989725076195,-1.1800536825149377 2.692928331493291,-1.5490848898378753 l2.4616513576362635,-2.0932704516752425 1.9838433811881468,-2.8025042097892383 l1.4155780701938765,-3.3499098693148652 m-37.11845994743182,-31.899599746960575 l30.453274253454445,-0.0744413740193828 " fill="none" stroke="black" stroke-width="1" /></svg>