<?xml version="1.0" encoding="utf-8" ?>
<svg baseProfile="full" height="119.72597331234134" version="1.1" width="93.4583148513019" xmlns="http://www.w3.org/2000/svg" xmlns:ev="http://www.w3.org/2001/xml-events" xmlns:xlink="http://www.w3.org/1999/xlink"><defs /><rect fill="white" height="119.72597331234134" width="93.4583148513019" x="0" y="0" /><path d="M25,25 m0.0,0.0 m30.322953521841225,12.805364571948585 l0.06862555858825115,0.5762022800931508 -0.26201637255101107,1.9462975678476424 l-1.473895409712766,9.466810250836279 -1.7870598130401973,5.5840311635234325 l-1.5105878511219097,3.381255190756858 -1.3704224578810222,2.4590790509582825 l-1.2995409268831126,1.7678054625282307 -2.9175377991826767,3.2973218543393066 m3.9509041397140643,-19.459379303403527 l2.891389672308897,0.016373391997859695 10.610058914614964,-1.069803806361872 l0.988258997083279,0.44409410552454814 0.2704315736691322,0.4207847939753177 l0.03391114522836281,0.6706284475551234 -3.7827030971859346,8.98594516923227 l-0.35174703124947,4.635997265370076 0.847712912557623,1.3596983954141608 l1.038415787337913,0.1721493940888938 3.089533286028966,-0.0372524730523687 l2.1430305933266327,-0.12831138487550647 0.9561031828802621,-0.17954668470844848 l0.6784542782527544,-1.206312321006335 0.14807354118492552,-1.5267172868608818 m-25.76793414265273,12.210193273801092 l1.337386383481804,0.23584762779067822 1.961005928303462,-0.036781099156752706 l20.624338660932956,-2.0293506933097674 2.0211716754272633,0.25746338091822485 m-13.365416882004816,-7.050309480098363 l0.6401612361541407,2.1514362958918634 -0.04619890228880189,21.14174295207855 m-27.173924239976657,-36.614597773862194 l2.077290342413362,1.074954020789513 2.104253037488834,1.5834267922472949 l1.6615958019695023,1.6297958045121812 0.6658148381544713,0.9971799012237803 m-8.925074542897812,13.325386764696383 l1.3115225572221472,0.3758497854168756 0.9823844922675736,-0.11848027369477734 l6.18165373245827,-2.489913442924464 0.5781683819608573,0.3158410070664197 l0.29771759843436774,0.5395935586226402 -0.10179677332250284,0.6407710402169281 l-2.8041558138915046,5.471063062892994 -0.24104154166362832,1.098742535929863 l0.42359507296061655,0.9080771251963039 2.5831459761526254,3.486825195978643 l-0.10073791189783447,1.7698630678742793 -1.50381727585352,2.1209567024645115 l-4.610767845505072,4.0862297999441255 m-2.1987361604205113,0.9957315773513942 l4.209970258569773,-0.5265451569402377 3.0341358568983594,0.1044680936705528 l24.542960215701477,6.821377898249037 4.5859020534997965,0.741235439359337 l4.731168998397461,0.12538343242333905 " fill="none" stroke="black" stroke-width="1" /></svg>