<?xml version="1.0" encoding="utf-8" ?>
<svg baseProfile="full" height="105.1051822124903" version="1.1" width="98.92165858887084" xmlns="http://www.w3.org/2000/svg" xmlns:ev="http://www.w3.org/2001/xml-events" xmlns:xlink="http://www.w3.org/1999/xlink"><defs /><rect fill="white" height="105.1051822124903" width="98.92165858887084" x="0" y="0" /><path d="M25,27.733729515124836 m0.0,0.0 m15.247410192023887,3.91437802805001 l0.042990731999971284,0.5154164939377922 -0.10208188695224019,1.7437738036264478 l-0.6924583014931429,2.293921889984623 -3.1455388014357313,7.74835294656986 l-3.5876218355131093,6.941725829419769 -4.283953775837243,6.749645901945027 m8.2868525515261,-11.67128305689547 l0.5005686223617519,0.8418191503538155 0.19721169138755665,1.1547256268347468 l-0.010366458177092433,32.13897608353886 m18.769833315177447,-35.77447713389526 l8.511551731950444,-1.2409090629901438 2.4839690313990173,-0.038376845829876556 m-12.249916866259683,-18.051419169775034 l0.7840238917182597,1.6931876845964322 0.24744799627560463,1.2750170778661032 l-0.05427735108360709,28.26039692065843 0.2681980478197724,2.0263517354841283 l0.48884399449419397,1.3906078233393586 0.6528762757698009,1.4392947820481254 l0.902378316470242,1.4710122049877485 1.7080958807477604,1.4226508777646136 l2.2705814855805917,0.4992021228988856 6.04938028412869,-0.02523502433234324 l2.61298243759841,-0.4190320567347926 1.4993902556975651,-0.6964911433686252 l1.0056980768232542,-1.0365521683561159 0.5175890546723713,-1.3532847925800664 " fill="none" stroke="black" stroke-width="1" /></svg>