<?xml version="1.0" encoding="utf-8" ?>
<svg baseProfile="full" height="101.21338990512908" version="1.1" width="118.54421241603937" xmlns="http://www.w3.org/2000/svg" xmlns:ev="http://www.w3.org/2001/xml-events" xmlns:xlink="http://www.w3.org/1999/xlink"><defs /><rect fill="white" height="101.21338990512908" width="118.54421241603937" x="0" y="0" /><path d="M25,27.42539720367148 m0.0,0.0 m7.428091763464346,11.574642898950298 l0.5049017828640988,0.16486460279584325 2.1278526308766526,0.20533150666560507 l2.7592164531495533,-0.15273768742889887 30.66526437509929,-2.718405132729878 l5.055875468283172,-0.18726260814700169 3.0335707185398566,0.24388495889789572 m-23.7994131040858,-11.555715742675343 l0.41703167455474854,1.5610063182879181 -0.18880737864559716,1.9917072635934132 l-1.7015383252844987,9.190401233657287 -2.3594024609096422,8.002337365939827 l-2.6700901125494862,6.914224490679422 -3.2479950819155556,6.618215494358055 l-8.053975896497365,6.0553080203701946 -5.365078387994891,1.4507774718934687 m26.031218291124663,-25.22837609558132 l7.488641815402109,1.3631854744405902 19.51610612848383,12.196939008023824 l6.5707343056767185,2.2034953801502746 4.332007756403167,0.8719976988625501 m-39.388318038297726,-2.9897175220862495 l3.0628316336276242,0.1324391657402334 12.82357238101313,-1.441003661332822 l3.3744764878741593,0.0932967004718865 m-28.328650898617582,10.591869906613098 l4.258595561920164,0.2442722122163246 16.86930782810091,-1.709724486978911 l10.849125908010395,-0.7047110836668247 4.5360326808329345,-0.12864300319864597 l3.3064603466536537,0.334478877427367 m-21.451292307288313,-15.965739800639168 l0.6614566411988293,0.8834374381435309 0.3253172721966485,1.7607104827758717 l-0.0035557773388582084,26.921205554967898 " fill="none" stroke="black" stroke-width="1" /></svg>