<?xml version="1.0" encoding="utf-8" ?>
<svg baseProfile="full" height="101.08733001875612" version="1.1" width="118.08422245241933" xmlns="http://www.w3.org/2000/svg" xmlns:ev="http://www.w3.org/2001/xml-events" xmlns:xlink="http://www.w3.org/1999/xlink"><defs /><rect fill="white" height="101.08733001875612" width="118.08422245241933" x="0" y="0" /><path d="M25,25 m0.0,0.0 m21.32719421850336,5.017208087585539 l0.03660291475577149,0.5474203679525776 -0.2508187978744431,1.900855641524018 l-0.813527790479266,1.6755216592113713 -5.2144192992724365,7.907721691149576 l-5.110147297569849,6.857645334455221 -6.04240793055817,7.0081272030412 m11.520567103753248,-12.063908084062078 l0.7323543299681134,0.8376244300154418 0.4243862056334018,1.0720714315761661 l0.08127876373817708,30.327042256307088 m38.53890658953784,-44.80565846827029 l-0.5470149127195775,1.2292938162238658 -1.0492978084157534,0.9315160902307552 l-5.929105337907244,3.7698746262709535 -6.979791948767928,2.9829162278182166 l-7.811672953715476,2.4604999261444296 m-4.017734230516757,12.878322352353868 l4.344840854154896,0.3151801114449525 24.442949467713493,-2.2336181764892995 l7.2512727653269415,-0.359769426155246 3.1498075471309708,0.2775629210128321 m-20.898154586538777,-13.010359699737709 l0.7549878142921291,0.971653467256474 0.2963617663081415,1.2271890905677478 l-0.16085535679715832,29.72021888987739 m-15.406010995018812,1.189290293626902 l4.500965573821302,0.12332188520615431 21.43517216637099,-1.319100578387079 l4.2857218533766845,-0.11214643138857126 2.4097766073614237,0.1998205814698448 " fill="none" stroke="black" stroke-width="1" /></svg>