<?xml version="1.0" encoding="utf-8" ?>
<svg baseProfile="full" height="104.00055298677425" version="1.1" width="96.41676974438207" xmlns="http://www.w3.org/2000/svg" xmlns:ev="http://www.w3.org/2001/xml-events" xmlns:xlink="http://www.w3.org/1999/xlink"><defs /><rect fill="white" height="104.00055298677425" width="96.41676974438207" x="0" y="0" /><path d="M25,25 m0.0,0.0 m2.9909167839826156,22.88383487787094 l0.5137077505109567,0.08262579091666784 2.808503908626103,0.11514010315948425 l11.945636863217143,-1.674714010118961 1.9893173447511807,-0.03250559583248788 m-7.92682747494834,-11.167694604032567 l0.5825620477985499,1.0998650612976009 0.19508503602545918,1.684622355271443 l-0.12239709036801802,39.10335648038198 -0.36983453285438367,1.3025734180243738 l-0.5660760070931641,0.589501855627249 -0.6621065533649162,0.013947254208529285 l-1.486398160976787,-1.0832325047110392 -1.6787485353357634,-1.880326135420322 m-5.298275403587721,-12.357651965764168 l0.9696475945977063,0.32324410287579747 1.0717378116828107,-0.332133992272291 l12.267880939195694,-7.895181329784518 m5.8851217360502925,-17.865792979831873 l0.6735167233048631,0.5935734617633817 0.41497475280028123,1.3827762426727965 l1.740371508468408,10.93747627160742 m-1.6074241180642992,-11.926198642418601 l14.780786341948309,-1.9133233618793455 2.062763787993055,-0.018982246129129937 l0.8773623488211602,0.3872515238042053 0.29720812970610394,0.8288226102318248 l-0.05165170892745219,0.7677582158627252 -2.1065555115247494,9.425075545662278 m-14.27923186166193,1.84202454675379 l15.202939786411212,-1.3322329929206256 m-8.787009537238724,2.4343754178536736 l0.5360570620979547,0.9397765605402092 0.12906463601178877,1.0278679228756835 l-0.01282565516964601,19.03811678419855 m-10.437901817251635,-10.974741689727635 l2.2570131000080864,0.18033979870268038 15.940291546947059,-1.5962770126013375 l2.0234088076666192,0.14663311701258136 m-24.02962784748397,13.523538042555034 l3.2864874765811356,0.17930419279420648 11.287763280045239,-1.200964917651654 l11.106118477444907,-0.6825955245591725 2.0034159775388636,0.38244942525931247 " fill="none" stroke="black" stroke-width="1" /></svg>