<?xml version="1.0" encoding="utf-8" ?>
<svg baseProfile="full" height="102.20260202991432" version="1.1" width="106.45239122711479" xmlns="http://www.w3.org/2000/svg" xmlns:ev="http://www.w3.org/2001/xml-events" xmlns:xlink="http://www.w3.org/1999/xlink"><defs /><rect fill="white" height="102.20260202991432" width="106.45239122711479" x="0" y="0" /><path d="M34.8346463479989,25 m0.0,0.0 m11.993104962935556,13.22749423772851 l0.4528860219667892,0.11408805055083869 2.9163193999896677,0.12675212724525362 l25.098735681610176,-1.7979246502421615 3.85039898742049,-0.11505857533213977 l2.3062998251932054,0.24773213246066553 m-26.294386346360188,-3.9346859521169053 l0.7761337843259178,1.3055087679853918 1.0087404122763484,8.152967803913404 m13.34151642980327,-10.18942310131004 l0.13515065802789533,0.9596675525272277 -0.12926788777193546,0.9999648599061157 l-2.209567508015373,7.067117800141955 m-22.078994088752246,5.180021985382295 l0.434502082042943,1.5590078683070112 -0.13001527583253908,9.041828490535204 m0.19192015201794296,-9.248104539371562 l28.27685316790415,-1.8441517162101897 1.4050223422869514,0.18043382686318327 l0.5865310883124145,0.7375693026901322 -0.15212666783522372,1.8055762153949177 l-0.8820635861174911,4.3094658235830865 m-26.84479712844873,-5.8274354089091736 l0.3790143132984212,1.313504818140629 0.7123131632755645,5.39824778125345 m10.39383478563168,-7.326012286965283 l0.15238674153422518,1.506260050190975 -0.7610583409410319,5.093587488335767 m-17.741782240656672,1.8161240795881117 l16.223145699783853,-1.180078407314474 11.608035192161594,-0.616919675400255 m-33.45630711506929,8.096981170976743 l1.8808748407816902,6.215718392841209 1.409079823195673,4.699120102958759 l0.8368905873955477,5.127655613585653 m-2.465940728219677,-14.085837156232829 l28.835738554357437,-2.1103112744596153 2.1926548955842415,0.04773617105596416 l1.0134598160201715,0.5243263364131985 0.32355297750839607,1.1321113833018088 l-2.456885148805308,12.27566670049856 m-26.869192258112047,-11.849010726286902 l0.5843878393288571,1.6570596458608393 0.5572031074497522,8.989378680898948 m10.361587053389984,-10.922122049809323 l0.49661006531234164,1.5307512074696645 -0.5409400369629617,8.659141555629578 m-27.556206442221338,1.2887071236967054 l4.9304402347475635,0.2638787659181978 18.987190030267886,-1.4903688923759966 l12.504779849634446,-0.6228226480339581 7.54403697565397,-0.058015271517804994 l3.2973477442018795,0.3918133051753808 " fill="none" stroke="black" stroke-width="1" /></svg>