<?xml version="1.0" encoding="utf-8" ?>
<svg baseProfile="full" height="100.23579794152418" version="1.1" width="104.8947282726686" xmlns="http://www.w3.org/2000/svg" xmlns:ev="http://www.w3.org/2001/xml-events" xmlns:xlink="http://www.w3.org/1999/xlink"><defs /><rect fill="white" height="100.23579794152418" width="104.8947282726686" x="0" y="0" /><path d="M25,25 m0.0,0.0 m16.85486848858469,11.875928227071505 l0.4548414515815169,0.13516196681861956 2.8701813227550486,0.203974694850238 l25.349742254065237,-2.18948472492644 3.9940549823060927,0.25738825986415403 m-18.311989628255184,-7.981565547893592 l0.7448121603572646,1.0925159078671642 0.24861764069698555,1.4635521913177203 l0.05308212683128978,16.05766868684527 m-24.07749956294701,1.283939667796471 l1.2604538131977983,0.3196583887540056 2.1389824527525305,0.06014278432077861 l37.13863587447594,-2.5725066813798523 3.704192882707469,-0.060804737287805444 l2.471752013558931,0.31769247198269546 m-40.40704977169854,11.723268884603208 l3.2260167765686423,0.33280601879160304 24.32723055050267,-1.9291231149288293 l4.717422306759359,-0.2137121513662306 2.691209260083177,0.22033744798078447 m-11.622649134246004,-6.6362439117697685 l0.6638084469028528,1.1862338445878517 0.26086939464102527,1.6874515125275158 l-0.21125310379207551,22.48455361912403 -0.3704251346093894,0.8490475391261412 l-0.546793278024291,0.26791669684694497 -1.426004171572,-0.7115315690836185 l-1.9357046876366892,-1.846303898916059 m-13.894541978664288,-9.929907300161545 l1.6493316693548883,1.0192377079892194 1.7969988863584208,1.534041606967093 l1.4113277409132814,1.6125309728616068 0.5897858866521022,1.0243869356089534 " fill="none" stroke="black" stroke-width="1" /></svg>