<?xml version="1.0" encoding="utf-8" ?>
<svg baseProfile="full" height="108.26016620449775" version="1.1" width="109.67878439487363" xmlns="http://www.w3.org/2000/svg" xmlns:ev="http://www.w3.org/2001/xml-events" xmlns:xlink="http://www.w3.org/1999/xlink"><defs /><rect fill="white" height="108.26016620449775" width="109.67878439487363" x="0" y="0" /><path d="M25,25 m0.0,0.0 m28.62281757848665,6.619835120826189 l0.04207189549584434,0.49296537267451007 -0.3156162056859083,1.7634732581975432 l-1.2068403942553108,2.799547861204672 -1.929975672053997,3.6432636976493153 l-2.553594054945955,3.6640656849132056 -2.6363663664846064,2.9901855027814195 l-3.1747550283774038,2.992433834189113 -3.7633302901780317,2.9076957327948647 l-3.0726935702490104,1.9267572001845363 m17.103366049338298,-14.461490294752092 l2.08634778870291,0.09469955010633181 2.5641368820630177,-0.25370185734838346 l6.943637158331313,-2.1612995196928817 1.515026704334272,-0.11914388578672827 l0.7105886136120365,0.24245307302151858 0.49601925981272404,0.4750867874957382 l0.21529074547471805,1.3469148103967035 -0.644001600274527,3.8747685336902675 l-1.8158932937303265,5.150215490098368 -2.2932842899407877,5.29648607155084 l-3.626669432522933,6.409063302371852 -4.311068208332708,5.896545007807677 l-3.9083130707743474,4.283028194727168 -4.262725356017948,3.852787069073811 l-4.748254544449092,3.3624286211843084 -5.190757873237926,2.7640484410093062 l-5.126511497298793,2.1249901171432652 m27.322393038639014,-23.284821744914822 l6.213173917797985,5.359527158061896 15.12726946062096,14.861165476561023 l2.6231839781053914,2.0516631751516057 2.674112072868097,1.2945293621256133 " fill="none" stroke="black" stroke-width="1" /></svg>