<?xml version="1.0" encoding="utf-8" ?>
<svg baseProfile="full" height="123.64164237858873" version="1.1" width="105.16304160944551" xmlns="http://www.w3.org/2000/svg" xmlns:ev="http://www.w3.org/2001/xml-events" xmlns:xlink="http://www.w3.org/1999/xlink"><defs /><rect fill="white" height="123.64164237858873" width="105.16304160944551" x="0" y="0" /><path d="M25,25 m0.0,0.0 m21.8425716130032,1.405184143009658 l0.05041720386254514,0.4612081867983066 -0.1692992916901719,1.6446283539079558 l-1.0084645699028307,2.8351674058619345 -3.612194145385501,7.311957404536492 l-4.430179056089961,6.405461609603707 -4.877306897873478,5.320606197028563 m11.138292446583717,-12.055750005758794 l1.6939795714805252,0.41999967939813904 1.135282998255077,-0.088115093653467 l13.726754543177472,-3.3972403573573495 17.075838672945515,-2.398662199885088 l1.4120854148966329,0.11753382207659997 0.6719640843360927,0.57062623086509 l0.4958952099626013,1.24383977095784 0.017403811884087933,1.7376159145110766 l-0.32560382779066566,13.587754387025003 -1.069060228505609,27.744866615214498 l-1.0448685355424034,10.855380357917454 -1.0578393074659198,5.472676688740894 l-0.7780051863474785,2.430690123562891 -0.9598033574466808,1.7036625173211128 l-0.6162452861339993,0.3125506269062128 -1.2361209516070135,-0.3509267997204646 l-2.579266622294246,-2.823303121157626 m-25.68166127973945,-38.0247863307458 l0.6329895669825927,1.9072395497903212 0.009685256826030608,28.068872232208008 m0.48579091253859186,-28.039321661794986 l15.80938627852291,-2.5208013500227544 1.162142708739992,0.6540034670039941 l0.37820426530214085,1.1692422980203225 -0.3047993836282892,26.406101808041104 m-16.873785075519802,-13.773361505649664 l10.992653078949585,-1.4508095773571117 m-11.101508544808098,14.542333700230731 l16.966084864235206,-1.5279508069992658 " fill="none" stroke="black" stroke-width="1" /></svg>