<?xml version="1.0" encoding="utf-8" ?>
<svg baseProfile="full" height="109.65367977559663" version="1.1" width="97.7593755823217" xmlns="http://www.w3.org/2000/svg" xmlns:ev="http://www.w3.org/2001/xml-events" xmlns:xlink="http://www.w3.org/1999/xlink"><defs /><rect fill="white" height="109.65367977559663" width="97.7593755823217" x="0" y="0" /><path d="M25,25 m0.0,0.0 m9.092434125998917,15.373368700250074 l0.5125173603553049,0.13402652949183946 3.260361024232714,0.0548241435187244 l26.656157883668243,-2.5100306117463838 4.257950473753718,0.20853680623894993 l2.8204904310060743,0.3539206239170419 m-29.881622470623583,12.272137042139876 l2.695223144910889,0.15694144809099136 16.00994606929941,-2.1935894532425566 l3.0409884498819273,-0.2074962476342581 1.5807638100759493,0.17896835220806886 m-12.1905253862461,2.787397615279724 l0.647080829702294,1.0954348855518896 0.185136537133377,1.1030371163567414 l-0.017548959872950097,21.41856689521282 m-11.198223849765206,-12.487894957537426 l3.3625190573234165,0.23683843303095425 15.50298936964062,-1.7708603105179306 l3.490635745505577,0.11042281447872165 m-27.904410378142508,14.609018445265525 l1.8499003515389436,0.36930249863398695 2.10358048338842,0.01937399069657169 l15.720327308017703,-2.093433899491177 11.232781470425543,-0.9501609041463719 l2.4708239241988927,0.009401420653713431 2.4590987769140993,0.46817581207377335 m-10.727610059684483,-35.3874444327559 l0.5194750871390421,1.1917963626756476 0.16752391862697852,1.5129611470379907 l-0.04641213225503345,43.59013950986501 " fill="none" stroke="black" stroke-width="1" /></svg>