<?xml version="1.0" encoding="utf-8" ?>
<svg baseProfile="full" height="112.33631507897812" version="1.1" width="101.52908428931168" xmlns="http://www.w3.org/2000/svg" xmlns:ev="http://www.w3.org/2001/xml-events" xmlns:xlink="http://www.w3.org/1999/xlink"><defs /><rect fill="white" height="112.33631507897812" width="101.52908428931168" x="0" y="0" /><path d="M33.113461456652644,25 m0.0,0.0 m15.758714011942578,3.00664855315831 l0.3690666104486523,0.34204316987653394 0.5312820356907799,1.5551987441981725 l-0.03440726799687379,4.588958723015504 m-15.812687473453126,1.7580484279037152 l3.868422835040349,0.14611776958999406 22.585425715708645,-2.4176334619354294 l2.9189387623660155,-0.13940833494165958 2.584027031928805,0.189233163844242 m-25.83248553102169,6.203652726060495 l2.3233557311593582,3.0953965837422337 1.0886098700087297,3.168441071662852 m15.850419266212938,-10.295013828651337 l0.18032588853962156,0.903524200257358 -0.5575753062182545,1.5473117483566714 l-3.3621418182794685,6.205106372882044 m-30.572751818729706,3.956918010462488 l4.244968068741126,0.24006186670369192 21.531546055059582,-1.9082354076260655 l13.887843978378779,-1.2045705827299806 7.719915018436137,-0.359648405962243 l4.14481116869605,0.3129817715640045 m-40.98165462992819,8.279207600440145 l0.5802377562015718,0.8351491761136801 0.31358291534839744,1.066341939453826 l2.228298549827529,13.457222078543172 m-1.688718303025313,-14.466815299617688 l22.06874085534129,-2.0406575801300226 2.64139623128566,-0.3548760029928592 l1.6157260076258952,-0.050195691291665276 1.1036734432134256,0.2474067490044481 l0.8646864146048079,0.8089672447488581 0.11773598096540654,1.3027993670978624 l-1.5975862993616188,7.151139029210595 -1.5694065940256463,5.194194454029875 m-23.971212597055146,-5.8579727069711796 l25.40948474893505,-1.6741158987530662 m-24.325408516130896,8.389062494426625 l22.24880312644102,-1.5361627040692107 m-12.21482192503788,-11.124940756448941 l0.8153909452795203,1.2450343428561532 0.16836368690712164,1.3165296336659995 l0.03697575699069438,25.845782946836106 0.09160751492709898,1.8673998485475425 l-0.8009250060557532,1.5406819328462817 -0.7121913102949443,-0.06168048544195428 l-0.8153953485393363,-0.560092358194815 -1.881928049400704,-1.9202735910922346 m-7.699504967149695,-14.116548302765732 l-0.4733494109685829,1.6203079267562694 -2.758137434449788,3.3191127562532254 l-3.0934592331294195,2.8413201885061965 -3.6117645165733117,2.6348711953781727 m28.86481365148005,-10.92522412065894 l2.547156542753431,2.1296487090493974 2.6749217433325114,2.9310931238858933 l2.2783611848878356,3.2640137987390596 1.2807610884065062,2.67330384538496 " fill="none" stroke="black" stroke-width="1" /></svg>