<?xml version="1.0" encoding="utf-8" ?>
<svg baseProfile="full" height="114.95189104959869" version="1.1" width="100.0018770802338" xmlns="http://www.w3.org/2000/svg" xmlns:ev="http://www.w3.org/2001/xml-events" xmlns:xlink="http://www.w3.org/1999/xlink"><defs /><rect fill="white" height="114.95189104959869" width="100.0018770802338" x="0" y="0" /><path d="M25,25 m0.0,0.0 m16.350105407080623,2.917107158233063 l0.047633435284851235,0.5872536829988236 -0.24580971619229813,1.6445593235681801 l-1.0733903378190592,3.0872817053942048 -3.510744033347804,7.51129203009577 l-4.2669846613448765,7.216857426527548 -5.159233619860554,7.117736439348252 m8.899505205579988,-11.324817071592399 l0.6617637939120042,0.9437688559436481 0.28277638438893404,1.065198422894883 l0.023544018953123094,31.956542732555228 m32.610914340978546,-34.52786576221484 l-0.8937126484020977,1.2077042231801236 -0.8841032536094784,0.7844381846572175 l-4.443374968347236,2.3536386544966845 -5.522880358940567,2.2835453666917473 l-5.97251880461491,1.949527647183198 m-3.4200127210593867,-17.15657358620179 l0.6798105485694923,0.8545264379459712 0.328463832496218,1.622583952544573 l0.0929380542799406,38.189348275538535 0.40464835512919606,3.5143488007237003 l0.5736482949864916,1.5407159739064775 0.7630009363793866,1.7253841413141282 l0.75218675807924,2.098524605784984 1.0090379375101712,2.5207899026486666 l1.9160775320633399,2.003257494323464 3.1436334613755688,1.0136594691151772 l7.318067298305571,0.2515565619934532 4.6976773832110315,-0.507289627494163 l1.7081205128013366,-0.5343532538645265 1.919969095314411,-1.2344943153477066 l0.8624420452885735,-1.5655973472730274 0.3486775718040235,-2.6286226293772113 " fill="none" stroke="black" stroke-width="1" /></svg>