<?xml version="1.0" encoding="utf-8" ?>
<svg baseProfile="full" height="104.42644123938233" version="1.1" width="105.48431734048927" xmlns="http://www.w3.org/2000/svg" xmlns:ev="http://www.w3.org/2001/xml-events" xmlns:xlink="http://www.w3.org/1999/xlink"><defs /><rect fill="white" height="104.42644123938233" width="105.48431734048927" x="0" y="0" /><path d="M25,25 m0.0,0.0 m30.805644087039447,4.298059526753245 l0.42880871159973105,0.4390436206962377 0.6849812723074956,1.5034477126105805 l-0.011317945339748624,5.425580213022994 m-21.966891276061826,1.6155218356142322 l2.4019722640679917,0.2071668989186098 2.225285203700655,-0.05448762926954125 l33.74258369244669,-2.7566744038736593 2.8569831310527727,-0.027484725897908725 l2.2977129134516243,0.3108935872118565 m-14.410234575678881,2.7977452476162132 l-0.17833611175342684,0.8566219883319818 -0.5515277906957464,1.0244832943182207 l-2.697013408117004,3.576889740891669 -3.447084985734179,3.880328672864759 l-4.22909328854909,3.861312728967373 -3.888479439524276,2.9437166226844416 l-4.4171305665609015,2.7861356382791946 -4.762632120654884,2.494512210078038 l-5.049884369327636,2.165217013150522 m11.150413704308123,-19.354496267746008 l26.138185455775787,14.881375354690446 4.779282165571314,2.212028457921373 l3.5820906171652305,0.4355782118021999 m-33.300410670535825,-1.601513904912526 l2.0736410403265073,0.3890281630961212 11.46999735751126,-1.6968118686353773 l1.7589584099262612,0.008743754249953503 0.6178814118582843,0.41843138826158505 l-0.18204589998420598,0.7091571095248274 -1.9508707301147095,6.248502891396715 m-15.67927906690184,1.4686820337088238 l1.3375517684268883,0.4523900881362928 1.6353691956112453,0.037588125490161085 l14.308254099005177,-1.5829356425017198 m-17.044006992043794,1.047193388364764 l0.60400174647486,1.237895242008441 0.13415704930700964,7.658505669135067 l0.36804822714242796,1.6834842307904612 0.7768084766320146,1.0539873585243504 l1.8125300804410382,0.8660441502445743 3.6068931067127328,0.4545628708550448 l6.949856806103451,0.05099064200768019 4.780182654954963,-0.33632074025869163 l1.9460183921402796,-0.54358876851717 1.349173400101587,-0.9578421863353024 l0.7285372898566158,-1.3314413343619615 0.2686504027215831,-2.1445083887886245 " fill="none" stroke="black" stroke-width="1" /></svg>