<?xml version="1.0" encoding="utf-8" ?>
<svg baseProfile="full" height="108.35019402205944" version="1.1" width="109.49251472949982" xmlns="http://www.w3.org/2000/svg" xmlns:ev="http://www.w3.org/2001/xml-events" xmlns:xlink="http://www.w3.org/1999/xlink"><defs /><rect fill="white" height="108.35019402205944" width="109.49251472949982" x="0" y="0" /><path d="M25.00000194646418,25 m0.0,0.0 m14.936778545379639,2.8470784425735474 l0.34690093249082565,0.4376135393977165 0.5716472119092941,2.502072751522064 l0.2323160506784916,13.23008418083191 -0.279427208006382,11.196526288986206 l-0.6088211387395859,7.599921822547913 -0.9652750939130783,6.48080050945282 l-1.3344387710094452,5.438104271888733 -1.7168937623500824,4.475155174732208 l-2.1119754016399384,3.591953217983246 m7.485617399215698,-53.46261501312256 l23.81687641143799,-3.6883145570755005 2.177102416753769,0.20887989550828934 l0.8931702375411987,0.823059007525444 0.2791156992316246,0.6506054103374481 l0.22329255938529968,1.8355178833007812 -0.08976767770946026,52.15110778808594 l-0.396743007004261,1.2939006090164185 -0.5947822332382202,0.6353204697370529 l-0.7389920204877853,0.10342232882976532 -1.6946309804916382,-0.8832018077373505 l-2.2698087990283966,-2.152845859527588 m-12.472484111785889,-44.23318862915039 l1.6803428530693054,1.389431208372116 2.0578135550022125,2.277783304452896 l1.8049481511116028,2.4299679696559906 0.9222447872161865,1.8451540172100067 m-32.154128551483154,9.091196656227112 l2.659241557121277,0.38216419517993927 3.271634876728058,0.009571238188073039 l23.01342248916626,-2.456342577934265 21.162285804748535,-1.6962093114852905 l5.345065593719482,-0.12748672626912594 4.040864408016205,0.5401843786239624 " fill="none" stroke="black" stroke-width="1" /></svg>