<?xml version="1.0" encoding="utf-8" ?>
<svg baseProfile="full" height="106.54186196515032" version="1.1" width="81.12498427313568" xmlns="http://www.w3.org/2000/svg" xmlns:ev="http://www.w3.org/2001/xml-events" xmlns:xlink="http://www.w3.org/1999/xlink"><defs /><rect fill="white" height="106.54186196515032" width="81.12498427313568" x="0" y="0" /><path d="M25,25 m0.0,0.0 m14.965787730647516,4.362455984149847 l0.032723502964270866,0.5621929897015138 -0.12240298018399765,1.753516085448364 l-0.4323385064680769,3.3337381987947783 -1.4056073109753366,14.165557775430356 l-1.5250370355134713,5.679411028194534 -2.294288335959952,6.666569274545595 l-3.4944989698133515,7.841101019559794 -2.389902762959817,3.8367577703277647 m-0.333782759468543,-24.19516028554709 l1.8211136725430423,0.3387466336424368 1.5160392148635233,-0.14354513383702314 l20.217827200003263,-3.9545707073966763 2.8097533130813126,-0.10699696627499153 l1.7595983003753053,0.4246675662629605 m-20.293312597937632,15.262547765604344 l0.5161451944127817,1.349406581438531 0.19457680824619994,1.5300801866615623 l1.3776987840901012,17.835386198443715 m-1.1945842698822584,-19.201820273426584 l12.006595732588874,-2.739278122477514 2.9463199349421996,-0.506100376456946 l1.0211986769086419,0.3491452846040725 0.49264811856409535,0.9469341245948562 l0.05161560597799147,1.4407141762967952 -2.1352269886357487,15.024032565088367 m-13.253831486372373,2.46101376703048 l14.642270597550255,-2.07630347827339 " fill="none" stroke="black" stroke-width="1" /></svg>