<?xml version="1.0" encoding="utf-8" ?>
<svg baseProfile="full" height="111.21353245704347" version="1.1" width="105.39846343970265" xmlns="http://www.w3.org/2000/svg" xmlns:ev="http://www.w3.org/2001/xml-events" xmlns:xlink="http://www.w3.org/1999/xlink"><defs /><rect fill="white" height="111.21353245704347" width="105.39846343970265" x="0" y="0" /><path d="M25,30.63254984399662 m0.0,0.0 m14.561083969264958,17.436349001973852 l0.49170883900456075,0.10906005426955005 3.248587196485022,0.06956184944061417 l13.912954562199516,-2.3913480655804045 14.098669252244944,-1.447264000065831 l3.2298064251602465,-0.1098659406725592 2.4426696576517735,0.3430627641358689 m-28.397906198135995,-13.267636615346786 l0.7350328207852148,1.413958257590461 0.26505038398873876,1.3551258209294021 l1.1086427299308659,28.639708449731994 m14.489513933941769,-37.78326142040278 l0.5617838642808523,1.2576930233909667 0.15241618694249884,1.2575721686886054 l-0.07375475575155187,31.411552524524947 m-28.196163301447797,2.6501503605410526 l2.198196198772714,0.448265141924622 2.8530027028194387,0.037000267884492025 l18.21911153360469,-2.534831809816687 11.741875527860115,-1.2771847373587075 l4.572671901094125,-0.24557568780819633 3.183510009005953,0.4820542910115509 m-28.24278472404739,10.959980301853886 l-0.21870556595594054,2.375480010551726 -1.529690922105874,3.9435844328462286 l-2.719316777243917,4.74285458747925 -3.4333801356059093,5.7049375813297205 m21.126199481318704,-16.640778422326754 l2.4479106053767854,2.8463201305498735 3.0086456901357095,4.453421932973655 l2.468673856353922,4.711429215368351 1.2136669172439996,3.5562278776707155 " fill="none" stroke="black" stroke-width="1" /></svg>