<?xml version="1.0" encoding="utf-8" ?>
<svg baseProfile="full" height="107.98771887672058" version="1.1" width="104.04280574535127" xmlns="http://www.w3.org/2000/svg" xmlns:ev="http://www.w3.org/2001/xml-events" xmlns:xlink="http://www.w3.org/1999/xlink"><defs /><rect fill="white" height="107.98771887672058" width="104.04280574535127" x="0" y="0" /><path d="M25.886204193498884,30.782491645704592 m0.0,0.0 m12.797640747242305,5.682541091218162 l0.04169543529811914,0.4646480349856822 -0.11516231559083719,1.7890961524901676 l-0.7732501514287121,2.257226371774598 -3.588596312359409,7.220350369044799 l-4.207744515477687,6.633691315084238 -5.040787081182662,6.3545662692210945 m9.941760430555991,-11.29163722572207 l0.5727535958719074,0.8134612006634082 0.20947248477010552,1.0954152452634744 l-0.01817361205846008,31.185868406992434 m22.96265080669104,-40.01196399359871 l10.660394698651215,-1.405742537348113 2.8888559812037333,-0.04052602308397221 m-15.191008356577397,-16.529486322689785 l0.9882442072668015,1.2358335130422635 0.38329900420271273,1.4529139614476454 l-0.12782157351805068,27.282421606991935 m-11.025223479652274,-19.425025354039953 l0.9116466604998004,1.0486404586976474 0.346616417320308,1.3293579760127985 l-0.10482298733652945,17.468200015521994 m-8.518752617748431,0.3038920057094786 l2.317349705421103,0.324638834181765 3.0325155877088394,-0.15905151851666974 l27.486841820667824,-2.4445782539550596 3.56394292314179,0.37692442551071026 m-18.802954067025244,3.135781774176797 l0.6001484323082978,1.1895419788294057 0.20142069416045968,1.9925647364030015 l-0.33161510473003963,17.142594800875585 m1.5601473714207719,-11.90126738623981 l1.03124670553336,-1.055363570833481 2.2386673573789784,-1.3052477590030045 l7.497356174887405,-1.9286241804292372 m-20.437137655737292,-3.83185982411735 l0.6252522370428111,0.8770492011106148 0.25556708077364876,1.111424381327111 l0.04915628690965242,12.368041375358043 0.30244500933095597,1.0099732754474824 l0.5418889763064704,0.3863798094487855 0.7706388945336524,0.08420738204792885 l9.420382047625745,-1.7811230065092225 9.673035311634283,-0.9253972365282281 l4.927140143233256,-0.04571886132025804 2.6394781526820665,0.41870502376520263 " fill="none" stroke="black" stroke-width="1" /></svg>