<?xml version="1.0" encoding="utf-8" ?>
<svg baseProfile="full" height="86.56376647864838" version="1.1" width="102.2110260729493" xmlns="http://www.w3.org/2000/svg" xmlns:ev="http://www.w3.org/2001/xml-events" xmlns:xlink="http://www.w3.org/1999/xlink"><defs /><rect fill="white" height="86.56376647864838" width="102.2110260729493" x="0" y="0" /><path d="M25,25 m0.0,0.0 m27.159716832367298,2.403095017487958 l0.4311646774508444,0.3797071824199508 0.7160920893539592,1.4377831117622588 l-0.04194420122565678,4.608414608177971 m-22.093925680846027,1.7718993461245602 l5.2579488189084875,0.11668971226856133 33.177077423996664,-2.313841990953892 l3.891318848435273,-0.14486080798648848 3.257971909007411,0.2240126343220158 m-26.385533278406495,6.689672895039275 l0.08742019616845921,1.1946850423067306 -0.38728148493030945,2.4318205641237514 l-0.8756660330856083,3.3239353863694 -1.6384794417689454,3.884479774815802 l-1.5886821557210362,2.781896473336444 -1.933462958647732,2.5331322896638757 l-2.421575172302659,2.264948573025616 -2.2374767674384155,1.9424415063153122 m19.345193830359808,-21.81242113908818 l0.5731997742198469,0.7570902809554411 0.26501909315454125,1.5299235536090385 l-0.01251468254383793,18.202145500014154 -0.2155620404745324,1.604688761564801 l-0.5105047381146981,0.6727559943069955 -0.6872488296608773,0.0796722086670185 l-0.7721569016215216,-0.7327683024846573 -1.8694601280753513,-1.9566077628357819 m-15.008918590681755,-12.471844226648653 l-0.15580253370508237,1.443869536026841 -2.5994367101945524,3.326052709721575 l-3.1724709852467057,3.1271070544184925 -4.0098213679005745,3.252694662227792 m37.42091048152631,-10.885146664833965 l2.5663815540388324,1.5613165267769957 3.094905226032497,2.591844918387837 l2.400229723188504,2.608751474542436 1.1844002773329354,1.9593424345683588 " fill="none" stroke="black" stroke-width="1" /></svg>