<?xml version="1.0" encoding="utf-8" ?>
<svg baseProfile="full" height="101.48128421344273" version="1.1" width="94.81265948252589" xmlns="http://www.w3.org/2000/svg" xmlns:ev="http://www.w3.org/2001/xml-events" xmlns:xlink="http://www.w3.org/1999/xlink"><defs /><rect fill="white" height="101.48128421344273" width="94.81265948252589" x="0" y="0" /><path d="M25,25 m0.0,0.0 m16.108217054025236,3.2890039659547985 l0.45700187245430296,0.4810944070766436 0.5526951716278353,1.0312564604425936 l0.1642979268052436,1.228440442623951 -0.08901332589602998,25.812016993259082 m1.0757963749940342,-26.585162499939077 l7.454101420342558,-0.7173442852383392 11.680106438272716,-2.199211865329603 l3.3203921915275707,0.0332378882542384 m-23.032033433030005,12.06375739049001 l19.547533221178327,-2.5861405200797285 1.92911643167373,0.11071794754115061 l0.9076604818772008,0.8710177971395044 0.10805450410506193,1.2738945390832017 l-2.295160252673536,7.826412829396761 m-20.330986119423066,3.0386604941733184 l22.079115833870485,-2.2095910349685175 m-33.74780636385148,2.1109071478506176 l0.7424740994757026,1.744258318451582 -0.026545875777101106,18.136360483836675 l0.5565530516082655,-0.18475257884081017 1.680215854097052,-0.34326781328410133 l25.22148817996431,-3.0402369317381748 7.285320127887745,-0.4517605018444848 l3.4640646173897363,0.4334295451734758 m-14.61835146921921,-31.02229604164083 l0.4797974929370459,1.364199546455021 0.13794039650467804,1.562040206220564 l-0.06381193921838402,38.410341882923206 " fill="none" stroke="black" stroke-width="1" /></svg>