<?xml version="1.0" encoding="utf-8" ?>
<svg baseProfile="full" height="113.47020033687542" version="1.1" width="116.26710540195344" xmlns="http://www.w3.org/2000/svg" xmlns:ev="http://www.w3.org/2001/xml-events" xmlns:xlink="http://www.w3.org/1999/xlink"><defs /><rect fill="white" height="113.47020033687542" width="116.26710540195344" x="0" y="0" /><path d="M25,25 m0.0,0.0 m14.776551724577013,7.2910430011220795 l0.5084103296284626,0.5735346986823823 0.7399894090160714,1.2330206661537484 l0.3301595747145493,1.6674178279641685 3.4755809221022593,30.46369403443327 m-3.2364068890318167,-32.07448405333052 l34.20548933320067,-1.3539462496143246 10.025586010613544,-0.5272094063608492 l2.159818753904233,0.15234998132231461 1.4771019779249839,0.6231876853405266 l0.84075528537158,1.124701444174736 0.11818210766830876,1.7957548964902832 l-4.161114151652218,25.642390269278497 m-24.086194317779434,-26.77246919016825 l0.4110806890349918,1.9829186480041783 0.021619883474357768,25.601516021461318 l-0.02736621215508975,1.959688590233714 -0.15447013613577,1.2181973333629155 l-1.0123529064901748,0.9260306777420594 -2.154759602929502,1.0781675910619533 l-3.096236411053931,1.420333447900189 -3.7441656554565794,1.335316167778157 m23.611025472718197,-26.19678271381634 l0.7207118294133293,1.4056502796844352 0.1536838379960683,1.8786246791121692 l-0.11150202108968707,24.480719135182625 0.1829428406919561,2.1692716344014795 l0.47078734994671023,0.916948674999479 0.8456108455353887,0.587363151432764 l2.4808940388547525,0.3198712662196465 5.826896725971293,-0.14828106188549459 l1.7667997181570112,-0.6243891155143958 m-39.41499319396033,13.320050324026488 l42.31698823917225,-1.3820700871843232 " fill="none" stroke="black" stroke-width="1" /></svg>