<?xml version="1.0" encoding="utf-8" ?>
<svg baseProfile="full" height="113.85023166633681" version="1.1" width="98.99381124014707" xmlns="http://www.w3.org/2000/svg" xmlns:ev="http://www.w3.org/2001/xml-events" xmlns:xlink="http://www.w3.org/1999/xlink"><defs /><rect fill="white" height="113.85023166633681" width="98.99381124014707" x="0" y="0" /><path d="M25,25 m0.0,0.0 m15.683197293560056,14.986045983537368 l0.36496548926294514,0.11951362852871791 2.6727123102444375,0.16124570279307313 l25.206430054458608,-2.2322607121353153 2.4470602885859942,0.25890573189981736 m-16.793003348345906,-7.339212592263553 l0.6706522874381982,1.177784917365539 0.18877483179711207,1.4810903012529224 l0.0012492868583546628,15.242363853614048 m-13.72118313721693,1.0087762168032817 l0.5329805528511786,0.1708641806465192 0.8099755973726953,1.2761569318253765 l1.602361935439555,7.840365099511175 m-1.2819580860551194,-8.990201971011844 l16.87448243023869,-2.026570332020781 3.095508425402936,-0.27569319879031917 l1.140967233081595,0.13860530680091304 0.7462186551832642,0.6963006078129653 l-0.020677127333038395,0.5991390635764163 -2.105145323354102,4.45345320188793 l-1.5085809582068836,2.1469586782148076 m-17.69424281972391,1.8561083955043425 l19.58245090476368,-1.6005159170346417 m-22.604228357516078,5.104443534761871 l1.9047525133783194,3.253190340468489 1.1160717879227244,3.4955346062053607 m16.857597754925397,-8.26290011736061 l-0.21218775244111324,1.4275457460053116 -0.9992151834318775,2.6655223493775764 l-1.4654336010473705,2.781774833490628 -1.5368350841360894,2.2824939071988015 m-26.347739982962864,2.9808619464630657 l2.011852998895079,0.33692193632422995 2.0675406527362314,0.0033757019003703725 l17.71171762262988,-1.7929863320951824 12.876447615356998,-0.9572789107960551 l5.653017505226894,-0.10201470885048583 3.465255974307541,0.3990774739508052 m-27.95189689823284,7.912801618647684 l0.472458456734011,0.6981239049677416 0.22218698553873129,0.9618100233118999 l1.210999699673857,9.512710734046545 m-0.542887375043931,-10.226433187029924 l13.065859229863456,-1.9248343481242454 1.9497034677348908,-0.10026161286885216 l1.010152592196553,0.40415206421826044 0.456357439919407,1.5542857210086347 l-2.0346145288834907,6.728107634480531 m-13.294528904605643,2.0137291363511705 l14.839512204906724,-1.4623103031784812 " fill="none" stroke="black" stroke-width="1" /></svg>