<?xml version="1.0" encoding="utf-8" ?>
<svg baseProfile="full" height="105.67906427040562" version="1.1" width="106.74524027076961" xmlns="http://www.w3.org/2000/svg" xmlns:ev="http://www.w3.org/2001/xml-events" xmlns:xlink="http://www.w3.org/1999/xlink"><defs /><rect fill="white" height="105.67906427040562" width="106.74524027076961" x="0" y="0" /><path d="M25,25 m0.0,0.0 m30.53041336054545,0.6144762984489395 l0.01921471928703962,0.49833125881323714 -0.5918230699420499,2.2374943790288793 l-1.974831108145026,3.556147776680242 -2.7027353444024147,4.049728037116704 l-3.6396044279496502,4.632328215093057 -3.5122622457551347,3.8726300086762535 l-4.05660514201124,3.8434346092051745 -4.583445287792826,3.7600686001481862 l-3.955951944289142,2.7649754810821667 m25.75367466012489,-25.930270331237768 l9.37975783095705,8.970870784166392 10.135725778158122,11.358207695851505 l2.9777621099759637,2.643074119547786 2.965950382008592,1.77856246799394 m-35.171485269990676,-4.124010515382712 l2.8545283928984735,0.18457040197123678 11.602032948572013,-1.4922689652162875 l3.387217622335324,0.03541768803034598 m-23.32128538139952,12.30747673052531 l2.075571128085261,0.25778046043287656 1.8635884712232689,-0.07360715784843579 l19.875912190659257,-2.336403221761541 4.020189010656401,-0.07647698756883392 m-15.684016935525468,-7.43520570577084 l0.598659888009617,0.8561143303828581 0.3808645798725789,1.608606358429031 l0.02312742329470597,24.269276191718543 m-13.744899022031243,-10.389468606150347 l2.8745114064622688,3.7837252952713993 2.3018558751291187,4.166624492117485 m20.258735684728055,-9.825510708128494 l0.02261459445511724,1.7688445238575314 -0.6493310224815132,1.2666360790935098 l-2.347368468259148,3.0174243924524804 -3.068679020908119,3.1494485027800754 m-28.396153783058086,5.720954269703449 l3.0379429296338887,0.3890570208522671 2.612704611796806,-1.2662703930121924 l13.324955893231724,-3.7387481586302673 18.12972643492722,-1.884851152934296 l3.5275161375882083,0.2742399681604542 " fill="none" stroke="black" stroke-width="1" /></svg>