<?xml version="1.0" encoding="utf-8" ?>
<svg baseProfile="full" height="119.68594265486384" version="1.1" width="128.26606999965634" xmlns="http://www.w3.org/2000/svg" xmlns:ev="http://www.w3.org/2001/xml-events" xmlns:xlink="http://www.w3.org/1999/xlink"><defs /><rect fill="white" height="119.68594265486384" width="128.26606999965634" x="0" y="0" /><path d="M25,25 m0.0,0.0 m18.32355067466621,17.58390456259121 l0.2878957098223387,0.26183896041043153 0.35568490966570177,2.4711479788515534 l-1.2140648145763215,23.57727779342039 -0.9150529918212833,3.83637066676766 l-1.3104907346759282,3.0080450425697083 -1.9435795460074439,3.0211645491628913 l-2.304944052357335,2.6522301802023995 m7.851378415378425,-37.8521585485005 l11.639464403059938,-1.5399053453680844 1.5496008863474022,0.4366088490768014 l0.48089151251343526,0.9508053556010273 -0.5806913985576186,35.60597726027996 l-0.472691572351997,1.0032664461310858 -0.6690500631630909,0.3700587464766349 l-0.8075834244727628,-0.08377103672376987 -2.962997835577991,-1.8240620276935118 m-7.556183146038123,-24.38840860483684 l7.7756495416128395,-0.7457261711868568 m-8.183490643667199,9.8369112513076 l7.97183650793572,-0.6519469976953546 m10.818933177191232,-10.284812045439606 l3.8764606601506557,0.2891026611454464 16.16868613966057,-1.8393845221802765 l8.452847161360488,-0.6552150279038035 5.918782355793928,0.21538368321269113 m-19.3512604213209,-12.79720504264731 l1.2208510626304285,1.0951539026601913 0.34474623619923905,1.0471920760835336 l-0.10219979622490512,40.5314720568652 m-0.1070086605740007,1.2819729424236477 l0.6401529166977118,0.21789129408742106 1.47332731564117,0.5865420831071669 l3.81888637551998,0.08088352247791118 9.514801663832321,-0.5337767099533783 l2.6392720569388888,0.06445586228011878 m-29.0699581145772,-28.810866161764636 l0.7055880221754025,1.0753884417638897 0.2585478041342496,1.722237292220137 l0.2463538306570031,37.85104564705926 0.9997854848132965,0.6493280428987245 l12.895983733533285,0.1422365827792059 16.00301845389107,-0.20337952967532608 l3.584340203797507,0.43066669251919887 " fill="none" stroke="black" stroke-width="1" /></svg>