<?xml version="1.0" encoding="utf-8" ?>
<svg baseProfile="full" height="111.12882955214813" version="1.1" width="125.69903016704916" xmlns="http://www.w3.org/2000/svg" xmlns:ev="http://www.w3.org/2001/xml-events" xmlns:xlink="http://www.w3.org/1999/xlink"><defs /><rect fill="white" height="111.12882955214813" width="125.69903016704916" x="0" y="0" /><path d="M25,25 m0.0,0.0 m13.409628464900058,3.7179953806705583 l0.3857199733385451,0.4320531717503488 0.6146265409196447,1.2482101612926961 l2.160211203401815,4.085108857127688 1.7273966936398757,8.6497914395071 m-2.4790773540885955,-14.787275557839235 l29.630020587881106,-2.716403385715972 7.568131900013566,-0.46854529556583235 l1.708902930404206,1.2614986482722186 0.06580004987827824,7.621389764163498 l-1.4000438465468323,7.408042425954437 m-33.07067762042285,-6.348662426344333 l23.8236843411063,-1.7236895342459357 m-22.705891551830003,8.530228922631933 l31.495707846960194,-2.377002316264096 m-18.154070510473783,8.427948955865945 l0.6388805275089301,0.955882729536984 0.20146340462599105,1.0208257836776216 l0.02361174181754396,16.281717502436493 -0.5282750816439229,3.8089629752737677 l-1.385503821352873,3.8584046554090587 -2.3558369248179734,3.6508510839816477 l-3.3868791101965026,3.385306325746771 -4.298708381421348,2.955974424603459 l-5.041907866283218,2.2502148602213046 m-0.84280724988078,-37.80651574827968 l2.750836073451517,1.2147648394900352 3.6811088650180945,2.2604303760255027 l2.514975688972446,2.132875373963199 1.326508692165319,1.7467560665771238 m-13.859013566844647,12.836679355986604 l1.4167985423072795,0.312650437337358 1.244936159524871,-0.24228969437434925 l11.830952015591242,-7.177211908585291 m17.989125227582797,-16.693932619191987 l0.6119178444038198,0.9442336572196021 0.2715641785939739,1.1233628285508468 l-0.006648572571884296,26.959456412415722 0.27570275164530833,2.2136332096066993 l0.7708483761634969,1.6126675390484717 1.242464771000883,1.1111898123927004 l2.680085426840875,0.9368326457401167 5.8614742785144776,0.42353858704773906 l6.451024237323409,-0.2946176707965292 5.262138399465157,-0.576806476584365 l2.5226650494590395,-0.6807033369669153 1.9843726221087894,-1.2750763958801374 l0.7607269673531617,-1.3718976329546144 0.31035925154235294,-2.4294710643951634 m-9.770191416092244,-30.12902470279535 l-0.09565257486358206,0.9826076743687074 -0.5820134117722306,1.0786185475984784 l-2.8335710119948065,3.1794361897397208 -3.8714894981627994,3.0255821909558747 l-4.129455983990681,2.3400765543388977 m0.08556700682719881,5.621814704319342 l3.096631871435369,1.642259951872397 3.9307538684913115,2.80237118169551 l3.194639997760581,2.9870195870904834 1.442293561955615,2.0431638176074047 " fill="none" stroke="black" stroke-width="1" /></svg>