<?xml version="1.0" encoding="utf-8" ?>
<svg baseProfile="full" height="118.57573861917251" version="1.1" width="97.11775993450333" xmlns="http://www.w3.org/2000/svg" xmlns:ev="http://www.w3.org/2001/xml-events" xmlns:xlink="http://www.w3.org/1999/xlink"><defs /><rect fill="white" height="118.57573861917251" width="97.11775993450333" x="0" y="0" /><path d="M26.10044821199547,25 m0.0,0.0 m13.503930189399457,5.466037645020126 l0.05979786710808035,0.4615128360674389 -0.3178114341796334,1.7481125546383263 l-0.8418687119548716,2.143927658150329 -3.7571804125894586,6.848230345295871 l-4.616313713693751,6.69647200551394 -5.131001996085292,6.544334184387137 m9.922598143699423,-11.661502662689538 l0.5674228806220714,0.796071791992937 0.27220217416028786,0.9951808230022408 l0.01837364352885759,28.525904745741578 m20.405350854273774,-41.44215557028909 l0.4792282355896455,1.0187372464575772 0.14657082435320468,1.4445873667330145 l-0.39955002850613686,37.33331221647392 -0.19317161331623964,0.8018455417013803 l-0.32648793258501907,0.3715535449417074 -0.4317488804687475,0.09073565578306013 l-0.9651824602683073,-0.5228094063817714 -2.030393414180706,-1.9483910467886059 m-3.7732389993949735,-18.257459312489893 l-0.2725863568038143,1.8649935281326935 -1.8893026848936438,4.512686382281324 l-2.1445817694195695,3.949014457849931 -2.281957208663839,3.3218735107855295 m22.804387747889447,-13.770192313614404 l1.9967617709965675,1.772214661789411 2.3954412083715004,2.885449743934502 l1.882509336742676,3.0247211585217606 0.9351144627768463,2.502144118397799 m-6.016806078667676,1.2617950678829715 l-0.3819383874765823,2.7258627109336198 -2.0237212998625176,4.8548565599602655 l-3.0493962739503613,5.019360540613376 -3.12742039104131,4.104018762238912 l-3.5747219338334637,3.905812926868594 -4.094285970835769,3.7097628955291326 l-4.437015220665172,3.226347168239967 -4.1774532873098265,2.2507785755654486 " fill="none" stroke="black" stroke-width="1" /></svg>