<?xml version="1.0" encoding="utf-8" ?>
<svg baseProfile="full" height="117.76327944194941" version="1.1" width="101.70512844356671" xmlns="http://www.w3.org/2000/svg" xmlns:ev="http://www.w3.org/2001/xml-events" xmlns:xlink="http://www.w3.org/1999/xlink"><defs /><rect fill="white" height="117.76327944194941" width="101.70512844356671" x="0" y="0" /><path d="M25,29.211370997788265 m0.0,0.0 m7.946451938294119,14.56662642658259 l0.5459059409220275,0.11789268435604408 3.7286479732929405,0.07016244424698431 l15.909994771218003,-2.2254550704105527 16.75764156634666,-1.391229288721415 l3.622595794964271,0.3364043653947584 m-31.349204369311103,-12.449129734418984 l0.6874419615194449,1.3774804544892782 0.2779614597409456,1.3740425790714985 l1.2906894370580158,24.507868606972732 m15.809404278202134,-30.496034465351197 l0.4047355246146189,1.3437791148702685 0.07728868807898251,1.3000106223524943 l-3.1364642274613317,26.01102564197354 m-30.942788015024657,2.6474438950637746 l1.541145902778977,0.4323079582833881 2.429633504734873,0.0828898092173098 l22.676479744334415,-2.514373869449569 14.991938458116998,-1.3384615063008654 l5.0038960855030075,-0.18715039171330092 3.431732025643354,0.4665877373805984 m-38.7549559233912,10.047545250439624 l0.6050631562396821,1.3564047169542528 0.1338242501161145,1.5135018482993052 l-0.018911379518885784,26.376768315069807 m0.440316370020128,-28.219043347738115 l20.42295576333623,-2.193387258403463 0.90787330296671,0.09821970740691613 l1.166019464061391,0.6800049750364656 0.6404453033442964,1.288163322882418 l0.13963771809172806,0.8819349769794366 0.015217427021234423,27.689107923345116 m-22.81769364893217,-16.66538323920185 l22.19420726429846,-1.8438190153167324 m-22.159230396144828,15.634988783825055 l22.17901702532105,-1.5559465134099892 " fill="none" stroke="black" stroke-width="1" /></svg>