<?xml version="1.0" encoding="utf-8" ?>
<svg baseProfile="full" height="109.49251513928175" version="1.1" width="109.22972978441976" xmlns="http://www.w3.org/2000/svg" xmlns:ev="http://www.w3.org/2001/xml-events" xmlns:xlink="http://www.w3.org/1999/xlink"><defs /><rect fill="white" height="109.49251513928175" width="109.22972978441976" x="0" y="0" /><path d="M25,25.00000243568394 m0.0,0.0 m28.89272928237915,-2.435683938983857e-06 l0.01695693819783628,0.5116626247763634 -0.7981620728969574,3.2224425673484802 l-2.1828053891658783,4.282386302947998 -3.3689171075820923,5.167891979217529 l-3.466123044490814,4.4927772879600525 -4.0839797258377075,4.581327736377716 l-4.637920260429382,4.457490146160126 -5.129942297935486,4.1199323534965515 l-4.13258284330368,2.7410736680030823 m27.95269012451172,-29.827566146850586 l9.394018650054932,9.651347994804382 10.37373423576355,9.893696904182434 l5.918907523155212,5.179876089096069 4.481125771999359,2.8863829374313354 m-39.0101957321167,-5.454183220863342 l0.5507779866456985,0.9787170588970184 0.1737722009420395,1.2210660427808762 l-0.10541129857301712,7.004817724227905 -0.4675121605396271,5.527421236038208 l-1.0560324043035507,5.470162630081177 -1.4277951419353485,4.163874983787537 l-1.4900466799736023,2.9141798615455627 -2.643534541130066,3.500078320503235 l-2.5406694412231445,2.2656966745853424 m26.461312770843506,-35.77177286148071 l0.6055395677685738,0.9777183085680008 0.21942069754004478,1.7493735253810883 l0.020452355965971947,33.58464241027832 " fill="none" stroke="black" stroke-width="1" /></svg>