<?xml version="1.0" encoding="utf-8" ?>
<svg baseProfile="full" height="110.75769989658609" version="1.1" width="99.20245738057321" xmlns="http://www.w3.org/2000/svg" xmlns:ev="http://www.w3.org/2001/xml-events" xmlns:xlink="http://www.w3.org/1999/xlink"><defs /><rect fill="white" height="110.75769989658609" width="99.20245738057321" x="0" y="0" /><path d="M25,25 m0.0,0.0 m19.68486180618814,2.8976660259329714 l0.046390147168470286,0.5949890834284934 -0.04276495723961212,1.9634341889274178 l-0.4735658835139679,2.664630729438565 -2.4405695943295247,8.349586522126511 l-3.2242461647717358,7.750268052928255 -4.059531154665795,7.661778861182771 m7.584702319635226,-12.298021314517994 l0.361850630439962,0.9835090300740019 0.17904491827687777,1.3003811950843247 l-0.003117020509553935,35.31192487611508 m15.062645064988658,-50.895347032605976 l2.0091314739966593,1.9154420595563095 1.0747771305359153,1.904408691696074 l0.4248233337976107,1.271539263229758 m-12.656139645301309,6.950139806227181 l1.6724466247692698,0.289995164467164 1.4567342434246424,-0.17667140657105035 l11.600147615726685,-1.9246984483950254 6.630906313750026,-0.8265857753573685 l2.5798445032591553,-0.11815451458053162 1.734085674947399,0.3351191429719475 m-20.553258781121254,3.125139806246071 l0.49492930509387245,1.9272176461408177 0.18225093904521802,5.096801117209725 l0.029514009666967607,7.295027662008016 -0.4283530590196439,7.163225398146806 l-0.6812061341329748,4.787454152784246 -1.0221321286528466,4.233788266129859 l-1.4983114797444774,3.9685222016631228 -1.914659619859428,3.1475122057756453 m14.940530401438062,-33.87252510733246 l0.3956136650892257,1.2586882972098234 0.025939209118512278,1.9202943459017334 l-0.30734488705664587,33.607088120187335 -0.4061426871110831,0.9184591079416177 l-0.503008407684505,0.27567247521486027 -1.140440589933231,-0.21419178295961758 l-1.86455317692731,-1.8973370018278997 " fill="none" stroke="black" stroke-width="1" /></svg>