<?xml version="1.0" encoding="utf-8" ?>
<svg baseProfile="full" height="109.49251140933484" version="1.1" width="108.9668470993638" xmlns="http://www.w3.org/2000/svg" xmlns:ev="http://www.w3.org/2001/xml-events" xmlns:xlink="http://www.w3.org/1999/xlink"><defs /><rect fill="white" height="109.49251140933484" width="108.9668470993638" x="0" y="0" /><path d="M25,25.000001778826118 m0.0,0.0 m4.239748120307922,10.098176002502441 l0.5145115032792091,0.12505949474871159 4.292685687541962,0.24204345420002937 l23.43782663345337,-1.877967119216919 13.077223300933838,-0.7822649925947189 l9.012914896011353,-0.21551914513111115 4.391936957836151,0.3603188693523407 m-43.67837905883789,8.455250263214111 l0.5845514684915543,0.47584015876054764 0.5080386996269226,1.3297633826732635 l1.5246139466762543,7.209136486053467 m-0.9652899950742722,-8.481805920600891 l28.824927806854248,-2.3813170194625854 1.1415517330169678,0.8232184499502182 l0.17028672620654106,0.702391192317009 -1.8307481706142426,5.777798891067505 m-26.72538995742798,2.216050922870636 l26.587135791778564,-1.9211405515670776 1.6527438163757324,0.09250834584236145 m-33.52358102798462,8.885447978973389 l3.7708714604377747,0.6151317432522774 27.66345977783203,-2.008628100156784 l2.6044240593910217,0.35559389740228653 0.8461225032806396,1.0409730672836304 l0.09418880566954613,0.817907378077507 -3.0347883701324463,12.503293752670288 m-40.619192123413086,-5.0906771421432495 l3.824978470802307,0.3814750537276268 39.501872062683105,-2.6391538977622986 l6.506745219230652,-0.30858244746923447 4.213019907474518,0.2956211194396019 m-45.37792682647705,10.32475233078003 l3.399095833301544,0.2719753608107567 21.391067504882812,-1.9377583265304565 l5.883356332778931,-0.288686603307724 2.4689915776252747,0.16663016751408577 m-15.965126752853394,-45.63285827636719 l1.0529229789972305,1.4768140017986298 0.3135823458433151,1.9355593621730804 l-0.12480276636779308,54.40345287322998 -0.3316110000014305,1.1120087653398514 l-0.5115240439772606,0.5234739929437637 -0.6575789302587509,0.041202413849532604 l-1.6192176938056946,-0.9397304803133011 -2.6834267377853394,-2.3733918368816376 " fill="none" stroke="black" stroke-width="1" /></svg>