<?xml version="1.0" encoding="utf-8" ?>
<svg baseProfile="full" height="105.30898916985532" version="1.1" width="96.79328678526898" xmlns="http://www.w3.org/2000/svg" xmlns:ev="http://www.w3.org/2001/xml-events" xmlns:xlink="http://www.w3.org/1999/xlink"><defs /><rect fill="white" height="105.30898916985532" width="96.79328678526898" x="0" y="0" /><path d="M25,25 m0.0,0.0 m13.175535891084197,23.69964433314949 l0.4835214071930723,0.09222559229585593 3.1832171999274106,0.08492875151773858 l25.62922812268186,-2.390298792143347 4.321784164382439,-0.2142994840905757 m-18.450844451835486,3.3429845519154946 l-0.1463549575763475,1.2893542021904214 -0.3970389144564281,1.2747537275860759 l-4.188435098984771,12.840435102491812 -4.592697090289785,5.1906000710075 m-8.072484074262535,-10.438859273890206 l1.327761330346479,1.151013260991205 0.6652555480051934,0.9763146464352142 l2.1839181276726025,12.323520350901967 1.5974176723325513,6.086672129496662 m-3.5225939184195334,-18.874340930292217 l25.772166111365458,-2.2662666127797992 3.2673383218233725,-0.09886316982883954 l1.1844353606098192,0.2248612667207845 0.9457724276746373,0.660460272702539 l0.3867040413272892,0.8575868536038874 -1.498909512515122,8.46334086488679 l-1.4791198807092072,7.891759010035124 m-25.563716787609774,1.8356228257478535 l25.830579276015577,-1.3811838755532209 " fill="none" stroke="black" stroke-width="1" /></svg>