<?xml version="1.0" encoding="utf-8" ?>
<svg baseProfile="full" height="112.31147092030353" version="1.1" width="102.95371246815216" xmlns="http://www.w3.org/2000/svg" xmlns:ev="http://www.w3.org/2001/xml-events" xmlns:xlink="http://www.w3.org/1999/xlink"><defs /><rect fill="white" height="112.31147092030353" width="102.95371246815216" x="0" y="0" /><path d="M25,25.07318791720009 m0.0,0.0 m27.556651913501586,-0.07318791720009239 l0.5090617608026335,0.47781329834946334 0.7111564688217055,1.7322796064537216 l-0.028645175739441524,7.220454446788947 m-22.401659320041823,2.505886478904316 l2.502246909288224,0.37626924343109724 2.904135344048516,-0.07964828189794101 l35.09299158439249,-3.5023453426686184 3.4214438509242564,1.4234876222862618e-05 l2.6863291321540177,0.41507953315965107 m-34.56102571514662,3.659301068193278 l0.6075045202201951,0.780888088771235 0.2596522743074231,1.1587177911228157 l0.049420893114103005,7.854051268987581 0.46352682245975524,6.017738594217188 l1.2508023228513965,3.7929971732031302 2.0137884026170414,2.53242276830195 l2.9914835998539835,0.938461487925703 6.240650192022959,0.3684242543359132 l9.77124824370444,-0.19556210804174237 5.313397904875498,-0.650896742516916 l3.3580343087938425,-0.8590422764310737 m-32.72405826692215,2.0720814785274686 l-0.05233854952190727,2.0641617377539565 -0.6323804941560407,2.3195276672798024 l-1.4292768899898771,3.4939644651986916 -1.8968800783194857,3.5640026845801 l-4.4400172853027735,6.2056089277264475 -2.721023905804495,3.001028871233098 l-3.0279041547010443,2.8121201626639967 m24.99198998585218,-24.272905619554862 l0.6599086269731959,0.6694019954633496 0.32098909025194833,1.617304193170282 l0.03671027012872549,20.65115799301183 0.735554535313088,1.3421405577745482 l1.8761949852199507,1.413361418960955 3.106144722064084,0.683244148064451 l7.18315188519709,0.13196565298350665 4.608445618803629,-0.3786136076964285 l1.6207039782841086,-0.5397402141800979 1.800650839469246,-0.9045154807209494 l0.9484820111636166,-1.1294303413683189 0.448363566915322,-1.587685831041817 l0.1559837099608359,-2.7738641056528337 " fill="none" stroke="black" stroke-width="1" /></svg>