<?xml version="1.0" encoding="utf-8" ?>
<svg baseProfile="full" height="105.63286467799853" version="1.1" width="124.62349948362699" xmlns="http://www.w3.org/2000/svg" xmlns:ev="http://www.w3.org/2001/xml-events" xmlns:xlink="http://www.w3.org/1999/xlink"><defs /><rect fill="white" height="105.63286467799853" width="124.62349948362699" x="0" y="0" /><path d="M25,25 m0.0,0.0 m35.5253551926664,12.902689598440633 l0.5943687337888982,0.361296465680849 0.6685253205682292,1.1826298627785654 l0.004775930938561446,8.13751173667192 m-19.709164819282137,-5.169862444858025 l0.6765268292439138,1.2182632535789166 -1.4287189287184117,4.985850608217353 l0.11454927589830276,0.6313822004520392 0.6731272100454634,0.24779267938291305 l21.953508175667846,-1.53754971683068 18.410670677902925,-1.0208581755060966 m0.6792226415779771,-7.825252529489243 l0.6516388825914294,1.700314621001621 -1.0923778669475692,7.744139428807052 m-37.385401186719726,3.820225604101878 l0.7829777628128977,1.2896162519067471 0.07623064798501421,1.080839117537649 l-0.5996976318969425,5.857466226861765 -0.8359332263887188,4.085765932404375 l-1.1359238950558992,3.096549465755053 -1.6277271275150644,2.852191283258106 l-2.2081320257139527,2.0927318818045704 -2.9720957351511257,1.9855215230762437 l-3.261721441145007,1.4789217577788867 m12.298272162316694,-23.651894476933858 l24.085220299704623,0.26489224806414235 25.484962508029238,-0.4144505489690466 l2.204414981124766,-0.04935480247890065 1.9960461352983427,0.22317234159082008 m-44.01272514975635,8.190048812508438 l13.233228422741643,0.2982101486543278 7.951856871498905,0.6699606838850345 l5.800487941226017,0.8459101817055292 2.086776212078783,1.1222221005819122 l0.4918360563583145,1.093335432145356 -0.7587920989828972,7.033164054371343 l-1.2075667090315338,4.226941935149273 -1.5210132594136334,2.6443308878270564 l-1.6492733786737426,1.5398320551021354 -1.7962565921152236,0.398366991981869 l-1.6248462738211316,-0.4369504572342886 -2.272022536063958,-1.5334021683817767 m-5.639598579898033,-15.199662755940256 l-0.36534427138511016,1.3010976326892183 -2.0894922835102956,2.1160634454616503 l-5.224868658176165,2.783088234784251 -7.545358335339709,2.8856640979758446 l-10.773537956759277,2.8736431802640436 m30.37047661459831,-10.293210578887582 l4.863922254345323,2.280919463175282 5.194956472451127,2.9718857598053203 " fill="none" stroke="black" stroke-width="1" /></svg>