<?xml version="1.0" encoding="utf-8" ?>
<svg baseProfile="full" height="109.49251612648368" version="1.1" width="108.16990129649639" xmlns="http://www.w3.org/2000/svg" xmlns:ev="http://www.w3.org/2001/xml-events" xmlns:xlink="http://www.w3.org/1999/xlink"><defs /><rect fill="white" height="109.49251612648368" width="108.16990129649639" x="0" y="0" /><path d="M25,25.000003621888425 m0.0,0.0 m21.00865125656128,-3.6218884247318783e-06 l0.6882327795028687,0.27960607782006264 5.144973397254944,3.0716121196746826 l2.313155233860016,2.030784487724304 0.943324938416481,1.3219082355499268 m-22.12961435317993,12.385978698730469 l3.293343186378479,0.08024909533560276 31.090281009674072,-3.8951781392097473 l4.391123950481415,-0.2718418091535568 2.3695555329322815,0.38743045181035995 m-39.06891584396362,22.542481422424316 l3.7747743725776672,0.17365943640470505 28.59539031982422,-3.3872517943382263 l3.8927361369132996,-0.20444294437766075 2.2397975623607635,0.24730484932661057 m-48.31711292266846,24.630403518676758 l4.415822625160217,0.09981242008507252 28.154139518737793,-3.050876557826996 l12.465602159500122,-1.0698573291301727 8.63627016544342,-0.35067111253738403 l4.268370270729065,0.702471137046814 m-30.198194980621338,-37.228710651397705 l0.8574340492486954,1.30458265542984 0.652245283126831,1.9043441116809845 l0.1887473650276661,33.72377395629883 " fill="none" stroke="black" stroke-width="1" /></svg>