<?xml version="1.0" encoding="utf-8" ?>
<svg baseProfile="full" height="95.71171956260847" version="1.1" width="116.0665557470107" xmlns="http://www.w3.org/2000/svg" xmlns:ev="http://www.w3.org/2001/xml-events" xmlns:xlink="http://www.w3.org/1999/xlink"><defs /><rect fill="white" height="95.71171956260847" width="116.0665557470107" x="0" y="0" /><path d="M25,25 m0.0,0.0 m14.870891159253327,3.8976707348899025 l0.048853835268564266,0.5666331888877874 -0.14052662892174198,1.287899482892905 l-0.5282168568312096,1.324816407918049 -3.405064873300119,6.489842540696416 l-3.347432313999571,5.3230180845007276 -4.159044756465484,5.386164938228293 m8.349947815142535,-9.08822845915768 l0.5887696622683586,1.5628903687925666 0.03306260249223697,26.828309668590176 l0.10744528604155326,1.9433298450131027 0.2891099015849172,0.1893727613562112 l0.6203656646583701,-0.3584957864516832 6.307898951003821,-1.4668805808566665 l6.005043781389175,-0.9017866466959813 1.7774716479267139,-0.18798728274276524 l1.634661855432726,-0.3453913288308291 1.3303540852023166,-0.7308272689650186 l0.9574918676373732,-1.4275780017687985 0.1947873313037439,-2.79966829147304 m7.129218511313442,-35.786032413608325 l0.6742717762234355,1.247083398494299 0.1020328263621661,1.157200739500837 l-2.36055968555322,16.796148148518952 -2.9470570600682366,5.901528961190561 l-2.9342853270140776,3.167470534820267 m7.9281727180423465,-21.925599339062124 l11.524397211636268,-0.5075576005521445 9.633366213606608,-0.7416055007367778 l2.750827241689694,0.11652241831103301 1.8459523893098964,0.2853094067903423 m-13.473559181528078,2.6432821031830835 l0.6079498960131197,2.057392463605365 0.06658054005359061,4.094417367158941 l-0.521398767816294,22.377709738062727 -0.4591048729598371,0.865165540263237 l-0.6489080218455853,0.240229442581104 -0.759097236247013,-0.15775322663764235 l-2.917154302194832,-2.21814947840098 m-5.649663614895187,-16.799928629212896 l0.003212427404971946,1.4119546447774016 -0.3481052772641455,1.5592929119377679 l-1.9093277394768493,4.589181102290246 -2.199649186322675,3.786005728601923 l-2.7967988945599935,3.425230023642514 m24.942183166693244,-14.843082922376496 l1.9828506498595921,2.487054281489184 2.436612078080603,4.041538032171832 l1.8236338267772458,3.9016956109188374 1.0040934246028814,3.2785328063910804 " fill="none" stroke="black" stroke-width="1" /></svg>