<?xml version="1.0" encoding="utf-8" ?>
<svg baseProfile="full" height="106.39423125216507" version="1.1" width="114.93731751872808" xmlns="http://www.w3.org/2000/svg" xmlns:ev="http://www.w3.org/2001/xml-events" xmlns:xlink="http://www.w3.org/1999/xlink"><defs /><rect fill="white" height="106.39423125216507" width="114.93731751872808" x="0" y="0" /><path d="M25,37.984477518722436 m0.0,0.0 m10.722090388263647,6.785350463413982 l0.5135827413194493,0.435421151112879 0.7153411200927935,1.1784229952912093 l2.4794616155144285,1.676079300716419 3.121329015803369,1.9809547261489198 l1.6928344076507658,1.5551468602195795 1.1925365135645927,1.4782962632035326 m-10.503686530385359,23.762925771203285 l1.1883425819366005,0.3818395453547283 0.9955680227797294,-0.586122513713271 l5.054202148320927,-11.098591287831205 4.1628579655651965,-7.907768836816523 m7.766662703572076,-16.015985815825363 l0.6418304943533043,1.075301933827332 0.30246149777443876,2.058678627552504 l-0.07257925611098215,7.175648085438065 -0.7544833051140365,8.607927662293703 l-0.899729342079459,5.086462092452136 -1.218115566446448,4.632374688118925 l-1.5920516431743554,4.163542915494696 -2.156519552567824,4.046289885469128 l-2.1561359407249445,2.9375592203179735 m9.323524727761173,-40.574853195488195 l12.952670212232059,-2.720956666592865 8.87758610169004,-1.4469305214938881 l5.3430642173507765,-0.2669882525894804 2.0384143489698476,0.2995842844616116 l0.7589701211671926,0.4654894871313042 0.228888346498794,0.6184561417457788 l-0.22638148757306986,0.804134388243552 -1.3322313857575232,1.8969349048746402 l-2.454554488936652,2.3561385423205268 m-13.69042139568382,-17.825240364778054 l0.9178150330641514,1.3977223246991102 0.32281561471104736,1.4699955558023658 l-0.08804340121840001,26.319491407619456 m-24.758588026125967,1.6063244691779321 l3.018808979580617,0.4141606928024194 18.105990992844845,-1.9171212096933277 l19.270466500692734,-1.3097346542235158 2.722989943054869,0.45202973949678044 l2.4097324844974506,0.6828293777945167 " fill="none" stroke="black" stroke-width="1" /></svg>