<?xml version="1.0" encoding="utf-8" ?>
<svg baseProfile="full" height="108.25881248143615" version="1.1" width="90.85611625944564" xmlns="http://www.w3.org/2000/svg" xmlns:ev="http://www.w3.org/2001/xml-events" xmlns:xlink="http://www.w3.org/1999/xlink"><defs /><rect fill="white" height="108.25881248143615" width="90.85611625944564" x="0" y="0" /><path d="M25,25 m0.0,0.0 m16.05731974976365,3.665691659396393 l0.058107711340397404,0.5728451116058497 -0.20428421777332972,1.7837943357137132 l-0.5332867768819806,3.2439907822303105 -1.8601334509619023,8.501858048477304 l-2.0928595617822086,7.349649104814226 -2.66590076088636,8.117503547748928 m4.557904345770291,-12.570334425498553 l0.29464051772366634,1.055504433580504 0.09032632487045773,1.3976399763511085 l0.01124740705837924,35.14066990701637 m12.090887317830537,-53.467670223041864 l0.3497393433001436,1.182942825975988 0.059196099479238755,1.213470287833751 l-0.51156104394043,22.638274999989445 -0.8661590885834883,6.331273583645962 l-1.3632209548652097,5.2894481520787515 -1.9612682022638313,4.6919964648776125 l-2.2472230255822567,3.9785954465748534 m0.7607733066907588,-33.461786753746004 l1.1520324379520157,0.21130488304398987 1.4152877472963856,-0.13174686152102885 l10.658979345325003,-3.7666415415978505 0.7221359059745741,0.2462061068180719 l0.16702955985315518,0.5077797838618489 -0.04706335135857602,0.8786013669659406 l-1.5559919740846269,22.930422433466408 0.7700948166082409,2.969883181044042 l1.1597550206389826,0.8398913162453189 1.8331300329195244,0.3320302565407961 l2.1461446102223127,-0.13004745197556572 1.211322931481408,-0.3545820874487369 l0.619514320628927,-0.5753327799425716 0.3540675144237557,-0.8639753461000445 l0.1890100558243069,-1.9427092443254446 0.036422245433726366,-2.824890042446501 " fill="none" stroke="black" stroke-width="1" /></svg>