<?xml version="1.0" encoding="utf-8" ?>
<svg baseProfile="full" height="109.15834836661816" version="1.1" width="109.4925134931691" xmlns="http://www.w3.org/2000/svg" xmlns:ev="http://www.w3.org/2001/xml-events" xmlns:xlink="http://www.w3.org/1999/xlink"><defs /><rect fill="white" height="109.15834836661816" width="109.4925134931691" x="0" y="0" /><path d="M25,25 m0.0,0.0 m20.972471237182617,2.5457364320755005 l0.5150566250085831,0.6356663256883621 0.635429322719574,2.1569420397281647 l0.03502671839669347,3.7828972935676575 -0.7628422975540161,13.359613418579102 l-1.5449802577495575,8.985803723335266 -2.3659227788448334,7.6355814933776855 l-3.177952468395233,6.437069773674011 -3.9793625473976135,5.387992858886719 l-4.771290421485901,4.489109218120575 -5.555632710456848,3.7419357895851135 m2.422814220190048,-36.1191987991333 l4.769773185253143,-0.39981603622436523 29.043428897857666,-8.53304386138916 l1.7401176691055298,-0.0008533706568414345 1.2675400078296661,1.0555247217416763 l0.2632174454629421,0.8442681282758713 -2.8217175602912903,17.06153631210327 l-1.3623826205730438,13.651655912399292 0.21124480292201042,4.613511562347412 l1.2206045538187027,3.571261763572693 1.3904254138469696,1.619887351989746 l1.256161630153656,0.8548878133296967 3.4229648113250732,1.1545157432556152 l4.814527928829193,0.3909385949373245 7.53848671913147,-0.4582659900188446 l2.1118080615997314,-0.7462252676486969 0.9341564029455185,-0.7676543295383453 l0.6258051842451096,-1.0232863575220108 0.4942912608385086,-2.0901893079280853 l0.14924505725502968,-4.002118706703186 m-49.10560607910156,-16.11770749092102 l3.941434621810913,1.697828471660614 4.255096018314362,2.846086025238037 l4.049149453639984,3.7817594408988953 2.7531635761260986,3.4969237446784973 " fill="none" stroke="black" stroke-width="1" /></svg>