<?xml version="1.0" encoding="utf-8" ?>
<svg baseProfile="full" height="108.67056338349357" version="1.1" width="109.49251282960176" xmlns="http://www.w3.org/2000/svg" xmlns:ev="http://www.w3.org/2001/xml-events" xmlns:xlink="http://www.w3.org/1999/xlink"><defs /><rect fill="white" height="108.67056338349357" width="109.49251282960176" x="0" y="0" /><path d="M25.000000298023224,25 m0.0,0.0 m0.589061938226223,7.564671635627747 l0.5998709052801132,0.12155741453170776 5.748557448387146,0.26754505932331085 l25.260016918182373,-2.841646373271942 12.468870878219604,-1.081702634692192 l9.912470579147339,-0.38994908332824707 4.913663864135742,0.3865736722946167 m-32.51476049423218,15.626901388168335 l3.0348891019821167,1.1184688657522202 5.100485682487488,0.716678574681282 l6.82691752910614,0.5333749204874039 7.203376293182373,0.01638485351577401 l1.3281598687171936,0.5676784366369247 0.5379487201571465,1.110728681087494 l-0.25597862899303436,1.6796384751796722 -2.160942554473877,6.2379539012908936 l-3.8937073945999146,9.427648782730103 -3.8426917791366577,7.130898833274841 l-4.6065157651901245,6.696036458015442 -2.2805647552013397,2.5141802430152893 l-0.9703483432531357,0.7159748673439026 -1.6507883369922638,0.5509664118289948 l-0.7001425325870514,-0.08435134775936604 -1.1993899196386337,-0.6871248781681061 l-2.2925271093845367,-2.865307033061981 m0.3602743521332741,-46.92573547363281 l0.18972454592585564,1.4030997455120087 -0.19727790728211403,2.0986685156822205 l-1.7585363984107971,6.137329936027527 -2.916322350502014,6.812844276428223 l-4.1255635023117065,7.586871385574341 -4.1093796491622925,6.195030212402344 l-4.776449799537659,5.950155854225159 -5.395671129226685,5.373858213424683 l-4.426730573177338,3.454974591732025 " fill="none" stroke="black" stroke-width="1" /></svg>