<?xml version="1.0" encoding="utf-8" ?>
<svg baseProfile="full" height="115.71159940530252" version="1.1" width="100.21921396669322" xmlns="http://www.w3.org/2000/svg" xmlns:ev="http://www.w3.org/2001/xml-events" xmlns:xlink="http://www.w3.org/1999/xlink"><defs /><rect fill="white" height="115.71159940530252" width="100.21921396669322" x="0" y="0" /><path d="M25,25.10863510642881 m0.0,0.0 m23.883614339731245,-0.10863510642881107 l0.5099843453280262,0.23560676125527 1.9483829623418638,1.8142207776315238 l1.7912244624717755,2.3805861924005223 1.4977147475401176,2.4645317003820897 l0.8537101555693685,2.0701576012106306 m-21.524169918843334,7.019268730958371 l3.042697362705402,0.4475344493640962 27.314661834496086,-3.865769085411408 l4.042564177022796,-0.20566191654771365 2.9230228039907837,0.44537602504446383 m-31.122122805741466,3.9373913022151172 l0.5356005898268876,2.0562355817762312 0.0939425903182706,8.005236197969145 l0.6402612144188061,1.7590897782645567 1.1800456673709174,1.3299672970922938 l2.415617772331536,0.7999025094756975 6.793097075082502,0.33640955527183414 l8.93407902815348,-0.28380456938061704 4.785514388703543,-0.8114403926814954 m-34.10011775088899,15.17251613996443 l-0.3597568119968972,2.344373637859009 -0.8721483119579795,3.4465147243853202 l-1.2710025608217783,3.7400693337349233 -1.333644825060605,2.94152757675118 m10.469134947402878,-15.205074922713795 l2.4151896274402938,5.512139894670287 3.1224132083797183,4.623072821452122 l2.219426396474646,3.2520201359985106 1.2423072285809225,2.407798225521975 l3.228367877720779,3.3639008057941897 2.9895442302568784,1.9165157856687998 l3.5127669065953064,1.2969572090078407 4.054502947128928,0.7730095488323396 l4.419422066886676,0.19141999208482094 5.286169827059899,-0.3456226750611535 l1.6172057429853643,-0.7579554268879624 0.35866683032607355,-1.1526733761824286 l-0.5093997589943882,-1.543864050364604 -1.3282955261190337,-1.894336485529096 m-18.764453388697614,-14.538077494359413 l1.4001943774236996,3.1914846205474525 1.705885095655533,1.9954179712577915 l0.5166318806330081,-0.551510629062772 0.3349423885200963,-2.010606900458278 m12.048682084650501,-6.123236626606713 l4.2485646195061655,4.578948633722382 3.0285718247845326,4.745743343220019 " fill="none" stroke="black" stroke-width="1" /></svg>