<?xml version="1.0" encoding="utf-8" ?>
<svg baseProfile="full" height="100.48789688390323" version="1.1" width="98.6741780809136" xmlns="http://www.w3.org/2000/svg" xmlns:ev="http://www.w3.org/2001/xml-events" xmlns:xlink="http://www.w3.org/1999/xlink"><defs /><rect fill="white" height="100.48789688390323" width="98.6741780809136" x="0" y="0" /><path d="M25,25 m0.0,0.0 m8.423235749732005,4.052245667527121 l0.6025342541840905,0.10180162748378745 3.9910035745200028,0.058225144461506985 l25.742374066970836,-2.6731123250757984 3.8326040506623076,0.18047096019317746 m-41.438317890872526,19.256020250379176 l3.798327856635156,0.4298033214002935 3.7287983832229386,-0.018493702196074057 l32.56902864432613,-1.79737394411967 7.424589391532659,-0.050200509226164085 m-26.77301075420835,3.603632286982407 l-0.12529645356413938,2.1391033622539464 -1.028364956165465,2.021054647670624 l-5.797607655311583,8.169596747824501 -8.62945347810597,10.563737413489212 l-1.1261640162658018,2.092725703477675 0.1444795162838973,0.674909007247067 l0.8419628082820836,0.11883786507570114 1.5991350208005957,-0.344033109402657 l32.89581332190221,-7.061200899562166 m-4.295852415930536,-7.174239574205341 l3.1774338483517495,2.9427825680774897 3.212761070525186,4.177568615873783 l3.05411062064492,5.143498571598549 1.4769894591068282,3.880537186675095 " fill="none" stroke="black" stroke-width="1" /></svg>