<?xml version="1.0" encoding="utf-8" ?>
<svg baseProfile="full" height="125.81773769251481" version="1.1" width="103.28891347147359" xmlns="http://www.w3.org/2000/svg" xmlns:ev="http://www.w3.org/2001/xml-events" xmlns:xlink="http://www.w3.org/1999/xlink"><defs /><rect fill="white" height="125.81773769251481" width="103.28891347147359" x="0" y="0" /><path d="M31.78613237960204,25 m0.0,0.0 m14.901315674249274,6.9621114380001465 l0.49585604247822934,0.5502024126064851 0.7213054535249226,1.1356803027602553 l0.298962074773089,1.678454374290486 -1.6250716175938775,27.626269082586894 m-19.350351745345016,-14.676922990090935 l2.2885876639000187,1.9558646960734474 2.8491921473977158,3.4443191745982986 l2.459200242418179,3.6621901268872707 1.0900491846791192,2.598671433541324 m33.28998128056858,-17.18311729528966 l-0.3610031236235823,1.9643566895564326 -2.342872406710106,3.9311768034109376 l-3.5551384730178546,4.649254949455362 -4.175343288950142,4.682296033097303 m-33.77080148835059,6.85056391421031 l0.9662055145625659,0.42785516085376374 1.999380873827218,0.32960669831108746 l34.73756300322767,-2.960189862967289 11.710005793489874,-0.2036865178210126 l3.8757582863662567,0.4135522820832609 m-44.52828922497989,11.061776442360726 l0.9625439972373429,1.1871998422513985 0.3575220997632795,1.3135896864455894 l2.1487754269502153,24.41666281530294 m-1.856472198177631,-26.181508756122714 l28.930376276294965,-2.5486112039857534 1.1748800388119245,0.0159740082269364 l1.4641538787471224,0.4769909312829242 0.9002443527813762,1.0861748488582412 l0.24594353306763994,1.9553477909662456 -3.2382769539411105,23.27128223966963 m-28.62057193875963,-13.324261224385776 l14.774938851854095,-1.4428189581902546 m-14.678916456616543,13.70906006824952 l26.01814062098891,-1.6942532721093209 " fill="none" stroke="black" stroke-width="1" /></svg>