<?xml version="1.0" encoding="utf-8" ?>
<svg baseProfile="full" height="92.60519732051665" version="1.1" width="90.2286847442505" xmlns="http://www.w3.org/2000/svg" xmlns:ev="http://www.w3.org/2001/xml-events" xmlns:xlink="http://www.w3.org/1999/xlink"><defs /><rect fill="white" height="92.60519732051665" width="90.2286847442505" x="0" y="0" /><path d="M25,25 m0.0,0.0 m12.233135899818448,13.083090834324057 l0.5106093169733696,0.11281254124770666 2.8638788093712324,0.06895171925547776 l16.439786020518046,-2.201740327826261 2.5215271306744356,0.04534111445648982 l0.9474096814927833,0.3086040283513587 0.32724298389086925,0.7950021136952409 l-0.1365561576114112,0.6613013113412454 m-22.975102604665505,-3.1725170129811597 l0.47870703792649255,0.6531536173874626 0.19123615051304974,0.8173833082190824 l0.02029764863694457,17.412177192482137 m12.766003592127172,-20.693476023064953 l0.47703480865445774,0.737231299061861 0.10242892124834183,0.8507603494285069 l-0.065775025533024,17.480264119476963 m-12.378510326124978,-7.870316898631457 l12.344944059628464,-1.3097024287628656 m-12.390643638619162,6.140460477517154 l12.2636886108954,-1.123119645475517 m-24.732400117872235,6.977144405750688 l1.807268315981881,0.30725168533052866 1.8058593765074522,-0.01701037332739317 l16.672944769877336,-1.5800556428530645 12.588541665458845,-0.9093376423094732 l2.2415897578380353,-0.024714207711427044 2.0256038301971455,0.28844205513890425 m-24.104221307188922,2.2847669291562167 l-0.08768328352166818,1.1853012606613222 -0.7700445755911042,1.1157232781374804 l-1.8837190705486566,2.284287446623386 -2.0223646363368286,2.118626753035701 l-3.972036813682396,3.2342541088757675 -4.35415078234445,2.5448555745054855 m24.401962798682717,-13.584380939269614 l10.52650374373508,8.813251286482108 3.543688153242827,2.1045879333954276 " fill="none" stroke="black" stroke-width="1" /></svg>