<?xml version="1.0" encoding="utf-8" ?>
<svg baseProfile="full" height="109.2874494922821" version="1.1" width="99.74531326471931" xmlns="http://www.w3.org/2000/svg" xmlns:ev="http://www.w3.org/2001/xml-events" xmlns:xlink="http://www.w3.org/1999/xlink"><defs /><rect fill="white" height="109.2874494922821" width="99.74531326471931" x="0" y="0" /><path d="M25,25 m0.0,0.0 m15.419706058017628,5.560679446283823 l0.5656616629823117,0.1675191845571803 1.779610166072811,0.17953096660610304 l2.619103960699467,-0.2281508251966798 23.777960743037028,-3.2061686237842824 l1.2747689540958729,0.18597113147363065 0.9781157683999265,0.80951785509537 l0.31891084044087264,1.5846847700995614 -1.2387648347964348,5.576484499051145 l-2.1422710741872786,8.218132207676536 -2.4749393276746736,6.78722652513101 l-1.2710951607397996,3.049106177741326 -1.3372634993092063,2.535828187794329 l-0.838178788457093,1.4740349438819167 -2.058857298437141,1.9574717634154903 l-0.6065209938708499,-0.22801790613781547 -1.97867051992834,-2.132438258123013 m-2.281649513735364,-27.4128048768012 l0.051981266505148685,2.4421159407961155 -1.4348713685264716,4.592305219338586 l-2.045620633932526,4.879643254631163 -2.6823513027683314,4.9578528228154894 l-2.602924493716545,3.9178589209976686 -3.068895932167755,3.816465128713512 l-3.5262056053750945,3.6188383814527105 -2.8957897133098522,2.516741314567053 m7.2016600485488,-23.034376365905818 l3.745724872937375,1.8373354958218548 3.528217788425717,2.408856331093997 l2.8899712572741207,2.7317575471280935 1.8742610151120227,3.0035165691386956 m-20.958978813634605,22.97949777373861 l-0.6509583724435948,4.715860269099952 -1.7149669258757674,5.8431993054769125 m9.939064374090204,-13.870408377646216 l2.7090805875896127,4.857699541984058 3.10609695454534,4.2765278234212465 l3.9617030699642632,3.4705293662960734 3.915607757397064,2.2393878284819433 l3.305497194912044,1.176431155037794 3.840491590147262,0.7688804913467934 l4.577846837740189,0.26232658569134 2.6988400522195737,-0.3902397034486053 l1.1010461411558596,-0.9419436732294909 0.016260933264235194,-1.4355949370597716 l-1.1411201971088611,-1.7532654652450377 -1.5494024036944554,-1.6289764482353877 m-19.08245015452117,-13.781352209463142 l1.5186982521303205,2.8749481200928564 1.109817678913619,1.218901395949777 l0.9331907822382971,0.1153124798047469 0.7522169942169435,-0.3812889219061426 l0.8572889366188863,-1.8868663250565445 m12.701229689009232,-4.18256560062682 l2.041258991148858,1.5805307186863107 1.64796500754763,1.7819814412924786 l1.4324497065952069,2.187633110586254 1.1367542589368065,2.4426491860276247 " fill="none" stroke="black" stroke-width="1" /></svg>