<?xml version="1.0" encoding="utf-8" ?>
<svg baseProfile="full" height="108.9105943805771" version="1.1" width="109.49251314508729" xmlns="http://www.w3.org/2000/svg" xmlns:ev="http://www.w3.org/2001/xml-events" xmlns:xlink="http://www.w3.org/1999/xlink"><defs /><rect fill="white" height="108.9105943805771" width="109.49251314508729" x="0" y="0" /><path d="M25,25 m0.0,0.0 m27.83970594406128,5.29258131980896 l0.4349014163017273,0.5056030675768852 0.5875135213136673,1.1226043105125427 l0.3451447933912277,1.9720588624477386 0.017007197020575404,11.50850534439087 m-29.224271774291992,2.5921642780303955 l2.071041166782379,0.40045592933893204 2.8073731064796448,0.006940833409316838 l26.739366054534912,-2.360098958015442 18.818366527557373,-1.2917278707027435 l5.787879228591919,-0.19903164356946945 3.268485963344574,0.5685879290103912 m-47.941927909851074,5.755460262298584 l0.6075169146060944,0.9222255647182465 0.4256756976246834,1.9824054837226868 l0.13825353235006332,23.653669357299805 0.6843402981758118,2.512495517730713 l1.249694898724556,1.5045657753944397 2.11035817861557,1.103980541229248 l3.1895068287849426,0.7481442391872406 4.487658441066742,0.43740183115005493 l6.005157232284546,0.17160240560770035 13.59679102897644,-0.3844510391354561 l5.299520492553711,-0.7465922832489014 4.410058856010437,-1.1226043105125427 " fill="none" stroke="black" stroke-width="1" /></svg>