<?xml version="1.0" encoding="utf-8" ?>
<svg baseProfile="full" height="100.6199139370682" version="1.1" width="102.02532718546651" xmlns="http://www.w3.org/2000/svg" xmlns:ev="http://www.w3.org/2001/xml-events" xmlns:xlink="http://www.w3.org/1999/xlink"><defs /><rect fill="white" height="100.6199139370682" width="102.02532718546651" x="0" y="0" /><path d="M25,25 m0.0,0.0 m27.642278316957842,7.129065335319834 l0.01117581853259668,0.43466357160020164 -0.4072462321443968,0.9009309795640177 l-0.9339277915050004,1.1893009424348828 -3.092923624961442,3.362960859126918 l-3.4048334561376206,2.824371311943157 -3.978708532249876,2.551271047248902 m11.601112580017656,-8.123387504759998 l10.28118113501218,-1.5897023834056923 0.7677303542753957,0.06652724170451887 l0.7110927715934869,0.36268613825339774 0.403890581482358,0.48668471168538896 l-0.0049999577895422755,0.5005776293599349 -0.3037422035240127,0.5221621645699864 l-3.56106583345537,3.9739961988095143 -3.6517555202921286,4.837785368281513 m-13.397261888521586,1.6037769681724694 l0.7768965419047236,1.5464056407116444 0.5769008739172868,5.000246470524122 l0.8540801348091223,10.77744422938217 m-1.2302431108902272,-16.914938172440355 l22.38885115766252,-2.453485645712553 1.4399846557020362,-0.00259341141497767 l0.9655447192516601,0.2289814445615664 0.632565279330239,0.7160000484838209 l0.08974788478632957,0.9275161280939821 -2.0551866791800397,15.73768304449311 m-12.128362867541862,-15.623074128824829 l0.09043773342144311,14.12491027211392 m-11.330891308879414,-6.595986882899934 l18.352335673647737,-2.0307029483240515 m-17.66506920912591,9.840129217167725 l22.71407078113186,-2.021331567185713 m-27.07001044588541,8.06558651577741 l-0.16592546901422137,1.711866327722769 -0.7845257736235945,2.313838080825373 l-1.0936888743267703,2.1735976073820322 -1.3290638609939376,2.0641510867220343 m11.909556727566365,-9.370058519314345 l1.133433516721293,1.5232081448293695 0.9781001312386585,2.0652273292314876 l0.7876932898718632,2.2784336508717473 0.5844577515587289,2.4629432210436595 m6.695820421690453,-9.019002441560518 l1.3803712562186243,1.8152794818059153 1.45121787558434,2.592735623267081 l1.1833344566920057,2.696101309506592 0.5130873982132341,1.7623804446260474 m6.744398291427258,-8.366647868081921 l1.8431409075019767,1.708183049706378 1.9116481600843487,2.426054333173574 l1.544467320105242,2.521482476727929 0.6541553275980136,1.656188072736621 " fill="none" stroke="black" stroke-width="1" /></svg>