<?xml version="1.0" encoding="utf-8" ?>
<svg baseProfile="full" height="103.14660265738627" version="1.1" width="101.23327050517779" xmlns="http://www.w3.org/2000/svg" xmlns:ev="http://www.w3.org/2001/xml-events" xmlns:xlink="http://www.w3.org/1999/xlink"><defs /><rect fill="white" height="103.14660265738627" width="101.23327050517779" x="0" y="0" /><path d="M25,25.02158003932076 m0.0,0.0 m15.869860351595468,4.226803874847045 l0.04613391391960209,0.5617815932529724 -0.41326998986115904,2.3435127731138903 l-3.2968017076426426,7.87732568026941 -3.264854820646456,5.642641589399074 l-4.0469266524817415,5.757921379991192 m7.953337357615431,-9.375810644771576 l0.5786015414118897,0.8730910565708417 0.21930789540764573,1.6011490854454618 l-0.034291643487123304,27.990826303366855 m7.227972017436087,-31.926285046338805 l1.897388825875333,0.17190386382057263 2.59063068654339,-0.3093518309613682 l21.418974605637676,-4.484756529503486 2.280911949345509,-0.2345795151386668 l2.2062961745088785,0.16935378638783893 m-31.430781268852915,-10.90710745907201 l0.9518759845265923,1.1519428411070238 0.373295654423679,1.7913183100350316 l-0.5242742605104836,44.14963274692089 -0.11284037661347053,3.473273215932394 l1.5922406119315475,1.789164880743556 1.838818684122682,0.4345761425961829 l3.884031433258373,0.35669452005119434 8.661244378204215,-0.18666314921204033 l4.4361121986999486,-0.5395140070433685 3.4438834252406174,-0.8282209584164942 l2.1148380878087667,-1.1799423381335614 0.8551169798411686,-1.7273611752519162 " fill="none" stroke="black" stroke-width="1" /></svg>