<?xml version="1.0" encoding="utf-8" ?>
<svg baseProfile="full" height="301.42762138097044" version="1.1" width="127.55041873747437" xmlns="http://www.w3.org/2000/svg" xmlns:ev="http://www.w3.org/2001/xml-events" xmlns:xlink="http://www.w3.org/1999/xlink"><defs /><rect fill="white" height="301.42762138097044" width="127.55041873747437" x="0" y="0" /><path d="M25,29.698662479589153 m0.0,0.0 m30.27792849829448,5.444076345391743 l0.05853467552412251,0.5885429987979631 -0.38552766263038507,2.065089521758961 l-1.596778161248961,3.8323855150154773 -4.678410370151488,7.950602455186712 l-5.600791419881267,6.483721014860773 -3.9069785246350044,3.565585012908704 m7.630925335317174,-34.62866534350949 l1.4863941739165067,0.5054923181877977 1.2106498345183865,0.6972182001399525 l2.821910807386483,17.2878885971973 2.4810480343854913,11.417769249525282 l2.271074290663666,9.449629068752209 1.4587832143996484,6.878873023557814 l1.316081403581624,7.076371259788874 1.2131062802113466,7.258879753180559 l1.1704431507762973,7.502451428357862 1.102013115387851,7.536400907967483 l1.0808851791587573,7.324625865851457 1.0699337924282963,8.835646217465221 l0.9485841366834431,9.490567254855035 0.8925458341527138,8.93267856006322 l1.588296420044527,5.059613608990668 2.3290201868616913,6.903291150294977 l1.4720253994819446,5.986703384748869 1.1016607522013167,7.45678765881122 l0.8069063368581622,9.188921817104816 0.704890441239181,4.428800546535226 l0.5672910261352462,7.6069553405874855 0.689080221274423,8.196704935414873 l0.5470445873395915,4.809065136473893 0.5427570466436578,7.102790073324102 l0.8092202778377025,4.433442277182731 1.8811698358445121,8.173607036915302 l1.3034029685328592,4.280586317413834 1.0175231032482714,4.442056056421848 l1.0110532133007872,8.423141657879045 0.8423571208067899,4.333396023014838 l1.5810769296940799,5.063261994067086 1.5518452624225494,4.816801767967984 l1.567913284381908,4.686311242760933 1.5943601949711332,4.326215391466198 l1.6543686129548658,4.059995276343771 1.703348908115663,4.104892160006549 l1.736055797443764,3.981743716921656 1.8238361647430708,3.411228742438651 l1.3094652111529053,2.765814830827172 3.1128462991671357,3.1910015321666134 l0.37924751653746186,-1.4732568883529318 m-22.96152056007442,-63.34991755034989 l2.2875344986716026,2.3144301341363542 1.7997478028762544,2.4318841369279944 l1.4399214025236786,2.396164310691786 m-31.04592425534776,22.509207425373596 l2.8419891557579944,0.4253124161694703 30.586313362859975,-2.847804024338301 l4.901903929363202,-0.21166550451541147 2.4971094614030345,0.49290215307546575 " fill="none" stroke="black" stroke-width="1" /></svg>