<?xml version="1.0" encoding="utf-8" ?>
<svg baseProfile="full" height="103.01376448950626" version="1.1" width="92.28137207875818" xmlns="http://www.w3.org/2000/svg" xmlns:ev="http://www.w3.org/2001/xml-events" xmlns:xlink="http://www.w3.org/1999/xlink"><defs /><rect fill="white" height="103.01376448950626" width="92.28137207875818" x="0" y="0" /><path d="M25,25 m0.0,0.0 m16.08965171990684,3.272221044937934 l0.030203047397372163,0.542898484486702 -0.2088389601315485,1.6789227729450196 l-0.8363175008716376,2.983358489848887 -2.8683077380978683,7.602466718680338 l-3.5178585387586723,7.203714393982743 -4.317765449867492,7.192638194317524 m7.6723411676768976,-11.218317195889966 l0.5033188958104009,0.9068768614979358 0.24236028957595054,1.1342458474578274 l-0.004809950146102016,31.714738877241313 m25.140764832639462,-40.35188154445668 l-0.6871352980009215,1.1458724957367017 -0.6126763470448181,0.7949518858233149 l-3.4800113359062337,2.670802312427006 -4.302177231375082,2.4790138964858306 l-4.893023395994332,2.2780839346015513 m-3.0676390891697047,-18.34551438103152 l0.5488500508155778,0.8838706052999781 0.2514063344975452,1.6901228061303213 l0.06810602434634874,36.8783182281135 0.36654475708117806,1.818519911052891 l0.4981775134306202,1.223152506400829 1.6025784508712009,1.4570451868079548 l2.8096885530262417,0.6437754055166522 6.824700082564344,0.08862248528918766 l4.468007374122544,-0.506226652097137 1.3767517458243912,-0.5186404952368857 l1.6544330458973622,-1.2245953902779076 0.6929877887634374,-1.5220420764944411 l0.23706123987488062,-2.656411067632876 " fill="none" stroke="black" stroke-width="1" /></svg>