<?xml version="1.0" encoding="utf-8" ?>
<svg baseProfile="full" height="87.59480348884549" version="1.1" width="102.45605219670414" xmlns="http://www.w3.org/2000/svg" xmlns:ev="http://www.w3.org/2001/xml-events" xmlns:xlink="http://www.w3.org/1999/xlink"><defs /><rect fill="white" height="87.59480348884549" width="102.45605219670414" x="0" y="0" /><path d="M25,25 m0.0,0.0 m29.499441077839307,4.534997931699314 l0.36333803308481993,0.41006265247900453 0.5338402854269353,0.96618030103673 l0.15718591069572369,1.0682683952740486 -0.07909669603840083,6.860625442192592 m-21.401869681318146,1.8151060895176974 l2.1398880454617015,0.31623425274560807 2.3765916652476546,0.007782604181181038 l22.010090602270658,-2.3976700851283277 11.352102822210368,-0.8690876877638359 l3.063223571627181,0.013605014647816459 2.4413165601963325,0.44249143464264734 m-28.329276969876624,2.6768524369327054 l0.20943236920515823,0.739707957076209 -0.21555616338201322,1.020147701396329 l-3.5091803883926436,12.429536304263525 -3.3018171504602156,3.567778380382512 l-2.699350354386668,1.7080055293505887 -2.5682777537351464,1.1329912428637938 m23.212946440862876,-21.727512131517077 l0.48604499866306816,0.7334456923735951 0.23806011962764315,1.462198920296698 l0.08483973333058929,17.26405012945192 -0.02145168378509868,2.314806742697545 l-0.32908983326830904,0.8981755832206763 -0.5716043746996404,0.20602265453199245 l-0.6716715238895767,-0.3131176549214188 -2.1257834239450464,-1.7994790909934684 m-17.133461017525775,-11.309942643492567 l0.012148609153738868,1.4260452580777376 -2.1069007966917996,3.916152575411185 l-2.495039292354062,3.482403433416433 -2.955002839383284,3.3202222798059426 m35.77076206255651,-12.12050394711255 l2.0326513425014556,1.6934542621633364 2.52271727180355,2.8060966453601592 l2.084024169698946,2.969840997108452 0.9948405011081927,2.246707840624973 " fill="none" stroke="black" stroke-width="1" /></svg>