<?xml version="1.0" encoding="utf-8" ?>
<svg baseProfile="full" height="104.47321282126617" version="1.1" width="110.73825723089696" xmlns="http://www.w3.org/2000/svg" xmlns:ev="http://www.w3.org/2001/xml-events" xmlns:xlink="http://www.w3.org/1999/xlink"><defs /><rect fill="white" height="104.47321282126617" width="110.73825723089696" x="0" y="0" /><path d="M31.036250060599563,25 m0.0,0.0 m13.361511954304605,5.771315888768485 l0.061704329049943434,0.5389081918722155 -0.20371280534430566,1.9149496494979195 l-0.8035797657599443,1.5399580350659552 -5.9254010613009305,7.896689663870241 l-5.748697038686583,6.881333638931156 -6.7780756728623475,7.03435817823294 m13.373328135492963,-11.51043094651728 l0.6977276940033429,1.4308772711404931 0.17195083347966275,1.5700659345052044 l-0.31048433669588016,31.325664936678923 m25.43617738850962,-48.184263187977166 l0.776958533003374,1.3836006847308526 0.19839030747240755,1.7096177198525877 l0.029380589205693752,41.93288162658714 -0.45823859902596725,2.259093327864602 l-0.6081689619146438,0.8137725691204036 -0.7988223525791222,0.16481963904150831 l-0.8988580806529834,-0.28713550008181116 -2.8582887252985354,-2.273663228524672 m-15.154014645430946,-25.77828242799982 l2.324808194834719,0.3252099621901543 2.249647922115363,-0.16897007537389142 l10.78951166721875,-3.1137160161363733 0.9344536472315487,0.1040451688540094 l0.6698104186898521,0.4095455063271101 0.2266710940278636,0.621909313950194 l-0.6979161641023016,1.9133931390414674 -3.6818287918624284,3.705256036217212 l-5.623747583659577,5.288230842037471 -5.781635194869614,4.664213160736539 m36.437239043637035,-28.590684686458445 l-0.45001840893531336,1.4915540330461554 -3.0161682518366466,2.925148441380846 l-3.439046670189293,2.495016092464298 -3.9211908356829,2.250362058664066 m-4.529051261762766,-0.9664782796978014 l3.1737239370205166,6.890162612265548 4.860639320098963,6.346876707817734 l4.889729966874707,4.700426123128902 3.3891242343193064,2.27657330268382 l2.3364631681601984,1.4254973564747258 " fill="none" stroke="black" stroke-width="1" /></svg>