<?xml version="1.0" encoding="utf-8" ?>
<svg baseProfile="full" height="101.07118459430254" version="1.1" width="112.32440729542277" xmlns="http://www.w3.org/2000/svg" xmlns:ev="http://www.w3.org/2001/xml-events" xmlns:xlink="http://www.w3.org/1999/xlink"><defs /><rect fill="white" height="101.07118459430254" width="112.32440729542277" x="0" y="0" /><path d="M25,25 m0.0,0.0 m15.981763399117332,3.4089580230118712 l0.04528336978658459,0.545829848172249 -0.4548601016235837,2.1878498335885856 l-3.658297638207093,7.3996787213612265 -3.5752927453619723,5.593848486819884 l-4.343957567798211,5.614086872797117 m8.248810309490894,-8.488592083839256 l0.5606804694025367,0.8426689707122412 0.2079925149322214,1.5098104692385523 l-0.03557962424905554,27.966386722395672 m8.323018228947983,-35.24701382551007 l2.108487446736608,0.09978169381863522 2.8877134737283616,-0.28268844007195343 l21.477272492610044,-2.6972509111120866 4.127378400288648,-0.1851013299425972 l2.3275879294775463,0.19467434294423927 m-17.68797195596961,13.491689673183881 l0.5097686309630731,1.3379986509305302 0.06051143587367641,2.68777398052758 l-4.102673729206537,15.603038171095465 -2.2208010868453107,3.799436955895431 l-2.758993330356361,3.3783387775296716 -2.546047059331178,2.279597636653176 m19.426887603612567,-32.232903616688816 l0.6175978585632086,1.058224120010292 0.2077532048543349,1.1896373026943639 l-0.006078577567104032,25.12951727729084 0.20270172993684799,2.2672155014532325 l0.31831385200188855,1.3403469075473087 2.2674821246073247,1.1236371607733975 l7.6949321845441485,0.15470870102187043 3.3365905744266153,-0.4895274905556677 l1.1069304044141568,-0.5177016218495555 0.7842899536469545,-0.6558452105589291 l0.5605998160745519,-0.8850350779433792 0.324613303900677,-1.8440303316108704 " fill="none" stroke="black" stroke-width="1" /></svg>