<?xml version="1.0" encoding="utf-8" ?>
<svg baseProfile="full" height="113.32168101959796" version="1.1" width="104.3433765315325" xmlns="http://www.w3.org/2000/svg" xmlns:ev="http://www.w3.org/2001/xml-events" xmlns:xlink="http://www.w3.org/1999/xlink"><defs /><rect fill="white" height="113.32168101959796" width="104.3433765315325" x="0" y="0" /><path d="M25,25 m0.0,0.0 m16.58895991580879,8.832671670974031 l0.42602769747163627,0.11447374073399118 2.845675295563373,0.11991917098016644 l20.71086190445938,-2.17619017751914 3.265438143708854,0.1336964100150463 m-26.738393578765795,10.0251536546714 l3.209045257750427,0.18483539202251986 18.13946354734468,-2.088469154815505 l2.994683846538685,-0.1103181574007715 1.5829643084353606,0.2065012947537115 m-31.67846088998399,11.16589176893774 l1.7159407275363692,0.18997823973372144 2.278481607034778,-0.05494013575628036 l25.700680356312766,-2.642478493011907 5.8635858023704674,-0.39316669467307064 l2.646025807926718,0.24800076761174095 m-19.56274730132025,-23.7322406715102 l0.23574920347422734,0.9626020830874 -0.08610547653043521,1.600334797581478 l-2.057621921578789,13.082427248801563 -1.8502956007026372,7.2066845470064615 l-2.2117045757993896,5.932676743807513 -3.0034730661966793,5.726688431794373 l-2.874809941687947,4.000680143239948 -3.501086119762711,3.598543289018695 l-4.3185109211543375,3.206120844683069 m20.902764523772714,-23.45084869496744 l3.334727441673594,2.932743117638242 15.291440891605639,15.515284527105388 l1.990190709021716,1.5285201640636648 2.5038789372053003,1.4179330723764896 m-31.032087018324315,-9.293066332315002 l2.148353169954994,0.23526641554785885 10.941070348694845,-1.1917068044126706 l3.5068033170175883,0.025880137165602408 m-21.603484205126353,10.745785520124974 l3.5283500275850486,0.2903519893908536 11.38602725595762,-1.4471111995195312 l7.1749114834253795,-0.5673622008064269 3.021579876137424,0.0012197676032580686 l2.8738758188586955,0.5252783653571649 m-15.14584958547387,-6.782176628353073 l0.4607370928482855,0.8938874632437369 0.16129252939234262,1.69796550526499 l-0.03145880472026244,21.706187213450516 -0.19002043387851433,2.1899835408556125 l-0.38672229211571796,0.9437295064731878 -0.514270713587342,0.06385981954284858 l-0.5943627679512915,-0.5109128600196291 -1.648662546308232,-2.407564124354835 m-5.89448329869467,-11.201603644565585 l2.4940642333304344,2.5283109601600486 1.3089539465952222,2.2623803405471947 " fill="none" stroke="black" stroke-width="1" /></svg>