<?xml version="1.0" encoding="utf-8" ?>
<svg baseProfile="full" height="95.80210110010563" version="1.1" width="98.64673318516623" xmlns="http://www.w3.org/2000/svg" xmlns:ev="http://www.w3.org/2001/xml-events" xmlns:xlink="http://www.w3.org/1999/xlink"><defs /><rect fill="white" height="95.80210110010563" width="98.64673318516623" x="0" y="0" /><path d="M25,25 m0.0,0.0 m15.309243494524065,16.495278639606028 l0.27871119881401524,0.36787669038590903 0.3381983238093309,0.6391246408633917 l0.12519241236938997,0.9093486700731748 -0.043411287201420026,21.035846264378762 m0.41502626468060855,-11.451287756901571 l6.658574652926534,-1.0589015762388372 2.2612211452539275,-0.09259064019989698 m-18.21976783009374,0.4318060843889716 l0.5893505322554179,0.7570909609600096 0.18030914639502982,0.7499015091541245 l0.0026321211541290666,14.210713375341133 m-3.244182633573521,0.6947141054717931 l1.169918057909676,0.36321462618249295 0.9235634773144527,-0.19015401339095128 l8.07697028191511,-7.2062480675454825 m17.66666434031704,-5.990346573246998 l11.32602130869692,0.48060910411488883 2.3551315913194553,0.2519373167723265 m-13.002344295734845,-22.73112304956899 l0.5117544068186741,0.9384327943012122 0.20223448588344656,1.4023974026085062 l-0.0013361160196990252,34.79446059259564 m-10.690353729457417,-22.425882627168562 l0.6337042357094038,0.8240517774750623 0.27968730258490326,1.095707540155883 l-0.08339039346777329,19.632707225317933 m-7.649232764726053,0.3501664156054403 l2.3081341989424384,0.2043634929912159 2.6620316181874197,-1.427771575912999 l8.761353809152645,-2.5076500203454564 8.924421186234305,-1.5084371613405403 l6.916178157914173,-0.5986899046613272 2.7045244843581804,0.11956442645424376 " fill="none" stroke="black" stroke-width="1" /></svg>