<?xml version="1.0" encoding="utf-8" ?>
<svg baseProfile="full" height="104.99965679842157" version="1.1" width="109.23877635141264" xmlns="http://www.w3.org/2000/svg" xmlns:ev="http://www.w3.org/2001/xml-events" xmlns:xlink="http://www.w3.org/1999/xlink"><defs /><rect fill="white" height="104.99965679842157" width="109.23877635141264" x="0" y="0" /><path d="M25,25 m0.0,0.0 m32.9281673718726,9.835669158829127 l0.02274953231930087,0.5238095575493923 -0.44805258438573814,1.746184984819474 l-1.5855705287862123,7.109367227930604 -2.2573434733052054,4.398589885548219 l-2.024544500030247,2.27252745715836 -1.7882887525903914,1.4840832593070634 m9.386498655984733,-19.866694463078662 l2.3020593253370616,-0.31180863291663047 5.541382312092972,-1.1138862967212957 l0.8879215234007726,-0.001527501744689445 0.4917373359819156,0.19357827422178653 l0.30925308904839716,0.42960291497197645 0.05927754461647356,0.6427848166587994 l-0.17017203992174618,0.8346104886100147 -1.4031918067879925,5.024550152378837 l-1.6069478772968606,4.516365525826562 -1.9948263328382865,4.76456781741973 l-1.8333638655816933,4.730519706687029 -1.812751582994261,4.043397949784815 l-1.8923333212086009,3.5063320520610017 -2.042021125372931,3.0629516299589596 l-1.979880111696534,2.492895807130477 -2.0606567807940723,2.0133967311124583 m3.9371208467864984,-20.135459363935524 l2.325513544627027,2.543124499365921 1.0043713115362525,1.579744191513864 l0.555157334547052,1.2898705806879613 m11.480748611402715,-26.841329826903934 l0.5883296980900263,1.349230811324823 0.215393695380407,1.1382394073180775 l-0.06976972418411229,44.57825723593377 m1.6404656672672029,-28.154372439183557 l2.432442465265496,1.9697552540378285 2.637458953876679,2.877330418998461 l2.1890348518121976,3.0760289283098956 1.152987729233554,2.547094156700694 m-38.34876531004927,-27.638117565145254 l1.8567816345629524,1.2857486516610734 1.8414383786062154,1.8088054382092023 l1.4570524351745824,1.9086158370231368 0.5803923463152608,1.1985461043635095 m-8.058949739874183,6.0983287235473815 l1.927497911678391,1.049515236826332 1.9753713970542042,1.4942449184055284 l1.6859797927959863,1.5978844281033044 0.9297305228905957,1.4111997375009933 m-7.658594950152413,8.84916471204269 l1.2233729166653695,0.32628669683285827 1.2413882862303038,-0.18892221249771013 l4.882554177250256,-2.1773591141517694 0.6269243985370963,-0.002014930903405962 l0.5570638308949217,0.3385091240185433 0.33106030615224324,0.5483285897632376 l-0.12194687222422791,0.6234707779970511 -2.5536853302820615,4.686550755778809 l-0.21051937466033627,1.072443584280608 0.3495312397789274,1.2761441668654165 l1.994573985286813,3.555783719428654 0.2316547752077336,1.1871950232307424 l-0.6150227382025644,1.0593355394420383 -5.6382507950266865,4.9704426156520505 m-1.7633104418053331,1.0552598204185095 l3.855117273782288,-0.7311760935696474 2.6871590539408796,0.06667301904562127 l23.311352120761306,7.371278959308851 4.46147954701494,0.7481081772715139 l4.495545963221444,-0.0013664131802399045 4.586442617182558,-0.6873851755246813 " fill="none" stroke="black" stroke-width="1" /></svg>