<?xml version="1.0" encoding="utf-8" ?>
<svg baseProfile="full" height="104.60043229395234" version="1.1" width="105.66446166873284" xmlns="http://www.w3.org/2000/svg" xmlns:ev="http://www.w3.org/2001/xml-events" xmlns:xlink="http://www.w3.org/1999/xlink"><defs /><rect fill="white" height="104.60043229395234" width="105.66446166873284" x="0" y="0" /><path d="M25,25 m0.0,0.0 m7.521674308532683,21.946884169428014 l0.5024302432087762,0.13235261902907391 2.5562886966438207,0.09485396249386224 l11.07763875053264,-1.8900234890925485 1.9454447349718775,-0.0886798543788201 m-7.535203220890372,-11.116178622974408 l0.5772528184460232,1.1683996102049279 0.15961324459720108,1.777753178275218 l-0.17537917272470468,40.722983878342205 -0.3786400037766313,1.3076038147249027 l-0.5606085826388281,0.5444830278999088 -0.6670370848495911,-0.04691338476873737 l-1.4233919380210784,-1.1754052335780272 -1.5490683018809481,-1.9886203781528438 m-5.383176296936598,-12.682665458036556 l0.9058112418096859,0.39980527377082464 1.0981599846018009,-0.31940778932222486 l11.562238541621483,-8.041765330917547 m6.194615252897811,-17.959811947443487 l2.841825753527088,0.7194936515196579 17.23147775969011,-2.130638471645163 l1.5972645345068337,0.022749783340602736 0.8863749748167516,0.30198125858796593 l0.43031006222198703,0.8581103405985293 -0.033328609749232456,0.7905074216551753 l-1.7294791875222426,6.45923821362243 m-18.795290092250333,2.5232522232715917 l19.54793070948905,-1.8112350737850642 m-20.690270508631826,-6.644798676758144 l0.523530325011611,1.3474076824934236 -0.21150745292681686,7.137053221991187 l-0.5069683055377339,5.9167210907819285 -0.9780168526353863,5.848917902423378 l-1.1687820486993192,4.774857751943499 -1.2521387581689607,3.7512572489291496 l-1.8660954669698948,4.243378154629118 -2.3224331065458803,3.864527532056415 m10.867752385522792,-24.61380295099208 l2.434748774386828,0.14347651925952207 15.087813091490686,-2.1141321421341264 l2.7846228903397634,0.07098222587514166 m-11.297647747873057,2.683305232129272 l-0.02319005259358828,0.5437314207478914 -0.5290895842783085,0.934616955458616 l-3.24440678646038,3.124198305971609 -3.810842182595341,3.2262089654637625 l-0.6590798118908121,0.6646015788397676 0.08393422558339816,0.49959455171076905 l0.9273835979197993,-0.010307010131117483 15.457003383507237,-3.22744331722282 m-2.4883009629152757,-2.907935662479289 l1.276449147435066,1.0011785984214856 1.752131874577794,1.9354028934233862 l1.4372059534727801,2.1031098998253905 0.5799735861852315,1.3252150638327154 m-21.387007287050494,7.883397389629568 l2.2399562196960274,0.18030056692760163 14.282315899054653,-1.4245442324552484 l3.629566780447607,-0.11578372818403226 m-11.161117936624745,-6.117991508243744 l0.5335963931893529,0.8933706877941533 0.17952222455473094,0.9720594638820463 l-0.04657765611530596,13.036619411203427 m-15.024360403686172,1.2845355229624156 l3.5810912005310316,0.3115275285338923 11.085538421342875,-0.98627982082072 l9.821185130125395,-0.5416113956816831 4.573739698603283,-0.03684313574110393 l2.7874842570791447,0.26425248979274896 " fill="none" stroke="black" stroke-width="1" /></svg>