<?xml version="1.0" encoding="utf-8" ?>
<svg baseProfile="full" height="103.7765745047158" version="1.1" width="105.4131376217054" xmlns="http://www.w3.org/2000/svg" xmlns:ev="http://www.w3.org/2001/xml-events" xmlns:xlink="http://www.w3.org/1999/xlink"><defs /><rect fill="white" height="103.7765745047158" width="105.4131376217054" x="0" y="0" /><path d="M25,25 m0.0,0.0 m14.530343024997691,4.384210522972327 l0.5574588649765022,0.19138433761350845 2.0956828471951363,0.19730713781763193 l2.8491779363670426,-0.21074120501299456 24.356862041553935,-2.8997159270338972 l1.8265449796044857,0.1451397482047167 1.1502765937112707,0.6648303215423695 l0.33585168163157725,1.750883473960495 -1.9703655993516966,6.359221142788681 l-2.279165770971904,7.514072537297244 -2.392277752426455,6.165203251126812 l-1.5014410938338847,3.168737036595078 -1.5677419185081836,2.331663187354685 l-0.86729943939761,0.6831881020324112 -1.3867813989821833,0.09067925906009747 l-1.1231311593327942,-0.8353041094021487 -1.9677382449659853,-2.4424970869211573 m-2.985541533546111,-22.505342203445167 l-0.3289203458705034,2.135112216366271 -1.7804739706374586,3.1135405859921614 l-2.605998252777506,3.8091301689997836 -3.180489421405748,3.8690369524641532 l-2.96383824650427,3.011572646800762 -3.4318706261388896,2.9111378805254717 l-3.917348489526563,2.76831805740995 -3.370012460646955,2.0890615398808787 m8.816592099677964,-16.981695342783613 l4.629302653273432,1.4214887613694496 4.515399352231066,2.112187481491082 l4.217013678561199,2.5644342383048633 3.3471443815998825,2.6435753502239727 m-28.913137189987843,18.32394760164523 l-0.825646289337967,4.710190804408796 -2.0723568369650103,5.6676179977847285 m11.534612440086109,-12.913440190483989 l3.378686790536581,4.592356480351594 3.9323597554578713,3.8298433723909335 l4.9780778386428555,3.2288713573615184 4.711116210442787,3.0577616664608755 l3.7861441410014076,1.5862939454721066 4.243497360429345,1.002084077292667 l5.005820063811277,0.4712273284354675 5.114103986532128,-0.0912123684177322 l2.1391966127281496,-0.6631519261251101 0.5290325299418375,-0.5097595707048127 l0.11866162946789768,-0.5951634527728664 -0.88131223672561,-1.4487745049687035 l-2.5012843820346156,-1.9031176433036694 m-22.18609010099141,-12.897737595754226 l1.842161318442568,3.018214558639407 1.2407274015100949,1.0698261695716893 l1.027046666208452,0.024949906407183163 0.8778406791982557,-1.3007701537268286 m14.631845912534361,-3.9911451506535687 l5.535932201371477,1.4620759735191424 2.593404357492044,1.1871599261605 l1.965482351355873,1.2816963050518622 " fill="none" stroke="black" stroke-width="1" /></svg>