<?xml version="1.0" encoding="utf-8" ?>
<svg baseProfile="full" height="127.28507746982386" version="1.1" width="102.08573412171398" xmlns="http://www.w3.org/2000/svg" xmlns:ev="http://www.w3.org/2001/xml-events" xmlns:xlink="http://www.w3.org/1999/xlink"><defs /><rect fill="white" height="127.28507746982386" width="102.08573412171398" x="0" y="0" /><path d="M25,25 m0.0,0.0 m6.691585889720204,16.10972473964202 l0.5159314359359565,0.14374252397063608 2.084909784934156,0.08155373370694805 l31.51914440499348,-2.3400606217747555 5.547442213200669,-0.16430637126491957 l2.8155735616966058,0.2558816512764522 m-32.9307494337361,-4.930462713978446 l1.1369816346053314,0.9472130467539038 0.39552495583426944,0.6759337820654296 l1.571996227878464,9.993618565650626 m16.292661280422205,-12.80005852014009 l0.33256672266716747,0.8468118508131567 0.03416441397171185,1.0026727057017797 l-2.5935599506626326,10.556410537161595 m-9.618303341297873,4.6399506118227105 l-0.3571248817589545,1.600388733771419 -1.6720539613648229,2.158770433245334 l-4.614124260064403,4.193277815309506 -5.567961486292175,3.533419465490648 l-6.517281508415424,1.7977802233861446 m0.26077494060815115,-14.17539678351876 l1.5676073647011852,1.8252901849702925 2.1845828012612385,3.3783287131328503 l1.5811096991474896,2.6799356753848835 1.9468492204017562,2.7353721860841276 l2.724170206508759,4.318130304097416 2.6366909633113287,4.7645052713106955 l1.52405936892627,2.7031160084027217 1.432149326714859,2.6644041824295615 l1.2598817428450095,2.6892891372264582 1.0742798196249588,2.816183251961913 l0.8289148871557324,2.8522629510030164 0.5800960868406949,5.998140743059324 l-0.32239935805919956,3.6847021209592516 -0.5814628030339786,3.255063059293227 l-0.9030890088223864,2.864731266895846 -1.1986359755630667,2.188503849270574 l-0.7985059126978766,1.0700518775501915 -1.59962155476028,0.670201277700174 l-1.631295922735343,-0.7226928402059172 -1.8256236398976318,-1.9334370905696925 m2.993464424946458,-29.057959881580153 l-0.11104583256009315,1.289364975127228 -0.5570369367341929,1.3346374093622495 l-3.803868412981646,4.979851882897078 -4.826522427291107,4.46403442981307 l-6.2178791226439944,4.076617729129522 m24.595967710013625,-27.226559599594758 l2.8742885557430546,0.47677466458465306 19.371106267968003,-1.9881236786142582 l1.9594039405084,0.2648355091574525 m-6.647320845528016,-13.931393737765658 l0.9157623093581624,1.5674423940519617 0.23491142474359009,1.4376447610434262 l-0.14220710042525384,43.68803967442947 -0.3027949798999028,1.3680183501046501 l-0.5396584472511519,0.6174850772210865 -0.6996339356138523,0.006630294128189365 l-1.6145998572463376,-1.166910222962046 -1.8210775185881691,-2.08201795436177 m-6.062567598536512,-28.850951522331542 l1.4364491155472765,1.9909090456157592 1.4729830537658688,2.8020608173085346 l1.2958072020158957,2.9534854510223743 0.7262971002142338,2.4888366655737313 " fill="none" stroke="black" stroke-width="1" /></svg>