<?xml version="1.0" encoding="utf-8" ?>
<svg baseProfile="full" height="90.52650249425062" version="1.1" width="92.62326531786374" xmlns="http://www.w3.org/2000/svg" xmlns:ev="http://www.w3.org/2001/xml-events" xmlns:xlink="http://www.w3.org/1999/xlink"><defs /><rect fill="white" height="90.52650249425062" width="92.62326531786374" x="0" y="0" /><path d="M25,25 m0.0,0.0 m14.750397954272167,16.225965174200763 l0.33299363024855283,0.34383631170949286 0.5060662883814863,0.6125335946096566 l0.24284685079354695,0.8561610818981977 -0.15596128761827047,17.859452051849036 m0.6868140739848642,-9.561667118193302 l8.418331216226123,-0.9990490786890108 2.528606157684213,-0.015705708761936114 m-23.064521579864177,0.24335381034721718 l0.7515297469915208,0.6750919521875293 0.2819470855755943,0.6688560498346514 l0.024567879526402117,12.549009576563721 m-4.717766908524202,0.7063685728751756 l1.48272862595943,0.36229622381942056 1.2265583670544904,-0.1493107073903425 l11.89708082160125,-6.667122953174189 m21.998988266062096,-14.267438416041621 l-0.22662437351753406,0.7082787922208801 -2.734463264895177,2.2460387704362494 l-2.9153721521523037,1.8025728962525585 -3.3159156574565385,1.5677740134336564 m-1.9322272108446785,-10.30615096920775 l0.5227771850665899,0.7126099082802642 0.14303612774014998,0.8134211350846418 l0.02120265858001755,14.538275181687915 0.3636903675040881,1.3885822925527682 l0.9774970858086253,0.9128508951463117 1.8495174404998427,0.5681013224079271 l4.495985801454411,0.2823655428047257 4.99017332759041,-0.11933856753410026 l1.7168842041292265,-0.37971922119504825 0.8785678875151542,-0.5994423805027722 l0.46372910505131704,-1.0088878305924986 0.13359959743504515,-1.4830433973488262 " fill="none" stroke="black" stroke-width="1" /></svg>