<?xml version="1.0" encoding="utf-8" ?>
<svg baseProfile="full" height="101.92778786530133" version="1.1" width="102.3938138191901" xmlns="http://www.w3.org/2000/svg" xmlns:ev="http://www.w3.org/2001/xml-events" xmlns:xlink="http://www.w3.org/1999/xlink"><defs /><rect fill="white" height="101.92778786530133" width="102.3938138191901" x="0" y="0" /><path d="M25,25 m0.0,0.0 m31.059809120369128,2.6611807023523886 l0.3710406331292436,0.454337613127557 0.39676537033192977,1.5574848487111628 l-0.014436652991100812,5.932178527610522 m-19.47360113120963,1.954146299632881 l4.200921582540403,0.21805436159972844 31.907275019483208,-2.7071883692212833 l2.341097350884062,0.22481800923264522 1.6049425266528565,0.40381982527682503 m-32.66255312771482,3.193884595813817 l0.5300870774296679,1.2059220254765408 0.059504786977345514,1.0967709316161067 l-2.9069539005362266,6.628541351197922 -3.684316191968897,6.7946110332293435 l-4.255226881714595,6.163419790372307 -2.7669865169954355,3.4864690608994753 m24.95197066977996,-14.594890020609238 l0.9029079680716158,0.3026058933042746 1.557631378243343,0.15642369111341148 l14.249965009118725,-1.9985426807384392 2.6637801493719686,0.15691689953372703 m-11.56030080831932,13.494112400915693 l4.172035143062129,0.7339521314578756 4.041341911673184,1.1435514644274487 l1.4300226296326553,1.0765108473961849 0.6100942372047812,1.0666837093195436 l-0.21346421275048227,1.2453179182395708 -1.4507275474833659,2.831069549444656 l-2.5147871280626988,3.524318361137404 -2.6787460087446884,2.965722796163256 l-1.4259490714063499,0.5555842972680363 -1.281307033766705,-0.38454839080060604 l-1.8988278101391287,-1.3654646630786396 m0.2698551434943956,-23.38670280418217 l-0.04179493828107971,0.8512843806212622 -0.35746949085540913,0.8822274032207384 l-1.8069164557286639,2.8320952869848837 -2.63012717328504,3.2654477746259007 l-3.261339285660155,3.380866473794024 -6.039589284158245,5.048706796969847 l-3.7185732364062294,2.455037001110317 " fill="none" stroke="black" stroke-width="1" /></svg>