<?xml version="1.0" encoding="utf-8" ?>
<svg baseProfile="full" height="105.28701311108821" version="1.1" width="105.93450316338375" xmlns="http://www.w3.org/2000/svg" xmlns:ev="http://www.w3.org/2001/xml-events" xmlns:xlink="http://www.w3.org/1999/xlink"><defs /><rect fill="white" height="105.28701311108821" width="105.93450316338375" x="0" y="0" /><path d="M25,25 m0.0,0.0 m27.91042720244273,2.18944418541963 l0.37557659850028907,0.4007092581871931 0.604764673173016,1.5517456132546326 l-0.005137183525892915,4.94711376498593 m-19.024706463166734,1.7723795957890611 l4.536075041705967,0.1438665490173762 16.93846146423798,-1.7164137704226257 l14.772622626404035,-0.8692734046633638 3.0533907754131127,0.4522140826200503 l2.057472609525134,0.6381429534360452 m-26.048352144239715,5.675010995388323 l0.32965627105121414,1.2176503552242195 -0.1898664124337385,2.5699292040250485 l-0.647131006204912,3.3605550908029995 -1.1249095283933588,3.5220575801722918 l-1.172507977061315,2.461658170444176 -1.4733165098257142,2.282036100819341 l-1.8063071751525441,2.0762203486599704 -1.6889452108189817,1.476634137170292 m16.71407911374902,-20.89403493468548 l0.47651696814999606,0.841164875855584 0.16233537598027598,1.5363966934422142 l-0.10928369193416784,15.205058355971858 -0.37672113632760384,1.256574728506026 l-0.5748476356042281,0.2695583625199036 -0.6892920644969219,-0.3013978084950047 l-1.825195817142405,-1.8682098757018313 m-13.577368897227172,-9.798941068000824 l-0.22175329036766864,1.4549963981892915 -2.140991530409825,3.498382187003233 l-2.533087777898189,3.2096978175150457 -3.1723212343788973,3.227331172487507 m32.449380933133355,-11.82010336910444 l2.062277428619884,1.4089212337785106 2.5681414851994466,2.3918820397673377 l1.9823972185834196,2.4256752122419667 0.9496199808813144,1.8004782760975893 m-32.29313696596067,12.323856247614154 l-0.3550750033561373,0.9124675852751087 -0.9297814494779089,2.148152815446025 l-2.3958273357422573,3.907054526335155 -2.0662283972093918,2.7136719628191144 m13.312295766996176,-11.624491684958324 l1.276864043247651,4.179808158835989 1.0325996142774312,5.986313197960714 l0.8699660542339874,6.745069194041197 m9.526858433308764,-16.32488566594453 l1.279815519807851,1.69160718467314 1.8147386329295996,3.1125015710701223 l1.3285806460209233,3.0826657572483707 0.6599459013854689,2.4953196930979846 m5.743444242984539,-11.340270095127948 l2.0665815721982512,2.2171857732056464 2.460527660905991,3.336172288904762 l1.981866698797173,3.4568415550564415 1.0793144478961105,2.8252651294857594 " fill="none" stroke="black" stroke-width="1" /></svg>