<?xml version="1.0" encoding="utf-8" ?>
<svg baseProfile="full" height="97.07370714619245" version="1.1" width="107.69953428913313" xmlns="http://www.w3.org/2000/svg" xmlns:ev="http://www.w3.org/2001/xml-events" xmlns:xlink="http://www.w3.org/1999/xlink"><defs /><rect fill="white" height="97.07370714619245" width="107.69953428913313" x="0" y="0" /><path d="M25,25 m0.0,0.0 m25.50559274329956,6.979557708925764 l0.44760526956746743,0.3255492197975964 1.7803314037753994,0.9168132045706424 l2.381942511481002,1.4291169677610052 1.6952329854318784,1.3356515218139011 l1.0512779813810917,1.1577032929842446 m-26.523744887745853,5.531896437190593 l3.6015179406539355,0.29610506067257203 22.4621448864831,-2.0379126220709076 l17.87368661700206,-1.1538918654149188 2.3498794900981848,-0.0929080945625502 l1.9659119186554146,0.37655241618239255 m-38.75155491193228,3.7195535449096018 l0.6528738947013235,0.5607759898589696 0.37704266029321487,1.3227181379762443 l0.0929179075531995,15.455157374739269 0.47202999617717795,2.1923864006682146 l0.5367601688787771,1.3329431284045197 0.7664984653889245,1.9623572449295403 l0.898282617168727,2.0295027328862356 1.0257978591669814,1.265365360524441 l1.380284881376826,0.9306333232967686 1.8226920947503313,0.6980027841980013 l4.697296868036327,0.5400778759502975 24.138845605305253,-0.079189638107629 l4.998387322185107,-0.5127201549598159 " fill="none" stroke="black" stroke-width="1" /></svg>