<?xml version="1.0" encoding="utf-8" ?>
<svg baseProfile="full" height="105.24097031090712" version="1.1" width="100.10290123986184" xmlns="http://www.w3.org/2000/svg" xmlns:ev="http://www.w3.org/2001/xml-events" xmlns:xlink="http://www.w3.org/1999/xlink"><defs /><rect fill="white" height="105.24097031090712" width="100.10290123986184" x="0" y="0" /><path d="M25,25 m0.0,0.0 m16.234853580215546,3.6536454309370434 l0.032316611902154575,0.5223484732779187 -0.20076387845351243,1.6001117609599476 l-0.9970230703808398,2.711429233866207 -3.6279640563623405,7.102001154931677 l-4.38881610577261,6.806157025798063 -5.324851255974379,6.900232523013667 m9.255030227673325,-10.721284009577241 l0.6793093076392182,0.9016297264278285 0.31657440886844973,1.0766188190830621 l0.0007077037599776043,30.54318052119858 m32.76469515146794,-39.21677806292894 l-0.7504380634466538,1.2553705517693905 -0.8316543786924863,0.8448219282551556 l-4.750104190101406,3.4350174571526297 -5.487192423089514,2.9484655930260675 l-5.958178738957967,2.4278291180962577 m-3.7369065752843276,-19.248552188326745 l0.7153670411798289,0.907643123649835 0.32333055837515123,1.653620505367663 l0.09468809596508182,36.234526480006544 0.4011261812349548,2.890016962524991 l0.5993989034865939,1.5553859295382095 0.7749612481530251,1.7709175983782666 l0.8751212933615873,1.9448328977082923 1.1168188115654585,2.009303614075272 l2.2131219895356034,1.7890588608811238 3.4248313346252757,0.7924756181960074 l7.847955656351773,0.15094366362033573 4.728591260444642,-0.4463498017236646 l1.8559618661874904,-0.6339333297839576 1.2166830556345938,-1.2939834657617615 l0.5446685246856313,-1.920759686148531 0.14068116406456146,-2.9122149353344198 " fill="none" stroke="black" stroke-width="1" /></svg>