<?xml version="1.0" encoding="utf-8" ?>
<svg baseProfile="full" height="107.85903997719288" version="1.1" width="109.49251316138543" xmlns="http://www.w3.org/2000/svg" xmlns:ev="http://www.w3.org/2001/xml-events" xmlns:xlink="http://www.w3.org/1999/xlink"><defs /><rect fill="white" height="107.85903997719288" width="109.49251316138543" x="0" y="0" /><path d="M25.000000093132257,25 m0.0,0.0 m14.068574905395508,4.971797466278076 l0.04541406407952309,0.6855785101652145 -0.5525271967053413,3.1772035360336304 l-4.257133603096008,9.398633241653442 -4.1799595952034,7.270321249961853 l-5.124368667602539,7.257430553436279 m8.966457843780518,-11.550012826919556 l0.6738751381635666,1.1635498702526093 0.1945468969643116,1.268031895160675 l0.16673555597662926,34.216506481170654 m6.67056679725647,-31.697406768798828 l2.0336680114269257,0.24155108258128166 2.9126060009002686,-0.33884573727846146 l17.014966011047363,-5.404570698738098 12.329896688461304,-4.391298294067383 l1.0081836581230164,-0.3129372373223305 1.6717123985290527,-0.0022897846065461636 l1.0180214047431946,0.8307678252458572 0.12945763766765594,1.6662847995758057 l-1.733112633228302,7.656700611114502 -1.7685618996620178,4.92490291595459 l-0.8317855000495911,1.4953142404556274 -1.492600440979004,1.354534924030304 l-1.3226474821567535,-0.29374970123171806 -1.8209724128246307,-2.1323832869529724 m-8.477970361709595,-29.852006435394287 l0.8248313516378403,1.1835642158985138 0.272654015570879,1.1577830463647842 l-0.04168256185948849,36.808881759643555 m-14.025015830993652,-22.426998615264893 l0.6300300359725952,1.6866384446620941 0.24496454745531082,1.8236862123012543 l-0.016277612885460258,24.566168785095215 0.6938047707080841,3.3071276545524597 l0.8621463924646378,1.4254334568977356 0.8175379782915115,0.7476571202278137 l3.093753457069397,1.2678621709346771 4.93507981300354,0.5925454199314117 l11.778652667999268,0.09829643182456493 7.264214754104614,-0.6528430432081223 l2.4020691215991974,-0.8579060435295105 1.4369671046733856,-1.3238348066806793 l0.8116015046834946,-2.4475254118442535 0.1641383394598961,-3.494041860103607 " fill="none" stroke="black" stroke-width="1" /></svg>