<?xml version="1.0" encoding="utf-8" ?>
<svg baseProfile="full" height="104.28564425117804" version="1.1" width="117.45094680220296" xmlns="http://www.w3.org/2000/svg" xmlns:ev="http://www.w3.org/2001/xml-events" xmlns:xlink="http://www.w3.org/1999/xlink"><defs /><rect fill="white" height="104.28564425117804" width="117.45094680220296" x="0" y="0" /><path d="M25,25 m0.0,0.0 m29.138997525020383,26.8501486668059 l0.37297588440715773,0.37913320487983115 0.5522476544179524,1.4012001265241985 l0.0036176845855643396,6.784207230858283 -0.3531881921594207,5.042602514987585 l-0.9505329552538196,4.341793338655684 -1.5109058561099324,3.358005968325622 l-2.019551744502981,2.250784487649814 -2.6678554758834085,1.8642028048040673 l-3.646758896528393,2.013565907687058 m-4.2384483019115375,-30.271910455859352 l4.1134222511646,-0.036717913114136615 11.620080639935859,-1.3915967905721427 m-15.202530447033906,8.170948247784212 l3.9282503464267435,-0.07696492704652161 11.513915485205555,-1.6930601249007553 m-17.269308007156727,8.9011700983785 l1.1123233665228414,0.3742196991068002 1.3797754085588854,-0.09670752906988804 l12.466394390306753,-2.7821043532704657 m16.25110298735838,-21.587363106657968 l0.7227095487574349,0.6389289064659449 0.39574271812859996,1.1214964830604468 l-0.14496029131790947,28.74364327504681 m1.0213242352807312,-23.521615292262766 l15.357668080019673,-1.2487527578651714 2.7007015190464405,-0.04040440881991315 m-17.143617675629297,8.466714996885587 l14.267470207066943,-1.215388946419405 2.8112825032807964,-0.06490439113973323 m-17.545967580422946,9.00650724327348 l18.834589957072325,-1.3248640590612455 m-47.278739838106304,17.50745768981017 l3.133295867434392,1.5695534741011474 2.3478325566997404,-1.5640705348575858 l29.455369316374348,-4.042010179438901 9.57782522332357,-0.5850567503512131 l4.344396707823887,-0.022959891754270607 " fill="none" stroke="black" stroke-width="1" /></svg>