<?xml version="1.0" encoding="utf-8" ?>
<svg baseProfile="full" height="114.64689488056004" version="1.1" width="98.01529799792891" xmlns="http://www.w3.org/2000/svg" xmlns:ev="http://www.w3.org/2001/xml-events" xmlns:xlink="http://www.w3.org/1999/xlink"><defs /><rect fill="white" height="114.64689488056004" width="98.01529799792891" x="0" y="0" /><path d="M25,25 m0.0,0.0 m23.44043650633348,7.872052900834774 l0.02992460555874597,0.4575416264178352 -0.5201018645997049,0.8938807862406393 l-1.0951825174495111,1.1583902341419028 -3.644329615957085,3.0537919215605083 l-4.245754773818165,2.5273777257015033 -4.913203909003381,2.2766426908274124 m-1.3369445421432684,8.967991031849897 l2.5330927287695464,0.22029309764529187 15.538000087126091,-2.7244394657557267 l2.6444380024685774,0.06141242823152898 m-10.465569868333343,-9.118270758936392 l0.5381201707985945,1.0182573457215007 0.3065314163805318,1.9107120159946616 l-0.055451978023812014,20.951959856156275 m-8.125129216348771,1.1589645613246562 l0.5595695487092434,0.9537202872860782 0.3202577032069737,1.0928126175204502 l1.6649524807369356,14.517482864149178 m-1.430376258382537,-15.486212807589164 l12.674148381966992,-2.6729741548944665 1.4650467669308826,-0.05912778821019201 l0.4675811778715927,0.28164538383249194 0.43913728682670794,1.1965792803019333 l-0.04088892984467745,0.9114175134434723 -2.015990887556581,11.162805376809658 m-11.606846463512907,2.20966769469648 l12.951611686252473,-1.561412825300988 m7.132310740452487,-45.317325009242225 l0.48355313618641543,0.993205089943763 0.3151515203975475,1.9121661770199196 l-0.02559135481273142,48.23488047893205 0.06263901324708065,2.589367617679859 l2.0481664363784327,2.2842053527673265 1.182562657127223,0.4251071212825587 l4.43485008119657,0.2923266121755857 3.3315314757893733,-0.42420719055835027 l1.467365847953087,-0.7373981879184273 0.9164435884500469,-1.1313809381423272 l0.4334938187823111,-1.5013685867586795 0.15574331181743803,-2.840016218654521 " fill="none" stroke="black" stroke-width="1" /></svg>