<?xml version="1.0" encoding="utf-8" ?>
<svg baseProfile="full" height="102.47586955741986" version="1.1" width="102.83664131645546" xmlns="http://www.w3.org/2000/svg" xmlns:ev="http://www.w3.org/2001/xml-events" xmlns:xlink="http://www.w3.org/1999/xlink"><defs /><rect fill="white" height="102.47586955741986" width="102.83664131645546" x="0" y="0" /><path d="M25,25 m0.0,0.0 m8.439759601349666,16.486532903158196 l0.6382772928171,0.10087712131602695 4.724844856298194,0.11950395244572716 l32.604424830548474,-2.46116435373566 3.4626886235714736,-0.0998997113068556 m-42.59070287797341,13.916376049532285 l1.060284943142648,0.8517677600514841 0.5268008260018617,0.8995863493579626 l3.290297475801638,22.662289486600685 m-3.252535464962445,-23.655867503519616 l37.9556078366822,-2.8911552484766094 1.9281087398814185,-0.14409211285118062 l2.775169528895967,0.45649680237270135 1.053470136017453,0.9688711486378982 l0.2201449683832197,1.5075942556169137 -4.933713985200631,21.03506962608684 m-23.14200334606621,-35.133070077529055 l0.6261528157194288,2.3896711245092312 0.05239739969909358,5.106756984769662 l-0.4008011116303221,4.482035687537773 -0.8764101628865751,4.004618032122457 l-1.189779706836903,2.860500539300224 -3.808242265362996,4.571507335433112 l-2.000574056314728,1.4032392094732176 m18.839907968614266,-26.255798641095016 l0.8567484876584692,1.3937915544910087 0.1958026979806382,1.1381811003310356 l-0.2749955309572735,15.72554105124442 0.21581539218705545,2.679292033779993 l0.527110643267456,1.2333978826503107 1.0844298514589106,0.7098035257895766 l2.4808707152625407,0.4003258491951928 5.436329407883782,-0.08202494591550917 l1.6335626989768597,-0.4798807710496407 m-33.59748494547432,11.477804389445074 l35.05339069570109,-1.259464223382435 " fill="none" stroke="black" stroke-width="1" /></svg>