<?xml version="1.0" encoding="utf-8" ?>
<svg baseProfile="full" height="90.47016832649902" version="1.1" width="102.25748986379023" xmlns="http://www.w3.org/2000/svg" xmlns:ev="http://www.w3.org/2001/xml-events" xmlns:xlink="http://www.w3.org/1999/xlink"><defs /><rect fill="white" height="90.47016832649902" width="102.25748986379023" x="0" y="0" /><path d="M25,27.426304127939495 m0.0,0.0 m5.169569359032764,17.351089654560017 l0.4998708410770972,0.07822262144057619 3.0369113122103455,0.23754904101102828 l34.30036018099207,-2.5320204324245488 6.278828710453521,-0.12468545496817357 l2.97194946002441,0.25071954353164533 m-23.2441344057321,-8.589742996895161 l0.8975942812883555,1.0540064492387275 0.2896234325946166,0.9454695633648544 l-0.46878760201084435,27.090021629011385 -0.4429422403828155,1.2706766334098176 l-0.547993060433488,0.7622854891055617 -0.6747361515402097,0.2502724581737912 l-0.7551613121039277,-0.16624728689862137 -2.630641307609252,-1.7170892582160273 m-13.78538208297158,-24.53436407571374 l1.584227408046116,1.0618552734077087 1.8094193778744667,1.4665229289759054 l1.5336459365054456,1.5864997135273884 0.6322102185994614,0.9502997530447156 m-11.300466757954421,11.919803233705819 l1.343468070025965,0.27330896978935937 0.9473005070298562,-0.3002457251880671 l12.884607633584103,-8.71253349228182 m24.058617653303845,-8.848600737059925 l-0.2265048352438664,1.0670883026562277 -2.0060775141544926,1.541642348616738 l-3.2515604998246754,1.8905030227669841 -3.6407792083784116,1.6734520716001713 m-1.7779774142163158,2.912393046321009 l2.9486358103476706,1.375041684689861 3.9465063500908464,6.325757986185719 l2.5336433076715905,3.5253382833946483 2.2984753507063638,2.49334847803843 m-10.78479201272678,-36.2539428478615 l2.8032264352877805,1.0582882501201345 2.3791035982582938,1.331607514797131 l1.7888417385275672,1.3586824940164766 0.7688685526556989,0.8519351799914859 " fill="none" stroke="black" stroke-width="1" /></svg>