<?xml version="1.0" encoding="utf-8" ?>
<svg baseProfile="full" height="93.96915031898503" version="1.1" width="103.30945513215768" xmlns="http://www.w3.org/2000/svg" xmlns:ev="http://www.w3.org/2001/xml-events" xmlns:xlink="http://www.w3.org/1999/xlink"><defs /><rect fill="white" height="93.96915031898503" width="103.30945513215768" x="0" y="0" /><path d="M28.5880784835284,25 m0.0,0.0 m2.590002610175741,11.636752637359042 l0.5415257995219129,0.16659896207772934 1.987921301016879,0.23802702476065835 l2.5417551991674996,-0.13396073697867106 18.017372324539792,-2.2140616244055282 l15.67852153145781,-1.1977222679280566 3.1192356030658486,-0.11794443885678925 l3.1697009404317624,0.32473215766066876 m-22.23733707653101,17.094565705550227 l1.2539496511169363,0.004969671722057698 10.724453839709254,-1.4937347337148323 l2.9210426223096118,-0.09867234548440909 m-17.317013948437996,-14.227475489719616 l0.6235623629630541,2.627870434041862 0.07331032555735532,3.080513548185481 l-0.21457006437864615,26.84491777744497 m-18.14410297088667,-19.691135679747212 l0.7742376415368172,1.1594488848956144 0.24190344581101075,1.2710070410595775 l0.07197842990743668,17.78530469159367 m-10.005528051582797,0.24674357370674832 l4.1639305210364626,0.6624055257618358 23.01641990858182,-1.7032090386448242 l20.57092341171859,-0.6983668538737209 3.2307126467189153,0.08682315016087658 l2.327468644101889,0.7368901626383088 " fill="none" stroke="black" stroke-width="1" /></svg>