<?xml version="1.0" encoding="utf-8" ?>
<svg baseProfile="full" height="104.54362309302721" version="1.1" width="100.7512821030665" xmlns="http://www.w3.org/2000/svg" xmlns:ev="http://www.w3.org/2001/xml-events" xmlns:xlink="http://www.w3.org/1999/xlink"><defs /><rect fill="white" height="104.54362309302721" width="100.7512821030665" x="0" y="0" /><path d="M25,25 m0.0,0.0 m16.699173125053235,14.92347382649896 l0.400694288504625,0.10184459257213017 2.9279921567790295,0.1345023387009679 l11.228559851050097,-1.0919715789706441 14.20249660532884,-0.9777334651893679 l4.079151016701211,0.24236709858907587 m-26.024275828009287,-4.13111349318106 l0.5028857181668017,1.5395403120311353 1.4669700569399817,9.526487355786672 m13.88703423021257,-11.652334080243417 l0.07962732018206238,1.5459324620025023 -2.0017077211932865,8.902726319875475 m-6.539222393971677,5.685572627538827 l-0.16871421713147158,1.3824639397169571 -0.7907558950609745,1.2610805457861622 l-1.9870114483142465,4.674038868531156 -1.709458849702427,3.5706565558627865 l-3.3855038606651426,5.695806690486556 -2.0719775130631195,2.6108768890149845 l-2.3900773647225884,2.516841154976022 m-5.367729088050206,-14.480028426857158 l1.7353209244781176,0.31997926307937113 2.0932594500579085,-0.023980004049476738 l16.058344396535094,-1.7261545876471995 14.32452527254497,-0.9480720765092446 l3.501681870416376,0.4158730308004647 m-26.279443867032725,11.11791408779407 l0.5430672149083546,0.748496658124423 0.2869189355540118,0.9371544141384593 l1.233963987001006,11.721381773767629 m-0.9107353975648158,-12.817172806834982 l15.414230237973571,-1.9690714136578003 1.1545914295050477,0.04336790320800814 l1.0083833196796574,0.3127866237247838 0.6260049699682472,0.7567282136136333 l0.11780336845380583,1.260471668976443 -2.060635747273456,9.3103371397598 m-14.664602122993449,1.6701746827034347 l15.988307299248094,-1.1818893071786132 " fill="none" stroke="black" stroke-width="1" /></svg>