<?xml version="1.0" encoding="utf-8" ?>
<svg baseProfile="full" height="106.813665075116" version="1.1" width="105.16968959891976" xmlns="http://www.w3.org/2000/svg" xmlns:ev="http://www.w3.org/2001/xml-events" xmlns:xlink="http://www.w3.org/1999/xlink"><defs /><rect fill="white" height="106.813665075116" width="105.16968959891976" x="0" y="0" /><path d="M25,25 m0.0,0.0 m25.111691304958796,3.6576285036593923 l0.019993849956469474,0.46003058822921333 -0.48914129687089924,2.1761311097003553 l-1.3383543459850282,3.121475502889548 -1.957444857045272,3.58910839720007 l-2.6466992315439906,3.465565382587709 -2.916798224356355,3.120153635191317 l-3.552520613424094,3.1763098037609563 -4.0571488942675815,2.9803187580578907 l-3.4142036169925483,1.9961387713890002 m18.446646814378077,-14.65304895219063 l2.237525470389902,0.15778784124733453 2.724558175403077,-0.23315285280072826 l12.340923627418702,-2.2984743420557754 1.2097286859481153,0.5248878227490896 l0.3634823624018458,0.5571048816484514 0.02438373876742856,1.4252067934887938 l-1.5272484052051507,5.609772313277966 -2.5519937457548263,5.649252653969941 l-2.863918079917978,5.309571350111401 -4.533312419427646,6.542386413266839 l-5.082825204574327,6.046320729791452 -4.562868938381295,4.445459253706171 l-4.970346077468049,3.977326193556537 -5.474645601590461,3.3656960814221626 l-5.678739535166097,2.6447084412615465 m13.734859155818155,-26.378858129096294 l2.293450287293585,1.8264701103860683 2.362885648500898,2.2583887229284527 l1.9068029448231676,2.3132504660989355 0.8964670167746416,1.572349449417206 m3.011741763152658,-30.045851147843784 l2.9914884641711015,2.0871952957635584 2.4542621771821618,2.4432827177136005 m-11.07950472543554,6.346641686107779 l2.9980215708080546,2.312144368255523 2.8498508075130515,2.775528758777106 m20.683934342569604,4.229168921819358 l1.8095739346586128,0.9600535032507335 1.378486785602396,1.2860926031833502 l2.016644483836394,2.61568743260043 " fill="none" stroke="black" stroke-width="1" /></svg>