<?xml version="1.0" encoding="utf-8" ?>
<svg baseProfile="full" height="99.7264295844204" version="1.1" width="111.85534769707806" xmlns="http://www.w3.org/2000/svg" xmlns:ev="http://www.w3.org/2001/xml-events" xmlns:xlink="http://www.w3.org/1999/xlink"><defs /><rect fill="white" height="99.7264295844204" width="111.85534769707806" x="0" y="0" /><path d="M25.906237492626047,25 m0.0,0.0 m16.37332131100805,4.656295137535953 l0.03114964936811333,0.5445051277583438 -0.2348931774402136,1.6007028803827377 l-1.0041657638590546,2.1942701171558165 -4.421471675810898,6.609941541938573 l-5.417433151086129,6.150783533564885 -6.232744684805917,6.1249434638135485 m11.21650996153502,-9.105089658307252 l0.7751547083764738,1.1664755270161324 0.17709077429769593,1.3687138778013368 l-0.2834209142528817,28.41488803576033 m10.045039837349709,-31.576109940511884 l1.7779211600037403,0.2233376912534541 2.7087178076675316,-0.07824894173982483 l18.79064058446889,-2.221211345137231 11.713386319747633,-1.064821038314413 l3.1104423386002353,-0.10360006317739877 m-20.52856526457563,-13.008402990808987 l1.0450027614830686,1.1764649378051155 0.3523062698959604,1.0980803954783407 l-0.05356985404570182,37.42944934259013 m-21.40883567760204,1.314751910797382 l3.7852701689207766,0.40939557946020017 30.38965620118385,-1.9844890627168394 l5.5552819197254575,-0.12313150392694418 2.6873185942982714,0.3515544075261108 " fill="none" stroke="black" stroke-width="1" /></svg>