<?xml version="1.0" encoding="utf-8" ?>
<svg baseProfile="full" height="113.97676492515573" version="1.1" width="108.86419986849626" xmlns="http://www.w3.org/2000/svg" xmlns:ev="http://www.w3.org/2001/xml-events" xmlns:xlink="http://www.w3.org/1999/xlink"><defs /><rect fill="white" height="113.97676492515573" width="108.86419986849626" x="0" y="0" /><path d="M25,25 m0.0,0.0 m43.12323018833203,27.0810308462086 l-0.27547031193927446,-0.04398083151469931 -1.343578517840023,-0.0048356634161042175 l-2.054640077087171,0.12443394895083346 -5.570837562784183,0.7652178410049656 l-4.7691418831931225,1.161754251786623 -4.2204538583573035,1.5495491230690035 l-3.0203539995199757,1.6204689417879314 -2.545154341784007,1.821006851374321 l-2.193081211437925,2.1613403660257635 -1.6113414356108857,2.5940843199676724 l-0.9513562421646025,3.1867489636789412 -0.06464924006124363,3.479575160608242 l0.7027406890106555,4.036926841665262 1.5757239940147563,2.8231854043625897 l1.7495213322293839,2.233291454121572 2.513057931828402,2.008031590089902 l2.9939077177110076,1.4574693845079645 3.5131025708312533,0.9901561729981806 l3.989090976794976,0.5195209449401789 8.538567454258,0.07388149070667545 l3.5008479066190867,-0.6536276210598976 3.2986299901699265,-1.0432471170018718 l3.2389484399413346,-1.546594590608164 3.164285342932677,-2.04461393530103 l2.669526750313598,-2.3705481420074723 1.7962837325824672,-2.6985616836505226 l0.9339592779759294,-2.7633450534690494 0.18283425473047263,-2.8939405460497034 l-0.5410840455976202,-2.845278826494132 -1.3463358704186086,-2.6456503183363247 l-1.906009230875612,-2.213617504144846 -2.505372848811483,-2.1418731383980742 l-3.320524840571865,-2.141743322985156 -3.9066399650659567,-1.8585091814435732 l-4.213038886775024,-1.5260196013183016 -4.083858795732294,-1.0941190219317913 l-4.158723441627006,-0.7824890418527051 m5.363621619283957,30.245288859252003 l10.365112493563128,7.356397309031939 " fill="none" stroke="black" stroke-width="1" /></svg>