<?xml version="1.0" encoding="utf-8" ?>
<svg baseProfile="full" height="104.87542249262333" version="1.1" width="109.49251196347177" xmlns="http://www.w3.org/2000/svg" xmlns:ev="http://www.w3.org/2001/xml-events" xmlns:xlink="http://www.w3.org/1999/xlink"><defs /><rect fill="white" height="104.87542249262333" width="109.49251196347177" x="0" y="0" /><path d="M25.000000558793545,25 m0.0,0.0 m20.045170783996582,0.1515532098710537 l0.32366715371608734,0.5145566165447235 0.4709296301007271,1.1636152863502502 l0.26488715782761574,1.9378642737865448 -0.194068793207407,8.031497597694397 l-0.5852563679218292,7.137575745582581 -1.3974419236183167,8.249459862709045 l-2.113061845302582,6.952721476554871 -2.8404074907302856,5.822904706001282 l-3.5791343450546265,4.860697388648987 -4.329586625099182,4.064721167087555 l-5.091075301170349,3.43704491853714 m-0.9746225923299789,-30.0180983543396 l2.035464495420456,0.25740763172507286 2.0261529088020325,-0.2463931031525135 l30.07396936416626,-7.265093922615051 1.5670353174209595,-0.1607234962284565 l1.293289065361023,0.3380657359957695 0.8361544460058212,1.0225605219602585 l0.08604682981967926,2.3211951553821564 -3.8246870040893555,16.420977115631104 l-1.3471761345863342,8.768845200538635 0.03630909137427807,4.980714917182922 l0.5625807121396065,2.127891629934311 0.6204338744282722,1.1080900579690933 l1.8719927966594696,1.577640175819397 3.621898889541626,1.0176460444927216 l7.713520526885986,0.30048493295907974 6.250552535057068,-0.38152027875185013 l2.847304940223694,-0.7900271564722061 1.9002728164196014,-1.424342393875122 l0.8585714548826218,-1.589883267879486 0.4628250375390053,-2.956975996494293 " fill="none" stroke="black" stroke-width="1" /></svg>