<?xml version="1.0" encoding="utf-8" ?>
<svg baseProfile="full" height="106.49187939671279" version="1.1" width="104.49405083354137" xmlns="http://www.w3.org/2000/svg" xmlns:ev="http://www.w3.org/2001/xml-events" xmlns:xlink="http://www.w3.org/1999/xlink"><defs /><rect fill="white" height="106.49187939671279" width="104.49405083354137" x="0" y="0" /><path d="M25,25 m0.0,0.0 m28.576152378079648,4.571253406765113 l0.4239663550548874,0.36919652728930724 0.7292924379178798,1.3743752429845693 l-0.009199631248296467,4.913122988879155 m-22.108942246608983,1.3738851129868095 l2.4267327250154698,0.22647477203352462 2.259616112988956,-0.042558034149436944 l34.118302274223026,-2.4078302160336262 3.339579883699747,-0.01247601361343244 l2.3995021421797524,0.32998388829800496 m-14.580505603140912,2.214903154227282 l-0.16599761859516615,1.4220226414783044 -2.591904208706015,2.7802668202407124 l-4.218450950585675,3.541537920783994 -4.704343261668933,3.280983717729974 l-4.221991170208715,5.029417258588252 -7.817256280952647,4.913445840011673 l-4.527386765738897,3.488360051134504 -4.7590131629306525,3.439545571508764 m10.27572660113437,-22.196122438196724 l2.190133093071881,0.6679873996910647 3.6472244116732147,1.7911438249085183 l21.127141673624912,11.26251149521878 8.196597266671423,2.835884219066711 l4.489074378591085,1.21194859211407 m-40.12563663095474,1.7129083788768695 l4.128036590784314,0.2101562512179179 18.591886269311193,-1.3818065115964147 l3.9668357459442447,0.15401811654876194 m-14.13189260341937,1.924552483588852 l0.7067710428062102,1.5871871774087112 0.07294629619303614,14.396621599875896 m-20.197673815756804,1.105539045124339 l1.9251543326590053,0.3288564660890844 2.4383939380789568,0.074582645632904 l17.822286849224465,-1.4213851978100784 13.275651820259,-0.7538006082650781 l2.8581860869353664,-0.02442441351917438 2.9170947952070727,0.4656246454463493 " fill="none" stroke="black" stroke-width="1" /></svg>