<?xml version="1.0" encoding="utf-8" ?>
<svg baseProfile="full" height="96.40317238372555" version="1.1" width="105.39291311584319" xmlns="http://www.w3.org/2000/svg" xmlns:ev="http://www.w3.org/2001/xml-events" xmlns:xlink="http://www.w3.org/1999/xlink"><defs /><rect fill="white" height="96.40317238372555" width="105.39291311584319" x="0" y="0" /><path d="M25,25 m0.0,0.0 m40.46395927397791,1.526120794245071 l-0.21794662138846918,0.5222231501515257 -0.8025814037848126,0.88445338088298 l-1.3157969786525483,0.6781331668212912 -7.361654859270272,2.8800903161647162 l-7.6503483018134375,2.0995619298106583 -8.828191398623408,1.9220637579694022 m-5.801444320129289,5.282907040067015 l2.141179819950557,0.36969726223563915 2.2239542028972012,-0.005729676778229455 l19.592692958308724,-2.009231606945422 13.194984620997847,-0.8802835805231497 l6.3061269156128406,-0.19045510183944606 3.447979207760339,0.3071134535988772 m-23.83579872733045,10.916006783035748 l7.165812942833749,0.7565158119908395 5.7027919704214955,0.7799785901471502 l1.2198233989355052,0.7619750176755546 0.12068166063237094,0.944724233783635 l-0.7072662232043982,3.487050611253598 -2.4785967803966513,6.261233473765688 l-2.662078931298089,5.007677856985094 -2.6436016454041567,3.4104489571386734 l-1.429508891329427,0.6908967620886364 -1.4036431821297115,-0.15134592851843057 l-1.2442640115715944,-0.8517263770500496 -1.6908102707772283,-1.7927853100247104 m-0.20625103359128846,-28.758991088535137 l0.026776939065398943,1.060619488924829 -0.33595250551051176,1.058089412320144 l-1.8178863481950813,3.4257743439452186 -2.604862034118508,3.668609001317052 l-3.583500256591963,3.9982388201038748 -3.4032269964376827,3.062892523888037 l-3.9031146754331236,2.88014224253056 -4.342589534311554,2.577842845165011 l-3.596821672412122,1.6802988103546723 " fill="none" stroke="black" stroke-width="1" /></svg>