<?xml version="1.0" encoding="utf-8" ?>
<svg baseProfile="full" height="105.31628946862799" version="1.1" width="103.03459096459983" xmlns="http://www.w3.org/2000/svg" xmlns:ev="http://www.w3.org/2001/xml-events" xmlns:xlink="http://www.w3.org/1999/xlink"><defs /><rect fill="white" height="105.31628946862799" width="103.03459096459983" x="0" y="0" /><path d="M25.338907763719213,25 m0.0,0.0 m22.113589742440006,3.4551431256814715 l0.3510057801662423,0.4255471023291249 0.5039208558907557,1.157451674685013 l0.08533080762137812,5.436773474252241 -0.1259985498693566,43.366520782420785 l-0.3048118823429714,1.0399129720291633 -0.5385682334953118,0.4349403372301934 l-0.7317323229367471,-0.04334783812214643 -1.7249869846868966,-1.0812093213559983 l-2.8535322946593005,-2.461529127660184 m-17.11312468184701,-29.002687021286214 l2.1714552946735135,0.3086958293997609 1.980206901280945,-0.26177378062307094 l12.986649132649207,-4.102583985129529 1.2188923770946714,0.4444346546188766 l0.549246187402944,1.2622995531296226 -0.6607501658831996,1.874287794621306 l-1.6592645143833453,6.197572802823325 -1.643506510240327,5.582332060694884 l-2.2243197232716088,5.4386875819360885 -4.270327632679058,7.71071999153987 l-4.446827530619559,5.431940032338712 -2.692109516729886,2.3574720554796165 m42.38754308500131,-43.084857264758604 l-0.023013537067449272,1.1248083434082088 -0.41927238990425725,1.0493869562922444 l-3.8718348487642222,4.78423959214264 -4.27977361233036,3.898844993476483 l-4.611300421792822,3.1122598271208792 m0.0733837086044609,0.9081788045330671 l6.272052433030944,9.217127455171777 6.276815504841127,7.444443771809004 l5.74473504718048,5.366282285631758 2.290126144212614,2.1552654522895422 l1.8857855522937155,1.0270178530507268 " fill="none" stroke="black" stroke-width="1" /></svg>