<?xml version="1.0" encoding="utf-8" ?>
<svg baseProfile="full" height="121.43760620923047" version="1.1" width="94.29888830790097" xmlns="http://www.w3.org/2000/svg" xmlns:ev="http://www.w3.org/2001/xml-events" xmlns:xlink="http://www.w3.org/1999/xlink"><defs /><rect fill="white" height="121.43760620923047" width="94.29888830790097" x="0" y="0" /><path d="M25,25 m0.0,0.0 m22.37891884510248,7.476694827403592 l0.13416039743541183,0.4205776137623261 -0.18602324948458154,0.8172575255058113 l-1.490265470820908,1.5444366009556372 -4.948967325678695,3.6049956994607415 l-5.473347450453507,2.8436088043534418 -6.465794218713543,2.4695631573578423 m-0.2013766040910521,0.9662974550405969 l1.8338878427591214,1.1482617114629872 2.1272161453836445,1.8995798819334704 l1.607053604889026,2.0524702481580515 0.6970113422377971,1.3145175207459832 m5.287347371020986,-9.954917408921165 l1.4956492085900497,1.359400153320224 1.3870620789455859,1.883597035867091 l1.152386733151614,1.9673521842665205 m8.133077437996272,-6.270495312737536 l0.0028675378767593776,1.2334066333434464 -0.25911696654858857,0.5351209121121976 l-2.69418906908282,2.8605360099763804 -3.0638143806402907,2.830287916464621 l-3.4662236442457477,4.506076713456775 -5.7111347953961,6.666758850313498 l-6.334458808238328,5.722389206236453 m11.232366839720315,-10.023875370201095 l0.5872408239912049,1.4069138130833951 0.8973573294525566,2.255075619547096 l1.301082060667398,4.157081909370552 m8.578087843440796,-18.355557596427612 l0.44397386852578213,1.1363336103067045 0.12086891818186501,1.22314890118635 l0.0633559989046022,12.221835252757035 0.333822956265807,4.686031094196875 l0.748285141611034,4.771800618997628 1.1119894418208984,4.501571286688519 l1.5764239749708613,6.926669637884684 1.1724080390226965,3.5453814160361254 l1.4067759771321493,3.340344841014785 1.6491170940535205,2.893005403669878 l1.893707577931688,2.561243391638314 2.081064781211507,2.082004565820011 l1.2277672941409676,1.0663413970006386 0.668695652263875,0.7331138274415422 l0.47127770693297644,0.387533428003185 0.34532787292963363,0.023835221376870296 l0.263100109717932,-0.3782398628513505 0.18286444301630655,-1.599719294462308 l-0.0722549860365766,-2.7849915891015957 m-25.782304124013233,-35.14974526769208 l2.8230701157652196,3.068036791916281 1.3596029543286106,1.769871346586277 l0.6489777953426697,1.2204969888624047 " fill="none" stroke="black" stroke-width="1" /></svg>