<?xml version="1.0" encoding="utf-8" ?>
<svg baseProfile="full" height="109.03976436784757" version="1.1" width="100.13651368264189" xmlns="http://www.w3.org/2000/svg" xmlns:ev="http://www.w3.org/2001/xml-events" xmlns:xlink="http://www.w3.org/1999/xlink"><defs /><rect fill="white" height="109.03976436784757" width="100.13651368264189" x="0" y="0" /><path d="M30.626141900973927,25 m0.0,0.0 m14.693319056177076,13.461230751528374 l0.4196367933335213,0.11715522913937088 2.876204199296125,0.04048288833413601 l23.11334323264706,-2.4266477184033834 3.407868500214176,-0.16607857481451757 m-16.378893306718386,-7.628376685087903 l0.6068467722792457,0.8191547422940756 0.32346369262664654,1.492099657976591 l-0.003607364896301309,16.35256759631664 m-21.75197845467011,1.6088246682900347 l1.2076408928109663,1.1505165506143082 1.672681240670146,1.4851227438109773 l1.7173329832381714,1.43281034551538 0.9094760368408229,1.3592942720896297 m-8.584071946060279,-7.4710333196273115 l3.238632149053962,1.4594812923844747 2.2639087466686094,1.3942194749078758 l1.6235662664453698,1.3788876750155759 0.7370942236932073,0.9617527442797359 m-8.173635000952396,11.122638712610549 l1.3094310349046725,0.08296482841240185 0.9913771102393407,-0.40417590798968706 l3.453791486298462,-5.583989313587621 2.7986088014291925,-8.621470780281841 m18.618897684290705,-11.066502372362148 l-0.3163961405080435,1.3467575024572538 -2.0285776548757197,2.524325164938635 l-2.4110466850299925,2.157490552400485 -2.784813801095536,1.8316141768810503 m0.1607949313050131,4.149190067846107 l2.634809476684786,1.5629684700269542 2.9264555536780823,2.0820714410329932 l2.392887289402439,2.194478448360235 1.3296739305035765,1.8674668086929516 m-38.62086363089855,9.972569062073946 l1.9311738197884405,0.37263647615313034 2.3130330170558997,-0.0020444672844057397 l21.19446898599913,-2.8159484718109575 14.182857289368101,-1.3345159110408562 l3.08580248364131,-0.058271640555086116 3.0659123729775164,0.44695871258832787 m-23.8377729950358,-5.837930747428431 l0.6247678091476307,0.8164361757542535 0.34920613237959575,1.1746980552044233 l-0.05415762638205901,24.23788499019083 " fill="none" stroke="black" stroke-width="1" /></svg>