<?xml version="1.0" encoding="utf-8" ?>
<svg baseProfile="full" height="99.70134493064387" version="1.1" width="119.09734605888917" xmlns="http://www.w3.org/2000/svg" xmlns:ev="http://www.w3.org/2001/xml-events" xmlns:xlink="http://www.w3.org/1999/xlink"><defs /><rect fill="white" height="99.70134493064387" width="119.09734605888917" x="0" y="0" /><path d="M30.23102974035676,25 m0.0,0.0 m14.185123010354461,4.238633951462294 l0.043596846686835555,0.5581433513387554 -0.241057789082047,1.8278896184513085 l-0.9161720511164707,1.5716958196397082 -5.888937816356783,7.889447785480559 l-5.631557310576398,6.675958961767856 -6.782024630266357,6.700379345607117 m13.531181442610587,-11.564434025734158 l0.6799625978065423,0.781378250872274 0.3441177800858589,1.062106648490611 l0.013530333642863377,28.99255968567525 m41.444751357711276,-41.336645911845714 l-0.5626447982715621,1.1748623077643066 -1.2096432021396486,0.9086816105987011 l-6.3127409374353,3.5212231272951016 -7.151545452875279,2.888946596112989 l-8.87628478395209,2.448064889741852 m-4.2530928403067625,13.33503735463363 l4.630982968002123,0.3010983261177498 26.014831463189218,-2.0682709274716182 l7.329649520706771,-0.2794933166659701 3.4742906101145707,0.28133146270891074 m-21.937191628235126,-13.203006102841584 l0.8274916705889785,0.9442482385993364 0.3154055897583186,1.1142824195046777 l-0.1271526433552349,29.55258830950618 m-16.39302071762599,1.2625722434679916 l4.799671839903336,0.12206491036576292 22.601209123979306,-1.3244448728953762 l4.493299584806145,-0.10740790328540262 2.5649071348374024,0.18567476187224016 " fill="none" stroke="black" stroke-width="1" /></svg>