<?xml version="1.0" encoding="utf-8" ?>
<svg baseProfile="full" height="109.12798489560373" version="1.1" width="109.49251294136047" xmlns="http://www.w3.org/2000/svg" xmlns:ev="http://www.w3.org/2001/xml-events" xmlns:xlink="http://www.w3.org/1999/xlink"><defs /><rect fill="white" height="109.12798489560373" width="109.49251294136047" x="0" y="0" /><path d="M25.000000093132257,25 m0.0,0.0 m24.61033821105957,1.8392403423786163 l0.6799636036157608,0.35856541246175766 2.574315667152405,1.620684266090393 l2.2910627722740173,1.9698600471019745 1.9424737989902496,2.388479858636856 l1.1893494427204132,2.1067917346954346 m-26.015455722808838,9.783964157104492 l1.8528813123703003,0.5780473351478577 1.560630053281784,-0.01716536353342235 l35.54981470108032,-6.014235019683838 1.542242020368576,0.1028943806886673 l0.9538270533084869,0.4229233041405678 0.338808111846447,0.7147833704948425 l-0.30222779139876366,0.978083461523056 -0.9694763273000717,1.2136059999465942 l-1.6635243594646454,1.4201772212982178 -11.129807233810425,7.8982192277908325 l-12.744035720825195,8.037107586860657 -14.84965443611145,8.301581144332886 m-7.411525249481201,0.40062297135591507 l7.230775356292725,0.9625320136547089 8.785536885261536,2.1185287833213806 l23.444268703460693,7.973336577415466 7.661132216453552,2.2626982629299164 l5.537908673286438,1.137511059641838 6.83289110660553,0.5691467598080635 " fill="none" stroke="black" stroke-width="1" /></svg>