<?xml version="1.0" encoding="utf-8" ?>
<svg baseProfile="full" height="98.34104466188673" version="1.1" width="104.82047457809884" xmlns="http://www.w3.org/2000/svg" xmlns:ev="http://www.w3.org/2001/xml-events" xmlns:xlink="http://www.w3.org/1999/xlink"><defs /><rect fill="white" height="98.34104466188673" width="104.82047457809884" x="0" y="0" /><path d="M25,25 m0.0,0.0 m28.627328536565237,5.0333455040477775 l0.5336543328851993,0.2644348286794924 2.0553273243620587,1.3898968388656776 l1.7966697602771613,1.7530928557664507 1.5915469584307143,2.0458845100217484 l0.8770842105442265,1.768620790317223 m-22.08182090392685,6.385941183311488 l1.9393558361274212,0.43166679370809397 1.4701631862326021,-0.07316934041161478 l28.175326317648512,-5.011913049362196 1.6919545775869256,-0.1372793271840981 l0.9203284656876073,0.3217238434129187 0.3706873765693203,0.595123828326343 l-0.2139751743574514,0.8293263621058 -0.9356294617379785,0.9872885630203054 l-1.3383637265935813,1.1970698063730885 -9.163333995718327,6.445013640771398 l-10.284499868568659,6.0110401846350925 -12.203631831872782,6.281854658266287 m-6.0362344490196,0.29965117740606095 l5.620575625761242,0.8299389620639681 7.310369120139916,1.817119977551267 l22.67753606957149,7.2712922038791215 6.5687364040694085,1.1520944481524136 l4.851319887435044,0.45198541816261373 " fill="none" stroke="black" stroke-width="1" /></svg>