<?xml version="1.0" encoding="utf-8" ?>
<svg baseProfile="full" height="102.0518497580614" version="1.1" width="125.01490257000326" xmlns="http://www.w3.org/2000/svg" xmlns:ev="http://www.w3.org/2001/xml-events" xmlns:xlink="http://www.w3.org/1999/xlink"><defs /><rect fill="white" height="102.0518497580614" width="125.01490257000326" x="0" y="0" /><path d="M25,25 m0.0,0.0 m18.343070903102284,3.2019704162081664 l0.03734755272154764,0.5550872995025901 -0.10884438597595111,1.7146507033048748 l-0.7257423251021597,1.5375418715618772 -4.830163687590658,8.03962871582592 l-5.19310554838573,6.935415741602938 -5.965837452625007,6.636113204752473 m11.336613128840689,-10.988889687960675 l0.6667873396652958,0.8639401648155565 0.2573801502839448,1.1278960354907008 l-0.03928960196951119,31.852306798026493 m26.33638033329026,-40.25764984618609 l0.10216677302438051,1.7399334204043255 -2.5583544701649106,5.2941904288298565 l-3.0906195811512913,4.794612534684985 -3.6168184252095026,4.34892235711239 m7.876705267960595,-6.623690921759696 l2.2709007584467473,0.12931315896482903 4.458529041415745,-0.4730392629912326 l18.818699257593316,-2.778567869649687 3.574961081354515,0.04482462534158124 m-40.44332401775714,16.572371649545538 l2.2733435476225807,0.32035504293437295 2.4677887809156975,0.020082868368529575 l32.301836694017084,-2.5268758055036633 7.240187156575431,-0.30008789391282115 l3.224304299105015,0.19791208469138413 m-24.698904828262755,-27.338724678181972 l0.9815611802372803,1.3074764100656884 0.27641198841902404,1.5750343964300786 l-0.03949808138137964,44.52979579574208 " fill="none" stroke="black" stroke-width="1" /></svg>