<?xml version="1.0" encoding="utf-8" ?>
<svg baseProfile="full" height="109.67321945738708" version="1.1" width="102.14589622361747" xmlns="http://www.w3.org/2000/svg" xmlns:ev="http://www.w3.org/2001/xml-events" xmlns:xlink="http://www.w3.org/1999/xlink"><defs /><rect fill="white" height="109.67321945738708" width="102.14589622361747" x="0" y="0" /><path d="M25,25 m0.0,0.0 m16.784992555379088,3.86954037899243 l0.057659310997268,0.5750604807428541 -0.1092517041027629,1.8140759170176084 l-0.5329050133956789,1.7423299365562988 -3.3841651135223105,8.508271235544475 l-3.6642751708407215,7.192937869852163 -4.368693671761579,7.181934940389901 m8.537097881233636,-11.734120553798245 l0.413046227284229,0.8635587793895133 0.19035442681085432,1.2522340493559003 l-0.04833543810368843,33.22688855859978 m17.217303528682983,-49.81274227913009 l2.819095921486462,1.6520347862061473 1.3922726794394262,1.55411151186599 l0.7922372067733516,1.1414205390493093 m-14.656844151848555,7.919226138922169 l1.959676716576523,0.2118323078177089 2.1170676974753513,-2.1538422311645276 l8.671271277359772,-2.386434938210749 4.994558356439551,-2.3908690951988016 l3.143768543690547,-2.6512480846730124 1.1543975715782844,-0.2414653188482477 l0.6258175181100936,0.3635072253777952 0.32422033118248766,0.5958366428735953 l-0.22296061627339459,1.7396938641329955 -3.8808254016781283,2.0983451405238887 l-12.115425374620884,3.107150481239177 m-2.8563281193010903,4.743330880060137 l2.819271900851426,2.390340677016948 3.205593935359076,3.152451692501467 l4.043275956495353,2.988009082061912 2.9545218232514934,3.167884568880507 l2.3427262692446,3.8882256102059003 0.9394454227221289,4.347455433953584 l0.10636250878628943,5.916591014964749 -0.6397754950838145,5.707209141614646 l-0.7370996097702349,3.4921711347927786 -0.989356088018428,2.973578104579222 l-0.6594421759596983,1.0286644478764546 -0.6481484638884685,0.5095344870783172 l-0.6196115374081834,0.1285048983744242 -1.110295069763219,-0.5860566307632803 l-1.77140272955763,-1.9736300284845445 m-9.766459960771748,-28.102158462309074 l2.129780121114521,0.5033251014137278 7.756683969624871,-1.480477995936293 l8.637129148263782,-1.6290952532009557 6.317553489255328,-0.16707083529376188 l2.4803148338188787,0.4781602534204757 " fill="none" stroke="black" stroke-width="1" /></svg>