<?xml version="1.0" encoding="utf-8" ?>
<svg baseProfile="full" height="100.04349615460826" version="1.1" width="108.27271917374074" xmlns="http://www.w3.org/2000/svg" xmlns:ev="http://www.w3.org/2001/xml-events" xmlns:xlink="http://www.w3.org/1999/xlink"><defs /><rect fill="white" height="100.04349615460826" width="108.27271917374074" x="0" y="0" /><path d="M25,25 m0.0,0.0 m27.44309113479796,5.423327644769285 l0.03408021975386531,0.4464960265081462 -0.41803728731367185,1.8488146292757173 l-1.4285216595573238,2.823196229159092 -2.3347069948819685,3.149953595601085 l-3.027933319836403,3.2462267952096715 -3.3352069947236287,3.0246004043247674 l-3.9703732261119793,3.0497155306871884 -4.60572986162651,2.894447629533811 l-3.605959458110537,1.9031491903484457 m19.34240212503365,-18.857966954640766 l8.098406695726268,0.3148455756410813 14.370683507754205,-1.263645188771338 l1.5474212658857216,-0.08244019711280305 1.038580668911757,0.2426066251759088 l0.8800544516128241,1.0087988705240991 -0.14941765497739243,1.29504783242333 l-8.432802908921676,6.037067001416575 -5.605094616042618,7.027252171427248 m-7.785056489805081,1.7793630362852177 l0.31901449879772287,1.0289037454176242 -0.10639043389733449,1.2546164259091344 l-1.2968198376916642,3.440528308237061 -2.121761858450769,3.8231873075690364 l-3.2634157018189116,4.220715723744319 -3.1965291399759836,3.1698873447725053 l-3.7439804320379615,3.0449841330074867 -4.4650129871022965,2.8312468413372374 l-4.026015731738685,1.918569876828089 m25.01254372492685,-19.433532263475016 l9.966336412168832,7.540940057989585 10.597085480729202,7.396406056405458 l3.4492878472072253,2.1847059088382186 3.0924977350570404,1.116474995521809 " fill="none" stroke="black" stroke-width="1" /></svg>