<?xml version="1.0" encoding="utf-8" ?>
<svg baseProfile="full" height="109.70382336974376" version="1.1" width="111.62729149460307" xmlns="http://www.w3.org/2000/svg" xmlns:ev="http://www.w3.org/2001/xml-events" xmlns:xlink="http://www.w3.org/1999/xlink"><defs /><rect fill="white" height="109.70382336974376" width="111.62729149460307" x="0" y="0" /><path d="M25,25 m0.0,0.0 m29.761013623941903,5.434880197543641 l0.577630198400858,0.3632869909170421 2.250413297702926,1.4565200486313534 l1.9382950232412612,1.7860864978911855 1.6931984920555436,2.112324788021613 l0.9661901141088453,1.864114317785546 m-23.951732584468143,8.326099984213572 l1.960547130638688,0.48682804210267244 1.647534663055389,-0.047056272020262135 l30.39192346988092,-5.703649044185837 1.5469344717235038,-0.013277989446593063 l0.833873394659711,0.36317891597207663 0.3020868533625577,0.6490124367081005 l-0.3573849784086784,0.9152396666621776 -0.986928391581483,1.1337186869142284 l-1.3498684111098647,1.456840807483298 -9.613287164520168,7.460469222153485 l-11.029628263627416,7.060592666131785 -12.849953523812776,7.050331888990156 m-6.3322370056662285,0.2900565321325781 l6.129010423005545,0.9605419226311079 7.571186986364215,2.297286437544989 l22.4526937958337,8.439673187506015 6.823465215141062,3.306446903586288 l5.004835844406664,1.491295773416681 6.247478820274541,0.7629807604568486 " fill="none" stroke="black" stroke-width="1" /></svg>