<?xml version="1.0" encoding="utf-8" ?>
<svg baseProfile="full" height="100.07888098241574" version="1.1" width="93.51470517455031" xmlns="http://www.w3.org/2000/svg" xmlns:ev="http://www.w3.org/2001/xml-events" xmlns:xlink="http://www.w3.org/1999/xlink"><defs /><rect fill="white" height="100.07888098241574" width="93.51470517455031" x="0" y="0" /><path d="M25,25 m0.0,0.0 m39.4870284663668,6.97189330585499 l-0.24603173414320392,0.4266065863405156 -0.705073409144355,0.7425960046521521 l-1.2604663114328174,0.4403774932587336 -7.623870843897478,2.3475531377845336 l-7.925816939027668,1.7084092500257642 -9.11471609565967,1.6414562372982602 m-4.335145458993345,5.645543818461396 l1.8264016900174855,1.1658974470980146 2.3500968451827293,2.6946564390958265 m10.625071748103835,-8.162440984976506 l2.173272602394859,2.0611643042169616 1.469073903502213,2.620026695492128 m15.338290120131505,-8.837726672827767 l-0.2903425653624216,1.3235837906748011 -2.0271018684523447,2.783633168884312 l-2.1119726391452,2.4516766292503753 -2.541037960079933,2.442213945840692 m-30.392625258448284,8.44709062096575 l3.263071780250196,0.1898512956702058 2.9313254605830243,-2.3043325471160263 l23.36669938211437,-4.396390214132732 4.083594484362439,-0.290394340713984 m-16.81012787667968,-9.517080102203227 l0.7776794576629636,0.9490379075913964 0.3502315232914348,1.0146660888856152 l-0.09372372598787163,17.441209994141715 m-1.972733618017568,1.7112286165457837 l-0.014961063422495072,0.7624998206701196 -0.6934938718113304,1.0060118420139041 l-4.905200143874841,5.209320256122207 -6.357047171611545,4.469321833610178 l-6.317023262418867,2.895748579607776 m15.925445281893433,-10.4244929103666 l2.914679382527049,0.93002237278224 3.788443555362585,1.7861985853914182 l15.80633830374189,8.178922417554636 2.776473004672425,1.5533202689701853 " fill="none" stroke="black" stroke-width="1" /></svg>