<?xml version="1.0" encoding="utf-8" ?>
<svg baseProfile="full" height="94.64372975965742" version="1.1" width="105.44357900001597" xmlns="http://www.w3.org/2000/svg" xmlns:ev="http://www.w3.org/2001/xml-events" xmlns:xlink="http://www.w3.org/1999/xlink"><defs /><rect fill="white" height="94.64372975965742" width="105.44357900001597" x="0" y="0" /><path d="M25,25 m0.0,0.0 m25.652169066838663,0.8297661267867686 l0.04136533351293004,0.44854481129109697 -0.21830249723910658,2.0868910128713667 l-1.559721597566274,3.2868423966455973 -2.454054158639843,4.059341982206929 l-3.365630530323929,4.524554149684457 -3.297535996020151,3.551824212626135 l-3.8529699194295306,3.5202962918653022 -4.313348763203181,3.4526484373447945 l-3.711943422718549,2.579127211342521 m24.36676845070016,-24.39637966369015 l9.00739895762198,8.099139735487197 13.039604282254802,10.427060987304463 l2.6725640051148627,1.9051311471131573 3.4372157891131407,1.126352665323842 m-37.50806710027906,-3.601709144823937 l2.953762881261247,0.11808325830395885 11.489639017602533,-1.356313842889905 l3.2231309831128483,0.0665412257934565 m-21.701698035680355,11.100219279272896 l2.1550825083835456,0.20405075458162494 1.8317881880079947,-0.09709899647229199 l17.862358743338245,-2.341747188314223 1.6469697058182589,-0.053261743125612625 l1.2319647869617885,0.19926843835982314 1.0263228215564142,0.35428566564495667 l0.4545791694886046,0.48589040662178906 -0.05059112241865102,0.7182144372323283 l-0.5453414682238164,0.9060261425533224 -10.560066444071767,12.44013956271575 " fill="none" stroke="black" stroke-width="1" /></svg>