<?xml version="1.0" encoding="utf-8" ?>
<svg baseProfile="full" height="88.52806827336752" version="1.1" width="101.43812295304738" xmlns="http://www.w3.org/2000/svg" xmlns:ev="http://www.w3.org/2001/xml-events" xmlns:xlink="http://www.w3.org/1999/xlink"><defs /><rect fill="white" height="88.52806827336752" width="101.43812295304738" x="0" y="0" /><path d="M25,25 m0.0,0.0 m29.159587859937037,6.222193127424822 l0.32647168400358667,0.4050241546655818 0.43886583660682016,1.013088302554872 l0.12528346601831894,1.1104647215986594 -0.07042519660067702,7.101857393270675 m-19.504740238308088,1.7741332681894557 l1.9737420065818683,0.3175769788000255 2.1403084306849314,0.022153634109226324 l20.13286509743094,-1.8421189287114748 11.026674054206028,-0.8247644297747966 l2.790926330640609,0.0194820794410512 2.637966084813889,0.43774279166997765 m-27.264951149732248,2.551323472112512 l0.4276618124577718,0.6944749540799152 0.16583320283747824,0.9976554336519562 l-0.2336014189361174,6.329348575778697 -0.7543785426593083,4.763421373029877 l-2.7365790084009904,4.34873084780145 -2.4102787453945376,1.9164812179505935 l-2.268909264465878,1.1697993057244502 m20.13308084833817,-21.87102264685967 l0.5129102959376519,0.7681510048591641 0.20030330944536467,1.3674305664289543 l-0.10698048156638797,18.036219554309046 -0.2786367055052268,1.1152001419123847 l-0.47488517756362775,0.42934810270580065 -0.6073524831153687,-0.054733205463767275 l-2.266658337652588,-1.7645444354529012 m-15.575816736970364,-12.178945273978835 l-0.05099346361931316,1.3094003702101205 -2.2467929782516185,3.513693916939965 l-2.602321084164019,3.1299388322261503 -3.1364803221626296,3.0286089963362075 m34.608224251513334,-10.529416092115724 l1.9692187043587017,1.60149832139232 2.355662506000806,2.60495762766863 l1.9883428255254294,2.76111267366141 0.9149756807776422,2.038900591269948 " fill="none" stroke="black" stroke-width="1" /></svg>