<?xml version="1.0" encoding="utf-8" ?>
<svg baseProfile="full" height="109.36559979288583" version="1.1" width="95.2301473681429" xmlns="http://www.w3.org/2000/svg" xmlns:ev="http://www.w3.org/2001/xml-events" xmlns:xlink="http://www.w3.org/1999/xlink"><defs /><rect fill="white" height="109.36559979288583" width="95.2301473681429" x="0" y="0" /><path d="M25,25 m0.0,0.0 m15.979324709889099,20.38491604246837 l0.4475889062425099,0.2418395144763132 1.4073926210085475,0.3627631126358809 l1.649462810894923,-0.05828693842951649 15.64135402405677,-4.3879497989752885 l1.8610409931325034,-0.19603643939342558 1.2931451478657345,0.20728033332418294 l0.5830800936776986,0.4562936928370569 0.2590565751745378,0.5709063721489543 l0.015044567524063785,0.7501538990104452 -0.539735814649915,2.2678697298054655 l-1.6121829207248823,3.660880932427585 -4.450306195253214,5.954135611648466 m-1.461904811335762,1.2285420772403222 l0.42887659978899084,1.5168820101976812 0.0197882950083162,1.5696976206181168 l-0.4042480914652125,16.07615082715004 -0.20497569670666885,2.500775777565317 l-0.30272438209320046,1.2558111336604731 -0.43111404886774507,0.7187012964793988 l-0.4577504398577087,0.26116485880458573 -0.4904600049242533,-0.10478302012420332 l-1.9221761181006871,-2.0873586813168585 -0.8896358991187662,-1.6710025760444243 m-16.81853229500511,7.486230875058071 l1.8881935956691904,0.400021529612825 2.178664187057736,-0.10133959659866948 l15.240853617119893,-1.9718554755491482 10.209406178640279,-0.7504975714254482 l3.414326285546013,0.046003833614400524 2.6992948779491934,0.5855159966298166 " fill="none" stroke="black" stroke-width="1" /></svg>