<?xml version="1.0" encoding="utf-8" ?>
<svg baseProfile="full" height="116.47896953321786" version="1.1" width="111.46086118709304" xmlns="http://www.w3.org/2000/svg" xmlns:ev="http://www.w3.org/2001/xml-events" xmlns:xlink="http://www.w3.org/1999/xlink"><defs /><rect fill="white" height="116.47896953321786" width="111.46086118709304" x="0" y="0" /><path d="M25,25 m0.0,0.0 m30.825373468978825,3.1611563843759076 l0.02938482135100921,0.47003738905534626 -0.5392930797034194,1.7331749723167518 l-1.8904946490902008,2.833089944378689 -2.681990676515259,3.6657945193238755 l-3.426612842707667,3.929415674397785 -3.3315165230270862,3.254609746016546 l-3.865582923321896,3.266475698598509 -3.2326299290971354,3.160103695146287 l-4.405613314169316,4.106420967843778 m22.952137683803628,-24.749180578000225 l18.118725562420344,16.54712838823573 5.337113709079437,3.7582833036186103 l2.8928154978602154,1.606386631101084 2.548202918124516,0.7692723049289597 l2.1308414631070556,0.3708727485461725 m-39.16569892658844,-3.2398279409549717 l3.086793078639012,0.22234385865612094 13.729071687436441,-1.6011054070688424 l3.6166107300201666,0.028275502484172772 m-24.185038648361807,10.041242861571826 l0.8489997214212516,0.23880456550619425 0.9996210321551392,0.09940987951486391 l8.615976111597442,-1.1570478070551955 7.483229360134939,-0.8376361627400303 l3.3492576604875244,-0.20856365826338588 1.2848778348088998,-0.010571243932088397 l1.1464672801311153,0.503491695867383 -0.12228036332547101,0.6640330529036567 l-0.6575332946020119,1.9454736525341867 -4.162089130858706,13.885518610487248 l-0.8019127259623172,2.5649540785970135 -1.306076905346764,2.5627070644648207 l-0.6318660714960809,0.5524690669102327 -1.18912836177582,-0.33436581843017776 l-1.5573268900827424,-1.4795611103354818 m-11.308656862595738,-16.435028456060046 l0.9220052334487197,1.0423364800220596 0.3781972460034944,1.3448269246865512 l-0.10398909958974169,28.20374805396795 " fill="none" stroke="black" stroke-width="1" /></svg>