<?xml version="1.0" encoding="utf-8" ?>
<svg baseProfile="full" height="96.7946025157002" version="1.1" width="105.40210930037884" xmlns="http://www.w3.org/2000/svg" xmlns:ev="http://www.w3.org/2001/xml-events" xmlns:xlink="http://www.w3.org/1999/xlink"><defs /><rect fill="white" height="96.7946025157002" width="105.40210930037884" x="0" y="0" /><path d="M27.088918532214137,25 m0.0,0.0 m38.35865204477729,6.575025110840086 l-0.24169090403053423,0.44789768370551514 -0.6784951957644183,0.7839912063728395 l-1.121209175713247,0.5498814693788213 -7.101182312033265,2.726113337801915 l-7.386911862260297,1.9737310547821618 -8.95001159560973,1.8576140420402878 m-5.582355984584235,5.044035666010114 l2.014232955272254,1.3105555576834473 2.5944271873938205,2.9234203630486832 l1.9619033627279432,2.8871851567709133 0.8728491876862807,1.9212823207924647 m31.212848887320888,-14.310048309192679 l-0.7231509860112352,1.8757118345374448 -2.8416094912137844,3.437886742226871 l-3.0664129547031305,3.312011617888865 -3.5438982565993995,3.1453404055477105 m-37.86690343886933,7.205222403657174 l3.995620038784532,0.21266071578250736 3.9269665371587497,-0.15820483379335762 l19.399350095120322,-2.1659222813866563 22.083770650228455,-1.516228227660751 l5.99640197908679,0.3417713332718003 m-30.83208366301636,-16.653831593948453 l1.2968432759937605,1.524521191141014 1.557496402332415,2.97497394251116 l1.1248199625457782,3.75006822675263 0.7159286467952491,4.1829632819352165 l0.3771742157653139,6.176062294616416 -0.5055426624807905,6.189912018499989 l-1.4669906258896428,5.841751727755169 -1.8401405177710428,2.282332635106083 l-1.48004828601263,0.14491442122480236 -1.5096929738970224,-0.46299716696091264 l-2.760167255836702,-1.850998406472874 " fill="none" stroke="black" stroke-width="1" /></svg>