<?xml version="1.0" encoding="utf-8" ?>
<svg baseProfile="full" height="96.51415310581112" version="1.1" width="97.6883340533962" xmlns="http://www.w3.org/2000/svg" xmlns:ev="http://www.w3.org/2001/xml-events" xmlns:xlink="http://www.w3.org/1999/xlink"><defs /><rect fill="white" height="96.51415310581112" width="97.6883340533962" x="0" y="0" /><path d="M25,25 m0.0,0.0 m29.334649409371682,3.7560433484300093 l0.394246232868695,0.39017938821924586 0.546113805717589,0.9979046247333478 l0.19503248829242195,1.0769833790338612 -0.043509976067722805,40.29304236539465 m-16.953956326690076,-39.69423964274106 l0.6092904767516817,0.911816316450893 0.16671135383425106,1.315552611350528 l-0.9319669827491519,3.3835132861021866 -1.4322761443546317,4.222926374595583 l-0.028316443178735468,0.8451614082307747 0.560079004336846,0.5225587468375729 l0.8620606757035273,0.012780758667696665 14.031454946900478,-1.5394793760041716 l17.12930394096447,-1.054819328221731 m1.073410146712258,-10.010896597064724 l0.43612207313693313,1.0041117688541028 0.12729512325276898,1.1456445424696287 l-0.9866297447654071,9.462840799878364 m-35.34272510675102,10.337984471372572 l0.5912715026230514,0.8258933852851635 0.23697272114501738,1.0549819708440795 l-0.8535894016056674,5.0540379697774505 -0.9780994068849719,3.88974915295967 l-0.027130465080179512,0.5794345645412977 0.4184177583116698,0.4102772143246715 l18.44981855901732,-1.3580576138307294 10.360408383708517,-0.8631599005202734 l8.779178118682212,-0.6900469298665796 m0.0340860666523818,-10.9041710886601 l0.7529923024266252,1.3782278912317414 0.177618961113359,1.0965316386172763 l-0.605887194918642,11.172147105082937 " fill="none" stroke="black" stroke-width="1" /></svg>