<?xml version="1.0" encoding="utf-8" ?>
<svg baseProfile="full" height="103.88936344808043" version="1.1" width="104.42780217875074" xmlns="http://www.w3.org/2000/svg" xmlns:ev="http://www.w3.org/2001/xml-events" xmlns:xlink="http://www.w3.org/1999/xlink"><defs /><rect fill="white" height="103.88936344808043" width="104.42780217875074" x="0" y="0" /><path d="M25,25 m0.0,0.0 m28.167803021489277,5.5072079830010745 l0.027997525558711277,0.4126712994490157 -0.6292674621302689,2.6701896990729783 l-1.9004604795068687,3.5621009520274214 -2.989004284383792,4.399248051458553 l-3.0570982730688745,3.718471234976667 -3.7057157244866525,3.864765943962315 l-4.067682986421621,3.6816060186118897 -4.374980511902295,3.457194702638463 l-3.485593726909051,2.2611952218800466 m24.213353533432347,-25.729510938186575 l7.791456162624627,8.042880411763564 9.654832422840908,8.93042713290801 l4.9427851825314715,4.4859388378560245 3.8393777790828123,2.697137515587789 m-32.992414155358496,-5.051920510893651 l0.46391460702178133,0.8026945039019473 0.16272056929335524,0.9664939923659496 l-0.08803618639044002,5.6595392334665116 -0.4061879389088112,4.401429479340225 l-0.9241782631960833,4.360447544934507 -1.211882623433253,3.2783274379407445 l-1.2953680752926229,2.3244480435746793 -2.38750804177699,2.8143405475598597 l-2.2373166067820014,1.7728742316519166 m22.929107291979122,-29.05802047938336 l0.5190999638668921,0.7969388879873824 0.19665868336675982,1.4580233132792386 l0.021318351141863107,27.40222315534724 " fill="none" stroke="black" stroke-width="1" /></svg>