<?xml version="1.0" encoding="utf-8" ?>
<svg baseProfile="full" height="115.51023725264477" version="1.1" width="105.42360378185757" xmlns="http://www.w3.org/2000/svg" xmlns:ev="http://www.w3.org/2001/xml-events" xmlns:xlink="http://www.w3.org/1999/xlink"><defs /><rect fill="white" height="115.51023725264477" width="105.42360378185757" x="0" y="0" /><path d="M25,29.41031432269616 m0.0,0.0 m12.718372844369283,12.568535353260044 l0.5007086768919065,0.11539518357212579 3.2254809755689196,0.11412193308720982 l24.61912418037919,-3.159747951534924 3.6063481698973585,0.2443360172762247 m-17.740679332232254,3.75047207606571 l-0.009819787831183367,1.5124658700703268 -0.266712799324081,1.4693317730750293 l-3.7278124020366192,7.214065488257326 -5.944144892482012,10.244574706205537 l-6.1562345605131705,8.878490124770194 m12.303061091448257,-14.063727893533459 l0.6453405932794132,1.1415635521392518 0.24954935166560543,1.3625531547682013 l0.00940770326413514,29.7074935424698 m5.205540348844105,-38.38909650159943 l1.6738702404443533,2.7336224378776235 1.798359863799424,4.747312068410814 l1.4883085965282616,4.684875207886971 0.8939562476109048,3.9440443978806115 m9.916647933977975,-43.230994863101344 l0.3391565602783668,1.5462701812318815 -0.20426798255809564,2.1467407678477612 l-3.409916307859836,12.15517764696906 -3.3123465958435276,6.482382581757113 l-3.585868711793024,5.30718055587351 m9.108582936409602,-10.999301574275856 l1.355208622414464,-0.08655609989233186 9.056433536813945,-2.758955032905959 l1.067948680445892,0.691637422786267 -0.11050605760129315,0.757755759396447 l-0.476475210178397,4.625821033497884 -1.3101052057622455,7.123684099959232 l-1.593323318567628,6.2638667389654135 -2.070286151755302,6.366196881655158 l-2.119908835730754,5.076502856039952 -2.459987317591589,4.531040362345295 l-2.735869383016971,3.809602856357471 -3.0158543446827983,3.1042886722860255 l-3.517274606299149,2.3430684243092332 m6.407019015060423,-30.93443998740651 l2.109656263988069,2.459337092357236 1.541292826023704,2.8811118886015596 l1.167850640419251,2.6956145516778856 0.641842541582361,3.2985465427233405 " fill="none" stroke="black" stroke-width="1" /></svg>