<?xml version="1.0" encoding="utf-8" ?>
<svg baseProfile="full" height="111.00634109296979" version="1.1" width="102.43448829948841" xmlns="http://www.w3.org/2000/svg" xmlns:ev="http://www.w3.org/2001/xml-events" xmlns:xlink="http://www.w3.org/1999/xlink"><defs /><rect fill="white" height="111.00634109296979" width="102.43448829948841" x="0" y="0" /><path d="M25,25 m0.0,0.0 m15.061133803522239,3.396961787290474 l0.04119828083840445,0.5574075020730914 -0.25796978272916193,1.7598136156307336 l-0.9975684627254218,3.0797557742556236 -3.4261873754925287,7.458457317545733 l-4.418873024595873,7.346338004588684 -5.448865601328381,7.072419172981084 m9.674350355844705,-11.675230359689074 l0.5977593994446042,0.9279112874183265 0.2754419670293781,1.1469741808239986 l0.041423140877463425,32.05830348786252 m11.4894539066391,-34.578229797856984 l0.6237770694343905,0.2600329219944726 0.7686112665531983,-0.022452233208699948 l22.663785107931517,-0.3236204955348482 5.747018248244766,9.847811691229156 m-16.167134868646844,-10.150325809998094 l0.5256416565869713,0.5837642202917437 0.26324023967633364,1.3563129096036353 l-0.11211742950175035,12.924229037556568 m-11.471281298658274,1.2632677899729412 l2.5064786901869334,0.11753723665942399 16.955492223406278,-1.3733293802820208 l5.76781912934443,-0.14998331050691127 m-24.080596113374593,11.999762740600323 l0.6758440696508775,0.8407204781709796 0.7864930584135255,2.7219130619757816 l1.768496586998737,12.559818261521116 m-1.8252432101182738,-15.170474168710605 l19.03879545538233,-2.156802866056561 1.3017513405025354,0.4976512238536893 l0.487758468588824,0.9993471268480753 -0.0731788226257033,1.0637544938046029 l-2.733460736840696,11.466521577928308 m-16.227191701605495,1.3749015697507527 l17.94818889936268,-1.2285202831386814 " fill="none" stroke="black" stroke-width="1" /></svg>