<?xml version="1.0" encoding="utf-8" ?>
<svg baseProfile="full" height="113.89254289634513" version="1.1" width="111.36210635762247" xmlns="http://www.w3.org/2000/svg" xmlns:ev="http://www.w3.org/2001/xml-events" xmlns:xlink="http://www.w3.org/1999/xlink"><defs /><rect fill="white" height="113.89254289634513" width="111.36210635762247" x="0" y="0" /><path d="M25,25 m0.0,0.0 m21.358695488270268,5.010455260847522 l0.036907073911958625,0.4769748170014244 -0.11211790275960706,1.905513075565724 l-0.6725433153793007,2.4757452398119915 -3.1176425659940303,7.846431859798864 l-3.695752243749591,7.258436412186439 -4.59299884726021,7.081278278437126 m9.06794772771144,-12.674541485592613 l0.48702107062020866,0.8749335825496009 0.1989866955134229,1.1762681439291112 l0.0019259748701481332,32.60986318801369 m10.26076978396563,-38.57865692480703 l1.2672477044801023,0.2570230061735371 1.6299587208365984,-0.07112976278365114 l20.760263574222687,-2.6044122028523073 3.7479183519034542,-0.08491782250770269 l2.271393403722998,0.29953090329263865 m-16.33371188913492,-11.365035038284447 l0.7819557370442349,1.3580126710948799 0.2134834273645263,1.1862850100853584 l-0.030459614699404253,22.563800264938447 m-16.05877355457309,1.8760920187626187 l1.6120521505088339,0.33506152187492705 1.7493898960330245,-0.0011628055323624974 l25.124264068500718,-2.7822916947500276 3.2428979813704286,-0.11585785052232811 l2.1630274603219326,0.33953340022799094 m-33.15366955863134,15.669198406536728 l1.7272604100715312,0.31004944451289324 2.625747125346649,-0.08027492474226267 l21.824017776323014,-2.2734215198864782 3.125459853085269,-0.12123073208629977 l2.336727521647372,0.2600003022484733 m-10.818072374696754,-8.123509215737585 l0.6533562663834463,1.2934329465523302 0.20444228460572303,1.2567865381382004 l-0.0417391296872698,26.58982833156179 -0.3066101939532556,1.6586453517716706 l-0.5180530470775752,0.7469019378842923 -0.6591308647933481,0.05290296263195179 l-0.7393706181273098,-1.0736455085575654 -1.6699638515733743,-2.5152342041714912 m-9.858827989477668,-13.534572629375107 l1.1424362064167697,1.5841824758056444 1.369169834597611,2.6572456961897375 l1.407671287952899,3.812450965185307 " fill="none" stroke="black" stroke-width="1" /></svg>