<?xml version="1.0" encoding="utf-8" ?>
<svg baseProfile="full" height="121.11231987325789" version="1.1" width="116.8719810500257" xmlns="http://www.w3.org/2000/svg" xmlns:ev="http://www.w3.org/2001/xml-events" xmlns:xlink="http://www.w3.org/1999/xlink"><defs /><rect fill="white" height="121.11231987325789" width="116.8719810500257" x="0" y="0" /><path d="M25,42.002745260983616 m0.0,0.0 m20.395973396399096,3.3250050719110815 l0.05658605141223305,0.5421886616835107 -0.2680874952102344,1.9106221906372547 l-0.8897259280689924,2.8300779846207527 -3.3268355941301784,7.596379914797424 l-4.180149287109931,7.28495895960375 -4.802493595980176,7.190267228379558 m8.554460594255376,-11.607483368806998 l0.5023256553356168,0.8896439286287755 0.22424376540496158,1.1698754582775532 l-0.002569952562498203,32.978038582541615 m18.475929275119114,-49.66488884837554 l2.2152858446055506,-1.7507869911613032 10.230638052176712,-3.5141383583025836 m-14.231123788980327,-10.281289090286034 l0.9329618187368647,0.7803737197333969 0.4520805841069706,1.1024704912954 l-0.4337885636711408,22.462210590035678 0.17119298892741322,2.6398103555502797 l0.43410383526113466,0.9971082822449041 0.8760704101998229,0.6679250535762813 l1.0254676518466568,0.08244658338527514 8.109942558576279,-5.752482747067533 m4.767398245985044,-16.74888966528017 l12.555179596704903,-2.7727504024350758 2.4113827115039213,0.2571330555916141 m-14.93112714526901,-9.616571901762473 l0.7512712974246428,0.9468560043137966 0.4058397243913451,1.6287766925416514 l-0.08354420423758475,23.181628377350503 0.3131092053728123,2.4407733069882056 l1.0521347330044728,2.166362701670921 1.0714374359986072,0.8001843879560535 l2.1525051826724457,0.6527202311433142 8.670661751527016,0.06132645368805327 l1.8783125090244275,-0.445306081167894 1.3349317292723288,-0.7897729731742542 m-21.664750737146978,9.29786965223769 l0.347735097745939,1.857742859082279 -0.49923465080822466,3.496867572503821 l-1.1502165288206094,4.377110114381267 -1.506697453392979,4.016412982517036 m4.016055228676205,-8.38022812109635 l2.270751359748257,-1.5714797881627653 9.3311205718424,-2.579756919002273 l1.2018448598320335,0.0333509054204213 0.5414072471979396,0.38279167883921633 l0.25061383023548156,0.6323626211510821 -0.08610438885788292,0.8357380029973092 l-1.8569848486907647,9.749625929072735 -1.2267932097229122,6.149592859451025 m-15.26795750314696,1.2373023160627195 l2.330423560179448,0.29707611975823306 15.445659419620453,-2.1923431699063065 l3.128561718357853,-0.2040765435048602 1.6529783091701038,0.2166464133494134 " fill="none" stroke="black" stroke-width="1" /></svg>