<?xml version="1.0" encoding="utf-8" ?>
<svg baseProfile="full" height="121.58784306461699" version="1.1" width="122.58694089138193" xmlns="http://www.w3.org/2000/svg" xmlns:ev="http://www.w3.org/2001/xml-events" xmlns:xlink="http://www.w3.org/1999/xlink"><defs /><rect fill="white" height="121.58784306461699" width="122.58694089138193" x="0" y="0" /><path d="M28.289015698867242,25 m0.0,0.0 m19.839831555801943,4.603926061787342 l0.05093575495598174,0.5281376534022209 -0.2537327714882133,1.0969534741885474 l-1.4060181170257409,1.4721703472448857 -5.673654437741954,5.085532512475677 l-5.858166495209037,4.480763110900541 -6.777030884198554,4.734561780939519 m1.8567631393066997,-6.66748859713159 l1.531773749840147,1.5763008114693122 2.4884417210792327,2.9915898799604532 l3.388301344435332,5.228423920279203 2.0320114730713112,5.010261616503785 l0.9289663527104614,3.847666754694752 0.376046945771624,3.7070158422677073 l-0.04350678484127527,3.448712961716976 -0.3906924024435716,3.1707227227393298 l-2.6412117464510376,6.490628376878244 -2.268807321921574,2.1085709548515505 l-1.5891565195066009,0.33115156063432916 -1.6675667123356923,-0.5676956338836983 m4.953820461758509,-24.98694575032909 l-0.05032823371733279,1.5948831498735108 -1.9266779288304396,3.448416855110202 l-1.835968372035728,2.673456032494924 -3.7272047889575846,4.166784495303512 l-4.626184680894146,4.037426576796537 m32.255112309178976,-32.21726210296553 l-0.331671990860726,0.9212405422885235 -3.3400458146923167,3.0865429244786733 l-5.477210122533929,3.5470057453112056 -5.026655251016829,3.16526294040882 m-1.0414789731665068,-1.0582137647200383 l0.6134787348337721,1.0329024645803906 0.24921453653409498,1.1057939468253837 l1.792065880018238,15.329620706129354 m-0.5712819705885189,-18.916894413843515 l10.188672935413807,-1.8268440180649463 2.401243119349493,0.038348372363325584 l0.4650960993340226,0.33434568617381105 0.1537294566533861,0.5979495304021872 l-1.939929185666834,21.443289105842496 m-8.934733581098028,-10.484454683630029 l5.7396331828606515,-0.7449109044449016 2.0414403746428906,-0.0501802807856519 m-7.862294119941936,11.716203680918694 l9.366722293550964,-0.9131430088526125 1.9575693899111128,-0.030648743814131792 m-19.64943060120745,10.11226015765495 l0.9975340677846748,0.41857252785950805 1.5638102238014167,-0.032552676099014154 l17.512194347916328,-5.204867594432551 m6.148682040920601,-23.761330218721373 l0.6365784635930666,0.3446280382997594 0.6967505401524468,0.05434060033434486 l11.247942782981953,-2.0581902282102473 1.2088479852705423,0.38304794193556324 l0.48784574835496824,1.095067218016985 -0.10807323554923126,0.7588541713845812 l-6.409389864923153,12.649115762156875 -3.200962250844427,4.010377095411852 m0.6359971325124494,-14.641382680812614 l3.116677868926947,1.9689402885451341 11.527120209388976,9.439575922726634 l2.679355201231459,1.6925979093475851 2.1927997942170543,0.8683727255504459 m-13.13024298293172,8.616237360638701 l6.011342251131338,-0.7006895806360794 6.625549395407215,-4.458101068859864 l1.3108193587401964,-0.33516308151350915 0.7001536534652878,0.2092028639563636 l0.39217411204300084,0.46726055880173156 0.03245685045964752,1.3670792568643049 l-1.7654370950781377,3.71483283692071 -2.3244631285560247,3.791025942078856 l-2.6882092938048276,6.389837131636618 -2.416311427422561,4.036217570222957 l-2.6577515159282115,3.4378575714763424 -2.3556707655153035,2.4466052397984392 l-3.464957622247077,2.878166715614733 -3.047181928835359,1.94216559089805 m4.630933505016239,-22.19729194218721 l2.551988482318051,2.107609425317808 9.38515953663036,10.15755762390716 l4.744262922948273,4.755355059595954 3.604251807189032,2.8514513114400013 l2.4651170191081127,1.2046442760778802 " fill="none" stroke="black" stroke-width="1" /></svg>