<?xml version="1.0" encoding="utf-8" ?>
<svg baseProfile="full" height="109.49251264333725" version="1.1" width="106.51548620779067" xmlns="http://www.w3.org/2000/svg" xmlns:ev="http://www.w3.org/2001/xml-events" xmlns:xlink="http://www.w3.org/1999/xlink"><defs /><rect fill="white" height="109.49251264333725" width="106.51548620779067" x="0" y="0" /><path d="M25,25.000000805594027 m0.0,0.0 m7.530139088630676,13.468811511993408 l0.550401508808136,0.18080901354551315 1.754710078239441,0.31340502202510834 l1.8477998673915863,-0.027641118504107 40.057902336120605,-4.332906603813171 l3.785434663295746,0.4132995381951332 m-37.82960653305054,8.473123908042908 l-0.08669190108776093,1.3000021874904633 -0.6760402023792267,2.01119527220726 l-2.525467276573181,4.858896434307098 -3.3235660195350647,4.493698179721832 l-4.240793287754059,4.421439468860626 m9.946936964988708,-9.769871234893799 l1.8445448577404022,1.3945567607879639 1.836407631635666,2.0199833810329437 l1.5613697469234467,2.3923425376415253 0.8298336714506149,1.8862074613571167 m24.33093786239624,-17.841992378234863 l-0.06668451707810163,1.0399366170167923 -0.5572368204593658,1.3891860842704773 l-2.748590111732483,5.040193796157837 -2.543369233608246,3.469710350036621 l-2.9375362396240234,2.9801753163337708 m7.103466987609863,-6.603516340255737 l3.9572924375534058,3.5738667845726013 1.6534830629825592,2.077920436859131 l1.7947451770305634,2.874065935611725 m-22.664434909820557,-31.496899127960205 l1.0623954236507416,0.9507527202367783 0.4374569281935692,1.2157005816698074 l-0.16664262861013412,57.326059341430664 m0.0,-30.830295085906982 l-2.1853317320346832,3.4762200713157654 -2.848026752471924,3.7633010745048523 l-7.098259329795837,7.697809934616089 -6.9836872816085815,6.018938422203064 l-3.995049297809601,2.76047021150589 -2.886434495449066,1.614098846912384 m26.164090633392334,-24.49758768081665 l20.66300392150879,19.764655828475952 1.9568386673927307,1.5304481983184814 l2.2097432613372803,0.8691364526748657 " fill="none" stroke="black" stroke-width="1" /></svg>