<?xml version="1.0" encoding="utf-8" ?>
<svg baseProfile="full" height="122.11933773366732" version="1.1" width="96.15902048683188" xmlns="http://www.w3.org/2000/svg" xmlns:ev="http://www.w3.org/2001/xml-events" xmlns:xlink="http://www.w3.org/1999/xlink"><defs /><rect fill="white" height="122.11933773366732" width="96.15902048683188" x="0" y="0" /><path d="M25,35.932703658265915 m0.0,0.0 m18.04176655352669,3.826619690840305 l0.03934315324781026,0.5091506190890271 -0.32891427599899575,1.9939031418724424 l-1.0783994543354396,10.249324626372182 -0.529078794964187,6.781106894923286 l-0.6504368352243178,5.836895189603812 -0.69348771241908,4.703124954313502 l-0.8566205964837492,7.630924792579423 -0.7794410380560507,4.502568390312938 l-1.1176021394706948,3.739686453690303 -1.0641540168156465,2.792594151019601 m5.147537826530931,-45.3275100579927 l1.0208212338399358,0.5220352445111655 1.594676879802921,-0.06551791454474588 l12.015725275919035,-3.253675838898086 2.246915681806208,-0.11721120871753643 l1.3765293083450452,0.37918921818486945 m-14.999740656493726,13.853320866403486 l0.6513008602729782,2.2518597515423155 0.7878776683156145,17.470104390790645 m-0.6353370586145918,-18.132691669662407 l8.310081502164905,-2.7146133279058593 1.0308326766026326,0.061498697973951695 l0.3813162585554991,0.40627571720440225 0.34981472597724445,1.3355248708641894 l-0.09802550544550638,1.0094612310431845 -1.3645633096458112,12.426251501259905 m-7.023512414452925,2.3582310531892876 l7.988222342496894,-1.729514086633673 m-5.862282743031255,-44.23162100149513 l0.37595352822068145,1.4679170661613656 0.12518615738079295,1.6256294592137832 l-0.05520041009443247,62.1103456264773 0.050174673480096986,2.6188748951390752 l0.00829132441935594,1.4042748360564032 -0.0028316283907418513,1.0585790661119299 l0.06421194686555705,0.7996042693320895 0.14318739441962922,0.4970384486099253 l0.2965763944025348,0.33636322936503066 0.4838553328732382,0.18885493348887442 l4.210137323066366,0.011855903711526054 0.6440742890730223,-0.49752914686854527 l0.43308686510938227,-0.9351784286266254 0.28994033931480784,-1.405228638941041 l0.16813935181133297,-2.691671515255162 m6.237610594204826,-57.61954464054768 l-0.1435341226525386,2.8799485627586123 -1.6982615748413636,8.550783480790246 l-1.9489386577919026,7.624246893036779 -1.9831921971410649,6.958117135800826 m3.4447408142205247,-7.4051044512594695 l1.493544414176793,0.053496411060799595 6.180223096908618,-3.2284912566854844 l0.9222766780744202,-0.3039981307149183 0.3922074348334097,0.21668489607778693 l0.2567060879719718,0.5666077241060575 -0.1987745599081455,1.76306641594428 l-0.9626618590054353,3.319136049777901 m-6.280328917515894,2.5692587718484132 l0.03924903069742232,3.163580349483207 -0.44728973214681933,5.556354894542876 l-0.7483813318027669,5.975826766159987 -1.0548492472500355,6.30446504489639 l-1.0495735655169354,4.892613429939155 -1.264669159033859,4.780819783007293 l-1.515678581497313,4.578138889395584 -1.343799620094093,3.2556404559767387 m6.752928073503755,-28.772417752657024 l2.3924083274187478,8.430025976963506 3.2864403019502957,9.843749129855018 l2.676286994817171,7.575227874152792 0.8673665325401961,1.9079344039641681 l0.7210169538078964,0.9518142793147818 " fill="none" stroke="black" stroke-width="1" /></svg>