<?xml version="1.0" encoding="utf-8" ?>
<svg baseProfile="full" height="110.20685444799304" version="1.1" width="101.2656029287291" xmlns="http://www.w3.org/2000/svg" xmlns:ev="http://www.w3.org/2001/xml-events" xmlns:xlink="http://www.w3.org/1999/xlink"><defs /><rect fill="white" height="110.20685444799304" width="101.2656029287291" x="0" y="0" /><path d="M25,25 m0.0,0.0 m15.26392092073118,4.778664762726971 l0.04878128489156961,0.5384604780026684 -0.1112187660080135,2.0656559344603886 l-0.7284294795734167,2.750459898613955 -3.106005630402647,8.676630453819097 l-3.5710973774208425,7.911062907522883 -4.281512322811543,7.81689113346459 m8.578175077013853,-13.450657648510544 l0.4218303896313316,0.9555667130840784 0.10615280884346337,1.3530443848760891 l-0.17666785923682832,36.811075429932856 m7.909781337404841,-47.096392469740444 l3.2110335704792035,0.3079905818588325 21.385428941267357,-2.8939775317913274 l2.633469145732659,-0.16615919127089518 2.3951081882463208,0.28119728075964723 m-16.137033875791143,15.607891652829938 l0.682522461691045,1.722622177865979 0.11964069383594664,1.2396888092347154 l-0.06440341055751331,27.998630979257896 m1.2061515761037405,-29.48935659580541 l13.347683278916863,-2.1521810402889736 0.7060089143337153,0.03486312679360262 l0.9707528582498944,0.6726936858039557 0.4139714083976284,1.2004300307656248 l0.0415587947604382,0.8702651828965763 -0.3216848620617603,26.861695470693547 m-16.13890321249987,-15.387051225627424 l10.20843752436507,-1.2069871359294249 m-10.20152931648434,16.431609539557062 l15.671355370877134,-1.5595414523155178 " fill="none" stroke="black" stroke-width="1" /></svg>