<?xml version="1.0" encoding="utf-8" ?>
<svg baseProfile="full" height="112.72270826046078" version="1.1" width="114.36844325958074" xmlns="http://www.w3.org/2000/svg" xmlns:ev="http://www.w3.org/2001/xml-events" xmlns:xlink="http://www.w3.org/1999/xlink"><defs /><rect fill="white" height="112.72270826046078" width="114.36844325958074" x="0" y="0" /><path d="M25,30.986734593591226 m0.0,0.0 m16.027101318957627,3.081089525784688 l0.03506622988236691,0.6362528517106277 -0.19949086709500533,2.1102872500665413 l-0.8324884951977125,2.7972229814449454 -3.6208004752856695,8.265132802308965 l-4.26403276185592,7.256200747533074 -5.280983969593116,7.322708068721324 m9.720212261328784,-11.352470580713083 l0.5901556987892883,0.9307635112515913 0.23731125569819408,1.247636322476364 l-0.0026478981289434944,34.44115018628452 m19.837397625670405,-43.516374138861735 l9.509172732980632,-1.4936970945589747 1.8112726013195204,-0.158343183893761 m-12.744917039009886,-15.800141066615163 l0.7728813199579951,1.1180796156790334 0.3745563242469789,1.321450355660367 l-0.6270429962538461,29.22141848775161 -0.4872166691778,2.994025474072415 l0.4085682371079095,3.5878457548355134 0.7663396461288238,0.40945237300610077 l1.3400997642050057,-0.1317765774759401 8.91142597311216,-6.871637349462203 m5.385800282653977,-19.77675197307521 l12.831060267246235,-2.377936445214381 2.8220682898837817,-0.09919624230255644 m-16.315932545140946,-11.149126250005896 l0.7884323097683762,1.194656704153085 0.34381094784729854,1.677640204599113 l0.8504278684216361,28.24143099915729 1.0076323771103128,1.2057667298368808 l2.077064232066055,0.9507651411577048 7.489634677711343,0.30190251661625717 l3.15289236357095,-0.3573119968306291 1.6536123706539367,-0.5965077561328211 " fill="none" stroke="black" stroke-width="1" /></svg>