<?xml version="1.0" encoding="utf-8" ?>
<svg baseProfile="full" height="96.72791288553438" version="1.1" width="104.58680903981438" xmlns="http://www.w3.org/2000/svg" xmlns:ev="http://www.w3.org/2001/xml-events" xmlns:xlink="http://www.w3.org/1999/xlink"><defs /><rect fill="white" height="96.72791288553438" width="104.58680903981438" x="0" y="0" /><path d="M25,25 m0.0,0.0 m20.672692043973544,3.196885778830467 l0.049453686227166775,0.5183753142978024 -0.3131916339288529,2.4683795557232 l-3.119279838531286,7.265057824140255 -3.3631580182718213,6.000267587397247 l-4.318182181595636,6.264662492875012 m8.198329214315955,-9.446384336430253 l0.3542588890673504,0.9029449970664923 0.10403864854508472,1.1641105033731687 l-0.173366184656261,28.39361316826099 m17.60374285613837,-45.609028814809655 l2.353852168812963,2.670645849273389 1.1960077065893542,1.8854134284714843 m-12.050354718013123,4.169888033005893 l2.3148168982060224,0.1830371936349626 17.88725388529545,-2.0057896086979805 l2.6800500832849448,-0.10980559052461043 1.3965045929879731,0.23029746023459613 m-19.784892822670674,4.7046517552369815 l2.0536911562186555,2.301006619539584 1.000931075319993,1.7804781939323016 l0.3693832547754163,1.484605859174927 m11.475198304199447,-8.95156635645107 l0.19282049835964865,0.9056258861532127 -0.44490462576844114,1.5549477817481576 l-3.0631936458870177,6.548177935998033 m-18.3750813855293,2.771805935489886 l2.5317328543821036,0.19676527858726228 23.29480230355791,-1.8679274167373952 l3.862853974409444,-0.11236388783405704 m-25.492905712299436,8.372098020410546 l0.5996396966018608,1.0504289272177196 1.8211157315810735,11.693418803283317 m-1.5026473465494008,-12.081221927304368 l16.440521877731456,-1.7778225619069261 1.0532191075189132,0.013473830981545783 l0.5062731253959322,0.24738601936015697 0.326959065562831,0.9369495271465658 l-0.11513250361691794,0.7594158118728607 -2.298013426553071,9.61920405974579 m-14.914501600653335,1.661339070851522 l16.250001611734753,-1.2586109615171475 " fill="none" stroke="black" stroke-width="1" /></svg>