<?xml version="1.0" encoding="utf-8" ?>
<svg baseProfile="full" height="105.69365899859675" version="1.1" width="100.61025131418758" xmlns="http://www.w3.org/2000/svg" xmlns:ev="http://www.w3.org/2001/xml-events" xmlns:xlink="http://www.w3.org/1999/xlink"><defs /><rect fill="white" height="105.69365899859675" width="100.61025131418758" x="0" y="0" /><path d="M25,25 m0.0,0.0 m14.053947017251462,4.51789489723748 l0.044436759015832654,0.5126248346088377 -0.16020126351290942,1.9817468900033777 l-0.6698386479273649,2.48791251241095 -3.0250525128186325,8.031852342173092 l-3.5721944442238316,7.4733125211105715 -4.454654999495596,7.386837964573816 m8.635144929597065,-12.164973492391244 l0.38387200859296217,0.8603939561584558 0.09317885055252874,1.191581912932959 l-0.15842191346208045,33.41447465977845 m16.42849395122311,-52.71394997399249 l2.59436861387939,3.5101719701723315 1.1740267274223308,2.3594036945525345 l0.48413291744038917,1.551727214974954 m-12.934098479578685,7.60379932585868 l2.561254071124891,0.1672668478012046 19.100160255749326,-2.0356995067763215 l3.0188038013954497,-0.08279799038011988 1.6122882167922648,0.3352808975398906 m-23.054751231418244,16.722048104942008 l2.2613759453733286,0.16810217170748187 15.709197199387708,-1.9076182378420643 l2.8524597162261642,0.15356389228695022 m-25.94180800680661,18.812351593383543 l3.399396784808493,0.04333938630608021 13.413629456507314,-1.4088078797838768 l11.975541240547608,-0.7414218712725481 2.2483412963244342,0.016140591040280077 l2.5372230542194876,0.543212349093928 m-18.652362122295347,-29.618173345797256 l0.6470319015015082,1.050247812897927 0.5126921169588758,1.5440359628264761 l0.1631406254762268,27.048866920598268 " fill="none" stroke="black" stroke-width="1" /></svg>