<?xml version="1.0" encoding="utf-8" ?>
<svg baseProfile="full" height="98.5862170881178" version="1.1" width="114.27815922414776" xmlns="http://www.w3.org/2000/svg" xmlns:ev="http://www.w3.org/2001/xml-events" xmlns:xlink="http://www.w3.org/1999/xlink"><defs /><rect fill="white" height="98.5862170881178" width="114.27815922414776" x="0" y="0" /><path d="M25,27.068903063901942 m0.0,0.0 m15.107638792461444,4.43866239220402 l0.045824724211609366,0.5173245265813393 -0.4513666281746938,2.194463602303418 l-4.112365028613187,7.141416265213195 -4.156866087336422,5.743932134817596 l-5.3779221556078705,6.026143469233471 m9.497640307409355,-8.944713579657675 l0.5399125817387931,0.8504614645308929 0.18907607689583086,1.0565819012534476 l-0.04589158659348286,27.493041847736166 m22.37213117290551,-43.86199251509806 l3.6084635903645244,0.829683899775124 2.3047372209291033,-1.3888806754944454 l2.268986302010201,-2.451887962058069 1.6847165012769334,-0.04858126767829946 l0.41210209070923665,0.3963317908896025 0.15847867870776652,2.410273226517877 l-1.4671260195418614,4.223514267862523 -2.4500751382564903,7.872940300953076 l-2.0495803306711484,5.625587845416315 -4.14841794731346,5.193958350531888 l-3.073010036548991,2.5745216930275494 -3.6113263920599614,2.23937640752761 m5.789915075210217,-19.17057301745236 l3.3825196064351704,0.7073186733704159 6.021737958309018,2.4851825570371067 l14.711861298102523,12.876272917850015 4.284922101585985,4.8210860965809665 l2.5052643972600235,2.3615980513090906 m-15.643107935749315,-36.281947728985735 l0.5592079132928923,1.13975833187364 -0.008344995139687256,2.4341639936355564 l-1.3294285988676429,6.261826547795089 -1.754895594656195,3.4021767058065957 l-2.251591948743863,2.8962480149411287 m6.123851930085052,-7.175612698658018 l1.8120762274267732,1.7512694425825315 2.015796278230136,2.8261643474833176 l1.5658038713470441,2.72417272706488 0.8286968166200376,2.3793658757188396 m-28.936544791476692,13.026289719161968 l2.4754143046445063,0.3458374155083305 23.979121925120836,-2.3938259955867407 l3.643482625057293,-0.17068528688285028 1.7916341596949337,0.2619560160752286 m-16.473090268685723,-7.459810108258917 l0.6664010732315936,0.8968802501968639 0.31507733630199375,1.2004010517666948 l-0.05279615981723227,18.45894019725237 m-20.572411877042455,0.7262756690881029 l1.7528413864561259,0.33227754209873656 2.367578998877756,-0.016713137460110487 l18.613628482293727,-1.5025818872270802 12.817967110436172,-0.637542633446553 l3.181537033175151,0.08171551436710414 2.848272796228856,0.42448115294873856 " fill="none" stroke="black" stroke-width="1" /></svg>