<?xml version="1.0" encoding="utf-8" ?>
<svg baseProfile="full" height="102.73896614624988" version="1.1" width="108.29628276186313" xmlns="http://www.w3.org/2000/svg" xmlns:ev="http://www.w3.org/2001/xml-events" xmlns:xlink="http://www.w3.org/1999/xlink"><defs /><rect fill="white" height="102.73896614624988" width="108.29628276186313" x="0" y="0" /><path d="M25,25 m0.0,0.0 m20.10254655800697,5.0435283670678706 l0.0434740615095664,0.5115501482617726 -0.1200704812099661,1.9315516794795353 l-0.7188277654926958,2.402343584682287 -3.4482658169677403,7.676064597130945 l-4.230634886325506,6.89285678418103 -4.95494954730095,6.59226298589212 m9.288691722704275,-10.92276857921288 l0.4817732522843818,0.8857216932995182 0.1229603905536695,1.2080789723501424 l-0.18554080328068628,30.51777591311754 m10.818544278511677,-41.66488535433487 l1.80419633089151,0.27856423978594325 1.9290343036164141,-0.059532383184264875 l21.60833677954323,-2.484675754779179 2.468190184632587,-0.11278306899578422 l2.0394145523280702,0.2578602623739872 m-30.10914774762239,13.40487102366482 l0.7618682014561091,1.4961002773306946 0.3484579307044135,1.9235250896771583 l0.04987329003069313,26.543190885962375 m0.03312267659530913,-28.049843552286678 l26.439471725402168,-3.529016104216929 1.271739057274436,0.04404321122587951 l1.425120969908346,0.5322423806656396 0.7230185204514308,0.9453696024959973 l0.3038850236577971,1.4627554997670038 -0.7817940228290902,13.19153976116865 l-1.0549985921298477,9.829053003954863 -0.7484552433311994,1.9819075195420437 l-0.5119602938621312,0.16894268610951899 -1.1645096779007353,-0.8906037433725063 l-1.9304254487141037,-2.1899787069748133 m-10.969235770316189,-37.30541579599552 l0.7483877554736043,1.6756789469069835 0.06302970797045798,5.8689505749293485 l-0.41052916513320414,5.365818005065478 -0.9821997666698292,4.839556533306868 l-1.2925075435499744,3.732879814971393 -1.7536109549608607,3.543758758624363 l-2.2873396928628806,3.212924758441714 -2.6856589248512774,2.5915340040476056 m10.345497420732263,-12.060711597457962 l2.653169856246379,1.8383893107263962 3.1875084994850678,2.9967332838922616 l2.4648105806662866,3.0458596967487592 1.2957320088892692,2.415269605236372 " fill="none" stroke="black" stroke-width="1" /></svg>