<?xml version="1.0" encoding="utf-8" ?>
<svg baseProfile="full" height="129.79037533730735" version="1.1" width="101.18811924681195" xmlns="http://www.w3.org/2000/svg" xmlns:ev="http://www.w3.org/2001/xml-events" xmlns:xlink="http://www.w3.org/1999/xlink"><defs /><rect fill="white" height="129.79037533730735" width="101.18811924681195" x="0" y="0" /><path d="M30.065222126717906,25 m0.0,0.0 m23.144933902282848,3.5978022540777848 l0.05173291441357652,0.4468567090045912 -0.18759484386267664,0.8513540345849216 l-1.4968221470457683,1.82087567833372 -4.436596675204112,4.0843665394796735 l-4.7550836881464145,3.293658308184398 -5.854280531208416,3.093614011662914 m2.016621354909244,1.0757731969787612 l2.91472690477276,2.526496434901583 1.4010377511518883,2.00241617663434 l0.6249570774708613,1.5458075246407736 m3.6785952658112557,-12.053519694852046 l2.497411458436611,2.1845573432659386 1.465511386975768,2.339635762596709 m5.858773012151058,-4.325956856210134 l0.026777449164546517,1.1509978272606185 -0.2584273594846943,0.234687212122663 l-6.603461456532199,3.3638214452790014 -6.839327998330049,3.151010806020052 l-8.449663583444158,3.2877447973141964 m0.26690288504674625,-5.260287902549374 l1.5245759430107315,0.8974730749472551 1.8347444442492071,1.7867352271891785 l1.5062127251503745,2.992554599791594 1.0855608092583042,4.192735830568233 l0.6520776841118293,3.4993371320753464 0.4862008333833168,5.326648303377703 l-0.10319643996934538,3.9159578264203465 -0.57217091876819,4.125435620528482 l-0.890540200713173,3.482892479310742 -1.2808292010443156,2.9230887941307726 l-0.6695603970293393,1.1214496246124446 -1.9024331359209916,0.7849743326081806 l-1.0758387948660948,-0.33034998937795357 -2.0729683507584427,-1.9437004304903573 m4.115404908243732,-25.193904551562596 l-0.055224901874081155,1.0926145180157543 -0.3881846385089662,0.9839131776116673 l-3.04366457164488,3.688189875346619 -4.1790564299064,3.687630843276021 l-5.103054572449862,3.7916989087542365 m15.140072179850824,-5.608655953956136 l0.06802678663803063,0.9547205632342678 -0.6061513736828686,1.2864779508111224 l-1.8336351418170667,5.154574355653887 -1.829873616810911,4.338763947672035 l-3.634732156453751,6.338644276159907 -4.571051040946701,5.436983700710157 m23.968994632543072,-48.56405643223856 l2.486738508278148,3.7328404302425935 1.4133825038453374,2.8906536994435985 l0.5425143289552673,1.9487897806846024 m-12.360653744948898,5.010301265150561 l2.834225565630395,0.2964886061829598 14.75496354047416,-1.9046713043907137 l4.847509419853831,-0.20056576992744427 1.3505400472181806,0.308873742372147 m-20.080481432394947,6.8457024833521904 l2.1354099201386423,4.666885197570059 1.0850471614714094,4.511922474212537 m11.539401486443372,-13.262897358229626 l0.36460338679386406,1.1641837188982518 -0.30817667287220657,1.2241389821433084 l-3.9101933996846805,11.157116100916861 m-17.110578570414887,3.9196307082643735 l2.409102141640799,0.3021504081276077 13.084547902457375,-1.6118173689654673 l8.415973621743097,-0.7114624438293526 3.66087081866721,-0.19016383805818327 l1.8143688999942054,0.24746906801576224 m-25.566672991835986,11.279329466159394 l1.937773290117349,0.8252550730466505 16.333316344487304,-1.9869266200488938 l1.9305387031099777,0.24884549838988002 m-23.20221297378737,-9.391298362870945 l0.5590279755039486,1.54416989294823 0.2656269388400515,6.5562117976012475 l-0.2570804436650483,11.000853500538065 -0.604679248980219,6.592106535032297 l-0.8090505298794356,4.309455440566467 -2.649390170132407,7.144454808167226 l-1.7767840920468032,2.74781051168967 m15.016825384366854,-35.12621996765258 l2.0254401668173787,1.1184266624468906 19.872057913875533,2.5545450176753084 l2.4426172774105037,0.4006485660539723 " fill="none" stroke="black" stroke-width="1" /></svg>