<?xml version="1.0" encoding="utf-8" ?>
<svg baseProfile="full" height="99.2009375991759" version="1.1" width="103.43862818664087" xmlns="http://www.w3.org/2000/svg" xmlns:ev="http://www.w3.org/2001/xml-events" xmlns:xlink="http://www.w3.org/1999/xlink"><defs /><rect fill="white" height="99.2009375991759" width="103.43862818664087" x="0" y="0" /><path d="M25,25 m0.0,0.0 m27.279840583683114,6.990144447707381 l0.05494608704289703,0.41200252995141295 -0.3738529466010442,1.7452720287908357 l-1.5644100387039468,2.8223893701470986 -2.405848821900184,3.3645358609702156 l-3.4070846522063114,3.9294660646965323 -6.933939359512718,3.183253687342343 l-4.741410720848758,1.4183576993391414 m22.162341715456357,-13.658635049866804 l7.848126954986704,4.437149718278982 9.090518014284461,6.170424743095664 l3.3032039692233486,1.712601242509734 3.1261974017369587,0.7986465144041628 m-30.741070190052547,-4.156594757381446 l2.260050950201519,0.17638385052810668 8.878121669982319,-1.059582584489087 l2.692627912002553,0.06169795632579964 m-18.914351143070128,6.027634840691287 l3.1049765270217833,0.268603455752756 15.856268748048958,-1.8220968090909877 l1.6745696417637137,0.03218234195408136 0.554575032907087,0.279203442016277 l0.22604347106171072,0.4525378125862387 -0.10460843686198035,0.6021830355895421 l-0.516928846100991,6.482122244207627 -0.7969490761454076,4.711894860355518 l-1.067017061549798,3.18639020936638 -0.93982351572481,1.2292317998205022 l-0.9957744872362104,0.1793957110674953 -1.444843843323882,-0.9786123558820559 m-9.408027794546317,-12.007514369014595 l0.7831628833017815,0.810515081867678 0.30008624559415137,1.0075339717135148 l-0.10013455127604755,20.39221900382456 " fill="none" stroke="black" stroke-width="1" /></svg>