<?xml version="1.0" encoding="utf-8" ?>
<svg baseProfile="full" height="104.83327586130693" version="1.1" width="111.7904690033087" xmlns="http://www.w3.org/2000/svg" xmlns:ev="http://www.w3.org/2001/xml-events" xmlns:xlink="http://www.w3.org/1999/xlink"><defs /><rect fill="white" height="104.83327586130693" width="111.7904690033087" x="0" y="0" /><path d="M25,25 m0.0,0.0 m19.30244774087134,4.536596387946838 l0.04469201682220124,0.5317381973177497 -0.11301582551318289,1.8817792069120334 l-0.7391158888912049,2.427856537932412 -3.337757913444773,7.669147535016478 l-3.9884598393714996,7.078100426256496 -4.865373456418569,6.907416219796048 m9.301292828034624,-11.133112050195042 l0.408121298123237,0.8638010875184312 0.10056454919555119,1.1661701583305366 l-0.18956806261634157,32.90378215447495 m19.27592941837665,-52.54906881714044 l-0.11717970141412855,1.7950744546832103 -0.45682740741411304,1.745386645159052 l-3.0892723163307703,6.132131536426175 -3.915953647249487,5.840009853869051 l-4.219778046526004,5.096966437294462 m9.034616369589257,-9.189805326458801 l2.962131076013099,0.0545894835180302 16.415763781208753,-0.29638688055192025 l5.8539252032321905,0.1747840688222877 m-29.630568647976173,1.8520924003036967 l0.6570820980697568,1.0917712725391442 0.19369711750956894,1.6213749669563433 l-0.08693301477531605,27.720069219240848 0.2731746831636774,0.6268512688579512 l0.4788577766858104,0.25602917720117385 0.6694554643641506,-0.1375385588391264 l9.774219081553364,-0.3761891043910704 m3.54820369624638,-20.767932045115327 l1.856600171067327,0.5126488461071402 2.110065014724303,1.1787223882018047 l1.9942028040455377,1.6817777665189566 1.411164346963501,1.7357524334016483 m-35.85644773066556,10.447194733957131 l2.039473227619445,0.26847936451440596 3.098353045923222,-0.050780357611277305 l35.73367490705316,-1.9903854481553902 3.000342537055707,0.29835511378863755 l2.8586702484040036,0.38587268150745174 " fill="none" stroke="black" stroke-width="1" /></svg>