<?xml version="1.0" encoding="utf-8" ?>
<svg baseProfile="full" height="101.76713316469119" version="1.1" width="101.41767807674215" xmlns="http://www.w3.org/2000/svg" xmlns:ev="http://www.w3.org/2001/xml-events" xmlns:xlink="http://www.w3.org/1999/xlink"><defs /><rect fill="white" height="101.76713316469119" width="101.41767807674215" x="0" y="0" /><path d="M28.235736569829058,25 m0.0,0.0 m14.00068157378792,3.230073288350396 l0.4712110880362569,0.44178617328621445 0.6745017070348206,1.07224585317011 l2.353363122553902,12.773438784800447 m-1.8412668180461182,-14.508115254181089 l24.85255262406011,-2.3755242991205336 2.3615367665066946,-0.09671639556956543 l1.5450614200101338,0.2810118705550951 0.8561404979888866,0.741551715954393 l0.12248597820085853,1.4154562004539553 -3.218452804884946,11.904535548723944 m-26.335472303416285,-5.599410848242436 l27.191627233489026,-1.7746301457662808 m-25.759769243863005,8.04798659798112 l24.13564657048394,-1.5459785928079428 m-14.602004557450039,7.59039904891005 l8.824478581493539,1.010535049475484 2.425956036940544,0.9259914310591347 l2.4881313775393368,0.7486934306691369 1.158751879877954,1.0156225607164522 l-0.5252186304190952,1.5927303312796417 -2.0641156746571174,3.0537789483428393 l-3.074252422508188,3.478961570961052 -3.006308450953373,2.7841399641424194 l-1.785384487034209,1.0864340067994849 -1.3943495772193362,0.22644791650611235 l-1.3257584225306591,-0.46081170436918134 -1.5356528649422558,-1.176991270697437 m-0.2891104475803052,-17.040307371914263 l0.02319212613234276,1.1981812188235887 -1.1126163511617382,2.0465500733045525 l-2.011237757789668,2.7417162562148167 -2.347896562269386,2.558298007761839 l-5.218875059347972,4.168630751165812 -6.3343495235008485,3.4002454138891838 m-12.938963194390771,2.005127301805143 l1.9703363642062626,1.14763393422182 1.9069255728032144,0.5697610477999611 l19.225679810244728,-2.0486569982037097 18.41101800962772,-1.536777811309754 l7.896554312657522,-0.11630814019793247 2.0071640072026895,0.5246666029889296 m-14.606162330385477,-7.277784197218542 l0.4690105726230766,0.8902145538951209 0.13254389602921526,1.4336792870600528 l-0.08936837850904059,21.218621453221573 " fill="none" stroke="black" stroke-width="1" /></svg>