<?xml version="1.0" encoding="utf-8" ?>
<svg baseProfile="full" height="109.0517071015292" version="1.1" width="109.33449731573236" xmlns="http://www.w3.org/2000/svg" xmlns:ev="http://www.w3.org/2001/xml-events" xmlns:xlink="http://www.w3.org/1999/xlink"><defs /><rect fill="white" height="109.0517071015292" width="109.33449731573236" x="0" y="0" /><path d="M25,25 m0.0,0.0 m17.483656202536835,8.967313899341375 l0.0507902711387768,0.4902538029439223 -0.14217471960789596,1.864020983187884 l-0.9098995673027445,3.2865279932035345 -3.4524748002292416,7.45353601099579 l-4.598561226217924,7.5414153884837365 -5.519978390328531,7.049565988341495 m9.818130138593762,-11.434681002549345 l0.5175286717561025,0.9382041903252093 0.13643349401664848,1.194644924004455 l-0.02490220189483667,31.700904923251148 m12.131473328874737,-43.455353063513996 l3.732175182234665,0.15912664088279255 18.978183514647185,-1.7810050612019437 l2.9562930995346526,-0.2002305127200792 1.9409531242508986,0.20711179571473784 m-15.221949753463724,-6.781625283336734 l0.6430898122254058,0.7487164321857768 0.31393106457905384,1.029732685568902 l-0.006450562439328513,14.327673244169846 m-18.251170895757518,1.5338269862649663 l1.8406592780402138,0.30319607577500873 2.0082478606522516,-0.01218956427724921 l18.508685414414867,-1.6862915309382343 10.645241849257207,-0.6339812988283952 l5.7565871262208494,0.04632041959387209 m-37.31822148653406,11.837312407326506 l4.728519287318387,0.20107788310162744 14.843556069878638,-1.5622307982999664 l10.616772704639805,-0.868687321598708 4.0447820957245675,-0.10394022428664018 l2.604773803832879,0.26307557702787376 m-11.520246054746481,-5.800325850618426 l0.6890671150846047,1.2217979745962182 0.08945673602132764,1.0261230351562904 l-0.1415112254708976,24.43876366792678 -0.35403211800513923,1.142194742648305 l-0.5439404005520453,0.5331523773100257 -0.6798828411614223,0.07101558321395428 l-1.5788645006169846,-0.7901288565893477 -2.0909615955188086,-1.657728168440184 m-12.089431791934505,-12.36855562568134 l1.349220840553551,0.9934901910905922 1.862632316355843,1.896550840006555 l1.7834597230812848,2.7513765129195153 " fill="none" stroke="black" stroke-width="1" /></svg>