<?xml version="1.0" encoding="utf-8" ?>
<svg baseProfile="full" height="129.72180293472383" version="1.1" width="106.1879430924784" xmlns="http://www.w3.org/2000/svg" xmlns:ev="http://www.w3.org/2001/xml-events" xmlns:xlink="http://www.w3.org/1999/xlink"><defs /><rect fill="white" height="129.72180293472383" width="106.1879430924784" x="0" y="0" /><path d="M25,25 m0.0,0.0 m19.0769235801205,3.5929115258896154 l0.05341327855589635,0.6213371092785204 -0.197017444149176,1.4748116722770614 l-1.1511226849266396,2.9502017579820436 -3.652881039192648,8.000631494675442 l-3.8168851307018774,6.266202567059351 -4.782203188611512,6.261969826868284 m8.993538230977327,-11.178592655591892 l0.705525848598908,0.9322264233616351 0.28172536946779253,1.8596458031827385 l-0.04801740958757744,31.756177438881224 m7.356461138110693,-34.45070875731549 l2.0054197288223885,0.20275613475451873 2.5172445735427442,-0.09253021483788708 l22.699544412921384,-3.0373781369398616 3.9699127197451727,-0.20647807547980832 l2.176361108785028,0.29518382472542554 m-18.096142441806272,-14.959854511829933 l0.6773407537045936,0.9104404135532257 0.28086151786906666,1.2438505838214113 l0.08942539494899253,18.70874319368613 -0.776503360007538,6.8847755331182015 l-1.438250159703898,5.119162630100846 -1.4772372591989094,5.73362753928466 l-2.04341889528596,6.219889595725828 -1.5407444484320088,4.545989284479989 l-1.495491469239566,4.363070729819431 -1.5196256851541736,4.1289681275956145 l-1.5930841891480674,4.140247051638766 -1.6427381812292507,4.170583570623892 l-1.7745281013420018,4.381747162736165 -2.5566251885407034,4.696150890081763 l-3.3435518865253977,4.186043401516906 m17.259327122982576,-36.238379301298416 l5.275478517134498,11.239175937282232 5.335270435275722,10.721719963378366 l4.945045434438372,8.492147984741022 3.00211948343777,3.760635204632403 m-9.632223268839216,-53.010691416834 l4.2634294548336165,3.7545269119394913 2.7104146787035854,3.8378913803312265 " fill="none" stroke="black" stroke-width="1" /></svg>