<?xml version="1.0" encoding="utf-8" ?>
<svg baseProfile="full" height="101.6311256913727" version="1.1" width="104.46813751491393" xmlns="http://www.w3.org/2000/svg" xmlns:ev="http://www.w3.org/2001/xml-events" xmlns:xlink="http://www.w3.org/1999/xlink"><defs /><rect fill="white" height="101.6311256913727" width="104.46813751491393" x="0" y="0" /><path d="M25.831207167267685,25 m0.0,0.0 m14.344748312706749,4.358625064326951 l0.03802930613331747,0.5177978756515281 -0.37559186977526643,1.9045955526894458 l-1.037223109043606,2.4434520496384002 -3.912416732737022,7.212850470332138 l-4.677084376909006,6.689088918664945 -5.2116686976428515,6.356860395988885 m9.816071421321189,-10.157910155783435 l0.5420482793689424,0.8970725107913875 0.14403600079108278,1.2167067668137201 l-0.060086003287526134,30.191986242258743 m22.809777065350374,-48.36020173860618 l1.0832843167179096,1.0022849693730216 0.4118010350207422,0.9844672680697826 l-0.020276101281971264,6.034265577625614 m-16.46575336727879,1.6428907378008244 l2.7832617757099376,0.2744759916430871 2.7944947464231507,-0.1384245091568431 l15.839194125305768,-1.902062327798446 8.194499216295448,-0.8985395045858122 l4.434156485753775,-0.15663355741884102 2.161628518703902,0.35028390918219504 m-26.510737101843446,3.0760596408096808 l0.6573598893913436,1.3567969221093201 -0.0860403257907242,3.7409731932870973 l-0.5405822637067492,5.757728247052982 -1.0095036132486916,5.90809465459712 l-1.1822043897386796,4.12781266136293 -1.2855357989142961,3.7323854657542745 l-1.8611051273104033,3.9025952951503533 -2.2303802506564505,3.2865958017752974 m17.71815679754826,-29.329417382573713 l0.6433952466976075,1.0626585453949697 0.14777500950621225,1.7292406623540126 l-0.3257187450271204,29.74935345660091 -0.5226560971581636,0.5897736343096414 l-0.6939866181639979,0.03937756958336149 -1.5744418276215848,-0.9312441920294824 l-1.8412642613766002,-1.5191842876912889 " fill="none" stroke="black" stroke-width="1" /></svg>