<?xml version="1.0" encoding="utf-8" ?>
<svg baseProfile="full" height="110.60801580882375" version="1.1" width="104.34547596103192" xmlns="http://www.w3.org/2000/svg" xmlns:ev="http://www.w3.org/2001/xml-events" xmlns:xlink="http://www.w3.org/1999/xlink"><defs /><rect fill="white" height="110.60801580882375" width="104.34547596103192" x="0" y="0" /><path d="M25,25 m0.0,0.0 m15.050266308101126,3.9383542155947002 l0.03633904879357579,0.494793696305021 -0.1291117729769891,1.942395963891368 l-0.7761813588369317,2.611411715254892 -3.2590178808599393,8.01007323896298 l-3.8297066747664736,7.252923324891272 -4.688288886498356,7.09521518054714 m9.082902936160671,-12.05364302962311 l0.5042084366929146,0.9034270765857508 0.12052384584062784,1.2128258092913184 l-0.17814146223734065,32.653088137882165 m9.83698932766458,-42.28441982924403 l1.4102759739407535,0.24629049805072487 2.322982794640789,-0.06895008525601488 l20.69387778745714,-2.418363911811597 3.8287167743545747,-0.029318080835339315 l2.1786662577991134,0.35125705134707114 m-16.658842363926766,13.146921958990314 l0.7001641926073394,1.644092942522602 0.12220285915136735,3.67371603519294 l-0.1479015939891132,22.02453585798791 -0.4601171458781012,8.65111841346595 l-0.4112302194565796,1.2077266689360961 -0.5369463307836791,0.4025429598936265 l-0.6051005636242404,-0.12465878220200034 -0.6604685314812181,-0.5476071621842588 l-1.957674002207827,-2.4493367704185114 m-6.50365289571255,-20.874952694492983 l-0.18807644269093934,1.9708415184735408 -2.1376236320060022,5.34587470141102 l-2.4591340764759257,4.725570557757162 -2.9062281718343472,4.461580900863418 m29.082976809445835,-17.06340182939516 l2.254596065840104,2.666133131551477 2.574667614498808,3.9956962330020684 l2.02324851856573,4.069469405589234 1.0153144157201837,3.281227452895739 " fill="none" stroke="black" stroke-width="1" /></svg>