<?xml version="1.0" encoding="utf-8" ?>
<svg baseProfile="full" height="99.32038434032188" version="1.1" width="110.89130711304938" xmlns="http://www.w3.org/2000/svg" xmlns:ev="http://www.w3.org/2001/xml-events" xmlns:xlink="http://www.w3.org/1999/xlink"><defs /><rect fill="white" height="99.32038434032188" width="110.89130711304938" x="0" y="0" /><path d="M25,25 m0.0,0.0 m21.10777372932178,4.6378476017268255 l0.045641100089875715,0.4759674817436486 -0.11686685702245732,1.6456724989330622 l-0.7670329462760324,2.1727136600557286 -3.3764401320549386,6.817186495578795 l-4.065336695798159,6.312939717675093 -4.947466237306338,6.0007754694277935 m9.596118678746057,-9.627886485837974 l0.39110032011727663,0.8064138297410658 0.1059577279363557,1.1041269453085856 l-0.1993048662840808,28.711901915815492 m20.445869656369773,-46.635323345548954 l-0.039132591479439253,1.6601482473904638 -0.4418764422757794,1.543410807145118 l-3.2467637175348596,6.206349804402314 -3.7157946543812708,5.455555821437597 l-3.8371470040484805,4.530965513156386 m8.827379268151894,-8.241379101610827 l3.017058346696635,0.016607561095493568 4.542019745217071,-0.3021450837858013 l13.614214094454722,-1.8400653788224364 3.9513365904097664,0.08836412948413198 m-18.435357945814292,3.16113831741595 l0.6400062174347056,0.7968218719225165 0.3558937549249958,1.3327975298645485 l-0.1387435368236506,32.48947851660726 m1.5993449370811657,-24.22115717139877 l11.34266794788996,-1.1824778884245228 2.158679122146462,0.06940063249242942 m-13.634670894186337,11.245448471329876 l12.727805988025498,-1.1741477758376062 2.549476129077687,0.009155094284082113 " fill="none" stroke="black" stroke-width="1" /></svg>