<?xml version="1.0" encoding="utf-8" ?>
<svg baseProfile="full" height="124.38373081787128" version="1.1" width="104.43208066977598" xmlns="http://www.w3.org/2000/svg" xmlns:ev="http://www.w3.org/2001/xml-events" xmlns:xlink="http://www.w3.org/1999/xlink"><defs /><rect fill="white" height="124.38373081787128" width="104.43208066977598" x="0" y="0" /><path d="M25,26.42914089570999 m0.0,0.0 m19.995396179891518,2.2166906920386853 l0.054309431114625634,0.6866131259075726 -0.3243098296472797,1.563016222799678 l-1.3199706321552935,3.1414269207848537 -3.9151375363371423,7.658579881261117 l-4.0654555240574926,7.161169191747737 -4.278129249650406,6.939567302182859 m8.295017208766268,-11.603924061513853 l0.7011142346451111,0.9567051967334202 0.2949162414131258,1.8710143584399277 l-0.051731376998027837,32.863815553932234 m6.534380500652295,-35.45707293077897 l1.8681686055908293,0.18759890576929497 2.2602560111260885,-0.13983859338850615 l21.954506220490764,-3.4844780161554034 2.04064954321502,-0.26201999247314706 l1.801833030830073,0.24050505583325077 m-16.0132840083822,-15.968509708830737 l0.586430876396945,0.9714835686880742 0.24640726704423632,2.037854455666862 l0.06738985413056522,29.091497103084468 -0.7139462346165416,5.612708618092302 l-0.838632380555386,5.94160716557941 -1.3188386818323394,7.423891293384671 l-1.6540122896293559,4.947376779061006 -1.6124478742280983,3.220033611235574 l-1.8457380802546968,2.9459566969702915 -2.1827418300048542,3.2776079352396352 l-2.398382633308321,3.877013600878383 -3.9135296872580536,5.0366999899906055 m15.690905157178362,-35.429874518049644 l5.3388606872839715,11.698916866651317 5.150773553667063,9.961983545124971 l5.077589021855777,8.206455026607104 2.919464893398841,3.706575208317541 m-8.81635492604382,-52.43420996047773 l4.153575790249418,3.865858159942307 2.606019356215444,4.023836568391414 " fill="none" stroke="black" stroke-width="1" /></svg>