<?xml version="1.0" encoding="utf-8" ?>
<svg baseProfile="full" height="104.56512896105839" version="1.1" width="104.24381252408119" xmlns="http://www.w3.org/2000/svg" xmlns:ev="http://www.w3.org/2001/xml-events" xmlns:xlink="http://www.w3.org/1999/xlink"><defs /><rect fill="white" height="104.56512896105839" width="104.24381252408119" x="0" y="0" /><path d="M25,25 m0.0,0.0 m15.237851357467077,5.551579530261131 l0.034210251997632224,0.5316738061507728 -0.2267001538480376,1.7305149612562822 l-0.7951408336877366,2.7712749384313775 -2.9516258349852498,7.666944970136984 l-3.425015113247457,6.884909409200204 -4.220709866571608,7.051904625769871 m8.061588780144277,-12.060059857190021 l0.5796019504381197,0.8521263338561091 0.23133224312289466,1.0999671749851692 l-0.01663190321329437,32.48429306820051 m17.851163173795054,-48.768995594987516 l2.4678018866469977,1.3178118581308733 1.689097323324505,1.555393941988985 l1.303756794454383,1.380473608325136 0.9706884842423689,1.6356104601092507 m-16.201284864823005,8.107528639528331 l2.3075747538650435,0.15639872518117626 19.980601224841255,-2.1985284321915897 l3.2141614676502317,-0.11325527823664962 1.639548977114459,0.33052561909129713 m-24.234741837602467,16.60044503146975 l2.331801149174495,0.1902428017953775 17.179821739352413,-1.764673433662453 l3.1660041152353715,0.15545715209014688 m-29.14716772220536,18.612004312368803 l3.9499595249350143,0.04863055910906155 14.844230645874987,-1.3024712485067365 l13.25909628826874,-0.7100094916584717 2.4652064325713243,0.03419411016343088 l2.6977320897487926,0.5445406540345777 m-20.58838374336877,-28.629294867052455 l0.6943315133869077,0.9777644724936297 0.5691157386166384,1.3931393763783944 l0.1610399463607197,25.584591702258603 " fill="none" stroke="black" stroke-width="1" /></svg>