<?xml version="1.0" encoding="utf-8" ?>
<svg baseProfile="full" height="101.98260838598614" version="1.1" width="108.25476026409316" xmlns="http://www.w3.org/2000/svg" xmlns:ev="http://www.w3.org/2001/xml-events" xmlns:xlink="http://www.w3.org/1999/xlink"><defs /><rect fill="white" height="101.98260838598614" width="108.25476026409316" x="0" y="0" /><path d="M25,25 m0.0,0.0 m18.146664136701407,2.9714627452704914 l0.07272727822837621,0.4962339656255972 -0.16854961358902742,1.9185921666767483 l-0.9314571109791454,2.3269250875115324 -4.353879907742422,7.312899658044369 l-5.493465708382541,6.7932003154732765 -6.654334553547714,6.447220138951082 m11.715137955876424,-10.523497226779023 l0.49190733542219844,0.8848810944041325 0.1280535290196332,1.175550880263994 l-0.22786118646906248,32.17913956054394 m30.288547247129312,-49.90952818785729 l-0.17600153397648677,1.7746193540091022 -2.1523625100827886,3.6384007316215143 l-3.396670570612917,4.650841350848615 -3.5505376095460353,4.043949673432498 m-5.9358492941485546,1.0738142762880094 l0.6703827490048823,1.3195216068591935 0.25826868168491923,1.671384099565963 l0.19154311347361164,30.070380026303692 m0.21832309295161947,-31.36952149351608 l25.918523081923492,-2.4320991056555514 1.592126014121772,0.012440260262649262 l1.081342204983054,0.5018391756141936 0.48324055146904354,1.12385201110101 l0.03894289118012434,1.5229435977870491 -1.054979077234518,28.975737723539034 m-27.504303251235243,-15.95024466460857 l18.61624405072261,-1.9870888735957508 m-18.089144073550663,16.746579382901686 l26.27280026309961,-1.782608960178171 " fill="none" stroke="black" stroke-width="1" /></svg>