<?xml version="1.0" encoding="utf-8" ?>
<svg baseProfile="full" height="105.1881792861767" version="1.1" width="108.4362549974771" xmlns="http://www.w3.org/2000/svg" xmlns:ev="http://www.w3.org/2001/xml-events" xmlns:xlink="http://www.w3.org/1999/xlink"><defs /><rect fill="white" height="105.1881792861767" width="108.4362549974771" x="0" y="0" /><path d="M25,25 m0.0,0.0 m18.226690806653515,5.228778078882255 l0.04885586589417932,0.623715244827383 -0.26961948688535076,1.467934952579846 l-1.172055643132364,2.91869178418226 -3.759754198445584,8.073819832582924 l-3.531822307839439,6.100941034220499 -4.5599565714065005,6.018413353857328 m8.620640497172293,-10.680700285806967 l0.7038927892703015,0.9005957286855742 0.2847572670957141,1.7668636158640945 l-0.049000264421627374,30.441984556903236 m7.240360128977645,-33.544860944025295 l1.9057578517508362,0.21622162516845542 2.421013202357266,-0.0909059129155701 l25.062913358911953,-2.7202609907604534 1.94506531899744,-0.07168754779999925 l1.701126868847588,0.2623416004979944 m-17.84621766044694,-13.93627134282173 l0.5410195541936736,0.8403394400937669 0.21994085977152317,1.799566567898725 l0.11883021289646245,12.933979702626536 -0.5805222173623032,7.2673580275238425 l-1.3079817396567575,6.426517124524598 -2.2790580264118057,6.5581348601609655 l-2.3964467544436125,4.221234968004299 -1.9806349944835417,2.8695069026993463 l-2.073043183342526,2.8086803294865774 -2.4879053946186236,2.9944234166846937 l-4.034133364385077,3.4928235623515347 m17.072929425609622,-29.819195368314684 l5.98944317691472,9.877272959484335 5.777883228616903,8.649857634055444 l5.415838753100739,7.050238024295807 3.4674476377267807,3.184994310894099 m-9.827524331128018,-46.72890366333328 l4.317520228796974,3.443971151644197 2.8241646351463636,3.607058914028436 " fill="none" stroke="black" stroke-width="1" /></svg>