<?xml version="1.0" encoding="utf-8" ?>
<svg baseProfile="full" height="105.86435772448567" version="1.1" width="110.19922283446577" xmlns="http://www.w3.org/2000/svg" xmlns:ev="http://www.w3.org/2001/xml-events" xmlns:xlink="http://www.w3.org/1999/xlink"><defs /><rect fill="white" height="105.86435772448567" width="110.19922283446577" x="0" y="0" /><path d="M25,25 m0.0,0.0 m17.625091042045273,4.265312211866504 l0.04329856444636228,0.5177588552242557 -0.12505045712811824,1.8324764997477676 l-0.8123010629437284,3.2647218885777174 -2.885072477789387,7.7818550355680225 l-3.480597135638502,7.282687121369846 -4.098247498009322,6.787675537712594 m7.296330635761246,-11.536332011251776 l0.48751246378183233,0.9385391265318807 0.11851495071483924,1.297278666994454 l-0.04248182490626747,33.432384792144404 m18.877965343943757,-54.67081169120956 l0.47019253977196457,2.1921374494389827 -0.025096745399392033,11.949102617113082 l-0.3399180359702632,6.689836254902877 -0.7263541224094523,5.891181502530239 l-1.3380838014694378,5.153752561587878 -1.9258013172523443,4.451351515802496 l-2.5634653283317688,4.06311071875207 -3.1074457671368174,3.5278169735402596 m-0.1344518602805811,-34.22033922948489 l1.6554821426373652,0.25658855799538377 7.6080787845453655,-1.3315324179235088 l0.8626148281049785,0.194416210727644 0.3551460854186316,0.40325014647670004 l-0.19214563893040232,0.5950641029037401 -0.40292636401483367,7.635936388126023 l-0.7998060439370364,8.331152127362452 -0.5598759588607731,4.044105794401347 l-0.6989425051327469,4.524554778337587 -0.9380532902009221,4.275066823790742 l-1.0627517680533642,3.6541335824207097 -1.2468173527989312,3.2217997961874136 l-1.5095627795000335,2.8147731207695474 -1.75738215888009,2.3574837998556304 m22.69973574569477,-39.13167819760877 l0.4315109731132004,1.0467329736274895 0.19708336646070557,1.1594834226402473 l-0.003925085722923114,17.967566556501374 0.6385925044327617,6.402075258636817 l0.9578258964406814,1.3603141280144928 1.583277845580896,0.5549499985256697 l3.755408421136709,0.09131906539555798 3.270738287694984,-0.30630612063125967 l0.995451696568627,-0.4900194583315699 0.6190052228063879,-0.7378213732669251 l0.3570017332763527,-1.588118113818342 0.06992014078552446,-2.4461381080622018 m-4.2291220905584685,-31.59725696554791 l-0.009427693201857093,1.0698733921819443 -0.33792452447139343,1.0787409245523667 l-1.7812081984585155,3.24554467368482 -2.452920890299294,3.1818667424339617 l-3.1471317661611278,3.271062870849221 m-0.3328215367976503,4.870764137857891 l2.1181744740011856,2.3603488722759494 2.2634220103560807,3.3885883673752253 l1.9391055669685116,3.6313117716763514 0.9383494703382391,2.5802309060425257 " fill="none" stroke="black" stroke-width="1" /></svg>