<?xml version="1.0" encoding="utf-8" ?>
<svg baseProfile="full" height="97.28411333825568" version="1.1" width="94.85193046660797" xmlns="http://www.w3.org/2000/svg" xmlns:ev="http://www.w3.org/2001/xml-events" xmlns:xlink="http://www.w3.org/1999/xlink"><defs /><rect fill="white" height="97.28411333825568" width="94.85193046660797" x="0" y="0" /><path d="M25,25 m0.0,0.0 m19.406658875583044,8.380424233683256 l0.03367174424111206,0.44892269925368133 -0.24962893356093313,1.358936631536039 l-1.1689058908118113,2.328030430528483 -3.921586021342912,5.991516441618803 l-4.682235050665473,5.602140363145336 -5.367493575028723,5.434866509921965 m9.694024426469111,-9.287374150357861 l0.6589232465141218,0.7514990542232636 0.3004836920413098,0.8803338102102548 l0.037600861634551654,25.394817314492464 m9.325929527331484,-28.726189875144645 l0.9409012154737476,1.0664573260624495 0.33324745903260805,0.9464892527511033 l0.02706728458465336,17.6578414396959 m-5.913377289974771,-28.393591685801123 l0.678462429594367,0.5019185407601293 0.2975091189233125,0.33532545358537463 l0.5222876387358525,17.05842589134825 0.44230669936054073,0.06483940216658508 l9.645098620456888,-1.257186531741628 m9.751161435508061,-11.976520241452556 l0.12906070519659535,0.7786797281975324 -0.31999622128864813,0.8891650114740577 l-4.540949734251181,3.936211599128823 -3.7348705373056466,2.2062338866619635 m-1.4399379768031233,-13.176373569496427 l0.5973817641200776,0.6737302603591658 0.27874818972469917,0.9471496263492081 l0.004794518907661404,26.477073594774 0.3716574888782252,2.3105352163322324 l0.6379648442204525,0.9092542992108272 1.449564474315045,0.626403765938419 l4.263128016527906,0.2354747911549999 3.254523422507111,-0.24417447997785074 l1.2204545344322928,-0.3097919975772441 1.213570577809265,-0.7126446971932645 l0.5270724432410478,-1.1056687427953784 0.14765644227603406,-1.6789509095209343 " fill="none" stroke="black" stroke-width="1" /></svg>