<?xml version="1.0" encoding="utf-8" ?>
<svg baseProfile="full" height="103.28330461629834" version="1.1" width="114.9382188760888" xmlns="http://www.w3.org/2000/svg" xmlns:ev="http://www.w3.org/2001/xml-events" xmlns:xlink="http://www.w3.org/1999/xlink"><defs /><rect fill="white" height="103.28330461629834" width="114.9382188760888" x="0" y="0" /><path d="M25,25 m0.0,0.0 m16.572170630853964,2.9881177111708035 l0.01711408595262388,0.5594686327782918 -0.35650024020066934,1.968937645595169 l-1.1190454052000554,2.869044378224084 -3.9222832848206814,7.338830367734268 l-4.977057109236071,7.178500338192421 -5.659398229729041,7.081573863777223 m10.52273900743892,-11.9154913761129 l0.6651533666432339,0.9541748844146714 0.16778853355673629,1.1356308992830677 l-0.0092852167099816,33.12451727124123 m11.809576363447945,-40.40938411322159 l1.4993782974725156,0.23414613566206965 1.846549932370344,-0.09915196440686526 l16.215397843638303,-2.218938013537716 9.937849223586126,0.14751639756350238 l0.6913176025595144,0.5133610431677483 0.2876146651607439,1.272500367944919 l-3.244522115288806,5.166887631594744 -3.0752308771402275,3.8839534881558078 m-1.9897660528806773,1.8786865645904096 l0.2871181069311199,1.9645412727229834 -0.5743698184409065,1.889029589843865 l-1.8212126014396928,3.143790362951137 -2.553510650940008,3.3052115901936743 l-3.1904286604192427,3.269522725774229 -3.17970939541906,2.6270134702103145 l-3.540392872562015,2.3533644358867614 -3.302631382612448,2.071044195833326 m6.579213482820517,-18.20578471457326 l2.0481825914611105,0.6528937068504298 3.3281173493404386,1.702763559312154 l17.143163880377116,10.07402979790455 4.891650236609145,2.787599701883901 l2.9434675889079487,0.9844486716064436 " fill="none" stroke="black" stroke-width="1" /></svg>