<?xml version="1.0" encoding="utf-8" ?>
<svg baseProfile="full" height="104.76122161764033" version="1.1" width="105.60305529336117" xmlns="http://www.w3.org/2000/svg" xmlns:ev="http://www.w3.org/2001/xml-events" xmlns:xlink="http://www.w3.org/1999/xlink"><defs /><rect fill="white" height="104.76122161764033" width="105.60305529336117" x="0" y="0" /><path d="M25,25 m0.0,0.0 m16.32655906225283,4.118722211188941 l0.04222698700780322,0.5342328202798976 -0.11212222476751468,1.723630873455459 l-0.7959281200512691,2.3152193937189036 -3.4802541502104765,7.179953796152663 l-4.271048135670376,6.556860787218186 -5.159320186762777,6.386914403920883 m9.727060491830995,-10.49188803438062 l0.48657835821988193,0.8477778443149976 0.12245866725419936,1.1101735067312462 l-0.2008358610436877,30.730134737957133 m20.951894322541733,-48.97707204078331 l-0.06880559370739256,1.6960734881668074 -0.48524807579134527,1.7291464454248406 l-3.47695359351051,7.921514444959936 -3.695681561733897,6.257743211345886 l-3.7063248989878015,5.05408023715636 m8.550985969979465,-9.278603289858678 l2.9541208927645966,0.04494810151806636 4.4380605558519,-0.3414494315149442 l13.601476169874184,-2.1610501647557796 3.8541562180206284,0.08682358576482656 m-18.215733994077713,3.549242869853615 l0.6218145496592381,0.8995055012854405 0.327040662793635,1.4925385030574119 l-0.13656121702598417,35.77604781546217 m1.7235456626182324,-26.67970639995643 l11.326730105737491,-1.3969049435502914 2.120624481387415,0.07688315000811168 m-13.515288202200715,12.389749244154524 l12.667333650294614,-1.2948679608662697 2.555231036361876,0.011673517211004058 " fill="none" stroke="black" stroke-width="1" /></svg>