<?xml version="1.0" encoding="utf-8" ?>
<svg baseProfile="full" height="98.55754189093742" version="1.1" width="111.86406919463327" xmlns="http://www.w3.org/2000/svg" xmlns:ev="http://www.w3.org/2001/xml-events" xmlns:xlink="http://www.w3.org/1999/xlink"><defs /><rect fill="white" height="98.55754189093742" width="111.86406919463327" x="0" y="0" /><path d="M25.40841078206491,25 m0.0,0.0 m22.376982778957565,4.414141996243038 l0.044847990224531016,0.4991406772498039 -0.1892166144120897,1.0761461083030548 l-4.953785037241,1.7541825582244455 -5.566971928700266,2.0153581663896145 l-7.750931691680892,2.2781085632713722 m-4.3693362792127575,6.118559976115666 l2.194724712736229,0.3131337490307548 2.75219209906128,-0.08063182315799203 l20.005585197707493,-2.0237583633087164 3.258417462929537,-0.16784910190982077 l1.9013267150798825,0.18835753108746509 m-13.765526045931725,-5.943581708603688 l0.687899078163887,0.8246618451518628 0.3436929401614908,1.412757499789883 l-0.08216249191231194,32.06382647036661 m-0.6168219478640241,-24.129047298845503 l-0.4912916944269304,1.3523152229963504 -1.5617276457782188,2.279239826702996 l-4.667653960329382,5.350699837804592 -4.770935416824748,4.191321790150854 l-5.162091513209182,3.414915436675384 m20.284859223316076,-13.099778985568978 l3.457242708984609,1.7682563120326447 3.89492674956898,3.249545680578647 m7.053501423868143,-16.013596108696383 l0.7867388259993432,0.8445437273423054 0.3571409218780436,0.952125800876894 l0.020674032967887192,21.89555130465749 m0.40345971365019634,-24.90384007320957 l18.195993791934825,-1.861211572082065 1.8228101227538611,0.05137267018244062 l1.1971986027410917,0.5724236016386341 0.3766929810703117,1.4586974471462861 l-0.11735347693534849,23.851681906024396 m-21.15905655197426,-16.852385475432826 l20.19502690531029,-1.5862471161504432 m-20.59681742153617,9.336916714627707 l20.421626222865836,-1.224418990314186 m-20.126002820166537,9.408694377388493 l20.105998540642467,-1.2704416689315485 m-16.396820531303984,5.024980569780062 l-0.21880150395857806,1.3374797601994366 -1.5183210733679546,1.7246330232420681 l-4.37760769368412,3.473676071496826 -5.159080827852327,3.2168839543810495 m22.444392806227146,-10.396179932002742 l3.124025280317476,2.197043075159865 3.2340640213553664,2.7631349357514354 l2.7108990484463624,2.824119349636557 1.4210316819509565,1.994340489295711 " fill="none" stroke="black" stroke-width="1" /></svg>