<?xml version="1.0" encoding="utf-8" ?>
<svg baseProfile="full" height="101.37016743509993" version="1.1" width="106.94808691315143" xmlns="http://www.w3.org/2000/svg" xmlns:ev="http://www.w3.org/2001/xml-events" xmlns:xlink="http://www.w3.org/1999/xlink"><defs /><rect fill="white" height="101.37016743509993" width="106.94808691315143" x="0" y="0" /><path d="M25,25 m0.0,0.0 m20.474874081107,3.5417153388770193 l0.042358903976154993,0.4544710911346461 -0.11076868348252697,1.849879820400977 l-0.6216947189391501,2.42321963969585 -2.9447409434330583,7.572057573995364 l-3.532913761508612,7.167906571572141 -4.361058835748739,6.932494671828669 m8.671953858082583,-11.915540601521991 l0.4368242415292448,0.8245041066438652 0.11010573559748217,1.1029464881436208 l-0.17342126683336428,31.41651273432976 m8.488732875421627,-39.69828388746193 l1.3222115784977375,0.26442428699751663 1.6800557920508485,-0.027470948234795442 l21.081066919937506,-2.481330695993935 3.429920529044063,-0.014910851214437299 l2.123843413952065,0.33769220425709123 m-15.82570619993975,13.352820409369413 l0.7007415437877309,0.8094419413461602 0.2742834214137293,0.7415500775024887 l-0.001647477038280113,22.725109678281104 m-9.426713402023777,-16.760399591735613 l1.7441115906153295,0.38246087798784106 14.848033898010817,-0.2368642857420738 l2.2256694263187957,0.10573160153116305 m-26.483850548458427,16.324472760418942 l2.8469721719203913,0.27025290768388194 14.050195275440318,-1.1929930664965647 l10.946157159709372,-0.5635136433159726 2.5096260285195173,-0.01176578459722168 l2.42286430562481,0.4238325799638318 " fill="none" stroke="black" stroke-width="1" /></svg>