<?xml version="1.0" encoding="utf-8" ?>
<svg baseProfile="full" height="124.2525286796616" version="1.1" width="105.42202071218715" xmlns="http://www.w3.org/2000/svg" xmlns:ev="http://www.w3.org/2001/xml-events" xmlns:xlink="http://www.w3.org/1999/xlink"><defs /><rect fill="white" height="124.2525286796616" width="105.42202071218715" x="0" y="0" /><path d="M25,25 m0.0,0.0 m20.94366919051576,2.473759414204318 l0.0595180333664195,0.5201441748925304 -0.24482947797877352,2.2285781558256685 l-0.8398434574095576,8.00724647428014 -0.8146279315346314,5.149930850269164 l-1.1991704010238775,4.72469075164413 -1.2835207686975594,3.8267713771541647 l-3.2047349360532666,6.935498475885344 -2.315210575168159,3.502194864171977 m6.939289995483633,-14.220805884676412 l0.3500561078673292,1.0629551892461226 0.11738526791395124,1.254426570280194 l-0.10260954028571463,34.30419867738128 m14.511547454215805,-57.639488784493665 l1.821254279501568,1.0664097132769572 1.4839657655593785,1.6345349846977413 l1.0987455561527042,1.7903284218872566 0.7589520640899031,1.8618340492542056 m-12.783207758687848,6.404266589295197 l1.8691293075326834,0.27786122113315587 16.962403946794705,-2.7365834017682538 l2.4085170223984744,-0.13298225544575107 1.307568388664478,0.32381445920047525 m-17.780994959365863,10.007811688794838 l1.6738765578018144,2.5409657034333692 1.1515310339499063,2.246194632844826 m9.349508082058625,-10.66459925113319 l0.11472756130621965,1.0700854526948846 -0.19580640888098055,1.301134930883265 l-2.912981486177899,9.913923808080918 m-15.627665771525756,3.6918014331334286 l2.0826959693324687,0.27064797566627 20.260558653403102,-2.55031242521386 l3.764571943536632,-0.18519159078307762 1.8109451617218568,0.21040165594655902 m-23.250990630129778,3.6311519321633647 l0.4012287726279583,1.6480520048195928 0.017161404049141394,5.554098651945026 l-0.2517555804854624,4.925272155913709 -0.6347449919285226,4.9404830408683305 l-0.806004882906606,4.002577231408426 -0.9973747000520407,3.622005202020803 l-2.6125031978324755,3.219249459528706 -1.9208434012900355,1.0014973509751894 m26.15695568334929,-24.448822325818295 l0.04594133592563149,1.172841167655148 -0.1342708090689959,1.1993381355249577 l-2.671700857678856,5.37761386618214 -2.8920653809113164,4.315347862936892 l-3.138747701218459,3.642191961167556 m13.229498032594167,-6.080351233364417 l-0.11579217170459463,1.3788225716798785 -0.6047169761487678,1.1356248994167346 l-3.8406493786847844,4.496468536918008 -5.146609056356035,3.8574062279711807 l-6.059379433152457,3.3125726921236 m19.11417076281262,-4.1143582742008995 l-0.18503266030080526,1.4918087699149911 -0.8852292348706181,1.6176897678000823 l-1.9130398822891874,2.2910813107668204 -2.7722338905679247,2.6028962357210927 l-5.9685592949506265,4.3237736874698545 -7.089797157618936,3.663747688208963 " fill="none" stroke="black" stroke-width="1" /></svg>