<?xml version="1.0" encoding="utf-8" ?>
<svg baseProfile="full" height="97.12781818744953" version="1.1" width="116.64554166992706" xmlns="http://www.w3.org/2000/svg" xmlns:ev="http://www.w3.org/2001/xml-events" xmlns:xlink="http://www.w3.org/1999/xlink"><defs /><rect fill="white" height="97.12781818744953" width="116.64554166992706" x="0" y="0" /><path d="M25,27.347298255626658 m0.0,0.0 m19.451105955673373,2.949801415998441 l0.038041193134811566,0.5427629896544773 -0.1181413666568227,2.044251840113531 l-0.8006417596207306,2.595153829409056 -3.899651876689777,4.320701164133931 l-5.884474796933792,5.3625109144750605 -8.171530140177813,5.558935653801266 m13.923280756642715,-8.626944080241747 l0.5084028790381478,1.3502130956711296 0.11616817447336329,3.342814891723469 l-0.5085627164353549,20.845546479384662 m9.10391855023763,-27.383420458605723 l2.1563475687764337,0.31716950711298825 2.1782688572230424,-0.09202522061432322 l28.563445041605593,-2.871585229139807 3.361228780969046,-0.24648312265132727 l3.129559109651788,0.23039315549297418 m-21.84661906147949,-12.587095081344712 l1.0490614574333328,1.1136435671811502 0.356276678887892,1.1749142893210769 l-0.15382864463800147,44.83926033094731 m-0.9051209073672717,-32.41581179614341 l-0.5773194509931027,1.998587258377161 -2.1689660477254256,3.2400975494892714 l-2.9787506843347193,7.699776814026779 -2.547763633153424,5.424573352804598 l-3.9480423510754235,6.256529874385775 -2.609227233392533,3.121603963783631 l-2.613796892076128,2.45520863374157 m19.227630440398908,-27.55559496175704 l6.353038235846038,8.591416081586628 6.553892451009081,7.90396003355305 l3.379150803982991,3.333417093022067 2.9270699856538807,2.427865654021274 l2.255081720650054,1.4745918957829236 1.7470105913887617,0.642722303433202 " fill="none" stroke="black" stroke-width="1" /></svg>