<?xml version="1.0" encoding="utf-8" ?>
<svg baseProfile="full" height="178.56727418701064" version="1.1" width="89.31042794505478" xmlns="http://www.w3.org/2000/svg" xmlns:ev="http://www.w3.org/2001/xml-events" xmlns:xlink="http://www.w3.org/1999/xlink"><defs /><rect fill="white" height="178.56727418701064" width="89.31042794505478" x="0" y="0" /><path d="M25,25 m0.0,0.0 m17.19018199325493,5.390058164458138 l0.04631844614944665,0.5375552944367789 -0.17966063632240464,1.6501539449755667 l-0.8513400820337957,3.5358372499051187 -2.8171151302717017,8.429832302494523 l-3.285380744919485,7.13010939465206 -3.7863974707861714,6.224294642350464 m7.149439306303727,-11.789839023318386 l0.5039394425999328,0.9904443946449143 0.1520551541859177,1.2927184406275187 l-0.026547782070900378,33.422716672183434 m18.602516902764847,-54.46221976103126 l0.39874828190652617,1.007327143711609 0.11760288714318351,1.1622208477539036 l0.023577310503809068,11.59960662110912 m-8.06094905439455,-6.842623384208402 l0.3603926819772151,1.3649823639488696 -0.1263129026816968,1.1152107960792617 l-1.707715013995608,4.538560910994274 -1.5002367430988777,0.5444727331873623 l-2.5419332629681244,1.0515240795877323 m-0.6918022442686581,-9.532618199195266 l0.44872464129262934,0.8433896122092778 0.2445279490313683,1.0233132072224604 l0.04099997853221284,12.024807049131889 0.2718269106909005,0.7404779802415764 l0.5015016729388586,0.25240547955915504 10.914794642950673,-1.889594864884569 m1.0900237672808266,-11.395616279145463 l0.4564422813879639,0.9406074163213888 0.13606876189798223,1.114332526686081 l-0.7795611817209755,9.557018168639454 m-16.800707455950985,8.159665195366243 l2.3007186091547096,1.0103457405765515 1.6024485244428472,0.8047245663929073 l1.2313545485881927,0.8854687319795248 0.5390317815484611,1.131177844922845 m-6.181160794298268,6.027597533103555 l1.4074412649246306,0.25869801492838385 6.950590110408686,-1.5970776705232397 l2.1588953124919077,0.008138068342464265 m-6.0388910230135595,8.538316804445564 l1.4935359171128226,0.1400649052197543 3.2863628682039057,-1.0138784083983832 l1.4683329118062205,0.0014602735102385734 m5.5057269605252745,8.266797317037016 l-0.11393865292013607,0.9082770548320324 -0.06944471010505615,1.0090532188193468 l-2.249988850913619,5.758824274208037 -1.9147788417513605,4.295428984890171 l-3.249851753873568,3.7110723395326066 -2.4119491474822645,1.6553236197939518 m-1.3710530003856858,-14.924030178777627 l2.3852111012233603,1.5826718127288832 2.5234895527606573,2.4739796798482034 m4.441954968244708,-13.507136275819573 l1.2078379502656507,13.25267714961448 0.3894160826134969,3.9018889058861284 l0.47222023369763505,3.0221403624965064 0.6489102793864966,3.613519350968342 l0.6673596080260021,4.146791658793887 0.6665393966540801,4.503306851195162 l0.7686371307531521,4.653221065017615 0.7283641567670743,4.59912641746398 l0.7314548978488034,4.362056471311277 0.7608965086793421,4.68302048751523 l0.7702344347337501,4.514092255997232 0.7610895194548439,4.445187048803127 l0.7671047897048209,4.020270978490009 0.4420866010223602,3.976655902117655 l0.2422037432873688,3.7748822841425986 0.09801164815801056,4.202821875589957 l-0.0975673936556782,2.479620577053716 -0.2198149301810179,0.9871854275956967 l-0.37133858227433425,0.4796894206822566 -0.4727997775172424,0.040700523124363494 l-0.5360314501531124,-0.35495687279388183 -1.2626280125176097,-2.1738899305522295 m0.2870541013574157,-25.756094830522226 l0.039077034960014675,1.7942633045903158 -0.4116097932753102,4.407326690524507 l-1.2155065641300413,8.240515035894425 -1.8573919061642623,7.01603220773294 l-2.686218025874736,6.155839865953495 -1.5179766207613834,2.4229543300360676 " fill="none" stroke="black" stroke-width="1" /></svg>