<?xml version="1.0" encoding="utf-8" ?>
<svg baseProfile="full" height="117.6136913781023" version="1.1" width="99.92858616470586" xmlns="http://www.w3.org/2000/svg" xmlns:ev="http://www.w3.org/2001/xml-events" xmlns:xlink="http://www.w3.org/1999/xlink"><defs /><rect fill="white" height="117.6136913781023" width="99.92858616470586" x="0" y="0" /><path d="M25,25 m0.0,0.0 m16.889148414940546,4.297325835491878 l0.03935532239396999,0.5725859664900649 -0.1369362317641526,1.8847662006640094 l-0.863210259344672,2.8655613065543526 -3.674713883695472,8.4485045062834 l-4.38304776910456,7.680674922821892 -4.9412826140056705,7.594385123749377 m8.900333205618454,-11.00198904187077 l0.46903432787697763,1.3750655703394734 0.11819952557517927,1.4860958261176376 l-0.028530524256984286,34.76589810230477 m9.66377710470916,-47.58979525430996 l3.37864512306885,0.19200262424562986 16.88353832749768,-2.252209591517802 l4.131144368162776,-0.34211278497338976 2.0830066055962204,0.2078046520577992 m-14.786582193167938,-8.094272712248024 l0.5183697023873162,0.8986116578626265 0.2103458126250666,1.21710403500495 l-0.02584170867172041,16.991491915672064 m-10.522584903851925,1.8806743598842197 l2.7181635161943367,0.12218316930940368 14.007313731235593,-2.0174908346266047 l4.998974112394387,-0.2399328100509686 m-22.59738740069448,9.62102449355945 l1.5981587206676335,0.7528041460145426 1.7043601810647981,0.09865324302865967 l17.502516108852394,-2.535927397723768 1.3777270192763518,-0.02896700402549273 l1.0455252336166219,0.28528132004759815 0.5684925899617463,0.4559144179798917 l0.3028692216876772,0.5963862546624399 -0.015565991552726331,1.695210271818193 l-1.744408356763967,6.734880686032705 -1.4075945335989315,5.069973945426844 m-10.310761388256449,-11.192075912833214 l0.6931928678807051,1.0660107862081052 0.30051603259841375,1.2940735202569966 l-0.03905119558277463,8.144083973114569 m-10.764273932792934,2.0266655915322476 l20.750003023188807,-2.227866918108386 m-21.359830486118813,-8.938359775280716 l0.5494858626132714,1.5658866085891647 -0.22440303173043813,1.4149610427288297 l-0.697562207202406,25.984292360417516 0.27840910254049456,2.132097072773503 l0.5907479258680024,1.188274689880449 0.8058801707198263,0.6669678116012281 l2.2264110512287947,0.5575580730661731 4.38192532631549,0.24295533207875564 l9.604537848148464,-0.0788950987572772 5.160092977322479,-0.5407555321351148 l2.2211665215987266,-0.677290618275401 1.6522452193813055,-2.8040230638697206 l0.1285425720543539,-2.7986159730319615 " fill="none" stroke="black" stroke-width="1" /></svg>