<?xml version="1.0" encoding="utf-8" ?>
<svg baseProfile="full" height="101.12416214963596" version="1.1" width="109.03013887653587" xmlns="http://www.w3.org/2000/svg" xmlns:ev="http://www.w3.org/2001/xml-events" xmlns:xlink="http://www.w3.org/1999/xlink"><defs /><rect fill="white" height="101.12416214963596" width="109.03013887653587" x="0" y="0" /><path d="M25,25 m0.0,0.0 m19.345850835675655,3.9281397003440475 l0.04472248299727158,0.4514142924040144 -0.24427656749514087,1.5774752581485898 l-1.0134401197543212,2.5029024712213888 -3.4638395801611015,6.534389876114409 l-4.285372911535887,6.154538562940359 -5.290593570100694,5.807195578122398 m8.950971344766947,-9.240835119334436 l0.6398315473077849,0.8010573669143439 0.29430472082623893,1.501985274477865 l-0.034447906335321916,28.16458061983293 m21.334383740095227,-44.17904843036223 l3.613288822760364,2.5400831286342185 1.4452862682537986,1.5954913863307576 l0.6394717248752194,1.1371952479193013 m-17.13107727758464,5.972120421034268 l3.5581893220318044,0.17568128171633224 24.884869589518765,-1.9170017483675894 l3.508483652398571,-0.05518547617452307 2.233532757995328,0.2713328927395776 m-27.980689963994642,8.788308644056713 l2.416253896332119,0.12991493476343854 16.765788964101596,-1.125805532174034 l1.9318750839144867,0.02659152973681414 m-21.438733755089345,8.622791199237177 l1.9935882620309653,0.14393855096500305 17.482897270077064,-1.11691624216996 l2.7052396784220987,0.11006298035886951 m-24.682981009537833,8.071698538437216 l0.8643832611680139,1.6117714901927054 2.2179605476127437,12.138293471576006 m-1.900187917859204,-12.903789577539056 l22.353910785894254,-1.7783914505731293 1.9547728242788498,0.39945433805527053 l0.8263552895609156,0.913355057284464 -0.012740715318623122,1.4570416926161749 l-3.031620290316173,8.912176899936956 m-20.146469414451865,1.494507640441219 l21.495352823950498,-1.1213390540049553 " fill="none" stroke="black" stroke-width="1" /></svg>