<?xml version="1.0" encoding="utf-8" ?>
<svg baseProfile="full" height="105.1733459998761" version="1.1" width="111.18289926333426" xmlns="http://www.w3.org/2000/svg" xmlns:ev="http://www.w3.org/2001/xml-events" xmlns:xlink="http://www.w3.org/1999/xlink"><defs /><rect fill="white" height="105.1733459998761" width="111.18289926333426" x="0" y="0" /><path d="M25,25 m0.0,0.0 m16.941845271006887,4.009472876871206 l0.04293737486800909,0.56340239887891 -0.41335006521016165,2.4078289564658126 l-3.1651593852385993,7.057176204650128 -3.0096235900656203,5.790978117423828 l-3.8118018863852354,6.239544248203119 -5.256340115148733,5.982916071962459 m10.378418379596468,-11.704484570123666 l0.6270578124556193,0.9673987233503637 0.2576193437233501,1.213366882258479 l-0.014187337585332385,32.645746089935464 m24.026755959146303,-53.688739612030616 l0.8262459327095328,0.933958394971006 0.4043761040671991,1.0928630426989039 l0.047027413848923595,7.358061623983025 m-14.727873341347637,0.9042758113279901 l3.5080392590051854,0.21514157053918795 23.414078592554628,-2.3124124845509773 l3.5832511364759636,0.17554505668795634 m-25.295704085565063,6.185306841865197 l2.8855175657678793,3.562348680145405 1.035855493187602,2.0341969703429985 l0.47522016867824485,1.716536862854592 m15.060674207268946,-10.479414994676306 l0.21390671894259897,1.107426583633223 -0.8547421301836103,2.3655586743137262 l-1.8767200868128733,3.783593757391711 m-25.339526042597313,4.365069781993682 l4.890519745086159,0.18839105769607095 17.40588785034184,-1.6588558984615882 l10.904797610133533,-0.8087863334053337 4.600915077488477,-0.1306508882318288 l3.4169803131210776,0.2577625714496606 m-32.8982858441656,9.375788993427776 l0.7511669547701779,1.546226846622534 2.1439475801994545,13.550832212723503 m-1.5434132172770905,-14.158151418483612 l20.26338681968177,-2.122747326366473 1.3196295425699427,-0.0068746182857772845 l1.662637366359198,0.3424003793741846 0.5255469932037573,1.067114881286671 l-0.08336018332102603,0.8582568555430298 -2.801309568592182,10.494546042691688 m-19.180638395635732,2.169046427872984 l21.105031848053997,-1.4138336988864424 " fill="none" stroke="black" stroke-width="1" /></svg>