<?xml version="1.0" encoding="utf-8" ?>
<svg baseProfile="full" height="102.55375421239962" version="1.1" width="100.84870801098143" xmlns="http://www.w3.org/2000/svg" xmlns:ev="http://www.w3.org/2001/xml-events" xmlns:xlink="http://www.w3.org/1999/xlink"><defs /><rect fill="white" height="102.55375421239962" width="100.84870801098143" x="0" y="0" /><path d="M25,25 m0.0,0.0 m11.728004411489449,3.7127724632833274 l0.4452713654975639,0.2765509737857901 2.318367676567639,2.405003322224324 l1.3214558697617702,2.4667566294125973 m-13.62195363204379,6.661061615998951 l1.647927932008514,0.06711367990697957 3.021235562679495,-0.26845228037800734 l14.048919073932096,-1.9406316897478342 2.4543891578447785,0.011115936455478943 m-16.387498498975837,10.360922022119157 l1.9968938230004547,0.03090355609324438 9.858557789455567,-1.5075081669432684 l1.622285550478309,-0.009148448428641707 m-13.020941104071126,9.416650857155416 l3.1899729862626205,0.04668739903054352 8.970990189786223,-1.2320979515966455 m-13.479981324459263,9.133609595268787 l0.5600849426197618,0.9553807549245 0.31465502184328725,1.541295301286504 l1.621575789797295,10.425768642548435 m-1.1847490727942782,-12.14819578511548 l11.137940555704198,-1.8083349053825963 1.6452845974948018,-0.014045996207670088 l0.5114713055695689,0.2968043727102332 0.2811177301244871,0.6054910114752166 l-0.053822084358751666,0.9224851448975646 -1.8449188984296052,8.35293964459773 m-10.016599072108802,1.9370103710352184 l11.043021318437262,-1.2480677178000832 m7.392072182563616,-46.879883388481026 l1.6077815324831795,1.1718707844283571 1.8635748503804208,2.163045071205826 l1.503275047672258,2.3149186546359757 0.6103068948715747,1.4708891226335834 m14.570271370019823,-9.27276714884177 l-0.272167532209045,1.2536582014205733 -1.5084749806345845,3.0291267680379317 l-1.9738668959313173,3.0792238610935088 -2.2840756363689785,2.9510317626383475 m-14.324008146683388,3.769960471367314 l2.922911501357868,0.13848392434641954 14.499337783070231,-2.19507524206167 l4.119921093658422,-0.3748436817736416 1.8142218366000287,0.21089083345118723 m-21.51314002898735,2.0199940974860855 l0.7322558820485411,0.899044378799509 0.230471086636194,1.0606679262485847 l-0.0802486351468747,20.40133638410833 m10.236595084847295,-23.40635311640236 l0.5943199577055266,1.0013753649068975 0.2194896911575573,1.149785229624477 l-0.03124620711328693,24.56095985614093 m-9.799468151283667,-21.15548050488267 l10.475317646157798,2.253695912733827 2.2809098454447607,1.2596526852349903 m-17.67242505602427,7.144256351581098 l3.2994545280266223,-1.609585718287403 14.85880735441827,-1.8668666024742637 l2.7558377170645154,-0.012661183871027036 m-21.55620917097537,9.803738386262093 l2.9937874409792657,0.2598651129738658 17.731066063535557,-1.7652520197612338 l2.4227955505815166,-0.07393691929050489 2.0002975479450367,0.26663488094080073 " fill="none" stroke="black" stroke-width="1" /></svg>