<?xml version="1.0" encoding="utf-8" ?>
<svg baseProfile="full" height="103.20003024728058" version="1.1" width="108.43363185708048" xmlns="http://www.w3.org/2000/svg" xmlns:ev="http://www.w3.org/2001/xml-events" xmlns:xlink="http://www.w3.org/1999/xlink"><defs /><rect fill="white" height="103.20003024728058" width="108.43363185708048" x="0" y="0" /><path d="M25,25 m0.0,0.0 m22.444557238376674,4.890077915342951 l0.04514596638741528,0.5043849612180986 -0.10718896329059407,1.5681894369399176 l-0.8752168459876276,3.168876173346835 -3.0436259229072897,6.891516818850336 l-3.7977190089034387,6.7583520504501235 -4.333497985624696,6.054324744293496 m7.787792717440115,-10.16640868629294 l0.49964130157803155,0.9246910384740671 0.12196764806088296,1.2352166626962613 l-0.03677428910773375,31.370809131961426 m19.870212580192703,-51.37904248016478 l0.4406460355504822,1.0202997703648438 0.08514421310220249,1.13585085525923 l0.04351594718295549,12.136263888842334 m-8.27706677378177,-7.110051730856733 l0.38417413456537153,1.2385822785696399 -0.12262225290953702,1.0474474244229748 l-1.7521266831714901,4.23584673021069 -1.551046105540328,0.588629065876552 l-2.6655869419658687,1.0381786825139068 m-0.6930034190879578,-8.720697292733076 l0.5044943281291203,0.7912845209448008 0.2693798040111152,0.9252794004041544 l0.217521952167452,12.459546707763959 0.42257601289256486,-0.2783699075647254 l7.933988109334164,-5.755908639490342 m3.1757524957312033,-9.790114311410527 l1.3679606953118808,0.4581417958660518 1.692456519021034,0.07678770452334598 l12.79187085905207,-1.2312907342744779 2.0974977870692824,0.17363572525276336 m-10.661544745729739,7.1371540803596645 l5.726556081647702,1.4507983728298173 3.001036228521722,0.7512478221263321 l0.9695784994339586,0.4741566042491664 m-21.970222728227625,11.234851798348245 l1.3094863546983233,0.25264637411728574 1.7992557276870953,-0.027360759384767893 l17.21864740838109,-1.8481542956975945 2.5257043801234027,0.16185602587558717 m-11.715608797138099,-6.672599303153582 l0.4517504849010318,0.76542725043603 0.17951397221959847,1.0188586970454023 l0.00959668493175222,15.236154995805304 m-15.437046238286994,1.4439834464951786 l1.5605547250926004,0.25561661672456953 1.8031186307910125,0.024962487825260116 l24.243564591176725,-1.8085006137477702 2.4788694439785717,0.40839628387150984 " fill="none" stroke="black" stroke-width="1" /></svg>