<?xml version="1.0" encoding="utf-8" ?>
<svg baseProfile="full" height="104.75814908238613" version="1.1" width="106.56256587973519" xmlns="http://www.w3.org/2000/svg" xmlns:ev="http://www.w3.org/2001/xml-events" xmlns:xlink="http://www.w3.org/1999/xlink"><defs /><rect fill="white" height="104.75814908238613" width="106.56256587973519" x="0" y="0" /><path d="M25,25 m0.0,0.0 m14.703676254552448,4.82202218488212 l0.04890311337936285,0.5143307277534898 -0.17710725568973343,1.8927116816325995 l-0.8561200875544894,2.6101189571020194 -3.49151576343168,7.98076962740555 l-4.059126757117744,7.16943446117291 -4.700562028402075,6.916143245380919 m8.605688735029734,-11.385937753148072 l0.5542920087473383,0.8393135268463386 0.22233879078006324,1.6441857523062968 l-0.03840381263564001,31.755056671051953 m20.15668274580964,-41.195230081500334 l7.815673569521128,-1.1255371115105002 3.0683147201205907,-0.13386639595872532 l7.823631505443623,0.13348107021473107 6.658914690545666,14.807563933114292 l0.22728545063695516,4.93512802469329 -0.6017004881266206,4.0195709993198685 l-1.213556620880804,4.427812163380114 -0.6497981915653042,1.790134707687984 l-0.6794669301217938,1.0736956137559408 -0.7458016994246061,0.5327182810018739 l-0.8008611606999366,0.12224649406831725 -0.8288628552969454,-0.1954123386875579 l-1.6186223719527555,-1.0674239579686677 -2.083794292224575,-1.7546356725040124 m-24.676453032551706,-23.975069990670388 l3.1863772934511885,0.3113759448793344 11.624652355473826,-1.8052952538776603 l1.8515165714145825,-0.920508458714775 m-15.77665913271909,9.84021637122049 l0.7858521440032741,1.4456058038534985 1.041510122596097,10.534089199887568 l0.6650165611441241,5.1392936256348385 m-1.5285884265622751,-15.638788752620973 l15.603910101857068,-2.348038122472586 0.9380340181670639,0.021120294923250352 l1.1166150431774686,0.44854498514809565 0.5739825337861235,0.9586678813605337 l-0.008685554262912822,0.648254724074874 -2.4121719803704926,13.756794748978837 m-13.757859642785446,1.5596423383112585 l14.798649448542744,-1.2614158287426036 " fill="none" stroke="black" stroke-width="1" /></svg>