<?xml version="1.0" encoding="utf-8" ?>
<svg baseProfile="full" height="104.53166745603085" version="1.1" width="109.49251873418689" xmlns="http://www.w3.org/2000/svg" xmlns:ev="http://www.w3.org/2001/xml-events" xmlns:xlink="http://www.w3.org/1999/xlink"><defs /><rect fill="white" height="104.53166745603085" width="109.49251873418689" x="0" y="0" /><path d="M25.000004866160452,25 m0.0,0.0 m14.40864086151123,2.2421416640281677 l0.04382547456771135,0.6107940524816513 -0.11086652986705303,1.9616399705410004 l-0.45424457639455795,1.7690925300121307 -3.7921804189682007,8.177406787872314 l-4.592675566673279,7.746100425720215 -5.502504110336304,7.709265351295471 m10.137038230895996,-11.176459789276123 l0.25654854252934456,8.054175972938538 -0.44857803732156754,27.43751049041748 m21.002743244171143,-54.178500175476074 l2.778376340866089,1.9757044315338135 2.9344233870506287,2.90930837392807 l1.968672126531601,2.7207794785499573 1.4050941169261932,2.8527161478996277 m-20.263359546661377,6.72944962978363 l1.555783450603485,0.21412532776594162 2.0845356583595276,-0.14073754660785198 l26.34718894958496,-3.0686205625534058 4.357934892177582,0.07391625083982944 m-27.603602409362793,6.150802969932556 l1.4755833148956299,6.904249787330627 1.0795214772224426,6.685917377471924 l1.1619192361831665,12.908047437667847 m16.62002682685852,-30.261094570159912 l0.532393716275692,1.6820275783538818 -0.6220538541674614,5.006569027900696 l-4.635119736194611,22.265517711639404 m-25.5033278465271,3.482597768306732 l2.5787964463233948,0.2468584105372429 15.419200658798218,-1.555783450603485 l17.524163722991943,-1.3701006770133972 5.248676538467407,-0.2694408595561981 l2.099939286708832,0.25324176996946335 " fill="none" stroke="black" stroke-width="1" /></svg>