<?xml version="1.0" encoding="utf-8" ?>
<svg baseProfile="full" height="119.22446510069585" version="1.1" width="101.58113832767191" xmlns="http://www.w3.org/2000/svg" xmlns:ev="http://www.w3.org/2001/xml-events" xmlns:xlink="http://www.w3.org/1999/xlink"><defs /><rect fill="white" height="119.22446510069585" width="101.58113832767191" x="0" y="0" /><path d="M31.115744538860476,25 m0.0,0.0 m15.227685444562706,7.913057348533219 l0.03948130928745521,0.5380018478146414 -0.16245911133023608,1.9748269941709586 l-1.0823233031490203,2.3166517502421624 -2.3483350605965843,3.6725154110201554 l-3.075261643018615,3.612160820175017 -6.324508673779395,5.978986643340265 l-8.390023500836786,5.389547921275147 m16.416281822837902,-20.221176879797977 l4.1955101712356315,0.1097119000660361 19.838458377212454,-2.295463133655291 l2.4124193281912993,0.878614504694547 0.22174959894695964,0.6250294943581354 l-0.14374559511256155,0.7120738061679973 -0.4861166673648744,0.8274694332361179 l-9.286680895899625,8.342062555152836 -7.1465842182845485,8.617909782219883 m-8.45964690331995,1.7698728277996345 l0.6082888247422721,1.3600403295174912 0.4303974855874319,1.3671570889373785 l0.2271036241112422,7.362568230436624 -0.5057085330422887,6.734484334980195 l-1.2731821599483089,6.471917179868402 -1.853783876201845,5.033173625580594 l-2.620082111173288,3.8715547645829522 -3.6549118127489804,3.6698268385887967 l-3.515870377096067,2.591889681389935 m29.28166410046165,-39.97112700684358 l2.2516706865168192,1.2758572495953986 1.1337044137289214,2.154389894000669 l8.99966958227649,4.007078734595421 m1.7528625548151784,7.718813903825262 l1.4981620741921546,2.0826261876286205 1.25950883300785,3.1572393794839995 " fill="none" stroke="black" stroke-width="1" /></svg>