<?xml version="1.0" encoding="utf-8" ?>
<svg baseProfile="full" height="101.5822678444348" version="1.1" width="111.1075270533852" xmlns="http://www.w3.org/2000/svg" xmlns:ev="http://www.w3.org/2001/xml-events" xmlns:xlink="http://www.w3.org/1999/xlink"><defs /><rect fill="white" height="101.5822678444348" width="111.1075270533852" x="0" y="0" /><path d="M25,25 m0.0,0.0 m19.73339767561757,8.881954683604206 l0.029944865607498,0.46471220708380806 -0.1373566931084603,1.767137413567516 l-0.9133973582177021,2.501228788365414 -1.8143082558357173,3.4278042652821825 l-2.3947613822329004,3.4146726512393237 -5.064484106283924,5.760454304936801 l-6.465260016130439,5.577121857914009 m12.235252876654762,-10.31545131950041 l0.5241499201281148,0.9611130591905631 0.12334750465118761,1.1497988580489809 l-0.23365087849839627,27.991721074702404 m10.965422309372478,-30.563815538857455 l0.9236139958131138,0.14720093625223818 1.1965572642964077,-0.08345625492912988 l28.35132059262125,-2.262921001209793 2.2822729494478646,0.10475778149592706 l1.3379317124477903,0.6816387173700609 0.4275340770346975,1.022115831885691 l-0.07819862527769791,2.1025790912790963 -4.842291212037708,17.43489640975231 l-5.591643510791587,6.477089637921529 -1.6884858191253123,-0.49204005957361147 l-2.059042374443681,-1.8732093842616426 m-4.764993160145262,-36.599695192681935 l0.27660963586460074,2.287631696361679 -1.1013712510700746,4.534760447916673 l-2.0795612789479603,5.423974827878221 -2.8307272265729653,5.405565502619836 l-2.9632681703858887,4.3878138487917 -3.6292514285917807,4.239146002771322 l-4.242053517350171,3.826876603394809 -3.6623763893469508,2.552096912808363 " fill="none" stroke="black" stroke-width="1" /></svg>