<?xml version="1.0" encoding="utf-8" ?>
<svg baseProfile="full" height="98.15379538829366" version="1.1" width="104.44058371737867" xmlns="http://www.w3.org/2000/svg" xmlns:ev="http://www.w3.org/2001/xml-events" xmlns:xlink="http://www.w3.org/1999/xlink"><defs /><rect fill="white" height="98.15379538829366" width="104.44058371737867" x="0" y="0" /><path d="M25,25 m0.0,0.0 m20.334760939464072,8.082443432172381 l0.03581286364225175,0.44564388206560285 -0.247418459492822,1.488495763602284 l-1.0439110539233927,2.450613128616689 -3.564018019522465,6.047830285900703 l-4.511308813919977,5.851497087314469 -5.355219060420788,5.632485705091159 m9.548246423616686,-9.398289613551347 l0.5920479012064729,0.7365838567347913 0.24237013280121902,0.9132642705570219 l-0.006817589010046738,25.903227589789896 m10.102991661086362,-28.62811171268588 l0.42012425150629656,1.1561449670501756 0.11091045614190596,1.0557214350507422 l0.043093487615586304,16.988570676229454 m-4.944673057608069,-29.345678295972533 l0.6860769709841358,0.5461913991747427 1.0944871097959854,0.3270490849775544 l9.598600884220124,-0.3021415041976952 14.204529624068973,-0.7571351138820049 l5.9396605560735605,0.34924435257243264 1.160236509052603,0.41192734984863866 m-15.867735394309515,12.217663900074324 l0.68422216470504,0.5661567756314257 0.396672987714753,0.6950652987399375 l0.2669271945506868,11.614614589878425 m-12.8302227959467,1.4890132303015684 l2.2339200151883856,0.17047504496326585 21.303920792265195,-1.5191969970739405 l2.4301930258827555,0.25688980808228346 1.3576043117458803,0.3540099885791568 m-14.43523154096742,-28.15924104092945 l0.515432794386681,0.6821770667280742 0.25647243502921646,1.1705677240899988 l-0.04192006496184659,35.307856871729 " fill="none" stroke="black" stroke-width="1" /></svg>