<?xml version="1.0" encoding="utf-8" ?>
<svg baseProfile="full" height="108.99738859385252" version="1.1" width="109.49251459911466" xmlns="http://www.w3.org/2000/svg" xmlns:ev="http://www.w3.org/2001/xml-events" xmlns:xlink="http://www.w3.org/1999/xlink"><defs /><rect fill="white" height="108.99738859385252" width="109.49251459911466" x="0" y="0" /><path d="M25.00000082422048,25 m0.0,0.0 m13.023173809051514,6.663264632225037 l0.039827204309403896,0.6177005544304848 -0.10644620284438133,1.986476480960846 l-0.43010011315345764,1.7961816489696503 -3.749988079071045,8.802737593650818 l-3.692057728767395,6.787970066070557 -5.084409713745117,7.660969495773315 m9.678431749343872,-13.084205389022827 l0.6173637509346008,0.9743771702051163 0.2448994293808937,1.2535886466503143 l-0.19314061850309372,35.53832769393921 m19.486196041107178,-55.09592533111572 l4.999198019504547,3.5479050874710083 2.168014496564865,2.3330488801002502 l1.4960883557796478,2.16195210814476 m-17.11508870124817,9.505987763404846 l3.3246031403541565,0.07949653081595898 24.02228593826294,-1.7550493776798248 l3.111405670642853,-0.0491577573120594 1.8702787160873413,0.2969778887927532 m-17.675530910491943,2.3037469387054443 l0.662158876657486,0.9723563492298126 0.37254855036735535,1.7591330409049988 l0.17244422808289528,28.383915424346924 m-14.312869310379028,-16.56542181968689 l3.2915961742401123,0.1986413449048996 22.40023374557495,-1.8651214241981506 l3.7139499187469482,0.19730465486645699 m-36.12706184387207,19.863417148590088 l4.06389057636261,0.271554384380579 15.637187957763672,-1.1767549812793732 l14.739938974380493,-0.6924081593751907 5.083736181259155,-0.007678103866055608 l3.759755492210388,0.5567388609051704 " fill="none" stroke="black" stroke-width="1" /></svg>