<?xml version="1.0" encoding="utf-8" ?>
<svg baseProfile="full" height="106.66189158177195" version="1.1" width="105.87753548242311" xmlns="http://www.w3.org/2000/svg" xmlns:ev="http://www.w3.org/2001/xml-events" xmlns:xlink="http://www.w3.org/1999/xlink"><defs /><rect fill="white" height="106.66189158177195" width="105.87753548242311" x="0" y="0" /><path d="M25,25 m0.0,0.0 m20.16379484537377,5.699833770256768 l0.03253496764989399,0.5154040323227691 -0.1711121408910412,1.9285754144396978 l-0.657447080149012,2.407311496576736 -3.083925898259988,7.774231517881843 l-3.621917209724986,7.206373908548652 -4.5702427815121345,7.433494671882821 m8.614303470517582,-12.643407872159617 l0.42879960953627866,0.9287641757740352 0.10339720400316035,1.204552236712586 l-0.16118733626643797,34.20675822953566 m17.461612165554357,-51.555552930235805 l2.7109000979674027,3.382719302671208 1.1572876407526451,2.194641544524412 l0.5024784646690535,1.5397911193740021 m-13.400856321047913,7.695452939204671 l2.558346309123467,0.17871766825066202 19.535079518626286,-2.043085947494588 l3.0519282523605593,-0.08886289852442476 1.6900933708853143,0.3283285928194694 m-23.549388019791742,16.203454787049143 l2.2857000928761892,0.16546844893445595 16.258020503831002,-1.8080258409854422 l2.88535550902906,0.15097119148054955 m-26.85501642971671,18.51127058173942 l3.443347152218138,0.05112640566749629 13.847760387320086,-1.3495182429566703 l12.93274423109295,-0.7731019535428041 2.285144906395872,0.06148887067128962 m-18.08599731701814,-30.053335271606727 l0.679582989438815,1.0382136859827804 0.536068766026671,1.4882655875118749 l0.15692457509935157,26.77445729676266 " fill="none" stroke="black" stroke-width="1" /></svg>