<?xml version="1.0" encoding="utf-8" ?>
<svg baseProfile="full" height="113.25267865220482" version="1.1" width="108.12776065350013" xmlns="http://www.w3.org/2000/svg" xmlns:ev="http://www.w3.org/2001/xml-events" xmlns:xlink="http://www.w3.org/1999/xlink"><defs /><rect fill="white" height="113.25267865220482" width="108.12776065350013" x="0" y="0" /><path d="M25,25 m0.0,0.0 m16.15535884057883,4.912306819001335 l0.049871487882522623,0.5021820028786927 -0.10584571675675845,2.065130105573379 l-0.7125423750912286,2.741973317365778 -3.3485472861989223,8.550512994904393 l-4.0024382791128215,7.994860138664393 -4.901863901067145,7.779974111511883 m9.777542831592566,-13.864904469980038 l0.4882278739865824,0.9757672728596646 0.12049558634985874,1.310145689053163 l-0.1921689016640986,35.98335836448249 m9.717153366568096,-44.339019984591744 l3.484218431094929,0.3234330735775445 18.77041003856349,-2.571370303881048 l4.656083760891352,-0.36483730304320144 2.586400230028898,0.21339763595796382 m-32.0695358708829,19.435811974912987 l2.0420038270222545,1.7011906661498977 2.3094045480004888,0.3862961498258339 l27.964904176009682,-2.9042687142832846 2.7149066495111573,-0.09018489132301855 l2.623721336193301,0.2781287154026536 m-21.53568335889885,-14.58385840756416 l0.7226190944902705,1.502472766362517 0.21432171201832143,2.129694925467352 l-0.11104827063877001,43.18448600291939 " fill="none" stroke="black" stroke-width="1" /></svg>