<?xml version="1.0" encoding="utf-8" ?>
<svg baseProfile="full" height="108.77014272157619" version="1.1" width="101.90703020354397" xmlns="http://www.w3.org/2000/svg" xmlns:ev="http://www.w3.org/2001/xml-events" xmlns:xlink="http://www.w3.org/1999/xlink"><defs /><rect fill="white" height="108.77014272157619" width="101.90703020354397" x="0" y="0" /><path d="M25,25 m0.0,0.0 m13.260308512759561,4.231006396785317 l0.3889478885451867,0.2516768219373243 2.210276683832293,2.5440532183310776 l1.3175965210871845,2.6200735449049586 m-12.217577615206444,6.339409249923765 l1.6970181722040019,0.1387312501288901 3.2119345674706703,-0.25230584755208074 l12.715535949455537,-1.741694314543536 2.2471124339881845,-0.0036790792552616526 m-15.26268868130393,10.016448559932185 l1.6971672542012266,0.04136538458765299 9.288346212701876,-1.379552939093169 l1.5462610972301223,0.003587789437064417 m-12.238558414695348,8.847394903593537 l3.0209232368773185,0.03880267679258368 8.016831218171482,-1.1145816458634241 m-12.275512682035492,8.747571021937285 l0.6024409129986577,0.8598821918705604 0.3106848215962141,1.4563372148249927 l1.482885301494798,10.1853528599672 m-1.0852432937129581,-11.791948953670893 l10.231779515996289,-1.688756828920508 1.4437134111197991,0.035352279346788064 l0.46399338693273606,0.3172619637068952 0.24135904191796995,1.5923431513103004 l-1.658398507517499,8.183415148293438 m-9.018526474665274,1.8246026504574222 l9.908412473945708,-1.195572651355363 m7.485640872694388,-44.87136331093308 l1.3489257919158029,0.960139422378025 1.7454014041477657,1.9597826155956726 l1.422251867785846,2.1392479868465597 0.5744980198126531,1.3671456712830428 m12.682788382522043,-8.670423755102053 l-0.2269282584813873,1.1495174983274963 -1.3183272036621831,2.7904768659031203 l-1.801239942526757,2.7365989820299155 -2.105932770188653,2.5688265620584785 m-12.957617424554707,3.5003699164477533 l2.6661794912050367,0.13416090267311742 13.091332352456925,-1.981010427075332 l3.696171654021807,-0.35212252014223244 m-19.5953718369961,9.6039016973946 l2.5999402941007097,0.20070645768788342 12.749088983797964,-1.9908699458175778 l2.6835774227924105,-0.1811348379768152 m-21.23100037332908,9.895967511540146 l2.958563137019224,0.057845509122928566 19.14494123599889,-2.182505746422667 l3.263164336775622,0.15172056832037426 m-14.097575498221705,-12.487724583793739 l0.4665321186714059,0.9095372915569674 0.1640185251309851,1.0330215983089304 l0.010526497352699823,39.312353990931726 -0.28058206627924304,1.186599263702476 l-0.43839278972847795,0.5814339404232783 -0.5600641082564858,0.14136757849220466 l-1.331569565315236,-0.6404015210794051 -2.1410327054601805,-1.904242821952929 m-5.5196918283067715,-18.755212151127203 l2.4288274190227708,2.278189550275309 1.4228695116953445,2.5840736970398734 m-6.244918570476871,11.15866247278361 l0.773154904998547,0.5086250031694006 0.752627105419691,-0.32241324417446593 l6.807580211846803,-7.169527609402589 m15.308987456864457,-11.926696799423032 l-0.2811334300015236,1.0427551211467316 -0.9610909150362063,1.3384409642150779 l-3.488385765241897,3.427854883678655 m-1.5412654796576404,4.636495486812894 l2.6197476802358626,2.280228052990195 6.212746578427589,7.267470827951429 l1.402044533161983,0.9142817877765147 " fill="none" stroke="black" stroke-width="1" /></svg>