<?xml version="1.0" encoding="utf-8" ?>
<svg baseProfile="full" height="103.93443463841928" version="1.1" width="118.93165516334535" xmlns="http://www.w3.org/2000/svg" xmlns:ev="http://www.w3.org/2001/xml-events" xmlns:xlink="http://www.w3.org/1999/xlink"><defs /><rect fill="white" height="103.93443463841928" width="118.93165516334535" x="0" y="0" /><path d="M25,25 m0.0,0.0 m6.926706312477857,10.08223443540112 l0.4264790077337974,0.14540802596429406 2.2188154146812775,0.08666442986176064 l11.495456388588066,-1.9048337699615594 1.129198995900214,-0.0840402468567273 l0.6817851910659153,0.19002341322981578 0.36369666657170235,0.41695067659992435 l-0.005899026691326688,0.5954509259173184 -2.3098634500020445,7.968628421484128 m-12.109496879861894,1.8874604963881774 l2.1193917594557483,0.19215440253853544 9.621613314114471,-1.165958036009984 m-11.878509988382284,1.548897408146397 l0.4138652042071166,0.9147912743887116 -0.07939311651744435,1.477492245124258 l-2.5657158159751168,7.211829310664604 0.04182847411718198,0.40089900472296275 l0.3849379838433165,0.379770381812606 1.684280491420558,-0.01697012994138891 l10.364281783089506,-2.1120282614408543 1.0962162487885299,0.36084423858898373 l0.6141023894874929,0.9693013610990192 -0.48589578074673273,4.475526985939565 l-1.23398686074951,6.347298662573659 -1.321376211529275,5.100845085965947 l-1.6368423774366652,4.304591993572532 -1.5142108655003412,2.6616238115327167 l-0.8619929295948714,0.7231425218404954 -0.739012520131924,0.13471748169156908 l-1.2860564421358407,-0.6598040112573867 -1.1994095390171333,-1.8357278724790076 m27.343133161840935,-43.99072926496315 l0.5781402074903115,1.6512409597637112 0.07778184356712046,21.349059217948167 m0.1162531452137272,-20.948070099098647 l5.071999490067034,-0.5051628076430922 9.642438528520389,-1.7795117829791396 l2.197710215190206,-0.05725645418525365 m-16.699091410500117,9.249276516022839 l5.611324123096664,-0.6244961816936112 8.532207331484805,-1.3154327294470038 l2.619383929317781,-0.060451015758785094 m-16.26172066320701,9.192622181077848 l5.0216364449370365,-0.33512254403666436 9.69092642095893,-1.443711244382837 l2.637543830430692,-0.1727973677965357 m-26.856244958766677,10.693481646659308 l1.8760127599702792,0.29701484539064116 2.9297155916190936,-0.15731655292426644 l27.478171269251813,-4.041606890582074 2.196840818192342,-0.22497460342021733 l1.815918021019165,0.3436318007475844 m-30.405544876971334,5.832124669658647 l0.5351404848625856,1.0666903891610195 0.14574597820474733,1.0903473049134942 l-0.18018636515894568,16.78877291180964 0.24545543922949017,1.0655718163058958 l0.6139953325225754,0.17405525076956835 0.9077693608261951,-0.4356141080627368 l9.143823299551357,-7.012306518342831 m11.728247507045847,-14.226882308540384 l0.08164651376541981,1.1509234179352785 -0.9446376922470543,1.2491605377274144 l-2.1946528913506627,2.0060560582031566 -3.898799862122192,3.1002124707926098 m-8.246771850133241,-5.02018984034357 l3.978040058803952,2.619778243105894 15.282984664839054,12.654392965940641 l3.0944479344898195,1.9263344244650367 3.069878206222849,1.0861499020143162 " fill="none" stroke="black" stroke-width="1" /></svg>