<?xml version="1.0" encoding="utf-8" ?>
<svg baseProfile="full" height="110.25499006769546" version="1.1" width="106.87246690132059" xmlns="http://www.w3.org/2000/svg" xmlns:ev="http://www.w3.org/2001/xml-events" xmlns:xlink="http://www.w3.org/1999/xlink"><defs /><rect fill="white" height="110.25499006769546" width="106.87246690132059" x="0" y="0" /><path d="M25,25 m0.0,0.0 m14.313162899317833,12.784097484686209 l0.04512574661519443,0.4829772255692997 -0.10459390830204136,1.8399173930264705 l-0.6360331310458468,2.302739182146177 -3.3111974267191884,7.480965890402117 l-3.974866393421658,6.674157146576716 -4.877407290477174,6.768804344607379 m9.295330701074626,-10.377875263112516 l0.6008975015492567,1.2130678827466526 0.15374086695864245,1.3041433677717296 l-0.04978469074042823,29.78199541327522 m12.153481566990065,-39.6655331094952 l0.7461449116890504,1.2395782132658766 0.19175890346134877,1.0938383381969414 l0.048238961455534246,23.75306777945602 m-5.710833347616099,1.0424152023081814 l1.3729930705942686,0.24814691351133822 1.97119035415011,-0.26898686225502716 l11.692521175645602,-7.257702534512291 m-2.258225065438515,-14.7917827391602 l1.7633108455469264,1.4718028735454236 1.9721345790868057,2.0280922919639273 l1.6634907988130845,2.222178675429806 0.9410973394583013,1.887685768082777 m11.33399226683872,-17.268080496852715 l0.3451135751069018,0.8645564288990609 0.03607954936182902,1.8080354813188475 l-2.0282276060670674,7.137136704737063 -2.7876268471238386,7.286884721691305 l-3.262973256997759,6.079244622915195 -3.1362746340735828,4.522021934792376 l-2.834414118608538,3.1785865056905136 -4.545718014232646,3.78208522002794 l-4.022959235502759,2.3283823680702733 m17.726222920474854,-13.35385553499461 l3.744433309289193,3.059998203362536 3.8460028537649236,4.103473304677214 l2.7416415879047418,3.694169960851832 1.7154955825399312,3.376460514787386 " fill="none" stroke="black" stroke-width="1" /></svg>