<?xml version="1.0" encoding="utf-8" ?>
<svg baseProfile="full" height="107.01480569827251" version="1.1" width="110.1393426226515" xmlns="http://www.w3.org/2000/svg" xmlns:ev="http://www.w3.org/2001/xml-events" xmlns:xlink="http://www.w3.org/1999/xlink"><defs /><rect fill="white" height="107.01480569827251" width="110.1393426226515" x="0" y="0" /><path d="M25,25 m0.0,0.0 m21.864288816256614,3.749622659303433 l0.03695615890402546,0.5650840754658021 -0.10824812263295779,1.936315679632626 l-0.7294883519591212,2.388705964225828 -3.944029063350872,8.576273087247634 l-4.9337532972246425,8.036933915201043 -5.900809870227991,7.687561991125931 m10.352763941160514,-11.530476662343878 l0.4592836368242197,1.3115455750321585 0.12425909901863842,2.0181118831001887 l-0.2433580157462064,31.567751633716437 m8.774684113872029,-37.41548907008679 l1.5349994897891333,0.2967294134937364 1.8302651333055655,-0.04622887466528705 l23.412616836950644,-2.7495716985806467 2.5571713192797954,-0.24590140172475192 l2.604302018175645,0.2862056263326686 m-17.601265825169257,-14.462600149334818 l0.8510054511290158,1.345334678476607 0.28599365443291513,1.3069605105225526 l-0.109463981864453,52.39193686213204 m-0.4251963707247162,-39.2140836876732 l-0.47733372503602045,2.3962275938820654 -1.8926724452219075,4.178914486401514 l-4.9062009357694185,9.034474169133938 -5.002766207286647,7.012763483604205 l-2.3738728645396074,2.6240144055057124 -2.492398702824093,2.1270670249073147 m18.14345288385158,-26.858813974297036 l5.4903249207488125,8.869929110088947 5.839907824023497,8.054829174059174 l3.029721370150683,3.783975557591125 2.640507392904059,2.7330109948517265 l1.4476963414519946,1.6025498538456597 " fill="none" stroke="black" stroke-width="1" /></svg>