<?xml version="1.0" encoding="utf-8" ?>
<svg baseProfile="full" height="119.31837628984933" version="1.1" width="95.89370189038536" xmlns="http://www.w3.org/2000/svg" xmlns:ev="http://www.w3.org/2001/xml-events" xmlns:xlink="http://www.w3.org/1999/xlink"><defs /><rect fill="white" height="119.31837628984933" width="95.89370189038536" x="0" y="0" /><path d="M25,25 m0.0,0.0 m28.247724971247038,2.855910578918448 l0.06018023829436817,0.47184092973692227 -0.12907376454531452,1.8989271719511929 l-1.3764986618903823,3.1860808286074183 -2.2494320651874546,3.6895385862633567 l-3.169700182080603,4.142985115686899 -3.1748755627951777,3.4729124920258485 l-3.66318612568609,6.453379412379099 -5.52519332011909,10.828200784990385 l-2.5273352533509468,4.1664163944286585 m19.198293865785804,-32.323688671850995 l6.369681153794874,10.013654734094867 9.300775815176333,13.507012607657002 l1.8756830427485212,2.486208069616873 2.65665773899348,1.481797585418632 m-27.51057512210061,-4.4807262696476196 l2.310014692983644,0.13013867243972785 8.75568621982094,-1.644018721822229 l2.5149733534195606,0.053901026387872863 m-18.39442139801505,14.186646408083039 l0.7399030808983031,0.3937374630610525 0.9946213257303794,0.13566665646020457 l7.894318375376881,-1.5215625906755454 6.3215663036556045,-0.9747723853396623 l5.895817818147357,-0.27863169973006624 2.5378285806620884,0.2811618457107014 m-15.09815563468834,-8.606358838147363 l0.4366149320698623,0.8177459539101115 0.2715934239978195,1.7843806849442259 l0.046309294092753625,32.6015880519982 m-10.973394711089163,-15.01652681124572 l2.252854153330471,4.298724132599469 1.8471469843945767,5.0821028263596295 m16.018058727120316,-12.067628714589796 l0.05438214401336374,1.815884486243346 -0.39872860063568555,1.8418445268740085 l-1.9353504447771321,3.748343652557285 -2.6601203089593497,3.928125105894416 m-21.041465063976858,6.0639268963815685 l2.471023571228628,0.41350731121786666 11.699607384346505,-1.4168550820371164 l10.720584487579577,-1.0754540259347407 7.042582392971909,-0.19489035239434732 l2.3131534535516862,0.4050915764652129 " fill="none" stroke="black" stroke-width="1" /></svg>