<?xml version="1.0" encoding="utf-8" ?>
<svg baseProfile="full" height="105.07182721747792" version="1.1" width="111.99276293785303" xmlns="http://www.w3.org/2000/svg" xmlns:ev="http://www.w3.org/2001/xml-events" xmlns:xlink="http://www.w3.org/1999/xlink"><defs /><rect fill="white" height="105.07182721747792" width="111.99276293785303" x="0" y="0" /><path d="M25,25 m0.0,0.0 m16.8299044410335,4.384228647983128 l0.036067772301846567,0.5325872774242362 -0.28889542986055994,1.8389314625186721 l-0.8989510348310387,2.3578014481266423 -4.144288293055762,7.624322515231598 l-4.841951158995515,7.241713967920875 -5.672266409739832,7.053936028005097 m10.09184688806109,-10.897173360912923 l0.5925627739829764,1.2543130054714526 0.15960675905477734,1.556676867986296 l-0.20420729204739435,32.124489357722844 m10.490619938695147,-42.93407570582763 l3.691469223104285,1.23636954722454 24.588117964145678,-2.172697732287944 l1.5349375711674351,-0.07853432826118419 1.595262572873608,0.5346887071276094 l0.5504642430233495,0.976240730510646 0.06863437003575774,0.6914175451257933 l-0.09128419707713646,4.166783355498598 m-31.44792742854679,2.9519683467849847 l2.21190792511071,0.22265346560653382 29.1967378430844,-0.12445214591544673 l2.734081859595554,0.2110263265301314 m-34.441280472518244,6.467694645138572 l3.330093141277109,0.21714931463137757 28.65405253781728,-1.436570201060973 l3.161190350853205,0.2155902634016433 m-19.985594073463616,-15.819848743526991 l0.8577917143119024,0.7510747469248217 0.42633836893139687,1.0510584938782908 l-0.12924972824446931,35.842052264484224 m0.04768786336553349,-19.39861119714225 l-0.3669900219034798,0.96812679343056 -1.1079445577414748,1.845469195304991 l-2.174335179691457,4.860087869806633 -1.7770715311346776,3.617441159792113 l-3.5222369497202446,5.076621743842856 -1.8438735332069924,2.0184793798064207 l-2.8852956180701015,2.4994229220361786 -2.7466202757932603,1.6742457335839727 m18.374180481140577,-18.076190714527403 l6.28742515225176,5.8777620767762935 6.785292129303429,5.548707259957119 l4.837945802429617,3.325182953553252 3.4288064365431534,1.5066256882881612 " fill="none" stroke="black" stroke-width="1" /></svg>