<?xml version="1.0" encoding="utf-8" ?>
<svg baseProfile="full" height="101.51553684385289" version="1.1" width="110.21027707782511" xmlns="http://www.w3.org/2000/svg" xmlns:ev="http://www.w3.org/2001/xml-events" xmlns:xlink="http://www.w3.org/1999/xlink"><defs /><rect fill="white" height="101.51553684385289" width="110.21027707782511" x="0" y="0" /><path d="M25,25 m0.0,0.0 m12.846012179472574,6.686563904355684 l0.4133987075793669,0.2552850876931856 2.4193037773937838,2.36969369461243 l1.3042393886427133,2.262659880605886 m-13.292310158496571,5.953197090866512 l1.825330312894176,0.11850803273001267 3.2591930986797215,-0.3143007031267234 l13.580566806116192,-1.6725365331932185 2.3568579162950622,0.0269181463720174 m-16.282298186564443,9.493322975494877 l3.1851080977133663,0.03930903984440711 8.769884143497992,-1.1684276191757563 l1.6920724346551492,-0.024407438463223727 m-13.221054459964858,8.728708720372085 l3.449410331653034,-0.007742398943243476 8.457791077634488,-1.0252706431956442 m-13.29825747028812,8.354076458902954 l0.564002043826187,0.8599222266963121 0.3111644058178887,1.353954012393433 l1.6511478959534254,9.226102909010896 m-1.2791003396452418,-10.742203864447818 l11.324525566258613,-1.627155466297309 1.6059295982945339,0.006206578058975113 l0.5033010809079528,0.30150544642358496 0.23934158461442487,0.5582340283121151 l-0.061265569149626234,0.8416751610485531 -1.8354161604674393,7.310669182043464 m-9.981238271302427,1.7332805580171664 l11.124910843389257,-1.1492233245929355 m8.679455258886595,-41.67453308411178 l0.7924152825374157,0.9321847101964144 0.42029266028579315,0.9950200369646528 l2.202655922426733,9.02314832505608 m-1.4708879579659608,-10.465457162754594 l17.59796857507198,-1.6873951921271002 4.342985712115173,-0.08873063865266949 l0.9482574560126605,0.7743436167922769 0.09258020553151047,0.722421272105569 l-2.4162202736089538,6.934095516896792 m-19.111679957930896,2.1598288163352595 l20.507374397861245,-1.5183178406876556 m-11.903564662981609,5.7269748303597465 l0.5583788887688056,1.078202457679905 0.04484374279527586,1.0684509615826479 l-0.06627932326246541,5.25090902778743 m-17.614692058554517,1.530228516103355 l3.2985567560979057,0.22782921806225517 27.748303278377183,-2.354653281526714 l2.2519338587242475,-0.03272216958388532 1.6750486412258037,0.2885924135508184 m-29.234859211499742,2.589381452007723 l0.5748803350397322,0.999473526281193 0.19509972113244625,1.102852296493499 l-0.2261574279420469,17.554714495322685 1.3841921385949942,1.4847650729373556 l1.0024687472767753,-0.0939585837393368 1.1626643133198855,-0.33836156936085143 m-5.628323505865188,-18.911154969409843 l0.19059578034289634,1.4524916228665932 -1.0841386630126844,4.338801893251775 l-1.3957483140655103,4.267223415123679 -1.6419625875874155,3.855838622661648 m11.594761832889473,-11.818660018384465 l1.4007975366435954,1.0796605711637786 1.7535622008236567,1.8573812136453134 l1.516226228238469,2.146297870113498 0.7053009455567399,1.770809329467888 m2.6371545815181374,-20.59879850818533 l0.7053485656210364,0.9421787697763419 0.26741548787301406,0.9789117762675165 l-0.017017149113799247,23.99567626648452 0.2242888842474472,2.7960401696478785 l1.218899636271662,1.1192295210312089 2.04214900118745,0.2388742555993456 l4.594008148320193,-0.0638955246657006 2.4114402652309557,-0.3862368137554503 l0.9337547805134884,-0.5504728558276656 0.6926084946135719,-1.3635758486389773 l0.19679923369704178,-2.1401249437244454 " fill="none" stroke="black" stroke-width="1" /></svg>