<?xml version="1.0" encoding="utf-8" ?>
<svg baseProfile="full" height="113.63126496536302" version="1.1" width="114.38927317098005" xmlns="http://www.w3.org/2000/svg" xmlns:ev="http://www.w3.org/2001/xml-events" xmlns:xlink="http://www.w3.org/1999/xlink"><defs /><rect fill="white" height="113.63126496536302" width="114.38927317098005" x="0" y="0" /><path d="M25,25 m0.0,0.0 m20.220171613714122,4.035957451593498 l0.046426307873416,0.6045485180691991 -0.3755799132903884,2.063603235498115 l-1.1848081057417008,2.734892553104376 -4.1693374005116794,7.329132603775011 l-5.052896052691287,6.931348383848679 -5.9532241209941255,6.795584716463298 m10.784018603505134,-11.161654096990329 l0.5831859463807745,0.8873218416589865 0.24909295357661682,1.1623710947296344 l0.005736534932060208,31.208423950143523 m12.914065147821045,-41.05724230380512 l2.1119586800027714,0.21413458040538547 2.3647790036971004,-0.09871363705554347 l23.860666030107875,-2.5620198499185647 3.694016540113836,-0.03377520161583046 l2.5353094108784466,0.2675471258033287 m-35.35578906408714,12.821176662209034 l2.385792161111788,3.134888740087629 2.080184527419905,4.902308308306582 l1.549804282773311,5.13191112402545 1.04099095515791,4.067696858482049 m23.89595068765611,-17.85510354115579 l-0.3152551477606848,2.24305033451492 -2.277603557670728,4.425902026507275 l-2.83138501896121,4.476794660342596 -3.6561779932406617,4.79887116338915 m-27.339190677664853,10.807499379256248 l2.147878349414894,0.37862815993368004 2.498192553488485,0.01587740814786123 l34.638666560009206,-2.7223890114835445 3.293633373959702,0.3184106968948375 m-23.070484403903645,-33.23754238538399 l0.8074178730874312,1.1239348237785716 0.3346922711473456,1.4488466811079828 l-0.017627244504740878,48.02904191069481 " fill="none" stroke="black" stroke-width="1" /></svg>