<?xml version="1.0" encoding="utf-8" ?>
<svg baseProfile="full" height="114.14667211476386" version="1.1" width="105.33274057715305" xmlns="http://www.w3.org/2000/svg" xmlns:ev="http://www.w3.org/2001/xml-events" xmlns:xlink="http://www.w3.org/1999/xlink"><defs /><rect fill="white" height="114.14667211476386" width="105.33274057715305" x="0" y="0" /><path d="M25.52266436285829,25 m0.0,0.0 m13.657931266190294,3.844433565575067 l0.0579258996810784,0.5162847995472573 -0.34555311798642524,1.9978224285649941 l-1.1506384740467215,3.209895471162473 -3.522298810872551,7.767946027702279 l-4.31814069611599,7.2439088908085125 -4.9018904297079775,7.216179009696724 m8.807352969284672,-11.844022698752296 l0.7070139333542976,0.9071361659079378 0.3269995135942341,1.6359967455798066 l0.015324039182407854,32.86791778703181 m20.311670498530322,-51.78460386354667 l-0.05509603342756833,1.7009818534001333 -0.4388864443866543,1.9241407163779563 l-2.4167971100316037,12.920622335085632 -2.133813393669255,5.651854236095873 l-1.9023624922862625,3.4074183249697625 -2.236499810621304,2.8667595455376187 l-2.1587741197575228,2.228448895402377 m0.9547790595028945,-20.4948577706738 l3.3117034323460905,-0.07771097177478746 17.19259326711211,-2.838507888039805 l5.935546967953319,-0.0026846972973973405 3.226481586878666,0.5449482354946903 l2.375878844411168,0.4849225144047734 0.597019698216853,1.1880845760346415 l-2.0174922914181863,8.677202991467036 -1.422302905745193,4.427469320191581 m-25.694009091678538,1.9523262970755042 l3.1210907944764625,0.26007372002558077 14.596081849600095,-2.598740022780681 l8.24864844255074,-1.1210678342537008 3.5446793504194742,-0.24774868201374944 l2.5359100227613327,0.33624265254607855 m-28.13948009596651,14.558184952443371 l0.7269331057863544,1.0060003323231277 0.26072900368062424,1.5009562731043937 l-0.03625642837886338,14.37031400934682 m0.5798457486298372,-15.807336602306687 l21.17211675401143,-3.1892204778683517 1.8398849418786603,-0.11332476406543224 l1.1109507105568999,0.21962978592865576 0.9632077983737237,0.800391878983679 l0.3140464349701168,1.295277871055371 -0.8793403803398748,11.913399485479614 l-0.8021371861918297,5.01814639217632 -0.48570441165258255,1.4357199405996717 l-0.5869442604761514,0.5078123294736936 -0.6742424237658518,-0.1070563702690082 l-1.9468597034221098,-0.5648673242818799 -1.4117943999661478,-1.2473731090274072 m-9.306435355822423,-25.655488070391645 l0.580605063220332,1.0101384132306745 0.19305123829999954,1.4093841347402247 l-0.05621186957245066,31.01691035753543 " fill="none" stroke="black" stroke-width="1" /></svg>