<?xml version="1.0" encoding="utf-8" ?>
<svg baseProfile="full" height="118.17185736337395" version="1.1" width="95.35121634332725" xmlns="http://www.w3.org/2000/svg" xmlns:ev="http://www.w3.org/2001/xml-events" xmlns:xlink="http://www.w3.org/1999/xlink"><defs /><rect fill="white" height="118.17185736337395" width="95.35121634332725" x="0" y="0" /><path d="M25,25 m0.0,0.0 m27.559570426195926,3.5971896666625724 l0.027159521982580242,0.4566308029103112 -0.4409407719082671,1.9147523549112928 l-1.6815199044758673,3.0755712611650363 -2.451561006815209,3.657802323249976 l-3.4009669971833043,4.182039202140557 -3.232860717230475,3.4967194933810486 l-3.774788547246354,6.638571952296132 -5.39331153780126,10.268935661777133 l-2.6321597558761,4.032009842235207 m19.783884313890788,-30.001120498429533 l6.667854687678894,9.433842801692172 9.753384147857686,12.660756119658494 l1.9425384518245008,2.2413198767677054 2.6249340324337234,1.3874482789733429 m-28.173530104750707,-4.893775685173633 l2.2068390707639782,0.13693970604273636 9.022207490453123,-1.6551158490715951 l2.6931262337711184,0.06330182068241079 m-19.01393237009287,13.512846042921051 l0.7519324312550854,0.39413092764614505 1.016561407656248,0.14957617688531807 l7.8572636494500046,-1.5511917431978477 6.763212638632844,-0.9893938448837062 l5.870759979896724,-0.2627196901214429 2.561383582794033,0.24931165814595888 m-15.388798015319894,-8.108955821673728 l0.43976827676284974,0.8020399203296241 0.2726788785513448,1.7129251636258782 l0.09784846105788003,30.501764817057627 m-12.05963564098098,-13.829547653154412 l2.4080219136496197,4.188895800311419 1.896542365404498,4.863270546139306 m17.71990963573759,-11.56370277216888 l0.041414143255898435,1.743929048916261 -0.4165864340346119,1.817611392081086 l-1.9707477891050609,3.580488070098829 -2.6672356343755976,3.8103337642764017 m-22.94644780836064,6.070668798210088 l2.5549360457378776,0.3857576300575989 12.195405721750785,-1.4032269367730903 l11.768286946786152,-1.0968564163158236 7.237895338306147,-0.1853781863563398 l2.421434425477692,0.39585721973027604 " fill="none" stroke="black" stroke-width="1" /></svg>