<?xml version="1.0" encoding="utf-8" ?>
<svg baseProfile="full" height="110.72438948801721" version="1.1" width="99.42819457667534" xmlns="http://www.w3.org/2000/svg" xmlns:ev="http://www.w3.org/2001/xml-events" xmlns:xlink="http://www.w3.org/1999/xlink"><defs /><rect fill="white" height="110.72438948801721" width="99.42819457667534" x="0" y="0" /><path d="M25,25 m0.0,0.0 m14.631688070258107,4.96175415050102 l0.054939256955105285,0.6133923212282869 -0.10792252757123522,2.2024415461401996 l-0.7122252313992596,2.684725372321524 -3.1280546351242746,9.114641687319004 l-3.4080669500951237,7.867528921497914 -4.106532223099516,7.87182059573556 m8.067403926358763,-13.846214951021866 l0.4237789782452385,1.4501384118919205 0.10455703458328873,4.153450176564568 l-0.38711463666721546,29.877234517808063 m10.558438122547201,-52.5293434326883 l0.5381163320999781,1.1181161795455847 0.551654130902868,3.184278629525956 l1.4834055201348746,13.33660358990131 m-1.927174840149182,-16.601009707086416 l20.24421511264765,-2.810176937165492 0.49367707558523044,0.41532371752089525 l0.27251210197565084,1.2843450434231434 -2.358651831830698,13.518116043169632 m-16.583476745823354,2.7304941407658854 l18.086976299836376,-2.3598871496865144 m-25.588548399378066,16.229828251540983 l2.5968328435156374,0.15658609893764122 28.780247496145332,-2.718090928061123 m-16.748032104572737,-7.496227892292011 l0.5832899819228358,1.0133198301097854 0.35868894853436917,1.9721446576533281 l-0.6352417805415398,33.21386864856697 -0.604515367846042,0.11518795434975536 l-0.6532902503274642,-0.591823381868851 -1.691470344199643,-2.539125285743767 m-1.6327021564207307,-18.44602912360584 l-1.5618793600776797,4.3906140410288 -2.5682855735508805,5.255063955131114 l-2.5138293132281873,4.056257553612984 -2.2271269827348896,2.531229529341524 m19.105292381241266,-17.383722644600105 l2.7914797611513187,2.901899315485408 3.6973024403648003,4.944987343502412 l3.2828706383014326,5.254888094742219 1.8649693780057102,3.822597716867787 " fill="none" stroke="black" stroke-width="1" /></svg>