<?xml version="1.0" encoding="utf-8" ?>
<svg baseProfile="full" height="105.84016282322798" version="1.1" width="104.43529547707001" xmlns="http://www.w3.org/2000/svg" xmlns:ev="http://www.w3.org/2001/xml-events" xmlns:xlink="http://www.w3.org/1999/xlink"><defs /><rect fill="white" height="105.84016282322798" width="104.43529547707001" x="0" y="0" /><path d="M25,25 m0.0,0.0 m20.447331861412447,7.887668957703884 l0.04002708517562743,0.43427771176842905 -0.12698392844494658,1.6698265682593507 l-0.7762906681986104,2.915373018632068 -2.809974546316344,6.707290904302748 l-4.022152915898689,7.146361159887382 -4.804020314295863,6.618968101483655 m8.22115185173504,-10.489311498784321 l0.4866908299718127,0.8187902969661243 0.22045021651367397,1.0377329269445286 l0.0037635786773929474,28.623597050450932 m19.03607053152557,-41.02055166099872 l8.819232178449328,-1.568222290685078 2.548921405279516,-0.06244709718554545 m-12.169940692813746,-5.036654574955735 l0.9413253891780944,0.77900822955512 0.8278884004482373,0.9917376915003003 l0.2452813338815707,11.566831063551916 m-10.104739535959752,0.9971516260812308 l0.8247090771883029,0.07583088237701878 0.5712088043454047,0.05193546202238815 l15.642462306637084,-0.7807951112359351 6.1280096129419235,-0.14997860308831998 l1.901777373608859,0.18053791245260908 m-24.210130591250255,7.8399549769356796 l1.7570644023655402,3.034197040669695 1.2021251754675055,3.167964587223566 l0.9885944970475832,3.6504971479881365 m12.628690031338536,-12.080381464760613 l0.06224485211479745,1.9557323814335554 -1.0851324645967024,2.3154750511424886 l-2.266608870221777,3.922589229852245 -2.5642985704020758,3.590910713976382 m-18.30138230230543,3.041255566748912 l1.68286600813766,0.2508537094939575 2.2765283658556563,-0.05713117067706095 l25.171119161448665,-2.2475812613659962 3.043350325199733,-0.025601007181833824 l1.9580662218286407,0.3337622824600491 m-18.462668859844488,-5.765010658675856 l0.7297118783908698,1.3420314566370442 0.22452182061712417,1.224698163593846 l-0.0881893631350217,20.95098735072776 " fill="none" stroke="black" stroke-width="1" /></svg>