<?xml version="1.0" encoding="utf-8" ?>
<svg baseProfile="full" height="96.12087089827554" version="1.1" width="107.21937876367647" xmlns="http://www.w3.org/2000/svg" xmlns:ev="http://www.w3.org/2001/xml-events" xmlns:xlink="http://www.w3.org/1999/xlink"><defs /><rect fill="white" height="96.12087089827554" width="107.21937876367647" x="0" y="0" /><path d="M25,25 m0.0,0.0 m19.869148606128928,3.3772963201078974 l0.04774079982209132,0.5465868681790028 -0.3130401536158642,2.0286248723297615 l-1.1693125905202821,2.8746228743887174 -4.330832841970113,7.876027612250629 l-5.6458564159045554,7.249993508466332 -6.483354567792007,6.545035515215712 m12.913834508045326,-11.406502905123444 l0.7550440501542716,0.48585599101989896 0.6655621012462944,0.2082082368094124 l0.4829022964476408,-1.0026102351292145 m12.503107131460295,-9.000799902103742 l0.39273014778387577,0.3073895532176259 0.18280643021111181,0.32036006736870515 l-0.07496853968649159,1.8699742470424707 -1.2215459611331205,5.5352973826942975 l-1.7254366679593773,4.832781111055595 -2.5751083756510926,5.077043392194203 l-2.4474710728716413,4.1009465760693615 -2.780477573880773,3.997326839289299 l-3.1138272727253113,3.651517733759884 -3.388610321886366,3.1621560553817267 l-3.4864341884893046,2.4656318478272627 m8.889454977660698,-22.058617917314848 l3.2653143350874747,2.9984998679783175 1.828747871547697,2.3555680820758678 l0.793781690639721,1.6840531937191296 m13.733621125355468,-14.162559965867755 l1.8161534894546552,0.20842539571656848 4.372942875371217,-0.14567504193423236 l11.187253394178468,-0.9000742148141312 2.2755094771675544,0.2772662484344497 m-22.149919844668545,7.537381978639239 l3.677644918466473,1.6969896750230935 2.596264458292281,1.7231356822824997 m-8.01055479402046,5.93509586750401 l3.409530727494198,0.20453400697005286 15.356152928979668,-1.645581815656733 l2.8278180525475816,0.14684967049038383 m-11.578484530418118,-21.698743178414787 l0.5641488605581348,1.5612953208132836 0.03308005716197606,1.2479334536154443 l-1.1957723089505186,34.0523310267043 " fill="none" stroke="black" stroke-width="1" /></svg>