<?xml version="1.0" encoding="utf-8" ?>
<svg baseProfile="full" height="101.65353420159062" version="1.1" width="108.07088833017619" xmlns="http://www.w3.org/2000/svg" xmlns:ev="http://www.w3.org/2001/xml-events" xmlns:xlink="http://www.w3.org/1999/xlink"><defs /><rect fill="white" height="101.65353420159062" width="108.07088833017619" x="0" y="0" /><path d="M25,25 m0.0,0.0 m17.165433599980314,3.647590014852471 l0.02590782844321034,0.4828064593860217 -0.26916165739429265,1.7014380197728003 l-1.0905088375106824,3.052009606738595 -3.480641274371452,7.328776921314257 l-4.421664547077784,6.716893388534718 -5.119449244485327,5.876561773301409 m10.285394171774442,-10.154012227256823 l0.6441565363025289,0.8842411054704888 0.2599548200981989,1.14885241552982 l-0.049473902646941986,29.49339206735962 m9.474109361034682,-40.265728463649964 l4.145271963176844,0.19761149292807592 24.68245876732696,-2.5394771854790386 l3.1016097503346827,-0.1924517263963921 2.717490995190818,0.20574104293282977 m-34.69347887184764,2.8884456417563213 l0.773158370214355,1.4529736385209548 -0.005450892673347065,1.2658642847487327 l-2.7940718117267425,5.563399145015873 -2.3423709315016477,0.9225257858686764 l-0.8345769560634605,0.5621334567206934 0.11137756182869794,0.4512707027251009 l1.1818022076206915,0.7850169360077595 4.215511963133036,0.877625318571226 l13.499938206432812,-1.7828814806996476 12.102736600425859,-1.3013429483165542 l6.917997526108953,-0.40597380844618935 m-18.38867584248425,-11.65738061065825 l0.7290914817488128,1.4119410129964065 0.25725550545460757,2.0602275119189453 l0.03962881524448817,38.32499016512025 -0.2610563965546439,1.5417277822348214 l-0.5227389892662387,0.8504357757720695 -0.7416006950232268,0.25829118639452814 l-1.7915224345413596,-0.7448286989327997 -2.951510963346707,-2.555317727425197 m5.11021117511564,-23.29825082994914 l0.10887790226721145,1.1843162376561083 -1.9040472148201182,2.735208935670541 l-3.1503264726823725,3.2699212185222315 -3.9811097750611673,3.29738384228393 l-4.091047868355234,5.468729991567943 -6.9746246251596205,5.147003969037416 " fill="none" stroke="black" stroke-width="1" /></svg>