<?xml version="1.0" encoding="utf-8" ?>
<svg baseProfile="full" height="107.19468787312508" version="1.1" width="109.4925117935054" xmlns="http://www.w3.org/2000/svg" xmlns:ev="http://www.w3.org/2001/xml-events" xmlns:xlink="http://www.w3.org/1999/xlink"><defs /><rect fill="white" height="107.19468787312508" width="109.4925117935054" x="0" y="0" /><path d="M25,25 m0.0,0.0 m17.034815549850464,1.4021286368370056 l0.05292643792927265,0.5177678912878036 -0.02209348836913705,1.747807264328003 l-0.7804840058088303,2.6743394136428833 -1.3908199965953827,3.1365835666656494 l-2.423630654811859,4.383314251899719 -5.76153039932251,8.545895218849182 l-6.709182262420654,8.342194557189941 m10.409859418869019,-10.088298320770264 l0.4656504839658737,1.0631274431943893 0.12032995000481606,1.4340808987617493 l-0.22324349731206894,34.035747051239014 m8.306087255477905,-42.81668186187744 l4.129880368709564,0.2093133144080639 29.97126579284668,-3.0134856700897217 l3.3777543902397156,-0.17023323103785515 2.934926450252533,0.23994667455554008 m-22.43297576904297,-11.369092464447021 l0.9040500223636627,0.9541236609220505 0.46292539685964584,1.365697979927063 l-0.1534196175634861,24.149274826049805 m-15.031620264053345,1.1929100006818771 l4.476308226585388,-0.05604539532214403 19.984819889068604,-1.8653696775436401 l6.519787907600403,-0.14355710707604885 m-29.10400629043579,11.325491666793823 l0.7534885406494141,1.1578243970870972 0.9752430766820908,4.322340488433838 l2.052464336156845,14.24747347831726 m-1.86941459774971,-18.868552446365356 l23.34247589111328,-2.5461748242378235 1.2457087635993958,0.29814234003424644 l0.7599607110023499,1.1057070642709732 0.059441118501126766,1.6650325059890747 l-2.8670546412467957,14.908990859985352 m-20.710716247558594,1.6745704412460327 l22.539255619049072,-1.7929843068122864 " fill="none" stroke="black" stroke-width="1" /></svg>