<?xml version="1.0" encoding="utf-8" ?>
<svg baseProfile="full" height="102.25678928619025" version="1.1" width="108.84660710720088" xmlns="http://www.w3.org/2000/svg" xmlns:ev="http://www.w3.org/2001/xml-events" xmlns:xlink="http://www.w3.org/1999/xlink"><defs /><rect fill="white" height="102.25678928619025" width="108.84660710720088" x="0" y="0" /><path d="M25,25 m0.0,0.0 m19.43761281030061,4.4319049244543915 l0.03975419431817737,0.5122024914908909 -0.326918559300335,1.7105592796699072 l-1.1048784104328946,2.8156891229524863 -3.5542836065568806,6.8861044316711455 l-4.505738192576826,6.662068179397239 -5.252391792476436,6.47248824513867 m9.507942615688608,-10.549266003619978 l0.7026214585807983,0.8245432503956137 0.3245715379235265,1.611975891484751 l-0.02980675499727481,29.645863831605716 m8.696587022269977,-44.40634725269606 l3.9006055974614453,0.22511545917503498 22.73183693104721,-2.356332187968545 l5.387523623101947,-0.21653646305935345 2.8915686328492294,0.24216985111818365 m-26.94142256643562,12.080242537637812 l0.6966390458468872,1.5447791732886635 0.07529359110080107,14.218028605745486 m0.6976366115111948,-14.2670178532074 l18.658601661774156,-2.108715442800956 1.5144675978343958,0.10041391193003597 l0.5409638082351198,0.27061479710221886 0.6967575836582164,1.0204835658867462 l0.020727618656858182,0.7583137644039086 -2.0185525231721626,10.564058811406621 m-19.42010919756509,2.2889821784114677 l21.229339940004206,-1.623640128012322 m-25.515497699049703,11.080335085061527 l-0.6064971207643941,1.3460867247862984 -1.2723631845288976,2.2777356294561644 l-1.9240475935374537,2.6588958646553995 m-10.12054935011446,-9.080596635794164 l1.8193965671982284,0.4997861596035233 11.366131162452987,-0.06321822159456249 l13.327661452264778,-0.616420044543336 9.625458800697766,-0.46542351973710167 l3.2082494031901376,0.0008706161649253696 m-20.104124989376317,-14.542688743702596 l0.6614166428917608,0.8415443887768556 0.2818483611342095,1.4992658769014067 l-0.022890448733109955,27.461869133153545 " fill="none" stroke="black" stroke-width="1" /></svg>