<?xml version="1.0" encoding="utf-8" ?>
<svg baseProfile="full" height="106.88681593428755" version="1.1" width="101.50502147181557" xmlns="http://www.w3.org/2000/svg" xmlns:ev="http://www.w3.org/2001/xml-events" xmlns:xlink="http://www.w3.org/1999/xlink"><defs /><rect fill="white" height="106.88681593428755" width="101.50502147181557" x="0" y="0" /><path d="M25,26.21725109096137 m0.0,0.0 m18.94115884341944,2.0913309146633794 l0.02633861411315215,0.5804778940871151 -0.26216210027351833,2.0351265789044537 l-4.167109527186486,10.903557991773086 -3.77458577552863,7.382524607675589 l-4.350976202509284,7.36106807919813 m8.417007319806906,-12.348141088651024 l0.506740660122847,0.9736489551730063 0.20982823639147669,1.2366495418305505 l-0.03898565076781598,35.45332136867191 m11.305272043952025,-54.57625684930666 l1.8045249025311594,0.29119869396921644 18.1398408343472,-0.07018712146357088 l2.0145416751676772,0.2644185745283011 m-24.58933212981818,7.79535621644758 l0.6500704624040657,1.5271222849277124 1.978823546192735,12.764029243586688 m-1.4823759889741634,-13.312473344938445 l21.652076055454092,-2.125183210314366 2.2806480085942917,-0.04415254233578575 l1.4585226671054468,0.25657308984752075 0.7138964457856585,0.8076027544417131 l0.07125853148547748,0.5938521070997657 -0.14525516396362148,1.7612824070763056 l-1.151640472879955,5.668297813238841 -1.4982188687579625,5.291157669023598 m-22.473826898969815,-6.156885126471361 l13.318266985104207,-1.5673299486996264 m-12.48801177414077,7.498290231979546 l20.36463980601453,-1.500165005404133 m-14.802299000628038,-22.0533638715204 l0.6793013298566111,0.9237010624244575 0.31040263261262674,1.157047793804556 l0.630469320862162,21.687550412735014 m7.7742832001356454,-23.1167777357675 l0.49355166392487854,0.8376052096235762 0.15084371506614366,1.1051478364966891 l-1.3008618886382677,20.10727553737789 m-12.714300354259928,6.741838260821436 l0.42793738560950356,0.2514910130388773 0.29727027246686566,0.7810901782658497 l-0.06761072437850649,16.380557343274454 m0.4077380541954917,-17.083579028995832 l15.49951711821954,-1.5437742647609416 1.332893042531752,0.08791687526571824 l0.4571994635919092,0.319324854323851 0.36666329904503026,0.47041191226006285 l0.17041465472111286,0.9868411074894387 -0.48116983098094296,16.71499104528383 m-17.060168208634412,-9.54581427200187 l11.449080195805259,-1.1281896164175569 m-11.40892957394029,9.623464105898982 l16.648302169134677,-1.2018534977198303 " fill="none" stroke="black" stroke-width="1" /></svg>