<?xml version="1.0" encoding="utf-8" ?>
<svg baseProfile="full" height="107.83889632279505" version="1.1" width="107.0971539136657" xmlns="http://www.w3.org/2000/svg" xmlns:ev="http://www.w3.org/2001/xml-events" xmlns:xlink="http://www.w3.org/1999/xlink"><defs /><rect fill="white" height="107.83889632279505" width="107.0971539136657" x="0" y="0" /><path d="M25,25 m0.0,0.0 m20.180962458420552,4.128134662760833 l0.03772385983120492,0.5677354374520783 -0.059087529017826185,1.9522935175170526 l-0.7014486244130222,2.4716806744426405 -3.9223715095191958,8.84468945828573 l-4.84796591149006,8.4080071024697 -5.714095226401193,8.024689982077673 m10.12490878950655,-11.869005578432132 l0.5037686794177811,1.2784251456685436 0.12775581822922644,2.065200287125631 l-0.2300481423406961,31.626885254619523 m7.893502190011434,-39.719934456074924 l1.6729832760849623,0.31991117868106006 1.873125334632549,-0.032462961332856435 l25.356322539283934,-2.803258855252143 2.662648915546564,0.2889377049752361 m-17.26956053729869,-13.127050294546768 l0.8731212038167261,1.2973426237354257 0.2564322596360561,1.1969266963978797 l-0.12315746975105621,52.919748742224876 m-0.4741805714276211,-39.954893990386346 l-0.4400969969800987,2.494721296161071 -1.8476368747931948,4.391178866409112 l-4.829662001206791,9.094077882673162 -4.968977981460448,6.852258759072339 l-2.428378679748838,2.553775217086447 -2.5599535572118524,2.118548542869792 m18.14788158094115,-27.15475422329032 l5.144475882627946,8.775903869513831 5.774881455221859,8.359903115796612 l2.9254438553831443,3.7666200367660294 2.5183821022839092,2.7731260805660534 l1.4394553258507305,1.772280061882806 " fill="none" stroke="black" stroke-width="1" /></svg>