<?xml version="1.0" encoding="utf-8" ?>
<svg baseProfile="full" height="104.02591198680508" version="1.1" width="102.55488598852304" xmlns="http://www.w3.org/2000/svg" xmlns:ev="http://www.w3.org/2001/xml-events" xmlns:xlink="http://www.w3.org/1999/xlink"><defs /><rect fill="white" height="104.02591198680508" width="102.55488598852304" x="0" y="0" /><path d="M25,40.05988735533413 m0.0,0.0 m16.365112846263028,3.712622972045563 l0.04748557207280618,0.5235385725291167 -0.1153660392965289,1.8466699684090861 l-0.8049202574044885,10.158621964529 -0.31426503356500035,13.479613566373109 l0.888936026484281,9.244957587585093 0.666295579918147,-4.085354987293533 l3.7713199939445965,-6.213119669493119 m-8.08088928515041,-19.24801190371298 l2.3952242420899705,1.3856649846109759 1.9389637654173408,2.0440483847556923 l1.6229609277959958,2.179073678308491 1.0489419123692694,2.1941020751751843 m11.76137544955498,-32.28231454915581 l0.023939693687497383,1.0977379490302301 -0.7173916395634691,1.785152218547256 l-3.2389840072195306,5.627988643401747 -3.5765757674885816,5.047363323462644 l-3.642747917283176,4.09288234327934 m8.797566122799418,-8.862824877666627 l2.3146435396879497,0.13006890323864764 7.316481861394141,-2.1945101399856983 l1.0429221643225541,-0.20171153919314774 0.7135463882859794,0.21371430873863173 l0.3329974745492432,0.3989487860495422 -0.1581738408796754,1.1854034991880629 l-1.3786155802342126,2.2295192551125846 -4.771000811654645,2.8866169445843997 l-3.8754819878419258,2.49620433333347 m-2.6289985519622916,6.241316418515314 l0.4443279937450109,1.5045612400899073 -0.31043063781866553,5.290304050999168 l-0.5544929345375639,4.23129938057351 -0.9151381465236778,4.047869803545295 l-1.0798694269413107,3.1462878443269475 -1.4120676816431854,2.9135277209238795 l-1.739988237698144,2.592804034332042 -1.6067036906298104,1.7449721412175503 m12.020651368097905,-23.117342169249657 l1.9062763906759328,0.4191308011177398 6.443270061126919,-1.3209631604261756 l0.9178523707452676,0.15676305885538908 0.34138380820665837,0.379604359558946 l0.13640802068015548,0.6056574641217451 -0.23630754396725567,14.393957428286445 l0.14973208775665658,4.165931854466764 0.44111884853768757,2.4953908159331757 l0.7723789746345789,1.1832524833954805 1.3494518643247235,0.5244471574369107 l4.066562025445807,0.10734053791777586 2.050848971500822,-0.4188415666723561 l0.7492168302310646,-0.47316983395797635 0.7801852162071868,-2.1090070140576525 l0.0949166152730329,-2.1589223907034496 " fill="none" stroke="black" stroke-width="1" /></svg>