<?xml version="1.0" encoding="utf-8" ?>
<svg baseProfile="full" height="101.47607060104195" version="1.1" width="108.38590456696436" xmlns="http://www.w3.org/2000/svg" xmlns:ev="http://www.w3.org/2001/xml-events" xmlns:xlink="http://www.w3.org/1999/xlink"><defs /><rect fill="white" height="101.47607060104195" width="108.38590456696436" x="0" y="0" /><path d="M25.148681401576617,25 m0.0,0.0 m15.184591748723163,4.055337918284267 l0.036317718753063416,0.5068967405238095 -0.34391705896325936,1.9088918305378482 l-1.0068094955026199,2.4541477871029564 -3.8891872795511593,7.131972931143999 l-4.684124122097236,6.636220377596809 -5.445552912938568,6.313290260027956 m10.070957127381925,-10.224530495055895 l0.5869027200777928,0.8725099960479002 0.23473239572474372,1.6829217376964638 l-0.05314590422238778,30.13841151713584 m23.323540836121335,-47.990543170395355 l1.0210842378962985,0.9408808293589264 0.40141981062304877,0.9407562864155224 l-0.029912368439904056,6.308206388879137 m-16.83637212920937,1.6615077872383388 l1.8501932017864644,0.23958589800147992 2.6278882729633133,-0.06932977629021293 l17.54027854550337,-2.9736765101509226 7.152752171636379,-1.0068329707361572 l4.089346843320838,-0.19603531101580143 1.9901983740997669,0.4788387747427276 m-25.14375334268812,10.349463147133132 l0.41776477015102764,2.1837195919145445 0.016820200989615258,5.895205597903679 l-0.2119213390334996,4.477497077315713 -0.8312129712913665,5.112815784708742 l-1.236491499432109,4.0222651399268186 -1.617510281059828,3.3396883831653335 l-1.9720979179489446,2.6512737458602236 -2.0348075784234587,1.8511549177998146 m8.740202813032173,-28.43110686144513 l13.218655136947643,-2.6835101096813654 0.7810319870157332,0.12679533690234998 l0.9349517527083003,0.8326502533226149 0.3425654823398626,1.3206796440872797 l-0.48978314009974216,22.907396694072418 0.4134707369835245,2.2429361184789007 l0.6568885466532374,2.1296928954180543 0.9261414948198823,0.9744234852436418 l1.565839622566603,0.5776325427209197 2.229097592661946,0.2039977874833214 l3.772262870384575,-0.17776008978188934 2.2646465463798298,-0.5653220494509493 l0.8500921092965626,-0.6589287265010642 0.5259029883223088,-0.9413728092690643 l0.2972838504249858,-2.003878829846472 " fill="none" stroke="black" stroke-width="1" /></svg>