<?xml version="1.0" encoding="utf-8" ?>
<svg baseProfile="full" height="106.37829269057477" version="1.1" width="101.01673497088623" xmlns="http://www.w3.org/2000/svg" xmlns:ev="http://www.w3.org/2001/xml-events" xmlns:xlink="http://www.w3.org/1999/xlink"><defs /><rect fill="white" height="106.37829269057477" width="101.01673497088623" x="0" y="0" /><path d="M25,25 m0.0,0.0 m22.77744665657976,2.8419684470748794 l0.03932117058282465,0.5135274817773916 -0.10990055892533487,1.7878284468277543 l-0.7897003183671403,3.080902113307733 -3.1287711628732855,8.252464543316856 l-3.684538280003378,7.931345266003983 -4.2327841953292,7.633170235640017 m7.333361834872112,-11.356794508674867 l0.4053447599342472,0.9892745775385472 0.10279877545672787,1.1963410940770076 l-0.0248235774026121,33.50826499368546 m7.94887142263578,-44.075496362096466 l3.0809147806283725,0.18579997189071765 14.455358642295423,-2.173307682369056 l3.7831604316076195,-0.3003040274003263 1.8787061801031069,0.2095879605402793 m-12.953343929337699,-8.62249897040024 l0.45428307919285354,0.88534103642195 0.18562010411476543,1.1323525150555722 l-0.7904744007818932,17.63432198792434 m-13.018694663839174,1.4764609518082554 l3.0337676077593105,0.24277761136870557 19.363369904879832,-2.2860013774791446 l4.010283125224913,-0.17954706053317485 m-26.337286334313163,13.398733998768444 l3.429005661085834,0.2036087632030473 18.958748844766358,-2.3241301527182516 l3.6955958817688015,-0.17237971475948702 m-13.695905122432219,-7.20707496750409 l0.5287123132452622,1.031824192313333 0.1842952116003921,1.8714192691600031 l-0.05567275586447986,26.908499805626292 m-0.8941337947184047,-19.774181569976452 l-0.16295039614285114,1.3478180718430703 -0.5859086803103445,2.113564353503161 l-1.3983042575278297,3.354409414406989 -1.6444382061954654,3.2695875703376265 l-3.626126567891424,5.724247440817814 -3.7390137117100206,4.447942953999833 m13.709483306725195,-19.001224398062522 l9.616272138176912,12.703946472930774 2.914784051615744,3.756050275737098 " fill="none" stroke="black" stroke-width="1" /></svg>