<?xml version="1.0" encoding="utf-8" ?>
<svg baseProfile="full" height="111.18453856744709" version="1.1" width="110.99680557528353" xmlns="http://www.w3.org/2000/svg" xmlns:ev="http://www.w3.org/2001/xml-events" xmlns:xlink="http://www.w3.org/1999/xlink"><defs /><rect fill="white" height="111.18453856744709" width="110.99680557528353" x="0" y="0" /><path d="M25,27.29639240692663 m0.0,0.0 m19.890246363932675,2.677585015809636 l0.06389862467315356,0.6735106585432179 -0.19895754104121519,1.6713440501491408 l-1.0681311777678264,2.90997252658791 -3.86469184472744,8.463906756188 l-3.8982085000704196,6.485456744916702 -4.896619422008224,6.514052276058241 m9.282041229412682,-11.17577224907679 l0.6894061559687393,0.9585893080715718 0.29546469406337683,1.933910308987671 l-0.04527820526863299,33.061348727597085 m6.519324885452482,-38.40346104694579 l2.2598230838142626,0.25023414189253945 2.568278211529349,-0.10165044814641828 l26.4608247504178,-3.2165073465358045 4.2344839456413315,-0.06114913158517221 l2.054883269413818,0.34227524388845976 m-19.750979622206586,-15.280037943326827 l0.5950130414331547,0.9620300475129095 0.22693336523010757,1.378472955790309 l-0.010661133121432298,13.158256127140877 -0.6550277602527291,8.369283476146508 l-1.3480656649793772,7.329395401212918 -2.067773260343493,6.920419633970566 l-2.2565765507462343,4.641349363808092 -1.9319708465994292,3.5963792630568268 l-1.9771618984022339,3.4305289273572113 -2.0545493521579887,3.36634229898929 l-2.321725632273629,3.7257445383415564 -3.600179326653795,4.306336534120033 m17.50078261946544,-33.92285048700529 l6.061555139001928,11.145337050440833 5.755717636639964,9.905895386953079 l5.388371739325902,8.058473162576199 3.096314558488047,3.407504399454312 m-10.490693266233642,-51.18489519066576 l4.297987805560036,3.6677072064509706 2.8364146406658155,3.8996841376956204 " fill="none" stroke="black" stroke-width="1" /></svg>