<?xml version="1.0" encoding="utf-8" ?>
<svg baseProfile="full" height="164.07307277915478" version="1.1" width="110.22102428512594" xmlns="http://www.w3.org/2000/svg" xmlns:ev="http://www.w3.org/2001/xml-events" xmlns:xlink="http://www.w3.org/1999/xlink"><defs /><rect fill="white" height="164.07307277915478" width="110.22102428512594" x="0" y="0" /><path d="M25,25 m0.0,0.0 m19.373439116025473,4.171887893932526 l0.05081560279441778,0.5668346148659016 -0.26882963632472,1.761009840347955 l-0.9536888709735744,2.8616291476841784 -3.4404961397543907,7.3326207074105065 l-4.196158233720711,7.021116950120228 -5.153506295137332,6.707456325762796 m9.74495222849606,-11.298532487017594 l0.6272545199041026,0.8977958746702965 0.2578526178964633,1.2049185643134683 l-0.0055153739037342156,32.12148336841081 m7.873201742083922,-36.45978571452512 l1.8624613672527335,0.304225704692036 2.352891073764566,-0.034754451958743056 l25.605956940869223,-2.976386907613651 4.078894854144384,-0.09382548846223103 l2.4114987717090535,0.3465547694505121 m-19.629538309460408,-14.364557302490994 l0.6287813405995766,0.9152327311320426 0.2385875817593306,1.3006170532539734 l0.10820650283789413,13.132417408655135 -0.6207788983642613,8.058468788679061 l-0.7690391018629973,5.907183962609729 -1.7005967077082909,4.921243937273042 l-1.6008082293677588,3.042077283406577 -1.9289898972767974,4.112685427958576 l-1.8918354744835986,4.425646406949524 -1.5969967996218675,4.2403690728116405 l-1.536468486606742,4.409936141060358 -1.5736341446428352,4.607975930609001 l-1.488951484765764,4.600462643862648 -1.462057663680288,4.70063121099148 l-2.122591737184758,4.8859822119404805 -2.6111910844682265,4.332845977851159 m17.78578537501426,-35.882081087711185 l0.34411864337920933,3.427705190479889 -0.19819858187201378,9.053249146743525 l-0.526641210011878,9.559617517289386 -0.7996958145027053,13.535884957325965 l-0.8194215808511276,13.260515882964118 -0.8169537585443839,3.0333910253721306 l-1.3178588942983918,3.1934144674502587 -1.8112756309510003,3.279342526276945 l-2.6414203116769555,4.527367212464426 -3.6442270886918937,5.048234533649032 l-4.276963235084947,4.372963808212992 m17.93349285815305,-37.25020505151736 l6.058894751076032,12.392751691120711 5.771803693809621,11.171781118141306 l4.431479863861516,7.551751754707354 1.5278984361267014,1.6727120937343514 l1.0066762105748934,0.635985292034614 " fill="none" stroke="black" stroke-width="1" /></svg>