<?xml version="1.0" encoding="utf-8" ?>
<svg baseProfile="full" height="104.06909860202938" version="1.1" width="106.72525763837206" xmlns="http://www.w3.org/2000/svg" xmlns:ev="http://www.w3.org/2001/xml-events" xmlns:xlink="http://www.w3.org/1999/xlink"><defs /><rect fill="white" height="104.06909860202938" width="106.72525763837206" x="0" y="0" /><path d="M25,25 m0.0,0.0 m19.781855046846477,5.287287920870375 l0.061142229989385816,0.5249450893221543 -0.2317559312375339,1.7205265530109384 l-0.8843899366660285,2.8857663203437056 -3.077144282515099,7.124928321925587 l-3.776822712931965,6.882707784475522 -4.33879763883801,6.80013015289438 m7.855124160081901,-10.893569416568964 l0.5192975243056619,0.843145778173047 0.24294790936379004,1.7250390388553751 l-0.022187776517634168,31.168191058727277 m17.02412814500244,-48.39483825384488 l3.456433024937816,-1.6267771791394683 8.656826011756664,-3.5607516925168037 l1.1694337371345187,0.025063834019986787 0.6016355156594703,0.369034428366249 l0.260373311664927,0.6307819211570221 -0.35750369230529755,2.8539861718297055 l-1.9139132931246834,5.391092229019958 -2.4405340613296747,5.003061120426165 l-2.886803178643503,5.115545998179745 -2.939828771762997,4.9523639743502015 l-2.8961682018162014,4.267079442423521 -2.930348179766005,3.6962848551431096 l-3.023130737425144,3.3189807923600334 -3.2697982741818286,2.9719871718522866 m5.230180374219538,-27.53228346835061 l1.9036722643347037,0.918303189554183 2.862503306381119,2.2766273163260013 l16.53720806732128,16.110995085574046 3.003712861381304,3.38707735768752 l2.5479108170526734,2.5566739955149935 " fill="none" stroke="black" stroke-width="1" /></svg>