<?xml version="1.0" encoding="utf-8" ?>
<svg baseProfile="full" height="120.51128906825825" version="1.1" width="87.04526962961224" xmlns="http://www.w3.org/2000/svg" xmlns:ev="http://www.w3.org/2001/xml-events" xmlns:xlink="http://www.w3.org/1999/xlink"><defs /><rect fill="white" height="120.51128906825825" width="87.04526962961224" x="0" y="0" /><path d="M25,25 m0.0,0.0 m18.654342320540394,3.5141699290923945 l0.02791493057676139,0.5040475178366479 -0.31649902929949525,1.989867506178618 l-1.1744482009766695,2.702681705924686 -4.471446203727612,7.564557541041036 l-5.766480164419332,6.95077207497822 -6.433004439380394,6.130359605468901 m13.439224322362104,-10.916916314956406 l0.7983830675582717,0.45847403936908604 0.6759625219931604,0.20084197079948393 l0.4698763271079077,-1.2035936915481353 m12.851125844750637,-8.799902778645219 l0.3365047608846365,0.2991016798192364 0.10589018522960385,0.378961548546624 l-1.75812467391268,1.8220963159701247 -5.596512472251349,3.2162027679299032 l-4.64759456233331,2.222805384372973 m14.790230533439873,-13.502562281703913 l0.22305836489236244,0.7068881745346092 -0.02444790563688395,0.9211463700774626 l-0.6950488785332427,5.2872717400826215 -0.04471040510893198,2.5684357003316594 l-0.3315207591487835,1.8381677618949899 -0.5709299372321287,2.715090326139507 l-0.8747803234612376,3.241102055927446 -1.1120722246876407,3.302906213055901 l-1.5582453893838724,3.4010635874328 -2.0072621917129503,3.2227164790210665 l-2.1970172152025977,2.5974253861647982 m8.109546638316303,7.0175811814601445 l-0.34347984586406904,-1.59909242426806 -0.22745005583598005,-0.5115782679464188 l-1.5793461358969965,-0.5998205861475534 -2.1703337684187196,0.0028907674707885785 l-4.396533890737649,0.6913991255595279 -4.388621697704111,0.6682803854507341 m19.24912018282686,9.05321606540685 l-0.14699377483474557,1.5730109325422506 -0.47354429935267994,1.4779144078832145 l-3.881375498894306,6.127309821562973 -2.5946334783320033,3.0549764456160666 l-2.990405449600914,2.9142728489559486 -3.5491556949480643,2.8131706288423253 l-4.097120956973022,2.6145858662427788 -3.7652769611298496,1.878993554489558 " fill="none" stroke="black" stroke-width="1" /></svg>