<?xml version="1.0" encoding="utf-8" ?>
<svg baseProfile="full" height="108.48137091285133" version="1.1" width="112.27824367006528" xmlns="http://www.w3.org/2000/svg" xmlns:ev="http://www.w3.org/2001/xml-events" xmlns:xlink="http://www.w3.org/1999/xlink"><defs /><rect fill="white" height="108.48137091285133" width="112.27824367006528" x="0" y="0" /><path d="M25,25 m0.0,0.0 m20.22992401983671,4.270957501424098 l0.039093470416707715,0.470992704613315 -0.08726357701501872,1.893565267740951 l-0.6710202836136782,2.499724924806047 -3.2044274380094797,7.697585734944919 l-4.01851779199752,7.360993037213072 -4.706495358355529,7.07614344009651 m9.338279329146085,-11.767915575532816 l0.41413866334074073,0.8614491254945731 0.1129134790614403,1.184978383181448 l-0.19033189974611192,32.01239811979709 m10.798682308514884,-45.060806300532086 l1.3433833801094113,0.2689627341573162 1.789318854233536,-0.05929095220099909 l20.403468869182706,-2.3060047007161177 3.3661079115299177,0.24740187419457998 m-27.90283255081852,9.816459846871409 l3.484093470441402,0.2709524902966996 21.678079035757573,-2.200413636372344 l3.5570510184024093,-0.1341858618049233 m-32.51345990149612,10.438276893100255 l3.75395124697346,0.1900422912202682 30.004851514117824,-3.056992623421709 l2.8776369312887162,-0.04016460517353163 2.381618968763742,0.35038078761349095 m-22.615602522186137,-19.92878908461888 l0.59211017345437,0.9099394667823192 0.5633984862840761,1.4235506992791818 l0.2280191048976557,18.21895881497123 m-10.035414014012787,8.219395763325553 l0.6159286725814133,0.8274323986285498 0.35469300327570463,1.3608881435632276 l0.04678037528185569,24.6614095071924 m0.007144457076234422,-25.833077208415162 l17.789126953922363,-2.1634551667726427 1.7525908813552433,0.010838958670682767 l1.1078601293890438,0.6421572037705575 0.3673016160999052,1.1605294162856101 l-0.3522906569624368,25.18343333436498 -0.41843524716272607,1.1049343960059947 l-0.6090247370260188,0.3977333688062239 -0.7120031961987472,-0.13451109661182814 l-2.5963841299397954,-2.1989451805857154 m-5.986550769540491,-24.499556348752805 l-0.09624958617455279,10.311144007202552 m-9.243340994057359,1.1412912729051767 l13.537886581680507,-1.2332363438672755 6.409024697895947,-0.3256352427009691 " fill="none" stroke="black" stroke-width="1" /></svg>