<?xml version="1.0" encoding="utf-8" ?>
<svg baseProfile="full" height="109.11695218412206" version="1.1" width="109.49251333717257" xmlns="http://www.w3.org/2000/svg" xmlns:ev="http://www.w3.org/2001/xml-events" xmlns:xlink="http://www.w3.org/1999/xlink"><defs /><rect fill="white" height="109.11695218412206" width="109.49251333717257" x="0" y="0" /><path d="M25,25 m0.0,0.0 m28.611793518066406,1.7466911673545837 l0.02955953124910593,0.7448660582304001 -0.5241918563842773,1.8843133747577667 l-3.1508582830429077,4.944534003734589 -3.9233246445655823,5.347633957862854 l-4.212275445461273,4.9476006627082825 -7.445253133773804,7.14471697807312 l-5.115928053855896,3.9471766352653503 -4.269520342350006,2.790692150592804 m30.181727409362793,-28.088197708129883 l10.940943956375122,11.187301874160767 10.034905672073364,9.392263889312744 l4.1529858112335205,3.1856143474578857 2.299339473247528,1.1310991644859314 l1.8826097249984741,0.5765386298298836 m-41.25999450683594,-3.9008358120918274 l3.4752464294433594,0.17445020377635956 13.147259950637817,-1.6202370822429657 l3.8251903653144836,-0.05451901350170374 m-30.465223789215088,12.539373636245728 l2.278554141521454,0.32973356544971466 1.9108915328979492,-0.046341163106262684 l14.250589609146118,-1.5998776257038116 11.130056381225586,-0.8505818247795105 l7.668099403381348,-0.23351067677140236 4.46647047996521,0.20237255841493607 m-24.838862419128418,2.477889358997345 l0.13974756933748722,1.277448683977127 -0.7818367332220078,1.7095118761062622 l-4.573464095592499,6.427110433578491 -6.5422821044921875,7.623121738433838 l-0.1935425028204918,0.7816664129495621 0.2734469249844551,0.5918720364570618 l0.7462289929389954,0.3330771252512932 1.2246333807706833,0.00619727885350585 l2.5174155831336975,-0.3921109810471535 25.508766174316406,-5.155965685844421 m-4.737702310085297,-5.520050525665283 l2.205294370651245,2.02095165848732 2.7716103196144104,3.476950228214264 l2.4611929059028625,3.9444509148597717 1.675778329372406,3.6919596791267395 " fill="none" stroke="black" stroke-width="1" /></svg>