<?xml version="1.0" encoding="utf-8" ?>
<svg baseProfile="full" height="109.49251153739169" version="1.1" width="107.94887942261994" xmlns="http://www.w3.org/2000/svg" xmlns:ev="http://www.w3.org/2001/xml-events" xmlns:xlink="http://www.w3.org/1999/xlink"><defs /><rect fill="white" height="109.49251153739169" width="107.94887942261994" x="0" y="0" /><path d="M25,25.000002905726433 m0.0,0.0 m16.728545427322388,1.362372487783432 l0.04565379582345486,0.6392363458871841 -0.11523474007844925,1.798185259103775 l-0.4758482053875923,1.694309264421463 -4.4157251715660095,9.904168248176575 l-4.415059387683868,7.759397625923157 -5.795742869377136,8.547788858413696 m9.822932481765747,-12.102875709533691 l0.8854421973228455,1.5794464945793152 0.3281080350279808,1.6457007825374603 l-0.2454632706940174,33.2546067237854 m21.595535278320312,-56.0823392868042 l0.11161666363477707,1.7915263772010803 -0.3638986125588417,1.801847517490387 l-3.543100655078888,8.625362515449524 -3.484503924846649,6.421661972999573 l-3.928973078727722,5.224425792694092 m8.555113077163696,-9.940125346183777 l3.506810963153839,-0.0380378938280046 3.0809861421585083,-0.3596120700240135 l16.33249044418335,-2.6704347133636475 3.6523035168647766,0.13617065735161304 m-18.74027967453003,4.152372777462006 l0.7128150761127472,1.0387591272592545 0.3916987404227257,1.749909520149231 l-0.16364306211471558,41.558685302734375 m2.0588739216327667,-31.684813499450684 l11.40670657157898,-1.6399160027503967 2.210359573364258,0.09210871532559395 m-13.423963785171509,15.000746250152588 l12.886606454849243,-1.547817587852478 2.747717499732971,0.013660764088854194 " fill="none" stroke="black" stroke-width="1" /></svg>