<?xml version="1.0" encoding="utf-8" ?>
<svg baseProfile="full" height="99.01067942162437" version="1.1" width="104.24865519105632" xmlns="http://www.w3.org/2000/svg" xmlns:ev="http://www.w3.org/2001/xml-events" xmlns:xlink="http://www.w3.org/1999/xlink"><defs /><rect fill="white" height="99.01067942162437" width="104.24865519105632" x="0" y="0" /><path d="M25,25 m0.0,0.0 m15.88469657324087,7.38399099759156 l0.03685186010197851,0.4805901464302258 -0.2068398074095807,1.4436046691642856 l-1.0213386352573302,2.4832229319834807 -3.7078249918106936,6.090394876329069 l-4.70852494310569,5.8844105287899255 -5.730913189058803,5.762094659557638 m10.098487419334914,-9.694005637788209 l0.6230375349226502,0.7978803121481379 0.2589745024576085,0.9384863484007685 l-0.005712014387689618,27.4400095890175 m8.701449634301563,-32.729290426092795 l1.4092896099095178,1.0265659762366945 1.7789854249498989,1.5580328609510923 l1.5692000398754573,1.853912291566622 0.864949071085249,1.5909982937336524 m22.698062670152137,-8.890735044636859 l-0.02303999242889464,0.7366532952902729 -1.6868821001755392,2.060676125339547 l-4.956471115621677,4.408437536135041 m-8.328470311357927,-12.39320394274878 l0.4828119356635945,0.6779221486367117 0.22542747142112768,1.1553938684828742 l-0.8241098778799397,8.92065938362448 -1.425654062371402,5.794379870526439 l-1.9151046943994938,4.539000723056617 -2.425698893067258,3.7267014762933246 l-2.8343574188126057,2.984108013811664 -3.4583237228359,2.5612055046046405 l-4.931150618047114,3.0097684988075937 m16.887552957791574,-17.995289729249404 l7.577789946196067,7.168589333923528 5.683290836747132,5.394473214630412 l3.8126138332966284,3.4095765790134513 2.72459247011695,1.8918376256138194 l1.1210077875189024,0.3609944014878988 " fill="none" stroke="black" stroke-width="1" /></svg>