<?xml version="1.0" encoding="utf-8" ?>
<svg baseProfile="full" height="109.48792762264068" version="1.1" width="103.79699770319513" xmlns="http://www.w3.org/2000/svg" xmlns:ev="http://www.w3.org/2001/xml-events" xmlns:xlink="http://www.w3.org/1999/xlink"><defs /><rect fill="white" height="109.48792762264068" width="103.79699770319513" x="0" y="0" /><path d="M25,25 m0.0,0.0 m19.391637806860828,2.1723406220291754 l0.04255471462230355,0.5969524321910162 -0.09220384207010984,2.000792247149583 l-0.7205243075623949,2.6961321808678638 -3.1535618758902677,8.398613229972144 l-3.687792567291761,7.560018914334428 -4.515998667258449,7.257233918093911 m8.009403841155947,-11.472703042636606 l0.5455906832390783,1.0159058428874093 0.2250545294560436,1.8168532879421389 l-0.030641376770910066,34.434806178430826 m9.072401930833546,-46.727940705943 l1.2454435266467396,1.0753934682731667 1.698642294370425,1.9325914918855047 l1.345036648119882,2.05718900659959 0.5853308123830672,1.3765969520431538 m17.149538495171377,-9.044754387910618 l-0.10861819698327609,1.1314005485049572 -1.2613579062301334,2.555179532105002 l-3.730022062571577,5.649415434944545 m-17.643575565200152,4.508614613290636 l2.455361757674422,0.7255759303543106 18.752859808269704,-2.6499156116688063 l1.815846289764529,-0.13488370670488123 1.3331781947062753,0.20356452695465566 m-27.941174659451516,14.998977117872567 l1.1354087066432184,0.28554907803416374 1.9821651450742852,-0.004859044119245728 l24.606384541690982,-2.7861778747608232 3.296152581579306,0.23456784320811053 l1.9944764222137192,0.4278276949804022 m-17.72438892472858,-27.72963514773949 l0.5439412721440239,0.9612420695307936 0.23010768611065427,1.7555922037357008 l-0.062392268520966646,50.072343590869096 -0.23552651274924535,1.3341534610735164 l-0.4466900913505668,0.690070632650647 -0.601005307847323,0.11330309331514066 l-1.4170538182043415,-1.0135621597018079 -1.9786369874261718,-2.3826114289404634 " fill="none" stroke="black" stroke-width="1" /></svg>