<?xml version="1.0" encoding="utf-8" ?>
<svg baseProfile="full" height="103.44353011663847" version="1.1" width="113.653082575441" xmlns="http://www.w3.org/2000/svg" xmlns:ev="http://www.w3.org/2001/xml-events" xmlns:xlink="http://www.w3.org/1999/xlink"><defs /><rect fill="white" height="103.44353011663847" width="113.653082575441" x="0" y="0" /><path d="M25,25 m0.0,0.0 m2.410239344701822,17.1386591515009 l0.40087272356453857,0.11183328709371439 1.8299501471487882,0.03434723894625273 l14.518447383323295,-1.6511754361200928 1.9894563218450578,0.10669043704081986 m-9.628308860556603,-10.291616553178768 l0.8619239247679861,1.2657023735102995 0.5488858041125713,1.8480447640583766 l-0.10628459696598218,41.42744342461893 m-0.22966132954601515,-30.72561187803367 l-2.520775717513525,6.076352571739587 -2.0711795169938934,4.411862538050352 l-2.3534110778978006,4.1432555105186735 -3.535391551356524,5.308164139330064 m12.422738478851803,-15.73956599492406 l2.5202401721406535,2.617999693940192 2.681787131385492,3.8334092240987507 m9.41890036851508,-24.952528558086325 l0.7309468034788699,0.8400674283907846 0.25459994927379853,1.722890541856779 l-0.26366562089135975,6.194811693417847 -1.8128834429596832,10.717081877087484 l-1.4454688279548227,5.0880857460835704 -1.7403007068191267,4.743536889283131 l5.070040121097204,0.7493483465920737 7.835025068601361,0.9026512575089792 l7.332845993563121,1.2626093286345637 5.554336231059788,2.073884777376203 l5.427559891966689,2.623163693776246 m-23.192538904383493,-37.10479740645314 l19.373323460998417,-1.4499527104545569 0.682330607437412,0.4521837872950198 l0.5874562667387068,0.9642806043091426 0.029612272954077742,5.917087269072163 l-1.2330583680163658,22.637754745029106 -1.2431905251431756,12.95192576738431 l-1.2021059950385165,5.325040944177541 -0.6460003593910141,1.2030178485420029 l-0.7266426976197535,0.5575693353099703 -0.7814691828218175,0.1080224183152637 l-1.5849509147199654,-0.5867244359473617 -1.6844191922434983,-1.3272463038246936 m-4.248569653087816,-37.50617107866621 l3.1182444722294935,2.9010572045636307 1.5521174509706683,2.137116257500346 l0.6165326139376597,1.3471483487575568 m-4.6413983047755325,11.841730463182994 l1.7642774322524928,1.4925216558546794 1.765257502614963,2.050810102434105 l1.4831132818297668,2.191873309063254 0.8578499184970798,1.9159890448887642 m-20.55058538054281,-12.997034819197673 l2.0468327095795056,0.3524231005478959 27.827898605890788,-1.7255747858478954 l5.757710976020201,-0.22792584499564533 1.8239898713309557,0.3493786006625228 " fill="none" stroke="black" stroke-width="1" /></svg>