<?xml version="1.0" encoding="utf-8" ?>
<svg baseProfile="full" height="109.49251672427636" version="1.1" width="108.37117901304737" xmlns="http://www.w3.org/2000/svg" xmlns:ev="http://www.w3.org/2001/xml-events" xmlns:xlink="http://www.w3.org/1999/xlink"><defs /><rect fill="white" height="109.49251672427636" width="108.37117901304737" x="0" y="0" /><path d="M25,25 m0.0,0.0 m18.229435682296753,1.0202844440937042 l0.060224500484764576,0.5372209474444389 -0.1628263294696808,2.4440380930900574 l-1.0335410386323929,2.9842641949653625 -2.0164982974529266,4.480736553668976 l-2.7214965224266052,5.034317374229431 -5.550169944763184,8.463984727859497 l-3.2099702954292297,4.096100926399231 -3.424992263317108,3.8029497861862183 m10.593502521514893,-11.421537399291992 l0.5916441977024078,1.1983131617307663 0.09915340691804886,1.3522341847419739 l-0.027351179160177708,34.63522434234619 m13.889615535736084,-49.36155319213867 l3.4032896161079407,0.12363133952021599 17.087899446487427,-1.994086354970932 l4.0109604597091675,-0.176254753023386 1.9472171366214752,0.24847302585840225 m-15.396103858947754,-7.468339204788208 l0.5744491145014763,0.8370496332645416 0.26335177943110466,1.1151758581399918 l-0.017273330595344305,16.33832812309265 m-18.622770309448242,1.6133321821689606 l1.8804402649402618,0.40859173983335495 2.0270156860351562,0.017242030007764697 l19.00673747062683,-1.9377848505973816 10.30035138130188,-0.7686658948659897 l3.217649459838867,0.06640919949859381 2.552216947078705,0.40224794298410416 m-30.343468189239502,5.668031573295593 l2.147381156682968,3.898441195487976 1.189548745751381,3.7739020586013794 m16.902594566345215,-10.310368537902832 l-0.17779897898435593,1.6273555159568787 -0.706918016076088,1.9231775403022766 l-3.2254958152770996,5.735476613044739 m-25.556890964508057,3.597944676876068 l2.053726613521576,0.3299618512392044 2.6841014623641968,-0.009651362779550254 l17.809759378433228,-1.7818190157413483 12.52402663230896,-0.8497373014688492 l3.0820924043655396,0.0923531036823988 2.436358779668808,0.488932840526104 m-39.44650650024414,12.618181705474854 l3.356545865535736,0.3335771709680557 26.60128355026245,-2.4164092540740967 l5.099091529846191,-0.2576600946485996 3.249034881591797,0.2823779918253422 m-20.065150260925293,-8.643614053726196 l0.40834132581949234,0.5545829236507416 0.29089728370308876,1.227027252316475 l-0.04946714732795954,23.518524169921875 " fill="none" stroke="black" stroke-width="1" /></svg>