<?xml version="1.0" encoding="utf-8" ?>
<svg baseProfile="full" height="111.3112275858973" version="1.1" width="115.91967112938605" xmlns="http://www.w3.org/2000/svg" xmlns:ev="http://www.w3.org/2001/xml-events" xmlns:xlink="http://www.w3.org/1999/xlink"><defs /><rect fill="white" height="111.3112275858973" width="115.91967112938605" x="0" y="0" /><path d="M25,25 m0.0,0.0 m13.711939943662559,5.620785300541644 l0.044226198910468154,0.5102950812270837 -0.10129065287453216,1.9548668741835942 l-0.71033722527063,2.4927983539924767 -3.410894075762322,8.150202496323784 l-4.113301425382471,7.451063729852841 -4.7783544950249235,7.30610757210312 m8.979237734077783,-11.396813238704288 l0.3783247800762392,0.9679110393632208 0.09167052235810023,1.3035633567980827 l-0.17828308979732257,32.84549208207365 m9.966688585163638,-41.02192467829249 l1.3285461933129343,0.14708844032088386 15.058641447252667,-0.17863196965282677 l2.680832192904788,0.10339412250939346 m-10.718902516767495,-5.938145613739583 l0.688328685645287,1.2047140447677935 0.053896292730746156,0.6763474169394104 l-0.06555870451391295,12.3409875713575 m-11.781513040184418,0.8239933567519961 l2.3397440868656774,0.24527405954480255 19.172807643092174,-1.811239776071804 l1.9278919052075574,0.24229051903710805 m-12.274157264177648,3.033764032010373 l-0.06382832003627288,1.052094397669507 -0.5833488279561242,3.1497293788277845 l-1.0119538061033986,2.9895590313220026 -2.5846129146989254,2.540203933171499 l-3.8681232695758276,2.071178270304795 -3.8187862613163928,1.7772212875387132 m17.024769271738965,-13.414008794879228 l0.44360838667066044,1.166365035743418 -0.05455123625934618,7.608597958702579 l0.38428666974843373,1.4002920945319786 0.6664221050080998,0.021736351667514964 l1.0527954574365697,-0.5610506820905359 6.438385249630305,-5.1757782652221 m3.915742103671984,-23.17545470754302 l1.6410649017219652,0.2645273898726446 13.851087039438399,-1.4073094456353357 l1.6932424075539045,-0.07817123667433522 1.2887555508191932,0.20419483035211924 m-10.773838102941772,1.885421513832595 l0.09063854358172793,1.2640525422012454 -0.6543276913386477,1.8909361225865662 l-1.1936111376993876,2.4803837602709056 -1.5714486488874129,2.408783535452416 l-3.4137237357846892,3.8683455716822777 -4.214587475666755,3.347109839573904 m7.0970997890566965,-5.78724277486139 l2.084100178508449,0.18234398185061385 9.558830675400976,-1.3663813281587214 l1.5256933032587463,0.11258143411110064 0.4826729035787375,0.32317454872555 l0.24281455923252956,0.5199819089215227 -0.31977452085239483,0.6533168499738043 l-4.761228335333589,4.538186992073124 -2.8766408264726597,4.335594558614259 m-6.5463252707247515,0.09572025968210393 l2.726599597861432,2.241200743668693 1.8968375558164563,2.2489859172470315 m-12.816072258923763,3.1864438576441625 l3.398040933657218,0.2200725570711304 17.99841627912162,-1.912673970558049 l1.700203934453596,-0.025472377363500116 1.5541626514865459,0.26611181883304136 m-13.764221160920286,2.5438401044741785 l0.6081096099305106,1.299159456517778 0.06850755789063859,1.072368569661088 l-0.0891399132551532,16.400118941033412 m0.3763402549751261,-10.274404823751386 l9.498407721458296,-1.1803208105393355 1.8503217657363307,0.04800346556722572 m-20.73854721068857,-1.0980475162262011 l-0.05816738647096258,1.5939261423808606 -0.8643777709916454,2.9118503285054165 l-1.187103861882336,2.81176777542429 -1.543529646548969,2.7298908505862274 l-2.987352602358954,3.8437759321668357 -3.982648085086776,3.5843582917611805 m8.760308735673293,-10.202818193596816 l16.934236713144923,9.510425572950828 2.066574082275106,0.7964499011101264 l1.8359032139926734,0.43579473389944007 " fill="none" stroke="black" stroke-width="1" /></svg>