<?xml version="1.0" encoding="utf-8" ?>
<svg baseProfile="full" height="99.9265576144434" version="1.1" width="102.04422297389218" xmlns="http://www.w3.org/2000/svg" xmlns:ev="http://www.w3.org/2001/xml-events" xmlns:xlink="http://www.w3.org/1999/xlink"><defs /><rect fill="white" height="99.9265576144434" width="102.04422297389218" x="0" y="0" /><path d="M25,25 m0.0,0.0 m28.438794506202417,3.2747062615586375 l0.058379590750991285,0.3786582938625997 -0.3996984070065293,1.4987139312520565 l-1.8058310895569525,2.5664853684296487 -2.5846583789297037,2.950613044626174 l-3.404390741064823,3.2696991949179486 -6.576016226014538,5.254669948583764 l-4.316035444139506,2.800745877279378 -3.597307012822966,1.979660506509896 m23.3643868660241,-19.02810759853489 l5.998781489100657,5.314768372115561 10.441078922367177,8.289958298246543 l3.5643665642293048,2.2510581980604436 2.8623723347525414,1.0043026190731867 m-30.50643066756842,-4.642884849429065 l12.831546772459156,-1.1377081757898277 m-18.266075591058463,6.335882590155982 l1.020452252399719,0.21533761414800187 1.6667143422288258,-0.059823732007593354 l17.1584794585517,-1.7372680087466545 1.3781343657477436,0.1016872544838056 l0.5584282911529529,0.21687619715290504 0.5357919655899659,1.0228842706117152 l-0.07788144583953434,0.8430559369577975 -2.2577059596309956,10.165260742480436 m-17.38424350499199,-5.364328158183342 l17.869501516026407,-1.896280027328584 m-19.786052566923924,7.583200441393779 l19.289758670019083,-2.0046227168003794 m-17.580327478275137,-8.660728355955937 l0.4613035234886579,1.010799930573996 -0.06364946038558657,2.458182971434607 l-0.7404377424747862,4.360715904773556 -1.1119263442850744,4.32895069561606 l-1.228608337573474,3.3600207026653384 -1.639607916984761,3.1141575624939546 l-1.6311514499820952,2.247301441325471 -2.055306038214158,2.1666221388279756 l-2.4682488675607024,1.9240757952001182 m12.595887389520012,-8.129759093186811 l0.7412420398916436,0.9818228140857468 2.1446766262814405,9.317193411509388 m-1.8260736526671872,-9.869926030729191 l17.209404522794777,-1.7930797373084966 2.047621452307722,0.12484556473281717 l0.35653061470634023,0.34573687150018617 0.1030744298185007,0.5386907401924435 l-0.13701567846435989,0.8263514644463896 -1.852754139854994,6.8949060522597865 m-15.147564009929619,1.6754353900182501 l16.485810969982047,-1.319497773931511 " fill="none" stroke="black" stroke-width="1" /></svg>