<?xml version="1.0" encoding="utf-8" ?>
<svg baseProfile="full" height="99.4961548512168" version="1.1" width="114.6253576927472" xmlns="http://www.w3.org/2000/svg" xmlns:ev="http://www.w3.org/2001/xml-events" xmlns:xlink="http://www.w3.org/1999/xlink"><defs /><rect fill="white" height="99.4961548512168" width="114.6253576927472" x="0" y="0" /><path d="M29.237426102823317,25 m0.0,0.0 m18.269529137019827,5.344799451246434 l-0.0009469171526185931,0.506853871890264 -0.13330987528958135,0.9778566091901297 l-0.8993288346463377,1.1355953296725836 -5.251271851731883,4.402142490459946 l-5.3679153130391795,3.2459261324000463 -6.777065107816784,3.1968372710094326 m-0.6741866214741989,-12.878921116056773 l5.413925822877235,1.359234514513576 6.671112885610338,2.6337050822016397 l5.34413502868156,2.914024070898137 4.015530656469131,3.242996097438553 m-22.28306554702563,10.94313268812359 l1.9853788312763445,0.2832345702814181 1.8602076008188169,-0.0954443093911874 l16.599498949674924,-2.3039959339843694 2.521317972366935,0.03014784115214747 m-10.268652979788554,-6.952016075603009 l1.1234984170778173,1.37047265069619 0.18897498222711617,1.1557333459208377 l-0.2993294199836329,28.983840269157216 m-0.08645875851862068,-23.32092199924449 l-2.9382460437207563,4.641886044110339 -3.7437663984497482,4.221194396418382 l-4.114347934511446,3.601367508523932 -5.392644783774393,4.142134398005661 m18.561433897674338,-12.504109061813656 l3.524079326894355,1.9400310085446093 4.203446351248939,3.293491116138344 m4.997487976784183,-19.288042808624464 l1.7360277164740252,0.15201822479333163 2.6305753544246806,-0.21074880169489013 l23.193015503123828,-2.322628189391324 2.5032902092062184,-0.14223713020269213 l2.0380357833678633,0.20216248339495146 m-24.792253505216568,-10.382537982446193 l0.8607291612877871,0.8376379893891517 0.3912770430117514,0.9337400500683418 l1.3307821830444773,8.363979693257903 m12.7790973000522,-12.218663427396462 l0.4718735221842247,0.8437804721206861 0.08677803494672047,0.9335401851761869 l-2.428840499686542,10.591453718596672 m-19.03181187961342,3.6579407916379103 l3.2443740150999276,0.15824126672498565 21.12126485858948,-1.099516029166575 l3.9150774399954327,0.13993781161522356 m-28.828662189906076,1.8956669771189978 l0.6505114903827421,1.1175616334706011 -0.07396468117654267,5.029591855577489 l-0.6125038026690933,3.905659256546279 -1.1720699086426527,3.6984320366222825 l-1.4354216853758317,3.066071276687628 -1.8653972070137652,2.900389183552307 l-2.3898926926991613,2.783444708493882 -2.1971167195788555,1.9611994227434872 m15.930961170027519,-19.25334397759536 l0.5913178851816913,0.25930843533833825 0.42310078440838705,1.024347758211187 l1.7867267870342713,19.67660818311317 m-1.595525128723987,-20.944984503648467 l21.061977112824074,-1.6695983478771115 1.8097428663717798,0.04604969639057169 l1.205833819408796,1.0802123117206535 -0.9633165447843907,20.406820503311568 l-0.5911712098505804,0.8105789659055248 -0.771153045094652,0.15665494361173565 l-1.7540809222955138,-0.7002002540309772 -1.5470051561097915,-1.0903088040645952 m-10.862594407389462,-23.779828811603174 l0.6125124359572766,1.3802567676329374 0.0615955699972289,14.136353195290907 m-8.13357486640179,1.014099629765551 l11.220331118351991,-1.739935206053171 8.182925646602207,-0.5873982752179968 " fill="none" stroke="black" stroke-width="1" /></svg>