<?xml version="1.0" encoding="utf-8" ?>
<svg baseProfile="full" height="104.42202578620312" version="1.1" width="114.7356315482841" xmlns="http://www.w3.org/2000/svg" xmlns:ev="http://www.w3.org/2001/xml-events" xmlns:xlink="http://www.w3.org/1999/xlink"><defs /><rect fill="white" height="104.42202578620312" width="114.7356315482841" x="0" y="0" /><path d="M29.10452032868146,25 m0.0,0.0 m13.422843244941621,11.696753563868478 l0.04467314770003223,0.46678500176210946 -0.34868462750501833,1.709126482070569 l-1.3882551982928684,2.4348892143337166 -4.809129365697417,6.508751369981947 l-5.051467924421438,5.512066604160679 -5.974499605406372,5.696320263069403 m11.01465414673196,-8.978288085998434 l0.6923780726884322,0.8359514557420263 0.358458988605521,1.0477188671813384 l0.012874170589013668,27.491951050031286 m14.479134567491176,-37.47652288112684 l3.6993056787289045,0.18481631884883054 24.14445818580387,-1.8069534135584564 l3.420390181673462,0.1569185858337715 m-32.59602020396352,-5.266002229143647 l1.4034902274699024,1.1753528396357245 1.9199852796845118,0.9584198343442993 l2.380291983939232,1.60998707355057 m18.73939805332175,-6.13950207737181 l-0.06442608937544136,0.6471302829052 -1.35417506401275,1.6755481897636808 l-4.331399476842128,3.7064680641119097 m-20.392319969276954,2.1960709960221423 l0.771699605572099,1.0362837443675421 2.441805020097816,7.7673908164084455 m-2.1076853098864152,-8.072115539932058 l26.85711859669818,-1.7324767871859577 4.667302084266199,-0.21094640132743134 l0.8752447585366389,0.12822862283869857 0.9687395971492461,0.6435822252972219 l0.15542316778175239,0.5671179246083373 -3.0698537887395605,6.6045178168424075 m-27.941777487937102,-2.971531992458092 l29.26130615919784,-1.1868873527092698 m-28.64971322866965,5.139681021973377 l26.7913038103562,-1.2212011069363573 m-35.19955687942887,6.478412820524911 l2.5566281491538656,0.1880438885040505 2.9055705152011044,-0.052191124442032714 l30.05602952036396,-1.657931510301726 6.214183176053605,-0.1823611929513444 l3.435146131750409,0.1384684243844103 m-24.666940564144053,-13.404753831544566 l0.6050783004355107,0.7015496595047593 0.10883671890254916,0.7447702297956119 l0.0063834214155285484,24.351451166608584 m-2.6274416931737448,-12.472228728521888 l-0.20582070293693924,0.9286374053129579 -0.9547138062243955,1.1451262532533748 l-5.985707699741401,4.49049590518281 -6.507538376638902,3.2567522593746814 l-6.0858100618101405,2.1290636755543835 m24.46388825938809,-11.880795480873033 l7.5027696074083545,4.620213032214437 6.168417384108444,3.1334404430463625 l4.642306815004697,2.0663260587709735 3.756531615516246,1.2097093309126126 " fill="none" stroke="black" stroke-width="1" /></svg>