<?xml version="1.0" encoding="utf-8" ?>
<svg baseProfile="full" height="103.72182530167795" version="1.1" width="109.39419381267483" xmlns="http://www.w3.org/2000/svg" xmlns:ev="http://www.w3.org/2001/xml-events" xmlns:xlink="http://www.w3.org/1999/xlink"><defs /><rect fill="white" height="103.72182530167795" width="109.39419381267483" x="0" y="0" /><path d="M26.622940352537178,25 m0.0,0.0 m12.796897099979043,5.412857153242734 l0.04510276085467023,0.449186331877449 -0.12271835783760034,2.0597501267457865 l-0.8076160120429371,2.541144179412727 -3.7703390713779044,8.269108501342338 l-4.405729249802515,7.323377131296844 -5.358537522309934,6.974519829504568 m10.015021862548576,-11.48214693375535 l0.4372399799316768,0.8779097134370525 0.11483478703450756,1.1871611669950315 l-0.20776362649936092,30.10895810157877 m13.23640591032123,-45.71093150306684 l3.3484057402413514,0.16265890215348 17.906620748376618,-1.7568728295729321 l4.173093404448564,-0.07932161174000206 1.9017940523522705,0.21537692709372488 m-27.76894109327037,7.014193633178986 l0.7767361332137818,1.3415808891791883 0.18368965041093435,15.448778851626887 m0.5500681242651617,-15.596502363092776 l25.293836843762687,-2.1742641741605047 1.8558452349776757,0.311411534847124 l0.7449231101726413,0.8668127236734533 -0.2897290676112707,13.990259842735894 m-27.453564024764834,-7.407632342528634 l19.5121870600231,-1.953169561778087 m-19.321676023360183,7.4872605893106075 l19.348731155393377,-1.5255872343209405 m-8.566325577634823,-23.639631474047302 l0.8588251720865409,0.8039158976621986 0.4499208810513039,1.4222151686532638 l-0.17660961378875398,26.359124932279794 m12.184340725157194,-29.258747282764322 l4.29221198891042,2.452472789598815 2.4197284779550468,2.355781528303737 m-38.84612107002441,30.862996884632594 l3.0140531951469067,0.3440046292633958 34.6371039243295,-2.6809102103378932 l2.9073421015957868,-0.11768140210421285 1.861963645921992,0.3310983780285372 m-13.350001968263179,-4.4073082094053255 l0.6194529825554266,2.3706130439142568 -0.346864082483567,20.007380730647196 l-0.5461737412078504,0.8307788773629171 -0.7641101146006704,0.21048698323916223 l-0.905267274132539,-0.2672112855496195 -1.8397338510226384,-1.3005833945925416 l-1.3062357813651961,-1.3432627297189461 m-15.557631659635858,-8.896287459712871 l1.4140556223226737,1.1113442781830745 1.964745626398375,2.124396079958568 l1.9215800663574314,3.12077164988503 " fill="none" stroke="black" stroke-width="1" /></svg>