<?xml version="1.0" encoding="utf-8" ?>
<svg baseProfile="full" height="103.29882909341171" version="1.1" width="106.53036104352226" xmlns="http://www.w3.org/2000/svg" xmlns:ev="http://www.w3.org/2001/xml-events" xmlns:xlink="http://www.w3.org/1999/xlink"><defs /><rect fill="white" height="103.29882909341171" width="106.53036104352226" x="0" y="0" /><path d="M25,25 m0.0,0.0 m31.158314504751516,2.5645871971169747 l0.005745286243555041,0.493635748886254 -0.6333482744864538,1.7634734994595604 l-2.2911181488597725,3.087647354345118 -2.9538275692060045,3.417574584869577 l-3.6327610596733417,3.7815554489814915 -3.540887408019051,3.240377790676773 l-4.112465495098662,3.1155912109662625 -4.605852620788485,2.8454762086194862 l-3.8892260532982474,1.9827619626836694 m25.693764211652514,-20.616088218437607 l6.922892715087572,6.151404281703685 11.554558418727975,8.155844175713371 l4.071329505661855,2.1092656978848123 2.7832430308272986,0.942877026215983 m-35.74441024946316,-2.808551469819096 l1.931803191205136,1.6302010791893136 1.8037821982704383,2.2779247431508423 l1.4647474033927899,2.3915966951107417 0.6415367437327044,1.8365320638592875 m-20.4008365833539,4.776441895900801 l1.83859520126529,0.5309690853201435 2.3357043413057563,0.0670656937279663 l27.975862016525124,-3.275592427008221 0.9870218400420459,0.28214514618828535 l0.42182909373271193,0.46364585547574155 0.05143314894641947,0.6108426037448178 l-0.42445130879157306,0.6611552716818753 -1.1768707785695398,0.8468596404549383 l-16.731466487677736,12.738538921591266 m-8.086932945383138,-3.4054663140995802 l4.023436352805629,2.1894256888509798 3.6299852370323693,2.7057777148376583 l2.993811711500901,3.054841730104008 1.7841634708610628,2.6884915054645186 " fill="none" stroke="black" stroke-width="1" /></svg>