<?xml version="1.0" encoding="utf-8" ?>
<svg baseProfile="full" height="106.37142242244032" version="1.1" width="106.14737247570054" xmlns="http://www.w3.org/2000/svg" xmlns:ev="http://www.w3.org/2001/xml-events" xmlns:xlink="http://www.w3.org/1999/xlink"><defs /><rect fill="white" height="106.37142242244032" width="106.14737247570054" x="0" y="0" /><path d="M25,31.07129073082869 m0.0,0.0 m18.347721943014328,3.4361454275740466 l-0.016904979333500124,0.5556331558658119 -0.1577201101271751,1.6259042693448946 l-0.4624133852138987,1.7471056374924776 -3.2444486047957666,7.724924409041701 l-3.9321959012529195,7.228715192296831 -4.740596122542826,7.170495834556781 m8.774898051799783,-10.946851012555722 l0.43820742738447416,6.833306794583695 -0.32393590196614946,24.924751983411113 m10.10331226054423,-47.38719023413548 l2.8264302959704626,0.42249626811778646 20.20637604817484,-2.108414758714595 l2.6276063632650595,0.22885772279510253 m-13.938664515119722,-7.527171420503135 l0.5269992438781727,0.7912486882597775 0.313109471535499,1.4054157012122876 l0.06814791860134486,14.679171025167507 m-9.78921646525678,1.3715300722162593 l2.1301890526718044,0.13214579425059042 13.575672844292576,-1.749815844300212 l4.512914181981424,-0.11618481322212508 m-21.895839739680717,8.258948741011773 l-0.5908267825058614,5.12197509518317 -1.1963138461798037,5.753081621655505 m2.236625050037141,-9.338833488094679 l18.855407967301716,-2.7122558908471825 5.119569123206135,-0.42106011129478654 l2.1226629760622195,0.6496678232800499 0.09534614797592295,0.6609840430272024 l-1.2578217985358802,0.8434017304043434 -1.9901994616076752,1.6730172122638136 m-20.035958271654668,5.831431102050684 l0.522735153134937,0.8101881750755836 0.21247241501444908,1.0236997254440554 l0.007739217551592551,12.162170542092818 m0.35547638327541653,-13.196983067924132 l14.26857569387912,-2.196993095449856 1.5014516978243937,0.11354284708443055 l0.4862663148501176,0.3334464175521741 0.3496498836494159,1.1315470371035492 l-1.0589993994515035,12.133772501177615 m-14.96742043443515,-6.026951302197028 l15.399966087152725,-1.5580568856567172 m-14.698098767891441,7.528706156390596 l14.0928472769211,-1.2652638350824286 m-21.288785585252164,8.340773327618196 l1.7800937403537653,0.3519807225593774 3.4797603285521927,-0.11938037670047287 l20.408256718281827,-1.3149258715336445 3.9690879550975167,0.17234796897712726 l2.0181573152684367,0.3076054047032394 " fill="none" stroke="black" stroke-width="1" /></svg>