<?xml version="1.0" encoding="utf-8" ?>
<svg baseProfile="full" height="98.74998909809457" version="1.1" width="96.51122617195992" xmlns="http://www.w3.org/2000/svg" xmlns:ev="http://www.w3.org/2001/xml-events" xmlns:xlink="http://www.w3.org/1999/xlink"><defs /><rect fill="white" height="98.74998909809457" width="96.51122617195992" x="0" y="0" /><path d="M25,25 m0.0,0.0 m6.863419859846509,19.438581162721604 l0.34152347297931024,0.09480936641165588 1.2531964389479193,0.0705532349930799 l12.630399991613247,-1.639846238781544 1.6894798743361745,0.11705875303910182 m-8.29998527959483,-8.898414968317665 l0.71566809768642,1.4037406641859096 0.11584643479457689,1.157156427924867 l-0.007712467507757902,37.00635069591757 m-0.534778331695215,-26.75865939714948 l-2.0185847953833522,5.568885929459822 -1.7361314547148992,4.128178263867103 l-1.9898145688225017,3.817035113447568 -3.0131343572723877,4.37823260940458 m10.606630023599944,-14.131020357371646 l2.2678123873738922,1.9491107572813173 2.6138380163007744,2.8562349880927385 m10.57488649457683,-15.926970021670451 l0.9944799045061062,0.542294102190258 1.20173478776841,1.188383309276717 l1.1111203599926336,2.427722088921571 0.6232855828920113,1.7185769710529815 m-11.959174965561283,3.5438449531314213 l1.943753745183139,0.2407522992394289 16.820310919942536,-1.5868348129536625 l2.3248568073667863,-0.06285862068140848 1.3782991928049177,0.25103197950326406 m-20.107243544294942,2.2524511269609135 l0.9322790649497027,0.9576782301368167 0.5022424685847726,1.6019596963606257 l0.5401305788246067,15.501630386059194 0.50098553150663,1.0985405985273584 l0.7305363210160744,1.0015728880879666 1.0054842918676572,0.7062635096351849 l1.3298767549396169,0.4038563423485718 3.1011763727755812,0.20149221852231614 l5.873133975737647,-0.18262283429804646 2.821509565676266,-0.3664522610039409 l1.5320594730918036,-0.4878969453692595 " fill="none" stroke="black" stroke-width="1" /></svg>