<?xml version="1.0" encoding="utf-8" ?>
<svg baseProfile="full" height="109.38257105315711" version="1.1" width="105.31924845442313" xmlns="http://www.w3.org/2000/svg" xmlns:ev="http://www.w3.org/2001/xml-events" xmlns:xlink="http://www.w3.org/1999/xlink"><defs /><rect fill="white" height="109.38257105315711" width="105.31924845442313" x="0" y="0" /><path d="M25,25 m0.0,0.0 m20.222292465441367,2.6968564229389678 l0.03814949555648814,0.6170633531274523 -0.09653171363667551,2.1044800268813666 l-0.7048252758221691,2.787946554170012 -2.8282916959418007,8.821090510726371 l-3.244864227461983,7.758532678528108 -4.054078994832196,7.546130027389097 m7.5954191976779235,-12.898453277906269 l0.3599130876962739,1.0653763943592753 0.09780800748464165,1.4305983865532486 l-0.17215678254571856,36.79552834089661 m7.989554056619377,-47.96267919044008 l0.7782406654202236,2.463676833079318 1.016479467859347,8.13878050247403 l1.150854375803366,9.623279428226878 0.677608947453421,7.393516065892969 m-2.3508638732826332,-32.221534276704865 l21.03972940763587,-3.090697827349088 1.3421705181236625,-0.012241709058164109 l0.9872658343430221,0.6185059140258067 0.4656632556206261,1.172439320162736 l0.08143723620821465,1.441386070413482 -2.3536205517744486,24.09987485512167 m-19.378036818398197,-11.779507265394688 l15.600841767234776,-2.014366095123207 m-14.970281393343416,15.364416218205312 l18.88937746818866,-2.290707928944879 m-10.294260921067945,-21.03144177880324 l0.480721168692184,0.8820341437376986 0.33423716664613967,1.9510617320793935 l0.07110784240958802,45.97417259732936 m-10.248373143902972,-14.341961657008845 l1.8288425340834393,0.2990753278497898 17.043598283428015,-2.1123699203692725 l2.064754511063596,-0.09847589049781255 1.398016692803335,0.294714848483049 m-27.794569736068432,17.480285979501684 l2.5702479710182957,0.4161853386038351 22.909561752139574,-2.3494119034190093 l4.719314988418783,-0.13795392275500373 2.0567954174314993,0.36256344908726634 " fill="none" stroke="black" stroke-width="1" /></svg>