<?xml version="1.0" encoding="utf-8" ?>
<svg baseProfile="full" height="114.14697304471258" version="1.1" width="102.3130202741852" xmlns="http://www.w3.org/2000/svg" xmlns:ev="http://www.w3.org/2001/xml-events" xmlns:xlink="http://www.w3.org/1999/xlink"><defs /><rect fill="white" height="114.14697304471258" width="102.3130202741852" x="0" y="0" /><path d="M25,37.17246966282685 m0.0,0.0 m15.280386732061014,4.209004352728849 l0.03782611599833575,0.5068483645094035 -0.11073419066675708,1.896506522552104 l-0.7077878550770635,2.3722389836006985 -3.453796547035112,7.7298872934001635 l-4.132300909532447,6.907283502852315 -5.131442346335819,6.63329348782707 m8.987834566753628,-10.068359483954644 l0.3868718326600848,0.8207968786059062 0.09882214156128707,1.1445446461129924 l-0.20469706133578947,29.822458833650867 m10.229803812486772,-41.938325395165215 l1.734363395976753,-1.954419465654257 10.470124970858237,-2.066522946711177 m-9.91622555740865,-11.572348083366085 l0.8543214675961542,0.8171004922729426 0.35179921385157187,1.0172352960425979 l-0.26265192577492724,28.20870832590223 -0.007204500423000188,2.391301280160046 l0.18158063822435205,0.6770797286150196 0.5151779697564133,-0.011059570608191203 l0.8297759567154287,-0.49983858320598606 7.315583765338692,-5.61880256175008 m4.488427093646208,-16.6434395580867 l9.846840767588395,-1.5247135497968933 2.2568563368937347,-0.12273606398309228 m-12.889332218480076,-15.306192389377733 l0.6780622407686197,1.0206204182134997 0.29523860441261607,1.5117667855598067 l-0.2676067523342459,20.234006983084114 0.20358193969531385,6.377100707600742 l0.8031846711057378,3.968811295236348 1.325237536151699,1.2178400999908026 l1.8049923306101814,0.40003541534579695 5.4525046985042085,-0.04345048346350484 l2.474545818159571,-0.2995992779756049 1.4411357763641155,-0.549103712993095 l1.0519197448499813,-0.86834845133641 " fill="none" stroke="black" stroke-width="1" /></svg>