<?xml version="1.0" encoding="utf-8" ?>
<svg baseProfile="full" height="108.66073631469054" version="1.1" width="115.74103087943959" xmlns="http://www.w3.org/2000/svg" xmlns:ev="http://www.w3.org/2001/xml-events" xmlns:xlink="http://www.w3.org/1999/xlink"><defs /><rect fill="white" height="108.66073631469054" width="115.74103087943959" x="0" y="0" /><path d="M25,25 m0.0,0.0 m20.599843611030835,4.601919412791343 l0.034268549188462456,0.5299838266721654 -0.09232280073908382,2.1869445252642916 l-0.632175616087628,2.7450517838996222 -2.937280567810048,8.82943922302668 l-3.628198472885137,8.151481448904475 -4.279222681327979,7.633264281600305 m8.148461498728413,-11.811450388512778 l0.37924724186899256,0.9420967675093941 0.09797871349732631,1.2461182612595962 l-0.17743542838392273,33.5169843746691 m19.653322424537762,-54.57807490416866 l0.5911957177858277,1.0525326728020579 0.2430216135571401,1.0773247507253405 l-0.06433722715811563,5.979664488756327 m-12.873600929583958,1.5352534398618327 l1.5772936123172403,0.2654994912347137 2.880684897719749,-0.14319238490712657 l17.11608096149061,-2.3348621515473 1.7219489174314473,0.1958192482712808 m-20.623160254562094,3.269508336185686 l1.878839564635543,1.841364496544799 1.576828896588022,2.6200866265786984 m12.315416962822807,-6.208098805533898 l-0.07125132276607571,1.18942308962325 -3.0496489434978904,5.501768935881166 m-16.018047731720472,2.442716240711353 l1.3343566351545517,1.4723219030855001 1.9182866776363272,1.9894615756334795 m14.711892977172138,-5.114314256091627 l-0.059392240486921315,0.42068166053504225 -0.37440891286027483,0.9916715741735712 l-2.6667611763642594,3.9542161596493997 m-15.660921748472447,3.4031716811178523 l2.2737921402873114,0.13737838475697026 12.781433882584071,-1.6094879373168096 l5.194844625358158,-0.43514701217514357 m-20.096964015594402,8.357975793624801 l0.6961962671460167,0.5838907586547923 0.5779266410188427,0.6754852516260419 l1.9216996663962411,8.161259128079795 m-1.486308068808712,-8.78024513230295 l13.849175333978964,-2.2412984339452167 2.369000580633916,-0.04805296254100457 l0.49389785459864904,1.7054691433976465 -2.1266842394248653,6.830118515958827 m-12.5442794781647,2.0867594832532324 l13.900490494778428,-1.6438966180675643 m-16.805873000939055,-34.12572937598602 l0.5467785079403507,0.929575253526931 0.2812906144143514,1.394058239295003 l-0.06290634136447368,44.002755093704 0.258256136485558,2.0567854531629317 l0.5134570202774545,0.7886941527812871 0.9953346332044457,0.32705081607891046 l3.176628498341001,0.11156093291714221 5.295231570417436,-0.2542797064264595 l3.285672453197047,-0.5994409456531068 1.3638753786518172,-0.8017141308950066 l0.9006740048760404,-1.2452502712738005 0.4313189079694946,-1.6537106069136158 l0.1283771611530551,-2.6507533110175268 m10.736388281273927,-42.48560916256373 l-0.14613062134640442,2.2855134031341304 -2.500293573785675,6.856162715388314 l-2.956990514355835,6.246746045514411 -2.9060316836080355,5.032717153647546 m6.44892868755872,-8.68362495065035 l2.0631640415232564,0.03670857465106585 8.644955976068557,-2.2084648240166076 l1.5570434551123646,-0.13918378654699837 0.49475931107598636,0.11947214812210505 l0.48893899673707203,0.7791742346949155 -0.4335235835861888,1.3820335902856444 l-1.5561180491468323,2.4926299747388083 m-9.90002001632356,1.3946487821981097 l0.4539829956142475,0.3460794661580451 0.3534476586244288,1.1588466153054233 l-0.08609404187070507,7.622922482068317 m-7.755388755761855,1.1635053644073772 l2.752268079197372,0.15799501802387073 15.676459978088305,-2.429698433527628 l1.7047213984088077,-0.08694739211326312 0.6250081164237392,0.26825582881010224 l0.29841409564856464,0.4996325239092682 -1.2771419923178622,6.186878043291909 l-1.6631889878753428,4.252569795961148 -2.191816084052859,3.9264838318299797 l-2.4594238712901824,3.0390571149707584 -1.5021866070896341,0.50426802979592 l-1.7277693646444283,-1.002276865687779 m-5.748093868870814,-16.406037464578443 l0.4683583162317238,0.8699237088717517 0.156253485296177,1.2627215820618425 l-0.08343983743413591,21.977458999538428 " fill="none" stroke="black" stroke-width="1" /></svg>