<?xml version="1.0" encoding="utf-8" ?>
<svg baseProfile="full" height="106.17005609897865" version="1.1" width="102.92234010709124" xmlns="http://www.w3.org/2000/svg" xmlns:ev="http://www.w3.org/2001/xml-events" xmlns:xlink="http://www.w3.org/1999/xlink"><defs /><rect fill="white" height="106.17005609897865" width="102.92234010709124" x="0" y="0" /><path d="M25,25 m0.0,0.0 m22.083242987553902,7.900017986082515 l0.04778612545248849,0.46341566864216843 -0.1082589355076359,1.5106222671118048 l-0.4116659902285636,1.4236189149705538 -3.5424795656769974,7.15020695478211 l-4.082577977962913,6.303925816187791 -4.7262921872191415,6.346861611165345 m8.345877148779381,-9.084743786427 l0.48163519460907833,1.2259406653215235 0.12091544484739351,3.38264349173802 l-0.12177290617648835,24.9672506304662 m7.4832390775881645,-37.974010082385796 l1.67109782155368,0.3308897121246565 18.677886547925883,-1.9242291860137266 l3.063830399291582,-0.08495077544484926 1.448333709588654,0.2702796015169583 m-19.2236797611641,-5.780943529066371 l0.7178654047087374,0.8628360259133202 0.23780771316956656,0.627433669051325 l1.3258450057228048,13.097520847118739 m9.193746187968262,-15.272145331336413 l0.4702906129311606,1.4729058075461154 -1.7804545440803146,12.688425636818936 m-16.801573179768766,2.166879091066514 l2.262071155697527,0.23339937351385198 23.97691505412978,-2.1171147682898597 l2.112709563358106,0.23641874708663968 m-26.758627945425555,3.0595060934224794 l-0.6498119601367242,11.876815686191856 -1.1685335630336844,6.837101696789582 l-1.8152216993452321,6.397493546497903 -1.0481945164675712,2.4502432742854428 m8.9299597289867,-21.79667788475597 l0.13028206577529336,25.517971285422163 0.17033421260710835,1.4042473418641237 l0.2218717235264371,-0.10666708865152263 0.5399631112303033,-0.46500854792047297 l6.439111516799028,-6.254054372846822 m7.525417738434618,-16.084905485951985 l-0.0445535017057506,1.0049679630341863 -0.6330362531662382,1.351491268003296 l-1.2783460976871186,1.9377078702134702 -1.951616177928824,2.2702440403323068 m-6.468338173037448,-3.6196784827279695 l1.4406347245152158,2.708190457567226 6.016924493033209,9.993430985961709 l3.5399810805141056,3.692297424401366 2.80122704598517,2.0172422595084774 l1.32044606624157,0.49520797409338135 " fill="none" stroke="black" stroke-width="1" /></svg>