<?xml version="1.0" encoding="utf-8" ?>
<svg baseProfile="full" height="102.7517313664203" version="1.1" width="104.65095969943177" xmlns="http://www.w3.org/2000/svg" xmlns:ev="http://www.w3.org/2001/xml-events" xmlns:xlink="http://www.w3.org/1999/xlink"><defs /><rect fill="white" height="102.7517313664203" width="104.65095969943177" x="0" y="0" /><path d="M25,25 m0.0,0.0 m18.7657335567603,4.857390880997451 l0.026776007881784344,0.4350512780360109 -0.15245933182265783,1.7173249836175775 l-0.7495220457771937,2.1793839882678903 -3.338624580362267,6.862855725554804 l-4.001970716688869,6.24962733844464 -4.835799440564576,5.903765680855089 m8.764039510000936,-9.473414141314086 l0.38710915611053276,0.7341662402410082 0.10762967675952495,1.017528019066743 l-0.1877290664265295,27.012449792842503 m21.10613307891774,-43.997124726547774 l0.7676472700329741,1.6099294707955847 0.01185844318732723,8.519825726598715 m-11.08267212143224,-6.333036252683491 l2.6551944643293135,2.3997733129871346 1.363432544557509,1.4809679377812897 m18.338887295946424,-5.922906242716193 l-0.25479222173052846,1.1765402588110387 -1.2174141762212913,2.070497274997092 l-1.5497844955046507,3.55809955246406 -1.340907352072731,2.4955086265655613 m-21.770395856538798,2.248674608832585 l-0.8396587413751602,4.305377002464064 -1.354734139233102,3.9842554419630902 m2.8187801107789547,-7.97611950082383 l18.071047318573267,-2.087680217328684 12.041631967111801,-0.8937470014617058 l1.3197672233680298,0.12798701445788743 0.6724991552034572,0.41236346587609873 l0.10925720566248599,0.6166835672010753 -0.8458117922902412,1.4905428499787483 l-1.8713826625329961,1.7969276161940224 m-23.43199819681498,2.1260263965472257 l0.41979435374046004,0.3477480343645653 1.442490982391277,0.7439174431353588 m-0.6710049814231852,-3.5602107790362614 l6.623403350800003,1.9974510112896693 7.4230244978383375,1.051135042337872 l1.2241410873501244,0.4089919571001411 m-19.276169642451748,3.0841464419133127 l0.4436328144292141,0.6126267592651661 0.2597753868234524,0.9111126815905325 l-0.0087649052629785,18.057537156961814 m0.48319956831867306,-19.010962397938773 l14.503284138117465,-1.2511996640452796 0.7950045509065878,0.023526684193412375 l1.0027749319048824,0.5049037825255287 0.37208625645906196,1.2350137809932258 l-0.0970056618859498,17.552587240753287 m-16.259262409721064,-12.119879770701392 l15.763786080242658,-1.2134905258980386 m-15.80450757361213,6.852466127213011 l15.733252574376541,-1.0143119640409115 m-15.79927007424174,6.708225930916464 l15.782218534325922,-1.0251757717390135 m-12.177384502670238,-9.257042688587301 l0.43956625099861407,0.7453605841289043 0.08627810545749408,0.9904597232393233 l-0.0776912296801168,17.509953105737708 0.22404989015998483,0.7318067414577019 l0.43707909268971396,0.37978538577126575 0.9835068144437339,0.049753343955786164 l7.976888265284013,-1.4472446175154101 10.992132243481917,-0.8857292702555005 l2.4847926337898127,0.3076641799199946 " fill="none" stroke="black" stroke-width="1" /></svg>