<?xml version="1.0" encoding="utf-8" ?>
<svg baseProfile="full" height="106.30767206662897" version="1.1" width="102.85888397588457" xmlns="http://www.w3.org/2000/svg" xmlns:ev="http://www.w3.org/2001/xml-events" xmlns:xlink="http://www.w3.org/1999/xlink"><defs /><rect fill="white" height="106.30767206662897" width="102.85888397588457" x="0" y="0" /><path d="M25,25 m0.0,0.0 m21.044338068403928,7.01581674878618 l0.03811922725526665,0.5017629690895722 -0.19461680611916893,1.8235720428697795 l-0.8571370764750567,2.9708631939531602 -3.0851611979031888,7.267762921453318 l-3.9155258839826046,7.016887569146297 -4.70788529811527,6.9171420593962925 m9.227929066454184,-12.033831441033866 l0.5341181188346938,0.9140803403096799 0.2316197297959557,1.1772994598874673 l-0.0042341748423009255,32.736316202771086 m6.913594093761191,-39.97361052342458 l1.2483995718551,0.2429438648838475 2.0652936276702425,-0.00783589570094036 l22.233823569119373,-2.5958736618759324 0.8036781188891384,-0.07479070667270736 l1.28253122128308,0.738132046836282 m-15.043303229081019,-12.077841936225896 l0.5907571268800587,0.9231830484128913 0.3477569472876384,1.8069387128853138 l-0.055817877831033626,24.09264185593843 m-10.207996472126919,1.4175969933611234 l2.6402440406481134,0.17167666671803875 14.214969493819337,-1.9394776230398985 l4.138245246749464,-0.23018604753976332 1.6532342675095661,0.22968553728721325 m-22.817252737692453,16.618368898499895 l1.1483949739066714,0.2753150249231867 1.8009612503506174,-0.04000493245418929 l16.868969583873398,-2.1206671535660324 2.2841103776154648,-0.0761378891198875 l1.6923235371902101,0.23889651516377433 " fill="none" stroke="black" stroke-width="1" /></svg>