<?xml version="1.0" encoding="utf-8" ?>
<svg baseProfile="full" height="109.16830338478425" version="1.1" width="108.78436637725068" xmlns="http://www.w3.org/2000/svg" xmlns:ev="http://www.w3.org/2001/xml-events" xmlns:xlink="http://www.w3.org/1999/xlink"><defs /><rect fill="white" height="109.16830338478425" width="108.78436637725068" x="0" y="0" /><path d="M25,25 m0.0,0.0 m20.11073927943818,22.242682924556796 l0.28927565522953563,0.12677224501613443 1.7438363215820865,0.09858122565434613 l10.449224402615366,-1.693621695456631 1.4025936759361417,-0.004966505374024688 m-6.689669234598946,-12.352580973082334 l0.8275220617677816,1.0242603715736596 0.5306638845783185,1.758667634889756 l-0.16978362890505988,44.41650333619151 -0.1617112860552504,2.2785441297070417 l-0.39312816475950824,1.0995920157374561 -0.5656023068899183,0.17386867537053624 l-0.6616646788494452,-0.47243837806078887 -1.6843650205630079,-2.171023552609448 m3.461862104525824,-32.3900416759086 l-3.0382376821493775,9.827611328898561 -1.7112987676548408,4.165589882805205 l-2.555090270300187,5.258042678108695 m9.123542049750727,-15.00995327857874 l1.5338316851286848,1.6963001683803247 2.440336680375934,3.3481527393491173 m2.61132251636741,-21.079866108224 l1.0748241904935356,0.2059852494510147 1.5726225375632343,-0.06141131142690932 l15.41540021953993,-2.131841330192977 2.3623244721552883,-0.14622737756524992 l1.4649956809282554,0.24348369998052477 m-21.45778502769667,-5.177924871146569 l0.9095383799757258,1.3001688545369283 1.186331010690261,10.830392409372479 m9.86043448055782,-12.657152041729589 l0.35767488004840764,1.8531905494704632 -1.5779711017807498,10.63891493434544 m-13.843492534164465,4.76478067665965 l0.37100333075137276,0.7383056647049194 0.30013163931497333,1.9347960657454466 l1.093301000496124,9.020800253977823 m-0.9163167385022032,-10.70485584376421 l6.40235430985723,-1.9859463445435912 1.1115860546704874,-0.17918813444805756 l0.40741129261925246,0.20901907412024012 0.2070456023206907,0.5080573341170628 l-1.2248703591255963,8.407292092136341 m-5.6992572772809655,1.123527385997605 l6.457404967901528,-1.0918329217872091 m3.2402747113936607,-9.407430964233802 l0.3837418316882323,0.5526628766684517 0.43693209843144076,2.0024787826905164 l1.1080399510539654,7.766750630083374 m-0.941304124035681,-9.032243490468352 l4.298805791098961,-1.288058911823831 3.0847207503157175,-0.4641569847390177 l0.39576710571462576,0.8540108069589333 -1.2917794987720728,7.522428890651576 m-5.652002099342784,1.1567858964222986 l6.530005069405839,-0.97827599868145 m-16.59143442767382,6.67538537768529 l-0.23777625352800777,2.0260022218317806 -0.4007557266900827,1.9406765972927604 l-0.9369657161830436,3.0974449506435757 -1.2258981166952636,3.1851318773975805 l-1.647403774436851,3.2522362843817834 m4.297748797730371,-8.442366687313239 l2.2088229865164712,0.9242380738827873 13.86626945564037,1.1897242855568633 l2.582544656346646,0.31677385785621354 m-10.849834931982937,-7.422963543061962 l0.5043824256265186,1.5338811386498419 0.0005168852986397892,21.31153262144702 " fill="none" stroke="black" stroke-width="1" /></svg>