<?xml version="1.0" encoding="utf-8" ?>
<svg baseProfile="full" height="97.71492983559841" version="1.1" width="100.33075296403939" xmlns="http://www.w3.org/2000/svg" xmlns:ev="http://www.w3.org/2001/xml-events" xmlns:xlink="http://www.w3.org/1999/xlink"><defs /><rect fill="white" height="97.71492983559841" width="100.33075296403939" x="0" y="0" /><path d="M25,25 m0.0,0.0 m14.923513284545644,4.8609504992235975 l0.02097304057546877,0.43753616001307616 -0.23943740111790165,1.7983035241585648 l-0.8409938992626013,2.2657191590045382 -3.404448775002542,6.8457721036230375 l-4.128628325372801,6.375470415451643 -4.914262449429145,6.056107755583169 m8.876814277450423,-9.686576895690704 l0.39550265222939074,0.7709979424646562 0.1112207500540455,1.0541472330444384 l-0.1822916440081303,26.936501938722397 m21.498036738994745,-39.863106137866104 l0.8957458721609122,-1.3788093240765253 3.4892249660622445,-0.729602429420114 l10.729524549141486,-1.8961360046416946 2.199073525363391,0.3510331299479939 l0.09782440081170847,0.4396053526682839 -0.12717850803341477,1.3150338165670683 l-1.6330137942706664,4.9989225804169815 -1.5087328067398054,3.965751394800062 l-1.4339332482015128,3.117326146613585 -0.6543411523176562,1.4168979729913804 l-0.6166602704853051,0.9171099892855381 -0.5798503294894785,0.4279264733370042 l-0.5523163247888866,0.022626769681963973 -1.0639639375755716,-0.8139228131657953 l-1.271915558954673,-1.5720778848756283 m-1.7031497822035502,-10.926390655798587 l-0.054114999478356504,1.3621649776534177 -0.6708410458535633,1.968495019776186 l-2.19447448108309,3.647102712375309 -3.122607347513363,2.9972549034263483 l-4.428188441408399,2.916470191636869 m1.9618054615507714,5.896108186234313 l0.4322467953310662,0.7122131191860216 0.28187046809664335,1.382637791375877 l1.5661811351040549,10.880956968114024 m-1.204695120538194,-12.129740670372437 l15.747616242696312,-1.7615946416095591 2.4800159215979356,-0.08644022721932858 l1.1536025254017632,1.2866233180619076 -2.6029985463796423,9.50942959409042 l-1.0885082436922058,3.346892815779621 m-10.339992287211869,1.2950554095486848 l12.824060060935366,-0.9385544437070268 " fill="none" stroke="black" stroke-width="1" /></svg>