<?xml version="1.0" encoding="utf-8" ?>
<svg baseProfile="full" height="104.45854872658708" version="1.1" width="113.04306219616839" xmlns="http://www.w3.org/2000/svg" xmlns:ev="http://www.w3.org/2001/xml-events" xmlns:xlink="http://www.w3.org/1999/xlink"><defs /><rect fill="white" height="104.45854872658708" width="113.04306219616839" x="0" y="0" /><path d="M25,25 m0.0,0.0 m19.374924633307185,3.2318010558631336 l0.046661637865195636,0.500372086296072 -0.12216768654075105,1.643839696763313 l-0.8177966892868482,2.3092126207350425 -3.936286686131392,7.12801053953158 l-5.017055868770113,6.744118300937202 -5.84893747386198,6.371938120987688 m10.2159959952363,-10.21225962832718 l0.7023849756186354,0.8637100155440882 0.2952589700289974,1.0788668857567436 l0.008285483575454172,30.46734991032717 m13.441077034766495,-39.34023092270662 l1.5363930717012169,1.258454737212476 1.8409774957577973,1.9010969425468254 l1.5067621560734248,2.129576067671084 0.7858492286118421,1.7142489499096518 m22.979125843398965,-9.294976921302997 l-0.17881845582062078,0.9587948635562157 -1.6684917386153582,2.268355606915057 l-4.983315555079585,4.745131150432561 m-23.192333020008682,6.7048493995355525 l3.4172717213753483,0.28742558382091926 23.154526464721798,-2.299144071111885 l2.3830599997817843,-0.14392030502423403 2.397459071927249,0.17901211123985067 m-36.9016708081438,13.169106097129054 l1.7498262937195292,0.26251250144051813 2.5995109246653745,-0.00896034494499573 l15.445108566414591,-2.9283044056188428 11.345333773567559,-1.5793610382069372 l7.071615612023805,-0.6935053835432538 3.412527224288963,0.1345625762998203 m-21.870416114564655,-26.356597654910832 l0.7208146386107903,0.9719690800406922 0.3083070834100681,1.2366466062018961 l-0.07214727586524275,47.25893791822697 -0.2826513291434473,1.1181463710134834 l-0.5290733020431857,0.6001052270226158 -0.7282697186111861,0.0776583793275882 l-1.7625508770269518,-0.9189380217117639 -2.2904811441623294,-2.003904945527394 " fill="none" stroke="black" stroke-width="1" /></svg>