<?xml version="1.0" encoding="utf-8" ?>
<svg baseProfile="full" height="104.48442563139588" version="1.1" width="105.44074870435908" xmlns="http://www.w3.org/2000/svg" xmlns:ev="http://www.w3.org/2001/xml-events" xmlns:xlink="http://www.w3.org/1999/xlink"><defs /><rect fill="white" height="104.48442563139588" width="105.44074870435908" x="0" y="0" /><path d="M25,25 m0.0,0.0 m19.902444273501175,9.765021375926478 l0.03754688500302536,0.47907563424608507 -0.23973344070233266,1.740163350740636 l-0.8776232400326791,2.553338423607198 -3.2088801408232053,6.775759780389728 l-3.9242687075593685,6.369751549295089 -4.835107276760672,6.281739947959754 m9.198059981692648,-10.794506119704176 l0.5266548409819884,0.7781864541062934 0.23128305412938355,1.0632446581304984 l0.02103489379403917,29.4726505766983 m7.464259256672301,-34.884979452911146 l1.0921603680655583,1.0260455147776317 1.4565596779380314,1.7403871431749067 l1.407454300795015,2.0865684294390383 0.7598942667188808,1.74917857622009 m19.08780546391238,-10.646885075510042 l0.047180625244110666,0.818583192005049 -1.4759380674381821,2.0991737322683015 l-5.285677693053082,5.038254232436445 m-6.2825672920148845,-13.45383711424506 l0.3812339667785864,0.8373742911993484 0.1739872901248151,1.3215100270219948 l-0.38945470077321465,10.649141269916964 -0.9153255710524153,7.210094170659957 l-1.3849508896778568,5.430011381575404 -1.8966446186129295,4.336673188752044 l-2.372987136750597,3.454932086873338 -2.9492280072779122,2.8330169056071264 l-4.255574054808058,3.270171381022332 m14.632981059947193,-20.125064630285173 l6.364785200988657,8.13330709881888 5.527211872961722,5.867629058296083 l3.591418544890584,3.437179963755284 2.5978184005532645,1.7292626797178638 l1.232935317003102,0.274597403887618 " fill="none" stroke="black" stroke-width="1" /></svg>