<?xml version="1.0" encoding="utf-8" ?>
<svg baseProfile="full" height="103.52581879938114" version="1.1" width="105.51231854967094" xmlns="http://www.w3.org/2000/svg" xmlns:ev="http://www.w3.org/2001/xml-events" xmlns:xlink="http://www.w3.org/1999/xlink"><defs /><rect fill="white" height="103.52581879938114" width="105.51231854967094" x="0" y="0" /><path d="M25,25 m0.0,0.0 m19.83866599981471,9.388839302349222 l0.03770422525582002,0.4709982508199665 -0.26551989037827517,1.577439847185666 l-0.923507589425869,2.7690194328646864 -3.0079890682287096,6.554380714821291 l-3.6662643049865293,6.367258996352554 -4.380373267574362,6.222976096903259 m8.109845910257633,-11.09336248833182 l0.5758996273663382,0.8322884226968899 0.26081849711777155,1.653170416276142 l-0.029022695811483912,28.78280980744329 m5.298778841946779,-34.6056525651595 l1.6538169122302417,0.18349594430615115 2.3076984413682737,-0.0914926110284921 l20.492920883273154,-2.3203029793875785 3.841683535980186,-0.12731656166081012 l2.259071566446759,0.2996035187227712 m-16.37669865645699,-13.965412128242264 l0.6566521197492399,1.29768659523296 0.20515423351511478,1.1388375138649065 l-0.06321829685989258,46.26595427084015 m-1.0873916721013905,-33.75457575152174 l-0.3406428938000519,1.8157030680440123 -1.57202281490822,2.941958173101294 l-5.144230157967457,3.312826094083504 -6.770179054114032,3.1140927875693327 l-7.843239965587077,2.5011658043354044 m24.04701909663189,-13.179854305924904 l5.2940513141866505,5.0667431391754585 5.495234374468055,4.920241222797164 l3.481517213013166,2.8716149147377004 3.1260860852494976,1.9120599455277065 " fill="none" stroke="black" stroke-width="1" /></svg>