<?xml version="1.0" encoding="utf-8" ?>
<svg baseProfile="full" height="113.4966581566203" version="1.1" width="117.88498816593295" xmlns="http://www.w3.org/2000/svg" xmlns:ev="http://www.w3.org/2001/xml-events" xmlns:xlink="http://www.w3.org/1999/xlink"><defs /><rect fill="white" height="113.4966581566203" width="117.88498816593295" x="0" y="0" /><path d="M25,25 m0.0,0.0 m15.45353332408351,4.617160244359281 l0.028026815197223387,0.5538375195735958 -0.09387654175009129,2.0256000908110985 l-0.671530791996584,2.58513224945973 -3.277837108119234,8.510160825390738 l-3.94799177178856,7.8603378331324185 -4.470951466522945,7.747114108115507 m8.31730324768928,-12.129159952843812 l0.3581454301647681,1.0167525739802934 0.08841506260873139,1.3583079979920503 l-0.16727948658178018,33.92850403116962 m9.361245770613278,-52.52255638885999 l0.6846218633055986,1.100950035955816 0.2764602388010849,1.4329025864628642 l1.3669831737725704,30.120675793454215 m-0.8141117122778149,-31.844193185226167 l9.24811558496327,-1.821141543969858 0.6483423219822079,0.08022198917191557 l0.3837889831186704,0.5259304230818668 0.19461462839950058,1.6908850573687129 l-1.0808012499872832,27.841674680599276 m-8.428542631842372,-21.02798725298281 l8.748230102671393,-1.0053600160757663 m-8.784545545601777,10.298235676213727 l8.403502579363654,-1.0370312322602377 m-8.343162819789818,11.146759270281159 l8.587221065023307,-0.9882795151799352 m-16.531066566677872,10.623049053425843 l1.619209721558581,0.3889675346710787 2.237705566618704,-0.09718565257695606 l14.152051495789621,-2.1371157035099886 2.398169422493981,0.16501840832934964 m2.0593011630310776,5.108528093328388 l0.24600209301869194,1.698590089033411 -0.30513140144016115,1.072749764387723 l-1.8765716597381594,3.3511325066258015 -2.41630538471529,3.422991665551877 l-2.7797221444787343,3.0703986120357794 -5.624459213039781,2.6197834840288485 l-4.6020788122777745,2.144316402113817 m19.496890706115085,-15.461841520400919 l2.784208069461954,2.1731965720123245 2.3547798688531505,2.7092313144413502 l2.0418328668479258,2.888969418626 1.078045417178168,2.245574172359371 m3.428160149341073,-49.27916169318402 l1.5510014624353432,0.3273592997259771 1.9171861513417856,-0.12369943460350975 l10.50326305980312,-2.14788427774583 1.4136121493789482,0.3369243396404172 l0.3812870771327151,0.5512475574437797 0.11622861320410949,1.5555542453781617 l-6.151638637864402,15.404999391001956 m-0.1500020052949923,0.23931913923639128 l2.7627186744034047,3.071850522707018 2.0046694437817627,3.692356504669792 l1.1561953526052018,3.853408486822554 0.551526401565933,5.106602673020767 l-0.393664788870103,2.7590032259124744 -0.8361427461580051,2.3180455998504037 l-0.8324257693000747,1.146292872303563 -0.9899407763476328,0.6102484052604457 l-1.1577383665145313,-7.08900197665392e-05 -1.306906084921511,-0.6255973249868676 l-1.3445683975873115,-1.2236908334667724 m-7.246858692065797,-37.53076204185559 l0.00791204504988131,54.055741328961716 " fill="none" stroke="black" stroke-width="1" /></svg>