<?xml version="1.0" encoding="utf-8" ?>
<svg baseProfile="full" height="101.83165978774595" version="1.1" width="118.13491433732078" xmlns="http://www.w3.org/2000/svg" xmlns:ev="http://www.w3.org/2001/xml-events" xmlns:xlink="http://www.w3.org/1999/xlink"><defs /><rect fill="white" height="101.83165978774595" width="118.13491433732078" x="0" y="0" /><path d="M29.374819143516202,25 m0.0,0.0 m16.12425825401692,3.1103416737556864 l0.05095227989940118,0.5386458016110401 -0.1328829638386017,1.8706595973058386 l-0.8613909483366999,1.2801468977320214 -5.931510129645156,6.990109081314515 l-6.08905070715531,6.236002765688545 -7.5351949284567565,6.432411671145727 m14.000849152591671,-9.147754959669063 l0.6912062599658721,1.3784830561990906 0.15317441780121313,3.5115262682709356 l-0.5507389720132739,26.025158568636748 m17.0885308813504,-40.173768735787455 l1.8469156755317429,0.20133387026801702 2.8576178426331147,-0.15270696143653695 l25.470987447915736,-2.1957009294230385 2.3929342329209686,-0.12533915148598285 m-34.40646913214124,9.444866631972477 l2.3929851113622553,0.3697154660377991 2.2426992116187336,-0.03051327642148009 l31.629285952845947,-2.3755558873054143 1.8356198363595055,0.7015809226664884 l0.48931641857811004,1.165044512244494 -2.3100621079291472,5.8497552659866745 m-33.07087411844403,2.789788214558429 l34.1782162095485,-2.276004885565248 m-34.246995906360816,-5.313808236509382 l0.4047886368602273,0.8919687408715257 0.02905388563918296,4.585497361395301 l-0.3186522989403201,4.138051536056168 -0.8092075624671408,4.8005545024142995 l-1.1696238587351278,4.3156695124260365 -1.636671734792188,4.149150872669199 l-2.1716195405299734,3.9764451911205 -2.6965635493880162,3.7105237229668218 l-2.4918572369527454,2.6634259170861596 m11.961769659297108,-15.98405016781188 l0.7524250625089782,0.9267049727880784 0.2851497160614284,1.151517386797254 m-9.87619713026562,-5.890771574183023 l2.685118338907846,0.32594312912647944 16.65502932284072,-1.8670990011321182 l6.296668119048146,-0.1697865749849735 2.788575839900847,0.1910423466864324 m-15.48729366958598,-3.6154897066819958 l0.6256331688233069,0.660528052806561 0.2544067034162854,1.0990105452182641 l0.01611672906303909,8.812269651627092 m-12.367862354397356,1.3882104296496274 l0.6526857343035465,1.2537669882875369 1.951925804776835,14.214158710755681 m-1.7546625185813258,-14.58988033613593 l20.75024662662772,-1.9236488496381505 1.9877616549947146,-0.07797802425425912 l1.8041536827562747,0.46245829589027593 0.562663829601673,0.4178237643958872 l0.2765660700572521,1.1978200133434607 -2.2993372297302086,11.326212479497858 m-21.07041661219461,-5.7094863211586615 l21.511374542195657,-1.8328352673680883 m-20.38194409743981,7.724384379635648 l19.026963848499243,-1.4291925407832389 " fill="none" stroke="black" stroke-width="1" /></svg>