<?xml version="1.0" encoding="utf-8" ?>
<svg baseProfile="full" height="109.85186637305553" version="1.1" width="114.70705276072927" xmlns="http://www.w3.org/2000/svg" xmlns:ev="http://www.w3.org/2001/xml-events" xmlns:xlink="http://www.w3.org/1999/xlink"><defs /><rect fill="white" height="109.85186637305553" width="114.70705276072927" x="0" y="0" /><path d="M28.83344782154359,25 m0.0,0.0 m14.526933361725586,3.58378437996837 l0.05821587679442194,0.5101631206298288 -0.1485268054536721,2.056347067939445 l-0.7168776466989616,1.4122176743693007 -4.869704094696498,7.01730998519857 l-5.494375186611366,6.201407472105932 -7.1891133266031,6.377752295622421 m12.28541306356414,-9.14072270230009 l0.6392494266949857,1.5706611918942783 0.15454035726007642,4.210887082946417 l-0.5161636562033003,23.89475168237985 m16.170882897097062,-27.22568725830999 l1.6156912828210934,-0.7561252927486757 4.68631978950496,-0.7327906572800527 l19.261401256048796,-2.100082002962483 4.897865955379494,-0.34597912462377534 l2.7625291392020084,0.17753775161372504 m-18.712008494314688,-12.790797012840013 l1.0564924345628262,0.9490307594883037 0.4169817345751921,1.802365757904378 l-0.05176242084724584,43.52159425454483 m-0.8357241929842115,-31.921827082096243 l-0.4296479105147276,1.6279518992362447 -1.7620771982094143,2.6075735249957 l-2.8319737032667733,7.603110849684792 -2.357328639393687,11.384735152037461 l-2.5526887023436995,8.991293896334614 -1.9317548949511927,3.9262349928760667 l-2.2844982633327833,3.0404574344167314 -2.8454148705238285,2.398709280029594 m16.936543320505475,-29.48030511371969 l4.923161178667721,8.214319282413586 6.29621886532888,9.446440500503401 l8.255201013389156,5.953888812019121 1.4596039930129492,0.5654675582694928 m-36.07055120439373,-43.348150467349704 l2.4398711751447935,1.2765263394357969 2.734311922956241,1.8367847946585047 l2.3129567773556547,1.837321784546682 1.4452110486812777,1.6319979371297078 " fill="none" stroke="black" stroke-width="1" /></svg>