<?xml version="1.0" encoding="utf-8" ?>
<svg baseProfile="full" height="118.18412687419824" version="1.1" width="108.872358042313" xmlns="http://www.w3.org/2000/svg" xmlns:ev="http://www.w3.org/2001/xml-events" xmlns:xlink="http://www.w3.org/1999/xlink"><defs /><rect fill="white" height="118.18412687419824" width="108.872358042313" x="0" y="0" /><path d="M34.40958397512527,25 m0.0,0.0 m13.641741982273773,3.8610898574695818 l0.07477277149166527,0.5033964598299362 -0.08437143117335094,1.2516410970001663 l-1.1610227886672624,2.122325482152363 -7.675912867195686,5.606070382851691 l-6.030619074919575,2.9050494467772383 -7.626637039168133,2.7419626447761885 m1.199449504212364,-12.920753389239522 l6.408709486311754,1.584325676879826 6.735949248393372,2.878374905534815 l5.38701137405488,3.054791212948478 3.895072651340013,3.6167912705867735 m-24.17372779207908,11.494299807783403 l2.075724056127338,0.29641413374948966 1.9829374432947502,-0.09034275018103946 l18.484869641226116,-2.5316287823480246 2.764792738897308,0.014772818491035953 m-10.94345874818412,-7.470184404588786 l1.2641860962181173,1.5968578426620013 0.48287949772206074,1.324546181591674 l-0.24126424878426192,32.80091241940201 -0.278411576041167,1.9717810056317902 l-0.636261342042262,0.9856674539894 -0.8682743709568352,0.10834635710199388 l-0.9606011540904065,-0.5214606675358877 -2.2429960963240196,-2.275730466880781 m4.807453213494331,-28.602377710185042 l-3.6521795409480964,6.723993625812814 -3.0867279343638847,6.21200831091187 l-3.2415117264357685,5.303926104100879 -4.75123044137311,6.1549276700167175 m16.515388308955306,-17.981940054201065 l3.328179545081934,2.537851501256373 3.950844899751374,4.127624256284063 m12.47300538666718,-33.10390226488297 l0.09060550901219162,2.0036289291066542 -0.4513184300318752,1.8407614993398531 l-3.008750286045375,13.423719437640257 -3.007531499244244,8.019331888833072 l-1.8929737723262055,3.7578393454713543 m6.629620924212925,-11.760997431498645 l1.5097858414033065,-0.004283005198902072 15.155882914718083,-0.47593481886888894 l5.254556515485227,9.724565579639915 m-23.251432570346218,5.404714632938086 l3.640731788141108,0.1776677683665053 13.6418500310334,-1.3547165616874923 l1.8361127121176724,0.1207520458181395 m-23.87710737653664,12.127494826673981 l1.1156070437936019,0.32738099125901826 1.4685226908069948,0.024359281786262073 l21.207054970202794,-2.5400507982049456 3.35828820010295,-0.13005601062486527 l2.225509187921422,0.28167358780041635 m-15.384436734550272,-8.904560440178336 l0.5172378931437734,2.1411020305257593 -0.8449821470307171,27.698306659711584 " fill="none" stroke="black" stroke-width="1" /></svg>