<?xml version="1.0" encoding="utf-8" ?>
<svg baseProfile="full" height="130.63794151257505" version="1.1" width="111.53750451442815" xmlns="http://www.w3.org/2000/svg" xmlns:ev="http://www.w3.org/2001/xml-events" xmlns:xlink="http://www.w3.org/1999/xlink"><defs /><rect fill="white" height="130.63794151257505" width="111.53750451442815" x="0" y="0" /><path d="M25,25 m0.0,0.0 m14.321810070968054,4.9994130704545565 l0.018990114026143763,0.5475795524168455 -0.21231991802007175,1.7534024710313534 l-0.9696904877428969,3.2539389122544904 -2.8859356236294724,7.066486960834661 l-3.5755355606530297,6.767502091003907 -4.396873845608503,6.999160689557722 m8.307550863327485,-11.731096646676122 l0.5069582163264572,0.8176530030754728 0.24048424437393862,1.6440597714413465 l-0.027593152491454283,31.56643714801266 m18.036309762971303,-50.36118525306186 l-0.27403238095295296,1.8941731946441553 -2.15162242261726,3.8080587068329845 l-2.794992078834962,3.6358108941719034 -3.503249452953903,3.587647502079375 m8.513595143418726,-13.319918915741612 l8.323401664013113,-1.068660847786735 0.7617409885791551,0.0910479120020834 l0.4977271348992354,0.39787827362769235 0.24745265960098897,0.6133898752220898 l-0.11385803816287825,0.6228049661430975 -3.5151696413401567,6.159549206742388 l-2.324388804578524,5.485453818450228 m-10.74183797666943,1.62925110072622 l0.6723776218695745,0.2647332985444632 1.6595921121500308,0.045648641290110106 l19.288667359825318,-2.995285159485225 0.7563251870355822,0.8047077829951483 l0.10004861108222127,1.255775255976095 -2.0760651145996,11.51952994852726 m-21.92607128394829,-3.9826290646297893 l2.872771124051035,0.2113828941240234 23.344407750511536,-2.573883884925067 l3.203814643535884,0.22479406601741975 m-27.051144035721865,9.400905621797007 l2.5214633821686814,0.24479895539591642 14.114115670020698,-1.989230358911837 l5.333408588208813,-0.4414885264464408 m-11.958753406302453,9.412323349145915 l0.0318621424141319,1.0202311866713225 -0.8529908142913389,1.5524373885637013 l-3.5736961891909167,4.308804118551119 -4.498348894172313,4.438760703641816 l-4.913817587191485,3.6069550803312898 m12.59192451007317,-16.564560649895316 l5.29270616238339,0.8694892729105993 15.527233671996745,7.4577660089826745 l5.278280124487251,2.3927924049847644 3.510471699783224,0.8534630800055263 m-25.75904956831363,0.014726221527391406 l0.23356223889953195,2.0288432600930086 -0.7337842813886521,3.62655317215688 l-1.220401188459877,3.5898501035207366 -1.6503037993849097,3.3308079311534633 l-1.7641114843939105,2.593352853880669 -2.234481059783308,4.476070818125566 l-4.257610006552497,6.686237744478374 -2.03689558505502,2.2750405845379387 m18.85402971367317,-13.19594310335062 l0.4324600685418385,0.869253167150434 0.12741969259467442,1.1682789397188362 l-0.028384208860579012,10.67343892919956 0.25810168006031947,1.8739256009270937 l0.7777061300794974,1.3334345312899047 1.4277411088733776,0.7851811179325227 l2.468126770628465,0.3108307686118924 4.663252414971233,-0.02190960880390236 l3.0769145309176182,-0.44460968770833037 1.155292494577234,-0.45885358691071115 l1.2498448751028388,-0.999591629291265 0.5260963034099756,-1.4339730751668078 l0.12473175910784279,-2.0472313862149116 " fill="none" stroke="black" stroke-width="1" /></svg>