<?xml version="1.0" encoding="utf-8" ?>
<svg baseProfile="full" height="115.81599280600629" version="1.1" width="125.63990408378928" xmlns="http://www.w3.org/2000/svg" xmlns:ev="http://www.w3.org/2001/xml-events" xmlns:xlink="http://www.w3.org/1999/xlink"><defs /><rect fill="white" height="115.81599280600629" width="125.63990408378928" x="0" y="0" /><path d="M26.814703344815396,25 m0.0,0.0 m12.683981737199092,3.51583608635486 l0.09232143041042698,0.5634015463687373 -0.3354847892801889,1.5776360385787158 l-1.4227646346637275,2.334099735690716 -5.698892382687215,8.520627567829703 l0.08515037875326406,0.6745137110129586 3.3996976980904017,0.35101879339736075 l14.702073587730261,-1.9665919921544273 m-4.074949333955347,-6.259542708648154 l1.8672432023149572,1.285683982747477 2.468994350389057,2.3211817840231497 l1.6970315414972743,2.2267853950444567 0.8247567971750783,1.5725150318873538 m-14.051380784285607,2.5738793666330744 l0.6385668476463798,1.0597238038482408 0.11377122977628691,1.0549950807059012 l-0.023433339200313128,22.291765387559792 m-8.131755657410094,-23.867044847933407 l0.08106434312599095,1.0627371637794008 -0.41467682633202396,2.566096832793182 l-1.5190418201581948,2.8271054006673015 -2.095255161782713,2.6386461659138827 l-2.701721759168441,2.492856842892172 m24.48027943703484,-11.851781474699413 l1.5053948690572807,1.337556976725062 1.9593135353826048,2.3580597517845243 l1.3732824844103748,2.2776176743813377 0.7634396294104459,1.9749047598433518 m13.529582980799043,5.677608373366067 l0.08966804908390885,1.4078836125035756 -0.23638780073764057,0.8960498047637603 l-5.086308188793249,7.408889941070241 -3.901019998874216,6.762361239365778 l-6.517661661427345,8.885273004799467 -3.3135476179419086,3.8291674004004874 l-3.608791427794271,3.434475572709613 m24.97092736902584,-50.94750433642101 l4.8114889432031935,4.095178803354211 13.228835105104281,5.102890712836521 l6.857354966660461,2.586917064378236 4.734053410185625,1.7201173493790063 m-34.753483639389714,13.304792231186479 l4.4389206551609925,0.26331188165326574 19.080745981637598,-1.8023520675197127 l4.633302104400475,-0.20659870181930023 m-15.899046867541282,-11.089759643225369 l0.7867626798569133,1.057983142973744 0.2558926576029563,1.7093709215048365 l-0.07771160557401184,25.141222457004453 m-19.544439602232472,1.1487666549876208 l4.989728964923435,0.4023473721869228 26.82844291704889,-1.4466326710374922 l4.935031023807301,0.2858548790432617 3.385578435664217,0.5163587472191887 " fill="none" stroke="black" stroke-width="1" /></svg>