<?xml version="1.0" encoding="utf-8" ?>
<svg baseProfile="full" height="105.72589655490528" version="1.1" width="109.32622001353835" xmlns="http://www.w3.org/2000/svg" xmlns:ev="http://www.w3.org/2001/xml-events" xmlns:xlink="http://www.w3.org/1999/xlink"><defs /><rect fill="white" height="105.72589655490528" width="109.32622001353835" x="0" y="0" /><path d="M25,25.97249466511528 m0.0,0.0 m14.771565570797893,4.904019348466174 l0.05759713447586898,0.5259608608888311 -0.24674360700533007,2.0350784824986423 l-0.8978912564064442,2.612146597760141 -3.7168547365628504,8.0641444537449 l-4.405259475520797,7.1913072805219675 -5.245076218006764,6.913954301657738 m9.982025763709407,-11.261834727826287 l0.43831846966230137,0.9194377619205348 0.11227197233077868,1.2428320641023325 l-0.21685890434525026,31.606355466055025 m13.123040578195008,-47.914426690681005 l3.3448252383671795,0.24545061614737762 18.179195508108666,-1.969802715034356 l4.383457855622786,-0.1410335976146967 2.0201458684594935,0.24539441664538345 m-28.452465848096196,7.829432190357104 l0.8207861668772024,1.4857070751930483 0.1942970778282016,16.447763415462394 m0.6329911396735568,-16.532210945188638 l25.399782334322687,-2.443817630157469 1.8602678124375711,0.33029712515677523 l0.7653300725534393,0.9212173544611144 -0.2637990800643237,15.004808688191462 m-27.61026873857121,-7.872457892128796 l19.408329158086442,-2.064578857195204 m-19.273892677208337,7.889226026595786 l19.38470466860692,-1.65599010852666 m-8.561313207886926,-24.952473250568737 l0.847789390562819,0.8556217120413419 0.4562960485370679,1.504899265795575 l-0.16762242729102483,28.381592529899418 m11.973449147899101,-31.3205152837565 l4.353271002217229,2.6186458056574073 2.4474541171024113,2.5022383789188005 m-38.9160067839367,33.06267659865895 l3.0153985933853193,0.36352718720302185 34.58105964613083,-2.903408629394819 l2.885717338312508,-0.13514669073160776 1.8609053001778102,0.35510392421182546 m-13.252432332039135,-4.740213384649158 l0.6136415008015302,2.5154340289441555 -0.3504365915302968,20.817994329907677 l-0.5333548121992199,0.8655611096197691 -0.7551190583626934,0.22903141509255823 l-0.8972738750810152,-0.28264756597679935 -1.824567111134542,-1.3788457318386942 l-1.2372320040418294,-1.4421193169281528 m-15.299250419202307,-9.31336777582439 l1.3796648042739073,1.1733702439546572 1.941795416528509,2.2756276254423584 l1.8623845884841586,3.33412302949891 " fill="none" stroke="black" stroke-width="1" /></svg>