<?xml version="1.0" encoding="utf-8" ?>
<svg baseProfile="full" height="104.51804115259188" version="1.1" width="106.02668424213904" xmlns="http://www.w3.org/2000/svg" xmlns:ev="http://www.w3.org/2001/xml-events" xmlns:xlink="http://www.w3.org/1999/xlink"><defs /><rect fill="white" height="104.51804115259188" width="106.02668424213904" x="0" y="0" /><path d="M25,25 m0.0,0.0 m13.863088984474917,5.644344705041001 l0.05294826510675175,0.4586261005040045 -0.12610148429486553,2.0397795459172783 l-0.7118743918056943,2.580257933804413 -3.5198943712684088,8.157588299843626 l-4.1090624157253846,7.42921593478543 -5.076353848279887,7.159552397036662 m9.359616183815115,-11.258923503266137 l0.4119014935586417,0.8936583386581657 0.10516468872756801,1.2226904246006443 l-0.20451067180133836,30.152994006834664 m11.598921598760578,-45.97817096852046 l3.1194332315579407,0.17695120905037784 17.081292801970584,-1.8686663590455694 l4.099769167533921,-0.14509647819318247 1.8867085208465932,0.1959941110390684 m-26.108988188963366,7.133071812880335 l0.7586618165374233,1.3637006813091146 0.18376333984014936,15.548457092295905 m0.513304812066728,-15.66260753591867 l23.77673380880747,-2.225414757090778 1.7780161861536576,0.3249023652178987 l0.6909949146685381,0.8847311211071144 -0.3013209711360885,14.454249561090766 m-25.77810410590125,-7.629960128235056 l18.369291268424615,-1.9201529316339316 m-18.253385998764433,7.517721167718451 l18.276181025884306,-1.5333085168435212 m-7.9513897413887165,-23.54565147794375 l0.8101846024477513,0.8050032185546665 0.434597587314487,1.4430709584410168 l-0.16865257011900536,26.59347454730243 m11.529410647347033,-29.280518667322745 l4.207151245230094,2.566068709495514 2.321705733567494,2.4729185420453335 m-37.24357694849982,31.367761081219054 l2.914663498305207,0.3420882035194466 32.900048461373274,-2.721813825146097 l2.7556114007377586,-0.12510489137885603 1.7807346650287215,0.33167631633970074 m-12.69846333990913,-4.507614923725489 l0.5911044530170595,2.385326195596057 -0.31672211589514554,20.23647375635872 l-0.5061220022945814,0.831792420232027 -0.7288997316769047,0.20690535901724394 l-0.8614012957084929,-0.27254486418733714 -1.7769993183224446,-1.3312179392939638 l-1.1553675537837644,-1.3524705453203958 m-14.788240806002221,-9.012865398504518 l1.3279859497564994,1.168893057311229 1.8061430975695074,2.219865976783058 l1.7808500937325844,3.2469648830879647 " fill="none" stroke="black" stroke-width="1" /></svg>