<?xml version="1.0" encoding="utf-8" ?>
<svg baseProfile="full" height="107.40827774917506" version="1.1" width="113.46147373251571" xmlns="http://www.w3.org/2000/svg" xmlns:ev="http://www.w3.org/2001/xml-events" xmlns:xlink="http://www.w3.org/1999/xlink"><defs /><rect fill="white" height="107.40827774917506" width="113.46147373251571" x="0" y="0" /><path d="M25,25 m0.0,0.0 m20.886547959371857,9.062416740201078 l0.04167812246367642,0.4989438014299361 -0.1682987239132741,1.5673727340316352 l-0.937767345865545,2.2199516493706604 -4.116961313490043,6.8537572689310275 l-5.088012641168068,6.455931051399861 -5.814535231930754,6.073688812422655 m10.519426033785503,-9.802202588344826 l0.6460931320881997,0.8106070637617372 0.27434463021412053,1.0337273861746725 l0.01617476305337213,28.797128727100755 m14.316969456009051,-36.87124974793411 l1.4002288622996601,1.0856737005017398 1.7678058088459288,1.6649361095575292 l1.5971653907463634,1.8276875906838443 0.8544073151166645,1.55006736405958 m19.91445892710205,-7.759679779848714 l-0.24535901582248335,0.8905358617471067 -1.6796166019207437,2.001086964988629 l-4.789340779305212,4.023499025244712 m-21.922662016723233,5.862430807370883 l3.2220867460489298,0.20990504372336344 22.13909454893188,-2.260557879978896 l2.2359408641703786,-0.1620783925805442 2.208275157244312,0.1400016990769785 m-34.93822463904023,11.992124851179675 l1.6224812142669267,0.24204644796005537 2.3708109439213376,-0.0006325835349652525 l30.219880825545044,-2.2318875310434527 4.116133875701157,-0.08615473482037433 l2.79224746476889,0.22928802731238548 m-21.396550622068748,-23.63569647792362 l0.7089232331448987,0.8121813504589818 0.3198350604629627,1.46784497603944 l-0.08405523729661493,42.84558241045564 " fill="none" stroke="black" stroke-width="1" /></svg>