<?xml version="1.0" encoding="utf-8" ?>
<svg baseProfile="full" height="122.04384334845605" version="1.1" width="96.6941509962618" xmlns="http://www.w3.org/2000/svg" xmlns:ev="http://www.w3.org/2001/xml-events" xmlns:xlink="http://www.w3.org/1999/xlink"><defs /><rect fill="white" height="122.04384334845605" width="96.6941509962618" x="0" y="0" /><path d="M25,25 m0.0,0.0 m21.48664522505685,20.937199359847078 l0.5916678256784899,0.10242790784087966 2.942987868412371,0.02272381781165245 l12.698312889995783,-2.077633407497095 3.2419020573479926,0.07087813412358696 l0.26656486442406757,0.36576036723807287 m-11.236114861262486,-9.04223682132408 l0.6909070492341871,1.0107835369927947 0.2470092732262152,1.3763890485678067 l0.010590135656459625,18.282841947755713 m-16.244988151277845,2.298919164250073 l1.6946837268285042,0.28910381901257204 1.7044240290239625,-0.039953997651053584 l25.089353593040784,-3.327885969645186 1.8000166426363766,-0.17413992903467965 l1.7101888282400797,0.2511948521012928 m-4.135631445646821,-14.75524149157971 l0.07987815352209571,2.3144801107076916 -2.702336359709972,6.108899906854847 l-3.0276649372731215,6.050640505143994 -3.830331554969658,6.130967868814743 l-3.4269726804935465,4.506501979806285 -3.831293973799075,4.3468835481632135 l-4.210596682827272,4.3468040267543735 -4.840097641835075,4.479503651263062 m21.800047599316475,-7.821365774408202 l-0.3158450714398204,1.1592114024926747 -0.5822564128802001,0.9317538719739791 l-3.2522816667187042,2.507580357720524 -4.852200215018511,2.7640415188109344 l-5.692672750749203,2.415323501905441 m-2.7028487351035593,-7.159439519114712 l0.44927185052070456,0.9207049805105635 0.23058460714450918,1.2007373868605524 l0.1507554775305502,17.394667139502722 0.4383042975452589,1.5834768702447484 l0.8311238423477458,0.9932965683674435 1.9080575179269166,0.8295467465053199 l3.2371298852587493,0.40713824416668437 6.612036174537682,0.041358116599447076 l4.149825366777243,-0.5712765494583018 1.484384063644595,-0.7354090267134273 l1.1908142643749549,-1.2064763098096196 0.7000962895977988,-1.6949119056214001 l0.22579048445023334,-2.980822167928665 " fill="none" stroke="black" stroke-width="1" /></svg>