<?xml version="1.0" encoding="utf-8" ?>
<svg baseProfile="full" height="126.03396591046996" version="1.1" width="100.99216908708493" xmlns="http://www.w3.org/2000/svg" xmlns:ev="http://www.w3.org/2001/xml-events" xmlns:xlink="http://www.w3.org/1999/xlink"><defs /><rect fill="white" height="126.03396591046996" width="100.99216908708493" x="0" y="0" /><path d="M25,25 m0.0,0.0 m14.893222705298527,4.629154837315113 l0.025997722957541214,0.4712280351846661 -0.16415273291292018,1.7393676177258046 l-0.7905147322042197,2.311394172965906 -3.4806499968934648,7.094469622404073 l-4.153153954089685,6.598179737014214 -5.0266189400824866,6.334911269675696 m9.063141244829268,-10.102848545754407 l0.40310010691160203,0.822191643616744 0.11080004185757521,1.0882741043051518 l-0.19438032624490634,29.128147697619752 m21.34077956198406,-43.540484857715306 l0.9172477535534802,2.489316502887918 -0.04746855085174598,10.722552099747942 m-10.924111950251891,-7.666346273507771 l2.667136301651934,2.6694893449900703 1.440827085922181,1.8514792745585118 m18.796087973939933,-7.074692033699496 l-0.22563288328707054,1.3549839585840666 -0.9607120501463182,2.281768431778839 l-1.381171045262432,2.1849047864286137 -1.47667589983099,1.7297616456395677 m-23.47045333003453,2.718161011110339 l-0.876559708531385,4.633440748803845 -1.2486973663417686,3.5634493576945663 l-1.332953208305711,2.230179317722092 m4.3056750402469275,-9.606167875795302 l19.970752942984426,-2.3847309740050773 9.713851619172399,-0.7804840768314005 l1.8571862778794697,0.028903332568744673 0.9488489088235245,0.37054743168557625 l0.2914204743435968,0.5952581245684949 -0.155833083081776,2.400891212297848 l-2.336950476990089,1.8314555062978695 m-25.200382661958425,1.7829879351705962 l0.48960077808748337,0.29603886146878255 1.6885774640114286,1.057701685956171 l1.647461636657206,1.929200845817853 m9.245695496846412,4.259179452230378 l-0.314772074542232,0.6296006291983393 -0.3715117381891582,0.6966203640108367 l-3.2404534750717278,4.434927172124024 -3.1382082680063674,4.7811817253067534 l-3.2341492106769976,4.394548898966046 -5.612537763573135,5.78243111143602 l-6.991225434730857,5.396912809901987 m5.91322245343598,-21.60913573133682 l2.0427644114787586,1.080979336805928 2.9798294264344216,2.3266392732948895 l4.2775053816085435,15.322009592837244 1.927612240900049,4.3412708558677995 l1.3106026996792255,2.9865188154005073 1.2287146260883213,2.609065167586207 l1.4975737874996449,2.6411071654599376 1.7719700083252838,2.5374310884292517 l2.0162813574977423,2.1971900239888975 2.4325858518749977,1.950609466594954 l4.027427054447859,1.4908431760701193 1.0421754665749245,-0.4150925590655581 l0.2537849527033696,-1.0159549730932433 -0.20086762533923405,-2.9021185325326018 " fill="none" stroke="black" stroke-width="1" /></svg>