<?xml version="1.0" encoding="utf-8" ?>
<svg baseProfile="full" height="105.04834984874131" version="1.1" width="111.46205140523574" xmlns="http://www.w3.org/2000/svg" xmlns:ev="http://www.w3.org/2001/xml-events" xmlns:xlink="http://www.w3.org/1999/xlink"><defs /><rect fill="white" height="105.04834984874131" width="111.46205140523574" x="0" y="0" /><path d="M25,25 m0.0,0.0 m17.94940063641483,3.0395692773676775 l0.04266081658458458,0.585265746421858 -0.1005922637830371,1.8871061565589815 l-0.7654612898236712,2.620068130366421 -3.600705896237396,8.069497587199045 l-4.458218349682828,7.348976741152198 -5.414824049181634,7.015236976734481 m9.552279621734435,-11.028367694773504 l0.6453067537144028,0.9804161180781551 0.25134991513188526,1.2324132982276337 l0.00940028422546628,33.29816751140837 m12.173636061867194,-40.63024244495603 l0.9220460779339329,1.0817620931398848 0.39619272319217036,1.1938189923174156 l2.5540384227126713,25.99962604552445 m-1.9636678837718584,-27.360168631348916 l31.012683397668592,-1.7235703216556302 0.9827038314572176,0.11059824640280959 l1.2738225950787914,1.9949738726986823 -1.763734364454388,14.105425631621191 l-1.5197872710864713,9.708467246384247 m-15.766285742972665,-25.784636527117623 l0.6045494867577719,0.687731461470669 0.3804283605543822,1.1869857578985856 l0.12555238683949535,21.31733702513945 m-14.172806040116935,-10.78205019686334 l17.312552249945306,-1.1032028202704147 m-16.748816623023544,13.289321972055946 l26.207389629291022,-0.9907873791727164 " fill="none" stroke="black" stroke-width="1" /></svg>