<?xml version="1.0" encoding="utf-8" ?>
<svg baseProfile="full" height="112.76777502625137" version="1.1" width="111.4598667166399" xmlns="http://www.w3.org/2000/svg" xmlns:ev="http://www.w3.org/2001/xml-events" xmlns:xlink="http://www.w3.org/1999/xlink"><defs /><rect fill="white" height="112.76777502625137" width="111.4598667166399" x="0" y="0" /><path d="M26.25411743228663,25 m0.0,0.0 m15.04122825079541,10.839658375204655 l0.0578461118800687,0.45155881883853694 -0.12206083349641518,1.6681978325171205 l-0.5839291308260317,1.3470718865297566 -4.229142684845726,6.201906355012393 l-5.059274052853294,5.582160324717736 -6.358785092940642,5.76748454507299 m10.81651359636875,-8.328602280461569 l0.6603926774828683,1.3721288136129957 0.15028728014874285,3.521342722250064 l-0.4906381986831401,22.904138821940112 m14.867745731239525,-24.659349511142423 l1.6906998953158139,-0.7111376060765707 4.30451547552126,-0.5641330702056673 l19.832376882223386,-1.8277492398046487 4.894564480903887,-0.3132967101871137 l2.3261176275554045,0.14308240418598642 m-18.59376701133919,-11.59790957821711 l1.094424298772293,1.0088878801165768 0.3326783290116226,0.999793568517576 l0.03713000134495837,19.536820682977172 m-18.27471652777969,1.3528001229775193 l2.0890542648378574,0.27521610498018334 2.1584220421509137,-0.008918533251076024 l26.36844050493425,-1.9718932257919002 4.227615397644408,-0.13202458284346244 l2.7127105607979463,0.23882288124056184 m-37.218408906985914,12.921873766666982 l1.9661324190881404,0.28315490465356236 2.7090162687624275,-0.04424520839032755 l26.198159121997104,-1.7302853845842174 3.911868010142957,-0.08428809800721002 l2.688532495183328,0.21531518755434265 m-13.031805925425738,-6.931720202196427 l0.7727540860059476,1.114181874786568 0.18784812251457653,1.116096873895072 l-0.27304695646596366,21.606512474548232 -0.47932274087922555,0.9004251041079228 l-0.6971712743646739,0.3046959305064857 -0.8191763463414217,-0.1536373359078848 l-3.2928284473545437,-0.9947024471018675 m-13.704354594546848,-11.170840265219582 l1.612483165025153,0.9155077762641396 2.160184825429275,1.6942117866527766 l1.9009412580653098,1.8567061856454607 0.74013078889821,1.113257205458793 " fill="none" stroke="black" stroke-width="1" /></svg>