<?xml version="1.0" encoding="utf-8" ?>
<svg baseProfile="full" height="102.94717881073655" version="1.1" width="101.63229378851072" xmlns="http://www.w3.org/2000/svg" xmlns:ev="http://www.w3.org/2001/xml-events" xmlns:xlink="http://www.w3.org/1999/xlink"><defs /><rect fill="white" height="102.94717881073655" width="101.63229378851072" x="0" y="0" /><path d="M25,25 m0.0,0.0 m21.41713962025288,8.093170720947162 l0.04565115845950199,0.46881689616924754 -0.10051630807931394,1.5834613023032176 l-0.4247543165630547,1.431952922029179 -3.6778278036281686,7.267304255261938 l-4.197233949243692,6.517409159479632 -4.862897731102347,6.50493156225316 m8.491371496246833,-9.331960700252395 l0.40258777371501686,1.2596107858384098 0.1163464862252122,3.622298961351387 l-0.3927292975442111,25.530182945355612 m7.467253577162564,-39.005118432874525 l1.6702669608843983,0.349859908470704 19.086269428993827,-1.8589979035039423 l3.2164743576725816,-0.08412817904863833 1.4491322271896019,0.26992041450493304 m-20.000583800233525,-5.649353474722975 l0.7520830585157384,0.8723777456297634 0.2669792500755206,0.6315433826621716 l1.354068230577188,12.521941421267075 m9.475674828227122,-14.742101289761603 l0.47091094467556466,1.5128530153667554 -1.812423383132656,12.156011124573002 m-17.041344846739893,2.2694341676027787 l2.3215121242749963,0.23662789511849594 24.01669532270474,-2.037175156466755 l2.1221883789242906,0.2317065847505507 m-27.050371448623633,2.948220711188515 l-0.6398461546478315,11.65868309885497 -1.1821184262326645,6.923196840691197 l-1.84436436233812,6.39247609231613 -1.0805244847272173,2.4706045826147554 m8.978362358023162,-22.642360200230897 l0.14932939406645188,24.51761793373257 m0.11635463999263813,-24.299261329909577 l19.57766426288652,-2.189668544657589 0.7807594264561011,0.04786838261170119 l0.9169430148579388,0.7170319208124626 0.16502180661062726,0.43411091523976375 l-0.4790581759786844,23.685701316904673 -0.4228330723647995,0.7630107168940273 l-0.5984446083935105,-0.005089136900208919 -2.220542793631382,-2.079732880017057 m-17.678656411918308,-14.677182483562252 l15.404779226622528,-1.141303760876029 m-15.37469594909367,8.72586432910138 l15.004677757501446,-1.2756394265415663 m-5.568563181660254,-12.432964679182964 l0.5325748107630427,0.6497624242779622 0.13592370689182218,0.6599648053461726 l-0.0824826166527486,21.078643224876963 " fill="none" stroke="black" stroke-width="1" /></svg>