<?xml version="1.0" encoding="utf-8" ?>
<svg baseProfile="full" height="106.66878149426503" version="1.1" width="104.93921589062782" xmlns="http://www.w3.org/2000/svg" xmlns:ev="http://www.w3.org/2001/xml-events" xmlns:xlink="http://www.w3.org/1999/xlink"><defs /><rect fill="white" height="106.66878149426503" width="104.93921589062782" x="0" y="0" /><path d="M25,25 m0.0,0.0 m19.75177240548476,17.360994045941702 l0.40206305435958273,0.3630444778310073 0.633438685009865,0.8056342517233426 l0.16629970824969326,0.9828207264431977 -0.0675556199836484,20.941803192400698 m0.7574723998072436,-12.238878092338696 l6.420659991314734,-1.2871438267093844 2.0237666985811678,-0.08956560458202294 m-19.381704591965015,0.29987926905860396 l0.6404288223066127,0.7702589335156342 0.21364896130549102,0.8827396122742273 l0.0878893428082904,13.547512839022612 m-3.7992715748073578,0.8815092246199083 l1.0068954797945622,0.4918528459021539 1.0082500431458403,-0.19624090456593718 l19.923107516148434,-8.123138139754195 m20.397211119261023,-14.651501112779389 l-0.353535385441985,0.8636669273067907 -3.857433049591945,2.9706051395295634 l-3.887139951300098,2.2884832829344215 -3.8672093018754565,1.681338921284572 m-2.180730625984566,-12.651775564189409 l0.597983438592535,0.7936292299212829 0.18259835289213908,0.9855398351247948 l0.010147345082613031,17.977226873718386 0.3497831763641728,1.4183363120011474 l1.0421856046065958,0.9555750336462522 1.8989725998373712,0.6296571486387093 l3.5300737591220286,0.33952513787826105 4.665950283355675,0.0358457597899038 l3.7434603092106813,-0.4243959231822001 1.4512480916705168,-0.5318449706373835 l0.88977554856839,-0.8272668034305837 0.4246933966430408,-1.160990332321333 l0.11401985805485242,-1.8490864706487915 m-37.69489579626063,12.560826710579484 l3.8876230658073196,0.14705489434410657 21.930517731656337,-1.6508964717645194 l4.6623416059417355,0.16956332888084102 m-37.2905029255415,10.920996196409185 l3.1629167328399053,0.2855855604481138 31.64624787836388,-1.8941197541939054 l4.9906408702693605,-0.12055546460324587 2.8163520458071303,0.30987029242521097 " fill="none" stroke="black" stroke-width="1" /></svg>