<?xml version="1.0" encoding="utf-8" ?>
<svg baseProfile="full" height="103.07220835509229" version="1.1" width="105.9753314954641" xmlns="http://www.w3.org/2000/svg" xmlns:ev="http://www.w3.org/2001/xml-events" xmlns:xlink="http://www.w3.org/1999/xlink"><defs /><rect fill="white" height="103.07220835509229" width="105.9753314954641" x="0" y="0" /><path d="M25,25 m0.0,0.0 m17.45129396878851,8.37344231475679 l0.050156872848911224,0.475555365346549 -0.18392079267487638,1.6325133582757594 l-0.9167937039676383,2.6257361351675876 -3.2559330339257877,6.794153965514803 l-4.147269179068429,6.359639076197501 -4.9289825507957845,6.102085796473629 m9.179082420082757,-10.514485555047798 l0.5811619824485578,0.8102350580490114 0.2743629889796361,1.6439790190732089 l-0.019341225740871538,28.670363329394068 m7.349671620235361,-33.421274613807554 l1.2714099878193148,0.1404858220093378 2.1795569826759174,-0.07397123381564971 l23.893835523446207,-2.362522578866118 2.1992354984627474,-0.09823930855765538 l2.1759404186295486,0.2581462048202873 m-17.159088627443754,-13.683143604545371 l0.7205457258963955,0.8619275069957447 0.3905257536469863,1.7495139842364222 l-0.0932928459050185,46.72806831342173 m-1.1638447320257288,-34.05031589940874 l-0.3712442828156994,1.8222274368110525 -1.5507829289416037,2.83557274360007 l-2.4529428086733382,3.3541871843044238 -3.1492061602468144,3.4500036277154247 l-5.947039469194265,5.033582674226531 -2.969932632639887,1.8312217019942107 l-2.8071085681064014,1.3212560552897412 m20.548711972850207,-19.790832361026563 l4.5081802489548295,6.031218140763574 6.1982698657959,6.989330256580975 l5.037931035814897,4.629929178982792 1.5041754659933242,1.1927658157274212 l1.5780067042600034,0.758237832132714 " fill="none" stroke="black" stroke-width="1" /></svg>