<?xml version="1.0" encoding="utf-8" ?>
<svg baseProfile="full" height="103.99688658396691" version="1.1" width="92.3731074598967" xmlns="http://www.w3.org/2000/svg" xmlns:ev="http://www.w3.org/2001/xml-events" xmlns:xlink="http://www.w3.org/1999/xlink"><defs /><rect fill="white" height="103.99688658396691" width="92.3731074598967" x="0" y="0" /><path d="M25,25 m0.0,0.0 m13.08061803501988,5.530443163760151 l0.05593145083648615,0.5182740171800038 -0.3158011760922864,3.43489748243751 l-2.5547485006556516,7.849459837701727 -3.0305402279275584,7.3060576292659745 l-3.7555647002069596,7.357847155252994 m6.9561778435858965,-12.300062997940545 l0.40055554377083535,0.8893095161975928 0.1703494762625174,1.183284016919257 l0.025798547620268373,32.227376763192254 m18.10687916655577,-52.37965494440646 l0.38467986206000626,0.909079483222697 0.236537105573467,1.2038348317419185 l0.030603063281410346,12.359317824531068 m-7.6299245624034215,-7.086661629339714 l-0.18199788870927422,1.3289397996197645 -1.262661479413102,2.3017601615581307 l-2.1900329352911005,2.54942905078682 -2.557321840441469,2.1954716079707417 m19.216112172266993,-8.917306918721232 l2.2655315153071074,1.3530388011157453 2.285619458771826,1.9392201139526895 l1.7953418634969223,1.9767560991678816 0.840965666628127,1.593813183012999 m-22.695680890081004,4.216908391168545 l0.6078763389043088,1.0774860121802916 0.16771371251325717,0.8547057736140179 l0.07362750670854022,26.41668496545033 m0.4856563976697767,-27.291216494368935 l15.498447906283586,-2.177151530242011 1.1906850161684712,0.24867495182327448 l0.7113208579331757,0.7705982919975863 0.3401846472459139,1.6515931929990975 l-0.09879185207769732,25.831323961549753 -0.30329205023273614,1.1196895976922583 l-0.45514602538340787,0.4286005931165045 -0.564530094871448,-0.06239928296026328 l-2.62157079203745,-2.497427415773713 m-13.164360483687693,-18.348033977812978 l16.418696282641545,-1.7282763259289828 m-16.268788873738764,9.560989550089435 l16.55416270309956,-1.5637647431848607 " fill="none" stroke="black" stroke-width="1" /></svg>