<?xml version="1.0" encoding="utf-8" ?>
<svg baseProfile="full" height="112.0504058955054" version="1.1" width="112.51911336097952" xmlns="http://www.w3.org/2000/svg" xmlns:ev="http://www.w3.org/2001/xml-events" xmlns:xlink="http://www.w3.org/1999/xlink"><defs /><rect fill="white" height="112.0504058955054" width="112.51911336097952" x="0" y="0" /><path d="M25,25 m0.0,0.0 m18.835733460984496,5.674055787597639 l0.026847817231841806,0.5558280664507455 -0.2730091593479742,1.9163017425305118 l-0.9084433185009707,2.699003836259369 -3.259542267354148,7.405208334964703 l-4.151025504547515,6.930505244259868 -5.085583252345687,6.778514613025164 m9.077359155812323,-10.661352338986173 l0.5174135457956491,0.9153137138194946 0.20507220300226522,1.5525433112009814 l-0.041058873429688676,31.573891688164952 m9.37220336363418,-41.20127799472294 l1.842648159831432,0.098051492049398 2.6238565061714763,-0.23462886364965943 l21.99943035282245,-2.443159273517248 2.1854330041373617,-0.184999956815666 m-29.34359125560052,18.255284646897653 l2.363422008039663,0.3094718152389757 2.463425751085356,-0.12889287522746637 l22.145160375015042,-2.41961733427232 4.023592097336143,-0.15416792316226624 m-16.6802073058314,-12.467543402197798 l0.856897909338842,0.9488365241590658 0.2859585996909773,1.0025043397306186 l-0.004187309287524695,42.02967124434048 -0.242785834349323,2.1581088491983333 l-0.5394295888558246,1.00753994882987 -0.7411465815637004,0.13541065933911536 l-0.8397653135645694,-0.42438221934680015 -2.156347361377932,-2.4087406239024722 m4.107758667793107,-27.096664700023513 l-3.1831742541155066,5.983008605992972 -5.0342912832501385,6.544453140998534 l-5.445741115708929,5.287766943355765 -5.541003920771916,3.579060144730941 m20.802042178662557,-21.695602734054344 l4.917053148050123,6.021806977069121 6.94287139901014,7.450050858612974 l5.395779316813328,5.157697034783691 3.3863121550928863,2.4081650658031175 l1.6131756854311374,0.7376424803111453 " fill="none" stroke="black" stroke-width="1" /></svg>