<?xml version="1.0" encoding="utf-8" ?>
<svg baseProfile="full" height="98.24022768029978" version="1.1" width="110.10819657461808" xmlns="http://www.w3.org/2000/svg" xmlns:ev="http://www.w3.org/2001/xml-events" xmlns:xlink="http://www.w3.org/1999/xlink"><defs /><rect fill="white" height="98.24022768029978" width="110.10819657461808" x="0" y="0" /><path d="M29.40936304617874,25 m0.0,0.0 m13.424130910691245,4.849062916830372 l0.04796462732986678,0.5431143840797376 -0.22455634805999816,1.914213059967981 l-0.8143383704088344,1.4874799462980504 -5.056114138772531,7.571943537685076 l-5.138918787167183,6.069282637558205 -6.647530939791305,6.356147108132236 m12.226685110966528,-10.043114327226036 l0.6931681142544005,1.243540042890057 0.15516315752436888,3.247761567457298 l-0.5363721296342384,25.000796806626806 m10.245576042230088,-26.36672449541078 l9.591492783744485,-0.9811969505005134 14.206548788986092,-1.506710246746333 l10.27478577216564,-0.7247238595950052 3.251148934380701,0.14219476988503307 m-20.741855687938514,-13.648781881684453 l0.8978432016779193,0.9684729020401378 0.38156328065892114,1.5702575997455666 l-0.08237177102776776,24.886267576939566 m-12.971996802027173,0.9378428699986052 l0.704270861471946,0.7527278228102253 0.6970096896959702,1.4220693987776136 l2.518421728583598,12.317992989807786 m-2.1227813069676036,-13.77077490938813 l21.736764077955762,-2.05541118886909 2.0563372979898786,0.040447540052628884 l0.7126450931835254,0.32244948641885596 0.43691697815418334,1.0295848238529066 l-3.1379936350687663,10.435857497503173 m-19.939059666964987,1.816315432962573 l21.838627043213467,-1.414429302736392 " fill="none" stroke="black" stroke-width="1" /></svg>