<?xml version="1.0" encoding="utf-8" ?>
<svg baseProfile="full" height="106.57529788638617" version="1.1" width="104.52224002090661" xmlns="http://www.w3.org/2000/svg" xmlns:ev="http://www.w3.org/2001/xml-events" xmlns:xlink="http://www.w3.org/1999/xlink"><defs /><rect fill="white" height="106.57529788638617" width="104.52224002090661" x="0" y="0" /><path d="M25,25 m0.0,0.0 m21.4592936295934,2.2330121692768525 l0.04217875787193803,0.6274393326133784 -0.08896286495939679,1.9031974554498965 l-0.7114397840368688,2.615004678351416 -3.1609122360268382,8.409102144792824 l-3.7178268084893076,7.563689072817483 -4.526070803537279,7.5088651165154925 m8.005355852028652,-11.912404361206823 l0.6096477432609602,1.0923148466053814 0.2241756828709581,1.6988046971375914 l-0.047599251304941775,34.83627273403267 m8.276968409666663,-42.78814434869292 l1.2342462808526427,1.1984034222181938 1.4451230250778373,1.8579730126052052 l1.16093515247267,2.0778340073335952 0.5582313799045624,1.8084572016845046 m18.250155601461913,-9.980168207741368 l-0.09545086899597831,1.1348830748291447 -1.2489246670861573,2.1787453109116384 l-4.758313861721676,5.5474650490876325 m-5.712204158065994,-15.686056892916017 l0.2947471765073188,0.9535666477713742 0.10727050903240375,1.497618665151002 l-0.8229626167575436,11.03590141474295 -1.1738646949090263,6.862934757595853 l-1.5592592667078375,5.651791584272122 -1.9179803673546607,4.6268204747693185 l-2.1642190952557385,3.7909073927485286 -2.5009517444514366,3.326976347477615 l-3.6732129986660222,3.811113966758545 m12.597552446506699,-23.455584070445614 l5.873027150695527,8.915209134888082 5.247212449261984,7.089047380242122 l3.549600900479558,4.260758344648318 2.418565051168812,1.829249373446718 l1.048108910518798,0.24279137176386759 " fill="none" stroke="black" stroke-width="1" /></svg>