<?xml version="1.0" encoding="utf-8" ?>
<svg baseProfile="full" height="103.53792735632334" version="1.1" width="95.10880648592548" xmlns="http://www.w3.org/2000/svg" xmlns:ev="http://www.w3.org/2001/xml-events" xmlns:xlink="http://www.w3.org/1999/xlink"><defs /><rect fill="white" height="103.53792735632334" width="95.10880648592548" x="0" y="0" /><path d="M25,25 m0.0,0.0 m15.209822987916123,5.862860550451625 l0.04142606480296738,0.54457606189913 -0.2789779888722159,3.245732770314499 l-2.7975036149187282,8.029821704211972 -3.375902020217151,7.03811627565359 l-4.30840669746316,7.176819249914548 m8.070280027646643,-12.185100655603415 l0.4133650715670161,0.8953570856738428 0.12862830672421383,1.2251754303030133 l-0.16601305599055152,31.704568883504525 m18.27922135124598,-51.734505562705365 l0.807075288158825,1.685255930080413 0.13815596913037326,12.522389150147927 m0.9048155558178791,-7.468691918306867 l7.999767161490144,-1.5824672558261839 2.3188249470922493,-0.07187346717440947 m-20.46372399960924,9.959289922606754 l0.7486169115619109,1.5103842496035647 0.08662289601261468,16.882955730596116 l-0.22133495903651365,7.594895504273849 m0.6664845383148845,-24.239353593363745 l16.31067712604591,-2.1369334835334617 0.688307566795483,0.016186481867559464 l0.9477642417999311,0.41990587732840773 0.3289903433546998,0.8480205450424917 l-0.34826914986017493,24.197975998116576 m-17.89753037278857,-16.110005787445903 l11.729650816049517,-1.4960096951167996 m-11.834528438872677,9.358821501088888 l11.679187381662397,-1.5135837105997054 m-11.621962498602562,9.286885643056731 l17.661823501254432,-1.8992562963945747 m-13.484710816004958,4.331070538484463 l0.08352795755998028,0.4661947200171663 -0.21455999833856035,0.9934573818935507 l-0.7441184374166329,0.9351994809525991 -3.5754000536784907,3.397404301315482 l-3.619209604189156,3.0007954225911226 m16.33979842314388,-7.82550535807425 l2.494622140221787,1.7569189873922388 2.4868729172585424,2.1622171686884903 l2.381403211106067,2.484900765431403 1.1152254880503754,1.6155274423511905 " fill="none" stroke="black" stroke-width="1" /></svg>