<?xml version="1.0" encoding="utf-8" ?>
<svg baseProfile="full" height="109.49251284822822" version="1.1" width="109.10256842151284" xmlns="http://www.w3.org/2000/svg" xmlns:ev="http://www.w3.org/2001/xml-events" xmlns:xlink="http://www.w3.org/1999/xlink"><defs /><rect fill="white" height="109.49251284822822" width="109.10256842151284" x="0" y="0" /><path d="M25,25.00000260770321 m0.0,0.0 m18.06716799736023,2.416837513446808 l0.03857174189761281,0.6107672303915024 -0.31444501131772995,2.0102502405643463 l-1.2672622501850128,3.5720843076705933 -4.027944505214691,8.043127655982971 l-5.1027244329452515,7.842492461204529 -6.147373914718628,7.376707196235657 m10.68541407585144,-11.944522857666016 l0.6293774396181107,0.9627647697925568 0.28537772595882416,1.9265931844711304 l-0.02903958084061742,35.85731744766235 m15.699163675308228,-55.718421936035156 l3.25482577085495,3.815257251262665 1.554744690656662,2.7099916338920593 l0.627516359090805,1.7146147787570953 m16.82215452194214,-11.195863485336304 l-0.16162024810910225,1.5001548826694489 -1.3574771583080292,3.312605917453766 l-1.9260615110397339,3.2211503386497498 -2.1087953448295593,2.7695441246032715 m-22.493815422058105,3.346281349658966 l0.8583708107471466,0.9673731029033661 0.973399206995964,3.7627941370010376 l2.2481942176818848,15.111082792282104 m-2.2062769532203674,-18.659772872924805 l28.41574192047119,-2.978908121585846 2.897511124610901,-0.19580531865358353 l1.7844469845294952,0.23089872673153877 1.0616644471883774,0.8254042267799377 l0.3417620435357094,1.5948008000850677 -2.5662505626678467,16.632152795791626 m-16.47050976753235,-17.117079496383667 l0.6914111971855164,0.9510669857263565 0.20147698000073433,1.212318018078804 l0.02903958084061742,14.301807880401611 m-14.769011735916138,-7.520625591278076 l31.094894409179688,-2.6497745513916016 m-29.878320693969727,11.411386728286743 l28.45012664794922,-1.9456908106803894 m-25.56785821914673,7.985701560974121 l0.5935750156641006,1.0074291378259659 0.14702013693749905,1.4320950210094452 l0.01451979042030871,18.984121084213257 m0.6462151557207108,-20.55410861968994 l17.750178575515747,-1.7713314294815063 2.2948966920375824,0.3267631307244301 l0.6286684423685074,1.0386233776807785 0.0601727981120348,0.8124657720327377 l-0.05081788171082735,19.622892141342163 m-20.361270904541016,-11.195863485336304 l19.548804759979248,-1.4374397695064545 m-19.646642208099365,10.781831741333008 l19.689887762069702,-0.9728232026100159 " fill="none" stroke="black" stroke-width="1" /></svg>