<?xml version="1.0" encoding="utf-8" ?>
<svg baseProfile="full" height="111.74558907682571" version="1.1" width="122.75417613041512" xmlns="http://www.w3.org/2000/svg" xmlns:ev="http://www.w3.org/2001/xml-events" xmlns:xlink="http://www.w3.org/1999/xlink"><defs /><rect fill="white" height="111.74558907682571" width="122.75417613041512" x="0" y="0" /><path d="M27.79708727929438,25 m0.0,0.0 m15.69276110984032,10.09542879914186 l0.04648154008064696,0.47556924912939297 -0.14164497444471436,1.7761130123018198 l-0.7172592780960537,1.0618324737567573 -5.298957589139242,6.3627185449328545 l-5.506498644334329,5.412103881953924 -6.87196944320101,5.8304219776429145 m11.804573076455373,-7.93391808882246 l0.6792274903687715,1.33751402542585 0.16395942661684446,3.7779332294011905 l-0.5621526558733537,21.796961052811668 m16.173702028424515,-24.47437100555226 l1.8049378285441315,-0.6724574029425879 4.634267266024513,-0.598450864907111 l20.282444474776693,-1.8790496741088458 5.176790009849214,-0.27882113566727607 l2.5550206702055593,0.1534327375555949 m-19.4533236076518,-11.813989878579344 l1.1456188915451224,1.0079604410366034 0.34597566289881615,1.013475388115697 l-0.018407137512155836,19.868670191683997 m-19.0411689879664,1.4115327908267838 l2.1164717050719872,0.26828083831875194 2.287040120773628,-0.008677467819893448 l30.670057789043693,-2.063424685752185 4.361298817432282,-0.10535721887496526 m-36.6067566635989,12.72878413468707 l2.0233025996713194,0.30272497671240056 3.3791060844697216,-0.08635218216432383 l23.23420078693953,-1.6511880024809993 4.214508554707976,-0.0940994046633796 l2.7515181102655037,0.21407896969371878 m-12.37224055931237,-7.1344097569652085 l0.769273777667382,1.0483042050843867 0.21467854056856508,1.078726881220569 l-0.06854346684191985,21.693532745484134 m-25.182073887926954,1.4646790840211317 l2.156107924341424,0.3444111989500888 2.6120312185664067,0.014965016237392324 l36.77089551152798,-1.8265560572778194 3.7318347303420274,0.140365340342511 " fill="none" stroke="black" stroke-width="1" /></svg>