<?xml version="1.0" encoding="utf-8" ?>
<svg baseProfile="full" height="120.13361492882842" version="1.1" width="108.65732567401653" xmlns="http://www.w3.org/2000/svg" xmlns:ev="http://www.w3.org/2001/xml-events" xmlns:xlink="http://www.w3.org/1999/xlink"><defs /><rect fill="white" height="120.13361492882842" width="108.65732567401653" x="0" y="0" /><path d="M25,28.47523856047065 m0.0,0.0 m23.699003123958175,3.4708022086572763 l0.03704700225964505,0.570124527446794 -0.2163999484549784,2.0238343913529144 l-0.764070337977939,3.0626365318300417 -2.657015045152098,8.44814176338716 l-3.140894367618439,7.692919322171538 -3.9003577408676606,7.487881434534646 m7.605056959154917,-13.268843995620136 l0.44422827173207896,1.0209053829038013 0.17184587884675417,1.3087916855978912 l0.004954618169064516,34.89021050382963 m6.777286918236324,-44.32711149932967 l0.9877204002917779,0.16018353892958595 1.89106876705226,-0.05902662778234387 l16.86612567723307,-2.595212518267398 2.9520221562035056,-0.0735960597329224 l1.9834366160046597,0.37771281214703456 m-13.597854866073252,-13.665591962526499 l0.5707169734647405,1.044283366336869 0.2954062771159903,1.9509336041860927 l-0.07074785021115045,26.949718001948114 m-13.271639134420614,1.651217582282681 l3.1962751441641766,0.3330998983370494 19.339450803376504,-2.421176721712823 l3.366188116305767,-0.14437418466455498 2.137983189240852,0.3469727619987197 m-27.51224547255798,17.780235464124317 l1.39232790383299,0.29461725907724573 2.0440339476648828,-0.053489716582307875 l18.29459573108145,-2.4023475330024406 2.3915981871650795,-0.1155607006318865 l1.8534298132100082,0.300528605701581 m-9.514512068207894,-9.11311186961859 l0.555309441609124,1.3450798539230673 0.18507452140143035,1.437261598726132 l-0.05620852953908073,29.033285482707694 m-16.706950979830822,1.4734751593667201 l1.5071056705676793,0.4161203902451653 1.5946456983094206,0.026846626079573718 l23.42873261727572,-2.279910012233567 2.3619008997746147,0.20681356636241366 l2.131650690225777,0.5727391673129111 " fill="none" stroke="black" stroke-width="1" /></svg>