<?xml version="1.0" encoding="utf-8" ?>
<svg baseProfile="full" height="102.56982979171798" version="1.1" width="106.12912250691987" xmlns="http://www.w3.org/2000/svg" xmlns:ev="http://www.w3.org/2001/xml-events" xmlns:xlink="http://www.w3.org/1999/xlink"><defs /><rect fill="white" height="102.56982979171798" width="106.12912250691987" x="0" y="0" /><path d="M25,25 m0.0,0.0 m17.564281213190363,3.090931470321443 l0.2861588311309084,0.44374235135950224 0.4334231914295239,1.9369934951573233 l0.06921871402275533,14.387751624817794 -0.580796405286413,8.835405433775634 l-1.1076462793999386,7.047788131960925 -1.7617232312597686,6.129169544769641 l-2.0506824451187624,4.212540658480868 -2.6577803185223456,3.515195886122543 l-3.661617022509526,2.970311194952305 m12.770513487341294,-49.0213119698244 l17.29840653270434,-3.3791740008063247 1.382889079905882,0.15418073429877782 l1.0791760654277343,0.7843794561962891 0.5049451519838062,1.391111347697628 l0.011974974668542268,0.928355109149758 -1.621885293117122,15.667461891520006 l-0.6600957153157516,17.55445398299047 0.31664733079515434,5.590634863385278 l0.9098946672236871,2.007156325763163 1.78784398487908,1.2466604133610693 l3.0471058212949624,0.5876186455410661 6.373965418096393,-0.05377164274265971 l3.969278963779285,-0.6794014635639318 1.446796515898409,-0.9679589965521275 l0.7326653478513965,-1.536465617091243 0.24616392582599206,-2.206452648468695 m-31.40817310636007,-22.51751579280042 l3.991259327934542,4.1672482453315896 1.6167363020472325,2.6006811088615094 l1.0581634126271129,2.463735190503316 " fill="none" stroke="black" stroke-width="1" /></svg>