<?xml version="1.0" encoding="utf-8" ?>
<svg baseProfile="full" height="126.63743706030348" version="1.1" width="111.15222007363663" xmlns="http://www.w3.org/2000/svg" xmlns:ev="http://www.w3.org/2001/xml-events" xmlns:xlink="http://www.w3.org/1999/xlink"><defs /><rect fill="white" height="126.63743706030348" width="111.15222007363663" x="0" y="0" /><path d="M25,25 m0.0,0.0 m31.385642566752438,24.97082718955353 l-0.1572653815768879,0.4479053899085229 -1.1180571177792642,1.8748293258581086 l-2.9667752783531585,3.080941280190888 -7.05846414782832,5.985632034213923 l-3.849946403288066,5.146100264362463 -2.068063236996825,8.958341004887437 l-0.31817371471687095,7.880663158309489 0.6303953091512582,6.845079702526228 l1.1528152719562745,3.198525374547886 1.2432737313268458,2.609096996910079 l1.3797762786373562,2.1496906876378046 2.154380721639152,1.9818803087228165 l4.467508630824823,1.4983113331409061 4.728888180302344,0.009613009533397191 l2.1977563524524877,-0.3460630071897605 1.9311124789398209,-0.6305763793103567 l2.041635439167796,-0.9514906294724519 1.9882573504593215,-1.114327469026033 l2.2383381569143532,-1.3751456340233663 2.14456644669321,-1.5304630783888025 l2.065965799931662,-1.9371673739808082 1.698220814639391,-3.0483952941748664 l0.6859233779748208,-3.3119904014921144 -0.04883181321687802,-3.4986464361256777 l-0.9472665209952336,-3.5758351950242653 -0.8900756018483408,-3.5321967757011654 l-1.1811090043360266,-3.9323730326019595 -1.6026379347516642,-3.0751487375489064 l-2.2843355800659686,-2.3631997805120766 -2.8194495583242745,-1.5104726699996855 l-3.1595000159816857,-0.4923892383336901 -3.613993103736444,0.2203061344300541 m0.6273681536567363,-29.021543964270784 l1.9792874558012503,0.8402617011625929 2.216620670620266,0.8372963501566205 l6.152317034104753,3.9210006707459826 13.465556424040432,2.2080819892795254 l6.660557841445734,1.6646657530047437 " fill="none" stroke="black" stroke-width="1" /></svg>