<?xml version="1.0" encoding="utf-8" ?>
<svg baseProfile="full" height="110.46489051402239" version="1.1" width="99.08479057208868" xmlns="http://www.w3.org/2000/svg" xmlns:ev="http://www.w3.org/2001/xml-events" xmlns:xlink="http://www.w3.org/1999/xlink"><defs /><rect fill="white" height="110.46489051402239" width="99.08479057208868" x="0" y="0" /><path d="M25,25 m0.0,0.0 m8.001570491012226,21.22489416035715 l0.44197746648432107,0.12955259221232715 2.3980620823053056,0.05387448135387782 l12.505086633588643,-2.616900222295811 2.0842743705325266,0.01830943185702477 m-8.545728673903147,-14.597141338578622 l0.654160476644855,1.0778513107725145 0.2278008184431047,1.4060562180461504 l-0.07135877478333236,37.564060558740984 m-9.012285060105457,6.281722788821793 l0.9819398673959092,0.37865671620522545 1.220087880138606,-0.7746739276875403 l12.692216997282214,-12.555584206191316 m16.503000688513787,-35.277692269521715 l-0.1517200087391414,1.2290974195471434 -0.5462248614062789,0.9058755933242396 l-3.0846615756817912,3.8525291823152465 -3.58774342753546,3.3236092001996975 l-4.594125507580309,3.0679789182541577 m-1.2137686358435114,-0.7548456746393578 l0.5320919614576958,1.1067187754083534 0.17652469890187408,1.2062738158671282 l-0.03771608932522806,13.870723296472546 -0.4955199460244993,8.271483045307004 l-0.6818415793114674,5.045579335072448 -0.9248398800371754,3.8724978521118714 l-1.3473681452742385,3.4977754601109226 -1.8106918835454382,3.323627196025892 m7.06972474568337,-29.641675348615344 l2.4004344992731297,-0.0356426508039146 15.337119292144386,-3.4605551611686614 l1.9643116513832064,-0.06700472035322198 m-9.824024663957866,3.9719981917569203 l0.6578199977754381,1.3676143132694807 0.14892973716590452,1.4558904695919805 l-0.0003625310113539569,32.74235571087581 " fill="none" stroke="black" stroke-width="1" /></svg>