<?xml version="1.0" encoding="utf-8" ?>
<svg baseProfile="full" height="92.97062834482185" version="1.1" width="99.23918417263549" xmlns="http://www.w3.org/2000/svg" xmlns:ev="http://www.w3.org/2001/xml-events" xmlns:xlink="http://www.w3.org/1999/xlink"><defs /><rect fill="white" height="92.97062834482185" width="99.23918417263549" x="0" y="0" /><path d="M25,25 m0.0,0.0 m13.486601525664197,21.23478073028768 l0.3871792300884937,0.329184865619692 0.5049821345684793,0.8118850189317279 l0.5079937022743438,1.3156173972093534 2.1506791926840663,11.212188900801708 m-2.392695816808964,-13.528734602210452 l28.096919921666068,-2.1776360198578018 3.0420193340264094,-0.12240264897899593 l1.2847112499009723,0.1732859883364394 0.9672249728537687,0.54737918836494 l0.22209071429031466,1.0834558036456876 -1.5550447313985787,5.9872645331415795 l-1.6531652586488803,4.740576311831409 m-27.558429311992995,2.4392424903742107 l28.923789084909533,-1.8457164729947328 m-16.305767747824873,-21.864738790492513 l0.5805831716829233,0.7618132668848204 0.3845913638953713,1.684028896347551 l0.03865008761340854,26.640297777336137 m-17.181770141277692,2.865312858886677 l0.9483092695749853,0.5761177094742095 1.3059835385933751,0.10742514188251263 l29.21847502397244,-6.281534879536594 m-3.9329578885041587,-3.414029598594049 l2.0659631373353813,1.58332281249474 2.5591180992595217,2.750328734580288 l2.0948371299208843,2.840450519360179 1.0483131843166904,2.1791103604917375 " fill="none" stroke="black" stroke-width="1" /></svg>