<?xml version="1.0" encoding="utf-8" ?>
<svg baseProfile="full" height="107.61795620448055" version="1.1" width="97.90093115333406" xmlns="http://www.w3.org/2000/svg" xmlns:ev="http://www.w3.org/2001/xml-events" xmlns:xlink="http://www.w3.org/1999/xlink"><defs /><rect fill="white" height="107.61795620448055" width="97.90093115333406" x="0" y="0" /><path d="M25,25 m0.0,0.0 m27.956864584052934,6.065470678522198 l0.0688567177715776,0.4113277683432844 -0.33902277977611867,1.7822109883594464 l-1.5935062642528124,6.3376477804124525 -1.448973083554281,4.070553034934359 l-1.8222114848522353,3.2156911479332817 -2.1063503324401665,2.7760117310643033 l-1.8684624421340117,2.0094043807154494 -2.957407122086271,2.7908725679913724 l-2.54523326783602,2.0121616691003132 m15.28198723043528,-19.995523899218252 l5.884382625433016,6.057434119526897 9.011172827928462,8.520172618240043 l1.8419780524102474,1.4302656439617571 2.5368558922344553,0.895358526899707 m-25.832399610868244,-3.2791725134086955 l1.6905928525423755,0.07513157083710256 8.697696006702468,-1.1875052426397557 l2.4055228516714524,0.06218749600864473 m-16.656849763502183,8.168445725571978 l0.5514512428820888,0.7494907410712405 0.18509930825201118,1.1034762875048234 l1.085002212973663,9.095333801663926 m-0.9439467033701706,-10.16884084254495 l6.984894040984326,-1.6022330210113196 0.9075740284992498,0.016091490808801078 l0.32990545789715114,0.26646846560346604 0.17911140010799897,0.4659874339009462 l-0.010914723744932494,0.5796339438871309 -1.3114204232825588,7.304198851052437 m-6.0338062125904335,1.565408528779955 l6.783145467517696,-1.139668390449216 m3.7046546696358607,-9.357956286399007 l0.32902738704629747,0.4733335994636265 0.34410038799571846,1.9795459473076749 l0.9024008721777632,7.333639478219813 m-0.8690144151384429,-8.890020335215874 l5.272518974319587,-1.0806628312015432 2.283781959357112,-0.29342932475711525 l0.3974360176924975,0.09231768655961949 0.27541399488316937,0.8217872717300825 l-1.2275022247192755,7.214299756126251 m-5.881357549850372,1.266388504515324 l6.4589026764390045,-0.9811620534934004 m-16.067591861909477,4.965616292603308 l-0.03302148313336434,1.1564925254005305 -0.27004262351977715,1.2256814755949093 l-1.627164390620505,4.100080382224462 -2.1701100364347847,3.8225009678650066 l-2.44779224046814,3.3160100645137573 m5.974657641018119,-8.234201179167746 l1.0807340829036682,0.8315197452074953 1.4158496898219934,1.6140851442142352 l1.0814239340213612,1.7195925249098356 0.6710949124596628,1.5479870247645247 m7.34923329029324,-12.193333707400935 l-0.051494642128857016,1.6159917693854826 -1.5833381370450543,4.801025702174115 l-1.8274853811704757,4.123980956162086 -2.154047497234708,3.707721313260899 m5.1071846185719725,-8.587622234385423 l1.5597979331457994,1.0774459639273881 2.0463150482256074,2.0801431599050493 l1.5766637833818944,2.3021283940074877 0.9868253421284485,2.2096889398782937 " fill="none" stroke="black" stroke-width="1" /></svg>