<?xml version="1.0" encoding="utf-8" ?>
<svg baseProfile="full" height="107.27942395955324" version="1.1" width="109.49251414625905" xmlns="http://www.w3.org/2000/svg" xmlns:ev="http://www.w3.org/2001/xml-events" xmlns:xlink="http://www.w3.org/1999/xlink"><defs /><rect fill="white" height="107.27942395955324" width="109.49251414625905" x="0" y="0" /><path d="M25.000002023298293,25 m0.0,0.0 m14.13827657699585,2.2310787439346313 l0.4297114908695221,0.5142201855778694 0.5645858496427536,1.3027162849903107 l0.21891141310334206,1.8456090986728668 0.02465818775817752,14.636600017547607 l-0.8536696434020996,9.593243598937988 -1.5251174569129944,7.48354434967041 l-2.5197920203208923,7.015728950500488 -2.6786231994628906,4.7905853390693665 l-3.4603282809257507,4.257878959178925 -4.3386149406433105,3.6082184314727783 m16.225665807724,-53.11973571777344 l20.368099212646484,-4.000863134860992 1.5754830837249756,0.2070273831486702 l1.2004759162664413,0.8611207455396652 0.6045765429735184,1.5279468894004822 l0.00988567597232759,1.0186313092708588 -1.4076447486877441,19.69806671142578 l-0.521889366209507,19.242323637008667 0.2613484859466553,6.106505990028381 l0.9179943054914474,3.3022519946098328 1.765250414609909,2.025189846754074 l2.8038769960403442,1.0392869263887405 6.730511784553528,0.34314554184675217 l5.353473424911499,-0.5464296787977219 1.8671134114265442,-0.8907365053892136 l1.0944627970457077,-1.4702245593070984 0.515069030225277,-2.178362011909485 l0.12876137159764767,-3.015148639678955 m-37.28039741516113,-24.531660079956055 l4.717394709587097,4.881507754325867 2.0051947236061096,3.027975857257843 l1.390431821346283,2.9080039262771606 " fill="none" stroke="black" stroke-width="1" /></svg>