<?xml version="1.0" encoding="utf-8" ?>
<svg baseProfile="full" height="128.25343324086933" version="1.1" width="104.79768969691663" xmlns="http://www.w3.org/2000/svg" xmlns:ev="http://www.w3.org/2001/xml-events" xmlns:xlink="http://www.w3.org/1999/xlink"><defs /><rect fill="white" height="128.25343324086933" width="104.79768969691663" x="0" y="0" /><path d="M25,26.260023585900324 m0.0,0.0 m31.97895947801949,21.04044460095554 l-0.1832477730993931,0.43477463598960386 -0.7829023074166639,1.8356623238610155 l-2.484972852115168,3.4542140089098092 -5.6756276564527,7.114284770326932 l-3.226801859261547,6.712620442409296 -1.4628437295107632,6.554523118281767 l-0.7324130048354545,6.8018714776575315 -0.1295379765802867,6.40474867623662 l0.2327423367053281,5.4939929469444255 0.8231809968922293,3.0796862974928096 l0.9720340905009669,2.3919293739608016 1.2575483281422184,1.9464465973576233 l2.065768519908314,1.8899462184324356 3.7529730017943694,1.5106613844361605 l4.062914281636704,0.3276027817166115 4.956741601909689,-0.08193918673100094 l2.3487029820308285,-0.26992904914307564 2.217564894916187,-0.4539743159343247 l2.3342385111607244,-0.8652037705000004 2.3075074099971427,-1.0909230161584864 l2.3037133639641487,-1.2955956068061036 2.3723670485268857,-1.69521852056028 l2.117888913573241,-2.0091724873604875 1.8611322907326266,-2.7927141357247924 l1.1343330956528968,-3.4287406632499495 0.37572571012461264,-3.6695716095233566 l-0.3059101868616307,-3.674418944055673 -0.4396493708375589,-4.12403874085754 l-0.8238912059910748,-4.5103353449228285 -0.9731792440192057,-4.15112778710894 l-1.2587655844890437,-3.488288432652994 -1.94118780204656,-3.0453946685937177 l-2.529090840338231,-2.735880911068035 -2.740397558402415,-1.861282230754231 l-2.9267410934216986,-0.9464363307943282 -3.010716593747796,-0.15041717313168798 m1.5952808291261573,-31.912830315237482 l1.9937587284702531,1.7749374556857926 1.997068015147199,2.4604224455779313 l1.3064147420555257,1.8824402227985644 1.0355672371257474,2.57677957935321 l0.35264846313700776,2.9754318924564562 -0.08513059991396663,3.1119540094587417 l-0.5559171529112474,2.4087187239470498 -1.1275400561572573,1.968319200995165 l-1.8840548518053135,1.1121461496814906 " fill="none" stroke="black" stroke-width="1" /></svg>