<?xml version="1.0" encoding="utf-8" ?>
<svg baseProfile="full" height="112.04876725958317" version="1.1" width="110.06015691765694" xmlns="http://www.w3.org/2000/svg" xmlns:ev="http://www.w3.org/2001/xml-events" xmlns:xlink="http://www.w3.org/1999/xlink"><defs /><rect fill="white" height="112.04876725958317" width="110.06015691765694" x="0" y="0" /><path d="M25,25 m0.0,0.0 m18.544215730636687,3.950335123981051 l0.05765571964517897,0.5455257034127581 -0.25201369378342403,1.990053872204839 l-1.0218779830302653,2.650172080934996 -3.915088114665405,7.929530036607219 l-4.803332145607732,7.510541789183134 -5.677096035198028,7.06786977391655 m10.609058435643067,-12.208286540136157 l0.5841368632951338,0.9214515607722762 0.2613238066044478,1.833095735701253 l-0.041098237633084636,34.701743252089585 m14.79228601952179,-51.07548206426476 l3.4392278576242483,0.08456918566913792 18.11847360114448,-2.067563295644368 l4.337141210143309,-0.13109770903888865 m-27.846475135944278,9.766956767395607 l2.0029377248054567,0.3427841008584357 2.0472026074161764,-0.0840878416801439 l20.280607873912142,-2.011895946009342 2.843919618957623,-0.11383359827122158 l1.290554285001461,0.24399481426800013 0.7354142829815414,1.0171320696002848 l-0.008860251587730187,1.4776834444352582 -2.01187100748484,6.300590620171588 m-25.30042533651799,2.7916246854973203 l27.944953878432774,-2.4576519107212804 m-28.404545020001358,-6.331907493157991 l0.45657379824115585,1.0028799569364444 -0.311449134183953,5.436261918770449 l-0.6905182194981709,10.64140541864466 -0.9222312671967173,7.194839532664597 l-1.0417303772843782,4.867904638746758 -1.4372850459244062,4.6253646255890475 l-1.9067877904872232,4.329623303897126 -1.7863944178892273,2.966221149611289 m8.669625053647676,-18.15485372251203 l0.5757827156865687,1.6842806103396795 0.029392420535565435,22.810991609120013 m0.5411159053724237,-23.469541004599 l26.21045500300231,-2.804016476142911 0.8713368020168428,0.03676615157589785 l1.3349220488347613,0.5390479873260214 0.7861587303887116,1.3066559607449264 l0.07476413808360009,0.8614785752951104 -0.09612254999860861,21.207494749274616 l-0.2941841537730504,1.4617825927375996 -0.5790668363860605,0.5958969433285443 l-0.7447007579055523,-0.06315973428799564 -2.215214325427446,-1.5446070312801155 m-25.060387249428942,-11.373002977677942 l17.969266058064076,-1.6626317452263164 10.44199638437345,-0.6264636506621438 m-20.404290308094225,-6.710782777339202 l0.5788700647774622,0.8959363792349019 0.14713088634431085,1.03972283123327 l-0.046402519015528006,18.8983023267089 m8.440085866254039,-22.07051712495148 l0.5486409153847932,0.9300638112736546 0.14523934922050308,1.279004892316347 l0.024001347357975877,19.387903528630087 " fill="none" stroke="black" stroke-width="1" /></svg>