<?xml version="1.0" encoding="utf-8" ?>
<svg baseProfile="full" height="95.35502984183569" version="1.1" width="114.05266786170588" xmlns="http://www.w3.org/2000/svg" xmlns:ev="http://www.w3.org/2001/xml-events" xmlns:xlink="http://www.w3.org/1999/xlink"><defs /><rect fill="white" height="95.35502984183569" width="114.05266786170588" x="0" y="0" /><path d="M25,25 m0.0,0.0 m6.896055608473645,5.752415293282711 l0.45894619005406395,0.42977599411569145 0.5543212854023274,1.7401755972237416 l0.2939628866861013,27.964742277882657 m0.2855771366022008,-30.147178858179892 l14.568078886253748,-1.6168591479557195 1.1893396614265654,0.07335396096648653 l1.0996329344315756,0.6199966580219402 0.2865998570455044,1.1241781067384498 l-0.0041360309904605345,27.589599608426777 m-16.569301234956125,-19.26845171618617 l15.970594068125079,-1.3890939547713657 m-15.911592681349955,10.10072155780657 l15.71411894884932,-1.2934902611630428 m-15.290835114500686,10.867388950904454 l15.233914523432158,-1.2097859207106858 m-11.546375311152698,6.075873854369758 l-0.23115740227938014,1.161626769144528 -1.1807110116568114,1.092957654108656 l-4.0707996562093305,3.0688369076036435 -3.88293854115154,2.6182465102064914 m18.210139973177714,-9.233046064614957 l3.8438216520741433,3.707753931379935 2.573672386390282,3.8785305754677437 m5.179767499394395,-41.705759779725334 l4.681760162445194,0.2509678277705543 22.112539945621943,-2.2022653695278347 l3.5876712400668955,0.13389709710045597 m-10.089488869106447,13.474711644625911 l0.5963504730908201,0.8802274647578341 0.12728342960150138,1.8606533926411843 l-0.19152683509229199,24.447850242633486 -0.43198152353667696,2.1894177579272918 l-0.609295928027655,0.8972675606137163 -0.76751427136669,0.24966223932708162 l-1.7170838211401966,-0.6073558360590616 -3.1326982857643646,-2.283256398893648 " fill="none" stroke="black" stroke-width="1" /></svg>