<?xml version="1.0" encoding="utf-8" ?>
<svg baseProfile="full" height="100.86163605768883" version="1.1" width="102.9779164021888" xmlns="http://www.w3.org/2000/svg" xmlns:ev="http://www.w3.org/2001/xml-events" xmlns:xlink="http://www.w3.org/1999/xlink"><defs /><rect fill="white" height="100.86163605768883" width="102.9779164021888" x="0" y="0" /><path d="M25,25 m0.0,0.0 m25.111350513582952,8.409546681093257 l0.017699171099889194,0.5259649593980994 -0.2852626895855466,0.9848059892723278 l-1.1615947884262179,1.7984831422317133 -3.5680075379967877,4.5370738355827855 l-3.884319514686499,3.482575821971438 -4.75547752166016,3.2310877896212613 m14.054779687983638,-10.884894555182184 l1.6920028065053787,0.12831044520462317 8.989083211244685,-1.693281662624814 l1.0002120894267605,-0.057071444440091997 0.6344651375359435,0.23340246838681303 l0.32991836643059214,0.47682501876644506 -0.4380929679661105,1.3545830281281763 l-2.175557920553969,3.46810257532551 -2.8169451388421245,3.416548123238564 l-3.4450096865970607,3.5261039017101985 -4.0335060771570825,3.5116926175249716 l-3.4464427434327325,2.5878099391037415 -3.7768845328679483,2.4586785095782147 l-4.076729126679776,2.2989037260641068 -4.465253117383145,2.0337639761916146 l-3.529999039027093,1.2163608610198466 m15.09937120404512,-19.85878880975033 l10.939941735252253,7.086334643532399 12.600706933298756,7.038992121287245 l4.540739848846072,1.987007970956512 3.826728099799026,1.0050109356351968 m-26.858785736850546,0.07839431643468305 l2.4823473728933028,0.733383906824714 3.265025184630597,1.2751885759651715 l2.6501793024082723,1.3828566422898658 1.1490604264887805,0.9333298800816083 m-13.509546143727333,4.663471690271509 l4.554048914950686,1.5098622201149758 4.760319946820992,2.102577308100199 l3.477740042180286,2.005615817987421 2.1668313413940625,1.8730230907910486 " fill="none" stroke="black" stroke-width="1" /></svg>