<?xml version="1.0" encoding="utf-8" ?>
<svg baseProfile="full" height="109.4925124105066" version="1.1" width="108.41576725710183" xmlns="http://www.w3.org/2000/svg" xmlns:ev="http://www.w3.org/2001/xml-events" xmlns:xlink="http://www.w3.org/1999/xlink"><defs /><rect fill="white" height="109.4925124105066" width="108.41576725710183" x="0" y="0" /><path d="M25,25.000000099353308 m0.0,0.0 m44.946889877319336,-9.935330780308504e-08 l-0.08045732043683529,0.3505402058362961 -1.129574030637741,1.4682626724243164 l-2.718522846698761,1.7914272844791412 -3.761797249317169,1.8925832211971283 l-3.484703302383423,1.314859539270401 -8.873674273490906,2.3734909296035767 l-14.267988204956055,2.800983190536499 m1.0255805402994156,7.563655376434326 l0.8479734510183334,0.9915279597043991 1.1038677394390106,3.647955060005188 l2.000332623720169,10.648409128189087 m-1.805448979139328,-14.187196493148804 l17.09167242050171,-2.1273615956306458 17.52634286880493,-1.6923996806144714 l1.1033669859170914,0.8199302107095718 0.480240061879158,1.741684079170227 l-1.4438916742801666,6.95838987827301 -1.5779316425323486,5.280804634094238 m-30.6819486618042,1.7840826511383057 l14.78611946105957,-1.2704995274543762 16.807234287261963,-0.6986599415540695 m-18.620694875717163,-23.011460304260254 l0.8297786861658096,1.1751443147659302 0.3735339641571045,2.2574788331985474 l-0.02050816547125578,20.27223825454712 m-5.141255855560303,3.4186014533042908 l-0.10937687940895557,2.174016982316971 -1.1512742191553116,2.7709367871284485 l-2.06918865442276,3.497723340988159 -2.9415330290794373,3.8899946212768555 l-2.9505467414855957,3.170218765735626 -3.4553247690200806,3.0366796255111694 l-3.936733603477478,2.732544243335724 -3.2550162076950073,1.7470255494117737 m26.36596441268921,-23.802013397216797 l0.7423105835914612,1.6535481810569763 0.2011432871222496,1.3751190900802612 l-0.2519742585718632,15.910519361495972 0.8681712299585342,3.025996685028076 l1.6979499161243439,1.7453563213348389 1.147768720984459,0.5006047710776329 l2.0822086930274963,0.4076281562447548 8.695399761199951,0.09214199148118496 l4.775359034538269,-0.38050301373004913 3.990482985973358,-0.9948664903640747 l1.4712673425674438,-1.1629588156938553 0.6845548748970032,-1.66523277759552 l0.41397128254175186,-2.817675471305847 0.08564760908484459,-3.6469534039497375 m-17.541698217391968,-8.653334975242615 l2.0514947175979614,1.4789457619190216 2.1469752490520477,2.085213363170624 l1.7997735738754272,2.225763350725174 1.0095557570457458,1.9019310176372528 " fill="none" stroke="black" stroke-width="1" /></svg>