<?xml version="1.0" encoding="utf-8" ?>
<svg baseProfile="full" height="142.10268144112342" version="1.1" width="102.02058579866764" xmlns="http://www.w3.org/2000/svg" xmlns:ev="http://www.w3.org/2001/xml-events" xmlns:xlink="http://www.w3.org/1999/xlink"><defs /><rect fill="white" height="142.10268144112342" width="102.02058579866764" x="0" y="0" /><path d="M28.56661743064427,25 m0.0,0.0 m26.69320816013608,8.504608550818388 l0.38945731349456125,0.39411111029013196 0.7273764812918119,1.5625751901607277 l0.03875903721431143,2.1307613401438257 -1.020943340656467,9.874942521431697 l-1.3534810424058488,6.843213470520131 -2.2062747663537516,6.456971687987655 l-2.6362051708780876,5.575395651252643 -2.664200183837578,9.46488584737901 l-2.3590213296465077,7.317439833813363 -2.326043007722377,6.3379108754573314 l-2.876920336967275,5.473801050924154 -3.1937894678038505,4.354605302302231 l-3.8135792675554896,4.044280873995683 -4.6979912250928395,4.2733991862302725 m-2.2669692838609623,-34.26934201633685 l1.9829592077678349,0.39798392528730975 2.5423318840107254,-0.275276911167127 l30.24679433365473,-6.782207728881972 2.00409623728263,0.47718716675827405 l0.5590754149205565,1.2910366975802878 -0.0678040574821439,0.9508989739119231 l-4.0646512532464065,25.836512939948452 -1.4620826280139116,8.70816253353276 l-0.4578116713731838,3.017806777219239 -0.019966117494373842,2.8618172481077147 l0.6182302355351235,2.6562696155262593 1.5734117097171565,2.2610990964042657 l1.4240210775850122,1.2314948224061848 3.861710885687195,1.1303358081194743 l9.305994442699014,-1.0674969072297154 2.175232202660054,-1.2167649962843814 l1.1131319612447705,-1.6889652997598843 0.5436994799629935,-2.710217113852783 l0.1422124535498575,-3.595911537979327 " fill="none" stroke="black" stroke-width="1" /></svg>