<?xml version="1.0" encoding="utf-8" ?>
<svg baseProfile="full" height="116.39939127844772" version="1.1" width="89.10128646947894" xmlns="http://www.w3.org/2000/svg" xmlns:ev="http://www.w3.org/2001/xml-events" xmlns:xlink="http://www.w3.org/1999/xlink"><defs /><rect fill="white" height="116.39939127844772" width="89.10128646947894" x="0" y="0" /><path d="M25,25 m0.0,0.0 m21.477157743489137,3.599905405897339 l0.3731624480953014,0.4911491614664377 0.4640315260579254,1.6386340647020048 l-0.017505486919576714,6.189418578996924 m-16.500071090645207,2.3549047527704454 l4.287897645247097,0.10937954801900528 23.44733655906169,-2.636465262051509 l3.0622828978629757,-0.1728828436238683 2.50699422722959,0.24850247920808816 m-26.517112175206247,8.111341265962578 l0.6300536487177897,1.2548400976171827 0.21948514873917388,3.004358995211756 m-0.4771380784345959,-5.811421445380212 l7.913981975377388,-0.9055702048344323 8.536026019784417,-0.23938915978168515 l0.6844953023412312,0.5149271001978492 -0.025766317080369184,0.5144319239392748 l-1.3655215037564634,2.9443414790787394 m-15.056534972498492,2.2615050871299767 l12.784132436766255,1.7578622730127385 2.1776134239550693,0.29436490484323297 m-23.035961955729338,4.661687046909882 l0.8351718211469955,4.044191372631167 1.3742756194237586,10.149900111392384 m-1.3473059612199167,-13.303489113902792 l21.723022064414796,-2.140577470778371 7.781231403459503,-0.42220521270446987 l0.9319461927502779,1.1618384628607292 0.10764705430086703,1.721651578722071 l-1.1024113632574524,5.692334972509447 -1.4579737257080054,5.226420635468132 m-13.402427768392455,-11.202435969812383 l0.31263385308375424,1.3192300053583352 0.0020260007278662734,8.636416660751719 m-11.603779571875164,-4.667581457835086 l12.405007008943514,-2.054742499506185 m-12.834373541289693,7.836645087619301 l20.401472372381114,-2.160485950412333 m-1.7791554866557184,9.548757891311961 l-0.656730662222972,1.0343495345509803 -2.562925031725206,2.0335694826615573 l-3.612935771121707,2.4983109249254474 -4.235882614946846,2.320278231880138 l-6.621962887897785,2.722392951968627 m-2.829852699568831,-12.318305987464266 l0.522085726597692,0.5415114772156896 0.36940166405750985,1.09485116214079 l0.06349560832957768,13.790341282511559 0.5671687223768964,1.4236262832625506 l1.0168204351779926,0.7994952079877186 2.3552581659062546,0.6188394443204105 l3.517867530234638,0.2684369295211299 8.402115134255395,-0.09530561883867406 l3.9846566256242646,-0.527033901912431 2.096691229110186,-0.807426119592983 l1.5229297549829508,-1.1543248767943852 0.8727613974540199,-1.5571980326429053 l0.3902196480320941,-2.7548017101241755 " fill="none" stroke="black" stroke-width="1" /></svg>