<?xml version="1.0" encoding="utf-8" ?>
<svg baseProfile="full" height="96.64781375027492" version="1.1" width="106.65835172642832" xmlns="http://www.w3.org/2000/svg" xmlns:ev="http://www.w3.org/2001/xml-events" xmlns:xlink="http://www.w3.org/1999/xlink"><defs /><rect fill="white" height="96.64781375027492" width="106.65835172642832" x="0" y="0" /><path d="M25,27.285521816414203 m0.0,0.0 m13.50814808264247,6.023347627790582 l0.4872828820316617,0.12163241952249126 2.9652227524448342,0.12420748156058199 l28.688578700798843,-2.399298310216301 2.575128670173271,0.23403361122218316 l0.5623336254427149,0.3959726595002629 m-18.420268354887124,13.199572905153559 l1.1261644577596406,0.22327899377633803 10.231079105609552,-0.9730816515929406 l2.330470720583653,-0.04004057083430585 m-14.27035676787643,-11.609339294845517 l0.5358483350952037,2.2412659438981546 0.06929127299310642,21.938060401982604 l0.13584546664602196,1.2187829775227756 0.29245676750896804,0.6178238399738475 l0.5573686553457888,0.4478636381771735 0.7615643124541956,0.2862483094073952 l2.233688858046922,0.2256254111789198 6.633589834155198,0.004064177695413578 l3.434924587286776,-0.4882807474069101 1.272615321563641,-0.7434595491283433 l0.43175297136893626,-0.9670474104852831 m-29.959841200979163,-32.36675468026688 l1.5437961606355548,0.9746382920361637 1.950594341566512,1.6948533064099152 l1.3296237267778517,1.5088082630197597 0.6193933051041769,1.3158306585104889 m-9.54250264747766,6.745446656387222 l3.932702463952945,1.8924151878384814 1.709910811267203,1.2815234810983838 l0.7250273301812717,0.854829179275336 m-7.652712974349215,13.018671144243163 l1.0600562439419803,0.25345128245566706 1.4643584761350572,-0.19680785061161457 l7.114514372163687,-2.8842737183778904 0.8449461578911025,-0.8983420252995974 l1.041398302073308,-0.3213165896268611 0.713013955544496,0.1835534184176392 l0.34943406900365165,0.46540022636282685 -0.05300018057361274,0.5987070794136953 l-4.04990655432756,5.585303185661209 0.30158004509673847,0.8713786816208914 l2.721969924724834,4.511935359892958 -3.492437758767116,1.1447378919600084 l-4.1607835983135795,2.180715620093351 m-2.9732654610095848,0.3521030922814518 l4.0456552334007645,-0.45628231915139955 2.985025443939198,0.057033672861500836 l32.680219359946946,5.9135005735021595 5.266852121690698,-0.5785636920004336 " fill="none" stroke="black" stroke-width="1" /></svg>