<?xml version="1.0" encoding="utf-8" ?>
<svg baseProfile="full" height="100.71567222830691" version="1.1" width="108.21768702964971" xmlns="http://www.w3.org/2000/svg" xmlns:ev="http://www.w3.org/2001/xml-events" xmlns:xlink="http://www.w3.org/1999/xlink"><defs /><rect fill="white" height="100.71567222830691" width="108.21768702964971" x="0" y="0" /><path d="M25,25 m0.0,0.0 m35.95115653635794,7.0727171015217145 l-0.021147438397666907,0.49351721096755435 -0.7506969120140523,1.480660459602879 l-3.572912813241623,3.543123052233726 -3.9369886401191505,3.024849107168205 l-4.784295024116942,2.9825610205113593 m-0.8229263156417741,0.032534075513702736 l0.6120934937314926,1.113088953378053 0.223266299212382,1.6441992668597953 l2.1306576129219965,29.32842198054992 m-0.9971664069512295,-20.225687531253364 l9.857289134107965,-1.7140065589584186 2.3814432070329343,-0.04470061014532308 m-10.67515439873914,20.264166922526556 l9.864937794494518,-1.0046240587940731 1.7769796960364088,0.007146218867789976 m6.349866526105472,-35.87116765990208 l1.6562225040794112,0.47817324665082983 0.889814243489337,0.01158707105782557 l10.33563351833589,-1.515110418522984 1.1394020219697265,0.35501685426024876 l0.6102123909957964,1.0223924590396674 -4.168447026883321,36.82148209085453 m-11.155695268446678,-21.53718503509863 l2.4301309092495655,0.41016118188983697 10.530065966871756,-1.0939974747972316 m-13.095106930053339,18.57280489036675 l2.6804916220754813,0.3182983830029019 8.51301940063291,-0.5321733029084117 " fill="none" stroke="black" stroke-width="1" /></svg>