<?xml version="1.0" encoding="utf-8" ?>
<svg baseProfile="full" height="105.72283261059275" version="1.1" width="96.8689842182221" xmlns="http://www.w3.org/2000/svg" xmlns:ev="http://www.w3.org/2001/xml-events" xmlns:xlink="http://www.w3.org/1999/xlink"><defs /><rect fill="white" height="105.72283261059275" width="96.8689842182221" x="0" y="0" /><path d="M25,25 m0.0,0.0 m24.250063534522635,4.561541524600887 l0.04708524130981643,0.38121087335612763 -0.1298116579967467,1.4398511329520283 l-1.0451649227374937,2.1682974633468732 -1.9964041364940555,2.7664751784659005 l-2.624716026620583,2.897364818228889 m-6.10630251419898,0.5538159266711231 l0.5579831668804635,0.9502757006543397 0.3007496022521296,0.996954855547729 l1.5262949021018781,15.567220102611733 m-1.3460332274145017,-16.425126680815605 l24.451067707225025,-2.535836014221322 1.5649036374087715,0.17630828251370512 l0.5400857584136373,0.7735806862317864 -0.040630464567025876,0.5693546116780265 l-2.7575900219126352,15.986156018974334 m-22.607064958118883,-7.502458440575886 l15.946509744425912,-1.406935311843056 m-15.248733148704044,9.122072780893662 l22.227445888547887,-1.621676777345502 m-16.299307210316634,3.8792530674677916 l-0.026994014643875144,2.1044916087285173 -0.6441975949077675,2.8186970301687735 l-1.207481998112526,3.3937304799356087 -1.7680297125523936,3.7447415425682573 l-1.7922134567263273,3.0746318483187944 -2.0955257096816413,2.9113169590180745 l-2.413693463146528,2.626059226855331 -1.9946793268309253,1.673307352237226 m18.730079809540342,-23.158409372907613 l0.4964165618329637,1.4436921288462612 0.1339645311348896,1.1887280814746648 l0.220634809614723,15.679557671432502 0.522566617240411,2.3397911334102743 l0.8853155444423741,1.4468152239751952 1.205701403948019,0.7686101544351428 l1.9052559976342567,0.36937174270220097 5.948472079671063,-0.0681708793011712 l3.5045035882174527,-0.5109595532908917 2.11193125751862,-0.6634652696384277 l1.2218108096758646,-0.7681287192071657 0.5184888477881638,-0.7102169713918406 l0.1962267425583561,-1.024350966287058 " fill="none" stroke="black" stroke-width="1" /></svg>