<?xml version="1.0" encoding="utf-8" ?>
<svg baseProfile="full" height="112.96190389576395" version="1.1" width="104.57232119973007" xmlns="http://www.w3.org/2000/svg" xmlns:ev="http://www.w3.org/2001/xml-events" xmlns:xlink="http://www.w3.org/1999/xlink"><defs /><rect fill="white" height="112.96190389576395" width="104.57232119973007" x="0" y="0" /><path d="M25,25 m0.0,0.0 m24.58521163935653,3.0913395617293014 l-0.12214056240504696,0.43077831905510433 -0.556251740824328,0.9242497703509279 l-4.361899727757192,3.060278017096764 -7.434773891354602,3.3970597670103153 m-1.5612257132136427,-0.6741404018455166 l0.6180193223372072,0.9830904412294966 0.31262700974491475,1.3530905078820457 l2.5468129632415906,19.711217420820915 m-1.1464265753845277,-12.691931389946655 l11.059157984264862,-1.9333305268192262 2.6816846741350777,-0.06498813924270767 m4.922230659307878,-11.384162764000136 l2.314585871953667,0.29156743855529677 10.72309080188422,-1.3134135784393333 l1.4186370714455032,0.2669288017045714 0.7940933974692249,0.903831271643057 l-2.648859897188841,24.038534919866024 m-13.026358629661535,-14.416774008345469 l2.264932063633207,0.32106674955877407 12.202125610542755,-1.2507317586037576 m-31.48446503552585,15.45618324683135 l29.65294041381596,-2.47916002134651 m-22.283940183287754,6.275076712247652 l-0.09291930122274795,2.4334050126310878 -0.8805765734444323,3.105478692380083 l-1.6178315151277884,3.9846740361914654 -2.277675898476499,4.392589816300754 l-2.2976675041572725,3.615998223911906 -2.6709264801742116,3.481828848154201 l-3.011031817956203,3.118040814661991 -2.4709272661262416,2.006708207492931 m24.841382731178292,-28.97515520974392 l0.7253643959147474,1.7149292113476655 0.19853010584442915,1.4110355150140208 l0.01774767490156098,23.48346062909656 0.6373660559922224,2.2822445250705807 l1.0527519647738677,1.1887557572012257 2.358623519378153,0.9947962975363858 l3.6419872396742585,0.4063165954651464 7.665374502394637,0.02113656605956425 l4.020567028381961,-0.5466633811541327 1.6998574549857104,-0.7725040605461697 l0.9838712219274004,-1.1488961606320152 0.4404478715303457,-1.5655922930202084 l0.13819826300861257,-2.7812758727302755 " fill="none" stroke="black" stroke-width="1" /></svg>