<?xml version="1.0" encoding="utf-8" ?>
<svg baseProfile="full" height="106.58138559342129" version="1.1" width="93.32241789186598" xmlns="http://www.w3.org/2000/svg" xmlns:ev="http://www.w3.org/2001/xml-events" xmlns:xlink="http://www.w3.org/1999/xlink"><defs /><rect fill="white" height="106.58138559342129" width="93.32241789186598" x="0" y="0" /><path d="M25,25 m0.0,0.0 m14.256519090478516,4.207108156210503 l0.023898227120838417,0.41283444092832006 -0.29392576026606054,1.0571440537243206 l-2.922462117271926,5.71939216600144 -2.8190221280152103,3.415227166943281 l-3.571736626413232,3.17308885964288 m8.816063816389503,-7.26926525571723 l2.5005672135704313,-1.7771238445184434 5.345838501799681,-2.48966909208074 l1.1408051784725888,-0.15288144124967185 0.6853316907140841,0.3186809697060941 l0.4391286242150873,0.536843864968088 0.07024815394323695,0.6894219992711472 l-0.28497538511680337,2.4030518989370915 -1.4522767598985054,4.891277058320083 l-1.88287647042784,9.00693054103571 -1.7341251386692214,7.151004685570659 l-1.4980709802062209,4.707902036398148 -1.708832104702206,4.549535589208397 l-1.8274009199662262,4.2055477397068595 -2.0299043297885437,3.638126328196063 l-2.2595494747499503,2.9906046688961685 -2.3146183796777575,2.3736310372305423 m5.16926008818224,-26.309923641269997 l1.4614695255063574,1.2353489273435876 1.6669648185769395,1.8205914263511018 l1.2762743445065001,1.7908269323241472 0.6089223184170648,1.256336425671999 m13.033133605423401,-29.446962365576333 l0.5320929107603886,1.4154368807451074 0.1984800387163952,1.990948593522122 l-0.0996644462773115,49.070368786979834 m1.9760082030933241,-34.81919602119851 l3.00140068247886,2.3435563598828524 3.4663350222961555,3.5928490559884487 l2.8881420784160547,3.7908665596735736 1.464974780235353,2.8837762721471805 " fill="none" stroke="black" stroke-width="1" /></svg>