<?xml version="1.0" encoding="utf-8" ?>
<svg baseProfile="full" height="109.27065437230965" version="1.1" width="105.21192719648579" xmlns="http://www.w3.org/2000/svg" xmlns:ev="http://www.w3.org/2001/xml-events" xmlns:xlink="http://www.w3.org/1999/xlink"><defs /><rect fill="white" height="109.27065437230965" width="105.21192719648579" x="0" y="0" /><path d="M25,25 m0.0,0.0 m13.521628113113039,15.869559105205969 l0.369583039075685,0.3973224794000906 0.5422220930861098,0.9963004771769702 l0.20333282666778796,1.0041306612286267 0.014053686358917244,12.877133985904385 l-0.7775378714611895,8.001249514640254 -1.337446659448855,5.847783802725762 l-2.0137553339854963,4.9893845722397785 -2.343439249208538,3.632075880843782 l-3.0911681069589374,3.110724089676158 -3.9372285085609975,2.5449898032678657 m14.478033152709875,-41.86335958893961 l18.123229407470653,-3.2225499723697184 1.4862873431382957,0.13057516450098824 l1.1770262568363983,0.6275850876700465 0.6230504933626776,1.177411321838895 l0.04002461967337758,0.7904623480219886 -1.8596920554426999,15.24487153962455 l-0.7366801044800277,14.707292520595702 0.30542037174662706,4.791333319609115 l0.9787971888903882,2.157584914641649 1.883381719723867,1.1128849028507122 l3.2659496037431825,0.5743122966891648 6.88773782791617,0.052371811483244095 l4.509735828960374,-0.5516322190591588 1.4925409163988437,-0.7771493218932233 l0.9641062368843647,-1.3285986951394964 0.3403015550540316,-1.6093503633111852 l0.10243280522188783,-2.3702287092341585 m-32.827101010428095,-18.96862325703381 l4.0799361152156575,3.670320506567113 1.7659985755453627,2.4619195189408605 l1.2016601572315024,2.3166375753799575 " fill="none" stroke="black" stroke-width="1" /></svg>