<?xml version="1.0" encoding="utf-8" ?>
<svg baseProfile="full" height="109.49251323007047" version="1.1" width="109.35330311069265" xmlns="http://www.w3.org/2000/svg" xmlns:ev="http://www.w3.org/2001/xml-events" xmlns:xlink="http://www.w3.org/1999/xlink"><defs /><rect fill="white" height="109.49251323007047" width="109.35330311069265" x="0" y="0" /><path d="M25,25.00000085413916 m0.0,0.0 m22.854280471801758,-8.541391594008019e-07 l0.013511448632925749,0.7622351497411728 -0.3388012573122978,1.3754157721996307 l-1.6646826267242432,2.9554659128189087 -4.4337397813797,5.916345119476318 l-4.716329872608185,4.771187901496887 -5.771621465682983,4.545260071754456 m17.831681966781616,-15.371742248535156 l1.9860701262950897,0.22038433700799942 10.764045715332031,-1.6911642253398895 l1.2869936227798462,-0.12821213342249393 0.8899961411952972,0.2483038604259491 l0.5142921581864357,0.5543528124690056 -0.012541511096060276,1.7439016699790955 l-3.0727604031562805,5.166019797325134 -3.310236930847168,4.625381529331207 l-4.069585204124451,4.926377832889557 -4.865023493766785,5.02310037612915 l-4.195180535316467,3.706512749195099 -4.680239260196686,3.558540940284729 l-5.179734230041504,3.3232298493385315 -5.696552991867065,3.0027446150779724 l-4.092682898044586,1.7799922823905945 m18.20125102996826,-28.456778526306152 l15.321576595306396,10.460883378982544 15.31038761138916,9.610947966575623 l5.550024509429932,2.7522751688957214 4.928904175758362,1.3830851018428802 m-34.55466032028198,0.0 l3.0085191130638123,0.9791401773691177 3.9685311913490295,1.758337914943695 l3.2550182938575745,1.8936780095100403 1.4100627601146698,1.2819409370422363 m-16.630585193634033,6.46744966506958 l5.764042139053345,2.1511849761009216 5.939803719520569,2.9323676228523254 l4.38213050365448,2.7504706382751465 2.763102352619171,2.5138962268829346 " fill="none" stroke="black" stroke-width="1" /></svg>