<?xml version="1.0" encoding="utf-8" ?>
<svg baseProfile="full" height="105.75036054719509" version="1.1" width="86.87481879020227" xmlns="http://www.w3.org/2000/svg" xmlns:ev="http://www.w3.org/2001/xml-events" xmlns:xlink="http://www.w3.org/1999/xlink"><defs /><rect fill="white" height="105.75036054719509" width="86.87481879020227" x="0" y="0" /><path d="M25,25 m0.0,0.0 m20.495636211259864,3.1004489708184204 l0.32342426772441707,0.4641126636625526 0.43824764867570903,1.7179297788538486 l-0.02646796405472761,6.259831271394314 m-15.195791701422724,2.195717314075553 l3.9440613962216147,0.1689778966486267 21.489468025467573,-2.5298969906972455 l3.020948501953266,-0.1704929533074829 2.385292404377285,0.236320009911962 m-26.308874948367084,7.752972086817429 l0.6150212611545552,3.5049313104473403 0.09995969378777729,9.031759597048536 l-0.3635002916603718,5.42093463687448 -0.905019323889677,5.198501396345867 l-1.1331653433568887,3.762423407654859 -1.4341686307708303,3.227902364758977 l-1.8597878577807205,3.072265111600464 -1.9783671574125543,2.4506538591329265 m8.795848668362787,-32.318096252334016 l2.2330717530453867,-0.8688019472598768 7.3719713919359195,-1.551227989799387 l0.843115560437019,0.06632550081076038 0.40870476444508813,0.31107975932209947 l0.287321162606096,1.2779671615891 -0.39593888345414485,7.1238510830945065 l-0.5699310514637709,6.4957330997395335 -0.6582177859524976,4.914055498592734 l-0.3649396496745848,1.6490682752040378 -0.4353277628330438,0.7745557049599544 l-0.4772239061770875,0.18572084905614433 -0.5154665992626702,-0.18550741164723664 l-1.1129847302117999,-1.2439112446528922 m-6.389743852374314,-17.521828257407872 l0.3339091678210064,1.6453943701763873 -0.01832925454708557,4.173680756379201 l-1.1460233486767593,6.56035063923302 m0.015298753220134827,-11.080163201482346 l0.02333438487589857,2.2604940063040315 -0.46369228153151154,3.2215689279747814 l-1.459312596110224,6.630329796373915 -2.0494121039832454,5.468405367201434 l-2.554512074699,4.411258107759115 m17.085985384135775,-25.337125401910143 l1.2181910478308438,0.16851430148842164 1.4919400104148608,-0.16944124077269593 l7.978075147663097,-2.2049319479774256 1.2139301651809058,0.8983018598432757 l0.03471982043185952,1.3377279760620864 -0.4524300976485213,4.717541897037215 l-0.9093234629170621,7.010560205828023 -1.0129405933965148,5.780461588821397 l-0.5131313992431471,1.6085418883258762 -0.4943922374840303,0.6203559943613344 l-0.5041561474877617,0.040421701635904604 -0.4985741716683901,-0.3741363851117496 l-1.0441292500076875,-1.7144942205543778 m-5.876322632893476,-20.222454691008174 l0.3912701912544635,0.8774609351985857 0.13016694659941622,1.1290675878871537 l-0.022152529327212525,34.31839416681182 " fill="none" stroke="black" stroke-width="1" /></svg>