<?xml version="1.0" encoding="utf-8" ?>
<svg baseProfile="full" height="109.49251364916563" version="1.1" width="107.85987935261801" xmlns="http://www.w3.org/2000/svg" xmlns:ev="http://www.w3.org/2001/xml-events" xmlns:xlink="http://www.w3.org/1999/xlink"><defs /><rect fill="white" height="109.49251364916563" width="107.85987935261801" x="0" y="0" /><path d="M25,25.0000012293458 m0.0,0.0 m8.471862077713013,2.5767558813095093 l0.4976286366581917,0.5889297649264336 0.8312360942363739,1.9837237894535065 l3.0751395225524902,19.872701168060303 m-2.047860771417618,-20.934360027313232 l26.843273639678955,-3.586963415145874 4.6118369698524475,-0.5007883906364441 l1.6426651179790497,0.2969643473625183 0.6979628652334213,0.4466962441802025 l0.9707342833280563,1.2948155403137207 0.16619062051177025,1.569850593805313 l-4.33434933423996,15.337450504302979 m-28.105645179748535,3.3683308959007263 l29.839987754821777,-2.5575652718544006 m-22.890162467956543,8.251808285713196 l0.019288298208266497,2.46927946805954 -1.2858551740646362,4.454135298728943 l-2.0540858805179596,4.7031378746032715 -2.9231441020965576,5.229817032814026 l-2.941630482673645,4.27983283996582 -3.4588775038719177,4.129676520824432 l-3.957638144493103,3.7644723057746887 -3.286084532737732,2.4538111686706543 m29.554390907287598,-35.44595003128052 l1.0673172771930695,1.8482811748981476 0.2773459255695343,1.7369844019412994 l0.09536566212773323,25.31907558441162 0.730031430721283,2.959739863872528 l1.1257953196763992,1.4249761402606964 2.564730644226074,1.0805220156908035 l4.116094410419464,0.4184475913643837 8.992780447006226,-0.02751176245510578 l5.183789134025574,-0.6885309517383575 1.8467719852924347,-0.8671716600656509 l1.1197588592767715,-1.303492933511734 0.6737228482961655,-2.5537896156311035 l0.12951219454407692,-3.6565709114074707 " fill="none" stroke="black" stroke-width="1" /></svg>