<?xml version="1.0" encoding="utf-8" ?>
<svg baseProfile="full" height="104.6932441502183" version="1.1" width="110.02093351840188" xmlns="http://www.w3.org/2000/svg" xmlns:ev="http://www.w3.org/2001/xml-events" xmlns:xlink="http://www.w3.org/1999/xlink"><defs /><rect fill="white" height="104.6932441502183" width="110.02093351840188" x="0" y="0" /><path d="M25,25 m0.0,0.0 m21.386040262602542,12.128915625893706 l0.051270266765944546,0.3861804780711016 0.025219390086017944,0.8592193612613065 l-0.660709913400979,1.6834159326398648 -2.589775188960696,4.283119963516115 l-2.947401317263767,3.5508778419231324 -3.602472024101942,3.0360260792757314 m9.958035094935823,-7.709334276707571 l10.686317843716672,-0.37587337548771593 14.950940057443965,-1.2439258450670985 l2.675186684009042,0.256854325274791 m-17.571416697296637,-8.92237207121727 l1.0552950739587366,1.2758627307498605 0.3059496567419029,1.3391573744374123 l-0.04333120517953239,18.346591799310144 m-26.978487432432903,1.8193586099393007 l1.8590654415071957,0.2954707230120675 2.8536297308534606,0.004234066489875207 l24.99840422626454,-2.515204392736848 15.382295597069838,-1.0715707548468236 l4.6655716028406236,-0.14818953159656212 3.5613063682420245,0.29121598580037855 m-34.36508055575962,4.036214036113364 l0.0038625878293723857,2.1111219086975623 -1.237185543936167,3.469050568457327 l-1.8786399640227969,3.5577138212129635 -2.6595634154286993,3.9089999129165176 l-2.7373159813230385,3.128733707099814 -6.436831022060073,5.184675078165713 l-3.0863470959002064,1.726704467620153 m29.136157128047397,-24.513203418267565 l0.5916542911999407,0.7198792128206755 0.3914844278399314,1.5389329323195562 l-0.09689056638842573,14.92566655693581 0.3828493995778211,2.2343807864310103 l0.8869912099722546,1.619709893554326 1.3905617063925908,1.0319709096247454 l2.800824245422219,0.6864199603118465 6.464277475786151,0.19252968477039467 l4.324296189636803,-0.30903337988314095 3.2187119336554075,-0.6149480722329252 l1.332063705800333,-0.8083404926204566 0.7060339211039287,-1.1923700771661874 l0.274153139390515,-2.361715667344296 " fill="none" stroke="black" stroke-width="1" /></svg>