<?xml version="1.0" encoding="utf-8" ?>
<svg baseProfile="full" height="128.19374594811518" version="1.1" width="113.39508475590674" xmlns="http://www.w3.org/2000/svg" xmlns:ev="http://www.w3.org/2001/xml-events" xmlns:xlink="http://www.w3.org/1999/xlink"><defs /><rect fill="white" height="128.19374594811518" width="113.39508475590674" x="0" y="0" /><path d="M25,25 m0.0,0.0 m21.71725453305441,9.455608792898627 l0.05254842295255484,0.46905392830295506 -0.2594340533210328,1.589430067305911 l-1.1162932114642847,2.527673922546363 -3.703898204949694,6.428381594010051 l-4.208107645448021,5.951148006887924 -4.162679217121874,5.044422357083269 m12.854474989196182,-17.358011075565514 l2.543287476828633,0.4833665765430045 5.922011327997343,-0.9513818279123876 l1.6304391230657078,0.7489649370185786 0.18367456516668434,0.6700478760902397 l-3.452583803569357,6.313228593321001 -2.980089177210128,7.87423435470335 l-2.658449570674924,6.183549320733897 -4.802622726509489,9.658155911212555 l-2.5452980467096684,3.8713114202515775 -2.673275720495668,3.232358802326533 l-2.7784172335951576,2.406999690731629 -2.2091810721355727,0.8680382225386631 m6.9082938508270235,-26.512223187056016 l2.9605002675072702,13.916823326928942 1.3362372921679448,9.691589009619271 l1.1094891363584287,7.660279207004836 m14.380716491650466,-36.536397490038475 l0.10961572037520718,1.7735862128629671 -0.3907743791200708,2.061710246358822 l-2.512490289418076,7.855638895821923 -2.947127421636916,7.113278963103929 l-3.156723008453125,5.663597309318605 m6.755683567819459,-10.547906275092704 l1.2346247627216762,0.16761600237358676 1.9560467567923412,-0.23273090683251776 l15.338123207866984,-2.84410886452838 2.7445418582106273,0.140555652377844 m-10.5174302608,4.646924947357789 l0.3244762827079332,2.2064020085142606 -1.6825175091415967,6.72102314024174 l-2.425729583556062,7.168915697517494 -2.9080601745229884,6.247001970439007 l-2.8763319121034217,4.789305523171823 -3.3480327793288893,4.420109539354155 l-3.750605115753525,3.895468686962571 -3.7475150522356024,3.2607048613054954 m5.912104273194819,-30.846800891241344 l7.781584679109701,0.8400266318106955 17.58125482085773,11.760555275856333 l6.259111266558276,4.466158161523215 3.6126572521944724,2.068898607446334 " fill="none" stroke="black" stroke-width="1" /></svg>