<?xml version="1.0" encoding="utf-8" ?>
<svg baseProfile="full" height="116.62871852775172" version="1.1" width="106.15960729892502" xmlns="http://www.w3.org/2000/svg" xmlns:ev="http://www.w3.org/2001/xml-events" xmlns:xlink="http://www.w3.org/1999/xlink"><defs /><rect fill="white" height="116.62871852775172" width="106.15960729892502" x="0" y="0" /><path d="M25,25 m0.0,0.0 m31.467296566237856,16.958391392788183 l0.47662034191006675,-0.011330759937086278 8.018051323722139,-1.2972980208009661 l2.8199184179915964,-0.1572152836560678 m-13.229732689836995,-5.657567103854769 l0.7879802746980811,0.9896059161218262 0.29601597225049103,1.2423292564647956 l0.09446205852492444,11.961675262647532 m-13.493242807785153,-8.43238012282309 l0.7326470117698936,0.8698564002599409 0.41146570463663684,1.2675812643628142 l0.31225718719083184,7.401959663281113 m-7.642509703532212,0.6602614864756301 l1.9168397392250898,0.3808602189123528 1.9746925936297526,-0.16821499247081573 l30.236057430106655,-3.4282967915590747 2.855868069467067,-0.08865303888256297 m-36.6022688086327,3.6951468710392263 l-0.1483611998902107,3.841684429893315 -0.6383288461333881,9.30451595017507 l-1.4550034847737296,11.161407794362798 -1.084341340044025,4.621244690037787 l-1.1329768752936575,4.155547334663149 -1.4825499718024964,3.974863052223726 l-1.3443914522448004,3.3827436580268837 m6.958667942612597,-33.759380649929625 l1.3822915369835853,0.24188275448507673 2.2735335678044666,-0.07399513849414983 l21.524321966292284,-2.558040123455352 2.3829467305144827,-0.22275760944695536 m-14.599169459089016,9.035803813575743 l10.14375987702068,-1.4113430088192438 3.7709117912900596,-0.2758155434765719 m-9.749237062717189,-4.313862371736248 l0.6371023476556344,1.481195348144232 0.022299492237136936,3.4213299713578373 l-0.08582494889077824,26.42821173738966 -0.1567287268538145,1.1604686170755192 l-0.3992978410394422,0.47706652989796444 -0.5531470683222706,-0.060518856781948197 l-0.6233296391612542,-0.42919841546437526 -1.6317613923239795,-1.832249519826476 m-3.3025171123998884,-13.179527508260579 l-0.33067530207949763,2.2627093133151432 -1.3218472682439482,3.58663130902934 l-1.8569588057422917,3.558261750649448 -2.0148314729446635,2.751444521774914 m16.004921699798206,-12.663941524349706 l1.26390252019874,1.7257063536803001 1.349356626950876,2.455259038156937 l1.287599066279748,4.108902608063021 m0.7838698487397772,-30.105170046893 l0.7788009269819129,1.0793605914911695 0.2897541872284894,1.073326277677554 l0.9420417380293661,7.793521148621923 1.7628602983825925,7.802436688042863 l2.192869673899746,5.784415755374939 2.2759723541593075,4.384315493672649 l1.9884748828287961,2.9239761976518084 2.217534280525332,2.5963640590790398 l2.435953212357287,2.2322175881881154 3.1882045506166987,2.007871805543496 l0.5109705701722351,-0.02970645838791544 0.2695461977813149,-0.36984615711022645 l-0.11482691377513464,-5.111203158855094 m-6.545611986472695,-32.64516056347146 l3.5262672765314704,3.049213951055084 1.9582565213164056,2.795317239059928 m-4.5543080700768686,5.72893863731847 l-0.06865235325977133,2.3731441630255325 -0.8769712675771496,2.9363732896297883 l-1.6520683111468366,3.793377280885406 -2.3339029408553933,4.205966562816512 l-2.3339164024186636,3.534896177909942 -2.685744528388912,3.477488340736306 l-3.0123800817548188,3.2673108312799073 -2.4493976421305663,2.2089434421561047 " fill="none" stroke="black" stroke-width="1" /></svg>