<?xml version="1.0" encoding="utf-8" ?>
<svg baseProfile="full" height="91.50893645821745" version="1.1" width="92.73441972815444" xmlns="http://www.w3.org/2000/svg" xmlns:ev="http://www.w3.org/2001/xml-events" xmlns:xlink="http://www.w3.org/1999/xlink"><defs /><rect fill="white" height="91.50893645821745" width="92.73441972815444" x="0" y="0" /><path d="M25,25 m0.0,0.0 m19.49315419424258,2.3740538618903617 l0.11670672184116382,0.4030076882899993 0.0742628347982555,1.7534071930994422 l-1.7886411575650079,2.6854988144464675 -3.230742613460234,3.237874496317581 l-6.14530892260253,5.00264517313364 m9.239955318209399,-11.369946444482402 l1.5866795563849656,0.21787709205862157 8.169316134061617,-0.9087291660823507 l1.8124815524887272,0.4140095033683767 0.23285706953518076,1.1370712840497428 l-0.3478129337883452,4.627148487121089 -0.9935901641663228,8.496548843609842 l-0.9749103831902348,4.133760745432439 -1.5102597219950982,4.001892434258929 l-0.8092682545364656,3.357692607813226 -2.6173494652084472,4.594052791522312 l-1.0341313322792112,0.001455042651334077 -1.239735279543378,-0.727559246155295 m0.5213490662648069,-19.944412936381706 l0.09897416309776588,0.8554030533934323 -0.227806589884408,0.831833368824445 l-3.7752582776740686,6.441541673307821 -2.8260397815070095,3.2758726540202208 l-3.871436230044819,3.2043260102464903 m18.563115630872932,-20.78499159084166 l2.1625647999693074,0.25361514559086495 9.901384156991044,-1.5052720393254508 l1.2130716929517977,0.12877052788056328 0.5078504450795945,0.25442117756789157 l0.3314465636439186,0.38074162261744077 0.10154093516695774,0.4961062458749774 l-0.4618829287044641,4.06157964532714 -1.0269334959593046,5.517057585826298 l-1.2554843509399634,4.4852008499934195 -0.5768882583634816,1.8189257807727748 l-0.5832720637635576,1.0731814656518228 -0.5846137955886249,0.46424595783804046 l-0.5726249734093183,-0.045518730156186245 -0.5270973639799279,-0.36761875137598515 l-1.0349071521988604,-1.2156973823627049 m-7.342392029262599,-16.15976350015407 l0.4627008928164182,0.744211136621117 0.2803917509195317,1.423347105710003 l-0.07027051671958408,32.39006917940709 " fill="none" stroke="black" stroke-width="1" /></svg>