<?xml version="1.0" encoding="utf-8" ?>
<svg baseProfile="full" height="109.49251314392313" version="1.1" width="107.65009841416031" xmlns="http://www.w3.org/2000/svg" xmlns:ev="http://www.w3.org/2001/xml-events" xmlns:xlink="http://www.w3.org/1999/xlink"><defs /><rect fill="white" height="109.49251314392313" width="107.65009841416031" x="0" y="0" /><path d="M25,25.000002644956112 m0.0,0.0 m1.9294655323028564,8.467398285865784 l0.5296744406223297,0.28523504734039307 2.339395582675934,1.664595603942871 l2.3240135610103607,2.154812067747116 1.8170776963233948,2.1798914670944214 l0.7349065691232681,1.3716696202754974 m-8.624598383903503,33.55674982070923 l1.196449100971222,0.18871638923883438 1.5017475187778473,-0.9218308329582214 l9.046432375907898,-15.476092100143433 m21.433091163635254,-33.4711480140686 l-0.07316881325095892,1.977919489145279 -1.1412746459245682,2.9881131649017334 l-2.429346740245819,4.938947260379791 -2.5952041149139404,4.401915967464447 l-5.263640284538269,7.299075126647949 -6.673764586448669,7.224839925765991 m18.041034936904907,-26.109206676483154 l18.86664390563965,19.68255639076233 2.441719025373459,2.2173430025577545 l2.2494445741176605,1.3715024292469025 m-31.266844272613525,-3.507087230682373 l2.5831660628318787,0.24754298850893974 13.941740989685059,-1.6857458651065826 l3.6776262521743774,0.1438453607261181 m-19.453498125076294,7.388691306114197 l2.30495348572731,0.5778267234563828 0.9724074602127075,-0.03634406253695488 l12.966657876968384,-2.801356017589569 1.4673052728176117,0.025079285260289907 l0.6834940612316132,0.2870742231607437 0.4601212590932846,0.6149440631270409 l-0.06432836409658194,2.31699138879776 -1.239250972867012,6.568431854248047 l-1.2074840068817139,4.527646601200104 -1.503419429063797,3.96587073802948 l-1.0466421395540237,1.600392758846283 -0.5183052271604538,0.30095141381025314 l-1.168694645166397,-0.28145749121904373 -1.5328459441661835,-1.3051259517669678 m-5.644510984420776,-15.67622423171997 l0.8399888128042221,1.0366104543209076 0.3929087892174721,1.3603003323078156 l-0.12327251955866814,27.83064842224121 " fill="none" stroke="black" stroke-width="1" /></svg>