<?xml version="1.0" encoding="utf-8" ?>
<svg baseProfile="full" height="193.59314436292377" version="1.1" width="120.14477213810979" xmlns="http://www.w3.org/2000/svg" xmlns:ev="http://www.w3.org/2001/xml-events" xmlns:xlink="http://www.w3.org/1999/xlink"><defs /><rect fill="white" height="193.59314436292377" width="120.14477213810979" x="0" y="0" /><path d="M25,25 m0.0,0.0 m25.974188544291227,1.234403596915975 l0.0025497124742125763,0.4598056476331071 -0.13759867337251855,1.746386778334701 l-0.966486035495856,2.5773934216991123 -3.6476050500819412,6.075176136521787 l-4.848372060031199,5.8909509308752925 -5.20409310303633,4.732226183009067 m14.340970337031846,-12.530444786833815 l1.5376591141323683,0.22730053626143962 2.025117976973187,-0.18226985179681982 l21.93115920400672,-2.988153892141299 1.3802815385516845,0.1992823644933188 l1.0339303907589992,0.7863422761527792 0.26966857956177087,1.3176290484882138 l-0.2226724344484552,1.8109126880541209 -4.947369187976722,8.250279546728859 l-4.218529680291336,9.906503551048274 -0.9371008100512774,2.8340955514604786 l-0.34123654497346667,3.762313584208739 0.19481194448352104,4.1543931658798945 l0.5296945337481792,4.9997993873612305 0.7489002567241052,5.474075695250711 l0.8193584940539786,6.065276444547536 0.8896154482254182,8.460222582401313 l0.7487324205644184,8.139013381342322 0.6923278090525276,8.14970777822417 l0.7047241704324516,7.593569671834788 0.778397880221671,6.4006592236439195 l0.9290163923172395,6.365543471650388 1.0482801261556904,4.526885551579993 l1.3207227353059707,4.233221685558581 1.5635579263481358,4.0275627666796385 l1.7726215019711913,3.9815144957800372 1.9159424656010327,3.6708795122933373 l2.0550689979272136,3.434090891665457 2.1156252351849485,2.8904741030618273 l2.141371200847665,2.3673902187575755 0.9047406216055404,1.654734041291727 l0.8712595381836581,2.407187002066086 0.7200413081142057,2.8164866373487767 l0.5809471089098038,3.05937634817074 0.4085504571401465,1.2109751845430925 l0.38918012079106623,0.6605629921783535 0.4365590372962526,0.45239487417954005 l0.48442384764297214,0.26744907750015806 0.49729607897972355,0.01956486701929253 l0.451192925913731,-0.29538393864334933 0.3154959768616109,-0.6614448314201734 l0.09185375948281689,-2.0220498066835066 -0.3127276775864961,-4.750763574601162 m-36.84969507693316,-31.795053572434078 l2.7167647294375974,1.9690901499729263 3.324249263084478,2.4999562650351805 l2.44945076939144,2.275478792162182 1.3625606106741774,1.7437904776743973 " fill="none" stroke="black" stroke-width="1" /></svg>