<?xml version="1.0" encoding="utf-8" ?>
<svg baseProfile="full" height="104.7323044801688" version="1.1" width="111.17108740034396" xmlns="http://www.w3.org/2000/svg" xmlns:ev="http://www.w3.org/2001/xml-events" xmlns:xlink="http://www.w3.org/1999/xlink"><defs /><rect fill="white" height="104.7323044801688" width="111.17108740034396" x="0" y="0" /><path d="M25,25 m0.0,0.0 m13.341036037094591,21.04480405912657 l0.47639696329887915,0.1017010185602184 2.359061084392949,0.039624458745516386 l9.706099982329413,-2.246205719606586 1.625980048230909,-0.11495485429867555 m-6.741525389622832,-12.502712548627558 l0.631101075670518,0.9274101078253503 0.2494111145347501,1.7768560434252803 l-0.13344429127075177,43.66950201660568 -0.35112135695683805,1.42025551870359 l-0.4952645754410977,0.6153963901338719 -0.6021091743252212,0.0006279895755395906 l-1.2877365833770023,-1.1409239684255743 -1.4621976287424048,-1.9675970849843811 m-5.307741992909777,-12.870771600160516 l0.9208756649579194,0.3549595129627184 1.2081871526885786,-0.4538249625269496 l11.738145749156827,-9.499174245958045 m14.009909102805128,-21.49674740926985 l-0.20549525198694008,1.8027482710851341 -3.244443354763903,7.044865839696632 l-3.0202905750701907,5.0747135487378126 -3.46327419171902,4.690906252892645 m10.8918002917822,-9.440817495538667 l3.5401336858962433,-0.042330825811535876 14.16304937804123,-2.218264418643061 l2.6245444356498084,0.10702681454020296 m-24.367224321812632,14.586336341025971 l2.455631195999932,0.1614326534336404 19.210251064590025,-2.0997048293487683 l2.3599020216696895,0.17078578037452807 m-13.475800455719055,-8.686452990224822 l0.4914584047087484,0.7234443172871382 0.23941081840100317,1.0523243637000441 l0.0010658409190841393,19.325337302428114 m-10.356852612465133,3.891453820309743 l1.0921320998657418,0.348483596455091 1.503092827956926,-0.03273355604221245 l15.895859702899955,-2.2386387937429824 2.385293515813337,-0.05795656043848693 l1.969735965953955,0.2869144028867234 " fill="none" stroke="black" stroke-width="1" /></svg>