<?xml version="1.0" encoding="utf-8" ?>
<svg baseProfile="full" height="106.84530242937082" version="1.1" width="107.86355117699397" xmlns="http://www.w3.org/2000/svg" xmlns:ev="http://www.w3.org/2001/xml-events" xmlns:xlink="http://www.w3.org/1999/xlink"><defs /><rect fill="white" height="106.84530242937082" width="107.86355117699397" x="0" y="0" /><path d="M26.446389814986883,25 m0.0,0.0 m14.111059512972401,3.9299273011628637 l0.019853979999891972,0.488568791237008 -0.31958302015508494,1.8609527424234733 l-1.1243293168545836,2.6533424956549445 -3.96528092318324,7.010656327425366 l-4.809267885841232,6.8943806964211625 -5.358842161925037,6.1821778245069146 m10.535893299142165,-11.130325871281551 l0.6622847783089665,0.8585643863751127 0.25109540634296046,1.645968411876163 l-0.05290046291270549,30.304756067946823 m11.80984002449821,-47.37158323889895 l3.553202470572481,0.16870681906376633 22.639000187877322,-2.0684443380351647 l5.616045089743525,-0.20660043476394602 m-31.446090593900955,9.822094310726435 l3.356987035338966,0.7256374887006561 22.147490190222488,-2.2167386480765336 l3.6840381925214274,-0.1407819082159248 1.1053309235735362,0.3244611677309204 l0.7554707433772219,1.041191990578777 -0.04481742300575867,0.6464770728585586 l-2.091304777972659,6.515184293796828 m-26.85437665093963,2.7317409423741266 l28.00821376899949,-2.293851856117634 m-29.28615082169554,-6.44300278286997 l0.48133469132608275,0.9958609050707706 -0.28733328024282345,5.849515855055911 l-0.6477961908296129,10.635839940564424 -0.8671227420230445,6.992820469849975 l-1.0193819836009874,4.734145978928191 -1.4285570433585508,4.475807395530776 l-1.8941420206165278,4.111746762049395 -1.80318592026677,2.7559687934388375 m8.743965230278988,-17.98486171224008 l0.4310517858847894,1.0508804919755292 0.14864487713763586,21.294117496546864 m0.344595706354385,-21.801516924324343 l28.10802721954842,-2.6213952942247087 0.9566240510141257,0.06633004514338336 l1.3001963184581524,0.4118446745900752 0.8457211140348426,1.2220149824391775 l0.1016579838033434,0.8292862702684811 -0.2932223059020035,19.1644846378356 l-0.3014744730559644,1.4849604314063936 -0.5604892864060809,0.6246668671157927 l-0.7207965073269974,-0.04036477004150643 -2.237617364877999,-1.4459097078936638 m-26.68257296171511,-10.44352524076491 l18.507863355414752,-1.5384112389860851 11.316674589151399,-0.6302059641208594 m-21.445476082575787,-6.404832230506841 l0.614548515496775,0.28372315704855755 0.5441412560189081,0.8208522778686735 l-0.10888364173557204,18.91819701394527 m8.888003423132318,-21.1915195104666 l0.5397853214455672,0.4690861057711308 0.44746530432489245,1.1760833685329386 l-0.4646169062628936,18.67697665414852 " fill="none" stroke="black" stroke-width="1" /></svg>