<?xml version="1.0" encoding="utf-8" ?>
<svg baseProfile="full" height="109.49251481331885" version="1.1" width="107.557019777596" xmlns="http://www.w3.org/2000/svg" xmlns:ev="http://www.w3.org/2001/xml-events" xmlns:xlink="http://www.w3.org/1999/xlink"><defs /><rect fill="white" height="109.49251481331885" width="107.557019777596" x="0" y="0" /><path d="M25,25.00000085681677 m0.0,0.0 m4.827774167060852,3.573022782802582 l0.7736701518297195,0.19671883434057236 2.107396572828293,0.3344026207923889 l3.951854109764099,-0.20731456577777863 33.58085632324219,-3.6910513043403625 l4.843206107616425,-0.20577922463417053 3.0663281679153442,0.3037198819220066 m-50.90687274932861,20.917057991027832 l1.097780466079712,4.279654026031494 0.5372385680675507,6.371903419494629 l0.7513878494501114,27.13205337524414 m-1.5908397734165192,-36.58931493759155 l50.512661933898926,-5.368695855140686 1.7764894664287567,0.20057238638401031 l0.6994879245758057,0.3988751024007797 0.9214519709348679,1.3915963470935822 l0.18225137144327164,0.9911677241325378 0.4248971492052078,13.004804849624634 l-0.45438434928655624,11.29977822303772 -1.1502129584550858,9.366379976272583 l-0.9218403697013855,3.9545732736587524 -0.6058862432837486,1.178371086716652 l-0.6905549764633179,0.5915158987045288 -0.7651256024837494,0.06850204430520535 l-0.8288213610649109,-0.39013635367155075 -2.762996554374695,-3.2795533537864685 m-21.277482509613037,-52.29886054992676 l1.267506331205368,1.6405536234378815 0.5218972265720367,1.9388361275196075 l-0.5965709686279297,50.50663948059082 m-12.552720308303833,-20.618774890899658 l-2.7167782187461853,5.032739639282227 -2.0732183754444122,2.615797519683838 l-1.5500590205192566,1.4269398152828217 m0.7794959843158722,-16.890244483947754 l1.1057423800230026,0.7398803532123566 9.428521990776062,12.217152118682861 l1.8432924151420593,2.0685578882694244 1.1612819880247116,0.6839523464441299 m16.87781572341919,-11.670302152633667 l-1.351398229598999,2.6612389087677 -2.3975230753421783,3.4807389974594116 l-2.1951724588871,2.4845220148563385 -2.18429759144783,1.8409621715545654 m3.1661441922187805,-16.293678283691406 l1.2486694753170013,0.707838237285614 3.572981059551239,4.913504421710968 l3.7693116068840027,4.149543941020966 3.5603585839271545,3.14284086227417 l3.167697489261627,2.000201493501663 " fill="none" stroke="black" stroke-width="1" /></svg>