<?xml version="1.0" encoding="utf-8" ?>
<svg baseProfile="full" height="115.53023921459504" version="1.1" width="102.25066728772903" xmlns="http://www.w3.org/2000/svg" xmlns:ev="http://www.w3.org/2001/xml-events" xmlns:xlink="http://www.w3.org/1999/xlink"><defs /><rect fill="white" height="115.53023921459504" width="102.25066728772903" x="0" y="0" /><path d="M25,25 m0.0,0.0 m26.91629029017588,5.078581801331965 l0.39958979532411015,0.30790309184952414 0.9832267021616587,1.7987788500777386 l0.23051323249611538,2.1800841082907993 -0.600207235759256,10.204371698979582 l-1.1954949383270363,7.551489750005256 -2.173727754202737,6.592717783038677 l-2.7934119044688996,4.806761510902733 -3.376717149989282,3.813999519142676 l-4.259394762755319,3.213693908541971 -5.402150097659667,2.7186509237711913 m-1.269513463753234,-27.414033052330247 l4.917959788093189,0.124949090035692 4.640395088258518,-5.228521770543623 l4.718743844525847,-8.01458144138753 4.24750300158087,-2.2722267659761233 l4.027479691134767,0.586832683060906 2.3936415083886367,1.497652877259289 l1.6735255675173004,1.8180189505035311 1.4255191061575285,18.585141853991384 l1.102955480965755,7.402277884746756 1.0660382680153486,5.374984109624151 l1.128783422896369,4.976416590618127 1.3756084363425762,4.009787279108568 l1.7677916119553663,4.050405766388813 1.979795533651966,3.7238957697966533 l2.124767003485507,3.137285693089292 2.305900602365166,2.5501896686080805 l0.8387791076074502,1.0850342462670082 1.0575914632027492,0.8328063587131471 l0.6986421068067394,0.37655714725496453 0.5820367579563885,0.060333329834084216 l0.5343199601782878,-0.7835955744964849 0.18388722340038652,-4.83778646581826 l-0.195605029387366,-3.4905241064639085 m-33.10024546559364,-27.862715354354776 l3.413260019374934,1.1048838275897948 2.7695301067349476,1.4515811355614046 l2.1114766197621657,1.5292355799613726 0.9258501081992176,1.5393962254590747 " fill="none" stroke="black" stroke-width="1" /></svg>