<?xml version="1.0" encoding="utf-8" ?>
<svg baseProfile="full" height="106.91677227596068" version="1.1" width="106.58914775197448" xmlns="http://www.w3.org/2000/svg" xmlns:ev="http://www.w3.org/2001/xml-events" xmlns:xlink="http://www.w3.org/1999/xlink"><defs /><rect fill="white" height="106.91677227596068" width="106.58914775197448" x="0" y="0" /><path d="M25,25 m0.0,0.0 m6.8489452176008365,20.276455123064057 l0.625477661851041,0.09167500346156594 3.1164519314370556,-0.01750906981120427 l11.809475774419358,-2.3292890329491276 1.7622887545161863,-0.07955357409374389 m-8.073748813040051,-14.408946970160672 l0.7755809737766598,1.0337766162344335 0.36179209805970264,1.9589076976614297 l-0.14681920563554832,47.99766218067116 -0.39809360871454424,1.612030133547232 l-0.5939078216192012,0.7420024468937109 -0.7268290268433409,0.039561721441828415 l-1.5630740390402842,-1.224194550976332 -1.8011412230120205,-2.1882626278126267 m-6.669762047872823,-13.83212075946256 l1.6155880956674835,0.329950395005882 1.1640903637743172,-0.5690033868096254 l13.774138032801835,-11.307441333921012 m15.996349107613145,-22.560132581327757 l-0.18210546478837344,1.9832103270844004 -3.69826468682816,7.6559582574935785 l-3.5958347386977887,5.694344063498777 -4.289372079250344,5.383616632332103 m7.98799151410972,-9.218441428756007 l1.197001541887909,0.1955927757158653 2.308117965236869,-0.2056861223851883 l16.237888428763476,-2.7995528609831353 1.1275546999006718,0.06750359296347253 l0.9905300380881771,0.6100791236329554 0.3628661756466362,0.548131216969656 l0.26597213216588933,1.4232659114227764 -0.10613811067533661,2.960021682615114 l-1.6050759721972379,14.21776235777069 -1.4211299902043677,7.625482458568724 l-1.9040490365875202,9.983736338765281 -0.8050818659591427,2.5132550949328425 l-1.0079494117128813,0.818055536901891 -1.1290750401189487,-0.42369488545610434 l-2.2481926984558043,-2.1483994147422814 m-17.69205406600734,-26.71392893662599 l0.4594944127558233,0.7445476838569673 0.23515395320997112,1.5256833380160264 l-0.01029312366982149,19.566381586771328 m0.4283373719132751,-20.732130490176168 l12.047423712407186,-1.763150117821561 1.4106215906533883,0.5374254195681086 l0.33984677150895465,1.1206351803466408 -0.05283764546241824,19.88784822683466 m-12.699838960524605,-11.027275347896053 l11.67072995986763,-1.1439194810737223 m-11.589124311415834,10.803571246306793 l11.488370102839497,-1.028900455932466 " fill="none" stroke="black" stroke-width="1" /></svg>