<?xml version="1.0" encoding="utf-8" ?>
<svg baseProfile="full" height="102.91431355872945" version="1.1" width="111.17096936139272" xmlns="http://www.w3.org/2000/svg" xmlns:ev="http://www.w3.org/2001/xml-events" xmlns:xlink="http://www.w3.org/1999/xlink"><defs /><rect fill="white" height="102.91431355872945" width="111.17096936139272" x="0" y="0" /><path d="M25,25 m0.0,0.0 m6.296652431480285,20.774395896080183 l0.579939051202565,0.09157707567316042 3.0263204705451465,0.04926870413917905 l11.434950313219279,-2.070545878008212 1.6424214084427535,-0.12321951690439155 m-7.08024098001681,-12.47890838781205 l0.692246156713784,0.9113099239688723 0.2790532240288092,1.7254724031871371 l-0.1350582588483152,41.81119751191215 -0.3892074597744963,1.3499076297493078 l-0.5523524932973776,0.5933910790364852 -0.6779668836731951,-0.01149382819160965 l-1.474631223055667,-1.0929999430562218 -1.669565551791308,-1.8935844404559028 m-6.213372120464134,-11.87370538005165 l1.2080891350834972,0.27643180608861345 1.2156377402580631,-0.5624808995389966 l13.167125022151506,-9.762834289771064 m16.01744743327937,-19.546993085822496 l-0.15598635853555534,1.7716686638856987 -3.7606121617333614,6.946315284827646 l-3.602589153602186,5.080786421540667 -4.238861237163797,4.770016173472208 m12.701239438638334,-8.998317379797292 l3.6600014578536815,-0.0822342680173755 16.291902783936052,-2.2628412623603675 l2.9083871765158045,0.0547803286289269 m-27.502773430839337,3.5418764720656872 l0.6969734557909657,1.0472368224732664 0.1878500417353593,1.6204722093537929 l-0.15895539331965294,31.258367712434094 m0.06081701534870275,-31.134292789612775 l18.694170661300657,-1.8613078035187707 1.7269744941091087,0.18964155010515066 l0.9164339226696352,0.8054293996324147 0.324059607400431,1.4816780170426085 l-0.06619429508459444,29.129323487043006 -0.41329112820674035,0.8945911759751516 l-0.6302636293215477,0.3231815019992769 -0.7639302782423009,-0.09881543806282327 l-3.3261331152450304,-0.9709639064749466 -1.8296684965071048,-1.1290054397492166 m-15.801042906151386,-20.44746060852977 l20.981200704339702,-1.7199657339051517 m-21.08043584270793,9.90592212769856 l21.079740646850205,-1.5783652712097718 " fill="none" stroke="black" stroke-width="1" /></svg>