<?xml version="1.0" encoding="utf-8" ?>
<svg baseProfile="full" height="109.49251456186175" version="1.1" width="107.38653680309653" xmlns="http://www.w3.org/2000/svg" xmlns:ev="http://www.w3.org/2001/xml-events" xmlns:xlink="http://www.w3.org/1999/xlink"><defs /><rect fill="white" height="109.49251456186175" width="107.38653680309653" x="0" y="0" /><path d="M25,25.00000216482931 m0.0,0.0 m31.4597749710083,-2.1648293113685213e-06 l0.4732019826769829,0.5398604646325111 0.6237329542636871,1.1760461330413818 l0.2981090173125267,2.2667548060417175 0.14251913875341415,51.240782737731934 m-19.350005388259888,-38.160884380340576 l0.6341712176799774,1.1767785996198654 0.16096925362944603,1.85361847281456 l-0.9666395932435989,5.737757086753845 -1.1188187450170517,4.313023686408997 l-0.08863380178809166,1.0101324319839478 0.3849344328045845,0.7032103836536407 l0.8665602654218674,0.0797521136701107 8.19899320602417,-1.760406643152237 l9.57025408744812,-1.2391336262226105 24.213876724243164,-1.7111451923847198 m1.1178115010261536,-14.286891222000122 l0.6024901196360588,1.3258445262908936 0.16323545947670937,1.5071409940719604 l-1.6884373128414154,13.480396270751953 m-44.864821434020996,14.064207077026367 l0.7682207226753235,1.1577332764863968 0.2757445350289345,1.3591738045215607 l-1.0783016681671143,6.569523215293884 -1.2558896839618683,5.120983123779297 l0.2315649762749672,1.5188610553741455 0.5523131415247917,0.4493953660130501 l9.237694144248962,-1.8973404169082642 9.219381213188171,-1.2840914726257324 l13.287745714187622,-1.247832179069519 13.618841171264648,-0.8318118005990982 m-0.007502513471990824,-14.09936785697937 l0.8722372353076935,1.8001453578472137 0.21467143669724464,1.42070472240448 l-0.5690521746873856,14.683544635772705 " fill="none" stroke="black" stroke-width="1" /></svg>