<?xml version="1.0" encoding="utf-8" ?>
<svg baseProfile="full" height="100.21921471917457" version="1.1" width="103.18665715312434" xmlns="http://www.w3.org/2000/svg" xmlns:ev="http://www.w3.org/2001/xml-events" xmlns:xlink="http://www.w3.org/1999/xlink"><defs /><rect fill="white" height="100.21921471917457" width="103.18665715312434" x="0" y="0" /><path d="M25,25 m0.0,0.0 m22.42558916700914,4.159818790732437 l-0.004591698328787609,0.5319479143432523 -0.28744459506290243,0.9879242582252515 l-1.1680412437316365,1.9859966335465484 -3.5823777505608523,4.489433646227127 l-3.8971681369058078,3.613110773319768 -4.818469512978159,3.362865351547296 m14.739200517969847,-11.201481870985637 l1.720570815171633,0.14070068008742304 9.291798472725898,-1.421278787070684 l1.242614316344723,-0.05627024000847411 0.6825269470724241,0.24229923456414942 l0.330566940578749,0.4653843574171533 -0.3766276953657696,1.3513842974567072 l-2.1184962630775153,3.790798130934163 -2.7839203387152343,3.643586294111738 l-3.3924915493673455,3.649177886322298 -4.002979018465418,3.734109189197724 l-3.4613872192015376,2.819925841810438 -3.825665759844914,2.7148819478910204 l-4.177759052939097,2.5352471474723224 -4.502491914830665,2.2525155894182576 l-4.712483368660749,1.4086083314969915 m15.757311618283145,-20.720368980747192 l12.047352034850359,7.449119626284826 13.225687700990546,7.517242593223452 l4.743327213818511,2.1209497809101783 4.092506526345754,1.0456054424573764 m-28.85062556174712,-0.024360630630735087 l2.4542081357774777,0.7671422835987222 3.255636605538204,1.3866512403745928 l2.646277638237766,1.4828640884962387 1.1552415069725974,1.0130446480358768 m-13.81502938929968,5.080842108465416 l4.77977529833175,1.6027383034731306 4.9990107775446795,2.2692898620683506 l3.699922501517443,2.1025659039205578 2.3055930763652746,1.9252030511865075 " fill="none" stroke="black" stroke-width="1" /></svg>