<?xml version="1.0" encoding="utf-8" ?>
<svg baseProfile="full" height="109.17914836201817" version="1.1" width="109.49251221027225" xmlns="http://www.w3.org/2000/svg" xmlns:ev="http://www.w3.org/2001/xml-events" xmlns:xlink="http://www.w3.org/1999/xlink"><defs /><rect fill="white" height="109.17914836201817" width="109.49251221027225" x="0" y="0" /><path d="M25.000000081490725,25 m0.0,0.0 m27.33027458190918,0.5601166933774948 l0.4133381322026253,0.48566296696662903 0.8782029896974564,1.9508960843086243 l0.1895715668797493,1.607634276151657 -0.023023083340376616,20.430071353912354 m-20.817553997039795,-16.1288058757782 l2.6951295137405396,2.3475584387779236 2.7970588207244873,3.3142000436782837 l2.2542479634284973,3.4670937061309814 0.9794764965772629,2.3372529447078705 m30.410895347595215,-15.876981019973755 l-0.4641154035925865,2.959321141242981 -2.0198482275009155,4.43317323923111 l-2.75208979845047,4.229314625263214 -3.4981971979141235,3.8275939226150513 m-38.37336778640747,8.328220844268799 l2.519751191139221,0.3543165698647499 3.063124120235443,-0.05297593306750059 l27.889645099639893,-3.0189985036849976 13.96580696105957,-1.2120962888002396 l6.049051880836487,-0.26908082887530327 3.9718684554100037,0.4305996000766754 m-34.91976499557495,5.31830906867981 l0.05931430961936712,2.0681896805763245 -1.7454448342323303,5.795727968215942 l-1.8041853606700897,4.5111194252967834 -2.4586686491966248,4.618294537067413 l-2.5737136602401733,3.6821946501731873 -2.352617233991623,2.7086201310157776 l-3.7818753719329834,3.4873297810554504 -3.3771562576293945,2.4852751195430756 m28.204424381256104,-30.98649501800537 l0.7586609572172165,1.8560868501663208 0.20067322999238968,1.5435537695884705 l0.13007866218686104,20.715622901916504 0.6613222509622574,3.090105652809143 l1.037842258810997,1.5720339119434357 2.3766006529331207,1.2951011955738068 l3.8208484649658203,0.6006143987178802 8.792897462844849,0.09258418343961239 l4.625039994716644,-0.47315601259469986 2.1809862554073334,-0.7279323041439056 l1.3138382136821747,-1.0985500365495682 0.6584180891513824,-1.5150734782218933 l0.22574568167328835,-2.746843695640564 " fill="none" stroke="black" stroke-width="1" /></svg>