<?xml version="1.0" encoding="utf-8" ?>
<svg baseProfile="full" height="121.92600161306804" version="1.1" width="116.61304999380917" xmlns="http://www.w3.org/2000/svg" xmlns:ev="http://www.w3.org/2001/xml-events" xmlns:xlink="http://www.w3.org/1999/xlink"><defs /><rect fill="white" height="121.92600161306804" width="116.61304999380917" x="0" y="0" /><path d="M25,25 m0.0,0.0 m28.819045047940772,5.615281544963828 l0.41150956803757355,0.29986714241561796 1.0395898392280452,1.970898772205151 l0.15819631344622312,2.4440286065236783 -0.6381567538626761,10.461912267967346 l-1.3534133641177286,7.495322324491793 -2.238995323025342,6.429532670693057 l-2.7110248662709036,5.527200948151531 -3.335173354823894,8.848893673156159 l-2.7981537829889125,6.875700320105129 -2.8846479272862235,6.220006266013907 l-3.45825499961779,5.363887331372159 -3.727029917544789,4.373469745008687 m-4.869003198780031,-35.2433154880985 l3.7575154291276274,0.6946207954701223 4.004135414737894,-0.203879104318012 l32.361482610040916,-5.010415170770603 1.8642324731700561,0.4112171860760591 l0.8071708742597075,1.2959094933287096 0.012502717474469282,1.6788541728452546 l-0.42914234629317166,24.638127919051772 1.466734356226379,4.847584294922309 l1.9457072853421116,2.639333956440131 3.304735377361628,1.915713273388856 l10.711748344254952,2.3071792657058237 2.467499003372843,-0.4973587496768135 l1.2403689020690318,-1.2758231585111885 0.5120628142406012,-1.3359079982686708 l0.17180945808980375,-2.765194577579595 " fill="none" stroke="black" stroke-width="1" /></svg>