<?xml version="1.0" encoding="utf-8" ?>
<svg baseProfile="full" height="125.14444096712212" version="1.1" width="94.47637546236791" xmlns="http://www.w3.org/2000/svg" xmlns:ev="http://www.w3.org/2001/xml-events" xmlns:xlink="http://www.w3.org/1999/xlink"><defs /><rect fill="white" height="125.14444096712212" width="94.47637546236791" x="0" y="0" /><path d="M25,25 m0.0,0.0 m30.725888700384967,8.288741165920253 l0.3053230472504605,0.36087976276557215 0.5849529287640929,1.7838496440644314 l-0.11311744121099014,3.1556977901623475 -1.0012876745575132,10.533458267360027 l-1.5143161457163592,7.178271569760556 -1.9053198942090115,6.129910140982404 l-2.1692159119294616,5.657447934011193 -2.327167774835944,9.685367152551962 l-2.1869530606430585,7.131627043821749 -2.504635737609666,6.00231625875297 l-2.7137728910576775,4.8077112376639555 -3.207156505633774,4.429162999304703 m-3.8336986239139015,-33.98097987725075 l3.414484431414327,0.8037046882980382 4.506378412072399,1.0221811268413887 l23.84438203101236,-4.146516907932891 3.4555064871283956,-0.011852218984136501 l0.7697171409383309,0.5546481450123183 0.303183607142098,0.6306664821214983 l0.04320033757785117,1.369123070748824 -3.902809835398398,22.748554772338267 l-1.729616852504311,6.1459798127269964 -1.0250801016046476,2.32867576452091 l-3.518716052550992,2.0258743633970653 -2.2624027656500525,-0.07439337983973504 l-2.279439584397839,-1.0219206627641817 " fill="none" stroke="black" stroke-width="1" /></svg>