<?xml version="1.0" encoding="utf-8" ?>
<svg baseProfile="full" height="97.80160233885275" version="1.1" width="103.51855674167524" xmlns="http://www.w3.org/2000/svg" xmlns:ev="http://www.w3.org/2001/xml-events" xmlns:xlink="http://www.w3.org/1999/xlink"><defs /><rect fill="white" height="97.80160233885275" width="103.51855674167524" x="0" y="0" /><path d="M25,25 m0.0,0.0 m23.292024345865823,5.031151274519123 l0.041094715133697425,0.38107072369631245 -0.15139664356785085,1.3470046792758028 l-1.0029909389771614,2.2642531786536844 -3.43851893270796,5.152223811445016 l-4.485037400545569,4.968967172141602 -4.8759628887231665,3.993088410991439 m13.266005694409186,-10.604545084176253 l1.4886883925630439,0.20538238260972175 1.9509006516935063,-0.14949442302209395 l21.9528991000618,-2.4334139491732607 3.6562467743043907,0.1299954149083605 l0.7646805537016756,0.6583842053697195 0.04653868748605712,2.1812313934559144 l-2.3570322684968352,12.703180844493733 -2.0333577444448614,5.985176393174095 l-3.3920922185651214,4.710446402177918 -1.3822529105826946,0.37119039223981104 l-1.455189867564542,-0.5422362904242228 -2.1628214716196794,-1.517704918567182 m-22.951500081490696,-13.332975639490806 l2.7507959250444367,0.5790712532788747 13.650446093291528,-1.2556164269472787 l1.635866594554518,0.018179563730065938 0.7072482430190624,0.20776297474384456 l0.7301096480426903,0.834678825798032 0.009954754955996969,0.590123239181754 l-2.4112970399371894,8.682942694462733 m-17.00043261957825,1.0653089507377222 l1.4693272498744243,0.49532962744969794 2.299794194313692,0.16042182899381446 l15.445985749499963,-0.9242401602554468 m-18.450205207812516,0.7540890681473297 l0.5387857555066335,0.6409967438563074 0.20804286875352845,0.9174020644196054 l0.5980053072441058,10.550371945761096 1.2114346136994365,1.3226145429393978 l1.4102978339390129,0.7020157889761232 3.702078057096634,0.627885054538345 l6.345032910476256,0.31073047803316894 9.890518003349937,0.019157906709120574 l5.498410188336715,-0.37225844359818216 2.861410391539019,-0.6854885404307872 l2.022613629412242,-1.0632461632623365 1.198420575760214,-1.6345569480893618 l0.4249874733601142,-2.3707116467437164 " fill="none" stroke="black" stroke-width="1" /></svg>