<?xml version="1.0" encoding="utf-8" ?>
<svg baseProfile="full" height="116.21592397179316" version="1.1" width="112.8490296481973" xmlns="http://www.w3.org/2000/svg" xmlns:ev="http://www.w3.org/2001/xml-events" xmlns:xlink="http://www.w3.org/1999/xlink"><defs /><rect fill="white" height="116.21592397179316" width="112.8490296481973" x="0" y="0" /><path d="M25,25 m0.0,0.0 m20.541523961231402,0.6625762372276351 l0.04359162777106762,0.5003744806434359 -0.13983099090054385,1.9706572488325753 l-0.9359789284474163,2.8193443227903416 -3.6172885748004107,3.793752243392419 l-5.806498558798405,4.111693433814816 m11.414476722481096,-7.301970416623185 l12.466439993653424,-1.6630846270071735 9.0955494813567,0.018467936040173997 l0.3670254957964112,0.4029279637357012 0.10273912208661216,1.2020796278770538 l-0.502269824853876,10.535322815703607 -0.03146279342031057,7.176591104373127 l0.28833408416688616,1.2259501446186247 0.15630561549397257,0.6081135946404898 l0.1665156343008775,0.2949795660760424 0.3456644233437979,0.164815291461346 l1.234879590024006,-0.03851823129282168 3.7552962913552226,-0.5258103940263146 l3.310135644224116,-0.9710466830555121 0.7958890867722357,-0.7840276778092377 l0.4492865326622484,-0.9840000955696279 m-34.15479444826471,11.036766849890208 l3.7316055512506243,1.9327681138515813 3.2435683917183225,2.2599063557964665 l2.2033648695683716,2.4094647774316873 1.2607283327655012,2.116086281235337 m19.88883626572094,-14.060992295114946 l-0.004087641956351108,1.361570016824141 -1.4450376894386725,2.6915692692935913 l-4.991971812119041,6.679092923689985 m-27.692574911398772,4.2429568638557 l4.839992272803392,0.7559947691450127 21.19823720992994,-1.742325633838825 l12.663538068599266,-0.7791042366673728 5.266507096755104,-0.10475415360796105 l3.3407944567642653,0.3737764984258001 m-25.668540009189744,-9.236100593578248 l0.7753037048879438,0.9757797763860396 0.3256629682567146,1.6282345612505151 l-0.10831299305838944,30.456045941680927 " fill="none" stroke="black" stroke-width="1" /></svg>