<?xml version="1.0" encoding="utf-8" ?>
<svg baseProfile="full" height="132.72468830781017" version="1.1" width="90.70033527419943" xmlns="http://www.w3.org/2000/svg" xmlns:ev="http://www.w3.org/2001/xml-events" xmlns:xlink="http://www.w3.org/1999/xlink"><defs /><rect fill="white" height="132.72468830781017" width="90.70033527419943" x="0" y="0" /><path d="M25,25.68361128407028 m0.0,0.0 m17.828459226990013,13.558776656022264 l0.5262923200336714,0.16606392519288382 4.616585182302563,0.21009243664653898 l7.335729928261035,-2.103927775072867 5.80548980573534,-2.4014652623556905 l4.587778810876821,-1.9758778043136052 m-23.464151437640094,-8.137273460189807 l1.036728874680941,1.245806528839147 0.4599210033612228,1.9587558917926133 l1.845126218482779,10.633845306962899 2.9528600909814937,7.591627816942866 m13.680752775755082,-18.10089854871663 l0.38779030031477457,2.035890417013558 -0.27509931923686237,1.5047236946340592 l-2.351567983259767,15.136011388263682 -1.2367663358356398,6.305213416120001 m-25.596772034384976,2.913184177764719 l2.289642882617573,0.4449726789042295 2.2487522674241687,-0.021423334506518354 l23.68800963363848,-2.030795650432574 3.106539662987296,0.4975767343489279 m-17.316125515531517,17.486081215541887 l0.7462844442837261,2.8190556547921344 0.055165099526633524,7.203895938445034 l-0.2718041071087636,23.309592156976006 -0.27842496864565347,1.2646882609134862 l-0.4839741275640623,0.5268845632106294 -0.6284865382130506,-0.1594861278545578 l-2.9750900309790693,-1.4037992262164734 -2.0567911381040553,-1.8740583372678683 " fill="none" stroke="black" stroke-width="1" /></svg>