<?xml version="1.0" encoding="utf-8" ?>
<svg baseProfile="full" height="103.97119167724279" version="1.1" width="100.59097370154103" xmlns="http://www.w3.org/2000/svg" xmlns:ev="http://www.w3.org/2001/xml-events" xmlns:xlink="http://www.w3.org/1999/xlink"><defs /><rect fill="white" height="103.97119167724279" width="100.59097370154103" x="0" y="0" /><path d="M25,25 m0.0,0.0 m13.780662768782687,7.078243339562085 l0.4699573658077037,0.12425499630603899 2.900924430882364,0.1762702620827182 l25.709372198891785,-2.2645524441336615 2.819279474534267,0.22254913391231432 l0.5167544614345907,0.422791771704857 0.19757142534501718,1.1256804672613359 l-2.067077986576784,7.327861478691482 -1.4854623533118794,5.153742850251171 m-30.502395742399962,-4.720568275309976 l3.925223989497818,0.27074423299221356 23.855457979316718,-2.139070039260073 l3.8902083603685393,-0.2528183163644481 m-29.992993604736508,9.161048076713808 l3.219893675472618,0.21014103800403408 16.904155459077373,-1.793152254074171 l5.018510315992892,-0.19097843768816486 2.3428886122729393,0.13835237132305503 m-30.16813770817753,2.9760592616804735 l0.7024121637335563,1.4455959201319717 0.016670460262064823,7.706960743564123 l-0.3682605042635744,4.944358174564248 -0.699030511573145,4.248806862606452 l-1.0572607902596756,3.7239852940744154 -1.2705853937538882,3.2057275473022844 l-1.5022338196642193,2.950059289662905 -1.7065458277074064,2.719098331681308 m19.83260069835474,-26.66273506571457 l0.49770661492523477,1.2932590151017498 0.08909467562232787,1.1098677175625644 l-0.05036050698904766,14.158203986370046 -0.6449539677593289,1.4666307872492306 l-1.258772478830414,0.49844953444508444 -2.0180165805306007,-1.117178273662858 m-10.017780633768533,-15.07975736094816 l4.1610338596287555,0.8518874684243594 10.468195746790933,-1.0784644937291739 m-11.404478023628352,7.291054229135594 l2.6078169043747446,0.4698784216795629 9.38474369919378,-1.2512120736164747 m-8.704584779480534,7.696478527582122 l1.1396494382547344,0.304676482335365 7.489578156931818,-0.16774505618344823 l1.3622464657827442,0.07164166685760444 m8.506548287262822,-12.007760853502178 l7.839394573727303,-0.8340314044098964 1.3312178375640915,0.1004442708831448 m-9.454627433459667,-3.2625615790741374 l0.44196425773572984,0.49450455490625383 0.2112227084953005,0.8365432886930159 l-0.08145771316683069,14.660311158147733 m-21.217694182581365,2.4975811949031224 l1.2924391606719776,0.28314722363819544 1.762238675365696,-0.044533730726461634 l27.555221209969293,-1.771351539140911 4.02082813183533,0.43053958061539305 " fill="none" stroke="black" stroke-width="1" /></svg>