<?xml version="1.0" encoding="utf-8" ?>
<svg baseProfile="full" height="108.32249814644456" version="1.1" width="109.49251496233046" xmlns="http://www.w3.org/2000/svg" xmlns:ev="http://www.w3.org/2001/xml-events" xmlns:xlink="http://www.w3.org/1999/xlink"><defs /><rect fill="white" height="108.32249814644456" width="109.49251496233046" x="0" y="0" /><path d="M25,25 m0.0,0.0 m16.62082314491272,4.493588805198669 l0.053256647661328316,0.77980637550354 -0.3071824833750725,1.486206203699112 l-1.8593254685401917,3.7072157859802246 -4.218479692935944,6.627247333526611 l-4.779172837734222,5.515452027320862 -5.509918928146362,4.737120866775513 m30.407285690307617,-27.007713317871094 l1.8584032356739044,0.9654898941516876 3.466338813304901,3.15611332654953 l16.635624170303345,17.719753980636597 3.47519189119339,2.6540714502334595 l3.6496707797050476,1.5692035853862762 m-33.193044662475586,-0.7554604858160019 l0.030732082668691874,2.403234839439392 -1.0916920006275177,2.246462106704712 l-6.756354570388794,10.803306102752686 -7.941557168960571,10.54250955581665 l-0.6639789789915085,1.0579398274421692 -0.18406972289085388,1.7824146151542664 l0.4681051895022392,0.5617999285459518 0.8336624503135681,0.23368369787931442 l1.192948818206787,-0.175954420119524 14.652539491653442,-3.90198290348053 l16.420198678970337,-3.834109604358673 m-5.568569898605347,-8.121200799942017 l3.1616464257240295,3.3617621660232544 3.800172805786133,5.4767197370529175 l3.1448623538017273,5.874738097190857 1.5113821625709534,4.363079369068146 " fill="none" stroke="black" stroke-width="1" /></svg>