<?xml version="1.0" encoding="utf-8" ?>
<svg baseProfile="full" height="92.83506379683398" version="1.1" width="113.52186976413955" xmlns="http://www.w3.org/2000/svg" xmlns:ev="http://www.w3.org/2001/xml-events" xmlns:xlink="http://www.w3.org/1999/xlink"><defs /><rect fill="white" height="92.83506379683398" width="113.52186976413955" x="0" y="0" /><path d="M25,33.66052522716147 m0.0,0.0 m14.69706534293923,4.934882980442977 l0.06789293301716616,0.3487092272041323 -0.9612259232172906,4.649928015025764 l-1.6167146512965251,4.615874669074143 m2.45603080952824,-7.543724034735457 l14.31064152192067,-1.796438332346879 6.971013810444271,-0.618619384771415 l2.7183316159830637,0.1545380427667923 0.31113661074747073,0.45330830710787234 l-0.12037460105331141,0.6559556829824106 -1.1226570205537973,1.606258959607243 l-1.4440743444847497,1.427196487664073 m-9.6724383212417,-12.123648524839913 l-0.04568996651749769,1.469715190758839 -1.1263681580188534,3.482945466387685 l-1.7081880694085623,4.07164586360738 -2.023572263955065,3.6752100301296453 l-4.152912534048934,5.762477483724598 -2.4156788932507647,2.5662978538880257 m5.567034542975732,-6.362222400697329 l0.3842407626996878,0.7246081131722577 0.13125255741597358,1.2310876494094982 l-0.012292405474609965,20.788551224110172 m11.964162477243633,-28.592792515221497 l-0.11187188199868792,0.3794143383614605 -0.26281921763007765,0.8324460398815412 l-1.7212986956886762,2.7104890508146293 m-8.585391346150766,2.280320155639777 l17.550793212247157,-1.9360896079855827 m-9.029104953624605,1.7707267010781103 l0.5046183505164996,0.6753045397441071 0.16073014978479155,0.8874998063785923 l0.001443092456864056,15.746676103574933 m-8.528320051731416,-11.467286502891485 l15.289330696749063,-1.5565356747756056 m-15.6378922148653,7.457597397226765 l15.752778476372976,-1.5608338742085053 m-15.80543746116499,8.663270707759887 l17.292203112640376,-1.588212549019348 m10.945688101915442,-37.53705791319177 l-0.08062039095128118,0.9416010932839552 -0.5599930538395276,1.5917821173913118 l-2.439645110063208,3.9934997204362133 -2.975032869746496,3.4253179476893734 l-3.5151743449626225,3.008834632933489 m11.972649168014723,-5.2641099588673805 l2.189416071507461,0.42036274495034015 2.4701464790491654,-0.9172958486592548 l4.090519639142013,-1.970663793826365 0.6793637653697838,-0.03490460377302149 l0.4883156583619057,0.2849695982478241 0.2298595500355294,0.5116670107623622 l-0.5592997972019811,1.3093397442230121 -4.658840204306414,5.002830511611969 l-2.808224212463966,2.722147074600022 -3.10784150487202,2.4888149331156963 l-5.401103375722334,3.469646117338602 -6.251525499177509,2.957117692384812 m6.8651327707107095,-13.798460743119744 l2.8115791963891645,1.6851400778225378 12.47742250086459,8.963988230928788 m-19.245762862534725,3.0135504396591117 l0.7337189719105531,0.8173863996689957 0.3335449781486006,0.817972237987695 l-0.05267849616800961,10.394289022251385 m0.52641034137933,-11.563032570974196 l14.544906930690052,-1.5719282805422137 1.4586496535867937,0.026378220480078828 l0.4814953670024007,0.22494123535082872 0.2931944117977007,1.3352574090742726 l-2.3003693910180156,8.714262897723897 m-13.301467922866058,1.2056853868315238 l14.698797310573855,-0.9307684774135785 " fill="none" stroke="black" stroke-width="1" /></svg>