<?xml version="1.0" encoding="utf-8" ?>
<svg baseProfile="full" height="109.49251333717257" version="1.1" width="108.7896259687841" xmlns="http://www.w3.org/2000/svg" xmlns:ev="http://www.w3.org/2001/xml-events" xmlns:xlink="http://www.w3.org/1999/xlink"><defs /><rect fill="white" height="109.49251333717257" width="108.7896259687841" x="0" y="0" /><path d="M25,25.00000089406967 m0.0,0.0 m13.507766723632812,1.4084409177303314 l0.41031133383512497,0.5148933827877045 0.5597825348377228,2.3959121108055115 l0.05223976448178291,30.17136573791504 m0.552426278591156,-31.274032592773438 l25.067434310913086,-3.2165804505348206 1.9196449220180511,0.183633454144001 l1.1821047961711884,0.8226268738508224 0.606994740664959,2.359108030796051 l-0.10447952896356583,28.604092597961426 m-28.335533142089844,-18.913676738739014 l27.695651054382324,-2.604711949825287 m-27.61256694793701,12.500284910202026 l27.425997257232666,-2.4254511296749115 m-27.425997257232666,11.567426919937134 l27.240519523620605,-2.425428330898285 m-42.35170841217041,12.092159986495972 l3.4650537371635437,0.367266908288002 4.381512999534607,-0.05648158024996519 l22.744221687316895,-2.010926455259323 16.150087118148804,-1.0079683363437653 l6.605429649353027,-0.12990763410925865 5.052732825279236,0.47960374504327774 m-39.36656475067139,6.419222354888916 l-0.08460849523544312,1.3566510379314423 -0.31848322600126266,0.6136450171470642 l-3.6720314621925354,3.8504040241241455 -5.4659587144851685,4.090723991394043 l-6.4600348472595215,3.760215640068054 m35.40192365646362,-13.025016784667969 l3.7245044112205505,2.1754518151283264 3.853501081466675,3.0467256903648376 l3.9012372493743896,3.9497020840644836 2.1851083636283875,3.1188762187957764 " fill="none" stroke="black" stroke-width="1" /></svg>