<?xml version="1.0" encoding="utf-8" ?>
<svg baseProfile="full" height="112.83922448066545" version="1.1" width="92.04941471395686" xmlns="http://www.w3.org/2000/svg" xmlns:ev="http://www.w3.org/2001/xml-events" xmlns:xlink="http://www.w3.org/1999/xlink"><defs /><rect fill="white" height="112.83922448066545" width="92.04941471395686" x="0" y="0" /><path d="M25,25 m0.0,0.0 m27.396343113334844,19.541105081965565 l0.4383100522564438,-0.025907687067543938 7.051219938168631,-1.0514532014563247 l1.6753601909041334,-0.1448838378941191 m-10.500903860401358,-5.322892425574223 l0.5705020710930563,0.7674732389447515 0.2534841500297802,1.0494511642192113 l0.08611084993409839,11.447567524714552 m-10.683271564124178,-7.7663888833242005 l0.641948386221104,0.7071914163352175 0.3408710658743262,1.0044809215811754 l0.2457028743267649,6.929819770852258 m-5.758344446384688,0.5221071253286677 l1.4919827001323833,0.30495077075382915 2.334085983455659,-0.15611112680964304 l23.81475425114101,-2.836626452265475 2.651258957994859,0.35435610097054926 m-30.468159201073444,11.504197621121772 l-0.16844674795746534,4.289405400916462 -0.5530899623477903,4.690950978052187 l-1.4016489831959889,7.037956712307432 -1.0542167021251627,3.3762524444738498 l-1.2704751893739612,2.993304656901629 -1.5188872298851344,2.368288712959072 l-1.2660792308985573,1.254628452658807 m5.333159226780398,-27.06695962850862 l1.3991248614482714,0.23326400877749567 1.8953882560516535,-0.03235327778645242 l19.904694649053276,-2.665895684507097 2.5304841234196416,-0.2327985798586674 m-21.509774609412293,9.056769790600606 l1.7503845298222156,0.20317516876881714 5.661694868499585,-1.0735776449232928 l1.8838053118721856,-0.18241752293758134 m-4.8289879402031195,2.4352951768709987 l0.338165779486916,1.5012994934817576 0.03514636250850842,2.284900983381688 l-0.21131779271254475,10.603611504502787 -0.31844499989317404,0.5700030474720921 l-0.4851438743277878,0.0003490087432830207 -0.5654877932591001,-0.42414587398469594 l-1.3086585791016647,-1.472433280734324 m-2.0354824406931,-8.938950796626054 l-0.2599305011020939,1.9113371803601493 -0.9464405368103125,2.57692992029969 l-1.4931073706227562,2.8585392636557665 -1.6139441412290167,2.1652947280935217 m13.00039615866357,-10.303257315219913 l0.9033586753294773,1.40110172915948 0.911803127077392,1.9234378216903902 l1.0464840068141286,3.2904397212102974 m-0.4731777299014626,-24.857458183641853 l0.741773042005709,0.8803785118915974 0.27296918165590683,0.8803144270284025 l0.7157525329814501,6.470844604060793 1.4970478864966892,6.668501660404616 l1.8736686353169856,5.16155801508187 1.8574370754153704,3.77625354491485 l1.6362339800075243,2.540246848179558 1.831994113517094,2.2552608549465494 l2.03846874274282,1.9421608350035569 3.0037331050074094,1.858845110222626 l0.3792046308969938,-0.0872279107585918 0.19041862514205732,-0.3932310343709779 l-0.19692352384440845,-4.363906105500203 m-5.5912080162597055,-27.49553558124849 l2.7121846281468542,2.7590164555000642 1.5005892980353703,2.5270966756885183 m-3.1504472614078542,4.576981697761423 l-0.0783981520339107,2.0463554533920316 -0.7805754347680469,2.557694671277555 l-1.3702556080116135,3.2177179938333977 -1.92350108689189,3.629300944434795 l-1.881573240600863,2.9877787566397918 -2.1867199516667415,2.9691280000773324 l-2.4311477301133513,2.7604659093666526 -1.9615320801257718,1.8736185145050661 " fill="none" stroke="black" stroke-width="1" /></svg>