<?xml version="1.0" encoding="utf-8" ?>
<svg baseProfile="full" height="105.42736504545022" version="1.1" width="107.85128710289428" xmlns="http://www.w3.org/2000/svg" xmlns:ev="http://www.w3.org/2001/xml-events" xmlns:xlink="http://www.w3.org/1999/xlink"><defs /><rect fill="white" height="105.42736504545022" width="107.85128710289428" x="0" y="0" /><path d="M25,25 m0.0,0.0 m29.7229325140737,7.879301700749839 l0.07368982753453045,0.4329926481244345 -0.3435468611793802,2.064198996839164 l-1.7205121893082038,3.3541919115768675 -2.590397971665044,4.097364764905566 l-3.526014038201431,4.5362943254918315 -3.5047727549698164,3.753010229764489 l-2.8451111260583644,2.6215566231531016 -4.4843398421497955,3.436032758083925 l-3.73630261743049,2.3670271254177617 m23.950637030732437,-24.055717027968857 l21.589375340841013,18.12493411464928 2.3737597610576335,1.491615905669987 l2.891890029617495,1.0971376367308057 m-38.106804770772065,-2.4230162473631087 l2.050386700207695,0.13372395494258937 15.912850653125483,-1.5889223199761349 l3.2726413274674053,0.14844198295686414 m-23.999947477549714,10.94666646932937 l2.201959059816592,0.15225576047834927 22.20278275413881,-1.6419643074568118 l3.290433289404396,0.13448544068091392 m-14.856882708249511,-7.332317278043612 l0.41200275137282427,0.9573451573373489 0.10609683596702252,1.2036889998102922 l0.16810152019151678,22.093413336782806 m-13.631329352242485,-10.027596067389767 l2.9795572326516897,3.14523469733493 2.339598121249046,3.6363141268581516 m21.23971078389868,-8.508045925006357 l-0.06379179136860709,1.5665208147582192 -0.7990713253389182,1.231317685387414 l-2.2812806258361644,2.517113773905341 -3.020629208599044,2.60444436855956 m-29.118085059601697,4.9361533813145 l2.914737239581382,0.34216552706116177 14.907931080955708,-1.0329649668475123 l23.89298904202072,-1.080272557316675 2.3182937070590546,0.0848636402113397 l2.2068641108183495,0.37224119326129085 " fill="none" stroke="black" stroke-width="1" /></svg>