<?xml version="1.0" encoding="utf-8" ?>
<svg baseProfile="full" height="102.58826392254423" version="1.1" width="120.30564999765488" xmlns="http://www.w3.org/2000/svg" xmlns:ev="http://www.w3.org/2001/xml-events" xmlns:xlink="http://www.w3.org/1999/xlink"><defs /><rect fill="white" height="102.58826392254423" width="120.30564999765488" x="0" y="0" /><path d="M25,25 m0.0,0.0 m15.905442062474377,6.446761194093682 l0.4161302547628609,0.12675665793723714 2.5146216163510005,0.221316529529361 l25.470546893867343,-2.469959037517217 2.4028432938299353,0.27497129259698677 l0.40518359229288353,0.43367985442534124 0.10204142172731677,1.16070596994106 l-2.049828871305737,1.69299045304928 -6.161886447047729,4.403852251949745 m-5.717229813805924,0.6344069208273687 l0.5213113753562102,1.679111235907959 -0.023255239054413953,3.38954162909613 l-0.315125344277255,14.509501223550997 -0.26580966496687136,0.7550738373145034 l-0.44352403438595855,0.24431598509711022 -0.5276455453745789,-0.30080004515291053 l-1.7582210509866962,-2.244781028993398 m-15.494237970113291,-11.864386905563773 l1.8263136319677615,0.362482449778768 2.3719878496911075,-0.009777648396506185 l25.70795185771135,-2.6261922408571268 3.3881703798865948,-0.0900305377855731 l2.3951451042544316,0.3258001791605453 m-33.64959842339301,12.762651805233205 l0.8721964210620128,0.21968917909023436 1.7000266771222006,0.05500626089953871 l12.251889921206974,-1.5502702230519572 1.0772691683877882,0.03866068094855724 l0.7770169226853882,0.6041920631471542 -0.32666672933112184,1.7035484318431988 l-1.2722377046842814,7.578046852699971 -0.9709375045518115,3.1297126530192423 l-1.3291301746608633,2.9592880516368107 -0.6702092996532123,0.6663013347572251 l-0.6377179953038322,0.10958467534207893 -1.087079670989121,-0.26380174810479123 l-1.4098937028576903,-1.2004972475933589 m-1.4705868564917914,-21.17492351107702 l0.05590099631428173,0.9657737430348251 -0.24693181132247297,1.1746501910256448 l-1.236206575268461,3.031565996622747 -1.7539195337367122,3.1414275920405035 l-3.933571010703111,5.359308663502717 -4.613967685907779,4.569658289398124 m30.645656871507338,-23.027539027305387 l0.6227338632553916,1.0029686582427102 0.12238736339392058,1.0812472527438681 l-0.08108014356909064,21.682860639209984 m0.3980369552768885,-24.966724396827757 l1.101020218579115,0.8040801482246849 1.6386232380886336,1.548845759881874 l9.237056187305566,14.957694557201588 3.0220852449806777,3.536499777053955 l2.8659906600238196,2.254285039124576 2.7549211180152042,1.3566478440473602 l2.379706745012948,0.4534978235581752 1.0481160854519027,-0.03523618647207566 l1.2244718124500087,-0.5696732820453967 0.529352997104444,-1.1007366246980381 l-0.2587087189172607,-2.6337016334409995 m-11.519189704899482,8.512344583662282 l2.6056152632600313,1.6363555846413724 1.8036427264682724,1.8761830337934973 l1.2993726744734548,1.5938413439172439 0.5900853363182077,1.6896090736265184 " fill="none" stroke="black" stroke-width="1" /></svg>