<?xml version="1.0" encoding="utf-8" ?>
<svg baseProfile="full" height="91.02467577248862" version="1.1" width="104.10004680956891" xmlns="http://www.w3.org/2000/svg" xmlns:ev="http://www.w3.org/2001/xml-events" xmlns:xlink="http://www.w3.org/1999/xlink"><defs /><rect fill="white" height="91.02467577248862" width="104.10004680956891" x="0" y="0" /><path d="M25.377326062268317,25 m0.0,0.0 m7.2665593245738735,15.421223599165288 l0.4172721409069795,0.38864889927560475 0.6360877704418285,1.4309909148659463 l2.2866544246889684,22.37453095076868 m-2.1215666762696603,-24.297001915596752 l32.95769457367545,-2.466795650669104 2.7531123687522365,-0.3479075429075588 l2.5156822413958224,0.5604259823773836 0.6079113797184044,0.7991980665533324 l0.10731893946899905,1.5116463475760784 -3.735970517588878,22.459370127510766 m-25.712084834476645,-21.869756652276536 l0.6099280712226766,0.9110810195815056 0.25336577824038875,0.836163576910157 l1.4521804346752136,22.14743679387741 m12.733955638254978,-25.67925036502487 l0.42429976674106185,0.9226623893229077 0.07198082918731505,1.0082387944985458 l-2.257098763091482,22.717582513287955 m-31.64460895278585,1.6415653345071952 l2.247024776075973,0.41746868002747906 3.3188073942110097,0.1371539088572002 l34.141513926656344,-1.3911925894218982 9.906163449823827,-0.0972757098346238 l4.486537262801749,0.4766242326657205 " fill="none" stroke="black" stroke-width="1" /></svg>