<?xml version="1.0" encoding="utf-8" ?>
<svg baseProfile="full" height="100.40033287101971" version="1.1" width="93.20226803464828" xmlns="http://www.w3.org/2000/svg" xmlns:ev="http://www.w3.org/2001/xml-events" xmlns:xlink="http://www.w3.org/1999/xlink"><defs /><rect fill="white" height="100.40033287101971" width="93.20226803464828" x="0" y="0" /><path d="M25,25 m0.0,0.0 m23.08240367851474,2.107000700596695 l0.33314193995885877,0.4187919114592493 0.3693171345597826,1.6249389696729777 l-0.003061450843529742,11.434485309885858 m0.7310044088883478,-6.910628111887855 l8.506039233811531,-1.3553289859909408 1.947455840659823,0.00900545650295932 m-23.314378561605345,-0.1357117521468545 l0.5804424993151391,0.8153953483039683 0.30707662104877215,1.1050094358315046 l0.26875877343511767,8.290946526727607 m-7.5976581475225755,0.6485726582795801 l1.8780005107624813,0.3885862446147205 2.4869957998863765,-0.08148798516310495 l27.70391122245888,-2.9504730074813628 2.858420587050982,-0.04448953394110457 l3.0643979442688885,0.3773600362313113 m-18.727438403080445,3.3631303701477067 l0.539955687711271,0.953642563300542 0.1522350813584506,1.0273410377545955 l-0.08395637175911265,12.724490946579644 -0.24041566061938988,0.7122976847314324 l-0.3642012454048768,0.3144357077216117 -0.4735553541556044,-0.00902474273645102 l-1.1841186342689574,-0.7905449210022047 -1.309171323114279,-1.4128351424807777 m-5.460968553597937,-8.410173586859068 l-0.0754013405287696,0.9595630244681338 -0.334710839152222,0.6588408040767374 l-1.8092499843307641,2.4571252419885496 -2.878221691839232,3.0384738360494525 l-3.279593682393155,2.7530507550491676 m27.00117255663771,-12.33613615565631 l2.236371887289123,1.164315440997364 2.337819787179003,1.6574010938932773 l1.8808851021638517,1.7474298903640053 1.2474366687699057,1.6553539046988033 m-7.642742918831132,-0.28310063976422106 l-0.04517266367747408,0.9893681681854377 -0.3371841630721655,1.076697603735619 l-2.1768413111531917,3.470972996346338 -3.274898519668857,3.716698018259421 l-3.2968516937422425,3.021732514522654 -3.815841472541405,2.9856125881936615 l-4.188358980876329,2.8316495036394187 -4.447845820308929,2.5308838224866306 l-4.547374384084444,2.089667320833335 " fill="none" stroke="black" stroke-width="1" /></svg>