<?xml version="1.0" encoding="utf-8" ?>
<svg baseProfile="full" height="107.0222541752629" version="1.1" width="100.80394716938315" xmlns="http://www.w3.org/2000/svg" xmlns:ev="http://www.w3.org/2001/xml-events" xmlns:xlink="http://www.w3.org/1999/xlink"><defs /><rect fill="white" height="107.0222541752629" width="100.80394716938315" x="0" y="0" /><path d="M25,25.75337889372627 m0.0,0.0 m10.045663236469954,16.8928820400755 l0.2506316990825049,0.44520579886466854 0.37697997818250784,1.0677632971700584 l0.14589655459321246,2.1565719429016537 -0.029474382069561284,35.706452202524744 m0.39837436650941277,-38.663950646177035 l37.242459543999665,-3.499314269785663 1.3243825567935588,0.16616604582041825 l1.0197424715290724,1.7644664083894417 0.02929114429281408,23.332519371304084 l-0.12076938846808359,11.043151948619526 -0.17243642410739007,1.6457805604250577 l-0.3832692233032588,1.0055173752720832 -0.5197162962984659,0.37238664517369385 l-0.6329055730803649,-0.07211604916121546 -1.4057895370714324,-0.9539537472809341 l-2.1081719222129967,-2.599705908158801 m-15.857300391116693,-50.563201909703544 l0.6025238193264002,0.8835915458459667 0.38046515571226347,1.3333446036863879 l-0.22136862191126103,7.455822393450823 -0.9450041294456418,6.941494037888806 l-1.761597646042325,6.969988345237725 -2.1600074373816796,5.311439115215874 l-2.8970313863244384,5.008257152426408 -3.7628497759982347,4.6154226325195555 l-3.440770629365227,3.0306520902154332 m15.410395692239176,-18.748520850126322 l3.6005794286471224,2.483452467404924 4.285149268138876,3.9312439658413765 l3.5504589595963467,4.251843949375647 1.7139447242420758,3.1859568700417364 " fill="none" stroke="black" stroke-width="1" /></svg>