<?xml version="1.0" encoding="utf-8" ?>
<svg baseProfile="full" height="114.37766758098971" version="1.1" width="106.45845854107779" xmlns="http://www.w3.org/2000/svg" xmlns:ev="http://www.w3.org/2001/xml-events" xmlns:xlink="http://www.w3.org/1999/xlink"><defs /><rect fill="white" height="114.37766758098971" width="106.45845854107779" x="0" y="0" /><path d="M25,25 m0.0,0.0 m29.131018364796244,3.1734268323836825 l0.05746077272690222,0.40842224818436873 -0.31986397834908536,2.1276927462298403 l-1.5771554333613094,3.310507047120924 -2.4210785383164426,3.9605766779406064 l-3.2714755261302466,4.398121802258288 -3.2322987902889455,3.590234881247112 l-2.8009781278849357,2.54580520491283 -4.366043700404905,3.1279649835979733 l-3.8087578933939823,2.1167706450767256 m22.794888597997918,-22.85470442788072 l21.195254555298803,17.553187797915612 2.239902843900259,1.408399065197075 l2.8375853944875153,1.0651452515366338 m-35.430750270963735,-1.6403439836900109 l2.0039069227475603,0.16546429706263127 15.516553128313015,-1.5256653815026335 l3.2786809148392253,0.1450808956490801 m-10.469966142591275,10.375735456124758 l0.848205781852175,-0.692855593289328 9.196758060670124,-1.2658225594422274 l1.7766626722479772,-0.043603537022311595 1.1119736362169874,0.21041490529324128 l0.7623730537813403,0.8725552747472449 -0.25976553696419086,2.1411387825751813 l-4.5794924629711335,14.64778316892499 m-13.5445107346324,-9.249993889661448 l16.827289753424292,-1.7032371713504826 m-17.875274837925545,9.620612112592248 l16.050479137286786,-1.575754743419065 m-17.42426489186144,-12.255589453904749 l0.6715383403265494,0.7755959624658831 0.29930816628068424,1.0966490280899899 l-0.02499968928102213,27.18790263239721 0.16021755056504933,0.8086604051505454 l0.5755692726323077,0.35139021747799554 1.2895351865751703,-0.40840360207923154 l7.555259269727241,-5.038760789949272 m12.838013872188727,-13.152149575463898 l0.06593423227886916,1.2423824814883913 -0.4548211945823578,0.9297920451321721 l-1.88727062979189,2.184993494612913 m-11.119338771509591,-2.250062256043574 l1.2724015499304253,0.6730739570846974 2.026510902344969,1.9424740925526096 l11.711977218001667,10.717044459134685 2.4692780921594615,1.5939580086774192 l2.269294045215667,1.1393184688412354 " fill="none" stroke="black" stroke-width="1" /></svg>