<?xml version="1.0" encoding="utf-8" ?>
<svg baseProfile="full" height="101.14944750239533" version="1.1" width="107.3330442762061" xmlns="http://www.w3.org/2000/svg" xmlns:ev="http://www.w3.org/2001/xml-events" xmlns:xlink="http://www.w3.org/1999/xlink"><defs /><rect fill="white" height="101.14944750239533" width="107.3330442762061" x="0" y="0" /><path d="M25,25 m0.0,0.0 m16.244560151331424,4.225489808272494 l0.5812209762821918,0.18176566259343413 4.010768471059365,0.2072412559338695 l26.472338850387985,-2.6259600333024657 4.31952500693653,-0.09395458738089955 l3.0637990757476934,0.30321126919047997 m-30.807079898605362,14.533712419615929 l2.651240811571381,0.36092645551189184 16.814730048555695,-2.160182093752748 l3.3676034178037964,-0.2057748820040416 3.2715556927236897,0.2238750906947227 m-13.957308779622556,16.584817669682778 l2.8563795478546425,0.016207645822372482 9.373915283836023,-1.392677189905116 l2.747023051435047,0.0011196968011758005 m-15.672679326117324,-21.70941173475634 l0.62446974855909,2.2658968106930844 0.10723349052222778,3.022419762325562 l-0.22705098228912263,34.61722052482951 m-12.866530087607366,-22.19769746305447 l0.711996838364375,2.081961280140496 1.1082876924610952,21.597187021264492 m-8.678721033628737,0.6324291874873104 l3.3119006955120356,0.6796239256917981 16.812998502886483,-1.4265538586179474 l16.527931086126497,-0.4518548245183305 2.661381351292822,0.14806226837636002 l1.901554592826457,0.7345701194176747 " fill="none" stroke="black" stroke-width="1" /></svg>