<?xml version="1.0" encoding="utf-8" ?>
<svg baseProfile="full" height="102.77432787946354" version="1.1" width="105.14330165106252" xmlns="http://www.w3.org/2000/svg" xmlns:ev="http://www.w3.org/2001/xml-events" xmlns:xlink="http://www.w3.org/1999/xlink"><defs /><rect fill="white" height="102.77432787946354" width="105.14330165106252" x="0" y="0" /><path d="M25,25 m0.0,0.0 m30.982636453385197,15.213273804915179 l0.4981094015193255,0.3905919635788574 0.5762023751441173,1.0083401942172399 l0.09576328552489204,4.581362536615015 m-23.897541867939545,1.5553295286923945 l2.2540167588655673,0.244052799782068 2.4795581224979,-0.018227410636626692 l20.82115697752009,-2.600852446332225 14.979064256615654,-1.2456652765277652 l3.3541790848840063,-0.1662534227063205 3.000156803045314,0.3338589066070195 m-41.37311682142349,10.968090837899839 l0.7209025828212507,0.8586739942905505 0.382818334382912,1.1894028621843236 l-0.07132204542760891,17.190282619450244 m1.022977491014094,-17.955397557144344 l13.90218640408378,-2.571073808306863 0.9988586852573925,-0.01259257731245421 l1.2270038902315135,0.4434826598259248 0.7331886666756391,1.057829157029415 l0.11546646546276022,0.6698168593519461 0.0038815985306471976,16.61321791060095 m-17.432406077053912,-8.660604627428349 l17.496237430243557,-2.4705697776928743 m-17.397085820479816,11.621478401591702 l17.07039849399294,-2.1812041378791505 m-25.781209983037144,-36.20723538339782 l0.5398919414923995,1.1479605035979226 0.1455023308545229,1.5525625420093894 l-0.20990390973380627,36.12201789093189 0.23320047742636915,2.8755561592222967 l0.3546216960430149,0.8115246362846031 1.322941634644408,0.41529753614956005 l1.025010825040501,-0.16082742826547286 39.10924186576349,-2.190423230956792 l5.105785980910807,0.5383180700522334 " fill="none" stroke="black" stroke-width="1" /></svg>