<?xml version="1.0" encoding="utf-8" ?>
<svg baseProfile="full" height="93.2523977615894" version="1.1" width="105.31609109583849" xmlns="http://www.w3.org/2000/svg" xmlns:ev="http://www.w3.org/2001/xml-events" xmlns:xlink="http://www.w3.org/1999/xlink"><defs /><rect fill="white" height="93.2523977615894" width="105.31609109583849" x="0" y="0" /><path d="M25,25 m0.0,0.0 m31.972548555190762,7.07992549611799 l0.06549034716239058,0.3510901644242313 -0.37118746421995724,1.7984812464454403 l-1.674025143014466,2.9293765816912813 -2.52084071975677,3.4446899275798635 l-3.4807958481222827,3.7714859665222558 -3.3995441764892376,3.079732095403721 l-3.893974309420111,2.265690820132974 -3.2939245739677303,1.540115211658793 m20.19401033839595,-16.778216508093653 l18.130333659247643,12.710842240951195 2.1063727879922185,1.0883021297981583 l1.4816276428400776,0.7832749210731673 m-31.058190321303726,-2.7366618842869372 l2.064843260065134,0.20176229959211536 12.298519294720686,-1.1372617154982851 l2.8723572660195162,-0.15058414576239304 m-21.028692372241416,8.052983168158583 l2.1788904296471023,0.1663903145104243 19.96100883684698,-1.4577769936758378 l3.0102735593067362,0.09525587596094208 m-13.355241491145913,-5.305515893742242 l0.38258570915321016,0.7189650669187321 0.0935654117085238,0.9111197751407472 l0.07994475229877039,16.879558280599177 -0.1398926046509337,2.0206871073236377 l-0.39480456326469987,0.8163486651144256 -0.5090982921248118,0.11233754753090804 l-0.5693264074634439,-0.33248106116948933 -1.5099490960645092,-1.5499188614770367 m-5.48833484897632,-8.122017135578123 l-0.05895126957719313,0.7584831574791363 -0.3427383338480297,0.5454042145998068 l-2.127702549484536,2.4640272485444057 -2.6739112084765124,2.2937163774290132 l-3.4203978078794286,2.30892443357532 m25.390632983266528,-8.660671215031448 l2.0566102922967913,1.3010969387213125 2.48995058285269,2.1582248483101982 l2.0753603027294094,2.277849184647772 0.9692728028586106,1.7079301067821686 " fill="none" stroke="black" stroke-width="1" /></svg>