<?xml version="1.0" encoding="utf-8" ?>
<svg baseProfile="full" height="105.13095335438683" version="1.1" width="106.042003022838" xmlns="http://www.w3.org/2000/svg" xmlns:ev="http://www.w3.org/2001/xml-events" xmlns:xlink="http://www.w3.org/1999/xlink"><defs /><rect fill="white" height="105.13095335438683" width="106.042003022838" x="0" y="0" /><path d="M25,25 m0.0,0.0 m13.53157453015473,3.829349727496248 l0.3498777317467695,0.4828166635952845 0.5863678489571779,1.1700535834783545 l0.21414391418989745,1.1434639262567734 0.09946584077844083,16.28229937728145 l-0.8280401115551619,9.30940201573664 -1.4988867536103097,6.898107102998796 l-2.158505570872172,5.71011739384995 -2.4599315591203847,4.073221211128013 l-3.2194442673110317,3.4154825239445135 -4.124945181062202,2.8166398286208065 m15.254469541443468,-48.99263121341452 l19.35355120689666,-3.5790671219548624 1.4903632849856159,0.16391825049939918 l1.195938959855393,0.8119851381297786 0.4986725151435005,1.418020878322132 l-0.01668098726048281,0.9218266291764748 -1.8158880738979768,16.107376048150932 l-0.8009055799106257,17.579323812148726 0.2980910531050124,4.886718586525253 l0.9715138007047399,2.5862483761622883 0.9014223577586215,1.3114705448656923 l2.3534106711168694,1.205263325175906 4.2713051092992576,0.5000953104592345 l6.936996672310009,-0.29645413922580915 1.9333714624266243,-0.6973962718244242 l1.635231298704848,-1.1914373291488922 0.7597004835922786,-1.4304930721512787 l0.32976282426845416,-2.1971960962374646 m-33.17961350833238,-22.577668951413784 l4.418440673362154,4.253982165390378 1.8563130160415455,2.7544289043462515 l1.2260588028490258,2.6096709982003228 " fill="none" stroke="black" stroke-width="1" /></svg>