<?xml version="1.0" encoding="utf-8" ?>
<svg baseProfile="full" height="90.94708018463854" version="1.1" width="103.87384426306943" xmlns="http://www.w3.org/2000/svg" xmlns:ev="http://www.w3.org/2001/xml-events" xmlns:xlink="http://www.w3.org/1999/xlink"><defs /><rect fill="white" height="90.94708018463854" width="103.87384426306943" x="0" y="0" /><path d="M25,25 m0.0,0.0 m27.37215581818397,2.7819306180153727 l0.0634335458251136,0.4031293410418655 -0.19166387155601877,0.8368601286991624 l-0.8225665574848507,1.4496357785879315 -2.6459880507614018,3.3817165238562223 l-3.1738798575791627,3.022919539990164 -3.769203335166731,2.50452012647892 m10.786011175449692,-8.002181314892372 l9.859043717678393,-1.1500299262797145 0.6986545588366324,0.11351147708743511 l0.7382637377402002,0.8716528720282548 -0.3187428463029977,0.5581862143319244 l-3.641166446732115,3.25592476686293 -3.3478893044863725,4.214118638647528 m-11.996078045689673,0.934627631761259 l0.7576166539503995,1.3118352726579008 0.438569905177266,1.7672641081180356 l1.3041355201750817,9.390117068916402 m-1.2826092984977682,-11.53032008244356 l18.68210327606831,-1.9689059972188443 6.032504019211862,-0.4027116877702976 l1.2444549432319252,2.007424003235768 -2.191449660959265,9.863717807709817 l-1.340176695157927,3.829118369595993 m-10.032107882232314,-12.647612567576147 l0.32780509031175675,0.6659647228705396 0.10606225380259676,0.8950253624341048 l0.0036846411427687866,9.095735814783653 m-10.608371915518077,-4.408906006136705 l22.760172712817045,-1.7321510106908669 m-21.472303582486262,7.499279659437382 l11.883306830628436,-0.9680140474473459 8.757745017904977,-0.4082696378793647 m-25.61846439849296,6.920833469858781 l-0.22946182815186406,1.4215603259857172 -0.8272494393258663,1.8800955642630024 l-1.152331870828991,1.720574098921427 -1.3631543487134707,1.5689031567962777 m11.24031779868111,-7.422075311553475 l1.1809868709488418,1.1912222072578762 1.0385696432384266,1.5791942374058128 l0.8471058693476072,1.7778686907793047 0.5849967882723359,1.8878013769371806 m6.339305412223901,-7.263199841906188 l1.4088758604155012,1.3741752678553902 1.4600996957567103,1.9812570350503405 l1.151536345386794,2.0261985811034466 0.49657575446761487,1.3726855979932446 m6.477400972444616,-6.24044900746701 l1.752306596241441,1.350742440646207 1.9130719002858412,1.9648243748632488 l1.5312768715060456,2.02802441046726 0.6605537018403159,1.3734075866684972 " fill="none" stroke="black" stroke-width="1" /></svg>