<?xml version="1.0" encoding="utf-8" ?>
<svg baseProfile="full" height="92.41693174070792" version="1.1" width="97.35097080596074" xmlns="http://www.w3.org/2000/svg" xmlns:ev="http://www.w3.org/2001/xml-events" xmlns:xlink="http://www.w3.org/1999/xlink"><defs /><rect fill="white" height="92.41693174070792" width="97.35097080596074" x="0" y="0" /><path d="M25,25 m0.0,0.0 m8.0686336665411,12.359397692526665 l0.5068272500068335,0.09482986178753358 3.168193067738472,0.030450839330500683 l25.698101445670904,-1.7648494572698274 4.147960009621406,-0.11921653773042137 l2.507804474366187,0.1983510556001783 m-37.30073299511267,7.544294654014701 l0.7756324114123665,1.2911579975099614 0.4456894222250965,3.4504186306679134 l1.138050820531829,19.332097004270718 m-1.524880947467221,-23.605167275363108 l36.04135846130935,-2.7483414205747696 1.3884827231481005,0.1597901957192512 l1.0372226511617937,0.3623597699458523 0.8049950382914309,0.7555882198520911 l0.30224976403428166,0.48057385036668415 0.14538354248147112,1.1964504329461743 l-1.698503588605098,12.414133266776718 -1.1604534727851252,8.062941021414568 m-28.02045697696988,-30.12359523261763 l0.5943735462119918,0.6221903880771097 0.27570942495739004,0.8192108965275305 l0.9140558416476403,25.806260736252174 m12.402388427390624,-29.839298954541878 l0.6968616982919326,0.798991344071622 0.18773480012863691,1.3646722430081961 l-1.7521634831772466,25.607008853585988 m-22.381458152022695,-8.249244368497367 l23.326355244448003,-1.3931617943403787 12.469559402216573,-0.6117990169057567 m-36.25981218023314,12.043228226902178 l34.68549233526313,-1.7370978593582946 " fill="none" stroke="black" stroke-width="1" /></svg>