<?xml version="1.0" encoding="utf-8" ?>
<svg baseProfile="full" height="118.76581110053237" version="1.1" width="118.73973246868135" xmlns="http://www.w3.org/2000/svg" xmlns:ev="http://www.w3.org/2001/xml-events" xmlns:xlink="http://www.w3.org/1999/xlink"><defs /><rect fill="white" height="118.76581110053237" width="118.73973246868135" x="0" y="0" /><path d="M25,29.634493119097467 m0.0,0.0 m9.09431819464566,17.97067840278788 l0.30196400776953036,0.3682394544874957 1.292969959373919,1.3879666961296904 l0.5093111645068094,1.3433565267374732 1.7875722098900377,26.526799155643243 m-1.4976291979378225,-30.158925244185152 l16.663774967385216,-2.37296531260417 1.400596153067341,0.013813656042845079 l1.051073911879716,0.8491331582501556 0.3238825216447158,1.4089200131001225 l-1.793659134406842,28.353030103905706 -0.6574579062350261,0.7842169699305029 l-0.8164221921243742,0.004264094074626287 -0.8582614177872417,-0.5146882755664095 l-1.3805186586601055,-1.9155693475751108 m-5.93797876259959,-37.93120869608105 l1.0297626566699998,1.5894987080484473 0.41205588682789523,1.365624649717106 l-0.14830823077598893,55.05913326859148 m16.87626500703007,-60.14882465979982 l2.18480137554893,0.46554938685056 21.60112682125419,-1.2063870901002414 l2.601093459262456,0.35901959570469394 m-25.702121383826245,8.600352978575927 l2.2990834603148356,1.6218843426503406 1.7900131252312146,1.936342938032984 l1.3030741080866104,2.033074229375628 0.6733096218477808,1.8510129996644076 m15.921208816008605,-11.5197712303129 l-0.23523596941715236,1.9532633828841461 -1.428404162262707,2.9071862259178407 l-2.004428144012973,3.0642109852536246 -2.344089292696793,2.528464319548843 m-18.47253737600988,4.118114274138062 l2.717683760312292,0.2598107911012863 22.4819185867458,-2.0879312644609116 l3.9790514152543563,-0.21291885197228763 2.252319919041005,0.2561590018163379 m-18.431134965898018,-25.544423455400892 l0.730916295012938,2.8941483862812514 -0.08051098397457729,45.45375302565291 m-0.22969424572945973,-26.002312268903058 l-3.181187452428998,6.164735484095871 -4.398716080136878,6.741961057196715 l-4.472112415144266,5.450044919608075 -4.327273882936103,3.811711179734337 m16.9373867842078,-21.64998052801622 l4.652521788098312,6.4960122964472795 7.213896922152721,8.191199685729245 l4.270714573506876,4.379310432298031 1.3545593890024956,0.8775742849810273 l1.429187462102301,0.5499288378144059 m-30.641585216250082,2.5935858536644516 l2.4366278209593824,1.1610940978170459 2.524695386595621,1.9673269837350043 l1.9509021686815402,2.114430759053462 0.8438477628661314,1.6744219762748724 " fill="none" stroke="black" stroke-width="1" /></svg>