<?xml version="1.0" encoding="utf-8" ?>
<svg baseProfile="full" height="98.25047463109408" version="1.1" width="103.57519438465087" xmlns="http://www.w3.org/2000/svg" xmlns:ev="http://www.w3.org/2001/xml-events" xmlns:xlink="http://www.w3.org/1999/xlink"><defs /><rect fill="white" height="98.25047463109408" width="103.57519438465087" x="0" y="0" /><path d="M25,25 m0.0,0.0 m24.197282392219435,6.07210680473747 l0.01183481242821424,0.4941866143624078 -0.27184574123262345,0.9584356046349496 l-1.1382092027269017,1.8702634207862086 -3.663905775481338,4.415493714360388 l-4.012865356027068,3.479258408884375 -4.978511013250319,3.079000649530482 m14.517823502191037,-10.112073484296051 l1.7495362987569087,0.14496784181294625 9.867268617681587,-1.6705433463916963 l1.1043643293667083,-0.06492997727892175 0.674422250836701,0.22421871811295588 l0.34221966880755805,0.44240815370048675 -0.27008066870396524,1.2860489889615792 l-2.626455471810472,3.4349010599243193 -3.106620354256131,3.275072178017107 l-3.8187493018460508,3.4210582556296654 -4.322281598840929,3.371143594391277 l-3.656094473507047,2.522212079076275 -3.9519936747650117,2.4185988554920965 l-4.3038261837242615,2.316645233928228 -4.591217437391059,2.022887029011682 l-3.5291378122207853,1.2836751538217006 m15.705951750432574,-19.779094801105366 l11.83595256347836,7.063863513572279 13.070968518313727,6.845616930345877 l4.688273277871883,1.9379756905264718 4.051090468050151,0.987915524595803 m-28.79075300331583,0.15846511652287226 l2.4306427805922906,0.7281523539932461 3.2675169086938025,1.2826859939029345 l2.6502002341344775,1.3722733348164584 1.1576816572301312,0.9490182086340705 m-13.794385936900646,4.6218612902247855 l4.852177310336359,1.5030527547779537 4.9794007103516735,2.0942716354774986 l3.6655757212201676,1.9764071119726094 2.2979099970868417,1.8229744216266586 " fill="none" stroke="black" stroke-width="1" /></svg>