<?xml version="1.0" encoding="utf-8" ?>
<svg baseProfile="full" height="108.39261765362622" version="1.1" width="101.4410262847573" xmlns="http://www.w3.org/2000/svg" xmlns:ev="http://www.w3.org/2001/xml-events" xmlns:xlink="http://www.w3.org/1999/xlink"><defs /><rect fill="white" height="108.39261765362622" width="101.4410262847573" x="0" y="0" /><path d="M25,25 m0.0,0.0 m7.0679061444155575,22.59434407971892 l0.33743368806495455,0.37029955792214564 0.6929987417394293,1.1649203862646922 l0.2926035660301576,1.7347018002061476 2.080084097488348,27.009830792847282 m-1.8750378204555664,-30.16101781402295 l38.576336613461216,-2.8722326984303375 1.8079283179985721,0.12093915711321522 l1.226660198514256,0.5196277210365647 0.8885889357053002,0.8039608472080348 l0.3455238017950765,1.8904840154766545 -2.184712261695533,27.847237194605672 l-0.900449898199133,7.369522613680172 m-29.314464687046286,-42.9697753614401 l0.8262137371453527,0.8370151295552076 0.3922291796045345,1.1814914254009274 l0.8703236908402657,36.29285171092735 m14.713999736593198,-43.08750452185345 l0.7999348007467108,0.8813279143098274 0.29123269798769075,1.6468701343472985 l-2.37594961039968,39.232477618246406 m-23.842186595669123,-12.019448440995717 l20.701050695171695,-1.744195664731299 17.932551043827612,-1.1477051064031671 m-39.313791005638016,17.48790854727029 l22.105050914701973,-1.5553987640624367 15.175896554188121,-0.774375990758543 " fill="none" stroke="black" stroke-width="1" /></svg>