<?xml version="1.0" encoding="utf-8" ?>
<svg baseProfile="full" height="105.77901264605053" version="1.1" width="92.59574544047643" xmlns="http://www.w3.org/2000/svg" xmlns:ev="http://www.w3.org/2001/xml-events" xmlns:xlink="http://www.w3.org/1999/xlink"><defs /><rect fill="white" height="105.77901264605053" width="92.59574544047643" x="0" y="0" /><path d="M25,25 m0.0,0.0 m13.67866537776297,18.825194773228688 l0.35316898540302916,0.321201010563548 0.46660394484710127,0.8408559127650013 l0.29320956320756547,12.602514730612159 -0.2848849746319451,5.755311505051637 l-0.6925521542389024,4.808651244446955 -1.0667193126428691,4.150779138867808 l-1.3092256143750773,3.2783709600979987 -1.7354760803978915,2.8452637675510632 l-2.1929583491435203,2.350869602865674 m8.237484956645075,-36.37758666056993 l23.551627336495006,-2.1482061078779187 2.1586829869083366,0.11845919891402999 l0.8562283302933872,0.5846536898457574 0.2818904443441558,1.4977842096841145 l-0.8199073031572081,9.92261219166642 -0.2996824789800094,21.29064510016608 l-0.6675676145961229,1.3331663873998312 -0.6423760180766132,0.38101502104575347 l-0.7445612402531079,0.06547660060001297 -1.5836833707224613,-0.6133588954806336 l-2.240994963682887,-1.6012830521506916 m-20.004206955733487,-23.014336591853308 l24.55014770968928,-1.851086753943428 m-25.044490455028637,11.121455814538265 l15.472163526244886,-1.4290833137059082 9.82416861501492,-0.5079236156258549 " fill="none" stroke="black" stroke-width="1" /></svg>