<?xml version="1.0" encoding="utf-8" ?>
<svg baseProfile="full" height="105.27852924192284" version="1.1" width="96.96159890344619" xmlns="http://www.w3.org/2000/svg" xmlns:ev="http://www.w3.org/2001/xml-events" xmlns:xlink="http://www.w3.org/1999/xlink"><defs /><rect fill="white" height="105.27852924192284" width="96.96159890344619" x="0" y="0" /><path d="M25,25 m0.0,0.0 m25.169425189295524,5.231733427517631 l0.04666405450244805,0.45705309071905154 -0.18925593469099866,1.1499219869368265 l-1.3113246995293226,2.26035370289272 -2.0195377162674233,2.521084389410194 l-2.530178977733452,2.4257797066986466 m-5.899845858626576,0.27819710333171654 l0.5012340076492535,0.924291799404753 0.25425909602106056,1.0147119693326807 l1.5716963183909531,17.115564515871366 m-1.4073093047844791,-18.084923837126414 l23.64120584909611,-2.0529105542329273 1.5797447070864579,0.19373912334740895 l0.5431247459101678,0.7282597573177422 -0.016485932453586066,0.5358347290230485 l-2.793653701451503,16.691137987445398 m-22.189065777740108,-8.108854711271537 l23.370490672750186,-1.6898734992926205 m-22.53590635017435,9.57162463973213 l21.548534503514798,-1.4828253002645804 m-16.02112063139837,3.625644945570233 l-0.07091142835459681,2.098958724712036 -0.6729537008722938,2.715886083081175 l-1.2058064350031121,3.2785081605701247 -1.7216736682443325,3.652157487105955 l-1.740483639171233,3.023872376149191 -2.010158701617576,2.8822101206339776 l-2.290914543820716,2.613127971470471 -1.9139082742135078,1.6830951853748837 m18.37572670974674,-22.879472139801557 l0.5099800812415887,1.434280291965218 0.133735596669007,1.1709619794741755 l0.21312086101773675,15.850460822460454 0.5864155583726655,2.1047616020358064 l0.9683170634385326,1.3068554085021047 1.3128908875933079,0.7147222291447247 l1.981723026057149,0.3225979666806225 5.715742162062458,-0.08049925725432187 l3.4029514847907802,-0.5040591921397921 2.1962135162144096,-0.627049551368179 l1.2569891193655465,-0.7298495469033343 0.47001289024128273,-0.6691446011913267 l0.15189607856555762,-1.0065238451581937 " fill="none" stroke="black" stroke-width="1" /></svg>