<?xml version="1.0" encoding="utf-8" ?>
<svg baseProfile="full" height="96.59702407628623" version="1.1" width="90.11020037397516" xmlns="http://www.w3.org/2000/svg" xmlns:ev="http://www.w3.org/2001/xml-events" xmlns:xlink="http://www.w3.org/1999/xlink"><defs /><rect fill="white" height="96.59702407628623" width="90.11020037397516" x="0" y="0" /><path d="M25,25 m0.0,0.0 m19.80059757326961,0.9827728645191297 l0.04492395280629836,0.28100924977330133 -0.11367119107931106,1.129947386338848 l-1.0523331120959698,1.9676296792254766 -1.8255627822918865,2.253011996084482 l-2.165520419387062,2.190926878043239 m-5.219624142847046,0.4771052639451174 l0.5038171806365808,0.7961959031277055 0.2652359201290881,0.9254766389211044 l1.6203387005896368,14.89240599812415 m-1.426137522011417,-15.639209928883554 l21.58543033546761,-1.9575484165052277 1.3851179581563844,0.16277848362035113 l0.5019742940384517,0.7074987625117447 -0.020245949681561987,0.5001794080864683 l-2.518750327710809,14.786207860520328 m-19.902412686776174,-7.218388878007379 l14.084588708984587,-1.105385196674921 m-13.240005231204547,8.095808802332556 l19.367465243620725,-1.2660181490577245 m-14.518128168130417,3.432050434397865 l-0.03004561039892096,1.8764868259302026 -0.5780746578050686,2.430432109124119 l-1.0890887811966234,2.975449039872564 -1.5805572598610365,3.311265843156033 l-1.590032611395052,2.7300971122717557 -1.8503946372841473,2.619531322909742 l-2.1230725361398792,2.358731130823107 -1.7554640572051505,1.508804688339735 m16.870532326259397,-20.652829999156577 l0.4516389962804572,1.2963036610012353 0.1196448041187755,1.063677996967226 l0.1446603389239842,14.539726823880489 0.50742855884095,1.9506745544904238 l0.8554056239345101,1.2096278033373526 1.2389006408870933,0.6944336517883467 l1.8299082072619923,0.290156471107406 5.501508896985119,-0.08920798234435239 l2.9332093430259145,-0.4749676284363059 1.6121356393883146,-0.5560536721354401 l1.1610427828480576,-0.9281097835170332 0.27541931607212095,-0.791987250275244 l0.04839671595156755,-1.9681585428191664 " fill="none" stroke="black" stroke-width="1" /></svg>