<?xml version="1.0" encoding="utf-8" ?>
<svg baseProfile="full" height="107.53566837869585" version="1.1" width="109.49251226847991" xmlns="http://www.w3.org/2000/svg" xmlns:ev="http://www.w3.org/2001/xml-events" xmlns:xlink="http://www.w3.org/1999/xlink"><defs /><rect fill="white" height="107.53566837869585" width="109.49251226847991" x="0" y="0" /><path d="M25,25 m0.0,0.0 m14.930272102355957,0.5310293287038803 l0.03259870456531644,0.583164170384407 -0.29328081756830215,1.8685336410999298 l-1.1243541538715363,3.571579158306122 -3.5929104685783386,8.043880462646484 l-4.5345741510391235,7.845707535743713 -5.417749881744385,7.379176616668701 m11.042617559432983,-14.41155195236206 l0.5668217688798904,0.9798533469438553 0.2221808023750782,1.8176142871379852 l-0.06341399159282446,39.04378414154053 m13.850061893463135,-53.90294551849365 l2.747924327850342,0.09335571900010109 19.230655431747437,-2.23382830619812 l5.818223357200623,-0.08616292849183083 m-30.628676414489746,9.936153888702393 l-0.4662087559700012,4.039142727851868 -1.4926594495773315,6.713096499443054 m2.4523858726024628,-9.743485450744629 l20.259017944335938,-2.653568685054779 13.413118124008179,-0.8765362948179245 l1.352803111076355,0.1352114975452423 0.8195262402296066,0.3732938691973686 l0.3681331127882004,0.5635532736778259 -0.0016019810573197901,0.7053017616271973 l-0.7852932810783386,1.6418048739433289 -1.908099353313446,2.3171742260456085 m-18.23187828063965,-9.837067127227783 l0.7187196612358093,2.5999832153320312 -0.1479682233184576,18.46660614013672 m-9.930648803710938,-10.365527868270874 l2.869373857975006,0.9142258763313293 2.2669431567192078,1.0937337577342987 m-6.181883811950684,3.44600111246109 l2.717992067337036,1.0086674988269806 2.8067567944526672,1.5420304238796234 m11.989442110061646,-9.848076701164246 l5.228522419929504,1.613592803478241 m-4.588246047496796,4.480902552604675 l2.891049087047577,0.9379652887582779 2.9292383790016174,1.4505133032798767 m-28.184545040130615,9.578341841697693 l4.042583405971527,0.22788988426327705 21.556086540222168,-1.9401387870311737 l2.7011337876319885,-0.03533228300511837 1.998240351676941,0.28194867074489594 m-16.239142417907715,2.8597405552864075 l-1.1865410953760147,2.657095193862915 -2.794371247291565,3.4373998641967773 m-11.703193187713623,1.6693288087844849 l0.6418246030807495,0.9571461379528046 0.3589297831058502,1.2279131263494492 l1.296335905790329,14.836453199386597 m-1.1346756666898727,-15.721691846847534 l32.135610580444336,-3.8330569863319397 1.5833164751529694,0.1336202770471573 l0.9788212180137634,0.8320840448141098 0.3053870424628258,2.101111114025116 l-0.5256433412432671,6.182227730751038 -1.2850253283977509,7.000033855438232 l-0.45483361929655075,1.4518894255161285 -1.1542865633964539,1.571962833404541 l-1.3128933310508728,0.1761964149773121 -1.8272475898265839,-1.3605442643165588 m-18.198848962783813,-13.717947006225586 l0.7808206230401993,1.717151701450348 -0.019809731747955084,11.593612432479858 m9.947163462638855,-14.169340133666992 l0.6914537400007248,1.874382346868515 0.005956359091214836,12.823418378829956 " fill="none" stroke="black" stroke-width="1" /></svg>