<?xml version="1.0" encoding="utf-8" ?>
<svg baseProfile="full" height="83.93030833735148" version="1.1" width="246.38610074193298" xmlns="http://www.w3.org/2000/svg" xmlns:ev="http://www.w3.org/2001/xml-events" xmlns:xlink="http://www.w3.org/1999/xlink"><defs /><rect fill="white" height="83.93030833735148" width="246.38610074193298" x="0" y="0" /><path d="M25,37.92045662148783 m0.0,0.0 m13.01649055006756,20.08737431615219 l0.4438877607939171,0.2732950701923273 3.0912327396382278,0.649182329519138 l6.567609758254466,-2.839162145230336 5.817520015100947,-5.772401163226675 l4.453089926249401,-3.8551244724303317 9.472583660667679,-4.945267436888304 l3.105104560023131,-1.4295626440747002 5.152792626646361,-0.7264976934554765 l3.5861149985130285,0.20902781702659023 5.056801833207585,0.8411297541666171 l5.248306537520154,0.9859413604900958 3.5695124731420984,0.9286737351660673 l3.5449338893639957,0.8512633815754286 3.501048834548035,0.7655584936578175 l3.5736213795894414,0.6953372942032688 3.65654461794648,0.7224808395140787 l3.870808084503725,0.5847301007073377 4.3649681217372605,0.385134445102385 l4.728453585370409,0.21124591433715384 4.542063163650559,-0.06957404236712389 l4.580506590843243,-0.2946116296530667 4.242027677357662,-0.42170787585091646 l4.1275951952866,-0.5099764513119427 4.104834515700395,-0.6419292047306308 l4.4374859285195045,-0.7467556737115253 4.010009261577648,-0.8071044428581223 l3.7347412520946563,-0.8714372253042515 3.3481017609757977,-1.008591026955206 l3.340057958545056,-0.8267327561511487 3.5944217334842397,-1.1522272099944093 l3.5014455447267245,-0.896947306559665 3.6824740755571215,-0.7759814215622818 l3.9383723577365304,-1.084120577768432 3.5257431657688243,-0.8077442282601373 l3.795724769311654,-0.8487492829418193 4.084027712065595,-1.1645164124417884 l3.446354826858989,-0.8167531864791513 3.915666819891184,-2.2024597238054 l2.441348223898325,-2.027259558221292 m-17.37360279525464,15.810275942723248 l3.079273489365002,0.464758851716881 3.9552863918232077,0.7739809881665508 l9.601002625112848,1.1526564577040808 4.059119094577204,0.7328871483179566 l3.7533526460842195,1.0820055117840461 m-8.078831735104886,-23.584201581476954 l4.214285992565493,0.4254670262327663 4.021471766573012,0.4497490598777497 l13.461987300359132,0.8453359968927806 3.478327479098227,10.38002589567109 " fill="none" stroke="black" stroke-width="1" /></svg>