<?xml version="1.0" encoding="utf-8" ?>
<svg baseProfile="full" height="109.49251423822716" version="1.1" width="108.75266842544079" xmlns="http://www.w3.org/2000/svg" xmlns:ev="http://www.w3.org/2001/xml-events" xmlns:xlink="http://www.w3.org/1999/xlink"><defs /><rect fill="white" height="109.49251423822716" width="108.75266842544079" x="0" y="0" /><path d="M25,25.000001401640475 m0.0,0.0 m8.007656335830688,18.700718879699707 l0.6611040979623795,0.1364759635180235 3.8327431678771973,0.04236765671521425 l18.09404730796814,-2.5696486234664917 13.391594886779785,-1.58884659409523 l5.473222136497498,-0.3705953434109688 2.6454541087150574,0.2550491876900196 m-33.74225378036499,-10.533384084701538 l0.8209314942359924,1.1142942309379578 0.39048731327056885,1.1886727064847946 l1.3604135811328888,27.10146188735962 m16.915407180786133,-33.47656726837158 l0.7616016268730164,1.1142942309379578 0.2728654444217682,1.1886727064847946 l-1.2965865433216095,29.755566120147705 m-37.37330913543701,3.705780804157257 l2.692157030105591,0.4927145689725876 3.435942232608795,0.03160006599500775 l27.772598266601562,-3.2814770936965942 14.784376621246338,-1.3393324613571167 l6.066520810127258,-0.21384909749031067 3.7856942415237427,0.5131253972649574 m-38.34749698638916,10.11271357536316 l-0.32736286520957947,2.355896830558777 -2.2813454270362854,3.5885047912597656 l-4.413241446018219,4.853977560997009 -6.2204670906066895,5.731298327445984 m32.01528787612915,-16.184769868850708 l3.8182133436203003,3.0064496397972107 4.591749906539917,4.900334477424622 l3.799186050891876,5.257351398468018 1.8255606293678284,3.9036622643470764 " fill="none" stroke="black" stroke-width="1" /></svg>