<?xml version="1.0" encoding="utf-8" ?>
<svg baseProfile="full" height="119.31267749970951" version="1.1" width="100.1968589657059" xmlns="http://www.w3.org/2000/svg" xmlns:ev="http://www.w3.org/2001/xml-events" xmlns:xlink="http://www.w3.org/1999/xlink"><defs /><rect fill="white" height="119.31267749970951" width="100.1968589657059" x="0" y="0" /><path d="M25,25 m0.0,0.0 m27.90607872489617,18.019218661288022 l0.5779933453651405,-0.008078475657304273 7.679700941347131,-1.4377623638289987 l1.9155027677745198,-0.15301769705552581 m-11.240274060462498,-6.4135716468317225 l0.5613267519802266,0.9131761888419662 0.284959346857018,1.2698813538322409 l0.08544856985687248,13.140401092380817 m-10.052908112496409,-8.867109849956677 l0.6257427298051945,0.8711400747742998 0.32158200238133305,1.1621523088305374 l0.31082622376472396,8.298006184468928 m-6.154754497833983,0.6099056161949747 l1.4989906744933124,0.3869351056282602 2.2593036323542726,-0.16204822740521588 l23.40318268689421,-3.229587550375317 2.513375228693595,-0.08859441526078937 m-14.938007121450376,13.815130176046477 l-0.6451468436310501,9.072231217709389 -0.8036289457109415,5.402626795282869 l-0.9244379278909177,4.346618694922692 -1.1809102281599875,4.075996603130192 l-1.449410936064457,3.769614693070753 -1.3741830974608495,2.5734893098424516 l-1.585308548127003,1.9459236498361727 m5.746394401351425,-37.15047338628257 l9.656071661977387,-2.3897969222549906 0.6257073716407843,0.050159149877378774 l0.38780519124387636,0.37732212977316226 0.3913615883810102,1.252103911425051 l-0.21646871930623585,9.013884740926025 0.1485194174416051,22.276491890203907 l0.3272581675505999,1.027570980046056 0.9102221606361189,1.3126552848323851 l1.380452066472199,0.754716518560919 1.877572405505888,0.19295031501701398 l2.9650470532236155,-0.1714077794494435 1.9793952157817907,-0.39272656820713614 l1.5455569643281775,-0.5785038118259785 1.3487153004337207,-0.8025103051599789 l0.889270391870696,-0.9877456294627037 0.4494395218670931,-1.217056225392026 l0.18949549813090008,-3.0148520688942746 m-19.666937180751024,-17.838019262086124 l1.971917213544191,1.6925547350177141 1.3900838379939242,1.8280389317438939 l0.993543493168087,1.7392637601850864 " fill="none" stroke="black" stroke-width="1" /></svg>