<?xml version="1.0" encoding="utf-8" ?>
<svg baseProfile="full" height="123.08261018587335" version="1.1" width="110.58696535949622" xmlns="http://www.w3.org/2000/svg" xmlns:ev="http://www.w3.org/2001/xml-events" xmlns:xlink="http://www.w3.org/1999/xlink"><defs /><rect fill="white" height="123.08261018587335" width="110.58696535949622" x="0" y="0" /><path d="M25,25 m0.0,0.0 m32.07597268484315,6.840634717465877 l0.07669257732130695,0.4320599036980427 -0.33652796232105947,2.183509541721066 l-1.7947227485418749,3.5773600900919686 -2.682407812481476,4.191631367962579 l-3.594327249002858,4.666343376368292 -3.507487312852947,3.804658488238879 l-2.9184962568346715,2.6366766006498232 -4.530892337956954,3.2994318263021416 l-3.8003533025944867,2.2700800156150467 m23.93662536449804,-24.147097370248364 l22.30854069509998,18.504931588358765 2.3536771307278093,1.4971720480138873 l3.0006718895922546,1.0727241113195443 m-38.164123156850515,-1.5071765431919066 l2.052128507466844,0.18288003210457227 17.067350381719564,-1.6472752432343052 l3.234431910883776,0.16802518994543256 m-11.093997482730089,11.102536199689858 l1.876558410959272,-0.7728547519798321 8.016487927112864,-1.1216116094124606 l2.2670848764690588,-0.045892995459267914 1.4300157223734027,0.21710878134699912 l0.8445683746031485,0.8408612111822784 -0.23893993991965223,2.187800733831958 l-5.274050133131843,15.598894169648082 m-14.039377640185503,-9.841097158881642 l17.787636166565626,-1.828995042765306 m-18.692894431675253,10.444446100501544 l16.56568996729632,-1.6801986680364216 m-18.033008501325682,-13.288035535016819 l0.7109953976102682,0.7947402299578582 0.3454407578808726,1.2127630986595008 l0.01780783556800981,30.268944064419756 0.22457634563267778,0.7248219439863199 l0.6116943541781659,0.24180967301961537 1.3736872603001027,-0.5233038008327804 l7.941078615770888,-5.573258327804842 m12.963327983402728,-13.729646789610191 l0.10210557807857544,1.367881991107906 -0.4782096501396153,0.9451998049566305 l-2.0288273647468853,2.3886702491562994 m-11.63653808560602,-2.4660559553040353 l1.4442062644769795,0.7481597972872341 2.618274816694789,2.0555167985113134 l12.761479422873695,11.619600800610991 2.5173634007534904,1.557289702644571 l2.514889825585047,1.134188231946644 " fill="none" stroke="black" stroke-width="1" /></svg>