<?xml version="1.0" encoding="utf-8" ?>
<svg baseProfile="full" height="109.72347877053694" version="1.1" width="97.17878851649424" xmlns="http://www.w3.org/2000/svg" xmlns:ev="http://www.w3.org/2001/xml-events" xmlns:xlink="http://www.w3.org/1999/xlink"><defs /><rect fill="white" height="109.72347877053694" width="97.17878851649424" x="0" y="0" /><path d="M25,25 m0.0,0.0 m22.576629568602034,22.044000143536778 l0.06343685801697102,0.45249257057484366 -0.12956656790516344,1.893536000750537 l-0.48723036705485545,1.3308408207783495 -2.010513243130586,8.294324614510796 l-1.4710294680889506,5.923789542988513 -2.580142586140453,4.308326969031951 l-2.3019831995976268,2.470509962033279 -2.151421723248304,1.6841404222868694 m11.343250952689136,-18.91597995692179 l5.251396343813579,0.0785612305282362 15.232877266427755,-1.2802779552230195 l2.4821335108383478,0.843312116619509 0.30403885388357327,1.132748408606133 l-2.6961313120398565,3.1300861529845947 -3.065606382816166,3.8767052478600093 m-12.049432935352309,1.363056652242442 l0.24920616583630392,1.0967164908450229 -0.3990635636383129,1.9682139493638962 l-1.336762022844459,3.414949603739026 -1.6608099024200935,3.1624817291612186 l-1.712880450196926,2.645939547508466 -2.0100575212310354,2.6030455844754794 l-2.3038592458603544,2.5459021826465427 -1.981840376018232,1.9351419014635831 m14.313287383758112,-16.475819275818864 l0.4237216231146415,1.124663297800085 0.1187762495432631,1.2966457969340444 l0.06796476178102577,11.452935464084288 0.43189391556464324,1.797617028490161 l0.7529366844565762,0.9327498872573611 1.0946647878176692,0.7808355954308362 l2.034402160062725,0.6548467148175666 5.004770079918696,0.15644032915021802 l3.5316158307480174,-0.3402565136000761 1.067657816621974,-0.49738997253931133 l0.7785324483616721,-0.8156513809929309 0.3399093496332146,-1.1985553396389677 l0.06401677258799834,-1.8414761519380236 " fill="none" stroke="black" stroke-width="1" /></svg>