<?xml version="1.0" encoding="utf-8" ?>
<svg baseProfile="full" height="126.42944374116117" version="1.1" width="115.46891266711074" xmlns="http://www.w3.org/2000/svg" xmlns:ev="http://www.w3.org/2001/xml-events" xmlns:xlink="http://www.w3.org/1999/xlink"><defs /><rect fill="white" height="126.42944374116117" width="115.46891266711074" x="0" y="0" /><path d="M25,25 m0.0,0.0 m30.053006747554996,24.96249894652037 l-0.17436426027789229,0.5340977667571162 -1.1838400845146617,1.9784523100337617 l-2.946320877860012,3.3962074211150504 -7.279982510141998,6.255047455682379 l-4.013009616952408,5.272552235307595 -2.2095602497914144,5.5805711831161675 l-0.983525997924214,6.3443804536614605 -0.04928444056837355,6.386476369240191 l0.3163355421065388,5.601977394608092 0.9621545291968026,2.8467916933955553 l1.2778788782223023,2.40226608386772 1.453305070537213,1.8504533369425076 l2.130290192556217,1.676031399436862 4.631134866308235,1.341639691476331 l5.1249806922164405,-0.19907474712294707 2.157323002433154,-0.481302273085253 l1.785065883757883,-0.6912056390121954 1.8344649279411345,-0.9296347535798934 l1.740162595079043,-1.141857978517269 1.7545836813635398,-1.319046482573515 l1.7254998473200214,-1.5480784555651532 1.601224133835802,-5.070831235991951 l-0.037437508969722096,-3.2520439174735296 -0.7841577395890137,-3.3615648920761174 l-1.352934454431928,-3.2019121381656843 -1.654769048188384,-3.2904975434761323 l-2.0788466544720277,-2.7069422974886 -2.5745717793938208,-1.670076236802527 l-2.959423580262682,-0.5935121242517069 -3.580176494497703,0.3785842716716645 l-2.832664136888102,1.1115637521298676 -3.0172774246004033,2.1385764230646322 l-2.003233709141677,2.7737958098688935 -0.9974215274527706,3.025081941601574 l-0.27239470068557536,2.7432352103270365 0.27769614635893886,1.7715520059535397 l1.7228481636120474,1.2347586334077802 4.115939084139267,-0.08341166596263788 l9.586760173628756,0.254020659985745 5.41753185234168,0.36574445551861934 l5.391246740429312,0.5563225655513194 5.7933639950827365,-0.32990495225018635 l5.4206728460754645,-6.1676217800070665 1.2647771855202976,-2.93337440965031 l2.9171576235082197,-6.436889825031143 4.594492198533675,-3.1664680784874752 l3.4042128640558227,-1.56576425291066 " fill="none" stroke="black" stroke-width="1" /></svg>