<?xml version="1.0" encoding="utf-8" ?>
<svg baseProfile="full" height="105.6267335159653" version="1.1" width="103.88727267168963" xmlns="http://www.w3.org/2000/svg" xmlns:ev="http://www.w3.org/2001/xml-events" xmlns:xlink="http://www.w3.org/1999/xlink"><defs /><rect fill="white" height="105.6267335159653" width="103.88727267168963" x="0" y="0" /><path d="M25,25 m0.0,0.0 m24.537264100354992,3.198857588701325 l-0.06368116051041324,0.3265384674876404 -0.49717776762799465,0.7892992949798474 l-4.5462335413827555,2.75602768260139 -8.018156025561522,3.1477444204891816 m-1.6031933011911192,-0.6092982609857743 l0.6354864660412749,0.997835469427612 0.28323450761410907,1.2772669843121935 l2.5036960148786296,18.25259668047338 m-1.1535053600180294,-12.07316767186068 l11.514727460273665,-1.8858410580898717 2.622723370409242,-0.04974014231686961 m5.107416957667859,-10.286895965805407 l2.354918406095332,0.2649566867918236 10.80666739438282,-1.120527069293849 l1.4068996029967822,0.2645924009656488 0.7891706675063546,0.8290698363919392 l-2.7111822884374006,21.850703310634614 m-13.35851103551141,-12.933460487563982 l2.3035389895457974,0.27052100352184666 12.430003248184702,-1.1554914344525429 m-32.39547304243684,14.163259066540045 l30.230591889113406,-2.2664778370542646 m-22.51856483924993,5.681991393460667 l-0.06842184086011162,2.218294946266927 -0.88404222043758,2.8254305582013606 l-1.6335968340590534,3.6675670413142005 -2.3243387111194576,4.057853691969377 l-2.33565330934515,3.3127411654140873 -2.7076832031922224,3.1693774981131417 l-3.065952010823181,2.8592918433638768 -2.536960652630858,1.8258164119664073 m25.360640383380677,-26.837194349838416 l0.7458121511495802,1.5860822194611675 0.1926384434055383,1.3031459685414644 l0.018392666676561725,18.573672225197722 0.6672014089590198,2.314376911333481 l1.0271284281076554,1.2451328534374322 2.31234963965305,1.0091793399758568 l3.4993622100667445,0.45591669982695915 7.373677395888681,0.04403455933943963 l4.193465297580503,-0.4732233217499159 1.790520396501188,-0.6999206106789893 l1.0217165528225918,-1.046526401462412 0.4411621715501539,-1.378921524394773 l0.13919359527774666,-2.5250230030956264 " fill="none" stroke="black" stroke-width="1" /></svg>