<?xml version="1.0" encoding="utf-8" ?>
<svg baseProfile="full" height="128.17144057290358" version="1.1" width="111.82404521734276" xmlns="http://www.w3.org/2000/svg" xmlns:ev="http://www.w3.org/2001/xml-events" xmlns:xlink="http://www.w3.org/1999/xlink"><defs /><rect fill="white" height="128.17144057290358" width="111.82404521734276" x="0" y="0" /><path d="M25,25 m0.0,0.0 m32.89909826687811,24.35792274982057 l-0.19847624348265827,0.41162364254786366 -0.7338177426281992,1.8661728338722106 l-2.3466231226656857,3.5026852988611226 -5.561006762811991,6.373728962845729 l-3.532780853197731,5.8829484588840515 -1.9765723949235936,5.799397342579909 l-1.2617088760644002,6.203400621894401 -0.630700079691248,5.7128795412338045 l-0.20386717056872888,5.141000121545596 0.8227449091571738,4.874831146871825 l1.1356977892881832,2.7001275049025053 1.2284590202067869,1.9769435521563528 l1.9181930301926808,1.8101418290862228 4.203577244579569,1.5576369658014155 l4.6534932425945605,-0.20763349259482186 4.692038196064623,-0.48900498487352617 l2.330312396523917,-0.6748273626627908 2.146925099056968,-0.8557200761124073 l2.2134049960885265,-1.0020214943056553 2.2830391674495223,-1.2078112486488295 l2.2460512982565546,-1.5976877783391565 2.0137377727249763,-1.9226980298957748 l1.6764990523876582,-6.8783807533694095 -0.2366676837762998,-3.491705710775841 l-1.2088928810183037,-3.6936105617808104 -1.5184275212499312,-3.3700949369376163 l-1.6612161203163247,-3.530690684299556 -2.082336699083979,-2.3843792665184402 l-2.7255787054097507,-1.7329712012239946 -3.1186538567865,-0.7923925731118904 l-3.4366752943294987,0.008252199363835451 -3.1375065362112644,0.4405068532506772 m0.8429390169748591,-31.630404504099772 l1.759803243350996,0.8661308379530563 2.1381946795027855,0.9099402938872806 l6.464461732827151,4.879945145187972 14.037178371185224,2.798399267337596 l5.689705236268002,1.6348447804270978 " fill="none" stroke="black" stroke-width="1" /></svg>