<?xml version="1.0" encoding="utf-8" ?>
<svg baseProfile="full" height="115.9581126164666" version="1.1" width="111.35292250695812" xmlns="http://www.w3.org/2000/svg" xmlns:ev="http://www.w3.org/2001/xml-events" xmlns:xlink="http://www.w3.org/1999/xlink"><defs /><rect fill="white" height="115.9581126164666" width="111.35292250695812" x="0" y="0" /><path d="M28.963234454896337,25 m0.0,0.0 m31.675070625277773,13.377996465441912 l-0.008258288985253558,0.30108067375532094 -0.4687959511663163,0.747007276121082 l-1.9071540933399156,1.1462528274554504 -3.2767870953051936,1.5684968448163101 l-3.818910982404983,1.2005791527696892 -8.295211498139736,1.6733448288360586 l-12.431317198038293,1.8676631570329854 m2.2199976177203866,4.06642835510924 l0.9609129526460681,0.7878810709945429 0.9855348227280967,2.5964853973244044 l1.6925379298879555,8.185595678027292 m-1.4524163168509034,-10.654717790160548 l13.925529039408607,-1.4551001103369383 16.131100792416433,-1.3394491899774668 l0.9890025322143345,0.5862418915480663 0.45592393379459806,1.182689366953785 l-1.3762736538476885,5.252588221282664 -1.428092139115034,3.850410902175834 m-26.732673358149963,1.2949353603738039 l14.270226501413342,-1.0827808304854536 12.806458116770134,-0.49600256061981224 m-15.556733930770998,-16.33702728256808 l0.7310244666363339,0.8543856487536512 0.29298705899724886,1.6549681384811379 l0.006098106130357882,14.293677420583005 m-2.6010556495827144,8.222193976380897 l-0.07623898048087527,0.8776170464794459 -0.510609702612345,0.6827111412118744 l-1.6920270125782133,1.592873641133496 -2.5474348587779847,1.9473621308229117 l-3.3329841967991714,2.0108786440222737 -6.542743156205821,3.139551768127138 l-7.049920887786598,1.491826060359145 m27.03570680970528,-13.478121853099253 l8.066809392386965,1.0525360597132707 17.551739513535516,6.9214433222300284 l4.100773283180761,1.4565553056998142 4.597893508149588,0.6008587426019426 m-26.588626100877175,-2.1892765369283174 l0.42347089193573584,0.9779032759223374 0.017874830420521747,0.9264071968335985 l-2.8974883856096825,14.601161781268072 -1.6304766692507602,-0.2044438911871458 l-2.0762530059920534,-1.2632514666055588 " fill="none" stroke="black" stroke-width="1" /></svg>