<?xml version="1.0" encoding="utf-8" ?>
<svg baseProfile="full" height="109.2409324845263" version="1.1" width="101.50444055983839" xmlns="http://www.w3.org/2000/svg" xmlns:ev="http://www.w3.org/2001/xml-events" xmlns:xlink="http://www.w3.org/1999/xlink"><defs /><rect fill="white" height="109.2409324845263" width="101.50444055983839" x="0" y="0" /><path d="M25,25 m0.0,0.0 m21.525943179717583,6.140893310052631 l-0.059070598718003825,0.3547099886591898 -0.4882375160680065,0.8443905088725429 l-4.319517014876807,2.8090884277696406 -7.391382530248297,3.229208034907518 m-1.4544076067495861,-0.6883343333174047 l0.5983662126564455,0.9179024164368139 0.2937488117972719,1.2182377580637642 l2.564026402375842,18.42280742308768 m-1.117492124704098,-12.021721779075289 l11.135656925767497,-1.8447450977542093 2.6571151767229595,-0.043169856933915896 m4.805814849643723,-10.432009791694146 l2.268843054317078,0.2846572085245957 10.878136480663217,-1.1562993574815132 l1.2405106558978352,0.270952683951589 0.767373703675531,0.8455061044782134 l-2.614738698318888,22.169224193681025 m-12.96784503053293,-13.25276370996209 l2.1903840762439315,0.27427739448428395 12.074456709202344,-1.1867876982764147 m-31.54289957216448,14.436299555105114 l29.343870568599154,-2.2911683135840355 m-21.805204655815533,5.875738707426412 l-0.07165561766749327,2.2832571971137923 -0.8554560130579622,2.8551607611149645 l-1.5970122372422881,3.681260621976164 -2.292995108353671,4.0814429737904 l-2.3042562862042937,3.3072979933482243 -2.692341828939285,3.1728971423592767 l-3.0593194813405535,2.856302956194208 -2.5067569943068766,1.8264190612072728 m24.981424876598286,-26.93681447735815 l0.7228874884155974,1.6054221594122164 0.18921640411637403,1.3003518554852482 l0.014093717593109257,18.49242020717528 0.6432929366668158,2.4153406071018826 l1.0530943477731798,1.2713709613959117 2.283685536441819,0.9903934606671677 l3.449070490299516,0.42489113753100577 7.498314567207509,0.032133451215460324 l4.038137292373201,-0.4611699495071489 1.753952590500959,-0.6707724726872462 l1.0394844985903338,-1.0068325115297598 0.4750151587452876,-1.3593468081403872 l0.15911276254504034,-2.4480918100594278 " fill="none" stroke="black" stroke-width="1" /></svg>