<?xml version="1.0" encoding="utf-8" ?>
<svg baseProfile="full" height="103.84335574782877" version="1.1" width="94.7327588474779" xmlns="http://www.w3.org/2000/svg" xmlns:ev="http://www.w3.org/2001/xml-events" xmlns:xlink="http://www.w3.org/1999/xlink"><defs /><rect fill="white" height="103.84335574782877" width="94.7327588474779" x="0" y="0" /><path d="M25,25.34336717200948 m0.0,0.0 m3.084918856721609,17.451410728102754 l0.2605670819746735,0.4414729900031252 0.3995214004061591,1.1238018492591226 l0.13001197425585198,1.9503106907258296 0.014631586752007993,32.53299231772846 m0.3946971401793877,-35.437757707642966 l35.8627414359016,-3.7518295274294835 1.4546147437951034,0.11862220964130868 l1.5929259527975774,0.6065351105060368 0.9361829584858002,0.8644780262514254 l0.520499762020321,1.1631593286942248 0.08144595418780547,22.602398783874264 l-0.8924672194136357,11.740292262729106 -0.4489071491765448,0.9766156273932632 l-0.5592455872170818,0.590766585200052 -0.6261716779654362,0.13659709802472506 l-1.410978473319662,-0.600640862220044 -2.5257786904354527,-2.682950418425847 m-15.639922758845223,-50.16964226442483 l0.6477614156858189,0.8570899365914304 0.41887304577524465,1.283654023740646 l-0.20697184284442943,7.348329230793766 -0.968591086738785,6.889327152181172 l-1.893042644954163,6.829363565653136 -2.2326045618703954,5.062720412355828 l-3.002058338780348,4.757823192926695 -3.927633687079971,4.395735538142829 l-3.6290861985153913,2.918960921352828 m16.30667630215153,-17.925352547399946 l3.7768449645471835,2.491395172072819 4.506657155408706,3.8743920924509156 l3.7098778202837783,4.210826858816247 1.7636822072280944,3.098171472095781 " fill="none" stroke="black" stroke-width="1" /></svg>