<?xml version="1.0" encoding="utf-8" ?>
<svg baseProfile="full" height="112.56390670723196" version="1.1" width="86.15498898957094" xmlns="http://www.w3.org/2000/svg" xmlns:ev="http://www.w3.org/2001/xml-events" xmlns:xlink="http://www.w3.org/1999/xlink"><defs /><rect fill="white" height="112.56390670723196" width="86.15498898957094" x="0" y="0" /><path d="M25,36.13833832548109 m0.0,0.0 m2.0623416265655394,17.07148427897596 l0.2420064062830935,0.4271420646364675 0.3223887746586922,1.059466562311458 l0.13324147494304364,2.239887178749033 -0.05556857972416087,29.022551197432005 l-0.34143649551709077,1.1349723179303108 -0.3477067853057328,0.4358763036832748 l-0.20705712658489722,0.03418847803235973 0.4638190733576212,-0.1981746880831966 l0.7519543911968448,-0.5420477198107949 8.577998981297847,-7.2916581667774345 m0.3908771710229821,-32.245272226694034 l2.2943732605964935,2.9184966944947592 2.1563003738081687,4.149252332258536 m1.1156160953249294,-10.35284895151814 l2.367645484849612,2.3125252498297906 1.9457475990345445,3.073279568874854 l1.2393232100863123,2.6125391528361677 0.7866826314601028,2.5789296021359966 m3.122647822610201,-27.966955549610034 l0.5875390457004488,1.1652539746109887 0.2170303364687235,1.2793105152986262 l-0.014777977007123178,22.38202399563508 m6.977941875150472,-26.438560490713126 l1.0682241800238892,1.2019366449640825 0.2978361392703784,2.020002520828208 l-0.08871393526661238,42.73562980724231 -0.18212653358000805,1.4338072485656579 l-0.34675395890692495,0.7170896008017117 -0.47142473423446507,0.12486610923068413 l-1.1074203817670174,-1.021097399750734 -1.4006916652304953,-2.3134996684094182 " fill="none" stroke="black" stroke-width="1" /></svg>