<?xml version="1.0" encoding="utf-8" ?>
<svg baseProfile="full" height="103.91649294475025" version="1.1" width="93.26344721933779" xmlns="http://www.w3.org/2000/svg" xmlns:ev="http://www.w3.org/2001/xml-events" xmlns:xlink="http://www.w3.org/1999/xlink"><defs /><rect fill="white" height="103.91649294475025" width="93.26344721933779" x="0" y="0" /><path d="M25,25 m0.0,0.0 m13.765378611590316,3.4814787306300277 l0.03205520511227014,0.4973584528060269 -0.35125945702001626,1.02636141015556 l-3.356194764569209,5.698406705060228 -2.8918722220420245,3.8348270271702556 l-3.4538648372862344,3.7761761954647777 m8.768253637781823,-7.740597913827273 l2.7073831560432007,-0.2884786420140753 16.691322263597062,-2.543469421280458 l1.7054357223169019,-0.02553166803223636 m-29.240567647318592,17.840739465960702 l1.7515275994757855,0.23492356936891975 2.416388719532038,-0.1140472690914054 l13.832470904296816,-2.020344260007494 14.61728269623019,-1.579733459010898 l2.716752517436042,0.26781211698551716 m-18.57731230666861,-8.593166166713928 l0.22218566409766244,1.1486424856244533 -0.04143532087188984,2.096556070990565 l-0.7452193007682478,10.402939677279525 -1.1458065354675493,6.122936638585488 l-1.663179746785141,5.390431771090249 -2.1915222436604727,4.675870507702638 l-2.7551424330267413,4.090699217603861 -3.31925184420511,3.52701560447355 l-3.655667327408059,2.7086860977756664 m16.47084437023879,-25.50551356514314 l6.861058773253974,9.798935823185124 6.119729779447172,7.420640155187781 l4.568051470762554,4.465301043212056 1.9813178537463842,1.1360687060897443 l1.4243042614767056,0.5161834344445527 " fill="none" stroke="black" stroke-width="1" /></svg>