<?xml version="1.0" encoding="utf-8" ?>
<svg baseProfile="full" height="106.8165025474377" version="1.1" width="99.33730367933286" xmlns="http://www.w3.org/2000/svg" xmlns:ev="http://www.w3.org/2001/xml-events" xmlns:xlink="http://www.w3.org/1999/xlink"><defs /><rect fill="white" height="106.8165025474377" width="99.33730367933286" x="0" y="0" /><path d="M25,26.0078556312044 m0.0,0.0 m3.333465278508254,18.16724998467154 l0.28892187396528973,0.4472502029133553 0.3539220961371524,1.139433751892672 l0.15407953078456993,2.0915781903693165 0.0073113476480005215,33.96313478638641 m0.25289217402369074,-37.05980753170413 l39.92942020883864,-3.755559260873218 1.479937513679679,0.14820646675529092 l1.7785442062460104,0.6128361806831336 0.9779402040975612,0.8427270970387174 l0.6285741081054728,1.1475976008749944 0.15229513729853028,20.79442876081118 l-1.3863984427621723,12.780442797512753 -0.5088087687343646,0.8567386793939266 l-0.5918064978071045,0.5098653847297056 -0.6576034979992958,0.10861655377794995 l-1.5014291680247027,-0.689887608870216 -2.605464233370104,-2.559701026940603 m-17.16203491704095,-50.55300664062718 l0.6672762419987357,0.8384278312319994 0.4478534397451675,1.3385560192275252 l-0.23084908941105642,7.2448385914633135 -1.0916282884224786,6.720361007614892 l-2.15466433107476,6.830119121129578 -2.4827526262617177,5.008400111437694 l-3.303953894660941,4.777182078029424 -4.241371207687619,4.415026303687172 l-3.8875257403995787,2.8988895024781502 m17.54573769404214,-18.46732081124198 l4.104737079626668,2.485749829311983 4.855559076321617,3.934128265906822 l3.95508146087016,4.245682653340335 1.909658868442316,3.132952260750102 " fill="none" stroke="black" stroke-width="1" /></svg>