<?xml version="1.0" encoding="utf-8" ?>
<svg baseProfile="full" height="114.05342133085968" version="1.1" width="103.73883890495182" xmlns="http://www.w3.org/2000/svg" xmlns:ev="http://www.w3.org/2001/xml-events" xmlns:xlink="http://www.w3.org/1999/xlink"><defs /><rect fill="white" height="114.05342133085968" width="103.73883890495182" x="0" y="0" /><path d="M25,25 m0.0,0.0 m32.38703914036709,20.146206030194758 l0.5668965550422206,0.029397611077618322 8.391527207468311,-1.1148286295151133 l4.080774437163022,-0.14576463576847765 m-15.242720187202288,-5.251932158805724 l0.792993704681581,0.8688547240042811 0.31210328317734226,1.1772453355348906 l0.17964510518120622,11.515098919627157 m-14.06916964179625,-8.132027500434816 l0.7876628355301011,0.8207000067155329 0.4265582719055333,1.250663164415824 l0.39234587063304754,6.779753737801415 m-8.159646089142784,0.5523021627897021 l2.141221393734853,0.37553331753537184 2.2031841431453625,-0.16393769540827322 l31.429024804369735,-3.294968416156626 3.2351697302075912,-0.08764916662450782 l3.8842283404861546,0.36835353662432474 m-27.081050246587335,3.396762818799819 l0.5737961004790383,0.9180197029000955 0.153576555681042,1.010410232486983 l-0.042915852129133736,16.343177240503934 -0.06713559277235381,0.7710937558371741 l-0.10891636569623067,0.425178040506741 -0.07943426581436625,0.09252431485020712 l0.02323901974301617,-0.10926337452303524 -0.3871620009770555,-0.2732219865387253 l-1.3880884668897537,-1.471983662136709 m-6.274533925213187,-9.392377906174238 l-0.032536995780470784,0.9287080030192801 -0.3541050890567957,0.7387221436862391 l-2.3753604958440433,2.94214169142184 -3.38811843568979,3.0260146332809432 l-3.5676818040439082,2.3870186265093993 m31.314965613942867,-12.074117257642946 l2.5892373687043144,1.2065224086567259 2.600467987716082,1.7799865418853018 l1.988470809706175,1.8191457650919998 0.9164128242796976,1.3812114291634043 m-7.807788982185926,-0.9042448202878159 l0.09417722273226098,1.064655262861226 -0.25177804519431735,1.1651259311856377 l-1.7690148804667767,2.6658645892896495 -3.532811464352462,3.8237064695193927 l-4.6352147002437265,3.9864027068048755 -4.3292832436606155,3.1200358244711004 l-4.768990421239118,2.9382559149919976 -5.05097468825969,2.5911236464821523 l-5.120217935164419,2.0638223003496896 " fill="none" stroke="black" stroke-width="1" /></svg>