<?xml version="1.0" encoding="utf-8" ?>
<svg baseProfile="full" height="101.48205353480915" version="1.1" width="110.56137692991729" xmlns="http://www.w3.org/2000/svg" xmlns:ev="http://www.w3.org/2001/xml-events" xmlns:xlink="http://www.w3.org/1999/xlink"><defs /><rect fill="white" height="101.48205353480915" width="110.56137692991729" x="0" y="0" /><path d="M25,25 m0.0,0.0 m30.80454637789148,6.278469567419092 l0.048595134565483124,0.3400544306476428 -0.46655725205504545,1.2148014883117562 l-1.6790679455263882,1.959149346122634 -2.411943485106974,1.8151604210346943 l-2.9386052112361427,1.616322571318377 m-7.088054500771661,0.2021901206149232 l0.6409631867416954,0.8018935251473327 0.27122770874834573,1.34696699166812 l1.127158929807485,19.09783017251784 m-0.8952685974073812,-20.113408969499286 l26.761423089547545,-1.9883000701113285 1.5900410135443601,0.13982678046920252 l0.6753554175754025,0.614183865955981 0.11222302746281208,1.1442198502648386 l-1.5486009408542074,18.167708162086445 m-27.213364070321127,-10.958803822941187 l17.911815396245387,-1.5591382552035582 m-17.79644306176288,7.742674983390892 l18.340325535437284,-1.1970204343233701 m-17.72104303199416,7.23391573420364 l26.539852021461005,-1.3695115170926766 m-19.588839562769458,3.441178731456882 l0.17955038416646976,1.180500053679908 -0.7097893324637439,1.4716719541775998 l-2.097363976690496,2.5872133749812547 -2.8560502525931835,2.7670486020656697 l-2.6437257885736143,2.1661716569738654 -3.088115416647832,2.1257142290076416 l-3.4986192552595208,1.9562983739544917 -2.8313622823038824,1.2570716165098288 m28.068471531296087,-18.56757813277411 l0.7830834054079684,1.2416687873288883 0.1955139308823234,0.9873009883802961 l0.05688528195960019,11.30576479050255 0.5509460079864246,1.8773466991837173 l1.0569048446080025,1.1827133352861148 1.9769399548133517,0.722850967696327 l3.1295835797578864,0.32919693956368407 7.218183341161982,-0.023166658334435503 l4.598689183574376,-0.42022500708120597 2.4526977979127165,-0.5900009279622349 l1.563834627656832,-0.7777904821716611 0.6793056023606325,-0.706292404309944 l0.30007458168203177,-2.0819175855914827 " fill="none" stroke="black" stroke-width="1" /></svg>