<?xml version="1.0" encoding="utf-8" ?>
<svg baseProfile="full" height="128.74476360618732" version="1.1" width="102.98371934124229" xmlns="http://www.w3.org/2000/svg" xmlns:ev="http://www.w3.org/2001/xml-events" xmlns:xlink="http://www.w3.org/1999/xlink"><defs /><rect fill="white" height="128.74476360618732" width="102.98371934124229" x="0" y="0" /><path d="M25,25 m0.0,0.0 m32.84774938346708,26.820840788674456 l-0.16605768439695537,0.40910090778153946 -0.7319544247563928,1.6762185361665793 l-2.509548613306426,3.0677895017510384 -6.148740899483911,5.57241840984575 l-3.6974853456496746,5.304315247820408 -1.7690956954915749,5.456785974851222 l-0.7430080974088923,5.969929497429365 0.11868155611185603,6.129469216776778 l0.35693672449014596,6.193397754020414 0.8537758784061669,2.874347983818286 l1.0562923183095514,2.700184580668504 1.260336792480996,2.3408717317688623 l1.9069306842714264,1.9160934704684853 2.341911655644402,1.4123067616407743 l4.669507512904951,0.9006932427048705 4.604742149918877,-0.14208358187470968 l2.260922511654102,-0.37235311417927996 2.248139866077311,-0.7106067383688643 l2.3787727962599368,-0.9920977103836701 2.366700590851545,-1.1956121903218693 l2.356499841492534,-1.3772436099808776 2.2983540625477175,-1.5592841597768876 l2.240272571204803,-2.0142356368144467 1.738667273399416,-3.1539053265571693 l0.7844343851386926,-3.132123286702951 0.05998154710460035,-3.5669564079121017 l-0.879877235502706,-3.4742705051450686 -0.8535914511117163,-3.696014237331713 l-1.3391910805848641,-4.114575600765675 -1.6035691529530451,-3.3348529690204702 l-2.3958928648300324,-2.3754726695826687 -2.8862693369862504,-1.9595159328893463 l-3.2748772312084173,-0.9198951714077885 -3.2227274362744516,-0.06405397192145942 m2.030807673809564,-33.46155986446339 l2.0820384551572864,1.6790943491410586 2.05182715929354,2.3278065373277865 l1.3892770602223918,1.7082519181969598 1.1235897057303355,2.2083307354222375 l0.45548814030350215,2.341654027134001 -0.012457989633697496,2.423571391296726 l-0.5711622832836505,1.9750926450663786 -1.2094879112207924,1.5143773816562607 " fill="none" stroke="black" stroke-width="1" /></svg>