<?xml version="1.0" encoding="utf-8" ?>
<svg baseProfile="full" height="126.83780751034564" version="1.1" width="102.0768084597186" xmlns="http://www.w3.org/2000/svg" xmlns:ev="http://www.w3.org/2001/xml-events" xmlns:xlink="http://www.w3.org/1999/xlink"><defs /><rect fill="white" height="126.83780751034564" width="102.0768084597186" x="0" y="0" /><path d="M25,25 m0.0,0.0 m7.618443655432637,13.528886358171725 l0.39663278413106573,0.11826984676620492 2.493235035747915,0.060782216724936965 l22.008844430017867,-2.343493948581609 3.5880474543731387,-0.21776417560700695 l1.8964654777071461,0.2308314170594893 m-31.026368980274324,12.75971561659094 l0.7581904728736305,1.522173892387571 0.42861070373764415,3.6808748753547196 l0.00821971077900655,26.74134739100193 m-0.19253163095459733,-30.93942843927108 l28.40488006825783,-3.3814730525987438 1.15292981636048,0.1768282591120736 l0.7752800796469372,0.5513048364832965 0.6060998333425286,1.0155945803481963 l0.17832014433432192,0.6713892356649478 0.0621260664353042,19.383080330150946 l0.37827922823276156,8.850618550747008 0.5096744679327189,2.9730887831057826 l1.4604269390280422,2.897763584230344 3.249610689760193,1.8452779683261868 l2.491359090202509,0.0836914277558407 1.7749339185934734,-0.9472810652092436 l0.8305399774365746,-1.6049108502779235 0.010066095270948759,-4.831055023076097 m-24.746275615059176,-26.639770921243713 l0.4170640287137526,1.1544883143172564 -0.28337158831737014,2.110808373752705 l-1.2722799990717248,31.289305810766383 0.4225498776125829,0.528132419584588 l0.7644980208287901,0.34253576346536424 0.7170005781079198,-0.021205876648317273 l7.820634905594926,-2.4688688713264484 m18.374672722903142,-12.62727234732545 l-0.3423926256346174,1.3550680104809256 -1.2172298500281946,1.2462341515909645 l-5.539542648083267,4.251906260479217 -4.634605810589067,2.3763768731960306 l-7.353430785974246,1.6040185823562365 m-0.457260588236732,7.93132211508708 l2.64706709050067,2.174120275691719 2.830823726078196,3.061369935271674 l2.306354853837901,3.325041400184865 1.4203551769185534,3.0180846253041436 " fill="none" stroke="black" stroke-width="1" /></svg>