<?xml version="1.0" encoding="utf-8" ?>
<svg baseProfile="full" height="104.61984465212875" version="1.1" width="121.79863338741646" xmlns="http://www.w3.org/2000/svg" xmlns:ev="http://www.w3.org/2001/xml-events" xmlns:xlink="http://www.w3.org/1999/xlink"><defs /><rect fill="white" height="104.61984465212875" width="121.79863338741646" x="0" y="0" /><path d="M25,25 m0.0,0.0 m16.303033712811015,8.313974387773673 l0.3936103552850327,0.4782891586936881 0.6096312330556611,1.10955107729197 l0.22688116750292087,1.4564032719789748 -0.05866552120280829,17.690703638403207 l-0.8641685092630975,8.937651620484468 -1.6786332158963615,6.389879551555226 l-2.269740022376224,4.186452869106472 -3.016976435146551,3.361377479236529 l-3.8754357868661304,2.6955615976045415 m13.399103347583376,-44.82409843825005 l30.115779302602004,-3.4164326924953308 2.0990540280103445,0.09009505298159438 l1.2972612627656748,0.7087263048555315 0.626555746812579,1.227577208674977 l-0.563583163913646,0.8441585634344314 -1.935665103251072,11.789494932301764 l-1.251946096225841,8.355649126930539 -0.6517835622543591,7.585795514177797 l0.1263632346753662,4.597639548328489 0.5952611600362301,2.2104778330103594 l1.56406547551324,1.7230937257901013 2.9436358654539716,0.9728200120610737 l4.674717156799151,0.3684071151967541 7.835935088928379,-0.31482866178485835 l2.1385297317520493,-0.6543398981694633 1.7882920463709095,-1.1285253658467138 l0.8675032958887394,-1.3389259886274465 0.36001759196590655,-2.0275497574207404 m-39.4801666196764,-20.578816708733214 l4.818249743345495,3.7151931140631516 2.038921356684306,2.4166683663388087 l1.4245560316538064,2.260842530950985 " fill="none" stroke="black" stroke-width="1" /></svg>