<?xml version="1.0" encoding="utf-8" ?>
<svg baseProfile="full" height="105.19204452589156" version="1.1" width="100.46756240430499" xmlns="http://www.w3.org/2000/svg" xmlns:ev="http://www.w3.org/2001/xml-events" xmlns:xlink="http://www.w3.org/1999/xlink"><defs /><rect fill="white" height="105.19204452589156" width="100.46756240430499" x="0" y="0" /><path d="M25,25 m0.0,0.0 m27.867979960453802,7.853413453010128 l0.06559169263821946,0.4640343728768424 -0.16814358925498657,1.0670464151622743 l-1.3974047683593123,2.176133257740054 -2.2300289034595275,2.4253787866997025 l-2.6722936793995977,2.261120128231878 m-6.600787135766433,0.21822529769432444 l0.5438967384802679,0.8628011533378196 0.28748323514255947,0.9655866526477106 l1.651426904266107,16.03356936468431 m-1.4196656477074867,-16.892685810601318 l25.54518248750556,-1.9072951091815915 1.630578241369163,0.1771094514083736 l0.6189558651440817,0.6728289453899516 0.0001959593903187406,0.46913883105639187 l-3.048509083368427,15.855107709064855 m-23.91966488534938,-7.680743989645051 l17.048894709525186,-1.176432748827792 m-16.061322162701487,8.587733548484081 l23.181953594985178,-1.3865565104365125 m-17.34846056883346,3.290732763048792 l-0.07871533785486416,1.9735335374374119 -0.7335383543723099,2.580013226283563 l-1.2804526662647033,3.097234153886466 -1.8276138333095304,3.4485074940360985 l-1.859389770438159,2.8691835531893166 -2.1512051776218573,2.729151760913009 l-2.4701209758132046,2.4707426465258275 -2.045198996891604,1.59853258567801 m19.739043544773796,-21.65075826721772 l0.5467276458444139,1.3350785535214307 0.14188292677179262,1.1031135349289993 l0.23827634046732854,15.248402070354016 0.6572208033184455,1.9950735350240136 l1.0067440750527281,1.162820766049721 1.5763821799702384,0.6670777922526745 l2.1794575829145915,0.2280916211834925 6.389237423706112,-0.1321498968997748 l3.5327232287450587,-0.5089295703972172 1.9491776796696803,-0.5830757205217132 l1.3810651209366842,-1.6998234804309664 -0.047683567934626074,-1.9372679978994196 " fill="none" stroke="black" stroke-width="1" /></svg>