<?xml version="1.0" encoding="utf-8" ?>
<svg baseProfile="full" height="99.60190891303128" version="1.1" width="101.53741144251194" xmlns="http://www.w3.org/2000/svg" xmlns:ev="http://www.w3.org/2001/xml-events" xmlns:xlink="http://www.w3.org/1999/xlink"><defs /><rect fill="white" height="99.60190891303128" width="101.53741144251194" x="0" y="0" /><path d="M25,25 m0.0,0.0 m7.627057700912703,15.373558188450248 l0.4863157973164243,0.12424161282549269 3.4781272367185423,0.08291773482453209 l27.32721147705624,-2.3425437468935995 4.521267029812802,-0.13598104767927807 l2.758015334715718,0.23957936334111835 m-29.60767968611692,-4.748471214566115 l0.9624434841602276,0.8546899773638666 0.3740926589333338,0.6351085368910132 l1.7135414514768306,10.457626689799966 m14.617830404924607,-13.26079387319113 l0.3389591312774687,0.8070272451606539 -0.0026494422353415484,0.9277019149669435 l-2.3121610990881982,10.078932481323998 m-19.00106639731404,5.183270445007549 l0.8028151876996666,1.5864707868301744 1.608062855162588,9.825429592916349 m-1.0604316044388131,-10.555982421115827 l18.95464838625707,-2.2370084023392094 2.3203098922385412,-0.09953674739149512 l1.1545766526293861,0.7161252283540754 0.34181814679969347,0.6634873049376575 l-2.1369961639794597,9.740730467358773 -1.090531870596137,2.6174185562995755 m-19.49798632880442,-5.374908961959829 l21.9576746870043,-1.601363923974008 m-21.49013862016866,7.321224822353258 l19.279940297117342,-1.4197449934234136 m-28.270918428928645,8.885080454447154 l1.868528356501722,0.16395798492805388 4.7073467688096144,-1.8362451658696672 l2.3925473157184554,-0.2868946064972827 m1.3077377575937534,-3.8808925163489216 l0.3507482396871475,0.37620853767111423 0.33200623949032904,0.8650140640502944 l-0.06199190497049239,7.937984166244441 m-9.151101954132526,1.5380235705449685 l1.1214840087966718,0.3804668073897955 1.222491861763454,-0.11831214498608526 l10.587051421890102,-3.8790983508388255 m5.385858089347223,-7.478604256855386 l1.2446505501850562,0.27456304663089276 1.429002533751879,0.001109462630656635 l10.161169778477355,-1.5549111529045012 1.4210617885638288,-0.06133920661011615 l0.7168291324759659,0.2595259183525641 0.30544855286902056,0.8555309437262807 l-0.1607475110818099,0.7474698005004335 -3.6391830390906876,3.537087780709947 l-2.316262530263637,2.983803703491159 m-1.0355517034438257,-6.560801081975367 l2.7378073016448594,1.927860164494355 7.366157942070766,2.847428169465819 l4.616778516784806,1.6360257096253463 2.4733957585300534,1.3546546166897138 " fill="none" stroke="black" stroke-width="1" /></svg>