<?xml version="1.0" encoding="utf-8" ?>
<svg baseProfile="full" height="111.08738727414803" version="1.1" width="97.55025325126003" xmlns="http://www.w3.org/2000/svg" xmlns:ev="http://www.w3.org/2001/xml-events" xmlns:xlink="http://www.w3.org/1999/xlink"><defs /><rect fill="white" height="111.08738727414803" width="97.55025325126003" x="0" y="0" /><path d="M25,25 m0.0,0.0 m14.139023494909965,9.985486115334977 l0.043178310959664706,0.5044653139624576 -0.2882647355574129,1.7482974824420612 l-1.1722719492288785,2.7279231955670915 -3.9407949741816397,6.930004714578875 l-4.1010429989795485,6.388832275523784 -4.4396899409660895,5.914708400726847 m13.578917385343457,-19.290683333555936 l2.4942626589991144,1.284830338963358 2.835499327039823,2.1690040824978416 l2.4611079032988936,2.480198210864207 1.436598349898445,2.2269878039275106 m-15.548706971625494,5.363138627074588 l1.8909254091622023,0.05129760549447628 8.156161233483171,-1.2223927414388287 l2.839634664534757,-0.0009518330828157085 m-17.473956993543094,9.447438893398013 l1.7171653028032048,0.2519621303526934 1.9561014312097418,-0.045228575106461846 l13.750909117448087,-1.9657943347832534 2.431997662670033,-0.06456605228753287 m-10.027550149193441,-5.589099837322011 l0.45633557190223056,0.4907105880061395 0.3143178408208109,1.1312175140139171 l0.2036174942933315,23.150496514905853 m-10.477372212511641,-10.429050506173311 l2.7407323829707955,3.6242573764896084 2.0353285412280466,4.292891994520411 m13.75110746526516,-11.870164558819278 l0.224157190338867,1.3198333479819158 -0.23988618713749368,1.1278580712969581 l-3.9018862232065956,6.12604362583194 m-16.084467457262363,9.86404352823077 l1.1719753969484732,0.6526941515066749 1.4118589127034067,0.0027858955118186114 l16.666343019739994,-7.321362601239709 m5.83210171538991,-36.81257397612857 l1.6499225766257941,0.33058693364489383 2.1985874385078668,-0.09442934511732029 l13.658674595620797,-1.7665948319616367 1.1066145655159578,1.0494948260179429 l0.22122831950975338,1.628237883959139 -3.432737704069735,9.234535682662782 l-2.4856074994716315,3.8050908779175043 m-0.6689031655650877,0.8565119850613515 l2.7172769773548233,2.356775570016525 2.0811560610027877,2.96991245228016 l1.9800681159288154,3.1690863820646533 1.3955703771565768,4.102398832302777 l0.2849356031754259,5.610250321014514 -0.6542390238125395,2.464559904666476 l-0.7376703797149103,1.2700528758810743 -0.9387867009845353,0.8320909701968682 l-1.122407222966455,0.32702580286487026 -1.31138242653615,-0.28301912588574235 l-1.4735634997698535,-0.9596712916766973 m-9.459719537680586,-35.59890009169979 l-0.04844484243245674,0.8759782940137528 -0.039256395085788785,2.4857767044717916 l-0.06935971549018716,41.77609621238507 " fill="none" stroke="black" stroke-width="1" /></svg>