<?xml version="1.0" encoding="utf-8" ?>
<svg baseProfile="full" height="109.49251232203096" version="1.1" width="109.45981309516355" xmlns="http://www.w3.org/2000/svg" xmlns:ev="http://www.w3.org/2001/xml-events" xmlns:xlink="http://www.w3.org/1999/xlink"><defs /><rect fill="white" height="109.49251232203096" width="109.45981309516355" x="0" y="0" /><path d="M25,25.000000521540642 m0.0,0.0 m5.975306034088135,1.0162241756916046 l-0.019807585049420595,0.5150659754872322 -1.4893838763237,6.871823072433472 l-2.4325409531593323,6.593210697174072 m4.308224618434906,-11.637191772460938 l33.06246757507324,-2.683383524417877 11.54041051864624,-0.6654157489538193 l4.97469425201416,-0.01033339649438858 1.244223415851593,0.48463858664035797 l0.33836718648672104,0.7779145985841751 -0.34918174147605896,0.9663444012403488 l-1.8872308731079102,2.0822595059871674 -2.01627254486084,1.5851567685604095 m-43.56908321380615,10.66938042640686 l1.3512691855430603,0.3988553583621979 1.5129375457763672,0.009623118676245213 l11.456093788146973,-1.6392295062541962 1.9491855800151825,0.16466988250613213 m-20.939905643463135,14.27667498588562 l3.3026543259620667,0.12650963850319386 18.03537368774414,-2.431349754333496 l3.6930781602859497,0.225180983543396 m-15.473240613937378,4.167451858520508 l0.110872071236372,1.8337081372737885 -1.2204863876104355,4.418569505214691 l-1.700267642736435,4.888910949230194 -1.9429534673690796,4.292827248573303 l-3.860611617565155,6.144132018089294 -2.960987687110901,3.486318290233612 l-2.646082639694214,2.563965320587158 m20.986831188201904,-29.186828136444092 l0.6836996227502823,1.1181147396564484 0.23553729057312012,1.472245454788208 l0.14406610280275345,21.950974464416504 0.5954877287149429,2.230730354785919 l1.4410848915576935,1.3509024679660797 3.5596373677253723,0.7861629873514175 l7.812872529029846,0.18653957173228264 11.365177631378174,-0.15914233401417732 l6.000427007675171,-0.7879500836133957 2.419893592596054,-1.0422295331954956 l1.4412681758403778,-1.569942981004715 0.7066117972135544,-2.195903956890106 l0.22329071536660194,-3.775562047958374 m-25.479819774627686,-26.55907392501831 l3.5259106755256653,0.24064097553491592 18.95992636680603,-2.253551185131073 l2.5910934805870056,-0.1907668635249138 1.899695247411728,0.25150708854198456 m-10.235332250595093,-10.79842209815979 l0.6767343729734421,1.0400300472974777 0.2318713441491127,1.4674797654151917 l-0.14209565706551075,36.88128709793091 -0.4857383668422699,0.9274853765964508 l-0.7122940570116043,0.2714635990560055 -0.8592987060546875,-0.22270645946264267 l-3.311452567577362,-2.6006248593330383 m-8.21172833442688,-17.901567220687866 l2.6251867413520813,3.4478259086608887 1.7524157464504242,3.9999181032180786 " fill="none" stroke="black" stroke-width="1" /></svg>