<?xml version="1.0" encoding="utf-8" ?>
<svg baseProfile="full" height="104.51177229044812" version="1.1" width="106.19382179852441" xmlns="http://www.w3.org/2000/svg" xmlns:ev="http://www.w3.org/2001/xml-events" xmlns:xlink="http://www.w3.org/1999/xlink"><defs /><rect fill="white" height="104.51177229044812" width="106.19382179852441" x="0" y="0" /><path d="M25,25.95719732950975 m0.0,0.0 m20.26363739869011,4.660546908370629 l0.0566826683764618,0.5360295883208002 -0.24745115946537477,2.0408764514930646 l-1.02266612616742,2.636649446144131 -1.9103822400601869,8.033113217266544 l-1.8524758831115775,6.599949359713482 -2.8935428249661763,7.722799508463347 l-3.8259436650248566,3.9213295484060517 -3.225330000930098,2.137493836204425 m10.779455856715963,-25.737751190945247 l2.012568456637387,0.47257712924499334 13.382845136644958,-2.774675922819161 l0.6825535038152423,0.16747916732930157 0.40085170954724053,0.4406346427490963 l0.04392270788626591,0.756845498650609 -0.3918688293054254,1.2331821921614456 l-2.9527692468937365,7.654661728073313 -2.7115681757993575,5.1396283087636245 l-3.047752129449471,5.23392069696087 -2.981753121006124,4.402681994334743 l-3.0865822853658353,3.952786092838009 -3.2530455303983787,3.589634822048635 l-3.3934636575144377,3.0856365454334664 -3.6336006543986232,2.5684893792710066 m6.095971723034901,-26.8163137610029 l1.668779080383415,1.296276979650141 2.3170123772773388,2.191898922823084 l1.7358664012149463,2.1976524537887827 0.7536680632959166,1.7053169653708349 m17.055866787793203,-30.006547838616886 l0.7787349526842875,1.4893286007127498 0.42762315276183277,2.061497509533215 l-0.09808536352834721,50.96094618020216 m2.8936408885339935,-38.46785093903068 l4.709116214872868,2.530214405181647 4.651247803513725,3.747301087579965 l3.902629591241078,3.9826339609938533 2.1094282169887,3.3501022435715346 " fill="none" stroke="black" stroke-width="1" /></svg>