<?xml version="1.0" encoding="utf-8" ?>
<svg baseProfile="full" height="122.06458411501075" version="1.1" width="125.4850455114406" xmlns="http://www.w3.org/2000/svg" xmlns:ev="http://www.w3.org/2001/xml-events" xmlns:xlink="http://www.w3.org/1999/xlink"><defs /><rect fill="white" height="122.06458411501075" width="125.4850455114406" x="0" y="0" /><path d="M26.420096200074077,45.0173338677802 m0.0,0.0 m5.7087112881354845,3.399119605992688 l0.387667830940387,0.39186313992622557 0.5066422094964548,1.7112814934874467 l0.09991493453473994,40.292963387126875 m0.5757630917872969,-43.20366181250453 l15.128834186096826,-2.243634424414033 1.3890452635352675,0.20052716966920475 l0.579547811723005,0.982357696711242 -0.04173487293741956,41.36949926000583 l-0.41529432949506817,1.1692165960005136 -0.6059645612946726,0.2967504212376784 l-0.7105725866472314,-0.2485066808694013 -2.873175294176528,-2.6049555425372564 m-10.87795090931952,-41.21317625791996 l15.314234922412153,-1.7094158901115608 1.6358774964087008,0.06369674275609279 m-16.121712558473067,14.390844976675778 l9.815461087088792,-1.6472114723208204 4.598613915717428,-0.6108385094913515 m-25.514005125607106,16.275983159089858 l1.5311795281996323,0.36188061063606486 1.6415183579227304,-0.07044398225713985 l21.441384635565,-6.991110050410607 7.239430010999441,-0.43502405393279253 l2.0306554297000354,0.4667732846485855 m-16.18529647272391,-35.40847030324107 l0.820454759946879,1.7338170825413535 0.23590242957707827,2.353719912563951 l-0.13495958044024015,62.97340468817169 m16.643916643937285,-68.79670404323954 l2.7343749962930013,1.7337422310578667 2.296045134113806,2.2880736854779107 l2.050226105338331,2.674602850960286 1.2870067934690514,2.414783093168207 m17.251950835704008,-12.379081932435486 l-0.10069748489459943,1.974968977427648 -1.7822052773405699,3.9658245018323193 l-2.600021275367706,3.9931135681426237 -3.057963812793082,3.5927244521042954 m-18.556636318458164,5.364246001839056 l2.3544310909848,0.283119710426803 2.4766583382138454,-0.1610978173127054 l18.992529980468664,-3.0169271597102933 5.739563483737999,-0.2956835164947555 l3.138308736077412,0.3235765964605654 m-31.109833139699283,17.15997278894156 l3.1509039302057977,0.34890824419140876 18.116854638194425,-2.324214291207978 l7.619637626123765,-0.5616945351193672 2.556134653083483,0.30267854471863154 m-34.30784838326384,17.73091577948872 l2.405729744473401,0.357384638615656 2.599584571717926,-0.050126414948530505 l26.18689151504107,-2.993151887399913 7.72718584791428,-0.3803523976456669 l3.052047439418849,0.2694934031803909 m-22.643651700739586,-24.064319907678783 l0.7365429894652699,1.1283288705490069 0.2786857173692235,1.8899969628177307 l-0.129660653644144,24.777336910536157 " fill="none" stroke="black" stroke-width="1" /></svg>