<?xml version="1.0" encoding="utf-8" ?>
<svg baseProfile="full" height="111.12243461183901" version="1.1" width="105.47821289524988" xmlns="http://www.w3.org/2000/svg" xmlns:ev="http://www.w3.org/2001/xml-events" xmlns:xlink="http://www.w3.org/1999/xlink"><defs /><rect fill="white" height="111.12243461183901" width="105.47821289524988" x="0" y="0" /><path d="M25,28.997446193435266 m0.0,0.0 m14.151023321392335,3.780448984111299 l0.3814397470601259,0.37709667834176175 2.607453644124583,4.056345764688808 l1.3640673472160705,4.211013763538296 m16.128055620138213,-12.61781098297055 l-0.12027271189892194,1.9260116617872431 -1.2142104388884094,3.2941382525645415 l-1.7851958049722674,3.3995289521585317 -2.111032602964087,3.0301786351190967 m-15.887736839995705,9.515222377448463 l1.1932214886164871,0.4192340184862798 1.2692413803032894,-0.06142811886737884 l16.088774666552613,-3.3618928636585736 2.0806320815226984,0.2670174160602652 m-22.697965825521074,16.4763185584579 l1.6627719429126822,0.34300952704045373 1.734648624106483,-0.10892116740373246 l18.41924959511043,-3.65970781101133 2.082887022344239,-0.09636092553236345 m-11.711937509155623,-34.39321657453128 l0.5484490789748038,1.1163042729721757 0.2958628351303343,1.9559367463254886 l0.006707416565059533,57.25652125327835 m17.808747014406194,-50.81799022055571 l0.7318566051823892,1.4604524007781943 0.2927344896694107,2.238815554973196 l-0.005980928320552421,25.47317877477912 m11.116403954881157,-39.47689112181381 l0.8398797402156045,1.6933399439134156 0.20843794054131068,2.158780907500976 l-0.19389976146918178,54.10780469792393 -0.4221283718941713,1.356842844562472 l-0.5821983756292766,0.46948746319228796 -0.6923767119083337,-0.17556813759417875 l-1.5097478579011496,-1.5808524936161954 -1.6790366182358722,-2.3126018606439027 " fill="none" stroke="black" stroke-width="1" /></svg>