<?xml version="1.0" encoding="utf-8" ?>
<svg baseProfile="full" height="113.75978948551989" version="1.1" width="88.86699035522352" xmlns="http://www.w3.org/2000/svg" xmlns:ev="http://www.w3.org/2001/xml-events" xmlns:xlink="http://www.w3.org/1999/xlink"><defs /><rect fill="white" height="113.75978948551989" width="88.86699035522352" x="0" y="0" /><path d="M25,25 m0.0,0.0 m16.558905591110655,3.981195351030368 l0.3765387509167049,0.39881776152903986 0.433585237813633,1.2647453778611053 l0.028668067622115753,10.754823117198963 m-9.522864935494514,-8.235701618204901 l2.732953460284931,1.3694015057182103 1.9001427045939696,2.020190311423172 m14.314851429234539,8.63259349788499 l-0.018455076951596375,0.14206845819928918 -0.7260913660012885,0.4685523930654767 l-3.8412065962869324,2.8140706515450984 -3.4297881776817287,2.120425491311384 l-3.483088934668762,1.7025382534913676 m-0.11803403851424896,-8.392666561091344 l0.4339346367532613,1.2443327084852416 -0.06083957597228276,3.1867894457183468 l-0.166308291178129,2.989303369545125 -0.5965666264567714,3.125712531277401 l-1.7598961157429642,2.4256201702327633 -1.699098039014274,1.6395666085667586 m3.1824673044807086,-8.866287171308821 l1.2382561853521623,0.33675506211213585 1.7584296208139618,1.0362032529407272 l1.9337408869052812,1.5210889164265244 1.283168389415035,1.5070424484680405 m4.306567581669776,-14.696609160230162 l1.785978049494461,0.2476187368902024 10.422441458449374,-1.1847756184640685 l1.1680131921880605,0.0854712963761847 0.43058558208839287,0.3308399906967785 l-0.13981156484115762,2.0552052142731507 -2.0700520959864765,13.300512627815932 l-0.9682283542639251,0.777618796067426 -1.0038458743856182,-0.16536829830633407 l-1.1884558956858968,-0.905722330821261 m-1.6200738914241835,-11.338730904996154 l0.044852196813826815,1.2220491754377714 -0.5853829684965404,1.8342428907892616 l-1.733232969790787,3.827871592709738 -2.341854611538106,3.1653016292865153 l-3.163283731088174,2.860007260633815 m-15.552932578246788,3.9164987904641193 l0.5136025493118631,1.564150295528582 0.04676270499746694,17.59806502284979 m0.40038332846689123,-18.568456242550518 l21.137731438163037,-1.8496223977162187 1.294592287037563,0.13865791291342686 l0.8502480759894677,1.8285462061571067 -0.1809950573650224,17.606563606596517 m-22.14739815031005,-11.970268138873271 l21.59556355624978,-1.5484566035916485 m-21.705151826120527,7.379561217511097 l21.335145636369344,-1.4744099686201058 m-21.673057098897324,7.743816151784016 l22.137711976210838,-1.3083645068691276 m-17.85074159517665,3.337752760388385 l0.03189454855121535,1.205838986340288 -1.2489633780950178,1.390730491699176 l-4.409192976900296,3.4060694164739913 -4.449686407359715,2.760402253449024 m21.971007134294755,-7.879246767539994 l2.533515975496843,1.5988882463154823 2.9741127966848557,2.2520406645704747 l2.2346545507303563,2.0569269759043105 1.257705526130909,1.579498639132686 " fill="none" stroke="black" stroke-width="1" /></svg>