<?xml version="1.0" encoding="utf-8" ?>
<svg baseProfile="full" height="104.81926609410172" version="1.1" width="103.91479807630796" xmlns="http://www.w3.org/2000/svg" xmlns:ev="http://www.w3.org/2001/xml-events" xmlns:xlink="http://www.w3.org/1999/xlink"><defs /><rect fill="white" height="104.81926609410172" width="103.91479807630796" x="0" y="0" /><path d="M25,25 m0.0,0.0 m11.78970984198422,26.010852086510624 l0.5964730667896275,0.16466771231367772 1.8759803618567032,0.2887192192398037 l2.5156260682113363,-0.15031969986161062 32.68465829761219,-5.874895163082981 l2.170242855738448,-0.06777896437988988 1.5846026630658183,0.4906283194370445 l0.5990006815813521,0.9155186893361936 0.09850423946827791,1.5556761244003208 l-2.108240445146774,10.226406122235566 -2.8616857339221524,8.983913774355822 l-3.3035635607614515,7.262102687053569 -1.6540154005164138,2.663570202190884 l-2.554736203926262,2.3502049843527053 -1.9598005588843221,-0.01349105534953183 l-1.1246371899367045,-0.84699219581397 -2.0990328057747965,-2.4509423778509145 m-2.0289342460856163,-45.062982423056695 l0.3752363376348751,1.7632573323198646 -0.12168405175847431,2.0662416992627275 l-1.869700659118857,7.474015602422341 -2.6858359704263046,7.372491787297473 l-3.639834781956494,7.608867807462796 -3.8358235651545267,6.105311547376402 l-4.627737707791104,5.700886186973053 -5.566241860563093,5.217293883361985 l-4.792285938809029,3.595010538791093 " fill="none" stroke="black" stroke-width="1" /></svg>