<?xml version="1.0" encoding="utf-8" ?>
<svg baseProfile="full" height="104.67594962893051" version="1.1" width="104.91416147290167" xmlns="http://www.w3.org/2000/svg" xmlns:ev="http://www.w3.org/2001/xml-events" xmlns:xlink="http://www.w3.org/1999/xlink"><defs /><rect fill="white" height="104.67594962893051" width="104.91416147290167" x="0" y="0" /><path d="M25,25 m0.0,0.0 m25.123111985464615,1.2971493997525665 l0.010251295662337482,0.42604045674238605 -0.48354249170029456,1.5458439221098836 l-2.009344840010855,4.3465514331606965 -3.6008620211349562,6.150246865317177 l-4.295727017785485,5.6031854380119235 -4.800008418805671,4.5322864636780515 m11.303069799453366,-9.313073472326238 l2.146334389405412,0.4745052711086682 2.204231052731097,-0.11821265105923472 l22.72241831099809,-3.764904692189021 3.6088787000975584,-0.48454621142726545 l1.5991252011024486,0.554844175586986 0.8857431479270117,0.8110848455036943 l0.5004823794970074,1.2968616990268373 -0.12407003531022372,1.80139926753527 l-2.087194276582609,11.986412648737414 -2.244027004455905,9.453373915825525 l-2.7326872012531154,7.707540984749481 -3.0923398185971696,5.807969941235105 l-1.3213351528488249,2.006265158731853 -1.1514058624649082,1.5962493872123877 l-1.0762991681544802,0.7921927116931837 -1.0038704625843804,0.16668267021317953 l-1.0319984518215517,-0.3154920739256807 -2.3069222777429412,-2.050873582184972 m-11.040503090681026,-29.59927421883978 l2.5726731623428916,2.3274250026464443 2.6740841732159497,3.240716832381481 l2.2455745042901416,3.4420433436687095 0.9973165066410851,2.3717934248822767 " fill="none" stroke="black" stroke-width="1" /></svg>