<?xml version="1.0" encoding="utf-8" ?>
<svg baseProfile="full" height="108.12611004875643" version="1.1" width="105.07267734052226" xmlns="http://www.w3.org/2000/svg" xmlns:ev="http://www.w3.org/2001/xml-events" xmlns:xlink="http://www.w3.org/1999/xlink"><defs /><rect fill="white" height="108.12611004875643" width="105.07267734052226" x="0" y="0" /><path d="M25,25 m0.0,0.0 m17.506913343152558,7.483529342918514 l0.037341684826440735,0.4703031188483079 -0.2583064523652252,1.6175043307591013 l-1.0568278524918564,2.5372519786769834 -3.5165942315973298,5.733609480970299 l-4.302913780778605,5.476881562089753 -4.937984495356027,4.61839027790375 m11.102430687461782,-9.553900756501248 l2.3385535689976056,0.40773923814600366 3.3869128308955236,-0.13829517600259625 l26.472239447409656,-2.866428958730988 2.450295177306486,-0.20347530635243158 l1.5998586080720412,0.12422386791600827 m-19.49481340288737,3.7191260702310505 l0.6060970610707098,2.1502995353896495 0.10430448069607648,3.0837539980261135 l-0.3640659295685579,32.16221431238195 -0.45859028764731635,0.9374388018440483 l-0.6553060777949271,0.36594433024216394 -1.6058307858250231,-0.07416064254896657 l-1.7815301604284728,-1.0037948186446488 -2.338762029307925,-1.8548521693011668 m-10.307586637089898,-24.587573196212386 l-0.11494327010536223,2.238819675044982 -0.5879177114038567,1.8226132231154992 l-2.782739340308609,6.231494044901207 -3.3596361302185564,5.153077127482073 l-3.604215847301441,3.827683929036209 m37.704073884702105,-19.949857343928944 l3.8499815332029352,3.39875044852575 4.263607044724614,5.1954662914640855 l3.379954437840456,5.391902309267707 1.7986779726396336,4.282879740614207 " fill="none" stroke="black" stroke-width="1" /></svg>