<?xml version="1.0" encoding="utf-8" ?>
<svg baseProfile="full" height="107.00243330013194" version="1.1" width="117.52599123503072" xmlns="http://www.w3.org/2000/svg" xmlns:ev="http://www.w3.org/2001/xml-events" xmlns:xlink="http://www.w3.org/1999/xlink"><defs /><rect fill="white" height="107.00243330013194" width="117.52599123503072" x="0" y="0" /><path d="M25,29.999774168305976 m0.0,0.0 m6.574042651815127,21.550191254942067 l0.5430029564304657,0.2704402576550265 1.7633864267091348,0.4367022453997685 l1.8749110300660337,-0.04133394824898955 5.425498287175394,-3.2870783627260085 l3.6952998501225167,-5.282780424933327 2.90453194543264,-1.7146260772902329 l4.791304350512462,-1.5339885314163522 3.83067108722332,-0.3429657425538951 l5.469300317971655,0.09540583596657674 5.269400450595462,0.7977981166186787 l6.232235552702453,0.978766547545232 3.8089799649711398,1.1320501070283806 l3.0122787709859242,1.269032131607302 2.589463713569066,1.409570302332644 l2.5381572424642775,1.553561496202215 1.7930042617066677,1.6596230015071285 l1.274107586485398,1.8736410095081786 0.769661731973631,2.073188497696369 l0.31153565230036684,2.7899127366110434 -0.1283635546729146,2.9724789421169984 l-0.5274379227930062,2.1432383738473226 -1.2330121944500585,2.369311896550561 l-2.767991970757574,2.1450413856056394 -3.7182356276403805,4.751268638699848 l-4.9561228020799675,5.546380212672641 -5.557624963996739,3.856539239298141 l-6.45270910970587,2.531289989582993 m17.397596973438855,-53.830443181242856 l2.9915559561931615,2.850917214360399 2.519360367486544,3.5502313493973925 m-0.9225763316392196,-9.573138682646869 l3.5780421490428465,2.3864293011435147 2.832736435391901,2.9616005030544414 " fill="none" stroke="black" stroke-width="1" /></svg>