<?xml version="1.0" encoding="utf-8" ?>
<svg baseProfile="full" height="110.90088844757027" version="1.1" width="98.32174766024579" xmlns="http://www.w3.org/2000/svg" xmlns:ev="http://www.w3.org/2001/xml-events" xmlns:xlink="http://www.w3.org/1999/xlink"><defs /><rect fill="white" height="110.90088844757027" width="98.32174766024579" x="0" y="0" /><path d="M26.029870645907327,28.09233622681583 m0.0,0.0 m15.690952664737067,2.298750286599674 l0.3806263836165261,0.4540406514226689 0.5454876041221036,1.3617286359010796 l0.11174549012564415,18.693895122352167 -0.4563651129175398,10.178791707872005 l-0.9156835462473034,7.6195595050008285 -1.5264503543592094,6.1416580931347005 l-1.987493388382564,4.36960565284283 -2.5234095600083344,3.5912314702845705 l-3.4400746139559044,3.099291095343908 m-3.671503035450857,-41.91176135606019 l2.4213374956958225,0.05306259505937987 2.4612144819167034,-1.896485830863296 l7.041747227603807,-2.1786399192307058 m-11.592824003517086,14.380167043546749 l3.3530660882033314,-0.08590291066389727 7.891443962691915,-2.4146569447094004 m-14.813688429781454,15.98638884491223 l1.1495407491733296,0.557590662728466 1.2785075933057204,-0.21740955465916192 l12.067635618181995,-5.6690900293231525 m15.464196611655536,-37.504151048307286 l0.5196632779877294,1.020346654061437 0.2896508475721638,1.8990771454050417 l-0.10110588281348944,56.95803715177521 m2.1580262841576516,-46.72335928244934 l5.287608830765518,-0.9394037672642276 6.212366959349023,-1.5942600439680528 l2.237210393071455,0.00874240359776267 m-14.046727509180972,14.219227419757093 l4.233669268774941,-0.5932298007526783 7.053518628696622,-1.5786450470856905 l1.8465196358369917,0.009760499921022465 m-13.093511630846972,16.58749413379475 l13.88769158520104,-2.5127294710940355 1.8772863993575113,-0.002439389948940788 " fill="none" stroke="black" stroke-width="1" /></svg>