<?xml version="1.0" encoding="utf-8" ?>
<svg baseProfile="full" height="115.92493197929953" version="1.1" width="112.66541513912225" xmlns="http://www.w3.org/2000/svg" xmlns:ev="http://www.w3.org/2001/xml-events" xmlns:xlink="http://www.w3.org/1999/xlink"><defs /><rect fill="white" height="115.92493197929953" width="112.66541513912225" x="0" y="0" /><path d="M25,25 m0.0,0.0 m13.59766551615245,20.159847937204763 l0.4544522436788335,0.3923860467122158 0.5128639204159698,3.048605615266861 l-1.695654001253078,7.687270539584652 -2.548999440187421,6.828845209927149 l-2.372208130208854,6.229688846138879 10.569531217098925,1.221177719449488 l9.413509711786688,1.6064660183651405 8.20347507180344,0.9567050594965874 l5.461255652986708,1.5654427810921072 3.6104443286723344,1.7628224741521392 l3.4853279849812955,1.9753323032720616 m-33.111438268285774,-29.968432420301696 l4.909953109845031,0.054678822210778175 27.529325273976387,-1.8821329905697448 l1.8492046756217897,0.0522458447075911 1.5079910095065125,0.26060429754304276 l1.2212338511570227,0.7729789924480074 0.19099752639110623,1.1336991043493787 l-1.0376255770033924,16.38521840727938 -1.770803553575543,11.391664261926984 l-1.8566932943490706,7.032993663122822 -2.057245583217087,4.7889411005991445 l-1.6096501877111697,1.7713366566172675 -0.8827935788077806,0.46799688952120516 l-1.8557876115849985,0.22854879918333543 -1.6606766202858798,-0.4599898161697377 l-2.5536597594366937,-1.3645093294781288 m-6.296848691551331,-36.04151957594629 l2.930330304956421,1.2553440294262852 2.7874413977327044,1.6860857473335116 l2.415549541346995,1.807721727899502 1.3722125741313331,1.590819057814044 m-11.77000320475446,9.909363681939437 l2.528742014589794,1.1811373428138843 2.6365084529545624,1.645899778055458 l2.2604675750603667,1.7599241092404532 1.2945041032481837,1.492356242762996 m-34.64392700891929,-9.028018236119687 l2.7431256053595665,0.30623174703718464 2.7556825280010933,0.04590661452080606 l22.864521854923964,-1.6395281418338963 14.805450613272601,-0.8865398091722705 l11.942486101339954,-0.5675977470356953 4.535175889261997,0.30415681063884187 " fill="none" stroke="black" stroke-width="1" /></svg>