<?xml version="1.0" encoding="utf-8" ?>
<svg baseProfile="full" height="125.07711038727517" version="1.1" width="113.45845773866492" xmlns="http://www.w3.org/2000/svg" xmlns:ev="http://www.w3.org/2001/xml-events" xmlns:xlink="http://www.w3.org/1999/xlink"><defs /><rect fill="white" height="125.07711038727517" width="113.45845773866492" x="0" y="0" /><path d="M28.192978713031756,25 m0.0,0.0 m19.303814003914493,19.262984295661767 l0.0315106541773152,0.3953297912025396 -0.15860931044261564,0.8135652974277792 l-1.4835198225851542,1.43622112919226 -5.410519814319327,3.8891334214148214 l-5.734218054433516,2.9828439040906307 -6.9366350316445295,2.738450659834813 m1.117405114802688,-11.704180156604178 l5.927359040192736,1.2553098652603263 6.483498595155814,2.5105757365957873 l5.019069877138272,2.71110022109856 3.7313832018104747,3.1597145885574 m-22.41319971355915,10.177205017953387 l1.880712151100974,0.2791674499869183 1.8442230120051901,-0.07269041958963281 l17.431253785891407,-2.132303884766082 2.667333529023642,0.03862723106636746 m-10.652911470657008,-6.231239409509965 l1.046847989496676,0.9524767960171123 0.26017557244200334,0.9290891728404063 l-0.2735380116693578,28.354764541977133 -0.2936356451672572,1.674651759571106 l-0.6129893614939065,0.6394358247965033 -0.8130259450968566,-0.10747493245094446 l-2.4207836811555605,-1.9613469728952253 m4.0580448905607325,-22.617730320777067 l-3.4709574496808218,5.269840459969033 -3.965119587257389,4.5679754185231545 l-4.291130196990826,4.543011516578788 -5.064817034590897,4.585111761431286 m17.9195493606787,-14.044542874323112 l3.252846316466827,2.319845328579023 3.6695508015392795,3.775989389523117 m11.418112578475764,-27.502018845776075 l0.16074668895591526,1.6840287424138045 -0.3226986069402484,3.5096478943280585 l-1.6798325363802036,7.035944422492506 -2.275926515600807,5.3071620819311 l-1.5783542274228353,2.419432820618049 -1.5589394560532432,1.9198312637932637 m7.45342162578921,-9.48573422571727 l1.4028122658514715,-0.1761180393489155 6.970872249695917,-1.8184714784490752 l2.343050371254217,-0.055224377509481316 0.5477925940175924,0.692744469524841 l-0.5001613533177343,1.3520126730343642 -3.409053737888255,5.414528506092224 l-2.5395658480510397,6.240319882682282 m-8.10889369806888,0.4542811992590682 l0.6432113539651297,2.016260883665452 -0.5945860185806695,5.506761983468307 l-0.9741098360571778,4.222964393334067 -1.5953969562778973,4.310377111769764 l-1.7909220666964782,3.303252492365074 -1.742554204903637,2.4032939586016053 l-2.705933683575478,2.7748802393335303 -2.642031260992507,1.9874699991946838 m14.363321269339263,-20.36961800399722 l4.340118603379318,5.533313012826034 5.408817636014873,6.166047032960515 l3.9429522475746985,3.5986289400693283 2.199459216227506,1.9607089106423363 l1.3549683715330292,0.7938837048868755 m-12.912635257232923,-31.217142675968113 l2.3207286219092818,0.8085856008186018 12.72481195941212,1.42367692399774 l2.6486341632423396,1.1378325346425564 1.4682807062666416,1.2886226658337712 m-19.02238109260772,5.9169588047023725 l3.472489784451152,0.17159286388249395 15.429838436533698,-1.2308083220725168 l2.8205356062577325,0.15926301505965165 m-21.317499616501443,8.227357235858683 l2.3247675842941735,0.15972496751337842 16.595375244099362,-1.4537944297599619 l1.0298937566134583,0.1487633335108728 m-22.539924332583524,11.58459960636694 l2.451763322092362,0.22327627861057958 20.18359888558207,-1.6696265508504988 l2.4075364228845277,0.2142382439351806 m-13.722211352556565,-26.508036601266376 l0.9649346263410594,1.097210548665487 0.29808008223477306,1.3303744915352513 l-0.1403464501409825,31.672938595536134 " fill="none" stroke="black" stroke-width="1" /></svg>