<?xml version="1.0" encoding="utf-8" ?>
<svg baseProfile="full" height="108.719244055361" version="1.1" width="109.972250193824" xmlns="http://www.w3.org/2000/svg" xmlns:ev="http://www.w3.org/2001/xml-events" xmlns:xlink="http://www.w3.org/1999/xlink"><defs /><rect fill="white" height="108.719244055361" width="109.972250193824" x="0" y="0" /><path d="M25,25 m0.0,0.0 m32.338682115947925,1.9973961741232698 l0.023814848636250052,0.44316964007938175 -0.23071752383984945,1.5287494782665418 l-1.6610077156838159,4.176590448220138 -3.4511131954098064,6.893758114548551 l-4.123989839081906,6.058795165784143 -4.4415775887041855,4.757836590226183 m10.775923829692301,-10.108755728645617 l1.9760705127309854,0.4802954454026637 2.016349826860371,-0.11559196407701092 l20.77658532728988,-4.093527002911565 3.165464033852721,-0.4488074169650467 l1.5765710199728957,0.5768858248014944 0.8262729449885762,0.8450350285391396 l0.4049215965716577,1.3870355881458907 -0.15438709282813765,1.9093915877097374 l-2.040635453302333,11.809580162329697 -2.2014671488305293,8.656945892256115 l-2.668279607256346,7.888504809743133 -2.8925838616509845,6.295612677295548 l-1.165993041565666,2.445634331407911 -1.003978287674499,2.297146073390794 l-0.9594111717389125,2.0082945487999506 -1.6300537269298827,1.0292685868899574 l-0.42037896583069423,-0.22735733943911518 -0.8078034048882333,-0.6341310946982115 l-1.9256111653036874,-2.12983784229814 m-10.25341041547765,-30.398915036467436 l2.368421881758654,2.4262007932555054 2.466163979436801,3.3057656201802623 l2.0739784702446413,3.5736409477584212 0.9140019665269065,2.467925981152009 " fill="none" stroke="black" stroke-width="1" /></svg>