<?xml version="1.0" encoding="utf-8" ?>
<svg baseProfile="full" height="116.7406366540967" version="1.1" width="110.65647001163283" xmlns="http://www.w3.org/2000/svg" xmlns:ev="http://www.w3.org/2001/xml-events" xmlns:xlink="http://www.w3.org/1999/xlink"><defs /><rect fill="white" height="116.7406366540967" width="110.65647001163283" x="0" y="0" /><path d="M25,29.126781148768423 m0.0,0.0 m8.910599469511986,8.188036458791554 l0.41832394702457254,0.42849701381675886 0.5376068091707351,1.7049340894182035 l1.9080818702270486,27.07606106090334 m-1.6606190981046802,-28.961199665740224 l19.076473467568064,-2.2662383775691453 1.3827943051156448,0.12439624806747916 l1.0204352874866145,2.4472504338505687 -2.10276988247176,25.18260087951156 m-10.61933514398983,-29.181328556610076 l0.6034560506065614,0.9898234937271386 0.21586710172853288,1.2623463535715587 l0.07941634988625174,26.47066492152703 m-9.398070346132418,-13.725310054523705 l12.338621605916115,-1.8834582878170036 6.723752991566206,-0.6304828355727482 m-17.542374196816304,16.229726236512324 l16.407790555122386,-1.2759737930243154 m8.62594108652666,-34.20029176434374 l1.897386813005279,0.3705300263190396 2.381895158673851,-0.016533260573780063 l16.798526627487803,-2.460831769010241 1.4915618330348053,0.17171070737056177 l0.9163980288427893,0.7591276034663854 0.24470932064591772,0.6604541955165181 l-3.598217221621389e-05,1.7987303592124793 -1.2939871244310113,9.722206095702433 l-1.4624781788250463,7.220952211168104 -1.8247314239014414,6.084516708175124 l-1.343476847564002,3.1216336088655927 -0.7469456450848274,1.8967435279048177 l-1.991260961067974,2.7855911065371264 -1.1335044024642922,0.009450707080487354 l-2.007268461975933,-1.9774674997618886 m-2.0326491786513623,-31.733573686982734 l-0.005587806109557571,2.4892092901614387 -1.0702063822897008,5.819887979860164 l-1.357285760572853,5.368509753307535 -1.7487287314341449,5.282151082152385 l-1.775975928390947,4.197683885128564 -2.1107754871021136,4.138827275063785 l-2.4538931733592784,4.071880160586071 -2.1241950989921405,3.0811910564627323 m3.701897027548483,9.26270232848948 l0.6360089242457985,1.9513255210951712 0.3182453871156538,2.946339350577008 l1.5601267434528172,17.61085332695738 m-1.37695666758085,-20.948585878541774 l15.538028127444496,-2.2695731610696983 3.0110260476653625,-0.19006059078785492 l1.2337778396289436,0.382862037585581 0.8402954897407822,1.081878883322875 l0.16164306830950542,2.363421810356323 -3.027845407585299,16.06085477068958 m-16.023722719483626,1.5732855425679375 l17.448694008832813,-1.1601947905432313 " fill="none" stroke="black" stroke-width="1" /></svg>