<?xml version="1.0" encoding="utf-8" ?>
<svg baseProfile="full" height="97.5065109343914" version="1.1" width="104.63680828407936" xmlns="http://www.w3.org/2000/svg" xmlns:ev="http://www.w3.org/2001/xml-events" xmlns:xlink="http://www.w3.org/1999/xlink"><defs /><rect fill="white" height="97.5065109343914" width="104.63680828407936" x="0" y="0" /><path d="M31.563176933821403,29.960821057635517 m0.0,0.0 m1.9942021216804944,17.218465908793775 l0.5757892314762189,0.13586761600778693 1.9382625309884653,0.11508598097402639 l16.96763257379218,-2.204947891395293 2.3733148805425794,-0.17129645309423888 m-11.47101668505982,-12.251234923360702 l0.6917501037341768,1.6257068999992141 0.08525442591816143,1.4220984805333194 l-0.19880914988219062,23.85511244619409 m-16.05827507986774,2.0022394127189513 l3.4296742000327707,0.3226645112897251 25.287694018329397,-2.9314610208638245 l3.4624750859974562,0.30004178049475794 m-15.41238936401136,-18.417229686276393 l0.5034017098963941,1.0537313485382693 0.05781441626005723,1.2719534005939233 l-2.779044967774974,11.532701933799194 -5.501910757999402,7.287769298844055 l-3.8175749595582147,3.6967973807238743 -4.137444071669001,3.378803714493098 l-4.5539771966470495,3.04363638170319 m21.783789593517433,-13.072559549781053 l4.873130189822355,2.305261100992152 3.0050757365074166,2.13684349681242 l2.4881974242900156,2.3035656524019514 1.7836169632117722,2.4654655492562108 m6.979723809637225,-34.63644290310733 l0.580172556631757,1.1718091290790251 0.20521549306833808,1.681441577375804 l0.00048459747557071196,16.213970663652763 m11.786251116363228,-27.816682295028244 l0.9106202771127708,1.3330677463808585 0.24053052644148856,1.6944715308154878 l-0.17860694600828372,43.02003078898075 -0.4788076641669199,1.0685168972721804 l-0.670395005285323,0.3904239709421362 -0.7976563528291083,-0.12154648786818986 l-1.7627872714160608,-1.2007060181107971 -1.9872124366495083,-1.8869983193700173 " fill="none" stroke="black" stroke-width="1" /></svg>