<?xml version="1.0" encoding="utf-8" ?>
<svg baseProfile="full" height="100.67939753052545" version="1.1" width="82.61486888740633" xmlns="http://www.w3.org/2000/svg" xmlns:ev="http://www.w3.org/2001/xml-events" xmlns:xlink="http://www.w3.org/1999/xlink"><defs /><rect fill="white" height="100.67939753052545" width="82.61486888740633" x="0" y="0" /><path d="M25,55.79817917370439 m0.0,0.0 m5.201798933957173,19.21467317939531 l0.5184322939362654,0.253095261885422 1.7480840685178005,0.41344991554033667 l2.216608563952639,-0.04543583043547586 4.703388964398178,-3.2619582108765757 l6.480144745603525,-4.625782574865814 1.2008490027363563,-1.2720681933109064 l1.1988817214332332,-1.49528493677155 1.0835769817446,-2.1613090771520285 l0.7914018376286032,-3.932807204978866 0.507958125589381,-5.20684334649038 l0.2725260488457582,-4.956190902626901 -0.48633808648075216,-5.086726675933534 l-0.790222631139809,-6.95731456148746 -1.1350268202009384,-1.9960715126266848 l-1.5772050504635664,-0.7904468634226781 -2.7538199398587775,-0.20054698980247054 l-1.832772560039196,0.6096556171128701 -2.986491753130205,1.42590503337323 m-4.644100659977905,29.212285366563542 l0.7559345202844581,1.2493601528049367 1.672835800716016,0.27353960421807216 l3.9585306798026636,-5.289076498175207 0.8027306673899746,-3.6482290431117668 l0.5146576974309889,-3.4539756582943637 0.14684549413599035,-4.4866892627658626 l-0.3073869197439766,-2.0629443802164014 -0.5143289397203029,-1.8402759530372588 l-0.2624306165857525,-1.5559057456533516 -0.18828972714883838,-1.6108202329506507 l-0.09747678501283899,-1.7042355264013336 0.1352758988393462,-1.5500790570786973 l0.07883544472003495,-1.5878336274373472 0.2754074526303644,-1.4878613779602368 l0.39018335261488934,-1.42292931374355 0.6223999258849175,-3.811178801849915 l0.5874820370937004,-2.041493075485175 0.9125721141404591,-1.7443149598185481 l2.151600630934608,-1.4917652321272692 2.951770608902862,-0.6717486777098608 l3.1599048658776656,0.42771418579956066 3.2942851221042666,1.4601111448481967 l1.1829118381889565,1.683653156303252 0.6322409843027647,2.2373330371355706 l0.04070295257076037,3.205375443599238 -0.6425658337826412,3.9887911574987167 l-1.205468924322355,2.366168449152621 -1.9413844465703838,1.639327555870043 l-2.7709260178637884,0.7023728664406979 -3.0139744038053373,0.2784113076595353 " fill="none" stroke="black" stroke-width="1" /></svg>