<?xml version="1.0" encoding="utf-8" ?>
<svg baseProfile="full" height="109.49251849204302" version="1.1" width="108.18059601238929" xmlns="http://www.w3.org/2000/svg" xmlns:ev="http://www.w3.org/2001/xml-events" xmlns:xlink="http://www.w3.org/1999/xlink"><defs /><rect fill="white" height="109.49251849204302" width="108.18059601238929" x="0" y="0" /><path d="M25,25 m0.0,0.0 m22.69416093826294,3.7146416306495667 l0.1346291322261095,0.560939647257328 -0.164240300655365,3.520791530609131 l-2.053162157535553,8.808669447898865 -2.486072927713394,8.10559630393982 l-2.3240476846694946,5.97829282283783 -2.6405030488967896,5.529106855392456 l-2.9750415682792664,5.080644488334656 -3.326578438282013,4.633629024028778 l-3.696921169757843,4.1866132616996765 m0.8296554535627365,-32.59019374847412 l6.478834748268127,4.544660151004791 7.16961145401001,6.473047733306885 l6.249540448188782,7.067622542381287 4.165636897087097,6.039775609970093 m11.040854454040527,-36.478798389434814 l0.9240495413541794,1.4622044563293457 0.37952031940221786,2.256416827440262 l-0.014811238506808877,34.92255926132202 m16.491843461990356,-43.81621837615967 l1.001807153224945,1.5895098447799683 0.30183054506778717,2.1287496387958527 l-0.19203752279281616,53.794875144958496 -0.5016268417239189,1.4553327858448029 l-0.7396012544631958,0.5240499973297119 -0.8990947157144547,-0.19222399219870567 l-1.9602146744728088,-1.6755856573581696 -2.166724354028702,-2.5262176990509033 " fill="none" stroke="black" stroke-width="1" /></svg>