<?xml version="1.0" encoding="utf-8" ?>
<svg baseProfile="full" height="93.54878875171566" version="1.1" width="98.03056395139004" xmlns="http://www.w3.org/2000/svg" xmlns:ev="http://www.w3.org/2001/xml-events" xmlns:xlink="http://www.w3.org/1999/xlink"><defs /><rect fill="white" height="93.54878875171566" width="98.03056395139004" x="0" y="0" /><path d="M25,25 m0.0,0.0 m5.833285358183536,20.1338294390493 l0.4584845993077018,0.11129995247583307 2.163371187429005,0.03929274017252905 l3.642614252548603,-2.706275974354594 3.6413594491497223,-2.3507948120932833 l3.8747592473621166,-1.9057078310879485 5.560006616256153,-1.3464634808816411 l7.771208204032849,-0.17216869540831076 2.8472861218545,0.7951909780207 l3.8950139038381804,1.467923714193802 2.33419552569659,1.572896146466276 l1.6428190708060788,1.685251713496324 1.245866822677285,1.712884136937805 l1.0708925636292308,1.8598941770748914 0.93661994758887,2.2024641631813213 l0.8338986711518676,2.5547613221974306 0.2788824098777361,2.8936283078530733 l-0.04843699309338889,3.2309799685249665 -0.6091562059603005,3.0348241581489463 l-1.1468627201948227,2.627462182256348 -1.3864417630017083,2.1395365816356278 l-1.561238127462168,1.8162660338300645 -1.6573181852365926,1.3452032961136289 l-6.398059301304742,0.8066105339125846 -3.6310079920099168,-0.9384774379101686 l-1.9649397062407743,-0.8414533944185237 m3.7876394056717726,-31.52554150109995 l1.530678781167144,1.6235334360515068 1.6570540384964145,2.315985336965346 l1.2787009711643762,1.5547513694715622 0.8418749651145555,1.6325032480926764 l0.16852240191509374,1.522817860721382 m-11.69080746848427,-5.880272950801933 l-0.004166154015415929,1.2404605411829444 -0.5734586357790508,1.6901903576088573 l-2.4402426457850557,7.466790993860542 0.060730175631538784,7.813121004922508 l14.614250931635496,-4.183840457166381 m-2.125507661565227,-5.0860835814347505 l1.8226413904458,1.96522806939538 1.70007734697354,2.668840809206979 l1.4086386265690578,2.9392662514011163 0.87157969035318,2.6869524504024804 " fill="none" stroke="black" stroke-width="1" /></svg>