<?xml version="1.0" encoding="utf-8" ?>
<svg baseProfile="full" height="114.21968923758739" version="1.1" width="103.37282143809685" xmlns="http://www.w3.org/2000/svg" xmlns:ev="http://www.w3.org/2001/xml-events" xmlns:xlink="http://www.w3.org/1999/xlink"><defs /><rect fill="white" height="114.21968923758739" width="103.37282143809685" x="0" y="0" /><path d="M25,25 m0.0,0.0 m10.961385377439825,22.017195981472995 l0.6252483355276892,0.14988939473886695 3.5331564878057398,0.1902758064902839 l34.26642872135379,-2.8671307398757953 2.14010134460041,-0.031589624061721125 l1.8465011713693946,0.23047176725499013 m-20.984005143390114,-10.85756833893121 l0.27142098642509965,1.275488037832753 -0.032021762988782024,1.9658234686451777 l-1.0586944993403593,7.826920348652205 -1.921487737260325,6.622346493701002 l-2.733621343382696,5.900137709633062 -3.5149327093331295,5.449318819865764 l-3.9524081968041074,4.578321062119296 -4.717853036026838,3.7831495547155582 l-5.250103385826977,2.589173039224482 m24.26187381821314,-17.072936812279284 l2.902567186902441,1.3609760771945372 3.5540872740197913,10.283635316818662 l2.560797206722517,7.271614948017802 2.8512629877359346,6.0148205152447325 l2.27691512696335,3.0699913529219836 1.5327374956787276,2.2064104766956563 l1.4879591047727705,2.2629545814955865 m-9.252768310495595,-45.205236093554376 l3.4564862634632236,2.1701126520637257 2.1933089147649523,2.267243156037977 l1.3115676281532056,2.4351936441559796 " fill="none" stroke="black" stroke-width="1" /></svg>