<?xml version="1.0" encoding="utf-8" ?>
<svg baseProfile="full" height="103.33360228063316" version="1.1" width="103.13387765187954" xmlns="http://www.w3.org/2000/svg" xmlns:ev="http://www.w3.org/2001/xml-events" xmlns:xlink="http://www.w3.org/1999/xlink"><defs /><rect fill="white" height="103.33360228063316" width="103.13387765187954" x="0" y="0" /><path d="M25,25 m0.0,0.0 m34.867461393216374,6.248200971135491 l0.2933941107759887,0.4211876894938541 0.4578634132015398,1.7262661849116756 l0.010272901354539064,5.872226306781998 m-16.51262677582327,1.8299684443083455 l3.429515978843295,0.30114403888983277 14.751177208730503,-1.829262528970133 l10.611400319404968,-0.8268522334275676 2.81406023553786,-0.11737321213349834 l2.4113588666377526,0.36841718427628933 m-23.3084223519877,3.445138774472686 l0.5448876439708585,0.7541557898204695 0.2828334535226814,1.6045928072736018 l0.0559939562031676,7.882256119604965 -0.42552884051686596,6.734229659638471 l-0.8866061027113743,5.803375841746906 -1.1810324408687451,4.276070635678535 l-1.2366923030320915,3.017543495809486 -2.071725353368723,3.568179268646946 l-1.9806056098141789,2.254137042674817 m15.926027387075969,-34.85093993858598 l0.5516235911182118,1.1457969418686658 0.12643007516578458,1.9378562871629494 l-0.17293121049762758,30.130461495243274 -0.3818307372371963,0.5521694603619801 l-0.47706158377760777,0.0031144276360016323 -1.118722970299955,-0.9189677207382816 l-1.3527114338623036,-1.81496967093849 m-12.14800041294578,-20.639396123382323 l-0.17537496615951165,2.0865608001292046 -1.8224067379185467,4.156710737711525 l-2.1869767915502405,3.9568566560003164 -2.590659169629737,3.7275098715812947 m28.836685972215562,-13.546811537971783 l1.720580709617097,2.0154972481553663 2.0909172376705887,3.3479247932184633 l1.6883048330111083,3.3793281347968716 0.7977035415418782,2.470638221698327 " fill="none" stroke="black" stroke-width="1" /></svg>