<?xml version="1.0" encoding="utf-8" ?>
<svg baseProfile="full" height="103.60136361792684" version="1.1" width="109.49251290410757" xmlns="http://www.w3.org/2000/svg" xmlns:ev="http://www.w3.org/2001/xml-events" xmlns:xlink="http://www.w3.org/1999/xlink"><defs /><rect fill="white" height="103.60136361792684" width="109.49251290410757" x="0" y="0" /><path d="M25.00000011175871,25 m0.0,0.0 m3.7561646103858948,22.317209243774414 l0.601331815123558,0.19890470430254936 1.9729703664779663,0.2721043489873409 l2.090979218482971,-0.135702108964324 19.320093393325806,-3.7610599398612976 l1.5241949260234833,0.19643548876047134 0.8701866865158081,1.0525017231702805 l0.21173173561692238,1.7424257099628448 -0.2814039774239063,2.851708233356476 l-1.6217659413814545,8.869473338127136 -2.11201548576355,7.7660053968429565 l-2.3290492594242096,6.12551212310791 -2.648870050907135,4.565743505954742 l-1.4817801117897034,1.2125831842422485 -0.6505876779556274,0.10988500900566578 l-1.1900076270103455,-0.5184691026806831 -1.7160874605178833,-1.8611186742782593 m1.5693460404872894,-47.11048126220703 l0.5127397179603577,1.0572904348373413 0.17654288560152054,1.3586404919624329 l-1.0343299806118011,8.651242852210999 -1.6139841079711914,8.123109936714172 l-2.3960918188095093,8.151842951774597 -2.591404914855957,6.38821005821228 l-3.2816708087921143,6.147403717041016 -4.056082367897034,5.790298581123352 l-3.6011499166488647,4.039663672447205 m36.996614933013916,-31.742658615112305 l0.9969178587198257,1.5347985923290253 0.34684326499700546,2.120053768157959 l2.2289127111434937,24.9908447265625 m-2.2206178307533264,-27.517600059509277 l16.869101524353027,-2.290867269039154 2.4333755671977997,0.16948800534009933 l1.074393168091774,0.6921473145484924 0.7669717073440552,1.937054693698883 l-0.0645200302824378,1.908663958311081 -2.9772424697875977,20.813331604003906 m-15.105127096176147,2.1508388221263885 l16.589300632476807,-1.3871592283248901 " fill="none" stroke="black" stroke-width="1" /></svg>