<?xml version="1.0" encoding="utf-8" ?>
<svg baseProfile="full" height="123.0084102325879" version="1.1" width="112.62867711079846" xmlns="http://www.w3.org/2000/svg" xmlns:ev="http://www.w3.org/2001/xml-events" xmlns:xlink="http://www.w3.org/1999/xlink"><defs /><rect fill="white" height="123.0084102325879" width="112.62867711079846" x="0" y="0" /><path d="M25,25 m0.0,0.0 m20.681491158651824,14.065552349409566 l0.03169476727196637,0.44047933575803677 -0.3892014117296126,1.2255734161883942 l-1.1499990637827655,1.9606334310577294 -3.1066300001725966,4.9981041152892605 l-3.2277121034371894,3.9583609116833376 -3.6883585064102986,3.596736769286027 m13.266201954591962,-13.085122155191833 l1.9371927190672902,1.0619686862078377 2.0609831898654813,1.66064573669014 l1.568361883010409,1.7024893588590042 0.8381041521249819,1.4707829844206415 m-13.228417708205132,3.108919855648651 l2.0186429145109392,-0.0039220815735782726 6.575517233977847,-1.2396733204754866 l1.574035273157525,-0.01030966572118922 m-13.835558020531195,7.176628537915067 l0.5099899550590341,0.4688288574623394 0.6117369305151308,0.2021539030550402 l7.4529323092133675,-1.4731005903429057 4.840723217004174,-0.8010166083408612 l1.2499118514208458,0.07000359614205191 0.5567141129358548,0.26533625321072357 l0.44919587012547235,0.4505562853864062 0.11776427357281283,0.6173738679649223 l-0.14967465544710892,0.7649307118808629 -6.264004775573358,11.57082654369214 m-9.305514072719488,-5.7193831314485175 l3.178540522701431,1.8070669986330137 2.946246780579234,1.9190491351961305 l1.9986199349086344,1.8668838141668145 1.169472651623725,1.7996060805970842 m-9.387121223264376,3.2736143577505263 l0.3831358144477815,0.6732616270030154 0.16364894988768344,1.431825704939157 l0.6495170174498954,20.201906060699876 m-0.07442573001965408,-20.08313425877389 l10.088872079574793,-1.435924242277743 1.1525821542571062,0.2447121571297948 l0.5406055827787315,0.9021208169306475 0.11143666490809809,19.116452708785392 l-0.2056437650168461,1.7897777719319279 -0.43337078977036564,0.8478916677278604 l-0.539473080018941,0.14894187803450434 -2.0750478335987057,-1.5969819767417133 m-8.691786768287765,-14.9972468548343 l11.139036295223345,-1.3561729870702273 m-11.25315071109672,7.884974076550846 l11.073653573192201,-1.1697869493899922 m23.779539924240954,-34.69108549240455 l-0.305443811179497,0.9798913067510607 -0.5586565347032363,1.6961075183109842 l-2.2355654990256424,5.603695265834578 -2.4191070707287587,8.275272763026855 l-3.134419589309361,9.441652841511823 m6.720096796293108,-13.001384992299913 l2.5441470744965633,-0.21269150077104984 11.542638059327848,-2.659244570341737 l1.4049924895524706,0.07739577341614287 0.506462093487429,0.2635434635751707 l0.5259846145840785,0.9845132531136119 -0.687267617516979,2.368267728904191 l-2.4430305048148857,5.558296811388397 -2.1099568425101003,4.43051041639897 l-2.3752664045286997,4.197532157630288 -2.672766931036404,3.941380593332998 l-2.721800571558684,3.3047546081938854 -3.061336797144181,2.982665203199529 l-3.5071090735891084,2.7424508063091455 -3.8606891243949684,2.307132110652356 m6.9201643661777466,-22.031810372907124 l1.4773177887058027,0.9680712313970481 1.9337505288773915,2.0171991995267637 l11.059507860929767,16.31542186993138 2.375020317638352,2.0549678432746363 " fill="none" stroke="black" stroke-width="1" /></svg>