<?xml version="1.0" encoding="utf-8" ?>
<svg baseProfile="full" height="111.03121436220101" version="1.1" width="102.97289742767722" xmlns="http://www.w3.org/2000/svg" xmlns:ev="http://www.w3.org/2001/xml-events" xmlns:xlink="http://www.w3.org/1999/xlink"><defs /><rect fill="white" height="111.03121436220101" width="102.97289742767722" x="0" y="0" /><path d="M25,25 m0.0,0.0 m26.859269599207025,8.847662489326318 l0.33444622775827226,0.44758456434453703 0.49896103297366784,1.4669481464714402 l0.06325282064730697,5.980516130286745 m-17.69096540056931,2.0019215130223715 l4.09398030447623,0.24322122571974547 26.66605230754261,-2.70108563712706 l3.1988387552211193,-0.14024521981527655 2.3057089539013704,0.24607016127881787 m-31.436926393759073,3.698339498549466 l0.5530951328456194,1.200653008597311 0.09294480082581102,3.149580590784143 l-0.04982223718125643,7.055381061378159 -0.6192121690625683,7.585915351288694 l-0.8215714403845521,4.379035988358603 -1.2562814098230868,4.230342507614588 l-1.7668070260913953,3.169437313932347 -2.561662049785314,2.166816097838934 m20.149439900303936,-24.233854613745297 l0.06079243602574154,0.2537428889276865 -0.0843239381696975,0.8821448913553066 l-1.3402714937300546,3.7889755662685074 -1.87970554784533,3.4915916249825623 l-2.3761059606234745,3.2937754134239388 m6.186917705873463,-5.629484319582554 l1.4513894064680088,0.9242929753064768 1.4691913410534674,1.3399349074923153 l1.320050361579486,1.6240250794853563 0.6483025140290603,1.3263514893932598 m12.881646847415652,-11.318296434116847 l-0.09191356075917823,1.3659963866662643 -1.8693354934367574,3.814293382804628 l-2.122016185486728,3.285360268087789 -2.6444122145025406,3.181721218426551 m6.7788186943417825,-5.607552060487269 l2.6605712328398,2.4800898029698386 2.2138952053004712,3.3200521733513986 m-28.104961254779603,7.667012520437182 l1.6807444479570526,0.21999432720809817 1.492575580331939,-0.05681757063359669 l19.684339372367706,-2.0543114713875408 2.565926014640206,0.19751649966729906 m-30.517767800883497,10.607332969485066 l1.607078186860269,0.3276024889890601 2.1226066129642964,-0.0001634201367752404 l15.319135263831589,-1.4408013474024657 11.39787899569972,-0.5364246787775223 l3.8491089492679533,0.039601629748700906 m-18.410635171527108,-26.977120400115652 l0.4946887839144337,0.9139872531424827 0.14210683333769827,1.229777790193115 l0.034067206705101945,30.282772338923778 " fill="none" stroke="black" stroke-width="1" /></svg>