<?xml version="1.0" encoding="utf-8" ?>
<svg baseProfile="full" height="102.67858289148344" version="1.1" width="98.30420638904039" xmlns="http://www.w3.org/2000/svg" xmlns:ev="http://www.w3.org/2001/xml-events" xmlns:xlink="http://www.w3.org/1999/xlink"><defs /><rect fill="white" height="102.67858289148344" width="98.30420638904039" x="0" y="0" /><path d="M25,25 m0.0,0.0 m14.649863680908176,3.6236149797992656 l0.4101912076434383,0.4434856400891086 0.5562275503914358,0.9324880231354097 l0.2900084676652377,1.759366579909769 -0.011330814441046092,12.231847220048046 m-13.246905936558928,-9.464052807291905 l1.5293370737316838,1.422754434072493 1.9025381118010334,2.2709720214577787 l1.548195311930367,2.4340076706999216 0.6839103529419918,1.7337227563894222 m18.353388473083317,-9.889951996739205 l-0.11852020171157637,1.2875097299478129 -1.042156878108136,2.2543286002663465 l-1.5925952943738497,2.4360370463441443 -2.28373529692921,2.6437684683600517 m-17.98483460095601,5.634682600760796 l0.6387790431076047,0.9152975210149923 0.23122493748936915,1.0333206566502977 l-0.04990509562713606,28.474512705223194 m0.5484637088967351,-30.146388097017443 l16.365902015438618,-2.242965227107512 1.5357654838734516,0.3469687214662249 l0.8246735633355993,0.9492373065143459 0.255143677040114,1.3857870448260012 l-0.4224561863839814,27.05443159594328 -0.3934262520456331,1.162025424518364 l-0.6114560570905103,0.4304228084516654 -0.7699622137356132,-0.18885202819945024 l-2.558665054922247,-2.3072258453091115 m-13.707312980933107,-19.341541892972305 l17.581846348648288,-2.004397425356066 m-17.232229615159323,10.256299438198507 l16.981302586554243,-1.9383959905173134 m12.198185584786252,-24.22583292626794 l0.932896344321932,1.347304712402539 0.20645856417788225,1.2979412114031466 l-0.009738407184384845,22.207496887141648 m10.933287515914666,-32.121477565603506 l0.9455810964463836,1.3507394223800677 0.23626657507327944,1.4026402858052351 l-0.12902615006561105,43.45024572097601 -0.3424507210546913,1.5268417391755231 l-0.5238777752992184,0.7373620590345872 -0.6568781992102185,0.11220366145920907 l-1.5569281712473129,-1.0268624326735234 -1.9595580396652272,-2.274050926889464 " fill="none" stroke="black" stroke-width="1" /></svg>