<?xml version="1.0" encoding="utf-8" ?>
<svg baseProfile="full" height="106.71750842094819" version="1.1" width="119.70929971674799" xmlns="http://www.w3.org/2000/svg" xmlns:ev="http://www.w3.org/2001/xml-events" xmlns:xlink="http://www.w3.org/1999/xlink"><defs /><rect fill="white" height="106.71750842094819" width="119.70929971674799" x="0" y="0" /><path d="M25,25 m0.0,0.0 m6.943707734223132,12.21666054135146 l0.5210585993019973,0.37316968621048263 0.6791394284811778,2.840179924754321 l2.246085228569347,11.231968945302297 m-1.8583556856805954,-13.936435889353307 l19.695731656267988,-1.7994522345909996 0.8769433646779347,0.16446723781864106 l1.0623019895943784,0.45742375124348134 0.7176650957579663,1.0579793587026736 l0.009320140415190057,0.7679376096163238 -2.5612931080479355,10.763995565209866 m-17.99306764659032,-5.489986521638517 l19.185231687166485,-1.6483937466909353 m-18.2450895375739,7.43177307910089 l17.03885146936404,-1.4853258675629244 m-8.938260690406596,2.327703329063955 l0.515954299516314,1.086627366986315 0.01566412167187687,3.130949021826197 m-17.146474210590558,1.9564359581879192 l3.434310957282795,0.07301729610613626 23.594279360545976,-1.999194862966829 l3.6234121374791277,-0.13445977651742713 1.604592511111656,0.243532674631384 m-25.30132799380617,7.021578861245834 l0.7390107920569203,0.3971473697246818 0.6954877370540979,0.8789408418598769 l2.173429443715038,5.414680331247773 m-1.6525379192085967,-6.374764422135644 l14.79504656656177,-1.7790814696339166 2.7519954837741527,-0.07016345005146916 l1.1042361531756024,0.631116360154805 0.06395270202728985,0.5563778926844315 l-1.86140230474256,4.668927905616183 m-15.061333293187834,1.8380451297396518 l15.971349947261679,-1.3242296118760344 m-9.402948715712563,-10.91109979937453 l0.46225984449919716,0.7277090192055067 0.14568238305857636,1.24553632277226 l-0.04908048117828888,17.62389801024966 m-10.186271603238172,5.951921677278254 l0.9986589128806143,0.5903950054494413 1.2956509631350366,-0.19876285639201177 l18.142222216592494,-5.682622752396602 m4.620696349729596,-3.608368843857257 l2.6275228811459095,1.8131563375745792 2.017841303719588,2.1206723540076853 m6.355744860796124,-23.278249286936372 l2.409382375149762,0.23547107413127433 17.858788731621484,-2.194083210136646 l1.7434362474027294,0.11793346778113324 0.9046933822851323,0.6480856436553669 l0.325403847641928,1.1893911956129148 -0.14440641444020166,2.052863807611164 l-1.7274208439753291,7.655450985274937 -2.2458798287460886,6.820697760341915 l-2.5869987190319677,6.045201581073295 -1.810748070082591,3.354218941100381 l-1.7233851719621625,1.6557159136605242 -0.8108395255359242,0.13938174294163946 l-1.3780991723723217,-0.20210772695379592 -2.0194509971986108,-1.5031642210432277 m1.4599922653322286,-39.97521820370706 l0.44928193995428317,0.882441008441301 0.06123476807755964,1.0036698204030452 l-1.242231254551101,8.856601846100578 -1.6799476431169813,6.948372371372895 l-2.4591429607359996,6.918390169183167 -2.5987549391057176,5.308676433689588 l-2.3638536049626038,3.7399013224330955 -3.683435278746172,4.497802771152989 l-3.2942045263142115,2.9504738614570782 " fill="none" stroke="black" stroke-width="1" /></svg>