<?xml version="1.0" encoding="utf-8" ?>
<svg baseProfile="full" height="141.66126383611703" version="1.1" width="110.7790630836125" xmlns="http://www.w3.org/2000/svg" xmlns:ev="http://www.w3.org/2001/xml-events" xmlns:xlink="http://www.w3.org/1999/xlink"><defs /><rect fill="white" height="141.66126383611703" width="110.7790630836125" x="0" y="0" /><path d="M25,25 m0.0,0.0 m8.15538846756147,8.168738136701132 l0.5862498718436715,0.20097869218308703 2.4632433890783463,2.1083131657600354 l1.7057076485678595,1.8700436299513141 1.5452845366619066,2.013683318431576 l0.5971941175790274,1.3020396979119089 m-9.167716926602743,10.837944538218096 l1.9720926720265723,1.2967733794638958 2.1658583100134545,1.8424106817840382 l1.7879509279429535,1.9287434599589441 0.9952383762441083,1.6136436908501908 m-7.405687965419985,28.10700656706845 l1.3694078080160306,0.6613749612722573 0.9776231731110764,-0.38171725250430344 l4.5970976855915415,-0.4979992462709746 6.120997387396034,0.23138632815497792 l2.581659216442181,1.2512910673849955 1.6997641235134178,2.078795002039674 l0.5794773787475206,2.9252005068768083 -0.40631914382472856,3.0801127154407157 l-1.0999059076069266,4.560145313218336 -1.6885730446814144,4.582814657328713 l-2.0201096630165614,5.2428766847192385 -2.175238828073653,3.845834286513298 l-2.3823083309096096,1.5900985676849584 -2.358024631475079,0.7992111335832532 l-2.6492641998254123,0.4015201523924253 m6.960684001916706,-25.32105072946882 l3.0307908864954416,0.45183351945807 3.1385053860698773,-1.887345029362019 l9.953959656873494,-6.441335971209998 1.0439504726723432,-0.23137928234035435 m18.29415986321606,-32.91448083462817 l-0.13878784258667887,1.314598076960163 -0.9644144180911821,1.5482397698388777 l-5.516866479414618,6.463419253870761 -4.623158047440486,3.7043752577798648 m-2.228409625920664,-0.6470238587937386 l0.5347039146107372,1.2111579603199396 0.2550346539018704,1.476537645249295 l0.16661507540283943,8.750221658012107 -0.1732822123555088,8.15415487784691 l-0.6852872206280781,6.113165735431433 -1.123212215697692,4.672869146238649 l-1.3613115816578114,3.4859427291161302 -1.8730538981627283,3.227472189182548 l-2.5308306815348027,3.057002351123994 m9.390196804152403,-29.735730188529658 l2.3116190093841893,-0.08890187026494864 16.044119471328717,-2.829730633997152 l2.3262516621770044,0.001641204009674043 m-9.835093323958045,3.4354179481958402 l0.6909887968260389,1.2944140044510317 0.24901668803907945,1.6709928612757514 l-0.09379900138715334,33.49068658326003 " fill="none" stroke="black" stroke-width="1" /></svg>