<?xml version="1.0" encoding="utf-8" ?>
<svg baseProfile="full" height="104.45482971264082" version="1.1" width="104.39904292122212" xmlns="http://www.w3.org/2000/svg" xmlns:ev="http://www.w3.org/2001/xml-events" xmlns:xlink="http://www.w3.org/1999/xlink"><defs /><rect fill="white" height="104.45482971264082" width="104.39904292122212" x="0" y="0" /><path d="M25,25 m0.0,0.0 m12.563555652773497,13.676016601327538 l0.4197294833504864,0.31581233539200293 2.6971871180833995,3.2408394961535683 l1.5143453902120634,3.4582563298134636 m15.335055066746689,-10.861554760464495 l-0.22058159733269356,1.822988280748995 -1.4051642271813398,3.1016685326187856 l-1.862333932729578,2.86886756484018 -2.134351390484675,2.4737937705258597 m-16.43936622209802,4.036280921071269 l1.6337431773130184,0.23671729690582824 1.5879236133264745,-0.12862391771061663 l19.492076253206157,-2.925805545644571 2.1495926192767874,0.22496551799343378 m-24.727361669951552,13.21290357719929 l2.109177713468524,0.27555402459641193 20.01747172162691,-2.4599634483226853 l1.755623598024107,0.18442412837550165 m-24.933870325647767,12.480038168761535 l2.4622306281459463,0.5134448564017704 19.605777833622476,-2.8454386798097175 l5.898937975793587,-0.2936514854240619 2.243919338616996,0.3409604564223824 m-15.716835529002255,-19.357533325843256 l0.5584151023097423,0.8257655915284607 0.2946139646668169,1.4320834271512672 l-0.07217396514254085,21.130387344964475 m16.17422748180156,-29.15030475350033 l0.7995958440247477,1.1918138489619572 0.33804496227864705,1.9548291361509365 l-0.007620586405472693,17.760070618332282 m11.19140729246591,-29.12250476268721 l0.8483251416902334,1.3340630412669077 0.2277253943732383,1.718122964490933 l-0.1981704680542376,40.27081585589665 -0.43096037288311273,1.1133716747704292 l-0.6247300468330895,0.4053550293856574 -0.7447972478282929,-0.10587876117503346 l-1.6371282393999949,-1.1481954265712235 -1.7945377775071114,-1.7601018683547203 " fill="none" stroke="black" stroke-width="1" /></svg>