<?xml version="1.0" encoding="utf-8" ?>
<svg baseProfile="full" height="120.05759261208941" version="1.1" width="101.78302932225952" xmlns="http://www.w3.org/2000/svg" xmlns:ev="http://www.w3.org/2001/xml-events" xmlns:xlink="http://www.w3.org/1999/xlink"><defs /><rect fill="white" height="120.05759261208941" width="101.78302932225952" x="0" y="0" /><path d="M25,25 m0.0,0.0 m26.177941816190877,9.186699775484643 l-0.03709085899846496,0.46841759295880875 -0.4334961963812878,0.9252139944441785 l-1.0701709154844161,0.9903939407369866 -4.512538380700139,2.771476064901394 l-6.226674073661616,2.711215257449123 -6.77229015571931,2.1744688229196854 m-3.0627189187986272,8.673625726788217 l1.905577706978675,0.3120825238205771 1.6925771009184505,-0.07532768575353498 l19.949868250343886,-3.4910606703076845 3.4188619350718334,-0.26004720755491145 m-12.259088754865038,-7.80548032687408 l0.6770950826355682,1.168666715585257 0.3500908474842056,1.92648425724805 l-0.031291504515546444,38.35062383851491 m-0.7347129413692647,-31.266613568735874 l-0.3964525962241395,6.5341148897568235 -1.545729563534858,8.795260495514993 l-1.8235372850841032,6.360381450252087 -3.343422710727728,6.836163060596599 l-2.8688786162422506,3.7264544003451836 -3.0295284486892604,2.883320578799853 m15.594131567152118,-22.213998865115734 l2.5869695827505983,2.108862296687817 2.947801218150275,4.031611462783318 m9.67650561373346,-18.228952918134986 l0.6717920010000169,1.069482375241344 0.2812221705983948,1.2105296654183917 l0.03013808170785382,20.827075668152315 m12.922868825588626,-33.72100625895607 l0.818398860117487,1.4124630109044636 0.228810582833251,3.3416165738038353 l-0.2785241891592589,46.772253672521636 -0.3502507048267475,1.1106746671959404 l-0.5321246562540807,0.4404473346958755 -0.6600227833674216,-0.09077192356484744 l-1.493738042689547,-1.2101420835856098 -1.7078644700681693,-1.9370357750365166 " fill="none" stroke="black" stroke-width="1" /></svg>