<?xml version="1.0" encoding="utf-8" ?>
<svg baseProfile="full" height="94.52162919389033" version="1.1" width="127.10469018297384" xmlns="http://www.w3.org/2000/svg" xmlns:ev="http://www.w3.org/2001/xml-events" xmlns:xlink="http://www.w3.org/1999/xlink"><defs /><rect fill="white" height="94.52162919389033" width="127.10469018297384" x="0" y="0" /><path d="M25,25 m0.0,0.0 m7.52209368325425,8.556367756252332 l0.6090834799494812,0.20769008498967698 2.513839094249154,2.070820890363727 l1.9153153177506348,1.9841271888615586 1.7829335760438627,2.192011018606136 l0.6753632934582241,1.3605331032127805 m-9.67755454651457,27.826815258360373 l0.9140973715001929,0.32326389324374166 1.3818737628728157,-0.08965042779116116 l4.874260240707208,-0.6868638772677823 23.61920667834159,-10.38576330130101 m2.256584124502804,-22.386658961830506 l3.276286928044121,0.34474188783261456 21.587828772851267,-2.7229863084312194 l2.9623281351373185,-0.24137928985870533 1.827371910253549,0.23259279309325975 m-15.917549797824053,18.114492749982592 l2.6290037157973134,0.24517672728530068 9.912118238917126,-1.531267981028001 l2.1301892327771963,-0.037717135900158565 m-25.57831585002978,-17.983067859203093 l0.8874063673136887,2.7733729395657716 0.07955386932580955,23.470871978861396 l0.428629771517797,1.9078990814663745 0.4910763601264517,0.8884678745170485 l0.6793547450779254,0.5210355466421038 0.7787245430196679,0.2584492203803357 l0.9561359270768305,0.10222776042022899 11.334191677115674,-1.1597270618315496 l10.624458728984118,-0.8838632305146044 6.2142539981608,-0.14281828523698697 l3.4145468332153883,0.49536663839311934 " fill="none" stroke="black" stroke-width="1" /></svg>