<?xml version="1.0" encoding="utf-8" ?>
<svg baseProfile="full" height="107.43878460872408" version="1.1" width="99.40634198205053" xmlns="http://www.w3.org/2000/svg" xmlns:ev="http://www.w3.org/2001/xml-events" xmlns:xlink="http://www.w3.org/1999/xlink"><defs /><rect fill="white" height="107.43878460872408" width="99.40634198205053" x="0" y="0" /><path d="M25,32.30194778569164 m0.0,0.0 m9.37108888851212,24.149899956300345 l0.4693691571606783,0.16199673554632135 2.2480272604780054,0.022765266768915812 l8.893050186933097,-2.546720579758107 2.3430381795375097,-0.23049422400411967 m-7.279105063071888,-14.012562616238696 l0.5515042175661042,1.3744210653709379 0.1816785677013391,1.510281901524791 l-0.01498470273741458,32.65163281362385 m-7.6539407006075875,6.549030740228644 l1.3142048042452006,0.506585763669545 1.0434547528227578,-0.46835766393893075 l11.50744032990628,-10.36748156252458 m3.3541198788909585,-26.11332226269707 l2.5939294072339707,0.36039002377349005 2.228145756273449,-0.23363509637476446 l16.61014408591354,-2.9830765344665378 0.8710546523624952,0.4337419174991873 l0.6699914510674795,1.4203643799346866 0.10413087186244092,1.7822759204707472 l-0.35065304992957885,3.3156394091037997 -1.5809570804817035,10.244106692467096 l-5.062658189693783,10.75860696829067 -2.7321972684278273,-0.09933846015572591 l-1.608435268006606,-1.7687487085757376 m-0.8021984579511627,-43.7199496315304 l0.3714074989742049,1.6382644215551672 -0.036094310070317104,1.5258142006090927 l-1.0967007255011914,8.325093668878836 -1.7892879542811897,7.798097728368468 l-2.3821123514119704,7.687179983534238 -2.395512386606692,5.977305042492716 l-2.819166962306488,5.526363488314649 -3.2521348030499935,4.966462507349008 l-2.7960517179400592,3.3144593127741317 " fill="none" stroke="black" stroke-width="1" /></svg>