<?xml version="1.0" encoding="utf-8" ?>
<svg baseProfile="full" height="105.69897202297255" version="1.1" width="102.15023483454993" xmlns="http://www.w3.org/2000/svg" xmlns:ev="http://www.w3.org/2001/xml-events" xmlns:xlink="http://www.w3.org/1999/xlink"><defs /><rect fill="white" height="105.69897202297255" width="102.15023483454993" x="0" y="0" /><path d="M25,25 m0.0,0.0 m2.2180106361121967,20.797395608048426 l0.39718375609328754,0.11206057823461686 2.388720751266819,0.027187841770755304 l13.742881089769467,-1.8895156002438702 1.762084363063254,-0.014634411677115516 m-8.416979108626386,-12.51054120773133 l0.859663856245101,1.1603913330109596 0.2996091018444047,1.5551761508201396 l-0.12859733093195505,42.88603339102566 -0.19242121695487605,2.2159460552315333 l-0.47176894869607705,1.1171046251528487 -0.6501180378034878,0.2423676593299272 l-0.749285211211644,-0.38382007435035725 -1.951077196532864,-2.052585244637516 m3.8785057116032156,-32.44892173706528 l-3.498831236153484,7.539420685594936 -2.4699493345885393,4.463158262308368 l-2.9596953067439444,4.47792130352197 -4.030478672587003,4.923958184519984 m14.67315258845538,-16.499132451206588 l2.5066999498774,1.8878769494348708 2.9289320204529465,3.3306901800190047 m2.8339474269002496,-19.95265968442112 l1.9432100120739415,0.1807079407012533 2.515682292530972,-0.13142778614820347 l19.95344693138004,-2.4208482869421193 3.154115048924758,-0.18444063781298925 l1.613590898786759,0.2393035552355495 m-16.336951002434372,9.330873075425476 l3.7091281713967232,0.923785051204792 4.712043784908621,0.9102639617447542 l2.580602663813325,1.1079480438463771 0.46014452309933435,1.1826745584925504 l-0.8419651298201098,3.3125496519346407 -1.985537424329116,5.779091695226191 l-2.2260086604319484,5.233217365673185 -2.5273696076957135,4.359250867670846 l-1.437707302497902,1.4134455056559805 -1.2695666776736036,0.30705950580230706 l-1.5333846883782125,-1.4113257565852622 m-0.055993249258694776,-31.980871180823122 l0.14333772331626213,2.345700064078 -0.9291464287593363,3.9158252052722884 l-1.6498266003832147,10.298085039421034 -1.6300514076663435,7.557122255930457 l-1.677180669786729,5.381071736678483 -2.0438374350130526,4.724733355938599 l-2.532160392520725,3.163777687253914 m4.712807227989644,-25.123814959383516 l1.4311831462951596,2.372217941064658 1.229694757687938,4.488329324617761 l1.1826976192941911,4.0257895516456434 1.0655659272881894,3.8485643098316977 l1.0689851421859897,3.567485152535655 2.8197342126702067,3.13936126699441 l2.5766120001350705,2.3157605403009853 2.5794540149750067,1.5315830382657574 l6.636049757597401,0.9606718280702076 1.4840356241693886,-1.1250499343039655 l-0.04233126778665298,-2.9387127903176893 m-10.923680852743663,-19.82138768111613 l2.2392729009683894,2.6889331310816313 1.251530063724127,2.7592369700877395 m-25.708420058110235,-7.91498783655781 l1.8653281308149638,0.8754609800832678 2.244156736472065,1.6391938655566518 l1.6252161973336392,1.4476260709775193 0.7966976780459241,1.21407451059672 " fill="none" stroke="black" stroke-width="1" /></svg>