<?xml version="1.0" encoding="utf-8" ?>
<svg baseProfile="full" height="109.61274359470069" version="1.1" width="91.96036565629198" xmlns="http://www.w3.org/2000/svg" xmlns:ev="http://www.w3.org/2001/xml-events" xmlns:xlink="http://www.w3.org/1999/xlink"><defs /><rect fill="white" height="109.61274359470069" width="91.96036565629198" x="0" y="0" /><path d="M26.698837116274508,25.05832882855769 m0.0,0.0 m6.605595668992293,4.282594029263316 l0.46275149209466127,0.37841889166898107 3.128171062623222,3.6675628738429467 l1.7731273174753681,3.7142770252484167 m15.534209247395536,-12.10118164858135 l-0.07437175540001613,2.0761443269049784 -1.4271526528140277,3.6467685739142133 l-1.9597711245724851,3.5332847855787666 -2.249152023824108,3.047799970814599 m-17.85501289252253,4.240398487507659 l1.9059243872118208,0.2659448292227174 2.502574988092429,-0.18060011499698414 l20.530832087216478,-3.237728577077175 2.6494971450939167,0.23376539586657963 m-26.708080673256646,10.6661096751325 l0.49720567758107187,0.5413936223346888 0.45787674728829625,1.4363343697767457 l1.6141366578179708,9.327371743701486 1.8352368459610535,-2.4933054505347463 m9.445118161856504,-9.261340377045995 l0.14545889789569993,0.3929216364770585 0.059840216584312204,0.9890785025642636 l-1.0711612515692794,9.971466072311047 m-8.703746965153352,-14.815627621102596 l0.5395518731281516,1.259224138969657 0.10698422635550169,1.4238955205356199 l-0.7152130072916915,7.6082944996191255 -0.9677984598364947,5.430730591529775 l-1.1831049615213254,4.244675018868816 -1.6195619625510351,4.0449170860573185 l-1.6158525933034456,2.9290441732897623 -2.6764143482084166,3.6861890212382553 l-2.6665351451139463,2.78713099070077 m27.81921568341266,-48.75871066920188 l0.2564247257717831,1.7598108501454093 0.033819811498514415,2.415432402982295 l-0.005517568233731683,16.711699347175905 -0.4604976103500948,8.054077070132468 l-0.9277567477352457,6.6940312457966185 -1.285153783271545,5.466327313115325 l-1.4794602876465497,4.025209926764884 -1.844586994055451,3.3846044481687074 l-2.44314092711005,2.9829718865451587 m8.75157088862791,-49.64067105555318 l10.919865247823793,-2.235494855675458 1.4314725375315762,0.3016755099257683 l0.5369864698718835,0.4364083339919696 0.5588254457775372,1.2993865886050742 l0.09829876437899186,50.542088045381156 -0.2604068368831605,1.5249438510350672 l-0.4525206244283784,0.7343835856241444 -0.6008693930076873,0.12028887758235259 l-0.716066582840905,-0.40619143653417583 -2.300684814069558,-2.7300502599451253 m-8.472501013870225,-33.13044404636184 l12.394622951907456,-1.552703960658135 m-13.040128437804976,14.535145638401335 l12.98591453264485,-1.4242056984318525 " fill="none" stroke="black" stroke-width="1" /></svg>