<?xml version="1.0" encoding="utf-8" ?>
<svg baseProfile="full" height="100.58559158584103" version="1.1" width="109.49251355603337" xmlns="http://www.w3.org/2000/svg" xmlns:ev="http://www.w3.org/2001/xml-events" xmlns:xlink="http://www.w3.org/1999/xlink"><defs /><rect fill="white" height="100.58559158584103" width="109.49251355603337" x="0" y="0" /><path d="M25.000000795281352,25 m0.0,0.0 m-7.95281351884114e-07,18.007166385650635 l0.4972728341817856,0.10891520418226719 2.267523556947708,0.09794686920940876 l3.332434892654419,-0.5318664014339447 12.990368604660034,-3.4552380442619324 l2.2870509326457977,-0.1771765761077404 m-10.859872102737427,-13.779540061950684 l0.9536392986774445,1.6224493086338043 0.23912526667118073,1.480707973241806 l-0.3309803828597069,27.5799560546875 0.167339276522398,2.6752400398254395 l0.4034239426255226,1.2352701276540756 1.297387033700943,1.1716380715370178 l3.554978668689728,0.5864923819899559 5.331626534461975,-0.26458650827407837 l4.069758951663971,-1.0949596762657166 m2.2409258782863617,-27.063491344451904 l1.908961832523346,0.5007237195968628 2.6079046726226807,-0.02248374978080392 l23.16779375076294,-3.8843753933906555 2.1796508133411407,0.4196896404027939 l0.843714028596878,0.9729982167482376 0.3424852713942528,1.5419833362102509 l-0.2007545344531536,2.95468270778656 -2.080499082803726,14.311491250991821 l-2.5237351655960083,11.495519876480103 -2.7819669246673584,8.556997776031494 l-1.7002218961715698,3.3735093474388123 -0.8046594262123108,1.0349468886852264 l-1.5473702549934387,1.0383136570453644 -0.7359772175550461,0.0926705077290535 l-1.379704773426056,-0.4445827379822731 -1.2342600524425507,-0.9871386736631393 l-1.9244492053985596,-2.172580361366272 m-3.447578549385071,-34.04484033584595 l0.16131065785884857,2.6557129621505737 -1.1590126156806946,6.198908090591431 l-1.7588037252426147,5.534306168556213 -1.9204089045524597,4.403743147850037 l-2.3927676677703857,4.32496041059494 -2.8806135058403015,4.192309081554413 l-3.38495671749115,4.005789756774902 -3.9027664065361023,3.7647289037704468 " fill="none" stroke="black" stroke-width="1" /></svg>