<?xml version="1.0" encoding="utf-8" ?>
<svg baseProfile="full" height="102.77674610057137" version="1.1" width="94.49562339843767" xmlns="http://www.w3.org/2000/svg" xmlns:ev="http://www.w3.org/2001/xml-events" xmlns:xlink="http://www.w3.org/1999/xlink"><defs /><rect fill="white" height="102.77674610057137" width="94.49562339843767" x="0" y="0" /><path d="M25,28.046940555067575 m0.0,0.0 m17.07252288471971,3.195384832707545 l0.26712868632297776,0.2524308878519937 2.02039666864563,2.7374302575243172 l1.5944046377577081,3.1090689922814745 m-13.994109197359984,4.304058609483751 l2.0011374712316665,0.28178177293435497 1.7157629552743159,-1.6827471169707744 l9.031384381522075,-2.1930114230201267 4.726353408196963,-0.8957156863524712 l2.7270515761050165,-0.22562579976037725 1.3315055151534432,0.28774341180311414 m-17.784573033110966,3.386145796000258 l0.5870140022916004,1.8806814177285058 0.1954156053557541,3.749267466738946 l-0.1858611289560683,6.331223035243437 -0.5867455368750784,5.665017224434259 l-0.6544162715910512,3.6475250910061483 -0.8915761033144712,3.1291026741369063 l-1.0611264601122727,2.629105203392974 -1.274711852884366,2.3156636599922886 m5.685774241640793,-26.162695484684424 l8.21565116541366,-0.5559375188554583 0.6806279246409247,0.6254428139370125 l0.15769784192951097,0.6204069474767195 -0.0059582127510222575,1.490714196601911 l-0.4469600610216369,18.762532207609453 -0.1012119217579457,1.3108381045231126 l-0.7581432031203512,0.7220250871157369 -1.0467037486874744,-0.6121687239752723 l-1.1675157142156751,-1.4360255832782698 m-7.5498657919403005,-16.151828148618225 l6.928143964212495,-1.0251829057848871 4.4578790930647925,-0.46716597205859384 m-11.46989836401347,9.141226160351957 l10.67698105620469,-1.5631358087102356 1.1424390010819652,0.012145155416370826 m5.746267161039562,-27.847587643113574 l0.572916240886218,0.2188839930941036 1.062172218767865,-0.013056087459344445 l11.868773457554182,-1.9780886450351027 0.7042314303283234,-0.04281300677709732 l0.47196098128715935,0.5333408315128275 0.07334179225310325,0.6327427222646795 l-0.17057559887260482,0.7104775368248251 -0.7027767349953682,3.4331143860241546 l-1.0394267114258577,3.8366456351023963 -1.3820912783037078,3.717888593785828 l-0.9002564904027757,1.7671875169848996 -0.6616417802899868,0.7512942011262377 l-0.5307284524012703,0.20383415200638955 -0.45684622801794894,-0.11783817523636285 l-1.1016322012386344,-1.5843204229840542 m-1.8408295735442717,-11.4144223863683 l-0.019226728368640332,1.3351368335074159 -0.5663728924297623,2.09526772001436 l-0.9494371797741826,2.330294625010512 -1.338050835814595,2.2495888942034266 l-2.8122618377651922,3.3866031919515183 -3.819490684782304,3.2865637053146846 m0.5976994881249068,3.0725438591618928 l0.15209963939303553,1.5249183958020434 0.2687346354645288,4.15041245113598 l-0.15266655986715472,5.891506239688902 -0.4191674176339933,4.445903248825331 l-0.5821401395111578,3.6678644005535177 -1.7876832744893392,3.4338467674042206 l-1.5370140602364297,1.4530930616847588 m5.264227537623707,-17.81610642174087 l10.83959597968689,0.15445539865935878 5.9554479518790675,0.347317645353723 l0.7697112924665781,0.26165111379324274 0.6340281840254725,0.9091207647813699 l0.04883658876868953,0.59382071744656 -0.5599663093235626,5.263221240951175 l-1.1984060235433287,6.3587879100463836 -1.265920914580419,6.712493731807842 l-0.7017635031115679,2.6494904393640506 -0.8274751477760609,1.8426353956595425 l-0.49542600076962845,0.5196107319776407 -0.5088459103845113,0.18675944716926388 l-1.0498097987815607,-0.39530192024726446 -1.2752120789315475,-1.3923616448289002 m-11.335803422081447,-18.008230041370865 l1.6628325454527688,1.465531151648585 1.344776950427854,1.9869964844756496 m-5.44694775323868,4.542389844248249 l2.1948132902145927,0.22142957642543598 7.939209174811646,-1.1294386894543436 l2.4597811958916913,-0.010639673738844727 " fill="none" stroke="black" stroke-width="1" /></svg>