<?xml version="1.0" encoding="utf-8" ?>
<svg baseProfile="full" height="109.86079048513612" version="1.1" width="100.0401714425326" xmlns="http://www.w3.org/2000/svg" xmlns:ev="http://www.w3.org/2001/xml-events" xmlns:xlink="http://www.w3.org/1999/xlink"><defs /><rect fill="white" height="109.86079048513612" width="100.0401714425326" x="0" y="0" /><path d="M25,25 m0.0,0.0 m26.738856757202143,2.8667155731549974 l-0.052459585435556094,0.5370638611155182 -0.4056454769304588,1.0894257818576003 l-0.8324852809119632,1.3000420130295187 -3.334801397458067,3.4706260022013646 l-4.3591245341728255,3.4715233580492533 -4.9926940031815,2.922992539441748 m-2.1639829832536703,8.960437783230546 l1.4672751944108746,0.34924313835891285 1.4621912877498169,-0.1506643963881713 l14.476576362881994,-3.7056493909348736 2.450783253682043,-0.2523475625020709 l1.6605701026949466,0.3342471694449403 m-9.454473988530333,-10.14801599337338 l0.690843575850949,1.4984058049008304 0.21500448494766516,1.9285000787071633 l0.004606352349629395,43.66721525854116 m-0.6104419465308343,-34.055773993500615 l-0.32914097314814483,1.8810101988077192 -1.0224343958260018,3.377488643734759 l-2.9642560239481677,7.985991198116145 -2.8877791820474132,6.030390166036759 l-3.3302657221104184,5.2634554963570865 m12.853438527878774,-19.515231891020175 l2.4688711272570902,2.283593625124233 3.1452643500199815,4.3217229282550695 m6.847824423109647,-22.073379498261815 l0.6873837233175512,1.3549092825938385 0.17123414478556462,1.1954233610049172 l0.0034389580770995036,23.539693596375322 m10.569106465621013,-36.21355965956543 l0.6570183571579203,1.3902001924002851 0.20986948702324149,1.8680442036905853 l-0.09411258113700591,51.35516799202848 -0.26758681028520503,1.2261119708874464 l-0.43923143133670467,0.5057716532364555 -0.5428781635453261,-0.0832172454099791 l-1.2145324360740268,-1.228778269611463 -1.3562615089355259,-2.0290346091902287 " fill="none" stroke="black" stroke-width="1" /></svg>