<?xml version="1.0" encoding="utf-8" ?>
<svg baseProfile="full" height="102.20204240301939" version="1.1" width="105.2190660014365" xmlns="http://www.w3.org/2000/svg" xmlns:ev="http://www.w3.org/2001/xml-events" xmlns:xlink="http://www.w3.org/1999/xlink"><defs /><rect fill="white" height="102.20204240301939" width="105.2190660014365" x="0" y="0" /><path d="M25,25 m0.0,0.0 m18.843973558043956,3.081599057836056 l0.032450115676997314,0.45876263764896413 -0.24401812206049459,1.7437797297292517 l-1.1203615953203394,2.566646056762516 -4.3418686844145,7.176962070759656 l-4.790750497964084,6.221870581163469 -5.738892371980438,5.119550453057267 m12.199589280193988,-10.687673487815896 l1.7112895254041283,0.429492192917704 2.7344728582303244,-0.04285866971376229 l31.671800241365816,-2.7292285814427752 2.148977189818323,0.29559302831228135 l0.719287491312288,0.28263933531509106 0.9988790172820856,0.8779171270752435 l0.394237995848448,1.2933389342110502 -0.1533500925343047,1.9313122161127545 l-3.4649925279813987,13.003703303713158 -3.553151274033556,9.673651809678864 l-3.773531595224148,6.887760182218859 -3.359770269045662,3.8039253277916507 l-1.568842522764194,0.799996941536997 -1.4349893656786679,0.013302156150978307 l-1.4271298556344725,-1.6956564522387865 m-9.903589022145997,-32.94420213706268 l-0.09464837938831532,1.7613494431278427 -1.3432737074916656,2.213253346549248 l-2.219606322303848,2.5199874283901234 -2.8674034711760235,2.0668925837575647 l-6.955801606063551,3.550852385352057 -8.297312901108253,3.1178036823448108 m33.96965187443574,-15.80580046457086 l-0.17450036577818817,2.220200945112125 -2.105297221314933,3.6904179395922796 l-3.511181435106908,4.606632950254455 -4.851264564000006,5.078610653365246 l-4.796576935764068,4.114012213776419 -5.746793990820726,4.19924170841561 l-6.414403445461295,3.9591978646994455 -5.35957711558799,2.8853048051690404 " fill="none" stroke="black" stroke-width="1" /></svg>