<?xml version="1.0" encoding="utf-8" ?>
<svg baseProfile="full" height="98.88410767024533" version="1.1" width="97.70956848816158" xmlns="http://www.w3.org/2000/svg" xmlns:ev="http://www.w3.org/2001/xml-events" xmlns:xlink="http://www.w3.org/1999/xlink"><defs /><rect fill="white" height="98.88410767024533" width="97.70956848816158" x="0" y="0" /><path d="M31.618474256942875,25 m0.0,0.0 m17.062036788518125,2.9614604947003187 l0.4448592902271351,0.3878686766704024 0.6571221404509753,1.2760597721573101 l0.14276344563278828,13.66245259989264 m0.6239836237750852,-7.727767735289382 l14.362992528797609,-1.4117162150537543 3.299928677705123,-0.002430961114733603 m-33.826416844348856,-0.5562366580080828 l0.9072455147419975,0.6579460424352873 0.42008264035757314,0.836485515576927 l-0.06985488883073575,9.416153456042386 m-10.6432171739697,0.6612088945124428 l2.1221374293558526,0.42805355130425204 2.8156228393059357,-0.0029600862084468126 l36.32387859594482,-2.828075151278787 2.1512402426506188,-0.10260563072522363 l2.809394386088813,0.31334804585566095 m-22.166446748124493,3.0496152493867834 l0.7380364514218042,0.8415513353061135 0.21128967442314747,0.9350002156901067 l-0.10225788945229868,11.565616174848492 -0.3108198984822921,0.7077026691742385 l-0.4825978736118809,0.24740919705000855 -0.630097798887447,-0.0779486483508949 l-1.5715774086600194,-0.8636704521785727 -1.5840554705563505,-1.3233811159173863 m-7.40019234478831,-7.487760129206135 l-0.40682612686468095,1.44299265922281 -2.142344297122576,2.2366321324008553 l-3.6963748438261472,2.808138650427763 -4.64902472731741,2.89770375361765 m36.06930353510228,-11.970919867565609 l2.649853027020558,0.9952501399314501 2.905061990740615,1.4678860849679634 l2.387943009097303,1.643937556628386 1.6684227347037435,1.64282755399344 m-9.316643041796523,-1.065439499541933 l-0.04863120720567737,0.8931938960791511 -0.4957582500827958,1.1161567513217645 l-2.873069054508356,3.1177346098870027 -4.362341643203048,3.4771845749454027 l-4.3948276769260435,2.8808199592033534 -5.046321110526466,2.845950098393103 l-5.501574849982081,2.6583938908722784 -5.894221259103284,2.3411877082989876 l-6.03370847820394,1.8910979098895424 " fill="none" stroke="black" stroke-width="1" /></svg>