<?xml version="1.0" encoding="utf-8" ?>
<svg baseProfile="full" height="110.83264670858003" version="1.1" width="96.4471098065711" xmlns="http://www.w3.org/2000/svg" xmlns:ev="http://www.w3.org/2001/xml-events" xmlns:xlink="http://www.w3.org/1999/xlink"><defs /><rect fill="white" height="110.83264670858003" width="96.4471098065711" x="0" y="0" /><path d="M25,25 m0.0,0.0 m8.901167078585082,18.304972573257267 l0.526173586044843,0.17232316650978438 1.5815011398828211,0.2564639194614387 l2.3394857732806784,-0.12341878387836414 29.656643662848648,-5.357553471675162 l1.5102073596131178,-0.02587246227841224 1.3993505847042134,0.5590285240275508 l0.4759773495283722,1.027312591497718 0.056603272083329235,1.7025564314832735 l-1.9374639578341915,11.506489588172434 -2.450424287675747,11.018286690136797 l-2.7286133907512897,8.199128324536208 -1.3790030458936264,3.0135910267698423 l-1.384361620082082,2.665926555862054 -1.3550476075335427,2.50252018316413 l-1.2575156911501675,2.592004694096635 -2.1439837060211486,2.628616263945852 l-0.45201165534555127,0.19027089349099066 -0.8911816169246414,-0.09533777287644873 l-0.945991960258196,-0.7122569556553474 -1.9423423793282604,-2.7245968555629823 m-1.3957469844440267,-51.62878505706369 l0.3389986098204136,1.8862846049453834 -0.06230013963968497,2.4705084514064732 l-1.5912071126869622,8.654440234806803 -2.369378799718113,8.454116619516496 l-3.2591658687222713,8.559993945296787 -3.436940245146706,6.907825819792233 l-4.155943545859511,6.408153701895334 -4.949197930504223,5.793880586276998 l-4.31293245947991,3.9484217520217206 " fill="none" stroke="black" stroke-width="1" /></svg>