<?xml version="1.0" encoding="utf-8" ?>
<svg baseProfile="full" height="106.6196277422775" version="1.1" width="95.74688157505624" xmlns="http://www.w3.org/2000/svg" xmlns:ev="http://www.w3.org/2001/xml-events" xmlns:xlink="http://www.w3.org/1999/xlink"><defs /><rect fill="white" height="106.6196277422775" width="95.74688157505624" x="0" y="0" /><path d="M25,25 m0.0,0.0 m9.099696915477958,10.438348300389936 l0.5347737139685838,0.19640453761395332 2.2309524126989895,0.23723944842064187 l3.125889068620005,-0.21888451782994814 26.323686853809416,-3.6940004816722416 l2.307470760165785,0.18856128039712622 1.1664293572701958,0.672377302968862 l0.723569892555946,1.094213967524686 0.23441260048935555,1.5490333619367527 l-2.0790557340119955,21.63403844024784 -2.3452928672449835,10.710849836694527 l-2.35060967080105,7.673466053748543 -1.1891016091495616,2.303057041368141 l-1.174709184205266,1.9736339808616539 -2.134221510364761,1.8612891896070274 l-1.0054288929155535,-0.2741947593399545 -2.5030040703492484,-2.9054080062087584 m-4.50642554318027,-40.17820893885343 l0.2555198074709964,1.4341534904525348 -0.006393719289058265,2.0136105331936363 l-1.3084800335278417,5.824363602628548 -2.3022260183119814,6.580496681322503 l-3.05084286362903,6.420328935381853 -3.061124189966048,5.07132700581408 l-3.5674619379996764,4.760797297322218 -4.065233516147548,4.298627570005917 l-4.614077496672996,3.7829930196200126 " fill="none" stroke="black" stroke-width="1" /></svg>