<?xml version="1.0" encoding="utf-8" ?>
<svg baseProfile="full" height="95.2024436258219" version="1.1" width="90.37459705751078" xmlns="http://www.w3.org/2000/svg" xmlns:ev="http://www.w3.org/2001/xml-events" xmlns:xlink="http://www.w3.org/1999/xlink"><defs /><rect fill="white" height="95.2024436258219" width="90.37459705751078" x="0" y="0" /><path d="M25,25 m0.0,0.0 m8.173327212844349,23.614251459136078 l0.45897028992056005,0.11352708951631475 1.3342733741346742,0.061241109352070444 l2.2042186638622927,-0.45165142606424463 9.832641618298457,-3.328045987580091 l1.737325781764761,-0.21187901420077443 m-8.79405572426321,-10.966442708261116 l0.7787757657786794,1.4649056111983105 0.16363799033937462,0.8237897503659697 l0.12940945374258173,23.38983242589436 0.38808462655788273,1.260392414140518 l0.924612407983961,0.37895122664069636 9.637919620487413,-0.026523029888431502 m1.1671209328967953,-15.838278383973105 l0.6039994441325695,0.42753144522972203 0.6927440059995567,0.1677752988559747 l1.3609231775082171,-1.1709163712123771 7.532908702259072,-5.629990320593917 l1.2167521764701839,-0.0189784981496988 0.4124162720011468,0.3059709106366817 l0.2802153944723179,0.42155155365433933 0.1383758703191522,1.1006510444992819 l-0.3126139845237712,4.360385265037592 -0.8057837245260311,6.2879672986883435 l-1.1804130013766259,6.21029915925056 -1.404226660534922,5.2069865498441565 l-0.777746479091454,1.7279635194197964 -0.5426207144555266,0.7881990813833346 l-1.0390603724900587,0.28595350929069135 -0.5084097938144854,-0.571015128396965 l-1.0245328460739955,-1.6168875840979773 m-6.215049641155661,-21.910010869425456 l0.36849422654274167,1.3817496971220389 -0.24426462428922463,3.6857841666609175 l-0.6020152415212635,5.619644133277909 -0.95931135032784,4.973005897543119 l-1.0038116140943598,3.5901082278224137 -1.2765998201289959,3.382106564835101 l-1.6232665536528625,3.341745917406459 -1.603736865868315,2.5707926209633225 " fill="none" stroke="black" stroke-width="1" /></svg>