<?xml version="1.0" encoding="utf-8" ?>
<svg baseProfile="full" height="129.72999711225972" version="1.1" width="113.88090539484381" xmlns="http://www.w3.org/2000/svg" xmlns:ev="http://www.w3.org/2001/xml-events" xmlns:xlink="http://www.w3.org/1999/xlink"><defs /><rect fill="white" height="129.72999711225972" width="113.88090539484381" x="0" y="0" /><path d="M25,25 m0.0,0.0 m20.844032139870116,19.127253208467543 l0.3496607094653865,0.31606524076930476 0.5212455153479331,1.3248466656107694 l-0.026364289057301434,4.940386980728175 m-15.267746878550678,1.3927875999640176 l3.73510129708287,-0.050029361032097715 21.234484294603092,-2.105549097837727 l4.045691309069057,-0.1320508233625503 m-16.833721022482294,2.6156361536428467 l-0.05117453927686254,0.8717298804513413 -0.810592593611574,1.268860517133093 l-2.244043400790897,6.431645516224862 2.7072800038343408,-0.2663681967590914 l12.108721308687986,-2.610301162892578 m-2.891638786712054,-4.644742963942888 l1.600686423175949,1.247088844524196 2.0401706078347703,2.2712572541235154 l1.544561964228072,2.349390582068079 0.7047805660609122,1.7237802620177434 m-19.872123523781653,4.3265093178289264 l0.5348464980167243,1.5625327540533842 -0.1610524971089737,4.195226640212344 l-0.6296056599757694,3.5494153650813813 -1.0947430000605156,3.047896082716897 l-1.2592742853483936,2.225975387857717 -1.5917073810423727,3.763622235875045 l-1.5229897107285812,3.0278558262003035 -1.7520878000858622,2.647369859860992 m13.966917774061695,-20.944835766725006 l0.3848627447627692,0.9118460237228594 0.14735124606926503,1.0704497281525716 l-0.03246633046009786,17.749981348386495 m9.31099582703368,-23.22984251840646 l0.5256296797036589,0.8590393850855103 0.21546364055384784,0.9947611650094846 l0.0036278978457518064,14.714739635886684 0.08193975484436444,5.169654548292685 l-0.11308171530125147,4.801196161344863 -0.7415553274986489,4.24274802163904 l-1.1173154322511327,3.0054392244022186 -1.705740759307607,2.859715065242246 l-2.346489312810553,2.7112339347061254 m6.6523015510658485,-37.404860897933716 l7.455163580474494,-1.6618101964280056 0.6654500482522253,0.07465672939154736 l0.952626780302247,0.9351449169125087 0.04312983884953996,36.58426677685219 l-0.24329663525131706,1.3055227472305102 -0.4416642392229484,0.5628605099098246 l-0.615799917910675,-0.0710878161467812 -2.396362209949746,-2.529813788061355 m-6.996820690370442,-24.763761734421905 l10.45128414846301,-1.372084015403972 m-10.803954174505021,11.236167902938607 l10.68644411652588,-1.1590995531579449 m12.911953815016407,-20.054776986037936 l0.502279397023937,0.8189961134044883 0.24591455941591456,1.066150414362491 l0.007840544533471931,14.676666205859183 m9.341429734024041,-28.330036736921425 l0.7100120036704317,1.271257853946987 0.21043618852734966,1.8130472565340006 l-0.11919413179276608,43.089245613238205 -0.3819009175299122,1.1299823377347384 l-0.5527662844197264,0.4417226332316132 -0.6924672182272397,-0.1158176696889221 l-1.549380303699338,-1.316831719790942 -1.6509569284859216,-1.9352696934254279 " fill="none" stroke="black" stroke-width="1" /></svg>