<?xml version="1.0" encoding="utf-8" ?>
<svg baseProfile="full" height="130.78346351412426" version="1.1" width="81.34587852267686" xmlns="http://www.w3.org/2000/svg" xmlns:ev="http://www.w3.org/2001/xml-events" xmlns:xlink="http://www.w3.org/1999/xlink"><defs /><rect fill="white" height="130.78346351412426" width="81.34587852267686" x="0" y="0" /><path d="M25,25 m0.0,0.0 m14.264253694406605,2.9509188311405588 l0.3531915128888041,0.5105407780196924 0.5935230679494615,1.6234639821851076 l-0.014674979100930992,13.615074228524728 m0.5807312862296699,-9.337057079047574 l6.762239138289619,-1.2897878678913581 1.7124332841343137,-0.002637864266308973 m-16.444704352479572,8.507261954110485 l0.5685605852185427,1.61652899084778 1.4049434601551192,10.68077635879067 m-0.974668650177591,-11.216507354528838 l8.389402746645281,-2.3885069736701237 2.87561885974347,-0.3397228269692463 l0.6864860723339007,0.8018023714849859 0.06257841563651377,0.8837905520728995 l-1.1485658772336744,8.28784996622836 m-9.792627794431999,2.3256026899917654 l10.25900563048658,-1.647078821419003 m-6.46271279543754,2.9233724968790473 l0.1963848696639946,1.655798734043899 -0.21877690852630333,1.3576882028005217 l-1.3458779665419534,4.947853729444467 -1.6355191487276857,4.331465730879572 l-2.4145523951074264,4.61755951434145 m5.003817426743586,-17.255432643206174 l1.2925666995310743,-0.2663881595425714 3.5735375645935084,-1.792928036907059 l0.7790033415643195,-0.1835045424025385 0.3825228570735352,0.28076549718700966 l0.22182080276723432,0.489752928469455 -0.24002376389566651,16.201760923841633 l0.15190706791027006,1.7963089250638586 0.34132076915371207,0.6481116472382146 l1.2273945733874014,0.22649131240450052 2.4276230866460144,-0.14625065602811496 l3.9212218975351574,-0.2923946255633001 1.8619328385443972,-0.3237814062224193 l1.7888374194405978,-1.782434236032816 0.2937290067893313,-1.8021841040172026 l0.061995178875186414,-2.5608135469897366 m-15.264421216125303,-7.701027509925888 l1.2435761609275948,0.4441923432149646 6.75213753314803,-1.5199174513657414 l1.726096884281008,0.051582091195612405 m-9.737400226503619,6.998889792552556 l1.272035056889857,0.24955222252543488 7.855324785380147,-0.07421399835307713 l1.8135184816425398,0.09120224549062451 m-11.263728315861327,6.068007074730746 l0.41558883024295823,0.5121017147218057 0.20816401636708318,7.214397064959462 l0.6549162106405896,0.06549817693118036 m7.101746927598976,-7.568907370478717 l0.2093960242198411,0.830891421257193 -0.0455262349472831,6.169165492747037 m-12.186667587267712,-4.373838669964593 l4.021187019445576,2.3136251970443196 1.272563250401067,1.2318898729431713 l0.6601306703534013,1.021494961573508 m-10.140451026042548,5.357622341462345 l1.4105992362899094,0.34953596045668794 1.5714235013992783,-0.16170294923962497 l10.592379228379386,-2.3907393520727127 1.703793459650242,-0.09129569537450591 m-13.641874121158555,8.099233780416435 l1.8103370593293249,0.2934230602152307 7.902940345378094,-1.7057307836699849 l1.9181448536400707,-0.13774970730203243 m-12.094001673117518,8.014572080674295 l0.5153228285096806,0.5904093464899464 1.169479889046879,8.462306594208137 l0.2935052383440127,3.4258645647741526 m-1.0940491523322402,-11.389722019716434 l10.481852054563104,-1.9328804221209417 1.5370047205548094,-0.04928321427236938 l0.37579649048546615,0.35048852682911386 0.21588115955708356,1.2299081561029164 l-1.411713647144739,9.061903964278283 m-9.593829911027191,1.5740731738317189 l10.679834447297377,-1.3948095778005671 " fill="none" stroke="black" stroke-width="1" /></svg>