<?xml version="1.0" encoding="utf-8" ?>
<svg baseProfile="full" height="102.19612795865746" version="1.1" width="105.51418379245072" xmlns="http://www.w3.org/2000/svg" xmlns:ev="http://www.w3.org/2001/xml-events" xmlns:xlink="http://www.w3.org/1999/xlink"><defs /><rect fill="white" height="102.19612795865746" width="105.51418379245072" x="0" y="0" /><path d="M25,25 m0.0,0.0 m6.963101027682931,13.683599181448507 l0.534174622359055,0.14697476753946712 2.4070667284764267,0.05142515713168689 l20.03965008280173,-2.428210179984647 1.6849549390773828,-0.18490105419889688 l1.4212655624312809,0.21117210731925498 m-20.426495851735453,-5.315905341870986 l0.47315548573747856,0.8594573058932644 0.17639846895661998,1.4538582031755294 l0.009611062921835497,25.81263798664065 m11.62378642647375,-30.849286278883127 l0.4836085271439929,0.8692895331943723 0.26306074546934516,1.2002551561527224 l0.041312621393945814,27.400115781247013 m-11.844014599941355,-13.24210877123247 l10.997918956708448,-1.1353172548277173 m-10.999232997500174,8.532417408417961 l11.138766040372513,-1.361463951193345 m-20.534822817851,9.931492905654157 l1.186959378757158,0.21209661557351026 1.9148357568136445,-0.027759792803018688 l20.983895759410835,-2.817175860057126 3.519729356238247,-0.33339123284682903 l1.879845326794946,0.21180498586681695 m-15.93455890560399,3.171516505619776 l0.185419598510769,1.107027809464614 -1.1115064303962872,3.060908774082723 l-1.7408296356333992,2.9799498929113204 -2.0131372579710742,2.438187375740634 m9.634689956330204,-10.475509716686197 l0.5754897527139892,1.411961635077121 0.06015462153352495,5.074456242541183 l0.6620867556577499,1.5727522334376733 1.4010562463764888,0.48006966284227776 l3.0285803234964175,0.01919516682229638 1.785761468949224,-0.33958540750076704 l0.7919556993250144,-0.5345015594436267 m-21.83685415876628,-6.344528552778348 l0.5103260106167263,0.8257047632629584 0.15572714661812495,1.026346744895505 l0.03570429801036696,9.510578396839415 0.3688307280459584,2.2015119167957367 l0.9019816606508435,1.0730099807389841 1.2356272885469894,0.4956449846197769 l1.737724123311139,0.3375795297246542 6.489504187583783,0.22277420229299663 l6.081342584989056,-0.3296429008199901 1.873410889455414,-0.4061699598698474 l1.2616437325814494,-0.6539842287382321 m3.0927123588859793,-28.18416470935736 l1.6802130782134532,0.2985018596774623 1.9153860204077304,-0.04434465672564113 l16.317752115527107,-2.9881119379256016 1.3818148805188575,0.08738105523883069 l0.8356248754385803,0.7569106190870561 0.21201916953322553,1.6094696496391316 l-0.2193895110629949,2.7347345024991974 -1.3416062923428953,9.151604406258901 l-1.8349915600544924,7.9128154763100405 -2.138904188169461,6.931257931966456 l-1.16791570113313,2.2035689232078104 -0.6947595785566414,0.600386702581289 l-0.6517420180636185,0.14412378071866744 -1.1703935607627138,-0.46945503356026724 l-1.708318489211616,-1.6952853897022084 m-0.19586650028115776,-43.27468449421154 l0.41261838308206705,0.8660720662837936 0.1421081709661732,1.0653384271865218 l-0.5396370536635792,8.739544461783991 -0.8838747537718992,7.439744980880021 l-1.4614429770846107,7.796907121651643 -1.679009218847738,6.090494838480329 l-1.6609595550829184,4.380936019965454 -2.7527704514423332,5.292838917936987 l-2.5917008685136342,3.5741647945905957 " fill="none" stroke="black" stroke-width="1" /></svg>