<?xml version="1.0" encoding="utf-8" ?>
<svg baseProfile="full" height="92.06920454885307" version="1.1" width="107.67092047186044" xmlns="http://www.w3.org/2000/svg" xmlns:ev="http://www.w3.org/2001/xml-events" xmlns:xlink="http://www.w3.org/1999/xlink"><defs /><rect fill="white" height="92.06920454885307" width="107.67092047186044" x="0" y="0" /><path d="M25,25 m0.0,0.0 m12.023402885355454,0.9985904670189628 l0.3915708824897966,0.34016715119983754 2.6631065971127965,2.9032535892691884 l2.5070490149210727,3.8920681161924566 m-12.297635230761436,7.7512763165961625 l1.8712396497625052,0.3755518759042684 2.023036290338862,-0.1784305394767308 l11.060649890486248,-3.2605484299655623 1.09485566000072,0.18417351630052683 l0.46029472571918006,0.4630316644051894 0.0961038112337254,0.6870644297693709 l-3.4134671210003247,0.879039832653773 -6.040656188376304,4.153752824626615 l-5.895191768328174,4.319234508627877 m7.642789666058776,-4.175010925343679 l0.5189134575982618,1.0247316017302457 0.1335769490205261,1.145055349187905 l0.008171772694913636,20.566203200156654 m1.1457858566850128,-22.76067739973869 l3.435828021259101,2.553495053838389 2.8148040759704283,3.035885009026622 m4.117945091701773,-5.904891218909142 l1.3438718798486518,1.3571058368540196 1.2155709046838574,1.6489108004869537 l1.6089644335466007,3.2534320854485808 m2.9573337045986903,-21.727680375847818 l1.2309363335356949,0.205029828785932 1.5217056647192344,-0.017156539744137195 l13.365296450213814,-1.7284611607007943 2.105781032402572,0.270537795327488 l0.5495781935062141,0.8416841532775452 -0.036225192022159014,0.6366885232751258 l-1.9326688809410866,10.716987611478256 m-15.940997968242986,1.966997511376309 l2.0181454715958704,0.3423206526844089 13.63192104058027,-1.5292160841509757 m-12.957668135692384,1.6921977931848105 l0.44456779737143975,1.1158131879530475 0.03331910243025652,1.7801121380132312 l-1.8854142579152318,11.310760118172233 -0.26790608768848606,1.7864639142715104 l0.17997682968477702,1.1403270816271267 0.3746057388934688,0.6271350723989597 l0.5992870652751794,0.3601088543145295 1.025328431842827,0.08253912587276738 l5.828875645356469,-1.273818127563922 5.860219433450533,-0.8078055554813671 l1.277512798628086,-0.22154680610777355 0.6653867390619501,-0.03378584847573385 l0.8390402339730486,0.07422481883312373 0.8717554675778677,0.01813396991321343 l0.9314936445009404,-0.016355226461386724 0.999966591599943,-0.10264268428310361 l1.0069358991444592,-0.40695896877593074 0.9087660755581325,-0.760430868035519 l0.9334844008389976,-1.280297061904098 " fill="none" stroke="black" stroke-width="1" /></svg>