<?xml version="1.0" encoding="utf-8" ?>
<svg baseProfile="full" height="106.03313402755148" version="1.1" width="107.99920254885352" xmlns="http://www.w3.org/2000/svg" xmlns:ev="http://www.w3.org/2001/xml-events" xmlns:xlink="http://www.w3.org/1999/xlink"><defs /><rect fill="white" height="106.03313402755148" width="107.99920254885352" x="0" y="0" /><path d="M25,25 m0.0,0.0 m30.58234080173629,4.049346577407595 l0.3172174143335341,0.46287291182810725 0.4328104915669651,1.6461576598731724 l-0.0014934808668216372,6.209177677920688 m-16.45557007889848,2.0339986001975228 l3.343284527963851,0.2570752436397354 25.110406186910293,-2.9111127563791266 l2.939418801184329,-0.12517087698885138 2.2482733820824756,0.3209222238610108 m-28.570991844007196,3.812498186157736 l0.542690268272912,1.3598744125937208 0.08252523085445745,3.3092654435604234 l-0.5501094430544179,7.819940217110027 -1.045941171936502,7.0017413942831 l-1.0857643931111722,4.434988250761468 -1.5223081994488163,4.409142357697797 l-1.941411118150626,4.092591890816523 -1.8038916977905877,2.815611926377394 m12.447472498684332,-24.471715906903714 l2.227860305664625,0.26271948738920436 19.396270245615504,-2.7556392136214916 l2.687558888528537,-0.17697396674785093 1.8205798087071146,0.2767554011316181 m-13.9988847133124,-7.116549804354211 l0.5179452769918681,1.0043211829187413 0.19950213849960846,1.6709906896694622 l-0.0019144951248122228,36.34030481735168 m-0.30603289471638945,-28.634477308352697 l-0.26735941876776514,1.3277531080727112 -0.5863599517373291,1.1692493761716247 l-5.344366480957086,7.502578597804284 -5.281203813067763,5.907798445338841 l-5.5316132760562535,4.9218328918786325 m18.174949908488827,-21.376564216814568 l14.834145617533991,15.249523164452041 1.9021648486528155,1.6814212791880914 l2.4870023775856107,1.672041081017133 " fill="none" stroke="black" stroke-width="1" /></svg>