<?xml version="1.0" encoding="utf-8" ?>
<svg baseProfile="full" height="113.27769195864042" version="1.1" width="105.05420662323073" xmlns="http://www.w3.org/2000/svg" xmlns:ev="http://www.w3.org/2001/xml-events" xmlns:xlink="http://www.w3.org/1999/xlink"><defs /><rect fill="white" height="113.27769195864042" width="105.05420662323073" x="0" y="0" /><path d="M25,25 m0.0,0.0 m26.626168365821687,3.9949880182326236 l0.014218575916543892,0.40915710778202 -0.39398915702039466,1.39335177401045 l-1.8166245384978053,4.174565260967313 -3.489536597634725,5.848207350391144 l-4.194965504047679,5.214497779390125 -4.615893895902496,4.3466302106483985 m10.722421437731326,-8.898057547284276 l2.118424309649114,0.4102547352899316 2.2090329587066257,-0.1339322916168643 l22.114571265074165,-3.4414310534835244 3.3611577199576392,-0.4063050964336501 l1.61018322702572,0.5607164211414128 0.7890384564509989,2.8244846821408363 l-1.524432384132426,20.80245140006138 -1.6725537082439434,9.926987826809611 l-2.1320532978814164,8.050529134193726 -1.9470193004241236,4.796058646880728 l-1.0650417088406217,1.5576180679395648 -0.5178552001826662,0.6313381508857593 l-1.0448474869400954,0.4325341187816793 -0.5333421818362143,-0.16955639020360974 l-1.0748867847619874,-0.7347135471573089 -2.3340570470709756,-2.3468956021467293 m-21.255190010517982,-28.562473420109313 l0.19195486749922086,1.927485522828755 -0.8053706976740239,21.674547810127482 l17.789801129262177,2.131201463588081 7.139822542670187,0.18617860554620005 m1.8391703912936785,-18.65988200221204 l0.5097542056297009,2.7767870053492025 -1.1636111488642522,22.5603678163013 " fill="none" stroke="black" stroke-width="1" /></svg>