<?xml version="1.0" encoding="utf-8" ?>
<svg baseProfile="full" height="114.9733370157534" version="1.1" width="111.80688950738475" xmlns="http://www.w3.org/2000/svg" xmlns:ev="http://www.w3.org/2001/xml-events" xmlns:xlink="http://www.w3.org/1999/xlink"><defs /><rect fill="white" height="114.9733370157534" width="111.80688950738475" x="0" y="0" /><path d="M25,28.848854417457716 m0.0,0.0 m7.161039404086109,8.885853403673151 l0.6194886444864874,0.19804544465249724 2.7111538833992204,2.230296100519638 l1.6223909135629366,1.8654810562647461 0.6960890948937748,1.8256250519082453 m-10.684652555740263,11.785179736840076 l2.105776158815399,1.081425099130451 2.327099855624802,1.6201635789318451 l1.7889472858786886,1.6144949956273806 0.7675331292970353,1.0798386434076674 m-6.65497379164423,28.866873237572197 l1.1483909692908352,0.07120624976778528 0.9008837686217244,-0.8508363793712675 l2.764594184110759,-5.854313892825413 2.861931131544745,-7.065201112648608 m8.302847159678683,-36.582605278389174 l3.3415707656210603,0.2461875505790569 18.711818994077017,-2.3406827177553367 l3.90235286194153,0.17585343540021883 1.1391361775239868,0.4211193524062834 m-28.20765379236701,3.0983425051888407 l0.6318480743141752,1.03803428297982 0.2821414650100261,1.238723532617853 l-0.1907056893117499,16.291994021939768 -0.5007390381500767,7.279746622565473 l-0.9766789102380199,6.3879500710162285 -1.4660169498632576,5.481569809517956 l-2.033315675883448,5.108918182531106 -2.0977514537532076,3.746246589541874 m30.265964238372586,-33.91330246838029 l-0.05391853471953601,-1.7705147668751668 0.3181685506168319,-5.120170540458617 l2.782939515129971,-6.330604939061429 2.1650161546325988,-5.913984058057397 m1.6273461620769643,-9.745806818215192 l0.6847114573907045,1.012966169577504 0.1799264896510711,1.4019997051472792 l-0.06729467982268754,16.013244404895335 m-7.642423887528101,2.1597345929625975 l0.6676797626676201,0.30262394541764415 1.0514432979603494,-0.040129018841544614 l11.357641815490375,-2.6095645272256727 1.0836998427124889,0.2087952273382323 l0.40825127027282676,0.4955663931299041 0.16291660486816603,0.7796064346562088 l-0.19057427748203162,1.018533557683188 -3.2667477296393623,4.1122025050033795 l-2.623720886249731,5.7480665654485135 -2.2937579240831654,4.701585383822477 l-2.298555665497507,4.007712667784315 -2.4760475896836085,3.6369540946931216 l-2.647208499666942,3.3603057519102957 -2.9054652501015514,3.035252272942346 m1.890490977099707,-22.993586519712085 l3.051477452248859,2.6458584734667454 14.277436035454892,14.71351551893294 l2.8530013139046586,2.6842697634665913 2.4699474264805934,1.8376136852473268 " fill="none" stroke="black" stroke-width="1" /></svg>