<?xml version="1.0" encoding="utf-8" ?>
<svg baseProfile="full" height="125.61233498464333" version="1.1" width="95.89342102943172" xmlns="http://www.w3.org/2000/svg" xmlns:ev="http://www.w3.org/2001/xml-events" xmlns:xlink="http://www.w3.org/1999/xlink"><defs /><rect fill="white" height="125.61233498464333" width="95.89342102943172" x="0" y="0" /><path d="M25,25 m0.0,0.0 m9.61081962866208,19.18564530103076 l0.5281793229443145,0.16938896266055303 1.617217454363633,0.23271886136565648 l2.346643912884137,-0.1723768943523317 27.347287508353503,-4.050396701566895 l2.0035571642247154,-0.04081666185774561 1.4418862557573435,0.4932584909417448 l0.7589870055774508,0.812828797854897 0.238842776664535,1.1878874503109271 l-1.7169834232987136,10.584376772383996 -2.135490231070819,9.175555941762482 l-2.530925188909066,7.6191595666310645 -2.332497561365545,6.528138799523234 l-1.273951687379116,4.150960986863869 -1.2633814976616098,5.029197906674365 l-1.0331644379523228,4.172669445790456 -0.9980666453075846,4.208752845864733 l-1.0302751208168248,2.9593108798354604 -1.143925039512997,1.885622909078747 l-1.1336030335203522,0.7283634883269045 -1.0133003285743987,-0.17168370939717423 l-1.0106434852348372,-0.8185320179578864 -1.809564571541687,-2.8324928799745397 m-3.3300042603168065,-41.543602660248155 l0.20352570542188544,1.812602533091977 -0.07485990122497072,2.2044899802064597 l-1.3793274644404045,7.887640454523964 -2.0634727124947507,7.388856305726512 l-2.7838205366182405,7.1975179272504635 -2.872106763428388,5.706657848325339 l-3.4768174824432667,5.412284801165194 -4.094414053352538,4.9945484075858095 l-3.5965908627008925,3.5138008452224714 m8.792372246060873,-33.752289400447054 l3.9690933906532186,2.524273844052716 4.0544210217757435,3.3329725040199807 l3.0384360213846087,3.317478279103523 1.8163129323217941,3.181199876107551 " fill="none" stroke="black" stroke-width="1" /></svg>