<?xml version="1.0" encoding="utf-8" ?>
<svg baseProfile="full" height="109.49251304835343" version="1.1" width="108.03129639010876" xmlns="http://www.w3.org/2000/svg" xmlns:ev="http://www.w3.org/2001/xml-events" xmlns:xlink="http://www.w3.org/1999/xlink"><defs /><rect fill="white" height="109.49251304835343" width="108.03129639010876" x="0" y="0" /><path d="M25,25.000000223517418 m0.0,0.0 m9.580248594284058,2.249777168035507 l0.47383319586515427,0.3294172137975693 3.0969953536987305,3.2525721192359924 l1.5762308239936829,2.804781198501587 m13.344440460205078,-8.636547923088074 l-0.25627123191952705,1.8422336876392365 -1.499541699886322,3.3547118306159973 l-2.0637616515159607,3.1243902444839478 -2.067820280790329,2.241322249174118 m-16.742781400680542,2.2781871259212494 l1.9166399538516998,0.7837187498807907 1.8344548344612122,0.0002853652767953463 l23.459815979003906,-3.2480698823928833 0.5458720400929451,0.42343977838754654 l0.1668858341872692,1.5368294715881348 -2.3005513846874237,8.656164407730103 m-21.24504327774048,3.0763643980026245 l17.962031364440918,-2.6536011695861816 4.548764526844025,-0.11710016056895256 m-23.571932315826416,1.84933602809906 l0.25230517610907555,0.4657161608338356 -0.04481291864067316,1.4286020398139954 l-3.408571779727936,8.40757966041565 -0.038746262434870005,0.8840827643871307 l0.37439923733472824,0.48262666910886765 28.374693393707275,-3.83425235748291 l1.1776496469974518,0.025112144649028778 0.7562391459941864,0.3642529249191284 l0.574873648583889,1.3406671583652496 -0.25044502690434456,2.02385276556015 l-2.0521777868270874,7.0478034019470215 -1.9237424433231354,4.928744435310364 l-1.0085442662239075,1.7384029924869537 -0.8556730300188065,0.7440634816884995 l-0.7244472950696945,-0.011150384088978171 -0.6155434623360634,-0.5265940725803375 l-1.4086474478244781,-2.2764961421489716 m-8.171170353889465,-32.94442892074585 l1.0113345831632614,2.1750329434871674 -0.33549707382917404,42.20214366912842 l-0.4890526831150055,1.283847689628601 -0.7034782320261002,0.39469189941883087 l-0.8272633701562881,-0.25670191273093224 -0.8597315847873688,-0.6706718355417252 l-1.8628646433353424,-2.1209192276000977 m3.769020140171051,-23.550286293029785 l-0.0969924870878458,1.724536269903183 -1.0145474970340729,2.245042622089386 l-1.863371878862381,2.911655902862549 -2.6045605540275574,3.2968777418136597 l-5.437413454055786,5.374506115913391 -5.738082528114319,4.014560878276825 m41.23464584350586,-43.22603225708008 l0.8406227082014084,1.1905016005039215 0.378415510058403,2.2869805991649628 l-0.013850785326212645,24.692423343658447 m11.612802743911743,-36.47264003753662 l1.0261312872171402,1.7843995988368988 0.23888245224952698,4.029442369937897 l-0.39872925728559494,49.01010990142822 -0.4690982401371002,1.3609598577022552 l-0.6916408985853195,0.4900673031806946 -0.8407917618751526,-0.17975898459553719 l-1.8331019580364227,-1.566930115222931 -2.0262202620506287,-2.362401634454727 " fill="none" stroke="black" stroke-width="1" /></svg>