<?xml version="1.0" encoding="utf-8" ?>
<svg baseProfile="full" height="108.38899137150037" version="1.1" width="107.09260258961581" xmlns="http://www.w3.org/2000/svg" xmlns:ev="http://www.w3.org/2001/xml-events" xmlns:xlink="http://www.w3.org/1999/xlink"><defs /><rect fill="white" height="108.38899137150037" width="107.09260258961581" x="0" y="0" /><path d="M25,25 m0.0,0.0 m11.69863029197303,9.14213467568453 l0.4568078361780574,0.34423312943139805 2.9402555179032674,3.5193493820791293 l1.5933928597631803,3.4064744646189964 m17.462056262751275,-11.23673445943272 l-0.21526634592160923,1.7736815381476059 -1.4383316440949225,3.0290304449200414 l-1.9650670446448175,3.08511946166575 -2.244862410133537,2.7068331015659046 m-17.458719861517313,8.635246682427255 l1.4394024550632123,0.27081214614814675 1.4790515674429967,-0.08580523791549927 l17.673154984670663,-3.199723021255089 2.2255947814773336,-0.17613564525756634 m-24.50285245966932,15.019166597130226 l1.7622508510519925,0.3068809499162849 1.9355126504557674,-0.09629333421619418 l19.368826638606148,-3.469494968921799 2.2322909609825503,-0.0987184703955805 m-12.266922926106718,-30.715368218290322 l0.6022082462801994,0.9916665595515974 0.33134245990282696,1.7451130591256263 l0.0061633278165368535,53.49152253477265 m19.351472919173315,-46.60047913635294 l0.8029079959753657,1.3129302101907798 0.3357063337026835,2.0853907792789763 l-0.001775996452579751,23.37118980974114 m12.383168619387721,-36.45670524437692 l0.8833371455417847,1.5477003570134609 0.22286657205670315,1.385888652437544 l-0.14670915788861505,49.98108298578782 -0.444799883946972,1.6607822707798092 l-0.621602906552823,0.6819230294917156 -0.7501294998777399,-0.034441622848343255 l-1.6690080506810736,-1.326438293923472 -1.8347734727219962,-2.163314583556656 " fill="none" stroke="black" stroke-width="1" /></svg>