<?xml version="1.0" encoding="utf-8" ?>
<svg baseProfile="full" height="109.49251415207982" version="1.1" width="107.81108405441046" xmlns="http://www.w3.org/2000/svg" xmlns:ev="http://www.w3.org/2001/xml-events" xmlns:xlink="http://www.w3.org/1999/xlink"><defs /><rect fill="white" height="109.49251415207982" width="107.81108405441046" x="0" y="0" /><path d="M25,25.000000428408384 m0.0,0.0 m8.993063569068909,2.9509004950523376 l0.7418986409902573,0.259018000215292 3.0682116746902466,0.4723239690065384 l3.111852705478668,-0.10372336953878403 37.20524549484253,-3.5785195231437683 l2.7235278487205505,0.6023885682225227 1.545824259519577,1.7161457240581512 l0.42145986109972,1.7165498435497284 -0.03404409624636173,2.1432627737522125 l-2.5664401054382324,17.185702323913574 -3.2878312468528748,14.970513582229614 l-3.1546854972839355,10.134432315826416 -3.031843900680542,6.5041399002075195 l-2.0543642342090607,2.9409250617027283 -1.6817985475063324,1.3904538750648499 l-0.7503844052553177,0.18800018355250359 -1.418335735797882,-0.48975009471178055 l-3.0577054619789124,-3.6080682277679443 m-4.179847240447998,-50.533156394958496 l0.13702244497835636,2.129119783639908 -0.3190245106816292,1.7189744114875793 l-3.431483507156372,10.485177040100098 -3.822232484817505,8.658716678619385 l-3.774954676628113,6.757904291152954 -4.480486214160919,6.517878770828247 l-5.2490538358688354,6.194611191749573 -6.078234910964966,5.786486268043518 l-5.141567587852478,4.023062586784363 m14.081528186798096,-35.27493715286255 l5.02680778503418,2.9116290807724 6.011965274810791,4.7415244579315186 l4.350775182247162,4.417044520378113 2.435617595911026,3.7616202235221863 " fill="none" stroke="black" stroke-width="1" /></svg>