<?xml version="1.0" encoding="utf-8" ?>
<svg baseProfile="full" height="123.60467548889311" version="1.1" width="102.39878234385813" xmlns="http://www.w3.org/2000/svg" xmlns:ev="http://www.w3.org/2001/xml-events" xmlns:xlink="http://www.w3.org/1999/xlink"><defs /><rect fill="white" height="123.60467548889311" width="102.39878234385813" x="0" y="0" /><path d="M25.064191666895052,25 m0.0,0.0 m19.59960844898785,18.216590650477155 l0.032875562459565286,0.48617584808132724 -0.17261918889086933,0.8317013838467192 l-1.498760941726343,1.7457641199506897 -4.7382000253598,4.327755609484968 l-4.823902162554774,3.3454131161460574 -5.802345862760738,3.1653791704603575 m1.3862617944387534,-12.884340702711823 l5.18177501514424,1.2306730924826677 5.945985954422765,2.5002644545159503 l4.618641775620616,2.75082845209223 3.517673325204007,3.1788848573798134 m-20.273177372780758,9.991372076443668 l1.855193326365847,0.27051972830978027 1.7644248889544814,-0.08477797106986114 l15.138187999922025,-2.1428332056262978 2.3239585820213953,0.026450305483007315 m-9.528562550906189,-6.183928963530589 l0.9653004878986438,1.0264485219748607 0.21058989620529156,1.021213275872292 l-0.07344043076548322,28.882764164383172 -0.14903285841311653,2.240069515666651 l-0.5384635809699062,0.9804448952131385 -0.7597713940420708,-0.021925850608646248 l-0.848749224388801,-0.6110028292575197 -1.818192479305349,-2.1641041883847247 m4.0682070927896,-24.203543602516095 l-3.159315271570906,5.740852539527723 -3.5892448124087104,4.229844003873541 l-4.049046015938223,4.43359979572888 -4.850051644548096,4.898488493262694 m16.57122981475311,-14.31123044415051 l2.99916822313524,2.348357349176221 3.4480700340653785,3.8417939829520056 m10.08973338386511,-28.42636678689051 l0.1928147868348786,1.6371949480923143 -0.2651883622790594,1.2393593986994411 l-2.4545869378588066,12.931702619772922 -2.6095147610243252,5.441832612323397 l-2.380686235216705,3.701871940033242 m6.460492242342711,-8.83143152711372 l0.9937615815106815,-0.14051542194642577 3.360410509654578,-0.43542498831382825 l13.034954368862667,-1.963832808955586 2.851713912059337,-0.19666130081936353 m-15.58096411343149,3.187719334664806 l0.6273233842364945,0.8022538691144735 0.3030771774146032,1.4575417603753473 l-0.09188398314997581,34.09547019492711 m0.47171286686081837,-26.836271050968563 l11.221753584966615,-1.5209211261466398 2.175396146387484,0.10579804051491494 m-13.835204826759906,11.529663863364652 l12.455682023578968,-1.4176874506162975 2.359517523049709,0.0737400245774434 " fill="none" stroke="black" stroke-width="1" /></svg>