<?xml version="1.0" encoding="utf-8" ?>
<svg baseProfile="full" height="91.78378685239147" version="1.1" width="103.91437291271598" xmlns="http://www.w3.org/2000/svg" xmlns:ev="http://www.w3.org/2001/xml-events" xmlns:xlink="http://www.w3.org/1999/xlink"><defs /><rect fill="white" height="91.78378685239147" width="103.91437291271598" x="0" y="0" /><path d="M25,25 m0.0,0.0 m22.994541295804666,3.0193386208690947 l0.3247547497740408,0.32632356196910584 2.48031464661547,1.62429803201721 l2.3630411659412944,2.0951645419937006 m-15.583066578426438,4.1188902102581615 l2.393858313862146,0.2814214039495114 19.957150399645638,-2.4526344002743694 l1.8045383220034,-0.1469906663891576 1.2025606913699654,0.29619097692640123 m-14.263107848500606,2.316665844874811 l0.0897735899837756,1.1419497334747388 -0.3598287213625508,0.7078139258778984 l-5.045925414975421,4.28174999243871 -0.44365209486727775,1.2034540519555845 l0.5144764775944705,0.38773845625348424 2.965674914748726,0.9284685042024501 l2.9794004639077825,1.351916085120508 m6.387182788586872,-8.978361139523104 l0.017850296156704613,1.35437583884593 -0.4246150108835509,0.8457648220534066 l-2.3708842555754286,3.7862692660359887 -2.524304829788633,3.2430613828538255 l-4.380082898236549,4.353959510973818 -5.238771999726975,3.8443351490119535 m16.409206754088878,-7.753361746837243 l0.008087128826493343,1.6456034412124125 -1.0980843471810657,2.4555834744392504 l-2.1964511234510167,3.4973941115464036 -2.664310036835462,3.345016941552229 l-2.4147118755337806,2.474541537391161 -2.6691631916013514,2.2964019245689795 l-2.9157775435163855,2.057828408742078 -3.2117453873794846,1.833615054006545 m13.411391291595232,-9.686685248134173 l2.3586895583243437,1.487780839069589 2.466851188128765,2.0403392918787033 l2.022766052769561,2.1692865533464545 1.1916311072791697,1.9057899118280814 m6.418829914913187,-31.537915825933506 l0.6439651518248053,0.8412273700654711 0.3179840920040335,1.6266919907253004 l-0.0009913547372216707,16.444377771261184 m9.007170785847233,-25.00508790830257 l0.7944660469691223,1.2456708673299643 0.19369023672938623,2.8741230756011076 l-0.30218978676456326,33.15000811650109 -0.3712405166600122,0.8633911937091476 l-0.5198090317676183,0.3119886426558551 -0.6304621872822855,-0.0923698540317374 l-1.3793895845317594,-0.953364648277463 -1.4906623434718547,-1.4647094030101508 " fill="none" stroke="black" stroke-width="1" /></svg>