<?xml version="1.0" encoding="utf-8" ?>
<svg baseProfile="full" height="103.53985967002399" version="1.1" width="105.83625527807175" xmlns="http://www.w3.org/2000/svg" xmlns:ev="http://www.w3.org/2001/xml-events" xmlns:xlink="http://www.w3.org/1999/xlink"><defs /><rect fill="white" height="103.53985967002399" width="105.83625527807175" x="0" y="0" /><path d="M25,25 m0.0,0.0 m7.7432104560016635,20.91748949649885 l-0.012285765411700428,0.6119586117519987 -0.840301410601796,4.273116430065518 l-1.8476824238306135,4.666953112678958 m11.130607977340405,-13.51227514693479 l1.4059532487003759,0.9963339096571007 2.013380743743659,1.9051620250767172 l1.5470946116785567,1.9011237605250313 0.6844196549429347,1.2780016263689882 m-8.998586892737714,-15.442536259405065 l0.6695561989420658,0.7994909450089512 0.3322928559813598,1.5238803477899299 l0.031290821036458166,43.621160810941795 m13.12234717461264,-41.505897389118616 l1.296814648354914,0.22928049324520672 2.101647698719409,-0.07548459683232127 l22.27800001244699,-2.0450728866137124 2.520227386493914,0.18570304241661814 l0.6582682816582195,0.3241174895839653 m-26.669825603652555,-4.081943110497512 l0.8275842841997583,0.7505857552371357 0.37491109692799623,1.2173878158782534 l0.8406199271662779,9.91263266307039 m14.570358132889233,-13.707966390352722 l0.3654207989038265,0.8790984741191549 0.014826251839560977,1.1242392382333493 l-1.8941138128469077,10.790626895191512 m-23.5400866531842,-0.5557584300521741 l-0.6248389480143542,1.5450589157691386 -0.947146394614522,2.1585086550495416 l-3.8173703755713078,5.533222419257284 -0.08878784316087361,3.671714940393963 l6.702868309012626,0.3165158486948159 m8.54195196739467,-8.778297072614505 l0.15681310620369612,1.5155904851826778 -2.24477184889502,9.322577074891026 l-8.221583641604164,6.67647358275737 -0.5657983052856608,0.5195480091005975 l0.16182172740454986,0.604333022921247 0.8988104181358805,0.07787825741208484 l12.90620895635738,-2.788197508379948 m-1.8676784223777743,-4.037200354817553 l2.4950097308877797,3.0208709598724495 1.6003128051010607,3.3401784114674626 m10.180271390833102,-19.324991681471428 l0.04994051857408835,0.8863877048286042 -1.054915529177975,1.8313747924569759 l-5.121456761478875,5.544678621427019 -0.29274748961775043,1.1001666404382882 l0.24658044202907486,0.41888326199782266 6.103511074482501,2.8931193925824843 l2.1225612922649693,1.498688373417492 m6.434682367948164,-8.555905719642679 l0.020838533137175663,1.3823857930417496 -1.7083743798633437,1.7674273378126126 l-5.453256705791203,12.9236340278691 -3.2934497207089883,-3.0185483939544278 l-1.08562319045132,-0.27648439406270836 m-3.770150336933327,-6.6502421926178155 l0.25090192676832457,1.2890431289555482 -0.09853895225406424,1.671734505239503 l-0.7603234971979808,16.197968728494924 -0.40869739298190516,0.41087760922574185 m-24.212877350366213,-11.367456127575919 l1.8071415183590847,0.8356122553502228 2.1406670344596654,0.10301987366763286 l27.91234114477735,-1.840911232467917 4.013615302726831,-0.028699250260001273 l2.67208334687833,0.31412440369264216 " fill="none" stroke="black" stroke-width="1" /></svg>