<?xml version="1.0" encoding="utf-8" ?>
<svg baseProfile="full" height="114.8588161646246" version="1.1" width="105.21859433893285" xmlns="http://www.w3.org/2000/svg" xmlns:ev="http://www.w3.org/2001/xml-events" xmlns:xlink="http://www.w3.org/1999/xlink"><defs /><rect fill="white" height="114.8588161646246" width="105.21859433893285" x="0" y="0" /><path d="M25,25 m0.0,0.0 m16.87527852436709,7.614964923003581 l0.3224849280182488,0.2125218301350492 2.477704378315947,2.471991498124127 l1.769853985884501,2.811780466309416 m-16.13665715653095,3.2762505758767118 l-0.6492590550993041,4.810322641776028 -1.2624814590814684,5.640119948285407 m2.834804814571715,-8.30211457515295 l28.193933758427566,-3.160714843991331 1.8223913209020588,0.21027850898380987 l0.7564567899753575,0.5989898207786859 -0.0364505110131577,0.8462730042921165 l-1.3403009598275832,1.8211452792767202 -1.419688296967158,1.1679851885873567 m-26.076046169867098,7.337000948266459 l1.810747042524013,0.23354541762875994 16.567312821668978,-2.623285821635052 l2.1775968286728347,-0.13250288257044593 0.9806554470128356,0.22500428627206168 m-11.105544814038343,-4.841326074813579 l0.679140619018957,0.9088716115225449 0.36289816966782884,1.4917675011610556 l-0.06286651958382444,19.432545887172164 m-10.784772533588031,-7.552904381393524 l1.8142631298128522,0.26785736800016596 15.40476268126095,-2.057156624607509 l3.130870617887874,0.1308360104734479 m-26.492994614901964,11.172261945354093 l1.2492274332627706,0.24337844104442638 2.099268438909624,-0.15350287092259363 l24.47978498832932,-3.6609630278839567 2.945531439250818,-0.21842034834658455 l2.1016446508154205,0.23996812837400933 m-27.163029089906157,9.810807256772563 l0.45570750040690655,0.7417020830389294 0.7007586634408789,3.1751786586710065 l1.613790046951237,10.668358386761424 m-1.6108897664446675,-13.84946184080429 l11.901065507666585,-1.696095446238834 7.084740088707096,-0.8273102769754892 l0.6255147772071474,0.14811038100496096 0.4780166492522887,0.4895045152599304 l0.29383459728944944,1.2282003624138875 -2.3771462462335924,9.777476449603002 m-16.328219040042512,2.234594931380219 l17.138962267890488,-1.8847524573668801 m14.15864689114193,-44.33593279607349 l0.8425956320383168,1.2217496598114592 0.3763039779992691,2.3446170068618417 l-0.01630384986296961,25.90969307981524 m10.26865170470256,-39.252277876649785 l1.0472184783128364,1.8217061874228895 0.23882483035706428,4.09047077951285 l-0.392590831182736,48.09772898841258 -0.4537782919047789,1.366762855675159 l-0.67807659249186,0.49133995442762746 -0.8314592197488775,-0.18585496391013862 l-1.81010063663878,-1.5952654648805897 -1.9923686945873458,-2.368625397804409 " fill="none" stroke="black" stroke-width="1" /></svg>