<?xml version="1.0" encoding="utf-8" ?>
<svg baseProfile="full" height="111.86815742919494" version="1.1" width="102.93161147728145" xmlns="http://www.w3.org/2000/svg" xmlns:ev="http://www.w3.org/2001/xml-events" xmlns:xlink="http://www.w3.org/1999/xlink"><defs /><rect fill="white" height="111.86815742919494" width="102.93161147728145" x="0" y="0" /><path d="M25,25 m0.0,0.0 m8.91946739507387,21.254317850732356 l-0.0025118352273192433,0.48345522009121195 -0.802625451702826,6.0939277009341675 l-1.4191549456111932,5.040835759011992 m9.831644087094352,-15.031568422333082 l2.1523948823112993,3.3899510501123418 1.3799775170760975,3.7937569049455546 m-7.373676117274541,-19.885567869507977 l0.772996608620676,0.9742443569987921 0.40948794128567917,2.042685795007144 l-0.15369426222048016,53.71211908320243 m10.24205933797947,-55.22221020401237 l1.2619411829446863,0.3671794570548091 1.9366378489132774,-0.08720829301892243 l7.66624263574582,-1.4438531723613963 0.6869795476934648,0.023724920714114466 l0.984214674377747,0.555172637810261 0.3690234359497774,1.4566028635830548 l-0.1666718384766772,20.29399660476628 m-5.505722195209206,-19.74124202469819 l-0.3301053923548031,1.3758486149216866 -1.8844219052255131,2.6225627218073346 l-2.5068924194028135,2.3844160377686023 -2.529117246440085,1.700418709707682 m9.941322364489018,-2.422927739176253 l-0.04975322630721032,1.335895052694317 -0.5048462140375073,1.5178635231389006 l-2.199814915576942,4.067602445422627 -2.9603671232523996,3.888694449553794 l-3.7453268032651175,3.5248025449141682 m15.475069240272951,-22.599065563308926 l1.3674547406885913,0.43670167801933335 1.2946071778407833,-0.10173279198986172 l8.745650346149894,-1.7211271938102124 1.0451093729322278,0.3889182592566141 l0.5840330314263874,1.6444939257442008 -0.25585027127643295,20.786222429770447 m-6.2099728340095846,-19.631100981056946 l-0.30095090023172777,1.3634744250136335 -1.8157375911773026,2.4754168200431286 l-2.49407061322388,2.2806767911984083 -2.531527754186127,1.651993478909796 m11.19400590534066,-3.8368331968855993 l-0.05651335787777694,1.2608519104399807 -0.557570278655303,1.421859702396038 l-2.324078221583418,3.7779144204688477 -3.1652824266125443,3.643322158443666 l-4.003373630817669,3.2422132214829404 m-1.6150136829288588,3.880460289552943 l0.13480232298446346,0.6581010702531825 -0.1662820524247061,0.6344293233831173 l-1.3170704834534022,2.39448815177429 -1.7143590069720618,2.407710815069912 l-2.022110402861982,2.23724638455534 m-4.5167719688832975,0.2878427952425495 l0.6309368230128132,1.364248080629287 1.741403874584933,19.1545611745151 m-1.5454541952461953,-18.909778524734104 l18.369638226078614,-2.494043006741541 1.5155588100502906,0.13928569087622036 l0.5605110906724903,0.8833983754532544 0.06757481842961043,1.6303134630807765 l-1.4940049362068188,18.205437675663852 m-17.945080815546106,-9.919557354225484 l12.173339894505165,-1.8478166432193295 m-11.079363008658405,10.724991874626157 l15.800570751541528,-0.7967903100537751 " fill="none" stroke="black" stroke-width="1" /></svg>