<?xml version="1.0" encoding="utf-8" ?>
<svg baseProfile="full" height="110.2979591592647" version="1.1" width="103.4096848787697" xmlns="http://www.w3.org/2000/svg" xmlns:ev="http://www.w3.org/2001/xml-events" xmlns:xlink="http://www.w3.org/1999/xlink"><defs /><rect fill="white" height="110.2979591592647" width="103.4096848787697" x="0" y="0" /><path d="M25,25 m0.0,0.0 m25.444444499356095,2.34886806843844 l0.017554733171828558,0.4215990509672495 -0.4448742401206465,1.4109973847576787 l-1.7248293233759582,3.9831538439783607 -3.35151845195526,5.790318787504434 l-4.035545299574525,5.199015087467484 -4.658037299657343,4.27145626279226 m10.747549192103182,-9.047636904179337 l2.017449655298953,0.4337864921739795 2.129102482969704,-0.09694321186778386 l21.124378665432246,-3.7476078500465806 3.431147125970205,-0.5409350527413231 l1.414870326146741,0.4821047402886615 0.8740221890630337,0.8081183742535615 l0.4239706239414423,2.3161256007232405 -1.6056176712431385,19.341874166043308 l-1.6550858309821888,9.417439257030662 -2.2702526866834725,8.367388105574006 l-2.1195769877301296,5.310642684510059 -1.0222861109945798,2.0817340246833345 l-1.8150589582526289,1.7464602469130126 -0.9776085108304962,-0.008766722327835427 l-1.0889673804456725,-0.6050739625014773 -2.3381711793672544,-2.220321573229015 m-10.26343294756057,-30.051772035898853 l2.3304337693993125,1.9929726663076188 2.4805337390580076,2.920138474340468 l2.021453478987597,3.036505149359519 0.9409163178738845,2.203050050239731 " fill="none" stroke="black" stroke-width="1" /></svg>