<?xml version="1.0" encoding="utf-8" ?>
<svg baseProfile="full" height="112.33979466668171" version="1.1" width="106.56778596805468" xmlns="http://www.w3.org/2000/svg" xmlns:ev="http://www.w3.org/2001/xml-events" xmlns:xlink="http://www.w3.org/1999/xlink"><defs /><rect fill="white" height="112.33979466668171" width="106.56778596805468" x="0" y="0" /><path d="M25,25 m0.0,0.0 m7.062034817440457,23.64693205754991 l0.48956119600277975,0.12857457690380894 2.4782409220351553,0.021608231728401015 l9.975648334094485,-2.1741327215760395 2.5905644228953517,0.005730958106002228 m-7.7415177468089675,3.3159550713334776 l0.6208684073576528,1.0971125232355723 0.20489438770077661,1.4149594098722014 l0.04652959342065993,19.36317058546437 m-8.305205803631097,4.460938563194123 l0.739464367914613,0.38964592651892993 0.8176067137320043,-0.18044510202493982 l11.895136353479991,-7.368489277837088 m4.582860127049566,-16.61184780633766 l2.049122403290083,0.45094541841672237 2.476779984718964,-0.16077028134446048 l18.3802817906873,-4.790007396463207 0.5108733622957414,-0.018099541723110183 l0.7785176542824314,0.633783698657236 0.3546744037946388,1.2094290677978998 l0.036376509560222106,1.742229682057876 -3.9319865824789115,6.956727235455549 l-4.485511077789783,6.00779103071032 -3.8219840707077766,4.39800021403009 l-3.928331616916092,3.7405242693118894 -3.8974155353027498,3.2069406557091105 l-3.9574337179298196,2.395705093448287 -3.393024050528755,1.4596805697086273 m6.692879941749741,-34.18107668775105 l1.5950035598066108,1.9256728270698091 1.6051961529018368,2.6262039500664285 l1.3120103895146957,2.7635322357473466 0.5615624842253216,1.8258885876375435 l0.2861933534003396,21.238229114209943 0.15273017956633628,3.7123056018711265 l0.6091418683427948,2.5590230205786177 1.2506854205927356,2.479339648635108 l1.9855210080959858,1.8315613593515152 8.338717029238254,0.8165222973614181 l3.6344578177226174,-0.6065315672457614 2.5946058453436165,-0.7995495124076655 l2.141470943974715,-1.1592820470373248 0.8677363164209889,-1.46152051478554 l0.3122481074991552,-3.4328898768166396 -0.00023036681587386507,-3.8921243883316325 " fill="none" stroke="black" stroke-width="1" /></svg>