<?xml version="1.0" encoding="utf-8" ?>
<svg baseProfile="full" height="101.49986612445005" version="1.1" width="101.2096890076687" xmlns="http://www.w3.org/2000/svg" xmlns:ev="http://www.w3.org/2001/xml-events" xmlns:xlink="http://www.w3.org/1999/xlink"><defs /><rect fill="white" height="101.49986612445005" width="101.2096890076687" x="0" y="0" /><path d="M26.100231376117094,25 m0.0,0.0 m8.146501433949727,14.276619492826073 l0.09011679994851349,0.4146785514010061 -0.7805980864105527,1.925547612979062 l-2.0977164857044466,3.0698657305191523 -2.34841447267984,2.7343253348442675 l-2.576008895130953,2.507563341663618 m6.736139337868721,-4.9353323677200045 l2.5044991981646425,0.08422073567177693 13.088606516479771,-1.643121278094754 l2.613917500380072,0.03999661535668884 m-26.477274222982746,9.755550627469427 l2.1877325733920903,0.12324028092266315 3.482671182622401,-0.17701514733664603 l19.843604417295353,-2.406168005698639 2.5113016541063504,0.04154346903887598 m-24.901788252015706,8.399170038168975 l0.7708945809062593,1.2310318914258884 1.467461252957298,10.120111534980838 m-0.9201711544252733,-10.282043479148426 l15.249331427418184,-2.2359676971780234 4.607026643925006,-0.3470193478853663 l1.0165487211839423,0.19779136697492292 0.6411466149055941,0.6796928581488088 l0.0460850447769859,1.3122163801950266 -0.6087400975328968,3.7969428137865866 l-1.0199140482479134,4.4654192490715925 -0.4758842417819181,1.0729616952116878 l-0.604383367946186,0.3398620712757421 -0.6389568209935866,-0.12583879460957903 l-0.6240791011154904,-1.2349638575008914 m-6.667326766579281,-20.179616830506212 l0.6066085383814971,0.8099322542191851 0.17827328771626424,0.8925297306177016 l-0.046403759023749096,26.77613925335904 m21.511676067288434,-28.65372547709627 l0.5482027722572684,0.8271519646890404 0.3115066335082998,1.3522532041003987 l0.018682432079332397,13.998015830000709 m11.720231204687895,-21.637981716424218 l0.7068564401644593,0.9240358943082841 0.29149512775780545,1.4437561313365743 l-0.13546985396547398,29.750775771384017 -0.43660445137787623,0.6163740002358465 l-0.62783417264236,0.20796103737215668 -0.7433500110754604,-0.12887568872421928 l-1.6010079513692304,-0.9027803133936293 -1.7345756297713026,-1.369936835356304 " fill="none" stroke="black" stroke-width="1" /></svg>