<?xml version="1.0" encoding="utf-8" ?>
<svg baseProfile="full" height="111.00635168714425" version="1.1" width="101.94823979578526" xmlns="http://www.w3.org/2000/svg" xmlns:ev="http://www.w3.org/2001/xml-events" xmlns:xlink="http://www.w3.org/1999/xlink"><defs /><rect fill="white" height="111.00635168714425" width="101.94823979578526" x="0" y="0" /><path d="M25,25 m0.0,0.0 m23.868051126262344,1.5159589545784615 l0.02217789141208115,0.418155613208565 -0.4959733016029035,1.41165070595128 l-1.8741739386314515,4.2017855220703275 -3.4477230892299864,5.819334819855021 l-4.197894750329439,5.211736536043136 -4.815520955854443,4.447919103591732 m11.058749495585708,-8.985334496504539 l2.179095659274184,0.44542528837657197 2.2120167213436166,-0.09282764454821517 l21.457593064741918,-3.6312764585896438 3.548945393351425,-0.5607920329321769 l1.577851153257687,0.4923200683922338 0.8550453262045016,2.860329858174047 l-1.7043605539048379,19.017165012724544 -1.8306279371140677,8.81996082165212 l-2.4742920789529985,7.709770110552265 -2.441216576355088,5.351581021079051 l-1.088396127785871,2.0123270396128814 -1.0060206000169076,2.1296017941827836 l-1.960905210467824,2.2994142850989516 -0.49338703482991175,0.11214576457484994 l-0.9531870304763046,-0.18407592715135632 -2.163555344214321,-0.702843600789503 m-12.943312691473269,-28.640074329253054 l2.6938462732868826,2.2221872637949702 2.881532918572279,3.1443281787767408 l2.465250512576111,3.4119727894951035 1.2641558556457277,2.359817322424706 " fill="none" stroke="black" stroke-width="1" /></svg>