<?xml version="1.0" encoding="utf-8" ?>
<svg baseProfile="full" height="109.49251368641853" version="1.1" width="108.31850750138983" xmlns="http://www.w3.org/2000/svg" xmlns:ev="http://www.w3.org/2001/xml-events" xmlns:xlink="http://www.w3.org/1999/xlink"><defs /><rect fill="white" height="109.49251368641853" width="108.31850750138983" x="0" y="0" /><path d="M25,25.000000683245105 m0.0,0.0 m15.69587230682373,-6.832451049376687e-07 l0.44537436217069626,0.2610514499247074 4.040804505348206,3.4592369198799133 l2.4139848351478577,3.2435250282287598 m-19.698312282562256,5.613740086555481 l3.028336465358734,0.38565363734960556 17.54886746406555,-2.759917378425598 l9.020488262176514,-1.1291304230690002 2.465079128742218,-0.16289560124278069 l1.8655499815940857,0.5163918435573578 m-19.542065858840942,3.3202537894248962 l0.08128431625664234,1.782543808221817 -0.4669978842139244,1.1603449285030365 l-4.055452942848206,6.431945562362671 -2.2805818915367126,2.746184766292572 l-0.3723950684070587,1.2566044926643372 0.3723078593611717,1.0149095207452774 l5.312754511833191,2.0184841752052307 3.016129434108734,1.7100004851818085 m8.52105438709259,-14.999734163284302 l0.05320863798260689,2.0148219168186188 -0.6132180988788605,1.5534044802188873 l-2.9446324706077576,5.460282564163208 -3.5103312134742737,5.233585238456726 l-3.4590625762939453,4.189378917217255 -3.174469470977783,3.2414326071739197 l-3.582525849342346,3.143778145313263 -4.033131897449493,3.0475184321403503 m22.25407123565674,-12.455136775970459 l0.0643037585541606,2.034004181623459 -1.2932248413562775,2.48635396361351 l-3.821430802345276,5.596301555633545 -3.821779489517212,4.5876699686050415 l-4.389570951461792,4.397243559360504 -3.9131563901901245,3.303512930870056 l-4.264712333679199,3.0503085255622864 -4.610688388347626,2.738860547542572 m19.843398332595825,-14.955092668533325 l3.452436327934265,2.202981412410736 3.6142635345458984,3.1127378344535828 l3.02868515253067,3.3237415552139282 1.6969217360019684,2.8382590413093567 m9.101401567459106,-44.88759994506836 l0.8668582886457443,1.227656826376915 0.39022572338581085,2.3583567142486572 l-0.02141642151400447,24.03452157974243 m12.689508199691772,-36.53953313827515 l1.0581564158201218,1.8400901556015015 0.2463378943502903,4.137064218521118 l-0.411173515021801,48.82761001586914 -0.48373863101005554,1.242305040359497 l-0.7132267951965332,0.45827869325876236 -0.8670326322317123,-0.14744088985025883 l-1.8903124332427979,-1.3985523581504822 -2.0894579589366913,-2.180486023426056 " fill="none" stroke="black" stroke-width="1" /></svg>