<?xml version="1.0" encoding="utf-8" ?>
<svg baseProfile="full" height="92.40886044797456" version="1.1" width="100.3203674549753" xmlns="http://www.w3.org/2000/svg" xmlns:ev="http://www.w3.org/2001/xml-events" xmlns:xlink="http://www.w3.org/1999/xlink"><defs /><rect fill="white" height="92.40886044797456" width="100.3203674549753" x="0" y="0" /><path d="M25,25 m0.0,0.0 m9.737958865413754,22.742662317893497 l0.3964462476254358,0.09801931310013803 1.2323008130471242,0.05480055329702282 l1.9547514661659589,-0.4541924033887122 8.821521461782606,-3.4123868718424415 l1.6727382707177758,-0.22679923154274448 m-8.1781941406769,-11.494217912833431 l0.688384116915447,1.012266037992891 0.22992250318049393,0.9428226628133658 l0.1468989713840247,28.391548147691292 0.32504119990003977,0.8686984247171288 l0.3262132793357572,0.2016601303372124 0.8148354785903387,-0.0951781094042884 l9.71630066096318,-7.5186537495400625 m1.500183936075135,-16.61103582906351 l1.154927477733801,0.2567858648891367 1.5609079961040946,-0.012507665252371094 l12.803976978277866,-2.875724139673789 5.415251872439353,0.17345840048092825 l-0.06717376138019426,1.509386415819467 -0.60635486178874,2.658237713240557 l-1.9930715716074525,8.483911311900913 -2.233942338986458,7.496696644700354 l-2.290678892925043,6.279787471616993 -1.4543914926516157,2.37270747546014 l-0.605240144119871,0.694648737008178 -1.163310608418317,0.713857505987008 l-0.4713303581289476,-0.06665276658731205 -0.7905136671209901,-0.6008646598182735 l-1.6880467275068103,-2.2182812264018232 m-1.5461028882390149,-24.505694521591632 l-0.015739635828701273,2.374500506893742 -0.6892379305583225,3.9062507106340543 l-1.194419362021352,4.34791755973314 -1.4853165343943437,3.9994200633976242 l-1.604567385300082,3.4363204528347366 -1.934347902693129,3.312693249322754 l-2.2830113943151984,3.115069138453156 -2.7083531619667043,3.056922724699521 " fill="none" stroke="black" stroke-width="1" /></svg>