<?xml version="1.0" encoding="utf-8" ?>
<svg baseProfile="full" height="112.6490903875114" version="1.1" width="101.88462545758745" xmlns="http://www.w3.org/2000/svg" xmlns:ev="http://www.w3.org/2001/xml-events" xmlns:xlink="http://www.w3.org/1999/xlink"><defs /><rect fill="white" height="112.6490903875114" width="101.88462545758745" x="0" y="0" /><path d="M25,34.43245257316292 m0.0,0.0 m7.4802705784090655,20.459975391612186 l0.5133784715317907,0.16321065660436418 2.457213348364646,0.029905067266095563 l9.85368372195254,-2.543940887069971 2.643740817144118,-0.012812771834483547 m-8.084931250428102,-14.409215302972548 l0.633912575345942,1.1635602803897704 0.24040528607542097,1.4071301061392922 l0.048058236205490934,32.5016667857244 m-8.426435852970103,6.171806105370064 l1.3684838687418173,0.381981547101252 1.101628584608474,-0.5055927586124516 l12.355304508051592,-10.098402180629696 m3.3607086652181337,-25.914870285135105 l2.7375666091573483,0.35555172263562784 2.3479902108989505,-0.1682099823299835 l19.264575304335946,-2.780213340166973 0.9935352710981363,0.4189558268251242 l0.774360808775278,1.1896895557651894 0.22117569507096635,1.62295500104121 l-0.3740485686407989,3.2627285239877977 -1.8159726963162228,9.806586599685785 l-5.676587657438348,10.535979718321364 -2.9981538552799485,0.3355126378525947 l-1.9649051180494526,-1.6114364502951541 m-1.0960586891473911,-41.19495414043868 l0.35461331955088177,1.5859216680350334 -0.06902010993335927,1.3927673012134327 l-1.314804047397543,7.788626528059274 -1.9768327853436953,15.98011170901371 l-1.3701777114705727,7.362727071649251 -1.814629511326891,6.878579918396667 l-2.3473389171993144,9.86149278879405 -2.3660019742758718,7.207822506542803 l-2.115778110369645,4.591040895807172 " fill="none" stroke="black" stroke-width="1" /></svg>