<?xml version="1.0" encoding="utf-8" ?>
<svg baseProfile="full" height="140.29572298360557" version="1.1" width="117.43070112829177" xmlns="http://www.w3.org/2000/svg" xmlns:ev="http://www.w3.org/2001/xml-events" xmlns:xlink="http://www.w3.org/1999/xlink"><defs /><rect fill="white" height="140.29572298360557" width="117.43070112829177" x="0" y="0" /><path d="M25,25 m0.0,0.0 m14.334567464503262,3.3956634014445757 l0.4446017359004162,0.4593612356257948 0.6476183581147469,1.4428674971632176 l0.8807395287599197,14.340296867689064 1.2309285888651251,7.793421857992767 l1.5611724461017635,8.965934534323043 3.6210443878676655,8.082255673601036 l5.812934428215327,6.522196636519618 m7.765915733897713,-47.21890933617023 l0.6617201581349305,2.0114465531921835 -0.033089005144303824,1.9431272072686303 l-1.346307144665382,11.205562824991912 -1.7125738858249477,10.49995514984738 l-2.301846527171827,9.476071778858287 -2.621912691407601,7.680898426493582 l-2.5004135417139315,5.52513276157079 -3.2044179838203357,6.111883730529799 l-3.3059833143122375,4.337199217268115 -2.8366229545107826,2.1313634329159408 l-3.0188995980805053,0.5217362725027725 -4.716031379930002,-0.6866459309358189 l-1.7433440179915154,-4.785888693294102 -0.40365617540168514,-8.357849908749232 l0.8986404341886728,-2.2927076009041993 2.5174666748934516,-2.7987736197186646 l5.880611224073188,-2.4453209718499167 2.8090014989679712,-1.2010752896461445 l3.3774638720619126,-1.5443075211987722 3.565236111838409,-1.7373858069387396 l3.622155494646542,-1.6196020622093992 5.335435672477305,-1.3885836098620163 l5.320900655403113,-0.369185669073524 3.582101570699284,0.4478707273577702 l6.188849717462504,0.669202452331646 3.5735020835083624,0.5275879131851569 l3.3231277942399355,1.4440997230940318 3.2149314800678397,2.143421245039193 l2.4091591206191896,2.5281420600457682 1.8846444378363172,2.6575093127083047 l1.4417520289389745,2.8152769538538363 0.9306002937481722,3.011217254749164 l0.33897635223481537,3.2482780484681277 -0.3350209823555337,3.4429555469110853 l-0.974602656136886,3.3790724154514242 -1.5121846979419376,3.516722126513837 l-3.1170847214674544,6.831370863120012 -3.570411531915903,7.941080911492351 l-3.869943789816082,5.080867425081272 -4.135776680581518,3.0447090631819127 l-5.268489449129364,1.5661999017729513 " fill="none" stroke="black" stroke-width="1" /></svg>