<?xml version="1.0" encoding="utf-8" ?>
<svg baseProfile="full" height="104.52637235940304" version="1.1" width="118.58056983985068" xmlns="http://www.w3.org/2000/svg" xmlns:ev="http://www.w3.org/2001/xml-events" xmlns:xlink="http://www.w3.org/1999/xlink"><defs /><rect fill="white" height="104.52637235940304" width="118.58056983985068" x="0" y="0" /><path d="M25,25 m0.0,0.0 m9.080389299469935,22.54259909629501 l0.564841986088792,0.001761210787764771 3.271642408186073,0.011891243167018638 l10.911320963529096,-1.630766154563919 2.910292366268917,-0.05038905657803752 m-8.139081304022676,-11.34145260828011 l0.6002053143374677,1.1011028839082346 0.15239787876670094,1.2663214002773286 l-0.029911413230679206,42.625304344389754 m-0.39948495132736467,-31.760336052771443 l-0.6542128738668975,1.6772092132392198 -1.2420477382761614,2.307482226385061 l-3.115237159698682,5.374557485176168 -3.5012234287592263,4.729582326476067 l-4.25127211690038,5.142845635260899 m14.284983411780047,-14.418579266302633 l2.4012352610296337,2.4202538790871055 2.2239781741454947,3.8228499690598863 m3.1802928832790154,-22.6886538803799 l2.798977003009627,0.1338952065818779 18.657981102137814,-2.3274951388718463 l3.420883971283234,0.10724867723120694 0.7308541392343765,0.34274868185217244 m-24.49243000782604,2.688631789830534 l-0.3630229735827987,1.4708220830608154 -1.6426632144384623,6.4233887423835245 l-2.0386549446463205,6.4004984598529795 -2.2843845787931514,5.404131600683356 m6.108487485856096,-10.514603403091757 l1.6698229717570783,-0.0477935463413437 3.116827299499653,-1.8348793099385758 l1.5718215392916293,-0.2402219865563646 0.458662547381237,0.19909559855860184 l0.3096723720780519,0.523750980140827 0.06373442577452498,3.2748128689467784 l-1.8519146541134395,8.006090893949159 -2.575021085164489,6.080438861623351 l-3.4135475721959665,5.388858874248624 -1.9776797895006522,2.264487608919746 l-2.323829799544836,2.055397909360448 m3.9769601889549024,-16.994894895749717 l2.2383201244708006,2.0984751859685526 1.2000684667469563,2.3418620547096336 m9.87580148720783,-10.38650670525198 l1.4174916952019525,1.4681159358084772 1.5230447342694677,2.247689958682582 l1.3460201009744235,2.751730289015433 m11.441252124339432,-19.669426033033528 l0.17962982879932735,1.2486118019945387 -0.1728905047463806,1.2283968182669471 l-1.8914962012613494,5.394526353548105 -2.3614166105401573,4.797222662419476 l-2.7399539345296753,4.39936087967925 m5.457043221495188,-16.011451136883473 l3.5622450405940445,5.771062068984738 4.46656273215251,6.412330447620335 l2.6749681636013714,3.3603870080155995 2.193233983823778,2.0026459913367156 " fill="none" stroke="black" stroke-width="1" /></svg>