<?xml version="1.0" encoding="utf-8" ?>
<svg baseProfile="full" height="101.91100896477825" version="1.1" width="99.13096499650557" xmlns="http://www.w3.org/2000/svg" xmlns:ev="http://www.w3.org/2001/xml-events" xmlns:xlink="http://www.w3.org/1999/xlink"><defs /><rect fill="white" height="101.91100896477825" width="99.13096499650557" x="0" y="0" /><path d="M28.598027143275164,25 m0.0,0.0 m5.850717602282913,4.075653211958647 l0.10316796388595086,0.3931696706678413 0.2328485642346939,1.2701815180038878 l-0.14676968414823327,1.9258115802224147 -1.8897161043296464,13.21993720332219 l-0.8834128199632004,4.449478288099326 -1.1369557049419534,4.443148498123787 l-1.3143862749096928,4.021632219240128 -1.87449614231381,3.975403767662769 l-1.9681605955110415,3.3289589182662964 m-0.5708639475611458,-37.766211974630956 l1.5849911833459287,0.29580689999913895 2.148373407425804,-0.1652853625820535 l17.422243599156413,-2.5086878384400566 1.13503275453821,-0.061236035442909315 l1.0745612525135444,0.24897056382489477 0.49666108268398207,0.3419054790269011 l0.4242915160629041,0.9672020917625548 -0.3302539463467007,17.5516538855219 l-0.04641813062971661,6.991378872309163 0.2440659747256583,4.451184076969614 l0.5685303917679416,3.5233159602822077 0.862997148577577,3.267786563498547 l1.1509849528944487,2.93058823973135 1.503078457730328,2.584251164213596 l2.6512430665943048,2.16919785877465 3.1449067257086725,1.1813312419102895 l10.141178147123506,0.6822052977205837 1.57861850504724,-0.3478715250532423 l0.9270807555739926,-0.7858114598628381 0.5363736295338862,-1.0967052084023217 l0.26534824819723074,-2.1006102364196613 -0.012939780228717062,-3.4832376779762377 m-23.597860021776594,-34.15918771735479 l-0.2142967531897505,0.6532344681443266 -0.6456278935997829,1.4639270911217428 l-2.282752609289457,2.3637880159334443 -3.129016082487413,2.1245870645495613 l-4.499457490681766,1.740893252833976 m-0.594686357152531,5.535299325014405 l0.528645832505211,1.0803088025836611 1.3236245213013826,12.47233332551621 m-1.1025228487221124,-13.056212608644515 l7.728213115553104,-1.6940101773249863 3.694740042994232,-0.2069936505490313 l0.39628754611431843,1.461354794952257 -1.3649640416426305,10.25565929268348 m-8.482916589884958,1.5243565732626212 l9.158816583767,-1.3626201007613827 m6.123372179382591,-19.263175427923226 l1.9871096939003847,0.2502280024402299 13.68240080325716,-1.6763293181796053 l1.3795358172496492,-0.08209745135595418 1.1459185291298835,0.2784596161994184 m-10.5767743207674,-6.702905760501725 l0.5652843134756045,1.962411217664103 -0.05116713921939292,12.400379937162981 m-7.908995064023605,1.3182390316566197 l0.8537329040512379,0.677439982524301 0.6288521980619433,1.3230140138328634 l0.18626783311276573,19.758373058543565 m0.19771611868721414,-21.348495330444404 l11.774741273985162,-1.8435598153686374 0.5022536421944156,0.06491326155972953 l0.832071673735049,0.6568226141475599 0.31024238975672846,0.9897928843892673 l-0.27171144993997653,20.587782165701835 m-13.243110908811053,-13.425506599568399 l12.747535956950744,-1.3839017121229258 m-12.657620659747456,8.060183383820402 l12.619548447523204,-1.2457166167854443 m-12.349257430274953,8.28237346479551 l12.5024221992385,-1.1529817854625468 m-9.163470847141669,4.121605099623838 l-0.04503871810567187,1.278103628539002 -0.7028467507169373,1.2586959277242067 l-2.946764783296008,3.281940431278094 -3.623787210170946,3.313707556624206 m13.791369125359774,-8.587142374198242 l3.776282960361269,4.055857226748889 1.7802113282251004,2.5022983415101656 l0.89746499527757,1.7282443899407913 " fill="none" stroke="black" stroke-width="1" /></svg>