<?xml version="1.0" encoding="utf-8" ?>
<svg baseProfile="full" height="108.98402667643339" version="1.1" width="106.63465919794548" xmlns="http://www.w3.org/2000/svg" xmlns:ev="http://www.w3.org/2001/xml-events" xmlns:xlink="http://www.w3.org/1999/xlink"><defs /><rect fill="white" height="108.98402667643339" width="106.63465919794548" x="0" y="0" /><path d="M25,25 m0.0,0.0 m29.454712151844106,13.530896619751074 l0.36661687171310603,0.35933177688666557 0.5876231947677393,1.3943817266567595 l0.02307282864090413,4.726677575426702 m-18.453277324945088,1.5403135447486334 l4.0147063783480235,0.16916166985643785 29.003742130190425,-2.293819949845944 l3.2386179784157685,-0.0763359873427297 2.438540257095859,0.2581533776729648 m-32.784231681819286,2.47440523339028 l0.5660179250901942,0.7455368688904224 0.22127544967730162,0.8115184018655786 l-0.263499838341953,5.966507930576942 -0.7800716296734846,5.638594059953911 l-1.2218770751875725,4.867047284438598 -1.447944306689397,3.656259133104559 l-1.894794719449956,2.773425322240868 -2.6194939096014447,2.5815480699153315 l-2.7498122328408674,1.8751706478181343 m16.901173418662953,-20.55747646587177 l3.327397931096873,0.19933040426761087 18.71073956233623,-1.9490313395518855 l3.1813560245198227,-0.21763342099974012 2.374561326425368,0.2207840084911706 m-15.003813624671176,-5.579375965932731 l0.5999919802788469,0.8761648705699802 0.18082498603277286,1.0315336262586887 l-0.04894369917496705,11.852258077616119 m-16.356484214783677,1.2515633781716247 l4.143293150040795,0.16399410138184042 25.431549566256585,-1.579883501982306 l4.302653967433129,0.20263601015878327 m-34.51311184814672,9.205001768973187 l3.520727842643765,0.20442868335691494 25.281697545173987,-1.844239263628397 l4.337026628401463,-0.0718553726894166 2.564096208185078,0.2022685432274388 m-18.99332946010687,-5.693247161215019 l0.7736642033969073,0.8214413277947469 0.2976531701908503,0.9293871747255361 l-0.03456143723463046,18.317203887305826 " fill="none" stroke="black" stroke-width="1" /></svg>