<?xml version="1.0" encoding="utf-8" ?>
<svg baseProfile="full" height="91.05369771121542" version="1.1" width="99.17070146178162" xmlns="http://www.w3.org/2000/svg" xmlns:ev="http://www.w3.org/2001/xml-events" xmlns:xlink="http://www.w3.org/1999/xlink"><defs /><rect fill="white" height="91.05369771121542" width="99.17070146178162" x="0" y="0" /><path d="M25,25 m0.0,0.0 m14.085092496555244,11.804909604397356 l0.4582820218792969,0.12862388137259131 2.812596307409545,0.1013396855027144 l22.984040354205447,-1.8084765153450457 3.7334353966079283,-0.13130269041187162 l2.272057600182721,0.2251825816056805 m-24.9709412503032,-3.793069556155292 l0.8639185794447704,1.231864235797117 1.1944239898523181,8.098700803022231 m13.592093182305423,-10.485221060821912 l0.23583567166011515,0.8369097764445257 -0.07146581517742988,0.8511477741440783 l-2.2723920468042436,7.521700088897306 m-14.930541778720233,4.540217673091826 l2.377395914224988,0.6792514403347257 14.000285658843495,0.9419704815560992 l0.7965517082352223,0.0517584573391428 m-8.307868372692782,7.392533823934276 l0.5382220968075186,0.5710314780060144 0.46279066891438,0.19096493009237217 l0.21329092271321504,5.895456659910081 -1.1343456044780005,3.1645890868825113 l-1.4365666151649021,1.8034736198017314 -1.7481585948736091,0.8390677259006754 l-2.0006559437851554,0.4010737259165043 -1.8895079568106072,-0.22849425441907187 m5.813622250545117,-13.56316314193879 l0.14448653809167228,0.644091341253476 -0.19585726251120678,0.6533433415419322 l-1.8340910683774274,2.672699835172511 -3.483230931139659,2.7465430238634747 l-4.2298135760587305,2.476293805503717 m22.10966024276046,-13.284111566565828 l0.2617139335116188,0.7785956578912886 -0.13754931215479876,1.0384748759284428 l-1.012895660217608,2.250606760640651 -1.555772712071762,2.265070017668871 l-1.9921057986886206,2.1270891609471843 -2.129966690889783,1.8634727945615848 l-2.4315618742314853,1.8891583992359378 -2.7851880754057103,1.8509709941406551 m10.218185991915702,-11.033157925182746 l2.3783274348741172,3.8086601622707907 3.030157693263451,4.207644431033691 l2.5511625515735092,2.810510535236335 1.511178036692166,1.5988094303996483 l1.0823711592691316,1.0621916744831805 " fill="none" stroke="black" stroke-width="1" /></svg>