<?xml version="1.0" encoding="utf-8" ?>
<svg baseProfile="full" height="102.71347466560434" version="1.1" width="109.58659124519505" xmlns="http://www.w3.org/2000/svg" xmlns:ev="http://www.w3.org/2001/xml-events" xmlns:xlink="http://www.w3.org/1999/xlink"><defs /><rect fill="white" height="102.71347466560434" width="109.58659124519505" x="0" y="0" /><path d="M25,26.050161707812467 m0.0,0.0 m11.418785261826134,24.242063574468315 l0.45714982583523983,0.261820816542033 1.5620936348047738,0.466971952625633 l1.6517093682764528,-0.04201752882608004 4.276139534378969,-3.4720367961638496 l3.5223626435884605,-4.812026386106861 2.9934734317726184,-1.7374437476785598 l5.483242940269106,-1.4323302241126248 5.096859304070989,-0.3480926130819921 l5.1784275957996995,0.3664601282907111 4.959030820780104,0.8545218298026586 l3.5415188020427526,1.0156065918741612 2.615982714571078,1.2505477460621772 l2.1893656283927587,1.3610356138614548 1.6474513904752015,1.5579118975692652 l1.2611887296861781,1.6839857072789581 0.8848548249913215,1.962641688062671 l0.5031642160299453,2.7279671147241737 -0.09167028868502301,2.855312289323396 l-0.4652440862581509,2.5135377526934612 -1.0437357033729942,2.467493856040762 l-2.423143367605143,2.1514100491542187 -3.424328194849301,4.88344253571312 l-4.59610184753887,4.98143945967485 -5.4104186487407695,3.6112411193508542 l-5.911145211404848,2.291848530648973 m13.979645402687298,-49.8036112371326 l2.6593847324720836,2.8088273682344123 2.2227797472016415,3.427060403714753 m-0.8448159957627088,-9.145751200420914 l3.168266961011773,2.2403098533478483 2.5243170784483,2.77178001175199 " fill="none" stroke="black" stroke-width="1" /></svg>