<?xml version="1.0" encoding="utf-8" ?>
<svg baseProfile="full" height="108.42609954140138" version="1.1" width="96.45970597868777" xmlns="http://www.w3.org/2000/svg" xmlns:ev="http://www.w3.org/2001/xml-events" xmlns:xlink="http://www.w3.org/1999/xlink"><defs /><rect fill="white" height="108.42609954140138" width="96.45970597868777" x="0" y="0" /><path d="M25,25 m0.0,0.0 m13.34783309225551,5.067515974846226 l0.40978936455987475,0.2148045942833792 2.386413163907197,1.8847791811823835 l1.3876676883922923,2.235609574497694 m-13.680501460013414,4.732060298588589 l2.1751101568721483,0.08240764146084031 16.357116893814624,-2.06383214223685 l2.682185807161761,-0.15728641502849453 1.3772195256253472,0.21529250916152695 m-18.111982801102428,6.734733744686575 l0.4497576119328355,0.42843716557001743 0.5773640430369306,1.5533887937579707 l1.3484927892770249,5.778018258201523 m-1.2612304991157357,-7.262938101377854 l11.025073593155442,-1.9233132284028815 1.300528160474402,-0.19178148477412402 l0.6341633167193452,0.1438058246671133 0.40308832181618964,0.8500559049413655 l-1.4994249165739708,5.700319888316119 m-10.409994523727175,1.7295709094337366 l11.240252693198865,-1.5018948030573964 m-13.864334251082472,7.846114273642507 l1.9251371176668275,0.2184392614469792 10.525307890346795,-2.5112824841548447 l0.8440254277897559,-0.11850084762870662 0.624260641659332,0.23464059061598458 l0.17987914484844028,0.5452537678700168 -0.4121872805516853,0.7400420277969575 l-5.9803474718255165,6.570741102456614 m-0.8979460978144949,-0.29692686130904855 l1.795332183743001,2.544877091123817 1.3228846449541969,3.184720459554784 l0.6410903881300463,3.154200099300487 0.013405005116732534,3.277808384620963 l-0.8748389673090401,3.5019292097736443 -0.9909433639368826,1.6644896756586438 l-0.6528361563039536,0.4669988862253062 -0.6245611915652016,0.06557642848959808 l-0.5749351514724019,-0.21597208609415067 -1.8228671922056254,-1.497513493159664 m-8.570672189532141,-7.441728605113842 l0.8909635268987739,0.4037886646537786 1.1356131785951433,-0.16895042730544585 l17.529724667526,-7.9424977268430235 m8.169170640665683,-26.571098593922308 l2.18106971968623,0.11959432729400431 9.78180825407542,-2.4389221898666653 l0.7082104125735847,-0.05898367404953489 0.6005199708503178,0.26969384148020126 l0.3543880103588651,0.5323690206369981 -0.012042164369655304,1.3485112942829016 l-0.388686842706618,0.828620245186227 -6.318099509159132,10.905742555604082 m0.019600610466272827,-0.025724210993129822 l2.788687746180816,2.0079740160778856 2.041122848425462,2.72924481030267 l1.3190501554654193,3.0986052009729868 0.8174601693157613,4.399745462535936 l0.09736943151663993,1.9600485309729558 -0.306826872949036,2.804768867063261 l-0.46709544298419836,1.4597743117063169 -0.6495632983744807,1.1103801706823675 l-0.828662696744619,0.680335285369671 -0.9938729248239304,0.1541981023051725 l-1.1373198040417503,-0.45718538123322916 -1.3162216531818738,-1.2182466586076481 m-7.20919865580362,-29.03081459275653 l0.3307802219211918,1.032005292105435 0.1206166910054676,5.06699472484033 l-0.18648845401115932,39.24246730307222 " fill="none" stroke="black" stroke-width="1" /></svg>