<?xml version="1.0" encoding="utf-8" ?>
<svg baseProfile="full" height="109.5399613616247" version="1.1" width="97.91637006602066" xmlns="http://www.w3.org/2000/svg" xmlns:ev="http://www.w3.org/2001/xml-events" xmlns:xlink="http://www.w3.org/1999/xlink"><defs /><rect fill="white" height="109.5399613616247" width="97.91637006602066" x="0" y="0" /><path d="M26.74005079373723,25 m0.0,0.0 m20.136450414246248,12.543737280279474 l0.006592849876168277,0.37048261941225996 -0.4301673060335693,0.839814440095961 l-1.08409396532949,0.950454656107675 -4.575518945456389,2.7279623533835826 l-5.472803629044886,2.2773290817375345 -6.0780765579848115,1.8642975759925142 m-4.242433654010496,9.073661530785749 l2.2360448084375686,0.23386094949063804 2.2938388445199696,-0.11765539535656445 l20.82607866349795,-2.261264394230493 2.237853622505246,0.20435482142693936 m-11.957237285454797,-8.957268001670322 l0.7002021199489187,0.9799918317402223 0.22368040612998213,0.9703025161353241 l-0.05918643307202582,34.49336180422698 -0.2103093414431749,2.167071109393129 l-0.5402923705284882,1.0088352169188535 -0.7445383433506902,0.17063136575525484 l-0.8380965828348375,-0.43164294027602423 -2.21901488133852,-2.10251076298381 m4.2249359055917335,-26.42351813396477 l-3.1263210938117685,5.696439724138238 -3.7679849462366746,5.216850195559634 l-4.0645903952340845,4.43220968118835 -3.9990737130683387,3.3213728636935733 m17.46536992787788,-14.86746335110845 l2.850376884036878,1.1061348582497932 3.0277497553786317,1.661966203926829 m8.750156986325056,-11.571387462162168 l0.7723909680300352,0.9716023242931563 0.26896145162992485,1.050276618511297 l0.2706905090217972,15.446582145353062 m12.379397412563637,-28.203097224804452 l0.6886181881632445,1.0909012703890082 0.2266689987356068,2.6495813065114624 l-0.23249874538386872,38.54172205902131 -0.3196196390458138,0.9279720590548135 l-0.5311150666370713,0.3509159749426266 -0.6876501873693989,-0.09669045378302296 l-1.6084393425375687,-1.0344777305577426 -1.8659254199738677,-1.6172446370433036 " fill="none" stroke="black" stroke-width="1" /></svg>