<?xml version="1.0" encoding="utf-8" ?>
<svg baseProfile="full" height="109.11075841550482" version="1.1" width="91.9995089494865" xmlns="http://www.w3.org/2000/svg" xmlns:ev="http://www.w3.org/2001/xml-events" xmlns:xlink="http://www.w3.org/1999/xlink"><defs /><rect fill="white" height="109.11075841550482" width="91.9995089494865" x="0" y="0" /><path d="M25,25 m0.0,0.0 m6.773435522614567,18.18624083915025 l0.35879716824828606,0.11030463127379947 2.434304037739784,0.045940626874526345 l12.075722861283133,-2.066199605895804 1.8484768289611055,-0.07419362414498852 m-7.931685896895411,-13.043242508842662 l0.8619030001554496,1.134019527525621 0.47171112904639495,1.868746120721042 l-0.1846802112892707,45.7597726452204 -0.18716148659551327,2.403666544024722 l-0.44649587083973025,1.2373394310194303 -0.6300533436133091,0.2748147255165508 l-0.7429798770981406,-0.42639226145514186 -1.846699391740782,-2.3930933607379945 m3.805203537529454,-34.01768553548924 l-2.86929758252235,9.33641236020757 -1.9978094984943984,7.458415640159957 l-2.1859160640836963,7.753882747147254 -1.9158739188475733,4.823998768578659 m9.732404439441828,-20.845108194663794 l1.9571025053059206,1.079560370152044 1.6450485388033997,0.1380409339473229 l11.496796229266812,-0.572739972999095 9.477256293110534,-0.7297076622722274 m-11.400530606849568,-21.122769928804583 l0.8260507411694799,0.8549331857337389 0.45554168648354415,1.759681638844196 l-0.13257374708297986,50.17612033471327 m0.11828871120650776,-40.891701415152774 l-2.1826282720163475,2.1782434930100814 -2.9637278255503072,3.2714786498514328 l-2.902075272529051,3.016982064214523 -3.769622201004959,3.711734565007968 m12.203768379431196,-13.512037927669889 l1.8113517876094722,2.627613370315954 1.9657844572654655,3.4953981645234466 l1.882795376868154,3.7189765340656624 1.2751371921763794,3.2131355927410015 m-19.27414588046958,13.459637312970633 l1.0774765618555353,0.24848460226295174 2.039732467761186,-0.062434425442876355 l14.400578103461138,-2.2572687673425706 2.6673417139007114,-0.12549203628523098 l1.7219083077229276,0.3064875172069724 " fill="none" stroke="black" stroke-width="1" /></svg>