<?xml version="1.0" encoding="utf-8" ?>
<svg baseProfile="full" height="103.11633566955882" version="1.1" width="107.01809796258388" xmlns="http://www.w3.org/2000/svg" xmlns:ev="http://www.w3.org/2001/xml-events" xmlns:xlink="http://www.w3.org/1999/xlink"><defs /><rect fill="white" height="103.11633566955882" width="107.01809796258388" x="0" y="0" /><path d="M25,25 m0.0,0.0 m28.799182125253115,3.5539053224938177 l0.3842436531903558,0.33895923440204634 0.5966974157101695,1.416906705898228 l-0.05981923976615719,3.538610976854811 m-19.352226936847458,1.8175785828843642 l3.9835771410041008,0.17530054215566238 16.682952282509653,-1.3378934101816804 l13.100291451525834,-0.7240072620361141 3.53749003682133,-0.05351487650965605 l2.453475207110748,0.3731443710034375 m-32.228266518827034,6.345444207732638 l0.6426200531579996,0.9501237929179053 2.088780203660062,2.5182879485340313 l1.6750439192019035,2.9696285598678207 m18.26734781788632,-7.761692612773585 l0.03684552184599954,0.903851138461193 -0.564915396168638,1.0814702622196748 l-3.5949794967045894,5.426645094966925 m-31.70651607197262,3.179525499947871 l4.506063053097232,0.17814466894920172 21.750702143711102,-1.5513552321451947 l13.896774660115794,-0.8982898855876777 7.847779360157761,-0.31968733015365447 l4.2749555769108945,0.26500259663893816 m-42.141077190774226,7.67748985970623 l0.6619186115540378,0.7701170744830782 0.34111523101035907,0.965346178205948 l2.504694601727825,12.007858993945014 m-1.9484711924982294,-12.991030641213133 l22.778911959932334,-1.9566798474574378 2.7604430506109994,-0.19429652307987452 l1.5551799574856553,0.11736186549467502 1.06688996816862,0.24619663532739272 l0.8852065715336334,0.755259757663413 0.11418882171737169,1.2337569403529383 l-1.540781814242878,6.61003842244782 -1.4889909946422326,4.5561726112603305 m-24.635459224729512,-5.561710587220077 l26.071737667375956,-1.567828866143211 m-24.943713114474328,7.819549624100682 l22.816497493828336,-1.4304555595540895 m-35.916545475891056,-10.432077261624148 l0.5175209116599273,0.4272339034293261 0.375392510814883,1.0225332213855867 l-0.2830713912131075,17.59423106535272 0.4719203622496083,1.873872632144064 l1.3978027278497254,0.7555749699261222 35.04501091806961,0.12975482576017083 l7.010243047965643,0.3019774783242679 " fill="none" stroke="black" stroke-width="1" /></svg>