<?xml version="1.0" encoding="utf-8" ?>
<svg baseProfile="full" height="101.3948683260154" version="1.1" width="94.97156051255553" xmlns="http://www.w3.org/2000/svg" xmlns:ev="http://www.w3.org/2001/xml-events" xmlns:xlink="http://www.w3.org/1999/xlink"><defs /><rect fill="white" height="101.3948683260154" width="94.97156051255553" x="0" y="0" /><path d="M25,25 m0.0,0.0 m11.349921467542883,2.669911062916035 l0.5089234527548336,0.15571941507771156 3.128832692994089,0.29647881898662803 l25.19929037333182,-2.54191335233075 2.9808442486748348,-0.045727373280457034 l1.2909720239517204,0.5980750604025579 0.5127762533053501,1.0794348429534204 l-0.10971477608392413,6.22030516772704 -0.9809908478677066,7.493429201968832 l-1.3178196103919608,6.488718637247369 -1.964567877872025,5.857497184314098 l-1.4107964749066855,3.4273815337211566 -1.338068483243377,3.616165690615011 l-1.28521424377146,3.8018898559277097 -2.1289203336147007,4.145178387334934 l-1.2752964116722731,1.4253277967021145 -0.6597280773142729,0.5258546823094156 l-1.186194114265239,0.4682164024820006 -1.1199297055439283,-0.19670978471216746 l-1.0572854626880674,-0.8313654225322287 -1.8585479075688331,-2.366019799853861 m-1.07065197845227,-35.733974181730666 l-0.0442171565978711,2.644846791551639 -1.9831165973917222,8.016579426328649 l-2.222559570746504,6.255635385505649 -2.3314383066657456,4.966860366514565 l-2.9809662799803527,4.941381833317164 -3.607525338754947,4.655761365850835 l-4.346864948868687,4.29612088797053 -3.7842407113295167,2.9398422139370277 m2.4151931795567068,-29.234143474891162 l4.361384208129057,0.33479271786056686 21.884411746511216,-3.205199874277717 l4.48602486042269,1.0998012277887954 -2.0125897976002984,15.375276459156733 l-0.8351784487278232,3.9447519826962307 -1.2730698371375821,3.824999336810496 l-1.8680607636021473,2.821987911958602 -5.400579418974301,0.5950547940813594 l-2.3527577377845224,-1.1250962208834625 m-0.13526974921921803,-24.114257918306325 l0.32716798319562684,2.2112022787468413 -1.0299287248617073,4.03025498860591 l-1.8763468646344352,6.159754470001415 -2.3054505636923484,5.820285180582305 l-2.342238828939304,4.923476450218203 -2.7416738315488764,4.822529179809668 l-3.229012478240636,4.660363385854531 -2.7078582897564227,3.1781333529804403 " fill="none" stroke="black" stroke-width="1" /></svg>