<?xml version="1.0" encoding="utf-8" ?>
<svg baseProfile="full" height="122.74533206366334" version="1.1" width="115.9008158933181" xmlns="http://www.w3.org/2000/svg" xmlns:ev="http://www.w3.org/2001/xml-events" xmlns:xlink="http://www.w3.org/1999/xlink"><defs /><rect fill="white" height="122.74533206366334" width="115.9008158933181" x="0" y="0" /><path d="M25,25 m0.0,0.0 m21.47627737467075,5.313997370504318 l0.04705259867605554,0.5341437776082899 -0.5484732316206818,1.9467775854497262 l-2.761523669332116,4.010893589111799 -3.5510300962545593,3.6192752433029827 l-4.206103288899567,3.362062051181485 m11.851458990452096,-9.581091311786105 l2.7474842301121147,0.12378351796027388 23.284201690362618,-1.6806821640096685 l1.9827453672776167,0.16245042171448015 m-30.995414466844025,8.845527850667505 l2.208231425280999,0.175483782609871 20.906716128596784,-1.4948939790542763 l3.2529322342004896,-0.11248079548648375 1.859979116761535,0.21130788883912655 m-32.377749453432756,7.73847870455443 l0.8293548986971261,0.2592378053035259 1.5172271181538062,0.25559679286978726 l30.350134980212843,-1.8161320820724043 m0.6065043614717802,7.231083002754608 l-0.11325976007616062,1.0939029257315878 -0.48006050433882774,0.8632397953380156 l-5.571817263552347,5.599276463907579 -6.615710206341916,5.173018367919404 l-1.2310163386675392,2.406690593322898 0.11228569312847195,4.271741885216482 l3.692191385919457,5.810452416700641 1.7679802531006656,2.811406559347677 l1.7849487936358683,2.65866111773691 m15.609760068830811,-29.215301205956443 l-0.07330955122206276,1.3723363371776776 -0.5099107976052015,1.5289798376391166 l-2.3499887409320097,5.046476282113881 -2.876178564276252,4.684277717710519 l-2.862415654379036,7.177954434139975 -2.7053380796561615,6.00696181446529 l-2.1369941067424727,3.925526006127356 -2.429575350036798,3.5435075585861244 l-2.892824193795088,3.35046148014692 -3.359241094418091,2.9710759714780774 m4.31416437568624,-24.961107130130966 l3.6652143937041046,7.792971612003592 4.261692066864284,7.608676593835894 l4.157389297709051,5.4623014535393395 3.9177597012487286,3.269548896124284 l3.3880879003828706,1.7594380543442651 3.6982174437195594,1.077539375004664 l3.258758416885046,0.550497798069329 " fill="none" stroke="black" stroke-width="1" /></svg>