<?xml version="1.0" encoding="utf-8" ?>
<svg baseProfile="full" height="90.91871871214884" version="1.1" width="109.60649421959596" xmlns="http://www.w3.org/2000/svg" xmlns:ev="http://www.w3.org/2001/xml-events" xmlns:xlink="http://www.w3.org/1999/xlink"><defs /><rect fill="white" height="90.91871871214884" width="109.60649421959596" x="0" y="0" /><path d="M25,25 m0.0,0.0 m31.407290647199286,4.8569317933253675 l0.26990707453394613,0.4013862672323694 0.2772220790701922,1.8411792876171764 l-0.12024407125925253,6.19211538000074 -0.5172287453689673,5.056905002943425 l-1.8158510879308438,7.790925902604353 -1.6940884282395055,4.548089725299447 l-1.8179055608734462,3.4597581720721142 -2.162001819297914,3.3140420704357942 l-2.7142507500207005,3.4573851106180546 m-4.57650039267611,-20.09805251177275 l1.4458050468812955,0.41659220099581035 1.4702400355673362,-0.1074223672967012 l23.43746328696841,-3.7947401553313207 1.343514586963577,0.06447204602026729 l0.4859667017156306,0.28045189178193386 0.2452482152823777,0.45055639192366603 l3.8356946931647484e-05,16.2683257200816 2.6309701690254674,1.6450486483401028 l3.6849582880446388,0.2601705787734986 3.3762409042135335,-0.1732583057355408 l2.0273981395695553,-0.38398140374704487 1.471899690756128,-0.5895137047563156 l0.8632145097813405,-0.8604704826510403 0.4238528606288964,-1.2260279892794341 l0.16333448211415685,-2.2203743320417257 " fill="none" stroke="black" stroke-width="1" /></svg>