<?xml version="1.0" encoding="utf-8" ?>
<svg baseProfile="full" height="101.01865835872474" version="1.1" width="106.38595762726814" xmlns="http://www.w3.org/2000/svg" xmlns:ev="http://www.w3.org/2001/xml-events" xmlns:xlink="http://www.w3.org/1999/xlink"><defs /><rect fill="white" height="101.01865835872474" width="106.38595762726814" x="0" y="0" /><path d="M25,25 m0.0,0.0 m19.96032043997996,1.559574441496804 l0.046920578064914856,0.5874805910116399 -0.5882418217179721,1.6180765450615548 l-2.618127527045196,2.9417530399067875 -4.126876759382453,3.4683345430835653 l-4.589757738218221,3.153447327906289 m31.314813046782923,-12.341240073498822 l3.3287509897124705,1.738836745968631 3.2830479230611953,2.196927924238442 l2.667461041470015,2.28613849643014 1.1687628322449584,1.7023888538390508 m-35.44585573208831,2.9826109701114922 l2.6313533146353367,0.23410038479615003 20.603612577313054,-1.9625160974163343 l4.065453964853159,-0.18513010062497448 1.6130797501408836,0.2314457181388418 m-38.41651874271664,12.102035461788384 l2.08688781624413,0.313920556831556 1.9627250960922138,-0.011795565216214752 l39.650943120692794,-2.527739028598524 3.1610226280620557,-0.11970081405637276 l2.6164625941690027,0.31420364343700946 m-26.365508798897093,-19.517136234437892 l0.4811410271592295,1.4261633908017393 -0.1766152003506214,1.319991441893005 l-2.5003676777940367,6.452062890189758 -3.132460522959747,6.219129506883447 l-4.317447373362769,6.577054306731441 -4.266954963145384,5.048485997170885 l-3.8477318993364937,3.6671903103677166 -4.388700451094869,3.3195901972380812 l-5.058366279315948,2.803439862949698 m30.29001285746713,-23.18175147499532 l3.913731516427067,2.7111587934201262 17.032138722472293,13.508279036961168 l2.0485044542444375,1.1580981810738384 2.2983428234046737,0.5929819237812509 m-38.57909651840674,-2.7381588251321243 l2.5769607529094083,0.1271077962279328 2.541706425078774,-0.27038879255615866 l13.862162585422952,-2.1516021953043016 1.1919587289777782,-0.02529503811256174 l1.32085858905636,0.5036683392860477 0.6393942326602149,1.1763801645706242 l-0.12322694733359517,2.521259021397027 -0.9937172690193299,4.2276764734740375 l-1.289561341178953,3.381462148375376 -1.9867728359501162,2.9145893766804845 l-0.8557930010993193,0.16532987010348907 -1.371810792494515,-0.25583715361098297 l-1.314845442381264,-0.9380555216073803 m-13.46203498334952,-10.685178014268262 l0.6779117314924332,1.5317994228524745 0.35825578024231436,14.402231674638589 l0.8307768639731938,2.60687086732409 1.4515788372028282,1.1662238653988892 l2.6498087864418927,0.6976197344625609 4.792925389960943,0.273063449860852 l11.579984937173235,-0.012997569650690733 5.911667264436422,-0.507956046217242 l2.2301181399262564,-0.7490389925620724 1.3271463022844334,-1.2092012412625848 l0.6204172344284185,-1.706199011747715 0.14559674845468298,-2.479482111513992 " fill="none" stroke="black" stroke-width="1" /></svg>