<?xml version="1.0" encoding="utf-8" ?>
<svg baseProfile="full" height="102.64722054991645" version="1.1" width="108.27178665783465" xmlns="http://www.w3.org/2000/svg" xmlns:ev="http://www.w3.org/2001/xml-events" xmlns:xlink="http://www.w3.org/1999/xlink"><defs /><rect fill="white" height="102.64722054991645" width="108.27178665783465" x="0" y="0" /><path d="M25,25 m0.0,0.0 m7.549942313800169,23.249456726340238 l0.4912946652151174,0.13530630094740614 1.2557910001425932,0.11432881275036857 l2.5246479617154405,-0.2412507789558705 9.555301639291311,-1.8631409834284929 m-0.2172849172854119,-13.893973106791307 l0.7922030534027652,1.3310535751313883 0.312812461547024,1.3876334588175732 l0.13437905649660498,31.359359581487702 m-15.111801606365894,6.364090773041798 l1.441534940222214,0.47637042454885276 1.4642114786948492,-0.29523151749143833 l16.694920964662817,-7.787287833089139 m26.916462310316078,-17.815846479671766 l-0.3102400531721683,1.166487609564298 -0.5694696985011102,0.9555002745215707 l-2.9446791193900426,1.6788972150401862 -5.295724062595727,3.0965749099253115 l-4.944039933458635,2.280641189947331 m-2.5270603333255868,-17.660543390236924 l0.6233178590511133,1.040526865434402 0.40986914920079487,1.5796811951764078 l-0.11721648804955537,29.617822634357342 0.30865358795369074,2.5830333617376575 l0.7431288228429468,1.8005516874086425 1.575538869996978,1.2048570124455418 l2.9066734967316736,0.6493067402931425 6.719411440759655,0.13301429066421838 l4.283832870727709,-0.45069488517285744 1.4758635985329756,-0.6544021959032459 l1.3971825861113607,-1.416490643658356 0.5495878942052859,-1.6344420039066612 l0.18274084835761403,-2.9498998981383626 " fill="none" stroke="black" stroke-width="1" /></svg>