<?xml version="1.0" encoding="utf-8" ?>
<svg baseProfile="full" height="109.85806297893721" version="1.1" width="113.8185397423539" xmlns="http://www.w3.org/2000/svg" xmlns:ev="http://www.w3.org/2001/xml-events" xmlns:xlink="http://www.w3.org/1999/xlink"><defs /><rect fill="white" height="109.85806297893721" width="113.8185397423539" x="0" y="0" /><path d="M25,25 m0.0,0.0 m27.883013198613877,20.43616819483151 l0.3644929541664527,0.27910375108793584 1.640647740091506,1.0880470355277767 l2.0458617551619684,0.9499516164395224 1.5427707527930623,0.7170055677554704 l0.5463264702186482,0.5601261928332525 m-8.435043626002198,5.786582243619787 l1.5806697018674054,0.5891136422377461 1.8202222092746991,1.1089052680700273 l1.4437501404100317,1.1827621664765822 0.5666297504061881,0.7463678651845862 m-6.1806393973517215,8.443603827781553 l1.1617650534035107,0.28049785525223775 1.3299007532260503,-0.1588110152450114 l12.700224168480089,-3.884805922610673 5.141539438490706,-2.337906393603776 l4.788672447092795,-3.4755924266051927 7.90193889749028,-1.181858495729281 m-13.703987605937792,-11.536649326786632 l0.7679655279034521,0.8941630717020085 0.41450538678887466,1.532261287237256 l-0.046091508815265386,8.099194138672784 -0.7124837470546767,7.093290524511942 l-1.0443044193689432,8.228926037609627 -0.8969244030402579,4.524732094908098 l-1.1190220048606647,4.0371369718618455 -1.8292541913416704,3.5297446928669443 l-1.9667921307940412,2.3260025130492963 m12.788766055169596,-34.529845249318676 l2.1604409399719637,8.90972277541476 2.374332192558473,8.040000610340435 l2.2645473554830575,5.117412959147032 1.870288657296984,2.9556846046624785 l1.9956469687229201,1.7146010346030531 1.5215582103227927,0.7437677365699117 l0.5782752450507441,0.06184967966984955 0.37182959090144174,-0.5280015155727895 l0.18650121556356375,-1.5296246512746372 -0.15113087808022535,-3.046629860589321 m-8.05844580213213,-34.860763574631456 l2.2874279997878193,1.8659054054010018 1.6355433714761307,2.0589241328939987 l1.012731771384454,1.516622245101348 0.8052721173830437,1.7961802465588372 " fill="none" stroke="black" stroke-width="1" /></svg>