<?xml version="1.0" encoding="utf-8" ?>
<svg baseProfile="full" height="99.2193151564066" version="1.1" width="105.85014939165623" xmlns="http://www.w3.org/2000/svg" xmlns:ev="http://www.w3.org/2001/xml-events" xmlns:xlink="http://www.w3.org/1999/xlink"><defs /><rect fill="white" height="99.2193151564066" width="105.85014939165623" x="0" y="0" /><path d="M25,25 m0.0,0.0 m7.927944581138299,21.63318895800063 l0.4587691905492023,0.16750788828432994 1.0617010262000883,0.17942695994259156 l2.1197911040409334,-0.18775501653445714 9.561433805820906,-2.053747068353 m-0.33353819531451906,-13.478154020830985 l0.8094990182552947,1.2333452253264177 0.3317367791411302,1.2718124290185273 l0.12043930621163647,29.60856116245233 m-14.662083963573904,6.036580142584302 l1.6057431212780844,0.45613700914305816 1.1006423856168923,-0.23440866888981934 l14.678714572426847,-6.852245330267907 m26.102855744943973,-17.34931603505812 l-0.41290808873436974,1.1045357348328537 -0.5589043850429612,0.8077983556558878 l-2.467908969169977,1.6718671815244062 -4.544559111322237,2.8222131216494044 l-4.321765863567964,2.1803361933593592 m-1.8801291102120143,-16.610697036281383 l0.5707622896188881,0.9614617808002953 0.37653554247648285,1.4854413282111179 l-0.09920622677450468,28.63155536696943 0.2591292178971569,2.25271650599435 l0.6180852763964809,1.6336536167691802 1.4452311266217677,1.083773046679279 l2.6559481103316154,0.6321071992897664 6.07935893946762,0.13161912613475385 l3.8826456526299125,-0.4163136451502268 1.3917139868412016,-0.635422647670837 l1.3248240122367367,-1.3974305938193379 0.4819746669337559,-1.5654323674222996 l0.16567384829377246,-2.8101249482412958 " fill="none" stroke="black" stroke-width="1" /></svg>