<?xml version="1.0" encoding="utf-8" ?>
<svg baseProfile="full" height="131.08910889313182" version="1.1" width="112.34753393470702" xmlns="http://www.w3.org/2000/svg" xmlns:ev="http://www.w3.org/2001/xml-events" xmlns:xlink="http://www.w3.org/1999/xlink"><defs /><rect fill="white" height="131.08910889313182" width="112.34753393470702" x="0" y="0" /><path d="M25,25 m0.0,0.0 m19.38116079016362,14.024611534872035 l0.5180068486592796,0.293953670337567 2.3186866891929103,1.3477003858693177 l2.8219939864452206,1.5891410295411446 1.9812101559320454,1.4359686613676563 l1.0828348936283736,1.2676525956273523 m-12.740082222249255,6.909299867578268 l2.113100198059639,0.827995611848651 2.4700911098937888,1.3923727325480435 l1.8712181686810352,1.4130578867150345 0.7884658990548316,0.9021576256847348 m-6.8399635402606815,10.284759209366813 l1.5223351074514804,0.32398708093117773 1.7199177010244284,-0.3359783916450589 l18.51968709296176,-3.87370673949498 2.1484704923452056,-0.7377532309718423 m-15.702141201240204,-18.68864795351846 l1.121755598306755,0.9763202121390837 0.7974166184123996,0.9548105884594454 l0.4349807526237892,2.0911731757840437 -0.12500278512705915,40.02514703146377 l-0.048343078183286904,1.9892315112299919 -0.21511348107110617,0.9257361879447047 l-0.3495758988970511,0.3626316139540702 -0.45014731436235245,-0.02798418970887096 l-0.5876719337147379,-0.3822443323353329 -2.212934167304844,-2.4334858348928767 m21.064764189292074,-25.60510731555036 l0.10701730782205525,0.48285658676306537 -0.05839523673525149,1.146422690216571 l-1.1231101153668486,5.1693327594739085 -1.548780483834109,4.368150733214777 l-1.9570238041473391,3.4238582700345552 m4.827224254052551,-15.747610755940324 l11.03291421511279,-1.680541006328822 0.8397561220289302,0.06313712770847694 l0.8393173794111684,0.3573205127446 0.37656230013188075,1.0787315701371554 l-0.6844454137038166,0.9993833643628675 -1.8470316366143993,4.869984974031043 m-8.90758895819768,1.1834347422706037 l-0.013882671350117304,2.0741598125823946 -0.7685914404247591,3.597777145080324 l-1.1091329063910322,3.5911051605918445 -1.5067078508358203,3.545647740911431 l-1.6720561020749374,2.907731722742194 -4.310973297161566,4.946683049602175 l-2.2445124352208747,1.7403847476358636 m10.816685377256071,-16.335335042624493 l4.256485729532656,4.583982195900986 5.9330323628661095,5.257286047675511 l5.239388979586539,3.790792049925241 2.1949869197898813,0.9798442723570513 m-43.2734763889836,7.5308515896437145 l-0.23642786200488575,1.5260107947414039 -0.9586186645326056,2.844177389871229 l-1.542545349607105,3.3065560852884346 -1.4165102963728622,2.2341923373729204 m14.248114793521742,-11.042329829735815 l1.0708308884311402,1.7875194946638424 1.1333333840825655,2.840015623792138 l1.555639967544427,6.067773713323034 m9.694844890927481,-10.705207105294656 l1.3291321076980913,1.9130829180136049 1.6721014709120081,3.1716907531468657 l1.1622997513690945,3.0068265918710813 0.5680986455987588,2.2278740009632183 m8.184518831615968,-10.49929534954404 l2.033796453410116,1.9874138607716847 2.3337704888757194,3.140691067458916 l1.830209406427808,3.278163917789764 0.8421621505430051,2.5872658224861116 " fill="none" stroke="black" stroke-width="1" /></svg>