<?xml version="1.0" encoding="utf-8" ?>
<svg baseProfile="full" height="109.49251203149001" version="1.1" width="106.7062734439969" xmlns="http://www.w3.org/2000/svg" xmlns:ev="http://www.w3.org/2001/xml-events" xmlns:xlink="http://www.w3.org/1999/xlink"><defs /><rect fill="white" height="109.49251203149001" width="106.7062734439969" x="0" y="0" /><path d="M25,25 m0.0,0.0 m22.189412117004395,2.7989411677253884e-07 l0.05807196721434593,0.5763684585690498 -0.16779368743300438,2.1240615844726562 l-1.3070376217365265,2.918660342693329 -2.1826358139514923,4.033909738063812 l-2.810884118080139,4.345188736915588 -5.855394601821899,7.286609411239624 l-3.5766977071762085,3.6617136001586914 -4.022529721260071,3.5887470841407776 m16.96571707725525,-15.337693691253662 l1.5209165215492249,0.49277495592832565 1.2360794097185135,-0.020647344645112753 l10.953344106674194,-1.313752681016922 20.051732063293457,-1.9002670049667358 l2.7084630727767944,0.2157197892665863 0.761127695441246,0.8401189744472504 l0.18438268452882767,1.6688577830791473 -0.23592783138155937,3.3062532544136047 l-1.8101885914802551,12.994062900543213 -2.4768446385860443,12.00667142868042 l-2.4380184710025787,8.592642545700073 -2.3774361610412598,6.25235915184021 l-1.2016044557094574,2.342291921377182 -0.5629801005125046,0.5649883672595024 l-0.5797155201435089,0.25287244468927383 -1.2069597095251083,-0.2558220736682415 l-2.5889721512794495,-2.3392795026302338 m-7.1761554479599,-32.86036729812622 l-0.1233401708304882,1.0556713491678238 -5.098116397857666,3.4225642681121826 l-6.183074712753296,3.1512829661369324 -5.745610594749451,2.2686558961868286 m-2.405886650085449,-10.453623533248901 l0.9766800701618195,1.711031049489975 0.37278447300195694,15.05720853805542 l0.5226477235555649,1.3877023756504059 1.3227689266204834,1.418495774269104 l1.837216317653656,0.781879648566246 2.9936352372169495,0.36324266344308853 l7.754532098770142,-0.11267656460404396 4.032571315765381,-0.5569971725344658 l1.8693482875823975,-0.8116687089204788 1.1008571088314056,-1.1724847555160522 l0.5320195481181145,-1.5530486404895782 0.17010003328323364,-2.6997607946395874 " fill="none" stroke="black" stroke-width="1" /></svg>