<?xml version="1.0" encoding="utf-8" ?>
<svg baseProfile="full" height="109.52944673423599" version="1.1" width="109.23626569823242" xmlns="http://www.w3.org/2000/svg" xmlns:ev="http://www.w3.org/2001/xml-events" xmlns:xlink="http://www.w3.org/1999/xlink"><defs /><rect fill="white" height="109.52944673423599" width="109.23626569823242" x="0" y="0" /><path d="M25,25 m0.0,0.0 m18.845826883200537,4.362487471801749 l0.04519441421237589,0.510823321709423 -0.3718108214567656,1.8085632302737824 l-3.4552949181679073,5.032631646616001 -3.4285556544219773,3.987023696266535 l-4.2732437234806815,4.169633019405972 m8.278168968395061,-6.697993308177381 l0.5321148344737211,0.12919853273501403 2.0915620477685826,-0.07054471405017765 l30.86225576516716,-3.6530822992074885 0.9170930201390787,0.17988300833680793 l1.0591990029106007,0.5969828813253055 0.4092441285822217,1.0322519629977582 l-0.04482549300876775,1.560067028608681 -2.3881217780769104,8.277404066603745 l-2.8262360796259682,6.767861385007818 -3.2226280568404486,5.081368753017348 l-1.4060032353315433,1.1528275195134312 -1.2463399878026835,0.03353645962460969 l-2.060271719169553,-1.7330914034524973 m-12.11151930649382,-16.74951793802267 l-0.09982319485069498,1.3483864971217359 -0.7973081893578333,1.4171764896105257 l-2.9025258586550087,3.961130942087881 -3.6006004592054364,3.425685600027727 l-4.292279506070284,3.102730460672925 m23.440661880514096,-14.6285679221436 l-0.24579799759269272,1.8029239927542096 -1.3664865068020948,2.5909520632107266 l-2.1222148870434796,3.0348906466280416 -3.0038688677212404,3.419002962208296 l-5.997036639741676,5.6023665716051125 -3.639130204541831,2.682952195351054 l-2.9763612440271534,1.868571503203203 m-6.680770233450635,12.015312822752376 l-0.5642621885780608,1.33818313753613 -1.613367500513874,2.410762260914958 l-2.1586440767086494,2.621321697595144 -2.3031887938020903,2.083580661308523 m14.576540530523971,-11.359428250861901 l3.3632098312024405,4.157957844521836 3.589227041855459,4.109845115019322 l3.7778622672219924,3.0411055754307736 4.602077126295321,2.089811045725709 l3.439879002516176,0.9614774541037442 3.791902160722819,0.5382674935137708 l4.653911768811967,0.11473355340399984 4.151670747173973,-0.39334949773290095 l1.6281066316549622,-0.718622767219444 0.29586311172616286,-0.5258507654288846 l-0.09351221176770731,-0.6153926360340752 -1.4574655402035313,-1.5524301608365458 l-2.8635971007729113,-1.949615145167295 m-18.28879908573941,-8.883263534899179 l1.6565205411577832,2.95713269851853 1.2234926017658359,1.029919137570931 l1.1925120658391415,-0.0020548582181745484 1.2163935344081778,-1.9215136792847682 l0.5419460079960833,-1.6418275315326105 m14.782205541353225,-3.256617550584279 l2.735921996255041,1.2350924721637573 1.9167213245701809,1.1746709761031346 l1.8393457777713502,1.5723658544953767 1.681526203070236,2.0463360483461654 " fill="none" stroke="black" stroke-width="1" /></svg>