<?xml version="1.0" encoding="utf-8" ?>
<svg baseProfile="full" height="96.18783189439966" version="1.1" width="106.35903332948507" xmlns="http://www.w3.org/2000/svg" xmlns:ev="http://www.w3.org/2001/xml-events" xmlns:xlink="http://www.w3.org/1999/xlink"><defs /><rect fill="white" height="96.18783189439966" width="106.35903332948507" x="0" y="0" /><path d="M25,25 m0.0,0.0 m21.170180581110056,3.930706875327814 l0.3348953759378268,0.38495839479763 0.46752539874601357,1.6847609947269082 l-0.011370649755299401,5.0232191977508505 m-13.04823156364554,1.928194117898148 l3.1388768907088136,0.12061529423221537 17.270879039198086,-2.122097249532689 l3.6284089714017935,0.080822197852622 m-13.21229696459331,4.885106234614478 l0.45790868678170515,0.992868488786152 0.11930027391058223,1.1681709851581352 l-0.07083081152879755,6.391932825249647 -0.253691420639278,5.5712798024414765 l-0.6795163422025494,4.910473174671035 -0.865642973652649,3.460754584688033 l-1.2049243667393381,3.052385294095892 -1.4781030503598929,2.6325399363789805 l-1.6451031014167838,2.0911407452623387 m12.029898947325194,-29.122682614567758 l0.46737269315372754,0.9115376812073274 0.1272834009223011,1.7679870043964898 l-0.16774679709921944,24.02697468904803 -0.38004011658219045,1.475130784739815 l-0.5444881100670037,0.2573247583797095 -0.661183558744784,-0.45901162141897517 l-1.5922473824967394,-2.0855348668031226 m-8.157367268525812,-18.59068154017961 l0.00042860464901527736,1.385928021775086 -1.5510902631445125,5.337447358433438 l-1.5348442395344293,3.66447283473348 -1.9714432157409847,3.596665675890468 m19.805257110655074,-13.795412954538534 l1.4415172289409255,1.6440751845029473 1.597446258247971,2.7412612881594405 l1.3156129296646204,2.8130663571347867 0.5872887149348012,1.9880833949636592 m4.34060748032563,-25.888032184612523 l1.1678246856153651,0.3721970499301261 1.628019350936745,0.044782175073197414 l11.39061098653965,-2.1609200039116305 1.077113801245636,0.2085173600203065 l0.6375577534722967,0.7731435716939392 0.10858526735160531,1.5951453119032448 l-1.8749056285131216,9.952112523604981 -1.4600095070806545,6.068449401051438 l-0.957785334078729,2.3869572898879574 -0.6020528787947582,0.7888702467686814 l-0.5680510168887313,0.23996611385146813 -1.048031718577977,-0.5662335683014532 l-1.0780153126645695,-1.5719650450439078 m-1.8213255799130574,-16.26922370092915 l1.8766316816522577e-05,1.1152112851848512 -0.4743473811845804,1.7164389598291407 l-4.356546536202511,5.119642533445463 -4.014345824323867,3.056841948928032 m0.47264392165866226,5.939295589282443 l0.5545824863695878,0.7755975651839786 0.4843722944220634,2.6925963024966615 l1.4877633740904102,12.372729062105124 m-1.404147854758428,-15.404593258464217 l14.624018310383779,-1.7897760618226224 1.3614205537317199,0.001002178997281143 l1.0215225860971355,0.3444730721623286 0.6437871503447881,0.7780743597967765 l0.08823022374477106,0.623527367238989 -0.125874822565024,0.8248429662694424 l-2.3995333109204253,11.80927008971893 m-13.570660979892699,1.379214019065445 l14.736566106075285,-1.072280767182497 " fill="none" stroke="black" stroke-width="1" /></svg>