<?xml version="1.0" encoding="utf-8" ?>
<svg baseProfile="full" height="115.161995543174" version="1.1" width="132.9110664594279" xmlns="http://www.w3.org/2000/svg" xmlns:ev="http://www.w3.org/2001/xml-events" xmlns:xlink="http://www.w3.org/1999/xlink"><defs /><rect fill="white" height="115.161995543174" width="132.9110664594279" x="0" y="0" /><path d="M25,25 m0.0,0.0 m21.097813802354345,7.496127998882078 l0.01889388611856927,0.4503731461937284 -0.16200061637994007,1.3072388157972605 l-0.6446219963761227,1.9435954722460413 -2.12243181523013,4.789343476495422 l-2.2842081017977325,4.054522209276608 -2.7854905843197106,3.7814844611316536 m7.2160354253045496,0.04905363189102238 l3.346863936745259,0.12400416664543355 9.720468117183616,-1.9328681040356472 l2.4591055151880497,-0.055930579367081436 m-10.144728686526188,3.375056832437833 l0.7334590726343106,1.2010337538342992 0.13737820343944787,1.1566286888486277 l-0.2247239230014058,24.381401595288157 m19.224074175562478,-25.0648124554696 l-0.07280656999328325,0.08194865846791966 -0.4872299249810483,0.12502197029209428 l-3.573191288649095,1.6516550466480733 -3.288628882097467,1.2566552510400275 l-4.482807231195609,1.291673980396026 m-2.3210979019515467,6.581024198123996 l0.5782940497432246,0.26877369076498103 1.1769495661768774,0.039719656700031726 l12.194334531031283,-2.0411467109711987 1.7462388781914662,-0.06483884640932919 l0.5340858815744607,0.19588826136721008 0.34918471913490273,0.3676072604880311 l0.14686053201038848,0.5351539876155331 -0.04888729409229142,14.358617927756429 l-0.42467309514700324,4.9412359985089855 -0.7292216083037478,3.765617320053923 l-1.0437986403525874,3.1813015685798254 -0.9692479401949157,1.3363259437366928 l-1.126974442392431,0.23350726991892362 -1.1311066487193895,-0.5438703694362829 l-1.6920602356988967,-1.4962074065969966 m0.47883676889306087,-20.838503478865036 l-0.12410117292802562,1.4883301003544018 -1.0095626878902197,2.210871306387938 l-2.622813545172548,3.5822363520830356 -3.1586343018078065,3.0418322948568046 l-4.29510573263481,2.740276677078554 m26.62674129364222,-21.525323472528743 l1.3808613769856217,1.0126312295515676 0.5127902457344411,1.7402731025165121 l1.8436745359570075,21.950538069991964 m-1.5202027437940453,-21.091049460510856 l12.929162115332833,-1.7032981749558245 2.0614820937893055,0.03547189007290202 l1.0593392497750498,0.50706026891962 0.4863363956970139,1.1925124740460125 l-0.01533761203366432,1.4325137785858828 m-14.20068181443206,6.780254335231741 l13.43971510766209,-1.696073776558086 m-28.096194637385196,10.294552558540941 l-0.6111095028516964,1.834722210577615 -1.2634540337922102,2.345612789364794 l-1.8402106622860026,2.499786512323245 -1.8866388723261585,2.0444544422511832 m13.523670910481794,-9.268198740402513 l1.1177593384781825,1.2455214167644282 1.160718689067712,2.0764629470316764 l1.0599488418167924,2.434344179210278 0.7804391112010862,2.520891224081202 m6.6032948556036235,-8.769536771801732 l1.4217737332833273,1.6562739231142656 1.5716660053696792,2.547009298403832 l1.232954168028509,2.4820586263793487 0.6331612106639912,1.948143515954271 m6.496514429020752,-8.869545658888729 l1.846097884844095,1.747088444196109 1.9297104826738305,2.545223756088276 l1.6042378859166153,2.676583878143458 0.8341241838510486,2.0916168120951 " fill="none" stroke="black" stroke-width="1" /></svg>