<?xml version="1.0" encoding="utf-8" ?>
<svg baseProfile="full" height="121.36578076078625" version="1.1" width="95.75196485787646" xmlns="http://www.w3.org/2000/svg" xmlns:ev="http://www.w3.org/2001/xml-events" xmlns:xlink="http://www.w3.org/1999/xlink"><defs /><rect fill="white" height="121.36578076078625" width="95.75196485787646" x="0" y="0" /><path d="M25,25 m0.0,0.0 m8.023733143819246,8.135149190310411 l0.47776336776833084,0.43297306950032327 0.701428441315217,1.041169602238294 l0.6016143696244256,2.742935901059137 2.3615861553979483,12.687437596339596 m-2.7986634696890205,-16.621202967430076 l22.59969440424497,-2.9198683401808947 4.614019527416443,-0.3063294817495696 l1.338708212328012,0.25862835503191994 0.9322645239378099,0.8465887914057907 l0.18862545632440222,1.450658154187251 -2.9283049619694266,11.958787298960472 m-24.651997475874722,3.3877704011893317 l26.189277454715903,-2.7648178232197163 m-14.858983469837082,11.881686476304184 l12.83309773045612,1.0921351027576913 6.62484385649949,0.16902980164937867 l1.8012475100155405,0.5478114287829657 1.0930564559809022,0.8757361530815368 l0.6089536254019423,1.2834827053090905 -1.363378485826289,16.90529872198158 l-2.134551931824714,7.532292728279337 -2.2111105567002096,6.021883574373789 l-1.2994367897563344,2.495878205467226 -0.8840878332467053,1.2222320055854052 l-0.8436848932531524,0.7312342326411939 -0.779934070924774,0.2771998769305777 l-1.423315702065593,-0.47096170454796915 -2.31979266334398,-2.338451845021198 m-0.09385247023111554,-35.6995070864321 l-0.020782389972075717,1.4530293390061888 -1.5997864251163576,1.7979034721986016 l-3.5304566893161624,4.04935602499545 -4.158793626225675,6.378084610015591 l-5.7369686843126555,8.005911779212099 -5.590149078236248,6.8892141523364625 " fill="none" stroke="black" stroke-width="1" /></svg>