<?xml version="1.0" encoding="utf-8" ?>
<svg baseProfile="full" height="101.27439281854289" version="1.1" width="98.88392347549494" xmlns="http://www.w3.org/2000/svg" xmlns:ev="http://www.w3.org/2001/xml-events" xmlns:xlink="http://www.w3.org/1999/xlink"><defs /><rect fill="white" height="101.27439281854289" width="98.88392347549494" x="0" y="0" /><path d="M25,25 m0.0,0.0 m21.455441438810674,0.4883245337143959 l0.31079240761651616,0.4210255018388956 0.45230620691041223,1.9143062019718138 l-0.00855292508049147,5.863115925202865 m-11.613193287452566,1.9700602237550981 l2.5694228428645127,0.137269596589586 16.549017358173366,-2.377907612960485 l2.254238539721173,0.12938491461903928 m-12.190691086360943,6.04174701946175 l4.096338828992164,1.89997854160883 3.7985376614668422,1.5187628729783813 l0.8857779585383746,3.3752940192942087 -3.2825638585637553,15.430418849557697 l-1.1974618813357,3.934365166257389 -1.1389780521237276,3.8038297919341626 l-1.0952113892202968,3.489944781638745 -1.2760549474844556,2.6438632115754443 l-0.6382305211566816,0.5286866162053475 -0.5610674639768404,0.061922663299728196 l-1.0072269444606268,-0.6559347961965823 -1.2650193666123288,-1.913795107924157 m3.5235066284361465,-36.01077739112766 l0.002916229179454507,2.6119942229670605 -0.6143300735530308,3.8882337643583047 l-1.183441703652471,5.545585461605855 -1.4477614048137095,5.3269913666658395 l-1.4362681287642183,4.286137023828515 -1.719382841417985,4.177667668693312 l-1.9464774800345315,3.7849519913150886 -1.5918366326273685,2.4920054687426627 m27.009099353626834,-44.64157772759408 l-0.02547040954567366,1.4845857014735238 -0.3912524563105219,2.207212872211718 l-2.006244787661683,7.266523703868213 -2.28633096748335,6.052352837553839 l-2.7984596871053466,5.259485086770048 m6.038891827279384,-19.664341811932974 l3.9576368136605256,7.270643625850741 5.833124748260821,9.44525999611316 l1.3077733156267897,1.691916611183828 1.5606096131292624,1.0119604861709204 m-14.919348997794014,1.5781697891645492 l1.8528075033542302,1.5390469832517006 1.941127706239394,2.08001592750503 l1.588731419994426,2.1894950317624073 0.90347518811362,1.9656744367426877 m-9.30152583593824,7.5997797344357565 l3.576852601596149,1.9626599826778863 4.141240225167009,3.2542151255717866 l3.0657803348037187,3.340786241981497 1.7294866252120933,2.7299765865136383 " fill="none" stroke="black" stroke-width="1" /></svg>