<?xml version="1.0" encoding="utf-8" ?>
<svg baseProfile="full" height="118.5071882089097" version="1.1" width="96.23032102683966" xmlns="http://www.w3.org/2000/svg" xmlns:ev="http://www.w3.org/2001/xml-events" xmlns:xlink="http://www.w3.org/1999/xlink"><defs /><rect fill="white" height="118.5071882089097" width="96.23032102683966" x="0" y="0" /><path d="M25,25 m0.0,0.0 m25.913890192492897,3.6934196965782533 l0.3578274358310012,0.36008260671014325 0.517749009688511,1.4388460677220916 l-0.03903600463358617,4.471269339324448 m-18.80146866996805,1.7133401981459717 l3.904429562058039,0.19611544093905808 16.13220187460343,-1.6287189402320024 l12.83505622107364,-0.8739415876757881 3.0518613388395344,-0.08193825361945965 l2.3578100668542357,0.41991857160551466 m-31.083225199513887,7.495674935408954 l0.6294915774451587,1.0914513175248863 2.0508128514036295,8.599753393185035 m-1.704597039512319,-9.067051013174318 l17.329228641854105,-2.0378496198027527 3.5690308804352235,-0.1810792289618529 l1.0113555170745259,0.6341044899624809 0.1686588762882043,0.5969013756504473 l-1.8664265335017867,6.401392394458325 m-18.306067742273243,2.1412306211075185 l19.19553242604459,-1.9042295396008029 m-29.832835219520852,7.511351455474672 l-0.6365805796068363,1.068597846722583 -1.3133867659569733,1.9668957953809219 l-3.488640455200885,4.214011886816577 m8.83897252938643,0.9041073217047937 l1.2633105637555446,0.9201551936442337 1.0220956168256552,1.1368688429575906 l0.9968172755932728,1.3733037599630942 0.8720478281880836,1.4364421772428129 l0.8488552900910635,1.599298465426089 0.9352590572815375,1.7269585852541363 l1.5726862971905224,1.9028972049303776 2.0497902125419407,2.828696255798105 l1.916464951942844,1.8906734044286118 2.188042306203107,1.6442049589566017 l2.5920525274094532,1.4569982534306982 2.965505814225872,1.1860123873139314 l5.0329720397383,0.8334942689138727 4.587577303033461,0.13410835774944313 l1.029282164692681,-0.3678530560290844 0.4130672153374591,-0.9038632039256446 l-0.5544353355396573,-1.4454933888829924 -1.4227342639762566,-1.8092980134522503 m-16.61586361098097,-14.09138063897307 l0.06416422839270565,1.6349795689239361 -0.7978495391825063,8.42564315720121 l-1.020375480570312,6.5738015312606395 -1.7822792509210468,5.013463726641412 l-1.4398941029919654,2.337651350355132 -1.7925584052862238,2.059995646054323 l-2.159064088348361,1.8657728423707989 m6.739242451707149,-17.695174176274445 l1.977430028182476,1.6749914881594168 1.8782057608330063,1.8271095819471501 l1.52165402673629,1.9800261290577765 1.1232367507702403,2.197246909570231 " fill="none" stroke="black" stroke-width="1" /></svg>