<?xml version="1.0" encoding="utf-8" ?>
<svg baseProfile="full" height="107.91758248116821" version="1.1" width="109.49251686222851" xmlns="http://www.w3.org/2000/svg" xmlns:ev="http://www.w3.org/2001/xml-events" xmlns:xlink="http://www.w3.org/1999/xlink"><defs /><rect fill="white" height="107.91758248116821" width="109.49251686222851" x="0" y="0" /><path d="M25.000003185123205,25 m0.0,0.0 m4.729530513286591,5.619713068008423 l0.6830912083387375,0.1094567496329546 4.7843411564826965,0.06649434566497803 l17.781991958618164,-2.214345484972 16.999579668045044,-1.7025761306285858 l3.3171474933624268,-0.12864969670772552 3.3012697100639343,0.29961254447698593 m-43.00434112548828,4.275569915771484 l0.5771816894412041,0.9222745150327682 0.24771347641944885,1.2492934614419937 l-0.2571779675781727,6.247818470001221 -0.8544552326202393,10.728113651275635 l-1.141863688826561,7.9457491636276245 -1.3665202260017395,6.198495030403137 l-1.347939521074295,4.41610723733902 -2.299267500638962,5.401217937469482 l-2.1502847969532013,3.5681548714637756 m14.669907093048096,-42.11787700653076 l0.8181385695934296,1.4982737600803375 1.6931591928005219,11.742953062057495 m-1.3148322701454163,-12.583472728729248 l11.617618799209595,-1.3631419837474823 1.8080633878707886,0.07098641712218523 l0.5412028357386589,0.31384360045194626 0.3268500417470932,0.5290409922599792 l0.09176293388009071,1.7918476462364197 -1.1071094125509262,10.870001316070557 m-12.053755521774292,-6.718752980232239 l12.21118450164795,-0.8925032615661621 m-10.91864824295044,7.210632562637329 l10.066981315612793,-0.878736674785614 m-13.242915868759155,7.189011573791504 l0.7054723799228668,1.5607722103595734 0.08334887214004993,26.550357341766357 m0.4358000308275223,-27.35067367553711 l11.094489097595215,-1.5310008823871613 1.3354399800300598,0.41375666856765747 l0.37701770663261414,0.5158656090497971 0.2766823582351208,1.7432001233100891 l-0.2290140837430954,25.23653745651245 -0.5148521065711975,1.1141616851091385 l-0.7324142754077911,-0.031080313492566347 -2.474263161420822,-2.810741364955902 m-8.96194040775299,-17.556322813034058 l12.184834480285645,-1.190025433897972 m-12.086187601089478,8.913293480873108 l12.08686351776123,-1.1486202478408813 m3.986387550830841,-19.188714027404785 l3.5961949825286865,0.35254091024398804 15.65434217453003,-2.039603143930435 l2.538112998008728,-0.0010346027556806803 m-13.059135675430298,-14.129379987716675 l0.6305587291717529,1.7394840717315674 -0.17051942646503448,11.18958830833435 l-0.583009235560894,8.530870079994202 -1.1449041217565536,8.057908415794373 l-1.431383490562439,5.90796172618866 -1.430032104253769,4.0167927742004395 l-2.449939399957657,4.681640863418579 -2.2911596298217773,2.92290061712265 m9.664626121520996,-27.39391803741455 l4.7738683223724365,10.350757837295532 4.953255653381348,8.825119733810425 l3.5830193758010864,5.023186802864075 3.883349895477295,3.545520305633545 m-10.702438354492188,-44.62592601776123 l2.739459276199341,2.829659879207611 1.660938709974289,3.2590410113334656 " fill="none" stroke="black" stroke-width="1" /></svg>