<?xml version="1.0" encoding="utf-8" ?>
<svg baseProfile="full" height="110.96165589381846" version="1.1" width="105.95614844961202" xmlns="http://www.w3.org/2000/svg" xmlns:ev="http://www.w3.org/2001/xml-events" xmlns:xlink="http://www.w3.org/1999/xlink"><defs /><rect fill="white" height="110.96165589381846" width="105.95614844961202" x="0" y="0" /><path d="M25,25 m0.0,0.0 m20.274219635030455,14.400536619524056 l-0.010356729901437031,0.4321604041627706 -0.2762434071705894,0.7609385880682992 l-1.1453422612991093,1.4020661811860708 -3.4489632780104187,3.270937840195518 l-3.765655404259012,2.732643436409788 -4.373604980422077,2.43023432756499 m14.398143981169659,-1.764874534101346 l0.0686206839808633,1.048563684337999 -0.36394909099560796,1.2262711264805113 l-3.4632716549216815,5.798924009777339 -4.655676798344179,5.843027997537027 l-5.606651181679119,5.712383113507033 m8.542037464396287,-6.981705077282596 l0.537328774753085,1.4099798762891984 -0.04451475935838026,23.239568300161796 m11.059653811867433,-45.040461011954385 l1.5258562531207083,0.2790902563358889 2.011042046561692,-0.03803779607766433 l19.132563350912662,-2.1448155089052015 3.5710795890837335,-0.1249137423889634 l1.989832405097044,0.242905768274834 m-15.397073410848089,19.09933889167655 l1.0987796379415262,0.6921884632240205 0.7859953038371272,0.4023199760902608 l3.5642599859559296,0.6199988779872886 4.095076883740782,-0.16793327179499518 l1.4828050234339443,-0.2723606252440174 m-15.082614449928169,-23.652224888841502 l0.6217113598851075,2.3426175993725113 0.0983947226629041,23.779036973849497 l0.17223808850161665,1.9532565024743733 0.3384662029866754,1.2511719758004116 l0.6823701328463729,1.0159289314698412 0.8506411509977126,0.7395823316739669 l2.2169720927395917,0.6841827011033691 5.2815786464536485,0.2280933066540758 l3.4822543134480246,-0.30050720299871436 1.7775354529973981,-1.2781156037408372 l0.5148757242516729,-1.4445428542803167 " fill="none" stroke="black" stroke-width="1" /></svg>