<?xml version="1.0" encoding="utf-8" ?>
<svg baseProfile="full" height="107.7273381854133" version="1.1" width="106.70673013507063" xmlns="http://www.w3.org/2000/svg" xmlns:ev="http://www.w3.org/2001/xml-events" xmlns:xlink="http://www.w3.org/1999/xlink"><defs /><rect fill="white" height="107.7273381854133" width="106.70673013507063" x="0" y="0" /><path d="M25,25 m0.0,0.0 m19.08847796974498,10.519561129796703 l0.0067438549861236164,0.46968716898297436 -0.21752963744732517,0.6992549942487821 l-1.6857585122986702,1.7564282228181898 -3.8612589706566185,3.380694195766547 l-3.874090329444607,2.756478865437475 -4.2569631915128285,2.52415339298533 m15.10571853486174,-3.2127900014091084 l0.06536401030350535,1.1032485603684687 -0.5633992393026267,1.2338180067238849 l-3.946845535970176,6.588679752073865 -4.8299784166302135,6.165320901429546 l-5.622401545871782,5.549137766517571 m8.608740068007135,-7.0526090374079695 l0.593486095823891,1.488567924879364 -0.05127755116367608,23.75770634220168 m11.425590197605246,-46.77628450789724 l1.4177992601472125,0.283510061179192 2.0520657948227625,-0.04139824902659702 l19.73408136592356,-2.3808895642033088 3.489330586796456,-0.15912043926583277 l1.8912542332267226,0.26691199439191976 m-15.247079521553,20.189150540962974 l1.1673332311082552,0.7422362510458306 0.9680138177747096,0.44402823438050315 l3.144189428164908,-0.781490953318241 5.339596454381695,-0.7874282342942363 m-14.69439120675798,-23.757766072954304 l0.6832548886446715,2.805100741674804 0.0826011214447449,25.296521968740436 l0.18740521696987283,2.2264932327497853 0.3517319730703859,1.1449788736709536 l0.688848224041225,0.9921066237679507 0.8000824197364048,1.1347862298961808 l1.8907380856204503,1.2306917056197013 2.684696970624166,0.40472634849869193 l6.245916457594589,-0.05100034206190594 3.5364829082586122,-0.41628664890636086 l2.0002234299299535,-0.6430524570943417 1.3597292095967555,-1.0016964309502052 l0.6895638317980453,-1.3075667105087396 0.2586441526713543,-1.9938637199464275 " fill="none" stroke="black" stroke-width="1" /></svg>