<?xml version="1.0" encoding="utf-8" ?>
<svg baseProfile="full" height="119.20827094510987" version="1.1" width="129.56934745170827" xmlns="http://www.w3.org/2000/svg" xmlns:ev="http://www.w3.org/2001/xml-events" xmlns:xlink="http://www.w3.org/1999/xlink"><defs /><rect fill="white" height="119.20827094510987" width="129.56934745170827" x="0" y="0" /><path d="M25,25 m0.0,0.0 m27.17991622277923,22.24269672909547 l0.3852030888714742,0.3207773019105524 0.9000430846241684,1.0327401092009654 l0.32230577299352486,1.3826280656802765 -0.18998346286592424,20.586324765342447 m-20.218414328024434,-25.55910716183271 l2.3499745695153504,1.6445253192051523 2.4196083851042856,2.2638460663759563 l2.126817502245128,2.3657366611722948 1.092883469507528,1.9750594761142064 m-9.411403400540346,15.093068119761867 l1.7931141537286206,0.25437767401762207 0.9690162706058317,-0.14828369026851124 l1.2054355058256883,-0.578944746420895 9.205145990289259,-6.220150828333495 l3.3183018581561123,-0.43060069295287223 3.6920597131880983,0.04746118975154289 l2.8569931495087153,0.5513799716374049 1.6884693192988347,1.0204853340302793 l0.5973885533756108,1.108845696419728 -0.25652255130907387,27.37039613246484 l-1.1377985371751378,2.1117442603714816 -2.4141274115918336,0.7732651923662737 l-1.6685062391290733,-0.509708286575374 -2.648658523120794,-1.277487490067219 m-13.145259315795915,-23.25642710831419 l1.8848544165625443,0.26902924168918824 1.3319699150138615,-0.08632154425428686 l10.535889169267968,-1.825670919678637 2.0506447478101095,0.3987769629814204 l0.24919692977733462,1.5105093307932038 -0.6993287480353105,2.065958665815475 l-1.6020231677237162,5.131264683033155 -3.292896273477608,4.44835364887144 l-4.463114309723507,3.9448532293060588 m47.774367015403925,-26.651438627861456 l-0.37917930546649636,1.1473469014435962 -2.298906639565311,0.8257007469455869 l-4.233601983960185,2.05276319231836 -4.767706637124029,3.0011844162806365 m-5.706998999627295,1.010263059178081 l10.951384818827679,5.953083829108136 8.563516984098154,3.8491887441488006 l7.896330252481743,3.226336653988316 4.7629464271034925,1.3028783994678612 " fill="none" stroke="black" stroke-width="1" /></svg>