<?xml version="1.0" encoding="utf-8" ?>
<svg baseProfile="full" height="100.80416122586682" version="1.1" width="97.68944069247384" xmlns="http://www.w3.org/2000/svg" xmlns:ev="http://www.w3.org/2001/xml-events" xmlns:xlink="http://www.w3.org/1999/xlink"><defs /><rect fill="white" height="100.80416122586682" width="97.68944069247384" x="0" y="0" /><path d="M25,30.65475778530557 m0.0,0.0 m9.4883722301638,3.4213931217177294 l0.31799357305364706,0.14719426659594168 1.755691844804489,0.14573592371405655 l12.515876964932442,-1.722439781164711 0.7452748380738592,0.16560037774350042 m-14.566391199581076,11.256820940099974 l0.2948221300932476,1.9437737499285757 -0.006030206453864889,29.791324841926176 m0.13214674312452315,-31.659174981162245 l11.842319658325323,-1.9227077644137387 0.9081568345740657,0.15403499695049142 l0.6154607275202033,0.7588994992512669 0.2455965521303507,1.3518545597236538 l-0.13866648413705784,30.481006216304134 m-8.981041965960024,-39.77741056482 l0.38676777626109304,1.6529168337173346 0.04443006499442154,1.248052737928041 l-0.648727592236913,8.86792643297994 -0.8918379800015909,5.485914619444022 l-1.4501553223365697,4.963505555474839 m6.24788212197447,-23.022894343320246 l0.34772432090657335,2.7945613895596644 -0.09599353984178363,13.377139741372014 l0.24930111480951292,2.885225536858369 0.43920197905065905,1.0088822667315276 l0.9564427373799441,0.5670780158905142 1.9686577844356214,-0.07261460428866062 l0.8455326412301315,-0.4540009024306364 m-10.874736555661869,10.056731449945588 l8.936508882279007,-0.9747364043460593 m-11.231486437523023,10.648834795641914 l13.513350342298835,-1.2933845054204054 m3.099190423632692,-32.98149589217392 l1.712785329862495,0.334693543618041 15.8343141204643,-1.9231331736390496 l1.8181891526440892,0.31313674390681473 m-10.880969678122693,-13.673003025150022 l0.4850453205848113,0.9965599454930255 0.23523472795938438,1.7977440896638508 l-0.08319437200727339,24.783233031834285 m-7.745748452372108,0.5697898892450235 l1.33696015451787,0.2065375274354097 11.980716242908942,-1.240763474278832 l3.6324254405732512,-0.13239486096674746 m-16.773522299306443,18.27549835376919 l17.96094746200322,-1.250708168367151 1.1646225404488533,0.18541282537655904 " fill="none" stroke="black" stroke-width="1" /></svg>