<?xml version="1.0" encoding="utf-8" ?>
<svg baseProfile="full" height="114.33294672611154" version="1.1" width="102.91786707775353" xmlns="http://www.w3.org/2000/svg" xmlns:ev="http://www.w3.org/2001/xml-events" xmlns:xlink="http://www.w3.org/1999/xlink"><defs /><rect fill="white" height="114.33294672611154" width="102.91786707775353" x="0" y="0" /><path d="M25,25 m0.0,0.0 m28.629905723001094,21.04781203752588 l0.3357784753071184,0.09947562430592065 12.31143458894897,-1.724716289626766 l3.824856193262832,-0.16215946482553742 m-17.540109013828218,-8.75245812983418 l0.7700393624772702,1.9476261862489979 -0.0676694804379686,16.666164518333407 m-12.165071059483191,1.4014505855164954 l0.5933654466378516,0.9471405746365583 0.5221969384253348,2.6202738233185365 l1.53211048330944,13.074288664268906 m-1.4534526656644153,-15.524192167491208 l21.754384774361768,-2.833817207746866 3.716833494467101,-0.23960595968280554 l1.1366559919772308,0.18995286666112168 0.7649672395032828,0.7267320053350631 l0.17908360144454474,1.1405744225137198 -1.4832869488236582,13.236197775119873 m-24.325733054998935,2.946714142518556 l25.025018423381436,-2.390115479742164 m-33.74987829738098,11.04952830358006 l-0.32004385946242164,1.8607332080005938 -1.1634074553232856,2.655045693154511 l-1.3732861065956747,2.2013454252377156 -1.7145301736455267,2.148955568785139 m14.662535034710524,-9.84051768798901 l0.8643630230446171,1.2846228054492448 0.9934136866009542,2.3173363376239164 l1.380017910336417,5.417749777364583 m9.87393256603184,-10.242062897067434 l2.266002660520129,4.133369956322668 1.2023174476915948,3.202742261984436 l0.526599939507206,2.1817012130289695 m8.34985030090706,-10.579605277685294 l2.085178143161593,1.9873837525585218 2.184156244696588,2.8378083498132405 l1.791589435007988,2.996578566721372 0.9977480646760206,2.500469451992147 " fill="none" stroke="black" stroke-width="1" /></svg>