<?xml version="1.0" encoding="utf-8" ?>
<svg baseProfile="full" height="109.63693641406633" version="1.1" width="93.59329128109147" xmlns="http://www.w3.org/2000/svg" xmlns:ev="http://www.w3.org/2001/xml-events" xmlns:xlink="http://www.w3.org/1999/xlink"><defs /><rect fill="white" height="109.63693641406633" width="93.59329128109147" x="0" y="0" /><path d="M25,32.24911752942466 m0.0,0.0 m6.737975283458084,5.003475353846834 l0.40517180320387663,0.1974335692336169 2.6191213254305765,0.21069976745705288 l25.56919922422031,-2.227002265981629 5.595351354496374,-0.15737534942994888 l2.6664722902822335,0.26721595623922273 m-20.128920616607633,-10.543564560789807 l0.2378847917286584,1.7557087573162682 -0.4595757927877284,2.759979057303546 l-1.8694685955540398,6.999445992551326 -2.7380218755631023,7.343187739398963 l-2.609923556428498,5.591269348114564 -3.0460303561247275,5.470918686386926 l-3.362214737325676,5.03920538408458 -3.920020626142378,4.623542975512811 l-4.012780524899935,3.5818045484923045 m15.956823613742928,-15.580049401954598 l1.5256445649367478,0.020429653943714276 3.1675144307259355,-0.4406660914689507 l11.261604932446838,-2.1693840613634117 1.277175464128251,0.3194033103667959 l0.3906696413010241,0.46615812985067356 0.07955453856802536,0.6035989916889521 l-0.16375235043188624,1.428242591722156 -1.846725630082066,4.318694027890286 l-2.308942639463266,4.306905930408154 -2.828769597937229,4.346438794227456 l-3.56111347553863,4.494538436582333 -4.103689318142347,4.302787289155891 l-3.4348352397684314,2.9844231923560143 -3.735324725220526,2.643220656978801 l-3.9695058589243684,2.2178406600253964 m8.466153838881576,-21.586797602841468 l1.559911295079522,0.881646726424137 2.6623677124763367,2.112619036865458 l15.49253940000007,17.256609680312305 2.6050505276359583,2.3752068542947318 l2.2677858582163237,1.170007119440221 " fill="none" stroke="black" stroke-width="1" /></svg>