<?xml version="1.0" encoding="utf-8" ?>
<svg baseProfile="full" height="102.3597221298482" version="1.1" width="96.26021039208183" xmlns="http://www.w3.org/2000/svg" xmlns:ev="http://www.w3.org/2001/xml-events" xmlns:xlink="http://www.w3.org/1999/xlink"><defs /><rect fill="white" height="102.3597221298482" width="96.26021039208183" x="0" y="0" /><path d="M25,25 m0.0,0.0 m21.285004378285322,10.540341228397997 l0.0708121692640637,0.4175958736999891 -0.22693314698418926,0.8144511366048751 l-0.9753763550254924,1.610593004354644 -2.814903422429687,3.409835149927085 l-3.3142113662086783,3.0246695098417646 -3.90869273198689,2.6557531217225954 m11.81058208463523,-8.619209821111458 l2.7290189369103737,-0.28689831712596164 7.571954774698287,-1.5647278823387702 l1.3875585971254873,-0.07454559948438191 0.7003881229419456,0.30378739791945314 l0.2789933901167105,0.5152185064793557 -0.42401636199800974,1.380540904256103 l-4.484856037255816,7.983151303552166 m-14.709175641630003,1.8715007204531005 l3.4142815825856614,0.3575927308289476 20.54631640439136,-3.1366047395318155 l0.7238014302732495,0.2577705319035777 0.3781687671980026,0.44103710505670524 l0.24610111962208336,1.1973921802240732 -1.6593945413091586,10.713633512131052 m-25.680355100059444,-9.133224087132835 l3.8776796895504426,0.1430646002691648 25.880761556892146,-3.108532169650378 l3.5567020924788233,0.20639131718452072 m-29.740929398939997,9.337893824333854 l2.9701106931319345,0.20994956888263752 15.689892684563928,-2.211308131065039 l2.16763645581033,-0.17234507956837108 1.8072757173155873,0.14893934651029206 m-17.161098055714792,8.771734539763013 l3.9722245064586263,0.20221949591228447 9.844227189209663,-1.6987834275654285 l0.8949638616085881,0.04410680096440374 0.5400553299324236,0.8152710488770881 l0.027936727663154793,5.337176625507312 -0.7409869705126677,3.5420667018336376 l-1.2905544654986238,3.3188248401232965 -0.9704910995812778,1.9116659778509608 l-0.9761684096170673,0.881732779056686 -0.9013710512964898,-0.07507970307963592 l-1.0819168691859988,-0.7298677508963461 m-4.603680399598658,-16.77571906345408 l0.15985880422618118,0.9848925189673514 -0.8701634573601894,1.0106270515216693 l-2.2766912405716866,2.494411380499476 -2.675703582127176,2.5487841848225794 l-5.6864338985693035,4.300873022379524 -5.9063225086337665,3.257165803493227 " fill="none" stroke="black" stroke-width="1" /></svg>