<?xml version="1.0" encoding="utf-8" ?>
<svg baseProfile="full" height="104.92315595563201" version="1.1" width="100.83452253964424" xmlns="http://www.w3.org/2000/svg" xmlns:ev="http://www.w3.org/2001/xml-events" xmlns:xlink="http://www.w3.org/1999/xlink"><defs /><rect fill="white" height="104.92315595563201" width="100.83452253964424" x="0" y="0" /><path d="M25,25 m0.0,0.0 m30.17890384197392,21.12530568884568 l0.3522479864767211,0.30156372048316854 0.8153077898682917,1.1796886455095397 l0.19783595863767095,1.5325172430729523 -0.1658784864295538,23.17378662754712 m-17.562994179368342,-24.922426673362267 l0.5682472856057026,1.5409941271996224 -0.5975491962975368,2.0079042901354587 l-1.3537377965348552,3.227978635620115 -2.067062425705465,4.441719490136451 l0.1626207064414798,0.5238023162012444 0.580277462178482,0.3639590000303535 l17.894052642548537,-1.6730040597278573 19.526830111500868,-0.9473897855029367 m1.1738841648824405,-10.763224581754091 l0.720855495447423,0.8262164582275103 0.41068117841845253,0.9600636498131205 l-1.965622631157048,11.498745166108039 m-40.18679849540567,8.88102688748344 l0.754126120675692,0.8231463283148697 0.27740256235396443,1.006053935652106 l-1.022287919597793,5.472764351900226 -1.2877234004574445,4.086490356191045 l0.22327842948017623,0.2554741375071026 16.07088366178825,-1.2384181744865486 l9.931948218463202,-1.0861344137348947 9.309858286027799,-0.7203441201201053 l3.863549062743447,-0.2847011444623551 m0.7731442295916888,-10.21465320854149 l0.7073808062944795,1.2618431018400136 0.1875481926966148,1.0480537292743444 l-0.8294068619840625,11.056822597373532 " fill="none" stroke="black" stroke-width="1" /></svg>