<?xml version="1.0" encoding="utf-8" ?>
<svg baseProfile="full" height="91.5058776923731" version="1.1" width="113.1115799313427" xmlns="http://www.w3.org/2000/svg" xmlns:ev="http://www.w3.org/2001/xml-events" xmlns:xlink="http://www.w3.org/1999/xlink"><defs /><rect fill="white" height="91.5058776923731" width="113.1115799313427" x="0" y="0" /><path d="M25,25 m0.0,0.0 m36.13842785962622,2.7113430721823337 l0.3147027105056119,0.46387734528842167 0.5050318651761394,1.6609289723877634 l0.06720657950576366,5.8016122734447615 -0.3510610770678372,5.475401931305058 l-0.7930268385586512,4.786074380145808 -1.2521465252091069,4.681268955806852 l-1.6996652511815828,4.61423588762364 -2.0810714512922814,4.167914596801218 l-2.6041854490513208,3.7457321605245375 -3.101149739330505,3.397488116862697 m-2.6085262702239995,-29.62487761222455 l3.1698376538184636,-0.12445331895692513 18.020984679999483,-3.6811203533428842 l1.330538387616565,0.6071697606012866 0.14066502209580295,0.5974583766531855 l-2.130008757852272,20.70046636207154 0.1817252049395327,3.896936679055286 l0.572903965812777,2.594787346043815 0.7059452345505914,1.6130590153473825 l1.347279890858174,1.3453889948563593 2.269098733849749,0.8562895136962686 l4.556152147469637,0.35155579454982777 4.062334663165532,-0.22104965371723315 l2.0541678713228837,-0.4750235718436714 2.020679438274124,-0.8291438478638832 l1.3053423450230361,-1.011347945653721 0.6431431933197009,-1.202556165128713 l0.2647811837410507,-2.0675485146280326 0.06147266043944116,-3.1787807486483155 m-33.45324935894917,-14.344193161533616 l2.7304669577520326,1.0649087328008433 2.529275874457682,1.6744864748877741 l2.298551279208761,2.111269899189412 1.5037666647769654,1.890667705349779 " fill="none" stroke="black" stroke-width="1" /></svg>