<?xml version="1.0" encoding="utf-8" ?>
<svg baseProfile="full" height="115.27605112163904" version="1.1" width="91.6896489588279" xmlns="http://www.w3.org/2000/svg" xmlns:ev="http://www.w3.org/2001/xml-events" xmlns:xlink="http://www.w3.org/1999/xlink"><defs /><rect fill="white" height="115.27605112163904" width="91.6896489588279" x="0" y="0" /><path d="M25,25 m0.0,0.0 m16.502297921617696,4.048323748327125 l0.04092132330839219,0.5112443257118454 -0.09667794890593533,2.005336918222417 l-0.7629021201396164,2.5156202511567565 -1.5904789740109475,7.904867937230151 l-1.6136451366660922,6.476475602538517 -2.6129906800189544,7.57763287002692 l-3.5901444730332304,7.439170952512802 m7.014253987952027,-13.619409431663444 l0.34072921954603796,1.209369609644777 0.09539470551602602,2.0660459775113105 l-0.16904267441315543,37.14137236041986 m19.64735885269211,-55.8984925419114 l-0.039083671967836874,1.2614980829154279 -0.2700757376380199,1.1918939554413466 l-2.6428661609812085,5.151209990397161 -3.4136336829952305,4.927740476451423 l-3.2403286050599927,3.9716455213832136 m14.209603596362626,-0.1330665582683415 l-0.05246811628605409,1.4637108249501003 -1.0541411561593883,1.944088355283069 l-1.9632211029070412,3.093156685776573 -2.25557727101903,3.1455483212359567 l-4.628464442770089,5.492649685194754 -5.016008904070534,4.908284774216047 m18.85084021087534,-6.794878938950399 l-0.035371238098975646,1.64551382734948 -0.8488821362940946,1.4522309807446316 l-2.498593219037263,3.2066393777019506 -2.973414968176769,3.349526800130223 l-3.5534665160271075,3.4992397130600406 -3.338661847791325,3.0480775477097253 l-3.602732795747036,2.967846254004155 -3.8611709178218114,2.7801518929978117 " fill="none" stroke="black" stroke-width="1" /></svg>