<?xml version="1.0" encoding="utf-8" ?>
<svg baseProfile="full" height="101.48751641453372" version="1.1" width="105.33151122707173" xmlns="http://www.w3.org/2000/svg" xmlns:ev="http://www.w3.org/2001/xml-events" xmlns:xlink="http://www.w3.org/1999/xlink"><defs /><rect fill="white" height="101.48751641453372" width="105.33151122707173" x="0" y="0" /><path d="M25,25 m0.0,0.0 m11.672353883437058,4.418849687179092 l0.4442163646474562,0.1636344513073531 2.14004999959619,0.06797840041896683 l10.239625233817184,-2.4057113093680496 1.6033565422006335,0.11589836110321376 l0.5002035106769007,0.386185830968505 0.18656384542398533,0.654375201606916 l-0.20434509037933177,0.8454102612457317 -2.1019315593803056,8.692473873896187 m-11.84719982858054,2.087970934711298 l12.56927481152451,-1.7713845125368988 m-12.892719891671991,0.6964979708393971 l0.2157161046701904,1.6132266700660385 -2.273923162538807,8.866609337231615 l0.18084256700461163,0.5362081128173537 0.544410666350185,0.2140304127908825 l11.246362322263856,-1.28588798986825 -0.12774004654331927,0.4889788159780689 l-0.7685858001853593,4.519788033812869 -1.4679077240120821,5.803928120105329 l-1.6898644745838427,5.019307488745066 -1.7657961335655121,5.6057785955454715 l-1.2881949206548045,3.500351281742599 -1.2744153972154926,2.007205065075461 l-0.7127487358449598,0.5442557320494248 -0.6739522420121788,0.10155758707008433 l-0.6288792336510702,-0.2611167302453847 -1.0456415086411723,-1.2621992975459866 l-0.5841053120519226,-1.355202536773196 m25.010919776816554,-46.96172442172326 l0.49933812185246634,1.6189755044515433 0.10697769588300043,6.863294396370672 l-0.2914903325618545,11.475019192094903 -0.46208781183443004,8.024935230095757 l-0.839199508960237,5.609720346056817 -1.4067892552447152,4.756800995768535 l-1.9792220330542636,4.088946032594481 -2.63181897212858,3.8084831464030926 l-3.4107588636449746,3.3927825569696166 m1.598173079390131,-33.70483349122827 l1.5654093089256238,0.3114567305579992 1.2749007049972783,-0.131580542913751 l13.483514284275563,-4.3182642247659375 0.6611080457053636,0.6410366909279611 l0.059383233905376,0.738260277369221 -2.6585727453401478,22.359831202383322 l-0.10564939792777042,7.329954704651263 0.688095730436521,1.8656696459488458 l1.3678596024118654,1.292341016357793 1.85629939359789,0.6459550931339932 l3.5651857843154655,0.20275176870151046 3.2498604348274798,-0.302486183810852 l1.7914998334637082,-0.4543134611976841 1.4110073513115355,-1.0839506109671242 l0.5476171790753559,-1.609711320988293 0.1849257964774483,-2.4924945944110033 m-22.927635859318535,-17.700850741835545 l2.8596899566152056,3.4386026613997505 1.1784991702976964,2.1088900237839985 m-25.133633134071495,12.512238150210754 l2.54020428904106,0.3570542485429219 2.430641789516769,-0.07547913317453452 l32.062544004292775,-3.153336106333823 2.0792315555747423,0.36371949710949636 " fill="none" stroke="black" stroke-width="1" /></svg>