<?xml version="1.0" encoding="utf-8" ?>
<svg baseProfile="full" height="111.39332261442874" version="1.1" width="98.35577170512988" xmlns="http://www.w3.org/2000/svg" xmlns:ev="http://www.w3.org/2001/xml-events" xmlns:xlink="http://www.w3.org/1999/xlink"><defs /><rect fill="white" height="111.39332261442874" width="98.35577170512988" x="0" y="0" /><path d="M25,25 m0.0,0.0 m28.933080869155273,1.0800901705930661 l0.3050177139814175,0.380100039599698 0.42827127817656035,1.4842138696446907 l-0.02081994568034842,8.251584901958038 m-13.767213092462125,-5.010026920446797 l0.3462838048352814,1.416066387879783 -0.8768353563040624,5.938138348804032 l0.49847740823777165,0.43081114530012693 13.73024364376071,-1.9970079432252754 l13.645243943519851,-1.2530377391671281 m1.109866577458039,-7.921531640030877 l0.4701255473332428,1.113327308140908 0.010606844272971096,7.846065470650627 m-26.953601169896437,5.430171630784915 l0.5136446024865676,1.4957989130086506 0.031194810079710655,6.22015933526405 l-0.16964742865913474,4.43515654392758 -0.5732643265226998,4.159388553634306 l-0.8834000992264708,3.311597524271598 -1.0179859214220648,5.007870006075475 l-1.165070467665623,4.824218283302055 -1.2788287748749663,3.9206191268546284 l-1.1962181470540498,3.432751833759527 m5.614413231003821,-33.172181683237916 l7.981646345785707,-1.9406692042268416 0.8761056140785702,0.18368031974318702 l0.6487285059372967,1.0084108052766747 0.021880422715458182,0.6399836623185939 l-0.1540908467672158,32.71686755594616 -0.3021581911933125,1.0834002860649306 l-0.47168721292245336,0.3008373379519995 -0.5645462890367234,-0.2571258598391187 l-1.728220172309864,-1.9307597499522722 m-6.111457914504441,-21.804041609363026 l9.047611087268026,-1.438682336552709 m-9.520787361575165,9.588737541645436 l9.711918127593652,-1.2214991259471806 m6.5323855398025925,-18.443742918879227 l1.6788767013085795,1.62714481626618 1.548425396681355,2.728760574365691 m-7.296463070147244,4.475170157515609 l2.2141104684671085,0.20412475004333566 10.321814077376823,-1.5387990013933401 l2.2966389735399533,0.08180988379168985 m-12.407056927972167,6.037679868298334 l1.7737405246618456,2.78628648448365 0.727389976388729,1.925132773968398 m8.652033436443062,-6.905059568794017 l0.14456558734617636,0.8419865915190935 -0.19506455852084376,1.114734963163341 l-2.2625138469746475,5.761938482141052 m-12.450067165465459,2.544733966837266 l1.2246125077677779,0.25938560602860944 1.8331251278348852,-0.032968266379501454 l13.32412798295843,-1.8562624977642024 1.9101051475699053,-0.05368940197177983 l1.6164581664602418,0.24356305358618588 m-19.457956818377244,9.569424913164772 l1.9828674682066463,0.2999804033130311 12.622558880386453,-1.5108516424530227 l2.560258569469557,-0.173367504003959 1.440940272816505,0.201407832759392 m-10.309452657647347,-6.344053844920482 l0.498417464639163,0.9999904539021255 0.13801942519081423,1.3032935136005 l-0.04861493614234114,17.492085081828428 " fill="none" stroke="black" stroke-width="1" /></svg>