<?xml version="1.0" encoding="utf-8" ?>
<svg baseProfile="full" height="102.60097308787164" version="1.1" width="96.79374192580738" xmlns="http://www.w3.org/2000/svg" xmlns:ev="http://www.w3.org/2001/xml-events" xmlns:xlink="http://www.w3.org/1999/xlink"><defs /><rect fill="white" height="102.60097308787164" width="96.79374192580738" x="0" y="0" /><path d="M25,25 m0.0,0.0 m12.198879021463247,4.7740936066039525 l0.43135121967529155,0.5188632759534939 0.6207278691988718,1.3042136832603473 l0.9434290514911253,1.7643097241095673 2.899304139587118,16.46735139274992 m-3.1367508793987273,-19.267013465167068 l25.512639025713113,-3.019493243997603 4.284919849557932,-0.6248384344824595 l1.5635372311964952,0.1684064525831877 1.040627226851848,0.7846537745684208 l0.4350781704710631,1.443442682391009 -3.3666510753174475,6.412055385004486 l-3.8400882672821646,6.288381506541447 m-25.717467239110718,2.715124541354042 l28.879434019453985,-2.4817383879041466 m-16.424400038921643,10.248832952926437 l7.576525094337955,1.1781350135897186 10.049382927820876,0.37539843936181805 l1.620432205816345,1.5084223129142829 -1.285716453179935,4.3909379691934385 l-4.028458935809405,7.569134938952314 -3.8126276162800576,5.431945154505456 l-3.2495387700052216,3.5933935160473323 -1.623356889551037,0.9586490543812439 l-1.3593085443569985,0.09831124243099892 -1.292976540397294,-0.7317300020670798 l-1.7656714278604149,-1.9861227833574824 m1.688587435307497,-29.055091449491737 l-0.0892213011704029,2.056063699098768 -1.7164930699013954,3.724667639479003 l-2.5389943655779246,4.239681121569833 -3.2587648348265286,4.317912362094361 l-3.1140052746191142,3.3723045980596167 -3.5996092555101047,3.2979302841106652 l-4.099776370207413,3.098035690957055 -3.3632676675388367,1.9616416677736064 " fill="none" stroke="black" stroke-width="1" /></svg>