<?xml version="1.0" encoding="utf-8" ?>
<svg baseProfile="full" height="91.6601118812888" version="1.1" width="99.2105303584118" xmlns="http://www.w3.org/2000/svg" xmlns:ev="http://www.w3.org/2001/xml-events" xmlns:xlink="http://www.w3.org/1999/xlink"><defs /><rect fill="white" height="91.6601118812888" width="99.2105303584118" x="0" y="0" /><path d="M25,25 m0.0,0.0 m21.804130583129993,4.34927471951694 l0.05122644693077099,0.4124182795804974 -0.4825780541164909,0.981104743014567 l-1.3471933347814664,1.5930004001414806 -3.7729055040397643,2.751566933535186 m-6.235446693371901,0.8364455769798732 l0.6820251174784666,0.7265294324504301 0.32478863494481686,0.586123666872562 l2.1493097566250396,12.086495730712727 m-1.8577996121333424,-12.85180073548473 l22.410541278827687,-1.9358404277024521 1.617522455898343,0.17500095406467436 l0.7713555141632839,0.6955170168537563 0.11886514094670565,0.9907589221965508 l-2.7000072313232146,11.218624199696105 m-21.15230994036218,-5.89923641784096 l14.84829177389326,-0.8930081781918142 m-13.870492760474955,7.083112003422443 l20.18770947872552,-1.2192805469501693 m1.9838215728549913,5.881033298440812 l-0.15571774223919496,1.1008286498236621 -0.5447598109672467,2.7993304699659465 l-3.2006673160516086,3.9235544559703714 -2.9713724731854927,4.252321881069228 m-11.804425353939191,-12.235350488363583 l1.6468132742164805,0.7554728846884934 2.1751661767447206,1.2463518923303205 l1.6923678395132318,1.2009861832865816 0.885783144470377,0.980642490064025 m-9.86403547997812,9.77887693498476 l1.4378667971166748,0.2892569561605067 1.2960870239198832,-0.23902628639691934 l9.568852576537754,-5.082437078932711 m22.10946147176516,-10.05318702304693 l-0.13239502407354592,0.7252469563115439 -0.5479210632028285,0.5901808377012339 l-6.152124017899785,1.9140105506857166 -5.265158242506889,1.0242162516123554 m-0.04447210695215958,2.627808487179306 l3.4341016724425804,1.0393897137245407 4.377073584607215,1.8362815430954986 l3.5164554479985113,1.8659633181261341 2.2226953562597087,1.5521442887243153 " fill="none" stroke="black" stroke-width="1" /></svg>