<?xml version="1.0" encoding="utf-8" ?>
<svg baseProfile="full" height="92.90325711445945" version="1.1" width="114.4029341895124" xmlns="http://www.w3.org/2000/svg" xmlns:ev="http://www.w3.org/2001/xml-events" xmlns:xlink="http://www.w3.org/1999/xlink"><defs /><rect fill="white" height="92.90325711445945" width="114.4029341895124" x="0" y="0" /><path d="M25,25 m0.0,0.0 m6.765554205352801,18.588131191501446 l0.026637520666725065,0.4726068396665731 -1.507109143548222,5.538285754737006 l-2.3567034445795847,5.996799648171045 m4.50204027535795,-10.53722641301647 l34.13275086630323,-1.955525840747876 13.21310564303704,-0.8808489415158497 l2.898477283136261,-0.08393742975536934 2.092456009478841,0.2861082931422833 l0.7511592360416117,0.5017932603479937 0.10282274632425238,0.6571882852216756 l-0.38482077406840026,0.7306914782432794 -1.7611003098959999,1.5778535778364238 l-3.222939654685929,2.538839019285897 m-32.384982175387606,4.504155130791121 l-0.031246601768074627,1.2947465182457296 -0.968040283912349,2.1441510605735377 l-2.0194038008887527,2.849624296655842 -2.526546996013407,2.429795415716173 l-4.885499599103191,3.25491372864738 -6.228156452006608,2.9951122407116015 m32.71531868604474,-17.185741789159753 l0.9686447945137601,0.8437855568933947 0.5355485914527707,1.030978771490455 l0.16456365630334993,8.001937946760181 0.5185718450755039,1.7895614124005912 l0.7458988260078894,0.969032668560304 2.1411212905364927,1.2078350846928128 l3.5224089488304933,0.4737245252344858 7.439553897279746,0.04958987169033829 l5.1416406719489025,-0.39471947476856745 3.0071798363994775,-0.6580209963406247 l1.2940285952786785,-0.839189545732516 " fill="none" stroke="black" stroke-width="1" /></svg>