<?xml version="1.0" encoding="utf-8" ?>
<svg baseProfile="full" height="110.2307976622536" version="1.1" width="95.69612655857037" xmlns="http://www.w3.org/2000/svg" xmlns:ev="http://www.w3.org/2001/xml-events" xmlns:xlink="http://www.w3.org/1999/xlink"><defs /><rect fill="white" height="110.2307976622536" width="95.69612655857037" x="0" y="0" /><path d="M25,36.07771541281278 m0.0,0.0 m20.910985805531823,1.0940141014777562 l0.02291706552617421,0.4546150964158274 -0.3801524366761975,1.966313220191929 l-2.450127682254568,4.289670681298906 -2.8338130910235817,3.5769622050604544 l-3.495216991154503,3.287102632483493 m0.10774754017157158,-9.4254123498535 l1.2682627886979938,1.2075400319974066 2.085254952355713,2.8017859187115284 l2.437502429316601,5.20225757722613 1.6548701651787094,5.345653306419257 l0.7674581589117304,5.767758107073224 0.16403628249161922,7.05607129112817 l-0.23042783512832385,4.324285108590633 -0.7003880846026928,5.212740394914618 l-1.0033812878335966,3.899394112912562 -2.4288258427211975,3.0923308133924157 l-1.075552484424497,-0.735473610752879 -1.1773610192664055,-1.581110647344335 m3.826081704924015,-27.384571206956007 l-0.27141550458379254,1.6133204417073512 -2.3385198353541323,5.411246659559394 l-2.141931237452374,3.6808607486832456 -3.015726454177439,4.050974629674011 m14.254563917013673,-34.40238310670601 l2.0141184192142756,0.34571053299831167 17.8171177381327,-1.7031362008270272 l1.908049377757083,0.23082775632507666 m-20.826801594774828,8.815084551028752 l0.427292667140897,0.8516259348376332 0.4303357908130824,2.7582328267640626 l1.200288784990315,10.839136678838152 m-1.1237068320523518,-13.17379745697128 l8.585656026342962,-1.7108176365463053 7.017482695782977,-0.8817698623899531 l1.3201093860284145,1.0154203273371631 0.1123883168628206,1.3940479302587887 l-1.6393690599442992,9.507366251738336 m-14.35996637411979,1.8512452681219633 l15.37444262996487,-1.5648108725062293 m-9.757850533978306,-29.458027599125806 l0.5202001626532876,0.9293439839687645 0.2617063707974653,1.9070919265953548 l-0.08688949711772288,53.23413458652664 m-0.12759740434416533,-26.727058249590502 l-2.0476156510121646,5.001759651280754 -3.1814127936790193,5.751655827674574 l-3.459167834917373,4.8821344829104785 -3.3009821997329616,3.348457140330268 m12.698858821571168,-14.39287809563436 l2.6347359571703532,1.9073752810280724 2.5351698123477333,2.60968541802158 l2.5056020163834307,3.312894806472473 2.043818254440032,3.1417917300935194 " fill="none" stroke="black" stroke-width="1" /></svg>