<?xml version="1.0" encoding="utf-8" ?>
<svg baseProfile="full" height="111.74417249036674" version="1.1" width="97.70367298225037" xmlns="http://www.w3.org/2000/svg" xmlns:ev="http://www.w3.org/2001/xml-events" xmlns:xlink="http://www.w3.org/1999/xlink"><defs /><rect fill="white" height="111.74417249036674" width="97.70367298225037" x="0" y="0" /><path d="M25,25 m0.0,0.0 m29.383964187041503,13.394098903786892 l0.29375431237346233,0.4129916990405584 0.24234988429559198,1.7056203938835686 l-0.16945972792112082,5.904979387915848 -0.43848976967373227,4.82092816014361 l-1.2672807656603786,7.8201503176771885 -1.2600369479396913,4.753438403310257 l-1.4883820647171768,4.353516173078266 -1.768612150829523,4.001460588676522 l-2.0925372405036886,3.8220028913809534 -2.607341477497007,3.9452365361877417 m-5.405675449682691,-29.30519753570748 l1.63060315611948,0.4498834191747735 1.9566930444055533,-0.11048795447950012 l26.990840126434453,-4.067817703569601 1.7696880001554975,-0.06820008502829074 l1.9335958658498316,0.31289997469845515 m-26.989584965410387,20.767900412197044 l0.6502563957212637,1.147698359703502 0.2733139327027406,1.1186099712843984 l2.2069458830709165,16.564460177012016 m-1.7384754953775854,-17.351435026906763 l16.06784003797868,-2.4722038109216746 4.197022424755203,-0.38626235289756927 l1.2846854621026444,0.2771666850840866 0.7483357589853746,0.7574585132224638 l0.1800817112943425,1.3689146072680827 -2.6642152788750915,14.15194628108153 m-17.730979435025173,2.448227864933894 l19.181683609385903,-2.187749879520372 " fill="none" stroke="black" stroke-width="1" /></svg>