<?xml version="1.0" encoding="utf-8" ?>
<svg baseProfile="full" height="109.42174846306443" version="1.1" width="109.49251330690458" xmlns="http://www.w3.org/2000/svg" xmlns:ev="http://www.w3.org/2001/xml-events" xmlns:xlink="http://www.w3.org/1999/xlink"><defs /><rect fill="white" height="109.42174846306443" width="109.49251330690458" x="0" y="0" /><path d="M25.000000394070376,25 m0.0,0.0 m-3.940703763305464e-07,13.858630657196045 l0.4191247373819351,0.4805918410420418 0.8188299089670181,1.7210794985294342 l0.7953575253486633,3.979489803314209 2.3106320202350616,16.72142267227173 m-2.7802053093910217,-21.62562131881714 l15.058094263076782,-2.981071174144745 1.9811326265335083,-0.0962323509156704 l0.6531725823879242,0.23354129865765572 0.444454587996006,0.43938860297203064 l0.3102485463023186,1.5501873195171356 -2.4965953826904297,16.479943990707397 m-12.514976263046265,2.890981435775757 l13.895622491836548,-2.317091077566147 m11.110013723373413,-22.760398387908936 l0.6749562919139862,0.9679383784532547 0.3346496447920799,1.7987577617168427 l0.02074937568977475,25.41952610015869 m-6.127799153327942,0.9686137735843658 l1.9145996868610382,0.25080783292651176 2.6518672704696655,-0.12281815521419048 l21.452701091766357,-4.419722855091095 4.634351134300232,-0.6382280588150024 l3.9315319061279297,0.143377548083663 m-13.228265047073364,-31.449553966522217 l0.6362860649824142,0.9449725598096848 0.3735731914639473,1.6488049924373627 l0.02074937568977475,55.33442974090576 " fill="none" stroke="black" stroke-width="1" /></svg>