<?xml version="1.0" encoding="utf-8" ?>
<svg baseProfile="full" height="100.11208871361765" version="1.1" width="105.42122405200911" xmlns="http://www.w3.org/2000/svg" xmlns:ev="http://www.w3.org/2001/xml-events" xmlns:xlink="http://www.w3.org/1999/xlink"><defs /><rect fill="white" height="100.11208871361765" width="105.42122405200911" x="0" y="0" /><path d="M25,25 m0.0,0.0 m27.335517076503375,5.817849829880384 l0.038477226757527246,0.41517879010785563 -0.41520112192635106,1.5201831373951094 l-1.6566084738526214,2.5810816528439497 -2.4306860878923477,2.9831995880826465 l-2.9338454371599396,3.18057934795995 -6.179110565489451,5.612840957594902 l-7.863398417836279,5.333813455239875 m22.4316095932616,-20.92592911421582 l7.89790204691931,6.28836017634428 13.167538769364992,9.436518689011196 l2.7634915565238463,1.6432789886654258 3.2655378868354537,0.8847864597248296 m-34.94097491179857,-4.843653487824364 l1.2282351559200106,0.11599054110413655 11.013474179331016,-1.1983196710891806 l2.0846913231939994,0.09133504767433409 m-20.472849537857098,8.142772542862632 l1.3835776528972477,0.3092545481601517 1.6411835119198463,-0.031325671014447096 l19.084495525969597,-2.0686731592143803 1.5226155351662107,0.13253244607991108 l0.5597902855301479,0.3478427702888329 0.1806390241214835,0.6117454032680231 l-0.29483625678454933,0.8313725042626531 -3.944991286804989,8.478390202728349 l-3.045040977382337,4.319893854449859 -1.0379667579201928,0.3796973999819854 l-1.1990048585868445,-0.4957356748173415 -1.4901482864760287,-1.0607034932761041 m-11.113703523351337,-11.598718385005924 l0.8758132151889408,0.7595628096085166 0.399128839098886,1.054622422914312 l-0.13828091847692583,21.062463803841094 " fill="none" stroke="black" stroke-width="1" /></svg>