<?xml version="1.0" encoding="utf-8" ?>
<svg baseProfile="full" height="103.48834230432222" version="1.1" width="97.149885269399" xmlns="http://www.w3.org/2000/svg" xmlns:ev="http://www.w3.org/2001/xml-events" xmlns:xlink="http://www.w3.org/1999/xlink"><defs /><rect fill="white" height="103.48834230432222" width="97.149885269399" x="0" y="0" /><path d="M25,25 m0.0,0.0 m15.79886306313223,6.783849303058457 l0.5482421301584043,0.1891253700899879 3.136507891807317,0.14977324466956746 l24.63542847284561,-2.75739560477422 1.5880893570370176,-0.05305229888544008 l1.4427543544184134,0.26057021543078557 m-31.99391432336949,3.78454767113629 l0.5139610339236139,2.0362875068121387 -0.4431195233163921,12.215449409335765 l-0.6311845977405962,7.942651298205732 -0.8223212567238963,5.960468952983973 l-1.236192929541396,5.498492411658195 -1.2436184572531084,3.843417215256127 l-1.6296948480961797,3.506921615143436 -2.066981918152262,3.086986924004332 m13.442455915522464,-34.34972724970357 l1.204915277060404,0.2897795668491489 1.447616591861216,-0.049059970812519914 l14.804028013000867,-2.2773983369387816 2.3932156871296812,-0.12046652880170478 l1.6083528254171355,0.23210788476534802 m-12.173727917086937,3.185622414788488 l0.20466114496000823,0.9673974017476501 -0.23406440007806817,1.2091619044869761 l-2.246297227382136,4.077834847968047 -3.815978695677478,7.30414211464365 l0.3902990055423984,-0.17509416741950598 1.255966193856531,-1.492267659737111 l12.191144124318093,-4.63866263332467 m-1.9697474172827185,-3.778001383990538 l1.3705560640842753,1.3193988162219532 1.7512273497210868,2.304355322543461 l1.370664098702707,2.2406512087025825 0.6720443856751424,1.643877825401401 m-12.02632154572439,-0.28654376459477326 l0.6626307624150427,1.2164513975772155 0.08968395985996924,0.7364218422864011 l0.1327961351888181,19.894496602202263 m-10.405093190931042,-10.449000776304471 l1.690134123893723,0.17401354393305735 14.908788521532012,-1.6565673922706199 l3.862379414765819,-0.09960632478608941 m-24.69422421519676,13.345874988475856 l2.216523616545819,0.27105757628795035 9.979112413749615,-1.2713691286313449 l15.860652347022036,-0.8977467987269452 2.038351482427785,0.2284708853472094 " fill="none" stroke="black" stroke-width="1" /></svg>