<?xml version="1.0" encoding="utf-8" ?>
<svg baseProfile="full" height="106.38943866752204" version="1.1" width="99.4790791316041" xmlns="http://www.w3.org/2000/svg" xmlns:ev="http://www.w3.org/2001/xml-events" xmlns:xlink="http://www.w3.org/1999/xlink"><defs /><rect fill="white" height="106.38943866752204" width="99.4790791316041" x="0" y="0" /><path d="M35.546682944051994,25 m0.0,0.0 m26.448004262296067,7.510560017077219 l0.03056614510162596,0.43449065126615566 -0.4267693541407554,1.6548574261351001 l-1.5780836047607245,2.7743996430943905 -5.328767796044804,3.2448973720641305 l-7.197918104646832,2.947499849449872 -10.939038358910963,3.8171546774703633 m-1.3188668815709506,-14.136838452784213 l7.503242875108836,1.1420672963553047 7.459913237225389,2.332766925319545 l6.714928427258331,2.8718988493404543 5.421234934920728,3.3979174574279636 m-15.734899617018314,1.176771860461238 l0.23141057236757362,1.809815477153538 -1.194809617244916,3.0720664916651166 l-2.0306103246027454,3.9173898447446533 -2.743187571247886,4.005260687660679 l-2.7164800600677252,3.2006184991094537 -3.403081246494787,3.265343292429699 l-4.022889361890663,3.1500052205965003 -3.5228103857198723,2.306947078975566 m-2.1977711139686043,-17.78814967782024 l2.7223292361834908,0.2918348160262727 2.6711760325624554,-0.0739409190797699 l20.36691142669323,-1.9572867162352199 20.544612333624197,-1.367185908412833 l3.1740501025407286,0.3329316507147577 m-31.239865880744627,9.992778569055996 l0.6026757594870694,2.044690975165647 0.10456523343678055,15.34366697110459 m-0.12000991813749559,-16.923927556564518 l18.085179860820812,-2.3315953957596065 1.502560344851509,0.05299379102610406 l0.9213120271168165,0.30561442229270247 0.6709438554978684,1.5773798042807212 l-0.4643672739117564,8.559706946578288 -1.098006824121351,4.708052409645854 l-0.560616189076494,0.5448828330444975 -0.6444168298788834,-0.38598307318426156 l-1.3669357868703438,-1.855791880206985 m-8.159823228032765,-20.388160326760673 l0.9165514160422618,2.034113227612829 -0.08786360485560571,29.77692353998516 " fill="none" stroke="black" stroke-width="1" /></svg>