<?xml version="1.0" encoding="utf-8" ?>
<svg baseProfile="full" height="100.130192109852" version="1.1" width="98.13530669716599" xmlns="http://www.w3.org/2000/svg" xmlns:ev="http://www.w3.org/2001/xml-events" xmlns:xlink="http://www.w3.org/1999/xlink"><defs /><rect fill="white" height="100.130192109852" width="98.13530669716599" x="0" y="0" /><path d="M25,25 m0.0,0.0 m23.17953874860602,11.049395956022458 l0.05533189319731646,0.3927255766539221 -0.5577836232833788,1.010098751383442 l-1.3801426091024005,1.380453044752944 -3.7086598334689045,2.6165202767304185 m-5.761158179198317,0.7661552245149146 l0.5954664651047814,0.7043704317364511 0.252827855396479,0.4931467215064488 l1.9833003947904617,12.042292217045286 m-1.6718266433916487,-12.87959094808126 l21.58372290480577,-1.8049249952302615 1.6070317355432118,0.21022104922276846 l0.7186069550482446,0.6688956253206465 0.12238575036695222,0.9362994956317705 l-2.5488927577373923,10.740471934028257 m-20.470779846796166,-5.716447630074059 l14.11758964966951,-0.864756109370084 m-13.250014136715548,6.890407963641576 l19.36111120152095,-1.1885372030988324 m1.3175700920027404,5.434401849428427 l-0.13495641233980046,1.074315862838234 -0.5021897557868898,2.6232835487388027 l-3.111705544364721,6.598573176537426 -1.9973305446207335,2.0496956065874925 l-2.401787078315654,1.7276554424767867 -2.4346220630261137,1.4908189173998554 l-3.3032739938442317,1.6842503235081756 m-4.326713675922094,-17.449035460350103 l1.9811016753032173,0.8693480923629062 2.621736228182262,1.4632396742524107 l1.9725081016432395,1.3986601791716797 0.8695227770632943,0.9446780472845235 l0.35263718354492835,0.8416569076776126 0.22540152023779084,0.743984636117121 l0.2797046892285481,0.9793760833191579 0.3225489484228387,1.3987452441798227 l0.3229950293822543,1.4687583257753702 0.48721720454694706,1.4643595598885657 l0.6421114389414803,1.3913558038030367 1.4628911050910056,1.3671828480324126 l2.20314056446487,0.6373367165510965 4.711882065453749,0.21310947904357871 l5.3742199620454505,-0.14319671397371442 3.4144104047250003,-0.42730852834698796 l1.8400934242451157,-0.6154703140917125 1.0164499449535502,-0.8437604438352443 l0.5307914008855023,-1.2051922030687574 0.17129608066648763,-2.0674064637053147 " fill="none" stroke="black" stroke-width="1" /></svg>