<?xml version="1.0" encoding="utf-8" ?>
<svg baseProfile="full" height="101.35870109414876" version="1.1" width="100.14971940280138" xmlns="http://www.w3.org/2000/svg" xmlns:ev="http://www.w3.org/2001/xml-events" xmlns:xlink="http://www.w3.org/1999/xlink"><defs /><rect fill="white" height="101.35870109414876" width="100.14971940280138" x="0" y="0" /><path d="M25,25 m0.0,0.0 m12.460947583424874,0.9005570903025375 l0.04433806826380341,0.4910285130567105 -0.4479794229683017,2.22590731808621 l-1.701019368394208,4.328508185632147 -2.0534474374063145,3.8554472897569707 l-2.281403897374936,3.2835868694686177 m5.965386474541424,-6.501451220590689 l11.023509699674316,-1.875655423727814 2.3112200151869553,-0.00920141687332359 m-8.972167917710152,3.5246785203629987 l1.8751217270585432,1.3743708340653837 2.2209057382567643,2.029651994815671 l1.3922579563925825,2.6907630275990857 m12.513249171064368,-14.952146845391928 l-0.16190998183665128,1.3012887416413195 -1.9372921646956867,5.068837535231285 l-1.7746000502831054,3.0524224823383816 -2.237917341250202,3.055895333684589 m5.9240239996739845,-5.53349448679473 l2.4160392137789346,-0.052716757187003443 12.441020209519692,-1.9662805891709667 m-9.543399701985106,3.8014953179544095 l-0.4547672892624136,1.000958983200232 -1.208881842652543,1.560839085603306 l-2.988194415039539,2.899283914039711 m-23.07773343711883,5.679103313513783 l1.9854325880922723,0.28091617836153593 2.078126542260045,-0.12277435487686471 l25.581978210608266,-2.9647277370084244 1.348120247141204,0.19947112112481308 l0.5726111024805287,0.9250249765530572 0.0283716911646257,11.178632862175228 l-0.10690471738773945,6.2979149400346435 m-30.98993807558049,-7.148465603334342 l3.7889107310405494,0.29778944755248626 16.925015313548045,-2.231801691970586 l11.442623279120362,-1.230130614043314 3.106663838413789,-0.18325599915946436 l2.641403063041679,0.3940353935347127 m-34.070077281231676,11.60225359303921 l2.8790189339348964,0.3080677682266736 17.314920784371566,-2.4281792166003933 l4.763914587430802,-0.3030904145293814 2.001850402953637,0.17185275634418373 m-28.758679848100755,-14.015570383604215 l0.4941514095215733,0.5797335231859139 0.2175695390329688,0.9792845651017675 l-0.3490483832623051,6.3691285937909825 -0.7759535585797601,5.965332186976977 l-1.0535465128327244,4.230669238699878 -1.4315168170527033,3.6089761092401655 l-1.5791697119247996,2.6809049705327483 -2.524419541541352,2.633334418113591 l-2.7311593085699104,2.049696856070287 " fill="none" stroke="black" stroke-width="1" /></svg>