<?xml version="1.0" encoding="utf-8" ?>
<svg baseProfile="full" height="113.05322106596967" version="1.1" width="103.2272031041709" xmlns="http://www.w3.org/2000/svg" xmlns:ev="http://www.w3.org/2001/xml-events" xmlns:xlink="http://www.w3.org/1999/xlink"><defs /><rect fill="white" height="113.05322106596967" width="103.2272031041709" x="0" y="0" /><path d="M25,28.198906616300746 m0.0,0.0 m5.3293036670158145,21.484353990281033 l0.4663501212714367,0.12871407090017153 2.835359072516476,0.07030550095166577 l11.577172912357506,-2.7389106306005617 2.223275592487073,-0.16263926778411902 m-7.701061115641519,-13.709795904135197 l0.6036501246525262,1.2730717067320265 0.1711830683220479,2.072490853956278 l-0.07093454922791685,51.436724129367626 m-0.4622913459467143,-38.86527198580828 l-0.6065657512231858,1.9124131290505066 -1.2248759788177503,4.231442585012561 l-2.0532421313835783,6.5914656131208025 -2.324381371593555,6.575742416164873 l-3.2181553597786228,7.664112413081397 m11.058953065101184,-19.25138153879691 l1.1149253820277554,3.5075212444372093 1.4627283144183483,5.419975794494438 m4.093899992509951,-18.791904892062597 l2.9580387809618314,0.1044798455157664 m-1.0256670561360168,-9.25631539704876 l0.4010068298152388,1.3344329395957482 0.13880464785845836,26.84540049664764 l0.3040632136028292,1.7501084890492458 0.4094492324161126,0.40636215232270023 l0.5407963364769379,0.0189282388331471 2.688711533628935,-0.09217382494133886 l3.332839274742858,-0.3077295832535981 1.2019164829298528,-0.7388439166480248 l0.5209641127622675,-1.1116523393475402 m0.364398289914211,-33.76315682148194 l2.070303950062142,0.2500506557712389 13.217469277554603,-1.7993027400796968 l2.432439905529465,0.16928764342368094 m-9.472535567249446,2.4848439019646182 l0.393198389665776,1.2101794326408821 0.1248117028078631,1.35975705946241 l-1.8759183363710203,37.78394947480636 m-5.3441700481709,-29.492663539017034 l0.8614354933357151,0.5836546490436036 1.420431164079448,0.028153429090517056 l9.512070493424778,-1.9997611129907644 1.5943820823462225,-0.0686591841409422 l1.1914456529457806,0.28428067234415505 m-15.209495034561957,20.90407008914921 l1.4957624080384473,0.23057678149054558 12.516484369093073,-2.0980305970608666 l1.8741728161642381,-0.21244686413335642 1.3142989974358805,0.23914933093206478 m-9.089069348159736,-37.094265206603346 l0.4467702369051142,1.2678744704987506 0.19510703418757244,1.8451198318495732 l-0.017636095648281124,53.46106797126146 " fill="none" stroke="black" stroke-width="1" /></svg>