<?xml version="1.0" encoding="utf-8" ?>
<svg baseProfile="full" height="119.02693665399462" version="1.1" width="96.86306923843729" xmlns="http://www.w3.org/2000/svg" xmlns:ev="http://www.w3.org/2001/xml-events" xmlns:xlink="http://www.w3.org/1999/xlink"><defs /><rect fill="white" height="119.02693665399462" width="96.86306923843729" x="0" y="0" /><path d="M25,25 m0.0,0.0 m5.52606521072087,20.37812336370975 l0.3157538083666758,0.4065826541551426 0.4185322191045839,5.586255765884648 l0.9461502890501472,14.062596797987874 m-0.8317608829493512,-18.864579620448822 l9.474304630162738,-2.01982095440166 0.5384220888393407,0.07548627019123015 l0.38835887646161293,0.3971986667451658 0.22416537598789513,1.2819170495562704 l-1.8547896111930176,14.75962601305458 m-7.87833802302395,1.369938531895308 l9.081134983436948,-1.2366341481407979 m5.5778269820436455,-27.220400942023687 l1.2827087576313014,1.7947220793064618 1.4016565304841633,2.3014375860607927 l1.2053863345588056,2.413340636032807 0.5086936428880382,1.4705036561217117 m12.707024984460022,-10.256311941562727 l-0.25605684880116175,2.1730067317274373 -1.1659790942895172,3.512641409366882 l-1.5053205214438394,3.248595391634853 -1.4802906803875053,2.368559855013183 m-14.278905570142507,3.951938153203202 l1.4235656241449406,0.31762725928916424 2.164322938941668,-0.11061406607621102 l17.852862105239307,-2.5681943311946323 1.9269931784750662,0.2841143407593542 m-25.324004610226325,16.343348264983682 l1.1016110360944913,0.33061300043239966 1.5369464985623977,0.03670266202095337 l21.959464957944938,-2.6035233251542627 2.705025420692181,0.25979860768646407 l1.1715386066026874,0.45446021654751456 m-21.498733177917803,-11.35910187681422 l0.5482806262421233,2.365714187145114 0.07910265769243152,8.714865555894002 l-0.15690641818233572,6.146360630031665 -0.5912871572597173,10.437088733965668 l-0.8667774777608879,6.3347610476561576 -0.9514930242539811,3.912088387560483 l-1.3930523679906333,3.606401921788498 -1.9411938122261818,3.2130458440321554 m15.106235030979782,-43.43829426622953 l0.4423328981213176,0.9349480851274512 0.16385207689604586,1.694428118632365 l-0.07816473380038243,41.76557465084079 " fill="none" stroke="black" stroke-width="1" /></svg>