<?xml version="1.0" encoding="utf-8" ?>
<svg baseProfile="full" height="109.49251221129944" version="1.1" width="109.0322233736515" xmlns="http://www.w3.org/2000/svg" xmlns:ev="http://www.w3.org/2001/xml-events" xmlns:xlink="http://www.w3.org/1999/xlink"><defs /><rect fill="white" height="109.49251221129944" width="109.0322233736515" x="0" y="0" /><path d="M25,25 m0.0,0.0 m32.14355707168579,1.1103967523240499e-07 l0.046404656022787094,0.5842050909996033 -0.3048870898783207,1.0664574801921844 l-2.324521392583847,2.385045439004898 -4.527994096279144,3.970976173877716 l-5.927497148513794,4.548708200454712 -0.731470063328743,0.7644832879304886 l-0.08609337732195854,0.6447293609380722 0.5764373019337654,0.37738677114248276 l1.255798190832138,-0.03697807900607586 24.00322437286377,-4.527265727519989 m-4.142839312553406,-3.9434650540351868 l2.109287828207016,1.3456135988235474 2.756606340408325,2.4180588126182556 l1.806342601776123,2.0562076568603516 1.0106262564659119,1.750025898218155 m-39.957685470581055,11.061381101608276 l2.0727142691612244,0.3109556995332241 2.6242297887802124,-0.006579387118108571 l18.68711829185486,-1.9464871287345886 20.690245628356934,-1.4733782410621643 l3.1372296810150146,0.06961709819734097 2.576651871204376,0.37443339824676514 m-27.218453884124756,-6.623364686965942 l0.30318787321448326,1.0201741755008698 -0.10440036654472351,1.074872687458992 l-1.672024130821228,4.475561082363129 -2.2792088985443115,4.16614294052124 l-2.788001596927643,3.8521933555603027 -3.200990855693817,3.5369491577148438 l-3.5155877470970154,3.2171738147735596 -4.688529074192047,3.5693150758743286 l-4.837412238121033,3.0598750710487366 m27.570595741271973,-20.36205530166626 l16.628968715667725,15.054365396499634 4.436074793338776,3.3382222056388855 l2.9045188426971436,1.3342855870723724 m-24.629178047180176,-12.842801809310913 l-0.397777296602726,1.2396152317523956 -1.1640407890081406,1.5699096024036407 l-3.7834155559539795,3.62142413854599 -3.7906983494758606,2.5041520595550537 l-4.8574793338775635,2.1746669709682465 m18.45634937286377,-2.8973981738090515 l-0.41760146617889404,1.1004417389631271 -1.3001395761966705,1.3221482932567596 l-4.695326089859009,3.4595945477485657 -4.904733300209045,2.471786290407181 l-5.234218239784241,1.7417725920677185 m21.89490556716919,-3.5602524876594543 l-0.4771749675273895,1.4315451681613922 -1.5924039483070374,1.7749477922916412 l-2.886393964290619,2.202177941799164 -4.048978090286255,2.4591635167598724 l-8.568556904792786,4.042828381061554 -9.239826202392578,3.1689482927322388 " fill="none" stroke="black" stroke-width="1" /></svg>