<?xml version="1.0" encoding="utf-8" ?>
<svg baseProfile="full" height="104.36686033076047" version="1.1" width="100.611033903325" xmlns="http://www.w3.org/2000/svg" xmlns:ev="http://www.w3.org/2001/xml-events" xmlns:xlink="http://www.w3.org/1999/xlink"><defs /><rect fill="white" height="104.36686033076047" width="100.611033903325" x="0" y="0" /><path d="M25,25 m0.0,0.0 m28.09337533230554,23.732355468828835 l0.42369705555094656,0.08163905391159812 5.523495504621351,-0.5398861029573366 l5.91853566867401,-1.4520460949215601 1.9686109742491535,0.07571819949435388 m-18.213031443823304,15.333476981164207 l2.099474065825285,0.29261691866177786 17.00274080013338,-2.8244563043774544 l1.5720019502995513,-0.13139075476281195 1.3001720604035498,0.24690474633377424 m-24.074536963934253,18.594847632029747 l2.3080143055696354,0.13908953305334787 9.985840870164818,-2.471193388768392 l5.797667218715445,-0.9674217254767054 4.728670851237417,-0.2958116997682207 l2.136794316605312,0.38788756687299086 m-13.226215000171337,-30.341167843172745 l0.49169710452803705,1.3860117953471858 0.1828918718832534,1.7190686287627048 l0.04414460334498422,31.400617720505174 m11.640499525014713,-35.70181270912801 l1.297408344209059,1.256990185065247 1.4381475210965156,1.9132405723227432 l1.3077958910645497,2.077227295114187 0.863141475757378,1.8371448538616 " fill="none" stroke="black" stroke-width="1" /></svg>