<?xml version="1.0" encoding="utf-8" ?>
<svg baseProfile="full" height="116.48193837579288" version="1.1" width="103.21727929179957" xmlns="http://www.w3.org/2000/svg" xmlns:ev="http://www.w3.org/2001/xml-events" xmlns:xlink="http://www.w3.org/1999/xlink"><defs /><rect fill="white" height="116.48193837579288" width="103.21727929179957" x="0" y="0" /><path d="M25,25 m0.0,0.0 m6.4633153081069965,21.12857972793155 l0.6598097005687035,0.10272060897163253 3.061969874232651,0.025715380060524665 l10.956404021571391,-1.8364442385010664 2.101905303420637,-0.11624273173807184 m-7.587270568512695,-11.61416416185625 l0.7282262892693223,1.2129062022169155 0.23119453329554687,1.8509349123470464 l-0.1328541821888819,42.18826641791198 -0.39224448358796893,1.3714273424643266 l-0.5621744564122951,0.6143799070817685 -0.6891167806527942,0.0013689710979117222 l-1.5132494277324406,-1.179085372020803 -1.6757382530575242,-2.08100174995034 m-5.8890289183698386,-12.906586267678701 l1.4690926910321016,0.3409979075571757 1.0568299302600903,-0.47838722158442243 l12.918257925537263,-9.120988926462926 m16.032290833514274,-20.413097992676548 l0.5297452774063054,0.9141732032699227 0.21478952820060293,1.0561180454417916 l0.02268617263163931,23.275554125955885 m-5.1780939408769955,-13.114494725593373 l-0.2174798582613823,1.4624324605747945 -1.208880641692909,1.9617100395996723 l-2.7912431462010834,3.346257602164531 -3.105521899900038,2.8960135350322482 m20.24036528618364,-10.416463885958903 l2.4120889892559507,1.744418589550048 2.3267007573754133,2.4416737932487758 l1.818744790832258,2.5158423428201164 0.9157586365516353,1.9781818233237702 m-24.62785269008484,4.522520340190137 l0.708286896382504,1.2849172334945114 0.12324295976471356,0.9837172326603075 l-0.2884619562917205,28.973472736956705 m0.6170968075164928,-29.511780784761207 l15.930400251834133,-2.357691352202845 1.343785697497425,0.1900759516505714 l0.8643265044930283,0.8465988250835179 0.5155935828808708,1.8348377564965572 l-0.12978290188829972,29.13546118560339 -0.35983978128087,1.0705490855142092 l-0.5615516062552931,0.3565445005060157 -0.6828482579679104,-0.18363876145590569 l-2.5165063151444,-2.4196738749458406 m-13.86131118118593,-20.25243694277246 l17.669123532779494,-1.774829843499845 m-17.582165989727194,9.687828794527853 l17.206015800646615,-1.4970919049881681 " fill="none" stroke="black" stroke-width="1" /></svg>