<?xml version="1.0" encoding="utf-8" ?>
<svg baseProfile="full" height="102.29407861775921" version="1.1" width="109.8927873749673" xmlns="http://www.w3.org/2000/svg" xmlns:ev="http://www.w3.org/2001/xml-events" xmlns:xlink="http://www.w3.org/1999/xlink"><defs /><rect fill="white" height="102.29407861775921" width="109.8927873749673" x="0" y="0" /><path d="M26.746641278550044,25 m0.0,0.0 m14.009286114548981,5.380105490906655 l0.07698610965535085,0.40877693704169926 -0.3642176560291722,0.8866007500164985 l-1.0167814027314936,1.4203598555783725 -3.4760945216684647,3.41419135358066 l-4.026344156253039,3.0169975506501077 -4.5140477309708045,2.6419986798183195 m14.425425786258709,-1.1613870305167011 l-0.12340642225636425,1.1563809386730128 -0.666094764089488,1.2983680001774147 l-4.123636176596121,5.250686888358254 -5.3930780430979794,5.2675263098187095 l-6.554638415320154,4.915527094949342 m10.911477067537758,-6.419371167883403 l0.6831518757203359,1.3941135799423632 -0.021397821562909893,23.423203386647902 m22.70808296877222,-48.52092359301501 l3.790494534362217,2.8336238204463107 1.8020556340293226,2.042297330264048 l0.6965797370674465,1.3716327145920026 m-15.820067821717393,6.62822642304485 l2.526621382749864,0.2079270667863119 22.381367628828396,-2.202595901743266 l3.4413160321587535,-0.12385310052033119 1.5804705301569602,0.3679920368242569 m-27.38990536058388,16.096244572026844 l2.90204068492382,0.2077602954985635 19.67310882499631,-2.1102500911186466 l3.13536558214272,0.17880076304991172 m-33.02963009012707,18.204714614151232 l3.563299127561127,0.1373172106292063 31.716036482103576,-2.2473349377224094 l2.4539356488967865,0.00041347263108672174 2.188384726950945,0.42057393792559716 m-22.181889980473052,-27.806237842774504 l1.0763857214826635,2.537503834709076 0.10833563598272211,26.41899968264289 " fill="none" stroke="black" stroke-width="1" /></svg>