<?xml version="1.0" encoding="utf-8" ?>
<svg baseProfile="full" height="105.515169789281" version="1.1" width="103.22924553690757" xmlns="http://www.w3.org/2000/svg" xmlns:ev="http://www.w3.org/2001/xml-events" xmlns:xlink="http://www.w3.org/1999/xlink"><defs /><rect fill="white" height="105.515169789281" width="103.22924553690757" x="0" y="0" /><path d="M25,25 m0.0,0.0 m13.983627166590065,3.185838701750109 l0.38760498660312465,0.37524276976104204 0.7196822858603624,1.3185873321742785 l2.4976080254267274,13.915026776690508 m-1.89407181133618,-14.93495957372271 l21.83650020241003,-2.3866981197261325 4.769036629752657,-0.3049777061674905 l0.9851730243086345,0.8034740822821975 0.17184928461726984,1.5444209669752158 l-2.873892090292509,10.253616512660392 m-22.83114158091458,2.693547135733573 l24.509655569615546,-1.993860841799292 m-38.70194966517673,10.177891480056209 l0.814064505121434,0.1747990932846044 1.282059797840056,0.16469940855599915 l17.28393362698987,-1.9005473434232112 21.060511192191598,-1.7231296495675592 l5.781177700191395,-0.3168976939522861 3.4478166871088014,0.2918681090401265 m-34.473390553440794,3.307328119360008 l0.2124842322113792,1.0928462908175622 -0.2785175902211766,1.2616912235236402 l-3.590269183235808,7.656120700569371 0.4465163208412413,1.0986855780668991 l1.9479568642843441,0.00181082065008914 20.752405628291108,-3.65426224202273 l1.5944663683704052,0.33403619486808594 0.8263035813622612,0.9878626791932573 l0.2121354509310089,0.7211053122164748 -0.23391144790114662,1.7066971260712829 l-1.8100449268683554,6.2977666261914145 -2.419037301373116,5.988755169982542 l-2.805588579208451,5.163479450299957 -2.4723686248952093,2.213305298887579 l-1.3911367723628478,-0.3480219101389867 -2.2809404355397622,-2.1580419299481703 " fill="none" stroke="black" stroke-width="1" /></svg>