<?xml version="1.0" encoding="utf-8" ?>
<svg baseProfile="full" height="104.8639163873401" version="1.1" width="105.38446018709848" xmlns="http://www.w3.org/2000/svg" xmlns:ev="http://www.w3.org/2001/xml-events" xmlns:xlink="http://www.w3.org/1999/xlink"><defs /><rect fill="white" height="104.8639163873401" width="105.38446018709848" x="0" y="0" /><path d="M25,25 m0.0,0.0 m14.855183107041512,3.9779269008479137 l0.412005548318164,0.36311995434010413 0.7516189569252942,1.2029044847898411 l2.508432525587059,13.092127296431787 m-1.8760234229885624,-14.129542723652452 l21.74428853810653,-2.265376887717435 5.932650760362697,-0.31061546446367344 l0.9731926204191224,0.8402062805042723 0.118640166570501,1.5808092535405078 l-3.051545303565392,9.41298813872248 m-23.36288529176277,2.5911480436662173 l25.13308194792796,-1.9886918881109068 m-38.94598653897924,9.56527761615573 l0.8306077263494284,0.17358243808364346 1.3100436103077613,0.16983835743031847 l16.428337142834287,-1.7897160806777703 22.101982712116694,-1.731195050795955 l5.846167734357365,-0.2831951639814401 3.674667647170086,0.29147264891554076 m-33.94744961455001,3.1499259135931865 l0.1845999338312032,1.008940119859208 -0.3616812208393966,1.2206910630911338 l-3.77315870533112,7.344735577391762 0.7462676320055713,0.8255380245988931 l2.4304844195652424,-0.17602407067012776 18.836603129160533,-3.148120398023642 l1.5959490319001202,0.3655618616244737 0.512870621841989,1.0050540235297734 l-0.22564022159102345,0.7955605762171128 -1.6589298522598774,7.041481219933871 l-2.204863366219282,5.248871931222158 -2.8225946285421744,5.0234937842953995 l-2.60347447864299,3.6056970530133103 -1.4891635376407992,0.7894415536348656 l-1.2759139816618985,-0.3854245390514771 -2.319070309130596,-2.178852477331187 " fill="none" stroke="black" stroke-width="1" /></svg>