<?xml version="1.0" encoding="utf-8" ?>
<svg baseProfile="full" height="107.68906324257841" version="1.1" width="109.49251540005207" xmlns="http://www.w3.org/2000/svg" xmlns:ev="http://www.w3.org/2001/xml-events" xmlns:xlink="http://www.w3.org/1999/xlink"><defs /><rect fill="white" height="107.68906324257841" width="109.49251540005207" x="0" y="0" /><path d="M25,25 m0.0,0.0 m5.957891345024109,2.992069721221924 l0.5115223675966263,0.4848974198102951 0.7606273144483566,1.0597549378871918 l0.6778276711702347,2.592708468437195 4.4775354862213135,24.96898889541626 m-4.140588045120239,-27.444708347320557 l40.787858963012695,-4.2548030614852905 2.1872827410697937,-0.0033785487175919116 l1.6297715902328491,0.483182892203331 0.9762493520975113,1.081942468881607 l0.22817810997366905,1.7927488684654236 -4.467550814151764,21.068429946899414 m-36.687610149383545,4.2212700843811035 l39.53204870223999,-3.519439399242401 m-33.48615884780884,11.237356662750244 l-0.10771015658974648,2.028743028640747 -0.5284655466675758,1.2509706616401672 l-3.8247188925743103,4.891331791877747 -6.856335997581482,6.69739305973053 l-7.627653479576111,6.059603691101074 m41.28324508666992,-20.35762310028076 l4.955070614814758,3.4610459208488464 5.958751440048218,5.69371223449707 l4.92925226688385,6.0983312129974365 2.3661942780017853,4.476627707481384 " fill="none" stroke="black" stroke-width="1" /></svg>