<?xml version="1.0" encoding="utf-8" ?>
<svg baseProfile="full" height="106.13548002746666" version="1.1" width="110.09956275031985" xmlns="http://www.w3.org/2000/svg" xmlns:ev="http://www.w3.org/2001/xml-events" xmlns:xlink="http://www.w3.org/1999/xlink"><defs /><rect fill="white" height="106.13548002746666" width="110.09956275031985" x="0" y="0" /><path d="M25,25 m0.0,0.0 m29.330315350058882,16.631090653276324 l0.3209366629509026,0.4139370396060156 0.2840912899342402,1.520345684838922 l-0.17012150040037402,5.7322710136801485 -0.43593751624805904,4.697405079989037 l-1.6741773167980203,7.416052435852003 -1.4513535685813546,3.8346129104681697 l-1.488629226024391,3.1729840490241203 -2.207900471956923,3.264912397987627 l-2.502539929106259,2.672971441217576 m-5.31709600813655,-35.74194441672175 l2.127414890361131,0.9518357076072688 2.0552991051745613,0.01846180931427759 l26.117539351085163,-2.8708283320984083 1.6854819931384248,0.051861354694455686 l0.6378156727698042,0.35118571511838254 0.26928640292496564,0.44926753118206353 l0.0011566420205929564,0.5776674267565086 -0.32060568865328987,17.5177339043653 l0.06754941914207474,8.78181083958426 0.2852708647992573,2.7219069242248253 l0.7175915346334929,2.6751956515120066 1.0671960171788408,2.7289469093247933 l1.3903688103172032,2.7752657412984028 2.1221019498260216,2.750455427361956 l2.785907906890519,1.8519770327599994 1.2231202021601528,0.6597781910104978 l1.0298206975965285,0.42715280303352954 0.8042523787407281,0.10116710119834421 l0.5622375571880933,-0.2624231438455227 0.4698493192341942,-0.5939173922019885 l0.3133199580992813,-3.383636471819873 -0.09870065757107205,-2.7312516665058633 m-21.913907467570734,-19.79414278164277 l2.9393560111842807,1.084813529640096 2.4715352838417326,1.4970696196381141 l1.8148661116983704,1.565376642978038 1.0707178531733141,1.3619165546999534 " fill="none" stroke="black" stroke-width="1" /></svg>