<?xml version="1.0" encoding="utf-8" ?>
<svg baseProfile="full" height="117.3869599302981" version="1.1" width="97.94594819634295" xmlns="http://www.w3.org/2000/svg" xmlns:ev="http://www.w3.org/2001/xml-events" xmlns:xlink="http://www.w3.org/1999/xlink"><defs /><rect fill="white" height="117.3869599302981" width="97.94594819634295" x="0" y="0" /><path d="M25,25 m0.0,0.0 m14.384785727623331,11.577211544443974 l0.452591790105568,0.16959630978216642 2.826864862595378,0.17918389377214827 l23.750024239629877,-2.4778651989126375 4.388026971138301,-0.19026391985803123 l2.143654605250497,0.2935343327823379 m-25.47011167174349,-6.396349368780824 l0.9408667954979497,0.9309048153455527 0.35214473598616053,1.1307470303990532 l1.0315282781822037,12.793105403031205 m12.371421308485214,-17.10591960231372 l0.3418192746778926,1.0704453605095177 0.04760652185852956,1.3327514880433684 l-1.8948331832153391,13.59573205604796 m-19.822226409893737,6.030980533673156 l1.0934385329960592,1.287282826107687 1.373828307293787,1.7028397260200618 l1.0255233810072981,2.5154303574998536 0.4428533119223286,1.8312011823674335 m-7.376789488999944,-9.742886018156161 l0.465912939272609,0.9889348707679346 0.2565116445526318,1.8490790284608019 l0.05871365151118542,19.549563447491558 m-4.60179296574296,1.3018045743414601 l1.0800752930008795,0.48739049175573673 1.1052062690404059,-0.297347368531735 l6.398746825904351,-7.0654843428579115 m23.178094976956817,-16.242872399276834 l-0.21110711592991357,0.6282326363267672 -0.6153113968232099,0.6918167124486696 l-2.730574332586885,2.1535986224747106 -3.495228725979911,2.0950559022397384 l-3.7185520428357743,1.6821689466365708 m-1.7141967795165274,-10.880853155949659 l0.5119647609400336,0.8462564606721993 0.20937952075159724,1.0321372128457096 l0.00990770784588607,17.154100900392237 0.25447381490175797,1.7156306792242948 l0.7136344547527568,1.091486515889185 1.3259657668644649,0.7360252115637318 l2.3211525549828447,0.4234731645404692 3.975871185818695,0.035320851072217926 l2.9461204310608435,-0.4399303345828918 1.0943077688782208,-0.5189671523647171 l0.8499401247200562,-1.1682222819967851 0.3227207074433412,-1.374027274015686 l0.0934609961323659,-2.2028064816925674 m-33.44748199083089,13.253034973627004 l-0.15645281470169087,2.3014470419672355 0.5269555437259824,2.8219827865266627 l0.41217646120182844,13.75005158414242 m-0.7415533471606895,-17.48200098883529 l23.74025958714807,-2.6314755073972442 2.4352759201702683,0.10344413511726308 l0.7481035129245085,0.8280082705800674 0.14290175868498192,1.0885549025901082 l-1.94912638129118,16.116580625392796 m-16.61204606892948,-15.658187993555751 l0.4001238894365557,1.4278429906127688 0.15214484246507282,14.487628311719158 l6.885335540446148,2.1238153206959023 4.531749753466016,0.05700528743567456 l4.868931639884293,-0.27316365280334376 3.0155203248696005,-0.4988629725949942 l1.6768957293990343,-0.7224594257750402 " fill="none" stroke="black" stroke-width="1" /></svg>