<?xml version="1.0" encoding="utf-8" ?>
<svg baseProfile="full" height="109.6195703461438" version="1.1" width="103.13041825787244" xmlns="http://www.w3.org/2000/svg" xmlns:ev="http://www.w3.org/2001/xml-events" xmlns:xlink="http://www.w3.org/1999/xlink"><defs /><rect fill="white" height="109.6195703461438" width="103.13041825787244" x="0" y="0" /><path d="M25,33.16493003911175 m0.0,0.0 m19.746319653515172,1.4558222674016332 l0.036104933924843666,0.48088403617160574 -0.34599706264712626,1.917541728337784 l-2.9059139629785156,4.89354866026515 -2.960584760743169,3.7573173143154803 l-4.675598820451586,5.076031020528064 m1.5445587457724046,-14.738474241078052 l1.3861782713243778,1.514721794745466 2.4278568099316065,3.561658023963708 l2.7771502323705475,6.292640357995951 1.7425036647353833,6.723364744536389 l0.880507669451664,7.182415669315694 0.17150403894656985,4.679727818028756 l-0.12382995160021949,4.334020836855643 -0.37544433659718895,4.037047542738049 l-0.9243003612176589,5.093978007717384 -1.2726654036985143,3.7497672020075994 l-1.032608589317353,1.3373785815388746 -1.1635578300680727,0.10524894164687218 l-1.2269737244037944,-1.3934806082020683 m3.2054606618964057,-30.110911262182313 l-0.03845098654462488,1.674783569755496 -2.552330853252213,6.281149525960013 l-2.372325979860476,4.175776518339375 -3.3629494379512885,4.534774889913333 m19.8073725016493,-36.86276597874473 l0.4880790146404776,1.8033641109312615 0.004399906675078803,6.493019115041505 l-0.2734042069500586,6.593906562649232 -0.7781342215516992,6.777893331592611 l-0.9939125990060921,4.648087088203156 -1.3510585069921899,3.9543656265941767 l-2.010968437908246,3.773127142128284 -2.209489849215993,2.846649664166741 m2.458511272159593,-42.27522817054879 l1.4683026352002722,0.29830959795372797 1.5584095304033148,-0.05959585170956931 l10.420637572054558,-2.7727952179852386 0.9573877451334081,0.4550406222227668 l0.39227876130954054,0.6637458483428257 0.056783376853890614,0.7912153341880344 l-2.159245471481113,13.112605855322363 -1.9480929899595048,12.21632335247898 m-6.258039444188919,-20.14863471484644 l1.4915370721693595,1.8134518617789204 1.3768649089687768,2.6291224541539635 l1.0245902304623191,2.572716568071874 0.4585682724151602,1.8382384901731048 m-5.959225943351214,6.369893892774181 l1.1780578735867955,0.3951221102958821 1.2228325563597486,-0.18922356599781287 l7.601527649466351,-5.690801984196567 m6.676721525077036,13.473592775728834 l-16.40519887964694,1.4455659206019948 -2.3594546449535287,0.6917584902512227 l-2.4728869907312916,1.3284599185575914 -2.281511170935271,1.1779085411619323 m19.762310160835696,-20.464991103683136 l1.3703799271001034,0.2980354028383281 1.5312016472831054,-0.10179251962251823 l9.077720679719375,-2.0805532717290864 0.8553531546138711,0.04809803389527014 l0.49943844553155997,0.34721901828339957 0.26716257453861764,0.5667329688485153 l-0.1878020243012656,4.938901617221393 -0.8184012818871517,17.891594501771344 l-0.3510144506361852,4.249137693420068 -0.4766570540033203,1.5542818364040094 l-0.6077764190905557,0.5135840905385373 -0.6333645065275253,-0.1904676065918448 l-0.6248478551080853,-0.6011780843927036 -1.272127037514346,-1.8243383297172366 m-6.709820980927625,-23.580807146687846 l0.3450529305995599,40.14442249013209 " fill="none" stroke="black" stroke-width="1" /></svg>