<?xml version="1.0" encoding="utf-8" ?>
<svg baseProfile="full" height="107.0860661007566" version="1.1" width="96.14436819447226" xmlns="http://www.w3.org/2000/svg" xmlns:ev="http://www.w3.org/2001/xml-events" xmlns:xlink="http://www.w3.org/1999/xlink"><defs /><rect fill="white" height="107.0860661007566" width="96.14436819447226" x="0" y="0" /><path d="M25,25 m0.0,0.0 m24.311574328135652,13.410211601308806 l0.03296824802219378,0.35906675416197426 -0.5215635240605252,0.8855835332752297 l-1.2651990219817093,1.3300580510813103 -3.643473231995647,2.582928349223791 m-6.834455415763663,0.8826748250369979 l0.7213326217724534,1.00401093695218 0.24766906694984095,0.6764459666928742 l2.1065468379205674,13.654688533365757 m-1.9071233480928573,-14.330502034327017 l23.01771161055285,-1.9490394659618993 1.5174513391893654,0.24766291591535627 l0.7085564688626192,1.299691119501511 -2.604484963919095,13.081487036426733 m-21.513273799903704,-6.823747975387033 l14.991382840984736,-1.2417144261467992 m-14.030717457417477,7.870535838825226 l20.254841208647356,-1.3740802799040985 m1.8448465564362055,6.0697141772775876 l-0.11005630054134459,1.1393252219197807 -0.5321595874810822,0.7514550037083653 l-4.588237291886557,2.3465878520978047 -7.829340525731998,3.141385528438878 l-7.866727211403921,2.3631814336268864 m-2.4178172618795513,-10.483593636772476 l0.525788027171905,0.6948786106410412 0.26444884288434517,1.3682843779707472 l0.014165799274694092,13.545510726758492 0.8451529875920786,2.3707664136406743 l0.7655650868650171,0.8585852118009818 1.898469042718029,0.8172892254806478 l3.0889674644232343,0.5367346741262893 3.776799416030728,-0.036093219374082317 l9.529989416265142,-0.3203076476743167 4.418546263095294,-0.7612027874195241 l3.513794413563465,-1.0492199341551216 1.8465893974184624,-1.2644267710363482 l1.1143011458073164,-1.70733485677096 0.45153870594785384,-2.451474983440831 " fill="none" stroke="black" stroke-width="1" /></svg>