<?xml version="1.0" encoding="utf-8" ?>
<svg baseProfile="full" height="140.98483132865232" version="1.1" width="106.07439544335999" xmlns="http://www.w3.org/2000/svg" xmlns:ev="http://www.w3.org/2001/xml-events" xmlns:xlink="http://www.w3.org/1999/xlink"><defs /><rect fill="white" height="140.98483132865232" width="106.07439544335999" x="0" y="0" /><path d="M25,25 m0.0,0.0 m30.525632814896593,19.095711191229828 l0.4380293332130165,0.3529862582405324 0.9064117879204295,0.9494748405048148 l0.38043445306698065,1.4517656669256778 -0.0650959854261673,19.20431541597291 m-19.547551587942095,-13.630535740023234 l2.50911046663696,1.601471940096956 2.673739848209607,2.3830498598571057 l2.212811204678573,2.5993240348047246 1.0806552204904747,2.089802041171758 m33.07697328946041,-12.181008120303272 l-0.3312510829910762,1.5482636299327557 -2.01050111174918,2.6332205608975023 l-3.553901170722243,3.809770543759655 -3.783232535065512,3.5370941278559576 m-30.879593048650612,5.78406898937253 l3.7229779949069846,0.350320544101362 31.627341267616885,-2.064198533624991 l4.202047982564312,-0.06925413113480747 2.8893563022456408,0.301135495754252 m-38.318524209155726,14.858692041463703 l2.3694861254600768,0.25915392169946466 2.6094446963077034,-0.03372759081115683 l22.99087103076573,-1.8511778675555373 4.820159552630637,-0.17613936838060162 l2.8727182235204305,0.21821566306763054 m-19.099010714885686,13.701555681796586 l0.8673900430805692,2.539079378678176 0.16955775924929417,1.7459525599749786 l-0.12723347455892065,5.441859565779215 -0.3614732157322692,13.187452722053136 l-0.3739181818419214,1.025267171019669 -0.5944346990143007,0.32186883447501247 l-0.7534825973015278,-0.179416025586209 -3.683430093757563,-3.115507920508156 " fill="none" stroke="black" stroke-width="1" /></svg>