<?xml version="1.0" encoding="utf-8" ?>
<svg baseProfile="full" height="101.05450897134969" version="1.1" width="105.43254993737148" xmlns="http://www.w3.org/2000/svg" xmlns:ev="http://www.w3.org/2001/xml-events" xmlns:xlink="http://www.w3.org/1999/xlink"><defs /><rect fill="white" height="101.05450897134969" width="105.43254993737148" x="0" y="0" /><path d="M25,25 m0.0,0.0 m6.391843120787364,23.031449979651086 l0.552943146556735,0.14554091292324572 1.304506287123078,0.1330171780557667 l2.460417852750815,-0.2571542850775968 8.983816237742412,-2.1120137012822573 m0.058495720822318714,-14.473251740486802 l0.8356091892085932,1.325145508260938 0.3794219183281981,1.404329163071845 l0.1367069953067794,31.848049555519317 m-15.68419482811668,6.445933316852842 l1.6909589036074817,0.4584731264930684 1.1512313289436014,-0.343443305641645 l15.1272491246709,-8.212928864866162 m26.793132932017844,-18.400206440109113 l-0.3681270345126234,1.1712189653970986 -0.5776487215429512,0.928549073648532 l-2.737683756618557,1.693329727780456 -5.0135389590260635,2.9360725080502736 l-4.84794247536286,2.2864035637190265 m-2.274530472647201,-17.992628044796046 l0.5689838953432108,0.9719407991628696 0.3927806829007784,1.6160137393534417 l-0.10022161881217732,30.49317405514961 0.29362614742082954,2.3122022129469992 l0.759369413372092,1.7049501891890497 1.671070888488272,1.1741924443549117 l3.0499999227434587,0.6556308851224687 6.757910910516991,0.11051844890646545 l4.200837631886995,-0.5131499430806525 1.3925918919409648,-0.7179564932419543 l1.3631704291201026,-1.4749287702143654 0.5399741556780538,-1.6783162991271356 l0.17978907673271594,-2.9573403830363088 " fill="none" stroke="black" stroke-width="1" /></svg>