<?xml version="1.0" encoding="utf-8" ?>
<svg baseProfile="full" height="102.04138024375169" version="1.1" width="93.64764732381148" xmlns="http://www.w3.org/2000/svg" xmlns:ev="http://www.w3.org/2001/xml-events" xmlns:xlink="http://www.w3.org/1999/xlink"><defs /><rect fill="white" height="102.04138024375169" width="93.64764732381148" x="0" y="0" /><path d="M25,25 m0.0,0.0 m15.210452884126674,15.402637383009491 l0.46440300462893025,0.051434120981993355 2.633440783201378,0.0893956905247009 l21.91348042605469,-2.1855645479059747 3.4258702257998146,0.1723178537729045 m-15.287471437570192,-9.040614961890865 l0.6890658613039192,0.9101176528069432 0.4088842988135859,1.46095181069455 l0.03639040955443547,18.705503279789905 m-21.274089130678924,1.4345971621243403 l1.1208451199452663,1.7922275487526622 2.385527335814542,1.3839476545160752 l1.8823037055658272,-1.1714798683787502 13.3182901401024,-1.8476395477091767 m16.008343513959577,-5.328694804667201 l0.40300800880803966,1.1085955811770638 -0.2807235558725521,1.0375457813600701 l-3.8510921115909293,4.8304661808435485 -4.0305002869558235,4.632450043708278 l-4.443422181352454,4.405044875418995 -4.48118682272568,3.8858274887463273 l-4.986811916816987,3.821930321883007 -5.7432231444918,3.8013235418803553 l-4.879773978378772,2.689060002312443 m8.68719433623777,-11.818017087855125 l4.113354123200453,1.8171138440730144 5.668718860795511,3.1701503363059813 l4.87292435707495,3.2848937431712333 3.1812640409907242,3.168520531086663 " fill="none" stroke="black" stroke-width="1" /></svg>