<?xml version="1.0" encoding="utf-8" ?>
<svg baseProfile="full" height="100.604619785719" version="1.1" width="103.20698528596691" xmlns="http://www.w3.org/2000/svg" xmlns:ev="http://www.w3.org/2001/xml-events" xmlns:xlink="http://www.w3.org/1999/xlink"><defs /><rect fill="white" height="100.604619785719" width="103.20698528596691" x="0" y="0" /><path d="M25,25 m0.0,0.0 m30.063601691421404,7.230106805524899 l0.4239026570016451,0.3727107582986593 0.6044870322759229,1.6620016040823689 l-0.046972698038814376,10.845945651018305 m1.0700588263343076,-5.681123399652708 l9.296801376842565,-1.2236961836429212 2.6148426170215657,-0.17717279538358852 m-28.494667129622794,-0.2211259760699017 l0.7745499261572477,0.6790420150444609 0.4493024595672527,1.36116930085916 l0.34036024748616583,7.374131373120387 m-8.802691897238448,0.4187376902297023 l1.9401807902742274,0.28983967612520506 2.7739710238961104,-0.08654004958228056 l33.30914744425337,-2.95899155648512 3.166815855226087,-0.0591341764058656 l3.7232950631090813,0.36825588391526654 m-22.079157160830817,3.495900682558809 l0.606843592232143,0.9127752111173798 0.16616781344039358,1.667651630101924 l-0.2471892713281359,10.859828755954718 -0.3078688826097789,0.7497126147147793 l-0.4512758484627565,0.2900630703716368 -0.5667078989233223,-0.01681772817828709 l-1.3841165328765848,-0.748953105155594 -1.527360842838494,-1.302172152307897 m-6.821795278458789,-7.836052335009735 l-0.06484975464371802,0.9038884455827249 -0.3681742358260144,0.6203722747201262 l-2.041393067661712,5.253317740989565 -2.0732210392236032,3.5941942977125376 l-2.203808899631373,2.791331229149876 m26.939350684857565,-14.209167446615986 l0.12360400562285427,1.2366522576231143 -0.3690518447315836,1.1640924115910558 l-2.5714343070573142,3.178703211597129 -3.7620677946725443,3.783235211973454 l-4.706010467785076,3.7761273754099642 -4.399496047911247,2.963306443040288 l-4.759658746128063,2.759485945730036 -5.232164557035621,2.53530427256621 l-4.711556109447613,1.9876828494851353 " fill="none" stroke="black" stroke-width="1" /></svg>