<?xml version="1.0" encoding="utf-8" ?>
<svg baseProfile="full" height="100.91681490779368" version="1.1" width="93.62121179709783" xmlns="http://www.w3.org/2000/svg" xmlns:ev="http://www.w3.org/2001/xml-events" xmlns:xlink="http://www.w3.org/1999/xlink"><defs /><rect fill="white" height="100.91681490779368" width="93.62121179709783" x="0" y="0" /><path d="M25,25 m0.0,0.0 m14.598851773513788,4.285270230293943 l0.3657087978119698,0.17431624083570665 2.517159972566293,0.19457077250957425 l23.99028500687745,-2.5814935950490026 2.1492062463283332,0.26198409233979436 m-16.043598495996537,3.059025936930595 l-0.003955065761237308,2.0889535446970404 -0.5666410125319242,2.0629526870817085 l-1.472991182919369,3.1897415553278554 -1.8637414566645463,3.38222981861057 m-5.674988074201753,1.3134290655528118 l0.6432210208279684,1.5503738169661245 0.25304135877912654,1.0114670646359154 l0.020787717833142132,29.702385582388022 0.25091048900814966,1.2216080946730232 m0.35641522261507996,-32.74553412376313 l16.30515234771664,-3.094351221300898 1.0527945781639843,0.022656315109970925 l1.1124206355530357,0.4161576164370141 0.5469705025992201,1.1698940376369624 l0.09644778024598201,0.7919776127078755 -0.38122228958275095,31.94166338429171 m-18.740070685518567,-19.853598601820636 l2.9645366135218625,-1.9386900839121557 6.411569652269464,-2.210012679087301 l2.014466752743209,-0.17794882666853004 m-7.158867759496477,10.944803552467619 l8.9107467604789,-1.7727088341855075 1.6556090309593112,-0.1272790452143009 m-18.797234397182873,13.363322900180744 l21.433800068363652,-2.0226854376942183 3.969472280525838,0.024322596233723365 " fill="none" stroke="black" stroke-width="1" /></svg>