<?xml version="1.0" encoding="utf-8" ?>
<svg baseProfile="full" height="104.46191967091912" version="1.1" width="91.71727112195909" xmlns="http://www.w3.org/2000/svg" xmlns:ev="http://www.w3.org/2001/xml-events" xmlns:xlink="http://www.w3.org/1999/xlink"><defs /><rect fill="white" height="104.46191967091912" width="91.71727112195909" x="0" y="0" /><path d="M25,25 m0.0,0.0 m13.13389769061699,4.168471961691306 l0.04977688500839462,0.39173955316762393 -0.45670561465071935,2.13223773345199 l-1.7393923854322226,3.846329362518979 -2.0665830398341534,3.5349937233646282 l-2.3126296032246705,2.85925640280444 m5.905533518153395,-5.790175026325149 l11.373439499583855,-1.6442210218994402 m-8.146837160863294,2.6275624669222775 l1.668514510767501,1.0880271295767645 1.6160623604975288,1.6639673148386305 l1.2036793496701388,1.781143549662382 0.4511626263676794,1.1480295282352944 m11.933355866792105,-13.703187652617533 l-0.1986896585011647,1.699587287062311 -1.5376028666219894,3.232032356470538 l-1.9807320616084279,2.9189765483863788 -2.4608140383436163,2.813492117057318 m5.411470119424709,-4.326945491380167 l5.0005606780304,-1.440741104723436 m-5.400395447262319,2.1340810648886097 l0.6462835512057148,0.6164473125722338 0.868429320395211,1.340092126553113 l1.248774128252798,2.80234487583758 m-12.728731409182734,0.3378446597605946 l0.44744775435184575,1.1273798716907004 m-4.973944572053386,4.167553631012362 l11.14044012160123,-1.5923275222311135 2.0249733007314465,-0.024506684720226792 l0.3847072318134089,0.24120261440728938 0.30444749847567526,0.5844095462795001 l0.030723828317568532,0.5552331647057072 -0.10395919281693394,0.6032217990952212 l-5.067040877855118,10.933564410603362 m-11.889874996390292,-6.37240670074178 l2.5485201456021334,-1.096655464710749 m-6.328736257401993,-4.85653234982746 l1.3271595537994147,0.5549001551399332 1.4786365868953224,1.0132040054642815 l1.1683789668450335,1.2033371504404904 0.532248209921984,1.1158776334551508 m-7.139013611446128,7.30667204014738 l0.9110873742872303,0.32702460585535453 1.0523196839725484,-0.16820634498461254 l7.946992588742675,-4.926549458521516 m5.0745764098205965,-9.605569247459824 l1.4726275603283872,0.2140931306810432 8.822970638245188,-1.7004015193546944 l0.8526582739166978,1.0318709257808651 -0.1997546405209104,23.30679686427941 l-0.3797942939704453,0.46305502715804336 -0.4801016921792027,0.023801136132782206 l-0.5301966333767183,-0.2526521929878459 -1.1669160339668243,-1.292187519994985 m-6.924224685177421,-15.928785567981091 l0.4023323696139911,25.435316467252658 0.16942068034004873,2.090684166940454 l0.4113697340997883,1.4787046132671096 0.6736543372352832,1.0844569274059983 l1.6797634206847822,0.7983992992836738 2.721606087924132,0.3865542800789801 l5.5687738348551905,-0.054271574259228246 3.3063082229206233,-0.4693462252617193 l1.4260132187262082,-0.6010735263516679 1.4278383998580337,-2.5216074193284377 l0.1110057559468811,-2.4109193229969783 " fill="none" stroke="black" stroke-width="1" /></svg>