<?xml version="1.0" encoding="utf-8" ?>
<svg baseProfile="full" height="110.02875156626035" version="1.1" width="106.58726098577966" xmlns="http://www.w3.org/2000/svg" xmlns:ev="http://www.w3.org/2001/xml-events" xmlns:xlink="http://www.w3.org/1999/xlink"><defs /><rect fill="white" height="110.02875156626035" width="106.58726098577966" x="0" y="0" /><path d="M25,25 m0.0,0.0 m13.974643835603699,4.34892197123852 l0.507501172290836,0.17008748755383193 3.0003625898331876,0.21038961759722452 l27.612568006682196,-3.0547360199642584 4.733737450535397,-0.15928580732102296 l2.7642786376495443,0.3187335730413808 m-22.89920832284667,3.3646386898234404 l0.17931653775589668,1.247354389025403 -0.2534276995413993,1.2828067124913947 l-4.710160884328993,7.585636974925829 -6.100911405352792,9.59294278902267 l0.7053731596100802,0.754213148453975 1.002956829652461,-0.1594937322996164 l22.8530684705869,-5.945086654779066 m-4.187470311559854,-7.01164286381094 l2.288060114680938,2.3775393157023696 2.5841113156698596,3.853341033461586 l2.129466122880893,3.910072053996561 1.1297563046021897,3.038419776654008 m-16.493172013822754,-0.5437968190695877 l0.9320466883406096,1.305497016676967 0.1143738443337894,0.841485002842357 l0.18867038653427518,29.850174455475464 m-13.62262728027549,-15.420536534760926 l2.18598903757565,0.27494252298983995 19.76376787639157,-2.398444022529961 l5.254807353558064,-0.1956851885394752 2.1057188480659317,0.26601782673657315 m-37.50578839520264,19.976604855323792 l2.2449533777428945,0.34763999630202075 2.70882018316004,-0.009707550075317001 l15.825595542278254,-1.7646715771181065 11.91809830642578,-1.0173865981289976 l10.306322893504207,-0.2618963386554044 3.345662412765101,0.43337292876824585 " fill="none" stroke="black" stroke-width="1" /></svg>