<?xml version="1.0" encoding="utf-8" ?>
<svg baseProfile="full" height="107.65556826217177" version="1.1" width="105.64286267178613" xmlns="http://www.w3.org/2000/svg" xmlns:ev="http://www.w3.org/2001/xml-events" xmlns:xlink="http://www.w3.org/1999/xlink"><defs /><rect fill="white" height="107.65556826217177" width="105.64286267178613" x="0" y="0" /><path d="M25,25 m0.0,0.0 m14.128018423586415,7.042372518647287 l0.41762486982430463,0.32868027863539995 0.7422933791440095,1.1063826732337774 l2.6624257364021866,12.314250485068738 m-2.0085313876622912,-12.976450126504776 l20.25172188928523,-2.246486867125095 5.593225349547641,-0.3366441255014172 l0.9940228285054151,0.7872812619313566 0.13646762001985732,1.53063306379346 l-2.9523127787914873,8.8877940020548 m-21.684948515297197,2.485190356303858 l23.40359650987405,-1.925190216759817 m-37.870438141981076,9.528235830224975 l2.2204541404373073,0.1810020216157553 3.2066005195878953,-0.04864744227282695 l33.17747769341863,-2.7367077544270866 8.316305882763098,-0.352760616165036 l4.908858653122142,0.08734808913321536 m-35.12545809160469,2.4159520477039047 l0.35963248285122723,1.0094322340894923 -0.11189842875090876,1.1674042506647564 l-3.0814559282855263,11.071752870795478 0.10180033677464524,0.7646356255090717 l0.4182667577660106,0.20320366255359867 0.8563643771357246,-0.19713690038419404 l11.105496905322056,-2.876714903365897 0.1539463308006932,0.7267867905249072 l-0.22924013433287516,1.3558515759073357 -1.2836790110884604,7.810163931937458 l-1.2971464104586399,4.779151789189182 -1.709255849379278,4.129634874569956 l-1.8285776580753523,1.639166980590146 -1.3483755507531352,-0.279212256751995 l-2.1885008146631835,-2.0198884312692607 " fill="none" stroke="black" stroke-width="1" /></svg>