<?xml version="1.0" encoding="utf-8" ?>
<svg baseProfile="full" height="107.87969764433711" version="1.1" width="102.86623882976332" xmlns="http://www.w3.org/2000/svg" xmlns:ev="http://www.w3.org/2001/xml-events" xmlns:xlink="http://www.w3.org/1999/xlink"><defs /><rect fill="white" height="107.87969764433711" width="102.86623882976332" x="0" y="0" /><path d="M25,25 m0.0,0.0 m23.50702094210386,3.3848387229449495 l0.06048190079865087,0.46791176522464256 -0.21552159245425362,1.7582449537164992 l-1.1954385599483897,2.7963538779131527 -2.0705315441297354,7.384078796768378 l-1.9099875101745647,5.551406732885876 -2.808976430042444,6.044009659521124 l-3.9801331655841525,-0.03279764570481049 -1.4101451906856817,-1.9073948902363924 m9.284876874274849,-15.898656390991727 l7.619202922700976,-0.4042232088741544 15.75299100438278,-1.3794461565338452 l0.4256632435265257,0.12094197731341415 0.7598245351014018,0.3369306828191537 l0.6116365523322115,0.45017575615139693 0.42453599291771893,1.145340246216799 l-0.1842715321367503,1.5361530445792777 -4.487458042904428,7.675787905495733 l-3.531038056161787,7.064620462036368 m-14.48878006690496,1.0803835183170347 l0.5013731396268207,6.1056266341765335 -0.5683654287033139,6.077477396911752 l-0.97694072915821,4.997141899124209 -1.4084446695549708,4.223046351054715 l-1.9551134402816794,3.7950320788894403 -2.53124382953818,3.3585104181012593 l-2.344489049472566,2.148203056516337 m21.632382517530985,-28.87183872086685 l0.30103394685779244,1.307856355736217 0.1283466999009406,1.4114999331341753 l-0.5945889779313815,15.984560687705809 0.13186467897177054,4.114899587423084 l0.39511442430151644,1.8457665239607397 0.5952038324521495,1.249523745702538 l1.4804971416011017,1.001121141459812 2.4401641718957063,0.47924105887686586 l6.137011827428929,0.05358437459935068 3.5305246384412183,-0.45660455088243335 l1.7335599621695654,-0.6149795347061189 1.2094672634317198,-0.8993257928479987 l0.6267687588962606,-1.227579879575481 0.23815967388530784,-2.2022981878746575 " fill="none" stroke="black" stroke-width="1" /></svg>