<?xml version="1.0" encoding="utf-8" ?>
<svg baseProfile="full" height="102.6004875513548" version="1.1" width="93.46259677901709" xmlns="http://www.w3.org/2000/svg" xmlns:ev="http://www.w3.org/2001/xml-events" xmlns:xlink="http://www.w3.org/1999/xlink"><defs /><rect fill="white" height="102.6004875513548" width="93.46259677901709" x="0" y="0" /><path d="M25,25 m0.0,0.0 m7.698879707805919,3.5158870942840084 l0.5136691085637506,0.4009488398761586 0.7587663235770233,0.9921548102616737 l0.6778948798055047,2.739004182546613 2.427807650475024,11.132932387163283 m-2.8339909452964833,-14.934888764612293 l25.788565780877775,-2.609080748463233 4.879180435736263,-0.5747896590013167 l1.72806600338002,0.2586494771782426 0.8890043912347707,0.8746122919197392 l0.15438219539779938,1.4002940655071001 -3.0104735288222866,10.096827012137279 m-27.644711686783403,3.0276909211853495 l29.920639399155153,-2.3545705857425 m-17.112197486158678,11.79928310723013 l7.119211402281517,-1.3322229673902697 9.847486842586514,0.1655569156385642 l1.0223714271590671,0.6430871352164739 0.6380448780418392,1.1895551180905268 l-1.0764278955005864,3.7902531669418305 -3.3641946922953525,6.790422447599462 l-3.5148898760486444,5.985980901872601 -3.1486579736571216,4.676114483994431 l-1.4980073449462252,2.182834706026051 -1.6670825456250578,2.0206981481228476 l-3.6157780143694755,0.7232530637720578 -1.934227051549641,-1.6074626817577375 m1.935037638367021,-32.15467497044371 l-0.04983078446585562,2.0472609506599793 -1.569709035893259,3.6983182624579474 l-2.528474219703468,4.563464338385878 -3.248212629960927,4.760655049318276 l-3.067121132313165,3.7295855045350006 -3.517827119244321,3.573761705559221 l-3.9721169249644332,3.281823195993326 -3.188852594799281,2.064068465393879 " fill="none" stroke="black" stroke-width="1" /></svg>