<?xml version="1.0" encoding="utf-8" ?>
<svg baseProfile="full" height="116.81034391768466" version="1.1" width="104.94636251409297" xmlns="http://www.w3.org/2000/svg" xmlns:ev="http://www.w3.org/2001/xml-events" xmlns:xlink="http://www.w3.org/1999/xlink"><defs /><rect fill="white" height="116.81034391768466" width="104.94636251409297" x="0" y="0" /><path d="M25,25 m0.0,0.0 m14.45832173280969,12.465633420527018 l0.449182011232703,0.1584967811210961 2.9573997077251115,0.14984451062642015 l23.11512503919498,-2.1417721048469995 3.7366854965884926,-0.09856364316732903 l2.471538471504713,0.2706138955515272 m-25.91363902187166,-5.078021093944335 l0.863258980014783,0.7845071724344078 0.30077828872972207,0.9883559859283806 l0.9175715928820657,21.774417830334198 m15.244135002046423,-25.525960437604535 l0.7711579178161502,0.7489586596932581 0.4000797320054981,1.2020064092873743 l-1.2457821259364883,22.42413038700623 m-15.463579505813378,-9.8328262922927 l10.47093860093772,-0.9723644524388394 m-10.193538955608174,6.893005421791125 l10.141749813282523,-0.887940576955756 m-25.54490150207201,7.741396594343462 l3.4984414473517846,0.23826342368681433 39.21350532491091,-3.0107590291346886 l3.05719714461669,0.2532345718338534 m-30.264875729639424,2.8509741027161395 l-0.12440753011571029,1.3388926413117814 -0.9613418490573407,1.4239466215232428 l-2.1330660982133884,2.6299571569185973 -2.3164520216876934,2.414246296259193 l-4.725233270580759,3.89737759092427 -5.212504605283927,3.0829419742071944 m31.025120735350225,-15.712488453362063 l4.24840340858764,4.557159629303277 4.683049246792236,4.498727786998168 l3.7507914703383616,3.048399724450513 3.271253565254489,1.7073068448574775 m-31.998193309892223,-5.388029347029307 l0.6285255919802926,1.4286763757864054 0.12887475289406314,4.486506497045647 l-0.1014180971766903,3.8426227386465714 -0.6216018262277875,5.285967897325287 l-0.7068632967942521,3.411913315761587 -0.9531989756141291,2.953489291959207 l-1.2058793404577444,2.566921791354347 -1.4517994210412868,2.2139962039926644 m5.142960260184634,-25.917919949833074 l14.493961737265089,-1.9980842593279629 0.7358538114654496,0.039482864829085126 l0.9780348868857854,0.7600610769981716 0.35343879036529724,1.0850799425727313 l-0.467283843679376,25.76257071799341 -0.3062298788552488,1.4407752954996949 l-0.45276562145204763,0.5542141142224338 -0.5494220802982169,-0.08175681884333104 l-1.9067869459414644,-1.974411043348783 m-12.877793568707334,-17.839391708489362 l15.762076943869499,-1.0900488734238816 m-16.654062579642147,8.21487978914646 l16.355800663201396,-1.138401304362795 " fill="none" stroke="black" stroke-width="1" /></svg>