<?xml version="1.0" encoding="utf-8" ?>
<svg baseProfile="full" height="91.30665515366645" version="1.1" width="111.51797415164177" xmlns="http://www.w3.org/2000/svg" xmlns:ev="http://www.w3.org/2001/xml-events" xmlns:xlink="http://www.w3.org/1999/xlink"><defs /><rect fill="white" height="91.30665515366645" width="111.51797415164177" x="0" y="0" /><path d="M25,27.293048945327307 m0.0,0.0 m13.565647972714748,1.726545975519916 l0.41446994203318005,0.5378474738580294 0.6395267027855256,1.2730583666931685 l0.2622162605016366,1.275267347349115 2.605524730773661,32.92910397765943 m-2.286153395317202,-36.89655200195355 l30.99349248871538,-3.052338195108025 5.169607543087111,-0.08598188934538517 l1.3401303075130326,0.7093383430823477 0.6411513012981507,2.966307480949442 l-2.230351394858233,36.80458646757257 m-22.227053494349274,-32.692431022897466 l0.5240896290206476,0.9875037684241306 0.23314393719004628,1.2037737811222167 l0.6510476044032748,29.775353867334044 m11.210670431859157,-32.189974614258226 l0.4723873319505379,1.0660322267282063 0.12809045498609692,1.2565487882574844 l-1.8766792634944311,29.31079242722304 m-30.01838620906222,1.55839594240121 l2.2746137752133313,0.42777208409146206 3.107360579916658,0.12265561363600196 l33.13384656652355,-1.7684291953014624 8.291872319204725,-0.13183048065502648 l4.497708029032674,0.5418226833510149 " fill="none" stroke="black" stroke-width="1" /></svg>