<?xml version="1.0" encoding="utf-8" ?>
<svg baseProfile="full" height="117.45701179767978" version="1.1" width="120.02630133038917" xmlns="http://www.w3.org/2000/svg" xmlns:ev="http://www.w3.org/2001/xml-events" xmlns:xlink="http://www.w3.org/1999/xlink"><defs /><rect fill="white" height="117.45701179767978" width="120.02630133038917" x="0" y="0" /><path d="M25,25 m0.0,0.0 m27.286819848160253,13.186389155889522 l0.08100159595952491,0.4093176667302559 -0.2988352954479862,1.4563060642091525 l-1.3207463967374773,2.303002882012056 -4.410437564522119,6.283030195701822 l-4.552082086454754,5.133239319963088 -4.595626010499913,4.419082582053801 m12.709302448186461,-10.917608512655779 l3.465979553169741,0.1824662864564227 23.28845713294834,-2.50257901746787 l1.4416830405139325,0.12343631834918255 1.152526719234117,0.6154493947038959 l0.31473664507998084,0.4892494727669517 0.11447176497308674,1.292661404065128 l-5.764497571364324,4.66215960079333 -2.6096749404317436,3.924984132066139 m-18.290023179768788,2.165009485668584 l0.009122936462419308,1.0684574855568894 -0.89448212851815,1.945841134460949 l-2.1415386554840774,2.8835618705478785 -2.809051821091543,2.6508700493012403 l-5.67418918938812,4.06185238340514 m24.032457168031204,-13.044436731624344 l3.336960249073814,1.3277465627352674 13.690390609960662,2.3456340560359488 l6.69153131721252,1.7295146980607348 5.772045141132118,1.5557363862145952 m-32.90572911421499,1.1711354975096755 l0.019865481116208943,1.1240774967511116 -0.7435608327524941,1.0582397841029623 l-5.771819040715919,4.893017986605297 -7.025737819622264,4.185747889865952 l-7.158573873196275,3.3411369186041804 m17.76200999937207,-7.960715656525871 l0.6497593455697966,0.9446817456071401 0.06439406897186523,1.5629071969715704 l-0.13108915118825443,17.386408612187783 m18.870401887654506,-24.192145218154433 l-0.07075159275996172,0.9398242222419653 -1.3070286324840845,1.8060264998675384 l-2.5989827712438127,2.3330236123846673 -3.5029873052077187,2.2510845339955594 l-4.835547019888654,2.2480649970961912 m-7.844477149050825,-5.039357419493615 l8.462066665790804,2.0540157194619413 9.945236270465871,3.615842218874806 l6.890747765205025,3.0440914963567516 4.325557239606909,1.9290310466537213 " fill="none" stroke="black" stroke-width="1" /></svg>