<?xml version="1.0" encoding="utf-8" ?>
<svg baseProfile="full" height="128.58223866473867" version="1.1" width="97.50851822449383" xmlns="http://www.w3.org/2000/svg" xmlns:ev="http://www.w3.org/2001/xml-events" xmlns:xlink="http://www.w3.org/1999/xlink"><defs /><rect fill="white" height="128.58223866473867" width="97.50851822449383" x="0" y="0" /><path d="M25,25 m0.0,0.0 m30.445292530822876,17.13170134048682 l0.2775531473090448,0.4312102041857553 0.2511097128491058,1.571050136290818 l-1.0969269224603577,6.198486838462223 -1.5093739737856873,5.532119290162021 l-1.9543730265119885,10.061364394816557 -1.3171826194353875,5.798190346839271 l-1.3957157590958824,5.449636264587303 -1.6435272276178996,4.8515290244542895 l-1.8923483194404247,4.806706643027003 -2.156943884047907,4.173307042250795 m-4.009929272401777,-23.419561793060456 l1.4212288843698533,0.5051300727395707 1.6520495477053905,-0.11240198607062012 l21.853638399864103,-4.077780941955799 5.590831792046882,-0.175934377265674 l2.9931352143238814,0.6311128012612238 m-23.559510321752104,20.596418627374327 l0.508250286434539,1.890195055580981 1.1016049294728483,16.73975968057225 m-1.0601607144804344,-17.57959421406029 l13.485150895634085,-2.513169720843727 1.2528844630360585,-0.14104842710158078 l0.9461696004106446,0.41067076901981026 0.3164596187342883,0.8761015042900197 l0.005766310939044475,1.096727094576061 -1.9961051533636178,13.72531934531061 m-13.153282779590045,2.1778743810618333 l14.503143613370066,-1.78171745044581 " fill="none" stroke="black" stroke-width="1" /></svg>