<?xml version="1.0" encoding="utf-8" ?>
<svg baseProfile="full" height="109.4397159540076" version="1.1" width="99.82474374961697" xmlns="http://www.w3.org/2000/svg" xmlns:ev="http://www.w3.org/2001/xml-events" xmlns:xlink="http://www.w3.org/1999/xlink"><defs /><rect fill="white" height="109.4397159540076" width="99.82474374961697" x="0" y="0" /><path d="M25,25 m0.0,0.0 m35.83759351368014,21.191619230619246 l-0.013863371913201845,0.3406963019021536 -0.7068245037282569,0.7192793671398563 l-1.395523226408117,0.8917724777542858 -5.462621884182238,2.1618490415933085 l-6.72175513777181,1.9158134151210167 -8.556751118853123,1.6179960755488059 m-5.236754857372388,7.139169589886534 l1.741138962403749,0.24542419467015666 1.886151476637266,-0.016924571113555355 l30.589375696948128,-2.611923733004148 3.1054338136365436,0.1842351658459329 m-18.479478589983007,-7.63906028916949 l0.645263857718694,0.8281045110139715 0.24445870744650003,1.2987086855824637 l-0.12882723433791343,31.172956490617054 m-1.3802717074443962,-21.859499490998076 l-0.47415911339363853,1.4776656564744566 -1.6261120522892873,2.082966977066758 l-5.837525720405705,5.578685705683757 -6.167583309565452,4.595653984735984 l-5.691548182117444,3.233923908386779 m22.12666032999933,-16.34719298673815 l7.774808225245131,7.701178006830124 5.734914275214149,4.448476326355966 l4.318388435458489,3.245155102558377 1.9821076182048372,1.045453736989049 l1.7180488467899913,0.6295311491078167 " fill="none" stroke="black" stroke-width="1" /></svg>