<?xml version="1.0" encoding="utf-8" ?>
<svg baseProfile="full" height="122.36260293658489" version="1.1" width="100.3908424628715" xmlns="http://www.w3.org/2000/svg" xmlns:ev="http://www.w3.org/2001/xml-events" xmlns:xlink="http://www.w3.org/1999/xlink"><defs /><rect fill="white" height="122.36260293658489" width="100.3908424628715" x="0" y="0" /><path d="M25,25 m0.0,0.0 m26.130799312109836,13.471708285620176 l0.049614066943373926,0.4572668778604959 -0.2126067967048941,1.6382445215893129 l-1.0486825974458769,2.644353197654258 -3.718627298978966,6.924459524821203 l-4.122218307816077,6.2724099618606655 -4.531596691101264,5.442492653641704 m10.98131172000103,-12.209768965826834 l2.9681156418974495,0.26988246566400825 21.5136556539571,-2.985416539267341 l0.9138404118151117,0.14390544773150854 0.961980620687541,0.690158075981549 l0.33315160706587416,0.5538651674177373 0.17210512044126458,1.4912176996832986 l-0.3744549594431007,7.133730894051516 -1.1206039201176636,10.565613675583629 l-1.2921259534013187,8.175228999895918 -1.885839777434403,12.831883195268423 l-1.3173808239520937,5.397838447149228 -0.7554820897785836,1.9617291950820517 l-0.3749436311810961,0.7310425149482275 -0.8924029372503969,0.7287163397572824 l-0.5004215093429045,0.03204130041686643 -1.0353717518094212,-0.4389401497558265 l-1.815796253784547,-2.1660462824126347 m-20.942247111808594,-31.373222420838992 l0.5962586787155397,0.8691760749491102 0.16875406488770728,1.6193062840333379 l1.6795084357544545,24.274614877836214 m-1.3439633082567075,-24.445248254828247 l13.70369746628747,-2.4571429712127393 1.0993356069641378,0.41983480124445705 l0.33608021763537366,0.5217587114054312 0.2298178147842914,1.5908229086241343 l-1.0867388924524324,23.18261071989845 m-13.468499995028944,-12.362219975645978 l8.924456027074173,-1.0483441321125597 m-8.22529918023599,12.517276294235897 l12.08812629536248,-1.1614764243984226 " fill="none" stroke="black" stroke-width="1" /></svg>