<?xml version="1.0" encoding="utf-8" ?>
<svg baseProfile="full" height="113.47483672943521" version="1.1" width="109.41244711434231" xmlns="http://www.w3.org/2000/svg" xmlns:ev="http://www.w3.org/2001/xml-events" xmlns:xlink="http://www.w3.org/1999/xlink"><defs /><rect fill="white" height="113.47483672943521" width="109.41244711434231" x="0" y="0" /><path d="M25,25 m0.0,0.0 m27.152198725853687,11.78831278293211 l0.04165689810733031,0.4771138106593543 -0.24802864114419637,1.7881768357840049 l-1.1438475264379089,2.966784951571327 -3.432232171839488,7.5618816194826906 l-3.624719969776146,6.269991949532626 -3.889117452715148,5.322459099884364 m10.07737751664796,-10.982918590324596 l2.262218868692855,0.26556418032930346 3.244435838229771,-0.2793145300642758 l20.993842604089387,-3.9017800928212836 3.915839496462066,-0.29191466871052363 m-16.574041190853716,4.375177089247596 l0.6413628979904348,1.1457679877667772 0.25124855193276996,1.4202230222206762 l-0.11358380088384727,35.54931128194506 m1.6344003484737923,-28.494975887701415 l2.0609999428929515,0.13768660988162285 9.76776843724448,-1.682529065962274 l3.117788364239679,-0.005009365159516124 m-16.03211561567323,1.0817079574054806 l0.4598647852980915,1.7954822154560264 0.23786757789052357,15.816289374059073 l0.4243655705968509,0.6151143280190714 0.6560616682437961,0.2801608869170972 l0.8661088216046944,-0.09127875972243851 8.125229202971923,-0.34137061451560563 l4.838928431636806,-0.25511767668876734 1.4702432201151932,-0.27293977437071854 l0.9513278358337915,-0.323550532062196 0.6056816810738119,-0.4719668337430978 l0.433885552965301,-0.8285680405362961 0.23943064457804286,-1.5554653984347377 " fill="none" stroke="black" stroke-width="1" /></svg>