<?xml version="1.0" encoding="utf-8" ?>
<svg baseProfile="full" height="101.38777176973119" version="1.1" width="102.51349983878701" xmlns="http://www.w3.org/2000/svg" xmlns:ev="http://www.w3.org/2001/xml-events" xmlns:xlink="http://www.w3.org/1999/xlink"><defs /><rect fill="white" height="101.38777176973119" width="102.51349983878701" x="0" y="0" /><path d="M25,36.12948724813253 m0.0,0.0 m20.269896640886284,0.8814803601828175 l0.020252147522282927,0.4273591603960712 -0.1515430123192086,1.708535379741954 l-0.8581713076533666,2.2228986906038397 -1.7026466303031245,2.910660914907559 l-2.2808385217407197,2.8910835021774153 m-1.4090213733744785,-10.82385442279427 l0.34335816888792003,1.2126542989919065 0.048558708902756924,1.096032890486206 l0.016235355455478252,18.471703834569666 0.2043804779653426,1.423207019449653 l0.3403135762164437,0.48393135023917233 0.5966192003253097,0.11264987497284713 l3.7113346022275455,-2.966158746587063 3.4740703745729764,-1.4383890437251756 m-0.2667701774090368,-14.547552886998393 l0.4025110284210313,1.5958021916450986 0.005900730675434071,6.837581558235676 l-0.22455172575602453,5.354591480199606 -0.5809508481262807,5.0684880152674445 l-0.9882678576951044,4.2491380311300615 -1.1995935560092965,2.9490870971506298 l-1.594705705845323,2.543877304725175 -2.072478798056132,2.6888266333328263 m15.802065583003046,-41.98925892674495 l0.5260956860189467,0.8559261670403486 0.21572598371164922,1.292634417323373 l-0.02047876248382794,36.821818210137955 m0.3382894982969885,-35.242466842327936 l0.5598357337351945,0.491097130720207 0.2636389221504809,0.24370502676485814 l0.1908390277348189,-0.8263207082548137 4.106688193407693,-1.475608854760731 l0.5737297118639446,0.9260607198554336 -0.04149804318676761,1.4890854848646609 l-0.9348689564332754,12.155554534813119 m-5.139537655318309,1.50314476790624 l6.199960012326899,-1.2218190466213252 m-6.59109301850767,-20.18552628083776 l0.35627026296132236,1.5479753960299736 0.043532529258441185,41.92782276055772 l0.05397294564843473,0.9046476671254011 0.1593871394474948,0.09216525456314156 l0.37666022586247555,-0.4554088700744212 5.6706830601370735,-7.716643955643173 m-1.8181892744180141,-6.909732179464477 l0.9992846145233941,2.0752012527567802 1.1550500184723895,3.0887605245447234 l1.036293400428933,3.5911626714295566 0.584510253752022,3.002161673560413 m1.144213099309638,-41.0073579928401 l1.4768825315099976,0.2893177681969694 7.672803369838693,-1.7512195070544405 l0.5808511740689648,0.2208717837287893 0.5327030700903912,1.019986575617845 l-0.29378130671211494,1.7288138686016925 -4.485343300793456,13.145229918929308 m-0.01174755167334277,0.2205328775276468 l2.020853921952171,2.9859779909193733 1.5026269148376787,3.3335416820910955 l0.9685710573456067,3.305350582558369 0.6341282688483053,9.863669718327332 l-0.6869876785950564,3.312315395861428 -0.5594119200416036,0.8989842017821272 l-0.6753014465698156,0.30485605003306315 -0.7480791526825531,-0.3504676905141779 l-0.924866380532629,-1.1345114709285244 m-4.861211440393465,-37.39157918191097 l0.34012028044007536,0.9878442687651707 0.12840858576172123,1.234105245902206 l-0.06287841298535628,47.702249952439395 " fill="none" stroke="black" stroke-width="1" /></svg>