<?xml version="1.0" encoding="utf-8" ?>
<svg baseProfile="full" height="109.19037349788599" version="1.1" width="106.60842772010989" xmlns="http://www.w3.org/2000/svg" xmlns:ev="http://www.w3.org/2001/xml-events" xmlns:xlink="http://www.w3.org/1999/xlink"><defs /><rect fill="white" height="109.19037349788599" width="106.60842772010989" x="0" y="0" /><path d="M25,25 m0.0,0.0 m14.448992436871299,4.167645930379805 l0.03759084906855066,0.4054143705386222 -0.5223600862128875,2.49811381027894 l-1.8420812889183318,4.0208714219688 -2.2723993645321783,3.778780806162899 l-2.514406585063874,3.069093347811556 m7.109394067942008,-6.401945157150923 l12.40523196150798,-1.7176540317431326 m-9.036201828845384,3.4321869626332138 l1.7668676392453058,2.745249785057902 1.1088242049599746,2.99851061297094 m14.11768418847446,-15.28316359014949 l-0.08161889224584443,1.3691561109480856 -1.4901055723414143,3.2630985598241766 l-2.0242135219299002,3.1886242866570145 -2.167104740292691,2.7067459549635378 m5.431022826629944,-3.886950161877093 l15.755381084226237,-0.550351278720769 m-8.845829588054551,2.899812468365085 l-0.1315926475496148,1.2581465696231913 -0.8072160188644085,1.8745908962221869 l-1.213625619644078,1.8423115926519298 -1.2620193369427768,1.40211941726763 m-27.60215689254017,7.9125300594416945 l1.452197762331873,0.23239380145265123 2.581863344385368,-0.12532481637428367 l23.434091124899208,-2.6046465647835175 4.966363489729582,-0.22408378942077717 l2.2966495403457006,0.2744759906696486 m-19.295542346949336,-10.590810849543006 l0.8072919442686839,0.9002061829393666 0.3558053010791362,1.0394461807648472 l-0.16826269204279395,19.88645179714664 m-14.058334714206488,1.097899730476965 l2.966476679806398,0.20175606263891369 20.642566963616737,-2.245373428855969 l5.043104389326302,-0.4499595265628757 2.1965460271012986,0.17570210913281903 m-33.882901345554316,12.46374845764507 l-0.40562250926783655,1.705531893895357 -1.039324887323566,2.896351599703908 l-2.618106890073104,4.858990228519094 m12.408311366441913,-11.832347317046914 l2.404192964656029,4.2607621039269254 3.1925574123673277,3.8328282971568286 l3.740421923773678,2.979741195312966 4.684982563222839,2.0051077726670865 l3.2273770047318084,0.8834108763489076 13.180864374424914,0.5751767659495268 l1.1007755429084027,-0.6393780094711641 0.14006483378260867,-0.5189356457900379 l-0.6434280170589879,-1.340565274806187 -2.004011472452278,-1.8588510520903447 m-16.940766322889466,-9.953765968329082 l1.3882765841389457,2.3529477149259224 1.1689861955065113,1.0747968481526464 l1.0396599793594086,0.04474401335179271 0.4408774259732704,-1.379972656134163 m12.124156857326666,-3.210378076192181 l2.466041850987476,1.1811852368966709 1.957433180120313,1.2409909351956139 l3.2873881882502434,1.795236054131809 2.6013468281177845,1.9163887553128103 " fill="none" stroke="black" stroke-width="1" /></svg>