<?xml version="1.0" encoding="utf-8" ?>
<svg baseProfile="full" height="102.84909401715802" version="1.1" width="101.20755969856134" xmlns="http://www.w3.org/2000/svg" xmlns:ev="http://www.w3.org/2001/xml-events" xmlns:xlink="http://www.w3.org/1999/xlink"><defs /><rect fill="white" height="102.84909401715802" width="101.20755969856134" x="0" y="0" /><path d="M25,25 m0.0,0.0 m25.158646027046032,2.429270706552442 l0.020015567768407554,0.4745056133913837 -0.4258123512425095,1.680104893420628 l-1.6162799381602533,2.8818512162203507 -5.193664918261144,6.724086644664691 l-5.885949296520498,5.609292744545676 -7.833631896972801,5.476309705563847 m21.60417615169507,-21.623898175050694 l7.432961249002004,6.400089435611673 11.864284653059286,9.41892438547009 l2.5713061494983447,1.6714875865428087 2.99430731977433,0.8771467012084783 m-31.366046967231096,-3.689306978300746 l1.03978356241371,0.09828514221340498 10.363835717445303,-1.3546860732780504 l2.0504890234959503,0.11257695528004757 m-20.025926689488752,8.266541536520032 l1.4122191912560615,0.3136291598475112 1.8757572376279257,-0.03876925932922841 l17.863449170244355,-2.1679580029763876 1.314853218894963,0.11758143324917807 l0.5518117220240085,0.3902488649418029 0.14903621810101617,0.6877945541848612 l-0.3037230795345745,0.9053573182821376 -3.727328027865915,4.5418655681987845 l-3.629273508239,3.5169942461938457 m-18.91661574556756,8.675769346898777 l-0.31509080144460533,1.5490841193739926 -1.0745701922999125,2.893612027230592 l-1.5355148336994453,3.0179553378632584 -1.3243604422010582,1.9966938610429399 m11.097029356104333,-11.524134086751353 l2.6467294610574656,4.287341706343312 3.0056328038908298,3.331080096375405 l3.61138985595071,2.5013980635661173 3.346059539917812,1.3832817931445562 l3.8808257927563576,0.7896255153402123 3.464810554651874,0.22806031356164824 l6.177467907308519,-0.04292279897233195 2.813035404743032,-0.4259855021463094 l0.6515055616359696,-0.33072892341150406 0.2347712361093926,-0.4640664060114105 l-0.22929261429335304,-0.5832977420599277 -1.855690449146718,-1.7009047029552042 l-1.7370265648946925,-0.9694128680993592 m-15.032942692820898,-8.699738964383682 l1.3177676705355839,2.563961447906709 1.0682293499842372,0.9958539462805229 l0.9048098372536987,-0.0690151519879699 0.7811628014619871,-1.695811981511081 m12.612305193358138,-4.3268373471131305 l2.4510909447591325,1.3144160612690265 1.723572021879471,1.2794763391981496 l1.6182758219111109,1.7584772249604663 1.5628974138297025,2.342525926108904 " fill="none" stroke="black" stroke-width="1" /></svg>