<?xml version="1.0" encoding="utf-8" ?>
<svg baseProfile="full" height="114.45964681973048" version="1.1" width="99.22435431565731" xmlns="http://www.w3.org/2000/svg" xmlns:ev="http://www.w3.org/2001/xml-events" xmlns:xlink="http://www.w3.org/1999/xlink"><defs /><rect fill="white" height="114.45964681973048" width="99.22435431565731" x="0" y="0" /><path d="M25,25 m0.0,0.0 m6.740219327784992,23.665005027848885 l0.014173098515395156,0.47489481141859596 -0.6161758955818076,5.881151807589107 l-1.3411951265305322,6.018670680488754 m2.830680091430208,-11.254039984549834 l27.864192442661267,-2.3212615061436837 9.093358912651887,-0.7150241968289224 l3.570912308128418,0.2069940715266142 0.7955439402966775,0.4240810968908021 l0.272645216300796,0.5993842263785697 -0.1417247977701069,0.6894091561212857 l-1.2877547087738734,1.6595670724976779 -2.644422435774635,2.590070973484267 m-27.37577539119682,-15.18155884791776 l0.5922819550035519,1.1859112289314686 0.1883834002033386,1.4148612110721352 l-0.2873939842970118,6.758575612178084 -2.0197132587770796,21.365489165432624 l-1.597689211752723,5.955712700789355 -1.988098438754881,4.760809159601728 l-2.6737966039040417,4.2661235397958785 -2.9804923265323926,2.9630807274076587 m21.138115470053787,-42.98057456369574 l0.5567461459328698,0.9306222748322848 0.3029213183590127,1.1440034477169647 l0.029257525025402926,37.50225576155993 0.46175809162936793,2.671858260473471 l0.6012791105869445,1.4984384247548699 0.8543368186892009,1.100645494526367 l2.2565373790248593,0.9290002714653367 6.268021937911261,0.2554897140837034 l4.4727319739821825,-0.4936323245381155 1.7369812146995125,-0.7799940039420946 l1.6339036873465032,-1.2293361496298905 0.9453056821228278,-1.737849935454169 l0.3828403104570003,-2.496543285792545 " fill="none" stroke="black" stroke-width="1" /></svg>