<?xml version="1.0" encoding="utf-8" ?>
<svg baseProfile="full" height="98.22981096424954" version="1.1" width="95.19663429770056" xmlns="http://www.w3.org/2000/svg" xmlns:ev="http://www.w3.org/2001/xml-events" xmlns:xlink="http://www.w3.org/1999/xlink"><defs /><rect fill="white" height="98.22981096424954" width="95.19663429770056" x="0" y="0" /><path d="M25,25 m0.0,0.0 m8.83790847097274,13.051647972908475 l0.4693633138460296,0.11175148531794961 3.1261067180449325,0.015887837458864275 l27.54739260021909,-2.4978024906979233 4.847184120022231,0.17418801284922075 m-19.524293651664056,-10.35984531661641 l0.7286425358195643,1.7161467176237504 0.10429760036418223,1.1964300623049011 l0.03905096514541293,41.828863557730116 -0.5020096705668137,2.603277595708784 l-0.5245552344609231,0.38926552966180433 -0.615135954315755,-0.2758628332275138 l-2.1643162156134137,-2.437915066203512 m-11.44001480867149,-27.316373190805095 l1.2472804111893776,1.1796599584817213 1.5798582432044341,1.8492402754004462 l1.304598655177136,1.957533791873578 0.5511100220911251,1.2567823649306327 m-9.215561057863436,14.821892856319897 l1.609762679774859,0.2456146624834292 1.148910668428197,-0.5737493092008019 l10.42647256433771,-11.172873914158266 m18.91511247878908,-12.434668267358143 l-0.33655819767420836,1.5442166511044064 -1.3101748285715833,2.2017247649680636 l-2.168051738394821,2.5262957598093205 -2.551900415711119,2.257869719162543 m-1.4776078849638674,3.915516031041819 l2.5285421882110652,1.8778676089020192 9.361706636937011,8.705051513443696 l2.6535130835978546,1.1442297078261934 " fill="none" stroke="black" stroke-width="1" /></svg>