<?xml version="1.0" encoding="utf-8" ?>
<svg baseProfile="full" height="109.34395422450613" version="1.1" width="112.61131024184823" xmlns="http://www.w3.org/2000/svg" xmlns:ev="http://www.w3.org/2001/xml-events" xmlns:xlink="http://www.w3.org/1999/xlink"><defs /><rect fill="white" height="109.34395422450613" width="112.61131024184823" x="0" y="0" /><path d="M25,25 m0.0,0.0 m14.660383574370295,12.01709258476889 l0.4899647380698955,0.09344883051100047 3.7085606391368207,0.016222256652371817 l25.081755681471098,-2.389529155877802 4.183482112487886,-0.1793379309308552 l2.723861771811992,0.23884292039004218 m-36.901153049926805,12.985444460326315 l1.916400502190874,1.8320032698492787 2.2680762255145965,2.6726377340696152 l1.4864321134995468,2.4490381408034025 0.8549831298656954,2.21929018167509 m26.933801046091514,-13.28179731455662 l-0.1698110313125029,1.869994695565403 -1.95338378197723,3.2827223716019174 l-2.8613872873062522,3.7054211252067306 -3.0477618688090033,3.244822423386015 m-36.21044654231474,7.277732950743327 l2.5362184177927336,0.4243982666327188 2.775013235079763,0.0635797627047977 l36.33325964534649,-2.705788609767261 12.468068862447716,-0.5005146221462331 l5.334992108317854,0.33411636897080277 m-29.986848212178725,-25.433808552112673 l1.0893558599658708,1.3031237025756917 0.33262396784193266,1.5733108543859327 l-0.11845369862179006,46.231487509078235 " fill="none" stroke="black" stroke-width="1" /></svg>