<?xml version="1.0" encoding="utf-8" ?>
<svg baseProfile="full" height="110.27861084120175" version="1.1" width="100.66155303617421" xmlns="http://www.w3.org/2000/svg" xmlns:ev="http://www.w3.org/2001/xml-events" xmlns:xlink="http://www.w3.org/1999/xlink"><defs /><rect fill="white" height="110.27861084120175" width="100.66155303617421" x="0" y="0" /><path d="M25,25 m0.0,0.0 m30.46593952479335,22.94207646050812 l0.36438810439330077,0.012883943166211262 9.769860206040812,-1.7108048884680545 l3.3165078808887087,-0.15322419894959965 m-15.620903928657494,-8.356100354958683 l0.8022149243397939,0.7113536778250046 0.3401830126593559,1.070521342608446 l0.029313169588828503,22.896022067987584 m-13.504581242695059,-15.357968997896657 l0.739472659432381,0.7414877338005391 0.4120114560515256,1.1752150302431719 l-0.10994848899582477,14.31016796647712 m-8.776912919882184,0.8980338656420563 l1.9944664259773932,0.4346183510883479 1.7634751144848604,-0.15257055747665219 l31.97320672171515,-3.995980589726194 3.1295935758742988,-0.1141660800958091 m-18.588076523779396,3.989439144606141 l0.5079290391256731,1.3148547294850654 0.1800310652655706,2.402353910825019 l-0.3135428601654497,15.924259977358831 -0.2746266204958316,0.9493456800784065 l-0.41944525203882327,0.3467926270733415 -0.5130590980731226,-0.12055658957807228 l-1.2227726630041107,-1.0748105917672672 -1.39049552926564,-1.6902352461101413 m-5.334816809404544,-12.076474811675883 l-0.04958434140038817,1.0954919791962674 -0.35205927083630667,0.8370835274498226 l-5.547760263079797,3.718301945958089 -5.291810199113384,2.583305960673292 m33.47776787613375,-9.918312883709188 l2.970088301451629,2.022416758319847 2.563828522357791,2.3598467139889 l1.9481895073140731,2.327725142228757 1.223481959173326,1.9159130626150918 " fill="none" stroke="black" stroke-width="1" /></svg>