<?xml version="1.0" encoding="utf-8" ?>
<svg baseProfile="full" height="112.19328485257415" version="1.1" width="99.29985635724458" xmlns="http://www.w3.org/2000/svg" xmlns:ev="http://www.w3.org/2001/xml-events" xmlns:xlink="http://www.w3.org/1999/xlink"><defs /><rect fill="white" height="112.19328485257415" width="99.29985635724458" x="0" y="0" /><path d="M25,29.606862807966387 m0.0,0.0 m20.03544668441416,6.852285444729522 l0.3548927041111134,0.3955479154939357 0.42146090325115254,1.650962271385365 l-0.030696211694714905,4.333894531250915 m-12.494191467391019,1.8905446741794465 l3.1476015544981264,0.1940559671535745 16.615176492103046,-1.8943480835672182 l3.6659247768794314,0.13907612320949267 m-13.01865942837636,4.1553969994427735 l0.4104694634994034,1.1082629617628825 -0.1398100946761933,1.1669488162972996 l-1.8950194389525479,5.700675066860464 -1.7460917056389818,4.6182884777423086 l-2.6710822977735624,5.638558532637394 -3.398991814697153,5.483675630081126 m5.9943702820165505,-9.080776349121725 l0.4618678093332566,0.9475129323118892 0.16324583390755185,1.2013617825098877 l-0.0419808205907649,23.084498350248445 m8.015954862318422,-32.84786800478383 l0.18788940811301713,1.8425213505580766 -1.453208568932749,5.323412203290909 l-1.7780386578890786,4.750330204301732 -2.089900777945161,4.372887007759007 m5.567762491844658,-14.963125997186879 l1.8647014902579724,1.1346756039581185 2.0795503321338025,2.0693053851429286 l1.8125318543142228,2.3486718922675416 1.1448610681163975,2.0756500744067043 m3.302920346800877,-36.319798793295654 l1.1444820034179963,0.3471394145774237 1.277308366681234,-0.007530770112340269 l9.863500480903479,-2.3195544234579 1.0502549342257976,0.46897528040880615 l0.29613508967852037,1.1449623727434814 -0.12194918681667052,0.7516740137268292 l-4.775845112438133,11.48278975053284 m-0.03268583758071308,0.025602339027024412 l2.4570599389396364,2.742027750520451 1.7463062704838166,3.117258316493271 l0.8368424966069455,2.381792785344495 0.5996556484879073,2.293393910933027 l0.46983419129988113,4.389025599580689 -0.13978475063030082,2.8682139436535237 l-0.33185404960090603,1.6928100935684953 -0.5090050442722734,1.346171429838228 l-0.6627141125131428,0.952944936982685 -0.8174540605602596,0.5472482349717311 l-0.9721814621232934,0.054714437278562005 -1.1220410125284297,-0.4780326977910661 l-1.2726629120598383,-1.0200512296020618 m-7.428242742572102,-32.57022462934831 l0.5221294575722217,1.017676544703713 0.15441881992386655,1.1299995534447311 l0.04770496647725175,45.83441500957993 " fill="none" stroke="black" stroke-width="1" /></svg>