<?xml version="1.0" encoding="utf-8" ?>
<svg baseProfile="full" height="117.32365502826616" version="1.1" width="103.80419591945967" xmlns="http://www.w3.org/2000/svg" xmlns:ev="http://www.w3.org/2001/xml-events" xmlns:xlink="http://www.w3.org/1999/xlink"><defs /><rect fill="white" height="117.32365502826616" width="103.80419591945967" x="0" y="0" /><path d="M25,25 m0.0,0.0 m14.94894098949775,10.873393333357024 l0.4687156720535372,0.18335544544961543 3.361032034243018,0.13076707873090584 l24.134213285774376,-2.7750101330265142 3.8709455988517827,-0.17755174914728347 l2.2262022549352243,0.29159981269413476 m-26.021876193511737,13.512579000088644 l1.468824656594613,0.2856728326703509 1.56751263435315,-0.0844822231398226 l14.247268711419942,-2.589989120444708 3.073607231300704,-0.2194107745734746 l1.8397120223121834,0.2152702285352203 m-24.096509921414693,3.327810605873514 l0.5145404823100138,0.8765693736049762 0.1639575309527158,1.1671868979119882 l-0.05426514870769937,6.695886775082331 -0.5302894223470325,6.592145050712107 l-0.9417761879450381,10.290700130088155 -0.9508143112845976,5.72772260525823 l-1.2401712301355476,5.100745593777663 -1.636749019373041,4.618315039658527 l-1.604106311165468,3.2803792251045882 m13.056640847345019,-33.689760379733144 l1.7350247381588786,0.3558582215063429 1.8933363911768182,-0.061352827640521065 l10.300715325428637,-2.84198068012029 0.7071977611289624,0.03216984567386185 l0.5596870331141509,0.8690175330055244 0.07317659881496076,0.8563587275257368 l-1.722430998668637,5.54008602220241 -2.2904804923213673,5.817104981533754 l-2.30337957358688,4.85511252943813 -2.6984696458917976,4.67642030203537 l-3.1104235584438165,4.401191727937867 -6.508887242287331,2.9345166664091114 l-3.2221640679544854,0.859567660093634 m8.328489253800612,-23.41430159475509 l1.1843160951994731,0.612490807016749 2.059348838497234,1.9479045907435033 l9.626865986264743,10.81614248308083 4.906699177374816,5.145324458387621 l3.97590552523026,3.5034177433752305 2.444112568365259,1.33970925838287 " fill="none" stroke="black" stroke-width="1" /></svg>