<?xml version="1.0" encoding="utf-8" ?>
<svg baseProfile="full" height="107.51422538806423" version="1.1" width="97.71309219641621" xmlns="http://www.w3.org/2000/svg" xmlns:ev="http://www.w3.org/2001/xml-events" xmlns:xlink="http://www.w3.org/1999/xlink"><defs /><rect fill="white" height="107.51422538806423" width="97.71309219641621" x="0" y="0" /><path d="M25,25.785433817571935 m0.0,0.0 m7.706967797744196,12.456061598098351 l0.477697429958846,0.14084314502174441 3.4038619143103235,0.05582018439224746 l27.36783470125837,-2.725234349093354 4.526066622902444,-0.21463044432580894 l2.6835485653982896,0.2578664923922602 m-21.301868008988784,-10.756160444057375 l0.23229093700538112,2.0424238402792825 -0.41189672904333063,2.6654283643642445 l-1.8665831339527543,7.424421070464318 -2.7722688247554577,7.761642964752219 l-2.6303907712800165,6.008093612120518 -3.119494442658104,5.712594249846414 l-3.505405769332928,5.170073020247275 -4.13923650374043,4.721850834488216 l-4.376880338305536,3.928593485339749 m17.781938558816865,-16.523678801381504 l1.6844745434023651,0.10283185284628865 3.3399131377589986,-0.5056249374784724 l11.411623145355243,-2.4747170950002326 1.3852070849415283,0.3042018879671443 l0.425945307339928,0.5020890832166792 0.050755247339546915,0.6558977813188779 l-0.2228366394446365,1.5615909028678283 -2.114698165889645,4.332734483348774 l-2.629061204187433,4.181368065139862 -3.11167083767729,4.155426039509136 l-3.842166304727314,4.285113389483953 -4.345068071964757,4.062999723783056 l-3.640085890846283,2.8274512371960707 -3.94195107063791,2.51664136651278 l-4.21077088612672,2.0947789668317514 m9.450661033622199,-21.242088418791766 l1.5971966026997853,0.8320997250803391 3.025873992880763,2.1473818619161773 l16.785870748175082,14.013390258985643 3.514200719139319,2.239246242801056 l3.0434976999260575,1.1381364997329466 " fill="none" stroke="black" stroke-width="1" /></svg>