<?xml version="1.0" encoding="utf-8" ?>
<svg baseProfile="full" height="109.02871507768246" version="1.1" width="86.43422940847853" xmlns="http://www.w3.org/2000/svg" xmlns:ev="http://www.w3.org/2001/xml-events" xmlns:xlink="http://www.w3.org/1999/xlink"><defs /><rect fill="white" height="109.02871507768246" width="86.43422940847853" x="0" y="0" /><path d="M25,26.44672478285654 m0.0,0.0 m22.3927594302398,3.2403118791086585 l0.04853380088888402,0.5025642738669278 -0.5192063133321506,1.6138037311485034 l-2.4338566441336704,3.676232334176475 -2.7914691646405085,3.1277147222622097 l-3.161540864313833,2.9131950685440144 m-6.882913877400201,-6.567179695535011 l0.7523882648364183,1.0452183421809629 0.2747330891244332,1.7253805902342583 l-0.433565935053352,23.038682763822873 m0.9058856931492895,-24.928240959071957 l2.9767597679179536,-2.529056120567641 2.0038122910139236,-1.1846957802745532 l0.5670533395909055,0.4346476134205952 0.08318374998771133,1.3919194933004848 l-0.12151061157189867,22.509900867298185 m-5.917638243766064,-13.681729450305905 l6.465409303547927,-1.1701483300507804 1.7108394054665657,-0.01897997160020836 m-9.339344792164988,10.376466878474329 l8.469802554374544,-1.2242348215786922 1.7838180561561134,0.01762812032342287 m5.596774233350352,-24.347102537301634 l1.749557504004722,0.2327360780667244 7.188039129692932,-1.641759872798782 l0.568921510600642,0.10380232495801636 0.6576551640888534,0.8871108451647848 l0.07285826465811264,32.27288489266806 -0.14329744114502532,1.9706756952068254 l-0.3829032348020745,0.8881563609247948 -0.5671527584633204,0.17250530241504727 l-0.6304670715405343,-0.36528071554108626 -1.4332383763411085,-1.871488546131037 m-5.974902065883272,-24.143414403901097 l2.024671271473901,1.76457969863142 1.377643261461332,2.034267354669409 m-3.1441529705481197,10.287662245375445 l2.083071181108612,1.9150268891847955 1.5027417034377426,2.071277759279604 m-7.890980170048223,13.298180235128813 l0.9558761230383118,0.3096272667783066 0.9212881384285865,-0.4982047804485354 l7.0357296088767445,-7.324357625624611 m-9.573088251221353,16.06444936470512 l1.2168259656818252,1.6545405104739426 1.0546653909551664,-0.04072942160377508 l7.691674987649192,-6.97449219838803 m7.642486010046719,14.551936023756255 " fill="none" stroke="black" stroke-width="1" /></svg>