<?xml version="1.0" encoding="utf-8" ?>
<svg baseProfile="full" height="104.82476602259732" version="1.1" width="100.23127118947735" xmlns="http://www.w3.org/2000/svg" xmlns:ev="http://www.w3.org/2001/xml-events" xmlns:xlink="http://www.w3.org/1999/xlink"><defs /><rect fill="white" height="104.82476602259732" width="100.23127118947735" x="0" y="0" /><path d="M25,25 m0.0,0.0 m29.938359790547906,4.067629080303268 l0.3437643988711503,0.40745601291630185 0.4596676581586316,1.5718985358995963 l0.001031490150150186,4.328396629921431 m-17.70037063001351,2.2088812558180306 l3.83496634571206,0.16242749845092613 13.69123032209889,-1.6982165659754693 l14.491278603553898,-1.0649197792630682 2.881470376884534,-0.005301387640211897 l2.289872833513637,0.4380815421279892 m-30.138240278758087,3.409686842064339 l0.5326515091953635,1.1834003335296808 0.03951546128856723,1.2739013561254298 l-1.2135830510215986,6.20701324412114 -2.768706168013181,5.662775484027623 l-1.8460323105450416,2.9562120575925026 -4.531906834916198,5.481289511709971 m22.11739663850235,-24.000417452777942 l0.5073007519203906,1.0135887065602434 0.05687260129595645,1.1551824580616754 l-0.033026098698465116,10.815134087015208 m0.44527482337505564,-8.066776203848761 l6.859303510881814,1.3542425282811024 3.77057897641834,1.123237738172212 m-20.137237586180483,7.607289053064498 l0.592652746289917,0.7210628665583333 0.3083220396824947,0.9028593893944148 l1.7274404042575708,10.516365026425204 m-1.3214940901125907,-11.137507769156702 l17.029356860248104,-2.228711430423511 2.1247552124198954,-0.0767715293123821 l1.088015916372829,0.3618271091864665 0.6283412338442094,0.8675464929245724 l-0.019071896154232448,1.3936912264486725 -2.015346833878755,7.211907152569471 m-17.15780594974281,2.137919042984564 l11.086712519743656,-1.4388627037395614 m1.9269884618672808,2.0914983220437686 l-0.02066822040097161,0.7443802701279275 -0.6986588539910408,0.9339016718601203 l-3.7420165301003214,3.0235099348180494 -5.178504640022182,2.685118023824138 l-6.6049369964837945,2.6604987035312 m-1.7415651903658975,-9.684989703803714 l0.5971202309069694,1.446147451452109 0.08853700218606597,10.083848750154006 l0.2862440888445493,1.6314775464557512 0.7154561120783673,1.0641666699521517 l1.7008413093863273,0.8462632062357601 2.677104248316098,0.44326796469759044 l6.338937672360119,0.0322597711312031 3.408489519872202,-0.32592347436673236 l1.5559111523815472,-0.6721011253516587 0.8591469598433412,-0.8451842655067555 l0.5339616345409532,-1.2308738664698722 0.22587321608253677,-2.4127391174906947 " fill="none" stroke="black" stroke-width="1" /></svg>