<?xml version="1.0" encoding="utf-8" ?>
<svg baseProfile="full" height="109.51211950614645" version="1.1" width="108.60386822508202" xmlns="http://www.w3.org/2000/svg" xmlns:ev="http://www.w3.org/2001/xml-events" xmlns:xlink="http://www.w3.org/1999/xlink"><defs /><rect fill="white" height="109.51211950614645" width="108.60386822508202" x="0" y="0" /><path d="M25,25 m0.0,0.0 m16.091706602129925,3.3965792861631448 l0.39621699014530376,0.3831369410818773 0.7478888061438439,1.2864574209236046 l2.567906828702381,14.32732350355293 m-1.8417390452748783,-15.332563655670914 l21.041542434593147,-2.447395592828495 4.748982833373518,-0.28074262484198925 l1.056527636669658,0.8637303350246974 0.16221462241794626,1.6630369961551117 l-2.8903737628142983,10.503626714863357 m-22.01715163071704,2.732844535969047 l23.6600335952643,-2.1218232499876803 m-38.267664053030686,10.31082771219689 l2.2539216477651878,0.19744056893212722 3.1583781606805736,-0.0606382689937151 l35.311189689813496,-2.7817961854495645 7.477572367341388,-0.29073313891202673 l4.946714501878264,0.25912714577666135 m-36.66286517152939,2.7828146191944123 l0.3447943230952284,1.1328669587106692 -0.16673655334904178,1.2644106375816222 l-3.501244873062236,7.771809246180217 0.6372528658574168,1.2193155673922438 l2.193178330166253,0.053505207892739284 20.941395005758604,-3.4701743172571473 l2.05168764686081,1.3258669069111797 0.19807266591366227,0.7756718397236863 l-1.0369318332955475,6.9569670275063675 -2.0791510612855775,6.294241637021282 l-2.7204715838835227,5.662921652866187 -2.7187060180822162,4.293902074124395 l-1.5290774868766348,0.839562004343527 -1.382012529554733,-0.4721404172454963 l-2.3947861714194496,-2.3765713174280854 " fill="none" stroke="black" stroke-width="1" /></svg>