<?xml version="1.0" encoding="utf-8" ?>
<svg baseProfile="full" height="95.92581350988306" version="1.1" width="109.59192418751886" xmlns="http://www.w3.org/2000/svg" xmlns:ev="http://www.w3.org/2001/xml-events" xmlns:xlink="http://www.w3.org/1999/xlink"><defs /><rect fill="white" height="95.92581350988306" width="109.59192418751886" x="0" y="0" /><path d="M25,25 m0.0,0.0 m23.05348862285538,8.502456865094711 l-0.015240143848326025,0.48959471242163793 -0.84262805259187,1.0900054863622373 l-3.5921680006711023,2.445996851287546 -9.447430577769024,4.933354614828611 m-2.2084379133585172,-0.0774171955572818 l0.5368608481834681,0.6100907378838579 0.32590261424839456,1.0366001382200658 l0.02946891528587683,25.102833573444297 1.0942151424990099,1.7922977258973716 l0.9063365230614614,-0.6830316868967508 9.219848004239578,-5.889073770942391 m1.1855294552529188,-18.011657973432083 l2.0563261883953934,0.7440004235302468 2.02749963857479,1.4261489748005245 l1.8239923530773596,1.6380234610590716 1.197584158300502,1.774268569454524 l1.2053770438018583,2.7306334344743 1.0026717194550747,2.9387127359545273 m5.454676326687379,-27.145724825988136 l1.9950152599569182,0.32729200204334574 2.327034005893544,-0.09206249838714657 l14.566256216662653,-2.1004133830582195 1.7188065014123695,0.12877646442479823 l1.1060111253624512,0.8174154277584652 0.3486658405774415,1.346217639673923 l-0.59087667745164,1.981385769092499 -9.247538176581271,7.936681854561317 l-4.540456865723677,2.4721508525916405 m-0.9028673184294944,0.39900966408317873 l3.5901043213947945,1.725140079860419 3.608082726007034,2.110387478580055 l3.1535302692241673,2.1731219314026284 1.972429787547001,2.0665783836441536 l1.2897175549767097,2.0107109346704695 0.7844960642621637,1.9361777255363828 l0.33805876632028015,1.9857328919700903 -0.28406666468137654,2.050037887229969 l-0.8256575704661487,2.4922182827896022 -0.7804896639644734,1.2312837959772396 l-0.9572022374935941,0.9722703036067128 -1.083977336715613,0.6491778314271393 l-1.2490055913778477,0.329717983882724 -1.508576146265865,-0.04593444008259531 l-1.5873665433140733,-0.4586312128737084 m-12.221956265176905,1.7217874536241684 l21.156409833634402,0.09478576607654003 2.4034701062493067,0.2444837009693754 " fill="none" stroke="black" stroke-width="1" /></svg>