<?xml version="1.0" encoding="utf-8" ?>
<svg baseProfile="full" height="91.93899834345018" version="1.1" width="100.23905885743471" xmlns="http://www.w3.org/2000/svg" xmlns:ev="http://www.w3.org/2001/xml-events" xmlns:xlink="http://www.w3.org/1999/xlink"><defs /><rect fill="white" height="91.93899834345018" width="100.23905885743471" x="0" y="0" /><path d="M25,25 m0.0,0.0 m30.706421680208297,3.8672412814159194 l0.3472622084383599,0.34512326916828545 0.495925600838752,1.4578462709520408 l-0.054187887036365436,4.363481313631223 m-17.29687255410435,1.9072857154902496 l3.8640520411097983,0.1663911859979681 14.63739306306194,-1.45679806806356 l11.325528163628526,-0.8266641121956987 2.779820060747117,-0.0989898306732253 l2.2914717627200765,0.3590037603169708 m-29.251339056198823,6.97086501613201 l0.5940312742667783,0.9920305398264702 1.8673799587316815,2.798542539619943 m-0.9471581658699365,-4.86804960845441 l7.2179706137608095,-1.939601379204901 1.8542713687958368,-0.36510562453041906 l0.7158500450184266,0.6304069596889011 -1.2088394921480508,4.407371032636125 m-7.235441439024647,1.5766980705073101 l7.682710643848005,-0.9887264180905933 m5.6284145297592785,-6.021651912597421 l0.34442531507950497,0.4006225097711014 0.28973074321702597,0.9163005810493611 l1.0085346770027,5.207124106310801 m-0.6560986060622381,-5.858104377475875 l7.525456574950966,-1.1706957078216338 1.3969342853401214,-0.14863944134318047 l0.696807087236096,0.1371918661925684 0.251275565360986,0.40242118705763447 l-0.08695340082835987,0.5001842513998922 -1.3521925256974878,3.9321348118653385 m-7.158784410428037,1.3698255048735997 l8.569786804304842,-1.037034075604043 m-26.73690278021671,7.559712514735219 l2.692107186864369,0.20387747903693512 24.85132799594892,-1.9825160254944356 l2.58893992481049,0.14730874879863248 m-22.311718314071296,2.255487707904028 l0.6441653985155164,0.8100051449018781 0.23757375204962966,0.9450891152772812 l-0.05410052256830341,11.34035607947568 m0.5655890570841702,-13.409370168261972 l14.397008843134955,-1.2153438216274186 m-12.605097096392358,6.409874269654472 l12.725300177036628,-1.235585953400928 m-21.409383191882288,8.186805969314578 l1.194201749016814,0.40181288918152924 1.0962729458026095,-0.05834571733978198 l22.706145365750434,-4.823863956662626 m-3.223770675522839,-13.133392199372013 l0.4979360497403146,0.91883402135289 0.11485355865569036,0.9675903776313851 l0.08909400334660479,19.7226306504961 " fill="none" stroke="black" stroke-width="1" /></svg>