<?xml version="1.0" encoding="utf-8" ?>
<svg baseProfile="full" height="99.73982823844213" version="1.1" width="103.82281554997576" xmlns="http://www.w3.org/2000/svg" xmlns:ev="http://www.w3.org/2001/xml-events" xmlns:xlink="http://www.w3.org/1999/xlink"><defs /><rect fill="white" height="99.73982823844213" width="103.82281554997576" x="0" y="0" /><path d="M25,25 m0.0,0.0 m14.862043309625845,13.183075698193065 l0.3743278736247106,0.13675105616883723 1.8084728310022629,0.2450635384271852 l23.586464658975217,-2.178468184101204 4.317791681205861,-0.1880531434587031 l2.1283347303913507,0.24796866971159717 m-24.501387980667623,-5.649626799994325 l0.7777124291273908,0.8559582484390266 0.3304666009684429,0.7306995104593712 l1.6384805392434247,11.335594167924425 m12.269125421652296,-14.239948105772877 l0.3747988218306046,0.8719181225818221 0.07914829056132548,1.042924707378102 l-1.939392021032242,11.221555728534398 m-6.7692941242518065,5.730916017366739 l0.031060333692131046,0.9406693454825572 -0.2536841043675581,0.8322548939356336 l-1.867232610122928,3.2601688954552066 -2.235374944677502,3.0770464017456005 l-3.5717881057323013,4.005187501173046 m-0.10440867102907997,-11.856252499472419 l0.5326885290005168,0.9682589133849882 0.2879401903986196,2.1427400257106886 l-0.02269076976848363,18.834252686607904 0.260395985774174,2.1090837894782357 l0.5667646657080863,1.0898657988684386 0.8668458676139531,0.6039391093002338 l2.066162063994531,0.3862841449145522 4.072386931053431,-0.0980395230791669 l1.8840146448052142,-0.43623185148756993 0.9007913611655455,-0.6245978191614167 l0.8086693229934102,-1.3226644072838127 0.2948774475226243,-1.14834198099672 l0.12507186048106647,-2.1752986575817856 m2.078794990719758,-29.53857453224462 l1.4401098248312938,0.2775401580476828 1.840039152903268,-0.06431014256137073 l12.917581415936436,-1.8748821998636092 1.2898061887831895,0.6141278436959337 l0.2769009160393106,1.1343098608055315 -0.21372831782555227,3.3224469102782104 l-1.0385747715362168,7.936204943418281 -1.387021989658695,7.39291988127432 l-1.571820400186413,5.778195065884848 -1.0750217222641079,1.9680631033887797 l-0.4755656164786101,0.3586554012056814 -0.9262428612794166,-0.07746219413292942 l-1.5523898195974388,-1.729012089231699 m-0.8224085294250507,-24.499384679316595 l-0.2017277925515972,1.9134285932601158 -0.9138479682900028,3.124659314162086 l-1.291495026522536,3.499845254178584 -1.3839700568562658,3.0158274377736465 l-3.4666360505021125,5.458501971448076 -4.4693537619866675,4.7532733715916216 " fill="none" stroke="black" stroke-width="1" /></svg>