<?xml version="1.0" encoding="utf-8" ?>
<svg baseProfile="full" height="115.57306310612584" version="1.1" width="99.60323551566279" xmlns="http://www.w3.org/2000/svg" xmlns:ev="http://www.w3.org/2001/xml-events" xmlns:xlink="http://www.w3.org/1999/xlink"><defs /><rect fill="white" height="115.57306310612584" width="99.60323551566279" x="0" y="0" /><path d="M25,25 m0.0,0.0 m14.14423372972744,12.096351735672696 l0.4514125338524314,0.16889473909210065 3.09488964135251,0.12537391652769014 l23.470714831885655,-2.1767827935450335 3.9665278384076212,-0.11781920428789772 l2.4288399616356213,0.2411987051705228 m-25.377074300861107,-5.149746445979302 l0.878940477013589,1.4749317751429027 1.1880274431009425,10.828753386362557 m13.296801309597035,-13.264600224426898 l0.21295014057358655,0.9825036805999418 -0.07871668238432267,1.1555445446183623 l-2.086307497635778,9.561200582527304 m-21.15737690581095,5.812264681489818 l3.2421762981874327,0.24999400229365037 25.706683247769355,-2.504476723537399 l2.7481741697833044,0.23198752251621954 m-17.630731067853088,10.167451469465485 l0.15903967419258974,1.1625383718895503 -0.2154469247402993,1.051290888092588 l-2.8706143918095375,12.242284631189445 -2.685702113776563,5.1762518306317995 l-0.20068372560025197,0.5412886361497428 0.2569751006170913,0.4735699304115761 l0.6818489158777036,0.12696958031810637 2.7902715993243574,0.3086319594688592 l3.370854188876453,0.8958381107324146 3.7603903184177527,2.2643958309735326 l2.9784256179023014,2.140108144929229 2.5665474886491495,2.3487476316279983 l2.0671527000738172,2.311275339775678 1.5955193563348016,2.5038862565624385 m-5.809303613348479,-27.140187684543896 l0.11993846235230916,3.1201032706627556 -1.0756550750918403,4.343039754028002 l-1.9063754430844766,4.794625961499974 -2.713340467020032,4.843516602060793 l-2.779504784163494,3.7430642433460304 -3.4118692491912586,3.5185614611060614 l-4.023378267576939,3.035008266064601 -3.474109061873055,1.8852287394458447 m-4.202911173120065,-22.663047843591286 l1.4041670777491388,0.29349956669013144 2.0959459031867738,0.001185582515957135 l30.536931128692597,-1.6596051870331103 2.0879571054709425,0.41944298719620066 " fill="none" stroke="black" stroke-width="1" /></svg>