<?xml version="1.0" encoding="utf-8" ?>
<svg baseProfile="full" height="100.18563359833112" version="1.1" width="102.32351163161687" xmlns="http://www.w3.org/2000/svg" xmlns:ev="http://www.w3.org/2001/xml-events" xmlns:xlink="http://www.w3.org/1999/xlink"><defs /><rect fill="white" height="100.18563359833112" width="102.32351163161687" x="0" y="0" /><path d="M25,25 m0.0,0.0 m27.677734509586948,8.160440750329032 l0.038079944871670754,0.35405251911966945 -0.4052533616963854,1.3538033609097877 l-1.68508426727361,2.2920338481913163 -2.604345199912313,2.5951700647133094 l-3.3932149046039988,2.7772241387554857 -6.805925940255427,4.682840160067083 l-4.569035345046963,2.689364492311509 -3.562887832870166,1.759100666322039 m24.400560841803358,-17.91417252620707 l7.165162093012614,5.008134451541644 11.169037766773858,7.521765282160337 l2.33180551754016,1.9378548209709816 2.5668778096871105,0.9178577432029853 m-30.157606033794757,-3.860424184848733 l2.178377906458868,0.06748796623828324 9.434251051487944,-1.0693683124861584 l2.7976165845565917,0.013976538444474624 m-22.18775638449222,6.984498824427737 l1.7424846648542884,0.2392816725043164 1.766086333980797,-0.051561085131389184 l19.88155571123068,-1.9159770759062489 1.0368184167598193,0.041654447893931086 l0.6627805744225366,0.2427066627178894 0.2694582367366201,0.4786660238431384 l-0.5607145676885253,0.6940560870256209 -4.6285213428022836,3.8821195612604664 l-3.932715961176832,3.1230123904345017 m-20.94720647881357,8.571844696343668 l-0.17452963540786848,1.0908217113401115 -1.002190390966452,2.3060553834770317 l-1.496415020142226,2.51930390267422 -1.2697958590187923,1.6965213708574127 m10.991625793562774,-9.751877349175748 l2.8839763711661868,3.807325230361586 3.164124520215631,2.7761229373704865 l3.8261287539726023,2.0823197242985483 3.5770512409030855,1.154854795580923 l4.211022812537888,0.6597598445037356 3.5321680903772545,0.24587954395507794 l4.071188325255271,0.021102517938140778 3.221816694894715,-0.2977235521664474 l0.8903081893738038,-0.2410710078207508 0.49362298783565495,-0.3540857181946964 l-0.0014432197362231297,-0.4557229126231198 -0.4950397244188758,-0.5507617810416915 l-2.3213942515568675,-1.5351086453627485 m-17.304578063539264,-8.173244032425742 l1.3899627921471314,1.8615413067194457 1.1559896591657737,0.8602262791137201 l0.8923275072287403,-0.0004887537664699217 0.6752911262124639,-0.8855449684323949 l0.3075782291452601,-1.0179440626130858 m12.590544040329753,-3.0282166458514936 l2.4260587982749326,0.8746201529319392 1.7822549094076503,0.9111532529999433 l1.7032041284745714,1.2666760841934637 1.6431348763782767,1.7237864557729878 " fill="none" stroke="black" stroke-width="1" /></svg>