<?xml version="1.0" encoding="utf-8" ?>
<svg baseProfile="full" height="108.99138189852238" version="1.1" width="109.49251276440918" xmlns="http://www.w3.org/2000/svg" xmlns:ev="http://www.w3.org/2001/xml-events" xmlns:xlink="http://www.w3.org/1999/xlink"><defs /><rect fill="white" height="108.99138189852238" width="109.49251276440918" x="0" y="0" /><path d="M25.000001047737896,25 m0.0,0.0 m17.217262983322144,3.775767982006073 l0.05062893498688936,0.6264107674360275 -0.12986456044018269,2.013412266969681 l-0.5256867036223412,1.8208621442317963 -4.547884166240692,8.509932160377502 l-5.545870661735535,8.124831914901733 -6.518586874008179,7.993143796920776 m11.22414231300354,-11.594293117523193 l0.6287241727113724,1.2585161626338959 0.2896927110850811,1.8397256731987 l-0.21138720214366913,34.623072147369385 m43.18817138671875,-48.655028343200684 l-0.18872402608394623,1.133945882320404 -0.9602592140436172,1.5898731350898743 l-2.0651979744434357,2.0956286787986755 -3.1021568179130554,2.5302010774612427 l-7.279533743858337,4.630100727081299 -6.631056070327759,2.948579490184784 m-3.462342917919159,-25.124764442443848 l0.8426292240619659,1.0673896223306656 0.4328818619251251,2.000955194234848 l0.09443431161344051,43.78468990325928 0.42878881096839905,4.955763220787048 l0.8847162127494812,2.5832325220108032 0.6902975589036942,0.9107869863510132 l1.4144070446491241,0.9712925553321838 3.5730326175689697,0.8073936402797699 l9.734992980957031,0.15317700803279877 5.380725860595703,-0.493965819478035 l2.042597383260727,-0.6828232854604721 1.6448621451854706,-1.5096142888069153 l0.7315836846828461,-2.350819855928421 0.16649045050144196,-3.3619749546051025 " fill="none" stroke="black" stroke-width="1" /></svg>