<?xml version="1.0" encoding="utf-8" ?>
<svg baseProfile="full" height="108.49039233782425" version="1.1" width="102.49721432268504" xmlns="http://www.w3.org/2000/svg" xmlns:ev="http://www.w3.org/2001/xml-events" xmlns:xlink="http://www.w3.org/1999/xlink"><defs /><rect fill="white" height="108.49039233782425" width="102.49721432268504" x="0" y="0" /><path d="M25,25 m0.0,0.0 m28.651896844115665,19.167122706198384 l0.33937573373151175,0.28897832106691296 0.8750740611695116,1.1431083533648867 l0.2737497293468171,1.382145841594727 -0.1057349977616621,21.22613257618314 m-18.695536204744723,-22.930164394915778 l0.5870838623919592,1.6154497562446228 -0.5592383663604671,2.000553088139158 l-1.2817850589431912,6.07085308732426 0.19431669258797737,6.061205528226339 l24.053925573598118,-1.4369231845137656 15.55143614584406,-0.8879657474926952 m1.6007892412730076,-11.921191162427327 l0.8273659372606829,0.9773647753319566 0.1844951291757755,1.0451234354623036 l-1.7469448252765925,12.274104919029352 m-41.243387444703025,10.627862295278284 l0.7103775950371952,0.9090992249294932 0.23183046354964773,1.015900568165557 l-0.8962494326788534,5.066833640264431 -1.1730397740436505,3.8304629584687557 l0.05687575547709191,0.6596026415875234 0.4429931162072582,0.3047331103137224 l7.785636176196991,-1.0998048403960217 9.988020392159562,-0.9524300398589811 l11.010463900048535,-0.969673575262441 10.735094171930054,-0.37160573952917175 m0.29595191917732216,-9.749546734044905 l0.7476057665308805,1.269519617636285 0.17359312458173187,1.0404373965475144 l-0.7602780603753403,10.508266159984329 " fill="none" stroke="black" stroke-width="1" /></svg>