<?xml version="1.0" encoding="utf-8" ?>
<svg baseProfile="full" height="100.51084734657391" version="1.1" width="118.87261650650338" xmlns="http://www.w3.org/2000/svg" xmlns:ev="http://www.w3.org/2001/xml-events" xmlns:xlink="http://www.w3.org/1999/xlink"><defs /><rect fill="white" height="100.51084734657391" width="118.87261650650338" x="0" y="0" /><path d="M25,25 m0.0,0.0 m19.524942954519602,4.558612426569197 l-0.013870041781094793,0.4259904330107231 -0.29974177902156623,0.6779894713715013 l-1.3052487141553764,1.3189322989408796 -3.443400103833743,2.5509986613846936 l-4.098215297229051,2.2904792528153766 -4.597417103986223,2.148404960229483 m-2.7455968795988315,-1.6487877932746775 l0.7255770224719705,1.021039881800925 0.2760553304809983,1.7269152726180883 l0.14802297429213176,26.224323902359664 m0.19686088440655927,-18.71320938423015 l16.181657200457117,-2.388504989311897 2.745394665824202,-0.01005325934380092 m-5.806408571527931,15.816810866343506 l5.681291934974166,-0.035038595535108796 4.883660578045897,-0.09367692403749722 m7.127159621647539,-27.08336714897289 l2.11618874272863,0.16486638493937042 3.0089326495267796,-0.13537291743950164 l15.832069965441592,-1.5578428134118072 2.4881383036334492,-0.039557093754274526 l1.5382625765043583,0.27332649719968233 0.6739935414771161,0.7828662488083477 l0.015461821538579286,0.5960695837285565 -2.4588584910276476,21.759355148592487 m-16.758102736670857,-12.086708142424524 l3.018662136166131,0.2831191534293539 13.58432177946784,-1.0689433103563772 m-16.76911090902963,11.540202598357997 l2.8620940077268466,0.25611493646711764 13.653053345704395,-0.7106708387706318 m-42.31439719789266,13.384890168826422 l-0.5962557228652968,1.8420130637760264 -1.557909680616144,2.4946350852209576 l-2.3259729698903002,2.786009023569638 m16.404215988914945,-7.805264127241867 l1.0560129957138502,1.5352407988220365 0.9638584179998813,2.2967694703556245 l1.2455911162408704,5.131869095141253 m11.263080704066116,-9.349319011003434 l2.941155970836354,1.4763160374124042 2.6827685536320436,2.1190954345351476 l1.9407417960665254,2.0804478346593585 1.146820791698514,1.843943544405347 m9.599866272369994,-8.25200347099986 l2.6057681890519517,1.6853271374211032 2.695496734684354,2.5048716108477125 l2.148845013473985,2.5678199752969224 0.9870981238444462,1.915554612517762 " fill="none" stroke="black" stroke-width="1" /></svg>