<?xml version="1.0" encoding="utf-8" ?>
<svg baseProfile="full" height="91.43242268470061" version="1.1" width="115.9854744177838" xmlns="http://www.w3.org/2000/svg" xmlns:ev="http://www.w3.org/2001/xml-events" xmlns:xlink="http://www.w3.org/1999/xlink"><defs /><rect fill="white" height="91.43242268470061" width="115.9854744177838" x="0" y="0" /><path d="M25,25 m0.0,0.0 m13.755464856733811,12.132799895924794 l0.49449973343863113,0.08867877742904119 3.296540854712807,0.0049787371181795595 l24.008508813419855,-2.4049722268275953 3.822696191170466,0.18031615394820935 l2.438890062435304,0.36309814221200976 m-27.23234511367373,14.2348805497163 l4.438361535143124,0.23318277556214526 14.667128961896813,-1.6182628842813496 l2.7650403462226096,-0.10284751021693984 1.7485218569800045,0.2211453943350479 m-35.67925685601273,14.591907606837005 l3.637615989845776,0.2597322698177652 20.022893804831487,-1.7777835625137024 l15.787328728269907,-0.9218559131073267 4.490641451596627,-0.11582598398969937 l2.8480538933132205,0.365992126449556 m-24.954713639593898,-26.06924025673914 l0.6858560000447206,1.654265499802416 0.03908068213506992,20.202850712302887 l-0.5072004655652342,1.7080561183403737 -1.2576026517001293,1.368376107006454 l-3.668435395337417,2.3726006478032113 -4.1394329897590305,2.0259691874732253 l-5.688804161432578,2.4343803202977563 m24.052571210113243,-28.507173669523066 l8.62241454501679,9.312532258450458 7.610274754874996,7.252168932011283 l5.314423743247059,4.588770140657102 3.5126086143887547,1.23463252726103 l1.0538490610274738,-0.029391477633934505 " fill="none" stroke="black" stroke-width="1" /></svg>