<?xml version="1.0" encoding="utf-8" ?>
<svg baseProfile="full" height="105.30466472893072" version="1.1" width="99.83576294922437" xmlns="http://www.w3.org/2000/svg" xmlns:ev="http://www.w3.org/2001/xml-events" xmlns:xlink="http://www.w3.org/1999/xlink"><defs /><rect fill="white" height="105.30466472893072" width="99.83576294922437" x="0" y="0" /><path d="M25,25 m0.0,0.0 m7.493499402372207,4.555432205314323 l0.49898915272557753,0.1637606504236582 2.9360726655436595,0.17868108919428333 l28.22531560989941,-2.776498234345701 4.93470365106562,-0.12684688102911004 l2.676339503969506,0.3371198172145908 m-24.75958281363694,2.7347158821763515 l0.3246974231306815,1.0290185591779017 -0.09549722455317132,0.864199616220921 l-4.5326637873516615,7.462251137372277 -6.035844418017021,9.31340951096144 l0.8858504792326334,0.5157175033456812 24.25599606727474,-6.2112218340673815 l6.6222342652418185,0.759211655266056 m-9.4107928704083,-9.470845282822214 l2.4665061939281423,2.0446201449639116 2.953975583183991,3.7447891487670897 l2.3755536868238623,3.872136139115651 1.1130817642343847,2.9635179335723385 m-16.473417299609743,14.251248088889858 l9.107794327408763,1.15564265724727 4.391578572708383,0.3648328269730828 l2.7787346046223202,0.6282187565638577 m-15.227679332370924,-14.236909634980929 l0.5621491622448501,1.2006415474736973 0.15245932298450623,1.827420903481682 l-0.05363595943578754,25.53163762127811 m-19.323096331342466,2.1021636889400295 l1.7994334416921136,0.4805980907665898 1.566379635617486,0.04600142147540219 l28.14356510681402,-2.7308133986956293 5.734282607269592,-0.16041776542630817 l3.7487807559621324,0.3989063963306518 " fill="none" stroke="black" stroke-width="1" /></svg>