<?xml version="1.0" encoding="utf-8" ?>
<svg baseProfile="full" height="96.41369532692649" version="1.1" width="99.05811864688991" xmlns="http://www.w3.org/2000/svg" xmlns:ev="http://www.w3.org/2001/xml-events" xmlns:xlink="http://www.w3.org/1999/xlink"><defs /><rect fill="white" height="96.41369532692649" width="99.05811864688991" x="0" y="0" /><path d="M27.73197909144884,31.027224520250787 m0.0,0.0 m6.7270171488026875,2.982953138103935 l0.521943785683219,0.4678653241501446 0.8240222395569619,1.3527586182323554 l1.159065552173176,1.809207821164317 3.181751817341003,2.9691723037295863 m26.77683694024186,-10.202736212605005 l-0.21605415719425294,1.8026245244164092 -1.7793303932882298,2.374083258300926 l-2.8273481127142417,2.673960899942581 -3.105217485439392,2.4621977864652416 m-31.157396760354043,6.403439446178318 l2.501478204511313,0.33339752804044137 2.4236459300342794,-0.014446656751651545 l28.51965709456664,-2.778361230770523 6.505393611665911,-0.2982749661179896 l3.506846720736151,0.3105314396898735 m-22.17330602169897,-18.675597542419744 l0.8272180035266278,1.5151413883167009 0.17634262158160177,1.680208461570295 l-0.0466050796891383,43.21834547703949 m-3.061176274946307,-25.63189973627367 l-0.3211062562930084,1.7948782548353965 -1.4199623387952076,2.3132954909698866 l-3.0560903992723087,3.6714284759371543 -3.6961177211512424,3.674388250386843 l-7.091160048600101,5.6115953351754415 -3.328641332439722,2.089691370578508 l-3.103686379994109,1.5753756036176076 m25.921883509193087,-20.29865291023376 l17.378570968412443,15.388349725270427 2.8211552354685567,1.916573677658065 l2.9365089338158237,1.4232737332032985 " fill="none" stroke="black" stroke-width="1" /></svg>