<?xml version="1.0" encoding="utf-8" ?>
<svg baseProfile="full" height="99.7846263439593" version="1.1" width="92.7995832370666" xmlns="http://www.w3.org/2000/svg" xmlns:ev="http://www.w3.org/2001/xml-events" xmlns:xlink="http://www.w3.org/1999/xlink"><defs /><rect fill="white" height="99.7846263439593" width="92.7995832370666" x="0" y="0" /><path d="M25,25 m0.0,0.0 m18.78345044768975,11.844682518087694 l0.03016886753397568,0.43132931382410955 -0.22939795055352194,1.3397997416391116 l-1.0345476308637234,2.5357375341394186 -3.302245078294237,5.014611451321421 l-3.8804377814576076,4.692638065085031 -4.323835799103775,4.115555403395914 m10.908830846439459,-11.345129035155622 l2.5632543501465643,0.20001929770303337 21.410464506568562,-2.085560375984375 l1.0233864119435647,0.27451934507155273 0.7378028886566135,0.863981944382558 l0.11268915836097554,1.994095352639911 -3.5415288854733604,7.2601370010429065 l-3.486469780313234,3.7252607285957597 -1.6250627440054701,0.4284313353986863 l-1.4613670782818893,-0.2974125952132545 -1.6277266495590832,-0.9680012764127439 m-9.53255206454684,-6.858599400347256 l-0.10247318709877873,0.7952269922933353 -0.6326002250101256,1.0812542740130713 l-2.3637757886998285,2.7598483902095086 -2.6612253507576455,5.0067608547216365 l-2.505530472732249,-0.3767113525144439 m16.563941570090783,-9.446773574170413 l2.574569433003312,1.2694554896361 2.3987982899589815,1.564223442244908 l2.099650920407223,1.7822914543549362 1.3281750902844147,1.5441014042947145 m-25.337739078294465,6.746358321978697 l0.63196780725619,0.1731119375954507 1.565409407780552,0.05125351045107318 l22.919248202507525,-2.421313795763662 0.34677886641795924,0.26246844270702774 l0.28435912364918575,0.834813587256635 -0.508060732640313,1.0235778211841724 l-1.5262556186635423,3.792193116626224 -1.8783953621761011,3.9985616220565303 l-1.9962542650104216,3.1560830879217927 -1.3344759114123041,1.4487864506157406 l-2.024232821947787,0.6028728447953842 -1.3280815586991228,-0.9347601200092821 m-3.2722377367636333,-17.152456194653485 l0.04407069054698497,1.6364482808364402 -0.9518874754603819,2.6396687185234016 l-1.5420629023050791,3.1156768334275773 -2.1328150540573714,3.1355730207061 l-2.212907831795732,2.4689263630960703 -2.6553744360254585,2.3624441653887946 l-3.160352769417685,2.236290417486889 -2.706166981428563,1.4622741874345124 " fill="none" stroke="black" stroke-width="1" /></svg>