<?xml version="1.0" encoding="utf-8" ?>
<svg baseProfile="full" height="102.68260845772288" version="1.1" width="97.97613028986568" xmlns="http://www.w3.org/2000/svg" xmlns:ev="http://www.w3.org/2001/xml-events" xmlns:xlink="http://www.w3.org/1999/xlink"><defs /><rect fill="white" height="102.68260845772288" width="97.97613028986568" x="0" y="0" /><path d="M25,25 m0.0,0.0 m2.18636878826218,22.90667680856052 l0.5323984913129646,0.1699840823500236 1.2787502841650629,0.13815958443168092 l2.31969405006045,-0.29593240952410393 8.673065810417015,-2.2743031576918185 m-0.05497506571866913,-13.765327785765262 l0.7971585815514522,1.3763810384535828 0.3282991455715374,1.383217444844272 l0.15750438743122755,31.04934694834893 m-14.639781567960288,6.362537785680417 l1.5277927957323483,0.46441584322396434 1.1489231044964325,-0.3468342116415432 l13.761430922671401,-7.883878323068757 m25.015585455905114,-18.685220178233536 l-0.4269465772668449,1.1289114896152044 -0.5659600640996277,0.8661309855038476 l-2.434061186160916,1.7766963189737854 -4.12797378964557,2.68438198226548 l-4.207730266963841,2.2053780930396663 m-1.90871005254347,-17.071043445765834 l0.5294028719837762,0.993720857518669 0.35477306604500036,1.5440746727755117 l-0.08845313180335879,29.72986730193409 0.2146876599056731,4.324561371691863 l0.5286909868560361,1.736094877269334 1.3678549871106584,1.2647709285750208 l2.5369129681754385,0.7009037407767121 5.99037158729011,0.19893581358116158 l3.916104218902665,-0.4437408738751202 1.3304512853819488,-0.6525094818658026 l1.292913407853298,-1.454017258210746 0.47991841823328757,-1.6567962221466241 l0.1616687167131868,-2.986629767014063 " fill="none" stroke="black" stroke-width="1" /></svg>