<?xml version="1.0" encoding="utf-8" ?>
<svg baseProfile="full" height="87.75055560150417" version="1.1" width="105.26409644900255" xmlns="http://www.w3.org/2000/svg" xmlns:ev="http://www.w3.org/2001/xml-events" xmlns:xlink="http://www.w3.org/1999/xlink"><defs /><rect fill="white" height="87.75055560150417" width="105.26409644900255" x="0" y="0" /><path d="M25,25 m0.0,0.0 m12.742430156007504,2.991938065080282 l0.40925389932750844,0.2022981122408971 1.621457810852836,2.250089311091877 l1.0556668862366392,2.276304158168056 m13.261676362120088,-5.891101033487868 l-0.045894384978565086,1.1021461935536607 -0.882421999515435,1.7770846906343267 l-1.237827683339085,1.6696081635058975 -1.2887462751117278,1.4229043511224382 m-16.529701041662648,3.197617816236523 l1.2798446658828926,0.19998267055220906 2.03692801343889,-0.06685560285965567 l16.919491720178318,-1.6643165056817502 2.6719405621012697,-0.08407244318414729 l1.6472978459899468,0.1770405842623623 m-13.37963510183601,0.6504374928891687 l0.5378552503925046,0.5833353789572338 0.24722481654780712,0.7943877573426684 l0.022349849096604847,9.678137162997151 m-11.265935530306326,-4.7241476096194255 l2.5307028356108905,0.15708374961624214 16.388228371401734,-1.7319456385287648 l3.5053237507222095,0.10915846366365224 m-26.458073474165165,8.363090014008675 l1.5884711504112705,0.11479027230536289 2.0744910857111973,-0.05830968158919935 l27.322605783829356,-2.0624796844710347 2.1608320260363563,0.2850644781068147 m-20.969954632547232,6.202215676303321 l0.005675257525181139,0.9988036150881721 -0.35152132504379835,0.758809382598439 l-2.5987974071455886,2.3153416574192853 -4.560404559380167,3.201590289924751 l-4.683226084716518,2.5545242932565526 m22.62392990973724,-10.492251126053551 l1.6822191088515317,1.3773257356922723 1.6911326154766217,2.006418807240884 l1.4145770995509583,2.4089519132597816 1.4011452462263903,2.7951045145193723 m9.887024012807002,-15.487721106257323 l0.11860724876812816,0.9114919107542652 -0.23996471152137047,1.130760112340703 l-1.2204720107965088,2.0031616778008967 -2.1119789991243234,2.4959913764126958 l-4.282195192014783,3.9499678202817554 -0.36012337720847454,0.8603603323641621 l0.1514754214486045,0.3229562925431792 0.6338977912974504,0.001645903439120625 l14.613396623236802,-3.2236216936221815 m-2.1099772112289714,-3.556650913249682 l1.5923488245014035,1.3837456398201193 1.8206778748231767,2.100614003150802 l1.4564115886173934,2.1653294729311505 0.7243559858815347,1.7304703148425078 " fill="none" stroke="black" stroke-width="1" /></svg>