<?xml version="1.0" encoding="utf-8" ?>
<svg baseProfile="full" height="106.64677607040082" version="1.1" width="104.29337371674112" xmlns="http://www.w3.org/2000/svg" xmlns:ev="http://www.w3.org/2001/xml-events" xmlns:xlink="http://www.w3.org/1999/xlink"><defs /><rect fill="white" height="106.64677607040082" width="104.29337371674112" x="0" y="0" /><path d="M25,25 m0.0,0.0 m12.485898048638594,9.519245328673192 l0.4242864386420715,0.08568410745106428 2.15508316771864,0.17150808455911287 l3.1461023206988004,-0.36657557762869486 23.605041092115815,-4.4685093441987895 l1.2225251368884789,0.5491790458370746 0.40192751635297375,0.5019141718644639 l0.2066709225129786,1.3667148395010165 -2.5279587289915075,5.652993798664739 l-3.9638255161118954,7.5375248837883975 -4.392700076894686,6.700215230849372 l-5.002176497294384,6.469957384462961 -5.432306348827092,5.862768570932789 l-5.718646120126976,5.2264246944423665 -6.145576339087465,4.601811639299203 l-6.232845472230224,3.0858709914426172 m16.538578896738382,-34.649160527343085 l1.6724196046287036,1.0771312997721418 2.368963107107585,2.0220732316197143 l1.8450179141440266,2.0992641863184804 0.8290090396435785,1.4315653811832565 m-18.12657267779663,-5.050810398654095 l2.846688572064494,3.7724212959357506 5.061369721733993,5.225289521750587 l5.294861616244722,4.848372639986726 7.291603501106391,6.206335735197681 l7.799009419508445,6.555778285780175 7.307332895736554,5.8979746145905185 l6.0792630113177335,3.592545353450051 3.2543295505590066,1.1212676008720526 " fill="none" stroke="black" stroke-width="1" /></svg>