<?xml version="1.0" encoding="utf-8" ?>
<svg baseProfile="full" height="122.94451942601808" version="1.1" width="108.12140279789435" xmlns="http://www.w3.org/2000/svg" xmlns:ev="http://www.w3.org/2001/xml-events" xmlns:xlink="http://www.w3.org/1999/xlink"><defs /><rect fill="white" height="122.94451942601808" width="108.12140279789435" x="0" y="0" /><path d="M25,25 m0.0,0.0 m4.976597311622417,22.129483962923977 l0.4246391580609838,0.12387631964493157 2.6446549234904593,0.01716258338371736 l13.726542370540885,-2.6043372617998544 2.6913944440361797,-0.15392682624528475 m-9.471192769401702,-17.180500761039596 l0.7819437194838305,1.2265960272838314 0.39138209189355383,1.6209248881216431 l0.01479063957803244,54.32348138755529 m9.126728380578992,-39.64422225836091 l0.325929746706635,1.085914349937324 0.0028019560161481128,1.8728124087492182 l-2.699043087500984,8.275504968426642 -2.8982325133901075,6.006372014956153 l-3.8490224306096392,7.107222470648314 m9.735716706182288,-15.345189104922147 l2.485521904771452,3.53820825360466 2.3312589757579874,5.050008948401219 m3.5612439821876465,-21.007079760039108 l2.472237067448959,1.8229045030421793 2.458499435113534,2.3583912981996034 l1.7025651014047827,2.215887077183585 0.8670697706928693,1.9506095531240997 m14.118992475420475,-11.926847641070552 l-0.015226727445401662,1.4675713730205637 -1.5097073704249568,3.0197283041785274 l-2.4991811212477577,3.793846325342494 -2.94681879880419,3.6350549640281598 m-7.357602454693901,4.059774967402463 l0.47868251827857033,1.0052934121086474 0.1221055552660457,1.3994163551682333 l-0.042486483417587366,6.088333065293329 -0.6468188028588434,9.412398351100084 l-1.0622674400456107,7.052369696155465 -1.2846066263575513,4.792776204714639 l-1.7188175219057225,4.176271222109968 -2.308089466635109,3.6999481102201863 l-3.114114483601561,3.3324273252530747 m16.397407700046482,-30.665811988910633 l0.7107148526727827,3.9608342983082356 -0.1660162324331157,29.8510300388157 m8.3888345857856,-33.34376614573779 l0.5862385951411128,1.2649915282515092 0.1861531604893841,1.2333501672833933 l-0.051898706877915465,29.993828773650044 " fill="none" stroke="black" stroke-width="1" /></svg>