<?xml version="1.0" encoding="utf-8" ?>
<svg baseProfile="full" height="101.40366717571291" version="1.1" width="95.62969156717773" xmlns="http://www.w3.org/2000/svg" xmlns:ev="http://www.w3.org/2001/xml-events" xmlns:xlink="http://www.w3.org/1999/xlink"><defs /><rect fill="white" height="101.40366717571291" width="95.62969156717773" x="0" y="0" /><path d="M25,25 m0.0,0.0 m7.314249441483952,3.485000439589746 l0.5358507479903187,0.38922535961027377 0.8196627037024984,0.5009249617360486 l1.4837689493620954,0.021352794326692955 11.98722350848295,-2.513768755030126 l0.7579515095196661,0.09729465680498983 0.5979699150933484,0.9497215902276858 l-0.8813403633619051,2.129719540741398 -6.904265336796259,9.45084049020045 m-0.5377900775079687,0.40276475411792817 l2.7767999646423345,2.142445851092373 1.9461688601948584,2.456220882869213 l1.740623345985324,3.847672241130611 0.5647827055951352,3.753906736308418 l-0.4039165265116759,3.289757353790427 -1.093176172685831,2.5374909725942683 l-0.9353025229347706,0.9173698739083804 -1.1395492324361467,0.5332375153328422 l-1.3578270948437177,0.05015905577445733 -1.4232175000977731,-0.5291634875742403 m-8.062746246330223,-29.580079723841493 l0.5048747742499621,0.9421613859709632 0.14717620214044208,1.1804939874187492 l0.019076709779784172,44.94891869861284 m20.957613943174035,-50.35887950974287 l0.6012191363720581,1.1237533673378337 0.13361149140687595,1.3624329134654525 l-0.026596302651933287,42.46736458367915 0.17051002501383505,1.004722348554748 l0.44416367032731313,0.4536977470514917 0.6005646095298343,0.2057339487497866 l0.7188864618549985,0.05257601891174363 9.871519089169642,-0.0012752693956258364 l2.4355401675527446,-1.1007725931481935 0.7438645115935607,-1.1116105599059745 l0.40580327632941726,-2.1079850079278875 0.11594322278895508,-3.0395645090217642 " fill="none" stroke="black" stroke-width="1" /></svg>