<?xml version="1.0" encoding="utf-8" ?>
<svg baseProfile="full" height="98.90880904820628" version="1.1" width="88.87688930844574" xmlns="http://www.w3.org/2000/svg" xmlns:ev="http://www.w3.org/2001/xml-events" xmlns:xlink="http://www.w3.org/1999/xlink"><defs /><rect fill="white" height="98.90880904820628" width="88.87688930844574" x="0" y="0" /><path d="M25,28.390316023343978 m0.0,0.0 m21.052540032501884,2.179903529520056 l0.0027786046453619193,0.4689280159262031 -0.3897076703457719,2.0795626075891565 l-1.2466557874583863,3.017508092998962 -1.759141594291445,7.431804757306902 l-1.6841138066307526,6.215555607342787 -2.45261400766976,6.873679987816301 l-1.8834584746527232,3.9744686241141305 -2.3196688008429316,3.6945222644892928 m10.177882218539485,-19.584077716125357 l2.400948385598285,-0.1487183682799353 3.484761887103026,-1.7569544401851152 l6.149907439187492,-0.10836174368268628 -1.1155829269689572,3.2315038445154176 l-4.763339187259568,4.5599159823025674 -4.062212928306694,4.152228711154385 l-4.051740006345154,3.913043805663397 -3.207528025267222,2.896003116644766 l-3.2811889526591944,2.607084296669216 -3.362729082046149,2.2998470834365508 m7.361141634960798,-20.61050222773055 l1.8758312789032994,1.0914157922997938 2.584138153979459,1.9373281295911884 l1.7222101022201954,1.7508935904281857 0.8597753940918366,1.5282884414206324 m15.797213557645815,-27.085187808570222 l0.7324699402965847,1.4952665476233251 0.2549719295169434,2.128521880917681 l-0.1608884769025207,45.285020619665275 " fill="none" stroke="black" stroke-width="1" /></svg>