<?xml version="1.0" encoding="utf-8" ?>
<svg baseProfile="full" height="105.30016360925981" version="1.1" width="97.76508301977223" xmlns="http://www.w3.org/2000/svg" xmlns:ev="http://www.w3.org/2001/xml-events" xmlns:xlink="http://www.w3.org/1999/xlink"><defs /><rect fill="white" height="105.30016360925981" width="97.76508301977223" x="0" y="0" /><path d="M25,25 m0.0,0.0 m18.802682309360836,3.316935775216291 l0.3272196090527808,0.40474372514686086 0.426889616740176,1.6455534487372807 l-0.001692215402398199,4.6921927835120725 m-10.558552396333303,1.8215876500874455 l2.6744454029684617,0.08582133081416195 13.18535020794051,-1.9985650571242974 l3.0269701064400536,0.11584109563183351 m-10.23405445385519,4.667162321716665 l3.641796302475825,1.4922153661179993 2.0966114594791776,1.1983047455049025 l0.512837145307534,1.045775438405215 -2.156714626160426,13.413518808180443 l-1.1077185139762182,3.986765703429789 -1.2247001070199603,3.0428894539352496 l-1.1209840930217188,2.1401503230478203 -1.1684276192913332,1.4950872191548659 l-0.621896696246218,0.39586317542582933 -0.554788488659095,0.06601567726877991 l-0.9821912241390842,-0.5987722544529417 -1.0803711745033249,-1.4382947519076583 m3.2237623599402823,-28.049159655526676 l-0.0056279451894123535,1.9161592502601466 -0.5471887417669447,3.010452505829343 l-1.020630039860293,7.944881636857535 -0.9100158603718069,5.66778666080773 l-0.9515464172737766,4.166585830275424 -1.200915974083517,3.8924766342643617 l-1.4745267029575995,3.496047137940256 -1.2882356252140472,2.2687634411929385 m22.11522759761053,-39.14804276013385 l-0.028671841776405624,2.3230614877769304 -1.521860052360449,5.646224183857191 l-1.7532375977322985,4.628921021417432 -2.1108796409094226,4.25164284473178 m4.782018180483534,-6.553242903934979 l2.696770314316961,0.15584301234413697 9.427109900329835,-2.1477499116447216 l1.9511154182527812,-0.03084038392312226 m-16.03636236371833,11.70809336703531 l2.6030101535858083,0.10507960094382862 9.192274006443354,-2.1501046884186468 l1.75199580053152,0.06915353359449865 0.19095859056390782,0.4380785896723939 l-0.3087390378594948,0.7381265008130036 -6.65605596247892,7.362514972053827 m-0.9501628436684846,0.29870476163981374 l1.8056858864702485,2.711193256840189 1.5918374911749613,3.6838625455493217 l0.6744374438757924,3.501694991455574 0.08735778708056283,4.075635729346358 l-0.8553413910343184,5.059363241243888 -1.3575521904229986,3.0448112036836186 l-0.5950631216264964,0.22335399356636756 -2.0874683020964837,-2.182116172038945 l-0.6676549300264485,-1.3255143519685946 m-7.565511408317598,-14.76267483108754 l1.6044201275387415,0.3365664554180381 2.1215778636627567,-0.1057535139129815 l13.525392766095116,-2.2116411855182285 2.740004995715009,-0.10056895027452642 l1.6906637756889877,0.28920752580074627 " fill="none" stroke="black" stroke-width="1" /></svg>