<?xml version="1.0" encoding="utf-8" ?>
<svg baseProfile="full" height="109.49251117087393" version="1.1" width="106.96950661018491" xmlns="http://www.w3.org/2000/svg" xmlns:ev="http://www.w3.org/2001/xml-events" xmlns:xlink="http://www.w3.org/1999/xlink"><defs /><rect fill="white" height="109.49251117087393" width="106.96950661018491" x="0" y="0" /><path d="M25,25 m0.0,0.0 m22.435786724090576,1.0816888362796817e-06 l-0.07359875366091728,0.6295602768659592 -0.8797875791788101,1.5203897655010223 l-3.757656216621399,2.9782652854919434 -4.055618643760681,2.3816609382629395 l-6.2412428855896,3.0805304646492004 m-2.0453065633773804,0.8908295631408691 l0.6220857799053192,0.9081568568944931 0.3937724605202675,1.700798124074936 l-0.153080802410841,28.35637331008911 m0.6193677335977554,-17.56925106048584 l13.336790800094604,-2.747616171836853 3.188062012195587,-0.03573500085622072 m-16.699485778808594,18.439016342163086 l14.443533420562744,-2.8785479068756104 3.4726041555404663,-0.057768444530665874 m8.349742889404297,-28.615264892578125 l1.4643307030200958,0.23922782391309738 2.550857365131378,-0.16480887308716774 l17.270948886871338,-2.2802449762821198 1.7137086391448975,0.24232273921370506 l0.830693393945694,1.0325060039758682 0.1829988695681095,1.5506277978420258 l-0.2337280660867691,3.725719451904297 -1.1816146969795227,8.404783010482788 l-1.783357858657837,7.197304368019104 -2.1017052233219147,5.8247071504592896 l-1.2222575396299362,2.442816346883774 -1.206459105014801,0.7732753455638885 l-0.654362216591835,-0.033869019243866205 -1.3610461354255676,-0.6980203092098236 l-2.0215240120887756,-1.9906063377857208 m-10.50784707069397,-25.679810047149658 l0.5495487526059151,0.9030605852603912 0.32021619379520416,1.7966081202030182 l0.0,47.22551345825195 " fill="none" stroke="black" stroke-width="1" /></svg>