<?xml version="1.0" encoding="utf-8" ?>
<svg baseProfile="full" height="104.52774724528246" version="1.1" width="129.56728823733235" xmlns="http://www.w3.org/2000/svg" xmlns:ev="http://www.w3.org/2001/xml-events" xmlns:xlink="http://www.w3.org/1999/xlink"><defs /><rect fill="white" height="104.52774724528246" width="129.56728823733235" x="0" y="0" /><path d="M25,25 m0.0,0.0 m3.3218292932529807,16.848583717345218 l0.5888656451240976,0.16022933903895395 1.5708851971711328,0.14060946539634114 l3.0547186027405395,-0.33557989227999807 14.308851003751064,-1.898993132979507 m-0.2769638543191077,-13.98571450725193 l0.9550896961021357,1.3115724638643333 0.43244687669643767,1.42627369861081 l0.13585293411812827,33.3179389545678 m-21.303764539521428,5.476157769908134 l2.1245225990377103,0.4047668350005776 2.335526924807258,-0.2860370544629516 l24.22196101339188,-7.328726939076088 m35.793789027932,-25.732364637623675 l-0.26458939029988005,1.372797636154558 -0.8287274997375976,0.968579330428733 l-4.485509883274134,7.527427482790428 -4.266332151881335,6.296702697785404 l-4.542300740600749,5.068541000511449 m-0.32699240781679556,-27.17999854141337 l0.7979482902216528,1.7002205681205456 0.4100744675817728,1.7645561746596254 l-0.23662158074784065,35.844491438146754 0.25178519858957726,5.334445816990054 l0.6405834963913507,2.284810919997449 1.035611228653776,1.977905586056941 l2.1993916382318988,1.418535236004553 12.487881877705854,0.6300158189913276 l5.094222356549622,-0.6687076758673247 1.8241154351345479,-0.9554809138801231 l1.645353553971625,-1.6940767726446215 0.6530315182110709,-1.9219153347819389 l0.2147524101630885,-3.4789020123978878 " fill="none" stroke="black" stroke-width="1" /></svg>