<?xml version="1.0" encoding="utf-8" ?>
<svg baseProfile="full" height="102.99326379920421" version="1.1" width="109.11294883679474" xmlns="http://www.w3.org/2000/svg" xmlns:ev="http://www.w3.org/2001/xml-events" xmlns:xlink="http://www.w3.org/1999/xlink"><defs /><rect fill="white" height="102.99326379920421" width="109.11294883679474" x="0" y="0" /><path d="M25,25 m0.0,0.0 m12.060563203560257,4.321321920801258 l0.36203258300863583,0.33407808768725406 0.962400292094226,1.2001313078959481 l0.26311806946284044,0.9518631003612062 -0.064826317820115,7.682365166105447 m-12.28454079925878,1.3821450703555094 l3.0157186687473634,0.08294475458375775 15.939056514496281,-2.1074967152668513 l3.447037000348124,-0.1886812252412925 m-10.878348079584562,9.014360915443534 l5.3578887941317825,0.7447566641854542 2.497085763410237,0.47398724467072995 l1.0432502311443317,1.103880397827981 0.26943225407768223,1.0794898501962373 l-0.08698179955853776,2.925255380962964 -0.9498296115087949,5.313707181542299 l-1.7123563880424264,6.278001955482844 -2.0166999400290493,5.684891537300303 l-1.8647293596327075,3.9017114671234308 -1.370237111330332,1.8186430549024173 l-0.9231978731265358,0.6955964447951372 -0.8781791260044112,0.30031023748864005 l-1.3057968289599309,-0.42334925508846605 -1.3726359709851512,-1.5484380870586927 m4.5744024564922885,-32.878364161647085 l0.4607277569664202,2.294654413901756 -0.4422736209305928,3.240776479442403 l-1.2097541099395308,5.092464330847178 -1.6442023679183992,4.829588653391659 l-1.6718488434922043,3.718247815291169 -1.9964074474890687,3.585192194778234 l-2.36859738216318,3.425489708601353 -2.068483556889852,2.375146727356484 m31.89853966875145,-43.047592264529264 l-0.1435261185331191,2.0186440908714642 -1.9897919682485892,5.2053510209007525 l-2.4840128249543367,4.811389957023509 -2.8223363072356227,4.274427811463645 m6.406497216303212,-6.990756598970931 l6.493894592169177,-0.511148558383683 11.940674420063566,-2.0906540820321347 l2.446010507537569,0.11754165793627698 m-26.735150910138394,13.182421161449126 l1.6761602199384256,0.29408763303988145 1.6428577373455973,-0.18013495730368922 l23.399778313055148,-4.150832263027658 2.2219329944330335,-0.15060432418755282 l2.0186342430313124,0.2672762087279387 m-22.197181214417785,-5.504839040331833 l0.7576280247937304,0.7630312235118055 0.35777305276861743,0.8646099757078821 l-0.11631560281136698,5.438453404913065 -0.6016113068711297,4.965541900182828 l-1.3676910083816618,5.149934844709785 -1.744940913731466,3.986262966901256 l-2.3033906895183223,3.574768515975163 -2.8934669944231954,3.021219753349565 l-2.945545763792272,2.145229743364309 m18.977963748188238,-30.91330130854873 l0.6224025127464605,1.0553717328856844 0.19418299845414164,1.1066929230689537 l-0.1502828548489824,30.37761544968346 " fill="none" stroke="black" stroke-width="1" /></svg>