<?xml version="1.0" encoding="utf-8" ?>
<svg baseProfile="full" height="177.50836472149763" version="1.1" width="107.27362797799498" xmlns="http://www.w3.org/2000/svg" xmlns:ev="http://www.w3.org/2001/xml-events" xmlns:xlink="http://www.w3.org/1999/xlink"><defs /><rect fill="white" height="177.50836472149763" width="107.27362797799498" x="0" y="0" /><path d="M25,25 m0.0,0.0 m25.550441467493993,14.301615803802624 l0.3876424133184317,0.4309285908176815 0.569006746315618,1.629418786522563 l-0.0005069866900341306,25.580946209428912 m0.7016175676516104,-28.013422244390906 l18.34170083188,-2.4071156388925097 1.6406942942728855,0.02177745643972043 l1.2167009210542674,0.4902632959141545 0.5771706830384625,2.0838329253665626 l-0.08963719654709439,26.594302860788822 m-21.22586214872886,-18.966045425810655 l20.313414433334334,-1.9971467243598862 m-20.386465715893966,10.635846101308214 l20.314932437204178,-1.952285177798107 m-20.16878982574676,10.469452972680706 l20.21015968506609,-1.673848757908189 m-31.9426565649435,5.664052867539971 l3.565583825765236,4.050930086469291 2.305888427347892,3.9622370958800106 m27.88337498270799,-10.484928588015034 l-0.2362741794749009,1.3663125001135434 -1.7799541353825126,2.598457445871957 l-2.5515862165819794,2.578411239504946 m-27.491813260002033,8.360430087913901 l2.034272627259548,0.3514949106564378 2.359080345444606,-0.02588465790957037 l27.095179864918492,-2.8446716472467624 4.5235399819448014,-0.22235579075180195 l3.5567726719682025,0.28909879337506733 m-22.265410485707633,-6.569414836764489 l0.5797714867556226,1.0191339472072298 0.21507075982268914,1.7415153589258028 l-0.030457054746889024,26.193618220950345 -0.2405169992468111,2.0890438438154186 l-0.4623143919024991,0.9014964491184188 -0.6525339916267414,0.045983101031301495 l-2.5734881589758363,-2.769642965970429 m-2.0155480318316297,-13.40585272680695 l-1.9226596285731328,3.6400889614314367 -2.220781065487191,3.2175391901819665 l-2.704136135218205,3.027585562397444 -3.169637587197031,2.6463430803224686 m22.212596267419546,-13.21120427958219 l2.1245217072108504,12.243946200270239 0.5685847919803838,3.8483197912483624 l0.5167339706128967,4.176887186592862 0.5944353428984454,5.710118653077672 l0.5404919166736365,6.44838205737497 0.564744739757977,4.252338003060977 l0.7520611104677886,5.6306476617184 0.8521028579685023,7.15585230730037 l0.8090925385307663,4.070543056843198 1.110772432537553,3.8658638754652395 l1.4215281834379807,3.556845537035727 1.6543916130791492,3.071301173962291 l2.8975186514337286,2.038980933977886 0.47004713621184746,-1.8194674316622919 l0.07013431954615207,-4.024693585943749 " fill="none" stroke="black" stroke-width="1" /></svg>