<?xml version="1.0" encoding="utf-8" ?>
<svg baseProfile="full" height="127.87075248821267" version="1.1" width="98.69508172186937" xmlns="http://www.w3.org/2000/svg" xmlns:ev="http://www.w3.org/2001/xml-events" xmlns:xlink="http://www.w3.org/1999/xlink"><defs /><rect fill="white" height="127.87075248821267" width="98.69508172186937" x="0" y="0" /><path d="M25,25 m0.0,0.0 m22.614605385225723,13.023464683297346 l0.05994655559397562,0.4751592547696647 -0.19486163680498078,1.6123883928428735 l-1.105024704210325,2.565980249648565 -3.8100895920236777,7.23585663567651 l-4.036935274769006,5.941969376606517 -4.388405389187828,5.224082857313088 m11.340997580805894,-11.153064633588816 l2.797619105666719,0.2614488547010313 22.50831334993489,-2.8847705545344824 l1.3627869844230505,0.13258966668057093 1.0287549418524164,0.6411068718650356 l0.3416484877956222,0.5265943912621829 0.17572592756689268,1.3763898165789472 l-0.37353429290166945,5.7048071327225625 -1.4020262177212717,9.883306577238733 l-1.6071304851052137,8.351347125562395 -1.694608929004591,8.037651134718649 l-1.6891968815368974,6.212888121921973 -0.9566571821599584,3.9860211623078228 l-0.8835312936064794,3.315803883914008 -0.8055330395254676,2.2065576731606633 l-0.895534181504728,0.9142580624632092 -0.44942473369746466,0.13768489342168866 l-0.9666654073414378,-0.21432264781215976 -1.823668250805532,-1.835700219168569 m-20.01316768081811,-33.972648290663685 l0.5796490398981092,0.8444606493377319 0.17127621070620777,0.9906560927108694 l-0.0186478931359008,21.080612944380277 m0.7312009297083277,2.105155999705634 l0.19759896559105714,0.8433599422464 -0.0292265857388863,0.9619590533454186 l-0.07670651083389092,13.337697333580003 m0.2575047948677893,-15.314401676868805 l8.9927946333244,-1.7826833695543736 1.1909779792239994,0.04403835691056974 l0.407744940576258,0.32205847335822974 0.27581224727253323,1.5518046169837052 l-1.5373056231412232,12.740358170271648 m-8.939109621964688,1.6419389181165993 l9.922083842246536,-1.1908625656412348 " fill="none" stroke="black" stroke-width="1" /></svg>