<?xml version="1.0" encoding="utf-8" ?>
<svg baseProfile="full" height="104.60130630329556" version="1.1" width="101.91198789875436" xmlns="http://www.w3.org/2000/svg" xmlns:ev="http://www.w3.org/2001/xml-events" xmlns:xlink="http://www.w3.org/1999/xlink"><defs /><rect fill="white" height="104.60130630329556" width="101.91198789875436" x="0" y="0" /><path d="M25,25 m0.0,0.0 m16.667360877914586,4.041235806933727 l0.515672967659844,0.22088533965992369 3.1160084060747737,0.18106536830524242 l24.487308914126523,-3.1525667205154893 2.118755650536753,-0.12148523462176992 l1.423521402916881,0.29802648182995917 m-31.819788582619193,3.7265235841656565 l0.5412777488739864,2.171010005726215 -0.4523776342657175,13.232949741222649 l-0.7238360954959867,8.407019402703689 -0.9072905366444609,6.370833820946373 l-1.2555335987792542,5.853928509532836 -1.2932243664303555,4.281500765746073 l-2.149319798269891,3.9531678261128245 -2.2895644095940617,2.6916349691107015 m15.717483141122722,-39.92082499980622 l1.8186771315237777,0.26252028432457714 16.245430571074525,-0.10970847824354125 l2.775419452478528,0.23845031470677933 m-10.835708783561637,7.882211131324812 l10.138103504158906,1.454191075454058 1.5544732771609275,0.3627085488926489 m-18.598146555536477,-7.879940139946047 l0.6754241884785358,1.0916458185907283 0.24421475745155716,1.502118279727764 l-0.0467767079180034,14.845948517400943 0.42394992002944226,2.0705184134354635 l0.6984790255519382,0.9066686644843154 1.1252260752514334,0.581598833309691 l1.7297356139909892,0.24408998175232274 6.67925294940377,0.02258668766509017 l3.182258641079821,-0.310673950834285 2.2265063278924653,-0.40370692011696463 l1.4763874741390441,-0.4994094839783401 m-23.51107306277901,9.852489779384623 l-0.26922880247091996,1.8670724117729323 -0.9257420958813308,2.9091892898254206 l-1.357933227974141,3.1170805877995353 -1.2931609201849061,2.35875198951064 m11.22097434096394,-10.333693461767046 l1.1830557499705319,3.410358346051824 0.9621066305659481,5.015986637095136 m6.825838265393595,-10.089717213484803 l2.119245360149541,3.633459370444555 1.358030230165528,4.211251322009149 m5.1368995583713035,-8.722360297558076 l1.5976989731666364,1.7667317354420065 1.6947625990298165,2.6086822851708455 l1.3766082149752767,2.832317469754189 0.5845451355158356,2.150417431663673 " fill="none" stroke="black" stroke-width="1" /></svg>