<?xml version="1.0" encoding="utf-8" ?>
<svg baseProfile="full" height="112.81419561836161" version="1.1" width="111.10154600557568" xmlns="http://www.w3.org/2000/svg" xmlns:ev="http://www.w3.org/2001/xml-events" xmlns:xlink="http://www.w3.org/1999/xlink"><defs /><rect fill="white" height="112.81419561836161" width="111.10154600557568" x="0" y="0" /><path d="M25,25 m0.0,0.0 m31.356599608362327,4.93038249447957 l0.3914275760032339,0.40728799816105365 0.5645577443205774,1.4819138691578642 l-0.042343744067180514,5.299202094391835 m-19.486281458821086,0.8262677183883497 l-0.8293828983224647,4.432820170296277 -1.7329214195244402,5.4283419178948975 m3.1136598566444382,-7.932147564707812 l25.325783895594547,-2.45684971948275 10.084876104706934,-0.609239529808584 l4.427596082240069,0.04150930426893284 1.0638166338174588,0.35564204997926346 l0.4163005972975993,0.5245871555923183 -0.09575800575447123,0.6466731097426107 l-1.1668647202437439,1.4558068784968332 -2.66358161346872,1.9445947648905049 m-39.25642864885932,4.999297059641825 l2.018979811997887,0.18771011809269378 2.2125342373135273,-0.059863479820823594 l9.859590394898186,-2.3591864735291366 1.6248615148273986,0.22365058353065867 l0.2884919980856597,0.4859317420991102 -0.04444846923425115,0.7232412079012087 l-0.5346751499718475,2.4015120218519295 -1.983566617221572,4.271893447389377 l-2.388350809262695,3.742727429806453 -2.7608328892819505,3.4240034648629294 l-5.85061844455091,5.380145846333457 -3.4673373318515623,2.5082558935149772 l-3.5545499646799974,2.095088445623728 m5.7561067747475,-19.114490803816977 l1.9498792771331457,0.9975282383521402 3.0492332142935816,1.8537360999664199 l2.0926404498961064,1.6594665371074373 1.0505036880520513,1.3274409499543196 m24.101193704868738,-13.91047336322944 l-0.2853490133879145,1.0545186072014945 -0.9374344631655941,1.229755489911204 l-3.5309021588372733,2.9748155985068205 -3.8660499301408824,2.332176319478937 m15.444797210131647,-3.2781596955028056 l2.551173954160977,1.38120305340928 2.715777261718614,1.8485410022516313 l2.133832933769031,1.8366358694549996 1.9850092313423253,1.7397661604336407 m-39.74940724189929,5.887232200779171 l3.591599844031078,0.18418790301108076 23.307903028522734,-2.089561345572036 l4.191539984661123,-0.20694337298081905 2.550689653840045,0.25844845390364446 m-35.932785981017595,12.382875410526516 l4.16596619790667,0.3516406073776411 28.43469014689789,-2.1386282770044898 l5.1282621014745775,-0.18205525424749935 3.2922537239562133,0.29603578086783267 m-22.087523092511827,-16.49586156923125 l0.5220552584894772,0.904137493223976 0.20548749652925666,1.659445460870375 l-0.9924392204064105,10.230269899857362 -1.7184723086490812,5.244036367424922 l-2.3889647422998856,4.200720732930674 -3.185009753011188,3.620071306427482 l-3.8633421362158784,3.0052796390302126 -4.888593044063206,2.5148594134722915 l-6.585332091373258,2.538774274710488 m22.811768141787496,-18.736984162023347 l10.506316034140703,13.716677753051753 3.8204107819623125,3.810803164020976 l3.1369950219583864,2.3695034921292764 1.5912920585897108,0.7555701632867069 " fill="none" stroke="black" stroke-width="1" /></svg>