<?xml version="1.0" encoding="utf-8" ?>
<svg baseProfile="full" height="106.0746043868321" version="1.1" width="92.15219889167284" xmlns="http://www.w3.org/2000/svg" xmlns:ev="http://www.w3.org/2001/xml-events" xmlns:xlink="http://www.w3.org/1999/xlink"><defs /><rect fill="white" height="106.0746043868321" width="92.15219889167284" x="0" y="0" /><path d="M25,25 m0.0,0.0 m12.498809957556967,5.037924080501336 l0.4224736411682739,0.1982580803880514 2.4261810203870735,-0.02317346244128794 l9.639462531247046,-2.0758048445685042 1.6337719760333418,0.16400068339146112 m-15.0160005583755,3.636404322971114 l0.5505203160373039,1.0990784585671372 0.126893780070914,1.17949296000553 l-0.03830601022623695,14.0798935804155 -0.26298733039230243,7.166537758780434 l-0.5914533250301548,5.826835512140092 -0.8982601297979166,5.2425054094764265 l-1.290433354708416,4.537731567898433 -1.2336801358571097,3.0959223773744298 m12.726961733865837,-30.510473973478213 l0.0637960034303435,0.10420675018838452 0.224459197840153,1.231171473266801 l-0.5888055337583511,5.594081350882285 m-5.092065197038784,1.7893476495501248 l6.9853298904196635,0.29484949021083523 3.736333080405633,0.0861458881246772 l1.0290772281320353,0.23577377324048568 m-13.023320685879916,7.4433946488732134 l1.6770218786908997,0.5191871758207287 8.450751056512672,-1.3206035069485638 l1.0853607705024542,0.10110013571849787 m-10.321997788991354,7.782660948206545 l0.4405578871320762,0.47082656002284845 0.689186246343589,1.7119392048541944 l1.0748717422178524,6.433292104121282 m-1.218427596396191,-8.251746458412041 l7.2460829590748785,-1.782753984902973 1.0776904735245256,-0.03284817118650604 l0.4174644045790793,0.8642320527674908 -0.036517934198013864,0.7380916362728732 l-1.078259085789379,5.335943065300666 m-6.380195068014756,1.5803533005484596 l7.118881869308584,-1.0351752319803937 m1.846702219782879,-33.9972735283707 l1.7078553608141755,0.31686636719579536 11.677966271896258,-1.8987055474025671 l2.6484451291527202,0.25990287719418 m-9.010398136219887,2.15507346730319 l-0.0014829786384471747,0.9877143192590577 -0.31894236406476817,1.0996062202169758 l-1.6837188514798396,3.8704205862853773 m-2.911322764051315,0.5105242235096367 l0.40520062916492333,0.7991448100637489 0.1332806270087341,0.948678183722071 l-0.022902433265678188,22.550216666207515 m0.34329633169266155,-23.80697590480081 l8.939951651530249,-1.4980828758045044 1.0402838230213431,0.06942187114417545 l0.6918706195652983,0.4561169338679189 0.34490827140987174,1.8790859006177925 l-0.030287897803825403,22.06970316463185 m-11.005840653504627,-16.156546135123932 l10.684307285057223,-1.1718357921791067 m-10.875896227004183,8.850505376605472 l10.86234843555404,-1.158333397776467 m-10.75100493141704,8.932233519679999 l10.487053517565405,-1.0582426742442725 m-8.18844244465153,4.517417908575065 l-0.27193361977131003,1.3438414394310163 -0.9420803244850148,1.4771547867097237 l-2.248749522404625,2.6431192500088585 -2.746599057891387,2.5352500043432045 m11.559891250446107,-8.12283431704647 l2.9680294567890306,3.623920952390754 1.420733444418332,2.3353715658921046 l0.6809101915833734,1.568315278550626 " fill="none" stroke="black" stroke-width="1" /></svg>