<?xml version="1.0" encoding="utf-8" ?>
<svg baseProfile="full" height="120.57189855339195" version="1.1" width="102.47446364918017" xmlns="http://www.w3.org/2000/svg" xmlns:ev="http://www.w3.org/2001/xml-events" xmlns:xlink="http://www.w3.org/1999/xlink"><defs /><rect fill="white" height="120.57189855339195" width="102.47446364918017" x="0" y="0" /><path d="M25,25 m0.0,0.0 m26.996964396163392,5.41075367930785 l0.04182906066980343,0.5248431228517711 -0.23662030705781054,2.0145621531606097 l-1.7749499447667854,4.365202271489075 -2.4351676044802084,4.503732658320179 l-3.2072010494370886,4.881741846508162 -3.1181925654309155,4.004852910443635 l-3.6229137326561034,2.9361192375991174 -3.2006907903633164,1.9978497965247501 l-3.474291080488805,1.6686143679561345 m23.286751265417436,-22.79051324756016 l8.30040088743138,7.837438965363508 9.713602655434281,9.792597719185943 l2.450558047827202,2.1805648934732225 2.7543844109177043,1.0953503697537157 m-31.73424002762531,-3.482195025760094 l2.4601601296705535,0.11936672059878477 9.248727338997965,-1.1383079082756142 l2.941848071117683,0.026604821616470264 m-21.40992808382997,9.304185080241782 l1.9076572165707222,0.26644496280999797 1.6355663123121014,-0.04488376072681551 l18.49317790308376,-2.3330377114214307 0.6716819387078315,-0.08859951802091595 l1.1769233616032593,0.37092814429718607 0.41954695643066786,0.48419716625097725 l-0.6109263728986624,0.6856412055620006 -10.604707189345564,11.298663691474673 m-7.121950626874736,0.6264954735681886 l0.6899535419990172,0.8498465279264769 0.45151066891647096,1.0631614519079955 l1.2209187912811852,6.473791281369811 0.737798459879352,5.358598879148739 l0.2710078618563157,4.604242083742329 -0.317904329108368,4.109734332463237 l-0.6488163776471363,1.3026591789195388 -0.5410785265510064,0.290650731321129 l-1.2319073684143795,-0.12261210056807519 -2.2495196145845817,-1.8662014127985285 " fill="none" stroke="black" stroke-width="1" /></svg>