<?xml version="1.0" encoding="utf-8" ?>
<svg baseProfile="full" height="106.76673627552034" version="1.1" width="104.37655534065236" xmlns="http://www.w3.org/2000/svg" xmlns:ev="http://www.w3.org/2001/xml-events" xmlns:xlink="http://www.w3.org/1999/xlink"><defs /><rect fill="white" height="106.76673627552034" width="104.37655534065236" x="0" y="0" /><path d="M25,25 m0.0,0.0 m1.3341129673933254,20.601791614458225 l0.2998436331767618,0.41914812124216116 0.4467834278209512,1.5391228091104474 l1.5492791886112118,13.97303071964439 m-1.1162644669047557,-15.584263039711 l10.210924813482942,-1.6593705962970977 1.4371470875133223,-0.029292608253500232 l1.000430538200914,0.26443730181859026 0.35562547301032293,0.3708825792761859 l0.13123091202619167,1.2571093191089888 -1.8164707287756026,11.372976552397832 m-9.868688968917974,1.4932137213971546 l11.254849344202782,-1.0232515510493945 m6.568053751302352,-13.668635386592333 l3.87231446870584,0.20965110673690326 13.554710707761476,-1.895533676748388 l3.4094361338923633,-0.2223961584252112 1.0327155837852653,0.1543519463854573 m-25.385925837327086,12.04651611323607 l2.1007772826409625,0.30387834956850895 2.0467679736043944,-0.09102413803145482 l21.17170657170701,-2.787111096005143 4.70433417020289,-0.4723217202380714 l2.237744118441379,0.08611558261966387 m-18.491279815010177,-20.939120602091354 l0.8730975015019965,0.6453036037077959 0.6729298440430734,1.4555501323081812 l-0.16840637990115317,46.28493182367326 -0.23644226253353115,1.856507200754763 l-0.5257184980140347,0.8045382515187088 -0.7211288650782455,-0.005087864367719905 l-0.8085086465941421,-0.5209660721455004 -1.8463873303464813,-2.0423015776489795 m2.3741682073354005,-24.27479259643589 l-3.9076169433357135,5.6203409123198504 -5.359085969619471,5.724442419372525 l-5.298758954666416,4.40323329266367 -5.452546235338612,3.2699306892880364 m23.052689992745716,-19.63429796364703 l4.637119501708134,5.370832495249349 7.858089591999766,7.58854192253039 l4.8656816979414925,4.201531788664818 2.3272207582575124,1.0994980667821874 " fill="none" stroke="black" stroke-width="1" /></svg>