<?xml version="1.0" encoding="utf-8" ?>
<svg baseProfile="full" height="99.47628176059382" version="1.1" width="97.90286460766188" xmlns="http://www.w3.org/2000/svg" xmlns:ev="http://www.w3.org/2001/xml-events" xmlns:xlink="http://www.w3.org/1999/xlink"><defs /><rect fill="white" height="99.47628176059382" width="97.90286460766188" x="0" y="0" /><path d="M25,25.66077660071437 m0.0,0.0 m7.796695962972052,3.0298918995534945 l0.23900696517204423,0.31657755298355034 0.5214187506405568,2.1700463053400765 l-0.058791956261014564,43.29898940200233 m0.19395801236917928,-46.69596186481494 l11.23092565793221,-1.463856945199299 1.3480797543547685,0.2585399755190211 l0.33906606989668797,0.34410242035259786 0.1511867979324486,0.7273521639552816 l-0.9622555974499809,12.322172285771607 m-11.826289851677902,-6.136077936976074 l7.6699651759871355,-0.9560502018871317 m-7.84255779492445,7.349941125378822 l11.779369984522479,-1.4326303367424815 m12.687516984693016,-12.809381986801865 l0.48706489645014744,1.440830633864454 0.054089122069557745,12.295419932415195 m0.3226639186175,-13.073759698543746 l12.147640011499377,-1.6469213268852625 1.2020834679904897,0.349128532855903 l0.4220282748755828,0.6682122157260587 -0.40003824285571954,45.533781963684035 l-0.335180495553835,1.0673034232382093 -0.49924423572053855,0.4655640594619576 l-0.6064838302324052,-0.01933829872030468 -1.3367239235093409,-0.9200562253118507 l-1.4815834500394467,-1.5860971558974148 m-8.795218107684374,-38.418534873385916 l8.223041369547449,-0.7584968843476192 m-8.336922353901707,6.813463199089765 l12.94002357588725,-0.9733922796094446 m-28.51249263588021,7.92527461406837 l0.35840828118216217,0.6954359566743038 0.31930433834584965,3.5350689779391367 l1.0486651781385448,8.217884686802762 m-1.1775537866657577,-11.72470163199198 l16.360906131896233,-1.6339135218694107 1.0566026241462174,0.025899098087474093 l0.9337121339474714,0.39330206731924694 0.34041480403132907,0.901530443427222 l-0.26444321230081214,1.9942124827057397 -1.7063323780523543,5.484446936183828 m-15.313632417007828,1.7400624997101148 l16.1912053202886,-1.396688889890573 m-10.038476418921137,1.9157430192019738 l-0.0008928969529525149,1.185033946144952 -0.5880884031837523,0.9735588577569878 l-3.132632267716923,3.8225492508024903 -3.7183870862357553,3.3225999965216717 l-4.549538365663078,3.1050828947071705 m10.008724734592928,-12.140703489835523 l9.451054179053964,8.44946772955045 1.8670880521310302,1.704979729652977 l1.396520213395143,0.6767959896031536 " fill="none" stroke="black" stroke-width="1" /></svg>