<?xml version="1.0" encoding="utf-8" ?>
<svg baseProfile="full" height="104.16735981991008" version="1.1" width="106.38026377763491" xmlns="http://www.w3.org/2000/svg" xmlns:ev="http://www.w3.org/2001/xml-events" xmlns:xlink="http://www.w3.org/1999/xlink"><defs /><rect fill="white" height="104.16735981991008" width="106.38026377763491" x="0" y="0" /><path d="M25,25 m0.0,0.0 m15.178228745068267,2.6124897184756577 l0.4160213243029121,0.41603151209479866 0.6950199282433498,1.0993602250591439 l0.4153914875025802,1.151305766389192 3.0987181163780413,14.513977236537372 m-2.813553837707701,-16.83479733050066 l26.34738907741456,-2.306705922646871 7.303688584163257,-0.31681237689552183 l1.3580305055433972,0.2016995780121954 1.0443681610848023,0.7341888299741448 l0.2336286059419936,1.3300210745023202 -3.685818654033929,12.999046835169073 m-29.358382003115047,3.021400228361291 l30.83062390544355,-2.1687499573661313 m-17.458211625667513,3.603089919410322 l-0.03345602648749771,0.9310096492904149 -0.6162587701886465,1.0712519824011937 l-5.865959211535426,8.069456865206012 m-14.536996405893424,1.641796245458858 l0.8388802197444019,1.1022138482231931 0.4088247881333277,1.2736363828926174 l3.4022202149235894,20.022449509861463 m-3.030631391299641,-21.419000958523775 l35.14617647802528,-2.5917524311767353 3.611689139930481,-0.15225640828038609 l1.8069702343767535,0.34705363266252626 1.1421408087347968,0.9064404745686672 l0.32931570234894875,0.6157260847881757 0.17220567625943448,1.5733617256752896 l-3.575191523541771,16.833454516383046 m-35.36825908277256,2.5300885774275343 l37.44463769082907,-1.927026673948999 " fill="none" stroke="black" stroke-width="1" /></svg>