<?xml version="1.0" encoding="utf-8" ?>
<svg baseProfile="full" height="105.50768224462261" version="1.1" width="104.02990448768561" xmlns="http://www.w3.org/2000/svg" xmlns:ev="http://www.w3.org/2001/xml-events" xmlns:xlink="http://www.w3.org/1999/xlink"><defs /><rect fill="white" height="105.50768224462261" width="104.02990448768561" x="0" y="0" /><path d="M25,25 m0.0,0.0 m8.363218024648031,19.994165190040555 l0.2909819102030674,0.43190333363994315 1.0237473361601324,5.339441111123302 l1.2721246052278639,11.184640901811893 m-1.6672555237948916,-16.56503429166023 l10.095344211074858,-2.072172291734489 0.5456563155213393,0.07848598535396573 l0.39459042596710275,0.36132847607761376 0.24318994350359882,1.1874953794299645 l-1.9684031892100124,13.365547046708965 m-7.825108778156287,1.445043279612819 l9.197833034108388,-1.3139991374473592 m14.966401800434198,-26.381395734863002 l1.0312113300513406,0.9801483011952313 1.0006277031560746,1.4433193190226814 l0.9973578248807349,1.9357553538214578 0.4349613256960408,1.5215557210733788 m-13.598850402074147,4.282992389277728 l2.50533592860948,0.28281440522543083 21.5598236835562,-2.610107752157319 l1.8102600204862584,-0.06780525854829322 1.359118645130839,0.33806530502056537 m-19.55587868368698,7.018893849399529 l-0.0611008177631712,1.5968931276098368 -1.4317178358449922,3.13735528874261 l-2.0565119089098394,3.0601752834033507 -2.6521472069614718,2.976254962369867 m17.3976568052354,-11.695764326428204 l2.6691794435977765,2.398395063068141 2.32857191472117,2.4884761526516144 l1.9601861902663225,2.617526817908103 1.6151810874094268,2.6729898979542677 m-7.730955215463615,-2.70166920211136 l0.20830579824231799,0.8710419591256892 -0.09172373733565256,1.1496850175051365 l-1.1498650255430949,2.5468360852552774 -3.1837826267731,5.500459897022461 l-3.143512366337622,4.377235885111653 -3.5805509360883327,4.045993589630057 l-3.1832042934449603,2.9928882405696067 -3.4337803937319187,2.7609773595650036 l-3.634536753015889,2.5308502642451804 m7.888566157523944,-23.153433023367025 l0.7922234364495506,0.4713969080966761 1.8036910686907686,1.807062199075848 l11.10003883292037,12.424336802505461 4.635177192584554,4.823643746796587 l2.375799336746088,2.03304383433095 2.112428849018353,0.5096304299534097 " fill="none" stroke="black" stroke-width="1" /></svg>