<?xml version="1.0" encoding="utf-8" ?>
<svg baseProfile="full" height="100.99791095884456" version="1.1" width="119.23345518138419" xmlns="http://www.w3.org/2000/svg" xmlns:ev="http://www.w3.org/2001/xml-events" xmlns:xlink="http://www.w3.org/1999/xlink"><defs /><rect fill="white" height="100.99791095884456" width="119.23345518138419" x="0" y="0" /><path d="M25,25 m0.0,0.0 m30.35903499128418,8.936445231146934 l0.0007672138402439656,0.3632763691737257 -0.3837510361574589,1.5239514027443752 l-1.7153112338210919,2.604620671538257 -2.426326578118274,2.740172329861133 l-3.3149837797206088,3.1413155451094297 -3.3647030771849615,2.7111999143032843 l-4.034497580591288,2.750799335090881 -4.467461522970058,2.6002121663540314 l-3.679343012560098,1.8949360432645153 m25.069464493481057,-17.738175014695088 l21.605845432263422,5.508987495959016 8.133569268327923,4.8326719848045085 l4.167330349960068,2.3509316550887753 3.2838212533511357,0.9773708069242095 m-45.70912354534004,-1.5256659676676672 l3.892591655887915,0.12203373594353732 17.31633070306154,-1.083064165127709 l4.104271905947109,0.05781606121946861 m-29.735482280257727,7.670658838565319 l1.1677283175734499,0.9355620601835011 2.6423029143828636,9.170701424331176 m-1.9949168945019597,-9.15027010316952 l25.268884109787443,-1.6114346397047192 7.255536476425118,-0.358162176437009 l1.7133787950092663,0.1144164063982435 1.0305784056895753,0.553823364429164 l0.16652089266083983,0.864078723134795 -3.407920970319486,7.358494113085334 m-29.35368376329902,1.6606720641271002 l29.996056524510646,-1.3276528792571525 m-17.33000634578462,-13.835586878041898 l0.754948070004072,0.7180908867624214 0.3497641171098085,1.327608480903976 l-0.2292674660735621,21.88342235451873 -0.18403498548210717,1.5659745552693765 l-0.46548344700213523,0.6868728955427875 -0.7204850578007493,0.0008058671673111478 l-0.8659873570279397,-0.506359453128371 -1.9287693930199397,-1.8870985683590373 m-7.931350232083004,-9.043950527316694 l-0.5165286286744213,0.7825849944395594 -0.8692912066251114,0.6082883660203044 l-3.954983497806253,2.2238175404319747 -5.239760716752918,2.1981109080666985 l-6.0778359121111984,1.8212560307993992 m38.165219923164514,-8.244493574093102 l3.6415346303916665,1.2994358592141366 4.088646281188729,2.048350127393091 l3.4118496568028367,2.2611524463562596 2.026332278716078,1.978194334156092 " fill="none" stroke="black" stroke-width="1" /></svg>