<?xml version="1.0" encoding="utf-8" ?>
<svg baseProfile="full" height="90.722597055807" version="1.1" width="106.31445138190034" xmlns="http://www.w3.org/2000/svg" xmlns:ev="http://www.w3.org/2001/xml-events" xmlns:xlink="http://www.w3.org/1999/xlink"><defs /><rect fill="white" height="90.722597055807" width="106.31445138190034" x="0" y="0" /><path d="M25,25 m0.0,0.0 m16.41786871098307,3.2031313205327137 l0.44180203917483707,0.3427992121847445 0.6610551303666817,1.013439807453726 l2.4104075982686646,15.21026794966593 m-2.1413145060273138,-16.03170799812763 l23.290129511713953,-2.291409051131658 2.5499886955500473,-0.1608915108333094 l1.357639688133953,0.339783511219074 0.6740508938926424,0.9191691767061033 l-0.05625193917806219,1.6523003944153882 -2.9274405942063018,10.357628085776312 m-22.73576251881239,2.6075944752167266 l24.21988381053529,-1.8775181133625 m-35.60452128077026,5.038894502295226 l0.8333457587998397,0.9778425915250362 0.3501385173447489,1.009668701715889 l-0.09340740102773243,18.41160400055523 m0.4571959125863918,-18.485385086944394 l36.96241961397009,-2.4060576927377446 2.321736571073159,0.02058141497855235 l1.2665019611691237,0.2756098010426188 1.0541253976351843,0.664925017517855 l0.3856231447750964,0.5009216202368719 0.12204999185140633,1.4240262816945808 l-1.105014302364671,7.860283624478926 -1.5904437133775224,5.674522697086442 l-1.0493469515792948,2.3882886569109822 -1.2535206357965527,0.6937055266182723 l-1.1372587853313665,-0.3974208482355592 -2.13927966412658,-1.200711793403188 m-21.53545652455028,-32.16152912693134 l0.7467494693577009,0.7607014654948685 0.3707937043804648,1.108418144460046 l-0.0013795199614591107,23.36705174170999 m-11.219998816916247,2.6705381319233914 l1.673604336180955,0.4341806271181727 18.48688076317497,-0.11295653250960565 l10.41339476044047,-0.4144022364367379 m5.399888757920574,-5.861200105444014 l3.9963157845346755,1.6656228819913672 4.041258012112403,2.0649219653490016 " fill="none" stroke="black" stroke-width="1" /></svg>