<?xml version="1.0" encoding="utf-8" ?>
<svg baseProfile="full" height="106.88956757702212" version="1.1" width="105.39597926820579" xmlns="http://www.w3.org/2000/svg" xmlns:ev="http://www.w3.org/2001/xml-events" xmlns:xlink="http://www.w3.org/1999/xlink"><defs /><rect fill="white" height="106.88956757702212" width="105.39597926820579" x="0" y="0" /><path d="M25,25 m0.0,0.0 m28.674618146623192,3.972416038652864 l0.4077123412776401,0.45727619648772877 0.5759534622755275,1.8223193598904344 l0.04273738360636917,5.5908429009707055 m-21.53858622224693,2.0699367208349084 l4.592085228218421,0.24251468791996916 19.29654748219691,-1.6939220839457918 l13.301146075330367,-0.8385948580695546 3.829218386398359,-0.07210351094976987 l2.812253776026922,0.4305133482282661 m-28.71710205813433,3.17886949372275 l0.5235666490636326,1.4807147888917356 -0.11244481537829087,3.379362444648227 l-0.6285155148477858,5.623160264684196 -0.9886850986713421,4.798613575585265 l-1.0969081130628737,3.1395114137162685 -1.4973579625057236,2.771476163118708 l-2.060044684100869,2.5037950772266586 -2.006779842675747,1.7870871404310167 m18.904034393698346,-25.55889066653273 l0.5794803527244616,1.0987838155823586 0.14089832789394846,1.7020449668867088 l-0.20486886661691964,19.33848088545276 -0.4475119249618248,0.994549606124865 l-0.6470436114898357,0.12269521745275218 -0.7423483656902461,-1.0074887743815544 l-1.5999261199010983,-2.3159412907167223 m-14.87429678469954,-10.872857790846933 l-0.33657846427904453,1.6576359973879402 -2.5893217457510436,3.7901231443532746 l-3.070931675395219,3.4828423755362823 -3.712252293080496,3.4340974024073567 m35.66939229606655,-12.793489492759727 l2.5887064669082154,1.6219652632999237 3.0716186996469546,2.6539473152009694 l2.309581730794956,2.6692056880777275 1.0802298270301247,1.9860317248708093 m-37.23411057234434,14.50128040836103 l-0.42077160172544786,1.099268477990127 -1.0327875922016927,2.4986425848694496 l-2.6158249749261175,4.51448884750708 m12.181027033340316,-11.042043784248797 l3.0066572320933647,4.263212332795014 3.406005586487884,3.1614249080556993 l3.9285563564709682,2.401459873666665 3.826041666868583,1.5058055364942198 l4.52522527397852,0.9511069680126697 4.026222625710052,0.3604036373688746 l4.725600253574414,0.026993236709436656 3.9722253013317457,-0.4097464247510278 l0.9895578833172015,-0.380280081918646 0.5192877625129452,-0.5073119457177216 l0.06479017142566972,-0.6277204605782756 -0.3783967412351232,-0.7641522407287998 l-2.212333937525191,-1.9011321430677846 -1.7151077105868942,-1.1014427989327518 m-16.429137355547255,-9.793543866140224 l1.464408194419169,2.8050862233619753 1.1743489059292709,0.9476334970132577 l0.5829948101840576,-0.0707282160977087 0.556551322302155,-0.5994260153292538 l0.5344030468936404,-1.3029285059726796 m11.669575370293243,-4.044681858338836 l2.2692724188956315,2.75493626571207 2.1106478921880867,4.142268314676895 " fill="none" stroke="black" stroke-width="1" /></svg>