<?xml version="1.0" encoding="utf-8" ?>
<svg baseProfile="full" height="120.65423898649551" version="1.1" width="103.47023660858372" xmlns="http://www.w3.org/2000/svg" xmlns:ev="http://www.w3.org/2001/xml-events" xmlns:xlink="http://www.w3.org/1999/xlink"><defs /><rect fill="white" height="120.65423898649551" width="103.47023660858372" x="0" y="0" /><path d="M25,25 m0.0,0.0 m30.146728665437344,12.055814966158666 l0.019353735243579636,0.45041799237817554 -0.5414801518010567,1.7386230430379994 l-2.1304445175547047,3.581668598852831 -2.5746268854069236,3.8863959576936233 l-3.283904427170366,4.320641730954192 -3.142791661436064,3.6290907215662154 l-3.550255077660543,3.6034554013302054 -3.9962336572681303,3.551748737116379 l-3.326874581492875,2.624095132842813 m23.380910169160654,-24.95091136066352 l8.311647111227066,8.53102313688875 9.0903009619755,10.101640061460095 l2.440847813277135,2.5377669777964242 2.6270591120530966,1.7714338838154124 m-30.704234140168094,-5.231770010465826 l2.384418101830841,0.07284391621462667 9.158244668585315,-1.1872936765299136 l2.8930165375312953,0.015449705922415907 m-20.176476071603613,11.031188551617475 l1.8878180717251953,0.29011587774284114 1.6401755072991835,-0.0457270589263859 l17.262912085016172,-2.5131507972583464 1.1697510064380705,-0.11063661783440523 l1.2227995047308637,0.320699706153069 0.5215481542931523,0.4397827185606127 l0.19643202332140947,0.636012383375469 -0.31225219549064626,0.8555593208220263 l-0.604785118849099,1.024350232445438 -10.297367755237104,12.275321779846994 m-8.108483432626839,0.687589444186102 l0.6446227060862662,0.9223031893632353 0.3742666055137679,1.1641241458642286 l1.2327806602520437,6.730881691040246 0.7822940643974798,5.84368950312735 m-1.6640247525268366,-13.67464851704293 l17.75921370195711,-2.370532841250074 1.9397311884948276,0.26304534150451364 l0.6201794333041059,0.8233337968734469 -0.00042833713205082057,1.3978229074854804 l-2.5543535122054855,9.919340237314755 m-15.47509293604991,2.1913442217724035 l17.073675710943892,-1.6646898813563749 " fill="none" stroke="black" stroke-width="1" /></svg>