<?xml version="1.0" encoding="utf-8" ?>
<svg baseProfile="full" height="113.17364822570866" version="1.1" width="109.77097544491326" xmlns="http://www.w3.org/2000/svg" xmlns:ev="http://www.w3.org/2001/xml-events" xmlns:xlink="http://www.w3.org/1999/xlink"><defs /><rect fill="white" height="113.17364822570866" width="109.77097544491326" x="0" y="0" /><path d="M25,25 m0.0,0.0 m31.936138196041778,3.40263588516859 l0.03382678589167022,0.45850780085016113 -0.47069359276526307,2.081905756148823 l-1.9647651353553408,3.4529387010859307 -2.9598375153326644,4.324030152156548 l-3.8765961900280037,4.64035029522982 -3.7186737733779927,3.714891838077728 l-4.114532185162567,3.548147793347428 -4.523718781910074,3.4997178725554114 l-3.953907129406227,2.625445327712783 m26.412712938076652,-25.530728937851016 l9.869680160895298,8.369723485590098 10.80449814944975,10.219642923061 l3.0967606621045554,2.56436733839583 3.2000828557916794,1.488364991734618 m-36.95983147827464,-3.2086278491569606 l2.854610896274581,0.10581169578586173 11.457923633149747,-1.3044633545483475 l3.6343305560075243,0.02717110558535224 m-23.825081659911287,11.319806497130894 l2.193563657017422,0.24652719277000282 1.8579765905849932,-0.0663768823374972 l20.428075330950534,-2.306122915783674 1.8408853242637864,-0.10237131501531012 l1.5720524844657628,0.1562712600417948 0.8995679581391777,0.27979367129787014 l0.5985678631117766,0.46945829148542184 0.18671790355424228,0.6906147576742152 l-1.1180350715116334,0.8793195228294517 -13.443936556467891,11.567660711048893 m-10.237550054161044,0.6796598836203712 l0.743075669555099,0.9073990598842708 0.49022865689706663,1.1593223898216687 l1.478103950237389,6.893522269559398 0.9885229499584306,5.919331010751212 m-1.965973303847173,-13.78647562940101 l21.22682060223987,-2.4979036171865805 2.435119787340417,0.2643845263516282 l0.7559690389734119,0.8560510653224436 -0.011996026018323246,1.4462528884126669 l-3.038927747217517,10.011053975026746 m-18.72059246954489,2.3035891296788105 l20.60536916594991,-1.7838287191939168 " fill="none" stroke="black" stroke-width="1" /></svg>