<?xml version="1.0" encoding="utf-8" ?>
<svg baseProfile="full" height="99.0769521256654" version="1.1" width="105.56860064466419" xmlns="http://www.w3.org/2000/svg" xmlns:ev="http://www.w3.org/2001/xml-events" xmlns:xlink="http://www.w3.org/1999/xlink"><defs /><rect fill="white" height="99.0769521256654" width="105.56860064466419" x="0" y="0" /><path d="M25,25 m0.0,0.0 m8.199754391366298,17.18129445246007 l0.2973832708178796,0.44054227843685057 1.9160083966696329,14.31732725355045 m-1.4481445043653678,-14.433122159286764 l9.724330847917704,-1.7459254994910716 2.57437870899499,-0.06444563867013701 l0.4718133298869547,0.28113257230672856 0.26840006116810966,1.1589128509251447 l-1.9771415554679463,10.888735561946902 m-9.279981952405292,1.6785926418700976 l10.337599475464444,-1.3650293242832834 m13.748337089205211,-23.04825834445439 l-0.20292837752113976,0.8906097202488642 -2.260692849360478,1.351935693916539 l-3.6904320941997217,3.540318098496457 -3.2457145577739377,2.8691030737520005 l-3.5491422462418236,2.35142188084553 m16.29080522019418,-15.738086543004925 l1.5399748421629493,0.6525019269571627 1.7759045383379404,1.4165478211886735 l8.749019461650684,9.562303339885482 2.426356337244968,1.9367235646327285 l2.9027128109179534,1.5500862959769612 m-27.265603210007612,0.9873912772863753 l1.9674513792687742,0.2315829235196918 1.8664203607686736,-0.11171462058238549 l11.359392901514486,-1.8001031945226778 1.5325879884050613,0.6083392509397831 m-19.19601109059788,2.7762187519615122 l0.5013868558466015,0.8448221157327064 0.11850016800001748,0.9188120704170534 l-0.06977749322526627,10.020524916952112 -0.31502132431512325,4.204455032498548 l-0.6360345836456183,3.7543461073016338 -0.7631742752340654,2.808567278402545 l-1.0641516414482415,2.654351637964144 -1.8067284256398326,3.0424223827404084 l-1.8404401617436201,2.1957067067330795 m13.308228311947333,-27.502029411562447 l0.5648717965091392,0.33231914138263663 0.46754469015723377,1.1521150542280778 l-0.10207261129755267,23.575055198045906 m7.287925799751541,-22.947525161055626 l0.4883493923209759,0.7036360790121439 0.2624419468854827,1.3653394071077702 l-0.03063866350535219,23.589097662956327 " fill="none" stroke="black" stroke-width="1" /></svg>