<?xml version="1.0" encoding="utf-8" ?>
<svg baseProfile="full" height="103.40559167256382" version="1.1" width="103.49410465886695" xmlns="http://www.w3.org/2000/svg" xmlns:ev="http://www.w3.org/2001/xml-events" xmlns:xlink="http://www.w3.org/1999/xlink"><defs /><rect fill="white" height="103.40559167256382" width="103.49410465886695" x="0" y="0" /><path d="M25,25 m0.0,0.0 m7.274557547488756,21.387315892593758 l0.29858263471217544,0.39521714403613917 1.0513937501103758,4.998152540181227 l1.2742706122771907,10.232704242902583 m-1.631635280336721,-15.3962525011121 l10.693842170953449,-1.9624602360077472 0.5817417596839622,0.07017362070353905 l0.4213800677520666,0.3484068374858876 0.2515227113457628,1.1014436027096188 l-2.0747877805349297,12.323050029134613 m-8.278414343869724,1.3100630930248307 l9.677112072149963,-1.1559481203925266 m15.192548026811219,-23.87553851923068 l1.3169500700810006,0.9696453877082545 1.2272981827834497,1.3012728549849946 l1.0295093977074337,1.6524111485458326 0.513405222194698,1.4645585894750492 m-14.277815115131386,4.14736483370233 l2.564853063385484,0.24071365761634622 20.661411620786048,-2.4486214852520707 l1.933385619146652,-0.08671812163267736 1.4270460781592553,0.31133489494400685 m-19.678972547519415,6.273870315645864 l-0.09476888099344043,1.413212201652518 -1.4585658956848992,2.7918105321847646 l-2.0370917280333996,2.6863700489637443 -2.7090238592594655,2.7156511733205178 m17.590548180550275,-10.513453605817643 l2.6981163798114243,2.190816507455705 2.3679326695651333,2.2608479119458 l1.998185307060057,2.3850175929607778 1.6282451210970188,2.471147555502211 m-7.6968922803076465,-2.4856318763809275 l0.21233473810416398,0.807457553210875 -0.1019296814829429,1.0500451369949215 l-1.1934401274754143,2.304962673325802 -3.3205601300126397,4.985839563825689 l-3.2665036324417267,3.878576659142639 -3.7114135233961574,3.579347779797981 l-3.2823601260913624,2.6534192246966684 -3.5362531004436546,2.432583222296545 l-3.718935483471011,2.1954121157181636 m8.16552436961802,-20.719420316874604 l0.7952175927561584,0.42162821520575217 1.8475634045108313,1.6187671087900903 l11.450413238339321,11.22750117550753 4.772319924662545,4.335722861116067 l2.4207660594006883,1.7883264776750523 2.2254905823482782,0.4574180669179093 " fill="none" stroke="black" stroke-width="1" /></svg>