<?xml version="1.0" encoding="utf-8" ?>
<svg baseProfile="full" height="97.3737911046745" version="1.1" width="97.33961944766399" xmlns="http://www.w3.org/2000/svg" xmlns:ev="http://www.w3.org/2001/xml-events" xmlns:xlink="http://www.w3.org/1999/xlink"><defs /><rect fill="white" height="97.3737911046745" width="97.33961944766399" x="0" y="0" /><path d="M25,25 m0.0,0.0 m14.73009470283402,12.306345503519234 l0.46684106996881114,0.1177676811618181 3.116381836498814,0.06797114593236478 l23.479292214297214,-2.4533203968196577 3.102831071192383,-0.1667479781966504 l2.444178552872749,0.27684312393344 m-25.369237699737422,-5.118667110238185 l0.7264178767731938,0.9690811134637106 0.2495429792968637,0.869881217913321 l0.7724582884323951,9.811250543338085 m12.81591873473402,-13.686851614467827 l0.21306132259055968,1.0371102408335182 -0.09571202395630536,1.1180850478252617 l-1.899165705311351,9.839269136235552 m-14.8696858996325,5.038778738269168 l0.5488493004481337,1.0535163349757959 0.22836155695540733,1.347869424799848 l0.04776743010774675,12.789710714299781 m0.22727907293912122,-13.946215317954113 l16.421895185057345,-2.0222546235431538 1.6302354208706151,0.02517429479868526 l0.8872998817900908,0.31179298738746114 0.6285150255441186,0.8988602150903744 l0.08935284879131332,1.4829308978298306 -0.7648309602121636,6.99307832969623 m-18.22033296631676,2.3848830637435405 l18.856799783182765,-1.81202343456725 m-15.407327260984315,5.604149328481861 l-0.07575685140221769,0.8563011504620969 -0.4134157673353976,1.0214706698972031 l-2.3625604731599092,3.590342739168486 -2.9306923288743696,3.256316271935519 l-3.942581731974255,3.511091665469157 m10.34841406946564,-13.708319315309296 l2.2563758439762127,0.8797387148316916 2.629680202823644,1.748802000658659 l12.865344543752496,7.064567779457597 3.429842779922574,1.4812599308131382 " fill="none" stroke="black" stroke-width="1" /></svg>