<?xml version="1.0" encoding="utf-8" ?>
<svg baseProfile="full" height="106.21930918640415" version="1.1" width="102.42707031052231" xmlns="http://www.w3.org/2000/svg" xmlns:ev="http://www.w3.org/2001/xml-events" xmlns:xlink="http://www.w3.org/1999/xlink"><defs /><rect fill="white" height="106.21930918640415" width="102.42707031052231" x="0" y="0" /><path d="M25,28.942220668002168 m0.0,0.0 m7.599667587479859,17.550631703253007 l0.29713216529446307,0.4416086731309583 2.18629945658408,15.57534021260364 m-1.780402173606081,-15.71632847630378 l10.514134232322007,-1.9740253631381057 1.4920915595866664,-0.07915602325909273 l0.496379570260483,0.3013600412711927 0.3209663832861506,1.2119375734889661 l-1.8884549940112312,11.934172680194454 m-8.72319143383556,1.6880377415623553 l9.79588460912875,-1.369065810085412 m5.438257139937917,-24.292937803539964 l1.4941946150428964,2.252028857496001 1.8671012199542272,3.502647639195031 m16.027543082090112,-7.947997349537448 l-0.029743692039173823,0.9981134107984458 -0.7012327556569568,1.7073815274530437 l-1.74684922923684,2.548604339834436 m-17.09813066479316,5.504535954188633 l2.176280206353407,0.25791539280469183 15.766191945164058,-2.150610682017992 l2.5888406989758104,-0.1685102353912353 1.5300503490235675,0.18667180469395647 m-26.82947951672745,10.007830026326948 l1.3967474430074802,0.2624566610297253 1.5539331051262697,-0.045909462870618346 l25.080193489978562,-2.3890168967814276 3.6026659118319952,0.16584285388729908 m-17.554059829355815,-19.807551863248374 l0.36061155630534897,2.1332824689977805 -0.9399320277617623,8.624069752998993 l-1.2939104769157173,6.493988500265411 -2.0574769797747883,6.328510228695841 l-2.3936377592025546,5.024650016803807 -2.353033539079798,7.21531819016129 l-1.9340798674841668,6.32408674517907 -1.825863234793135,5.3309071623395825 l-1.925363591430621,4.646268325920871 m14.235016136361033,-25.923038004048344 l3.8401355398350034,8.44232198310359 6.049449423041487,10.789146426111142 l2.191487720824482,2.6209817145870216 2.2824795486654263,1.8874394376753862 m-7.396237322307959,-51.2486166149521 l2.6451924859359393,2.070335470026089 1.7659095353038006,2.1838570710442404 m-7.091071052272168,-7.041736669951187 l1.8010174232253513,2.0532094454764724 1.4090987614232136,2.773261294864576 " fill="none" stroke="black" stroke-width="1" /></svg>