<?xml version="1.0" encoding="utf-8" ?>
<svg baseProfile="full" height="111.31123464279639" version="1.1" width="102.21764438448847" xmlns="http://www.w3.org/2000/svg" xmlns:ev="http://www.w3.org/2001/xml-events" xmlns:xlink="http://www.w3.org/1999/xlink"><defs /><rect fill="white" height="111.31123464279639" width="102.21764438448847" x="0" y="0" /><path d="M25,25 m0.0,0.0 m27.27767280724239,3.7217624972910555 l0.01153083458343032,0.46444150914771193 -0.512759963630328,1.713527970325226 l-2.204492384452452,3.6994596798055177 -2.4929687881701237,3.9170309478411247 l-2.991974223549841,4.381787498571324 -2.932980204424967,3.7191738986064684 l-3.4432145877279856,3.678173005927026 -3.9606580791050163,3.5371628076864825 l-3.292823278741411,2.4806746034698937 m22.270111491996158,-26.32348635551001 l7.153768307372424,8.968963949916864 10.795040391801013,10.953521607226651 l3.371679159879838,2.2407097319911595 3.1697129014153385,1.1610902318251342 m-33.20304637581797,-5.022056918340662 l2.0552013457956924,0.16275753318887204 11.026490691139738,-1.519912600598539 l2.8999433305624334,0.0680042428792246 m-21.999522475809314,11.733297056209974 l1.857871959171834,0.32780529235668354 1.724753094701451,-0.07631693360056306 l18.811594215103117,-2.5637651085519617 2.0053421402552214,-0.08746142201866977 l2.3996049650091047,0.19815111405694824 0.7179845324595547,0.32942677835354134 l0.44334857654565546,0.5619285891509448 -1.0562982224630129,0.805115618836767 l-12.242751595207976,12.03663575495257 m-7.736325629063637,0.8552442675258966 l0.7147980744892272,0.9987650016510281 0.4875216937302822,1.196578068288555 l1.3450635004586904,7.036966783563578 0.7971852941771282,5.956077940770593 m-1.6239773083127134,-14.162844259910418 l17.07442440851121,-2.287687744258117 1.8479933743915247,0.37358508238535243 l0.5216058286828984,0.9251566836896038 -0.047265990150277805,1.4360627259864693 l-2.45528623095148,10.108893144280383 m-14.893756950130404,2.289627957032505 l16.38937364438063,-1.7611542966769371 " fill="none" stroke="black" stroke-width="1" /></svg>