<?xml version="1.0" encoding="utf-8" ?>
<svg baseProfile="full" height="118.88427591009348" version="1.1" width="113.13157709070234" xmlns="http://www.w3.org/2000/svg" xmlns:ev="http://www.w3.org/2001/xml-events" xmlns:xlink="http://www.w3.org/1999/xlink"><defs /><rect fill="white" height="118.88427591009348" width="113.13157709070234" x="0" y="0" /><path d="M25,25 m0.0,0.0 m36.91042698106854,7.120756838533933 l0.29809316261707786,0.4179854840818099 0.44283470328449387,1.4636282783002181 l-0.017220759969765714,5.260492161541915 m-17.05872234527874,1.960377118584265 l1.5941577686882862,0.29778763778482714 1.7567927021831793,-0.007950199555621526 l15.96962800195481,-2.71197319167973 9.321202376090703,-1.180174505352368 l3.4957733769231956,-0.1954992563282157 2.436802700718678,0.34296380884923083 m-32.53914402120016,3.6676685576187427 l0.48031232736973245,0.9491602146757007 0.1649239385595017,1.2716006611968957 l-0.29562137769532487,7.285594227564684 -0.7569717529179972,8.319286817903807 l-1.1620212222515536,7.337665858136982 -1.3021056737587506,5.3371004689360735 l-1.2971073616678255,3.8599131176586075 -2.191425248300677,4.792111499382927 l-2.078797216916485,3.2597040994178865 m28.985655618395107,-32.88426527290477 l-0.5981223316954793,1.504218328313496 -2.4876612061533474,2.898465371228748 l-2.925769426348082,2.7298088993018714 -3.7769927168076967,3.7630594771683494 m-1.0869457977250692,-0.19911569405952032 l0.6739159722596059,1.394412885766509 0.12750549996601954,1.2880547156936806 l-0.19031413961001084,22.10934361541642 0.15350408250453332,1.7266866360798905 l0.40408900770772704,0.12779293094227315 0.765160537717406,-0.4799881637226884 l6.832194016883292,-6.1229059063236635 m-7.045618887366138,-12.702632657914764 l21.78112101880261,-4.170544673890822 2.18592585426834,-0.20511246060712351 m-15.81273379157235,-6.169955876571769 l1.1659445200095393,1.9551821546980248 2.1527845655528703,7.315103226842163 l2.207627121334931,5.462070609925231 2.6995445497563995,5.574450856667521 l3.0243629109968695,4.678207735572846 4.4865175514421765,4.673158383951559 l2.603895972655113,1.943236391635821 1.919363495045541,0.5988594712273929 l0.47576195619571066,-0.2897832757972353 0.2390500769858111,-0.6194657547131068 l-0.10688235261775898,-3.18793487820916 m-33.320421816833104,7.12986985387307 l2.5277009845202763,0.19579928325068288 17.93627325980309,-1.2869033992247307 l3.699798946123419,0.15380930651777858 " fill="none" stroke="black" stroke-width="1" /></svg>