<?xml version="1.0" encoding="utf-8" ?>
<svg baseProfile="full" height="102.78018638907412" version="1.1" width="105.67999391865996" xmlns="http://www.w3.org/2000/svg" xmlns:ev="http://www.w3.org/2001/xml-events" xmlns:xlink="http://www.w3.org/1999/xlink"><defs /><rect fill="white" height="102.78018638907412" width="105.67999391865996" x="0" y="0" /><path d="M25,25 m0.0,0.0 m26.418075436924138,2.7052630203631383 l-0.03519240833436019,0.5630222161838807 -0.5579471814195333,1.976910611501188 l-2.878020526129851,4.7554163846214 -3.3535392483593185,4.230770525241064 l-4.0685851771741985,4.286325548061029 m-10.77947083276723,0.19956364653323752 l0.9409326115494789,1.2928880836937506 0.3363781208872235,1.2738745159146305 l1.2753641064550274,29.34419953987181 m-0.6673754044127763,-30.620233528685542 l44.83837495554252,-4.185827351611177 2.2382491462997054,0.2732882891386804 l1.2850611182307496,0.7299889767679452 0.6876892013683755,1.8266790590076305 l-0.5913535088995806,6.247967221537698 -1.7582996629645915,11.923421196196017 l-2.0204398281429716,9.666863336893558 -1.2484526125271667,4.270504076784449 l-0.6732431251001983,1.2986674683639956 -0.6314837119558528,0.5893178532024813 l-0.6116308119399885,0.1313156994932614 -1.2139320065994204,-0.8047883317435859 l-1.873567302701293,-2.6836050036876156 m-27.21093902631506,-20.670055654747912 l0.9912634072435107,1.668339239292918 1.6747942887065141,11.391418141895153 m-0.9539111660242813,-11.719667870718164 l17.762239971714706,-2.366608451278967 1.5624393985381484,0.21007302877856573 l0.49531913137064176,0.4197618444330804 0.15520466182363263,1.229039265603611 l-2.3914811630856643,8.73717121634762 m-15.643881184785617,2.1839756085591193 l17.825644150461518,-1.4929175727616761 " fill="none" stroke="black" stroke-width="1" /></svg>