<?xml version="1.0" encoding="utf-8" ?>
<svg baseProfile="full" height="104.15280393221613" version="1.1" width="104.27775824862823" xmlns="http://www.w3.org/2000/svg" xmlns:ev="http://www.w3.org/2001/xml-events" xmlns:xlink="http://www.w3.org/1999/xlink"><defs /><rect fill="white" height="104.15280393221613" width="104.27775824862823" x="0" y="0" /><path d="M25,25 m0.0,0.0 m27.627964860301148,3.339128766013714 l0.021835682072534706,0.39881686836983704 -0.4466442191541967,1.6157486127094773 l-2.123837910631855,3.2428892092714547 -2.8863036502257136,3.802303949205853 l-3.602949918509554,4.194323745507897 -3.405467416427411,3.3742227375305833 l-3.8339546760230157,3.3158053832188283 -4.404228696519616,3.311073505812057 l-3.5589971143204906,2.3842200640967826 m24.246243758347752,-24.056211591970918 l8.724648526309396,8.240813148306655 12.320004489677586,10.797519527198185 l2.445921316404282,1.9074426298018665 3.153523217327389,1.1470136853922874 m-26.028961832535053,-4.494070052505151 l0.5475366682109549,0.8003474508220051 0.3896210539761039,1.5006868018148238 l-0.005183784899675987,28.133620979845748 m0.8584337365469749,-15.979591808452994 l9.395437414157314,-1.0713313242276616 3.927085084682467,-0.1261278259840399 m-29.762869259722788,1.1826801567930916 l0.6499497217644388,1.7833142562624942 0.11034883603232713,14.469835236071749 m-7.932104430005327,0.5764508110927813 l3.7989102690139274,0.3618790102187295 34.83955513492853,-2.0178546746823445 l3.4999290069433897,0.05009420767926029 2.9342667891698073,0.37594038183743944 " fill="none" stroke="black" stroke-width="1" /></svg>