<?xml version="1.0" encoding="utf-8" ?>
<svg baseProfile="full" height="116.98794082591228" version="1.1" width="99.99372194192674" xmlns="http://www.w3.org/2000/svg" xmlns:ev="http://www.w3.org/2001/xml-events" xmlns:xlink="http://www.w3.org/1999/xlink"><defs /><rect fill="white" height="116.98794082591228" width="99.99372194192674" x="0" y="0" /><path d="M32.45852178855401,25 m0.0,0.0 m18.635472121637516,12.936967732332942 l0.040322054288312675,0.10711906597976745 -0.9891350112399788,0.5464888859738812 l-1.6417885258351812,0.7057249994480905 -4.344786165336097,1.3665883247003723 l-5.4735768589900475,1.0953604433292858 -6.5585677035345755,1.1221462852159336 m-1.546543187251142,3.9349859269093432 l2.843335098172222,0.8133534591739818 2.2548871261353542,1.51276212511964 m6.45974201106706,-4.469511562975609 l-0.08449296936812112,1.2989347501734587 -0.9074338607216327,1.5549552357206136 l-2.912230848862564,3.5227955821346892 -3.4261918702797853,2.9412646868993755 l-4.1611365791862,2.7115682364423543 -5.646396619249147,3.2247953884785963 m10.784695400084093,-6.184402066975095 l2.0888028549403166,0.8475743918468099 2.2147612209114045,1.3601353030579635 l1.7289021205087878,1.4690149925425466 1.1815660531176466,1.4390478438090293 m11.57149455963492,-14.07819027248293 l-0.031630209213511916,0.8025997232076965 -0.7874842740220345,1.571034664315354 l-2.224890521007147,2.996958088183629 -2.406252666663392,2.466635238870244 l-2.9317628933282496,2.0778257386433014 m7.210933303051205,-4.052851258552124 l1.5681971051899992,0.5463271814135806 1.5674850141937327,0.9166535607381799 l1.5231293636168168,1.2379622888479362 1.0252137475627454,1.183972039021758 m12.394330198801722,3.5217910701119646 l-0.15278491463636287,1.210621727144846 -0.3705680673237348,1.9056752676465194 l-1.3947707946127497,2.6938165004097248 -1.7191460086862866,2.1878797502530727 l-1.9814556567992172,1.9425926194913896 -2.3675742224340395,3.5795650177225604 l-2.648039209959115,3.245613090313451 -2.7436024862206945,2.8357660820997497 l-3.1417570547693745,2.7491372742698603 -3.0282356958973997,2.2899201267334326 m4.878527504145133,-17.605570550056697 l1.5113682851422943,1.3748794015611245 1.8377587489019682,2.001076465296592 l1.6557238741528635,2.192233311214601 1.1343571501307474,2.040507804421247 m-28.04016225860304,9.85662245361815 l-0.5395224053003997,3.8008467153763297 -1.446628020098622,4.239610292472802 m6.915683748029543,-9.211820676280986 l2.4573077292377774,3.503067779767559 2.946594485990255,2.8589861700366113 l3.823780404393556,2.1916376096811407 4.890533362270516,1.468874434419021 l16.298548171545466,0.5880140666436067 2.786977829311821,-0.416282136937064 l0.7821234548677222,-0.7132029615923681 -0.9078884249568014,-1.157242413083766 l-2.261190204594858,-1.4368649436451164 m-19.038348451414386,-8.960826118304194 l1.4629408489060816,2.199496430472891 1.1589958847240922,0.9726911141990331 l0.5227988284163548,0.03635598867397875 0.5537176993359288,-0.3331826134010261 l0.9920672011528587,-1.7093823379364659 m10.778985069515873,-3.149873289554741 l2.8597936176736525,1.156453377559021 1.7648954285990939,1.0678123054676918 l1.6664897593989687,1.4110601426584335 1.6179363550121912,1.8657859289781846 " fill="none" stroke="black" stroke-width="1" /></svg>