<?xml version="1.0" encoding="utf-8" ?>
<svg baseProfile="full" height="104.9644670450061" version="1.1" width="97.60670457909087" xmlns="http://www.w3.org/2000/svg" xmlns:ev="http://www.w3.org/2001/xml-events" xmlns:xlink="http://www.w3.org/1999/xlink"><defs /><rect fill="white" height="104.9644670450061" width="97.60670457909087" x="0" y="0" /><path d="M25,25 m0.0,0.0 m30.97927378631229,3.3542926456902133 l0.36040180363073004,0.42737214494024234 0.536403600761581,1.6770844463945347 l0.005001804147631763,12.10078054706858 m0.6010830332646407,-7.678147174604058 l7.434107257329009,-1.274279394009641 2.765531857810278,-0.15636081309325645 m-21.54130990109615,-0.30148746232434714 l0.709036681931451,0.9271859132647531 0.2700399468959187,1.118925928725515 l-0.06659753054132186,9.109112902810281 m-7.851451239129021,0.8127251806132831 l1.384127255189859,0.3804995463147623 1.4811720177952452,-0.048807966808526296 l25.39435284128448,-3.7406897176381326 2.2532330641147045,-0.1631155745423735 l2.5580381615388217,0.3927539817791956 m-16.669447014166458,3.6235650081230952 l0.49425488110202737,1.0793141611198152 0.1129605514868905,1.1395766640051825 l-0.11349720676387225,13.894373528407588 -0.26388749443811094,0.7142143889188662 l-0.37569282073975174,0.20833317171943563 -0.45769755208521223,-0.16947578876512634 l-1.135196887301651,-1.0011834485658624 -1.0881583175702252,-1.450411010409355 m-5.083323449905081,-9.388722820061224 l-0.03801415778827986,0.9994613594516247 -0.30934667871821026,0.7193788715653324 l-1.734800528688122,5.634236969757727 -1.7406457708829466,3.68898479552557 l-1.8803623249231411,2.934289126869747 m20.987518646186924,-16.104899129684906 l0.03500564290987643,1.5835081762008643 -1.201099338903433,1.4990080173776354 l-2.9398758527520665,3.030885115090492 -3.465753950425814,2.958632419624463 l-4.17758046659239,3.071660038379106 -8.109068417141202,2.9899677351513 l-6.042358010075139,2.4282436777073144 m8.479173179149385,-6.704531957552655 l0.47567845634653555,0.7872518716535889 0.20122194863452683,0.9971922760390567 l0.11626003294428586,18.863768692776393 m10.450169366148193,-20.85233095202157 l2.0249235427100456,0.2516193303350829 8.585516817980832,-1.609896749794633 l1.1563319305828053,-0.14111934666360457 0.8410766397862574,0.21821865706085464 l0.31879475277110075,0.42066797968038766 -0.22110322164857787,0.6076058954027315 l-0.7527804132867127,2.639243255530707 -1.7917322547459802,4.233364177829091 l-1.9265187631502523,3.2950774911359857 -0.6269578749010533,1.2517846506302717 l-0.4715072877306306,0.7919502412717241 -0.37948622953319056,0.18679820435210154 l-0.33786463082185414,-1.0728568065389212 -0.18340196271599957,-1.5604465137097456 m-6.83954897073357,-7.075375180716359 l0.14392807442128416,1.4282629514342842 -0.25737600581928183,1.0924708762175135 l-1.01430020494943,10.370846015788237 0.03559915628561441,1.369363532904739 l1.2288184695307787,1.2276058582253395 7.989674141947139,0.24915196964435035 l5.248625258525497,-0.3076925190593356 1.4550392389369653,-0.48742175572321095 l0.9303767056410668,-0.8378480530146082 0.4938120905333875,-1.3163139937068704 l0.15788467318694716,-2.009168024994571 " fill="none" stroke="black" stroke-width="1" /></svg>