<?xml version="1.0" encoding="utf-8" ?>
<svg baseProfile="full" height="99.48275361091376" version="1.1" width="106.59487742101639" xmlns="http://www.w3.org/2000/svg" xmlns:ev="http://www.w3.org/2001/xml-events" xmlns:xlink="http://www.w3.org/1999/xlink"><defs /><rect fill="white" height="99.48275361091376" width="106.59487742101639" x="0" y="0" /><path d="M27.11599437533782,25 m0.0,0.0 m24.54973720721947,3.0619256016532415 l0.024153932108160647,0.4264146647107353 -0.5338119573602331,1.6241378183908532 l-2.251135816808317,3.100334420632592 -3.093210245592569,3.367572131115032 l-3.96817042834555,3.84558805999913 -3.8178238042260975,3.298553434432679 l-4.304672879281021,3.3114289470132374 -4.850397816670161,3.25833614071353 l-3.8706625663814975,2.434447150342288 m27.388634903571425,-23.25104239200441 l9.098855895946958,7.710413547517666 13.867553028050349,9.86054944699495 l2.6573502531801245,1.7250204142642735 3.582483340267534,1.1015550998017014 m-28.446272086547253,-4.7864825283371575 l0.5814441662644114,0.7981124558628325 0.39501164757902196,1.5234178778493084 l-0.006125141959253595,25.229919194090748 m0.9539717652951182,-14.204471245335208 l9.876324517473408,-1.0041052038074898 4.196132543180037,-0.13293824383490166 m-31.786774443086674,0.7788473315441189 l0.7296381013071382,1.7535631941420782 0.11421232293092329,13.716981208723595 m-8.473417767912824,0.5917777867742413 l3.8896338542732587,0.3428972976640727 36.9917312031924,-1.9421804951729396 l3.800098574629233,0.03604570750173051 3.253368260429908,0.3606068008540514 " fill="none" stroke="black" stroke-width="1" /></svg>