<?xml version="1.0" encoding="utf-8" ?>
<svg baseProfile="full" height="134.86966008335543" version="1.1" width="94.4461400416584" xmlns="http://www.w3.org/2000/svg" xmlns:ev="http://www.w3.org/2001/xml-events" xmlns:xlink="http://www.w3.org/1999/xlink"><defs /><rect fill="white" height="134.86966008335543" width="94.4461400416584" x="0" y="0" /><path d="M25,25 m0.0,0.0 m26.33143280353757,12.033955585468506 l0.36161804312243256,0.16896243326697466 1.65878743097616,2.054155984094505 l0.9853548948032184,2.318752898176625 0.3201056232495678,1.2294855754506973 m-13.555819803681763,4.504620434617303 l-0.6755703243242637,4.881082523381831 -1.3265071531986998,5.972515992275789 m2.2244732640165465,-9.33083212384551 l22.360885574946323,-2.9533236684669815 4.671415552207776,-0.3358637954778657 l0.771906151528249,0.3223831511423686 0.31805798447527334,0.5563961181399242 l-0.0453635828498563,0.7185542087518021 -0.860232562716107,1.6524583182547325 l-1.8059205977631745,2.185767175529335 m-26.612975667402168,1.377802641498766 l-0.20675424436332918,0.9761401239620351 -0.49835531633214003,0.9682655648734279 l-2.029322220580316,2.8361378353629285 -2.7521381684542146,2.62109775694847 l-3.419858689494816,2.424384486408162 m19.433627379983466,-12.500362443788902 l0.367432579218838,1.1458911343244071 -0.06809797416578418,5.857059916118916 l0.23649564454093566,0.8187268222191008 0.6143547320955907,0.7809639417480669 l1.3950127827965044,0.739106199393833 1.8393450294921814,0.22977881662968838 l3.995352130816312,-0.04527270447976323 3.2997400230344374,-0.5503724739169921 m-26.894303508593403,7.412741909327405 l1.6908597628172408,0.2374620591300236 16.318553645747844,-1.5723401142567506 l2.91148951392776,-0.10123380486074841 1.4855042411610968,0.24578669775134473 m-27.285891999372637,2.4082444531223564 l0.2843183558825567,2.621723885329926 -0.1564389012138631,24.033700808297755 m10.49622334579666,-15.848716218157413 l0.4482727014445459,0.42670631529203334 0.23972321904522031,1.0900404430029256 m-8.180954302697481,1.0108760864140558 l0.18757020376951003,1.3955562887695796 -0.2774733562520716,1.1206291930952257 l-2.5028646826605097,6.051723929491009 0.569215856673958,0.5575199300984145 l7.824853366036649,-2.5395817019110676 5.149306181565175,-0.40163987532259593 l0.8914818867625816,1.0489284891507689 0.010718511658880443,3.5985010696395716 l-1.1535968953861186,6.172066468483184 -1.474201753278103,5.117629517913522 l-1.581353414375399,4.5529982858372575 -1.0381225651865438,1.9907454994231215 l-0.9194907891757051,0.5811720402323318 -0.9283523473624864,-0.4067267975880633 l-1.0495217208532885,-1.6164928535764322 m-6.304043903617102,-15.466313441205193 l-0.022354043946239324,1.5054983810722147 -0.6923114952160784,2.325792259685046 l-1.141157114896215,2.5350996565076316 -1.4875939281183164,2.468624059307176 m12.50196443704403,-8.555975199312476 l1.1521331675666895,0.9937298480838626 1.4858158215005057,1.7019483056498013 l1.3878842201083113,2.087547517655163 0.6936821436529844,1.4431111239798327 " fill="none" stroke="black" stroke-width="1" /></svg>