<?xml version="1.0" encoding="utf-8" ?>
<svg baseProfile="full" height="113.53852064948705" version="1.1" width="89.73342612599112" xmlns="http://www.w3.org/2000/svg" xmlns:ev="http://www.w3.org/2001/xml-events" xmlns:xlink="http://www.w3.org/1999/xlink"><defs /><rect fill="white" height="113.53852064948705" width="89.73342612599112" x="0" y="0" /><path d="M25,25 m0.0,0.0 m8.14146686311744,14.035538545092438 l0.39892375774202943,0.11257953716332446 2.5307363452371283,0.05050499604287864 l8.64420795520299,-1.4079534523676103 m-5.765001222286957,-9.137413221715876 l0.514904717581267,0.903727031689105 0.2528950544639952,1.7302361789952392 l-0.0471980728715235,16.049021071969158 m-10.727755307978887,2.0611772676724613 l1.9820325411817235,0.32520973683287696 17.295896425808397,-0.12555982030943386 l3.5815101719074582,0.334962742429132 m-16.12536149761974,2.0615876967483673 l-0.16133238960692187,1.4120177516219372 -1.9959191954167343,1.6653790345202626 l-3.4251646950510004,2.425238869337779 -4.366244325826947,2.716046340271733 m16.93946348178448,-9.67244268397116 l3.033970633321631,2.567423883350184 2.1527396509269625,2.9745175847689147 m-17.200864475205208,1.4368711260000349 l1.8547087919873266,0.006046691564584453 9.330533210442017,-1.0391290817042391 l1.2835152613480043,0.04153473973902981 m-15.153941070888669,8.04538591630575 l1.3509866049973358,0.14944241444564968 2.9820594540830703,-0.11952238752075726 l11.775779777401464,-0.8147807638893834 1.5679300507048504,0.22679973678960685 m-8.472581364616273,-6.025539420429635 l0.40332070040810075,2.2425127277821737 -0.3006680347452999,17.993967538587476 l-0.29830792698874925,1.0056521717783375 -0.4886052181444418,0.286806944382807 l-0.6312028395749577,-0.3108108197011943 -1.527771169319296,-1.8803829191318004 m2.8505842233682293,-10.849364222296435 l-2.0939241681111054,3.3644521890271255 -2.667800715655502,3.3921597950940985 l-2.787851429678512,2.7884304952381167 -2.6278940551156973,1.9376188350212271 m12.036588112618452,-9.971867947659087 l2.927306445366898,1.3536275586765847 2.9371744352599225,2.141448446186661 m8.620506036044917,-35.80494579372937 l-0.07280000233233386,2.9108644419008014 -1.4079791109296398,5.179701079244115 l-1.8507130266208884,4.871546327458488 -2.3654066301912127,4.881715855602743 m3.8143566148591783,-5.206814519382661 l1.1205761253624977,0.2074479978116832 9.457215859390129,-1.9523349681616 l1.1836810950315624,-0.004879156187163978 0.3909100799735689,0.6919203496705822 l-0.2746248698186835,1.2260510706767642 -1.0451596069513962,1.5323689401002734 l-1.7252236381745267,2.044351201324104 m-7.44898798721729,-0.05704431915259567 l0.24061775112164493,2.076078233371162 -0.5877180250973177,3.777652401920153 l-0.9876921476382609,4.149321776896995 -1.4249709186053532,4.131615062044112 l-1.468616802064494,3.2105779707161197 -1.8148218597465444,5.577087169747976 l-1.6680881659739832,8.189333423510066 -1.5175783654351829,5.423747249675849 m6.106811223881077,-25.108317599756308 l3.784183982347006,7.1270953583288215 4.763656107834382,8.079957141129718 l3.8886405309275385,5.91192354083138 1.10299157105487,1.2181568867575532 l1.015814813401092,0.6376317045630584 " fill="none" stroke="black" stroke-width="1" /></svg>