<?xml version="1.0" encoding="utf-8" ?>
<svg baseProfile="full" height="104.78664522525668" version="1.1" width="114.0348499240257" xmlns="http://www.w3.org/2000/svg" xmlns:ev="http://www.w3.org/2001/xml-events" xmlns:xlink="http://www.w3.org/1999/xlink"><defs /><rect fill="white" height="104.78664522525668" width="114.0348499240257" x="0" y="0" /><path d="M25,25 m0.0,0.0 m7.508971534791571,21.166135999443323 l0.2771042287335807,0.4581528826038177 0.42978718289850076,1.5179932338200943 l1.6446698636148382,4.515216659684576 1.5008464283357403,9.784102533231001 m-2.1977046481074094,-16.416363528247697 l12.480224174674813,-1.9454507386999513 1.1633152968846323,0.34366900640707354 l0.3391323263513602,0.46338829152555727 0.09433933477150312,1.1076528529968 l-2.3776442409397256,13.381510923404518 m-9.018985481346347,1.6214376886503918 l10.618312962621085,-1.2525234588220358 m20.291432561021615,-25.18871170557497 l-0.05480741239225072,1.3037231089259522 -0.6278368414344834,1.6347369027051313 l-2.0640212142192302,3.7781058074308986 -2.423882332436401,3.5835205101006444 l-5.1673668145563045,6.165025243035466 -6.40184575995927,6.304064261484695 m17.304063227229356,-20.347140574387854 l6.111222041874461,6.693889267791253 6.801317441053364,6.697302581712393 l3.714271185330276,3.192732751937861 4.089934879230437,2.4932264891826774 m-27.94462461619234,-2.8387135119040385 l2.7143744212043157,0.024365783067968973 9.538747740606238,-1.5392286775469006 l2.162758724438156,0.04854567429863279 m-19.499223559731227,9.933815085382053 l3.4690467379239447,0.13843215223846914 17.13566058648274,-2.3959855974778557 l0.8396186292177982,-0.06433821859125236 1.2321220258586996,0.6047638970099736 l0.1987357507409584,0.658706650776269 -0.2176013613007144,0.7741193892340248 l-0.5158599652515511,0.9337922482275232 -10.434479696474954,17.45297336020019 " fill="none" stroke="black" stroke-width="1" /></svg>