<?xml version="1.0" encoding="utf-8" ?>
<svg baseProfile="full" height="108.04779095542932" version="1.1" width="110.69560793671985" xmlns="http://www.w3.org/2000/svg" xmlns:ev="http://www.w3.org/2001/xml-events" xmlns:xlink="http://www.w3.org/1999/xlink"><defs /><rect fill="white" height="108.04779095542932" width="110.69560793671985" x="0" y="0" /><path d="M25,25 m0.0,0.0 m1.5927251589236568,19.44531098057069 l0.29053348790106653,0.5007784902091694 0.8092614182179705,1.543776249361574 l0.766341001787408,4.4598540344581705 1.7761939291375308,13.455443045957423 m-2.045264081057526,-19.351708549309535 l12.793944210966384,-2.2884874838783205 1.3228237446537088,0.4004405806560883 l0.3512180207694388,0.5155416783441353 0.10158670204137528,1.3510203016533662 l-2.4973295437812344,15.84171533217491 m-9.370405668287548,2.0504853210738663 l11.332977183945127,-1.495502483776903 m21.57939475061863,-29.843685205681403 l-0.16146711226749547,1.5660922217406372 -0.7625862603544662,1.9834322663727801 l-2.2715099008319215,4.249499821709543 -7.812374682657899,11.14720848139554 l-6.376417541620532,6.960753241454127 m17.52985024890105,-23.12650288602585 l6.279761867008274,7.5664159646284075 6.887965982578677,7.37128381807801 l4.046837151920635,3.705082927173907 4.5315478682075545,2.945750740770197 m-28.797367369496015,-3.205784828183517 l2.625315957055604,0.08221102383794278 10.125393927073763,-1.7831780165590996 l2.287816663290448,0.07252131199391702 m-20.641980645315723,11.460132699664744 l3.6602074043100212,0.16697715368836039 18.76078324451725,-2.820339285214746 l0.8577166326567021,-0.09587676172855186 1.322458957044148,0.589329192369946 l0.2789130423128643,0.6902750034345415 -0.15832892138866012,0.8555326548615703 l-0.587009600948547,1.0737981090002486 -11.271850490438421,20.008193809153447 " fill="none" stroke="black" stroke-width="1" /></svg>