<?xml version="1.0" encoding="utf-8" ?>
<svg baseProfile="full" height="109.41335594697895" version="1.1" width="100.82734449609089" xmlns="http://www.w3.org/2000/svg" xmlns:ev="http://www.w3.org/2001/xml-events" xmlns:xlink="http://www.w3.org/1999/xlink"><defs /><rect fill="white" height="109.41335594697895" width="100.82734449609089" x="0" y="0" /><path d="M25,25 m0.0,0.0 m30.853518801722224,1.7887732987375373 l0.3174884207426879,0.4294585053589945 0.5047459798217119,1.6040749864676092 l-0.014918020286260481,5.534347452936588 m-17.554451870848354,2.07439374194951 l1.7039618263834337,0.2864650565197019 1.8354586221166946,-0.02313783191889903 l27.30028787430749,-3.153874098733632 3.0072110495831463,-0.1313986368241289 l2.4448129216243264,0.31060111543367286 m-34.276011164350294,3.2109080998015895 l0.5002634623882907,1.588853363493225 -0.20674644382852297,7.410248671653168 l-0.6131657340816082,7.412142025672549 -1.0492367017385567,6.39168205990601 l-1.3012193749092338,4.959319900406466 -1.756575282221113,3.578765032012231 l-2.4181886281019938,2.91965568880572 -2.5249854288938423,2.0479537127586336 m30.14117766366729,-15.333487547947312 l11.390576392683936,-1.8467649744378274 1.9245453863767972,0.18358386336453222 m-16.205083865418487,-10.300842375572042 l0.6658372208466571,0.9186991364410557 0.32257351917857924,1.5480749736223265 l-0.07937202691885213,19.12978651849573 m-11.713742116579352,0.688523924179627 l0.5686793061338598,0.9746578242105843 0.5770478315484368,2.6641045277511455 l1.7882370517034887,12.547787932434602 m-1.6014873884742666,-15.392736217111764 l10.88284072578682,-1.640354689128848 12.388012358018546,-1.2764938422213914 l1.7166137565094832,-0.01356172227055123 1.0887071256682257,0.7476122472510489 l0.21993124592949942,1.4127203272770201 -2.751941953733972,11.08143462668045 m-20.903533836501616,2.5679932846266986 l21.986846159404,-1.9604295461263872 " fill="none" stroke="black" stroke-width="1" /></svg>