<?xml version="1.0" encoding="utf-8" ?>
<svg baseProfile="full" height="109.49251329526305" version="1.1" width="109.18385854922235" xmlns="http://www.w3.org/2000/svg" xmlns:ev="http://www.w3.org/2001/xml-events" xmlns:xlink="http://www.w3.org/1999/xlink"><defs /><rect fill="white" height="109.49251329526305" width="109.18385854922235" x="0" y="0" /><path d="M25,25.000000974336345 m0.0,0.0 m27.111408710479736,-9.743363449388198e-07 l0.09176106192171574,0.6760139763355255 -0.308439526706934,1.8603433668613434 l-2.7281993627548218,5.608436465263367 -2.836844325065613,4.8417216539382935 l-3.6639171838760376,5.231277942657471 -3.601275086402893,4.319702982902527 l-3.1301534175872803,3.2436925172805786 -4.79082465171814,4.240095019340515 l-4.088709652423859,3.054460883140564 m26.226210594177246,-30.23531198501587 l8.965340852737427,9.416887164115906 14.72777247428894,13.91701340675354 l3.600296378135681,2.671266496181488 3.6094316840171814,1.3910162448883057 m-43.51546287536621,-1.3233169913291931 l3.7304747104644775,0.2272411808371544 16.916661262512207,-1.5970094501972198 l3.7415674328804016,0.16033971682190895 m-26.97791576385498,13.44719648361206 l1.296563446521759,1.7640963196754456 2.912781536579132,16.57734990119934 m-2.2055281698703766,-16.90295934677124 l20.162312984466553,-2.8900250792503357 6.40386164188385,-0.6314180791378021 l1.6795945167541504,0.22277547046542168 0.9654079377651215,0.9265828132629395 l0.05391472019255161,1.6567562520503998 -3.67517352104187,12.99565076828003 m-23.49083185195923,2.392149716615677 l25.216104984283447,-1.7371796071529388 " fill="none" stroke="black" stroke-width="1" /></svg>