<?xml version="1.0" encoding="utf-8" ?>
<svg baseProfile="full" height="108.77907167506262" version="1.1" width="96.61861655253404" xmlns="http://www.w3.org/2000/svg" xmlns:ev="http://www.w3.org/2001/xml-events" xmlns:xlink="http://www.w3.org/1999/xlink"><defs /><rect fill="white" height="108.77907167506262" width="96.61861655253404" x="0" y="0" /><path d="M25,25 m0.0,0.0 m30.696549860447345,15.521473590609611 l0.38926364070407016,0.020385379763300782 2.317751070374965,-1.4723643293199256 l9.372604198738781,-0.3077575077408576 m-10.686303033160431,-5.46303727178257 l0.50132400581654,0.6640253669901275 0.2555559256427404,1.0661979809574391 l0.09422912423162466,11.595418332510233 m-9.215692962369086,-7.960615220430532 l0.46814622800189043,0.7668219231420553 0.25117814086027046,1.0639599290183994 l0.12745956843929376,7.70215521924237 m-5.991643063631478,0.38476416862497265 l1.0437368437349792,0.37145616418063965 1.7759860723473508,-0.09302871226401323 l20.675512265137275,-2.781058713113107 2.2615404305441094,-0.05502183640667885 l2.281418236673791,0.2951112304924672 m-27.926549563052227,11.561572675935663 l2.2806843023939436,0.1973123750032173 10.671904814268892,-1.5459177755318048 l8.364147830032,-0.010094213258913702 m-11.070933298339463,1.8338678710301048 l0.5462312567203506,0.7232640227774265 0.21622062126654346,1.3430642234664794 l-0.26231285426267803,13.848228327463138 -0.3363839987383377,0.0896085547536449 l-0.4217898304679281,-0.18986038947169967 -1.9633868246016273,-1.8332302616154807 m-3.7753280407512477,-9.160548048551826 l-0.2838295730480665,1.6715379783940114 -1.617680924071157,2.9496068850341697 l-2.3594852613964408,3.0719140040534585 -2.6877954783408775,2.6946308143705653 m19.42289079863598,-11.82316390384964 l1.4578993241948737,1.6042681010693487 1.5599680275425691,2.3674140144542286 l1.2136931986477817,2.33920403927825 0.5906047635639019,1.9527839637069384 m-4.948312809076254,-22.32126916809901 l0.2572887310253274,0.8613626075049721 0.07868459411354788,1.4295731429698766 l-0.13256466036344533,13.233018307739972 -0.46297185333572194,5.012734145386096 l-0.8574624626739755,4.425110797028718 -1.0344976047553078,3.174675797964569 l-1.4800344869028075,2.9157159934174204 -1.9066453893175401,2.577819495514853 l-2.563880932783057,2.4659816026499493 " fill="none" stroke="black" stroke-width="1" /></svg>