<?xml version="1.0" encoding="utf-8" ?>
<svg baseProfile="full" height="105.3943548023831" version="1.1" width="96.60075366993632" xmlns="http://www.w3.org/2000/svg" xmlns:ev="http://www.w3.org/2001/xml-events" xmlns:xlink="http://www.w3.org/1999/xlink"><defs /><rect fill="white" height="105.3943548023831" width="96.60075366993632" x="0" y="0" /><path d="M25,25 m0.0,0.0 m2.5531666118728773,20.764061996605005 l0.29038554469017724,0.4504005153659147 0.8949372587634628,6.312642224157088 l1.1986667692284205,12.047581290860071 m-1.7020144817427607,-17.968428809585955 l10.057901638582521,-1.158174659694899 0.5994139340793591,0.07372135857560352 l0.4302778338394772,0.3895535228989047 0.25964109013557635,1.1945786686065372 l-2.0062771259297687,13.642245753489481 m-8.216903732624278,1.482680242425295 l9.61035107828108,-1.164324965891547 m15.602281068526677,-28.2393038487518 l1.9124451693178468,1.682375558015206 1.1258777547484013,1.8196379095772797 l0.6104525782478145,1.8220448713902426 m-14.018623519040162,4.396993309676955 l2.32286980491922,0.22363351022851338 21.820418196558826,-2.435967938556807 l1.8063013213551244,-0.10276302086124978 1.2748768396648495,0.3051349936712521 m-20.121341891327216,5.821401067956207 l-0.15029052133203824,1.6374959008939505 -1.734789931186467,3.6285434058381694 l-2.1699684623159814,3.3062014851753534 -2.380837871474557,2.7870700027770465 m17.773020840175075,-12.5337253608777 l2.871063475800784,2.4791570052236747 2.3508938024904613,2.5177887701820505 l1.8937857045133883,2.6148501354641756 1.517473273320146,2.631521592651304 m-7.800398316419411,-2.027045325639131 l0.1895408509124251,0.948607231381731 -0.11173233428069941,1.1064339837986836 l-1.1809704772016945,2.5971813101467722 -2.856963370384085,4.98559719739454 l-2.984803342926617,4.202981187370535 -3.4796382301850124,4.075536305795066 l-3.106371786884768,3.04978549010468 -3.3075796178641093,2.850534278603598 l-3.463888951461711,2.5914343302861162 m6.487331884336506,-22.79693299273834 l0.7602789388472356,0.6455311797392699 1.8447915433188815,1.9337355038936812 l10.043283254687285,12.45497601761001 4.471580673164223,5.169471866469269 l2.7409417042618927,2.5159024772173137 2.0798971958776526,0.6619982734639913 " fill="none" stroke="black" stroke-width="1" /></svg>