<?xml version="1.0" encoding="utf-8" ?>
<svg baseProfile="full" height="103.14147999374691" version="1.1" width="102.62658851427908" xmlns="http://www.w3.org/2000/svg" xmlns:ev="http://www.w3.org/2001/xml-events" xmlns:xlink="http://www.w3.org/1999/xlink"><defs /><rect fill="white" height="103.14147999374691" width="102.62658851427908" x="0" y="0" /><path d="M25,25 m0.0,0.0 m29.975867852179537,15.244711253855948 l0.3882248882199585,0.0733742074610023 2.0987024491823836,0.021757185610351597 l13.72205181019675,-1.854939735592134 2.518162792333725,0.10001241606028063 m-20.98102842329511,-7.5505285021069755 l0.6968803045356071,0.9555774116492561 0.2688790016185645,1.0057377351078953 l1.5126129409495077,15.477213210009243 m9.89796159996366,-19.115711278508588 l0.3711063205109037,1.1143938556000754 0.07457142111932358,1.2121006510950725 l-2.2959839873221832,16.948848959760593 m-20.996701886366107,2.8464361764024297 l3.736495270532852,0.23521552032951965 12.71248928912977,-1.8715333881406278 l11.69843312567867,-1.2000024714307136 4.472335451225824,-0.24501296501651573 l2.7555282938854435,0.33892630817965896 m-27.29682345300129,3.57574070963499 l0.56782818609013,0.997595236485991 0.2024510092936182,1.1299548824623529 l0.02910957026390707,21.711877234496807 0.11563240365820004,1.371925191504454 l0.501589887658794,0.6178101888365404 0.3875392246829257,-0.13088382415285313 l0.40850735871168536,-0.5035809471284569 3.163453832808575,-8.23420630816393 m8.954160501934005,-8.05629143707245 l-0.45717316945658143,1.5014731878156984 -0.8156899901777429,1.4827679056327565 l-2.755655399645461,2.2034149369432057 -3.684491738715828,2.463369556988651 m-1.4148050424386907,-7.340676248004968 l10.410245026928923,1.058130401359327 4.994240531317942,2.4257753460889355 l3.4460716424876745,2.258515841291742 2.8206640288290545,2.2384771874467284 " fill="none" stroke="black" stroke-width="1" /></svg>