<?xml version="1.0" encoding="utf-8" ?>
<svg baseProfile="full" height="105.57688276162284" version="1.1" width="107.30906958287984" xmlns="http://www.w3.org/2000/svg" xmlns:ev="http://www.w3.org/2001/xml-events" xmlns:xlink="http://www.w3.org/1999/xlink"><defs /><rect fill="white" height="105.57688276162284" width="107.30906958287984" x="0" y="0" /><path d="M25,25 m0.0,0.0 m10.339340634128357,20.050820263751287 l0.26271031902439584,0.40618303776268494 0.3960430116526846,1.4021390850255955 l1.412447537787716,14.384518463856532 m-1.0473417253208965,-15.76898759730404 l9.277687379238198,-1.6706538658711403 1.3325424276328812,-0.023721909591126005 l0.9605636713195868,0.26761692561927125 0.47826539853564193,0.39339440473744003 l0.18322895923085405,1.2310053459167967 -1.6191417774904149,11.316530059538536 m-9.068307482638206,1.542904258080168 l10.26042189474604,-1.0711539438302005 m6.311937991628962,-14.829685586885807 l3.5396564106100623,0.19389431088729744 11.95080382650665,-1.8885070851074925 l2.892803036804306,-0.2106781284926153 1.0308688073218382,0.14971017256955968 m-22.447744224559525,11.826242682236607 l1.8436332487728415,0.3170715208591747 1.728095652808967,-0.06357305158054667 l21.491539450864803,-2.7882651767140354 2.052256250519478,0.12950505623596603 m-15.198290120943168,-21.959545253920403 l0.7868287388202518,0.6657663209744649 0.5976986857620581,1.4993837002583736 l-0.1452321268333524,47.324692865606025 -0.19737312601243748,1.8841026804421561 l-0.4610925811063222,0.8345411121469379 -0.6376314442886344,0.03163209441539546 l-0.7177313100666313,-0.4985489701241445 -1.6743827194411531,-2.025150079075825 m2.001533726925503,-25.156365663118752 l-3.4087934532986552,5.770950189759111 -4.613213176974562,5.911114110007009 l-4.559265078820462,4.518655600496151 -4.721374093936503,3.357466866532927 m19.74544785512511,-20.272118371317074 l4.0122663697960395,5.611540451590109 6.741659419587519,7.983674466307071 l4.268822767314999,4.306961534905832 1.9268805521450187,1.128799157538788 " fill="none" stroke="black" stroke-width="1" /></svg>