<?xml version="1.0" encoding="utf-8" ?>
<svg baseProfile="full" height="98.31676728944001" version="1.1" width="108.46703092382978" xmlns="http://www.w3.org/2000/svg" xmlns:ev="http://www.w3.org/2001/xml-events" xmlns:xlink="http://www.w3.org/1999/xlink"><defs /><rect fill="white" height="98.31676728944001" width="108.46703092382978" x="0" y="0" /><path d="M25,25 m0.0,0.0 m4.323751500128862,19.52212330423216 l0.33120123414178626,0.40702604302306034 0.5215459847337615,1.2809588531768128 l1.6440978841763225,13.63107990619242 m-1.5516329277779863,-15.302468423192394 l12.414537500894255,-1.8435056904666216 1.9166665326208028,-0.07098046039287595 l0.5390213530808551,0.24906008285066145 0.31542691553731633,0.42317083297451463 l0.06569629138558274,1.3001691257584598 -2.2376147514616953,11.710492546923318 m-11.110434813438134,1.7870893621636563 l12.29579557346845,-1.354994532785629 m17.472010804969717,-21.590369614962974 l-0.14584747556668273,1.2916003789102943 -0.5497380152120677,1.2846537879752578 l-3.2492172726179622,5.709094896859612 -3.2321371778813868,4.310476956327507 l-3.98575763360311,4.206224500459056 m8.422027812448734,-7.0218186099052815 l2.678844949732666,0.05084161217142568 14.265109903392263,-2.117264896578829 l1.6807223280836403,-0.1195585951746194 0.9160222042573269,0.3489030881692197 l-0.20762164427388471,1.6096524493684754 -3.2026508878336126,1.5962555752368264 l-3.215275981592872,1.671899657029939 m-11.382061975524017,1.6563617183908241 l0.25121351432520406,0.8797276111563603 -0.04133653648056384,1.0119309888609231 l-1.3180243484401348,4.688995031791238 -1.7436718454727942,3.917955069750379 l-2.507178634133416,3.8854735538027145 -2.711295089679986,3.0239504972152966 l-2.5501919160778366,2.1872773537265235 -4.000374791774958,2.47845172505347 l-3.6009066499945073,1.6168316033488457 m17.590629947506518,-17.3936914919902 l16.30698885626395,13.17586353544617 3.267837966091737,2.119840824929804 l3.7908522354276677,1.713714736980082 " fill="none" stroke="black" stroke-width="1" /></svg>