<?xml version="1.0" encoding="utf-8" ?>
<svg baseProfile="full" height="107.49012745451182" version="1.1" width="109.49251321144402" xmlns="http://www.w3.org/2000/svg" xmlns:ev="http://www.w3.org/2001/xml-events" xmlns:xlink="http://www.w3.org/1999/xlink"><defs /><rect fill="white" height="107.49012745451182" width="109.49251321144402" x="0" y="0" /><path d="M25.000000498946306,25 m0.0,0.0 m-4.989463064930533e-07,14.83254075050354 l0.30002420768141747,0.4975172132253647 0.5104196071624756,1.5458816289901733 l0.8391732722520828,4.8554375767707825 1.8031558394432068,13.75432014465332 m-1.8180365860462189,-19.564881324768066 l12.88211703300476,-2.21723735332489 1.3673122227191925,0.42294126003980637 l0.3480212017893791,0.5639216303825378 0.051910728216171265,1.8579480051994324 l-2.677423655986786,15.065549612045288 m-9.441128969192505,2.0148414373397827 l11.274304389953613,-1.444554626941681 m21.744873523712158,-30.519893169403076 l-0.10757927782833576,1.6119419038295746 -0.682365819811821,1.969425082206726 l-2.2006364166736603,4.655880331993103 -2.6523929834365845,4.7212523221969604 l-5.323365330696106,7.655434012413025 -6.634938716888428,7.881828546524048 m18.078523874282837,-24.99284267425537 l6.395813822746277,8.127146363258362 6.801810264587402,7.68399178981781 l3.9440107345581055,3.8879281282424927 4.688910245895386,3.2157984375953674 m-30.299692153930664,-3.8755419850349426 l2.8681212663650513,0.0633992487564683 10.386617183685303,-1.9095578789710999 l2.508573830127716,0.05636205896735191 m-21.249420642852783,12.496421337127686 l3.8321897387504578,0.18220363184809685 19.238708019256592,-2.97972708940506 l0.8986963331699371,-0.07909181527793407 1.28439262509346,0.6286057829856873 l0.24858657270669937,1.5211088955402374 -0.3956741467118263,1.0363221168518066 l-11.555920839309692,22.26750612258911 " fill="none" stroke="black" stroke-width="1" /></svg>