<?xml version="1.0" encoding="utf-8" ?>
<svg baseProfile="full" height="103.14451397522517" version="1.1" width="100.40930566360838" xmlns="http://www.w3.org/2000/svg" xmlns:ev="http://www.w3.org/2001/xml-events" xmlns:xlink="http://www.w3.org/1999/xlink"><defs /><rect fill="white" height="103.14451397522517" width="100.40930566360838" x="0" y="0" /><path d="M25,26.0162515431086 m0.0,0.0 m8.45150678116282,3.2166310692303646 l0.24876066384562012,0.3749980153826739 0.4871410314647036,2.1308154716601537 l0.01775419264940355,46.40581787584338 m0.25150126242999593,-50.17724347609374 l11.7203658694646,-1.7050504968063795 1.373699676209373,0.25876055028460887 l0.3779045607897713,0.37861902006132686 0.1652137363478068,0.7401666377629612 l-0.9176923685513457,13.788791020677648 m-12.511523614980282,-6.841704021789075 l7.925961429635665,-1.1071669806945488 m-8.133035890017977,8.255859005879385 l12.299777621119976,-1.546570139249547 m13.461942778354882,-14.264941104733483 l0.5117337837400852,1.5900666855728711 -0.008259005446648102,13.631501057423423 m0.4003876090629173,-14.353532786789925 l12.575536149398946,-1.792068946730692 1.2692737062438486,0.38281690837416105 l0.4413556906842202,0.7271285971856968 -0.40826669138002,49.46716282249099 l-0.37017255952098804,1.221524742258663 -0.5464718707509181,0.49051683766048726 l-0.6692082077904322,-0.0416551969300475 -1.447704640542606,-1.0125948647295784 l-1.640942228848777,-1.7786201637233963 m-9.013639536414694,-41.47723125267548 l8.67290326061707,-0.8468111765081796 m-8.88639396154295,7.686894193414511 l13.698664506766725,-0.9923316296422697 m-22.13111604968611,7.649470467894016 l-0.08351768662706746,0.9467435975699321 -0.4792247686130711,1.3622105770125121 l-2.1449566836287306,3.697881065449206 -2.81002528337209,3.4683093270675514 l-3.004302271685909,2.6770664875990313 m7.837935830659958,-7.866376557496278 l9.356609701082105,-1.161790158623034 0.3839500711416387,0.3847445449126735 l-0.30543018184187,1.0675837666300492 -3.452616975230823,2.08185710171948 l-3.0790261604564897,2.1803143274192975 m-6.221681069971573,0.6948237430590882 l2.1869533435013144,1.3084144833029814 1.2094004550038522,1.3410337396323118 l1.0005846319616332,1.435820981402622 0.7739405590943738,1.5424483698949811 m-7.279573704674241,2.1494505162590283 l0.4511949672140429,1.19025516409692 0.06980157034892949,1.6487388787146184 m8.224992498195375,-4.928728567633023 l1.397546642110852,1.2293470079258446 1.0200312881301972,1.5742152351592658 m-16.835982624683524,-4.738519848150694 l0.5021151626863705,0.9500556403824103 0.10101765190039337,0.8838915987140035 l-0.12159038663532833,7.600459905075376 0.20026146933349137,0.6931648882965431 l13.996751801309177,0.331691855183636 4.094422771135721,-0.20101592253070044 m0.9978388226663517,-9.259761652083428 l0.4202038241338878,1.3692884588933454 -0.8380865746062238,8.723734023168271 " fill="none" stroke="black" stroke-width="1" /></svg>