<?xml version="1.0" encoding="utf-8" ?>
<svg baseProfile="full" height="107.59494913741946" version="1.1" width="109.4925149064511" xmlns="http://www.w3.org/2000/svg" xmlns:ev="http://www.w3.org/2001/xml-events" xmlns:xlink="http://www.w3.org/1999/xlink"><defs /><rect fill="white" height="107.59494913741946" width="109.4925149064511" x="0" y="0" /><path d="M25.00000244980015,25 m0.0,0.0 m-2.4498001494066557e-06,16.362199783325195 l0.44955216348171234,0.5435585975646973 1.2707655131816864,5.319756865501404 l1.5869879722595215,11.272042989730835 m-1.8290965259075165,-16.018694639205933 l14.58979845046997,-2.4477343261241913 1.5182037651538849,0.3381083905696869 l0.7564160227775574,1.2321557104587555 -0.04020453430712223,0.8366572111845016 l-2.3240570724010468,11.042733192443848 m-12.548514604568481,2.276298403739929 l13.690022230148315,-1.677689403295517 m25.978004932403564,-28.77133846282959 l-0.2990579418838024,1.1223696172237396 -0.8974256366491318,0.9058190882205963 l-4.509958624839783,2.40136057138443 -7.364060878753662,3.011730909347534 l-8.451178073883057,2.727697193622589 m2.8389939665794373,5.817655324935913 l1.4231902360916138,1.8935582041740417 1.4722077548503876,2.67011821269989 l1.6429302096366882,4.527080953121185 m23.614416122436523,-15.69638729095459 l-0.22695837542414665,1.986892968416214 -1.7461693286895752,3.763614594936371 l-2.2007575631141663,3.518190383911133 -2.8745821118354797,3.5890311002731323 m-29.351494312286377,11.710515022277832 l2.625129520893097,0.19005613401532173 2.8077706694602966,-0.21762069314718246 l17.43685007095337,-2.89892315864563 12.487410306930542,-1.6790220141410828 l4.883298277854919,-0.3650827705860138 3.084082305431366,0.3292428329586983 m-24.13010835647583,-21.594619750976562 l1.0763736069202423,1.694130152463913 1.3553713262081146,3.206290602684021 l1.051529049873352,3.891865909099579 0.7567517459392548,4.451875984668732 l0.6651374697685242,10.078831911087036 -0.5739113315939903,12.614319324493408 l-1.5673893690109253,10.393081903457642 -1.0951749235391617,2.6959699392318726 l-0.7084055989980698,0.5472516641020775 -1.5819938480854034,-0.07251924369484186 l-1.5900515019893646,-1.048843115568161 -2.1957215666770935,-2.2457462549209595 " fill="none" stroke="black" stroke-width="1" /></svg>