<?xml version="1.0" encoding="utf-8" ?>
<svg baseProfile="full" height="98.33578861772708" version="1.1" width="117.18685650117082" xmlns="http://www.w3.org/2000/svg" xmlns:ev="http://www.w3.org/2001/xml-events" xmlns:xlink="http://www.w3.org/1999/xlink"><defs /><rect fill="white" height="98.33578861772708" width="117.18685650117082" x="0" y="0" /><path d="M25,25 m0.0,0.0 m6.596159808390905,20.177312325580296 l0.38421779937703776,0.41563815298552925 0.6045394824931299,0.9399246949368848 l0.5896855955295249,1.1329382165089243 2.7246013347093117,11.723114651206105 m-2.501359858524628,-13.555777851106555 l16.904237895011835,-2.044941075528812 2.0731702291483307,-0.11414811230718312 l1.3017986637622732,0.4230979320902437 0.3108163412052147,0.44846398390735037 l-0.04183018254439769,1.2270939439757662 -2.554847922150986,9.064254293798866 m-14.521369621691269,2.0320395199629613 l16.20962042508242,-1.4645197026777081 m-10.1566056543096,-20.405550579178126 l0.6238877401980889,0.7121991168976651 0.3401155669639468,1.317991888349377 l0.011742796920430018,31.376124769563294 m-11.669146427100973,4.432984031070091 l1.2898663865813154,0.49754841769210106 1.3230161934721612,-0.1818601963025038 l17.802062920819047,-7.521939862565525 m-2.3449519026280163,-4.401605728122206 l1.7146995000862788,1.641622724884389 2.024167925455995,2.4848849629900536 l1.4678009931826446,2.3717277299823656 0.7394573111831556,1.8786212556794468 m13.613691788303917,-34.88123158031644 l0.009282467700634442,1.0274459578578063 -0.557907690276368,1.5797139652015335 l-3.320084360437696,5.964973874016574 -3.7597797150876926,4.895682500542112 l-4.399014426112165,4.421890745380949 m14.43497677874464,-7.495356562397271 l3.278725789145336,0.15358447130753886 13.223897699837847,-1.802928047338818 l3.4175148287291823,0.11770487080272114 m-25.42257637274239,10.04398500447203 l1.0183335321828952,0.7361423464750692 0.3793388235205866,0.7661384434772369 l0.08820835345175704,11.725428387217633 m0.7190702037567582,-12.641467621976373 l16.396603459348157,-1.837094153012342 1.6655879239043327,0.07393571644570937 l0.6097774194763977,0.2064790924553832 0.6552359678336486,0.8910907742530957 l-0.02502545781114532,0.715884812059335 -2.6340968106564198,9.718154566962681 m-15.697396407541323,1.4869462629348953 l17.45279434321718,-0.939035295150095 " fill="none" stroke="black" stroke-width="1" /></svg>