<?xml version="1.0" encoding="utf-8" ?>
<svg baseProfile="full" height="102.84861473415918" version="1.1" width="102.48050615072461" xmlns="http://www.w3.org/2000/svg" xmlns:ev="http://www.w3.org/2001/xml-events" xmlns:xlink="http://www.w3.org/1999/xlink"><defs /><rect fill="white" height="102.84861473415918" width="102.48050615072461" x="0" y="0" /><path d="M25,25.284301347976275 m0.0,0.0 m7.3666948708414886,3.3275431263836865 l0.2757254261679539,0.3495781365442738 0.5735256910716741,2.2567653405752766 l-0.04054483918528191,45.1214384278264 m0.19488826149240987,-48.49236853426478 l12.077748642297223,-1.5022728095989353 1.4023176701526385,0.2443005803620639 l0.4116949431318126,0.3362758469923674 0.1733946889560565,0.7210472360725929 l-0.9507168957982098,12.735101806123971 m-12.812294781987138,-6.315619359138307 l8.147720772161232,-1.0004704886234026 m-8.395868342522585,7.627871333457579 l12.587483245027862,-1.4690860101601355 m13.833982963869197,-13.227033964623784 l0.5275822740341372,1.4894527018127275 0.05816321049965865,12.69517508360405 m0.3710011673672531,-13.44263940858435 l13.077614764470237,-1.7393603927375734 1.3039009814692988,0.3693596516698507 l0.45619533452839733,0.7000320596442824 -0.4163314784299494,47.582432409832265 l-0.36593905428697954,1.216524833240315 -0.5340677642027478,0.47997897402554285 l-0.6554375475661017,-0.04401535547915865 -1.4776637429924595,-1.0348771535753956 l-1.5911591699525354,-1.6885750539223245 m-9.426360536087564,-40.479830216434024 l8.810590060344193,-0.7500771090866348 m-9.112316444140117,7.007125861428915 l14.056663051607039,-1.0111827956500223 m-30.380947295777815,8.238521666690865 l0.26965474493625785,0.737248494000853 -0.38005750831947244,3.599422761954998 l-0.9424278035026201,4.740730404003864 m1.87869396166506,-7.459029687818872 l11.97552313222877,-1.1304929165308528 10.621583875941521,-0.7371914757128948 l0.47965165909536295,0.27699041345631653 0.1821631653038167,0.9950518997494087 l-0.3824993868226584,0.8045356925346799 -1.6780274580154768,2.4858272373633707 m-19.87986984036631,5.975636928801516 l2.3462780782643144,0.16483981920797758 13.308390462638199,-1.4416477807056982 l3.7223795527958607,-0.15350195320888327 m-21.49500507743753,9.946013425979102 l2.2366814527062515,0.09482343036026793 18.01867799401384,-1.4485541779044946 l4.336945503534467,-0.10238914671235999 2.0761261084824056,0.21022742968245653 m-14.35209523992974,-22.394131835160724 l0.6135529159650653,1.2400515711007214 0.10964274167967071,1.1209389388605056 l-0.05807804658718689,17.109829937004026 -0.45280238652633514,4.081009791980648 l-1.1005717130143544,3.6182766330695806 -1.5330125710072555,2.8807719778554377 l-2.0036659388499984,2.2974203259678374 -2.802522767281174,2.264667390024456 l-3.594513231356856,2.4858214325714787 m11.582933530286809,-15.352840941910868 l10.539187945959913,4.574756052689445 5.2537632401128285,2.6960679523922058 l2.2465044045549956,0.7324640929684186 1.790080523015898,0.348940118028451 " fill="none" stroke="black" stroke-width="1" /></svg>