<?xml version="1.0" encoding="utf-8" ?>
<svg baseProfile="full" height="93.60165894995956" version="1.1" width="118.43241104471142" xmlns="http://www.w3.org/2000/svg" xmlns:ev="http://www.w3.org/2001/xml-events" xmlns:xlink="http://www.w3.org/1999/xlink"><defs /><rect fill="white" height="93.60165894995956" width="118.43241104471142" x="0" y="0" /><path d="M25,25 m0.0,0.0 m28.830775894924553,5.660328612557677 l0.02549970438546834,0.39135411358980327 -0.487637090673613,1.727845813948396 l-1.6677940609534692,2.791850852776665 -2.2893718430352306,3.0762167375289406 l-3.1419969333815145,3.4528150661411385 -3.238652291528375,2.972508436188428 l-3.751068455760405,2.983013311177374 -4.410186297085358,2.9161718425965737 l-3.7283038412731178,2.041639192175858 m24.239216931125853,-19.963319610978964 l21.162681090560866,5.926431188454445 8.854524395679833,4.779323395725747 l4.534504587242905,2.6308720004773365 3.500219254483008,1.4380472792357473 m-45.026722487799304,-2.3537364537294696 l3.697900358306574,0.13457053303549615 16.344956784597716,-1.1618337818268816 l3.945503129098699,-0.15950315548718058 m-29.70325329138803,8.551165799052525 l1.060575631275454,0.16871559051013438 1.2504709601894477,0.0794081006654136 l13.316402660406009,-0.7208648279584595 15.894007575911955,-0.5753329985642387 l3.058783500496689,-0.06150131314303783 m-19.622839297152172,-4.925928308702649 l0.6740438784205783,0.6769127596165709 0.35995071365174647,1.2418054415048703 l-0.0943228015719607,17.849271670945555 -0.3593459306763848,1.424632220333894 l-0.6301575504344257,0.6087794421118468 -0.8053348440302464,-0.031150618568201838 l-1.892149375914394,-0.9167661231825316 -2.1728167851756277,-1.5845062395777811 m-7.202253923258253,-8.083199690169884 l-0.2944315973236092,1.151229529729048 -2.9441091553033663,2.277744400846461 l-3.7832510807199164,2.248847928167742 -5.183513058591212,2.7153745431447085 m36.571499497333946,-8.769099826331452 l3.2843974839604173,1.2787813592936843 3.558234965562699,1.9320327998995057 l2.946778029739301,2.1205153952106657 1.8015605100762933,1.7443575105320892 " fill="none" stroke="black" stroke-width="1" /></svg>