<?xml version="1.0" encoding="utf-8" ?>
<svg baseProfile="full" height="95.83855229323507" version="1.1" width="98.19199150989982" xmlns="http://www.w3.org/2000/svg" xmlns:ev="http://www.w3.org/2001/xml-events" xmlns:xlink="http://www.w3.org/1999/xlink"><defs /><rect fill="white" height="95.83855229323507" width="98.19199150989982" x="0" y="0" /><path d="M25,25 m0.0,0.0 m32.485762663872094,3.1429650810880947 l0.30749094056107373,0.39901918889582394 0.44743414395818976,1.4276693402543783 l0.09706330594948086,10.05308166822081 m0.5378169923474718,-6.519022878250835 l6.838394539360043,-1.0948214469879984 2.515291633424518,-0.15383841565862555 m-20.486234475587775,-0.20142346119264262 l0.6625527502542679,0.8078740014038519 0.25721438535061736,1.0221579103635254 l0.07136740059059864,7.7116075197111 m-7.5925359051401085,0.7956463378343465 l1.236927360724281,0.2899372012299255 1.3846838167371762,-0.028756505747721303 l24.639745754914923,-3.004202171253115 2.2616450535480257,-0.1040060003879652 l2.5273711490349418,0.34322383639576376 m-23.4116995245714,7.03941396308248 l0.5120866792332194,0.9530592028558488 0.11972018742289575,1.560081624563941 l-0.02041012657759127,21.027315586134982 m0.4615447611813554,-23.131544871471384 l12.304226612111808,-1.9809047486090652 1.0186304974677636,0.16785000018776614 l0.596867999347205,0.6527167589697549 0.2437408723159719,1.5615258477048901 l-0.14278200792101794,21.77219005081 -0.3317486656010654,0.9783028650911996 l-0.425901972976584,0.3514348079959431 -0.497884114931366,-0.10127708634824391 l-1.934594385789709,-1.828920929953391 m-10.906581817733182,-15.549520287965034 l13.74185143376233,-1.41425580152759 m-13.719225962705519,8.051026981988645 l13.811207109055932,-1.3958330690790017 " fill="none" stroke="black" stroke-width="1" /></svg>