<?xml version="1.0" encoding="utf-8" ?>
<svg baseProfile="full" height="104.15517213567958" version="1.1" width="106.90490437121312" xmlns="http://www.w3.org/2000/svg" xmlns:ev="http://www.w3.org/2001/xml-events" xmlns:xlink="http://www.w3.org/1999/xlink"><defs /><rect fill="white" height="104.15517213567958" width="106.90490437121312" x="0" y="0" /><path d="M25,25 m0.0,0.0 m27.777696419901677,2.939992601821715 l0.017581077183169064,0.4521206698598721 -0.4967331696482408,1.6812758926152922 l-2.3252375297254715,3.6132329611300156 -2.8339535646890166,3.8600617187501456 l-3.5748431386671324,4.235987668200447 -3.3872924857277535,3.513000886270856 l-3.8682676907795015,3.5019770126611087 -4.431486678164018,3.5570727055244014 l-3.6890930336889314,2.5652081133368587 m25.05647996453959,-25.49020887445645 l8.679785638803388,8.749056858851313 12.661164528910373,10.476746676934907 l3.6620969530645535,1.9838068271647442 3.657007079900428,1.2001429998462108 m-28.308012770374003,-3.7638097030475883 l0.5674969006894318,0.9878566165104948 0.3178871761094383,1.781150155553698 l-0.0227550870928216,26.846165036668904 m0.8174731534624397,-16.345871059446313 l10.475745770751676,-1.280734831510464 4.0797878775196645,-0.17199895385176875 m-30.404835416449494,1.3034724412120113 l0.6498944712228795,1.8880793626643877 0.09273207374138046,15.097462179711227 m-8.278530890935722,0.5845921800971032 l3.809201056632546,0.38933399260645496 35.422900768567935,-2.027697780474228 l3.6655389834580596,0.02122528083839884 3.060566967122685,0.37336812809532144 " fill="none" stroke="black" stroke-width="1" /></svg>