<?xml version="1.0" encoding="utf-8" ?>
<svg baseProfile="full" height="92.79321148912089" version="1.1" width="93.75623529333159" xmlns="http://www.w3.org/2000/svg" xmlns:ev="http://www.w3.org/2001/xml-events" xmlns:xlink="http://www.w3.org/1999/xlink"><defs /><rect fill="white" height="92.79321148912089" width="93.75623529333159" x="0" y="0" /><path d="M25,25 m0.0,0.0 m13.056770129809939,11.234284645172185 l0.43466316425423374,0.0839803988425427 2.5918664297909966,0.08654099137093865 l21.80927513251077,-1.7765817212418848 3.1058515929059127,0.15489443027141847 m-14.940294135783839,1.9168210390561506 l0.06806168601043563,0.6258638963054438 -0.2586524413143397,0.8979844185172711 l-2.0898967068364773,3.2287790689452667 m-5.75626340750749,0.8826250108503161 l0.4832067122546671,1.4899257181769492 0.09011214060991243,13.446782350300008 m0.2297417073495806,-14.084247637450622 l14.437267308373078,-1.8097392352846344 1.1451008685068462,0.026903483847293887 l0.7233371705997103,0.3300453586465827 0.4466803791757507,0.8733611281986571 l0.04931307018098063,0.6638868724814049 m-16.057690508335135,4.343678459255694 l15.098296864494522,-1.5485245952202933 1.3961516665312985,0.057909956915604764 m-17.48970350168583,6.26621768962767 l16.53864311348502,-1.7053317577114995 1.4406027649452546,0.04612272626250338 m-24.971748508032267,10.207519224845228 l1.5273464994277424,0.2169552963101335 2.056779896836111,-0.04864802770807747 l21.09076340794436,-2.2990404929281936 5.31833917583006,-0.36487249421927137 l2.1823136209997718,0.22583141992464112 m-17.707661755266376,-4.301981951480014 l1.0580430083537626,1.544543110078705 1.1703210312950973,1.8777404502033352 l0.9940830853432884,2.0557859423575775 0.6078454270861957,2.5347347914779443 m9.542136628281197,5.412461524123919 " fill="none" stroke="black" stroke-width="1" /></svg>