<?xml version="1.0" encoding="utf-8" ?>
<svg baseProfile="full" height="120.94767953402626" version="1.1" width="119.16623748493862" xmlns="http://www.w3.org/2000/svg" xmlns:ev="http://www.w3.org/2001/xml-events" xmlns:xlink="http://www.w3.org/1999/xlink"><defs /><rect fill="white" height="120.94767953402626" width="119.16623748493862" x="0" y="0" /><path d="M25,25 m0.0,0.0 m28.199851882445063,13.45836474016606 l0.3829896034416744,0.05022443517960678 2.371421927909366,0.0402474994889656 l14.274627279388305,-1.608869698718352 2.810813283501602,0.09065744138361205 m-10.057369004504917,-7.086591886242293 l0.573883014283759,0.7649789503118882 0.22358922525847774,1.2037060209697716 l-0.030001790588063484,13.44814630836218 m-19.55475074682664,1.8922065870347589 l2.081907768314953,0.2870095865068847 2.1155506636338712,-0.020761851288751357 l29.885016737074295,-2.9452874809081973 5.618687002152228,-0.05428801391579652 l2.7317014644728745,0.38735512377479037 m-6.839264377427339,-12.791094706910405 l-0.19330873237391016,1.775390157637993 -1.3848240015913755,1.8827343990561267 l-6.367030170093312,6.9677719296305645 -5.929158095328734,5.667664132254027 l-4.407861909900446,3.5793254861606982 -4.698019155079262,3.3274312091964364 l-5.2738508051118504,3.3118577340160926 -6.056229840418179,3.4081863917595254 m13.249485105058337,-11.871883729277785 l2.6088101405408586,0.8641056555115914 3.054366255479564,1.3017924237572494 l6.331530142681948,7.815891909479379 3.081175419319687,4.721501462608695 l2.3133227493665434,3.873691173414334 1.0294978501234078,1.9385286950160754 l0.8143923437835672,1.7133811705563298 0.7682593405796957,1.8987686281086582 l0.7664417705131447,2.2090502424326908 0.7476827158075348,2.520924821461097 l0.7165583972529599,2.7970861021142883 0.6950647390263256,2.936535721820083 l2.0256902018048484,2.941052846999946 1.583346419742987,2.125069351039525 l1.689617335868579,2.082531712909612 1.7028330441342048,1.8417895635620773 l1.7839026144470378,1.5188219797072158 1.8736280795168638,0.6826753078990391 l0.8463560438944541,-0.1418388925346832 0.7642025349069843,-0.8851455213325238 l0.2417030184566477,-1.667784820187222 -0.10534220750090474,-2.686631270813755 m-13.641531578900464,-16.494946835099018 l-0.16718800317012492,1.5707449177828394 -1.1898225382865768,2.162055881407946 l-1.9366709883931048,2.6884814205251892 -2.6080032773370054,2.894844322557435 l-2.559833182162064,2.2940510793378155 -3.044286974837159,2.163721900881157 l-3.49700871927658,2.0418258625963106 -3.029264376308803,1.4131097429892474 m12.602913960064516,-25.95617148569563 l2.912367236792724,1.9460834426785596 1.6950766775980548,1.7603568180083058 " fill="none" stroke="black" stroke-width="1" /></svg>