<?xml version="1.0" encoding="utf-8" ?>
<svg baseProfile="full" height="90.31491916945535" version="1.1" width="126.77469471261007" xmlns="http://www.w3.org/2000/svg" xmlns:ev="http://www.w3.org/2001/xml-events" xmlns:xlink="http://www.w3.org/1999/xlink"><defs /><rect fill="white" height="90.31491916945535" width="126.77469471261007" x="0" y="0" /><path d="M25,25 m0.0,0.0 m28.56744622219053,4.763161756086514 l0.10596748928641538,0.39705197123647346 -0.4486096801069217,1.6718081935344533 l-1.9269244373970917,2.9338294549803066 -2.8085449846500543,3.140334458766712 l-3.6974571106858938,3.495673792829196 -3.7945522609411464,2.9908619002807724 l-8.443624368454415,3.0296141750568566 -4.770090362870195,1.0881849532199372 m29.115558032771673,-15.347196250066704 l25.645849619715317,4.992539361032059 12.158704214012623,1.018852504168611 l7.070972339739237,0.3432497122820653 m-53.20459688760466,2.815103852862056 l2.89041983064131,0.15730369886070963 23.40577923183002,-0.991972635286354 l4.276129287506604,-0.06683149977937698 2.3981324987286,0.13693871841736388 m-42.49597301955622,8.435587811885656 l4.721187142602105,0.21082938067993345 34.33272981425156,-1.1188384775164 l12.775460248594012,-0.20953609078268545 m-26.766550860030407,-5.824854481161794 l0.7022389045002178,1.2071426141274395 0.11690861982491849,19.220457708783613 m-19.34168963135474,-8.623518388081171 l0.7729972578994337,2.5614109092762285 -0.40433645219667175,7.8877300637628815 m19.412742180554677,-9.281301887836884 l2.090156798040986,1.1019862647746197 2.0660560878587435,1.6600630389738709 l1.8683798548481814,2.0784848168445933 1.1570617268412702,1.8582912661577073 m14.331297153952539,-8.750826717218063 l2.5145136372090735,1.1798868342893556 2.9415418792007255,1.9777426393777813 l2.437400457934439,2.1429277374062368 1.178667817559613,1.6687349326986152 " fill="none" stroke="black" stroke-width="1" /></svg>