<?xml version="1.0" encoding="utf-8" ?>
<svg baseProfile="full" height="106.25731374090202" version="1.1" width="90.71336188840476" xmlns="http://www.w3.org/2000/svg" xmlns:ev="http://www.w3.org/2001/xml-events" xmlns:xlink="http://www.w3.org/1999/xlink"><defs /><rect fill="white" height="106.25731374090202" width="90.71336188840476" x="0" y="0" /><path d="M25,25 m0.0,0.0 m14.96335063823791,18.951106436063476 l0.3678522998765678,0.36931204457205563 0.5739131270009254,0.8150532930199467 l0.44398023519372815,0.9840997693700172 2.4364233454147564,12.726715288257628 m-2.3562760414774973,-14.34358148435036 l19.585086813573795,-2.0983029562404147 2.297726376672,-0.7148635141578041 l1.5661624740357778,0.15807994061777708 0.3703470303974944,0.7410569088859414 l-0.07976877627779888,1.3059458546344096 -2.8389865963008063,9.164107022295106 m-18.974100001150063,2.4134741898947585 l19.870409630594157,-1.7268710788839594 m-22.25474001168339,7.930654870648269 l0.4887947057971455,0.7559703766995842 0.16092609291372087,0.9420268982615813 l1.3075892266036129,17.883329881314 m-1.245647034091855,-19.08582455198127 l20.907952729206,-1.813609074175139 1.3082500786990117,-0.02554521345257141 l0.9837547215699555,0.20842906868174227 0.6703209719088401,0.7227846941111182 l0.16003985169076643,1.0996067692309626 -2.5512058256076484,17.645981785468773 m-21.20374323009773,-9.708718941463747 l22.639407250693917,-1.7621585807669693 m-21.95953209900584,10.63566421548357 l20.572603148884447,-1.2433041513057626 " fill="none" stroke="black" stroke-width="1" /></svg>