<?xml version="1.0" encoding="utf-8" ?>
<svg baseProfile="full" height="116.39900691540429" version="1.1" width="97.63322379733606" xmlns="http://www.w3.org/2000/svg" xmlns:ev="http://www.w3.org/2001/xml-events" xmlns:xlink="http://www.w3.org/1999/xlink"><defs /><rect fill="white" height="116.39900691540429" width="97.63322379733606" x="0" y="0" /><path d="M25,25 m0.0,0.0 m25.660715823714977,12.395933815261266 l0.3752519399646995,0.179832071381707 1.5495584847626336,1.8491906776105473 l0.8362416296657671,2.244230719040412 m-16.01301238220693,3.57056085113562 l-0.6007504600300538,3.786454214837107 -1.3323211971812228,4.968766828195423 m2.303607577397942,-7.301389438125194 l27.374284767193895,-2.7389357115289004 5.454314957421427,-0.2600720202970191 l0.8673257993644508,0.3475603695267902 0.2675172317750254,0.5258872726267191 l-0.16489491961693573,0.6405190741813638 -1.0996611058198262,1.4888633148541202 l-1.9111687145898952,1.6949552685881888 m-22.446230998594004,0.32338356785306166 l0.012947085862328065,2.1798965230669562 -0.5575451631700399,5.031739783564118 l-2.119165728159247,9.073908279185412 -1.3727979760514477,3.602613828041621 l-1.6814270570359404,3.3927874568535135 -2.1329605971209626,3.3063648969944084 l-1.9917439082286807,2.240220599703023 m5.154209912841051,-23.190588311177994 l1.695384431958923,0.23837000858136384 1.9238543837463469,-0.045114593490828366 l13.956569707090553,-2.558153840426312 0.992722208795862,0.18416532160075375 l0.28431738764408826,0.4352963957453464 -0.07396142469336271,0.6608651856843181 l-1.8472479981086323,7.5904740306948435 -0.06817770042516523,4.684388295835582 l0.7525218430970169,1.1217725371772014 0.9988276401957382,0.5109660243593513 l1.7895107135560406,0.32180267928946443 3.2438997181259657,0.05423623613277297 l2.7109331898894418,-0.287471300531517 1.5064138625385526,-0.46919469227041916 l0.7651644704783198,-0.5850648532926983 0.4804193173813382,-0.8300401914438379 l0.22846127350926582,-1.400263521792426 m-31.223757774338438,13.11591876313263 l1.3444419839662671,0.30179317713272613 1.9342849486580278,-0.034668548793360475 l20.431509628689362,-2.684219245601851 7.295301530328729,-0.3226833203592256 l2.079535453092817,0.32374931745580077 m-17.26182583210277,-7.948554025478087 l0.6752549027876505,1.500256496846341 0.11291797283972883,1.1164452173788515 l-0.13015815314721815,22.05125143046525 " fill="none" stroke="black" stroke-width="1" /></svg>