<?xml version="1.0" encoding="utf-8" ?>
<svg baseProfile="full" height="98.22770639639882" version="1.1" width="98.53515791412171" xmlns="http://www.w3.org/2000/svg" xmlns:ev="http://www.w3.org/2001/xml-events" xmlns:xlink="http://www.w3.org/1999/xlink"><defs /><rect fill="white" height="98.22770639639882" width="98.53515791412171" x="0" y="0" /><path d="M25,25 m0.0,0.0 m14.358404770913275,7.130131777125402 l0.4797211627196095,0.16300251274269678 2.7384592144917965,0.0995574142810619 l22.318791359401427,-2.3245902489378794 3.0279343260935954,-0.10695180028215188 l2.2712098673265637,0.3201748991176344 m-17.169677532291942,13.036875727994062 l2.354535394514549,-1.2573819950890388 8.57653441790237,-1.8209789128405536 l2.448734142760222,-0.01604538453602159 m-13.43724343831,-8.854466777910165 l0.49782800699996427,1.086977210808312 0.16659182027719016,1.3044795460267489 l-0.02156508416168862,17.80885689743793 m-11.901846669474038,-14.033354098423402 l0.5998515303734362,1.1318024555717658 0.23607941240513305,1.4308001497815643 l0.07001919577582617,11.527831407826183 m-7.8681711687589795,0.43881441096667295 l1.9227744489474508,0.5951824729068327 1.7964533295102783,0.005448586912130482 l31.64080669304629,-2.697447944721829 2.245887402999329,0.04932326320594852 m-17.021905227160886,3.399684036137454 l0.4747331013745278,1.1433525986625719 0.11182203711920959,1.2681105616648691 l-0.11557403286876329,16.29205225601074 -0.34043714373215417,0.8529789891978021 l-0.4583731751170474,0.25348638476148877 -1.1319372865411546,-1.1912340893675701 l-1.340378867223896,-1.9958187224332615 m-6.491560311496407,-11.523710262500133 l-0.3003169666052014,1.7557054678889716 -2.2203270622140105,3.309031163891212 l-3.2329714124997686,3.454536548941421 -3.786504310515465,3.1629020652302398 m29.90224951022711,-13.36532035373827 l2.119071612496102,2.0105913746862316 2.225825329088061,2.8065223290394625 l1.731802568622949,2.843121987973444 1.057826947706856,2.4915345824230344 " fill="none" stroke="black" stroke-width="1" /></svg>