<?xml version="1.0" encoding="utf-8" ?>
<svg baseProfile="full" height="134.62792252196743" version="1.1" width="90.94423932334527" xmlns="http://www.w3.org/2000/svg" xmlns:ev="http://www.w3.org/2001/xml-events" xmlns:xlink="http://www.w3.org/1999/xlink"><defs /><rect fill="white" height="134.62792252196743" width="90.94423932334527" x="0" y="0" /><path d="M25,25 m0.0,0.0 m15.437792093138773,17.662484579257992 l0.3543849667880312,0.41598209134833486 0.5700296292651839,0.907049218211125 l0.39999473854199413,1.0418730470755917 2.445043392041761,12.038931590450172 m-2.4031665035474434,-13.994575764839222 l19.287291575379566,-2.162752963972773 2.2492689233713903,-0.5495045751795404 l1.5029284965114857,0.14215998914095976 0.3987353359550451,0.7074186677457802 l-0.07179350090764883,1.4816419232343494 -2.6662910395243986,9.592079892896606 m-18.662735078079038,2.4432016794721725 l19.953646804415357,-1.7733355640667696 m-11.460412919711095,5.706243616217682 l0.044185119475328626,0.8611294262682991 -0.4466545486914972,0.9259053787537747 l-3.759074609110106,4.100813106847695 -4.888760598861405,4.120979656979979 l-5.42202247164998,3.7629930481235054 m23.7164592256977,-7.011656901743267 l0.06459342400169994,1.4202343294845645 -0.632436027508237,1.370863348454933 l-2.186159213354387,3.245075448157107 -2.719327382742386,3.317654206345746 l-3.3566899098054335,6.334021439243462 -4.890697397961484,8.191165117270275 l-5.260416081132219,6.645097494137474 -2.8869129781913614,2.865826578839542 m10.25978286661565,-13.879047083400874 l0.6214319423318089,1.2365687242400776 0.13703289413934372,1.2555480978780402 l1.8181351222816584,22.205853679094613 m13.273398365188724,-23.617391080740994 l0.12365466898287138,0.9511305244951693 -1.1441223196643346,2.0328061852747235 l-2.3130813433656177,4.48568044359148 -2.5200932243823906,4.068455323828095 m-6.3827736906077535,-4.681073680274823 l1.0358785936538384,1.1461023806250052 2.042613955503595,2.5218231605845736 l1.7605100625316228,2.5962278474809413 0.9462886295803306,2.199668969957019 " fill="none" stroke="black" stroke-width="1" /></svg>