<?xml version="1.0" encoding="utf-8" ?>
<svg baseProfile="full" height="102.56720814558186" version="1.1" width="100.4823836833612" xmlns="http://www.w3.org/2000/svg" xmlns:ev="http://www.w3.org/2001/xml-events" xmlns:xlink="http://www.w3.org/1999/xlink"><defs /><rect fill="white" height="102.56720814558186" width="100.4823836833612" x="0" y="0" /><path d="M25,25 m0.0,0.0 m9.539489883679938,18.98627809667215 l0.30635975665003035,0.44533285523467564 0.8911733121199501,6.507625072147487 l1.139483326080318,11.80360676307051 m-1.6093178328691544,-17.921156177733042 l9.758709404383058,-2.04772993395016 0.5332607350723386,0.07909173169979344 l0.3919736041661169,0.40621510022639334 0.23643877939474217,1.2363702143197708 l-1.9806590927287764,13.845426574805883 m-7.69542128064068,1.5331557994603187 l8.872071603290431,-1.3119689950118012 m14.631988277811836,-30.411611119979284 l0.7918856435557955,1.9104368281383917 0.13214692417358107,6.882422740609361 m-10.914198205521288,1.3424227160590334 l1.855652535645026,0.21832791393842518 18.97172110825541,-2.7397619716736474 l1.6877455031066206,-0.13023844594211065 1.2182144964670918,0.3189453347493844 m-17.536229153003934,5.459074304519823 l-0.12891780523924934,1.699113242027457 -1.5309260131114257,3.760392063094352 l-1.8573115432667435,3.3099206877566414 -2.043833146879953,2.830308433974864 m15.532682789814078,-12.420376587045713 l4.117500897034043,4.003094752747205 1.9148202513317254,3.7016129265813404 l1.0127774217749592,2.614343782286735 m-6.818674663969668,-2.169739924317087 l0.1496010153548171,1.120917588733635 -0.11859655050344546,1.126680951016205 l-1.109395450133809,3.2814143507102367 -2.1995180399683125,5.169281766921535 l-2.4348295899125327,4.515522587028946 -2.902703940861978,4.389963808929038 l-2.627592609816263,3.307395368891344 -2.826506500548689,3.089231074874549 l-2.9667903181290027,2.8258658700092223 m5.391558782904382,-24.472325585179508 l1.0274969554471027,0.6943459486839795 1.9676271552281162,2.1630385703009747 l9.385625701409591,12.917455532024722 4.058141522710535,5.360226729064923 l2.2136618988941845,2.4205863546459523 2.053996134710286,0.7134877487917143 " fill="none" stroke="black" stroke-width="1" /></svg>