<?xml version="1.0" encoding="utf-8" ?>
<svg baseProfile="full" height="100.01495861801922" version="1.1" width="106.27898512248652" xmlns="http://www.w3.org/2000/svg" xmlns:ev="http://www.w3.org/2001/xml-events" xmlns:xlink="http://www.w3.org/1999/xlink"><defs /><rect fill="white" height="100.01495861801922" width="106.27898512248652" x="0" y="0" /><path d="M25,25 m0.0,0.0 m24.97930960468054,3.620507482096401 l0.04506903317653439,0.5149756612223423 -0.45898644581402404,1.8611586247165008 l-2.8864566806436778,4.851935052522684 -3.4644484262338024,4.260512543785502 l-4.107138237335582,4.086751782059861 m-11.334022551871108,0.3410399807311035 l0.9899097475955263,1.2001695325469752 0.36979380060458283,1.2589749783612587 l1.2228223843151391,27.59570551506969 m-0.6935634962836418,-28.726954472272165 l47.326659812350314,-3.9691868835881317 2.086821498105551,0.24622490663118213 l1.4177506170902072,0.6693458549816413 0.7854644627499503,1.6107730710025674 l-0.3720212379201663,5.961118920728175 -1.772352520228997,7.9035826620005345 l-2.8323592171578906,8.785364174600117 -1.6984791739612506,3.9559063289052703 l-0.7074570275289092,1.9719279987391587 -0.6324064597288279,1.2082978811679927 l-0.5834114747096113,0.6267473843711165 -0.534328102840535,0.1800796376394347 l-1.0723199294585934,-0.6105574685683316 -1.9157976549786486,-2.535839860683744 m-28.0693099706306,-17.95629547052174 l0.9736954244169913,1.4322703847504688 1.8542126003666193,10.614399699204991 m-1.1131372463000968,-10.9242778024769 l18.19255529520016,-2.10269878074981 1.5987875626754624,0.17783795036270875 l0.47066931576616877,0.3893664366907501 0.159604156332644,1.1446358502997556 l-2.4032437892966145,8.203629697785775 m-15.905617000629405,1.9404298548276273 l17.914051124770765,-1.3454000336750178 " fill="none" stroke="black" stroke-width="1" /></svg>