<?xml version="1.0" encoding="utf-8" ?>
<svg baseProfile="full" height="102.71064224909011" version="1.1" width="99.49170634669564" xmlns="http://www.w3.org/2000/svg" xmlns:ev="http://www.w3.org/2001/xml-events" xmlns:xlink="http://www.w3.org/1999/xlink"><defs /><rect fill="white" height="102.71064224909011" width="99.49170634669564" x="0" y="0" /><path d="M25,25 m0.0,0.0 m8.410648385535154,19.551571299893293 l0.26247092914485337,0.40234257401146406 0.9616521810409756,4.899627675353877 l1.1724398143782706,10.528729306360036 m-1.500506871018394,-15.671982838818474 l9.400858578020205,-1.9062722371243914 0.5134759965254535,0.07040578151897149 l0.36378524365740134,0.35194748537307474 0.2303150904225882,1.113198737281349 l-1.7953967374935211,12.589068050759526 m-7.3671283920959425,1.3395340680508476 l8.61154106483677,-1.2137228556344999 m13.354864351694129,-24.413348528252374 l1.1976765883944303,0.8933083006474314 1.1706334745500597,1.339252959943134 l0.9826728193553114,1.6684640013234049 0.5054645022453562,1.4932724276388556 m-12.646753735588291,4.405878916632964 l2.1914648389476756,0.23939366179743912 18.416395122730638,-2.504933706029492 l1.7335403485935015,-0.09243100270765582 1.2455537313292209,0.3174608885366195 m-17.32538951442831,6.42294345550319 l-0.09074375649678448,1.5220981906482323 -1.334036008169285,2.965209050891065 l-1.8487301141430246,2.8335348254424035 -2.4511390444979995,2.82937997331411 m15.740709098926304,-11.206850222598007 l2.4443801378735,2.367625547936861 2.0934469484388307,2.3910779458450935 l1.758509413438512,2.509919142485563 1.454813743229874,2.5781493981647094 m-6.931898946492648,-2.4904022235872256 l0.18084593545352598,0.8219756015577964 -0.09701543345868702,1.0824994029110524 l-1.033273087413965,2.3502879451447747 -2.9138350451797237,5.0461548684687845 l-2.8921491136588533,3.987201302840646 -3.3116251048853766,3.768829928157732 l-2.8863124953272576,2.7464075037325095 -3.083786544468089,2.5038206783821884 l-3.2151038546768067,2.2800149672932255 m7.132901339880673,-21.194730652921134 l0.707246373508201,0.4412794065875978 1.6519319022604773,1.6804484270451252 l10.049124549055751,11.661041148904129 4.220138631170959,4.473270366015419 l2.079063327241195,1.7653717930823023 1.9779656843087994,0.4353324754833025 " fill="none" stroke="black" stroke-width="1" /></svg>