<?xml version="1.0" encoding="utf-8" ?>
<svg baseProfile="full" height="92.32694549464" version="1.1" width="99.0349366783478" xmlns="http://www.w3.org/2000/svg" xmlns:ev="http://www.w3.org/2001/xml-events" xmlns:xlink="http://www.w3.org/1999/xlink"><defs /><rect fill="white" height="92.32694549464" width="99.0349366783478" x="0" y="0" /><path d="M25,25 m0.0,0.0 m15.043343821862848,12.835204877240226 l0.4601668564636977,0.11144801942394533 2.9186859176203526,0.176567187735302 l22.37201438020577,-1.967920382240278 2.2709525843400957,-0.08364494403783926 l2.1708016153165812,0.24090664299323636 m-15.991890157698032,-6.789476436898263 l0.6307192533947212,0.8593356468185422 0.2498170647745679,1.2039730994728408 l-0.0401233223409333,14.256563898046743 m-12.74652393117532,1.4926149865562914 l3.1698348530412335,0.1323200511595272 18.55353208651193,-1.6562477754477145 l3.6486000839135078,0.1986563387430841 m-31.187393418072126,11.025657753303426 l-0.4446202722538935,1.2207041555188773 -0.9156099258813223,2.0676159049473646 l-1.3683780398609384,2.1939687204862595 -1.4063474307183723,1.5376947507371863 m11.068671577144386,-8.28934643914314 l2.4604228876495737,3.4946186521166314 2.5268268596398515,3.1445948638596115 l3.0472575907180155,2.4584532005267747 3.1085405109138953,1.4530938696719098 l2.526207206080842,0.6268336592848817 3.0145878134397366,0.3388800025881929 l3.359001499272434,0.043875191176381764 4.3869983358278,-0.31406797509252365 l1.5462949067048475,-0.5471564037253165 0.29854428719598547,-0.3706374799394142 l-0.011293353619528683,-0.45771684930877915 -0.735420751341919,-1.103334892436479 l-1.6852913292087501,-1.3414013970976972 m-14.584136254740475,-7.602620623306294 l1.0812396372684598,2.0686892068615115 1.1894933221283759,1.383807368411071 l0.7761042487452675,0.16520825260379776 0.3932696666226013,-1.0183465728610883 m10.9749221926248,-3.038914888394503 l2.157490099993519,1.2129222983758006 1.756026067936877,1.3047996277153677 l1.6109840294990732,1.638606999536925 1.380613608407787,1.8512091394614072 " fill="none" stroke="black" stroke-width="1" /></svg>