<?xml version="1.0" encoding="utf-8" ?>
<svg baseProfile="full" height="103.82745112998461" version="1.1" width="106.89673347450415" xmlns="http://www.w3.org/2000/svg" xmlns:ev="http://www.w3.org/2001/xml-events" xmlns:xlink="http://www.w3.org/1999/xlink"><defs /><rect fill="white" height="103.82745112998461" width="106.89673347450415" x="0" y="0" /><path d="M25,25 m0.0,0.0 m10.065512871135182,19.525601912582843 l0.26177390005634465,0.3773128764488676 0.39961081689383654,1.3551104524079365 l1.4629151405711087,13.004839855657217 m-1.1185834729399091,-14.245364877617535 l9.147467467231673,-1.6414647934141968 1.417997226249012,-0.022005227531026364 l0.9116559308880499,0.2162180387462008 0.5475358312257302,0.9317668686704629 l-0.06950060168771487,0.706262694382702 -1.788362353545942,10.096776018535957 m-8.98624745177306,1.5501194295012637 l10.243862618814985,-1.0604320459081502 m6.223564328412792,-12.940018926104585 l3.4836021293391326,0.18904619326737726 12.33774440026727,-1.7996536764386717 l3.1128007361529484,-0.19267492537048905 0.9163641553046354,0.17294717637361862 m-22.59512469688892,11.376130624299249 l1.9064426732061606,0.2688712388864518 2.5824076452077365,-0.08505845122508057 l19.417727311367344,-2.4624567948519216 2.2291200115969914,-0.057994087584397405 m-14.446437656532138,-20.921554946478924 l0.7403568779584846,0.635720468308987 0.5529984311016256,1.4468591143743565 l-0.1261035317425283,44.51302511754626 -0.18494269875824454,1.957817129028722 l-0.4559422773803669,0.8707772412707944 -0.6354822334893998,0.06092743222032399 l-0.7146178680430749,-0.46571991162628057 -1.6597440479212038,-1.9000267850722155 m2.03756383167296,-23.394094296576128 l-3.4045313808712616,5.248161154985388 -4.609185466451479,5.3977959347550515 l-4.59344122497948,4.183152765060717 -4.68213173064985,3.1147808576073603 m19.673631759748027,-18.602113837027176 l4.134629231245317,5.122236839979101 7.052528341679945,7.397128381647415 l4.1935093917431905,3.9222770475840534 1.9137891090882198,1.02305772252627 " fill="none" stroke="black" stroke-width="1" /></svg>