<?xml version="1.0" encoding="utf-8" ?>
<svg baseProfile="full" height="104.27490156296089" version="1.1" width="106.47637084408262" xmlns="http://www.w3.org/2000/svg" xmlns:ev="http://www.w3.org/2001/xml-events" xmlns:xlink="http://www.w3.org/1999/xlink"><defs /><rect fill="white" height="104.27490156296089" width="106.47637084408262" x="0" y="0" /><path d="M25,25 m0.0,0.0 m8.404031104058678,20.439071814442688 l0.281299493546078,0.4123134164395584 0.4271574324710538,1.418184404462915 l1.3836677736666447,13.550376933134638 m-0.9946441619283282,-15.087134370480632 l9.538531117419154,-1.7111790154905566 1.4734531795648338,-0.03695581264418349 l0.9559178174956238,0.28060092885641136 0.4743153009539775,1.0014926444520862 l-0.08344233977575825,0.779829681190128 -1.9010236484188738,10.76460677782235 m-9.355208981379906,1.6198588155543918 l10.636557137889735,-1.1043882870934203 m5.6620403012394265,-15.86599261461592 l3.422308546513834,0.22458761196933663 12.761853458784667,-1.8896951060239038 l2.951139202062032,-0.21733652763188163 1.1503726553271045,0.15060589975438474 m-22.965635170182107,12.453135562014218 l1.9824669232576733,0.3197540270475388 2.545227719420242,-0.07128424115010107 l18.44736294040602,-2.731966155540551 3.8510602055197896,-0.48004213589924966 l1.845804878631054,0.06401311099150424 m-16.25351598346736,-21.671487280619026 l0.792394315592805,0.6276510802975399 0.6202533376682082,1.5017091875896273 l-0.15376650231022096,46.639443559262666 -0.1842595887919031,2.0027422138342557 l-0.4695418291497988,0.8659902185942803 -0.6526275037429408,0.026395222439801122 l-0.7338553065373288,-0.5140426083131716 -1.6684247036496365,-2.050352612003007 m2.184431157822199,-24.761955395657566 l-3.501558385283621,5.5749995727792765 -4.784349837066715,5.781709365385288 l-4.760041128669977,4.441008606064569 -4.927392957005945,3.330171768029715 m20.522361462197626,-19.871410268629095 l4.140950280164802,5.571139528708089 6.923199716106656,7.921629492845621 l4.374741442446799,4.315625737789888 2.1127599712163123,1.109309398695927 " fill="none" stroke="black" stroke-width="1" /></svg>