<?xml version="1.0" encoding="utf-8" ?>
<svg baseProfile="full" height="98.79457284069434" version="1.1" width="102.16343254880833" xmlns="http://www.w3.org/2000/svg" xmlns:ev="http://www.w3.org/2001/xml-events" xmlns:xlink="http://www.w3.org/1999/xlink"><defs /><rect fill="white" height="98.79457284069434" width="102.16343254880833" x="0" y="0" /><path d="M25,25 m0.0,0.0 m14.94043286445138,19.648251567059607 l0.4124910336090154,0.34543090164489726 0.5353345831048191,0.8071793785687861 l0.4377503606263009,1.0216756990113591 2.4351368722838775,11.80087570948773 m-2.3158166512950276,-13.603928969906857 l20.673759771061412,-2.1130887020883904 2.4834428902080865,-0.5765416094942866 l1.510245110962793,0.18127611443087505 0.39724318513331563,0.7705822596033435 l-0.08349100937743606,1.487523803704413 -2.8950821032642393,9.052512177050678 m-19.93551464680472,2.416359817978526 l20.918955776741907,-1.7459319407100353 m-12.00592264369813,7.425032129711752 l0.08114436234966109,0.8085274341071649 -0.45931074966529295,0.8486567655092528 l-3.7377577814190777,3.587156115256987 -5.453631465833333,3.6986574822024623 l-5.907292849352155,2.934366707566085 m27.205356084529594,-11.608707904139434 l3.5739636327835904,1.7363147311567941 4.117065878778432,2.924236016656699 l3.407839452501316,3.128904191489428 1.827090590392243,2.5014228818987396 " fill="none" stroke="black" stroke-width="1" /></svg>