<?xml version="1.0" encoding="utf-8" ?>
<svg baseProfile="full" height="107.65447718698437" version="1.1" width="112.99919841482438" xmlns="http://www.w3.org/2000/svg" xmlns:ev="http://www.w3.org/2001/xml-events" xmlns:xlink="http://www.w3.org/1999/xlink"><defs /><rect fill="white" height="107.65447718698437" width="112.99919841482438" x="0" y="0" /><path d="M25,25 m0.0,0.0 m7.547264289262363,18.79705555743266 l0.2724421465450766,0.4262151527713834 0.9009859052750833,6.425425256212354 l1.1100302752323237,11.224415001314538 m-1.4063525373852237,-17.205888837234767 l9.664980638102906,-2.1109422960918875 0.5251078926783846,0.08387867895203872 l0.38963768404366717,0.39478357903041844 0.2334007011034185,1.2048591124026256 l-1.9971865066954055,13.560612277143937 m-7.708594740379505,1.6047635166992662 l8.844212475762951,-1.369785348639217 m13.976624949332612,-28.59758855891893 l0.8845115788487297,1.678651432016844 0.1605005837566587,6.824765368251595 l-0.02321444575297816,41.28885929546529 -0.12129412774033958,1.9930842401480977 l-0.27908436355788696,1.0834864790335528 -0.46092935670837154,0.34782728099455823 l-1.3310779932933052,-0.909429708152757 -1.8286288609694372,-2.5017665290158457 m-11.664055623741302,-30.65299076521022 l1.5659699407155447,1.0604960501391636 1.875886941364885,1.9980097035908795 l1.3672200820363,1.9666162891709278 0.6808975452886932,1.4103173105491584 m-7.483342918494902,13.905524241763807 l0.8401462676494243,0.3895122928335213 0.8607037690605177,-0.34410890408958755 l7.320706375425058,-8.103108767329944 m15.131942846955369,-19.925475964023274 l0.023090216791403766,1.1871552942299732 -0.3380664441080818,1.255919776477758 l-2.0184614751275705,7.095336850526055 -1.711744153044449,4.858368889777507 l-1.8073417684349509,3.9591347411638624 m11.208806025818891,-26.98824606847268 l1.2892115137805733,1.4154659607998432 1.7391509898198954,2.522234895759271 l7.124234983384999,4.196763434077628 5.350382771933626,4.5093762838258575 l2.2905243402887168,2.780164602940383 " fill="none" stroke="black" stroke-width="1" /></svg>