<?xml version="1.0" encoding="utf-8" ?>
<svg baseProfile="full" height="98.59802661805894" version="1.1" width="103.41460304153357" xmlns="http://www.w3.org/2000/svg" xmlns:ev="http://www.w3.org/2001/xml-events" xmlns:xlink="http://www.w3.org/1999/xlink"><defs /><rect fill="white" height="98.59802661805894" width="103.41460304153357" x="0" y="0" /><path d="M25,25.933377778073428 m0.0,0.0 m17.942550333483933,1.623832760914699 l0.40630759878105555,0.38664872015865553 2.735063885019844,3.2422266661884183 l1.397903876601509,3.36127322846278 m13.213350310939488,-9.547359153797979 l-0.34056962899638915,2.2413498150056608 -1.0864100608748093,3.2407498030905773 l-1.3690057801349633,2.8525526355208424 -1.5173228065075683,2.4051471883316293 m-18.277190813719752,3.524814305168922 l1.583910609269486,0.22166493937391857 21.184416456411007,-2.629100049011499 l2.796658676464051,-0.1440894220163981 1.6240300826895326,0.2578196962604847 m-26.47160804217464,10.422420366872943 l2.123191785414699,0.26986785309377104 20.39564763796266,-2.6261420422459585 l3.1401329388643378,0.19225149960810042 m-29.71371278462911,11.088134452768687 l1.5348942179692673,0.34079187820237916 1.6502324996428686,-0.05085783861422024 l28.118472788189166,-3.03685893106177 3.689648450967158,-0.16211809173183536 l1.785800914659878,0.3101959974947616 m-20.017822228847784,-15.574701102478418 l0.7214572481440397,0.9715692028108344 0.380680876341826,1.3366961040739527 l0.007591171660256625,13.204157755741436 m-24.007166935242576,3.2485458420999516 l2.319218488158438,0.11556047165861266 3.0726634039565894,-3.0549081015264026 l12.697723132093756,-3.490671382854168 1.3980609463624216,5.791629390694625 l-0.9609215055571669,4.5069427225906935 -0.9320114564029752,4.367377234826831 l-0.4492607440830893,2.740823889767179 -0.505174707273102,2.539045157313262 l-0.872905414965332,2.2663474028070794 -0.5939092575307992,0.7772368052985802 l-0.5750789563309963,0.13378116912390656 -0.5282044746898715,-0.4140989908441871 l-1.1003802703331633,-1.8226705890173014 m-1.0293650499430969,-18.224221894925517 l-0.036064439218145256,1.9444116482833829 -0.8584495402707173,2.94435782176391 l-2.8894710674202244,3.2072512905407224 -3.9072687892169804,2.974446477005143 l-6.028132176406271,3.2860194480477567 m32.2359489485663,-18.38452927482029 l2.1753369451530666,0.37184304327995144 14.719830420205932,-2.394507561630205 l1.579717024699884,0.04768873983941543 0.6004892054901587,0.38436022627494526 l0.25107909814048895,1.7371890702214072 -0.9772705515558411,5.510492808389215 l-1.3758310353206105,5.050524355231004 -1.5672630423466682,4.464575593286915 l-1.241571498364781,2.320034827129683 -1.3502555628778263,1.4423465381761107 l-1.1418914575639418,0.07593106495863196 -1.2011978782193478,-1.6518408549254333 m-2.644230544034401,-22.69751412442765 l-0.03516171633510909,1.9456853589312977 -1.0214494203708853,3.45896644714469 l-1.530859686457077,3.808905038781738 -2.1151926716670024,3.979736033259074 l-2.114867495788222,3.1623488596147786 -4.919456981990636,5.229186991436015 l-2.422602056382761,1.8635341112146453 " fill="none" stroke="black" stroke-width="1" /></svg>