<?xml version="1.0" encoding="utf-8" ?>
<svg baseProfile="full" height="83.41845708784288" version="1.1" width="109.13351941719601" xmlns="http://www.w3.org/2000/svg" xmlns:ev="http://www.w3.org/2001/xml-events" xmlns:xlink="http://www.w3.org/1999/xlink"><defs /><rect fill="white" height="83.41845708784288" width="109.13351941719601" x="0" y="0" /><path d="M25,25 m0.0,0.0 m5.592478641635393,13.61997229930716 l0.33919923370523175,0.4068830097514252 0.5078179224249005,1.3265003068618564 l1.6431582151037405,13.470858911772815 m-1.4141476109710378,-15.330299359183769 l12.013293852693085,-1.9335513801247106 1.9516670507187002,-0.08177823820730859 l0.5709996155509829,0.2272373787476508 0.3386983536401871,0.4170318134429486 l0.08112397286764837,1.3187934016970715 -2.207749403084457,11.46566832900382 m-11.193062287554616,1.9106148994074823 l12.276558432930067,-1.4430497412711047 m16.065182130844008,-22.478427045100002 l-0.1236698976675447,1.3400672238580302 -0.5202012257227567,1.3147758948816637 l-3.0681656513825595,6.157763393083558 -3.0303419472773285,4.592097735309903 l-3.7712946010917623,4.5138667462621775 m8.280770616014143,-7.356524013119226 l2.530314720946328,0.07923923270268496 14.163749630251738,-2.1708172011902813 l1.5633047272155571,-0.1466311623020498 1.1431415328837702,0.31470222152575233 l0.03737434894189658,1.7197351726658432 -1.8274720949634942,1.605697001625055 l-2.7793987142571,2.1074208759616626 m-12.504628405493522,1.4480243389167098 l0.1937726706777163,1.0026276887768655 -0.8377766657069198,1.0725954565266151 l-2.514839139290786,2.8873523224711484 -2.8965629855211117,2.842086529547337 l-6.082385316715344,4.927973960729331 -3.4533785009943494,2.245485938644734 m17.776253891607794,-14.217080663077336 l13.779096008677115,10.45882041743977 3.2522760811131866,2.2525067291265097 l3.2583622144475064,1.5302166613710957 " fill="none" stroke="black" stroke-width="1" /></svg>