<?xml version="1.0" encoding="utf-8" ?>
<svg baseProfile="full" height="101.37527310077272" version="1.1" width="97.97699417034303" xmlns="http://www.w3.org/2000/svg" xmlns:ev="http://www.w3.org/2001/xml-events" xmlns:xlink="http://www.w3.org/1999/xlink"><defs /><rect fill="white" height="101.37527310077272" width="97.97699417034303" x="0" y="0" /><path d="M25,25 m0.0,0.0 m16.646021924521886,2.182964231162957 l0.4587470081174497,0.2926057426878684 0.6665813013475378,0.8703222806186776 l2.531303057958185,1.4293938105946173 1.428574189349719,1.128084774750537 l0.7237255772051727,0.7872833602409554 m-9.354552939358987,6.021552350862779 l1.4587412512391547,0.8128858583401435 1.7939227713899357,1.3727179601925479 l1.3376791211908412,1.325834090075463 0.5917970311131141,0.8912099139264315 m-5.954544531906201,16.358749311553268 l1.0529361086111488,0.2442988801205944 0.5816566247171494,-0.0664638994558353 l0.9662392390664729,-0.5690109385803479 3.8148638905898955,-3.806543706456745 l3.6459828993578025,-4.360734799248074 m6.4601153399126705,-15.556148827157768 l1.5285697506480205,2.113809613745657 2.092165496984836,3.1846391632459485 m14.094967017383425,-7.08385827024826 l-0.03559910644571605,0.8716393517648549 -0.43332740230178024,0.9904477904159679 l-3.278914108484148,4.029758731610901 -2.61211590302227,2.6849344029011473 m-5.610658096714361,-8.921064024806814 l0.38508234958979,0.5816109163517793 0.22292451166465105,0.939295334443376 l-0.3766810791212624,4.961127804657049 -0.9184327602371819,4.099409719114691 l-1.1049018904308883,2.775245525886104 -1.4120200776953356,2.2688989201822354 l-1.6928256460407003,1.8891023424071676 -1.9921709701741008,1.5975213921118272 l-2.7238936745121594,1.6230102076355228 m9.799939880879066,-11.263916916945979 l4.184053750635899,3.9811462693682675 4.508301374100466,3.900174882143556 l2.9011797444974197,2.1317676867883444 1.6015611447164018,1.3152137316901726 m-34.159468280814096,6.058227770587681 l1.181381963476355,1.4998249549143168 1.302275585033456,1.1778657500565606 m19.16113773105436,-6.58261419310976 l0.0017167816797326364,0.7834081992189876 -0.5696770765812725,0.5505065554588873 l-5.383167168123895,3.972422881728268 m-5.450790150659684,-8.044078960136522 l0.4629576471817688,0.7904345472799895 0.12560762045550183,0.735177674421666 l-0.5166924827238889,4.2301395525150385 -1.1123750157013348,3.6407302058144264 l-1.722736216816118,3.2515267844541893 -2.255577366992717,2.681982520192158 l-2.6958614685428177,2.1400046526631042 -3.0610399357806193,1.7185354267453994 l-4.146577858850107,1.661664437714726 m15.050107660057305,-12.823044529972094 l5.409999322755985,9.164079315920834 3.366623643123752,3.487040554889838 l2.965178551325072,2.4671473819750815 1.05465088886412,0.5774060383351806 l1.0393692598025621,0.20797061041317128 " fill="none" stroke="black" stroke-width="1" /></svg>