<?xml version="1.0" encoding="utf-8" ?>
<svg baseProfile="full" height="103.00867517724916" version="1.1" width="102.46400184855285" xmlns="http://www.w3.org/2000/svg" xmlns:ev="http://www.w3.org/2001/xml-events" xmlns:xlink="http://www.w3.org/1999/xlink"><defs /><rect fill="white" height="103.00867517724916" width="102.46400184855285" x="0" y="0" /><path d="M25,25 m0.0,0.0 m31.136749084580092,14.012173736465327 l0.3377804137836692,0.36146194747119886 0.4011276983370786,1.2842161341475178 l-0.04062151910295379,4.012035575580405 m-16.5697646242294,1.7212899018041885 l3.7876028353989324,0.11846396245732758 13.574155545247894,-1.4139193487582316 l10.824750442753967,-0.7366090978843404 2.802054429312486,-0.09665203658431379 l2.645270506261837,0.3263809880692198 m-27.349183308493167,6.176218426899561 l0.6327397840615423,0.9355175697935508 0.3515574293326635,2.533631630336123 l0.5209708247362614,5.229541175903649 -0.146984543219166,4.791119307337723 l-0.7652937753186491,3.501714718390354 -1.1679272217498278,3.174244278435331 l-3.5633541529097994,5.180568675668377 -2.4579580247779362,1.8972776317161877 m9.49732977643665,-24.87001627999307 l11.9445612037038,-1.6952440585501998 1.1680426511656856,-0.7439939136035582 l1.3198310026593096,0.14977336253511525 0.42155691259395983,0.4103124071550846 l0.20848742349654215,1.0581081273158197 -0.1516969252582671,4.937728213441377 l-0.0958394081139673,8.647521121812973 0.44012770412847524,1.8058787719954073 l0.5740105134461707,1.4639679635615022 0.9328540919827868,1.366960994965623 l1.0178368064323509,1.1891456501478441 1.2378570079825562,1.1964672025369845 l3.9021342970830073,1.2125611507348544 2.3424173710146525,-0.1488832319866379 l1.332864118225957,-0.372824265638476 0.7078847240369432,-0.5457601521652419 l0.42998529626898524,-0.6874684063546441 0.28008545726172546,-2.8644168371293244 " fill="none" stroke="black" stroke-width="1" /></svg>