<?xml version="1.0" encoding="utf-8" ?>
<svg baseProfile="full" height="108.75834715036856" version="1.1" width="114.441477775908" xmlns="http://www.w3.org/2000/svg" xmlns:ev="http://www.w3.org/2001/xml-events" xmlns:xlink="http://www.w3.org/1999/xlink"><defs /><rect fill="white" height="108.75834715036856" width="114.441477775908" x="0" y="0" /><path d="M25,25 m0.0,0.0 m27.687755478927375,12.893604163700845 l0.42633896040224384,0.0992559555124578 2.6548514786951807,0.015329576249044694 l14.956353092036831,-1.748018017741665 2.9177670531358646,0.06630488786397197 m-10.839842417213177,-7.196768361610554 l0.6082712018468897,1.311983252537014 0.15023339465430072,1.1363183978618119 l-0.03223570516793805,14.14023854648007 m-19.34366632589836,2.0000396866082895 l2.1580203289255073,0.32174890728794314 2.268265694087814,-0.008498138031519244 l15.764923533811505,-2.8650794121982193 14.495606320739185,-1.470241817052564 l7.3325968210022,-0.30722806809780456 3.2362388659225796,0.263440728632192 m-7.712467876778395,-14.007946790499183 l-0.1977320207522245,2.0163493638030983 -1.561671357411527,2.1582979615251356 l-6.98257691891679,7.877673634269487 -6.25742569670646,6.236218575664215 l-4.651294572748732,3.9575041898043333 -5.032086543842603,3.727113365124517 l-5.606162616764556,3.6563258731458936 -6.402780655596689,3.709717075278403 m34.94906345556888,-13.184719527549078 l-0.6491221014929397,1.1225817587452285 -1.6369162884131496,1.0048912815085436 l-4.002897728501303,1.6876419589466574 -5.489050770009759,1.765287193281398 m-0.8178635408835477,-4.856355157932282 l0.027161171066414868,0.9073979392655083 -0.6706708805707118,1.812496473222637 l-3.5158965950222485,6.233432157516783 -0.12071518311252034,0.6818764373611405 l0.17569499767576782,0.6057037767892847 0.4798384690422482,0.2758341244397337 l1.1790615759682037,-0.09469896051252288 14.409539887865304,-2.8911271527576257 l1.4106365316118834,0.1555762236764472 0.7709870746388371,0.4063687520647808 l0.5985257747855922,1.016477637492637 -0.04392738911218469,1.4080353481131154 l-2.5947435472740046,12.784608320998268 -1.3534447472944282,6.092269066625242 l-1.0339126820132118,2.939990517828316 -0.8500563760766717,0.8939819701425608 l-0.6409611234914883,0.007113474984591212 -1.0782703581855397,-0.7377152086044297 l-1.422965139370163,-1.9893411233905371 " fill="none" stroke="black" stroke-width="1" /></svg>