<?xml version="1.0" encoding="utf-8" ?>
<svg baseProfile="full" height="106.54312033670831" version="1.1" width="108.80608695875029" xmlns="http://www.w3.org/2000/svg" xmlns:ev="http://www.w3.org/2001/xml-events" xmlns:xlink="http://www.w3.org/1999/xlink"><defs /><rect fill="white" height="106.54312033670831" width="108.80608695875029" x="0" y="0" /><path d="M25,25 m0.0,0.0 m11.367840308215497,5.473712744796318 l0.38110099728863467,0.3733728045640908 1.46951816238238,4.564217638517095 l1.6658176593274436,8.141194747585732 m-3.018158560377127,-12.958196478340628 l17.011171481305908,-1.840948431175985 1.3404818695537473,0.3754361136572915 l0.38308902859359234,1.0268617028889684 -2.6330962777406763,9.718574668633652 m-12.841531952024647,1.845603757697495 l14.322977823335602,-1.6380655257390997 m8.345054371424853,-11.41942038187808 l0.6748027304914452,0.7661188948846193 0.6976995646585765,2.429756452880821 l1.6661804096648163,9.991696999923919 m-2.296687840583115,-12.089160191783677 l15.456168618653399,-1.7535541187916652 1.3121803560158907,0.43334749247751564 l0.3117813905499515,1.0682706942698261 -2.7909831676983154,10.035633935371274 m-12.147665751529257,1.369943094199428 l14.063455226050706,-1.257098588233686 m-44.03505460324628,15.94253219699841 l4.206605809510654,0.3378218031720484 38.146185880868785,-2.70459410768706 l4.432941151408607,0.38321014488780003 m-25.9465924971911,-9.566568934159026 l0.686166455906971,0.9740345669173501 0.19604135175530352,1.3836691152160179 l-0.27048633879561557,5.42175777101994 -0.5695123562274238,4.047422746120443 l-1.8532690718906335,6.9270412434572375 -2.735429287121457,5.305675885991386 l-3.6203469646540514,4.813838631893843 -3.1939542384650537,2.918512060886778 l-2.994667860339125,2.0415274052649526 -3.2805528844787184,1.6807961307831143 l-5.596100665321974,1.9791456495398434 m25.067462586338333,-27.79695834971859 l7.3532721714504445,9.642282057495876 8.075302769471694,9.224271112369356 l6.0629417598858675,5.899701545435407 2.1258544313506587,1.5404875939230938 l1.808082910975091,0.6709844267089807 m-14.305666755184278,-36.35103815871672 l2.2860442606533655,1.1685575277398768 2.1467545324258825,1.4470894687370968 l2.593086340631362,2.86839624866087 " fill="none" stroke="black" stroke-width="1" /></svg>