<?xml version="1.0" encoding="utf-8" ?>
<svg baseProfile="full" height="116.82064712560603" version="1.1" width="102.61786284687744" xmlns="http://www.w3.org/2000/svg" xmlns:ev="http://www.w3.org/2001/xml-events" xmlns:xlink="http://www.w3.org/1999/xlink"><defs /><rect fill="white" height="116.82064712560603" width="102.61786284687744" x="0" y="0" /><path d="M25,25 m0.0,0.0 m6.904617212127393,17.864572128685694 l0.34491836030490347,0.5512430485365791 0.5114952874631,6.4366024205135615 l1.055217913675301,15.476108990103103 m-1.227855773307681,-21.016302819426702 l7.8133495837154365,-1.149986724579487 8.000349664787526,0.1257597976761368 l-1.2276680229135297,0.231419567663525 -2.2179046802789206,5.132002417543188 m-8.77693956373554,2.1080652867370824 l10.911040222008701,-1.6431763699441482 m25.034962598747427,10.763460469092696 l-0.16252670640814149,1.0886531075573862 -1.0280136477084916,0.8119434954647327 m-14.229991704066826,-22.151098599281077 l0.5584522194728314,1.0244698036841355 0.2620661648497292,1.662975326853788 l-0.02687020866025526,40.8771367558656 m-12.105028557629383,-41.56513466513541 l0.6679022238866225,1.1900503837617455 0.2340627475344871,1.5846969332095562 l-0.36844267619931803,41.722056998417365 0.27421551737959443,2.912590838205582 l0.8559886442034412,1.5525227367215366 0.9166984650098629,0.5251078461375693 l26.35822503124582,0.3193924222943718 3.285542531373359,0.38551552924790594 " fill="none" stroke="black" stroke-width="1" /></svg>