<?xml version="1.0" encoding="utf-8" ?>
<svg baseProfile="full" height="109.09856626677717" version="1.1" width="101.45780352007064" xmlns="http://www.w3.org/2000/svg" xmlns:ev="http://www.w3.org/2001/xml-events" xmlns:xlink="http://www.w3.org/1999/xlink"><defs /><rect fill="white" height="109.09856626677717" width="101.45780352007064" x="0" y="0" /><path d="M25,25 m0.0,0.0 m16.79698055135116,3.5617499611042907 l0.44714679858438994,0.16859966458668443 2.5316462560465003,0.14058201772843115 l21.746187692865576,-2.7630212569576096 3.276823061617966,0.28072874093366185 l0.6726905993595301,0.44596218977921864 m-16.08148831237561,14.945720667491006 l2.5814249078475515,-1.3352844036485496 8.348342057198002,-2.021723863658059 l2.2717430790091178,0.021200477356002126 m-12.226936388210829,-11.803583639834478 l0.47744198700374924,1.7914335760508604 0.08672588272713842,21.026021118094526 l0.1510821891064046,1.9930081680585745 0.3169196527955615,1.0149787541526678 l0.567952421380101,0.7644619660507481 0.896953957056373,0.47770710318905485 l1.9849498138645596,0.33281304732366435 5.2251854959672315,-0.019840822775336272 l3.149274555441587,-0.5121891197880416 1.4093605831261529,-0.856312571228457 m-27.970442373823747,15.933751086673055 l1.854803263488505,0.9345698693055008 1.7157999605560195,0.34405146983956597 l21.552542861737855,-2.2181738223117655 4.700524702985962,-0.14212786665848012 l2.123704120563378,0.3880681342570755 m-16.833622701596482,-10.960379203091446 l0.49609633162189515,1.2161861963813432 0.16523299530297927,1.829192694779234 l-0.061137629969042186,21.89138556786885 m-18.947068822426225,1.7186901374623131 l1.8726893727474314,0.4589624651367487 2.25889328407756,0.051377763126309296 l16.400636650592205,-1.8497160419293126 14.843570825624761,-0.6560676122894478 l2.6551738368253854,0.1666327427629808 " fill="none" stroke="black" stroke-width="1" /></svg>