<?xml version="1.0" encoding="utf-8" ?>
<svg baseProfile="full" height="104.7877378750743" version="1.1" width="99.1423747813023" xmlns="http://www.w3.org/2000/svg" xmlns:ev="http://www.w3.org/2001/xml-events" xmlns:xlink="http://www.w3.org/1999/xlink"><defs /><rect fill="white" height="104.7877378750743" width="99.1423747813023" x="0" y="0" /><path d="M25,25 m0.0,0.0 m14.696115527287796,3.5155527390806594 l0.4558141254973873,0.15365376895832178 2.638358131919688,0.15308179144662865 l23.02792370378042,-2.4796499214009273 3.5081103522900623,0.24186165517725988 l2.4041280090987978,0.4162600972481532 m-17.583168414730725,14.678292007273823 l1.494449962881,-1.3060026920612477 9.545644583677431,-1.9038908540861843 l2.7645096258253767,0.02590603537548102 m-13.142200055700494,-11.366705784071693 l0.5291893361099462,1.195950910546006 0.1807815423287297,1.3653398666254775 l-0.002814163674427925,21.563688981539237 m-12.157563423841141,-16.715744348263897 l0.6254161985883424,1.2137732331628854 0.22812546963666666,1.473287383450279 l-0.016366572236997137,13.30938715654509 m-7.879748194658672,0.42605418699996433 l1.5955684945628008,0.6335795385713046 1.801787958529521,0.08644152547535058 l29.96193254095137,-2.615044889370488 2.130966037883379,0.10566073709078093 l2.3354140052960326,0.608792416692995 m-32.40231812634159,11.025842413472612 l4.4438578454887665,1.3165237204556235 17.942686997885865,-2.2173237467560973 l2.5093745739210602,0.15121361688862398 m-11.421675216570165,-7.546564026781076 l0.43992158638852624,1.1943785603458572 0.1622580785234765,1.3936177330414417 l-0.08400688053428747,22.4237962025206 m-17.339453767293918,1.848037229661907 l1.6341126780209438,0.4137968037977374 1.6494007620680808,0.004893826421815224 l21.582127228745577,-2.5961010473215826 3.058838787908149,-0.07682638926132454 l2.250982823202425,0.36926278611218033 " fill="none" stroke="black" stroke-width="1" /></svg>