<?xml version="1.0" encoding="utf-8" ?>
<svg baseProfile="full" height="89.92157251795855" version="1.1" width="96.8044230815327" xmlns="http://www.w3.org/2000/svg" xmlns:ev="http://www.w3.org/2001/xml-events" xmlns:xlink="http://www.w3.org/1999/xlink"><defs /><rect fill="white" height="89.92157251795855" width="96.8044230815327" x="0" y="0" /><path d="M25,26.642602686007656 m0.0,0.0 m15.65094000089541,11.102173989004822 l0.3794651370374996,0.14216421136315258 1.6306678959181575,0.24211986995844456 l22.244280501281825,-2.507352137241332 4.582627634790173,-0.141439208095362 l2.316441911609645,0.33702040386964716 m-16.818253207642726,-10.81728981486703 l0.5939787656536807,1.153047090250417 0.30718193368431485,1.884638299476188 l-0.024857205015411412,23.861494110251655 m-11.551566171126272,1.7196610242838517 l0.4986791401820594,0.1889702287742497 0.7639969910142902,-0.00556891909472353 l14.638730316587933,-1.7537853976687312 m-22.294939303347025,-7.836275474101721 l0.6137550745788716,1.8496459377776413 0.04295094481432994,1.278708671835336 l-2.8587568193480397,15.439178264566129 -0.046883833314863545,1.3381915024386482 l0.33693433690289876,0.5693670575233475 0.6428146089826708,0.23430012164626415 l12.58629293730934,-0.017010994080504712 12.54752874248035,-0.7337996133290594 l6.529640560944561,-0.09114192980993828 3.008967352501915,0.5737382232141642 " fill="none" stroke="black" stroke-width="1" /></svg>