<?xml version="1.0" encoding="utf-8" ?>
<svg baseProfile="full" height="97.85607753829001" version="1.1" width="98.09872302754388" xmlns="http://www.w3.org/2000/svg" xmlns:ev="http://www.w3.org/2001/xml-events" xmlns:xlink="http://www.w3.org/1999/xlink"><defs /><rect fill="white" height="97.85607753829001" width="98.09872302754388" x="0" y="0" /><path d="M25,25 m0.0,0.0 m27.695833312176223,5.661229401738546 l0.036530474858485255,0.38872399685070547 -0.45597514771587094,1.6757843910462655 l-1.8541499519555067,2.862999036231056 -2.4984590301978877,2.9870631123096314 l-3.47737878787018,3.360977174076874 -3.5347210157568414,2.8746245769685794 l-4.110283793263837,5.403438180074323 -6.114630710419809,8.569693237416887 m19.665337219731718,-25.906361603077638 l6.5624262058737886,6.918835204486891 11.1710720869346,10.429140612851413 l2.367227813986199,1.9210531013498016 2.6458943511628044,1.54620766163195 m-29.23792895030582,-4.70374821856783 l1.7384368686290375,0.10891386136431071 10.093272205289399,-1.4422411228210437 l2.767827422673971,0.11560432791550707 m-20.59086630511541,9.277029781719783 l1.5718060550880053,0.3590079152727047 1.6719444805213912,-0.0560023205367822 l17.746171395239564,-2.320944470222897 0.852683954159554,0.3315872302369727 l0.3226509215908395,0.6039254343892252 -0.13489747313517508,0.87189493569742 l-0.5272341824397019,1.0608659821408517 -4.09796048624516,11.77777713925443 m-17.57916924654615,1.9337823145728774 l1.7412962579526718,-1.8089407634737746 m11.263713321697425,-0.34230053849361897 l9.87596757476425,2.0714116912128864 3.0492929321782056,1.3250462746736997 " fill="none" stroke="black" stroke-width="1" /></svg>