<?xml version="1.0" encoding="utf-8" ?>
<svg baseProfile="full" height="90.79265411895362" version="1.1" width="106.7434190869445" xmlns="http://www.w3.org/2000/svg" xmlns:ev="http://www.w3.org/2001/xml-events" xmlns:xlink="http://www.w3.org/1999/xlink"><defs /><rect fill="white" height="90.79265411895362" width="106.7434190869445" x="0" y="0" /><path d="M25,25 m0.0,0.0 m5.808235929222545,15.720139549932165 l0.3019345591798632,0.39282568919147626 0.45129712659884175,1.3418411311637448 l1.4336094514781685,13.158375853599482 m-1.2981542852962873,-15.006666631777353 l11.027023019374885,-1.9203104140112328 1.7113315862984113,-0.10253127149101089 l0.5031250533953374,0.21925420878668364 0.3209922927516973,0.4089621299930245 l0.11852752049400173,1.3005702098494565 -2.023681796816448,11.16848569946734 m-10.140838209304697,1.7903369786974894 l11.154682946932747,-1.4441198367892687 m15.290975356521924,-21.094517809704264 l-0.03701097049356336,1.2691402569890136 -0.4387168080221153,1.2717837351830907 l-2.9082385531922292,5.662026515352759 -2.9599704622936933,4.395281509593661 l-3.687748149000179,4.3158634349619565 m7.76508679575256,-6.623440434571191 l2.3369528325910744,0.13500657083430576 13.221588731297503,-2.1239142992805307 l1.5844600032922702,-0.11344754683459354 1.0007860973019078,0.3416482757430712 l-0.021067741750945872,1.7944242013110683 -1.8453697664890638,1.5156673266736682 l-2.4967959934224435,2.0537454904415173 m-11.974032002231262,1.116541878537495 l0.12632030031409744,0.9513881764425461 -0.14040655592052187,0.998909144267752 l-1.329828366522047,4.422251158569764 -1.6145361938945029,3.687044421702195 l-2.2823648684358853,3.6717231042154346 -2.4129358538590737,2.8535334979424474 l-5.9936580866119575,2.0489660823684273 -3.7004002746493483,0.7085953363923577 m18.004458451651892,-13.951222734494985 l15.575612094764123,11.186706010194824 2.9204807899994565,1.8159882244415855 l3.3916930859374532,1.455799295068239 " fill="none" stroke="black" stroke-width="1" /></svg>