<?xml version="1.0" encoding="utf-8" ?>
<svg baseProfile="full" height="103.59230117099239" version="1.1" width="107.06241774833639" xmlns="http://www.w3.org/2000/svg" xmlns:ev="http://www.w3.org/2001/xml-events" xmlns:xlink="http://www.w3.org/1999/xlink"><defs /><rect fill="white" height="103.59230117099239" width="107.06241774833639" x="0" y="0" /><path d="M25,25 m0.0,0.0 m6.503596471775037,20.364507702507346 l0.2929653947076097,0.3822809517087157 0.43936933012585794,1.454961244068664 l1.3898607923490147,13.06366110937561 m-1.037092648036541,-14.590621592926617 l9.823599885185697,-1.5846849281368847 1.4401119766021033,-0.02750465133539856 l0.9933665353696527,0.48315094503804584 0.2206433024242184,1.1199526611665744 l-1.9139880603596,10.667792388878016 m-9.36757265756546,1.428711211691212 l10.848835698859531,-1.0249426221495368 m6.747337438261678,-12.69135794910245 l3.6304258673362537,0.20516513518611496 12.795369935869413,-1.76720103167551 l3.3058313733304434,-0.2135090218205216 0.999146200579975,0.14352124557245607 m-24.266104788801915,11.377997409121729 l1.9818581748393773,0.2794334021848037 1.8943333922603511,-0.07819368429834982 l20.296308314406144,-2.556954109443136 4.361835716039606,-0.40892508679786393 l2.0747297890026104,0.10546168219585488 m-17.432087650257948,-20.017319528486638 l0.7845217653364752,0.5621230912598506 0.6461577612928129,1.3402033781602174 l-0.1528228893370423,43.19115048521983 -0.1806350320088985,1.6433862146063578 l-0.4728381580938399,0.7398311982768364 -0.6654243061320569,0.00022392094704980388 l-0.761671232417131,-0.4821016873835629 -1.7579129194721184,-1.9209814749931569 m2.1525292388197497,-22.810255857201906 l-3.6889267320158474,5.36444853949325 -5.024518697165818,5.39982851964066 l-4.992650774848975,4.126470671167846 -5.1616432573984925,3.0721895024835155 m21.676018996258676,-18.382887175856172 l4.495901754747391,5.064055112179475 7.515988820957676,7.352544832348804 l4.542775840513411,3.948086006871306 2.0848877849973033,1.0363503715804663 " fill="none" stroke="black" stroke-width="1" /></svg>