<?xml version="1.0" encoding="utf-8" ?>
<svg baseProfile="full" height="103.40427726467172" version="1.1" width="116.32553300618062" xmlns="http://www.w3.org/2000/svg" xmlns:ev="http://www.w3.org/2001/xml-events" xmlns:xlink="http://www.w3.org/1999/xlink"><defs /><rect fill="white" height="103.40427726467172" width="116.32553300618062" x="0" y="0" /><path d="M25,25 m0.0,0.0 m6.6848447490702,20.507134203994923 l0.28992835385622556,0.44235651635437173 0.4587568143166511,1.4746003313608764 l1.6455850510697094,4.500861221911443 1.5411462868814296,9.324354250711016 m-2.250491578557016,-15.754021232686926 l13.15903528679718,-1.9289265886768563 1.279291842488655,0.3212570697773003 l0.37454263119282416,0.4424150058415696 0.10079175081160051,1.0523357794091222 l-2.600359406198629,12.60542186927343 m-9.862470062939677,1.6052975768634592 l11.515667534658013,-1.2468892663460471 m21.40360836651162,-23.856886022006737 l-0.08905116489097101,1.3094268686349486 -0.692382994777195,1.5785829266904887 l-2.2104737601630395,3.57414185297706 -2.524809625365151,3.391734569742007 l-5.5616265777060265,6.01662712065089 -6.809668681012231,6.057982649099873 m18.496890704044283,-19.624898167832683 l6.505606945714799,6.54439222732259 7.275095047972425,6.3537868056947815 l3.9073083395369532,3.052600835874536 4.288767152867993,2.3692616741234134 m-30.160832791130304,-2.646735212702599 l2.8419110921030635,0.025286407197355254 10.467672258798423,-1.4857300050430193 l2.332234400023009,0.05077685747897195 m-20.821539858080524,9.572214048283902 l3.679931913260309,0.15411931449543828 18.180233382958658,-2.3471492941395713 l0.867791811332161,-0.05188045905597908 1.266191548550515,0.5889465060871371 l0.2033536584856315,0.6374255520934564 -0.25368486414922137,0.7499144651646328 l-0.5911773512198731,0.9406857627182076 -10.97977213982674,17.10345324333493 " fill="none" stroke="black" stroke-width="1" /></svg>