<?xml version="1.0" encoding="utf-8" ?>
<svg baseProfile="full" height="96.84820133070176" version="1.1" width="96.96861468256934" xmlns="http://www.w3.org/2000/svg" xmlns:ev="http://www.w3.org/2001/xml-events" xmlns:xlink="http://www.w3.org/1999/xlink"><defs /><rect fill="white" height="96.84820133070176" width="96.96861468256934" x="0" y="0" /><path d="M25,25 m0.0,0.0 m8.903548597692167,3.857793985023259 l0.5168052355919603,0.08161872238991945 3.737929896022683,0.11168900363466135 l31.04201062088465,-2.344733313015102 2.7683203323778813,0.2698160050333942 m-21.472056579250037,2.5080268753524493 l-0.04935484752623052,1.6639921960180573 -0.6488194407861431,1.2778227138222278 l-2.258319344212681,3.4437364215842194 -3.204454810526952,4.070096993299668 l-3.0283401326640313,3.2662302234269447 -3.5535376950819697,3.2238728796982574 l-4.025372239813878,5.581614616347765 -6.8367614428593635,9.28118963527139 m16.607604945818508,-24.19272756618918 l0.5179053395855917,0.945041333394348 0.2729916415581897,1.1903231122878655 l0.03466844051834162,27.620157038670097 m7.780532924261179,-26.21994719391032 l3.6443054789888363,2.475930467848885 4.152805519769587,3.929560246760271 l3.3565070315214753,4.028616215408486 2.601826080827981,3.8784673444700037 m-36.85214760671429,16.615489565153695 l1.8190009899847321,0.2845238089204846 2.8942138206620207,-0.02283170620486993 l24.635551046145306,-2.2754600541607997 2.5469497842924995,-0.12297286505318959 l2.1332360765269716,0.3186568263674625 " fill="none" stroke="black" stroke-width="1" /></svg>