<?xml version="1.0" encoding="utf-8" ?>
<svg baseProfile="full" height="188.62489916885178" version="1.1" width="101.52043219767637" xmlns="http://www.w3.org/2000/svg" xmlns:ev="http://www.w3.org/2001/xml-events" xmlns:xlink="http://www.w3.org/1999/xlink"><defs /><rect fill="white" height="188.62489916885178" width="101.52043219767637" x="0" y="0" /><path d="M25,25 m0.0,0.0 m26.865941703504603,17.06213074203513 l0.4413566829292978,0.04556341976535455 2.5564321320726178,-1.4442221939519722 l8.811013111496024,-0.3076672597387979 m-11.115646404479206,-6.204648994146927 l0.5386389524620653,0.6503411145656934 0.3247898781334767,1.1070768580649197 l0.10704013321765829,12.357836538512789 m-9.66182296722005,-8.218080203013384 l0.5392435220623409,0.7969638554935444 0.2631235925613595,1.0797169751884252 l0.04680143584054461,8.912154909142073 m-6.078226898829789,0.36631036252395727 l1.19530686134122,0.41200352904990506 1.8799355078289959,-0.1441866863982158 l22.412654947193786,-3.082946294633131 2.0917795625926514,-0.05081095703518189 l2.234325481318414,0.31627932791145935 m-29.765772235995584,12.452947153480398 l2.43655194773301,4.49467842672546 1.7333929453150412,3.7724264591997536 l1.1903189191544543,2.9939198536378147 0.9361131861761213,2.9857386885193087 l0.7624190782344695,2.6433718973881675 0.7816264479904359,2.48692327033996 l0.9370255598352554,2.641997874017321 1.0161322995303217,2.7426310218345242 l1.1322987886961422,2.7528318282464226 1.13060289217645,2.7375193458318328 l1.159409742236197,2.863892159807736 1.1845395913703418,2.891467855885954 l1.1250513922611058,2.855371088309371 1.1085909101394522,2.8864331295678785 l1.0945833554509377,3.0107320246650793 1.0532717500086604,2.9711351174196934 l1.0107474230927516,2.9542314184699694 1.008372095166184,3.180813745632465 l0.9482350518336542,3.1510275539789747 0.9515335037342474,3.200357098847504 l1.0208686736870562,3.2072861138191167 1.0610178893428628,3.266867528760231 l1.0791219974172974,3.125612673906722 1.1696124773851697,3.168728757118496 l1.162262384540535,3.014116804151457 1.2225915834087486,2.972352693165319 l1.2307662151423815,2.8820788163504245 1.2764233706720143,2.8458450399322315 l1.3198097770389063,2.7314483547979163 1.378280451765104,2.7815975167460802 l1.372077291204935,2.695707869683949 1.394211216005204,2.3071116952879223 l0.41906327954672684,1.9493589225041958 0.026593712353749615,2.332804477911381 l-0.13928148244043703,1.2102629815800015 -0.30395984993129943,1.0590217662226875 l-0.4003661297776984,0.7305226032939313 -0.47748392004445195,0.01991249847851339 l-1.0426127345062777,-0.7279646457998137 -1.228409659213748,-1.6395042026776097 m-1.3849805566608153,-28.61519566763498 l0.031295261832525165,2.2535055029584634 -0.43612340788200893,1.8783444444854098 l-1.227183836896707,3.3010065283650447 -1.9306636578274827,3.882848861106584 l-4.594785698112192,6.597948331641228 -2.9463453381783378,3.110743641337961 l-3.414336550504631,2.830901646981471 " fill="none" stroke="black" stroke-width="1" /></svg>