<?xml version="1.0" encoding="utf-8" ?>
<svg baseProfile="full" height="112.33177195113979" version="1.1" width="100.55712843337906" xmlns="http://www.w3.org/2000/svg" xmlns:ev="http://www.w3.org/2001/xml-events" xmlns:xlink="http://www.w3.org/1999/xlink"><defs /><rect fill="white" height="112.33177195113979" width="100.55712843337906" x="0" y="0" /><path d="M30.43484302712215,25 m0.0,0.0 m12.0515685050876,6.038700632048514 l0.42543439724234117,0.35447044842483266 0.6322811655290617,1.538415027828436 l-0.004074924969193674,12.496257345405786 -0.5392756524504771,4.557191534433289 l-1.0157939093525705,3.2246308628241964 -1.6282383734485901,2.822031925729081 l-2.2414565783348785,2.3223755353604303 -3.1270054682148793,2.2262907604878626 l-4.3043201221823235,2.3006231314242656 m-5.330557056436533,-24.84385189432178 l3.5286759796334093,0.04365401608574281 14.370239591829911,-1.5951484854554727 m-16.89476492113653,8.694093501830524 l2.8040532840210473,-0.008479700475822633 14.205838996347053,-1.5106668958681881 m-18.367447940286596,10.126495303995423 l1.1589819135344075,0.41329701942885017 1.4142336559571802,-0.1373118378836547 l13.698665444889354,-3.9425603921867296 m13.753019650343381,-20.679228465720513 l0.9279884337508332,0.7971480734400368 0.49278111930607105,1.3456027890393696 l-0.1522119822139134,26.991400544252947 m0.48102484694586223,-22.329933061113664 l16.862927742351754,-1.5377589791695339 m-17.625707596165668,8.618168833807873 l16.675372450199617,-1.4439394624653623 m-16.57694292538239,9.699620733698563 l19.446995679862578,-1.4199414944776347 m-42.34965139542444,15.593712836098762 l1.0471999906032905,1.6757645042598392 2.0274113421626807,10.946465674599537 m-1.5983959860725994,-11.396531127979854 l22.688141735921253,-1.8107695524906724 7.911211320712157,-0.40125192944134874 l1.231664653896866,0.6611969396784675 0.2913175833315736,1.1508517211187073 l-2.084383877782868,7.384569471769888 m-28.56586062023113,2.2380444405245776 l30.16367102822822,-2.294334607255481 m-17.53582227649451,-15.499940678036605 l0.8701241204486733,0.8183722718595262 0.42326527624372684,1.380299075872671 l-0.16048335825498933,23.535691353412876 m-19.30577925650932,2.28301023033875 l0.9456432814385304,0.624988643465819 1.1478776556839823,0.22101501276774713 l34.065765701875755,-5.9591325470006735 m-5.414983630528088,-4.156492289823981 l3.3366389801401057,2.0891081680615833 3.4731634967206975,2.9013362546874193 l2.7709156172061475,2.9996323415286863 1.3076778556064297,2.1845183927158858 " fill="none" stroke="black" stroke-width="1" /></svg>