<?xml version="1.0" encoding="utf-8" ?>
<svg baseProfile="full" height="104.96404100018043" version="1.1" width="107.30284846034041" xmlns="http://www.w3.org/2000/svg" xmlns:ev="http://www.w3.org/2001/xml-events" xmlns:xlink="http://www.w3.org/1999/xlink"><defs /><rect fill="white" height="104.96404100018043" width="107.30284846034041" x="0" y="0" /><path d="M25,25 m0.0,0.0 m4.837791035525599,19.255847658262123 l0.33739700603158296,0.4219187690967176 0.5131497524324976,1.3653540205937775 l1.651637863149726,14.825581883334857 m-1.5285137190119502,-16.881817024569937 l12.140492611820518,-2.089798681081839 1.8384871515077175,-0.10463861426425915 l1.487720172595673,0.27470299385225494 0.4343532488932571,0.3809858572508192 l0.18715933447443203,1.2863679020701604 -2.2159005251967248,12.213723912039635 m-11.477328158361662,2.0811252152381248 l12.547176486666784,-1.588045083789893 m18.237742052906366,-23.98436316978885 l-0.16114309885371456,1.5037203113174826 -0.5580877266737461,1.4505560077411173 l-3.434929097135091,6.574670431645753 -3.3912565117575193,4.969041766955399 l-4.314924205972918,4.904272561005501 m9.414640667705385,-8.334564700409377 l2.7130627547092554,0.10318109935951679 14.307954971202811,-2.3699602206871986 l1.933239461926957,-0.21828448643362106 1.189989965146088,0.1756212585788509 l0.3571288773711196,1.5246739161184422 -1.1810201562901002,1.7726323439046272 l-5.117046433432952,2.419513652762506 m-12.942746536024647,1.1760755434883674 l-0.004451746369440286,1.007034260532369 -0.2771909007342588,1.1100712713634842 l-1.70374484618276,4.597743334639285 -2.043860283427768,3.94495961198878 l-2.7019166384166002,3.85112544752623 -2.7974858694163727,3.0012986060350313 l-3.4086215380804177,5.148147185700092 -3.456981635157524,4.930951526517583 l-3.5140154902440424,4.264614632286523 m17.58756270269419,-22.908600670450667 l15.136032624500174,16.00376265805262 3.0979897218602264,2.5514077908692467 l3.5833051139602876,2.0654845598847738 " fill="none" stroke="black" stroke-width="1" /></svg>