<?xml version="1.0" encoding="utf-8" ?>
<svg baseProfile="full" height="131.7462072893472" version="1.1" width="104.54448536070839" xmlns="http://www.w3.org/2000/svg" xmlns:ev="http://www.w3.org/2001/xml-events" xmlns:xlink="http://www.w3.org/1999/xlink"><defs /><rect fill="white" height="131.7462072893472" width="104.54448536070839" x="0" y="0" /><path d="M25,25 m0.0,0.0 m27.45179864122641,12.214850835253447 l0.04726185915828016,0.41309551786145715 -0.4731999515713931,1.812243821352214 l-1.9920102386973628,3.159959796467258 -2.857127823187232,3.7805151470649703 l-3.7387581582338596,4.10468802404212 -3.5256062013529768,3.288902014949091 l-4.115108204668412,3.2409471362086855 -4.446962116687221,3.1007268167303974 l-3.85994748309808,2.275478320032155 m25.81496071773504,-22.313096611508183 l9.266473187993476,7.494987363005607 10.750257388458841,9.090089358691865 l3.1743693888577473,2.2473238819374974 3.0480843547751335,1.4136574691636996 m-36.468867990235296,-4.149021895311076 l2.7291717200880847,0.06555795035360062 11.367979905006308,-1.115075468680144 l3.35136595271074,0.03494591385399132 m-24.225905152884522,9.00657079715673 l2.145904956934307,0.24541420285397175 1.8928698391393033,-0.053581723876306345 l20.190185495680605,-2.191538802798525 2.247883037020025,-0.0813759714297013 l1.301601360280265,0.17227040156252482 0.8213352643848568,0.2951986532918365 l-0.4637125461859117,0.5042326551546537 -1.127548417333444,9.663765912328763 l-2.0921853950791505,5.53111901972908 m-21.697679878054895,-6.2376108695553505 l23.447755616667564,-2.562725711025607 1.429380799971371,0.0684557571180278 l1.4029594961587768,0.32275827733210116 0.5621395521858432,0.3642597067960836 l0.29656132004131835,1.14697026960258 -2.2663433240352213,9.840646117368557 m-22.133879829161707,-9.586411678647982 l0.8914624910476444,1.2622697457533587 0.15545366339636887,1.1524514734897369 l-0.6227200167710754,9.94488430635922 -0.7735298505512995,2.1883145725002087 l-0.5568332262664216,1.0135329346200659 -0.05249496891712125,0.5111952143812566 l0.34076156312474254,0.3655501112700841 0.849691069015054,0.1699002627171866 l1.531457359196087,-0.04649284260198398 10.116786892138641,-3.5436221077115384 l11.102937064014093,-2.056210296165978 6.513222953872497,-0.5692722788988366 l3.1663980699754206,0.5073628103236316 1.0252594359019944,1.1146370151129656 l0.2842202103344241,1.6393688871010565 -1.2430580597074221,4.6874672076965505 l-2.4812404568744992,7.017647458647326 -2.5734288966608863,5.656615859280817 l-1.542266133395106,2.5624849468349553 -1.5476398167408956,1.43548206668216 l-1.2989066669631468,0.12344753752486948 -1.3051565567564754,-0.9429470736527621 l-1.6560941395523872,-2.3422575071749496 " fill="none" stroke="black" stroke-width="1" /></svg>