<?xml version="1.0" encoding="utf-8" ?>
<svg baseProfile="full" height="91.92797857037674" version="1.1" width="96.01802647920756" xmlns="http://www.w3.org/2000/svg" xmlns:ev="http://www.w3.org/2001/xml-events" xmlns:xlink="http://www.w3.org/1999/xlink"><defs /><rect fill="white" height="91.92797857037674" width="96.01802647920756" x="0" y="0" /><path d="M25,25 m0.0,0.0 m17.526551607270203,3.829667340049781 l0.38778159339031226,0.1977560234421802 2.754553470891031,2.531224956599938 l1.186667736899344,1.6586677085474946 m12.591038941132679,-5.586598189230699 l-0.26791447642492944,1.3654558623696156 -1.051729835457107,1.7643693415080948 l-1.417048936068625,1.6254752994241208 -1.5634171239524544,1.336461474895974 m-16.52290583719492,2.4715567541195282 l1.4982659131718885,0.1236692062261707 21.113004883624388,-0.11900497797935942 l4.430474834211543,0.012223562887449519 m-14.900021712774537,0.7227491332011702 l0.6491440694329043,0.8675839409894834 0.18496852547277337,0.8491293677663048 l-0.009779898855173195,7.4176651664082165 m-12.132297369787254,-4.296517685992194 l2.4849108497834775,0.13815743434585157 19.167477962740104,-1.3087872181288391 l2.961498519609922,0.07852057836816792 m-31.603461173445723,6.486060009846333 l2.8499206065982454,0.20801684422368255 29.574731775791072,-1.5889919607214957 l3.9539494721276904,-0.10995590662967684 2.1716620810207043,0.17703886040331104 m-27.79429615867285,2.4398321126635656 l-0.06120327470032982,0.9789266767985827 -0.738396820064733,0.9770449600509364 l-1.8107469130641067,2.15552934654302 -2.1715329936799432,2.1391290552089335 l-4.585474546460307,3.6119611899208914 -5.262339964013797,2.972787864315821 m16.090487637469575,-9.541296186496654 l2.560970269325161,0.1818457111870011 18.594967007476118,-1.1849882698022702 l1.4722474244327903,0.19761100248226618 0.7085324002099009,0.2605487768968561 l0.3419473781257283,0.7276666529460927 -0.034376949849611274,1.0459887137783057 l-3.033151508390013,8.844283621052362 -2.9131356059088445,4.11018360338785 l-0.8894156076884872,-0.28352382675630233 -1.7485384492003415,-1.3291369228213215 m-8.811223606788893,-10.395445243276885 l-0.0335904201799294,0.6430191251084522 -0.5999769146372188,1.210924924653059 l-2.163504345163445,2.99101068857447 -2.606206342697097,2.3626085357072624 l-2.91322716785401,1.9358393336508555 m18.14144538031859,-9.434323389299605 l-0.051777951460093674,1.028242203288992 -0.578097671687509,1.3676576881095055 l-1.2097637480134262,1.858511331822537 -1.772310291353617,2.121539356645326 l-4.289299960336075,3.7997269913057163 -2.484929007342524,1.6963286798661898 l-2.824385345594931,1.5863513359243233 " fill="none" stroke="black" stroke-width="1" /></svg>