<?xml version="1.0" encoding="utf-8" ?>
<svg baseProfile="full" height="105.18528409241597" version="1.1" width="101.4323334592411" xmlns="http://www.w3.org/2000/svg" xmlns:ev="http://www.w3.org/2001/xml-events" xmlns:xlink="http://www.w3.org/1999/xlink"><defs /><rect fill="white" height="105.18528409241597" width="101.4323334592411" x="0" y="0" /><path d="M25,25 m0.0,0.0 m32.11304474561447,3.7601492578864137 l0.3100294366653328,0.47544797406185174 0.39563555278784884,1.9917395654484504 l-0.02775883717405776,12.971245307575245 m0.8552724330750477,-8.433891772068414 l8.244906679061442,-1.271224312881975 3.2167929788872387,-0.2012751334875693 m-24.75331392094418,-0.22216759789440813 l0.6868777912838204,0.8470387212197914 0.31387884197626426,1.249391694276107 l0.16744046838305826,9.703585686935806 m-8.560693706000395,0.7685410652278496 l1.795836062044985,0.3499108970129716 2.661078521582261,-0.05976798009632844 l28.248485657249102,-3.4393654510937557 2.892979474331364,-0.10355658332639309 l2.871841280417476,0.44755656142181144 m-27.455325967299498,8.22986768310627 l0.5615369421575792,1.0857472528443513 0.1353333233616235,0.9986428070840704 l0.05504907934298803,25.620673618821684 m0.5169499992536477,-26.68926617116603 l14.23731080404339,-2.0422409641715418 1.2370240101277785,0.2659970814663952 l0.7310711893960875,0.862272305987307 0.2961742791546319,26.5872018670838 l-0.2896303524565837,1.0263573794764458 -0.45182769618517254,0.406673331665759 l-0.5624276818492163,-0.10345625435665462 -2.2310217778616175,-2.200717778251574 m-12.338283221689283,-17.770247588745136 l15.454800393313134,-1.6016646349405583 m-15.529153181683075,9.528444529097575 l15.366682333109546,-1.6203311611194695 " fill="none" stroke="black" stroke-width="1" /></svg>