<?xml version="1.0" encoding="utf-8" ?>
<svg baseProfile="full" height="110.82213152788705" version="1.1" width="123.23654352759166" xmlns="http://www.w3.org/2000/svg" xmlns:ev="http://www.w3.org/2001/xml-events" xmlns:xlink="http://www.w3.org/1999/xlink"><defs /><rect fill="white" height="110.82213152788705" width="123.23654352759166" x="0" y="0" /><path d="M25,35.26849416552766 m0.0,0.0 m7.808215583252623,15.915875058794688 l0.35134224341717074,0.46143379965622994 0.5629601081135557,5.506907248734188 l1.028415421296999,16.354128829425242 m-1.1358805889239008,-20.8944329141151 l7.95397507414495,-1.0337245291177735 15.95008118815319,0.12648951494404334 l-0.21698164882096277,0.764519287125789 -2.695549171138701,16.41324350930078 m-19.12824226471046,2.448860702114233 l20.545240729609507,-2.0216671640621486 m9.31481061422511,-33.91579650111576 l1.8190509229240142,2.2395656540402857 2.029773627339081,2.87330708330409 l1.899306296589222,3.0753401972859926 1.0466205512001312,2.3736603675273824 m18.321076248711076,-12.682996575500788 l-0.05274977700310974,1.6812909986203313 -1.7125358729089348,2.8928375807172007 l-2.9913427347797397,4.079206810069482 -3.1832648587888523,3.6179974372255606 m-8.280688924117458,-20.54454056050161 l0.6224712629350442,1.1662031093705936 0.2653650107985145,1.7794422315425698 l-0.38785839745970313,22.7693612280593 -0.9700481684774543,8.553837260501025 l-1.7120917615963063,6.924435494005563 -2.588467351794567,5.763014425187201 l-3.5515550585807074,5.034392947984072 -4.581986424829114,4.63698751199688 l-5.9020389024010464,4.194457319239855 m20.164511302429176,-30.03081981175342 l6.904243120492644,10.517335980407651 6.401375971272285,9.161205051568453 l5.058016036596064,6.048051864843267 2.9351433745183897,2.365910209788266 l1.3458307459039343,0.5754628951371817 " fill="none" stroke="black" stroke-width="1" /></svg>