<?xml version="1.0" encoding="utf-8" ?>
<svg baseProfile="full" height="142.79178359332616" version="1.1" width="96.57968492742032" xmlns="http://www.w3.org/2000/svg" xmlns:ev="http://www.w3.org/2001/xml-events" xmlns:xlink="http://www.w3.org/1999/xlink"><defs /><rect fill="white" height="142.79178359332616" width="96.57968492742032" x="0" y="0" /><path d="M25,25 m0.0,0.0 m25.036583256985033,3.182984104535998 l0.028259396416528137,0.5520424906396005 -0.5074094770801744,1.9789016022748702 l-1.8108828251513676,4.518019443163789 -2.076748844967007,4.163242273282288 l-2.1229506551737387,3.73306832466614 m5.607631400261051,1.1845066558455388 l-0.030306428851613908,1.3266948086636827 -0.3038123212193857,1.247827004945956 l-2.1635916730884373,6.233543927331376 -2.587651671203498,6.239100864933816 l-2.9784318842838635,6.144267428148729 m5.4326819409647165,-8.485417367432621 l0.388668946025401,1.0219218641265904 0.10915705153346843,1.1997067516900761 l-0.044771809696602355,27.476893647158594 m11.449542606797378,-56.73221202123476 l-0.23731687875619023,1.9936649108709965 -1.3694202140775993,5.024294884119894 l-1.377320271814202,3.9352732315298145 -1.7951598969625244,3.9786600774431626 m5.352145114902966,-7.246951064891203 l1.7931005088922052,-0.20066723742213044 5.522658667317055,-1.8319130557834675 l1.938763322948966,-0.3693326613238052 m-14.179536579448294,12.512087317385907 l2.160415018708705,0.17503596522332457 11.473849050743322,-2.571298212773683 l2.4471510285587064,-0.20832807120780855 1.424389048139322,0.2440316799425798 m-9.759086383715285,3.0398555263569875 l-0.062447802770895025,1.9484200448816835 -0.7433312209111365,5.448500853831257 l-1.7394503909974397,7.967650641217691 -2.008729766305432,6.780333810221576 l-0.010268432325031145,6.291390896713703 1.9839730081693843,-0.9773864099336446 m5.516608164822801,-11.398102070106738 l-0.3061011925015518,2.8468760080387683 -2.5476065232802867,6.086904791152131 l-6.834781983351788,7.527066393290833 -0.5897656103607098,3.8503580171133556 m16.40658231291331,6.173354718359194 l-1.216662118821144,1.5802666423687428 -0.44982225420102123,0.9874765850862647 l-2.4113989800201563,2.6788800785400615 -2.997369424239167,2.685997187132439 l-4.963577987072446,3.7470779874943148 m-1.179929873699708,-21.107506743669056 l0.3954200552227907,1.170331603776841 0.16910864162863615,1.5531192676484236 l0.013861939454273348,27.76874217340343 0.16832206920161408,2.3856062986380966 l0.4050338096794951,1.5628016983623174 1.0581549854528498,1.1609227151652208 l1.921201584258649,0.6110860328802648 3.9960835159792065,0.0021092795087465075 l2.2335782932561736,-0.6275816600805153 0.8318659747332019,-0.6277368443927159 l0.9425305201602242,-1.4345250544296841 0.3679238210704095,-2.1299765323417477 l0.07697565743179055,-3.176916862241419 " fill="none" stroke="black" stroke-width="1" /></svg>