<?xml version="1.0" encoding="utf-8" ?>
<svg baseProfile="full" height="103.94191807316301" version="1.1" width="104.24544264793562" xmlns="http://www.w3.org/2000/svg" xmlns:ev="http://www.w3.org/2001/xml-events" xmlns:xlink="http://www.w3.org/1999/xlink"><defs /><rect fill="white" height="103.94191807316301" width="104.24544264793562" x="0" y="0" /><path d="M25,25 m0.0,0.0 m27.10667203258013,4.416482443466236 l0.3945795329740054,0.46718906608174005 0.5819483152401812,1.603280903781812 l0.027378938607598775,6.661670055308464 m-22.513636836936154,0.7674186516786649 l-0.9277502362735319,5.340680547583403 -1.9670084829769252,6.185751456119144 m3.3804990585611505,-9.287828432081522 l28.105046085212873,-2.9331210048308765 12.10620334587872,-0.8029022935749643 l6.729562734974187,0.09173320394795918 0.9468640723938974,0.46900549003723624 l0.2750840876994883,0.633285510679353 -0.23377398286065035,0.769966773174823 l-1.450162096681582,1.6937532282625105 -3.003096358977585,2.342419955383895 m-39.185026753287,15.732120809077328 l0.7958461405509685,1.3201998259073766 0.6140174623114966,1.3006269189457038 l2.8694636378852953,17.170184964214723 m-2.346633293137477,-18.099060255104437 l25.65487633278889,-2.601215211796027 5.6696468566541265,-0.4091238598752896 l1.6554425158275847,0.2792289404119429 0.8173720563028133,0.8891057085678614 l0.03644973324688247,1.5311756852785114 -3.5103179981534005,14.925016509302912 m-27.824161889223678,2.5847253137540886 l25.607225484084623,-2.049545964612091 5.787831165492374,-0.3433533027458581 " fill="none" stroke="black" stroke-width="1" /></svg>