<?xml version="1.0" encoding="utf-8" ?>
<svg baseProfile="full" height="100.30766982081289" version="1.1" width="99.24730084699749" xmlns="http://www.w3.org/2000/svg" xmlns:ev="http://www.w3.org/2001/xml-events" xmlns:xlink="http://www.w3.org/1999/xlink"><defs /><rect fill="white" height="100.30766982081289" width="99.24730084699749" x="0" y="0" /><path d="M25,25 m0.0,0.0 m8.358068927884839,12.555610501844773 l0.5835739225031114,0.10132154047929472 4.086176832841472,0.11316585832219847 l30.79943183235595,-2.1003591180286505 2.941082999414896,-0.04002502943540112 l2.47896633199723,0.25588851730530027 m-22.60995150601951,2.4570090231216386 l-0.07426676608179024,1.1403311540166006 -0.3387481792705212,0.8628418981609639 l-1.5463833587083482,5.936487706044036 -1.8039975320560657,5.580958052894137 l-1.874756476801466,4.3335755250609065 -2.257645628655028,3.8831091330308802 l-6.258042722184891,7.167942596903221 -3.266846108244464,2.5678970514807298 m18.976132807007005,-23.73280761093819 l0.5070997429559845,2.2781830303973365 -0.14715621546974397,23.82336029733227 l0.3304650757373105,1.725008086926066 0.5489810112970819,0.6743522069720074 l1.171776063010778,0.43536092717742875 3.2297101096948486,0.2884584717453519 l6.704785358046103,-0.40113083280819367 2.0978766188833,-0.31636312335871913 l1.1364590226795432,-0.3175513875837525 0.9937923377966953,-0.7272450623036344 l0.6629129363796434,-1.1827770437750638 0.3535363767142574,-2.1453681741281847 " fill="none" stroke="black" stroke-width="1" /></svg>