<?xml version="1.0" encoding="utf-8" ?>
<svg baseProfile="full" height="93.13198699774745" version="1.1" width="110.56374887142748" xmlns="http://www.w3.org/2000/svg" xmlns:ev="http://www.w3.org/2001/xml-events" xmlns:xlink="http://www.w3.org/1999/xlink"><defs /><rect fill="white" height="93.13198699774745" width="110.56374887142748" x="0" y="0" /><path d="M25,25 m0.0,0.0 m4.745298119970542,18.307544175083894 l0.33907291080004265,0.43631184737853673 0.5055649066647117,1.1914574766323853 l1.7191343304797517,14.589540882395852 m-1.5730592202173077,-16.311974022684712 l12.87681672838211,-1.9778127959154426 1.9833743189361037,-0.05562111750959849 l0.5621815737413537,0.2728156216015913 0.32090103559093536,1.127280026398868 l-2.2245986103604927,12.745088681594469 m-11.491794958103409,1.8743460473153368 l12.639207388677125,-1.4875298559239076 m19.20234508430551,-22.57765133874166 l-0.13772952999162869,1.2905355283961835 -0.5722038340957737,1.202282239993198 l-3.587097137713801,5.654031706352913 -3.5068845524150993,4.344035324786308 l-4.232596481485116,4.1928002810808485 m8.973616589925225,-7.074945676048701 l2.637537859717099,0.05005461961035952 13.772497083405359,-2.2599425619821356 l1.4289833572585493,-0.10278406428410373 1.034371415149519,0.20217034196713954 l0.12249944366199815,0.4087155168081624 -0.7921190618312083,1.0350242624120038 l-4.1167904824444195,3.6398462447430315 m-12.916295003942945,1.315886325376638 l-0.051862273790618474,0.9514240027613328 -0.3814660318090161,1.0003543200641838 l-1.825769593536447,2.9357982527067215 -2.427906686876554,3.1618682804710168 l-5.569365704944579,5.829395949311302 -3.2928629734048434,2.600620869088448 l-3.791290948885411,2.4157494169310274 -4.383104634647226,2.205270189575963 m19.88966272748937,-16.798032896487094 l17.487215051582417,12.563031995061968 3.4474089980297355,2.0406949301794874 l3.7508576681559296,1.5749390785144992 " fill="none" stroke="black" stroke-width="1" /></svg>