<?xml version="1.0" encoding="utf-8" ?>
<svg baseProfile="full" height="100.49067484014961" version="1.1" width="100.4886613018079" xmlns="http://www.w3.org/2000/svg" xmlns:ev="http://www.w3.org/2001/xml-events" xmlns:xlink="http://www.w3.org/1999/xlink"><defs /><rect fill="white" height="100.49067484014961" width="100.4886613018079" x="0" y="0" /><path d="M25,25 m0.0,0.0 m6.7758966659297615,16.54546474620858 l0.2870731343495298,0.4147624245553032 1.0523982431944294,5.194657959181981 l1.2308781006467902,10.793287241010766 m-1.671490433283417,-15.933548570692468 l10.121694757633728,-1.9592105667869093 0.5618973873054084,0.07120811156871953 l0.39757527361316297,0.3534041462187338 0.23695916271595377,1.1465272368381223 l-1.974171060123176,12.868971319588068 m-7.8695851382356405,1.4139668863289228 l9.18290523835937,-1.2809347102021007 m14.333200555830432,-24.97257365654974 l1.2097702452699712,0.9875307861949106 1.1319952162035347,1.4043699791052102 l1.0194130665690342,1.7608176885632392 0.5210036013972783,1.5320218419344145 m-13.424264685093974,4.369210345188064 l2.341412156583358,0.25267240640512767 19.710748264114457,-2.512428987330276 l1.7949518231836261,-0.09099884553725354 1.3334732758023187,0.31339455285616163 m-18.513756572747894,6.401499279761419 l-0.11511669793105972,1.5196990464621078 -1.431065311218646,2.969164095548126 l-1.9756521672581357,2.8019417878772543 -2.625090956708725,2.7920966403499006 m16.8749733749271,-11.146296377041102 l2.5786346644150093,2.3651670181629547 2.2397354484130996,2.4063870036667265 l1.8785088808476251,2.525447688591521 1.5313685836997275,2.588653326622757 m-7.354094813268037,-2.4796847535980717 l0.20569606839745336,0.834523902818436 -0.09021059441066422,1.08637256085307 l-1.1090369193588943,2.376950509234497 -3.1459549710486017,5.21100765666809 l-3.084945667605973,4.071538180967648 -3.541465268062823,3.7545761294207534 l-3.085658238529026,2.795450681465193 -3.334746590635938,2.591581357793922 l-3.474696926224768,2.352026769876848 m7.494863388832035,-21.78418298862044 l0.7621334581890685,0.44587487455738106 1.7569383224341033,1.702183156281221 l10.784891006150715,11.888664686054167 4.510027811853145,4.582509288865539 l2.2998473204812764,1.8413680816242235 2.148799816210777,0.4501009376662693 " fill="none" stroke="black" stroke-width="1" /></svg>