<?xml version="1.0" encoding="utf-8" ?>
<svg baseProfile="full" height="104.02476361791994" version="1.1" width="105.37157345909952" xmlns="http://www.w3.org/2000/svg" xmlns:ev="http://www.w3.org/2001/xml-events" xmlns:xlink="http://www.w3.org/1999/xlink"><defs /><rect fill="white" height="104.02476361791994" width="105.37157345909952" x="0" y="0" /><path d="M25,25 m0.0,0.0 m37.11534706527841,2.4829800653082073 l0.27932185982477614,0.4422776313847544 0.3941897765905911,1.6232863181939616 l-0.03751514697794061,5.722420393514392 m-16.36518871152293,2.144407029380699 l1.6412804463302746,0.3298050988886812 1.754093377360047,-0.025835948527595538 l26.378874684175216,-3.184003554649058 2.7584553053247127,0.291962548604874 m-30.742124058434204,3.317798713509179 l0.44040890362365925,1.668253757818702 -0.23836769065026026,8.660224079310117 l-0.6138210760596732,7.524420162418624 -0.9446094308012807,6.524386376607889 l-1.210268942619963,5.319397414296931 -1.5932901699506725,3.7440018488187614 l-2.211748367132371,3.0196591533682353 -2.316809603511346,2.085028953253932 m26.63770272589708,-26.658688494457152 l12.124288588767993,-2.040943211683122 2.1213539235873844,0.2003927734244529 m-14.889361953105498,-9.042929590631413 l0.606158906244216,1.0281493044523378 0.30329143486613835,1.5863074672949484 l-0.045886124195593174,18.659387244640435 m-10.128328105993013,0.8087440059488389 l0.49970976065074363,1.0751996920804674 0.25151019437188865,2.905049824505247 l1.2004825142721662,13.813624560843627 m-1.0181449768216122,-16.7082751983583 l19.80887732713675,-2.065029214455014 1.3542864185927876,0.34384540251496815 l0.46252941635670064,0.9656172246602881 -0.024398952115328835,0.7892576291362172 l-2.4429507681792737,11.976960475094991 m-17.97329333074157,2.4908335092269396 l19.034875069413175,-1.7588461746262596 " fill="none" stroke="black" stroke-width="1" /></svg>