<?xml version="1.0" encoding="utf-8" ?>
<svg baseProfile="full" height="104.77086831600462" version="1.1" width="92.33119323330614" xmlns="http://www.w3.org/2000/svg" xmlns:ev="http://www.w3.org/2001/xml-events" xmlns:xlink="http://www.w3.org/1999/xlink"><defs /><rect fill="white" height="104.77086831600462" width="92.33119323330614" x="0" y="0" /><path d="M25,25 m0.0,0.0 m12.150683746414431,12.051260511511662 l0.46937621638783916,0.1016186999166754 2.65997320157923,0.1501990929830097 l23.713887142317567,-1.6554958540194997 3.3372729266070738,0.16730296615463067 m-15.98841630888993,-5.8858609374430255 l0.6836843025004172,0.7514033316570085 0.27134763933690986,1.26063780865763 l-0.10735362106539637,17.81384054468474 m-0.983877952279213,-6.688457345130296 l-2.131019414971141,1.8584306234355468 -4.315376947046839,2.2666128093491666 l-5.746530874561456,2.3697934516730355 m18.471544322081694,-5.872745670843231 l2.7339358020086815,2.206446740864559 2.5596653470697452,2.437001289367732 m-13.520584338711368,7.475890804564556 l0.010782626799203405,0.6332172886798224 -0.4450624191038647,0.6509704813858476 l-2.847149241857559,1.5964008278321407 -4.171309297378252,1.762805307023601 l-5.48945025542032,1.6988035198022813 m-1.3241769294660626,4.127863440809552 l2.0031618931595854,0.19440757841249393 16.610493545548007,-1.9352647730591133 l2.845692144158908,-0.17053257180497772 1.7006838247257163,0.16099198525107897 m-27.312793681292508,8.941917544568275 l1.5240412473488474,0.25295505914591626 1.8115960455755638,-0.06774599030829762 l19.970900350918043,-2.6761126044785626 4.621683858006176,-0.28748201808863827 l2.6557692932951027,0.1510760951031294 m-17.16645966896126,-10.369401424096143 l0.33411706914482614,0.664295560414266 0.17010578777385427,0.8205815190734309 l0.09248549124169353,13.48216226355695 0.39054975195234193,2.105086307240094 l0.6803044872408239,1.0993509657634757 1.421092086557444,0.7238006736277913 l2.34732679631352,0.3780609363924859 4.993658091717463,0.02478147637380311 l3.0149218249310255,-0.35163516200334477 1.2701119540870316,-1.3157521636774279 l0.23473325932243924,-1.5183321056293326 -0.0036598495446714383,-1.9817902570636114 " fill="none" stroke="black" stroke-width="1" /></svg>