<?xml version="1.0" encoding="utf-8" ?>
<svg baseProfile="full" height="100.68264322593717" version="1.1" width="99.16901067681388" xmlns="http://www.w3.org/2000/svg" xmlns:ev="http://www.w3.org/2001/xml-events" xmlns:xlink="http://www.w3.org/1999/xlink"><defs /><rect fill="white" height="100.68264322593717" width="99.16901067681388" x="0" y="0" /><path d="M25,25 m0.0,0.0 m5.71391631015679,15.280165655173063 l0.273412007716565,0.4368064605320461 1.0021036572750959,5.440325510030438 l1.2260476285121902,11.18290904116671 m-1.5740782565710134,-16.57052197761968 l10.089181059414075,-2.124742755601054 0.5480186919218895,0.08015636444837333 l0.39548619139355823,0.3759359746652646 0.23673858499275507,1.1982690831526575 l-1.9687685914300035,13.499773321808597 m-7.830395077281548,1.452559555603865 l9.160014085527028,-1.3119662023055438 m14.27044863042424,-26.343986592713005 l1.199077958952317,1.0580826878337504 1.1704554347001164,1.4753852467797959 l1.0189247636497023,1.9071194700424445 0.49414691856340537,1.578945487614326 m-13.184517144868314,4.520627231284805 l2.3416702855501845,0.2706717159827023 19.553370586642615,-2.6196965986631517 l1.86437833692229,-0.09804337405855236 1.3007067710262135,0.33213948134538596 m-18.44815115246746,6.885737431181944 l-0.09364171603824885,1.5592844424679215 -1.39317804397546,3.107683170414848 l-1.9369360802530406,2.9645664718811475 -2.5952102714241936,2.9720273963226145 m16.690206512589878,-11.755311630378898 l2.5600864607602403,2.4741597629896313 2.2245039157705606,2.5112215626299905 l1.8906583546630222,2.634796166756293 1.549359210013464,2.695921347621868 m-7.472138233680982,-2.7356733496908796 l0.19477536428875467,0.8737088493583128 -0.09281570315182457,1.1436136269673085 l-1.110746634021457,2.484690591184171 -3.2001837643674023,5.43834826552363 l-3.116612352822406,4.235482627602538 -3.5404895160259056,4.007324770228034 l-3.0833737072579575,2.9488522221341373 -3.29561912311656,2.7232729964712736 l-3.461309136499776,2.4920217177680497 m7.564079990943518,-22.782726295647777 l0.7513667825374404,0.45636728408541344 1.7466381841648833,1.7898119992256685 l10.696108039164413,12.489669508541256 4.526546791201658,4.840307372098665 l2.2066310342447895,1.9879542993506139 2.108116638383784,0.5157246670240953 " fill="none" stroke="black" stroke-width="1" /></svg>