<?xml version="1.0" encoding="utf-8" ?>
<svg baseProfile="full" height="109.21405211105593" version="1.1" width="109.49251182316546" xmlns="http://www.w3.org/2000/svg" xmlns:ev="http://www.w3.org/2001/xml-events" xmlns:xlink="http://www.w3.org/1999/xlink"><defs /><rect fill="white" height="109.21405211105593" width="109.49251182316546" x="0" y="0" /><path d="M25,25 m0.0,0.0 m1.8798489875848645e-07,12.50414252281189 l0.391155406832695,0.541207566857338 0.5485827103257179,1.8752878904342651 l1.3575032353401184,17.990599870681763 m-0.9622278064489365,-19.66120481491089 l13.575351238250732,-2.6627886295318604 2.077421396970749,0.0013657660747412592 l0.603850744664669,0.3669358417391777 0.34289833158254623,0.6322586536407471 l-0.011108231265097857,2.1247678995132446 -2.327265590429306,14.962968826293945 m-12.610210180282593,2.4022915959358215 l13.792052268981934,-1.8871016800403595 m16.899080276489258,-28.34383487701416 l-0.09232578799128532,1.8541641533374786 -0.5072455480694771,1.847972571849823 l-3.2416003942489624,8.851985335350037 -3.2326772809028625,6.713742017745972 l-4.092199504375458,6.650370359420776 m9.21291172504425,-11.380655765533447 l2.7876195311546326,0.17654802650213242 16.30287766456604,-2.699163556098938 l1.853799819946289,-0.2223694883286953 1.6640494763851166,0.22646678611636162 l0.4382743313908577,0.9287209808826447 -1.0181330889463425,2.261708825826645 l-4.544905722141266,5.11707067489624 m-15.733625888824463,4.288869798183441 l0.31266938894987106,1.21170774102211 -0.09274405427277088,1.4222177863121033 l-1.9192655384540558,6.5148866176605225 -2.1384255588054657,5.298444032669067 l-2.959524095058441,5.417174696922302 -3.0935513973236084,4.237881302833557 l-2.811657190322876,3.033093214035034 -4.485540091991425,3.7403783202171326 l-3.9734691381454468,2.502083480358124 m20.686802864074707,-25.36027193069458 l18.830090761184692,20.25376558303833 3.451928496360779,2.9828330874443054 l4.211294054985046,2.4975310266017914 " fill="none" stroke="black" stroke-width="1" /></svg>