<?xml version="1.0" encoding="utf-8" ?>
<svg baseProfile="full" height="99.8252672037859" version="1.1" width="99.07080327745518" xmlns="http://www.w3.org/2000/svg" xmlns:ev="http://www.w3.org/2001/xml-events" xmlns:xlink="http://www.w3.org/1999/xlink"><defs /><rect fill="white" height="99.8252672037859" width="99.07080327745518" x="0" y="0" /><path d="M25,25 m0.0,0.0 m12.948861705310057,12.362539937164065 l0.4421332761801892,0.11308041012013809 2.8450836277306233,0.018860648866467784 l21.151243182097915,-2.2564464780926463 3.3122601399645935,0.11718287964149178 m-14.837856659298566,-7.022658389315337 l0.6605072889904998,0.9161779444117943 0.25193970708016866,1.3378536651861888 l-0.01775295302667096,13.292089617898537 m-10.934609231051574,1.6231408562996092 l3.1264941423018997,0.14548963065592438 13.23022448937686,-1.5757465446908943 l4.29732197425981,-0.31090529004000617 1.575496376950803,0.14898176738173055 m-22.395856807306437,7.663625771695624 l0.9435247632445772,1.2210251692737804 1.92824356330571,9.597044168602405 m-1.4836785046176082,-10.053909120913469 l14.967453455575248,-1.9506746312309087 3.219597842428253,-0.11941636539639366 l0.7507037481706405,0.22240730672266917 0.6019459373102481,0.7616143683331866 l0.023891367238542356,0.6428822176483514 -0.8173205099432432,3.561230596923396 l-1.2609547340131981,3.656420779962704 m-15.736556099985048,2.120559948344752 l17.092037240754117,-1.8414293802057884 m-20.313749676241013,5.414951989149059 l2.158794103893933,3.0343409695420442 1.0565821251966812,2.101351826448164 l0.5649982182125467,1.7038996049927502 m16.53712921272537,-9.468332759852954 l-0.07389979322004034,1.232046582187637 -0.8349471154521099,2.2224629400453453 l-1.6947041103629834,5.639649398821001 m-28.15753588760995,3.201107491957477 l4.3553975810507755,0.35276767524799557 17.004464006022218,-2.7131512332096857 l19.93303749685169,-1.5225497296785153 2.6508587873596534,0.3374869184485783 " fill="none" stroke="black" stroke-width="1" /></svg>