<?xml version="1.0" encoding="utf-8" ?>
<svg baseProfile="full" height="98.00385206450373" version="1.1" width="113.57973887386312" xmlns="http://www.w3.org/2000/svg" xmlns:ev="http://www.w3.org/2001/xml-events" xmlns:xlink="http://www.w3.org/1999/xlink"><defs /><rect fill="white" height="98.00385206450373" width="113.57973887386312" x="0" y="0" /><path d="M25,34.70300460903226 m0.0,0.0 m4.565631659643193,3.6391731317243203 l0.3819727848522166,0.49258914988739605 0.7101629612758051,1.390611865992229 l0.5913532837811674,1.8664933761362368 2.34723182879388,14.897416512362978 m-2.7064461131405197,-18.09443909643119 l14.977919155405806,-2.4549768388161075 1.826493135053523,-0.16997235249900677 l1.4478157364049253,0.41466046722762245 0.3669233857582896,1.1902829739934904 l-2.4520755553198423,13.857196808713379 m-13.173687549576881,2.18849109334235 l14.706308290578756,-1.542718784681288 m9.488196511696488,-27.15142534400182 l0.7477902906171616,1.1352004130381044 0.25723868560437374,1.1939112273603998 l0.03758953459036302,29.77509663808146 m0.7220537121383456,-30.208122345639936 l19.33213940127364,-2.1224735048228895 1.522161127172363,0.22231423402954026 l1.054335256777535,0.8601759943855858 0.2957828439877535,1.3633368823322138 l-0.03477491326563857,29.402730287555244 m-20.931845964090368,-18.939085364994774 l19.947889795363043,-1.6295327933166204 m-20.12745245154835,11.13483866461349 l19.754727384550854,-1.3790420769279403 m-20.0436322941189,12.248426643837943 l13.440274424151328,-1.1048936424942883 7.7182822462174645,-0.36984298430354934 m-17.135053934205263,5.541369672524786 l-0.10064642370825254,1.653908067336178 -2.9402011704503392,2.3154846990714386 l-5.725749824613349,3.6642411016998713 -5.230325884784461,2.594433025622738 m26.117975926674273,-9.670240236220149 l3.4220171888533035,2.231081714984499 3.392009124136565,2.6309966624536565 l3.257897504239143,3.0681184184300547 1.7514577730937426,2.1650330938838245 " fill="none" stroke="black" stroke-width="1" /></svg>