<?xml version="1.0" encoding="utf-8" ?>
<svg baseProfile="full" height="108.51095222927111" version="1.1" width="97.83515247877452" xmlns="http://www.w3.org/2000/svg" xmlns:ev="http://www.w3.org/2001/xml-events" xmlns:xlink="http://www.w3.org/1999/xlink"><defs /><rect fill="white" height="108.51095222927111" width="97.83515247877452" x="0" y="0" /><path d="M25,25.48183367517222 m0.0,0.0 m5.70930889585204,3.2206584257621453 l0.27825055977651786,0.3383160375273095 0.5317337749303761,3.2049454694811623 l-0.18717317257078317,51.046060059031205 m0.199192435966683,-54.565321480208894 l11.915485014188063,-1.9325663717543509 1.4221502665910282,0.31864456026302324 l0.416061107127008,0.35417513749104695 0.19082605119050827,0.7989233888928682 l-0.7616352981127913,15.532661759121611 m-12.826158175214044,-7.67947530033867 l8.249247235552465,-1.24676204632799 m-8.372793221468244,9.14748477020764 l12.113676295593962,-1.7967628954970383 m13.485692043295513,-16.258591832420738 l0.50555597011265,1.7542628324500371 0.003007129799560786,15.05412982276518 m0.45057625040419663,-15.8204226059794 l12.802199299990912,-1.9521934056383712 1.2643576398355931,0.4223144848427635 l0.4455923759332912,0.8001808157742919 -0.41454408034748247,55.089284994916014 l-0.3440589610827236,1.4404588956143667 -0.5277999878731828,0.7017508415791387 l-0.6488079615409981,0.05696219654452666 -1.5117224090573562,-1.0888480586256657 l-2.0451461932431427,-2.3517349709878803 m-9.06245705982243,-46.057558609041614 l8.992430056033403,-1.1374079376622415 m-9.11728031801799,8.474977275622084 l13.815943885596736,-1.3940048528244497 m-31.11098709889652,11.508336437719478 l1.9746844738223783,0.18602129563335415 13.376144369806557,-1.7363386297793983 l2.5396533002878696,-0.2696754203873744 1.6304345449976387,0.19478804348583256 m-21.303117988570268,11.38279514568747 l1.8200288420518587,0.25171164461662526 15.660291426353524,-1.7373437276042671 l4.250224979755386,-0.1230167645357204 1.837652764165491,0.22941232053248273 m-12.427338962175533,-16.89536565063004 l0.6374967382260421,1.3751634607127368 0.08632558161865062,18.474360809979892 m4.56983987851652,-6.7592292461657655 l2.1564972931203554,1.580701349133986 1.5145922324017569,2.156286021145473 " fill="none" stroke="black" stroke-width="1" /></svg>