<?xml version="1.0" encoding="utf-8" ?>
<svg baseProfile="full" height="100.70245460928321" version="1.1" width="100.68095891478774" xmlns="http://www.w3.org/2000/svg" xmlns:ev="http://www.w3.org/2001/xml-events" xmlns:xlink="http://www.w3.org/1999/xlink"><defs /><rect fill="white" height="100.70245460928321" width="100.68095891478774" x="0" y="0" /><path d="M25,25 m0.0,0.0 m7.903690750720938,18.225816314963996 l0.27119445790480734,0.3949065639999727 0.39179640089159595,1.5245726993419124 l1.5369945987239897,13.701144884666597 m-1.2518904112986728,-15.298936283192665 l10.941557917731094,-1.7992948683399805 1.1502638006369994,0.033577380461563194 l0.9211112512830824,0.3172730207624637 0.5002808250203025,0.428523361429539 l0.12206297222283082,1.5119712152707157 -1.946911307110677,11.244822260666755 m-9.533316267644908,1.7569358492966285 l11.101032803240402,-1.2254037196346146 m6.124508233793933,-23.659359506874384 l1.4636519866270397,2.148954621317161 1.8104425132587032,3.1584055483736506 m19.17448838878628,-7.064564234233398 l-0.13050858084127093,0.7837565193705938 -0.8053720901329329,1.5054528521275634 l-3.8188539840778177,4.165349123954469 m-19.753955024216737,-10.964563912882413 l0.45948341207804005,1.0005764809168711 0.13869197593165622,0.9971613878337657 l-1.0318720035052287,12.447803386203466 -0.8994215996476288,4.392134206503518 l-1.1694260753571664,3.775471560886604 -1.62239143590328,3.611631214976501 l-2.0692312678449145,6.612086853973101 -2.150160638129214,10.243824678162369 m7.527033254796851,-19.092524335630216 l2.2687365951531304,0.11379878466163161 19.69820095404212,-2.1740575684257846 l2.7389720489891043,0.16629255737907514 m-13.253989040138409,14.249190644743107 l0.5741612043084875,1.3114781815258207 0.05305556563560085,0.691255501665873 l-0.07938943615452798,9.878822226151556 -0.16519935032333308,1.019437976017843 l-0.3078804489134736,0.5002098217064163 -0.4306061187385039,0.06852135918556065 l-1.1188483230414585,-0.7897520284081916 -1.2652275828671082,-1.3078144161452012 " fill="none" stroke="black" stroke-width="1" /></svg>