<?xml version="1.0" encoding="utf-8" ?>
<svg baseProfile="full" height="101.5185430284194" version="1.1" width="106.94214687590423" xmlns="http://www.w3.org/2000/svg" xmlns:ev="http://www.w3.org/2001/xml-events" xmlns:xlink="http://www.w3.org/1999/xlink"><defs /><rect fill="white" height="101.5185430284194" width="106.94214687590423" x="0" y="0" /><path d="M25,25 m0.0,0.0 m28.091975013437864,11.754449875862933 l0.3762120257992258,0.31406122814902965 0.5611125632419736,1.2782724984419465 l-0.056031915827130296,4.157326494558501 m-17.577721827647554,0.7432960529443916 l-0.6076635483835646,3.3334302133600056 -1.418241347375867,4.312749590687837 m2.619987527798034,-6.520629545989631 l23.066405117100288,-1.9291524836591984 9.147459699624891,-0.5544572873634435 l4.77853753104846,0.0001204727812013787 0.7672135450202558,0.26018233269851826 l0.2831891275535016,0.4127008618083201 -0.15297493691613442,0.5252440862069158 l-1.1765254444082638,1.1938034402016047 -2.4052847136943813,1.5188915145959199 m-28.62423201285845,2.899496798655235 l0.6188830725639459,0.6535998086076558 0.30353795152833946,0.6805974769295079 l0.07525035189465665,25.711232517038358 m0.5502922614862645,-25.940227085137803 l18.546213043233184,-1.5676055307437557 2.231352147266693,0.004600815883527783 l0.5935159404809529,0.22157040125872024 0.5001384310101123,1.6876887925220008 l-2.144954522679662,21.610287235330308 m-19.842114664884633,-12.16322987661465 l20.195880877237123,-0.9995975909693506 m-20.147645358867152,8.770510619808713 l19.86073553196728,-1.0530695017119207 m-34.836258281245264,9.901648676529687 l2.123863147543851,0.2739778056833647 2.4609183836514426,0.026772320064950717 l38.79336373196507,-2.087478378741534 4.589613450329317,0.002473119809874209 l4.796144977909573,0.46654089815666155 " fill="none" stroke="black" stroke-width="1" /></svg>