<?xml version="1.0" encoding="utf-8" ?>
<svg baseProfile="full" height="84.63033292399373" version="1.1" width="95.2462063843232" xmlns="http://www.w3.org/2000/svg" xmlns:ev="http://www.w3.org/2001/xml-events" xmlns:xlink="http://www.w3.org/1999/xlink"><defs /><rect fill="white" height="84.63033292399373" width="95.2462063843232" x="0" y="0" /><path d="M25,25.136965086226155 m0.0,0.0 m15.230605048135631,2.917905551644455 l0.3974956549694667,0.16840375488839324 2.8836893679272837,2.0456893911560594 l1.466763521486798,1.5484371612804972 m-7.601648536843865,3.7825713640725382 l2.609010190348134,1.8215451736057235 1.403986035507605,1.463759649772627 l0.6188419447590646,1.0270986726208198 m-5.000749955335061,12.983752746813497 l0.6441228328064008,0.31485106562215714 0.5918898510888051,-0.38608729658637075 l3.5008782610481104,-7.600088655388095 3.3485662029053285,-4.2063311216871035 m6.952053901314815,-14.106890102447235 l-0.027208216745772153,1.4576936849080846 -0.28799333255859055,2.8872983098626746 l-0.6506029420350802,4.9986204022190766 -0.7492131423194601,3.911696086969092 l-0.6976599545315407,2.8389162507649712 -0.8740582289817945,2.539005708307062 l-1.0799689201903617,2.2246764500174847 -1.219288885665886,1.918977221212691 m5.5447825513592415,-22.114770474614758 l8.792712141213727,-1.9041689175849357 0.5748166264550417,-0.6695271636555667 l0.7960763270721086,0.1420522981452566 0.43633429750224967,0.8718814090237329 l-0.569389549966004,6.676294168481505 0.182944541468915,4.875333419617848 l1.33082674089148,2.5596386868418906 0.9950669970145755,0.4330737154900795 l2.313984366251816,0.16118035237005843 1.9509684015445177,-0.19561940546440443 l0.7790463846129795,-0.32780465531408076 0.42818140621415324,-0.5652490223086611 l0.2303444555983745,-1.918792068191163 m-15.945827412038247,-8.146435409049179 l2.00343274626559,2.27446657382254 1.395545501483248,2.7177240041018247 m-20.817273532511773,17.005970996272936 l-0.2747636697682604,1.674217726362992 -0.9452078077793078,2.2305595274474483 l-1.3104703036836585,2.3988613575528603 -1.2309402220527947,1.7629792487902474 m10.976917836556606,-9.369469724150823 l0.8639740638924911,1.1686333930524226 0.9015599917474663,2.009842423900411 l1.198069429118152,4.835135169801917 m7.315774413284688,-8.460608955086395 l1.0099413629930107,1.501975383491478 1.182715332016685,2.3883047424646984 l0.8970720932222516,2.2438940121236803 0.4328482184879605,1.7303015484780337 m6.06006163883275,-8.367391689634415 l1.4932466963615914,1.7030717041126875 1.5924092399082537,2.44822466009296 l1.2891776222328206,2.5406540741907366 0.5526181789702787,1.7326627271430697 " fill="none" stroke="black" stroke-width="1" /></svg>