<?xml version="1.0" encoding="utf-8" ?>
<svg baseProfile="full" height="107.03533161312339" version="1.1" width="103.64684270041033" xmlns="http://www.w3.org/2000/svg" xmlns:ev="http://www.w3.org/2001/xml-events" xmlns:xlink="http://www.w3.org/1999/xlink"><defs /><rect fill="white" height="107.03533161312339" width="103.64684270041033" x="0" y="0" /><path d="M25,25 m0.0,0.0 m12.270601800297186,10.056779431113409 l0.09852370675983813,0.427190550641769 0.045753855477349045,0.820398483213284 l-0.49809869146990665,1.670576082850906 -2.0002648394341804,4.753231525011856 l-2.426524996755494,3.8792682267798173 -3.1193335974200744,4.098120029141799 m7.097202596600405,-8.810192907762287 l8.8183334002993,-1.4242496322417089 0.5351519221780602,0.13357559291494173 l0.32044292649196787,0.46521558406531527 -0.028898484508505663,0.6122439506477535 l-0.3559798956766439,0.62315792039895 -3.8551607994217267,9.130810319768358 m-9.655076506181354,1.2012532991329887 l1.0040964448743763,5.397561489337371 0.9982918014547661,10.105713420524111 m-1.282373116983872,-14.864730217840744 l14.201524536140782,-2.4673618869160623 0.7610773825973823,0.007730529701901281 l0.5482061657816386,0.28211572470562885 0.3736019414465869,0.9901371487445695 l-0.1378092886111786,1.495676596425276 -1.8870892808741215,13.08967567359673 m-7.0754699028123245,-14.545547939508175 l0.481466608237842,0.7269539951778516 0.3385723037955125,1.629268471238375 l0.0056949441995986765,11.686129322522346 m-6.760568370964308,-6.201422170079796 l10.376598174101607,-2.195947604613549 m-10.168363694629004,9.265209552970108 l12.829956450361534,-2.1104213228982984 m-15.147901575336435,9.064244610392658 l-0.229720776233867,3.8540551061397035 -0.49791040687640054,4.188912657826228 m5.554161442764365,-8.648384392503006 l0.7720767326224734,2.7663005571187624 0.5665331506531549,3.8840350974367803 m3.0860675224247194,-7.7362188902468985 l1.5127043805589258,3.0642727601821855 0.8683490576160965,3.129795377124404 m2.573226955056781,-7.755173347944305 l1.729973746584243,2.6676744956940737 1.1627371294237332,3.098118011748101 m12.14946114540119,-40.98965758969708 l1.8138931384070027,0.8451336953599692 1.386275096187936,1.2634476402309114 l1.208688646803528,1.7131054850811795 0.7651173185079901,1.7511741972612107 m-13.542104374705044,3.138121481889136 l2.3374065844302874,0.2609886884695885 19.981022053788706,-2.1559113597331363 l1.8172623710761586,-0.03947196032923553 0.9212802970681334,0.286777133522966 m-15.327914681377615,2.7703330474996912 l0.0521804062354387,1.3748979597186184 -0.28231721077344435,2.639745861636165 l-0.5873520423009302,3.0810268282602706 -0.9849832556729404,3.1600286630938594 l-2.45627573674911,5.079718707655743 -1.7154464490271488,2.417362397862347 l-2.0271016105496082,2.262866358806557 -2.1139580369746978,1.763698147363153 m2.3062875017467035,-18.942134518791335 l2.1475577426336216,0.31638538816160583 10.764691900663072,-2.130951835905753 l0.6346984185074787,10.05978217975571 -0.14775345802750375,2.318001798371251 l0.26731061274553103,2.8089306956944275 0.6637489824984059,2.900507723321081 l0.7441258512384574,1.9868346648472501 0.8888222000926373,0.9156772275058537 l1.7114796401760182,0.4836697576883518 2.3051820681686874,0.01940460709712546 l1.831724574657641,-0.34581022827173546 1.22137512915579,-0.6055255893289856 l0.8647468166580526,-1.2098550407380344 0.24332820510906716,-1.067835542302899 m-19.960374166318065,-11.485597292771416 l1.9814776822146334,2.345642222640127 1.0924058542868067,1.914127780564735 " fill="none" stroke="black" stroke-width="1" /></svg>