<?xml version="1.0" encoding="utf-8" ?>
<svg baseProfile="full" height="95.96447530843176" version="1.1" width="107.71709764921984" xmlns="http://www.w3.org/2000/svg" xmlns:ev="http://www.w3.org/2001/xml-events" xmlns:xlink="http://www.w3.org/1999/xlink"><defs /><rect fill="white" height="95.96447530843176" width="107.71709764921984" x="0" y="0" /><path d="M25,25 m0.0,0.0 m26.204709532851222,3.2439148265857556 l0.3704566761368195,0.3528001897066017 0.5181357223777703,1.5659722659860211 l-0.012715728207284907,4.556754428921594 m-17.523720643796768,-0.04018970714202354 l-0.704555757230953,3.7072114725747833 -1.6323766157887565,4.436313738658774 m2.8112809908324032,-6.552296800655992 l22.432709983644518,-2.1456873680267794 9.92448902285167,-0.670037413505973 l4.692406820242131,0.01900568553664173 0.763686167656478,0.3402044234387591 l0.19427699812811042,0.5275162082875918 -0.26029034709373994,1.8734691504592633 l-2.743448214597594,2.8314534505595472 m-17.35528081324428,6.483358207135145 l13.695903198901338,-0.0582693757844961 2.5806222436377944,0.0760706545115397 m-17.376354638390143,-4.526144800281571 l0.24088129747201611,0.9194048627593832 0.06172973858471211,1.4134031198391672 l-0.361727368614931,4.8091121293688195 -0.8118598004901912,3.690948164516239 l-2.167232844957435,2.313383717062226 -2.0688297076154476,1.0381855696293874 l-2.9709047459665627,0.874444533551447 m16.623931599557043,-7.38667974209819 l0.09544023038908646,0.7585799771420271 -0.6251612183207573,1.3248391346154067 l-1.9702187264895878,2.278010775463685 -2.536429252254632,2.2621592329763502 l-5.472036268781012,3.8528163758795824 -6.397997260357743,3.4110472238458405 m27.83705280041672,-6.3333640475121085 l-0.6766439387076182,1.3720629405685127 -1.8792869135755574,1.9010801414373972 l-3.0246173729456416,2.341380925647388 -3.263589959520939,2.1199212498769593 l-7.715941234960617,3.803249144107589 -9.02365746937576,3.1790706427894553 m1.221619268633031,-20.883063200964028 l2.67455514288584,0.7242277322982856 6.4748390814114165,2.0254747234708006 l20.59706322081557,9.037323308683 2.872499592241633,1.0392481218222562 l3.403685160836466,0.6906041664684561 " fill="none" stroke="black" stroke-width="1" /></svg>