<?xml version="1.0" encoding="utf-8" ?>
<svg baseProfile="full" height="102.50543828514235" version="1.1" width="101.81772575461397" xmlns="http://www.w3.org/2000/svg" xmlns:ev="http://www.w3.org/2001/xml-events" xmlns:xlink="http://www.w3.org/1999/xlink"><defs /><rect fill="white" height="102.50543828514235" width="101.81772575461397" x="0" y="0" /><path d="M25,25 m0.0,0.0 m26.3370782017917,3.5035255428570213 l0.3259661379960622,0.39306822623743914 0.4646681359045445,1.056902649020125 l0.076108949569694,1.2004330525038576 -0.04559732840306746,12.435567253462953 m-14.63201075638873,-10.255052709380532 l1.5373985458501809,1.1827406660153947 2.0801747944076654,2.137609164365437 l1.7242038593342628,2.284874914701439 0.7165728341687418,1.5212536952981282 m23.38658324433772,-9.985827427951026 l-0.25918371992450434,1.442984698961715 -1.2109597718102145,2.3810973869593237 l-1.6764030243399588,2.2707928443812984 -2.141108825808419,2.332959829905261 m-31.020354909337144,5.200167194843703 l-0.8177742663674168,6.052780909917059 -1.5171673591487271,5.974825067978667 m3.065077600577511,-10.179887364571423 l25.3658922591006,-2.8014191726646644 12.56707429270712,-1.0027788014945216 l6.20694427377064,-0.12697260039261887 0.9499954044498169,0.4008034398102177 l0.3345471821759126,0.6667771334475464 -0.17966255854007698,1.7675565305946666 l-3.2445121516989675,1.9721469146348543 m-33.83621651291782,5.168946339797406 l0.5169550402986766,1.6703702489342287 1.9687320487602602,23.83919265696939 m-1.1765995188070861,-24.120856210904453 l22.13672832133194,-2.543113082970744 1.6436361065267742,0.4134958426380032 l0.44878897042638255,0.45276783573351687 0.27197487535997406,1.9496959575456991 l-2.0347734496803427,11.369307656859284 m-21.142224824867217,3.070633418357556 l22.15842694479428,-2.1407287351707094 " fill="none" stroke="black" stroke-width="1" /></svg>