<?xml version="1.0" encoding="utf-8" ?>
<svg baseProfile="full" height="109.77973672609266" version="1.1" width="99.73115103691313" xmlns="http://www.w3.org/2000/svg" xmlns:ev="http://www.w3.org/2001/xml-events" xmlns:xlink="http://www.w3.org/1999/xlink"><defs /><rect fill="white" height="109.77973672609266" width="99.73115103691313" x="0" y="0" /><path d="M25,25 m0.0,0.0 m27.533686606320032,3.175336070037238 l0.4073843163838532,0.4019183845799057 0.6056099367058468,1.586562956761768 l-0.031101011167148165,4.97238125504549 m-20.903204166696458,1.813735095010363 l4.9768250219459125,0.16183786410960202 18.397232313226926,-1.6792207407493203 l12.58036328296278,-0.7631370360947493 3.455906287978592,-0.08438496355690217 l2.708448449252802,0.4441278547446274 m-31.58298335138364,6.488084286557389 l0.7218872101717209,1.1887443870038912 0.24559145839952118,2.9058713528788864 l-0.9788740696347734,5.912723337462636 -1.4966412141986758,3.684228181612644 l-1.5814877187941583,2.598341481217289 -1.9949459457883312,2.472242991190482 l-2.488645837210964,2.2009177510979185 -2.559429252017998,1.5858099864520139 m21.360401479077876,-23.446321644046655 l0.6563505083352622,0.8527091629771707 0.21899029194720582,1.5730693741026005 l-0.15543380065540247,19.058479263220594 -0.4566245832950146,0.8226090457708203 l-0.6615046758600751,0.07503731257805281 -0.7728577358334774,-0.9067252520837932 l-1.6666822708444429,-2.1534645287883225 m-15.68702477070793,-10.919232274931842 l-0.2959025766927386,1.0785759093335572 -3.0442973983273185,3.4715689693676697 l-3.2419544767090804,2.9842312045857313 -3.962948352398578,3.009984634443522 m36.99133250647961,-10.775247808850565 l2.760319847665072,1.7316244049399014 2.888633894951003,2.518662367503186 l2.19586742952381,2.5098275647416726 1.0593550608148175,1.909608459070934 m-39.03250553734849,13.911465358162095 l-0.36372568383358367,2.0761949768799104 -0.8355499515573389,2.7618371994708615 l-2.2867597807798377,5.0992129033363005 -1.9743781879927793,3.4699096289480873 m11.049376674172393,-14.385345263273331 l2.926885368029625,5.14563514126642 3.1642317427959044,3.6931790389740353 l8.514368256908407,2.95001914326331 5.027535295447845,0.6667905481141485 l4.625187207883786,0.2833717472926036 5.078405668125566,-0.06562685292944959 l2.9450954960758278,-0.5551680673824183 0.7459739919943021,-0.4541995542062589 l0.30500119561040706,-0.5534707679343882 -0.13729175942239286,-0.6890310819191428 l-1.7740754537539485,-0.7949111712580689 -2.0805925165367767,-0.8737155643211864 m-19.121880148605676,-10.238347665734224 l1.6263041944722807,2.691977907641913 1.2364864426914872,1.0048992562739747 l0.5964265061530313,-0.009278084021866695 0.5769432792162404,-0.4843181455479691 l0.5308105694556451,-2.0428011472059078 m11.77713527580396,-4.940106389145161 l2.2944170363650507,1.309511225972414 1.9037975839436179,1.571001943519456 l1.7272666587534418,1.9645606904334871 1.7681681346669513,2.7885105734599414 " fill="none" stroke="black" stroke-width="1" /></svg>