<?xml version="1.0" encoding="utf-8" ?>
<svg baseProfile="full" height="143.02145511537498" version="1.1" width="114.00637659839981" xmlns="http://www.w3.org/2000/svg" xmlns:ev="http://www.w3.org/2001/xml-events" xmlns:xlink="http://www.w3.org/1999/xlink"><defs /><rect fill="white" height="143.02145511537498" width="114.00637659839981" x="0" y="0" /><path d="M25,25 m0.0,0.0 m14.812679239031844,18.537520041403777 l0.36345404040521534,0.2981173309920811 2.471475305451903,2.662317295648803 l1.3581297533043315,2.807274534949214 0.4338399257874701,1.3642904893763252 m12.752229731968505,-9.100328710188919 l-0.20252192263504576,1.3527290668969811 -1.2343966588387651,2.0069936008190026 l-4.2424237517196275,2.4833542440280967 m-1.5338276885691438,5.405405315812948 l2.2763575672269023,2.437513159794066 1.2752015240758143,2.0780637863874816 m8.763320716429988,-9.931264907395292 l0.011195516145941784,2.516242788725463 -0.6677643022536108,2.994086336239538 l-1.1813886509950955,3.42168104034037 -1.3272799402772646,2.8588611434645563 m-13.336570194379007,3.9633041898167707 l2.616710273053291,0.2008134691378777 16.24944567598487,-2.8771577234445336 l1.844521690973826,0.15194414715370086 m-20.129853063242823,14.729781895942597 l1.9818254084463882,0.3171992439716408 14.580404043025524,-0.26047390084143207 l1.8381600989471343,0.2088913103708111 m-9.109047364075826,16.54056893565429 l2.5483741852993336,-0.6568247641768005 6.561500821376491,-0.5755276026845967 l2.0521773566120514,0.16401561422993405 1.450138126560927,0.33937617637464185 l1.1414071059376727,1.0845964023407508 0.6281351488826112,1.8325936986934688 l-0.14434221705685094,5.704873878053321 -1.396524429157054,7.764693989698192 l-1.5655544234889436,6.113825949828365 -3.5770056951007456,4.082103647961502 l-1.2888979636520381,-1.1154708452448006 m1.3184067984511063,-31.63726228218009 l0.2271890756784755,2.15432875290851 -0.666596436424251,3.3287360742025576 l-1.482133542911553,5.633845254270221 -1.7417233714551683,5.079072846112309 l-3.7913524418338866,7.787906839680492 -2.461027243863254,3.546552522824895 m29.25734131471556,-54.46094707826431 l-0.3619161031926471,1.824731893604405 -1.8997307010092064,1.6232546413157933 l-3.9971703298993213,2.7452099308713933 -4.918649730167954,2.945118037654643 m-1.6045520667930901,-0.07693268184839824 l0.6496674923631435,1.3423860726940486 0.137946494819155,1.3469140849582912 l-0.7806419447991627,8.066138714177656 -1.7683259298609606,8.849554806998508 l-1.200899548815026,3.6468449202463735 -1.3511266149067764,3.039851708655753 l-1.7219123544662014,2.226851654124556 m6.705394514224748,-23.885740510749937 l15.696887487206665,0.06465678464838243 2.6880167918532014,0.2847370599538475 m-9.395507461077813,2.05617901685685 l0.5661940022719254,0.9964838202223636 0.27043074525379746,1.5466695839763902 l-0.07456360985171766,30.30979716736221 " fill="none" stroke="black" stroke-width="1" /></svg>