<?xml version="1.0" encoding="utf-8" ?>
<svg baseProfile="full" height="102.78480974395947" version="1.1" width="114.7095761902035" xmlns="http://www.w3.org/2000/svg" xmlns:ev="http://www.w3.org/2001/xml-events" xmlns:xlink="http://www.w3.org/1999/xlink"><defs /><rect fill="white" height="102.78480974395947" width="114.7095761902035" x="0" y="0" /><path d="M25,34.414408750572704 m0.0,0.0 m5.473973280405302,4.052398409006633 l0.40635683630535113,0.5320369820802476 0.7304910442019915,1.534400894281597 l0.6275593178437696,2.0574506876511456 2.4734700388845634,14.707975964016955 m-2.6990924226969035,-18.335396780213323 l15.598112832021258,-2.4388872028424835 1.743351565029213,-0.19699359722444162 l1.4754726512015364,0.39273829738239074 0.4112575791933188,0.4752228301601212 l0.15693941430809114,1.535116498089171 -2.5056451842839187,13.954889548637187 m-13.468064637640015,2.2803979699433516 l14.81501992074792,-1.4858289753523575 m8.653932118432792,-27.875734141755906 l0.7136266206667953,1.0475224917069328 0.2762444891432597,1.9925270334202239 l0.007118947858268419,35.18229936638866 m0.7340696802935006,-36.584995096111186 l20.4545984309752,-2.2415499298376194 1.6022996770425328,0.2337683594208743 l1.017605661185358,0.8887627881480721 0.3000208848499308,1.484140937255021 l-0.020514808932581893,35.501264052950994 m-22.73566335403074,-23.79255162085469 l21.70875361471023,-1.786790703621352 m-21.899554921765592,12.970436056972462 l12.148655067547805,-1.078619014001225 9.933764316067075,-0.5200034660025666 m-22.177019741735837,13.979122864928932 l13.792889005219504,-1.048837726726055 8.371685996367585,-0.33347091042797417 m-18.772019519925156,6.208220767589335 l-0.6130754923843129,1.5188301214821427 -3.9439105230212217,2.68753958355436 l-6.117026561802637,3.4446366476741668 -5.541868316155316,2.3628254045275066 m28.64707119007747,-9.906869537379235 l3.6974043561598373,2.1119355700730478 3.630620212091016,2.5616959251836335 l3.4606419889509676,2.9480637760081905 2.140024936796298,2.350709867203837 " fill="none" stroke="black" stroke-width="1" /></svg>