<?xml version="1.0" encoding="utf-8" ?>
<svg baseProfile="full" height="108.83959752838965" version="1.1" width="112.00982061989946" xmlns="http://www.w3.org/2000/svg" xmlns:ev="http://www.w3.org/2001/xml-events" xmlns:xlink="http://www.w3.org/1999/xlink"><defs /><rect fill="white" height="108.83959752838965" width="112.00982061989946" x="0" y="0" /><path d="M25,25 m0.0,0.0 m6.718988336033076,20.71579141463406 l0.1094635392717252,0.4062300193329914 0.44093598708541754,1.305773176027732 l0.12466291847762416,25.3195670791695 m0.27268683730444393,-27.24044348629011 l10.293098661503883,-1.233267358181331 0.6297350575848077,0.08092314203396837 l0.7798752494782455,0.7715842616688393 -0.25310407357901527,25.739419376628927 m-11.425349083603315,-13.865864306342845 l7.318969302195322,-0.632028492648551 m-7.311996753363086,14.029608943784599 l11.267105617998054,-0.7303768384856052 m29.70672296416073,-33.661019488363664 l-0.06864509583400298,0.5443653202111357 -0.819592239293587,0.5598312016643805 l-4.9545034072512575,1.872032630600755 -7.4253214615668135,1.7808841257371317 l-8.947687683781924,1.6632874521811163 m-0.88588270692023,2.079098987316373 l2.6337154571158288,1.9428607426866253 1.7484110134422608,2.2138276503729517 m6.672900419427813,-6.154946435258293 l2.366947821553909,1.9690283156317394 1.5275943663687193,2.2961785887450694 m14.147980965402688,-6.56018810129348 l-0.3133023424939342,1.3823948004584554 -1.322541517115189,1.9243710376824226 l-1.98821514689276,1.950989585810744 -2.1359305662325934,1.4457858378500026 m-25.99520589106134,2.4719616151472743 l-0.9228604061437782,3.655097778877633 -1.7446197545021487,3.981355808770025 m2.779377626279278,-6.0882244239930445 l30.887664992500408,-2.3685456112645022 6.554918663360186,-0.28655510168483517 l1.148133666106393,0.2784493986967763 0.39468928688362936,0.46625884810074764 l-0.10850076917845919,0.598165838987347 -1.2221626453717345,1.3421213650924817 l-2.659671840640647,1.6828407765415445 m-31.084679110225018,4.700414427033533 l-0.9347051752918545,2.580049912577479 -1.848609553096492,2.6760029680925084 m7.855059623810341,-6.6537935435754 l2.2434775006555236,2.3926466784348044 2.4802534968300014,1.7474005224005125 l3.0383517982688892,1.3464954710899786 2.951647367753402,0.7033569455493266 l5.777970398409664,0.3921779192738242 3.8455824072784877,-0.5224316957426046 l0.6965548488811962,-0.4397748487782769 0.08738758426479885,-0.5707405221670502 l-0.4438507623146926,-0.6332181600473792 m-12.548339284670657,-6.409905434875093 l2.2244329096864557,1.7556399144731463 0.5222903007046406,-0.004262941991881207 l0.4916109423777907,-0.23933500545574507 0.3482316051751863,-0.6729268625343269 m6.753216926238153,-1.849427042312008 l3.693577165217931,1.5430884679156134 1.7575395158581348,1.1178530404070128 l1.645130685177666,1.3919757642020072 m-25.183299762212226,4.422075951223152 l0.004831878433126653,1.2404713371065899 -0.4833920549633117,1.2669834867388732 l-2.679201500127427,3.9909426641018357 -3.724687144935939,3.7383402534927033 l-4.101082714651099,2.864132836958788 m11.711829986801604,-8.477984874056004 l5.1908049236769624,-0.22006255402238162 10.206278215239381,-1.1709688453436178 l0.7000959682169723,0.14790017764740973 0.3506275965610384,0.3779593278499083 l-0.03332315400296999,0.6180734757685861 -1.0840141906679974,1.9034411537591782 l-2.2877071970413967,2.287799518639709 -3.181786370965468,2.567601049623991 l-3.9175895599887998,2.7128271826665804 -4.3991724111046215,2.663848175745818 l-7.523022245861532,3.6402975936218445 -3.6778983101754705,1.3260678857901593 l-3.7153212270810365,0.9399402804694531 m9.79178278120763,-14.646748254205649 l2.494060162814334,0.9334707874325269 3.2618852743824642,1.5964493943873472 l15.94312431289444,9.195623709462964 4.226470081296651,1.5647636149808426 l3.0314536107990486,0.692580346042343 " fill="none" stroke="black" stroke-width="1" /></svg>