<?xml version="1.0" encoding="utf-8" ?>
<svg baseProfile="full" height="103.7057618027612" version="1.1" width="94.29291307091623" xmlns="http://www.w3.org/2000/svg" xmlns:ev="http://www.w3.org/2001/xml-events" xmlns:xlink="http://www.w3.org/1999/xlink"><defs /><rect fill="white" height="103.7057618027612" width="94.29291307091623" x="0" y="0" /><path d="M25,30.7114742233943 m0.0,0.0 m15.215478690352802,3.5112513673394816 l0.47038232261536256,0.14569514050865942 3.0036325522720646,0.03124024949758881 l13.986902589742673,-2.3761557451311934 2.839304203840013,-0.26081228509056903 l1.63131746293041,0.18198658651881985 m-11.804553192695854,11.560753165533386 l-0.06459888372530395,1.9750560428188197 -0.6957434319598667,2.1224776709723527 l-3.5316412339861305,7.2856176661259795 -4.314199466293155,6.9945760590028465 l-4.514367861875794,5.429600881291818 m10.446818721264371,-19.926789400859725 l1.4039352011639878,1.0549466539531351 1.859096306082302,1.9673504526366692 l2.6189160438472583,15.455919011843442 2.436094683427842,5.134985312121421 l1.446190404716207,3.2362740826563754 3.450328302088456,3.121581092885787 l2.5346970038884447,0.95827413600451 4.4447094259401325,0.390459438737294 l0.8763934343974785,-0.5769377077865812 0.429218555896748,-1.4262015834201887 l0.12460123698575988,-4.183835399424967 m-26.830832832815805,-20.584295633822627 l0.1577133408129302,1.8096484221988423 -0.750126965116353,3.0999212386055244 l-2.637713243494435,7.393613939825433 0.2958436674052772,0.7294513387933544 l0.44969271788898285,0.03631115478924269 5.830021743561218,-3.4363064644456207 l5.50253291600509,-1.2121448777152504 m-2.7554308528300977,-6.45721147024483 l1.3787032557758274,1.2386048306135973 1.6738372658409177,2.3361946752851517 l1.42471772768465,2.498407751209695 0.7524729929366981,1.944694730988495 m-26.875567300303043,-36.915676748210466 l0.45363000466217307,1.1654237882623946 0.1995444617409419,2.2221080643551345 l-0.18160059784158333,36.56351441674229 0.11361211597224331,1.4053542124865908 l0.3477926699944801,0.501210948591754 0.8877471023095564,-2.794616171712643 l3.7292933592033193,-4.280102361160382 1.5926407670578098,-1.3399911963222169 l6.154021273035226,-2.02034454492609 4.931300674444425,-0.16456868290207513 l3.0534783037221827,0.9448929011860924 " fill="none" stroke="black" stroke-width="1" /></svg>