<?xml version="1.0" encoding="utf-8" ?>
<svg baseProfile="full" height="100.16150429387643" version="1.1" width="102.38874573388001" xmlns="http://www.w3.org/2000/svg" xmlns:ev="http://www.w3.org/2001/xml-events" xmlns:xlink="http://www.w3.org/1999/xlink"><defs /><rect fill="white" height="100.16150429387643" width="102.38874573388001" x="0" y="0" /><path d="M25,25 m0.0,0.0 m14.733851199965011,13.78997196196788 l0.4753146017379674,0.10388608073287024 2.5586620975982544,0.07116222799523168 l22.49733767781615,-2.060223025543826 3.22337843960554,0.18276191420680593 m-15.560717840632174,-7.128735373539361 l0.6582905666000006,0.8053700289142013 0.2608436690046198,1.316677400567214 l-0.05682298782299202,14.207811363717079 m-11.919370053591429,1.4185534694614113 l3.297748865849847,0.16835999247164884 15.999462210101235,-1.5869817461644775 l4.106681551679071,-0.13715074737860108 m-24.93390960839419,8.146261690485334 l1.0494759225241812,0.7013596293026866 0.8699741355296322,1.5084141206965622 l2.350361423979527,8.419060578072234 m-2.2314485133498736,-9.958632197849402 l18.789114777502743,-2.2578426943657446 2.5451302810313607,-0.021380775180219476 l0.7873368718774015,0.28131945247909157 0.5760128588056282,0.8028452748542504 l-0.001719949692904146,1.2786161549392798 -1.1032905697809867,3.801274931493277 m-18.542377517947347,2.590293175037353 l19.26629003410497,-1.9153940135406085 m-22.71685829702895,5.344268153554653 l2.5051272949441574,3.245481416690313 1.2473137136526506,2.3323136869726135 l0.5415599901254692,1.7567037273133874 m17.471992307091064,-9.601374055381987 l-0.08402893221320604,1.2295241244258248 -0.918927741003139,2.0303084037624144 l-1.9631767181563489,5.684979565592457 m-29.053526836795935,3.2803999579602947 l4.394541969994349,0.3312404391543114 18.11319089820944,-1.5911024515157315 l20.484110267222267,-0.9313860773865895 2.6718176737369483,0.3671093124834947 " fill="none" stroke="black" stroke-width="1" /></svg>