<?xml version="1.0" encoding="utf-8" ?>
<svg baseProfile="full" height="106.34429993808311" version="1.1" width="100.21801161750619" xmlns="http://www.w3.org/2000/svg" xmlns:ev="http://www.w3.org/2001/xml-events" xmlns:xlink="http://www.w3.org/1999/xlink"><defs /><rect fill="white" height="106.34429993808311" width="100.21801161750619" x="0" y="0" /><path d="M25,25 m0.0,0.0 m12.0497158818492,12.981356903531886 l0.47656154460593836,0.12797676380694278 3.0821622635115906,0.05480696242039949 l24.297765833057998,-2.2190166890214855 3.8883604832450196,0.16503734617854834 m-16.971676807751624,-6.992740913401756 l0.6482314363757959,0.9413932981684127 0.211998867861473,1.418835317910701 l-0.007366625251783111,13.891978665063016 m-11.607676140237176,1.6247471579017558 l3.4077328674990524,0.10438634417456094 14.086097931354079,-1.4878370830108447 l4.651088534314539,-0.2564135376711002 1.66839590944588,0.16393693042199178 m-26.77271869569327,8.009479825341291 l1.2517019031319092,1.4185845801314536 2.219285640780157,10.60812420840673 m-1.8503243244966578,-11.163525057490796 l19.833993178327827,-2.1085808063035874 2.6284978616114327,-0.1140562175238882 l0.9793128433543705,0.22589441645059244 0.6953670035744275,0.7763958896925816 l0.051777224487177476,1.2767552357808953 -1.095001867107976,4.5229232558328345 l-1.3934505381602926,3.889477896285398 m-19.908961643038616,2.091320217120068 l21.30269601492339,-1.7487371983941005 m-24.394788665989807,5.831917721179149 l2.283451567718678,1.8470423487162573 1.7427319967622092,2.065107575896107 l1.1508329595017797,1.972422908886552 0.581414537949249,1.693722970943261 m16.664355126252428,-9.522215961180969 l-0.09321424900538874,1.4254172911695395 -0.9561814571095669,3.7118240499841493 l-1.126494400232349,3.1978097662550278 -1.519343151857394,3.000335017789574 m-28.1591270188655,2.4746401610083835 l2.1085474642323323,0.3946222759043939 2.4114501584859243,0.049150099729173044 l18.258471237197504,-1.4295436824874275 15.319697521565454,-0.8031052923203278 l4.461071353800841,0.046466547510153285 3.661570055525931,0.4631909883291867 " fill="none" stroke="black" stroke-width="1" /></svg>