<?xml version="1.0" encoding="utf-8" ?>
<svg baseProfile="full" height="98.0944295754596" version="1.1" width="105.32089609225274" xmlns="http://www.w3.org/2000/svg" xmlns:ev="http://www.w3.org/2001/xml-events" xmlns:xlink="http://www.w3.org/1999/xlink"><defs /><rect fill="white" height="98.0944295754596" width="105.32089609225274" x="0" y="0" /><path d="M25,25 m0.0,0.0 m6.599247843441187,19.042804352652887 l0.2967923309201462,0.4160668716148386 0.4316625954373725,1.4021918307785455 l1.661484959500421,14.17355730042893 m-1.4742341586251968,-15.713309445436337 l12.05116174281386,-1.7457820863303535 1.3235745752010375,0.08732814911676695 l0.4808913494701187,0.32010162432475914 0.3622974125107728,1.1818446895291963 l-2.001488019522758,12.025480988198526 m-10.0896851157661,1.596527379811569 l11.31169592311918,-1.2026312292068273 m5.870718930234011,-22.408299548269472 l1.4766314873847508,1.9597296897924055 1.6306294360354103,3.078978227114518 m-0.841792944505222,-6.544831674750249 l16.421665508489397,-1.576222961564157 4.860467200700482,-0.26751962577153576 l1.0924685954135995,2.0541841211380643 -1.9192084479422922,5.543709018509289 m-19.520005800612967,1.583572306396419 l20.673973608064518,-1.3981329205389628 m-12.338085890832934,4.659260401546777 l0.6754086166420504,0.8246411364869124 0.2007766465344627,0.8828644692520449 l-0.008882904396163861,4.599152948215568 m-16.48215490541515,0.9771118100486055 l2.857445187540072,0.23161241864153545 26.207795337236163,-1.9871689676078281 l2.038180770369495,0.003051414799429646 1.4714642228130033,0.2840233711584975 m-28.98552179868246,6.281464917925288 l0.6714039363106125,0.756005719834504 0.3199191327158338,0.9013571697729154 l1.5760689483215078,16.071705707846526 m-1.216132623987674,-17.045084801688404 l20.41458487681859,-1.9541210156787021 2.4098397553300943,-0.08513174899211609 l1.2694540172359907,0.24846371215975221 0.8145227697825796,0.6565353871572425 l0.3057863919133577,1.3026537949645818 -2.401288329758872,15.001966119388594 m-21.939580804040055,-7.944213489758501 l22.705076956216338,-1.7538946593679596 m-21.836411817420675,9.203184766247677 l20.532191685470845,-1.3734986933893136 " fill="none" stroke="black" stroke-width="1" /></svg>