<?xml version="1.0" encoding="utf-8" ?>
<svg baseProfile="full" height="105.17375002466866" version="1.1" width="106.22630294358956" xmlns="http://www.w3.org/2000/svg" xmlns:ev="http://www.w3.org/2001/xml-events" xmlns:xlink="http://www.w3.org/1999/xlink"><defs /><rect fill="white" height="105.17375002466866" width="106.22630294358956" x="0" y="0" /><path d="M25,26.106385275776326 m0.0,0.0 m16.024253882014506,2.715429455421634 l0.4890602524059491,0.3856033687454836 3.020774257475997,3.1219622227651156 l1.8180840761288792,3.4659080502888484 m-16.66812287226272,-9.396037862994223 l0.7033029919487461,1.83281405233164 -0.334672782811751,3.3072807592796396 l-1.0502552949051926,3.9686424181919735 0.7048891087825069,0.6543182697072267 l30.362065747826207,-2.06375231843342 m2.0273728610005897,-9.098553691080244 l0.5549901641406024,0.8454476197406718 0.30136298608551787,1.0823841542827386 l-1.2342747572636725,8.897264156820317 m-18.022482619475024,11.31141563352108 l0.29195157201862965,1.576038020631347 -0.8929912508594164,4.860446420950479 l-1.1863872966286864,4.163925247053821 -1.6115214565280058,7.31211249338432 l-1.535221312644825,4.964457791462603 -1.4267945095742751,3.4092616986135402 l-2.2749223466097113,3.9565441083193575 -2.187446311610759,2.7944526798883977 m8.478088347855248,-34.603666932161175 l2.907878081854287,0.32322467570090524 26.400599798235778,-2.5996887567960205 l3.0369710243773542,-0.11899995748420263 2.0593631345272483,0.31491269275503025 m-28.87455667997909,11.152703701354984 l8.004187168488963,1.2994304686001572 4.913241142566206,1.4610257433411977 l4.535732931489396,2.195630164496233 4.069959279856499,5.7865878129438535 l1.7408215256946573,2.5964780759677644 1.6562091787102764,2.3252327317755075 l1.5267955030415186,2.036559408495616 1.8241798658698043,2.173377874434086 l2.0666623008842815,2.0808491780761003 2.883880347431423,1.7661838476240599 l0.8666096910084112,-0.23650554026606851 0.2566652130232144,-1.4244141208825871 l-0.2980757001964777,-2.523029677609802 m-9.446653832272538,-19.6324229557446 l-0.06727067259490702,2.0408627137206663 -1.09171756228602,2.5923687607439208 l-2.08393065330186,3.434906571014796 -2.874913781400026,3.6345866575355177 l-3.010724320409307,3.011415965102265 -3.5606023222981635,2.8895897336346996 l-4.104247955552236,2.7054417432743896 -3.438578428267121,1.869744952005273 m13.879843512550872,-33.542075516649156 l3.158237854763155,1.9351456688682274 2.153917547875443,1.9746998650479355 " fill="none" stroke="black" stroke-width="1" /></svg>