<?xml version="1.0" encoding="utf-8" ?>
<svg baseProfile="full" height="107.13524512140006" version="1.1" width="94.69824363581215" xmlns="http://www.w3.org/2000/svg" xmlns:ev="http://www.w3.org/2001/xml-events" xmlns:xlink="http://www.w3.org/1999/xlink"><defs /><rect fill="white" height="107.13524512140006" width="94.69824363581215" x="0" y="0" /><path d="M25,25 m0.0,0.0 m25.397812386621688,15.44876246241197 l0.3227928247340277,0.27872789919286334 0.5845272895609792,1.11763792447313 l0.0081326421876986,3.8812590766490906 m-16.549695023405555,0.4990618740723951 l-0.6171925030580718,3.424390583245799 -1.235812583114951,3.8163312717627704 m2.1759419424057724,-6.152237671964855 l18.0259178416487,-1.6602862275815413 11.16192164499321,-0.6279543004198507 l4.489820304298518,0.024217108375206714 0.7127575259986099,0.28178051568860596 l0.22131934294152225,0.3994189015169515 -0.1623863449548087,1.0310993631626504 l-1.1021374124883228,1.243555366713263 -1.790730970714468,1.268647248389191 m-25.78034008852026,2.4791958927938884 l1.872618326898165,0.6096708018096694 1.6334247780976319,0.03154196575465016 l17.2656634229184,-1.8398974042343292 1.2384500484274454,0.11241716213691925 m-12.49228993297856,2.473061287845516 l-0.3218205004548798,0.5635953333684124 -0.7453302747994681,0.929237448364314 l-2.4503379306322572,1.9590995964994136 m-4.595709195313795,0.22399324984519622 l0.6591378934031062,0.5788561195829107 0.16920465422159311,0.701978886043055 l-0.037366507787028186,13.182668461865001 m0.5785531086462572,-13.600685483336425 l14.643615726248992,-1.560530528120179 1.17450353802604,0.029350243599339264 l0.4623068302140329,0.28793491306506186 0.39371366046637,1.0447597610342507 l0.01682947512485638,14.039961216654683 m-16.29128908723668,-9.17380941599991 l15.629922315637245,-1.3874011110650708 m-15.76326947095984,5.945446472990735 l15.890882428140129,-1.3580097315002573 m-15.6687671293325,6.165497891131242 l15.542634998194483,-1.1529684615425633 m-11.857768513579963,2.633554936846781 l-0.19870347320632412,0.9134316312940572 -0.7444822659233038,0.8261563622035485 l-3.6181063209321542,2.709481065630157 -3.9103241286884796,2.357655561314308 l-4.742778578954017,2.1355895998380467 m21.320348823975127,-6.848112978112258 l2.4301465277737666,1.1761046016406824 2.811260281122368,1.7239171982679995 l2.34269126890463,1.8446255919401537 1.2668597258595777,1.3202738462790016 " fill="none" stroke="black" stroke-width="1" /></svg>