<?xml version="1.0" encoding="utf-8" ?>
<svg baseProfile="full" height="97.64566320570987" version="1.1" width="101.22184519848" xmlns="http://www.w3.org/2000/svg" xmlns:ev="http://www.w3.org/2001/xml-events" xmlns:xlink="http://www.w3.org/1999/xlink"><defs /><rect fill="white" height="97.64566320570987" width="101.22184519848" x="0" y="0" /><path d="M25,25 m0.0,0.0 m16.030378584297285,12.914631920661902 l0.5141117991963251,0.12788576451396563 3.054544601833985,0.13167336092283247 l25.201903287297792,-1.8436764227692195 3.6690157233493492,0.1661807567360135 l2.7518912025052544,0.33345240229188194 m-27.261681098224305,-5.601645040544148 l0.7692611292477226,0.8866159656053194 0.2910341692159135,0.8335258047024963 l1.3552764576033354,11.65743581392153 m13.967459852512302,-15.00860601509211 l0.32349743741233233,1.04928389266897 -0.04120247284234211,1.1019900911444032 l-2.4629769733516786,12.311955414439707 m-24.976808525788,6.226917431222395 l3.7939431320462806,0.3031577745768439 13.341659563237235,-1.2841379821484846 l16.974697425047296,-0.8587029266134344 3.569545917929932,-0.015175323010907876 m-20.145820495368774,-6.367820143642395 l0.5204496906929226,0.7420383514233397 0.3236147153165292,1.3109271782281342 l0.0025743523096453816,13.460010040929149 m-11.195675182682244,0.9946751262313116 l0.5884032115293972,0.7721794819841036 0.3014905717191864,0.8881668579224131 l1.9386412274285543,12.41272362940385 m-1.650574761981512,-13.403306402390655 l17.569217242590085,-1.7918468966235785 2.2949422304383913,-0.1572229742617335 l1.248247211825996,0.2975796145284416 0.6861660126864573,0.7788574483678469 l0.14228345654992974,1.183027250806492 -2.5030995333259263,9.581478633642938 m-16.956625515082102,1.7714097006248852 l17.978976156953326,-1.366534694520154 " fill="none" stroke="black" stroke-width="1" /></svg>