<?xml version="1.0" encoding="utf-8" ?>
<svg baseProfile="full" height="106.90604389615538" version="1.1" width="116.7244029497782" xmlns="http://www.w3.org/2000/svg" xmlns:ev="http://www.w3.org/2001/xml-events" xmlns:xlink="http://www.w3.org/1999/xlink"><defs /><rect fill="white" height="106.90604389615538" width="116.7244029497782" x="0" y="0" /><path d="M25,25 m0.0,0.0 m13.716344777899238,20.452514554597105 l0.33960611468352,0.3085366764712827 0.6818161282482773,2.685424063331075 l1.128118736112088,6.0402729888773905 m-1.1781057509296466,-8.78722651121976 l10.282308986089603,-1.420068212355824 0.6065823844839692,0.059946433347318924 l0.42693958202952303,0.2788317197380158 0.18153480972393307,0.8073421386990685 l-1.889605528943872,7.123352804059142 m-7.905568957587096,1.1712777721732255 l9.198240610795688,-0.8690519533628858 m10.615353897098782,-18.353490458114752 l-0.04905799504547342,0.8491626870621878 -1.7707715847866323,2.333186610402609 l-1.7749873573129076,1.75066302616557 -2.375517119819767,1.8950021718563927 m5.480775349704423,-7.106631579340433 l4.388391053571144,-0.7934903118136623 0.6916667393748155,0.1311643649292146 l0.18577278219829407,0.36110211893890065 -0.3186443395768747,0.468950849260715 l-3.457543331885938,3.522481759828463 -3.2370705255986723,2.446789791480568 l-3.6772863814737677,2.2319033909390815 m4.11588345808813,-6.041624594093587 l1.9840340627352306,1.024276646390994 1.4299155900659706,1.4561826906735897 m5.99272437633543,-7.159591878829867 l1.9063979761452505,0.08531271582844087 7.474754576902711,-0.8831469813098114 l1.0427642810477347,0.04276065408889321 m-11.262486189933059,3.9060804974123964 l0.37177823241010444,0.8619025299774092 0.8569934091642958,4.216935335997103 m-0.5759209389187175,-4.532115465143997 l2.3367634935433177,-1.0963673651446122 6.534222213810194,-0.34712093202250455 l1.3904950536993679,0.16317858944435792 m-18.028935444372294,3.721704629545626 l1.8986754122564187,0.10312638857282148 8.375541927358695,-0.8882844951836502 l8.219717555094086,-0.5243399968755664 3.2363719971827196,-0.11113276427490328 l1.4984346261005195,0.14983606176513012 m-12.4205273624347,-7.526945033671015 l0.43578060942700686,0.4257538543805426 0.13543857982190183,0.5947623232610847 l-0.03402354765606629,10.68985553645574 m-8.092742197808427,2.7391844435112347 l0.10151905746290706,0.5463001465062293 0.026584886627962084,0.6001071244541015 l-1.0420180922705504,2.2711215538400964 -1.5593095442857785,2.1334683795541785 l-1.9443425894495217,1.8817935676356345 m4.569783421360531,-8.01054415860246 l3.7307487527887666,6.4132521165953165 2.3673518726024128,3.2637143275622016 l1.0822749650899206,1.9196878089965856 0.789104546096875,2.232642213867725 l1.5816773316421555,2.8452865270498786 1.0673771602512299,2.869226669206001 l0.8533822995719694,1.9498946490392093 0.9712395490038458,2.6773707438041265 l0.8374085791374744,2.932329491848618 0.7549645418759455,3.0228626684438513 l0.7230318506613773,3.0754281667705796 0.10739691807442917,2.8586914019388354 l-0.0689164157490311,1.3062063178166428 -0.23222109769559218,0.7649512679410799 l-0.4008119313834492,0.4865068654933144 -0.5306411441805816,0.20761575968777501 l-0.6116478449031214,-0.053002435524891305 -1.230547021799431,-0.6771492952244754 l-1.2585328857904303,-1.050600621536137 m0.7190237711188582,-16.000153035258375 l-0.05011286630065987,0.6649159187217347 -0.45580442018314765,0.6612953317822758 l-2.5304447117576614,2.2328978308349545 -3.2286422996101716,2.077606385977171 l-3.9329084462440593,1.7815416617000042 m11.813129944745704,-2.8232407067804948 l-0.07160909094395114,0.8804905244412292 -0.4940266278689113,0.6318217563080173 l-1.2790623601197773,1.284899559031362 -1.8209900192914277,1.4869296667645349 l-4.214483237086466,2.778686806279083 -4.624172400307752,2.3348461519182666 m21.388932052020763,-17.813154928913555 l-0.18547188510242582,0.4989126505652923 -0.3758036404726596,0.5201305651348084 l-4.189315828777828,1.6703043415100796 -4.11935067513361,1.1560166350071062 m-0.7137558442744475,0.530018498728693 l12.066866150314294,7.953696639826476 1.80543378439201,1.0905240021726037 l1.4207696068027704,0.7612732750369947 " fill="none" stroke="black" stroke-width="1" /></svg>