<?xml version="1.0" encoding="utf-8" ?>
<svg baseProfile="full" height="107.32052994892001" version="1.1" width="109.49251446407288" xmlns="http://www.w3.org/2000/svg" xmlns:ev="http://www.w3.org/2001/xml-events" xmlns:xlink="http://www.w3.org/1999/xlink"><defs /><rect fill="white" height="107.32052994892001" width="109.49251446407288" x="0" y="0" /><path d="M25.000001521079014,25 m0.0,0.0 m-1.521079013855342e-06,10.529365539550781 l0.408303439617157,0.5539493635296822 0.49544353038072586,1.4872144162654877 l0.6678678095340729,4.180603325366974 1.6067889332771301,15.584465265274048 m-1.7661333084106445,-19.966214895248413 l16.593735218048096,-2.121233642101288 0.8144858479499817,0.10879253968596458 l0.5935423821210861,0.4956202581524849 0.365639291703701,1.538473218679428 l-2.6353245973587036,14.770333766937256 m-13.461641073226929,1.8608739972114563 l15.043597221374512,-1.310371309518814 m8.076984286308289,-25.362184047698975 l0.9266367554664612,2.1426208317279816 2.171752452850342,19.343773126602173 m-1.7081578075885773,-20.678892135620117 l24.91941213607788,-2.490352839231491 1.3733842968940735,0.48969902098178864 l0.8379942178726196,1.274048238992691 0.0402558920904994,0.7416629046201706 l-1.7133279144763947,9.827563762664795 -2.188842296600342,9.046307802200317 m-22.62460708618164,-9.479710459709167 l16.91967010498047,-1.18008092045784 m-15.939035415649414,10.577003955841064 l21.972382068634033,-1.6289938986301422 m-28.801124095916748,10.916372537612915 l0.832691565155983,1.9906118512153625 2.895922064781189,24.079208374023438 m-2.2087273001670837,-25.249061584472656 l32.57112741470337,-2.447058856487274 0.9495265036821365,0.14193405397236347 l0.7151496410369873,0.4531991481781006 0.7471422851085663,1.3277816772460938 l-0.018227832624688745,1.0958793014287949 -4.130758047103882,22.109897136688232 m-30.06810188293457,-12.296473979949951 l22.31210470199585,-1.2959657609462738 m-20.64495325088501,12.918651103973389 l28.865816593170166,-1.5059283375740051 " fill="none" stroke="black" stroke-width="1" /></svg>