<?xml version="1.0" encoding="utf-8" ?>
<svg baseProfile="full" height="124.88614300033015" version="1.1" width="100.45968511440766" xmlns="http://www.w3.org/2000/svg" xmlns:ev="http://www.w3.org/2001/xml-events" xmlns:xlink="http://www.w3.org/1999/xlink"><defs /><rect fill="white" height="124.88614300033015" width="100.45968511440766" x="0" y="0" /><path d="M26.70213358314873,25 m0.0,0.0 m12.79324477321663,13.161914786210735 l0.522298033436222,0.10907876669482884 3.19913033858639,0.015735258719606494 l23.734643610735766,-2.116277523172533 2.5043893648165785,0.22223405143072655 m-34.319105969574146,9.596524478868833 l3.168746594322896,0.16024349894719042 27.730383276254557,-2.7448087170120843 l2.0446485663958103,-0.08786529080032986 m-40.1141832552768,10.34422577450972 l2.145604707254545,0.26680685567753465 2.3813280310174725,-0.07164061564453852 l34.487255063011595,-3.4705293761325575 5.575336987745258,-0.34136817372631034 l2.9038314093161577,0.2501529127028321 m-24.31842198279572,-19.084583262757622 l0.3934392661104072,0.8933300875021251 0.027227236565459695,1.7223126648894693 l-2.375905487645836,9.258894049560118 -2.6988743140786924,6.990504453524138 l-3.034992007884512,5.697889327853211 -3.7214203866391284,5.287728230120128 l-3.4576984585016928,7.993850739183643 -2.909135328767296,7.123552192637959 l-2.6416679849023286,5.800516529634878 -2.6903966934125236,5.022726005678562 l-3.031838972455794,4.337436170785575 m15.089973609105073,-16.15399614858415 l0.5951077462146072,0.5552887940502685 1.878194429140101,1.4306119432873816 l2.016100420196417,16.06971542175617 3.121155557666724,5.628641253550704 l2.5977209823079255,1.017297860383936 3.1908293039377087,-0.20239559237763635 l5.8136384559469505,-1.374053597614599 1.3713565040107316,-1.052049528995343 l0.6804226308751177,-1.3026068809151559 0.286546642198299,-2.446582686756834 l-0.0028928782935281746,-3.3929247279047248 m-12.109111942917052,-37.13667181869175 l1.8650765999717314,2.1264921944546678 1.6872977810494356,2.6479066187738742 l1.3116370244767188,2.5392516406940815 0.5601938459059072,1.6677083890833393 " fill="none" stroke="black" stroke-width="1" /></svg>