<?xml version="1.0" encoding="utf-8" ?>
<svg baseProfile="full" height="104.44417086990072" version="1.1" width="90.77884207030144" xmlns="http://www.w3.org/2000/svg" xmlns:ev="http://www.w3.org/2001/xml-events" xmlns:xlink="http://www.w3.org/1999/xlink"><defs /><rect fill="white" height="104.44417086990072" width="90.77884207030144" x="0" y="0" /><path d="M25,25 m0.0,0.0 m7.026178517548647,18.90601022710681 l0.29566659612133045,0.34920192450602744 0.4091977672559181,4.758632863898811 l0.8281394456519167,11.74778034950554 m-1.027460464709829,-16.045505672507417 l7.540328381551678,-1.886709687590166 0.439228301064687,0.052372704283156574 l0.3304868367755043,0.3588799505589396 0.2044102398541881,1.1210171187918196 l-1.5203318719413612,12.914090958329968 m-6.35560856867571,1.7278837725490774 l7.400361765374437,-1.2146777338220833 m6.695822332024633,-21.576394102446486 l1.483763085364557,0.18594916692677127 10.606626652795118,-1.726434676283622 l2.046439811770975,-0.18536280282652917 m-7.143786999100466,-6.814111364482082 l0.46958596643135214,1.7389186231972957 0.11355755195078084,13.918116925462275 m-10.19022497960747,1.497710608148662 l1.660123788280451,0.3215162694239316 17.138698515519277,-2.929185607752015 l1.2848364946103457,-0.19632108630844705 1.0428029043904792,0.30888826102134576 m-4.201258813581479,-11.696921279615806 l0.12761752031719323,1.137607058389351 -0.21766042940441488,1.1381866467054451 l-3.283635242443481,6.384452899040805 -3.1018485245013694,5.314104754585913 l-2.9291705806706596,7.557642978191068 -4.181819892226872,10.501972070094784 l-5.260929468703375,0.8538155868697652 -2.8686197270931104,-0.02799646709349469 m16.35497543144982,-10.993996954822931 l2.2699928119011656,1.814795108831831 1.1918253345896015,1.841446581582557 m-10.262576105530306,3.1687986835944026 l0.31723010671654106,1.3825438225573528 -0.07801046192658496,18.735452391298107 m0.20239182042994722,-19.205779071573307 l10.849928006180605,-1.6802806204964715 0.4959749501778288,0.1713151022905485 l0.27262791934719105,0.4648624338573065 0.03268178529341647,0.9513930695989057 m-11.280033626113044,6.493300978885005 l10.956497512817789,-1.486080430673472 m-9.895302787376925,7.845975088068285 l10.018445078465072,-1.092206979285518 " fill="none" stroke="black" stroke-width="1" /></svg>