<?xml version="1.0" encoding="utf-8" ?>
<svg baseProfile="full" height="103.51743798587759" version="1.1" width="101.33819497181823" xmlns="http://www.w3.org/2000/svg" xmlns:ev="http://www.w3.org/2001/xml-events" xmlns:xlink="http://www.w3.org/1999/xlink"><defs /><rect fill="white" height="103.51743798587759" width="101.33819497181823" x="0" y="0" /><path d="M25,25 m0.0,0.0 m12.084011497674041,11.166154473412856 l0.40010333586584124,0.34114142261306724 0.575576990546132,0.8363130416286814 l0.1524652818004635,0.8902355482931464 -0.04596458583390547,34.85683754566592 m0.520550345916581,-36.06633788972127 l29.86272402542101,-1.4461097905779225 1.7055345801352573,0.038491322303267385 l1.6013164964560511,0.18693744456117398 1.242562909312068,0.2502818283806318 l0.4782067673330527,0.6771153077157038 0.14446220930011439,1.0972018513640396 l-0.041082615080984354,34.52209784620559 m-33.56104971773705,-26.508288361844993 l2.950090181313574,0.090377211894375 16.310446805633756,-1.4657688957979012 l5.601438687949948,-0.1785446329356266 1.907120216848193,0.1501566609112996 m-28.038046229330046,8.602371833217287 l0.7719336440012708,0.19730741679889677 2.108574164797794,0.07171570503670455 l24.288399530573514,-1.7408958920963287 3.074324254311427,-0.11351667141092085 l2.2329444490603976,0.17740268692882047 m-31.54006156285746,11.767618574890339 l2.579245439284261,0.1261019247780278 23.211085546133152,-1.6132844643475093 l2.8042473990869485,-0.12296038769882928 1.8811172160949032,0.17435379644347257 m-22.672583403943264,-14.632952368273779 l0.5293275829417085,0.6408524765109191 0.2906341519056699,0.7161595843478539 l1.2903825035601595,14.237762091527978 4.3040045011153785,4.031946381394809 l6.6103110945655015,2.596327993655948 6.459098350174346,1.669821325564137 l4.520391789713245,0.04466243779945656 1.4296917741313544,-0.5309310951362913 l0.8745436533957968,-1.1225843759036875 0.17794601116877432,-1.5233776566711745 m-33.462425886488475,10.425244734449432 l35.724595585567734,-1.0941422409392647 " fill="none" stroke="black" stroke-width="1" /></svg>