<?xml version="1.0" encoding="utf-8" ?>
<svg baseProfile="full" height="106.1168828633705" version="1.1" width="103.48112320815844" xmlns="http://www.w3.org/2000/svg" xmlns:ev="http://www.w3.org/2001/xml-events" xmlns:xlink="http://www.w3.org/1999/xlink"><defs /><rect fill="white" height="106.1168828633705" width="103.48112320815844" x="0" y="0" /><path d="M25,25.227611011703658 m0.0,0.0 m8.478449705654691,2.8705542132468396 l0.44726148178637193,0.46188756797816394 0.7880978292061971,1.3086920267842188 l0.2899111304823165,1.9515531120245566 -0.06683978951277071,49.29658493163308 m0.6534954814570234,-53.590969075062254 l35.878979446503045,-2.525913788308259 4.5474724699458395,0.0999034018678568 l1.6045326182077082,0.8501814782297273 0.8261300455811691,2.2671082054755276 l0.03363278884686117,50.96253722833279 m-39.05985446574032,-37.7106921481822 l3.266128320029385,2.796198385662404 1.399693920190563,1.8426879679044978 l0.7540492498122817,1.4909161809363343 m4.339074817235958,-10.496196236662104 l1.4672633336425522,1.1578016980590133 2.0784005851316514,2.2387100223833754 l1.6320993161293358,2.314989899805737 0.687333869860149,1.509629354822743 m11.48982307335976,-6.0166910753811464 l0.21872840830943568,1.1044987925546512 -0.21350597363707868,1.4140035741992065 l-2.1445249888211078,5.115422898585312 -3.063723978414885,5.850610954195086 l-3.813657686149775,5.47012831366752 -3.569571874747607,4.0423261818943335 l-4.104188655668817,3.7204272103197567 -4.641760472956487,3.2846879056683886 l-5.144094645395361,2.871649561626061 m4.604811048287731,-17.91919928718813 l5.420971452693107,2.5887473040502322 6.41511486797304,4.009496810420714 l5.289166303688968,4.064543671514077 4.244345344159177,4.2639905650950976 m-32.86666698434111,10.71256559733136 l43.38677845747432,-1.8918756814194038 " fill="none" stroke="black" stroke-width="1" /></svg>