<?xml version="1.0" encoding="utf-8" ?>
<svg baseProfile="full" height="97.26088991789149" version="1.1" width="103.79908898655015" xmlns="http://www.w3.org/2000/svg" xmlns:ev="http://www.w3.org/2001/xml-events" xmlns:xlink="http://www.w3.org/1999/xlink"><defs /><rect fill="white" height="97.26088991789149" width="103.79908898655015" x="0" y="0" /><path d="M25,25 m0.0,0.0 m18.271111367642014,3.6444233918351836 l0.4099039914456141,0.4260096510952996 0.6759285552856211,0.8136482989032443 l0.521378272785491,1.389820240095703 2.565847810841504,12.680293226156444 m-2.6102463024086062,-15.32742664505943 l20.63561825590601,-2.392800674338651 7.329233477296368,-0.4755805048438826 l1.352552532429598,1.29673504753738 0.15686006688287255,0.6698745466954124 l-2.6496203697308105,10.23480717212293 m-23.859469139257204,3.1414439936869276 l24.913836757786008,-2.379492206299521 m-14.653814828793887,7.702887103732874 l0.4967103839103749,0.9328042637665808 0.08887190409832553,1.0446167376538005 l-3.153116701666284,6.540561022337382 -3.42429735294712,5.106239608720508 l-3.0672010405551373,3.66720580822164 -3.4226903900700383,3.386435012332457 l-3.896766141128074,3.132832591120193 -3.353068272705855,2.025552232419015 m14.091463580878832,-27.25036604618652 l0.5983933355659976,0.7737525033252791 0.5556056993610133,1.1268633471139629 l17.35734383277304,16.540972497457567 3.54917158328637,2.04385416384859 l2.3283488943652744,0.8962981717695656 1.9911992232728384,0.2855112875106569 " fill="none" stroke="black" stroke-width="1" /></svg>