<?xml version="1.0" encoding="utf-8" ?>
<svg baseProfile="full" height="109.49251256883144" version="1.1" width="108.77984132617712" xmlns="http://www.w3.org/2000/svg" xmlns:ev="http://www.w3.org/2001/xml-events" xmlns:xlink="http://www.w3.org/1999/xlink"><defs /><rect fill="white" height="109.49251256883144" width="108.77984132617712" x="0" y="0" /><path d="M25,25.000000214204192 m0.0,0.0 m2.6717114448547363,15.6482994556427 l0.37061750888824463,0.5100611224770546 1.2186192721128464,5.981962084770203 l1.610531359910965,13.951414823532104 m-2.284858822822571,-19.117547273635864 l14.39696192741394,-2.222907245159149 0.737202912569046,0.10055058635771275 l0.5366057902574539,0.45596372336149216 0.3294774889945984,1.4186285436153412 l-2.7250298857688904,16.00005865097046 m-10.870550870895386,2.0227719843387604 l12.65542984008789,-1.520691066980362 m10.601744651794434,-31.224610805511475 l1.942465901374817,1.6434183716773987 2.0093315839767456,2.31845960021019 l1.5985611081123352,2.4115340411663055 0.6428685039281845,1.5201030671596527 m17.69824743270874,-9.897469878196716 l-0.4588617756962776,2.394397407770157 -1.813102662563324,3.4897857904434204 l-2.344668358564377,3.1497451663017273 -2.3066993057727814,2.251593917608261 m-19.794939756393433,2.284858822822571 l2.2751985490322113,9.29063856601715 1.6265757381916046,10.479100942611694 m-2.862793803215027,-19.31108832359314 l25.40964365005493,-2.6164570450782776 5.0912028551101685,-0.22210169583559036 l0.5739027634263039,0.4579797759652138 0.2444462850689888,0.6558888405561447 l-0.2872243896126747,3.2236668467521667 -1.6365300118923187,9.092729687690735 l-1.8013423681259155,6.509831547737122 m-13.042511940002441,-17.590724229812622 l0.6812994927167892,1.740860790014267 -0.13763229362666607,14.506500959396362 m-13.623133897781372,-6.897585391998291 l21.6003155708313,-1.9406180083751678 m-19.80569362640381,10.47271728515625 l24.731578826904297,-2.1676337718963623 m-24.19262170791626,9.359856247901917 l0.6725212931632996,1.7485888302326202 0.8156189322471619,5.483660697937012 l1.4433461427688599,13.646318912506104 m-2.03755646944046,-20.160517692565918 l20.02140998840332,-2.3926545679569244 1.1016043275594711,0.14775979332625866 l0.602799542248249,0.47377217561006546 0.6185078993439674,1.6608907282352448 l-2.3260827362537384,19.261192083358765 m-19.10679578781128,-10.177029371261597 l13.636910915374756,-1.3143818080425262 m-11.612458229064941,10.988826751708984 l17.217754125595093,-0.9633734822273254 " fill="none" stroke="black" stroke-width="1" /></svg>