<?xml version="1.0" encoding="utf-8" ?>
<svg baseProfile="full" height="116.1629130556818" version="1.1" width="96.62485868714757" xmlns="http://www.w3.org/2000/svg" xmlns:ev="http://www.w3.org/2001/xml-events" xmlns:xlink="http://www.w3.org/1999/xlink"><defs /><rect fill="white" height="116.1629130556818" width="96.62485868714757" x="0" y="0" /><path d="M25,25 m0.0,0.0 m14.735961015078885,15.505043696905595 l0.48237322767309887,0.11131076675600336 2.621207641656976,0.04955689880244337 l23.599426965159225,-2.068744957617484 2.2457922114852744,0.20762336202819856 m-16.59422316437114,9.371815014635972 l1.5711295377353565,0.8992194272571737 8.360814733107592,1.5628079443206393 l0.22700064567852316,0.4745006767580626 0.35566104317363295,1.1225530470076874 m-8.084020002710504,6.852925471996652 l0.5316179477230345,1.686452127511981 0.10878977642092981,4.27776936892426 m-14.305705273144195,1.2640146354105752 l2.0455392247566144,0.160752399885706 23.348528838683713,-0.15515295241209576 l2.472984978490519,0.182680797092773 m-32.922526204011525,6.022333929706603 l2.4897061584344957,0.24612545314767645 26.772294861312425,-0.9810301571819791 l4.260558443365585,-0.11357359010129985 2.3019460814490484,0.23875844303811422 m-18.926278661208347,2.003935281455563 l0.44336595789535815,1.3749016083636358 0.07713025720268184,1.0800793072501962 l-0.09265780543065524,5.399228159551771 -0.3946370792797478,8.681044519882844 l-0.44705223288206014,0.6090352758361738 -0.5500719372512453,0.09694709946833983 l-1.3046081958318172,-0.6977363959373168 -1.4994143063856251,-1.5098779302705971 m-5.8977649591681995,-9.412692908215009 l-0.06873355320049553,0.7432720637422836 -0.4043121837236938,0.6643853245594872 l-2.479124645930353,2.1074397654837727 -4.206962128784405,2.756366038126624 l-4.46577917894744,2.5807975054390635 m29.282665766902717,-9.341902340126289 l2.8543644078151167,1.7712113423523956 3.0289620894250584,2.496303351502692 l2.184108653909874,2.358517846160517 1.1282828715500297,2.0383837802317233 " fill="none" stroke="black" stroke-width="1" /></svg>