<?xml version="1.0" encoding="utf-8" ?>
<svg baseProfile="full" height="102.64633603699876" version="1.1" width="103.84793959750397" xmlns="http://www.w3.org/2000/svg" xmlns:ev="http://www.w3.org/2001/xml-events" xmlns:xlink="http://www.w3.org/1999/xlink"><defs /><rect fill="white" height="102.64633603699876" width="103.84793959750397" x="0" y="0" /><path d="M25,25 m0.0,0.0 m6.917004941861197,5.2308516219951935 l0.3161035047150995,0.4202291059189651 0.49268191253733784,1.591333876391803 l0.07326686704459004,45.377376947857236 m0.3502136422969486,-48.02250547744138 l13.64681020249245,-1.816759081201087 1.5661528366776356,0.24766870988540474 l0.4277750999582547,0.378574983643467 0.18762257859158762,0.7308771593982134 l-0.8173031509923976,12.941039339525862 m-14.60420472936843,-6.446838917603458 l14.485646683450819,-1.5789664334187963 m-14.421148862734547,8.09674665816393 l13.722832212495742,-1.541026149727365 m13.74911045104887,-13.558973805270895 l0.5317946301540686,0.9150352313656888 0.11862064792503284,0.8348875959687008 l0.0031320440603411557,12.951025902919936 m0.6211805059417042,-13.69122016607466 l13.822549390510385,-1.946768995859344 1.2748813699045118,0.26038831993156886 l0.8190732346612829,0.34665779529858265 0.5641435842714841,1.0978722657847553 l-0.033612133262793824,47.70557672280186 -0.25317782740373823,1.3153317026265459 l-0.4826416558780159,0.687693000555946 -0.6575115117320368,0.12022812356208307 l-1.579471224287467,-0.8874931525723403 -1.9029784499350604,-2.0017804886612764 m-11.0407746511267,-40.71512139006519 l15.040322988827867,-1.2010663890262927 m-14.78366457938269,7.766633085236677 l14.577575717703922,-1.155714779193466 m-31.26608763593329,9.722688800028084 l0.5691106194831463,0.8397724888451763 0.1751293250520241,1.0133260334244871 l-0.0013395529054239506,18.836158833682372 m0.3958234411903503,-20.08516641959563 l13.49401937143311,-1.2148761958139156 1.2937463995586773,0.44094366941691776 l0.4313742126160478,0.8538107643713362 -0.28493263484957576,19.44994039780091 m-14.673250521840275,-10.761636170524577 l13.893620570916267,-1.2916160974667394 m-14.134861579640287,10.804278920046022 l14.278639503363882,-1.2419076742406188 " fill="none" stroke="black" stroke-width="1" /></svg>