<?xml version="1.0" encoding="utf-8" ?>
<svg baseProfile="full" height="106.41866057922539" version="1.1" width="94.416501764436" xmlns="http://www.w3.org/2000/svg" xmlns:ev="http://www.w3.org/2001/xml-events" xmlns:xlink="http://www.w3.org/1999/xlink"><defs /><rect fill="white" height="106.41866057922539" width="94.416501764436" x="0" y="0" /><path d="M25,25 m0.0,0.0 m6.037188350188199,5.449141346337788 l0.3365769926628305,0.38440778900026656 0.9646069959235399,1.585460587783234 l1.2115694171543239,1.5541020681060826 1.1943188983660173,2.9815554310742334 m11.848896184416992,-8.163360131370135 l-0.0924648514860894,1.1270532546026564 -0.8172335236186601,1.693114793872768 l-3.361851461138027,4.463478750252712 m-14.24329555618405,3.4209997821453473 l2.8189103883393467,0.15427230922598748 13.674985077802086,-1.8670844168618999 l3.0020214634799367,-0.35006549366153705 m-9.37813284901925,-12.102816509123619 l0.5132674201405887,0.7861130509607667 0.21190506254986088,0.9676961927369682 l-0.04686784679325422,23.82094720630825 m-0.5658642473886344,-12.43103445641725 l-0.20411191156887293,2.4207854838387504 -1.8251821350940716,3.984077941945286 l-2.2147666498841145,3.6549095159149196 -3.1471116052716406,4.145572319595903 l-3.6388402713894084,3.5415725840437906 m13.5862695233029,-12.718261209896822 l3.647918536735271,2.5506607517643207 1.7510442261414838,3.121711112265249 m-17.97919435897355,14.058590517179397 l3.268822691190284,2.553174792962923 1.4239871782872497,1.5147620268010147 m11.127453148838478,-9.90518103446005 l0.18799887262904313,0.9899822994909038 -0.21857417012129357,1.1984671494757198 l-2.380636667845422,4.236700929742647 m-4.23094835965883,-13.523562114786175 l0.308053665734156,1.4820931225399647 -0.48979491565857247,2.333218133170927 l-2.1810901361017,5.562720831880222 -2.3487024763135613,3.38626426412196 l-2.204294832912718,2.4841869838421853 -4.232552752476524,3.5269187595795994 m12.262654827182985,-9.969705321090467 l1.9885283806471925,1.4083907775732796 2.1227759326261584,2.0814519859768823 l1.592615960895894,2.1675874444739422 1.0585845947219816,1.971851767917206 m17.943275723934814,-38.89309176781777 l-0.2534474850919243,1.0158896181650408 -3.2626645886860466,2.0223138517220036 l-5.00450897817396,1.8774181569608752 -5.6509245857573935,1.8176419108393438 m-2.46103399532122,4.840646369981349 l2.94115192323414,0.02274433970848781 17.38092875568709,-2.421122711670548 l2.4442827835519525,0.10708283399091136 m-23.160457138947415,-4.559525807470733 l0.5765806080125327,1.1559263180797148 0.0943871595360785,1.0860551647794119 l-0.3819969199175331,12.913504994388543 -0.6902940934470265,6.226027530044893 l-0.953657138613837,4.187687044017854 -1.275595391966516,6.709694667858425 l-1.1770328699659691,4.509431911499403 -1.819755862470109,4.580645176940929 l-1.786975533993732,3.1520136781191397 m17.260971333536606,-35.817805049060105 l0.0541967531549545,0.8063852239947781 -0.24358045584970733,1.0626941305601565 l-3.6831716042331117,4.241503179489016 -3.523602346671462,2.1896508910571444 l-4.283049976131661,1.8163674783580948 m15.092655906708726,7.067340222902163 l-0.24667781625175073,1.0700768885321463 -0.6264836052338605,0.7220071191698015 l-3.958479370720637,3.62872611129358 -5.016929128418557,3.2158200419053906 l-5.96934501207295,2.782227005845866 m19.402628965038176,-3.159176049499203 l-0.141406566799572,1.3030444743770637 -0.9286010576895048,1.249725579772503 l-2.5431350144679823,2.240689667047658 -3.302219907706331,2.348047365255403 l-6.794514038497422,3.8736648036571184 -8.54805600917356,3.6937648435934305 " fill="none" stroke="black" stroke-width="1" /></svg>