<?xml version="1.0" encoding="utf-8" ?>
<svg baseProfile="full" height="106.93940312244945" version="1.1" width="112.78301025035853" xmlns="http://www.w3.org/2000/svg" xmlns:ev="http://www.w3.org/2001/xml-events" xmlns:xlink="http://www.w3.org/1999/xlink"><defs /><rect fill="white" height="106.93940312244945" width="112.78301025035853" x="0" y="0" /><path d="M36.358510532633915,25 m0.0,0.0 m8.993391723328749,2.569386437829937 l0.3179492134712801,0.42560669759413305 0.4144849874101745,1.1261504614183446 l0.08255135557832188,1.305976395734273 -0.12761490237068915,47.75196709703233 m0.4922030325135658,-50.58326645405258 l17.311408915188355,-1.408457498300117 15.966777348957871,-0.8416154524086018 l5.824337873348691,-0.13343880214979778 0.6415989943718107,0.06659643755857844 l0.8928756703555827,0.6427285114794312 0.48899767305443165,1.1970729053787594 l0.12553783251645861,1.5901974490218784 -0.39049062771148574,28.643160430939805 l0.13199137437297953,18.268151882679593 m-35.08396799302703,-42.18906363374129 l2.1116212743962337,0.21875542461083455 16.3544481043429,-2.0863136678594763 l4.071785184690917,-0.3026566886723034 1.6923777982023573,0.2566753164195268 m-23.878309557586707,8.452317402397929 l0.5677381581956857,0.5373749792765478 0.295027597787264,0.8080670067091991 l1.5673015636958438,9.294692419211218 m-1.1404302165351081,-9.520834002024188 l15.676185903600564,-1.8190057416281153 3.614418864383551,-0.3264561888570975 l0.5351082619125125,0.1783388217189739 0.4212509275979509,0.9132506836127742 l-0.7478108307238684,4.634966007131242 -1.0744830723386427,3.6976372183127317 m-17.823877424057265,1.9778059498821383 l19.36127797912711,-1.7153943651342514 m-21.559006971970692,8.176325112059873 l2.201026461146699,4.230918031318561 1.338055304432542,4.3479626379459875 m15.6239965803971,-10.822012996173296 l-0.14680143570595888,1.6479812334057056 -1.3016521488907586,3.453652777412856 l-1.7064710158228673,3.2071400740915292 -1.8310610003028263,2.7394195715322467 m-23.548883476769962,3.0318336750558106 l1.7766464398549,7.290629881507684 1.4401620748841653,6.005179683170128 m18.14094168672808,-11.93980494699901 l0.08872192334189999,1.2343459662826632 -0.5556031065065453,1.6918997683940566 l-2.990849925866633,4.833017240553195 m-27.78255767767581,-13.840077800291443 l1.5205078079664454,0.8758166182751864 2.2488513806865438,2.02960788973137 l1.917094043784096,3.209121139714242 0.7308386256479189,1.7028744917841094 m21.89122777165374,-9.005963515732354 l-0.1879099095708193,1.1461155305978397 -1.5263238694889372,2.4268363617622337 l-2.1176800460220258,2.458147292075048 -2.536659435432269,2.2793673023531746 m-30.170783601182293,4.751459495474481 l36.758808263651346,-1.61493302835092 " fill="none" stroke="black" stroke-width="1" /></svg>