<?xml version="1.0" encoding="utf-8" ?>
<svg baseProfile="full" height="100.22490691130588" version="1.1" width="94.3087643065773" xmlns="http://www.w3.org/2000/svg" xmlns:ev="http://www.w3.org/2001/xml-events" xmlns:xlink="http://www.w3.org/1999/xlink"><defs /><rect fill="white" height="100.22490691130588" width="94.3087643065773" x="0" y="0" /><path d="M25,25 m0.0,0.0 m8.061321107819607,17.999150391775107 l0.30685621266055235,0.3474453392947587 0.4276285826161813,4.886540280396166 l0.8877323508487813,12.270669698709625 m-0.9667838071466957,-16.606667002143638 l8.203051274927503,-1.919561877631966 0.4746101552161963,0.08747281237886735 l0.33320823480912565,0.374887908004506 0.21668645251913393,1.1855267337925908 l-1.5971011482224768,13.154005261530827 m-6.674203769927008,1.764472284430162 l7.75874013068893,-1.254919881198201 m6.9810249596282326,-22.370644328702706 l1.52012225508807,0.19417383466331165 11.20952884210919,-1.7854552398443893 l2.12547144235626,-0.1914668529551964 m-7.443758735723936,-7.103157059892198 l0.5142363142507689,1.7827257921332367 0.11677620016961433,14.256826436356155 m-10.917264585057467,1.4752831792422771 l1.7653741029640728,0.3436035795572308 16.760850658119413,-3.026602787905737 l3.0087098844443574,-0.2590917198913408 1.2359471914188953,0.375161683041422 m-4.272618891962447,-12.65955039888954 l0.12572243566961808,1.2361083281855387 -0.23406400211493683,1.1590118401183014 l-3.5697702126932165,6.643270982132774 -3.363748763263119,5.496042455953454 l-3.1060831524545973,4.435333738557657 -2.7959751104759833,3.4918475063466667 l-6.66107765959667,7.104172585827843 -3.0418141869412856,2.3866999854342517 m20.062237408838335,-12.502260347559066 l1.8952885919979208,1.788667800487569 0.9318135742645458,1.700985189667166 m-10.854018707235614,3.7660351384359445 l0.2989476411317103,1.3524605176561535 -0.08199427078581695,18.8457031238103 m0.28623317109917285,-18.950876872387152 l11.350229560338251,-1.6225641063277192 0.5185627168813867,0.18242108039180185 l0.2921863136294693,0.8691513151981373 -0.153194851940136,19.430217638399643 m-12.09041594802459,-10.492894025875522 l12.016131061608663,-0.8423962565419205 m-12.044119136861557,10.28734445631037 l12.026565257883206,-0.8639966272939154 " fill="none" stroke="black" stroke-width="1" /></svg>