<?xml version="1.0" encoding="utf-8" ?>
<svg baseProfile="full" height="113.23970956840817" version="1.1" width="100.49755303543924" xmlns="http://www.w3.org/2000/svg" xmlns:ev="http://www.w3.org/2001/xml-events" xmlns:xlink="http://www.w3.org/1999/xlink"><defs /><rect fill="white" height="113.23970956840817" width="100.49755303543924" x="0" y="0" /><path d="M25,25 m0.0,0.0 m7.451579659734391,3.0943490173431547 l0.3821154522191831,0.48014385227642287 0.6697530636873827,1.799731563012369 l0.1048370473164219,47.2686656092896 1.5820710979923125,1.6809210791437201 m-2.2949092311788775,-50.60546618686041 l35.93211551446535,-2.4455824560881037 2.104687499972239,0.4280037730482989 l1.0572266570258742,1.1178124771125664 0.2879674137377507,1.7193100184211345 l-0.5255653106780886,48.14415273059766 m-23.023797468556737,-41.322044772322975 l0.6173618405813429,2.1615264833042693 0.1316136659788183,7.3126404402455325 l-0.40099535318629376,5.98209729408974 -1.636805344393711,5.061751615913993 l-1.700607204773587,2.8894302379767742 -2.400292488485771,2.797437877725233 l-2.2726281779622646,1.9088967995805255 m18.056130304478135,-28.564405592575515 l0.6113895020052111,1.7706024107016205 0.13986065633543432,1.5640289785938049 l-0.12061157521958382,16.526713428385982 0.329373997205198,2.7555750806508286 l0.5343171409994101,1.1826650884614205 1.6215613872289327,0.7535704947171481 l3.4689029600852552,0.11683013729761921 2.9655981626748833,-0.4911036839449587 l1.6717803583915147,-0.9237915041568299 m-32.008503319865966,17.175553471031584 l34.923425683289054,-1.6771057533629754 m-32.7948711920049,13.576799558798939 l35.03347063634094,-2.09718336786198 " fill="none" stroke="black" stroke-width="1" /></svg>