<?xml version="1.0" encoding="utf-8" ?>
<svg baseProfile="full" height="125.74195823544643" version="1.1" width="100.86978615472025" xmlns="http://www.w3.org/2000/svg" xmlns:ev="http://www.w3.org/2001/xml-events" xmlns:xlink="http://www.w3.org/1999/xlink"><defs /><rect fill="white" height="125.74195823544643" width="100.86978615472025" x="0" y="0" /><path d="M26.86013610725339,25 m0.0,0.0 m10.486642662127858,15.776995549211184 l0.5428386906229307,0.10158567380655394 3.4190856752999914,0.01998145426873217 l24.859812073377842,-2.2369725650665075 2.616874199998983,0.1766774982359732 m-34.64288976919104,8.892624037514757 l3.187482235283768,0.19487065689731303 28.673862095870952,-2.435305195767793 l1.7653967407292666,0.15819495079177173 m-40.90427943856003,9.636358771058836 l2.1170742384973398,0.26840129638377824 2.3029483842284764,-0.04947541383860818 l35.76339767406583,-3.019930055760812 5.923593760003483,-0.23775359585616307 l2.8978108251112182,0.2862939529217749 m-25.13090692100166,-17.790894017112773 l0.4297230102788979,0.8288722479747686 0.04668775951395811,1.5399011008075063 l-2.4119820998810138,11.247236652946823 -2.4736149992483383,6.993691184452276 l-2.824695028391651,5.531682569535876 -3.6263323817681816,5.086397880773704 l-3.4304761119144205,8.213427162655943 -2.8910827356242916,7.143635485870483 l-2.6673491141463503,5.5634476403416455 -2.7104975991436855,4.339776039706098 l-3.1792599333935128,3.5796975539520646 m16.31093670177847,-16.735902096499526 l0.6160029587723681,0.45648753585559754 1.9967502586653925,1.3832535825940833 l2.1578175671768745,15.408765715215234 4.930237080476035,4.792781675256023 l4.1484668019652275,0.6271533063198306 4.249169655925451,-0.25966395565137373 l2.8900161494889076,-0.6214986148928302 2.184396508979282,-0.7716084979032718 l1.8711394453656265,-2.716734458604527 0.13009899136152497,-2.6977276555344476 m-13.044985949832636,-33.65162607782322 l1.999110087574383,1.0031587004116438 2.2682455701860142,1.9203084337416678 l1.7633249750697149,2.02229452949365 0.7053620831790721,1.308364242666192 " fill="none" stroke="black" stroke-width="1" /></svg>