<?xml version="1.0" encoding="utf-8" ?>
<svg baseProfile="full" height="112.45500287965359" version="1.1" width="97.97099655486339" xmlns="http://www.w3.org/2000/svg" xmlns:ev="http://www.w3.org/2001/xml-events" xmlns:xlink="http://www.w3.org/1999/xlink"><defs /><rect fill="white" height="112.45500287965359" width="97.97099655486339" x="0" y="0" /><path d="M25,25 m0.0,0.0 m8.531246142486925,12.012818676889369 l0.45444148236239407,0.292211006079445 1.9227100192556341,1.4150063649782045 l1.9781622017609561,1.8097254661856639 1.6339968018019084,1.9397920254990788 l0.695311460355596,1.2105554752580958 m-9.716463983045239,11.124504687569553 l2.050070639170654,1.2940257236836779 2.119106811902757,1.727563251463314 l1.768524542526112,1.8544549113122148 1.0044080149058918,1.5775131812120786 m-6.739744960740513,25.576011888678142 l1.1205803172578852,0.6208202208447404 0.5345379885626657,-0.019356909904894207 l0.9045782890498003,-0.7901892369333265 2.4461423732319596,-6.340378578344558 l3.6905795890642423,-9.742229371502505 m6.44250019998718,-34.7626322810518 l2.694804763589811,0.2513546883737906 9.656161400431394,-1.3249120715458333 l12.921451591471843,-1.324537199960211 1.8578908694735254,-0.03691739134203786 m-25.442579261800358,3.0712713338853264 l0.5368679499634724,1.3478129716736436 0.18088921184096388,2.235410418814675 l-0.7497088480797304,7.904389161838894 -1.1069475805389324,8.054917720319962 l-1.1676272482619798,6.324858699270859 -1.4241436308211433,6.1597878319949 l-1.6890764399221072,5.91783107127255 -2.093677236969879,5.8295276072052244 l-2.645038358870851,5.48128393113692 m11.061192227021085,-34.646829285012934 l2.1970605428197287,0.20423621286631796 13.398401513120742,-0.3373224665014321 l5.820325780693599,9.065906726946144 m-22.416756097748163,6.232646122649746 l2.450189257843704,0.1997601651338161 14.529792702356465,-1.5719243224980446 l4.443182672056248,0.08699887881172981 m-11.518780917793437,-8.40407072733214 l0.5150372437282741,1.291794214131558 0.19240565732027917,1.676700050432593 l-0.0660941738651344,27.38925518523351 " fill="none" stroke="black" stroke-width="1" /></svg>