<?xml version="1.0" encoding="utf-8" ?>
<svg baseProfile="full" height="110.26564090210148" version="1.1" width="113.97447676561738" xmlns="http://www.w3.org/2000/svg" xmlns:ev="http://www.w3.org/2001/xml-events" xmlns:xlink="http://www.w3.org/1999/xlink"><defs /><rect fill="white" height="110.26564090210148" width="113.97447676561738" x="0" y="0" /><path d="M25,26.36353167266593 m0.0,0.0 m5.9579362702889735,4.681108965381051 l0.365472084085654,0.47786385582784646 0.5337346103853849,1.329505434064045 l0.14413720072738292,1.3612997519210894 -0.1883609995763843,50.35485834847737 m0.27918697132387665,-53.62072966907436 l15.846435825878364,-1.834581873355588 1.7786212395871865,-1.1371780958598428 l1.5207925609637303,-0.09188384001889406 0.8157568769374196,0.3376467950196881 l0.3075266256405647,0.6137705586801573 0.06257040223696383,1.0175612476886253 l-1.085851544079175,15.684649146044078 m-17.33929208440502,-7.458841357365702 l10.873397114732407,-1.951656508565437 m-11.361250247217482,9.685284682637667 l15.999012079534166,-2.2304454502508384 m18.82207277031931,-17.512939625585958 l0.6973061313144555,1.1281028620969755 0.10587923432558623,1.2497923374072777 l-0.046509953936365846,15.394060058191558 m0.6262277988814086,-16.61066566317657 l16.519325919090765,-2.2301136328501716 1.5724056186509778,0.34609874995462314 l0.7014117688791885,0.5233877966440903 0.4665324910480515,54.51085141024334 l-0.16919183120836906,2.52190997795275 -0.5406779481815845,1.6924838077696958 l-0.7814420880818163,0.6709091595369729 -0.9371718220963638,-0.07959815341678246 l-1.0057659625303754,-0.5321371098692053 -2.4208191769182017,-2.2493344315139785 m-12.777714818747818,-45.96370515962079 l11.12292490746385,-1.242955924278488 m-11.304777852132741,9.224543652700556 l17.036104806156654,-1.4656101359777618 1.5099149724764573,0.09656565093617303 m-34.411881393996566,6.2804686386857576 l2.7893256662362176,3.155564430874308 1.3173523069569162,2.5740786365866106 m11.954344874706548,-7.311238423800873 l0.031289293494552436,0.7572880622354697 -1.1886460751762806,2.097756305590358 l-3.270150236559201,3.8569946127708166 m-15.500917907536833,3.2078336634855553 l0.5487074805210571,0.1762560921190781 1.2064760631927973,0.06851798011801963 l18.612950210039497,-2.384216334050293 2.585734138825798,-0.043353376624049936 m-27.199209817101572,10.282367675296024 l1.7828407444706509,0.22804115532334537 25.471055561606242,-2.7736608914691674 l3.5565058691112736,-0.19398295054217057 2.5400884964958346,0.2756837485939049 m-17.409568296346425,-5.175350786125118 l0.7260833623780484,1.2563153662286264 0.00795434787580785,10.428274920458337 m-10.003555911127245,-2.967242283706528 l0.07544203975706983,1.2101428741667415 -1.425802483641981,2.7496500485972053 l-2.1828042062055864,2.8143303378069975 -2.31580527398091,2.302886550265606 m20.064807106529194,-10.184949968345638 l2.103866770281719,1.4033922900727795 2.4793787205201427,2.3351949003676076 l2.070980884053092,2.5651961029580677 0.937019796698755,1.9541369082787303 " fill="none" stroke="black" stroke-width="1" /></svg>