<?xml version="1.0" encoding="utf-8" ?>
<svg baseProfile="full" height="94.41091877235728" version="1.1" width="102.88077551112016" xmlns="http://www.w3.org/2000/svg" xmlns:ev="http://www.w3.org/2001/xml-events" xmlns:xlink="http://www.w3.org/1999/xlink"><defs /><rect fill="white" height="94.41091877235728" width="102.88077551112016" x="0" y="0" /><path d="M25,25 m0.0,0.0 m13.41501108989323,3.7221676966046835 l0.39304551896941126,0.35998525917861 0.48008771993929833,0.9103846198313554 l0.11849524423858979,1.001817891168661 -0.07788256772555267,36.27901194441323 m0.43976184302325977,-37.01481458349738 l22.029536677949555,-1.6776067004405242 14.987321945712427,0.11795444524789904 l1.0115549642768682,1.1832207223805367 0.08384307484306519,37.525105629296306 l-0.2945262256426061,1.2513478929364326 -0.5013332142289312,0.6388065674507465 l-0.6175855457640036,0.11353738778672677 -1.4084617551048477,-0.8050663822698778 l-1.6324476835006188,-1.562416648543818 m-27.37917704584609,-31.35335642296632 l2.815002203770166,0.9162355881434865 14.310833068913036,1.4353291111252566 l6.580985030752096,0.2999095582606803 m-24.584053210666116,-7.086581918083341 l0.8035568558817238,0.5643811030471259 0.4653555430422424,1.2383941413713293 l1.003550838927309,31.953853000228158 m11.547482777672222,-28.820706254442428 l0.7576456507948623,0.6733661111924495 0.2352170901725008,0.9681458096584097 l-0.1193181425836547,24.77214273458685 m-33.10922965411699,-15.275003288339105 l21.926979590229564,-1.1592211107152484 12.811096210940885,-0.5678862798114939 l5.636274289761116,0.029358511326932242 m-34.96759902628645,9.395551184418972 l14.515860893874077,-1.1238699679511057 13.655795052069596,-0.8358396077307543 " fill="none" stroke="black" stroke-width="1" /></svg>