<?xml version="1.0" encoding="utf-8" ?>
<svg baseProfile="full" height="118.07280217086259" version="1.1" width="110.89871391903213" xmlns="http://www.w3.org/2000/svg" xmlns:ev="http://www.w3.org/2001/xml-events" xmlns:xlink="http://www.w3.org/1999/xlink"><defs /><rect fill="white" height="118.07280217086259" width="110.89871391903213" x="0" y="0" /><path d="M25,25 m0.0,0.0 m8.643861491935711,11.9986078123658 l0.5287635583442755,0.2690663019816036 2.0427828591280663,0.2272663700865892 l9.660543726601901,-2.7000755745794716 1.1996979602295805,-0.17593111276621945 l0.671673256594837,0.14947610128702038 0.45025157040314684,0.5181236811487168 l0.2112364147415915,0.7710944012953841 -0.12694653263987946,0.8622723471966909 l-2.3411787339240817,12.346339287494805 m-11.085854818511855,2.5940578086940356 l1.5177044783778608,0.35531571198717227 1.8429908232394334,-1.8913150224323012 l6.519274790885101,-2.7390909318594203 m-9.89966974900104,2.1298905096845075 l0.10938098587673054,1.342459436640035 -0.05368028859581124,1.5697935117469612 l-1.8544809750735118,11.102878841014144 0.46484572701956134,0.7366177668623386 l9.502564898764861,-0.053900453199147276 -0.3443446174081423,0.799976292973457 l-0.7502140799466023,1.7602517215550255 -1.7338259041808362,3.832969648431218 l-2.1122110472800757,8.710610068337337 -1.590404936260168,5.581947772582817 l-1.470506018820799,4.061695727325042 -1.2902992603503167,2.7896194545147326 l-0.6819972837315125,0.9050899985096587 -0.5812373797200738,0.21769469198406613 l-0.9948956041254975,-0.2097683127597455 -0.907928620919263,-1.175514545950821 l-0.6908909338994758,-1.7240847834117847 m28.046621544835467,-56.5035211598526 l-0.09281153095368125,1.3296092372625834 -0.4892370122996657,1.3444365910470473 l-3.727486899338347,12.580296680054003 -2.7795447876337067,8.685515815636693 l-2.5905636683953257,0.9902091910304489 -1.9164339827463208,0.320851625554581 m7.848417510362828,-19.06105404861076 l9.632144084733497,0.8403640411938942 13.45983210806097,7.966041427456753 l4.679202390238612,2.4236817794799816 3.973568404414094,1.8613093385484216 m-34.212405093498184,3.092607490992168 l3.577261951657647,0.23478889644805082 14.919187322205989,-1.970918114795282 l1.8475624637631656,0.09303223793202485 0.9221977080030992,0.4179748513552196 l0.6367149721446935,1.1734006128194407 0.029639411465097337,0.7850701823520265 l-0.47537697472506135,3.735820731292905 -1.60571475078868,5.8907147811341325 l-2.017644861980218,5.272769697114888 -0.8362979844832155,2.0345244614126354 l-1.3322770449055554,1.859247979600147 -1.1437184165469263,0.14843568449601713 l-1.6501590860684325,-1.98974719379658 m-2.8895526106994254,-18.48887482856222 l-0.17059888767932674,1.235402142654859 -1.2855191188076855,3.065972593506117 l-3.402314145828098,6.472051571352836 -3.3977267099206863,4.895645910105276 l-4.577954037880613,4.880604829929747 " fill="none" stroke="black" stroke-width="1" /></svg>