<?xml version="1.0" encoding="utf-8" ?>
<svg baseProfile="full" height="109.49251309037209" version="1.1" width="108.6284027993679" xmlns="http://www.w3.org/2000/svg" xmlns:ev="http://www.w3.org/2001/xml-events" xmlns:xlink="http://www.w3.org/1999/xlink"><defs /><rect fill="white" height="109.49251309037209" width="108.6284027993679" x="0" y="0" /><path d="M25,25.000000642612576 m0.0,0.0 m7.945634722709656,2.035606950521469 l0.4558374732732773,0.4670717194676399 1.1841902136802673,4.086536765098572 l1.5114723145961761,8.630273342132568 m-1.575515866279602,-12.299100160598755 l11.234912872314453,-1.7924557626247406 3.886703848838806,-0.2092801220715046 l0.5440091714262962,0.3520059213042259 0.24187641218304634,0.657372772693634 l-0.10238470509648323,1.0274215787649155 -2.314932644367218,8.574783205986023 m-11.27508282661438,1.9867569208145142 l12.179950475692749,-1.3038517534732819 m9.826208353042603,-10.52885890007019 l1.1222316324710846,2.0221617817878723 2.0290128886699677,9.942295551300049 m-1.7498166859149933,-11.427596807479858 l14.165685176849365,-2.203313559293747 1.793391853570938,-0.01783008687198162 l0.5623924732208252,0.2400040440261364 0.4006025195121765,1.172785758972168 l-0.18366266041994095,1.0104000568389893 -2.210164964199066,7.703619003295898 m-12.3099946975708,2.1678663790225983 l13.05179476737976,-1.3037241995334625 m-41.72325611114502,14.761099815368652 l3.8094258308410645,0.19677460193634033 32.4883770942688,-2.8681334853172302 l5.276004076004028,0.1477205753326416 m-21.003248691558838,-9.139899015426636 l0.17749235033988953,1.8805424869060516 -1.9414795935153961,4.602290689945221 l-2.74591863155365,4.810293912887573 -4.029344618320465,5.379495024681091 l-3.6555510759353638,3.871384561061859 -3.999386429786682,3.5547831654548645 l-5.427155494689941,4.09266471862793 -5.833630561828613,3.816915452480316 m28.933932781219482,-21.645982265472412 l19.290878772735596,14.105088710784912 5.020340085029602,2.9976674914360046 l2.190675139427185,0.9290369600057602 1.3858957588672638,0.2701322175562382 m-48.93495559692383,3.025752902030945 l0.8680997788906097,1.1009547114372253 0.4710717499256134,1.6643685102462769 l1.8122859299182892,10.948610305786133 m-1.575515866279602,-12.65859603881836 l11.188273429870605,-1.743178367614746 2.9249855875968933,-0.07536297664046288 l0.5297110602259636,0.37481483072042465 0.21532276645302773,0.6859689950942993 l-0.1327681913971901,1.0573795437812805 -2.105652391910553,7.948048710823059 m-10.577880144119263,1.8260733783245087 l11.831347942352295,-1.1295510083436966 m6.340191960334778,-11.220614910125732 l0.760863870382309,0.8323544263839722 0.6479258090257645,2.21212238073349 l1.7427527904510498,10.661966800689697 m-1.7498166859149933,-12.996304035186768 l11.650919914245605,-1.5813033282756805 2.5920435786247253,0.1028261985629797 l0.5130299553275108,0.3628997132182121 0.4115813970565796,1.2030841410160065 l-2.024714946746826,8.864150047302246 m-10.926481485366821,1.993565559387207 l12.702852487564087,-1.1295510083436966 " fill="none" stroke="black" stroke-width="1" /></svg>