<?xml version="1.0" encoding="utf-8" ?>
<svg baseProfile="full" height="109.49251297861338" version="1.1" width="101.8642446026206" xmlns="http://www.w3.org/2000/svg" xmlns:ev="http://www.w3.org/2001/xml-events" xmlns:xlink="http://www.w3.org/1999/xlink"><defs /><rect fill="white" height="109.49251297861338" width="101.8642446026206" x="0" y="0" /><path d="M25,25 m0.0,0.0 m2.1127624809741974,2.2443459928035736 l0.410604327917099,0.48690829426050186 0.5404579266905785,1.160641610622406 l0.17711587250232697,1.4432741701602936 -0.21726742386817932,54.1573429107666 m0.8547413349151611,-55.92978000640869 l39.48439598083496,-3.448135256767273 5.82852840423584,-0.11459496803581715 l1.8093962967395782,0.8857077360153198 0.6490969657897949,1.1527716368436813 l0.21441243588924408,1.580142229795456 -0.05606245715171099,52.90773391723633 m-38.41066598892212,-42.308669090270996 l3.8620758056640625,0.19616246223449707 17.655643224716187,-1.9969484210014343 l6.2983280420303345,-0.16831569373607635 m-15.427772998809814,2.677140235900879 l0.6532030552625656,0.9649201482534409 0.37685777992010117,1.7046922445297241 l-0.06306893192231655,23.512742519378662 m-11.62831425666809,-14.080990552902222 l3.090481758117676,0.012331495527178049 18.968549966812134,-2.0689110457897186 l3.609212040901184,0.15749188140034676 m-30.22047758102417,18.000893592834473 l3.636927604675293,0.11208214797079563 25.94813823699951,-2.4807772040367126 l4.288419783115387,0.09106005541980267 m-8.179237842559814,-10.703085660934448 l3.097667396068573,2.539587616920471 2.508450150489807,3.3330807089805603 m-38.016486167907715,19.632362127304077 l46.95192337036133,-1.7588406801223755 " fill="none" stroke="black" stroke-width="1" /></svg>