<?xml version="1.0" encoding="utf-8" ?>
<svg baseProfile="full" height="103.17791266019508" version="1.1" width="100.76281495457995" xmlns="http://www.w3.org/2000/svg" xmlns:ev="http://www.w3.org/2001/xml-events" xmlns:xlink="http://www.w3.org/1999/xlink"><defs /><rect fill="white" height="103.17791266019508" width="100.76281495457995" x="0" y="0" /><path d="M25,25 m0.0,0.0 m8.45859894672245,21.833412094634735 l0.2741113749243871,0.3743863907798373 0.9699962168134094,4.938650368317448 l1.2319902185910236,10.19326489050527 m-1.5785295049268002,-14.890031758135912 l9.955837363643086,-2.0664412116359014 0.5247228513085203,0.06944576246723051 l0.3826608914793202,0.3415238662828466 0.24299591340101334,1.0758655217755793 l-1.879657992461082,11.806954576465163 m-7.66034019105003,1.7674342300259007 l8.999383896959804,-1.292184142786892 m8.667686996564576,-20.253314084999026 l1.597818263065824,0.14633707191625175 12.252691885069275,-1.548938064912774 l2.3295548262171413,-0.16314598820123427 m-8.083791807940598,-6.602136122156139 l0.5628964754457136,1.6580709295490406 0.11203646684914527,13.155745573057171 m-12.342951716414566,1.5371086523370927 l2.028189211565072,0.32107909246995847 20.930082478133418,-2.971482507363404 l1.4696158817433114,-0.16782897301556118 1.3172160088765434,0.30957453201298957 m-5.182686461415496,-11.490882788772648 l0.13041185464993366,1.0915393158911675 -0.2554160901547754,1.1129940674384347 l-3.913243711708368,5.911854790918746 -3.8679702462658616,5.104261530317667 l-3.581777708730266,7.100769663351319 -5.339028149388603,10.085198923052348 l-3.084027857947518,5.010815630433931 -3.5287950458328976,4.790492350793697 m13.470899096221505,-15.549308495397806 l1.7286586730963749,2.410726249981864 0.9493131494983845,2.207487424368444 m-10.401826918677285,-6.567787595648789 l0.3195977228066024,1.4633771120853618 -0.20600956875952425,19.868011302311775 l0.13415410035613562,0.7344874865696011 0.4474553256582693,0.32052499311030197 l0.8011913896470438,-0.11416059630976898 6.480610792279173,-6.290806146503042 m-1.4688261020940208,-14.198756439953511 l1.75995568120299,1.6355773195480856 1.6515723771014652,2.1597823683901693 l1.504203898434851,2.531894553833074 0.9598986792818294,2.4026032297102495 " fill="none" stroke="black" stroke-width="1" /></svg>