<?xml version="1.0" encoding="utf-8" ?>
<svg baseProfile="full" height="118.48764786012504" version="1.1" width="106.09071797254812" xmlns="http://www.w3.org/2000/svg" xmlns:ev="http://www.w3.org/2001/xml-events" xmlns:xlink="http://www.w3.org/1999/xlink"><defs /><rect fill="white" height="118.48764786012504" width="106.09071797254812" x="0" y="0" /><path d="M25,25 m0.0,0.0 m8.934147622359182,7.403643302708606 l0.5767218896887345,0.16351863315718723 2.192578938793602,0.1871358141826849 l9.299639616020333,-1.6777355225644743 1.065467445054306,0.004402162378747015 l0.6519607976052129,0.2932299625616604 0.3639181552895363,0.5012152874632435 l0.023302522307489214,0.6134590832718775 -2.1614605751489204,8.745098798642339 m-10.943522481961278,1.6320342287033243 l1.7486832997045614,0.252774400513586 8.754282402123724,-1.0884339464062185 m-10.572611694920866,1.2624489223425508 l0.34140793874691544,0.8859966003059057 -0.05861334090058439,1.1475354855095965 l-2.7379159503710393,8.001663666622536 0.061267617351915396,0.8231226991847052 l0.41804750320854955,0.3679582466335721 1.6441465700531444,-0.045536227598636445 l9.166918597492565,-1.9380765718504847 1.1492512866488738,0.3187428546280797 l0.6289288493080188,0.40462894004626215 0.48812760627525553,0.48687542022921004 l0.2596779778904245,1.491862845380335 -0.7204055561720777,4.869423163764879 l-1.3726478867158842,6.14603505038935 -1.5118015879632118,4.965089717851276 l-1.6778492038767185,4.099609376038726 -1.366291445655717,2.0613000215515473 l-0.7154487078771998,0.5543587171475047 -0.6633718784348653,0.12048502309821918 l-1.110868704251108,-0.6338588327835085 -1.337368351296233,-2.1005214246413297 m25.690864129645664,-43.54941198180017 l-0.1469311464220945,1.9376138636681695 -3.1377352828319043,6.4945738100094985 l-4.103827259989645,4.960146266910833 -4.288526844945039,3.850123021465817 m8.444259425272795,-6.586562692977418 l2.5290192124697657,0.06286834463289825 8.387395536076783,-2.023984928491952 l1.3195606074247475,0.14705447946876357 0.441012978123333,0.35119944656537216 l0.2020873607627636,0.5622402984183518 -0.11843548997836367,0.695894016392928 l-3.926913576201826,5.949807826822548 -2.7072747603255136,5.649211126445951 l-2.4636794190208673,4.506401377997482 -2.872454936491625,3.971995081791139 l-2.5759469767084084,2.927457866852575 -2.8434621187153764,2.5429697805947247 l-3.0996128034370045,2.0435405735704024 m5.6997730274138645,-19.879208300312172 l3.0331766738671733,1.974252498805207 12.34801882939817,10.664827979379734 l4.099413947371224,2.872024816524726 2.592700085550209,1.1739397601330148 m-42.389384091882405,9.676065555652123 l3.6301157816286254,0.24730630551462504 34.13134011945663,-3.0315677656042697 l4.625214170253536,-0.14215775694157604 2.772651524406294,0.29867767136443535 m-23.420063298928,-6.423544041215955 l0.49933629599907436,0.9216727576744996 0.17564298547647106,1.2287636410126856 l0.012791575006207747,24.093971261337174 m-1.442945016516863,-19.432838650825097 l-0.6174535690423791,1.7193027081981445 -1.4976131759730942,1.6900011360157718 l-6.033277052873607,2.826233755828838 -8.272093361552608,2.740903718378047 l-8.508526985673619,2.2445490165741195 m27.298548037659486,-11.675875570863367 l16.041326198448218,9.284030752077937 5.709452038919443,2.626722953400246 " fill="none" stroke="black" stroke-width="1" /></svg>