<?xml version="1.0" encoding="utf-8" ?>
<svg baseProfile="full" height="101.40969043949954" version="1.1" width="97.1900869277544" xmlns="http://www.w3.org/2000/svg" xmlns:ev="http://www.w3.org/2001/xml-events" xmlns:xlink="http://www.w3.org/1999/xlink"><defs /><rect fill="white" height="101.40969043949954" width="97.1900869277544" x="0" y="0" /><path d="M25,25 m0.0,0.0 m26.583691423736287,2.520768879211833 l0.37064925090318823,0.4104459025573841 0.5106587790435004,0.9739039629664085 l0.14796800064281107,1.1306683962324726 -0.057438166592990364,12.575179867141815 m1.2001462084557306,-8.779140057778093 l10.490816638807225,-1.6558430325860567 2.3946442540205495,0.016087977026392284 m-27.517716823469282,0.5799786643397105 l0.8126907918749183,1.6455393530995337 0.24666407135306148,9.091845824783753 m-9.710559759089191,0.8094375909903558 l2.188294708154871,0.2700922504155305 2.0462597540756176,-0.006114844957028083 l30.885440973913404,-3.2151381442684626 3.418505056359422,-0.09283281902239923 l3.0629565520148896,0.26643452272994184 m-19.634042797950737,3.3571730937425945 l0.466705523508775,0.8344558406929914 0.1667622517644202,1.1564218499842955 l-0.10785297332701775,12.844137303067686 -0.26576525446454907,0.8937525970405027 l-0.39959344186736284,0.3806989644795534 -0.49474400167212584,-0.014669139252973369 l-1.229292520770834,-0.8919981184055035 -1.34772304815082,-1.4745103676374205 m-6.37567844658833,-9.06155165632781 l-0.3533367242193707,1.5440215756998825 -1.8724604384532313,2.5110579026276794 l-3.2452721416696715,3.110558586653665 -4.019200895528491,3.1007205028794864 m30.77457396419657,-13.368043534296064 l2.0512902675702027,1.0524874598892884 2.396417655970705,1.6957453261373934 l2.069727734270762,1.9749453899569416 1.5359005009314985,2.0846790343716544 m-8.612352798452507,-1.0403698122151517 l-0.05066388876500034,1.0044114475838553 -0.41101834730001635,1.1969341054076688 l-2.460927732113638,3.7846305322618665 -3.6419156048513948,3.953582410485306 l-3.666818744568351,3.2947381284132717 -4.186155153044337,3.242541272024051 l-4.573068516091276,3.0051259109323745 -4.852178707335144,2.598635290015375 l-4.9963780096761745,2.0980642504039926 " fill="none" stroke="black" stroke-width="1" /></svg>