<?xml version="1.0" encoding="utf-8" ?>
<svg baseProfile="full" height="97.1996115656462" version="1.1" width="95.73115405318885" xmlns="http://www.w3.org/2000/svg" xmlns:ev="http://www.w3.org/2001/xml-events" xmlns:xlink="http://www.w3.org/1999/xlink"><defs /><rect fill="white" height="97.1996115656462" width="95.73115405318885" x="0" y="0" /><path d="M25,25 m0.0,0.0 m28.365455740639142,2.490747231052888 l0.3369013440573332,0.5193122948159317 0.3485598991419676,1.861359154907706 l-0.02212549820937594,12.257956899371282 m0.8122641234787462,-7.859623073558739 l8.679712821349407,-1.5922671076400752 2.1032273077037096,-0.14989498926800818 m-23.926984484470072,0.8852150226386346 l0.6290948942097315,0.9140407583624196 0.2748110601776605,0.7585490689862482 l0.15815638295219225,6.67746265261471 m-7.479945084150162,0.8872767963731578 l1.6956497606413306,0.2924067841885669 2.7006560598081975,-0.09925924869618812 l25.318289463302122,-3.2717051217916335 2.777203575445517,-0.12401645494279255 l2.960226687111399,0.32100348589975125 m-27.234321042120516,7.722680254892252 l0.500644453613612,0.7923942444847842 0.16150677310971515,0.9315837868710272 l0.0048881499090002,22.285175707746955 m0.4594905454184907,-23.4752766644718 l14.364816897558933,-1.8072382925687154 1.1860297801249393,0.21202882623209426 l0.664617649083152,0.7360916752156647 -0.0635706171517348,24.155913653118716 l-0.35684298427242445,0.708806747860494 -0.4903120307808395,0.1688874729508614 l-0.5675639521226309,-0.23203280374222374 -1.948932532241645,-1.795885762140685 m-12.778009926208963,-15.972612569073164 l15.733822509962893,-1.5478997997562007 m-15.764577042422761,8.5307695668502 l15.773958453923443,-1.611869895726255 " fill="none" stroke="black" stroke-width="1" /></svg>