<?xml version="1.0" encoding="utf-8" ?>
<svg baseProfile="full" height="105.2320543353497" version="1.1" width="113.53419685377285" xmlns="http://www.w3.org/2000/svg" xmlns:ev="http://www.w3.org/2001/xml-events" xmlns:xlink="http://www.w3.org/1999/xlink"><defs /><rect fill="white" height="105.2320543353497" width="113.53419685377285" x="0" y="0" /><path d="M25,25 m0.0,0.0 m5.812052825615172,25.64961967743419 l0.41347867715745124,0.12778069689368976 2.6619279992732325,0.04321358664770212 l12.380097449441802,-2.3061473947799236 1.988412490395498,-0.03833891648686513 m-8.559441685177148,-13.134293947894315 l0.5633099842011285,0.8970179066579961 0.23198886940620217,1.6946684707944972 l-0.0008903426731242685,29.41229634561886 m-9.787783240779149,5.252789123773472 l1.0848612002621554,0.4317890055710294 1.3418093907666622,-0.46088451499480193 l14.191286151794024,-9.325138933305483 m5.870137808107912,-21.10350519824988 l2.1473052258077208,0.12729055135125905 2.201672662981249,-0.17946709945289205 l18.14837026771834,-2.66332568543604 2.9352396146893347,0.1872186795487599 m-25.274435761738747,11.008409670466605 l1.6106047825352192,0.3062286215971563 1.6684415337892495,-0.023062995022857698 l19.17749498026896,-2.462194154476244 4.2623571707999215,-0.18346222145614813 l1.1295104234995232,0.25139484335307305 m-16.10013437263083,10.8498462408814 l4.769547380309491,2.0342471711387478 4.1965133081528565,1.5995931926335667 l1.0041563147764765,1.348346230340261 -2.433986023700556,1.7407137577570968 l-4.262924387039324,3.72596071909409 -4.097290795275175,5.25145894525529 l-3.2717877562596858,4.327803431206494 -2.845246814954502,0.844188528889919 l-3.694060847920108,-0.07225757139047584 -2.2922438525741597,-0.267078070102431 m7.575545083192012,-19.527619161559063 l1.612670614952551,0.5969288013992242 2.348850788587554,1.2939230119429805 l14.77459224103597,9.098357590468561 4.743355156466521,2.969852530029774 l2.5361895733145956,1.8377601736443654 2.772642765196566,1.4510604155342326 " fill="none" stroke="black" stroke-width="1" /></svg>