<?xml version="1.0" encoding="utf-8" ?>
<svg baseProfile="full" height="97.88584605799963" version="1.1" width="100.00873778368234" xmlns="http://www.w3.org/2000/svg" xmlns:ev="http://www.w3.org/2001/xml-events" xmlns:xlink="http://www.w3.org/1999/xlink"><defs /><rect fill="white" height="97.88584605799963" width="100.00873778368234" x="0" y="0" /><path d="M25.026866841171742,25 m0.0,0.0 m23.251652379799374,4.218758276067734 l0.46485286197761,0.49313900621587786 0.6494207495516036,1.7554134443532476 l0.24344056843078613,8.328940789388009 m-19.714022303352596,2.5012243873721833 l1.923147608139349,0.33849562967610947 2.287031662345623,-0.06774363510544132 l32.370715778414144,-3.8440047554641756 2.173715750588076,0.003519953322691483 l2.0841178917203775,0.3915773224093115 m-14.460145062149925,4.569649343056917 l-0.18060252588071424,1.0380588143474603 -0.6842460728228686,1.4416430269332206 l-2.7580816936067953,4.189152121777801 -3.568110087124908,4.533530320976485 l-4.434307139959534,4.7365168722486635 -4.950343231392249,4.302827961729826 l-4.538282503689699,3.3071662300061635 -4.9572954227837,3.0041407781291265 l-5.229526049375687,2.643840170558416 m11.608948875608382,-24.943933716266507 l2.217398530507398,0.7108324984786063 3.1776504360993285,2.091319764994811 l16.554367293943187,12.745666256412921 9.745692544842612,4.675479382334025 l3.792614734081206,0.8619346940174051 2.912065368600239,0.32611707142136726 " fill="none" stroke="black" stroke-width="1" /></svg>