<?xml version="1.0" encoding="utf-8" ?>
<svg baseProfile="full" height="114.08503983723074" version="1.1" width="114.09348180664054" xmlns="http://www.w3.org/2000/svg" xmlns:ev="http://www.w3.org/2001/xml-events" xmlns:xlink="http://www.w3.org/1999/xlink"><defs /><rect fill="white" height="114.08503983723074" width="114.09348180664054" x="0" y="0" /><path d="M25,25 m0.0,0.0 m3.1767151503959266,23.854700493709988 l0.009100854694950125,0.6686395423517513 -0.6658884707904225,4.869010871930863 l-1.6537586669775919,5.6997452542673 m11.411435296660043,-15.789495066526973 l1.5183512220863138,1.5456319297384384 1.9419370989553313,2.329213484121709 l1.6067353889641314,2.4520941938661074 0.6821392732877137,1.5289411385807896 m-9.080118215748183,-18.56669249459462 l0.8130299407982368,0.8726461567134238 0.44784025471216404,1.8394918691906448 l-0.16101479643911218,49.37812864957506 m13.994652368829056,-45.27018218677741 l3.176515993306322,0.24247431359419735 23.286312481507025,-1.9518489518959163 l1.9289767779940452,-0.1318810390634945 1.7640721788653924,0.2160867601263184 m-17.439362255436595,-6.6273448413113805 l0.8238653422846859,2.5118285379748486 -0.7560932775713071,15.499730605040588 l-0.9825995751005286,5.40366368445525 -1.4664378500090531,4.384215984052982 l-1.9141752681183661,4.141640987866637 -2.2756696284503977,4.000506757837739 l-3.5279651801197773,3.8284926662094434 -3.98919009242637,2.5973719723990527 m16.430042841322987,-23.051901450340804 l13.987198473119777,8.54063663589583 8.199543726534326,5.236514615593749 l1.2268936481416695,2.464419556572249 1.5803967713681595,1.008480690554211 m-33.56844833503662,8.787962787790867 l0.7940334486450747,-1.6725917889235944 1.8444483740120612,-0.22198032584767677 l16.619147123201586,-1.874171833506271 3.0097237727460056,-0.036810195308076894 l1.8376156473814054,0.21838393069854897 m-12.022172500157755,-10.678545171391091 l0.676998260351241,1.0027806576302571 0.20406466590385183,1.6282330720826501 l-0.04127715067462652,21.410484497922408 m-18.29706706429082,1.4095924820940713 l2.940675172499863,0.3867404022800941 14.557268872048232,-1.3567854214073356 l16.849886224355053,-0.8478445962858007 2.484850119612713,0.34983506776413226 " fill="none" stroke="black" stroke-width="1" /></svg>