<?xml version="1.0" encoding="utf-8" ?>
<svg baseProfile="full" height="106.91143241796362" version="1.1" width="99.39837476183365" xmlns="http://www.w3.org/2000/svg" xmlns:ev="http://www.w3.org/2001/xml-events" xmlns:xlink="http://www.w3.org/1999/xlink"><defs /><rect fill="white" height="106.91143241796362" width="99.39837476183365" x="0" y="0" /><path d="M25,25 m0.0,0.0 m7.091742123478349,20.666876667562416 l-0.00040956748794316656,0.7073468510478396 -0.6443995126593042,4.526132048920451 l-1.5382705190416268,5.479045296382435 m10.46439993582322,-15.341237786680688 l1.4377665023493051,2.7742183911803324 1.119868711625814,3.438365188358355 m-6.622260842172758,-16.55129196252731 l0.49315339356369287,0.9924509320256151 0.16912664516780002,1.744481686476457 l0.00854689736663282,48.47504510521771 m11.40699818091182,-52.149026518922135 l2.665976957684709,1.4966149185055218 2.0074991321671534,1.6576966389702823 l1.551904337556062,1.6382790325121905 0.6319950194783919,1.0935583084637568 m-8.641213968455082,8.559904583211447 l0.9482542533800209,0.4220220732398603 1.0575732642694464,-0.16519599445405148 l5.7850511921217205,-2.4801662145643357 1.7686878286802687,-0.25666016521855656 l0.9527081678377931,0.7499627862885362 0.15615264069711499,30.946016560996807 l-0.6288959470314611,1.9303519610872104 -0.5542569048768334,0.10146890942856583 l-1.2381837563287712,-0.6157058596316148 -1.7178785487712256,-1.484390136719605 m-9.001256760825544,-21.940231092996072 l2.04622549570385,0.3520968377981266 6.237078740800471,-1.600825221415908 l0.5721971817329227,0.1320153659176111 0.4291907364841503,0.3685915830307994 l0.23970295501124564,0.5832297240840887 -0.3061053160383754,1.6930674851860896 l-1.7194124823182293,4.812162192330236 -2.7115716472515454,5.255046673314518 l-3.1530744217741757,4.369552084448152 -3.4331883988278844,3.3635524676861603 m27.225852638365495,-28.605986007658 l-0.30039683256695066,1.4230695575572243 -2.3464681772197302,3.3341211443741536 l-2.3840437704985065,2.485685963791318 -2.603945353351867,2.0505378185300915 m-2.4930650118521047,0.222003788945937 l4.290114886415711,6.787948785385098 4.428071148451767,5.990218735092523 l3.882391537555211,4.543692109057069 2.3684419965034333,1.6947662364337175 " fill="none" stroke="black" stroke-width="1" /></svg>