<?xml version="1.0" encoding="utf-8" ?>
<svg baseProfile="full" height="108.26286182789798" version="1.1" width="107.7921534441264" xmlns="http://www.w3.org/2000/svg" xmlns:ev="http://www.w3.org/2001/xml-events" xmlns:xlink="http://www.w3.org/1999/xlink"><defs /><rect fill="white" height="108.26286182789798" width="107.7921534441264" x="0" y="0" /><path d="M25,25 m0.0,0.0 m29.78022382159651,4.213924279667036 l0.356376458331463,0.4338207482445421 0.4926357715408798,1.5536878768511169 l0.04519065109801776,5.92096586372624 m-15.26300823496269,2.2294772114067962 l3.1758987967792973,0.2100729307542853 23.627564082328714,-2.930076931492324 l2.7666198170950382,-0.11021634596890723 2.1681157636692134,0.3141679469938243 m-21.65111927206413,3.495576020885444 l-0.04814069530577827,1.2705200978687858 -0.34908960749365225,1.1403831551721755 l-5.217163175428408,10.597124805756705 -3.151079881102592,0.8905415802489539 l-2.4264499208226438,0.3163434695479199 m10.191704276926869,-6.75728132106305 l2.2095840990053253,0.7383389059315019 2.134832578276127,1.3337586255467353 l2.011463666636404,1.7428532975440105 1.5063027224754462,1.9865411536337967 m10.389648392280044,5.1855529937294875 l0.047006379621009696,1.9913780668100989 -0.23355172797816098,0.8715602583416544 l-1.5732533108625029,3.077633892632625 -2.7254137820634305,3.803677658627548 l-3.2529071963456855,3.7130247399511105 -3.164227599331236,2.991967740888944 l-3.623496350969493,2.851321347094037 -4.165681201898818,2.71075061553296 l-4.331710365851682,2.4754711430339262 m7.086076737042381,-23.940272336800714 l1.6468623351124339,0.9296579322887066 3.2475914635454584,2.519548596244341 l16.284965652233147,13.153908641695168 4.9325669444977,3.5225528968737674 l2.304625275815387,1.2594568557364356 2.562590080700429,0.5108263431711488 " fill="none" stroke="black" stroke-width="1" /></svg>