<?xml version="1.0" encoding="utf-8" ?>
<svg baseProfile="full" height="106.08602546621114" version="1.1" width="109.4925122106985" xmlns="http://www.w3.org/2000/svg" xmlns:ev="http://www.w3.org/2001/xml-events" xmlns:xlink="http://www.w3.org/1999/xlink"><defs /><rect fill="white" height="106.08602546621114" width="109.4925122106985" x="0" y="0" /><path d="M25,25 m0.0,0.0 m5.082848031356946e-09,24.424240589141846 l0.5983414873480797,0.14352341182529926 3.080844283103943,0.01735877711325884 l11.974343061447144,-2.1472160518169403 2.0071080327033997,0.006990469992160797 m-8.486067652702332,-14.371124505996704 l0.6615225225687027,0.9845996648073196 0.35949159413576126,1.8131251633167267 l-0.020983414724469185,28.508310317993164 m-10.174537897109985,6.387773752212524 l1.1304283142089844,0.24131527170538902 1.3667595386505127,-0.5979999899864197 l13.9391028881073,-10.23276686668396 m5.182894468307495,-15.147055387496948 l0.6845750659704208,1.0361690819263458 0.23872187361121178,1.2933328747749329 l-0.33570263534784317,12.266000509262085 -0.7641063630580902,6.344059109687805 l-1.0404380410909653,3.9431798458099365 -1.1599697172641754,2.8537338972091675 l-2.167621999979019,3.719143271446228 -2.169671058654785,2.760840654373169 m5.863200426101685,-34.57812786102295 l1.3291925191879272,0.2613475173711777 2.4818195402622223,-0.11844309978187084 l25.725951194763184,-4.490037560462952 3.3759167790412903,-0.22712089121341705 m-30.33782720565796,15.95577359199524 l8.490166068077087,-2.1052947640419006 1.346609890460968,0.21212607622146606 l0.638640746474266,1.1925847828388214 -1.3727574050426483,9.848557710647583 l-2.004290521144867,7.162339091300964 -1.0443654656410217,1.8387389183044434 l-1.280355304479599,0.6784277409315109 -1.5600593388080597,-0.7067738473415375 l-0.89887835085392,-0.9432758390903473 m7.988815903663635,-46.293601989746094 l1.0202883929014206,1.2581564486026764 0.4026510566473007,1.026265025138855 l1.6262286901474,11.845932006835938 2.1416665613651276,9.499695897102356 l2.9701918363571167,8.722398281097412 3.010491132736206,6.350889801979065 l2.6481392979621887,4.367346465587616 2.9944398999214172,4.002604186534882 l3.3550840616226196,3.6160045862197876 3.6392277479171753,3.06752473115921 l0.8797533065080643,0.39445459842681885 0.6027812510728836,-0.056692175567150116 l0.3667915612459183,-0.4730040207505226 0.1879635825753212,-2.055262178182602 l-0.2684340439736843,-3.3004409074783325 m-8.371317386627197,-27.846105098724365 l0.1645268313586712,2.180599570274353 -0.7832314819097519,3.5599955916404724 l-1.5805505216121674,4.577039182186127 -2.2813478112220764,5.197238326072693 l-2.895399332046509,5.396685004234314 -2.701074779033661,4.174729883670807 l-2.9951226711273193,3.8147687911987305 -2.4131740629673004,2.494455724954605 m9.0270334482193,-50.271615982055664 l4.141944050788879,2.5506356358528137 2.152424305677414,2.184356302022934 " fill="none" stroke="black" stroke-width="1" /></svg>