<?xml version="1.0" encoding="utf-8" ?>
<svg baseProfile="full" height="107.30468223805141" version="1.1" width="98.78968717542392" xmlns="http://www.w3.org/2000/svg" xmlns:ev="http://www.w3.org/2001/xml-events" xmlns:xlink="http://www.w3.org/1999/xlink"><defs /><rect fill="white" height="107.30468223805141" width="98.78968717542392" x="0" y="0" /><path d="M25,25 m0.0,0.0 m5.1675622550956835,24.010179767565724 l0.37717500371686896,0.14814749864001178 2.4023740765040813,0.008005460709596103 l9.475554323169622,-2.1866142958593695 1.6053760886812651,-0.06081660091017844 m-7.186856778494153,-12.125112298195152 l0.4678107191958909,0.931061429033079 0.21854698848108203,1.6388222192570614 l-0.0016234701029604482,28.41010003248176 m-7.85765085002157,4.781086546939593 l0.820591311549308,0.5698056936648158 0.496495092146933,0.005797746390212327 l1.1715062577520527,-0.5794113919465974 12.260986445021553,-9.329312024738549 m13.911761031635168,-30.996330491184064 l0.49616932968008987,0.9542832910878314 0.2269286416479204,1.1707549244457758 l0.07899255463694733,8.867985472941372 m-12.574794253334408,2.0345434686281028 l1.9892052291307556,0.2672900923452155 1.9162127415517807,-0.10408527872468328 l20.161531564347865,-3.1111163051630273 1.745752813793348,-0.025589470717704538 l1.4200800596387826,0.3906385628291287 m-16.612820153991894,10.83674157473054 l5.487607769982677,2.4398802719422563 5.401968278850513,1.942652303046606 l0.811727232505792,0.7892851298407024 0.2349147739403327,1.2277562495740015 l-0.849477072087107,4.239102623319918 -2.382990862566636,7.471650959277187 l-2.51891169764806,6.693320628592196 -1.856696039771838,4.0977535042541 l-1.1601293093742682,1.5134224332131985 -1.2143490429106307,0.383002510740742 l-0.979233295272195,-0.6716516593807106 -1.4337959966686764,-2.042283144696269 m1.7201414174728749,-35.50271332616998 l0.07775023438818357,2.291199349304107 -0.928243331484114,3.1004394571356277 l-2.136888298578337,5.468961257534555 -2.9380096824242967,5.827123221586221 l-2.4341653444466576,4.086756252340593 -2.7971982454243753,3.970049959635292 l-3.188284315167411,3.7043403606011718 -2.6424882206254683,2.5166184132406046 " fill="none" stroke="black" stroke-width="1" /></svg>