<?xml version="1.0" encoding="utf-8" ?>
<svg baseProfile="full" height="112.32375607277983" version="1.1" width="99.97921269211483" xmlns="http://www.w3.org/2000/svg" xmlns:ev="http://www.w3.org/2001/xml-events" xmlns:xlink="http://www.w3.org/1999/xlink"><defs /><rect fill="white" height="112.32375607277983" width="99.97921269211483" x="0" y="0" /><path d="M25,34.82008129012111 m0.0,0.0 m5.543066457378982,3.7521276417397695 l0.3301381631021248,0.47866206234384984 0.5316266401575729,1.2291427535820452 l0.14291332682230548,1.4439188741598086 -0.1609579997258605,45.59982345083324 m0.7002512470373771,-48.9205339085278 l17.5614209339386,-1.771992570642818 17.95754194641125,-1.0375729654903014 l5.242101677434028,-0.1454788155935003 0.6599976804335003,0.10840298172107754 l0.9151403837458677,0.6847457152275191 0.45335995910521887,1.2403792942263123 l0.10261227627386307,1.5951741625564348 -0.3687079697252101,28.450047104258573 l0.09621504274703313,16.97103835536198 m-34.064275961035456,-41.69550980935201 l1.8741662337783176,0.17609540842441318 14.703481405163572,-2.0757417888417296 l3.994476390780495,-0.32142394873730507 1.6207499655780866,0.2392004414521257 m-21.765598091632906,7.801352368376 l0.5711698985415962,0.5877739686486292 0.3019211042993301,0.9676168743278982 l1.3903538491008607,8.832470388178317 m-1.0784301951740605,-9.359819485368815 l15.44242402234523,-1.924050989744666 2.7145944737140204,-0.062468769433024936 l0.44381241074075023,0.2928415420129786 0.1674040839879854,0.48744503024447894 l-0.11452132410760774,0.7103292179360972 -0.6817081883641752,3.953398235949898 l-1.0735511732432246,3.568252356808264 m-16.838913560627507,1.8510372457102444 l18.28789074015732,-1.6693034499310293 m-10.604301783619059,-31.857460262538066 l0.8262298417615785,0.8677369469986947 0.3877188426221787,1.6767072719835956 l-0.10841737718541185,30.19355768078674 -0.3700238856501248,5.984785209964533 l-0.15965142182172729,0.7736533609175692 -0.9101004691247577,0.20637317590480064 l-1.9923048270590944,-1.731180090769089 m3.047699391284282,-14.396519586102736 l-3.085136003631176,4.110674466082708 -4.536118568942713,4.599615959801294 l-5.147888127012997,4.156815179204341 -4.674261899119537,2.8535298048972435 m17.747401996419534,-15.36876444348132 l14.028839209943325,12.748343521802514 1.3594474867921351,1.0305530014275055 l1.540782229999115,0.5714038235304242 " fill="none" stroke="black" stroke-width="1" /></svg>