<?xml version="1.0" encoding="utf-8" ?>
<svg baseProfile="full" height="107.70988432564468" version="1.1" width="102.78370149912857" xmlns="http://www.w3.org/2000/svg" xmlns:ev="http://www.w3.org/2001/xml-events" xmlns:xlink="http://www.w3.org/1999/xlink"><defs /><rect fill="white" height="107.70988432564468" width="102.78370149912857" x="0" y="0" /><path d="M25,25 m0.0,0.0 m6.568473259943262,17.017935497558668 l0.37289213389177,0.1519186730297318 1.3489074382080104,0.08445566858995217 l11.641122065096626,-2.01939685636889 2.120053319106972,-0.005900750851401396 m-7.752074014140311,2.800661448544671 l0.6361278321072812,1.0942075584716544 0.2294781467246812,1.1011856147630583 l0.16001079424276593,24.396238103258334 m-8.373647950872037,-14.520818794151602 l2.8516443545948813,0.14074970957418684 10.002264989005118,-1.8311940847292552 l2.2952827145858765,0.040904542385153606 m-15.536334125267352,19.19527776903482 l1.4289307975827485,0.7004870709212281 0.48847087046726806,-0.1863529275715678 l12.338304207204793,-7.165410459556674 m6.511155652243404,-28.928696379207235 l1.6467506873227855,1.1834642916409854 1.836403529314321,1.8256915064277812 l1.3860882530112983,1.8931135421970773 0.5963398787860338,1.2310737945956425 m12.183093589684898,-7.812235465003721 l-0.1629312987853194,1.1887936757198436 -1.0917009054634537,2.446145707841381 l-1.6391576019482792,2.5579534067721204 -2.0728789690456253,2.522266434662598 m-14.036402983540137,3.091312720040066 l2.341282966748352,0.1948921767051378 17.794630164764385,-1.8486463857569808 l2.2769259807431923,0.15206350400704594 m-22.219346563420505,11.672517802981083 l2.62456468349309,0.18660812766184517 16.703223803927777,-1.4940192400798853 l2.5277677017305002,0.16401288794173868 m-25.83205517025415,12.775601798959988 l2.696266185201784,0.2596193476798479 22.585977099024962,-1.4211622403579938 l3.1949495613750143,-0.03328061559708263 2.1128484217318735,0.24261140477706977 m-16.758249377705777,-18.289207093890653 l0.5307690984882867,0.8138750506998023 0.22078312501558228,0.9620293648855867 l-0.06769892001143496,31.178537416439525 " fill="none" stroke="black" stroke-width="1" /></svg>