<?xml version="1.0" encoding="utf-8" ?>
<svg baseProfile="full" height="104.06605544180988" version="1.1" width="107.16460977271207" xmlns="http://www.w3.org/2000/svg" xmlns:ev="http://www.w3.org/2001/xml-events" xmlns:xlink="http://www.w3.org/1999/xlink"><defs /><rect fill="white" height="104.06605544180988" width="107.16460977271207" x="0" y="0" /><path d="M25,25 m0.0,0.0 m31.30788197234951,6.528154605857519 l0.32342600437378816,0.43207995797554277 0.44658982938698244,1.0427065448859083 l0.13189164033224265,1.5408512111817412 -0.07178344944405884,42.424955923067586 l-0.37448892015366997,1.5285623672686004 -0.5306681081844621,0.568744831572987 l-0.6490151332680796,-0.04575088885761619 -1.5219232825803233,-1.1834475907754738 l-1.8775577822767042,-2.0802328956659197 m-16.039137343536744,-25.756068050691322 l1.8479147982230488,0.3400858591157537 2.1674556129198974,-0.1909579511112928 l10.281911828216051,-3.3365488224795183 1.2185037983140095,1.931438726929931 l-0.7567684593499249,1.7837108595548763 -1.6887716068467766,5.493240536703154 l-3.0882537063771807,8.042528279676393 -3.6155845299614997,6.606016470575727 l-3.8165489007751243,5.126966466242445 m35.818243942481736,-34.85854008656423 l-0.24097925119313363,1.2598031768509812 -0.5781688155306752,0.9888489889952221 l-3.666487402482098,4.063185417571072 -4.251876702982609,3.47753672291363 l-4.63467491989168,2.699456848465577 m-0.14063022965523836,1.1321278502890808 l5.969983916767042,7.81401179612937 5.764711721647321,6.37171380074715 l5.472942051049428,4.746297249696204 2.1887389557156256,1.5707344202359943 l1.7677322454253586,0.7504349318084731 " fill="none" stroke="black" stroke-width="1" /></svg>