<?xml version="1.0" encoding="utf-8" ?>
<svg baseProfile="full" height="114.13783176898926" version="1.1" width="104.63010725243441" xmlns="http://www.w3.org/2000/svg" xmlns:ev="http://www.w3.org/2001/xml-events" xmlns:xlink="http://www.w3.org/1999/xlink"><defs /><rect fill="white" height="114.13783176898926" width="104.63010725243441" x="0" y="0" /><path d="M25,25 m0.0,0.0 m30.45234243655387,5.66615816394582 l0.40589095952525356,0.4935486372692645 0.6163247080830084,1.59033135401955 l0.07881799869856246,6.266753257231293 m-18.132976905750937,2.1366937918284923 l3.830745326386694,0.15597596680089315 28.191405408603142,-2.9435487008188885 l3.1106669652363625,-0.09208483680918814 2.421856936196458,0.3281704577115216 m-26.628011248173173,3.4654296987695887 l0.3185255307540586,1.1635772139909724 -0.15581432568914036,1.07724644740752 l-3.6249631266702176,12.617334508410451 -2.82904754234934,3.6006860318645906 l-2.031159587310949,1.6959084922105454 -2.1858444209593526,1.3066495116412036 m20.585976772907255,-22.207669954384087 l0.45135706308843393,0.9093193034953774 0.16891876108949644,1.6284832599783874 l0.12692342528989237,17.193217725991314 -0.15798871849178486,2.426373716119085 l-0.438125087971611,0.9245823397304612 -0.6367990216948657,-0.5515368357219131 l-1.8737485788321524,-2.491259860236865 m-15.490528072410125,-10.641287923090395 l-0.08290372656546488,1.2634873238585027 -0.3250059524660977,0.9530779645184739 l-2.2116504448967276,4.163607176507029 -2.5239512426311532,3.6399774040916237 l-2.8927023695008818,3.2269056919947126 m32.9705057653965,-13.643525003950963 l2.2404297050404134,1.9687617233993098 2.680238107030546,3.1225346233649858 l2.0255567476830936,2.961802313730087 1.064692278639422,2.3998087512362503 m-35.770659635671265,15.819324410185578 l-0.32298721121452667,2.1939245390596316 -0.8101538653154619,3.1534885447389063 l-2.1776979465607718,5.601611881553519 m10.7891146868199,-14.702881798172388 l2.9984723898997667,5.560566918888606 2.89293089814518,3.7565624464799767 l3.5016277153248354,2.96223882079813 3.4418585457503785,1.9142551822813914 l4.113385689935984,1.2729801237284317 3.5449540246509956,0.6072716206160699 l4.0868227464867894,0.2229993427263834 3.918261430188417,-0.24049501294114456 l2.067635319658013,-0.7578154426867145 0.3992962918338339,-0.5420270167654869 l0.03730633113483631,-0.6696757286082851 -0.3171979511325579,-0.7898504182471223 l-1.7200675671891685,-1.933950986715215 -1.5054043129287282,-1.212653703318273 m-15.839872292934931,-11.494044524193578 l1.4365776826194745,3.0932969199389175 1.0694321229986181,1.069010833941933 l0.5298847890609526,-0.019274226725141733 0.5230744424219239,-0.5331413351773379 l1.014065640186155,-2.337819256798836 m10.233787248172778,-4.382282303633528 l1.9937645256558618,1.2858771472577681 1.8213360882083047,1.5885655389368152 l1.5800790041586377,1.859361454580089 1.580525898231674,2.796847999866228 " fill="none" stroke="black" stroke-width="1" /></svg>