<?xml version="1.0" encoding="utf-8" ?>
<svg baseProfile="full" height="120.25199886454477" version="1.1" width="128.8714314397851" xmlns="http://www.w3.org/2000/svg" xmlns:ev="http://www.w3.org/2001/xml-events" xmlns:xlink="http://www.w3.org/1999/xlink"><defs /><rect fill="white" height="120.25199886454477" width="128.8714314397851" x="0" y="0" /><path d="M25,25 m0.0,0.0 m13.69297737265951,14.946257850664844 l0.47665029732330144,0.3814997967720402 1.935411367207836,1.5003010440373656 l1.9691073541334787,2.0013056454015286 1.562771180744118,2.2237952030475436 l0.9042218232357708,1.9167136493110288 m-13.73332258147719,6.337787476653924 l3.0117668287316754,0.0799689855024794 15.615676533072442,-2.075538031800924 l3.8071086254997075,0.05958013381359159 m-18.416594829921674,9.444055269873095 l2.4634541423328793,-0.05117304503138927 9.6896068681788,-1.2400385879956297 l1.9089693826182543,0.026749451010605007 m-13.422339323991444,9.492335464871534 l3.58383473557604,-0.005005828689089915 9.644897702246267,-1.1553214660683815 l1.8756376650189936,0.07053325184080951 m-15.868465920037607,10.427349897951244 l0.6065098744120737,0.8361580482388851 0.47444777394051546,1.6281674803761064 l1.6629795923045545,11.047712055601252 m-1.441699167287507,-12.765126790862322 l12.807187172252737,-1.6983186225356386 1.620230996567811,0.35326886752304026 l0.30763520651600207,1.0070549826771606 -2.214363317778306,9.679551526386257 m-10.697927851841769,1.7137916509653268 l12.136641114014274,-1.1423834224755969 m9.304884791459589,-36.90260658496653 l1.3221695106360216,-2.172428789221325 8.970969513408974,-2.2870612689314633 m-0.025277219581633405,-6.250320951905173 l1.318392590265604,0.38579008510214785 0.7284576401623488,0.9827954838348991 l-0.13650787049598107,11.950644949494045 -0.6093647615160873,5.044306155766534 l-0.49764312488785906,2.942422741268648 -0.44103863343967986,0.675602394742614 l-0.5645547102804751,0.0267590028486925 -0.6788798375564851,-0.6216095129565127 l-1.4743958841695988,-1.9959553531499434 m-3.7671555890485195,-8.31127530976354 l-0.19076697857183905,1.4593774581118153 -1.165512359475137,2.7360376276358442 l-1.515928657708705,2.667323361456476 -1.5138217848901003,1.9248105815171928 m12.996435001345068,-8.241024691813253 l2.2091404742461607,1.3135850615301454 2.0341457210819383,1.7906059041626445 l1.578463159580026,2.008340889967817 0.6208214477505888,1.5950056184976673 m3.0015823588496886,-17.542186535818107 l2.1867512858489135,0.21453586588232676 12.003200863202505,-1.3264586794673527 l1.6360258763418234,0.08310974987750987 m-9.356900266006972,7.604925687528963 l4.0895707642731605,-0.8927505336068471 1.9395243193076657,0.090260571572586 m-6.59149927072,-3.956248878386722 l0.5007860340339275,1.2169276811708214 0.005473691011049174,8.022020032815544 m-5.669845390771986,1.0775375202665058 l1.8025891030614771,0.18425373013314864 12.464926401367267,-1.352903653311094 l2.0562066760758584,0.08944739263421204 m-17.066236709679934,2.122242179249222 l0.2919831418910436,1.2329394395143234 -1.1439148017440919,1.9249454136251303 l-2.325993959011948,2.6457069510477607 -3.0892352088333994,3.87032039849764 l-0.0625847255583323,0.60664547784746 0.4831581058246164,0.6959267249526291 l3.0387622829558514,0.6417399522861273 3.235324518527222,0.8944137617621709 m7.7181143456495676,-7.9998717995435085 l0.07178081349560426,0.9956040638966969 -0.396166964960154,0.6376894785966116 l-7.232120168023291,12.53337726023416 -5.516030675128474,6.003759747237008 l-0.5415742339711666,0.6247884171492891 0.31459197867294675,0.479964514378137 l0.7550657265254709,-0.07460114476046284 13.885736185825516,-2.9096533525735055 m-2.6563079987239755,-3.9678428076759635 l1.7315710432823122,1.3535284167607053 1.9347706124148416,2.1542130117867275 l1.5415622997576084,2.3337341378148846 0.6699761601903717,1.6661593567624877 m-12.132939149711232,-0.1928850712063148 l0.5458630272233973,1.4163877343835798 0.02042100068838598,11.288139860940124 m-7.124012060196173,-9.356219519876849 l-0.25790966961212713,1.0982020160735693 -1.0060496692785004,1.1950159942250576 l-4.838222936234661,3.254962500129768 -4.581349498178868,2.4816688597336003 m24.76207922055873,-7.698101429531608 l4.590834366123644,1.324329930861782 3.577910639938201,1.5739239359064332 l3.158850348492155,1.9559316273778564 1.9792885501538129,1.5775625163988083 " fill="none" stroke="black" stroke-width="1" /></svg>