<?xml version="1.0" encoding="utf-8" ?>
<svg baseProfile="full" height="103.15121597932726" version="1.1" width="96.38869456306332" xmlns="http://www.w3.org/2000/svg" xmlns:ev="http://www.w3.org/2001/xml-events" xmlns:xlink="http://www.w3.org/1999/xlink"><defs /><rect fill="white" height="103.15121597932726" width="96.38869456306332" x="0" y="0" /><path d="M25,25 m0.0,0.0 m27.448220103273844,2.6798535217430866 l0.026803847114431782,0.5094307997441261 -0.4572870277362802,1.1199206726265525 l-3.7971254671020094,3.3556454808306313 -4.152511300987054,2.5168976901567244 l-5.4939317870194335,2.5567781328129784 m27.858712213031875,7.926054235188016 l-2.225724166044251,-1.284418770459024 -1.3844171100231113,0.38232510271615244 l-1.6171846576920483,0.6662960523126019 -2.8582217485351347,1.2101162020178644 l-3.9954082792434775,1.350905188215941 -5.2228019131745995,1.385292845119948 m-2.680717697937304,4.477998007119428 l1.3000354495926714,0.8543780589037133 1.5175787549003124,1.582049351181526 l1.365119818614742,1.7040501956126803 0.7429429424935544,1.2979616575260966 m11.962258164797491,-9.736657465681587 l-0.0672911783052844,1.0492428004823124 -1.016510652746061,2.731696751586045 l-2.4340552702765863,2.4770439610711517 -2.804188563743919,2.3449299356518205 m-17.96694356184247,3.949866033244823 l4.1279858415596635,0.18557416445796757 12.760392036867088,-1.3896737598116786 l10.31735734796763,-1.0287174439224998 3.6740227360382773,-0.17705115781733038 m-16.577422848214187,-8.706502838825033 l0.5370021721118021,0.8013082324823974 0.2159720572798645,1.3479035392188887 l-0.057225670936716704,25.01071880382095 m-1.683489853225012,-16.698187299322694 l-0.34153066422820694,1.3862479521679842 -1.2384833312403207,2.1651187263806158 l-1.9455097476456533,2.7801124800932313 -2.1627745489298045,2.6095536229396203 l-4.1629709617597355,3.927780856774237 -4.411697229902401,2.9236139576409186 m16.976940166636265,-15.671280591102809 l11.38542496930767,10.719623918426405 2.4056617418715427,1.9121486400564227 l2.5216894380956854,1.4596613024301324 " fill="none" stroke="black" stroke-width="1" /></svg>