<?xml version="1.0" encoding="utf-8" ?>
<svg baseProfile="full" height="110.2121607338667" version="1.1" width="101.15475975510876" xmlns="http://www.w3.org/2000/svg" xmlns:ev="http://www.w3.org/2001/xml-events" xmlns:xlink="http://www.w3.org/1999/xlink"><defs /><rect fill="white" height="110.2121607338667" width="101.15475975510876" x="0" y="0" /><path d="M25,25 m0.0,0.0 m28.624064838812487,2.1509892551390775 l-0.026264408820007978,0.42223332432508254 -0.5466982924225235,0.9227971196768909 l-1.1484753705235713,3.133582910397126 -1.873801449868321,7.42805275720703 l-1.4696335241642229,4.896596652040892 m3.393076052540752,-9.210158445703918 l7.533226386391459,-1.9463591914530212 3.280254544408717,-0.38722860746578947 l1.2826022535145802,0.2164447614564956 0.3638498845964451,0.43604700854067874 l0.1126585754297724,0.5522217505507452 -0.18562871243554055,0.6033336432535894 l-4.040034247927505,5.4026746009575515 -2.6360078852471056,4.294720731658231 m-6.936266013691843,0.6123629552541046 l0.30794807277964564,1.80457793901547 -0.31640345330969516,5.832323498230641 l-0.44330352944753576,4.787898678951063 -0.6903223037653103,4.55668025650731 l-0.8204871991111362,3.205280717279593 -1.1121981784210666,2.8869285990830065 l-1.446454758208813,2.491887207517877 -1.437033794423977,1.683962678921464 m5.945834238363823,-27.643860736690193 l1.5832573735062527,-2.2484335673491618 7.915744961756937,-2.221408737210493 l0.7229911156859223,0.05739102175465386 m-5.8446173629347635,2.372446743362066 l0.3196420536593551,0.9142250867428264 0.10021341904192822,1.1922924656655476 l-0.02022472729323486,20.6463128463487 m-4.533108125694844,-13.984350522892745 l1.0408559648826519,0.21408183926714647 7.351213451133387,-1.6920907353441668 l1.2195438331140602,0.05461355626333339 m-10.763651238597848,11.203120652671023 l1.2397461195050137,0.3010937952341661 8.358871668236986,-2.2217475842693903 l1.4548740637964077,-0.15450624908518665 0.7936451338571596,0.20274829602098748 m-12.347856713229392,10.079738650287053 l0.5551928066767908,0.8225160705314262 0.6271979108135978,0.26112896958672777 l11.43725250564039,-5.014151054163805 m4.346427849945321,-26.26382757553592 l1.9631203685440035,1.0749759401273338 1.6562823783085716,1.8094817459368435 l1.2436307856096793,1.8418997066607234 0.5731588535002039,1.2140097609305167 m-6.145981027272585,6.329876347936969 l1.5653762892982608,0.35639026045714634 7.788790293498647,-1.5194093607900663 l0.6934095665445991,-0.142287359636848 m-10.045415981839097,10.767485524285592 l2.0677154767066885,0.23081841675249037 7.177903943876684,-2.3592358367462922 l0.7795759425690786,0.04049850812874916 0.37551213958926577,0.3346824403508181 l0.1899669376231361,1.1864463957938338 -0.41618709726223696,3.403595556941014 l-1.0740589865864774,10.733685609855845 -0.7769207758659061,5.130940731599468 l-0.94586080246507,4.048671312748929 -0.8664243615051048,1.7158485427667571 l-0.4164124668458942,0.1638461034198964 -0.7827891140613047,-0.4064982922143271 l-0.8909813338249964,-1.344690487782896 m0.168249101115399,-29.70285776230633 l0.28871509698430264,1.8171128903041396 -0.2410030393374984,3.1692327187776512 l-0.8488605230287802,6.253957057362603 -0.9857531597563987,5.726404343854915 l-0.9989070886066731,4.418262735172948 -1.234448578458099,4.103379562781099 l-1.47430213339614,3.6781716953822396 -1.3429388121531527,2.48228189247915 " fill="none" stroke="black" stroke-width="1" /></svg>