<?xml version="1.0" encoding="utf-8" ?>
<svg baseProfile="full" height="98.03241021276715" version="1.1" width="95.19261222816914" xmlns="http://www.w3.org/2000/svg" xmlns:ev="http://www.w3.org/2001/xml-events" xmlns:xlink="http://www.w3.org/1999/xlink"><defs /><rect fill="white" height="98.03241021276715" width="95.19261222816914" x="0" y="0" /><path d="M25,25 m0.0,0.0 m29.33480962961129,7.388284562390699 l0.336344355074957,0.3898578788204386 0.4896391738328886,1.5334660778434301 l0.14152464800512593,5.754663103924044 m-14.828722653921703,2.0194226976940017 l3.2278429386643412,0.2168959426389236 21.608826113441157,-2.5597729383075563 l2.822708364308973,-0.10807272537346689 2.0596396591521158,0.31147748891959337 m-20.86746089101103,3.226398802352451 l0.49636494814740323,1.2289378047466974 0.11450441158756232,1.1534630590849286 l-2.171888081146135,7.31646423937352 -3.0255384406495747,8.321100689352692 l-3.185571611846386,6.525464161180184 -2.06777581630605,3.139249304779382 m16.750959843886513,-26.618365476012176 l0.4188517046266691,0.9530175738465235 0.2092915285241817,1.6823563942002555 l-0.020737186638477196,22.47040823597865 -0.11478234223000473,2.6612955893358015 l-0.3624064425573193,1.026397745998138 -0.5267591861191823,-0.012492316546150982 l-1.2192195650178281,-1.0737098670294472 m-16.12496880018823,-17.519493991544277 l-0.17721181480213877,1.5945776043075632 -2.044773206246827,3.6445473098938868 l-2.2946968505307073,3.184620000408102 -2.745418250639975,3.336617801316404 m29.14018711861337,-11.537257961305507 l1.7491146501816413,1.8811758961976137 2.062060237144609,3.0220982723047807 l1.6835442189598167,3.1636939168006095 0.8058864144279172,2.4112480884118987 " fill="none" stroke="black" stroke-width="1" /></svg>