<?xml version="1.0" encoding="utf-8" ?>
<svg baseProfile="full" height="105.88467085830877" version="1.1" width="117.45842278501578" xmlns="http://www.w3.org/2000/svg" xmlns:ev="http://www.w3.org/2001/xml-events" xmlns:xlink="http://www.w3.org/1999/xlink"><defs /><rect fill="white" height="105.88467085830877" width="117.45842278501578" x="0" y="0" /><path d="M25,25 m0.0,0.0 m13.044181342144018,21.20872999169885 l0.3188527527610014,0.30341890932945953 0.39847929596967563,0.6801823972381652 l0.37591503360545814,0.953769077446903 2.007609000286362,16.651684437310188 m-1.9805107090491891,-17.89281462422703 l16.24259545694287,-1.7476115898565252 1.4446105145435462,-0.12380310959929045 l1.1885554377019703,0.31199277017371835 0.38950855609328733,0.8015869839103892 l-0.0525083444500752,0.6850994853442902 -1.7751373867873812,13.105084866942155 m-15.390719085540892,1.7738009376031316 l16.391633418744213,-1.3982789822246624 m-10.09161007168917,-24.287172502988177 l0.5273160663181148,0.934426400097625 0.15220452671681164,1.1330089896947662 l0.02681448834887512,37.9072081803833 m11.923310183138138,-40.65901355706719 l2.527186781884123,1.0754970398649781 22.357582861237066,2.0258403992381955 l4.771235047033297,0.6994038539490038 2.661317619063648,0.34498267849821296 m-26.01850559974434,1.8803453540691946 l0.7033252873277126,2.33318310633648 -0.03562359736188956,23.28233642294599 m0.7367062121894056,-17.326509089949756 l14.928013610123072,-0.701511538982817 m-14.895249047013412,8.908435083772511 l14.646155274369763,-0.8581526104580403 m-22.494257634738663,11.309916537823113 l0.9944333064520019,0.3496223872532887 1.3759583989685824,-0.06438705670819714 l24.83131587742709,-4.763702713008676 m-5.890579304083343,-22.88860230430379 l0.6218651535456271,0.8333079204709398 0.13171291902454008,0.8843732979443583 l0.08417714596415009,38.218993028343704 " fill="none" stroke="black" stroke-width="1" /></svg>