<?xml version="1.0" encoding="utf-8" ?>
<svg baseProfile="full" height="120.1899592069149" version="1.1" width="115.63076521365187" xmlns="http://www.w3.org/2000/svg" xmlns:ev="http://www.w3.org/2001/xml-events" xmlns:xlink="http://www.w3.org/1999/xlink"><defs /><rect fill="white" height="120.1899592069149" width="115.63076521365187" x="0" y="0" /><path d="M25,25 m0.0,0.0 m7.627980375066081,26.507663997001174 l0.38525662615092054,0.13408950032539918 2.4653208140823955,-0.006013940141465102 l11.719577237828341,-2.143238980590333 1.9227603188870028,-0.0676278874053393 m-8.332957365703784,-13.076293820171074 l0.5575908241922928,0.9272092972884812 0.21782581767123516,1.7053714311824943 l-0.0027330714348678406,29.68978843044557 m-9.10185782228219,5.232381487798295 l0.997479100342697,0.43129157593620127 1.2357745040386174,-0.4425854954050538 l13.645345048663488,-9.747771327376945 m5.903298403893487,-19.579778831439285 l2.3593252703699013,0.12771172077438875 16.935517705422473,-2.315020573302323 l2.39402632997813,0.24365413762119276 m-11.517739502262918,3.0606325806455725 l0.13002002103810198,1.4755398707043068 -0.41093828121785986,2.4929150290618827 l-4.968111419299133,11.353982805556415 m5.533759696871215,-7.367916754765136 l1.753970851440176,0.16330079921793061 9.676042552057732,-2.238793843518969 l1.5301989412467465,0.6088521221360355 0.08541030764643229,1.2075518081697818 l-2.056371048023148,8.489403216055868 m-19.324952205784918,2.567178032129346 l1.4395505446130126,0.14197159739306844 1.8635908586647436,-0.1040999919348223 l21.384774669021763,-2.786142468707391 3.2355396466804214,-0.14784637542954202 l2.372485866013424,0.24257491739424916 m-25.739864568403735,8.872318821159645 l0.5730468639771638,0.982790275150481 0.2615285723558391,1.050016271097934 l0.002548436551693769,21.17783559307576 -0.030085135203036076,0.9736715475929733 l0.07776296196487374,0.3533926321881403 0.2744060334939171,-0.07920516226067283 l1.534944154240237,-0.47005042906538386 8.285107070400414,-6.48492036488688 m12.059097313438338,-16.00067067321335 l-0.022424224691488272,1.2932489172406114 -0.8714430856291749,1.0674147050527971 l-5.376672898340177,2.385018028797588 m-8.158470631598606,-4.205081811158884 l1.6552562962003052,0.767111809133447 2.6618302900340978,2.1914983117250664 l12.708906690760777,13.241282254836117 1.9981803842436108,1.589521560991996 l2.0803490739848085,1.1230748941370012 " fill="none" stroke="black" stroke-width="1" /></svg>