<?xml version="1.0" encoding="utf-8" ?>
<svg baseProfile="full" height="97.63816853964141" version="1.1" width="101.56102402887137" xmlns="http://www.w3.org/2000/svg" xmlns:ev="http://www.w3.org/2001/xml-events" xmlns:xlink="http://www.w3.org/1999/xlink"><defs /><rect fill="white" height="97.63816853964141" width="101.56102402887137" x="0" y="0" /><path d="M25,25 m0.0,0.0 m6.650225824580689,25.123482607751416 l0.3996972124926171,0.14265129505145566 2.4283591812482594,-0.005084077086203623 l12.022949236257325,-2.204658038641778 2.0622465453442094,-0.04652197416255482 m-8.478576133214306,-12.6783304501319 l0.5687883002599792,0.8872055565968875 0.23681056284936525,1.5797396475329817 l-0.00802705052695937,29.328126668021945 m-9.378029650423823,5.090644699880032 l1.058687045565998,0.4209126048291307 1.2693625241934117,-0.48607149170548264 l13.695303563947762,-9.482837363312528 m6.054033225375268,-17.855513995779976 l2.3204389985998857,0.0976042982661363 18.28282807278655,-2.169740186995537 l2.3759265695351353,0.24010972032147057 m-12.52519214868394,15.919288576885252 l2.9593129750802887,-2.2186545067050445 1.8196314394904138,-0.08723076552814946 m-8.283586867803212,-10.579738285260504 l0.6163490896474567,0.83596232063474 0.24721816728906879,1.4425501302560708 l-0.015413458677961022,21.94673991145604 m-8.873393745176854,-14.114038525692047 l0.6813403615625491,0.3691788290168453 0.44904360603112126,0.9659760285283072 l0.31625348195886127,14.367748351542854 m-6.816428547340214,0.3923685139653854 l1.501927878849865,0.332781147234588 1.8099001430221529,-0.0624840394577193 l22.73322325607341,-1.8872056994373283 2.306447226482627,0.3569237591961265 " fill="none" stroke="black" stroke-width="1" /></svg>