<?xml version="1.0" encoding="utf-8" ?>
<svg baseProfile="full" height="109.66387722399531" version="1.1" width="105.77550218679448" xmlns="http://www.w3.org/2000/svg" xmlns:ev="http://www.w3.org/2001/xml-events" xmlns:xlink="http://www.w3.org/1999/xlink"><defs /><rect fill="white" height="109.66387722399531" width="105.77550218679448" x="0" y="0" /><path d="M25,25 m0.0,0.0 m4.387791621204917,22.813232270131447 l0.41634538498166357,0.11976120304104942 2.76597688272095,-0.007618409803716378 l10.408991833644894,-1.8353804871137558 2.2880869930075023,-0.04502149997098373 m-8.241877569816534,-12.16752443489549 l0.8288276783409493,0.7867019478719884 0.3201000691355806,1.0277677940641319 l0.013853366095087685,26.728929890950326 m-8.956208602352786,4.344856808468909 l0.761389445740411,0.41746661228394183 0.542318663077383,-0.19322754877952322 l1.3567149689510745,-0.5354169669596254 13.580069112253351,-7.897421235770039 m13.37076796812108,-26.49739872933307 l-0.07812722712979017,1.5466124428828614 -2.84494536716208,1.9893612197950565 l-4.060861954625507,2.3731919484650486 -5.13829862814996,2.3394899485001734 m-1.7805934076533971,6.095211989557677 l1.5716332351194002,0.20682613701495953 1.7958685906905985,-0.1840113815583401 l13.738696839525574,-2.731111763948925 9.41924521825663,-0.8639419150313029 l2.9153373819209283,-0.09053007410483316 2.0771362680032706,0.32751102482236505 m-23.80926695035415,-4.7812209237804115 l0.9416205916325959,1.2032325250953628 0.3194782062583562,1.884958065153307 l-0.39231333888745684,33.85877244820433 -0.49269307508611426,0.49742796818940316 l-0.6673914510490128,-0.21731656702366314 -1.503364697723348,-2.097400819038288 m-5.943321082309443,-10.624011281156728 l1.0318350490438217,0.5224398385526654 1.1581347944137081,-0.1954064225313987 l12.266465719552388,-7.098839511527453 m3.0630358494483687,-25.70859524544959 l0.7816938214380847,1.070600739170741 0.3391629123967088,1.0427865322382608 l0.7759657418311324,11.423851333719398 1.2410503915269917,8.892988053903329 l1.4080198255943104,6.475285881894813 1.7003643863777786,5.6549524572874175 l1.5256461554388614,3.876215166810833 1.7018831452498935,3.308008881254633 l1.89607145522239,2.780332509774679 1.3174025650550696,2.235200524616872 l1.317260333656115,2.3320202230668743 1.0848827697961279,1.970562983120812 l1.0459088988623793,1.6355624519691787 0.89702571392963,1.1396015010825455 l0.776421645293705,0.5135511188170477 0.35525342516168634,-0.07316106371469763 l0.18103062112271073,-0.4211155313918118 -0.18174232829173367,-1.6986231105459315 l-0.43817307236272596,-2.790852837404865 m-4.274599408309535,-21.36894666246718 l-0.01618830705513266,1.362430850801456 -0.5439236904690474,1.1241664121548693 l-1.8838518417439445,2.907318808533276 -2.4729126194394606,3.209950558841632 l-4.535871621382988,4.831338038865637 -4.784092934087359,3.962399195986769 m9.88932216413757,-34.430807714842004 l2.925743278553246,2.7964060205878027 1.7168593769142977,2.6250930618891344 " fill="none" stroke="black" stroke-width="1" /></svg>