<?xml version="1.0" encoding="utf-8" ?>
<svg baseProfile="full" height="98.72240853475598" version="1.1" width="110.78194565295297" xmlns="http://www.w3.org/2000/svg" xmlns:ev="http://www.w3.org/2001/xml-events" xmlns:xlink="http://www.w3.org/1999/xlink"><defs /><rect fill="white" height="98.72240853475598" width="110.78194565295297" x="0" y="0" /><path d="M25,25 m0.0,0.0 m5.082379903355833,24.430549318897874 l0.5415375916900464,0.11432481086356965 3.087714758575078,-0.062072258069439994 l11.245977638919033,-1.944722259515033 2.0304594796477367,-0.14400735625667022 m-8.312836039962379,-11.988365604907404 l0.600873089153759,0.8435182107567142 0.25394241706200843,0.8689135537779933 l0.04524006614470229,25.80792743017082 m-9.530824912115776,4.468291675460085 l1.1262638193101429,0.14956917704040326 1.7468225096145695,-0.5903283011611946 l13.658483590871278,-8.184427613791643 m5.544519663305648,-14.653595148050401 l0.7470118777330184,0.06302744815974796 1.5897256014381493,-0.008746031266160768 m-4.25066759367932,-4.97238205732138 l0.8219392862005261,0.40215537118731576 0.3502262148991127,0.609236516435102 l-0.01558709497562208,15.08466045046178 m-6.572752582982249,-12.756527615210912 l0.4312379898996115,0.8593995030714885 0.03832509260165208,7.294099892456245 l0.4196656873181721,0.9780660911598297 0.72674794734015,0.3444868753891982 l9.926257606873552,0.11277305014262967 2.7032241559571815,-0.4391871480945439 m1.9937459812011464,-15.987456327768935 l2.1822598413993375,0.2187132170792877 11.473204807969053,-1.193481675621398 l2.7176843093333574,0.024018064919082625 m-9.578712271791522,-6.063428050181925 l0.6185056048669201,0.6307113878299179 0.3010928385469026,0.919648061013236 l-0.034730449588026215,18.856700532794004 m-5.74175012777316,-8.34167530285128 l0.16357226201451325,1.369473350062359 -1.0398122949463569,2.4540897628170293 l-1.693270511397961,2.5907508416200176 -2.5619554839141565,3.1223911073315227 m13.998145108304302,-10.340104168500362 l2.185031993551258,0.5591391536038454 2.259839877225055,1.1018450917049871 l7.8987439160083515,1.329941748290015 1.6044424877483525,0.4098350268225312 m-29.276584552665636,5.1959364508103585 l0.7460083973688453,0.2894613925955359 0.4076659799804145,0.17345566777136923 l6.69644780829429,0.0951949250207672 9.409423648935569,-0.379491907949022 l2.1110979457192953,0.1414371247533806 m-21.35222379257795,6.819570031653582 l3.3230388097167234,0.1825518993869491 16.04737288389167,-1.1009267934290075 l3.225933874491963,0.09122512084197358 m-26.684052872991018,8.804433341446373 l3.8599410558526825,0.15784395149665265 14.63286124563484,-1.109253623616591 l11.981958253870417,-0.476731749615396 2.737028965344335,0.29415677539891544 m-17.317461106187526,-11.913193048278071 l0.5201434719872191,0.7609472373982602 0.17842426612434467,0.9203285438831633 l0.01688050171915511,21.42771339243683 " fill="none" stroke="black" stroke-width="1" /></svg>