<?xml version="1.0" encoding="utf-8" ?>
<svg baseProfile="full" height="117.5263888760295" version="1.1" width="105.87483144840022" xmlns="http://www.w3.org/2000/svg" xmlns:ev="http://www.w3.org/2001/xml-events" xmlns:xlink="http://www.w3.org/1999/xlink"><defs /><rect fill="white" height="117.5263888760295" width="105.87483144840022" x="0" y="0" /><path d="M25,25 m0.0,0.0 m6.437584158748955,23.367319786725428 l-0.039890411628806646,0.649071798266592 -0.6678745044079298,4.895603268845776 l-1.6097913811747915,5.623417237262825 m10.582204507655542,-15.918989782547657 l1.434565099652338,1.584560300655649 1.5822953824065638,2.8153273160256007 l1.3775470954286642,2.759259898051547 0.6083215575790833,2.071580586896632 m-8.501727073021707,-20.181834956855326 l0.7836340671714607,0.9192316471833618 0.4256293700945349,1.915834588703751 l-0.14977436393262927,51.58393817288877 m12.511732522585072,-46.6253389377452 l2.8935901525815555,0.24499680604856405 22.09854102882285,-2.3613891149715838 l2.35521543105625,-0.14471980529781803 1.6678380193626043,0.22087503933288533 m-16.88451267640681,10.934195453949052 l0.038283317033379304,1.4248055023744448 -0.8038383156405152,2.1553921639519578 l-3.493422334685098,6.901203412208834 -4.045937550569366,6.676951917579986 l-4.492250930495543,5.758082306172946 m9.630657172286462,-10.222858393516544 l0.5751112740700113,1.0299303870170384 0.29179607255927265,2.095634521744347 l-0.06706881286960491,27.354307755077638 m5.557871604016903,-37.72478220824716 l3.4166017092095946,2.3903986237666777 3.100233465083294,3.4839527030108313 l2.6488040266744592,3.5016865771038557 1.6583156634614642,3.097094208821797 m-34.18882228548706,15.318034155566169 l1.679956087388463,0.35552532065771647 1.7579152742887145,0.017408323241892846 l31.96665472791614,-2.313793575367017 1.8717217989170587,-0.012844654944814043 l1.867121502669391,0.4380178144305121 " fill="none" stroke="black" stroke-width="1" /></svg>