<?xml version="1.0" encoding="utf-8" ?>
<svg baseProfile="full" height="105.20280621578954" version="1.1" width="112.37161423577425" xmlns="http://www.w3.org/2000/svg" xmlns:ev="http://www.w3.org/2001/xml-events" xmlns:xlink="http://www.w3.org/1999/xlink"><defs /><rect fill="white" height="105.20280621578954" width="112.37161423577425" x="0" y="0" /><path d="M25,25 m0.0,0.0 m5.106991336167985,16.557803247435807 l0.3389842631195986,0.13985330767007026 1.7989731542179805,0.12043992197486268 l12.424994579787079,-1.8070543606408074 2.0157220576942563,0.02171214308188601 m-8.514266629631877,2.5598089055166064 l0.6758835227462114,1.1148979975896915 0.23147460628809213,1.1082795577869087 l0.1627737849499967,26.016038272229228 m-9.06791247331346,-15.158264349059559 l3.0539792893608046,0.1738627137792472 11.037873057913682,-1.653342584603174 l2.615876439026006,0.01627393399313421 m-16.661337648620947,19.967530231932002 l1.623680307686988,0.74602020388652 0.589326668898842,-0.20866286338371648 l12.646440525915816,-7.123899332079564 m6.704823730832038,-30.343372432091233 l2.156401574359284,1.091439761511654 2.0868737002572733,1.642611723708769 l1.559033870371689,1.7139063533712728 0.6795473159401101,1.1374202033490488 m-8.19136611011893,7.290273186017395 l1.5223577162539539,0.977861848716228 1.9689863008607624,1.7355780456899372 l1.6507762562986867,1.83398402497562 0.6634447520309945,1.1258505866923625 m-8.231477305514069,21.210566053686744 l1.3648534910443295,0.19231198967089602 1.322622882014193,-0.26067274094655984 l5.309022608186537,-6.901014992267422 2.9714788141886355,-5.825131119557094 m4.850856135685282,-19.85302715893251 l2.2901991832315782,0.22881085488426928 13.162200187807226,-1.3046601116462064 l2.899479676786566,-0.1738309531593097 1.2113225296504937,0.20745741092529318 m-11.356361051440693,-10.377928925868085 l0.6150447501253268,1.2419467835170812 0.17724597626583977,1.4066777291631485 l0.04919143464429581,19.899158634571528 m-11.377100758041491,1.4333473132503407 l2.1068887763311883,0.2976875686455885 18.346167931243627,-1.7703204035213576 l3.992126854071197,-0.11597057083405653 1.7875161702012676,0.3107702298325582 m-14.608844452616712,2.3204145535074097 l0.05607461529024084,1.1479609572265976 -0.26985309866075924,1.0106215491700254 l-5.644385088089204,8.436039455407698 -5.037100766673449,6.6688304858368195 l-0.757818871716896,1.3347383505713775 -0.03948857240114124,0.6140113190584777 l0.41771229277147537,0.3747357632371038 0.9016538564060795,-0.05664091935487325 l18.6041784070812,-4.995576785331861 m-4.156175695326344,-6.407218958230027 l2.117633278335979,2.628792938614415 2.4554178056394216,4.176487677424988 l1.8008953155689462,3.9902050988573334 1.0080617625683814,3.316376889328986 " fill="none" stroke="black" stroke-width="1" /></svg>