<?xml version="1.0" encoding="utf-8" ?>
<svg baseProfile="full" height="102.72486596972405" version="1.1" width="118.27964440125962" xmlns="http://www.w3.org/2000/svg" xmlns:ev="http://www.w3.org/2001/xml-events" xmlns:xlink="http://www.w3.org/1999/xlink"><defs /><rect fill="white" height="102.72486596972405" width="118.27964440125962" x="0" y="0" /><path d="M25,25 m0.0,0.0 m6.079743585858162,23.472242535275488 l0.3728385485063779,0.13534851793221775 2.367261765295914,0.04665605902428753 l12.974674687887639,-2.2042536062074127 2.2356989747909872,-0.05505544551102423 m-9.144345899627556,-13.438715669567642 l0.8582717153424253,0.9638895754056277 0.40838779467309894,1.1703691113309 l-0.009212897102550239,30.35907599376803 m-9.823083467110244,5.18966140292729 l0.7610578275963154,0.5346463028977219 0.5435983212058345,0.06569204122484434 l1.4534487887524028,-0.4911987604983628 14.515431635009099,-9.201712604545312 m4.281939387909005,-28.006310229316355 l2.4847491101521624,2.1479022767569544 1.9045291652464231,2.86380702874371 l1.2349707264467653,2.373494709312471 0.8029962267845567,2.271785418334983 m14.112888490020218,-12.073062987665512 l-0.07364401423616528,1.6216179521529939 -1.2616419744590641,3.1095678348244142 l-2.1068484109280297,3.7895698026127635 -2.4372413079131143,3.4085970298797474 m-17.796566496048847,4.012828394132614 l0.840285184281996,0.3004078015025861 1.7600979069797833,0.11884844063180185 l23.351923927870466,-2.7874530550088203 1.2914195176960235,-0.0903166928717004 l1.505211219193423,0.27622645320930084 m-27.860937408483366,11.330963106600642 l0.47982413847019917,0.23744110291084453 0.3482466582978425,0.917125768944634 l-0.07281584338683016,10.197748124473724 m0.8252643265360663,0.832540559522872 l6.026862962244457,-0.45638820039011707 6.132848593692606,-0.025516834232805423 m3.063948209161225,-19.470250718122283 l0.6246493290873134,0.5207129576447909 0.6145134953860211,1.3778257882915834 l-0.13763560855274543,7.826940754767692 m5.768811442889072,-22.670537428861756 l0.7853126244715899,1.020932910211319 0.31342161388326084,1.03538595426627 l0.06452852380119198,7.614543094375412 -0.12809131339695862,9.46171968645401 l-0.5982231908815613,6.896427422077178 -1.1582542260993391,5.01751179251352 l-1.4356257656223939,3.457511780298911 -2.007544434560702,3.021380087905291 l-2.564106276654383,2.509829135687239 -3.314324786861506,2.1868634936964813 m10.811790447918927,-38.45982845284092 l4.764045132844262,7.905324004080382 4.618286798233762,7.115140965066639 l4.164471685771496,5.720778644903502 3.2351120848879833,3.7875609086926243 l1.4264251481086079,1.1604112690210926 " fill="none" stroke="black" stroke-width="1" /></svg>