<?xml version="1.0" encoding="utf-8" ?>
<svg baseProfile="full" height="104.78351977574337" version="1.1" width="109.84261473971434" xmlns="http://www.w3.org/2000/svg" xmlns:ev="http://www.w3.org/2001/xml-events" xmlns:xlink="http://www.w3.org/1999/xlink"><defs /><rect fill="white" height="104.78351977574337" width="109.84261473971434" x="0" y="0" /><path d="M25,25 m0.0,0.0 m4.937392371229555,22.278592104418735 l0.5719444607343876,0.14409470759655701 3.557005937031843,-0.07853219831870568 l11.256321867833696,-1.980800558520458 1.83331741758556,-0.07252723881709022 m-8.79369918853147,-12.558348737140621 l0.9311076598938001,0.9488418695553161 0.33649033053225835,1.1338611665247638 l0.03030748801825134,28.697999950715552 m-10.198611349729225,4.991048239099302 l1.2160719254170342,0.3564741641318024 1.7207604712598419,-0.4364936205266929 l14.781345078675178,-9.365000707621878 m4.472268609826801,-29.451632872452713 l3.403157531659823,1.6788795116592443 2.14054475658705,1.8149923154132745 l1.7626468200396364,1.4622896675003394 0.7440092943370459,1.043048477242395 m-9.339401985128664,8.504234101633692 l1.7125393434257596,0.2499793248392434 2.1514970046476356,-0.039860778228743204 l6.5038188430640105,-2.1525519921415177 2.003889222454949,-0.3376215005323203 l0.8090506717889349,0.4481932642705028 0.372721184520252,6.305136202581123 l-1.094454808396617,5.317650638005194 -1.6907681923305184,7.8092958379705335 l-1.785777866661763,5.762540548604377 -1.9966133524059118,4.558026391177644 l-1.8457035663115768,3.244255189952053 -0.673026897958965,0.6515923462642472 l-0.6248597809512798,0.03025930884188589 -0.5357736988358996,-0.413836135317273 l-0.9138339424565652,-1.7278060048826773 m3.2515953491482708,-31.95514151690313 l0.3175512946040669,2.0264354110990825 -0.08451258137793749,4.445065250391807 l-1.566865737386458,6.252211556450081 -1.9918825705458203,7.477058491367827 l-1.8091636236589963,5.398432566857361 -1.998649312750196,4.691216972410195 l-2.396085468469385,4.434703108789431 -2.1917773573016937,3.1972649517836516 m27.37643581962816,-37.942262192626416 l0.7565102064206508,1.378929555304198 0.2687590675779307,2.4390468234809117 l-0.015019671299903219,30.523865075437573 m11.166285605810737,-35.69761723970823 l0.7697153389449042,1.3732606832306327 0.23403471950514942,2.060968368917928 l-0.0747751715209942,33.992668898712864 m-20.75250864295351,-35.36485112826414 l6.065914787637312,-0.7533217542996149 10.901255927850698,-1.2422055906079108 l2.4726951306211618,0.12696362855075893 m-17.276338799058724,12.241816769800753 l3.117100872546479,0.18864328189231291 9.954888822352887,-1.6153622785731752 l2.5751148538001067,-0.014060696446313428 m-16.84759223552108,12.096117532020198 l3.658207503536216,0.3421212800568705 11.65205205002441,-1.3439798736499564 l2.883904225307317,0.02094679368427945 " fill="none" stroke="black" stroke-width="1" /></svg>