<?xml version="1.0" encoding="utf-8" ?>
<svg baseProfile="full" height="105.58377582343553" version="1.1" width="100.84559989042526" xmlns="http://www.w3.org/2000/svg" xmlns:ev="http://www.w3.org/2001/xml-events" xmlns:xlink="http://www.w3.org/1999/xlink"><defs /><rect fill="white" height="105.58377582343553" width="100.84559989042526" x="0" y="0" /><path d="M25,25 m0.0,0.0 m6.515257672794085,3.5217921406608865 l0.31601193210780987,0.5213357460781256 0.5979760308597848,1.2233333153264487 l0.1882500540162753,1.373044638739032 -0.23409996123628132,48.94426998263104 m0.6997843104945252,-52.43023147584097 l17.03327322737288,-1.908993294867601 17.203132975562475,-1.0896811392104992 l6.411619773105219,-0.14064091156809677 0.6231242745892721,0.14503477077068333 l0.9311956780636962,0.7683425761351553 0.4481193020862013,1.3404570403413787 l0.1119546206093133,1.6861667619470995 -0.35065044456149885,30.6757752667584 l0.0876490830019102,18.840372285961845 m-32.714538456539486,-43.642241440465035 l3.0598422294463488,0.24525926069181436 14.801641279348129,-2.0836283672351428 l2.671864747452027,-0.12107434390833792 m-11.339032703232235,-6.8624904113603655 l0.7669095580200603,1.839237527640189 -0.08380195347099949,12.216722675149807 m-15.249442577380407,1.38182399952531 l2.967536292154004,0.2426610169099045 24.784346665821595,-2.836719592317588 l3.5111020038129728,-0.19311760398813968 2.0570699775409693,0.30173873414277746 m-25.463780950415153,7.187598075510305 l1.919443249946963,1.4950936187785984 1.6890315503185223,2.180150679602232 m12.908465677012659,-6.386066087148559 l-0.5698729104426633,0.966292024997664 -1.1043284705809642,1.91721660559863 l-1.3158861214484496,1.681417582265637 -1.4534248177945774,1.4016714238504784 m-18.343461352970753,3.6084678102488423 l2.310922843809143,0.2202666202201773 24.319377033117448,-2.6590586324216474 l2.8555495456999425,0.2995563690046049 m-26.516313834059723,11.2609608437119 l3.541216950955575,0.2805724825537451 16.242559358233528,-2.5608573481419015 l2.6236161366234816,-0.1439666134285241 1.9472842251964964,0.2465887466145611 m-13.247612803909673,-6.456105840059196 l0.8600819632125312,2.2190201343441323 -0.10253120189441721,17.682119887434347 m-21.516300829704562,5.280706130537647 l43.44289185485825,-1.837778805478915 " fill="none" stroke="black" stroke-width="1" /></svg>