<?xml version="1.0" encoding="utf-8" ?>
<svg baseProfile="full" height="109.4925145804882" version="1.1" width="104.19156766496599" xmlns="http://www.w3.org/2000/svg" xmlns:ev="http://www.w3.org/2001/xml-events" xmlns:xlink="http://www.w3.org/1999/xlink"><defs /><rect fill="white" height="109.4925145804882" width="104.19156766496599" x="0" y="0" /><path d="M25,25.000003278255463 m0.0,0.0 m4.087033271789551,1.328108310699463 l0.3081793338060379,0.5948863923549652 0.6166226789355278,1.8261957168579102 l0.0653627049177885,1.8346437811851501 -0.23323414847254753,53.908677101135254 m0.30993934720754623,-56.86128616333008 l19.2623507976532,-1.3362064957618713 26.891682147979736,-1.2950219213962555 l0.7659602165222168,0.08078486658632755 1.0707955062389374,0.7633202522993088 l0.548773929476738,1.3721106946468353 0.13763347640633583,1.7487548291683197 l0.36046840250492096,54.4268274307251 m-40.34808158874512,-48.88628959655762 l2.4295301735401154,0.25236472487449646 18.47175121307373,-2.008049637079239 l6.86970591545105,-0.5366737768054008 2.220439910888672,0.24506062269210815 m-27.777323722839355,7.17524528503418 l0.7895445078611374,0.8485051989555359 0.403924360871315,1.256653517484665 l1.4886240661144257,9.869130253791809 m-1.1390842497348785,-11.224696636199951 l19.6041476726532,-2.205611616373062 4.427855610847473,-0.13677547685801983 l0.546661876142025,0.33193957060575485 0.19782613962888718,0.5389177799224854 l-0.15224164351820946,1.6751860082149506 -0.8657093346118927,4.547537267208099 l-1.344478577375412,4.360622763633728 m-22.043886184692383,-4.750643074512482 l23.658528327941895,-1.8888193368911743 m-22.854902744293213,7.417424321174622 l14.088952541351318,-1.5010541677474976 7.5082409381866455,-0.4020928218960762 m-12.469382286071777,-19.779796600341797 l0.8238648623228073,1.1633726209402084 0.264882855117321,1.900116503238678 l-0.136965224519372,22.952585220336914 m-15.995053052902222,2.5597715377807617 l0.947946235537529,0.6828873604536057 1.3247662782669067,0.17127184197306633 l24.652233123779297,-4.178109169006348 m-2.5949719548225403,-2.5090831518173218 l4.539793133735657,2.820606231689453 2.16552734375,2.001141607761383 l0.8712094277143478,1.2629896402359009 m-34.58085298538208,7.19214141368866 l1.3126221299171448,0.37523604929447174 2.0683743059635162,0.07161077111959457 l32.90813207626343,-3.438725173473358 3.0856651067733765,0.4325246810913086 m-12.187778949737549,-4.649266004562378 l0.5623260885477066,2.480042725801468 -0.30507178977131844,15.967243909835815 l-0.5019574239850044,0.7624401897192001 -0.7138636708259583,0.02380425576120615 l-2.9561278223991394,-2.4158018827438354 m-13.133965730667114,-5.392698049545288 l4.023051559925079,2.5379472970962524 2.1553191542625427,2.378137558698654 m-21.334245204925537,8.915551900863647 l49.020752906799316,-2.169910967350006 " fill="none" stroke="black" stroke-width="1" /></svg>