<?xml version="1.0" encoding="utf-8" ?>
<svg baseProfile="full" height="109.32628568732693" version="1.1" width="101.08557823129537" xmlns="http://www.w3.org/2000/svg" xmlns:ev="http://www.w3.org/2001/xml-events" xmlns:xlink="http://www.w3.org/1999/xlink"><defs /><rect fill="white" height="109.32628568732693" width="101.08557823129537" x="0" y="0" /><path d="M25,25 m0.0,0.0 m5.094864677802963,3.287650652261873 l0.29408134700926764,0.4952197943509876 0.5085297687744413,1.5813027588733668 l0.08847788103151394,1.606936167719111 -0.1969388298141388,52.355176314121586 m0.23159614449026464,-55.54463535277269 l39.37952704356249,-2.1328948980084754 2.451774381199258,-0.04588260655883107 l1.6611806393376405,0.28135408175011456 0.8358699184912088,0.7145421202500649 l0.44082002470830856,2.44457525719577 -0.04654985963450054,51.12882452785585 m-34.20145847798769,-48.063835952325995 l0.48197082197356805,0.46866455350642017 0.3966162513787812,1.3525094769791892 l1.1382572145448384,7.077602301140276 m-1.2414344657880887,-8.049967962096028 l19.047963960910693,-2.1116926952917097 1.6042042616552628,-0.04010124628684043 l0.46974921568372063,0.3375320466797422 0.10918625593212858,0.4182900626504322 l-1.704230193896823,6.678359568462293 m-17.69064678013424,1.8482004034666715 l18.95696986718005,-1.9484760559055752 m-11.678687587208323,1.911754552693657 l0.658163039317532,1.2073197829669908 0.3082568236423075,1.406924075307743 l-0.04921437597685431,4.656232036176287 m-16.924044128197274,1.3095698134449443 l2.8483017287331296,0.34425810198007156 29.385925376750023,-2.9247396944423354 l1.5376777872168228,0.09255975623509115 0.9115745548500265,0.33919921419657645 m-30.590576423553777,7.887018456154374 l0.48627852692660023,1.5564119673021377 2.240975509684411,18.663846819416165 m-1.614942476758883,-18.79704431496914 l20.697026253864603,-2.4360347953393195 4.4458231555477195,-0.41698004954289725 l0.5263481722197831,0.14275112005431292 0.7669745073103107,1.0511898022608872 l0.22527038967568927,1.339474015309799 -2.6834976609263133,18.16858861843035 m-17.96825012157563,-12.604189700325747 l0.5805190351471642,1.3526182129825293 1.3034298728483666,6.46703859531526 m-0.7729474309728515,-6.917191702666194 l9.438974891613077,-1.927260368242933 1.691674969344003,-0.2689553866101937 l0.5344492814809817,0.22112402280138596 0.14937513291925542,1.2051643421762013 l-1.842267755414008,5.463794013989016 m-9.162700473129826,1.341847642287558 l5.355222113174581,-0.7888954052190231 4.888077377519469,-0.36731544776990926 m-16.720959944522228,7.096844092920875 l11.35199561785031,-1.0951656672758037 10.6478912667206,-0.6065115468077565 m-32.2707202083369,8.67797878914935 l44.27380036510057,-2.3526592617606092 " fill="none" stroke="black" stroke-width="1" /></svg>