<?xml version="1.0" encoding="utf-8" ?>
<svg baseProfile="full" height="192.00839560884143" version="1.1" width="112.69335515892016" xmlns="http://www.w3.org/2000/svg" xmlns:ev="http://www.w3.org/2001/xml-events" xmlns:xlink="http://www.w3.org/1999/xlink"><defs /><rect fill="white" height="192.00839560884143" width="112.69335515892016" x="0" y="0" /><path d="M25,25 m0.0,0.0 m1.1760299569182735,20.120865101709104 l0.4606199030982581,0.13456063208647884 2.9112382721554377,-0.06038536228339709 l10.627936083497156,-2.050467793031768 2.2698825561457223,-0.07222917417254793 m-8.474158814635633,-13.502950668013852 l0.837625574649826,0.9217977607357536 0.3249914817684877,1.148432229492486 l0.016377674857023943,30.47397059817696 m-9.12387937576771,4.97460894901693 l1.0020572495384965,0.3949037857876709 1.3928685967459722,-0.3351026438141139 l13.699431361286308,-8.935572977989604 m15.750807432407234,-31.604138136477182 l0.7816671756736195,0.9501672608622989 0.3672759967185394,1.1130747659909201 l0.024091479188428327,6.8697906430579785 m-14.050383574697678,1.5272658226727758 l2.2784845671023057,0.2604707222719886 23.106546082393262,-3.069556004704248 l2.796812742690445,-0.11351161111455005 1.2234969927293071,0.34362970630081147 m-22.183344929497554,3.2654819416071326 l0.07194566884065116,0.8718750114132301 -0.3042993715638982,0.9889462234042126 l-5.10728913289721,4.444613922238041 -4.435108278640989,2.5241010302550895 l-0.008569055787176899,2.3539013758161396 m19.412503101183614,-11.407319286304382 l2.3678407864587516,1.4180512861432117 2.497679557680089,2.0083816239487144 l2.0985251787760406,2.1375685025728584 1.1410427535226642,1.5809520723819597 m-9.106267769572002,1.9286492090060015 l0.04453854316847445,1.2531999808850773 -0.1995353858134758,0.994812842053383 l-1.536993445644567,7.93806175722611 -1.712937137043441,5.707924320161127 l-2.4643742285122925,5.291054845823832 -2.508219587198786,3.8693165336264643 l-2.9371196971504263,3.4116685151733632 -3.4149387138376155,3.0628228987785078 l-4.166832217076068,3.025966052236596 m8.064144535696679,-24.7835810372569 l1.441016898964771,2.53685063415108 2.040484825842707,3.558557968349881 l5.128855399773481,18.68906404799584 1.440203702259771,5.57506171858134 l0.9233405894537458,3.9066433327729544 0.8190952227740551,3.3700811186091038 l0.8543690555011525,3.261805994245126 0.9829191108807289,3.34217655076729 l1.0599362853959402,3.3890268808515134 1.1236674494112224,3.464126587809736 l1.132972558996144,3.550677428693986 1.114886430477694,3.494460648625056 l1.1131958662429338,3.5988189030155957 1.0700918209830372,3.594127391332691 l1.1054726239398731,3.620933229763287 1.1029192906912482,3.6859235250761295 l1.1107109192193614,3.8798544622362785 1.0918863560622645,3.849778534894719 l1.0989655606859028,3.780891082351966 1.156777448434061,3.8634486614306223 l1.1908323901837863,3.883588998278683 1.2250927966241545,3.7785602171223287 l1.3158601122585807,3.5625203417676636 1.480566221616631,3.5399129490914105 l1.5887921634948912,3.248697634735474 1.0514122288865309,1.7042266709382061 l0.9630487162890052,1.8145245760731004 0.8506211470275219,1.0879822915296915 l1.0351011122347347,-0.39845706506297707 0.06805026475967137,-2.0043999829861745 l-0.254086638192573,-3.765655526354828 m-5.013766294162971,-25.782840055432537 l-0.06451018669760829,2.4025970232445215 -1.1176945287960982,3.234756324284588 l-1.9358016904700932,4.113552810173421 -2.6618722300043296,4.448630146892467 l-2.6670821966581046,3.6501369142078963 -3.1568135193018843,3.5903410098925126 l-3.5984696780081884,3.3753973336773693 -3.0312481776202924,2.35762453483349 m12.270297641548868,-47.776117673538394 l2.1167145792763926,2.620459131513976 1.5040390083570945,2.8114360926494477 " fill="none" stroke="black" stroke-width="1" /></svg>