<?xml version="1.0" encoding="utf-8" ?>
<svg baseProfile="full" height="100.87204559220136" version="1.1" width="109.87075374453886" xmlns="http://www.w3.org/2000/svg" xmlns:ev="http://www.w3.org/2001/xml-events" xmlns:xlink="http://www.w3.org/1999/xlink"><defs /><rect fill="white" height="100.87204559220136" width="109.87075374453886" x="0" y="0" /><path d="M25,25 m0.0,0.0 m12.245710194796217,17.951501859077837 l0.3521322819094874,0.3860797972464382 0.40656419939661737,0.7605227222105062 l0.3892442286003936,1.4251918613955976 1.8136975186584194,21.784254611144704 m-1.5412232907334822,-24.185510193383102 l21.735031688749146,-1.9900787907257433 15.866367672289218,-1.077727646808689 l2.358662230756555,0.11567502899661153 1.3616799613317865,0.45319252755232897 l0.8443826847549072,0.8232682566186981 0.15124838093823206,1.1755626521534002 l-3.465298895724918,23.97855049377383 m-23.86586239594725,-22.375756583613757 l0.5650256360510914,1.6150436110226813 0.004017179448109868,5.156365460793202 l-0.5026722384972399,3.850861776200252 -0.7941720912184996,3.5734406875633242 l-1.0448203981074087,2.761478618759069 -1.5257531258604347,2.5968908341017296 l-2.182510658788541,2.3798661865849984 -2.0325002241520918,1.4485429807643857 m17.915638264154182,-21.924633241705113 l0.5541587113827764,1.1495813308279967 0.18372849966938068,1.3991469718354304 l-0.10053524610639485,12.354061575393873 0.2520290139932353,1.8785193898149177 l0.47355135966674106,0.9308444624070041 0.84289291386175,0.5935680181704692 l2.103564131869196,0.3764197192896292 4.112008526252741,0.06495521049652825 l3.1099633006221805,-0.5869772582068006 1.1516099922898697,-0.7164720779088505 m-41.18643197797097,12.745814740357986 l3.6276470321807572,-1.413868275735517 16.74918099042716,-1.4270969679471808 l18.14380463718419,0.0165577558876902 7.643219259964827,-0.10105479988126548 l3.1557737964469172,0.20963256573155126 " fill="none" stroke="black" stroke-width="1" /></svg>