<?xml version="1.0" encoding="utf-8" ?>
<svg baseProfile="full" height="96.08426925987226" version="1.1" width="94.97149760792703" xmlns="http://www.w3.org/2000/svg" xmlns:ev="http://www.w3.org/2001/xml-events" xmlns:xlink="http://www.w3.org/1999/xlink"><defs /><rect fill="white" height="96.08426925987226" width="94.97149760792703" x="0" y="0" /><path d="M25,25 m0.0,0.0 m25.804698565874652,3.7300805772483834 l0.42494957650266785,0.41804338851430317 0.6120491134931608,1.611922894860472 l0.17137239494503814,6.772315518280385 m-17.848397830980637,2.2661376963629114 l3.877855239007828,0.14176872711266467 26.303188707400913,-2.9177607606417792 l3.205674971904169,-0.11913005297974878 2.420106869779242,0.31409346279602135 m-26.6319921910781,3.7226932447355567 l0.5097386657783859,1.2764120145103397 0.09280506095447173,1.2755333421271022 l-2.5263585710624046,7.61857513111796 -3.7008387053746263,8.856453931399306 l-4.0491033520528115,7.014805475645447 -2.2351503175713976,2.966680515248957 m20.232047250347485,-29.256413126597522 l0.4944082002639462,0.7947356533509617 0.2674349028514237,1.713050395903011 l-0.10464648440719374,25.049296389972362 -0.1580111909274695,1.8584958308212765 l-0.4174200134160271,0.8535966885037707 -0.5950239800484308,0.12288232158011125 l-1.394805017842467,-0.8904297859372123 -1.6625610098583834,-1.7256738276047623 m-14.16853783576514,-18.171334910236798 l-0.16784961445726887,2.010414825967378 -2.035924103221004,3.635804677305981 l-2.599574420820601,3.6554238522221483 -3.1649215505237906,3.6449606947693907 m33.72933453346022,-12.610078436435971 l2.0347573755782684,2.038608405799753 2.4110481132932318,3.2306346845708878 l2.0398972201856425,3.38681374461551 0.9445470640828041,2.54461152914619 " fill="none" stroke="black" stroke-width="1" /></svg>