<?xml version="1.0" encoding="utf-8" ?>
<svg baseProfile="full" height="99.04132263211676" version="1.1" width="104.74161613479293" xmlns="http://www.w3.org/2000/svg" xmlns:ev="http://www.w3.org/2001/xml-events" xmlns:xlink="http://www.w3.org/1999/xlink"><defs /><rect fill="white" height="99.04132263211676" width="104.74161613479293" x="0" y="0" /><path d="M25,25 m0.0,0.0 m5.726033004082474,3.328184571773641 l0.33298106851069104,0.4352469330842873 0.5626115724843705,0.8945025941331399 l0.2789008229866394,1.141673346968117 -0.15190963434176247,42.48995497333123 m0.8848303016340789,-45.24724915438392 l18.97877947298343,-1.5078418716184996 17.251751819480756,-0.9101461719739904 l6.296095089310583,-0.1413559387405438 0.7003420855235343,0.07068706199334823 l0.991150747047176,0.6119109791178772 0.48554193009333935,1.1179559849532783 l0.09554668852888076,1.4288237822840437 -0.4608858988516602,26.30727620769416 l0.1344092269605255,15.987840189477335 m-37.09677244797045,-36.54623889112947 l3.4620768958768013,0.2126249916451437 18.71180908333297,-1.947774995481603 l4.749303089954345,-0.09805590729687272 m-14.983247094528437,-6.040332254759706 l0.7688357231223598,1.8071487680443112 -0.08033753757814667,11.081193883567156 m-17.584500872285798,1.0533993278975362 l3.3900861355222824,0.22829102546283597 29.176979095879418,-2.3529662204413637 l4.028690994071074,-0.1458961269732962 2.430879922646969,0.27731290392638197 m-30.807675440852,6.091104577299264 l2.4138954027456174,1.3062411926388897 2.0395287743167367,1.9604930171041137 m15.912963942606693,-5.755505805476668 l-0.05784645059108194,0.8591718239066296 -0.8418312258674195,1.7829852913898947 l-1.2783922724400294,1.7140494524067607 -1.4982937225043076,1.4457637270917718 m-22.823478567245495,3.372846263430687 l2.9399347706712065,0.21492432407318915 28.42960547498348,-2.434496145302508 l3.3490399870006713,0.2901470379459034 m-31.807628302398783,10.022014817772163 l4.036862465542466,0.22642310224732473 20.140277136256543,-2.4333944671447054 l3.0355276618489007,-0.11740711030015383 2.4164095297689006,0.218918156894808 m-16.102083249329535,-6.194112233885708 l0.9804271048044202,1.9413483857315212 -0.09749032035247984,16.36857930092739 m-24.119173253594468,4.625057930811631 l49.401055404946426,-1.6230385679838994 " fill="none" stroke="black" stroke-width="1" /></svg>