<?xml version="1.0" encoding="utf-8" ?>
<svg baseProfile="full" height="109.27902270171072" version="1.1" width="101.87552208952343" xmlns="http://www.w3.org/2000/svg" xmlns:ev="http://www.w3.org/2001/xml-events" xmlns:xlink="http://www.w3.org/1999/xlink"><defs /><rect fill="white" height="109.27902270171072" width="101.87552208952343" x="0" y="0" /><path d="M25,25 m0.0,0.0 m6.986575290147125,24.116555314560035 l0.37890970499564225,0.12505357941186418 2.3715131622471333,0.010780797361571883 l10.167275096064255,-2.213128259434359 1.6862876063015093,-0.045794096976318664 m-7.686408086164255,-12.596576762973788 l0.48200855319420677,0.9492386150038692 0.27218686323014,1.7136383973073268 l-0.015303948668009536,28.649984875189222 m-8.374438987431484,4.93124974418401 l0.9077000041159524,0.569468456318062 0.5205000027952519,0.0060858102053043765 l1.2629397243875617,-0.597471710047587 12.910086382183566,-9.42695506918513 m13.770421651878793,-31.528713302696783 l0.5960254654287064,0.8718445865655489 0.2905082492892719,1.1456164483066549 l0.0964110512657954,9.38507980568985 m-13.107587119472544,2.0342806440455488 l2.120736913573662,0.25985338853590956 1.9115033857970625,-0.12386493662140727 l21.20669511368622,-3.144095736698678 1.7374959732372093,-0.028527579058131847 l1.3834800374406526,0.3872405443258327 m-17.33120006413887,10.868573139976002 l5.862964130208647,2.411609496895761 5.647850122723901,1.973826321606375 l0.7769094707851889,0.7953228540653824 0.21642081714062528,1.238020338030041 l-0.9875124226185283,4.4021167641393015 -2.5224375785137334,8.239920144923506 l-2.6207937704420106,7.195187997385577 -1.8937207955365967,4.311751589730144 l-1.1184498011802542,1.7239143323700548 -1.3149890418453936,0.6679361692701338 l-1.0573940470347911,-0.5440356674516672 -1.568417730145893,-2.091826081740517 m1.6462858487093612,-36.58665236852511 l0.0814415981998905,2.454735295494862 -0.9764184875537076,3.287545259976431 l-2.1991932928548246,5.704528307813608 -2.973526809641292,5.914167800937765 l-2.542197926429377,4.25295386573147 -2.952547959881111,4.130384603574873 l-3.3316989400910755,3.831504561312068 -2.7792208456176635,2.582158399283702 " fill="none" stroke="black" stroke-width="1" /></svg>