<?xml version="1.0" encoding="utf-8" ?>
<svg baseProfile="full" height="104.83565440631037" version="1.1" width="111.79730802212289" xmlns="http://www.w3.org/2000/svg" xmlns:ev="http://www.w3.org/2001/xml-events" xmlns:xlink="http://www.w3.org/1999/xlink"><defs /><rect fill="white" height="104.83565440631037" width="111.79730802212289" x="0" y="0" /><path d="M25,25 m0.0,0.0 m30.424343996867663,4.0651341891725075 l0.6301757750009047,0.3610773209907665 0.7346302375829264,1.3227304360013132 l-0.05538411597347166,4.453553329344779 m-24.71079221583196,1.7815594936188428 l5.445463413201932,0.22901992683913214 22.208883145609434,-1.4741181980006817 l15.565656455973729,-0.7192730299517626 4.629955198290411,-0.048458122172568494 l3.3171257320837735,0.370632010355431 m-46.40256974642826,2.821607736741772 l0.7032711383560089,0.7557514603845962 0.2758658516230585,1.0040256556499743 l-0.3664552600043212,5.6874240292299865 -1.0259754878775385,7.0847423933438485 l-1.5797831821621715,6.046430890872841 -1.8364998489131874,4.506923217519878 l-1.862905955694198,3.387269137357685 -3.0942415102922975,4.403508575467418 l-2.8345635112777727,3.09672658218422 m17.689500033273454,-29.888579051616304 l3.1654484811766195,0.25115279477144814 12.144657808353289,-1.5026317828040405 l1.431003209813603,-0.013187752690706992 m-8.933910530233316,-2.921454034922123 l0.6388686395142471,0.7499196208133048 0.22665112586813438,0.9944524066381973 l0.0016848134282477513,11.511384298336164 m-0.5940001644235694,-8.874361834709791 l-0.5122479472535602,1.491272755802783 -2.747042062684607,2.8996341338756393 l-3.372046507379789,2.8240925303113262 -3.1878912997101883,1.9541123195503187 m12.861496732050247,-7.657518635574922 l2.898217097618818,1.3013928522292062 2.4420735176997623,1.8105217970184495 m4.732348478466903,-6.075604801479986 l3.4887252137529954,0.17495468740842293 13.173897435142178,-1.2387663314759156 l3.41165787978299,-0.052884091493267296 m-11.089990894398426,-2.7969710815704456 l0.5650610603391506,0.454193764702758 0.31678970490792324,0.9225503163056309 l0.06563326221796767,11.700407272515935 m-0.9870577061458572,-8.954884348188358 l-0.7167288060149283,1.7415355779530253 -2.827520092898995,3.3295462739117787 l-3.045013146182243,2.541160075812076 -2.9613524535450346,1.695293293242977 m11.64860140952499,-8.686326051308297 l7.158263905719431,4.770549218804489 2.572892458253114,1.5329951822591414 l1.9724372559546732,0.7980102765623084 m-40.47936822522737,4.59673761061205 l0.7637342225089899,0.6191245435779846 0.4253721713159548,0.942794700327574 l1.7833630344172948,7.084886136668285 m-1.5707118121634707,-7.965366388457824 l24.365301326937207,-1.7181173668189216 2.689819301764714,-0.02197043756435838 l1.2012239915607696,1.0187968871447624 -2.132763404623147,5.805163958268255 m-23.9973590373385,1.884611393597261 l25.93882281356736,-1.5537088350665096 m-16.921789663649655,2.399970528257859 l-0.07575338324957909,0.8350064664379222 -0.5552691270151076,0.8742857471958713 l-3.5077917157695615,3.3652947272131266 m-10.719646445779052,0.7437985098981551 l1.0078453021226401,1.3370973452987722 1.9451781665237677,8.665020193778895 m-1.6274242214350536,-9.32518647070149 l25.280477133064025,-1.8523598144052724 6.96453222635114,-0.11611919987698466 l1.07082368231527,0.6760151848224897 0.19536482320974782,1.033685043528248 l-2.2175028828350274,7.062139369315804 m-29.537598885545506,2.0927016330012824 l30.663354724272313,-1.6918910538782463 " fill="none" stroke="black" stroke-width="1" /></svg>