<?xml version="1.0" encoding="utf-8" ?>
<svg baseProfile="full" height="99.39285020737289" version="1.1" width="100.17618408423476" xmlns="http://www.w3.org/2000/svg" xmlns:ev="http://www.w3.org/2001/xml-events" xmlns:xlink="http://www.w3.org/1999/xlink"><defs /><rect fill="white" height="99.39285020737289" width="100.17618408423476" x="0" y="0" /><path d="M25,25 m0.0,0.0 m7.481603176587715,10.57607411182141 l0.5102908939390832,0.1123739853889723 1.907881809311416,0.12193529110455281 l1.8514486799962262,-0.12412461612696626 10.036003570599416,-1.5294296850244407 l1.1676416177827864,0.07201545151679249 0.5432866664110673,0.35571847376086024 l0.13085138840856317,0.5186927690055751 -1.8682752420689048,6.316164193280375 m-12.260126223504637,1.4294896869233227 l13.358552868427841,-1.225496039849412 m-13.297089936779429,-5.7002253682752855 l-0.5162819593042284,7.164296760728413 -1.3746193611364557,5.098997761741423 l-1.120948872027771,2.5433244935136594 -1.3616354082292141,2.371005002872919 l-1.6299922049205784,2.1626894057045725 -1.8325350299941325,1.8774274659575614 m7.976890737006919,-8.504610006559911 l0.4125404397474412,1.1363775184013376 1.1694923268561086,8.29482488588328 m-1.190095278550234,-8.70654134369652 l9.755485489689523,-1.3238408889216897 1.1476375966695074,-0.10656036015589873 l0.5395035279918959,0.15372551060183687 0.3163422889686,0.9069033402476254 l-1.623419709145957,6.372227933451061 m-8.900964565719377,1.2228065969163622 l9.879584969921705,-0.9390099813852398 m14.319526660045689,-24.65588561231398 l0.8770275752363567,1.422987084804714 0.019322002770465377,4.081501899351215 m-9.1050114165729,0.8945846060299245 l1.6007653514232685,0.24962881284130947 2.0118637121194323,-0.076268974391789 l14.447802083974201,-1.452746419195389 1.979276545791562,0.20526338987342316 m-16.86789045043199,2.7729828819870073 l1.7848990162567553,2.418680465266243 0.7176951409614529,1.9992961304284658 m9.625523319047407,-5.572549495369484 l0.11248622229100304,0.3348403047005489 -0.1524389740699609,0.7494356089815036 l-2.615858499815638,5.00889800751116 m-14.376724692912346,1.5344131472276485 l1.7869883533140856,0.22106538196746475 2.2753471257625946,-0.10237981258946374 l16.24496782430417,-1.7399356102982115 1.9021730433392907,-0.05453784291992993 l1.8838313782443654,0.22761279008010787 m-23.41879508192021,7.829799548372575 l2.296231906712342,0.1410240335944182 15.127514130620376,-1.3213713369824434 l3.3372865376646255,-0.15493725130432084 1.3510900524610596,0.14684241225999575 m-12.0088902734879,-4.693208574324579 l0.7905305388392516,1.106429244245004 0.17895270238314298,0.9717606210312696 l-0.15705346392652073,11.342734642713578 m-26.582989457599073,5.380201737384693 l2.3186185667994996,0.2438478277857641 22.742964167796185,-1.8573711852218433 l4.136786697870547,-0.1579427356579744 2.046621568265604,0.20041856748621928 m-16.213397170381647,-5.78572129625501 l0.9040893616744197,1.0656106083761423 0.15410917093949641,0.6487047263469672 l-0.20959859269485645,13.699843116965905 m-23.06850458140626,1.184777405735209 l3.432758743396197,0.2872890020222831 34.738320197458656,-2.214663344124254 l6.189262752719012,-0.2655038014325205 2.409650032036645,0.28120681553180277 " fill="none" stroke="black" stroke-width="1" /></svg>