<?xml version="1.0" encoding="utf-8" ?>
<svg baseProfile="full" height="105.07170808606534" version="1.1" width="102.77277236815273" xmlns="http://www.w3.org/2000/svg" xmlns:ev="http://www.w3.org/2001/xml-events" xmlns:xlink="http://www.w3.org/1999/xlink"><defs /><rect fill="white" height="105.07170808606534" width="102.77277236815273" x="0" y="0" /><path d="M25,25 m0.0,0.0 m29.974653749963174,12.962960686795084 l0.3979708723760374,0.3200085419560049 0.6107281688903279,1.2188768164355916 l-0.051611129158640454,4.267565271828923 m-19.393432254137362,1.1242314894800218 l4.1517767622514,0.17116516284263614 18.233134918072647,-1.2926562790506386 l12.916760708272493,-0.6315926932629348 3.483701916923703,-0.02893699108073264 l2.449088654698956,0.40525183947876975 m-25.7215482486302,5.504135063432762 l0.3580035788097878,0.5982398886076898 -0.07398032109349276,0.8419601929302091 l-1.9442578676350686,3.5457777780034854 -3.056302943215783,4.903837947087426 l-3.5670531268480064,4.318659887337599 -0.2720953617842071,0.8071286009344955 l0.362199207761759,0.5398261923516354 7.223692793781115,0.7994517341380939 l4.078832200531504,0.9850293091354575 5.841153294349645,2.420977958569831 l3.141329001548369,1.7946992536988897 2.5532385124970673,1.9736834283996474 l1.9055671227176598,1.8960518708013154 m-5.927396546326918,-22.036390162511292 l-0.17089002652186538,2.2058292663194368 -1.9969381161338842,3.923537254551385 l-2.650085169088492,3.543247653198115 -3.608448943965982,5.9930630662107385 l-6.181498510191119,7.159993471405864 -3.9371850438591265,3.0184771317741874 l-3.4344821050675325,1.8176174542656611 m-6.799158986907135,-19.166527187646388 l3.2172148362233823,0.35310962753230685 18.212850382006724,-1.4431574124501036 l14.36231742557383,-0.9035107294082825 5.061600982817712,-0.11883099904661525 l2.902013934180571,0.4151469378422461 " fill="none" stroke="black" stroke-width="1" /></svg>