<?xml version="1.0" encoding="utf-8" ?>
<svg baseProfile="full" height="113.27103877451952" version="1.1" width="109.09001613490865" xmlns="http://www.w3.org/2000/svg" xmlns:ev="http://www.w3.org/2001/xml-events" xmlns:xlink="http://www.w3.org/1999/xlink"><defs /><rect fill="white" height="113.27103877451952" width="109.09001613490865" x="0" y="0" /><path d="M25,25 m0.0,0.0 m14.580679491214482,14.974170836627586 l0.5314513350579739,0.44385440649797775 0.544472943886945,0.877059867513528 l0.35733841759698226,1.562939231067319 1.7796818927191052,11.269611515309466 m-1.6663793921020988,-13.411739276314275 l31.319462718619317,-2.539229720280585 10.483413439895127,0.15809965076410318 l1.0400277357929129,0.9524345153099023 0.11986755222791212,5.128644794313284 l-1.6345242891700764,5.91113772052668 m-37.938837716191195,1.6882222571553536 l38.872509840304524,-1.8385524668286672 m-22.104055664685525,8.90716783447158 l10.214218104414778,-1.6038995636594793 4.189240337890801,0.3644788682550515 l1.3710157442743502,0.4029013494229298 1.0119923161535842,0.883169969538209 l0.2405871064673222,1.6105045343088067 -1.6186863192519858,4.455459983776423 l-2.6185061671425003,5.201017098725794 -2.987569098186325,5.072780457303915 l-3.1675827000385874,4.718656184283863 -1.8571928719577302,2.7933959349149537 l-1.7973473618386877,2.255974541768039 -1.5745401560441519,1.5735752701510137 l-0.8725159604406275,0.784350138385749 -0.8365412466368138,0.5201924309147108 l-1.551647308834661,0.15466041029630187 -2.103248075966323,-1.444201479847852 m2.6610176125240628,-30.943075998567256 l0.36447891542230443,2.201401048616396 -1.247056782793046,3.720499016195214 l-2.611549074275422,5.233616231041839 -3.4147292111853598,5.155372706302341 l-3.383474418853525,4.0485932113810374 -8.08720171133097,6.979178227836738 l-3.604439191749104,2.188820633537149 " fill="none" stroke="black" stroke-width="1" /></svg>