<?xml version="1.0" encoding="utf-8" ?>
<svg baseProfile="full" height="109.49251454556361" version="1.1" width="108.73524419497699" xmlns="http://www.w3.org/2000/svg" xmlns:ev="http://www.w3.org/2001/xml-events" xmlns:xlink="http://www.w3.org/1999/xlink"><defs /><rect fill="white" height="109.49251454556361" width="108.73524419497699" x="0" y="0" /><path d="M25,25.000000012857015 m0.0,0.0 m31.197986602783203,-1.2857016562506374e-08 l0.44146254658699036,0.511927455663681 0.5476883798837662,1.1676033586263657 l0.1653282530605793,1.5459997951984406 -0.02164593432098627,12.59788990020752 m-17.40764856338501,-10.879780054092407 l1.6520494222640991,1.1575620621442795 2.331683188676834,2.2256337106227875 l1.9025522470474243,2.4007388949394226 0.7664819061756134,1.518518477678299 m26.69773817062378,-10.496450662612915 l-0.45780159533023834,1.9550485908985138 -1.5260934829711914,2.558228075504303 l-1.8493510782718658,2.15340718626976 -2.559637427330017,2.3450717329978943 m-34.99568700790405,5.930325388908386 l-1.0135934501886368,6.632508039474487 -1.7715755105018616,6.457754969596863 m3.3907708525657654,-10.857230424880981 l30.91365337371826,-2.9237645864486694 12.733006477355957,-0.8359778672456741 l5.983173847198486,-0.08178331889212132 1.1232103407382965,0.40975335985422134 l0.4914926365017891,0.6525048613548279 -0.018232791917398572,0.8265531808137894 l-1.0774081945419312,1.9032567739486694 -2.9013919830322266,2.886594533920288 m-37.20546245574951,4.315269887447357 l0.4950159043073654,0.3311850130558014 0.6355933099985123,1.1168686300516129 l2.4630121886730194,10.63808560371399 m-1.9124172627925873,-10.97561240196228 l18.731329441070557,-1.7927369475364685 4.084849953651428,-0.03446173621341586 l1.1013662815093994,0.806470662355423 0.18549883738160133,0.6997164338827133 l-1.749863475561142,8.185907006263733 m-19.63997483253479,2.23655566573143 l20.975990295410156,-1.4864128828048706 m-24.961485862731934,11.894474029541016 l2.938033640384674,0.11177493259310722 20.714213848114014,-2.091265916824341 l4.371994435787201,0.1611223816871643 m-14.386112689971924,-7.271977066993713 l0.6648362427949905,1.0678955167531967 0.21557852625846863,1.3275586068630219 l-0.036080225836485624,16.53687834739685 m-23.766400814056396,1.602371633052826 l4.64504599571228,0.35095371305942535 33.1170916557312,-1.983102262020111 l6.352410316467285,-0.09538634680211544 3.832938075065613,0.31312838196754456 " fill="none" stroke="black" stroke-width="1" /></svg>