<?xml version="1.0" encoding="utf-8" ?>
<svg baseProfile="full" height="104.16484776622303" version="1.1" width="99.34411814282329" xmlns="http://www.w3.org/2000/svg" xmlns:ev="http://www.w3.org/2001/xml-events" xmlns:xlink="http://www.w3.org/1999/xlink"><defs /><rect fill="white" height="104.16484776622303" width="99.34411814282329" x="0" y="0" /><path d="M26.9489750685182,25 m0.0,0.0 m21.552796332734896,13.37479923504962 l0.40256042231223704,0.40422970974650374 0.46295375380200465,1.3098626628240466 l-0.015166691268343038,9.65993882344408 m0.8535365664426536,-6.686839032530238 l11.388210962022454,-0.9085088309039283 4.187333457278062,-0.028002276481796984 m-32.100365733764974,-0.7534022190013019 l0.743382701186939,0.5679889425244463 0.4179328881801015,0.8397478826287489 l0.23201098678677262,5.524718930407208 m-10.07416071423101,0.3851552018717912 l2.784590247078405,0.2786580552237775 3.6500438204201178,-0.06828393981679778 l34.40640897770017,-2.2414481895656158 4.660685414831521,-0.05298019690498201 l3.8423896827930664,0.3009466760468975 m-24.261072135818548,5.163138309786654 l0.5840751637744881,0.6624629756824202 0.14382389895707237,1.2131241746430257 l-0.09935429227506948,11.319443709355559 -0.31064362440055365,0.7750834515124019 l-0.511657964851353,0.28475404737172566 -0.6704963195023181,-0.038915741001015657 l-1.6369658686761375,-0.6864533362207378 -1.8453732309741904,-1.1621406711509679 m-7.9538149666657185,-8.01823954129027 l-0.46651639762827285,0.7853557009368158 -0.6087774443434274,0.5454134943898411 l-2.6122604312765856,1.8835264574845982 -4.2279974670117,2.3994049305966616 l-4.483428274669499,2.183293588807172 m36.63975937218592,-9.423506732040332 l2.928360328596667,1.4168776296405785 2.8730092937143126,1.9426017498425507 l2.2205063622203913,2.005757998759707 1.0762101244195763,1.6607070833632631 m-10.016692115060986,-2.8922627013505084 l0.03106894791682649,1.6726787673348733 -1.7414143865369718,2.010307805866404 l-3.9330247980355604,3.4292588565979645 -5.037651288380671,3.42089613722983 l-4.72698566528323,2.7296131218012345 -5.38648651773739,2.672065566478504 l-5.730282022042035,2.3940886430886366 -5.739462553867043,1.909930854143987 " fill="none" stroke="black" stroke-width="1" /></svg>