<?xml version="1.0" encoding="utf-8" ?>
<svg baseProfile="full" height="104.34673859115958" version="1.1" width="100.25227830621075" xmlns="http://www.w3.org/2000/svg" xmlns:ev="http://www.w3.org/2001/xml-events" xmlns:xlink="http://www.w3.org/1999/xlink"><defs /><rect fill="white" height="104.34673859115958" width="100.25227830621075" x="0" y="0" /><path d="M25,25 m0.0,0.0 m29.51776780115055,11.657661791850838 l0.37023159969272207,0.36625046749837414 0.4767998852654413,1.4251117514958047 l-0.03306977964107864,4.162622332051281 m-15.503829104304318,1.3531627137916973 l3.2031441597011128,0.1822301351951306 13.503919743939425,-1.3067879942410272 l12.376016198397464,-0.6658352428197443 2.8009894070724304,0.28214365958156185 l1.9592487946547088,0.4486240604822277 m-26.636427701073025,5.601936656542692 l0.5370126759142737,0.5338510081044453 0.34849213318356836,0.8395013586482262 l1.3183816544619094,5.951804673144281 m-0.9994563438474665,-6.588948431846028 l14.984079627649534,-1.5273105065861108 0.7828870703542525,0.3506095952185102 l0.21587338158432032,0.4706770231721764 -0.05727797479179201,0.6182564866649154 l-1.4812230624111196,3.716553106674475 m-12.760891466979935,1.716137059032571 l13.597086188146763,-1.412897686019808 m-25.310401599539464,5.624831080219754 l-0.9182450933708791,4.074908636707972 -1.6344864654430005,4.648015807806957 m3.0562258477902784,-7.173722761283702 l23.06387877926551,-2.265379947611332 7.900764057043564,-0.5929293835077896 l3.2121095605966947,0.008335804217465813 1.4331411961553078,0.25693738317402876 l0.6798345186160506,0.36058537138785135 0.24970261697695026,0.4653542927399174 l-0.10074839169304503,0.5733993025951815 -1.01366028254224,1.305744701595767 l-2.3264883046130485,1.9640816756667838 m-22.64886167326586,0.8643855791800171 l-0.10746570913418067,1.473105564195308 -0.6411931645822723,1.6262472962596668 l-3.502444917747559,5.059482848162884 -3.867054974531783,4.225646373320033 l-4.5076544530633855,3.6723549486963045 m20.937358046554976,-17.326877366911816 l0.3438572468629273,0.5437443934494444 0.2496720421929584,0.971964099474425 l0.19688524260330492,10.43563460365035 0.4371855376357273,1.4848170617055816 l0.536202296194732,0.816642677737093 1.3373709390203259,0.7651922572287324 l2.129717788609638,0.3669122315348362 4.401636628686938,0.09137494755494187 l3.615435284887574,-0.2741769154255616 1.7258502163329381,-0.5128859718543913 l1.0280774134003252,-0.9315083558874462 0.45648978477649793,-1.0752960834712622 l0.1737238228132313,-1.6937788994055214 " fill="none" stroke="black" stroke-width="1" /></svg>