<?xml version="1.0" encoding="utf-8" ?>
<svg baseProfile="full" height="115.89568808207218" version="1.1" width="109.58427035634304" xmlns="http://www.w3.org/2000/svg" xmlns:ev="http://www.w3.org/2001/xml-events" xmlns:xlink="http://www.w3.org/1999/xlink"><defs /><rect fill="white" height="115.89568808207218" width="109.58427035634304" x="0" y="0" /><path d="M25,25 m0.0,0.0 m18.215184145439103,4.535666918775132 l0.03757792146093315,0.5443096669959776 -0.3047217201545856,1.9041071447575681 l-2.6973679136930317,4.576907770319784 -3.1517002466866404,3.86473768237285 l-3.913534847877186,3.917944169620237 m7.505134166670724,-6.267691285830874 l13.268977916875086,-1.7436748694541344 2.4972154088803835,-0.05467754705977296 m-10.90146378338024,3.1904485540075123 l2.3530905983983406,2.976229365361036 1.4816699416780599,2.912292826803299 m16.282198351666292,-16.23228486869186 l-0.207275911974308,1.7152194485634416 -1.8680238678908183,3.4572954568262704 l-2.4914940516848874,3.5479945389069267 -2.9293869290484778,3.2614525372822833 m7.100483110469839,-4.96778655088407 l16.182033663995874,-1.8815001495133112 3.083812833314586,-0.06114430642598458 m-11.097430296922086,3.462629084967499 l-0.09588920517544844,0.9944727630255135 -0.8418035025325633,1.839005339334308 l-2.9806280858746135,3.810212648912298 m-31.362334118660407,7.083938108700878 l1.8249995617597137,1.0507000962522084 2.095889695878795,1.739609950513467 l1.4445707140804593,1.7957292198811103 0.6955661022757262,1.3061633480115082 m-10.574427506293173,5.250269829332111 l4.475672679821991,2.4825740767374316 1.975108862639295,1.71807743870301 l0.9018335395191657,1.2363842919916501 m-8.379731464409366,21.05102159135698 l1.4250867655445139,0.4332765886791424 1.0013308754035462,-0.6920511281670844 l6.127810201053479,-4.18997499200493 m15.726082174974369,-31.0275544433837 l4.3485306957238805,0.3133728166170081 14.270599024197612,-2.1482781132171493 l2.2358131645991675,0.1485459467134211 0.6770242906163549,0.40840749448043234 l0.4533245071786585,1.176054703346815 -0.10453866323830244,0.8597074877038648 l-2.0671272697633003,11.783924568490846 -1.5591690699116993,6.43528135181984 l-0.7131959883797087,1.893015324285201 -0.7442569628272048,0.9540149105804289 l-0.7638884961700821,0.25340710734655103 -1.5192879058977176,-0.6736995854755026 l-1.4536022718085924,-1.574951506545727 m-12.779082210976291,-15.98388169016814 l0.48389221772443486,0.37970188159621227 0.3483263433082931,1.1848767822857296 l0.44729579960127,27.5960026543959 1.1961127835553003,2.445167115079367 l2.0353035754055795,1.080642376530179 3.6030837134352516,0.636584032349542 l8.657227873441917,0.18746210828163676 5.807823169979575,-0.42324488502891516 l2.394414762525736,-0.7243863485404851 2.206646554088484,-3.114687051685412 l0.21888494039197764,-2.8693526198899133 " fill="none" stroke="black" stroke-width="1" /></svg>