<?xml version="1.0" encoding="utf-8" ?>
<svg baseProfile="full" height="102.71238711786421" version="1.1" width="100.82689728146596" xmlns="http://www.w3.org/2000/svg" xmlns:ev="http://www.w3.org/2001/xml-events" xmlns:xlink="http://www.w3.org/1999/xlink"><defs /><rect fill="white" height="102.71238711786421" width="100.82689728146596" x="0" y="0" /><path d="M25,25 m0.0,0.0 m30.383234981229904,10.920904425249278 l0.4615736868806299,0.3574267208281649 0.7281959546317557,1.3768021563333102 l-0.0407848552206918,10.340916039974598 m0.9805651763961111,-6.189073796633347 l8.117628426094765,-1.2526563888930056 2.10960096510756,-0.0597947952053804 m-24.78393486700025,0.3318777619386032 l0.8423402467760958,0.6794728842105452 0.38629777082442407,0.875970163951176 l0.21143236990565256,7.440573187933202 m-8.294677529844341,0.7554015766219516 l1.5986870788410141,0.27119139366775996 2.436749224043877,-0.06182630090909938 l29.38714598727625,-2.9581808223923103 2.9406927026128415,-0.09157774423786878 l3.3621499629103635,0.31911769877339485 m-19.167442292230355,2.989542585808577 l0.5538814060161519,0.8452185405889557 0.15025492632886578,0.9478247656820077 l-0.1386021874312653,10.8371928124367 -0.270192437211527,0.5953162657914272 l-0.3880103365478169,0.23245921576341452 -0.49733939786362424,-0.0488256006958841 l-1.2391144980027122,-0.7767878121778223 -1.279626513925977,-1.2076090495926155 m-5.673802669739084,-7.346004592933864 l-0.06144382271048737,0.8694147771953354 -0.3335015305067092,0.5857812966737008 l-1.989108046243417,2.350832575039213 -2.9504034667465078,2.656389190935294 l-3.1739147670566408,2.1682584122317685 m28.50513848826924,-11.060689710389306 l2.3829434859714427,1.1271410962804669 2.3390602724690464,1.5110461665280897 l1.8641039864526754,1.6539336776168228 0.8340117753867082,1.2927161377922447 m-7.754686428795822,-0.6029725762809081 l0.04262661903584098,0.89787772436359 -0.2761012926466481,1.0310820565819583 l-1.6593113646570283,2.403912889988654 -3.2910329192170416,3.297606118091475 l-4.247863793654718,3.329982900581912 -3.9984621229845687,2.684224090497088 l-4.378331940231691,2.510242036873338 -4.599381411578536,2.167578472050714 l-4.7743084621231615,1.7131584933309032 " fill="none" stroke="black" stroke-width="1" /></svg>