<?xml version="1.0" encoding="utf-8" ?>
<svg baseProfile="full" height="103.85517683153884" version="1.1" width="104.59474570668299" xmlns="http://www.w3.org/2000/svg" xmlns:ev="http://www.w3.org/2001/xml-events" xmlns:xlink="http://www.w3.org/1999/xlink"><defs /><rect fill="white" height="103.85517683153884" width="104.59474570668299" x="0" y="0" /><path d="M25,25 m0.0,0.0 m16.89358437922308,12.006642678702539 l0.5016554770317796,0.1460697297432632 2.9688120849322557,0.05540406046742585 l21.04465679738267,-2.0445172562141303 4.0998579670894895,0.23099337346088245 m-15.388464661614677,-6.9490703788559935 l0.5774400431409562,0.8228588947433078 0.2622461067412134,1.397058473612098 l-0.06108448795963518,13.00600398911189 m-12.808000089713106,1.5866215985336103 l3.2551194488790935,0.10028385811933602 17.007607533685785,-1.7144314156301321 l3.2849682527414346,-0.16402287906635019 1.542102457143825,0.18573093158428206 m-33.43807910589132,8.736879955985692 l-0.9907239754986427,5.2940247758838215 -1.5295534604678276,4.662801362691673 m3.262494958062776,-8.934471879506122 l25.841130584925203,-2.6038593103968593 10.87682568856045,-0.7352396253012786 l5.726494452522354,-0.1036426224366187 1.0607851477663994,0.2921249762046734 l0.537286955470101,0.49014326519857876 0.06758315252932412,0.6217409907719044 l-0.8059997775278219,1.5225655261794595 -2.869809130301949,2.7202264797898557 m-9.076257032180639,1.4719163638161887 l-0.8072309528807734,1.4891724153483132 -3.832859074624505,2.1884980855389347 l-6.067336842234314,2.778165851091121 -6.241139248497951,2.2442247732121126 m-2.5812297444904098,-9.942492946015037 l0.5358257328401835,0.8599562658126172 0.2021626946147287,1.134231327720868 l0.14112122133313418,16.48591358943745 0.7100756210875204,2.2331464924735944 l1.2789103750391162,1.0915579310211165 2.261479911021262,0.7348458501127665 l4.243349090632403,0.4399278073990474 8.57982024713133,0.017193471192954314 l4.703764980463835,-0.5349345804936018 1.7996464870117808,-0.730223955993889 l1.256530112929767,-1.4677450439050865 0.5036516951181853,-1.851930558734907 l0.14789784848017576,-3.3885239376648917 " fill="none" stroke="black" stroke-width="1" /></svg>