<?xml version="1.0" encoding="utf-8" ?>
<svg baseProfile="full" height="97.56105305987259" version="1.1" width="107.21708316145258" xmlns="http://www.w3.org/2000/svg" xmlns:ev="http://www.w3.org/2001/xml-events" xmlns:xlink="http://www.w3.org/1999/xlink"><defs /><rect fill="white" height="97.56105305987259" width="107.21708316145258" x="0" y="0" /><path d="M25,25 m0.0,0.0 m6.214492005893454,21.21653143332355 l0.5528649337859243,0.13624607676088998 2.1071628932096127,-0.01946844671092916 l11.85997358459165,-2.543787897293045 2.1459322985652265,-0.047510739942481645 m-8.454376393653643,-14.27845331283408 l0.5363045486900986,1.0028905206904704 0.15419089418651327,1.1405408232638194 l0.017298105988065235,32.09166605638439 m-8.83257248344201,5.390101459815415 l0.9509445644121817,0.47772397269619254 1.1830895383027324,-0.45252152400844503 l13.079633014639422,-10.173014002573703 m6.188662868783707,-23.275300777956478 l2.9969737124471076,0.162844432604246 19.923676689981555,-2.2257710033544518 l3.512297756064368,0.25216957852527305 m-20.928715214086807,-6.980133276852381 l0.6576661668258088,1.2188425991123257 0.19220318140580214,1.3070625247313694 l-0.042037164685429104,28.677304117598815 m12.114595831221656,-32.40012324120297 l0.6566903901167728,1.124585703333848 0.1836651625712533,1.2375694914604813 l-0.0032564670975755044,28.25114915294435 m-12.233464213326583,-13.333255082366776 l11.342553311040835,-1.2439337273212048 m-11.423917143504788,8.563934398659802 l11.641676793115083,-1.2194706969514155 m-21.05603790881103,10.047137776271477 l3.9037118875091092,0.14781517008395434 24.36752237721587,-2.5097143985722683 l3.7076776394966435,0.25343977354338776 m-22.40368123781156,3.5137547086609593 l-0.007146553320127626,1.019654395441776 -0.47561594221192255,1.1898714939896746 l-5.7837668023013356,7.256823820496672 -3.624754093098699,2.583851707420089 m19.763407013479117,-11.841500607459967 l2.7815251821381697,1.9018532362646048 3.146844587996159,3.015227010720799 l2.362146851030649,2.9665510476688 1.1735486755464992,2.5119500023488874 " fill="none" stroke="black" stroke-width="1" /></svg>