<?xml version="1.0" encoding="utf-8" ?>
<svg baseProfile="full" height="112.7512105880958" version="1.1" width="114.29561948513035" xmlns="http://www.w3.org/2000/svg" xmlns:ev="http://www.w3.org/2001/xml-events" xmlns:xlink="http://www.w3.org/1999/xlink"><defs /><rect fill="white" height="112.7512105880958" width="114.29561948513035" x="0" y="0" /><path d="M25,25 m0.0,0.0 m19.937488272238976,4.072393347942178 l0.03313087308747566,0.48622199651561204 -0.37531506761810857,1.0269815708027017 l-3.275070488172338,5.418768847245852 -2.6849391088088215,3.2050455084064 l-3.3181920547732844,3.0461299371717843 m7.956007654024176,-5.8345854786399975 l13.148230400745652,-1.5974918161831737 2.9513283382974658,-0.09992420822008098 m-11.69080225706978,3.1238937664895983 l1.0711649464663477,1.1399738051785349 1.470125190400181,2.0712124976059845 l1.510849512442583,3.025221709885062 m15.1706001221994,-14.963549923642889 l-0.18498767497459317,1.1418295025626537 -1.7552507632039085,3.2355661388590105 l-2.173465568110126,2.89563164177312 -2.8748638172352727,3.002887307202425 m6.546384410145912,-3.9283117294437595 l15.870614023164572,-1.5158223828461839 3.1175040689736147,0.003527271365076796 m-10.908617074779237,2.908680189512154 l-0.13765258395309507,1.0054416519303384 -1.1329772511647225,2.047106031425157 l-1.5394891607636862,1.9391368321545601 -1.8906789843968919,1.6773476398491816 m-11.954894507899585,7.694889915610711 l4.250895826026527,-0.7166770201428291 11.370220331791447,-1.1909965118601984 m-10.99601419495742,-6.294176621355124 l0.7497513647215621,0.9579846685992744 0.2552140105650013,1.021175964413976 l-0.047313553708512944,13.298625390973214 m-12.604450576789915,1.2437888639970112 l0.7515966848894706,0.7458456802579353 0.8985721518955287,2.3873235163430393 l2.09468753760958,8.319692962886224 m-2.1647418611684244,-10.669202999463591 l22.273099104173298,-2.1007501513043825 4.793180095437981,-0.2788495896242354 l1.242431904394046,0.6071221815440663 0.35375737044636624,0.9770557693512327 l-2.8429593119323417,9.188723176132974 m-23.346315835587124,1.8885566244635879 l24.44956768494418,-1.5241830781268368 m-34.8383738270741,6.596088526220216 l-0.349770422375118,2.010977017689743 -0.9107008265990499,2.1097255921487204 l-1.5259650272998273,4.405590371210724 -1.4529327178734042,3.5395686832290645 m12.75010648237779,-11.582535384525896 l2.710108965531471,1.7880422740754511 2.0677056748963754,2.3401912461046135 l1.7174283975933262,2.641246207803257 1.1653433143114973,2.5526334900347694 m8.154808557457894,-9.916050681752552 l1.6280409681255261,2.033972482235157 1.703718511939315,2.850259863530844 l1.3024785239862335,2.8125876876352898 0.6156826483972203,2.189717107072699 m8.338625407148378,-10.042652766684501 l2.0664678873329585,2.102551197096202 2.2209177221578322,3.0463902194759775 l1.7181677798181056,2.9766075060368435 0.8463512832637726,2.1306908268743565 " fill="none" stroke="black" stroke-width="1" /></svg>