<?xml version="1.0" encoding="utf-8" ?>
<svg baseProfile="full" height="102.4185293912723" version="1.1" width="108.43019094749052" xmlns="http://www.w3.org/2000/svg" xmlns:ev="http://www.w3.org/2001/xml-events" xmlns:xlink="http://www.w3.org/1999/xlink"><defs /><rect fill="white" height="102.4185293912723" width="108.43019094749052" x="0" y="0" /><path d="M25,25 m0.0,0.0 m16.4566252327259,12.938456649925708 l0.54486367965395,0.1484851307818391 3.2869398089821855,0.04361804042815767 l21.75890261308681,-2.050169312360426 4.626834739701331,-0.1622168923981318 l2.2684064765760104,0.26141480420657504 m-18.37454978787126,-6.113779490229546 l0.7468392771763338,0.8192055098731891 0.3276273201805818,1.2486431732945664 l0.007362048751192144,12.71406994688227 m-13.154107374209492,1.0338148950256205 l3.6972239729096024,0.11272116325034245 17.211551329168955,-1.5494566465126807 l3.9104585332266804,-0.16302838218148938 1.5074808536917395,0.14170032089133053 m-34.22064086084028,7.7445951868620915 l-1.0541174536436906,4.848557224675834 -1.6937549119556885,4.53020747160379 m3.37842266087044,-8.255581200501414 l27.739297588035534,-2.392634880119656 11.297371879791692,-0.633692653545513 l6.661567355468515,-0.05805561004002973 1.023043659614828,0.30692318507865385 l0.47654230639864026,0.4769277674360149 -0.0030921083987679745,0.6105969397229918 l-1.0402644073214695,1.472018807358545 -2.9450219617322224,2.4198436493695805 m-9.815937348402821,1.4495492598483612 l-0.7595214756805942,1.3323046952486 -3.9748757079952743,2.0553433616647236 l-6.396704262782397,2.628739649011437 -6.3612790136035064,2.1023476095751485 m-2.7011377960559644,-9.347787293679112 l0.5510749493899342,0.7909476698026646 0.20700912334251717,1.0196204739677326 l0.16700961178139978,15.75934336993076 0.743303128085576,2.052666452100452 l1.3968510884027114,1.011225655854455 2.489286911006122,0.6850146613173896 l4.692958808947586,0.38602902785147863 9.132841496812869,-0.005512683961113416 l5.094047691872069,-0.507443974805375 1.8971504165994564,-0.6821041098857642 l1.376694036289629,-2.9191292851100137 0.08154165141268933,-3.201297418615925 " fill="none" stroke="black" stroke-width="1" /></svg>