<?xml version="1.0" encoding="utf-8" ?>
<svg baseProfile="full" height="102.5919029177349" version="1.1" width="108.04563780713663" xmlns="http://www.w3.org/2000/svg" xmlns:ev="http://www.w3.org/2001/xml-events" xmlns:xlink="http://www.w3.org/1999/xlink"><defs /><rect fill="white" height="102.5919029177349" width="108.04563780713663" x="0" y="0" /><path d="M25,25 m0.0,0.0 m29.276460187973797,3.6003497818208072 l0.5293680212182182,0.38055488661164766 0.6969560012996797,1.458473453306615 l0.0044203968572007575,4.866631083700639 m-22.183477594771304,1.8225542297121338 l4.63976059388465,0.29270050754216803 21.043024311190685,-2.208392123663432 l16.522332426907496,-1.0233715420150717 4.097679638100067,0.013377529026836124 l3.4191138244761436,0.3988456801960359 m-44.30118939281116,3.4562205654536298 l0.6663046971190957,0.8891034229462127 0.24842630883252262,1.2169501946391468 l-1.0521233262480805,6.913225193298456 -1.6441295449485778,6.288861051514131 l-2.247488485834942,5.6385436399180655 -2.276572298161929,4.356392813692125 l-2.719702668300331,4.0417164801559124 -3.3260219639730115,4.1108345637684165 m18.06310985564183,-27.15643413081377 l3.7713015669486363,0.18013297079899807 21.44601156578157,-2.383927254000911 l5.299616232853366,-0.34611524272031513 2.638626594389526,0.22140747746294398 m-18.603094573622847,-4.620782929752993 l-0.08214093245250104,1.5873830291918063 -1.5257973979392936,2.81846482123539 l-2.4498439947489783,4.280440646046291 -2.624329463255256,3.7687839565502266 l-5.0070070764517025,5.486044824641746 -7.334198114720652,5.963215823304968 m19.68557564705524,-17.071365985868514 l15.626144546057187,9.443265576105093 4.095075002442707,2.331480028333662 l3.1873443276278635,1.3250386944402486 m-36.58567099589236,0.034827009317314486 l0.619415782832033,1.189462288774512 1.8974675502460991,13.188756271247259 m-1.688135581491807,-14.229025953966605 l21.315257568088494,-2.235791365601717 2.1485951068677407,-0.07504077655824727 l1.489108085174079,0.27001639797608484 0.7739308817867618,0.7710407903801237 l0.10422769985071706,1.4325019350881343 -2.285327484800055,12.185779780568062 m-22.13197627071839,-5.995825032829165 l22.619681422971183,-2.1043735675613306 m-21.345747124654864,8.806943400231019 l20.127721446164525,-1.9476491664771258 m-11.68115450673791,-18.480102257293055 l0.6634999836204349,1.0112374506763115 0.13381947468209385,1.1637063891332435 l0.023177329273448295,20.850562453486862 0.4315449256663109,2.17207591681732 l1.1841699891306128,1.2224686636468374 2.5206567457219413,0.7658254213737348 l4.249829323221519,0.2539031527259947 7.663378107254903,-0.06987172635661958 l4.239857581148663,-0.4391096395338613 1.7860758476404606,-0.5933798621011426 l1.2258806725513796,-1.0633501183182243 0.5389151736563874,-1.4506840433279533 l0.1385829547876068,-2.155813439206782 " fill="none" stroke="black" stroke-width="1" /></svg>