<?xml version="1.0" encoding="utf-8" ?>
<svg baseProfile="full" height="113.62669570437221" version="1.1" width="102.04534899530212" xmlns="http://www.w3.org/2000/svg" xmlns:ev="http://www.w3.org/2001/xml-events" xmlns:xlink="http://www.w3.org/1999/xlink"><defs /><rect fill="white" height="113.62669570437221" width="102.04534899530212" x="0" y="0" /><path d="M25,25 m0.0,0.0 m29.305102554993923,7.85173622436623 l0.6616039956081967,-0.12665603281136864 8.16808600827918,-1.6803221514678837 l2.010580900084908,0.20728857192489697 m-12.874836591101177,-5.717279837332758 l0.7475779046037045,1.2188056803733038 0.28381086854973053,1.3929606763261198 l0.05078584708344217,10.914450057795737 m-14.810188590015049,1.960775633654495 l0.5369778518820496,1.120680772652809 0.2164884288361392,1.4559415311032071 l-0.12312130927643612,8.185129520176089 -0.568434509563138,8.028361910527115 l-1.0977738162525617,7.776566275914607 -1.2471468225341151,5.742171123412501 l-1.6516737063933453,5.340029664403667 -2.0317778432477795,4.647649639789438 l-2.4287078107322504,3.900060651681924 m9.556105926825898,-43.95659846252032 l1.6806660866099925,-0.009442554279715243 8.186409684814704,-1.4094330314970884 l10.141946859905477,-1.4526659670714088 8.412720788611331,-0.8041514365229199 l4.081890130094082,0.013191581281665754 1.1152873464538253,0.4469935759148308 l0.43956989556927095,0.6874176327519617 -0.107129414778562,0.8471104183992235 l-1.191120225267766,1.9089588485825149 -2.4672170473129333,2.417496345347226 m-26.59574446790684,7.745224631531378 l0.9939747742357316,0.33269340199257263 1.6078536759486874,0.005521113050053351 l14.816521578162538,-3.9894556728333934 3.8686340754768436,-0.592343052669073 l2.239050419731082,0.3549182239103983 m-13.426594928578012,-5.794174995232769 l0.7252215307913585,2.070739041173318 -0.02721031371873286,9.220732248970297 l0.2614125695871899,1.5558535616824536 0.5533552836326036,0.9776514148335619 l1.38994626518995,0.6814111029289649 2.0813454975396475,0.15996601086187398 l6.36278017346275,-0.12920765593739203 3.386751545076081,-0.5444635707265106 m-15.518284134327605,6.558138320775586 l0.6426920477916045,1.3467553327069866 0.17975825149965827,1.7094432919941873 l-0.1250061402374227,19.484966252327848 m7.276759183767368,-23.272243529661772 l0.6717662327835963,1.344450148910036 0.1838410877446824,1.6782397142770482 l-0.12567154559882346,19.249837668623247 m-18.251984994763042,-14.194223315408358 l1.2172724023537767,1.8338262054944765 1.2936047047885415,2.6226401743463943 l1.0803498986279185,2.7670983568964003 0.6065318453719215,2.3496607016629807 m25.12334663299048,-14.009747177270386 l-0.3337974110851129,2.6910977689914337 -1.3287973038857916,3.8667380945861427 l-1.7190653167855723,3.5060937383128508 -2.170974761838352,3.19519418731824 m-27.45430024561099,7.501509092082692 l2.9981059407337622,0.43492801099437933 14.047673043271192,-1.5920622750172033 l11.676680038944731,-1.0036926093458534 6.294631160875313,-0.16525773489965093 l2.5464373069286648,0.3968616640100421 " fill="none" stroke="black" stroke-width="1" /></svg>