<?xml version="1.0" encoding="utf-8" ?>
<svg baseProfile="full" height="100.9414765121722" version="1.1" width="112.72110779890247" xmlns="http://www.w3.org/2000/svg" xmlns:ev="http://www.w3.org/2001/xml-events" xmlns:xlink="http://www.w3.org/1999/xlink"><defs /><rect fill="white" height="100.9414765121722" width="112.72110779890247" x="0" y="0" /><path d="M25,25 m0.0,0.0 m7.64894312031606,20.409839076967604 l0.35250249148572166,0.44007005166525115 0.34902395022623045,0.9903109633171092 l0.5061631874537514,13.732225807047827 m0.0023234330424538137,-14.849995248312828 l11.837079198340863,-1.6028030031948206 0.6709993331116771,0.07085101379131038 l0.9448129204095049,0.47509771395176237 0.2801647259810432,1.0586642246862914 l-0.04160022562270742,11.97824099437094 m-12.901103820487538,1.5151998302253027 l13.423209039518076,-1.4232876268826782 m-8.651073916273027,-25.60456529740377 l0.5244571118433226,0.8300434080648553 0.278560959374656,1.6004797990071122 l0.06962029216566264,36.71157274115479 m-9.125634163086954,4.025232714332267 l0.9478765832090472,0.5842993493838666 1.3082171428753886,-0.3415024120394705 l13.66875020139617,-8.41840168741355 m-1.6095715073982593,-4.935500255743848 l1.2419426450954647,1.917086504184467 1.339976600853055,2.8944815474974663 l1.6037820018533326,3.023146247188734 0.8402264878796519,2.4244729062124604 m4.9937437848060275,-37.843305849002675 l1.2432375889683174,4.394685389530792 1.2685445629733008,5.02692121902578 m-2.0339886415845223,-10.023485044642953 l20.32999860779633,-2.0981126499957212 1.4447251058980537,-0.042074435866790105 l1.0254629105163042,0.7344780245988269 0.13925278806871952,1.2221903227939606 l-2.0339200401329114,7.959835201116242 m-19.085253357872382,-7.98102103827426 l0.682100367154729,2.066688512427429 0.635951369394002,5.536321394001786 m9.061079384172173,-8.22471851936372 l2.6738073554556734,0.3417793490902667 7.128687695071503,0.0961671556391843 l0.9714925893668709,0.1641630783815358 0.6868158229270325,0.3344406216205787 l0.1992561554577083,0.46188206594736914 -1.7764180013058901,5.7916524787716135 m-18.310652358210675,1.8030352705616781 l19.76743511993023,-1.3986378326502502 m-11.902280576025102,2.643874321270979 l0.8485166065904718,0.7088469191976307 0.37153052269135944,0.8505434663657532 l-0.06443359136289807,3.9760155307475435 m-15.30066173730294,1.7232258612032314 l2.8138200169882808,0.22115189262183924 24.236219487939813,-2.226644365082693 l2.87873963131263,-0.047113300382619225 1.5235947944446449,0.2865559316367523 m-26.38647601810553,5.898862871003462 l0.49400287961056316,0.7772670341420771 0.2580474081868089,1.087490491439835 l1.1273385605839445,15.123814154411914 m-0.9427556427741648,-16.628524605840106 l17.22545634866452,-1.6690396002380383 2.349933500958002,-0.04250573488811011 l0.9664635980891586,1.225892128907944 0.002532470885442087,0.8719979724614331 l-1.8353842066283024,14.141631490329349 m-17.927068693922024,-12.12774460958428 l9.661467447772143,-1.3591964638943521 7.818932319872395,-0.590820548173521 m-16.897132224619092,8.286111105400089 l16.989133514424402,-1.5803607336660064 m-24.304231551869865,8.590446931048406 l4.081568412979569,0.27442790973156256 23.13368727768714,-1.7098798803111983 l4.470163204215664,0.026904917462979887 2.5093774352021927,0.3333670891601347 " fill="none" stroke="black" stroke-width="1" /></svg>