<?xml version="1.0" encoding="utf-8" ?>
<svg baseProfile="full" height="101.16680056710024" version="1.1" width="103.11673851060863" xmlns="http://www.w3.org/2000/svg" xmlns:ev="http://www.w3.org/2001/xml-events" xmlns:xlink="http://www.w3.org/1999/xlink"><defs /><rect fill="white" height="101.16680056710024" width="103.11673851060863" x="0" y="0" /><path d="M25,25 m0.0,0.0 m16.478343534506422,13.561757438992496 l0.5034105882556081,0.1765498473342197 2.685025179064176,0.017387612869990902 l20.81371013641107,-2.204117139025362 3.790246640390805,-0.18827102161752127 m-14.773774144375935,-5.084974289689385 l0.5109690553183436,0.7927567784737882 0.25190414910858,1.1799396501496782 l-0.03879461340881898,10.677152164911272 m-11.846096826707623,1.5355290075158305 l3.00524838822353,0.020111899437386258 15.19265401249192,-1.600086138782441 l3.0208572100339994,-0.14659467484285318 1.376018159977333,0.13503141352123738 m-30.423686229331917,7.255167160935235 l-0.9049900194230107,4.5282073798757585 -1.559724256778348,4.525131814440098 m3.1457483398101798,-7.779210750215529 l24.185740028123483,-2.2919837646256993 10.298751704806277,-0.6483004524497529 l5.713567731933797,-0.11633940120917549 1.050220455233161,0.24451404240247365 l0.5492932019467158,0.4217889253932137 0.09209608499886351,0.5487129241447926 l-0.2576706957740943,1.3474757278334832 -1.1940683119152384,1.5604406299210964 l-2.2171636110780115,2.1395934283078826 m-8.765448941125591,0.5898081145341284 l-0.7566129286197083,1.1948915802200362 -3.4458032462128867,1.8894329684348343 l-5.673738158477442,2.399746659529982 -6.027883022433694,1.971525467335842 m-2.014099372746429,-8.408116001325729 l0.4542038168393637,0.7458888777886065 0.18290058702168727,0.9620420278629683 l0.14071985668981868,14.43452384582716 0.6299580879057366,2.790422759736264 l1.1805174055098806,0.9498462891127087 2.02479921044738,0.6431652815495029 l3.8950016919732016,0.3962524824917216 8.13939651252907,-0.004121047734996501 l4.32474450368965,-0.4704441031536559 1.7371809132544926,-0.6722337901994346 l1.5366963163081433,-1.334388084540326 0.6067207537804999,-1.5773386654532553 l0.20483785730196116,-2.801464662674914 " fill="none" stroke="black" stroke-width="1" /></svg>