<?xml version="1.0" encoding="utf-8" ?>
<svg baseProfile="full" height="111.30410797052454" version="1.1" width="101.62792884699091" xmlns="http://www.w3.org/2000/svg" xmlns:ev="http://www.w3.org/2001/xml-events" xmlns:xlink="http://www.w3.org/1999/xlink"><defs /><rect fill="white" height="111.30410797052454" width="101.62792884699091" x="0" y="0" /><path d="M25,25 m0.0,0.0 m29.119267946970687,23.879462168177056 l0.41255299737184425,0.32733344017874827 0.8034574386627924,1.2656670687151916 l0.14837061484064348,1.0608594344782551 -0.11399478353511433,34.77078585897529 m-21.4873943601505,-34.597991643107456 l0.639971591742804,0.8330380785533359 0.20160553564484324,1.2911090126347458 l-1.0059226910497505,2.598163076541876 -1.6493954726277276,2.7413616470357263 l-0.12766834753628406,0.7598714545788816 1.086772689479778,0.5672528035328148 l1.1253213873286325,-0.09218076277793263 10.086556688181682,-1.6020324821432224 l24.819172207943332,-1.7882043891441468 6.655789162834484,-0.3004731831509557 m0.05282564337407102,-7.939763179877664 l0.5987381172854123,0.9285537427691682 0.26190248022928425,0.9573915120928108 l-0.8814835678365114,8.608652310613861 m-38.85483159663599,9.523093870178249 l0.7406699769714755,0.7824277856520875 0.28240981320800773,0.9247010026040577 l-0.9122494369292058,4.427988179494782 -1.0951590607091315,3.5736316131008325 l0.03668866289687919,0.4078855906844118 0.5645364547602977,0.2785919329353516 l8.68243192208905,-2.8768783078305176 9.620251457332522,-1.1962300742018785 l10.060959964558297,-0.9605806246988815 10.652791375844929,-0.3455041031438186 m-0.1336073936612852,-8.75583352165299 l0.8061810251969914,1.2688938490757555 0.22685033212804454,1.0264199279299073 l-0.6243400281413418,9.584997888125312 " fill="none" stroke="black" stroke-width="1" /></svg>