<?xml version="1.0" encoding="utf-8" ?>
<svg baseProfile="full" height="104.11111169308623" version="1.1" width="106.20179390300923" xmlns="http://www.w3.org/2000/svg" xmlns:ev="http://www.w3.org/2001/xml-events" xmlns:xlink="http://www.w3.org/1999/xlink"><defs /><rect fill="white" height="104.11111169308623" width="106.20179390300923" x="0" y="0" /><path d="M25,25 m0.0,0.0 m15.497636208932146,12.275322472513187 l0.5409867301983945,0.1613555099947986 3.057411191038238,0.03593248234885393 l23.106331071407062,-2.1642550990864 4.385356717719755,0.2709697056002812 m-17.080052476157725,-6.4560854510940695 l0.5907834483610168,0.8234807185272867 0.276108168802932,1.3097640784969795 l-0.018429616727534785,12.895167882132512 m-13.744690497451954,1.582393196172042 l3.6685747557442716,0.07011350946659052 18.010915899012765,-1.7554165259929355 l3.672860014696667,-0.17972946585883243 1.6186085742180885,0.1651618115539709 m-35.23843918006341,8.628469596020338 l-1.0376333831212021,5.072806333452482 -1.6393929077794969,4.657197760626568 m3.375781296552643,-8.729399378646333 l27.0502028228089,-2.543018473916981 12.003857211452537,-0.7385909572432122 l6.471750070778942,-0.1121661335029183 1.0676125501088765,0.30079088700100726 l0.51354533509165,0.4794133783832427 0.05210989738566055,0.6237671813055131 l-0.9238832527765186,1.5308508365121376 -3.035623995516555,2.6594482922614673 m-9.64601670142807,1.0927329186122174 l-0.8246259019748355,1.4440474212474848 -3.987957364551372,2.0524292811606344 l-6.590621726091311,2.7062850376918006 -6.668164873813067,2.225710605741868 m-2.7489335810916646,-9.815821064793125 l0.5644755782097229,0.8523443421064939 0.19819232177009005,1.126029923900439 l0.13196691813719474,17.033409255842084 0.7141736417722327,2.3100956208890886 l1.3175466455712588,1.1072280498711835 2.397769284230035,0.7171165859147886 l4.66826186765469,0.39575956787369393 9.001934378602904,-0.009745151181884534 l4.981259551373798,-0.5323158869068969 1.9596221692939069,-0.7416497244784912 l1.688657107393501,-1.4768610480545463 0.6399439555697625,-1.7637240837605717 l0.2085727314685292,-3.208967995932145 " fill="none" stroke="black" stroke-width="1" /></svg>