<?xml version="1.0" encoding="utf-8" ?>
<svg baseProfile="full" height="115.45665222983871" version="1.1" width="100.02983385840656" xmlns="http://www.w3.org/2000/svg" xmlns:ev="http://www.w3.org/2001/xml-events" xmlns:xlink="http://www.w3.org/1999/xlink"><defs /><rect fill="white" height="115.45665222983871" width="100.02983385840656" x="0" y="0" /><path d="M25,25 m0.0,0.0 m28.493815484821592,12.946864538731655 l0.306188249535233,0.34479699319009555 0.4865845256025471,1.2799982015597446 l-0.017118379839757378,3.83554423129413 m-15.593792510030537,1.2836326730597742 l3.286339502936765,0.1596893884069363 13.229128566861018,-1.2190001306926737 l11.547663264294346,-0.6107434249251134 2.891729752026278,0.019638607416337394 l2.1360653409688344,0.38396154841151053 m-25.460273921280454,4.825325486184791 l0.5872427158030176,1.0115262513753416 1.3290207013845372,2.621437762370644 m-0.7327089107483923,-4.078837522838234 l12.98457180353517,-1.5427534972663992 2.394189920809491,-0.08642517529111225 l0.7254084959783802,0.5419570101207724 -0.011408622766045175,0.5264428422934616 l-0.7494962663843452,2.259802036111883 m-13.783877528929596,1.9366262126502682 l14.446411438006397,-1.3640907535083728 m-24.622317911137905,4.26453207975628 l-0.784263074420526,3.9423128096481466 -1.3130632668661881,4.825807421555843 m2.2948578319104196,-6.510607785707989 l20.933160186651868,-1.980001590617036 13.426004073391777,-0.6110307590655146 l1.010446697603112,0.2257995444174766 0.5151118214525469,0.3905682803037965 l0.07421387723697706,0.5193151314553154 -0.7733663347069125,1.296020904727595 l-2.475460789453711,2.1369859291966815 m-25.842745438389045,1.1761531726722658 l0.6406096466527152,0.5079469668452936 0.3334236698831651,0.6379271150835616 l1.2549649097111995,6.8209999206826595 m-1.0233774164500047,-7.450817580190457 l16.115131885188767,-1.6132056382697273 0.6140384355465717,0.14948399615041147 l0.3669752385283072,0.3487594133989873 0.10941373834757581,0.5845244325091978 l-1.446066323345833,4.562243763681586 m-13.845196832565708,1.822192915257616 l15.227022259241764,-1.2919061650855959 m-18.080931520842363,5.565408242415677 l0.4469083764363703,0.6410106810447549 0.16532625481453905,0.8453463874702496 l-0.007317589618229927,12.998935564008805 m0.7763920489466584,-13.779690605512224 l16.199808591412676,-1.7528039931016695 1.4032125131205953,0.011583176793870605 l0.9338944360264768,0.29767982249581243 0.6755776282302302,0.7660754985820132 l0.21150847364891065,1.2690048421172886 -0.08740451741611824,12.840798115541961 m-19.984273610959164,-8.755665549087125 l19.212368955764365,-1.676037004030842 m-18.935848037037932,6.013824821767 l18.776289290049682,-1.3738467577420321 m-18.736116633473472,5.953160593984552 l18.41452922466103,-1.3535875553224577 m-14.380029781602934,2.8805015056218566 l-0.6278385338579198,0.6281522355617769 -3.278132138895679,0.935784212707439 l-5.579667559536836,1.1692500762070765 -5.688066873411042,1.208146830545777 m24.070483681894665,-4.716876506123602 l7.020179369205852,2.4434054005981385 2.9749567727410757,1.5017706714985597 l1.4427633584406634,1.0659239647342256 " fill="none" stroke="black" stroke-width="1" /></svg>