<?xml version="1.0" encoding="utf-8" ?>
<svg baseProfile="full" height="102.26785900700261" version="1.1" width="108.81840957479365" xmlns="http://www.w3.org/2000/svg" xmlns:ev="http://www.w3.org/2001/xml-events" xmlns:xlink="http://www.w3.org/1999/xlink"><defs /><rect fill="white" height="102.26785900700261" width="108.81840957479365" x="0" y="0" /><path d="M25,25 m0.0,0.0 m13.078163030079711,4.762488126018017 l0.4106078761100354,0.3637864916255387 0.5923672052653228,0.8377499684915015 l0.37841518847746625,1.1536233749432694 2.0048629771036834,15.670836460019233 m-1.7951524370323546,-17.910254131942054 l26.35975552921887,-2.0987770132360204 2.733945050708329,-0.23766525951580958 l1.5381206575836326,0.2892672263669445 0.8059761465078993,0.6983048501234662 l0.09969451340678309,1.1842424666254765 -1.5165767453120227,9.140851156126752 l-1.0661450389279814,5.267166174248648 m-14.899544332514632,-6.879857412192385 l8.298734849534897,-1.3284550799342911 3.573587559795619,-0.12477889472039289 m-11.79985843424423,8.012818745684802 l16.553044846416707,-1.3798299954004944 m-31.757127820880893,8.870093891682991 l2.070324036101539,1.1804133270834256 2.2075918171281836,1.4817430434034695 l1.8070069328964724,1.4054738063311472 1.0188985483460056,1.3086133962715412 m27.374030771727,-8.2467278044413 l-0.07999498117347179,1.1446233083642654 -1.6423025962424054,2.3256422833192536 l-2.45740927363053,2.5080016480380687 -2.7427810784602507,2.2836913648617276 m-32.95257022577111,4.81805644184605 l2.160306748263911,0.3083394215897255 2.434714814249983,-0.0018711551544368435 l41.40550756411626,-2.817450304312036 2.3891038809144027,-0.011709770806540466 m-24.462514167094216,-12.304345730831434 l0.7569773171479622,0.7629864901575282 0.36253117141432717,1.4767282375480655 l-0.09339352218397973,28.35403985871891 m-2.4675597495554626,-18.460769685193974 l-0.48678185096062104,1.2528961061633104 -1.6761145728332565,1.7510908625776525 l-3.300041627249764,2.7164112119017725 -3.5638761910366346,2.489097575143961 l-6.921881852902163,3.955462203119118 -6.992223571023493,2.998307675924129 m26.806991780635368,-15.287857899699908 l7.615587623825026,5.49417050118009 6.677435050550386,4.139229366724525 l5.809408663569686,3.2978555810793875 4.16856749272765,1.4300510284822967 " fill="none" stroke="black" stroke-width="1" /></svg>