<?xml version="1.0" encoding="utf-8" ?>
<svg baseProfile="full" height="114.10638518288489" version="1.1" width="102.94155295732145" xmlns="http://www.w3.org/2000/svg" xmlns:ev="http://www.w3.org/2001/xml-events" xmlns:xlink="http://www.w3.org/1999/xlink"><defs /><rect fill="white" height="114.10638518288489" width="102.94155295732145" x="0" y="0" /><path d="M29.478822740139147,25 m0.0,0.0 m10.174482187462592,3.132032408378048 l0.3352650679582129,0.44271075131643023 0.3925055272778703,1.3344247288218585 l0.016249105126611627,17.438124971677016 m0.6911074464578427,-9.673514094687231 l8.335243127172294,-1.1867377268520873 2.257411554687233,-0.10652001606822406 m-20.932613824837382,-0.33407326127432113 l0.6037532210199783,0.8587354606272688 0.23469229555701845,0.9395956083650816 l-0.017219730464842146,10.421066486943328 m-5.6486363604794985,0.7688349267564398 l1.4145875345415049,0.5288481946767616 1.452978181094788,-0.05620161328643712 l21.821381724488457,-6.338303630857867 1.9655059155831538,-0.3026467136477649 m-13.558214745110547,3.7059453754071616 l0.5665481847477536,1.643627893585839 0.07894504673910356,1.6009250177988579 l-0.20639171762710795,16.64091879168415 -0.30976873547513667,0.9303349657171903 l-0.5130833523720354,0.309865263794341 -1.305211367453622,-0.9340422524755526 l-1.4104915760030878,-1.8636619330181887 m-3.5195698881057145,-12.868431435491315 l-0.27426126758715774,2.0199385081388397 -1.8333504423321656,4.116864266965237 l-2.5978586918204205,4.3167737820641845 -2.6928071603848474,3.5272087334001077 m22.41995921442521,-16.090779783266626 l1.9302562024899974,1.5882482176025192 2.1791786871917838,2.6158536410376043 l1.4130529913653085,2.3966842061482057 0.7823112479489991,2.120977929344714 m-4.7524377437729655,1.2769869152448454 l-0.06325318849749104,1.4307319090114494 -1.4785275637729713,2.6336885080705095 l-3.2260773145241965,4.484994257289575 -3.4234680503345154,3.853761282770341 l-6.790218766999003,6.110595231178209 -3.9017470020656098,5.701578164246834 m24.187531721058292,-52.88102181849814 l1.7294226848004295,0.3590157136181443 2.3294389061922263,-0.12603724343140982 l16.44016519521255,-2.3162278871825293 2.6197151998415795,0.23080712233716427 m-12.870607547259398,3.595595531655165 l0.027534196392762663,1.0965768514045373 -0.5445260434001324,2.1468666503904403 l-2.2393487985524527,5.131013737839379 m-5.39561126065976,1.0784750906773783 l0.56588239237223,1.2609312352777184 0.12082649518227388,1.4748819503433455 l-0.03610082142451394,30.395834517826493 m0.4117347650596785,-32.233329436300096 l15.189769999024115,-2.3592031605843227 0.6764440969091586,0.08201638991191723 l1.0181852083625305,0.8011408008931971 0.35031027600100006,1.3408707433842921 l0.012320330174763746,30.550625805583966 m-17.01254783619994,-21.074664026743417 l16.324350728125626,-2.0382154365869587 m-16.201446314657623,11.717448222307247 l16.174925317515072,-1.6331616406716531 m-16.268961424586344,12.093023911619278 l16.550096568922285,-1.515817054452854 m-12.986549483671764,5.933382186056472 l-0.2638943725390758,1.7505828197954438 -1.0485356393352476,1.6694106882578919 l-3.728277600297188,4.16518709134305 -4.5524213247504175,4.274411889676401 m18.626436806866334,-11.283302601162143 l4.492821579889222,5.266871668311677 2.057238165432725,3.3035052223477095 l1.0962020778659174,2.4035606767248163 " fill="none" stroke="black" stroke-width="1" /></svg>