<?xml version="1.0" encoding="utf-8" ?>
<svg baseProfile="full" height="109.2961371674225" version="1.1" width="108.3250974947035" xmlns="http://www.w3.org/2000/svg" xmlns:ev="http://www.w3.org/2001/xml-events" xmlns:xlink="http://www.w3.org/1999/xlink"><defs /><rect fill="white" height="109.2961371674225" width="108.3250974947035" x="0" y="0" /><path d="M35.56378738898378,25 m0.0,0.0 m12.728516049403927,14.481162907980833 l0.4939389040530107,0.12414931792401729 2.5519477810209694,0.0715574263773005 l25.623264083931094,-2.1874456681111845 3.8796197350922204,-0.15095083724137148 l2.4840235522184937,0.2561906350533192 m-27.39602794408786,-4.735578109945218 l0.7908854489847941,0.7971816520910621 0.3088773045154795,0.6385448679106328 l1.0324518671382066,9.41483609728008 m13.534848653441985,-12.539376151546309 l0.2626710263575543,0.8552125732088778 -0.04798916706273165,1.0118662656584665 l-2.0327214579836603,9.934138479527455 m-19.335331907858073,4.8410857137868515 l0.5357208749858472,0.8392280628453491 0.27094603205749596,1.575836627999273 l-0.07600490376515077,30.454441739531344 m0.2288517340342524,-32.0950918759786 l22.848271167701615,-2.007752166796078 4.65715293511352,-0.19487987661103176 l1.329434050017546,0.40826622405790414 0.5621770382680419,0.8529901384124078 l0.1292208523618009,1.1806373971513775 -0.25163099702661024,31.48424544891583 m-26.763478738869523,-28.871012203193803 l2.451954196061895,0.056175615765313124 14.09871799012325,-1.5944620158991303 l1.7399073481306042,0.13354911864542815 m-9.072826151615752,-4.163182270641972 l0.435664050137347,0.344805764873788 0.43621521534906393,0.9372153144160528 l-0.027828894048906847,5.913190819867935 m-12.179333329285642,1.1036298359921166 l3.154611093624411,0.06777616120663502 16.814470723094704,-1.9529450570645692 l4.294594807696195,-0.16851019689271998 m-20.970815397161598,6.011366080196264 l0.8112820836811614,1.0586118950994754 1.0862635166271968,5.891338482086022 m-0.6089228903220893,-6.292062700286643 l13.346167332163924,-1.775793323962155 1.6500092366089818,0.1611808205166774 l0.35610745900736085,0.39324583270950686 0.02525521214557519,0.589732375582779 l-1.3470096324058825,4.214861489753222 m-12.861960680936086,1.9213225598316743 l13.869747460023325,-1.390689937712577 m-8.492613884281191,2.33249516373528 l-0.052370534735565515,1.2573370478057304 -0.5931315774497381,3.196061369070243 l-0.7728317468651065,3.989515822094179 -0.9293336812631561,2.5885707763786936 l-1.210932887273281,2.1505136185271776 -1.2882112700051995,1.694005114629989 l-1.6385148161976488,1.537967838196085 -1.9987918627047447,1.4006078859074218 m11.622582021272597,-15.83993090300312 l0.4297083471052239,0.8934985385281016 0.14483770899987983,1.0118032653194031 l0.22202512901623422,12.421375467822703 0.8923027093309314,0.8022310448556724 l1.8569658343405484,0.49257633712591736 4.2299864166470265,0.1353195662988463 l2.9735286246922463,-0.16901398438934298 2.328515134895328,-0.2572502042359874 l1.2284456009711326,-0.3703371795002843 0.799108783675507,-1.5430901083454465 l-0.005040721112873951,-1.8194498314796397 m-33.65478249932531,-10.052649091806476 l1.4067395104930036,0.8312008543392924 m-6.081384616203421,-6.852258395700865 l0.4188268529031012,1.0326465759584835 0.12388641790580915,1.3911383839161056 l-0.04958165342870006,11.317475415250616 m0.29064236152849104,0.6229911917271316 l6.179977622394742,-1.0745341917810673 1.716325250288581,-0.03737634425219369 m-26.51257468734153,8.312854774057955 l33.302007263836074,-1.3704508323716902 5.233870089653161,0.13199775200391445 " fill="none" stroke="black" stroke-width="1" /></svg>