<?xml version="1.0" encoding="utf-8" ?>
<svg baseProfile="full" height="103.64454824003704" version="1.1" width="103.68584688869765" xmlns="http://www.w3.org/2000/svg" xmlns:ev="http://www.w3.org/2001/xml-events" xmlns:xlink="http://www.w3.org/1999/xlink"><defs /><rect fill="white" height="103.64454824003704" width="103.68584688869765" x="0" y="0" /><path d="M25,25 m0.0,0.0 m14.73382152861879,13.844587576472858 l0.5090443293871926,0.1412614079989605 3.131086134189102,0.06263523062129277 l22.40678122904575,-2.092514684598028 4.238389614020951,0.25043401668595167 m-16.394753019218943,-6.665778785097983 l0.5904216419165285,0.8213943316099348 0.2833885777990096,1.2855901771307587 l-0.030080678587823893,12.174236648883856 m-12.595724828815626,1.4816789412327207 l3.4002581630625985,0.07456776927690649 16.06058509698193,-1.5794905271489856 l3.77900007821557,-0.1661348366723981 1.6250493729721716,0.1591519307841039 m-33.10720251526128,7.86532862851816 l-0.9814304707240357,4.8572028568468975 -1.6384069923568667,4.777524120790127 m3.1379917539784,-8.401069246513714 l26.044800062860684,-2.4749758952142678 10.844944821043482,-0.7163369055968096 l5.858552186401685,-0.14182514300853924 1.1044170517620038,0.25742227585921235 l0.5697899398789276,0.4463771284714234 0.11512381152745473,0.5834231405886339 l-0.24050404561705882,1.4343253618501945 -1.204594234149719,1.6806628992540462 l-2.496158148747446,2.4199828688710556 m-8.66125485412486,0.7108094935557742 l-0.7561946836425837,1.4261136228448994 -3.692188266970878,2.1527419434088166 l-6.010157993773952,2.67378315589055 -6.127194879383608,2.2152740977006125 m-2.6524104042360217,-9.568626134263003 l0.520767562013896,0.8119388919028869 0.19435250079608268,1.0674284669875944 l0.13996427595728528,15.624759849656623 0.7068047691768287,2.071631666143591 l1.3132359084749525,1.0015096708218676 2.312280971058166,0.6941273124363456 l4.175567754952704,0.37908637084623786 8.339228826956887,0.004308544207878094 l4.626170937199876,-0.49279405790114833 1.779146693987344,-0.7055719399836159 l1.681808395081601,-1.1855129432150804 0.7472180119015778,-1.504510291961213 l0.2666787972028216,-2.7671741269974106 " fill="none" stroke="black" stroke-width="1" /></svg>