<?xml version="1.0" encoding="utf-8" ?>
<svg baseProfile="full" height="100.2870015295368" version="1.1" width="95.52248465633058" xmlns="http://www.w3.org/2000/svg" xmlns:ev="http://www.w3.org/2001/xml-events" xmlns:xlink="http://www.w3.org/1999/xlink"><defs /><rect fill="white" height="100.2870015295368" width="95.52248465633058" x="0" y="0" /><path d="M25,25 m0.0,0.0 m13.453300273938872,13.725099491429505 l0.6119262363402168,0.11320314903475767 4.255450672257892,0.05484072078849022 l18.39611214118782,-1.4316491160377625 2.8945982007504636,-0.1406244651169574 l1.7676885307417358,0.20904164473685305 m-22.795175232409104,6.4398061099149295 l2.1881102251511786,0.23979751013942308 13.509510720896104,-1.4563557289828382 l2.846349700997849,-0.15607795287014314 0.49769868374545656,0.14083992651972213 l0.3974713787358881,0.33554319669360333 0.18505628076629943,0.49387430900821316 l-0.10421732577597378,0.644881013490932 -1.6182781414038896,7.247604319215391 m-25.89055278082681,-2.185703672216815 l2.794481802589025,0.16638223782625416 28.803798303019338,-0.24256650728741494 l2.4642419957771478,0.10881845632923919 m-28.94358964523495,4.913677382444355 l2.542015816656784,0.08948145330532621 13.888197802836022,-1.0372889252586364 l5.161257771735313,-0.1658931782529228 m-11.046105283585499,5.267427194929726 l0.07475660416153589,0.4844380908665444 -0.3449209491935088,0.4283316933802945 l-2.4704780555544072,2.99884282823923 -2.2404476648292215,2.1059500434857887 l-2.9552239720945486,2.3578827480463707 -0.16003089059462977,0.4392178341262562 l0.37098752248262157,0.24771340683132123 2.9624408685068606,0.17117533243056193 l3.2410716922539455,0.3902266066559858 2.9966515437925554,0.6728077161966891 l3.073220764684968,0.9872550851253543 2.8750058324299856,2.3971432144879126 l1.7069783883771472,3.231858359881249 m-4.171662208962468,-15.624006521669799 l-0.16339531677031138,1.6625048664006954 -1.5858755607401844,2.898061432256888 l-2.0572888378277696,2.481379145664943 -2.275704373482327,1.918975306110689 l-2.9188870863552867,1.8365061087901404 -2.75233258945884,1.3209129530740427 l-4.311627393684032,1.5379659529005691 -3.8165168624228807,1.0024968820949718 m-4.070745375207601,-11.421722620131737 l1.9842239903939969,0.12138689460485103 2.425118605117219,-0.04733092229271225 l25.435571398642622,-1.2706925620230651 5.133543263306357,-0.10800212582853484 l2.8461519099231922,0.3059070691334906 m-40.29462552019627,-21.06519534972349 l0.7198383305746884,0.8382486850759611 0.25046135627180693,0.8400717198473495 l-0.10461795304177773,29.049978871068955 0.15027711539396033,0.9149848797889285 l0.4029137491609454,0.6673056190344518 1.3221395328608734,0.2966044805998229 l29.671845052973453,-1.6683806866818676 5.026529382601179,-0.08915420166340741 l3.287790233949537,0.27830243844680247 " fill="none" stroke="black" stroke-width="1" /></svg>