<?xml version="1.0" encoding="utf-8" ?>
<svg baseProfile="full" height="83.92973969597716" version="1.1" width="96.71381366751196" xmlns="http://www.w3.org/2000/svg" xmlns:ev="http://www.w3.org/2001/xml-events" xmlns:xlink="http://www.w3.org/1999/xlink"><defs /><rect fill="white" height="83.92973969597716" width="96.71381366751196" x="0" y="0" /><path d="M25,25 m0.0,0.0 m7.723515831209622,4.823274939136918 l0.3562242076686415,0.15699552168567296 2.0354335341668297,0.06752186287583371 l8.279377790624451,-1.9610772317667005 1.8338273689340614,-0.1523070019546094 l0.8954707466422986,0.24789976353346496 0.3429609025988642,0.44597964472000184 l-0.016399420170795067,0.698761500291244 -2.224082763394598,0.8872364653417425 l-9.227580484680965,5.668552446662612 m-1.3017924779294117,0.050779090072691324 l2.696027461008105,0.903783810477069 1.7535412663146617,1.1300357141371786 l1.2194469430711852,1.1337940361644028 1.3632972669983903,7.861189089771101 l-0.43645709683622835,4.129487677182968 -1.059351770429568,3.150918242455163 l-0.5965774098134563,1.6188685536200957 -1.13625452707501,1.6481653349801235 l-2.253691426785463,0.35995637937111674 -1.2182253633763322,-0.6797241573619451 m-5.295613083236497,-11.550477060002564 l1.232896336776512,0.4041842637480709 1.5324186106389561,-0.28627379537859016 l13.556036051557554,-6.649758761720157 m5.65075939225091,-12.420478877506591 l2.2871778769020183,0.058015704904255776 14.286426288229052,-1.6157545584268411 l2.0674173741263235,-0.1084677291115887 1.336557226633555,0.2008341616945191 m-11.394966101535877,1.9098997968224596 l0.031065074232432786,0.692135794313355 -0.40358603566205825,0.8090345378419733 l-2.205260153735608,2.483449121215292 m-4.335003083491937,0.7677771018153279 l0.5352342144049989,0.7026827159844847 0.16524914861724582,0.8237783192893056 l-0.04344749626750133,14.934567240806048 m0.5486680671829247,-16.135072990581758 l12.555889489858073,-1.343756527528131 1.2521479682891858,0.10642543700818827 l0.6643600945127659,0.42176184099760383 0.255020181500093,1.2877119049785393 l-0.05456615400853888,14.710769725649172 m-14.440815335027088,-10.449721554319249 l8.139488279379242,-0.7617938716497463 5.97970935233971,-0.3985119770320482 m-13.896769128084054,6.077287678288458 l13.97400046095863,-1.0505335826570035 m-14.001453651350749,6.0731239676164455 l13.668917334999797,-1.017333072896604 m-11.513273215682775,3.0818359185091375 l-0.2985440469386368,0.9956784513082104 -0.8815544814553194,1.164589654457026 l-2.769492707896756,2.8067124824299685 -3.214746615398723,2.584636615904035 l-4.172504834938191,2.430689937810009 m18.07170526726405,-7.746583643675124 l2.413631104306104,1.263173617382383 2.8004097942321464,1.8453897451994288 l2.444516302186988,2.0691041724626547 1.1569979220977287,1.4053774431559884 " fill="none" stroke="black" stroke-width="1" /></svg>