<?xml version="1.0" encoding="utf-8" ?>
<svg baseProfile="full" height="109.27419865188946" version="1.1" width="102.67560348636505" xmlns="http://www.w3.org/2000/svg" xmlns:ev="http://www.w3.org/2001/xml-events" xmlns:xlink="http://www.w3.org/1999/xlink"><defs /><rect fill="white" height="109.27419865188946" width="102.67560348636505" x="0" y="0" /><path d="M25,25 m0.0,0.0 m4.839701752183936,24.914390947336475 l0.40278406036972836,0.16614681422077993 2.365818434757076,-0.05157569345506387 l10.345861254715482,-2.439164359639601 1.894197040447584,-0.016142693049641492 m-7.448462309543356,-14.690781379217643 l0.5251832457301253,0.9569188035642886 0.21843359651094674,1.0557354444654665 l0.04269162214693937,33.066315004152905 m-7.927255954983563,4.815529521061685 l0.8442204302044994,0.4750132806751031 1.1350703660763162,-0.41665776610835886 l11.958640067569227,-8.251056259214335 m5.606317557863125,-30.154841289575042 l1.0790353930161245,0.3265991366998029 1.622839710742015,-0.03243325953946359 l18.04424435319237,-2.3961860932829895 1.2974067646810046,0.006726087957721369 l1.1441448863954073,0.6854221890329107 0.4030840934373571,1.1698811282016164 l-1.7767428214365768,8.512621835097516 m-19.365914684465977,3.405657590498557 l19.887717755610794,-2.4672853070897207 m-20.585700591393607,-8.7862219993301 l0.48904429912917335,1.012642360773135 0.17634714407577903,1.2526744486493915 l-0.3103919641925405,10.030163115981132 -0.8507531719229886,8.587633453240919 l-1.5659475697339977,7.990149163812197 -1.8125629073511036,5.7727218073878666 l-1.9021696573040976,4.257100403994712 -2.981173073707233,4.836397329663678 l-2.69854107596042,3.319332793752397 m23.66626784281426,-30.42980113760403 l0.8446866453656722,2.217130066335248 0.09167323385521173,26.664838115940814 m-8.986025373890964,-22.839311401065338 l0.3418656596485471,0.5788365314368115 0.1466736287449432,1.317879352989549 l-1.1050612349304285,6.146979337507418 -0.06736837459650452,0.929538520468701 l0.39134035516781285,0.4025624923816221 9.754580335034149,-1.9401329597846513 l9.048986223026196,-0.8353321008843873 m1.2568564627203815,-9.726677230265487 l0.32623078742158507,1.8682012791936333 -1.2417783470659924,9.447988617629944 m-19.90988540905259,9.426512071897955 l0.15159985715851537,2.128781354701988 -1.3230178848475231,6.003414671738368 l0.14463166582667725,0.7060709869481246 0.48451452133050144,0.29329352160488315 l10.765296838260335,-2.484292466685191 12.037631492806154,-1.4239782610504133 m0.11253484720742456,-9.099418548911396 l0.646201667501122,1.6543291384143932 -0.01373171120971538,10.085156493554365 " fill="none" stroke="black" stroke-width="1" /></svg>