<?xml version="1.0" encoding="utf-8" ?>
<svg baseProfile="full" height="106.62359461392302" version="1.1" width="104.94950149883867" xmlns="http://www.w3.org/2000/svg" xmlns:ev="http://www.w3.org/2001/xml-events" xmlns:xlink="http://www.w3.org/1999/xlink"><defs /><rect fill="white" height="106.62359461392302" width="104.94950149883867" x="0" y="0" /><path d="M25,25 m0.0,0.0 m16.492110620121338,13.77320910863697 l0.48491511889726374,0.179970964009672 2.912938404187971,0.11889233253920449 l22.417737224324966,-2.218352734541285 4.130215009003943,0.2953345263929116 m-16.382942700471414,-6.965926217968847 l0.46218137691559985,0.8001502224305233 0.24109522686326434,1.3282946932772834 l-0.033260615439154075,13.62687800844235 m-12.375324073506189,1.457151240654349 l3.2652470684344586,0.09310965188185147 16.271611470286956,-1.6977805488394653 l3.488887841182932,-0.15994133797438306 1.5819000008624178,0.19088906384373633 m-32.32547949028438,8.499852559276727 l-0.9596755404807407,5.243351889204378 -1.532882959236968,5.039470849628499 m3.24714537525543,-9.16186039429631 l25.0615451371381,-2.5886905012339265 10.82443225104072,-0.7514187864792727 l6.086418994483314,-0.1114542784572059 1.0126105204263154,0.3160763731525918 l0.51603296241022,0.5004677841833661 0.062042276422311866,0.6362994746506093 l-0.8526178896019416,1.5376289227211672 -2.8247157895234736,2.657516938578369 m-8.990848963276818,1.7236389836852666 l-0.804978802407483,1.5357264195444433 -3.9074714280740817,2.1320429668238408 l-6.210279006725668,2.80438143310205 -6.052106756192257,2.2591132086092776 m-2.585256617235497,-10.07785355919521 l0.5211555766643341,0.8797506567888352 0.18832692618427446,1.1289977598945107 l0.14580945734528095,17.096662244714135 0.7396456447389618,2.2969987275611614 l1.419567673102693,1.0700370921810902 2.480850036043108,0.7428084927712065 l7.036683877177233,0.39217038372856383 7.78209379225385,-0.2646354248471681 l4.111085327951354,-0.7147386167423743 1.5504026958628505,-0.8909453108025662 l0.9285838171591637,-1.3729697083417025 0.42259869292032964,-2.0196719015887177 l0.11894967241990088,-3.5722860290339544 " fill="none" stroke="black" stroke-width="1" /></svg>