<?xml version="1.0" encoding="utf-8" ?>
<svg baseProfile="full" height="107.75949202169711" version="1.1" width="100.91396801727637" xmlns="http://www.w3.org/2000/svg" xmlns:ev="http://www.w3.org/2001/xml-events" xmlns:xlink="http://www.w3.org/1999/xlink"><defs /><rect fill="white" height="107.75949202169711" width="100.91396801727637" x="0" y="0" /><path d="M25,25 m0.0,0.0 m14.464394140774358,19.18207098767854 l0.3077664963560207,0.037173025271008686 3.1916300842948546,0.017699023600726203 l24.793845433363835,-1.6820892165560681 3.6272500281987945,-0.11125879709246334 l2.560082391968481,0.19169100344282342 m-26.066326974477903,-3.9902887332532915 l0.9243257472824077,0.6816875565672234 0.32589829169016765,0.8726213134299485 l0.49511381877275973,5.1498132254824585 0.00849591740932876,4.021931085000705 m12.20199773028308,-10.953717199139534 l0.42319595258022286,0.7670439045445572 0.08806486641047304,1.0058476430321062 l-1.5561560176435314,8.079813250952935 m-15.495561884867413,4.776643428267669 l0.3962164602445815,0.7353511684820209 0.23209745815001645,0.9424004079053291 l0.01059691720501398,28.035058944080422 m0.45000559663111206,-28.448210157186775 l16.540125885330852,-1.4607854435897434 1.3455502895694,0.10952433879727358 l0.7178571444979385,1.5513380719918586 -1.5961569840802192,26.758133976226535 m-17.480502091797813,-18.39476661172704 l11.867372633151122,-0.8370320004002135 m-11.69439227514411,9.7154131961654 l11.878547771846419,-0.8462025779216567 m-23.248249323845915,11.137689310755482 l3.270853633266438,0.2769942847571368 17.84558189647314,-1.176744731275608 l9.148709313845231,-0.42906399337397044 8.558194097336557,-0.12389711958589825 l2.3775435722006746,0.2617885985677244 " fill="none" stroke="black" stroke-width="1" /></svg>