<?xml version="1.0" encoding="utf-8" ?>
<svg baseProfile="full" height="105.24495975900574" version="1.1" width="93.60527458023911" xmlns="http://www.w3.org/2000/svg" xmlns:ev="http://www.w3.org/2001/xml-events" xmlns:xlink="http://www.w3.org/1999/xlink"><defs /><rect fill="white" height="105.24495975900574" width="93.60527458023911" x="0" y="0" /><path d="M26.539972199488652,25 m0.0,0.0 m11.609917535877242,4.3696677271704685 l0.4167776335207558,0.45604087672780125 0.4535438844224182,0.9340746063421327 l0.08388229828512479,1.2117966652447405 -0.046478498084916546,12.217911600407227 m0.7218067530900392,-8.491637259464278 l7.670349860734956,-1.4954210794225464 1.750980073682376,0.004390309652744687 m-18.853578462988068,0.06875939573084337 l0.6343289259140641,1.5144646446487526 0.11246447806903566,8.927787699158905 m-5.588852706960644,0.9879197531447073 l1.1381788639205788,0.3301842817325521 1.8212567819769927,-0.08283913921137624 l20.586300374797617,-3.226971307863085 1.9272846134959079,-0.1401674337618937 m-12.124314189576621,2.653658436610498 l0.5090645093485522,1.2404300070947 0.11778891685427517,1.2970432024544425 l-0.1497870609657008,12.793437755142007 -0.28609179843722776,0.7576647997662518 l-0.48175688390877536,0.1815665666567439 -2.4224796044765533,-2.0337230662723607 l-0.8478442465209066,-1.0946402638618673 m-3.312570427005691,-9.27037821565528 l-0.2514116839842216,1.62449019388527 -1.705146544742255,3.262226608466358 l-2.515811282888835,3.5363402726697015 -2.5077743129381718,2.7374366031649697 m20.847944304127967,-13.249552519948491 l1.7448152331951505,1.2194914697124266 2.0834079266770007,2.044275700188221 l1.3816388510051663,1.8792370982412783 0.7485951856970405,1.603756378470586 m-4.306015977905434,-20.89572800159072 l0.5121857270894689,0.8321235044322003 0.21834546759684473,1.397822455701262 l-0.07251251146581872,26.519250885187642 m8.498267205745634,-25.013626306856935 l1.7939768284150537,0.14758036310210498 1.779278285384483,-2.0102263941585377 l5.570459630282237,-5.020851621680073 0.5275724098737792,-0.25704986041817185 l0.4608009028340193,0.21654740198396175 0.33123756181178327,0.49385302021794897 l0.12248939403156009,0.7395818113129868 -0.4108321193873755,12.987948463078256 l-0.5955375065792048,5.685164814212854 -0.2717454697922969,2.546487835428251 l-0.31242412723840834,1.1891404528616505 -0.45766890288651224,0.6616784930963885 l-0.5744506538400699,0.1531317551261743 -0.64195520682208,-0.2903568600713381 l-1.624657169253435,-1.9256195084593568 m-5.431778990840843,-17.820905267033133 l-0.2400720970768221,1.6169977414196672 -1.5965031496563993,2.033508615300429 l-2.247043847691828,2.0666953909641337 -3.5087164778096978,2.635496380172782 m11.766250898474697,3.8986183185223435 l-0.47471729670546065,1.3796280100492824 -2.6675699924189926,2.644361806846574 l-3.7607097220241537,2.6091613753995744 -4.491888335502869,2.1421949559855906 m-10.069591342367806,4.489897302111478 l1.698027346161024,0.2834028455991443 1.883191186403957,-0.07783841598184352 l18.67326462922706,-2.535426765535743 3.1558198645081523,-0.11613386132805024 l2.5103300295504702,0.1980905689389525 m-15.041216073357827,-10.86869854811413 l0.5203503755054939,0.8902197305125253 0.15491230566638375,1.0660871463141557 l-0.030578117743388342,26.370184132815943 m-2.1664169223383656,-18.437004214309695 l-0.2449408873957462,1.5983971258966447 -0.9429841941167019,1.7208727167164706 l-2.0332088012325022,6.874088590528287 -1.4743499640389608,4.155758584545819 l-2.6774503740496725,5.239607838862514 -1.999375897052316,2.232785275280343 l-2.547652242270236,2.0293373089959763 m14.326263372819794,-19.06710012404405 l4.161019250489648,5.9349610171529354 5.096909192531778,6.084546941928069 l3.194829306633291,3.471542150955212 2.7576562793613895,2.0121076524012187 " fill="none" stroke="black" stroke-width="1" /></svg>