<?xml version="1.0" encoding="utf-8" ?>
<svg baseProfile="full" height="111.88415661615745" version="1.1" width="102.62203256399812" xmlns="http://www.w3.org/2000/svg" xmlns:ev="http://www.w3.org/2001/xml-events" xmlns:xlink="http://www.w3.org/1999/xlink"><defs /><rect fill="white" height="111.88415661615745" width="102.62203256399812" x="0" y="0" /><path d="M25,27.71659807620918 m0.0,0.0 m10.312384609305072,3.5032917010651556 l0.38214502897837904,0.4068096841620215 0.43595590903185466,1.4324526352871272 l-0.0346934168331894,7.2080051642729766 m-9.921396207842982,1.4852553865233455 l2.739285115690094,0.09731971135184499 13.52448245142754,-1.902670080302885 l2.763510762552263,0.000477377109968616 m-15.629967901662424,6.9404949699274665 l2.111912781597652,5.656561117220933 0.9150671523599518,5.070979994597942 l0.4823229513579584,4.895298568943347 m8.55603765993735,-19.14036330266433 l0.2990606505980337,0.8204369509017024 -0.38660544707693356,2.5780965942894265 l-4.010176071760897,14.234462702333893 m-9.899941553776712,4.714381228587684 l1.0290091568620694,0.3577161967220785 0.9873452071804101,-0.18763237567248175 l14.16704681310705,-7.757591315023113 m17.514963424981403,-33.13038098584328 l0.6993677584736319,1.2578235403044737 0.18441394708265066,1.2300900990071981 l-0.12940587422327998,11.70302256967371 m-10.67145524142775,-7.199855062320647 l0.40679554124229883,1.0520309155881062 0.02863405149563249,1.0503958616468283 l-1.5040174118953245,4.969293018890033 0.022445625254423156,0.8561454893406726 l0.3813687344661604,0.34027998294902534 13.568569495711623,-2.1073168961151096 l8.783842485740912,-0.7724616487406986 m1.955443497551497,-8.43965092183315 l0.44743992696945495,0.9685888052905534 0.024022701883998552,1.6417164760685854 l-1.7913610212403313,8.514240329342663 m-25.83581313995753,8.405759403270965 l1.7790283900626391,0.22199098949426904 2.2260948349019696,-0.10628616561202127 l19.86971769044306,-2.331764646901413 3.3650751825597247,-0.1014259592505889 l2.474076312888711,0.20039395164105905 m-17.090694336369083,2.991281687444008 l-0.15346611234047333,1.3207251787393661 -0.9257085794439283,1.760657537581165 l-1.3707541606398017,4.551905740320526 -1.1296875167091298,3.128969537343983 l-2.7073671872407847,4.926563607481955 -3.9524052149144184,4.604673760959244 m10.346769542337226,-12.441049246100883 l2.4729043678847398,0.28044925639235607 11.316922300186643,-1.84866995986995 l1.4938003444429062,0.13129153905694704 0.6861062136151789,0.3580238433575684 l0.4238277156450163,1.0880284701999028 -0.13009492267938128,2.00360258116014 l-1.6348318303504001,6.485751342470248 -1.7977984125617053,9.587003557101529 l-0.42282577754052436,4.762411344136839 -0.7412239518011756,4.145917670866004 l-0.8918494486325282,2.0925058733582946 -0.601994621236373,0.5551719377724622 l-0.5843050105367529,0.045931224651242934 -1.1758681962878328,-0.8330046158297123 l-1.3421191774324737,-1.8089871057371811 m-14.38642199368728,-17.895940400237027 l0.06640105426115205,0.7774225614278625 0.008167730327036377,2.461646678955908 l-0.7136711128984127,8.595705180716426 m0.06904714056479223,-10.840798081036366 l11.686999020328441,-1.7798542632387329 1.0616622992478497,0.0790066729680138 l0.4529391171475479,0.3590177378548412 0.2938695683089027,0.5547132015808042 l0.006577594818081968,0.696634502166518 -1.7202155068630176,7.551381353453085 m-10.222704801130543,1.5667658205206898 l11.05149998547867,-1.133872440240039 " fill="none" stroke="black" stroke-width="1" /></svg>