<?xml version="1.0" encoding="utf-8" ?>
<svg baseProfile="full" height="113.98163007677599" version="1.1" width="106.04036006644479" xmlns="http://www.w3.org/2000/svg" xmlns:ev="http://www.w3.org/2001/xml-events" xmlns:xlink="http://www.w3.org/1999/xlink"><defs /><rect fill="white" height="113.98163007677599" width="106.04036006644479" x="0" y="0" /><path d="M25,25 m0.0,0.0 m6.381024927387284,20.893987399564978 l0.3390238310796136,0.14609049446619704 2.3170675854989784,0.06335545273301307 l10.551322211053533,-2.2258416791941897 2.264636675092405,-0.015328285914932583 m-7.913152554268176,-14.08193403965186 l0.7493343005572457,0.8581154185183674 0.3618374720879,1.1384978531671972 l-0.004056331191515223,32.343569059630795 m-7.891632743447665,3.9899909030215044 l0.6689563284824666,0.5290610763910317 0.48348173665583016,0.05581322051235502 l1.2055765205374058,-0.4970494648362624 12.167188267616558,-8.819226100209947 m5.923468419269138,-27.646426831665558 l1.0334850981692083,0.4981499514359314 1.4952534797901713,0.07078245406091163 l17.622027579703207,-2.4517078096644562 0.806002938269802,-0.05122210487375798 l0.9376237826841252,0.2963395045267049 0.41228950259143066,1.056463799310066 l-0.125822173498312,8.019512542006737 -0.3143042505350495,6.677841266969344 m-18.44644793548361,-7.005120897837996 l12.38080127291122,-1.9858590009894073 6.012727877804303,-0.5713813092540193 m-18.612714804658268,10.21694174876177 l17.49557076519384,-2.452247374489991 m-18.919550860639845,-13.712867587759556 l0.5634106229283312,0.8187215635833317 0.2335639539345872,1.0645115990966627 l-0.025374860706663522,18.380853728608464 -0.4020682224950932,12.257320653808065 l-0.6459717769620977,5.256310134049307 -0.8297573908658701,3.8508642173137213 l-1.141537500572265,3.586484052597352 -1.932246287560077,4.225642064126819 l-2.1281666157786168,3.251229306531477 m11.805923110618677,-28.589010211845416 l1.8952569310285867,0.3627720340027509 11.811828846047728,-2.087050744041839 l1.3834237905130724,-0.17349189782276475 0.9160555866293352,0.3325946709170981 l0.362548527225845,2.0508862893245743 -0.4741397340359545,4.95667212536036 l-0.8477429434703238,6.404219133287056 -1.0534895201174261,5.182979797102584 l-0.5428238957732615,1.9116221063187258 -0.593715189670564,1.0879194384187758 l-0.6007563735188012,0.3829829712413308 -0.5830891338772937,-0.12738247156821497 l-1.0303815828028466,-1.0204107766384347 -0.9931223386105936,-1.6160463030843455 m-9.05277804314195,-18.017211752663975 l0.43938078840912165,1.6362026651022212 0.2905795565366693,4.194954330172037 l-0.16908650677328746,21.303508521465027 0.25863282853011216,2.920873089042908 l0.6529543874686361,1.7922745227192565 0.7981850009863025,1.192212045612678 l1.0334637517880871,0.9581127230180216 2.3943739241213855,0.7516557138267188 l6.5054326760758645,0.1595550790587075 4.101224463139983,-0.5376211056433825 l1.531606998162261,-0.5993182922499024 1.6692490060879606,-1.3389360297221145 l0.7673456945327918,-1.6668639054311198 0.2911486196992309,-2.811236155618067 " fill="none" stroke="black" stroke-width="1" /></svg>