<?xml version="1.0" encoding="utf-8" ?>
<svg baseProfile="full" height="110.21202478609692" version="1.1" width="98.18629673180592" xmlns="http://www.w3.org/2000/svg" xmlns:ev="http://www.w3.org/2001/xml-events" xmlns:xlink="http://www.w3.org/1999/xlink"><defs /><rect fill="white" height="110.21202478609692" width="98.18629673180592" x="0" y="0" /><path d="M25,25 m0.0,0.0 m26.633163603492864,9.260894847223451 l0.4015573366123486,0.33729460894276625 0.604277653616034,1.2645268074546596 l0.006315355155433306,4.2185663539046185 m-18.143574396228665,1.1249959955390203 l3.996219535742531,0.1618287509321481 15.827907529868599,-1.2816426556650113 l13.297486431978992,-0.6554216040623314 3.0542425136922984,0.0061953861281654424 l2.508701167875478,0.39177041224144793 m-23.8981850312959,5.544747793696183 l0.23756901797024557,1.3840435815413623 -1.4835111688862095,2.5708651566954175 l-2.537667071007873,3.338380049055601 -2.870668675310132,4.231743147475475 l22.13826891358663,0.12890198615336704 4.179956980385821,-0.3604416835058279 l1.3064705294978844,0.37026160416090925 0.5990204579893645,0.8081518068853577 l0.1530096293746063,1.1970660757212548 -0.5822838527580634,13.840908029634917 l-1.0857930743818276,5.520781793934436 -1.3768729358700718,3.881905822795334 l-1.1820220266997556,2.0580776175490754 -0.6635104481975076,0.6319656621411514 l-0.6195967265595064,0.23565743952399162 -1.2202377276138001,-0.24085270283194724 l-2.0250844995901187,-1.751872583464008 m-1.7381629283881364,-23.491904350935837 l-0.04189714996357227,1.728154531757763 -1.5179575025383876,3.0562837954918867 l-2.411686746026437,4.915011491757197 -4.051703521750076,4.256130207899198 l-3.0957344111131078,2.14233196588436 -7.20481860472624,3.6109016481466143 " fill="none" stroke="black" stroke-width="1" /></svg>