<?xml version="1.0" encoding="utf-8" ?>
<svg baseProfile="full" height="107.8651548033362" version="1.1" width="104.09047911016233" xmlns="http://www.w3.org/2000/svg" xmlns:ev="http://www.w3.org/2001/xml-events" xmlns:xlink="http://www.w3.org/1999/xlink"><defs /><rect fill="white" height="107.8651548033362" width="104.09047911016233" x="0" y="0" /><path d="M25,25 m0.0,0.0 m20.525172044381453,4.071691108944755 l0.05878582577127253,0.42557765747590837 -0.24542419310146787,0.9677050488474006 l-0.8349046492915968,1.440191171721047 -3.0319253609325827,3.8468113775269095 l-3.519946614607619,3.1968677393743308 -4.689114094319346,3.6703147464235166 m2.9641467769706518,-12.44987631343811 l1.3231143853012421,1.262700006496561 2.425842461482802,3.0784067420377714 l2.7418486740838097,5.189907874620003 1.6881363159464549,5.765196891406405 l0.7498995831306998,6.021101519865005 0.06022219205959024,3.8167437891546876 l-0.23480228544830437,3.5193150005815497 -0.4977614223538325,3.1376999355849615 l-1.1156316275593998,3.8409405571624635 -1.497140963726467,2.7332576665979227 l-1.1013669644759947,0.9827162236973869 -1.1760256849465682,0.20178108700723274 l-1.2123655193494236,-0.7267860083097418 m3.8603979469809855,-24.60999836347196 l-0.03900056516523048,1.332040345781576 -1.5416098369748814,3.079532204214253 l-4.948179364415468,6.70793038025981 -3.6525489861915195,3.645511818692769 m18.6611292843406,-30.311526231620718 l2.1568337842992817,0.6887820559995541 18.478435852096474,-1.9638290860492325 l0.9126276522115238,0.18921681326475726 0.3622236657814819,0.385451304708688 l0.1738130981676484,0.5489662709836108 -0.03313835387297404,0.6496436734585643 l-2.14538260849238,6.488584856612635 m-18.87565719950535,1.6518959576586523 l19.32141383916364,-1.7725107747954485 m-19.36649105018554,-6.5018844853517015 l-0.05016652462600799,11.119753190383936 -0.4038747594150226,9.49184757120594 l-0.5551331402804697,6.363796416094376 -0.8224984648661848,4.700516582889729 l-0.9507694673221663,3.5632066521875085 -1.298573343206482,3.2788853154348683 l-1.68817282166082,2.88803511877188 m8.81520447299041,-32.45289913945984 l1.865671428984286,0.2206688832919564 12.745523735009408,-1.5493052350463712 l2.0185106895683393,-0.09450754779610383 1.028422401776039,0.20451733420082652 l0.5961198556842625,0.7955982294249705 0.0817383249009964,0.6090140944595677 l-1.6528099394555031,6.015605819704725 m-15.245481177647267,1.9355366943357 l15.80513640394445,-1.6273350143442913 m-15.81878789502221,-7.342070699010241 l0.45020401144721833,3.0246920609689196 -0.1314418542964612,7.385699462635347 l-0.3725084156447789,5.2674175295770365 -0.5914593012279373,4.64503424612265 l-0.8872806678754831,4.191291126736634 -0.8964572640116875,6.521905814931112 l-1.1237343232993957,5.980506855570363 -1.3490351691730396,4.357307308457814 l-1.3307324962110862,2.8292726740920338 m7.338447631484138,-25.707250480272602 l2.1072774644376215,0.21372713462002124 13.585746121072996,-1.5549967514560814 l1.7725614965760832,0.0742952448672915 m-10.925166719607345,2.6234714158560943 l0.053862460043238684,0.596266950365098 -0.33222744280640465,0.9420058670592597 l-2.4449358800648016,3.5068491940694595 -2.5544057447827804,2.8986880239435817 l-0.32804389695478514,0.6525602341628153 0.25457063225958687,0.39274461060266086 l0.9492591627386043,-0.1497613031878071 13.60034615795553,-3.404841609751635 m-2.8242832382316045,-3.3872879212250186 l1.5036194309132562,1.467025129874272 1.6388053073697118,2.1968501346571374 l1.3120014995995644,2.2721010417681864 0.5547974844277191,1.4771215267550524 m-19.532722873721323,7.3733869963822745 l1.9263780636680155,0.18945957325038762 14.432190982696248,-1.500706377205307 l3.4981902765814454,0.09200108759853019 m-10.626977044705827,-5.925668800950817 l0.533401025292579,0.8983466252186314 0.16729510172295953,0.8271297298502537 l-0.049344038457105235,13.356547136988148 m-12.820344998878873,0.7422434830601491 l2.244967017887629,0.17878499749132737 18.159939813697513,-1.3438860569968483 l4.191879010219524,-0.12403370327796552 1.7601545114121637,0.19023261391992927 " fill="none" stroke="black" stroke-width="1" /></svg>