<?xml version="1.0" encoding="utf-8" ?>
<svg baseProfile="full" height="107.76612319015021" version="1.1" width="107.54352559117814" xmlns="http://www.w3.org/2000/svg" xmlns:ev="http://www.w3.org/2001/xml-events" xmlns:xlink="http://www.w3.org/1999/xlink"><defs /><rect fill="white" height="107.76612319015021" width="107.54352559117814" x="0" y="0" /><path d="M25,25 m0.0,0.0 m6.937669564520237,23.508602430300424 l0.36808962098851716,0.14065465587594417 2.6465943936129688,0.001606658888281343 l11.164246833849855,-2.086757578434044 2.1248149893945136,-0.030252586198302945 m-8.395978546640665,-13.675817866545842 l0.5384563897448736,0.8645414042175061 0.22603385963045014,1.681765589878933 l-0.02126851007745005,31.31467266201728 m-9.040736699800599,4.401063431089292 l0.7186896706293051,0.4552730490102054 1.1413393118371817,-0.2566513981316577 l13.352659243965798,-7.8926023254065445 m5.555440878510037,-29.219721223374332 l1.5439223359123593,0.3910529553441783 1.893398875206183,-0.04104950346035981 l18.749485749905897,-2.3511528421966448 2.989653457911364,0.5352691985096706 l0.4448570410472262,1.051607871548757 -1.9356022998211004,8.510073050015533 m-20.743362462443216,3.1236836062176363 l21.486685926279673,-2.39557483091416 m-22.049450495699265,-8.759797616529923 l0.5261829571373017,0.6742822293993506 0.2692753387132747,1.0542944352139876 l-0.2244028744710573,8.977558945127857 -0.8308328881453583,7.860951252961403 l-1.5677570739574924,8.016365815217114 -1.7110565109942046,5.868439057156147 l-1.8041486594324196,4.389243349148395 -2.7644423651903725,4.872337243369653 l-2.5763302842487557,3.5024057144805147 m23.552735255914012,-28.453873013897265 l0.8293315370970239,2.069411370387314 0.09678886979772633,26.030334371367097 m-9.1821440362155,-21.67424446816652 l0.3608381333364358,0.5294686438073959 0.1596186969954217,1.224527749975492 l-1.245204973539153,5.951748003911417 0.2999173931883233,0.7146770995706619 l11.832073447295329,-1.5629957570873658 8.793336895342476,-0.6416646910507663 m1.3362671715955379,-9.175133899608317 l0.36835244310696746,1.7221848163809719 -1.1928066341573291,9.013751581021308 m-21.413583895097766,8.813453911012136 l0.12621599707175626,1.973314007275946 -1.50907688336394,5.670842197277867 l0.146008659028948,0.805611549389791 0.4878653589657653,0.2683428847868047 l11.45792049733542,-2.3776009449823152 12.248346664825418,-1.3400807468585143 m0.2838246947661813,-8.741501063130052 l0.6947735300140042,1.613533664841325 -0.03686218759808778,9.747971668139487 " fill="none" stroke="black" stroke-width="1" /></svg>