<?xml version="1.0" encoding="utf-8" ?>
<svg baseProfile="full" height="104.33057501039394" version="1.1" width="111.2465526395219" xmlns="http://www.w3.org/2000/svg" xmlns:ev="http://www.w3.org/2001/xml-events" xmlns:xlink="http://www.w3.org/1999/xlink"><defs /><rect fill="white" height="104.33057501039394" width="111.2465526395219" x="0" y="0" /><path d="M25,25 m0.0,0.0 m20.12965631324762,5.287215511936967 l0.11558761280814973,0.47743530154564817 0.0971939110849152,1.965398425580597 l-1.7485937614144733,10.40430542191053 -1.511074775163978,7.123495256904664 l-1.5888734053157194,6.171343846553336 0.5339642850874893,0.6112525639581222 l3.991981181132465,1.632867169800289 3.2678219708907963,2.059279110357905 l2.763332463193464,2.5426607102770253 2.1561377464072122,2.9551257012922774 m-0.6165194845029975,-26.962938186126745 l0.3159386612417682,1.3415515405174165 -0.07447825054262411,1.2155570499129005 l-1.3087026095609493,5.753887227084024 -1.6799574772353498,5.336812077219941 l-2.421252030062503,5.499939442552188 -2.533544531999653,4.238288207561498 l-2.2486781158685587,3.0913788944361165 -3.6454258964215325,4.009095510720932 l-3.1910800252573455,2.6850585623796985 m-2.072500293735011,-25.632719827038905 l0.8561721579908995,0.653672296337349 1.4356361819646792,-0.003898854836287466 l18.43149515184,-4.259816424816127 m13.645035146816179,-17.78132468028894 l0.6587449266619774,0.9552135612454358 0.12903390110967175,1.0328850719394689 l-0.013201927721713537,27.693891063137368 -0.112207666030631,1.986052335336133 l-0.4090665000339089,0.8337949431041948 -0.6348686465472831,-0.007905215480814926 l-1.872206308688627,-1.8327316210871503 m-4.115694754426953,-13.872515660493265 l0.032011226526545346,0.80366848402702 -0.3588640341557012,1.2713255453816514 l-2.01710362503138,4.1103329967082205 -3.0074990626586833,4.360175130423165 l-2.71164608861684,3.018118335990364 m24.009880111584387,-14.72790908083078 l2.494260641749692,1.6955852398879712 2.948890097876459,2.775074234668725 l1.97823921946587,2.4532871730443997 1.1485790018340838,2.183215822835065 m-7.004200942127442,-0.7760754402950982 l-0.30217036079346343,2.682426235598611 -1.9587231120097477,4.421947976717339 l-3.0256845688528027,4.863410263265274 -3.0896846695885873,4.050448523356652 l-3.5326489469295286,4.0002303346207 -3.8799345362616555,3.7445144380165027 l-4.097007821974443,3.345629566598034 -4.308821322099848,2.851562896946325 " fill="none" stroke="black" stroke-width="1" /></svg>