<?xml version="1.0" encoding="utf-8" ?>
<svg baseProfile="full" height="109.31617502451866" version="1.1" width="100.46695329033543" xmlns="http://www.w3.org/2000/svg" xmlns:ev="http://www.w3.org/2001/xml-events" xmlns:xlink="http://www.w3.org/1999/xlink"><defs /><rect fill="white" height="109.31617502451866" width="100.46695329033543" x="0" y="0" /><path d="M25,25 m0.0,0.0 m24.59576785307929,2.0089133201693303 l0.041344806582754856,0.4340668965989347 -0.23471593357612597,1.1191516193230893 l-1.0762767060909526,1.8473492095624182 -3.5501915392997265,4.351422396713636 l-4.087558227906558,3.839752223070051 -4.856552051586154,3.37716036552197 m13.982253659251631,-10.86597496584002 l6.912209357478889,-0.27349795503226515 7.274677261184156,-1.447421714339351 l0.6874653255274027,1.4488853620274662 -0.5794178344191163,2.0123048272707877 l-5.743087268779481,11.06552624319939 m-17.561245993541334,1.2601960000118284 l0.7671102918635669,0.4169281021033406 0.3767301317213257,0.7138944609799899 l2.1597391306473117,0.49533062308981496 24.550538095910728,-2.9219611866165662 l0.8966954376201539,0.32591270562757274 0.3800409859790063,1.0168964473875526 l-2.2182673823548167,10.954043561815636 m-13.437007091825343,-10.175373137225984 l0.593506460337734,0.8737527780858703 0.28124308954187477,1.0128633169101315 l-0.8642869864727063,7.66750176511942 m-12.917012405253374,1.9689980824479625 l26.131158661828763,-2.731236975898166 m-27.741380920696848,-7.856538349325784 l0.48538028227418206,0.6903302967171284 0.22705094583575813,1.0887511562387742 l0.060903182223775096,20.671897239120938 0.6621894552414355,4.518207455803005 l0.8670794272198763,1.5329727381473586 0.93130940241731,1.8382397341832302 l1.0339780552022009,2.2537015639399027 1.1663240376510107,1.51317518324687 l2.9945084825869563,2.14667557084932 4.577376270535054,0.9321624539115353 l10.428488622934772,0.19121560960254066 7.362295561761865,-0.5977738493580668 l2.3332843003406842,-0.7477798610261867 1.5729592346777155,-1.2364114995227111 l0.7725226344863573,-1.7629367559081435 0.2278231881943916,-3.0279755617900928 " fill="none" stroke="black" stroke-width="1" /></svg>