<?xml version="1.0" encoding="utf-8" ?>
<svg baseProfile="full" height="107.60337080806494" version="1.1" width="109.4925142545253" xmlns="http://www.w3.org/2000/svg" xmlns:ev="http://www.w3.org/2001/xml-events" xmlns:xlink="http://www.w3.org/1999/xlink"><defs /><rect fill="white" height="107.60337080806494" width="109.4925142545253" x="0" y="0" /><path d="M25,25 m0.0,0.0 m17.70578622817993,4.706892371177673 l0.214203093200922,0.6220234930515289 0.0971795804798603,2.2796401381492615 l-3.3271023631095886,13.0231773853302 -2.595473825931549,8.65936815738678 l-3.2017335295677185,8.381924033164978 -0.06124724633991718,0.7818876206874847 l0.33475030213594437,0.613863430917263 0.8671979606151581,0.3603433817625046 l3.5733896493911743,0.887041911482811 3.383110761642456,1.337888389825821 l5.759559273719788,3.4368929266929626 4.655718207359314,3.922049403190613 l2.2529342770576477,2.9046308994293213 1.8586522340774536,3.0611568689346313 m-4.747704863548279,-36.011340618133545 l0.36298613995313644,2.578597068786621 -1.8603214621543884,7.393808364868164 l-2.36977219581604,6.377502679824829 -3.372724950313568,6.63046658039093 l-3.525170683860779,5.150517821311951 -3.179478645324707,3.60528826713562 l-5.016988515853882,4.25809770822525 -4.38940167427063,2.641652524471283 m-3.4183472394943237,-30.409047603607178 l0.9020639210939407,0.9237623959779739 1.9708538055419922,0.10406468063592911 l27.890911102294922,-5.084633827209473 m7.0266032218933105,-2.1038267016410828 l1.036149486899376,1.834171861410141 0.28291497379541397,2.6527801156044006 l0.959758460521698,25.43508768081665 m-0.4710613563656807,-28.62865924835205 l17.136988639831543,-1.9370542466640472 1.3816562294960022,0.15643315389752388 l1.0726845264434814,0.8417902886867523 0.30299073085188866,1.6297979652881622 l-2.780374586582184,24.648747444152832 m-15.536863803863525,1.9747485220432281 l17.479714155197144,-1.2533430755138397 " fill="none" stroke="black" stroke-width="1" /></svg>