<?xml version="1.0" encoding="utf-8" ?>
<svg baseProfile="full" height="123.77108513548728" version="1.1" width="102.085365201765" xmlns="http://www.w3.org/2000/svg" xmlns:ev="http://www.w3.org/2001/xml-events" xmlns:xlink="http://www.w3.org/1999/xlink"><defs /><rect fill="white" height="123.77108513548728" width="102.085365201765" x="0" y="0" /><path d="M25,25 m0.0,0.0 m15.864270708511015,17.57364229117976 l0.4683281540311605,0.11282746220274248 3.216201252244677,0.0789917078969673 l23.2762296634787,-2.8324028804136097 2.494655073516731,0.17257314307376972 l0.9045057855482864,0.372887735422628 m-29.492451259961626,16.815187863020245 l2.936042847891874,0.1987370244336015 21.306225763528754,-2.686448746933988 l1.939992953616283,-0.10783239974435992 1.8679985892800015,0.21770071182163767 m-33.4959951958367,17.50022899248354 l2.1446804585198964,0.21706918692155247 2.1730535413310643,-0.08124841965681247 l31.408543696437878,-3.210283412100057 3.002109962586271,-0.0765101128154858 l2.0709732070407454,0.34147743494473953 m-21.625135831429702,-31.060316119470087 l0.7212608048150561,1.367867017284376 0.2648775323130107,1.2512606150346854 l0.029844744293710777,53.35498161065711 -0.08030653457732372,2.436218846667212 l-0.36456631085468494,1.3715525607206593 -0.5248956455318619,0.442923022856432 l-1.3288460791791339,-0.755758531971476 -1.769655635247624,-2.4946650248826483 m3.5329540002851547,-25.858357900756694 l-3.3938185379606627,3.0038838576546456 -3.0902842631963825,2.975466704506123 l-15.753628398274374,5.774793873969038 -7.585094382886118,1.534333143142751 m32.92584566166161,-16.226858667928756 l5.246058920992189,13.476782464594269 2.7259055935309777,5.04682267775036 l2.6966186339079083,4.14973941061025 2.4847623157708263,2.9333345673709466 l1.8194195840481988,2.029286988328837 " fill="none" stroke="black" stroke-width="1" /></svg>