<?xml version="1.0" encoding="utf-8" ?>
<svg baseProfile="full" height="106.87866431663227" version="1.1" width="95.51345687694581" xmlns="http://www.w3.org/2000/svg" xmlns:ev="http://www.w3.org/2001/xml-events" xmlns:xlink="http://www.w3.org/1999/xlink"><defs /><rect fill="white" height="106.87866431663227" width="95.51345687694581" x="0" y="0" /><path d="M25,25 m0.0,0.0 m35.4925132400197,1.8190873389912157 l0.01482593797300193,0.45210635554537065 -0.5135998576792791,0.8670769319274058 l-2.1329237143170836,1.4393158777854138 -3.574126818462613,2.7316602713361817 l-3.6137927911816496,2.166114978678018 -5.942374481652696,2.760535947724972 l-8.038157722207961,2.9155928255748114 m0.3802133335284967,0.9955178432607383 l1.0253957623038126,1.318273300246024 1.4897203171665936,2.2163520635818457 l1.4299854842934563,3.586804138919566 m20.936912067384256,-12.122489342366986 l-0.06631278396996663,1.1910414175954065 -1.8441696578690716,4.33395918057245 l-1.9929343160879336,3.448490459953583 -2.355950998336186,3.2963098883402324 m-26.185286071110525,4.1435548979638295 l1.8323034326167402,0.3556569194019156 2.296682229619101,-0.020890573809212103 l28.434699126717515,-3.6115978407943836 4.135451364024494,-0.34012101288363306 l3.758307107763932,0.055494931058909694 m-20.91759913731153,-12.977187170736807 l0.7472426710126271,0.9392983086599386 0.3903279253929718,1.779701326390345 l-0.12398579673934658,43.13900505371511 m-1.1023114127170979,-30.384683991423156 l-1.8464424919551925,3.330888347194736 -2.1515698383896327,3.5035342545510764 l-5.248404581225261,7.072607691091497 -5.091758167462375,5.363087302445992 l-3.0003383294099164,2.4784774238592413 -2.202351292205326,1.5301853595248198 m21.44011540301312,-22.662934449679028 l16.26390658091174,19.039120164142638 1.5933647336552694,1.5146471244623694 l1.7958804198396363,0.8593843881182481 " fill="none" stroke="black" stroke-width="1" /></svg>