<?xml version="1.0" encoding="utf-8" ?>
<svg baseProfile="full" height="95.10670112786104" version="1.1" width="95.42555018429115" xmlns="http://www.w3.org/2000/svg" xmlns:ev="http://www.w3.org/2001/xml-events" xmlns:xlink="http://www.w3.org/1999/xlink"><defs /><rect fill="white" height="95.10670112786104" width="95.42555018429115" x="0" y="0" /><path d="M25,25 m0.0,0.0 m14.57995459073027,6.722614160054432 l0.47667828112538646,0.15194163939835592 3.129159567481906,0.07883947521575528 l21.97196705980953,-2.4845819775796847 3.0593144255420115,-0.17382127497536862 l2.208476259602056,0.2719278083768682 m-23.53526999805157,3.709185226337668 l0.38180932932795103,1.8286132832872373 -0.425934234408164,3.596832558325324 l-0.9018846819403861,6.360022572805093 -1.2029213657414293,5.695907124163209 l-1.1764789776725382,4.169088213480257 -1.4821055682119166,4.189790881733519 l-1.8470327754772242,4.022826271412377 -1.6130659237133167,2.727585333275282 m9.846667145898605,-17.147541127606225 l1.9041096309926089,-0.25170067976042154 9.621590385128357,-1.8119131477046684 l0.8136171487047241,0.7347760172706705 0.1612734887198481,1.1914918248483763 l-1.4890099423356673,0.7613908220991074 -5.194556847497056,2.7300668571127167 l-3.662781643210077,3.9261937699113747 -2.7807862619793426,3.841603079073353 l-2.4930282596931743,3.3258075748713694 -2.6108698853894756,3.4616076859944322 l-5.9556483877762965,3.4781471564406283 m6.530078630616481,-18.678782138369627 l1.4216227182929668,0.6100841214174658 2.3183495277519963,1.687560990801117 l14.22731479615071,11.911373185227308 4.2180360200739555,2.628875675470047 l2.7546468431282336,1.5423855008194691 " fill="none" stroke="black" stroke-width="1" /></svg>