<?xml version="1.0" encoding="utf-8" ?>
<svg baseProfile="full" height="109.14652570357848" version="1.1" width="98.81030041925553" xmlns="http://www.w3.org/2000/svg" xmlns:ev="http://www.w3.org/2001/xml-events" xmlns:xlink="http://www.w3.org/1999/xlink"><defs /><rect fill="white" height="109.14652570357848" width="98.81030041925553" x="0" y="0" /><path d="M31.475359472457487,25 m0.0,0.0 m10.677622144151092,4.35782012191743 l0.48034400397997695,0.13493804327633882 2.638887468706686,0.060628770410981615 l23.044938995337787,-2.77608568436453 3.247285806417768,0.18201579611286453 l2.245862528204733,0.3911523076555468 m-24.04607065188811,14.942783480699273 l19.136319277420778,0.22282366918666863 2.4756005949712376,0.22607115084265328 m-28.054735243246956,-11.352271400019793 l0.772909215438162,1.2908784996028921 0.24458990113084073,1.2834953158749602 l-0.19407760083795078,37.652897186265406 m16.491102845110497,-23.65059371501267 l0.5479517682100965,0.8275161583457306 0.22538226147324567,1.0963095955941786 l-0.04936404598962429,19.003818798887778 m-31.395653597804095,-24.906810048018468 l1.966702221272057,1.0235539669860045 2.6188845725152996,2.0909331912537557 l1.4972978646827753,1.534972433492713 0.8569615813008692,1.4951894231973277 m-11.682412206829014,13.969175330516483 l1.3310024476627504,0.317648268075994 1.572149282562903,-0.22776968855159554 l9.92367231264367,-2.095308332768666 1.5726251939587432,0.4898532913835965 l0.027927820982293634,1.8540947466035003 -4.8736989596099765,6.498457234128041 l-1.5407993726935947,1.8134666347512045 -1.3114800322678493,1.773975567593706 l-3.004150575866485,3.916261819325207 -3.918937293558105,4.386800098432767 m39.69723702753303,1.3178336719012034 " fill="none" stroke="black" stroke-width="1" /></svg>