<?xml version="1.0" encoding="utf-8" ?>
<svg baseProfile="full" height="102.00431284276323" version="1.1" width="109.55931533876479" xmlns="http://www.w3.org/2000/svg" xmlns:ev="http://www.w3.org/2001/xml-events" xmlns:xlink="http://www.w3.org/1999/xlink"><defs /><rect fill="white" height="102.00431284276323" width="109.55931533876479" x="0" y="0" /><path d="M25,25 m0.0,0.0 m14.62952977437911,18.201057546818895 l0.16085462634529984,0.4136037686488485 0.2878282104136971,1.0105068722963815 l-0.24868536245315062,7.872834804898774 -0.39776094814352975,5.361888090556702 l-0.7517233908982186,4.461005352891183 -1.0603473024658763,3.397600647176041 l-1.2581690009218918,2.519242462297626 -2.054652162362486,2.860310671127038 l-2.1161014354472667,2.1067545458808934 m8.287889633846172,-30.42081064781044 l2.6764735808059883,0.11450656893026663 23.80699957771652,-2.0855613806590534 l2.390730322867295,-0.09180193733650632 2.0826015835935983,0.2005892135606334 m-27.10141532229195,7.656374564129638 l2.2156729769122903,0.13446706681661286 7.580773914408792,-1.0348337959059468 l3.0151727548779093,-0.07685002938844297 m-7.105442680965879,3.535473880989267 l0.2196927039170178,1.4147274260309224 -0.6649466075055335,1.8909516265211956 l-4.155683176724811,3.4499014933621632 -0.29870694743188836,1.8774954983971877 m10.745031047333585,-8.714793782800326 l1.384378676492194,0.6707490003848074 1.5125432632282911,1.1092534940485865 l1.4016001769714594,1.4542979721930578 0.8343066448252753,1.2353773509840167 m0.09683251360171403,-16.487892490347267 l0.6644915494334278,0.5128320715748077 0.35499423808187863,0.6398043225314429 l1.2522384059333058,5.296121602423743 1.8532114870918885,4.329742641045893 l2.2687777563900884,3.5896204096720394 2.4582811534743065,2.8815081002408616 l2.1365349119820634,1.8914489417203968 2.336545693142216,1.6100317232385892 l2.614417640788878,1.3384352861359263 3.3402259644643144,0.9934858956837052 l0.5763535846691729,-0.06713751738655091 0.2791800927960273,-0.2998458230998584 l-0.06080841351210259,-2.3957207648194925 m-6.7028449636278316,-12.869001370133015 l-0.09468277816241422,1.246030738505327 -0.8320614902034168,1.6108374000740358 l-1.4239767610348646,2.0277868107981227 -1.9004375314463764,2.2300159953924505 l-1.9114316153118762,1.914743679438916 -2.218405840090003,1.9327441072945533 l-2.524974201639883,1.9313515231895806 -1.9846676314825031,1.3058952830301673 m7.356858227264927,-23.904728526666734 l3.3983296486866137,1.5889651145794472 1.921497752710003,1.448712952178927 m-30.61598487860528,29.437350242561894 l-0.3117252969420674,1.4469243385859012 -0.9699148625327504,2.303840521567231 l-1.2400498829937516,2.1120331597837425 -1.1667695256395128,1.4674620452635634 m11.522707513129221,-8.78144462402282 l2.562185864532652,2.9684998844035397 2.9431919705812875,2.3735021708487194 l3.3812280888799533,1.7585144997105133 4.298307971213833,1.2059977311770238 l3.1840272720248324,0.4669649947311259 3.4394658868555315,0.30141572642831754 l4.448685029014283,0.12314570038841621 3.2211925908602934,-0.22380000158053973 l0.8401476073103333,-0.26298642769678776 0.3758601880344571,-0.3617186226422362 l-0.052080230987783735,-0.4505454444117864 -0.47278851683354867,-1.201927455110744 l-1.8449935965195992,-1.6001812438064051 m-14.683124560296205,-6.897422962532504 l1.074755175280456,1.4004819695531703 1.0560567654067226,0.7998789683183279 l0.4811915421263105,0.15685755225399753 0.4290601754344417,-0.09894195323542213 l0.6435624143302662,-0.49607332404182874 m12.14802499767294,-1.6145908088269703 l2.9384232358937754,1.647263598502578 2.6557478762121365,2.3449021401372403 " fill="none" stroke="black" stroke-width="1" /></svg>