<?xml version="1.0" encoding="utf-8" ?>
<svg baseProfile="full" height="103.42288364777632" version="1.1" width="102.17638018448147" xmlns="http://www.w3.org/2000/svg" xmlns:ev="http://www.w3.org/2001/xml-events" xmlns:xlink="http://www.w3.org/1999/xlink"><defs /><rect fill="white" height="103.42288364777632" width="102.17638018448147" x="0" y="0" /><path d="M25,25 m0.0,0.0 m13.750791428658573,16.46487665426718 l0.2860720225836412,0.3778568020315063 0.42264655653227884,1.629677830811757 l-0.003701425288817604,7.115757009764601 m-9.633896760501042,1.364547465812265 l2.7226984678954755,0.14378928276322228 13.694481385431354,-1.7179832756755382 l2.735800324563898,-0.10092606547737658 m-15.611338451943345,4.894920595751253 l1.8359495974418363,3.704151398438559 0.8602592301772575,3.6442412419898096 l0.4510731825916357,3.1369326340485 0.27845483912887026,3.081021105222136 m7.657870692524736,-17.025458227954864 l0.23961724944938367,1.5078170633149073 -0.3365339333903039,2.0483878632974997 l-1.7843953381415703,8.501878589879395 -1.71025196829268,7.026974975663995 m-9.565780219652513,4.377064059365154 l0.867029963237572,0.48807318972937946 1.3428047736542899,-0.12057621499176978 l15.400577985029466,-7.739330465029612 m11.742442206527762,-29.962003133760195 l-0.18476850957422686,1.2874985704525457 -1.1673262483570255,2.5990732514714145 l-2.8082869777079864,7.751548653021892 -3.3818509501582588,6.4148644509394055 l-3.468559275999666,0.9227497442766112 m12.209531926155451,-16.477170665572235 l4.114391282374961,0.5890729907950429 7.069630187307775,-1.1096716868339795 l1.1340400813680571,0.22680609094945994 0.3137357230113816,0.3782625898114131 l-0.07034501639364522,1.135201807692393 -5.076447103448538,4.188311634180066 l-3.6558630673009875,3.0623893361330428 m-8.340608185207962,0.7827424464275252 l0.5392550851718673,1.82849676895656 -0.5535667698152958,6.2214820164937095 l-0.8433897517071968,4.778077440329557 -1.2769767791645388,4.599221323538847 l-1.4533341034307639,3.4615254827092548 -1.873620732924703,3.2013116515968196 l-2.3392088569164384,2.8484599569889606 -2.0494508965028535,1.8909394141562554 m15.961485941010391,-21.44793419098312 l2.5249252402299613,5.89310243507142 7.634606625676438,6.928283479591251 l2.0281587585981935,1.191941474900381 1.5475507499693357,0.6205408794369057 " fill="none" stroke="black" stroke-width="1" /></svg>