<?xml version="1.0" encoding="utf-8" ?>
<svg baseProfile="full" height="102.04880742858377" version="1.1" width="106.03106005251405" xmlns="http://www.w3.org/2000/svg" xmlns:ev="http://www.w3.org/2001/xml-events" xmlns:xlink="http://www.w3.org/1999/xlink"><defs /><rect fill="white" height="102.04880742858377" width="106.03106005251405" x="0" y="0" /><path d="M25,25 m0.0,0.0 m18.699172852947793,5.42256524501236 l0.13685414853437303,0.4527715696307017 -0.058887493749340804,1.8108077672257623 l-2.01560639576933,9.795715125525383 -1.3365597427390774,5.822291878813633 l-1.545261652455338,6.433111298268585 3.7501475718778203,1.7702717234706957 l3.12541661491748,2.0335822020177448 2.684166798763211,2.3461061382839086 l2.0981406130759392,2.679965264900142 m-0.6519053730152188,-24.691470264954962 l0.3009945610482332,1.3511623868288873 -0.08334294493473962,1.1849831603537169 l-1.2467505979609694,5.455608754610575 -1.5562517820131574,4.924712139119534 l-2.2714698668891655,5.046279120022861 -2.380268572200649,3.899031574786867 l-2.1051999735411635,2.8617609702249878 -3.5088929639145863,3.7922591008664024 l-3.0303015983619797,2.5518399029436387 m-2.0104664591690304,-24.158938621605632 l0.8151949390992776,0.6252691643081509 1.3627851963343651,0.013139461950299526 l17.347488868946723,-3.9884824819169964 m12.125588696479197,-16.72916289389446 l0.6878923574673249,0.8932631186728348 0.1542518328907005,0.9498162461153372 l-0.02669728334207192,27.042543159897384 -0.10104434157141491,1.915361376381078 l-0.38942037007303515,0.8130484126539708 -0.6021883127528419,0.0904105761546132 l-1.9386370652100207,-1.5629737492122757 m-3.7667745672951147,-13.606996841286755 l0.026861099770055456,0.7446376854008258 -0.3237137243488298,1.216019961484892 l-1.8488743829406467,3.875725646577404 -2.7484987952900357,4.04869255605614 l-2.535064217121007,2.8491492229349404 m22.776563453319742,-14.111999019378496 l2.322930295978996,1.551967146785156 2.7868398199061155,2.5954338518757103 l1.8246779541996987,2.250388752896957 1.0871708536157652,2.009568596982769 m-6.457420268622376,-0.820809145926503 l-0.28389116540367093,2.5697189607836206 -1.838227469577538,4.271977318184451 l-2.8380548707257978,4.615586687920052 -2.9342060796589724,3.847942144679038 l-3.3528058901097006,3.7886749735461054 -3.686933683945699,3.5683493357618588 l-3.925668729919441,3.2248780526733736 -4.098484775767064,2.713252713176502 " fill="none" stroke="black" stroke-width="1" /></svg>