<?xml version="1.0" encoding="utf-8" ?>
<svg baseProfile="full" height="108.72419401071966" version="1.1" width="109.49251419398934" xmlns="http://www.w3.org/2000/svg" xmlns:ev="http://www.w3.org/2001/xml-events" xmlns:xlink="http://www.w3.org/1999/xlink"><defs /><rect fill="white" height="108.72419401071966" width="109.49251419398934" x="0" y="0" /><path d="M25.000000316649675,25 m0.0,0.0 m13.104524612426758,5.5562275648117065 l0.33299241214990616,0.6009841710329056 0.3214629739522934,2.842237651348114 l-1.9723084568977356,11.489146947860718 -2.3026226460933685,9.53876256942749 l-2.6603081822395325,7.9304492473602295 0.5273590609431267,1.047273874282837 l2.897252142429352,0.7288976013660431 2.642151415348053,1.0770507901906967 l4.5972564816474915,3.011275827884674 3.7141183018684387,3.7598729133605957 l2.790309488773346,4.181469976902008 m-1.1228054761886597,-32.35074043273926 l-0.1263984479010105,4.216693937778473 -1.252806931734085,5.380169749259949 l-1.9663621485233307,5.799950957298279 -2.8041085600852966,5.902354121208191 l-2.929389178752899,4.581278562545776 -3.60808402299881,4.281331300735474 l-4.349600076675415,3.8172483444213867 -3.787471354007721,2.4613116681575775 m-2.045161724090576,-29.21327829360962 l1.5661902725696564,0.8045198768377304 2.0840169489383698,-0.11504488997161388 l22.565412521362305,-5.702041983604431 m18.150811195373535,-19.928706884384155 l0.046463930048048496,2.1337662637233734 -0.7899945974349976,2.1501070261001587 l-6.386047005653381,12.340692281723022 -5.817744731903076,9.211217761039734 l-0.797438770532608,1.4641499519348145 -0.09604852646589279,1.0291173309087753 l0.48950254917144775,0.608609989285469 0.9586695581674576,0.20262788981199265 l1.3123606145381927,-0.18846573308110237 22.250940799713135,-6.283916234970093 m-5.214582085609436,-6.373700499534607 l2.4253614246845245,2.234172224998474 3.0684688687324524,3.838672935962677 l2.5279465317726135,4.125910699367523 1.1482246965169907,2.91268527507782 m-27.981531620025635,7.994723320007324 l0.9074679762125015,0.9314346313476562 0.4610873758792877,1.3218019902706146 l2.342476546764374,17.371891736984253 m-1.8737633526325226,-18.348355293273926 l17.14166522026062,-3.0083706974983215 5.075865387916565,-0.604570098221302 l1.590157002210617,0.25505514815449715 0.879325196146965,0.945596769452095 l-0.004266806063242257,1.825103610754013 -3.2498538494110107,14.323395490646362 m-18.720202445983887,2.483825832605362 l20.125162601470947,-1.703045666217804 " fill="none" stroke="black" stroke-width="1" /></svg>