<?xml version="1.0" encoding="utf-8" ?>
<svg baseProfile="full" height="123.6244584802903" version="1.1" width="107.04748984055266" xmlns="http://www.w3.org/2000/svg" xmlns:ev="http://www.w3.org/2001/xml-events" xmlns:xlink="http://www.w3.org/1999/xlink"><defs /><rect fill="white" height="123.6244584802903" width="107.04748984055266" x="0" y="0" /><path d="M25,25 m0.0,0.0 m19.805354290413852,21.51283225284989 l0.03959402390540455,0.4188319510536835 -0.5356455879812829,3.2029693277224336 l-1.5854274128881856,4.408079019099987 -1.908090195182002,3.8345515117494426 l-2.3598246161775167,3.260316466705945 m5.8474043610314235,-6.974797248668339 l3.506370879141264,-0.4264755465915961 6.281505361465257,-1.7546425755145283 l1.873076495214714,0.03967188363325281 m-5.704509124725351,-12.547186497465868 l0.6732935882794013,0.7805092391744636 0.35579502905837257,1.51515052391752 l-0.17570592000536456,43.3491537002762 -0.22540376894274883,1.7393884921189735 l-0.4302358775384558,0.8631835860552347 -0.5822693656225945,0.10487040070671633 l-0.6579424021630165,-0.48368859208956233 -1.661472529295162,-2.1538643862010085 m-7.971618879463612,-12.783773194733676 l1.509751123132306,0.3204829800501696 0.8591868488427321,-0.5643623082247817 l12.047177926335772,-11.064065369447555 m12.070293567251808,-16.317664845795452 l-0.24102657580912018,2.9768869723039684 -2.0145261289152003,5.554517993539588 l-2.5091753911283474,5.297405334710121 -3.0387958367112313,4.933015785600756 m5.473143182287212,-7.036499894178381 l1.067903008700249,0.17761076716447072 1.679446344596538,-0.20371719421687182 l13.481865366050569,-2.6697344034774892 2.077998057394973,-0.10074867585037188 m-9.62867593511953,16.416835085311316 l0.3272632226859797,0.4552510048318323 0.13909073141659767,1.2808867712749357 l-3.16864877598821,4.399077103069366 -4.962722327097122,3.257401587090799 l-5.524031339442349,2.3526025948813554 m-2.320387049227751,-17.710363853264248 l0.5345513110722442,0.8963559717934307 0.24032023663503876,1.3153683014174333 l-0.008456622195268382,26.441665347214624 0.30633792200395094,2.038787329520531 l0.640602167478613,1.5933699768518927 1.4303680508557994,1.0803115822216767 l2.560126271638346,0.5987022220979907 6.815261201360532,-0.021676311408416565 l3.7534834601473936,-0.5467581799049048 1.5239917972738215,-0.7449577447910847 l0.9484792476557963,-1.154571313046231 0.49766810533271005,-1.6687050172513662 l0.13785779449404495,-2.617973133148017 " fill="none" stroke="black" stroke-width="1" /></svg>