<?xml version="1.0" encoding="utf-8" ?>
<svg baseProfile="full" height="110.84376322153622" version="1.1" width="103.42838705860213" xmlns="http://www.w3.org/2000/svg" xmlns:ev="http://www.w3.org/2001/xml-events" xmlns:xlink="http://www.w3.org/1999/xlink"><defs /><rect fill="white" height="110.84376322153622" width="103.42838705860213" x="0" y="0" /><path d="M25,25 m0.0,0.0 m6.8287062515626795,16.95538718779123 l0.445312038610197,0.38038197772917043 0.7570060826083889,2.0697962069421947 l1.7793208570546903,12.685832291171536 m-1.458306173336519,-14.686876564351913 l28.398738822050728,-2.550223808840544 3.0751105160849765,0.17019518400483707 l0.740181044187963,0.7366981004535219 0.033925661832710986,1.5798206898963703 l-2.8359182416745257,11.572182976097825 m-33.56005594398325,3.0592896864633334 l33.24543372934185,-2.350341493786309 3.8935196495828874,0.1508928934611497 m-18.36302092386798,-25.520410184667536 l0.8468552693924306,1.530522336278654 0.2595993268324437,1.6739601402272342 l-0.016125528086191117,20.580683834427358 -0.4956942384062642,6.555536879914268 l-0.5662296927013865,3.972372138686294 -0.7962701395036049,3.6173428899132696 l-1.0550685820724304,2.8729438026787766 -1.5071358663162073,2.5946275599953066 l-2.014967529997773,4.040657238777372 -7.125331024993239,5.769619840381869 l-3.339244445590807,1.3197730495355626 -6.743262299560553,2.0630983683553903 m26.37340007806268,-21.20155104124735 l10.611497401751235,9.006749556836132 7.32987991105801,5.568077160413034 l4.745177841635622,3.1087933551072733 3.9413532070433734,1.7326605987247896 " fill="none" stroke="black" stroke-width="1" /></svg>