<?xml version="1.0" encoding="utf-8" ?>
<svg baseProfile="full" height="105.11813641083253" version="1.1" width="98.1600438243874" xmlns="http://www.w3.org/2000/svg" xmlns:ev="http://www.w3.org/2001/xml-events" xmlns:xlink="http://www.w3.org/1999/xlink"><defs /><rect fill="white" height="105.11813641083253" width="98.1600438243874" x="0" y="0" /><path d="M25,25 m0.0,0.0 m18.775815092776682,4.744014841660419 l0.0606173478141893,0.5575895830400854 -0.05122198008918431,1.1246450628970859 l-0.6077754447547588,2.412644436665487 -2.0806030694350652,5.5849943121832455 l-2.2294709628014866,5.056748963321188 -2.667872194637436,4.730255449800815 m6.47563691259011,-9.840541245007577 l3.2447116373995786,-0.3093158593951089 5.776332385273736,-2.642724501498128 l1.6693981995547158,-0.030404682227327604 m-17.257624220376925,19.873858885594984 l2.7264221981513406,0.21924961105271484 13.026990058251679,-2.6982804401658087 l2.229005035821144,-0.007620953461568967 m-7.2951172254791,-11.917387813313574 l0.2784585986030326,1.5806297424483244 0.029332853138450566,3.3549224399244006 l-0.5288281446213932,8.050912113771107 -1.036230565811187,5.783073683586604 l-1.385038898866534,4.955079458323173 -1.7312129292089145,4.522685895642457 l-2.044919518486059,3.9115417535798485 -2.469149120833777,3.3473130744977446 l-2.86080422063781,2.7542525979119534 m12.003527538721816,-18.25265618274411 l2.0765579275567725,2.1946013612705677 2.2105218418372057,3.050640921511326 l1.7418421240936022,3.1287797602151284 1.1200176517221603,2.7174790039389674 m2.723938141222327,-31.141673651909613 l0.8307297734505698,1.683664372284907 0.32938632446092775,2.2791049302765414 l1.489099477686925,17.884330586560964 m-1.5404006920755953,-20.877601125116033 l13.14387431765439,-2.430485899085597 1.118763428766178,0.11428526260352714 l0.4747866137468797,0.3875706475049049 0.39054753220820393,1.4150361277103507 l-0.06150328662124724,1.046567664875815 -1.9560428220854724,16.12315615859516 m-11.615271016027183,2.9293086211781594 l12.59166953329451,-2.0828739625055075 " fill="none" stroke="black" stroke-width="1" /></svg>