<?xml version="1.0" encoding="utf-8" ?>
<svg baseProfile="full" height="88.83834405055245" version="1.1" width="99.07594976581213" xmlns="http://www.w3.org/2000/svg" xmlns:ev="http://www.w3.org/2001/xml-events" xmlns:xlink="http://www.w3.org/1999/xlink"><defs /><rect fill="white" height="88.83834405055245" width="99.07594976581213" x="0" y="0" /><path d="M25,25 m0.0,0.0 m10.060115078076084,8.287350055764568 l0.4685084779464059,0.13706139114400745 1.5745803562348273,0.15003215602017497 l2.0241090658420213,-0.204925572012423 22.971140726946906,-3.1894716825080076 l2.066467921727866,-0.05310000667991448 2.0055519619245916,0.231248283737497 m-34.926196692155244,18.886655783651623 l3.0910323881429624,0.24955183972246325 30.44751915611727,-2.9496371876564917 l2.7803543222592606,-0.03442506570411961 2.538728769644666,0.4212225249505503 m-21.35323209905401,-14.06622918903356 l0.4962452809451119,1.4616490668103443 0.20725222872982216,1.9442967100781394 l-0.15906246420288436,3.777389078019439 -0.6207647503738412,5.456002194818305 l-3.6511760382326495,6.442752393530234 -3.424933855404127,3.2495846971858975 l-9.477641387842496,5.424673586946598 -6.353448760640147,2.6769091478334155 m23.36612742808759,-19.384318240217382 l10.083535977901334,8.613830137132181 6.495655269060056,5.351461529977315 l4.899017780980687,3.3335711589645824 2.0564022340199384,1.9000561264821236 l1.410061389130129,0.7251531315948967 " fill="none" stroke="black" stroke-width="1" /></svg>