<?xml version="1.0" encoding="utf-8" ?>
<svg baseProfile="full" height="99.39981407423555" version="1.1" width="96.54532299315662" xmlns="http://www.w3.org/2000/svg" xmlns:ev="http://www.w3.org/2001/xml-events" xmlns:xlink="http://www.w3.org/1999/xlink"><defs /><rect fill="white" height="99.39981407423555" width="96.54532299315662" x="0" y="0" /><path d="M25,25 m0.0,0.0 m17.12179767741607,3.140580126833974 l0.4703100790352376,0.11519845240421062 2.5293749537989685,0.10565137466049743 l20.668170164118962,-2.2840630534380733 3.3347137128678215,0.21494811425648344 m-20.963887017786508,3.303409284285902 l0.2507777200095374,0.8808149318696262 -0.1125343011718909,1.1413122701478966 l-4.214093334968801,10.226324704357216 0.042223702203315096,-0.1590392616315862 l0.40583758160937,0.15204218394391836 7.75036398618723,-0.04380382688860122 l7.928502240854215,-0.5975016330861167 2.2798848619194163,0.14193582975057037 l2.3820821763230864,0.3932020930207954 1.801895217233878,0.45915628169879 l1.057610838940594,0.7333772268831596 0.4988588948470569,0.9413029947735541 l0.09921642067101635,15.854263110666317 -0.8598111730569248,7.301778296898755 l-1.4241427861812572,5.016577067615233 -1.1547301205349043,1.9237232531580473 l-0.6164745089591576,0.40579850808597134 -1.196235314897274,0.032825743969022055 l-1.115042748623147,-0.8006663737207038 -1.9844395323681163,-2.188074990428852 m-20.420432271498356,-23.188477658716845 l1.6353218809587284,1.5749874575006688 1.6784467521264779,2.0622445277927697 l1.349714695469992,2.006728137026955 0.6348874905895936,1.553922810601892 m-9.86083604138078,12.560780061191789 l1.379437736188867,0.6410274160448918 0.880791530458979,-0.11756961966470049 l9.54613926038277,-8.148587560625163 1.0754715420127716,-3.26510059928638 m19.221628557518414,-14.364259810168907 l-0.2056154689431159,1.3336770193350524 -1.4481523701395154,2.666991535657837 l-1.7973097936587026,2.433703832232671 -2.0699820350201463,2.067667760547405 m-0.12782435779989615,5.403229049812564 l2.8888626188808786,1.932122275776124 3.462768100574595,3.000676940374897 l2.408489062582128,2.8300829875614864 1.3332867143651543,2.3786931478281073 " fill="none" stroke="black" stroke-width="1" /></svg>