<?xml version="1.0" encoding="utf-8" ?>
<svg baseProfile="full" height="109.49251309037209" version="1.1" width="109.44066612049937" xmlns="http://www.w3.org/2000/svg" xmlns:ev="http://www.w3.org/2001/xml-events" xmlns:xlink="http://www.w3.org/1999/xlink"><defs /><rect fill="white" height="109.49251309037209" width="109.44066612049937" x="0" y="0" /><path d="M25,25.00000060070306 m0.0,0.0 m1.214621290564537,23.452794551849365 l0.7098764181137085,0.2197510562837124 2.2650080919265747,0.412944033741951 l3.0730631947517395,0.0069151585921645164 22.206361293792725,-3.237684667110443 l14.371641874313354,-1.5771836042404175 4.510073959827423,-0.16748886555433273 l4.215538203716278,0.7220049202442169 m-28.079044818878174,-19.832053184509277 l0.9846610575914383,1.8189863860607147 0.18571456894278526,1.7702805995941162 l-0.1321430504322052,5.258684754371643 -0.6807296723127365,7.473836541175842 l-1.7668290436267853,9.17661964893341 -2.690703868865967,8.25773000717163 l-3.548998534679413,7.31736421585083 -4.345164895057678,6.357056498527527 l-5.076134204864502,5.376038551330566 -2.7927175164222717,2.31486439704895 l-4.483995139598846,2.9967445135116577 m25.722761154174805,-34.75517988204956 l15.055055618286133,17.993890047073364 8.724845051765442,9.825517535209656 l6.032223701477051,5.767985582351685 3.7656813859939575,2.1495717763900757 m-38.485963344573975,-9.228776693344116 l2.316398471593857,1.7125624418258667 3.0293428897857666,3.0745968222618103 l1.9850461184978485,2.6128512620925903 1.1123698204755783,2.2212880849838257 " fill="none" stroke="black" stroke-width="1" /></svg>