<?xml version="1.0" encoding="utf-8" ?>
<svg baseProfile="full" height="103.25295015238225" version="1.1" width="109.49251264333725" xmlns="http://www.w3.org/2000/svg" xmlns:ev="http://www.w3.org/2001/xml-events" xmlns:xlink="http://www.w3.org/1999/xlink"><defs /><rect fill="white" height="103.25295015238225" width="109.49251264333725" x="0" y="0" /><path d="M25.000000139698386,25 m0.0,0.0 m28.494653701782227,0.08126727305352688 l0.14805116690695286,0.7252208143472672 -0.031087207607924938,1.8431220948696136 l-0.4974837601184845,1.9397002458572388 -3.5638409852981567,10.183515548706055 l-4.669360518455505,10.79411506652832 -4.55155611038208,8.664442896842957 l-0.04335847217589617,0.794558972120285 0.41709039360284805,0.486074797809124 l5.353898406028748,0.5963614210486412 4.880559146404266,1.2130644172430038 l4.030104875564575,1.452210396528244 4.997301995754242,2.314692437648773 l4.734099507331848,2.7569004893302917 4.235289394855499,3.0777662992477417 l2.830483615398407,2.5934603810310364 2.406671643257141,3.0055978894233704 m-8.790383338928223,-35.184175968170166 l0.30609622597694397,1.9690628349781036 -0.1266925409436226,1.5013837814331055 l-2.0099228620529175,6.101760268211365 -2.9199865460395813,5.696343779563904 l-4.190714955329895,5.799643397331238 -4.384578466415405,4.500613808631897 l-5.397765040397644,4.201327562332153 -6.500808596611023,3.740016520023346 l-5.653184652328491,2.4049027264118195 m-9.503576159477234,-29.93145227432251 l2.10420161485672,0.5434734001755714 2.887086272239685,0.0816730223596096 l29.608817100524902,-2.5973516702651978 15.843067169189453,-0.9540633112192154 l5.619223117828369,0.06643342785537243 3.43011736869812,0.9182887524366379 " fill="none" stroke="black" stroke-width="1" /></svg>