<?xml version="1.0" encoding="utf-8" ?>
<svg baseProfile="full" height="95.50140247771172" version="1.1" width="106.38739814843106" xmlns="http://www.w3.org/2000/svg" xmlns:ev="http://www.w3.org/2001/xml-events" xmlns:xlink="http://www.w3.org/1999/xlink"><defs /><rect fill="white" height="95.50140247771172" width="106.38739814843106" x="0" y="0" /><path d="M25,25 m0.0,0.0 m9.965615156345976,12.483287578705472 l0.5727335711684394,0.13514691406490886 2.035610658301278,0.15778918441906986 l2.5559225635621496,-0.22432648943158795 27.894154282080848,-3.665328959985222 l2.4809001312816292,-0.06987158000245265 2.39847638714481,0.2931815377891218 m-39.650948038159655,20.236809520981733 l3.629670604021048,0.2564271162208833 33.274497901984496,-3.132509451766753 l3.3316516230485136,-0.06217845815717699 3.077869587161153,0.4274904703330601 m-24.179980724905096,-15.179834256881447 l0.5798164502584272,1.601802590813294 0.24084000197824545,2.10045946665834 l-0.13594075068330963,4.095497512541108 -0.6933362784082338,5.868470293346971 l-4.199738959450237,6.927364536369962 -3.9844164481104207,3.643035115526677 l-10.764416576200478,6.196986231926751 -6.875581436558941,3.0191278132631343 m25.877920935678297,-20.966254368879728 l11.571284787384943,9.375505806474122 7.325994722323067,5.725101714389475 l5.734419178167727,3.539541160666431 2.592237252733345,1.9211557557876542 l1.7321415662830253,0.7975257225379369 " fill="none" stroke="black" stroke-width="1" /></svg>