<?xml version="1.0" encoding="utf-8" ?>
<svg baseProfile="full" height="112.64939688303645" version="1.1" width="103.63481971283004" xmlns="http://www.w3.org/2000/svg" xmlns:ev="http://www.w3.org/2001/xml-events" xmlns:xlink="http://www.w3.org/1999/xlink"><defs /><rect fill="white" height="112.64939688303645" width="103.63481971283004" x="0" y="0" /><path d="M25,25 m0.0,0.0 m27.978043761979905,14.121540060243094 l0.02267253420910998,0.32743990277937735 -0.33368730627228355,0.6785501031153398 l-1.6632519318408057,1.3257207303096092 -4.4194987530926,2.802383979603538 l-5.257594841592758,2.4493987833662687 -5.87322947765949,1.9899356143674451 m0.04538479700318624,-0.29746203221550394 l3.8620118025019528,0.9458964642023865 3.324256324335302,1.3312179514698312 l2.705343645689647,1.582111674068815 1.599384593159745,1.5395023962820338 m21.230435028353494,2.6801041405425328 l-0.2665784197668335,1.0980767335997306 -0.6325953381861477,0.4727580334736491 l-4.982901321752969,2.25595874086853 -4.957255841015438,2.144961432070167 l-5.3580629579879835,2.2890675583049465 -5.172492010304532,3.703201960204071 l-10.12687591741667,6.4945483102724895 m8.053799340535596,-8.642643238506786 l2.1396348140964956,0.9320620638153257 2.5376879341331273,1.6903645294249214 l2.023649784183601,1.7459479764790289 2.955816200790061,1.9458917062505905 m24.04965087707545,-9.26219371913496 l0.15107239167187708,0.7421759218885569 -0.39222265081069085,0.8515908953926999 l-3.143480672222242,2.7589117342898395 -3.4144317604160572,2.379402751337687 m-10.253776726742283,-3.731949466037805 l0.5562123194622157,0.3735009791692605 0.36691416535007254,0.5984677870459669 l0.03542425879964369,4.091093438642135 -0.6517831753304154,3.748186313855742 l-1.5027866811574482,3.533358395582874 -2.0215062794841754,2.709333520886979 l-2.790303644230824,2.392786268491042 -3.5631532520554665,2.088122719902842 l-4.233034201513297,1.7700737673321483 m16.33532156710683,-10.154271315101436 l3.6187226403405783,1.6242280401137845 4.068986817733095,2.3401917977391684 l3.4613366755372454,2.4225412557980373 2.3660257421289463,2.1375247851736376 " fill="none" stroke="black" stroke-width="1" /></svg>