<?xml version="1.0" encoding="utf-8" ?>
<svg baseProfile="full" height="101.91560791260032" version="1.1" width="103.89591527961355" xmlns="http://www.w3.org/2000/svg" xmlns:ev="http://www.w3.org/2001/xml-events" xmlns:xlink="http://www.w3.org/1999/xlink"><defs /><rect fill="white" height="101.91560791260032" width="103.89591527961355" x="0" y="0" /><path d="M25,25 m0.0,0.0 m11.65781111289618,11.354442342713462 l0.5212854604838296,0.1361359654211399 1.7772689065675062,0.15541184777699998 l2.322318321229471,-0.22887352872164815 24.545246465780856,-3.23857285815842 l2.334664711653444,-0.03270927144417508 2.1705823984510433,0.26070245689628185 m-37.73874130963488,19.10910943433664 l3.3503233350867943,0.22670292633708583 32.64068213809193,-3.0428844456958957 l3.0714782343736178,-0.03504486415473068 2.7616287111971496,0.440434686554078 m-23.301351565785996,-14.404244859123454 l0.5465868469175419,1.505171346408264 0.23745593982986507,1.95069137765438 l-0.1373177009258016,3.883822678303831 -0.6739243754559437,5.489978280539938 l-1.5380229553659697,6.546355677855948 -2.281848899328765,5.691898585227309 l-2.9821822705883307,4.918208890624725 -3.6655804520297286,4.2194762773736905 l-4.319707411461978,3.499704096658665 -6.06131586621627,3.50969086921621 m21.024351783268397,-24.634400357552554 l11.591531877511146,11.823239210301333 7.132570765683812,6.732797187353461 l5.34071861320298,4.092814930975484 1.8867763420317079,1.1221230235141795 l1.6826261221499461,0.5012128770522808 " fill="none" stroke="black" stroke-width="1" /></svg>