<?xml version="1.0" encoding="utf-8" ?>
<svg baseProfile="full" height="105.58797789506968" version="1.1" width="102.24679164440923" xmlns="http://www.w3.org/2000/svg" xmlns:ev="http://www.w3.org/2001/xml-events" xmlns:xlink="http://www.w3.org/1999/xlink"><defs /><rect fill="white" height="105.58797789506968" width="102.24679164440923" x="0" y="0" /><path d="M25,25 m0.0,0.0 m21.487124276323353,3.3605808986454027 l-0.022581478304013573,0.4124204348420667 -0.28199812776905114,0.7783761654065852 l-0.9010017824575546,1.259354722900425 -2.9893206769614236,2.9135465369676647 l-3.618105667023864,2.392274086912596 -4.358931428827664,2.1228945366927934 m10.901777942847986,7.365140196353321 l5.173740242295498,0.7975884813727765 2.6272764429333297,0.06840269858776016 m-8.601174862340262,-8.443795020058847 l0.43799018161334524,0.7233016242297985 0.18623915655283332,0.9343889838671195 l-0.0932997956864778,25.392435899906918 m-7.3799006439917925,-20.78264699030095 l0.18665201752812896,1.0297929058317006 0.01858515040162448,2.21661664276313 l-1.1384056797752566,24.17012275649431 0.37715771513979157,0.9625779192789908 l0.6838212098351495,0.2026152407584062 0.9318032197690631,-0.27825735439020294 l11.58048826758367,-2.167422158935709 2.2750391410476825,0.1394246395469772 m13.918830909961564,-30.761097276349815 l-0.3674055794091008,0.8873597186221144 -3.012082980131938,2.696404986451253 l-3.0614614796550557,1.980012907546567 -3.6119324750813173,1.9077723467262526 m-1.8100879276469852,-0.008391166991907777 l0.5730141903102997,0.989071700167788 0.1958722857915605,1.1579545066239287 l-0.01792425058304831,10.663618193870045 -0.5280311524524502,6.32829540657953 l-0.7765810079762037,3.682920453035624 -2.4908547505970167,2.675025524401443 l-2.128083690630217,1.1577314361918105 m7.611897862665789,-20.61366964461947 l18.110104659983584,-1.6850521697119518 2.1585422091256694,0.03706650547690587 m-10.469777527068716,2.744689546672679 l0.6592400078218627,0.852593098079672 0.2560819665438184,1.1842591935309374 l-0.0708563709682861,24.141678781093255 " fill="none" stroke="black" stroke-width="1" /></svg>