<?xml version="1.0" encoding="utf-8" ?>
<svg baseProfile="full" height="99.50598296048251" version="1.1" width="100.30270740754781" xmlns="http://www.w3.org/2000/svg" xmlns:ev="http://www.w3.org/2001/xml-events" xmlns:xlink="http://www.w3.org/1999/xlink"><defs /><rect fill="white" height="99.50598296048251" width="100.30270740754781" x="0" y="0" /><path d="M25,25 m0.0,0.0 m23.106423618191382,3.7820976635379187 l0.016789576840470558,0.46247888844374213 -1.0350579337058217,2.1865001970210627 l-2.3199118385143214,2.658551004270505 m-5.602300665727101,0.8440489607925276 l0.32759764195441327,0.6875647799239967 0.09738023055646548,1.3012064445866847 l-0.06280819457213786,17.591389098437258 m0.5359111411510953,-18.667428547678124 l16.93924732397333,-1.9019307821200944 1.3358506242876118,0.14772832045204998 l0.528177656485062,0.6843663466748151 0.10526516194280841,0.6492524387948657 l0.011216519003254374,17.779592966511277 m-15.650453201324725,-14.383327494523751 l15.641618898538692,-1.5044336028727006 m-15.54386498620186,7.267862073895413 l15.46262641861681,-1.4910488087393707 m-15.459269889184393,7.147724080957327 l15.567228662871996,-1.2392202480521408 m-24.984170351966213,6.415021953155962 l2.016556680286041,0.18801885071846675 2.4137630708747273,-0.04727870826878278 l25.92069198765203,-1.8940888764463415 4.040635476341457,-0.1067197949400183 l2.43786186584466,0.22993962996822465 m-19.087512385098666,2.2378805341275547 l0.022565696261302136,1.431568015969636 -1.2472606899069638,4.0507419260506055 l-1.1954921559055458,2.763949826885451 -1.852692518157459,3.2558530200341975 l-2.057274873812053,2.539765865020227 -2.6590605877473794,1.801043782158014 l-3.3477615730619656,1.5797437121112097 -3.402686119741757,1.0575694436248473 m21.85429099585676,-17.03715089527701 l0.4210176881576243,1.0087529713288796 0.1550971843138657,1.0348679761380264 l0.03942756909965391,10.920042783800197 0.43798327034848766,1.812867057444765 l0.8919244263384153,1.0053204642445142 1.634765535441285,0.5680463901183883 l2.676631042715645,0.22201945413444135 5.157140266254171,-0.019440271875003676 l3.1758159405937185,-0.3665178429285749 1.3239410608669666,-0.4816244577161006 l0.8862957943926297,-0.7950912972990517 0.46079277699685184,-1.0597293595719868 l0.1677535691264816,-1.8106837523595976 " fill="none" stroke="black" stroke-width="1" /></svg>