<?xml version="1.0" encoding="utf-8" ?>
<svg baseProfile="full" height="109.79710740166277" version="1.1" width="104.70621655194455" xmlns="http://www.w3.org/2000/svg" xmlns:ev="http://www.w3.org/2001/xml-events" xmlns:xlink="http://www.w3.org/1999/xlink"><defs /><rect fill="white" height="109.79710740166277" width="104.70621655194455" x="0" y="0" /><path d="M25,25 m0.0,0.0 m14.383795524080035,3.8991288650150957 l0.47464936396552904,0.1404537049030043 2.735832825448197,0.14157383102725343 l22.466977901433545,-2.396024795543136 3.189490756693088,0.18084404365193965 l0.9104484509752937,0.3946448416380661 m-23.610556882706916,2.7379035974830415 l0.4191212299860668,1.4992883270750117 -0.3676256597458888,3.797487188989274 l-0.8036319095145663,3.581380591944939 -1.3215664418160207,3.688683800283253 l-1.3966167214772398,2.7125881607505473 -1.788753535207439,2.054987747586806 l-2.2771850747437314,1.6634427989475908 -2.361987862488141,1.2302098197052007 m21.955682105461303,-16.59126420153135 l0.4976794758145395,4.805179767928387 -0.7102222816494593,9.229604938557227 m11.841446301082794,-11.40657094737269 l0.035166571645702915,0.9450598020448859 -0.6232850343122553,1.5874430344793784 l-1.336600487042675,3.1035616285830674 -1.673724839040332,2.604537656486362 l-2.0829199290956737,2.137753473638913 m3.4366672827194304,-3.856422587808225 l0.10458075423244152,1.1882539484485375 -0.6765170656930488,1.2409547441516708 l-2.6132120879534213,1.990567861633225 -3.6190883588364073,2.054157057733567 m6.877079429615584,-1.8335716640727096 l0.026514925999342225,0.9880495232128013 -0.4350283150319926,0.9044602587713113 l-2.1878612607894277,5.6611872681438955 -2.255516895473948,3.96773288920258 l-2.849896786215683,3.2995210960170516 m5.996649056758328,-6.593262924024011 l1.4322867550777751,1.396407429294211 1.351972577971643,2.3215138610328347 m-24.515506506436168,9.323043014983098 l1.8603408427366126,0.21267390375526338 2.114743716660382,-0.14849524841076106 l27.450436715594066,-3.142113807075438 2.442162972768447,0.26067319725139854 m-18.107515274523582,-5.766658342174079 l0.560615090360732,0.9349956014796884 0.13536786254718974,1.115979038472546 l-0.0910000425521016,22.53556360537224 m-1.2410314422971842,-17.435210893459804 l-3.0585632072571824,4.243374639239849 -4.427549249094556,4.472952022749295 l-4.844706769748983,3.6335516236777865 -5.151426253197804,2.745318752507931 m19.2572770778283,-15.156856441434101 l15.993338007165546,12.532296036948107 1.5106988883640773,0.9651907617547919 l1.6742902629003764,0.5640539633688267 " fill="none" stroke="black" stroke-width="1" /></svg>