<?xml version="1.0" encoding="utf-8" ?>
<svg baseProfile="full" height="109.49251350481063" version="1.1" width="103.13286466524005" xmlns="http://www.w3.org/2000/svg" xmlns:ev="http://www.w3.org/2001/xml-events" xmlns:xlink="http://www.w3.org/1999/xlink"><defs /><rect fill="white" height="109.49251350481063" width="103.13286466524005" x="0" y="0" /><path d="M25,25.000000772056126 m0.0,0.0 m31.987125873565674,-7.720561256974179e-07 l0.07148023694753647,0.7362645864486694 -0.23976800963282585,2.1302202343940735 l-1.4072330296039581,3.2102447748184204 -2.477435916662216,4.510348737239838 l-2.7187952399253845,4.066916108131409 -5.700594782829285,6.622744202613831 l-6.472871899604797,5.4172199964523315 m19.695807695388794,-18.974093198776245 l1.53509721159935,0.30538251623511314 2.0250914990901947,-0.05953276064246893 l14.330970048904419,-3.683142066001892 1.782458871603012,0.2625531703233719 l0.7215321063995361,1.249540001153946 -0.0770731596276164,0.9625277668237686 l-4.013442695140839,8.70567500591278 -4.456874430179596,7.727868556976318 l-3.8806676864624023,5.792627930641174 -5.884296894073486,7.547440528869629 l-4.937047362327576,5.408489108085632 -5.382298231124878,5.091284513473511 l-5.823183655738831,4.683865308761597 -6.2553393840789795,4.184776842594147 l-6.686039566993713,3.5932916402816772 m20.48736572265625,-37.52912521362305 l3.098931908607483,1.9774378836154938 3.1491318345069885,2.7420765161514282 l2.519087493419647,2.8839457035064697 1.1044878512620926,1.9912612438201904 " fill="none" stroke="black" stroke-width="1" /></svg>