<?xml version="1.0" encoding="utf-8" ?>
<svg baseProfile="full" height="109.49251547455788" version="1.1" width="109.08225871622562" xmlns="http://www.w3.org/2000/svg" xmlns:ev="http://www.w3.org/2001/xml-events" xmlns:xlink="http://www.w3.org/1999/xlink"><defs /><rect fill="white" height="109.49251547455788" width="109.08225871622562" x="0" y="0" /><path d="M25,25.00000290630851 m0.0,0.0 m18.272294998168945,2.5279703736305237 l0.15933724120259285,0.6206036359071732 0.14291226863861084,1.867278814315796 l-0.5749383568763733,2.4824145436286926 -1.5535596013069153,4.337390661239624 l-2.236872762441635,4.954576790332794 -4.603607952594757,7.719270586967468 l-4.589596092700958,5.487694144248962 m14.150855541229248,-18.328311443328857 l2.5712674856185913,0.009632855071686208 8.337481617927551,-1.8375471234321594 l0.8003599941730499,0.182490274310112 0.805315226316452,1.0887902975082397 l0.0604456290602684,0.7094565778970718 -0.538756400346756,1.852925568819046 l-2.772212028503418,6.860131025314331 -2.9981032013893127,6.312659978866577 l-3.5800901055336,6.571016907691956 -4.05784547328949,6.386476159095764 l-3.295077085494995,4.404371976852417 -3.4611639380455017,3.867153227329254 l-3.5841909050941467,3.143343925476074 -3.664158582687378,2.2343097627162933 m8.923569917678833,-29.04534339904785 l2.3047086596488953,1.3862767815589905 2.382284253835678,1.9523726403713226 l1.8966686725616455,2.0302897691726685 0.7649042457342148,1.2798240780830383 m19.29065704345703,-31.057522296905518 l0.901857390999794,1.498539000749588 0.32978110015392303,2.175871729850769 l-0.17497194930911064,55.81810474395752 m3.1002840399742126,-38.23137044906616 l4.236918389797211,2.620307505130768 5.095374584197998,4.270067512989044 l4.216071963310242,4.581394195556641 2.0240528881549835,3.4013590216636658 " fill="none" stroke="black" stroke-width="1" /></svg>