<?xml version="1.0" encoding="utf-8" ?>
<svg baseProfile="full" height="114.88673713408012" version="1.1" width="102.22651724509939" xmlns="http://www.w3.org/2000/svg" xmlns:ev="http://www.w3.org/2001/xml-events" xmlns:xlink="http://www.w3.org/1999/xlink"><defs /><rect fill="white" height="114.88673713408012" width="102.22651724509939" x="0" y="0" /><path d="M25,25 m0.0,0.0 m5.685507663240945,25.203559597788576 l0.5433233237674382,0.12312285832552244 4.445704708014062,0.19725919979621254 l34.44668164678745,-3.1974924914519307 3.1523450405704057,-0.13569431928857764 l3.1322905526656597,0.2611575590971781 m-24.732543546914172,-14.945938496016637 l0.8946749401928962,1.4280384510980606 0.25653217831889485,1.3842334935631553 l0.014873028278913972,6.802304936023008 -0.424072500344895,5.393338711202263 l-0.7562351765876937,4.8834024201219055 -0.7262774889187814,7.359888010384775 l-1.7883340288959764,6.96777397910747 -1.226832866742627,5.563851112355418 l-3.5165993460420566,5.747247755603822 -2.3136201837537227,2.3135070127413133 l-2.759038642209675,2.4075660594913684 -3.3371016747622617,2.825990098806586 l-5.743696186369341,3.8342358982639224 m22.032391856990348,-32.467813385519456 l8.057902693388378,15.492639521004893 6.950652741018229,11.457502465935658 l5.771439710301117,4.15325665920707 1.948373013902609,1.0312372806884065 l2.218175789203249,0.8025627457501489 m-16.103416885705876,-51.393933654571285 l3.2383963448977346,1.5366607910807075 2.4753632828655623,1.6917142758653185 l1.8544112876832466,1.7023473559947158 1.5231963333327807,2.204367163095555 " fill="none" stroke="black" stroke-width="1" /></svg>