<?xml version="1.0" encoding="utf-8" ?>
<svg baseProfile="full" height="121.18861637419184" version="1.1" width="97.03223084422449" xmlns="http://www.w3.org/2000/svg" xmlns:ev="http://www.w3.org/2001/xml-events" xmlns:xlink="http://www.w3.org/1999/xlink"><defs /><rect fill="white" height="121.18861637419184" width="97.03223084422449" x="0" y="0" /><path d="M25,25 m0.0,0.0 m16.37618195901383,16.620253840016517 l0.42850078333441655,0.11860017714143939 2.9401018694067376,0.0860428028770318 l21.36701072766709,-2.409867003810049 3.587190512468353,-0.14959322154885596 l2.3332449923340572,0.2637902461005819 m-24.684818051933373,-5.250134037963936 l0.7758451419107251,0.8759731856919469 0.30146647256307996,1.070920016765237 l0.925118365116272,11.396330902323186 m12.29174957403131,-15.143001156276599 l0.2797007231845307,1.1099704509254387 -0.031079243907860456,1.2397903857407355 l-1.7353100304527438,11.80028612691635 m-13.037550330963375,6.171281746805395 l0.011956005468224768,1.5829507952624737 -0.747248634413609,2.800034205670073 l-2.4678082266907855,5.562837831398434 -2.995873007961945,4.7424897655742315 l-2.003097261024783,4.2445577053324275 m5.7605994610258655,-9.434013725176555 l0.4787681485208193,0.24811474293946206 1.073470887155638,0.0123371880479745 l18.717656815973953,-2.5746678124882774 0.9093856378761429,0.2108315096244312 l0.742853971478127,0.6556295728459933 0.31757594377878073,0.5044986265071524 l0.3587837063768629,1.225156986748208 0.06315139628235344,1.7005905425619052 l-2.2636123933540673,3.298058988562521 -3.094144196074685,3.496926432718875 m-11.187631817679282,-2.5356765891923363 l-0.011997032924599148,2.2410185444582456 -0.8242226582393871,4.811692079684756 l-1.1482247993011676,4.333104151894026 -1.581695855224936,4.344291100395565 l-1.644893120272866,3.409602985245857 -1.9668652864855225,3.227113542587582 l-2.306699187616133,2.903970254206726 -1.9638341235800842,1.9443796486087794 m12.344486316611741,-19.899103899291344 l3.2397567404183722,6.126603325257106 4.403988061406708,7.231914568291962 l3.509921172906019,4.727190039090008 1.457145822740132,1.3825666994818109 l1.2017196116113154,0.8629721056393682 " fill="none" stroke="black" stroke-width="1" /></svg>