<?xml version="1.0" encoding="utf-8" ?>
<svg baseProfile="full" height="100.19267522858621" version="1.1" width="104.90092113131797" xmlns="http://www.w3.org/2000/svg" xmlns:ev="http://www.w3.org/2001/xml-events" xmlns:xlink="http://www.w3.org/1999/xlink"><defs /><rect fill="white" height="100.19267522858621" width="104.90092113131797" x="0" y="0" /><path d="M25,25 m0.0,0.0 m11.99186733818244,8.928288418280022 l0.15555749176305794,0.4283636364437963 0.035728438937859104,1.7742578700802487 l-1.7929274810840639,9.27955080482387 -1.4769196585486315,6.476772164505037 l-1.691399151824607,5.688187955953881 0.3506094225544702,0.4699560163859308 l3.9187121683244683,1.606046135769903 3.3067859852423322,2.097978181858061 l2.6871304647595773,2.393864079101428 2.0710616974054306,2.7134886841137265 m-0.8054562900538094,-24.21918971233674 l0.27148238611501246,1.254342768871332 -0.09376132424166614,1.1240020175917693 l-1.2448618214891614,5.036444890640595 -1.6084957357488874,4.633794969843035 l-2.326486044588409,4.7858721889397104 -2.473514843640591,3.717349608303068 l-5.971666789065192,2.6649149817651177 -3.5014745477166134,0.6861074701845707 m-0.5840090016709469,-17.722493552382772 l0.8488830056272931,0.5960315548598952 1.4689240110923154,0.04213367298633575 l18.84012063519873,-3.5540072812109003 m13.606500979999932,-14.723333646992227 l0.7314679281755407,0.7687390259050766 0.1876079430965529,0.8729854771590474 l-0.014521983724610893,23.314528268246384 -0.42082182820719854,1.7056555568928429 l-0.602724940020468,0.3770758228841853 -0.7462945807565566,-0.2369530751958915 l-1.9599215973489983,-1.5033790633282476 m-3.8966670031559905,-12.196100830677251 l-0.007931821580687521,0.729062180288119 -0.38082726243107934,1.1568807752768997 l-2.0541338401955014,3.559039653580192 -2.9815606006387676,3.6843834111315337 l-2.711888761696916,2.5393605011549574 m24.873088452673077,-12.82603834209816 l2.6053489450196055,1.4457214707687276 3.083732797579873,2.396215553733627 l2.003689943787338,2.0344908172193286 1.2108880052124245,1.8724840382343824 m-7.44596610680697,-1.0168012996987126 l-0.32173084707053057,2.2950903883436355 -2.046678264811913,3.761317848325679 l-3.0492254944475277,4.051042945493612 -3.1743983793505346,3.3997286328165868 l-3.648610998452934,3.3451187862216223 -4.030475940561275,3.160679128828279 l-4.255128567479768,2.8654552713969244 -4.422211759219972,2.458168407304142 " fill="none" stroke="black" stroke-width="1" /></svg>