<?xml version="1.0" encoding="utf-8" ?>
<svg baseProfile="full" height="115.88430768883049" version="1.1" width="110.68428031211228" xmlns="http://www.w3.org/2000/svg" xmlns:ev="http://www.w3.org/2001/xml-events" xmlns:xlink="http://www.w3.org/1999/xlink"><defs /><rect fill="white" height="115.88430768883049" width="110.68428031211228" x="0" y="0" /><path d="M25,25 m0.0,0.0 m30.05315927815773,7.882849056425003 l0.07653155183587068,0.4574640323848979 -0.3723979294051489,1.6417480235300808 l-1.4898054356477686,2.6694259555892716 -2.3813591438912254,3.4158393575069224 l-2.907950776736033,3.575351146289672 -2.95604939504207,5.683348143218169 l-4.726130142536182,5.608963876308972 m11.904175603904484,-13.990553545810487 l2.474803289384421,0.27197027191685785 19.82320623509742,-2.9946149603679926 l2.0942821629270214,0.16625054194442773 m-38.049759453454115,5.074174644201966 l2.2122046381359803,1.6332020013027837 2.529149608256297,2.2374231059270047 l2.137508211445789,3.634989180175844 1.279988419624131,4.296689233861449 m-1.7374422556225424,-13.581377148410825 l21.451330793010886,-2.437113055252092 2.6639446165951552,-0.4973844996641416 l2.6755055399704677,0.10340980872706679 0.8576607909847163,0.9563440807401261 l-2.850614181889384,1.2572041926255977 -3.613826667723156,6.204728083958413 m-21.577043227383037,1.9404196383449095 l24.009631221837832,-1.8823999360208303 m-31.114907938145382,8.604342583152876 l1.0381022639110578,0.8616681506978511 0.3954759218239826,1.0466925908095133 l2.425287891875035,11.990607267282689 m-1.9145866516419565,-12.741083941307002 l30.462593159260074,-2.978588460600878 5.511392995875695,-0.32990616498528413 l1.4011825005657175,0.3081480231628795 0.7920909506929907,0.9303952668312073 l0.08509657545859331,0.731764299115551 -3.5013970266963717,10.622305654936573 m-31.852023887618614,2.8733108776686715 l33.027796262561715,-2.6932259717283507 m-19.251927904048323,-37.99213684175833 l0.975875069988821,0.8798414654070876 0.48903015376020614,1.781220158770076 l-0.0911698346778089,53.21670327496236 -0.06989795581758784,2.579249232038779 l-0.2713311859386402,2.0014720374582007 -1.2088233081548663,0.8631769574629525 l-0.8050921894851776,-0.41526208394608227 -2.305298097090609,-2.4430229239144206 m3.8660275343594233,-21.05851751988337 l-3.973766394008871,5.343270797235418 -6.283338903975004,6.2609431808972476 l-7.326726420803241,5.551705683118127 -6.628033304038734,3.623493870345283 m26.640691320513003,-20.481127944892787 l21.897921017078914,15.9991574070158 2.3087600487832622,1.3686554890429348 l2.3845742959074308,0.6731978229388715 " fill="none" stroke="black" stroke-width="1" /></svg>