<?xml version="1.0" encoding="utf-8" ?>
<svg baseProfile="full" height="104.89915213981668" version="1.1" width="104.92173486407711" xmlns="http://www.w3.org/2000/svg" xmlns:ev="http://www.w3.org/2001/xml-events" xmlns:xlink="http://www.w3.org/1999/xlink"><defs /><rect fill="white" height="104.89915213981668" width="104.92173486407711" x="0" y="0" /><path d="M25,25 m0.0,0.0 m8.828370321003483,9.492663218040208 l0.5692207963844325,0.14386353581938724 2.001880619438643,0.12265522073630845 l2.51415437831245,-0.27144127121974615 26.57559917972016,-3.7996008054004204 l2.300207496377825,-0.0690562472974893 2.3706492915763464,0.28182945486921335 m-39.541158230445724,21.559915604131312 l3.6178381246750884,0.26755766825042715 34.519575025546075,-3.30957889647946 l3.1511660603515437,-0.02136683260378704 2.879357778917409,0.4812726880274346 m-24.402161647441226,-15.32434884245709 l0.5512983886811654,1.6995040097646352 0.22150476155074317,2.230957446116082 l-0.1752871559522827,4.439259957451631 -0.7338349600985719,6.2030167058989045 l-1.7117173520404454,7.205629296533101 -2.4423243623356616,6.146311947500578 l-3.1616076897364223,5.35702563503712 -3.853427894154564,4.573329241369636 l-4.586991423643021,3.7856333164918823 -6.505338980790723,3.7041200892368096 m22.46740189205376,-27.4612135191974 l12.663322104535867,13.126948437661481 7.404274824522857,7.420798351402132 l5.558981611872469,4.596441602254769 2.014739714683886,1.2473719197075104 l1.8260421905115605,0.6208127908362269 " fill="none" stroke="black" stroke-width="1" /></svg>