<?xml version="1.0" encoding="utf-8" ?>
<svg baseProfile="full" height="102.34833679590272" version="1.1" width="99.91266101835728" xmlns="http://www.w3.org/2000/svg" xmlns:ev="http://www.w3.org/2001/xml-events" xmlns:xlink="http://www.w3.org/1999/xlink"><defs /><rect fill="white" height="102.34833679590272" width="99.91266101835728" x="0" y="0" /><path d="M25,25 m0.0,0.0 m30.374972067111372,3.406877548780396 l0.31691859029235814,0.47441338148913814 0.4608262297429639,1.6195532691756533 l-0.020481300216052406,6.42421820597356 m-18.529751065553853,2.444197626368662 l4.712048769930739,0.19506416959307193 16.017151003832705,-1.9418455732223718 l10.799211979841472,-0.9071174518868086 3.1432591056264916,-0.10170787533620483 l2.638505637749077,0.3691312088285254 m-29.48970452954071,8.979349328461208 l0.5533303710136094,1.3340395961637586 0.15227028235099857,1.336168804087883 l0.026051261105366978,5.270837779651692 -0.30838563106651823,6.409456057492817 l-0.904277661271132,5.394106592035799 -1.1694870522727179,3.705492738112376 l-1.583275798407981,3.1375142825033757 -2.0952180484292646,2.7381037886064346 l-2.146351843825848,2.060483319023765 m9.575290752688753,-28.956948588645435 l7.54391523171704,-2.1524011544906734 0.6063127628037832,0.0602532276941354 l0.7492184609731134,0.6461167991983346 0.32955282855559276,1.3098448540337007 l-0.18592882047531095,22.537309611754342 0.20905197749177098,2.1846170397973195 l0.793598051787175,1.7832928155830146 0.7291349798315975,0.7375354824974718 l1.340550110096822,0.4941191089546104 2.1927132749692144,0.2139809380877252 l3.7500424470968157,-0.15009164021429355 1.8010577965659385,-0.4811368214320622 l0.746297658841611,-0.6760160649203476 0.5343948407189462,-1.0207018924348872 l0.27981938527960193,-1.409046512528509 " fill="none" stroke="black" stroke-width="1" /></svg>