<?xml version="1.0" encoding="utf-8" ?>
<svg baseProfile="full" height="105.67134369894754" version="1.1" width="96.95732349479509" xmlns="http://www.w3.org/2000/svg" xmlns:ev="http://www.w3.org/2001/xml-events" xmlns:xlink="http://www.w3.org/1999/xlink"><defs /><rect fill="white" height="105.67134369894754" width="96.95732349479509" x="0" y="0" /><path d="M25,26.043536704735512 m0.0,0.0 m15.447836497198985,2.899404819873228 l0.40209421465626033,0.16653593805073116 2.363909100258045,0.17232634846609204 l21.460576929544956,-2.6917597659594286 3.8128330368798125,0.2060158632663449 l2.2169248159115607,0.4256995330602319 m-22.83747734697857,15.37534733964305 l2.9989647328036666,0.13724103916240293 12.679855303516332,-2.207833442724708 l2.6952505584557174,0.07845416264437845 1.2864448839138627,0.35675616813184624 m-24.260353695907575,17.03861041258135 l3.106513164152973,0.19856914775250714 12.592269756608587,-2.8668631613108855 l8.081176666863447,-1.1746294290853798 2.7330088863440753,-0.21707635473956483 l2.177495990572949,0.3012322967581732 m-15.179825125841605,-29.241567620305883 l0.6086571043235744,1.9888960442025154 0.031783662985265915,25.08437607437955 l-0.36750424864472747,5.742765649710192 -0.7854035199301268,5.11115855512108 l-1.1984897425372274,5.602287862376803 -1.3420148796007305,4.72961416306766 l-2.2730355620860965,4.49822111990479 -2.7583747799306813,2.9140242301849417 m0.809540488648517,-46.16111936327505 l2.976443043712702,2.8889438188668923 2.3221269630792816,3.119255493304459 l1.7472276087123357,3.1516593187463497 1.2282591133614176,3.316319881884207 " fill="none" stroke="black" stroke-width="1" /></svg>