<?xml version="1.0" encoding="utf-8" ?>
<svg baseProfile="full" height="106.52519755775467" version="1.1" width="105.60980388671005" xmlns="http://www.w3.org/2000/svg" xmlns:ev="http://www.w3.org/2001/xml-events" xmlns:xlink="http://www.w3.org/1999/xlink"><defs /><rect fill="white" height="106.52519755775467" width="105.60980388671005" x="0" y="0" /><path d="M25,25 m0.0,0.0 m13.378878267078438,13.724116470374573 l0.49227261044119264,0.1631400820321762 1.5005741844231861,0.084454035700521 l14.984096258139617,-2.019638342664467 1.41511031194135,-0.16068475792337755 l1.2706172735453047,0.1750518362694511 m-10.017366792573071,-5.254521919768496 l0.5708079080768853,0.8934576481345885 0.16376754035480656,0.828943198302145 l-0.03952230394002176,19.926672123577916 m-9.040198880329594,-6.687243531018608 l2.230852359665567,0.2211704459711237 12.41664437949475,-2.0810424843033517 l1.692902831520096,0.009557982813175386 m-18.51298778200987,11.895162061270181 l1.0258790855619606,0.4736430669640727 1.0071571665016117,-0.09029465476610767 l15.442876190954824,-5.831303907500638 m4.881220285627017,-13.73033752981042 l1.4136050589885845,0.2020721214353389 1.935295685400316,-0.16846419469496657 l14.589891729178369,-2.2217596901810603 1.756294414483579,0.09375617502047395 l0.7606466253855468,0.524292905808045 0.28062062303250324,0.6156265615051129 l0.009868855767101312,0.7378847198233542 -0.9279939867159684,4.752949105981643 l-1.4881759718895877,5.347933225378295 -1.634723551550602,4.095783460719384 l-0.5396373775438378,1.3297998283571613 -1.0261263725544367,1.7758281015443647 l-1.0055683466049883,0.4993837030348433 -0.9114635821440787,-0.4433607980623161 l-1.5660592184500517,-1.8214427540484701 m-2.1580550796964113,-13.57549621051419 l-0.16145044362724184,1.4295768996425045 -0.7115971073201496,2.128626668233904 l-2.048162693067099,4.666496213394613 -2.517335108332282,3.562899596352168 l-3.0103210480006526,3.075078474895734 m-21.342919415078143,11.97570264839689 l1.9416474654276266,0.29766438248171334 1.5775740327465995,-0.009182282704355824 l11.603864322046391,-1.4517038656842767 12.751293122601236,-1.213898715618034 l6.437202211318691,-0.4325970753112544 3.9386942834076852,0.26537228471030694 m-20.538350138315295,-7.380087149327858 l0.5371068227116359,0.7735819196505961 0.20173078071312925,0.850548517177407 l-0.6163461783578861,5.541420045525981 -1.1426994503934023,4.3958815086740906 l-2.068972136084154,4.300432796609429 -2.2260188140593313,2.865705159187019 l-2.71826873841614,2.4487160970055486 -3.244902276749176,2.0432365459202297 l-4.808244438633629,2.1066388037808412 m17.891619454009103,-16.050300422155512 l13.262816546458195,10.808559354376902 3.5527938435714526,2.422992742138828 l1.5440098253631251,1.5886607879939656 0.7663121791354464,0.6407398364978606 " fill="none" stroke="black" stroke-width="1" /></svg>