<?xml version="1.0" encoding="utf-8" ?>
<svg baseProfile="full" height="117.4744341486161" version="1.1" width="102.46757563390551" xmlns="http://www.w3.org/2000/svg" xmlns:ev="http://www.w3.org/2001/xml-events" xmlns:xlink="http://www.w3.org/1999/xlink"><defs /><rect fill="white" height="117.4744341486161" width="102.46757563390551" x="0" y="0" /><path d="M25,25 m0.0,0.0 m12.196896925933737,13.867940787106203 l0.5230741727806055,0.1291829656486644 3.413296063296959,0.14391434157213198 l26.00621601561916,-2.51956130955469 3.9687156949550775,-0.14696096509888398 l2.8057167698779164,0.32806167222345234 m-28.406447971168877,-5.287552314634443 l0.7773305475806509,0.8630687787677394 0.2978078082294016,0.8743120165618629 l1.4050674953788511,11.905315299118934 m14.965578770456496,-15.850695424384213 l0.29307071990934946,1.1410029845576666 -0.08945976500963115,1.1706470663143893 l-2.351989656570282,12.14644762427236 m-23.500853942256768,6.186141656337295 l1.2961584308826528,0.373378788073072 1.8040224123385957,0.005264103094190189 l13.39802036229855,-2.447535986468712 0.35509078662320587,0.2133802471892417 l0.22265174543171473,0.5586944259024399 -0.07379632417800752,0.8445103536002615 l-1.8719078141965053,6.954461036212038 m-13.288031237174161,2.695562801370627 l14.03456108127544,-2.0328689339962533 2.018866847947272,-0.06773416864548701 m-16.36401951660438,1.3486105467736194 l0.41827855316895457,1.4973009378225817 -0.07718116267927527,7.899716142699368 l0.6247479341282315,0.7968418291181015 0.9717373209464087,0.1180296901888878 l11.559029239547192,-2.6444123135138744 1.312492243819497,-0.33749249635150363 l1.5800387799551145,-0.048699095780706074 0.5780265350864245,0.5472575553482456 l0.18491203959539704,0.5182661140596648 0.05526102443704875,1.295059393125583 l-1.3320375620623461,10.712361017599532 -1.540922678417394,5.989293567560146 l-1.8884816780216542,4.699863236528324 -1.2640082841039237,2.222094601510394 l-0.7413999928962923,0.6624547508588028 -0.6544828792056975,0.14951082592903842 l-1.155873809627308,-0.6954607209538022 -1.4884501304442637,-2.294771770866684 m19.68004019678538,-45.4953429278444 l0.589975153311787,1.032471436064904 0.29881281122714226,1.4663577817209599 l-0.012252873200376832,9.480712029623598 m-8.341083195030121,1.2643339973797936 l2.3984036709429457,0.12875998172784564 13.543693918395345,-2.0458031033217585 l3.3326640345902594,-0.019732123607342295 m-9.881220642008346,8.266927253870447 l5.435303542164487,1.1996399364150423 2.728022462732204,1.062343620189647 l0.7100541863938472,1.5956802341584289 -0.8839619756786135,3.800129238214938 l-1.7741161350926071,5.098970507860796 -2.150234576759131,5.013991250934919 l-1.9457995006107243,3.497555472792292 -1.2205723229824446,1.1080397063466325 l-1.2282368150279295,0.009597306748537985 -1.3189991545826765,-1.3322712021322198 m1.2354027791069915,-25.727813260836914 l0.0436373978045659,1.1354585123112362 -0.20800684413654807,2.763788466786926 l-0.8607703442916649,4.439784931374699 -1.3225287608442409,4.59122776309354 l-3.1867876413567853,4.302242131253612 -2.4349680602006663,2.0255291078270066 l-2.356107789538882,1.4553737174401253 " fill="none" stroke="black" stroke-width="1" /></svg>