<?xml version="1.0" encoding="utf-8" ?>
<svg baseProfile="full" height="117.03205894717902" version="1.1" width="103.22889302169676" xmlns="http://www.w3.org/2000/svg" xmlns:ev="http://www.w3.org/2001/xml-events" xmlns:xlink="http://www.w3.org/1999/xlink"><defs /><rect fill="white" height="117.03205894717902" width="103.22889302169676" x="0" y="0" /><path d="M25,25 m0.0,0.0 m35.4564751799417,3.5027200042772133 l0.04655847442810766,0.4420141414148186 -0.36298657291899056,0.8405889135792353 l-1.8316796315245005,1.0959866655501487 -6.780195174011641,2.1702294873441503 l-8.173193564548464,1.8190801880713474 -9.311155424281756,1.3681899187847015 m-5.121448236139637,4.826890026005602 l1.883387517012434,0.45214112071012585 1.6647911997277531,0.08068335670230826 l37.28301445752812,-3.190266356582814 4.662173300579911,0.3011557538697521 m-23.003205011760368,13.072496729912903 l0.4600288352798849,0.3610179621426249 0.6420542747711475,0.8896013085410918 l0.11301240627375962,2.3362474466952623 -0.25673431581967054,35.756955436740725 l-0.9184350934965325,0.9063268434198337 -1.6340411726166792,-0.5548295983531312 l-2.194029840058874,-2.5050916791527347 m-10.090184540102435,-29.319422664343836 l2.0700825442688764,1.120186461404706 2.434898028994181,2.0184206220506393 l1.8682659733664937,2.0019426710152324 0.8216007419821515,1.4529867362762365 m-12.131307894446577,16.1768560359137 l1.835618164375598,0.411579564036928 1.2402571238616544,-0.4616486639639706 l9.30701841679192,-9.636846136090359 m22.938255959716336,-16.46344418223667 l-0.05242349483361133,1.2147904221539212 -1.357589356008563,2.5167507728646665 l-2.2178117709035288,2.751125412923251 -2.9285071419075006,2.737783032186486 m-0.9066086920144023,4.099518653585195 l3.199161196256545,2.0434143883980442 10.569821532768753,9.252182049649123 l2.300969655352211,1.2525775013076927 1.7029849658129494,0.5279970288069255 " fill="none" stroke="black" stroke-width="1" /></svg>