<?xml version="1.0" encoding="utf-8" ?>
<svg baseProfile="full" height="119.07984402790295" version="1.1" width="95.22627115069355" xmlns="http://www.w3.org/2000/svg" xmlns:ev="http://www.w3.org/2001/xml-events" xmlns:xlink="http://www.w3.org/1999/xlink"><defs /><rect fill="white" height="119.07984402790295" width="95.22627115069355" x="0" y="0" /><path d="M25,25 m0.0,0.0 m26.97539864241876,14.13500844761525 l0.3557583445807862,0.3551259027168151 0.4575305430251745,1.388597602695007 l-0.02355947724165428,4.418206723647741 m-16.130747736426574,1.538881600535282 l3.6065741485292504,0.18315029331133167 12.828313621692589,-1.2589042668672958 l11.733292425653527,-0.8715389909712202 3.069595907408603,-0.07952602864522984 l2.3541147310530732,0.36212547069998907 m-26.038643515888367,5.132996007957984 l0.5652276055381759,0.9825442900915755 0.12659126423476866,2.7270359156794597 l-0.9686902958123231,4.523469223584577 -1.3064274268599823,2.4889750750043844 l-1.4093172890581813,1.8682360477583704 -1.799856498093732,1.77912811919884 l-2.2171828337547907,1.640154816550148 -2.267909139663222,1.296906128656381 m19.017648974561304,-18.976364542401537 l0.49396767481614656,0.6878174711160825 0.1640945999748294,1.2730871865592133 l-0.11211893912011883,14.223983208731935 -0.3738679525683612,0.6344231271588106 l-0.5479771286442647,-0.032037779949583095 -1.9872362971801676,-1.9166782149274022 m-13.840792874266205,-8.185666366049702 l-0.20838970167941853,1.3868093548543647 -1.8277187868544391,3.1014215999318155 l-2.1984521601673412,2.8265845293110456 -2.6094776878063275,2.6887072869661632 m29.53776736131609,-10.64550070013897 l1.871345875317939,1.3394758463936707 2.2843252869943482,2.2557195630334714 l1.733302537462601,2.2629473427929554 0.8499969168989203,1.6568178760044427 m-29.93947758597225,10.170921927288292 l1.6601687244952184,0.8711179525025953 1.8328021737866325,1.5114883209067587 l1.2771097427485527,1.3770605235415885 0.6038689310947789,1.1574521190486808 m16.12494190388517,-8.14136261351189 l-0.05694886402219644,1.3347243979957752 -1.1597094352738706,2.2851511337707633 l-1.8139959763813025,2.4743732405249066 -2.043439623465988,2.1373046292051643 m-24.92516215863901,2.5899559559788274 l4.345691110933833,0.3457337425172778 16.557317545244253,-1.7221692827372883 l13.44119674471159,-0.8142906238548651 3.9888933001532876,-0.05619906588906765 l3.1263587624577185,0.3420079843406813 m-21.447076435827068,-9.50399445298313 l0.38533803664665633,0.9115451161254126 0.111090275160004,1.111010529759989 l-0.005708773993418561,23.505893324766312 " fill="none" stroke="black" stroke-width="1" /></svg>