<?xml version="1.0" encoding="utf-8" ?>
<svg baseProfile="full" height="108.91106032577679" version="1.1" width="107.12851559719752" xmlns="http://www.w3.org/2000/svg" xmlns:ev="http://www.w3.org/2001/xml-events" xmlns:xlink="http://www.w3.org/1999/xlink"><defs /><rect fill="white" height="108.91106032577679" width="107.12851559719752" x="0" y="0" /><path d="M25,25 m0.0,0.0 m18.702443437663874,15.574636231307881 l0.39658417319716766,0.18376415424762357 1.3841678469093435,0.11443777372545556 l12.573062738604825,-1.9339343093084989 2.3110462392526596,-0.10668396862024969 m-8.186491987116375,-4.7963758414800175 l0.4461251352922681,0.8533133193441884 0.11900536113049172,0.9505751442923506 l-0.03707112757351344,17.53697349844421 m-8.135760071460606,-5.587794461167399 l2.172132678650062,0.18181475357633625 11.073768078135721,-2.04424382313028 l1.408915580144695,0.02252799917400983 m-16.56745269785937,11.072805633071525 l0.9777863260102894,0.5298899064912044 0.9012698056050091,-0.10952636920412401 l13.963715384261373,-5.776199089834472 m4.474133924910674,-12.468204233023716 l1.2421330842052276,0.1808878841532844 1.723808419887838,-0.15875720260886048 l12.49716534292744,-2.154105146142801 1.441701746631117,0.034619035551421845 l0.7716876514314355,0.4461397719687385 0.3515077685578627,0.54240136391827 l0.14765976394032537,0.637745618070471 -0.6443795772627404,10.45663053748967 l-0.9574495965731079,4.792415132017019 -0.8063704797517747,2.249665598357771 l-0.8756945880355983,0.7321483181846967 -0.8472848100477596,-0.4760730240380718 l-1.500800181790074,-1.9403248459070623 m-2.3921802595973527,-12.313109723150736 l-0.18176806736986978,1.3690878167736669 -0.6202300549220019,1.9533860582389289 l-1.8220568576412755,4.494312216557383 -2.131776142991788,3.5488772440827945 l-2.446308223919381,2.9588305467656064 m-19.042826731254646,12.329192897793641 l1.8170419194835121,0.2950782404975267 1.3052515578188744,-0.02358460194770761 l20.97291240448107,-1.4618407885291957 6.505605504359518,-0.3293448250602867 l4.254506698381353,0.17646951452506046 m-18.89399178875745,-7.094412868117275 l0.40800110665691847,0.7190688453150186 0.14577455572548656,0.8355352794028389 l-0.6403542484737826,4.863048266549691 -1.1005014178399823,4.052574682020565 l-1.9966758872823045,4.08990264352012 -2.06112284212959,2.703697975976616 l-2.480529022899602,2.3023032590134416 -2.95481303685544,1.949357403308182 l-4.437720834565642,1.951460883320328 m16.392818371983267,-14.998148882123008 l11.873961280701215,10.044707366061624 3.214113285165086,2.2613592613935345 l2.9203189590625636,1.5570374072391242 " fill="none" stroke="black" stroke-width="1" /></svg>