<?xml version="1.0" encoding="utf-8" ?>
<svg baseProfile="full" height="97.66089468384496" version="1.1" width="100.36995445663736" xmlns="http://www.w3.org/2000/svg" xmlns:ev="http://www.w3.org/2001/xml-events" xmlns:xlink="http://www.w3.org/1999/xlink"><defs /><rect fill="white" height="97.66089468384496" width="100.36995445663736" x="0" y="0" /><path d="M25,25.565078460724223 m0.0,0.0 m10.385407762496154,4.795853198562345 l0.11948875359058964,0.42531656400455564 0.153424269672579,2.2685414189972506 l-1.4962497633399185,10.553241553281612 -3.13237696469339,8.220203006714126 l0.08079119440710815,0.775630602869101 0.4461746723698852,0.5922594418081618 l3.7965101195145228,1.6420752977078694 3.173117760764675,2.0332563233831724 l2.664025239522915,2.293105373779005 2.0555694112998557,2.534778672151752 m-1.020661381873382,-23.257106265110032 l-0.07348645504179048,3.1236102612262893 -0.8951305261405701,4.058608976341566 l-1.3779221926097434,4.3048689689501405 -1.9848786853217948,4.3863386209041835 l-2.064493383980215,3.403069411428321 -2.5332220269496224,3.188691199060757 l-3.065319435628856,2.8757723207274832 -2.6677491555343793,1.8605431643131523 m-1.7354901974031236,-21.458994462581646 l1.0543307527175168,0.5786398691358422 1.2271698826388777,-0.02316854124816417 l16.361351338108516,-3.9856371013796124 m3.596090756050235,-14.657862588649314 l2.5691162213239584,0.4656123609565286 17.00131332636196,-1.4669477534540345 l1.2485388749862918,-0.09537835460462854 1.3883453817961673,0.25318426696927965 l0.5539921003950335,0.841308965020866 -0.16035934210820552,0.7024172196560141 l-2.7797230713067433,10.00309895354427 m-20.182716803945272,-4.549585157582758 l2.7155357723686047,0.2852772086945866 12.257293906951665,-1.3256133671552162 l3.104704520971711,-0.12890491125720763 m-17.409788126375112,7.841414074385824 l4.910510125556112,0.041320675764731626 15.121207345403661,-1.4545137506390127 m-22.667801752679736,6.500791581202612 l-0.7010075595486668,3.1828792476299097 -1.702374126811907,4.357961953084895 m3.291150789496725,-6.38073850117253 l22.65504601312614,-2.0595283235023842 4.490313169655147,-0.22602282640005042 l1.2270258936571503,0.2724082431283358 0.3731600527260358,0.5137242010432108 l-0.18084239277825173,0.6692199976381474 -0.5854545494115745,0.739458943436325 l-2.1633217045348565,1.8495978563532247 m-22.611197480238623,4.132618135544257 l0.8907819194657387,1.4046550994455076 -0.08829030677555898,12.527033222625994 m0.053332119416940243,-12.839982312499089 l16.745193391640285,-2.1169954758142486 1.1827408671430042,0.0768100615251287 l0.5662853576341936,0.33249014315794473 0.6051756618415167,0.9740312966117588 l0.12483395897638451,1.0079685195268764 -0.297768946714312,6.150003302938973 l-0.610481167134195,5.004685997439917 -0.44122945122848073,0.4551229443230989 l-0.5543437534471215,-0.1229988897431092 -1.5573900617181446,-1.778482723624846 m-7.1842522328100875,-16.583604234542097 l0.6842225019716119,1.4431212857522953 -0.06556771702144155,25.66526176133353 " fill="none" stroke="black" stroke-width="1" /></svg>