<?xml version="1.0" encoding="utf-8" ?>
<svg baseProfile="full" height="110.05438873436438" version="1.1" width="104.33708199148893" xmlns="http://www.w3.org/2000/svg" xmlns:ev="http://www.w3.org/2001/xml-events" xmlns:xlink="http://www.w3.org/1999/xlink"><defs /><rect fill="white" height="110.05438873436438" width="104.33708199148893" x="0" y="0" /><path d="M25,25 m0.0,0.0 m16.708872467425284,10.412690030178304 l0.4971083713097861,0.10060223198905964 2.785152294436484,0.11838689526081206 l22.475925679392525,-1.8540137982178841 3.292742520280815,0.15133007215663263 m-29.954623500769546,8.263082220995477 l3.3894208690534375,0.19100718968709615 22.61377804190474,-2.0250999200782167 l3.345368034824475,0.14062112627992457 m-37.59728160678482,9.581367217158872 l2.2840690124053378,0.27194588057787034 2.2685668445006875,-0.06901781271352739 l33.429919135266175,-2.7583741674950244 5.627901673312901,-0.17964806890018067 l3.1701621549306402,0.32369865341001397 m-23.29418740588162,-20.412623201306587 l0.18546834877782514,3.0820895731039593 -1.637927683247853,6.429923280341942 l-2.545857280957685,6.2935323196122654 -3.8439681160889108,6.784719684164468 l-3.9057510502314083,5.205633413014521 -3.375008554853323,3.548501872583404 l-3.7732612694723113,3.1821362071663417 -4.04382136788807,2.6509303069949524 m25.092737042417497,-22.070051536885195 l7.988046713599941,15.448957272818134 6.178311196475464,9.256604073500826 l1.8220232940596588,1.8617050550502794 2.228881438538868,1.0672737697381596 m-31.679839209875933,-5.502997539504546 l1.5170891792463939,0.19105487183679581 13.569408735372873,-1.5454315701503913 l2.700153217653664,0.08005296762919129 m-24.11848871037715,10.187763267386178 l1.3959386978730592,0.30945525926240697 2.0624231888223776,-0.021061095333880318 l21.83805577859295,-1.7966617542923515 2.426756189913619,-0.02372537782062676 l2.0962127590213973,0.2591493703313877 m-15.546093798699598,-14.386025107189797 l0.5818549942270594,0.8121331375861237 0.25810229086537523,1.7860306301543323 l-0.012153461938137414,24.706741834282866 " fill="none" stroke="black" stroke-width="1" /></svg>