<?xml version="1.0" encoding="utf-8" ?>
<svg baseProfile="full" height="109.49251570273191" version="1.1" width="102.02618283336051" xmlns="http://www.w3.org/2000/svg" xmlns:ev="http://www.w3.org/2001/xml-events" xmlns:xlink="http://www.w3.org/1999/xlink"><defs /><rect fill="white" height="109.49251570273191" width="102.02618283336051" x="0" y="0" /><path d="M25,25.000000465092462 m0.0,0.0 m24.190378189086914,-4.650924623206265e-07 l0.017087109154090285,0.3922882303595543 -0.733036994934082,2.037101238965988 l-1.7301692068576813,2.5346142053604126 -1.974474936723709,2.1292921900749207 l-2.3953743278980255,1.9102592766284943 m-6.225748062133789,0.2799106761813164 l0.4668356850743294,1.703624576330185 0.08644511923193932,26.031057834625244 m-0.1107085682451725,-26.632366180419922 l27.968575954437256,-2.200670689344406 0.9937544167041779,-0.0394195644184947 l1.452801674604416,0.5781006067991257 0.41875340044498444,0.7829870283603668 l-0.6575755774974823,24.44068670272827 m-9.369139671325684,-23.193962574005127 l-0.08464079350233078,0.585889182984829 -0.9489306062459946,0.9193659573793411 l-3.8923639059066772,1.8994507193565369 -4.956692457199097,1.4567755162715912 l-5.723466277122498,0.9718989580869675 m2.0701628923416138,1.7573495209217072 l1.7392292618751526,2.009761929512024 0.8065115660429001,1.6886833310127258 m13.478946685791016,-6.51058554649353 l-0.026028037536889315,0.664251446723938 -1.2588827311992645,2.4068187177181244 l-3.2594257593154907,3.960394263267517 m-14.679336547851562,1.8361887335777283 l2.9927077889442444,0.2001352608203888 18.870208263397217,-2.0230740308761597 m-11.942856311798096,-6.775078177452087 l0.7973819226026535,1.2411599606275558 -0.1008487120270729,15.431169271469116 m-0.04557887092232704,-8.112800121307373 l-1.9428439438343048,2.7892521023750305 -2.72090345621109,2.8858935832977295 l-2.6121819019317627,2.1369217336177826 -2.7116844058036804,1.6017377376556396 m11.82078242301941,-7.914430499076843 l5.092117190361023,2.9548779129981995 1.8702040612697601,1.6254211962223053 l1.026180237531662,1.2725524604320526 m-34.24161195755005,10.091408491134644 l2.146140933036804,0.4768495634198189 2.873813509941101,0.11553667485713959 l34.010818004608154,-3.1618303060531616 7.358742356300354,-0.3981196880340576 l3.822108209133148,0.2590584382414818 m-26.876513957977295,-3.8554877042770386 l0.4167665168642998,1.0408036410808563 0.08461099117994308,1.3094289600849152 l-1.0458900779485703,4.446781277656555 -1.6842326521873474,3.915252983570099 l-2.943115532398224,4.198183715343475 -2.976813018321991,2.842659056186676 l-3.486088216304779,2.4208062887191772 -3.9572152495384216,2.032332867383957 l-5.547986030578613,2.0453667640686035 m23.275346755981445,-18.22964072227478 l15.379669666290283,13.346065282821655 3.157379925251007,2.214171290397644 l2.6239442825317383,1.0418368130922318 " fill="none" stroke="black" stroke-width="1" /></svg>