<?xml version="1.0" encoding="utf-8" ?>
<svg baseProfile="full" height="111.60229898853001" version="1.1" width="95.14389456682322" xmlns="http://www.w3.org/2000/svg" xmlns:ev="http://www.w3.org/2001/xml-events" xmlns:xlink="http://www.w3.org/1999/xlink"><defs /><rect fill="white" height="111.60229898853001" width="95.14389456682322" x="0" y="0" /><path d="M25.537354387238523,25 m0.0,0.0 m5.000439239146625,14.226252638444613 l0.6628054736597325,0.1500137959925077 2.1797743209582037,0.1135198962009341 l2.056015120942893,-1.9923996541837823 7.478672204668714,-3.247380718973442 l4.878930221312188,-0.39703169015819895 3.608959167734973,0.7873996731215149 l4.465302731270538,3.99823076389085 1.9614434174658641,34.82876403961107 l1.3479915327628147,6.533065593435683 0.28954425833431746,1.2316514165690429 l0.3090631202455853,0.8729597815092802 0.44870874006884093,0.830032846935154 l0.5285105990617556,0.8161320567502434 0.6127813238958513,0.8320396953260979 l0.7169074562242569,0.7983867270944633 0.9016603319142082,0.6925405800094856 l1.0722887065111946,0.4482399624213777 1.1979344311012212,0.07988158453312966 l1.9392685272354253,-0.34080980589771614 1.5947553747340844,-1.610299968467769 l1.3547838803354155,-2.5520781711664133 m-10.046651489825804,-26.525606922394484 l-8.15707015069318,0.6023364269295837 -5.982020196042358,0.8016731139322144 l-6.031653863030973,1.5180393808143362 -5.417241367411365,2.1633991740473513 l-4.743941361509047,3.0805564786596187 -2.487086481700295,2.86561591064805 l-1.5798384084870638,3.3390913127224233 -0.6983912481231334,3.8379797783834917 l0.42034560499332724,3.877836568355473 0.9997044573233429,2.8174913177136642 l1.4424241426498867,2.0093149131028607 2.7156751138208417,1.92467386690962 l4.5129319350347386,1.3815357071840861 5.633146228529618,0.19046917201757474 l5.946720757550348,-1.0054395838990868 5.854570888498195,-2.2556712206547624 l5.511481507520402,-3.402033984348647 " fill="none" stroke="black" stroke-width="1" /></svg>