<?xml version="1.0" encoding="utf-8" ?>
<svg baseProfile="full" height="115.2230252250589" version="1.1" width="106.75098514031983" xmlns="http://www.w3.org/2000/svg" xmlns:ev="http://www.w3.org/2001/xml-events" xmlns:xlink="http://www.w3.org/1999/xlink"><defs /><rect fill="white" height="115.2230252250589" width="106.75098514031983" x="0" y="0" /><path d="M25,25 m0.0,0.0 m31.050462360356626,6.213196482568748 l0.04709873953967333,0.49994615049217916 -0.4234743688874474,1.8306064351695297 l-1.6490431168796953,3.1315112812528527 -2.4421725487575716,3.6670061346915994 l-3.1068672696963096,3.976065419296826 -3.1787745727759895,3.287985427936074 l-7.227613199275746,2.4928256091386034 -4.259798322499921,0.899125137712617 m25.189234527509516,-15.405340530813564 l6.399918502353207,4.633797994646689 11.327418487118871,7.175415087666925 l2.439144113308402,1.9028921253268365 2.585451808906217,1.338895164370328 m-24.009718390381423,-4.230882529173079 l0.6309562062492622,1.099194201018328 0.14564486022219317,3.187451049097957 m-13.124564939531018,1.2307616596082454 l3.13819398287301,0.24968924352252014 16.55354308313449,-1.4175985022178772 l3.3754765097642316,-0.08840214049630188 m-6.881882194213336,1.6541724851641333 l-0.21468204003138736,0.8916462980259006 -0.4735813415988105,1.06422638155718 l-3.3936374435166905,6.377617537741351 -2.63846764296065,4.341334175673237 l-2.271488662356582,5.489050670829233 -4.014470277633159,0.4797818846210242 l-2.255353451589012,-0.3948627495304145 m4.721706540876539,-13.215816784355589 l0.279287275192473,0.7553038644520867 0.1737442920103012,1.3265871990939195 l0.4136239466083123,11.488839403511896 0.6651814915955893,1.8444153491968767 l0.8614364946528148,0.8816364086097439 1.6732522274052646,0.6284086545914359 l2.480782050441701,0.26822900235623703 5.5969036871567,-0.04936312621354065 l3.0698221913542745,-0.34445098938038476 1.2474145997557922,-0.4070076803465704 l0.844863674463542,-1.615911908167366 0.04150037435303206,-2.0719233542784687 m-37.69747820997383,10.945922690705379 l-0.29360596234619435,1.8789179591623486 -0.8090442313754993,2.3385160643020586 l-1.1345765822189162,2.486111093679498 -1.3477784488437654,2.507503793241671 m13.66921853576913,-9.985631287924324 l1.0745068029958889,1.414857795998369 1.0818738998867699,2.1121409065081718 l1.0534471985841476,2.6995726232877457 0.7629462897749413,2.7292928721964214 m7.523770982066312,-9.730037196041707 l1.3795096154623043,1.6958764808240792 1.6167776187040852,2.631354021156112 l1.2237776026800014,2.6954847441464684 0.5841473281131419,2.0507397353368035 m6.536476924671454,-8.807665848958525 l1.8864650662309868,1.8009273928422176 2.2501683080371153,2.874540220613652 l1.6401095452786452,2.826315929400993 0.8464076889229131,2.1798117363495595 " fill="none" stroke="black" stroke-width="1" /></svg>