<?xml version="1.0" encoding="utf-8" ?>
<svg baseProfile="full" height="108.77901090309024" version="1.1" width="109.49251215904951" xmlns="http://www.w3.org/2000/svg" xmlns:ev="http://www.w3.org/2001/xml-events" xmlns:xlink="http://www.w3.org/1999/xlink"><defs /><rect fill="white" height="108.77901090309024" width="109.49251215904951" x="0" y="0" /><path d="M25,25 m0.0,0.0 m10.72643756866455,5.1148611307144165 l0.1466008648276329,0.5129766836762428 0.37768036127090454,2.6187747716903687 l-0.7797591388225555,8.782915472984314 -1.23031884431839,8.335618376731873 l-1.9543132185935974,9.963132739067078 0.6121701374650002,0.8487861603498459 l3.693903684616089,1.5736225247383118 3.526841104030609,2.272018641233444 l2.648414969444275,2.3415717482566833 2.244231104850769,2.6770442724227905 m0.165546964854002,-28.971898555755615 l-0.11037956923246384,3.7461107969284058 -1.3400378823280334,6.831380724906921 l-1.7940711975097656,6.105871200561523 -2.5224441289901733,6.137531995773315 l-2.612375020980835,4.7148048877716064 -2.3415717482566833,3.3143076300621033 l-3.6760523915290833,3.9906421303749084 -3.200462758541107,2.581387460231781 m-2.580040395259857,-28.303649425506592 l1.4527042210102081,0.7462244480848312 1.9485029578208923,-0.1044983696192503 l12.904243469238281,-2.7766168117523193 9.218087196350098,-2.3417402803897858 m3.511010706424713,-5.235528349876404 l2.0552751421928406,0.17932765185832977 2.607322931289673,-0.23036375641822815 l10.941593647003174,-1.9641231000423431 4.84784871339798,0.04219722002744675 m-25.867769718170166,13.785364627838135 l1.6793839633464813,0.3049904294312 3.430173695087433,-0.03137687686830759 l20.014512538909912,-2.404683530330658 4.982239603996277,-0.4515491798520088 l1.8120910227298737,0.07177421357482672 m-18.193663358688354,-23.884570598602295 l1.0855704545974731,0.9080664813518524 0.558447390794754,1.3681623339653015 l-0.19550815224647522,52.04726219177246 -0.1613367162644863,2.2782497107982635 l-0.4348345100879669,1.0987064987421036 -0.6352423131465912,0.18592458218336105 l-0.7618865370750427,-0.4597591608762741 -2.311258167028427,-2.585429549217224 m3.104132115840912,-28.45454454421997 l-4.281991422176361,8.190786242485046 -5.261126756668091,7.481443881988525 l-5.415390133857727,5.654532313346863 -2.487078011035919,1.944461166858673 l-2.5584840774536133,1.5598128736019135 m23.108539581298828,-24.143249988555908 l2.863474190235138,5.1587337255477905 5.0553297996521,6.756607294082642 l7.664673328399658,8.251076936721802 1.6251559555530548,1.4345158636569977 l1.587768942117691,0.8169566094875336 " fill="none" stroke="black" stroke-width="1" /></svg>