<?xml version="1.0" encoding="utf-8" ?>
<svg baseProfile="full" height="109.00027799663802" version="1.1" width="107.55927372478814" xmlns="http://www.w3.org/2000/svg" xmlns:ev="http://www.w3.org/2001/xml-events" xmlns:xlink="http://www.w3.org/1999/xlink"><defs /><rect fill="white" height="109.00027799663802" width="107.55927372478814" x="0" y="0" /><path d="M25,25 m0.0,0.0 m12.58159877451884,11.164890730566691 l0.15059740470401264,0.44061333467325836 0.304845008431128,2.1422011135533 l-1.6256285308183982,9.58233164971261 -2.033432147523849,9.761634793533714 l-2.138760358343079,7.872985906903393 0.43058345653440466,0.7589751635843823 l3.9281659222019747,1.8046180424717906 3.6988934520757546,2.2142363961499996 l3.1046081330314683,2.6418923641174272 2.631787174998915,3.071527729660579 m-0.7141725289306168,-27.97139599732221 l-0.06043392430539085,3.6757377132847626 -0.9500439577303218,4.750742442780497 l-1.522971791928788,5.20324979069538 -2.1729644269999127,5.315016689387005 l-2.261554915545456,4.106697151182188 -2.7890039381060028,3.8695115122809667 l-3.344448513955299,3.5085286296886107 -2.8835231589891954,2.2693505460629013 m-2.0410800635376454,-26.423813937961626 l1.1905592811524495,0.6871769706587427 1.6684879067959306,0.001744378289266324 l18.192646507368618,-4.465229942715986 m10.614544836066164,-17.197705061781587 l0.0024872723844108946,2.1162046774242707 -0.5015319178818819,1.821438894521326 l-2.349628554361458,10.585472772355882 -2.4433929424330203,9.041543895014513 l-2.871774022865683,8.646637790283197 0.3194660523847522,4.160930786565585 l5.688515253900202,2.036646461182481 3.2783696472256265,1.6340954016352067 l3.0371128149791202,2.1368495428461647 4.966043569128359,2.284228069642872 l3.2284708419159136,1.708971260545457 2.566941370751931,1.9080571945577676 l1.97975998304336,2.133683140607231 m-6.2265729304968795,-35.91643335814955 l0.3370668677004677,2.912157698293014 -1.3446587240247443,6.538106824387966 l-2.1183764277184722,6.0700263347091665 -3.0608112054878087,6.027614379524003 l-3.201110736163751,4.509930155241901 -8.280185558067318,7.443592298878556 l-3.964714181380141,2.1803062555947603 m-1.7112142966007415,-30.172356030327627 l1.5506205002507571,0.35033007106360303 2.241252105149427,-0.0667212470854385 l14.37745935340832,-1.4696503605819478 10.870717227399643,-1.0395543671665244 l4.799481548722462,-0.08260051494623913 2.430181212759578,0.5802203419682851 " fill="none" stroke="black" stroke-width="1" /></svg>