<?xml version="1.0" encoding="utf-8" ?>
<svg baseProfile="full" height="114.55221623235676" version="1.1" width="99.1067842307226" xmlns="http://www.w3.org/2000/svg" xmlns:ev="http://www.w3.org/2001/xml-events" xmlns:xlink="http://www.w3.org/1999/xlink"><defs /><rect fill="white" height="114.55221623235676" width="99.1067842307226" x="0" y="0" /><path d="M25,25 m0.0,0.0 m7.727313062157215,19.3210975020918 l0.40924779977557957,0.39107312863761445 0.6113796791260161,2.201101830179121 l1.6353063203361913,13.867109258955828 m-1.3007183300746108,-16.031054733806133 l29.262473150642812,-2.675396701444213 2.9521412562688774,0.12554249257965838 l0.861373520457144,0.7094210325157435 0.13005592083734988,1.58446624296008 l-2.890010293249941,12.934756296914804 m-38.132520570095636,2.996752002062811 l2.297087743987253,0.22330164944486827 2.5988441033653666,-0.02717266526133555 l19.451589857075067,-2.4219374922228747 11.497239180744957,-1.0314107130023926 l7.232429529837101,-0.21667691250490817 4.7635522995318595,0.49895815849710434 m-24.47678905874435,-26.626772155850063 l0.6758206314773513,1.4342717250067112 0.17157858842587442,1.737722050020235 l0.04609073559075812,5.69991042076363 -0.4465595213730178,7.638319614703222 l-1.3028968467147066,8.14437495235502 -0.9949837342512639,3.614061350507427 l-1.2302964338851574,3.20155643441072 -1.3770147541648825,2.907581815724723 l-1.572483733634004,2.7922608624784315 -3.3065137352888883,6.3463172952502385 l-3.754563057526366,5.191348007910951 -4.928901046582688,5.0524502571539465 l-6.2221895669553025,4.968883225323976 m21.695865537507956,-23.42985216593359 l7.930009850089893,8.631300189189389 7.706788768198829,7.264303784779737 l4.760426764519459,3.8935728839987473 3.7778742378981343,2.0053605054836607 " fill="none" stroke="black" stroke-width="1" /></svg>