<?xml version="1.0" encoding="utf-8" ?>
<svg baseProfile="full" height="109.49251338839531" version="1.1" width="108.59252445399761" xmlns="http://www.w3.org/2000/svg" xmlns:ev="http://www.w3.org/2001/xml-events" xmlns:xlink="http://www.w3.org/1999/xlink"><defs /><rect fill="white" height="109.49251338839531" width="108.59252445399761" x="0" y="0" /><path d="M25,25.000001336447895 m0.0,0.0 m9.334580302238464,14.91091012954712 l0.4500360041856766,0.5549975857138634 0.8398683369159698,2.9885971546173096 l1.6362512111663818,16.407357454299927 m-1.100166067481041,-18.119391202926636 l31.93535566329956,-3.256661593914032 3.424766957759857,0.0984014943242073 l1.161949411034584,0.7837015390396118 0.4886506497859955,2.082732915878296 l-2.7821624279022217,15.361076593399048 m-45.20299434661865,4.027155637741089 l2.9641997814178467,0.3264911100268364 3.534994125366211,-0.06057122256606817 l23.48787784576416,-2.41451159119606 13.251137733459473,-0.9244255721569061 l9.098309874534607,-0.16256267204880714 6.06986939907074,0.6474094837903976 m-30.509774684906006,-33.25070858001709 l0.7431561499834061,1.7478388547897339 0.19855819642543793,2.1199433505535126 l0.03229587571695447,7.200576066970825 -0.429280623793602,9.38827097415924 l-1.446293592453003,10.201283693313599 -1.0903368890285492,4.246205687522888 l-1.3304497301578522,3.7575548887252808 -1.5670521557331085,3.329283595085144 l-1.8008460104465485,2.9627954959869385 -4.289032816886902,5.069750547409058 l-5.183488130569458,4.3367743492126465 -7.698354125022888,5.132235884666443 m24.80323314666748,-24.80323314666748 l9.589066505432129,9.761428236961365 9.017570614814758,8.299338221549988 l5.296523571014404,4.181262850761414 4.3146586418151855,2.109236568212509 " fill="none" stroke="black" stroke-width="1" /></svg>