<?xml version="1.0" encoding="utf-8" ?>
<svg baseProfile="full" height="114.411978537343" version="1.1" width="115.08120928971874" xmlns="http://www.w3.org/2000/svg" xmlns:ev="http://www.w3.org/2001/xml-events" xmlns:xlink="http://www.w3.org/1999/xlink"><defs /><rect fill="white" height="114.411978537343" width="115.08120928971874" x="0" y="0" /><path d="M25,25 m0.0,0.0 m29.811008143990787,8.452172138103151 l0.04692755903556053,0.4538079307841336 -0.42034009140125894,1.6015181515576944 l-1.681445194566961,2.927822021219336 -2.373762895219941,3.36414811418581 l-3.0130617468093646,3.4910453452684176 -3.098235107485874,2.8618402509969134 l-2.8226346522119092,2.164283679328721 -4.217964720692425,2.6591222361357207 l-3.4807341321155225,1.8724922010367133 m22.58313186921651,-19.287571989821444 l6.896048804432886,5.295788927861162 11.570951745806838,7.655193089707537 l2.318578906673548,1.2950899003380874 2.7750201521837283,1.1174739306115147 m-23.302695508014725,-8.63452343330764 l0.5526181844502287,1.1724002876932529 0.07661417124531104,4.507671712768809 m-11.673104184058051,1.2572817113961832 l2.697329549719433,0.25849901877300735 15.815541604534603,-1.4542985644550088 l3.1861753194937124,0.22877620800176016 m-6.126856264143324,1.7231869934438906 l-0.3212623136952153,0.9365402325113366 -0.5064356338462026,1.0871910163800942 l-3.295604726828095,3.279199555971654 -3.636847329224683,2.6328444043823804 l-5.578244679991365,3.0356020638412784 m2.004386300285165,-8.05112050280631 l3.5169773652715843,1.1932282048398102 3.9855657659122965,1.7784358444888633 l3.714862206039793,2.031765633706288 2.428333062282212,1.8084879483685146 m-20.31731207474734,-6.754377077578134 l0.4599974549947028,0.6314513489907917 0.23802069533876524,0.8744322350711337 l-0.1646952387203814,7.857410764279291 0.17812707068433623,1.165323755479526 l0.3778358048283043,0.4663161391226982 1.2235642163082654,-1.3984154378881204 l7.767094595035469,-2.3172143091282518 m6.14134356736598,-3.093311253619948 l2.0709238841767523,0.4082157638802739 2.1307643377792553,0.11160407910653224 l2.052364461826656,0.6433106959056535 m18.27179156701196,6.1830584594816935 l-0.03061850426538034,0.8919282936204088 -0.41450332433640785,0.5671157682034395 l-5.14052401596004,2.4514386719597643 -3.922083186369254,1.8209738199494179 l-4.333546111949545,1.5490674863445801 m-16.3187963130116,4.712077651240117 l1.2339702608948862,0.28368486342544286 2.062487308553247,-0.002881197180605738 l27.537310002407065,-2.005735622843344 2.4469394563103117,0.1755580745244662 m-17.2092839484384,-3.7666735809747323 l0.5254512541874091,0.7921964664346026 0.15935167018430302,0.9183898562929746 l-0.09363692092310416,16.288538978273845 m-1.475197283815898,-12.032393180300996 l-3.5857925789323883,3.837681833116843 -4.276733853233491,3.4361206588557103 l-4.74235359068407,2.811696820973945 -5.120371423991919,2.18999344901235 m19.6789982461177,-12.171395922166521 l15.629471612460874,10.236983143620572 1.7609394708142558,0.8790894796594837 l1.849069191548196,0.5322268621408136 " fill="none" stroke="black" stroke-width="1" /></svg>