<?xml version="1.0" encoding="utf-8" ?>
<svg baseProfile="full" height="109.49251540005207" version="1.1" width="107.28355803294107" xmlns="http://www.w3.org/2000/svg" xmlns:ev="http://www.w3.org/2001/xml-events" xmlns:xlink="http://www.w3.org/1999/xlink"><defs /><rect fill="white" height="109.49251540005207" width="107.28355803294107" x="0" y="0" /><path d="M25,25.000001772132237 m0.0,0.0 m14.652537107467651,8.010981678962708 l0.5969959869980812,0.15319827012717724 3.1366974115371704,0.1675734668970108 l10.740004777908325,-1.237022504210472 10.935492515563965,-0.8614728599786758 l4.350435435771942,-0.11052262969315052 2.42451474070549,0.27733245864510536 m-33.11057090759277,9.346574544906616 l3.6464807391166687,0.2897561714053154 22.980728149414062,-2.311508357524872 l3.751136064529419,-0.17051739618182182 1.1702965199947357,0.861925333738327 l0.35720210522413254,1.3671010732650757 -3.8269945979118347,13.396209478378296 m-35.65915822982788,-5.170893669128418 l5.069200396537781,0.1641358621418476 38.39895725250244,-2.725439965724945 l3.1857338547706604,0.002329444687347859 2.5298282504081726,0.3346172720193863 m-40.73526859283447,10.225943326950073 l3.2545170187950134,0.036425213329494 19.968101978302002,-1.9667094945907593 l5.100794434547424,-0.04460141062736511 m-13.869791030883789,-30.035417079925537 l0.6815759837627411,1.053135246038437 0.30252953991293907,1.3058876991271973 l0.020219373982399702,27.635586261749268 m-4.481090307235718,3.283149003982544 l0.06146031431853771,1.3042421638965607 -0.5692689120769501,1.669383943080902 l-3.097040355205536,5.1452237367630005 -4.375118613243103,6.196384429931641 l-0.05751105956733227,0.6601841747760773 0.604565441608429,0.3138013929128647 l5.2821314334869385,0.33198442310094833 4.315221607685089,0.5946100130677223 l6.783177852630615,1.794854998588562 8.053193092346191,3.3973485231399536 l3.2278594374656677,1.9938811659812927 2.5452959537506104,2.089815139770508 m-9.862611889839172,-22.70559549331665 l-0.3437499329447746,2.76349276304245 -2.1113714575767517,4.226692318916321 l-2.777644097805023,3.7412631511688232 -3.937409520149231,3.7445536255836487 l-4.130922853946686,2.875717282295227 -3.7438955903053284,2.0262980461120605 l-5.943632125854492,2.4508431553840637 -5.2327656745910645,1.5997782349586487 m-7.998561859130859,-16.808037757873535 l2.4310968816280365,0.34706152975559235 2.478487938642502,-0.0461672293022275 l24.395549297332764,-2.3195303976535797 14.514178037643433,-1.0620210319757462 l6.896719336509705,-0.1967892050743103 4.305019378662109,0.4465746134519577 " fill="none" stroke="black" stroke-width="1" /></svg>