<?xml version="1.0" encoding="utf-8" ?>
<svg baseProfile="full" height="110.14167780685736" version="1.1" width="108.09991445259091" xmlns="http://www.w3.org/2000/svg" xmlns:ev="http://www.w3.org/2001/xml-events" xmlns:xlink="http://www.w3.org/1999/xlink"><defs /><rect fill="white" height="110.14167780685736" width="108.09991445259091" x="0" y="0" /><path d="M25,25 m0.0,0.0 m19.581396589511286,4.623273298193058 l0.023744395842882158,0.5107428602831341 -0.2318806371016928,1.0519710464663374 l-0.7167428311129267,1.5739806851544338 -2.7003262609656544,4.422499675247237 l-3.0568230648905215,3.6478015524890326 -3.8151611988431724,3.8859040011998562 m12.1905512728063,-12.795606424439116 l4.40798147830728,3.096965416085279 2.1613971387217408,2.20708383483927 m-8.155791968282708,2.709993034951742 l0.36727353920709876,1.3639614681087553 -0.05385697144405666,4.207001533648005 l-1.185437293274771,12.997377309785005 -0.9144983942510493,3.944791145590845 l-1.4218734261407522,3.677237100669396 -1.9504949995141923,3.1677712832748686 l-2.1800456681620792,2.7540825629458947 -2.841279393588351,2.566745008430237 m4.143093550148927,-23.99680384786519 l2.1890338894261894,0.40801456006806297 2.3044017870066176,1.1278045161230712 l2.550620474765418,1.8530771796384888 1.9424868686798447,2.1194792945921077 m6.312011751765559,13.731362097840925 l-0.5305385752373769,1.374169347016433 -0.5649514491300136,1.6135057136535105 l-2.443540339973124,4.099655393228814 -2.9020888277491976,3.716249979336431 l-4.504680086213859,4.481587180301423 m3.1977904379451405,-16.58141209860269 l2.9017904732255753,2.1179338376357735 3.203606913730364,3.707449050182819 l2.9384073321984583,4.4848793808190806 1.8323442972828343,3.868224206522274 m5.505102990751568,-41.90644385820468 l1.3111410022638514,1.2011164290746905 1.2791263797170822,1.9732689698634487 l1.1410213169801233,2.2963924444768424 0.44786743333646617,1.461444882818355 m11.380591343862658,6.4101148447494 l-0.07263714213567783,1.278048824163437 -0.564486808148301,1.6725867540596628 l-3.120034863544641,2.905922127317995 -3.400651023422504,2.5325932424506985 m-2.7152152340851186,-14.58331611104995 l0.356713379093308,0.9046144803795055 0.1099979236129977,1.325139635578953 l-0.37438667894358874,9.259066470874476 -0.7739746037693688,6.616186252442224 l-2.490736349349798,5.545656242179793 -2.0513939071689666,2.3636164975732985 l-2.499774052264826,2.097841539581765 -3.701824208952181,2.1902325608503994 m12.915037450250141,-17.9283274042593 l3.9993866640610314,6.760496839447129 4.176866782607213,6.135547797985335 l3.128665189621274,3.7647553041913664 1.118171680404812,0.8838158420294787 l0.9174189831173207,0.2638568354143124 " fill="none" stroke="black" stroke-width="1" /></svg>