<?xml version="1.0" encoding="utf-8" ?>
<svg baseProfile="full" height="116.19852865413003" version="1.1" width="103.42523392896672" xmlns="http://www.w3.org/2000/svg" xmlns:ev="http://www.w3.org/2001/xml-events" xmlns:xlink="http://www.w3.org/1999/xlink"><defs /><rect fill="white" height="116.19852865413003" width="103.42523392896672" x="0" y="0" /><path d="M25,25 m0.0,0.0 m19.253305248027527,0.8954858216900325 l0.0507705254037064,0.6136991599253304 -0.13252147879310514,1.2964358903894526 l-0.982003596813765,2.9596978474087634 -2.927878788885832,6.560057808522275 l-3.383101201788078,5.824805842242027 -3.809600540312426,5.197794657001371 m8.106574188164334,-12.282400740649452 l2.309266914347495,-0.3469314288008217 8.689571865502359,-2.95146566521094 l1.5726869534769923,-0.002355591586850562 0.43973976139720056,0.47195017813489204 l0.18450879659268965,1.508253840662022 -0.29388003342252494,4.48185043992057 l-1.4039941925352246,7.690768794544289 -1.6172848320329571,6.753957397130552 l-2.143177369899316,6.656143206438592 -2.155526809390742,5.6549467535539275 l-2.073510084819378,4.617428797340604 -2.093626292748141,4.074284735478911 l-2.0797960459974028,1.2012028806564283 -1.8205791939871057,-0.7841990789449832 m4.642759043108522,-25.959773106965457 l1.1317424621377459,1.249922483398364 1.610579470956048,2.369991930148415 l1.2423789307223783,2.1808986182936603 0.571589380641517,1.607150817834321 m12.564920788462787,-19.322490038564116 l1.6131374563932472,0.1618878138960501 3.8749594135958403,-0.14687025644164423 l9.372261581427992,-1.2627266697301105 1.3101549330493707,1.9820067661390344 l-0.17377157811414454,4.977626559826469 -0.9673156017456219,8.065710597699406 l-1.2985078045791112,6.656275245944238 -1.5200007458731006,5.72736275296071 l-0.5931549139527008,1.4167252442651361 -0.6410749020688029,0.6801356314385912 l-0.6457391469812671,0.16462391768347553 -1.2303982208104862,-0.2148860051140468 l-1.4411917935222398,-1.16583789148136 m-8.123714290297404,-26.136730869508877 l0.42615271357882883,1.9359333850188305 0.1542336396816513,45.19152147720318 l0.2493187182894646,2.0698204068732853 0.2324348172442671,1.2258839125042313 l0.446500015377645,1.0545978018064976 1.6941048685431928,1.1411907011971907 l3.064162179615966,0.45716588195755803 6.662331195533132,-0.08095809822800945 l3.755138081818371,-0.6426229835978229 1.4957775239313982,-2.299380700875515 l0.25552192131594015,-2.58513595091699 " fill="none" stroke="black" stroke-width="1" /></svg>