<?xml version="1.0" encoding="utf-8" ?>
<svg baseProfile="full" height="123.47431248275635" version="1.1" width="102.2812511375061" xmlns="http://www.w3.org/2000/svg" xmlns:ev="http://www.w3.org/2001/xml-events" xmlns:xlink="http://www.w3.org/1999/xlink"><defs /><rect fill="white" height="123.47431248275635" width="102.2812511375061" x="0" y="0" /><path d="M25,25 m0.0,0.0 m27.479397797441422,5.17268254285592 l0.31185514695327987,0.4347583518852104 0.48133448348216246,1.6825623886139445 l-0.03876828237717644,6.362854266068985 m-17.338006592129588,2.208184677717008 l4.137641623652533,0.11828774091240078 26.574776144295946,-2.9182907322147678 l2.200769131942828,-0.05139906579029548 2.016908999625624,0.28856591356616024 m-20.490978382369647,8.629391516926898 l-0.00766374732589037,1.8085052214021085 -1.6459446935649829,3.699098178550502 l-2.5246238708103506,3.9985014128301897 -3.192264219114168,3.698394333769664 m21.390287119566402,-6.386780908007766 l4.2168497472154955,3.1742647065664973 2.1360525899360696,1.9691475334744293 l1.3733235320978756,1.5700483156314826 m-8.399802498877534,0.29076205231857766 l0.06361858527693845,1.0483423962434801 -0.3265078911519155,1.221940312232202 l-2.267236246899585,4.419341498194466 -3.0212610693110835,8.85581429067634 l-2.912945195990294,6.576614231572309 -2.6289305873799065,4.476686374573691 l-3.1006612890733285,4.050272073031245 -3.590285355070136,3.6668914533745416 l-3.88345465210231,3.4088714057809355 m7.347226752411529,-28.793620084609127 l1.3805720047319958,0.9868011401254723 2.7746681997001468,2.9824113786460886 l12.898863371117383,14.826723964884497 5.282025450219742,5.63391621521606 l2.790711241674851,2.4814106189513634 2.793703789711751,1.4648810676078523 " fill="none" stroke="black" stroke-width="1" /></svg>