<?xml version="1.0" encoding="utf-8" ?>
<svg baseProfile="full" height="97.95251856720388" version="1.1" width="91.95192949452232" xmlns="http://www.w3.org/2000/svg" xmlns:ev="http://www.w3.org/2001/xml-events" xmlns:xlink="http://www.w3.org/1999/xlink"><defs /><rect fill="white" height="97.95251856720388" width="91.95192949452232" x="0" y="0" /><path d="M25,25 m0.0,0.0 m17.18655725459996,3.924161533965019 l0.41443379696746346,0.3912291715321481 0.43761129260739706,1.0328160520232168 l-0.014502394279401962,13.542069380892144 m0.5876584009119168,-14.148828051969113 l13.059516860311648,-1.4063495782642172 1.9290478208440571,0.07469744238924637 m-15.10140168834956,6.057435971064594 l11.323357727535933,-1.3435516747213 1.9240311544149837,0.03194909867424921 m-13.119725683566696,5.412775523141178 l11.312121387492342,-1.0919939444586413 2.3026855473079375,0.06237195886777497 m-22.629502218826747,6.315731495944334 l1.8146376657016394,0.11660408537187798 2.8888119082662005,-0.17424842340243815 l15.667897071231094,-1.5750574133023545 3.3421781698852793,-0.10416686822784461 m-14.070248718965296,2.122332166619954 l-1.5833172992862692,1.178592812275772 -3.05665742552409,2.1204717088204568 l-3.4104017032828393,1.5872383184059737 -0.5579872306286512,0.27131109998028186 m-0.5684762704166436,-5.018092704208153 l0.7039639728466842,0.5395694008734633 0.3469471080362509,0.5303506973276907 l0.4894178685650853,5.86523676791273 0.5524212380614565,0.42372264872644155 l0.7871953058344713,0.06316974515516632 8.30556274703413,-0.33355578432194477 l1.3504593109689504,-0.2181156854936259 0.6738785237265064,-0.20554451301535245 l0.7215342132118286,-0.36821465432173356 0.3642040786828459,-0.5287719148310972 l0.14939993307476024,-1.4146735894907876 m11.28320862497381,-16.219334489338763 l-0.05431727164413957,0.6564543868216413 -0.42467601259046234,0.4908836464185635 l-5.757229841819008,3.2475561913321838 -3.8024033155455177,1.406835056825448 m13.355616248905445,-1.4811488038503022 l0.07056713760062264,0.2932759240233836 -0.39900288183601823,0.5190583089222139 l-4.767370715099187,2.8005219034214583 -3.9045719405037436,1.6920449884108164 l-4.63860080164969,1.4317213959515345 m16.467400538735586,-2.7275779830355673 l-0.06459245766303803,0.6804213962950026 -0.9828017284424674,0.7250382992053147 l-4.77112657582822,2.4971704050285237 -5.123584789342952,1.8749026752716635 l-5.813907056773793,1.5173411236960657 m-17.244636291682742,3.247118819480761 l1.0355595414393206,2.4670395872515782 0.9884762080406619,14.981554905638085 m-1.035296469908442,-16.187298168313184 l25.990671832678746,-2.2576838595323747 0.9769442903025773,0.17322114857876977 l0.46750953418932,0.33286690934951585 0.3136928507885052,0.9638412702202254 l-2.373707674698176,14.008800301603143 m-24.484177820618296,-7.166119022655391 l17.96021201267994,-1.7635703566643808 m-16.775182006518843,7.90033589455681 l23.092106308540398,-1.5046608820255527 m-24.025421555079998,9.61923531438159 l12.649354600711039,-0.9669035927134167 11.776965180179072,-0.5981040260733549 " fill="none" stroke="black" stroke-width="1" /></svg>