<?xml version="1.0" encoding="utf-8" ?>
<svg baseProfile="full" height="99.59252562377847" version="1.1" width="104.60237080403674" xmlns="http://www.w3.org/2000/svg" xmlns:ev="http://www.w3.org/2001/xml-events" xmlns:xlink="http://www.w3.org/1999/xlink"><defs /><rect fill="white" height="99.59252562377847" width="104.60237080403674" x="0" y="0" /><path d="M25,25 m0.0,0.0 m14.742162285552295,6.465951554373876 l0.33620136877148943,0.3963205577987461 0.4544571638045186,1.4795823144816307 l0.7385612445699499,7.004691489528467 m-10.865147972894622,1.6910525810260302 l2.5243873537431085,0.005408014176871952 13.95053065722632,-2.3647666686133655 l2.4244346426952417,-0.17039333609280874 m-9.114282696689816,6.549073508874967 l4.451508382234872,1.3813631329772182 2.006400164468541,1.0657908364507365 l0.5190052853189439,0.9236516634448657 -0.009545944662224665,1.242030836933068 l-2.9391510162642547,7.399484798243555 -3.3925595661505237,4.058570306850558 l-2.1901573827536134,0.13948983938901355 -1.364904352848292,-0.8631741517494886 m3.59006818177218,-18.81110887852075 l0.005458342786350343,1.4061185818917379 -0.7777929594340268,3.839325298321276 l-0.8572071541275174,3.349447115671445 -1.1828364163585021,3.4311276790873038 l-1.2740992443838013,2.7396647508510146 -1.6182197222788441,2.723055632155593 l-2.0078259559020366,2.5928392035641994 -1.7282281621374296,1.7653722268275118 m26.75442882297036,-32.09734143691195 l-0.09141643077424208,1.7719866392917107 -1.7224105718425367,4.35168886379264 l-2.1151887785446575,4.1177883199183745 -2.5885990802294643,4.381145819069087 m5.572892464033488,-6.300644211918131 l3.152463008229445,0.1525306910719635 11.448407676131389,-1.6367651184098593 l2.342454467298885,0.048032640408833795 m-20.110145748171554,10.579721160952388 l2.789595931658128,0.11960397861940837 13.189437740824356,-2.045948882439622 l1.197146787097375,-0.04909369581642152 0.7128442722017262,0.22250727726352573 l0.054438857377368234,0.9959569126638851 -0.5421423863497935,0.6217229443468217 l-7.318784996963794,5.949870479523304 m-1.3344801869057223,-0.3151752135817527 l2.1225075439188434,2.299287648828289 1.694465438122289,3.1647547459301455 l0.8362383354605053,3.0684828071130097 0.17683907025697929,3.220811346783857 l-0.6595663902716943,4.053221957376669 -1.3225872332292017,2.8980592611708587 l-0.5855252676972991,0.45276796786381585 -0.5988021240559269,0.12758383292435813 l-0.6127093775938725,-0.14948029635137666 -2.1576914659790742,-1.6287344423564014 m-9.147024855446798,-12.00354395046337 l1.547860165497576,0.24135148393687975 2.1835580484194894,-0.07246141928285132 l16.69050282516765,-1.9207585820239628 4.53275037253123,-0.10217985300022316 l2.0893973448369856,0.25200831225104525 " fill="none" stroke="black" stroke-width="1" /></svg>