<?xml version="1.0" encoding="utf-8" ?>
<svg baseProfile="full" height="86.3231329432496" version="1.1" width="97.67789925692303" xmlns="http://www.w3.org/2000/svg" xmlns:ev="http://www.w3.org/2001/xml-events" xmlns:xlink="http://www.w3.org/1999/xlink"><defs /><rect fill="white" height="86.3231329432496" width="97.67789925692303" x="0" y="0" /><path d="M25,26.0341800704197 m0.0,0.0 m5.599399359607681,17.567066676870514 l0.08705128356675564,0.3773497679390761 -0.19641256192445783,4.75442508932786 l0.41940552175181145,4.974350438536884 m8.270662398811771,-11.105400893936627 l0.28605704543701455,3.2973421903306144 -1.1571064957947013,3.9349798071965125 l-1.526745863169527,3.603220953636055 -1.6000533703849302,2.860005857466951 m7.229205542919965,-20.836186028091944 l1.0007993447228987,0.8076578565757869 1.34102248772795,1.6097034133116679 l0.809444151986398,1.6926016919278146 0.4502759577287952,1.2857696818190294 m10.501258486795907,-15.857066573329895 l0.8761313134593285,0.8117674486777979 0.59867244658028,0.8596390143054516 l3.566951369468095,5.098372387410408 m-11.768633222243734,2.5071223086804517 l1.2075596907952086,0.20963519207478354 14.851271872376223,-1.3433231457907737 l1.4859412016367002,-0.05707590554170802 0.8696698926616934,0.19931451199240086 m-16.107433905447078,5.5513998623140965 l0.849824748623528,1.6758827714931037 0.8528408641451504,2.1734375380711293 m10.514775164625469,-5.822560708580627 l-0.12748003846796493,1.6326429189323293 -1.9444760077830474,4.75113296137188 m-15.87317217560086,2.7101921855803583 l2.261998462851342,0.14371238424405286 19.083515886675933,-1.6164732542514393 l3.334229495204717,-0.11942946547606956 1.6314489075787193,0.166695403096913 m-22.001231828404855,6.287206824422069 l0.5333680598379071,0.6192998543522769 0.46906548037316936,1.4531338326963317 l1.2277352782671427,8.431408023174393 m-1.2364166522520872,-9.943256340594697 l13.229133408202612,-1.507810608598679 0.9956968734415059,0.13103014064139581 l0.5070401613061677,0.6808030435786706 0.011502032235214038,0.4988732399196561 l-2.0531233242865823,7.383927686966863 m-11.466293085697272,1.4627907525395702 l12.325320904886745,-1.1025412304570439 " fill="none" stroke="black" stroke-width="1" /></svg>