<?xml version="1.0" encoding="utf-8" ?>
<svg baseProfile="full" height="100.44511946181606" version="1.1" width="112.73982455131213" xmlns="http://www.w3.org/2000/svg" xmlns:ev="http://www.w3.org/2001/xml-events" xmlns:xlink="http://www.w3.org/1999/xlink"><defs /><rect fill="white" height="100.44511946181606" width="112.73982455131213" x="0" y="0" /><path d="M27.831732968025232,25 m0.0,0.0 m11.720196602035735,14.58728542875163 l0.4419597794688008,0.14916694381333 1.651572283989137,0.1079535571856247 l13.903721049921929,-1.729051728550323 2.3216683919597982,-0.14021401727834415 l1.4543114703755906,0.2181584177196075 m-10.613619167305002,-4.383584774946576 l0.522900795445099,0.7229252050610441 0.20404437110076076,0.7238083976022548 l-0.0373116340870537,16.605151701118384 m-9.316175041636331,-5.632207238844283 l2.399691366547824,0.22304395180198264 13.551702684599684,-1.728832071410949 m-19.77950981677836,9.441662472897534 l2.0899303428008866,0.21839593323475895 17.571429515745773,-3.8538463966892755 m16.95652446253065,-18.19808200447574 l0.21947001428533738,0.8245359521432523 -0.9053875261017997,1.2783114759137486 l-2.0474675279670023,3.826694976978925 -1.93479442126474,2.8332710654530424 l-2.399903826095348,2.377141370806176 m5.1698048304631055,-4.431099323695648 l2.3218752669961193,0.07975600306529153 12.1271313198239,-1.753911533252221 l1.4629929168016893,-0.06096694566601961 0.5809423289374509,0.19836070665857658 l0.27039075069325763,0.37818916043939177 -1.1072263015215393,0.9513925588285921 l-2.427302634424618,1.7375823017803966 m-9.726212283646474,-1.1687797886347588 l-0.061866459468428225,1.2938862581614607 -0.7683012963960668,1.7172984864221563 l-1.454474033559406,2.345384236317344 -1.9117552362719898,2.4477741439846614 l-1.895096889512228,3.5327922462646875 -3.4756233593628836,5.521814466562984 l-2.234970961995738,2.7065264636624256 -1.8311234838485442,1.8014450465019576 m6.257360180556482,-13.73905503104876 l2.547810659860995,4.511632389967988 3.300923584633711,4.7967878821231595 l2.9496575899093225,3.2629973815095785 2.674142658993468,1.823027838383945 l1.6042798642930616,0.8763738879538642 1.3786138693919532,0.5092172694595659 l2.363291610502363,0.28671809454842123 1.9924208162461168,-0.023972235202899324 l0.699647274401928,-0.20895653884578086 0.3692953102352961,-0.5184927621901438 l0.03877544211845811,-1.0592187368356776 -0.573147304968714,-1.587671995868326 m-41.67155577518249,-10.55335071551304 l2.2181146345561564,1.104028201853439 2.2302460689319887,1.4903090014193747 l1.8053890020204917,1.5903490515125767 0.9607135510753391,1.3166527732785263 m-25.844784130074,-6.405363369642214 l2.017009131222398,1.1018652759537095 2.2778451624710963,1.5705759452911652 l1.7510538438646013,1.4900675071261753 0.8015351416359846,1.1877475452541468 m19.130131930085724,-6.433686214030265 l-0.029542491148894002,0.8295913601766988 -1.2884796564844592,1.7243232463289027 l-1.7892345147402926,1.7843521429950366 -2.415183205223811,1.987860118664615 m-0.8890436451069196,2.835948725872647 l1.23210515096486,0.7962919977461125 1.4150782456360016,1.1887586533376415 l1.7226355862627034,2.196494123132847 1.2957411350782384,1.7750457782335916 l0.9590586983229582,1.7454496686301415 0.7749152486285905,1.8273883295373916 l0.5932263515677569,2.7951781474394264 -0.28194430156912537,2.762914712287193 l-0.9826793828226738,2.361399132208111 -2.0955656498511748,1.676407773080091 l-1.4096394115590718,-0.10000407222464835 -2.509025757888922,-1.127899343005503 m-21.427064128151677,-16.316869653574873 l2.0660430103321046,0.5274256675052221 2.5116366138486654,-0.007719454569947814 l36.70569588185334,-2.222414340730781 2.9886513371765115,-0.03440901316983548 l2.699050020295502,0.27974623118142333 " fill="none" stroke="black" stroke-width="1" /></svg>