<?xml version="1.0" encoding="utf-8" ?>
<svg baseProfile="full" height="108.87944563818573" version="1.1" width="96.34061123385133" xmlns="http://www.w3.org/2000/svg" xmlns:ev="http://www.w3.org/2001/xml-events" xmlns:xlink="http://www.w3.org/1999/xlink"><defs /><rect fill="white" height="108.87944563818573" width="96.34061123385133" x="0" y="0" /><path d="M25,25 m0.0,0.0 m24.58501091321791,14.57485732032343 l0.5061112007022873,0.4297917779598471 0.5180727629864132,1.2649350587301016 l-0.06657913903685547,14.058211040364833 m0.9394643335996163,-7.789115371192096 l13.401816761390807,-1.2400299376160144 3.4527184029192526,-0.08055360270226264 m-34.59368536295294,10.540305035252368 l1.900827806652306,0.8059993295849883 1.5876904401130794,0.1475247273254584 l14.633369960216918,-1.5758774459852316 13.39983763230304,-1.670498453453439 l3.4117188856070384,-0.45877442037841193 2.6642366361324625,0.21900899083256348 m-20.93089631795074,11.340571609253756 l7.01558339589676,-1.5921326037708428 6.383319442164271,-0.31510836603991926 l0.8589945765265679,0.2775544517178713 0.6987078928750312,0.8688630019668948 l-0.030767766763634824,0.5118234713957354 -1.3547054506367844,3.4086815845932565 l-2.89588109394617,5.489033412082607 -3.0693520821761924,4.704456636751807 l-3.351819706616356,3.795175863660558 -1.560222066428068,1.0446410952286704 l-1.2130300271614574,0.12010143229921148 -1.0404835491219986,-0.681887241000419 l-1.2926073001095388,-1.3146990648632517 m2.9094102960164503,-24.348468465056047 l-0.020051017042749635,1.536776938061399 -1.3646899496408345,4.2255632780375425 l-1.8842471247647734,3.746410099307425 -2.55952336191647,3.872799792022389 l-2.614023828129665,3.18927141680657 -3.1734239258858588,3.1557973242925716 l-3.6980259321267983,2.916209933283048 -3.040721291709727,1.865069576254657 " fill="none" stroke="black" stroke-width="1" /></svg>