<?xml version="1.0" encoding="utf-8" ?>
<svg baseProfile="full" height="111.40386668260186" version="1.1" width="98.8737039392918" xmlns="http://www.w3.org/2000/svg" xmlns:ev="http://www.w3.org/2001/xml-events" xmlns:xlink="http://www.w3.org/1999/xlink"><defs /><rect fill="white" height="111.40386668260186" width="98.8737039392918" x="0" y="0" /><path d="M25,25 m0.0,0.0 m25.016583922967826,1.0777669819892728 l0.41386026474844423,0.2554302945895437 1.422825981853161,1.1847367221550833 l1.3381039117596452,1.809122796546806 1.449852167296917,3.272512250573259 m-21.69908295908962,4.555438872567586 l3.2632518407070976,0.2860230928382898 31.365762158479086,-2.942201453860033 l4.323046336210305,-0.17374271337400118 1.9795003143589298,0.3706559542021122 m-27.90457247552938,3.641291591205947 l0.5960181489538019,1.1746119804002424 0.07114104623763998,0.7115570489352036 l-0.5950481223276851,2.8141297542121766 -1.2556518129756145,5.807292307182981 l-1.2926420776005614,4.69380869535866 -1.3337086341508566,3.479108172775324 l-1.6312271898495578,3.1622139893699317 -2.066288668014284,2.8749665654476795 l-1.9605291577687618,2.019243588232077 m18.119692289472038,-27.442913783547155 l0.8013558403838352,1.230335379770906 0.20521771539173164,1.6315809677047002 l-0.08695168000550377,15.370954468805781 -0.20906406143535464,1.9153323512936211 l-0.4751230669875748,0.8091244666562686 -0.6481600183462639,0.09833589076696786 l-0.7758877229034059,-0.4344106576569893 -1.9750410260684543,-2.0108112511362477 m-14.061411744524218,-10.459148488491271 l-0.04699165178090492,1.3102726803100913 -2.7593666128321686,4.915152067381247 l-2.932020485938638,3.8540625471717087 -3.237012447707815,3.4053806886687834 m34.60511709167873,-13.527008884497846 l2.024265069229256,2.0203178604184595 2.266790550355162,3.0967441631081924 l1.8713426617750066,3.3397325879178483 0.809447029295023,2.19558762476312 m-23.72054891149511,3.2721458647081025 l-0.05946418018459695,2.2437596456191944 -0.9088994946317817,2.788192856317722 l-1.7321230112617836,3.7086409693294966 -2.393253476482084,3.8920698672343446 l-2.379509075202061,3.0753674929929744 -2.783867293229885,2.885281966586023 l-3.1792148283090063,2.540813771796339 -2.5932548885066846,1.5784672730391016 m17.26884467756002,-16.309411335569393 l3.011066142250063,-0.31143857693662264 8.133305192063812,-2.489239711373289 l1.4838982650239425,0.1175757286998494 0.26565839393664903,0.5069604940388223 l-0.022922656494814276,0.8687519697267363 -0.3237522104757275,1.146336645636978 l-4.099195625468424,4.065377224835013 -3.896574405814187,3.1560092612913935 l-4.462059069942001,2.3303101018864076 -4.690629013915578,1.762986648246088 l-4.153633265126491,2.8565790775971127 -7.775219820484974,4.880643209387077 l-3.4297256698181013,1.4450990667560677 m10.992868628098753,-20.773039303794175 l4.6755906702936665,3.754320011551345 16.192811752888023,4.978621957860483 l6.6773684329794945,2.5805588136635986 5.692495610098072,1.6082807950984785 " fill="none" stroke="black" stroke-width="1" /></svg>