<?xml version="1.0" encoding="utf-8" ?>
<svg baseProfile="full" height="109.49251368641853" version="1.1" width="108.40091995894909" xmlns="http://www.w3.org/2000/svg" xmlns:ev="http://www.w3.org/2001/xml-events" xmlns:xlink="http://www.w3.org/1999/xlink"><defs /><rect fill="white" height="109.49251368641853" width="108.40091995894909" x="0" y="0" /><path d="M25,25.000001373700798 m0.0,0.0 m10.292041301727295,15.830597877502441 l0.6395981460809708,0.10409804061055183 3.795561194419861,0.11213274672627449 l26.035633087158203,-2.7044740319252014 2.749812602996826,-0.06143020000308752 l2.0388735830783844,0.285673625767231 m-42.31307029724121,17.81127095222473 l4.09964382648468,0.35517163574695587 38.89964580535889,-3.193354904651642 l2.86141574382782,-0.08448032662272453 3.3307838439941406,0.31858500093221664 m-25.586748123168945,-28.773791790008545 l0.688336119055748,2.281857281923294 0.1504741981625557,4.570778012275696 l-0.23519180715084076,8.37304949760437 -0.4352869465947151,5.095594525337219 l-1.5765687823295593,9.123190641403198 -2.573578953742981,7.848939299583435 l-3.6376920342445374,6.751274466514587 -4.76784884929657,5.830902457237244 l-5.966521501541138,5.090649724006653 -7.230178117752075,4.526277780532837 m26.400461196899414,-29.47448968887329 l9.305782318115234,10.28018832206726 8.768603801727295,8.649937510490417 l7.302932143211365,6.068941950798035 3.97885799407959,2.6325589418411255 l1.3851484656333923,0.5786756053566933 " fill="none" stroke="black" stroke-width="1" /></svg>