<?xml version="1.0" encoding="utf-8" ?>
<svg baseProfile="full" height="119.24496342202606" version="1.1" width="105.44333566172017" xmlns="http://www.w3.org/2000/svg" xmlns:ev="http://www.w3.org/2001/xml-events" xmlns:xlink="http://www.w3.org/1999/xlink"><defs /><rect fill="white" height="119.24496342202606" width="105.44333566172017" x="0" y="0" /><path d="M25,25 m0.0,0.0 m11.469248707440617,14.637498492660383 l0.12750976251173152,0.4711536217027346 0.3879498664408219,1.9558661845119836 l-1.7416040686904126,10.077593070463346 -1.9163939980446736,9.332705753923614 l-2.277706641281841,7.849882180006313 0.4582091958936753,0.7542637032217869 l3.8738816782804166,1.8727834067183848 3.4854984942633047,2.401693035881857 l3.1167960005485993,3.0070197100593266 2.648339659394275,3.3433950034220983 m-1.0024666204546724,-28.27946984829741 l-0.09143692801238876,3.7116357671075417 -0.9041488221524437,4.740995588046824 l-1.4578388289311213,5.205192660683993 -2.092682767494963,5.281386980861112 l-2.2066311881474445,4.055957734358722 -2.713175393289014,3.8040271321684735 l-3.2612947525625455,3.4444534511515115 -2.807279172306798,2.245262320404103 m-1.930858596674065,-26.13206771426687 l1.1383993928061937,0.6749274753404936 1.6130919961790942,0.0014801402592245637 l17.352682820291243,-4.393560642305991 m10.933935814371791,-17.392974355735515 l-0.006134285426859175,2.067954201813317 -0.5137908626223282,1.8580502395834322 l-4.804806516972733,6.5065074375671745 -5.088802156489588,4.190307921824104 m8.845097414656387,-7.129711910275531 l11.740486755522156,-0.6530060997893046 0.8997822219321964,0.1299305895996948 l0.42822298263637815,0.3684628816809289 0.19682235654121893,1.0001094781909123 l-8.040841837374533,9.857408951248539 m-13.818198581908565,2.105166661219174 l0.6279044682412908,0.9254792459647201 0.6958234783356484,3.004478083872386 l1.3608862544909233,10.579332019468515 m-1.9207872374483137,-13.462802256350807 l11.099127885155532,-1.8538718394068945 12.834341136927527,-1.416075768921015 l0.816733510192978,0.08720160891140277 0.5653210696972518,0.39501831763626943 l0.32861323426463424,1.1210768597289003 -1.2702189480544437,6.8606103228689035 l-1.4853566329391177,5.658962150873675 m-11.702766273227518,-11.521509229564897 l0.5482181917075893,2.0953895353833243 0.014053756803452591,8.70274666143381 m-10.83780164630697,1.403768854020362 l22.63209100237874,-1.9811997741273675 m-13.318220805653361,4.28143636867281 l-0.022069679192192146,1.922951216783304 -1.1274266756462,2.994893279718385 l-1.896235887205602,3.392860595278211 -2.741827750379602,3.792704065127875 l-2.8025890963892284,3.05168087911383 -2.4800367977833484,2.1563914592048015 l-3.5914957022609677,2.492541207302995 -3.0563474815092637,1.588618354022117 m22.665685125457014,-22.418431050334135 l0.5996459077955716,2.5347775206577614 -0.13181963375859224,14.13897807270693 l0.40332470869569,2.0157791401080933 0.849871088361956,1.4085778381726306 l1.3981279864358023,0.9799835020054021 2.181153918215016,0.5930557465892896 l4.343848935126008,0.19264251710486252 3.648641250084253,-0.3120595304929431 l2.3777418442610787,-0.6007297505730278 0.856466869379584,-0.5940160102920983 l0.5601012129278597,-0.8604887619120349 0.2859817164268397,-1.1666890192184096 l0.09476825723953575,-2.3746092249455066 " fill="none" stroke="black" stroke-width="1" /></svg>