<?xml version="1.0" encoding="utf-8" ?>
<svg baseProfile="full" height="110.40658565364532" version="1.1" width="121.19191841151672" xmlns="http://www.w3.org/2000/svg" xmlns:ev="http://www.w3.org/2001/xml-events" xmlns:xlink="http://www.w3.org/1999/xlink"><defs /><rect fill="white" height="110.40658565364532" width="121.19191841151672" x="0" y="0" /><path d="M25,25 m0.0,0.0 m24.33415591926581,12.52802137468041 l0.05447649124009806,0.43256186294027876 -0.40180406037208144,1.6424367863835294 l-3.1922305402392714,3.945247053104435 -4.006376498786813,3.40194526470217 l-4.877559005845606,3.4705972825183706 m10.760177511550692,-7.251845062990149 l3.683885260031874,0.10626855962140899 26.313959520892908,-2.031057455310739 l3.8153287062132266,0.12287132618731089 m-39.14570563604553,13.675725112280622 l3.94425752359057,0.22218202968960743 26.942309296192985,-2.1342515776042226 l4.491271838758997,-0.2373135658295303 2.498893587164063,0.19423664506508745 m-45.12415008959293,2.859882736704978 l0.8942004588588154,0.9512577730625029 0.3527926515270391,0.9316412221382044 l-0.3214499290887876,10.609340534540133 -1.0331589573251465,6.059336401333962 l-1.2387369458267095,3.7224510181966863 -3.9630261919362035,3.610849473024408 l-2.9191593945894145,1.0897985601731885 m44.510220671649336,-25.7535798115633 l0.39503245977227885,0.4128220641146747 0.32402808415654694,1.0429941576402046 l-0.011876464192564391,11.80934516214155 m-21.44060782709417,-24.14787951306658 l0.8406157149585555,1.107539786099374 0.15496766337061837,1.1078378691756274 l-0.3184156838663635,33.56080104441283 0.2664630050892593,1.8020344545261504 l0.6053453523780586,1.0061320079733336 1.4687587663584694,0.5363550775788193 l14.222993676497284,-0.014121513358707313 25.046238137003122,-0.42480094127542917 l3.2658033397977064,0.24202782221594688 " fill="none" stroke="black" stroke-width="1" /></svg>