<?xml version="1.0" encoding="utf-8" ?>
<svg baseProfile="full" height="105.0836479480799" version="1.1" width="95.7973821394931" xmlns="http://www.w3.org/2000/svg" xmlns:ev="http://www.w3.org/2001/xml-events" xmlns:xlink="http://www.w3.org/1999/xlink"><defs /><rect fill="white" height="105.0836479480799" width="95.7973821394931" x="0" y="0" /><path d="M25,25 m0.0,0.0 m30.463813434741937,5.153927839594996 l0.05700158389015051,0.5239242651741556 -0.275654470458577,1.8345169491737363 l-1.2998673241389904,3.024475799227343 -2.098167293382566,3.8103651144575226 l-2.5196690383495,4.118473962802507 -5.069180049637618,6.589568117440928 l-3.261423538981004,3.3532799850814934 m14.698071788090928,-15.107534162634002 l2.5799772605098896,0.16121662556895044 9.180751641842573,-2.810701926666648 l1.6492353466356757,-0.087219890132716 0.9076378080566878,0.32867994793705213 l0.5608339182892692,0.5585905028988578 0.22402107238422847,1.423901155828581 l-1.719107397945104,5.688860306137251 -2.677388856996202,6.335361495106558 l-2.7962713954973126,5.656966203923313 -4.143556888732768,6.647490824082364 l-3.6174910130994817,4.600422046572163 -4.05551147760366,4.185365822950271 l-4.377951657910029,3.642316003555498 -4.775053448708194,3.024712160757407 l-5.1523415349329245,2.426688799242313 m13.834648971869733,-28.865282311424085 l2.1085440902795627,1.0833153250380414 2.5291645793400375,2.076964292620365 l2.1690098744663455,2.269403595038047 0.9062052681549855,1.536653842129854 " fill="none" stroke="black" stroke-width="1" /></svg>