<?xml version="1.0" encoding="utf-8" ?>
<svg baseProfile="full" height="120.09312874932385" version="1.1" width="96.72619485073818" xmlns="http://www.w3.org/2000/svg" xmlns:ev="http://www.w3.org/2001/xml-events" xmlns:xlink="http://www.w3.org/1999/xlink"><defs /><rect fill="white" height="120.09312874932385" width="96.72619485073818" x="0" y="0" /><path d="M25,25 m0.0,0.0 m18.71152349755091,3.5574553343281132 l0.05466443039350731,0.49334881555095367 -0.08796014650749753,1.0790734339007286 l-0.852924752655073,2.303745340380566 -2.961425120282497,5.777673748681927 l-3.296505288419267,4.754439302251196 -3.9327590394895298,4.271243502953939 m9.905003551224212,-8.780690215111864 l4.8202868796174885,-0.39795011161323085 15.105075571900285,-2.344652533988299 l1.4869841017301277,-0.10921409185849264 1.1921426910395099,0.2476577162829236 m-35.716826524675966,18.327973482890936 l3.213283931776055,0.39017360869167683 12.787226671428597,-1.4021686907338775 l16.491102429409025,-1.6312157414631556 7.376950439160557,-0.46104491745311316 l2.430351527537733,0.3472137946597417 m-23.124098588774366,14.819563153387815 l1.97836077135269,1.2050806294022915 2.5810927776859085,2.141122616067596 l1.9593970521094968,2.106907505855536 0.7682891419322643,2.0251267247492613 l0.06434004149872831,4.67460311669218 -1.5800123042035443,5.877449594149971 l-2.2282467094833462,5.070674345053596 -1.355675482249538,2.451395316228291 l-1.2431946164258396,2.004919429070693 -1.278165216078197,1.2932245403159426 l-2.148155893074394,-0.31998230023983815 -2.116200862528583,-2.0427932794785653 m1.572256921442896,-36.56729357937036 l0.18471234005760645,1.2605020533228117 -0.14338449902786715,1.4107364926645327 l-1.1831751515812363,4.737053388948018 -2.092058028616343,6.867918527219663 l-2.558626706521722,6.643107312387881 -2.5223541336345368,5.270223587579654 l-2.969895525076635,5.068136064079816 -3.3981674484459505,4.437239448989164 l-2.84043888171911,2.7834804697016358 " fill="none" stroke="black" stroke-width="1" /></svg>