<?xml version="1.0" encoding="utf-8" ?>
<svg baseProfile="full" height="96.41372827952337" version="1.1" width="116.94001859117064" xmlns="http://www.w3.org/2000/svg" xmlns:ev="http://www.w3.org/2001/xml-events" xmlns:xlink="http://www.w3.org/1999/xlink"><defs /><rect fill="white" height="96.41372827952337" width="116.94001859117064" x="0" y="0" /><path d="M25,25 m0.0,0.0 m17.26186687475769,14.566279423797686 l0.40326733938362436,0.15415010687240854 1.4085532753922172,0.14457000477089663 l13.53897241910832,-2.09803757538069 2.430408290704938,-0.12244730843496729 l1.422969493776316,0.25217646231804647 m-10.378133428906612,-5.243535738125453 l0.5813539472441918,0.8321050145275991 0.20280179620359373,0.8277040143738945 l-0.05473137054691765,12.077126653348461 m-9.55523266300446,1.6212517070651382 l1.7292958370950975,0.2223550291848523 14.549338350917056,-2.157362086823898 l1.7185682318015427,0.1385128011641588 m-16.824539641838037,2.9374119899388473 l0.4218142250432815,0.7802384816537219 0.1454421442414425,1.0308308584176862 l0.12914063841056697,5.843430555779627 -0.012955389552258036,4.217443046811437 l0.9178465891913231,1.5960480906374996 0.7714246467614753,0.24533116192956816 l3.2535278630138325,0.15515664347455038 5.174181221601007,-0.21183805770681258 l2.9470228427142047,-0.3848203567268952 2.0097822830974357,-0.46385078050706857 m1.3815175791445657,-20.628025253293462 l0.5039601879302547,2.7919694007141787 -0.16336473853488603,5.848671741174476 l-0.5122516926883404,4.900635906936751 -0.8625377656892703,4.60024107758243 l-1.1697881620099349,3.896414893510348 -1.2085278836539404,2.730962121546432 l-1.7967557292641074,2.9398387848640204 -1.8682747873055445,2.135775285315639 m18.79191113268952,-29.208725102652675 l0.2769935220431565,0.7996751684001513 0.14057183545470356,1.3493238764727082 l-0.010061597122187384,6.573431017684073 -0.385848504777217,4.55888512123973 l-0.7107704752498176,4.141690079781472 -0.9537891774715175,3.574936220751042 l-1.1300927233318805,2.7918820125087165 -1.421512693565074,2.829982878098376 l-1.9493878198835297,2.8259329065286667 m6.387400435108531,-31.210674221468906 l9.63932359374582,-2.078736705785323 1.1743427019096242,0.19698348024175638 l0.4591020051865243,0.7799024807538103 -0.34268718381223096,1.2417488353380222 l-0.9001820921857854,6.902348852842138 -0.3565201359753118,8.520590297687523 l0.2553838763054266,3.9313650023083273 0.7467187052110474,2.429687099369018 l0.7390875625475196,0.8918435106042164 1.4164643255716092,0.579648294674458 l2.264031965284635,0.16542388664627874 2.3369583947032337,-0.1537569610506168 l0.8975980626063418,-0.25652992103648525 0.6519931910102508,-0.7647123634511597 l0.294337739546436,-1.0870027236321596 0.1326891210811301,-2.7291436049295057 m-16.922857371979358,-12.079635044477412 l2.7461168106290543,2.693217328411458 1.6600280631735724,2.8261280002511744 " fill="none" stroke="black" stroke-width="1" /></svg>