<?xml version="1.0" encoding="utf-8" ?>
<svg baseProfile="full" height="121.97630905634954" version="1.1" width="97.75366804429746" xmlns="http://www.w3.org/2000/svg" xmlns:ev="http://www.w3.org/2001/xml-events" xmlns:xlink="http://www.w3.org/1999/xlink"><defs /><rect fill="white" height="121.97630905634954" width="97.75366804429746" x="0" y="0" /><path d="M25.910598633425792,25 m0.0,0.0 m7.729350244528126,18.07695660461161 l0.38795946010702714,0.4469857582231563 0.5396911441843926,2.426739497860604 l1.5445638013280194,14.234312862061977 m-1.210671703896693,-16.75291376361165 l26.173142921866102,-2.9877468031489305 2.7494142604835736,0.10867996073327794 l0.886891171865919,0.7487111171075246 0.15420322722126661,1.7469437098873986 l-2.3447210585484983,13.335616499090882 m-31.475122135431103,3.36965107124043 l31.208491848595816,-2.66751124321698 3.6139136259555342,0.07007616543083615 m-17.262207859151328,-29.36343290368733 l0.801129918689151,1.7215044302490867 0.25553318015696797,1.873852565880092 l-0.01517213151431684,23.88455445833668 -0.594206552351272,7.545112645154976 l-0.5769741712739452,4.279379829568642 -0.7720294085549092,3.8056427741909746 l-0.9870971944241027,3.419549928669884 -1.3331032787228563,2.9672190007305814 l-1.7458690346464092,4.490948959011542 -5.013855551346845,6.341638030367435 l-2.918442265798512,2.198761898211307 -3.66418480066139,2.655002826195928 l-7.041226292085501,4.000073177199604 m8.585967416851478,-26.139882645931152 l2.584303846857086,0.7873482866771798 4.78138813958235,2.877488033214926 l6.900872580558583,5.0279043473841964 18.10030344304787,12.932697520688409 l3.336007263366364,1.8804474310609223 3.464825354033719,1.1758239457144575 " fill="none" stroke="black" stroke-width="1" /></svg>