<?xml version="1.0" encoding="utf-8" ?>
<svg baseProfile="full" height="104.35779465813073" version="1.1" width="112.4652077522729" xmlns="http://www.w3.org/2000/svg" xmlns:ev="http://www.w3.org/2001/xml-events" xmlns:xlink="http://www.w3.org/1999/xlink"><defs /><rect fill="white" height="104.35779465813073" width="112.4652077522729" x="0" y="0" /><path d="M25,25 m0.0,0.0 m5.321313747427482,18.94678869444187 l0.4188094428520109,0.432957262487725 0.535928571594083,1.0314826841564901 l2.551067428735637,14.471275593383481 m-1.9974430867229576,-15.395433902026939 l17.66418679079925,-2.0231342226694293 1.8689841322631666,-0.12060897365288956 l1.3570614343448664,0.25327408931558926 0.7172715927488457,0.3939919256088445 l0.33379577724180154,1.211357047483076 -2.498373523143217,11.735016240302878 m-16.95970609036143,2.185176061229722 l18.458339770398492,-1.8158228542480903 m-11.893765331543122,-25.376488710552543 l0.6907503646442309,1.0250101698909666 0.28353590932658584,1.84601119064753 l0.08617016729709569,36.891461639923925 m-11.774340966463189,5.14635310752805 l1.302341243520382,0.6134746248308159 1.3462941512642526,-0.32034297464465095 l17.821432526300544,-9.690842932068891 m-2.1172490629426486,-5.38070522088734 l1.748765170776091,2.2096711246223464 1.8709376409642746,3.1766021435456997 l1.4787617774893715,3.250146718731904 0.6613647542290438,2.4279826256736667 m6.263842011622259,-40.788825873485756 l3.01168395991311,0.4974401326280792 19.005182860372148,-1.8102311729412839 l2.204939382267701,-0.18338226180354822 1.8538509296036578,0.2952905711836637 m-27.433035594898428,3.1096256965191102 l0.7938438811431032,1.3038990261502186 0.23048872636574147,2.044468481688265 l-5.451391071604648,7.6909143802692235 -3.2654250122682282,4.24164552534773 l-0.46595960250665214,0.7879441036220497 0.23072971511017634,0.5504020616754596 l1.6302641515911922,0.10059965712858966 23.48643998780293,-4.201106834344401 l6.806853981050978,-0.7051116308935236 4.286665113666924,-0.08534919375134241 m-16.338599089168472,-14.819994537105691 l0.8710946681019321,1.696408235186312 0.23462763335446282,1.3318565236194648 l0.032210950664586215,43.34032636966318 -0.26201684766387556,1.787179084630295 l-0.5124270454574519,0.8905212433732224 -0.7161369316654196,0.15862191671759315 l-1.6894937374047805,-1.024771697281882 -2.4600418676762996,-2.4719466348104486 m3.581366147787022,-26.763473777686972 l-0.39321407460616864,1.3560129681571014 -2.2679983498939618,2.913862826430257 l-3.1521779205445846,3.4175240434985956 -3.9081496161715847,3.543480054077202 l-7.967849919423117,6.235915687465378 -9.0686892681173,5.968827228331257 " fill="none" stroke="black" stroke-width="1" /></svg>