<?xml version="1.0" encoding="utf-8" ?>
<svg baseProfile="full" height="109.47090135342611" version="1.1" width="106.44007724678325" xmlns="http://www.w3.org/2000/svg" xmlns:ev="http://www.w3.org/2001/xml-events" xmlns:xlink="http://www.w3.org/1999/xlink"><defs /><rect fill="white" height="109.47090135342611" width="106.44007724678325" x="0" y="0" /><path d="M25,25 m0.0,0.0 m12.97403516744614,21.29478569043832 l0.11693107849727953,0.31584636893112267 0.3950790001153713,0.7611663623317202 l1.879929280752783,11.675768020822806 m-1.6791835560381247,-12.119652685612783 l11.211857473279109,-1.7851135121798567 2.4903931428671413,-0.17953726192256833 l0.4360682754368251,0.3275900061820887 0.25188626431175953,1.088260856543222 l-1.663839240297622,9.738322271271397 m-11.482445941287908,1.8743524428853375 l12.592658514015096,-1.9004523975068124 m-8.386053142659643,-21.24962605285126 l0.7771148823120408,1.0617975217276154 0.37174231713335254,1.3544364762401102 l-0.09957598393598069,30.036241381588802 m-8.024582997794441,3.5209732921951566 l0.7787990853187217,0.48746163119560404 0.8015178017168101,-0.080239717141878 l13.460096444440696,-7.88573653818796 m-1.8296454264137458,-4.039257763231789 l1.1422939356080832,1.8030792568144585 1.238660383335677,2.5736648563895637 l0.9701820049771778,2.633455656224946 0.4344689399591624,1.789214386153762 m10.565616847864318,-35.7959062806861 l0.4774560758650866,0.8408881611123129 0.24844860570002839,0.975674176342692 l0.054646549257530895,7.110078368647319 m-9.912209064312268,1.276414567195252 l1.456801470315782,0.2592914395408237 1.5013637530288628,-0.06954019244234534 l14.704719010885682,-2.148171483503716 3.3014676927553324,-0.14900140010290255 l2.0017830771827283,0.28598672299361816 m-20.329945443176282,2.597446342480314 l0.45256103767880573,3.2488872540838836 -0.12978874767238086,7.354934191432157 l-0.4656278050750598,5.903414300772283 -0.8269697011192152,5.23404580739066 l-1.0537485433260199,4.276940105115574 -1.122225645831037,3.147763299905001 l-1.9534560094098836,3.973175930256021 -1.8732223631769434,2.639322355904286 m10.722496399016725,-24.615697423894503 l1.9953866839968863,0.21939199362749678 11.206657317735493,-1.7110703313034465 l2.3278081355852023,-0.15658132253627116 1.2107381159203883,0.2205661641909035 m-9.714352737743019,-7.322761248727739 l0.6662613607699656,1.1550888896403073 0.12727464132312857,0.7634022700472822 l0.060742391966431816,16.19194187805605 m-10.704958124374865,0.6050468254820058 l0.7548259716056908,0.3218248672638603 1.1634123669462748,0.12860895829033483 l18.451614576846772,-1.988851235560653 1.4365048124589965,0.288076576661143 m-20.871848193515802,10.994299537887064 l1.4377593003524287,0.18497908769931556 13.269489883081386,-1.5894739671924107 l2.860048206104214,-0.14071206115573448 1.267264944333745,0.17766549436005585 m-10.56876870044858,-5.702800824352227 l0.5844907438377275,0.9030760847657905 0.22807769452177157,0.8626501114734821 l0.020519491799501684,14.477406173211591 m-12.54554448985376,0.8628652452585686 l1.7291342087470118,0.2835153944955758 20.299410479179944,-1.5436346141635975 l2.7695732660587726,-0.08111610540308162 " fill="none" stroke="black" stroke-width="1" /></svg>