<?xml version="1.0" encoding="utf-8" ?>
<svg baseProfile="full" height="113.9896884201402" version="1.1" width="102.5094158473112" xmlns="http://www.w3.org/2000/svg" xmlns:ev="http://www.w3.org/2001/xml-events" xmlns:xlink="http://www.w3.org/1999/xlink"><defs /><rect fill="white" height="113.9896884201402" width="102.5094158473112" x="0" y="0" /><path d="M25,25 m0.0,0.0 m1.9842599856557026,22.9984666530722 l0.4541427886552435,0.12382363538573327 3.8553227002261883,0.20010172466501316 l18.263512136039513,-3.033095099783638 11.978943250955444,-1.6037579536713176 l6.820096576345354,-0.3289180220233668 3.7434121938999776,0.25443242160555013 m-24.270846281260436,-13.663337253450473 l0.4765129592967048,1.6800852460437858 0.08249307415653895,2.1642618376273757 l-1.0072056617454173,9.23063177909027 -1.8466214708200437,7.424103574064009 l-1.9293589286313155,8.539038018223238 -2.5345230122149998,8.121278021139966 l-2.894440184636039,6.923976854380052 -3.4120234485061585,5.876693475339816 l-4.404224051250727,5.221355360011731 -4.757350158572929,3.860548148420256 m20.86438840670156,-35.66470880822549 l13.300749147968135,15.195550599283093 7.983428589690706,8.973437342353183 l8.165492861252899,5.392921641524409 1.593254374105294,0.8342037597371516 m-38.49301442755923,-52.0981541427954 l2.10037248818453,1.642606188640186 2.1304801671766302,2.224040448632919 l1.613966249035278,2.2016000857093907 1.0934327655106075,2.1080859559057945 " fill="none" stroke="black" stroke-width="1" /></svg>