<?xml version="1.0" encoding="utf-8" ?>
<svg baseProfile="full" height="120.3433746351752" version="1.1" width="109.7887532274097" xmlns="http://www.w3.org/2000/svg" xmlns:ev="http://www.w3.org/2001/xml-events" xmlns:xlink="http://www.w3.org/1999/xlink"><defs /><rect fill="white" height="120.3433746351752" width="109.7887532274097" x="0" y="0" /><path d="M25,25 m0.0,0.0 m27.761046473626056,2.2695386011098506 l0.029094390220797236,0.436757595328553 -0.2259140173488897,1.0983139471011767 l-1.1459248407268552,1.9598116843791051 -3.5199178401969813,4.28193600872192 l-4.13188348499764,3.6735079637144317 -4.89208597052456,3.28647182831872 m14.916001515794154,-10.916370023590416 l6.371661371183542,-0.18713721507194625 7.805434950031711,-1.3242349796550363 l0.6734786535246712,0.1927576181554504 0.4305693602974074,0.5122867285345264 l0.04244542027810213,1.3589008649829395 -0.4455855959430777,8.972803476755598 m-22.34768958823889,2.3666655060308517 l2.117192364543593,0.2565790297773942 25.76766047943228,-2.427781039213706 l2.3109686155161633,-0.106454010700579 1.617227827398702,0.24691069409250116 m-16.694653057067985,2.756567356751821 l-0.123828122748314,1.3131973469148361 -1.327875155416544,1.9440543497113265 l-2.2047738456689445,2.5671136730799593 -2.6472165736806463,2.485095444669616 l-5.881374282905947,4.322491865466287 -7.155751670326043,3.745514654977564 m15.013505483134443,-8.20154834900049 l0.6800024462534043,0.8784688299378647 0.1179100896007325,1.3443826627569757 l-0.10150482977939136,20.517089223139084 0.23288110593754816,0.8167641213957064 l0.4551599658562789,0.19195449557507618 0.6718187326077948,-0.3187880258352075 l0.8459162947199487,-0.5911846598904913 8.016208497304103,-6.30251929768021 m9.982222822665232,-18.37898878270867 l0.08407389236725331,1.1820290678707162 -1.1285149487426076,1.4405514096050658 l-2.539771659358333,2.303030645886131 -3.564055551497354,2.696325012736941 m-7.487600071912805,-3.54659499340613 l1.4705183373853505,15.420578674032079 1.5586916125375798,3.5127769350612437 l1.8873050528553665,5.123097262589283 1.793516084764725,3.1569656604701626 l2.2731651528997716,3.927294089743685 1.738224401198208,2.4813139417047885 l1.875647485560358,2.2682945726827297 2.0126866570717343,2.085427087511319 l2.1073291942447336,1.7721591271034303 2.2513315989487035,1.224108582315675 l1.2044487924385305,0.25508837123566586 0.8622186987759245,-0.5555472116837692 l0.3771105135165978,-1.587298000044637 -0.024806571395641182,-3.6972502664600113 m-12.458652188431728,-19.080385551348666 l-0.09698540446957242,1.172394556034179 -0.5550365625118135,1.458949168127192 l-1.6446993816255195,4.227208733973051 -1.8089713115414585,3.633475928881105 l-1.7910184117066348,2.8915988226985054 -2.1695757393714286,2.8230614131648437 l-2.6386239886038703,2.764283376185011 -3.1033333815709754,2.6953886366925075 l-2.779940375724977,1.9699597533345574 m12.32719780513204,-36.9561341158131 l3.3255286790199015,2.533839646358608 1.9263462936825262,2.0497437465512176 " fill="none" stroke="black" stroke-width="1" /></svg>