<?xml version="1.0" encoding="utf-8" ?>
<svg baseProfile="full" height="115.6160973366447" version="1.1" width="98.18798152204852" xmlns="http://www.w3.org/2000/svg" xmlns:ev="http://www.w3.org/2001/xml-events" xmlns:xlink="http://www.w3.org/1999/xlink"><defs /><rect fill="white" height="115.6160973366447" width="98.18798152204852" x="0" y="0" /><path d="M25,25 m0.0,0.0 m27.64699358583826,3.490977509116575 l0.05190624676438565,0.5138495763945233 -0.44553507190400066,1.8260999745987063 l-1.7490685182326549,3.023567185932653 -2.518798355056842,3.675749136762683 l-3.046548675377775,3.897854585781364 -3.2578852576708486,3.2689770138748746 l-3.7691070158801976,5.625811458260936 -5.906568248724296,9.25511432538909 m18.66644185383654,-26.585811420599512 l3.2262141073606014,6.97591630642946 5.49401770707507,9.260636302360048 l5.081529019239557,4.863154201391121 4.551351599801669,2.3647095733037897 m-26.24666224613603,11.063274893659157 l1.5891669499525944,0.43607618707005863 13.575540133169408,-0.11628048250893566 l4.138654296164885,0.1368397797079961 m-11.22130820264334,-12.404254446984954 l0.4735936562503923,0.9929433977517835 0.2107280904600004,1.814667311076274 l-0.008732716004397734,30.028338602799646 m-10.035597661558821,-12.92720086662622 l2.446024403653351,3.643347031662089 1.7566005443364918,3.9623975044087225 m20.21292067547128,-10.889393937153743 l-0.03167769341542205,1.799358469717659 -0.4870994833781002,1.681808874282993 l-4.085727422769037,6.475651101538638 -2.954331630618075,2.797386981142483 m-20.93259388085493,5.3501731783177116 l2.491847774210773,0.3143580277870251 11.214905307817189,-1.2811854926209554 l15.956243072978513,-1.1406194631276934 3.79843292741228,-0.08166959829906219 l2.302111650480051,0.3434451513453985 " fill="none" stroke="black" stroke-width="1" /></svg>