<?xml version="1.0" encoding="utf-8" ?>
<svg baseProfile="full" height="110.85773539380833" version="1.1" width="106.34301213578914" xmlns="http://www.w3.org/2000/svg" xmlns:ev="http://www.w3.org/2001/xml-events" xmlns:xlink="http://www.w3.org/1999/xlink"><defs /><rect fill="white" height="110.85773539380833" width="106.34301213578914" x="0" y="0" /><path d="M25,25 m0.0,0.0 m25.59460421700191,5.83954608370767 l0.04590548058768913,0.3672539349460152 -0.26046687422338133,0.7602203190606658 l-1.3493218560918319,1.418784005569125 -4.0608428426617875,3.1316564494102317 l-4.7339034529981445,2.7432642137319156 -5.412003067184021,2.318712893195186 m15.940743488437935,-0.13016357059579486 l0.19666224468414795,0.8649615095071076 -0.21376828674090265,0.8104719021731672 l-1.3443337178353323,4.057212236545526 -1.5719575364910912,3.546466205827542 l-3.4235017254269384,5.564714639824628 -4.570578965662902,5.120875445023767 l-3.2657254555008985,2.7297522949259934 m24.275099595311282,-31.133204332773822 l1.3273549445415516,1.0125125501338013 1.4707514848401477,1.6453801675025403 l1.5190244823618841,3.0290133238944676 1.0149508740691868,2.4132324523717674 m12.401421871830808,-9.127081353094407 l0.08340757246211565,1.2552714052691334 -1.3217676056501195,2.196636242964825 l-2.396312622667031,2.858823565278882 -2.8957867028183286,2.906438283593551 m-17.30231529679198,3.2428743477550457 l3.0223717027365997,0.6376402934006206 20.122660344260186,-2.1059544666522014 l0.9628932266204068,0.2197147460549633 0.5253421022844716,0.9220056101951758 l-0.010521576149393275,1.2312432607645176 -2.248268262850363,9.967919962261599 m-22.246004574409287,1.8209247187887918 l2.775726780850684,0.1651148619436582 19.638992467885718,-1.3387112023886922 l3.660778373400624,-0.11289499360530832 m-31.152671623945675,1.755993925201625 l0.35221977834177176,0.39132113839904403 0.11785547018573571,1.027875712008855 l-0.32666222479064605,8.786127050065687 0.1752480648381267,1.0488905398682002 l0.44209093769038965,0.4845878753097306 28.026287514607457,-2.723676924952626 l0.9653134256714561,0.057327273390665776 1.370695531914289,0.6535251143931661 l0.4213244292626256,1.132990319540324 -0.5478729627137524,4.2629626822858935 l-1.5503405637597893,5.799949563275722 -1.8639404212903026,4.684699405118041 l-0.7503069415682928,1.2676977948353614 -0.6675865873970462,0.8467298193714121 l-0.6335114897901013,0.530106099185537 -1.1376698989648302,-0.37698759042965824 l-1.8097689993482964,-2.2874458006014176 m-23.966435904780738,-29.06830908055087 l0.5476341613580091,3.0055991805439186 -0.11082547281494114,7.040899199342625 l-0.6107945236862825,5.001673091416544 -0.9895644562806871,3.6882431425089983 l-1.4293121827533124,3.33092514453663 -1.4701272085208579,2.255901057213796 l-1.714779507236066,1.8233388742488315 m17.69377941122064,-26.909002011962873 l0.6512985445712285,0.9541094469313486 0.2336072186754951,1.3766260319616654 l-0.04863691529014096,26.38986054204444 " fill="none" stroke="black" stroke-width="1" /></svg>