<?xml version="1.0" encoding="utf-8" ?>
<svg baseProfile="full" height="97.28225721826001" version="1.1" width="97.03110315513904" xmlns="http://www.w3.org/2000/svg" xmlns:ev="http://www.w3.org/2001/xml-events" xmlns:xlink="http://www.w3.org/1999/xlink"><defs /><rect fill="white" height="97.28225721826001" width="97.03110315513904" x="0" y="0" /><path d="M25,25 m0.0,0.0 m27.75876598574345,4.885674057669653 l0.3380701852915917,0.39458868199522323 0.49973765904411965,1.4937007164080256 l-0.027156803939894156,5.64166166089251 m-18.69361732361068,2.1901393074701248 l4.568274249311001,0.17708730642514722 16.87475613378393,-1.7950902137607851 l10.278668406930326,-0.7926235411665091 2.8120981138961625,-0.1493291675370529 l2.6215065486890343,0.32498835106621277 m-27.58892623383586,8.654390881666309 l0.48538336298652046,1.1657030317781465 0.05335721942405661,1.2122901055408997 l-0.010855765666680384,4.282324455667752 -0.2795834359031464,4.398789497721178 l-0.9893918245329442,4.561819692801345 -1.2538930430365969,3.187375985882504 l-1.7125492706626406,2.81978506957017 -2.1943156729723703,2.445206748563415 l-2.127684692124091,1.669660268931283 m18.192916883132153,-25.60624827180164 l0.606901610956071,0.8597055504587792 0.1771619564521989,1.525323676252348 l-0.11564508740810639,21.789211669631648 -0.3002454790282507,1.3375680690503737 l-0.4767674527592014,0.57385933463603 -0.5909335473115432,0.03469429244692937 l-1.3233099273914353,-0.766227465730397 -1.5165060848666794,-1.4236719852813144 m-12.608899420799604,-16.68580302513958 l-0.12258714861751996,1.074450644745681 -0.3649292452663865,1.0112620057072599 l-2.0216900153863726,3.855505975524792 -2.2952366027963067,3.3991819503219523 l-2.735601064953349,3.425571708607922 m29.628788935067753,-12.14541314794999 l1.8214609911607944,1.6873033714412091 2.297054265806424,2.8901425236345193 l1.9297244889388487,2.9751955725509465 0.9005211707786912,2.2532624929212197 " fill="none" stroke="black" stroke-width="1" /></svg>