<?xml version="1.0" encoding="utf-8" ?>
<svg baseProfile="full" height="96.62152793059926" version="1.1" width="100.7411677330367" xmlns="http://www.w3.org/2000/svg" xmlns:ev="http://www.w3.org/2001/xml-events" xmlns:xlink="http://www.w3.org/1999/xlink"><defs /><rect fill="white" height="96.62152793059926" width="100.7411677330367" x="0" y="0" /><path d="M25,25 m0.0,0.0 m30.270435607199968,4.943477113033045 l0.34810641275698817,0.37321403499881795 0.5491768695752621,1.4399147568213124 l-0.02034702434575069,4.5854876380946274 m-19.57905121782069,2.251338724639024 l4.732687624030183,0.1324027956953505 17.03370311763562,-1.613907934810631 l11.194354302625237,-0.7195429291072908 3.438591457644963,-0.0720946007832566 l2.7735105837349248,0.30944747389780647 m-31.61115291332403,7.4855992540379575 l0.6739728638969378,1.2164505702266186 1.8004109650739386,9.17379397176771 m-1.4006767957494903,-9.75046081780381 l17.160808451410645,-1.9476107890159282 3.710838601327911,-0.14050409289568697 l0.8856384555608452,0.679633676157927 0.12572105941500486,0.5697492864299761 l-2.1441704194630424,6.775279359953457 m-17.876855805618092,2.1227802034849397 l19.219074753015413,-1.6643450292722977 m-11.107037836561707,2.8930855305813474 l0.5545756284373173,1.3473505759670428 0.17006651522482272,1.515397626636701 l-0.25930957912788943,10.937505174106796 -0.31417088700121804,2.7129249230942536 l-0.4617610303977039,0.8772634142254404 -0.5945260627338637,0.18789802043801188 l-0.6784954760536225,-0.25237701938259693 -2.5363820973074036,-1.9834255338699716 m-7.690939168252893,-9.511445154558714 l-0.0781026062041758,0.9197029316054052 -0.3704984974991345,0.8130347549776701 l-1.8174854210476328,2.571448001154487 -2.645941752290202,2.825467807858797 l-2.8733292256409726,2.3972427653493575 m31.32010157354504,-9.011994917020486 l1.8363070733051083,1.7320104636113025 2.024677763265267,2.543758820036153 l1.686504689629042,2.538998871741048 0.9364568082680282,1.9930275084150832 " fill="none" stroke="black" stroke-width="1" /></svg>