<?xml version="1.0" encoding="utf-8" ?>
<svg baseProfile="full" height="106.98686476922859" version="1.1" width="97.86709426443721" xmlns="http://www.w3.org/2000/svg" xmlns:ev="http://www.w3.org/2001/xml-events" xmlns:xlink="http://www.w3.org/1999/xlink"><defs /><rect fill="white" height="106.98686476922859" width="97.86709426443721" x="0" y="0" /><path d="M25,25 m0.0,0.0 m13.822490791481407,15.551299059216372 l0.4839020872436557,0.15046103944974126 3.0840882352249803,0.08873677619155607 l24.505450755846212,-2.4676565937157102 3.5080931555559345,-0.18003450637160193 l2.463069239085013,0.265087149244281 m-26.930096018474455,-5.009022845881415 l0.9363962511636893,0.8816703267667625 0.34329655796128067,1.0921614684092213 l1.107387912874257,10.95448642454236 m12.963192464691915,-14.38337731475315 l0.2823978273296617,1.069590795742 -0.04676556923596903,1.2015383923077814 l-1.9938566634060946,10.972430572624813 m-15.07194945386822,5.36236227909976 l0.029146046192614836,1.505756091296531 -0.6561344991817639,2.686832924451886 l-2.205819936463638,5.698736957729969 -2.732057483082284,4.843696642378507 l-3.054092756467457,4.252119068798163 m6.877786042088083,-9.96982156545661 l0.6064175707903513,0.28648923814813326 1.1502648327126612,0.02683436533266996 l20.106801117066837,-2.2985542662463434 1.8261419734947422,0.20734484754522464 l0.44018520453106585,0.7262618523419526 0.10402048286683871,1.2571407539931603 l-0.09720276530847016,1.6225454123915284 -2.561334432621062,8.468239709721 l-2.4147755372512347,5.9606222353683025 -3.371542790908573,5.493218071668521 l-0.9945875634342362,0.6696694068932308 -0.9814012579915284,-0.15466663361280433 l-1.5905445744067899,-1.6508020730100321 m-6.788366172407519,-19.28689272615173 l-0.02589443155062897,1.4877710682642191 -0.6968646187822217,1.833170890261095 l-2.3731544197726686,2.64458508248157 -3.5922513256455906,2.549683491819706 l-4.602954323082732,2.1517341705589135 m21.102145110454277,-11.32305284458629 l-0.1827030656060404,1.6520518439687815 -1.4104991173265797,2.371881578006847 l-2.2793243769368976,3.6020217711716462 -2.604254581380597,3.465450760748101 l-2.4736692907138775,2.7391518789009375 -2.878211150545601,2.675325236921038 l-3.3261227260090456,2.575445572292381 -2.799424836953812,1.7777707508791791 " fill="none" stroke="black" stroke-width="1" /></svg>