<?xml version="1.0" encoding="utf-8" ?>
<svg baseProfile="full" height="90.81129564988579" version="1.1" width="91.68530775022816" xmlns="http://www.w3.org/2000/svg" xmlns:ev="http://www.w3.org/2001/xml-events" xmlns:xlink="http://www.w3.org/1999/xlink"><defs /><rect fill="white" height="90.81129564988579" width="91.68530775022816" x="0" y="0" /><path d="M25,27.051279690967526 m0.0,0.0 m34.747675883519754,1.807297359523871 l0.013129237463531562,0.45939304862524094 -0.49302705316790996,0.8586615063984665 l-2.249767684232889,1.366006146844014 -3.747189991208988,5.006339780666324 l-5.785217689885364,3.5644984371847785 -5.945677364571614,2.1310670413341186 m1.3993498023307709,-17.24454301154434 l5.351596082896741,1.8338479325143293 5.540917491683497,3.036790614949286 l4.851460766956892,3.8563269938460363 3.4801823861931473,4.001603312217405 l1.1036656983774444,2.1080874326205357 m-25.590955575585276,2.9403095078587724 l3.100390796475735,0.17003281341042598 17.113377293559054,-2.1386915029233817 l3.6343883565000588,-0.21028779599265668 1.9524189361802406,0.2086417285204309 m-13.644366226529096,2.7452664821717248 l0.4250089450737617,0.7951538672338482 0.18022727948278214,0.974084643960911 l-0.038072106265285406,19.2814327704956 -0.21190586974680972,0.9033127381950076 l-0.3853972330813164,0.30538411080751493 -0.4867085792076388,-0.1359766709307554 l-1.8495983852018434,-1.9257096960614086 m-7.145913306406168,-17.164781503698777 l-0.11824477513006776,1.1147447951001421 -0.34989773294111276,0.7767647558457034 l-2.2477524746257425,7.16951215568353 -1.6415660572076822,4.128401178942994 l-2.1505449210059653,3.6458309971685203 m24.82816876502705,-15.792513445683621 l2.282785950880649,2.5107743687100585 2.658408740411413,3.815961279638235 l2.0674075209148213,3.7574253515435734 1.0365508423015743,3.0661195508153702 " fill="none" stroke="black" stroke-width="1" /></svg>