<?xml version="1.0" encoding="utf-8" ?>
<svg baseProfile="full" height="111.79813016566679" version="1.1" width="109.19634740898093" xmlns="http://www.w3.org/2000/svg" xmlns:ev="http://www.w3.org/2001/xml-events" xmlns:xlink="http://www.w3.org/1999/xlink"><defs /><rect fill="white" height="111.79813016566679" width="109.19634740898093" x="0" y="0" /><path d="M25,25 m0.0,0.0 m31.34487154169811,7.121833330348297 l0.03921385641224462,0.44679683040096313 -0.4670075469250416,1.6401259120576552 l-1.742748623964996,2.695138613941384 -2.5442633458156414,3.170867418914052 l-3.179507904785906,3.395251889734819 -3.289243948622805,2.858952036331998 l-7.268914703177087,2.895813582390715 -4.4623533977025565,1.24462950990615 m25.90752397982464,-14.959050101716779 l7.331235802082368,4.533355523241023 12.174816820849756,6.878514230000646 l2.587910135712646,1.7811499891317388 2.7648147433951764,1.242670602555082 m-26.140473244346218,-4.223717114634673 l0.7805415066621132,1.0287620035514864 0.19493042938887445,1.3731297266565627 m-13.638920967296434,2.589376462614293 l2.350835956032311,0.3141448249036377 18.085097399414757,-1.4545942814640729 l3.0649008842127103,-0.08104012451996653 1.0830711084535856,0.18331878572983554 l0.5391577802239848,0.31965526789557236 0.20316988692954993,0.464422811156618 l-0.10792640486069166,0.592570412844578 -0.46256542914745713,10.920777006975472 m-21.13206772890134,-5.956567887310601 l20.637341213472578,-1.4292180291993246 m-21.510861812225528,7.113036259764184 l20.745918988299614,-1.356390085319527 m-19.821456466520157,-9.59649335247235 l0.5455133084929628,1.2410617644039268 -0.6667120743432978,3.9655365637047177 l-1.079977497447088,4.448597839502434 -1.5430721021406246,4.086322505730105 l-1.6824905495260056,3.125810628752471 -1.5893404498643717,2.1938884807776757 l-1.9446387410937938,2.1789107159477448 -2.3532387476767305,1.847280925986845 m11.56606277998051,-7.915781006581104 l0.9048213746949249,1.030165836425928 2.22093834642727,8.700566565136903 m-1.987709957860249,-9.195583509305564 l19.71766431468402,-1.5820482971050909 2.3275907415712154,0.13027582846679173 l0.391988321593917,0.33159447919953067 0.10790327434295321,0.5312582047162576 l-0.15750597258892607,0.7823106733255094 m-19.435734849690256,2.1284657287859026 l0.4690892399255553,0.4662138499467326 0.37044802745792627,0.7195091939248235 l1.1734798716087051,5.276333288489999 m-0.7186134185302752,0.7940110492311327 l6.909486171849589,-1.0907459745339203 7.468136720209396,-0.48994019029938235 l2.0114382793098504,0.09528694292251029 m-22.900444301501892,5.0012498878126985 l1.523087090393083,1.1309085087808284 1.4603461334312198,1.4441914844832926 l1.201399035899779,1.4185786660027646 0.6787058554399557,1.2931429740519584 m13.988518590728441,-6.496550926927821 l0.11165828939089205,0.907400288541629 -0.5513124097991521,0.9435756130775237 l-4.154251186974965,3.8247839634876133 m-23.42210527307626,2.503800622989533 l3.0024653620260637,0.2805249414044285 31.263132310582467,-1.3919649512854493 l3.3643153739361114,-0.06217915873096424 2.2401887579001145,0.22347264828487778 " fill="none" stroke="black" stroke-width="1" /></svg>