<?xml version="1.0" encoding="utf-8" ?>
<svg baseProfile="full" height="105.00349380776123" version="1.1" width="96.72296705742326" xmlns="http://www.w3.org/2000/svg" xmlns:ev="http://www.w3.org/2001/xml-events" xmlns:xlink="http://www.w3.org/1999/xlink"><defs /><rect fill="white" height="105.00349380776123" width="96.72296705742326" x="0" y="0" /><path d="M25,25 m0.0,0.0 m26.288415109972217,4.106682284943792 l0.277761451324121,0.36578803774807794 0.4703127502393539,1.6807031218436232 l-0.032327677006179584,5.762307048359981 m-15.28619671021855,2.045938975723242 l3.338861850182753,0.20630532985943398 22.67939545142282,-2.648677372198197 l2.801521559018113,-0.06341140276799256 1.9503175479446904,0.34245189010151506 m-25.476212068466193,7.837481576318885 l0.46269810569677833,1.4059938783432329 0.06532319864812088,3.1960692215211055 l-1.0896370519790066,6.552716374649689 -1.4500978922043972,4.7308591339248105 l-1.331398316024121,2.990843505879699 -1.662395446336203,2.6699251253031386 l-2.0855123129407644,2.304454617586349 m17.352335807632937,-23.52434308418165 l0.20343116629469757,0.7214334855529861 -0.036883342618594925,1.3985393138638496 l-1.1021148675574548,5.044258898526944 -1.6228239894903622,5.046666048729578 l-1.90783439597237,4.277774310427338 -2.282971942705125,3.774305902996383 m6.430384540827105,-9.623180142316288 l1.573964165447194,0.28604178289549215 1.4286482173002741,-0.07672045871329969 l12.040277217215856,-2.1084388451447493 1.0375109451440394,0.17861699952677904 l0.33716080545899035,0.32517760224377595 0.10944743239534993,0.44727222305769426 l-0.02671839226475773,1.2270768546946347 -2.3617986096118955,2.4488933490962888 l-2.7745436057339714,2.5186268354503296 m-8.09426038509732,0.07865659625125643 l0.0004605678268272413,1.634596644769298 -0.6101900051168376,2.031268569659258 l-1.2924832891039533,3.0917000477263548 -1.718439888189535,3.1170180405199277 l-1.6395270717328603,2.4494403519775427 -1.9037075912619335,2.4130406095750754 l-2.183039329056747,2.2716960800291965 -2.4846017077623928,2.0676444434068517 m12.853163601200567,-15.907854277168218 l4.188055137396536,5.102133999661992 5.132596688359046,5.412749654987144 l3.607316241017382,3.293856132794584 2.549323387909014,1.7738314252797522 " fill="none" stroke="black" stroke-width="1" /></svg>