<?xml version="1.0" encoding="utf-8" ?>
<svg baseProfile="full" height="108.95839519798756" version="1.1" width="109.49251387268305" xmlns="http://www.w3.org/2000/svg" xmlns:ev="http://www.w3.org/2001/xml-events" xmlns:xlink="http://www.w3.org/1999/xlink"><defs /><rect fill="white" height="108.95839519798756" width="109.49251387268305" x="0" y="0" /><path d="M25.000001485750545,25 m0.0,0.0 m11.174712181091309,10.454498529434204 l0.16177937388420105,0.533648394048214 0.28193192556500435,2.7266958355903625 l-1.3815286755561829,12.067261934280396 -1.53217613697052,9.578851461410522 l-1.6774508357048035,6.647911071777344 0.00352441769791767,1.5094822645187378 l0.6161713972687721,0.5112984403967857 4.47515070438385,1.6074782609939575 l3.688431978225708,2.0610105991363525 3.3476808667182922,2.619415819644928 l2.8484171628952026,3.0076178908348083 m-1.2254657596349716,-29.752273559570312 l-0.0986084807664156,3.3941003680229187 -1.2277867645025253,6.401030421257019 l-1.6679950058460236,5.817868113517761 -2.3329925537109375,5.885949730873108 l-2.3948848247528076,4.524320960044861 -2.1294358372688293,3.1688812375068665 l-3.313983976840973,3.7836772203445435 -2.862170934677124,2.409670203924179 m-4.753321707248688,-24.184725284576416 l0.9259762614965439,0.6670605391263962 1.6442698240280151,-0.12490191496908665 l21.548116207122803,-7.717786431312561 m2.4014179408550262,-10.562937259674072 l1.63257896900177,0.23948848247528076 2.207832783460617,-0.13968728482723236 l18.68182063102722,-3.3556753396987915 1.391199380159378,0.54920744150877 l0.48551004379987717,1.4152686297893524 -1.8363074958324432,6.359768509864807 l-2.690935730934143,6.964936852455139 -3.1723198294639587,6.6169655323028564 l-3.6103790998458862,6.113575100898743 -4.0064892172813416,5.464394688606262 l-4.358586966991425,4.664609730243683 -4.666672646999359,3.7155956029891968 l-3.677085041999817,2.0730453729629517 m5.952655673027039,-30.41245698928833 l1.5199695527553558,1.00712388753891 2.2900117933750153,2.287948727607727 l11.050854921340942,12.57718563079834 5.993916988372803,6.363894939422607 l6.48699164390564,5.96640944480896 3.2981672883033752,2.2332774102687836 " fill="none" stroke="black" stroke-width="1" /></svg>