<?xml version="1.0" encoding="utf-8" ?>
<svg baseProfile="full" height="106.00122992981187" version="1.1" width="102.0130183735034" xmlns="http://www.w3.org/2000/svg" xmlns:ev="http://www.w3.org/2001/xml-events" xmlns:xlink="http://www.w3.org/1999/xlink"><defs /><rect fill="white" height="106.00122992981187" width="102.0130183735034" x="0" y="0" /><path d="M29.330291427209424,25 m0.0,0.0 m22.592323811119403,0.6247170031680077 l0.36537506095523603,0.519837881030375 0.5650821368675074,2.1530584636794536 l-0.05986347630367317,15.022979134518243 m-16.80196008399615,-9.056859304361208 l0.5694583930102272,1.8140793159903918 -1.2875213015653622,7.892136610918948 l0.11794632845208015,1.0402591239475467 18.11078092973196,0.23536865706695873 l19.372510884096204,-1.658284492129436 m0.7203919276741785,-10.767137029650284 l0.5899565475123122,1.1407302278996305 0.18654069563604606,1.4112501857255533 l-0.8321859448637947,11.29983673488255 m-43.09118646094427,10.307930693088185 l4.303797817476133,0.28627373649608256 32.37096554203637,-2.9578806160127766 l6.785642416670905,-0.21893901214864891 3.1046717227286704,0.2912535231419729 m-26.463691358111454,4.031715451950979 l-0.04218314503760805,2.0827023708092947 -1.5927544186874056,16.47992657006408 l-0.23657555730757848,3.3057057180978626 -0.051880650500728064,0.7205689816381146 l-0.45270052042281655,-0.2198435792656323 -0.9946717711087131,-1.2203728280034847 m-11.950373592052067,-13.112332478801376 l-0.10243907224098601,0.39936158680656964 -0.2618726453193901,0.951313586773194 l-2.185629387580596,2.700024960799401 -3.28471152860617,2.897177719076668 l-4.393534726527893,3.1715634481232917 m38.12415613197216,-11.998312478863566 l3.0291168795923964,2.1718339124130206 3.078615004514971,2.9215080225043177 l2.4109410182872604,2.9223737479110716 1.1458258650844237,2.2419305256643454 " fill="none" stroke="black" stroke-width="1" /></svg>