<?xml version="1.0" encoding="utf-8" ?>
<svg baseProfile="full" height="98.68786322901491" version="1.1" width="97.90535600484694" xmlns="http://www.w3.org/2000/svg" xmlns:ev="http://www.w3.org/2001/xml-events" xmlns:xlink="http://www.w3.org/1999/xlink"><defs /><rect fill="white" height="98.68786322901491" width="97.90535600484694" x="0" y="0" /><path d="M25,25 m0.0,0.0 m28.699157279559905,1.2504561366850016 l0.013614421122379752,0.36852423825365993 -0.24486530938640227,0.9501083011097046 l-1.2057762564379688,1.59465166436901 -4.054436703647419,3.8359704807467523 l-4.653303899777067,3.283068490733281 m9.597457939956687,-6.434274420001259 l10.980500723047465,-1.6583961640354388 0.7884405562580921,0.07565299785344554 l0.7169374309651646,0.4219536201505179 0.23554022527693472,0.516483572296427 l-0.14164463656976906,0.48572637810246805 -3.9222293037628044,3.039316954312677 l-3.2179209835982427,3.4178195827924407 m-12.2309077354592,1.2408632389445688 l0.6671088857184613,1.1639881246907682 0.2184795018729372,1.5269174801480534 l1.088265367149882,10.700520174644103 m-0.9654755498405638,-12.593005178950566 l18.9976615222656,-2.185427615234142 4.5509782154356655,-0.28155791485087606 l1.1622184678784568,0.2865435425378378 0.688828451685826,0.7101700960703539 l0.13672739513290447,0.9562977155800474 -2.339843287981668,10.569450569915539 m-13.376715014100489,-9.479421922882091 l0.1269289537998671,0.6591794694527837 -0.1781060893219444,0.7744836314708415 l-1.3542526050618586,2.5365405588379275 -2.2407930195180845,2.1751228601586603 l-2.6601124869324213,1.6891816115335323 m-4.176547676234413,-5.255786105391487 l0.5747612200888993,1.2051968331073888 0.026022132053963507,5.58121421535106 l0.25523284743418084,1.0974621824456057 0.48544776195891554,0.5950845879329691 l0.5967793108402497,0.5899043237607579 1.3069490182459536,0.5361711560088657 l2.1834155195714287,0.31486629180518105 4.266365191503628,0.18641000511169228 l3.9356157471321276,-0.12938271868447115 1.7707191215308578,-0.640762880138738 l0.6614546652304912,-0.7354971660090163 0.2768879590481708,-0.8873977075921402 l0.07521188853265426,-1.498224090970678 m-30.081397410431762,11.664870119065425 l1.441803064398728,0.18515847374385838 2.0493712261215373,-0.03473092091104934 l14.415946742941623,-1.4036962308557317 12.862619394916504,-0.9491919534745099 l3.894709094814247,-0.11950456935808362 2.582766715273977,0.23694842661981774 m-20.4091092032868,-4.201539540708252 l0.37786752512550686,0.5630612260547322 0.1435014516603133,1.2297116110824027 l-0.026599676998094457,18.960609385583265 m-1.4460292557566763,-14.796762808273183 l-0.39260406870743686,1.1712443843010016 -1.4490489460934626,1.9816764115140513 l-2.377610526728471,2.402130773751704 -2.6642161777565154,2.212406470829723 l-5.003077727614058,3.211879783061583 -5.126772898187151,2.391063504807313 m19.60871061459594,-12.79635894860729 l12.700021561507493,9.604367268291034 4.283134185172635,1.442800562919644 l3.108220855044078,0.6246800691116441 " fill="none" stroke="black" stroke-width="1" /></svg>