<?xml version="1.0" encoding="utf-8" ?>
<svg baseProfile="full" height="92.28701496022248" version="1.1" width="93.82630470002553" xmlns="http://www.w3.org/2000/svg" xmlns:ev="http://www.w3.org/2001/xml-events" xmlns:xlink="http://www.w3.org/1999/xlink"><defs /><rect fill="white" height="92.28701496022248" width="93.82630470002553" x="0" y="0" /><path d="M29.36364864729498,25 m0.0,0.0 m25.33186869599839,4.763147507780538 l0.02415964669696018,0.43160940144434096 -0.8035520748134806,2.0263934797741907 l-3.707933258753851,2.4302270003119486 m-5.513422036421203,0.3996950791258416 l0.4536371091605292,0.7309851249383501 0.08149732807437905,1.3350650192128468 l-0.08600632357628299,17.00496872572869 m0.6788178255138658,-18.072975282428825 l18.950052172664794,-1.6889263984005822 1.4951625366017154,0.15182329726504198 l0.6047270697475954,0.27335820965797897 0.770183600350682,1.599138089591725 l0.002027279434746136,16.78292491680843 m-22.027312001685562,-12.343913432430806 l21.345516847130863,-1.683882391411519 m-21.203369652063387,7.164357794560578 l21.24947076376384,-1.5545620818633967 m-21.090898522072443,7.077534011837345 l13.083861400696692,-1.4112844254658865 m-24.798827135793918,7.2685992101150765 l2.3727525912618286,0.21710513494959643 2.8048883709300543,-2.1865760707927238 l9.056275794446837,-3.2160978329020566 1.866012915865704,0.3150753026271318 l0.23435540108410174,0.4756714019877943 -0.07222468590132784,0.6520961329670155 l-1.3581300041018907,1.855976146237244 -2.5489179672861653,2.900967107839228 l-5.626260445158141,2.9102584932538513 -7.561303912960937,3.0491977354978865 l-8.370757976129974,2.629058552405601 m10.447999541600536,-10.83915096789034 l1.9323323805093044,0.4649429307180859 3.0181132330666216,0.9929585604153947 l15.989545060924826,6.781485692156047 9.580323646902759,1.9582439980957338 l2.8579908370214877,0.29676516880318876 " fill="none" stroke="black" stroke-width="1" /></svg>