<?xml version="1.0" encoding="utf-8" ?>
<svg baseProfile="full" height="94.60633995840286" version="1.1" width="98.04890549847082" xmlns="http://www.w3.org/2000/svg" xmlns:ev="http://www.w3.org/2001/xml-events" xmlns:xlink="http://www.w3.org/1999/xlink"><defs /><rect fill="white" height="94.60633995840286" width="98.04890549847082" x="0" y="0" /><path d="M25,25 m0.0,0.0 m6.570932180016116,15.319871839546188 l0.4170096816928479,0.12455408081978768 3.2318964955621596,0.15639582413595077 l29.93954397011548,-2.232497681524707 2.226725455286914,-0.2031061250496608 l2.682780857136467,0.2647112462488747 m-21.10825911664547,-6.658828887372559 l0.034556762594497664,0.9299729915206995 -0.289683322381754,1.0654687626147574 l-1.698797197270995,3.77958046647718 -2.3622703897752197,3.7674928901760305 l-2.441985643795935,3.0466119345640834 -3.7624082986485172,3.3708370231847082 l-3.80710153384688,3.242781629721872 -4.273791474833287,3.04795238103349 l-3.5643493371031996,1.9686473253725927 m25.491928998604376,-17.261105520825506 l8.135648895271563,6.651444025591495 6.024167574209949,4.117128610163542 l4.1577640658204755,2.4210705679296654 2.4445968764612327,0.7508639988333052 m-33.78899641133204,-1.5344487717376976 l0.5914108076157978,1.3601949551671373 1.7082910948091312,10.98284807841256 m-1.271938603665523,-11.827719943884775 l16.448328684799954,-1.8495494189274493 1.365687969916857,0.10170044306321971 l0.8719573977555729,0.3160478869390919 0.5656353049089089,0.6804283492156568 l0.05311921964946698,0.9772628586197064 -1.8008035548742107,10.161360790839996 m-16.78716293363354,-5.125011905795591 l12.605736585603967,-1.090966754622512 m-11.558834106359898,6.643643051243411 l15.518258900653382,-1.4572610759124018 m-8.848840566316909,-15.731809476660876 l0.4821698737207751,0.9854700808207302 0.11576059341505035,1.1896862734807747 l0.0076397157325838825,18.445891021485416 0.5072370798928993,1.8545132398663888 l1.169502456477232,0.9720833428231368 2.24955508784186,0.6217607500828344 l4.27430322515948,0.2603688007222958 5.803464169311884,-0.1319414787754318 l3.4691218995357724,-0.4330782568349177 1.485013505236012,-0.5479535385007298 l1.0616453415804632,-1.0563897627218284 0.4326486681328377,-1.5874549953847086 l0.09692197221861266,-2.2327852142036484 " fill="none" stroke="black" stroke-width="1" /></svg>