<?xml version="1.0" encoding="utf-8" ?>
<svg baseProfile="full" height="99.00076202907073" version="1.1" width="98.81215482139606" xmlns="http://www.w3.org/2000/svg" xmlns:ev="http://www.w3.org/2001/xml-events" xmlns:xlink="http://www.w3.org/1999/xlink"><defs /><rect fill="white" height="99.00076202907073" width="98.81215482139606" x="0" y="0" /><path d="M25,25 m0.0,0.0 m13.120182818248521,5.799357362557834 l0.4676724341046865,0.14912990101379536 1.8695776997675295,0.1341328330731768 l26.5254527701945,-2.8150466849878417 2.3973532343147617,-0.15869624426802542 l1.8562956473418826,0.25513379235784783 m-32.59042336829983,18.05447060658235 l2.691614615304879,0.24231690359914132 25.028517479185304,-2.693259293083439 l1.8093308993888553,-0.06328657201425503 m-15.42883941050666,-12.478059165189718 l0.6967595213118186,1.3614205836149413 0.25051239524346497,1.208336580049058 l-0.06546864895622842,40.004811425765865 m-1.1788361424958889,-28.61138084916432 l-0.417741599921518,1.8413824047998266 -1.4948860865541271,2.534288011919091 l-2.7568693012297523,3.9314319417930954 -2.9648369247605912,3.73179748248766 l-5.910677680448457,6.216666150526395 -2.9376589163840774,2.419071685410993 l-2.797820335566608,1.8215327737656817 m20.695444385433802,-22.226761111499968 l5.070789847901282,6.282005876662896 8.556990942968927,9.575548782816611 l3.789368440543114,3.682691583031276 2.530350105266478,1.5079731391766653 " fill="none" stroke="black" stroke-width="1" /></svg>