<?xml version="1.0" encoding="utf-8" ?>
<svg baseProfile="full" height="104.39950224352609" version="1.1" width="112.65197570074743" xmlns="http://www.w3.org/2000/svg" xmlns:ev="http://www.w3.org/2001/xml-events" xmlns:xlink="http://www.w3.org/1999/xlink"><defs /><rect fill="white" height="104.39950224352609" width="112.65197570074743" x="0" y="0" /><path d="M25,25 m0.0,0.0 m2.166719388863441,21.406378310880168 l0.41070678855641624,0.4210980322414544 0.5088499809634618,1.0321290616776473 l2.3793352447188485,14.332957714579129 m-1.881630936866809,-15.025514132068864 l17.673260542397518,-2.1192538774221656 1.8314632122911996,-0.07828342998694937 l1.7334276537147641,0.25408969069226905 0.5107997480002257,0.9147974086359952 l-0.05341681344438805,0.8110085027355531 -2.413172664921382,11.127186100562959 m-17.248426239206903,2.5153305448443497 l18.71266165685728,-1.9982025103372416 m-11.904550249469036,-25.15651354281025 l0.6855511522947246,1.029358216370984 0.2647132802211878,1.8621803695841843 l0.06301550156273707,37.0553407180233 m-12.190187695674176,5.131622511313592 l1.2673202770828764,0.6041183110145661 1.392386339074905,-0.2714010698650607 l18.401460118033988,-9.432150565839542 m-2.35926576507984,-5.488485920350805 l1.7852826981346908,2.10043567467702 1.9731239934463267,3.0764927188893885 l1.5531289088431421,3.168596135445639 0.7106481508534909,2.3733942465570985 m5.98476036778368,-39.6920510131331 l1.636066699518282,0.5200132001985145 2.014411768475603,0.0770531379609798 l18.07021554680748,-2.017127277494363 1.897973407640184,0.3747142447673816 l0.6903510285420407,1.1891188310062817 -0.10283373000778814,0.7862557845465675 l-2.817958438227766,12.16934703770269 m-19.288025890346066,2.34905180548728 l2.608343894545678,0.38258843871060894 14.802999188984975,-1.5186295734028417 l3.0802154856793673,-0.1474324346706166 m-20.563301555024655,1.7929540767084011 l0.6301864131717594,0.9221437076013239 0.1432119017270649,1.162307346255293 l-0.3144471646703663,19.909469000601938 0.36323842805391277,2.5428682388728587 l0.8805116827635454,1.7324285158364199 1.6000862258839905,1.2468780441833223 l3.2669008061223357,0.7291190038872621 5.177846510387479,0.24172290785547032 l8.830442333997244,-0.17843557738317856 4.466997364255607,-0.6656427722091988 l1.6947846098681265,-0.7857962402037516 1.4013077666325287,-1.6234003940354242 l0.5244867769345168,-2.330037052914374 " fill="none" stroke="black" stroke-width="1" /></svg>