<?xml version="1.0" encoding="utf-8" ?>
<svg baseProfile="full" height="97.99814728268768" version="1.1" width="107.91342408776964" xmlns="http://www.w3.org/2000/svg" xmlns:ev="http://www.w3.org/2001/xml-events" xmlns:xlink="http://www.w3.org/1999/xlink"><defs /><rect fill="white" height="97.99814728268768" width="107.91342408776964" x="0" y="0" /><path d="M25,25 m0.0,0.0 m14.37980816772015,15.477056505094453 l0.5128788108169929,0.1260725434754852 3.2865198022699365,0.03067247050944662 l25.985537985727607,-2.352023000486145 4.654964388545342,-0.1868859370516021 l2.657843496781829,0.23916276334904663 m-28.4037690990942,-5.138408492739812 l0.8018622572599532,0.7871330536474724 0.3319237623175034,1.1755852448405006 l1.270641457969996,24.357920530466494 m16.03589583166955,-28.56742373628528 l0.7812471957320828,0.8134107829909645 0.3755242162811432,1.2347788677731681 l-1.3873077235812936,25.16736374409112 m-16.567388956022853,-11.353765593429378 l10.789742073424978,-1.250210788040627 m-10.449913922436957,8.025127209857125 l10.612329235505184,-0.9563101828913937 m-26.063775905443183,9.04573516225954 l3.363779608925244,0.2862278562148293 18.432330961736994,-1.6639105616522023 l16.9364139182246,-1.3102648456765305 6.890203454837494,-0.2893844752826012 l2.686133068601533,0.25136067186153194 m-32.332507677136554,3.478828381300921 l0.08250105132970584,1.027143941239052 -0.4487853061958891,0.9923781527266831 l-2.8743856982974405,2.8073062728093032 -4.054762756703556,2.805511450580062 l-5.522250388154346,2.937959291136052 m27.78827031861602,-10.094297286719124 l3.5550177353980184,1.8339950623503143 3.701159375086178,2.7056855811657163 l3.047839940585159,2.8646542490399516 1.6685257178054715,2.31942784930231 " fill="none" stroke="black" stroke-width="1" /></svg>