<?xml version="1.0" encoding="utf-8" ?>
<svg baseProfile="full" height="107.92787161885174" version="1.1" width="100.97569171880332" xmlns="http://www.w3.org/2000/svg" xmlns:ev="http://www.w3.org/2001/xml-events" xmlns:xlink="http://www.w3.org/1999/xlink"><defs /><rect fill="white" height="107.92787161885174" width="100.97569171880332" x="0" y="0" /><path d="M25,25 m0.0,0.0 m7.995504587676428,23.853048722521127 l0.5411628910503417,0.12738032671529398 4.04439640537148,0.1915880314793248 l31.44871290934092,-3.2495035307105824 2.8754140990198596,0.25554388685065976 l1.358642267710003,0.6443376626746452 m-21.744371210152444,-15.091595170498922 l0.8869368345035508,1.438807168736554 0.22569918505262443,1.3455357651684148 l-0.016402318242875077,4.138772510935419 -0.5443347313138329,5.103167913909165 l-1.57690837446964,6.971785084860654 -2.2565704006209977,9.40681022588342 l-2.7801504707786173,7.78288212927492 -3.2926837039904555,6.409206784847614 l-3.8839830539646703,3.79759961432362 -2.909637191893022,1.7032181606352477 l-5.300748057799686,2.291707896284114 m21.614545718449957,-29.16128175444055 l8.15216198095015,14.456984364347253 6.560697981976651,9.710333906939542 l5.764135200054042,4.176917524305215 1.724668498688723,0.88945516003832 l2.08880267218482,0.7351692337712871 m-15.960142902045483,-49.10899068923023 l1.935304480851462,1.3966194206116602 1.9259880034934853,1.8084974649084535 l1.3668401430322175,1.7562699534441961 1.2392368851941253,2.24159589078365 " fill="none" stroke="black" stroke-width="1" /></svg>