<?xml version="1.0" encoding="utf-8" ?>
<svg baseProfile="full" height="90.73946938453307" version="1.1" width="110.96064888945429" xmlns="http://www.w3.org/2000/svg" xmlns:ev="http://www.w3.org/2001/xml-events" xmlns:xlink="http://www.w3.org/1999/xlink"><defs /><rect fill="white" height="90.73946938453307" width="110.96064888945429" x="0" y="0" /><path d="M25,29.493117504045866 m0.0,0.0 m21.28876882500184,4.725623386159364 l0.34043322450814795,0.45093537866615674 0.5341758802798007,1.7286283344549198 l0.01320850812991658,29.341164781206757 m-11.547836483624033,-17.93782298567076 l0.4576366185418171,0.9265541060267912 0.11145065434268445,1.070615410039871 l-0.49086180579178146,11.609923239845333 0.2079014528778704,0.9021310625730053 l11.940344273857523,-2.3629252893865433 11.618227054563045,-1.4237719911895392 m0.32215596360723164,-14.239425569863679 l0.5078241412364696,1.0304396838067662 0.1208789939674337,1.2419729933368562 l-0.9530840031097132,15.663847083719494 m8.382731135443327,-35.46960987693307 l0.5958071617957688,0.4052199904522633 0.7461928810975024,0.07817010809015972 l14.664653168379274,-2.23478734938001 1.2279762118990154,0.22523452976046682 l0.7217729288427019,0.9078601698373631 0.15029210360846235,0.7097640337977946 l-0.10021513642482532,16.67676960646716 -0.5587630706790476,9.134560346865959 l-0.9575746239450587,6.138653206194024 -0.41420364353187095,1.9820222559015368 l-0.47928732974513977,1.205671893222985 -0.5658627375433065,0.6881724137856058 l-0.5840376492730532,0.25935976660842713 -1.2503966605109256,-0.37754249385390143 l-2.198884999807901,-2.10595917444827 m-3.5663521243550034,-32.99574879170043 l-0.1655674245790484,1.0447186214348716 -0.6616582627223756,1.6100585087996084 l-1.6193476685814263,5.347677593610897 -1.6129408886386511,4.312564173623463 l-3.2376850847848506,6.399661457233942 -4.384594570425014,6.604051977755231 " fill="none" stroke="black" stroke-width="1" /></svg>