<?xml version="1.0" encoding="utf-8" ?>
<svg baseProfile="full" height="108.92012828584792" version="1.1" width="95.9207635557911" xmlns="http://www.w3.org/2000/svg" xmlns:ev="http://www.w3.org/2001/xml-events" xmlns:xlink="http://www.w3.org/1999/xlink"><defs /><rect fill="white" height="108.92012828584792" width="95.9207635557911" x="0" y="0" /><path d="M25,25 m0.0,0.0 m14.258020083265691,4.853652238344335 l0.42341090125648745,0.4374049411188824 0.5254303642279463,1.452380322949475 l0.8113495951338578,7.804121514568136 m-12.86981518709395,1.4707284068602449 l3.3315290703349247,-0.0028775559620350735 16.451175847052014,-2.2339672651034785 l3.694156215263966,-0.1220959081376816 m-11.408139094564858,5.897782223121816 l0.4565545264237869,1.36236777887586 -0.10565741588377629,3.0735171272034103 l-2.1300835637699715,19.906382086906287 -1.3617586315532726,4.5279830362332145 l-1.6848060062096062,3.9888254211410037 -1.8845315345596485,3.385843053930336 l-2.154650355542405,2.719372059803454 m15.067230637753216,-38.46222245737737 l0.5238795516901201,1.5596184382361982 0.12442908966860212,2.5407965492860063 l-0.23817975946767697,32.571424225248506 -0.5539695152882043,1.9517122830661298 l-0.6202595038621169,0.2373797655351866 -1.4739980366043586,-1.156297798380514 l-1.6314712874723507,-2.108729168752911 m-7.662698942196637,-25.441726832206683 l1.718592885956572,0.44530084345797377 10.366374198855208,-2.3796361731415074 m23.948649422977546,16.046546625791155 " fill="none" stroke="black" stroke-width="1" /></svg>