<?xml version="1.0" encoding="utf-8" ?>
<svg baseProfile="full" height="102.69159507615339" version="1.1" width="91.86965270567094" xmlns="http://www.w3.org/2000/svg" xmlns:ev="http://www.w3.org/2001/xml-events" xmlns:xlink="http://www.w3.org/1999/xlink"><defs /><rect fill="white" height="102.69159507615339" width="91.86965270567094" x="0" y="0" /><path d="M25.441428579956703,25 m0.0,0.0 m10.990399694201178,14.345743004988941 l0.4177779436896335,0.38699484843055426 0.5182671857293293,1.5767376494867162 l-0.024634292989084913,7.2439272199422655 m-12.34323911058776,1.2938929314579568 l3.163741773304177,0.11317992978728092 17.74546558364919,-1.8407476239927085 l3.2358661868118745,0.05873148483589768 m-19.91476883247416,5.453182718813465 l2.6132585497816168,5.208692677698462 1.0403802117739864,4.564198333146468 l0.5708540369562193,4.199916633068545 0.23088328887147722,3.6638654071527252 m9.978274798374153,-20.75803652701442 l0.33383600664427704,1.6149746870695354 -0.4036768861575682,2.3887024153335354 m-13.967941615246131,13.549986141548956 l0.8658696826242852,-3.333613306886735 8.943372074052766,-2.1047953691074404 m-1.0008672645366115,-6.958680164963257 l1.191571725438989,1.8363555237724796 1.2118413192681174,2.773688205402232 l1.052445948588454,4.562741819774125 m14.281653757394617,-30.835847440311614 l0.631206391180061,0.930291793342373 0.25388263137824385,0.9675270348459225 l-0.0018816133167133076,12.114676679055114 m-9.156879633680388,-6.766622188372519 l0.4096706980609133,1.136623721599749 -1.1627527379557125,0.984161234850156 l-2.7878024597869615,2.2912556054803237 -3.4443081039962085,1.8798614767961936 l-4.019432954525268,1.5653228401720372 m20.443158971035025,-8.422300240645766 l2.632592902274762,1.2541365888449056 3.1058599240462863,2.0111814249019564 l2.451496342138034,2.1263530454142243 1.3427820036991407,1.8741027140122561 m-25.18679572155912,2.82295701358007 l0.6628902939273347,0.9789455713613704 0.18378242713304047,0.8640042972136198 l0.08015101073418536,24.588867102691616 m0.4818759836428564,-25.77382068500798 l16.61214584690141,-1.609390378261432 1.475262611206487,0.19712482246677965 l0.8400229605669143,0.7133919186618639 0.3395695789631218,1.5937333027767204 l-0.13239524040302839,24.14244912325102 -0.3548436514091849,0.9100019582161692 l-0.5470539038637162,0.31296809947267956 -0.6959231448257461,-0.13906585664679805 l-2.8207201892465394,-2.2332357462918706 m-14.174812056367625,-16.59662258853394 l18.636412968348477,-1.316516675294155 m-18.578015063556233,8.300608759183076 l18.34206285226966,-1.1350117682331933 " fill="none" stroke="black" stroke-width="1" /></svg>