<?xml version="1.0" encoding="utf-8" ?>
<svg baseProfile="full" height="106.19032719911033" version="1.1" width="99.0224226180541" xmlns="http://www.w3.org/2000/svg" xmlns:ev="http://www.w3.org/2001/xml-events" xmlns:xlink="http://www.w3.org/1999/xlink"><defs /><rect fill="white" height="106.19032719911033" width="99.0224226180541" x="0" y="0" /><path d="M25,25 m0.0,0.0 m19.99717176040502,23.164804660826025 l0.01585671851691334,0.44386905764898027 -0.5450296369635949,3.3152180352523 l-1.6470309567323387,4.2677998052288535 -2.0566705896232365,3.6116835378483447 l-2.513929613608577,3.1233505468922886 m6.0694202062947,-18.1766277417461 l1.1994294811033448,0.8007390613426572 1.636924862844839,1.6474000899735832 l1.4349217039674727,1.9543433193536026 0.873303455565067,1.6085967116213298 m-10.069738677597803,-15.137437888317386 l0.7103212908406615,0.8809641624023834 0.3274602819060774,1.5024957804232948 l-0.13159356530554012,43.183128060360154 m21.245554140827085,-35.00778366347846 l10.031649975916798,1.604314886125652 2.444401779697203,0.3418348334397862 m-14.923133844098611,-14.00653293519452 l0.7123538400060303,1.0184082906515262 0.3780314143274241,1.131763961495477 l-0.1475520671681974,22.835498955520887 m-10.317952372472291,0.631158122138707 l0.5454748344191418,0.8434622694489221 0.5673987329534054,2.6049815121529285 l1.5577919433091805,11.827665000665176 m-1.69393522856508,-14.434799824380926 l8.493542296108293,-0.9682483788822045 12.370650276500685,-1.0327984556606502 l0.7251132793564588,0.6879123398706168 0.31840770914294025,1.5292534794633128 l-2.5680957027171827,11.156950522394572 m-17.75653566633703,1.2792784201551455 l19.16628725702147,-1.0322513653295655 " fill="none" stroke="black" stroke-width="1" /></svg>