<?xml version="1.0" encoding="utf-8" ?>
<svg baseProfile="full" height="112.41451065660846" version="1.1" width="109.3625643117675" xmlns="http://www.w3.org/2000/svg" xmlns:ev="http://www.w3.org/2001/xml-events" xmlns:xlink="http://www.w3.org/1999/xlink"><defs /><rect fill="white" height="112.41451065660846" width="109.3625643117675" x="0" y="0" /><path d="M25,25 m0.0,0.0 m28.141049201791876,5.020865519477722 l0.3284044883150817,0.37445090072282694 0.5031996781088939,1.5391668682842996 l-0.013645713641726046,5.2627242216672965 m-19.086254827232565,2.1892380563303773 l4.5070967420306385,0.09291822822070167 29.53559549980858,-2.78011605732403 l2.490737306708514,-0.07479845347169246 2.344204876194768,0.23118476057688536 m-20.668322952232625,8.051427892779413 l0.05267400543022084,1.4493940433838952 -0.3306503932948494,1.1857743441845483 l-2.8905233976036246,5.77676557794034 -3.757506693435414,6.333586100540027 l-5.101831698189738,6.8725444352743015 -2.9805211829470917,6.389985766265698 m8.310970550208342,-12.525466118826422 l0.5094659826791054,1.158171079687987 0.18226086667411023,1.2265828491732091 l0.10394825722689194,23.52261055515387 0.19237177103501218,0.702000744275512 l0.41356657176965633,0.4154993422917031 0.6196562923120184,-0.2866632970663577 l0.8253070624810158,-0.6632034917987686 7.847796208472857,-8.298834855541832 m9.154947878484196,-25.387449558915595 l0.04162796837808548,1.6963518081737552 -0.9187671569784767,2.831586484460478 l-1.5870244181411854,3.2150786062727637 -2.866229055715062,4.355006688679062 m-6.722097057759841,-4.867188180679902 l16.8379882010663,0.8070596339337097 6.316922442656003,2.2696979087731686 l4.080618008914246,2.1798782938143777 2.945528998193284,2.473363232628434 " fill="none" stroke="black" stroke-width="1" /></svg>