<?xml version="1.0" encoding="utf-8" ?>
<svg baseProfile="full" height="101.02420916425928" version="1.1" width="112.2426472444674" xmlns="http://www.w3.org/2000/svg" xmlns:ev="http://www.w3.org/2001/xml-events" xmlns:xlink="http://www.w3.org/1999/xlink"><defs /><rect fill="white" height="101.02420916425928" width="112.2426472444674" x="0" y="0" /><path d="M25,25 m0.0,0.0 m17.78928216289683,5.545150453255678 l0.12228443699180722,0.4722271705347275 0.03175893577503211,2.0560360910395175 l-1.7223988268507866,10.657317496837418 -1.1101617601348863,6.598299545047921 l-1.3363639134205803,5.909886946803662 0.4240142630045802,1.9141784037599843 l3.4521525778623285,1.3601531587671662 3.3562379943368246,2.1072317296022445 l2.8433654181990797,2.492864654989553 2.1421739241956423,2.8177042800337224 m-0.6986551685275806,-27.26585929127569 l0.27714483300103254,1.3683699420912794 -0.09747395438487988,1.1968194553298135 l-1.3277625462050153,5.587458793066289 -1.697349892033802,5.200671523329659 l-2.4350724447800403,5.400448745914543 -2.5815368067967497,4.235775196816487 l-6.348910590051178,3.067610233158378 -3.655780021648057,0.8230318894868279 m-0.6485603657560577,-20.109002147462576 l0.8914760540211009,0.6438513197879949 1.5324797218715451,0.03321877578658141 l19.631703161383054,-3.93187631032 m14.275785489498286,-15.759773118186544 l0.6810094645461404,0.8684078203382756 0.14842959419815657,0.9678590651289892 l-0.010655465948805265,25.049244776106843 -0.3788836556588163,1.5832743611222548 l-0.6117973648736377,0.5739931413426328 -0.7666339344811605,-0.1451750510365759 l-2.1284339292155736,-1.6303844919536736 m-4.180411482998354,-12.94973068522138 l0.010917220975781567,0.7543199458049188 -0.3887650112126463,1.2135042311726274 l-2.115278201259312,3.805260820821537 -3.1528110296516765,4.034756965487204 l-2.9009040306848726,2.744189475399835 m25.758050540147977,-13.719621813592223 l2.6809977509148166,1.5912979569467562 3.139778194185395,2.595415016432222 l2.1013739195310546,2.234201806395447 1.2468319835054185,2.0377087694372547 m-7.449081092952556,-1.0260282977525017 l-0.30047500560856005,2.4838498568754654 -2.142508500515816,4.156961952895191 l-3.2244774048658824,4.53631911976977 -3.286828389805069,3.752894885662994 l-3.763133863617375,3.7227655854458495 -4.1758868053744465,3.5162754944372008 l-4.415640360242044,3.1632901959507262 -4.6196934571984745,2.6875633226469695 " fill="none" stroke="black" stroke-width="1" /></svg>