<?xml version="1.0" encoding="utf-8" ?>
<svg baseProfile="full" height="105.80258703022733" version="1.1" width="104.02088399173613" xmlns="http://www.w3.org/2000/svg" xmlns:ev="http://www.w3.org/2001/xml-events" xmlns:xlink="http://www.w3.org/1999/xlink"><defs /><rect fill="white" height="105.80258703022733" width="104.02088399173613" x="0" y="0" /><path d="M25,25 m0.0,0.0 m12.276368541373,8.611392296223064 l0.13893516952256407,0.44561089739454346 0.06586441342560372,1.8077972593245786 l-1.979790861531065,10.419394457078488 -1.2717539956472796,6.10887004071714 l-1.389667715767186,6.879015770563839 3.8022534637473298,1.395174658808154 l3.475893727930351,2.036555103659108 2.932216010233083,2.3991260601840514 l2.3581379718741604,2.724385250781061 m-0.7376482202722812,-25.777930612376185 l0.3489816352797412,1.3542532320002127 -0.054495007237582355,1.181663153341282 l-1.2597602390022729,5.7476266696808835 -1.6174156309626242,5.233021665071154 l-2.371384287476872,5.3673354155749 -2.515491171414016,4.163796425256023 l-2.240344290489891,3.0562850230139738 -3.6171124836232225,3.9782281740259164 l-3.145554786672058,2.6553921822966964 m-2.1576534391017366,-24.92579964112884 l0.8296970336017347,0.6653337105465519 1.4224410642580256,0.011392585653789552 l18.747662655678884,-4.185327068478884 m13.657028927304397,-17.21268576279908 l0.6781210466861588,0.9000247715174603 0.14159873411515111,0.9892853027114514 l-0.016881020677282862,27.51801974755214 -0.444449979664788,2.0661638747287263 l-0.5801914857790053,0.38758583541984165 -0.7253453672363143,-0.27585676551145216 l-1.909695628791872,-1.6962320991393143 m-3.9219717771001514,-14.199513217348336 l0.005779983032094742,0.8198171212935718 -0.3787694891329711,1.3086963725268992 l-2.0162281028500773,4.073423331454121 -2.9281322494752295,4.238326331679696 l-2.7120047838631245,2.937769014570897 m24.26467045836156,-14.625117573473728 l2.609979168434199,1.620681895490785 3.0484638300132314,2.7173736514641105 l2.018163083234564,2.3478389608010755 1.190369087399201,2.0984435104820633 m-7.037559972919365,-1.147873294193754 l-0.300451684461394,2.6095605803345365 -1.9840114546891858,4.388716396810756 l-3.02144935305644,4.805951421478171 -3.127690580730383,4.0204255424779385 l-3.5972472818854215,3.9532452985213253 -3.963652079772702,3.7052679436565676 l-4.180144920614081,3.314694759492942 -4.375755485894577,2.785961369016434 " fill="none" stroke="black" stroke-width="1" /></svg>