<?xml version="1.0" encoding="utf-8" ?>
<svg baseProfile="full" height="107.57388612022623" version="1.1" width="109.49251309037209" xmlns="http://www.w3.org/2000/svg" xmlns:ev="http://www.w3.org/2001/xml-events" xmlns:xlink="http://www.w3.org/1999/xlink"><defs /><rect fill="white" height="107.57388612022623" width="109.49251309037209" x="0" y="0" /><path d="M25.000000670552254,25 m0.0,0.0 m2.992120683193207,5.7936012744903564 l0.6665457040071487,0.12906989082694054 4.7135114669799805,0.033793316688388586 l37.66721248626709,-3.981437087059021 2.961415946483612,-0.12500097043812275 l3.124929666519165,0.3854591026902199 m-46.26833915710449,24.345381259918213 l3.7108540534973145,0.17372746020555496 34.80647802352905,-3.799329400062561 l2.902369201183319,-0.13259471394121647 3.4542283415794373,0.37055548280477524 m-25.483922958374023,-16.484609842300415 l0.700611025094986,1.8081140518188477 0.2994440495967865,2.354295402765274 l-0.18347986042499542,4.625319838523865 -0.8026178926229477,6.540550589561462 l-1.9814689457416534,7.977351546287537 -2.923187017440796,7.1189045906066895 l-3.7532463669776917,6.249102354049683 -4.473918080329895,5.3702157735824585 l-5.084066390991211,4.482245445251465 -7.045474648475647,4.339170753955841 m25.072109699249268,-31.176621913909912 l14.325622320175171,14.881266355514526 8.232463598251343,7.976594567298889 l6.92018985748291,5.636304020881653 2.5477108359336853,1.47238090634346 l2.394416779279709,0.9320662915706635 " fill="none" stroke="black" stroke-width="1" /></svg>