<?xml version="1.0" encoding="utf-8" ?>
<svg baseProfile="full" height="118.17211574333517" version="1.1" width="101.04799380321043" xmlns="http://www.w3.org/2000/svg" xmlns:ev="http://www.w3.org/2001/xml-events" xmlns:xlink="http://www.w3.org/1999/xlink"><defs /><rect fill="white" height="118.17211574333517" width="101.04799380321043" x="0" y="0" /><path d="M25,25 m0.0,0.0 m28.819074560812002,0.6306876557283425 l0.3958747370075369,0.25804384947223813 1.3194487964748092,1.1252326529291654 l1.2382213104096076,1.6304523867633527 1.5762974882898857,2.985452609395539 m-20.47340933384317,4.672450318694448 l3.223754714690633,0.28432667953707136 28.825327056273817,-3.0354400053431 l4.131450003936304,-0.17779206092561955 1.9919544691589997,0.37288421675227706 m-25.95672478751654,3.653910715696702 l0.6115214734452082,1.1478726913891433 0.133341769244767,0.7261183320668009 l-0.8161840931218123,6.607365248238743 -1.042867695805197,4.797499901491131 l-1.0946160607648059,3.128782507748274 -1.5322553217594594,2.944113193345599 l-1.9319172157638302,2.6624796691553265 -1.7863265716413026,1.9586293720049763 m16.580128813971232,-25.266772001019067 l0.7904636144599098,1.1884522072547155 0.18152170646705845,1.5303729392278866 l-0.10070248296897337,16.79794502687906 -0.24909881620584307,1.3431551389857237 l-0.47655524733485616,0.5833553984253331 -0.6679429662161842,-0.04792427791663917 l-0.7787953702967139,-0.4938654585254507 -1.8678164990608166,-1.9752297383845951 m-13.157468994513431,-10.160518080176772 l-0.0687525899832771,1.2580371195019227 -2.6184165951898533,4.677328120762485 l-2.756900487979135,3.719032133871022 -3.01051544948382,3.305141906509902 m32.7136196138242,-13.032839039825053 l1.8195815871275278,1.9492121188074096 2.0946249514089934,3.031532046208288 l1.7434742629556954,3.2118670151030853 0.753505589445706,2.117241606478427 m-22.279238120116567,3.3122641860194872 l-0.06539221527368655,2.137037488361834 -0.8792007531134621,2.6348775206450816 l-1.6687047742958923,3.483179624768225 -2.291838801123183,3.6059643028488635 l-2.2821525514162584,2.86382502092825 -2.651561679534605,2.7003760977159055 l-3.006692473856648,2.3590843945193236 -2.430743022962387,1.43882405283611 m16.04811909459687,-14.847317440718607 l2.734813636857859,-0.2507276975107205 7.798610075652412,-2.401040394809 l1.2235449953559652,0.13239931820403275 0.2659225753489353,0.4794728696987575 l0.002851924619247852,0.7873743393904727 -0.23311424578187973,1.085713912496446 l-1.5348608945270652,3.769255539838548 -2.4013042075341033,3.890084101886696 l-2.271468941229097,3.1647931821405666 -3.647075776364145,4.242328734088147 l-3.0399861125622465,3.0481259158922094 -3.184536273995675,2.8425135453077823 l-3.3497088538615185,2.54771597607962 -3.385941633905361,1.9951708552325402 l-2.2033554688817336,0.9829480536510637 m8.716935018016423,-20.971558275814164 l3.8328395578924344,7.944089140068782 5.146559264314224,8.485996050189723 l9.855327339548232,6.259017370777699 2.2092434544620496,0.3417338422934175 " fill="none" stroke="black" stroke-width="1" /></svg>