<?xml version="1.0" encoding="utf-8" ?>
<svg baseProfile="full" height="109.8831001894136" version="1.1" width="109.56395807611904" xmlns="http://www.w3.org/2000/svg" xmlns:ev="http://www.w3.org/2001/xml-events" xmlns:xlink="http://www.w3.org/1999/xlink"><defs /><rect fill="white" height="109.8831001894136" width="109.56395807611904" x="0" y="0" /><path d="M25,25 m0.0,0.0 m13.596752411455572,19.194847378174366 l0.012356381978783568,0.437107047447164 -0.5907754846507984,2.9879087261216646 l-1.7509112297771048,4.203356830532745 -2.018688336356426,3.5835326831617387 l-2.369082587384719,3.0758520786581336 m5.997314340012743,-6.631383978750407 l3.56878359911822,-0.43177904170044357 6.4535930326890005,-1.6576936096683372 l1.9474385553926659,0.0037371975251070935 m-6.221007563012498,-12.12956560198422 l0.7331819681301077,0.7725259157765013 0.3794103825627068,1.5086049548448923 l-0.24358477974808918,42.894787938689305 -0.2969421335031814,1.4416600783054225 l-0.4953189118723567,0.6296015922799653 -0.6295088281745367,-0.041235454001411855 l-0.7077180138118381,-0.5476529905219663 -1.654157114242514,-2.160201555836593 m-7.897055872577414,-12.55916003192946 l1.4160391439093247,0.3112998690616681 0.9659702413462491,-0.5087063637451937 l12.55449960405242,-10.367574250109916 m11.875394206137146,-16.023112436639984 l-0.23022291711768667,3.052082965489569 -1.3851570755299318,5.368329085710433 l-1.8174399911583483,4.9406082531150375 -2.278787119071111,4.597000373144591 m4.998364325151763,-7.853731690757438 l1.9295073069855873,0.18331586887236065 17.049345643569808,-2.352733306438083 l2.9800385999139243,0.043809960730780556 0.9632632701992133,0.2497028704358636 m-14.498089132814886,-15.180578931608705 l0.764056286395399,2.5697262164306443 -0.02026055959381417,21.933362127892256 m-10.611766405790215,1.2578070436113955 l1.8860780150913947,0.26683196825545813 17.380367235682584,-1.87178331995353 l2.580780693513219,-0.14151636720110883 1.840887637284548,0.1925186581157958 m-25.352588346447668,13.266993615749833 l0.6691850930557317,0.27736273739281875 1.5314774201201582,0.1243682826199409 l22.087138040279182,-1.9091066058006916 2.638814323179338,-0.08470128640447606 l1.8329827215473729,0.287564364242686 " fill="none" stroke="black" stroke-width="1" /></svg>