<?xml version="1.0" encoding="utf-8" ?>
<svg baseProfile="full" height="91.98922284670604" version="1.1" width="100.32806843228684" xmlns="http://www.w3.org/2000/svg" xmlns:ev="http://www.w3.org/2001/xml-events" xmlns:xlink="http://www.w3.org/1999/xlink"><defs /><rect fill="white" height="91.98922284670604" width="100.32806843228684" x="0" y="0" /><path d="M25,25 m0.0,0.0 m13.029704810164743,17.417381139701575 l0.3397589134883691,0.38285768400880227 0.4511041560011821,2.5282685307764665 l0.8713881866890586,5.427719871594761 m-0.7984634646494984,-8.974593896144315 l7.9101120555769855,-1.4922078780504433 1.0146657995596602,0.010983466834027445 l0.7060578367732963,0.2668461274677079 0.38019029988077585,0.9195882973851027 l-0.09775968237986027,0.8563097796449535 -1.538615171078837,5.580696237526883 m-6.628427726334995,1.5316478292851106 l8.087540716029348,-1.002833738665449 m8.660574783111374,-8.181789996171913 l0.1317085044609229,0.698119514752036 -0.03466571178159895,1.1139087521042645 l-1.2041014582832037,3.676960912705325 -1.6837371051410268,3.55620620404963 l-2.678091311923209,3.465898555091012 -3.898871576251468,3.6801452373921193 m3.3935429034627007,-18.54583350937644 l1.8126549225651307,0.24932641432565467 1.3630231431684652,-0.005958247699149034 l13.299955454840578,-2.1898967611476787 0.9292841080530695,0.21875263247233692 l0.2625066771743366,0.378334162257455 -0.08704364753602147,0.526042630035794 l-3.0174328112948254,7.435649619503337 -0.16998088770078273,0.9273021144461832 l0.28327664245884504,0.460253774990958 0.5047958039710155,0.1323355416167089 l6.988343493603832,-0.8747734013094368 0.47702230610069685,-0.13003121357548253 l0.3855427382646164,-0.015403470309172275 0.3790382811039218,0.10952593230463548 l0.3140700089576749,0.24775122240212474 0.17236264969439005,0.3736362725899501 l0.01703379148716408,1.8135359041096546 -1.062549799220457,5.6560828996781165 l-0.9091014145641435,3.123348133259725 -0.7767562816337439,3.9585283998409984 l-0.6108105778600456,3.5703614758464823 -2.4016323772522017,3.1082396891556394 l-0.9289261330927391,-0.6517811027061373 -1.1680397719500857,-1.2838520248352232 m-11.57188776354706,-14.877255670683793 l1.9098778522761453,2.301540632898593 1.1302474108909475,2.2515534704667175 m-17.812893283437027,8.767442351258063 l1.511435788624817,0.23997522925231807 1.6035666735328775,-0.011616693870578761 l26.38233211440996,-1.8204845299835428 3.0369898408225597,0.20743355718065934 " fill="none" stroke="black" stroke-width="1" /></svg>