<?xml version="1.0" encoding="utf-8" ?>
<svg baseProfile="full" height="120.03720083272103" version="1.1" width="100.61706253775871" xmlns="http://www.w3.org/2000/svg" xmlns:ev="http://www.w3.org/2001/xml-events" xmlns:xlink="http://www.w3.org/1999/xlink"><defs /><rect fill="white" height="120.03720083272103" width="100.61706253775871" x="0" y="0" /><path d="M25,25 m0.0,0.0 m14.283731039066982,13.581521632110851 l0.44325972573234396,0.13710957573706023 1.5950222465031805,0.07956486229369265 l25.346182099003055,-2.535452964853247 4.596405110404433,-0.19701611440521252 l2.4462345767324942,0.2699062195565957 m-25.910265924882562,-5.088298495662676 l0.9866693915963344,0.7711174709970386 0.35180654099402,1.0574551779804526 l1.1418770133109497,10.64425683951786 m13.174820596546503,-13.898955494954857 l0.34883133560831503,0.9027977809738356 0.04807157709441152,1.5917658067666307 l-0.623077179979503,10.561650130042727 -0.24325403961565364,5.936753641424824 m-23.08983829556217,-1.8269881368343666 l2.613327973412454,2.198889759904885 1.763879552074365,2.0607702956541454 l1.2735422162086807,1.9628483811109245 0.5478513722839613,1.692390695591053 m-8.972582894648202,5.920535432416798 l3.5064809150396794,2.340575174313118 1.8464162071197943,1.9063994014371455 l0.67952384392726,1.1404529063511726 m-5.583329105000548,20.211607684283685 l1.1303107798478345,0.34017165492250523 0.8241083086075857,-0.6282340369199725 l3.9146502847658686,-9.479358999692314 2.68979336087849,-6.926739415916868 m4.62911837488801,-18.17811279372949 l1.8969125774039,0.12981404819787373 13.311958088056363,-2.041508871109006 l2.5557123425593966,0.13363911439524673 1.3828425936594608,0.29943871629955987 m-20.14606453607341,8.813884080873743 l0.5478391450111761,0.9734151695938122 0.5234958061705473,1.0713342796484586 l1.6967141161423105,16.538217421163207 m-1.318401858459073,-16.90654877252432 l16.707468329302134,-2.100455868280504 2.7556901716125926,-0.15159265739515043 l1.291107895776618,0.8282243214021275 0.16549129455074163,1.2524805997906656 l-1.0526834233813198,7.659386474116599 -1.2091793208216157,6.7000637732748585 m-16.8914551203694,-6.665300689843923 l13.301064095546472,-1.4844592506307042 m-12.589997990458567,8.913377030133075 l9.635906641130601,-1.2501439593569137 6.883284438622713,-0.39785820794211013 m-21.5293778635672,10.13670224844367 l1.9632599677499754,0.4397152139200056 19.571149666766924,-2.1537819218226963 l3.89755888064507,-0.1868257648677266 1.507199598223941,0.33754134017172704 m-15.1902683567874,-38.42890945109752 l0.7450187541747274,2.9858389710940174 -0.01569418305879015,48.04212937465494 " fill="none" stroke="black" stroke-width="1" /></svg>