<?xml version="1.0" encoding="utf-8" ?>
<svg baseProfile="full" height="121.20243477112305" version="1.1" width="112.15642349253345" xmlns="http://www.w3.org/2000/svg" xmlns:ev="http://www.w3.org/2001/xml-events" xmlns:xlink="http://www.w3.org/1999/xlink"><defs /><rect fill="white" height="121.20243477112305" width="112.15642349253345" x="0" y="0" /><path d="M25,25 m0.0,0.0 m16.399103122718856,12.474247645348045 l0.43997071398697174,0.10392269521422076 2.666330118730648,0.11836720274127605 l10.560438870221358,-1.499262406734934 2.850457667771778,-0.0731907442124441 m-8.667558315965177,7.13570120128823 l0.026157061358464892,1.3232346777720039 -0.686262125828937,3.545145180100837 l-1.8864718454879152,5.207691626467253 -2.150516290862522,4.73814619132862 l-2.7902048981611305,4.415168419420325 m6.392863404763521,-10.559041568958328 l1.9468732510189304,0.2468781266963356 6.050900052428468,-1.4484372346771404 l0.9687970445523648,0.20629836779013092 0.30499581059311304,0.49247995847679404 l0.09136345677856636,0.7438171756953044 -0.7207210880743901,2.1446834269556074 l-1.4556322962633923,3.949055426100101 -3.2753887081623283,7.047658271387968 l-3.9825558427177663,3.478167237264436 -2.1866287620542444,1.2426420064177182 l-2.4097639518717835,0.946566485380154 m5.300188475423588,-14.268352305389271 l2.1760473069700046,2.059467495589323 1.1177024608514812,1.8212318486056862 m15.66921787674809,-16.549141660488583 l1.4636757263628264,0.2112963415807938 10.846943207643887,-1.7993243869376931 l1.2302539680032047,0.06620296914084588 0.7844141799623812,1.4488601428614052 l-1.598196763218785,4.187322237844665 -5.45279642890744,6.318685542677398 l-4.249449888440677,2.6994347461223342 m-0.033829373364526426,-9.138510302971232 l4.281745085304201,2.3071787542229427 3.500663190831404,2.5365401314855074 l2.804086214004027,2.8070937118306576 2.0221607067249026,3.121402036497488 m-18.53371643211763,-0.693729235614313 l-0.35874006399096675,1.6749452318956621 -1.4095899297326435,2.0670746949832615 l-4.730268233716202,3.588656339752531 -6.72511736307977,3.822582388983307 l-8.691764969160925,3.486878487267296 m24.164637136419866,-12.856589193644345 l7.270853047515256,9.074925818935752 5.877303056842723,5.496517252847822 l3.436119439477248,2.6152736003014607 2.321884488740301,1.0189385592265743 m-20.156306342684278,-7.771852421337593 l0.3502625355588332,1.3358716044824095 0.06017216133135083,3.8301399772906857 l-0.8607073256254751,6.899328031267975 -1.0425893717681294,2.911997003256174 l-1.3427994173418856,2.157454625420337 -1.785933857649118,1.8281734348787475 l-2.317101012789887,1.6100684426603764 -2.9611557952937253,1.4896172600858861 m-6.255803096278203,-19.640503752253725 l3.9293411329143706,0.3767158495539816 26.765619676025405,-1.8228386445271865 l6.802451634564896,0.24259223462225574 m-33.030011289253196,12.12181824906366 l3.0827106181742416,0.49472451932335854 21.07669123752003,-1.5853559425281207 l7.650336358603975,-0.09704770266508016 m-16.953963707246587,-15.162288899436374 l0.6687804851107583,1.040219045178844 0.3255184861945788,1.6646204843065053 l-0.14282128638745045,26.174180757610152 " fill="none" stroke="black" stroke-width="1" /></svg>