<?xml version="1.0" encoding="utf-8" ?>
<svg baseProfile="full" height="119.3567433684689" version="1.1" width="107.59066712083927" xmlns="http://www.w3.org/2000/svg" xmlns:ev="http://www.w3.org/2001/xml-events" xmlns:xlink="http://www.w3.org/1999/xlink"><defs /><rect fill="white" height="119.3567433684689" width="107.59066712083927" x="0" y="0" /><path d="M25,25 m0.0,0.0 m37.922041565282896,15.283142400450146 l0.31451145080811915,0.41586653443163285 0.4194813800324849,1.5264134965628318 l0.0029685513060814968,9.591358551613206 m0.571640865960741,-5.44604272954677 l7.526538796437365,-1.3196571119643912 2.1116989584725423,-0.07616876590097761 m-24.46579458663526,8.38655713033007 l0.6898271168991296,0.8909940471809725 0.2649124217122488,1.148795457284315 l-0.07364799959356247,7.11230060905662 -0.4787786926464537,7.513284264345598 l-0.9260583810740081,6.712535045145415 -1.0973561488099743,5.093584185434854 l-1.4481543875157883,4.6446296834018215 -1.7661467456962567,4.169837806511755 l-2.1433953687750136,3.7093127641318 m8.1614797176406,-40.231189396749656 l2.0525443192953574,-0.9215438866538415 7.1393588697686345,-1.438486390650964 l8.2486106111319,-0.9635124110369458 9.933967789088893,-0.5201596448879118 l2.0714887409536056,0.1365722740578151 1.094222710882768,0.415957045453464 l0.4890247326448794,0.5986794793898704 -0.00851853524848812,0.7327457305211617 l-0.9131661502926145,1.6755284175225778 -2.13846497271011,2.211769377519497 m-24.04951104602734,5.833465488827656 l2.867496662613641,0.19034272418745324 13.749920018122236,-2.8521006238574986 l1.6197460923671727,-0.23225179082115105 1.575611603924786,0.23690807648089 m-11.531469867554017,-4.55793799861315 l0.606179711633278,1.4479844812067366 0.0709020553237372,8.519706213258853 l0.24030435215139598,0.9626704949082673 0.5229066385412773,0.7487499155885705 l1.6266519123775858,0.8403966847202561 6.442613427604736,0.3199702659870791 l3.2551026052761443,-0.5621446557299326 m-13.382788899400436,5.3160697315514955 l0.6066209003299858,1.3000955644498537 0.16051940502338014,1.2066792482469588 l-0.06091397931686369,16.646954703476684 m6.190308067066616,-19.776629844170426 l0.6050698846101876,1.2928374655298225 0.13725042159268142,1.216688395265539 l-0.06002284181491565,16.498444011437712 m-16.256749962126918,-12.195642673965992 l1.0751368028525732,1.6247697143857442 1.1148171793471378,2.3006877269591106 l0.9648773714381024,2.438934847491483 0.5466064405440325,2.025856546584229 m22.01384020361229,-12.102610922068667 l-0.1510794292876575,1.797376981022394 -1.2387347128196398,3.430154848217313 l-1.6186715327983492,3.1928809036137515 -1.8722630473783892,2.9047484708633435 m-23.910704708479386,6.160351594830384 l1.4053086302696927,0.3718365677115074 1.5379280985565316,0.05672917686236704 l26.413466728033494,-1.9820390575054714 2.819555305309776,0.4170554614458944 " fill="none" stroke="black" stroke-width="1" /></svg>