<?xml version="1.0" encoding="utf-8" ?>
<svg baseProfile="full" height="107.27733851227953" version="1.1" width="108.65532824473898" xmlns="http://www.w3.org/2000/svg" xmlns:ev="http://www.w3.org/2001/xml-events" xmlns:xlink="http://www.w3.org/1999/xlink"><defs /><rect fill="white" height="107.27733851227953" width="108.65532824473898" x="0" y="0" /><path d="M25,25 m0.0,0.0 m15.069990457137305,16.685430425655053 l0.41564287246050663,0.39822802183927836 0.5716387162509411,1.6171116245098542 l-0.33902432079264244,15.895602563512714 -0.694504202131949,5.954041645986574 l-1.0853906202043606,4.880584722007437 -1.5235895969268376,4.376735126361661 l-2.1235231265082155,3.7220780513373852 -2.2183525911538693,3.078849472697587 m8.427906414253524,-40.01596498945056 l26.295017750254583,-2.2342671937885195 2.5950448282169933,-0.008991355756140807 l1.6581688988880972,0.5072236202700375 0.6879061919207226,0.7890965592733682 l0.13830566719005064,0.5265520016164588 -0.5011308166476177,9.602603481277399 l0.1790593530413156,8.186530005888283 0.7312839902913966,5.520026185691605 l1.1438799311889343,4.91159416164521 1.2597453305502493,3.707907996529322 l1.6403399696879766,3.4606693977563463 2.0523877621744075,2.9997274048789593 l3.392773650044899,2.629893373199911 0.8817517355525614,0.08607620934030655 m-34.99629247293363,-32.41975771349094 l2.4235380089964838,1.3582947600643063 2.764598822166052,1.5636140671633596 l1.9375163777051463,1.4739100715478586 0.8977081690414613,0.9601718947823429 m19.773307669718577,5.940403145345063 l-14.352781724339359,1.0945376398383397 -4.313907887719246,2.248938345389078 l-5.134020003029473,1.6798053467110443 -4.7160558406349224,1.134537781972948 m-1.2019073285198298,-6.55109196613585 l0.7045466457670599,1.41214573852594 0.17109681275351146,9.254212692270736 l0.40134361563342313,1.3761544452148946 0.6826543595266112,0.7608888861652819 l1.5273096854576618,0.5821696657093525 2.8335798147257543,0.41568982942038046 l6.648531286764772,0.14377174520682953 6.855581596592906,-0.25268588057651487 l2.037419988649518,-0.4165076774046717 1.5362890977970205,-0.6260582085530877 l0.8063808436947941,-0.8155383180109606 0.3654403531362311,-1.5868811414344641 l0.05313307336351735,-2.3007170977537936 " fill="none" stroke="black" stroke-width="1" /></svg>