<?xml version="1.0" encoding="utf-8" ?>
<svg baseProfile="full" height="111.21704713232609" version="1.1" width="102.4201495735228" xmlns="http://www.w3.org/2000/svg" xmlns:ev="http://www.w3.org/2001/xml-events" xmlns:xlink="http://www.w3.org/1999/xlink"><defs /><rect fill="white" height="111.21704713232609" width="102.4201495735228" x="0" y="0" /><path d="M25,28.361966437166004 m0.0,0.0 m7.464399151749044,8.30666355742225 l0.125064864871597,0.49510622382983815 0.2586816986993179,1.7718134729957473 l0.013632602771625809,26.021853252404902 -0.40350381882963127,5.296615889321488 l-0.7061967102433625,4.674677145742148 -0.9748300025925245,4.3140973690028055 l-1.414957188344168,4.09678301659725 -1.59199457265455,2.877470767843654 m5.695992004684053,-50.16875004843336 l18.190752179749154,-2.188178253267582 2.0588178476254897,0.4030118118360663 l0.3770258171019758,0.9665239046315885 -0.019853881866671506,21.081379696405495 l0.5253917585532167,6.97129448254413 0.6573972746738397,3.5655031179074683 l0.8212857618460718,3.2857763535547595 1.1907535748424103,3.252327239250815 l1.6416662567129243,2.9358460234292996 9.914666005004786,3.270482923596565 l1.1701282588374011,-0.6736303884592726 0.8078235152858477,-1.4530683555722086 l0.2286506391258929,-3.5117585978689 m-24.326811013929554,-39.84653319945526 l-0.05254251849928438,0.783457270670155 -0.5575920532736822,0.7139518120746758 l-2.8359899301123117,2.301948801217957 -3.662185003354066,2.1334941137370413 l-4.727537227926623,1.7043103155890051 m-0.5192959635732894,5.963906146736307 l0.4970558169482947,1.1001267289039929 1.491976366908681,12.528303899583578 m-1.3444385238460692,-12.886947733098792 l8.755422670666224,-1.4265695276957027 3.525984929762177,-0.26248913454628986 l0.34666946815554445,0.4017480888322715 0.19585973081633076,1.250739634864884 l-1.4563336410333776,10.283678217372653 m-9.526977934096777,1.212335165212997 l10.156916401293582,-1.280375602748639 m-6.350797348029549,-18.414991063756286 l0.4276809478625752,1.6887056263731564 -0.04976886738141817,31.167680855947356 m-8.009157401619035,2.171113191752173 l0.42537893702257557,0.35730876950611845 0.9408251015681052,0.2051220321406346 l12.978398932836491,-5.519971160307495 m-2.185937232061729,-5.872490968940228 l2.9922871295841107,5.927686257258049 1.6422558927556692,5.199597562323852 m8.87130140436946,-48.56298502789884 l0.45093915500094733,1.076917950709282 0.13744141868792836,1.1169195827290537 l0.012997681878619594,29.213649486231084 m0.29164281171893525,-31.761257745630033 l10.651823997502857,-1.621897387569679 1.0537335902296563,0.29511800796537757 l0.3516273739629024,0.5354967489045104 0.2557898994642562,1.5523370629235367 l-0.3038347541309706,29.444008196517306 m-12.337369021732908,-21.879359080337075 l8.33807376796567,-1.044078747489872 m-8.224796123442575,8.947234639391622 l7.805511167696639,-0.9420903686183648 m-7.48439809345806,9.228138805647376 l7.756538196406565,-0.8443672139231753 m-11.779879614139377,9.627082213715864 l2.529149292164895,0.2958370355627323 15.898212845198966,-1.847439729938618 l3.3435038731310587,0.20019017860359598 m-15.250704877286521,5.017106242941064 l-0.29910366909107455,1.3344535970657025 -1.15862296251095,1.9890089910015654 l-1.278824838490995,1.626210483041543 -1.6031158955728515,1.5732825417285126 m11.471163452377585,-6.843140558991838 l1.4934888443589247,1.533238337717745 1.5437185150135102,2.121312497411726 l1.3195837298229918,2.30563461383393 0.730739496764844,2.001597354934599 " fill="none" stroke="black" stroke-width="1" /></svg>