<?xml version="1.0" encoding="utf-8" ?>
<svg baseProfile="full" height="110.3982194699623" version="1.1" width="111.59072671070894" xmlns="http://www.w3.org/2000/svg" xmlns:ev="http://www.w3.org/2001/xml-events" xmlns:xlink="http://www.w3.org/1999/xlink"><defs /><rect fill="white" height="110.3982194699623" width="111.59072671070894" x="0" y="0" /><path d="M25,25 m0.0,0.0 m35.549990693008496,14.898655465188755 l0.42883375435273774,0.4083821714072017 0.6031644392720468,1.4841011908255664 l-0.006797255615441585,9.627127750277902 m0.7048369175219785,-5.372145056274267 l9.336927768689009,-1.1982287456752345 2.5120183965679144,-0.16730174854748467 m-30.27424407487864,-0.5681562590687605 l0.8014338774106747,0.7157415722210537 0.4052701973622801,0.9958602531115396 l0.4247184475711894,6.301277244063166 m-8.842205496739677,0.35080694581077937 l2.1578920321349035,0.26395734391399894 3.5355767113166436,-0.11804116788521839 l33.251306798675614,-2.7543946667994876 4.135806200259317,-0.06021903431289163 l4.096249725309062,0.3419400789459165 m-41.52994820209342,3.234070698433951 l0.4649661363140037,0.7798698402187462 0.12705998749289452,1.029808843126388 l-0.9836603961742766,4.461751067990092 -1.4825287036047732,4.737008271685027 l-1.9225236526451295,4.641194558025255 -1.8373633777185994,6.604978495458675 l-3.421487437388824,9.760174357821633 m7.339787937901067,-28.46706437753656 l0.5662413642514377,0.23187671563425608 1.6322613769784518,0.18919535785363628 l10.812507797539636,-1.3576872693499737 1.1693006655715612,0.18658486829236792 l0.47316265672258623,0.46547598493826564 0.15035601209089913,0.6155363438904368 l-1.5121436170464515,4.833679693374908 m-7.37909106456884,1.721207558220541 l9.414810441867578,-1.0235616608773475 m-10.49254896961955,-6.118827962699389 l0.4545511777569465,1.6157825151888943 -0.02922428720684068,12.978988128463582 l0.2154527309028587,1.5381586855761105 0.43716034163889894,0.7194921295871981 l0.8387810298780997,0.46299660377542906 1.3643819152419336,0.18997475225566554 l6.868605300635525,-0.031343889072130995 1.1798287885950405,-0.3796466989848847 l0.956295041113889,-0.9188512648355703 0.4222462099984679,-0.9398006321391525 l0.21471887816050864,-1.7602738934717062 m3.5903638678361505,-22.107381540471707 l2.3203469801377197,0.21249535881886084 15.02765361302969,-1.7772575109513369 l2.608704530835409,0.17900932360753602 m-10.715638827554079,1.7872879561775097 l0.5105048076888119,0.9070896206463023 0.14421700882571575,1.1176099378117608 l-0.013666528892548544,6.964293169017402 m-10.767770210071767,1.1102685291031216 l3.489703112310797,0.14364098210155926 17.69282632845596,-1.7510825213567853 l3.820255558707831,0.09135490617036772 m-12.531071157681023,2.9286212833975727 l0.5551975042126107,0.678121382316623 0.22521348645034994,1.010690574824246 l-0.012594364861952647,12.655399657601638 -0.33610287914637144,0.6635359411821249 l-0.5672337638696239,0.06940105819771698 -2.5703244539579564,-2.3540615615170806 m-3.8350455671305825,-9.323575831810643 l-0.02759357175562664,1.3536310011361656 -1.6393135501602185,2.200880797728977 l-2.8951043860265204,2.633929965456002 -3.4325398208138207,2.5847781090749593 m21.152788824420597,-8.845444034454488 l1.9183496596005674,1.659615151756294 2.0990185738358633,2.418593461386432 l1.7041116613948133,2.587052756643199 0.7427350600844512,1.9740691017988226 " fill="none" stroke="black" stroke-width="1" /></svg>