<?xml version="1.0" encoding="utf-8" ?>
<svg baseProfile="full" height="103.67424963956148" version="1.1" width="107.11933935908348" xmlns="http://www.w3.org/2000/svg" xmlns:ev="http://www.w3.org/2001/xml-events" xmlns:xlink="http://www.w3.org/1999/xlink"><defs /><rect fill="white" height="103.67424963956148" width="107.11933935908348" x="0" y="0" /><path d="M25,25 m0.0,0.0 m31.10408143824108,11.832691193435151 l0.3392924734333526,0.15699100581303188 1.894172888053523,1.6592531716749106 l1.4209150840071965,1.7543761564380813 m-15.517934141613251,3.4658156193483913 l1.574924998580927,0.20690862563693 2.353417145179088,-0.06979073322634433 l23.294398018669067,-2.0816297215804673 2.1279459109150802,0.21967412925827662 m-25.561595719861682,2.783160348274353 l-0.17787286890702222,7.592074924354864 -0.40900524145383876,3.9663985808352464 l-0.7088467312683494,3.8655937082186074 -1.0023254099147556,3.4751273629892867 l-1.12505639847586,2.627961609850992 -1.678561910894838,2.9053670823488864 l-1.7180145768938317,2.1331335969700764 m11.3152311573327,-20.79134892568085 l2.585567522340891,0.12374200464097322 13.36993831517642,-1.5533384371644028 l2.4550629232676524,-0.1882403183871952 1.486874848958875,0.14783386282465463 m-11.46298917843029,-3.9848040676205003 l0.6474823593063151,0.8390307970171005 0.15382682064949144,0.6354442779956057 l-1.0791422218401479,10.267505525981656 m-6.803157603789792,-0.20193872176062547 l0.5426775166470305,1.4281344196710366 1.3690445610228312,14.504215668743969 m-1.0709791158988897,-14.808491070767612 l14.203986446988198,-1.6022487459434445 1.1818063918332178,0.009223042421856543 l0.46022023445841903,0.2395508570629558 0.4116865073287211,0.8813141679931761 l-0.029184443326090475,7.771206591603989 m-15.299403153556263,1.3737958590166313 l15.903502185161727,-1.2416613936579244 m-27.682751828960424,-27.169673866354014 l1.6463752246768772,0.8519916815627705 1.8138569825172142,1.341356958735942 l1.4218333630868156,1.3522918272945401 0.5859495554667495,0.9033681011874245 m-8.675151118665376,5.611078331303143 l2.060620538193304,1.066738243216752 1.944818541262926,1.2595953829595703 l1.5488862700386765,1.328286537002076 0.6452690748708568,0.8565986766749284 m-7.34185088095985,6.973860559606513 l1.190913749450334,0.24369957753910834 1.23084144159884,-0.16533441487680314 l4.629125700720265,-1.6952870019563895 0.622465782056257,0.00022856152489150348 l0.5823547504503236,0.2742143322233022 0.28893093628291067,0.43092121869042516 l-0.15113596612855823,0.4927315151337462 -2.5429018260302683,3.706189344214068 l-0.22077359958034382,0.7703126103034648 0.3548495424949483,0.9288391957799514 l2.272369314380913,2.6543622282173716 0.2545496462947718,0.8802290957138921 l-0.6399019411508522,0.8182270820191879 -5.394997615240565,3.565750228948915 m-2.579516522823503,0.742817915606086 l3.937796233608807,-0.5020465418482006 2.8437884529580257,0.054469390446104354 l25.501834223072894,5.297834835534975 5.481557006680258,0.45856597852640946 l4.9373472970333205,-0.3729003783811749 " fill="none" stroke="black" stroke-width="1" /></svg>