<?xml version="1.0" encoding="utf-8" ?>
<svg baseProfile="full" height="115.23305965239436" version="1.1" width="98.94861739374463" xmlns="http://www.w3.org/2000/svg" xmlns:ev="http://www.w3.org/2001/xml-events" xmlns:xlink="http://www.w3.org/1999/xlink"><defs /><rect fill="white" height="115.23305965239436" width="98.94861739374463" x="0" y="0" /><path d="M25,25 m0.0,0.0 m11.255190017624278,4.335694783321638 l0.08502350043918638,0.49175606113555353 -0.13642940492504244,1.6664420600580567 l-1.1291424960373027,2.8894840148519108 -2.036949039719479,3.4487062385341614 l-3.0943496739173293,4.207321103573274 0.18173181384391557,0.9530073181641305 l3.327933455047083,1.2990521837158364 2.408855804504013,1.635444359100764 m6.864965473885067,-10.783755714788114 l0.056692914636114485,1.6390290885003425 -2.32223837339076,4.153193718743986 l-4.411420636322849,6.628237470748549 -5.4131614246648825,6.892814694813467 l-0.3482381126988181,1.1224033394976864 0.47756961014770866,0.5429563879657437 l0.6988671267923979,0.0575726994170664 11.170617108265452,-3.4275627327344447 m-1.8878315779857004,-4.043269222356579 l1.02723773356287,1.3345666438088344 1.1867335541120194,2.126558849264853 l1.283652924523147,3.5164524848525214 m-7.4236842629818245,0.6388755058954874 l0.4705315116721827,0.8204927044588318 0.1903630492960907,1.1601931407065202 l-0.10210140089977983,18.807891909993238 m-5.222876495883578,-15.24362576665986 l0.04885552045438557,1.449780450551199 -0.42920754052285914,1.5460152023632423 l-1.8070130715400041,4.488083466846739 -1.9155988147786374,3.9892703906286506 m13.910451540061105,-11.832532913849755 l1.4809826231224028,3.237448935908978 1.4304020924185257,5.473189030135337 m5.218880259644705,-33.922834577780414 l2.2246285638453513,0.05383856368172516 10.960243933311512,-1.6874031763771762 l2.201207925200376,0.04950176598891297 m-7.970323269249097,-6.659420399148253 l0.6587048235859352,1.2755252892648865 0.09664003193812054,0.8943522568319549 l-0.00613004870917954,18.153251255728655 m-12.253726762540257,-5.942715056034784 l2.6211557709797764,0.18642153917399285 20.941670171672488,-2.224848602011408 l2.662757449819957,-0.030478637565235465 1.7164934961058311,0.3413889068279863 m-26.621149356771248,8.726137480052705 l0.5340354175731912,1.213693367783053 0.11402807349665214,1.155337750870783 m-5.853834397122609,-5.055006861705918 l0.5084831491846539,0.3916781250475662 0.7384324212191549,0.9024142524448225 l1.1120588395141355,10.880874568189384 5.902987247471294,3.1549731604533036 l4.684645319741777,-1.9575370647388768 2.3578515342488626,-1.4332911820950505 m2.076042170024335,-9.743176864441086 l0.3116753728051583,0.36008571089379615 0.0802631936716939,1.1510326913325424 l-0.7041853114010749,7.986300575635492 m-5.706984494799286,-8.192956881997798 l0.5242277787586486,1.1617361282402134 0.05095540784115392,10.183080334174846 l0.34514949450372023,1.2680794608370054 0.6221241104562206,0.9137004999406168 l1.4009977219115999,0.6916088328666532 3.051527995412111,0.27822851045416164 l3.9926701849246253,-0.12085490095990264 2.6051846894913098,-0.35187501084089956 l1.0829238218240034,-0.48976055929536777 0.6412174135253396,-0.7478218163236103 l0.32769945922475846,-1.4384937971412195 m-16.72381323160374,10.46221320828566 l0.5423308628024237,1.57060267441079 0.6108760390848283,16.604290244271983 m-0.04555120608256864,-17.27684025368322 l12.065006137727634,-1.6816868325459873 0.5910046480173784,0.09369387026617021 l0.7946214869900912,0.7036133897617519 0.24589660912018063,0.9847044568195057 l-0.008931362670427014,17.089384181239186 m-13.065238866016141,-9.88538210329806 l12.531667121588775,-1.453538722211827 m-12.383997685324625,9.570800580712724 l12.29422745315068,-1.0501519603023766 " fill="none" stroke="black" stroke-width="1" /></svg>