<?xml version="1.0" encoding="utf-8" ?>
<svg baseProfile="full" height="104.3644540660327" version="1.1" width="107.49971001036572" xmlns="http://www.w3.org/2000/svg" xmlns:ev="http://www.w3.org/2001/xml-events" xmlns:xlink="http://www.w3.org/1999/xlink"><defs /><rect fill="white" height="104.3644540660327" width="107.49971001036572" x="0" y="0" /><path d="M25,25.736849937875537 m0.0,0.0 m17.386837394648065,14.789740368955734 l0.11954965247340933,0.39432297415642253 0.2802523063178764,2.040250997864256 l-1.3819286653554246,7.323660902472797 -1.9937695363321952,8.802325989616483 l-2.1258306808452385,7.233215989869321 0.44293769562078905,0.5373911311190634 l3.8706703837599634,1.8023382880941825 3.1294029467421725,2.113785477862124 l2.7592821857752883,2.5692538193476278 2.486681343761385,2.951512857542269 m-0.7096273617966762,-25.470787026255643 l-0.0801629825749586,3.301940179631666 -0.8572358959844919,4.259169849939448 l-1.3446651870231174,4.549624772978748 -1.9021255372661388,4.595142073617373 l-1.9872938758413556,3.581190085037994 -2.461955152157278,3.3618240290617853 l-2.9525176238110915,2.9811791305837603 -2.5825101730568423,1.9105222366617596 m-2.213432961129953,-23.153345085698962 l0.9906662435964871,0.5986505564566671 1.156899891131145,0.030993734798995656 l16.287383695982854,-3.6905663647567053 m3.9130556954145876,-15.217668363942925 l0.6167652358062069,1.678543313325668 1.2834089439811183,25.047402478562 m-0.7902810324943491,-26.623939681324995 l20.045356658321104,-2.0050963613387833 1.1060231429891783,0.08892221534679376 l0.841669837828827,0.47348028957932864 0.4672692938509389,0.9385477554004443 l0.031899271141407594,0.6594859598710693 -1.1716903454405336,13.231654242184737 l-0.9274977453345454,7.634825193921719 m-19.583368793285985,-11.139164333528479 l15.3962063011024,-1.5044941261871538 m-14.685682871294116,12.61530201913827 l18.58486652159919,-1.4588003398934546 m-10.49875992742375,-32.56918716794695 l0.5598439861586624,0.7779238072344694 0.3470360464122858,1.600596407604301 l0.06383291714908837,28.362049778529336 m-20.06126723866794,3.0617760517293973 l1.3929430950171846,0.3542405276224454 1.8510588467591893,0.05545181766390348 l13.673652630490869,-1.3134797057841219 16.219798774176493,-0.8553613088317708 l2.5060626594735416,0.3998472405917214 " fill="none" stroke="black" stroke-width="1" /></svg>