<?xml version="1.0" encoding="utf-8" ?>
<svg baseProfile="full" height="104.43841929698516" version="1.1" width="95.77034073193605" xmlns="http://www.w3.org/2000/svg" xmlns:ev="http://www.w3.org/2001/xml-events" xmlns:xlink="http://www.w3.org/1999/xlink"><defs /><rect fill="white" height="104.43841929698516" width="95.77034073193605" x="0" y="0" /><path d="M25,25 m0.0,0.0 m10.331832631388268,14.695298885019563 l0.1451370475469734,0.4061501779284051 0.35073262721207493,1.9333088670489262 l-1.3199391727046577,6.714003813594485 -2.348941561084642,8.957127381331329 l-2.416910337142487,7.255612420801841 0.5536528625665962,0.6314184595921104 l3.7482424849165086,1.578523415071376 3.043463554838699,2.0134022704479704 l2.7508223207281493,2.5811131990069174 2.2412665833693555,3.1600071025064467 m-0.4305100088010061,-24.90197394519225 l-0.07953291810735275,3.3905985542566013 -0.9206534389903789,4.357522979262387 l-1.4182254522545552,4.569825758548243 -1.9931732639173079,4.651194644670642 l-2.0578128125265662,3.573526390928715 -2.51193463410058,3.3713239618527027 l-3.0447563373541064,3.0755229590075217 -2.6289034122857124,1.9983345008651483 m-0.8349685398796843,-23.462786270627696 l0.7498999249579172,0.7422759780815059 1.3632225678473393,0.11766647444614997 l15.989513806206707,-3.8654812123682647 m9.163712339531305,-13.407347407761478 l-0.18370137443773032,2.6065708057621766 -1.351171123420822,4.285398579787591 l-1.8697379130697493,3.806889973945971 -2.04578240789054,2.8887626678274305 m4.756478530774683,-5.958498218190855 l1.0703684958124287,0.1673154161417005 1.2989773156825242,-0.20670918671456476 l12.725908928945463,-2.0339450301401176 2.3827325962698165,0.21053364486165926 l0.5610308213091213,1.1975975603803473 -0.05808192022309256,3.7205400731275833 l-0.8791493287624558,7.8390783726481015 -1.304022324051974,7.1747057681949 l-1.7025145143667988,6.219014517458514 -0.9960425325589125,4.095863660653602 l-0.8429563047244154,2.611436205090906 -0.8295728404814892,1.4254154975862223 l-0.47972605890090336,0.25227963024472516 -0.9451955363620392,-0.33011857793376415 l-1.5353522587614905,-1.834481371489949 m-4.630237301765465,-25.17430396571683 l-0.26645588129922443,1.2705254414683242 -1.1884636380234923,1.832654213036158 l-2.708949827125958,2.927482564394933 -3.6842391569795896,2.4506982470305405 l-4.500470222896433,1.9768146525405657 m19.45665440874838,-11.11154378983644 l-0.15839816660556608,1.792722392623411 -1.1491438330037167,2.408766232723246 l-2.118193469834343,3.1027088760048183 -2.6934770207388063,3.1190663554431057 l-2.5621941279179907,2.5140851921299694 -2.984613116470583,2.521493342430377 l-3.391664292677836,2.396460153075969 -2.8137583820258776,1.682001219481877 m-6.372792834144809,-31.55679318713182 l3.733621710880801,1.4257637348271446 4.048812951394287,1.8886519190006628 l3.8336860705939606,1.9709120200901704 1.9162646104634402,1.70324400410962 m-15.621726356896444,6.410794409960389 l5.016947018663916,0.7527593929209012 3.466298198236959,0.9815359143872673 l2.9465657719070526,1.1185391293829265 1.7626686941690657,1.189923529683094 " fill="none" stroke="black" stroke-width="1" /></svg>