<?xml version="1.0" encoding="utf-8" ?>
<svg baseProfile="full" height="111.18843153902796" version="1.1" width="105.5699804282425" xmlns="http://www.w3.org/2000/svg" xmlns:ev="http://www.w3.org/2001/xml-events" xmlns:xlink="http://www.w3.org/1999/xlink"><defs /><rect fill="white" height="111.18843153902796" width="105.5699804282425" x="0" y="0" /><path d="M25,25 m0.0,0.0 m17.974594582530152,14.487614145215588 l0.39811176693980543,0.4253343526556255 0.5328255339411359,1.8171587757024483 l-0.26814779923207577,15.584272374107716 -0.6773455373908801,6.2073990907339835 l-1.0070400304561171,5.294384764803239 -1.4011344246324997,4.9363832077503265 l-1.82657872898388,4.127927752110391 -1.875435222824037,3.411327487262327 m7.298640027107768,-42.73817557429315 l22.788540040359358,-2.221157135690781 3.566323352333363,0.00010731715027801009 l1.4828973939718955,0.3193627657615748 0.7795386614750711,0.6790653143967923 l0.26608972298823913,0.5020928131425575 0.10965643386970877,0.6167144976264971 l-0.5212092248185087,5.884516496406687 -0.6438156626556779,8.23329625869959 l-0.45110237851077134,6.76238966817277 0.1301004829909965,5.729756013751972 l0.743379375876498,5.436295743182968 1.0069763363526656,3.8110562516215656 l1.3950624746609834,3.440253128365807 1.8392653293123424,2.9181546883763403 l3.458962830183679,2.6782601537287736 0.47082509285326873,-2.240566891605061 m-30.16678357573705,-35.60824850434392 l1.6214551771823016,0.8460096645735441 2.238751838619155,-1.603917549475165 l5.928012208776689,-3.6974092608926177 m-14.293207106379242,10.585472929244686 l0.825141542164852,0.12046373340732934 11.948300391585773,-0.11310479564866312 l3.8420059518063825,0.12247147099389886 m-9.729878571046614,-5.719878384521089 l0.5098988949306932,0.7603674664961624 0.16660824879301778,0.8971688830960931 l-0.0665498277363933,11.21719737849912 m-10.631309974922866,1.0347296362500895 l2.111297817938381,0.2900715114784365 14.912183599166463,-1.2276162430935889 l2.2898060192740184,0.10217599534453244 m-17.344043594708683,6.667315343209579 l0.5748272500264867,0.21441685897817797 0.825275425179979,1.1798198332724068 l1.3585013129305914,5.358792432738296 m-1.1917482647544768,-6.391157405136242 l10.821147224111689,-1.451556182839693 1.468021809339859,-0.010387936457864651 l0.47707588471109535,0.29620152428010793 0.22711898397002137,0.4884428765401999 l-0.022705744690250267,0.5899296173261518 -1.6659444747450014,5.04216836615591 m-10.334269861687547,1.4873061656299964 l11.329970489377533,-1.1006260184592658 m-23.440233691212242,7.135575158729322 l-0.4564663665352546,1.4775940450075802 -0.9938328355015066,2.26871677130021 l-2.3322528627151073,3.8267026982074026 m9.520492885177601,-7.785008825489852 l0.7988763508652625,2.8794482053874035 0.6775848597767694,4.061479748193597 m6.903335365544982,-7.8434475121548815 l2.0266227201561833,3.6069447594077495 1.2011939396743339,3.5669156483788487 m5.170860418429782,-7.708047921231403 l1.5766261327256086,1.7044492921268786 1.4777268951283207,2.2278323119274077 l1.2234983926011305,2.436349222036925 0.49097960287772136,1.7066899951518892 " fill="none" stroke="black" stroke-width="1" /></svg>