<?xml version="1.0" encoding="utf-8" ?>
<svg baseProfile="full" height="123.37866838684786" version="1.1" width="104.63791573147377" xmlns="http://www.w3.org/2000/svg" xmlns:ev="http://www.w3.org/2001/xml-events" xmlns:xlink="http://www.w3.org/1999/xlink"><defs /><rect fill="white" height="123.37866838684786" width="104.63791573147377" x="0" y="0" /><path d="M25,25 m0.0,0.0 m10.285947426602963,4.6658579021834745 l0.47984670154182024,0.24559140718537406 3.2729339861881606,2.339500331356236 l1.4899000603252546,1.617128060322012 0.8057604133135577,1.3069932186162683 m-9.475375842984182,11.262551614221588 l4.010518735779434,2.3851406312130843 1.8578698502153161,1.7413800885259005 l0.7488576724685304,1.102115418264957 m-6.50924894055821,26.78630134203905 l1.1484216932113736,0.1373866210214659 1.2108633951416559,-0.944035967728727 l2.5734938602119026,-4.76953942465117 2.705156247354279,-5.847654884209392 m9.185117394988929,-38.67515488571858 l1.4803647478763688,0.24278605684319698 1.8858783805901396,-0.11921674375202783 l20.179713891125605,-2.679638743128764 1.5717294089932103,0.11445279271625323 l0.8285608959048069,0.9942015377046609 0.09379449753475756,0.7416416698816709 l-1.7416704545594777,8.315621900644752 m-22.37097457508014,3.655161973261589 l23.754004043283054,-2.9233261084221707 m-24.623067751498137,-7.802342960966199 l0.5492316400356321,1.1070901385881708 0.1465320995807788,1.310084789500426 l-0.38263713451842185,7.053101842090564 -0.9825731175787744,11.017433890671828 l-1.3198644429545299,8.294560063976473 -1.4948776092608906,6.505608339683651 l-1.802006206148218,10.701521856029013 -1.985020336599495,7.97286967010348 l-2.1975820844252576,5.797767655527753 m27.092513766169954,-25.297408398627773 l8.182208980983306,-1.3640824024369962 3.9835944382187125,0.07123029630883529 m-14.15435308553552,-7.783793087146183 l0.6216693819460575,1.3213870127020362 0.22316366789393008,1.3039624227422175 l0.004914386794977522,15.21657777210232 m-8.771330085147225,1.1037836142598048 l0.6980253753406952,1.8716080147398058 0.09060493506624756,22.379082526894027 m0.46386428803977653,-23.90435320753177 l15.87361125449916,-2.2608115459323863 1.3907329703589701,0.173411255812142 l0.8286580033555858,0.6332129072318188 0.4933694581798295,1.4577727568121805 l0.005768922255270765,24.307095685280935 m-18.676888206144113,-16.25718642342592 l17.939352169291023,-2.013127877890997 m-17.86726981524607,10.172850287335638 l17.782461490911754,-1.8502542614685298 m-17.78127811445274,10.444769945490812 l17.617929009583793,-1.7027115424769375 " fill="none" stroke="black" stroke-width="1" /></svg>