<?xml version="1.0" encoding="utf-8" ?>
<svg baseProfile="full" height="102.67171981862187" version="1.1" width="98.00241626154448" xmlns="http://www.w3.org/2000/svg" xmlns:ev="http://www.w3.org/2001/xml-events" xmlns:xlink="http://www.w3.org/1999/xlink"><defs /><rect fill="white" height="102.67171981862187" width="98.00241626154448" x="0" y="0" /><path d="M25,25 m0.0,0.0 m12.601429418713673,7.152470214446329 l0.024298817170533133,0.4281397025589263 -0.4978398759713422,1.9519995282544436 l-1.8439324476317467,3.334036333247786 -2.257675226157353,2.963549309765997 l-2.6164273708317873,2.331926571896502 m7.233341963933018,-5.662195990089312 l11.625472829958756,-1.3425723896594428 m-8.648915690132442,2.711590264502245 l1.6265922873794507,0.9279569107967781 1.9500184470794693,1.6175728894298338 l1.5467303695687078,1.7439885903486756 0.5810131813224741,1.1167603960002226 m12.033776258482996,-12.730254242953874 l-0.2535267533187262,1.698174612003836 -1.6166169852832406,3.137039599008811 l-2.032845339130408,2.8028826473916255 -2.477712295641881,2.6916982189931535 m5.856737686953394,-4.525060622261262 l15.16849698508093,-1.6673180021407101 m-8.579500927081716,2.678049139868779 l-0.10541901291361479,0.5477071592078436 -1.0058025902331351,1.5703305601340714 l-1.1352495710449717,1.2299657693196002 -1.558161615399707,1.208357681550633 m-22.755049757308303,2.993419672501481 l1.545886056907149,0.7175625664081386 1.884611034762435,1.4475908033936375 l1.5476421894263275,2.394119386792424 m15.352570888677825,-5.684093348566585 l-0.1349032112856296,0.9407444136422738 -0.3791864345926555,1.6550569868390248 l-2.001287235558713,4.065751205323451 m-25.20578175266443,2.4864485576378814 l4.420069576620402,0.23767498793363262 16.66241983676446,-1.6408427248204018 l11.994122398969928,-0.9724096292919273 4.759470381922884,-0.1998629498583979 l2.817923282700292,0.3215211211204587 m-36.129892837011944,3.3081490485755265 l0.511120166460605,1.1398593775010664 -0.010294343471565963,4.82932418469689 l-0.31345706722837996,3.5614174327413775 -0.8816406075439427,4.051010033518068 l-1.2746360449599894,3.1347044296570314 -1.3346628597926564,2.0977017969025042 l-1.730668590865815,1.9036844362762688 -2.1952953340331405,1.6235350029335964 m14.479828503473595,-19.916299844755727 l1.3254694217119352,0.1452029299768462 2.281382761699503,-0.10028976326775417 l20.391968586763767,-1.7787075690066425 3.1176061766418526,0.15481857736663251 m-15.16405927449502,-2.9874427893408 l0.6642600734905852,0.7091390419449957 0.2048809615880369,0.834907563570725 l-0.026506072758471885,7.2117874769401045 m-10.047438627848157,0.8230542742405483 l0.590685120582232,0.09791169381323753 0.6752679868138001,-0.026289284556811142 l15.86243413188359,-0.13622658492757958 1.0140442040914261,3.749183531794485 m-19.860775967698665,1.9697427369024882 l1.5190061478693817,0.15787846337891176 2.4014205886933424,-0.1305247241772244 l16.2129440962889,-1.7578783995057385 2.026976405475266,0.15359735850310038 m-20.98267151840251,7.255945390857816 l2.354154884826774,0.1399740815046135 15.693749027865186,-1.6078646306177407 l2.8571181402360577,-0.12090587820461605 m-32.75914565880566,-3.2561687911139607 l0.643948263052602,0.3351909727920277 0.4488606479552909,0.8613236739093235 l-0.002529094098241277,6.7110816223328715 0.2921382547763436,0.6644054008387048 l1.4058874886900676,0.18631164395011424 24.91127767558174,-2.2927894124745563 l1.6883943090682114,0.40244496621408166 " fill="none" stroke="black" stroke-width="1" /></svg>