<?xml version="1.0" encoding="utf-8" ?>
<svg baseProfile="full" height="102.26275019817638" version="1.1" width="105.50748472123192" xmlns="http://www.w3.org/2000/svg" xmlns:ev="http://www.w3.org/2001/xml-events" xmlns:xlink="http://www.w3.org/1999/xlink"><defs /><rect fill="white" height="102.26275019817638" width="105.50748472123192" x="0" y="0" /><path d="M25,25 m0.0,0.0 m28.568676072796862,3.101753481030537 l0.39680798112237914,0.4022442786841705 0.5954967146901881,1.4936022032865255 l-0.03623886808663294,4.993981343962371 m-23.04091803218793,1.2486971626307335 l-0.9307638520400437,4.595399535774667 -1.8655768168227453,5.212499632738579 m3.539054696907805,-8.140107840331115 l30.771699362546485,-2.5969568114922446 10.366788982723842,-0.6945232052697772 l5.286018101223271,-0.11135784191761235 1.2913567618153743,0.3017479957372728 l0.5650836165430676,0.5109334741732484 -0.007389196861231201,0.6741754452418683 l-1.2703352595634125,1.5512640828600293 -3.075248447032571,1.9911278764334701 m-36.614736511449465,5.787822332337487 l1.0073041772764033,0.15439128895384882 2.032406971063655,-0.008815342945647939 l20.205025585170706,-1.8496376512685015 2.817788769510853,-0.1279827353858552 l2.187852337793353,0.17070358130637153 m-34.035309465608506,11.554757265666487 l4.196136134898631,0.18826738134580698 30.397462337566694,-2.397998943249756 l4.783626479396806,-0.13504462763546984 3.6584199527200276,0.30302502581669055 m-23.075601792313485,2.7690755923012254 l0.6873186672712672,0.9019736225677906 0.35308304774239835,1.6961856659486996 l-0.09804174704430936,17.489618940781213 -0.3483740415871402,0.8879933483158633 l-0.5528401194602242,0.3439346397774072 -0.7053099637696755,-0.09830621495685263 l-3.5127925764970502,-2.5264443014626496 m-10.156720666015168,-11.7866586344314 l-0.34853174231911177,1.7047859648722796 -2.599094696108647,3.1608266892597348 l-3.92270195235144,3.703803175409485 -4.652864961507612,3.5877251254971814 m39.303439810067275,-12.716839091783392 l4.250729554487798,2.5591356047202485 3.5439290782215016,2.7569078687304795 l3.0507262927888994,3.1171725324588437 1.9744125561555683,2.7767388742118775 " fill="none" stroke="black" stroke-width="1" /></svg>