<?xml version="1.0" encoding="utf-8" ?>
<svg baseProfile="full" height="113.97507422124426" version="1.1" width="96.40065534805942" xmlns="http://www.w3.org/2000/svg" xmlns:ev="http://www.w3.org/2001/xml-events" xmlns:xlink="http://www.w3.org/1999/xlink"><defs /><rect fill="white" height="113.97507422124426" width="96.40065534805942" x="0" y="0" /><path d="M25,25 m0.0,0.0 m27.942051327312942,2.6901692546924583 l0.3953918573968379,0.45397058530106593 0.549117675881139,1.2484464632964003 l0.07773065751247323,1.2820123472978753 -0.052368071053996365,7.37166861331077 m-17.106986867181632,1.8807086246517015 l3.784796751279935,5.713046108444373 2.8228720620875216,4.848696725300925 m-2.5101240759578656,-13.622579352493945 l3.2913004157441605,2.4847403235737744 2.740488409441152,3.1098242954087576 l1.7862921817714656,2.584958560868441 0.7829484719237065,2.1986113843907416 m15.561506812092617,-12.391825734390695 l-0.05884723529050205,1.2839162549645362 -0.43571613803009845,1.2403091891087608 l-5.2734710285568,9.710944711151855 -3.3192591692149014,3.8667928393755666 m-24.784989907849823,3.424925767190561 l0.8215576544544613,1.0160631580136674 0.32756741993224414,1.9425163261897318 l-0.08752762015384151,29.758050834686937 0.5169757801961604,1.098518343876396 l0.8338297516792307,0.50801872044577 1.1454786352819064,0.2725698765878227 l30.806989685615388,-1.5609746013558186 3.052684843794604,-0.3487146385119342 l2.79036506795092,-0.2748960239432877 " fill="none" stroke="black" stroke-width="1" /></svg>