<?xml version="1.0" encoding="utf-8" ?>
<svg baseProfile="full" height="106.99597514270877" version="1.1" width="97.85637748274394" xmlns="http://www.w3.org/2000/svg" xmlns:ev="http://www.w3.org/2001/xml-events" xmlns:xlink="http://www.w3.org/1999/xlink"><defs /><rect fill="white" height="106.99597514270877" width="97.85637748274394" x="0" y="0" /><path d="M25,25 m0.0,0.0 m29.62934498980998,7.021515880539309 l0.38158953731154954,0.24396637621950967 1.5089589806198744,1.3766336721322858 l0.9313816805619654,1.9086964785727423 m-15.322913181929122,3.78054216307195 l-0.7421332861082631,4.2239250919040545 -1.3999352156656393,4.551921754276302 m2.7572130881340517,-7.640428114044197 l16.690601190991096,-2.2946186135113034 11.85230868496619,-1.0864484388474691 l1.3548453618423,0.5288711189930907 0.21511565220997544,0.6017193154453779 l-0.5916668633155746,1.4903989888269633 -1.856456422481489,2.0211011647925714 m-24.481745789662437,7.93912485390689 l1.8040559748192635,0.20852976914908875 14.088790324693413,-2.1196584284729445 l2.202124624799293,-0.20311249011905594 1.093486471958602,0.2012961966835099 m-10.264009495262677,8.76949980332681 l1.3609222552148204,-1.2500524056413367 5.408576417296906,-1.4578631905311112 l2.021185505054778,0.059093882852965296 m-13.384274147811475,-5.534448033501909 l0.44876547346957846,0.9021173722096901 0.15572103703923335,1.1288794806089009 l-0.010511342898885582,11.632132607696219 0.3135562356987577,1.8354036096645987 l0.5473912996964182,0.9228881630035103 0.7332580592803797,0.43714542572798165 l1.8936295547456752,0.25282961458130904 9.698141529441973,-2.879739261804005 l0.8669718866972076,-0.8156799520218473 m-27.751412859700277,9.333080053305782 l-0.2387193144102834,1.8678157829901847 -0.5983112988621268,2.573860363782917 l-0.9058550468010942,2.9528785099768156 -1.0882307032205887,2.562596128732343 m8.414635978419305,-11.471802066409806 l2.4108133455717615,4.5358073757871065 2.5651337546728348,3.0393805311081543 l2.9783446920763645,2.364585280616269 3.552684559927544,1.5061433684753196 l2.678455598446386,0.6290015706289748 3.165788601329123,0.34644438802426714 l3.584030933870456,-0.012879203075046412 1.9224654352049444,-0.5270245263268083 l0.4535624838038128,-0.44314758447411323 0.12388082524099768,-0.5484655895009237 l-0.6143799796426597,-1.4017768248806095 -1.6789217634519098,-1.7895919137996015 m-11.004438334933013,-8.88960667403697 l1.0956009826979984,2.6219179471175127 0.8870553873915756,1.0933155189603503 l0.4202247018016488,0.06531789448264405 0.41472061101841884,-0.3482607859495948 l0.756015302209187,-2.143900131664465 m9.592487454364184,-2.7282454231297635 l1.7961375468375713,1.6207746258167093 1.2206752097484035,1.5206668362651188 l1.1839959991809716,2.1138059913458638 1.0737225543914595,2.3938496268988385 " fill="none" stroke="black" stroke-width="1" /></svg>