<?xml version="1.0" encoding="utf-8" ?>
<svg baseProfile="full" height="100.04281135539335" version="1.1" width="95.24194702540028" xmlns="http://www.w3.org/2000/svg" xmlns:ev="http://www.w3.org/2001/xml-events" xmlns:xlink="http://www.w3.org/1999/xlink"><defs /><rect fill="white" height="100.04281135539335" width="95.24194702540028" x="0" y="0" /><path d="M25,25 m0.0,0.0 m22.23327909401456,4.135510617994817 l0.04416964677379946,0.414173253651365 -1.0845216292468147,0.7320084907153147 l-4.539417058243185,2.1450403347051386 -4.684006094823736,1.749889743899929 m-2.519226655017913,4.206479065494961 l2.2655143278030097,0.06932187040436676 13.159496607410068,-1.8560612632798683 l1.5932452355470343,-0.02709762384913311 m-17.12936699282202,7.0812016458931275 l0.7604137765443978,1.5716876823069164 1.3613823567254002,8.816020046528138 m-1.0878763836698262,-9.488362023298302 l13.06618052073362,-2.192350713155231 2.1190394676579127,-0.07931207778906577 l0.3917189336723243,0.5024207243758686 0.018099268322247043,1.23477509821411 l-1.4319712887825486,7.871382106486052 m-13.413372988962646,-3.528753070285334 l14.163887937717053,-1.6066846045729595 m-13.282282800960854,6.172745721309545 l6.685892555545015,-1.0148667638245241 5.652743361658003,-0.696504668292357 m-6.771419842336825,-16.625350521461712 l0.36424860459019665,0.80506258164466 0.08695150857402613,0.9113326548689271 l-0.024751892697688183,25.256501565167913 m-7.529097694433499,-3.3347587696450764 l2.5001288594886515,0.13948555734411894 9.539307088430053,-1.914332266386181 l2.453649163044088,-0.05508462785528672 m-15.659352943769706,7.547956633864882 l0.7917616048283457,0.35478064788036034 1.1473024527745006,-0.05225920957623687 l13.613846117448613,-3.8284225091107547 m5.4324308700295365,-18.387583188894883 l2.4426885101496754,0.25977273220624303 11.043765884457931,-2.2591341026129297 l1.0431681962559707,0.24396996046617206 0.4242993409715216,0.8221018610194827 l-0.17272804823107454,2.561523805934641 -1.1244501063056005,4.502860536955959 l-1.5243874360869998,4.862622494238623 -1.5836319579911424,4.088330919230336 l-0.8980867950636909,1.6914356994637152 -1.802686717120503,1.3969340424681287 l-0.8116836850081872,-0.3530614199038099 -0.7923340177014582,-1.1951619421553465 m0.42135848529312214,-25.217111031260377 l0.3237480432399224,0.7259269181435419 0.06540479913755864,0.9197632065902923 l-0.5178602251260616,3.3675668168876243 -1.0374425477395943,5.545102280087844 l-1.2016373440832258,4.611377812916134 -1.295009157597923,3.6053617886633105 l-1.7054868838385575,3.4898033018321497 -2.1767532997929293,3.3489935856668476 l-1.9677747285331515,2.306268083256148 m-16.18958353595117,6.142824158950757 l-0.143831404624625,1.5960833995775132 -0.5353927990311765,1.8872696865726835 l-1.8658288784815182,4.0613946187240275 m10.275163922296766,-8.411791595987458 l0.8111040049633331,1.041928737909109 0.9718316879373985,1.9168945369446406 l1.1961175428322095,3.9050306158967394 m7.287156608342695,-6.9817065004076735 l1.932978875073262,3.516726734832574 1.2273313985194934,3.8936764590920983 m6.626845016556537,-7.274613430684302 l1.2286489741317435,1.201851549184721 1.6245555442479012,2.1384503148290044 l1.3126519776872674,2.286922213730034 0.5711300979552016,1.551395547641039 " fill="none" stroke="black" stroke-width="1" /></svg>