<?xml version="1.0" encoding="utf-8" ?>
<svg baseProfile="full" height="122.23495109248404" version="1.1" width="87.5106548669871" xmlns="http://www.w3.org/2000/svg" xmlns:ev="http://www.w3.org/2001/xml-events" xmlns:xlink="http://www.w3.org/1999/xlink"><defs /><rect fill="white" height="122.23495109248404" width="87.5106548669871" x="0" y="0" /><path d="M25,36.35404032939502 m0.0,0.0 m6.938454602599169,2.650537110711451 l0.3955204600497678,0.18519932348372503 2.7931140015589384,0.19717500147828668 l12.074394818273321,-3.092482654492391 12.041417640930629,-0.1413254142533729 l1.6441638419611948,0.9961644320376257 m-26.385360732735624,-9.482193777564959 l0.6569295987364452,1.3861300127438925 0.24945444981750076,1.3247971145019335 l1.4909758885901225,16.721651848295505 m13.813060367875796,-22.099693326336716 l0.10862482017274147,1.4537774146726505 -0.07956563989891166,1.4563139137961378 l-2.536833864194883,17.74976779606218 m-14.060019848245355,8.772607670645508 l2.3508250637769046,0.33122892353844563 14.769858547100213,-2.005623294578399 l3.0623598913712673,0.22523753461202575 m-25.864263290745438,17.083261716416228 l3.145468109862218,0.30402436309569664 13.752594371891291,-1.9615518283707412 l9.941522485743421,-0.9880719237185009 4.445647523880905,-0.09629672980235464 l2.7623117586154526,0.364215763291283 m-17.5409356071044,-11.543855432134073 l0.46284430228641954,1.7539507132290282 0.16718808892768208,1.6658807890466136 l-0.10545163620489843,20.169205925025828 -0.1054239195534894,15.739963866733637 l-0.26307398611743954,1.3021250197314638 -0.4134242705163128,0.4587888911913689 l-0.5166423015740091,-0.19065294474163885 -2.013729888971608,-3.0536904849613804 " fill="none" stroke="black" stroke-width="1" /></svg>