<?xml version="1.0" encoding="utf-8" ?>
<svg baseProfile="full" height="112.72795546894241" version="1.1" width="97.92254462180226" xmlns="http://www.w3.org/2000/svg" xmlns:ev="http://www.w3.org/2001/xml-events" xmlns:xlink="http://www.w3.org/1999/xlink"><defs /><rect fill="white" height="112.72795546894241" width="97.92254462180226" x="0" y="0" /><path d="M25,25 m0.0,0.0 m25.55363177189042,3.288670062198058 l0.3654398627523156,0.19266313958225173 1.9326125377868322,1.2184909383180307 l1.3854964168571393,1.7049360353731362 1.1277405786560277,2.10584210831834 l0.6025215214319769,1.7513500354097107 m-16.687618635240618,3.517879057879506 l-0.8070242965747728,4.714401832364716 -1.58140289199959,5.995708637084188 m2.908388239815139,-8.938695053391207 l26.329195630018873,-3.3185890537352845 5.558556920740201,-0.10507466635622645 l0.9176694989933678,0.380629496162549 0.3173374666749479,0.612276053853443 l-0.13164685262390458,0.7874591257898589 -1.168753193248417,1.7367663982734178 l-1.9403935704761692,1.7377441444982433 m-24.67780471345333,6.9861506448341775 l0.686921207372869,1.0245684285477719 0.2993776766940432,1.7083271795340753 l-0.13275281068469583,35.62645092440365 m0.31412944221685485,-37.37573340806133 l12.73305557430015,-2.0471722751599395 4.920167897192014,-0.5072263999171948 l0.5315959977778564,0.3293792064732573 0.29559287049511623,1.0811651074856965 l-2.231016399195529,9.530349084789172 m-15.827483447018908,2.4211740012175857 l16.75364701956455,-2.132921542268854 m-17.405758913557037,13.689693234607377 l15.825620416404675,-2.4654877380163223 4.029737234079481,-0.3845662875856194 l0.518481989334699,0.3271754461984817 0.32381460741961976,1.1094327220943179 l-2.1651869546321385,11.54113685558124 m-18.5189548645587,2.5868462528773177 l19.437804440829975,-2.2701112677257442 " fill="none" stroke="black" stroke-width="1" /></svg>