<?xml version="1.0" encoding="utf-8" ?>
<svg baseProfile="full" height="118.63843040123439" version="1.1" width="122.39030129372571" xmlns="http://www.w3.org/2000/svg" xmlns:ev="http://www.w3.org/2001/xml-events" xmlns:xlink="http://www.w3.org/1999/xlink"><defs /><rect fill="white" height="118.63843040123439" width="122.39030129372571" x="0" y="0" /><path d="M26.244354784223844,25 m0.0,0.0 m13.296540852959765,12.328137750414689 l0.060275397175465845,0.42806070509113625 -0.11689705575533355,1.7684554446311045 l-1.1397337473090832,2.7106949473271893 -1.9310656133779152,3.43562641488451 l-3.6975115940570507,5.022366056555961 -4.220334116024405,0.91663967765488 l-3.4956289078352856,0.3676288951473751 m17.460606545896937,-11.399906324598069 l6.6509217543743615,2.4957082008842013 5.0374458400797355,3.0663868328404007 l2.932717379759227,2.9565583805929174 2.0738016557733308,2.314995199454303 m-24.690898577366927,1.6521535335914543 l2.9252212417714265,0.048101406494562404 11.751293120952564,-1.1470448637428112 l4.084838531654548,0.03791261923932034 m-22.245497554928512,7.436534187460528 l0.6277684968509885,0.4780548852589316 0.826966304405218,1.399672150443986 l1.6274632248358871,5.013414944906672 m-1.8597355841616836,-6.438147958184334 l9.48400252247184,-1.3371096921180476 2.451907916546844,-0.1039143353565947 l0.43782651972348546,0.6537064332340137 -1.6170000315488935,5.631441760353034 m-8.148873857064363,1.140396559331296 l9.3496681309496,-0.8909336089702641 m5.044252228950695,-7.408578352037482 l0.47770792243218047,0.40698575978548907 0.544264800512702,1.5302471464202838 l1.2909587159299507,5.5701948192701884 m-1.2966913956739912,-6.798878393056136 l7.588571781558396,-0.6702691850460137 3.7759437867040315,-0.163374895009088 l0.4259417197406133,0.670645525617874 -2.017920646767702,5.641215458514025 m-8.49743095018682,0.9495731407447414 l9.734298814153904,-0.7558441403330487 m-20.520947712003217,3.513943015955369 l0.10884787630036781,1.0401347670569532 -0.42677787596056244,0.7429748027648545 l-3.2756800718968195,3.986780808570131 -3.9642193732554536,3.4265931838522667 l-4.986129151015187,3.3590341190212296 m9.984913814519837,-6.800562171582792 l0.6072034929826619,0.7146774263404446 0.1933597684711004,1.326383379541335 l-0.08482863368589326,18.07317115710367 m14.033338215948698,-27.351893912944625 l-0.3360264618246829,0.8471736578883434 -0.8688807213206499,1.1766917080698085 l-2.8028984078899626,2.7953133361681637 m-10.14900752446033,1.444908639034735 l23.98277114624254,-1.809093372740006 m-12.766626551227919,1.2839066333692197 l0.3996762279500976,0.6062066635713944 -0.14305240161755722,17.123589022601834 m-11.067214996788408,-11.745022440098749 l21.22822526194396,-1.7356772179805793 m-21.530822492133456,7.616313509986328 l22.361160209588075,-1.4905330229661102 m-22.874230357985148,8.369554444661507 l24.851301560811105,-1.8142150568596753 m3.809240834522046,-42.09436346428259 l3.3115157664756656,0.138802560866074 21.76553671345226,-1.453705180352182 l5.073926676320624,0.10398352382247902 m-16.167787581628204,1.7380486138075513 l-0.03728975333030054,1.0826882715713548 -0.7243128484822425,1.6055024883613171 l-3.275530399259841,4.540364757354362 m-7.144821705448099,1.1199148641528096 l0.8426793363200792,1.8634938739749995 -0.23787608021186935,24.33955523246669 m0.8170250861548063,-25.172015411135888 l18.908495189545505,-1.2924200353844364 0.8245614555255605,0.09228881254235585 l1.2211518213338972,0.7924192529915088 0.39738150978657905,1.0488416173158763 l-0.5144759349499519,24.17776166518888 m-20.996810141853558,-17.49620215025171 l13.184837487439394,-0.5922898472350389 m-13.16028154209316,8.675936454939723 l13.106021493747805,-0.5143431750406265 m-13.278138868369368,9.575443123197196 l20.589403738714175,-0.5847616098849786 m-16.562594491021372,3.8499968824036293 l-0.03846295101457364,1.2971324821509118 -1.569863557845555,1.5886852857338043 l-5.163956165404115,3.1984058044099517 -5.755765304054675,3.0728455429514714 m23.53296209846283,-8.136574248603186 l3.3859495749391257,1.8345389395186809 3.5792206521497265,2.4001192360494383 l2.9318507221689116,2.4220041839009707 1.5527132616108164,1.758471885654747 " fill="none" stroke="black" stroke-width="1" /></svg>