<?xml version="1.0" encoding="utf-8" ?>
<svg baseProfile="full" height="117.88529774964782" version="1.1" width="98.82603943514987" xmlns="http://www.w3.org/2000/svg" xmlns:ev="http://www.w3.org/2001/xml-events" xmlns:xlink="http://www.w3.org/1999/xlink"><defs /><rect fill="white" height="117.88529774964782" width="98.82603943514987" x="0" y="0" /><path d="M25,25 m0.0,0.0 m28.246140378464506,1.1690710293552966 l0.3635322854957052,0.4702850825048874 0.4614141073315466,1.8308169781874075 l-0.044632396663038046,5.8829710560435355 m-15.351453899219782,2.4111313329033424 l3.168418800057103,0.3125379027968442 24.683190983155637,-3.1498107412299103 l1.7277005522828282,-0.0500345202239819 1.9765456255290317,0.33456927256853203 m-23.5095172852785,7.97778570530012 l-0.03883911271893818,1.1949653808012437 -0.5216870111127,1.717704710198173 l-2.340345090090388,5.336388699959197 -2.6691457022276466,4.783320168226252 l-2.935932353086637,4.035200987117519 m7.882552669252616,-9.892461395457907 l1.2712034290950052,1.0492650452874928 1.5758889391082027,1.95534319580906 l1.2275708284112279,2.092371990043777 0.7155735744017442,1.9174348020245142 m10.603657718512528,-15.30160643726643 l-0.19827968217526304,1.9748654061830995 -1.6885649519010226,3.6707938956284107 l-2.1853727643793732,3.8570814788009615 -2.8966667400230426,3.8752892618830574 m7.1490793611248975,-6.709883100199439 l2.659074409220661,1.6830977051569067 2.4923159921941678,2.2405402922201714 l2.133690075400333,2.546533270147991 1.3937115205831787,2.268820064981505 m-37.06690056572389,12.52011790077038 l4.271120888053345,0.45769556095729363 17.226548816605924,-1.8522787341022244 l13.51905430170787,-0.9841488656809203 2.986244495607985,0.12584525465094165 l2.539147238154043,0.6795601972106403 m-20.785356720103525,-7.895370811748501 l0.6091578520181528,1.717897882807871 0.13374046384635338,1.5126029851525435 l-0.06540646057864499,30.118987859878185 " fill="none" stroke="black" stroke-width="1" /></svg>