<?xml version="1.0" encoding="utf-8" ?>
<svg baseProfile="full" height="109.49251360143535" version="1.1" width="100.24322591722012" xmlns="http://www.w3.org/2000/svg" xmlns:ev="http://www.w3.org/2001/xml-events" xmlns:xlink="http://www.w3.org/1999/xlink"><defs /><rect fill="white" height="109.49251360143535" width="100.24322591722012" x="0" y="0" /><path d="M25,25.000000002661782 m0.0,0.0 m22.735929489135742,-2.6617807957762807e-09 l0.4832150414586067,0.2993934229016304 1.7254556715488434,1.669543832540512 l1.4888457953929901,2.861495018005371 m-21.96988582611084,1.810416430234909 l-0.862298309803009,4.444203972816467 -1.9587858021259308,5.388144254684448 m2.711251974105835,-7.541528344154358 l42.508554458618164,-3.121843934059143 2.004077285528183,0.08988049812614918 l1.068258211016655,0.3785756975412369 0.30860792845487595,0.5934767797589302 l-0.9545604884624481,1.5349182486534119 -2.7137506008148193,2.0609261095523834 m-38.62221717834473,2.738739252090454 l2.110590934753418,0.10235522873699665 11.58591628074646,-0.7739698141813278 m-13.873612880706787,6.876834034919739 l2.303626984357834,0.10875852778553963 8.601352572441101,-1.1970270425081253 l2.4079538881778717,0.01358993467874825 m-15.04307508468628,7.52153754234314 l1.83602973818779,0.39665333926677704 12.494248151779175,-3.6911913752555847 m-6.172158718109131,-8.95587682723999 l0.7804219424724579,0.9211384505033493 -0.14073599129915237,9.743483066558838 m14.573291540145874,-15.063066482543945 l-0.13023301027715206,0.9617447853088379 -0.9907938539981842,1.9997043907642365 l-1.253173053264618,1.7101500928401947 -1.5920795500278473,1.545850783586502 m2.9111596941947937,-3.3259686827659607 l1.04264497756958,0.08958278223872185 11.373201608657837,-1.1386164277791977 l0.9467516094446182,0.08955838158726692 m-17.441970109939575,6.427041292190552 l3.214457631111145,0.022487204987555742 12.654799222946167,-1.4097414910793304 l5.079536437988281,-0.02000055741518736 m-11.094892024993896,-2.6087990403175354 l0.5820757895708084,0.9914185851812363 -0.07036799564957619,9.096124768257141 m-6.921813488006592,-3.0960744619369507 l0.43495599180459976,0.7549649477005005 -0.29906153678894043,3.698297441005707 l0.4141843318939209,0.21037189289927483 8.17217469215393,-1.6718865931034088 l5.171681642532349,-0.656680092215538 m0.3966923803091049,-3.6708101630210876 l0.43495599180459976,0.9917309135198593 -0.473414845764637,3.8832125067710876 m-28.94667387008667,4.867758750915527 l0.601324699819088,1.7972975969314575 -0.004743909521494061,13.381339311599731 l-0.2703540399670601,6.102971434593201 m0.8958375453948975,-20.090749263763428 l22.742812633514404,-2.1188780665397644 1.5686528384685516,0.10263829492032528 l0.5513086915016174,0.44104695320129395 0.3094278648495674,1.095433235168457 l-0.47339048236608505,19.755280017852783 m-25.288357734680176,-13.463801145553589 l16.798516511917114,-1.3817662000656128 m-16.622347831726074,7.7764201164245605 l16.254703998565674,-1.2794110178947449 m-16.52239441871643,7.906360030174255 l25.349581241607666,-1.5992587804794312 m-19.371081590652466,3.698297441005707 l0.08706929162144661,0.5132012441754341 -0.5142945051193237,0.9495627880096436 l-3.5560190677642822,2.8133922815322876 -4.044700264930725,2.5222763419151306 l-3.6526933312416077,1.6198791563510895 m23.56914758682251,-8.116263747215271 l7.306636571884155,3.6077138781547546 3.2203924655914307,2.0868517458438873 l1.9286434352397919,1.6934391856193542 " fill="none" stroke="black" stroke-width="1" /></svg>