<?xml version="1.0" encoding="utf-8" ?>
<svg baseProfile="full" height="104.61871470335922" version="1.1" width="101.22343725109354" xmlns="http://www.w3.org/2000/svg" xmlns:ev="http://www.w3.org/2001/xml-events" xmlns:xlink="http://www.w3.org/1999/xlink"><defs /><rect fill="white" height="104.61871470335922" width="101.22343725109354" x="0" y="0" /><path d="M25,25 m0.0,0.0 m32.609399537145926,2.2593108240090007 l0.3620493748744192,0.18681766616595183 1.1311697674818533,0.8799144596587534 l1.0471094794360873,1.2766200902290585 0.9179977803772756,1.665165103624215 l0.4209327689903732,1.4274503024316887 m-14.267084556045317,3.6306259810880626 l-0.6482522314940015,4.386976716434683 -1.2804820979873748,5.120848710179775 m2.5356476361639984,-7.99421373152443 l22.821582549060746,-3.086020146463694 4.302486712910555,-0.36872710941440323 l0.9047363167601422,0.2713696963646272 0.3661442134188535,0.5121472093155046 l-0.051432524906865444,0.6791798230453046 -0.9791815098521607,1.5544992448486001 l-1.8913937955860112,1.7351747598160896 m-21.333253547467315,5.668665261725892 l0.5573968522180835,0.9079624527592024 0.24113484329452423,1.4586199470497008 l-0.10923535816185016,32.44632744201564 m0.24678549807856706,-34.01243012061161 l11.13333140146445,-1.8924807848455272 4.225489561703804,-0.4902035177259607 l0.4756190461938779,0.6874899955203253 0.04043630432765817,0.7940567940587345 l-1.9276133347495166,7.847202101779576 m-13.624173894055923,2.2970414920553375 l14.57323745251211,-2.087881632514619 m-14.99838729453827,12.038404307215819 l13.707652916533377,-2.2284062455447673 3.0402498567637,-0.2703529548461362 l0.43419983059574374,0.32441273743143995 0.23921496589827054,1.049314188515819 l-1.8994158949726836,10.148031567441672 m-15.590343258854414,2.423343914836686 l16.564310667707904,-2.1115607333444233 " fill="none" stroke="black" stroke-width="1" /></svg>