<?xml version="1.0" encoding="utf-8" ?>
<svg baseProfile="full" height="115.4261132502232" version="1.1" width="101.49212846813302" xmlns="http://www.w3.org/2000/svg" xmlns:ev="http://www.w3.org/2001/xml-events" xmlns:xlink="http://www.w3.org/1999/xlink"><defs /><rect fill="white" height="115.4261132502232" width="101.49212846813302" x="0" y="0" /><path d="M25,25 m0.0,0.0 m29.89404903042347,1.0017124432006002 l0.37174406642919583,0.4433517861395992 0.4648390441554677,1.8666912429588616 l0.0024304904694285017,6.009005804729788 m-15.162830278571095,2.0957735957042787 l3.186667552586574,0.23805594133768584 24.095773562636165,-2.9716714121668195 l1.7548346338401013,-0.11479777288171907 1.96873889699196,0.3182827587576646 m-23.252252507949173,7.673882061439392 l0.013198333077404518,1.0908054153008835 -0.40950388285845546,1.616647098520474 l-2.1575170592495287,5.163641764541525 -2.58641687491053,4.797410128845218 l-2.8132812451394518,3.9419709867632 m7.722481406217973,-9.756904375173345 l1.4619174819695626,1.0905314246785067 1.6140002443765147,1.823070217444835 l1.363401790050181,2.085569829062258 0.7398435623124309,1.951253108260829 m10.342383190377285,-14.740005245743157 l-0.20374048379356197,1.4677064243204787 -0.45898427629272737,3.4647486401551846 l-0.998386945920758,3.8615733656877413 -1.5527791355889324,3.7533993230332863 m3.489145279744573,-5.839268744316507 l2.3166316940174667,1.645441190025399 2.314717458450631,2.345619202690313 l2.0515468039186255,2.363961818483227 1.4500264232740667,2.319006420933516 m-34.66434531154436,11.431677812357716 l3.980714174199287,0.39792274670380534 16.478206316170134,-1.8991090358167584 l13.228555981171507,-0.9513802336957652 2.9739517617090225,0.09153823445765691 l2.472367291382541,0.6244137134044149 m-20.44749950463558,-7.057883814576795 l0.7007076831088933,1.7414497981941417 0.15017727870872657,1.521857610265789 l-0.06615781605516281,28.519161976195793 " fill="none" stroke="black" stroke-width="1" /></svg>