<?xml version="1.0" encoding="utf-8" ?>
<svg baseProfile="full" height="109.20590470312163" version="1.1" width="109.49251374229789" xmlns="http://www.w3.org/2000/svg" xmlns:ev="http://www.w3.org/2001/xml-events" xmlns:xlink="http://www.w3.org/1999/xlink"><defs /><rect fill="white" height="109.20590470312163" width="109.49251374229789" x="0" y="0" /><path d="M25.000000675208867,25 m0.0,0.0 m14.586659669876099,3.432213068008423 l0.43322768062353134,0.48171035945415497 0.6233491748571396,1.0818570852279663 l0.22717613726854324,1.2667840719223022 -0.056737218983471394,9.802511930465698 m-15.813676118850708,2.6457709074020386 l3.2244467735290527,0.17207033932209015 20.705928802490234,-3.3777299523353577 l3.73074471950531,-0.014198508579283953 m-7.380453944206238,5.895497798919678 l0.1309736631810665,2.222239673137665 -1.3606327772140503,4.279638230800629 l-2.409937083721161,5.7625168561935425 -2.935281991958618,5.514562129974365 l-3.412490487098694,5.136396884918213 -3.041251301765442,3.7518692016601562 l-3.2892057299613953,3.3619296550750732 -3.5136115550994873,2.9072311520576477 m5.197346806526184,-24.823148250579834 l5.114926099777222,3.6680635809898376 5.0716376304626465,4.827146530151367 l5.160291790962219,6.015319228172302 3.8304805755615234,5.5187177658081055 m4.346821308135986,-26.862192153930664 l3.7774959206581116,0.26314856484532356 19.156904220581055,-3.0405154824256897 l3.4578561782836914,-0.3005170449614525 3.9295241236686707,0.13476679101586342 m-13.198379278182983,-18.351398706436157 l1.0666196793317795,1.575688123703003 0.35911839455366135,1.985020637512207 l-0.00709384330548346,50.61837673187256 -0.14146562665700912,2.023806869983673 l-0.38924694061279297,1.167740747332573 -0.5842166766524315,0.46300988644361496 l-1.5424428880214691,-0.5810133740305901 -2.4566882848739624,-2.3645710945129395 m-12.101285457611084,-22.23001718521118 l1.6601866483688354,1.075969934463501 2.3143568634986877,2.0722895860671997 l1.4118857681751251,1.6491048038005829 0.7911339402198792,1.4008040726184845 " fill="none" stroke="black" stroke-width="1" /></svg>