<?xml version="1.0" encoding="utf-8" ?>
<svg baseProfile="full" height="100.25350633001976" version="1.1" width="105.16434426403862" xmlns="http://www.w3.org/2000/svg" xmlns:ev="http://www.w3.org/2001/xml-events" xmlns:xlink="http://www.w3.org/1999/xlink"><defs /><rect fill="white" height="100.25350633001976" width="105.16434426403862" x="0" y="0" /><path d="M25,25 m0.0,0.0 m13.455021221367396,4.162228234653089 l0.00503999462874835,0.479525813440043 -0.9311950288735963,2.495125844326466 l-2.417877212609266,4.0151187077526185 -2.9902896876311793,3.6099890878980476 l-3.33815280074328,3.094331320203715 m8.497392965014756,-6.977948219802814 l2.66516576063786,0.011952071520541273 22.523527194140733,-2.4220961299216976 l3.8213536918742497,0.03682781469085237 m-35.437345804738804,14.98978202151116 l2.2205342818347447,0.2997056003940396 2.640907742320182,-0.11180474854968564 l25.5026898438851,-3.2390509233908786 4.120161984660673,-0.27632091902990724 l2.861967575869584,0.21552887908874815 m-19.009527816929502,12.23587815041376 l5.086522264080632,1.6752206865567238 4.4391502569044174,1.554151340071698 l0.7901567142385559,1.5997114005975304 -1.162522625013584,3.4422750462919876 l-7.514813377676153,5.461399640251071 -8.22111298649368,2.092269937651326 l-4.874794972211578,0.7502339036126621 -5.647275798332799,0.5384679035022905 l-5.913691446048693,0.5210038662863853 m14.051075701219617,-15.212160214013135 l2.0300900995818685,0.4020842457954861 3.424304512358175,1.1391440566575113 l23.103567839784102,7.633230999390488 7.299296421669418,2.77752651840358 l4.085017755269932,0.8526618170988313 " fill="none" stroke="black" stroke-width="1" /></svg>