<?xml version="1.0" encoding="utf-8" ?>
<svg baseProfile="full" height="107.3375702766356" version="1.1" width="103.5745577612553" xmlns="http://www.w3.org/2000/svg" xmlns:ev="http://www.w3.org/2001/xml-events" xmlns:xlink="http://www.w3.org/1999/xlink"><defs /><rect fill="white" height="107.3375702766356" width="103.5745577612553" x="0" y="0" /><path d="M25,25 m0.0,0.0 m28.0871142353448,4.699323271990384 l0.4012651120524036,0.22703313267360473 1.532279124719671,1.446411905294637 l1.1202330117642407,2.3485639394163114 m-19.626623444504183,2.3047582409128187 l-0.8531911649776267,3.8312827186419804 -1.7974246339054194,4.565097863958515 m2.7076668612607273,-7.021891376711481 l39.132963373109085,-2.6403301554798166 1.6750669939768115,0.07562127246989209 l0.9251989808248053,0.33716075620429775 0.2700093115899974,0.5296066526416602 l-0.8429906257418249,1.3867534624869808 -2.448027268514519,1.919555662409889 m-35.34397443693953,2.031869699628893 l1.8660853256807535,0.07190132055277852 10.12128238142536,-0.6203929115253237 m-6.525447390219548,0.8668260307306354 l0.7082662912081907,0.8073771919753675 -0.14075428129145062,8.663637363320413 m-6.064413749818383,-4.345518725446426 l2.0033012834013144,0.08312706662440496 7.457404221090103,-1.0173404727440782 l2.114635754689791,0.008409714616565223 m-13.101451383886552,6.561937528992076 l1.5971449474596096,0.3512463053863445 10.898060183283551,-3.249909187190122 m8.206889179051041,-11.670928053037063 l-0.09849386235465972,0.8302499183770226 -0.8504052766877812,1.7760194935588016 l-1.0877726741823406,1.504988777209924 -1.4024452934705207,1.3762723178916048 m2.600142547207528,-2.9273164635028945 l0.8734960195172445,0.075590056527052 10.214982129384431,-0.9875313742113037 l0.8051590262868522,0.07711064236956919 m-15.676620238862546,5.712852943973963 l2.881412235792985,0.023127306761170155 11.389672346711373,-1.2184144740280276 l4.669757743914013,-0.021164246323775934 m-10.009066498634892,-2.3671790035546794 l0.5263776009770262,0.8869804362998377 -0.07046578343140943,8.19858014632529 m-6.185068499295787,-2.726843057260978 l0.3829236342765,0.6678177371500535 -0.2690016029507589,3.2163093611546487 l0.38170556976374964,0.2104114846923265 7.452560000847244,-1.4961965285011898 l4.648029507233304,-0.5946297576026198 m0.3326997187563533,-3.335670071965392 l0.40060714217193705,0.8896678757385257 -0.4208441769415086,3.4398056550893275 m-26.174552782490704,4.281428528737796 l0.5473049366148885,1.583472592939576 -0.000739156307509332,11.90783005419733 l-0.24891500310099735,5.405117905936654 m0.8156393267686338,-17.87312091870347 l20.38575728825771,-1.8644747760078786 1.414404416966542,0.08997511952593297 l0.497413015587355,0.39166482639104494 0.28312812690227396,0.9973062919016321 l-0.42825408590898045,17.53899842791542 m-22.67854751392721,-11.933116733967976 l15.05933984778759,-1.2112777990514183 m-14.941664681864836,6.916024268695746 l14.556612115151346,-1.1204543123157011 m-14.82633370801578,7.057056380514859 l22.85053152029742,-1.445027772523882 m-17.502975503293186,3.304090175285635 l0.07895803878035253,0.4531939449525899 -0.4709115922401724,0.8539305753625049 l-3.258924552189524,2.517027957068098 -3.6775285877611212,2.275693931234624 l-3.2969492496666755,1.4502022135840822 m21.340515704787133,-7.293232915558225 l6.560265447219347,3.2268642433497097 2.903293210180168,1.8603500843848608 l1.748578520149709,1.50792977204687 " fill="none" stroke="black" stroke-width="1" /></svg>