<?xml version="1.0" encoding="utf-8" ?>
<svg baseProfile="full" height="104.32188170406043" version="1.1" width="105.82675094568057" xmlns="http://www.w3.org/2000/svg" xmlns:ev="http://www.w3.org/2001/xml-events" xmlns:xlink="http://www.w3.org/1999/xlink"><defs /><rect fill="white" height="104.32188170406043" width="105.82675094568057" x="0" y="0" /><path d="M25,25 m0.0,0.0 m30.01264281409102,3.1533447945007977 l0.3737827947503016,0.45431466048826263 0.5991787187702008,1.6290703570740395 l0.021952169802628232,5.425181538086071 m-19.745753315492674,1.0589229004569718 l-0.5433288009483561,2.4875555881296503 -1.0136361050038019,3.449219792763845 l-1.4780582405503573,3.8645900448161323 -1.0407168060954946,2.1584316575980758 m4.008145111258616,-8.842315957768752 l28.300713103319808,-3.163547010550011 9.867709415280197,-0.750715592569266 l5.0058379945707205,0.016821083532326878 1.0266358616303535,0.40051908033050126 l0.4316462302974164,0.6020584051084138 -0.041819193883355935,0.7331497355711825 l-1.1603166039372266,1.7614657764684967 -2.938073251611774,2.4865972463287833 m-32.6855236823546,8.071419949134095 l3.5772319754370283,0.10916409571264185 10.643015743947108,-1.753239260002315 l8.414111277882817,-1.0377665810004084 3.164523605055776,0.19348126866020837 m-13.201245036637413,3.305225068356891 l0.5712236896904473,0.8216603129705078 0.36982198928345816,1.6891749129540368 l-0.05198791279104428,23.62517515183945 m-14.31798908994318,-13.910616820513146 l1.0440417276359826,0.314938534392237 1.9549658216786627,0.040853510211664494 l15.615168360099547,-2.3495307505697265 5.658078957004878,-0.6127400392559174 l2.177378949076919,0.1903963329680631 m-32.757971522533005,18.3937646162554 l1.8020936041969253,0.2969393542012506 2.468484680470723,0.00891794737997709 l32.53206897027168,-2.5675535377965155 3.131970630076052,0.05054481385952934 l2.51639366414026,0.4671677973271556 m-11.155457929424239,-11.01390962505052 l1.562466170710223,1.154254455078005 1.3673193295227304,1.4838754759046395 l1.1244883498626124,1.5875508144989525 0.874528387269446,1.902360145238064 " fill="none" stroke="black" stroke-width="1" /></svg>