<?xml version="1.0" encoding="utf-8" ?>
<svg baseProfile="full" height="100.41827455790795" version="1.1" width="104.09701682061662" xmlns="http://www.w3.org/2000/svg" xmlns:ev="http://www.w3.org/2001/xml-events" xmlns:xlink="http://www.w3.org/1999/xlink"><defs /><rect fill="white" height="100.41827455790795" width="104.09701682061662" x="0" y="0" /><path d="M25,25 m0.0,0.0 m16.52473956825007,3.958895840620239 l0.07930610501770381,0.5365069699281206 -0.14618201879410916,1.116173997593242 l-1.1972281789895944,1.959453775940319 -3.9569706706333694,5.197586822446955 l-4.201218380937879,3.8260738286068143 -5.546297062419412,3.307618703572134 m2.8142658920999146,-15.508322960771176 l1.8014246638489944,1.6549586449215798 3.11290772948598,3.6242851687156175 l1.3290592173933515,2.027999574856635 2.2243660066534634,4.498987736381919 l2.216108018268065,7.100878542169495 1.0533633934679225,7.090090278740756 l0.13896752452831712,4.581050143479651 -0.23805565668178993,4.222315668226774 l-1.9723047234526259,3.7694759833543166 -2.232474347840605,0.29158538979367177 l-1.5445770800549987,-1.179331360394559 m3.1396115070064177,-23.192598331794017 l-0.05907517939940677,1.4407338169697437 -3.3288838294214487,5.597430235284775 l-3.183692645115017,3.7932469767743684 -3.969930392605255,3.9032008790381423 m20.935923023472817,-30.426262239571916 l1.4248453182943572,0.6718217452280641 1.7926155692540113,0.152874213449593 l21.41848562661508,-1.7779979000743034 0.5307447260516268,0.2767785800047332 l0.2627353564094487,0.5240576934604638 -0.062882588433895,0.6198719606154742 l-2.5308108070504485,11.179411553203025 m-22.038073862287412,-5.537048324293053 l13.13858910379393,-1.282202150504644 9.936957602669148,-0.07509371572991638 m-22.5377260250207,8.040328579114725 l21.420735618946374,-1.4697568741808316 m-22.590471971800678,-9.997519692015922 l0.6973764638487201,0.6228643780966654 0.35172881708032294,0.9673117690575679 l0.08677596526399704,16.23518714763379 -0.3841072662151921,11.570450923772732 l-0.6219929747664246,3.8009150108929344 -0.9192360248380484,3.1513824931148458 l-1.6668198483524035,3.499533098073649 -2.3877634871692663,3.2871766102016067 l-2.4541446262153794,2.332829571132941 m14.719763911564483,-25.572876735734937 l1.5763115244837784,0.30091926377511474 2.087500119775994,-0.08590493924583771 l14.149471760905673,-2.1248915180047314 1.358242940504032,0.6141962634126097 l0.11370393825005339,0.61525233352692 -0.1355601276275454,0.7200405670205562 l-1.8574821951028087,4.255926476726433 -2.268229401242339,4.139537637923505 l-1.6087275368774956,3.5445841958241417 -0.6339742364382808,0.9584634871477208 l-0.5734384845694009,0.289800137223247 -0.5633756343387308,-0.09033641931150416 l-1.0754765457371158,-0.8897390985491922 -0.9450245240192693,-1.117127087529327 m-10.188516230903884,-10.35568400566595 l0.3642736891931226,1.8633616979110659 0.05843445119372614,18.23716212445767 l0.5019728195315013,2.1110026776177224 0.9189943996416741,1.3106716624675154 l1.7436651236380514,0.9821544320914283 3.153651365085205,0.580059150684717 l7.118257564230923,0.14649149900131436 4.642342968241791,-0.38669961509577283 l1.8463063003035298,-0.5815908575190227 1.803411325091251,-1.0949381020303894 l0.8325028048092207,-1.3721515877630923 0.2973015618047929,-2.173289199758141 " fill="none" stroke="black" stroke-width="1" /></svg>