<?xml version="1.0" encoding="utf-8" ?>
<svg baseProfile="full" height="110.86341922904037" version="1.1" width="114.10524596238858" xmlns="http://www.w3.org/2000/svg" xmlns:ev="http://www.w3.org/2001/xml-events" xmlns:xlink="http://www.w3.org/1999/xlink"><defs /><rect fill="white" height="110.86341922904037" width="114.10524596238858" x="0" y="0" /><path d="M25,25 m0.0,0.0 m20.26647271505014,3.116742442780572 l0.034622773068365524,0.5226258941643954 -0.24285902481718594,1.2533666146646463 l-0.7070904527899416,1.924311995166394 -2.578992396751657,4.451653332721516 m-2.720446413300085,1.0998379217328291 l0.46313308145701465,1.1666284876955406 0.1821796666487581,1.2942042140167511 l-0.0548797132874902,16.632657807425446 m0.1935140742071573,-18.08648012458101 l11.207825976871865,-2.0990831915632113 0.9228262018499587,0.10011923913893171 l0.4199191003494152,0.6977520176334225 0.1150601928619822,6.125520729896278 l-0.1988844305186293,15.395862240406412 -0.24977545727332728,1.5225735363450739 l-0.4188013350400943,0.5651810182099556 -0.5228407135683578,-0.12437176158735848 l-1.3440038837248014,-1.7239701608262572 m-8.021684390282378,-16.497061919372804 l10.488088630537053,-1.5991265782863395 m-10.168428781010919,7.150446267246349 l10.152367160830718,-1.7663121809223514 m-21.60728847416187,8.899474546060704 l0.9725016524409464,0.47455144206266964 1.7668413683234867,-0.021975913341728003 l15.961462255403815,-5.044279986331769 m5.593081840819606,-4.363069296649454 l-0.12273449333046223,1.6079808496901504 -1.4074058538415892,1.9776847107813702 l-2.5997331674058124,2.696941245595258 -3.308912628122592,2.9028019688194173 m-3.4196307369593013,3.2469741360763296 l2.526975836033243,1.6249098920443266 1.93542575215829,1.994064260849603 m6.063807899604228,4.53341616702719 l-0.15791682858551886,1.4528813459145764 -0.4471706759791826,2.401005643466934 l-1.0953333052927778,3.389528447382436 -1.6751213625131052,3.278396680848473 l-2.210991948974087,3.0661964560864194 -1.9453065940435887,2.1351941957556773 l-2.2063049512224975,1.9121581411719446 -2.4459743279779995,1.5755064536246521 m20.2312283632662,-42.926590950910665 l2.189875144153577,0.35628182403162634 12.54635648885862,-2.2061969979205966 l3.2011501913332867,0.15257610032823288 m-9.632173317615107,2.7763199702864654 l0.5119363676387437,1.1143433058801495 0.16129328796191356,1.4028653800972672 l-0.037679418321290514,22.099949528351626 m0.30813855470026186,-13.738954794970395 l2.8634155708534395,0.056195676807634355 5.648531901698923,-1.1867708054530346 l2.1157945951156885,-0.1822498971189912 m-17.22297180287462,1.2545485309464377 l0.6211604074908685,0.8769309335017222 0.295914051640458,1.2841160951411024 l-0.012655041055645078,14.743941788762253 m-7.0062959200099,0.7491217158405707 l3.3003031398776477,0.3629062633082845 20.53447294502146,-1.9523246272752226 l3.7451869344786997,0.365869300647437 2.3546696804345557,0.6342237718105185 " fill="none" stroke="black" stroke-width="1" /></svg>