<?xml version="1.0" encoding="utf-8" ?>
<svg baseProfile="full" height="115.3667626961734" version="1.1" width="104.01064390325624" xmlns="http://www.w3.org/2000/svg" xmlns:ev="http://www.w3.org/2001/xml-events" xmlns:xlink="http://www.w3.org/1999/xlink"><defs /><rect fill="white" height="115.3667626961734" width="104.01064390325624" x="0" y="0" /><path d="M25,25 m0.0,0.0 m31.134363976244945,9.527005292255573 l0.400931174782016,0.22131541232030696 1.05368545235907,1.712466423423381 l-0.10850917188468014,5.118397269052732 m-20.344511275345834,0.8390849573175843 l-0.7200432967722729,4.283174317953305 -1.5709974588691906,4.9621884779043945 m2.379873395606369,-7.76828701178469 l29.392532016735643,-2.0201441413922736 10.163666664446371,-0.5180366715998042 l1.4172246094562586,0.27689807127329313 0.6542220820086444,0.45011009346556663 l0.15820573448889722,0.5979134185070215 -0.8138343635963925,1.4729783192267876 l-2.9134280798704726,2.377604522842223 m-24.4948752963132,-0.16258869533976697 l0.22619949372903098,0.8062426068235886 -0.3681516077969003,0.7528671929971048 l-2.3554519510071077,2.7579909660519086 -2.8151214780145217,2.243248660928999 l-3.2605738161062328,1.9572654954966706 m20.549294460930447,-10.162109041351561 l0.43745746808806274,1.010368441404606 -0.10539563180161748,4.362230657059174 l0.17855010087339396,0.5157060184588275 0.7454142817311207,0.734548277975162 l1.1135312154567956,0.38606639112337404 2.0095063045038355,0.12321226051147428 l3.9889336425598567,-0.09908865352666991 3.655593762189362,-0.41919476518863646 m-33.450118869813124,10.683697564115068 l2.00830008008643,0.11898727307480973 9.822298520876211,-1.278915670356645 l2.6564926520233554,-0.007480631740888369 m-7.3322838088139175,2.0801839203501458 l0.37429806113507025,0.8896389195242994 -0.15264321551698626,1.2135078961070347 l-4.373199441788655,7.293294287232129 -3.035034887977175,3.6759844649579265 m6.158552994456152,-6.606900579625969 l1.7364404805131401,1.4945675043084297 1.6321613578396705,2.8911452804014828 l1.2667847553991143,3.1978030882321633 0.7284513588257375,3.9333532668349136 m7.97445232556446,-21.00925462941323 l0.035531599813672446,0.9292059875919119 -0.6949515064461481,1.6604093616384386 l-2.143942495347645,3.508647223436281 -2.3822865043133086,2.960993428258706 l-2.631371595158387,2.3948807756767985 m7.045806497335297,-6.35513864068443 l1.194198293689827,0.08183676720666924 10.095310736423912,-1.372116604363503 l1.2256470142820624,0.03951545960231399 0.4618246798861908,0.2765068253293953 l0.16942406074366181,0.4627612019431666 -0.3557328485221917,1.1022566246489984 l-3.007433764182995,4.387905917692741 m-7.920713500286489,0.8374598370301214 l0.21649426513936063,1.6560062423418627 -0.7787423836214955,3.3750109149253715 l-1.10010252294695,3.096523653862666 -1.6417963240550881,3.1795969613136488 l-1.6422628905753844,2.4108088342061085 -1.9869489361694295,2.273331954923 l-2.3982968470582944,2.1279337452848304 -2.1097407142622515,1.4233797061169964 m11.17487990099015,-14.036359265936175 l3.3945859991454195,3.9821082198144047 4.855448950696785,4.780143375565875 l3.7348784092455136,3.1455763898477267 1.972910005637854,1.0176322926460097 " fill="none" stroke="black" stroke-width="1" /></svg>