<?xml version="1.0" encoding="utf-8" ?>
<svg baseProfile="full" height="102.93631512501929" version="1.1" width="102.49024753686797" xmlns="http://www.w3.org/2000/svg" xmlns:ev="http://www.w3.org/2001/xml-events" xmlns:xlink="http://www.w3.org/1999/xlink"><defs /><rect fill="white" height="102.93631512501929" width="102.49024753686797" x="0" y="0" /><path d="M25,25 m0.0,0.0 m28.250389352706495,5.221615891415744 l0.3910627901683156,0.24052711813314018 2.4584717111118737,1.911775926996464 l1.10260588314526,1.6220026004787351 m-20.712100757543855,2.8488471367988693 l-0.9198167529043773,3.9714918441601847 -1.8485724293737138,4.664694116128141 m3.2564169704552945,-7.330626466463679 l21.02188189468198,-1.8878226105624285 16.247052544285168,-0.9089561129715664 l1.8924872030485107,0.18272478418047605 0.9920124717961006,0.35900257875152286 l0.3583566552909202,0.49450619090897296 -0.6188745710244536,1.2019570007714588 l-2.8791368441802065,1.9962236405570306 m-30.125849623956825,2.7102014651709205 l2.2506889060073556,0.12925104994557574 16.31175725994308,-1.6757006520762487 l2.348948931521756,0.11204866605444412 m-20.83685573776052,6.576307897524076 l0.6105481933277699,0.6486749451612154 0.37969662203978133,1.2626082413072603 l1.4771217941389752,7.996927893867691 m-1.232993159163424,-9.131458899762128 l17.020536520803578,-1.5786710162309776 2.226695076246276,-0.023168875710913004 l0.5563678992768725,0.27837688138497163 0.38060932782804907,0.8661325779239681 l-0.8909868528690774,3.7998396661734435 -1.1835923141407847,3.096539908709906 m-16.7442697100149,1.600584539144834 l17.67061624874197,-1.245013854518133 m-23.397481048822545,4.623659274686251 l0.6444629118598816,1.570253755339697 -0.17440330129342999,2.969464938964489 l-0.6806571202639279,12.416903149744728 m0.6916158940802353,-15.200153447804512 l22.960506772560702,-1.7476218405902444 0.7981475449005526,-0.0013688782034782985 l1.0760202335127826,0.3189916824572688 0.6703187507755449,0.6956938064047065 l0.16059948428052,1.0744910412423814 -1.342580343695531,8.77053926914746 l-1.1018210863541118,4.728952892968111 -0.4148047355313456,1.4391230320843784 l-0.48212667301629086,0.9091219563273129 -0.5290146639298989,0.35682041889777927 l-1.074951665171538,-0.46738478541470646 -1.3330764277833833,-1.5392757076045864 m-13.188263760415126,-20.985124173132448 l0.7408427949749063,1.622362833765892 0.023961249068061696,21.236680977018867 m-7.761865464471268,-20.341453566035884 l-0.09764227992709928,1.155674473995368 -0.3837310857304421,1.9527993265240302 l-1.5816116795247481,3.531120716440655 -1.9654035812285837,2.948881250659002 l-2.8937631025429003,3.049485969152692 m2.9186637881713584,-11.84061462590336 l0.6109192106170602,0.7789194797332538 0.19399097599960452,0.7916757281278647 l-0.08873612685870381,9.955686753846441 0.4077410823088663,1.6144681683214313 l0.574864763033122,0.5284471625833216 1.523571573705617,0.232790165973198 l3.2189683415524515,-0.14655119940356198 3.5397776365158338,-0.2825675094413989 l1.2685622211452068,-0.4711716360628628 0.6246973535507714,-0.5869533850893295 l0.35860974290158515,-0.7822611726852752 " fill="none" stroke="black" stroke-width="1" /></svg>