<?xml version="1.0" encoding="utf-8" ?>
<svg baseProfile="full" height="108.02747359216686" version="1.1" width="93.86028994317323" xmlns="http://www.w3.org/2000/svg" xmlns:ev="http://www.w3.org/2001/xml-events" xmlns:xlink="http://www.w3.org/1999/xlink"><defs /><rect fill="white" height="108.02747359216686" width="93.86028994317323" x="0" y="0" /><path d="M25,25 m0.0,0.0 m12.681805487369529,4.837456161542745 l0.0733133115861633,0.5351775144420853 -0.13026649244918317,2.009428850582448 l-1.190908689943435,3.2305026127998313 -2.0653961879464107,3.8634440420752525 l-3.878020560463727,5.880803868997329 -0.22243367931796698,0.7674081964871533 l0.24722066864625666,0.8764542070489424 3.4309826825323806,1.4668584175945627 l3.0389201040003546,1.6079048426873488 m6.910298824940028,-11.623061145135175 l-0.017018649228405833,1.802520612621812 -2.250724806808071,3.821524417643182 l-4.771533378458647,6.901836843699325 -5.956010854139002,8.09533679579574 l0.3044141333484212,1.0266426884916446 0.7295866359660558,0.021465010999339455 l12.585618138127549,-3.809843583076452 m-2.2588579785747704,-4.651837770629302 l1.1921070996899403,1.5949634595355155 1.3461573610276512,2.4692632975676 l1.1399586365164482,2.6179608371139844 0.5873255733387364,2.025723608780262 m-8.377110831686801,-0.0054996308184235895 l0.5346158400245541,1.764593920785173 0.0879506891938106,1.4959107124389899 l-0.12694963461432682,19.404534802095927 m-5.507866597826232,-16.326030946846835 l0.008945351675670373,1.8242904721481379 -0.4491149746580658,1.363350869050014 l-2.3328441876433628,5.391325601401548 -2.265523917299226,4.372700999209937 m15.015720942582293,-13.562455672163122 l1.0129906795365495,1.3466263464103825 1.1663801387636172,2.345560552674393 l1.9048318158802935,5.846197690436573 m2.7091474872444175,-46.04430724202176 l0.7341641476975065,0.12321824678846253 0.8530265356780139,-0.13168157048897372 l15.200647880012262,-2.4127308759921506 0.8465920403064933,0.2720630931010045 l0.42214258405064115,0.5275001497138215 -1.2104745414254159,6.853206060431308 l-2.6353601926145944,5.612605013568188 -0.77464383661935,1.3985396300127984 l-1.0941265686902277,1.0138009567081248 -0.9896212309172581,-0.40413174925657785 l-0.9337413303120231,-1.3217294474047159 m-3.156609477555002,-11.067772650861425 l-0.10535852321815505,1.3782039235520065 -0.7085256955144779,2.2168916863954 l-1.9344952374742637,4.093253489275547 -2.566753603568729,3.5215951456720327 l-3.6654533892963284,3.5436977492953745 m1.2588027219927547,5.79887110979819 l0.4603109719555647,0.8533450704800924 0.18733745969194215,2.544034353197533 l1.18693398545847,13.06906738744732 m-1.2004869180510218,-16.09705518452533 l15.280349802757764,-1.9182981823686591 1.880900174963842,-0.06651556610434803 l0.9973638858966647,0.39395780707646516 0.5725670968335447,0.9447029816600158 l0.047091020201505275,1.2631216157898963 -2.274159686633117,13.06378262238374 m-14.773874650939426,1.2755369433961918 l15.735565980475478,-1.2369984265339087 " fill="none" stroke="black" stroke-width="1" /></svg>