<?xml version="1.0" encoding="utf-8" ?>
<svg baseProfile="full" height="109.49251428246498" version="1.1" width="102.64560976997018" xmlns="http://www.w3.org/2000/svg" xmlns:ev="http://www.w3.org/2001/xml-events" xmlns:xlink="http://www.w3.org/1999/xlink"><defs /><rect fill="white" height="109.49251428246498" width="102.64560976997018" x="0" y="0" /><path d="M25,25.000001678757826 m0.0,0.0 m23.7235164642334,-1.6787578260846203e-06 l0.5438954383134842,0.28129130601882935 1.6661100089550018,1.2015531212091446 l2.043132185935974,2.1349288523197174 1.158277615904808,1.7172539234161377 l0.6315120309591293,1.5736575424671173 m-24.63298797607422,3.2496032118797302 l-0.4036698117852211,2.825371026992798 -0.9854211658239365,3.6653107404708862 l-2.545391321182251,6.514450907707214 m5.203561186790466,-10.921183824539185 l28.230435848236084,-2.7378568053245544 13.637709617614746,-0.887664332985878 l2.300162762403488,0.21129632368683815 1.2543362379074097,0.5088159814476967 l0.40357761085033417,0.7265052944421768 -0.2532605268061161,0.8642002940177917 l-0.7160142064094543,0.9212453663349152 -3.6066266894340515,2.662760019302368 m-45.866875648498535,18.160009384155273 l3.5885950922966003,0.2550739236176014 23.250792026519775,-3.0054402351379395 l14.884177446365356,-1.5522657334804535 6.245453357696533,-0.31045928597450256 l2.8906121850013733,0.5175857990980148 m-16.68076992034912,-11.235915422439575 l0.7666253298521042,2.7473440766334534 0.1398362871259451,4.212812781333923 l-0.3870726376771927,33.52808713912964 -0.41636358946561813,1.2064708024263382 l-0.6209390610456467,0.4576721042394638 -0.7651910185813904,-0.12400750070810318 l-3.893163502216339,-3.495159149169922 m-14.834346771240234,-16.345057487487793 l1.9451063871383667,1.642177253961563 2.013953924179077,2.3168830573558807 l1.6048029065132141,2.4103188514709473 0.6470847129821777,1.5198910236358643 " fill="none" stroke="black" stroke-width="1" /></svg>