<?xml version="1.0" encoding="utf-8" ?>
<svg baseProfile="full" height="103.39069120452154" version="1.1" width="102.11587023793021" xmlns="http://www.w3.org/2000/svg" xmlns:ev="http://www.w3.org/2001/xml-events" xmlns:xlink="http://www.w3.org/1999/xlink"><defs /><rect fill="white" height="103.39069120452154" width="102.11587023793021" x="0" y="0" /><path d="M25,25 m0.0,0.0 m26.153556417177104,6.33667945378932 l0.4192035809430683,0.20725207826422073 0.8014895600536407,1.28992030247845 l-0.05189691341469752,4.188484143610288 m-18.573657492752915,-0.43222680092529253 l-0.8737950139128109,4.048262023485089 -1.8523870788608232,4.675430003924877 m2.8485644779439467,-6.939244407058785 l34.6051880941994,-2.1396442140917498 7.606494813650255,0.0563273697531216 l0.886793692789094,0.4003634596635655 0.14631610011494586,0.545193539505016 l-0.3685170881982529,0.6639849924746775 -1.655707461276874,1.4301825031073592 l-1.997898147500642,1.2313438641713814 m-38.16196394423044,2.894404793796695 l2.424673935688281,0.11447515859947084 8.818637076742677,-0.7981581561473189 l4.081253903651267,-0.13742569708219224 m-14.580847522572384,5.060895376389729 l2.8904303896785435,0.0355141622833768 6.703845101521704,-1.0995391247177335 l3.2161435747641085,-0.052250809813497896 m-15.977785910713726,6.044353976312062 l2.215570443297452,0.36489609728164907 13.704118326079701,-2.632774548039461 m-6.084300479013002,-6.8847143773082795 l0.7722881958520641,0.6132391995234627 0.20417723550454445,6.98166078173039 m13.694333740655642,-11.12449810664124 l-0.12221242627447443,0.8109153189882928 -1.1161381929739107,1.880982123597554 l-1.1790632629847178,1.3444084332128505 -1.4336867344218611,1.2320126980796609 m2.7062988907691756,-2.274844152260637 l4.982432476242285,-0.2722435284782966 7.8270379042905285,-0.9645956287573639 l2.1536701201018817,0.0509524844233349 m-9.095289220755447,2.048427444666444 l0.5378311727890632,0.8243880672946324 0.05213822353934115,1.0151120466413504 l-0.3681677016214659,6.380569503202886 -0.5194899656536996,0.2298639465823145 l-0.7096052935388871,-0.3171386044148209 -1.2558940857806025,-0.9814733968810833 m-2.1245412098250727,-5.245795992860471 l-0.26513937676049104,1.138914313088525 -1.0270774647479577,1.544838798370737 l-1.6838505140807094,1.7411330885090015 -1.5754644560871773,1.1531346580061208 m13.726607353959977,-4.948272507646971 l1.9563208741869442,1.031910708944957 2.001469624970885,1.4560580170155049 l1.5917077924019776,1.5122540901641228 0.6386049037408482,0.9549950844553032 m-31.869799509275413,3.819679552503589 l0.7774060632562855,1.0590584156031384 0.2433177343641646,0.7594292051423601 l-0.012007724973709938,9.785038073134015 -0.3092881759380352,4.102980701892502 m1.0906098855738837,-14.868636068012297 l21.32753927068177,-1.5374224419436247 2.2991446054949605,0.055427382607350306 l0.4722549063351662,0.3247985647348735 0.36381135642386336,0.7948741369554485 l-0.5202492912013992,14.623267560356982 m-24.5469969150736,-9.915851653517953 l16.47057147112755,-0.9926762980600063 m-16.31463298739652,5.744725516402736 l15.452406236659732,-0.934416473170994 m-15.707770196594865,5.83667813767372 l24.63826417251149,-0.94417344059093 m-21.310110968102176,3.5353716402606588 l0.12806424389080176,0.46638241910952927 -0.21001249173075626,0.4344759831119949 l-1.1208795661820157,0.707373026064895 -5.167171141140345,2.2556361383382373 l-5.37380763648865,1.9897770736627174 m26.463347837669005,-6.6210113994963615 l3.845563520102307,1.5068371635016111 3.722027336446542,1.7336333200670777 l3.4996492989462062,1.9765611190460424 1.7715321069141148,1.3673525628332721 " fill="none" stroke="black" stroke-width="1" /></svg>