<?xml version="1.0" encoding="utf-8" ?>
<svg baseProfile="full" height="109.49251366779208" version="1.1" width="108.37141340132803" xmlns="http://www.w3.org/2000/svg" xmlns:ev="http://www.w3.org/2001/xml-events" xmlns:xlink="http://www.w3.org/1999/xlink"><defs /><rect fill="white" height="109.49251366779208" width="108.37141340132803" x="0" y="0" /><path d="M25,25.00000043772161 m0.0,0.0 m2.5791308283805847,9.475266933441162 l0.46094030141830444,0.1505795679986477 2.442295402288437,0.24395005777478218 l14.365684986114502,-3.4257924556732178 1.0696221888065338,0.11155873537063599 l0.6477242708206177,0.39214324206113815 0.21447483450174332,0.6539160758256912 l-0.6513361632823944,1.1497707664966583 -5.651678442955017,6.174020171165466 l-4.253722131252289,4.166005551815033 m-0.8523955196142197,0.45784439891576767 l1.504591703414917,1.0935292392969131 1.3625256717205048,1.8888233602046967 l1.1857172101736069,2.5736981630325317 0.9739942848682404,3.1495290994644165 l1.1729898303747177,7.5876277685165405 0.02171406988054514,7.113615870475769 l-0.4765056073665619,4.383748769760132 -0.8862780779600143,4.338342249393463 l-1.0443393141031265,3.1605368852615356 -0.716177374124527,1.1564785242080688 l-0.7581435889005661,0.6552919745445251 -1.5589413046836853,0.1467097271233797 l-1.4736329019069672,-0.8364002406597137 -2.0061221718788147,-1.8938110768795013 m-7.413570880889893,-14.662028551101685 l1.6703924536705017,0.6604517996311188 2.013689875602722,-0.5972229316830635 l7.849056124687195,-5.6623417139053345 9.424164891242981,-7.29971170425415 m24.98708963394165,-26.506130695343018 l-0.10568947531282902,1.1272397637367249 -0.7550477236509323,0.7495439797639847 l-5.219804644584656,3.873790204524994 -5.595952272415161,2.8991079330444336 l-6.408445835113525,2.3896656930446625 m9.202294945716858,-1.8877911567687988 l0.26594361290335655,1.1375593394041061 -0.3997538983821869,1.1375593394041061 l-3.9854133129119873,4.7291100025177 -4.375492632389069,4.379964768886566 l-0.33658958971500397,0.6848747283220291 -0.00782566494308412,0.8351962268352509 l0.3443292900919914,0.4877711087465286 1.7560449242591858,0.7168653607368469 l6.119841933250427,3.5879385471343994 m12.33944058418274,-14.111652374267578 l0.3169824182987213,1.1667980253696442 -0.3170684352517128,1.1932849884033203 l-11.983071565628052,11.859924793243408 -9.679745435714722,8.450342416763306 l-0.6501322239637375,0.9624708443880081 0.2860237658023834,0.7498878985643387 l1.0684183239936829,0.14060398563742638 23.776607513427734,-4.734097421169281 m-4.7552525997161865,-6.004607081413269 l2.2871582210063934,2.2396881878376007 2.3710905015468597,3.156065046787262 l1.9094623625278473,3.299850821495056 0.8290045708417892,2.2242088615894318 m-14.937217235565186,-0.2676205523312092 l0.7845444232225418,1.1876091361045837 0.23573743179440498,2.1086297929286957 l0.11536406353116035,11.236623525619507 -0.21530253812670708,6.295790672302246 l-0.5080662667751312,1.3553020358085632 -0.7189292460680008,0.13501422479748726 l-0.8248767256736755,-0.6814348697662354 -2.0666636526584625,-2.906675636768341 m-6.1587125062942505,-11.833093166351318 l0.008908681338652968,2.2537915408611298 -0.4562964662909508,0.9514632821083069 l-4.018780291080475,4.91314172744751 -4.354510009288788,4.4780004024505615 m28.355395793914795,-13.153996467590332 l4.752500951290131,5.292901396751404 2.5926172733306885,3.6328285932540894 l1.2853869795799255,2.2892221808433533 " fill="none" stroke="black" stroke-width="1" /></svg>