<?xml version="1.0" encoding="utf-8" ?>
<svg baseProfile="full" height="107.16520118992776" version="1.1" width="109.4925132393837" xmlns="http://www.w3.org/2000/svg" xmlns:ev="http://www.w3.org/2001/xml-events" xmlns:xlink="http://www.w3.org/1999/xlink"><defs /><rect fill="white" height="107.16520118992776" width="109.4925132393837" x="0" y="0" /><path d="M25.000002281740308,25 m0.0,0.0 m14.871400594711304,3.2964423298835754 l0.6512707471847534,0.21858664229512215 3.1676068902015686,0.226847305893898 l21.11743688583374,-3.479602038860321 1.22726209461689,-0.05576894152909517 l0.7521037757396698,0.3054342605173588 0.2879956550896168,0.5863508582115173 l-0.1659255474805832,0.7873263210058212 -0.6091418862342834,0.9081877022981644 l-6.732503175735474,7.475283145904541 -4.830661118030548,4.682174324989319 m-1.2873475253582,1.5705087780952454 l1.3315482437610626,1.1343713849782944 1.2396935373544693,2.0560266077518463 l1.102084144949913,2.8474965691566467 0.9188926219940186,3.50843608379364 l1.1061416566371918,8.478261232376099 0.0959553848952055,4.708763659000397 l-0.269650612026453,4.849653542041779 -1.385418027639389,8.037633895874023 l-1.0135099291801453,3.1009602546691895 -0.650925412774086,1.0532215982675552 l-0.7037591934204102,0.6284797936677933 -1.497301161289215,0.2401258796453476 l-1.502135545015335,-0.6849393248558044 -2.4686820805072784,-2.0795081555843353 m-24.75243330001831,-28.15589189529419 l3.3589133620262146,0.5708547309041023 4.202181398868561,-0.07183974608778954 l23.74859094619751,-3.129967451095581 17.77976155281067,-1.7262473702430725 l5.836228132247925,-0.17613135278224945 4.566837847232819,0.509258508682251 " fill="none" stroke="black" stroke-width="1" /></svg>