<?xml version="1.0" encoding="utf-8" ?>
<svg baseProfile="full" height="98.70264667212673" version="1.1" width="100.32172772798951" xmlns="http://www.w3.org/2000/svg" xmlns:ev="http://www.w3.org/2001/xml-events" xmlns:xlink="http://www.w3.org/1999/xlink"><defs /><rect fill="white" height="98.70264667212673" width="100.32172772798951" x="0" y="0" /><path d="M25,27.442200145005884 m0.0,0.0 m15.05452212936815,3.534893519335993 l0.4823466651312174,0.1612242325573853 2.871313919619743,0.08763108633165005 l21.742794779460073,-2.297733185766522 3.460879806635706,-0.13636334859776217 l2.2106886099232352,0.2452515035160863 m-32.01720008517668,10.26212485575094 l0.760056303650998,0.8174008685622697 0.4421147917395571,1.4152837924200492 l1.9538611056808726,13.652240697993447 m-1.5339033328461107,-14.825833012214908 l23.83184210870964,-2.5560424456344077 2.8755635641129627,-0.11158160698098034 l1.139675987778598,0.47594477577709604 0.48576024903465587,1.0188509182764354 l-0.18658715008500693,7.3924231589474365 -1.078027383099659,7.2080200348040595 m-25.506715149458294,-5.631475413127922 l18.008926831847436,-2.122517993748878 8.216198139267833,-0.5158915123976202 m-26.130187039819486,9.799595960832018 l14.12160289037063,-1.765585106498041 10.577689663150073,-0.7799378822240779 m-13.767732954891207,-27.770124042919626 l0.6660403049278368,1.2975796639655597 0.2511061345424868,1.966823792703534 l-0.06908958652060047,29.684985419478082 m-20.738451574275903,1.9899547574278835 l1.4380766300325225,0.561064173717371 1.6183863866978205,0.0896971024479381 l35.597389187308075,-2.9097129453041326 1.70387320262058,-0.020164484474846672 l1.8389125925517602,0.37118647228031487 m-13.642238298140903,-5.457190151785976 l0.5420613622762054,0.917342734627586 0.2857558784820856,1.3749733711473981 l-0.06889209246505319,17.48922243859047 -0.4014276148234512,0.9846301240376851 l-0.5140953739148811,0.36225420326787894 -0.6000022896728369,-0.029350593678659803 l-1.3294439292943185,-0.8313251953840021 -2.3537491951041756,-2.3122029787069445 m-12.38409003952643,-7.111583490978959 l1.238160249490173,0.878432596255917 1.8671208127911232,1.753918422637532 l1.4726449592187278,1.8278153793150644 0.6098930156657412,1.169283738100771 " fill="none" stroke="black" stroke-width="1" /></svg>