<?xml version="1.0" encoding="utf-8" ?>
<svg baseProfile="full" height="106.19309228059899" version="1.1" width="94.96834668902727" xmlns="http://www.w3.org/2000/svg" xmlns:ev="http://www.w3.org/2001/xml-events" xmlns:xlink="http://www.w3.org/1999/xlink"><defs /><rect fill="white" height="106.19309228059899" width="94.96834668902727" x="0" y="0" /><path d="M25.40293923932183,25 m0.0,0.0 m21.641110569117103,3.7795024319667383 l0.4195791240206104,0.21203532224932523 0.7592046544831751,1.3063204773677544 l-0.045866377669927016,4.129450706429526 m-19.010177919618528,0.007798204511486164 l-0.8719836363325902,4.255282218640193 -1.764253906479667,4.775642634427948 m2.8357884456097118,-7.554311205229943 l37.61927620194076,-2.3187692920377994 1.7680967104012113,0.06720904422683117 l0.9456232941486423,0.33117965634952146 0.26901029008495975,0.5251674755244097 l-0.8672911899799471,1.3735271340806416 -2.3954681358459853,1.8561385167962834 m-35.35865603731691,2.1227577356485563 l1.8820501962052294,0.06879566023037026 9.803336186946366,-0.6377009251069249 m-12.010840837178618,0.8750331627802856 l0.7947071612474178,0.8791329863201627 -0.07775975490950204,9.281205910721392 m-6.581948357381987,-5.6485983337767225 l2.0916579704274554,0.1670563951290075 9.556810007794747,-1.0870999175446245 l2.2534787856971175,0.02174714836269129 m-14.05842268473266,7.1068330824018755 l1.7308292463335488,0.3955035469442467 11.269467696988032,-3.6260279249783456 m9.23892847107459,-12.460079805603288 l-0.10264461907782352,0.8587651593761282 -0.9189093980570663,1.8554621408482674 l-1.1464868414891853,1.570719416440018 -1.4481909692179378,1.422126798810244 m2.6095671255660893,-3.0363787874180983 l0.9927680353108588,0.06368400877655747 10.338286650028394,-1.0158409904742642 l0.8606075966691743,0.08376563706077776 m-16.039165656278,5.908884197572058 l2.9880571351331935,0.027150476408168808 11.798026191754598,-1.2717938489501381 l4.72061686255542,-0.01388694797875301 m-10.333560779502657,-2.4147860450664065 l0.5371141553671573,0.9039628008010455 -0.07809578481117585,8.305048556391187 m-6.348222707291496,-2.7537636923251276 l0.39701811409210536,0.6943817653916832 -0.27495725953355776,3.3449841935226012 l0.3658573770731847,0.1686325833584411 7.620793932837724,-1.569196625776702 l4.742958653612869,-0.5735294927299309 m0.24535365479674387,-3.336482625359525 l0.4067773188548747,0.9139832072697274 -0.42527661515238224,3.584176895635911 m-26.32043483229003,4.462219166920667 l0.5589631088216074,1.6700163788862032 -0.0034406149098495896,12.137870636281963 l-0.2622076088404811,5.505387442185133 m0.8561423812763321,-18.40607202071317 l20.521439939917123,-1.8919582865689668 1.4152335053888632,0.09005650392331116 l0.5034988100645891,0.40229082087459495 0.2777569722960184,0.9959585245780437 l-0.4363026012857832,17.97809892767426 m-22.785589260740185,-12.258183291233626 l15.09857630192387,-1.225974819227153 m-14.951246637847243,7.05582313729357 l14.560135049369642,-1.1480571668613166 m-14.881422248526365,7.183177502622644 l23.030692750215024,-1.4415888263240795 m-17.627953329038554,3.4109200822229213 l0.07407375726941938,0.46391437114641915 -0.46896503517145616,0.8809277591819334 l-3.231900319130004,2.5916278413969107 -3.6773622558613286,2.3202207338202703 l-3.311434712128241,1.4916160341029796 m21.399673596149206,-7.459171109886514 l6.592922894432107,3.276680896130927 2.939137494109372,1.9076824971535993 l1.76126241147691,1.542033804749854 " fill="none" stroke="black" stroke-width="1" /></svg>