<?xml version="1.0" encoding="utf-8" ?>
<svg baseProfile="full" height="94.69761372982848" version="1.1" width="100.65737621470694" xmlns="http://www.w3.org/2000/svg" xmlns:ev="http://www.w3.org/2001/xml-events" xmlns:xlink="http://www.w3.org/1999/xlink"><defs /><rect fill="white" height="94.69761372982848" width="100.65737621470694" x="0" y="0" /><path d="M25,25 m0.0,0.0 m28.541782655662693,3.7771892396173676 l0.41394669445458165,0.37018792183466837 0.656369883542953,1.5996293312179493 l-0.06928781875730529,4.872730416028013 m-20.280999005952303,1.921396650963787 l4.276934135483971,0.14499358650991045 30.692577542552506,-2.445629717495315 l3.68822538848235,-0.1380887914464494 2.737826739237489,0.2894917899195035 m-23.811447620203964,6.256781563262408 l-0.11855713660417613,1.1251617368548543 -0.4852504317451878,1.3438012455725445 l-2.623388467314161,4.348729215539017 -3.8161003906087934,4.487384891507944 l-4.731986355874634,4.590267907756352 m9.765286062460934,-8.066833785330822 l0.5627163175417217,0.873562863214671 0.22619069116882662,0.8888844500771012 l0.21542564990212695,18.07567095660726 1.513756007052172,0.3823022576177025 l0.9298493284047594,-6.574738141535588 m10.776398875692474,-17.156860324618115 l0.006524151379810161,0.38696662742640364 -0.5087410950299073,0.8165039579915992 l-5.435629107009923,4.245755257637724 -4.077854722825657,2.69362057691357 l-5.153388283319926,2.757070541209768 m16.119523948291317,-3.988136778278375 l0.017408944570753027,1.020298478732476 -0.5678613865626294,1.268164026204395 l-1.9136812370417902,2.534649391378734 -2.528485027200747,2.5341132522793153 l-5.735991360764084,4.527923718108255 -6.69575558606732,4.0448400829940585 " fill="none" stroke="black" stroke-width="1" /></svg>