<?xml version="1.0" encoding="utf-8" ?>
<svg baseProfile="full" height="102.42379694286977" version="1.1" width="104.64479982706143" xmlns="http://www.w3.org/2000/svg" xmlns:ev="http://www.w3.org/2001/xml-events" xmlns:xlink="http://www.w3.org/1999/xlink"><defs /><rect fill="white" height="102.42379694286977" width="104.64479982706143" x="0" y="0" /><path d="M25,25 m0.0,0.0 m29.28638871510228,1.948939272638971 l0.42269104096044635,0.398388302959227 0.5677284007362635,1.129482573810522 l0.06418424225858407,3.9276140091873533 m-17.326201067767034,1.9399338110379594 l3.7918876178311187,0.12329002608465318 27.880918601849974,-2.478058010189878 l2.836706420249201,-0.05160919527822019 2.659945059674076,0.28604219163367944 m-27.908483450025205,5.869133860135831 l0.35654134701426327,0.7136550766137779 -0.2177184412953394,0.8418612958761249 l-3.150935895702575,3.731348229332834 -3.506803441271134,3.5327496953698954 l-4.272463120524718,3.6119734130077097 m10.244232549833333,-6.548883909208035 l1.749526932477794,0.7787268362969078 1.8862907117731056,1.400208491440448 l1.6447021410456124,1.7423789275778017 0.8785423797976638,1.5862459372513056 m12.26334546177606,-11.35775835025891 l-0.25984737133837515,1.5207153967475207 -2.263290042350198,3.58154094331996 l-2.421450907089667,2.947585242688627 -3.2423316187297315,3.0982207225530654 m8.516330967579815,-6.1019524183138 l3.3084850150552123,1.4085178670257474 3.102772402852908,1.784109353876913 l2.648484855105732,2.026376611137911 1.785251602965175,1.8987317995528825 m-44.047088622529245,9.513136563422592 l5.181096275564295,0.3471554951382118 19.906186155947083,-1.408912718798117 l16.13853275499184,-0.8216250118390933 3.5325516016410687,0.09298859941046644 l2.608090551601761,0.49812566305595973 m-24.825873394162404,-5.705179277293175 l0.8232382382533788,1.3126691325109323 0.17328241592312696,1.1811632750718373 l-0.08506269143800854,22.124767218281374 " fill="none" stroke="black" stroke-width="1" /></svg>