<?xml version="1.0" encoding="utf-8" ?>
<svg baseProfile="full" height="105.66795663595293" version="1.1" width="112.29864714351996" xmlns="http://www.w3.org/2000/svg" xmlns:ev="http://www.w3.org/2001/xml-events" xmlns:xlink="http://www.w3.org/1999/xlink"><defs /><rect fill="white" height="105.66795663595293" width="112.29864714351996" x="0" y="0" /><path d="M26.925080123345275,25 m0.0,0.0 m30.422575933046353,1.0874813981105504 l0.4086180017710112,0.4237998715248388 0.4748545750641407,1.1743065502257681 l-0.0158846391273026,4.513586304179958 m-19.92719417204955,1.9732481157588404 l4.69360024104086,0.08895635377912736 30.266498165013264,-1.7170915727983451 l5.3981341265132485,0.1616719589749114 m-33.81850759692755,3.513739056214529 l3.4035703571700417,3.124346668972673 2.3891160561762406,2.7836506227760207 l1.4857079267588496,2.3976698507980037 0.7378920208786229,2.324063768756756 m17.898260718125847,-11.433679792633244 l0.17219081104165262,1.0909420058068389 -0.5575193853363449,1.5261137021455755 l-4.627177122457064,8.270668524298905 m-32.01073073145262,2.968258081099232 l4.98400515845125,0.21923264884056667 23.21954691847234,-1.514908837355425 l15.123287310356154,-0.6883436637891678 5.735393652043117,-0.12032676927111935 l4.517328695602116,0.26441287651509193 m-45.1564283522168,8.464794029276641 l0.6576793977986476,0.6326215042137459 0.4005756484747006,1.0167859723361283 l2.501114738404982,12.49738171085319 m-1.8860450575201027,-13.241147722613906 l27.101299570485953,-1.9397934654617568 2.9852990853055554,-0.13053844426657818 l1.4188423505318375,0.17625090323547213 1.0994021999363564,0.6617967038620565 l0.25896180920064366,1.0829158790168698 -3.318583925906289,11.28050535697338 l-1.6207198413199648,3.5067348789849815 m-26.767207357472113,-14.262709010911708 l0.896373717022955,1.8805869956738777 m-9.883972420554198,4.493581857766074 l20.482888293633547,-1.184673781697504 m-20.155660646771192,7.40022464411793 l16.445326495789075,-1.1684595808568983 13.002686089443452,-0.5869420993249255 m-24.334049777440153,4.148711978778286 l-0.010254288784924907,0.7465422472023523 -0.45184744108727865,0.6752769466838691 l-3.609153478547161,2.045755656071115 -5.1701164106157265,2.2615139309745844 l-7.185057541311754,2.7784418221347766 m33.87052408724669,-8.925621354910872 l3.8675412414525616,1.6876424390717142 4.062527380520026,2.264794917619295 l3.535941824196569,2.478157356570484 2.356586723425129,1.9263407637474146 " fill="none" stroke="black" stroke-width="1" /></svg>