<?xml version="1.0" encoding="utf-8" ?>
<svg baseProfile="full" height="91.52138727035472" version="1.1" width="107.07548836256021" xmlns="http://www.w3.org/2000/svg" xmlns:ev="http://www.w3.org/2001/xml-events" xmlns:xlink="http://www.w3.org/1999/xlink"><defs /><rect fill="white" height="91.52138727035472" width="107.07548836256021" x="0" y="0" /><path d="M25,25 m0.0,0.0 m28.06142067993552,0.7297353925788727 l0.41563438601565794,0.2608329017863998 1.4983727944245535,0.9597535449983281 l1.1410822550351676,1.1785356954889092 1.6215376968985533,2.6347010652269485 m-19.944757523102552,3.4486802136504084 l-0.7922017400923762,4.396370396211815 -1.6555848596943552,4.947677683242303 m3.42280433774924,-8.265943240909486 l30.275830409039703,-2.6440414735582927 9.358636266925693,-0.39341631459296345 l1.056505304982282,0.3582844105881719 0.3478609428788392,0.5737164320838243 l-0.13895069882325578,0.726432920299599 -1.184863988016201,1.6677932203668566 l-2.2731628403473736,2.0644994568370802 m-27.280776187264728,2.2372166694325215 l-0.25553439788785104,2.701988912776856 -1.9878361918581613,4.756899641280258 l-2.931838386893879,4.8668650682042776 -3.7261027692230497,5.0179116330464995 m7.275790749922979,-8.445894250946473 l1.4586112764777965,0.29859718118285034 1.6620870092801776,-0.1379559723191361 l18.95442132514649,-2.7912936672482607 1.5284383842162401,-0.12293825381680461 l1.2173936698488248,0.17811685142041644 m-34.029125700643974,15.115452176434916 l1.610234508621748,0.21647531751393737 2.50271659663909,-0.07357166736981945 l30.533768712490883,-2.6173837775734436 6.447305336983367,-0.21209714616266231 l2.8857710028951753,0.2488138643226884 m-23.593562483747725,-20.029316351965058 l0.9552837540321871,1.2385723205818049 0.40684870861440986,1.0774063129696125 l-0.1557299995885133,25.35391010429097 " fill="none" stroke="black" stroke-width="1" /></svg>