<?xml version="1.0" encoding="utf-8" ?>
<svg baseProfile="full" height="99.13222847989695" version="1.1" width="114.75054707687299" xmlns="http://www.w3.org/2000/svg" xmlns:ev="http://www.w3.org/2001/xml-events" xmlns:xlink="http://www.w3.org/1999/xlink"><defs /><rect fill="white" height="99.13222847989695" width="114.75054707687299" x="0" y="0" /><path d="M25,25 m0.0,0.0 m29.681272345879517,3.006601070172913 l0.44209387059754107,0.36130584231948526 0.6212306714656008,1.4091220663802573 l-0.012553586480104729,5.082710423477856 m-19.450853799259992,0.4104901206552573 l-1.0067485670047531,4.575133993956146 -1.9068089707398268,5.0071107051543144 m3.3595557518946917,-7.614410556211683 l22.713977496620494,-2.2823816745116146 15.861019769534993,-0.8667150089183567 l1.7199773513881658,0.10062774674496658 1.0996315695164998,0.31065418438213616 l0.5153746004411771,0.49533754503376703 -0.4527192967671079,1.313572892029668 l-3.488082062223166,2.67875218980462 m-22.751421519294624,2.3785170818759283 l-0.11398002506130794,1.1015288530779677 -0.47164896936465195,1.864750526756871 l-2.8927877832452555,5.068926093917799 -3.3484668622564184,4.108011930596836 l-4.297263977144671,3.488660712607322 m11.216094481890817,-10.294555189341063 l3.265482387804479,-0.2803572152943883 7.566572483149073,-1.606524457601685 l1.2211711984606126,0.11198510073131479 0.5001941409240407,0.38842333872918033 l0.11652609906760289,0.5950229977656072 -0.2648466578754886,0.7215263313883586 l-6.1795219862778765,9.342266074066112 -3.412847090727228,4.058302223431035 l-2.904969173779124,3.0597604708646644 -3.1580906441073333,2.919069073760041 l-3.380858410739885,2.697683862040582 -3.648655407666006,2.4124109935145244 l-3.8300285391739863,1.982995911826009 -2.8381596581241624,1.0259122247141992 m11.199286740169994,-20.898504093562035 l3.6250287344394674,1.9844699534223915 1.7304802665426093,1.3554910130654152 l0.8855659503762627,1.0194051778664326 m17.685705830010217,-26.63527732005655 l0.8378175840332778,0.9365874301947836 0.40468236174743666,1.7332069108203947 l-0.0869317358772826,37.97875926809893 m2.458032918224345,-28.28187310624589 l4.754202460564148,1.89666954224646 4.707198330429347,2.7214603009921645 l4.1758262137935995,3.0358055772709602 2.2847901910972492,2.398280566407187 " fill="none" stroke="black" stroke-width="1" /></svg>