<?xml version="1.0" encoding="utf-8" ?>
<svg baseProfile="full" height="99.90893357348449" version="1.1" width="98.57444458363547" xmlns="http://www.w3.org/2000/svg" xmlns:ev="http://www.w3.org/2001/xml-events" xmlns:xlink="http://www.w3.org/1999/xlink"><defs /><rect fill="white" height="99.90893357348449" width="98.57444458363547" x="0" y="0" /><path d="M25.826061324190892,25 m0.0,0.0 m23.308973664765162,2.675154934193756 l0.4101631504830729,0.44443789269440354 0.575680256167326,1.8461309239544772 l-0.05310478294248508,6.064400053559334 m-21.926896202604443,0.740756318861945 l-1.0614843150623365,4.898774669158214 -2.0793930949971897,5.882139518292719 m3.7293347222298356,-9.43981222049683 l26.202769444260728,-2.3492434167180445 16.893221468979956,-0.8573484604382084 l1.1171325195506483,0.27240156474734817 0.4908371661517477,0.4661924922415944 l-0.029225798108676974,0.6651820187534944 -1.0118371958989776,1.5186862434308375 l-3.3174811002039175,2.928119001466957 m-22.093727303185712,15.909842411634136 l23.017245378742075,-2.6332310040567823 3.1579050641142246,0.049164862143329886 m-22.732363056846875,-9.588691774419658 l0.7184681654441413,1.2096373942828704 0.22479983171728343,1.2712243533664087 l0.2560156653628734,25.93008525427388 2.0918717160542433,1.4698047774693694 l3.815425006827841,0.4772986119685362 8.740497637017771,0.057827153120397885 l5.258713265213905,-1.1913131949969196 1.3726231478132958,-1.289864248500359 l0.6722188383990599,-1.7551393361737369 " fill="none" stroke="black" stroke-width="1" /></svg>