<?xml version="1.0" encoding="utf-8" ?>
<svg baseProfile="full" height="111.23834954727256" version="1.1" width="103.59943481579913" xmlns="http://www.w3.org/2000/svg" xmlns:ev="http://www.w3.org/2001/xml-events" xmlns:xlink="http://www.w3.org/1999/xlink"><defs /><rect fill="white" height="111.23834954727256" width="103.59943481579913" x="0" y="0" /><path d="M25,25 m0.0,0.0 m28.31590513397286,2.2234871458150716 l0.44575838107715315,0.46017832182114426 0.49707614707645237,1.1507858280749739 l0.07784090517431733,1.316257078634396 -0.04865510002336621,6.467208953347759 m-18.885852206883296,1.5090729209823628 l-0.9641979579944333,5.96415239816369 -1.830628521004965,6.672443888074657 m3.2859238052547517,-10.548500851251141 l21.550638422977634,-2.867220381557064 13.201158701056551,-0.9323630264859989 l1.8991210730668695,0.1414011025571439 1.0618273849443791,0.392536959638454 l0.4791533074144867,0.5831049971049238 0.023746190290331683,0.7462305755184667 l-0.9420317797398734,1.798549231834227 -2.7674476088077897,2.880903424581341 m-26.880507857986597,4.6011922057118335 l-0.0551114117723289,1.0478690955459475 -0.4857325870701286,1.1578279696507248 l-2.825717406615521,7.457508032234788 -2.30705067866532,4.631357570256121 l-2.8718925596303713,4.055710459091765 m8.454263143147491,-21.9595182756301 l1.7206732944022034,0.5321141625200365 7.4638818434420156,1.5239596669162394 l22.38420615370734,6.688389329762616 3.6030866049882797,0.5119545456251327 m-22.03588995280994,3.5667011352155 l0.5137571209551992,1.2929443554897215 0.16000910159645929,1.2145407071622945 l-0.06998219565979132,25.286633910670293 m0.4285674369925276,-15.593810312229358 l10.469358357594837,-1.4203051290846036 2.2621175917037974,-0.2937772795240986 m-26.130051878912454,0.2767618876249402 l0.530538372258304,1.0325904348378894 0.27738098275837425,1.4738629160565488 l-0.024586833141478706,14.732001706263814 0.7548754354060392,1.2319785588131895 l26.05506837917661,0.05077058437599163 3.3441783916465693,0.18086274306092429 " fill="none" stroke="black" stroke-width="1" /></svg>