<?xml version="1.0" encoding="utf-8" ?>
<svg baseProfile="full" height="102.37999168010842" version="1.1" width="106.57941693712667" xmlns="http://www.w3.org/2000/svg" xmlns:ev="http://www.w3.org/2001/xml-events" xmlns:xlink="http://www.w3.org/1999/xlink"><defs /><rect fill="white" height="102.37999168010842" width="106.57941693712667" x="0" y="0" /><path d="M25,25 m0.0,0.0 m31.207881924230872,2.1827930763913836 l0.43084466674222166,0.42482182187066214 0.49501403306045283,1.083098780156413 l0.10012336591378526,1.275612787517066 -0.05549173682406026,6.425511037241597 m-16.932478560479247,1.5150239653653508 l-0.911983543197146,5.576942511853208 -1.8108745186731074,6.327549968344683 m3.19421038870401,-9.88620913074429 l19.401367606030078,-2.8734048928309384 12.454494768858062,-0.8996219631851234 l1.6733404061496409,0.27099203990121307 0.8274019349480302,0.46714977928874785 l0.3051731800146257,0.6411523043418766 -0.624514383991663,1.6190211678897637 l-2.795533718414434,3.015408398233521 m-24.293705810314243,4.038504547388036 l-0.12276945553497574,1.6407530580113168 -0.46633568566722866,2.2350460492924173 l-2.408259765527229,6.212643248414356 -2.9736613942622614,5.016866508185132 l-3.403967943628725,4.029642347176423 m8.974685215715855,-22.80505780079486 l1.4829522627146534,-1.5269727262126975 5.713839590114525,-1.6095165962225721 l2.1655262386034684,-0.04267319076471387 0.332200874366527,0.26921933826154876 l0.2546173892939364,0.5901855376696128 -0.023271320333732467,1.6040705084868891 l-4.311871907507678,12.373372444430201 -2.4857957786020157,5.4579717051169245 l-2.06888741906779,3.8749712639962928 -2.364147364342341,3.7498773563424175 l-2.5606834043904705,3.3734465231167534 -2.7915688214629832,2.957386689778395 l-2.947747919010094,2.42225363230213 -1.9970714472278495,1.352159584499278 m8.411843428382332,-23.72128798832722 l2.9921678190866885,2.4291591920074436 1.189350566227015,1.4041529901805876 l0.6849706076842755,1.277802261968739 m12.42651373445644,-18.40443149377656 l1.4781625805893506,0.15766495529479987 9.788324396828934,-1.9933322301148004 l1.0402496260531349,0.1422169463720306 0.8619068951584126,0.8979922223539922 l0.216014694135791,1.625860529479302 -0.6087177194781491,4.0863076211919305 l-1.3065783313458734,5.972921394639033 -1.467971437051966,5.292617248420679 l-0.5768084550612499,1.535030743054057 -0.6142966312857533,0.697682667680279 l-0.5983501776005969,0.03648312087545615 -0.5845886676319286,-0.3689585129530784 l-1.0252053713954017,-1.2900655234148095 m-6.149605098936007,-17.694493423392057 l0.5774854225274795,1.5112310803000566 -0.02222211811872804,2.03475841995055 l0.2038773662078902,25.94142221644267 0.5977746797371352,3.0446185523880733 l0.7872857703671422,1.3963868092991778 1.9186267013188851,1.0281800070485985 l9.829440863703459,0.3080087094787506 3.329494744913726,-0.6320654055580768 l1.219224069687107,-0.8255357673448114 0.7962431611317398,-1.3136004518112558 l0.4004418691017845,-1.8236388706452116 0.12131000073212696,-3.3577787534923034 " fill="none" stroke="black" stroke-width="1" /></svg>