<?xml version="1.0" encoding="utf-8" ?>
<svg baseProfile="full" height="105.05443972712882" version="1.1" width="111.62673359483111" xmlns="http://www.w3.org/2000/svg" xmlns:ev="http://www.w3.org/2001/xml-events" xmlns:xlink="http://www.w3.org/1999/xlink"><defs /><rect fill="white" height="105.05443972712882" width="111.62673359483111" x="0" y="0" /><path d="M25,25 m0.0,0.0 m33.80272964901502,6.489997490540597 l0.4313007480181064,0.4229302521284895 0.7018038612652284,1.3973928157663522 l-0.01894140470268343,4.64811218201314 m-23.815459192334856,1.3164995594506872 l-0.9810749341462508,4.569039163674588 -1.960299622188641,5.181887676149933 m3.5968919782045066,-8.272285546233773 l28.788527711009632,-2.6583281030343233 13.066040535967263,-0.8030568851560512 l6.256899717678557,-0.14753492767495985 1.2778051349318598,0.3295212577877395 l0.4805094121133697,0.5384389600058238 -0.11233284944486464,0.686179862546115 l-1.3288094396553292,1.531250053603144 -3.025870339320723,1.9313337871448517 m-37.10972031144914,6.337941649550693 l1.0949767728782194,0.16331039010159787 2.0135058305954767,-0.027114866688733332 l21.28383023280003,-1.8681478361935848 2.931809417720427,0.08735873778240748 m-34.2725804000911,11.577960840448542 l4.372827891119802,0.16217985843018842 31.76488033812263,-2.608470760841496 l4.938735608506909,-0.1458255427722493 3.636072040854129,0.3141656682424056 m-23.932016861850165,2.91626236933316 l0.7057643036676865,0.9402600261852052 0.35248605917325126,1.749320257835973 l-0.07597669592653342,17.08886838656565 -0.3416150404503913,0.866508639234361 l-0.5514812095646128,0.3384843112023576 -0.7194265326936655,-0.11389137134941997 l-3.5220119992513843,-2.4908835677153176 m-10.363196873330768,-11.65778940699656 l-0.35708259648636953,1.6747703816154862 -2.6891765498413283,3.118800493372832 l-4.028499696003413,3.6653950370543096 -4.773659509150738,3.605932325288517 m39.19617968541867,-12.78809885492846 l4.261252866107088,2.6119457980316674 3.558126515636245,2.8320983270810927 l3.0895252568949907,3.1580199101264164 1.9912507886986337,2.7815361916310657 " fill="none" stroke="black" stroke-width="1" /></svg>