<?xml version="1.0" encoding="utf-8" ?>
<svg baseProfile="full" height="108.0484934096709" version="1.1" width="98.73951678949038" xmlns="http://www.w3.org/2000/svg" xmlns:ev="http://www.w3.org/2001/xml-events" xmlns:xlink="http://www.w3.org/1999/xlink"><defs /><rect fill="white" height="108.0484934096709" width="98.73951678949038" x="0" y="0" /><path d="M25,25 m0.0,0.0 m21.962245803229415,10.05599865728 l0.003234747386319038,0.42845381648441094 -0.4069524368725493,0.7528041742028109 l-1.1054484757329222,1.083793391934658 -3.6632396587666176,2.65336701123677 l-4.419619042031338,2.2402502859243842 -5.334691160513974,1.919590063430276 m-1.7926282603490153,7.533218033995525 l1.453221793469795,0.3322052553762784 1.65173221677263,-0.08976341568398244 l16.192471076707136,-2.1822304644458637 1.5031375293768536,0.03841332045446349 m-8.378225827235678,-7.383255807577951 l0.8015506812862772,0.8916297136324075 0.39731623633093377,0.9395963278719106 l-0.04097151326048999,35.07930653777837 -0.15736854372928713,2.3938230923613366 l-0.4939372502938259,1.1626978509756418 -0.7120945602343517,0.1985955644394468 l-0.8155970697590978,-0.4303323310924171 -2.229694713796501,-2.3151744757921335 m3.6225966980068494,-27.3939162870455 l-2.7747006975279165,5.442025735524055 -3.1249627075220943,4.893428708762639 l-3.2999386905328736,4.073950996364334 -3.1803743701391882,3.076811838537441 m14.02924030850234,-14.398253718380648 l2.492676376993953,1.799625377264027 3.1139700211785257,3.437604630656715 m13.096561264952964,-20.37535879553077 l1.2085159220181767,2.0907006855707584 1.2017419850748157,1.3448362225780714 m-9.487269764923548,-6.305397405658977 l0.5262563190257158,0.4687615911891824 0.3339684179097881,1.0397754936424173 l0.014426011795596471,8.04410291183254 m-6.7540913843576655,1.0134795831250463 l2.5182301948141492,0.10133001841205695 15.45490160992641,-1.9126617842821816 l3.051788218294861,-0.0016945987868765844 m-11.132547137047423,2.748383634511194 l-0.016120407605789897,0.750384105248707 -0.45131180997602754,0.8852598385460366 l-2.7943925677564327,3.4219151148401963 -3.000888422990402,3.0163488906487337 l-0.5442324343752616,0.921697485138415 m4.444756294684026,-9.997142862504187 l8.245042598380795,1.0872911477141034 2.6701177962960876,1.0877054379575535 l2.041490964423434,1.1553697459602867 m-19.096229317920542,5.135100881435673 l0.6082175035484465,0.1092439934838414 0.8020239268181285,0.019651777208659234 l14.949754471174025,-1.36553513117099 0.39947271065202533,0.10587009162586246 m-20.21657851544067,1.4997917314860054 l0.33659131166205314,0.970635043400281 -0.23436026239388694,6.385774958244405 l0.685943501806221,0.6389984956370334 15.243825425541333,-0.8750017964440188 l6.796181186276736,-0.3586370708635529 2.5447826682589128,0.16507004253922772 m-29.500084699107155,-9.70546183709084 l0.6882284752613451,1.1970095022787934 0.10777288838944336,0.9821103234149038 l-0.2970325984182718,9.93627806850156 -0.63702569787934,5.47881944024527 l-0.8688809692030071,3.24901645405954 -0.983291348979447,2.304532372403527 l-1.2555726585299603,2.052369689474366 m9.473996876699617,-22.77108495072313 l2.08611732883868,1.9061019389912017 8.021926972243097,2.3029483320556525 m-14.450376568679703,4.683291194548935 l2.624542398234487,0.1413541882366509 12.36995740537225,-0.9915054067904058 " fill="none" stroke="black" stroke-width="1" /></svg>