<?xml version="1.0" encoding="utf-8" ?>
<svg baseProfile="full" height="108.38946284484676" version="1.1" width="106.5797625623361" xmlns="http://www.w3.org/2000/svg" xmlns:ev="http://www.w3.org/2001/xml-events" xmlns:xlink="http://www.w3.org/1999/xlink"><defs /><rect fill="white" height="108.38946284484676" width="106.5797625623361" x="0" y="0" /><path d="M25,25 m0.0,0.0 m27.03071398993848,3.320016255677652 l0.4614214879674598,0.2216237972279152 2.8927549741104084,2.5500183124759968 l1.6721059508363516,2.781855693606099 0.5421363708693485,2.1315809522261078 m-22.11433318392805,5.93547427367473 l3.1774095598302097,0.38532710641258966 18.909034881954238,-3.2398255381302823 l12.626624166485803,-1.6240360824634177 5.027995425551633,-0.26369721273475416 l2.0472264140448435,0.5253187140469876 m-23.75470373173484,4.175257578548447 l0.7434376213426244,2.121580323991823 0.07711923258328275,4.703854555060988 l-0.18224719971365871,10.416634185353733 -0.7326211859930646,6.030255163805931 l-1.1408834763063609,5.423970416070492 -1.804966570096311,5.237212527304911 l-2.4092236295574607,4.591350211125183 -2.3859112880876165,2.965691611565631 m18.694356679118503,-46.581093229953545 l0.7260655226210617,1.3204383323924485 0.23649956805908368,2.350489647429015 l-0.2419090070012527,37.43153746055369 -0.34004599788357603,1.3308625572592152 l-0.5090606684961693,0.5345176081057714 -0.6464692757133651,-0.09369965236919651 l-1.4788056719466491,-1.2764061975235492 -1.6114023917635862,-2.0332719984898446 m-13.711802273366917,-25.84260071580012 l-0.015816217501528392,1.7609708613671473 -2.709321492902264,6.901380696032545 l-2.4976938437701084,5.035573157531672 -3.1648830772843666,4.819154022108143 m36.04134173658968,-17.141433671227915 l2.0845869506054946,2.5266095519776233 2.354433844374724,3.942306512954634 l1.825091707066619,4.115411977521884 0.8615066614333925,3.0593858314540303 " fill="none" stroke="black" stroke-width="1" /></svg>