<?xml version="1.0" encoding="utf-8" ?>
<svg baseProfile="full" height="108.10614191436727" version="1.1" width="95.76371547502984" xmlns="http://www.w3.org/2000/svg" xmlns:ev="http://www.w3.org/2001/xml-events" xmlns:xlink="http://www.w3.org/1999/xlink"><defs /><rect fill="white" height="108.10614191436727" width="95.76371547502984" x="0" y="0" /><path d="M25,25 m0.0,0.0 m8.50339384509672,14.074669530674923 l0.5045173532331905,0.11944491925836258 2.8921819080579017,0.09621825483836044 l24.128992734067474,-2.1441407825731726 3.70310407426197,-0.14403229769673956 l2.5573818520014884,0.19404619105286397 m-26.531979007510913,-3.7934457054448054 l0.838665303016363,1.237851524903157 1.229552139630841,7.453685593005673 m13.410131234090361,-10.123299650728127 l0.1393900788111007,0.916395763218695 -0.16256062303502164,0.9710605432865463 l-2.3754405027391847,6.82567870717951 m-15.866510473543268,3.891844974825931 l0.670254473813134,1.3090882820614604 1.2963829318650106,8.928530639818716 m-0.8800738361936017,-9.602454438593858 l17.064468946634562,-1.810791151457516 2.315878641348794,0.17941625398136293 l0.672891050928558,0.7347306451879283 0.09555762191527058,1.5361982127048612 l-1.8895234689055052,8.007429430971863 m-17.567281192508236,-4.217494184943209 l18.405945714952992,-1.47132271046395 m-17.61292867515262,5.89557590605619 l16.532283617139527,-1.1969088564818626 m-27.00429983225043,8.72271507244618 l1.9961336413928887,0.1862672275446487 2.045582408005178,-0.06935362515870905 l29.618008768341237,-2.463373087725985 5.170908042404664,-0.10245038974777301 m-23.778366395321864,-3.8697200037738564 l-0.16164725543886665,1.518572427764972 -0.6527522548633109,1.1403183369805336 l-2.5795897760477997,3.7920549599485858 -2.7901008856655634,3.4168858556834056 l-4.791617563833845,4.85436926487216 -5.587086508836219,4.204188950790562 m23.704750384739874,-17.1243430109156 l0.9606772969163,0.41914062585030926 1.8425091905639046,1.5423593163590001 l11.452092114257415,10.377346807113167 2.1372096695163143,1.4951196009684526 l2.1066286898730513,1.0356981069227038 m-30.077301180926597,-3.5742491701635024 l0.5050853715107386,0.7711849064547439 0.24561774925347282,0.9636099317937648 l1.3081906490574426,13.00182421571637 m-0.8802707402235235,-13.834131967143408 l14.634771951553162,-2.00787312386582 1.7066656980235435,0.28826214455792404 l0.6233351130488163,0.8636811728070368 0.0681354265572871,1.4421298872547017 l-0.7842981823640135,6.63222264395626 -0.9781618083471575,5.386979732137844 m-14.8121759741591,-6.748699562008822 l15.556652707636971,-1.6678067422360612 m-14.859672808175356,7.836998836532275 l13.830137277282137,-1.3052490013945008 " fill="none" stroke="black" stroke-width="1" /></svg>