<?xml version="1.0" encoding="utf-8" ?>
<svg baseProfile="full" height="113.07804500206205" version="1.1" width="104.36802553403672" xmlns="http://www.w3.org/2000/svg" xmlns:ev="http://www.w3.org/2001/xml-events" xmlns:xlink="http://www.w3.org/1999/xlink"><defs /><rect fill="white" height="113.07804500206205" width="104.36802553403672" x="0" y="0" /><path d="M25,25 m0.0,0.0 m14.79309498123784,4.071228684629706 l0.5805687281901214,0.511538117376706 0.4767732127303271,0.8360670441432944 l0.05017348754035192,12.585490701112182 m0.8814096160831026,-13.947382363659054 l11.164205530045061,-1.346381257729017 1.9326466492300516,0.017251367893958827 m-13.447543674771097,5.799298270832038 l9.867243263997395,-1.3846023810300148 2.384605849877033,0.02599747178280387 m-11.9806032783581,5.414176791202641 l10.056791034653513,-1.2448168632317727 2.105176877105328,0.042984596059892015 m-20.956167525475948,6.345465248542488 l1.6598979543967334,0.08515559724224939 2.7077761308206787,-2.4748038043194684 l11.22257673284196,-2.940815823096879 m-7.192831864512577,1.4688034006063038 l0.4726761060042296,1.2677651533620526 -0.29152481222690246,10.68446333676467 m16.23199670180875,-6.543213371610125 l0.039096382655697204,1.022158927069674 -0.26208515360818924,3.1859748956647436 m-9.618026161843096,-12.108999615342913 l0.24897680903734815,0.7337958777492207 0.06600568674025181,0.8063060212079035 l-0.7997262569244401,3.6541403223030002 -1.1699582146195813,3.045237233460301 l-1.4133517259633968,2.5658823605095575 -2.8221099108701297,3.6024465624277338 m5.388261636271206,-7.802181859525648 l4.919514388602331,-0.20136849853752253 5.249228548179281,-0.9004126845510572 l0.9686121901650199,0.1382690868830945 0.37966704724092126,0.3926995927551612 l0.01704882901445682,0.5490572789374657 -1.215900507630245,3.4668502192330033 l-3.3172573211057848,5.805336940965535 -3.4434298532975087,3.768588374173823 l-4.1224074838434825,2.9853078614139594 -2.7079643288494464,2.7352319322992513 m2.9055746966657496,-12.57706271393711 l2.5964543894306336,1.839314442381747 2.663311773466165,2.411881239217747 m15.38051914299933,-23.45366955479504 l-0.08372538453469339,1.1241956163760147 -1.9091212334576895,2.0577174674729757 l-2.5617965928597655,2.1523736398662483 -3.0754187516046527,2.1263774577340797 m-0.536180708756151,-7.21467793672081 l0.4449961572230477,0.3463475909434411 0.2735309776906353,1.3368856261447464 l-0.05410849635441218,9.32463846958846 0.27284697662667673,1.1117630078712475 l0.6316697822125468,0.7668901427425135 0.9208113466075454,0.7033759262547314 l1.6919221995304772,0.5019491133577791 3.8095038924753357,0.06350494908922334 l2.635585154583751,-0.29520210038829114 1.358387818240686,-0.5608388612977331 l0.8481375431205914,-0.7908492006657742 0.5098917479995854,-1.0154639673168966 l0.24800033766821483,-2.200512798975386 m-3.5889539850993795,10.473315294163767 l-0.022633700137672037,0.6030105597860591 -3.3269980242039976,0.5047371258184875 l-5.437457742022714,1.3056363010426657 -5.756920099544428,1.0274773389848109 m-1.7339104410777295,4.938157777718741 l2.4422724561607514,2.292851822878721 1.4712775024178117,2.2625288606769622 m13.409300050455581,-7.766638233238015 l-0.06356535969398554,0.8134187862406655 -0.9763887438807486,2.0622480430313286 l-2.94787080887023,3.7876319425786176 m-17.13096951296364,2.790785953985677 l2.7549569199358412,0.17607973179327738 19.951075699318217,-1.952595156901163 l4.691438967217044,-0.20385697159011232 1.9345042142322817,0.1932920572939159 m-16.422091582464418,-7.568450127639582 l0.5462477576842382,0.7388236352240148 0.2543453486695147,1.2149252870796745 l-0.11633493670977009,19.78895114613359 m-1.7417945562348986,-13.329982539697896 l-2.871873753329756,4.2552506781883785 -4.095112999669593,4.41530489003725 l-4.205129125667248,3.450080430496527 -4.280827156691264,2.4580982379970093 m16.539223348680345,-13.97111829749989 l14.06082708512101,12.211478721129788 1.2538475570069254,0.9608707852719114 l1.4338428388693116,0.497407127239912 m-27.77769304834305,1.571781997307713 l1.5028350697312658,0.2446730618884598 13.862913436570118,-1.473518099691451 l2.7322791729450144,-0.14909357503490475 1.4758684655793146,0.19519099053836192 m-11.55954437427201,-4.776775407297467 l0.5330280329526532,0.8520032910809385 0.1567778097959803,0.7536180800045459 l-0.08159416261671645,11.729114172205705 m-17.226365032191193,0.9301727320803069 l2.8300393689184515,0.2942282498398839 26.91482140863938,-2.0100915434359554 l4.773175893979051,-0.15217645646354863 2.1332272052983834,0.2881947657072459 " fill="none" stroke="black" stroke-width="1" /></svg>