<?xml version="1.0" encoding="utf-8" ?>
<svg baseProfile="full" height="108.06581038749258" version="1.1" width="107.54790230937064" xmlns="http://www.w3.org/2000/svg" xmlns:ev="http://www.w3.org/2001/xml-events" xmlns:xlink="http://www.w3.org/1999/xlink"><defs /><rect fill="white" height="108.06581038749258" width="107.54790230937064" x="0" y="0" /><path d="M25,25 m0.0,0.0 m13.636106356303062,8.453659984243165 l0.5172808318283477,0.13028807483560076 3.0785929997381087,0.09322506143975111 l28.160932938796588,-1.8557358459368778 4.95788417393172,-0.14577929599643769 l2.868709521776585,0.2214376471238858 m-30.700790783977734,-4.650776785864335 l1.0217922294523396,0.8121883906829187 0.37913457743542534,0.6207555761017547 l0.8952434078209507,9.454360079127383 m15.28221797691526,-11.466660165391257 l0.590134246802827,0.8708693477083542 0.05246864074516541,1.0094753841844415 l-2.085706545092034,8.826885615188468 m-24.099679254298596,3.850839493423262 l1.53007859536957,0.8157084385804431 1.928676638657784,1.5484294772531715 l1.2487996683408216,1.3013583095305075 0.6811393227459779,1.0828254041995138 m-8.267607636426789,6.065012068842833 l3.937785908890277,2.0133012440929416 2.0404930298220125,1.7453213097949443 l0.7410752277562157,1.0665749045989463 m-6.662735172046574,16.482201372677572 l1.606695662212999,0.18232955735443793 0.842859829877986,-0.5772432961803411 l2.4210443958830408,-3.084551549466951 2.436481931169685,-4.351251120400271 m9.165765590880222,-18.228426796795553 l2.94933868062903,0.12377121458445564 17.45511511372024,-2.2371798333650244 l2.9263783761142563,-0.1182223638238522 m-22.874911036967802,7.587707514230002 l0.5554909291339838,0.7772184494159441 0.49732663303259905,0.8670417022648326 l1.6890079386155694,10.562862697816259 m-1.1906476390878948,-11.182039507520587 l17.32968585348027,-1.7312723624868334 3.8440118289040814,-0.21413346079308887 l0.9618510840201301,0.6727828129531183 0.13463836653307693,1.1764952519551504 l-2.3369785015516342,9.04453279354764 m-18.340302408887126,-4.023394168995447 l19.26696251373774,-1.7795140669611427 m-18.465879549036575,6.871589360822423 l16.929702685664772,-1.725448952644345 m-9.445453283596056,-18.09727111113785 l0.5877028263926508,0.7395546234388218 0.20734540422081574,1.026790586652379 l-0.09979435808319082,16.94387434684533 m11.45528562636201,-18.672690723393046 l1.277929466828004,0.9551030940760997 1.7247651977177099,1.7807380134987143 l1.6690733505764659,2.639172383847615 m-33.23145742383787,22.74574376789876 l2.396679828004947,0.26435065927992335 25.488873764661445,-2.120244515339164 l3.8900783627631323,-0.24349500447886813 2.091208367994605,0.24497807002578367 m-11.15596418653953,-4.901540765008914 l0.462689763050589,1.7137337501057772 -0.07311323731631732,14.414659377203897 l-0.20927143428149542,1.1694612671474158 -0.4570892284773937,0.5005301254635555 l-0.6214130608220867,0.0029434754145718826 -2.55389406936799,-1.7326841467973053 m-9.715856328712546,-6.345709186774588 l2.6673893463364897,1.7108060624729922 1.8229864915793095,1.959480669373463 " fill="none" stroke="black" stroke-width="1" /></svg>