<?xml version="1.0" encoding="utf-8" ?>
<svg baseProfile="full" height="109.49636792981656" version="1.1" width="103.9552198910083" xmlns="http://www.w3.org/2000/svg" xmlns:ev="http://www.w3.org/2001/xml-events" xmlns:xlink="http://www.w3.org/1999/xlink"><defs /><rect fill="white" height="109.49636792981656" width="103.9552198910083" x="0" y="0" /><path d="M25,25 m0.0,0.0 m28.176981331867214,3.1430262550746644 l0.4895601183647731,0.3380024654403312 1.6820682524583876,1.3654002656560142 l2.977786024614144,1.6842476761647756 1.8173024787478544,1.3893377533693003 l1.0542507159179855,1.1438271287476256 m-24.174394947139337,6.273058010325318 l3.6424578286829004,0.23851989678791471 31.84541271458292,-3.3142551872970607 l4.062479565154321,-0.1901317492934675 2.3813158077571317,0.4027625379509822 m-29.195349995131192,3.628819603857838 l-0.07087005408647151,1.7883602617031507 -2.0583836357002356,4.004053066061094 l-2.7809822083784272,3.810628981143305 -3.135068082859083,3.2474664403589446 l-0.1920122003369395,0.8919481272108111 0.38601775215412365,0.6626878257033637 l3.511394650431061,1.7456811368691743 4.892050906579342,2.786121563640197 m8.798124798591731,-12.20535978577239 l0.04743795897010924,1.7664217921106986 -0.5065513611499776,1.3837996355308515 l-9.572319845060335,21.859200868504754 -7.165439174520112,8.945581101549347 l-0.27420059120008583,0.7493140214046337 0.18508256009513668,0.5455948549505382 l0.6980333088077965,0.09462795240139557 21.78250841822308,-6.239685038106112 m-3.5699375919528986,-7.1457196487138726 l2.0137621093915303,2.747554409380253 2.2434996346562124,4.110201123847383 l1.860644733114664,4.371891656714497 0.9254683107627804,3.4733829265402996 " fill="none" stroke="black" stroke-width="1" /></svg>