<?xml version="1.0" encoding="utf-8" ?>
<svg baseProfile="full" height="104.82473775268545" version="1.1" width="104.12982581745021" xmlns="http://www.w3.org/2000/svg" xmlns:ev="http://www.w3.org/2001/xml-events" xmlns:xlink="http://www.w3.org/1999/xlink"><defs /><rect fill="white" height="104.82473775268545" width="104.12982581745021" x="0" y="0" /><path d="M25,25 m0.0,0.0 m19.08913248644858,3.603663825735628 l0.07097342485476552,0.4811208991628294 -0.14612237215906357,0.9478454993647086 l-1.1638519139132752,1.807766302547026 -3.674022686063048,7.068184878295588 l-2.853262168829998,4.5880733363241895 -3.1305729848072077,3.55367069395792 m11.88396992011282,-18.409799618791578 l1.7979159178866562,1.287826878606156 2.3945378172248297,2.238740825424804 l1.8287724575544178,2.431435054269242 1.4660062354821246,2.3772716005313943 m-13.499315139387104,4.867427063741026 l1.9250292496600847,-0.00976179743710033 6.765817395605532,-0.9219828023983904 l2.7056501095268435,-0.1474808650378539 m-15.733392261822633,9.522034044264712 l1.8609690413235047,0.27024295416276645 11.72847189411861,-1.6725791024401773 l4.4999911382026845,0.05050763714137171 m-8.891031416556313,-6.615379987558009 l0.37693630309076204,0.42708502746206456 0.270931628859607,1.0415079094359259 l0.18340415351858624,23.52263188813037 m-8.342621116598117,-10.68226638358154 l2.2188227514035184,3.746591233606934 1.4232265002554114,3.9749630524507005 m11.275910938328446,-10.946290516517251 l0.19796588071324528,1.135650493129502 -0.19212320680336667,1.0817434577679563 l-3.140071384576241,5.503593727399823 m-12.755699902793026,9.567289751490442 l0.9193252964450963,0.37399468080272064 1.703306892300842,-0.23884554978419376 l13.11356049284107,-6.360004922095094 m5.978551568306322,-37.897251819798925 l0.5399268970891019,5.615448901444598 0.6191020731272496,8.186386701083764 m-1.1077762738399708,-12.99051319954675 l7.898381022942941,-0.8770609665736608 12.052511669367167,-0.7331249938368153 l0.6214942429876261,0.7456779663715788 0.1534994222886187,1.183867935654609 l-1.9267442846600682,11.282697452839976 m-9.588201546451323,-11.977490053487791 l0.5336359217137595,1.498137428707574 0.12120912140970816,10.250530608379519 m-8.246866846372168,-5.7935757885403625 l17.764944592921907,-1.2579912386892211 m-17.446521372682593,7.552786901227979 l16.867204653146448,-1.1358095931645802 m-21.53117081811404,6.5227556629189785 l0.3128111258453836,0.3466223423208492 0.780735920531815,2.311862520049032 l0.9564409708996897,5.153788830792451 m-1.5512002537369267,-7.435799887134474 l10.456675760715257,-1.3776852264984865 12.840587564136028,-1.0127243317384933 l0.5706787251603088,1.4908656121020298 -1.9112110970746103,6.769120926081441 m-14.349691468932905,-6.856906946213452 l0.4434957992991993,6.431485255445609 m7.376045329477355,-7.342976064855012 l-0.4039246085003382,6.758685646888832 m-13.248890209059613,1.3281424839168194 l20.720355440313842,-1.7607305346205044 m-20.092865947018073,7.502292704571055 l1.3099404959846916,0.24914993327141588 13.923214850948291,-2.0735283974712124 l0.6502592768625615,0.07508159466237736 0.4177866644028416,0.44727598003218516 l0.12230609552121942,0.6997488465406979 -0.9085759056868575,1.6597820947073274 l-2.8129885881484937,3.06453966046753 -2.751303512193987,4.84525005631014 l-2.305381968349893,3.8571811226331385 -2.2913267558350148,3.1999477792341113 l-2.5091813663667786,2.7242384867797664 -2.773994229364972,2.2920539360689007 l-2.9731440255184483,1.8360302537862871 m3.8455889011151703,-17.891655432625768 l2.474580269732432,1.8302856788253437 8.20194318061706,7.807172634061039 l4.457750978934704,3.930967564100072 3.377963312334147,2.4646495288193413 l2.292623675775803,1.048348494984191 " fill="none" stroke="black" stroke-width="1" /></svg>