<?xml version="1.0" encoding="utf-8" ?>
<svg baseProfile="full" height="95.45040111282907" version="1.1" width="105.0065831889918" xmlns="http://www.w3.org/2000/svg" xmlns:ev="http://www.w3.org/2001/xml-events" xmlns:xlink="http://www.w3.org/1999/xlink"><defs /><rect fill="white" height="95.45040111282907" width="105.0065831889918" x="0" y="0" /><path d="M25,25 m0.0,0.0 m28.782983213350324,2.9610684690235454 l0.43183655162465795,0.36305019433966124 0.644401799829354,1.222541229857575 l0.025880009242933773,5.306074123814331 m-20.974590133560515,0.25624085125188495 l-1.1480948262870034,4.407170700116498 -2.070717087278614,4.665790113801676 m3.692126893759291,-7.184055436899726 l26.193663734586323,-2.0537904505522984 16.98744552999014,-0.6988304356452205 l1.1678503828904037,0.2066451727088489 0.5937620132812577,0.3878197004386946 l0.06976343608237083,0.5740755241504187 -1.080810689347788,1.4132938722155215 l-3.0610689001693347,2.2735293656467137 m-28.25003159764312,2.7192387709824173 l-0.07799938335631668,0.9568204482270872 -0.5476709617715398,1.7989913560869568 l-2.8290856319207327,4.609828845158706 -3.334199411116552,3.841137430307382 l-3.8004403178939974,3.2888806939387885 m11.047235288384968,-16.76606787663866 l1.8453758711419612,0.4856217619655089 7.989761432220464,1.2631507661604542 l16.370398356558272,4.702563128030133 3.782249065073685,5.032586593894068 l2.556558551320901,2.92585076791214 m-21.382654882326253,-1.4896660372341044 l0.4788679206684494,0.9058591950261932 0.09720368766823419,1.4059448505877652 l-2.7426108789415746,5.001297161595328 -3.376565678445115,6.3514876038765395 l-5.090473175183293,0.6573356580040998 -3.469550932107209,-0.008235023512761609 m-4.709828349354863,-12.771364667600935 l4.296784165003644,1.6526519380388993 2.687549514610462,1.5862895577664982 l2.3321416876867156,1.6386562026234899 1.8770346884651559,1.8410581331555782 m-18.180281736642158,-10.006528977833874 l0.8069454078627261,0.8556210639902608 0.3592229498131529,1.4585830558506196 l-0.2701511858766889,15.254119063686773 0.3883392942701369,1.2995111554634475 l0.5852631124683293,0.5524858996080537 1.9153435810859638,0.3060695994440882 l11.89545648550147,-1.2895165518131546 11.224705907615183,-1.2362389061123848 m2.382844850179131,-19.80872251394865 l0.643949852848012,1.5646103926293833 -0.033264661424188394,19.474241077746182 " fill="none" stroke="black" stroke-width="1" /></svg>