<?xml version="1.0" encoding="utf-8" ?>
<svg baseProfile="full" height="100.67534485254919" version="1.1" width="104.13430296072923" xmlns="http://www.w3.org/2000/svg" xmlns:ev="http://www.w3.org/2001/xml-events" xmlns:xlink="http://www.w3.org/1999/xlink"><defs /><rect fill="white" height="100.67534485254919" width="104.13430296072923" x="0" y="0" /><path d="M25,25 m0.0,0.0 m27.028918352619407,2.5564669271605838 l0.4264793727045273,0.3923012791975853 0.6259682609460389,1.5558906202721512 l-0.06597756519009272,4.608284854000572 m-21.596035625867664,1.7348021559265725 l-0.9496091278573127,4.144601309101091 -1.9131640516864405,4.886816468404572 m3.4801467773873216,-7.646581018850827 l28.7987832126825,-2.591756725967603 10.448107336278673,-0.7099750767278027 l5.920583038005665,-0.03127993773056748 1.0649247385011469,0.35773355414796704 l0.371920911789619,0.5444616225267851 -0.1653171668867419,0.6915302160253354 l-1.3194675321113476,1.5281885761037677 -2.751395857828155,1.8992660040841307 m-33.72608807556633,5.547960946610322 l1.016171861496306,0.19277101915245512 1.8480960739360048,-0.025434868409927695 l18.095511293540206,-1.823467235887385 2.728099481144069,0.06461394872285846 l1.8958497724815162,0.22190164266632928 m-33.42823820847008,11.672029362315186 l4.144942643355225,0.17438662707867122 17.99010724399918,-1.728370937153835 l12.0911547034983,-0.8573712083830989 5.36529517067585,-0.14280671694300898 l3.6292277638941006,0.3309531343229751 m-22.51661734559234,2.6619600917673067 l0.6491478778645707,0.88406577388078 0.3495091614821425,1.6233457859816254 l-0.071631239688995,16.78613002680777 -0.3218793034316215,0.841134121130997 l-0.5174332572720871,0.3307925112148545 -0.6729360091532617,-0.10323543357461142 l-3.351436730798692,-2.605847836011416 m-9.536984001072627,-11.471525708434095 l-0.3662706359413319,1.6555441704008762 -2.571795265813866,3.022125320243556 l-3.8683895179873775,3.4999376690795603 -4.623234057359775,3.39794771716712 m38.129579048619036,-12.248630832883775 l4.049934507803388,2.457539094232882 3.4404599103017843,2.643891357874589 l2.982251638882599,2.9584979071480646 1.89703338241619,2.6568173368528716 " fill="none" stroke="black" stroke-width="1" /></svg>