<?xml version="1.0" encoding="utf-8" ?>
<svg baseProfile="full" height="105.42137719688138" version="1.1" width="100.91067877343977" xmlns="http://www.w3.org/2000/svg" xmlns:ev="http://www.w3.org/2001/xml-events" xmlns:xlink="http://www.w3.org/1999/xlink"><defs /><rect fill="white" height="105.42137719688138" width="100.91067877343977" x="0" y="0" /><path d="M25,25 m0.0,0.0 m31.724420803992405,8.228056612371029 l0.3766166943671832,0.190808531239898 0.9577096833536227,1.6370591985597505 l-0.09573329344795038,7.411517772861956 m-16.109301714270064,-5.172109346371331 l0.603539882795588,0.859892516726668 0.09512957211059828,0.905618489974406 l-1.3243926050120385,4.777722600032304 0.6905704607949089,0.6159904203424384 l14.878981134333266,-1.512660765236027 17.995798257852268,-1.2470760441068884 m0.38895515879948994,-6.236211974760207 l0.5165221160568584,0.8301897195394823 0.2118626217136499,0.9568178606906863 l-0.8573078226910306,6.376824446966419 m-34.56261153533369,11.355870248925143 l0.13438914388504064,0.2639993112688222 0.24985129667164144,0.882442893769453 l1.3119503502284007,18.78844670718364 m-0.8238919858209681,-19.30881623703355 l12.410793318492487,-2.246730388326078 0.7504378722138139,0.05647421053928737 l0.7879216776335537,0.5411514932684767 0.23795577900077933,0.9939591802518841 l-0.2157283633451321,19.73315376058847 m-12.64571661698722,-12.09529470727133 l12.069246414892353,-1.3413676583210656 m-12.129233740567328,7.761094602943752 l12.164506763780995,-1.3483870866641936 m-18.872139707382924,9.546575113722833 l1.3215532706850341,0.419210996338414 1.708152449682097,-0.16004669116062784 l15.713507182442434,-2.021115943733285 8.468131663213224,-0.10643514279525375 l1.799891980050935,0.27123874343269744 m3.7774511646677933,4.813513751123322 " fill="none" stroke="black" stroke-width="1" /></svg>