<?xml version="1.0" encoding="utf-8" ?>
<svg baseProfile="full" height="109.21835408934506" version="1.1" width="97.12731493068407" xmlns="http://www.w3.org/2000/svg" xmlns:ev="http://www.w3.org/2001/xml-events" xmlns:xlink="http://www.w3.org/1999/xlink"><defs /><rect fill="white" height="109.21835408934506" width="97.12731493068407" x="0" y="0" /><path d="M25,25 m0.0,0.0 m24.311790757265925,8.891226434305684 l0.4104935007264202,0.2086046225046855 2.394309766162012,2.2263073280638546 l1.4523284262343905,2.672913554391283 m-20.75210544969494,3.231982059750696 l-0.6944942735378445,2.119599602054187 -1.1130069648447318,2.7331097872360153 l-1.6495619035867666,3.0240091174922012 -1.1887092268968886,1.7286555286474476 m4.811406052411807,-8.066336407277687 l35.370454500963305,-3.295035262536233 1.8358541324081352,0.08383346690408428 l1.2622305025733034,0.31562972893580815 0.5983431180248033,0.4740015663521513 l0.07798199247513633,0.5871713136243184 -0.8868303666973989,1.3893253621934472 l-2.643654331783363,2.0758942315155897 m-9.965810918400452,1.1856840700540265 l-0.39948793105654246,1.4506859993350185 -2.4577090834930475,1.7942309666078404 l-2.9835994206066694,1.6820822755484082 -5.8549280003104265,2.5607848855867763 l-7.615373183085119,2.242276627857118 m-11.277534527121038,10.814414724461926 l1.5106876050856137,0.3006988529624967 1.6104731428019714,0.009702829825249238 l29.03633493183327,-4.2143506975214935 7.378827846560966,-0.756588874523981 l2.294394061360079,0.10893706545800942 m-22.99394797975732,-7.2501735301487225 l0.9596810270663878,1.4811983264244548 0.2613253898079094,1.0281890767062434 l-0.1923452534821684,20.08481120603064 0.613112542897476,3.1704110980306464 l0.9611354365863024,1.4042165758681187 2.3114092816669465,1.0465565522995735 l3.826463504778498,0.5585966687356515 8.803516901270365,0.11509735558953037 l4.754484235484046,-0.44973133879377447 2.134351405442446,-1.8343621361996083 l0.2498656599853507,-1.8764484492852758 -0.19125851683376938,-2.7512953746460838 " fill="none" stroke="black" stroke-width="1" /></svg>