<?xml version="1.0" encoding="utf-8" ?>
<svg baseProfile="full" height="95.16921658749463" version="1.1" width="105.09043940114738" xmlns="http://www.w3.org/2000/svg" xmlns:ev="http://www.w3.org/2001/xml-events" xmlns:xlink="http://www.w3.org/1999/xlink"><defs /><rect fill="white" height="95.16921658749463" width="105.09043940114738" x="0" y="0" /><path d="M25,25 m0.0,0.0 m30.15998963930832,4.012734151449529 l0.3936731594348467,0.3788128072864786 0.6989032761826913,1.3432636169734073 l0.042654930638729494,5.051906665356842 m-20.486256634833893,1.8515902085527172 l4.55425506249173,0.12527345686727703 30.676677046644514,-2.5770426224790386 l3.686789039493166,-0.13240725146531418 2.9591706072189403,0.2810735764118734 m-23.725714461507536,7.196420087511853 l-0.05265729207250388,1.0976854134368215 -0.45768015071993795,0.9761886016067558 l-3.0368649736075226,4.157922661032222 -3.576729249765267,4.036431485406256 l-5.027741330944195,4.83075767018651 m10.04755277875871,-7.615946895254216 l0.58208278789701,0.9166382849955066 0.22199536615187998,0.8555326743404568 l0.034759401224941984,17.81701955352349 1.2340422194622442,0.5653624417552142 l0.9501188679791052,-0.2441399248081798 8.145939054395267,-6.3370614072784335 m11.054281483974556,-20.554230231121668 l0.004691783383254895,0.49475117836903226 -0.5117903407474518,0.9563292252165257 l-2.2094378292093397,4.888090860082944 -2.022930368547081,3.3454301037395497 l-2.8636927686359814,3.4786291816902217 -4.958324158973501,4.486503266000027 m11.663628629241614,-8.848450555718511 l1.8955765350329434,0.6598649468355555 1.7002758086891923,1.6790233449865548 l1.8930468872750121,2.3375569358176063 1.4201545958329187,2.23414320959068 " fill="none" stroke="black" stroke-width="1" /></svg>