<?xml version="1.0" encoding="utf-8" ?>
<svg baseProfile="full" height="96.2166006659761" version="1.1" width="100.4820192927782" xmlns="http://www.w3.org/2000/svg" xmlns:ev="http://www.w3.org/2001/xml-events" xmlns:xlink="http://www.w3.org/1999/xlink"><defs /><rect fill="white" height="96.2166006659761" width="100.4820192927782" x="0" y="0" /><path d="M25,25 m0.0,0.0 m30.508298736821686,3.66515669112204 l0.41846539624945944,0.4127709725161803 0.6055480601294524,1.4759573572648506 l-0.028950218494175593,4.720461938451835 m-23.4448734908319,1.737153094664425 l-0.9624884145296273,0.3180466681006465 -1.5562531182250157,1.9037676649549953 l-3.2869652627764716,2.986163500789664 m-0.3303234868789971,-5.293307064407535 l6.404616875645084,1.6787295207362776 4.877846749293184,1.5697678143424276 l4.584922348662581,1.362272323171523 4.833833662759724,1.3585322429254991 m-12.740695860802644,-7.468153407639435 l3.2762799915558283,1.2233151145567729 2.165818625224776,1.3986842684129137 m-7.5602874803639475,5.846241457240631 l0.8661026107002978,1.199289403165176 0.0303749491139748,9.969772199669347 m0.6944008089990885,-7.470992738061861 l4.979457161451678,-0.6540897798222625 3.909136497214956,-0.14961999679420218 m-16.604203710265732,1.3763043631775642 l0.5560583932336843,0.5752332262113127 0.29176638357305335,0.8560922153896047 l1.0182182242854763,7.27918324676126 m-0.46826445937211275,-7.772180004875018 l10.663162788516628,-1.1451240792163937 2.5385760604154064,0.05296372605502919 m-15.381246869113554,6.8630305377183225 l12.81417485110307,0.1961603687442891 3.6646816795652093,0.07292542740148059 m18.109524860896798,-13.63054394495734 l1.2000545159351588,0.27070176481606717 1.917581909758453,0.06271258575346578 l11.525448102408125,-0.5403280248407153 0.39222142091953355,0.5749774559068007 l-0.8289252246202635,4.8889594036100075 -1.2197294176462858,3.497295040208672 l-1.3186846815949367,2.8270938685514135 -1.1252001616151313,1.5910397120673336 l-0.6171990376379719,0.47133449434909275 -1.247020422738917,0.12772653323718786 l-1.5015941116203497,-0.9337305574264291 m-3.953578812593712,-9.588094410511129 l-0.04372414295825013,0.9772785668195663 -0.6329504695559307,1.068697073158525 l-5.120989460790671,2.8627437443247143 -5.303013185624874,1.655268721546972 m-12.495924204180074,3.9041211541547916 l0.7773661641114077,1.2670684595729838 1.3031718808421484,14.717770752906766 m-0.9023783634628593,-15.172700547670505 l25.382251421385213,-1.7284758191056016 1.7721612773036102,0.026685578065611 l1.2041973933098327,0.27968412105087703 0.7840865228815919,0.6575314816194666 l0.2304870582760891,1.259013746879591 -1.0868559243322107,13.224859665840372 l-0.5045287085654818,0.8753109216362764 -0.627938153357281,0.35518860800471047 l-0.7147307553124815,0.00962638648012527 -1.457371006815457,-0.6676243382724184 l-1.4706348274369763,-1.0568616176515184 m-11.126355694110956,-19.267791218242067 l0.49510379805398835,1.5801854894460903 -0.012106820036852933,13.616993388324486 m-9.165045341396718,-5.890108191025527 l20.685398623832526,2.4356428862678308 3.001062636012369,0.5308574865289752 " fill="none" stroke="black" stroke-width="1" /></svg>