<?xml version="1.0" encoding="utf-8" ?>
<svg baseProfile="full" height="114.34214962411788" version="1.1" width="105.38330057980558" xmlns="http://www.w3.org/2000/svg" xmlns:ev="http://www.w3.org/2001/xml-events" xmlns:xlink="http://www.w3.org/1999/xlink"><defs /><rect fill="white" height="114.34214962411788" width="105.38330057980558" x="0" y="0" /><path d="M25,25 m0.0,0.0 m29.349876601095037,7.657914665850316 l0.4048092654502422,0.2225687746761894 2.4726874694209378,2.6856781252775574 l1.3816200486415835,2.9521777488077183 0.43486420009819765,2.211313854296106 m-19.531020734623482,5.53804800369522 l2.8512030340036914,0.3454522846183961 16.702776459051723,-3.4176507927630393 l10.7269328396555,-1.7030764352249719 4.409304050243962,-0.3164295100400512 l1.8320088028065662,0.503493863482232 m-20.35639327219642,4.5522597509532705 l0.6636708734792559,2.2379948349797116 0.05343944739621054,4.988134636125982 l-0.21043940222695234,10.466729297194759 -0.7329284400219072,6.365114892099131 l-1.0864040842466447,5.701902220127561 -1.5977831143058443,5.024235487006159 l-2.1587480685565543,4.452168013540832 -2.1457964970347647,3.8741199094148002 m16.750328098778564,-46.89001453836526 l0.6558268889993216,1.3950573946474423 0.21105935359069242,2.4311595788925846 l-0.2321015794513805,37.56801181974879 -0.308279892115306,1.6930316430880012 l-0.4551586653008183,0.7349353117976356 -0.5785626145395568,0.01387010218484136 l-1.3090488849360582,-1.1603526733182234 -1.4518882905655246,-2.1176611226845146 m-11.94439975415643,-26.500900177189628 l-0.020537824976532785,1.7981577847569885 -2.4212877782894706,6.621366942241925 l-2.249372393731378,4.831293879458658 -2.8773634319989263,4.701429140635183 m32.03620530387826,-17.35176340382716 l1.8778894796948498,3.085585380451866 1.9235635014202292,4.41667231452194 l1.5705974012884372,4.5916981738713964 0.7421521840862789,3.4911220017217763 " fill="none" stroke="black" stroke-width="1" /></svg>