<?xml version="1.0" encoding="utf-8" ?>
<svg baseProfile="full" height="109.3941711494522" version="1.1" width="97.29477067868153" xmlns="http://www.w3.org/2000/svg" xmlns:ev="http://www.w3.org/2001/xml-events" xmlns:xlink="http://www.w3.org/1999/xlink"><defs /><rect fill="white" height="109.3941711494522" width="97.29477067868153" x="0" y="0" /><path d="M25,25 m0.0,0.0 m25.33808278297931,2.182726355688236 l0.4726859965943599,0.21873648003167664 1.73423175040914,2.354202714373881 l0.8770885896621261,2.064315646029826 m-19.956301938026648,4.49996766469668 l-0.7388064148943,5.065661817609733 -1.4800625689293845,6.007371997763353 m2.5386462201479967,-9.82566078563487 l22.344265273715813,-2.7333780857499548 13.426154515877094,-1.1098992622230803 l1.5455290000284698,0.21827976247708278 0.8790951170788722,0.47024760133760707 l0.3141623540386816,0.6426956342748333 -0.08900323140940511,0.7781923316727835 l-0.39951850756431345,0.8862708817339205 -2.839881783767282,2.889633587896606 m-26.23126583954938,3.8773231370809547 l0.08646094833492192,1.5593998129091857 -0.404288497303683,1.9990525578850267 l-2.246005780458177,5.954505042567773 -3.0410843936350176,5.684236062961647 l-3.379972637872891,5.094493103311053 m8.196524047730074,-13.541849389646607 l6.146500053219551,-1.3143858638432808 0.6462517630872237,0.03317137095049124 l0.46870483365555754,0.3380730258579618 0.21148712469135503,0.5784788038560551 l-0.0879612423890533,0.790695256757269 -0.23911650235915477,4.4380346906495385 l-1.9029311413572896,9.60773459895334 -1.4067571386265192,4.101079929910422 l-1.7240288600764768,3.7551410405528034 -1.9731410161433052,3.4368107901367466 l-2.240021408967408,3.1527796482956174 -2.4885900668453376,2.8406140104014836 l-2.7169882178706817,2.3994191779264336 m6.19313232220765,-23.30365156550806 l2.51656903948569,2.6897761160764744 1.3552982203910227,2.4294863106351676 m-8.20189059017824,-14.588073918797432 l1.6096325938486347,2.150992351354688 1.5134545312475602,2.9438498461643445 m-6.503519763051496,-16.098810340568193 l1.602139851415249,2.0537977761759176 1.5284107711534403,2.668318395572512 m12.351502815916948,-14.888463620495893 l2.0758319821909574,0.31112024247638037 10.14275770773108,-1.9615230793106648 l0.6777561305686766,0.9481269465040476 0.08743614284088695,1.7503988686620213 l-0.7766001638232006,6.041584947075475 -1.2494665184053666,6.448022784147787 l-1.3112702388804893,5.292049312351118 -0.569942826405865,1.4536609564853038 l-0.5632301992974494,0.4860466471251602 -0.5785655757046443,-0.12374278642665709 l-1.1208401713054168,-1.6612980954789591 m-6.377648273407257,-18.008345445114212 l0.5041166657617144,1.763235944205404 -0.05063733931805438,24.368720398019832 l0.4287219864371712,3.531025638764172 0.7349968947727782,1.5240317933591534 l1.5348170514123818,1.0081139503298664 2.5180084971379606,0.38275784491557474 l5.756137799794739,-0.0367838456877095 3.494196997717504,-0.5607037478426073 l1.1093421592772512,-0.7091913447876647 0.7655467629062233,-1.2029580584656818 l0.3712166271636867,-1.682675220494982 0.1283159190424482,-3.1408516894490672 " fill="none" stroke="black" stroke-width="1" /></svg>