<?xml version="1.0" encoding="utf-8" ?>
<svg baseProfile="full" height="109.49251446407288" version="1.1" width="109.31987109594047" xmlns="http://www.w3.org/2000/svg" xmlns:ev="http://www.w3.org/2001/xml-events" xmlns:xlink="http://www.w3.org/1999/xlink"><defs /><rect fill="white" height="109.49251446407288" width="109.31987109594047" x="0" y="0" /><path d="M25,25.000002161953176 m0.0,0.0 m29.729268550872803,-2.1619531764827116e-06 l0.38198400288820267,0.4248631000518799 0.5731396377086639,0.9659252315759659 l0.2179550938308239,1.1295858770608902 -0.06703438237309456,6.000455021858215 m-21.786508560180664,1.1999599635601044 l-1.2269844859838486,5.045658349990845 -2.5405046343803406,6.015183925628662 m5.234522819519043,-9.280214309692383 l27.566347122192383,-3.005628287792206 10.394415855407715,-0.7136832177639008 l6.309446096420288,-0.07505887653678656 1.2883368134498596,0.3260120376944542 l0.6467869877815247,0.5246961116790771 0.11169840581715107,0.6769005209207535 l-0.9554509818553925,1.6215498745441437 -2.780267298221588,2.40188404917717 m-35.31927824020386,4.632251262664795 l2.524629533290863,0.803573876619339 2.0811089873313904,0.04116065800189972 l8.792833089828491,-1.2495900690555573 8.756173253059387,-1.5928274393081665 l1.143660768866539,-0.11979960836470127 0.8143754303455353,0.2022845856845379 l0.38296595215797424,0.5102939531207085 -0.14958584681153297,0.8039011806249619 l-0.7836072891950607,1.0834336280822754 -5.183624029159546,5.0288015604019165 l-4.369085133075714,3.5049569606781006 m-2.07783579826355,0.9315565228462219 l1.0536473244428635,1.364929974079132 0.9592150896787643,1.9370876252651215 l1.0772144794464111,3.3229660987854004 0.6150367483496666,2.9341083765029907 l0.5960521474480629,6.6256386041641235 -0.4624922573566437,7.056393623352051 l-1.3783501088619232,5.704556107521057 -1.1341683566570282,1.9829125702381134 l-1.4068271219730377,0.7258350402116776 -1.504368782043457,-0.17152659595012665 l-1.4284302294254303,-0.7091416418552399 -1.61860391497612,-1.285063624382019 m-21.063783168792725,-21.126627922058105 l2.5324851274490356,0.48762697726488113 3.9396393299102783,-0.01142555964179337 l25.861985683441162,-2.6589539647102356 13.68006706237793,-1.0380586236715317 l6.189318895339966,-0.051026325672864914 3.102351427078247,0.7310722023248672 " fill="none" stroke="black" stroke-width="1" /></svg>