<?xml version="1.0" encoding="utf-8" ?>
<svg baseProfile="full" height="101.47950389602227" version="1.1" width="102.9892927043816" xmlns="http://www.w3.org/2000/svg" xmlns:ev="http://www.w3.org/2001/xml-events" xmlns:xlink="http://www.w3.org/1999/xlink"><defs /><rect fill="white" height="101.47950389602227" width="102.9892927043816" x="0" y="0" /><path d="M25,25 m0.0,0.0 m16.042812617780843,4.879673044183328 l0.04064922776599733,0.38554266605256876 -0.9019332316701328,0.9051863945833118 l-3.200369415432931,2.3031590412007943 -2.8675018274672497,1.7660602617368408 m-1.40906270441503,0.26472428613260424 l0.5283197646616836,0.7512390089173583 0.18376845835082972,0.9000101854521956 l1.4418546569511066,17.65338955993944 m-0.8040457229859556,-13.108443413937335 l7.321843437576225,-1.2676414311016042 1.809587650189941,-0.07795812666665976 m-7.674063597693448,7.8232087952735885 l5.800389410214286,-0.8224740801225573 1.9168461853987702,-0.09056317639780306 m6.4164262198697095,-15.555636969746983 l1.6729410471311674,-0.7064541338690956 7.078778696439049,-1.2793949883088287 m-7.322322357726719,-3.6464249134181057 l0.3300117894770682,0.48325435158255503 0.12254320060550584,1.084151347939241 l-1.4907230336644017,7.928362621049644 0.3460244916361708,0.3569720376708098 l5.355346165078996,-0.7215181846976948 1.1364441722008023,0.29988398160934693 l0.2940436033503617,0.41285852014404295 -1.7418760318876059,11.272261865192332 m-5.190902842604919,-8.554235619807503 l0.6248291329418044,0.6713013245141465 0.21771759548095074,0.860519936912032 l-0.36327045552459364,8.061290300505895 m10.58070710022789,-19.100678179015553 l1.7761998330702267,0.03832893273497746 6.191544796482273,-1.0221658349972873 l0.6309781686860947,0.13817478717893864 0.3472233520802451,0.4154363537373872 l-1.192273488001272,19.226476629214012 m-7.3133728028828155,-12.230466792095015 l1.736781643476455,0.2930846066870956 6.235086322773107,-0.5987090361402844 m-8.43201647408859,6.428521072568161 l1.9667985922407007,0.2931725259507253 5.888138304592756,-0.49992058807480455 m-36.71261295810075,8.606287195322281 l2.896295011608626,0.29313780819381086 34.056277679818216,-2.0580213077831098 l6.30716752740074,-0.23084740916453955 2.3112637929694078,0.2610045665938145 m-31.816246161693975,2.8981319454422416 l0.0192012391606731,0.9144620017368214 -0.37902201312862693,0.7894146007073405 l-3.3048737117474216,3.9494929650588344 -4.503646841514154,3.9870692326377957 l-6.023589355486652,4.253028312482907 m29.022827192157113,-15.032900583555616 l12.260825235848332,10.888753631307807 1.257774715244864,0.9009909091180136 l1.2158742629256019,0.4298361518293872 m-16.109549839333404,-8.910426836290629 l-0.04497239455175292,0.371292538870981 -0.6564059330033153,0.5424666519240378 l-3.20633826717929,1.4657605125289819 -4.0909969885003825,1.266219776209402 l-5.006135072195283,1.1031819098551021 m-2.539022204045911,3.939712649587377 l1.874592029003886,0.17755155891080343 16.89390978173827,-1.453775727318551 l2.580548830912291,0.018121333622082365 m-27.440215501355283,7.226093070683543 l2.608909226358152,0.2652200996609113 25.33288928898879,-2.1240053252856628 l4.713751498757141,-0.16420376184913982 1.691452544899336,0.24355953959623272 m-18.59963535353445,-9.852479190596354 l1.960771049239605,3.524889494581711 1.2500398969305075,3.533143034069064 l0.7345191206718532,3.758365448050952 0.10000927240831647,3.783673842239586 l-0.5497469523892631,2.942430486498032 -0.44654621431430963,1.1432630218582491 l-0.9936751468020419,1.091024502295657 -1.0582620663029192,0.1250262761258573 l-2.7025735871909733,-2.2695821411489914 " fill="none" stroke="black" stroke-width="1" /></svg>