<?xml version="1.0" encoding="utf-8" ?>
<svg baseProfile="full" height="104.03178088669003" version="1.1" width="100.13349760354704" xmlns="http://www.w3.org/2000/svg" xmlns:ev="http://www.w3.org/2001/xml-events" xmlns:xlink="http://www.w3.org/1999/xlink"><defs /><rect fill="white" height="104.03178088669003" width="100.13349760354704" x="0" y="0" /><path d="M25,25 m0.0,0.0 m23.770692175296773,2.526952432289886 l0.3955136448234501,0.24673351656858486 1.50634566606619,1.2393403234265359 l1.115368493997182,1.907014774215648 m-19.7434400363668,1.9271696300062353 l-0.9028323075992807,3.8195966296277177 -1.7630930686237745,4.332027137008132 m2.8869055554942333,-6.723100254904026 l34.08369665662395,-1.9796186574067678 7.796873444322546,0.06961552456397795 l0.8539599334315369,0.3876638755181629 0.1335074460810371,0.5356036145861373 l-0.40560110851360115,1.2882579993387155 -1.548165194138303,1.4341796534933906 m-37.63461882028417,2.9087496345969748 l2.1528291003051017,0.12416730471404251 9.535288077492185,-0.7311708019737447 l3.7149672646472567,-0.09328383150477113 m-8.017629195354559,4.903901455739504 l0.541118881538732,0.11502535163183532 1.1575149702592133,0.6947400983897042 l1.2129072530988083,1.1700564238190514 m-4.751399774021931,3.728559594957621 l1.1946326613555036,0.9912966124936604 0.22754200104258052,1.1729313480275518 m7.244921086437556,-3.432441525060006 l-0.10393235082769364,0.5099075409031415 -0.6981819990438184,0.6504394559118077 l-2.5092969392177324,1.6288158696379658 -2.9325191149138496,1.2925826160486111 l-3.4383128387112096,1.0138064920068595 m-1.0600511156056136,-5.677253717937522 l0.4341904479896701,0.8515742424504515 -0.04245824515297349,8.925918816525028 l0.2370373432026524,0.6364636431761619 0.5097791275345277,-0.04946967161287481 l7.323057000054343,-3.7731301698442854 m4.466683629804011,-8.957714921621763 l1.8187189444430563,0.21856108032722657 11.42659856039827,-1.2025131100922115 l1.3799601142024602,-0.009261188035672857 0.9795045701442743,0.2053854693711389 l0.605145030593546,0.7312955710941966 -0.07516388858143863,4.108439662171371 l-0.5745689712218363,3.411804571122006 -0.9641007942247074,2.8402401072239414 l-0.5859897594858003,0.8825137003337898 -0.5839192093907934,0.3695858772257358 l-0.5862678771155033,0.041694591183280304 -1.1478242228631017,-0.5774739279842235 l-0.9691284335751932,-0.8966889906622686 m-2.570194211265605,-8.598103789421952 l0.010854544174945675,1.0502521398586302 -0.7064024619470569,1.682726355418619 l-1.165346248818257,1.7253512590237847 -1.6588511895059743,1.6594764412688268 l-2.8917105917454915,2.0456868919386886 m-4.487090854626006,2.6860163467316855 l0.1973387532943784,0.7469894659634537 -0.366373846211371,0.6233415655180566 l-5.376064072982858,4.276222583361284 -4.677893504674005,2.6267692891618477 m7.6978293207121204,-3.7471048722280247 l0.6245758701200844,0.08379203848387276 0.5087994193367293,-0.01533958267168293 l13.842194456028016,-2.829191077906832 m-18.751015836247596,6.0338283597155735 l1.681480680263138,0.15900696961178915 16.449240220870713,-1.3003865826108043 l3.1607153279822464,0.08081542278370789 m-25.150775986892455,6.247972948790977 l3.891044202975306,0.17305593902680014 20.60184562998364,-1.4798562328721239 l4.71407540878299,-0.052513003170400384 m-15.67875083790848,-9.301025741399455 l0.7545331424258784,1.4430691665855495 -0.14818752925059386,18.27143711264253 " fill="none" stroke="black" stroke-width="1" /></svg>