<?xml version="1.0" encoding="utf-8" ?>
<svg baseProfile="full" height="86.82670258595013" version="1.1" width="103.23835140349848" xmlns="http://www.w3.org/2000/svg" xmlns:ev="http://www.w3.org/2001/xml-events" xmlns:xlink="http://www.w3.org/1999/xlink"><defs /><rect fill="white" height="86.82670258595013" width="103.23835140349848" x="0" y="0" /><path d="M25,25 m0.0,0.0 m20.894299854320185,5.361803886391979 l0.03232065642156383,0.4536491555421857 -0.19801616507318542,0.8277323936207501 l-0.9901176041681734,1.2734433012290294 -4.070018769950482,3.6268062260063325 l-4.615782000888061,2.9636303548362224 -5.9673673243327725,3.1206363219064905 m1.7777306980792345,-12.313950159710863 l1.9246240740233969,1.2432120648803475 3.49613470262122,2.8888666539815127 l1.4392721992619255,1.6159840989812582 2.4042509322391337,3.626391285080196 l2.412109670904569,5.833371903777018 1.204228004913412,5.827916365296965 l0.1672188892560731,3.7365782565576944 -0.2549701790807942,3.46046356735007 l-2.2108125970301904,3.1320881943989645 -2.4549311093774504,0.14807871582396212 l-1.657461528940924,-1.1394607772087317 m3.160402468378361,-19.203982559748297 l-0.05340457089556378,1.1138275798978696 -3.2804358449277093,4.170104302138539 l-3.2296288591954094,2.932646934231547 -4.501853864844265,3.0605030725858597 m22.242284942468846,-25.325619635257105 l2.830535992290505,1.3068672137532011 2.0656597820696296,1.336158793956796 l0.7190063525900595,0.9986479831796994 0.45238200521595007,1.1967520651632073 m12.13193187825497,3.4937376135086886 l-0.3413709349437913,0.4382860331801695 -0.9622083474322393,1.7557564925064562 l-1.4954563677515005,2.0611633734233004 -2.0105031524733,2.0652862880139673 l-2.3537746537338418,2.1403673463408923 -2.8751604283647825,2.215632686567661 l-3.2450126354841027,2.074013248336336 -3.820784615859687,2.1053905578024987 l-4.412591965192909,2.224472924180078 -4.053737157871611,1.7300343887001635 m5.205093064533047,-15.015233329045884 l1.8737158305377448,0.6876360600007705 2.9652801608065062,1.4208134102171657 l17.566350938642536,9.060087943180337 2.553490055145946,1.088021202043708 l2.7754289283364044,0.9823731078574139 " fill="none" stroke="black" stroke-width="1" /></svg>