<?xml version="1.0" encoding="utf-8" ?>
<svg baseProfile="full" height="115.03838321339065" version="1.1" width="103.42840799180557" xmlns="http://www.w3.org/2000/svg" xmlns:ev="http://www.w3.org/2001/xml-events" xmlns:xlink="http://www.w3.org/1999/xlink"><defs /><rect fill="white" height="115.03838321339065" width="103.42840799180557" x="0" y="0" /><path d="M26.80146201766788,25 m0.0,0.0 m28.401782839162415,3.6139064186939187 l0.4287852969699622,0.20306464601616894 3.1373447561634427,2.5824556621735715 l1.8043818236112854,1.9043573786556955 0.642023528641238,1.1481257095358806 m-22.801129474038415,4.584831581882562 l3.3435797118351354,4.421807732482514 2.1497225070451926,4.280955584145787 m23.047081183302453,-10.786573999813077 l0.04411347309053152,1.102191311240827 -0.39983495011925124,1.4887630633369227 l-4.681785351431409,7.143692147833705 -3.233098270360947,3.4206113276761463 m-27.82667522276942,3.6913438163321435 l3.6936207816189675,0.2227606023293058 34.365018532242836,-3.0708243387228173 l2.462394546589186,-0.12966870140558218 2.2526728571975183,0.31878636668387 m-23.062404339721276,3.409866446788366 l0.7141984545459293,1.185709797905858 0.2830867145421327,1.323508471407176 l0.004721962975013951,19.53741612998456 m1.558098832118318,-11.587917268814502 l11.606639175990622,-1.2953066304622225 1.6382286257357972,0.15637145291407348 m-29.829329062165506,-0.1820108280032583 l0.0729281634984022,1.841503271096206 -0.5432149142073891,2.162738998338647 l-1.21084494458759,6.528415514556412 -1.4878527666332175,4.890934325621171 l-1.4904120529411358,3.256489434110428 -1.9642112678160994,3.003457766864966 l-2.5260351357805533,2.75809888987977 -2.3950580319720545,1.9085211321254563 m10.68872032424296,-13.890870799737169 l7.531207294917533,2.070276234247896 24.5114830955499,7.796061474440573 l4.755207898677398,1.0761674038385796 5.941789378417781,0.7199201017259869 " fill="none" stroke="black" stroke-width="1" /></svg>