<?xml version="1.0" encoding="utf-8" ?>
<svg baseProfile="full" height="99.1765135419589" version="1.1" width="105.54979032251819" xmlns="http://www.w3.org/2000/svg" xmlns:ev="http://www.w3.org/2001/xml-events" xmlns:xlink="http://www.w3.org/1999/xlink"><defs /><rect fill="white" height="99.1765135419589" width="105.54979032251819" x="0" y="0" /><path d="M25,25 m0.0,0.0 m29.09093842668462,4.556347370048853 l0.40897263742012746,0.37122515940813466 0.6584709087342118,1.4581487975601155 l-0.03604493287153067,5.165839557625641 m-24.77080607512784,1.9814651291573897 l5.014712498435574,0.13444626047143532 37.769896278407494,-2.726348192777972 l4.220985777633851,-0.05112298710708647 3.192664803201688,0.3013583611859363 m-28.97170340957614,8.270860793380175 l-0.04595762460226104,1.1546647817898332 -0.4558624633463443,0.9815091915124282 l-3.582639035860967,4.293578075771111 -4.290875962772142,4.2072476290193395 l-5.722701368894232,5.340196909855155 m11.034802708321253,-7.667335451681126 l0.6921974136819361,1.0644249849369747 0.2171082513681425,0.8906320370740792 l0.034244857215852874,19.449375134728474 m18.351138327423307,-31.83645812086448 l0.07430681872037731,1.1019174215920244 -0.29233955635281544,1.007099320408705 l-2.2865588063713065,3.821217321446614 -3.362885133624954,3.835988607862435 l-4.220281193315381,3.717040195840449 m11.707561480823552,-9.164535650383788 l3.28763576950027,0.1368267808828149 2.9635029768311587,-1.541878277013731 l1.4535168505499243,-0.4634178799604592 0.6062624783914761,0.2066359874168869 l0.35121120869151157,0.5682590730212589 0.004483946428584676,0.7789641311680195 l-4.271154204094613,2.80338211693413 -4.156101252948435,2.598869172859238 l-7.395954671701926,4.412996476568351 -7.409750285601491,3.838698822092683 l-7.4666646003634956,3.3645718486222003 m12.731030076166078,-16.263465740394686 l3.428135399475054,1.8462478271787588 2.1859738243081415,2.0754705478424462 m-12.771585686301963,2.996038483279829 l0.8578437939992692,0.8860755621638995 1.8914342016166688,1.943380450219548 l1.5296667503290264,12.979088870938666 m-0.7449195245814212,-15.205985132741707 l18.868648266376244,-1.6018141290733463 0.9048109474293365,0.10433279853273233 l0.6255694403844638,0.9179601341533528 -0.02937902178708439,1.1127207099312395 l-2.422981173802404,11.028793292575216 m-16.766662380611812,1.5289227196275106 l18.429015416308832,-1.1988338336526891 " fill="none" stroke="black" stroke-width="1" /></svg>