<?xml version="1.0" encoding="utf-8" ?>
<svg baseProfile="full" height="106.12338361068217" version="1.1" width="103.72923648331601" xmlns="http://www.w3.org/2000/svg" xmlns:ev="http://www.w3.org/2001/xml-events" xmlns:xlink="http://www.w3.org/1999/xlink"><defs /><rect fill="white" height="106.12338361068217" width="103.72923648331601" x="0" y="0" /><path d="M25,25 m0.0,0.0 m27.691096980855463,0.5855922237819314 l0.45230953602785384,0.2601150394871436 0.8034755096047869,1.5785895051587433 l-0.08050438781198642,6.988362341411982 m-20.10387815046115,-5.245792676980328 l0.6724410793295513,0.953586543361086 0.09888077091215589,0.9535624871175621 l-0.24972081569699117,4.169369857367512 22.018221301134158,-1.8508951631706285 l18.208087370762627,-0.9963340447440835 m0.5902195809695866,-6.113087294377931 l0.5997653205692629,0.8681427857282001 0.24965001146699461,1.0160502926777097 l-1.2105544918945634,5.623515779470326 m-28.48710182284518,3.5036885268486597 l-0.0909389504880953,0.5584031977983408 -0.8599447924226191,0.5527202039351359 l-7.992450933873798,3.3776024745640454 -5.943132955850876,1.9428890103331988 m-2.2417664138871967,4.1643975771673 l2.613764999357514,0.10683663030631751 12.024084648118274,-1.4201137675075586 l6.085368569226963,-0.3309786619153046 m-9.114546488826353,-3.297898453654592 l0.6404697981993476,1.0772669169019313 -0.0598259442751084,12.858206719323828 m-0.4264155992648892,-9.757857395571325 l-2.4708373806348827,2.920770580758534 -2.545005883195395,2.4088042183729765 l-2.902709459455096,2.093784745729981 -3.158300354168998,1.578801843660092 m12.853659522129567,-7.086921211247677 l2.5552783540277084,1.8763020105326984 1.6099647716414949,2.4909232587946897 m12.002907615360595,-13.969581168193816 l-0.31520993698299454,1.6546356602294925 -1.7006535702427577,2.8830025861661004 l-2.0985715214405984,2.591171519720943 -2.4183406378136607,2.239698919363745 m6.057518260904688,-5.0261650732493885 l2.4428579364309635,0.11921508382851839 11.625936542326492,-1.6091176348779825 l1.2520407454388245,-0.08386281304712234 0.6689542527667587,0.22714210138253138 l0.3091714321158934,1.2968938326338777 -0.7429510006899088,3.2780357552568278 l-1.0044922528612368,2.6374104215863525 -1.4392863989276732,2.6886395111542476 l-1.0030091584838225,1.2048711334860636 -0.5793347008660992,0.25185113046522806 l-1.1795162644391515,-0.2718196215106293 -1.0716294504461727,-0.6907347470420949 m-3.6500579419272654,-10.12429026529083 l-0.36835839821205507,2.021263767164683 -1.2887128274291433,2.590122575360397 l-1.5693758903375177,2.2592269129092744 -2.0238482968967335,2.116068990851012 m-6.2640103556097015,-1.874539201021508 l-0.3714655992509972,1.682576379269245 -1.7829053251663132,2.2097141913769973 l-3.155203521227648,3.222819964950098 -3.5743875632245072,2.9944491305151644 l-6.757437234558297,4.283312256727292 -4.574471583369995,2.00347451200047 l-3.7932903561534386,1.1786094137093555 m24.62815899957634,-15.282321906482887 l7.872159021856307,4.817377934784578 12.245502174178059,6.708562683401358 l2.603102945393098,1.1789278766187379 2.9183430442455407,0.6099707143906213 m-25.55021468743856,-6.874061583188198 l0.6788330009770391,1.2417726315146937 0.16135224843081405,0.7918264528604169 l-0.10661622537042346,18.371855069759683 -0.19173930316767432,1.4382031954457382 l-0.5113804988095698,0.6569850725812633 -0.7372201594943203,0.07178414170111957 l-0.8449699173643512,-0.34211364075866546 -2.0705935866858227,-1.4905860784190088 m-8.783566790427527,-14.731876672326933 l4.134669353382485,2.074094105247345 2.0035223037816796,1.453592879086244 l0.8199526325496281,0.9557609511632328 m-12.744182296209269,8.707991485205673 l1.3661602271996391,0.5905075576179941 1.2268634695648788,-0.19632064219202291 l10.775614291505388,-4.8644991090716605 m15.672862368240123,-10.118627787261714 l-0.4211372274558403,1.0058401447527685 -1.5212152369575578,1.5523083091203096 l-1.8418708546115974,1.3794854552576268 -2.0519141997947523,1.1466543768686743 m0.24066402294221026,2.600389222996824 l3.4535849036715804,1.5201270992282938 4.248567454831293,2.5798789004271736 l2.845159537450528,2.1550715838977776 2.0947229679272024,2.1748423186016863 " fill="none" stroke="black" stroke-width="1" /></svg>