<?xml version="1.0" encoding="utf-8" ?>
<svg baseProfile="full" height="108.77760357788998" version="1.1" width="103.96919265133779" xmlns="http://www.w3.org/2000/svg" xmlns:ev="http://www.w3.org/2001/xml-events" xmlns:xlink="http://www.w3.org/1999/xlink"><defs /><rect fill="white" height="108.77760357788998" width="103.96919265133779" x="0" y="0" /><path d="M25,25 m0.0,0.0 m14.394761437279207,13.418572768733505 l0.5348184471488612,0.39553269368416394 2.315245732786263,2.387796158070617 l2.049339734472465,2.4111955377151286 m7.862198801717648,-7.663556135272268 l2.7118331598597,3.5771455614986882 1.2953337261962372,2.666614718403309 m14.212526412553284,-7.029428645137955 l0.13840838632846117,0.9484683874739286 -0.6595711816492228,1.1443333398890698 l-2.6012742068081587,3.0787920615529867 -2.65010944159579,2.5547484894680337 m-30.684971618300192,4.330135121363862 l-0.9828975788540931,3.9272929151014466 -2.077598881336148,4.18030916569691 m4.251115288934264,-6.4648565801084 l25.12067774099198,-2.3726685120363302 15.539882581708634,-0.8253207939115729 l1.749471090917431,0.10278064617083142 1.0315672453518714,0.3110794734794454 l0.41843577363507384,0.45812183332410883 -0.08834908418961059,1.25173072985467 l-1.0692378500806694,1.4533552934134157 -2.2605533013992853,1.8984744941628517 m-32.763611447205555,3.6673567846409227 l1.3650628779101237,0.1306853329588631 1.6995182264535964,-0.10025229839635841 l16.287555352477263,-2.3665118396749545 1.0630297218019427,0.2895617726234974 l0.15394518250086928,0.5342988650882361 -0.7206505535952282,0.8186156364857095 l-7.636402312792043,5.667368625167923 m-1.924342205755389,0.48099123789499904 l2.059453098387816,3.6010431059200747 1.433555252989736,4.599332574020163 l0.41777830907232916,4.3445424157130095 -0.6237744851009034,4.371435369075238 l-0.7627707337084495,2.590731060995092 -0.9581210824537325,2.085048201376272 l-0.5723012259682762,0.9346469203425972 -1.273240387451599,0.9880610910682522 l-0.6723971125983358,-0.4051006080904976 -1.2550866817506545,-1.227270330368602 l-1.0850314159120107,-1.8406155078015263 m-20.669121266019612,-13.348060057696422 l2.0790624844575207,0.3942310247397014 3.0326870020712193,0.0480108217200229 l20.881297144836896,-2.075888491332791 12.86926177469216,-0.8376398755312242 l4.570060845825192,-0.012569751226154174 3.031373230642701,0.49337669001991724 " fill="none" stroke="black" stroke-width="1" /></svg>