<?xml version="1.0" encoding="utf-8" ?>
<svg baseProfile="full" height="109.49251304846257" version="1.1" width="106.8001592438668" xmlns="http://www.w3.org/2000/svg" xmlns:ev="http://www.w3.org/2001/xml-events" xmlns:xlink="http://www.w3.org/1999/xlink"><defs /><rect fill="white" height="109.49251304846257" width="106.8001592438668" x="0" y="0" /><path d="M25,25.000000596046448 m0.0,0.0 m12.776782512664795,12.176849842071533 l0.5059051886200905,0.08838403038680553 3.10846209526062,0.18384292721748352 l25.12861728668213,-2.261344790458679 4.830332696437836,0.15344795770943165 m-18.154163360595703,-10.341180562973022 l1.036541387438774,1.6661012172698975 0.20058611407876015,1.4606188237667084 l0.0883814413100481,18.893684148788452 m-27.958898544311523,1.8895094096660614 l3.178505599498749,0.41279077529907227 3.3481365442276,0.054184491746127605 l37.62188673019409,-2.5333642959594727 6.344396471977234,-0.1874166913330555 l4.744687080383301,0.43855905532836914 m-49.969096183776855,15.041717290878296 l4.962452054023743,0.31276222318410873 33.248329162597656,-2.2866983711719513 l5.302709937095642,-0.1986825279891491 3.6551985144615173,0.30969681218266487 m-16.613874435424805,-8.784958124160767 l0.8132990449666977,1.3723176717758179 0.3084727004170418,1.897476464509964 l-0.2787468396127224,28.486547470092773 -0.4776887223124504,1.0018517076969147 l-0.6991052627563477,0.24581549689173698 -1.7474311590194702,-0.9718094021081924 l-2.309105396270752,-2.0933321118354797 m-16.05087161064148,-13.002161979675293 l1.9190539419651031,1.5236909687519073 1.9851137697696686,2.1467775106430054 l1.5792940557003021,2.2317589819431305 0.6351201981306076,1.406177431344986 " fill="none" stroke="black" stroke-width="1" /></svg>