<?xml version="1.0" encoding="utf-8" ?>
<svg baseProfile="full" height="97.51585886536823" version="1.1" width="98.36840221044845" xmlns="http://www.w3.org/2000/svg" xmlns:ev="http://www.w3.org/2001/xml-events" xmlns:xlink="http://www.w3.org/1999/xlink"><defs /><rect fill="white" height="97.51585886536823" width="98.36840221044845" x="0" y="0" /><path d="M25,25 m0.0,0.0 m14.344597460474784,2.263093804718693 l0.0483508879664203,0.5507549170156406 -0.24217346191457179,2.713934006995712 l-2.0391322211009797,10.643228980303174 -1.5997886654681526,6.663978363831999 l-1.8208292958934424,5.6367367711709075 0.18978396990692567,0.7892955095814599 l6.526414552362601,1.1762362575923682 7.135687484769881,1.6716160006279979 l7.061764471204853,2.0168758271650358 4.698157413533769,1.5781164283403137 l2.6943716598909466,1.4989897420572278 2.476715884144262,1.9283390042908073 m-24.686472055502595,-29.897259833589448 l3.5639031928014946,0.04296607982310132 15.67536212908018,-2.1705254073730864 l1.196629840539288,0.04232553895190894 1.0877645334094228,0.3977904988820266 l0.5739613017152069,1.0887335258116095 -1.2444034302509912,20.112950846798867 l-1.2492455075916733,7.963704097609226 -1.374352661140993,5.700864550348978 l-1.420997004928249,3.6018359347573274 -1.1713532985904536,1.31299893838638 l-1.2998136732490566,0.18827848127000316 -1.213765070833164,-0.4206219044838802 m-6.045425136776462,-34.92534229580372 l2.1070010113059725,1.3390490791557943 1.824772103058205,1.7177470684083784 l1.4584271055754268,1.7784311610262584 0.7952171173033226,1.6236831580145463 m-7.705646148632435,9.06380306501213 l1.6818590375673936,1.2741943356808474 1.750629893750801,1.8190357560714456 l1.4248797961315658,1.941937456050003 0.7234261386031382,1.5309361277149758 m-23.204176318453364,-9.798934166092963 l2.021517263536589,0.3670893262850078 2.1399278777856257,0.038113823728561536 l18.169138052132958,-1.6702134633326273 11.771942451802984,-0.8206100584518697 l8.573050007406355,-0.511948169101858 2.9707235230146702,0.36264286683851127 " fill="none" stroke="black" stroke-width="1" /></svg>