<?xml version="1.0" encoding="utf-8" ?>
<svg baseProfile="full" height="97.87734602596237" version="1.1" width="101.72839152007099" xmlns="http://www.w3.org/2000/svg" xmlns:ev="http://www.w3.org/2001/xml-events" xmlns:xlink="http://www.w3.org/1999/xlink"><defs /><rect fill="white" height="97.87734602596237" width="101.72839152007099" x="0" y="0" /><path d="M25,25 m0.0,0.0 m26.62488281026582,4.8167595534742516 l0.4130246163032065,0.3665176146240054 0.6502050217625577,1.34285698999138 l0.006080727978829838,4.899600237006571 m-20.781482498329098,0.4653063443780123 l-1.0574310931678015,3.9292438045810134 -2.1304088585543526,4.553287801092256 m3.8766082441174636,-7.223391790059255 l25.37148522678522,-1.8696669787795732 15.958275414761246,-0.7282378799209 l1.1229248483333498,0.23767343856705267 0.44286568618845584,0.3646955895413975 l-0.06711420879478587,0.49567452065915296 -1.050240189033625,1.1817844719317712 l-3.174423974635795,2.2159426988773614 m-21.586531657531797,1.0946643027288598 l0.07211203548264704,0.9745306419923409 -0.27747715542251156,0.8167617955078218 l-3.037043782234693,4.242111396552548 -3.6264196231955808,3.5356586640012635 l-4.513383049248307,3.345847443896074 m21.243801626228553,-13.68764163077093 l0.661700101967512,0.6511762770007613 0.2821916594345686,1.2496074970934539 l0.09980524452447731,6.681842704580677 0.45927791933301326,1.9235809677829034 l0.5689263354103826,0.7705626236685411 1.6763792701518627,0.8317005757732802 l2.4783255264723985,0.4870770266640832 4.821895228986407,0.13096352483912185 l3.4498148686845544,-0.21571162832743157 1.775923011441374,-0.6169701242223113 l0.9738421856054447,-0.8337853626298549 m-36.07646428711142,8.064152191603737 l3.937464389447741,0.2963027976497089 19.222632164461857,-1.571922271757246 l2.1580615531264167,0.07405435383592071 m-12.94146453351675,1.945429541985912 l0.6375522606385289,0.774094331065757 0.21195030585947536,0.9923746360719965 l-0.015374630605287562,9.098227767807934 m-20.187414528321177,1.3253397344006137 l1.9656329594953574,0.39638535923353774 2.443979787735287,0.052884471968800695 l18.63340688300041,-1.5328159883600418 12.864292777270169,-0.716804835627439 l3.1458518213278968,0.0026639431926891595 2.9509711933842655,0.4332756908542843 " fill="none" stroke="black" stroke-width="1" /></svg>