<?xml version="1.0" encoding="utf-8" ?>
<svg baseProfile="full" height="115.86300391478822" version="1.1" width="115.01001537526321" xmlns="http://www.w3.org/2000/svg" xmlns:ev="http://www.w3.org/2001/xml-events" xmlns:xlink="http://www.w3.org/1999/xlink"><defs /><rect fill="white" height="115.86300391478822" width="115.01001537526321" x="0" y="0" /><path d="M25.41848327487407,25 m0.0,0.0 m26.736518196984704,3.485011231842428 l0.4147168882773703,0.44408259625529706 0.6634721728522561,1.3413370229136496 l0.04877354322503214,4.898754010469497 m-23.02481630351334,1.0414646178311986 l-0.8212919985799475,2.085939250710469 -1.3257943428741152,2.960607207273489 l-1.7979817636586526,3.434078684058984 -1.3120796675873805,1.959861995868473 m4.6498656180516225,-7.713845119710486 l32.71731879629524,-2.8301254985231896 11.657358970116599,-0.6590233428657444 l2.013075317838181,0.008479833613718438 1.2891487756060829,0.2896870097178585 l0.6510771299202752,0.4797931836401448 0.11108689589034323,0.6118597145700453 l-0.29622572779875384,1.4622485914361776 -1.4360074303473054,3.199871763622276 l-2.0200664990774633,2.2248545198254446 m-36.02764090034004,6.590017017568762 l4.019044146313823,0.15373011866435887 11.773183503644185,-1.6931668405770557 l5.441906209752469,-0.9751430844193382 3.2887510379186837,-0.07253775198825282 l0.7545604603147795,0.27352394491188115 m-13.873577378898508,12.871534816334913 l12.850125695280466,-0.34318674342419875 2.758069729621808,0.15646925358830877 m-15.35894422475277,-9.657010543013952 l0.445169696876423,1.8996847454270172 -0.4611965717334294,5.509591115025716 l-0.7600130208468381,7.366847890859953 -1.1808786678169485,4.854640121446123 l-1.4439346462542029,3.2715154669156163 -1.6242302907284891,2.360051483758866 l-2.792868714294901,2.721284535036648 -3.028555450284841,2.059975208822612 m12.66492573417728,-12.560264618975651 l0.5297962732284707,1.93696134994736 -0.4342908881920952,18.805218416274023 l0.24337321188898078,1.1169098316096993 0.6239875692955265,0.4148068556316442 l0.9843376243344987,0.0766140528134484 1.2794754229017347,-0.10423419536934875 l9.565583613388863,-7.547042001355646 6.912676117619332,-4.156001026418542 m11.909228529203833,-13.103710152836436 l0.07356218362749638,1.18228403359081 -0.8509018738503596,1.3910648134547858 l-5.4354955666583065,4.161476778447742 -5.290422108690641,3.1697586938727245 m-2.1549333528411436,-5.204671732261256 l1.743348381129971,1.076156260869571 3.0108129533258334,2.4780554946617133 l13.651566242155843,11.504220486790688 1.867782848951597,1.1435460598103602 " fill="none" stroke="black" stroke-width="1" /></svg>