<?xml version="1.0" encoding="utf-8" ?>
<svg baseProfile="full" height="109.49251376092434" version="1.1" width="101.76509037613869" xmlns="http://www.w3.org/2000/svg" xmlns:ev="http://www.w3.org/2001/xml-events" xmlns:xlink="http://www.w3.org/1999/xlink"><defs /><rect fill="white" height="109.49251376092434" width="101.76509037613869" x="0" y="0" /><path d="M25,25.00000090180059 m0.0,0.0 m25.89303731918335,-9.0180058975875e-07 l0.5417627096176147,0.21909521892666817 2.3217453062534332,1.370341032743454 l1.68238565325737,1.4138279855251312 1.760396808385849,2.155763953924179 l0.6824317574501038,1.6535048186779022 m-21.330578327178955,4.235840737819672 l-0.9871940314769745,4.454272091388702 -2.0177507400512695,5.573151707649231 m3.4736549854278564,-8.74787449836731 l36.30938768386841,-4.018042087554932 2.149788737297058,0.10490013286471367 l1.0689190775156021,0.47935374081134796 0.21710343658924103,0.7416041195392609 l-1.2050236016511917,1.8198181688785553 -2.468472719192505,1.8848827481269836 m-29.87130641937256,6.54895544052124 l0.8883314579725266,0.9772974252700806 0.4704219102859497,1.7740072309970856 l-0.17557701095938683,36.85181379318237 m0.4352027550339699,-38.75196695327759 l14.566512107849121,-2.092193216085434 6.099145412445068,-0.5591492354869843 l0.5988602340221405,0.34723270684480667 0.36883100867271423,1.0798737406730652 l-2.658272087574005,9.755712151527405 m-18.6323881149292,2.684912085533142 l19.858988523483276,-2.3048152029514313 m-20.363905429840088,14.032716751098633 l19.048004150390625,-2.6142871379852295 4.508049786090851,-0.37076056003570557 l0.5988602340221405,0.378769151866436 0.36883100867271423,1.1784666031599045 l-2.658355236053467,12.142853736877441 m-21.69175386428833,2.8814339637756348 l22.917358875274658,-2.461211085319519 " fill="none" stroke="black" stroke-width="1" /></svg>