<?xml version="1.0" encoding="utf-8" ?>
<svg baseProfile="full" height="105.18491949362202" version="1.1" width="108.25571552509186" xmlns="http://www.w3.org/2000/svg" xmlns:ev="http://www.w3.org/2001/xml-events" xmlns:xlink="http://www.w3.org/1999/xlink"><defs /><rect fill="white" height="105.18491949362202" width="108.25571552509186" x="0" y="0" /><path d="M25,25 m0.0,0.0 m26.480898520678302,3.020377609180729 l0.46312382786659034,0.2069688622830675 3.2060582279612464,2.370473512861129 l1.6990840055058498,2.521787737155363 0.5755690848218765,1.3130154850085791 m-22.603128942334127,5.064584343829964 l3.4521336114063805,0.31300209907594756 30.222780145877167,-2.973644331472501 l4.8128032404499335,-0.20277956712565967 2.34932077796408,0.37691699538511203 m-33.57059303340161,3.6977426323495846 l0.6010734661120523,1.6345094367182178 0.1297559440987929,6.290205873701985 l0.7335604571971879,1.623011161387915 1.4543970922297402,1.1000561703660499 l2.464066570272191,0.6903606911744956 6.8704364003397185,0.29834291567863147 l10.79692411315816,-0.23351786089445964 4.968704501525291,-0.7456349622724979 m-37.54227133927536,11.843810908278117 l-0.3511793614047729,1.925872935921398 -0.9902201412548833,2.759732351190563 l-1.4496690117668345,2.9934762526588257 -1.5525235116589393,2.42451199662839 m11.53672666978836,-12.45173682447997 l2.5653794733369026,4.215125457453898 3.5994365065517924,3.8193262739689846 l2.602476541648991,2.866395519402275 1.6278795462785638,2.048604409158705 l3.774417860753868,2.7228370232443244 3.3736667120070463,1.5872916348947015 l3.9164758508263664,1.1623095445001876 4.310481816664933,0.6659138519384062 l4.8947077618170995,0.2356693544715505 4.273517208306574,-0.1814338356599908 l2.42564395603359,-0.5366331565960001 0.765627238459446,-0.8431338702198862 l-0.2879689722559564,-1.1821925212719628 -1.2016392658713089,-1.3744626073825152 m-20.648621731778942,-12.259799691631871 l1.461931133656803,2.465304714777339 1.8437967488158096,1.7288015039362759 l0.5613412990365627,0.146539215011971 0.50651766040404,-0.1391907011052891 l0.7728406360099689,-1.3060168608269032 m14.51499868339574,-5.415896598171269 l4.732048013634601,4.2648990475819435 3.112929531202963,4.138146455951707 " fill="none" stroke="black" stroke-width="1" /></svg>