<?xml version="1.0" encoding="utf-8" ?>
<svg baseProfile="full" height="133.15638295023086" version="1.1" width="97.02172895048065" xmlns="http://www.w3.org/2000/svg" xmlns:ev="http://www.w3.org/2001/xml-events" xmlns:xlink="http://www.w3.org/1999/xlink"><defs /><rect fill="white" height="133.15638295023086" width="97.02172895048065" x="0" y="0" /><path d="M25,25 m0.0,0.0 m17.649616987590697,8.885366672580695 l0.09999689336162021,0.4468338275629981 -0.14528500983394507,0.8793783451096278 l-1.1414033354234754,1.7083837150200456 -3.2940959744400757,3.889469517504032 l-3.533070527497365,3.015272067644376 -4.376404052757265,2.5808208938806243 m1.764200586364964,8.373940759064734 l1.1389083809091198,0.1720340771487339 1.0900533784364603,-0.12672343837448674 l11.268936793879362,-1.9926768108457753 m-5.8533516419168725,-10.51464695135032 l0.349247867349771,2.7332359670053346 -0.0503089010033953,45.41834361970631 m-0.07633528533871199,-34.956933842364336 l-1.983018319992614,7.316491928787694 -2.244563814320499,6.6204473695271115 l-2.3315137244794273,5.452134015607252 -2.283996099837427,4.162792167740015 m9.913305628000593,-19.10529611475304 l2.1558527501840183,2.6883845106180435 2.3215214305830214,4.478254232087632 m2.459932958249726,-33.05675378767004 l1.5508803411168242,6.097221334679844 1.1700131622155074,6.04499049649972 m-1.650882514025497,-12.790057259178395 l18.656952171151996,-1.9417941433073398 0.7161539248465117,0.7757768246396358 l0.16528118274505413,1.290278112073987 -1.8247343805151983,11.471081766029382 m-8.884612120721384,-12.51452818695726 l0.09511058790003935,12.484500277155677 m-7.710488615781683,-5.8102938619933 l12.688370674610013,-1.2956151675742456 m-12.28749385294327,8.145097454014097 l15.930727653041385,-1.3670158259613658 m-11.959374027885247,2.7680883127956446 l-0.0954965821857199,1.0424774987721868 -0.426768713702924,1.5216918676912512 l-1.1839505847670073,3.0589857941983283 -1.6601718767943199,2.513188330794321 l-2.410482034641714,2.534487452143108 m12.5921238057088,-12.34479708486298 l0.5638665299871318,1.369569755175899 -0.08819505765400959,5.721469575401882 l0.2822874163295816,0.9950616650102581 0.573703740548737,0.6980051828009742 l1.4522298675495189,0.604978123366835 3.1004805428170403,0.12488365248531887 l3.0329154997455174,-0.34242743907777856 1.7350552437166884,-0.6883589381176101 m-16.583979139097785,0.6931101619733262 l-0.052402257045031465,1.5879532991396295 -0.3922565017736578,1.6780503429374987 l-2.0639528109268555,5.333842818325924 -2.6275494398061463,4.763728565506455 l-2.8383432879285517,3.7251655875398595 m7.324229828668797,-10.897435399913856 l1.2374692381098673,0.43512835653284626 0.8249431767642152,0.013739186594692497 l7.8417008166809214,-2.0068129134233406 0.3864154989492463,0.253735418996884 l0.160192154102352,0.5435503824685514 -0.091401570945438,0.7306705169699893 l-1.3713263351138767,3.1976253468204505 -1.7150040581366917,3.23717233471208 l-2.1885339342547137,3.573440437835681 -2.5997560152177073,3.6149850588219836 l-2.932979404658067,5.463747359461426 -1.937801894572805,6.178517909367135 l-1.4235933131480873,5.36708297338463 -1.1728572228892482,4.78370351407098 l-1.1592774085692037,4.413859229893375 -1.2991955045413965,3.907093735644226 l-1.2864744257251564,3.329230416635104 m1.9840598807701233,-24.506740335646555 l5.6029182029647115,7.730603773759942 6.753205699767951,8.518667263327048 l2.4851657086417656,2.7697853035931383 1.9731058830320003,1.2786975311016693 " fill="none" stroke="black" stroke-width="1" /></svg>