<?xml version="1.0" encoding="utf-8" ?>
<svg baseProfile="full" height="102.08058851243032" version="1.1" width="100.21660960294781" xmlns="http://www.w3.org/2000/svg" xmlns:ev="http://www.w3.org/2001/xml-events" xmlns:xlink="http://www.w3.org/1999/xlink"><defs /><rect fill="white" height="102.08058851243032" width="100.21660960294781" x="0" y="0" /><path d="M25,25 m0.0,0.0 m30.29983742817489,3.2783932434122813 l0.3213590360646365,0.39027870806845677 0.4759023907004852,1.0938580062775942 l0.09189611690544124,1.1925965904479496 -0.03329519823302316,11.07472244552959 m-14.461895539707688,-8.242018908254288 l0.4263509759417632,1.3042205926296573 -0.31864690907969184,1.7610479841691113 l-1.8169126038797079,7.027839205966266 0.05568850979370489,0.7443122311335528 l0.4522126353975843,0.364189745921118 16.48466266512476,-2.008229147419068 l13.383588604564718,-1.205324394935724 m1.377258221720995,-9.390927664298015 l0.3906017569254034,1.0080140541385645 0.12566975019379695,1.2449734156400187 l-1.6371032832680115,10.554462884866078 m-34.961155221026424,9.225703310689138 l3.8233207040009733,0.21844652970966233 27.019133578174294,-2.7003178990091503 l5.975803449864131,-0.20183758336948926 2.7423325345947824,0.261818658854781 m-33.33132548290441,3.429016972978615 l0.4231083178885303,2.0933156237134436 -0.05228880395362565,19.56203390557019 m0.22978095385368666,-23.409619197827674 l10.677627316770634,-1.62266849856599 m-9.614124484433807,8.975642908863732 l8.819830405886599,-1.4901554136301944 m-16.022384798321244,13.675752199094514 l1.0427017873311022,0.2685168458309396 1.7855200320525384,-0.2670124534506756 l18.78193927173577,-8.471724187344796 m0.40966630200468906,-21.29626935139365 l0.5268490746295027,1.0367458585127618 0.17107409089393963,1.1855807944632009 l0.06963626329338557,30.389337912604233 " fill="none" stroke="black" stroke-width="1" /></svg>