<?xml version="1.0" encoding="utf-8" ?>
<svg baseProfile="full" height="115.9025655163701" version="1.1" width="104.28947244224878" xmlns="http://www.w3.org/2000/svg" xmlns:ev="http://www.w3.org/2001/xml-events" xmlns:xlink="http://www.w3.org/1999/xlink"><defs /><rect fill="white" height="115.9025655163701" width="104.28947244224878" x="0" y="0" /><path d="M25,25 m0.0,0.0 m28.16018596496621,2.907040365300693 l0.42454175496273483,0.2220245338141694 2.734846243079168,2.5354450907792945 l1.4579894975408974,2.7509307016863076 0.4955922348671153,1.454200964624351 m-20.971788077860072,5.74134219475171 l3.178835774251038,0.3776752606495277 27.744903198224762,-3.402619052734526 l4.212177111656216,-0.2140183197189469 2.1985497075595664,0.44060205425276155 m-20.616705600863295,3.9609821368688163 l0.6624268877463813,2.1397409068345294 0.029053866047963693,4.639195248270666 l-2.3883364849756514,21.286019930555675 -1.0631375009918806,8.1499543754611 l-1.4899386247161452,5.3938288988304555 -1.7601922714612923,4.360338511352465 l-2.0773108384209467,3.159881714791053 m17.65814299957078,-49.012891139586436 l0.6345565741327625,1.4903038127281854 0.21184484395348566,2.579940682530231 l-0.21899713137348772,40.27845624331121 -0.3250979876224382,1.3659078267672038 l-0.4698206730122838,0.5396908843497851 -0.5908763681449023,-0.09773012458824719 l-1.3512542632760327,-1.254996945345711 -1.490894288465632,-2.041994180947898 m-13.020629452308514,-28.51513568871016 l-0.05455559761868244,1.8152124086890256 -2.6843127795039456,6.962922199344321 l-2.42446163202582,5.042472227118653 -3.0817114732254027,4.832570223857369 m34.25175849201763,-17.742309845855964 l1.9225794093008692,3.1736151297888986 2.006371432069196,4.607992967299713 l1.6089066930699987,4.775756185108079 0.7762308030984374,3.6199047356496563 " fill="none" stroke="black" stroke-width="1" /></svg>