<?xml version="1.0" encoding="utf-8" ?>
<svg baseProfile="full" height="209.89321076305177" version="1.1" width="112.65114759207916" xmlns="http://www.w3.org/2000/svg" xmlns:ev="http://www.w3.org/2001/xml-events" xmlns:xlink="http://www.w3.org/1999/xlink"><defs /><rect fill="white" height="209.89321076305177" width="112.65114759207916" x="0" y="0" /><path d="M25,25 m0.0,0.0 m29.86726623371758,2.4812385155255803 l0.039193734808259245,0.47687690805894917 -0.4210912177734219,1.0923417098692765 l-1.2792153836407971,1.53268661509746 -4.634161573592966,3.865257831944545 l-6.0112607010438275,3.7545605423282415 -6.63268784913859,3.1322210781781172 m1.2483275268147527,-12.827519369572912 l5.640489764866004,1.1959488883965632 5.6946725255342585,2.4230395317783167 l4.917856989694635,3.004596286454492 3.79487460010163,3.481769992042254 m-24.8617427650802,0.8924752136572026 l0.708655499373837,2.1141443469503094 0.859321770098689,5.88260364820882 l0.9403574844582586,6.267870093219979 0.6369693853523607,5.845480009528052 l0.7886793656380909,5.34979082997628 1.321966153916277,5.282379297044136 l1.7020144666403185,7.180045995912925 1.2673986969012025,3.9508232969159995 l1.4222828047502962,3.7875623949541795 1.495795224540672,3.604138193865403 l1.4907875498408867,3.5054400308597167 1.5272480188638633,3.546366732669639 l1.4832125562313698,3.369737341712619 1.4447512942502374,3.600699325960872 l1.3333502886558946,3.7207056174956143 1.1479292544393547,3.6724787558118823 l1.022434798436721,3.7470025853214715 0.9167073011928191,3.989489477364198 l0.7868295667123746,4.3251333624760875 0.6525324098941502,4.314897954129755 l0.581788837314483,4.420364740268577 0.5530381062211437,4.397621933794813 l0.5835111990290451,7.25973604815339 0.416204181962767,7.127605617093425 l0.1700959889808376,6.805946904754185 -0.24398073061632353,6.816341400587816 l-0.5350639230538587,6.069384024961287 -0.7740065112637134,3.2016596169576785 l-0.6180517670600225,0.8115456215538905 -1.5376428799082422,-0.28394404927423916 l-1.5216677053479906,-1.8662303656160533 -1.489892592631638,-2.1239556467231737 m3.6724964614744073,-38.21053046629993 l0.011623512119400192,1.4486704426060104 -0.4953706917967406,1.507736282606941 l-3.1313034920423646,5.975776451372716 -4.128029061469456,5.931457098637288 l-4.707084812059309,5.221933154163467 m30.524924632775086,-6.673688842037852 l-0.2282702098302052,1.4034097791093005 -0.8615089435911395,1.2473698541261096 l-6.397478293345086,3.1031676043240743 -8.944725208580511,4.7030218321109984 l-9.942153806836519,4.819059360189744 m25.590096403678018,-28.853898785260814 l3.4414464909800273,0.9528269071710802 4.049428256796872,-1.4617870257255372 l4.6118246128089515,-2.304622174570378 1.7610982516561857,-0.3296142396479449 l1.1578461319970548,0.3224171336013041 0.7702093782630085,1.4215455170799356 l-0.01910071160814596,2.7821580816377165 -1.0744314926881737,8.26768283381953 l-1.3607771259203374,7.862818225625039 -1.3732829495919423,6.6624422020635965 l-0.5194438864521855,2.703992103908524 -0.5401057502044032,3.4125496713311425 l-0.48737514725759445,3.2064174491259316 -0.47643850211300914,2.972581284825818 l-0.4976254076224952,3.3364169396697 -0.4884456397769869,3.7540869843554936 l-0.47263227965880245,3.87087122490713 -0.45644467380335024,3.037178432965462 l-0.9978568999178585,2.8254333526334796 -0.6557346723045973,0.719181072989742 l-0.6638065399020995,0.056792138989326564 -0.6614316944082874,-1.0742710321631996 l-1.1151377990307298,-2.6807950213228864 m-0.3038888367969178,-37.35808364575282 l0.006922157121631371,3.0155960907737556 -0.8911445856741721,6.502889210010681 l-1.204202547204739,5.4768845633793894 -1.6664814711084834,5.602961739807098 l-1.8181015258533477,4.717763214064425 -4.534987730760039,4.672301175479269 l-2.7008483662634317,1.4447372463277042 " fill="none" stroke="black" stroke-width="1" /></svg>