<?xml version="1.0" encoding="utf-8" ?>
<svg baseProfile="full" height="112.17920192163962" version="1.1" width="104.24133569029044" xmlns="http://www.w3.org/2000/svg" xmlns:ev="http://www.w3.org/2001/xml-events" xmlns:xlink="http://www.w3.org/1999/xlink"><defs /><rect fill="white" height="112.17920192163962" width="104.24133569029044" x="0" y="0" /><path d="M25,25 m0.0,0.0 m29.336140774155343,4.913022736109706 l0.35537799746076604,0.41477879264888023 0.5818050054578847,1.355557431484729 l0.08643952000869856,4.207887482758633 m-18.387295520682603,1.9124443968936413 l4.020052110143797,0.17628328774078503 15.097410119734874,-1.5247323056465474 l15.819746442620838,-0.8131980882645556 2.575257553420945,0.31638002488448197 m-24.336221958727737,2.7110521958912015 l0.22631580035495774,1.273710835733199 -0.4591610464113094,0.9555320859836247 l-4.6365447836846725,5.415295054831689 -0.24374874127381374,0.6921411750117153 l0.223117689078628,0.6786474940358694 6.161625881564491,2.8610923959853367 l2.2573631656429387,1.6118895674545342 m8.418405032393494,-9.984675748409003 l0.06763028995407584,0.7312376725230803 -0.39166136367444954,1.039894753959062 l-2.8511377932452957,14.668457527899266 -2.1839976298188546,8.635996700430649 l-1.5179017221081592,-0.1523356951555902 -1.4428624130388081,-1.2143301254577488 m-6.5025984268144255,-9.739448401377757 l-0.19147109159153283,1.5838703384774204 -1.045199992966065,2.8033597504626977 l-1.3981018953455173,2.646681532197016 -1.5848921256470867,2.5582866449017483 m23.415992398330754,-8.940419043830866 l1.119036723372781,1.8094529983887944 1.39586566995115,2.7323927052766406 l1.3112391715711251,2.9292387835858307 0.6609397501330624,2.044276605075539 m-29.49501622909205,9.883524182988022 l-0.3522381473036091,2.0431082630773774 -1.0232439380433618,2.890643591833824 l-1.3508915673370754,2.8971103031403436 -1.2208273149608908,1.9815938465697693 m9.836333933365498,-12.129809577925585 l2.532958239940569,4.5723039790522 2.6157032325829768,3.2726542993204015 l3.3879077975838356,2.7209260030686813 4.116049965916509,1.7173733357217862 l4.2402468148510435,0.7867249616053205 3.6737725681890208,0.2333271707037697 l6.205949435532219,-0.12906361208834966 1.8966118628334485,-0.6490644922388067 l0.32457206030761754,-0.49945392553910534 -0.044662813609778945,-0.6103620416519095 l-0.42052209148332714,-0.7225403621522236 -1.9288701597476001,-1.7629477884059763 l-1.4698893482937725,-0.9964266749954511 m-14.217321696786692,-8.739421897964847 l1.3262684152190825,2.6211136834060293 0.993070648928874,1.035661623781552 l0.48992383747884494,0.10488997126165082 0.4797609420054706,-0.2787829784224879 l0.8776315509465644,-1.9820462641105023 m9.863723936699023,-3.502157539055275 l2.187102686246063,1.3655589147535732 1.6796761054882372,1.4513147708507126 l1.5473789111889165,1.8327289055420242 1.5332114613245151,2.3898483037280966 " fill="none" stroke="black" stroke-width="1" /></svg>