<?xml version="1.0" encoding="utf-8" ?>
<svg baseProfile="full" height="104.25101303345733" version="1.1" width="93.80258808057343" xmlns="http://www.w3.org/2000/svg" xmlns:ev="http://www.w3.org/2001/xml-events" xmlns:xlink="http://www.w3.org/1999/xlink"><defs /><rect fill="white" height="104.25101303345733" width="93.80258808057343" x="0" y="0" /><path d="M25,25 m0.0,0.0 m14.920507086962328,14.449584372131966 l0.4009318458840356,0.3482814473010285 0.481067519171783,0.8993698038937314 l0.04359949138983785,1.0303492933860603 -1.570603071444187,13.461413228123178 l-1.202485566990081,8.012860410767555 -1.4028156533621863,5.979112730197263 l-1.4741002062432647,3.5453706248104346 -2.247432447375853,3.7488240987029355 l-2.372835512337718,2.7758470241431725 m1.2157573268212434,-26.748031872440396 l1.3488935497209282,0.19776137770625604 1.7534747216021263,-0.22835282468035734 l11.758968621514702,-3.4763354939640068 1.360418329664973,-0.10283390605857126 l0.4881663602688709,0.25262438763775863 0.2440953251961321,0.5321853380658822 l-2.097026317671319,15.686050675980194 -0.1385204449466198,4.520325749244039 l0.4253749292005059,2.219349108117273 0.8382478171384375,1.3935124392051814 l1.2303126418673895,1.118803204393538 2.4843323272961504,0.8708082591985747 l3.5351218805103177,0.1033081314410482 6.620606957963657,-0.2786493857617309 l3.709893596830637,-0.6143619103510064 1.6800276219567605,-0.852360304569761 l0.9052148153502972,-0.8852713254792551 0.6124084723519441,-1.2427047106715885 l0.2509860622816035,-2.141027809419742 m-19.41492503534649,-26.541958599801355 l1.1337226502027344,1.0490563639970722 1.3390745731607863,1.4799377300841794 l1.1460620994223756,1.5790868909128941 0.458500043014131,1.040411229099824 m9.74299701579224,-7.4513430613842475 l-0.20368953703104115,1.6847415774391363 -0.9178860273449104,2.1459819966137172 l-1.2003994834302931,1.919294859264096 -1.4227772897591369,1.6287592842159526 m-12.998822316437023,2.2350204490045567 l1.404269634061673,0.2263157999788013 1.4628402701797487,-0.058134851521652715 l13.385302792139408,-1.4037713907905673 3.767766729056967,-0.1245096985585112 l1.5401131047518657,0.20844632031577232 m-11.141835658562144,1.0192787055841694 l0.07993798230360019,0.8738597324368154 -0.32075439063701083,0.5653386319937773 l-1.2248913507894343,1.7402252654831498 -1.4263226759304803,1.572617990479585 m-4.320036999203769,1.2593598251405982 l0.537584939546987,1.1654493125915504 0.0031663141215432103,16.484752695754587 m0.4469403619223819,-17.32366788956575 l11.427068438937857,-1.4071542658863359 0.6618540397563466,0.02942599052731967 l0.8268232951105456,0.4894791421509907 -0.37341126838923244,18.008175820251854 m-12.601437680688608,-12.07114838239734 l8.237375019994408,-0.9218865331784842 m-8.32239623538699,6.4004733561399645 l8.333059750127433,-1.1455998341821636 m-8.399126603737649,6.85466749930492 l12.47958138672245,-1.0483473305450315 " fill="none" stroke="black" stroke-width="1" /></svg>