<?xml version="1.0" encoding="utf-8" ?>
<svg baseProfile="full" height="109.49251513928175" version="1.1" width="103.3804834750481" xmlns="http://www.w3.org/2000/svg" xmlns:ev="http://www.w3.org/2001/xml-events" xmlns:xlink="http://www.w3.org/1999/xlink"><defs /><rect fill="white" height="109.49251513928175" width="103.3804834750481" x="0" y="0" /><path d="M25,25.000002649325097 m0.0,0.0 m25.01781702041626,-2.6493250970816007e-06 l0.4515838250517845,0.39843782782554626 2.053825855255127,2.4135833978652954 l1.2428775429725647,2.5013214349746704 m-23.52764368057251,2.1774138510227203 l-0.6727176159620285,4.39979761838913 -1.5236236155033112,5.338186025619507 m2.086845636367798,-7.336035966873169 l32.59831428527832,-2.4229389429092407 12.361321449279785,-0.611925944685936 l1.2830515205860138,0.3147878870368004 0.6063047796487808,0.5311456322669983 l0.059867873787879944,0.6861809641122818 -1.000654473900795,1.5906065702438354 l-2.354777008295059,2.0120008289813995 m-32.926623821258545,2.802587151527405 l0.7239177823066711,0.9688925743103027 0.4548858106136322,1.607273668050766 l-0.025762252043932676,42.12120056152344 m-10.43548583984375,-39.60855722427368 l0.8736070990562439,0.5780021473765373 0.3180112689733505,1.1094621568918228 l-1.3330823183059692,8.373169302940369 0.054403902031481266,0.6094494834542274 l0.41070230305194855,0.5349193140864372 10.155290365219116,-1.2797889113426208 m-14.68213438987732,8.583866357803345 l3.1224066019058228,0.13123368844389915 11.388969421386719,-1.593240350484848 m-8.709655404090881,2.202571779489517 l0.28990520164370537,1.6811749339103699 -0.11846311390399933,2.338424324989319 l-0.9734132140874863,4.845091998577118 -2.0121581852436066,4.761442244052887 l-2.666420042514801,3.807958662509918 m22.561581134796143,-41.21866226196289 l2.338424324989319,0.5216917395591736 15.050855875015259,-2.1125930547714233 l1.037762239575386,0.2568461559712887 0.4242246225476265,1.0443662852048874 l-1.5521621704101562,12.218235731124878 m-21.79678201675415,-5.036606192588806 l1.6585327684879303,0.44600192457437515 1.6585327684879303,0.030592367984354496 l25.96669912338257,-2.700619101524353 3.342852294445038,0.18254198133945465 m-27.834670543670654,8.281972408294678 l1.9840127229690552,0.28329141438007355 16.829359531402588,-1.520046591758728 m-21.494886875152588,7.436667084693909 l-0.5663666129112244,3.216748535633087 -1.147041767835617,3.378702402114868 m2.865481674671173,-6.088205575942993 l19.04325246810913,-2.330169379711151 5.855494737625122,-0.5037078261375427 l2.2377927601337433,0.07759631611406803 0.998767539858818,0.5100758746266365 l0.06989171262830496,0.7949887961149216 -0.548127181828022,0.9327281266450882 l-2.2437678277492523,2.1544572710990906 m-22.07854986190796,3.4315338730812073 l2.389369010925293,0.1288161799311638 12.210688591003418,-2.1448659896850586 l0.7207730412483215,0.040252599865198135 0.5336613953113556,0.3301971033215523 l0.26541557163000107,0.49906931817531586 -0.0834926962852478,0.5474982410669327 l-3.6739927530288696,5.619639754295349 -2.5223910808563232,2.947244942188263 l-2.7805739641189575,2.7063581347465515 -3.000076413154602,2.428363710641861 l-3.179326355457306,2.1116891503334045 -5.877507925033569,2.8198832273483276 m3.942238688468933,-14.752576351165771 l3.1882888078689575,1.5348660945892334 10.92858076095581,6.894515156745911 l5.78065037727356,3.3541736006736755 4.314575493335724,2.0822855830192566 l2.971144914627075,0.9151176363229752 " fill="none" stroke="black" stroke-width="1" /></svg>