<?xml version="1.0" encoding="utf-8" ?>
<svg baseProfile="full" height="112.98338559256709" version="1.1" width="101.60465418453667" xmlns="http://www.w3.org/2000/svg" xmlns:ev="http://www.w3.org/2001/xml-events" xmlns:xlink="http://www.w3.org/1999/xlink"><defs /><rect fill="white" height="112.98338559256709" width="101.60465418453667" x="0" y="0" /><path d="M25,25 m0.0,0.0 m14.476181992850186,13.581272171095536 l0.44369127269041003,0.3676279768426855 2.5367547796674144,2.6171547027048945 l1.7061249471580875,2.9044002994205824 m7.165880191856428,-8.488882511990287 l2.605848422016862,3.3602981418161493 1.3063651611045042,2.724808437917466 m13.479197963021074,-6.439984534765506 l-0.046427306055222446,0.8595576196534164 -0.6439861673526374,1.1751162632307162 l-2.089424977852139,4.657963639846276 -1.75621198083029,3.2468054925715917 m-30.686390419357974,4.049855458065288 l-0.9137438501439528,4.175734865754677 -2.0169829835453403,4.426131865764538 m4.031260725463029,-6.637616839274914 l25.957498500566796,-2.6448732618495696 14.163524642546882,-0.8910902287998057 l1.6759461352124119,0.5409504056378965 0.20954713552013485,0.5510807640105916 l-0.7236881521104669,1.3992048454573263 -2.5617835986775166,2.296934945462646 m-30.971377260686847,4.175124288895257 l0.8613260501719553,1.5940632932336352 0.045732779676058745,0.590852476772438 m-0.38635971817538145,0.7410163051429087 l0.3524307459002691,2.109962142645816 -0.02896601373240519,11.976573398021571 m-8.79865254505137,-12.587717270772727 l0.3543975616341082,0.2683923898200624 0.18883900182525873,0.7205344477463607 l-1.330380791621411,3.033129867012613 -1.8395797349900105,2.7673078163034868 l-2.26443300061425,2.4054176924994572 -2.790998023044886,2.1086209863437295 m23.899945582597006,-10.384996831379816 l1.7665133884958613,1.1166087702161667 2.2184255999614053,1.7818591667991073 l1.6827749488482984,1.8739806166351738 0.7615841358060373,1.3787276023923496 m-28.108902750169722,7.392517378818766 l0.7408516927978688,0.7190984839843126 0.7392664104803461,1.410878893173723 l2.1081825099505482,9.958983159690485 m-1.9959550444653744,-11.049854431247185 l19.29035346629532,-2.2277198888332355 3.6235434734243275,-0.3245001952854368 l1.3489993022337259,0.1604175811541893 0.7919744229986349,0.7490424481205743 l0.13299505561106928,1.3884568259705 -2.612469770514404,9.02054719375264 m-20.497567246063475,2.1261131948625493 l21.75259278736034,-1.8169633681034794 " fill="none" stroke="black" stroke-width="1" /></svg>