<?xml version="1.0" encoding="utf-8" ?>
<svg baseProfile="full" height="98.56582764960191" version="1.1" width="100.70614036721216" xmlns="http://www.w3.org/2000/svg" xmlns:ev="http://www.w3.org/2001/xml-events" xmlns:xlink="http://www.w3.org/1999/xlink"><defs /><rect fill="white" height="98.56582764960191" width="100.70614036721216" x="0" y="0" /><path d="M25,25 m0.0,0.0 m28.86931439138211,2.6147598700200962 l0.40346841274749,0.2252846209925404 2.3181276109357367,2.07925383720018 l1.15338756523244,1.3603543256428297 m-20.16332295192881,2.6156136076442764 l-0.7635026485246861,3.821361751526796 -1.7284237849259025,4.630177430947597 m2.7548652301402807,-6.764202024160336 l20.22075926412454,-2.093645965225887 14.502065255860531,-0.9296617714594902 l1.7850108099139128,0.17714247043054993 0.8986273648252135,0.3488946982656063 l0.34827514194529763,0.4981598377068817 -0.6149808566343322,1.2405644130194309 l-2.599689862187361,1.9772134794805158 m-28.229696894171344,3.210318206826234 l2.142687072104925,0.13545156394233698 15.099653200334165,-1.6843807653044796 l2.900914925240081,0.09339325362643629 m-11.013674978790547,-3.5335141437592963 l0.6946873078046745,0.8593182697982794 0.21972368943335682,0.9540436665754983 l-0.08559204311364522,12.072294961344065 m-10.430665860056681,-4.0809149916072 l2.6641055739516974,0.10023675475159667 13.719525593220656,-1.7311128375681557 l3.304775457669388,-0.16699700475425308 m-25.03997505044109,6.989378469393272 l3.5177364629113614,0.09233971601787 22.87268883088089,-2.0204739170166897 l3.296155697660828,-0.13964658101793154 1.9294304273295126,0.18921354349296765 m-29.34695466467761,6.3889594681283794 l0.4299052908287417,0.4116820592918229 0.5044883893366245,1.1293892828539642 l1.396616446263785,5.895293537556117 m-1.0852239985593264,-6.729981723526753 l13.8677151170434,-1.7506740926285393 11.708425309002498,-1.276009366964435 l0.5713429945912268,0.2902862719213514 0.25380224230480575,0.8653868466062927 l-2.256517858021634,6.003250539173451 m-16.822683777611093,-5.207285071916801 l0.8217102047799554,5.487629902093023 m8.465406110874415,-6.360527803677725 l-0.8409183231204593,5.437665443875674 m-15.659769898474256,1.7463307929503773 l24.386458756329684,-2.2433300495761266 m-29.521509713915083,6.941746552358676 l-0.6566160145459135,3.6013966626299436 -1.535043251242208,4.25123862194084 m9.740000066366653,-7.8627689515129955 l2.5140258685342856,2.9758015109505878 2.81286077925726,2.072942980361096 l3.6189786410145444,1.6389414273068428 4.475363245624209,1.1518895879978919 l6.484979891650629,0.5663544746368129 3.9033212587644064,-0.050203078747964695 l1.9954697779606747,-0.4330955805329592 0.6340668362247266,-0.3853091183551377 l0.2580998234306812,-0.44182186235776594 -0.6287009203666328,-1.103176715766216 l-0.9760171141729159,-0.7304261680525868 m-15.457437230599817,-7.574374847447825 l2.249646734721208,3.0871206068816037 0.8790993734339944,0.2985405077378418 l0.19479993588558667,-0.36695229450829564 m11.26382185722543,-3.587541341425783 l2.3910337212934416,0.9472382777040845 1.7687355673711342,1.023285181884996 l1.6781130171882108,1.5072616264364502 1.2787855203422087,1.5845197811151153 " fill="none" stroke="black" stroke-width="1" /></svg>