<?xml version="1.0" encoding="utf-8" ?>
<svg baseProfile="full" height="108.07409685254461" version="1.1" width="105.87957805507669" xmlns="http://www.w3.org/2000/svg" xmlns:ev="http://www.w3.org/2001/xml-events" xmlns:xlink="http://www.w3.org/1999/xlink"><defs /><rect fill="white" height="108.07409685254461" width="105.87957805507669" x="0" y="0" /><path d="M25,25 m0.0,0.0 m34.189616942415334,7.329969596976833 l0.3201791306127511,0.2432734676681362 0.6288435270349065,1.2016758269657026 l0.022936900567653767,4.29160069388171 m-13.872567922183313,0.7195180341180113 l-0.7092317125621186,4.1049479242836 -1.4460000305228473,4.270366566541151 m2.699512457105683,-7.2478105221868505 l17.71397592059787,-1.9688243808667216 9.434850626893493,-0.6648015590452494 l4.113275484047783,0.029701643308133886 0.6742945289970317,0.3134455130364986 l0.21408786377893382,0.47539075322872104 -0.174733638658226,0.581096441598012 l-1.0959873536325058,1.301811036339258 -1.866342773604607,1.4556878718657842 m-26.350519363531244,5.889543782998341 l1.892302125930287,0.9339798947811657 1.308546917329502,0.11178409907249072 l14.590506058821031,-2.3985275593071242 1.2525137576275993,-0.06148726097825991 l0.6628667580851896,0.23018882098916116 0.3573165603450088,0.407602672410071 l0.030375693809628027,0.5716480025895112 -0.4866232407487676,0.7092498981030526 l-4.305666367274399,3.9221581114964965 -3.288698291642277,2.4907821008852022 m-1.6613232383304362,0.921729298773607 l0.806356354428627,1.0862754330178024 0.7227783018179146,1.4989953552466133 l0.8304459110735354,2.718950277454043 0.49801042664194317,2.4538070371266327 l0.4139843363662857,5.669892597976649 -0.28339951624674975,5.885274389892558 l-0.860382012983432,5.609997020827057 -0.6323775377158887,1.9166870128410642 l-0.931928736345432,1.0020931096873986 -0.4987138660207128,0.06642384894833919 l-0.9977609299117358,-0.3801491388466375 -1.3663486678606436,-0.9138763415577361 m-15.577279477787382,-16.959089656689148 l1.8027361447795531,0.3730057438954002 2.7457407283441557,-0.010586541133632164 l18.514593165498372,-1.9556234196651903 9.405753709367554,-0.6499814429334613 l4.189978046465654,-0.00030748779133649346 2.249084353856147,0.5747269680697635 " fill="none" stroke="black" stroke-width="1" /></svg>