<?xml version="1.0" encoding="utf-8" ?>
<svg baseProfile="full" height="100.8467156150512" version="1.1" width="97.46487402084881" xmlns="http://www.w3.org/2000/svg" xmlns:ev="http://www.w3.org/2001/xml-events" xmlns:xlink="http://www.w3.org/1999/xlink"><defs /><rect fill="white" height="100.8467156150512" width="97.46487402084881" x="0" y="0" /><path d="M25,25 m0.0,0.0 m23.789371603351544,3.0933351349293763 l0.3927458123043334,0.21715236058945211 2.5884544838085635,2.2467813238685475 l1.2236190422750421,1.4776527178345735 0.529564893126318,1.0632036631774333 m-20.24513875366394,3.473460156641125 l-0.7693274746313425,4.579944651040315 -1.5287391169343478,5.30938936572422 m3.130688768399229,-8.556624248803656 l24.178738685577528,-2.390247893856924 12.53160615193668,-0.7946051307698178 l0.9774527736933264,0.23762217047360606 0.5491814916976557,0.4637034534760038 l0.11665565990823559,0.6247920712215348 -0.6758046496830411,1.5438974629857416 l-2.713625949787271,2.6531807074793803 m-27.168184797831156,4.334225671950642 l1.5467968511848802,0.13549830872782756 14.146487383909102,-1.8191497610705387 l2.6516988611272727,0.08594136412688243 m-24.612095566629456,11.298307813207934 l2.3850496007336215,0.1981324342625409 23.90583338226416,-2.577502584483937 l3.9469256483981185,-0.1759771644997662 2.1713867423574373,0.2555299485157561 m-16.870804763081143,3.1074198097704153 l0.6203912543119372,1.4703315661259133 0.23309947819289387,1.4339542984723601 l0.065735926807029,16.724058719060206 -0.24501232346808358,0.8262726898897779 l-0.408992832510884,0.3070345349842716 -0.529488738412936,-0.11794032563425956 l-2.6483091854349485,-2.441436989177219 m-7.609668139036856,-11.302775823989874 l-0.04974825158255461,1.2168887222363607 -0.32065218415607116,1.0044178377035644 l-1.9486065402696235,3.1968116692740316 -3.18184178468914,3.6481793647239655 l-3.3365365835515073,2.905324768364108 m31.065760917086987,-12.480369061580316 l2.7405904820021525,2.1293822546386996 3.2693398662595343,3.3634052151038905 l2.348326278538463,3.1542210198535368 1.1079826917366125,2.3283640270239823 " fill="none" stroke="black" stroke-width="1" /></svg>