<?xml version="1.0" encoding="utf-8" ?>
<svg baseProfile="full" height="103.83744315730179" version="1.1" width="104.37972225396544" xmlns="http://www.w3.org/2000/svg" xmlns:ev="http://www.w3.org/2001/xml-events" xmlns:xlink="http://www.w3.org/1999/xlink"><defs /><rect fill="white" height="103.83744315730179" width="104.37972225396544" x="0" y="0" /><path d="M25,25 m0.0,0.0 m29.581017275822557,2.5536163159532643 l0.36769429166225237,0.43900311331108843 0.5493975669455136,1.6050543341751184 l-0.02434926075329554,5.2298370837818435 m-20.69846454851149,1.5954821083163844 l-0.756346331784824,4.896747135898149 -1.6211147977123987,5.700165905157506 m3.0441277941282783,-8.96866456507304 l26.02176015542172,-2.8365863118455916 10.6216124964904,-0.922345492885753 l5.79949783738648,-0.15494976156506862 1.0662209169989512,0.3633606861220955 l0.428668857871304,0.5742560039909961 -0.07525840097677448,0.7433515127389617 l-1.1875676960847212,1.6658389498979769 -2.6306380384533736,2.1301680495620006 m-33.393543166443386,6.1985600137734105 l0.9219775536317169,0.22909551164785202 1.745682936520217,-0.0011261874273093763 l18.95675554974546,-2.091603739300497 2.5890584488448214,-0.17122081841050843 l2.0484448901972674,0.19616750383146425 m-30.60941404357786,10.839234447875663 l3.5156723960758405,0.19723130292459062 26.893327730444614,-2.4536478252256844 l3.1876583665322693,-0.12933555054261095 3.0369808404650382,0.32473504584277735 m-19.742156086946203,2.939857056044665 l0.60572508508835,0.9691023516300802 0.31627536029322073,1.7809762201573947 l-0.04736050377785674,19.106093427956882 -0.307986283963943,0.9349696080019174 l-0.48886382007567214,0.35401972098577916 -0.6268241205709663,-0.11276827791629246 l-3.2086236160313066,-2.7273473462235764 m-9.486156392842396,-12.702049208282098 l-0.2638739325090768,1.7951751583641486 -2.2849214334841186,3.4026858591622626 l-3.522315934183353,4.048294997626225 -4.155136138131653,3.8561139894403778 m35.59273318228507,-13.69019121238862 l3.8395068953310054,2.753687475730137 3.2051663310131193,2.957676673940802 l2.7834037285964506,3.280339942279045 1.7748461596540523,2.917878190709562 " fill="none" stroke="black" stroke-width="1" /></svg>