<?xml version="1.0" encoding="utf-8" ?>
<svg baseProfile="full" height="94.10470878778835" version="1.1" width="108.94449586702106" xmlns="http://www.w3.org/2000/svg" xmlns:ev="http://www.w3.org/2001/xml-events" xmlns:xlink="http://www.w3.org/1999/xlink"><defs /><rect fill="white" height="94.10470878778835" width="108.94449586702106" x="0" y="0" /><path d="M25,25 m0.0,0.0 m12.54143506048327,9.644172415859895 l0.4959021381958395,0.12605587341375216 2.6284270902240108,0.11753095555740553 l11.614546366082571,-2.134252110232376 1.2253662287749423,0.0854348957437983 l0.8201901627552449,0.7081427859598308 0.08447356399479918,0.6558917067989102 l-0.4340033077280046,0.6978401005426913 -4.265323430412683,5.964502493862592 m-0.38151023457372746,1.3761460549617701 l2.046378535897855,1.7031130871403892 1.3919338077077708,2.702946997101337 l0.6497889528888035,2.2958240816574524 0.11866562157710982,2.542761400753688 l-0.7222468386207229,2.276399231100609 -1.1302947082189287,0.7890756133406455 l-0.6481114829888198,-0.08696674220520417 -1.785291543481589,-1.5388782474831963 m-7.486456500252073,-6.974818307305781 l2.412695062909551,0.23350036117318845 12.850008440982894,-1.4377242995700574 m6.732915440921353,-14.05368222964561 l1.3390856440303378,0.11722505789012776 1.9267382519489342,-0.0634057736283495 l13.79663379360212,-1.4888648138836416 1.425431825879645,0.01787068303662943 l1.1931748799677941,0.4524393935803063 0.503943044472766,1.2912094156753247 l-0.10354473006074807,7.322380583913859 m-18.486820315407876,-3.98417821488701 l2.852248625697514,0.3682474210267465 2.1971636228273645,-1.0793384798788763 m2.431499773651656,-3.509385024275795 l0.3134099693219576,1.7256601152969433 -1.0595911062713044,5.234057287887307 l-0.5683179785018454,0.7122089699992397 -0.8046223642169054,0.461056586083876 l-0.5407315713551047,0.068408415404245 -0.41404737324077906,-0.020993490285633038 m-21.059945940211268,4.653843256414811 l2.603994243171657,0.20040795390412425 24.80045833825068,-1.6296840003317585 l2.6941434354277947,0.16441691823832041 1.8554684041068021,0.26312928873725616 m-17.710141669630854,1.5747016518748806 l-0.2735428626904947,0.7162820160867486 -0.7177055995415876,0.8890519301642152 l-2.9435542708035936,2.286631934921496 m-8.121677021604597,0.42347350753542523 l0.6008917625236139,0.9252616112446505 0.1738180408430822,13.15947436735215 m0.4351547882065034,-13.503680632575756 l21.743274193356196,-1.791044269140351 0.895120466399155,-0.00717964885491447 l1.1937211745531682,0.3330592116280683 0.5987102079661621,1.3917144913769077 l-0.028004706575237178,13.692934629984707 m-24.21360899424391,-9.629370453564473 l23.51594877051772,-1.2929478595153971 m-23.117363157592465,5.866220708694173 l22.823402291663488,-1.2239808688553007 m-22.590856239577317,5.950269939803759 l22.20110298285291,-1.1855765351076715 m-17.536077883220738,2.6321210626119105 l-0.3981433454710773,1.077858468650208 -2.3080280417488797,0.8927934805667672 l-4.538461017789976,1.4873131015941337 -5.718403361555736,1.672735199696409 m24.80262600316478,-5.168552326837075 l3.4226737554285296,2.448219433086508 2.1806301487024813,2.0039537858727328 l1.3035501964416718,1.5132431810496687 " fill="none" stroke="black" stroke-width="1" /></svg>