<?xml version="1.0" encoding="utf-8" ?>
<svg baseProfile="full" height="109.2337262435889" version="1.1" width="101.55917182140121" xmlns="http://www.w3.org/2000/svg" xmlns:ev="http://www.w3.org/2001/xml-events" xmlns:xlink="http://www.w3.org/1999/xlink"><defs /><rect fill="white" height="109.2337262435889" width="101.55917182140121" x="0" y="0" /><path d="M25,25 m0.0,0.0 m29.740845451700917,4.196764713186911 l0.3872128516604288,0.36874433144027613 0.6645215635546833,1.4246044467159718 l0.0207839104640073,4.881357666946677 m-17.375429465163787,1.156055769617929 l-0.8148843109933304,3.5122017109830206 -1.9169497820557329,4.429538826192884 m3.0428118330195266,-6.925310712716041 l21.528026235062605,-2.135770520447804 12.893581928566366,-0.7754210319389023 l1.9302490869480216,0.06994858529269524 1.0432966679034004,0.28786105363117764 l0.41510585073410766,0.4648409702107762 -0.5901645469491568,1.2099145773655728 l-3.0333459040394564,2.291615964437389 m-37.50927666227082,6.603005969144153 l2.3123258013371806,0.16676831877107495 3.0716279149084906,-0.10063092726529443 l24.86593580406118,-2.378769529765109 1.8279494007792043,-0.07423283818668742 l2.1291091198053893,0.2335112168651208 m-11.456166224972836,-4.581076497836305 l-0.1567388428641788,1.5017795997392713 -3.009076469245853,4.385644667217631 l-3.395108113025086,3.9284374046582147 -3.9910109444712307,6.440464409883569 l-3.1001415310127434,4.6972178117717585 -3.0980457043294263,8.033638677795045 l-5.521219379541147,12.209552401577774 -2.274005699025037,3.7114692083001564 m21.197687337422366,-21.29781075260239 l0.009978953764082045,1.4229755024873696 -1.54868935565467,3.150805399866489 l-4.017700858487762,5.528450272999808 -4.4107885166040095,5.350025805821666 l-0.23972701281007708,0.8935906896961451 0.5091852521271972,0.2475389996989176 l1.0653037298824481,-0.07817803705829887 19.337591620660472,-4.665189726635149 m-4.006421684865378,-5.635256270611807 l2.1189698073985856,3.4849800359412684 1.6733277312233077,3.5289656061048604 l1.3826426530810871,3.887349281272926 0.6192166983021947,3.0719187313317056 " fill="none" stroke="black" stroke-width="1" /></svg>