<?xml version="1.0" encoding="utf-8" ?>
<svg baseProfile="full" height="109.49251216558322" version="1.1" width="99.0265902876854" xmlns="http://www.w3.org/2000/svg" xmlns:ev="http://www.w3.org/2001/xml-events" xmlns:xlink="http://www.w3.org/1999/xlink"><defs /><rect fill="white" height="109.49251216558322" width="99.0265902876854" x="0" y="0" /><path d="M25,25 m0.0,0.0 m21.75027370452881,6.706967425884613e-08 l0.3865569457411766,0.4357801377773285 0.5824170634150505,1.0068379342556 l0.22245096042752266,1.1517538130283356 -0.0563926063477993,5.710234642028809 m-19.000840187072754,0.35247936844825745 l-0.9829901158809662,5.7171183824539185 -1.8580032885074615,5.893014073371887 m3.4752261638641357,-8.861551284790039 l25.70552110671997,-3.2302290201187134 9.617454409599304,-0.914028137922287 l3.500353991985321,0.023062615655362606 1.2660342454910278,0.4636618122458458 l0.4333706200122833,0.7373151928186417 -0.2091125026345253,0.9142433106899261 l-1.5844359993934631,1.9771888852119446 -2.4349990487098694,1.8969860672950745 m-32.93478965759277,7.3304688930511475 l3.7289148569107056,0.281938835978508 15.860193967819214,-2.469850927591324 l5.5842506885528564,-0.314849317073822 m-12.127493619918823,3.3981212973594666 l-0.031732607167214155,1.0997768491506577 -0.9316263347864151,1.610596626996994 l-4.023737609386444,3.7894973158836365 -5.826235413551331,3.7685000896453857 l-6.644098162651062,3.126189112663269 m15.200672149658203,-8.134562969207764 l3.2480421662330627,4.083459377288818 2.473895698785782,5.374621748924255 l1.2086358666419983,5.273421406745911 0.2103656716644764,5.831054449081421 l-0.9972859919071198,6.237232089042664 -1.840878576040268,4.944348931312561 l-0.6815518438816071,0.6564239412546158 -1.547604650259018,0.332256555557251 l-1.5751421451568604,-0.5285469442605972 -2.1756306290626526,-1.4970046281814575 m2.3337988555431366,-25.753023624420166 l-0.07310332264751196,1.1479674279689789 -0.8083962649106979,1.3018329441547394 l-3.915136754512787,3.5829663276672363 -5.045549273490906,3.1619876623153687 l-6.548405289649963,2.96526700258255 m18.85764479637146,-5.463429689407349 l-0.03437878331169486,1.294604241847992 -1.0880734026432037,1.8732349574565887 l-2.40178182721138,2.548935115337372 -2.8893670439720154,2.3771703243255615 l-7.090893387794495,4.4538381695747375 -8.171737790107727,3.667300045490265 m38.81678819656372,-30.445401668548584 l-0.34896187484264374,1.5982048213481903 -3.429100811481476,3.4612852334976196 l-4.2524707317352295,2.9317057132720947 -5.412485599517822,2.6527169346809387 m0.7469532638788223,1.705944985151291 l17.80003547668457,14.585210084915161 2.646348774433136,1.809210330247879 l2.344813793897629,0.9190623462200165 " fill="none" stroke="black" stroke-width="1" /></svg>