<?xml version="1.0" encoding="utf-8" ?>
<svg baseProfile="full" height="94.04929265254114" version="1.1" width="102.95790001667943" xmlns="http://www.w3.org/2000/svg" xmlns:ev="http://www.w3.org/2001/xml-events" xmlns:xlink="http://www.w3.org/1999/xlink"><defs /><rect fill="white" height="94.04929265254114" width="102.95790001667943" x="0" y="0" /><path d="M25,25 m0.0,0.0 m26.950527966234716,3.1314035906503634 l0.3840794105725626,0.38741411694315253 0.6410406447799999,1.5072629678937806 l-0.007358509671008971,5.526131881036773 m-21.746999386118027,0.737157033528276 l-0.6195914929544762,2.1140920125510134 -1.1321779843386148,3.141985638161367 l-1.6910600075610367,3.8637932962840336 -1.1756936644398719,2.1600526023957833 m4.623969813210893,-8.951267014162307 l28.78146845993826,-3.0998095636818723 11.142447233892645,-0.7310596150882149 l6.17307738657225,0.27360340994447674 0.6341701465611308,0.5442695703254339 l-0.0013447434900703457,0.6996985539670159 -1.2527845457708209,1.6637318901040439 l-2.993004127921402,2.252883019736825 m-11.683977038670763,1.02806422023578 l-0.11294691747039186,1.6548235778513372 -0.4451616866622742,1.1249737370170168 l-1.795627920401367,3.2495418557702127 -3.6298729571586987,4.448920420522069 l-3.7380941369194436,3.7934693045598937 -4.460620703425804,3.780896402642296 l-5.019412385744966,3.6294541772431943 -5.441350484493819,3.2789459580405294 l-5.812219103180936,2.8388596080688497 m8.137569647276216,-23.902776023187265 l2.8780836996846038,0.9057391753390356 4.232585705510703,2.0981585917342667 l22.45309823099334,15.317588937353017 2.972588229930662,2.273874485688686 l2.7592262274885915,1.6974504364151668 2.4136705432931285,0.8556306336033762 " fill="none" stroke="black" stroke-width="1" /></svg>