<?xml version="1.0" encoding="utf-8" ?>
<svg baseProfile="full" height="104.24836804722948" version="1.1" width="102.06798473941754" xmlns="http://www.w3.org/2000/svg" xmlns:ev="http://www.w3.org/2001/xml-events" xmlns:xlink="http://www.w3.org/1999/xlink"><defs /><rect fill="white" height="104.24836804722948" width="102.06798473941754" x="0" y="0" /><path d="M25,25 m0.0,0.0 m26.13723467577185,14.240430207809714 l0.3009871764427599,0.32104318354952316 0.4384375892475126,1.2117726815061207 l-0.058238625698628206,3.2955405582325707 m-15.348668273980223,1.09951882759032 l-0.8803023203745632,3.6526391511036436 -1.6640210103563906,3.696309853463178 m3.0979844513523744,-6.759648658407238 l20.63316624007433,-1.911413809235779 8.06532871614095,-0.5135857410200332 l3.6145599949626614,-0.05530860429683364 1.299106074255308,0.22080912779307615 l0.5307933105630414,0.33478195621244666 0.07385278868056835,0.43082237373144955 l-0.8513671388235899,1.0801221421014604 -2.5427061786329817,1.8564365991902767 m-27.43691596947458,1.8985406843106272 l2.1341725927256623,0.11098037947470138 16.60662208291382,-1.7671908140621684 l3.0118068487148006,0.04453772922681653 m-11.154362095316733,1.852308154983104 l-0.20270223045865982,0.7905497503125821 -1.3636154585857854,1.6871725894998462 m-6.488564897238651,0.28230223387356157 l0.4876738564343487,0.6615680226568917 0.1725615183677089,0.8374081420356924 l-0.04028772766238444,10.904628184766398 m0.6524714554780762,-11.35959827044689 l13.79841325049025,-1.4575745485887381 1.576616550699999,-0.031264853875985765 l0.5478254631100716,0.19208885524015107 0.3342081924039296,0.379997460924253 l0.10313576098425305,0.583164441674782 -0.008139923180813857,10.194093935056925 m-16.24489542820318,-6.080450042672939 l15.437887252119626,-1.3118199475814403 m-15.628052418378086,5.046764718294328 l15.65878617875431,-1.2745145537269138 m-27.22222963053578,5.5377240039248266 l1.652471959051195,0.19587803963497555 2.351471720937175,-0.006885639613323962 l29.838679360508504,-1.989481514323335 5.71091802286597,-0.10531415740707943 l3.6350448424807666,0.18950949086815885 m-30.605945010138903,1.6077669942849864 l-0.16715180914991282,0.7435607502781753 -1.023371752309223,1.444090281906671 l-3.883897907589085,3.557772330595991 -4.590072894481536,2.966224570922192 l-2.546661579940689,1.2108756043004592 -1.9256347588706657,0.6277202161810604 m26.52543777144671,-11.693148566269262 l4.082208165586709,1.883630491786478 9.974218149674064,5.493370719513451 l5.461707765559287,2.5047496771653126 m-32.323510983974884,-4.343600814316364 l2.65130593620467,0.2712745019308238 11.548674340732306,-1.2293543024596119 l1.5566024367149278,-0.0343729840345887 0.5113382336818456,0.15755616429479063 l0.4284912571754215,0.7923476305163453 -0.4324302616323732,2.793137364505245 l-1.1425710566244471,2.9764677093957936 -1.4360138796026578,2.4361420865870786 l-1.102956993607401,1.3077709794527215 -0.5868011749497984,0.4346272036326172 l-0.5054251453812232,0.13436711327542517 -2.0910084932402073,-1.3961611167222792 m-4.392540853164166,-7.618547728691514 l-0.3128287850559036,1.2831338739773095 -2.579934594748213,2.9737462890870967 l-3.2265079176441316,2.431384321450883 -3.9041136691246883,2.244765724569124 " fill="none" stroke="black" stroke-width="1" /></svg>