<?xml version="1.0" encoding="utf-8" ?>
<svg baseProfile="full" height="106.90998066801285" version="1.1" width="101.43776342321829" xmlns="http://www.w3.org/2000/svg" xmlns:ev="http://www.w3.org/2001/xml-events" xmlns:xlink="http://www.w3.org/1999/xlink"><defs /><rect fill="white" height="106.90998066801285" width="101.43776342321829" x="0" y="0" /><path d="M25,25 m0.0,0.0 m26.560407015189792,4.618729536419295 l0.3545526344924274,0.37316402062613446 0.6165395546724128,1.5872017877850833 l-0.03758742000903223,5.38952685339348 m-20.433316960542836,0.9504791999719973 l-0.7322764817294122,2.1508568657327864 -1.2457592775484985,3.0929054526422344 l-1.7569956606991377,3.620542418333146 -1.2674244645650448,2.0442487308380444 m4.774481465892284,-8.598465991571134 l27.73627196674843,-3.0651958884890496 10.811364433415502,-0.7367733165240903 l5.52923323931108,0.33676876320264987 0.5282733785903194,0.5586902586020913 l-0.07611481764681208,0.7125207978894816 -1.3067853737855764,1.6502123342480137 l-2.719962766734975,2.066908667851333 m-11.009644531937237,1.1513144547079919 l-0.10796177880398629,0.8080835420371472 -0.5598004329324271,0.9353816201341953 l-6.321967473056024,3.5509769178972586 -7.904429005217667,3.384759319321046 l-8.890374292210913,3.0096160317781995 m-10.287093858624662,11.342367414777167 l1.7432258173209354,0.3168251827529218 1.8661379584278655,-0.017748799899383032 l31.131316738443537,-4.682324619108334 8.230096038896917,-0.8382674476029462 l3.095109169643988,0.1461837745035287 m-24.799563527529894,-7.395520135571352 l0.6698097102508129,0.9166740885459592 0.2924032737273417,1.1307700374174643 l0.053110650284882766,21.218777474939884 0.5890186137240264,2.3692720686392357 l0.9927887013476284,1.4017113967621944 2.49880367084902,0.9443317856573809 l4.669006998240028,0.4644760693717874 9.689489741361882,-0.0183446788136489 l4.7466125756854005,-0.5669656851219171 1.8030954252215374,-1.9596254939917628 l0.3239738732507981,-2.4706603300573895 0.045842731996842676,-3.6390135078235395 " fill="none" stroke="black" stroke-width="1" /></svg>