<?xml version="1.0" encoding="utf-8" ?>
<svg baseProfile="full" height="97.5590123609174" version="1.1" width="105.47893895585776" xmlns="http://www.w3.org/2000/svg" xmlns:ev="http://www.w3.org/2001/xml-events" xmlns:xlink="http://www.w3.org/1999/xlink"><defs /><rect fill="white" height="97.5590123609174" width="105.47893895585776" x="0" y="0" /><path d="M25,25 m0.0,0.0 m30.667355496836816,7.041152312826698 l0.34752005855671575,0.3821629267067481 0.6293411307023187,1.51435558374786 l-0.017076290283400436,5.32562297001181 m-20.221996205593825,0.8025344998077169 l-0.7662269091941,2.0665735191735095 -1.2853922160111686,3.074016828074449 l-1.7988688756589406,3.542979817890787 -1.2697111367227247,1.9797472904378595 m4.810036310846127,-8.525380270021737 l27.325749279715847,-2.9520834134128076 10.761512894182044,-0.6733421597956546 l5.658685553871618,0.265018912439136 0.6353893983842923,0.5229519769412441 l0.0026204662261289802,0.667180617352467 -1.1708487530935219,1.5759309514232733 l-2.8808036390001357,2.141844547728575 m-11.20990436134447,0.8052148232890723 l-0.0968396907563826,1.5596520234185902 -0.41687778597277747,1.1044178252776065 l-1.7018669907772561,3.133043455875504 -3.5221519393972156,4.242696055147333 l-3.793857425827576,3.5954303457429537 -4.362153471092785,3.469053880349684 l-4.936542559900385,3.3311639841046534 -5.394200111587353,2.990369501442703 l-5.725051661375131,2.5779196002680185 m8.401880620862823,-21.80689682125961 l2.8045656319436763,0.8352052558291586 4.10936645658708,1.9763749414388727 l21.2634826632273,16.80385088189236 2.4340321612454923,2.4134694847988127 l2.2202159302922366,1.7767802119697573 " fill="none" stroke="black" stroke-width="1" /></svg>