<?xml version="1.0" encoding="utf-8" ?>
<svg baseProfile="full" height="95.4868430140067" version="1.1" width="99.72679510407215" xmlns="http://www.w3.org/2000/svg" xmlns:ev="http://www.w3.org/2001/xml-events" xmlns:xlink="http://www.w3.org/1999/xlink"><defs /><rect fill="white" height="95.4868430140067" width="99.72679510407215" x="0" y="0" /><path d="M25,25 m0.0,0.0 m25.72279989919462,3.8425360733090597 l0.42492753555813223,0.41407889834734535 0.6410241359730099,1.5585998003870942 l-0.036327962540194055,5.82971426476148 m-20.782790208600343,0.6352461537004992 l-1.050427167833791,4.323818634921657 -2.219957917180036,5.241617994101871 m3.933873858564079,-8.299640251556099 l26.14989039479232,-2.1894096451767275 15.321611788237776,-0.797817048557435 l1.1235622740913012,0.2682985197346495 0.4986084738152722,0.4420154861362808 l-0.030891132052406872,0.5818234272425229 -1.0164178510195891,1.4047493107935272 l-3.109512524959365,2.6343180433289106 m-20.93613545047317,14.488166562529111 l21.943523144344432,-2.539991700769631 2.9966934743983757,0.03318811425886477 m-21.56727257399906,-8.593679694730513 l0.7281967273424403,1.0902957503577935 0.22790775060718443,1.160241323032144 l0.283149715641018,22.291334791365344 0.9800579857483501,0.9198075316515497 l1.6572700467894743,0.48141610599752915 3.982078838955684,0.26611456883987195 l8.285376386861882,-0.3940239090753504 2.519449619882174,-0.7899816238428625 l1.2268023570760132,-0.9546988631171447 0.7099593809777849,-1.4026182072017184 " fill="none" stroke="black" stroke-width="1" /></svg>