<?xml version="1.0" encoding="utf-8" ?>
<svg baseProfile="full" height="98.07823830004673" version="1.1" width="102.88997179108979" xmlns="http://www.w3.org/2000/svg" xmlns:ev="http://www.w3.org/2001/xml-events" xmlns:xlink="http://www.w3.org/1999/xlink"><defs /><rect fill="white" height="98.07823830004673" width="102.88997179108979" x="0" y="0" /><path d="M25,25 m0.0,0.0 m26.511202095773847,2.1059553566632125 l0.33701312386965304,0.40479398365131397 0.3914838918181791,1.4107368761362282 l-0.04542609672814165,5.134974393238099 m-18.697870557896795,1.3739576982816575 l-0.7401551007756981,4.433248286965466 -1.5137509106272786,4.685887786182254 m2.6763525844906475,-7.791110306383501 l23.144737661549613,-2.342693926647379 10.810983592137488,-0.7277107819640957 l4.9262267443037056,0.18148338595267174 0.560320398882161,0.4890008154352153 l-0.030099480583949997,0.6251370409483917 -1.1213035905001247,1.4312739224669282 l-2.4388620839115562,1.9608808411253327 m-37.322907283377425,13.783874318676164 l3.8007713512219086,0.24083386500414186 28.107089061880544,-2.8408249703594994 l5.105399262260427,-0.2805711081161875 3.191012256727652,0.27182699374042335 m-13.140223663690772,-9.274807489766035 l-0.2448144837082388,2.2266964790866672 -3.3630053348169824,5.425961414456217 l-4.074604954228466,6.195216896401492 -4.269465290261903,5.455233259415306 l-3.7190098221083314,3.8404383393305035 -4.1720583489203955,3.6166649549294902 l-4.774326518179714,3.51197821301551 -3.9983835620859245,2.5299017621807396 m28.052717078473666,-22.56581873407625 l0.229121588483112,1.186171010450556 -0.2785032418006063,1.5043555029995919 l-1.1675788592242098,15.895243367284776 1.7088646654489752,2.6131728376667667 l2.2001521932090506,0.5482705628848666 5.933071743769822,0.17825650498431314 l4.171891339781232,-0.30638070884718754 2.033412292637065,-0.5522497300430124 l2.2592824298533407,-0.992966644084284 1.0418333620254703,-1.1315097141046981 l0.6176419569136998,-1.7443894496505674 0.19174029900504752,-2.5130566710990823 " fill="none" stroke="black" stroke-width="1" /></svg>