<?xml version="1.0" encoding="utf-8" ?>
<svg baseProfile="full" height="106.94254973762223" version="1.1" width="100.89342390145396" xmlns="http://www.w3.org/2000/svg" xmlns:ev="http://www.w3.org/2001/xml-events" xmlns:xlink="http://www.w3.org/1999/xlink"><defs /><rect fill="white" height="106.94254973762223" width="100.89342390145396" x="0" y="0" /><path d="M25,25 m0.0,0.0 m28.4578676006172,4.128747268180208 l0.3766167226227052,0.36932890268622354 0.5184290034740553,0.9595554280778154 l0.1597970994245109,0.9339318182126733 -0.04022827426150302,5.944436085682939 m-18.228917597163043,1.0012212852677111 l-0.9405135178838614,4.931939756735075 -2.047041600107945,6.1005222600090745 m3.33594982823686,-9.07976438456541 l23.456771145476083,-2.7176348753135984 8.756908628102748,-0.7745935925805425 l4.61031192335072,-0.12180508582849064 1.5741941062187574,0.32431915285890406 l0.7250500963824098,0.49645638010668747 0.17822873696426345,0.6172054816237094 l-0.2298104697749844,0.7128661790923182 -1.2293358391131848,1.5594926715269253 l-2.4409074032875253,2.0985397438558797 m-28.509410715281692,3.847500401490771 l-0.047131577160283614,2.2599665610922366 -3.087677548889297,6.76711780283169 l-3.4035462995414845,6.098569431599016 -4.110762201634864,6.211219188958424 m7.2407786184814915,-9.971480458237885 l0.7873209636699258,1.339405705248213 0.17101176049148412,1.1673246694636623 l-0.07640025868533934,21.738161959548002 m9.220745768792234,-33.09845122846718 l3.134550856555974,0.0855303415363358 18.50836055014435,-2.4718619717305987 l3.3500488594641977,0.17442980268589675 m-13.31804301790742,2.6430835757250595 l0.16109512865493172,0.9830754880933859 -0.4233536375439581,1.7072664188317803 l-2.3799702885366627,5.474699534208738 m-6.177442173420575,0.6102849793451862 l0.7733309014907445,1.3053854606738204 0.17592128434009313,0.9840166448942046 l-0.07043465827821967,20.334633414211513 m0.6629199860487264,-21.34503881121767 l15.058638125534761,-1.8709158447161855 1.3955366691444795,0.07093642252767347 l0.9158633490957582,0.5784267078814015 0.4660382020238917,1.4704072240507393 l0.01693261895176808,19.883755045703733 m-17.520366382002752,-11.58953554869574 l16.641604137177744,-1.7574134351591746 m-16.94232929209055,12.119788402192325 l16.74297068269175,-1.6025755167665394 " fill="none" stroke="black" stroke-width="1" /></svg>