<?xml version="1.0" encoding="utf-8" ?>
<svg baseProfile="full" height="101.35096666208986" version="1.1" width="92.13138042567422" xmlns="http://www.w3.org/2000/svg" xmlns:ev="http://www.w3.org/2001/xml-events" xmlns:xlink="http://www.w3.org/1999/xlink"><defs /><rect fill="white" height="101.35096666208986" width="92.13138042567422" x="0" y="0" /><path d="M25,25 m0.0,0.0 m21.23290245029917,2.5281060831422373 l0.3551761505799438,0.21162293595466414 1.7974191653820122,1.0727471278708023 l2.054984036721506,1.3499978152007457 1.6226941203598269,1.7804357240162476 l0.7616227990796061,1.367009228396235 m-18.27024243127786,3.2762511134141685 l-0.8599141434685487,3.815044504635091 -1.760124640206256,4.835912831547651 m3.2670166816680477,-7.719921620610409 l29.102297922320595,-2.9335349100624746 1.7309386510942237,0.09371590081701242 l0.88381460522035,0.3873032548801399 0.21279505790160516,0.6036001850600834 l-0.9460889125627973,1.4491478050527065 -2.1176867591427624,1.4360714604600135 m-24.896866968908782,5.6608246844454735 l0.7760009374821234,0.8124979651454106 0.36917307031102814,1.376532146326042 l-0.14507472510667416,29.947602426398017 m0.28430576886899644,-31.763843759101576 l12.372001745920528,-1.6589964106754607 5.083445169406873,-0.43334245744403893 l0.5142746838998443,0.26026768096402436 0.3284603478709193,0.8994786601757512 l-2.177071807663027,7.94007356719452 m-15.547973514076443,2.0384312465397283 l16.62896854910839,-1.7923449139676484 m-17.329961877733314,11.408571464763636 l15.959635779825787,-2.0035154531185397 3.8894398769652105,-0.2661643683774501 l0.5045535132839217,0.2998993161181199 0.30600112713635097,0.965753510320331 l-2.1733556307962725,9.884382446383341 m-18.244130584402654,2.230058685294467 l19.17137772429743,-1.9191635221178975 " fill="none" stroke="black" stroke-width="1" /></svg>