<?xml version="1.0" encoding="utf-8" ?>
<svg baseProfile="full" height="109.49251333251595" version="1.1" width="99.7233303746907" xmlns="http://www.w3.org/2000/svg" xmlns:ev="http://www.w3.org/2001/xml-events" xmlns:xlink="http://www.w3.org/1999/xlink"><defs /><rect fill="white" height="109.49251333251595" width="99.7233303746907" x="0" y="0" /><path d="M25,25.000000669846614 m0.0,0.0 m23.40069055557251,-6.698466137322612e-07 l0.33123932778835297,0.3893570601940155 0.7247249782085419,2.077312171459198 l-0.008703766507096589,5.337939262390137 m-22.337536811828613,0.5722850561141968 l-0.6610891968011856,6.032811403274536 -1.2316672503948212,5.427815318107605 m2.4326877295970917,-9.273430705070496 l24.93663787841797,-2.29374498128891 13.896173238754272,-0.8661289513111115 l6.34340763092041,-0.12604085728526115 1.218249425292015,0.32409369945526123 l0.5957861989736557,0.5319519340991974 0.08273043669760227,0.6866149604320526 l-0.935123935341835,1.6285669803619385 -3.2050499320030212,2.8007668256759644 m-21.829402446746826,-0.9756157547235489 l0.6091247126460075,0.9117815643548965 0.30813513323664665,1.1277380585670471 l0.03886425169184804,11.613384485244751 m-15.670827627182007,-11.036653518676758 l1.748930960893631,1.5612392127513885 1.8324553966522217,2.167505621910095 l1.5358325839042664,2.320580780506134 0.8597772568464279,2.0223701000213623 m22.418837547302246,-9.563066959381104 l-0.22111734375357628,1.619357019662857 -1.4851780235767365,2.6216498017311096 l-1.7001819610595703,2.31264129281044 -2.675638794898987,2.89032518863678 m-20.72167158126831,3.940573036670685 l0.6656545400619507,1.1366304010152817 0.19269363954663277,1.2827187776565552 l0.006505494238808751,30.289185047149658 m0.5332222580909729,-31.422958374023438 l22.48521327972412,-2.0379912853240967 2.048729509115219,0.5029327794909477 l0.8758945763111115,0.8911386132240295 0.509006567299366,2.2370563447475433 l-0.13838689774274826,27.823467254638672 -0.37887681275606155,0.9997521340847015 l-0.5652981996536255,0.463036373257637 -0.6974127888679504,0.033147751819342375 l-1.5745778381824493,-0.7957048714160919 -1.9975987076759338,-1.7454375326633453 m-20.081424713134766,-19.827357530593872 l24.580307006835938,-1.6064949333667755 m-24.93917942047119,10.142338275909424 l24.806110858917236,-1.333274096250534 " fill="none" stroke="black" stroke-width="1" /></svg>