<?xml version="1.0" encoding="utf-8" ?>
<svg baseProfile="full" height="97.36991041376518" version="1.1" width="101.43757184236485" xmlns="http://www.w3.org/2000/svg" xmlns:ev="http://www.w3.org/2001/xml-events" xmlns:xlink="http://www.w3.org/1999/xlink"><defs /><rect fill="white" height="97.36991041376518" width="101.43757184236485" x="0" y="0" /><path d="M25,25 m0.0,0.0 m14.676913616419728,3.709376649528114 l0.38995189981119327,0.1764701990879182 1.9218711275686422,0.16940534586698924 l21.42775841825142,-2.319633865966585 4.544321204444917,-0.17952636334778913 l2.167501643491541,0.26689784810372336 m-23.969459393840513,8.834600498220812 l0.5242310102647191,0.8069210349820312 0.3668240600514468,1.8997047411234858 l1.2670724316967579,10.814343344659552 m-1.1380742757313749,-12.434475629555195 l15.352714579687012,-2.2567955467008685 2.621383737691955,-0.15252947995905 l0.4706410050273713,0.7265747724802396 0.0026069622364317735,1.506434018502284 l-0.7698304682116706,8.597613520840413 m-16.158051905578812,2.764743078405466 l16.885761481076653,-2.2529071648483194 m-21.571903272162505,10.214728961247545 l-0.27757465757461713,2.012942576348649 -0.7415122437753177,2.533370755574346 l-1.2234256404560813,2.7498581752545217 -1.378365708535197,2.326016489688196 m9.672647203842256,-10.478551790154038 l1.0075301000236003,4.424071905160301 0.7345329313981752,6.375074724383254 l0.6682485302461094,6.535181614839184 m8.27764864173758,-16.175517741014673 l0.9563840080826367,1.7176822651238113 1.4495381143507897,3.079198729934068 l0.9556253985003271,3.066357880932614 0.5098926326372079,2.511021118592732 m6.36038038049841,-11.297042554811268 l1.4687248214189548,1.8593772659668488 1.862619802505964,3.282076014086551 l1.4182013606881096,3.112847883628685 0.7042423045810201,2.545579155939662 " fill="none" stroke="black" stroke-width="1" /></svg>