<?xml version="1.0" encoding="utf-8" ?>
<svg baseProfile="full" height="101.69697387683647" version="1.1" width="107.87766493202463" xmlns="http://www.w3.org/2000/svg" xmlns:ev="http://www.w3.org/2001/xml-events" xmlns:xlink="http://www.w3.org/1999/xlink"><defs /><rect fill="white" height="101.69697387683647" width="107.87766493202463" x="0" y="0" /><path d="M25,25 m0.0,0.0 m26.440899863683207,0.14268213305416153 l0.37786533775037057,0.23382315082915595 1.3485516262017738,0.8656635511431984 l1.0730669308079872,1.0925647768562285 1.5562847238935207,2.406810436777859 m-18.510215709814325,3.4677301347750986 l-0.6767794167887617,4.169138758062084 -1.4788176497426693,4.837753364799411 m3.16429602126497,-7.91436175486081 l20.491389849203284,-2.666573966168376 12.281556268301745,-1.0366820426891783 l0.956008028306174,0.23490117516288608 0.4937650317947591,0.4952611932263464 l0.04038953497260461,0.680495036379337 -0.8368264519728452,1.6678006656986368 l-2.1225360046290396,2.3239003957755813 m-19.77304948437113,2.689075817313448 l0.0013950132807840276,2.654884395529613 -0.6507814930376449,3.509311130014142 l-1.5037782808347904,9.89499877766845 -1.3957072956861543,6.142957108645889 l-1.349624305366684,4.793162282290251 -1.6306868575201672,4.487887953787586 l-1.9899849810450325,3.981064598992242 -1.8487351333920776,2.54272480377323 m5.160550002889029,-37.009137263914106 l2.5191721736739834,0.35321658854408083 22.79928791981239,-2.8358719722997527 l1.6415296768277798,0.041396122056200635 0.9541542219945116,0.7801870912837813 l0.12237075408589156,1.3998938858489698 -1.0874537110463522,9.008065362838531 l-0.5226028969914304,5.548363506893852 0.06137610820992121,2.101268406741163 l0.47362598542708495,1.5731372261212409 1.068280018133095,1.032581920581716 l1.8889539886274316,0.5283534221949827 2.8938318179635063,0.013894696762023718 l2.157550683826468,-0.3702385964566713 1.3814740355770128,-0.6271652083343141 l0.9605571117717545,-0.8562607753604548 0.5336121590583143,-1.0717993479457415 l0.28942588188245716,-1.3861392946087872 0.12402383504191077,-2.460641477812663 " fill="none" stroke="black" stroke-width="1" /></svg>