<?xml version="1.0" encoding="utf-8" ?>
<svg baseProfile="full" height="109.02922395156057" version="1.1" width="100.24154298916581" xmlns="http://www.w3.org/2000/svg" xmlns:ev="http://www.w3.org/2001/xml-events" xmlns:xlink="http://www.w3.org/1999/xlink"><defs /><rect fill="white" height="109.02922395156057" width="100.24154298916581" x="0" y="0" /><path d="M25,25 m0.0,0.0 m29.9135677904725,12.89862801994155 l0.3678422804544666,0.2630610936251826 0.49702700031224445,1.1777158085777055 l-0.040515892305489645,3.7935162128834623 m-16.123365375553586,0.8279928216052568 l-0.8344954749043267,3.3628700724706264 -1.664129629510906,4.015973510380745 m2.811064498264596,-6.452474402715699 l18.789678222419102,-1.774899379155378 14.035182647119173,-0.7286361007332128 l1.537108512861617,0.19463527741940423 0.7274014032150607,0.32698908883159866 l0.2251770063213575,0.44851332551694423 -0.6904081788711706,1.1364745106681768 l-2.558237681462241,1.8455419408936982 m-27.088644788917417,2.6508285943211995 l2.051065564591502,0.12575592225492072 14.865971701950649,-1.3700840979804134 l2.4973340079128836,0.06413824254137653 m-10.50354895113904,6.046435092409543 l-0.27011814090345404,-0.3175077988032198 -0.6824147029076821,0.20534705300521194 l-3.1247433101574407,1.3721717606202872 -3.131336909118012,1.0980477891053193 l-4.463332915402596,1.101245148924517 m-1.9751707210226366,2.830061875527548 l0.2746222477074627,1.7164311405806627 -0.39213380897581196,14.64975964357198 m0.7743266888290377,-16.03565660319736 l17.23778434880451,-2.0043825701722797 1.6995019816436077,0.006871149097889392 l0.8324203546614012,0.48576908406112046 0.36539065928771375,1.5703488126126437 l-0.07632691444260295,16.23538540369605 -0.281975961650819,1.9518649890313757 m-18.966288663872177,-11.418944935318882 l18.472839557017664,-1.4093138949490585 m-18.665410926965826,6.597119798828368 l18.536902296059402,-1.2774345031108054 m-18.525268728661292,6.714389358423937 l17.896002127864744,-1.2126614640716193 m-14.229853926201429,2.9055598145094184 l-0.06281306789414091,0.4183760261279097 -0.9303317295600178,0.6912967971995005 l-3.9064344879621204,2.4328427827691725 m14.302213524897246,-4.279487511155931 l4.778391467003091,2.565517605223725 2.0124383419115763,1.5201922501221299 l1.032140144708465,1.063039395544275 " fill="none" stroke="black" stroke-width="1" /></svg>