<?xml version="1.0" encoding="utf-8" ?>
<svg baseProfile="full" height="103.02013640098221" version="1.1" width="112.16926584783059" xmlns="http://www.w3.org/2000/svg" xmlns:ev="http://www.w3.org/2001/xml-events" xmlns:xlink="http://www.w3.org/1999/xlink"><defs /><rect fill="white" height="103.02013640098221" width="112.16926584783059" x="0" y="0" /><path d="M25.50390211734921,25 m0.0,0.0 m26.977475070313048,4.076350214640343 l0.40489369110711476,0.4407313953620201 0.653727770895814,1.5878636689782644 l0.0004830150152581449,5.6753157221176975 m-20.725928269306227,0.5489948313879883 l-1.157071823235003,4.327907018890408 -2.2539385427236764,5.020944057626596 m4.190027488685242,-7.967160679009671 l25.796282682209768,-2.097961070624932 15.546776439427319,-0.7795339633070549 l1.0492951423748555,0.2651775965339885 0.4131834063115408,0.43335951608450135 l-0.13199244370553734,0.5807230453499834 -1.196721667149638,1.3646998398528443 l-3.0790501818666107,2.304581050049605 m-21.12067156681212,1.195565388323467 l0.12293800722893922,1.1680890754228672 -0.21142533019041448,1.5784422432990526 l-2.9423094578098983,6.360627475360254 -3.219571190192126,5.349833102157462 l-4.658362738333118,6.067788294557427 -0.4061856630592438,0.7933919375990747 l0.5149188659172985,0.7326498988675051 5.05417675800379,0.739115859813142 l4.7143165697100615,0.927134092816136 4.697211632076326,1.3567907126705219 l4.503307664614727,1.6724187402421955 4.125094022447127,1.922748046307764 l3.382805611884823,2.1132603077514878 2.6540655454565845,2.1477661770448235 l2.0336200181868285,2.3738206900156547 m-7.653176510129274,-27.372804764735722 l-0.09227060992119171,2.608712492801312 -2.048820067832011,4.667229038991478 l-3.0989730359469094,4.602405330402857 -4.333813891363121,4.682934830208833 l-4.416449046833013,3.617783514919262 -5.239729456240331,3.367319002081529 l-6.0432028823807356,2.8451427183495923 -5.137090874325758,1.7199799517816379 m-8.171746269859716,-21.59943612001399 l4.355168620407846,0.20902065322731966 24.311239779011615,-1.880764814754648 l16.88038205002816,-0.9884974884333422 11.531545781927948,-0.1381381660381833 l5.090929616455005,0.5260817889846207 " fill="none" stroke="black" stroke-width="1" /></svg>