<?xml version="1.0" encoding="utf-8" ?>
<svg baseProfile="full" height="97.53655894207483" version="1.1" width="133.36689093710757" xmlns="http://www.w3.org/2000/svg" xmlns:ev="http://www.w3.org/2001/xml-events" xmlns:xlink="http://www.w3.org/1999/xlink"><defs /><rect fill="white" height="97.53655894207483" width="133.36689093710757" x="0" y="0" /><path d="M25,25 m0.0,0.0 m30.10455472616229,2.194304125274301 l0.014808140271901053,0.48019264550364077 -0.5274255830596908,1.1040367621182205 l-1.1261733324417371,1.3629218279136774 -4.5139661676535,3.8981859550588274 l-5.843148898189918,3.958535106544984 -6.240847077888551,3.3760936483639616 m32.56078273808603,-11.781371017347064 l4.1745570102441505,1.798093382240718 4.298444362010556,2.2446654182280508 l3.3520342754720045,2.26872232151386 1.762967657992285,2.008129036292919 m-17.919470997508903,-0.7214792930725944 l0.1792422201325912,1.090744794265938 -0.4455880337642282,0.893080798504268 l-3.694403664973768,7.617947642178662 -3.259273227092264,4.690065583753111 l-3.1575732174317195,3.3532748418113227 -3.960126241593324,3.2617662636269866 l-4.645014820573019,2.9915789081542576 -4.644014972482923,2.4825523896265955 m25.174984647796325,-21.17401371922498 l9.692583673335376,3.214049590766104 17.976161280867327,8.898539867711541 l8.850234400088484,2.0180158112153244 5.202562039301788,0.575371738585411 m-50.83864862537511,1.6930378662027579 l0.969193368877454,1.640353491366115 2.4387187391817355,12.099163154897914 m-2.401412331517756,-13.05344419882712 l25.43237030536977,-1.8265382908048418 6.236355937358381,0.05165226170892736 l1.0756528349685843,0.7909725017775495 0.16582824426179285,1.1250343753541032 l-3.2317588809733215,10.370212198446122 m-26.052851205714415,1.8756847038470807 l27.62009921816783,-1.5097231732026184 " fill="none" stroke="black" stroke-width="1" /></svg>