<?xml version="1.0" encoding="utf-8" ?>
<svg baseProfile="full" height="85.98304401084738" version="1.1" width="97.91408028441295" xmlns="http://www.w3.org/2000/svg" xmlns:ev="http://www.w3.org/2001/xml-events" xmlns:xlink="http://www.w3.org/1999/xlink"><defs /><rect fill="white" height="85.98304401084738" width="97.91408028441295" x="0" y="0" /><path d="M25,25 m0.0,0.0 m30.145685043312728,5.082928188533991 l0.37901351501796704,0.27620368942126966 1.5809460334783176,1.2709600710670057 l1.2100882948639602,1.9356128497483667 0.8228591321375418,1.970927825417514 l0.4560920219899724,1.8357442585668409 m12.432533774813646,-9.431879023029483 l0.0821990488809428,1.0367253646574521 -0.34966224158057424,1.162307189498492 l-3.3898254411130466,5.795225833919707 m-22.697146600616293,-10.145271857140001 l0.3163657992965919,0.7465169218605827 0.16919083680989994,1.0494379997109493 l-0.33032336804738105,11.10187198221429 -1.521935564989304,5.031590808678167 l-1.5685963177003028,2.5279245325518285 -2.290882224526855,2.397289630821164 l-2.2634316684164384,1.631273704617413 m4.492256005562759,-12.496670556561835 l2.7625763728356083,0.058105574839533596 17.390957121997737,-1.9443236952065552 l6.384813740853371,-0.40917608165982783 2.774464370976293,0.06937001434286293 l0.6546408196809683,0.3045581594337997 0.27120177889484265,0.42901440564650617 l-0.03825296097374301,0.5459190858630436 -0.8337211515418077,1.203981854963141 l-2.272082151566005,1.8116577480639042 m-23.970069312003083,5.390081690572886 l1.5249788734936287,0.18478304583941396 2.125058433434525,-0.10929556134774397 l15.068594953423181,-2.0348268423980724 2.6449007718250255,0.08736167816060347 l0.6219893289104761,0.30368283104832594 m-21.86453483880167,6.801819610954325 l0.5771999237603717,0.6773298243926147 0.22121010763279783,0.7486049285339833 l1.4156217598184755,9.08567632425091 m-1.0764419094798854,-9.690505433074042 l16.43870604404171,-1.696488547425535 2.101556490202454,-0.1471212584145063 l1.2851725534624618,0.19633712175348123 0.5941394599522242,0.6891169885481259 l-0.01883375320461926,1.0728849651345929 -0.8923285151597895,3.7813529727183663 l-1.346327164603271,4.057559171248963 m-16.99956895408885,1.618348882739445 l17.792423250392993,-1.0675627912932335 " fill="none" stroke="black" stroke-width="1" /></svg>