<?xml version="1.0" encoding="utf-8" ?>
<svg baseProfile="full" height="108.2945481662116" version="1.1" width="108.06571737081606" xmlns="http://www.w3.org/2000/svg" xmlns:ev="http://www.w3.org/2001/xml-events" xmlns:xlink="http://www.w3.org/1999/xlink"><defs /><rect fill="white" height="108.2945481662116" width="108.06571737081606" x="0" y="0" /><path d="M25,25 m0.0,0.0 m13.982020624644244,20.83341952317632 l0.48200650676379586,0.14958614696330771 2.3808690404337036,0.1429976774615119 l28.81605755127238,-2.8951340542153483 6.111939640051767,-0.20838995953271966 l2.7687880716490745,0.2865024908613222 m-21.610072424452593,-13.052819754902508 l0.5914147610152187,2.990906599148571 -0.10042093073526663,3.3974955242798934 l-1.524174217554788,10.984615868204846 -1.8989382945139544,9.532617029161074 l-2.7313417965632545,9.051546462015594 -2.6730551139587053,4.578379356954553 l-3.542318334148429,3.487327085412618 -5.486998927707788,3.2640875817546755 l-6.731347278428195,2.7111803296876333 m26.918401758015897,-28.95351211551294 l0.5928029114708242,1.6329854835253268 0.23600241436874206,1.9574623957956012 l-0.21055139823337168,20.88690362963178 0.5706794588043116,2.6003504835328153 l1.0432235070171065,2.771175044716633 1.4294342960540158,1.3799477241544646 l2.415345009036015,0.7390845769836125 6.206536567069947,0.02583303695295171 l4.503545407592702,-0.6471568737899169 3.0838838387486347,-0.9022353877855983 l1.6189755139076825,-1.1499274029599493 0.6717082273555143,-1.4793712058535082 l0.15130098184083657,-2.666001990237381 m-13.598651414702811,-42.33176618132839 l1.374806486735548,0.9037454353089012 1.9758348613589405,1.7814807247826887 l1.576777954820613,1.9464942450149363 0.6424909338767065,1.239955232056789 " fill="none" stroke="black" stroke-width="1" /></svg>