<?xml version="1.0" encoding="utf-8" ?>
<svg baseProfile="full" height="98.83878301697706" version="1.1" width="103.65270731456243" xmlns="http://www.w3.org/2000/svg" xmlns:ev="http://www.w3.org/2001/xml-events" xmlns:xlink="http://www.w3.org/1999/xlink"><defs /><rect fill="white" height="98.83878301697706" width="103.65270731456243" x="0" y="0" /><path d="M25,25 m0.0,0.0 m17.882096065186975,13.106083479093561 l0.4214200941444652,0.06264565918775895 2.9977508304586475,0.013264959831216427 l20.10149365842401,-2.070566463728487 2.8427559998796794,-0.17447515682545517 l1.9895994222756688,0.18144693460553057 m-28.233791486425048,2.5818185992027156 l0.41304028773586504,0.6510762474145965 0.15517738807574372,0.9316541218889383 l-0.15833500545868023,12.464603871834962 -0.6290820672869577,6.0638538900193355 l-0.9881862713567524,5.123080066411346 -1.0721653992103892,3.4908092297733884 l-1.7356257297097557,3.8290757487655234 -1.7540942947927902,2.5844118295021223 m11.348287792760456,-29.58052136395232 l0.4464310854838999,0.18997585487133165 0.5798250689783871,0.04766924203216 l6.96290449509647,-1.2720518654232766 0.4923402487539794,-0.03071200296483053 l0.40620388855209055,0.49407533016702726 0.10459091347453553,0.5348211743845571 l-0.05194884385289048,0.5952157516713784 -1.057023554103892,2.917461598018003 l-2.6071173016354567,5.284690062435303 -3.244452518863674,4.787402017004164 l-3.7661988389844008,3.982491491619604 -2.1230677817629684,3.380126949277367 m2.506845278946214,-15.148483999652923 l1.1067854726035458,0.8422273945153853 1.3459820217334773,1.472526842956206 l1.0586217441989054,1.5069017616590188 0.4640313527412207,1.267390333335411 m10.120961723893569,-11.850920756538335 l0.27677752322982047,0.7273213817304355 0.08931886159934618,1.4242131218149445 l-0.4671738586727235,8.486911246917982 m1.3606132668040256,0.6515948744872146 l1.419769346107185,0.15769023446065072 7.109483793846367,-1.1778850301486408 l1.961707059996362,-0.02520937515090389 m-14.903956809874197,8.003083848584186 l2.1192971268468552,0.13055572348050323 11.618896695024615,-1.585114752828512 l2.3302777175530633,-0.043649245779740185 1.6119747749828477,0.2552772154260828 m-9.483940975279754,-5.5422600745629795 l0.32262556584638685,0.49007843171945603 0.1603277675372689,1.151485499137817 l-0.0732597700113661,12.399863639706853 m-17.62297372397678,4.329694869803083 l2.1171963341138786,0.40107511519726863 23.657347860845643,-2.2242227132786656 l1.9617020500603757,-0.028681512943111078 1.7606409680290775,0.38727791900863345 " fill="none" stroke="black" stroke-width="1" /></svg>