<?xml version="1.0" encoding="utf-8" ?>
<svg baseProfile="full" height="103.05361460380323" version="1.1" width="109.8497377159629" xmlns="http://www.w3.org/2000/svg" xmlns:ev="http://www.w3.org/2001/xml-events" xmlns:xlink="http://www.w3.org/1999/xlink"><defs /><rect fill="white" height="103.05361460380323" width="109.8497377159629" x="0" y="0" /><path d="M25,25 m0.0,0.0 m16.47182573278192,21.790161234430403 l0.5480431122067964,0.11810814319025617 2.7457522337926403,0.11882641940918531 l28.532796289817313,-2.4927981980333103 6.026443845390449,-0.12366339290013559 l2.871061782628838,0.2899711039965206 m-22.476610645123642,-15.480187104356506 l0.5922547902729922,2.9936496859834354 -0.007162104063195389,3.493539847389531 l-1.4477890639082829,11.211047012628091 -2.249665979371712,10.295652599364502 l-2.9611372553850637,8.891999427306354 -1.7008313161437578,4.313944391611935 l-6.767170004105091,4.441576648865831 -5.342790518382857,0.6695105354878544 m24.550023514728878,-26.622720436217985 l0.5814769653704999,1.4108690093967213 0.17601341441482019,1.1659657264949923 l0.10217198263304576,19.750118345198835 0.5561858175528978,3.0409580844053496 l0.7712984201965015,1.356630075534219 1.5676201144934336,1.570576912331421 l2.104872321678217,0.7510659350208145 5.6492350371739795,0.09881259726491881 l4.1560941573513,-0.5538783996089691 2.939608482921213,-0.8412435038243034 l1.1885991198364758,-1.0656940669241095 0.5504961209645034,-1.5185025535948664 l0.12102134623980837,-2.453551941312363 m-12.548707849085531,-39.003167622233455 l1.2786833883655997,0.8685300059030499 1.8399615410299142,1.685011215584049 l1.4360884681670054,1.8025010975663862 0.5907733499566403,1.1717770731600174 " fill="none" stroke="black" stroke-width="1" /></svg>