<?xml version="1.0" encoding="utf-8" ?>
<svg baseProfile="full" height="109.49251567013562" version="1.1" width="107.21510320901871" xmlns="http://www.w3.org/2000/svg" xmlns:ev="http://www.w3.org/2001/xml-events" xmlns:xlink="http://www.w3.org/1999/xlink"><defs /><rect fill="white" height="109.49251567013562" width="107.21510320901871" x="0" y="0" /><path d="M25,25.00000236555934 m0.0,0.0 m11.571311950683594,2.0481574535369873 l0.562434159219265,0.1870947889983654 3.581904172897339,0.3039533272385597 l31.150379180908203,-2.539207935333252 1.0535785555839539,0.5400945246219635 l0.2954668737947941,1.2733615934848785 -0.3709043189883232,2.1505223214626312 l-1.655435711145401,5.760679841041565 m-31.76964521408081,2.4284541606903076 l33.580801486968994,-2.26770281791687 m-33.45169544219971,-6.7071592807769775 l-0.46427078545093536,12.427759170532227 -1.330442726612091,10.304503440856934 l-1.3673196732997894,7.060651779174805 -1.2781250476837158,4.438368082046509 l-1.6905878484249115,4.253080189228058 -2.204400449991226,4.093416929244995 l-2.8200554847717285,3.960036337375641 m19.98481273651123,-34.83937978744507 l2.7106568217277527,2.8445306420326233 1.8176446855068207,3.2987159490585327 m13.866368532180786,-8.047539591789246 l-0.24162987247109413,1.7109563946723938 -0.9410589188337326,2.3788470029830933 l-1.4997150003910065,2.620640993118286 -1.415284276008606,1.7608921229839325 m-19.354044198989868,2.488902658224106 l1.7004436254501343,0.2969452366232872 1.6557642817497253,-0.0593500304967165 l23.323934078216553,-2.701992094516754 4.09998744726181,-0.18649933859705925 l2.5434377789497375,0.282592810690403 m-36.647582054138184,15.474826097488403 l3.6124569177627563,0.32967448234558105 29.546849727630615,-2.527627646923065 l6.625685095787048,-0.29479440301656723 2.433382123708725,0.3261428698897362 m-29.33068037033081,-9.151382446289062 l0.8687013387680054,2.0082710683345795 0.008351713186129928,6.6733211278915405 l-0.42819082736968994,5.196602940559387 -1.1840849369764328,5.138125419616699 l-1.7474225163459778,3.9521515369415283 -1.9051145017147064,2.814142107963562 l-3.4882748126983643,3.4810471534729004 -3.4343966841697693,2.3588070273399353 m24.74710464477539,-33.577847480773926 l0.7285033911466599,1.1090992391109467 0.18378900364041328,1.1117274314165115 l-0.11847933754324913,33.50589990615845 " fill="none" stroke="black" stroke-width="1" /></svg>