<?xml version="1.0" encoding="utf-8" ?>
<svg baseProfile="full" height="103.90310153906563" version="1.1" width="111.35661533486208" xmlns="http://www.w3.org/2000/svg" xmlns:ev="http://www.w3.org/2001/xml-events" xmlns:xlink="http://www.w3.org/1999/xlink"><defs /><rect fill="white" height="103.90310153906563" width="111.35661533486208" x="0" y="0" /><path d="M25,25 m0.0,0.0 m15.036483327089535,20.69829395346014 l0.49416819661559463,0.1338944364645412 2.5007763688554876,0.11491907907567782 l29.769972257264865,-3.209700790588278 6.349250786557682,-0.24236428235424415 l2.751425634340033,0.30157882650283024 m-22.439076177824575,-13.303760917793449 l0.5019962709279987,2.826035481806831 -0.04555981811413042,3.4804976410944586 l-1.36921188320832,10.657100404667396 -2.208349141905858,11.062971501181922 l-2.8669635606885113,9.514627336405704 -2.7079290511893994,4.679740645682151 l-8.124611357619328,3.544862066436052 -6.669849094159875,1.1172336830854304 m28.76988846493485,-26.25541320265512 l0.6329817537926292,1.6098842958392696 0.2045451526286961,1.9256341304018316 l-0.23732829013455056,20.7586670688458 1.224613399950527,2.9084521967432795 l1.8463555441944246,1.1025896403053677 2.9339431532873808,0.47735834445805375 l6.958525044302628,-0.11455426615632917 4.736256946367783,-0.7067628394721726 l2.0683799480248064,-0.920044754001749 0.907107193299098,-1.2872584376792475 l0.3388242672726034,-2.259158287670045 -0.006817642623477358,-2.976857238501239 m-13.67196987802469,-42.409999904469096 l1.4181648056280782,0.8759068172682272 2.0488540831288917,1.7797834384573021 l1.7031984371551119,1.924902410721442 0.686168969179617,1.225606746228672 " fill="none" stroke="black" stroke-width="1" /></svg>