<?xml version="1.0" encoding="utf-8" ?>
<svg baseProfile="full" height="127.9445628331747" version="1.1" width="99.78206882152455" xmlns="http://www.w3.org/2000/svg" xmlns:ev="http://www.w3.org/2001/xml-events" xmlns:xlink="http://www.w3.org/1999/xlink"><defs /><rect fill="white" height="127.9445628331747" width="99.78206882152455" x="0" y="0" /><path d="M25,25 m0.0,0.0 m15.673498674089377,4.070388324734953 l0.45342229283626634,0.2091739567501571 3.581019314471613,0.26657365742588984 l27.073768069090498,-2.9964100316235154 2.0978658287442076,0.21025151150042976 l0.8773707543514054,0.8498633442301471 0.025123887941177352,1.5208871631542478 l-2.293734597683036,9.410071136550743 m-29.27734776864467,3.5961584214755065 l30.460521907214666,-3.0134617104174586 m-31.483849171903284,-9.213574173045355 l0.5074741662634974,0.9380084182075336 0.1772800129423792,1.166663512908857 l-0.3025092002591896,9.435946454510042 -0.7917611537361913,7.835354569338487 l-1.4133343142066195,7.590882194184885 -1.7232843971580347,6.242057493635876 l-1.709552177528959,10.72269723642897 -2.0658077558462487,8.724944613124594 l-2.4844524370416012,6.844755876992489 -2.314396853154016,4.575889297382867 m37.28093278064327,-39.576145704535854 l-0.526790297252956,1.2354288717056556 -5.247091134764379,0.8504725276835587 l-7.240522082829491,1.9616631197412948 -8.34167318690287,2.0956678971322527 m-2.856948446026628,7.155907038267233 l1.1211694367781575,1.306507271742045 1.5152546085391907,2.558646533912695 l1.505311155565729,2.5007501621241066 0.6836330497609651,1.7643804641836198 m11.574079522883508,-12.218281391723611 l-0.11747390612261109,1.7906048625764155 -1.1130322491800588,3.638310753277562 l-1.539019263202016,3.414748860593803 -2.0451935757889794,3.27753030415761 m-20.87944681122277,4.792800021116019 l3.437688003622948,0.29721683878239463 13.287591083940592,-3.656460418556804 l10.358160442605927,-2.1070956264830305 6.097263464245379,-0.3881217661439621 l2.5249611328235946,0.37250098154473343 m-17.715093403041802,-13.08701897512986 l0.6375652325605126,0.9503863310165598 0.2750180141392945,1.4220656191566579 l-0.06972458072976519,34.41248045489769 m-1.1594690533172896,-22.37693923536268 l-0.547381498297338,1.4066715095278455 -1.1486809350750686,2.246059062029188 l-4.1800610326637875,11.648844205527796 -2.9028416538191975,6.116901271303285 l-3.272232275713754,5.1509597216601275 m14.978249976283184,-24.530834503923675 l10.792365665733076,14.818338835289026 3.676869138101544,3.6181098366962106 " fill="none" stroke="black" stroke-width="1" /></svg>