<?xml version="1.0" encoding="utf-8" ?>
<svg baseProfile="full" height="101.24582160252822" version="1.1" width="98.06289580505145" xmlns="http://www.w3.org/2000/svg" xmlns:ev="http://www.w3.org/2001/xml-events" xmlns:xlink="http://www.w3.org/1999/xlink"><defs /><rect fill="white" height="101.24582160252822" width="98.06289580505145" x="0" y="0" /><path d="M25,25 m0.0,0.0 m13.573415873773099,13.433918548270972 l0.280854078078555,0.3933116006168864 0.30778898973643426,1.3386926667642898 l-0.0074037941626632,23.79368915759788 m-7.084780896254933,-12.851818517219465 l0.434538235898468,1.3901459985962685 -0.5322415721337905,11.615747130132414 l0.1471419188956547,0.8424166061859024 0.4321963226647002,0.19373547586571188 l12.6393047682046,-3.117298960297982 m0.09355012766440393,-14.12458779875543 l0.41176063177428424,0.9189728190708194 0.08524210373921899,1.1124580918971982 l-0.9221609945737658,14.48438018775717 m11.976354567252383,-29.237135505124467 l-0.1856722481680064,0.9306203755118021 -1.309794177970099,2.180611015531562 l-3.179301477841179,4.200302097877187 -2.9174786543725184,3.1436089609928577 l-0.5432124606439818,0.6449926884704827 m10.614241076783083,-13.00772309749002 l1.3213471907353849,0.6705279562068184 1.656050607557349,1.4422096003987994 l7.324713981637683,8.467023119362427 2.2293034547551827,1.3590937117082835 m-19.501503360490673,0.5514919698889331 l1.3365743895919586,0.24732679099470772 1.2114314367191226,-0.09306514127132376 l8.165841811604919,-1.4932367374256077 m-13.983385447584146,7.655739306613292 l1.3699243836584123,0.15762562596240692 1.5727361592516864,-0.05156884363695441 l11.381714656022725,-1.573718324175205 0.8857168593613204,-0.06944444313517488 l0.6310091384293567,0.13652685049717977 0.44856885386455,0.3122170797515284 l0.21522616054460827,0.46332358657038697 -0.049061530677576695,0.5961751560745567 l-0.41751459718472467,0.6933723395806347 -4.032478618391791,3.88444347468117 l-2.676275599705952,3.3920508722943286 m-11.451957693879852,7.117181970637814 l-0.30183189955876183,3.9226362231281966 -1.081252481809224,4.5981311533938145 m5.280174666765759,-11.426323051232488 l1.546187348262847,3.37274511077943 1.9944783703488151,2.898168315514157 l2.5854031753554088,2.241707404735953 2.4687807294007005,1.5581977593098961 l2.016774128734831,0.9312729560976369 1.9848678239320123,0.6102674799862157 l2.1798529045202657,0.3533568200268001 2.357885108301722,0.041325966957556894 l2.0881232701224204,-0.3342189263454019 0.518841861765176,-0.28736937938171214 l0.33010929824932717,-0.8954140536510528 -0.7896768976669912,-1.2746200408955561 l-0.918179977899474,-1.0585705133279841 m-10.723543170058642,-9.212681733395554 l0.7714216641761757,2.3561149996980744 0.803984719640313,0.9676578262109422 l0.4092692928350934,-0.1456695162042806 0.3465698057470513,-0.6185168483068724 l0.26300959880301433,-1.1173610183706129 m6.826603943768744,-3.0063214896423394 l1.6027813242021838,1.0449263222060814 1.354632295900603,1.2598890799632136 l1.231771506146115,1.7498094005872078 0.9635327409024664,2.099406541634865 " fill="none" stroke="black" stroke-width="1" /></svg>