<?xml version="1.0" encoding="utf-8" ?>
<svg baseProfile="full" height="116.86569475992867" version="1.1" width="102.21363409281591" xmlns="http://www.w3.org/2000/svg" xmlns:ev="http://www.w3.org/2001/xml-events" xmlns:xlink="http://www.w3.org/1999/xlink"><defs /><rect fill="white" height="116.86569475992867" width="102.21363409281591" x="0" y="0" /><path d="M25,25 m0.0,0.0 m31.756277526906203,13.386536931872849 l0.0320148643709072,0.3661409688839021 -0.4236387833981734,1.2770356177300464 l-1.376612207101564,1.9426731023284989 -1.7401298544010668,2.0675986394360573 m-9.462541969005732,0.8724738241918509 l0.8907571058998732,1.2055231072821762 0.17426906128382136,1.7042933167398162 l0.725841034841119,19.77647629510491 m-0.4276406461582744,-22.02643767292644 l20.623543004562546,-2.2454978046608534 1.2807722988222563,0.10260018244353347 l0.5360051764240695,0.658710139949684 0.171306064323816,1.1175345124134766 l-1.0707608613239397,20.72614719539491 m-20.66270451528755,-13.702940688612545 l13.446245782754781,-1.3856318997525432 m-13.596105125888815,8.244802976000999 l13.03582812899805,-1.2026322780443826 m-12.904893211727266,8.055771107962489 l20.409649773164922,-1.343725700985471 m-32.681193872646425,10.12725820620637 l2.2480943806630513,1.4081138174741419 2.2852754348159747,0.15447609925530126 l35.05041763562354,-2.9077517424417554 3.893557866299784,0.2983032196409537 m-23.80040211981767,-5.477730835530266 l0.2943672464477252,1.743179040820011 -0.7641468372044086,3.4865583949107894 l-1.2315921520431523,4.009684760165817 -2.0562347427969963,4.1167739752364145 l-2.3206548617389102,3.0573698624489625 -2.9706929266287694,2.7091945923073557 l-3.6254018173295792,2.385874107493666 -4.33628578600937,2.156939389187949 m19.69014951039705,-18.613433658588704 l14.24514455879214,13.301112696486236 3.2201264938280616,2.496139160534312 l2.388217131248848,0.9883317209462126 " fill="none" stroke="black" stroke-width="1" /></svg>