<?xml version="1.0" encoding="utf-8" ?>
<svg baseProfile="full" height="99.72875788554138" version="1.1" width="104.43560246441751" xmlns="http://www.w3.org/2000/svg" xmlns:ev="http://www.w3.org/2001/xml-events" xmlns:xlink="http://www.w3.org/1999/xlink"><defs /><rect fill="white" height="99.72875788554138" width="104.43560246441751" x="0" y="0" /><path d="M25,25 m0.0,0.0 m14.620189442911764,2.855131486065624 l0.4278898544101378,0.3930749050602279 0.630207777983254,1.1809112818978436 l2.316745824953566,11.430605282326926 m-1.9329812534775164,-12.650746697103582 l28.02141573942774,-2.0812753265157116 1.7433647130392167,0.13782905099896664 l1.0376429511674496,1.672909440006658 -3.1776114232847594,10.22134419660933 m-26.503445709455836,-4.617397168595753 l14.638881507214451,-1.2071566720957003 13.64507893725092,-0.6993540362170726 m-26.753462683678308,6.833478078691695 l12.765062219720464,-0.8188006311943109 m-25.016691615877885,4.993175504135546 l1.3183025730786873,0.6958895234180995 0.7421480639918977,1.1929167361456077 l2.5871984953442073,14.921635025977844 m-2.361853960683041,-15.582558072395626 l35.223875648515616,-2.4368319391104447 1.6677576492151671,0.09784485763206004 l1.365815773205983,0.30650240504617604 0.9122490604723617,0.6510321728450308 l0.24853682369046023,0.462565840463248 0.07753198754505218,1.132508216130992 l-3.290584071038458,13.611669689489556 m-32.47204565568672,-6.922549976354973 l23.64879651604335,-1.3375828078541534 10.265768704326087,-0.3943398604210179 m-32.88505791410016,8.661076091861538 l16.582479085937432,-1.1613167349153215 14.197995687673581,-0.6183379568287494 m-17.712160247269885,10.284516421325819 l-0.4908793735910479,1.053007010207758 -0.7889042146288913,0.641819104486194 l-4.401069690372183,2.5772882775264496 -4.6818847278344595,2.132691921355426 l-6.988396224055228,2.1155832454391748 m31.664393757494643,-10.313516561390182 l3.880328473590196,1.7588827282302568 4.189570374544655,2.5107282444028027 l3.575919609686607,2.6540968183483638 1.897483977016956,2.015041639847145 " fill="none" stroke="black" stroke-width="1" /></svg>