<?xml version="1.0" encoding="utf-8" ?>
<svg baseProfile="full" height="102.52445458422616" version="1.1" width="97.8717956920425" xmlns="http://www.w3.org/2000/svg" xmlns:ev="http://www.w3.org/2001/xml-events" xmlns:xlink="http://www.w3.org/1999/xlink"><defs /><rect fill="white" height="102.52445458422616" width="97.8717956920425" x="0" y="0" /><path d="M25,25 m0.0,0.0 m28.084707678119177,3.3380271074743577 l0.3718731278424515,0.3969480339496248 0.5213332242997543,1.5446065763674246 l-0.14133707998272022,12.400660095293997 m1.1646342727022263,-6.608815517063191 l9.161281989216578,-1.6859652604395472 2.183104582458905,-0.09586328697304666 m-24.23081376508668,0.49680406805952904 l0.7144020548863877,0.7924916262825904 0.3117665661315062,0.9986602761839184 l0.22313560611837868,9.031661193003334 m-8.672104557416734,0.8202935740826719 l1.8111746416833656,0.3059679727194889 2.474026144644008,-0.05797923945076841 l27.832951512881017,-3.2363765912189573 3.0186741595290916,-0.11265471725176293 l3.042985534015775,0.3473339976230382 m-17.93009590331736,3.3663359371925097 l0.5475210190210044,0.9799385525943103 0.13059013796142882,1.0933936897948753 l-0.08117306607013187,12.154616165758716 -0.24372150041450064,0.7290379329153714 l-0.37641010992893165,0.2995510440862681 -0.4827267156580588,-0.029825896645548338 l-1.1951886400004548,-0.8760597181622017 -1.232020532977095,-1.3909148922260228 m-5.905689170903707,-8.301945141010357 l-0.0646822797142137,0.987573946090391 -0.32766996197141757,0.6678066993808036 l-1.8675017203515072,2.5809363862799253 -2.9121585640131022,3.1049672172868292 l-3.359794227854175,2.818024365038208 m27.139596116638796,-12.659664284779934 l2.098297569935872,1.203012355383909 2.2453560879280916,1.7333930777572018 l1.8925032842234835,1.9046943066338708 1.2238338578834091,1.7493253320555964 m-7.36951410378496,-0.7313557821404293 l-0.032162291189996965,0.9905410027789127 -0.3397055045513725,1.162450016978003 l-2.110845323145663,3.1871006928975607 -3.349998584704154,3.721002664590444 l-3.3492547445666485,3.071153195702741 -3.8459802353150665,3.022336615147182 l-4.2134230333455065,2.8197565369374957 -4.488955543618699,2.4818443332267575 l-4.617911801092928,2.009628324040077 " fill="none" stroke="black" stroke-width="1" /></svg>