<?xml version="1.0" encoding="utf-8" ?>
<svg baseProfile="full" height="130.5805174183949" version="1.1" width="103.93126060474233" xmlns="http://www.w3.org/2000/svg" xmlns:ev="http://www.w3.org/2001/xml-events" xmlns:xlink="http://www.w3.org/1999/xlink"><defs /><rect fill="white" height="130.5805174183949" width="103.93126060474233" x="0" y="0" /><path d="M25,25 m0.0,0.0 m24.35252332012417,2.705992384377075 l0.44618477834920345,0.3826150150744086 2.5479876553836744,1.612710834132637 l2.4938501837377056,2.258233897672338 1.9839805321993305,2.414819701252583 l1.0328190464159575,1.9711021678585796 m-21.780994145218337,6.184205634205362 l2.1945199270510662,0.2969098165736916 2.302671086425767,-0.0987901217467592 l30.63061990013905,-3.7833604741734703 2.3700636116370704,0.26974639762571145 m-24.92819987743918,5.1077056766249855 l1.8316736059414855,1.885812401960496 1.5448866791413334,2.173233318798831 l1.0560995291974136,2.424902083686638 0.292351684326156,10.4154106753673 m-22.153390812882307,4.295771239536368 l2.664829983817434,0.33814484545358914 3.1136075896057163,-0.09777348492434212 l15.2950108076126,-1.7989247892691214 15.813784046008848,-1.2109318774647926 l2.7660055738576483,0.5039038202951678 2.063960273393459,0.6908437923759471 m-27.420275401524112,3.6665473049741997 l0.6814822321965333,2.45890097582276 0.06743389100513779,5.611906631239798 l-0.4455277704038976,7.262636857538955 -1.0686148019305721,6.56683707979037 l-1.3707169912182842,4.957611706323736 -1.9013985659801735,4.342195002491622 l-2.4097522492597023,3.571384575603749 -2.3602855436184558,2.4436643509294496 m20.982449507456955,-40.58657482500181 l0.7711284247012377,1.6100245269840536 0.32060581703552016,2.572467201602795 l-0.30758658391997695,34.54929619920326 -0.3115475221087811,1.748437986106172 l-0.5040906473581188,0.8077455827717661 -0.6439348685186543,0.05515330672080317 l-1.5203084761819474,-1.2666402412788302 -1.7386984191261914,-2.273070453182816 m-8.293446883753571,-24.990484152417828 l0.06247368292331906,2.091679689888916 -0.41832958965536243,2.2746905283289642 l-2.049207140039444,6.401042932649365 -2.7694322706983887,6.256275338385021 l-2.991188134193623,5.129947530571789 m34.20343988490608,-19.19612894600092 l2.3112520712796663,3.4607590232356897 2.343377390797423,4.737084791144746 l1.8610114515600509,4.787599828662661 0.9161031315443927,3.7875623510945187 " fill="none" stroke="black" stroke-width="1" /></svg>