<?xml version="1.0" encoding="utf-8" ?>
<svg baseProfile="full" height="91.91878474820906" version="1.1" width="105.5463612624437" xmlns="http://www.w3.org/2000/svg" xmlns:ev="http://www.w3.org/2001/xml-events" xmlns:xlink="http://www.w3.org/1999/xlink"><defs /><rect fill="white" height="91.91878474820906" width="105.5463612624437" x="0" y="0" /><path d="M25,25 m0.0,0.0 m26.77815574011097,6.006272244056825 l0.36489267338113657,0.3366744203985335 0.4532380104291141,1.3260604567672434 l-0.03851390788016573,4.600285735984266 m-18.158189069751117,1.575327441482982 l4.106014005257674,0.11445954454667374 16.44584157969844,-1.3530208924497293 l11.60404790958738,-0.6284053315989598 3.0097052181754713,-0.07500779405670047 l2.5772195671162406,0.36241429425320365 m-29.453744960156193,5.241520800022582 l2.394031995015057,1.052046121755133 1.8295159545572774,1.2752349338740343 l1.4397943851857056,1.618421105206466 0.6328727384841324,1.6884943580814833 m15.602029649394153,-8.125553407457643 l0.18606059210229092,0.7641073182892195 -0.2413194008205496,0.6969504304350211 l-3.8811482111202764,6.69555964368295 m-29.042269850295405,2.470108781477234 l2.260161878614368,0.2345129997495637 2.625124679026537,-0.04980050159108249 l18.79337055442082,-2.1770683397594506 16.065594333539675,-1.2648553297528968 l5.112293576315961,-0.24640215665934595 4.081581622054988,0.23741905103066474 m-39.820236570842404,7.969023280967312 l0.5098755891551849,0.5585810642547739 0.3378639981407428,0.9382558288479947 l1.898073164567228,10.077168646370716 m-1.2618305866687225,-10.845670301640418 l21.202060934034243,-1.9140833527347811 2.640656495434772,-0.2182918078147589 l1.42974657830775,0.10764695271301647 0.5411126517372922,0.24958305013337306 l0.5156336343599477,0.8253132360413131 -0.07391455691551375,1.2919360052962208 l-2.667785660391964,7.113759675412859 m-21.62229663662356,1.9698699686722476 l23.666476702269716,-1.4569037047995703 " fill="none" stroke="black" stroke-width="1" /></svg>