<?xml version="1.0" encoding="utf-8" ?>
<svg baseProfile="full" height="109.49251560028642" version="1.1" width="104.09440659335814" xmlns="http://www.w3.org/2000/svg" xmlns:ev="http://www.w3.org/2001/xml-events" xmlns:xlink="http://www.w3.org/1999/xlink"><defs /><rect fill="white" height="109.49251560028642" width="104.09440659335814" x="0" y="0" /><path d="M25,25.000000907915236 m0.0,0.0 m29.543728828430176,-9.079152363256071e-07 l0.396537110209465,0.479593388736248 0.5501265823841095,1.6847172379493713 l-0.1257559098303318,9.220053553581238 m-17.332582473754883,-5.936099290847778 l0.779096931219101,1.5916424989700317 -0.7498090714216232,6.702996492385864 l0.8722523599863052,0.8539929240942001 15.851142406463623,-2.508273422718048 l17.571086883544922,-1.4709766209125519 m1.5822702646255493,-8.681803941726685 l0.5915739014744759,1.1640805006027222 0.010786004131659865,1.0002301633358002 l-2.2238558530807495,9.332680702209473 m-34.644484519958496,9.52464759349823 l1.2471366673707962,0.31889405101537704 2.0227594673633575,0.06914959754794836 l25.974960327148438,-2.6803016662597656 4.626589715480804,-0.2618938498198986 l3.187486231327057,0.3234538808465004 m-36.36119604110718,2.4626022577285767 l0.33909130841493607,2.055400311946869 -0.7302972674369812,4.123404622077942 l-1.302722990512848,5.316247344017029 -1.5703128278255463,4.444964826107025 l-1.7057237029075623,3.5717424750328064 -2.207292914390564,3.588548004627228 l-2.8025832772254944,3.609231114387512 -2.549213469028473,2.7230820059776306 m20.321316719055176,-20.86942195892334 l2.831992506980896,0.2605910412967205 15.478845834732056,-1.747029572725296 l3.900412917137146,0.10303258895874023 m-29.53571319580078,13.816426992416382 l4.567125141620636,0.10251753032207489 27.76050567626953,-2.6432576775550842 l4.770725965499878,-0.17273260280489922 3.1584003567695618,0.2578137628734112 m-22.50340223312378,-9.405718445777893 l0.6436052918434143,0.9339790046215057 0.25644024834036827,1.1973676085472107 l-0.08604059927165508,25.036940574645996 " fill="none" stroke="black" stroke-width="1" /></svg>