<?xml version="1.0" encoding="utf-8" ?>
<svg baseProfile="full" height="101.3223893245217" version="1.1" width="99.22186277801319" xmlns="http://www.w3.org/2000/svg" xmlns:ev="http://www.w3.org/2001/xml-events" xmlns:xlink="http://www.w3.org/1999/xlink"><defs /><rect fill="white" height="101.3223893245217" width="99.22186277801319" x="0" y="0" /><path d="M25,25 m0.0,0.0 m14.551076722370707,13.823796267603825 l0.40390542686933933,0.1316697481831563 2.2271655216595194,0.13113029484993358 l9.821311092840741,-1.9598265324650903 12.052863608887238,-0.1054430745428295 l8.816308534387781,0.39472877991555216 m-25.158308883351364,-5.456577576673501 l0.6037838369592657,1.6388378352832402 1.4546770305165342,11.940520368828974 m12.555810284256687,-14.579169350986415 l0.12426252949617886,1.3599398462313532 -0.09011655663383483,1.0878757902967258 l-1.95131036673025,10.720948879913395 m-20.849766339279487,6.347743761615297 l3.451910446432614,0.3077438795516767 10.317357231799438,-1.391990843881174 l11.67710431212741,-1.1389859076779445 4.4775452322952685,0.3151700247752867 m-16.31932837655653,-6.415569896947042 l-0.11744534511377583,0.8752358149853924 -0.3327344996654381,1.0123519016994131 l-3.710087020001954,3.256948161191946 -5.952856294304068,3.6157307272588737 l-6.281548043363164,3.5580944302948527 -7.72659729339523,3.836206481733534 m25.908492335095946,-13.155210867363524 l13.380306231367822,8.845472511166628 3.404649192127626,2.001605690404605 l2.483432226918161,1.0700947217896732 m-27.657127902150506,-6.99702982759882 l0.47960922321521676,1.6358544365962637 -0.0162920544394447,3.260906108492534 m-8.908523071662465,1.1701922367463695 l2.057917539011386,0.28694165889875056 15.645663037378311,-1.5195769198018472 l2.7813154213607305,0.13385172827529118 m-14.09427968052942,5.002125130500909 l-0.02477794751517863,0.9862626126047022 -2.423750578696881,2.58796020747917 l-2.683754568613904,2.522256859454999 -2.964840930814912,2.5996659785873732 m7.509685478099685,-9.391220012829 l1.9943552475407673,0.6964693246765659 6.196112399927054,1.3616921696002244 l3.032980837269384,1.4959785038799716 1.7090822334974514,1.3412690830783587 m-20.775840398162348,5.158877501623166 l3.307429868706878,0.24060429318798954 14.104263534280364,-1.2759543565192843 l2.9728079888584205,0.13098832584638623 m-10.675592207568453,-4.317895667124421 l0.47469388450084127,1.3105488147914237 0.06346674844628887,9.466346893968538 m-15.005966650404451,0.9484901773729911 l1.3626535833308622,0.35695021791548015 2.06936119041934,0.06076197778176887 l12.462481647176778,-1.1983898319325297 10.494900780421883,-0.6503576496101351 l2.554534401562194,0.013976015034090884 2.6254399482654343,0.42925527683049536 " fill="none" stroke="black" stroke-width="1" /></svg>