<?xml version="1.0" encoding="utf-8" ?>
<svg baseProfile="full" height="144.67210178366878" version="1.1" width="104.25003030252259" xmlns="http://www.w3.org/2000/svg" xmlns:ev="http://www.w3.org/2001/xml-events" xmlns:xlink="http://www.w3.org/1999/xlink"><defs /><rect fill="white" height="144.67210178366878" width="104.25003030252259" x="0" y="0" /><path d="M25,25 m0.0,0.0 m13.339442810954006,21.218929280925234 l0.4925511826855349,0.11998430968998945 2.6452504216091755,0.11388622602118777 l28.729162304747724,-2.655790562049186 6.2589613352891424,-0.20133085740535955 l2.784662247237002,0.2836119793168133 m-22.32929623316138,-13.060335278558211 l0.22374729935675228,2.4951095701470036 -0.13140048578617577,3.698869726910029 l-1.3234104150501294,8.823619493910078 -2.0891624516717027,8.299008525784926 l-2.7795419346737082,7.811846751278529 -3.257834048729833,7.197778017975973 l-3.5286012238263336,10.091547573032315 -3.1637093985234435,8.14561735431784 l-1.7974195283199579,5.135572416341488 -1.5707446529132199,5.917272851492994 l-1.5346435870260562,6.027342434453528 -2.191983471254837,5.506708676832482 l-2.703075041080441,4.551985168916628 m21.006805113706186,-28.629702484026904 l0.5380653892287461,1.791743749542494 0.2045969678510702,2.312363253699686 l-0.19359571802740733,20.40870303118048 0.46699049020161454,4.441646920477498 l0.5384579752196427,1.9652665643146667 0.868685745932876,1.5341703399862578 l1.8047767189458943,1.057963898754614 2.5177191030912893,0.2687128504057089 l5.888490377216764,-0.39287210474351364 2.6578112047971594,-0.927693044986265 l1.301329437529188,-1.1639488889429523 0.7159755260019498,-1.5150554772323637 l0.25267724096343286,-2.63871724659504 m-11.976311762704363,-50.379252748860104 l1.5879200064665933,1.318305148919391 1.8748071899783048,2.2588116639710853 l1.378558651302956,2.343133908181567 0.5878471330144667,1.5106802862419748 " fill="none" stroke="black" stroke-width="1" /></svg>