<?xml version="1.0" encoding="utf-8" ?>
<svg baseProfile="full" height="106.37885909945456" version="1.1" width="95.91491987912873" xmlns="http://www.w3.org/2000/svg" xmlns:ev="http://www.w3.org/2001/xml-events" xmlns:xlink="http://www.w3.org/1999/xlink"><defs /><rect fill="white" height="106.37885909945456" width="95.91491987912873" x="0" y="0" /><path d="M26.07366953233925,25 m0.0,0.0 m10.372321489808755,15.524528207303563 l0.49432285078130606,0.10433814312043373 2.265466510589499,0.12712129850151682 l28.408783279720375,-0.12023241714395083 0.7655709761260258,5.973659539166865 l-0.840285309211218,5.192553023058002 -0.9587511013726632,4.477693180883556 l-1.484471479234752,4.619401275298866 -1.6328022399002802,2.9906119947664616 l-1.8098154036964098,1.5952444319008476 -1.240213097372573,0.14766680995172116 l-1.2282066380962782,-0.6360839637652157 -2.09696188257141,-1.7952014189121552 m-4.984529155633705,-18.190193926606277 l-0.10536017443840563,1.6336400197297003 -1.2943291337081952,2.6268583485517363 l-2.0252329365349415,3.0722316207538904 -2.4977586609395495,2.992219389699008 l-2.45920935938004,2.345892974977355 -2.8934029083466895,2.2493022083766063 l-3.4586042824665686,2.142445149469726 -2.8852536312598698,1.4874477317708523 m7.398185105332106,-13.501054456194492 l3.555600206451569,1.2283558200573281 3.724502467090785,1.768965860652006 l3.1447170473310013,1.9594904980844248 1.9109285248653745,1.799570295962638 m-26.738395208826873,16.63392958646094 l-0.6845975737061746,3.3673801283562925 -1.795887813739449,4.188653058447874 m7.751049720566723,-9.7745770545856 l2.7991261248266235,3.810554430716158 3.3168035434394594,3.1705744957477298 l9.008519047311236,2.5704414607940365 13.442397012422637,0.5954313541021151 l4.095227402328087,-0.2481675037678083 1.3752490600965623,-0.25095273349579855 l0.7986474001506788,-0.37914567401250543 0.30800829302825916,-0.482051531849267 l-0.6065382389418777,-1.179827632196238 -2.082160294229183,-1.4073640006676298 m-19.232876589311992,-9.867446698659867 l1.6907793976234144,2.0494990518966927 1.2491453560071109,1.000930645793785 l0.9088312212670541,0.15990219043121395 0.6717918525559353,-0.8144199424250298 m12.395923600640483,-3.6549962780720224 l2.4139995460700545,1.047967543307109 2.2115457318424028,1.207746496971005 l1.9223125105688421,1.4293762699273431 1.4771381808662145,1.5879753471618363 " fill="none" stroke="black" stroke-width="1" /></svg>