<?xml version="1.0" encoding="utf-8" ?>
<svg baseProfile="full" height="102.95469227493145" version="1.1" width="94.86060424625833" xmlns="http://www.w3.org/2000/svg" xmlns:ev="http://www.w3.org/2001/xml-events" xmlns:xlink="http://www.w3.org/1999/xlink"><defs /><rect fill="white" height="102.95469227493145" width="94.86060424625833" x="0" y="0" /><path d="M25,29.350296759235817 m0.0,0.0 m5.825633799765689,5.235893211722322 l0.3517187681132558,0.40963980207600403 0.39347647341180764,1.7639842000706818 l0.002940947707034198,28.17346966444668 m0.41096980833147195,-29.853431483380284 l12.839878847106387,-2.2119021744303513 1.5475917642468144,0.30383743359547716 l0.424500629198989,0.5212708345839757 0.2490665667905799,1.3961962191999415 l-0.04470679205361868,27.183250506137146 m-14.579859205748159,-15.710368199607663 l13.592803729212083,-1.8149564175670998 m-13.677247995792953,15.38591815110417 l13.632292190973798,-1.6994915698987534 m-20.912009300513834,-33.43360693728806 l0.6381072157920403,1.2549237189109503 0.2603758773256794,1.7905420889684411 l0.04522843518163402,46.52978165246097 0.3917157703003964,1.779629987389544 l0.5271730989863076,0.8276630771638688 0.5148412044130064,0.21727550453824165 l0.5938188429944264,-0.08330345523622673 1.841550646976191,-0.2743093745852471 l15.359527108271234,-3.0109296149393026 6.006399114005441,-0.23731411049181875 l2.939491611737957,0.5765169258500877 m15.685325089524666,3.584215874901947 " fill="none" stroke="black" stroke-width="1" /></svg>