<?xml version="1.0" encoding="utf-8" ?>
<svg baseProfile="full" height="103.09734005582627" version="1.1" width="106.5979135620232" xmlns="http://www.w3.org/2000/svg" xmlns:ev="http://www.w3.org/2001/xml-events" xmlns:xlink="http://www.w3.org/1999/xlink"><defs /><rect fill="white" height="103.09734005582627" width="106.5979135620232" x="0" y="0" /><path d="M25,25 m0.0,0.0 m8.113734972730573,12.597752209391984 l0.35217907471014587,0.14022992352197977 1.9765925148028018,0.06982236490929615 l9.712236768255714,-1.738251142089476 2.0543774761213425,-0.15921018060199413 l1.107761475987139,0.16497992529789526 m-14.275883668909287,2.641667900872601 l0.5349334295903475,1.887906091161119 -0.1058513635837593,21.781482419303057 m8.042413429484105,-16.575085001059428 l3.902928540626372,-0.18928365065235545 1.7917217567783734,-0.3709043734977265 m-8.516385434185402,8.719720812612518 l7.2931368097356115,-1.2750798873467175 m-12.231684607594648,10.712376863463525 l1.524760945960019,0.2860510984637368 11.848201327283915,-4.594804858687341 m-0.5910656139258537,-20.228546629724285 l0.4000410054477425,0.7645588941036049 0.03487617544663833,0.5449637288050883 l0.06389507269298489,34.57568987301848 m10.193317595069066,-40.653481427571094 l0.10437517593451136,0.8348247959466398 -0.8104251670753183,2.120093059123928 l-2.27922079732925,4.122592389776551 -2.0634056831915877,2.933491245399046 l-0.11317235551413352,0.5649791906423974 0.25470088292567544,0.43220060249344283 l5.007484791913231,2.751753237776523 m5.535152697366792,-9.623898086345706 l-0.11146142179501393,1.4847554891618457 -1.5998946588958014,2.599359379950664 l-4.214054273934827,6.306974285377136 -4.378105232165819,6.055811421147729 l-0.00584756239932975,0.5034253729506154 0.36827042982778707,0.23969513881988974 l0.5554036188841246,-0.03141353913864668 8.806895971099879,-2.1948325406532225 m-1.4194089198484972,-2.9125612683041795 l2.072192783080802,2.8757339007336595 1.3114608670736188,3.1181892862653915 m7.567534364017412,-22.241142810549132 l0.0797789079900481,0.8740350102653239 -0.9334232900251958,2.2215114006028087 l-2.290954318974782,4.076083341515266 -2.032060755559766,2.9880408063357238 l-0.12008976027827506,0.5003282569600123 0.25869156027216783,0.40117953002254164 l4.8800722305680075,2.576531807540412 m6.078623401887818,-10.20349634428693 l-0.11773678789994423,1.4898976700242696 -1.4704252479343587,2.5745799429252267 l-3.3180414226777524,4.985335101456194 -5.400022830318841,7.197034906746872 l0.2150083567966051,0.5272187918768082 0.4642908927399536,0.0378469944279292 l9.538516431329004,-2.6138976024652902 m-2.0278744624365346,-3.0253491137623154 l2.1710974100365386,2.8518876778541173 1.0938297074719527,3.1056350403045916 m-28.070295066188546,10.904995945787146 l1.6530343007879837,0.29178072424182605 1.763536370506778,-0.05167276742532054 l21.26195621887118,-2.1837648207351705 3.3545123073252605,-0.12552340839542972 l1.7511762152356996,0.2614652714505704 m-21.273077493276404,-4.157973564556293 l0.40236036415484266,1.5099518257467883 -0.1423171421088471,4.192619579156943 l-0.264841916524705,2.9979286376982404 -0.6380161369262484,2.9902964564564614 l-0.8835100688817369,2.24977975293213 -0.9371093923554837,1.6242205862542871 l-1.2391326222481958,1.5586517958050783 -1.5551930029945797,1.4275953187964088 m17.020507773091055,-19.318713903223934 l0.4720902682732071,0.8250965828422127 0.1926041255447864,1.1660694260245885 l-0.06785618335151206,16.99917076930646 " fill="none" stroke="black" stroke-width="1" /></svg>