<?xml version="1.0" encoding="utf-8" ?>
<svg baseProfile="full" height="109.49251336976886" version="1.1" width="109.24353589303792" xmlns="http://www.w3.org/2000/svg" xmlns:ev="http://www.w3.org/2001/xml-events" xmlns:xlink="http://www.w3.org/1999/xlink"><defs /><rect fill="white" height="109.49251336976886" width="109.24353589303792" x="0" y="0" /><path d="M25,25.000000316649675 m0.0,0.0 m17.70495057106018,1.4731243252754211 l0.6798193603754044,0.2595161087810993 3.5362595319747925,0.2806144580245018 l24.178719520568848,-2.0132552087306976 2.789798080921173,0.1875409297645092 l0.9724801778793335,0.9844686836004257 0.1285239402204752,0.8617627620697021 l-2.584318518638611,10.516748428344727 m-27.170207500457764,2.8095439076423645 l29.635610580444336,-2.296428829431534 m-29.96846914291382,-10.52168607711792 l0.5608157068490982,0.9756536036729813 0.12684907764196396,1.2538577616214752 l-0.5864125490188599,7.925819754600525 -1.267080307006836,7.107779383659363 l-2.035050541162491,6.834864616394043 -2.228100895881653,5.128968954086304 l-2.801434099674225,4.708665609359741 -3.411085307598114,4.179760813713074 l-2.980203926563263,2.72139310836792 m26.651175022125244,-27.914905548095703 l5.667747259140015,4.5420607924461365 14.758920669555664,13.404570817947388 l3.3239924907684326,2.3173096776008606 3.560236692428589,1.9350874423980713 m-31.9317626953125,-5.170576572418213 l2.294037640094757,1.4232836663722992 3.0260425806045532,2.552143633365631 l2.4816226959228516,2.7460750937461853 1.073324829339981,1.8575146794319153 m-13.30302119255066,7.582383751869202 l5.780580043792725,1.8769079446792603 5.524590015411377,2.6951241493225098 l5.113102197647095,3.373004198074341 2.8430411219596863,2.8938162326812744 " fill="none" stroke="black" stroke-width="1" /></svg>