<?xml version="1.0" encoding="utf-8" ?>
<svg baseProfile="full" height="99.92070497309203" version="1.1" width="110.19928245366962" xmlns="http://www.w3.org/2000/svg" xmlns:ev="http://www.w3.org/2001/xml-events" xmlns:xlink="http://www.w3.org/1999/xlink"><defs /><rect fill="white" height="99.92070497309203" width="110.19928245366962" x="0" y="0" /><path d="M25,25 m0.0,0.0 m32.80862520907905,3.460578172991818 l0.32064874623122364,0.3549129188826931 0.5585593523522062,1.3226776545718602 l0.04508246950411413,4.329559605492544 m-19.574680773290922,1.4882539542057933 l4.260494999133145,0.17913586654807856 16.480127055600125,-1.4350299139886096 l12.683847542500033,-0.7597643295169684 3.7335211655109735,-0.017321042577673595 l2.6730976752628126,0.3912552144932713 m-34.03761412475691,2.4003614604674173 l0.6427339052623312,1.2144530228187815 -0.008520548277868452,5.1727341349979605 l-0.49428515002092427,6.138319909569401 -1.0173803293617087,5.623389587135061 l-1.1568280089836216,4.04309036818686 -1.5518583954729073,3.6898469740275663 l-2.0575115192250983,3.578611254806582 -2.095465423333276,2.7016129355351772 m11.801885076994596,-26.810040509031325 l2.337112928694693,0.18489877692837783 9.881673308994111,-1.3379336941414492 l1.1590048451067347,-0.007741823465893659 m-6.497604021634051,-3.7400533437374843 l0.4917965115571926,0.6413494240350256 0.20943028043128092,0.8407619187272306 l-0.003943852635216868,13.571808460117118 m-0.6919792722626935,-9.751954806580974 l-0.5179087195188151,1.5645432812302928 -1.930919549922509,2.8087402019683783 l-2.344657911887643,2.514108925611967 -2.2978146676408917,1.8212723753812445 m9.494507010985117,-7.0836590104826325 l2.2357513998454377,1.3606138925125406 1.7945740829156713,1.7650281560866747 m3.619182689667593,-6.419507272566795 l2.6419794401343486,0.18829485359437198 10.281670507087272,-1.1770694393322754 l1.7837133949425348,-0.023090992123160157 m-8.38683309698133,-3.34678999256495 l0.4621619383517728,0.4025180378244363 0.2606625090104717,0.8907113256825712 l0.04251664825496247,13.308855875803657 m-0.7273970935354408,-10.080895678049064 l-0.7029600757163013,1.863474222319383 -2.4706615699299506,3.42627869207929 l-2.6012271406153062,2.5739985963069216 -2.5129899342769892,1.7970881724066792 m9.66770649673456,-9.245928512140447 l5.486991659257969,4.898533840782751 3.6700719909590886,1.5885498906732767 l2.3511927925885807,0.5965754130402252 m-34.94072204481695,5.717002524245409 l0.5824111136118559,0.5699092699911704 0.35634550830535544,0.9077923198054778 l1.6097715865774536,7.072494639922119 m-1.3199612014584383,-7.776718315799451 l20.98074770550585,-1.8486479403662808 2.080214248562452,-0.1218711543971122 l1.221221923976904,0.7767439168620399 0.03351696333480687,0.5956027339201424 l-1.663619091589873,6.180156926427719 m-20.932458556263324,1.8689088422459947 l22.29087362694538,-1.5312150755657585 m-13.521297102242361,2.490228710270384 l0.6637257181326274,1.0924261657649796 0.10529852705317415,9.565923974707792 m-11.036663499934773,-5.744403780920766 l2.5893299107507866,0.20563384265220408 16.904104550856584,-1.1757683363730276 l4.02632534440726,0.1309166273764201 m-29.92216859882348,7.166648515734941 l3.910694023578735,0.3189235590440617 14.359109846001537,-0.9702506819402648 l11.499756250791991,-0.441353692253952 6.667480181497247,0.0278628986410992 l3.3867981636376925,0.504595795161218 " fill="none" stroke="black" stroke-width="1" /></svg>