<?xml version="1.0" encoding="utf-8" ?>
<svg baseProfile="full" height="96.25264135284871" version="1.1" width="112.82960562079882" xmlns="http://www.w3.org/2000/svg" xmlns:ev="http://www.w3.org/2001/xml-events" xmlns:xlink="http://www.w3.org/1999/xlink"><defs /><rect fill="white" height="96.25264135284871" width="112.82960562079882" x="0" y="0" /><path d="M25,27.218317557815517 m0.0,0.0 m14.402054500540528,5.165528557655695 l0.34395210800621595,0.451648793036115 0.4881213581044125,1.6339613053610051 l-0.020951027749398544,5.958354496276204 m-11.669917359282788,1.7258647030747212 l3.234625997929218,0.03883368568839016 15.77542568097225,-1.9855590951735875 l2.4452177036718497,-0.10199720633750196 m-17.292523679251193,5.635185970554635 l2.5165954107603783,5.664187510376594 0.8539884640604313,4.893533059191517 l0.392514618222466,4.019412420329096 m9.330000733904594,-17.939095708445688 l0.32239287131855965,0.8425385787838237 -0.4135916331764636,2.7941615253173206 l-3.139292460144697,9.729814292322741 m-12.116714132356469,6.543022471905153 l1.050473383579084,0.31522914217226566 0.9970875129167837,-0.18919219889433087 l15.292689331570278,-6.974333310623694 m17.775793244362152,-30.43941655038599 l0.7141824591352972,1.295051118460317 0.11926850393671845,1.9917067332291478 m-12.266764249751045,1.7649146250778849 l3.1522559303712265,0.01590624740073562 17.434118731730006,-1.3111002419818967 l5.072536024206358,0.0658543913479308 m-21.479091339703324,3.249367730279041 l1.994432758952628,2.9348444528938713 1.1656828788510887,2.845249105568174 m12.280096027456455,-7.347814985685875 l-0.18546349065056245,1.828499236255276 -2.3023430642072764,5.2540756195458505 m-19.73932475491195,2.707616994170925 l3.9538754086452244,0.08453904430377984 22.744286983531747,-1.5661575213331262 l5.139654500895201,-0.052420368593587986 m-27.78654888526517,6.508845181067323 l0.7043640781980437,1.1691074012354712 1.8076813374690206,11.506824721134073 m-1.3066069372810274,-12.014565098184004 l17.931211739712563,-1.5563137557155662 0.6783726028717755,0.0154989459468792 l1.1851041867450045,0.517618241005256 0.5216797848641139,1.0464671901815292 l-0.10745834344486305,0.8584653867002904 -2.3932542019033445,10.014911821316513 m-17.21918994537394,-5.681136306609072 l18.259045619276904,-1.0091610915852278 m-17.109114370238903,6.53359679867824 l15.649483264169973,-1.1961605077830813 m-21.57313192996097,7.175101870417901 l-0.7716495908299298,1.3553580643791225 -1.175548102529033,1.92188434860736 l-2.7620232905658613,3.138902656304186 m10.589303935833282,-7.785243754249427 l2.2283477368115103,2.75893588587508 2.7029835458242615,2.2394299891423843 l3.045781457731612,1.6672030209128448 3.5408418815383444,1.6017413421585365 l3.0570103664108985,1.029794445311123 2.416648064934237,0.4893777601892013 l5.170777383427348,0.18602461547332683 2.8126546574326996,-0.45999191777694515 l0.662420034116168,-0.4477613165364038 0.06836685668616582,-0.5794600335399749 l-0.4940769772148105,-0.6707683444996649 -2.2228308960580168,-0.9974060583564709 m-12.887486875474396,-6.649859324372374 l1.025247699753184,1.1870669411553854 1.3576428458382153,0.9372804421844319 l0.6041756657851318,0.16236376615742362 0.48556936276607626,-0.15692780210374807 l0.3388827878954719,-0.5983809173580638 m9.990633273979368,-2.9097796296874368 l2.7745594374541946,1.7958323687311466 2.6643904229675175,2.749432921217656 " fill="none" stroke="black" stroke-width="1" /></svg>