<?xml version="1.0" encoding="utf-8" ?>
<svg baseProfile="full" height="112.26976973863898" version="1.1" width="98.7310080702772" xmlns="http://www.w3.org/2000/svg" xmlns:ev="http://www.w3.org/2001/xml-events" xmlns:xlink="http://www.w3.org/1999/xlink"><defs /><rect fill="white" height="112.26976973863898" width="98.7310080702772" x="0" y="0" /><path d="M25,25 m0.0,0.0 m32.52944829893998,3.691047853622089 l0.2575067630303615,0.3580495953236635 0.397036071597643,1.5662903636107295 l-0.026538327678691513,4.786752555327821 m-14.312791866475687,1.4156673925750654 l3.124691383576469,0.251579474934244 12.198285298381549,-1.3048400119339572 l9.654401646779398,-0.7216855508453076 2.9394660224172884,-0.03455494597816359 l1.9695027797088944,0.32146118300374354 m-25.27732923793275,5.9239197096189855 l0.004178140188724599,1.0916388856344477 -1.2274993993168781,2.51948224054521 l-1.7892515366210455,2.71520853345791 -2.051431591438454,2.4397454048502545 m18.33096104782796,-9.636581325620966 l2.3863866743377207,2.5846282335665554 1.5581083520149153,2.133518008297514 l0.8872432633393896,1.6466666263685308 m-7.506827090882764,1.503171474063091 l-0.5323366374909165,1.6387092639099212 -1.616524102859942,2.5928880721713132 l-3.8421207183560813,5.315609616163155 -4.842642065173001,3.3825555934039624 l-3.0076689350605013,1.6685027986591596 -3.595017759091718,1.4716142895381814 m8.64602689453779,-14.040333160246352 l15.070733599997123,10.1737251243104 4.238964984307939,2.303179155130663 l3.1234544338261565,1.1383954152386004 m-24.30908388726046,-0.7314213114239568 l0.5059119656172678,1.2217985020169908 -0.03176905567398396,3.724740905306825 l-0.3210850701923235,5.297265968086085 -0.5892666849747791,3.754830855743773 l-0.6985068342442183,2.8790029019793777 -0.9205834443475067,2.5973476091041894 l-1.1797488249546857,2.382993974490889 -1.5166505927696095,2.2471984646343515 m5.704195913331054,-22.52857640684436 l14.549571645336892,-1.3821873378152911 0.6291793524370648,0.03692470782075723 l0.7270377907454153,0.4724787996266681 0.34673153978977483,0.9539913324290294 l0.0319835981391267,1.249254585958504 -0.2916715642769447,19.773786876432936 l-0.3196101493630357,0.7091742456759 -0.459714600095274,0.07362416615757252 l-1.878327462917106,-1.8690746929773883 m-12.440558002855221,-14.048817790729009 l14.722558318383822,-1.551588835740974 m-15.00867532041101,7.439429323276679 l15.25746739228219,-1.207256919241966 " fill="none" stroke="black" stroke-width="1" /></svg>