<?xml version="1.0" encoding="utf-8" ?>
<svg baseProfile="full" height="105.28359664918571" version="1.1" width="112.63337229961014" xmlns="http://www.w3.org/2000/svg" xmlns:ev="http://www.w3.org/2001/xml-events" xmlns:xlink="http://www.w3.org/1999/xlink"><defs /><rect fill="white" height="105.28359664918571" width="112.63337229961014" x="0" y="0" /><path d="M32.415201481741576,25 m0.0,0.0 m13.286868894886041,14.978262668380264 l0.4105409742749484,0.15681075570892247 2.909317633426486,0.15123854504697434 l25.893607743535167,-2.3026002673807664 4.480483962141983,-0.1953660181789 l2.951623061313131,0.22934721866563798 m-28.318290341212766,-4.51191721117391 l0.7530714774874839,1.4916843559673454 1.3685627976192796,9.597355967649383 m14.627222572359631,-12.340834303290881 l0.18731673739288499,0.9261839960038971 -0.08925991462850186,1.001651547368065 l-2.1969457261603,9.16424663341988 m-22.011694842821814,8.236833441634941 l3.592729044007428,0.1691691962971934 26.743644014687902,-2.6496349858859936 l4.240957506635464,-0.052729298436687784 2.1610289787966575,0.24551779745708513 m-27.39694435275366,-5.325437739443508 l0.9758250599515613,0.9289521429886477 0.3209957080381869,0.7527451658952014 l1.2613274868875846,11.207268536825637 m14.908302614460746,-14.435037367700035 l0.3419247818216266,2.2105562857026784 -2.1097914536093376,11.251308777881425 m-22.23857594942637,0.7528720182748263 l3.5843292183687407,0.9493817533542979 25.293565942567493,1.0588948088757204 l3.329587424969114,0.20854438157364 m-36.06610982644263,8.582857098858574 l1.604462062451892,0.30567166446413596 1.8154070658129724,0.03248275851899089 l18.22063412741678,-1.6644661235091367 13.481932360686743,-0.8910680739393763 l3.802775415436934,-0.06928256122888488 3.097738557489077,0.30300984849948365 m-22.752934161373297,-4.893321285059235 l-0.03532731955389466,1.2548683208190214 -2.1939984607917755,1.5979661362940922 l-16.78903063767482,4.44447270427985 -9.451365556110154,1.8354254310691924 l-11.410716164106208,1.600807165183466 m39.38783362227894,-6.517586473775379 l-0.20876694243587116,-2.7367097622283962 -0.2667696914527063,-1.22431940568694 l-2.4134749182872626,-0.7316023374844357 -6.668919634708395,-0.01596536550489136 m-3.5376102496565967,-2.680476890175947 l0.1331835706073208,1.3599817021968001 -0.9250978962463897,4.012540387298117 l-1.0244365596487341,2.2167577166137526 -1.7413140415066921,4.286846757397667 l-1.7545524731929496,3.051776485944789 -1.789410912684735,2.2604716247646084 l-2.222416480274464,2.2090797205286856 -3.3632691538407844,2.0683052130038404 l-3.4687899096749586,1.429805388562277 " fill="none" stroke="black" stroke-width="1" /></svg>