<?xml version="1.0" encoding="utf-8" ?>
<svg baseProfile="full" height="95.82172034375465" version="1.1" width="101.5021093821123" xmlns="http://www.w3.org/2000/svg" xmlns:ev="http://www.w3.org/2001/xml-events" xmlns:xlink="http://www.w3.org/1999/xlink"><defs /><rect fill="white" height="95.82172034375465" width="101.5021093821123" x="0" y="0" /><path d="M25,25 m0.0,0.0 m29.635843452597108,5.605728729040909 l0.3187966735919893,0.23463821422256315 1.7648339647768743,1.4597941195695343 l1.0354476145943399,1.6533522128938027 m-16.46585577233969,3.694771588797722 l2.595155136512826,0.15489289449693194 24.29320981356889,-2.4469334376778846 l3.392011846562222,-0.15933251579385613 1.865806524056094,0.27945910941339525 m-24.731769474881908,4.9234978517299925 l0.006730101272348957,0.38897809299978575 -0.48811661304695053,1.0284237419887392 l-1.9677235955122259,2.612456226351806 -2.376956591766527,2.465716297599245 l-2.512079381469137,2.038354117745628 m6.932510099333076,-5.943394122896682 l1.5990090089434388,0.8592961943805179 1.6521275209407396,1.215658713496273 l1.4554021726477913,1.4915063168389409 1.0148724966674598,1.5339246301474514 m11.010661168990705,-8.833977810118723 l-0.3517019924285518,1.3354632059244722 -1.8751644597316215,2.7938274456489984 l-2.0734254103985705,2.330469452494158 -2.2907078816213744,1.9465666115441953 m5.972791729696143,-4.875796635013563 l2.6705775363672966,1.1396625511781855 2.6759836432610333,1.5388932649492322 l2.3493422011867695,1.8312453745270936 1.712599564778153,1.9476243122817338 m-36.589529273432404,7.419880707084063 l1.5716467262003802,0.258507042643724 1.776986365618152,0.0076306805751064875 l33.74370097749012,-1.4207507038772498 2.179093489087292,0.2847160738653245 m-20.884747852960256,-4.553016487341827 l0.6326772160415357,2.5282790454990476 -0.11508008908568973,17.051707236545862 " fill="none" stroke="black" stroke-width="1" /></svg>