<?xml version="1.0" encoding="utf-8" ?>
<svg baseProfile="full" height="135.46247169069994" version="1.1" width="93.41605614932715" xmlns="http://www.w3.org/2000/svg" xmlns:ev="http://www.w3.org/2001/xml-events" xmlns:xlink="http://www.w3.org/1999/xlink"><defs /><rect fill="white" height="135.46247169069994" width="93.41605614932715" x="0" y="0" /><path d="M25,25 m0.0,0.0 m12.087078101215099,15.975320054837733 l0.4142347862431565,0.13610055319564557 2.6005818046849307,0.18395678151172384 l13.548881424991592,-2.641026178321102 12.846916274821108,-0.11548369141518987 l1.9183637573712746,0.488524365755805 m-24.93336384624462,-6.329434704120423 l0.5718884303752053,1.9182033716381968 1.219256127086865,12.624386485472362 m13.467727251764076,-16.23058763754729 l0.144277126706671,1.56373914728446 -0.08187649218826214,1.15399918206312 l-2.0362036093699607,11.507276224561366 m-14.477210508397073,8.175117915192232 l-0.19625526228501028,0.5478447725371693 -0.19486099392720352,0.9897639175575131 l-3.650522395278253,5.672777339777337 -2.724544287123817,3.457535512374682 l-2.896480021513722,2.978906014261976 m8.551643930676319,-0.48708560117161487 l0.0035566526212953684,1.2260006247234216 -0.3280152258531745,1.05368882749675 l-3.0050339883345227,6.7602840820781545 -3.1906489321179463,5.90782192505751 l-3.2296739446213683,4.644268246039297 m6.498315073642707,-7.331432744246156 l0.4506855588078102,1.1297645977175368 0.022495922710912955,23.37545419437926 l1.4062325223980214,0.7401867640181988 0.7849627608007964,-0.18138800478279266 l5.162750496944715,-7.713363165154303 2.974039468414057,-3.6325653573673935 m-6.980212744157906,-7.856375524117023 l1.7209199795194186,1.8216923292060363 1.4323490799403173,2.3208289316177733 l1.1339211409515049,2.5340791860523293 0.7316787133499255,2.49147360099574 m3.824939285661524,-24.813217148905355 l0.9260137568591063,0.3762134067178825 1.4903831292799654,0.044484391213002655 l11.201356893292468,-2.46762055226068 1.1019023825612961,0.630965746569811 l0.25909703043522053,2.223182466839177 -0.1317653089744829,11.234290790721015 l-0.49167953239418194,9.022254240333062 -0.7293714004592511,7.033630389531462 l-0.32331362762462207,2.6990366484951513 -0.36970705010069815,3.17519666780437 l-0.35706500694151183,3.0592969031483346 -0.6627110229637773,2.9633024218379767 l-0.4266597223826902,0.9536316118982927 -0.4706738652307761,0.4675713675963705 l-0.47094704867436304,-0.0249785158544081 -0.43534640028024685,-0.4823510346040995 l-1.2507168402382935,-2.5672060483752523 m-1.7927291076961793,-34.24812536167318 l0.07878566427443949,1.1523989903805743 -0.07497402461174144,1.4648151004800494 l-1.7835320044885066,11.424671761014459 -1.7003611827055387,5.032954529636472 l-1.643312183266939,3.5454889627808037 -1.919091073241903,3.366018572241533 " fill="none" stroke="black" stroke-width="1" /></svg>