<?xml version="1.0" encoding="utf-8" ?>
<svg baseProfile="full" height="111.39095553186202" version="1.1" width="98.1925092663551" xmlns="http://www.w3.org/2000/svg" xmlns:ev="http://www.w3.org/2001/xml-events" xmlns:xlink="http://www.w3.org/1999/xlink"><defs /><rect fill="white" height="111.39095553186202" width="98.1925092663551" x="0" y="0" /><path d="M25,25 m0.0,0.0 m7.897030628952651,18.999162154648022 l0.48779919762078305,0.10346543098961908 2.1753883402168435,0.18893592619668784 l2.6019050008296127,-0.0858250686114407 29.2401668899181,-2.3947428304971132 l4.6798665336011975,0.17777838013139785 1.110352675215922,0.6148636920521432 m-36.95785660911929,2.355854772677397 l-0.06119017491329332,1.584684521424581 -0.6770485214226025,7.374401395863336 l-0.7584255889282862,5.262189024226931 -0.9367028363260249,4.270028696325978 l-1.3925355439785063,4.165825762793712 -1.3721326306303576,2.8447015927637946 l-1.6925307383155637,2.5750704070739094 -2.117781203011458,2.256025255132993 m14.9158423252207,-23.835250715631428 l2.090166388371492,2.1913359782364425 1.48267655655009,2.515901976188444 l1.1332989353608642,2.271246605099163 0.7538418420900017,2.1467373473124907 m11.670958077281389,-11.28236712550319 l0.0378695906664739,1.3602288663163944 -1.2498747528822578,2.3992448592489257 l-1.9799171673082563,2.7450546963002385 -2.0547988174373453,2.2851664763886825 m-17.56467050921862,3.633744888356345 l1.7308395021283813,0.21318650098188702 2.6725359329437675,-0.06909882523144122 l18.62497483624822,-1.8274643156451815 3.56785080405796,-0.1085173092900426 l2.5050382220511183,0.21100021385834308 m-32.507402686900924,11.079844372037494 l2.0241852866473167,0.24608766031035892 2.113046801894472,-0.06863981741194587 l25.21954009031648,-2.1149444378219826 3.6996162450803753,-0.15042918792794438 l2.2647472082066407,0.21396438226131348 m-18.958972221078454,-13.833859311018998 l0.6079381874493959,0.7784452797425786 0.26512340064181605,1.2236491792387723 l-0.07989318973501643,28.87426818227438 " fill="none" stroke="black" stroke-width="1" /></svg>