<?xml version="1.0" encoding="utf-8" ?>
<svg baseProfile="full" height="110.58356230187889" version="1.1" width="101.44680350540412" xmlns="http://www.w3.org/2000/svg" xmlns:ev="http://www.w3.org/2001/xml-events" xmlns:xlink="http://www.w3.org/1999/xlink"><defs /><rect fill="white" height="110.58356230187889" width="101.44680350540412" x="0" y="0" /><path d="M25,25 m0.0,0.0 m22.791635823135465,2.503416045339666 l0.37993202648723284,0.4379348689545473 0.4441145371238634,1.5226267638797226 l-0.12736721247179197,13.739180442851714 m0.9838484431014012,-7.542734662149446 l10.868871568675146,-1.7160160122444197 2.7157069063549675,-0.0649596099161728 m-27.110324390125456,11.105112859315135 l0.69061076240643,1.0068838469912782 0.44388990399575623,0.9370121943484114 l2.3394525819515555,15.817123947206527 m-1.8450636325644239,-16.88911880085498 l21.4160578257212,-2.773357838495805 4.87847942806344,-0.16640312397441823 l1.107720288986603,0.7466582271793111 0.36739248136276326,1.556864401399867 l-2.7469240867696456,14.056586392579106 m-23.120165277148235,-6.507077466781298 l12.892064928337655,-1.489171343179257 11.17509445286184,-0.8758038862961326 m-22.649043881204854,9.963079876640329 l10.550004962623106,-1.1577548187119424 10.465891953937545,-0.8030769640959519 m-35.49151125942142,12.140921696646691 l1.7953722407492982,0.3872166180285858 2.341926353126373,0.04019718841629331 l17.488956164786174,-1.6829293538392622 18.861177394858522,-1.317210962331067 l5.6988207100852115,-0.15488739976991112 3.840181506378396,0.38775531713324607 m-25.373708168426624,-7.4910800388590415 l0.5385282598460249,0.9709633242021851 0.14425793280242052,1.2160191381585088 l-0.04064186567585987,22.679591434106865 " fill="none" stroke="black" stroke-width="1" /></svg>