<?xml version="1.0" encoding="utf-8" ?>
<svg baseProfile="full" height="103.26795577804931" version="1.1" width="95.30714605781323" xmlns="http://www.w3.org/2000/svg" xmlns:ev="http://www.w3.org/2001/xml-events" xmlns:xlink="http://www.w3.org/1999/xlink"><defs /><rect fill="white" height="103.26795577804931" width="95.30714605781323" x="0" y="0" /><path d="M25,29.747223323472454 m0.0,0.0 m28.65995286769029,3.051032902785442 l0.333784068202826,0.3754837025313255 0.4403657812846709,1.0164784198075287 l0.08730537543967416,5.033025405631775 -0.8584140287535099,39.044712023820786 l-0.5193604515537564,-0.4967514711670991 -1.2452502131117094,-1.3155217490569684 m-8.140671533161184,-30.4716348726246 l1.764141225712277,1.2335330506639648 1.683686996857853,1.8173673640685772 l1.3522446738887222,1.899567338524389 0.6261448337867335,1.2268185670290874 m-7.466378756202827,16.461201800243412 l0.9529644185160937,0.3525337711929023 1.0642207947038913,-0.6525494504950274 l6.056978494618651,-8.005816245238297 m20.51543150989453,-19.082292659813046 l-0.2920308161598058,1.1678919556258873 -1.3091245935586926,1.0330419734243632 l-5.0441133014891655,3.557540319160584 -4.488442229211943,1.9842047376003153 m0.1073661816960746,6.4685386869392945 l2.7848256269166436,2.1850136228043135 3.170682071046406,3.0686561955988605 l2.7300064091659095,3.121138505870157 1.596853565715971,2.746833874594155 m-8.614546746143876,-41.56727109299453 l1.8377137656579747,1.3462710744855921 1.775608878978202,2.09030731256708 l1.2815047407544895,1.8963493550382808 0.6147286275279373,1.3405774077031123 " fill="none" stroke="black" stroke-width="1" /></svg>