<?xml version="1.0" encoding="utf-8" ?>
<svg baseProfile="full" height="96.57917309477403" version="1.1" width="103.27062582879633" xmlns="http://www.w3.org/2000/svg" xmlns:ev="http://www.w3.org/2001/xml-events" xmlns:xlink="http://www.w3.org/1999/xlink"><defs /><rect fill="white" height="96.57917309477403" width="103.27062582879633" x="0" y="0" /><path d="M25,25 m0.0,0.0 m31.196851498670334,2.0175481909631277 l0.30811769389306637,0.3768423252337357 0.4289989636858581,1.6231640105383933 l-0.0025776573383192,9.949801612034232 m-12.518834391891442,-6.4056515353869825 l0.35209904105341655,1.476965490513044 -0.6123680400969794,6.303167828514271 l0.7066737078328207,0.7616182160254179 11.959595574573164,-2.208739112331118 l12.658803673875703,-1.3504076353179855 m0.6946903680132661,-8.270401745131602 l0.3537168873735848,1.0351932319754442 0.08156114284036266,1.1849625832768413 l-1.1150103203423323,8.357408736410713 m-26.35350877480992,9.303109770956679 l2.5364283479060226,0.3129468147817088 21.19904270756987,-2.5966389391047286 l4.664670847289002,-0.13693105723820112 2.089902593307531,0.2908237644727483 m-17.38910401781112,2.990768722782844 l-0.04018271076019824,1.7253949588009339 -2.035994699810928,15.832353570967623 l-0.1426988842327647,1.0736431979292245 -0.26219610661987647,0.44230920832377235 l-0.043134493266881097,0.19424328803307625 0.35321070090596773,-0.06573832446982408 l0.7011733053225366,-0.356682215938538 6.493869586754111,-6.663163800710669 m9.903234674851774,-12.767520489669213 l-0.2768447437678966,1.4524717541905345 -1.178894492250319,1.6378188549615653 l-2.2731855964012873,2.159837856068664 -2.7731298388005854,2.229724199901688 m-6.5392576792088395,-3.370824787058975 l1.1678118997628144,0.8160648441823776 2.428400833271629,1.9945969259193745 l13.168552331840052,12.944183829591491 1.586634961899103,1.2802127262998344 l1.7935069337140235,1.0046962234825223 " fill="none" stroke="black" stroke-width="1" /></svg>