<?xml version="1.0" encoding="utf-8" ?>
<svg baseProfile="full" height="105.21459769400082" version="1.1" width="101.20328658837744" xmlns="http://www.w3.org/2000/svg" xmlns:ev="http://www.w3.org/2001/xml-events" xmlns:xlink="http://www.w3.org/1999/xlink"><defs /><rect fill="white" height="105.21459769400082" width="101.20328658837744" x="0" y="0" /><path d="M25,25 m0.0,0.0 m10.449713411420811,16.096020835289693 l0.5336034976408758,0.10474067455810387 2.277837130876189,0.20972327129539123 l2.6200322294969567,-0.08985310415376793 27.13953001295012,-2.2097713711459614 l4.561626790018032,-0.16387722518966974 2.565059754957081,0.2190818817639773 m-38.32693240198098,2.4109463315770934 l0.5916634896243707,0.6971834656462128 0.2312576962985062,0.909646891764511 l-0.1541766144741675,6.425909105944966 -0.6411295362061193,6.9431794778800375 l-1.218908035912634,6.551860757748524 -1.4755482576938954,4.897969429136053 l-1.5288640794593,3.557902898900348 -2.446489586117806,3.3319420572361955 l-2.6055535132419236,2.3441427342660517 m17.358400829564832,-27.34098856064695 l2.4432908479684077,0.2548942099539643 2.660819851324772,-0.03814587243941219 l16.64324972571194,-1.1642507127429846 7.3026187023476,-0.3186523858674649 l1.7240725899607658,0.6410129831659748 0.4981120533030184,0.9280958267532464 l-0.38880207210262613,3.6046086984276613 -1.5667090090086557,6.874306327607129 l-1.6549869867464235,5.457575905987396 -0.5973254608570241,1.6239909502638707 l-0.683966649703976,2.1098424819405412 -0.6767644143102599,2.5942479636994475 l-0.6682910893213373,3.02081811091568 -1.12312114210173,3.0584514439906085 l-0.7152985865808246,1.005909918809393 -0.720197989090684,0.5334033083841369 l-0.7220129790008994,0.13272898328083155 -1.4044218222777234,-0.6156031398423584 l-1.8681858423055153,-1.896817381326879 m-3.82398523388682,-21.942543316816735 l-0.027745011024413985,1.7651148595955863 -1.316694584369778,3.9995445882408323 l-1.788314323469059,3.8408006612934606 -4.1879173474740545,6.516994970257823 l-2.7547240014233907,3.1145881572274563 -3.219888426659773,2.9670395452892078 l-2.7546387106298944,2.097932304318866 " fill="none" stroke="black" stroke-width="1" /></svg>