<?xml version="1.0" encoding="utf-8" ?>
<svg baseProfile="full" height="200.01360109284272" version="1.1" width="100.16755939798566" xmlns="http://www.w3.org/2000/svg" xmlns:ev="http://www.w3.org/2001/xml-events" xmlns:xlink="http://www.w3.org/1999/xlink"><defs /><rect fill="white" height="200.01360109284272" width="100.16755939798566" x="0" y="0" /><path d="M25,25 m0.0,0.0 m6.021938917892877,3.67728290111806 l0.39387707507645003,0.4737521838215089 0.43802617571939656,1.0929058463389936 l0.12720601149915758,1.8313579973814633 -0.03548848320260647,14.34485731235791 l0.2469903042217246,17.23608890269827 0.44160693348656777,7.329873981335746 l2.13136314298779,6.463839139851024 2.5669160081251876,-7.034009705603523 l4.196146390839263,-4.527785247019819 m0.537987738587266,-38.66555288297934 l1.0960247358375652,3.70664395130518 1.058744296722442,5.0557864769274845 m2.037072768505372,-10.809379499731843 l1.9064681442775244,4.894863471497287 1.692076823889071,5.157195288980373 l0.9912788263649516,3.533868611379086 0.8246035983045154,3.8223016396118905 l0.7053415865044225,3.700180770649531 0.5733107226037041,3.4967435566148555 l0.6807615510963769,4.928397817324521 0.6772821149086501,7.101430993474996 l0.43974884448619117,7.584247507401863 0.31821000391333293,6.811955709416078 l0.3226526118857438,6.162178331090686 0.43738988809312884,6.307350816953401 l0.6103620888600673,6.004616765358334 0.8330915351252536,7.33149557852773 l0.896222773516174,7.658620049992406 0.9428245277248922,5.703210349771923 l1.1325695218987455,4.639502660392606 0.8200652929116137,4.624997855036446 l1.4051566070822918,4.540832145127152 0.8885942545885905,3.9792053468203417 l0.5242245823789108,4.131808283509933 0.35523264691199236,4.076521990291782 l0.18392369458332855,6.410541826118981 0.08693077951213143,7.104664128301375 l0.06472459422212835,8.012365899936409 0.06587615340196303,3.5234082467210497 l0.11777464238063644,1.5680806324139147 0.206325601618712,1.547974563191697 l0.2909943720125341,1.0567994713601503 0.506787694597719,1.0067074157133467 l0.5913303674026174,0.8916779551569046 0.6931336025540078,0.8030829783796403 l0.7287000127845853,0.7372597945638926 0.7331233642984449,0.6344307306386899 l0.7500460690719507,0.3494205533223237 0.9943725836230555,-0.16975730905289657 l1.0457827145383174,-1.2673403908231462 0.548691143373662,-2.239457387834965 l0.18989146461138826,-4.902339029609275 m-6.427317429478238,-57.00937073183365 l2.269535958183887,3.049348591582716 1.5493532328465414,3.2845674287777196 l0.8919087072981438,2.5929193095374856 0.5851280872912542,2.940139345787555 l0.49036795389685783,3.6675383015450334 0.28184919538720254,21.92629609225362 l-0.5267959361074649,8.876666066022487 -0.5981830650072684,5.95026079089775 l-0.3908046380092012,2.63851966732665 -0.4177874990866024,1.7220404318178884 l-0.4346561834640423,0.7677137053669852 -0.5008962009083238,0.09644372891594245 l-0.9834973843728957,-1.282198696601065 -0.938294000215989,-2.5028915163709824 m-4.52574275655676,-45.92391852724175 l-0.2346829633981211,3.1643901011584408 -0.8905507627602844,5.578207473694443 l-1.1239967030245879,5.566000078300159 -1.3716496785885268,5.442252637948273 m11.326244767573682,0.9987867394835345 l1.831269297158229,2.8472532134837882 1.526598818034455,3.3368124008992472 l1.223615158285454,3.996522782872446 0.5222540047964713,3.1845627647092845 " fill="none" stroke="black" stroke-width="1" /></svg>