<?xml version="1.0" encoding="utf-8" ?>
<svg baseProfile="full" height="93.92168555709196" version="1.1" width="93.5471078696019" xmlns="http://www.w3.org/2000/svg" xmlns:ev="http://www.w3.org/2001/xml-events" xmlns:xlink="http://www.w3.org/1999/xlink"><defs /><rect fill="white" height="93.92168555709196" width="93.5471078696019" x="0" y="0" /><path d="M25,25 m0.0,0.0 m26.448887168143134,4.179720749280685 l0.28813381404605076,0.3600987085793894 0.36977794209543585,1.408124464184643 l-0.023506668670744284,4.998494040035621 m-15.108632328306095,1.9003550402969052 l3.1527454546952227,0.15005513367379078 12.609256088134382,-1.5207268846837447 l9.296195692072828,-0.7365825073312346 4.082617762461697,-0.08277887211465838 l2.4316329449299916,0.3933490405317568 m-24.810654827721272,6.214929220958438 l0.6379245738672416,1.8855001322328726 0.10002254253269495,6.213684773148563 l-0.3434376048613505,4.285514528512749 -0.9067136076487928,4.197398505496912 l-1.1081449650869135,2.9603474677010926 -1.470686971279737,2.57670886224086 l-1.859370371331487,2.30118057685763 -2.0503081589400254,1.7551546371028972 m8.813356057143048,-24.51608235027577 l5.724120690441718,-1.9595486823590136 0.7707681002249215,-0.05793239705178132 l0.5865567844940436,0.6124411066094468 -0.19643680065186597,1.0665277914595426 l-1.1728996348463916,6.353257105500727 -2.045103958377767,6.843924245391724 l-1.3811508117906646,2.897924128020836 -1.6914751316466117,2.671210530124733 l-1.9975571628013749,2.4903878021004027 -2.380663827272904,2.369240527456624 l-2.1643129657904083,1.70980813340933 m5.517670619342787,-19.42520038044459 l2.2832945833469354,2.8269288402903068 1.0266075516079913,2.9614955820200786 l0.4149010874625965,2.0186971104868747 m-17.40633498030869,-18.346554943993606 l1.7170097104501747,0.8982713021498302 1.9359625459756697,1.7254744603443701 l1.3956855625418076,1.7139588074283558 0.6472693589275692,1.211196625624678 m-8.391169021109542,11.291290706839625 l1.0430676299757298,0.4555373937439051 0.740401027509218,-0.18488194829292168 l6.954657383981406,-7.246943739998747 m16.028463586587467,-12.787239783275638 l-0.011022106643408709,0.7901047460413304 -0.3394680805701837,0.9001572497313981 l-2.053582076935621,2.2991031831373645 -2.6273153738532673,2.2682913759976806 l-2.745456015637504,1.8971817333676844 m0.44047731497609127,4.473380719190408 l2.091378593202758,1.4641960972989958 2.5978528777627354,2.5445804444388966 l2.0310024393820454,2.62865203130115 0.921151821052412,1.9679711533792057 " fill="none" stroke="black" stroke-width="1" /></svg>