<?xml version="1.0" encoding="utf-8" ?>
<svg baseProfile="full" height="100.40894551673634" version="1.1" width="106.70165417870713" xmlns="http://www.w3.org/2000/svg" xmlns:ev="http://www.w3.org/2001/xml-events" xmlns:xlink="http://www.w3.org/1999/xlink"><defs /><rect fill="white" height="100.40894551673634" width="106.70165417870713" x="0" y="0" /><path d="M25,25 m0.0,0.0 m14.589428891358232,5.912821233211378 l0.537086060741642,0.12597309926392616 3.552478235555833,0.24782719186497848 l24.90049058054483,-2.480892376234071 3.365817216037977,0.2267625675911578 l0.8092308949219137,0.6928477178324928 0.2341796998954024,1.2311072615785856 l-2.9004073725973667,9.871676006473633 m-28.66814789660057,3.1228151528553725 l30.481726603618878,-2.525729444794419 m-31.47172909532634,-9.68772137792461 l0.5738893763337144,0.8597042069672659 0.2468917136414431,1.094195943521955 l-0.25978100144906063,5.80163661199432 -1.007736763965718,8.625337985484219 l-1.5357967624221824,7.267739808000455 -1.6834854301505737,5.159970332106183 l-2.1366818636978273,4.508692387862667 -2.6915758824741025,3.8387685128529028 l-3.9053694522274505,3.8744179225278343 m20.33978640374395,-26.256800909313274 l3.500630162804136,3.1638295824282126 21.024242047665247,19.056237527025317 l5.109224104531217,4.334119375385789 3.6972637082239213,2.3436091981740637 " fill="none" stroke="black" stroke-width="1" /></svg>