<?xml version="1.0" encoding="utf-8" ?>
<svg baseProfile="full" height="97.76023933233913" version="1.1" width="96.64378958387496" xmlns="http://www.w3.org/2000/svg" xmlns:ev="http://www.w3.org/2001/xml-events" xmlns:xlink="http://www.w3.org/1999/xlink"><defs /><rect fill="white" height="97.76023933233913" width="96.64378958387496" x="0" y="0" /><path d="M25,25 m0.0,0.0 m27.29672641422376,1.6935189258501766 l0.33880572471327486,0.38141203005382945 0.503517747029105,1.0426085139989048 l0.09509021152443023,1.1510691252271787 -0.06139426539104232,11.676470211430981 m-15.610902251617663,-8.969684732171848 l0.5619314540967694,1.4417495264075335 -0.3765268920729271,1.935441553392172 l-1.770704238765485,7.953650204171601 0.8717972349120501,0.586895366805166 l13.743213716489874,-1.6443865761817271 15.38191542405031,-1.2598099040015969 m1.3223613227637738,-10.773743213570354 l0.45240543047936194,1.045615336408961 0.12040628797997804,1.3050687038196196 l-1.5527230077441234,10.718531506926317 m-33.71173901028678,9.282379979101934 l3.923801800591145,0.22392167812590352 26.157916083876287,-2.7738083185019327 l6.140390737886634,-0.24142713107880664 2.817499659136225,0.334342762126727 m-21.447757515426524,3.411812172641586 l-0.09721410752892036,1.9548523851164936 -1.1272260114603159,17.054618162047685 l-0.6860485507702697,0.2291410641926105 -0.5306843954823479,-0.029456277287709467 l-1.0300669083286262,-0.6518450882347271 -1.6057149190100994,-1.5150399236425807 m-9.845646802237543,-11.143384045087476 l0.044695144965823025,1.1070414771315051 -0.19196306075976785,0.9771747399882853 l-1.7987248302883234,3.193768199623359 -2.43787914408326,3.059569129722236 l-3.0987817651762137,2.977842839073713 m34.14344841672553,-12.046376675061472 l2.2471261642087623,2.30765042813368 2.4037731253789003,3.1048933443280577 l1.9251423727779384,3.1265689090959814 0.9296357325101174,2.33957119996368 " fill="none" stroke="black" stroke-width="1" /></svg>