<?xml version="1.0" encoding="utf-8" ?>
<svg baseProfile="full" height="111.33348876624083" version="1.1" width="118.90831343060476" xmlns="http://www.w3.org/2000/svg" xmlns:ev="http://www.w3.org/2001/xml-events" xmlns:xlink="http://www.w3.org/1999/xlink"><defs /><rect fill="white" height="111.33348876624083" width="118.90831343060476" x="0" y="0" /><path d="M25,27.019188269109883 m0.0,0.0 m31.6358547422662,1.3808825025910998 l0.3893821281854432,0.40345446300593735 0.6945648681235056,1.906820087553406 l0.0061359715648615885,40.62328495675584 m1.6083954774350373,-25.912956793093446 l14.240506924994891,-1.8205769377795074 3.397138312524112,0.06146756090110259 m-33.44868131943644,27.994982151040873 l0.7932133265570837,0.3356802625574633 1.0502414195141978,0.12411450278909837 l3.390648315660553,-9.08075802571118 m9.776359206731245,-8.495315610132657 l6.01310779720184,-2.053860099069041 2.2449237988931996,-0.27638331576520125 l1.1869788755122592,0.9791082921750984 0.03847521845951883,1.5640623032195227 l-1.830302558520424,14.207976047435368 m-9.754578683587066,2.3217670182623675 l9.517596347292088,-1.2933089109127063 2.2026403442520337,-0.0055500157340579144 m6.98888176622377,-42.86549056727099 l0.8837360719234825,0.3218810172245896 1.5959864361838796,-0.033742368022399875 l10.531624821022211,-2.406726791130459 0.7631680843326918,0.027616297311506485 l0.5613378748902267,0.9618292818073118 -0.03792482591364708,0.9427037518855558 l-3.0103225577810875,12.37329858637239 m-10.15017515446763,1.9277674949944084 l8.348867553661535,0.21241655818757732 6.704023853996099,0.15044697944354044 m-14.37530006138525,10.69220743591425 l13.048357553995253,-1.377784104899418 1.8320837358624689,0.093229767384975 l0.5486595584507122,0.38384677952420854 0.28527823627312776,1.4910627765398021 l-1.232862599533045,3.629735829209245 -2.427853474782818,5.554548660006323 l-2.6140051577793764,4.61900173297978 -3.0054690274737177,4.289056753479774 l-3.3318235362408157,3.8766976994285143 -3.584392115245434,2.5615799734609155 l-4.157289315044091,2.1282694205092203 -3.210409968709523,1.2693883477366934 m7.113390417153612,-24.320026392359864 l1.7760416767168323,2.4755616686859527 7.421367614101979,15.769977114124718 l3.6615023593305644,6.291153094596586 2.9659520691687327,3.8202140525242254 l1.8632810280499086,1.4896892073926342 " fill="none" stroke="black" stroke-width="1" /></svg>