<?xml version="1.0" encoding="utf-8" ?>
<svg baseProfile="full" height="129.3842775782664" version="1.1" width="102.94867558944415" xmlns="http://www.w3.org/2000/svg" xmlns:ev="http://www.w3.org/2001/xml-events" xmlns:xlink="http://www.w3.org/1999/xlink"><defs /><rect fill="white" height="129.3842775782664" width="102.94867558944415" x="0" y="0" /><path d="M25,25 m0.0,0.0 m15.860707358088826,12.659986399440944 l0.5818934079873428,0.13937013794864292 3.707801955196831,0.2343882112445069 l27.550027161665586,-2.6399554155521034 4.420584472578721,0.23340856523552375 l0.8276612339268394,0.6863813835065794 m-36.858894087997456,2.890512490639575 l0.457481220408613,0.875027475532634 0.15699272116930943,1.0257689334891213 l-0.5085059181800418,14.6491023613584 -0.8829048006169382,6.862987172014374 l-1.2678490209705278,5.63696236913022 -1.6075494091092968,9.309393505231741 l-1.526340812355688,7.551553607751728 -1.669892588410339,6.250974451802672 l-1.9233272549047746,5.535409351764938 -2.3190546923103685,5.091853795959771 m14.968130411776865,-48.53989633312935 l2.485311641545097,0.4153666196118915 22.8345614742313,-2.7498899749164534 l2.863822737544402,0.2593889757396171 m-16.04144914532767,3.6451747067276905 l0.19905741250135173,1.2084054171335414 -0.34577850974837987,1.6223088519220308 l-2.8919866084055714,6.101696650878463 -4.444638663912451,8.498666062124496 l-0.3284119579176773,0.9667512043618671 0.1050676852211454,0.8688170958327813 l0.6908705947579302,0.18782995772650288 20.21270905458224,-0.4069146635988745 l0.6832112820923048,1.8439292596073964 -1.2701735836297192,5.72912766297765 l-4.736607057420942,8.895459765591344 -3.162058743299208,4.5480527207265276 l-5.190501532051699,3.8456153877561605 -3.5428222201307777,-1.2556345509929028 l-2.235621296529698,-1.3203584279849063 m5.35820155443919,-22.03493173835625 l0.3515206569258193,2.034588486741845 -0.8339173129641791,3.0136638462787326 l-4.650516335282801,6.327963060912266 -3.024104079442922,3.0181640333954145 l-3.3701196268947724,5.609400508022253 -5.677708839375734,10.058408196677386 " fill="none" stroke="black" stroke-width="1" /></svg>