<?xml version="1.0" encoding="utf-8" ?>
<svg baseProfile="full" height="113.80790052335868" version="1.1" width="106.64865515988316" xmlns="http://www.w3.org/2000/svg" xmlns:ev="http://www.w3.org/2001/xml-events" xmlns:xlink="http://www.w3.org/1999/xlink"><defs /><rect fill="white" height="113.80790052335868" width="106.64865515988316" x="0" y="0" /><path d="M25,25 m0.0,0.0 m14.932761248514394,23.365695777390822 l0.4873676824162215,0.12353812853843152 2.68686587576365,0.11369284027394896 l27.900532836617383,-2.513268161784906 6.03605636979626,-0.18944990902167091 l2.735394854118983,0.2704982439441507 m-21.592875283344473,-16.725055939704784 l0.4906864048899658,2.8940465069231673 0.027777229462072506,3.356689077615785 l-1.5266136720995251,11.48082306205593 -2.0494932883768207,11.028307613633608 l-2.792479723566671,9.70183488250284 -2.6859327176302337,4.325794041156337 l-2.1882871825763477,3.059362887543674 -4.422278559476629,4.800876794711287 l-5.5128360739706554,3.3052354429820268 -6.75492338105642,2.7663739655830044 m27.633674572524605,-31.389013448872134 l0.6003183314295046,1.6041541073535017 0.24219751987706903,2.1223966518630655 l-0.20804211356178498,22.994720561866338 0.48589878867453423,2.7058463570307114 l1.2120082459531447,2.7748038172385474 1.8740017849317872,1.3227516253117493 l2.829581775375372,0.5072455972232807 7.508097601272113,-0.08654759499168686 l4.429683816538779,-0.7329238385086551 2.4879583626313195,-1.0002503749465435 l1.2239283090637167,-1.3307586930045772 0.4850972340228808,-1.8186690872419313 l0.07252831166898796,-3.0172570036602666 m-13.592934211119546,-44.92954524620804 l1.28121739841781,0.8681495662483657 1.970335278015038,1.8541955046740615 l1.606683027309256,2.015338494877844 0.6383748115720801,1.2725156955076884 " fill="none" stroke="black" stroke-width="1" /></svg>