<?xml version="1.0" encoding="utf-8" ?>
<svg baseProfile="full" height="115.82129297185716" version="1.1" width="96.46781379985387" xmlns="http://www.w3.org/2000/svg" xmlns:ev="http://www.w3.org/2001/xml-events" xmlns:xlink="http://www.w3.org/1999/xlink"><defs /><rect fill="white" height="115.82129297185716" width="96.46781379985387" x="0" y="0" /><path d="M25,25 m0.0,0.0 m21.215394982588307,3.8824142014328165 l0.4590462352194423,0.35052704794110545 2.996882322712706,1.6100355795496961 l2.562403634955482,2.3201527934518182 2.0535707400809105,2.328934306747497 l1.2069010203903245,1.9288109633263912 m-23.124056826992494,5.944602252752166 l2.283813550217004,0.29796411433043635 2.094468845114482,-0.09299791949357665 l31.421479559679568,-3.6398954812283724 2.1710628112153953,0.19141944699366173 l0.831274769867449,0.4242822889445111 0.2955721548052846,1.225939521016488 l-0.39809038414183545,1.709616213833219 -0.6969219745448482,1.1388682651757558 l-1.5605477955138565,8.12161171598333 -3.465563529699928,9.218778277431392 l-2.4374630044486527,7.176056632494754 -1.2635172775365484,3.9218349029219026 l-1.2068835381045457,3.7345842570922954 -0.6897220526510125,3.1558345157245657 l-2.6841786543734028,3.680976219646779 -1.7178027830366538,-1.2325892157092835 m-1.1374157995631895,-46.57452383062919 l0.0719357144230892,3.28800095973481 -1.4736000234546127,8.091714662793425 l-1.8818522631074843,6.864325811755065 -2.4843692499642502,12.39248024106357 l-2.2644254455163884,8.729943092142758 -1.7783553640545757,5.3802027697743835 l-3.026245276570904,6.389033783366155 -2.727949276613956,3.8623545814968376 " fill="none" stroke="black" stroke-width="1" /></svg>