<?xml version="1.0" encoding="utf-8" ?>
<svg baseProfile="full" height="108.96941404127647" version="1.1" width="103.96063302244117" xmlns="http://www.w3.org/2000/svg" xmlns:ev="http://www.w3.org/2001/xml-events" xmlns:xlink="http://www.w3.org/1999/xlink"><defs /><rect fill="white" height="108.96941404127647" width="103.96063302244117" x="0" y="0" /><path d="M25,25 m0.0,0.0 m5.3971490520408265,20.106911263571735 l0.3808431737302859,0.08808577093551602 2.233863086421183,0.06553066383686754 l12.442613484263276,-1.947985593765599 1.649028231087252,-0.021561241472091156 m-7.881877649824714,-12.153948064261963 l0.8598833933164104,1.2954466876108646 0.49078648530038615,1.8393960490070966 l-0.12826637218862172,43.53709913782757 m-0.33264064766668616,-33.02203036542099 l-0.5136241782965633,2.4996301017794678 -3.0152405293715114,7.283574574157101 l-2.376926454156458,4.6078107983453185 -3.4386503249874747,5.359869792928953 m11.248152220393717,-14.785271831736841 l2.3497677247169992,2.1927680976599038 2.5792919269336565,3.3892312928162487 m2.6986622456736065,-19.032430667125677 l1.752027323668241,0.11964367947009467 2.531787975762603,-1.968630512294538 l4.208444385077493,-5.450070248335118 0.49233478061691155,-0.38073192606230827 l0.36160598894493173,0.18811263865218134 0.20527994944573805,0.5453457193024323 l-0.07308887350664314,2.242275677285139 -1.8386373275821148,7.355095674833545 l-2.8499972411422627,7.058707835981065 -3.2241889903555774,5.461261763387122 l-3.649259446072101,4.148533933114369 m2.50286636449691,-17.726738130746178 l2.706457904706943,2.2739315479004616 1.3081202710495794,1.6952441719262916 l0.6529254811359447,1.271079763730069 m16.392410463262724,-11.212339193663894 l-0.3067734950418784,0.9794085965983008 -1.063761645031982,1.3507885626020435 l-1.6704615317520943,1.5583808225376452 -1.8476624695642452,1.3302787686690887 m-4.990648251736273,0.179814098934206 l4.0956046060068845,3.8296535957263913 10.763723715977799,11.263259795160486 l1.3504124566062596,1.0361790811028118 1.508295760081817,0.6233859411077396 m-8.585030044994166,-15.662269118102824 l-0.18437319480610187,1.0582223060286693 -0.9411796998313791,1.2831753814669458 l-3.1137108899918897,2.7261321059800414 -2.4733407240131933,1.4768000425397476 m-14.964988002687592,7.398794993146211 l1.415535118117525,0.21194062284269566 9.055860549070763,-1.215174901544727 l2.1269212685539265,0.03059166153172425 m-15.929612682778643,8.252415430342015 l0.6201833134664997,0.7366726042841543 1.8674045404461797,10.874428382925089 m-1.4973810365426556,-10.944812986360247 l13.833021564347417,-1.9922481236406682 3.146082916556972,-0.11733848144181944 l0.9325121385647056,0.9474079913468247 0.13595383842754927,1.4991163066151192 l-1.8958892041372144,7.585381454023616 m-14.118569822768736,1.8832009117822328 l15.422402702057134,-1.6708965990905684 m-16.05887246252484,5.517579109898112 l2.1730775147004935,3.5979991121443975 1.0813579357495886,3.3787319725703155 m11.478581747301964,-9.011197131636651 l-0.16291131016835483,1.6775234219201676 -0.9149381943832565,2.882536204036733 l-1.1498741877157972,2.5048879975173812 -1.4367370334870802,2.2575275069671386 m-19.702636940856426,2.407826741431359 l1.9213315910077693,0.3128556687924743 26.955697762562746,0.007605329347886649 l2.1288348558826713,-0.006480977522130365 " fill="none" stroke="black" stroke-width="1" /></svg>