<?xml version="1.0" encoding="utf-8" ?>
<svg baseProfile="full" height="105.03124045704787" version="1.1" width="105.42127177253806" xmlns="http://www.w3.org/2000/svg" xmlns:ev="http://www.w3.org/2001/xml-events" xmlns:xlink="http://www.w3.org/1999/xlink"><defs /><rect fill="white" height="105.03124045704787" width="105.42127177253806" x="0" y="0" /><path d="M25,25 m0.0,0.0 m15.555972408725752,11.959898824876793 l0.49402916823748005,0.11893662966556114 3.4972993968248725,0.25927202961720924 l23.641902700562703,-2.533253556432476 3.564513927888288,0.22603284007508972 l0.8437844963790423,0.7432017722864324 0.20895441500289189,1.2656031601973894 l-2.818363643793567,9.613001856569856 m-27.143407666990935,3.1588175059802763 l28.87308612970998,-2.5429860094637973 m-29.628987728068605,-9.523792829577701 l0.5507900125056238,0.8796985422738366 0.2444683443018817,1.101712648526486 l-0.20850594371357334,5.926773601685598 -0.9190935188386443,8.105957971342201 l-1.5348341965184213,6.974667940193335 -1.6600037363880629,4.954766474095476 l-2.0547040499636413,4.410611684436957 -2.5975965271525285,3.853602477138147 l-3.5998028125529045,3.842716823634263 m20.195814869523947,-25.700068131342835 l3.2447741133915797,3.05113824436678 18.2597681863546,18.274842249422466 l5.054422508740875,4.370810330257389 3.35699091836943,2.2392773772231265 " fill="none" stroke="black" stroke-width="1" /></svg>