<?xml version="1.0" encoding="utf-8" ?>
<svg baseProfile="full" height="123.69248397474145" version="1.1" width="104.18520998862925" xmlns="http://www.w3.org/2000/svg" xmlns:ev="http://www.w3.org/2001/xml-events" xmlns:xlink="http://www.w3.org/1999/xlink"><defs /><rect fill="white" height="123.69248397474145" width="104.18520998862925" x="0" y="0" /><path d="M25,25 m0.0,0.0 m11.763610854231436,10.461978371490876 l0.5496779378143174,0.12050524121948114 4.039655640612564,0.16721985547882878 l28.270715526317602,-2.6388450984126153 4.071071826490225,0.2442368569981887 l1.070814682845284,0.7561802994328188 m-36.96945933271952,2.711062351278531 l0.4778936534680573,0.8026500284409195 0.15598075784602086,0.9669549793125262 l-0.45181441264763184,14.48581731811602 -0.8485614344267931,7.177220071397796 l-1.2119304478952595,5.505156787339502 -1.501855724017042,8.97456864480131 l-1.4791855709833919,7.369173535997639 -1.608970496155699,6.113423050679295 l-1.9159489537455154,5.480439368077856 -2.2376799815856288,4.994742313092472 m15.362351433391922,-45.29552494478516 l2.352699664722766,0.45355302339793746 2.570865726128271,-0.04126532648378627 l15.661652684141274,-2.823068034003995 2.195305759271562,0.07518377913550779 l0.6573967203839707,0.38377146969730686 0.7639552734068061,1.3262025312731553 l0.09220289059143118,0.8646417538372723 -1.4980421346640385,4.496224280989267 l-2.8443678515421844,7.445636473406616 -2.501316457763363,5.195689910679559 m-1.1539333304122674,-15.489759021420442 l2.8559284344408944,2.5860722474665634 2.8071520834522357,3.0958703469885642 l2.081182970663477,3.4092411723768143 1.275524311111434,4.208650266277991 m-20.498998018766276,-14.728187664773404 l0.7201057344329933,1.094428966169274 0.17973528584116163,1.294796548302898 l0.19685775374691802,27.707850068705888 0.7152949937297779,4.205728783445888 l0.8561953180304651,1.8291482055776953 1.0300321150289162,1.15144984306912 l3.0398361146443373,1.4973913991724304 5.3189736854877046,0.7469301647037137 l9.385264013890104,-0.05902423069671563 5.836169907342167,-0.8745890616801378 l2.2084110855570906,-1.0021774949904212 1.456043844226307,-1.6037488191346312 l0.74034948683627,-2.80628665881942 0.14836596582811384,-4.239000580634884 " fill="none" stroke="black" stroke-width="1" /></svg>