<?xml version="1.0" encoding="utf-8" ?>
<svg baseProfile="full" height="132.16023497459102" version="1.1" width="101.0764965482768" xmlns="http://www.w3.org/2000/svg" xmlns:ev="http://www.w3.org/2001/xml-events" xmlns:xlink="http://www.w3.org/1999/xlink"><defs /><rect fill="white" height="132.16023497459102" width="101.0764965482768" x="0" y="0" /><path d="M25,25 m0.0,0.0 m26.045438265369743,24.200758037837655 l0.3711254691911851,0.34782636050500837 1.428186183388919,0.8655929019689619 l1.3698173694203908,0.11978316422136895 15.14873401632189,-2.267585196805606 l4.3780965455554295,-0.07841959529034476 1.2009385707376972,0.33591402353031413 l0.8003759910408078,0.40436122800470387 0.33378413725071615,1.0849936998060858 l-0.38646315546693233,0.7644782249517277 -0.8635737807937816,1.7770116533642577 l-5.357712760594315,2.85119027902382 m-19.491201889640326,0.5721150479896666 l0.4907657881946088,1.8764885330472076 0.3471313227104673,1.8303546711441947 l-0.020950499911365657,13.852271672531481 -0.02493336439882081,7.542111549025461 l0.4237675086074766,7.764329977803232 0.3875833839005699,6.2599229452301515 l0.6560293823004187,6.9490407567487145 0.7524018404908817,2.127995474652949 l1.1881795405341378,1.7075748794627248 7.481774682584279,1.2721246858372806 l4.6744798336739395,-0.6489568797190951 2.550645109105339,-1.012436809824296 l1.2183163784002864,-1.0230765229363603 0.844453767720564,-2.1531304855849656 l0.29522312254409583,-3.1785391712225266 -0.024490707918623327,-3.4519119183530194 " fill="none" stroke="black" stroke-width="1" /></svg>