<?xml version="1.0" encoding="utf-8" ?>
<svg baseProfile="full" height="109.49251243844628" version="1.1" width="107.27495622821152" xmlns="http://www.w3.org/2000/svg" xmlns:ev="http://www.w3.org/2001/xml-events" xmlns:xlink="http://www.w3.org/1999/xlink"><defs /><rect fill="white" height="109.49251243844628" width="107.27495622821152" x="0" y="0" /><path d="M25,25 m0.0,0.0 m6.544395089149475,17.816022634506226 l0.5375264585018158,0.15100877732038498 3.1296589970588684,0.19132699817419052 l34.079041481018066,-3.018939197063446 7.629055976867676,-0.27109740301966667 l3.3455565571784973,0.335218608379364 m-25.888583660125732,-15.203540325164795 l0.18862241879105568,3.533827066421509 -0.2776630222797394,6.50352418422699 l-1.3600169122219086,9.810540080070496 -2.166477292776108,8.56768012046814 l-3.363633155822754,8.649536967277527 -2.199219912290573,4.193797707557678 l-2.5805363059043884,4.019169807434082 -4.64810311794281,5.563535094261169 l-5.6603991985321045,4.810452163219452 -6.7681944370269775,3.8404491543769836 m30.603537559509277,-35.14386177062988 l0.6626991927623749,1.8161982297897339 0.3012075275182724,2.255837470293045 l-0.24420883506536484,22.709128856658936 0.6271426379680634,3.1562623381614685 l1.538737714290619,2.740498185157776 2.1804609894752502,1.4370986819267273 l3.359881341457367,0.5842956900596619 7.718415856361389,-0.15672704204916954 l5.028737187385559,-0.8374123275279999 2.928427755832672,-1.11478753387928 l1.4101542532444,-1.4606326818466187 0.5238836258649826,-1.643957793712616 l0.09484945796430111,-3.2145854830741882 m-15.465482473373413,-49.41969394683838 l1.5198081731796265,1.134740188717842 2.1436254680156708,2.183530777692795 l1.7466197907924652,2.354406863451004 0.7014959305524826,1.4877477288246155 " fill="none" stroke="black" stroke-width="1" /></svg>