<?xml version="1.0" encoding="utf-8" ?>
<svg baseProfile="full" height="98.3446048949482" version="1.1" width="88.54654486236902" xmlns="http://www.w3.org/2000/svg" xmlns:ev="http://www.w3.org/2001/xml-events" xmlns:xlink="http://www.w3.org/1999/xlink"><defs /><rect fill="white" height="98.3446048949482" width="88.54654486236902" x="0" y="0" /><path d="M25,25 m0.0,0.0 m27.852862415833894,14.094316173416495 l0.037827023554877534,0.3750683713829098 -0.5394440079441881,1.320795559472782 l-1.5518742889745034,1.8421675427866802 -2.1897573188613504,1.6333665670389301 m-5.444204701733404,0.9085177691700755 l0.7361288839526566,0.5918288048853774 1.1498437703715945,1.1022490063413817 l1.4625245489656573,1.1755612220264784 1.003368409897413,1.1020024103854364 m10.112591340899485,-6.24265789607335 l-0.15112145264735938,0.5716063654372135 -0.998854718636893,1.6849955177959854 l-2.7233768400303915,2.745342600551966 m-15.138711347278258,2.634344702298091 l3.4005748093343557,0.10594390797391853 16.532247428481902,-2.0047308842595837 l3.074208001513424,-0.2751411697744867 1.9217129056701012,0.12856684271722751 m-13.019427568885337,-6.631547792741841 l0.543974292156795,0.6223041328928816 0.18322254509082306,0.6670659307225202 l-0.05511185553950233,14.52971205126279 m-1.93056746415086,-8.300134285217803 l-0.17109665638334007,0.8550501058845589 -0.6047108164965508,0.8525484152340188 l-7.578508900557524,2.2906618480694454 -6.077626818044585,1.0269180673581941 m19.063568481439038,2.713042758909172 l3.749885883528832,-0.025783977992912026 2.165170012300542,0.159381344826858 l1.7791051247940162,0.39607062794940917 m-22.78029214565881,3.6691832842028207 l0.40511129704407944,0.4524914465557923 0.1974480392358579,0.579087841141764 l1.0668682485753116,10.99440968231702 m-0.7630039516022408,-11.559694352978042 l16.456911142027675,-1.4070669377517124 1.845017888873595,0.040408644069992644 l0.7416914957628692,0.28523708981955304 0.5099810782574254,0.5619498317426938 l0.1450160476623094,0.9023475651779103 -1.3028930692651697,10.086729103155312 m-10.648097406079026,-9.79745575833474 l0.16168060104676765,1.005857550472753 -0.08968799704865224,7.101995481486862 m-8.730116514738354,-4.174700148112135 l10.003473441947925,-0.779763523796805 9.219456808163784,-0.48402033536906464 m-18.52557684103938,6.250731583806341 l17.360822155293175,-0.7838460917453064 " fill="none" stroke="black" stroke-width="1" /></svg>