<?xml version="1.0" encoding="utf-8" ?>
<svg baseProfile="full" height="113.66954205218221" version="1.1" width="98.8193173141278" xmlns="http://www.w3.org/2000/svg" xmlns:ev="http://www.w3.org/2001/xml-events" xmlns:xlink="http://www.w3.org/1999/xlink"><defs /><rect fill="white" height="113.66954205218221" width="98.8193173141278" x="0" y="0" /><path d="M25,25 m0.0,0.0 m28.219224905573153,6.10570568392155 l0.3969094851003227,0.36248744773722047 0.6245911186422022,1.035676362470018 l0.09360556041191351,1.1407593452540092 -0.055374416802501596,6.829804952657749 m-20.55343942358934,1.5222296093260772 l4.5769615311474805,5.2228236188301445 2.2804967777411433,4.0056904168244944 m25.539678503344565,-11.660623762553348 l-0.09421373075087615,1.0255002242881361 -1.6337197370686847,1.040228056884333 l-6.466595540205394,5.569499060551826 m-32.03558522719379,5.518259200020313 l0.6075369407105806,0.28139133807163885 1.7500768838820875,0.18445165761794682 l34.95363179004249,-2.616223714114442 4.025673501305394,-0.17915313631146754 l2.7220146960163407,0.37000269312564926 m-35.77199352727556,3.1037623606614133 l0.6988747324866984,1.6606629255406602 0.22935554540559533,3.79593078833215 l-0.07779611512977361,6.51993071716457 -0.8360053869847256,5.973369096293693 l-1.138697130367858,4.083062995290342 -1.3988931054494804,3.0073750077790127 l-2.357442981703181,3.253056128269922 -2.277665615895843,2.210408755719908 m14.79390028761504,-26.861915839812152 l1.65399817612402,0.20214205047405648 2.092070349920264,-0.05578605501706517 l25.195413569993523,-2.177839872606168 1.77312860475519,0.18235338844117155 l1.0748960743463427,0.7129806683427833 0.21470021798047725,1.127753356709656 l-2.129130872880504,6.953276659252225 m-24.242417419605353,-11.428678967587409 l0.7391279164872713,0.9070056051560321 0.2170086904484586,1.0313235074324492 l0.9789341528487405,11.143857715086833 m12.342444580662221,-15.313630826426904 l0.5089771271510513,0.8476301084967699 0.07646421277434648,1.052607588005421 l-1.5328374623690977,12.279892598418837 m-22.185298210355285,2.5355331361878557 l3.424901289010175,0.24946317005559807 24.070417679150395,-2.206122969832424 l4.2853867422555725,-0.14673780937476322 2.7281116253984954,0.20982947312057604 m-30.37342307627266,12.357493371498373 l7.86213573418846,-1.1493658562888016 2.1284862457510796,-0.11220022050435537 m-12.315484539734626,-4.2233489792800105 l0.6068663908047508,0.9156195928929789 0.21405827434404764,1.1880239903777488 l-0.05748325931150684,11.859492488578555 0.24038976423191452,1.7901339662883187 l0.44921148218614304,0.37859234268250774 1.3576421073603067,0.054096841759969136 l8.010420388442864,-0.42253052155370635 5.795907326187466,0.0721241416349083 l1.5074312538197199,-0.15012376239928893 1.1351534504936627,-0.41037067786315556 " fill="none" stroke="black" stroke-width="1" /></svg>