<?xml version="1.0" encoding="utf-8" ?>
<svg baseProfile="full" height="90.9757432146532" version="1.1" width="110.77962642338719" xmlns="http://www.w3.org/2000/svg" xmlns:ev="http://www.w3.org/2001/xml-events" xmlns:xlink="http://www.w3.org/1999/xlink"><defs /><rect fill="white" height="90.9757432146532" width="110.77962642338719" x="0" y="0" /><path d="M25,25 m0.0,0.0 m42.589515388882596,7.425335290869528 l-0.05580232310739329,0.42438409580811337 -0.5993052798545918,0.6769505676375022 l-1.3259767053607951,0.7561693290807686 -5.913988909818002,1.923274251280326 l-7.650822550909911,1.8469991288028267 -8.496532107732481,1.633623395336048 m-5.189594694914817,5.753132863673618 l3.600568553015283,0.17949968667446164 29.80647052407268,-2.5914995698847676 l4.135579806621947,-0.21211247595287316 2.649808495615457,0.22102010314236345 m-46.35537858072749,12.494787864605662 l1.9764991327758652,0.31606056957855583 2.0355365401507868,-0.011932153720022048 l41.74897036818891,-3.1640288884326506 4.990139914847755,-0.1382795115129507 l2.8339388516413866,0.2834830045789523 m-41.34836655387803,-3.27018304419496 l1.0656025020908042,0.9204520574631645 0.9782742078058699,0.7836332611959255 l2.2409726864310384,11.160284839982229 m27.48757029603911,-15.182817016543973 l0.2351774679659801,1.9659187287791784 -2.9296833848230617,11.046230030110788 m-32.2883641818641,5.5607069782116785 l4.4433680678025675,0.17464982808370896 16.58231722928275,-2.071338598740148 l11.369332213313138,-0.9775619796928117 3.2047319852573657,-0.09631203271248792 l2.7705912496977416,0.2864135484147245 m-43.57704627043903,-24.32642483397285 l0.9587251734796055,0.7340249469368623 0.48179406506351036,0.8973532541638122 l-0.20983037002227464,14.002790487946868 0.03742504147019151,2.147632839034168 l0.5035860609846826,2.4146483123349096 0.9772901883043509,1.1711218508101144 l1.3751917363538453,1.205480859379357 3.2722245720546863,1.3574303460608508 l5.5408092634129655,0.6972753581438832 13.531807294782784,0.2056509829110948 l9.50848981879051,-0.38920133369137333 3.657480995964746,-0.5214994019035071 l2.58379021119535,-0.9047773184079131 1.6840895279868435,-1.3459360784350785 l0.6377695577715851,-2.1064215277189096 0.04445040912770579,-3.0970146961975162 " fill="none" stroke="black" stroke-width="1" /></svg>