<?xml version="1.0" encoding="utf-8" ?>
<svg baseProfile="full" height="99.76907547243987" version="1.1" width="97.5854833678639" xmlns="http://www.w3.org/2000/svg" xmlns:ev="http://www.w3.org/2001/xml-events" xmlns:xlink="http://www.w3.org/1999/xlink"><defs /><rect fill="white" height="99.76907547243987" width="97.5854833678639" x="0" y="0" /><path d="M25,25 m0.0,0.0 m23.603422617112514,3.436476269113372 l0.07064783645593144,0.3942886290405423 -0.42346742427922196,1.062057783867041 l-1.4490430805153482,2.0545106460916727 -3.4006012891536583,3.5869114676201668 m-5.418637793267088,1.0952970878338746 l0.5864774984402041,0.7443376987693359 0.20095211813268704,0.5112547664177978 l2.024276654223749,20.46407500451779 m-1.5973062893828083,-20.53139508664847 l22.100819466451384,-2.2759938367700894 1.5790817283265028,0.058037826389663184 l0.5414147244451387,0.5794467111854993 0.11708218876842838,1.3193265725657044 l-2.3856252969560674,18.27812411011869 m-20.833905383798193,-9.61967026024093 l13.741476778452855,-1.2165012665416464 8.095957852689175,-0.40992186846302753 m-20.66837712538682,10.076368763746068 l19.03549138565798,-1.2178499825846785 m-30.34229913004433,11.019234008257254 l-0.5514030541632294,2.054890458988726 -1.1499115737611907,2.639466861110802 l-1.3636064201698288,2.649235693398625 -1.4401431684926318,2.24067479538972 m10.104896108162144,-11.848670559612193 l3.2103101595573382,4.437091178948958 3.039588565937709,3.249131287277999 l3.8158384824117118,2.3908962691195805 3.7750881163816072,1.3863288296371639 l4.298731108343845,0.7600491559137068 3.898013533458845,0.3132917905906162 l4.5130206853588035,0.08827466739052929 4.174004348014337,-0.218787257225964 l2.3189500144690904,-0.5396199344893239 0.5494470873314561,-0.40736016588473756 l0.16934680213996225,-0.5060937171339256 -0.2101719942798665,-1.3504473497401528 l-1.410894118510916,-1.654273771681857 m-18.935797383386774,-11.386303750466352 l1.885493716296666,2.3645860123073104 0.9831289350188305,0.7779933498718794 l0.9076796339751059,0.1235828817305597 0.5305128140551248,-0.818328685601796 m12.20056324660804,-4.061333846779882 l2.1924709683832058,1.3381231271640897 2.1197130024923596,1.7064734401859774 l1.6624907082658713,1.8569023125459398 1.120285007593288,1.647501392942179 " fill="none" stroke="black" stroke-width="1" /></svg>