<?xml version="1.0" encoding="utf-8" ?>
<svg baseProfile="full" height="95.16755168319324" version="1.1" width="109.56912118592658" xmlns="http://www.w3.org/2000/svg" xmlns:ev="http://www.w3.org/2001/xml-events" xmlns:xlink="http://www.w3.org/1999/xlink"><defs /><rect fill="white" height="95.16755168319324" width="109.56912118592658" x="0" y="0" /><path d="M25,25 m0.0,0.0 m12.712762036910684,4.848754327286405 l0.3435992875647085,0.4796579473195315 0.3857536919589515,1.6695294097766318 l0.02345156617521151,29.04341498128228 m-7.99366332021748,-16.030778331560615 l0.42503977066263865,1.5522936335302389 -0.6920602126000249,15.73169732328914 l0.25453187359781343,1.2034959405336612 1.5270130305713074,0.1226426007922099 l13.705839770000251,-3.1675969206072194 m0.4734374574537016,-16.67855414500823 l0.5032587261709133,0.8004954578455572 0.13281878657627733,1.2115572640715864 l-0.9562766258820898,17.87914786615358 m15.073458172445777,-28.01011199120373 l-0.233642688155578,2.3531181485516064 -1.2889311719835963,3.373739938556282 l-2.0916897471662743,3.7592190671532424 -2.5935399141954254,3.3229616509301594 m20.44972043860494,-17.962739898765754 l2.752930306452578,2.2518126466147055 2.6234891139080934,2.919265834769136 l2.608440897438531,3.575105823987781 1.4233799396346627,2.7113099904794282 m-14.275203348234443,1.8216294492455154 l-0.1276000216130321,1.4150338999086127 -1.281236385496174,2.344400625389935 l-4.469322356142651,6.233762047321847 -5.195385030453803,5.372819863773809 l-5.6611230094545695,1.8349410244271973 -4.865454101955282,1.289721986969194 m0.10371455349143761,-16.52311400870509 l0.634517217152354,0.9193423321952883 0.3461284260080672,1.1841078690862212 l0.053236235859749736,17.382197739182324 0.2988388449522438,2.0780950260735542 l0.8184546349192392,1.4693868545304711 1.6182855018165334,0.8508947847390889 l2.753027362366476,0.4626592425062075 5.936881496085113,0.07223438077144938 l3.902643405981288,-0.43713093678282705 1.6882342586430203,-0.5998382962106001 l1.119190520152555,-0.9477954610710557 0.616852590502072,-1.375656100933666 l0.24075440626568156,-2.3431730117606375 " fill="none" stroke="black" stroke-width="1" /></svg>