<?xml version="1.0" encoding="utf-8" ?>
<svg baseProfile="full" height="107.91004264610422" version="1.1" width="122.47966235189895" xmlns="http://www.w3.org/2000/svg" xmlns:ev="http://www.w3.org/2001/xml-events" xmlns:xlink="http://www.w3.org/1999/xlink"><defs /><rect fill="white" height="107.91004264610422" width="122.47966235189895" x="0" y="0" /><path d="M25,29.808396665932385 m0.0,0.0 m30.135873351343324,1.9432043709443507 l0.38555189143298424,0.409799571474246 0.7432292417043768,1.9163917642697696 l0.04749833051063145,38.58729001891507 m-0.06448913253423026,-25.03030007430519 l15.974010502755934,-1.9109101781194289 3.9222282603459373,-0.007855148832174494 m-34.05593504613124,26.52289864919755 l0.7632956715557909,0.30540584906801765 1.0552521427402062,0.11080827553417387 l3.1718233417341777,-9.033998199662147 m9.218783506417951,-7.941081079429987 l6.000034484544958,-2.214470731546566 2.2697281781615164,-0.2725575039818399 l1.0702268347687165,0.8788593450908703 0.03143242766087635,1.461112902643314 l-1.760751934231383,13.295304855357834 m-9.603825383118117,2.266058733847986 l9.82638338084739,-1.2548244053916158 2.15086581116152,0.0006185928067713199 m7.068864912423015,-42.62929070261228 l0.9163597236099621,0.2637505983069432 1.5800821559774054,-0.05556095026159854 l10.857667185536698,-2.419051219246459 0.7604677146652523,0.026477812332994448 l0.5584174159357405,0.9278113227878201 -0.01393999081165961,0.9236913974849298 l-0.2971268541404359,12.190289575430594 m-13.553797656608614,1.1989110862602599 l2.153232339008584,0.24731203561789228 11.422001275377289,-1.4579387701603401 m-14.218006576853004,11.184176923414238 l0.9856600923765542,0.2638252925594163 1.835653948151024,-0.20829199203232474 l10.744191640393343,-2.597054423089297 0.769889849540461,0.42213900722788195 l0.3406976521262095,0.6662589454099371 0.02767974692009024,0.8398169468653005 l-0.21538086983569407,3.6876874137066316 -1.178814871245033,6.833971144361938 l-1.522078322222273,5.981042660671295 -1.941756546382875,5.203096037023463 l-2.441326580508075,4.609455498723866 -2.978003760616669,3.1607091303506016 l-3.551491312555555,2.014652038591287 -2.935762073170903,1.169874346263214 m4.146034321060914,-24.153374182673712 l2.7121035324507123,2.6045905843334807 9.038347901312967,11.888235511167242 l4.514029040017902,5.482595851281525 3.277721364148755,3.318801782437002 l2.336830094145516,1.4812796697570858 " fill="none" stroke="black" stroke-width="1" /></svg>