<?xml version="1.0" encoding="utf-8" ?>
<svg baseProfile="full" height="114.15069204719286" version="1.1" width="113.86516146919155" xmlns="http://www.w3.org/2000/svg" xmlns:ev="http://www.w3.org/2001/xml-events" xmlns:xlink="http://www.w3.org/1999/xlink"><defs /><rect fill="white" height="114.15069204719286" width="113.86516146919155" x="0" y="0" /><path d="M25,25 m0.0,0.0 m12.540405929436202,4.5650570916224265 l0.331991187917816,0.4833529473346032 0.35861915103932723,1.7793827742126604 l-0.001391373538455426,29.70453123126631 m-7.9340663860552425,-16.36617810356422 l0.4038162171041599,1.5564380207900552 -0.06709818836438047,15.59763672564634 l0.26077216200218634,1.055701250502849 1.0671818726187117,0.06921810073891405 l13.031743264794885,-3.306402400714623 m0.35609186646260577,-17.400579895138577 l0.4933858998427844,0.8812313855025172 0.11826530095061567,1.2831806218776132 l-0.9223089973320675,18.62381100904041 m4.17819010035346,-28.085207933282874 l2.6864802577248805,0.24259645520822437 19.32648093180471,-3.2365203764863173 l2.4405816038997776,-0.19856533093060172 2.486714804517927,0.29483045344478065 m-21.156804627166743,9.904456068380421 l-0.1914672006057617,1.9409941082159166 -0.9406955975048045,2.724549491897115 l-1.5440447540898585,3.143873884059457 -1.9742244062716365,3.329964672413325 m18.60903734679337,-12.197683546944354 l2.5439797854066217,3.5684245402478902 1.7563758124905315,3.1144977222499017 m10.110126885245664,5.5246720641524325 l-0.6532619697746146,1.3119890245418542 -2.832087163088024,2.7310110026366887 l-3.4645140246577046,2.8049882559685133 -3.7358138056012673,2.305797269580684 m-2.1680320251780536,-12.131237696221506 l0.5067899266462381,0.9667478686379196 0.17695344760335774,1.2682312569635756 l-0.23759944136128835,17.885388042889574 -0.8156768075086671,5.053295427802703 l-1.5530006376319883,4.165640184518286 -1.8231645386061452,3.4729010882541846 l-2.6797350249521195,3.2565131367454296 -3.2039476242856058,2.4621641531323655 m10.81299765153916,-23.09925404323139 l4.9166093881787925,7.309910173615852 5.588782535594404,7.541696437030017 l4.034524617338684,4.623879931118939 2.6271981154590853,2.211065649555505 " fill="none" stroke="black" stroke-width="1" /></svg>