<?xml version="1.0" encoding="utf-8" ?>
<svg baseProfile="full" height="109.49251579120755" version="1.1" width="106.15235954988748" xmlns="http://www.w3.org/2000/svg" xmlns:ev="http://www.w3.org/2001/xml-events" xmlns:xlink="http://www.w3.org/1999/xlink"><defs /><rect fill="white" height="109.49251579120755" width="106.15235954988748" x="0" y="0" /><path d="M25,25.000002396021443 m0.0,0.0 m16.382718086242676,-2.396021443473728e-06 l0.04026834387332201,0.6487416476011276 -0.22821491584181786,2.5409048795700073 l-0.9591693431138992,3.232758939266205 -3.6416441202163696,8.02920401096344 l-4.345132112503052,6.901434063911438 -2.5675934553146362,3.2532888650894165 l-2.7906841039657593,2.9480791091918945 m12.394524812698364,-14.233993291854858 l2.855352759361267,0.14718368649482727 6.8309485912323,-0.4689348489046097 l26.828341484069824,-2.8853777050971985 3.4339508414268494,0.2921326272189617 m-23.694124221801758,4.11964625120163 l0.6680311262607574,1.9961807131767273 0.21492134779691696,1.871633231639862 l-0.24184798821806908,39.506521224975586 -0.48552975058555603,1.1749888211488724 l-0.7158056646585464,0.4181235656142235 -0.8690948039293289,-0.16577811911702156 l-1.8935318291187286,-1.391236037015915 -2.0806951820850372,-2.1409158408641815 m-10.719292163848877,-27.04458713531494 l-0.10954037308692932,2.3503199219703674 -0.5509684607386589,2.1262027323246 l-2.780504822731018,7.096467018127441 -3.458757996559143,5.766820311546326 l-3.576633334159851,4.081666469573975 m38.34418773651123,-22.511608600616455 l3.7754300236701965,3.6584103107452393 4.538112282752991,5.960142612457275 l3.753531277179718,6.39434814453125 1.8008054792881012,4.748542606830597 " fill="none" stroke="black" stroke-width="1" /></svg>