<?xml version="1.0" encoding="utf-8" ?>
<svg baseProfile="full" height="94.9210891250377" version="1.1" width="97.55704213363582" xmlns="http://www.w3.org/2000/svg" xmlns:ev="http://www.w3.org/2001/xml-events" xmlns:xlink="http://www.w3.org/1999/xlink"><defs /><rect fill="white" height="94.9210891250377" width="97.55704213363582" x="0" y="0" /><path d="M25,25 m0.0,0.0 m30.369002783373993,7.052015342867866 l0.31113333198173626,0.26624855488190785 0.731538084739979,1.3791531265429715 l-0.02743167762239938,7.793836448686795 m-14.371282374249969,-5.487719176402256 l0.5224142543595398,1.3133160728075834 -0.9590756829163244,4.848443164842768 l0.12201972086433782,0.7311424759937788 15.316349271881796,-1.3056884488162972 l14.609388736206439,-1.326201540286275 m0.32296475557614834,-6.953203519689991 l0.4388031140223758,0.8741673453438243 0.1712178154181575,1.0051732568123684 l-0.991482370135424,7.0760173483401045 m-31.15887367109807,2.1996638449268233 l-0.1739745306148039,1.2689191591866233 -0.43721417974972104,1.0860443509694662 l-2.55648265332819,3.5659621451945775 -3.4559009829342515,3.478774708398665 l-4.246583745713653,3.19965132419255 m9.639897491421664,-5.77749309052888 l0.10234780248136242,18.632866230772724 0.07934960713319356,-0.1805740136742225 l0.30175162786030735,-0.24181056064035125 0.5958334588257022,-1.3843044552888302 l6.421698520452335,-6.699370490765479 m-7.521041928480454,-15.076206338748696 l2.8775543564776416,0.25447036287758534 20.755743396106556,-2.020099652363129 l3.983014687358477,-0.18859758228615425 1.989825752993301,0.1888097031824397 m-9.961566162404116,-7.587504075117609 l0.7427135254802815,0.9604646276053976 0.3006106504367356,1.350301569732564 l-0.18056053052798007,13.062266893012398 -0.7407064784753848,11.710738398929951 l-0.5350879901772395,0.3884014217556599 -0.6259033342528065,-0.0919578659626169 l-2.473065533276889,-1.8116035025160118 m-9.880591234854338,-12.543264739712825 l1.4817552125631812,1.2417841382677464 1.6219752963408467,1.7940952652402722 l1.2882831830143928,1.833146455887028 0.5428314102285171,1.1472652404860548 " fill="none" stroke="black" stroke-width="1" /></svg>