<?xml version="1.0" encoding="utf-8" ?>
<svg baseProfile="full" height="114.3248878498389" version="1.1" width="100.36571348504643" xmlns="http://www.w3.org/2000/svg" xmlns:ev="http://www.w3.org/2001/xml-events" xmlns:xlink="http://www.w3.org/1999/xlink"><defs /><rect fill="white" height="114.3248878498389" width="100.36571348504643" x="0" y="0" /><path d="M25,25 m0.0,0.0 m26.03754920746802,3.424507918717828 l0.3174622464355605,0.4707858228114402 0.4125549122618495,1.593811429660134 l-0.03244929571440354,13.726254896513433 m0.7270496815187567,-7.248087362661198 l9.504877874891042,-1.9057146858704144 2.046195602419449,-0.05019998668332377 m-22.703270255615337,11.253509680650096 l0.6592829361041439,1.0613404659572543 0.17046268423575428,1.0371808935561742 l1.7337128272686142,16.379197386232498 m-1.278428869610141,-17.547160957663362 l18.501747387377485,-2.7838275803418067 3.562003755347326,-0.17799831528326276 l1.01123759759345,0.37321528932271086 0.622464789294893,1.0064602544281036 l0.023352473924825964,1.662030606086056 -2.432002142669618,13.91256203913214 m-20.06338002003173,-6.775788995429877 l10.938321807998394,-1.507367550649006 10.092085263553463,-0.9424802570814901 m-19.776499125808257,10.334294518925896 l9.048759591103686,-1.2018341924354536 9.076206684271991,-0.8645808870744979 m-30.246200716755755,13.262538893142194 l1.5755331266741928,0.39847706797378374 2.01684574954394,0.0428334596132106 l15.26724054797879,-1.7748379063708735 15.40037173333511,-1.3396141248447158 l4.883978711302115,-0.16820358746727335 3.2686467193488054,0.39644950854996985 m-21.463896339269308,-7.81528035158178 l0.4498469444352427,1.0357296312481157 0.11043475165009053,1.2575964059821256 l-0.030600981231845546,23.79908842277408 " fill="none" stroke="black" stroke-width="1" /></svg>