<?xml version="1.0" encoding="utf-8" ?>
<svg baseProfile="full" height="108.86366051898031" version="1.1" width="99.8844539221638" xmlns="http://www.w3.org/2000/svg" xmlns:ev="http://www.w3.org/2001/xml-events" xmlns:xlink="http://www.w3.org/1999/xlink"><defs /><rect fill="white" height="108.86366051898031" width="99.8844539221638" x="0" y="0" /><path d="M25,25 m0.0,0.0 m8.911745965143606,17.41048427165407 l0.5266795653685333,0.10001511140686141 2.387151965950266,0.19173467177462775 l2.796065655253202,-0.09656397398706067 30.00930919019102,-2.4216589655862966 l4.107556853541889,0.14318438861158533 1.1459447267153027,0.5824114444861602 m-37.59945151341285,2.6796048067592984 l-0.04765177231705449,1.628533465332818 -0.6806102680425524,7.527436808866102 l-0.7447136302085969,5.357624178095787 -0.9416853190722558,4.356212340772666 l-1.422242382782484,4.247104816819346 -1.3879403658814207,2.8661746141170767 l-1.7544981032919822,2.6140738978080527 -2.1413153173085395,2.2571699452769987 m14.286452836436974,-26.11063984617744 l1.4151082239999406,2.186661128482627 1.2761111569190582,2.6351624508484814 l1.2542063257679472,2.7259106321866957 0.6974385484522108,2.0650463483708066 m11.522352687349038,-11.986399951383108 l0.003019350953712787,2.03600318328892 -1.0189850131378682,2.4593937259877756 l-1.6923851645471473,2.840663592295519 -1.9429737006889904,2.4464311955780773 m-16.182762843332647,3.422630976678873 l1.636668336896769,0.193611799759 2.494601534655306,-0.10616896565634366 l17.06942747088162,-2.088735865468519 3.1475340531933647,-0.12581857816017344 l1.9464699546694877,0.21985401184597883 m-29.53010355961303,11.716152927360094 l1.8597422151526082,0.2899969625706902 1.889014753003262,-0.07102580545565693 l24.071765459923874,-2.387648458047228 3.3946701763091958,-0.15967135790258102 l2.003761677200131,0.22203037990205515 m-17.831584870109314,-14.629380201129855 l0.5907881838025706,0.8402791751071472 0.2549717876516827,1.0429534058745302 l-0.08225131591241944,29.74282583001584 " fill="none" stroke="black" stroke-width="1" /></svg>