<?xml version="1.0" encoding="utf-8" ?>
<svg baseProfile="full" height="99.42452878496889" version="1.1" width="92.04650341183884" xmlns="http://www.w3.org/2000/svg" xmlns:ev="http://www.w3.org/2001/xml-events" xmlns:xlink="http://www.w3.org/1999/xlink"><defs /><rect fill="white" height="99.42452878496889" width="92.04650341183884" x="0" y="0" /><path d="M25,25 m0.0,0.0 m13.553766264419338,2.5235880846804526 l0.4438648057012907,0.16250844407504608 2.8283692174915895,0.2404017364335378 l22.284014143718707,-2.7552173357039664 1.5365073798333102,0.5218695095083818 l0.35410432036213674,1.2270446954913428 -1.8063188472559384,6.5111943515807535 l-1.2889024848303348,5.253400356788354 m-25.570388281058225,-4.211205076154175 l17.47308335458438,-1.5722215005828104 5.90647384284928,-0.6557530723475197 m-23.29553906759655,8.408158123965244 l24.377025084408412,-2.1443429072102327 2.1009874961893686,0.06795134330757448 m-28.130778680673806,-5.895193877273815 l0.4988668474832178,1.0275938522432024 -0.06490922830300834,1.1367269869897532 l-0.6204418206296479,9.913309127748352 -0.8438941976342503,6.016615385901891 l-0.9739468932112341,4.2709016574234 -1.3437352799735636,3.88381152527118 l-1.7470310585043864,3.3413392083986606 -2.1858131404681913,2.8474249884319884 l-2.0109805665864653,1.8858954285577958 m24.297675113390635,-24.351376281690186 l0.8310754957319624,1.5347842288049052 0.04117203417445881,4.773386511185447 m-13.328398428414548,1.5955674288772466 l3.326266160615655,0.20843958186931646 10.69585937145319,-1.345472255477251 l11.422699344652045,-0.8656812676808338 1.927378184471607,0.08748277215082738 l1.3583929254484146,0.37458571657942974 m-17.862343507402336,6.255645210316459 l4.261395584089747,1.5674342178884384 6.518053589313838,1.5498612187013823 l0.4567601002933303,0.3386152904131763 0.371639315091061,0.9261847939712332 l-0.31447862954014266,1.8799076073580203 -1.2642631218663936,3.2443776400724524 l-2.074970953699068,4.621200844014411 -1.8326241018903204,3.3167122699340528 l-0.9749491629720277,1.2464111281963786 -1.0792959345869675,0.46066109195960137 l-0.9280846381709935,-0.311611148776817 -1.218982849106419,-1.3607926579508969 m-0.959629132306133,-19.897664161144103 l-0.07606526014580235,1.1727917946024629 -1.1196927627727158,2.478425523389526 l-1.8478600673495054,3.25529483928364 -2.063816948755645,2.9521098513405417 l-4.332530798611299,4.753179804316875 -4.78213047147972,3.6532338536864293 " fill="none" stroke="black" stroke-width="1" /></svg>