<?xml version="1.0" encoding="utf-8" ?>
<svg baseProfile="full" height="109.4925117551852" version="1.1" width="107.24335723556578" xmlns="http://www.w3.org/2000/svg" xmlns:ev="http://www.w3.org/2001/xml-events" xmlns:xlink="http://www.w3.org/1999/xlink"><defs /><rect fill="white" height="109.4925117551852" width="107.24335723556578" x="0" y="0" /><path d="M25,25 m0.0,0.0 m26.9285249710083,1.9683875862597233e-07 l0.37453677505254745,0.4208783805370331 0.6169654801487923,1.1073561757802963 l0.2551812678575516,1.5382637083530426 -0.17152760177850723,30.66117763519287 l-0.4468158259987831,1.0949062556028366 -0.660194605588913,0.4609949514269829 l-0.8037150651216507,-0.031168167479336262 -1.7602881789207458,-0.9704064577817917 l-1.9798919558525085,-1.5967094898223877 m-7.331652641296387,-22.03369140625 l-0.024770265445113182,1.2048809975385666 -0.6179165095090866,1.5994761884212494 l-3.272268772125244,4.7742196917533875 -4.67358261346817,5.128698348999023 l-5.031173825263977,4.206362664699554 m42.20818519592285,-16.234768629074097 l3.8183385133743286,1.7869174480438232 4.387233257293701,2.845165431499481 l3.202756345272064,2.792944610118866 2.2254332900047302,2.8455111384391785 m-13.811173439025879,-2.478928565979004 l-0.016826920909807086,1.7730841040611267 -0.5426114797592163,2.0442169904708862 l-3.2549771666526794,6.029247045516968 -4.536633193492889,6.625462174415588 l-5.720072388648987,6.79353654384613 -5.363172888755798,5.267723202705383 l-6.009188890457153,4.881773889064789 -6.605404019355774,4.276566803455353 l-5.3147560358047485,2.6788198947906494 " fill="none" stroke="black" stroke-width="1" /></svg>