<?xml version="1.0" encoding="utf-8" ?>
<svg baseProfile="full" height="101.53464725047517" version="1.1" width="104.04295704104172" xmlns="http://www.w3.org/2000/svg" xmlns:ev="http://www.w3.org/2001/xml-events" xmlns:xlink="http://www.w3.org/1999/xlink"><defs /><rect fill="white" height="101.53464725047517" width="104.04295704104172" x="0" y="0" /><path d="M25,25 m0.0,0.0 m13.372727953108537,5.279242233828795 l0.5074276691111188,0.13762949591803908 3.5625004314342568,0.28737111084112243 l24.914964086295978,-2.5862651423670378 3.7116957051378545,-0.04385661186182458 l3.1378075780603156,0.3071868925334056 m-35.362587789819074,2.731748422857593 l0.5097291957789386,0.9067088897547971 0.14866479341002511,1.1464573829701985 l-0.5663494711976965,16.462973757807568 -0.9217206599565777,7.5628135400780225 l-1.2947630664197256,5.849828700736489 -1.8834887853819793,5.323902637507993 l-2.3526221329047456,4.56229217799285 -2.6380171620114488,3.6066137618771625 m26.690827884838416,-36.248263350070644 l-0.1904599705256907,3.7126965864553685 -1.098303247938593,2.997549985117181 l-2.0487406594285305,8.865835203963682 -4.159529907368158,8.640185939000565 l-4.950995707647711,6.560338290518606 -3.4613655041508893,2.908020178995112 m14.901135901191065,-24.0134788412512 l7.445604368358368,9.261293554826748 10.924735704804501,12.156964183431525 l2.3134028537180753,2.205544777124115 2.8306769805451,1.2325460847776795 " fill="none" stroke="black" stroke-width="1" /></svg>