<?xml version="1.0" encoding="utf-8" ?>
<svg baseProfile="full" height="100.0328008931556" version="1.1" width="101.56418114765277" xmlns="http://www.w3.org/2000/svg" xmlns:ev="http://www.w3.org/2001/xml-events" xmlns:xlink="http://www.w3.org/1999/xlink"><defs /><rect fill="white" height="100.0328008931556" width="101.56418114765277" x="0" y="0" /><path d="M25,25 m0.0,0.0 m16.759725475326555,4.436666121414723 l0.45075148195541787,0.21910994141809448 3.170395806598212,0.23990937619371383 l24.875910889620332,-2.946985915770415 1.822525939800164,-0.07392265547917432 l1.1666077648886248,0.30123278759936273 m-30.423753474693214,3.5942374612653554 l0.11716581406817315,0.8051305798541094 -0.04694725080458561,1.1851720639243628 l-0.9780419332795779,12.63810777535524 -1.0607281036257146,7.625339270707685 l-1.1609055852142884,5.437149508190486 -1.298688567119825,5.133578001178255 l-1.8459049543877228,4.780468833644888 -1.9135630760583202,3.9984510313388646 m13.773470394373561,-32.17688690962805 l1.3225685632908468,0.28343233505951987 2.3778501802234615,-0.04532552745173621 l14.754058591853433,-2.4064757231729206 2.1512062146744952,-0.08464663515472141 l1.5894602038047307,0.2357618384217128 m-12.1966959998604,3.5658411779490216 l0.17388149429554883,0.7475258778960997 -0.2996011932951228,1.4552621215895873 l-2.174285126135499,4.050085041785933 -2.841078076758472,3.9762736897199873 l-0.24524209818527157,0.7551191902134263 1.2605707438931584,0.4242318005865564 l13.944767747136135,-3.7560802423963477 m-2.146781632494043,-3.720622276266146 l1.3159903011391663,1.210692740886004 1.8675966488236053,2.313062964439957 l1.4103012393311944,2.282837238058517 0.6997521183444579,1.7343154803754697 m-12.820739163231726,-0.3598313626937983 l0.7197849809586269,0.8943341608277652 0.13856539410385868,0.6056440020134872 l0.2081821461959444,19.65651631531656 m-10.760297013839601,-10.328286830123888 l2.133452218986284,0.19581363210972333 14.950956016168599,-1.771847180307643 l3.809748484126765,-0.10252034498273804 m-24.024644785053326,12.73681120450803 l2.36007122503855,0.2881189327406686 10.190156322779291,-1.3586440352852343 l8.557249156866991,-1.0439999374233593 7.254488582952472,-0.507278629732076 l2.474867040070817,0.20145805829272306 " fill="none" stroke="black" stroke-width="1" /></svg>