<?xml version="1.0" encoding="utf-8" ?>
<svg baseProfile="full" height="107.99205743299046" version="1.1" width="105.99784275140827" xmlns="http://www.w3.org/2000/svg" xmlns:ev="http://www.w3.org/2001/xml-events" xmlns:xlink="http://www.w3.org/1999/xlink"><defs /><rect fill="white" height="107.99205743299046" width="105.99784275140827" x="0" y="0" /><path d="M25,25 m0.0,0.0 m14.105474519759355,11.048687785753858 l0.4910034784130617,0.1348210943256687 3.48288633996541,0.2278958848886122 l25.817799603593684,-2.7065138005629095 3.926319200698383,0.28012670784641924 l0.9250978451177075,0.8854146496909135 0.22448466342751203,1.4495387369996227 l-2.880133076515895,10.302106581820409 m-29.126867227371722,3.470949761210148 l30.938581129945845,-2.929647973148377 m-32.049511516955555,-10.226227490347895 l0.5862295863742727,0.9573925274178586 0.2413146142879139,1.1721516940717818 l-0.2415146436349926,6.103151027698595 -0.9180150812345889,8.724902165871873 l-1.5010402714751154,7.509063347347958 -1.6340312636848067,5.475950851905061 l-2.0819147564333855,4.868295340064597 -2.6293898208006405,4.202030113401267 l-3.6105952801274763,4.392056174552645 m19.52031200563357,-28.279294931131435 l3.53592847886509,3.239224045532658 20.3345419338242,20.846162609486694 l5.034642102659562,4.470573989331735 3.5062401870768993,2.373246538962712 " fill="none" stroke="black" stroke-width="1" /></svg>