<?xml version="1.0" encoding="utf-8" ?>
<svg baseProfile="full" height="109.49251322075725" version="1.1" width="108.71086745988578" xmlns="http://www.w3.org/2000/svg" xmlns:ev="http://www.w3.org/2001/xml-events" xmlns:xlink="http://www.w3.org/1999/xlink"><defs /><rect fill="white" height="109.49251322075725" width="108.71086745988578" x="0" y="0" /><path d="M25,25.000000949949026 m0.0,0.0 m10.0370192527771,7.0495980978012085 l0.3982500731945038,0.5167146399617195 0.3582247346639633,1.7950868606567383 l0.02854364924132824,30.349233150482178 m-8.94756019115448,-14.405293464660645 l0.4072873666882515,1.64387047290802 -1.6990521550178528,13.77743124961853 l0.12046803720295429,1.8375948071479797 0.5850059911608696,0.23570969700813293 l9.65172827243805,-2.329658418893814 8.887631893157959,-1.2919172644615173 m0.34250203520059586,-17.41568922996521 l0.5364006757736206,0.8975434303283691 0.17006419599056244,1.9497877359390259 l-1.255866140127182,17.31150984764099 m3.6821582913398743,-26.937453746795654 l1.9748744368553162,0.3277810662984848 2.108321189880371,-0.10199332609772682 l22.874467372894287,-3.365395963191986 2.664756178855896,-0.1540311798453331 l1.9947345554828644,0.23965124040842056 m-18.207309246063232,-11.930080652236938 l0.6001624837517738,0.9302954375743866 0.299035981297493,1.9811460375785828 l0.04995002876967192,23.671140670776367 m-11.640191078186035,2.076614648103714 l1.6808034479618073,0.28993336483836174 3.010394275188446,-0.22714059799909592 l15.644991397857666,-3.1310364603996277 1.5769727528095245,0.27434132993221283 l0.4829173907637596,0.6048662588000298 0.14337699860334396,0.8808190375566483 l-1.5212246775627136,3.724665939807892 -2.861965000629425,5.086312294006348 l-3.347669839859009,4.8814380168914795 -3.751842975616455,4.595032334327698 l-4.07518208026886,4.224307537078857 -4.317685663700104,3.7720519304275513 l-4.478658139705658,3.2375675439834595 -4.55740213394165,2.6201578974723816 m5.4939693212509155,-27.02665090560913 l2.209887355566025,1.157642975449562 3.418400287628174,2.6518645882606506 l22.106189727783203,19.18394684791565 3.0427977442741394,2.1550102531909943 l2.7901893854141235,1.488124281167984 " fill="none" stroke="black" stroke-width="1" /></svg>