<?xml version="1.0" encoding="utf-8" ?>
<svg baseProfile="full" height="107.73964252549158" version="1.1" width="98.27812645019749" xmlns="http://www.w3.org/2000/svg" xmlns:ev="http://www.w3.org/2001/xml-events" xmlns:xlink="http://www.w3.org/1999/xlink"><defs /><rect fill="white" height="107.73964252549158" width="98.27812645019749" x="0" y="0" /><path d="M25,25 m0.0,0.0 m29.94349538000572,5.25013260978578 l0.3317490027887605,0.41961423186641145 0.3863121525327347,1.44525380841958 l-0.01913054952383631,4.874710962394313 m-17.186338738226883,2.106791011937676 l3.665285492307634,0.13847022435260545 15.516500989203667,-1.636252636237175 l10.106303985406049,-0.7334862855973325 2.977115779962584,-0.10726986510882101 l2.556832955741061,0.4041133218786233 m-27.19540801801432,6.176441336521423 l0.660421525116188,1.192019070300883 0.8881814230082091,2.855353329965368 l1.0391892702724237,5.203252978605549 m-1.468315709664717,-9.07141188584748 l17.469408896080214,-2.020642448655567 0.7174000500801477,0.46008326955104656 l0.23041459067576556,1.0646507279460085 -1.650775106333649,5.888149255605328 m-14.818667519272148,2.2429667681486656 l15.76954903553355,-1.7313337948015484 m-22.37907528302226,7.87706641512673 l2.8061404729241426,0.3062844575757637 18.508129175791034,-2.7529692505178325 l2.12331752980363,-0.10543359925143878 0.637843032958623,0.223923131320697 l0.3919739171780175,0.4972750990040271 0.0656957201426668,0.6678302960670114 l-0.3034153453316915,0.6957525009931734 -9.704671541578744,4.562365627758239 l-5.725862790664472,3.3063430281680564 m-2.30395441939399,-0.07429486550473652 l1.2209593755968706,1.9039401614203848 1.095713615747271,2.7320089907938407 l0.7265239249716317,3.0776431255277585 0.30683280577331234,3.103688960345663 l-0.1079644476333573,3.8693575151195434 -0.7296644893737575,2.383203294636531 l-0.4815934313208956,0.705804183224298 -0.5236787230243949,0.33824746265252903 l-0.5251830276154812,-0.019879564568992623 -1.0414844410204362,-0.3131006707578384 l-1.4962566510227706,-1.1708715882246956 " fill="none" stroke="black" stroke-width="1" /></svg>