<?xml version="1.0" encoding="utf-8" ?>
<svg baseProfile="full" height="94.33097749441623" version="1.1" width="111.87833208492663" xmlns="http://www.w3.org/2000/svg" xmlns:ev="http://www.w3.org/2001/xml-events" xmlns:xlink="http://www.w3.org/1999/xlink"><defs /><rect fill="white" height="94.33097749441623" width="111.87833208492663" x="0" y="0" /><path d="M25,25 m0.0,0.0 m14.315789788954033,3.831745114831052 l0.44075273978488044,0.1823253787718722 2.709938792576906,0.29568765665426805 l25.744008009328304,-2.7374401914908986 2.712118095835362,-0.10424181827215255 l1.2444240515290867,0.3196834344109616 m-31.976797192748702,3.2145573337290037 l0.042570742875502623,0.8354968337525811 -0.51180007695218,1.0373152910394692 l-3.4418881619567236,5.291366576121726 -3.6122151189496656,3.4060938421666203 l-4.460662923416914,3.0653129404144397 m29.33215865992399,-12.210516651313663 l0.5922015409560621,1.6674331882034414 -1.0987750756947197,1.9935586774055385 l-4.80970007840559,5.48142736313157 -6.1731002838548505,5.330687137335389 l-7.976248738149076,5.116384322065158 m9.734004346234038,-5.986085234030876 l0.4395250192384701,1.3480819409358282 0.03654389585693358,18.60698012750842 m10.421811275771278,-34.68048115124262 l1.5753337397113878,0.4742308798250711 2.001997875567297,0.015386511166184513 l15.18441659729747,-1.8408115090997217 1.3574855826464853,0.4738416536397326 l0.27214463043628606,0.5074919976807607 -0.05237268559401277,0.610482371370018 l-0.25603441447498543,6.978070541950664 -0.9397104164116021,6.77307689562581 l-1.4051120344981023,5.701035941784631 -0.5509380034210494,2.2702406284051984 l-0.5059308320483468,1.2827638604716856 -0.5818867578543375,0.8605654430209697 l-0.6126103953193298,0.3800354173939755 -1.2374013419913281,-0.25083473460188954 l-1.8816037013755962,-1.7480309159509928 m-14.166095039680055,-20.01252431344965 l0.5042221475421338,1.3921834590954323 0.18610796852442324,26.951116982803185 l0.5584313085108827,2.309797083843995 0.9748310619177837,1.2034683375173671 l0.8587515646001568,1.1848772378069923 1.1243073134833803,1.5732924981202379 l2.7407528928244576,1.3258702468555217 4.5848524024028325,0.5989102007184244 l9.093084141803104,0.011068666295496877 5.520079397573021,-0.6386954435788098 l2.047559931417758,-0.9053079849122561 1.1536770752216712,-1.3940948712325398 l0.5039214811902136,-2.3282247401025393 0.12141128618819784,-3.1676954594758038 " fill="none" stroke="black" stroke-width="1" /></svg>