<?xml version="1.0" encoding="utf-8" ?>
<svg baseProfile="full" height="100.65465678985846" version="1.1" width="94.5792237993042" xmlns="http://www.w3.org/2000/svg" xmlns:ev="http://www.w3.org/2001/xml-events" xmlns:xlink="http://www.w3.org/1999/xlink"><defs /><rect fill="white" height="100.65465678985846" width="94.5792237993042" x="0" y="0" /><path d="M25,25 m0.0,0.0 m24.910735076470413,16.014055725968007 l0.05678172035084237,0.3811894862464771 -0.378751698215105,1.3110601683744956 l-1.4105490583017846,1.9999051579064988 -1.9777958443109989,1.889703920111129 m-5.264505266329179,0.8279035488323686 l0.48734755466157326,0.6194453946174968 0.26356907722281947,1.2116884898496698 l-0.01692709835814177,17.32124939538892 m0.5056541885722019,-18.84639133701156 l15.074750841787907,-1.8538551212679133 1.1551369731867447,0.14306878893764474 l0.5325876648854129,0.6114732569660497 0.14176237784127038,1.0124050040211068 l-1.9970490965103753,8.66939845406513 m-14.923273866845845,-3.893249880005246 l15.456978210987304,-1.5319393870318576 m-15.613842879144263,6.467589938903289 l14.686630643839656,-1.5942879304796727 m-14.6354291636027,6.179611123757961 l21.746271538843345,-2.163362643151566 3.4209783309780395,0.009069370302074144 m-25.65406774551255,7.375758232736348 l11.939772295657164,-1.4005167040534612 12.318454126302912,-1.1830505869988497 l1.5094940093297184,-0.09374608053697588 1.5349824705078312,0.2093970903892072 l0.709528415010004,1.375211583921027 -1.2949885205680907,1.4520633614593241 l-2.7701477920545847,4.617267595240072 m-24.558184501568924,-3.1508865759464997 l1.350096617637713,0.7071476051998378 1.2637821023449336,1.4173747372161898 l1.0616405502105655,1.4729955951481457 0.6891330710686622,1.4827858875439544 m9.459110604127817,-6.427653165772021 l1.4689737508136753,0.9967890774381069 1.5751931225087472,1.4718115923885593 l1.4725578200413543,1.735597485615777 0.7970763596313698,1.2852057819694362 m5.562600875237141,-6.181940321125381 l0.7844539488367938,1.0035258904349136 0.33907093347678413,1.5852159630998743 l-0.059570543114458,6.118571819190362 " fill="none" stroke="black" stroke-width="1" /></svg>