<?xml version="1.0" encoding="utf-8" ?>
<svg baseProfile="full" height="105.1150851501445" version="1.1" width="107.35854718031003" xmlns="http://www.w3.org/2000/svg" xmlns:ev="http://www.w3.org/2001/xml-events" xmlns:xlink="http://www.w3.org/1999/xlink"><defs /><rect fill="white" height="105.1150851501445" width="107.35854718031003" x="0" y="0" /><path d="M25,25 m0.0,0.0 m5.092068791741685,4.87088997092392 l0.6389758677635895,0.2265585025187876 1.7778901226470867,0.3709771197198132 l2.2459621856369885,-0.002422325232294847 29.369250022730625,-3.4257245946830195 l2.251372960407432,0.1298843256338901 1.2106742681545806,0.8217855302357363 l0.36233943637983795,1.4749687481321487 -3.4889738490266797,15.941151305502324 m-31.63039127749636,3.8313063885048972 l33.88743955012476,-3.5113676583382896 m-34.816044755398785,-13.411135938343381 l0.3246352838237516,0.4395625961602699 0.18175025333867112,1.225482939691997 l0.05114005814559832,34.07983307351513 0.6282318097481578,4.67578027242876 l0.8815487089002723,2.060442851391603 0.7173298698145126,1.0930923061300588 l1.0598871586975294,1.838441918350683 3.043941705599694,1.4040746142238214 l3.376626397096736,0.5903816276457113 4.190563039083245,0.3333924674580893 l15.356144397938088,0.057729108573836986 9.879305535944326,-0.7296689645817862 l4.742787347908233,-0.9144130183311877 2.747029891122168,-0.9884763135816275 l1.8276368435239423,-1.174468438179613 1.1923875262430583,-2.0317996311262982 l0.25703802971727585,-3.706736468131025 " fill="none" stroke="black" stroke-width="1" /></svg>