<?xml version="1.0" encoding="utf-8" ?>
<svg baseProfile="full" height="118.85393486564377" version="1.1" width="96.32222119252458" xmlns="http://www.w3.org/2000/svg" xmlns:ev="http://www.w3.org/2001/xml-events" xmlns:xlink="http://www.w3.org/1999/xlink"><defs /><rect fill="white" height="118.85393486564377" width="96.32222119252458" x="0" y="0" /><path d="M25,25 m0.0,0.0 m2.7073706152063637,18.953682781103627 l0.0767706307662519,0.4804806501022108 1.1094183543660388,4.829851192658987 l1.026755845035026,4.008924016663796 m13.313659331855485,-16.663649358953627 l0.06987652307291417,1.1695201103998196 -0.5044767612046785,1.3299958911558898 l-2.9362348579356827,4.235897696884333 -2.6032655578049733,3.070315894627008 m-2.3855213264689934,-18.435198058261108 l0.5602236822745386,0.8192143865067623 0.2467417598105101,1.063749677552072 l-0.03128526374125848,9.292016695904962 -0.4046006311901291,11.542413351166859 l-0.9218908959201186,8.838086118125606 -1.1693747250638797,5.268305531327266 l-1.6488984250118421,4.464170391249773 -2.1186161815045192,3.702435029191692 l-2.674437197983311,4.239451043453807 m9.376425117861219,-17.618676382127777 l1.6467921899370013,1.5429672214553085 1.9609558306855734,2.6676206253058665 l1.6481619614022085,2.782715218723829 1.167511863583628,2.803576687736015 m5.0702025417784755,-41.45175496760329 l0.5096112083645221,0.3153338016350742 1.1252512532328334,0.061090830345283724 l7.854923487308496,-2.053371493653161 0.9969712808195037,0.014587321475817205 l0.8834087200634396,0.3498818961821393 0.51704595817963,1.0802121359398948 l-0.3507101369864864,1.9268856793266433 -4.602592268271799,12.613822328286805 m-6.770109767776994,0.8506657711522018 l11.462804538870621,-1.5587024376908316 m-12.291649815134708,0.6158280919417366 l0.39460811747633134,1.4263564936543518 -0.06307005277616046,1.303896669500365 l-2.2194848014734783,12.899467740994655 0.10180481511476401,0.8517391658931214 l0.4116071909332586,0.42302560482559237 0.7009994869863801,0.0619588394130122 l10.9361053383792,-2.3453779386794213 0.885928208808588,0.19033167114832264 l0.7842394253647417,0.33725211283138473 0.7097739280712969,1.099576851512059 l0.15842598497975618,5.85678670318772 -0.855879574184403,9.053879071029597 l-1.2014385633099411,6.9976306968437125 -1.5274866509911702,5.666467235939983 l-1.0834749253319844,2.798304997933344 -0.5942592873836938,0.839647808403134 l-0.6025970720935562,0.36431320032172293 -0.5988114585446817,-0.024902057396791782 l-1.1083656097771082,-0.9941525709365291 -1.1318506990626165,-2.138387854848489 m19.17054299553241,-50.822828390704025 l0.7060777745909097,0.9834370202934267 0.43160773874084596,1.6086027384523789 l-0.07526335264510844,55.26456368673985 " fill="none" stroke="black" stroke-width="1" /></svg>