<?xml version="1.0" encoding="utf-8" ?>
<svg baseProfile="full" height="143.98855133806853" version="1.1" width="102.87228545514036" xmlns="http://www.w3.org/2000/svg" xmlns:ev="http://www.w3.org/2001/xml-events" xmlns:xlink="http://www.w3.org/1999/xlink"><defs /><rect fill="white" height="143.98855133806853" width="102.87228545514036" x="0" y="0" /><path d="M25,25 m0.0,0.0 m4.553786733555613,21.017897011458174 l0.5563001130055665,0.09658326862839979 3.0200234032623183,-0.049328901938435775 l10.455092057326349,-1.8372841594612377 2.008627061287675,-0.06135565808176674 m-7.836708219498021,-12.460907424639652 l0.5813005245255894,1.0395392737069657 0.22730895252119127,1.186149854378034 l0.043756806328511984,28.283914879838445 m-9.250750527896228,4.37930649497515 l1.0205336077434564,0.36032661905814317 1.2294703513210063,-0.44799914358491194 l13.122623405781573,-8.188463850935495 m4.86906440006,-17.081134598560396 l0.6174701232141329,0.18572792171663915 1.4614991768474128,0.031196746865393424 l19.34712296446139,-1.8825440749632671 4.401293717553008,0.6020368831033396 l0.6836391879124527,0.9692407779786822 -0.011580395905787185,0.6920918107664603 l-2.540775993498724,7.225665383544625 -2.480387384538769,5.527197276036275 l-1.0681178635374544,2.5054922663185133 -1.3547146245797166,3.02857874093755 l-1.422533884527584,2.71833649435302 -0.7149470209100853,1.8887144548049632 l-1.06768730026973,3.3523406593133847 -0.6869169984164671,3.260900830230252 l-0.9983328293559451,4.449508023628273 -0.5945260536793509,3.5463988918510956 l-0.7897008361114097,3.957362563512837 -0.5449740361484284,3.083796562357418 l-0.5030752050915042,3.4373995210332553 -0.46299048480666244,3.9082613295031092 l-0.032190870099347915,3.6891174885096314 0.5312458889060181,4.375808710463177 l0.9537504274548533,4.7052302473911585 1.5203639556410309,3.972539034575866 l4.443726135199277,6.02433367539057 3.078111023279951,1.8442468362433233 l4.407608906612146,0.6523286177615528 1.2043944767648747,-0.8283113576200266 l0.7037636423804624,-1.7897893098009925 0.19131894106569228,-2.848786061860867 m-27.543687430288344,-43.12196218725607 l1.8914254452281525,1.5485777998945274 1.8591383247306266,1.9840803505555704 l1.4990718974461383,2.1779025741937654 0.6379631183119975,1.3995410530275334 m-17.603995529806582,13.902039894735111 l1.2647349679909883,0.3464822239952911 1.4660499873920545,-0.03540665747389415 l15.391560332540763,-2.249343275618986 6.07210118639493,-0.5610064294136273 l2.9637055381977317,0.2702887931142768 " fill="none" stroke="black" stroke-width="1" /></svg>