<?xml version="1.0" encoding="utf-8" ?>
<svg baseProfile="full" height="103.68854348747881" version="1.1" width="104.09104622092534" xmlns="http://www.w3.org/2000/svg" xmlns:ev="http://www.w3.org/2001/xml-events" xmlns:xlink="http://www.w3.org/1999/xlink"><defs /><rect fill="white" height="103.68854348747881" width="104.09104622092534" x="0" y="0" /><path d="M25,25 m0.0,0.0 m13.284539980830722,7.461539101521343 l0.580453610759731,0.1624667806742363 2.049305037545759,0.16618889545428223 l2.9379473169392814,-0.2240072124656552 25.16904074511441,-2.5093064585313756 l4.499494278145338,-0.16650311108924865 2.5961322626808525,0.30384839715806694 m-39.809748347908055,16.069334004501286 l0.8926695553715642,1.876209821637516 0.584892326564175,4.756266224458072 l1.686555507804043,23.442164743341117 m-2.078221599211496,-29.606218512784796 l38.69680909219264,-3.7967241239618947 1.541073066326697,0.08686000084346933 l0.6451147963712862,0.4564899586109643 0.8149885913983997,1.123745408750685 l-1.7123484168099785,21.43997925830974 -1.5782982921275484,10.91130651933159 m-24.072176458990175,-44.09750335990325 l0.7287313678464299,0.9566243906735342 0.4447145378589929,1.9053216229119554 l0.8365954388784448,37.39959638159345 m11.332331690486916,-15.965131708752182 l0.6014332515981572,1.0265783950903173 0.2851153160978522,1.3977114233552974 l-1.3321793022414832,17.4198459979747 m-12.592675082927439,1.6918606487755883 l17.40063710948609,-1.4799475097226578 " fill="none" stroke="black" stroke-width="1" /></svg>