<?xml version="1.0" encoding="utf-8" ?>
<svg baseProfile="full" height="117.01691608348575" version="1.1" width="105.7625855039604" xmlns="http://www.w3.org/2000/svg" xmlns:ev="http://www.w3.org/2001/xml-events" xmlns:xlink="http://www.w3.org/1999/xlink"><defs /><rect fill="white" height="117.01691608348575" width="105.7625855039604" x="0" y="0" /><path d="M25,25 m0.0,0.0 m12.362616608945835,21.710129359665217 l0.3829641419083234,0.09955402945792892 2.003449799758479,0.007851991936733707 l9.915755313721023,-1.7762942549895666 1.5508657842625766,0.041997720894158576 m-7.6496589719036345,3.0248853879975504 l0.4565538913075949,0.8974592756298025 0.16121054513798463,0.9877674369958224 l-0.048729189276603135,23.12665740701917 m-6.661517445340528,-13.564171858007692 l0.9171042645838127,0.18594293309423254 1.1393824957054046,-0.055517827451938236 l8.866643812243742,-1.9477124289055205 1.9479344966310748,-0.13653272153753207 m-13.415775111768813,17.841454546157564 l0.8123068284756454,0.3731511980220915 0.9937652029057281,-0.22022988363549156 l10.630925362355606,-6.625152416037482 m12.160413190259588,-30.704776175163605 l0.6401092940920745,1.1369222747370507 0.09510297211909324,5.639538374423637 m-9.090829410681957,1.6072679233935516 l2.738322018499214,-0.01449981016830602 14.769340449617635,-2.045853382377793 l2.603293283619944,0.11125683242438084 m-6.712729867172103,4.165474993908649 l4.380774336867159,1.5389601383255473 0.912950158511354,1.0203176649502277 l0.1973168550063066,0.6584336875015125 -2.116319361069311,6.834802911282513 l-1.8615312584317507,9.100666680381543 -1.3714650182279808,5.211316770203777 l-0.5568228502477216,3.6583147056354135 -0.47304367309653567,3.8902973849593545 l-0.5467946378929947,3.3218425574232566 -0.7149002774835062,2.403752291623492 l-0.9115991924343378,1.2464470564763535 -0.9593568458561822,-0.13507105874103745 l-1.3754889647305073,-1.6808242350349945 m2.0404578989748705,-32.552975810896356 l0.1258793848906893,2.1256117075969243 -0.8394243195925329,3.5082321349001004 l-1.758309429766351,5.894529489792912 -1.9075645258604037,4.978342064003384 l-1.7462156690644743,3.745636414393263 -1.9875544379329775,6.346132970619167 l-3.4406529415038367,9.060630236626679 -1.5821596363295503,2.9749493939801046 m7.399501387565284,-41.608019280024855 l2.5603325671525745,3.768736614058631 8.07029373892045,3.0948847323650277 l6.43269531608992,5.2170222434173 3.9886835297094136,3.9876898112992096 l2.2340836097865737,1.327312595681069 " fill="none" stroke="black" stroke-width="1" /></svg>