<?xml version="1.0" encoding="utf-8" ?>
<svg baseProfile="full" height="107.35854227769156" version="1.1" width="111.5901109588338" xmlns="http://www.w3.org/2000/svg" xmlns:ev="http://www.w3.org/2001/xml-events" xmlns:xlink="http://www.w3.org/1999/xlink"><defs /><rect fill="white" height="107.35854227769156" width="111.5901109588338" x="0" y="0" /><path d="M25.804892681447658,25 m0.0,0.0 m13.083031019470152,5.698205730015837 l0.06417552786244692,0.4628124010340943 -0.08334734570746323,1.0912486203030247 l-0.9009911513691433,2.0060203859789993 -3.7480680799192703,5.752788136825845 l-4.362705009226944,5.083550754922623 -4.856987642557438,4.521236771150065 m14.807285444538177,-14.355956425886935 l4.767070342677584,1.0163220280447027 4.302536923902823,1.5590441217784736 l3.156162538017038,1.6984709495406207 2.2079602553784197,1.5484366310409983 m-22.010220816598043,1.6302792675770477 l2.8995889188994903,0.024032312973508916 10.512709644854565,-0.8626403059233282 l3.691131263941695,0.0543066399698049 m-21.756148249191053,6.189715590833816 l0.5874676566461725,0.5183927023929876 0.3244066244940858,0.7313224629441747 l1.5573877599556,19.59621731475503 m-1.014534778839512,-19.219914051546063 l18.453412841370938,-1.4120058217262204 1.7714285595915236,0.29937117390280166 l0.8296600015520863,0.5641747118607279 0.28721233284404024,1.1861761961975503 l-2.2113983980977885,18.400658280154 m-17.87121486163991,-10.214567486437113 l11.928659186489773,-1.1601207977069554 m-11.94372263987866,7.612977746128313 l16.7005802681771,-1.2322792755173597 m-17.276880144356806,7.776298765134291 l15.755267184287497,-1.1143131866421798 5.044879835528,-0.02095293248048102 m7.417278851337545,-36.52558248470711 l2.001688400497287,0.29039639114859467 2.368479458206928,-0.09948675369034783 l18.47160524057922,-2.510956327441076 1.040082242642355,0.12687602824741795 m-21.96036601939011,-4.971044355813289 l1.1839613741771045,1.1611646603708166 1.4420185704501371,5.4684550726564 l1.7622005628103679,4.604378479354528 2.2355394312843155,4.05068365466084 l2.743563721940064,3.307625127065597 2.997141459505333,2.1638904803361703 l2.754108533144531,1.5767893492668372 3.1530567763101773,1.4108132525606238 l3.565771670126535,1.2443893034312403 3.499903199515617,0.8139548580930845 l0.9595516907544214,-0.13358043269388112 0.4538381003971422,-0.9156073902438078 l-0.2782984823533649,-1.7947954207019963 m-7.109673314012817,-10.56629599961108 l-0.415034337263822,0.9532368814892365 -1.9176463072470769,1.554394768724291 l-2.6726951115421502,1.6264945266696307 -3.686494066321848,1.7680901138936544 l-6.87834425843457,2.5466182418024954 -8.734779154598106,2.431179531226958 m17.214996893346733,-20.837444955023994 l5.124656424269969,1.888124914673724 3.167536429629653,1.8034727974088256 m-29.085190406814576,25.461106945430966 l2.9145424076111426,0.23747215419422862 25.054653500857526,-0.31184217328605845 l5.289589947377375,-0.10915006967344851 m-23.774485633925657,-5.7421416062657915 l0.918904599852442,0.5540694414833238 0.5357797232804459,0.7682125421688049 l1.319595662858946,4.951921422460235 2.3168905890502933,4.64104526493585 l3.112402284207214,7.385417151444758 2.2751406145040387,3.4412154618136075 l2.1913708365001248,2.4476353970196842 2.6032022410900306,2.187240739290978 l3.0462317868184132,1.903759989625264 3.3364733759961305,1.5007639087240956 l1.9280770322974294,0.17627198357796503 0.6118307268590956,-0.8665241379368568 l-0.05409249684492352,-2.4747186366484573 m-7.434513208036038,-13.581451064846863 l-0.11348190606905871,1.2204423668147697 -1.5093409839091758,1.633232092305076 l-2.6786225218365316,2.100605110354712 -3.7477849026884624,2.387625610876328 l-8.19382380563501,3.9650869535790827 -8.883127063727798,3.0560579234080576 m16.141334292607887,-24.437398861609267 l4.517980529499124,1.909886641254106 2.337653634850982,1.646811456527073 " fill="none" stroke="black" stroke-width="1" /></svg>