<?xml version="1.0" encoding="utf-8" ?>
<svg baseProfile="full" height="110.95109396485756" version="1.1" width="116.07624760716799" xmlns="http://www.w3.org/2000/svg" xmlns:ev="http://www.w3.org/2001/xml-events" xmlns:xlink="http://www.w3.org/1999/xlink"><defs /><rect fill="white" height="110.95109396485756" width="116.07624760716799" x="0" y="0" /><path d="M25,25 m0.0,0.0 m14.329012835288383,4.000928009874362 l0.6737415574048258,0.25663187742935106 1.7005245687170893,0.4222559625487843 l2.048511826817692,0.022208360156081457 29.894710363163124,-3.6497705889283085 l1.7706306947405825,0.2518426513073297 1.1499837879569887,0.9629116406987449 l0.35597960814046264,1.5643247912135723 -3.623475391005845,17.752488256877772 m-30.538767848506286,3.6931380757867642 l33.0950742117969,-3.508296925348769 m-34.71890209847698,-16.497282546843362 l0.3148025795685802,0.47670331491807255 0.19022214234060747,1.345180517208151 l0.07253133057728858,38.214757682204024 0.7012018212395723,4.068704625403308 l0.9885867619774316,2.2331884031573157 0.8626656687468557,1.2740030395685067 l1.2841962234089004,2.056946709006224 1.466212776307381,2.45137115995848 l1.3384187252475683,1.4778261179219034 2.3964804278509835,1.2352165711325902 l6.6336664218356,0.8431598218783668 14.61308111263753,0.0026564377283126183 l10.841351213211547,-0.7591458104496995 4.517921194362117,-0.7884979818385918 l1.6059134320951096,-1.0581341380450588 1.285231317596503,-1.6054200317014393 l0.7594043545351344,-3.022274870892504 0.0673359875923499,-4.819530128570461 " fill="none" stroke="black" stroke-width="1" /></svg>