<?xml version="1.0" encoding="utf-8" ?>
<svg baseProfile="full" height="101.79271808966979" version="1.1" width="110.66550900630351" xmlns="http://www.w3.org/2000/svg" xmlns:ev="http://www.w3.org/2001/xml-events" xmlns:xlink="http://www.w3.org/1999/xlink"><defs /><rect fill="white" height="101.79271808966979" width="110.66550900630351" x="0" y="0" /><path d="M25,25 m0.0,0.0 m15.783396706906931,20.300340336849334 l0.32635908643126976,0.4054899697110968 0.6968935239580832,1.1823875705712192 l0.2944137576834957,1.565747404690656 2.274361862337783,27.280616604484486 m-1.7246600045997844,-29.994711896084347 l32.17389127698101,-2.9366457946552393 1.5478142962378334,-0.05730169690990562 l1.9823824677803175,0.4762256659063225 0.8291755147007569,0.7861240628333562 l0.253308596063893,2.0191605761402576 -1.963369129286701,28.83031166030872 m-22.709229676614406,-28.13213921847581 l0.5007156300832685,0.8956045239334617 0.20751026439820167,0.9967387443655094 l1.3986122510359014,25.996338891629154 m10.937090560098346,-29.43528597943804 l0.413714332135895,1.1276652488008776 0.06831199047162984,1.1957448860743007 l-1.840045041556313,27.257311705020104 m-27.03155841088659,1.4237261433990007 l2.0402662716110886,0.44376959546352 2.806743287520406,0.16549908505174615 l28.294415217301342,-1.350206203315993 8.70289133588754,-0.12801599032291366 l4.40210303962232,0.44696501524811194 " fill="none" stroke="black" stroke-width="1" /></svg>