<?xml version="1.0" encoding="utf-8" ?>
<svg baseProfile="full" height="103.15725211360613" version="1.1" width="100.18157580613854" xmlns="http://www.w3.org/2000/svg" xmlns:ev="http://www.w3.org/2001/xml-events" xmlns:xlink="http://www.w3.org/1999/xlink"><defs /><rect fill="white" height="103.15725211360613" width="100.18157580613854" x="0" y="0" /><path d="M25,25 m0.0,0.0 m11.571243756057562,18.522676695591 l0.35531935447448465,0.11612052502956445 2.1539632931887356,0.0037505309694785835 l10.732288089455661,-1.364478075594159 1.5905514220643375,0.05512312503157612 m-8.312828481787854,2.5626857106327265 l0.10675794514987488,0.8120497298091701 -0.28854705612243514,2.1341790769322158 l-1.7532356247613439,5.819645286033501 -2.1097847017136844,4.924465498305713 l-2.6758135247699633,4.578078330416344 m5.5931098042760885,-7.652578308209189 l0.4540181751530519,0.7037583086677203 0.3060123041417577,2.0511638858074583 l0.9728550549620504,10.533759514049157 m-1.010049882579441,-12.646573912995237 l7.751205575128586,-1.407426870210774 0.5757515297785616,-0.039785630885246934 l0.7164525159810254,0.42104901107224546 0.21369074085636855,0.9711266899921323 l-0.08886282713411277,9.196486450847052 m-7.843337279243185,1.5595982394138348 l8.228964392869507,-1.1384115238147048 m6.517211949366765,-29.02469385430843 l2.569248135082711,0.7996322142713382 2.396147220255414,1.1391427203726283 l1.68824688244811,1.252035408432644 0.9229313639625505,1.1633807013935094 m-8.314157305663452,4.323458029402392 l12.236954979223796,-0.91262232924839 2.407691978897123,0.12322757344733673 m-14.60826766939197,7.603486252953529 l1.620507474795212,0.06067159234665661 10.040343254080545,-1.1803794570180115 l2.2045556818406515,0.082047781404224 m-14.305319678005443,7.026305947246502 l1.7068527572414072,0.09209368002184273 10.978134574012614,-1.1049312522089678 l1.788704100435536,0.06819869428783762 m-16.19076544114599,7.600562021298676 l1.6284588170320617,0.7911696441607389 14.28101656324185,-1.450699908268547 l1.9867017369120195,-0.10097426811438187 1.3866538560913855,0.2680632909176894 m-11.792633450220695,-17.069400294971754 l0.5258651469920884,0.63897475292867 0.26962837452357485,1.3045885786135365 l0.008978820060808293,28.947452307353284 " fill="none" stroke="black" stroke-width="1" /></svg>