<?xml version="1.0" encoding="utf-8" ?>
<svg baseProfile="full" height="110.77695767898554" version="1.1" width="97.4666102909986" xmlns="http://www.w3.org/2000/svg" xmlns:ev="http://www.w3.org/2001/xml-events" xmlns:xlink="http://www.w3.org/1999/xlink"><defs /><rect fill="white" height="110.77695767898554" width="97.4666102909986" x="0" y="0" /><path d="M25,25 m0.0,0.0 m36.00546592833553,6.47056647089209 l0.006104401962357619,0.33520863816296614 -0.5299136679717615,0.7409138060146755 l-1.5880632256814478,1.2033636496305369 -5.026630708250666,2.4118686809517187 l-6.123369188092864,1.8586002837009659 -6.4993844754476635,1.3538501836996626 m-2.6458202992436832,5.014209347529451 l1.2425524283002076,0.3148003545626078 1.0120704029225907,0.03461863433937192 l22.8963346170186,-2.91392160803753 3.6453444768339542,-0.33686668862563424 l1.8924949870345509,0.29409926328628927 m-30.47767746672741,9.305135549529217 l1.6137639086044908,0.27790033625342736 7.296625202917491,-1.3486350738496848 l15.953217138052475,-1.6662856514641537 6.145069871082104,-0.19519052982069998 l2.116556838475106,0.2673169298561538 m-18.062795560234637,-10.482558284513775 l0.6696412141078126,0.8295382044816318 0.21062821039770238,0.7253712000884073 l-0.10115839719659843,15.844629173489787 0.15357722223613238,2.1542205173877433 l0.17507270242339867,1.1167266685257884 0.5312719379641145,1.2917526314981582 l1.2158484552969249,0.7529379311260679 2.4083602886185616,0.3000289230395853 l5.487342666716592,-0.06631240959251439 3.3623130059086517,-0.44385843953555776 l1.1771283122823268,-0.6222520770799764 0.7689437793700762,-1.062861347566059 l0.24549478312426937,-1.4572639111264196 0.016260011311587542,-1.8836413790659892 m-23.430879034753264,9.007265976557358 l0.04110286932730635,1.197154270929962 -0.5677453886346543,2.9631510469730187 l-0.9878958754195732,2.9277628908381272 -1.3306201487496199,2.682848188486806 l-3.162312432190063,2.31406208301277 -2.7172238603297716,1.0487385097320094 m9.585958044066187,-16.173092376359204 l5.7066955320939865,-0.22983280080687357 6.642469501819089,-1.0043217136795417 l0.5543523250810326,0.1147979022403053 0.37009337889504784,0.31537884686682893 l0.22241338288022905,0.5051439611746239 -0.02160459665252726,0.5854424350306884 l-1.8932293102559683,4.956053384200671 -1.8663949787738112,6.269773376678828 l-0.3079148120059008,4.30690042670369 0.3377834174508258,4.7567976238920195 l0.5059166436987098,1.1274465319176377 0.7487218408160182,0.9085409900358526 l1.7305951327709446,1.2943505837457154 2.2529389594219986,0.4845855630459389 l3.7832963220065134,-0.02936825532308519 3.034053210541593,-0.4455758461516092 l1.305747777983683,-0.5477411761813163 1.0310591134475837,-0.8871028668923688 l0.49228239779490035,-0.8833073210520601 0.19925637396518928,-1.5431038915283537 l0.01502470225202444,-2.1704855801725462 " fill="none" stroke="black" stroke-width="1" /></svg>