<?xml version="1.0" encoding="utf-8" ?>
<svg baseProfile="full" height="109.4925182312727" version="1.1" width="109.01565422536805" xmlns="http://www.w3.org/2000/svg" xmlns:ev="http://www.w3.org/2001/xml-events" xmlns:xlink="http://www.w3.org/1999/xlink"><defs /><rect fill="white" height="109.4925182312727" width="109.01565422536805" x="0" y="0" /><path d="M25,25 m0.0,0.0 m5.98130464553833,19.60498332977295 l-0.012773147318512201,0.794316977262497 -0.2828073129057884,2.950480282306671 l-0.7405156642198563,2.6893198490142822 -1.3138361275196075,2.5649040937423706 l-2.0040999352931976,2.5783544778823853 m11.423817873001099,-28.263635635375977 l0.6953075528144836,0.9956984221935272 0.505882017314434,1.97757288813591 l-0.04558752756565809,13.326293230056763 -0.5778039991855621,9.868062734603882 l-1.4365704357624054,9.262797236442566 -1.7362141609191895,5.522856712341309 l-2.2712385654449463,4.35043603181839 -2.8189662098884583,3.646535277366638 l-4.313821494579315,4.2787012457847595 m21.281418800354004,-35.86755990982056 l3.1040385365486145,4.2839315533638 1.480470895767212,3.042764663696289 l0.5959245562553406,1.9237715005874634 m6.007816195487976,-28.95707607269287 l0.8171078562736511,1.2060467153787613 0.45287463814020157,1.9693532586097717 l-0.10712397284805775,48.47370147705078 m8.590281009674072,-33.189449310302734 l1.7623674869537354,1.8682889640331268 2.3029963672161102,3.3532434701919556 l1.509239673614502,2.8507238626480103 0.8450359851121902,2.4255438148975372 m7.783260345458984,-29.530956745147705 l1.1361797153949738,1.669335961341858 0.4016886278986931,2.1572843194007874 l-0.1912936568260193,55.6658935546875 " fill="none" stroke="black" stroke-width="1" /></svg>