<?xml version="1.0" encoding="utf-8" ?>
<svg baseProfile="full" height="89.47328311396862" version="1.1" width="114.23689862616803" xmlns="http://www.w3.org/2000/svg" xmlns:ev="http://www.w3.org/2001/xml-events" xmlns:xlink="http://www.w3.org/1999/xlink"><defs /><rect fill="white" height="89.47328311396862" width="114.23689862616803" x="0" y="0" /><path d="M25,25 m0.0,0.0 m26.830269929516984,3.2695716946260465 l0.023322265930447235,0.4932981432783694 -0.4629301135653258,1.223696841406216 l-1.0893740278676711,1.447588855269999 -3.744856131778074,3.6349904187259443 l-4.47606731011707,3.1122834691637737 -5.224682821210265,2.8001617148429356 m15.501796716666824,-8.856838406626162 l1.7798160964988643,0.09802475384875509 11.336172384731702,-1.3061549156123227 l0.7362139502466114,0.239785772906838 0.4220261457627137,0.4257904274217779 l0.08463465721804996,0.5579759196623977 -0.5800154210134859,2.2913410689423412 l-2.3391253562016034,3.317833055438964 -2.895068972852862,3.373616577846007 l-3.7935571173857534,3.6995434159005103 -4.3287115741364905,3.7805635520269103 l-3.649713801944639,2.80425459438412 -3.9111470889696855,2.6499295586455642 l-4.198825319303937,2.3915986639364837 -4.50873751992574,2.0474849634790835 l-3.7982700211096763,1.2220147890578017 m14.350525928705649,-20.617342183976945 l11.950898327224092,0.6670994848616281 21.355449513566665,8.576558454841882 l5.019451958350084,1.7870543158132897 3.847403349131623,1.0834729339711626 m-30.95960544796024,-1.3275160493727163 l6.584580154330949,1.1144995277307383 3.582282236618514,1.4069284964745128 l2.1891999005692826,1.1227431360250997 m-16.024466525977157,4.478105580049982 l5.313980881348006,1.1931281934391553 5.549508057682956,1.8596789850568431 l3.9804224896473266,1.8249434572346779 2.4515838178237184,1.5855738532469315 " fill="none" stroke="black" stroke-width="1" /></svg>