<?xml version="1.0" encoding="utf-8" ?>
<svg baseProfile="full" height="109.49251402169466" version="1.1" width="102.26879340596497" xmlns="http://www.w3.org/2000/svg" xmlns:ev="http://www.w3.org/2001/xml-events" xmlns:xlink="http://www.w3.org/1999/xlink"><defs /><rect fill="white" height="109.49251402169466" width="102.26879340596497" x="0" y="0" /><path d="M25,25.000000707805157 m0.0,0.0 m0.8020554482936859,2.659590244293213 l0.6939360499382019,0.3612164407968521 1.3790149986743927,0.4482472687959671 l2.296304553747177,0.11656258255243301 33.352062702178955,-3.585617244243622 l2.012106627225876,0.20208913832902908 1.237301081418991,0.9725502133369446 l0.41459985077381134,1.7044179141521454 -3.923078179359436,19.000061750411987 m-33.91275405883789,3.5397669672966003 l35.88442802429199,-3.5491538047790527 m-37.06743001937866,-7.399930357933044 l0.9013081341981888,1.8634609878063202 0.3810005635023117,2.2396959364414215 l-0.20171307027339935,24.982082843780518 0.2799680083990097,7.070292234420776 l0.5648338794708252,3.0260542035102844 0.6088307127356529,1.580418199300766 l1.9194918870925903,2.2635717689990997 1.3743938505649567,0.7505445927381516 l2.6702290773391724,0.744190588593483 6.340157389640808,0.5024008452892303 l17.949916124343872,-0.11732072569429874 5.201824903488159,-0.43794605880975723 l3.9656788110733032,-0.7052962481975555 3.6522141098976135,-1.321251094341278 l1.236530840396881,-0.8106189966201782 1.2565557658672333,-1.3867168128490448 l0.9113205969333649,-2.716825008392334 0.0877047423273325,-4.498261511325836 " fill="none" stroke="black" stroke-width="1" /></svg>