<?xml version="1.0" encoding="utf-8" ?>
<svg baseProfile="full" height="132.94915644973725" version="1.1" width="103.79179044601345" xmlns="http://www.w3.org/2000/svg" xmlns:ev="http://www.w3.org/2001/xml-events" xmlns:xlink="http://www.w3.org/1999/xlink"><defs /><rect fill="white" height="132.94915644973725" width="103.79179044601345" x="0" y="0" /><path d="M25,25 m0.0,0.0 m14.417855792644698,6.020646545846928 l0.42264684209807546,0.4124295385645363 0.7348631810787927,1.2813141210714223 l2.4952455879136934,10.936915547757566 m-2.211030881301556,-12.262043788802673 l25.294522766987843,-2.6103307258762176 2.392161962443629,0.14566221894277978 l0.9654964739937444,0.7107668891986254 0.19992111192443865,1.3615607415438986 l-2.5364015100539166,9.582792116081857 m-24.563794289466262,2.303932024080974 l25.958864021745047,-2.0037165153391934 m-15.365758432100362,6.439089795275918 l0.6166913924647714,1.007291170961419 0.1539305088991167,1.1090163043074912 l0.013365654802541201,6.210367981019386 m-22.73952498847843,2.2933281676335042 l3.549027878337616,0.2973208703453792 3.7387575735487464,-0.15298451257118023 l18.41598635314796,-2.791675562754967 14.656411660088157,-1.3934979218912018 l3.855922830405124,-0.024505089352969935 3.326628954889984,0.5301764491100692 m-14.189189362523015,9.49094742759752 l0.14150712740720992,1.2633963961292376 -0.428341925366053,1.2338023082717064 l-2.9045268830136948,4.792113280012989 -3.8161898024127607,9.427189855195714 l-3.5035027419292195,6.842415080882003 -3.3748784267325598,5.153796643901944 l-3.8700690204941135,4.7365641422008835 -4.561613564066996,3.9470721879760977 l-5.2519158844791,3.0297953259467647 m9.596480969779364,-33.22999159580366 l1.9992234283369987,4.563050415043961 2.7232080326207417,5.271203567556007 l4.39694978764286,6.066774285710266 7.233310059256064,7.001421096278275 l4.614130334610203,4.901609699397606 4.692524804309088,4.540706746312219 l2.5621871099410414,2.470148067637419 2.2000577390118625,2.043285154336909 " fill="none" stroke="black" stroke-width="1" /></svg>