<?xml version="1.0" encoding="utf-8" ?>
<svg baseProfile="full" height="100.75868159571965" version="1.1" width="161.90631989516055" xmlns="http://www.w3.org/2000/svg" xmlns:ev="http://www.w3.org/2001/xml-events" xmlns:xlink="http://www.w3.org/1999/xlink"><defs /><rect fill="white" height="100.75868159571965" width="161.90631989516055" x="0" y="0" /><path d="M29.19856052675459,25 m0.0,0.0 m7.766305167922939,13.510042314675589 l0.5142077958525412,0.12212916247717312 2.269315313391317,0.15149708007753446 l3.0943341490277962,-2.421530155910089 7.379039405458051,-2.6415794834125195 l0.7915724231437293,-0.3261940133018032 1.0166762918216166,0.13968470588199544 l0.4786515790747277,0.4632697897503052 0.07284320267161203,0.7481578135732545 l-0.47579917158099405,1.007459635460634 -4.381340118336108,6.395499135644058 l-12.711548205764185,14.988471347398718 -3.5894833873211245,-0.15001106676848583 l-2.4610618501599233,-1.5241090723414947 -2.754759409733661,-3.603951175602372 l-0.8245688956448746,-1.9361745705253164 0.37575428857680115,-2.68982998303156 l0.7487892039422963,-3.3176681415436335 0.8741198824422299,-1.721364539845925 l2.7716362991307086,-1.54149019207879 3.039024407005352,-0.8341997987880023 l3.194574851115198,-0.4051691751677143 3.1045828989610955,0.7756268338115826 l7.695855882389209,3.0835639933444305 2.770197908444666,4.599192939216116 l-0.46378068295771024,2.5106548250175402 -1.5072617639838026,1.4262776800454715 l-5.909221864116477,1.588825094413165 -3.7804509170256337,0.24578410903240677 m-13.296765210501986,20.375783616890562 l1.818767787446909,1.7400328873268327 1.685800922782356,-0.08536948929424297 l12.292638275763034,-7.911025051919123 1.98282373960931,-1.811968311305164 l2.4149538629363465,-2.2715954173254325 4.408718476743839,-1.3743135778760551 l3.256918770132602,-0.33918492468925815 2.836212675452079,0.22869518703348557 l3.248737094163369,0.7262726762171214 2.977090827638386,1.1057116069451447 l2.4502170600533213,1.2230017332514125 2.3234987119421335,1.2911670551997838 l2.2653126693018666,1.0189356655908437 2.7875607496887223,0.8215043091261222 l3.0705423924516393,0.4726168260397423 3.3509487474759836,0.06316872466677556 l3.528275013430552,-0.46110975274550614 2.4847042219707474,-0.6953742272040708 l3.2491619759622994,-1.0054015039530515 3.684099311451469,-1.04032561878322 l3.8169213268145596,-1.0873658791740974 4.075279158090579,-1.1429232632444293 l4.328871145132853,-1.1677175196062721 4.752414308718507,-1.1348123228459654 l4.684536400598529,-1.046284669482797 4.71978676031336,-1.0070057484987254 l4.774365153445903,-0.9826103649061881 4.891628254373692,-0.8554095542680573 l4.885494078856438,-0.776109951588836 4.860040022419151,-0.671683804887494 m-22.9604690881051,-24.15327916599808 l3.590908476792528,2.252103061002081 2.9990226999589256,2.995105869236701 m-1.4385793159721907,-8.84973469697526 l4.030707765740971,2.0195607586707744 3.309409781108581,2.6865425131889635 " fill="none" stroke="black" stroke-width="1" /></svg>