<?xml version="1.0" encoding="utf-8" ?>
<svg baseProfile="full" height="93.08006350169426" version="1.1" width="111.41984381063693" xmlns="http://www.w3.org/2000/svg" xmlns:ev="http://www.w3.org/2001/xml-events" xmlns:xlink="http://www.w3.org/1999/xlink"><defs /><rect fill="white" height="93.08006350169426" width="111.41984381063693" x="0" y="0" /><path d="M25,25 m0.0,0.0 m13.726234670932335,3.9530156747361183 l0.48275994030282654,0.17706370100706276 3.4407825028350323,0.03591085946938997 l22.280574012890863,-2.8362699339660558 2.4415054285096898,-0.2291148073939906 l2.1653508062694007,0.2804665366685019 m-33.764559584937096,20.49907496620703 l1.7576606267502477,0.47547852827184744 1.976584300780081,0.027340603222175294 l24.7278617045177,-2.9844243039448775 3.7762517178565003,-0.19685912364379252 l2.4793537794392266,0.2405558407575075 m-43.05825837994477,-13.983363751664024 l0.8785363054455453,0.7341134403538576 0.46249321290579765,0.17768793457392615 l28.314509710805822,13.922129842133208 8.389564699607922,6.694004465494722 l3.3107258440661633,3.3720705852213526 3.544068077989748,4.872897777685576 l2.253035994384657,3.129353990461275 3.654151926611027,2.9640038916814517 l2.973565537003123,1.397336180090795 2.339200578151753,0.35759060427120465 l1.183409325751434,-0.34735244438676216 1.4378252811552918,-1.4642278787480345 l0.24665579055660705,-2.3751332069968623 -0.46894194530402944,-3.522210663055108 " fill="none" stroke="black" stroke-width="1" /></svg>