<?xml version="1.0" encoding="utf-8" ?>
<svg baseProfile="full" height="111.60314499887286" version="1.1" width="102.05222084623813" xmlns="http://www.w3.org/2000/svg" xmlns:ev="http://www.w3.org/2001/xml-events" xmlns:xlink="http://www.w3.org/1999/xlink"><defs /><rect fill="white" height="111.60314499887286" width="102.05222084623813" x="0" y="0" /><path d="M25,25 m0.0,0.0 m30.57001770212662,13.210062265034201 l0.06862505935416877,0.35704750181184025 -0.5033859902449301,1.2396997065849904 l-1.3633915205187235,2.198851583566203 -3.441824064251369,3.3328781057052845 m-6.2557311729439,0.7064948724417592 l0.5999283864023472,0.7711534249967058 0.20441688672592664,0.7513412259693092 l1.8142214825232477,20.257562713344317 m-1.4219700389931706,-20.771084636111468 l22.270859328085066,-2.01336368505108 1.4820301172340715,0.12717954889478397 l0.4996152202755665,0.31956691258527986 0.4953882991991694,0.9625624942113478 l-0.0525245686528176,1.5137930501948715 -2.521919083269734,17.236525074422687 m-21.35746958740031,-9.794613642378867 l14.292234176096228,-1.4507597799212126 m-13.671942230475217,10.86925149990162 l20.094129187144336,-1.3625565029020548 m-31.922764432758946,11.482106536704011 l-0.2949603253004475,2.1112147035352127 -1.1387191957057514,3.015371163975034 l-1.3365879670533738,2.7969820857434895 -1.4163920419578515,2.3062079107047664 m10.132424263849542,-12.593894361593156 l3.1350555442129355,4.6597817729795015 3.4420322048062957,3.5928025186127224 l4.059651190706464,2.648149799741547 3.938035334533157,1.5136035658413785 l3.4725149979721635,0.8068713818737158 3.9067991771980113,0.5333169239008051 l4.527044385767887,0.2690392635533331 4.452534124522611,-0.023415943622105823 l2.696119450283744,-0.3543266525363466 1.4483456875763758,-0.7352794062248232 l0.1736381758098174,-0.5113982446068573 -0.1950395419592361,-1.2831195017532249 l-1.454639865714568,-1.6055080723962056 m-20.18191651229653,-11.903672024430882 l1.8994105859525858,2.4610912954360193 1.038088568816199,0.8159273436756412 l0.9470314194490801,0.11011131515297369 0.6407495657336162,-0.911798254838676 m12.56983385805469,-4.263732988630976 l1.6540823886933087,1.0215602030206157 1.900603319910169,1.6216735355653962 l1.418082823471945,1.8365164504543157 0.7398560732476429,1.5228327471188743 " fill="none" stroke="black" stroke-width="1" /></svg>