<?xml version="1.0" encoding="utf-8" ?>
<svg baseProfile="full" height="106.20031831958985" version="1.1" width="106.7522698676197" xmlns="http://www.w3.org/2000/svg" xmlns:ev="http://www.w3.org/2001/xml-events" xmlns:xlink="http://www.w3.org/1999/xlink"><defs /><rect fill="white" height="106.20031831958985" width="106.7522698676197" x="0" y="0" /><path d="M25,25 m0.0,0.0 m5.086032467388364,21.06513996254457 l0.5936211061685993,0.14321816751713903 3.147407666505594,-0.023551823547642906 l12.235340864331382,-2.090183847779944 2.1574048032957007,-0.03846435030288661 m-8.796177364145723,-13.540070068719842 l0.598632382683061,1.0465492541582724 0.24822595940343334,1.1535980696342096 l0.048522729822403125,30.711921343635712 m-10.109052185527826,4.363286393293172 l1.0987617751459777,0.5155133939544461 0.6392580393848608,-0.3554996325729082 l14.35099689914575,-8.851949469141601 m4.696274120512249,-22.95033633636639 l0.6844410887985569,0.17028863355856538 1.670372583729079,-0.03838083543263525 l21.12056369859924,-1.9615325790421918 5.160765866028344,0.7975797665594877 l-0.3660138243906938,1.0987538835701778 -2.138450517580969,6.045596051945248 l-2.0347869740103883,5.313574117238646 m-12.761397672833175,-12.274460163541182 l0.6738631343635235,1.7599595323114832 -0.4515091375908638,11.42483061460663 m-11.570077228088106,1.530062316024401 l24.260769250889396,-1.9505686590216287 2.2236890085728875,0.09609849151450219 m-25.789246772110143,-10.5874937749754 l0.6582644827388864,1.390555606400976 0.15698796667230316,1.1803494650899593 l0.11959913225893445,29.335438079931155 0.9809702233894224,4.49724282767209 l0.8994852125569943,1.5139861375476433 1.0474279929615924,1.4933276509714177 l1.4445318657484403,2.0631112472940294 1.57655050951583,1.1826778338197286 l3.5500954610494637,0.8146011381736862 8.970705933531766,0.1555498810667484 l6.202810105929195,-0.6145498313313785 2.0861403108503467,-0.6534564497262055 l1.6309456778890952,-1.493656244278895 0.5985355481265022,-1.9437493268458428 l0.1509876759104157,-3.3916128211134935 " fill="none" stroke="black" stroke-width="1" /></svg>