<?xml version="1.0" encoding="utf-8" ?>
<svg baseProfile="full" height="106.84428763094621" version="1.1" width="111.89772509390902" xmlns="http://www.w3.org/2000/svg" xmlns:ev="http://www.w3.org/2001/xml-events" xmlns:xlink="http://www.w3.org/1999/xlink"><defs /><rect fill="white" height="106.84428763094621" width="111.89772509390902" x="0" y="0" /><path d="M25,25 m0.0,0.0 m11.610002003119135,4.819666134786102 l0.5936891422206786,0.2887964118109943 1.4066915223037835,0.4968388275547524 l1.8174727133852686,0.07942908859055586 29.242229533968185,-3.3487887594336305 l1.702625461996569,0.20823496644815676 1.210139339096551,0.8903672652838008 l0.35129545233100806,1.4787812501759352 -3.4100099903583874,17.399520416188096 m-31.243480444656274,3.439402799208609 l33.01531014552659,-3.3247495370602187 m-33.836711898882825,-14.216971073357726 l0.24634917799873138,0.4859888386032181 0.14903653764857583,1.2308184518597731 l0.07098501223946627,34.673424390201774 0.693339237868101,4.409681777807882 l0.883124652785391,1.89901574835862 0.7103422265405832,1.0449350337381036 l1.0561576057864968,1.2083850306467943 1.829737780267462,1.567722031725476 l2.1646050067187064,1.1228327525563824 6.227649597585714,0.9023563030671794 l14.050174949551133,0.08859948218556686 11.9981725084078,-0.69814219024737 l3.971088722739365,-0.8145441358752554 2.2216553221051623,-0.8588141623814812 l1.9508163028275929,-1.5272690228337789 1.044038445378724,-2.4830348037208823 l0.17119902740973394,-4.128469219428646 " fill="none" stroke="black" stroke-width="1" /></svg>