<?xml version="1.0" encoding="utf-8" ?>
<svg baseProfile="full" height="91.36819403032732" version="1.1" width="91.16796375506294" xmlns="http://www.w3.org/2000/svg" xmlns:ev="http://www.w3.org/2001/xml-events" xmlns:xlink="http://www.w3.org/1999/xlink"><defs /><rect fill="white" height="91.36819403032732" width="91.16796375506294" x="0" y="0" /><path d="M25.629636098509742,25 m0.0,0.0 m8.301398495650648,4.604022742776241 l0.37820395977506266,0.14352066983174736 2.4615788239075083,0.2113882059626067 l26.936885919265283,-2.570535205542613 2.460260457954694,0.28463195756095666 m-34.050299823948905,16.455817199898092 l1.5435257485011806,0.3131018207056684 1.8819185051492489,-0.0004805136253343092 l25.75719032401728,-2.2231471579916553 2.370229197671861,-0.11054616331458948 l1.9132723445066109,0.23215696797769303 m-40.583800050960214,-11.117480993077917 l0.7352841038887997,0.5635125543678886 0.4199917707046189,0.6889490931584314 l1.2782564632864881,16.278561055674196 2.093990770571546,5.1630994130469885 l1.8538174734218194,4.607528010710484 1.8753295753398125,3.1894382467383307 l3.9489323944317802,2.8021408837654636 5.394818398765595,1.6278085937641278 l9.3741528311737,0.2247066479405071 5.624885246087217,-0.4593970116150088 l1.795309953555569,-0.8111037483136613 0.9396634346469432,-1.3233458763446275 l0.4419387363036025,-2.2630097031173917 0.1384828019238695,-3.2101097717612173 " fill="none" stroke="black" stroke-width="1" /></svg>