<?xml version="1.0" encoding="utf-8" ?>
<svg baseProfile="full" height="101.54447302298124" version="1.1" width="108.92658190400905" xmlns="http://www.w3.org/2000/svg" xmlns:ev="http://www.w3.org/2001/xml-events" xmlns:xlink="http://www.w3.org/1999/xlink"><defs /><rect fill="white" height="101.54447302298124" width="108.92658190400905" x="0" y="0" /><path d="M25,25 m0.0,0.0 m33.06280365802967,12.207129051454878 l0.3050672919832348,0.36140923345040604 0.38002173164822034,1.4029723472480233 l-0.048335323260504555,9.696333801275243 m0.7859358930459387,-5.786142023364837 l9.688245976679802,-1.2284043681223318 3.1656066159235277,-0.021959328924289555 m-29.09527136115547,-0.03858321412319147 l0.7174466575621055,0.7233785400168686 0.3352263736576767,0.9862140918666237 l0.12348691097037283,6.841833968039471 m-9.332658132234602,0.435344621838666 l2.146365329414771,0.2463630067332509 3.049492809742934,-0.07107807785649933 l32.761320186512314,-2.5973703067475844 3.6601525033149485,-0.06348781867299762 l3.616081930840902,0.3304442078692606 m-34.19248867486516,3.170469369501825 l0.49205791861975967,0.813959171787972 0.13099054039264824,0.9001800752060568 l-0.05585711160468021,15.182012576930672 0.19367179155481118,0.6828043931252565 l0.8543958447553196,0.37754300370665944 0.713862142112118,-0.20350174108595662 l9.523571835488896,-1.2798444555635453 7.956469911929232,-3.0086985882715465 m3.950925251770772,-11.868118160874301 l0.37223543872008497,0.7894235631631659 -0.006146489770623015,1.08786455050727 l-1.087655110565218,14.690179658486095 m-25.432885090563293,-15.68300549850821 l0.6026050615274233,0.8090750090233828 0.1938324576102294,0.924965558050765 l-0.13796923284889115,18.88290579382792 0.31276916978437663,1.211950686215542 l1.3807696042051365,0.6399103257712594 31.624578071768152,-0.986027473424699 l6.215859521312108,0.2390903846638859 " fill="none" stroke="black" stroke-width="1" /></svg>