<?xml version="1.0" encoding="utf-8" ?>
<svg baseProfile="full" height="94.02071454079962" version="1.1" width="97.24498179832055" xmlns="http://www.w3.org/2000/svg" xmlns:ev="http://www.w3.org/2001/xml-events" xmlns:xlink="http://www.w3.org/1999/xlink"><defs /><rect fill="white" height="94.02071454079962" width="97.24498179832055" x="0" y="0" /><path d="M27.061398117670347,25 m0.0,0.0 m7.500943871030979,6.9545524729145445 l0.6391897490025957,0.1702313569644165 1.9325674370488477,0.1408553934611699 l3.136788205515997,-0.32532746312308763 26.090832667373796,-2.2250026361725395 l4.426716026394641,0.4335894297221011 0.8710454838672969,0.446231262792754 l0.5855002404160456,1.0656404920259104 -1.2988462949109694,5.12002759469385 l-1.8986441379287977,6.983120382483275 -2.1205597270057175,6.332931412731174 l-1.198249742974472,3.428791012357553 -1.1984134684284573,3.3038506546761623 l-1.1540667678817305,2.6979182857150694 -1.2377059381552442,2.5797343900858887 l-0.6652113172964974,2.2243208092718683 -2.0135156654563935,3.8452747446102276 l-0.6383431239733741,0.5719218875442162 -0.6376416913217886,0.2720530580450615 l-1.3182746448356633,-0.16452390388211302 -1.3287149661872417,-0.9357140005412323 l-2.695442421172816,-2.7470977449190723 m-6.48534686811525,-29.17376562935261 l-0.05710358317372681,1.986613736672198 -1.8782373807857382,4.588432996353754 l-2.403685520388938,4.4916732562257655 -3.0443667984207035,4.568156556134595 l-3.0279918206800813,3.742657299671826 -3.5181451190773028,3.7023700901755072 l-4.028727724989868,3.517693406516218 -3.39774707515977,2.527656365900467 m8.131726210780222,-22.933118527941055 l4.595824919916849,1.6068505694991748 4.521842430362853,2.1511717375855275 l3.6000056744267055,2.3777372516250646 2.1891770852856536,2.2381213491035705 " fill="none" stroke="black" stroke-width="1" /></svg>