<?xml version="1.0" encoding="utf-8" ?>
<svg baseProfile="full" height="88.71319246506295" version="1.1" width="114.10458753626702" xmlns="http://www.w3.org/2000/svg" xmlns:ev="http://www.w3.org/2001/xml-events" xmlns:xlink="http://www.w3.org/1999/xlink"><defs /><rect fill="white" height="88.71319246506295" width="114.10458753626702" x="0" y="0" /><path d="M48.9061155708031,25 m0.0,0.0 m5.852167802281953,4.231461285511658 l0.4525834945245896,0.41993221783521273 0.66757138939388,1.3576513455876267 l0.08714171980331573,1.3509809693535169 m8.503536090899917,-6.732825672146692 l8.761395199899141,0.20167753071254887 11.654486345143521,-0.6356971147609639 l4.219589923517606,-0.06715261207117793 m-35.38239898278748,0.5382555883583081 l0.7482329023665564,0.5498063549932989 0.34452646449909013,0.805631830359454 l-0.15028600127373573,6.710775380541774 m-13.65064138617754,0.7133412984389131 l4.530751584716639,0.12582734320319866 16.578393479375553,-1.2518236291552427 l21.02153632436887,-0.7752556694750704 2.8027626601923292,0.23135331318300284 l1.65383536015873,0.34724435509773427 0.7013405432559403,0.7834553063521772 l-0.8976111864051507,1.0614572435008636 -3.301379160038941,1.849267003148482 m-39.82516710279221,-3.211639790880824 l0.6108471069867362,0.5370095896511464 0.26064798877319295,0.778451554795649 l-0.04489069812161298,4.135697478059116 m-11.525184209145829,1.059564267452988 l0.7805259361319942,0.9516243655145175 0.06403365569171378,5.596261282031358 m0.2591754042911462,-5.805823589063072 l11.155055961620409,-1.188088981664996 2.7035642883596016,-0.036224157330016916 l0.5794104909372239,0.20069781989764052 0.29025803497014957,0.35228228018842234 l-0.10862032963016363,0.5346379834932646 -1.859513607329651,3.8384116841905724 m-12.56577559227032,1.1398416676004457 l13.339169209918738,-0.861907523098568 m8.881852678086155,1.3545282015911335 l-0.12048296552882402,0.5473782255636448 -0.8886043280992991,0.5178622259315718 l-4.52564091784804,1.5837507469884167 m-6.586631749940823,0.5986454097742481 l0.6719703476487284,1.1500529874816678 -0.05826292287642349,9.346473458047253 m0.6338685713623091,-10.087934939805 l-0.07751548009060659,-0.9173587980330464 0.01281268784699283,0.009572724486680194 l0.08536762277639058,0.4016399584659437 -0.08660889174710157,9.210546341606115 l0.2471043874780364,0.2697555992667113 0.5446033540782697,-0.0364855067607227 l0.9391139788805728,-0.1928273896666038 8.546274188957268,-3.1773407112608014 l0.8849736668663525,-0.3278566883998846 m-32.32138090475897,8.320392924865883 l1.6286203547415619,0.3062380955134672 2.032160658670573,-0.03793028881506657 l16.784404954434134,-1.7880476226306448 18.37160207901444,-0.8759739564058063 l3.5165838510298606,0.3043314217068353 " fill="none" stroke="black" stroke-width="1" /></svg>