<?xml version="1.0" encoding="utf-8" ?>
<svg baseProfile="full" height="98.66581299132761" version="1.1" width="111.14496233379552" xmlns="http://www.w3.org/2000/svg" xmlns:ev="http://www.w3.org/2001/xml-events" xmlns:xlink="http://www.w3.org/1999/xlink"><defs /><rect fill="white" height="98.66581299132761" width="111.14496233379552" x="0" y="0" /><path d="M25,25 m0.0,0.0 m37.86315338685143,1.6819054186486166 l0.012896030585515016,0.4512813169425639 -0.4802100071748381,0.8709658303167753 l-1.2652636574625504,1.238332222720934 -4.315108609313314,2.7703645854125747 l-5.221687389000425,2.3458504970981027 -5.605996519398203,1.7991881313944436 m15.49355865574006,-7.570198749582371 l14.088473758810864,-1.7319451102168175 1.1659779600459,0.14330769354660997 l0.5520605282984561,0.48367213430297273 -0.022799003942486802,0.5660404592006335 l-0.4497801995878259,0.49936842542800525 -6.495031931160784,6.277429719415634 m-17.80489368201256,1.5378613377227475 l0.6637321360385626,0.7922241405541187 0.3312784178306254,0.78828909166269 l1.8492698974913486,9.669001773241353 m-1.2631703416206659,-10.271351248198624 l23.93028023315189,-2.313674833580407 5.713608057593998,-0.3666529634471344 l1.539827355915598,0.26732421864783695 0.7851558847692491,0.742911315820965 l0.07963137134566994,0.5198609681631585 -3.136021725783075,8.702494077705076 m-27.856359334143626,-7.174676638319811 l0.6866560399477664,0.7520199334723552 1.1425851514680068,5.962258831592246 l0.9488852191560223,3.8581719737261793 m13.378461020969889,1.7282559016928845 l0.08406846023143233,0.8983114476782548 -1.7329178728159573,2.588397511568333 l-4.466629508417655,4.5121264715199585 -4.145827575966723,3.7032918729733213 l-3.763394317313216,2.767185682015661 -3.953875201725076,2.7012453046531695 l-5.038957403634355,2.623042291029794 -5.458171019181561,2.1248321767288516 l-6.1922330828544245,1.7274997780759673 m10.176419774015177,-19.461507695673316 l2.2582145610837654,0.6060805669116321 4.068725608111968,1.9883766044413667 l19.732880122818976,10.993035626548401 5.345026040923614,2.4937913368327367 l4.999306509954248,1.3066632071498874 " fill="none" stroke="black" stroke-width="1" /></svg>