<?xml version="1.0" encoding="utf-8" ?>
<svg baseProfile="full" height="89.93719392020492" version="1.1" width="113.63273077819267" xmlns="http://www.w3.org/2000/svg" xmlns:ev="http://www.w3.org/2001/xml-events" xmlns:xlink="http://www.w3.org/1999/xlink"><defs /><rect fill="white" height="89.93719392020492" width="113.63273077819267" x="0" y="0" /><path d="M25,25 m0.0,0.0 m35.667991930506325,1.8848606291274301 l0.009858672593607391,0.4540064931695616 -0.4374249241010894,0.915695675888177 l-1.1557554555994796,1.2612809411450538 -3.903841789272076,2.918346732497749 l-4.885281381855289,2.5753597154014556 -5.509398197377206,1.9408019701522399 m14.649126084705683,-7.656137851890617 l14.095885903741369,-1.5452841219411122 1.1345718795341952,0.12476576733321712 l0.5889853221799455,0.4741398182630778 0.03565517930368301,0.5638378894390647 l-0.40219941277319843,0.5119482701043218 -6.736710655326494,6.788170523332869 m-17.220133647541086,1.4784654535433575 l0.6935685498504779,0.8450066299647211 0.303789170398344,0.8028373956451268 l1.9445699285596656,10.449643306146857 m-1.2702254989342878,-11.139985095903421 l23.875669722285117,-2.3450642372987125 5.380439120204135,-0.34637735165371764 l1.5284281527015526,0.24259328027230845 0.8905849495813271,0.7073713665072529 l0.1509623107097225,0.5221636981029206 -0.09083290624629517,9.786434438696924 m-19.47674997787397,-7.662802982732365 l-0.2152120724093067,1.3431799553478154 -2.215431163347646,2.086771673283788 l-2.53300787164416,1.6687252516947826 -3.1737085452419036,1.4057540761830614 m14.164059491465395,-6.5390601777306285 l0.6526034783654183,2.107404676493381 0.11829961553688069,1.7951559317706225 l1.5972707827220314,0.9349669665182366 3.0317606891734608,0.05937598287710597 l3.8544555184832485,-0.23881934425097195 1.5843815341995255,-0.4804744040557886 m-31.36285575985259,9.223186621929594 l2.3243499093452877,0.17118827443280743 14.437876454031985,-1.1978424548357278 l14.569688505512065,-1.0899571334494973 2.7524771852027134,0.08296087155935152 m-18.292030327622705,-3.6753221254805593 l0.0722121915702721,0.6639166734863766 -0.3814954307563555,1.6817096550626303 l-1.3067675022106935,3.119897960998139 -1.7860626114589813,2.7978357493956194 l-2.1266755630760175,2.3713622123329148 -2.612958460612276,2.137113473562627 l-3.141946329720986,1.9139687414459445 -3.8153168909635213,1.661685738219736 l-4.638378278142217,1.3804307200998314 m20.58273562079858,-12.434887257013889 l14.848144759796568,8.643951164229176 3.681411068708617,1.8448047416741922 l3.101317750385304,1.135951682793114 " fill="none" stroke="black" stroke-width="1" /></svg>