<?xml version="1.0" encoding="utf-8" ?>
<svg baseProfile="full" height="105.44144048419865" version="1.1" width="103.68023348581607" xmlns="http://www.w3.org/2000/svg" xmlns:ev="http://www.w3.org/2001/xml-events" xmlns:xlink="http://www.w3.org/1999/xlink"><defs /><rect fill="white" height="105.44144048419865" width="103.68023348581607" x="0" y="0" /><path d="M25,25 m0.0,0.0 m12.824338062770927,20.962773071858425 l0.380146204471578,0.11359913758939592 1.9946830939424116,0.02176003430860611 l9.484516710625256,-1.7794108802037196 1.814877682104611,0.031109462566412192 m-7.552402906625761,3.2930763154428493 l0.4697014159743207,0.983027438887493 0.16038510811179632,1.0204800001906689 l-0.0470905918585328,21.99459101761527 m-6.770715565776668,-12.748074871906523 l0.9084237967519552,0.2074448438389393 1.1891900743231991,-0.02509348231366158 l8.75121269413272,-2.050522496535664 1.8336156865873543,-0.1404323075043131 m-13.121901366096237,17.592252347078183 l0.823802355523599,0.3810844294471725 0.7611718114708901,-0.23744200138363133 l10.305944930346337,-6.879436706777127 m12.258954590556952,-29.925232635415274 l-0.0995767002254852,1.2713526232555838 -0.724390497169339,1.6139457933575736 l-2.859130284268654,5.68637728319296 -3.0266231623060555,4.579623780869175 l-3.7321369591168905,4.447523743856987 m10.67017664195385,-16.54756422277416 l4.709033998185322,4.569198236020945 7.3806790494905465,6.59964299895076 l2.628233308706256,2.2890162190583276 2.265114303229819,1.4905671827227307 m-14.065168017660538,-3.679876193991024 l-0.3490965309421548,1.0809530804250855 -2.7121174563852026,2.891167109125193 l-2.568128495392107,2.7829017957643485 -3.021812526932913,2.9917866234891863 m11.977462002926593,-0.4807638941710257 l-0.17556907395335075,0.8194245516513233 -0.9588575839343889,1.2938930859694624 l-3.397368144145233,3.4466941067266585 -3.4632368961787012,2.676965595520037 l-4.855495443115195,3.096914100486195 m17.31426171275103,-2.9710784931847414 l-0.13481467404681644,0.8808168032726446 -0.25208869092278385,0.4793117985494841 l-1.7274592026348512,1.6607878787377413 -3.1248575303170347,2.506961179171262 l-3.1957369656385937,2.1875765730152024 -5.8269018646160475,3.324373562134658 l-3.679632252932717,1.6373948662125652 " fill="none" stroke="black" stroke-width="1" /></svg>