<?xml version="1.0" encoding="utf-8" ?>
<svg baseProfile="full" height="110.20585766038937" version="1.1" width="109.87620110288869" xmlns="http://www.w3.org/2000/svg" xmlns:ev="http://www.w3.org/2001/xml-events" xmlns:xlink="http://www.w3.org/1999/xlink"><defs /><rect fill="white" height="110.20585766038937" width="109.87620110288869" x="0" y="0" /><path d="M25,25 m0.0,0.0 m29.53368361385602,13.12365025307082 l0.4257277732938525,0.36130050648226053 0.5444807762297381,1.2236279229578062 l0.010546279958547644,5.113668048406344 m-21.125002860171005,1.624608725818414 l4.802101457370972,0.11653460021764761 31.94828182357413,-2.1568720751004458 l3.967971149512494,-0.08449970685812928 2.936997472910544,0.26448894816557444 m-30.19286188143721,2.2987752100776624 l0.43133497330130194,1.0341200618204958 -0.16070204016706544,2.3956991519453346 l-0.8206595480277168,5.088203998255501 -1.1063054934589598,4.420680716621866 l-1.1422266366257472,2.9761961045440897 -1.5066961686603904,2.6869672616388085 l-1.996503376973218,2.363255992981528 -1.8458314131623823,1.5519576761344869 m18.541700662030276,-20.64548436591414 l0.6689353734235681,0.8042141495788953 0.2346384839021199,1.3872473615436236 l-0.2066799589098723,15.300097911175396 -0.4288933852727501,0.8771351023177812 l-0.6190522108523614,0.21034144047087477 -0.7423645820094352,-0.6364602001435787 l-1.7899025152649743,-1.8908486343360453 m-16.369401924974543,-9.159183712323356 l-0.317527955967972,1.2599033087009626 -2.6381374251689196,3.0342270325958154 l-3.1052979582810694,2.7769632042227137 -3.6440732654654506,2.7080126995624756 m38.15996379859816,-10.28369333700103 l2.552434019735518,1.3221777453697687 3.094927476610428,2.1636304235266075 l2.3094514857992854,2.163306979244698 1.155844116830133,1.655300249973185 m-40.060059250186434,12.667115522503384 l-0.3282841178714825,1.815166988246697 -0.8435093880027766,2.5148606063263057 l-2.2634454393109587,4.509405414596966 m11.502559900902094,-11.712940461988385 l3.1842276411614665,4.472584637852136 3.2233768607348487,3.0325453352404805 l3.951223660325745,2.4028358972134907 3.834089821697869,1.510688343628828 l4.617687458416485,0.9869614299532243 4.05391381992021,0.4315441680272123 l4.654644008910136,0.125839023044316 4.072433446302089,-0.23916745542429665 l2.0923400115782287,-0.649120942403744 0.36979923691435634,-0.4543549952450224 l-0.03831285421996508,-0.573792118047363 -0.48016398348966904,-0.6535149700452852 l-2.2861218281995703,-1.6771617960801715 m-19.055915504678136,-9.653955657550503 l1.7420086849581211,2.3252957368830143 1.2857715586456793,0.8374996568903281 l1.0074358772500664,-0.06822796775029175 0.7670996493825227,-1.1556442345384468 m13.104234976419653,-3.830756949682658 l4.300686470140002,2.2642632116414942 3.5354152800969687,3.062300305045206 l2.37216496900511,2.1657869254294733 " fill="none" stroke="black" stroke-width="1" /></svg>