<?xml version="1.0" encoding="utf-8" ?>
<svg baseProfile="full" height="114.00036284853529" version="1.1" width="95.21702684303153" xmlns="http://www.w3.org/2000/svg" xmlns:ev="http://www.w3.org/2001/xml-events" xmlns:xlink="http://www.w3.org/1999/xlink"><defs /><rect fill="white" height="114.00036284853529" width="95.21702684303153" x="0" y="0" /><path d="M25,25 m0.0,0.0 m29.006467181614727,11.726770589188309 l0.051299193321538226,0.30867311952940374 -0.3550689733853345,0.7142200263218613 l-1.1082901076964848,1.10405016963443 -3.7754704410258126,2.3566958749643807 m-6.297366661498008,0.28314325945634633 l0.6392413925939883,1.155044692647338 -0.04164292033360294,13.01699803541124 m0.2646230051387227,-13.796611525947446 l19.31551927097822,-1.2782295571115172 1.5026761513863747,0.03881250857843682 l0.6452954443520335,0.17956068874498002 0.7721822439509485,0.47674692017516374 l0.22346831903982112,0.7076292690009356 -1.954482286396031,12.910251498569956 m-14.746258146382859,-8.139827050717967 l10.341179931894247,-0.6458981915273433 m-10.777668987624955,5.104106497476184 l10.63688750348632,-0.6106779793456971 m-10.928059405175134,5.121272974197344 l16.6659677756323,-0.5224347026736466 m-28.110628014345597,6.956005990403538 l2.0513677707038878,1.0515589307222943 1.9634197225017493,2.0148826841331906 l1.6180126859446482,1.8086022156571853 1.053525724920164,1.5677194933932128 m15.748896530417188,-8.280886513168692 l-0.043674428161268056,0.9588536759791935 -1.0418460786784471,1.9491613921212187 l-1.732159226633297,2.1142286633517307 -1.9540899178795224,1.8850990236740268 m-18.14298254966456,2.444236646935319 l1.6210998029063017,0.7045450846880178 1.8225585548525305,1.2052333778438211 l1.4366806256412614,1.178452815188936 0.7501199106772178,0.9841922478516646 m17.728146570311022,-6.357159185643707 l0.017623072312181205,0.7670527278934992 -1.053883935946047,1.5856607517846106 l-1.854301499477274,1.853329810709449 -2.1815178072892447,1.723843645512913 m-27.951392645327815,3.0492844878997682 l1.969709918023778,0.2721003176213203 2.5443598113802772,0.04547579018010069 l31.40552427041141,-1.8637064691795013 4.501572002367132,-0.11211059204986937 l2.9703864891928276,0.2463590764492746 m-13.79996145354744,-4.836651379405314 l0.6692889442887743,2.1921123539088248 -0.2817764282968204,15.599728957558364 l-0.40176335654364964,0.8295179332222319 -0.5467009655677555,0.2533417767260007 l-1.3492857323374545,-0.5463587018021618 -1.8317402660785713,-1.2847493141662183 m-12.289726709090633,-7.186019932253603 l2.518907270965377,1.968264398068963 1.5433912437230313,1.7393837113842496 " fill="none" stroke="black" stroke-width="1" /></svg>