<?xml version="1.0" encoding="utf-8" ?>
<svg baseProfile="full" height="94.34373606670869" version="1.1" width="103.80784629524632" xmlns="http://www.w3.org/2000/svg" xmlns:ev="http://www.w3.org/2001/xml-events" xmlns:xlink="http://www.w3.org/1999/xlink"><defs /><rect fill="white" height="94.34373606670869" width="103.80784629524632" x="0" y="0" /><path d="M25,25 m0.0,0.0 m13.871801251315357,4.263756192102308 l0.4928846024268422,0.16811955388980476 3.5334208194436822,0.09483311791812184 l23.42512273736307,-2.868148228210004 2.518574339183721,-0.21897667900813467 l2.074143820987857,0.29620804000023887 m-33.403879747143876,20.65012988804085 l1.6696771387541856,0.42583371929389835 1.8701914580813432,0.009560563498236833 l23.18961330952033,-2.7814691914577 3.5692307497742504,-0.18864292997012427 l2.2481998949513673,0.23863962914279704 m-40.38877800438584,22.724084222448138 l2.4402636791591106,0.2978186857311736 2.8216187944342845,-0.003274624013264861 l34.01980146441822,-2.88861790264455 6.295405075677873,-0.1676522057115833 l3.5605549112845445,0.5096214318174409 m-26.560919740010622,-36.38073146475888 l0.8917111133169222,1.568187729358898 0.2796140754111182,1.3092827540185488 l0.0841212992206392,37.28517376522248 m12.587816922981427,-12.708405080312254 l2.3502987724841815,1.4846761011383842 2.079982384596235,1.8775030670342718 l1.5505805028115538,1.9475516649870268 1.1016660215625624,2.131096004148048 " fill="none" stroke="black" stroke-width="1" /></svg>