<?xml version="1.0" encoding="utf-8" ?>
<svg baseProfile="full" height="121.01522255916431" version="1.1" width="98.46462415796313" xmlns="http://www.w3.org/2000/svg" xmlns:ev="http://www.w3.org/2001/xml-events" xmlns:xlink="http://www.w3.org/1999/xlink"><defs /><rect fill="white" height="121.01522255916431" width="98.46462415796313" x="0" y="0" /><path d="M25,25 m0.0,0.0 m37.977893662460055,7.821915838514261 l0.015595832898010323,0.36827313120247984 -0.4994790218212329,0.7683155253294591 l-1.3714167756262978,1.0749071881212737 -4.804235085809698,2.3094190992009636 l-6.04694348252942,1.9263193615685887 -6.501247392786886,1.455052738485282 m-2.895984077496314,5.2345909000890805 l1.2190648638883428,0.2587101753722748 0.9753254585026779,0.026212447416799626 l22.889001212032085,-2.9326467974973482 3.646518260793856,-0.2920852221640035 l1.9173176006690384,0.30134660413745434 m-29.81353448535068,9.275059071572436 l1.5725430386440713,0.25973994213828067 7.231138666464051,-1.3593900569640167 l17.941582586633604,-1.6171441909511948 2.0253443274659433,0.1916100050721345 m-36.03355223876364,8.965782321724912 l2.77622249374909,0.32492940349262733 31.65191105605678,-1.8344922270606536 l2.47458780996372,-0.1073504629891171 2.116969847925968,0.2901088802310444 m-21.57656033290391,-9.444069554450936 l0.6613610329817107,1.1168683056651434 0.14833327055209403,0.9090454402078583 l-0.06418016152773963,12.987484631569918 m-10.104588762530886,3.663090630551345 l0.5643753751265459,1.1490000831999063 0.08157729757520618,0.5831913542603264 l-0.073426507351704,9.835440938974637 m0.1699949641684576,-10.910934197976564 l16.758598142427903,-1.6598144453032642 0.70763318176366,-0.012748903083253061 l1.075694537502841,0.3032810013000062 0.3084779459088922,0.2713939981080598 l0.20618117573001793,0.8149077164137675 -0.9287465339838252,10.352180485591608 l-0.3576305948803589,1.0233702508599885 -0.4828040442635544,0.21905315767318984 l-0.5235466098525062,-0.2529735886135294 -1.4156116995129335,-1.6183545181898489 m-7.477893789072546,-16.839862147148736 l0.5583230759758298,0.9950169528358822 0.16669526402114485,0.8303876940191349 l-0.10381159095040578,22.287851490260028 m-21.878550222404062,5.268812853878668 l-0.36299406662110734,0.3898971568175864 -0.6665973926318881,1.9812608291241045 l-1.8472365619548685,2.427138871300464 -1.7261693195166343,1.6361223952757882 m12.97166810634906,-8.867313028012761 l0.9697804595916176,1.0678283915566327 1.05534056490497,1.8707532459584926 l0.960872431406521,2.181435488155179 0.6706062570170598,2.0936886713883402 m7.427200907539365,-8.086326093358641 l1.263447240484516,1.4121438264929902 1.3501875629070852,2.120065584486049 l1.0488166046885317,2.08744018242267 0.4723086129015751,1.6157689747480013 m6.076574033810895,-7.7208921014562835 l1.581584422051326,1.5075150509237052 1.8161865673458621,2.3399635091086015 l1.4518901062188951,2.3625355000251576 0.7844586870307715,1.962503010907813 " fill="none" stroke="black" stroke-width="1" /></svg>