<?xml version="1.0" encoding="utf-8" ?>
<svg baseProfile="full" height="109.40605735522695" version="1.1" width="109.4925132393837" xmlns="http://www.w3.org/2000/svg" xmlns:ev="http://www.w3.org/2001/xml-events" xmlns:xlink="http://www.w3.org/1999/xlink"><defs /><rect fill="white" height="109.40605735522695" width="109.4925132393837" x="0" y="0" /><path d="M25.00000071246177,25 m0.0,0.0 m0.7143991440534592,15.822725296020508 l0.559384860098362,0.19406165927648544 3.8833212852478027,0.06824791431427002 l15.784261226654053,-2.3203855752944946 2.5842398405075073,0.01205270760692656 m-11.773885488510132,3.3723214268684387 l0.6732111424207687,1.0752581804990768 0.2749931998550892,1.3794910907745361 l-0.05720140878111124,19.560717344284058 m-12.642724514007568,4.511280953884125 l1.7206218838691711,0.5827071145176888 1.7871075868606567,-0.4613097757101059 l20.111401081085205,-8.469268083572388 m2.431078851222992,-27.2904634475708 l4.310083091259003,0.1403805986046791 24.18478012084961,-2.3930934071540833 l4.9474406242370605,0.23523585870862007 m-18.10081720352173,3.0158746242523193 l0.17556378617882729,1.2458235770463943 -0.46061359345912933,1.4703433215618134 l-7.145472168922424,12.940691709518433 0.007527503184974194,0.7866893708705902 l0.4257172718644142,0.5900170281529427 0.8458650857210159,0.3094543516635895 l1.2684495747089386,-0.055042146705091 11.189438104629517,-2.3725993931293488 l4.802286326885223,-0.6994051486253738 1.4731280505657196,0.3048856556415558 l0.3933446854352951,0.4782792925834656 0.16862913966178894,1.7919808626174927 l-1.422741711139679,6.823312044143677 -2.6378458738327026,8.751049041748047 l-2.984546422958374,7.764554023742676 -2.8648024797439575,5.769287347793579 l-2.4481356143951416,3.4753569960594177 -1.6826798021793365,0.9955449402332306 l-0.7296022027730942,-0.024475264362990856 -1.2569625675678253,-0.76406329870224 l-1.8139107525348663,-2.542816698551178 " fill="none" stroke="black" stroke-width="1" /></svg>