<?xml version="1.0" encoding="utf-8" ?>
<svg baseProfile="full" height="106.06916807756248" version="1.1" width="101.39905915379612" xmlns="http://www.w3.org/2000/svg" xmlns:ev="http://www.w3.org/2001/xml-events" xmlns:xlink="http://www.w3.org/1999/xlink"><defs /><rect fill="white" height="106.06916807756248" width="101.39905915379612" x="0" y="0" /><path d="M25,25 m0.0,0.0 m29.586517528136113,3.626021295977657 l0.3471145407622714,0.4008557402944808 0.4250595665687325,1.1893846961734094 l-0.02530189149803112,5.603142199617062 m-18.456856354186577,1.7633638190774643 l1.7566788466687824,0.3254438715911967 1.832194649446447,0.011613756704446327 l16.807218099512905,-2.7817936962793204 10.664177313450471,-1.358924937549723 l3.057789978124069,-0.18877830317007505 2.475444514183348,0.3078113815766082 m-33.172449563128076,3.8246070078355103 l0.5035105067026444,0.9276698618205367 0.15833894224974393,1.1933089163093038 l-0.3384979540042356,6.472255805442148 -0.8405039122675636,7.965594137791527 l-1.2349518398864172,6.498922364297369 -1.4182810167569837,4.88445187244241 l-1.409643661008307,3.5395387307195345 -2.3783927556560585,4.390351429623934 l-2.1704981950877484,3.0591475472228438 m29.917526347690487,-31.10810917393503 l-0.4990741524542336,1.489961645856205 -0.5719888526549758,2.908850655374419 l-1.1714446615052223,7.502420624445659 -1.305178105141156,6.5897193824002365 l-2.956930742407019,6.046166265446027 -4.586553532579745,2.439238103345968 l-3.620325292169465,1.0496310040151848 m-0.4141533243301454,-19.369279998252516 l1.950476532668869,0.20028731595299895 2.3897054644584554,-0.050409077416150444 l22.831765825812464,-3.9063837992959907 1.435916870016677,-0.2376656203365871 l1.830649434065585,0.25701791907798827 m-25.288865286536836,15.208086012833064 l0.6401343659573646,1.0157677787675023 0.2907456571758912,1.0159485874538725 l1.8126983044480143,13.363932954311315 m-1.5530184448278588,-14.278611882266205 l18.416980530253205,-2.8616143101047484 1.7316726106380635,-0.06749174254594925 l1.1194251100728885,0.540778012379942 0.4617293510616137,1.182996662256871 l-0.10402116377490427,0.9247104661423337 -2.676030468053291,10.552425550216938 m-16.800479889237074,2.483484326769617 l18.335363608734507,-2.0273021139134775 " fill="none" stroke="black" stroke-width="1" /></svg>