<?xml version="1.0" encoding="utf-8" ?>
<svg baseProfile="full" height="108.10681020368907" version="1.1" width="105.85534446060515" xmlns="http://www.w3.org/2000/svg" xmlns:ev="http://www.w3.org/2001/xml-events" xmlns:xlink="http://www.w3.org/1999/xlink"><defs /><rect fill="white" height="108.10681020368907" width="105.85534446060515" x="0" y="0" /><path d="M25,25 m0.0,0.0 m31.66753764441178,1.834278241196991 l0.36874745496662475,0.42070742915237175 0.5734379381253013,1.715844664075368 l-0.027985286910432696,5.588203199840122 m-19.213529609877718,1.8003481991016639 l3.881765653807479,0.26519276387517043 30.266054796926237,-2.4479082590461276 l4.502541230923384,0.26199246334550846 m-36.810324985443934,2.578266716990337 l0.6178275773552546,1.5812878977991267 -0.20900307732881046,8.700115964907027 l-0.6031714973707267,7.946857134524233 -1.0241506035619183,6.735677724893297 l-1.2851239805461914,5.345167554270938 -1.314868171887314,4.06253218947016 l-2.2147466530919107,5.065793783660248 -2.1368902974541646,3.732132904090492 m13.23214646755215,-33.524341652155094 l1.3288977637096937,0.3116103711223057 2.009153382182882,0.015407352526603255 l21.441896068698497,-2.1097860151643686 2.2569329614102687,0.34807646238648604 l0.5806725912970969,0.9822032380348474 -1.6984425624531476,6.940997684455019 m-19.177327348713867,-12.44756049113856 l0.6126464228631736,0.7950799989957483 0.1996707408917485,0.9689883456389975 l0.6357718670899638,12.654701747812194 m10.358106933765088,-16.891881922921264 l0.4028106121349846,0.7749236854241254 0.04391420446321787,1.0309573316494691 l-1.3100058125784357,14.362482938058971 m-18.889886022018434,2.253851717883423 l2.189806338055418,0.25122312029624555 20.821183109653994,-1.9119593855839891 l6.812756280770354,-0.1787408131087408 m-25.625489037650894,12.327839048986137 l7.75139721676331,-0.9844463946912554 3.176486816871318,-0.07202943386612996 m-11.51261885644503,-5.3396267590630915 l0.517588282955917,0.9557505563063107 0.15902674197903977,1.1981854434496864 l-0.018030081963141847,16.590879803348905 0.16843583425676276,1.5017095515900774 l0.28726524111915197,0.3869068710927005 0.4901795133392393,-0.02448163647393085 l3.26324411264876,-0.44230647592853817 6.467766373172275,-3.791584569403165 m19.45104926850883,-13.905173275508428 l-0.33253387495792824,1.1322097149317487 -0.3489278823357323,0.4693287026784505 l-1.518902022190055,1.1706011514885044 -4.1370312679757335,2.7565793961080454 l-4.220100200881755,2.297094107500661 m-2.7396708995051013,-10.421357734764497 l0.4564950053020831,0.8463903917098564 0.11228022174753322,1.05846832174323 l-0.018403126841026345,16.39123237255407 0.35629726004728535,1.765249201810666 l0.8892347880101955,1.1989748724049454 1.538465618998043,0.7655767162225336 l2.235393455897339,0.40231870688902593 5.234558375966395,0.059797266213204386 l3.0624137888612983,-0.39322064203398566 1.0170902729928144,-0.7418814458671911 l0.46141703346207436,-0.8788042189928366 0.24002364522097822,-1.1548793782448448 l0.1021207114133195,-2.3890643238444063 " fill="none" stroke="black" stroke-width="1" /></svg>