<?xml version="1.0" encoding="utf-8" ?>
<svg baseProfile="full" height="96.96975140139571" version="1.1" width="105.13771318484328" xmlns="http://www.w3.org/2000/svg" xmlns:ev="http://www.w3.org/2001/xml-events" xmlns:xlink="http://www.w3.org/1999/xlink"><defs /><rect fill="white" height="96.96975140139571" width="105.13771318484328" x="0" y="0" /><path d="M25,26.228873613496198 m0.0,0.0 m13.139784608928133,2.8270244814379475 l0.4465963949131172,0.4427963700920934 0.5124779821707879,1.074480651142271 l0.24251990324384234,1.5638295095128798 -0.07958041555343924,27.99095683596214 m-12.637069696436242,-29.223918479500757 l1.6574411954096075,1.6229037689636627 1.9227529365318135,2.353628648168974 l1.5359945972068048,2.522508887836199 0.634218759414894,1.5785258734484298 m-6.933750909136618,15.32467452191927 l1.061622351559589,0.27066814317613913 0.9233172851053886,-0.31736664163370076 l4.2555002635442,-2.9980378894833173 2.8537390540258287,-2.521317295669465 m30.70441368149533,-23.740230998868963 l-0.16453000904605042,0.5700131479395202 -0.8078729375041362,0.5940333032204145 l-4.921796145306635,1.8621288425659688 -6.625269321329621,1.81602632339956 l-7.352905353719523,1.4010247336486075 m-0.0343517363521398,2.5739112086207325 l2.3402270235077447,1.675443026922059 1.4415276723302675,1.626678595594333 l0.9579330860982349,1.4068696597228392 0.5167072662719575,1.622246791846596 m6.7928281064031575,-9.564784106656445 l2.3043831864747264,2.275466910875895 1.7624359924057342,2.720062797868404 m12.94731095648213,-7.600201521517561 l-0.23059225314195483,1.164436531895993 -1.5675670344120853,1.9092384755221232 l-2.3506812710336757,2.088797622198726 -2.8457605609061734,1.970230744898535 m-23.05810032379606,7.9931048787446475 l2.053150034547482,0.2189545295996804 2.442508444838065,-0.09099482342959479 l20.837425204919935,-2.7269261638114615 4.011462632408517,-0.2690179491200274 m-9.482986721963668,10.443984133767087 l0.49520679691902275,1.4063348088312717 -0.18759174927793307,4.359866134333918 l-1.0109083463561106,15.101390141045432 -1.0140367872508653,0.42143262286846467 l-1.598300088641732,-0.2537854307042634 -2.843852158456717,-1.7607230813998849 m-8.496404656278168,-18.431147287232655 l0.060102929257304795,1.0137183197112825 -0.3457143276724559,0.9736657634588703 l-2.1609159562420044,3.4735300777939737 -3.114922410883166,3.6269461252926476 l-3.510208027133295,3.2624304827487127 m30.884028747137318,-11.715725383420011 l2.4592468520653035,2.199395577585467 2.909783496941807,3.4902354672404723 l2.1703643009424654,3.2222375295453745 1.2363706391732583,2.8025074294771506 " fill="none" stroke="black" stroke-width="1" /></svg>