<?xml version="1.0" encoding="utf-8" ?>
<svg baseProfile="full" height="99.13707840825457" version="1.1" width="102.44517174686783" xmlns="http://www.w3.org/2000/svg" xmlns:ev="http://www.w3.org/2001/xml-events" xmlns:xlink="http://www.w3.org/1999/xlink"><defs /><rect fill="white" height="99.13707840825457" width="102.44517174686783" x="0" y="0" /><path d="M25,25 m0.0,0.0 m32.37058690595063,2.2649066782072285 l0.36833270986784405,0.38743617290797605 0.5286183754490958,1.453806220300648 l-0.04124801503602761,4.2664678047109215 m-19.557947155176528,1.9382869574439134 l2.087816666133395,0.24029985786504593 2.296866682172726,-0.05414511744638699 l31.438923328953763,-2.631201189850012 2.6730226355227176,0.2390298396768544 m-36.24783162100533,2.7870541340307673 l0.5403966095703163,1.4107037786982226 -0.30419727429919424,6.546162364032641 l-0.6464366959307217,6.4277463085224555 -1.0713618594677563,5.8228686586696 l-1.275549327206299,4.446321124233674 -1.2941133995045295,3.2276900455760558 l-2.1679009339490687,4.043565963123607 -2.0111662641285553,2.8296658086836137 m11.69924907666732,-25.36450876086011 l2.9271834090687885,0.20187613322801704 24.389094807703188,-2.544940184460186 l3.679875451909175,-0.22787142024901885 2.06295763360288,0.20308936745717604 m-25.973678442348994,-3.9288376065718915 l0.6675263976179006,1.0902232725960348 0.18116297717895263,10.83846434466705 l-0.5441220200140321,6.62839464891833 -0.9934642417031045,4.75931501209651 l-1.483873305420565,3.9581920498714207 -1.6285505602799295,2.7585235600371205 l-2.636942803233361,3.0249176122285415 -2.657576280344805,2.0935749699087474 m21.161951338825975,-30.69031067676076 l0.3750707972593043,0.8964826916440486 0.08388399063379906,1.1708780530142273 l0.020552673132475687,25.258327281132907 m11.304532162807583,-22.61888977835555 l0.4538244044504225,0.9925619315714275 0.09759790606217959,1.0588207710149118 l-0.060273598548496884,21.608911132746144 m-29.247034342909902,-22.78740730746357 l16.658095810840006,-0.7271223577796863 10.879494564073237,-0.5654410380459665 m-27.531958737774502,8.967999513566477 l0.6819013568893646,1.0486817852710726 0.21822076177021102,11.237362351443842 m-0.05083114417468884,-11.552581041498021 l19.646351207156574,-1.9450329864925708 1.5960214753944804,0.07113020551463442 l0.9242759347663615,1.5146468959046646 -1.888779120052682,9.120645757332108 m-19.08191388341178,2.0510351423741167 l20.037764263479655,-1.4800167956679937 " fill="none" stroke="black" stroke-width="1" /></svg>