<?xml version="1.0" encoding="utf-8" ?>
<svg baseProfile="full" height="108.54089821748754" version="1.1" width="113.30677174363679" xmlns="http://www.w3.org/2000/svg" xmlns:ev="http://www.w3.org/2001/xml-events" xmlns:xlink="http://www.w3.org/1999/xlink"><defs /><rect fill="white" height="108.54089821748754" width="113.30677174363679" x="0" y="0" /><path d="M25,25 m0.0,0.0 m29.872250211987527,0.1124521691678175 l0.35522526366246215,0.4262149760928559 0.4994505558249611,1.5103470140603386 l-0.010483567162125054,4.496429802018682 m-19.76923699718989,2.0775130919151255 l2.0225147566258075,0.2301065622806583 2.0162757541786314,-0.048634751990811825 l33.086605201323835,-2.908025454804615 2.641718350933873,0.30616981833776025 m-37.36413537819581,3.0293914735759984 l0.5475745525823317,1.5004954123317533 -0.28452576685007697,7.175557522345153 l-0.6434360116070938,6.612749600470422 -1.0733063040508735,6.083055515366431 l-1.3182418132757159,4.8193262735633855 -1.3108075344101304,8.211839696993188 l-1.6538847896756006,7.180965699180149 -1.3696683672136418,4.370916989209463 m11.976328909950853,-38.01594357042144 l1.1083373575600874,0.289638288769815 1.5230028503070199,-0.09782855520406825 l8.698341161855714,-1.873733264065585 1.1343089886899715,0.19631039030802866 l0.36785004675118255,0.5368817355448487 -0.28262864743891614,1.5666060017882049 l-1.57182829064624,11.530384174842684 m-5.48331692581984,-5.737844802925332 l6.924529973619394,1.6520011293236398 2.161759748796135,1.3002357810577327 m-10.304702255709747,3.882693920252218 l0.550367913758472,0.25647170385580337 0.768220990665487,0.16339301234647804 l8.85393865552515,-1.872717991523022 1.147650619296447,0.03554731394914917 l0.4552678974144609,0.378548507099158 0.22576497410038587,1.4444707333893194 l-1.3910884467892966,7.872141562793504 m-9.452082013555904,1.4615320896424333 l10.889254197248125,-1.3006214263392772 m-11.601061160533574,-8.816605033769976 l0.40463001053061176,0.7421830466765479 0.12281936461203091,1.0530371438093848 l0.009071939842576574,24.61734403972425 0.29164600190016876,1.4755916160735845 l0.4653883304776156,0.46893086956738395 0.8668986234199549,0.14537839080830495 l8.35112440075633,-0.14832706897807676 1.1315253049401217,-0.3056014416964365 l1.325441640835402,-0.4883736596741218 1.7035941339173888,-1.7558910467608597 l0.3662191614690233,-1.8113896302003343 m8.14833268793981,-37.57384200399186 l0.3992597895932645,2.2894733197246104 -1.4618762808270747,6.479055712603863 l-2.0417892901844,5.386920169611414 -2.8974806833766955,5.512642856761863 m5.9347042412587765,-8.60310497316328 l3.0869688392780574,-0.08221100648956566 8.276816764644405,-2.2281310510482344 l1.336303023455564,-0.05712099634730175 m-4.67284698995999,3.7535840826596427 l0.172983021076916,1.6230862152071608 -0.9788612424792268,4.398387748769721 l-1.7174317678692403,4.887800312036991 -2.0365178441088494,4.393959527631143 l-4.420629609557421,6.626237083678479 -2.74171791759785,2.8701544996181463 l-3.221782773054722,2.644189212552263 m4.84753166285721,-21.71898292336347 l2.1946534352345854,2.1535635141296114 10.183543246814816,12.154020073062572 l3.976495204085165,4.205269026018859 2.9596506511786336,2.241460208392147 " fill="none" stroke="black" stroke-width="1" /></svg>