<?xml version="1.0" encoding="utf-8" ?>
<svg baseProfile="full" height="109.49251281097531" version="1.1" width="107.82581154257059" xmlns="http://www.w3.org/2000/svg" xmlns:ev="http://www.w3.org/2001/xml-events" xmlns:xlink="http://www.w3.org/1999/xlink"><defs /><rect fill="white" height="109.49251281097531" width="107.82581154257059" x="0" y="0" /><path d="M25,25.000000721774995 m0.0,0.0 m10.480180978775024,2.85157710313797 l0.5674837157130241,0.09589344263076782 4.2121195793151855,-0.0947054848074913 l26.033358573913574,-2.782750725746155 2.5795337557792664,-0.07001505699008703 l2.554190456867218,0.375761054456234 m-37.612149715423584,10.898975133895874 l2.3665133118629456,2.3624035716056824 2.636384665966034,3.6590200662612915 l1.7272807657718658,3.315858542919159 1.0266591608524323,3.1754428148269653 m30.137939453125,-16.537508964538574 l-0.22445060312747955,2.195274978876114 -2.141163647174835,4.137459695339203 l-3.3206531405448914,4.864537715911865 -3.5788804292678833,4.11417156457901 m-36.95459604263306,10.2140212059021 l2.728511095046997,0.4372141882777214 2.765498459339142,0.05924845114350319 l34.301769733428955,-2.931428551673889 12.763760089874268,-0.6538734585046768 l4.776521325111389,0.28342612087726593 m-30.379042625427246,-26.762490272521973 l0.9327350556850433,1.549021601676941 0.32263435423374176,1.8384143710136414 l-0.12625077739357948,52.897562980651855 " fill="none" stroke="black" stroke-width="1" /></svg>