<?xml version="1.0" encoding="utf-8" ?>
<svg baseProfile="full" height="109.49251163674347" version="1.1" width="108.35858071688563" xmlns="http://www.w3.org/2000/svg" xmlns:ev="http://www.w3.org/2001/xml-events" xmlns:xlink="http://www.w3.org/1999/xlink"><defs /><rect fill="white" height="109.49251163674347" width="108.35858071688563" x="0" y="0" /><path d="M25,25 m0.0,0.0 m48.94179344177246,7.023831471997255e-07 l0.09327299892902374,0.4618547111749649 -0.21144285798072815,0.4838649556040764 l-2.8295817971229553,1.9618000090122223 -5.453493595123291,2.809375524520874 l-6.386224031448364,2.3518508672714233 -7.034624814987183,1.9369032979011536 m14.005744457244873,13.128219842910767 l9.258383512496948,-1.394900381565094 3.977723717689514,-0.21599827334284782 m-14.583061933517456,-12.285336256027222 l0.8544311672449112,1.1113379150629044 0.21540628746151924,1.0557709634304047 l-0.13879884034395218,28.655197620391846 m-12.73564338684082,-19.23624873161316 l0.5051536113023758,0.45066919177770615 0.5589163303375244,1.4226387441158295 l0.23645248264074326,18.03560733795166 m-6.177306771278381,0.43587539345026016 l2.792777717113495,0.3990713506937027 25.39226770401001,-1.557305008172989 l5.554524660110474,0.38225919008255005 m-55.93060493469238,-30.87498664855957 l1.7092232406139374,0.5394318699836731 1.3274714350700378,0.0489931320771575 l11.744098663330078,-3.29319566488266 1.4923679828643799,-0.14054094441235065 l0.7007201761007309,0.3795868530869484 0.06625630427151918,0.672215148806572 l-0.41170015931129456,0.7364417612552643 -10.530017614364624,16.856433153152466 m-0.08127560839056969,0.4286589100956917 l7.93415904045105,-3.3341941237449646 2.493293732404709,-0.23710647597908974 l1.0186061263084412,0.7281428575515747 0.19845319911837578,0.8161839097738266 l-0.47403253614902496,3.52669358253479 -1.41172394156456,6.026481986045837 l-1.582934856414795,4.899268448352814 -2.019171118736267,4.788856208324432 l-1.8196353316307068,3.4191682934761047 -2.0953048765659332,3.1932923197746277 l-2.3843249678611755,2.895973324775696 -2.687416970729828,2.5300979614257812 l-3.001334071159363,2.093140035867691 m-0.36948375403881073,-22.16902732849121 l1.9058723747730255,0.4793546721339226 2.93061226606369,1.403244435787201 l19.327176809310913,11.003327369689941 12.380592823028564,6.04380190372467 l10.671731233596802,3.81138414144516 4.363083839416504,1.0048046708106995 l6.057152152061462,0.8240769058465958 " fill="none" stroke="black" stroke-width="1" /></svg>