<?xml version="1.0" encoding="utf-8" ?>
<svg baseProfile="full" height="103.08054159338957" version="1.1" width="101.37086950501546" xmlns="http://www.w3.org/2000/svg" xmlns:ev="http://www.w3.org/2001/xml-events" xmlns:xlink="http://www.w3.org/1999/xlink"><defs /><rect fill="white" height="103.08054159338957" width="101.37086950501546" x="0" y="0" /><path d="M25,25 m0.0,0.0 m24.806312849274736,8.463114073578852 l0.013412567078668919,0.3858724826079663 -0.389562310655463,1.3228773505945046 l-2.7158616168040637,5.307853317908191 -2.304255942586439,2.9741319407211217 l-3.124172237530242,3.396689419981694 m6.925968889953974,-5.896897222026954 l2.34588398104523,-0.0335515280889687 15.023054466483888,-2.0383154288733305 l1.6825984393021547,-0.015584197332192384 1.1334977788349923,0.1871465115399915 m-28.13545403501879,14.934079963859547 l1.5083567302636738,0.319521354156259 1.9022047978370098,0.005081961442210659 l21.820397822522132,-2.722091855277681 5.660539132413836,-0.544472696736592 l2.534722888831671,0.1886354839565802 m-17.87663912761668,-20.15173074531154 l0.7534946664095796,1.1825971847976107 0.2234984823616357,1.3130750392535313 l-0.06658323206986794,41.84079215210346 m-1.347805689984686,-13.194106562854518 l-0.4265669149213973,1.2102619950418763 -1.144426494232588,1.3793267844587112 l-4.975666711493925,5.2802479234725626 -5.340111451964655,4.528520681345726 l-4.8184553520657,3.267550197311991 m19.418315384533543,-16.186437789233874 l5.736624780575603,6.103593696743502 5.499515385366109,5.124325467481168 l3.7134513891722234,3.1578678114074936 3.3345801896993126,1.9905668253606563 " fill="none" stroke="black" stroke-width="1" /></svg>