<?xml version="1.0" encoding="utf-8" ?>
<svg baseProfile="full" height="102.18733247982513" version="1.1" width="106.51400189684225" xmlns="http://www.w3.org/2000/svg" xmlns:ev="http://www.w3.org/2001/xml-events" xmlns:xlink="http://www.w3.org/1999/xlink"><defs /><rect fill="white" height="102.18733247982513" width="106.51400189684225" x="0" y="0" /><path d="M25,25 m0.0,0.0 m19.42065841594167,7.833516546328725 l0.1263183173715184,0.37292000057002467 0.3001208692839351,1.9388487967500307 l-1.3739615566587051,9.956027165054499 -1.6666513366186197,9.252852369196788 l-1.8593121901626508,7.337005259496903 0.5613199090332759,1.1738239246752107 l3.0195120015282586,1.7278418505137942 2.7886059956794305,2.059562636786234 l2.4220453280343714,2.5845785870605487 2.0489596429560786,2.674452084564548 m-0.14804703742013947,-26.951435558146354 l-0.08443904660295053,3.6576697850334714 -0.8070849204800552,4.648927496399488 l-1.2824154949782498,5.026863966281671 -1.8069572744651134,5.0748709199558135 l-1.8992227825722237,3.890756356911418 -2.3499658123243212,3.619773108040406 l-2.8387786241130346,3.2199144508788535 -2.451565153156225,2.042919440078875 m-2.3120527004917633,-24.39010045144509 l0.6801389214458062,0.808396936448026 1.255014253777286,0.15304474429232057 l15.550958600419229,-4.575532723329947 m3.528548647649834,-13.806606955457976 l0.4890194689827274,0.8830477050602776 0.20690916264519915,0.9391826384426994 l1.464532696279967,39.62936999563695 m-0.6535081664808964,-39.5649266283608 l18.590118744567295,-2.3723646849096114 1.2131860733808686,0.18489956494548973 l0.8289726518425978,0.8144354841467786 0.2980600393667881,1.1135520800034586 l0.10900670187613408,1.4360375466812147 -0.14606974269136813,39.37118393146901 m-18.572033604960442,-28.413864829342696 l18.397968936114797,-1.8346143593357607 m-18.0065874089407,14.65320884079964 l17.231793769948734,-1.4360663697193812 m-17.510689291097076,17.45336082736957 l17.533814229482196,-1.012298670426957 4.217760663448778,-0.05718181413433167 " fill="none" stroke="black" stroke-width="1" /></svg>