<?xml version="1.0" encoding="utf-8" ?>
<svg baseProfile="full" height="103.92964489387704" version="1.1" width="100.8024604861222" xmlns="http://www.w3.org/2000/svg" xmlns:ev="http://www.w3.org/2001/xml-events" xmlns:xlink="http://www.w3.org/1999/xlink"><defs /><rect fill="white" height="103.92964489387704" width="100.8024604861222" x="0" y="0" /><path d="M25,25 m0.0,0.0 m42.78798937703538,2.4203208037367623 l-0.05358443153241931,0.49913336252867263 -0.6002187060417133,0.9537560403357307 l-2.028449870938842,2.41027979265625 -4.816583736424467,3.184866621090249 l-5.851742414035992,2.543268631534139 m-2.1457358832648876,8.85979804094855 l2.7517966409691397,0.18166751910884424 16.43183800491383,-2.3689590411914385 l2.5902983165425235,-0.18819340696670622 1.7368531888996577,0.2038040878212923 m-11.779966516028,-8.982225778730966 l0.6417249714910108,1.1711022765914272 0.1720896666218904,1.0167346275453395 l-0.032090020448109574,19.857313886949353 m-9.060044764318647,1.1537082612490157 l0.480928061066858,0.2207420594960842 0.7216908490520322,0.17701816348988209 l14.81127716614886,-1.9637522070874776 1.1807790041471573,0.577807171047644 l0.20921785056375017,0.5612937327965328 -0.03800403886813284,0.6465071860964003 l-1.5205143193110082,10.176787184251356 m-16.31494479291606,2.4931289080312187 l15.527914493615073,0.176954076497053 4.3791307150828755,0.1648922636983612 m-33.850413505248525,-7.422125946677967 l0.5827956639975033,1.598887084165241 -0.1084634405226279,11.037953502106658 l-0.3498771807245469,1.3541285387033337 0.5779564033902018,1.2130474520561925 l23.841887595906964,-1.9426417967239922 4.368272572173563,0.22595138221503736 " fill="none" stroke="black" stroke-width="1" /></svg>