<?xml version="1.0" encoding="utf-8" ?>
<svg baseProfile="full" height="106.48697491889796" version="1.1" width="110.04143763575806" xmlns="http://www.w3.org/2000/svg" xmlns:ev="http://www.w3.org/2001/xml-events" xmlns:xlink="http://www.w3.org/1999/xlink"><defs /><rect fill="white" height="106.48697491889796" width="110.04143763575806" x="0" y="0" /><path d="M25,25 m0.0,0.0 m28.457932652469687,3.225857806926761 l0.40651041630104845,0.23678283855079094 1.6276838945777583,2.0409563058302096 l0.9559807339808372,2.5596932552567386 m-18.501115903455027,4.2800356955625825 l-0.6979088826538232,4.822544935288935 -1.5323618073804475,5.811487524025762 m2.5933166467402327,-9.287766394894799 l19.23296959971318,-2.418783658430158 15.303634656252882,-1.2375969932878257 l1.518934076750245,0.19447598820062542 0.8722433437001703,1.0810126920779681 l-0.6971926610900827,1.7306844914896282 -2.580361593705036,2.5739728174563714 m-23.13861285969326,-1.046009938121299 l-0.05294071249597635,0.946978632276146 -0.4221460438817186,0.7779508956198051 l-2.0816364023411773,2.9333278095507684 -2.776554905869693,2.683474567170439 l-3.2755313445113092,2.3816298046678708 m18.622342595365794,-12.33146664618741 l0.4152906410549431,0.9610867769778804 -0.09026765750087339,4.490170340234282 l0.2546825953725619,1.3978669001513535 0.6434909164236066,0.8083391724789657 l1.0717808475017965,0.4701267429171853 1.7436015827222764,0.13415044417720576 l3.992285364315356,-0.10675397145013196 2.757230882933657,-0.5091386747121179 m-20.762059339466205,5.758563782141928 l1.3609849259165532,0.48048213968762354 1.282553858351953,-1.3123440709546121 l5.107606433886716,-2.511273268889179 m-13.461430794859135,7.79866113627641 l1.7284205348805326,0.03803017128364105 12.277805590556502,-1.725335534150985 l2.4609123191036133,0.05601952692297088 m-8.634596232747333,2.6033810618282205 l0.04896880269187523,1.1291236331286176 -0.39212373495882336,3.3902855362504174 l-0.7453818025173793,4.385553313122047 -1.1360957379614436,3.7632760923649733 l-0.09206494480904846,4.746386201181445 -0.10375116595040368,-0.5854105835288751 l-0.17958428496528123,-1.3652293492983165 m0.4202358012979392,-14.59256846496005 l-0.1970585761084725,1.132320857557298 -0.5326183036563028,1.6559444758865327 l-2.091848704605116,4.043337840776231 -2.3489228441081202,3.492048184226203 l-2.9641969272536266,3.6619855956974425 m20.533168280515028,-12.117214709529826 l-0.20970337284816692,1.956278958750829 -1.0699928960034688,2.564541572730253 l-1.62763549927686,2.7050855221845413 -2.145827328411781,2.6207083613641755 l-4.552796145979994,4.339662462216728 -5.756594139477522,4.0955072737679865 m21.35848825718904,-38.44140656004161 l1.2218828096807135,0.2466908670047803 2.0904965476333284,-0.11190207848925944 l11.679026933798886,-1.6198725231826927 1.1365076142169221,0.2703396297468958 m-8.813023709377967,2.788793044280681 l-0.06484857379937603,0.9866816883312568 -0.6482048607900329,1.7411189418207065 l-1.8504705495473484,2.996511642513211 m-4.523908568624803,0.43877337085294443 l0.5740963418467206,1.9307515084371842 -0.16801177510187104,23.271310327789696 m0.5006394216272891,-24.39102281979327 l12.745696133526106,-1.7303641463895125 0.5606292883792862,0.0847372417436314 l0.8520855237107,0.7866332867317107 0.2618305965281079,0.929775749201664 l-0.27220441185867,23.294697645637754 m-13.935024503918614,-16.139530518841365 l8.798005718305534,-1.0533123445901738 m-8.853450866493894,8.628156158541719 l8.613587272382892,-0.8392671967224271 m-8.753958111737493,8.800636097630061 l13.414990122626422,-1.0563808169118372 m-10.413826709780801,4.27623364992387 l0.10144602416667539,1.1319685017103418 -0.8668056408652098,1.1404080639249352 l-3.59521050216356,3.103163711918378 -4.429516419871701,3.209754918279493 m15.562076167218022,-8.282003441000207 l4.037928130087691,4.057270859239399 1.903570893525942,2.519506016784221 l0.9772646004052378,1.6736999817802378 " fill="none" stroke="black" stroke-width="1" /></svg>