<?xml version="1.0" encoding="utf-8" ?>
<svg baseProfile="full" height="96.53059381837892" version="1.1" width="116.8377454934433" xmlns="http://www.w3.org/2000/svg" xmlns:ev="http://www.w3.org/2001/xml-events" xmlns:xlink="http://www.w3.org/1999/xlink"><defs /><rect fill="white" height="96.53059381837892" width="116.8377454934433" x="0" y="0" /><path d="M25,25 m0.0,0.0 m17.344406678131232,4.201637150321114 l0.43520407110307235,0.4131930484355019 0.530285132572994,1.0519560685042801 l2.4218494152343832,15.930861926539194 m-2.1526830705570377,-17.488086321695224 l30.731526130200354,-2.4146558043947284 1.5351655907293,0.23425618790279587 l0.9706760749027704,0.3581430138897701 0.8301406125669871,0.8935686688009984 l0.007512737771842881,1.0324171162941587 -3.810498365314846,15.003423276100696 m-28.24323091615109,-7.595169002423064 l19.112576797578658,-0.1549702301016683 12.15855723138835,-0.08044599178975406 m-30.30348678923798,8.429105807599617 l15.896481759218192,-0.9282361012144417 12.110668381070756,-0.3936267328424687 m-44.63886516493412,10.631362329776259 l3.983886001743747,0.3010497156293466 47.26048103016115,-2.7462565569211588 l7.012657219248594,-0.19191038371033425 3.64443493601599,0.25380807196398103 m-31.372488984893312,-6.913857561930167 l1.0681598597657878,0.8164703744365034 0.4635383617584678,1.13581250167473 l-0.17372253391369905,24.75074324753298 " fill="none" stroke="black" stroke-width="1" /></svg>