<?xml version="1.0" encoding="utf-8" ?>
<svg baseProfile="full" height="105.9240388609503" version="1.1" width="106.2027488713199" xmlns="http://www.w3.org/2000/svg" xmlns:ev="http://www.w3.org/2001/xml-events" xmlns:xlink="http://www.w3.org/1999/xlink"><defs /><rect fill="white" height="105.9240388609503" width="106.2027488713199" x="0" y="0" /><path d="M25,25 m0.0,0.0 m4.367052530391879,17.15125797327799 l0.5955904854916042,0.1260330614020149 3.2007757779011317,0.040563649502850734 l14.181995039115606,-2.0207795457455515 2.445061536662662,0.009597078208205259 m-9.482158139312075,-12.788777289961255 l0.8807816072491805,1.2153251412452815 0.28863967046962014,1.7541597069975512 l-0.13186407964522281,47.15519455209718 -0.39111645012457014,1.4476011500110801 l-0.6266238767959595,0.6658130425692562 -0.7887753897022415,0.013763801195148228 l-1.7686760382228586,-1.2066370172440641 -1.9851729492057753,-2.132236266144582 m-8.623118394654563,-15.066066177950532 l1.8501350989834677,0.2986883632227661 1.3118843605147334,-0.44587696784803876 l15.700783069647725,-10.338784979543956 m4.610162054527504,-12.918041688304248 l2.502931616892426,0.20449024404422397 2.78141176339054,-0.15475441301393159 l16.61448687066551,-2.466504165464618 8.588962300243203,-0.9354887861630634 m-28.688049058763816,10.27246250575288 l0.7160170430265526,0.9251506698626835 0.40126137715827365,1.237498318829107 l1.9605300996218036,14.145908279604388 m-1.6948291760363101,-15.605697334547948 l20.56264304157136,-2.703578917251109 4.198250803768048,-0.45744500066474914 l1.6404449359971836,0.31162282130996044 0.881258839912498,0.8776411491755333 l0.1020725005807805,1.4786407075429975 -1.6282825190186938,7.566689823690315 l-1.8143158041387037,6.190605423423505 m-23.216674449309835,-6.649476073058303 l15.309491982180209,-1.742186344443077 9.444520378166485,-0.8103579780442985 m-24.178168496757888,9.491390572882231 l12.215987313987755,-1.2603619922713072 10.112492614518468,-0.7403168186090442 m-13.385067485173574,-25.9417052014374 l0.6041113152952075,1.1579376361328901 0.14623809380548927,1.1939625606045392 l0.05586693950771948,47.377113586076796 m-22.666076956623304,-43.9282618975008 l1.5232934729846326,2.7247574963699526 1.517616692567609,2.8353659085677654 l1.2771455151304147,2.7361643609227158 0.8301889974771831,2.292049787222108 m12.700783996036412,-9.002612124831519 l0.1771890996343917,0.9676774160863225 -0.9233337748414112,1.1280036346292872 l-5.281076785973681,4.161109487318826 m-17.570878659131786,4.728125039389388 l1.5916076409743258,0.8633056733099561 2.2286425611297966,1.7429134091098546 l1.8342665932454612,1.6130174535185398 0.7782923474743915,1.3360968171511627 m-9.589343471540523,-7.874043400786734 l0.8182089296519047,0.7996051060917493 0.44825271037469816,1.4196443600485038 l0.1017168250419444,19.795499916866024 0.31119779779208745,1.2381079192024895 l0.45112511204010236,0.3988516157664519 0.6903773057031426,0.09408113178014849 l0.8854104379943453,0.0098920401681715 1.0254712636308854,0.11200286189734149 l1.1385542703946987,0.22609919509315543 1.2067526542389757,0.39354639265977254 l10.13408377626492,0.5702779459368444 8.583150963901183,0.12637578368168056 l5.715738959788778,0.13138266769818469 " fill="none" stroke="black" stroke-width="1" /></svg>