<?xml version="1.0" encoding="utf-8" ?>
<svg baseProfile="full" height="100.48967676755507" version="1.1" width="105.35866853206527" xmlns="http://www.w3.org/2000/svg" xmlns:ev="http://www.w3.org/2001/xml-events" xmlns:xlink="http://www.w3.org/1999/xlink"><defs /><rect fill="white" height="100.48967676755507" width="105.35866853206527" x="0" y="0" /><path d="M25,25 m0.0,0.0 m35.49048248852713,0.37667025072683574 l0.24527716633655355,0.45562384024988883 0.19967143330138834,1.6364118167924484 l-0.14100031699984064,5.01247821399744 m-13.723300820194543,2.3398540661853597 l1.4068387401300848,0.25122949366112113 1.740197438488883,-0.07021147840773549 l20.635767760419043,-3.095030231036827 2.4655190326691176,-0.17264813089681783 l2.2418357168555145,0.30119356179191775 m-22.22253292496659,7.576434428935227 l2.2040290757990886,2.1973432308216942 1.1850919161483597,1.8879794811802952 l0.5854075818530575,2.234852319684615 0.33340357252081554,2.4912743728187445 m11.966489242922657,-11.442879128394585 l0.15002451076044895,1.2144085815299888 -0.0886056146017751,0.9934048518259273 l-2.895445673576001,9.48504816494555 m-21.861878897140922,3.971494828038698 l3.2967075071950718,0.3045427635197606 17.954615832111422,-3.257492961317916 l7.420849895997816,-0.9379096315502929 4.042767689100456,-0.31898156414270823 l2.72645617840804,0.35079810957858615 m-28.250630773393798,11.68749179815297 l0.3657462185762747,0.8103010996673141 0.22317284908867324,3.4963829109970157 l0.8600680784024274,10.70961170820055 m-0.7961718905753864,-14.138186470603788 l15.630660533914817,-2.365916159532529 1.3075556777559212,-0.04303721923850871 l0.42282313227388957,0.21738172220549898 0.3053048164640726,0.4573511718069968 l0.14169372195182856,0.6910922964836287 -2.0513147644557486,11.020864315706284 m-14.877573747926803,2.426402377344973 l16.502311525395545,-1.8291565974140833 " fill="none" stroke="black" stroke-width="1" /></svg>