<?xml version="1.0" encoding="utf-8" ?>
<svg baseProfile="full" height="107.97139166971576" version="1.1" width="103.62340839936981" xmlns="http://www.w3.org/2000/svg" xmlns:ev="http://www.w3.org/2001/xml-events" xmlns:xlink="http://www.w3.org/1999/xlink"><defs /><rect fill="white" height="107.97139166971576" width="103.62340839936981" x="0" y="0" /><path d="M25,25 m0.0,0.0 m34.05940990410339,0.4232761152589194 l0.32079506064615876,0.43405408722394834 0.4367289444438064,1.5661256770545489 l-0.007091294331059675,4.996463757866341 m-18.27691791706978,2.180775446911843 l1.9833015974041979,0.2540450966882918 1.9576325805498174,-0.03665707404577572 l30.61841851433546,-3.2664667505429277 2.5311310092878174,0.3051099370765001 m-34.8040297156117,3.4382910735008942 l0.5016148660751759,1.5036667588034935 -0.25166653694238317,7.0318760168769465 l-0.6057020282033785,7.496348026060946 -1.0140359904409164,6.685817829294458 l-1.225699911150692,5.075893250493145 -1.6407417811586773,3.6579860555594492 l-2.4003859064680064,2.9597627673293956 -2.4844749057074553,2.038025571193538 m29.72133901303876,-27.179117950252856 l-0.34170096699509517,-2.0262080912323044 -0.1778804071317879,-0.9118571824682871 l-3.8640348426883633,0.446867651112976 -5.732323372997121,0.9889200196158399 l-6.786591797259349,1.180614377237674 m-1.0371162099825828,3.5702163836084364 l0.4372346272670841,1.8597430708768885 -0.20632384751901642,6.754568269641932 l-0.5604938461004613,5.5203534166776596 -0.8042453176920028,3.946035634336523 l-1.1817232135265556,5.785919314620762 -1.0789064412321194,3.8204465608345526 l-1.6394803067546437,3.8993938012255747 -1.646791302952754,2.6385024078897255 m8.206050056333806,-27.560251290005432 l2.6009403316643414,0.09643810747417092 22.56687306900631,-2.5874954420947196 l2.6461851687433384,0.11170874032728313 m-14.677144352927588,3.4966781143487666 l0.5911654779807451,0.8715048627067415 0.3021855451907193,1.367605213184498 l0.021317981827119394,25.136412037445385 " fill="none" stroke="black" stroke-width="1" /></svg>