<?xml version="1.0" encoding="utf-8" ?>
<svg baseProfile="full" height="105.57993992487745" version="1.1" width="110.65539703265384" xmlns="http://www.w3.org/2000/svg" xmlns:ev="http://www.w3.org/2001/xml-events" xmlns:xlink="http://www.w3.org/1999/xlink"><defs /><rect fill="white" height="105.57993992487745" width="110.65539703265384" x="0" y="0" /><path d="M25,25 m0.0,0.0 m32.25180291433771,3.168587365403437 l0.37962245618129736,0.42634953131748626 0.4915646850682037,1.6501150285756552 l-0.04927025420726448,5.113312394428823 m-19.020478453601314,1.8303088219615717 l3.99790041731281,0.19967235043815243 29.689414582219875,-2.312293929372542 l4.484133464630791,0.2620056426248273 m-36.20468411512643,2.4776923504220996 l0.6134735259340965,1.4813588227450571 -0.19488456120327308,8.112326938537674 l-0.6145666230235155,7.775894381807139 -1.0171977038362467,6.5879818045860015 l-1.2758757332229909,5.1311771533047645 -1.3225457717830713,3.832375489912555 l-2.1466709495879273,4.749595549409678 -2.175935595902547,4.250386730633898 m12.947015954529961,-32.636502501138786 l1.2980061020189289,0.2859293256386158 2.0218291599582647,-0.006346362836043835 l21.12655586612192,-2.043394515140462 0.9724135993837131,0.26355706512538574 l0.6810934417222766,0.956809245989727 0.08859130548372814,0.7062714074642258 l-1.7572732016016308,6.8937630191464265 m-18.96809618790637,-11.75814527805866 l0.6117563986980624,0.7765896606660735 0.1917796360731196,0.9627626341470238 l0.6287959781570157,11.270058766865693 m9.817326736482963,-15.268042720764866 l0.4092236161565073,0.7790509851379953 0.05191201961663152,1.0026536994250461 l-1.1906472668760264,13.070000116329396 m-18.483054181206242,2.0874215050909353 l2.214504832890872,0.2550012687558918 20.52314135707162,-1.8999884770845803 l6.287642395088536,-0.17200283697928662 m-24.886444799743714,12.004711059484247 l7.275673792210916,-0.9540182772094219 3.261191885762548,-0.051800206652982586 m-10.993187431666351,-4.809102837774314 l0.4918297443862652,0.919286206228498 0.15067423407806435,1.1592743941752215 l-0.026579669966628108,15.570964175902306 0.20566684529635174,1.1457069665289306 l0.28569356036555243,0.3326260096789456 0.48009007323310804,-0.06295459918170675 l3.1969732376060382,-0.46076080010733045 6.259736736317416,-3.576567954926993 m18.821595125215566,-13.400974311802837 l-0.3389235988038925,1.0904855840303094 -1.5704481917852298,0.438189447046195 l-3.4209213672917436,2.4608009424076287 m-1.4389441196256643,-8.08026628515225 l0.4107643256146508,0.5720768185991832 0.16313797707640718,1.0719346226105202 l-0.005915487005343782,13.574120640389532 0.39546489294498144,1.5389250360752298 l2.204880955496494,0.9775000854897958 2.189461486193877,0.15414095345637152 l5.256380672960419,-0.04847704210085688 2.6411686059005905,-0.3958585178069591 l0.9322592757594733,-0.4391761548108035 0.9023519165338775,-1.0676741689204754 l0.32249749968107894,-1.0208221951003478 0.13094900985472202,-2.0686894214372002 " fill="none" stroke="black" stroke-width="1" /></svg>