<?xml version="1.0" encoding="utf-8" ?>
<svg baseProfile="full" height="100.65834002368152" version="1.1" width="103.43811525731874" xmlns="http://www.w3.org/2000/svg" xmlns:ev="http://www.w3.org/2001/xml-events" xmlns:xlink="http://www.w3.org/1999/xlink"><defs /><rect fill="white" height="100.65834002368152" width="103.43811525731874" x="0" y="0" /><path d="M25,25 m0.0,0.0 m16.87031986232311,14.662426084630363 l0.4558206951640637,0.14966951712694856 3.01402959291027,0.21188828169295307 l26.00909381623133,-2.46717515875938 3.9851971203124172,-0.1756645423719315 m-24.818833497427683,-5.654299543572419 l0.6872783533679808,0.9080083963401153 0.20850497349844918,1.2229736029365732 l-0.0006838489987157493,27.214048775219783 m13.397328318931528,-30.248558404768396 l0.5588964523728406,0.9114821379575401 0.15692566130944238,0.9980853666726458 l0.0107852748418201,27.425849029341265 m-13.944421586604562,-14.057464734030084 l13.28397783194517,-1.2910469043450796 m-13.007088826606639,8.668778862047876 l12.88556265554921,-1.103360639237668 m-26.982047107792894,10.180132177748106 l2.0560295163856637,0.3345625274248086 2.077005762622598,-0.02120313292107029 l18.331827938781757,-1.646650467263896 13.377293964123819,-0.9213936194765483 l2.4368504625426257,0.03570715985425591 2.3884618715351458,0.4366063486292772 m-26.653358911437767,4.912275664450357 l-0.1790209232678693,1.0039438739253255 -0.45580897156336125,0.8535612922120996 l-2.3549585954475027,2.6135177085373997 -2.9404083907476086,2.470004704950131 l-4.3958883612086,3.0316356587301754 m22.330312650478284,-9.855360011497023 l3.0377689651469355,1.7523243128955592 3.2288035471354517,2.5531607091375945 l2.712959139592075,2.733019927669076 1.498927040319698,2.273053901343437 " fill="none" stroke="black" stroke-width="1" /></svg>