<?xml version="1.0" encoding="utf-8" ?>
<svg baseProfile="full" height="94.55097807878234" version="1.1" width="110.68965621494195" xmlns="http://www.w3.org/2000/svg" xmlns:ev="http://www.w3.org/2001/xml-events" xmlns:xlink="http://www.w3.org/1999/xlink"><defs /><rect fill="white" height="94.55097807878234" width="110.68965621494195" x="0" y="0" /><path d="M25,25 m0.0,0.0 m14.637506379860227,4.186488510338045 l0.4731226776711978,0.24835976062598195 2.964363589607051,2.424059968596861 l1.4441182650805267,1.6091426080736972 m-8.011105815198867,6.548195199626284 l3.6015271413464998,2.1102888133671485 1.6998435053917966,1.3752272013108282 l0.698445812320655,1.034076261464437 m-6.502881802003555,20.37440118359224 l1.1874753972014094,0.5030766963084995 0.5790453433869132,-0.011005648273041194 l0.8999563202445419,-0.6116933795502105 2.2664167707125458,-3.928010080092209 l2.4264770443950945,-4.837655468606431 m18.872380478291035,-30.025573802401734 l2.479104636094104,1.2146279289669095 1.1960958878029666,0.8344168302411445 l0.9074688978559783,0.8453307645082844 m-14.583955919080488,3.5416652348766164 l2.219026039706433,0.22084438360018763 21.11966657618636,-2.035902228141077 l2.737703200138304,-0.12092287336400169 1.4434011193543894,0.2629290087429991 m-9.10776585689291,3.9074418109178493 l-0.1007776501207479,0.48690250511332733 -0.3751608181904682,0.7207494171372143 l-3.371358758785105,1.476964023417167 -5.309913120447667,1.9053544599109968 l-5.565899451338637,1.5669046292205258 m0.10391762731576025,-5.283713259698645 l0.4279463367652859,1.1094049672227813 -0.01921017632000733,6.040407199791633 l1.892490889883072,0.6889969006802218 2.403690662149547,-3.890164506762169 l2.2144218251111023,-1.484868912929319 m7.651861736232244,-6.921098141839713 l0.03787186756145873,0.7176567752428709 -0.9713800781165973,1.2930795444869743 l-3.215314044919614,2.286163958460329 m-4.951016250306194,-2.2691040120487718 l10.66791700086763,8.444860192155796 1.4746107292666177,1.2373834891416478 l1.8212484655166097,0.9071384945646501 m-19.206367931057027,2.8063875811960672 l0.17165042280077067,0.16430303298900414 0.2516526227273975,0.6806149224158005 l0.1514546997265979,3.9709567379897073 m-0.1562780432530045,0.7499691823498467 l5.574082819057209,-1.4374916419192607 m5.418049697164278,-4.789061471552152 l1.5306493313291585,0.22896478154538485 7.571586221860856,-0.9983290499790539 l1.2586995836784713,0.09445791104254066 0.06736555838422055,0.3228056810811857 l-1.4775492029540593,0.49279798874044894 -2.434180350644613,3.6737317854314004 m-0.5611897874352545,0.5769644814182526 l0.32025860178494997,0.4839906099332954 0.46875599563724546,0.5566045022766971 l-0.1649645366521613,1.6164845165634922 m-18.6764682153987,4.595285619938918 l2.4583859149534693,0.23967008933239212 23.50321512905598,-1.8183022228146952 l2.4430746227673854,-0.07047430914548895 1.7143905798122865,0.24309852596329737 m-16.262854303591396,-3.789331323475834 l0.41145455307737394,0.7775890369994624 0.0989084027230184,0.8033936915608165 l-0.024556978333229663,15.673071010903978 m-1.5723096460046684,-12.122918908970885 l-0.3376280483647458,0.9101674118328641 -1.0410178329873019,1.341435325202945 l-4.065638414978407,3.646619974981106 -4.618498866073648,2.9512021613609245 l-4.447772319619145,2.1536928993358986 m16.278960443511338,-10.365562908564051 l11.5092022244872,8.339797158774068 1.88139354497379,1.9884624503801651 l1.4700840609800903,0.7741272723345328 " fill="none" stroke="black" stroke-width="1" /></svg>