<?xml version="1.0" encoding="utf-8" ?>
<svg baseProfile="full" height="103.00886360283701" version="1.1" width="116.82248371108273" xmlns="http://www.w3.org/2000/svg" xmlns:ev="http://www.w3.org/2001/xml-events" xmlns:xlink="http://www.w3.org/1999/xlink"><defs /><rect fill="white" height="103.00886360283701" width="116.82248371108273" x="0" y="0" /><path d="M25,25 m0.0,0.0 m15.633677114240152,3.7991474656522892 l0.45372914065727027,0.4379898135992328 0.5700314191715954,1.1558053751508763 l2.301385251404148,17.924822106959923 m-2.1178255142073734,-19.94272053568687 l32.65802302223731,-2.604662734939072 1.8391605304958771,0.3498539739842198 l0.8967165589702422,1.5078980206197612 -3.193920319318527,17.591700162765918 m-29.782008776330628,-8.301130298414918 l19.967629577321286,-0.23703342163113783 m-18.041269110164713,8.983819691235732 l27.641211100457152,-1.2876389198471734 m-28.604819755647796,11.76333560056265 l0.5166872654299246,0.9917560009234064 -0.21282070720620855,1.0356085475260375 l-2.123241212055934,5.227142287336204 -2.767621640022371,4.310160365349806 l-3.1696258605957133,3.6882893360173767 -3.309285798011202,2.6905788732591427 l-4.0298422852495905,2.4378058031471896 -3.6636640861272842,1.4863360892664175 m31.645979446913703,-22.49759295358006 l0.5563623716746589,1.0226608140337672 0.20569533467304102,1.084127003370403 l0.24937846365438487,13.841351664069258 0.7623915522672305,3.3208075930663514 l1.1886355094322398,1.3871156454866236 1.7794237740016305,0.9130286524176499 l3.457013513568832,0.587314853828052 9.541207391832879,0.09142133323141396 l6.677259095116925,-0.4690242511252446 4.9195630290763575,-0.6228990479323001 l2.4289821058215844,-0.7187578337761242 1.4791524127621785,-1.0485586698187306 l0.46913379483948137,-0.9671485018070775 " fill="none" stroke="black" stroke-width="1" /></svg>