<?xml version="1.0" encoding="utf-8" ?>
<svg baseProfile="full" height="111.69004183246227" version="1.1" width="107.49493612695605" xmlns="http://www.w3.org/2000/svg" xmlns:ev="http://www.w3.org/2001/xml-events" xmlns:xlink="http://www.w3.org/1999/xlink"><defs /><rect fill="white" height="111.69004183246227" width="107.49493612695605" x="0" y="0" /><path d="M25,25 m0.0,0.0 m31.649920954302523,3.087245318051673 l0.35374303020020853,0.4525418696244119 0.46049249639756207,1.3818523685390107 l-0.009770197970866593,6.073859112695647 m-18.574755096723987,2.1627190329913653 l1.6739089090733799,0.3267193922187101 1.8626138695510863,-0.0012156102757259802 l28.21650038181812,-3.1687510460348705 3.02203898051004,-0.12898294449033823 l2.4205235056829943,0.3160301999155034 m-34.56035186312518,3.147165281222266 l0.4610212612490988,1.546967771295192 -0.2472593331706388,7.619026565384639 l-0.6329407875731076,7.295402461444693 -1.0264961571432878,6.5133549265883035 l-1.2809176052341946,5.148138554617363 -1.2777898373056475,3.7387517860174846 l-2.1235476466935346,4.762896265770677 -1.9719686727665244,3.376862842354167 m26.104264121787455,-26.79772168870589 l-0.0045586135729324285,-2.179975568843764 0.08365300203826827,-0.9087382829703716 l3.524498421849531,-1.3631155204014667 0.31349418386166755,0.34463209159745795 l0.33323680305692494,0.4728489511124298 0.2007075112981867,0.7017511243480251 l-0.09833963695104878,10.736642168327991 -0.0022361452441949374,13.493878353225934 l-0.13608519825712403,0.8788234453467586 -0.41361639794489014,0.46649110625261586 l-0.5483736354137475,0.037611340596131214 -0.6344598851930516,-0.22855044941906727 l-1.8779746785040181,-1.4351036575219906 m-7.461537222113848,-15.731802923416106 l2.367625220790057,1.7375837014626934 1.4176154109323407,1.5929395703695832 m-6.844337182627649,9.248530399263677 l1.0025381705331875,0.260091697019747 1.4462015419376097,-0.3397205840089064 l6.810368532636935,-5.360384235308396 m9.12304997611004,-12.576227402213146 l0.7933465709263721,0.240439927622268 1.8864413537585434,-0.048006990623265196 l9.915414558999021,-1.9863855877837562 1.0016329695790351,0.15469321427817948 l0.45935647448826517,0.37455082860821975 0.26863343090479164,0.5231025758115206 l0.049410276212295254,2.041124566914477 -0.9631959200431872,19.14491934741978 l-0.423745784473788,0.7112558504025563 -0.5723747897782905,0.14779417022748437 l-0.6504701450337245,-0.24355745104873414 -1.4924942262020096,-1.5188438038501497 m-8.542958694305543,-15.954213653582496 l0.3768811681587671,1.7095777078005854 -0.03592292645943165,19.76261645075796 l0.23502175082338794,2.5028079066882616 m0.8929147319810371,-18.265864606882836 l0.27441920833689326,1.8351703229682206 -0.7229228998865347,1.4224629884285933 l-1.8562565388531922,6.178887817870529 m-22.84457158944818,1.5392434933575216 l1.107242764639595,0.8985312842075139 0.3521232051612894,0.7494744865992503 l1.904200353655738,12.053424359708275 m-1.5512816025503797,-12.628481009604666 l23.548481197517688,-2.6845842180988315 2.2619345849627996,0.08759748282579545 l0.5927978973880339,0.8053104611782985 0.03455196725787205,1.6061056375249887 l-1.9787658350275033,10.951323540241065 m-16.106891093321114,-10.703908336479692 l0.4287772754123002,1.2933247312426133 0.09902737446892369,10.343310696020621 m7.619780261923617,-12.3419562925975 l0.37047664190438284,1.0963949134483948 -0.7415668452966168,11.142800335906399 m-22.62922705633174,1.6792293327546166 l2.557556345041765,0.3693015681561111 14.263777682195562,-1.227551294446948 l19.87509329466748,-0.869388522582258 2.2584062874594037,0.35136916376454136 " fill="none" stroke="black" stroke-width="1" /></svg>