<?xml version="1.0" encoding="utf-8" ?>
<svg baseProfile="full" height="118.39332313839091" version="1.1" width="107.3103447360854" xmlns="http://www.w3.org/2000/svg" xmlns:ev="http://www.w3.org/2001/xml-events" xmlns:xlink="http://www.w3.org/1999/xlink"><defs /><rect fill="white" height="118.39332313839091" width="107.3103447360854" x="0" y="0" /><path d="M28.4771920179673,25 m0.0,0.0 m28.9407083669325,16.919549457544154 l-0.0509587460462288,0.40972733160869784 -0.5540303404630441,0.9446247063983201 l-0.9614855549896595,0.9313326644051267 -4.129780417445685,2.7105282819166225 l-5.004478237146017,2.658193756437802 -5.587009654153206,2.343742945713043 m-3.252865424521566,0.7592860647772465 l0.7242687108754956,0.991301567133644 0.25471063834367813,0.9210081893917722 l0.07930014675950584,13.213152381059471 m1.0920628156607717,-10.392152854282516 l30.371045803819523,-2.623857989249697 3.610041709969643,-0.07658270734017289 m-13.00512741529418,2.311995197576333 l0.37316347591660887,0.7853100288093281 0.015379585239231313,1.04095481881609 l-1.3875522288611069,7.922013958765704 m-35.00458525256356,2.407168867150271 l2.6750852915693746,0.3268410643033429 3.4598216118410385,0.03069345117754337 l22.381683791152195,-1.5068123271165823 16.96388350649747,-0.8396180845305579 l6.90976860648769,-0.05604684563409452 4.920101928537631,0.37374715947613807 m-29.87343093595861,6.954710136354431 l0.6256609467077584,0.8671686173113994 0.19411080700527295,0.8996086538573734 l0.05240627839236194,11.398190728283431 -0.26103322641180193,4.804552280735299 l-0.523375963994425,0.8166818009400968 -0.7208591337918008,0.14630983660185629 l-0.8428321489228013,-0.29334990362411845 -3.219118133030477,-2.3775826005125884 m-9.464901015132057,-9.971657525411613 l-0.04726411728906801,1.0612345259857932 -0.4240408031709167,0.7392793251895593 l-2.6842017704277,2.731779125008449 -4.2493297815122855,3.1240531211634313 l-5.0561666924149655,3.0147963890599763 m39.01854091933163,-11.2548014404244 l3.7843003245332016,1.926080002953765 4.407544836385717,2.927412489954644 l3.2281910127832467,2.7827107798764836 1.7722245071957312,2.249735179385392 " fill="none" stroke="black" stroke-width="1" /></svg>