<?xml version="1.0" encoding="utf-8" ?>
<svg baseProfile="full" height="101.96165792321872" version="1.1" width="103.67909631830992" xmlns="http://www.w3.org/2000/svg" xmlns:ev="http://www.w3.org/2001/xml-events" xmlns:xlink="http://www.w3.org/1999/xlink"><defs /><rect fill="white" height="101.96165792321872" width="103.67909631830992" x="0" y="0" /><path d="M25,25 m0.0,0.0 m7.606022997556183,19.562484072716266 l0.14570168910118997,0.36141438130978487 1.367345743645332,4.231429540526801 l1.156534868383446,4.714303605692887 m12.87870612630211,-13.533086331407128 l0.1340613185779387,1.4017740998729988 -0.3976962880771998,0.7762258457849656 l-3.364163832922687,4.084673659253244 -2.665168169892672,2.7608996085226876 m-2.114047472572206,-18.160655410351485 l0.4820839028911404,0.9333168349306353 0.1504144922061416,1.15797263026786 l-0.06736004424811305,12.596956461641492 -0.4493976992212877,9.392396126783465 l-0.7490788290088823,6.288920140765126 -1.1392863621296851,4.912960072144355 l-1.5705235855912762,3.9612654759787085 -2.067063916115406,3.3645309027349457 l-2.6730222119895006,3.153876206051101 m9.186756817575352,-14.756547500728034 l1.7285981962785162,1.215381071723484 2.0473967703929516,2.164952061265204 l1.7222827396285403,2.381193659176574 1.0063652881227718,2.057137790709528 m6.284901267275825,-40.98569825494792 l2.625864041996118,0.23233800065294333 15.982442004149082,-1.1622016861316784 l1.8464259099400462,0.21279549872237097 m-10.613386860952696,1.1447532692104267 l0.6984261804153264,1.501808009704891 -0.03355141190500092,6.925110834897115 m-12.778277408709636,0.8192892663788887 l2.2112048053638618,0.06045531402688684 22.489140969723938,-1.224855494506405 l2.610444282120362,0.16632883777748414 m-23.344124686378084,6.210879243631831 l0.7212455791433275,2.3792570952710985 0.005632436366993974,21.115949889026385 m0.048773242124368954,-22.1882105775184 l16.532286873887056,-1.5587681062011933 1.0561317196037734,0.18002327334674115 l0.3202013784984284,0.308530023610681 0.36131769796233876,1.7975242130504339 l-0.13429488689365965,20.12336491372489 m-17.93458478582477,-14.051506355477352 l11.815160492692321,-1.027705380100797 m-11.916387379976216,7.857863261465884 l11.776791565614841,-0.9915428516883438 m-11.708881318244519,7.8548252554623215 l18.01852492328571,-1.044842715624448 m-13.506107071659432,2.946059095877643 l0.10662646983163458,0.5441635820766832 -0.21938483426778002,1.0519235731683863 l-1.6539487854864765,1.99931239526931 -3.286601599568293,3.075950513867134 l-3.1568265175210675,2.246625926181276 m16.602389851028544,-8.031453379984104 l2.3970105809056563,1.854809703393598 2.3018071084711464,2.128774683128729 l1.8888437224221872,2.0917289143576085 1.1453107829983342,1.680714089319443 " fill="none" stroke="black" stroke-width="1" /></svg>