<?xml version="1.0" encoding="utf-8" ?>
<svg baseProfile="full" height="95.9287983792889" version="1.1" width="96.35958134416674" xmlns="http://www.w3.org/2000/svg" xmlns:ev="http://www.w3.org/2001/xml-events" xmlns:xlink="http://www.w3.org/1999/xlink"><defs /><rect fill="white" height="95.9287983792889" width="96.35958134416674" x="0" y="0" /><path d="M25,25 m0.0,0.0 m34.21143008594483,1.6944744329630075 l-0.07066944247913544,0.48972326346927736 -0.7287042984069266,1.1558037028551198 l-1.1233179994717817,0.9750730416883875 -5.027422843283261,2.728442892573726 l-6.076412294895133,2.394656367567841 -8.042301438352247,1.953191466100614 m-5.771020332000682,10.110783797187706 l2.2043065703637224,0.3297331088724845 29.384957349050715,-0.0507816605366331 l5.482217298631484,0.19935798736033647 m-18.80450927404522,-10.281710225699499 l0.5177872192721313,0.5803481464921594 0.3230872533243207,0.8210273798472908 l-0.10583580205210771,32.82867467854709 m-0.5617398682516784,-23.61495620349648 l-4.127741202149591,6.226374140945135 -4.853345452875764,5.741722669928302 l-4.683057137131123,4.42480595281529 -2.9522010035780575,2.617376815787207 l-2.0675029792120125,1.6890610557058643 m19.101348591484697,-19.59593393701617 l16.938456847939392,18.023226444881523 1.5007068446656195,1.1930865207239427 l1.6910646516745311,0.6899634955283024 " fill="none" stroke="black" stroke-width="1" /></svg>