<?xml version="1.0" encoding="utf-8" ?>
<svg baseProfile="full" height="102.96606550199893" version="1.1" width="101.73717902988028" xmlns="http://www.w3.org/2000/svg" xmlns:ev="http://www.w3.org/2001/xml-events" xmlns:xlink="http://www.w3.org/1999/xlink"><defs /><rect fill="white" height="102.96606550199893" width="101.73717902988028" x="0" y="0" /><path d="M25,25 m0.0,0.0 m27.238934493840596,6.7293508278097125 l0.3242583331869984,0.18332968659409277 2.0122118099764403,2.040397065465434 l1.4654957405849727,2.2852532141420436 m-18.699774669026688,4.642323601620589 l1.6979417325177173,0.2960757430323917 2.503793779084557,-0.130195638509583 l22.250448734859848,-2.7397634669580837 4.981214771373997,-0.2269372701115973 l2.1529339272863712,0.31137127003245 m-30.898254143554492,3.8253779734140894 l-0.05857893724473032,3.1118141206274434 -0.708269465749121,7.011811015892878 l-0.7782922012072343,5.454483832261799 -0.8839464296493726,4.482355113386481 l-1.188517932175251,4.3785710768190755 -1.14411560690719,3.0099647564077383 l-1.378898304697609,2.710015403728198 -1.6504524334914608,2.3225776360374772 m11.24094005444633,-23.410551378936326 l2.40792346697413,0.1756515400261079 19.81521515403357,-2.698640690614587 l3.2913828372114895,-0.2522070728913435 1.8172799697720494,0.2474098495047892 m-14.50208657105276,-6.740891952495028 l0.6987040392635976,0.7004474635359799 0.46619223939231613,1.373686373360676 l-0.3022968636312118,32.58018566240288 -0.34231939511626047,0.9610682714270458 l-0.48229191891464257,0.3317314749860924 -0.5596935217809506,-0.19020489438541097 l-2.2989820754695987,-2.3441248950863107 m3.6452225139868766,-24.723145111089092 l-1.3570735660219826,3.0042174963285655 -1.8024888865772741,3.347152637334223 l-4.5456565398604765,6.5058873002742095 -4.730094089606748,5.1466958427290175 l-2.6625265957956783,2.3757704459254647 -1.9541240318820592,1.479372091127792 m17.786609390521804,-20.54797867579735 l15.624121678284238,15.699451534734509 1.5184777840420676,1.2251135761983833 l1.726610758653098,0.6908735023214055 " fill="none" stroke="black" stroke-width="1" /></svg>