<?xml version="1.0" encoding="utf-8" ?>
<svg baseProfile="full" height="109.49251294136047" version="1.1" width="109.1114141466096" xmlns="http://www.w3.org/2000/svg" xmlns:ev="http://www.w3.org/2001/xml-events" xmlns:xlink="http://www.w3.org/1999/xlink"><defs /><rect fill="white" height="109.49251294136047" width="109.1114141466096" x="0" y="0" /><path d="M25,25.000001545995474 m0.0,0.0 m0.10860664770007133,14.46596622467041 l0.27342116460204124,0.43849918991327286 0.7203792780637741,2.1159379184246063 l0.05660672206431627,1.2291990220546722 -0.15458309091627598,27.454559803009033 m0.3639918938279152,-29.179506301879883 l16.79062247276306,-2.8487706184387207 0.8366687595844269,0.05617950111627579 l1.1996352672576904,0.7749781012535095 0.4482398182153702,1.3178899884223938 l-0.11716256849467754,9.149355292320251 -0.4890180006623268,9.886225461959839 l-0.6956432014703751,7.129114866256714 -0.44499292969703674,1.5817414224147797 l-0.6363877654075623,0.6093873828649521 -0.7361864298582077,-0.11722931638360023 l-0.7437055557966232,-0.5991340801119804 -1.1422168463468552,-1.663767695426941 m-6.775376200675964,-41.80062770843506 l0.9983290731906891,1.655394285917282 0.41625700891017914,1.3934226334095001 l-0.1476527564227581,56.44369602203369 m23.689210414886475,-58.88397693634033 l-0.1973545365035534,3.1074315309524536 -2.105342745780945,6.01116418838501 l-2.815895974636078,6.125317811965942 -4.247085154056549,7.629817724227905 m3.8005539774894714,-6.583981513977051 l0.8257319033145905,2.3787641525268555 0.10116582736372948,2.588614821434021 l-0.199084784835577,36.31648302078247 m18.177039623260498,-57.57155895233154 l-0.14002153649926186,2.260851263999939 -0.7476359605789185,3.0947858095169067 l-3.004043996334076,8.546119928359985 m-14.272583723068237,2.9392772912979126 l28.09624671936035,-3.31788033246994 m-14.808489084243774,3.9618727564811707 l0.48305828124284744,1.3230165839195251 -0.13298308476805687,35.65685510635376 m-12.883604764938354,-26.817147731781006 l24.82715368270874,-1.994842290878296 m-25.46097755432129,14.217900037765503 l25.514466762542725,-2.071998417377472 m-25.504724979400635,17.50989079475403 l6.133861541748047,-0.48369910567998886 23.852920532226562,-0.9722898900508881 " fill="none" stroke="black" stroke-width="1" /></svg>