<?xml version="1.0" encoding="utf-8" ?>
<svg baseProfile="full" height="102.17455285551365" version="1.1" width="100.12179620487163" xmlns="http://www.w3.org/2000/svg" xmlns:ev="http://www.w3.org/2001/xml-events" xmlns:xlink="http://www.w3.org/1999/xlink"><defs /><rect fill="white" height="102.17455285551365" width="100.12179620487163" x="0" y="0" /><path d="M25,25 m0.0,0.0 m17.08015034962731,4.221626443787057 l0.4058013874743141,0.4128424542569849 0.5670898076132168,1.0857418523083069 l2.1060010605164656,17.495983928872405 m-2.0969071233327647,-19.17026136056134 l29.645741465150397,-2.3677662841681584 1.6003558392124617,0.3440361386098199 l0.8135634186102354,1.4276361241733493 -2.9081351555785697,17.062225075295345 m-27.538710815002254,-8.35020448218665 l18.626634490325326,-0.24146453853738473 m-16.92647281413194,8.636312714973261 l25.64536433968385,-1.2185387376632588 m-26.900025382980218,11.32992488368447 l0.5088886769288179,-1.4661989068706043 11.166704928982977,-0.599971240605739 l2.5515140837603423,0.019548625396329324 m-11.509398712752281,-5.980456973556721 l0.6482079312706837,0.6443959893627301 0.2297666949369983,0.8063544210583065 l-0.09839467767308598,17.09884384928006 m-11.362211840160429,-12.433590135361714 l0.765456421678954,0.6302592450835127 0.42957368695633424,0.8626347528696598 l0.002563547294859352,15.869987961369304 0.4687070514117821,-0.6510976115088964 l1.174793877261769,-5.867748176524021 m9.321334346742493,-10.813752037589047 l1.3125867793054016,0.22009791260334416 1.4788455436365702,0.013253116738256968 l10.18167699091896,-1.5569723370411488 2.2670062932126753,0.1135720435642549 l0.6312577808176341,0.39249221122791655 0.18985481341089946,0.5565333094650229 l-0.4556881082918447,5.653598710732282 -0.9834760073157626,5.23978473234878 l-1.1167281469468366,3.6015296446806015 -0.60705918040269,1.5654817800604643 l-0.6022368043254605,0.741804612772321 -0.6619060528446815,0.19066585080386728 l-0.689321772056192,-0.18546685903428875 -1.5689286296450862,-1.3378184044133952 m-9.616300200590999,-16.779752774439483 l0.5400039668307102,0.7491508198381767 0.16821725301027202,0.9624094846397224 l-0.08799336561895058,23.2468850257196 " fill="none" stroke="black" stroke-width="1" /></svg>