<?xml version="1.0" encoding="utf-8" ?>
<svg baseProfile="full" height="106.40740979435442" version="1.1" width="100.40924434256345" xmlns="http://www.w3.org/2000/svg" xmlns:ev="http://www.w3.org/2001/xml-events" xmlns:xlink="http://www.w3.org/1999/xlink"><defs /><rect fill="white" height="106.40740979435442" width="100.40924434256345" x="0" y="0" /><path d="M25,25 m0.0,0.0 m27.361588804408967,5.676479835230103 l0.35895471496242376,0.37715549306688667 0.5221516178680596,1.4705813005469375 l-0.02538811289439532,4.399849378750037 m-18.4412947413425,2.0738533234908156 l3.809422262568715,0.2143184471490398 28.704518353272118,-2.5207501675400454 l2.3836568531754803,-0.11377377847310544 2.2299311635345993,0.23797598598835032 m-34.67576471368087,2.6878662005509906 l0.49416648319921935,0.7561678144241546 0.16522642651877448,0.9732550732574854 l-0.24388455298525707,6.372173001675555 -0.6538950536587153,7.004178764755717 l-1.0645283636189413,6.228704987350621 -1.2495178801300961,4.588124941216477 l-1.2775240500500895,3.361204864848104 -2.1597572982215896,4.138427659538284 l-2.130327541661396,2.8907310221465634 m12.684417190472,-30.862284821634862 l2.6028051870084132,0.19776467552128824 9.547656141366572,-1.461754100342782 l1.1626614121558814,0.016930269842799935 m-6.737096852343176,-3.870898304474904 l0.5009389810426844,0.8299212206379782 0.14343040620491124,0.9486265971530036 l0.01055626069110307,13.894683085614187 m-0.7073468857106141,-10.10227513492794 l-0.45483935344680565,1.6585453550368578 -1.9582524241702037,3.211382216395207 l-2.3083939585064317,3.056200480180097 -2.1295140362647205,1.9438890297417477 m9.108542821920906,-8.135810196909658 l2.1392622698480515,1.4923873426806291 1.9450834678352253,1.9284032355350862 m3.3374681081786592,-7.06791166065778 l2.739840101326463,0.21008525935465525 10.356542690707409,-1.5928501856159532 l1.8620227397712603,-0.056469817458454315 m-8.082957969298587,-3.3250574969812146 l0.387687825552354,0.43547861077690975 0.2646705500346368,1.0022014590630786 l0.04386603863450666,14.145414420236277 m-0.74871227541425,-10.725784619813112 l-0.6549044364135681,1.9387715223210293 -2.531419913102153,3.8107479548551684 l-2.6225345941389766,2.8410916555962187 -2.5251792562949564,2.033649980030678 m9.716092704478278,-10.14333411461099 l5.578110661053522,5.448995716073403 3.631006368120535,1.7177020854541032 m-14.078306089766205,3.4218872293386435 l-0.2320763114246312,0.44628688156332896 -0.8271196314515491,0.6620787535432123 l-3.371480638711805,1.7512497079584124 -4.254056602377084,1.5322500587176846 l-4.150304329462703,1.0512188024935187 m-4.41258271306835,5.280582186725951 l0.9385820295752835,0.22525650288804172 1.7660012664989844,0.004838582177632347 l16.955897331584836,-2.5697409057133145 4.189634863266138,-0.4000532746679559 l2.162435454610968,0.18618558892478354 m-29.39596667176307,9.14849696462065 l3.702501742582616,0.1530588022776124 23.587603675261253,-2.469309308584142 l5.229794020037973,-0.39161163505045815 2.1387804977619838,0.20877352434065263 m-19.154395769484232,-10.444887147349148 l1.605460614661132,2.1253738991539395 1.1505121889684315,3.819010688400281 l0.422825854522983,4.577910915846785 -0.3483666389943793,5.212439328190547 l-1.0154573832926022,3.9747884323975637 -0.5700438692546629,1.3801339850326735 l-0.6392636227286935,0.8735849011138088 -0.6702866637242778,0.3803323501047462 l-0.6761059017647587,0.03230811326323729 -1.2901110298703589,-0.6386168448613966 l-1.273943434698194,-1.066198251620624 " fill="none" stroke="black" stroke-width="1" /></svg>