<?xml version="1.0" encoding="utf-8" ?>
<svg baseProfile="full" height="111.02105236077178" version="1.1" width="91.06780787058318" xmlns="http://www.w3.org/2000/svg" xmlns:ev="http://www.w3.org/2001/xml-events" xmlns:xlink="http://www.w3.org/1999/xlink"><defs /><rect fill="white" height="111.02105236077178" width="91.06780787058318" x="0" y="0" /><path d="M27.01150612775499,25 m0.0,0.0 m31.049698498771853,15.364127456661878 l-0.05825927643302266,0.38893933126364605 -0.6163960210786561,0.890818693681484 l-1.0995616021796377,0.6837624423099044 -5.081261907010575,2.271569630822926 l-6.198207981156064,2.069687154174665 -7.191826484448521,1.7854406421772557 m-5.945770603385206,9.047528378323479 l2.187614564058021,0.3119847340121687 29.2269957833392,-0.020883021501396898 l2.783276772350797,0.19597064183789328 m-41.06780787058318,-9.137674897352 l0.5554856441662269,0.35785861471031577 0.43457846327289146,0.2522939183534155 l21.132533263965158,11.712308299394937 8.741246872017244,7.390985149274926 l1.8482577327947725,4.15171611156537 1.4404978906191992,2.889300513555598 l0.2293257917737961,2.6082048252911205 -0.12424973495427777,2.2476955776355587 l-0.34820230732004637,2.115869951619254 -0.5724937456957067,1.6639448488995445 l-0.8293951662603019,1.260566237470682 -1.1321607532300142,0.519037126589142 l-1.3934450072489268,-0.304745542333029 -2.7488436793197133,-1.5230544762930927 " fill="none" stroke="black" stroke-width="1" /></svg>