<?xml version="1.0" encoding="utf-8" ?>
<svg baseProfile="full" height="102.94932554631656" version="1.1" width="110.16780988048211" xmlns="http://www.w3.org/2000/svg" xmlns:ev="http://www.w3.org/2001/xml-events" xmlns:xlink="http://www.w3.org/1999/xlink"><defs /><rect fill="white" height="102.94932554631656" width="110.16780988048211" x="0" y="0" /><path d="M25,25 m0.0,0.0 m5.794972967701948,17.870406106091423 l0.3077912780856945,0.3927934618672395 0.4983133964529511,1.6043127705092004 l-0.0031924586393449438,18.706102441429312 m0.6015409235218941,-19.877252491901388 l13.561714647404699,-2.397666351991735 0.71693969859178,0.009183211247449304 l0.9938081713135167,0.41462529261501463 0.6251173638093439,1.0230596293622234 l0.07191681071437549,0.7923435004516235 -0.48537463198145514,14.423554009412115 l-0.1806048293668782,1.3824271283512568 -0.42662385527271574,0.5798107643177238 l-0.5808013920828797,-0.10600742459047582 -1.6134135744179314,-1.7900608810758716 m-5.996938251207414,-27.457132399138782 l0.7908646636735772,1.0430661526368923 0.2897423354010365,0.9133612891953448 l-0.06540171297918955,45.422399337528 m16.949355133226824,-44.71395310677942 l0.5938671072697501,0.7748149290016957 0.3230382376019643,1.3261525452077854 l0.04952188334242914,19.675170057640237 m-0.047664186137842665,-20.83970265557978 l12.876020221045215,-1.9581298503490203 2.6079430144195905,-0.0113517551545044 m-14.63154183099561,8.770592696917072 l12.563921093162659,-1.8233716081562352 1.8859880064759085,0.03273342879944495 m-14.306251755393188,8.723022402098836 l12.951239426376628,-1.6637363862429257 2.042246122110386,-0.039232290073295074 m-23.940772811640095,9.661595467594642 l1.7534410278616248,0.22350583286135992 2.251466050641425,-0.06677460369029163 l20.797342754753362,-3.0497683766940065 4.936823613216472,-0.4745141095791609 l2.9663190464923317,0.1591522210992254 m-26.992768627392646,4.738740079374442 l0.703481091312535,0.8941549599801882 0.33367626686873686,1.1111991677062802 l0.12862082768964478,15.015019055801332 0.1970038566238787,0.6631024957834315 l0.40627538996274387,0.4152491307860398 0.5683179995552352,0.05485867603109951 l0.6819911980218099,-0.37919402761719845 7.132688061735052,-5.729662632001282 m9.605058696882574,-12.769227257378075 l-0.33748083188563066,1.1559545613388693 -0.9386129888593006,1.0578052466158798 l-4.437773892976516,3.368271487866266 m-7.9286528965388365,-3.7564762286056084 l1.1507396689514415,0.4820445703300855 2.3868221565586523,1.8014990630345622 l14.345264170975964,12.429858493914962 2.7701275901913034,1.7172176235625682 l2.870358438252608,1.0054863518247124 " fill="none" stroke="black" stroke-width="1" /></svg>