<?xml version="1.0" encoding="utf-8" ?>
<svg baseProfile="full" height="125.05790556917204" version="1.1" width="102.11858529716287" xmlns="http://www.w3.org/2000/svg" xmlns:ev="http://www.w3.org/2001/xml-events" xmlns:xlink="http://www.w3.org/1999/xlink"><defs /><rect fill="white" height="125.05790556917204" width="102.11858529716287" x="0" y="0" /><path d="M25,25 m0.0,0.0 m12.204825540473163,11.332789904835204 l0.4169923176219373,0.358818553286101 0.6201763968395715,3.236241652051955 l1.109234850824646,8.943738175895465 m-1.2822780124991455,-12.40964093864735 l12.616383613598376,-1.8075931987709684 1.2901793934827543,0.10991374626193422 l0.48240008538275175,0.3435024960513708 0.2816011002302454,1.1235814444965844 l-0.17817994418179883,0.9397356194076162 m-11.952558641459857,2.3747269579881825 l11.495572491317546,6.583407402042339 1.204751296156265,0.6851670924063894 l0.9727839509843179,0.3833513459854181 m-14.82752623932269,0.4317334273962521 l0.6420403606659605,1.336772688074577 -0.05931835106017967,8.368996739267129 m6.973408180827874,0.5145984838406975 l0.07650370847074539,0.6141794725583 -0.15010110666876245,0.636281862524842 l-2.4554469781068975,2.859272087304681 -3.7966711302919225,3.117555391248091 l-4.192372758098541,2.5364629029039363 m4.588131269053152,-5.331960776161241 l2.603439440175499,1.3488149057841985 2.2669939291585552,1.5152473073407304 l1.9658799184156657,1.8935394693074108 1.3618655185706279,1.8823277985915867 m-16.158611856498215,1.864541492661335 l2.573137033152318,0.6366853225264626 15.519433282973154,-0.950334365790583 l2.0110000221557334,0.1981693890933094 m-10.451893763783257,5.744896767972905 l3.7668200204123985,0.5601987336240011 2.944850229794217,-0.16109150197592254 l0.8911122072945907,0.18020548156102364 0.5715009548100937,0.8660165270280408 l-0.35591621067716556,1.7239561461600197 -1.0942935681661528,3.6506818737289763 l-2.9438848980091468,3.8344130553572597 -1.12972227919563,0.2264310851495198 l-1.2943662997095133,-0.45085647020900993 -0.9866243098394458,-0.8784228000666462 m1.4433039693241325,-13.100431736782697 l0.07647905330065083,1.213430511413831 -0.593564721941973,1.8434612800410093 l-2.4271484728866275,4.65142150657083 -2.883091496918656,3.5164391460350855 l-3.7735247067359965,3.001616624522865 m28.372326017168135,-37.914317394874914 l-0.19880998700381897,1.457128782009125 -2.1613648545648245,4.4923530814659856 l-2.5251590422418166,3.7640846906431804 -2.973187074818316,3.7203543381191966 m5.242987285257184,-4.121385533871316 l1.245543731566369,0.2007892162761868 1.4778887857237555,-0.0943305325303448 l11.173337324948415,-1.668164135187631 2.4813187217124084,-0.12421873048472698 m-6.847191393821177,2.7246482624674795 l0.2537072752654609,0.7039174125668125 -0.061132338537220346,0.8505320457551716 l-8.23155138780919,4.415877767150033 -6.697039911783823,2.7328017098124278 l-7.290067371866683,2.2686195020181943 m7.697990223544962,4.425408549152463 l-0.00018563165615181378,1.244818848502417 -0.47537135403685166,1.4041687854055895 l-2.88249887631154,3.6826171370360874 -3.5502016013599746,3.2830961756109 l-5.02289905255569,3.518346868179493 m8.15166849079938,-13.919905166720104 l4.829429531551034,4.6575150822386995 5.616227402470135,4.6193290529174735 l4.259796150653805,2.9913767022413817 2.0994527533869833,0.8433440774091706 m-23.162046744084616,1.2809882791138507 l0.3048460124924446,0.7473230175531684 0.30036555011404925,1.5792251046329822 l-0.34747115460149286,9.198572492670552 m0.43510105068371663,-10.9343315084835 l7.271244115103029,-1.3403195381922677 6.164016197482611,-0.6550408824298481 l0.5729384696037607,0.11628972007709433 0.37091517398053264,0.38294841822507714 l0.13007404653757182,0.9195583599296004 -2.0921120601814622,8.480748774311651 m-11.341658114298747,1.1236376817547609 l12.828104580624322,-0.9495271100314475 " fill="none" stroke="black" stroke-width="1" /></svg>