<?xml version="1.0" encoding="utf-8" ?>
<svg baseProfile="full" height="103.13829900094429" version="1.1" width="103.33106416083575" xmlns="http://www.w3.org/2000/svg" xmlns:ev="http://www.w3.org/2001/xml-events" xmlns:xlink="http://www.w3.org/1999/xlink"><defs /><rect fill="white" height="103.13829900094429" width="103.33106416083575" x="0" y="0" /><path d="M25,25 m0.0,0.0 m32.80068543230957,0.8699119042040084 l-0.013122370369768542,0.48387292541955434 -0.543745185374207,1.2209441574350592 l-0.9149017010479427,1.2408005636642305 -3.659255223485528,3.438301528349082 l-4.542606780751505,3.3317622729145526 -5.242027255647543,3.013453207393876 m-2.453541707680537,0.13630292582095083 l0.672403975454764,1.1308524668105209 0.25584365961126027,1.0470602405370562 l1.9471207904837413,16.715833244901194 m-0.5230376647278656,-14.440747242683376 l23.94538504482061,-3.050606532935788 3.413441579799704,-0.12442653054672154 m-8.125694870578075,3.18132884600757 l0.393483928743585,0.9295035478477873 0.030801123301844164,1.0401169839126745 l-2.4260439212235068,9.998982593695308 m-29.34223376430535,3.2500649461227726 l2.1663418544304203,0.39767888570578186 2.9588763846469384,0.06666673935034291 l16.64121877342751,-1.6804788559753916 13.623867560530991,-1.1412777739546272 l7.511872038611005,-0.41947309743096794 4.755932459855658,0.41770807931920706 m-31.421473453776738,7.94793868433661 l-0.31684208105991213,1.1198935502642002 -1.0557145323679373,1.344366782518113 l-2.2740173537942234,3.9647271269146267 -1.8491649980759572,2.104393946243727 l-3.4047847846349537,2.785313781610469 -5.005583564750947,2.8175291031718808 m28.381853775559442,-13.843762953700546 l3.531436259797164,2.7584374462635473 3.8464824201807657,3.606177207298691 l2.8884425929928823,3.309103495973628 1.886298140602352,3.0483495834179117 " fill="none" stroke="black" stroke-width="1" /></svg>