<?xml version="1.0" encoding="utf-8" ?>
<svg baseProfile="full" height="103.14962778247536" version="1.1" width="96.22373684163651" xmlns="http://www.w3.org/2000/svg" xmlns:ev="http://www.w3.org/2001/xml-events" xmlns:xlink="http://www.w3.org/1999/xlink"><defs /><rect fill="white" height="103.14962778247536" width="96.22373684163651" x="0" y="0" /><path d="M25,25 m0.0,0.0 m24.48653042402509,14.381606806638795 l0.3306342837377725,0.3047772478237217 0.46234877566868793,1.2030880496954488 l-0.04460101010137611,3.313811620297956 m-16.012187256197425,1.6051550692371512 l3.832226806043591,0.11444803452164999 13.173032437637888,-1.262926632131204 l10.664580690862463,-0.700216025462013 3.0532751518096455,-0.0515390057913303 l2.4858737457205917,0.353645628324918 m-26.55651480507167,5.289933622660053 l0.6168501819594424,0.8476485898059285 1.6845511600630316,6.210912054423992 m-1.2335108093597298,-6.509524192358265 l14.957040931475175,-1.5336071702399716 2.2010723686364644,-0.06026972845640763 l0.7606253819575667,0.17600777432338963 0.596118700954735,0.6716835370015654 l-0.02335507857532468,0.5331673421566854 -1.686106302427694,4.229955894396097 m-15.142247470132359,1.5527174630322529 l16.106383777544504,-1.4208387398098066 m-27.156024308329254,5.503746861913138 l-0.7713331485685935,3.429120644883412 -1.5299041431717948,4.2524534861663 m2.6659048640032434,-6.244323448672101 l25.271153471514157,-2.1635223755086863 6.760945984010383,-0.4811949694150239 l3.4062678410679474,-0.11801781749216932 1.822784355088666,0.1677057578645696 l0.7318944955173952,0.2852788807151062 0.3094253442732911,0.3839169196767495 l-0.035347540436207504,0.47504347369739613 -0.8527165616657574,1.1383996030780765 l-2.3803805197303864,1.8224076337681205 m-28.961224378700553,3.064891473742891 l1.5844335679180421,0.23105016575406193 2.1918208436365014,-0.034373156416819366 l17.082751182109952,-1.7714671241948756 3.3450676471886465,0.023226438254172498 m-11.924502115591462,1.944069043760549 l0.5600493935932851,0.8012305039348295 0.12507098837273778,0.8713224499570486 l-0.20809927138999032,9.750093088521162 -0.4326392980758493,0.5689330083968331 l-0.6129072795565634,-0.0556897762332486 -2.519971886092572,-2.3048883347316163 " fill="none" stroke="black" stroke-width="1" /></svg>