<?xml version="1.0" encoding="utf-8" ?>
<svg baseProfile="full" height="109.49251115322113" version="1.1" width="107.38798696547747" xmlns="http://www.w3.org/2000/svg" xmlns:ev="http://www.w3.org/2001/xml-events" xmlns:xlink="http://www.w3.org/1999/xlink"><defs /><rect fill="white" height="109.49251115322113" width="107.38798696547747" x="0" y="0" /><path d="M25,25 m0.0,0.0 m15.371553897857666,0.6799443066120148 l0.4038415104150772,0.31568825244903564 3.1169643998146057,3.6445531249046326 l1.4245891571044922,2.4100755155086517 0.572580024600029,1.5188965201377869 m18.07506799697876,-8.569157123565674 l-0.26392947882413864,1.881488859653473 -1.5729525685310364,3.4276628494262695 l-2.1625812351703644,3.1894826889038086 -2.1662403643131256,2.2859957814216614 m-25.824565887451172,3.597981333732605 l3.1954705715179443,0.3066130727529526 32.699851989746094,-3.262791335582733 l5.126191973686218,-0.2252480946481228 2.922694683074951,0.2997209131717682 m-49.22208786010742,22.269163131713867 l3.96523118019104,0.36787591874599457 41.196489334106445,-3.360258936882019 l6.911876797676086,-0.20291870459914207 3.617940843105316,0.36109548062086105 m-36.959147453308105,-15.530933141708374 l1.059834361076355,2.899741530418396 0.013209987664595246,10.434013605117798 l-0.5204366147518158,7.094836235046387 -1.4675013720989227,6.979072690010071 l-2.1738913655281067,5.367698669433594 -2.3724856972694397,3.8308387994766235 l-3.121621608734131,3.6159446835517883 -3.973214626312256,3.3571401238441467 m28.31547498703003,-44.9641227722168 l0.8901810646057129,0.9793323278427124 0.4714013636112213,1.851550042629242 l-0.17592698335647583,42.64153480529785 " fill="none" stroke="black" stroke-width="1" /></svg>