<?xml version="1.0" encoding="utf-8" ?>
<svg baseProfile="full" height="109.41640316952692" version="1.1" width="122.95637593984259" xmlns="http://www.w3.org/2000/svg" xmlns:ev="http://www.w3.org/2001/xml-events" xmlns:xlink="http://www.w3.org/1999/xlink"><defs /><rect fill="white" height="109.41640316952692" width="122.95637593984259" x="0" y="0" /><path d="M25,25 m0.0,0.0 m30.875932560603772,3.252855474859694 l0.3407222703848331,0.4022098797715884 0.4679011896532591,1.6759894787442182 l-0.025927914465921926,5.536177932178343 m-19.688019843520763,2.013305092278071 l2.079860301065962,0.2166701341891739 2.2478696379255814,-0.05109219328381924 l31.158509388509408,-3.149847331538328 3.5208238470328257,0.2882836260898982 l2.413858956624046,0.42737283496674366 m-39.37253196042997,3.2380030816313403 l0.5410441317240571,1.5259685091956081 -0.22794024268001786,7.1572200812403715 l-0.6272162937044692,7.294671228518335 -1.0792021109156447,6.435472411045891 l-1.3363980029702163,5.0651228993958295 -1.3455604814033884,3.722638014099185 l-2.272844397098864,4.747378874124384 -2.1226368974097336,3.387849025309383 m29.33832048520172,-27.440203896705796 l-0.12697471002539487,-2.164407045752729 0.14144084382561337,-1.0143156122773023 l4.98631912231817,-1.1518402254267683 1.3688773527695166,0.647832520646082 l0.3634884426655472,1.1643462998063603 -0.11551549503930567,0.8448721588710126 l-1.2379233972353478,3.2195557809701647 -1.9801392292490079,4.492967049508001 l-4.204859572040721,6.486779151860715 -5.121568993452225,5.297853962999408 l-5.892365503290233,4.2443827214267404 m7.232408429550878,-18.684698316225617 l3.2221425014396385,0.7656980704041602 3.2520843240995103,1.5058798710878813 l14.942490092412285,8.737594164015457 5.575269194436247,3.376390067772864 l4.966201293657358,2.29662072176727 m-15.383388602129461,-29.237829749898907 l0.5832055614530741,1.5636800448699206 -0.055144421088765584,5.383313602629767 l-0.3350445888847381,4.1131252560935305 -1.0476755900979666,4.040271407907016 l-0.9827351291598682,2.087916778031294 -3.121978539257856,1.6437963262009128 l-2.5222902394282323,0.5622881513051597 m8.289275024457533,-15.44411301194789 l10.032379803548594,-1.7361743723614131 1.3962642856801826,0.03269158968850434 l0.5316060231489228,0.34061932656104105 0.38120060574206516,0.627628937997927 l-0.38195981243617133,1.502627919332283 -1.0360560478292817,4.8358453363889415 l-0.5054209479980619,6.128303474410532 0.5031418064752496,2.777323278424976 l1.1326158090544132,0.8172739672383672 2.041841172625128,0.2564286242006907 l3.673210944907984,-0.1295815393042305 2.521356361535465,-0.8620017768835964 l0.7118741211616506,-1.4792314549499477 0.17522344576006493,-1.95031197939081 m-24.415823129060776,12.467114719307645 l1.382654766529834,0.2352350180863522 1.917370139144189,-0.1140359344594902 l13.115046001982206,-2.7481515459094776 0.7473799375449043,0.35586024739956873 l0.3231574173392583,0.6185049856186394 -0.5851188787073849,1.5435152002417736 l-2.619859384794461,3.9627865622533642 -5.359063012969237,3.4503888044475732 l-7.124336930948095,3.627887092869212 -8.411101578738686,3.4804566822074734 m6.432043006126313,-13.061324356206118 l3.8644087327863996,1.6109128068936285 17.431962430620604,9.240736727553186 l4.292776862133894,1.8728433752175604 3.1054391926446545,1.1882261498981401 " fill="none" stroke="black" stroke-width="1" /></svg>