<?xml version="1.0" encoding="utf-8" ?>
<svg baseProfile="full" height="104.21566823603459" version="1.1" width="97.18853757045721" xmlns="http://www.w3.org/2000/svg" xmlns:ev="http://www.w3.org/2001/xml-events" xmlns:xlink="http://www.w3.org/1999/xlink"><defs /><rect fill="white" height="104.21566823603459" width="97.18853757045721" x="0" y="0" /><path d="M25,25 m0.0,0.0 m14.161650181162424,3.960891151674777 l0.47080643821071694,0.24274244454977148 2.9104369616530783,2.168440103454692 l1.4537321048069902,1.4233466516425188 m-8.709632346142262,5.314323215224582 l3.6934253273921414,1.9471399401608087 1.7231543697164364,1.420555372377903 l0.7124961427182426,0.8592901166867278 m-5.924992592163425,16.466905966177563 l0.752300496813026,0.3744847898819504 0.9049454380118788,-0.011023842374721825 l0.9888153819877128,-0.6784077156918246 2.152069927612396,-3.2925384023705364 l2.464936679343892,-4.3293864281819525 m16.562897392844153,-21.62702299268414 l0.41677924548772183,1.142120228052904 -0.49240159110527876,3.283658581927698 l-1.0518584089348226,5.752906581120302 -1.3439484690169583,4.492672593116141 l-1.3926833813012314,3.3919618295647846 -1.689967154453801,2.937405442054313 l-2.073818318384633,2.585408794114611 -2.231877338478121,2.045755076938972 m1.5507718164030138,-16.609852253742662 l1.6076367995334309,0.18105901236464136 1.5219379002093505,-0.26814262022602386 l12.917871482276043,-4.1198534071362864 0.9058275156437624,0.1437035303956918 l0.4005725051166093,0.44944845215483176 -2.245431039987631,0.6620538136145261 l-2.3630613459429615,1.4291672594073717 m-7.745541970067633,0.2125533510233929 l0.4627155777135706,1.2496314433419689 -0.23751189443441978,4.043716172674374 l-0.44275592431017147,6.251738187408571 -0.5759684901940989,4.3895799266821145 l-0.6629182260888528,3.207053687471351 -0.7985849380354273,2.3599175564148953 l-1.0523525815272543,1.9996423835126043 -1.3870789886663428,1.7321320501093087 m3.118150191486683,-15.914208034158793 l2.1961846356236117,1.6780831395322056 2.3103145781778522,2.3193056596121617 l1.9860975929626061,2.594219204535918 1.4610853247679896,2.5034660306872834 m-23.575984232158394,12.25815077949962 l-0.09151575506353837,1.8804606694047543 -0.6230963047181458,3.1032314842518147 l-0.9729321870080939,3.2315359788797497 -0.9033504756479117,1.947336539860336 m7.912028916232716,-11.891892741256253 l2.2135378171587794,4.625055019304216 2.319919108687857,3.22906584466198 l2.8743655921511073,2.5108724476719093 3.629062489168629,1.7621996903224542 l3.780260587376744,0.8844081238319431 3.2803336251148445,0.3092003565047905 l4.6112102805395825,-0.011805094202872762 2.089134993516528,-0.5112972211737481 l0.5055276962134425,-0.4317264504807919 0.1614321472024509,-0.5680385801597151 l-0.21192676932762536,-0.6608980019439279 -1.5449262200610587,-1.5351880723084192 l-1.4664027734634217,-0.8905381082266202 m-13.340847914591144,-9.2231514433458 l1.1009585843215233,2.572912383409492 0.8434274479652448,0.8400455857744766 l0.43838343854947487,-0.06199753358878412 0.43912327771679843,-0.5014740282050714 l0.8849335597385855,-2.0623768490674066 m7.868625929210571,-2.8133859506230996 l2.9187132381683094,1.17187066333928 1.7105913766577279,1.1796546032016446 l1.4787171104396584,1.4988585006586463 1.4740059779259442,2.133709158380132 " fill="none" stroke="black" stroke-width="1" /></svg>