<?xml version="1.0" encoding="utf-8" ?>
<svg baseProfile="full" height="107.71506783828306" version="1.1" width="101.31217573131423" xmlns="http://www.w3.org/2000/svg" xmlns:ev="http://www.w3.org/2001/xml-events" xmlns:xlink="http://www.w3.org/1999/xlink"><defs /><rect fill="white" height="107.71506783828306" width="101.31217573131423" x="0" y="0" /><path d="M25,25 m0.0,0.0 m29.740714318844308,3.677686245501819 l0.3380197647631621,0.4149185134740445 0.4144052599287851,1.5561330418717707 l0.0018820032350464833,5.060814845948156 m-16.918478596428173,1.8511460329325107 l3.617426383026886,0.277773718368379 14.487327700606036,-1.673169653774305 l11.972240062414295,-1.0095266863184427 2.771256900637805,-0.0963024912434979 l2.3561883084395587,0.4317651776658917 m-27.858412786546484,7.586867918677146 l0.5979740209286064,1.1840385040989603 1.6031250130958934,7.752172957055843 m-1.1900287688760711,-8.408863140109029 l15.015651127774614,-2.174156633067393 2.2697599362262157,-0.19464044508272266 l0.5596472528805446,0.16214924777836914 0.44092927099847834,0.3920773067760939 l0.19791697705345787,0.5842195049709429 -0.057516885552714225,0.7742208617582549 l-1.6869899822724037,5.742226636282613 m-15.059561750331302,2.146933646801828 l16.044534436946332,-1.9162557040338564 m-27.048608822585035,7.478679332410004 l-0.7787906156378774,4.5336402381893315 -1.5617560231552154,5.633874969961661 m2.8270078030091965,-8.708712071149229 l25.0149407789842,-2.9512438855618597 6.982814213053638,-0.6441821583674598 l3.378806247317131,-0.06303789814497834 1.710099199987514,0.26642528100355173 l0.748477425031859,0.3760173873490237 0.3540536714896474,0.5039972422643672 l0.027121886026304852,0.6228015417614655 -0.7344072592308484,1.515443080626725 l-2.503075196301928,2.4957275699497594 m-31.253217223517005,5.344086253950376 l1.6606096640201162,0.29571105609025894 1.7213950617300884,-0.06648987104212205 l20.566729579042605,-2.4729969462285695 3.6386123277061033,-0.18472430744116483 m-13.327616181927562,2.1573180351104866 l0.5229921249747964,0.9765214086353075 0.1290172258208171,1.177244059888755 l-0.19886646863047266,14.449542002253992 -0.4048632539891024,0.763668163144785 l-0.5786651158042525,0.09352794729521552 -0.6826684789247137,-0.3765461143546973 l-2.23518246406327,-2.6662435231717456 " fill="none" stroke="black" stroke-width="1" /></svg>