<?xml version="1.0" encoding="utf-8" ?>
<svg baseProfile="full" height="111.81378699819577" version="1.1" width="98.90677134319827" xmlns="http://www.w3.org/2000/svg" xmlns:ev="http://www.w3.org/2001/xml-events" xmlns:xlink="http://www.w3.org/1999/xlink"><defs /><rect fill="white" height="111.81378699819577" width="98.90677134319827" x="0" y="0" /><path d="M25,25 m0.0,0.0 m18.75826938448383,14.339658948885399 l0.4425718374524895,0.13545252841882238 2.68023559007185,0.10482986565584125 l20.877463835413177,-2.196959321788495 3.467867567601831,-0.14930216511263644 m-28.012132418439396,-5.484408047292216 l0.6738147544864098,0.8987119023184128 0.3309135371684917,0.8943025227425503 l2.064389436159503,13.742051758793956 m14.947047110842417,-17.4549281869652 l0.2475801068437985,1.2249983063474492 -0.06424103508658234,1.1511482924882566 l-2.2679429980099477,14.135725460547732 m-23.209947617955795,8.31498955918517 l3.4539124424736305,0.28021036418627565 12.897996369967519,-1.5799012440279954 l14.420679851493418,-1.0150548119304155 3.79481064449486,0.00525138067381299 m-25.722821562268656,-6.943840816880569 l0.5564759406872333,0.9085000712041448 0.2622203701282419,0.9778643692900191 l1.7229391981032938,17.035129460873833 m15.05506762643039,-21.026094690382997 l0.3406710869385081,1.0530494393995942 -0.03487566134291462,1.1912780873734519 l-2.6311622625030133,19.06794476796463 m-24.819021924066902,2.4568911783201246 l3.970209680508311,0.28763004200410736 14.133959377801155,-2.5557261171538572 l13.03930360208991,-1.33468614639297 4.25419076227433,-0.17243987626787757 l3.2763267089568964,0.40414789433191783 m-25.112058942952203,9.786776587138407 l-0.5045390906049282,2.2761405729498185 -1.683349614720837,3.209767122291244 l-2.811742344590825,3.634353252747725 -3.45275624781085,4.210324686258304 m19.532902672049907,-13.430543171826056 l2.4906553279418016,2.3205175471756885 3.0525440166821105,3.6149742846685715 l2.404422855757925,3.7046470219620375 1.2786401916845427,3.0788762876859344 " fill="none" stroke="black" stroke-width="1" /></svg>