<?xml version="1.0" encoding="utf-8" ?>
<svg baseProfile="full" height="93.75415352153004" version="1.1" width="101.02173366489436" xmlns="http://www.w3.org/2000/svg" xmlns:ev="http://www.w3.org/2001/xml-events" xmlns:xlink="http://www.w3.org/1999/xlink"><defs /><rect fill="white" height="93.75415352153004" width="101.02173366489436" x="0" y="0" /><path d="M25,25 m0.0,0.0 m14.480407820605683,4.600449512471343 l0.4681028000068042,0.22111773394742953 2.9734497820566235,2.0410045341411744 l1.6037262814635072,1.2448403759873383 m-7.354100627165832,6.311806450968672 l3.2411001821076684,1.760190786476737 1.3676836746925491,1.2775280286190605 l0.6545420708012819,0.9706720024446083 m-6.106310313278287,19.396262668588456 l1.0488918630938842,0.4512822087635203 0.5180453542620814,-0.014257692217896368 l0.794838243472956,-0.5788957569593997 2.0137657446805974,-3.6765853643420643 l2.175696552259824,-4.665608782579794 m15.902390929536509,-28.108338427588667 l2.0475534521806398,1.0459198892800066 1.2070819707199438,1.0545155564471524 l0.9162170274812131,1.1047965299228022 m-12.914149255034836,3.6873711160871268 l2.0136743638891184,0.2105470027157687 19.131295346118083,-2.0527285958093198 l2.2717362643760852,-0.10616399891182315 1.2164797475976987,0.2408076997112778 m-8.307890990029078,3.7015649239583284 l-0.018358406163351187,0.987135970327746 -1.3574345116474567,1.9759343647466032 l-2.771335090838346,2.8842878978938047 -3.0125059016767963,2.4747282759314815 l-3.2117451621519324,2.1655963973058747 -2.746951553730657,1.5457919481725464 l-2.948860007501415,1.3901500104723465 -3.2589992558979852,1.1870081925845273 m5.67880881261746,-11.610974439083206 l2.2083869146274524,0.5797475012896947 3.042777062264389,1.3061760449205473 l14.415581566533566,6.799923383848371 1.739552571343698,0.46598045826906687 l1.8985883412210236,0.15834531127489643 m-23.470174166816733,3.1760624424410344 l0.5348075103522704,0.7821417907344854 0.020962482964220177,1.7870219630243351 l-0.23533971029221212,4.127737986974015 -0.5746393736113996,4.107132840237786 l-0.7358532726122929,2.421931862816283 -0.883507547901542,2.1302702901607065 l-1.0054281021929552,1.548084558892218 -1.2067446989347697,1.0959972788407095 m8.509151230037856,-15.615112342645965 l8.53052479833682,-0.7313996352521651 m-9.061776356362195,6.743617252737494 l8.476030063253042,-0.5998934523790596 m3.239826863503407,-10.003591721579165 l0.6261173978702864,0.912104421871408 0.22291967435587015,0.7668301211429799 l-0.04249955616176124,18.677288143436776 " fill="none" stroke="black" stroke-width="1" /></svg>