<?xml version="1.0" encoding="utf-8" ?>
<svg baseProfile="full" height="111.92132599669453" version="1.1" width="107.03298572709657" xmlns="http://www.w3.org/2000/svg" xmlns:ev="http://www.w3.org/2001/xml-events" xmlns:xlink="http://www.w3.org/1999/xlink"><defs /><rect fill="white" height="111.92132599669453" width="107.03298572709657" x="0" y="0" /><path d="M25,25 m0.0,0.0 m29.01599677439508,4.9613064654570405 l0.39383093256754365,0.43406952324593273 0.6159342571895651,1.486875877474163 l-0.049983598427852334,5.115010573266765 m-20.463276377195875,1.7107287028294305 l2.1663725396645925,0.13873553728238192 2.670871636457557,-0.03391688389788143 l18.111237387176153,-2.638290188072362 10.591847390682126,-1.084642234409549 l4.892315392317892,-0.23705821545188166 3.286080756564809,0.3416552790063352 m-37.83259994530424,4.015185189687592 l0.5873702088796551,0.8837298368812297 0.24045891326754448,1.2304693727210498 l-0.11996420340340037,6.397980629310331 -0.6414112670798969,7.719439830042176 l-1.1859305050162712,7.120655288303981 -1.3679762888066596,4.917798422956929 l-1.8115840308882116,8.026933409570788 -2.060169778846229,6.8765720215526125 l-1.6841224353720088,4.53808755893747 m12.955706515819351,-42.38181340294216 l1.0574374876497408,0.28714158556692443 1.6292817754961444,-0.08889029852766048 l8.355490202744296,-2.5636300389630184 1.037699215399533,0.09178165333082061 l0.40041974074794623,0.5626649732757566 0.109965863303985,0.8351514297136164 l-0.4262571756205026,1.0430924157801935 -1.6618641567043397,10.412393000316499 m-6.614579962359893,1.6853513366142632 l6.6926669278939865,-1.5054334067611987 m-7.919758782344579,-10.442270768312683 l0.42174465075186196,1.778374137540465 -0.04408400715592131,18.092847099923034 l0.15393932691625692,1.9741259890653986 0.3491168927357273,0.9312506837562129 l0.6681533266554052,0.5957283677720833 1.2617803415885587,0.309470232625073 l7.832258277844575,0.008812204440824823 0.9760640426460626,-0.4633001852448405 l0.641298454178485,-1.0425365981121244 0.2970031995104917,-1.1679095789874427 l0.12975540015744022,-2.2765389203842292 m6.154240143306203,-31.651962887013838 l2.0045860892253278,0.25976655603733684 9.19443500209357,-2.171896314947614 l1.4375685844442694,-0.07150139764362554 1.0210466602751047,0.33180974318734907 l0.5958030784309847,2.341997682270225 -1.4814713682430307,11.627788236037972 m-11.937931996067803,2.2063871438991223 l13.580701716344933,-2.142598688194346 m-14.564187898836773,1.1102284799139752 l0.548389316893311,1.8579230934380908 0.01935481582978331,8.909574823837115 l0.33357269947945556,2.325134295714638 0.6543310642723845,1.3353525264976864 l1.0200921822363167,0.964559348120932 1.4273533449253166,0.6672680601287367 l10.567141680139937,0.43522010510368153 2.5716575841308877,-2.1452271145928905 l0.22776771153991437,-1.9759443530100123 m-37.94294123481787,-13.36138722243701 l3.728401393800951,1.2944935676324365 16.305200539495512,1.7770269538206287 l5.454534398908371,6.112953652307672 m-41.57146355238756,12.755866954032557 l3.277697264639554,0.36843437750539987 16.405788758100382,-1.824255716179913 l14.591156360605734,-1.4241957559807406 6.529809691794802,-0.22758827555179204 l2.9487300761904027,0.4087729885149225 m-22.45029345242908,-7.925314248695694 l0.6959420407488067,1.1556391167116424 0.21979220043771994,1.3229815510126521 l0.017140713537535546,27.365402885400158 m-2.0305291691894842,-22.540188296502446 l-0.4644291652490483,1.711248598773895 -1.2979223167369731,1.986144822124764 l-2.6842527848158664,3.181241794230527 -3.0266907443222513,3.0615533537899955 l-5.853539484082694,4.848825873755121 -6.517610309691506,4.0637742065251485 m23.359643350040706,-18.603273217767278 l13.553552419222108,12.628959904926804 3.422550015691271,2.487945273077096 " fill="none" stroke="black" stroke-width="1" /></svg>