<?xml version="1.0" encoding="utf-8" ?>
<svg baseProfile="full" height="105.5894738632237" version="1.1" width="109.03308503791646" xmlns="http://www.w3.org/2000/svg" xmlns:ev="http://www.w3.org/2001/xml-events" xmlns:xlink="http://www.w3.org/1999/xlink"><defs /><rect fill="white" height="105.5894738632237" width="109.03308503791646" x="0" y="0" /><path d="M25,25 m0.0,0.0 m30.922623244707424,14.370155214910461 l0.37773557047217443,0.38692709726031477 0.4764490495661351,1.2614060298521157 l-0.04133090736610398,4.263057426922661 m-17.692884599769876,1.916447396133495 l3.87941892206875,0.09603529247200211 28.38904028551302,-2.1883506232280916 l3.2908233217562253,0.09255849316897415 m-31.718398218772894,2.7996910947891482 l0.6641450053831865,1.2308530754476688 -0.1330842139238345,3.141989546272437 l-0.7827855735468747,6.389274260928867 -1.224938794556858,5.927836892243691 l-1.1994901826644593,4.078363297494477 -1.5502457715927687,3.9296108822725517 l-1.8805740820016128,3.655589039392174 -2.279742938401417,3.6174726829096646 m12.250084514944994,-23.319541918419155 l3.1099355104280137,0.0977529941389265 21.571476138777797,-2.351936791181816 l3.2777694336117196,-0.19819386497178015 2.077582550354736,0.20681626187946267 m-23.066367133928605,-5.193335775794508 l0.5601416878197464,0.6262890005854594 0.3463763523527465,1.1561394003859449 l0.8982692402461937,16.73341337294168 m11.796906584269113,-19.829673810459383 l0.4958542535789655,0.8493873546380498 0.07534446480189916,0.9379187805536634 l-1.582469701688352,15.338281544890322 m-9.977748282282848,1.620073190500031 l8.690975823754766,-0.9934402589579034 2.656464335787201,-0.09362190242779675 m-20.256202457092325,6.067839008867726 l-0.32548239480419905,1.6604255000204922 -0.825485511342704,2.4267690281258956 l-1.3190032136168643,2.7000873514685595 -1.3348588270280648,2.1791082971972147 m11.417379405528235,-8.701580474649877 l1.3392020170749748,1.094657716535931 1.4657496650838793,1.9174277295527105 l1.171114480602003,2.240076592222846 0.8016479722518031,2.3064630863038706 m6.506883974328402,-8.406398762159768 l1.4021672703152743,1.486677953626366 1.6438332194349665,2.2713933732450795 l1.2871443384452645,2.3171417021750114 0.5830670583206419,1.918521920640227 m6.369218048578696,-8.792139381290323 l1.8716363139718861,1.5414076299715431 2.0830439249103105,2.334787181868545 l1.712586178936986,2.3941873448925666 0.7620876843190053,1.7856830222877862 " fill="none" stroke="black" stroke-width="1" /></svg>