<?xml version="1.0" encoding="utf-8" ?>
<svg baseProfile="full" height="103.25689406184225" version="1.1" width="107.03134255570313" xmlns="http://www.w3.org/2000/svg" xmlns:ev="http://www.w3.org/2001/xml-events" xmlns:xlink="http://www.w3.org/1999/xlink"><defs /><rect fill="white" height="103.25689406184225" width="107.03134255570313" x="0" y="0" /><path d="M25,25 m0.0,0.0 m5.813218477497412,20.06815664652223 l0.29798745359124684,0.36189241794076843 0.41861448233549126,1.3444758520231082 l-0.05099007547099899,18.38673623030446 m0.5410759298465264,-19.598144969881385 l12.21211423439817,-2.100682941677124 0.6457938230300371,-0.003323486048870956 l0.9589792416917371,0.38232972330932596 0.4560071975578947,0.9644753289143674 l0.018110716312985598,4.805954166141542 -0.14697542216162643,5.194397218085567 l-0.460107088685995,4.724314532636831 -0.3096576262256907,1.1273389203495376 l-0.5006347594870184,0.2767619062254025 -0.5903736717399192,-0.3473390110157902 l-1.069856182138608,-1.408202061065297 m-5.132988927714317,-25.63940340557262 l0.7795179054841574,1.218215557347914 0.15978828980524995,0.8623028268691959 l-0.07604551736120035,42.63663861043309 m15.503722310555407,-42.77376630368872 l0.5745205839776182,0.722493660547133 0.3200351481178271,1.1920660471258115 l0.04871085522825858,18.553777805141607 m-0.0906313298943975,-19.443883366640087 l12.082988889463154,-1.856542803206454 2.4135303996681117,-0.0028952757186313243 m-13.486061365961408,8.29200692591847 l11.528563071900788,-1.6936216318378239 1.7366711472433942,0.036802616930227766 m-13.11483351886832,8.259531314433199 l11.972908722866343,-1.528574861161306 1.9261320376892077,-0.03765337937440964 m-21.897532234867228,9.082488680694734 l1.6687396318692806,0.1957513512160543 2.1527061965419203,-0.07711652545845712 l19.31395081669456,-2.7818224721538454 4.547315151159041,-0.40227545218312566 l2.708288148185544,0.1522927004466524 m-25.247495765141803,4.390371112973249 l0.6523291531959332,0.8465237551543944 0.3130217781855929,1.0550078984244131 l0.07554943926053702,13.763467610266659 0.16955392077380707,0.7901235957977579 l0.8615260188499482,0.4569328981903798 0.6609509786112336,-0.35179601920498443 l6.7519276723444355,-5.509380870407151 m9.058280150917659,-11.976551093408482 l-0.35769832737075463,1.0862210418973701 -0.9408968850212766,1.0150511663272928 l-4.216820427974423,3.065354657491045 m-7.276345069541956,-3.466458385166956 l1.1159486184026113,0.4383762872371622 2.345841081918809,1.697810917604217 l13.90892369315215,11.360054617032445 2.678382032066951,1.5769633213931544 l2.605061350939047,0.8909418392502938 " fill="none" stroke="black" stroke-width="1" /></svg>