<?xml version="1.0" encoding="utf-8" ?>
<svg baseProfile="full" height="107.27482059155591" version="1.1" width="109.49251829180866" xmlns="http://www.w3.org/2000/svg" xmlns:ev="http://www.w3.org/2001/xml-events" xmlns:xlink="http://www.w3.org/1999/xlink"><defs /><rect fill="white" height="107.27482059155591" width="109.49251829180866" x="0" y="0" /><path d="M25.000000237487257,25 m0.0,0.0 m34.01406764984131,2.125408500432968 l0.39147157222032547,0.48221226781606674 0.48694923520088196,1.6621896624565125 l-0.031040026806294918,7.902788519859314 m-22.339606285095215,2.12910458445549 l1.988300085067749,0.4288456216454506 2.1165886521339417,-0.013026598608121276 l32.33290910720825,-2.7237433195114136 4.895132780075073,-0.1317109726369381 l3.3466297388076782,0.3679172322154045 m-43.366427421569824,3.154023289680481 l0.5162835493683815,1.6451539099216461 -0.7548364996910095,9.462764859199524 l-1.1188751459121704,6.456151604652405 -1.4628033339977264,5.406201481819153 l-2.105463296175003,5.456265211105347 -2.0776501297950745,4.032226800918579 l-3.5357600450515747,5.17257034778595 -3.2958704233169556,3.6442315578460693 m21.827843189239502,-19.33577537536621 l1.8262878060340881,0.3877776116132736 1.9945579767227173,0.04680449143052101 l22.097978591918945,-1.8260705471038818 2.6599901914596558,-0.06989166606217623 l2.6519936323165894,0.3364751860499382 m-17.73373007774353,-16.276317834854126 l0.6595218181610107,0.9925854951143265 0.24449588730931282,1.9552716612815857 l-0.049841138534247875,32.398269176483154 m-22.584362030029297,1.460195779800415 l1.9914290308952332,0.4526607319712639 2.79870867729187,0.09326132014393806 l34.656360149383545,-2.1749748289585114 3.241634964942932,0.06800666451454163 l3.209649622440338,0.4643944278359413 " fill="none" stroke="black" stroke-width="1" /></svg>