<?xml version="1.0" encoding="utf-8" ?>
<svg baseProfile="full" height="104.98741706704214" version="1.1" width="103.9822093259733" xmlns="http://www.w3.org/2000/svg" xmlns:ev="http://www.w3.org/2001/xml-events" xmlns:xlink="http://www.w3.org/1999/xlink"><defs /><rect fill="white" height="104.98741706704214" width="103.9822093259733" x="0" y="0" /><path d="M25,25 m0.0,0.0 m28.06986182207088,3.998656797687167 l0.32875455928631503,0.44543698116648756 0.4205357603616039,1.7181106265993689 l-0.03471301172357326,4.941680379648836 m-17.410150060567066,2.133751927355437 l1.8082373370026827,0.22978926430205932 2.0210746501761534,-0.02443115119206157 l27.259426083978866,-2.735848300615065 3.0700499710746474,-0.10058986746015973 l2.5409491018626893,0.2702184221989321 m-34.00782405366281,3.148711070026394 l0.46146393586255063,1.364862632654104 -0.1693841926655186,6.585260580388185 l-0.570485557729238,7.548811516322567 -0.9580014256501137,6.62144612870808 l-1.1576654582195793,4.9786543425790795 -1.5636296824963802,3.625987561182736 l-2.2162095127563006,3.29862766693678 -2.2752136580195517,2.3975863927730843 m28.17572829752173,-27.699717175528352 l-0.02448604377346854,-1.9576347472572913 0.2552142130163236,-0.8643239372049739 l5.377564719274456,-1.3802137329085762 0.7967787977709928,0.6461974740834483 l0.2471224340690069,0.5987506079219712 0.014085139449144354,0.6962934965796425 l-0.13603284173484825,2.800323628579885 -1.1024439386694156,11.885102154642992 l-0.35971783893535575,1.0184237623130914 -0.4531632464693954,0.4537091895440822 l-0.5299904650002696,0.06643145735828102 -0.582708153141633,-0.20341329171292086 l-1.6661550289156162,-1.0608524311775513 m-7.3710729385733105,-10.863899473196756 l-0.26726604972887685,1.380370458977852 -1.9015863898954872,2.8157239124451663 l-2.2371333839932968,2.4992836348744913 -2.607112697465189,2.4366964100082975 m16.80819698384463,-16.67641469951337 l2.0131559608263263,0.3843604273288662 11.302065073876877,-1.602588681131161 l1.5644488163131103,0.032162822317889965 0.48196989000172374,0.31583886958578894 l0.43167478570911005,0.5357697128499537 0.13599662240979338,1.4953209825752933 l-0.6531961465731984,3.2582354229044763 -1.148952169164905,3.5952245591659016 l-1.476013764349547,2.978333227521295 -1.2793896219892333,0.8194617342531276 l-1.1835365091391403,-0.45895781400624674 -1.0220061646472554,-0.9543832895509514 m-2.604942265467616,-10.611365602892548 l-0.21314702414337397,1.4013417408120927 -0.9132967795148452,1.9108983776531367 l-2.5152754169354856,3.700249276834531 -3.117493061683402,3.1211482441067764 l-4.309794959468534,3.2131301849722838 m-10.748572320275073,3.866152131000281 l0.5319958334530962,1.0380696904818827 0.20751898536225694,1.1203787195576853 l1.5925549059990967,18.79107666061037 m-1.2436216964946156,-19.904385818806006 l21.34600932366081,-2.430241828986031 2.10335150282126,0.015057778246876222 l1.0038837799456068,0.5382049625010606 0.41716299633621695,1.2964363850610146 l-0.05454830420867652,1.9605965590814847 -2.019117881917239,16.886140093667333 m-13.123473408044747,-17.206411030866818 l0.44969680788150806,1.661963906604395 0.028186916822954884,13.504936121721071 m-11.575870951487554,-7.234615453129307 l24.558601959667605,-2.0947569356249174 m-23.55686319339671,10.890951601924606 l13.812890479253365,-1.2099897258179497 8.39966458643277,-0.45192658393945023 " fill="none" stroke="black" stroke-width="1" /></svg>