<?xml version="1.0" encoding="utf-8" ?>
<svg baseProfile="full" height="106.75606606191519" version="1.1" width="102.35653060504205" xmlns="http://www.w3.org/2000/svg" xmlns:ev="http://www.w3.org/2001/xml-events" xmlns:xlink="http://www.w3.org/1999/xlink"><defs /><rect fill="white" height="106.75606606191519" width="102.35653060504205" x="0" y="0" /><path d="M25,25 m0.0,0.0 m23.474899099240726,1.1967067944552259 l0.07773504520368471,0.42003752733886723 -0.07687293580508489,0.9751746509367177 l-0.7924318819034767,1.7313661479912668 -2.771121597895326,4.087983128151119 l-3.4710202046920795,3.9004209897550877 -3.80944165107629,3.041007501355366 m7.757155066341301,-9.195978163669475 l11.404954923338225,-1.6785132845870172 0.7216961722824751,0.08587323784960293 l0.42434997761039767,0.49812765649901863 0.12464447924149999,0.6457523376157138 l-0.1730705395717245,0.6487247337646921 -2.9204233508882864,9.135245362255976 m-13.54204574026363,1.8098477135619269 l0.5709305275732642,0.26412622107696626 0.7322586644591406,0.038245956245041936 l14.523523688010593,-1.9681712385508978 6.153725516863592,-0.6368501145390546 l0.4993005567827092,0.6080369074452063 0.05697415503727705,1.136146027535836 l-2.1716258428488877,11.341219234931819 m-27.448362530162,-10.365652635262071 l3.4516571537981187,0.24020569576201065 25.226889654088964,-2.9671083897821027 l3.0501365577486625,0.20887913061647578 m-27.16593954504753,10.171008240530082 l2.4056058146351336,0.23765437837270467 14.157902368717483,-1.8728283764948828 l4.102623344539003,-0.18901977998791095 1.6562857160348723,0.13076600553855447 m-11.56353267581011,8.289120277738508 l0.048552849260073125,0.8660685641890272 -0.09312744319583223,0.991778101700335 l-2.089897067830319,4.209438436646694 -2.484907302862245,3.6708604648869945 l-3.553527604511857,4.818991276786405 -0.03865889806348535,1.0023545632235316 l0.8014858151218248,0.6760317792490902 3.2744046112539213,0.5220797474308042 l12.977689007182995,0.7726503239712863 6.794371926176046,1.745468853019273 l2.6556851009646154,1.2156433365104065 2.3739259632847984,1.6009490675070808 m-8.926623092205057,-25.10544591640193 l0.03265462991680751,1.1724880183778246 -0.16976128837020588,1.044375433925408 l-1.4222773189122213,5.6794486519777765 -1.8365458068628007,4.505560284744209 l-2.6553703380592535,4.549262560488796 -2.9311854448258345,3.611522450785268 l-2.6601505119650537,2.508072326212001 -4.12041549334174,2.899206840253935 l-3.5758330800751383,1.8317070219806169 m-7.496123529965264,-18.481265888671555 l1.7403769284675108,0.20826751714778602 2.608052458849096,-0.048085591161165495 l19.857085433252006,-1.8601408153063521 15.680221298905694,-0.7757408280843155 l2.8990688178702575,0.4387517248858748 " fill="none" stroke="black" stroke-width="1" /></svg>