<?xml version="1.0" encoding="utf-8" ?>
<svg baseProfile="full" height="107.19203783208366" version="1.1" width="101.4436186121354" xmlns="http://www.w3.org/2000/svg" xmlns:ev="http://www.w3.org/2001/xml-events" xmlns:xlink="http://www.w3.org/1999/xlink"><defs /><rect fill="white" height="107.19203783208366" width="101.4436186121354" x="0" y="0" /><path d="M32.56621051302185,25 m0.0,0.0 m9.093615170237891,16.164054652225175 l0.42117488058484503,0.12433768954546727 2.950891458578298,0.16918784659094716 l25.247837884843786,-2.627179064156756 2.50807922549389,-0.08734185484765636 l2.375794817561551,0.29589250154614394 m-36.595730266766694,19.892506589776023 l1.876846556745018,0.2756895532107502 2.6069432352867383,-0.09703248548821305 l26.930403409268955,-2.569500620032371 4.209540636739669,-0.16312067002813796 l2.252011090539606,0.23796933184874816 m-44.78161668950628,-27.993288940364657 l0.8726631904422446,0.7098222683690433 0.42096802906060826,0.9169961359974905 l0.02862899923430605,17.139652035852098 -0.5875569540044345,7.725939904596526 l-0.8460504304125939,5.567768857479914 -1.3193962113615545,8.32116554740802 l-1.1813101442140082,4.728650706181474 -1.7306306273921401,4.015775097978563 l-2.319317773981544,3.313663652383295 m26.348187780315982,-51.639344116005546 l0.7099460797045074,1.191028132506442 0.27663654622712114,1.20774893659936 l-0.05425848093253166,50.37099614291151 " fill="none" stroke="black" stroke-width="1" /></svg>