<?xml version="1.0" encoding="utf-8" ?>
<svg baseProfile="full" height="97.03603777945574" version="1.1" width="97.89874079115702" xmlns="http://www.w3.org/2000/svg" xmlns:ev="http://www.w3.org/2001/xml-events" xmlns:xlink="http://www.w3.org/1999/xlink"><defs /><rect fill="white" height="97.03603777945574" width="97.89874079115702" x="0" y="0" /><path d="M25,25 m0.0,0.0 m15.756902754410635,12.700787039166634 l0.41339034133294744,0.09092975593610887 2.654489518398638,-0.01237992198612728 l20.66877254264361,-2.1670931500739363 3.4400483058677387,-0.11442672830689847 l2.059099288046712,0.20402867170611774 m-22.991056755942598,-4.5252548679315225 l0.7638513143098183,1.2697708543348873 1.223458003167615,8.421651853841356 m12.198147478333853,-10.801164060809551 l0.1635472869068677,0.8751688744896242 -0.09300333224600167,0.9883316430884675 l-2.0659333063740077,7.707855879461289 m-13.79801712404428,4.669580531168579 l2.497120824765864,1.445337333824136 1.8369944833232432,1.2556738631651703 m-6.416875793312317,4.131787940106452 l2.6526479691234153,1.6899004449971382 1.2021886292722992,1.1294088984236714 l0.5931115365521381,0.8339964087848456 m-4.3750441781749325,15.13304295054042 l0.9004679920976562,0.2074864424906989 0.6164773241044069,-0.5567310998960517 l3.723463262350997,-8.484960657166152 m7.474888257624903,-21.04996159975099 l0.43167876432301966,0.0631599923009393 0.9029619981010141,-0.0036989626758295673 l10.960967786905872,-1.647309372380974 0.9485002687401989,0.39859770086714885 m-13.576634324980677,4.938418047760853 l0.45411631781024403,1.1788880278563918 -0.020728413199320398,15.160598531524766 m0.40740608554955543,-15.832030493472669 l10.9029378813308,-1.3900392035688292 0.6440256656875698,0.04478675576690284 l0.44439532539377646,0.6751396300351348 -0.1879974827740229,15.19293235678511 m-11.711145828285355,-9.623545585387637 l7.57570007739032,-1.1133557683633746 m-7.583222167550737,6.2863124948872136 l7.837445265438093,-0.8713373560761207 m-7.850421866857516,6.0397951258684435 l11.640489336677899,-0.9324871511996238 m-8.643269216754272,5.840397668283906 l-0.036342816016145335,1.1476476372900346 -0.6739248817590234,1.2054693690443414 l-2.97776056663295,2.7728249290237197 -3.4348825950527595,2.4621061056815274 m13.714909888141635,-7.017425528531323 l1.8509364848505598,1.3550317370628608 2.0112754127001335,1.8406354803346408 l1.8105106898916563,1.9984603981540252 0.9576770795482181,1.408588619607272 " fill="none" stroke="black" stroke-width="1" /></svg>