<?xml version="1.0" encoding="utf-8" ?>
<svg baseProfile="full" height="126.55021807364115" version="1.1" width="107.19635682830875" xmlns="http://www.w3.org/2000/svg" xmlns:ev="http://www.w3.org/2001/xml-events" xmlns:xlink="http://www.w3.org/1999/xlink"><defs /><rect fill="white" height="126.55021807364115" width="107.19635682830875" x="0" y="0" /><path d="M25,25 m0.0,0.0 m13.803901039490544,3.4244333690360866 l0.4519797160094005,0.5113665280059708 0.5073410491182135,1.781344751893222 l-0.03379414858615317,13.076293988284801 m0.7487116123468327,-14.612161843933302 l14.651462981218435,-1.6031202616780555 1.46512931737055,0.21161350683871585 m-18.45255746493634,7.603751377961988 l13.564046991763282,-1.8759159990960241 2.0899586058091466,0.02580521610145439 m-14.875656444145667,7.196458904101792 l12.42352858300201,-1.613951135318102 2.4960637048469496,0.026690085096848393 m-25.929572474976325,8.161925629549362 l2.1083101405829696,0.21249088430506924 3.0937206616026036,-0.22117873028225343 l19.03985310442436,-2.3576465261900386 4.501950975557468,-0.15516053425641704 l2.496416864963631,0.16409469432735457 m-18.275085517939807,3.273686862621171 l-0.5436185806789109,1.0298810335576296 -4.024712441873516,3.887160771701135 l-3.7019069704011245,2.1140298215164335 -0.723527337251942,0.559874283886496 l0.21506396711845865,0.6086701199559635 1.0893740213821685,0.1351241631543744 l2.370629373153857,-0.323011982595193 16.546954860904837,-3.6341384387673483 m-2.6413487593395715,-3.1888409649333096 l3.124529012884282,2.83525602562559 1.5527453920462635,1.9859333910053236 l0.7363861474037667,1.4569069830631134 m22.037916585663098,-26.79191245912552 l-0.11885018819033019,0.8974811493894774 -0.612335971749821,0.5994632061301242 l-4.102211535380579,2.9035011211907262 -4.510222027360453,2.4252719509190834 l-5.237226154455345,2.179778639156673 m16.939988587846244,-1.0533882918953332 l0.08729025351369848,0.47849199650715063 -0.4797029123000133,0.7371391448097743 l-5.943165680900521,4.156479277744003 -4.74802810800234,2.5756181996547642 l-5.810712209250497,2.3596379709902093 m19.81733820600492,-0.32956147123960583 l-0.12919991713843357,0.9474842320371116 -1.1387553003776023,0.9371606657371613 l-5.469391696904469,3.183454027844578 -6.106750621024662,2.5261140689773987 l-7.023441080939294,2.052948074865992 m-27.773870680423965,12.884005621071656 l3.226763741091117,0.27175941489286864 5.852959336014654,-0.29453897607761653 l32.47425549454935,-4.832820024902409 1.0559723506645469,0.14531940353290218 m-28.023026757840668,-5.392283826788497 l0.5987865924794996,0.9578977491045265 0.3466101597594876,1.1934916778748321 l0.5204209728252183,13.835245010311779 0.39072991274920255,3.5954611171083415 l1.1335590776928095,3.131943741740798 1.8580327493211735,2.842503912677008 l2.5742950948700325,2.3689615041351075 3.4086329460299063,4.047799156177301 l2.8168881294666273,2.7391647003030584 3.334635671004167,2.5916432016645783 l3.7703678159848013,2.2226747856935822 3.7472526331644653,1.3583772603177104 l0.8947494581438445,-0.13714249506893933 0.9043708852540705,-1.070971317828309 l0.09317223872425191,-1.9375874419536836 -0.3797921385413045,-2.769706329116798 m-9.340893051924361,-18.582263717358032 l-0.029245046047972643,1.1382090562235327 -0.37653836502024907,0.721024717724438 l-2.6236215502727545,2.4655293760875026 -4.181743692510373,9.126577251019258 l-5.811170786264782,5.811403989395454 -2.4895645828676516,2.0098507858025147 l-4.191815252062338,2.737885344391048 -3.7124723032269973,1.8879759472520068 m16.143570920385002,-37.268039169830814 l2.8305261926550873,2.690455932194659 1.729993010899848,2.5485504535146672 " fill="none" stroke="black" stroke-width="1" /></svg>