<?xml version="1.0" encoding="utf-8" ?>
<svg baseProfile="full" height="104.4200683490071" version="1.1" width="94.203402539357" xmlns="http://www.w3.org/2000/svg" xmlns:ev="http://www.w3.org/2001/xml-events" xmlns:xlink="http://www.w3.org/1999/xlink"><defs /><rect fill="white" height="104.4200683490071" width="94.203402539357" x="0" y="0" /><path d="M25,25 m0.0,0.0 m31.295800302156778,2.1843027784758915 l-0.07727719252605167,0.4428940785743629 -0.6625679580923955,1.0563619904414419 l-0.9934782447463834,1.0875733389701447 -4.119427731786084,2.8277922257658994 l-5.100220110344673,2.715954857478249 -5.77688290726747,2.3643742103631844 m-4.682693738181731,0.16656164879051963 l0.8038624247483697,1.0825709517106938 0.2900732845226804,1.0799017185932596 l0.18386886619332632,30.99351873912886 0.32136202280899673,0.7986074920562592 l0.6509873768029664,-0.16072021530607536 11.355643134440118,-7.378603142520839 m-10.195992687088916,-14.165168134134229 l1.4943590160852256,0.31339776130414565 2.109985325032883,-0.023455708861533954 l19.638146298545017,-2.5251118459784503 4.6066138922870925,-0.222248216042827 l2.89643422773997,0.07796173784655369 m-21.514454467700823,-10.484756023278187 l1.2001255291643063,5.734541622893941 2.137800696615915,11.13926157503017 l2.6352824500105645,8.518132540010646 2.6424890489703414,5.4868988596524275 l2.2500642952475243,3.436220137801408 2.562556027048023,2.9829546127361537 l2.9434933420144187,2.5452128383032306 2.243840307451611,1.5397265730558374 l2.101312727984712,0.8054093461459729 0.683575330749652,-0.49688599643283166 l0.2787216504710272,-1.505524418084963 -0.1641193035166684,-2.79804046980817 " fill="none" stroke="black" stroke-width="1" /></svg>