<?xml version="1.0" encoding="utf-8" ?>
<svg baseProfile="full" height="104.86431274746289" version="1.1" width="93.8895982575763" xmlns="http://www.w3.org/2000/svg" xmlns:ev="http://www.w3.org/2001/xml-events" xmlns:xlink="http://www.w3.org/1999/xlink"><defs /><rect fill="white" height="104.86431274746289" width="93.8895982575763" x="0" y="0" /><path d="M25,25 m0.0,0.0 m11.318500989502388,13.22263658944686 l0.42778030768539266,0.3962228583182141 0.5182012471061445,1.0038018890848697 l0.1350735108109586,1.5125595975905197 -0.06735294851994908,29.404893882775358 m0.42075168590411915,-31.323019090289907 l24.17165588370094,-2.0082324456458247 2.3708517771884154,-0.8981819459793252 l2.4661272850769675,-0.14889104094507216 1.3527416695843637,0.2451414809889739 l0.7752668495365551,1.5287418173553868 -0.08779386450398545,31.976985960981413 m-29.58872619674093,-22.006987784345657 l4.175111306643013,-0.0783148950544759 13.61788795591417,-1.668532518716252 l6.768447049596873,-0.2152746882546852 m-14.527669614125333,-7.94805980089204 l0.44945367027708527,0.82179198054409 0.15271634430018521,0.9581716019872578 l0.03939642248016115,22.55853276122901 -0.11742156515769717,1.76556804871199 l0.07408096784018252,0.6321600732358881 0.37093203682631753,0.3266402774686543 l0.7853067720648994,0.10029125190350476 1.1061535481437286,0.016707700444218144 l4.697269073548787,-0.0663225497942303 5.382961618106896,-0.47675975952956323 m-24.439882712325208,15.232041494843715 l17.241808285589265,-1.5027578155961387 " fill="none" stroke="black" stroke-width="1" /></svg>