<?xml version="1.0" encoding="utf-8" ?>
<svg baseProfile="full" height="99.74085017912446" version="1.1" width="100.53374691709077" xmlns="http://www.w3.org/2000/svg" xmlns:ev="http://www.w3.org/2001/xml-events" xmlns:xlink="http://www.w3.org/1999/xlink"><defs /><rect fill="white" height="99.74085017912446" width="100.53374691709077" x="0" y="0" /><path d="M25,25 m0.0,0.0 m24.891086957103912,12.023257288142984 l-0.029218632975282266,0.3532175582472613 -0.4641069566393256,1.3486786240535276 l-2.274602123953592,4.27853289317704 -2.1532412353511656,2.513527095276362 l-2.860981558328827,2.673438930300052 m6.498486009784591,-4.640025966769653 l2.300065234192578,1.7988313688266583e-05 14.816247457944423,-1.8679649602207284 l2.455726664605561,-0.0600608309119062 1.3048520571225337,0.15132110623811604 m-28.34349146011351,12.772923346900082 l1.6241982033380622,0.2365271953773464 1.9925055474969544,-0.020989408713397276 l23.028269973111435,-2.5057855458157356 5.324078489813209,-0.29334648338078395 l2.4238722899392187,0.21820738165310652 m-18.316401105837542,-17.57423272824963 l0.709166987745118,0.9774165622087218 0.2317403927809134,1.1885998438488987 l-0.06470037019943782,35.96072148828919 m-13.697927878648494,-11.209781538597078 l0.4919662191704186,1.4763665980401637 0.07988697067678506,9.796190840604584 l1.0444776169693755,1.470617155216818 10.830846592770685,-1.4633290632069733 l11.70655342495435,-0.9695206201490265 m0.9402387778643437,-13.185897717249212 l0.3349237614668041,0.8032595486424978 0.08557431053844997,0.9636384394894052 l-1.2171680478623716,14.325325158368734 " fill="none" stroke="black" stroke-width="1" /></svg>