<?xml version="1.0" encoding="utf-8" ?>
<svg baseProfile="full" height="106.7827274103029" version="1.1" width="100.77285063137856" xmlns="http://www.w3.org/2000/svg" xmlns:ev="http://www.w3.org/2001/xml-events" xmlns:xlink="http://www.w3.org/1999/xlink"><defs /><rect fill="white" height="106.7827274103029" width="100.77285063137856" x="0" y="0" /><path d="M25,25 m0.0,0.0 m11.898136688257157,4.1353778728439226 l0.47402716704691095,0.2318662158285797 3.157414467591412,2.5448203979939676 l1.6170881060747127,1.7981140499726014 0.692779913817503,1.2008129951954283 m-9.376970372313995,8.337852569663102 l1.8541639574110773,0.9670973624233787 2.09000740153617,1.501941993648399 l1.770715151214934,1.6337994913018428 0.9590513404981934,1.374241416260295 m-7.41518720247252,24.73238021719582 l1.2064977152745322,0.5650828669391772 0.5850388796499167,-0.01055483386042582 l0.9154815707841013,-0.7114681479373843 2.9194819960097287,-5.8705901244722885 l2.677774445394343,-5.990607868332087 m19.63191329677401,-36.309120598369674 l0.6371920987787727,0.9779258074068309 0.31753294311890806,1.0804148672527025 l-0.02182662161724678,5.145590151484203 m-12.804398189704337,1.1712842727629238 l2.6171852698821993,0.2954303113038388 21.23815468263651,-2.084953663796986 l1.7091272456672546,-0.08904862865032996 1.4224686800683042,0.313750342965773 m-22.489000132779957,5.06676463815671 l0.0039547907240577865,0.5933122553156606 -0.39278542260410976,1.3583416731973945 l-1.4533243911651896,3.0028543497971762 -2.1219705952993055,2.940583483028612 l-2.2753479067252913,2.253874018179804 m18.160646570751805,-11.099059146110536 l2.9110588287478443,1.7940424113590419 2.8829795672544987,2.3239607866464147 l2.4027677014635755,2.4073950820838075 1.4065361733000883,2.076995529646206 m-8.672482226030711,-0.8634441329857208 l0.1309703096345983,0.8883339862982799 -0.1589149912960257,0.9296387115280214 l-1.462503054600364,2.290007310136825 -2.8186559048028026,3.3276819732163325 l-3.4400124447572678,3.110074774485411 -4.017363585635866,5.000114816426378 l-5.9210799847663464,7.3352304038923215 -3.5656714230070965,3.5575021986293414 m5.685098688661093,-24.02125525002165 l1.2396900982938757,0.7388748767020537 1.1517590931574957,2.034069753486225 l6.486262837727602,19.385402925340472 2.3228215910234535,5.050526162426805 l2.1619401930916804,3.285886235741995 2.2804436595847863,2.251404662138259 l2.745182432426732,1.641671424702575 2.2983363360897795,0.8585779011590091 l3.286935313369843,0.3219242586760329 0.9168570866026633,-0.7193812705119993 l0.2569381582787019,-0.690729316237337 -0.2228422808772343,-0.8268630846825731 l-1.0764039167926154,-2.380735360006749 m-13.910878190545525,-16.169130757127785 l1.436200191575448,1.888537935024408 1.2105798300982331,1.499597496738519 l0.9336665149867582,0.7964333074211056 0.4672277453365171,0.21905369139129502 m-12.893807822959525,-4.524438254999759 l0.23002712936956513,3.458053958290353 -0.48080118245813747,4.343748887226491 m18.73860770141044,-9.126279927934824 l1.6035854795275342,1.3961388885722559 1.5257773121717746,1.8058762995162632 l1.2836533390188571,1.992242288681925 0.7954754091047548,1.8038415441349398 " fill="none" stroke="black" stroke-width="1" /></svg>