<?xml version="1.0" encoding="utf-8" ?>
<svg baseProfile="full" height="92.24538076565302" version="1.1" width="98.15437749917184" xmlns="http://www.w3.org/2000/svg" xmlns:ev="http://www.w3.org/2001/xml-events" xmlns:xlink="http://www.w3.org/1999/xlink"><defs /><rect fill="white" height="92.24538076565302" width="98.15437749917184" x="0" y="0" /><path d="M25,25 m0.0,0.0 m34.921332547533574,3.372975475180813 l-0.005474847398661242,0.4861337416090123 -0.6474994127420348,1.5748867222103804 l-1.863502052296041,2.3375512834817 -2.5592160810219657,2.6036030263598136 l-2.3395925560422812,2.628651875577957 -2.5426243227183343,2.513054705914939 l-5.905477330517794,2.0524177798400722 -4.6005786287531185,1.1310461011083566 m-0.45543942138403243,-10.772054547096097 l5.075707003676692,0.6150904866734337 5.829123970225588,1.9471149516974289 l5.616483409549581,2.3190552746460478 5.44510006998615,2.5710871885104005 l2.4044328850268095,1.483536438640004 1.709242701848973,1.2669773839206817 m-15.149018159151186,-0.1204636710419209 l0.053229164545963166,0.8354397762451301 -0.44978824192296657,0.8486887131774796 l-1.9542414161573254,2.288049615345578 -2.3856062085817324,2.3119995292061843 l-5.555489994044698,4.21810294916717 -6.944686947381893,4.0593254865207316 m18.910839390295628,-11.665760212467257 l6.386673828417494,4.105969400228923 7.722921993021814,4.221191599428165 l4.3327413988050205,1.8335484998535527 3.1047847563526254,0.6203548567271728 m-29.921026517756165,-0.085339264161493 l0.6420123617847215,0.6249160963525197 0.2575923197537606,0.6002701800857748 l1.594651495775225,9.417959322710363 m-1.2049482650709697,-9.816678650599227 l16.401613101832474,-1.4884509553149785 1.7515735691794425,0.0014919695902916922 l1.0182043402362677,0.2360026549913058 0.6057206714523641,0.5988356996548588 l0.09717351342829576,0.9978840190404104 -2.3302688112023997,6.908707557316662 m-15.769235403310272,1.1443409659891024 l16.66391064791526,-0.9072516238945152 " fill="none" stroke="black" stroke-width="1" /></svg>