<?xml version="1.0" encoding="utf-8" ?>
<svg baseProfile="full" height="105.43323384279725" version="1.1" width="102.7001290884997" xmlns="http://www.w3.org/2000/svg" xmlns:ev="http://www.w3.org/2001/xml-events" xmlns:xlink="http://www.w3.org/1999/xlink"><defs /><rect fill="white" height="105.43323384279725" width="102.7001290884997" x="0" y="0" /><path d="M25,25 m0.0,0.0 m30.214874925923343,5.9989903630167545 l0.34467916752880506,0.3732137869783292 0.5356783035925683,1.4786388732387241 l-0.013464866216321097,4.516673637425969 m-18.790964270295134,2.0699670468980975 l4.050742498020773,0.22459195572234922 28.651856007407464,-2.525358240223915 l3.766057766889701,-0.15199780126038592 2.6920538382275154,0.2268542807103298 m-37.05663078261285,2.7366342615199377 l0.5234240179547881,0.7895330886501273 0.16013704463576323,1.01022734917887 l-0.25643233031146967,7.16633268853069 -0.687440305722315,7.353511407012545 l-1.0861632892650337,6.291840450953888 -1.3140731481173589,4.740614330501293 l-1.3273549309167947,3.5057509358744077 -2.2044791445817933,4.381301816036204 l-2.132821613681428,3.1529705093884277 m19.82393816711982,-31.965751129455874 l-0.019302067829547725,0.9533899103911081 -0.39036586478773155,1.394383890262149 l-1.7428816503930826,3.8280948635026926 -2.3165053616141993,3.569836571927556 l-3.431159816397736,4.398914264028254 m7.103450432380039,-7.219125691338131 l1.4466288081405938,1.1728454563302337 1.456668776572334,1.6609225180543934 l1.316595962606801,2.0498526207584313 0.662951869853948,1.59782862211048 m14.839416847421889,-13.90835876665058 l-0.0839588755988771,1.4336294028813081 -1.8726041247710181,4.1154691098405705 l-2.1299428400468314,3.5527982759105234 -2.6224604528414233,3.489659076536321 m6.557430066784749,-6.167895235862432 l2.6525918887407927,2.8183996336552317 2.3119546356677363,4.010876705162181 m-16.795691040118204,-15.304515418287691 l0.5169403324698404,0.9618923725334633 0.15706175441288744,1.3066151646094861 l0.0020117291800684947,32.46522439879781 m-11.827575856538283,-10.001744298595138 l3.049137054665472,0.21265455639935835 16.77963905928518,-1.8324448963308222 l3.8833495952467714,0.2442072133769367 m-30.017708304250938,12.870999007687992 l1.545495924567858,0.3695617060199908 1.6410238996919937,0.014723198388798573 l29.688052553200123,-1.8426908355164697 4.446267097218442,0.4991130107410875 " fill="none" stroke="black" stroke-width="1" /></svg>