<?xml version="1.0" encoding="utf-8" ?>
<svg baseProfile="full" height="105.17365327287077" version="1.1" width="95.0882201831824" xmlns="http://www.w3.org/2000/svg" xmlns:ev="http://www.w3.org/2001/xml-events" xmlns:xlink="http://www.w3.org/1999/xlink"><defs /><rect fill="white" height="105.17365327287077" width="95.0882201831824" x="0" y="0" /><path d="M25,29.41696080984157 m0.0,0.0 m13.845774245285405,3.2828877186327032 l0.3971744613952076,0.18805114421537253 2.5523923925062055,2.079682064999291 l1.1259569855138811,1.3942877524290735 0.5117935454517294,1.0188120798118308 m-7.990904821462011,10.648565848723376 l3.44275039270741,2.1317907164375844 1.7912618847326225,1.621123103813939 m-5.061379758059421,23.49988539923536 l0.9746679827592499,0.5547534479233965 0.4659389844280647,-0.025787378523110794 l0.7514906094979413,-0.7162509764840476 1.9969690839300303,-4.359000436147345 l2.106678509376879,-5.358469354572011 m7.984903076050873,-27.32528936757309 l-0.532482637710134,0.18714708530051194 -1.498996837526986,1.506830283622454 l-1.8790885333307308,1.141292101265829 m-0.3730645116259297,-10.248294388777696 l0.3031639828876462,0.3931242910730907 0.22696584853498034,0.966403494587699 l-0.11239822360968078,13.376342083023493 0.15957020079597278,1.1914002917325996 l0.3401259029917243,0.615508417230398 0.5881938399841649,0.34723306650757974 l1.1504955322197639,0.1809122526380271 2.3067311475900545,-0.01921292991963626 l1.324584165905345,-0.5791300141035246 0.2571861602500126,-0.6335372129847806 l0.060507077948226316,-1.7231727092526177 m2.951187713443986,-18.527411818338777 l1.4544931919883615,0.2561672351641749 9.277286989514883,-1.4836041015327177 l1.175883198524647,0.07313737574678146 0.671744028101251,0.6671430531939834 l0.10854071727212776,1.4511212308102133 -0.6316113038622719,4.782388939988715 l-1.0557814802694063,4.8694343053334155 -0.6444372117598024,2.279279773140458 l-0.6980643057173337,1.5852127473289896 -0.7691962713496987,0.620712295074354 l-0.8037380870388773,-0.1992804836831956 -0.8302428188505308,-0.9010201452202827 m-1.1226750704319104,-12.457623800193215 l-0.05871722049572342,2.669759019368151 -0.8906403263732895,3.982774629560891 l-1.1830668596671803,2.9753962575393427 -2.0524531482081096,3.449600702857823 m-2.7073027601620523,4.006622689420102 l0.02684966066367022,0.23521265436171696 -0.4461843761098006,0.6153388733413337 l-3.2381335379373093,2.4636957767525014 -3.0841625050462715,1.7511796395186325 l-3.9116656641711045,1.6048109666163342 m13.669164743783023,4.100333735021828 l-0.07568115787762016,0.6207913645452403 -0.5703335445671274,0.8285854769654266 l-2.953581951768328,2.6588414765269777 -3.7137111412119133,2.468687910073475 l-4.249080170916772,2.1471489150118352 m14.445163232893025,-4.334591401062872 l-0.07733747044249868,0.9192846312211809 -0.6061748263258744,0.8876647190483394 l-1.678421618315747,3.0126173560831595 -1.6988503042338703,2.50337303406053 l-3.506708495082536,3.897165513124702 -4.467161966213776,3.544812939323189 m21.81606161198566,-6.5554965957984965 l-0.1196770475406745,0.910033131654356 -0.8588490589871757,1.0452254361472593 l-2.0237629417572367,1.6516664399971543 -2.845365130680946,1.8545066103225372 l-6.3918974198308485,3.2583786476086534 -8.578214185168173,3.2297274321392364 " fill="none" stroke="black" stroke-width="1" /></svg>