<?xml version="1.0" encoding="utf-8" ?>
<svg baseProfile="full" height="102.32558325464964" version="1.1" width="104.20462523450627" xmlns="http://www.w3.org/2000/svg" xmlns:ev="http://www.w3.org/2001/xml-events" xmlns:xlink="http://www.w3.org/1999/xlink"><defs /><rect fill="white" height="102.32558325464964" width="104.20462523450627" x="0" y="0" /><path d="M25,25 m0.0,0.0 m16.242680946535657,16.738686950735403 l0.5112747596774917,0.13154514831727873 2.6523529584684216,0.06826169794967284 l16.784053907957396,-1.9377348115079165 3.105775725328425,-0.1316201412310341 m-11.58484815900296,-6.132887095328394 l0.7292995307238105,0.8097230158473528 0.2489960435801591,1.261140732637929 l-0.07755131216034976,11.272408620581794 m-22.554391569601638,1.9420277080487705 l2.14171856146343,0.2237048831785883 2.2986818467609953,-0.04844231420078825 l20.55519545796835,-1.8273596462286408 12.625691495418158,-0.8779716940998773 l7.337805151471073,-0.07315978257938581 3.1878898899178414,0.3422653673463708 m-34.62926981021392,3.252583047412476 l1.4290361946758803,1.3054222545087353 1.4830085128902653,2.0449273256361304 l0.9942508980581907,1.9154088632277788 0.48420154133859616,1.2687247689203198 m14.081526930058196,-7.85754724871548 l-0.11664454350411896,1.156595217745144 -0.7691615021347061,2.126922073136436 l-2.050506358114817,1.856979016024266 -2.0665156248288516,1.4415336451447909 m-18.567704417802638,2.9924468954030674 l2.8762109897510415,0.23900810983436108 19.68790658403936,-1.5806929102615388 l5.672454365729223,-0.16297922079710375 m-30.965614420728535,8.706302644350757 l3.866371399438938,0.2107920765197391 23.241961019884418,-1.237449564721525 l3.614068221833796,0.19447603198647193 m-14.936303997241792,-6.292343257788193 l0.5423552983200637,0.7095055003960743 0.20565279215164595,1.0835930946903973 l-0.06936457105890147,17.190786252529424 " fill="none" stroke="black" stroke-width="1" /></svg>