<?xml version="1.0" encoding="utf-8" ?>
<svg baseProfile="full" height="119.38788457833523" version="1.1" width="94.3433412292718" xmlns="http://www.w3.org/2000/svg" xmlns:ev="http://www.w3.org/2001/xml-events" xmlns:xlink="http://www.w3.org/1999/xlink"><defs /><rect fill="white" height="119.38788457833523" width="94.3433412292718" x="0" y="0" /><path d="M25,25 m0.0,0.0 m16.66702452056622,4.600958803631748 l0.4494065082530298,0.455866417467236 0.518198355080026,0.9665774476099623 l2.2841816550296743,17.270281141422103 0.2897971782516227,3.0510007398256387 l-0.44859470474037694,9.727531125463337 -1.0242868289828315,14.733999367807268 l-1.3101608539714138,9.985920402969388 -1.5934484943293044,4.915797776326973 l-2.009773454719943,3.679951355811576 m6.273310003703377,-60.761628833893106 l21.026077654695786,-3.5474267455784507 1.7703495163019238,0.213804395648986 l0.5918080778594885,0.421909458073442 0.689769659993934,1.3315468052253625 l0.169682436280573,0.9300419007827516 -0.359942953812299,57.6121036064544 l-0.4237665586610788,1.3841716445475376 -0.6194886367701767,0.5457116187286665 l-0.7395874872385971,-0.06594734538367766 -1.6075027113317575,-1.1969341110601828 m-19.421236805209787,-43.75566672804157 l14.881662685757302,-2.044387958093867 m-14.154195089581771,16.297165438937068 l13.479718673822546,-1.347559283558721 " fill="none" stroke="black" stroke-width="1" /></svg>