<?xml version="1.0" encoding="utf-8" ?>
<svg baseProfile="full" height="103.37195127651643" version="1.1" width="88.86089869651764" xmlns="http://www.w3.org/2000/svg" xmlns:ev="http://www.w3.org/2001/xml-events" xmlns:xlink="http://www.w3.org/1999/xlink"><defs /><rect fill="white" height="103.37195127651643" width="88.86089869651764" x="0" y="0" /><path d="M25,25 m0.0,0.0 m26.051660471151127,3.178091113432729 l-0.03305878410819891,0.4462254750751818 -0.5231463526236285,1.0934977574932692 l-0.8725724201747466,1.0549560891823428 -3.751479655857595,2.7602867306108196 l-5.0267101439774535,2.837677559171745 -5.75869924884204,2.4830053426313485 m-3.1065410829153897,0.726178145113906 l0.6672034660657202,1.1346612999718964 0.24668461893459132,1.0622580953970786 l0.04607095240002248,32.08762772058409 0.2000076897974376,1.0553564273010045 l0.4898027050835879,-0.16871093407969928 0.9783646361998888,-0.7708661193604355 l10.055686201303448,-7.5853432204070925 m-9.048505875964532,-15.956424929694087 l1.5786357343012538,0.6213946899396762 1.9492647093737387,0.0705602406939795 l15.063118767512053,-2.8791544263467643 3.680661201176355,-0.2724582228701536 l2.4917509664774804,0.004632937583879868 m-17.06698941561558,-10.7455822202417 l1.110475078189136,3.786803474092877 2.3201490087551946,11.035041612269076 l2.690165868785234,9.060851750497335 2.6673798632939936,6.171078994944053 l2.0900326572664967,3.580507496766009 2.3299389627254437,3.124252468052129 l2.5721316521043835,2.6569252357502937 2.0001498759363967,1.2335529051168326 l0.8331093102446514,0.40285850154395914 0.671310840850543,0.08220928630084226 l0.537716196224931,-0.2583256047595482 0.5806498257703999,-1.2709659060853207 l0.14648041667328449,-3.3830500253106814 " fill="none" stroke="black" stroke-width="1" /></svg>