<?xml version="1.0" encoding="utf-8" ?>
<svg baseProfile="full" height="100.43367111652944" version="1.1" width="90.71583201136147" xmlns="http://www.w3.org/2000/svg" xmlns:ev="http://www.w3.org/2001/xml-events" xmlns:xlink="http://www.w3.org/1999/xlink"><defs /><rect fill="white" height="100.43367111652944" width="90.71583201136147" x="0" y="0" /><path d="M25,25 m0.0,0.0 m40.321425878860545,2.7502442997062326 l-0.01780616319627511,0.4769782597926932 -0.5578610123843736,0.9221444725648812 l-2.1001551210406944,2.4477913884721993 -4.8929241325155965,5.979894845556484 l-3.3112674159949083,-1.539910046872674 -2.4918268399086174,-0.9774321349123144 m-2.3401084004102164,-6.205354384067629 l0.2700553820420498,0.5514291617095266 0.21148881013803142,1.2950862527029143 l0.11524745879674611,9.537354300546797 0.4263144488075571,1.209231980380759 l0.7052388358304732,0.7584645364337118 1.6940717703742854,0.532331928302193 l2.8245759978391503,0.21072295881656017 5.190994883098998,-0.4224600821204805 l1.729823191979883,-0.5309014037991177 0.8945765195581686,-0.5787393835878275 l0.7178386271874257,-1.041158122988312 0.25605914046249056,-1.415930222115434 m-25.53576105840427,8.399055467324755 l1.2998545426872965,0.14818552043078187 1.965511226877756,-0.011702752917642209 l20.135077357704464,-1.568820323993251 3.205388082971106,0.1276125912729295 m-14.080340616218564,1.6956680124648178 l0.40460766079206983,0.6384414379221061 0.20945391054114226,0.8070234359122187 l-0.02921665956514671,11.155858676538204 -0.21081809900154588,0.6657381220493408 l-0.3760444373095971,0.17588992083332383 -0.4706334309829309,-0.19042472871705318 l-1.649180356183093,-1.5728449541364802 m-5.749263245558238,-7.216107215434125 l-0.28206289753367875,0.7747660355979746 -0.5407310670924199,0.5450901933801614 l-2.339443950853671,1.826745307251599 -3.275159582756415,1.9767252452706112 l-3.464073291682951,1.7517620947013324 m24.704516130007185,-7.070785681053608 l2.057678321331152,1.2556161675061839 2.1285073094433584,1.781547401070069 l1.7355468875742355,1.8831833194603675 1.0523106445009844,1.5410000723020936 m-7.5405972524932405,-1.45936054364214 l-0.13156825611643067,1.4936130486574868 -1.43932751733483,2.4871323640044447 l-2.2907081153969546,2.8960343382703178 -3.1238858948281583,3.072149361724122 l-2.9989620350482564,2.467624091072306 -3.380300908185306,2.349359462172525 l-3.656619142546532,2.0808995908338774 -3.4537485048260335,1.567207433878624 " fill="none" stroke="black" stroke-width="1" /></svg>