<?xml version="1.0" encoding="utf-8" ?>
<svg baseProfile="full" height="91.98738080229774" version="1.1" width="104.51094999263788" xmlns="http://www.w3.org/2000/svg" xmlns:ev="http://www.w3.org/2001/xml-events" xmlns:xlink="http://www.w3.org/1999/xlink"><defs /><rect fill="white" height="91.98738080229774" width="104.51094999263788" x="0" y="0" /><path d="M25,25 m0.0,0.0 m44.617631609383764,7.53664143196601 l-0.11444072151102704,0.4605663838727165 -0.6720223129477876,0.8221243280184141 l-9.99444741635133,2.029297573070706 -9.906052477825812,1.3571110723832425 m-2.4944159742597636,-0.5045171647072411 l0.4499087678303193,1.6762900138709385 -0.26761931911163483,6.454089361756084 l-0.5449989768583854,5.018028267484536 -0.8301591531264769,4.5194911234141575 l-1.003968091565087,3.561851651346648 -1.3957377582389074,3.203193156860942 l-1.887219380076838,3.0267670686552273 -1.8610755510078827,2.2313215616951285 m9.27342103048237,-24.47399041454511 l1.9742214040545347,0.2096968785757144 22.64795756183336,-0.07620707135936301 l2.919195091684199,0.09965181056303718 m-28.01977105656998,1.2052994635448095 l0.4809177349251659,0.5917834951768416 0.1947771396738926,0.6608086445322323 l1.2154664028362756,7.3324292530304875 m14.460736778511242,0.15824495944641695 l3.1868219299380853,0.5656546690930838 9.69070079108929,-0.5428444093763827 l2.3911219398462893,-0.03335892434992245 m-31.970804160776698,5.501675048222509 l0.79592090387011,1.289485088440703 1.8039425249910552,8.106796481615177 m-1.681224739309826,-8.802533383399199 l24.451453633640217,-1.4467659289295134 1.7724127815986634,0.013019075469662215 l0.7086138354000743,0.1524595670736151 0.6522626426894169,0.6525842687160529 l-0.004196161453966663,0.8548478555515121 -2.729512660621987,7.435151785747311 m-22.874775221237293,-3.928688165261776 l24.235088370682945,-0.8348063313237348 m-23.285301221556942,5.130355981448798 l12.943017973489534,-0.6156282332618531 m-28.423996090544314,-21.122270335671875 l0.5696678041753728,0.5141116764474809 0.34994533406266476,0.8862681548762589 l0.02476038291437284,14.335548098054138 0.33630780458573667,0.8594525706852008 l0.5328154017894033,0.33228001019730147 1.563712236388485,-1.035490093409876 l7.767047578847954,-1.9521770177617175 9.86400737050995,-0.9893861948336469 l8.322104011662073,0.029771186363863476 3.643640520161196,0.36209395969179814 " fill="none" stroke="black" stroke-width="1" /></svg>