<?xml version="1.0" encoding="utf-8" ?>
<svg baseProfile="full" height="100.59677481263833" version="1.1" width="101.88429849527374" xmlns="http://www.w3.org/2000/svg" xmlns:ev="http://www.w3.org/2001/xml-events" xmlns:xlink="http://www.w3.org/1999/xlink"><defs /><rect fill="white" height="100.59677481263833" width="101.88429849527374" x="0" y="0" /><path d="M25,25 m0.0,0.0 m29.937479989402256,3.0049432294459004 l0.3615477069747182,0.37546961629468373 0.42818193099318574,1.5211584953864994 l-0.031647563750598205,7.835941606556568 m-13.35505377034461,-5.269821965976684 l2.369245265837508,1.4945280739905669 1.8034158054321632,1.6347286789789783 l1.121879969675001,1.4199367081775567 0.5021379670656658,1.241558771845593 m19.684291310881576,-6.6162627570798636 l0.06639936347919956,0.9516710635329881 -0.9788281614865063,1.9551300095861779 l-3.6115221920572718,5.329771323922905 m-28.01925333442176,2.758156890948969 l-0.62319461370196,4.6479295067111375 -1.242955631307721,4.821179019795067 m2.448353937809563,-7.913283698280265 l22.179801751388872,-2.9012373360362833 15.954433101400573,-1.4325504330614893 l1.6720414779575845,0.05731894717487989 0.9324122538255825,0.3863107721681506 l0.2851319302207193,0.6106154724021879 -0.8298251972444455,1.600594716385826 l-2.6454019262825472,2.4605248105238346 m-28.76771922649679,2.2595299998392107 l0.5386340446692355,1.4630265497638746 1.4503154727089225,7.5863895746111805 m-1.1309026396698458,-8.31231328568204 l17.609687720837655,-2.501498174901993 1.5836870266588337,0.14824680710002938 l0.4066109164854368,0.4004902423966099 0.10013032520698538,0.6493492383954071 l-0.27695147250359803,1.3133395385377151 m-17.903462205045663,3.2476652210004957 l17.329032669113136,-1.6402429617773988 m-21.018602225639786,5.354587365032817 l0.6111985696415008,0.9131142469713835 0.2481958008684303,1.1935087185133244 l-0.005955515715742499,18.10346964698032 m0.6006434402398667,-19.651505613766844 l17.269310548166725,-1.9917032231572331 1.482996891407701,0.053766646450947295 l0.883138122891484,0.4466130532675032 0.47157731364233224,1.1248768423298399 l0.02692973939226783,18.61523916609309 -0.2602849498995925,1.3492954254780554 l-0.5041317811293142,0.49721826576814765 -0.6880482702556961,-0.12384041726620607 l-2.407366314402048,-2.241759014117053 m-15.860673844157121,-12.727518918764408 l18.509320552401086,-1.2522956948673458 m-18.574182858855778,6.89588898121997 l18.769350788255537,-1.457788346520202 " fill="none" stroke="black" stroke-width="1" /></svg>