<?xml version="1.0" encoding="utf-8" ?>
<svg baseProfile="full" height="103.55402248069117" version="1.1" width="114.33717006236145" xmlns="http://www.w3.org/2000/svg" xmlns:ev="http://www.w3.org/2001/xml-events" xmlns:xlink="http://www.w3.org/1999/xlink"><defs /><rect fill="white" height="103.55402248069117" width="114.33717006236145" x="0" y="0" /><path d="M25,25 m0.0,0.0 m33.456290875921,12.967530207906126 l0.34719466786412445,0.18030389845276085 1.581424067218741,0.870325546830056 l2.1028367945024025,1.475812231965094 2.1064071949731704,2.6143371155815256 l0.42490013752452455,1.1444677658072349 m-20.683636419235942,3.490628536066896 l1.7247843575059232,0.214250851424002 2.254008804936345,-0.06060851803803774 l25.95851379379808,-2.3130427238017996 4.547820615995981,-0.09814204494674249 l2.1117760938025922,0.27393594297907375 m-34.54825762319359,3.0565801088335958 l-0.20198809474287405,9.355639643057868 -0.4276655789388739,4.944873644445938 l-0.7361155948960364,4.719532509838349 -1.113361582325317,4.7076001800348175 l-2.8640401128773143,4.567697329897278 -2.1148537971472283,1.4423002543571453 m13.550079445649887,-24.88235069507113 l2.077138370469571,0.1374327669475531 21.537767402444747,-2.011237090807295 l3.4463590243005324,-0.17067208072215195 1.9487944518722449,0.1728069386541893 m-22.950968790414592,-3.5787911979258396 l0.747218934071035,0.4674189395003842 0.43009862706341806,0.7852858726411929 l1.2570162398496836,12.003749967565277 m10.425387160995525,-14.424804489069816 l0.7867613795348772,0.6024658525806631 0.3962063380358331,0.8176126613246099 l-1.581154563598679,11.501066993389712 m-10.374349787297922,1.464462201148126 l11.489702258051322,-1.1696202802991957 m-18.16484234951113,7.398132179993138 l-0.2694806365313272,1.5359029146717291 -0.7497477130340376,1.777340931171626 l-1.3232253234613585,2.170462560281737 -1.5633263121842793,1.9717781919707789 m11.84594712691481,-8.6356129332509 l1.117912200746956,1.4794869356620346 1.1800762160831106,2.4383455036408983 l1.5019746666723572,4.8686802595010885 m6.176313443280403,-9.618685244672799 l1.3159481106014839,1.684687305699697 1.595298242357857,2.7471104487316214 l1.2637860611377771,2.83234212257157 0.5852563481458153,2.1411295623731976 m5.603563059887977,-10.0942152579938 l2.0454403908090666,1.801698963556534 2.4244150379690526,2.9461608538518713 l1.745219068821768,2.711638377596225 0.8945473319419652,2.261138248923632 " fill="none" stroke="black" stroke-width="1" /></svg>