<?xml version="1.0" encoding="utf-8" ?>
<svg baseProfile="full" height="108.56920921151334" version="1.1" width="103.23781302254211" xmlns="http://www.w3.org/2000/svg" xmlns:ev="http://www.w3.org/2001/xml-events" xmlns:xlink="http://www.w3.org/1999/xlink"><defs /><rect fill="white" height="108.56920921151334" width="103.23781302254211" x="0" y="0" /><path d="M25,25 m0.0,0.0 m29.451948166563852,8.16256309802797 l0.31811569667099726,0.18319177136710205 1.9531534609769832,2.114270370113589 l1.3556198589710904,2.401283909312953 m-18.868288514566462,4.486208771938613 l1.7901112509990225,0.31387366470520345 2.628076522309618,-0.10491124689624147 l22.520292581086323,-2.6860394686792888 5.06044459107794,-0.20780782118111782 l2.138179931286069,0.31875177011003103 m-31.53120315598614,3.6038056721801204 l-0.0800371104509735,3.128104917818381 -0.7579499430077158,7.690297271724465 l-0.7733400342607846,5.722322191433656 -0.8755913076270812,4.779247279762128 l-1.1952595756344029,4.730844849110472 -1.1348904647522589,3.22377085302781 l-1.3754882022320887,2.8886036928762784 -1.616627061390394,2.4496098899162964 m10.852913128181278,-22.61688090616009 l2.352990943812291,0.16557013617757 19.86826412254496,-2.806292291772241 l3.1609537694130894,-0.25815813691681905 1.7253219594185667,0.2467649841348184 m-14.605912881055213,-7.2094330912657965 l0.6844231750751513,0.7468616190949596 0.44537963816004095,1.4294557687558718 l-0.22487639281651142,34.331665387402836 -0.3453153079460475,1.0199122392484707 l-0.4912554266205857,0.32175206614533425 -0.5760246365172137,-0.24603089501712613 l-2.2482465697320095,-2.420233913436083 m3.6965278248956004,-24.80620538647263 l-1.4991692003595705,3.0486642860169235 -1.879768294810591,3.385947218290779 l-4.622208301700772,6.682190313846017 -4.745204767892782,5.179782394984622 l-2.7603006165371706,2.343835324420418 -2.0036978804530503,1.3997200529677907 m18.18243756844204,-20.809130649022947 l16.003929608228553,15.964998861048345 1.534174898466144,1.2532674995313982 l1.7252099723123275,0.7058357458055939 " fill="none" stroke="black" stroke-width="1" /></svg>