<?xml version="1.0" encoding="utf-8" ?>
<svg baseProfile="full" height="88.34083110831614" version="1.1" width="109.20320614124044" xmlns="http://www.w3.org/2000/svg" xmlns:ev="http://www.w3.org/2001/xml-events" xmlns:xlink="http://www.w3.org/1999/xlink"><defs /><rect fill="white" height="88.34083110831614" width="109.20320614124044" x="0" y="0" /><path d="M25,25 m0.0,0.0 m14.593304448799547,4.574872245539394 l0.4432734487042534,0.216439070222361 3.2002535909543277,2.3088528789237173 l1.5938127437150225,1.6488161489234816 m-8.476278190921436,6.077339577232412 l3.5046419556886623,1.9908493500126718 1.5770677390417742,1.295320553414555 l0.7074381897673904,1.0226163801519677 m-5.977464816906954,19.14229875441373 l1.07102971240117,0.06342614948184642 0.8314142314538833,-0.6738227109408657 l2.2102745027544257,-3.5404448453882598 2.3826422249870647,-4.2626659286383966 m19.30641489342653,-28.70127930226009 l0.31688007879030755,1.3002866264995905 -0.4316560987992252,4.505997089079461 l-0.8532711536855033,3.8102745045484414 -1.2153114446112583,3.445857987905199 l-1.4481464888815778,3.3650162591697574 -1.847175775380776,3.1241774372711952 l-2.205673849561295,2.7858720722717822 -2.708998706161484,2.481865388335132 l-2.5429548050396433,1.7501073821841167 m2.441233063110321,-15.976132555357525 l1.611645024582106,0.1337945155974246 1.8182386425041333,-0.10934778065688606 l14.337047924369044,-3.458928566615263 1.1626564110617488,0.6631016756349092 l-0.08625060882222255,9.877868585228983 3.2834886583329435,1.6764994564559257 l4.214721994832778,0.06488948833914165 1.359241577668478,-0.21583454314698386 l0.8349343695479762,-0.3496312701887279 0.5440652490438719,-0.5820452440215595 l0.3444690449729625,-0.8337894039975217 m-31.70275232907834,14.142118337929649 l1.575163280232225,0.30320786207079137 1.9512085608097856,-0.010502846329274325 l20.67038836567106,-1.353351973375651 6.947800021080419,-0.09301937031338042 l3.864390460785948,0.23791012157610406 " fill="none" stroke="black" stroke-width="1" /></svg>