<?xml version="1.0" encoding="utf-8" ?>
<svg baseProfile="full" height="109.4925166037865" version="1.1" width="106.19811871554703" xmlns="http://www.w3.org/2000/svg" xmlns:ev="http://www.w3.org/2001/xml-events" xmlns:xlink="http://www.w3.org/1999/xlink"><defs /><rect fill="white" height="109.4925166037865" width="106.19811871554703" x="0" y="0" /><path d="M25,25.000003061053064 m0.0,0.0 m18.37262988090515,-3.061053064357111e-06 l0.058110631071031094,0.6388810276985168 -0.6360048800706863,2.429225891828537 l-3.0340132117271423,4.858451783657074 -3.550458550453186,4.320676326751709 l-4.325714707374573,4.317989349365234 m10.883146524429321,-8.496915698051453 l3.98276150226593,0.0206342083401978 22.853264808654785,-2.8000590205192566 l3.680787682533264,0.17883503809571266 m-36.71785831451416,16.3381564617157 l3.5840487480163574,0.2270313911139965 25.423567295074463,-2.7276307344436646 l3.492684066295624,-0.23025918751955032 2.4117590487003326,0.24743203073740005 m-32.418344020843506,3.109086751937866 l0.6799028068780899,1.7083853483200073 0.17981912940740585,13.254430294036865 m-14.532359838485718,1.025165617465973 l5.2077871561050415,0.32334011048078537 20.32125473022461,-2.1720948815345764 l14.09031629562378,-1.0526254028081894 12.354387044906616,-0.4365697503089905 l3.8366448879241943,0.3249303996562958 m-26.442015171051025,-26.076557636260986 l0.9045775979757309,1.627097725868225 0.326746329665184,1.7715345323085785 l-0.1238236203789711,46.76394462585449 " fill="none" stroke="black" stroke-width="1" /></svg>