<?xml version="1.0" encoding="utf-8" ?>
<svg baseProfile="full" height="91.73049300440812" version="1.1" width="98.09768804197114" xmlns="http://www.w3.org/2000/svg" xmlns:ev="http://www.w3.org/2001/xml-events" xmlns:xlink="http://www.w3.org/1999/xlink"><defs /><rect fill="white" height="91.73049300440812" width="98.09768804197114" x="0" y="0" /><path d="M25,25 m0.0,0.0 m25.881358816498672,3.5666244492757 l0.055576379753413,0.3945475631467643 -0.3737588139370558,0.8451777476810388 l-1.0089568368587387,0.9938958708088264 -3.833072135149017,2.5071126398948054 l-5.434970530010462,2.372716646873323 -6.242739078676189,1.7483045814519615 m31.890242827211843,5.878622190921639 l-0.17032312005427167,-2.1033442778534335 -2.017337999340054,-2.4472021495854515 m-14.81876249153495,-9.822179434051508 l0.43174341925552695,0.442795360550486 0.24347170623456152,0.69912361513646 l0.008985715185664076,15.672373871256694 0.21061334489807626,1.2350982436042608 l0.4053433188837697,0.9849398991268125 0.7737558367935108,0.5555008513449966 l2.246985347689579,0.3248202276145662 11.4188764727652,0.1592730433947564 l4.700596648158438,-0.28513424923218494 1.6399389715118022,-0.3829331110274963 l1.264152405399748,-0.7371919583566666 0.6498959231367311,-1.016457153874848 l0.17607191415533782,-1.5920719681723017 m-32.03597693158224,9.017174269507931 l0.6692252101246866,0.7296731143427654 0.22418137955427633,0.8000129709258841 l2.048039354610052,11.189220149702344 m-1.527230835218329,-11.946955779535463 l20.637074594172358,-1.7132444313127273 2.4639407123561017,-0.007257912334691781 l1.0362095507921991,0.5668923646810885 0.19897907960364206,0.9800290702238393 l-3.087132274907144,9.526561325653407 m-19.620699741433345,1.5053476804063348 l21.062851594176994,-1.1770570184452307 " fill="none" stroke="black" stroke-width="1" /></svg>