<?xml version="1.0" encoding="utf-8" ?>
<svg baseProfile="full" height="134.89084156199647" version="1.1" width="98.91109116410337" xmlns="http://www.w3.org/2000/svg" xmlns:ev="http://www.w3.org/2001/xml-events" xmlns:xlink="http://www.w3.org/1999/xlink"><defs /><rect fill="white" height="134.89084156199647" width="98.91109116410337" x="0" y="0" /><path d="M25,25 m0.0,0.0 m29.953102549856062,15.511879958170445 l0.44607146747540183,0.11505930319150358 2.3926875512919685,0.10508253850391193 l13.316047857101147,-2.2523317853587583 2.803181738378792,0.0759799619550563 m-10.331688264484598,10.907840236485308 l1.0887271387882587,1.1838179543634768 6.436097780592358,0.6922123641125123 l0.35394872805868516,0.41139280755302887 0.2532318537384698,0.5841281602714369 l0.09131466400017105,0.8348123503631405 -0.6831998195074082,2.795372224641023 l-1.736842339749249,6.051157266734227 -3.2207623906583684,4.810787688889209 m-8.696549616590032,-7.908910297203787 l2.4255806539667404,1.7109882462726906 2.3820207104540083,2.460949205341765 l1.8478716485665663,2.4461555280100886 1.0062482666484183,2.0226734827339032 m-10.1547606797419,3.7669158419886397 l1.6800764676236108,0.8405921624184016 2.1326741398376203,1.5575036891411775 l1.5630871434182172,1.5536208839442347 0.6756717309509542,1.3371557726285013 m-7.4490215895965495,9.734740948945362 l0.8259964087276841,0.3281265030561237 0.9911431345879699,-0.28412283880811867 l8.392666172021555,-2.8205682229280935 1.1806724911850521,0.007304706814034931 l0.31803481944910655,0.39825210534235783 0.08379210325388153,0.5875182607613139 l-0.6989011429580705,3.516884328962344 -1.4510425320801863,3.8946088236006906 l-3.6107770794600413,7.14660864086782 -2.071297674915653,3.08765528275455 l-2.3294483254060863,2.7813398570808747 -4.713176517069268,1.9855601171811954 l-2.547565838527025,0.43579106545506857 m4.894831447337021,-15.000041073498188 l11.696955965550663,13.02955165110551 3.549329080704893,2.784743320203369 l2.8450315909221873,1.6620525399491033 m-35.26259479008329,-45.24368599671098 l1.5255309382271882,1.5939557483730287 1.5652693570638683,2.1194603746232437 l1.306505471681858,2.1857086485018065 0.7496262168243149,1.9511123007828235 m-8.23856970693861,15.351976751985127 l1.1063880747289208,0.40185403321244995 1.2664951138384828,-0.09884637761181346 l5.874653860893036,-2.604916802287546 0.8425392320514365,0.47474479649983 l0.09800348463862193,0.7514993786732477 -0.27048368903783404,0.9541015981293545 l-2.622911400662156,5.761648288398473 -0.43143732701609544,1.8799035292552349 l0.42074132097821965,0.9642441439510059 2.643071889331219,4.040380415168326 l0.0042679231912445895,1.1855701746350167 -6.080745463442215,1.188655652480853 l-5.4111602774201755,1.5148100922943357 m-1.4309716955470033,0.087895261184907 l1.9819863820619745,-0.5155198197473541 3.3261375983595713,0.02750931043391234 l26.691365791738274,5.059553582644476 5.963958763303073,0.303006254764632 " fill="none" stroke="black" stroke-width="1" /></svg>