<?xml version="1.0" encoding="utf-8" ?>
<svg baseProfile="full" height="103.06288629147835" version="1.1" width="100.66207141244186" xmlns="http://www.w3.org/2000/svg" xmlns:ev="http://www.w3.org/2001/xml-events" xmlns:xlink="http://www.w3.org/1999/xlink"><defs /><rect fill="white" height="103.06288629147835" width="100.66207141244186" x="0" y="0" /><path d="M25,25 m0.0,0.0 m30.171971293519608,5.036441304103336 l0.34120786243568985,0.3770046701123524 0.5444236192750357,1.6010405176989329 l-0.01645656117646905,4.520161834566537 m-20.130515272862567,2.007688770402702 l1.851974006910239,0.26532078286909405 2.2630085140258207,-0.022403385608190354 l32.829605348102284,-2.827101219260265 2.8068526022122184,0.3093754849085636 m-37.927361884909715,2.987041803995597 l0.5372523219975991,1.3290326739577063 -0.2709595799039099,6.593182846633567 l-0.6391249901304721,5.9841555686843515 -1.061026365360059,5.591476378620521 l-1.2897704597404975,4.424431413521449 -1.2595113931891793,3.17233900007015 l-2.0836067236091034,4.009361672663531 -1.8971170675400668,2.800811467079 m12.98211916184295,-24.378331850206337 l1.1465493509025682,0.22934475634125706 1.8090880463875638,0.0534963470172985 l22.027687863012616,-2.170163063534143 1.6090235982818353,0.5758631936087646 l0.3317610878097319,1.0069319676115955 -0.11075245775057302,4.155101658803392 l-1.0469482854051086,7.555150362083887 -1.4499575468272992,6.666614181978336 l-0.7205505068751914,1.5015291112553875 -0.5890217312806754,0.7015730679996853 l-0.6280236250649959,0.3388414004249826 -1.2487538196325207,-0.338890909732833 l-1.671279664604929,-1.6590325724644113 m-5.607692950756158,-14.185166522662568 l-0.07461194165841258,1.308388134349373 -0.8262143838513797,1.9424503071255819 l-1.5459561001275226,5.0106247786999 -1.5255804395119112,3.903944138252753 l-1.3886244024278234,2.9803700712833794 -1.6699683811246595,2.9079062397255253 l-3.846400673419187,4.828567002756445 -2.145818381072083,1.9684129057421687 " fill="none" stroke="black" stroke-width="1" /></svg>