<?xml version="1.0" encoding="utf-8" ?>
<svg baseProfile="full" height="101.20910993795762" version="1.1" width="126.66602015188039" xmlns="http://www.w3.org/2000/svg" xmlns:ev="http://www.w3.org/2001/xml-events" xmlns:xlink="http://www.w3.org/1999/xlink"><defs /><rect fill="white" height="101.20910993795762" width="126.66602015188039" x="0" y="0" /><path d="M25,25 m0.0,0.0 m14.409570039312653,3.801504777926936 l0.4047399268882332,0.4862246507562843 0.4900690208834821,1.2395175113102699 l0.25498124692568974,16.841325929669846 -0.19796521544939136,7.002948394514036 l-0.7024781864549603,6.277536091666939 -1.2701435843446673,5.430650478419038 l-1.4531641764454568,3.5388638563382693 -1.8899532223609683,3.3779431941681586 l-2.454907607006581,3.0358951904348497 m8.287868123256445,-46.684644894664444 l12.17124740679327,-1.938807046304869 1.6194312394244514,0.431060974842355 l0.638474438784751,1.1512481791062823 -0.5549752465336814,45.32268283280605 l-0.5104225475601193,1.3573633882382077 -0.7233116866995987,0.537796428729406 l-0.8773228587448781,-0.04331542277903307 -1.9057839341756302,-1.093196682380912 l-2.0205189890524067,-1.7484354198123242 m-7.107400177916737,-31.96515721984849 l13.05455711248813,-1.1147134283590059 m-13.687237420931055,13.4300171147774 l13.602097381176652,-1.1362899178022672 m10.408853995654907,-27.143844391234307 l0.7984121091620806,0.6893319213420458 0.5218380341046022,1.4507346680820605 l-0.2751033406985942,47.502978991785696 m0.7451668464483416,-46.82352453342213 l29.03767112259171,-2.3034966044115808 1.7693129758316777,0.1128784857654372 m-29.49270178954991,16.752204450012158 l22.81029718494106,-1.7135723533094105 3.1801369986081833,0.06684208445633177 l1.290498679912472,0.9483000303245728 0.1981676075367348,1.3476085147677057 l-2.6181481692952273,11.433058279993835 m-26.100501067438437,3.1751778673233546 l23.75278001957854,-2.0885293044517037 5.35871417750192,-0.1066193782478875 m-29.752384507123022,18.34570524558978 l16.7521677189506,-1.2032284309498191 12.679038082818003,-0.8640275635447636 l4.190366730823614,0.060105404617904395 1.8339856592635229,0.5906246445291047 " fill="none" stroke="black" stroke-width="1" /></svg>