<?xml version="1.0" encoding="utf-8" ?>
<svg baseProfile="full" height="104.77496391123124" version="1.1" width="103.55707464362798" xmlns="http://www.w3.org/2000/svg" xmlns:ev="http://www.w3.org/2001/xml-events" xmlns:xlink="http://www.w3.org/1999/xlink"><defs /><rect fill="white" height="104.77496391123124" width="103.55707464362798" x="0" y="0" /><path d="M25,25 m0.0,0.0 m31.217477102244047,13.122194479943891 l0.3665607241244732,0.29712413404734894 0.5184671384538364,1.2432009314538894 l-0.012596456524089753,4.002603790870578 m-17.80737367415441,1.6593668285467356 l3.9128634002018448,0.1229054768359733 14.827630135069079,-1.3851858179456478 l11.158740906041693,-0.7986912428715606 3.258779131953111,-0.07997236916310782 l2.856853127850383,0.3904850775393319 m-28.404313586422692,5.968648360827526 l0.6515524235465548,0.8704874008268563 1.8694720499015576,6.701279879900759 m-1.436538027489216,-7.012820197497832 l14.175245614246084,-1.6688432718466484 3.6477423195853933,-0.1724086474963186 l0.8886493884167892,0.6067657478444133 0.0921298360321585,0.5059976543866498 l-1.770636032686353,4.827105573595795 m-15.514227497848943,1.7533316617382457 l16.493802765964755,-1.5346761387482732 m-27.476103593332265,5.913445175863623 l-0.7266617152442284,3.7151003135480214 -1.5378907124769872,4.753769545146494 m2.6651908725172966,-7.009420326793141 l25.763797436115492,-2.3906105840196044 7.393128306505807,-0.5270371433826252 l3.540105528546084,-0.1139345471038718 1.798430034068569,0.18128841204920637 l0.792591861663556,0.31083256154266037 0.3542058367586075,0.4160989485195654 l-0.01041961168307442,0.5219568861017613 -0.8566315116636011,1.2550819246260605 l-2.544053870906793,2.049560036075027 m-30.066451955974756,3.6362167651726693 l1.6311603458085702,0.24349876984561494 1.7057729935894252,-0.04992621964186114 l18.24786000064976,-2.0066520538631525 3.420744171463618,-0.13571509980035992 m-12.085160388722743,2.0198456072740023 l0.5630946146437754,0.8576716935811094 0.15314402733232474,0.9365567798549509 l-0.21519871907663918,10.18080831269244 -0.4396548451459023,0.5976288411540301 l-0.6185091572290615,-0.04890285663036512 -2.6642279106778455,-2.5624654645391147 " fill="none" stroke="black" stroke-width="1" /></svg>