<?xml version="1.0" encoding="utf-8" ?>
<svg baseProfile="full" height="117.16932830735435" version="1.1" width="105.56123919037957" xmlns="http://www.w3.org/2000/svg" xmlns:ev="http://www.w3.org/2001/xml-events" xmlns:xlink="http://www.w3.org/1999/xlink"><defs /><rect fill="white" height="117.16932830735435" width="105.56123919037957" x="0" y="0" /><path d="M25,25 m0.0,0.0 m20.42841656030181,9.47557426492092 l0.12037926780564223,0.35835921814790034 0.30085502752789545,1.7937287868776826 l-1.3490349175593979,9.258286119682799 -1.7884715989402018,8.963636002070533 l-1.833078494162662,6.803340260113419 0.5905916026385534,1.6866266656547741 l3.083674748562633,1.7256099062529853 2.7502704637819075,2.1203900400806743 l2.334272102699708,2.599068004849986 2.0253245905562514,3.071088564157846 m-0.3452305964738066,-26.956736085616093 l-0.07454819318285628,3.5827520305028964 -0.8039771648630769,4.56930036927458 l-1.2664700672038498,4.903895934174005 -1.7874082277787806,4.960592809966423 l-1.880130024485925,3.8445281066577013 -2.3250496914646606,3.559595004346799 l-2.7930553180197424,3.15193540573569 -2.4149048492046234,2.0057362467895734 m-2.247076098833504,-23.721709389844378 l0.6858651444426663,0.7944873819915169 1.2378839681392566,0.13577561360799315 l15.272265513492037,-4.400606198978922 m3.846074878049528,-13.8764785191596 l0.4473769985855897,0.828633104292881 0.19492148085794248,0.9636098740051877 l1.404147716038271,38.91904225795367 m-0.564300829506959,-38.7191136377297 l18.421545659062012,-2.249886856967771 1.1772029238295214,0.1801190442604785 l0.8074784978693074,1.6816178361063716 0.05459491337301443,2.058858715647204 l-1.1460891842825087,37.96337728280707 m-17.543880274763612,-28.10329378341946 l2.3761383804931016,0.029214914194812685 8.429798897415495,-1.2821769017278106 m-10.726097225591333,12.49747135488751 l2.1696701436269965,-0.0966265893853212 7.08147294597768,-0.9352968053843091 m-9.16544183935216,15.889273134536857 l1.0246652841345232,0.22661535037202668 10.621417485809314,-1.3272264695464304 m-9.653411286295695,2.541096845230953 l0.233934131749069,1.4617528768756793 -0.3851476684733863,1.564382306438227 l-2.473501989701197,4.803284307039553 -2.766044946727318,4.1964027338814365 l-3.598879084733595,2.3833308416331414 -2.385870156845457,1.0056314798228574 m16.461588720405903,-15.355571231571068 l0.45565046257440167,2.3259926665418584 -0.11183524465997567,9.469022885991897 l0.30363723646388296,1.601411034910924 0.8049566609504167,1.2074531891471063 l1.5083643708990253,0.7268049442256506 2.204589096394001,0.30534506002519185 l3.765619592158692,-0.057977788060838815 2.2254918114024664,-0.44712654163797666 l0.9370646720680599,-0.5243186612467481 0.6377901502141134,-0.7115416133119821 l0.39326894414894636,-0.9691780161803111 0.17191311898624947,-1.9751187861372967 " fill="none" stroke="black" stroke-width="1" /></svg>