<?xml version="1.0" encoding="utf-8" ?>
<svg baseProfile="full" height="109.41515022354005" version="1.1" width="101.98336908292939" xmlns="http://www.w3.org/2000/svg" xmlns:ev="http://www.w3.org/2001/xml-events" xmlns:xlink="http://www.w3.org/1999/xlink"><defs /><rect fill="white" height="109.41515022354005" width="101.98336908292939" x="0" y="0" /><path d="M29.353985275396383,25 m0.0,0.0 m21.845835493296466,13.506610745659472 l0.3911697224086175,0.38146059249244424 0.5954473974654989,1.3326991539839694 l-0.0009089699995801681,4.087866397943962 m-17.658443044322272,1.7850144674844728 l4.022631759501659,0.13146011224815862 25.36599568146757,-1.4403415906663368 l5.303564604368614,0.08194940164245464 m-28.30782691011513,3.082646126392623 l2.7826020696664013,3.392171772197932 1.1171703640460702,2.9606457130349093 m16.01847197283169,-7.674906004701319 l0.0009919615832124518,0.8924309714363277 -0.6325921366517929,1.5857686854819515 l-3.219855519681125,5.4731263711120945 m-31.978239721262284,2.652173060078993 l2.326097039710159,0.22041009191028443 2.7902610309217746,-0.011799685478373175 l37.7736394837568,-2.314745361763645 5.081772469682933,-0.10471898172474876 l4.011599058857722,0.23803228634179172 m-42.54068078874774,7.229032857935299 l0.680340220520256,0.6713338907037398 0.3720874056174578,0.8321040947419246 l2.6480327173136065,12.33048683544434 m-2.1933414894380827,-13.26097934318467 l25.19633722590742,-1.9457519843339879 2.7746727634056283,-0.25475747947034305 l1.4703167957296948,0.04911947423594688 1.141451976845883,0.48014855243794674 l0.5585142820932896,0.8336222656108857 0.0038318640368030987,1.3709996147858023 l-3.0299323411296095,10.740760427173269 m-26.56516139205084,-5.447255789560718 l27.701337278790323,-1.708624637720912 m-26.272505599163864,7.55683185484605 l24.587490061582955,-1.3394068788940057 m-13.36816340222328,-10.157354364467471 l0.6468023013903695,0.5629942304227545 0.2690765389382056,0.863972347183673 l0.1057580019407363,13.263528218126252 0.35864819754123184,3.5324720635960136 l0.8878843158746904,1.3303416159958525 1.8077338532954816,0.952508588840654 l3.5151438990571786,0.5303376470578328 7.567709975761702,0.14073179692649743 l5.254855497624945,-0.35343344510703123 1.8216041497357887,-0.48514902732319415 l1.949592335683643,-1.019496740402281 0.713237902484832,-1.0768290471513076 l0.2608987155984798,-1.8899178281960838 " fill="none" stroke="black" stroke-width="1" /></svg>