<?xml version="1.0" encoding="utf-8" ?>
<svg baseProfile="full" height="114.86323715957991" version="1.1" width="99.84061423397914" xmlns="http://www.w3.org/2000/svg" xmlns:ev="http://www.w3.org/2001/xml-events" xmlns:xlink="http://www.w3.org/1999/xlink"><defs /><rect fill="white" height="114.86323715957991" width="99.84061423397914" x="0" y="0" /><path d="M25,25 m0.0,0.0 m13.982163931510708,4.028248937785965 l0.5661268754372987,0.18351320929527945 1.7965146509114107,0.24538357744097386 l2.4589342713605578,-0.1370944705091851 24.47736575367787,-2.743959082934946 l1.4755010123492434,0.2851425393549807 0.987794430878289,0.8467185091840321 l0.21741992279773817,1.3267905653012486 -1.909375800689606,8.50648639493517 l-2.2696088606793716,9.00071389288998 -2.375444548779059,6.43422074270447 l-1.4503775085633455,3.7886843086899695 -1.354495096294252,3.309594272282249 l-1.9783210024936637,2.8827008653496544 -0.6709526259706473,0.6113575170634624 l-1.2129381734806468,0.5260931836460682 -1.1349549925252458,-0.24409857519704634 l-1.1293636491724552,-0.9043241917412786 -1.4499184025601053,-2.1933367074263366 m1.3703362528063805,-31.468224111115795 l-0.3055396200226535,2.6012141854783457 -1.8906655647669728,5.085796794855586 l-2.3664045673294503,4.956721544796771 -3.0511678189461513,5.112554867556132 l-2.919154446520869,4.0371887170088545 -3.444965146949653,3.995109119009016 l-3.915242619671814,3.7686324471004276 -3.3003602476807647,2.6726188072794352 m9.497671667162194,-23.183406187803897 l3.462562690426248,1.9313773041784232 3.5738411441104447,2.6025255512893652 l3.06572379537949,2.861306688486398 1.979111286941915,2.953870731321769 m-22.048958902816988,25.648192599834704 l-0.8559605844165087,5.747192453141358 -1.8300944645674384,6.4574593510300415 m10.08721188400431,-15.292926583773447 l2.879299304015733,5.544178397428244 3.269798864556222,4.726311023384902 l4.112180269287796,3.8506545681786832 4.144057662769289,2.282320706284596 l3.5858242767416963,1.1942280351500882 4.116833431961837,0.7573165874968798 l4.857830205140339,0.268188073868319 2.8952255973104255,-0.37262993254133026 l0.8789638117890081,-0.42335898650561593 0.4867559560197356,-0.5628671882722288 l-0.12127721357205565,-1.480439866780026 -1.3076041261379734,-1.9628726002056591 l-1.546547747863704,-2.321105126303157 m-17.310623833964197,-14.95493698617321 l1.4924770963490843,3.491889510754013 1.0526228503096529,1.5090498702233168 l0.8745171751945272,0.22244741052940742 0.8313917856264432,-1.596002397002027 m11.52172419519161,-5.679130632709479 l2.366696226241024,1.7557353039361552 1.667154902431411,1.7645286347481766 l1.5146554816299689,2.2192771667860756 1.4446431380948233,3.011252690033875 " fill="none" stroke="black" stroke-width="1" /></svg>