<?xml version="1.0" encoding="utf-8" ?>
<svg baseProfile="full" height="112.75854337578704" version="1.1" width="96.30742092602222" xmlns="http://www.w3.org/2000/svg" xmlns:ev="http://www.w3.org/2001/xml-events" xmlns:xlink="http://www.w3.org/1999/xlink"><defs /><rect fill="white" height="112.75854337578704" width="96.30742092602222" x="0" y="0" /><path d="M25,25 m0.0,0.0 m22.101910730778435,15.750702678820563 l0.39901036567909703,0.3985366617387105 0.6191573792272261,1.2717009655731806 l0.12858201982620743,1.1246739609479905 -0.08409292462084275,44.2129291087066 m-16.78619386781836,-45.43045038718779 l0.7722715969872385,0.9394373151433075 0.19299911556992047,1.2670958761697884 l-0.6331030910069998,3.6199776214172585 -0.9270916744325819,4.351412681226645 l0.010161894044205493,0.6186100026116116 1.087116584793955,0.5018368032298056 l14.06313696053607,-1.4802662768164514 m-19.41445287622101,10.45071067615977 l2.145408976318878,0.2584000717759714 15.945420335896749,-1.5317992433257448 m-10.133797050921748,2.8859287091840082 l-0.004840324464226433,2.0519376749017484 -0.598024219639568,3.8429461787945542 l-1.0037901154372457,3.222797558052742 -1.3130458890114831,2.4592345151501562 l-2.8401539910161966,2.910053424634366 -1.9944622574175752,1.4163781051556628 m37.173539290186056,-38.550702602771985 l0.00174757386046774,1.790462386957036 -0.45569018339970824,2.750239219784257 l-1.128325162161694,4.03076202950827 -1.551665239632351,3.6102390726265936 l-3.4357268834129053,6.160408011168719 m5.404001341240662,-7.979658256224169 l2.3534173300320447,0.2298654043560732 m-6.208744328639837,0.7408004957459792 l1.7038617678511851,1.572583248561577 1.5774432457568701,2.10168310886777 m-21.285566103843887,-8.023299824659658 l0.7967035963690651,0.7615215398918732 0.4956474861450273,1.53294924258572 l-0.09944293411880298,23.427394604929017 m-9.032418648127566,0.5640570812688808 l2.231143357636347,0.4177840366748144 1.805129180535221,-0.09741806635257415 l31.20047629056844,-2.9705401626908103 3.0297622715274395,0.4427513146572477 " fill="none" stroke="black" stroke-width="1" /></svg>