<?xml version="1.0" encoding="utf-8" ?>
<svg baseProfile="full" height="118.27793163358871" version="1.1" width="107.81272541211317" xmlns="http://www.w3.org/2000/svg" xmlns:ev="http://www.w3.org/2001/xml-events" xmlns:xlink="http://www.w3.org/1999/xlink"><defs /><rect fill="white" height="118.27793163358871" width="107.81272541211317" x="0" y="0" /><path d="M25,25 m0.0,0.0 m13.277901748359115,21.20397387278301 l0.06944014530962232,0.3463855062805775 0.03815574490856633,0.8628636615815494 l-0.930964877598767,1.4289341653586578 -3.6386824029662526,4.057682075321336 l-4.297971238174155,3.7065150718661335 -4.312609841298019,2.881152462660775 m14.767377891137222,-11.1259012581664 l4.66213502053172,0.8376270246923485 3.0366769533780467,1.5291908411606454 l2.265773363027486,1.6999290639626385 1.6157025714886102,1.7419204888203312 m-19.893255053715535,3.4412307674217666 l2.7519979072462197,-0.03670059839604891 8.540457932773545,-0.8009958471829067 l4.031235796352863,-0.19982030408176576 m-21.532417543927487,7.210634060932002 l2.891923010305275,0.2129291334741445 17.253150707187224,-1.4405181331138739 l4.661237740962256,-0.17115957164412887 2.2270947931079035,0.13048116442178104 m-12.53774137460415,-4.3746772179814615 l0.799141699388784,0.7434220238279622 0.13696027739338293,0.6795844827933171 l-0.11715769963264125,15.401800953120086 m-12.508173917737322,-6.02267252344717 l2.734862787070114,2.2315110765715884 1.8288646761615774,2.4041278046452805 m16.119430560476296,-8.378678964831188 l0.2539152597218517,0.713391040178406 -0.22265897796209272,0.715670721839329 l-3.876586324712497,3.593201977355198 m-19.678979957835942,7.656257310573962 l1.9444162306508628,0.3713934258524053 1.679760287398281,-0.032314554636193316 l19.09912314741592,-4.7142780083388285 m7.854421466393169,-15.293478584081646 l1.7542467380725548,1.5917853214129565 1.785058341692648,2.1728674937578942 l1.5642467713396084,4.190767024695545 0.7243396205742797,4.294186834503814 m15.840763472376155,-11.981108938115002 l0.1265597049575066,1.2590512687270654 -3.2436601551851285,2.1086782390023693 l-4.494048321998943,2.683808284007593 -4.591489551573613,2.1346250002983744 m-4.261576994112368,-14.636740425584076 l0.7302609401731683,0.7307762558138708 0.3488127161319753,1.0904599281462246 l-1.752263073638968,18.75878897076869 -1.856736992679116,4.120040998488908 l-2.5021080670518185,5.971308824373624 -2.692180619420134,4.543447853717639 l-3.1204400226913345,3.6197784998301183 -3.197414653684517,2.4147955881495093 m15.228034322198623,-20.036549707183017 l5.129044795596465,5.8668567117251165 5.552018625112589,5.402619407094853 l7.175043299134713,5.683163299185834 0.9766159589676363,0.5207429054264382 l1.5956400498401384,0.39949542985933206 " fill="none" stroke="black" stroke-width="1" /></svg>