<?xml version="1.0" encoding="utf-8" ?>
<svg baseProfile="full" height="105.09945593774319" version="1.1" width="109.49251083657146" xmlns="http://www.w3.org/2000/svg" xmlns:ev="http://www.w3.org/2001/xml-events" xmlns:xlink="http://www.w3.org/1999/xlink"><defs /><rect fill="white" height="105.09945593774319" width="109.49251083657146" x="0" y="0" /><path d="M25,25 m0.0,0.0 m14.296656847000122,0.9169235825538635 l0.052075404673814774,0.4169381409883499 -0.12754078954458237,0.9618042409420013 l-0.7141530513763428,1.1366169154644012 -4.379022717475891,5.720927119255066 l-3.731345236301422,3.7906205654144287 -3.431953489780426,2.5481784343719482 m13.87784481048584,-2.4004919826984406 l-0.08916448801755905,2.160375863313675 -4.197344481945038,7.006570100784302 l-5.068561434745789,6.580590009689331 -6.48749053478241,7.057473063468933 m9.923462271690369,-8.230258822441101 l0.45409001410007477,1.5073402225971222 -0.05636226385831833,25.925848484039307 m22.697508335113525,-53.79673957824707 l3.8793668150901794,3.0468297004699707 1.8104156851768494,2.118849456310272 l0.7368419319391251,1.370370239019394 m-14.863760471343994,8.417797088623047 l2.4266134202480316,0.1568855345249176 20.59774875640869,-2.3891057074069977 l3.313402235507965,-0.112941674888134 1.6925343871116638,0.3906911239027977 m-26.812639236450195,18.775277137756348 l2.8870871663093567,0.24691862985491753 20.631237030029297,-2.4003246426582336 l3.1757625937461853,0.267482977360487 m-34.54993963241577,20.75782537460327 l4.184451699256897,0.13719504699110985 32.44013071060181,-2.400408387184143 l2.7323681116104126,0.21347148343920708 2.1921904385089874,0.547880157828331 m-23.061869144439697,-33.54259014129639 l1.1522311717271805,2.8947898745536804 0.11659407056868076,30.028254985809326 " fill="none" stroke="black" stroke-width="1" /></svg>