<?xml version="1.0" encoding="utf-8" ?>
<svg baseProfile="full" height="339.51390888797056" version="1.1" width="124.78550383669173" xmlns="http://www.w3.org/2000/svg" xmlns:ev="http://www.w3.org/2001/xml-events" xmlns:xlink="http://www.w3.org/1999/xlink"><defs /><rect fill="white" height="339.51390888797056" width="124.78550383669173" x="0" y="0" /><path d="M25,25 m0.0,0.0 m7.489154963609256,28.298286608510146 l0.06883155869808398,0.4161597713365998 -0.574449870228609,6.031875415146085 l-0.6886731158373662,3.291819382737056 -0.7906363666238105,2.0497000045200537 m10.216352468717181,-15.216244459102839 l0.980293642171965,2.443763411964124 1.877990847196258,3.4799431068342646 l2.07338474114155,3.066425032997561 1.7354336658247829,2.0516997604598766 l1.8058957929282038,2.608757013398734 1.6183876200685825,3.303554556431099 l1.3300980729996548,4.485345793291408 1.0813177219467625,4.741077167032701 l0.9101987718079768,7.079028439868647 0.6722432140324806,4.510785644927546 l0.7057122683785011,5.371154254510012 0.7258236720065282,5.896183635909405 l0.7703879288367241,6.034718467292352 0.8099870128805221,8.04184523708873 l0.7955999777486966,8.198924063920655 0.8298132724717707,7.889579706331997 l0.869032770604894,8.37464557685205 0.771790357297268,7.679631522530936 l1.9834621166433326,7.183123414082294 1.3857564100268056,3.948476608408841 l0.8010214957210627,3.276742447556851 0.618728432671682,4.126807332696969 l0.9011134403318177,5.70015767817571 0.9062921079774927,6.195303277193168 l0.8754355638557518,6.204007682340533 0.9197525247141608,5.964615179749343 l0.9774821144131493,7.456757958972991 0.9176419983996534,7.218846669323989 l0.926924519903331,6.75163941614601 0.9849096119675196,6.374424599997641 l1.0084755161901693,6.571768399078612 1.0304758218291215,6.126064023118651 l1.077097127100793,6.918014650579452 1.0055644591493476,6.517506537906712 l1.0328406927933635,6.882706448844666 1.0178687814346736,6.493976824214032 l1.056507667975336,6.130185780587929 1.081736159392001,5.933221064047684 l1.1167526784944561,5.924372268518999 1.854788405444373,5.660507236193624 l0.8212505594800097,3.338553513630623 0.7343033854554251,3.551385368826747 l1.4612934389754721,5.353608002031922 1.2580829788999228,3.744049756454114 l0.862887848797185,3.330111280230981 1.71722006735983,3.3489585894986695 l1.0002161361992252,2.2851186723423047 0.9632472509949297,2.326455065014946 l0.946706270648622,2.379595762628873 1.3283731214688002,2.558663980021148 l1.5519395318854656,2.274937493238285 1.1118686955835473,1.0199206995467613 l0.5924906684536855,0.31466609198114487 0.4277514812857908,-0.114739948044795 l0.30837122949161216,-0.570548126706737 0.13490253660495347,-1.0516189214173632 l-0.031856699903990475,-5.175536649864508 m-11.32045989593812,-50.487690133825275 l3.07713661702868,2.8863949977101098 2.389768462512434,2.0682758274678084 l1.4436355412609685,1.4069872601556146 " fill="none" stroke="black" stroke-width="1" /></svg>