<?xml version="1.0" encoding="utf-8" ?>
<svg baseProfile="full" height="128.44211854153096" version="1.1" width="93.54778443592463" xmlns="http://www.w3.org/2000/svg" xmlns:ev="http://www.w3.org/2001/xml-events" xmlns:xlink="http://www.w3.org/1999/xlink"><defs /><rect fill="white" height="128.44211854153096" width="93.54778443592463" x="0" y="0" /><path d="M25,25 m0.0,0.0 m28.69199697519211,14.05734301591259 l0.21028495844183018,0.35631150644396054 0.2530695179103673,1.194853634696673 l-0.03649186310957181,4.64801095957464 m-14.169966183673692,1.8671322820325276 l1.3880620557265944,0.20504923277492207 1.6044763051867146,-0.0017262279730120996 l11.962569663842762,-2.4259288779599486 8.595712672699607,-1.1553956934025538 l2.892158034757138,-0.20106936991786536 2.1559122989507684,0.2638046691024253 m-25.99832042364376,8.300183790578446 l0.4887698036971999,0.811524290189793 0.21630159397401783,1.0875354213026478 l1.2960966767207542,13.369805460563988 m-0.8628345467980006,-14.478798742299835 l16.4680599322337,-2.533075956426308 3.2379916535185957,-0.2627724315196543 l0.9372392388371972,0.23174759384722188 0.6140085296728912,0.6565809872997578 l0.22067672860185786,1.2664956135464593 -1.9510279183236103,6.366283670744896 l-1.5540890981989344,4.2871227267463405 m-17.36126707275233,-4.447433065920162 l10.755166149280017,-1.5540448012096257 8.448731700592992,-0.9590817159799278 m-17.514396007918585,8.694532732784964 l8.032835247073761,-1.1973257599770213 8.306781635207066,-0.9732185410561768 m-8.790727588572727,9.759924505008911 l-0.2156316805499857,0.7627724466477716 -0.6603457246446662,0.5763076291656369 l-3.2500111552779565,2.010063967153121 -4.61633794078103,1.8208106387945984 l-5.657485794054677,1.8167627923439125 m23.3329139711322,5.230287135046045 l-0.6287219777309996,0.7800639906931617 -0.7906871147155207,0.8209290690648289 l-4.542628345279844,3.081346705803979 -3.9243327411302267,2.332051798355691 l-5.840961081598929,2.7951643221964515 m19.108460180580753,-4.598815752914064 l-0.5528128691132997,1.2815747516596347 -0.8602809036700634,1.4860485502387621 l-1.8688321756773507,2.153004758812249 -2.2920620133672496,2.1866236583760412 l-5.278572264876402,3.6596514799400395 -6.188236333179631,3.013099690644008 " fill="none" stroke="black" stroke-width="1" /></svg>