<?xml version="1.0" encoding="utf-8" ?>
<svg baseProfile="full" height="108.7045206874609" version="1.1" width="109.49251472018659" xmlns="http://www.w3.org/2000/svg" xmlns:ev="http://www.w3.org/2001/xml-events" xmlns:xlink="http://www.w3.org/1999/xlink"><defs /><rect fill="white" height="108.7045206874609" width="109.49251472018659" x="0" y="0" /><path d="M25.000002386514097,25 m0.0,0.0 m2.264603227376938,17.591981887817383 l-0.014481397811323404,0.7342345267534256 -0.7081212103366852,5.588756203651428 l-1.5420030057430267,6.22040867805481 m12.019942998886108,-18.81382465362549 l1.742701232433319,1.023777425289154 2.431003600358963,1.972702443599701 l1.4830993115901947,1.5705406665802002 0.830351859331131,1.335095465183258 m-9.885967373847961,-17.05002784729004 l0.6590418517589569,0.9196645021438599 0.35814348608255386,1.6933666169643402 l0.020904727280139923,55.91784477233887 m27.393276691436768,-56.26727104187012 l1.0564402490854263,1.5667979419231415 0.2772943116724491,1.3456429541110992 l0.1016621757298708,13.872201442718506 m-19.575958251953125,2.885221838951111 l2.593637704849243,0.38293834775686264 2.569480836391449,-0.09199196472764015 l16.406296491622925,-2.3641467094421387 12.250624895095825,-1.3797944784164429 l4.1083791851997375,-0.170916635543108 2.652158737182617,0.4047561064362526 m-31.813652515411377,5.337660312652588 l0.6522370874881744,1.0499757528305054 0.2106926403939724,1.3361163437366486 l0.09883926250040531,21.56363010406494 0.5233717709779739,2.3462842404842377 l0.863184928894043,1.3099178671836853 1.4055249094963074,0.9669576585292816 l1.2997108697891235,0.4724210128188133 6.048078536987305,0.7152236998081207 l8.921732306480408,-0.214057806879282 4.223719835281372,-0.5104001611471176 l4.015493988990784,-0.8295863121747971 " fill="none" stroke="black" stroke-width="1" /></svg>