<?xml version="1.0" encoding="utf-8" ?>
<svg baseProfile="full" height="105.15795318963774" version="1.1" width="106.94257719317997" xmlns="http://www.w3.org/2000/svg" xmlns:ev="http://www.w3.org/2001/xml-events" xmlns:xlink="http://www.w3.org/1999/xlink"><defs /><rect fill="white" height="105.15795318963774" width="106.94257719317997" x="0" y="0" /><path d="M25,25 m0.0,0.0 m9.69836283776166,20.962660775137078 l-0.013031196896889106,0.6312310282954953 -0.6808591417346604,4.787781662846866 l-1.5461372513646645,5.363187304923804 m10.496318227745212,-16.577542471708338 l1.368569565233411,0.935985408404497 1.9842217444598782,1.8453046478080306 l1.1844581258915927,1.459348321568378 0.6821405197989417,1.2817467788234198 m-8.252228229449322,-14.835722810112168 l0.5350372919864218,0.796747289556044 0.2823793839945697,1.446978164608065 l0.012334237199053985,47.06024708948656 m22.225869588038538,-48.52104553290069 l0.7868378434548743,1.384541970250939 0.18308423478324012,1.2668710694378518 l0.09641915553999829,15.615780878236777 m-16.39383101257139,-10.158300998948025 l2.1592923476713586,1.9224508611370332 1.921632745120008,2.289638786930222 l1.6673459063693343,2.476775727326028 0.9603577530104309,2.0040998043859424 l0.8722617575839454,2.0458824516092435 m18.749255525796123,-12.076282763163457 l-0.18794780905503175,1.6079801825021538 -1.2221635175391254,2.487285449631344 l-5.066470587260025,7.380060291467736 -3.968470278108349,5.515187972334945 m-16.483535439287646,3.3998102354036295 l1.7434799155339358,0.22952994853137765 2.38867786632154,-0.01611300450197502 l23.353952656087174,-1.2363888118152293 4.270635971933171,0.2857499436342721 m-29.40641480172004,2.769959733155485 l1.9384010147029664,1.3167216722578108 2.008764882900197,2.3868451987282944 l1.6211139809908726,2.3640042334874023 0.8191379263465959,1.8836243577938845 m17.883793711184733,-10.901338612359792 l-0.09620244234481175,1.2792654812603723 -1.1584054919489344,2.1366626388853938 l-4.317579551654008,5.629030495092989 m-24.837243695373463,4.221677268738319 l3.3173172861981697,0.292770579064753 15.447831770368786,-1.1917755151951595 l12.900385878907771,-0.6324285187168397 4.263781650913498,-0.042545111063982004 l2.749644335660327,0.3222278704405847 " fill="none" stroke="black" stroke-width="1" /></svg>