<?xml version="1.0" encoding="utf-8" ?>
<svg baseProfile="full" height="106.82585631593439" version="1.1" width="106.12389973608387" xmlns="http://www.w3.org/2000/svg" xmlns:ev="http://www.w3.org/2001/xml-events" xmlns:xlink="http://www.w3.org/1999/xlink"><defs /><rect fill="white" height="106.82585631593439" width="106.12389973608387" x="0" y="0" /><path d="M25,25 m0.0,0.0 m15.77278150577864,2.4907397032918803 l0.024061932065181584,0.4564157760940542 -0.12623181454803617,1.0742338909283071 l-0.8571325693451523,1.6120070038754735 -4.082480266772124,5.679330981098884 l-3.627059580849788,3.842533871071419 -3.447948122228262,2.519726560166347 m15.35957859881565,-4.14196904327273 l0.03062216998735415,1.1772969779335478 -0.443048890610404,1.0507679036638722 l-4.775971591651052,6.582654112708221 -5.515456987356409,5.887177369558156 l-5.963756675941566,4.988001757278678 m9.637986719298803,-6.047054381685573 l0.7877312487761419,1.6008750662428757 -0.045589785656935236,28.05311876698098 m18.910386900011005,-54.76685741990071 l-0.30662550728855853,3.0649590481330673 -1.9386862236061386,5.470110648876917 l-2.4412698966592625,5.300259047636184 -2.2477933067028313,3.728392660016896 m5.990770458312689,-6.6578767757549056 l1.4326048315908528,1.0874252694137552 1.8456165389742798,2.08461645102745 l1.1911494927815034,1.9422655747865087 0.854776456093612,2.034031178387581 m13.20736086135942,-17.13613610996303 l-0.5133030566232097,2.9210500220204265 -2.1543186817026574,5.167880418403189 l-2.6691282622120815,4.995855413993181 -2.4770618240716873,3.5141134496788906 m6.217474451344105,-8.222382315576201 l2.0555276549758275,1.3316837946828834 2.624306245323981,2.440153328458926 l1.8266478661172998,2.3280708513283215 1.337567254842868,2.473724215130423 m-17.428210243592208,3.6296266005862234 l0.8855528607203235,2.3836814799377417 0.18820310581596825,22.21239917145209 m0.04704362478935275,-13.98176476861222 l9.35289328637077,-1.8630100604285955 2.326980061273334,-0.1935330990054915 m-22.94715968448604,0.9246120974301194 l0.2749255668245632,2.1944683098677875 -0.4699937180195383,3.402300208175722 l-0.7930335343059925,3.9303277221865156 -1.0303328565070247,3.1876318241697086 l-2.352970534068067,4.53766769671903 -3.806805837348067,4.578013944123775 m7.322323776632126,-12.322669301383593 l5.805035458776489,2.638956298503526 16.64334888812326,8.698247414222562 l3.630426069657165,1.2515079410755 3.001585302804413,0.6624447969105879 " fill="none" stroke="black" stroke-width="1" /></svg>