<?xml version="1.0" encoding="utf-8" ?>
<svg baseProfile="full" height="103.89984003028206" version="1.1" width="101.58816319683353" xmlns="http://www.w3.org/2000/svg" xmlns:ev="http://www.w3.org/2001/xml-events" xmlns:xlink="http://www.w3.org/1999/xlink"><defs /><rect fill="white" height="103.89984003028206" width="101.58816319683353" x="0" y="0" /><path d="M25,25 m0.0,0.0 m29.720019940169955,11.941297664069712 l0.18537235572548194,0.3246552441573884 0.23465498477402835,1.1046530170963398 l-0.03404515187887982,3.9139618127483446 m-12.816155518644562,1.7166215422183286 l1.3260818431168366,0.19888336589613884 1.6190650538942357,-0.005886410502422795 l9.963474114553872,-2.0281469353340795 8.746662116972923,-1.1414117982171084 l2.419066536145688,-0.1829477074099734 1.8529477805597065,0.24747593661866799 m-23.863182058577348,6.913553163251129 l0.45026839265164886,0.6560729617151014 0.20237303055865355,0.9425780445901718 l1.2830725926195659,11.556001565643244 m-0.8615873541939848,-12.440697157762393 l15.142041207475009,-2.2149631145945023 3.399346667648014,-0.2988011384387577 l0.9442322887181088,0.20551704010688773 0.5543966009441315,0.6237955693579119 l0.10883570496205408,1.1195022487660036 -1.8759160280902998,9.652963392766448 m-12.106060731075301,-3.945640683020464 l9.54054245598388,1.0734622887313805 4.3074034802613,0.9802488573323109 m-16.252905659845663,5.629429464518583 l7.725762363962137,-0.7951926048318049 9.298253402274257,-0.8678950673046365 m-11.213410160795727,2.84000617609704 l-0.08104287688407864,0.7783650308336985 -0.4170565343722511,1.0335484274729496 l-1.2554019566782726,1.8263649234870105 -1.6000650849615654,1.825720499177205 l-3.8414949704767003,3.5024772943364915 -5.016765384474242,3.48707932600247 m10.559728256788162,-6.908635620241689 l0.37826162006294833,0.7511466260473972 0.03376292525872777,9.069428961994145 l0.1547414355542574,0.5327705925145916 0.31903684030425217,0.2824772303928068 l0.45741112605378526,-0.11345078007846195 5.7608417653373944,-5.096004935999733 l3.124585083998071,-2.375506772685506 m6.8615805059795925,-11.531173978366853 l0.048696619827291995,0.8781206686165799 -0.7384498019554788,1.3123310791703215 l-3.272525374363294,3.7050621989482377 m-5.013438108590338,-3.144215777938455 l12.01964355344288,11.190509621491072 1.5135978369617988,1.2364184494359491 l1.5919054691508754,0.8781321855013065 " fill="none" stroke="black" stroke-width="1" /></svg>