<?xml version="1.0" encoding="utf-8" ?>
<svg baseProfile="full" height="100.11037578035469" version="1.1" width="100.7521153895149" xmlns="http://www.w3.org/2000/svg" xmlns:ev="http://www.w3.org/2001/xml-events" xmlns:xlink="http://www.w3.org/1999/xlink"><defs /><rect fill="white" height="100.11037578035469" width="100.7521153895149" x="0" y="0" /><path d="M25,25 m0.0,0.0 m17.989700853510357,3.1057298832311973 l0.644696218057693,0.17842587491018533 1.8840443193118435,0.2189206006675476 l2.701069596450781,-0.16356819203822254 24.529053885857515,-2.858710925096153 l1.4973605794606453,0.21670026622001098 1.033395584915181,0.7912416247885712 l0.3528412846777465,0.6074951444314934 0.11995306727313575,7.844495791168491 l-0.09977131595055443,19.110765878380693 -0.8384344421192869,11.441221082493733 l-1.261995281130796,6.445520827627155 -0.9976532620689996,2.2080076272984295 l-0.6447011348707028,0.6443970280980754 -0.6826292373766435,0.31973326817347714 l-1.3732123901044837,-0.324600301274359 -2.5631376800323014,-2.6775220109641578 m-23.346871387684843,-37.051542441738945 l1.8060224949772945,0.2871011030510558 12.400795133566042,-1.992163372565981 l2.3691530466970643,-0.1370931237568184 1.4190503981217217,0.21198799417236255 m-19.541441777572537,12.103570538488777 l0.6664323640744131,1.0617533024696924 0.4731402192513832,2.045767531595332 l1.6959891623715817,12.050443705138154 m-1.408440720435457,-13.863089780296121 l13.957780696968962,-2.508282112244574 1.585345019353403,-0.055298255935266154 l1.2755695935614393,0.2991153772413055 0.6711343362380876,0.9790774422717802 l-0.09667785939112161,1.689584375224537 -2.1260920986563767,9.593879133920991 m-13.481297666712747,2.5502344212947885 l14.6566882785779,-1.7988038707455347 " fill="none" stroke="black" stroke-width="1" /></svg>