<?xml version="1.0" encoding="utf-8" ?>
<svg baseProfile="full" height="159.98036130025338" version="1.1" width="104.05969001872141" xmlns="http://www.w3.org/2000/svg" xmlns:ev="http://www.w3.org/2001/xml-events" xmlns:xlink="http://www.w3.org/1999/xlink"><defs /><rect fill="white" height="159.98036130025338" width="104.05969001872141" x="0" y="0" /><path d="M25,25 m0.0,0.0 m11.59122800784033,3.662553812214189 l0.6815036332547094,0.1976076448527755 1.940417724653261,0.24964660140215647 l2.6596793178851867,-0.14803721771954004 27.2769977514623,-2.8937810565667954 l2.0365899589743885,0.31080426321448956 1.0436653016547488,0.8559981044128875 l0.33179838300186126,0.6171573024765067 0.08131705533223024,6.580588479896652 l-1.362387926445905,20.24204813968785 -1.985348864505118,13.84725169881299 l-1.7825336448652798,6.5220923641337425 -0.6724313223134422,2.088796567115757 l-0.7340992758389739,2.7681996731879055 -0.7072378038125157,3.2092813959741093 l-0.6192149858650527,3.7271213024393615 -0.5581268618100413,4.300146436513744 l-0.38200731173210023,4.6202601113977915 0.01670563340454778,5.1482711192832475 l0.5361769159048293,4.671190581703217 0.9901137186323452,4.437666038274213 l1.3590791887507698,4.587514350200452 1.4819250645972821,3.999607618604491 l3.036777116596794,3.857036044493544 2.6362927315615536,1.88054498235538 l2.15083238632571,1.2557778798490609 1.253269720844693,0.5581431032442172 l0.9299514340737189,0.009224867713645965 0.6805065357360404,-1.2031134142893334 l0.14825043542253238,-2.6182034092857167 m-21.234144993219374,-33.51331684285809 l0.23644163140739527,2.4414873919859734 -0.9065845747741761,5.6653110109093445 l-1.5492907538100031,10.589808080818168 -1.6077803155414032,7.7065639229950085 l-1.762295013607718,5.903123313089256 -2.30767296669481,5.407625048076823 l-3.049257665483936,4.9803111126528545 -2.974029328015241,3.458052876991038 m-6.524698949127039,-51.07819727765362 l3.0029308567740514,3.022708822682031 2.1472527958662577,3.079171843452866 l1.407480463045601,2.765685773632797 0.563310445633573,1.824010925527347 m-10.55838091436959,-11.08944785141468 l0.2646069952158798,1.3404804946827267 -0.11727115019310427,2.6035153711167913 l-1.0560383214091795,11.018285175492379 -0.25099721074740733,2.709413876506133 l-0.030831609425490975,1.0401628676273567 0.2572187799458357,0.4487013485022272 l11.575062431837798,-1.699744755012978 12.097076915287902,-1.238670457354068 l1.7357066031651562,0.3773843498826743 " fill="none" stroke="black" stroke-width="1" /></svg>