<?xml version="1.0" encoding="utf-8" ?>
<svg baseProfile="full" height="88.3909431356841" version="1.1" width="119.8852911794752" xmlns="http://www.w3.org/2000/svg" xmlns:ev="http://www.w3.org/2001/xml-events" xmlns:xlink="http://www.w3.org/1999/xlink"><defs /><rect fill="white" height="88.3909431356841" width="119.8852911794752" x="0" y="0" /><path d="M25,36.356530072058426 m0.0,0.0 m6.812928795125071,9.701791499909433 l0.05595318209199946,0.5020890097590752 -0.055814577113234703,6.2201655639910935 l-0.7109876312923599,3.8252813778868635 -0.9367390772740705,2.7204603782638968 l-1.3692348477009963,2.0202083496911425 m11.322215418604717,-18.389829597864612 l1.1539429182959489,2.472129048804431 6.660882685609821,3.824057178531739 l7.243630823956604,3.371921843427045 4.496180745948124,2.0632849114029255 l3.700842870264008,1.7967564609279036 3.775031887284052,1.7305570225328337 l3.8114800426508832,1.5791110879535446 4.2011511129718135,1.4875575932745517 l4.3549195362981905,1.158551022819596 4.7004984274249635,0.740260317471962 l5.61036211528281,0.21005999484222923 2.0466986899615143,-0.281860846863817 l1.1700783906888186,-0.7283997946308355 0.22266493141475735,-1.2823006646484558 l-1.1104326013394956,-2.5524617598799346 m-26.21885081076814,-28.23127016083876 l-0.29668613760584994,2.99860152560933 -1.247969242056231,3.449431499026228 l-1.9307566912609713,3.973927358718514 -5.225256703786239,7.456747579296127 l-5.678239656456312,5.88664142495774 -3.897798598764927,2.518332276226427 m39.07467596290697,-31.598331572656644 l2.5799904669918137,2.8732630868637963 2.0240541507397904,3.385943423365 l1.7118317291901464,3.3972714627449183 1.164473974513404,3.0947533346544778 l0.6695688966778214,6.153820834898223 -0.12214344956628106,6.026975795124192 l-1.0717631360041713,5.161668036901942 -1.874835036124975,4.8475342524462475 l-2.773507927192731,1.804617970233024 -5.154497061444647,-0.4325504273766259 l-2.6205052510566595,-1.4880911291233563 " fill="none" stroke="black" stroke-width="1" /></svg>