<?xml version="1.0" encoding="utf-8" ?>
<svg baseProfile="full" height="140.5012906169648" version="1.1" width="106.82749712716242" xmlns="http://www.w3.org/2000/svg" xmlns:ev="http://www.w3.org/2001/xml-events" xmlns:xlink="http://www.w3.org/1999/xlink"><defs /><rect fill="white" height="140.5012906169648" width="106.82749712716242" x="0" y="0" /><path d="M25,25 m0.0,0.0 m17.577734048105285,3.8121345025122926 l0.6153253891459524,0.1846998859483926 1.8409347854567693,0.23212998546450064 l2.6848639147392044,-0.14443748725403086 25.79875156673727,-2.8552923411260966 l1.3249782530396443,0.2621479504997559 0.9430366965653573,0.7936955117382197 l0.30965012553728605,0.6017630668826239 0.05335731700184144,7.376916799155353 l-0.7379413105476815,11.067815393880323 -1.3265973094530974,8.460005594389541 l-2.096713269689434,7.533640266335951 -2.0637151221061214,5.624339808880158 l-0.7236294062413974,2.7678492994720876 -1.3142856627344952,4.15640565512184 l-0.716995974393231,2.68564706324671 -0.6454670465135327,3.990939133066349 l-0.37118284835217313,4.988429786999642 0.1086632959198515,5.162077516566207 l0.6653742222857256,5.833551386138391 0.9427768517110225,4.781525780483793 l1.2903719773166555,4.41005287046574 1.5569284703456387,3.9743549904772095 l4.110501320483895,3.584237569567628 3.366372030063068,0.9422800057751015 l1.4400474958865288,0.2743806222771246 1.1737001609641868,-0.18805356999631728 l0.7291248080855507,-1.1592609902915583 0.29153234780284965,-2.4320228372589865 m-19.137712164813482,-44.4735051991636 l2.4442327534954593,1.2182739991353957 2.444484184497532,1.7114148130193514 l1.8929176143679896,1.8274382073700985 1.106733287691597,1.5579163610780193 m-29.979106862439767,15.033117837980683 l1.8060286178226825,1.7376654421571598 2.118362190759705,2.6238747334033694 l1.7966276210567662,2.4683151371933167 0.9207743564786566,1.9450884694424198 m-7.3408262602766206,15.954038774141633 l1.4927358042179877,0.4469935389440248 1.1107032688605891,-0.3621810741714627 l10.125937096818621,-8.50816124082644 " fill="none" stroke="black" stroke-width="1" /></svg>