<?xml version="1.0" encoding="utf-8" ?>
<svg baseProfile="full" height="103.4607624437702" version="1.1" width="97.5320580516545" xmlns="http://www.w3.org/2000/svg" xmlns:ev="http://www.w3.org/2001/xml-events" xmlns:xlink="http://www.w3.org/1999/xlink"><defs /><rect fill="white" height="103.4607624437702" width="97.5320580516545" x="0" y="0" /><path d="M25,25 m0.0,0.0 m26.216779032133108,19.31446770027327 l-0.03280616154189165,0.40909489571966146 -0.20799956425839158,2.6321577868183024 l-1.419998284545393,5.8953841156569835 -1.906271966642763,5.507938485042856 l-2.2453867793046127,4.7686682226668164 -2.6386557749042288,4.177997074780322 l-2.4255134193723134,3.0334777155261983 -3.527964873748801,3.7984272058797983 l-3.196599625338939,2.5929380810917233 m3.003315335299682,-22.546014393790657 l4.268933566596163,2.358072522430322 5.341088700523407,3.9501922638707865 l4.952139279264416,4.904715978205781 3.1852506031048198,4.187659763691741 m6.874257202289904,-21.38451438764522 l0.4951346551021434,0.9243420441129527 0.2586020676071723,1.6813524544487153 l1.1845336538187985,15.070231694503708 m8.673269797792544,-23.202803723964646 l0.5313743155167857,1.1422312462061868 0.14857629226289668,1.9327214090732316 l-0.15649262627499522,19.218947366010994 -0.2937096528123824,4.94104052725716 l-1.0166740427974628,3.6237690243306173 -0.5664469043016727,2.5801880898070433 l-1.0024239648073463,1.948079281765552 -0.6134345361701045,-0.3891104910231676 l-1.281989363682345,-1.3893521324607734 -1.3721311311404139,-1.7865721383946964 " fill="none" stroke="black" stroke-width="1" /></svg>