<?xml version="1.0" encoding="utf-8" ?>
<svg baseProfile="full" height="114.48698482464116" version="1.1" width="103.44090770688823" xmlns="http://www.w3.org/2000/svg" xmlns:ev="http://www.w3.org/2001/xml-events" xmlns:xlink="http://www.w3.org/1999/xlink"><defs /><rect fill="white" height="114.48698482464116" width="103.44090770688823" x="0" y="0" /><path d="M25,25 m0.0,0.0 m7.549122943289054,20.586163222758838 l0.4765899707767146,0.10698211658415317 2.844828817710762,0.08221138641357716 l10.729616236162757,-1.5912371040673707 2.106089073931557,-0.2571977963267516 m-20.25654371875119,12.45955814555971 l1.5214632676696527,0.23169892708232637 2.421954511062534,-0.0759382358618085 l25.00790893653243,-2.746643334493719 12.973185031787247,-1.0137173721910544 l3.243111160906662,-0.20151622927916088 2.438620404864581,0.26619292051151144 m-29.831965455389692,9.87144962816926 l0.43427458217113807,1.0136993438006885 0.14220657790082142,0.9833801523704816 l0.0015733591056184633,19.86080644849827 m0.6630965215631199,-13.441157434799814 l6.908989195022057,-1.1021430860013535 1.8522092076719765,-0.04716543144973225 m-19.71866728694579,0.7539178527082053 l0.5225923282640708,0.896543120855896 0.1627445244817409,1.010349397872625 l0.060603892559954825,13.892849724605721 m-5.090086674765078,1.2702962318236724 l0.8882607944251661,0.41036525771151644 1.3792207732038608,-0.19779030946471918 l21.833013934726708,-8.515403813217187 m-1.6689122033815418,-40.26263533332301 l0.9577261986767102,0.9863190377368771 0.5992452552379377,1.572970804229811 l1.7541726903683736,12.315470768228916 2.0306955943356284,9.876755607684947 l2.5575024229424974,6.67537860000037 2.956979822285989,5.877694076146589 l2.641992343276649,4.1640849164555895 3.095863506705732,3.8337461196038984 l3.472163077329283,3.36055594251203 2.2127653664329663,1.3881268856856288 l0.765707952856777,0.19196366950572855 0.4854655169764449,-0.17416011697294143 l0.3155272529063262,-1.2889319622048694 -0.2135322384405551,-3.8683046116875066 m-13.74126654285757,-43.62660492527677 l3.915614038892904,2.858139519446006 1.7261037692924779,1.770422808622764 l0.882087416823191,1.2892700519352098 " fill="none" stroke="black" stroke-width="1" /></svg>