<?xml version="1.0" encoding="utf-8" ?>
<svg baseProfile="full" height="106.88137009032982" version="1.1" width="107.22389489604289" xmlns="http://www.w3.org/2000/svg" xmlns:ev="http://www.w3.org/2001/xml-events" xmlns:xlink="http://www.w3.org/1999/xlink"><defs /><rect fill="white" height="106.88137009032982" width="107.22389489604289" x="0" y="0" /><path d="M25,25 m0.0,0.0 m14.436796855216114,20.567016554026058 l0.5413651462199068,0.11319608071076294 2.997278939419067,0.037623424103086486 l11.891003221631667,-1.9222449827149104 2.4948856249269458,-0.031826595870166174 m-8.839509091615236,-13.448410633804624 l0.5936899522310775,1.3533785896443258 0.13401290014350983,2.0590701594807133 l-0.0632705471617558,48.153567494754576 m-0.47976753419858,-36.23952063546909 l-0.19699773930981604,3.4156307914602926 -2.66922379012927,8.284013566518857 l-2.651721336468592,6.902531395630711 -3.3504214043510654,6.8829440939818785 m11.131191360062381,-19.410110447438242 l2.363458173381113,3.3993113353916335 2.017971747511499,4.262082677522306 m3.890253249989246,-26.74722509579792 l0.4068358028383157,0.9028867521304085 0.22674202839969365,1.211449537560328 l0.06334663978373675,29.713771196297962 m0.33358631994234567,-31.558336118643798 l19.589872990105693,-2.4627442732905074 1.3295547880459684,0.2246403741217879 l0.7444936979265628,0.7305092394482462 0.28846690150235016,1.688455093078578 l-0.06737644418658162,31.4340309220455 m-20.31828404627272,-23.529540078528672 l2.65436283760517,-2.315204079202846 7.250649462951415,-1.6972126794384896 l2.21360231899048,0.05005318220493685 m-10.604469956971098,9.490112756866656 l2.1493413538126287,0.1390864032684757 6.6588710403701175,-1.1046963702144215 l2.956180623530301,-0.06969136151725393 m-13.08307265951012,9.355120832718645 l0.5251281175970213,2.0395437069360263 1.3616447676452597,11.157004630587242 m-1.240968254774315,-12.50793918441413 l11.932347695675833,-1.9909626328729073 1.4207846992759845,-0.10093870442415152 l1.2627998463275518,0.2963083872142993 0.646535606297069,1.0842465208248715 l0.002931924783201403,0.8868958632385832 -1.3103011227737982,9.43402221438106 m-12.518352244243127,2.1207621404059784 l13.430974300501621,-1.4949426287936391 " fill="none" stroke="black" stroke-width="1" /></svg>