<?xml version="1.0" encoding="utf-8" ?>
<svg baseProfile="full" height="105.66062935607552" version="1.1" width="109.36228869751564" xmlns="http://www.w3.org/2000/svg" xmlns:ev="http://www.w3.org/2001/xml-events" xmlns:xlink="http://www.w3.org/1999/xlink"><defs /><rect fill="white" height="105.66062935607552" width="109.36228869751564" x="0" y="0" /><path d="M25,25.83445263099979 m0.0,0.0 m8.928870528477004,18.510832516320956 l-0.009916608211998553,0.6153984799955743 -0.6826073167706995,5.01431529755831 l-1.4397531271879276,5.361277538186225 m11.41202950201035,-13.23474519521915 l2.7587552508760673,2.8256683436757224 1.2766445961332988,1.8488706449402563 l0.627237235722827,1.4585063205917976 m-8.593307788922976,-20.816810678699767 l0.5711906550590093,0.9365148516448065 0.34573207510187765,1.7655384465051343 l-0.13612925918174293,50.54081015957586 m12.047270431645964,-40.8490722565642 l1.290842823958638,0.3563743969890299 1.7735915766753902,0.002415780973930736 l16.352595834181557,-3.2212544990358682 1.0351613593219804,-0.08417601836344568 l1.2683595809544272,0.28546953252449964 0.45816911447923303,0.37268288077204814 l0.3262524971447042,1.2124775984832084 -1.8843480314216339,12.04611696273195 m-26.792056523162298,2.9145473180280237 l1.7478142464161917,0.47382915556621746 1.8725916277455068,-0.019909211453267177 l13.504425326268041,-1.9060893569472395 11.897526116632463,-1.3822504676888376 l4.6600596642632945,-0.30785310480313605 2.9753530765299216,0.4183114173811032 m-20.64342617313744,-25.972249484669536 l0.48709634744553904,0.9083714950032684 0.24609188001236307,2.01708269575395 l0.17375991081126482,17.16640050695821 -0.6374989896422257,9.05443532004405 l-1.4387660998261087,7.17212275558703 -1.6132491978832988,4.187256667362196 l-2.8108831445082303,4.63157662062842 -3.6385223667276376,3.8131944334190035 l-6.280589655274371,4.522281746593603 m17.566984924243265,-24.200023298669294 l8.94681351852622,11.168497262938732 4.608997179760643,5.421529854302867 l3.4402425213050694,3.4191806771889124 3.362883577672137,2.304005914807435 " fill="none" stroke="black" stroke-width="1" /></svg>