<?xml version="1.0" encoding="utf-8" ?>
<svg baseProfile="full" height="112.54070400926076" version="1.1" width="100.89728001999183" xmlns="http://www.w3.org/2000/svg" xmlns:ev="http://www.w3.org/2001/xml-events" xmlns:xlink="http://www.w3.org/1999/xlink"><defs /><rect fill="white" height="112.54070400926076" width="100.89728001999183" x="0" y="0" /><path d="M25,25 m0.0,0.0 m9.185153388168498,21.161722793262893 l-0.014414076674910565,0.5525331268089231 -0.639643283495306,4.375073811641863 l-1.494406826258489,4.893552892287859 m10.847226343103754,-14.732131532430197 l1.503719216659995,0.8189347060141939 2.0191386410653775,1.6148885258260044 l1.2346638280130584,1.313863084542343 0.6922763428323222,1.1050169849205556 m-8.647016891597938,-13.460363950109976 l0.5612035483509086,0.7244965298559614 0.2806351707612938,1.3743428121153578 l0.03222296737951625,42.37195180847717 m23.250670593984637,-42.43214806758869 l0.7739083403032406,1.093651869381025 0.26329206737666605,1.0923195857841421 l0.07042601295725513,13.967523546584554 m-17.23141289456524,-9.089521430321273 l2.2436125264490046,1.7047099632857514 2.0240897864998866,2.035257565239624 l1.6989316915158617,2.183684253239244 0.9672632807707212,1.8080565246280556 l0.8854239412044946,1.828736530205431 m19.617896780469053,-10.666845046691712 l-0.201518286915251,1.4006540673480041 -1.3144486975722618,2.307606968881627 l-4.997370459178334,6.50790340791253 -3.933125486628573,4.9404038424072585 m-16.472868232393367,2.986326569304055 l1.7432337741615471,0.7151665354448279 2.1562543526110445,0.16110176782440763 l23.24782178412644,-1.1313908359695495 0.5444407765069067,1.5392332387772767 m-25.485912492747033,2.2405578635134726 l0.2785651319248314,0.809269120479389 0.013708252050850543,1.437902352999086 l-1.0760475813832697,7.418240994081435 -1.3128456726636932,4.6335973696297525 l-1.2849124077822998,2.8561362643403543 -1.6790085856483112,2.662601347523567 l-2.070220368016189,2.367726804771412 -2.113792594460003,1.6594828683651885 m17.978584302793116,-21.54784412739259 l0.5324093212491238,0.846596309285203 0.22042998518717147,1.087783787819262 l-0.0343147174190851,21.00234060495567 " fill="none" stroke="black" stroke-width="1" /></svg>