<?xml version="1.0" encoding="utf-8" ?>
<svg baseProfile="full" height="99.81445643699803" version="1.1" width="117.55929495849757" xmlns="http://www.w3.org/2000/svg" xmlns:ev="http://www.w3.org/2001/xml-events" xmlns:xlink="http://www.w3.org/1999/xlink"><defs /><rect fill="white" height="99.81445643699803" width="117.55929495849757" x="0" y="0" /><path d="M25,25 m0.0,0.0 m23.377939322552805,21.186214170201882 l0.3077483254258935,0.3012253147698355 0.4262740751427842,1.4792085097716006 l-0.0598635670774059,22.179409960412222 m0.7050586503294387,-13.710453120207942 l9.519481323844264,-1.5702988879328421 2.331679774866593,0.011637218288892715 m-22.257135381842403,15.40591340303133 l1.136218611356271,0.31029567122432694 1.0914779767916891,-0.04551769504129545 l17.77231821118215,-5.937983116328867 m6.317827266662168,-20.897255754943576 l0.6130089498331381,0.651491906937727 0.28018763126307067,1.2976397638930195 l-0.5433452792169715,7.214758536909406 -0.9395392958422174,5.313797584150654 l-1.349894518770959,4.913764322358957 -1.700621900834789,4.0235489150034836 l-2.1397525236902957,2.928584221676785 -2.985101338369316,2.742244357530339 l-2.9418394042945626,2.016231155292095 m12.935351644869275,-31.475006159347707 l12.50628972796116,-1.8109311432587019 1.4333533484512806,0.18829903602484302 l0.49339893964472753,0.6861297802423255 -0.008727498901962014,1.2575803687431941 l-1.4398524737826885,8.80148223575084 -0.6550310116167437,6.850737705947421 l0.014112510857972008,4.789655200597055 0.7151461186450875,3.6768965636074338 l1.305155484966722,2.119932796233699 1.789099510330895,1.157292946888047 l2.5764766812901883,0.43930455496909115 3.74893357759318,-0.10512737632130655 l1.871215981676452,-0.3475787202044144 0.8633497331759646,-0.7488271939592397 l0.3740871657169485,-1.3488971409160315 0.07480860830776062,-2.0636122261841443 m-26.241617166491523,-13.337761197020258 l3.052898035902734,1.1705507352575488 3.2080318379060424,1.6392833117600283 l2.846804258808054,2.048075804309867 1.5880125995072725,1.694825228876768 " fill="none" stroke="black" stroke-width="1" /></svg>