<?xml version="1.0" encoding="utf-8" ?>
<svg baseProfile="full" height="96.17660182232945" version="1.1" width="102.37858956512659" xmlns="http://www.w3.org/2000/svg" xmlns:ev="http://www.w3.org/2001/xml-events" xmlns:xlink="http://www.w3.org/1999/xlink"><defs /><rect fill="white" height="96.17660182232945" width="102.37858956512659" x="0" y="0" /><path d="M25,25 m0.0,0.0 m13.68733802406649,18.800430481617042 l0.07179647812618259,0.3232989433195894 0.005455827729914441,0.7884651528165824 l-0.7856531940298352,1.4549747476705 -3.1466439336248886,3.9025439730072646 l-3.801314920375423,3.7299910847340003 -3.8642815941732915,2.808297115362356 m13.237763821581646,-10.806455610316261 l4.230955921627382,0.8353671649056532 2.7577840334714856,1.6097840366700862 l2.0200929367995335,1.7128972643674847 1.4780827031927808,1.7326525630670808 m-18.43873506890871,3.3056096574191676 l2.5761664160350666,-0.032860869754122495 7.7576748623815766,-0.7773492163678076 l3.779482631664165,-0.17687808355264478 2.304558987299162,0.06585788161446533 m-20.815451291310143,-4.544927543973765 l0.6603280978383889,0.7671993490755469 0.2295918602648659,0.7505951520015713 l0.07142449126795046,19.6893003031094 0.3531105104617822,-0.22738946758639653 l1.4292248932109213,-0.32490150420165553 12.017067009108581,-4.080276507298295 m-9.210249174518562,-4.072276383309943 l13.223863394864622,1.2675608727478678 2.5309396925740684,0.43354284535027826 m16.86034516311316,-18.575988487542258 l0.5428409847807507,0.5868316121041356 0.27127369230177556,0.7743815148979573 l-0.024316399480095563,8.982849450704897 -0.5931104614865536,4.141274383819605 l-0.5582994011736647,0.5555763634534211 -0.7474347378159887,0.07714066372350667 l-1.6428693842330555,-0.5176002045978267 -1.8905014818263088,-0.9793825682063747 m-5.262813922682739,-9.83243552976138 l-0.3417829348117466,0.5950889811212275 -2.3773648946979145,0.802050686242472 l-4.5012695577211685,1.0515016842048714 -4.979113436684776,0.9417488559006835 m24.98475662946277,-4.720376114362227 l2.429414824894304,0.9667648460368469 2.4130308553040583,1.3474549248979388 l2.124526146619601,1.553181754810913 1.3109044646384764,1.4129585332078514 m-7.669543651659705,0.8292694073167101 l0.10831018486650777,1.5676354016434906 -1.657826645157951,2.1296306429647074 l-3.0510989840508027,2.7642144751279374 -4.140556750527867,2.9163529556921794 l-3.875916153920381,2.234903483899245 -4.464815664077579,2.1051042604414003 l-4.806123471414524,1.9549584259197819 -4.64422653619114,1.5764580161726771 " fill="none" stroke="black" stroke-width="1" /></svg>