<?xml version="1.0" encoding="utf-8" ?>
<svg baseProfile="full" height="93.91448816246591" version="1.1" width="113.439530183958" xmlns="http://www.w3.org/2000/svg" xmlns:ev="http://www.w3.org/2001/xml-events" xmlns:xlink="http://www.w3.org/1999/xlink"><defs /><rect fill="white" height="93.91448816246591" width="113.439530183958" x="0" y="0" /><path d="M25,30.603508323267228 m0.0,0.0 m23.914304561035248,2.917302886809577 l0.3803695278572224,0.4156555748495284 0.47020246316823483,1.8134554518611972 l-0.027783836745763783,28.39989480264948 m0.6958534081278196,-17.036627004943963 l9.313155981673967,-1.58828655916215 2.447517998146466,-0.0279449886568969 m-24.20727140276553,1.1407445209700713 l0.5264586726087132,0.9176562865252783 0.20017282215182947,1.2003244901564636 l1.0955992293322806e-05,18.969470116091834 m-4.803780935251856,0.6140468787833626 l1.785437995296463,0.5752873832649117 1.3686775237148985,-0.1449325618317449 l14.075281743851564,-4.367558999670603 10.496788027753984,-3.886681815284656 m23.048696719263635,-23.488830885239597 l-0.5388424433925305,1.3407706453922619 -2.945895360184004,2.3710805643761756 l-4.422900985477609,2.589578217070089 -5.621547742153497,2.675452455846206 m-3.1567072771620923,-21.003365783124057 l0.7032968910977069,0.9832025639599824 0.14050261341152567,1.1498049074573227 l0.06566811108923816,35.07031900105469 0.2143255529262642,2.002705513813332 l0.551011346208729,1.5610874192832607 1.4440713827022902,1.4210788971596244 l2.847132988109716,0.874073250188914 6.348457729695639,0.26335229591601855 l4.704842532539939,-0.42463790462178025 1.5968258136342395,-0.5613165456639069 l1.0188962694191261,-0.9445573486549735 0.5797143991788392,-1.4194100876951588 l0.2265861364353046,-2.671104195879271 " fill="none" stroke="black" stroke-width="1" /></svg>