<?xml version="1.0" encoding="utf-8" ?>
<svg baseProfile="full" height="119.60533649574437" version="1.1" width="116.57928684552138" xmlns="http://www.w3.org/2000/svg" xmlns:ev="http://www.w3.org/2001/xml-events" xmlns:xlink="http://www.w3.org/1999/xlink"><defs /><rect fill="white" height="119.60533649574437" width="116.57928684552138" x="0" y="0" /><path d="M25,25 m0.0,0.0 m25.87801298990446,3.13649561665027 l0.36874325766770305,0.44124827895324253 0.482728976645216,1.6805884816727317 l0.0011468967485086612,7.2162082754106045 m-20.8512917776978,2.427204207407777 l4.832869402759457,0.21115592028797248 30.506220611863156,-3.06292853520568 l3.868109157731539,-0.1491632834200652 2.9831920595039985,0.3440021919496424 m-29.087670031043782,4.450028708608551 l0.46070182195909676,0.7251165384785665 0.2377090959463798,0.9994945890772964 l-0.18679403989259288,7.360969604799707 0.2992554028880264,3.242121974560644 l0.6136592496543911,2.58387839893076 1.1263503990291008,2.364675602229435 l1.083080770971664,1.9867668201670365 1.3745463638640198,1.2769455691739697 l2.804395070040109,1.166458280703794 3.9248988121378514,0.40132311600183007 l7.981393414755596,-0.03725030815349532 4.63167244297741,-0.5217040329892503 l2.9934499063888675,-0.7357509087419156 2.1936093155087333,-0.8909174327475246 l1.1779105482173495,-1.020032258700941 m-29.656851973484848,16.386359075908892 l0.028204502270587774,2.55737498677457 -0.8319765162740969,3.507729646711493 l-1.252611323179698,3.7730691989023217 -1.5151476552864362,3.2635770287711696 m9.123926128803662,-15.254446134898451 l2.4520575490892718,6.009258840621372 2.7450074325380625,4.519929818802937 l2.0146118394845463,3.2704997704565857 1.0950421401175991,2.06560310305511 l3.1751646190505847,1.9918507378671397 3.339408209367264,1.102705208317199 l3.6394407434927345,0.5976783823623135 4.082010614979766,0.21721141698673735 l6.277977532747841,-0.2146098852027931 1.8648663906139065,-0.6937279453914036 l0.2624335318869684,-1.1452794681039653 -0.8134609791047637,-1.59979635365073 l-1.8142023770732134,-1.9905759395574691 m-15.661232913134414,-13.435593628433775 l1.2528847680049195,2.6312297920083476 1.3562812369947448,1.584938610920007 l0.5661219373535976,-0.009616324339499428 0.40363067974629996,-0.45727981936485296 l0.27949972591904426,-0.9707003181996141 m12.220564561367624,-6.652309254777713 l3.84445805689529,1.608483746696067 2.9373091863061918,1.7804600618561521 l2.8264167364489237,2.251130084691037 2.639552341050958,3.306293224310657 " fill="none" stroke="black" stroke-width="1" /></svg>