<?xml version="1.0" encoding="utf-8" ?>
<svg baseProfile="full" height="117.17244688168086" version="1.1" width="88.47219128550998" xmlns="http://www.w3.org/2000/svg" xmlns:ev="http://www.w3.org/2001/xml-events" xmlns:xlink="http://www.w3.org/1999/xlink"><defs /><rect fill="white" height="117.17244688168086" width="88.47219128550998" x="0" y="0" /><path d="M25,25 m0.0,0.0 m16.93373325993324,3.804042665632933 l0.016963133553006524,0.41470332732782755 -0.13183244643170222,0.8673066691893435 l-0.7472971796603641,1.5970880472122988 -2.717450865789364,3.991253516284106 l-3.010976046508889,3.4395786374522723 -3.769879005453132,2.667970790994868 m11.996541017529465,-1.921812755317324 l0.04392042804275515,1.792878774502349 -0.3856238987641941,6.155159921600746 l-0.6823814233695087,5.034072859791496 -1.0903127801477848,5.120829167600267 l-1.2863911243202104,5.291869683729572 -1.5116177864005875,5.237848924041691 l-1.804010908568187,4.706020082482859 -2.337547082774526,4.137511879155664 l-2.3017813771067384,2.911489283166634 m27.095712781988,-54.17355859896632 l0.12484580169562966,1.13990536755808 -0.6087515000869191,1.1518096933911453 l-3.171768296796801,4.209322962091604 -3.945580327389949,3.644890061150748 l-4.396924076165232,2.9515907843132947 m-1.7793579401104438,-0.8007545200894642 l0.5382821265103926,1.3170935201171514 0.28571290339956207,1.4241285827775556 l2.1671434170054744,42.08912267581411 m-0.6307884963024013,-26.048745448537264 l8.479193524634281,-2.341411928803759 2.1477560469961907,0.024172096642613352 m4.63772566937218,19.11524192902191 l0.3149337369967356,1.0338687330947827 -0.014647663680474347,1.0054220428644596 l-1.0303357350679603,6.6616718334357765 -1.5354640225786398,5.298854540746596 l-1.7018021024171375,4.222011080210219 m-6.612942716945407,-36.27658147951421 l0.19317600021456333,2.0424680040865297 -0.3673933930989293,6.317478094122427 l-1.7194605018519966,8.5494692912207 -2.9432023445942965,8.20139107276982 l-3.9043849169680658,3.782025557829006 -2.5703616889526626,1.3222079866569694 m3.253571448838292,-23.74208539889323 l2.5207015804038218,3.5217998904028716 2.9284367531096547,4.9381998013099535 l2.730456790031513,5.711930829561324 1.7553825458503307,4.857009312333382 " fill="none" stroke="black" stroke-width="1" /></svg>