<?xml version="1.0" encoding="utf-8" ?>
<svg baseProfile="full" height="108.6053686455125" version="1.1" width="109.49251230573282" xmlns="http://www.w3.org/2000/svg" xmlns:ev="http://www.w3.org/2001/xml-events" xmlns:xlink="http://www.w3.org/1999/xlink"><defs /><rect fill="white" height="108.6053686455125" width="109.49251230573282" x="0" y="0" /><path d="M25,25 m0.0,0.0 m6.05986475944519,9.042466878890991 l0.5697077512741089,0.13372071087360382 3.914923071861267,0.006603622459806502 l16.231768131256104,-2.563769221305847 3.3448776602745056,-0.09002058766782284 m-30.121140480041504,22.2446346282959 l4.18202668428421,0.09003114886581898 26.071650981903076,-4.23265814781189 l2.796132266521454,-0.22082515060901642 2.802894413471222,0.17442544922232628 m-23.629515171051025,-6.388841271400452 l0.5830628797411919,0.9321568161249161 0.22027572616934776,1.1728879064321518 l0.01843599369749427,6.386812329292297 -0.24495743215084076,6.886532306671143 l-0.6932853162288666,5.65312385559082 -1.050831824541092,4.3946948647499084 l-1.1600399017333984,3.1883347034454346 -2.1425743401050568,4.066732823848724 l-2.122626155614853,2.884039580821991 m18.60932469367981,-42.06573486328125 l0.7651326805353165,1.1803262680768967 0.24588720872998238,1.2428756803274155 l-0.1523349992930889,44.48681831359863 m26.57238483428955,-53.66410255432129 l-0.10300595313310623,1.1356962472200394 -0.5132441595196724,1.031559780240059 l-3.664049208164215,4.569495618343353 -3.6140096187591553,3.3830833435058594 l-4.652669429779053,3.209635317325592 m16.012675762176514,3.289090096950531 l-0.18109776079654694,1.6036342084407806 -0.7575253397226334,1.3054251670837402 l-3.803686499595642,4.301716089248657 -5.1243263483047485,4.1847312450408936 l-6.4966970682144165,4.1847312450408936 m20.719103813171387,0.49160540103912354 l-0.2577103488147259,1.7507101595401764 -1.294436901807785,1.9995558261871338 l-2.8008657693862915,3.2133543491363525 -3.778666853904724,3.5490933060646057 l-6.537607312202454,4.813607931137085 -3.903089761734009,2.271730750799179 l-4.320988059043884,2.081715315580368 " fill="none" stroke="black" stroke-width="1" /></svg>