<?xml version="1.0" encoding="utf-8" ?>
<svg baseProfile="full" height="107.94857676885806" version="1.1" width="92.75877543312313" xmlns="http://www.w3.org/2000/svg" xmlns:ev="http://www.w3.org/2001/xml-events" xmlns:xlink="http://www.w3.org/1999/xlink"><defs /><rect fill="white" height="107.94857676885806" width="92.75877543312313" x="0" y="0" /><path d="M25,25 m0.0,0.0 m13.364256452499141,3.763924124674119 l0.2836656582288701,0.40012384155489605 0.418454993545017,1.684550184243247 l-0.008558347676541653,22.69280440628203 -0.3682257067241446,10.043884818409898 l-0.6277433261439516,6.05448228595154 -0.9925821454950275,5.205869239648326 l-1.3961885745679226,4.577702836926635 -1.474689512320885,3.525235031167362 m5.460819346168562,-53.40316084810368 l16.39408874069596,-2.403559988329668 7.835547430496089,-0.7547945091087916 l1.9923259382562866,0.221375309835597 0.834658041369624,0.93488630673705 l0.35091289262021746,0.7374372401838828 0.2303127046637537,0.8244109600652728 l0.08694339528369611,0.8696768682338802 0.0011669245999518915,13.535103958798794 l0.1372944455248872,25.241102379580802 -0.1041395481731155,4.189424335539128 l-0.8991072625146427,4.528376747834683 -0.944568030458707,1.4133514200666257 l-1.2597563024652436,-0.0016494282821289622 -1.3546869215270856,-1.250017565410257 l-2.042498222807468,-2.54699896380998 m-18.08140739300583,-33.40257456802294 l2.4786686317849913,0.2360594136184136 11.876657789239994,-2.0855885864552928 l3.5501053803183455,0.10734912507628606 m-17.06777132046427,-7.44909869038073 l0.4412034326972587,0.7170124104777379 0.2605559586345996,1.1135830697826403 l-0.05616075151035544,17.201524058057895 m7.764214684000343,-18.063170376669547 l0.40992180263714206,2.0473402380275187 -0.7159258728437229,14.160543249095634 m-14.197461883338013,1.7638313442258684 l2.8926612512281014,0.2353584828295538 16.862255865055687,-1.8246000822614252 l3.277616912280493,-0.14191701857800507 1.9689177267830655,0.27845914392396126 m-21.318189278123686,15.803330430779292 l23.876646697565683,2.149335110978847 2.6185627371059916,0.2987392825008648 " fill="none" stroke="black" stroke-width="1" /></svg>