<?xml version="1.0" encoding="utf-8" ?>
<svg baseProfile="full" height="116.05706498628354" version="1.1" width="98.8101044007072" xmlns="http://www.w3.org/2000/svg" xmlns:ev="http://www.w3.org/2001/xml-events" xmlns:xlink="http://www.w3.org/1999/xlink"><defs /><rect fill="white" height="116.05706498628354" width="98.8101044007072" x="0" y="0" /><path d="M25,25 m0.0,0.0 m9.310831679406363,19.581274322185887 l0.48113173666204284,0.12042900967691667 3.1493653716622916,0.12396195767857635 l11.247254282762228,-1.6975746329576418 12.583382276449841,0.003557872832463489 m-14.119592866857586,-11.44125103822912 l0.703946917307372,1.0724222588033372 0.26877057848651886,1.7690322027887857 l-0.004958258697561136,21.51277796294715 m-20.179699894553348,1.492691961716417 l4.436901728229641,0.2799407558907639 32.48167326498282,-3.196857955889391 l5.020995219834437,-0.2235022014574948 3.430102365032149,0.32203628598196676 m-8.78030452035371,14.225346296876157 l-0.9443228029627976,1.8431667430080823 -4.852603042786867,4.523930814261365 l-5.835148825343893,3.7492942127275573 -6.445740359250469,5.121060773468182 l-10.38645270136081,6.87532738397358 m12.0989211973503,-13.149007625154452 l4.585871562202208,2.190668426890914 5.287756861278702,3.2236387566687186 l5.282892258263839,3.8548280169668536 4.347040397305213,3.4953935719179046 " fill="none" stroke="black" stroke-width="1" /></svg>