<?xml version="1.0" encoding="utf-8" ?>
<svg baseProfile="full" height="103.17307802955449" version="1.1" width="115.1142244429149" xmlns="http://www.w3.org/2000/svg" xmlns:ev="http://www.w3.org/2001/xml-events" xmlns:xlink="http://www.w3.org/1999/xlink"><defs /><rect fill="white" height="103.17307802955449" width="115.1142244429149" x="0" y="0" /><path d="M25,25 m0.0,0.0 m16.4128695520116,8.772412643187351 l0.04203322195800533,0.4742633289735493 -0.1309136423464467,0.5645800363766244 l-1.3815730762914251,1.454840790239667 -3.8968492731057225,3.414263391227448 l-4.018284991801832,2.6568036034391715 -4.063983467191467,1.9493446997303403 m15.049579728116727,-1.1589359338685705 l-0.047641400838359646,1.5619751814578233 -2.171178628406335,2.7841810110257423 l-2.843400135894849,2.964727124831297 -5.4615947755163905,4.779885900658731 l-6.2527537180404185,4.433000778924945 m10.861551197220198,-6.11104008515942 l0.801438594298165,1.1904586807274633 -0.04993837302615365,19.704523319794244 m21.314146801206782,-41.39740344552978 l1.3266509454909463,0.9666382530547436 1.4653590634273497,0.9809523083223494 l1.8455209975668652,2.2835148068949582 m-16.76295083065984,3.8513052427276233 l2.334704679911741,0.21593475882641655 27.553333897564737,-2.298639940881296 l3.4755097650446736,-0.10862853651389584 1.4073809295082933,0.2432190118021795 m-25.594508844195484,4.79584945557557 l-0.10127544569873838,1.7517483247522165 -1.9942076812709681,3.5049100584475172 l-2.7698653405873794,3.6711206999491375 -3.0528662417470747,3.080600387503874 m7.801873389458174,-6.854257099684819 l2.547019028071741,0.6979058265472644 2.832304379449856,1.2640537386699997 l2.0423808400690744,1.4386630039960302 1.1494106814620897,1.3781722114979096 m12.36396171798817,-11.069922303658863 l-0.3839040926407619,1.6501793307489077 -2.3311700480249504,3.553958784852663 l-2.829779292146102,3.262502858462305 -2.798957752460606,2.451035681267678 m6.71018151560743,-5.992092946369253 l2.132013392663151,0.9389104315822008 2.6278601140740543,1.650551173847681 l2.179648601500851,1.8760510086297966 1.3503054633932183,1.683983223596417 m-38.413981236255395,9.070910301811107 l3.8207531948273896,0.31228381715693365 33.85536506676388,-2.0744630263303114 l4.681701277551928,-0.060379185984760865 2.480944694854512,0.27905497056864825 m-24.04779309016246,-4.2627127552969934 l1.0792377331504415,1.4101662843676772 0.3096615869772512,1.4231271434569974 l-0.15389378358758599,18.16898969932126 " fill="none" stroke="black" stroke-width="1" /></svg>