<?xml version="1.0" encoding="utf-8" ?>
<svg baseProfile="full" height="128.49000109872847" version="1.1" width="110.81307931150705" xmlns="http://www.w3.org/2000/svg" xmlns:ev="http://www.w3.org/2001/xml-events" xmlns:xlink="http://www.w3.org/1999/xlink"><defs /><rect fill="white" height="128.49000109872847" width="110.81307931150705" x="0" y="0" /><path d="M31.21276207401489,30.148842090108595 m0.0,0.0 m5.797968003763783,14.814768053597906 l0.5651731923834478,0.5839968710434309 1.9635685060839194,2.4415933221739383 l1.9052386551868206,1.9947910789926009 1.5254778386578733,1.7982069018285542 l0.8681628988783066,1.6145690020466092 m33.061056385789215,-9.90248002468606 l0.012132381918234392,1.3256788495393907 -0.4213702097058969,1.0867575600786934 l-2.4174427889655856,4.489677306996655 -3.3612057316966193,4.669325590053494 l-3.8568920025990896,4.684750256224346 m-15.179300179810966,-34.75047685799815 l0.9849658373107397,1.59162260466925 0.43828343190494223,1.8421108117915448 l-0.30916182757527033,13.504841731920012 -1.2735792858572395,9.94993454789629 l-2.055521594978668,7.855248644613844 -2.851824270726591,6.941347005462083 l-3.7286301196717972,10.81664480180161 -3.353558252772486,8.234308917756696 l-3.6019545310251004,6.443259349507191 -4.873539498583009,6.281142285046388 l-6.05080891192385,5.029540398263569 m25.04177506722211,-38.41873139565638 l12.702842637709946,5.499547192194961 11.107052126845636,7.418356743385943 l8.341063139217274,6.924355275485163 3.6203463405120777,3.4363145365219663 " fill="none" stroke="black" stroke-width="1" /></svg>