<?xml version="1.0" encoding="utf-8" ?>
<svg baseProfile="full" height="111.46798997121341" version="1.1" width="103.0434366112382" xmlns="http://www.w3.org/2000/svg" xmlns:ev="http://www.w3.org/2001/xml-events" xmlns:xlink="http://www.w3.org/1999/xlink"><defs /><rect fill="white" height="111.46798997121341" width="103.0434366112382" x="0" y="0" /><path d="M25,25 m0.0,0.0 m7.471630978532596,21.482503876513903 l0.5233103706301898,0.11300708235311639 3.5602246799530026,0.15955443437859518 l32.61538358652994,-2.9094365693028648 3.3045107472221904,0.20530581765528708 l2.5650394199730657,0.32758180310893764 m-41.39714601348648,15.360967054650484 l3.0768062621960155,0.18346003619348275 14.463429992472555,-1.797112814626901 l2.573421777473434,0.16494673364808393 m-9.671981722582313,2.3207074039440636 l0.6362903116622037,1.0021510081028 0.16844628632675912,1.0511152989125965 l-0.08186037352207652,15.960917065104224 m-10.544487029078118,4.23686267664757 l1.6339228950661826,0.4366510735669248 1.2679644517931044,-0.40236275562804363 l16.978401518909266,-8.940788991413346 m1.5796501384514197,-40.19866563138697 l1.108296883295762,1.5482962261285662 0.5294480014102863,1.8487561597089455 l1.4291219508191784,12.440390164310415 2.145466171274752,10.644018565594084 l2.104776481633944,6.912468375568966 2.8535829198586797,6.63896743580521 l2.6099883369650527,4.419562721951187 3.0083535399749692,3.8373427161535636 l3.341926501416207,3.1959538374124685 2.436571316399738,1.2248691661580544 l0.42622945719338734,-0.08429448166634305 0.326716772473297,-1.028049303114399 l-0.5115799188487007,-5.263343132016747 m-11.786445779283197,-47.74819138174422 l3.679404761553789,2.8993173603380575 1.6250634400289348,1.9220305375462072 l1.0990129950331118,1.7888482453853087 " fill="none" stroke="black" stroke-width="1" /></svg>