<?xml version="1.0" encoding="utf-8" ?>
<svg baseProfile="full" height="124.07715497341152" version="1.1" width="110.54701843577352" xmlns="http://www.w3.org/2000/svg" xmlns:ev="http://www.w3.org/2001/xml-events" xmlns:xlink="http://www.w3.org/1999/xlink"><defs /><rect fill="white" height="124.07715497341152" width="110.54701843577352" x="0" y="0" /><path d="M25,25 m0.0,0.0 m17.041087997997273,10.108535470345826 l0.02402606087963475,0.41474565265686336 -0.37727904285326863,0.9254870707352925 l-1.2123080819410499,1.2816147839398517 -4.0773192362692665,3.5785424572777416 l-4.01154017594219,2.7995183292229218 -4.379956365738575,2.1290794277379477 m16.567750242219574,-0.05042347532477953 l-0.08616253734835408,1.1251481799315088 -0.5161997782117039,0.8833822102025188 l-4.955516389235611,4.722308935394248 -6.152253645413208,4.672980272346252 l-6.951066701909245,4.578404265809093 m11.27798347971518,-5.692066936745073 l0.8447093107812614,1.18142206788814 0.10195814409973519,1.044999029740247 l-0.07447770926575122,21.05978327766235 m16.00246413077978,-41.84085206962312 l0.7475834016097483,1.118059430798029 0.1522700827671447,1.7755684925496333 l-0.3601507906831073,6.504613591785212 -0.7515441833635342,4.427627690164678 l-1.100459063150735,3.446927110897504 -1.3656783742136462,2.8037734797600837 l-1.8642670658830913,2.533792793648715 -2.3610866681089013,2.2051872287021648 m8.894800228968464,-19.10642160376211 l2.776577478008019,0.14525877256479955 9.415515597582326,-1.9277004660097081 l2.1682112229075443,-0.14738243213550528 0.9728843895535657,0.6350592077479857 l0.106514807056226,0.6941174435111223 -1.457238271080633,10.22704684792874 l-0.09549879167245895,3.6043756675759733 0.5100007777433471,2.2437022004950244 l1.1960393630246997,0.8866524383147826 1.2235451576148153,0.4397772634307236 l5.338581408202746,0.2867496835501556 1.8836137864830855,-0.2177081445040225 l1.3517111242927717,-0.3819866428661671 0.8395666284717248,-0.6426652949198627 l0.4795898662954237,-0.9705111877028947 0.24743324012075718,-3.1197815220496348 m-30.43745327728339,13.006379508522736 l1.7212410404455893,0.23143875510804526 2.3127340264284646,-0.11748781060898064 l15.594857025894974,-2.4717243995511597 0.861637783566892,0.43831288402600377 l0.29468717385561605,0.5544796684906941 -0.12301632511446618,1.4547227709560862 l-1.87065518970366,7.68663431547676 -2.0267689670416416,4.52135292427579 l-2.585245196280971,4.021734042898239 -3.1240762876946726,3.6108217372518423 l-3.591000151193128,3.164266103455218 -4.06494468840326,2.7866797096489146 l-4.521594419023133,2.44615489018843 -5.20992969757403,2.3566488745996907 m6.811552731789516,-20.793979783546472 l2.4502210349286933,0.6366129274141714 3.773812437804244,2.0813038464840825 l17.258998958958312,12.149626852532464 5.585210534740111,3.3248984898864022 l3.4223348317829365,1.439683815006977 " fill="none" stroke="black" stroke-width="1" /></svg>