<?xml version="1.0" encoding="utf-8" ?>
<svg baseProfile="full" height="124.75482249450351" version="1.1" width="88.21847899927234" xmlns="http://www.w3.org/2000/svg" xmlns:ev="http://www.w3.org/2001/xml-events" xmlns:xlink="http://www.w3.org/1999/xlink"><defs /><rect fill="white" height="124.75482249450351" width="88.21847899927234" x="0" y="0" /><path d="M36.583023532430474,25 m0.0,0.0 m12.25448403992797,4.288889583787513 l0.37720922126673273,0.4582184177535618 0.49159703666104565,1.8039860920463282 l-0.03485075906688095,6.826772899956337 m-16.170001398681826,1.6105046478458351 l1.814483020227079,0.14628485609869513 2.0706951236618845,-0.11291082457166238 l12.279295853758144,-2.990689211903599 7.389602666314606,-1.7535849870803513 l4.10422494019832,-0.5590736635377849 2.058715722574783,0.3197702546080728 m-25.462762839185288,5.212074455436586 l0.5483548803481537,0.8379261463521306 0.2494775660851164,1.2195708437581758 l0.0733497498103693,17.762664896196032 1.1261215944238108,2.214725711016623 l0.906608781943807,0.4267896330491901 1.8687189810071838,0.43103382166187015 l11.106937897935811,0.23461519106319953 3.610721369063974,-0.3962815655015885 l2.5730111427870637,-0.7055809533238927 m-25.764048487601833,8.786055226078076 l0.12869245022542006,1.1959947415442815 0.06509663906847651,1.4767986200107557 l-0.45172354589359587,6.130095529919118 -0.694003645303435,4.840406475985403 l-1.1007409325576338,4.2709603305857495 -1.3084327787749839,3.1909460689830205 l-1.7088861514593936,2.9610767460881515 -2.1704043880179924,2.800025091856738 l-1.8145672831773618,1.8267574187409519 m9.340508127054408,-32.03317988188318 l5.968244955454541,-2.6479111466621075 1.033715883788023,0.05720602609848028 l0.4070636572389326,0.266102936066132 0.18687376659906638,1.194553819267272 l-0.19158770773699935,27.736202817311355 0.3060801380324021,2.1567683637206816 l0.5082017244470732,1.2601657880860364 0.7034009085160278,0.8071856000252823 l1.5467846768822195,0.5904991700971451 2.4887611950913033,0.19902771462777186 l3.4899218466684903,-0.09814885228728677 2.438940919093252,-0.4011310120149093 l1.0364166556805592,-0.5537230524768832 1.0054893067042017,-0.8831372093816909 l0.5294987988487785,-1.1228557974111968 0.25800387638860167,-1.5690621154946764 l0.10161545283407508,-2.772134493808448 " fill="none" stroke="black" stroke-width="1" /></svg>