<?xml version="1.0" encoding="utf-8" ?>
<svg baseProfile="full" height="129.79032430754307" version="1.1" width="100.9857913723897" xmlns="http://www.w3.org/2000/svg" xmlns:ev="http://www.w3.org/2001/xml-events" xmlns:xlink="http://www.w3.org/1999/xlink"><defs /><rect fill="white" height="129.79032430754307" width="100.9857913723897" x="0" y="0" /><path d="M25,25 m0.0,0.0 m16.52799785442823,14.52239789376928 l0.40379308697235217,0.14701573536513904 1.5497463989034905,0.12735830829652925 l14.535226504423706,-2.062693386739404 2.646249051422628,-0.15820745420452892 m-10.216774151084943,-6.122875252378946 l0.6420905738720841,0.7881882732483666 0.33134443334509267,1.2623485465643691 l-0.047155688820194955,11.72761617088931 m-9.77007485625335,1.7448894590698572 l2.4869493321342704,0.07741102458955619 12.421039427966246,-2.080477401799932 l2.802206775325241,-0.19416223167741403 0.9422110675431831,0.17007431329397388 m-23.640841536830425,7.765912076903177 l-0.7242519403696227,4.687335577186297 -1.3238373374561796,4.663023981735636 m2.4368679868282244,-8.090532782296318 l7.327794932854035,-0.4131544867987337 21.792798521826207,-2.151949062134282 l3.0314656052078073,-0.1102575560121635 0.8521945914563075,0.30492907926820856 l0.3338607242699369,0.5163985150468244 -0.0835639097737181,0.6338248318314027 l-0.8867471563719094,1.4421572243774556 -2.030592086446147,1.999755063679503 m-7.806669848247952,-1.2421873070794374 l-0.09220746689407251,1.1681739432783267 -0.4398582237894606,0.873141850159031 l-2.9693616496394717,2.1036551945552073 -5.075117380221653,2.3822755776249545 l-5.533580672986201,2.0521554874685326 m-1.7979403576614865,7.99640676015526 l2.0551449474568604,0.19949566064875401 13.64150661551028,-2.576937200660739 l3.8501479442118125,-0.905834381717938 2.395475350402968,0.027316200143017135 m-26.59799572947938,12.373708036651573 l3.6778653628016733,0.1951811203163827 24.054073914667356,-2.9735661829069135 l3.5010349648892967,-0.05881116001347161 2.0693450505118802,0.3117420337417237 m-17.771730190693965,-14.18605932845963 l1.1406281432252154,1.0209634997186352 1.1075603318458578,1.5330323705791962 l1.0233469459187756,1.7438330520325862 0.6803532978152627,2.019176794727512 l0.6471709755525269,2.6924058562105038 0.8821466779627305,4.036354395022952 l0.9000987965065858,4.779640665934617 1.2417437212844673,4.927636312745336 l1.7976778896886585,4.944939179341367 1.6555710014702778,3.364742747446593 l2.0052277349392287,3.087294727717805 2.2340633966341485,2.7639845407730665 l2.3704862275222296,2.300150848699269 1.4352633085235622,1.1791561158157906 l1.2997502889800627,0.4608304358000522 0.4574549916536033,-0.1369248319111103 l0.5729490170339363,-0.9998970601448868 0.0341677896215188,-1.8503289770220477 l-0.28102945079815367,-2.8234776648081406 " fill="none" stroke="black" stroke-width="1" /></svg>