<?xml version="1.0" encoding="utf-8" ?>
<svg baseProfile="full" height="107.69241720438004" version="1.1" width="109.49251178652048" xmlns="http://www.w3.org/2000/svg" xmlns:ev="http://www.w3.org/2001/xml-events" xmlns:xlink="http://www.w3.org/1999/xlink"><defs /><rect fill="white" height="107.69241720438004" width="109.49251178652048" x="0" y="0" /><path d="M25.000001774169505,25 m0.0,0.0 m27.166788578033447,1.9135625660419464 l0.4377302899956703,0.21629227325320244 1.568419188261032,1.209418699145317 l2.275099903345108,2.39036425948143 1.8359972536563873,2.4462811648845673 l0.6625987589359283,1.3248546421527863 m-25.819227695465088,5.480547547340393 l2.04457089304924,0.35569872707128525 3.1738877296447754,-0.045287804678082466 l37.45955944061279,-3.515993356704712 2.7382156252861023,-0.0911866594105959 l2.172871232032776,0.37413761019706726 m-44.524993896484375,3.8147032260894775 l-0.06322952453047037,3.984169065952301 -1.1020014435052872,10.310676097869873 l-1.1773436516523361,7.175895571708679 -1.3848881423473358,5.8675068616867065 l-1.3560719788074493,4.234594702720642 -1.6706478595733643,3.921734094619751 l-2.023644894361496,3.4545016288757324 -2.4136915802955627,2.8328970074653625 m16.334612369537354,-15.061215162277222 l-0.3316209837794304,2.249542623758316 -1.4830000698566437,4.241455793380737 l-1.7193607985973358,3.7316852807998657 -1.7766498029232025,2.922089993953705 m11.015983819961548,-24.831247329711914 l3.5876047611236572,8.173481822013855 3.721393644809723,6.228394508361816 l4.550885558128357,5.322745442390442 4.341625869274139,3.368053436279297 l3.716591000556946,1.8877975642681122 4.1481465101242065,1.2560732662677765 l4.61469292640686,0.5481920391321182 2.9351258277893066,-0.12356190010905266 l1.4356592297554016,-0.8406411111354828 0.2049931138753891,-1.4291414618492126 l-0.6807804107666016,-1.8133559823036194 -1.221596822142601,-1.9924277067184448 m-19.45224165916443,-22.174675464630127 l2.8322112560272217,4.917261898517609 1.101529821753502,0.6193746626377106 l0.43841641396284103,-0.36671917885541916 0.32846923917531967,-0.9468147903680801 m14.687978029251099,-3.9629000425338745 l2.231532484292984,2.1754440665245056 1.3480104506015778,1.8946588039398193 l1.2938086688518524,2.609572410583496 1.2884913384914398,3.633573055267334 " fill="none" stroke="black" stroke-width="1" /></svg>