<?xml version="1.0" encoding="utf-8" ?>
<svg baseProfile="full" height="99.47334736774783" version="1.1" width="104.73992880288506" xmlns="http://www.w3.org/2000/svg" xmlns:ev="http://www.w3.org/2001/xml-events" xmlns:xlink="http://www.w3.org/1999/xlink"><defs /><rect fill="white" height="99.47334736774783" width="104.73992880288506" x="0" y="0" /><path d="M25,25 m0.0,0.0 m7.612259194162665,22.41752761531444 l0.4882087836272337,0.11193052846120152 3.5286793238320913,0.11528212549404786 l12.526593770744121,-1.7515963612062115 12.650508641655478,-1.475480167297858 m-14.385303421138579,-10.554879993695172 l0.744796411219813,0.7905386580712932 0.46644333866246285,1.3630083868857523 l-0.026270768904515483,20.47122915510716 -0.13133200522985278,10.357680560262006 l-0.6973066825096592,1.7234244156487983 -0.6430941067257537,0.2557553755453708 l-0.7175074439758858,-0.17037706859850263 -0.7541327480002361,-0.46917697633386213 l-1.7581373361667454,-1.99378072585422 m4.153040704235152,-10.16415585217053 l-2.414113893607275,3.871376751475393 -2.6632769765326985,3.7193940879386327 l-3.032364145175092,3.420168975471741 -2.84513990794677,2.2443465968986667 m12.31930611825527,-10.556553224510596 l2.0891041660454865,2.6277105055644725 2.6799662405712126,3.605692421952236 m6.423417234658211,-21.072270485776485 l1.3280891375637767,0.9157625930511679 0.6474577561290676,1.4221022238782437 l2.189686221472429,7.575490777145213 2.1599447678768517,5.929035815387321 l1.7095116036409614,4.869399625239012 2.239725789405984,4.779509726597577 l3.731563958734676,3.336760537193136 4.479756535005574,1.758490764608406 l0.6398485412996161,-0.5092230398643388 -0.04328346391091149,-3.770379667314386 m-5.708320022248996,-18.959969701602386 l-0.0559284392614035,1.4642806606521734 -1.3107597661160957,2.943868511748693 l-2.0359217761473993,3.342808543414998 -2.4315367368434937,3.1818056050472845 l-2.4543068146537137,2.6786147104664946 -2.896367499963464,2.5938316993305346 l-3.33083430595261,2.5178040672552906 -2.83684483120505,1.775956029345174 m12.08706492591126,-34.614557706078024 l3.438047663724989,2.1268735221958126 1.7025353144072002,1.5472035834554927 l0.7217281736694587,0.9828958047918019 " fill="none" stroke="black" stroke-width="1" /></svg>