<?xml version="1.0" encoding="utf-8" ?>
<svg baseProfile="full" height="112.6762826977951" version="1.1" width="93.74094380692125" xmlns="http://www.w3.org/2000/svg" xmlns:ev="http://www.w3.org/2001/xml-events" xmlns:xlink="http://www.w3.org/1999/xlink"><defs /><rect fill="white" height="112.6762826977951" width="93.74094380692125" x="0" y="0" /><path d="M25,25 m0.0,0.0 m12.31231904825724,16.00233593943931 l0.41747777685094706,0.10780750809445971 2.424380679106716,0.12886245932287507 l21.174958915544906,-2.1966756924917497 3.0983645402097784,0.20095343341195532 m-14.557270163576547,9.541454415154496 l2.328571975459401,0.3459041253275087 7.769302500370716,-1.1987910266502024 l1.3687146855741619,0.013703901066713714 m-19.669894376843303,-6.990813164997812 l0.4026539245289934,1.1988617621708082 0.11103271307795694,13.830149962757753 l0.28497642257539996,1.337978113579767 0.4360846373305738,0.317833890457204 l0.9728963363191961,-0.9537329556155347 5.435947922372783,-5.6483745379600245 m5.881034327362797,-8.388738167354488 l0.06741199681505919,3.1334718033280704 -0.8965172343100641,3.210407935305655 l-2.7742069996825944,3.3896327860183977 -2.543424783512651,1.875221345127139 l-3.0257264171110037,1.7019587605679143 -3.504991037902705,1.6736861326335295 l-3.293662394966626,1.1768211791816887 m29.520508813070123,6.168499943073693 l-0.45561739621133696,0.09907698584130877 -0.8006330670969134,0.3905264336896074 l-5.4256332908804366,0.3568205179166332 -14.277113989964954,0.6318368510278101 m-7.7906837963349105,3.596103626389353 l1.569767320324679,2.1989509165931374 1.3054313192529392,3.2007049539176133 m21.336195126163584,-6.603343221082844 l-0.17995299142208085,0.6962892323873849 -0.928229805263849,0.8627392269013991 l-4.100612521869632,2.9414130351088676 m-5.91941986841797,-9.398503195279863 l0.33832966000957726,0.7236081118262592 0.11648729455894312,1.3212719080836877 l-0.40119212810269106,5.091637109913353 -0.9212734118107276,3.966708536264745 l-1.4317488612549774,3.3701009476106285 -1.9624180570811434,2.922142801409438 l-2.448386714404451,2.432485330775887 -2.911019642743531,2.0030878124826854 l-3.6824758656381,1.89420492506891 m14.655930375507765,-10.987277517384472 l2.790383607330141,1.6942714832389312 3.2257510538394585,2.492675279855662 l2.940347918846956,2.8902594011311993 1.9040561757821275,2.491613408278287 " fill="none" stroke="black" stroke-width="1" /></svg>