<?xml version="1.0" encoding="utf-8" ?>
<svg baseProfile="full" height="103.97005441704445" version="1.1" width="99.71033520818833" xmlns="http://www.w3.org/2000/svg" xmlns:ev="http://www.w3.org/2001/xml-events" xmlns:xlink="http://www.w3.org/1999/xlink"><defs /><rect fill="white" height="103.97005441704445" width="99.71033520818833" x="0" y="0" /><path d="M25,25 m0.0,0.0 m16.246995143087656,12.477776449785063 l0.39236989160029795,0.12049037790363222 2.6148926328013293,0.0632851102311397 l15.008592125690177,-1.9752073629264748 2.580402818964983,-0.1850599840913547 l1.5063075034151212,0.17955708338056167 m-12.221146015910229,-6.74556155443809 l0.6080386729683218,1.0585405972973723 0.1699228358172558,1.3440514852928631 l0.026000208339420582,13.151416305078856 m-21.178285641305113,1.729238463336756 l2.0546055717600034,0.3048895421350079 2.08649975812394,-0.03165099404848544 l17.64772923572498,-1.9317806069275147 12.722425094879046,-1.0694357558963623 l6.616754889133172,-0.34304324278321463 2.828230483097952,0.33048096456394227 m-32.02420063572145,3.632054104998773 l1.2342517665193737,1.3677828692081684 1.4713301762377464,2.3524211107926924 l1.089829424089042,2.1797711108079896 0.5336748971812166,1.7993811071198633 m14.172384832330307,-9.288748741061788 l-0.21489950944021494,1.519505002411932 -0.76601998059261,2.535577365758016 l-0.9437706412632643,2.2919243617276357 -1.233619094744572,2.1024755016482355 m-17.6601622765949,3.130888110528185 l2.8294757062050473,0.22043167512150277 18.2818836862233,-1.7710898736065968 l4.873507442140235,-0.09534740437235216 m-28.78249244568644,9.953145493678598 l3.883704774916571,0.2776384477157 20.588071472202138,-1.3238614618930782 l3.490432726805024,-0.1446143069471126 m-13.772720581885975,-7.385032003522505 l0.5177960648634536,0.8021574571097628 0.23471714828408202,1.254812862216234 l-0.11450063004633826,20.08079474971089 " fill="none" stroke="black" stroke-width="1" /></svg>