<?xml version="1.0" encoding="utf-8" ?>
<svg baseProfile="full" height="111.92661481874275" version="1.1" width="112.38893396699257" xmlns="http://www.w3.org/2000/svg" xmlns:ev="http://www.w3.org/2001/xml-events" xmlns:xlink="http://www.w3.org/1999/xlink"><defs /><rect fill="white" height="111.92661481874275" width="112.38893396699257" x="0" y="0" /><path d="M25,25 m0.0,0.0 m24.492563554555943,14.580538639071841 l0.37883020086837377,0.4020071180913905 0.43335141136667654,1.6134874500964562 l-0.06944774399951724,25.799057894422653 m0.5908189071415119,-16.20367086890266 l9.513821695940285,-1.5086903105292897 2.5508567111808094,-0.025620949740952657 m-24.301539796211113,17.995379944568537 l1.2795734963990775,0.30780836496219993 1.2515741389551067,-0.086010269881014 l20.091250559576412,-7.106758701485627 m7.82326041871941,-24.852726074255028 l0.6284093627380988,0.7115396757226236 0.2874140736308566,1.3664787270700778 l-1.7283073786697856,8.202857804066548 -2.1434366386440864,5.6658102426331025 l-2.661155295059297,6.634903961094025 m5.4584593173443405,-9.582337902040665 l2.8147972976776927,0.12943866588037395 12.713382620345074,-2.275329789732475 l2.9844570531367003,-0.1726756643136135 m-8.585985635088212,3.8520450171859375 l0.258693207713597,1.360174927843027 -0.11804175704501878,1.2134272536512687 l-2.210202721321093,6.562462678037236 -2.7645618172447692,5.832870505786768 l-2.625750922034918,4.139867899738093 -3.1675476955635773,3.8252783153011336 l-3.760234980876387,3.325517076329311 -4.231719264141953,2.7494394243370626 l-3.7492022573926054,1.7054852935480684 m7.748869625487765,-23.405165834518787 l1.1941559576002894,12.266786861229823 0.11898239178491678,11.522014219092917 l0.2719906663544294,2.958578174202236 1.4743624969810394,1.7436387328676672 l2.3811439111839996,0.5872312832781998 5.292773593650717,0.09147503403428126 l3.3553010526721896,-0.41458428408985815 1.2620016516142951,-0.5087590395805554 l1.3195543293907521,-1.1346599965342141 0.5693102758423743,-3.3015817469987834 l0.055100026711582206,-2.5616418908764436 " fill="none" stroke="black" stroke-width="1" /></svg>