<?xml version="1.0" encoding="utf-8" ?>
<svg baseProfile="full" height="104.83817193278978" version="1.1" width="107.51716721554766" xmlns="http://www.w3.org/2000/svg" xmlns:ev="http://www.w3.org/2001/xml-events" xmlns:xlink="http://www.w3.org/1999/xlink"><defs /><rect fill="white" height="104.83817193278978" width="107.51716721554766" x="0" y="0" /><path d="M25,25 m0.0,0.0 m7.440931062117167,5.396156433423855 l0.49585701468551857,0.48694894138336225 0.9504749105394219,0.5136073740117972 l9.982329433652577,-0.016071286593516976 -1.2041318569067216,10.417783661419978 m-12.267621995016189,1.9732712648982058 l0.8912581735437483,0.39219429920504995 1.0965448617031273,0.038820226103234226 l10.155354844480424,-1.7471684815705417 2.5474376180263603,-0.1179096650918571 m-13.025715098961252,2.4045748019938484 l0.27695095630430394,0.9243682784872382 -0.05147434919507714,1.2534346037125201 l-1.8571095495107337,7.316731147571421 0.0012192046168776893,0.886074528579815 l0.27550525984435614,0.40556269251809085 1.4348460337512703,0.06214604191033077 l9.671880371131458,-2.4767225212458546 1.1216937390199548,0.6965914589936935 l0.2764977756126677,1.3069514075915563 -0.6582766161634437,6.1384293966126435 l-1.169639064803502,6.22538371879045 -1.4507812381863283,5.133143328896333 l-1.7038609310478898,4.149367996880004 -1.3290538930137323,1.8430305922051948 l-0.6883497809208367,0.4474307278664862 -1.1714869036122542,-0.03140543070341054 l-0.9899655982393718,-0.9751003217676392 -0.7091873701470336,-1.3431630374143704 m22.664156356930103,-47.08126835526283 l0.5652244909643508,0.9661922807894909 0.26418285997798424,1.3758812738942223 l0.06509939622498556,22.603304890055178 m0.17893522272641163,-24.11331340227809 l11.05375871752131,-1.9236217635380308 3.3240366021176713,-0.242521513223233 m-14.595609516568011,10.256198592097514 l12.137974780799548,-2.068367433500835 2.4387350643795225,-0.15580725320887645 m-14.05653265368921,10.395449421906788 l12.531379594273323,-2.0685391138900733 1.937244802729439,-0.10699909614980417 m-22.03009389491222,11.776430039809233 l3.783645522547637,-0.030113599121370637 21.989391506715492,-3.8172349364830325 l2.0782807108861587,-0.19016857080206884 2.0072130147989395,0.24017258030342173 m-25.38156774423725,5.7774982925348946 l0.6489305213379903,1.0599890428181924 0.32862034889089453,1.8063574235703466 l-0.02134706807269773,17.72020190149747 0.2500201777947486,0.9126070124722253 l0.5692499993728398,0.041382039831106915 0.8007972125829951,-0.5681996866525111 l7.188056861716135,-7.093489671655074 m9.79255590048563,-15.162998251038044 l-0.48868020498009873,1.5172892571620356 -1.0950960285492655,1.3047041527098262 l-4.806458564112333,4.508588368742436 m-7.183732171704585,-5.399141292421842 l3.2747671683857127,2.752693066534351 14.252555534780763,14.012161806630937 l2.6795660797477354,2.102990830590006 2.029779600380118,1.075034098488585 " fill="none" stroke="black" stroke-width="1" /></svg>