<?xml version="1.0" encoding="utf-8" ?>
<svg baseProfile="full" height="116.3220446073891" version="1.1" width="104.26815660216437" xmlns="http://www.w3.org/2000/svg" xmlns:ev="http://www.w3.org/2001/xml-events" xmlns:xlink="http://www.w3.org/1999/xlink"><defs /><rect fill="white" height="116.3220446073891" width="104.26815660216437" x="0" y="0" /><path d="M25,25 m0.0,0.0 m11.890583785299915,3.4876097933668158 l0.4519013119069079,0.45961502667568044 0.7703157943910628,1.4207724805683357 l0.9174319951124733,1.7893812483147942 3.2613833601192215,15.778253247230966 m-3.407363212854956,-19.033076877229245 l29.21823821919443,-2.53705631385016 5.216887551903988,-0.3335395992058055 l2.5581515146119114,0.24615272557868023 0.9582161451236122,0.844837245546066 l0.16438585662529126,1.6206514221424755 -3.269832549837308,14.627406077420396 m-30.574867832768415,3.0609898234909396 l31.795369209179054,-2.4588746280321447 m-23.966644940927885,7.7040128149484355 l0.031358572589393806,2.2299619645279485 -1.0821390216771993,3.506296379549113 l-1.851855193400435,3.8174662429394757 -2.647265002119489,3.997422141162942 l-2.857710801347684,6.756673093142571 -2.5988811823560662,6.1541665678924415 l-2.467422499177759,4.913924942231513 -2.189636795164323,4.333230258819133 l-2.3173471053807493,3.935768530157731 m24.268590046948724,-36.12477870706046 l0.6398398758704232,1.7087100866105303 0.195407691180814,1.7008698354878182 l-0.014180425474895515,25.833235286633002 0.5416165058478668,3.1675864678494503 l0.9229436889998919,1.6752136982730388 1.331977829251929,1.01513094496415 l2.9752039599061484,0.7494380633028483 7.382766878059237,0.04222565605239342 l4.638047804908365,-0.6171562974365267 1.651368888699225,-0.8456781706868095 l0.9719923326419806,-1.264941681033201 0.5557098721405515,-1.847231693717863 l0.2036144741391279,-3.445600372884419 " fill="none" stroke="black" stroke-width="1" /></svg>