<?xml version="1.0" encoding="utf-8" ?>
<svg baseProfile="full" height="97.04820087026476" version="1.1" width="107.366097706412" xmlns="http://www.w3.org/2000/svg" xmlns:ev="http://www.w3.org/2001/xml-events" xmlns:xlink="http://www.w3.org/1999/xlink"><defs /><rect fill="white" height="97.04820087026476" width="107.366097706412" x="0" y="0" /><path d="M25,25 m0.0,0.0 m13.69186912596598,2.883636695761218 l0.38987601677498906,0.36955654989894504 0.6657514178324079,1.1442727755548094 l0.25735687539654967,1.6585683014939807 2.797091564542907,14.820995207836255 m-2.795578330281486,-17.458486451451524 l26.291711385591103,-2.36474726022726 4.6373347638224045,-0.21757130131996102 l1.4296306698514962,0.2344455400938481 0.9091178738953334,0.7425992541105723 l0.3216859948273222,1.352871905359267 -2.8331278265295428,14.19640236079575 m-27.47886634952006,2.907714078710293 l28.340827090732823,-2.2524592589617507 m-22.14771872380333,4.2718523880026025 l0.03642574961436513,1.8410397308115563 -0.8126491446507096,2.6165171577802018 l-1.710535488634795,3.5450526280238495 -2.409336692405404,3.791314415072229 l-2.5148277232412073,3.1525191040404175 -2.9501599303745296,3.0630947622876734 l-3.3506176605057534,2.767753678272782 -2.766215402064184,1.85350761505218 m26.49928615082829,-24.89209994015856 l0.6784143370349808,1.3920388243898825 0.1772205976199369,1.319440325109165 l0.04987417099945473,19.498028155584723 0.5538610270424766,2.241130183887748 l0.9875525952679566,1.1993549875928504 1.3869898020398543,0.793520341140511 l3.0608695593668447,0.5351780200042334 7.53508848118163,0.04116009571626285 l4.650413384616315,-0.4840183205456282 1.7439295920622366,-0.620477377256241 l1.1396710434496677,-0.941374525689684 0.6346419921029302,-1.2882905494622798 l0.26923971596275326,-2.3115076741906573 " fill="none" stroke="black" stroke-width="1" /></svg>