<?xml version="1.0" encoding="utf-8" ?>
<svg baseProfile="full" height="109.49251189819341" version="1.1" width="106.24155052937567" xmlns="http://www.w3.org/2000/svg" xmlns:ev="http://www.w3.org/2001/xml-events" xmlns:xlink="http://www.w3.org/1999/xlink"><defs /><rect fill="white" height="109.49251189819341" width="106.24155052937567" x="0" y="0" /><path d="M25,25 m0.0,0.0 m26.48362636566162,4.648034401810719e-08 l0.04672382026910782,0.49608007073402405 -0.3977293148636818,1.5360352396965027 l-3.981166183948517,5.739036798477173 -4.972996413707733,6.001415252685547 l-5.452595949172974,5.622020959854126 -0.8794296532869339,1.1108238250017166 l-0.11553226970136166,0.8636078238487244 0.6655053794384003,0.46905115246772766 l1.4635185897350311,-0.07404118310660124 28.23272466659546,-6.008089780807495 m-5.049798488616943,-5.474350452423096 l2.533799111843109,1.740400493144989 3.179856836795807,2.97087699174881 l2.767500579357147,3.2985204458236694 1.7596833407878876,2.953406870365143 m-45.56684970855713,14.35566782951355 l2.8096920251846313,0.34935738891363144 2.5295138359069824,-0.05238404031842947 l24.96551752090454,-2.3837389051914215 16.036736965179443,-1.1883672326803207 l5.241637825965881,-0.14826521277427673 3.941611647605896,0.4529615119099617 m-37.8036093711853,-9.334875345230103 l0.7357147336006165,0.9938082844018936 0.4260355606675148,1.2466278672218323 l-0.010308391647413373,8.147579431533813 -0.6506312638521194,6.523205637931824 l-1.4272603392601013,5.7228851318359375 -1.8376387655735016,4.076756536960602 l-2.5690683722496033,3.693736493587494 -3.4043291211128235,3.36675226688385 l-3.1637054681777954,2.346244603395462 m29.787216186523438,-38.14114332199097 l0.7306056469678879,1.1358749866485596 0.2547972835600376,1.2268505245447159 l-0.054006390273571014,35.85818290710449 " fill="none" stroke="black" stroke-width="1" /></svg>