<?xml version="1.0" encoding="utf-8" ?>
<svg baseProfile="full" height="109.49251368641853" version="1.1" width="108.41674013994634" xmlns="http://www.w3.org/2000/svg" xmlns:ev="http://www.w3.org/2001/xml-events" xmlns:xlink="http://www.w3.org/1999/xlink"><defs /><rect fill="white" height="109.49251368641853" width="108.41674013994634" x="0" y="0" /><path d="M25,25.00000029180228 m0.0,0.0 m14.91003155708313,3.782091438770294 l0.552423782646656,0.25555895641446114 2.886372208595276,0.26023419573903084 l14.441936016082764,-2.579306960105896 1.5642492473125458,0.045083826407790184 l0.9728702902793884,0.8885794878005981 0.042061442509293556,1.645517498254776 l-2.7509528398513794,9.62896466255188 m-15.30264139175415,2.0632775127887726 l1.2008920311927795,0.29829205945134163 1.9396957755088806,-0.043971422128379345 l11.311757564544678,-1.6292302310466766 2.3917095363140106,-0.0005037298615206964 m-16.3235342502594,1.7193980515003204 l0.37334781140089035,0.9930195659399033 -0.23943958804011345,1.0920864343643188 l-4.401927590370178,9.205160140991211 0.07425817660987377,0.6686174124479294 l0.4375733435153961,0.38787201046943665 1.8651437759399414,0.03299430711194873 l17.04655408859253,-2.8356212377548218 0.8079827576875687,0.08424881845712662 l1.3053320348262787,0.6315093487501144 0.7557627558708191,1.1757055670022964 l0.12106307782232761,0.7643261551856995 -1.0380613058805466,4.722299873828888 l-2.741129994392395,8.390124440193176 -3.4950459003448486,8.847512006759644 l-2.257213443517685,4.43181574344635 -1.1411160230636597,0.9896612912416458 l-1.947755515575409,0.28750384226441383 -2.044471651315689,-0.9053704887628555 l-1.931300312280655,-1.824173778295517 m37.82675504684448,-53.47327709197998 l0.939624160528183,1.519920974969864 0.263933464884758,1.746935248374939 l0.0,56.22565746307373 " fill="none" stroke="black" stroke-width="1" /></svg>