<?xml version="1.0" encoding="utf-8" ?>
<svg baseProfile="full" height="109.2918407057431" version="1.1" width="91.55963437991667" xmlns="http://www.w3.org/2000/svg" xmlns:ev="http://www.w3.org/2001/xml-events" xmlns:xlink="http://www.w3.org/1999/xlink"><defs /><rect fill="white" height="109.2918407057431" width="91.55963437991667" x="0" y="0" /><path d="M25,25 m0.0,0.0 m6.672057914885971,13.553327387454782 l0.04442687959250067,0.47473782737744125 -0.19130887395456464,6.857206680076279 l-0.7885329723771193,4.005194069603732 -0.9684619058804076,2.905486438454633 l-1.373353338546992,2.271424904214637 m11.658719125373482,-20.098581968715358 l1.0263456205311554,2.6614763526513454 2.214300274630374,4.119584625735959 l2.7004926804854277,3.61573872406011 2.2344808324058483,3.9958138388079227 l2.042088525905689,6.301385877703712 0.27596739629436734,4.708377061394968 l-0.37979252501724575,5.355970576389667 -1.0541257652662106,5.37381773521761 l-1.6889710268351839,5.036983199830789 -1.9474703128418236,3.618692737028451 l-5.319799780114344,3.6557751359516293 -3.729214472337834,0.8794295025047891 m-0.5708665972906796,-33.38922790946577 l1.6369893136575524,2.5442223781505136 1.6536708944707785,3.5087919618250285 l1.209337883213313,3.4838039680520096 0.5478972646827701,2.5264161014454705 m15.583924594366398,-15.394379085803644 l1.3942296526422895,2.7495890064126014 1.2729906166385965,3.421092115236307 l1.13146961851116,3.913691696544453 0.5750072165029281,3.142067166870478 m4.44363302193656,-33.761794814129544 l0.79522974018989,1.6473427529348277 0.45827288346201905,2.7791338876936926 l-0.08514496963077083,51.874738652442765 " fill="none" stroke="black" stroke-width="1" /></svg>