<?xml version="1.0" encoding="utf-8" ?>
<svg baseProfile="full" height="100.93928300681159" version="1.1" width="104.38111714242098" xmlns="http://www.w3.org/2000/svg" xmlns:ev="http://www.w3.org/2001/xml-events" xmlns:xlink="http://www.w3.org/1999/xlink"><defs /><rect fill="white" height="100.93928300681159" width="104.38111714242098" x="0" y="0" /><path d="M25,25 m0.0,0.0 m17.305311997913247,3.5423981058060927 l0.3962334794713543,0.42084861790042893 0.4872785768750042,1.7264070560101388 l-0.06955421161512904,27.599221056234068 m-11.814431446057673,-28.07121520774784 l0.4280341147703207,0.4428193040270097 0.30963336013252724,1.3869239130002888 l-0.6215095877156633,7.431997814831866 0.36603404320014743,0.9281322133367027 l11.284004938396196,-1.1075194225995055 m-16.50438815673627,8.852855284322361 l1.5822956436445952,0.21753218025246518 2.5510963577126633,-0.12717174901109632 l12.693712623352535,-1.7523379678413271 m-8.928910962949335,2.1029740232667162 l-0.3072997298694513,3.788172720248265 -1.1541966466421971,3.2144455515682777 l-2.0670244360214753,2.828727482193253 -3.4450884520060856,2.790240842772158 m20.707762836517112,-20.276947237751617 l3.010119569704609,0.1701750094564328 20.549276208030516,-1.7284177773120442 l5.512287604877228,-0.25458761848785166 2.1104394174361962,0.16985095011490678 m-17.437003419271225,-10.78264671386736 l0.8390605977376112,0.9501641432492478 0.4590165385853546,1.3088459203260587 l0.04661172914857227,21.19632990409134 m-11.723758624635781,0.9038887754328963 l3.5692538817464663,0.07656028622047337 17.6597108589321,-1.2516187099230027 l3.3562028421397296,0.02791742309320766 m-46.099777293653915,11.488711854324393 l2.485317667666227,0.297061333996365 3.0735956635777066,-0.05791350991495111 l30.723653742568317,-2.4916395674352936 6.488145469196345,-0.2660588883028246 l3.0538186094794493,0.1936977622334858 m-23.399601166722128,-5.813648943205263 l0.4838176438783008,0.7580188705347416 0.024786856288999338,1.922588735134455 l-1.1891481722829889,2.3411877932206284 -2.6645142629960787,3.495620666689623 l-3.6745188349089934,3.5112551131855105 -3.634888697305955,2.5937736006483525 l-4.057640244037827,2.335479738343197 -4.564223015474771,2.0990182909928055 l-5.310917726439397,1.8071639831533608 m24.218181082862408,-15.295505096684451 l17.823425655108544,11.359768761457897 3.6742496025712814,1.9545818379808073 l2.692852103024319,0.7437643860002577 1.6864826724209294,0.17317640580295937 " fill="none" stroke="black" stroke-width="1" /></svg>