<?xml version="1.0" encoding="utf-8" ?>
<svg baseProfile="full" height="109.49251236394048" version="1.1" width="104.6771214529872" xmlns="http://www.w3.org/2000/svg" xmlns:ev="http://www.w3.org/2001/xml-events" xmlns:xlink="http://www.w3.org/1999/xlink"><defs /><rect fill="white" height="109.49251236394048" width="104.6771214529872" x="0" y="0" /><path d="M25,25.000000055879354 m0.0,0.0 m11.954421997070312,2.482156902551651 l0.6627463549375534,0.1810992695391178 2.01871395111084,0.20811529830098152 l2.714037299156189,-0.15958936884999275 25.02953052520752,-2.711782157421112 l2.072308212518692,0.18798260018229485 1.2740002572536469,0.8352635055780411 l0.34976333379745483,0.5912873893976212 0.1486537978053093,1.3916970789432526 l-1.7598506808280945,8.404828310012817 -2.805112302303314,9.430474042892456 l-2.6327702403068542,6.374554634094238 -2.4026304483413696,3.6006179451942444 l-0.7650306075811386,0.7149393111467361 -1.3850416243076324,0.6849896162748337 l-1.869140863418579,-0.4967203736305237 -1.8617846071720123,-1.781918853521347 m-1.6855894029140472,-25.91576337814331 l-0.48775795847177505,2.424698770046234 -1.9854366779327393,4.114491641521454 l-2.5700685381889343,4.342879951000214 -3.2202044129371643,4.429050981998444 l-3.088846206665039,3.5105937719345093 -3.580651581287384,3.4020042419433594 l-4.106084704399109,3.221955895423889 -3.444739580154419,2.2537578642368317 m9.617527723312378,-19.425612688064575 l3.7785646319389343,1.6211363673210144 3.7880223989486694,2.2544585168361664 l3.532662093639374,2.7199921011924744 3.0124831199645996,3.0173873901367188 m-24.480979442596436,22.463316917419434 l-0.9559161216020584,5.664694309234619 -2.1071618795394897,6.524828672409058 m10.92340350151062,-15.054010152816772 l3.2061931490898132,5.28725802898407 3.749140501022339,4.5404428243637085 l4.5901840925216675,3.6633196473121643 4.4794923067092896,2.212774008512497 l3.93094003200531,1.1971118301153183 4.492102861404419,0.7697595655918121 l5.118419528007507,0.3139900788664818 5.43507993221283,-0.22333644330501556 l1.194484680891037,-0.32576851546764374 0.7657311856746674,-0.4711383581161499 l0.356944240629673,-0.6021463498473167 -0.43111786246299744,-1.5377674996852875 l-1.8229025602340698,-1.8838529288768768 m-22.866849899291992,-15.244566202163696 l2.0530423521995544,3.086744546890259 1.2088464200496674,1.1811736971139908 l0.9801078587770462,0.11174211278557777 0.6648480892181396,-1.2732996046543121 m14.090014696121216,-4.671450555324554 l5.484821200370789,1.6072122752666473 2.470236122608185,1.310255080461502 l1.8453212082386017,1.3871434330940247 " fill="none" stroke="black" stroke-width="1" /></svg>