<?xml version="1.0" encoding="utf-8" ?>
<svg baseProfile="full" height="110.50022430638609" version="1.1" width="99.77936854593632" xmlns="http://www.w3.org/2000/svg" xmlns:ev="http://www.w3.org/2001/xml-events" xmlns:xlink="http://www.w3.org/1999/xlink"><defs /><rect fill="white" height="110.50022430638609" width="99.77936854593632" x="0" y="0" /><path d="M25,25 m0.0,0.0 m32.80328879810538,11.966740469666508 l0.4226679364942253,-0.11043034586303464 8.059705958661079,-1.5962417117839485 l1.8811892711194316,-0.17994157149187995 m-12.945084522680613,-5.734857838546891 l0.658869038618595,0.9041411159655 0.35484793504550705,1.117345390423233 l0.04317503148047831,11.66794303977741 m-11.83474606631781,1.3735751881208387 l0.7079641855742814,0.9960751111629076 0.08284238478805983,0.6952305957480349 l-0.044006967311777445,13.546887433819714 -0.27133711396686855,6.835925124920845 l-0.6618266941811782,5.186724199134171 -1.1138746572426186,4.3888638819882475 l-1.6374534082336,3.9859818071767927 -2.1971098939300013,3.579394911092836 m7.139699911946202,-39.83143779601467 l1.7351414510887575,-0.05497426610068175 16.377772656868704,-2.8513291867046666 l7.1633581841001766,-0.17513299710856903 0.7955762012286205,0.5191759379097556 l0.1465857206407157,0.6962455122246592 -0.22338032983253267,1.7258311117385245 l-2.2441028527076123,3.391179776041401 m-22.433162021162193,6.188451837927622 l0.7660630200870686,0.2575208153344005 1.365530917468279,-0.007864615278910282 l12.197752676144022,-3.258481722299347 3.503983470637937,-0.5492286618657135 l1.8527751175955505,0.31483701618306054 m-11.511059034825943,-5.142094201133288 l0.6134193774064933,1.9293892501780057 -0.017315299291706467,8.226100764211832 l0.24172990074492337,1.4342236851993018 0.4953464452310384,0.9303022647036194 l1.2897969969870509,0.6339238320253752 1.9759974926718449,0.14484406007101247 l5.2010474759711585,-0.13002725608908727 2.6713471398948823,-0.5308175301864099 m-12.706414563137162,5.74856476847702 l0.09455766058538484,1.199459665298409 0.027420899774114986,1.4064613609626215 l-0.45908013107378676,2.9307471353028216 -0.8335015119607715,3.2582638214869197 l-2.126219307775227,5.425753537470763 -3.04445708952241,4.869057171533524 l-1.573069572395735,1.6226393373028352 m14.190896041206448,-21.26849499631365 l0.4065084814401557,2.4059113738805946 -0.09761755972737855,14.34067963951373 l0.33263032292253586,2.3205524173121668 0.6443663066440866,2.18438190974171 l0.9661049961251912,1.0204655947537828 1.519902446369004,0.5031238932084693 l3.8690328861758094,0.048663244175862486 2.3010854391529283,-0.3950647336363707 l1.2934989409187938,-0.5279364385202526 0.7824198701185772,-0.7189668731270668 l0.4785648917144675,-0.9433679575730669 0.23070685786371156,-1.9315565822669203 l0.06901640560158416,-2.8618102906060487 " fill="none" stroke="black" stroke-width="1" /></svg>