<?xml version="1.0" encoding="utf-8" ?>
<svg baseProfile="full" height="109.4925144687295" version="1.1" width="109.3201512331143" xmlns="http://www.w3.org/2000/svg" xmlns:ev="http://www.w3.org/2001/xml-events" xmlns:xlink="http://www.w3.org/1999/xlink"><defs /><rect fill="white" height="109.4925144687295" width="109.3201512331143" x="0" y="0" /><path d="M25,25.000003157183528 m0.0,0.0 m7.913001775741577,13.486627340316772 l0.6603007763624191,0.17919007688760757 4.138756990432739,0.24465426802635193 l19.320855140686035,-2.1034178137779236 12.748831510543823,-1.022898182272911 l4.97842013835907,-0.1413047593086958 3.832705318927765,0.4397343471646309 m-23.70748281478882,-11.08258843421936 l0.7955969870090485,1.2104367464780807 0.4949243739247322,2.060427665710449 l-0.0634550815448165,22.81411647796631 m-18.364485502243042,1.8122123181819916 l4.872041940689087,0.14132089912891388 26.623754501342773,-2.601913809776306 l5.0269615650177,0.34537337720394135 m-42.65584468841553,17.406052350997925 l-0.24117933586239815,1.8175484240055084 -1.1908996105194092,3.5986047983169556 l-1.7214985191822052,3.8543936610221863 -1.4297336339950562,2.3912665247917175 m13.814677000045776,-14.134155511856079 l3.941837251186371,6.326907277107239 3.4378328919410706,4.0540677309036255 l4.819713532924652,3.879525363445282 4.396955966949463,2.204674929380417 l3.6801958084106445,1.1574198305606842 5.495850443840027,0.9151431918144226 l4.620039761066437,0.23909222334623337 5.1970285177230835,-0.1815515197813511 l2.3320528864860535,-0.6374071538448334 0.5373980849981308,-0.489889495074749 l0.1581038348376751,-0.5979887768626213 -0.7017847150564194,-1.5003080666065216 l-1.8597210943698883,-1.8748685717582703 m-22.93632984161377,-18.254321813583374 l1.939934641122818,3.231273889541626 1.917557418346405,2.0070666074752808 l1.09373077750206,0.3075364790856838 0.45270882546901703,-0.23444464430212975 l0.6522105634212494,-1.3763725757598877 m15.478166341781616,-4.266135394573212 l2.5940388441085815,1.6767440736293793 2.375430464744568,2.159575968980789 l2.1964123845100403,2.7944010496139526 1.6545388102531433,2.795778214931488 " fill="none" stroke="black" stroke-width="1" /></svg>