<?xml version="1.0" encoding="utf-8" ?>
<svg baseProfile="full" height="110.06937686178031" version="1.1" width="106.94007941664294" xmlns="http://www.w3.org/2000/svg" xmlns:ev="http://www.w3.org/2001/xml-events" xmlns:xlink="http://www.w3.org/1999/xlink"><defs /><rect fill="white" height="110.06937686178031" width="106.94007941664294" x="0" y="0" /><path d="M25.380611238113982,25 m0.0,0.0 m14.974921932761124,3.7587818723838606 l0.046257339331000645,0.49270520366644843 -0.09056554760257682,2.024739909628972 l-0.804025877490624,2.701225999450044 -1.6473120467839266,3.960800828621236 l-2.31939261387924,4.144828162129676 -4.645891617248144,6.497385156020946 l-5.894602807201597,5.996897322242656 m11.18562981842607,-10.645307573966752 l0.6092677243859116,0.9307863551780472 0.15335037405237711,1.2657685036997097 l-0.22682582109990662,30.38531616029818 m11.669452616169105,-41.1745883748158 l0.7691771457137572,0.20807173170847737 1.7363965449243803,-0.08560187775033723 l20.345927264744024,-2.191490653886875 3.5605588296337842,-0.21029453995182823 l2.110489349113009,0.28041750946904986 m-33.08100491460523,10.544379410626005 l0.9060032407815009,3.0077136164488687 0.32447063618010236,4.887637241872012 m-0.5002832173498309,-8.133045740710433 l23.487383720453668,-2.1047914900317872 12.052743591680043,-0.8110962599359496 l0.8751908030750828,0.13272729234400277 0.618604230590194,0.36554681674761585 l0.34354747977489314,1.043002588013201 -0.7214367534253536,3.3991374967983625 l-1.8247206724122291,4.921649187010324 m-23.571884650922662,-15.37045812186891 l0.7720766244767082,0.9427124647216651 0.35956902954374,1.0370613685214685 l0.49359175590136256,13.16913590488108 m10.89449472904541,-16.548175273330614 l0.5802347872869009,0.7725522279851839 0.229065157750443,1.3392044992826702 l-1.0514824062049417,12.896092503867216 m-19.623871149270144,2.597905053269979 l30.07029229128661,-2.483077001728035 m-27.61699348863365,10.093097892426442 l2.461756244259875,0.22844167220043 17.667172014234104,-1.4643320325050309 l4.044906652928201,0.10399581277066397 m-12.88993771548225,9.237227205251042 l7.014462683202837,1.536815146525929 3.86218202415905,0.6407731840857458 l1.0239837564876262,0.31264562046417876 0.7882812523982835,0.794220605751771 l0.2575834172004626,1.3612197342829047 -0.9497164783734222,3.444182303129568 l-3.912582925859588,6.675315369817363 -2.4546428953687083,2.4910490031020083 l-1.538505538987394,0.6684698655676682 -1.4757165493121365,-0.1953065146980016 l-1.691625156349377,-1.1498016571013967 m-0.4926936512573606,-20.507470682052883 l0.09606247752910937,1.55752759265063 -1.1061837536995305,2.739733968609618 l-1.9573819586158006,3.6057320861279067 -2.4109184617821544,3.4827815948861707 l-5.201548230821269,5.443797752916524 -3.3481386543254263,2.429473868692952 l-2.8042027784952173,1.5223651158187683 " fill="none" stroke="black" stroke-width="1" /></svg>