<?xml version="1.0" encoding="utf-8" ?>
<svg baseProfile="full" height="108.91893574432609" version="1.1" width="102.40927054092377" xmlns="http://www.w3.org/2000/svg" xmlns:ev="http://www.w3.org/2001/xml-events" xmlns:xlink="http://www.w3.org/1999/xlink"><defs /><rect fill="white" height="108.91893574432609" width="102.40927054092377" x="0" y="0" /><path d="M26.993004149078917,25 m0.0,0.0 m11.639452977212628,4.707514331976552 l0.03379377908617812,0.412549149121538 -0.2856799931200009,0.9261706856088783 l-0.8659908483044795,1.2906773439409787 -3.377976870559795,3.875827393938207 l-3.404297178441699,3.0629597685039402 -3.6347928477297646,2.3906195020662016 m12.477703149929084,-0.10489349252722525 l-0.11505861615386778,1.0141439407341628 -0.6568784222330916,0.8889735746592321 l-3.892584379688473,4.693108587518665 -4.6976847941704065,4.319704816531275 l-5.21301010490523,4.046571504640168 m9.406533181897712,-5.88325755391002 l0.7683741514955046,1.1327223551041545 0.17034740076834448,1.0895615633582783 l-0.05978381716527368,22.045543761720925 m13.57921274350864,-43.68972170748675 l0.676666656264598,1.073649172448213 0.14957833683134739,1.1113794125448566 l0.04707474366536431,20.00267448392279 -0.7288008044419176,6.044230720231721 l-1.2500244896098407,4.280106090256832 -1.56023966608083,6.618107052723668 l-1.5664343075565783,5.517644203827261 -1.9201202598772462,4.747800901204828 l-2.0534434586073202,3.304568181666774 m8.375484218617252,-48.013957666206956 l14.6001628644616,-2.793324289919184 1.4328729897358612,-0.782289416496202 l1.7128503182164774,0.21951510109289663 0.6070063767174503,0.42093094913545975 l0.2898605582601156,0.5830121960669218 0.03564396587372606,0.820480875839632 l-0.5318175573078678,4.4084815848122245 -1.0310221529363406,14.01857825585638 l-0.488280102680026,8.061841269640047 0.10398746958156682,4.472598479773628 l0.7273161953408772,1.5581727567968757 1.7079865633411957,0.8950306712896047 l2.6823365336711507,0.36499442189241876 3.983338754780227,-0.15831451456651577 l1.202015034155511,-0.4114181202430709 1.0126083075813264,-1.0089609883131487 l0.3279797924211853,-4.541476228578114 -0.03987307213897952,-2.914922876251818 " fill="none" stroke="black" stroke-width="1" /></svg>