<?xml version="1.0" encoding="utf-8" ?>
<svg baseProfile="full" height="98.9541001287408" version="1.1" width="106.72497605237734" xmlns="http://www.w3.org/2000/svg" xmlns:ev="http://www.w3.org/2001/xml-events" xmlns:xlink="http://www.w3.org/1999/xlink"><defs /><rect fill="white" height="98.9541001287408" width="106.72497605237734" x="0" y="0" /><path d="M25,25 m0.0,0.0 m6.822938386359617,20.520794151770634 l0.5269369073732679,0.10925346639216392 3.1934230846640874,0.15311021581401824 l32.60250519396088,-2.4351513174120587 3.169092575851359,0.2127451305904534 l2.49077192994876,0.2983680240109429 m-39.94210944754468,15.061861749033298 l3.0211039287644605,0.16711832139832156 13.97015979502831,-2.2321625384633346 l2.3105931326709834,0.15783521781190268 m-9.75149869285368,-8.772545886247487 l0.6903260473887336,0.9936152181113707 0.2073715340714247,1.062634929520549 l-0.043199354494471646,15.213129114216413 m-14.085113140079086,1.7491155446236144 l2.650780655663508,0.2957151268764037 12.7746902577849,-1.1825373266712873 l9.539721813442616,-0.5825126998525437 3.5815600925113005,0.2523355649057069 m2.4526273835026795,-30.707018617739603 l0.8839246191133756,1.234389505344455 0.3004643489894204,1.041261361287408 l1.161638195343417,8.40147806127493 1.8560154133784903,7.082398552968737 l1.9018451860375745,5.127742031905756 2.4486204128990354,4.8235970487030135 l2.3381930087698577,3.472803971856725 2.7419832752410525,3.1485758435048083 l3.12489913637098,2.7504337355751454 3.271972189766512,1.5357166276303484 l0.512738182452672,-0.5732011481370788 -0.27789252889044863,-4.068574713351484 m-11.414385986864039,-34.430463947761346 l3.5351969447495915,2.177070557324356 1.7289953165312584,1.5024691464846558 l0.8127210979887457,1.4311531573313379 " fill="none" stroke="black" stroke-width="1" /></svg>