<?xml version="1.0" encoding="utf-8" ?>
<svg baseProfile="full" height="101.53626869070084" version="1.1" width="110.88439630361165" xmlns="http://www.w3.org/2000/svg" xmlns:ev="http://www.w3.org/2001/xml-events" xmlns:xlink="http://www.w3.org/1999/xlink"><defs /><rect fill="white" height="101.53626869070084" width="110.88439630361165" x="0" y="0" /><path d="M25,32.19667436603841 m0.0,0.0 m22.146283548906815,2.8440940428096995 l0.3940206908896703,0.4734269646226036 0.4837643512136578,2.03665243552414 l-0.09369132671289628,31.707272748478868 m0.5744273212497867,-19.934007735145048 l10.710938215601828,-2.0000386702828323 2.7871223487603944,-0.0006048497622646921 m-25.57243503657533,1.608470160305287 l0.5614086634948167,0.9938343467525392 0.22994708540236666,1.699895152521288 l-0.026808766766017633,23.668100427525303 m-5.458788230552958,0.649358395214631 l1.812045350521518,0.5931409060982119 1.4918606635076699,-0.1600993525963569 l12.714439624632814,-4.35473789984221 9.702432403472116,-4.695534230744927 m24.582814988907213,-27.62532213530916 l-0.6176434373983819,1.4809649292983713 -3.1509288411686085,2.442462742331177 l-4.722786307059299,2.716523798936411 -6.175156739922221,2.8580326741993494 m-3.0702265034483234,-24.198559216973496 l0.6581086595998997,1.0185958798917865 0.15720981355503186,1.320830895336274 l0.09080330083437248,41.232887902217755 0.28579945819284364,2.298775037043043 l0.7654407853684827,1.691753248448789 1.88303697174334,1.3179870522837647 l10.448529187478721,0.7229277951141594 4.35287074931266,-0.5260716553956413 l1.4875740890512503,-0.7374880449409377 0.8774298394394888,-1.2195208194853935 l0.43476858524615414,-1.8224762655137505 0.1397847968327939,-3.5135871970779977 " fill="none" stroke="black" stroke-width="1" /></svg>