<?xml version="1.0" encoding="utf-8" ?>
<svg baseProfile="full" height="97.50853820122342" version="1.1" width="109.0835294554966" xmlns="http://www.w3.org/2000/svg" xmlns:ev="http://www.w3.org/2001/xml-events" xmlns:xlink="http://www.w3.org/1999/xlink"><defs /><rect fill="white" height="97.50853820122342" width="109.0835294554966" x="0" y="0" /><path d="M25,25 m0.0,0.0 m13.263739100714385,16.68663543304137 l0.057250343029540005,0.3828194673277173 -0.05996203859070048,1.0352002475221262 l-0.9082254764750833,1.8059661367344828 -3.3918911475599565,4.756449891997354 l-4.163216050177641,4.46773723084543 -4.090859154240819,3.2959129336374215 m13.947100034561878,-12.857494655053552 l4.574531124295627,0.9367156347817271 3.111267688428663,1.7225508244282643 l2.310507022156746,1.9441100222378223 1.6450743878187315,1.927645608211217 m-19.71563158872213,4.5527329092298725 l2.8565614920079963,-0.03385316190509419 8.39672343297072,-0.8358905085942777 l4.323876424158845,-0.20576534176588385 2.10461729537241,0.06540052485058381 m-9.75181134273533,-5.731751386702714 l0.7577441368830249,0.777139239989952 0.1774310275790699,0.7908507682232238 l-0.07232916489247507,19.727940586642198 m-10.187128350866487,-8.707135003799937 l2.415181708760408,2.5495509889724377 1.637880037352889,2.849720929959716 m14.585808991012481,-8.738212167911263 l0.15284458099017076,1.0154771676132819 -0.7046899014551734,0.8752762678505633 l-4.945560820462054,4.1372411784397345 m-15.798277967264408,7.989783849459349 l1.2286254307237214,0.325782584960275 1.2988650633339063,-0.1130711606991343 l16.993285517455003,-5.5746509452041915 m7.308991704254626,-26.980352137374485 l2.194332717470655,0.2029999809218352 22.094746468677737,-2.0424394403864867 l3.8304115237706746,0.12825238044806128 1.6057152051589687,0.2682417419169723 m-14.486457000389029,1.9103757561804324 l0.7851303203926056,1.822936327280652 0.1429761599071729,2.687267401439589 l-0.3616080815450944,25.934761444100815 -0.3910077969712747,0.7524766042374601 l-0.5907868930158869,0.31235325382366497 -0.7359083082573198,-0.02227325730617542 l-1.6977842768331846,-0.7566371077487938 -2.460942737968236,-1.7800114220863554 " fill="none" stroke="black" stroke-width="1" /></svg>