<?xml version="1.0" encoding="utf-8" ?>
<svg baseProfile="full" height="101.09811754405548" version="1.1" width="109.06545221047116" xmlns="http://www.w3.org/2000/svg" xmlns:ev="http://www.w3.org/2001/xml-events" xmlns:xlink="http://www.w3.org/1999/xlink"><defs /><rect fill="white" height="101.09811754405548" width="109.06545221047116" x="0" y="0" /><path d="M25,25 m0.0,0.0 m34.113369681720954,7.694630145578626 l0.30782034740305914,0.2866541964100797 0.5500456915680931,1.207286915601956 l-0.03353051653441708,9.35566606662794 m0.858046028876607,-4.9165754575121134 l8.79786739007342,-1.338960369544753 2.1275794348559107,-0.02178263097123606 m-24.765716391401384,7.831922111492863 l0.6230682076835745,0.807597219838748 0.39992867520008285,1.3595601867162854 l1.767822854232584,11.024758392036272 m-1.5149993482414164,-12.41517455774977 l19.05107678242216,-2.1429367061164615 5.029571504324792,-0.32638498626017187 l1.1630499310027032,0.16242292996396757 0.7754013524143089,0.6522348373488377 l0.09757373693475009,1.1470980800094204 -2.627587515269466,10.598219559599604 m-22.013870309925696,-5.124121382212521 l12.420391278021762,-1.135989168641663 10.920771720380896,-0.6969318254821045 m-21.972872048591054,7.684162319949224 l10.511916219563808,-0.9292952385252796 9.654520994967616,-0.6190632419815388 m-32.43792863058759,9.064731196683267 l1.541135858441899,0.29424346079598984 2.1400371731516548,0.029953751315921488 l35.17609418902059,-2.2808286754298273 3.5150543786160737,-0.053755567425618614 l2.889813540144891,0.29849751571248734 m-23.535877635255417,-5.678973433458954 l0.5733086889914029,0.7022212120949715 0.20400394691477505,0.8914881188915946 l-0.017964295412849305,17.68554256869944 " fill="none" stroke="black" stroke-width="1" /></svg>