<?xml version="1.0" encoding="utf-8" ?>
<svg baseProfile="full" height="118.32318688999138" version="1.1" width="92.10960428091761" xmlns="http://www.w3.org/2000/svg" xmlns:ev="http://www.w3.org/2001/xml-events" xmlns:xlink="http://www.w3.org/1999/xlink"><defs /><rect fill="white" height="118.32318688999138" width="92.10960428091761" x="0" y="0" /><path d="M26.344243301113725,28.35407199711146 m0.0,0.0 m17.359235885410644,11.18976770992169 l0.4442229399075385,0.16125965307424095 1.7404728183691005,0.10886847180124476 l16.440566282711046,-2.6598531612908607 2.883847152646937,-0.282405092418721 l1.8970159007586236,0.2169350132851804 m-30.9087406270448,-9.149855162215488 l0.785358412029748,1.0618224643502352 0.2835100099152566,1.0180689163098906 l1.6564649824059403,17.802286241944202 m14.790322185203088,-22.820967051873076 l0.30858756756619915,1.1883321594809417 0.06500308634192396,1.26329300716093 l-3.1627793596940457,19.96225987400886 m-25.92733053764093,8.442862535811345 l0.3594110172100902,0.4257354384867991 0.8017924459318744,0.24881761680206713 l1.2241078882998673,-0.18406596626249333 16.114146391867564,-2.6472011373566873 l10.914969537238738,-1.2911489292639848 3.3437532852434075,-0.18590692526697444 l2.2971685047399175,0.45302306587139746 m-24.932596281065237,10.704430526798033 l0.5574286498595034,1.2750918349594778 0.23637838353985466,1.2321055270094894 l0.010101085430464793,26.364794489335782 0.09331796616246948,1.0707637724163965 m0.39449027882479076,-28.874835058946815 l15.544674769670491,-2.2722206060837657 0.6431749032411566,0.12356903925092422 l0.9105352481214743,0.5896449138217466 0.3453273537807706,1.1199965234259235 l-0.34694859139794476,28.30763370076762 m-17.148341220777045,-16.032832597087868 l10.974799264070151,-1.3696294229577992 m-11.090729688601355,15.69595879551231 l16.554713619742785,-1.7083984860689228 " fill="none" stroke="black" stroke-width="1" /></svg>