<?xml version="1.0" encoding="utf-8" ?>
<svg baseProfile="full" height="106.99926042283076" version="1.1" width="99.31171593798305" xmlns="http://www.w3.org/2000/svg" xmlns:ev="http://www.w3.org/2001/xml-events" xmlns:xlink="http://www.w3.org/1999/xlink"><defs /><rect fill="white" height="106.99926042283076" width="99.31171593798305" x="0" y="0" /><path d="M25,25 m0.0,0.0 m13.397416447518573,4.697420823616039 l0.37983489317103686,0.5353351516136636 0.5068527639969783,1.2547496623462446 l0.18402599762056734,1.4041550043114353 -0.08348750596881395,32.96700830757014 m0.8046041217423039,-34.57774035861414 l25.559343703889006,-2.374104928098919 1.5854199361699757,0.19594805122898937 l1.4397691587205348,0.6606091974712471 0.6996826086271681,1.8142410613477626 l-0.5067919831785048,36.962150392910026 m-29.88898986021649,-24.511551385642235 l16.45120488319207,-1.5145439693310327 13.006208878386717,-0.8535190040946872 m-28.90584174254184,13.7672910240015 l17.09503792751517,-1.3978331551268908 10.95535181082224,-0.5972166807886776 m-27.867339916978352,14.147914797069294 l18.92102836635415,-1.2952833354968034 8.90124880291602,-0.34564274293703434 m-22.475020652458298,5.6969119920315485 l0.0735495088523582,0.5729296419096733 -0.39992422854065934,1.1736248312567306 l-1.7833108358700929,1.5882206810381794 -5.930415955676905,3.781666528904371 l-6.247514737570759,3.2465188343343225 m30.848252658994152,-10.902043689584755 l3.786231308098616,2.483691071825839 3.6580524686078633,2.8867048020318067 l3.4235612495831305,3.2670598965505104 1.7236758622051347,2.200753251538539 " fill="none" stroke="black" stroke-width="1" /></svg>