<?xml version="1.0" encoding="utf-8" ?>
<svg baseProfile="full" height="149.01345925737925" version="1.1" width="107.80014060349703" xmlns="http://www.w3.org/2000/svg" xmlns:ev="http://www.w3.org/2001/xml-events" xmlns:xlink="http://www.w3.org/1999/xlink"><defs /><rect fill="white" height="149.01345925737925" width="107.80014060349703" x="0" y="0" /><path d="M25,25 m0.0,0.0 m18.712281465641283,3.5695979553545754 l0.5906389039472688,0.1992966919822846 1.8716427782291694,0.23310332957916804 l2.6605774875881694,-0.15656169594249042 24.72427527020851,-2.965006394787551 l1.6856251759196332,0.3984544253233674 0.8971626945994184,0.9745136219596604 l0.19950601660417794,0.6212046727286353 -0.4133236565534293,7.349823316938162 l-0.7816716071973686,17.762338514037264 -1.1975257861218813,13.57789314041071 l-1.3396845494203902,7.119134814216889 -0.4806189692602931,2.6070822773953273 l-0.5267265605904801,3.678810320226368 -0.5070266081509186,4.155232212768406 l-0.46881005608661197,4.666559502409713 -0.42505791002199794,4.963697402862164 l-0.2050579723225937,4.266501457405419 0.19354501459351117,4.2326456404569095 l0.7535611481064456,4.504871015930855 1.1420801930575493,4.4257182790100185 l1.3448225741034603,3.8611876127729725 3.5338017860005198,3.5982213277385746 l3.10361585942592,1.187058908362932 1.3477423346449104,0.1235614394618531 l0.8955782089563034,-0.6953524005007673 0.4551626147965038,-2.112358852266442 l0.034024752800234564,-4.461389370466038 m-19.524668952216764,-33.34037260880349 l-0.0018294242120065482,2.3644323208630365 -1.1868676330323462,5.3052716751201885 l-1.5568958913299908,10.02491257641583 -1.5874624941268125,7.573527815562325 l-1.6133332902534727,5.573074613746064 -2.0741410291048035,5.327511509767036 l-2.6497520611773595,4.977527424192465 -2.51522173949279,3.521734765146879 m-5.816096949626265,-48.03945474344452 l2.699791359056988,3.0439082002001707 1.953210138154362,3.0768129240235287 l1.2404342098979175,2.717859629027491 0.4861542333828697,1.8213083705844353 m-9.391643138357376,18.629525268706228 l1.5431720171363672,0.45147437425967374 1.1847366523039098,-0.3685830050844606 l11.531723010979004,-8.738476234680153 m18.920635088655608,-23.603666243515686 l-0.08544316798135113,1.3661071987162192 -0.5443258678322038,1.6393499244366354 l-1.6676160046575346,3.296414749898314 -2.381834795858956,3.5137735531605476 l-2.7089201758085077,2.987703255486278 m0.7366315811228555,10.21044272034341 l1.163376174009511,1.6915239374517226 1.7852074484384353,2.8716750805437705 l1.5234995443552546,3.119960679605839 0.7712308344583242,2.3894173582548475 " fill="none" stroke="black" stroke-width="1" /></svg>