<?xml version="1.0" encoding="utf-8" ?>
<svg baseProfile="full" height="108.86530699252333" version="1.1" width="99.45650032112808" xmlns="http://www.w3.org/2000/svg" xmlns:ev="http://www.w3.org/2001/xml-events" xmlns:xlink="http://www.w3.org/1999/xlink"><defs /><rect fill="white" height="108.86530699252333" width="99.45650032112808" x="0" y="0" /><path d="M25,25 m0.0,0.0 m8.13511811600467,20.578968796077337 l-0.01001823810573565,0.5361928038481423 -0.6693930804670941,4.109334102802522 l-1.6360072581859058,4.774078688216861 m12.006501074002895,-14.035016941657474 l1.4338364925981957,2.0666927383917266 1.137904156177944,2.6962264443840276 m-7.342594724451946,-14.409715407173143 l0.5203456718675336,0.8234419849111235 0.2269277333435968,1.4756784058921415 l0.007505467756708973,42.97675324685546 m22.314039680054368,-43.800559425722454 l0.6255563244034807,1.090955267416081 0.25944626470031906,1.3642881830116533 l0.08010274513083777,14.907862863404004 m-15.942661510110803,-9.581325327440217 l2.0588774423325584,1.7733740986900448 1.9327300681099968,2.2079163156169854 l1.6372509291989528,2.3687598228399924 0.9255721890496885,1.9143375573384762 m21.755460777717815,-10.812275253074041 l-0.25198787176419474,1.9699534941484516 -1.4559657416536156,2.795247923679518 l-2.129692003887841,2.9413727895345603 -2.483301776387995,2.814436260503389 m-17.520694784050463,5.322446991943333 l0.5911546279465997,1.0055559672559808 0.14033883672616257,0.9929243880778819 l-0.016825268727982706,27.556607362162353 m0.6956601628345523,-28.670054765101067 l17.191719936908136,-2.083980804146582 1.4185478486931251,0.1967573747884852 l0.8711722099784103,0.7752873648913248 0.45955122540432414,1.1365609351695194 l0.04203461365568656,27.678545565978755 -0.29916753281080416,1.0375601748005443 l-0.5127269369839601,0.3701170042076409 -0.6529784542685372,-0.17094118364790892 l-2.727860256915234,-2.6530002639883565 m-14.76324370397535,-19.092929406172026 l18.68567866847331,-1.5781543002889116 m-18.667049638742217,9.420979734007275 l18.688960608388424,-1.3327069499880055 " fill="none" stroke="black" stroke-width="1" /></svg>