<?xml version="1.0" encoding="utf-8" ?>
<svg baseProfile="full" height="108.08452838386734" version="1.1" width="108.26118684004157" xmlns="http://www.w3.org/2000/svg" xmlns:ev="http://www.w3.org/2001/xml-events" xmlns:xlink="http://www.w3.org/1999/xlink"><defs /><rect fill="white" height="108.08452838386734" width="108.26118684004157" x="0" y="0" /><path d="M25,25 m0.0,0.0 m16.440533278042057,8.030857297816937 l0.037465623694065316,0.39479002115884776 -0.13773477752043467,0.8803955843711558 l-0.8727623908730464,1.3772157907734202 -4.196703811008587,5.04400429986317 l-3.642941551337218,3.337718628823403 -3.53061892762878,2.2756080290892737 m15.510150812420841,-3.0226182562480854 l-0.08911866823248933,1.8926541709069657 -1.8425432834150597,2.783415208188801 l-2.652180758007604,3.364510885733231 -5.339522037301428,5.77492883553977 l-6.772356523157962,6.091163688894731 m9.04965438261141,-5.882894639286189 l0.4575944073308069,1.3766405479947645 -0.05351172249882488,24.36613829024714 m16.988998997915285,-44.30143838012058 l0.058489953379840066,1.1395786028370463 -0.36120637293097296,1.5255260735857086 l-2.442522896197913,5.621130197631997 -3.24884609465267,5.328764934376771 l-3.905053805940464,5.052910349631047 m7.829958638050317,-6.796734044362337 l1.2732992002875447,0.3549291715020134 1.712566972863283,-0.03650983383504166 l21.30706475800005,-3.4286227690665125 3.132817777511459,-0.15780017003661834 m-27.43088169542109,17.178817764737964 l1.6605438072155738,0.22252796449236903 1.4589463986206064,-0.09932726449418151 l17.926310126424344,-2.2674197540074337 3.0799522356937863,-0.16427334123344564 m-31.784182019953295,19.202981789220967 l3.0294381738063763,0.5785384122232898 18.620294935189925,-1.5897785567982021 l11.871465683067633,-0.5463250754278772 2.890558608821452,0.10132274215091955 l2.227769405172755,0.7542073405137963 m-21.24942526834939,-49.49616520804067 l0.6323490245224681,0.5310790960192981 0.5682193523180364,1.0422733484756586 l0.2196684548913041,1.760898655117194 -0.18233296148574996,45.01132686011539 " fill="none" stroke="black" stroke-width="1" /></svg>