<?xml version="1.0" encoding="utf-8" ?>
<svg baseProfile="full" height="113.39178352882415" version="1.1" width="105.19626651091649" xmlns="http://www.w3.org/2000/svg" xmlns:ev="http://www.w3.org/2001/xml-events" xmlns:xlink="http://www.w3.org/1999/xlink"><defs /><rect fill="white" height="113.39178352882415" width="105.19626651091649" x="0" y="0" /><path d="M25,25 m0.0,0.0 m32.31771544963905,3.537737616156767 l0.37612181522924737,0.44790501880147277 0.5633676280527811,1.4786071875735936 l-0.007141747757640765,5.519404003948096 m-20.60748832542859,2.034808183340663 l4.710357870463266,0.26271403291905737 18.40021294499926,-1.663009141892977 l12.799700007413746,-0.8035321362674259 3.5109384571175064,-0.07748349740427486 l3.1324824111878633,0.3975836202297152 m-31.65925723950757,2.7578916883026032 l0.6589452372126338,0.8336232008410913 0.27975986318724083,1.044441938799127 l0.0031657500808571874,6.595500869936701 0.4484827079366617,1.5420495887389625 l1.0078646775029583,0.9930391570394044 11.644860420983179,0.7482266272893773 l7.605485081368977,-0.38011643266029327 4.707142460830253,-0.7317683125099054 m-25.970100065380155,9.956861664449965 l0.19140915448611587,1.0622510326951822 -0.025012656599453526,2.4197069207344013 l-0.38600921156803,20.979744313640875 -0.6703394106605093,4.008864027891919 m2.1438340072399007,-27.09364458068745 l18.900882372480783,-2.1042584482496096 0.8047381769356367,0.05714742666066249 l1.0548825512134608,1.71613983601818 -0.35901562936274695,26.400639474626576 l-0.40909226041217506,1.1905254421758733 -0.6310782673997667,0.2601832056858242 l-0.731525512772484,-0.34796255848187496 -2.1053885332765354,-2.095815688086218 m-16.67917424484908,-17.302830490000716 l20.08277518322329,-1.80333191648258 m-20.15803530520048,9.365456494429095 l20.461573573263696,-1.6121255105142578 " fill="none" stroke="black" stroke-width="1" /></svg>