<?xml version="1.0" encoding="utf-8" ?>
<svg baseProfile="full" height="107.72495640632135" version="1.1" width="103.37145874744469" xmlns="http://www.w3.org/2000/svg" xmlns:ev="http://www.w3.org/2001/xml-events" xmlns:xlink="http://www.w3.org/1999/xlink"><defs /><rect fill="white" height="107.72495640632135" width="103.37145874744469" x="0" y="0" /><path d="M25,25 m0.0,0.0 m36.07637997039094,3.3908344441249336 l0.006064122896648033,0.40058840238232835 -0.616998187531801,1.530092700337598 l-1.8176011882371896,1.814270507555313 -3.3887319455923537,2.273603542338466 l-4.045045165952789,2.0516880223889244 -9.530191407078513,3.4781428345409835 l-10.795286136226325,3.0866838726735772 m6.644932128676621,-12.654082759927125 l8.373857044033633,0.7396194067454576 8.180702029357283,1.7848282715555663 l4.297976145795908,1.9138281152190433 3.6276813568554975,2.93534465977884 m-28.823695599278896,12.729855048714766 l1.4976244137138497,0.23713831476165964 2.3428181995814117,-0.12778797747172582 l11.855031185426897,-2.7269771404269965 1.1078683254092807,-0.12843764080310882 l0.6824047646732893,0.4325558064536821 0.18041974789277304,1.1477919283268057 l-0.6630912837023387,2.235688035133529 -4.454906725435288,5.135647287640298 l-3.4133402261576307,5.62913149349328 -3.1133114903175576,4.633839528913207 l-2.8275953825653413,3.61800326285319 -3.056028617101381,6.173293048231447 l0.5374167284634578,1.2004621528151593 3.633515928312015,1.1969940591025803 l3.585222631211664,1.0837150578683379 4.514510104071178,1.1834008482248226 l8.568054854273463,1.0500459452501394 8.620342854477581,0.27515532752637417 l8.016521993136589,-0.1741052894427927 5.556305918391249,-1.0758165666733928 l1.5043902066714114,-1.2168532968669046 0.5072414489094591,-2.474451570032743 l-0.011642590469383207,-3.471100151808998 " fill="none" stroke="black" stroke-width="1" /></svg>