<?xml version="1.0" encoding="utf-8" ?>
<svg baseProfile="full" height="100.07750578578381" version="1.1" width="90.80315866826238" xmlns="http://www.w3.org/2000/svg" xmlns:ev="http://www.w3.org/2001/xml-events" xmlns:xlink="http://www.w3.org/1999/xlink"><defs /><rect fill="white" height="100.07750578578381" width="90.80315866826238" x="0" y="0" /><path d="M25,25 m0.0,0.0 m5.829993106288731,22.453308301406327 l0.532745560531679,0.12410775995814195 4.056423912996682,0.0722126058328829 l13.761592015489278,-3.023342859396936 11.213058756248854,-4.656564821565064 m-21.79381161382859,-8.366225176869609 l0.7171433868063783,1.0082830457512428 0.38968396959061596,1.2408081874988597 l2.093303635867633,9.274033539441184 2.422510916458993,6.374463299280669 l2.9758845899503394,5.531829229150536 3.393205221621821,4.4063404404390045 l5.380577141632996,5.013189529074054 2.5313135448464767,2.119645922596788 l3.4652839825509454,2.3528883188003866 2.314818457622597,1.0623883238148684 l0.5163650063933124,0.20938832622886774 0.5442075723176661,0.046069281403380645 l0.3218917110755339,-0.22840404204310244 0.13696779380043647,-0.5036106100808441 l-0.2637913547850343,-3.377890415483432 m-12.628147835463075,-31.85583488636816 l3.465351231599894,2.5334360428170846 1.716329992890205,1.7566968202911593 m-19.77324405356128,11.405810765134687 l0.6412816917835635,1.6008990969184358 0.017802521737751396,20.01588112097968 l0.016009159564063544,1.0742688744913118 0.358120208025088,0.9447178237238222 l0.6990568094820976,0.6491991898479667 1.0014204621112506,0.43947999131041765 l2.426465851979545,0.3800327613992029 3.485855344375818,-0.1511586138421461 l6.320995625946664,-0.503246044827603 3.1147491821370155,-0.6633727800986272 l1.1752720805599537,-0.7730934845382742 0.7325699565242417,-1.526810869890347 l0.22733966291645535,-2.2576984548610968 " fill="none" stroke="black" stroke-width="1" /></svg>