<?xml version="1.0" encoding="utf-8" ?>
<svg baseProfile="full" height="109.49251395533793" version="1.1" width="106.07998346793465" xmlns="http://www.w3.org/2000/svg" xmlns:ev="http://www.w3.org/2001/xml-events" xmlns:xlink="http://www.w3.org/1999/xlink"><defs /><rect fill="white" height="109.49251395533793" width="106.07998346793465" x="0" y="0" /><path d="M25,25.00000032100605 m0.0,0.0 m26.043789386749268,-3.2100604840934466e-07 l0.018426048336550593,0.5601853132247925 -0.5049699172377586,2.0506665110588074 l-1.6705168783664703,2.777501940727234 -2.789548933506012,3.782087564468384 l-3.6033904552459717,4.074561893939972 -7.552797794342041,6.994619965553284 l-9.88523006439209,7.3854780197143555 m26.150012016296387,-25.336172580718994 l7.7348411083221436,6.508389711380005 15.27191162109375,11.52897596359253 l3.3052274584770203,2.0866401493549347 3.562229871749878,1.5729697048664093 m-36.68712139129639,-4.955331087112427 l1.2756431102752686,0.16788410022854805 11.994458436965942,-1.268322914838791 l2.2681818902492523,0.09980601258575916 m-22.55197763442993,9.29492712020874 l1.4730799198150635,0.3522910177707672 2.157081663608551,-0.012475751573219895 l8.223413825035095,-0.7828665524721146 11.268291473388672,-1.48951917886734 l1.4014671742916107,-0.0339449243620038 0.9028554707765579,0.3446779400110245 l0.374126173555851,0.6528802961111069 -0.18455328419804573,0.8908084779977798 l-0.7730156183242798,1.0581278800964355 -4.899781346321106,4.963027834892273 l-4.523312449455261,3.9189550280570984 m-22.166473865509033,10.483564138412476 l-0.24177653715014458,1.687416136264801 -1.1923180520534515,3.336014151573181 l-1.721883863210678,3.5709306597709656 -1.4289076626300812,2.2133010625839233 m12.496750354766846,-13.235633373260498 l3.279794752597809,4.7197458148002625 3.8108667731285095,3.7844303250312805 l4.4801440834999084,2.84208744764328 4.159560203552246,1.5908728539943695 l4.7465163469314575,0.9804916381835938 3.986886739730835,0.3324636444449425 l5.943185091018677,-0.0963446032255888 3.9594462513923645,-0.47301195561885834 l1.0608050227165222,-0.374126173555851 0.4808759316802025,-0.4952654242515564 l-0.07428980898112059,-0.6388254463672638 -0.6046922877430916,-0.80514095723629 l-2.703881561756134,-2.1965691447257996 m-20.517373085021973,-11.736451387405396 l1.5326456725597382,2.5887659192085266 1.3211539387702942,1.1806056648492813 l1.0487580299377441,-0.08767536841332912 0.7157924026250839,-1.2150734663009644 m15.805659294128418,-5.070447325706482 l2.8752166032791138,2.9081785678863525 2.464112788438797,4.239873290061951 " fill="none" stroke="black" stroke-width="1" /></svg>