<?xml version="1.0" encoding="utf-8" ?>
<svg baseProfile="full" height="110.86460563967188" version="1.1" width="102.92696031938985" xmlns="http://www.w3.org/2000/svg" xmlns:ev="http://www.w3.org/2001/xml-events" xmlns:xlink="http://www.w3.org/1999/xlink"><defs /><rect fill="white" height="110.86460563967188" width="102.92696031938985" x="0" y="0" /><path d="M25,25 m0.0,0.0 m14.973121918046942,13.563572414367492 l0.46828726240472285,0.12058594396196737 2.6516091958853116,0.11377569477994463 l16.523227322270174,-2.2068646752336085 3.0062128927518486,-0.20084337942797947 l1.8756218356293735,0.20219528654973926 m-13.728211326266004,-8.019050480870886 l0.7471519512887881,1.0543873168285478 0.253187472119448,1.3899269796286744 l0.035398565406513295,16.066274328356016 m-24.074964525917746,2.164333585179795 l2.302953915520322,0.3595827346091507 2.274725572847825,-0.017265633318138674 l21.254404083222305,-3.2186156710009026 12.803401926441122,-1.3948750890431911 l7.934207793360294,-0.38935059185806226 3.626624464378607,0.44421929873369836 m-34.704888672378644,4.3342365126948605 l1.252675224011428,1.1160652625434262 1.7132646693914169,2.2747575503458637 l1.2169655473302021,2.088226041298271 0.6306984865019173,1.695271656136213 m16.101968536332294,-9.387350697133979 l-0.09437209963000594,1.5153525328960717 -0.8094180257193135,2.5365898521170283 l-2.271261310916226,2.6016814820119314 -2.2820342860688316,2.0653017317710565 m-21.017484026791603,4.072814408953216 l3.1017865184376108,0.27103765320671896 22.26438717348984,-2.2774736580474877 l5.7444378817814465,-0.21519861081754868 3.0284686729377386,0.286985910328347 m-30.993876665563064,12.173896178186878 l3.1823951672442163,0.36837556741517413 18.77579180928962,-1.8938588521491544 l4.600307826456427,-0.23628572092211503 2.7686716263074818,0.26769115236932967 m-15.254796438670256,-8.983066813851961 l0.5813173527635362,0.9867271235026306 0.22254315915103284,1.6213200947733397 l-0.11992423704555728,23.549521219801512 " fill="none" stroke="black" stroke-width="1" /></svg>