<?xml version="1.0" encoding="utf-8" ?>
<svg baseProfile="full" height="103.4458953329558" version="1.1" width="107.27524467671378" xmlns="http://www.w3.org/2000/svg" xmlns:ev="http://www.w3.org/2001/xml-events" xmlns:xlink="http://www.w3.org/1999/xlink"><defs /><rect fill="white" height="103.4458953329558" width="107.27524467671378" x="0" y="0" /><path d="M25,25 m0.0,0.0 m8.532614471987214,19.82088524905765 l-0.010338496933690256,0.5749045684411798 -0.7040366589113751,4.526797561421816 l-1.485742527887927,4.9220810291199175 m11.607765896507216,-12.22831400809974 l2.7395141166561334,2.6470308782104577 1.2312838818232903,1.776779144548642 l0.6015780020127856,1.3604659752317878 m-8.729731197991635,-19.240570535430308 l0.5824008097565766,0.8546343642255169 0.3508638678186491,1.6301976425423896 l-0.13528389507975033,46.80100346368649 m12.207313978750937,-38.420564707413995 l1.261569559764305,0.3494065785323131 1.671576297842347,0.012652800969260063 l17.07364750779512,-2.9473357703181344 0.9237382232781871,0.27943394545161937 l0.5862781596058871,0.4267867555307856 0.3257618410586712,1.1062998680388927 l-1.8985036814561802,11.074178157107212 m-25.70075368237584,2.7370825825300553 l1.6611398042491698,0.40467004946689633 1.8291929477640436,-0.019791547651207535 l12.614322895363692,-1.7627130336532288 15.942231818140757,-1.3707189874522059 l3.4008866415560988,0.2891300216880791 m-19.977394828954377,-22.820951796289627 l0.4907836936987452,0.8463440889419197 0.25159514905700425,1.8838872209792583 l0.16217733787312694,6.547534544928523 -0.15982385052830292,7.799072325400248 l-0.9193425798102117,8.892879522057058 -1.625347371509186,6.856167043142105 l-1.7185908877241323,4.060138653634802 -2.829574899508085,4.27654232152892 l-3.6746410222598063,3.635716228509388 -6.07898272495525,4.315025450655693 m16.975212674145506,-23.12269137373547 l8.617503492071767,10.763763625155756 4.493606083801445,5.167056865859131 l3.4607588945448713,3.271679194494866 3.3280149356759874,2.1526555259565052 " fill="none" stroke="black" stroke-width="1" /></svg>