<?xml version="1.0" encoding="utf-8" ?>
<svg baseProfile="full" height="109.49251173064113" version="1.1" width="108.94089669222012" xmlns="http://www.w3.org/2000/svg" xmlns:ev="http://www.w3.org/2001/xml-events" xmlns:xlink="http://www.w3.org/1999/xlink"><defs /><rect fill="white" height="109.49251173064113" width="108.94089669222012" x="0" y="0" /><path d="M25,25 m0.0,0.0 m11.404802799224854,2.976333498954773 l0.67522332072258,0.18553270027041435 2.0025236904621124,0.3047003969550133 l2.673768699169159,-0.1259036548435688 20.64223289489746,-3.317527174949646 l1.671060174703598,-0.023135077208280563 1.161658987402916,0.919526144862175 l0.18254898488521576,0.7609372586011887 -2.4860206246376038,9.331698417663574 m-25.461020469665527,3.3764782547950745 l2.7699708938598633,0.09628408588469028 20.654890537261963,-2.329692393541336 l3.2697880268096924,-0.14400936663150787 m-25.923945903778076,2.85134494304657 l0.5614353716373444,1.5706989169120789 0.01479706959798932,7.346805930137634 l0.3883799910545349,2.889680862426758 0.7059646397829056,1.5833571553230286 l0.7330892235040665,0.8137399703264236 2.253517210483551,1.1338110268115997 l3.534162938594818,0.603795014321804 5.0929272174835205,0.22802801802754402 l8.41370940208435,-0.045303842052817345 5.945726633071899,-0.46125493943691254 l2.2224141657352448,-0.5318243056535721 1.7544233798980713,-1.0634677112102509 l0.7506299018859863,-1.5285652875900269 0.15866799280047417,-2.0585812628269196 m-39.23311471939087,20.14892339706421 l-0.2922004461288452,1.9536992907524109 -1.3864320516586304,3.8553187251091003 l-1.544659286737442,3.2520663738250732 -1.5916752815246582,2.545740306377411 m11.07554316520691,-17.544957399368286 l3.6506181955337524,6.561998724937439 3.503783345222473,4.295823574066162 l2.9844364523887634,2.670513689517975 2.164909839630127,1.5193429589271545 l4.762367606163025,2.418796867132187 3.9630943536758423,1.2748591601848602 l5.8242082595825195,0.9867953509092331 4.786960780620575,0.2101031318306923 l5.21082878112793,-0.32300952821969986 2.3247647285461426,-0.8925823122262955 l0.5273034796118736,-0.635802149772644 0.11518941260874271,-0.7323659956455231 l-0.9710629284381866,-1.6658161580562592 -2.5149989128112793,-1.7858879268169403 m-19.072617292404175,-12.406460046768188 l1.3074089586734772,2.205415964126587 1.6404996812343597,1.8748567998409271 l0.7330892235040665,0.21048739552497864 0.561661422252655,-0.5956576392054558 l0.3056045435369015,-1.6433930397033691 m13.413327932357788,-5.569598078727722 l2.398543655872345,1.3978242874145508 2.845558226108551,2.281726747751236 l3.0853402614593506,3.1913071870803833 2.5952881574630737,3.2762977480888367 " fill="none" stroke="black" stroke-width="1" /></svg>