<?xml version="1.0" encoding="utf-8" ?>
<svg baseProfile="full" height="111.63862199713142" version="1.1" width="113.90992411873764" xmlns="http://www.w3.org/2000/svg" xmlns:ev="http://www.w3.org/2001/xml-events" xmlns:xlink="http://www.w3.org/1999/xlink"><defs /><rect fill="white" height="111.63862199713142" width="113.90992411873764" x="0" y="0" /><path d="M25,25 m0.0,0.0 m18.19625312924477,6.903177396167554 l0.018555073737353968,0.4712667002311672 -0.34434613326746066,1.4209108593810067 l-1.0347039774740963,1.7055382933005339 -4.29401680655216,4.709152046011312 l-4.341004146862773,3.647991459707836 -5.0300688473270005,2.7373894139666564 m18.19394034686127,-0.7944128947614179 l-0.09363034174294055,1.2951356339555755 -0.5110311520797789,1.0262023960854019 l-5.232481895878103,5.8722278224524045 -6.371135049555054,5.742134956305622 l-6.964981629846285,5.637879303217255 m11.614497793372541,-7.017179167473145 l0.8823648730561878,1.40197431588758 0.10582099733793109,1.2673976192908243 l-0.0674686379447282,25.38461614535406 m16.765433211230356,-50.135338889728274 l0.7435967755407892,1.3836503330629868 0.13942036027395627,2.180926366866356 l-0.40738048085991657,7.57055346943704 -0.7703908106494813,5.298469102935841 l-1.1261912572186317,4.065420280135214 -1.4611856208472391,3.3182922890171453 l-1.9201818551055505,2.81622891713922 -2.4324526050195927,2.3885587920884954 m8.942401596172008,-22.68106795495821 l14.837786326160524,-2.7192891653137927 0.9683826696078041,0.4967609731655508 l-0.7917316301664657,1.300404513269119 -2.1925179601670974,2.9335653332302396 l-2.3581824054978067,4.023598854777748 -2.3898517275601017,3.599223633411892 l-2.398935377418332,3.2279012343871196 -5.629704905997974,3.1050068839933584 l-4.252122972820955,1.5101499355517929 m3.805704076359607,-13.652488441514437 l4.5742127858257255,1.9016703838667788 16.966818544350758,10.111291233501506 l5.838042492947292,2.029652359431394 3.732391294518281,0.7891892058262818 m-34.637196563515516,7.776230662375561 l3.239823736262901,0.22740513646115113 18.83923211289052,-1.8150021480531744 l3.412687485807962,0.23449398633250143 1.952794724061872,0.3141474611958135 m-15.118328267238843,-7.652149392133507 l0.9236552617206392,0.9638093868030515 0.2897147788923303,1.0398204155451023 l-0.031146893861393344,22.503912116038304 m-18.692496426364364,1.425235433690937 l4.441762694344898,0.3469869962150804 28.0413399946264,-2.021319831659425 l3.156157724553239,0.34234868861467577 2.4386792161359914,0.50008743393898 " fill="none" stroke="black" stroke-width="1" /></svg>