<?xml version="1.0" encoding="utf-8" ?>
<svg baseProfile="full" height="98.31239212440788" version="1.1" width="97.18662701143671" xmlns="http://www.w3.org/2000/svg" xmlns:ev="http://www.w3.org/2001/xml-events" xmlns:xlink="http://www.w3.org/1999/xlink"><defs /><rect fill="white" height="98.31239212440788" width="97.18662701143671" x="0" y="0" /><path d="M25,25 m0.0,0.0 m26.18308231761351,13.591532929175873 l0.055923989246792254,0.34953798180514145 -0.2675808686064786,1.31265197582079 l-1.1679153847671104,2.011404724512164 -1.7897788964454147,2.4149333932024186 l-2.3674072807288096,2.636132012792015 -5.389502601490521,4.566290588888127 l-3.4184371147165487,2.313865606836069 -2.841133435079727,1.6097019382494642 m17.816051386370244,-15.71856562339617 l5.861142309989011,4.28789513976957 9.873443396956919,6.414753339072067 l2.135283557734554,1.1449967957534455 2.5034556353602975,0.6277767305609278 m-25.951472051414555,-3.0404990320687935 l1.8105808359474895,0.06414177615027158 8.217981574607434,-1.0995952317206712 l2.3388669579968764,0.017410998222818417 m-18.18981257962731,6.319689483161591 l2.6144524882463442,0.20182352285073307 16.43984785534281,-1.7379416209189886 l1.3491261933232757,0.06596637606772081 0.40491388487950225,0.2630286716448559 l0.12681139034404612,0.49222853564756003 -0.2179956016976385,0.733418036279154 l-3.149785568168879,6.69380809247184 -2.29520614258506,3.280647583547811 l-0.8165828355743121,-0.02056864951827761 -1.2411403625746538,-0.8345629026314871 m-9.029547224588391,-9.572083702209149 l0.627512172687704,0.644468981704739 0.30718475935073664,0.8784951187003371 l-0.10486006709698577,17.39960855398391 " fill="none" stroke="black" stroke-width="1" /></svg>