<?xml version="1.0" encoding="utf-8" ?>
<svg baseProfile="full" height="97.03045824319466" version="1.1" width="109.88831813416536" xmlns="http://www.w3.org/2000/svg" xmlns:ev="http://www.w3.org/2001/xml-events" xmlns:xlink="http://www.w3.org/1999/xlink"><defs /><rect fill="white" height="97.03045824319466" width="109.88831813416536" x="0" y="0" /><path d="M34.215509060603715,25 m0.0,0.0 m12.337410229691246,5.646854254324484 l0.5901901755706455,0.16478182527214275 1.838168083490598,0.19781510040281197 l2.746341715246819,-0.1584494255480881 25.06291204136346,-2.5719376918584547 l1.2490289286036156,0.013889137723872708 1.2963645425463761,0.5926237251303151 l0.612180850758474,1.0180156055560765 0.03739065116017981,0.6495190231074922 l-1.7296160084518208,2.2533223014923474 -3.8356192586814966,5.763007892030044 l-3.699427181313212,4.740974792257527 -1.466311962642503,1.4880442741564899 l-0.8918348338278842,0.9457291249613586 -2.1311003113485394,0.9835636311102742 l-1.2768336110404999,-0.6130549656378649 -1.5064981998810252,-1.664352847299652 m-2.1292650629421304,-14.453200107171817 l-0.3082528157456014,1.6866637660440453 -1.4591447209135506,2.4766551559089525 l-2.114338062539222,2.7359909091176737 -2.823685644136474,2.8174896828901432 l-2.7177671340874134,2.1854068402939633 -3.1465101002945053,2.108430730213889 l-3.672503518370021,1.9891265335907922 -3.2521462109009667,1.417995579973015 m6.189118485168025,4.656461648459691 l0.6309719364184783,0.9748177116442556 0.416419632930716,1.1963537148093684 l1.8441622043429229,12.077698321508393 m-1.515823597625863,-13.249658711472966 l21.62635342540187,-2.0233813472659734 1.494309625170956,-0.10392247179776465 l1.4259307851494811,0.25623378699270133 0.8535893556454169,0.7600397697852596 l0.1061231711861881,0.609566840353064 -3.337598315228617,10.425549762965032 m-20.25192796019441,1.3851655207854343 l21.796824643507357,-1.1299431107894111 m-44.907638554784185,-32.939780574482214 l2.571278180363557,1.115028678447554 2.4658544630694355,1.484162522245358 l1.9680859476491621,1.5136856597070676 0.7907487658467441,0.9665637313027942 m-10.9914238359355,12.11983506711037 l1.6663259453264114,0.3104447190442659 1.2505818317005593,-0.10423150471769847 l8.619665089080968,-2.372858297710653 0.7364956543360615,0.28776725273025283 l0.26580751050404466,0.5256576599810936 -0.23083822600480491,0.6816563777606285 l-3.857604827891127,4.627592261511182 -0.4377142917662377,1.1215816523685886 l0.3759724438072648,0.8142360947681939 4.1017301932976755,2.897309682073753 l0.38765506170173936,0.45039616791906995 0.061135908874533774,1.0855825035174473 l-0.8927750325507186,1.152270864747449 -7.524632436370295,4.9775831229723195 m-2.9203134734467477,1.1813565437698377 l5.402457766293236,-0.5239529081753026 3.8466114019419866,0.07605379699971994 l34.23000671140791,6.644544390160978 8.077361090377233,0.6880864951236922 l6.730389813545663,-0.43956016079193666 " fill="none" stroke="black" stroke-width="1" /></svg>