<?xml version="1.0" encoding="utf-8" ?>
<svg baseProfile="full" height="108.70461409146144" version="1.1" width="105.21386864371522" xmlns="http://www.w3.org/2000/svg" xmlns:ev="http://www.w3.org/2001/xml-events" xmlns:xlink="http://www.w3.org/1999/xlink"><defs /><rect fill="white" height="108.70461409146144" width="105.21386864371522" x="0" y="0" /><path d="M25,25 m0.0,0.0 m16.65004480804237,6.6625401115317 l0.021029290604723198,0.4180914619110082 -0.13604755713884661,0.8670978163088007 l-0.9246998943498713,1.3918004317935722 -4.2656933516760915,5.192282615059336 l-3.6749829916263534,3.4659801839342164 -3.4755648446080754,2.362705308283132 m15.271935672604663,-3.101043248465513 l-0.09815527307454999,1.9369372923408845 -1.8306569054423942,2.880384309986076 l-2.601367877492957,3.465604624141768 -5.253218003189525,5.9883757192656235 l-6.595614693547811,6.243639530279422 m8.83331077761423,-5.976637590591607 l0.46398942767762325,1.408378332575992 -0.04683282972436109,25.498477193107025 m16.824054219100475,-47.22761729625129 l0.06887794413588018,1.2196139963251273 -0.357563971814359,1.5892991171187822 l-2.460912874215204,5.951914278917029 -3.323128062082997,5.717957307144405 l-3.988013961930954,5.373094908057366 m7.791725550316913,-7.301177459139981 l1.2908060318975174,0.38160448664057167 1.6903809923795876,-0.03249460976200234 l21.17246479378495,-3.625379548882688 3.027120603444929,-0.1658867489513573 m-17.022287544865886,17.87753321008286 l5.045529464012133,0.6679905516623325 4.267128258126561,-1.3649106494586094 l1.8081926930376957,-4.8688228379262615 m-21.53564266246469,-10.90604700608749 l1.6004724713446843,2.5151227713899913 1.5110640986940929,3.1320434354179896 l1.426464466569252,4.594745145764987 m17.296709950465043,-13.300125501532225 l0.13275486215691093,1.3352779531283578 -0.42011093983291425,1.2050531187247462 l-5.059954742812829,11.587104510732443 m-21.733982951990118,4.698174408939476 l2.978264138962848,0.27538151393594085 13.503908122926424,-1.5538579485240462 l11.3247726231954,-0.9735123753667093 3.5773513938627457,-0.17064376013273239 l2.4399479226383547,0.2834801184509651 m-17.924437037977484,-29.300421536134085 l0.5069869575678073,0.8550980910640618 0.2629099630206537,1.6450315857229272 l-0.01792871365988049,42.89139807652124 " fill="none" stroke="black" stroke-width="1" /></svg>