<?xml version="1.0" encoding="utf-8" ?>
<svg baseProfile="full" height="95.72342208353443" version="1.1" width="107.09552719825304" xmlns="http://www.w3.org/2000/svg" xmlns:ev="http://www.w3.org/2001/xml-events" xmlns:xlink="http://www.w3.org/1999/xlink"><defs /><rect fill="white" height="95.72342208353443" width="107.09552719825304" x="0" y="0" /><path d="M25,25 m0.0,0.0 m29.41722579667686,14.502953437513076 l0.006063970513435191,0.38209990003984245 -0.220057161107011,2.400504008200353 l-1.7916263436267565,5.656598528562049 -2.374463225457384,5.225934064877881 l-2.875991557477031,4.349381498151663 -3.1873315638152264,3.631667278142089 l-3.8798058503454325,3.3592055614996905 -3.4648230972992677,2.240946988602106 m3.892318437639553,-19.353492151419623 l2.379975636883153,2.065223672306434 3.2837148437225374,3.4446456367762854 l2.4127692144268056,3.2499232613915643 1.5942003424424405,2.9186020467862215 m4.652096365989018,-14.406290089910856 l1.4429249626204173,0.8150955403082588 1.870764453951638,1.504606632981473 l1.4719917042998345,1.5197948702613633 0.9110479064806087,1.3443867953528903 m-8.70526591612263,6.263320396192549 l2.1882089555781095,1.5535952109949407 1.6789250960484665,1.7626964078365264 l1.0103535992169308,1.256475573014641 0.5077640225361452,1.2680936554698976 m6.612288564649018,-9.018892569883832 l1.261872666325406,1.028277209028881 1.4400753298468252,1.6195775500101643 l1.3027778715382372,2.920028012045106 m-24.973870913771464,-18.192499885159297 l0.40695958666457765,0.7331792426996168 0.2415060873239123,1.2426793832624672 l-0.6121139899261532,22.16478735435125 0.22960326159736844,1.013698131671999 l0.4253471751596626,0.47836942680525163 0.6768791280533526,0.19558099047005284 l0.4875002782380357,-1.8420023100919354 5.884214081307553,-2.6106431702164135 m20.656643522420566,-15.720405432203162 l1.986751920142819,0.607713712154872 2.08674023316316,-0.9697521911894231 l4.378038949026905,-4.58568583457932 1.191041335405604,-0.5224243301964224 l0.46340039918439585,-0.0027406881366879784 0.6270007313204642,0.6569948029514194 l0.10189038680756941,0.5935797046374505 -0.34157383742604286,4.062332963741995 l-1.0842271611954215,7.242588104718824 -0.9921628947162783,4.2194466538558295 l-1.1648393870663687,3.6343135725199813 -0.8563109543352632,1.0010897756540895 l-0.5294581265402428,0.06574195865441754 -0.5404081673130658,-0.20806385677792652 l-0.5523848271701777,-0.7860815863768845 -0.8550691866676275,-1.2967561727793386 m-7.785744321103485,-18.534033936151683 l0.4428869391943258,0.87095513385143 0.19472589720837133,1.4481393001775238 l-0.05561779194626767,27.25836234008281 " fill="none" stroke="black" stroke-width="1" /></svg>