<?xml version="1.0" encoding="utf-8" ?>
<svg baseProfile="full" height="94.05054962270654" version="1.1" width="94.90468665312395" xmlns="http://www.w3.org/2000/svg" xmlns:ev="http://www.w3.org/2001/xml-events" xmlns:xlink="http://www.w3.org/1999/xlink"><defs /><rect fill="white" height="94.05054962270654" width="94.90468665312395" x="0" y="0" /><path d="M25,25 m0.0,0.0 m13.800638886843592,12.42177390132376 l0.44657561479953106,0.1521782842611607 1.5145168646691891,0.18911819483505957 l2.1818989376799345,-2.499852242651764 7.098975143544034,-5.803731940182118 l2.0663978628101733,-0.2819939756808268 0.5321141992013854,0.44045505104973964 l0.11519554071006301,0.7252635719012099 -12.726323377633133,18.888759689275556 l-4.097403743477941,7.152354795383624 7.495400306840703,-3.3138005104138566 l4.30781929966243,-1.3808846139752995 10.12401139029022,-1.0921359268886692 l7.181584819130886,0.7050963311284458 1.4553524909295856,0.6693196975867725 l1.2441729316806787,1.0152373459324278 0.9148598179073704,1.3188871311725632 l0.7151228109905645,1.554078791120363 0.42413267686580364,1.702392376525717 l0.10964417967889019,1.7731084706634077 -0.3125271267271045,1.770047754082284 l-0.8790068297727416,1.6070313875774636 -1.3912364380412467,1.386227144249263 l-3.024361553025954,2.050244587975329 -3.881013794546,1.7961229591538013 l-4.5111133958419884,1.0612654632216616 -4.7145506665128325,0.04398590407946699 l-3.5364264379150865,-1.0098249974691003 -1.5498505720781774,-1.5365050732343521 l-0.35327980960189026,-1.5000400238805152 0.3631702713680531,-1.7310960456436535 l2.462628538943593,-0.9276203012958854 1.9015162172561524,-0.010610115827265993 l1.9780979493810376,0.3802386251957299 3.4622581598459834,0.7597721602248664 l3.444267654460532,1.160530658409089 2.5450055385584403,1.552733780670551 l2.0801416791392455,1.9076982220852718 " fill="none" stroke="black" stroke-width="1" /></svg>