<?xml version="1.0" encoding="utf-8" ?>
<svg baseProfile="full" height="112.81864562297409" version="1.1" width="106.95824810572825" xmlns="http://www.w3.org/2000/svg" xmlns:ev="http://www.w3.org/2001/xml-events" xmlns:xlink="http://www.w3.org/1999/xlink"><defs /><rect fill="white" height="112.81864562297409" width="106.95824810572825" x="0" y="0" /><path d="M25,25 m0.0,0.0 m12.82406017544386,19.306718903617764 l0.3393146646237863,0.3507458033962241 0.3658567354444471,0.9686155239714791 l0.08621150425596288,14.326421928588923 -0.40527252834990596,6.372652662713727 m0.7265813252413842,-21.31498975312094 l12.132663873868253,-2.014127021840687 1.0665102547547258,-0.06498128839187628 l1.0089151699914922,0.4629074711226084 0.38753335738656247,0.939694560725969 l-0.24628064044398382,22.00359619132905 m-13.891508705228539,-16.70349814854197 l9.373857904456326,-1.4313835448917784 m-9.174084883536622,8.36802323825861 l8.913364788874263,-1.2083679389309727 m-8.653074201131448,8.866315597814074 l12.484817709326112,-1.6900524836310429 2.3850010978553926,0.14533950049173125 m-10.336523882191672,3.7272747291229495 l0.14912631600692927,1.1282002484427194 -0.7001819707680998,1.3056491140161266 l-2.7659152134075136,3.5434733941896055 -3.0856089748034745,3.5559063056722584 m13.040343260612303,-8.61386969321094 l2.6375893343694945,3.1244402437204237 2.061086120923643,3.3923605249910294 m5.279958539230023,-37.62655567907065 l1.5904047592276251,0.9702306423324297 1.757264581722507,1.5806699964606001 l1.4174613414589603,1.7263153855288589 0.5558206997910178,1.0926358414289155 m6.131938482907422,5.428102619025973 l-0.011386162170782468,1.12332395600662 -0.35080546558658837,1.320366693738561 l-2.802001507804235,2.696629417934268 -3.2948551678026883,2.539314497275474 l-3.8090588576732207,2.2809770525942032 m19.769124268854515,0.1101238983282814 l-0.07508233304422618,0.9568240405589513 -0.8345285164858591,1.100225786729096 l-2.3952829935068434,2.006134168536447 -3.208351837635185,2.158970311819741 l-4.09622507862881,2.121265439352946 -7.3131250512044526,1.9046712762703324 l-6.115103718546388,1.343200581965565 m-1.3602140764476884,4.05078626194671 l2.370835020807095,0.6746329658746198 2.5554493523711788,1.4583949488805181 l2.8191350433142564,1.6858210763458525 2.72104976275624,1.6029833001957285 m5.039008279449207,-8.68928980944734 l0.2619909833724722,1.3383707125686488 -1.0274377929336203,2.150368478460509 l-4.039443186632629,3.8021266766299555 -4.477100478783829,3.197335105319623 l-6.4354262124003325,3.527215817948897 m18.799730762002188,-6.368947613396065 l0.11983851613487455,1.0032771069378033 -0.7096547366322442,1.2143354536981452 l-2.0263279775255527,2.0849997799852407 -2.8859531175322255,2.1646901384491506 l-3.914495457052663,2.209984173908132 -4.61983008751459,2.0310690522262855 " fill="none" stroke="black" stroke-width="1" /></svg>