<?xml version="1.0" encoding="utf-8" ?>
<svg baseProfile="full" height="98.20804406888783" version="1.1" width="109.49251273646951" xmlns="http://www.w3.org/2000/svg" xmlns:ev="http://www.w3.org/2001/xml-events" xmlns:xlink="http://www.w3.org/1999/xlink"><defs /><rect fill="white" height="98.20804406888783" width="109.49251273646951" x="0" y="0" /><path d="M25.000000418513082,25 m0.0,0.0 m2.6919612288475037,27.255091667175293 l-0.005424664705060422,0.585348941385746 -0.8452290296554565,8.71013343334198 l-0.8955488353967667,4.33859258890152 -0.945759117603302,2.8766220808029175 m13.010870218276978,-19.02279019355774 l1.3781988620758057,3.1699976325035095 2.38836407661438,4.3778494000434875 l2.7704179286956787,3.9039620757102966 2.058185040950775,2.326674461364746 l3.3999311923980713,3.0571341514587402 2.4745891988277435,1.7385214567184448 l5.443394780158997,2.7223986387252808 4.513145685195923,1.351560354232788 l4.874870479106903,0.7315109670162201 5.235193371772766,0.08543641306459904 l5.184719562530518,-0.5811428651213646 2.0007017254829407,-0.8661061525344849 l0.8117774128913879,-1.2569229304790497 -0.2218444086611271,-1.5835967659950256 l-1.9320021569728851,-2.8461280465126038 m-26.739583015441895,-33.020691871643066 l2.066947966814041,4.032949209213257 1.9060645997524261,2.3862609267234802 l1.1500179022550583,0.6084825471043587 0.4808974638581276,-0.12600774876773357 l0.6771821528673172,-1.338941901922226 m19.02279019355774,-2.691904306411743 l2.324221134185791,1.9132499396800995 1.746232658624649,1.9674035906791687 l2.0129695534706116,3.1016483902931213 1.4542591571807861,3.0672988295555115 " fill="none" stroke="black" stroke-width="1" /></svg>