<?xml version="1.0" encoding="utf-8" ?>
<svg baseProfile="full" height="105.41133013607683" version="1.1" width="94.28182773039848" xmlns="http://www.w3.org/2000/svg" xmlns:ev="http://www.w3.org/2001/xml-events" xmlns:xlink="http://www.w3.org/1999/xlink"><defs /><rect fill="white" height="105.41133013607683" width="94.28182773039848" x="0" y="0" /><path d="M25,25 m0.0,0.0 m7.833146094261119,20.963282084832564 l0.4000641686950793,0.12546820533545458 2.324300819791241,0.009051225574340094 l12.036347683909069,-2.0017740536053426 1.886898092677027,-0.021943357480124763 m-8.470579864230997,-11.442626381266248 l0.5434731323541789,0.9436240037871033 0.22471203909313903,1.8336496424698085 l-0.01558301734682564,44.2127592965314 m-0.57403008410754,-33.34346749699359 l-0.22962083721157045,3.009702514819083 -2.245767262552286,7.450008928512834 l-2.1587435785948563,5.914461480350726 -2.806615391274898,6.279863012274645 m9.609807066830962,-17.75690820380228 l2.3539344617788696,2.7630835909623266 2.138535640375573,3.3235049088167283 m3.251741822572081,-17.225226223663174 l0.9637558046896647,0.8692982389349672 1.4824540089458627,0.20807403900818533 l12.156769397305391,-2.730262918395555 1.1893214069749674,0.012509385256484875 l0.6697199831680443,0.5894596734486628 0.22605207019732057,1.2794996800553742 l-0.1156702551384778,0.7943997059165747 -1.5402791142008458,12.690347684478121 m-13.282959633389156,2.3252671220767365 l14.557985853314559,-1.8840758149433656 m-14.680812020943087,0.8632093480630302 l0.46534321715071436,1.5473920827839116 -0.0017178321845308852,1.3271907376330343 l-0.6153494483307034,14.621950339530576 0.03848442815320199,3.945707982200457 l0.3316580459518615,1.5564106972629037 0.6023603489321454,1.1766397588927773 l1.2972467881086207,0.7470562031238062 2.5602445364915263,0.3861501932046655 l6.112713371503595,0.04859282008920893 3.2326967201964854,-0.42603794368432796 l1.0880156911488337,-0.4745945333406725 0.9340252719374444,-1.26083733664907 l0.3728233290075775,-1.5270657954979572 0.1349247743880882,-2.700735548474077 " fill="none" stroke="black" stroke-width="1" /></svg>