<?xml version="1.0" encoding="utf-8" ?>
<svg baseProfile="full" height="105.32133425554127" version="1.1" width="101.86791167155968" xmlns="http://www.w3.org/2000/svg" xmlns:ev="http://www.w3.org/2001/xml-events" xmlns:xlink="http://www.w3.org/1999/xlink"><defs /><rect fill="white" height="105.32133425554127" width="101.86791167155968" x="0" y="0" /><path d="M25,25 m0.0,0.0 m31.162279643113536,6.228820116338423 l0.37387126876000965,0.3771270372106285 0.5691819119791304,1.58340732362953 l-0.040126837646430095,12.072637561619723 m0.8510614993782959,-6.8495277172411715 l10.402744769874625,-1.5923827728043907 2.339047323605866,0.013651331551235999 m-26.281035032596673,0.3673012176268316 l0.6535597951812546,0.8345506321372949 0.3079317694618863,0.8679048598121112 l0.1635848664958251,8.921795898663854 m-9.329520126534506,0.6469427320152027 l1.9884961887862358,0.3451266943207752 2.676427697461093,-0.04419203551028932 l29.916615834697247,-3.1756863700880915 3.1733200531447396,-0.0786289969128776 l2.9404710463975356,0.35931609790585795 m-19.776722750142557,3.325927218638332 l0.594333473370611,0.9919861720563434 0.15400424941777424,1.1367507449195087 l-0.11355922874142114,11.891235738922742 -0.26125349064348397,0.7334386387838326 l-0.3865659042810422,0.2926746143245145 -0.4970739902205876,-0.037056126842637975 l-1.251089753223662,-0.8805677721043295 -1.3167975775571774,-1.3760840282136901 m-6.226905751263294,-8.294196735168677 l-0.06241764765135526,0.974101210774463 -0.33610395876482346,0.6590674741664945 l-1.9878471554403194,2.6363355539651816 -3.0802660815963603,3.150785342086585 l-3.49549894089152,2.870238716717198 m29.18571456194024,-12.829185357368017 l2.3166947919704195,1.194238825626573 2.43734258618909,1.6906686303597396 l2.009149015355284,1.8585099831701641 1.3040652991825255,1.6725468862838782 m-8.130177957925607,-0.8717254512079945 l-0.03026992610985553,0.964173917964925 -0.37141621685790727,1.128743174340725 l-2.3058753527510145,3.537647158789665 -3.424666280968186,3.8328236852019364 l-3.5074888568705855,3.2414883523127727 -4.042201996656886,3.196535662924394 l-4.427055980889186,2.9708960352381846 -4.7041214714141155,2.6321571849288175 l-4.8826899550792895,2.1490151936749946 " fill="none" stroke="black" stroke-width="1" /></svg>