<?xml version="1.0" encoding="utf-8" ?>
<svg baseProfile="full" height="112.80169653549947" version="1.1" width="104.95861746158016" xmlns="http://www.w3.org/2000/svg" xmlns:ev="http://www.w3.org/2001/xml-events" xmlns:xlink="http://www.w3.org/1999/xlink"><defs /><rect fill="white" height="112.80169653549947" width="104.95861746158016" x="0" y="0" /><path d="M25,29.32285666604725 m0.0,0.0 m12.786612656858873,2.624218058808867 l0.3761567517207587,0.5637144716804982 0.4390173464049625,1.9948179703914661 l-0.06802604373114811,7.498866960156445 m-12.43032632955433,2.179874110857866 l3.185130090339321,0.19337860479785876 16.052213139094455,-2.513917779599775 l3.4022667740936994,-0.1797349970822453 m-18.063147011555287,7.19661142813391 l2.50140428168417,6.0953141734076 0.9365687962557062,4.334747069534695 l0.4480734455556429,3.907188370200184 m9.916543387499829,-19.712338247309145 l0.26770536909147474,0.9162001842414326 -0.4173356759910966,2.128256810065804 l-4.135471917588262,14.875214853019102 m-12.39861577118015,5.173170258503374 l1.020262886826762,0.40216590379302114 1.1067489594483753,-0.186756054478751 l16.958321238258222,-8.38334075198947 m16.207309038194314,-33.430508063179985 l0.6984429041591735,1.4386493651048942 0.1729602501201045,1.2845444795762588 l-0.16217170635604275,25.531748888652157 -0.24544348535094193,1.8626296782413911 l-0.4844862947640375,0.8057765751690338 -0.6787717867552274,0.09816877678053869 l-0.7741742231856824,-1.053280315329267 -1.389150969713518,-2.152210178403292 m-3.650073766579848,-14.990236319741499 l-0.32361487561435853,2.199999632970965 -1.9446301086158924,3.64031636219665 l-2.785967395760891,3.856846457636492 -2.9763154645139314,3.240673699855049 m23.243975943417237,-13.71085466141109 l2.293288441992803,1.7649246649728112 2.7222514783955454,2.851749281183627 l2.1017186885432717,2.9131079171890395 1.049368420436107,2.40277513444733 m-6.161987218945379,0.9393732881151277 l-0.2897595392641448,2.844641171815788 -2.093928151789348,4.640943545559191 l-3.2222418144259906,5.078841599127443 -4.153346388683383,8.42330436414108 l-3.244665656323109,5.851576542174995 -3.275123417765985,5.079343322732544 l-3.543628491619767,4.377888438724304 -3.841442966921507,3.5804548240179117 " fill="none" stroke="black" stroke-width="1" /></svg>