<?xml version="1.0" encoding="utf-8" ?>
<svg baseProfile="full" height="97.1783396936423" version="1.1" width="101.47217824141686" xmlns="http://www.w3.org/2000/svg" xmlns:ev="http://www.w3.org/2001/xml-events" xmlns:xlink="http://www.w3.org/1999/xlink"><defs /><rect fill="white" height="97.1783396936423" width="101.47217824141686" x="0" y="0" /><path d="M25,25 m0.0,0.0 m22.904930117473125,4.974578391100795 l0.04841515822061192,0.37871938687847206 -1.344669757729653,2.8849849246751185 l-2.383900637593331,3.139514873643369 -2.8727191046209413,2.8133559347223103 l-3.3898688030194695,2.594012806265594 m9.571540448050088,-6.934159876223149 l2.3451956957449496,0.21415658722367065 23.544121911621357,-1.8718830393250063 l1.6137328654553966,0.1245943407476112 1.0938117280190975,0.5099197068044709 l0.3415886197956223,0.919706077932578 -0.1631915248128001,2.047405253287742 l-1.5190399838908581,7.699635067264851 -1.966202085861836,6.522861133169072 l-2.2587336957025985,4.936688647212357 -1.4019468356988734,3.024053784279784 l-1.3723390370440625,2.992405253456849 -1.2470554672790037,2.396971245447151 l-1.2286048059422277,1.6025626150993266 -0.6737359293439527,0.43134894511409927 l-0.6658211431506224,-0.31830300056536426 -1.8660285711403024,-1.932644982206954 m-9.045889220130297,-26.53283848673465 l-0.17974550718351695,1.3570180162239882 -0.9993988280029215,1.95325935975764 l-3.272248107154024,4.11657883296122 -4.819697901245639,3.892497651713152 l-5.484308552859853,3.2356378524902873 m25.430542833931103,-15.28180987506085 l-0.15580484997484872,2.1931845692391096 -1.2829866982719667,2.457415873760736 l-2.3895664542883597,3.4560913239863815 -3.2445518107074327,3.841051248410631 l-3.8380891522906806,7.001008287986546 -5.906030719099591,9.268214120201932 l-3.2864969134199464,4.190492268644076 -2.673588840833168,2.880054574057332 m0.8578885811572712,-21.851335169944697 l4.981217913334966,2.1023037167398537 5.396677062055977,3.1985405782737133 l4.7095905267640115,3.39840914104649 2.4661818391570813,2.5953714328117985 " fill="none" stroke="black" stroke-width="1" /></svg>