<?xml version="1.0" encoding="utf-8" ?>
<svg baseProfile="full" height="109.49251435697079" version="1.1" width="109.17808830738068" xmlns="http://www.w3.org/2000/svg" xmlns:ev="http://www.w3.org/2001/xml-events" xmlns:xlink="http://www.w3.org/1999/xlink"><defs /><rect fill="white" height="109.49251435697079" width="109.17808830738068" x="0" y="0" /><path d="M25,25.000001320035068 m0.0,0.0 m25.28411865234375,-1.3200350679198891e-06 l0.56221604347229,0.3514273837208748 2.767363488674164,2.0285865664482117 l1.9913089275360107,1.900147795677185 1.5988759696483612,2.0919588208198547 l0.8329878747463226,1.664959192276001 m-27.826812267303467,5.996970534324646 l3.8314732909202576,0.34710124135017395 36.26784563064575,-3.503556549549103 l5.154494047164917,-0.2098037488758564 2.532852590084076,0.45129358768463135 m-37.109644412994385,4.5736390352249146 l0.7726658135652542,2.164819687604904 0.28451278805732727,7.185161709785461 l0.8770433813333511,1.644286960363388 1.904214471578598,1.2477874010801315 l3.3244961500167847,0.6391437351703644 8.018779754638672,0.1575540192425251 l11.668269634246826,-0.33321212977170944 5.194821357727051,-0.6571895629167557 m-41.59924030303955,15.908782482147217 l-0.31633123755455017,2.3554445803165436 -1.0899501293897629,3.637290298938751 l-1.5127982199192047,3.8646844029426575 -1.585320383310318,3.0384743213653564 m12.015631198883057,-16.451003551483154 l2.8320911526679993,5.593016147613525 3.8524842262268066,4.873216450214386 l2.8832632303237915,2.5070971250534058 2.185830771923065,1.4748427271842957 l5.0643497705459595,2.428475022315979 4.451639354228973,1.3220040500164032 l5.060282945632935,0.8526434749364853 5.709593296051025,0.3464711457490921 l5.790926218032837,-0.2200392447412014 2.080775499343872,-0.6906547397375107 l0.7211547344923019,-1.1295153200626373 -0.4731730744242668,-1.4741650223731995 l-1.5026316046714783,-1.7249424755573273 m-23.228774070739746,-15.08460521697998 l1.5626147389411926,3.0852407217025757 2.0570531487464905,2.243441790342331 l0.6479547917842865,0.22620808333158493 0.5764492973685265,-0.15419427305459976 l0.8112990856170654,-1.736125648021698 m15.735270977020264,-7.141058444976807 l4.994538724422455,5.180927515029907 3.5212209820747375,5.195838212966919 " fill="none" stroke="black" stroke-width="1" /></svg>