<?xml version="1.0" encoding="utf-8" ?>
<svg baseProfile="full" height="98.2017076292384" version="1.1" width="101.64126821636629" xmlns="http://www.w3.org/2000/svg" xmlns:ev="http://www.w3.org/2001/xml-events" xmlns:xlink="http://www.w3.org/1999/xlink"><defs /><rect fill="white" height="98.2017076292384" width="101.64126821636629" x="0" y="0" /><path d="M25,25 m0.0,0.0 m29.961725415113428,14.619717206346422 l-0.015312666967969568,0.3492092663274958 -0.4119783683386875,0.7855620728042569 l-1.1311442266432452,1.2239044609373704 -3.6522370891156384,2.56208755736728 m-5.822721523706578,0.3485602462206526 l0.6761813177565771,0.6717256956107089 0.22070962452693527,0.6506626727773442 l-0.002490050178189469,14.676736147414594 m0.5033002319615291,-15.01073803439913 l18.88009101166399,-1.8334322268840246 1.461774312243046,0.1939541743503632 l0.7263253303705347,0.6641257292108557 0.15417121397918676,27.183735126499027 l-0.38724764512047777,0.6776291607497932 -0.5841268248989131,0.37551380094969833 l-0.734825737416926,0.06275457295568998 -1.6064843374579298,-0.5551688531837534 l-1.8708267426594052,-1.147079743888402 m-16.00976355836674,-21.910449168609514 l20.460983777335375,-1.6200275273447713 m-19.89889715491371,6.442708018335247 l12.300749010867454,-1.5137231444239545 6.7390891606658565,-0.5982549034331153 m-30.405465699428422,9.520775310910604 l1.2223681829971078,0.4808913871758966 1.1443366190281357,-0.01992925936331971 l28.027473826363533,-5.81912339432203 m11.695510806706423,-6.153186527530379 l-0.15589810159530024,1.0036486740971546 -0.4275994059443773,0.7257498708710165 l-2.348878783060978,2.1561022958667353 -4.303215941309774,2.8771007652067815 l-6.399276643040471,3.8201402682492946 -6.41675477434726,3.527130991652248 l-5.530395878495494,3.2958151899147974 -6.264046207961289,3.326560154070438 l-4.668493368413476,1.9539162745113265 " fill="none" stroke="black" stroke-width="1" /></svg>