<?xml version="1.0" encoding="utf-8" ?>
<svg baseProfile="full" height="109.49251241981983" version="1.1" width="109.08098474144936" xmlns="http://www.w3.org/2000/svg" xmlns:ev="http://www.w3.org/2001/xml-events" xmlns:xlink="http://www.w3.org/1999/xlink"><defs /><rect fill="white" height="109.49251241981983" width="109.08098474144936" x="0" y="0" /><path d="M25,25.000000112340786 m0.0,0.0 m8.586520552635193,9.535532593727112 l0.6243503466248512,0.14875579625368118 3.4496504068374634,0.06112216040492058 l10.188889503479004,-1.6570283472537994 2.380446046590805,0.021697233896702528 m-22.070980072021484,15.366014242172241 l2.757458984851837,0.4017466679215431 3.5030046105384827,-0.19256984815001488 l23.636977672576904,-3.767479360103607 17.13836431503296,-2.2453822195529938 l3.4309235215187073,-0.09404066950082779 2.720004916191101,0.3618193045258522 m-49.38833713531494,19.09727692604065 l3.7648290395736694,0.23699121549725533 14.154061079025269,-2.197593003511429 l2.5235486030578613,-0.007839713362045586 m-20.985522270202637,20.216655731201172 l1.1105450242757797,0.47806791961193085 1.2730811536312103,-0.20257377997040749 l18.24007511138916,-8.705570697784424 m3.9800122380256653,-46.8556022644043 l0.9271620213985443,1.2826213240623474 0.42436033487319946,1.3009949028491974 l1.6500940918922424,13.53289008140564 2.4502305686473846,11.90611720085144 l2.441927045583725,7.729647755622864 3.235173523426056,7.297160625457764 l3.0231699347496033,5.049923658370972 3.5941660404205322,4.580689072608948 l4.218163192272186,4.01393324136734 2.929181754589081,2.1073147654533386 l1.9094450771808624,0.6912197917699814 0.5914897844195366,-0.16712943091988564 l0.38796640932559967,-0.47347452491521835 0.28055131435394287,-1.7589224874973297 l-0.38465388119220734,-4.2683374881744385 m-13.749134540557861,-49.116973876953125 l5.0177693367004395,3.191536068916321 2.212963253259659,1.9818796217441559 l1.0911113768815994,1.426430344581604 " fill="none" stroke="black" stroke-width="1" /></svg>