<?xml version="1.0" encoding="utf-8" ?>
<svg baseProfile="full" height="105.53019535080526" version="1.1" width="109.01197113339407" xmlns="http://www.w3.org/2000/svg" xmlns:ev="http://www.w3.org/2001/xml-events" xmlns:xlink="http://www.w3.org/1999/xlink"><defs /><rect fill="white" height="105.53019535080526" width="109.01197113339407" x="0" y="0" /><path d="M25,25 m0.0,0.0 m3.2462266094115475,19.806474707691194 l-0.012311994521514484,0.6155897436843234 -0.9042275476077952,4.807687056452566 l-1.8521739107207438,5.3011158254917765 m12.40306792241934,-16.515691890440475 l1.5537583557345296,1.159716059837789 2.197936274071337,2.085534217443746 l1.8625932108718597,2.139740350386691 0.7473667221564034,1.3892453770600848 m-10.5191799916971,-16.951911330286322 l0.8931413733583793,0.8701832950802271 0.48857026432292844,1.8259381180976044 l-0.1754401569476956,48.996573820306054 m14.093888725244554,-45.926445125552696 l1.4878633853115797,0.24495220032730644 2.207976195471719,-0.1504276205381797 l24.939306790458275,-2.1083768268438963 1.1382776952403502,0.19665703499302026 m-16.563899878891764,-4.979465228283495 l0.8181304525507845,0.9018223359692965 0.5591091605088568,1.4235065411232155 l-0.00045759856584662176,17.149895986089575 m-13.935882164796613,-6.241883866542782 l1.970041599187586,0.1313041098959578 20.41320592180509,-1.8442719239905527 l3.767968483681572,-0.17817288180747612 m-30.917188229914593,9.296722530564697 l3.180200808222992,0.19175746652619663 29.928530704323254,-2.743476555538283 l2.645278209881382,-0.12458551351190299 1.9826162082648704,0.2785182570584875 m-29.850086376038252,8.234910493996852 l0.8054436155043588,0.9952471484460466 0.3934278578996825,2.074957962553859 l-0.014617034559684768,12.114181014697637 m0.09453135848879894,-14.712698094106731 l18.14661237567207,-1.6335825085334315 0.9845910743438124,0.061276493924127526 l1.2521548071560817,0.44678349397607786 0.42597201482214436,1.095509321278886 l-1.5209457564087259,15.030953993173458 m-19.377586579637804,-7.950889963548979 l12.807904052972981,-0.9188966933845919 m-12.292408149168098,8.239829320385017 l18.44169639138844,-1.0527858929059768 m-30.714031082687374,9.861426149797433 l1.748450149458383,0.2268589694236653 3.5894130510685454,-0.049027696583025325 l32.31534674986447,-1.7928244737656385 4.131809014418706,0.01094041979418103 " fill="none" stroke="black" stroke-width="1" /></svg>