<?xml version="1.0" encoding="utf-8" ?>
<svg baseProfile="full" height="105.86889237984093" version="1.1" width="93.72915727630597" xmlns="http://www.w3.org/2000/svg" xmlns:ev="http://www.w3.org/2001/xml-events" xmlns:xlink="http://www.w3.org/1999/xlink"><defs /><rect fill="white" height="105.86889237984093" width="93.72915727630597" x="0" y="0" /><path d="M25,25 m0.0,0.0 m15.834660238756468,2.6380042071530587 l0.3602885401065826,0.4079304203418905 0.3880768201965968,1.6865616680397657 l0.0107541786154648,11.794802232720045 -0.3652556983566119,7.82963494421975 l-0.7192044999114763,4.271435111941444 -1.077598681416162,2.9838928504752995 l-1.5676380707364306,2.584549574642834 -2.563299439794531,2.756490839956172 l-2.7161583562081852,2.0628590286182393 m18.530408284608832,-36.49940732976427 l0.6705819802554386,0.9737278606250682 0.17412782926948717,1.0246710910602619 l-0.0063774753138716445,30.002748713817347 m-24.157308388200256,-23.303918554485207 l2.3121857565294435,0.03720489971838917 9.523459718546201,-1.1283200020664912 m-11.794090660694403,9.962997366200842 l2.313940158514058,0.012712429666033156 9.272723245581854,-1.9313762128198502 m-12.251479969849381,11.290031659511074 l0.7262977729565462,0.6142922995266995 0.9059753076314686,0.02326261774089699 l9.04445437648505,-2.9968463801362923 m14.735145068709352,-18.896758475020345 l9.92420672313096,-1.682514580842115 m-9.703111379805595,10.30201327218868 l9.391776064560613,-1.9857984951565262 1.5013406972772636,-0.11748443866982643 m-10.572431243186266,11.034568231756431 l12.427402307056754,-1.7610194827610504 m-35.418119406423735,20.52624243885706 l-0.17282235239584234,2.2461701873722824 -0.758592686950064,3.4615258293598443 l-1.9456062533804654,5.644006556053489 m11.441505471792315,-15.080392449437518 l2.0941302931111707,4.6353784600859465 2.5630159883749193,3.8748149321596363 l3.1725268892226532,2.9375740656416296 3.113020763672132,1.699623645460641 l2.7876070471170187,0.8993691149340268 3.2257151715876766,0.5610940854802653 l3.6808704876529945,0.13596623819757672 4.091648228001272,-0.26894483214946296 l1.8958739854591646,-0.5935319467302203 0.8060291367062639,-0.9673294577235608 l-0.24564815331514864,-1.2899525713089437 -1.0895080419761543,-1.6278618393421798 m-16.03057087209831,-13.172190371322625 l1.2545308789183136,2.231356758818647 0.9805367675547849,1.21562404435111 l0.9172670788662325,0.41902604306762353 0.34402254362506335,-0.2750284676008894 l0.23846456025524365,-0.701606558716068 m11.520013332170391,-2.9952389046010164 l1.4425775807953547,1.1200949763652386 1.331546630572256,1.4479469480506497 l1.9352710020752244,3.7554089796411025 " fill="none" stroke="black" stroke-width="1" /></svg>