<?xml version="1.0" encoding="utf-8" ?>
<svg baseProfile="full" height="91.76937008263974" version="1.1" width="100.09325982123733" xmlns="http://www.w3.org/2000/svg" xmlns:ev="http://www.w3.org/2001/xml-events" xmlns:xlink="http://www.w3.org/1999/xlink"><defs /><rect fill="white" height="91.76937008263974" width="100.09325982123733" x="0" y="0" /><path d="M25,25 m0.0,0.0 m23.66078651440594,7.407102116912117 l0.03133130573616011,0.3626498257388998 -0.4170023512438962,1.483318231200787 l-2.831539284484975,2.8517808678437078 -3.455841738915378,2.555287896473958 l-4.0073989227087985,2.219370530972794 m-0.818588201641074,-5.873015217768926 l0.6828747919314467,0.7251670791324455 0.315079389568263,1.4173085060220714 l1.9794423379129067,16.110436668771094 m15.307110713690077,-12.60544940852085 l1.8207294944790664,0.23692472336668732 9.463589316537078,-1.2221759804860282 l1.3711760348396078,0.17349830998303262 0.7010042429830777,0.32813511701898435 l0.252047736750876,0.4265540092831433 -0.03868350580959412,1.650961699274644 l-2.3850513378560154,14.065209804778474 m-28.32400368221953,-7.512860147614055 l7.80377160831325,-1.479204822409651 2.4736157307612108,-0.042270917778790364 m5.44670803724425,-0.76302494808899 l2.327761600293388,0.1915378175943797 10.43725818148217,-0.8137211778078585 m-28.169705855386134,10.161787469061895 l15.658245111273896,-1.803819914681415 9.597357865662927,-0.7918329787764742 m-28.80532602051352,-18.135962928703947 l0.6988604254736297,0.7222701768747264 0.37399935548768587,1.08633395810416 l-0.1018107252012587,26.47701940730187 0.30555149659210423,1.2351439608466614 l0.5504341511065883,0.6458556854121154 1.1542526811270828,0.2790546633080603 l11.2216103165603,-0.023820115962661266 13.560675974246765,-0.8409010608441653 l8.741974354091802,-0.4028287255585382 3.5109626786659467,-0.09987822380497371 " fill="none" stroke="black" stroke-width="1" /></svg>