<?xml version="1.0" encoding="utf-8" ?>
<svg baseProfile="full" height="111.14988284205126" version="1.1" width="99.50190421085811" xmlns="http://www.w3.org/2000/svg" xmlns:ev="http://www.w3.org/2001/xml-events" xmlns:xlink="http://www.w3.org/1999/xlink"><defs /><rect fill="white" height="111.14988284205126" width="99.50190421085811" x="0" y="0" /><path d="M25,25 m0.0,0.0 m22.61040889585321,5.898429514822026 l-0.031587050424674745,0.4167112447039388 -0.2821911223718581,1.1275397842196868 l-0.712975265753743,1.7460535232458096 -2.589544703465301,3.9941484380502272 l-3.2430227415975157,3.579367467663498 -3.735666423024943,2.9772284908363114 m10.559796028086614,-8.35851155316709 l9.673699246721352,-1.4098397061240637 0.689892501634793,0.08187942440198322 l0.42383016524077083,0.3687909171554922 0.10292376381765446,0.531094676703597 l-0.48484307697833806,1.0835780105130972 -7.751066348718694,9.134000148210337 m-11.562693623253555,1.2501818302580887 l1.6804239582841092,0.338835184316767 2.6180790763414423,-0.00044727344446124774 l22.108018527050127,-2.5562178278336716 2.519927321443949,0.16182720017202487 l0.7576939839947064,0.7261384191668264 0.13244561026647142,1.206468314076316 l-1.9444697062416754,12.435993439745499 m-27.89860013735183,-4.838824995598971 l4.0650513668291515,0.1757920128395664 17.98067047691584,-1.8700828358339867 l10.117679065314059,0.4161631477959081 3.6980244222459846,0.4125894273170504 m-33.3206062366983,8.56127697695534 l3.4749469514600366,0.21826768147619985 17.361434485032696,-1.7570890180499357 l6.099819723905953,-0.1733395778804331 2.3041914052034436,0.1678140936715689 m-30.939977813312638,8.721279163013746 l-0.5020526318418872,0.26130803648754924 -1.163071646642662,2.091991990744612 l-1.5075476252650268,2.3115929629561136 -1.4487612407468116,1.712613891086669 m12.188424563335566,-9.285973426682332 l1.054457409294863,1.730481360047833 0.8975729745620836,2.214796772358972 l0.7942795838586871,2.61374780186082 m7.561326959602984,-7.390746340172145 l1.1521564115148175,1.1638653080016386 1.3418006387392092,1.9302775077679772 l1.0833347197826098,2.0205890264503643 m6.504009178749841,-5.698390628313877 l1.716708078438401,1.2790973897200115 1.889190922946781,1.9462419391490429 l1.4300176920695464,1.9349010328519214 0.6747156957546525,1.4431017681511755 m-33.97533020019461,2.5527166128669676 l0.6854071571123207,0.7976730534068693 0.30438889474925407,1.0505101434501536 l1.4106454255238223,9.70239089646263 m-1.1683712838870424,-10.807168945011032 l21.776585631159662,-1.8073352927303243 3.9192904274086016,-0.1358461687241379 l0.9615743142902696,0.6513374883838652 0.21092524002353633,0.9950473815526131 l-1.8999608729026254,8.822226691353267 m-17.040259318320896,1.7919794804247793 l18.932611500851582,-1.4215447100161154 " fill="none" stroke="black" stroke-width="1" /></svg>