<?xml version="1.0" encoding="utf-8" ?>
<svg baseProfile="full" height="95.97950912022051" version="1.1" width="97.02296594747187" xmlns="http://www.w3.org/2000/svg" xmlns:ev="http://www.w3.org/2001/xml-events" xmlns:xlink="http://www.w3.org/1999/xlink"><defs /><rect fill="white" height="95.97950912022051" width="97.02296594747187" x="0" y="0" /><path d="M25,25 m0.0,0.0 m18.121086503589556,3.3234461060229075 l0.04559957620126989,0.3905514064723467 -0.18599679828370957,0.820650006896015 l-0.9061390909196939,1.5511426102652932 -3.248597411351092,3.3505889734625374 l-4.1997003305480884,3.1212115920858263 -4.912246068694109,2.476255942394915 m13.83464130090658,-9.027421157216624 l11.43583025890966,-1.3102135114220925 0.8222420376008551,0.11395131964554936 l0.7739053254954987,0.40457325419343243 0.304930262153007,0.4813502493085524 l-0.4311658765388358,1.1115357920449658 -9.29495926836763,9.415446509602173 m-15.080691374018793,1.50351744115144 l0.6499177123599665,0.8061689073275743 0.6108960309295546,1.9791034361683124 l1.5206089611836373,8.346289256333908 m-1.2842988243972464,-10.375409229270725 l22.233071431680774,-2.4539078516218327 7.188946588128373,-0.6216636822932838 l1.601759527760011,0.12492164234501983 1.035550062987754,0.7591152937552198 l0.2251713699363296,4.725179466521522 -1.2915653369656173,6.142430431523563 m-27.67184858678015,0.6626498660192854 l15.487547014020253,-1.7330630900352844 m8.414679064945098,-0.33696465379225926 l-0.03876006257344877,0.2700087463362093 -0.765455790101395,0.8487150680978945 l-2.174444265465523,2.029589712625077 -6.857551839866357,2.2244575474840254 l-9.704726513276984,2.556573868420805 -12.637639638910283,2.904896303797976 m20.516745641932346,-4.912810529854086 l0.5706101096403603,0.8101813389603559 0.20655099583188702,1.084615451004668 l-0.09790089110078358,9.251480797129151 0.1653598909829994,0.926504397296988 l0.5786698159263453,0.8121002300893612 1.8252184340340474,0.9141684192975759 l3.1731117284408663,0.4370997947662388 6.812417611279569,0.07049164688000052 l4.872824517305353,-0.3401411730715892 2.065288707612749,-0.4823753502766842 l1.4161598558612265,-0.7356753055246682 0.8696635966087936,-1.0117714209283966 l0.36912862693710974,-1.5987845450659837 0.05852135444980989,-2.3199772026435967 " fill="none" stroke="black" stroke-width="1" /></svg>