<?xml version="1.0" encoding="utf-8" ?>
<svg baseProfile="full" height="96.11757830052107" version="1.1" width="106.86853032920371" xmlns="http://www.w3.org/2000/svg" xmlns:ev="http://www.w3.org/2001/xml-events" xmlns:xlink="http://www.w3.org/1999/xlink"><defs /><rect fill="white" height="96.11757830052107" width="106.86853032920371" x="0" y="0" /><path d="M26.551252903688123,25 m0.0,0.0 m13.434123039297285,17.810534772625505 l0.384015292435685,0.32980388898923574 0.4459952894619397,1.140583920149875 l-0.024716312563672897,13.222539636232817 m0.8973154316275812,-7.226485648826952 l9.418077256654165,-1.1478497112067017 2.525428906618985,-0.006603294368631037 m-23.209827875251996,-0.15068096107342735 l0.6735790679578996,0.6671241545115 0.2958631051485607,0.7606362390796837 l0.006997167005914524,9.1806411049089 m-6.398103272080468,0.8773396831785235 l1.3244460425900464,0.4053565180453893 1.4984326151958254,-0.022456626421321527 l25.11241895070093,-5.714496628530284 m24.179197729380057,-12.317916204708476 l-0.4724671997399394,1.2251169883591522 -3.4930051817675265,1.8931727919814556 l-5.128448048691829,2.2562024598653347 -5.31202151512354,1.8811899917624721 m-3.0591440611278045,-9.539465970277305 l0.6958254848800367,0.8718718034071079 0.1138323230641845,0.8666885314467433 l0.02168280714738054,12.282664519870416 0.4813647260352726,1.2741969935870217 l1.0156399514794958,0.7666880636324883 1.999255138369036,0.5562495743056887 l4.166845596666029,0.3062491305627665 5.679352904089075,0.020544826179281044 l4.322346798063155,-0.3507181627234542 1.561051916840666,-0.42239904311271315 l1.3396018803064775,-0.7690266367970053 0.5973274879710521,-0.9100357829855712 l0.2249939828756424,-1.4413322803903454 m-39.06108690937557,8.942132277643713 l4.803114187408109,1.6119728859683349 2.7987928772021666,1.363002079388631 l1.106933899175633,0.8823189879042501 m24.671427712972847,4.742223428356964 " fill="none" stroke="black" stroke-width="1" /></svg>