<?xml version="1.0" encoding="utf-8" ?>
<svg baseProfile="full" height="98.86416018830094" version="1.1" width="111.27687337618457" xmlns="http://www.w3.org/2000/svg" xmlns:ev="http://www.w3.org/2001/xml-events" xmlns:xlink="http://www.w3.org/1999/xlink"><defs /><rect fill="white" height="98.86416018830094" width="111.27687337618457" x="0" y="0" /><path d="M25,25 m0.0,0.0 m41.42997780142555,4.559271289948518 l-0.0725672111129199,0.38404385725230933 -0.6667966768906652,1.1818834090505141 l-1.7835287849719883,1.5429285074929604 -2.969881595319575,2.799552330339609 l-2.622167930021121,2.2046585356918027 -4.756992444788839,3.0390302042868513 l-6.242887196223956,2.8013502809824935 m17.259661292011007,1.0796084278273872 l0.05318097210366833,0.9052212342325168 -0.23027443503705206,0.9569441929441685 l-3.7370575962663493,4.467876911262946 -4.047877960048227,3.930465891410547 l-5.402809917022991,4.6781397902985695 m9.538804804289493,-6.871062732538676 l0.565257848357914,1.0016113163871594 0.10408094287548066,1.031961491751305 l-0.08533937666499238,19.170675249679956 m-21.252552953230143,-37.44097417000828 l1.7788739752973328,1.0917050134993744 2.551578840127934,2.2638896267850486 l2.077046973959275,2.3076940992597685 0.9952353192978939,1.4666865205780024 m-11.347950654209678,17.221582258056507 l1.52399971413277,0.33238974223420165 1.4779095043791584,-0.16405062528249764 l11.748597087823526,-5.592905055066543 1.663741890449,-0.0969040098853396 l0.5959515659807508,0.3496714485383831 0.23474184730328712,0.6325532576780442 l-0.3825999071817797,0.931427999226056 -4.681009996771297,5.125673521894454 l-3.6958254098097885,3.6084860057792802 -4.646599680286094,3.852496668952591 l-4.750490997992287,3.399717883883132 m36.97951252700489,-26.611571058350787 l-0.16639879353018364,0.5086911935745849 -0.47252032374290914,1.0002301454135836 l-2.656632663415951,6.898808600761493 -1.9077627448000278,3.994142674665554 l-2.083781747896794,2.996603989482265 m-4.059724655430101,-23.154906723191395 l1.6540678045131754,1.1781186000668764 2.7833305054567004,2.385398584581433 l15.005883884370212,15.352687327806635 3.3292102532739736,2.5068014311624824 l2.6482596744172726,1.6181909031560233 " fill="none" stroke="black" stroke-width="1" /></svg>