<?xml version="1.0" encoding="utf-8" ?>
<svg baseProfile="full" height="95.99127858567124" version="1.1" width="109.8841150621854" xmlns="http://www.w3.org/2000/svg" xmlns:ev="http://www.w3.org/2001/xml-events" xmlns:xlink="http://www.w3.org/1999/xlink"><defs /><rect fill="white" height="95.99127858567124" width="109.8841150621854" x="0" y="0" /><path d="M25,25 m0.0,0.0 m9.180253074799792,19.035197587507042 l-0.021840574615792956,0.4700025384090222 -0.8744745685465275,3.5948047805800045 l-1.7522225861227905,4.032585500474359 m10.936154251668047,-10.789087921208758 l1.4212807678618373,0.8266664690912343 1.9546393296201992,1.6502732478333295 l1.3163045391734636,1.4717034651227838 0.6660053048011095,1.0352339029264268 m-8.399563585107966,-13.049591664664243 l0.5878365033200447,0.6768142398221363 0.2889456488228253,1.179633530662136 l0.02442401429830153,35.47484544496912 m21.502353395163638,-37.30766901705715 l-0.22017231407668017,1.3216203025223234 -4.221266982777919,5.392483688952505 l-3.1930072690281777,3.1095100270637377 -3.8342679233141728,2.99106732475464 m9.831978195347583,-6.912238306806296 l4.367555963455578,-0.033338282708628764 16.124090981479227,-1.44865161632101 l1.6171854051816852,0.03412987561838414 1.4150881669693378,0.16894864515934985 l0.5934033351849001,0.25448142410617797 0.5453277710843825,0.7994366320784113 l0.028104217543480792,1.1459619236681158 -1.1658511803845768,6.4911345228188955 l-1.2309249485704243,4.630226403514307 -1.6310495574655541,3.8485996782544083 l-1.1741772498486769,3.134700082213018 -1.3449195296889789,3.1834667128035954 l-1.4794267611443328,2.8832107434443963 -1.0884335963922889,2.688635472122479 l-2.3876306214688165,3.6806574782879697 -0.5161759064214653,0.325823749657026 l-0.5212979042608226,-0.04004542792031579 -0.5286801227865017,-0.261075928999082 l-1.3297203468173298,-0.7293086069789045 -1.6028728951752027,-1.291216618057678 m-3.324481931017713,-18.487137984906322 l0.023744746555899785,1.2116948141793342 -0.8107482801819657,1.6866099234553227 l-1.7411312940712005,5.154366993295341 -1.7909870772627579,4.099642410796416 l-1.77609124706143,3.0656234970101317 -3.386561604924901,2.83432228020244 l-2.7851741448406395,1.7417638490772127 m10.026568824300503,-15.730569537222687 l1.6523123680346,2.364035729974356 1.6583883994359707,3.3433063072295646 l1.416486680192851,3.480427060302788 1.07867353825563,3.3198086029258778 m-17.92254936230033,-10.195497418158611 l0.5150090877680726,1.3462159836022882 -1.4321585028279995,11.577433030148235 l0.03550712952683955,0.9678654737903641 0.42166944839424375,0.4988007200430744 l0.7199662617024022,-1.2418209472750825 5.70900816681017,-1.5741831070986239 " fill="none" stroke="black" stroke-width="1" /></svg>