<?xml version="1.0" encoding="utf-8" ?>
<svg baseProfile="full" height="108.73632378876209" version="1.1" width="109.49251180514693" xmlns="http://www.w3.org/2000/svg" xmlns:ev="http://www.w3.org/2001/xml-events" xmlns:xlink="http://www.w3.org/1999/xlink"><defs /><rect fill="white" height="108.73632378876209" width="109.49251180514693" x="0" y="0" /><path d="M25.00000005820766,25 m0.0,0.0 m2.6598694920539856,19.015212059020996 l-0.016970245633274317,0.757773369550705 -0.8302000164985657,5.766419768333435 l-1.8126992881298065,6.4199477434158325 m13.033148050308228,-17.554852962493896 l2.0412780344486237,1.6227364540100098 2.1115833520889282,2.285788059234619 l1.6814395785331726,2.375834435224533 0.6772512942552567,1.4968448877334595 m-10.05746841430664,-21.9657301902771 l0.6085045263171196,0.9742306917905807 0.24970503523945808,1.8629173934459686 l0.02127909567207098,55.67920207977295 m14.440639019012451,-55.10273456573486 l1.4390075206756592,0.12234702706336975 2.5541952252388,-0.3152049705386162 l14.954942464828491,-3.0529990792274475 0.7300668954849243,0.1567150093615055 l0.40451522916555405,0.48590313643217087 0.05437404848635197,0.8339663594961166 l-1.4876671135425568,4.108184576034546 -2.7093517780303955,5.401386618614197 l-2.31972873210907,3.6995133757591248 -3.4141361713409424,4.478759169578552 l-3.711288571357727,3.976579010486603 -3.928785026073456,3.491714596748352 l-4.069395363330841,3.0248597264289856 -5.165188908576965,3.1519633531570435 m7.020832896232605,-23.783278465270996 l1.9529634714126587,0.6708874553442001 3.441150188446045,1.9711460173130035 l19.445823431015015,13.177568912506104 4.318407773971558,2.416701465845108 l3.61743301153183,1.5378852188587189 m-33.912785053253174,12.456852197647095 l4.158748984336853,0.12395963072776794 18.32059144973755,-1.5888392925262451 l4.178836345672607,-0.11062045581638813 2.0748722553253174,0.24202078580856323 m-15.40482759475708,-9.874604344367981 l0.5785468220710754,0.9150078892707825 0.3222614899277687,2.021537274122238 l-0.049649872817099094,20.12272834777832 m-20.026273727416992,1.6665473580360413 l1.9612756371498108,0.3994068503379822 2.0343515276908875,0.007473184959962964 l16.192384958267212,-1.3848932087421417 11.098541021347046,-0.6107773259282112 l6.891304850578308,-0.1163673959672451 3.138802647590637,0.3503359854221344 " fill="none" stroke="black" stroke-width="1" /></svg>