<?xml version="1.0" encoding="utf-8" ?>
<svg baseProfile="full" height="108.36904658171696" version="1.1" width="104.70811645675657" xmlns="http://www.w3.org/2000/svg" xmlns:ev="http://www.w3.org/2001/xml-events" xmlns:xlink="http://www.w3.org/1999/xlink"><defs /><rect fill="white" height="108.36904658171696" width="104.70811645675657" x="0" y="0" /><path d="M25,25 m0.0,0.0 m6.713754334585312,19.943686080992187 l-0.01505349357602712,0.43849560707399077 -0.7873133648739703,5.283627925520052 l-1.4465406403017347,4.300613146732954 m10.97906138286621,-12.235753717956577 l2.32290612267939,3.8319394272938716 1.3179805194124607,3.8665054983608282 m-8.438177713868601,-19.149401071017998 l0.8226584343310728,0.853456534018578 0.43995922291680534,1.7543078134911028 l-0.15508895929019245,46.90896538425031 m21.786530172136292,-50.44166616428564 l-0.18319717267491548,1.705131211121335 -1.4326564027106397,2.9934047485293855 l-2.0339008411485073,2.959692186166315 -2.331747314194085,2.629034513568377 m-3.875112011398825,0.37491154972452206 l1.146124049233311,1.6392280341862266 1.1865831748076459,4.403576672516738 m-0.9660899504593445,-6.629353491758181 l7.942941977183935,-1.4761656469949407 1.2685789188764691,-0.1564014070011661 l0.5090514647630884,0.2071898870904385 0.14856707001464411,0.48038464817896503 l-0.6591362605503999,8.719682546386741 -0.4335080220036317,3.3975516980452394 m-10.195112804207032,-6.423657952565542 l10.508199384132286,-1.1267985555391284 m-10.303497595335545,6.328092270938132 l10.064970833628887,-0.7699384224683533 m-5.794997099918187,8.948453302669346 l4.753097941122747,-0.39552091251303834 4.649113400673333,-0.1043502214845084 l0.4114292229157655,1.3355796597101168 m-13.422625066961082,-5.4300672443962865 l1.5092104065440999,2.508116428201245 0.9594837480555343,2.600737948740396 m7.914974525855045,2.732875138568317 l-0.0429936741744997,0.2790862900548777 -0.4125667223522048,0.5883078157641246 l-2.6477755839051462,2.218956449937973 -2.95126258344398,1.808372328413065 l-3.8183187614295053,1.7423762089805817 m-0.7168410820127572,5.213298578358227 l1.039171956860998,0.6396557746508558 1.1607882498164999,-0.06753983547604947 l10.235073141204245,-4.940867159466225 m3.672044027447075,-22.335122903829188 l2.0070559430475314,0.23557278721908775 8.894808896220079,-1.1652588804961987 l1.3132599197165558,0.07829356589296718 m-12.695050031213883,10.837531057122666 l2.4731515396164494,0.1471200614751798 10.086270786931912,-1.255678381426137 l2.2298788411655757,0.029445256701942316 m-7.76335159800965,2.010015524304677 l0.557595766115858,2.2196486910452964 0.006309900884897397,2.983075841643246 l-0.3528619472587595,19.81982700290874 -0.41044214882600133,0.4767654538428918 l-0.561584976146437,-0.10144932258010292 -2.232789063897891,-2.3126496444925193 " fill="none" stroke="black" stroke-width="1" /></svg>