<?xml version="1.0" encoding="utf-8" ?>
<svg baseProfile="full" height="106.61475893250527" version="1.1" width="99.62430477346919" xmlns="http://www.w3.org/2000/svg" xmlns:ev="http://www.w3.org/2001/xml-events" xmlns:xlink="http://www.w3.org/1999/xlink"><defs /><rect fill="white" height="106.61475893250527" width="99.62430477346919" x="0" y="0" /><path d="M25,25 m0.0,0.0 m2.8045422696398146,20.04336195982316 l0.2730730227296584,0.37303164549256074 0.38517167273221165,0.8355838639968989 l1.8549208593097215,12.70740959905937 m-1.5304731611334994,-12.78353313155956 l13.027122815623184,-1.943514038919228 3.0406954435233344,-0.192632123852379 l0.5250299087449775,0.3526013593141784 0.29770091249342884,1.1848617505327714 l-2.0712857775061186,10.127592595794221 m-13.28508141935032,1.9110938242693305 l14.656959140943712,-2.0631142863481133 m-9.579670027526367,-22.98331516642075 l0.9198959487828269,1.1646009706811307 0.43860894810680157,1.4842027026108369 l-0.12123824333923561,32.97340161848075 m-9.450160378874237,3.42932362798673 l0.9137501285889534,0.5411503414076432 0.9038284870652538,-0.08822770215852935 l16.197885803668026,-8.552102284839123 m-2.415189828129956,-4.026923248140655 l1.3929282841313775,1.9454567196867585 1.4839064467776377,2.750076114182463 l1.1974300500455426,2.8742456055145476 0.5182948821905207,1.956670641228991 m12.865481082409525,-39.11606436602129 l0.5729487487884206,1.0971544890044196 0.2882084059232187,1.44459227579723 l0.07085979475132835,15.32702708046613 m-11.863895704348494,-12.191194164810947 l1.687009239902122,1.5772821102502848 1.4807193873828246,1.9821949785978559 l1.183377889169331,2.13544972133598 0.7226422261404036,2.0342923182724335 m19.005184321256873,-10.186161076701415 l-0.2876163156922844,1.9107749455218737 -1.0998778192832548,2.3102448927921184 l-2.1399551095749985,3.0606108905141385 -2.246250701853539,2.4266882027598835 m-16.84095230428584,5.23959355900849 l0.6113370600011248,1.1802176488084781 0.13139504490548362,0.8812935425838183 l0.10099095088747459,29.747939265572242 m0.056331190535496886,-31.28968423145331 l18.59694280585723,-1.7534920977502761 1.3576048946618442,0.2501158455248448 l0.7612083275798588,0.8812238470555863 0.3798477793230891,2.012060874961476 l-0.5106270269339014,30.297317964419825 -0.4059683383513486,1.0238635556967912 l-0.5791590500141529,0.31011390247458265 -0.6879822084720589,-0.22510933625683147 l-2.6611793029259014,-2.471332766779694 m-16.35730295715189,-21.68285325533528 l13.916353696116355,-1.2544320414970114 9.137982577527625,-0.5871563129541039 m-22.664487333017153,11.101430131456974 l21.095298865703537,-1.4142738267151005 " fill="none" stroke="black" stroke-width="1" /></svg>