<?xml version="1.0" encoding="utf-8" ?>
<svg baseProfile="full" height="124.21876348668751" version="1.1" width="99.62306755404755" xmlns="http://www.w3.org/2000/svg" xmlns:ev="http://www.w3.org/2001/xml-events" xmlns:xlink="http://www.w3.org/1999/xlink"><defs /><rect fill="white" height="124.21876348668751" width="99.62306755404755" x="0" y="0" /><path d="M25,25 m0.0,0.0 m30.554857188422552,14.457075941588812 l0.07370748125063119,0.3410028234206952 -0.5427633043088094,1.1586603455930482 l-1.7016202241823586,1.8737179017482646 -2.287266112123308,1.8179560001250252 m-3.950662740648835,0.6817541213258639 l0.445440331830384,0.5144021077705117 0.8581654844085634,1.1047610600563893 l1.2640951514644205,13.464973819819319 m-0.8546756798054675,-14.30099299581891 l17.005833541884403,-1.589411547436922 1.3206570296204063,0.11817370412171795 l0.8338258266867982,1.522940214742905 -1.8545984495991734,10.949283824200526 m-16.22589898918064,-6.43038681403061 l17.18422663172353,-1.3790268166996325 m-16.93428763894864,5.826923105900632 l16.05919305067531,-1.1458413386825497 m-15.675828941400846,5.5493760197417945 l10.746895781240958,-0.8477423934040047 5.172045601881368,-0.15719664675218667 m-23.66186487076191,4.967232713006039 l1.550631568051152,0.20676358634165937 2.0872309121341637,-0.06354289956635084 l25.839366453004512,-1.52587071968614 2.316362470728387,0.15595588337697258 m-17.096418392165027,7.611819044251155 l5.129371777244419,-1.2027042888131003 1.8068912829809185,-0.18567797646114778 l0.9840515194344643,0.12553273048683836 0.3763120826124053,0.27579049520747945 l0.20513110965066447,0.8542122336558502 -0.1691157224727612,1.3056532997053938 l-0.9558586723591873,1.8861649986472668 -1.8135121082532306,2.3749813121406036 l-2.4098558593680006,2.1633625925478097 -1.0326589250928957,0.3218771955963398 l-1.8410843197645466,-0.23897195063859003 -1.3256598831848805,-0.7426505650623917 m-19.14620930863332,2.213815349455644 l2.6679498658453062,1.1723103886787205 2.163652168803245,1.2110196099241235 l1.654572392256686,1.1792082110542639 0.8793399321393781,0.9759847112129378 m0.7650528778796861,6.063509252307345 l0.33945575056850763,0.506226175964882 0.20204033894885318,0.3327013912749374 l0.002408745754703401,1.6608170485749012 -1.446000529118341,3.3913804495636333 l-1.568169952588321,1.8989742206479159 -1.5581114484670646,1.6468770568979323 l-1.8808503137114991,0.14560949906389717 -1.713971227946092,-0.6132038691410943 " fill="none" stroke="black" stroke-width="1" /></svg>