<?xml version="1.0" encoding="utf-8" ?>
<svg baseProfile="full" height="97.62628691009755" version="1.1" width="94.90227537908966" xmlns="http://www.w3.org/2000/svg" xmlns:ev="http://www.w3.org/2001/xml-events" xmlns:xlink="http://www.w3.org/1999/xlink"><defs /><rect fill="white" height="97.62628691009755" width="94.90227537908966" x="0" y="0" /><path d="M25,25 m0.0,0.0 m28.60953289975399,12.908045217483698 l0.07845374035928382,0.3418770551901166 -0.45049386513560286,1.13109397515619 l-1.316272322947704,1.984817383141644 -1.7283808232212272,1.8784318317725368 m-4.985714147726667,0.8729916599854799 l0.4582595395190899,1.2554487282204043 0.04980947460704998,17.10420518384671 m0.14628872954176034,-17.823208688163064 l14.915500938700012,-1.5744849220376889 0.6959873431753733,0.02611578323999925 l0.5017943500008173,0.2801370166269947 0.5902820938441167,1.19934998132829 l-1.6890869054131685,9.319839560449848 m-14.839495474048185,-4.557935862475036 l10.225221430942963,-1.0826156568231284 m-10.055802563710493,5.763338084493685 l14.916256978882673,-1.3522341671523688 m-14.778761890532719,5.770731347535316 l20.44440194866444,-2.0890769463001795 3.1144939038338637,0.023701358050338753 m-23.252443955930275,7.1929331781840355 l10.372100751928155,-1.3359502956054399 11.280893795740644,-1.2275764251185401 l1.0615781116854066,0.5284713640902142 0.28519584316026725,0.8748457598536536 l-0.12947029940227917,0.5437156638796309 -1.405058503264659,2.045701926661404 l-2.001113462470152,3.1151821863982323 -2.2555541204899106,2.579549080065329 l-1.015701916124716,0.601360339843978 -1.0365423895175647,0.061914098007792226 l-0.9056084666924805,-0.4747539349633004 -0.7176692991346273,-0.9818973984723459 m-23.02740764520378,-7.752569377274205 l0.048639588490239166,3.575714901257397 -0.5110663428325721,3.0436760982090783 l-0.7372508315397254,2.0774468623820237 -0.9839353166516357,1.7779549591288515 m8.0344088829019,-13.655489324503646 l0.7391280502845272,0.9967350325779448 0.3854120675862248,1.5425011788500982 l-0.1531182169766178,3.3322547238982896 m5.355333460682443,-6.4532379186729205 l1.3070009270211802,2.605614375480481 0.8241019052912246,2.6871046988127447 m4.588765443042264,-6.573194402803413 l1.5833625957049018,1.0029000661374348 1.435193445105697,1.4770710906491094 l1.0940635891130515,1.4616144465202559 0.45818413644947353,1.0744672935305064 " fill="none" stroke="black" stroke-width="1" /></svg>