<?xml version="1.0" encoding="utf-8" ?>
<svg baseProfile="full" height="108.20462101568333" version="1.1" width="106.22782386686976" xmlns="http://www.w3.org/2000/svg" xmlns:ev="http://www.w3.org/2001/xml-events" xmlns:xlink="http://www.w3.org/1999/xlink"><defs /><rect fill="white" height="108.20462101568333" width="106.22782386686976" x="0" y="0" /><path d="M25,25 m0.0,0.0 m15.559469227366147,16.4667049087232 l0.520320083382533,0.14632476092883187 1.831373071992279,0.06919461306008111 l24.073658045641157,-2.1870830990939907 3.751792787133346,-0.16363244401792412 l2.5677145353480335,0.2212817993658608 m-34.328916165391355,9.008355107239444 l0.8898357678719394,1.6396734263445978 0.6543107966258072,2.4041413598084977 l2.3179856731393675,12.258583583210864 m-2.339853494531433,-15.375990126993338 l27.231743675633943,-3.365140544268655 3.513977497779374,-0.29367047603673135 l1.302917015070842,0.3033457775560591 0.6896071304083947,0.8207964538828769 l-0.019175528239997332,0.626665511650533 -2.13307448544074,9.584119675470971 l-1.7627994154575846,5.597432795535906 m-27.249336191538703,-6.105206825170819 l22.49735093801103,-2.455632466494709 m-21.165026943295068,9.329992754150288 l26.395615240586658,-2.7786522088937926 m-15.254662073261779,-26.667354009926772 l0.8030629013390586,0.9314602860903621 0.49097202695964137,1.5864496478920147 l0.1632864181895351,25.382831365445952 m-19.772746436982185,9.92171074144544 l-0.21771445630139277,1.451440247009752 -1.1006457193167964,2.8807624910238347 l-1.5785918648036272,3.0752512804792174 -1.305966932261594,1.9199507211996287 m10.989962939779522,-10.47802927113759 l3.8350390979284654,4.606948161020859 3.182252373329396,2.990721466871705 l3.689411222780977,2.2385751555927222 3.714976496059046,1.2886705990376064 l4.739135191889927,0.835973198431156 4.283324787211364,0.34722224999491846 l5.077243772320663,0.14043234925447678 3.373030520810938,-0.2273899472238254 l1.0131259860383632,-0.3207825517071343 0.48481684836597466,-0.4574596422073449 l-0.0032820475496077067,-0.5734278361933334 -0.42873948716398946,-0.6900769414518904 l-2.131612239630958,-1.6447888644403823 m-19.162193364712483,-10.546470368610851 l1.611029692265394,2.703818593881501 1.1585631980867486,0.9632000200067654 l0.5878420194781419,0.028741991682906348 0.5647318532179917,-0.3462228982432025 l1.068461403769164,-2.032602343841575 m12.584656602499672,-2.2209860692810115 l3.116438713293359,1.891177889139998 2.001084020755641,1.7377206362500226 l1.9175964589513872,2.3763505442151325 1.9344446814378273,3.3450048504209944 " fill="none" stroke="black" stroke-width="1" /></svg>