<?xml version="1.0" encoding="utf-8" ?>
<svg baseProfile="full" height="104.31985714117918" version="1.1" width="105.4871046695698" xmlns="http://www.w3.org/2000/svg" xmlns:ev="http://www.w3.org/2001/xml-events" xmlns:xlink="http://www.w3.org/1999/xlink"><defs /><rect fill="white" height="104.31985714117918" width="105.4871046695698" x="0" y="0" /><path d="M25,25 m0.0,0.0 m12.137451764794998,11.332631274742134 l0.5420675048733272,0.15298874767282356 1.8720583932623713,0.07295949909961279 l25.193265694437827,-2.32045342207479 3.8348468287008077,-0.17673882965380847 l2.685198847525037,0.22916199043541574 m-35.84163562518897,9.586874677006623 l0.9453596461751193,1.7120620422337536 0.6878217488309337,2.457384475253764 l2.4844138332998624,12.739558192677748 m-2.4584459808473613,-16.00775557515646 l28.669714796286602,-3.4712669646906766 3.7168205761249884,-0.2932216408030298 l1.3621714325117928,0.32352202884938436 0.7214569696901013,0.876921088111553 l-0.03567158543755391,0.6523043516227148 -2.242053317509478,9.959115019248022 l-1.8213434646456286,5.880190864862231 m-28.7430756404581,-6.436593826946082 l23.592322465256718,-2.5529915429354886 m-22.17415297135495,9.685196465144672 l27.631097418041684,-2.843248566690133 m-15.937055047590466,-28.164207380697455 l0.8153985028085399,0.9609770849810201 0.5175249493055443,1.6631740655373777 l0.1739086571260201,26.164821237043192 m-20.397392132055074,10.483349995367814 l-0.22667520776870667,1.521039166408566 -1.1843363841600953,2.914318630711173 l-1.7005682125334531,3.1289863840785994 -1.4281908368946494,1.9732152927548836 m11.773534981753588,-10.747608102687916 l4.019231880293802,4.752881263662343 3.3517113800171408,3.1141430678093207 l3.9061902508584527,2.3134819349975713 3.9110363428995307,1.3179780856294423 l4.9017336668265,0.8443860107599491 4.5214898204361855,0.3751556411701019 l5.382965780279243,0.14516441564322285 3.545052863315327,-0.24015132818809728 l1.0373636382719047,-0.3306231911637533 0.5192756442748448,-0.4867726106454827 l0.026285694135412645,-0.6017000493810626 -0.4142823072903724,-0.7241360778536956 l-2.151573168592479,-1.7161645766703604 m-20.175667429305193,-11.084410335088158 l1.7226992959220144,2.7866634707699993 1.2240580171599018,0.9730181553898694 l0.612045659565496,0.03935419190558991 0.5910862411716816,-0.34901236979448 l1.1099033278758583,-2.063242550387898 m13.334864536347522,-2.3725268028616164 l3.234353251287391,1.9332224123257682 2.094300011584941,1.8051621890493414 l2.0043323520356573,2.490164496574651 2.0128093158376714,3.5050560518100413 " fill="none" stroke="black" stroke-width="1" /></svg>