<?xml version="1.0" encoding="utf-8" ?>
<svg baseProfile="full" height="97.33431462607797" version="1.1" width="96.51821233122133" xmlns="http://www.w3.org/2000/svg" xmlns:ev="http://www.w3.org/2001/xml-events" xmlns:xlink="http://www.w3.org/1999/xlink"><defs /><rect fill="white" height="97.33431462607797" width="96.51821233122133" x="0" y="0" /><path d="M25,25 m0.0,0.0 m27.948043299244393,12.010249548319583 l0.35162832500272484,0.19281927955683414 1.9257645748614733,1.6973356952528975 l1.2417332642204832,1.9302652841670171 m-18.398857886422622,3.2868642361421396 l2.435493264253128,0.2513200283112907 14.981353894263851,-2.0048074178358677 l14.366645238996185,-1.2051195286124121 1.6664083568017167,0.292739503073106 m-26.431014650286055,3.3145018353338283 l-0.38375533867877293,2.6447238049079673 -1.0049190921394262,4.915101613366845 l-1.7695576970058498,6.872661450237862 -2.4090103875887294,3.4454589995932907 l-1.6514245638023846,1.2870160083251063 -2.0121832847678576,1.1305682968238768 m13.578004389181856,-17.58495901961191 l2.002009117858259,0.14776157153301844 13.732407761501586,-1.6577532375306328 l2.322473796855644,-0.14517727446931103 1.0656556313076344,0.18297097084675812 m-11.088984091138908,-3.3009250278022577 l0.624806797514366,0.6006652592154262 0.2562624499022058,0.6895091095926473 l-0.042427649107902185,8.518639145062052 m-7.528164432327344,0.8632262626561572 l0.6249819676145928,0.12797927893516683 0.6527226935611213,0.010408326253773841 l12.619069772099618,-1.3891494624119993 1.9681731987675195,-0.09125017334405638 l0.8422363197666922,0.1577538481405355 m-18.893202211355167,6.147399107091613 l2.022336250100021,0.17898842734905332 14.919881348038363,-1.7296477475416445 l3.2220857628616253,-0.1924753442781188 1.4359421240579118,0.15944723663343435 m-21.713435694570364,6.614206395226326 l0.6702503281596974,1.237472921159517 0.8612646676387168,7.727525416409052 m-0.5900111710767375,-8.234037071631597 l15.737017964745705,-1.8402564142858007 1.4028354768099975,0.022322070342934933 l0.6639607530865816,0.6288079132770139 0.014585749155796865,0.5332630391279277 l-1.8634218439984584,6.198721153644831 m-14.679403730675014,1.4362744454287306 l15.335307130294673,-1.2703963755788916 m-26.706479673626212,-28.62985094926533 l1.9064500509633189,0.7079752169012946 6.909268399343685,1.1391477659283422 l8.538787983382491,0.9014910046933129 7.5709829003677385,0.5489200381732086 m-33.73415432680636,6.111013280170032 l3.0069310606051025,0.2507213652852805 23.608530939875155,-1.7911142873862798 l5.6592155140445195,-0.1978520824872037 2.3219678891725852,0.22488241339670567 m-10.80270929063781,2.3826972885206255 l0.38690919386103517,0.7970528559977261 -0.011219628248842565,1.021131866105096 l-0.15102885197604643,10.066509867657224 -0.3241661864160092,0.6668838289478788 l-0.4928707964179619,0.14756387319942987 -0.6115583737499888,-0.18203891611834347 l-2.4275358000587253,-2.050114629908634 m-9.82617711573929,-6.118412805886006 l2.493219154127021,1.915801859879928 1.3733264826680742,1.7166507045234203 l0.6104151657789899,1.2063808039782578 " fill="none" stroke="black" stroke-width="1" /></svg>