<?xml version="1.0" encoding="utf-8" ?>
<svg baseProfile="full" height="98.3539791221597" version="1.1" width="102.49087845526114" xmlns="http://www.w3.org/2000/svg" xmlns:ev="http://www.w3.org/2001/xml-events" xmlns:xlink="http://www.w3.org/1999/xlink"><defs /><rect fill="white" height="98.3539791221597" width="102.49087845526114" x="0" y="0" /><path d="M25,25 m0.0,0.0 m8.329561871219159,15.902928454868034 l0.01058363178345396,0.5809438030051892 -0.5910329695360633,4.423629728978752 l-1.3111587694382725,5.18587891148946 m10.155864022946451,-13.20399690082117 l1.2827765768154247,1.0352901293308996 1.817268365386886,2.0415677915092254 l1.07512796730247,1.453476228409304 0.6539039890379413,1.3101222931925727 m-8.033109676954453,-16.180503239666503 l0.5148546239423796,0.7376555544655258 0.2817167281231331,1.439750370494344 l0.03890325912255776,43.62723599690407 m12.49399939369358,-43.91705374609513 l0.964183207851937,0.2996711965677879 1.7895895930546768,0.03271785471437971 l11.862290562387303,-1.3509308245146578 0.8957065991293313,0.20629325198792944 l0.43672283270676854,1.6220926343491209 -1.2575277475592876,2.434957900193303 l-2.1173080302994083,3.0834533056272995 m-11.931060763244346,1.5261279191574202 l13.41748986725606,0.18565430962332521 2.118642351479371,0.15371566829014813 m-15.917781427469956,-6.299426037951906 l0.5323122694111471,1.0331698219114072 -0.02061787098141848,26.939271549389492 l0.21938285371366098,0.5813020632871871 0.49264455040165706,-0.08019196632938119 l7.659561799937397,-5.474407654127546 m-7.8586177469226985,-14.59826036642864 l6.579398584453354,-1.2282297056388463 11.69528395094803,-1.5103369274058887 l2.311100403937642,-0.010984090748746653 m-12.349847164007267,-5.563858163650078 l0.6042368675087074,1.201704261213714 0.8964088239532073,5.285527853430342 l1.3426937029023926,3.991447516662857 1.8718210191779805,3.4510598512538473 l2.1058167344686773,3.007316215671652 1.6750161274321087,1.8265297320755949 l1.8305385730393642,1.5936596600753072 2.035678915928956,1.4001769450645714 l2.195205393833095,1.1146762466872426 0.8341927999395906,0.30115974139606816 l0.5578567637885965,-0.01863290839316928 0.29148548661753565,-0.3150230129140383 l0.009119557042302794,-2.325911632479599 -0.4483758837045698,-1.5270368755617165 " fill="none" stroke="black" stroke-width="1" /></svg>