<?xml version="1.0" encoding="utf-8" ?>
<svg baseProfile="full" height="97.35327033635403" version="1.1" width="93.04842690155971" xmlns="http://www.w3.org/2000/svg" xmlns:ev="http://www.w3.org/2001/xml-events" xmlns:xlink="http://www.w3.org/1999/xlink"><defs /><rect fill="white" height="97.35327033635403" width="93.04842690155971" x="0" y="0" /><path d="M25,30.46468258373679 m0.0,0.0 m10.453936609978022,5.470879373775874 l0.5082175269623992,0.12273078356463035 1.7458120311816545,0.08420612706980805 l23.012650531981727,-2.348534216452481 3.343437868084751,0.16071132765516127 m-15.136270986722542,-8.95467597934978 l0.662390189951428,0.7560230311188842 0.41679056947200976,1.4328058894424358 l-0.1196735366431827,18.531588938924017 m-11.17416023266307,1.3439040981722872 l3.094158713909924,0.107748828807539 15.97657345360909,-1.875904478808116 l3.207121757920265,0.18405118211332672 m-31.060133809988674,14.510789310504412 l-0.30645537481992974,1.4685308311214003 -0.8601894109836986,2.827425511299338 l-1.211461387846584,3.0385157724318335 -1.000455446135366,1.9062951124839527 m8.769525444358766,-11.774472067787821 l2.469693363129625,5.0091148532629015 2.454030186026962,3.2808466019679887 l3.435203035843529,2.971982535008782 3.083337085988072,1.6936400411901575 l2.735563314593591,0.9391936108652449 3.0780490862228773,0.6771929975430027 l3.342074501407172,0.323997736692459 5.593817591415622,-0.0564495932456841 l1.8681489828166826,-0.49324431421133424 0.5753684137166487,-0.36312290265987507 l0.25038180364345647,-0.4397403941120966 -0.39896676569247574,-1.153408755870025 l-1.2724160209134694,-1.4368564753634707 m-16.696580012422064,-11.453934577122059 l1.2027233316814023,2.4404802252890367 1.2845897170069054,1.4688247529361087 l0.7753803154864395,0.20572405180718256 0.35491365634351363,-0.22212893846928625 l0.5344159559729326,-1.2387971844273562 m11.497302639354016,-3.3948124433741613 l1.9599965809375024,1.2483910623302101 1.82403879389679,1.5997824931029618 l1.621814840947598,2.034273276225852 1.153731992549405,2.0366035352354404 " fill="none" stroke="black" stroke-width="1" /></svg>