<?xml version="1.0" encoding="utf-8" ?>
<svg baseProfile="full" height="107.19601800970318" version="1.1" width="107.37313387214647" xmlns="http://www.w3.org/2000/svg" xmlns:ev="http://www.w3.org/2001/xml-events" xmlns:xlink="http://www.w3.org/1999/xlink"><defs /><rect fill="white" height="107.19601800970318" width="107.37313387214647" x="0" y="0" /><path d="M25,25 m0.0,0.0 m10.358495927997838,19.569912227118063 l-0.019408450241979815,0.47201069703953247 -0.7339392042331098,5.461801051773279 l-1.3784792540827446,5.34677876560777 m10.564450428768641,-17.38332110385711 l2.433024632703883,1.0738974590207 2.7705948780610403,1.4041575903461136 l1.9387977336054407,1.6616329299516293 0.7345991523799381,1.0776666933187773 m-9.545415344349161,-14.474111069942694 l0.6001172971997304,0.9382870756740289 0.22839705636223154,1.7401856179361346 l0.016718545026624468,50.10440850858221 m11.411553146479454,-47.50449078654782 l1.258956966903021,0.1501085679701578 2.0364038116125873,-0.1590017417048236 l19.169481770630874,-2.3103742326748646 3.561278827559743,0.17412561139393373 m-14.325686547801572,-5.141107592663534 l0.5695070041592524,1.8588997967543581 -2.654403612476482,12.11183692050523 m-6.414791062995411,0.7637124622931031 l0.6859259924879948,1.2231274379226948 0.09410777181114466,1.22981028166106 l-0.012535984756446298,22.79147591073888 m0.3660890153692573,-24.874964957797253 l14.256016539774997,-2.095203073175813 0.6966573453406575,0.023690210910377565 l0.9162091268430496,0.533180062592771 0.5036644698514346,1.1942377067248933 l0.07537397332015354,0.9109515487983106 0.008266127190627083,22.864826439276825 m-16.56448465375597,-16.311159080403556 l16.143440449353182,-1.4617017144083893 m-16.018127543975694,9.057440847085829 l16.01329383968501,-1.2155757496062745 m-15.890390166934246,9.176892400937602 l16.13688382387135,-1.300598729292042 m-23.151717703030837,8.390379274825182 l2.0372097861058402,0.3323763177295475 22.93064345474525,-1.6862948935812 l3.663813520368492,-0.10717066249145521 1.9025409852113673,0.22472538286123037 m-21.06341351745577,4.791212088097022 l-0.29696799956017994,0.902713744650695 -2.2627441957352974,1.0013068495063324 l-3.3399164091859843,2.0127053345598043 -3.6261576478123962,2.650619583685909 m19.405811269398566,-6.957831987424424 l1.813174074357047,1.090078727010948 2.2234918386818547,1.9743474741611327 l1.903468468527371,2.1679452009678952 0.7699920264794249,1.4183779693096368 " fill="none" stroke="black" stroke-width="1" /></svg>