<?xml version="1.0" encoding="utf-8" ?>
<svg baseProfile="full" height="93.09490799237213" version="1.1" width="94.69906041580998" xmlns="http://www.w3.org/2000/svg" xmlns:ev="http://www.w3.org/2001/xml-events" xmlns:xlink="http://www.w3.org/1999/xlink"><defs /><rect fill="white" height="93.09490799237213" width="94.69906041580998" x="0" y="0" /><path d="M25,25 m0.0,0.0 m10.561227292720178,6.586401475071094 l0.5277216433615625,0.14202412476134182 1.8932090187915807,0.1694035593404971 l23.460761446065145,-2.399970072800048 3.4441601999638958,-0.16582934290697537 m-15.386198891153953,10.629245403657576 l2.827345766569773,0.1701978805234922 8.068627274380521,-1.1365049571107013 l1.4372687247645715,0.05080965589771559 m-13.489841312679797,-6.780984409397582 l0.40679880700104615,0.938436895434976 0.12779120984179917,1.1340905766423697 l-0.012582282315236809,15.483656789857832 m-11.16251210249832,-12.43929992121106 l0.5937644277175389,1.607466481929596 0.364577408073412,10.537370718450058 m-8.98290813954461,0.4510685455563637 l3.2089552659845575,0.5688429059797465 21.879275957671656,-2.2780847982792904 l10.938077938689391,-0.8020650396541131 2.082290339780922,-0.01919941184758585 l1.9112504226243578,0.5925407853975845 m-30.50331895286411,10.101674965524998 l4.277255592841159,0.11081873830644695 18.375701543652433,-2.059147771271 l2.3781947702457913,0.06138322261858548 m-24.67120718139192,-6.2451109408934675 l0.4514060067405523,2.269690133865133 -1.2988345141038067,9.084814190751072 l-0.9440532938887486,5.135616077959827 11.36822281995617,1.5955515302176564 l15.300731060103342,-1.4300850094795499 2.7049067855242552,-0.03081311695569725 l2.520911811884983,1.036534259093133 " fill="none" stroke="black" stroke-width="1" /></svg>