<?xml version="1.0" encoding="utf-8" ?>
<svg baseProfile="full" height="106.96479563716491" version="1.1" width="98.8577364746284" xmlns="http://www.w3.org/2000/svg" xmlns:ev="http://www.w3.org/2001/xml-events" xmlns:xlink="http://www.w3.org/1999/xlink"><defs /><rect fill="white" height="106.96479563716491" width="98.8577364746284" x="0" y="0" /><path d="M25,25 m0.0,0.0 m7.2247681836370665,20.05933592208556 l-0.01847846220389099,0.662455107142673 -0.6454702787212305,4.717722203404846 l-1.6242580014279995,5.630345271828757 m10.736753362902775,-17.001459424412097 l2.3833013185352625,2.5370428978130426 1.1052419506536177,1.7651624694904058 l0.6015227059099886,1.4824017004780605 m-7.4368786166057355,-16.371775356652762 l0.6879772790351731,0.9490604692812156 0.383941122870097,1.8794054707344023 l-0.1375865355946454,50.26605909677063 m10.941370580496002,-48.04728080338997 l1.3191758747188482,0.19559994148927318 1.8009461576858914,-0.14793675061043177 l18.566484496130716,-2.4520634349834616 2.9689253366064636,0.1686575528905788 m-13.658300425864006,-5.485421823272461 l0.5846483372416663,2.1150511267378342 -2.4817972443220317,12.754199388252689 m-6.016836121071019,0.8153891373573742 l0.6266131208076028,1.9262672452083323 -0.08448320810658566,22.958321081455757 m0.6272338948642382,-23.62730911108678 l13.955444510835116,-2.2761186795682153 0.7738642249414109,0.01571426295656542 l0.9208391288443014,0.4966235740518541 0.4960076587902564,1.1749313884652892 l0.07197637075235376,0.8847096887378545 -0.3742154876738441,21.842563067786926 m-15.989923362472469,-15.54859276505452 l10.737711118973207,-1.1986921057977635 m-10.675999643265275,8.542356419086328 l10.462889717586974,-1.0396423015705263 m-10.406683954900366,8.786205775511092 l15.914665331977607,-1.6640637032794816 m-22.765659169266943,-13.441130892834131 l0.54068038869877,1.8015221534511063 -0.028952747791930872,16.23247688459501 l2.2638703242868585,7.596489647777911 21.513895630106834,-4.499443170410609 m-27.082906049666857,-8.66460617368716 l2.093380732991463,1.7610564034516718 1.8068144109486588,2.77202712821668 l1.5750832307327614,2.7391841632795138 0.9728555684426358,1.8168956472651747 m15.497599626705325,11.08509984672087 " fill="none" stroke="black" stroke-width="1" /></svg>