<?xml version="1.0" encoding="utf-8" ?>
<svg baseProfile="full" height="111.6413943492565" version="1.1" width="89.46674592535565" xmlns="http://www.w3.org/2000/svg" xmlns:ev="http://www.w3.org/2001/xml-events" xmlns:xlink="http://www.w3.org/1999/xlink"><defs /><rect fill="white" height="111.6413943492565" width="89.46674592535565" x="0" y="0" /><path d="M25,25 m0.0,0.0 m7.385269860413975,11.397147507392233 l0.48228726916281206,0.16260684613749396 1.5883662917089862,0.11249279688964327 l3.1120470045687707,-2.245001023788151 6.146755499925307,-2.180202466659084 l0.7916146062076782,0.22196289532800678 0.35760525658772496,0.6290414972187475 l-0.16567071911988981,0.8243608561308075 -4.839813628883551,11.698133610647576 l-2.283471737532441,4.321041437513269 m-6.0152353563684,0.8358523198061687 l1.6178993564561552,-2.764603564513038 4.252247318820016,-2.384654244519348 l1.3526481196820783,-0.2384915939633903 0.38525483142316913,0.2474833349283894 l0.21399082944207393,0.5688680814554556 0.004595765445127879,0.9516104838381717 l-0.5137378287277282,14.454100049980477 -0.042295876715388314,4.9395300575478425 l0.09190036657886337,5.719992772796472 0.22692236264511575,1.856282253674977 l0.40735773248798524,1.6734393418249227 0.6044773090690677,1.504035937372196 l1.826006392253442,1.0841948588017432 2.0381609048083575,-0.036290881112675845 l1.0394498339589036,-0.5494528327478426 0.6953185233468425,-0.8921660027694873 l0.3861235946438357,-1.1723498445929776 0.2001322903302219,-1.516660189926167 m0.9345770669477701,-44.871955376322504 l1.3918902623171536,0.3875786126901452 1.0640654324115892,-0.1734435177764448 l9.257156755521839,-3.12613460574865 1.043653726223328,0.006084965806841111 l0.45838605100710333,0.38656440568304873 0.22943753155074675,1.8609943822577264 l-1.3165477633943437,12.765946493915466 m-7.680476238261742,2.2251152740659546 l6.829597210402844,-1.8308270931212982 2.5793931850315297,-0.11960990082316175 m-10.38942339712413,0.831572592539351 l0.2733941461716113,1.7699973032987528 -0.03651054080661778,2.7071592230720367 l-1.7378755249963114,9.625916528363033 0.01188812896536872,1.0124589894402942 l0.2622962803482747,0.5916762517110433 0.5115370519936476,0.20449957844146194 l11.833599282903316,-3.025493765677614 1.2081789434120196,0.17107548431632003 l0.6865527471419153,0.366194605537097 0.6152609424682537,1.0080060373649962 l0.09050847250138461,0.7681885049789701 -0.3502690772060421,1.8245053345224604 l-1.9437708163478595,10.166352468791095 -1.7062314012999327,7.075540853445577 l-1.7363226473902782,5.402659711779465 -1.5157376873275576,3.5932046568938345 l-0.9644904556178879,0.815262055118764 -0.44969437568989035,-0.0110339765328491 l-0.7800655739810245,-0.6410084818018805 -1.1561861154974054,-2.004944613646299 " fill="none" stroke="black" stroke-width="1" /></svg>