<?xml version="1.0" encoding="utf-8" ?>
<svg baseProfile="full" height="109.44112214958295" version="1.1" width="109.49251404497772" xmlns="http://www.w3.org/2000/svg" xmlns:ev="http://www.w3.org/2001/xml-events" xmlns:xlink="http://www.w3.org/1999/xlink"><defs /><rect fill="white" height="109.44112214958295" width="109.49251404497772" x="0" y="0" /><path d="M25.00000001345851,25 m0.0,0.0 m-1.3458509862118717e-08,5.240849852561951 l0.6280513852834702,0.23529142141342163 1.4912118017673492,0.11732676066458225 l2.7618950605392456,-0.32564442604780197 14.19804334640503,-2.887195348739624 l2.167742997407913,0.08290332742035389 m-10.847828388214111,3.589698076248169 l0.595974400639534,1.0268256068229675 0.2018931694328785,1.281982809305191 l-0.0065740011632442474,15.405665636062622 m-10.60870885848999,5.106061100959778 l1.1719007790088654,0.5253505706787109 1.3064052164554596,-0.3088769502937794 l19.1404390335083,-10.264612436294556 m7.27854311466217,-17.986398935317993 l0.7485220581293106,1.6869539022445679 -0.2633017674088478,5.4064178466796875 l-0.7148048281669617,5.824146866798401 -1.1167685687541962,4.753943979740143 l-1.3583478331565857,3.615213632583618 -1.3475947082042694,2.544282078742981 l-2.306257039308548,3.1016185879707336 -2.1593593060970306,2.060941606760025 m9.838863015174866,-27.691123485565186 l13.385913372039795,-2.0605771243572235 1.006048545241356,-0.028454589191824198 l0.7764070481061935,0.3214981406927109 0.4600120708346367,0.6433607637882233 l0.056909178383648396,0.9375206381082535 -1.1533107608556747,9.073026776313782 l-0.4367118701338768,8.238663077354431 0.24588502943515778,2.752053141593933 l0.8383738249540329,2.117440551519394 1.5827038884162903,1.4237774908542633 l1.5429723262786865,0.5345544591546059 3.540124297142029,0.16778867691755295 l3.4533709287643433,-0.2606932446360588 1.446012556552887,-0.41426602751016617 l0.9032566845417023,-0.6617685407400131 0.48188265413045883,-0.9564751386642456 l0.19972888752818108,-2.0897378027439117 m-24.98499631881714,-11.460205316543579 l3.753727674484253,4.250919818878174 2.1358484029769897,4.117508828639984 m-33.87321949005127,24.37845230102539 l-0.33873263746500015,2.3233890533447266 -1.5706752240657806,4.393807947635651 l-2.2537674009799957,4.6992674469947815 -1.951952874660492,3.0432969331741333 m13.204022645950317,-19.211153984069824 l4.086160957813263,6.828007698059082 4.617616832256317,5.48952579498291 l3.1180214881896973,2.6521772146224976 2.251944988965988,1.5010535717010498 l4.984314441680908,2.363485097885132 5.718438625335693,1.513264775276184 l4.837781488895416,0.5779311433434486 5.3612178564071655,0.10106049478054047 l5.82341730594635,-0.44593285769224167 2.1199920773506165,-0.7213659584522247 l0.3790907561779022,-0.5303625389933586 -0.08014671504497528,-0.6641378998756409 l-1.552814096212387,-1.7926619946956635 -3.433687388896942,-2.516579329967499 m-21.555683612823486,-16.598342657089233 l1.8261969089508057,3.733315169811249 1.1908553540706635,1.5105310082435608 l1.0034970194101334,0.21779494360089302 0.6748909503221512,-1.5119889378547668 m14.032191038131714,-5.2022916078567505 l3.379010856151581,2.2789187729358673 2.698105573654175,2.320837527513504 l2.5114762783050537,2.7797558903694153 2.2508515417575836,3.3104830980300903 " fill="none" stroke="black" stroke-width="1" /></svg>