<?xml version="1.0" encoding="utf-8" ?>
<svg baseProfile="full" height="101.21937327231979" version="1.1" width="103.54703286974771" xmlns="http://www.w3.org/2000/svg" xmlns:ev="http://www.w3.org/2001/xml-events" xmlns:xlink="http://www.w3.org/1999/xlink"><defs /><rect fill="white" height="101.21937327231979" width="103.54703286974771" x="0" y="0" /><path d="M25,25 m0.0,0.0 m13.289071531789793,4.806332954186959 l0.3640037641116593,0.41957303346006847 0.5142305264654573,1.7768860799918562 l0.015609563099423532,25.60605006637613 m-9.315854936686113,-13.432500467467387 l0.564982771474926,1.4264647528002932 -0.01287854144265306,11.887749380066703 l-0.39470255874320864,1.058976855477894 0.09773832985447276,0.5474329225208752 l0.9211610144299106,0.2076456021860794 m13.507649148348765,-20.6240563985721 l0.1905509380675312,0.9653116888868343 -0.06350965157651028,1.2728326910762113 l-2.639534611749216,13.419901892793986 m14.714433453414074,-25.246271590325787 l-0.22580996832820407,2.5242365944334932 -1.265403419189454,4.789382692569945 l-1.755716444978628,4.164861513106683 -1.9738667978355218,3.339318562313444 m5.2605627369277,-6.216522979131192 l2.057748279200521,-0.2132695971847761 10.53065293253786,-2.047984611726776 l2.753781564521126,-0.18168151246701714 m-19.089594001606294,15.177691484310442 l2.9199834333698593,0.17912995164199552 14.6195464596402,-1.8002024561556043 l4.158757351885483,0.11634520110961141 m-26.944648797266954,15.11818266544299 l0.7220314678931559,0.25789438234018136 1.4979724158753185,0.13978883123814226 l20.979726585967494,-5.802385994192054 5.348119148236738,-0.313769715155533 l2.200239182038985,0.48758184799422516 m-16.939773008355242,-33.60671699737166 l0.6938497337859342,1.358347237985509 0.1908812574088752,1.2200762957054279 l-0.05235810229137804,48.43674041205369 " fill="none" stroke="black" stroke-width="1" /></svg>