<?xml version="1.0" encoding="utf-8" ?>
<svg baseProfile="full" height="96.3731288565748" version="1.1" width="93.40477689991417" xmlns="http://www.w3.org/2000/svg" xmlns:ev="http://www.w3.org/2001/xml-events" xmlns:xlink="http://www.w3.org/1999/xlink"><defs /><rect fill="white" height="96.3731288565748" width="93.40477689991417" x="0" y="0" /><path d="M25,28.15064664078099 m0.0,0.0 m9.72671223901617,7.681737590009005 l0.4850919114864187,0.13334513861237143 1.816609092523922,0.12480821236865532 l23.801797703834247,-2.1604488978662886 3.7194952273290394,0.14367171008205062 m-15.205589990948262,-9.073760393986786 l0.6433639254971776,0.7842717852452005 0.3653418562875189,1.4465130311004588 l-0.06907210534065011,17.97379757462857 m-11.902591937621017,1.188450605304705 l3.228616067003115,0.1584942536896255 16.911244419785973,-1.7919297559120628 l3.4292160011800368,0.18338901786495637 m-31.62897201164809,14.4718114420353 l-0.2916490213588156,1.5319607271148208 -0.9015871359018224,2.804600560716901 l-1.2240553056702481,2.9591476558444394 -1.0298575736058564,1.8493887287088555 m8.801396610169792,-11.833879999202708 l2.553006589346164,4.862913788008153 2.5097939605432815,3.2723443409294948 l3.4757899587332046,2.8336143924004857 3.183822696542804,1.7290003466345383 l2.7258232862552054,0.9281706676889114 3.097007058776642,0.6629888478355624 l3.373582002768441,0.35808084593861145 5.712113658620962,-0.036670975364370445 l1.8848528027101523,-0.4401480369603698 0.5247323238663218,-0.3461128672579475 l0.2190205269240642,-0.43275311014081086 -0.37790211896379994,-1.1045807247449329 l-1.264726768662996,-1.4078005115164764 m-16.609232294394385,-10.98433112570435 l1.256826351164644,2.4120658970190134 0.9174381225086248,1.4395390868964655 l0.7196668018180947,0.4284073200556481 0.37657672297537204,-0.09033254653925163 l0.5788580046747259,-1.2502629306387576 m11.092407616350956,-3.7446690679607144 l2.0536878859700023,1.3388800595451238 1.8019902183829424,1.542220866112285 l1.625523402465631,1.9519953224815645 1.298608118518468,2.1546854028434512 " fill="none" stroke="black" stroke-width="1" /></svg>