<?xml version="1.0" encoding="utf-8" ?>
<svg baseProfile="full" height="125.13518284256324" version="1.1" width="104.70586338545789" xmlns="http://www.w3.org/2000/svg" xmlns:ev="http://www.w3.org/2001/xml-events" xmlns:xlink="http://www.w3.org/1999/xlink"><defs /><rect fill="white" height="125.13518284256324" width="104.70586338545789" x="0" y="0" /><path d="M25,25 m0.0,0.0 m44.28404466763492,5.926423976501017 l-0.10440106814844845,0.4379043426346214 -0.7356862315900179,1.2959055912966126 l-1.7976064543390964,1.4685078542865986 -3.2291302172630845,2.768421728463318 l-7.83285234645204,2.3581109217755354 -7.924628106504639,1.6763859673246764 m2.6319602209508908,5.440544894984308 l0.7496361347355186,2.340604461430192 0.8344266135262018,10.254773515442372 l-0.014067273721883237,12.905405046074025 -0.6715513149953382,9.759222915123509 l-1.1344193479703542,6.8657689820159735 -1.3142033442938132,4.212599790786255 l-1.640781753348161,3.334618782074068 -2.0789056440560936,2.6670726096692174 m8.135390440571623,-46.3633069616448 l24.113998368261463,-2.7117644763735846 1.0582968256233236,0.07039534739151918 l1.0698790747592943,0.9084944149609745 0.2834397437893568,1.2845587393342774 l0.02302439828825278,43.43377606968206 -0.3302244878996612,1.6178766650789667 l-0.5441980076992106,0.7365793773570442 -0.6879868140981449,0.08363594764839695 l-1.5307942172766937,-1.0558101904775816 -1.890455013720197,-2.2413776280842725 m-19.44107026662139,-21.997411555717612 l16.58603357205876,-1.854328181953373 m-16.3741391594494,13.783193908960373 l16.657842886787847,-1.727633858666675 m-6.083986135452972,-23.34868923493881 l0.5891883603539924,0.9197906976758516 0.3197670865008115,1.7299514919103405 l-0.1097219531548634,38.15498089053787 " fill="none" stroke="black" stroke-width="1" /></svg>