<?xml version="1.0" encoding="utf-8" ?>
<svg baseProfile="full" height="100.33536251485502" version="1.1" width="101.7921118030784" xmlns="http://www.w3.org/2000/svg" xmlns:ev="http://www.w3.org/2001/xml-events" xmlns:xlink="http://www.w3.org/1999/xlink"><defs /><rect fill="white" height="100.33536251485502" width="101.7921118030784" x="0" y="0" /><path d="M25,25 m0.0,0.0 m12.660257238800696,12.188069070259886 l0.41168614381252777,0.3607276474001059 0.44972417281159915,1.4406261225912311 l-0.025833929484516873,23.47591593031277 m0.6905052996705457,-25.417041922981493 l18.887735594500352,-2.01449830162983 2.126532713654417,-0.012654727257604718 l0.9908365509773484,0.4242385762039018 0.39550405438179737,1.6879164894716583 l-0.07682316798792718,22.923622523821088 m-22.015098740430172,-14.80082766384261 l21.2573292392063,-1.9577409673138242 m-21.007393166515772,9.385629518852129 l20.61240423894342,-1.6831408852884366 m-20.43797137452585,9.18080745944404 l20.892555450803137,-1.565565501413776 m-34.48400981393692,9.157387096776311 l2.579848243803912,1.4789880898750747 2.7222570131010446,2.3439672441675095 l2.050937405407357,2.0091901113431674 1.3186558746459134,1.7297466040637324 m17.03337574324837,-10.275129482039288 l1.8986957536345574,1.593069272039983 1.988143628635475,2.4503520040502624 l1.5308809610199992,2.398905617018475 0.8730837185986077,2.0717113676269614 m10.107651927778981,-9.204680217464784 l2.6136137387093115,1.7226541608670471 2.6769625993446455,2.418516372485197 l2.1114930440954374,2.540114880152878 0.9585716463737955,1.9261501513622605 " fill="none" stroke="black" stroke-width="1" /></svg>