<?xml version="1.0" encoding="utf-8" ?>
<svg baseProfile="full" height="101.74469964750409" version="1.1" width="101.07392741134015" xmlns="http://www.w3.org/2000/svg" xmlns:ev="http://www.w3.org/2001/xml-events" xmlns:xlink="http://www.w3.org/1999/xlink"><defs /><rect fill="white" height="101.74469964750409" width="101.07392741134015" x="0" y="0" /><path d="M25,25 m0.0,0.0 m5.999613639034623,18.614316500439745 l0.01302171499821247,0.5804137998970771 -0.6676027505381519,4.5425295658466 l-1.5597743964326252,5.131208275641653 m11.57214273027962,-13.44719905549175 l1.3503344584214105,0.9902084576675966 1.9768029344115245,1.9782297514758809 l1.1500072508039039,1.4377221537845235 0.7234895567845475,1.3157472320737813 m-8.887925827312074,-16.274730088950868 l0.5630593504001881,0.7549969689467964 0.3049460784290789,1.5134359536050794 l0.048820620053188914,44.60782013256798 m13.358919568625986,-44.57300615298917 l0.9249771675829077,0.2906989637692069 2.0180671131241095,0.02641502593889073 l12.739614152701144,-1.3787973781859977 1.1046175242666858,0.271990371254459 l0.4745001638228894,1.4717039307890896 -1.3875315792674914,2.3803324514092297 l-2.4773922222122264,3.1863690712524617 -0.663477727112638,0.27270804243688945 l-1.0033766335703316,0.3088157326323126 -1.083932888414759,-0.11064533355700037 l-1.3757117957565972,-0.7574870636740625 m-9.860547979684933,7.592834922791184 l1.92175549096004,0.23474960904546321 1.6565608706652903,-0.0860620725940837 l16.6139588344515,-2.1328392898099904 -0.010766787897505261,0.7801284936793562 l-0.9824960868786,1.949280594588412 -2.6346472836494748,4.133766034241894 l-2.817701756318617,3.5102815809622983 -3.0350259714431282,3.1497240451321575 l-3.1597425431827375,2.8497613402604327 -3.52975959967907,2.643232780219511 l-3.62718133504893,2.22816012827278 -3.1776158529073117,1.8220549096989802 m3.692839630945577,-18.810771322834395 l1.3628331002316358,0.6624247480738173 2.732265729839445,1.7248283847066361 l14.186267450435576,11.207808334643943 4.028437347686187,2.695784482338222 l2.498285949692082,1.6070712663396882 " fill="none" stroke="black" stroke-width="1" /></svg>