<?xml version="1.0" encoding="utf-8" ?>
<svg baseProfile="full" height="121.47655508655859" version="1.1" width="99.08178712612722" xmlns="http://www.w3.org/2000/svg" xmlns:ev="http://www.w3.org/2001/xml-events" xmlns:xlink="http://www.w3.org/1999/xlink"><defs /><rect fill="white" height="121.47655508655859" width="99.08178712612722" x="0" y="0" /><path d="M25,25 m0.0,0.0 m10.679401889479129,13.697042494846851 l0.4116653653110526,0.34197664791462357 0.530695677037789,1.5118315477258866 l-0.047580627246365255,25.546348831013876 m0.5716561836182588,-27.478988895369916 l19.64744926201001,-2.2964727019853672 2.1563718819163205,0.051192781438900783 l1.016346697233737,0.37483215598492975 0.4858379407565289,1.7008116912060822 l-0.026420357457289507,25.4278495190669 m-22.57507034350337,-16.25455641170305 l3.669836306343508,-2.159218399688956 10.058348966176997,-2.1650620281034754 l2.680945348718931,0.00020665855557779576 m-9.57971534918422,9.97181784284249 l9.800370471802328,-1.5000461110253085 2.067575881735783,-0.06978155717652 m-22.25024446707046,10.534014670309748 l26.718641970944336,-1.7787121340863965 4.297733029123121,-0.00041240008990705104 m-37.405296107474086,14.504941395667986 l1.9833264939900541,1.6932797412759442 1.7662114728728084,1.8392667581828352 l15.991247337113974,1.6689173256016827 13.34264645321066,-0.7854887855654759 l7.855905347042635,-0.20829374166520087 5.233900401625047,0.16692200286960074 m-24.470814321579226,-8.906913434178009 l0.6184518414308035,1.1926820237962206 0.2066591041218688,1.903496053834666 l-0.049522054729116,22.953071545061363 " fill="none" stroke="black" stroke-width="1" /></svg>