<?xml version="1.0" encoding="utf-8" ?>
<svg baseProfile="full" height="99.29475317487956" version="1.1" width="100.01895418201664" xmlns="http://www.w3.org/2000/svg" xmlns:ev="http://www.w3.org/2001/xml-events" xmlns:xlink="http://www.w3.org/1999/xlink"><defs /><rect fill="white" height="99.29475317487956" width="100.01895418201664" x="0" y="0" /><path d="M25,25 m0.0,0.0 m26.433051938579784,6.429233123403402 l0.36806806361354677,0.39516462801010954 0.3624748195402558,1.5023371461242567 l-0.04256763269821324,3.8645291302482723 m-16.616805869140777,1.723328131441871 l3.712154527371315,0.2334325591635679 25.5803108055792,-2.2343969624934177 l3.066653353954739,-0.10058981447436294 2.0945270010161527,0.2872101208869407 m-31.123302043579297,2.257394940998422 l0.4993432402845233,0.6821593955096648 0.2008356577733695,0.9075598857933653 l-0.09823489430012775,5.859994656657777 -0.5042006077141703,6.319917521765631 l-0.9430518676958246,5.749927697782103 -1.1727250090499146,4.309178461581744 l-1.243839814132523,3.1758341557505214 -2.0514422784456,3.7695900381715046 l-2.107873546551188,2.74085042008762 m11.778485861583658,-28.96540193452025 l2.195837301672632,0.17577905864502585 9.17183482608388,-1.3202328694202805 l1.1197707286944811,0.0006755624819554189 m-6.1686044713540555,-3.2995034133317325 l0.4560112552464302,0.7531575338376165 0.12341965095348123,0.8555002412874564 l0.0196832898496969,12.077136295413112 m-0.6547001856446456,-8.959117871245704 l-0.4729199665227974,1.519788180670208 -1.882149841766837,2.9035529778129123 l-2.2167593040292926,2.825415634494844 -2.0267419187932014,1.9986182837749684 m8.56342655929916,-7.677199722635928 l1.9910274472544793,1.3941769091267302 1.8529953211599015,2.1576868791165746 m3.0475798806443954,-6.65976436926806 l2.6258968386757964,0.19597691396934766 9.972069543641489,-1.408078593190938 l1.719942151730443,-0.03941257907246481 m-7.6334727183479485,-3.017824099219018 l0.3845192383452726,0.38268214019983576 0.24425684354566143,0.9463495112954754 l0.03796867772842048,12.672901152054653 m-0.7325746468102492,-9.778102378498117 l-0.6692560375706377,1.758595932550467 -2.4677644253523368,3.401677073496044 l-2.555099328481439,2.550476584878865 -2.4510571318947703,1.7737018133872318 m9.439110293518134,-9.011044252835697 l5.365442763779631,5.029275685793536 3.427399840772557,2.3215297645561597 m-13.422298755735085,1.5664067630283998 l-0.17707429387514037,0.3898698911770357 -0.7346457284856603,0.6376353817661523 l-3.064793023047459,1.715341901553943 -3.9502451876889024,1.5729860563508942 l-3.8620792091228355,1.1083840259213256 m-3.8126135193369186,4.56434531443243 l0.8681502447191397,0.19488091717220965 1.616735097261838,-0.010114281535974561 l15.02797306769993,-2.333242728420717 3.724735262118862,-0.36331254200596064 l1.9445721884961893,0.1608929042942764 m-26.650505007920454,8.197548520546942 l3.3318275749994384,0.1657987696761006 21.976261640935686,-2.2053030164509932 l4.700334634900931,-0.35754079019834517 1.9882691594943454,0.18239181668992246 m-17.62763088071028,-9.083867231305797 l1.4473523892108686,1.8951570909273299 1.0359749553763702,3.364067219135314 l0.16267453002197127,4.115057361504227 -0.5764007652619936,4.568939402263991 l-1.3924860534560772,3.2214643045816427 -0.5756473959413959,0.4644976675759239 l-0.612324810092567,0.13084117418546135 -0.6203632992087146,-0.12799007921617966 l-1.094432014686984,-0.7441241911699594 -0.9893481368132597,-0.9274734207441051 " fill="none" stroke="black" stroke-width="1" /></svg>