<?xml version="1.0" encoding="utf-8" ?>
<svg baseProfile="full" height="92.12516873431613" version="1.1" width="98.45215046796886" xmlns="http://www.w3.org/2000/svg" xmlns:ev="http://www.w3.org/2001/xml-events" xmlns:xlink="http://www.w3.org/1999/xlink"><defs /><rect fill="white" height="92.12516873431613" width="98.45215046796886" x="0" y="0" /><path d="M25,25 m0.0,0.0 m29.851434843091678,13.265362571945222 l0.34377098167732795,0.18472093481315835 1.7728734442028011,1.156709591675222 l1.2720826537313317,1.4980822557162392 m-17.771760647786472,3.061537258795482 l2.471448810848623,0.22101509202682335 25.6213166093241,-1.8067069693199735 l3.359428511324342,-0.12327368570846212 1.5315552615551253,0.21915427764178638 m-26.721365925857583,1.971741535120223 l-0.47204632514151695,1.0078136811498712 -1.8341848667505116,2.2398339582042768 l-2.0366437178083494,1.9728188581739383 -2.360813343300683,1.7128791368481682 m6.387807902870106,-4.515068989998532 l1.4061800089957535,0.6280055554656846 1.4243857510356521,0.946288932577851 l1.3085124079507933,1.161540662410502 0.7972778547698609,1.052177160843205 m11.582337817639933,-7.588391015987146 l-0.30785865111616867,1.2210783046063318 -1.4962063430249135,2.2334342998190535 l-1.8647931407717304,1.9378893598253946 -2.006786160931105,1.5121718456741042 m4.969192127709259,-4.13684637652415 l2.421962810694182,1.0125505018444068 1.8354378020945084,1.2732138407414768 l1.6286349716210042,1.4697336899830529 1.2897713097636312,1.4772232836464956 m-25.102285405865818,3.759898700473393 l0.5881116656553924,1.111297592623005 0.7051083665659948,2.567372372510564 l1.1769760118456394,8.419910516699483 m-1.4780003556478165,-11.15737411732764 l21.05930394953954,-1.4465116951536556 1.4111096116909145,0.07492357305782955 l0.812027766749561,0.25758682541789996 0.505506731833942,0.5262351965892009 l0.013577106271209657,0.9867710732432033 -2.3071607016027578,8.999135970987322 m-11.776447196709194,-9.42890477389948 l0.4690056037032448,0.92448362343242 0.05746575938931995,8.057575962892372 m-10.77542624078649,-4.110311394691363 l17.117309458189915,-1.1546366190883461 m-16.567158808184146,5.805759662611308 l21.20105311496323,-1.0103734983292691 " fill="none" stroke="black" stroke-width="1" /></svg>