<?xml version="1.0" encoding="utf-8" ?>
<svg baseProfile="full" height="96.45222735734251" version="1.1" width="104.41975581751532" xmlns="http://www.w3.org/2000/svg" xmlns:ev="http://www.w3.org/2001/xml-events" xmlns:xlink="http://www.w3.org/1999/xlink"><defs /><rect fill="white" height="96.45222735734251" width="104.41975581751532" x="0" y="0" /><path d="M25,25 m0.0,0.0 m7.351049931156144,17.750341907651713 l0.03563960692875798,0.47463998297587223 -0.7651676181100394,3.59155520995272 l-1.9969677635442158,4.125099110502297 m13.02079306751342,-11.941389058207355 l1.5626476378354361,2.2005370605646157 1.0956541150758425,2.893830429834775 m-8.120562205980354,-13.436033757568225 l0.5878996729975458,0.698111488297464 0.31149412217544986,1.4626138164725522 l0.025855815208220303,38.63292116686608 m12.825321188295648,-34.808862391963764 l2.795372970092538,0.10902523077856872 13.912663499721626,-1.3664099267683596 l2.962106688339512,-0.15241093137187756 1.5040069674173489,0.15512268200319992 m-11.835980635117762,-6.320487106252136 l0.5716969265989741,0.6848374614787991 0.20988409090679083,0.9506711221447763 l-0.009054178842842894,13.117141007723374 m-15.396643028349805,1.432383981162493 l1.7030771444940036,0.22663622453480697 1.649220373398306,-0.0003668392286440196 l24.723392426248758,-2.015457311063896 3.774238314631571,-0.03447922361143234 l1.9221166884244758,0.252971369590884 m-31.758300851262295,10.176602909516998 l1.6976103785193302,0.23626587382856593 2.324286486547895,-0.08957408310054249 l18.892190851434467,-1.725403757404837 4.760894012134707,-0.11217918596740009 l2.318190799118095,0.20670814085692957 m-9.67483841415782,-6.206293639977917 l0.5893156004691094,1.0384536376940738 0.1816524923386462,1.0804915514149505 l-0.1091152256386896,21.65007931210539 -0.33225669678415104,0.9554304018890809 l-0.522450281293276,0.3805853734607487 -0.6455601249390055,-0.05125502266612915 l-1.4325731344038517,-0.8856202742281133 -1.5334564818039165,-1.269659007669747 m-9.948827914420798,-10.22472367176626 l1.2013091642135942,0.8807817745397402 1.5950149166302614,1.581101841722327 l1.3794312908735569,1.8139985871728166 0.515572160863547,1.0485514420052529 " fill="none" stroke="black" stroke-width="1" /></svg>