<?xml version="1.0" encoding="utf-8" ?>
<svg baseProfile="full" height="139.98674796571112" version="1.1" width="102.94532969282312" xmlns="http://www.w3.org/2000/svg" xmlns:ev="http://www.w3.org/2001/xml-events" xmlns:xlink="http://www.w3.org/1999/xlink"><defs /><rect fill="white" height="139.98674796571112" width="102.94532969282312" x="0" y="0" /><path d="M25,25 m0.0,0.0 m15.003532365669408,18.634026988552424 l0.35633295653442326,0.3531219791102714 0.3942241241802576,1.4628390917957614 l-0.030983851398260542,5.70586619771104 m-11.5385275433881,1.0815781140362746 l3.2006429730233625,0.1572186772141468 15.643110943277506,-1.8191674124650754 l2.691775981655811,-0.13142678228086668 1.743019543842114,0.10278491270537769 m-18.82921464567523,3.92783655688086 l2.2926007054806785,3.186875407573079 1.0151704724734885,2.8133510117907594 m10.488316100902555,-7.739700108186955 l-0.23346320628109457,0.9416811720088242 -3.2846891394767423,5.403021603464382 l-2.266456544107467,3.0684030872301826 -2.3054692582523044,2.51713138207159 m-12.585024201691015,1.3498801126814208 l0.7537175868555168,0.1518807196328308 1.921157041717572,0.047092251154903036 l18.110463865774058,-2.3246973827219852 2.1048009125148557,-0.17366171383370743 l1.1052295392944473,0.22472587447163683 m-19.97492929151247,7.883989352986298 l0.5974103990628297,1.4748409218901315 0.11166009388851793,24.001776368856394 m0.4918594816216325,-24.882097659942623 l11.788326731375795,-1.842820983926146 0.8337697410744288,0.07499609024241516 l0.8952218201376023,0.8580663565622068 -0.45448039451156164,0.541627066210631 l-0.9708484839463024,21.59233079350831 -0.454505195135446,0.756187854496686 l-0.5359322119218404,0.20424850721074667 -1.2835297318478434,-0.7457995410948173 l-1.461918029279237,-1.5049001220372564 m-9.203991848813539,-14.942064660968734 l8.443606597728431,-1.2448311386315158 m-8.072494779401714,7.748051858236475 l7.974701203770496,-0.953801240097509 m18.721982357617417,-29.42253812186888 l11.983708115673656,-2.264864325070129 1.524079503836241,0.17558131325342188 m-15.59269179703364,-4.5008151829363445 l0.634643182717512,0.8853466162061209 0.3891316736339179,1.7228262413653497 l-0.16005428351721598,10.514865620905764 0.3445761467757586,0.7922767523433016 l0.5884064493949975,0.1899399985858575 1.0087139033419,-2.0670038625358886 l3.720209423754244,-2.828249902266453 m7.451995314388764,-5.142548111602776 l0.13013840049281253,1.1186333446973877 -0.36119145960489524,1.2187277182522924 l-3.420795575577801,4.149791607443481 -3.9876428309269154,3.3793183288176003 m-0.8068431100009271,5.145068610846442 l2.431473046915089,0.9745845462381616 2.153797211029557,1.6313736275415731 l1.8925187232819856,1.847057442189391 1.8362516061392613,2.124836154376556 m-15.46644133956415,2.9950101220070104 l2.512462186494091,1.81678262396568 1.7592917070086946,1.8835689556253026 m-9.077912557566941,4.952382413568827 l1.7934705287720014,0.24119991312421876 1.9505795316718184,-0.20548810512413757 l12.754498519933547,-2.313000076135916 1.3903793191771414,0.11454334600525365 l0.7635284349065072,0.3292274170705245 0.4506427622464566,0.4820047717064857 l0.08793596185825463,0.614070106695772 -0.7338863810146719,2.310766096266486 l-1.891132943576953,3.475629216287557 -2.2942011381502683,6.345836064153476 l-2.0061709403225705,4.663634139785062 -2.076198003615113,3.667072488132677 l-2.376018097981892,3.3211887265309383 -2.6485885772823146,3.0965777819597045 l-2.9032492971997668,2.691053569223739 -2.5990723611487554,1.9000184139814005 m3.5185058453915223,-23.091851907837995 l1.716054380561686,0.8820539061356231 2.728390009295843,2.1727622780079074 l15.267364150908584,15.144626232563127 2.857440074851345,1.88939128885373 l2.5110590896216736,1.0207927209337637 " fill="none" stroke="black" stroke-width="1" /></svg>