<?xml version="1.0" encoding="utf-8" ?>
<svg baseProfile="full" height="102.02788520366146" version="1.1" width="105.46372276752243" xmlns="http://www.w3.org/2000/svg" xmlns:ev="http://www.w3.org/2001/xml-events" xmlns:xlink="http://www.w3.org/1999/xlink"><defs /><rect fill="white" height="102.02788520366146" width="105.46372276752243" x="0" y="0" /><path d="M25,25 m0.0,0.0 m25.464300387031987,11.483260619488293 l0.01873996571949094,0.3917574483000131 -0.19941581552449353,0.95483859574793 l-1.1346272009548957,1.5166628842960541 -4.288685165966475,3.8741438450303494 l-5.139386128439199,3.2853256977545846 -5.895280698039489,2.6194594050388966 m16.942281161320167,-9.22371248504129 l6.003502719974,-0.09064571084892337 9.508300957677832,-0.8433069411395913 l0.8948693804104221,0.21791437387031265 0.4866398604117769,0.37788480113838596 l0.008342849521760459,1.0194491723503831 -7.715592613151192,7.565273403691878 m-20.25668502136811,1.4635392187872092 l2.8121895114441133,0.2802364627177851 3.584645826392167,-0.029693314918631843 l27.49404327835692,-2.2744046197512002 2.4905512286972558,0.7566851996537807 l0.36161369437320917,1.076023869118744 -2.532638875355584,9.854069499789441 m-17.239294265388644,-8.18221295967628 l0.6372659323986529,0.4979444253594616 0.4653946598710847,0.7809859748481371 l-0.764665560786633,6.192177566848842 m-15.640937479014108,1.7322230401392742 l31.760099723660502,-2.1979338423308916 m-33.70612637999382,-7.001950461674302 l0.5940746503149331,0.5478490437167111 0.23276502492017753,0.8376467150412934 l0.13768846584271727,17.145144232878987 0.7708128057235883,3.686985299042858 l0.870118776836859,0.9471857836654209 0.9588301189569867,0.7582837480695079 l3.2290770473775514,1.2671888935679272 5.937185158787943,0.6212483770226515 l12.956508939263394,0.1203579420674582 8.730665190917033,-0.42151805316950763 l3.0647004456787954,-0.7202331039957083 2.251042245498703,-1.1853286148431152 l1.0241203134535213,-1.5049055202283053 0.28668765067152563,-2.3749645406307724 " fill="none" stroke="black" stroke-width="1" /></svg>