<?xml version="1.0" encoding="utf-8" ?>
<svg baseProfile="full" height="98.34391228503438" version="1.1" width="95.5973858949771" xmlns="http://www.w3.org/2000/svg" xmlns:ev="http://www.w3.org/2001/xml-events" xmlns:xlink="http://www.w3.org/1999/xlink"><defs /><rect fill="white" height="98.34391228503438" width="95.5973858949771" x="0" y="0" /><path d="M25,25 m0.0,0.0 m22.756467492452657,3.4671626005711236 l0.06032314345443942,0.3980930401618677 -0.201680548434256,1.6748984717790538 l-1.1427932979186928,2.189814087008586 -1.9968937887839173,2.8891679247151427 l-2.446373136499444,2.827173384730902 m5.739857925016201,0.3654167650800195 l0.09249051902196909,0.8901458051390457 -0.19621702352860088,0.931561748316024 l-4.722433038995491,4.887894066282949 -3.4183785098881203,2.493619710858843 m5.855646066940558,-3.26118506376749 l0.4927985085516651,0.7027249555744414 0.10032558960893866,0.8889669932959351 l-0.039215728033078004,12.44708318327112 m10.806371822781529,-29.408502972276516 l0.16791704592640658,1.2966957852453393 -1.439562223201109,3.5458079222239984 l-1.8864833325824737,3.355102187728199 -2.1137996287482794,2.9849905108734185 m5.446922739678755,-5.74488109356542 l1.5294254104361666,-0.02153511982526613 6.092815884756187,-1.2209171179524025 l1.7159767170706224,-0.14713631823304008 m-12.317702123913104,10.350576708214007 l2.3436733169326316,0.11001511667073316 7.735091887743631,-1.5652688431129216 l3.075700044594104,-0.010184565137982333 m-6.612972823996659,-6.664004318979742 l0.2806477216150154,1.123915519793654 -0.5761594353302515,4.818164966017084 l-0.7359067945509876,3.7564866927249865 -1.0113651068549623,3.2927974804477413 l-1.1790499591031056,2.5018282166279997 -1.4672071969303762,2.2004921165180367 l-1.907958294671549,2.106981231120876 -2.8731446257275817,2.4027390035183007 m9.030221584133367,-10.491854089509962 l6.276145071155315,7.167430440384354 1.9739224247634801,2.544189010223848 l1.6958058654062886,1.4274164189900334 m-28.16399366067162,7.080628905518399 l-0.3321785815035419,1.3384544277161687 -0.8854544855748964,2.230777330505377 l-1.226824733769012,2.3407525005485135 m7.33777177640183,-7.741840263232121 l1.987778192532847,3.0199646270685885 2.346047200260212,2.4137029511685197 l2.6899913329050023,1.790161934288225 3.3123907980032365,1.3487414184011786 l2.3083972135896222,0.5414971099225486 2.620410362248186,0.3561445878585102 l3.0938540899550597,0.12104419352355889 2.4069280619053233,-0.17969045146156204 l0.7269298204685639,-0.5147047454316483 0.03265960257819639,-0.43264882793148857 l-0.24073462835070317,-0.5108280868452887 -1.2882017496101876,-1.3636888443154875 l-1.187239091594257,-0.8737102614238658 m-10.46759006228464,-7.2404958125101615 l0.9463913045914065,1.858459362688484 0.7977909555075852,0.788390890475277 l0.7472602931268602,-0.06110343624510136 0.6641708046495363,-1.341469063702833 m8.04176040316301,-1.7527513487570137 l2.4149024234190435,2.032821071076804 1.9309180886825283,2.582049045783515 " fill="none" stroke="black" stroke-width="1" /></svg>