<?xml version="1.0" encoding="utf-8" ?>
<svg baseProfile="full" height="107.34758743380799" version="1.1" width="105.23375790269208" xmlns="http://www.w3.org/2000/svg" xmlns:ev="http://www.w3.org/2001/xml-events" xmlns:xlink="http://www.w3.org/1999/xlink"><defs /><rect fill="white" height="107.34758743380799" width="105.23375790269208" x="0" y="0" /><path d="M25,25 m0.0,0.0 m3.8578574165434296,19.457979810185712 l-0.007498545986625852,0.5608847628236472 -0.8631500225298475,4.080995912332705 l-1.9227322469026324,4.729610631033352 m11.85800903747752,-12.946493908419665 l1.5627107724377045,0.9691793982595017 2.136077462511425,1.9066193384908863 l1.4626956770474158,1.7188590799093213 0.7511081316914422,1.2148974317431844 m-9.375486689648937,-14.867327157269559 l0.651770343545064,0.7732694690707338 0.3192358735487065,1.383579130966418 l0.02981976518320149,42.20607185334709 m22.254255323571066,-43.609421728483184 l-0.23452338952037813,1.6374607697323955 -4.336400738880417,6.16986803957242 l-3.598513893199705,3.92543444847612 -4.463897355297915,3.9639858776266355 m9.421209665543694,-7.704439042568943 l4.2377703541137945,-0.024447410891925325 18.192491758076436,-1.9175363118999436 l1.8365590517657773,0.13002477614994365 1.0968546856584387,0.5777901467561899 l0.3675354659434209,1.0810166151511342 -0.10578891800222115,6.387550506101823 l-0.843167525319529,7.771399270991549 -1.1954981618542142,6.328131895897312 l-1.6033604894102804,5.944883272660092 -1.5790553103637206,4.138840959916299 l-1.1795594706283359,2.9316757774164603 -0.9681514830605131,2.2802837619263534 l-3.043413545598236,2.088281692374243 -0.5839026136665548,-0.35578033819566285 l-1.9441550626538373,-1.7448652426782023 m-4.320155001895317,-24.07539962167583 l0.07630028932476063,1.2532136756663241 -0.9039794298395118,1.8610356371461427 l-2.208866312641568,6.269293416708714 -2.095265319363503,4.750412544472119 l-1.9890012931993335,4.013050299429407 -2.1527101624914433,3.7452264054407594 l-4.461756486692522,5.692099783631139 -2.8381136693190214,2.650391804484772 m3.6459857306077037,-20.2359351438339 l3.5770814763315983,2.2915966210479595 3.722525206416374,2.988046479125249 l3.1924222391460355,3.258286664221245 2.233543280341304,3.1195227619109365 m-19.542360852015936,-9.699573060959258 l0.7338639050730051,1.5260029622475901 -0.9022982431381639,13.715090628074016 l0.05894992932663505,1.2259805639657246 0.3427806957395684,0.6817011858396077 l1.2065385401148716,0.239495022500837 11.521124563293077,-1.5272897458380958 l15.55621098806725,-1.070107322229697 m-0.08081891444216396,-18.328556549591855 l0.9134229639786219,1.2708100450770692 -0.039371425097875105,20.08210247623245 " fill="none" stroke="black" stroke-width="1" /></svg>