<?xml version="1.0" encoding="utf-8" ?>
<svg baseProfile="full" height="103.6710653735508" version="1.1" width="105.70080945801644" xmlns="http://www.w3.org/2000/svg" xmlns:ev="http://www.w3.org/2001/xml-events" xmlns:xlink="http://www.w3.org/1999/xlink"><defs /><rect fill="white" height="103.6710653735508" width="105.70080945801644" x="0" y="0" /><path d="M25,25 m0.0,0.0 m14.814344449938423,20.335699366290417 l0.01742372622533419,0.42158500176297964 -0.7038546304523299,5.270086678445769 l-1.2781284658925232,4.112826327779325 m9.935619174639362,-13.049220864565916 l1.0737984934723461,0.9592284410824056 1.4917512458677977,1.87861327381736 l1.3441665262572793,2.7753118443313642 m-7.804541571884043,-13.99768337033494 l0.6892826924021448,0.7734721974456821 0.3745501629935454,1.602926823201311 l-0.13472932612326105,42.588219654295045 m12.17147112596066,-36.93937430332786 l2.435680068498243,0.16952381087933488 11.922507634265857,-1.7186362761960527 l3.013434341771687,-0.23617790974638947 1.2795168201906315,0.15802484019479318 m-10.336044963790489,-7.050802362944275 l0.5499998885369828,1.440805985019167 0.09982923660661248,15.506183104402465 m-12.786548465873599,1.8536051144204893 l1.2957908117247108,0.2968498822491031 1.3553638227812583,-0.03506569699608981 l20.994900765981505,-2.671230120752064 2.4933660788345713,-0.10085522921236373 l1.3918598150837393,0.2841876772081508 m-27.408173938328492,10.411402151420765 l1.426979976983808,0.25638378548120144 2.0353267119406673,-0.1428690025955358 l17.59310670490675,-2.468544679439546 3.4848824079182874,-0.1542034486074033 l2.0510268241886753,0.2566170016527298 m-8.972358305242638,-5.911137389791919 l0.4919317846759681,1.1556463807555912 0.17943460913085665,1.3867441630744382 l-0.2481527033426973,22.25611373733542 -0.3070198528438362,0.7920266078301236 l-0.48447776114671104,0.24395529303288768 -0.5901317412955426,-0.1818229466697279 l-2.1569040510465274,-2.0701605165733863 m-8.956308853202874,-10.580473598454457 l2.030962596936907,2.379443898122493 1.1582701584375905,2.770559240620365 l0.40279169176256013,1.8696001016264419 " fill="none" stroke="black" stroke-width="1" /></svg>