<?xml version="1.0" encoding="utf-8" ?>
<svg baseProfile="full" height="100.00710607506335" version="1.1" width="109.49251463636756" xmlns="http://www.w3.org/2000/svg" xmlns:ev="http://www.w3.org/2001/xml-events" xmlns:xlink="http://www.w3.org/1999/xlink"><defs /><rect fill="white" height="100.00710607506335" width="109.49251463636756" x="0" y="0" /><path d="M25.000001784398904,25 m0.0,0.0 m-1.7843989041921304e-06,3.203182816505432 l0.5816323310136795,0.1662159152328968 1.9580744206905365,0.1032783929258585 l23.486695289611816,-2.7961036562919617 2.3176468908786774,0.26279138401150703 m-20.93876361846924,3.4161028265953064 l0.862414613366127,2.3581111431121826 -0.10779540985822678,29.59136724472046 m0.8421825617551804,-22.507328987121582 l6.9940632581710815,-1.273513287305832 m-7.200660705566406,11.695810556411743 l6.993733644485474,-1.064324676990509 m-14.401321411132812,15.285613536834717 l0.9045238047838211,0.5246369913220406 1.1978073418140411,-0.18780507147312164 l16.85072422027588,-8.232910633087158 m0.5862380191683769,-27.834131717681885 l0.6985838711261749,1.123458370566368 0.04243810661137104,0.6822994351387024 l0.10780182667076588,45.490355491638184 m6.6374510526657104,-27.623586654663086 l-0.5053095147013664,7.2794508934021 -1.111738532781601,8.385308980941772 m5.6268322467803955,-20.21238088607788 l2.5383907556533813,7.682283520698547 2.8318387269973755,6.109771132469177 l3.2141107320785522,4.647794961929321 2.9081615805625916,2.7403828501701355 l2.40679994225502,1.5228371322154999 3.5483518242836,1.3655857741832733 l3.9766809344291687,0.6580373644828796 3.516111969947815,-0.01866947626695037 l1.8133243918418884,-0.6888790428638458 0.3154894709587097,-0.5701180920004845 l-0.05341772921383381,-0.7066438347101212 -1.1376043409109116,-1.7837163805961609 l-2.385745197534561,-2.20809742808342 m-15.464577674865723,-19.25439953804016 l2.5594455003738403,4.481990039348602 1.0306866466999054,0.6926622241735458 l0.39707593619823456,-0.25479312986135483 0.2783150225877762,-0.7770449668169022 m7.995470762252808,-5.153104066848755 l1.759043037891388,1.2856443226337433 1.5873166918754578,1.6814042627811432 l2.2663263976573944,4.27572101354599 " fill="none" stroke="black" stroke-width="1" /></svg>