<?xml version="1.0" encoding="utf-8" ?>
<svg baseProfile="full" height="93.30257226218336" version="1.1" width="94.74910043946267" xmlns="http://www.w3.org/2000/svg" xmlns:ev="http://www.w3.org/2001/xml-events" xmlns:xlink="http://www.w3.org/1999/xlink"><defs /><rect fill="white" height="93.30257226218336" width="94.74910043946267" x="0" y="0" /><path d="M25,25 m0.0,0.0 m14.77145780818635,3.4533621483352226 l0.4185418300285336,0.21893315781009062 2.2885756271670328,1.9935690480589137 l1.3567825184014295,2.0987413908509325 m12.882357759138499,-5.58650514515936 l-0.2559150274364083,1.0584316519175851 -1.185216892729459,1.751712908643105 l-1.7275893032228586,1.7469485071769042 -1.904450618777124,1.3941200989629667 m-15.971620421592558,2.1595954501568553 l1.4897451672532627,0.1583912342607158 21.834747187615033,-2.2089207409353837 l1.8137961515387737,0.16853550880905793 m-13.070848524368884,1.2431329650284073 l0.5804760631777061,1.022587778855705 0.10272562632076387,8.476960392469142 m-11.082855106589241,-4.375277189115601 l1.9278445064623828,0.0637782701973826 17.850698969094264,-1.6561394511354266 l2.401949258137578,0.10654734935686265 m-28.370834303114343,6.77748413121295 l2.5961016678090973,0.20390381808461425 28.77660434109621,-2.1763209249672366 l3.1341914518099276,-0.1355586335896055 1.8596635753684154,0.18797474982473114 m-25.530899933661146,2.664215192543014 l-0.11992146208054486,0.9268518615083846 -0.7898921333414258,0.974845480392654 l-1.7860560120349707,1.7221858543295792 -2.1885776890309003,1.7590821033245543 l-4.668272179209698,3.0830605951031718 -4.810103618632509,2.2665436659706333 m26.23209722008606,-12.295390687574654 l13.056436517068583,9.016172814932952 1.2143289086161042,0.6793437100235481 l1.623031510908725,0.4061258851804998 m-22.101960468694255,-6.642637393049305 l1.61063288708591,0.9685053529980977 0.9389875718961824,1.2593616296801127 m-7.321150139923794,2.285082983907675 l12.607250215991176,-1.2641479000145135 1.2412173365964203,0.17932269364281495 l0.3225848149354527,0.7473259641943066 -0.9222936821617226,7.138218142325897 m-13.063033471739766,-3.4990073690482375 l8.577217153882122,-1.016438309348382 m-8.45296964309603,4.718568794997086 l12.442273915573598,-1.1541513644016503 m-13.388172090571922,-6.448973085709338 l0.5340699992237583,0.30924371190493743 0.4107920438287299,0.8238834165839087 l0.07040178414354299,13.344222453688444 0.18387214626080894,0.4927287903230454 l0.41657292152690956,0.28871556754201744 0.9473670980370287,-0.1816936947088131 l6.102424242600344,-3.0607222199509447 m9.812307352301145,-5.43787123995072 l-0.008471290778495847,0.9447072392583324 -0.3362840202069367,0.46708228669464713 l-3.454203096608488,2.200215585161468 m-7.121449108590295,-1.483006672702677 l1.077292468113938,0.3026365771205789 2.1302506528478453,1.0643283112722142 l10.447032512782057,5.580949329991102 2.172930380748917,0.7579587996636662 l1.6254208549313334,0.269138929273725 " fill="none" stroke="black" stroke-width="1" /></svg>