<?xml version="1.0" encoding="utf-8" ?>
<svg baseProfile="full" height="105.79132029533173" version="1.1" width="106.03015651256152" xmlns="http://www.w3.org/2000/svg" xmlns:ev="http://www.w3.org/2001/xml-events" xmlns:xlink="http://www.w3.org/1999/xlink"><defs /><rect fill="white" height="105.79132029533173" width="106.03015651256152" x="0" y="0" /><path d="M25,25 m0.0,0.0 m7.741592199656663,19.044573509631526 l0.020003560665560298,0.43421607137451085 -0.5983880306578,3.474355613846786 l-1.681157004934766,3.8606431967868065 m11.67645508368834,-10.720087826139798 l1.4120483318928896,2.0767222117763593 1.0731970194795504,2.565561261224867 m-7.1636667869796575,-12.990049518981392 l0.512054995654977,0.6596936800929373 0.257658233530046,1.2497009827487098 l0.023848099854990156,36.6037862471231 m11.423664568154445,-32.46578363863945 l2.6182633224629313,0.13659349501558032 12.293939939503652,-1.255420939833502 l2.6763620755992017,-0.14770392934169438 1.3403010900794465,0.1459574784982603 m-10.577515887141477,-5.772871065127975 l0.5182884537075583,0.6496909674680964 0.18730003406160214,0.8939931533483416 l-0.03736381289015847,11.943605048318135 m-13.58585289176618,1.307493225715735 l1.5178484554405443,0.20177060360676818 1.4488851683665165,0.006133024970454193 l22.352041103872107,-2.0092130599974043 2.188229242898055,0.21494168613821507 l1.5066482742355418,0.31987361499614414 m-27.096813068603332,9.682975401448253 l1.4106646564235084,0.2110558016074765 2.010111209895912,-0.08582412600469495 l16.449155587000757,-1.612592882415289 2.6632262214363265,-0.10636108393977398 l1.9461951097325187,0.17210534875797995 m-13.535341961292925,-5.930520642438175 l0.4987601162805314,0.839885367813681 0.15231280162314512,0.8962532303142802 l-0.03032701043360877,20.260891366882156 m-1.2097444316213772,-8.256805386580984 l0.07614690953715268,1.1830131079167316 -0.3392556097718509,2.2758949134922832 l-0.7366449016637692,4.873908999858958 -0.7219992430250328,3.1686578349962224 l-0.9045162516076163,2.5019521932272504 -1.1616934165591413,1.9930077062900726 l-1.5127579689805286,1.7440745868516656 -1.8906175055292047,1.5515734626335358 m10.89172050450528,-15.941038862288975 l10.318203180972532,4.829677168738451 6.197275720084364,1.822970843308589 l3.4114110257233135,0.9613281059057791 " fill="none" stroke="black" stroke-width="1" /></svg>