<?xml version="1.0" encoding="utf-8" ?>
<svg baseProfile="full" height="124.01322943387605" version="1.1" width="103.98120995859604" xmlns="http://www.w3.org/2000/svg" xmlns:ev="http://www.w3.org/2001/xml-events" xmlns:xlink="http://www.w3.org/1999/xlink"><defs /><rect fill="white" height="124.01322943387605" width="103.98120995859604" x="0" y="0" /><path d="M27.13119180392676,25 m0.0,0.0 m12.966666290504955,4.4808455987918245 l0.3633815117116841,0.39654257220842326 0.4993253984591148,1.3486085287802636 l-0.02611844192238486,25.045580519990125 m0.8075607217102674,-26.919493853641157 l26.776083247682514,-2.5032668741004658 2.9380803686693135,-0.0266177816185912 l1.783755290954754,0.3060251552874069 0.9281357081593302,1.6621275817775187 l-0.018230572570888455,27.583386502539685 -0.26176599534168815,1.1595012110309135 l-0.4467438154221249,0.5069957807197708 -0.6380957296669795,0.027639250516796703 l-1.6051321288835574,-0.8597756519072565 -1.8916126686152304,-1.6311702012739326 m-13.080688701833765,-18.84505825821709 l0.30209446940205315,0.9961899744835496 0.04188908281716691,0.9244539195550003 l-1.1204897723577272,11.245620143265366 -1.767488585142711,4.163680244393326 l-1.6475025076200616,2.3122707517402707 -2.3635921821598473,2.223192067706878 l-2.385534631916086,1.5890305576773611 m11.943028550872938,-10.896544433225978 l2.789173617344327,1.5304135347170869 3.465107468412906,2.6476738451224766 l2.71388051243308,2.6050267144473103 1.4818430561059817,2.1447683823947936 m-11.628788400453924,13.35006346555231 l7.728012366318673,1.8248958108537987 2.4210968775393553,1.0068315163372665 l2.040794211981242,1.10543878019832 m-40.96762495654944,13.577633571076905 l-0.40651657697812427,2.0514842401700166 -1.2231167042139424,3.297410577145733 l-2.642058183357908,3.6348827225055858 m12.469267869099838,-13.273102495230921 l3.8551368087254856,4.92545732571019 3.8540187800034635,3.4511694772013093 l4.716909852001979,2.7980420599034126 4.411924887510437,1.5634063331776356 l3.9709946119944215,0.8468319081401405 4.6137268715014725,0.5055234135783215 l5.457013302366033,0.12961494439438154 4.758519298075328,-0.33879651363139196 l1.3422503528207108,-0.33734201266084324 0.8109694165495743,-1.0652944617212592 l-0.3486589150078829,-0.7091565533440517 -2.3350472390081953,-1.736121726318759 l-1.9927129121414702,-0.9638393590700497 m-19.70226063405559,-11.44542128169377 l1.4800949214285093,2.892371153626556 1.2186033490600927,1.3066819503239928 l1.154315934987637,0.1825454496399867 1.0081320735170332,-1.4936021535566264 m14.112143112203743,-3.2766896905787 l3.921353521004727,1.4656890957941997 2.019639157472374,1.1884397077721705 l3.1848755384863097,2.882454415528393 " fill="none" stroke="black" stroke-width="1" /></svg>