<?xml version="1.0" encoding="utf-8" ?>
<svg baseProfile="full" height="100.59548987153806" version="1.1" width="111.10890676440346" xmlns="http://www.w3.org/2000/svg" xmlns:ev="http://www.w3.org/2001/xml-events" xmlns:xlink="http://www.w3.org/1999/xlink"><defs /><rect fill="white" height="100.59548987153806" width="111.10890676440346" x="0" y="0" /><path d="M25,25 m0.0,0.0 m31.4821496670453,13.20936879332053 l0.036304873362060994,0.2941303862305853 -0.43200294933869293,0.6509511212315638 l-1.3217935640973757,1.3176912050631264 -4.035210178865071,2.702295053680191 m-5.8018303802981235,0.4267368650784444 l1.1660956796024715,1.079306463646182 1.496404036658912,9.094761356139996 m-1.5142294757160497,-9.462678884762914 l22.161930438989263,-1.6362415703853717 1.7266094987447234,-0.0013211192035442112 l0.5439360769923717,0.15961631626704656 0.5238523658187952,0.6066045917439232 l-0.03936635515948831,0.8207467650907624 -2.441742828598236,8.299542436268231 m-21.807297538309427,-4.155981264271181 l15.173179731877106,-0.9596207319784951 m-14.164327976660656,5.296552440126884 l20.47799586664114,-1.1592315168246052 m-11.35318444137003,5.801125245403098 l6.886242939333808,0.7136391280423672 9.550257171919464,0.28391127197211596 l1.4457659380448047,0.1153322851358508 0.9230785569105587,0.09034232516505072 l0.8287204330344111,0.3699420608079379 0.36778554257436286,0.631003884618542 l0.007610826686881438,9.647921486908006 -1.0159841390874873,3.976402012498047 l-1.293460289590174,1.9165631355169814 -1.3742721184318898,0.46607832900871327 l-1.2315997940642918,-0.40912816786041895 -1.7053023214218028,-1.320654844863507 m-3.1888937203921754,-15.47780220487795 l-0.023372878592136978,1.366540426211625 -1.1332356298295725,2.3261198711247832 l-1.714281608115659,2.567152986801121 -2.1836375639199237,2.620807244620532 l-2.2574739746703854,2.1173112639040967 -2.700178511703697,2.0337684532688236 l-3.2257612783888083,1.9092570258720927 -2.659400806351392,1.247734840730107 m-6.488632175045739,-13.260007160386719 l3.5379684237430444,0.25917281256687186 32.10895585456483,-1.8548523919918776 l5.770535339877432,-0.07290007883689847 " fill="none" stroke="black" stroke-width="1" /></svg>