<?xml version="1.0" encoding="utf-8" ?>
<svg baseProfile="full" height="109.49251106707379" version="1.1" width="100.86789330351166" xmlns="http://www.w3.org/2000/svg" xmlns:ev="http://www.w3.org/2001/xml-events" xmlns:xlink="http://www.w3.org/1999/xlink"><defs /><rect fill="white" height="109.49251106707379" width="100.86789330351166" x="0" y="0" /><path d="M25,25 m0.0,0.0 m6.2078070640563965,2.2650636732578278 l0.5985744670033455,0.1092060748487711 2.7543652057647705,0.09995630010962486 l33.71058464050293,-2.4742259085178375 2.251325398683548,0.25479359552264214 m-27.387502193450928,2.7724838256835938 l0.6652840971946716,0.8575065433979034 0.398445725440979,1.0983200371265411 l0.042756423354148865,6.875535845756531 m-10.742056369781494,1.7538858950138092 l12.149381637573242,-1.592012196779251 m-13.609416484832764,-0.222694743424654 l0.8568476885557175,1.055823490023613 0.35084307193756104,1.2580935657024384 l-0.7711134850978851,9.803181290626526 0.38839809596538544,0.41639965027570724 l0.9224043041467667,0.04920862149447203 9.115001559257507,-1.5855470299720764 l1.0212332755327225,0.3196501359343529 0.46984970569610596,1.2251505255699158 l-0.1079398300498724,9.547872543334961 m11.17426872253418,-32.00479507446289 l0.8568476885557175,1.055823490023613 0.35084307193756104,1.2580935657024384 l-0.4858167842030525,5.599652528762817 0.07222754880785942,0.5801264196634293 l0.3887275233864784,0.41639965027570724 11.137702465057373,-1.1651942878961563 l0.9250397235155106,0.03848155261948705 1.100296601653099,0.8838609606027603 l0.14050194062292576,1.2972956895828247 -1.6596688330173492,7.536372542381287 m-11.68027400970459,1.2551286816596985 l12.791606187820435,-1.2550051510334015 m-13.894044160842896,0.3913629800081253 l0.9064269065856934,1.384265273809433 0.2135530672967434,1.173100546002388 l-0.013493766309693456,10.38989543914795 m-29.917523860931396,1.7749693989753723 l2.6423588395118713,0.30186090618371964 3.193824887275696,-0.07735430728644133 l32.74205684661865,-2.631693482398987 6.916055679321289,-0.1549453940242529 l3.3657872676849365,0.281827449798584 m-44.78140830993652,13.419665098190308 l-0.2609086409211159,1.6759756207466125 -1.2814830243587494,3.3150553703308105 l-1.851726621389389,3.5489505529403687 -1.5377797186374664,2.200922518968582 m12.818784713745117,-15.844271183013916 l2.8475937247276306,6.303974390029907 3.075559437274933,4.443353116512299 l3.938666582107544,3.5960590839385986 2.8647243976593018,1.7067773640155792 l2.1465665102005005,0.9362404048442841 4.921686053276062,1.358569860458374 l4.294450879096985,0.5428184941411018 5.16546368598938,0.07123926188796759 l2.8772425651550293,-0.49809832125902176 1.4142434298992157,-0.9958671778440475 l0.16150310635566711,-0.6736845523118973 -0.20078765228390694,-0.7853613793849945 l-1.4834237098693848,-1.8869756162166595 -2.9180917143821716,-2.2803151607513428 m-15.728310346603394,-11.50106430053711 l1.6392441093921661,3.209308087825775 1.2030787020921707,1.1556407809257507 l0.6041748449206352,0.061438712291419506 0.5923153460025787,-0.3814800828695297 l1.1095205694437027,-2.3857326805591583 m10.689347982406616,-4.372196197509766 l2.7276813983917236,1.3704292476177216 1.97098046541214,1.4343386888504028 l1.8846695125102997,2.0559732615947723 1.4119374752044678,2.129106819629669 " fill="none" stroke="black" stroke-width="1" /></svg>