<?xml version="1.0" encoding="utf-8" ?>
<svg baseProfile="full" height="97.93952903956924" version="1.1" width="108.8597531484278" xmlns="http://www.w3.org/2000/svg" xmlns:ev="http://www.w3.org/2001/xml-events" xmlns:xlink="http://www.w3.org/1999/xlink"><defs /><rect fill="white" height="97.93952903956924" width="108.8597531484278" x="0" y="0" /><path d="M25,25 m0.0,0.0 m15.07768688854617,4.036161092394084 l0.36698497660425355,0.4208915672588884 0.4846912201560331,1.77983549539188 l-0.002300346525594294,26.653151997788466 m0.5812739182271282,-29.37750465112061 l26.563246006110102,-2.5014091013471442 2.5309895035299617,-0.0034972560666395903 l1.5120642272785856,0.5201176663744581 0.6745769896017679,1.704786120779302 l-0.05120392692875016,28.56626060228267 m-27.06173443913129,-17.74417550407744 l4.45562950874902,-0.22020782840494102 12.741914182721938,-1.585241267275966 l4.813908632296737,-0.22797585861472924 m-11.642818360086972,-6.278206844009609 l0.4333097793890799,1.297199531331842 -0.45131598592700634,3.504267965620716 l-0.9292189936996366,3.7588447333684774 -1.3324001534719498,3.4993670557351106 l-3.137030556361618,3.001955462257973 -2.2981809915851423,1.2072863325233711 l-2.876130224145868,1.043867412740171 m11.775745431525557,-8.65735685852801 l2.925669379092585,1.4106637688034698 2.767930269098954,1.7470094233944766 l2.461507342901247,1.99398820927892 1.992014201749388,2.027586961206825 m-23.216741942957253,5.232827061686651 l25.349689274306442,-1.0649377975203569 m-37.33214814906307,10.571439801378727 l-0.19316267791865147,1.6275332498526687 -1.268001097301327,3.1769097356801037 l-1.8626821434660183,3.4008699718204696 m10.523880779634606,-11.582667828084 l3.3497278279557268,4.638296412428174 3.2596626830417743,3.328165286260083 l4.143114710388472,2.804991610706017 4.342954212427521,1.9330832025783258 l3.861182750144302,1.112704746347627 4.530128711159884,0.754256494772861 l5.194654970154007,0.39456389437020806 4.953601929248104,0.03382696820566654 l3.7255289842759045,-0.3598589347678977 1.032705960710816,-0.8003820040489168 l-0.04980221251435777,-0.5672717514045786 -0.42590662508059657,-1.438293878347823 l-1.7375191924498312,-1.7501427083494254 m-19.67407692054259,-11.844268121550156 l1.8568543315057202,2.6463631112135686 1.2121318318498642,0.978762420771776 l1.0382209612592825,-0.009761183731391909 0.7228194877549867,-1.318277505242323 m15.692435630417329,-2.2212162664181023 l3.933604372408657,3.3864666188182104 3.5200862213634125,4.68683189357842 " fill="none" stroke="black" stroke-width="1" /></svg>