<?xml version="1.0" encoding="utf-8" ?>
<svg baseProfile="full" height="105.56012428676534" version="1.1" width="110.43828664365093" xmlns="http://www.w3.org/2000/svg" xmlns:ev="http://www.w3.org/2001/xml-events" xmlns:xlink="http://www.w3.org/1999/xlink"><defs /><rect fill="white" height="105.56012428676534" width="110.43828664365093" x="0" y="0" /><path d="M25,25 m0.0,0.0 m31.76762424154031,4.318514754515627 l-0.019324996117812594,0.39474602236011463 -0.5609576097292834,1.6099376232007319 l-1.6577578010247145,2.0281056895984393 -2.6609566504540605,2.452093215965246 l-3.0555298098435677,2.16518977892398 m-4.513503103191308,0.4642296738454653 l0.6265689757453116,0.9349596515145794 0.20150210252956355,0.9236817092136957 l0.009729986431130527,22.14720471166879 m0.7086664585924535,-22.75407563792354 l22.2971755295267,-2.560921159603196 1.5513669987535972,0.11649964204165882 l0.9637972367593524,0.6560876736862772 0.31814635852387224,1.4391603222034184 l-0.7990466072603347,21.532235736677457 m-24.162735662511256,-13.140990819815531 l14.544938664504938,-1.844280645025956 m-14.848443790031661,8.958489388720055 l14.547293098286037,-1.6458782499049733 m-14.17283175283056,8.394313495644125 l23.301093197182308,-1.8894236624248675 m-34.721701060033766,10.717532933435173 l-0.43021685276255095,1.402866838618986 -1.715441519039948,2.664696335013821 l-1.986110306304202,2.2686400496778676 -2.0458473367911663,1.8711663055301135 m12.69704740456246,-9.702788452006507 l3.49663322814533,3.7310361531173495 4.469191940712286,2.9950138910924453 l5.456138275646955,2.3204978761361863 5.084749678725804,1.3140768004486463 l4.3332274912565945,0.6960454469055314 4.7578797869025795,0.4246101866085082 l5.258777332506407,0.15685100710563255 4.402471310638056,-0.13779946313745506 l3.5416985648479975,-0.48232434187937756 0.8921268872948576,-0.382944783429452 l0.3234564112160829,-0.470723620242114 -0.19385377729112907,-0.571783412255692 l-1.774999568085193,-1.388235091979771 -3.480962356668952,-0.9272223219457217 m-21.65018439578539,-8.372789071024545 l1.854028595611495,2.532785165893279 1.2004272380113075,0.9527341142443675 l1.0548357320033102,0.17734143556400364 0.949128169200756,-1.0123413812685722 m15.973093787503343,-4.129357981787813 l2.5261894936585176,0.9930615665840861 2.5182316930392323,1.418653936098207 l1.948463578782476,1.398169769257234 1.312992150766371,1.335699390822113 " fill="none" stroke="black" stroke-width="1" /></svg>