<?xml version="1.0" encoding="utf-8" ?>
<svg baseProfile="full" height="102.35717820747533" version="1.1" width="118.72373367416608" xmlns="http://www.w3.org/2000/svg" xmlns:ev="http://www.w3.org/2001/xml-events" xmlns:xlink="http://www.w3.org/1999/xlink"><defs /><rect fill="white" height="102.35717820747533" width="118.72373367416608" x="0" y="0" /><path d="M25,25 m0.0,0.0 m13.967982334707898,20.390323215971836 l0.010668413330821245,0.42602585397435044 -0.7508427221924979,3.0116470321484843 l-1.9488564198498115,3.6247511926335974 -2.1641157216559845,2.9554541125528435 m14.94928392168211,-12.627811073591719 l2.7315742673734764,2.5242026163041387 1.8237026271707242,2.9546276004377785 m-9.895347143857206,-14.121736813236542 l0.9117635951556831,0.7271951855638729 0.49648129144011277,1.5008377278144776 l-0.18670203576720612,40.9916615569022 m15.380728449142888,-35.98199548617886 l3.291455894280684,0.12600985751029115 16.699068984912607,-1.613743680322134 l3.319206361423555,-0.1682549018552454 1.636967375683593,0.16130218687414463 m-13.752300556171841,-6.644823902975583 l0.7329537633192934,0.7432539239059535 0.2669941917972565,0.904379909480183 l0.03351770554702207,13.979701977995168 m-17.08494232136257,1.2355901180050417 l1.6992104667362562,0.2693360958304103 1.8047866658552931,-0.004649231898495357 l29.700819311930026,-2.322315876822017 3.0473531370199223,-0.03503433673602099 l2.002321836513966,0.2486793232096749 m-36.23252250618073,9.944652860495388 l1.9050552045966265,0.25456435242275754 2.6234141914047395,-0.1018232657318529 l22.03024238603018,-1.9532687192904563 3.3035272335995605,-0.1255478000970877 l2.440311170241184,0.19829864058369026 m-10.99210721621294,-6.016224803607561 l0.7418309176269772,1.0839677996640344 0.2526363869089023,1.147229522380899 l-0.2748422105890977,20.93524144647855 -0.4389815669953384,0.8082528576396578 l-0.6652581691636661,0.24569279850740444 -0.7969104888563158,-0.17453405916689632 l-1.7469257575802226,-1.0423678271038304 m-11.499597871354151,-11.033178881340417 l2.447130395672496,2.137560788842775 1.5031065728477948,2.591096580965491 " fill="none" stroke="black" stroke-width="1" /></svg>