<?xml version="1.0" encoding="utf-8" ?>
<svg baseProfile="full" height="104.09001830311891" version="1.1" width="99.85975326161886" xmlns="http://www.w3.org/2000/svg" xmlns:ev="http://www.w3.org/2001/xml-events" xmlns:xlink="http://www.w3.org/1999/xlink"><defs /><rect fill="white" height="104.09001830311891" width="99.85975326161886" x="0" y="0" /><path d="M25,25 m0.0,0.0 m27.1173737281911,13.148051061849824 l0.40262756099733915,0.29061019168259955 0.6792757226437642,1.139712201609286 l-0.010894549600593663,8.529292315210013 m0.5549026220610978,-4.498108719564775 l11.864708136326843,-1.3039152022033558 2.7725291511877046,-0.0076135808437695456 m-30.73918620860189,0.37647306990676727 l0.6880780789537978,0.5545808097887842 0.4213043513062877,1.1559768912867578 l0.36842024672275275,6.133165559056552 m-8.792370874544243,0.3612719447048033 l2.0268715350690933,0.21003094015090407 3.158398740746843,-0.0737769416785716 l32.410870788187935,-2.6977425482771547 3.5824243072538255,-0.044304881266012223 l3.3544199247172166,0.3163535904701312 m-22.025536259822516,2.683233324435732 l0.61550814423013,0.7157677001173075 0.1635646933989418,0.8110714460393109 l-0.1379108539861947,9.454337303091341 -0.29034285332622123,0.5697819464365637 l-0.44798768708694875,0.24864328550031548 -0.5839208464257976,0.006820092846738677 l-1.3639323859174992,-0.6155534064499448 -1.4674226287828114,-1.0184354078639788 m-6.863560201473242,-6.073329835441272 l-0.053743779398329944,0.760475854123969 -0.3852051930409194,0.5274230568489591 l-2.209263210106395,2.077599419400985 -3.258644342287354,2.3421206038872 l-3.318836970632855,1.8739174506303975 m31.283454733327808,-9.390848287876233 l2.7062134511963922,0.8754428823559011 2.7432678037492018,1.2783712125173754 l2.1938248428943576,1.4019506187574577 0.9665744574555072,1.0979680942456382 m-9.61455227565239,-0.9593831676471748 l0.07047208256211888,0.7527875316719379 -0.3088367435238331,0.8810958745821562 l-1.9606893470479358,2.0005221136987905 -3.736857408180551,2.8072692806262287 l-4.791883978922051,2.848115250953901 -4.5650395323556605,2.303871669450092 l-5.016047451011869,4.214587708980652 -8.411688775402363,4.324977910733409 l-4.747542019750776,1.6993600745823563 " fill="none" stroke="black" stroke-width="1" /></svg>