<?xml version="1.0" encoding="utf-8" ?>
<svg baseProfile="full" height="94.34364682349559" version="1.1" width="96.78636374267373" xmlns="http://www.w3.org/2000/svg" xmlns:ev="http://www.w3.org/2001/xml-events" xmlns:xlink="http://www.w3.org/1999/xlink"><defs /><rect fill="white" height="94.34364682349559" width="96.78636374267373" x="0" y="0" /><path d="M25,25 m0.0,0.0 m19.311678126575583,2.421531726807378 l-0.030105227477374746,0.3796956421508571 -0.46578272579252156,0.8434696404450979 l-1.2948134071379591,2.2389238568364327 -2.526756797264701,3.289495163427403 m9.584424355276138,0.6468353434226731 l-0.09851979328632733,0.7698096763741524 -0.3793699003542639,0.7278285511107314 l-2.655293075591606,2.7579314260719303 -3.726643644774047,2.7181591155283837 l-4.503224704561906,2.557334495671793 m7.065953624761086,-4.047370295784765 l0.5079314139884676,0.7742616807895578 -0.0032796849015830336,10.469357786306489 m13.888654650013736,-22.846721936246066 l-0.2942565033934218,1.2130756819181974 -1.7810044286755924,2.769685563768994 l-2.237198428170402,2.5851316682647307 -2.3684681421843408,2.1542098948409354 m6.32236789331866,-4.622732770171137 l1.7912381394850379,0.6717921577242675 1.5435140455371026,1.0368846058668062 l1.6171166214117085,1.9019704356095037 m-11.32898513356667,2.6864155539679415 l2.2836053123256397,0.03918365780682867 7.023776634967295,-1.003920484228381 l1.5397942053589957,0.00818791921358119 m-13.1112248706773,7.656861614503339 l2.5735808050055917,0.06529422084556531 9.640583400239167,-1.4107967228116385 l2.261610605995461,0.05686981770871985 m-6.943046645839425,7.677730831819958 l3.292357977479519,-0.3426988912253696 3.1166015661655977,-0.08652326985496121 l1.8618435251429037,0.5111339183755512 m-22.631704124966678,-9.52204150553771 l2.3619239466716486,0.6882849361476358 2.585144173386419,1.0582771815257623 l1.669328170204027,0.9583344046472672 0.6961708953277033,0.5949706568827048 m-5.985004108415271,8.095490593054395 l0.8403491884714657,0.25697737848844754 0.8235318925143431,-0.25685797497631324 l4.806743674866329,-3.9329181722302557 m8.237712561985761,-7.146347870339285 l1.583274603697903,-0.042663494325843127 7.315427547243104,-1.116252256870887 l2.00900826993466,0.035836720027928384 m-7.77850892815827,1.4300123399835358 l0.4763305740065892,0.5059694252186251 0.18188170408596196,0.5711943307672704 l-0.03062653575253634,9.869662953275437 m-5.988197432870661,-5.520156263530245 l2.0675732428849454,0.11773752606389319 9.102448142797154,-0.9273860380448763 l1.9916806482742695,0.03380599979317067 m-14.710368582062756,6.993935787901202 l2.7180745763309786,0.11388180589213762 10.59979782863943,-1.244684773350241 l2.3657120241789533,0.07352525525045009 m-30.240897301888925,7.7388574072406575 l-0.3295618195779568,1.1002358884124739 -0.957162490398191,1.6676016160779898 l-2.3977098560399286,2.7308210438516425 m10.362578877042754,-5.8469449221211365 l0.7219890240657645,0.6905831336040998 0.742251106933389,1.2121541232331583 l0.7831072397764572,2.994130879592758 0.35610941129136137,3.0993214310342587 m5.803949899800291,-7.8376842449649216 l1.0304093177883988,1.3239333753514162 1.115063787708526,1.99622386476708 l0.8638382651235096,2.070072561690595 0.39574119418004294,1.5738581849056887 m5.227091323308242,-7.293882367762943 l1.5672321349524936,1.3675586482737396 1.6545681182312726,2.1000969243316745 l1.2407980773930922,2.067084427790662 0.6378454906459199,1.6164771288609383 " fill="none" stroke="black" stroke-width="1" /></svg>