<?xml version="1.0" encoding="utf-8" ?>
<svg baseProfile="full" height="98.01093519250949" version="1.1" width="111.698933125841" xmlns="http://www.w3.org/2000/svg" xmlns:ev="http://www.w3.org/2001/xml-events" xmlns:xlink="http://www.w3.org/1999/xlink"><defs /><rect fill="white" height="98.01093519250949" width="111.698933125841" x="0" y="0" /><path d="M26.331236987193023,25 m0.0,0.0 m21.55079602615201,2.432350361370427 l-0.053166046893075726,0.4445488894899639 -0.2851611273279193,1.3677425199852589 l-0.7797897278511815,1.7090902658939136 -3.098932836215869,4.052149563083125 l-4.035592224857975,4.005290707717625 -4.4752150385940785,3.353201897037973 m12.87445000371678,-9.26673260982207 l10.307361165398072,-0.3286239361943402 17.92697339128881,-0.8570096316659923 l3.3709956449298963,0.16104288250273574 m-35.01002487070526,8.485727536719633 l3.6168749511131897,0.0761675974176114 21.94307548196738,-1.4841604180902916 l4.2151157105394015,-0.17481358955240642 m-37.77478847157901,7.725130400656664 l3.4359066825498896,0.26270253632368523 35.329683068822355,-1.7383836096598773 l4.3755916272621205,-0.06377981792690246 2.50041580118422,0.276109733206664 m-23.86477056890536,-13.265171277854144 l-0.0039714222117647755,1.2839536662432522 -1.6441314796306867,2.09760092431882 l-6.758654480135369,4.407213107536186 -9.253379961847914,5.960059230603606 l-10.134641050047488,5.086471001086637 -5.606257235314198,1.7368810785217503 m36.01185703057967,-13.4914328379365 l18.885413844341297,9.963205222423511 3.808542689521228,1.8939341989418004 l2.993119561398813,1.1838426703087288 m-42.40275701625827,-3.020356926192709 l0.8102697707579304,0.614462008478972 0.3204469352366125,0.5143067358321866 l-0.018102005389900803,13.802108179007663 m0.2714517261171845,-14.543001376376088 l23.20552656742528,-1.6781956017892123 0.9396439062344909,0.37697820836152096 l0.39315720451646513,0.7108514144282986 -0.2487340139475626,14.137264082242444 m-23.398534289829335,-8.878098757906724 l23.567040196367977,-0.7629863850044813 m-23.565023633895834,5.421989682369772 l23.561086860905068,-0.7905920026153255 m-23.381178398627203,5.894600616665191 l23.34342173475918,-0.9027911864054384 m-18.87010129623744,-8.594537301236812 l0.5281902558992397,0.4564170776629926 0.20360500338922632,1.036854524922635 l-0.05513297330444752,15.888039438242076 0.2362003070674562,0.6237084627592945 l0.6178890675843444,0.22351277150063054 1.130960271440596,-0.0775641928875697 l9.866757984131912,-3.942360751225414 m11.43258122932552,-7.765920793679888 l0.1514800347046089,1.0467091646448805 -0.5725688734258795,0.7894110522916422 l-2.164659335413288,1.9596627679201244 -3.0419270207774307,2.09351369474415 m-9.22964181018533,4.063614494371504 l10.230668791736038,0.6779705358028378 12.162532701746805,1.1283822771036338 l3.6559246496081137,0.2126750157896536 " fill="none" stroke="black" stroke-width="1" /></svg>