<?xml version="1.0" encoding="utf-8" ?>
<svg baseProfile="full" height="105.21975319475874" version="1.1" width="106.3314028677803" xmlns="http://www.w3.org/2000/svg" xmlns:ev="http://www.w3.org/2001/xml-events" xmlns:xlink="http://www.w3.org/1999/xlink"><defs /><rect fill="white" height="105.21975319475874" width="106.3314028677803" x="0" y="0" /><path d="M25,25 m0.0,0.0 m14.578629729499305,13.278541234169998 l0.4962922142830371,0.15126604275356623 1.8033002292309381,0.07995497545383856 l23.58479050767592,-2.215802714457129 3.6560354614431994,-0.16227734351652193 l2.4462989340962804,0.221427312311111 m-32.64746620316718,8.933297573515672 l0.8822537884494316,1.641168107933221 0.6348524644593246,2.3774866542744295 l2.2772137525061265,12.065102721395458 m-2.2485860931858235,-15.114381412308763 l25.972023878949873,-3.2660380817032553 3.450971280076073,-0.2899198059089783 l1.2497786506774227,0.2935759005606357 0.6714508552234622,0.8304974869688111 l-0.0216608699576425,0.6285739294751853 -2.0482337397959856,9.303429605997326 l-1.7244194282837504,5.597973274671062 m-26.118945416680866,-6.013216491148852 l21.49018862239443,-2.4489178253063595 m-20.174578888573087,9.197342346189194 l25.130938154604927,-2.705007883562159 m-14.522092191915062,-25.806055499867515 l0.7664961227849579,0.9143294877782843 0.4707616750252795,1.5754923704509431 l0.1694294836829219,24.94959185380232 m-18.720055848673166,9.851842096179526 l-0.2189229476318496,1.4228730521574031 -1.0608424763381077,2.923157178785843 l-1.5151801666822846,3.1080550250542505 -1.2566855794806722,1.924162124040563 m10.599823070590553,-10.358412734398216 l3.764406312487091,4.54807756441827 3.0999145172097418,2.951760894754989 l3.578914216381021,2.2196170969668567 3.608439286226585,1.2829198097971317 l4.48850672216864,0.8200832917278053 4.102805504504251,0.3548509163478712 l4.9075749429412605,0.15333305900493407 4.151261185486292,-0.20487109453882582 l1.062711070566414,-0.3011561313892401 0.5472024036427335,-0.4360244066483482 l0.0712964436550065,-0.5470184779358965 -0.35390887747961924,-0.6671664424906957 l-1.9576502748749547,-1.5975013915840455 m-18.796554396846606,-10.704249790250737 l1.575260672407481,2.5959384891046926 1.1386758821360596,0.9425809227350327 l0.5668951656803833,0.04217441294912066 0.5456753274485558,-0.3291523983622497 l1.0230813022677945,-1.9616793404061952 m12.432720889240995,-2.239920382202345 l2.992406053501371,1.8350788629016115 1.9527162636155087,1.7064593460796318 l1.8885165798764116,2.3551656690371776 1.8866766502498962,3.300109700561679 " fill="none" stroke="black" stroke-width="1" /></svg>