<?xml version="1.0" encoding="utf-8" ?>
<svg baseProfile="full" height="101.74431298276407" version="1.1" width="98.41822490960527" xmlns="http://www.w3.org/2000/svg" xmlns:ev="http://www.w3.org/2001/xml-events" xmlns:xlink="http://www.w3.org/1999/xlink"><defs /><rect fill="white" height="101.74431298276407" width="98.41822490960527" x="0" y="0" /><path d="M25,25 m0.0,0.0 m13.693862500360519,3.9158917322407354 l0.4338706067908899,0.2067193905948507 2.651254542969475,1.912419923803969 l1.493909823533527,2.012555407082953 m-9.457065711858132,5.401083035539223 l2.8146823701362638,0.2006455797301607 10.80959759000437,-1.5575073029062594 m-11.87347115679388,8.148869857122358 l1.3110883809009322,0.09237481777076578 1.5387780585229782,-0.1448150902775672 l9.146469882034319,-2.2724238661800187 m-10.870980391437278,8.721536131597903 l0.9112738004720764,0.23507214713736146 1.201815406293942,-0.15002778076027962 l7.761132145639545,-1.9965109123465292 m5.328576891364857,-14.596061941013778 l2.364689844924742,0.32161444438079373 8.545402847035277,-1.4902303231578542 l3.8664335443661315,-0.2801265167778763 1.125875907967947,0.18284307335199076 m-8.470848028384726,-6.367574440600052 l0.5343413122942647,0.8362095443556163 0.14419667419474513,0.9751967522626717 l0.017421531425861628,19.29243736403809 m0.18766382673901127,-14.06711758903445 l-1.525635954098179,2.9912404286609204 -2.5674806377014323,3.408470052567041 l-2.973583711704194,3.0412230321938063 -2.7460318062617404,2.07909807818666 m10.113785335714756,-10.944034153086116 l4.0132025819344355,3.703405129571685 4.099069662572809,3.2839735714279352 l2.6721574741929626,1.862365627283824 2.1227697654581954,1.0375976166292806 m-35.727216087769435,8.392711453436064 l0.6328551735198104,1.2510336165540648 0.9070490438157517,3.1401633495782155 l1.5444353013387748,4.723195648988867 m16.599275833166967,-10.734455691824484 l-0.11302513830365217,1.26857521757112 -0.8695136737882749,2.0563597294031144 l-3.4054964377619337,4.7987124204438665 m-6.407112972484789,4.912022950146753 l0.28433693224462303,1.0081070164793275 0.22956892974913262,1.2250278631095404 l0.9558175289643223,8.105858777283716 m-0.9556344365961733,-10.27864142721469 l13.12782221861769,-1.8643890424338052 1.4630861706063765,-0.009918061455245134 l0.5281389219205477,0.21958963540185245 0.3567938984465871,0.8498333062885162 l-0.08205840846780481,0.7574731574288122 m-14.453644273631951,1.8390882018928558 l0.020647774788350504,1.3988884485926747 -1.4402538792589654,2.7729234139551586 l-1.9173836930793469,2.6137179867127567 -3.27077277397206,3.302022191035221 m7.161249793175927,-6.839758262121552 l1.966592280966376,0.8300898153797651 2.5098928158759835,1.4366121760540953 l2.1482357045471003,1.787666783977823 1.304949218950145,1.5909961232505578 " fill="none" stroke="black" stroke-width="1" /></svg>