<?xml version="1.0" encoding="utf-8" ?>
<svg baseProfile="full" height="93.2972245561468" version="1.1" width="99.17734077408704" xmlns="http://www.w3.org/2000/svg" xmlns:ev="http://www.w3.org/2001/xml-events" xmlns:xlink="http://www.w3.org/1999/xlink"><defs /><rect fill="white" height="93.2972245561468" width="99.17734077408704" x="0" y="0" /><path d="M25,25 m0.0,0.0 m13.951838489121773,5.145361211213959 l0.4350677492321198,0.1172284753623409 1.5635642507640608,0.07705341085423774 l21.408572371841288,-2.017682908888856 3.1962645166684664,0.15988077541384768 m-13.822136897643725,8.659804876232032 l1.553508809751313,0.7291854038445913 7.049466368583321,-1.1116712411015646 l1.9952987552592027,-0.04242700092488372 0.5618934512747626,0.20251816909792894 l0.431340076098577,0.8926184740492663 -0.05315155259444444,0.7122152559869478 l-1.3685682619576667,8.567978001782853 -1.120917214423091,4.4933907451195 m-14.76356800583501,-6.173631707931293 l15.505798321553605,-1.6399062457556786 m-15.577300287842437,8.547815267062395 l14.979293123351873,-1.5161334889737081 m-16.393583896789323,-13.027837059914225 l0.6342157184388543,0.6476015023003223 0.34855819830386214,0.7974288802729391 l0.6157128585628576,28.800431538053424 0.2835882300201154,0.2760022229904223 l0.44296519309475296,-0.01835112808754572 0.5816153027294474,-0.3034473861723513 l6.259179110465427,-5.046750614390647 3.3835487741297547,-2.114326675726792 m8.177732723152637,-12.74961641625745 l0.11799346119379601,1.495096141020806 -1.1581621892057226,0.7813713189695396 l-3.401444741795257,2.481297983176951 m-7.565926567282364,-3.8014880933337083 l1.5917815702244136,0.6829930056205341 2.821000455235179,2.268532580914132 l12.146411274230637,10.734723168872987 2.3332318054345733,1.0403216782279792 l2.032659430739407,0.5707545271735032 " fill="none" stroke="black" stroke-width="1" /></svg>