<?xml version="1.0" encoding="utf-8" ?>
<svg baseProfile="full" height="95.72937162995643" version="1.1" width="103.34771372408883" xmlns="http://www.w3.org/2000/svg" xmlns:ev="http://www.w3.org/2001/xml-events" xmlns:xlink="http://www.w3.org/1999/xlink"><defs /><rect fill="white" height="95.72937162995643" width="103.34771372408883" x="0" y="0" /><path d="M25,25 m0.0,0.0 m11.811066435571167,18.067201010484954 l0.014280943448165105,0.43351905627288595 -0.6364097858674707,3.504604337940758 l-1.8363054515509907,4.202619435871176 m11.66623854021082,-10.942874288130888 l1.416473943566003,1.9146757258523657 1.1188645140251536,2.4223421292385696 m-7.328873158830143,-13.006596342603231 l0.5327366108582656,0.6877536301941872 0.2673932252434554,1.2710047736473402 l0.013864853649421216,37.17512216118832 m12.239880798939037,-33.60939264542881 l2.3983770543548064,0.14658536337064182 12.675308146198141,-1.2750544016952254 l2.6047705228366524,-0.19928930354338265 1.311652683152199,0.1379452428102046 m-10.601590661206082,-5.644326452349588 l0.5111642753620438,0.6541726363927266 0.17873616304948817,0.9021216506703673 l-0.01901350375482146,11.764997289140604 m-13.72380418160763,1.4030626546951142 l1.4896794722915734,0.2215601127362075 1.4644093346950864,0.0023981372709165833 l24.16968113969475,-1.9103511292845103 1.609131809759752,0.21925385058336544 m-28.147096226328323,9.399299578716567 l1.5271982123710919,0.23314651439747247 2.053511747264877,-0.06845536232218391 l17.329567044348615,-1.6917082052583454 4.5898302774447215,-0.12537138687273944 l2.1903277677371245,0.18904330950354256 m-8.975592363888074,-5.751555314263493 l0.5590998551168067,0.9575531906846821 0.19136339584964163,1.0581952636143184 l-0.12148625298000164,20.77411186073615 -0.31719323540235356,0.8672235583090684 l-0.4834853318780877,0.3280472868828492 -0.584494953664411,-0.06781538512893379 l-1.2765215068160312,-0.8480029104181576 -1.3255846346737628,-1.2138486302073297 m-8.976692053790941,-9.546981149053192 l1.0641190975996,0.8522928012872241 1.4079995144781083,1.5073529479612862 l1.2632851062263177,1.706107103107909 0.46755626932666416,0.9946373960963784 " fill="none" stroke="black" stroke-width="1" /></svg>