<?xml version="1.0" encoding="utf-8" ?>
<svg baseProfile="full" height="95.04913934745758" version="1.1" width="109.6823968463201" xmlns="http://www.w3.org/2000/svg" xmlns:ev="http://www.w3.org/2001/xml-events" xmlns:xlink="http://www.w3.org/1999/xlink"><defs /><rect fill="white" height="95.04913934745758" width="109.6823968463201" x="0" y="0" /><path d="M25,25 m0.0,0.0 m26.736245605739093,7.973759549638031 l0.0035389767478633516,0.3749350460213417 -0.4932725957741159,1.5178699940769051 l-1.3424725876645889,1.9791073452200272 -2.268356244046502,4.3488414818783925 l-2.4005677357830666,3.7548036756226457 -2.5522524536842996,3.074985199772595 m7.948816016605846,-8.978477538049235 l1.138072173415362,0.2544618446686415 6.778164413003831,-0.11757623898685567 l16.934451033420647,-0.8645235404358607 2.472532944253563,0.23468354034784492 m-15.402558303096626,-9.727184979839075 l0.7176590250741133,1.319093339574865 0.18779057875487204,1.5155060499193977 l-0.013409173728385543,17.905529343422792 m-22.15835142742331,2.0912281133304114 l1.6202559595401225,0.33345479868826927 1.7386627519412705,0.02636183873037863 l18.052275118935828,-1.376153146721406 19.260943416192745,-0.8109684111926172 l2.724229353895831,0.3580736018474657 m-29.434533594367654,7.57777737741119 l0.5569027069766522,0.8216385750925139 0.28447062146945945,1.155389264069374 l1.5736325497299857,10.306523223349553 m-1.2125065605080008,-11.553573093238073 l16.173185616895715,-2.004669068898163 1.6024845497527196,-0.08371841143967747 l0.5868400376843863,0.1448963245216788 0.6557667159972478,1.3718659461798244 l-2.2206788489013864,8.397241655938595 m-15.050664346827398,1.8972169677437072 l16.3914059323041,-1.2166019500431717 " fill="none" stroke="black" stroke-width="1" /></svg>