<?xml version="1.0" encoding="utf-8" ?>
<svg baseProfile="full" height="117.44339005501675" version="1.1" width="104.87804150035385" xmlns="http://www.w3.org/2000/svg" xmlns:ev="http://www.w3.org/2001/xml-events" xmlns:xlink="http://www.w3.org/1999/xlink"><defs /><rect fill="white" height="117.44339005501675" width="104.87804150035385" x="0" y="0" /><path d="M25,25 m0.0,0.0 m10.884092135161524,20.25085311206702 l-0.012903486218169672,0.4726854774694711 -0.8189650640140103,5.850313972887011 l-0.9763295690308336,3.4861800809468595 -0.8431397074105088,1.9719385677472308 m10.179592643662017,-14.084298218560978 l2.243666533887206,3.4869911639019495 1.305260414036198,2.639985017016183 m-7.623576122711039,-19.42691744226326 l0.7155034119154854,0.9272704475721882 0.38597553373749,1.8921044674909249 l-0.14317831799445083,51.632761903344516 m12.096637729519994,-53.7776545667703 l0.5266629812297089,1.1328834948613906 0.5503991747894571,14.243366521564221 m-0.5830866966467617,-15.396666239000144 l13.95872984996664,-1.7472344959494368 1.1427951356474124,0.248951484989709 l0.36053645952316793,0.36482727047534874 0.21920200978783866,1.0387550170171627 l-1.7777766505153272,15.99124275519789 m-13.717550289472982,-8.323584055940298 l9.482517874277413,-1.045069372955329 m-8.577653935676992,8.219751468378426 l12.405425499826459,-1.2037270726590514 m-20.68060000860717,8.063083025822014 l1.791767604948339,0.29057543107126255 2.4633317328934066,-0.08075721522889392 l20.26395427698186,-2.264519553636016 3.665397525054747,-0.1373273028466034 l1.8371979010849426,0.2269087064152738 m-22.37660037743469,3.282342606253464 l-0.059350539103688774,1.3659422272467465 -0.3997434228535891,3.272552145610461 l-1.2563309516489969,8.939177442146304 -1.600991925257168,5.9243490621419035 l-2.4995962174462596,5.461634267612436 m8.087392908475486,-26.608479386304122 l1.0754440604746802,0.3160211153623322 1.3285308688855635,-2.146555256109589 l7.110903274018644,-4.270215916324036 m-8.662002019794167,9.265893790412932 l1.1350157778963226,0.18178185519050766 9.897336875051236,-2.2172078807808093 l1.0653891617671034,0.053853788227725845 0.44457587108239116,0.3585879997825062 l0.20578433686466602,0.6015540030267205 -0.08385283143964452,0.7384261600737757 l-1.202942752579978,5.23485127769774 -2.0376621696616835,4.086196921724589 l-1.0402550909818638,1.1227335791364688 -0.5575520619194749,0.20794953532369106 l-1.530346006183687,-0.5707424669703006 m-1.1687385379930053,7.098691672732218 l3.0832399682947695,1.7217841913390437 1.4106702903860828,1.118503711576389 l1.1924760430915644,1.3014998657417505 0.9947075936064173,1.554107793797897 l0.8410386037771933,1.7586587493470662 0.7509906432978645,2.1114751647933163 l0.3144160127352253,3.2414005878385104 -0.2440119655441381,3.545848631979372 l-0.6897370949042565,3.113530921207115 -0.9290935187205193,1.2422126256741073 l-1.0719779064719073,0.09135541808276681 -1.7115549324803991,-1.5709835595521808 l-0.825540478014828,-1.3461948153275338 m-8.435946263473761,-13.58395626063925 l1.196058028260927,0.3378766515735833 1.5538079372422486,-0.018884286366479944 l14.997328093772065,-2.602447081715292 4.3584700248587005,-0.44034040872756847 l1.494405610789354,0.42458645326374417 " fill="none" stroke="black" stroke-width="1" /></svg>