<?xml version="1.0" encoding="utf-8" ?>
<svg baseProfile="full" height="110.43619440340377" version="1.1" width="97.35520817566497" xmlns="http://www.w3.org/2000/svg" xmlns:ev="http://www.w3.org/2001/xml-events" xmlns:xlink="http://www.w3.org/1999/xlink"><defs /><rect fill="white" height="110.43619440340377" width="97.35520817566497" x="0" y="0" /><path d="M25,25 m0.0,0.0 m14.03249121286006,10.894670523462727 l0.4810336687843672,0.12977921758110786 3.1532192287179726,0.08478584861576817 l22.998179503433786,-2.942460039587961 4.011992616291537,-0.17001039550740207 l2.6782919455772403,0.312765771788171 m-26.51634745032422,-5.571416005275527 l0.8674242621809927,1.1243748940238563 0.2941136114433138,0.8776171835242993 l1.6593043143898183,11.866280595207224 m13.888743654912506,-15.760952915283601 l0.21487864742915191,1.043495097638639 -0.058770140561074505,1.183762918811168 l-2.3250720277845125,12.27328267505229 m-15.873428932620417,4.948702166902973 l-0.010952489944564004,2.0167969613726284 -0.5855281019618491,3.3695781009633023 l-0.7273160188820275,3.146209204842348 -0.8901984905594451,2.973043390728034 m3.608840146749506,-12.285819310361871 l3.489280780341513,-0.3073881951637659 15.97745331551955,-1.9795360432471953 l1.4784403009711318,0.1614901916126939 m-11.40708987063904,10.370821545456538 l2.4498469776921805,1.5485997537958598 1.9296100316820748,1.2524703248411957 l1.2196786474962773,1.4175329396437626 -1.275721341999102,1.6705899346623427 l-2.568514700446256,3.502181801444438 -5.022535382475303,3.127218374823038 l-3.0041115639789497,1.932250636869998 -3.135517382467278,3.407869302145786 l-5.643684864529816,5.70882745170765 m4.5060276665093895,-19.475761458959468 l1.5217644871596638,2.073181363788093 1.8084817684255854,2.9573582861563383 l1.465628441245696,3.092646486286834 1.1498739202960246,3.329556254700842 m11.172750581789067,-18.172030841469386 l0.2797751830106457,1.2560187286312359 -0.02690832867936772,1.280285263197024 l-2.215893006220726,14.394206975523156 -1.4008554932990462,4.602410892495779 l-1.8342739936584274,4.408359944858858 -1.7951619709832352,3.1603339805479194 l-2.4899804558451564,3.4756201233703865 -2.5662962966044582,2.7265945011856623 m10.556835268477682,-24.322742369569497 l2.5806653511908904,2.632937680202667 2.90885537991612,3.5335169916132023 l2.4716021868605296,3.9063793150707675 1.4664032799848732,3.248647087502511 " fill="none" stroke="black" stroke-width="1" /></svg>