<?xml version="1.0" encoding="utf-8" ?>
<svg baseProfile="full" height="115.30324761238946" version="1.1" width="96.526251409898" xmlns="http://www.w3.org/2000/svg" xmlns:ev="http://www.w3.org/2001/xml-events" xmlns:xlink="http://www.w3.org/1999/xlink"><defs /><rect fill="white" height="115.30324761238946" width="96.526251409898" x="0" y="0" /><path d="M25,25 m0.0,0.0 m13.169261458463355,12.093431737704732 l0.5191424042524323,0.12254854590599246 2.99226130956964,0.014081302899415869 l23.694407413256332,-2.3267952789586897 3.5897365497737357,0.18292728116320356 m-16.90642518013577,-5.094777392811848 l0.6954373127372966,0.40170971909741543 0.5683140335059136,0.9237428656785324 l0.19686884977365635,10.007307813678313 m-12.84514362386605,1.315935599240634 l4.120826035141355,0.07491115165590233 16.17888214514973,-1.8192517092948848 l5.1489986348459675,-0.17201138844511052 m-32.85812466940286,6.322335244585194 l0.5697501227505896,0.5086612026304788 0.628788377094536,1.7614353605424982 l1.5667848481405129,6.856877171392249 m-1.4149506149983888,-8.097978346135518 l35.94849290369339,-2.918039073348604 0.8730749885962988,0.7447762810254319 l0.08986811155632674,0.5916685452256462 -1.0966301222190322,4.487524655396716 l-1.1274746396732465,3.03282519107259 m-23.400896843294838,-6.91635127001058 l1.2962964807870854,7.394548037396649 m11.020904653358576,-8.134408384383486 l-1.0917940713952783,7.251937073941932 m-21.092976535579027,1.6322805847897504 l33.60546610277403,-2.48696932712389 m-28.920753411439602,6.866050284916329 l0.8551366155470244,2.1964509693081613 -0.01912129843593926,11.538281496902 l-0.19903199333732574,6.838622513910522 m0.7400994977566664,-19.713251757737986 l18.226736998854978,-2.1951196183409563 0.7947953062354723,0.0286951369868509 l1.0613279156918667,0.5444890790926812 0.3645603589379233,0.9178768201194151 l-0.42342403396244427,18.92024360088911 m-20.715017982182044,-12.381076238185505 l13.730322109271413,-1.415561457414715 m-13.533080761061104,7.199342289172697 l13.417930657332777,-1.2948073302733036 m-13.634787345741039,8.304519391267503 l20.72848778130349,-1.5150884062233119 m-16.84091629565713,3.7164862554796487 l-0.07976058548282522,1.0098796010512296 -1.8572337345786574,1.5747397795939195 l-5.23437971103133,3.2221260705945256 -5.4261494145235485,2.8376042620456676 m23.880813166512546,-8.578763196384015 l3.1479080823325334,1.6477978100957826 3.5160864955953954,2.4021827634353325 l2.89652593312074,2.4902775291092394 1.9482879090268737,2.386366768467956 " fill="none" stroke="black" stroke-width="1" /></svg>