<?xml version="1.0" encoding="utf-8" ?>
<svg baseProfile="full" height="106.02206008593869" version="1.1" width="103.7446712110571" xmlns="http://www.w3.org/2000/svg" xmlns:ev="http://www.w3.org/2001/xml-events" xmlns:xlink="http://www.w3.org/1999/xlink"><defs /><rect fill="white" height="106.02206008593869" width="103.7446712110571" x="0" y="0" /><path d="M25,25 m0.0,0.0 m30.393574779350867,0.8872443102619204 l0.36077765047673477,0.46778283866182163 0.44584984635253105,1.560952690397514 l-0.042928515529831617,5.307517312622162 m-18.798746105159378,1.9423390804075846 l4.243699439132669,0.33462214366811555 15.338734286302724,-1.6520425389944444 l12.869543780464651,-0.9588203329567759 3.963126769090564,-0.02758519510486891 l2.9366653302680183,0.39240760231459604 m-36.736042456616666,2.861188375800714 l0.5379088247730677,0.9434511963249289 0.16353027092680733,1.2258606199544546 l-0.234208959758685,6.9496703349559334 -0.7540950613980453,8.618571761698249 l-1.2014020450852296,7.652798025597279 -1.37542749682897,5.518087682824571 l-1.3656648097598234,4.054868901244407 -2.325333654215942,5.226794886260306 l-2.2307477535829405,3.684583024470679 m13.733270053400592,-36.496622064956675 l3.7986126692507463,0.27450156389570035 17.06189863680214,-2.241617735826106 l4.182154154009203,-0.26397981464347064 1.6193009295794358,0.3260810969377732 l0.7645204347823609,0.8815847204958169 0.16382602965190188,1.4276029970714104 l-2.059240388876675,13.427909306850703 m-26.368010821928838,-6.563477036130685 l4.098340181185168,0.22783237690576463 13.385554874334629,-1.3178419497813914 l12.129026224889738,-0.9247567772767309 2.572072405306814,-0.10575960718966114 l2.4745317094667407,0.36157155520050893 m-33.04724959103846,10.548359636982806 l3.2997967655377605,0.21034069475579859 16.071367413319713,-1.6744379799443754 l5.707945897768451,-0.11638474429253647 m-13.814924440633577,-21.530426981722748 l0.41916473660336107,0.6218955278209659 0.3015523985914783,1.1828508700807663 l0.04306603593399552,20.43183654924081 m-10.487027294122338,8.570766923959884 l0.7390053988312989,0.9958715502530182 0.4234818695209,1.8531906033224492 l1.8618471464590116,10.92487608351974 m-1.7861963924377104,-13.216693911091914 l19.39459665696064,-2.3807174500427792 1.7289811804235224,-0.013724936783211059 l0.5846570610659095,0.2353177370457187 0.35966298939952057,0.4642008943833072 l0.10387557307867099,0.7399223317977516 -0.16581812848000854,1.0869837535915405 l-2.1509945635629095,9.253849364413169 m-17.620858487360362,2.340120085475964 l18.819087674727907,-1.7265521076985701 " fill="none" stroke="black" stroke-width="1" /></svg>