<?xml version="1.0" encoding="utf-8" ?>
<svg baseProfile="full" height="95.95187405847608" version="1.1" width="99.77617544773588" xmlns="http://www.w3.org/2000/svg" xmlns:ev="http://www.w3.org/2001/xml-events" xmlns:xlink="http://www.w3.org/1999/xlink"><defs /><rect fill="white" height="95.95187405847608" width="99.77617544773588" x="0" y="0" /><path d="M25,33.82631175966591 m0.0,0.0 m17.338409976367995,2.5562696546172945 l0.2578158929105204,0.3795535492813215 0.35858166390675866,1.0999335791107072 l-0.007424423780162323,11.295920108647552 m0.36065813563158117,-12.154096789257235 l11.228716737956027,-1.3916584104713097 1.1948517705702877,0.08095079213076617 l0.5453486184432551,0.20287027240469316 0.3556656791791566,0.36037855922631407 l0.1316694333836868,13.786659891084867 -0.20786596189737472,1.1110275560850682 l-0.4459611651830532,0.07873125739338245 -0.6030728281764995,-1.5107245346258729 m-5.434279500493524,-10.456536911599345 l1.744579419752695,1.6602707608941147 0.8232938289225823,1.3483180319892807 m-2.7295026666178903,-9.361090567135118 l-0.15236879754096272,1.0190805872923414 -0.7471680719780711,2.1614518425365805 l-1.406012424890303,2.4653167998436762 m6.210047883701368,-4.278365421612282 l0.9037017551936117,1.0596314443609736 0.8656211191903476,1.5066783732239253 l0.762663384054831,1.7128788858377808 m4.300101116710235,-12.769371817415744 l1.627956755793552,0.21225715049850277 6.866737868157471,-0.9268417166042205 l2.1721360874302613,-0.07580468740393081 0.7934803772007041,0.22810201035343833 l0.4793149816749337,1.0814359291090894 -0.0704790267561586,0.6729119906110815 l-0.7786216848511259,3.7812045874797326 -0.9434750330895179,3.129876574860993 l-0.4064438706405925,1.1679970567351359 -0.394947295476513,0.6633072088864697 l-0.4171354441654958,0.24830173429466987 -0.4282728400324369,-0.024200293849055324 l-0.8765124522973081,-0.41216250276337785 -0.6545308641861161,-0.7249354355696694 m-2.036949373873372,-7.698117903507313 l0.048605301988635705,0.9224072998737366 -0.3525240158605543,1.2000844188731559 l-1.20611056005866,2.788724402653096 -1.5538639171884998,2.3503492634899485 l-2.133860665392693,2.220247409785221 m-0.048835391409018,3.5242380200969614 l6.4045836177333,0.014131896766036446 1.6039011826965628,-0.08981548975125889 m-9.38478869200387,-2.469423475490685 l0.37181252276324384,0.2529636252730756 0.3209882844439421,0.6029600543508993 l0.25256578225313575,5.587697942824207 m-8.562817779525822,-4.650660705696413 l0.36324179599647877,0.3039608222440772 0.369062384616698,0.8603523241232931 l-0.09771806784341143,4.577830972627621 m-6.730136886470467,0.23327290360919498 l1.316893595417127,0.24904887061496678 1.6494096852904612,-0.006833039442469244 l21.44703196105401,-1.3958050746931823 2.2318276033960824,-0.023281310149885933 l2.886578945633805,0.2667290053960314 m-18.496980403638954,2.1410113641610895 l-0.1062238418951049,0.8625942310356275 -0.25834888238518794,0.5833017737543189 l-1.2880368405759302,2.3026021637834333 -1.4953414306339585,1.9066763363317452 l-1.515835963409925,1.3110472124267603 m4.421537620333404,-3.9590139938155215 l2.003933212228073,1.2039164888499803 1.28864128132857,1.5520067222643503 m6.790452682332499,-6.191165905144016 l-0.2166186129671338,1.0722462124314043 -1.1886182259473492,2.151752151407022 l-1.2528846835659806,1.531946243105951 -1.4979654549675216,1.2517230040733536 m3.989601135080122,-3.4358958847232133 l2.146950664156945,1.29517845434209 0.9584225081241116,0.9639428756424742 l0.6820563464559345,0.975117181250952 m-19.59653780748551,3.196017464022954 l21.996359953451638,-1.2941043554156209 m-15.254794303637386,2.304416436804425 l-0.19638966785805234,0.9858336874375659 -1.2640159070468828,2.184590635973261 l-1.564644107325021,1.8297471380133579 -1.5531535419868763,1.237295393567064 m4.422051402519394,-3.4200178076347987 l1.9489267075477252,1.3003881888102524 1.1771606058962634,1.539326344296273 m6.6852453791066395,-5.885579779583018 l-0.18070710578567561,1.1042489314246644 -0.8961755770924071,1.8471245418730537 l-1.120381500290238,1.6227029302759204 -1.3544534820994072,1.3290585355335178 m3.1011764590040896,-3.5434916053592285 l2.132289800172652,1.2605248087941068 0.951242016922438,0.9433810549518875 l0.6618263423040786,0.9688630741711466 m-20.39217016660442,-4.792038052283567 l0.43991075727794626,0.4947835753236511 0.17065329075000463,0.7078004372497172 l0.724096597222598,6.523215754237378 0.622677242942716,-1.7342657340800351 m9.662995864914885,-3.63397743735022 l0.15981788137695677,0.30990785238103424 -0.05624505429932426,0.45935395148981933 l-2.0770247508719417,4.7543628171012955 m-7.415467478236793,-4.102183934768815 l0.38792028788633925,1.4040699461607846 -0.0439618259869151,9.09863153986163 m6.668573824570376,-10.215298025710437 l0.3409844682003957,0.7246435871109653 0.06137089029292581,9.138708974392351 " fill="none" stroke="black" stroke-width="1" /></svg>