<?xml version="1.0" encoding="utf-8" ?>
<svg baseProfile="full" height="107.16940898935988" version="1.1" width="102.01941181056176" xmlns="http://www.w3.org/2000/svg" xmlns:ev="http://www.w3.org/2001/xml-events" xmlns:xlink="http://www.w3.org/1999/xlink"><defs /><rect fill="white" height="107.16940898935988" width="102.01941181056176" x="0" y="0" /><path d="M36.027031369055805,25 m0.0,0.0 m15.39274170897265,3.807535267465896 l0.43907162919495574,0.4124018869879229 0.6407927549748107,1.7028906403824222 l-0.26999542580972136,13.9574521868713 m1.1249742434151435,-6.94972667993147 l12.716096091679834,-1.5745255954690403 2.8406581972595855,0.006088051861942011 m-33.8093706281832,-0.13932232993188653 l0.8196996223402797,0.7158238333157407 0.428312305011929,0.8848051734453235 l0.3283001387391038,9.737713972165137 m-11.678312006651165,0.74653229914076 l2.275778389794301,0.3732117529079322 2.9617944709466237,-0.006471304273025847 l36.007184031629315,-3.187754504935625 6.518910327727203,-0.0990051522986482 l4.255744590464327,0.4338514060171342 m-24.72866498638087,3.547307774628973 l0.628813943040494,0.9917291531453012 0.14966899418002036,1.104817333782582 l-0.11896553450112403,13.436381162862846 -0.2859615096993478,0.8769499448275916 l-0.4560030133603567,0.428653350200285 -0.602796972386556,0.0632813440904859 l-1.5663330759630079,-0.8280649268800879 -1.7812110980852303,-1.5520025376805229 m-8.089446687767113,-9.292762500276835 l-0.09836826948994115,1.0422589083789144 -0.43325775784769577,0.7137765117253211 l-2.4965343107633275,2.757971004593287 -3.9540674685349617,3.359083763642988 l-4.5716703616328225,3.059278585125762 m37.47920164824308,-13.602431586899058 l2.7709884704452934,1.254926192536386 2.9498546997526356,1.7858675031272981 l2.4393047350724637,1.9668545458288462 1.579939853380325,1.7682188320436654 m-9.93306734652248,-1.42168441055886 l-0.02665331810903401,0.9951407557884131 -0.46742673549723085,1.2442759908788525 l-2.951594862877254,3.6294985184194255 -4.45982013434452,4.053531106161903 l-4.446947873095666,3.3212977343629717 -5.128000649103607,3.298620915220498 l-5.5964575779132675,3.151122221192514 -5.85244854006167,2.8372970685637138 l-6.007049341835652,2.356713826804599 " fill="none" stroke="black" stroke-width="1" /></svg>