<?xml version="1.0" encoding="utf-8" ?>
<svg baseProfile="full" height="126.11966180066575" version="1.1" width="94.51990398075557" xmlns="http://www.w3.org/2000/svg" xmlns:ev="http://www.w3.org/2001/xml-events" xmlns:xlink="http://www.w3.org/1999/xlink"><defs /><rect fill="white" height="126.11966180066575" width="94.51990398075557" x="0" y="0" /><path d="M26.97438852802403,25 m0.0,0.0 m14.073211923725465,3.733469405539851 l0.39152708017794746,0.43807632172062894 0.49221160379714135,1.0980062248561417 l0.19994476023243563,1.3945378696496347 -0.03199592007777289,19.578351730057985 m1.003840346854285,-10.612217317592739 l9.972086623763602,-1.4700015639204804 2.5534445774172365,0.00913433767041516 m-25.43858231728026,-0.47167928956118477 l0.7550179759808376,0.9913841841142352 0.3037567533629158,1.231306462334519 l-0.11263221561298599,16.65716552200593 m-6.136219720364877,0.6316398216995347 l1.830350736361938,0.7113903270940349 1.568153259352493,-0.11869661863707716 l27.037191396876363,-8.725813805270699 10.985495392666788,-3.035092716040877 m-18.45686212745925,2.825287236456744 l0.5577548434545255,1.5085346411109204 0.20358476123571423,2.0208744701940584 l-0.1509941969370837,24.731668485827836 -0.14454660893340607,1.2738505487557632 l-0.32396291716503833,0.7345905971576152 -0.46820695348663427,0.251839914922367 l-1.2141336256928619,-0.31433034573374913 -2.550141022739612,-2.313365875168588 m-7.430239256631815,-17.044685179469628 l-0.4284112941534378,2.6367944536599017 -1.8571274480214497,5.1295126181602875 l-2.6324406426510425,5.114613877290096 -3.421872309307564,4.85982262226881 m30.761651592096683,-19.320011332586663 l3.2136416477848977,2.128677973988412 3.485626540863223,3.1929031753537167 l2.6744810116722353,3.2831610455249964 1.2809112015699116,2.5554032979886907 m-9.715722765407278,-3.0633515864212932 l0.0013724629657390767,1.7100400407799436 -0.3267830874629622,1.7369416098067658 l-2.073237598857978,4.360955617138458 -3.6505745140078782,5.297103201579301 l-4.8555887888376015,5.503674950417073 -4.558103639699005,4.426463752123872 l-4.924508557582994,4.147303918025869 -5.264267194184422,3.688307270328283 l-5.38089381577931,3.0161199054660375 " fill="none" stroke="black" stroke-width="1" /></svg>