<?xml version="1.0" encoding="utf-8" ?>
<svg baseProfile="full" height="112.60187880497764" version="1.1" width="101.05631292978852" xmlns="http://www.w3.org/2000/svg" xmlns:ev="http://www.w3.org/2001/xml-events" xmlns:xlink="http://www.w3.org/1999/xlink"><defs /><rect fill="white" height="112.60187880497764" width="101.05631292978852" x="0" y="0" /><path d="M30.438331098507582,25 m0.0,0.0 m19.189890925074454,2.8124105669742305 l0.04715503230167756,0.3776997278118212 -0.15584496979093232,1.7052241274964288 l-1.0490099374823258,2.2406556696700184 -1.8479284478525253,2.8587059925158442 l-2.2067431072934545,2.58921251468247 m-5.33792788139364,0.6278769616606186 l0.5955293856896803,1.161194753866416 0.2749520248710674,1.1275350784016767 l-0.09219158776161797,26.641774489725062 m0.36186761090513986,-28.13659706684157 l17.760048428774965,-2.485889853330469 1.3762353741121982,0.07106817065132887 l0.9170589677870026,0.6161146640888705 0.48687039055611425,1.0399808257566592 l0.1304768009250885,1.338929941571434 -0.946203561079545,25.46094223123085 m-20.207037147364158,-16.517945065370792 l12.307469335876828,-1.6537378485848189 m-12.345610439568894,9.962516940114888 l12.062544036170417,-1.4763119515680325 m-12.025454430474879,9.717390545699661 l19.185246808628076,-1.6831815191091983 m-29.151622315164875,13.083955437428921 l-0.3484403754947652,1.722784415756912 -1.3001760965696747,3.0552920390114333 l-1.5356576010983904,2.584280045473474 -1.5838283217906106,1.9896628204698403 m10.403338202771643,-11.737853091509542 l2.8052816501971103,1.6130576601662165 3.705138536118831,2.2616883005004014 l3.7339458660371476,2.236228681629423 3.661807111433323,1.9600211766387405 l3.312201848483206,2.3128137749152486 2.992794175951042,1.491342379304335 l3.510824763772687,1.0038665187410054 4.836659308468816,0.5673472034658719 l4.519680980582148,0.061821545871959864 3.231076288584768,-0.35508327970885184 l0.931585106107519,-0.7836853719335765 -0.0602981401191111,-0.6036890224686028 l-0.48747086255911737,-0.7223298851181478 -2.3101976214315902,-1.6740416826509592 m-19.78599342334232,-10.865407025992912 l1.9415046231588822,2.7340510626265333 1.1004248036658377,0.9278383660632852 l0.9853015692633471,0.18547195969790986 0.7403878628133853,-0.988273335847639 m13.937447440563124,-4.4336416080861945 l2.0991890886122295,1.204702875373532 2.288919521150811,1.7466451719289326 l1.8155144109314525,1.949709002609307 1.1472498185733648,1.7444007625204683 " fill="none" stroke="black" stroke-width="1" /></svg>