<?xml version="1.0" encoding="utf-8" ?>
<svg baseProfile="full" height="118.07401188144226" version="1.1" width="100.82841394020852" xmlns="http://www.w3.org/2000/svg" xmlns:ev="http://www.w3.org/2001/xml-events" xmlns:xlink="http://www.w3.org/1999/xlink"><defs /><rect fill="white" height="118.07401188144226" width="100.82841394020852" x="0" y="0" /><path d="M25,25 m0.0,0.0 m29.31792663150792,12.433057875893333 l0.050308972478290734,0.34398851337728964 -0.4357444398026163,0.8465612176484045 l-1.363607658584743,0.9714766541559264 -6.010349693115501,2.6099097165788443 l-7.289598345172752,2.1294327869816243 -8.377945252536323,1.6863501698548817 m2.018662930380138,6.6937522018538935 l1.0053009953182537,0.6433089942474124 1.916399736639013,1.8174456440044235 l1.7237190194941878,1.6720713934424585 m10.28923466169183,-9.943494749732887 l2.2911714622734958,1.6416854114656678 2.0122773535128236,2.2507832586538066 m13.482051212088301,-6.300079943456305 l-0.08232994869893431,1.1408115755389814 -1.5761518978112368,2.2411400700021344 l-2.555252505619854,3.717026788889116 -2.5358664844987664,3.056165477166289 m-30.534658176492794,3.753886422657305 l-0.6666004866676173,5.22367780289633 -1.4741273575118023,5.414924566243988 m2.548408493733965,-9.110928147958328 l26.171798166719825,-2.8987378196866573 11.175613121643838,-0.95140577032227 l7.346858933180065,-0.24254516975882373 2.049770127742646,0.66321157789656 l0.33114436831685395,0.596386635495379 -0.07570763141023021,0.7383085993607957 l-1.1202215635957062,1.7623682504373483 -3.0091701976421352,2.7444807481141242 m-34.97410693168055,3.1503773727071036 l0.7074212078716049,0.28582560159919335 0.8249944859032537,0.1678757605568357 l8.292009885687351,-1.4719535374229265 m-9.585786757632487,8.863886174476828 l0.8739449213044117,0.1545656704512142 1.6452622221239723,-1.5728503302502366 l6.8234158179959845,-2.3157863558161176 0.7549932199339318,-0.007523459206268855 l0.5119432398752641,0.35334473626758434 0.17211266364111483,0.6596696843726843 l-0.18059401888871604,0.9048316815161433 -4.635289184945861,5.947630388993959 l-4.49869168680132,4.44142002053948 -5.070289769378095,3.883975435176524 l-6.001250948885122,3.4940447775698225 m5.686913624236503,-14.465269646756566 l1.6891222084665993,0.8009627770227747 2.9104978100659786,1.8374638392277232 l15.264462211951386,10.97609596658935 4.981755588598752,3.000318132635179 l3.5644982160006866,1.6400864392509253 m-13.884818566706882,-26.57189222167079 l2.574502004680622,1.626542064237187 1.9511044317232724,2.1916121556239188 m-7.4429769379689885,4.688467544302224 l3.2785644367504205,1.7914030820764588 2.617712526251333,1.7056946387510232 m-8.295413675781939,5.392927258593772 l2.532001523257184,1.5084360539770665 2.4541491974318217,1.8063118666445994 l1.7719659557749645,1.811954402141766 1.0482764427016238,1.6451072772209399 " fill="none" stroke="black" stroke-width="1" /></svg>