<?xml version="1.0" encoding="utf-8" ?>
<svg baseProfile="full" height="110.04735640182672" version="1.1" width="105.30348784812459" xmlns="http://www.w3.org/2000/svg" xmlns:ev="http://www.w3.org/2001/xml-events" xmlns:xlink="http://www.w3.org/1999/xlink"><defs /><rect fill="white" height="110.04735640182672" width="105.30348784812459" x="0" y="0" /><path d="M31.04471395534559,25 m0.0,0.0 m31.95559123096582,11.296435332973582 l0.03463958332710216,0.3938750345557055 -0.5778059456567384,0.9685978669929505 l-1.3295996184335652,0.7847904198791347 -7.4957738813046655,2.445407966284541 l-8.62047472803242,2.1017763589842913 -10.073880028875584,1.7681647122712467 m1.5114523058525002,5.2721525533673 l1.3318887815003293,0.7578230660826485 1.9040958755088369,1.8722987098150101 l1.8378131426395494,2.8852253614670054 m25.575865763763,-9.86621729875151 l-0.14432346894376286,0.9034952057883223 -2.2868372906864685,3.7861555099257114 l-4.1706508588279,2.776748706503677 -4.358973678115598,2.3639648239571693 m-31.137741140026034,4.193635337629675 l3.548471343996278,0.30797514772444007 3.540771771437877,-0.07718126806130966 l37.52243672655694,-3.1648209264782725 5.666909059693208,-0.14849531081919423 l5.024898946440295,0.32643766874397806 m-28.298572059464764,-10.881742740106601 l0.9933604617910303,0.8521285573335197 0.4792950291405066,1.5417471103018698 l-0.207599649833168,36.586978495461835 m-1.433931372598682,-25.10696107308729 l-2.4723491879093147,2.932678735365702 -2.9134398738053244,3.0487147934509666 l-6.910855121859656,6.019568298649924 -6.777198249421626,4.687728214316906 l-3.9446760130492122,2.232821381432094 -3.011630119432814,1.4385067916768675 m28.74216232502369,-19.637017342503754 l20.638657074512945,16.0650082373955 2.085053679838865,1.3531007305019256 l2.358741394638247,0.753283739087471 " fill="none" stroke="black" stroke-width="1" /></svg>