<?xml version="1.0" encoding="utf-8" ?>
<svg baseProfile="full" height="104.78269677251629" version="1.1" width="103.59653510517708" xmlns="http://www.w3.org/2000/svg" xmlns:ev="http://www.w3.org/2001/xml-events" xmlns:xlink="http://www.w3.org/1999/xlink"><defs /><rect fill="white" height="104.78269677251629" width="103.59653510517708" x="0" y="0" /><path d="M25,25 m0.0,0.0 m33.67034287238578,1.020880674642799 l0.32973962208700086,0.4410282719930809 0.4751478717662469,1.5367179711842074 l-0.02056714987794736,5.3909983106431545 m-18.289115336430157,1.9656732986066077 l4.070280379089756,0.27788605805255595 27.87603584034235,-1.7579041342106239 l4.6794518612016045,0.20523435732133757 m-34.40942232039829,2.1459909579745515 l0.6596740546589182,1.7064780461466882 -0.1651241850456362,8.830738255886855 l-0.5657999943266954,7.64889289662062 -0.98526184473825,6.254766621891516 l-1.3245313543122488,5.037962507224165 -1.3848350606439577,3.7143694560245004 l-2.238241710519183,4.5836701713934165 -2.3024741384414606,4.02474057392841 m13.584640878329363,-33.510867687659825 l3.225556043016914,0.2964282412315514 17.230753143533313,-2.2054597283718858 l3.1532741966224975,-0.2398616317330672 1.6750004557586875,0.25705109426788564 l0.7994214931677646,0.6994047605771871 0.23490545094863197,1.2252344591858302 l-1.8639421868152135,5.785887653421307 m-20.431506346291208,-10.39955238854473 l0.6520220063440411,0.896657256782367 0.20888664699109993,0.9811764498845169 l0.683714018628131,10.77775687307688 m9.703278117311031,-14.542246278157382 l0.5239736544849662,0.9060353167075356 0.08203440822046822,1.0259068824782502 l-1.0416455544195482,11.878116534760894 m-18.565166266224214,2.1684718661400693 l3.9758119052443286,0.20007477140427032 19.339211971845174,-1.8254896495982955 l4.039977109266439,0.21233950450160244 2.373740252696329,0.2800256349655581 m-25.99586357598995,12.554473475949726 l6.383566230708182,-1.075100964810951 1.935949601800411,-0.07831733370585398 m-10.381330489952854,-4.8254525121406475 l0.5128896947525239,0.9461547077565521 0.1575093265143735,1.1483996410855852 l-0.030884212759828417,13.674747053607156 0.2349024027160669,1.3559279147407228 l0.31565835996800895,0.34546680852387684 0.49265577361151236,0.000982550636813216 l0.7505114474237019,-0.36389647255041996 6.518507306103811,-2.53700384144181 m19.124360409828565,-12.112373832917655 l-0.20801009760541486,1.0383835960596335 -0.31399562841451084,0.4614357416466894 l-1.2824599027275596,1.0638639574111206 -3.961884314306486,2.8343899724236374 l-4.001559365591114,2.219068742884235 m-2.362816882127547,-9.663060986835013 l0.3478957725211027,0.8123006667039887 0.09034219302905562,1.0568093005661843 l0.0009098571627788772,14.300455614624132 0.3902026209386811,1.7265520721977907 l0.9188333233375728,1.0607819455490575 1.535285914828664,0.6516429717387102 l2.334076756818798,0.2861768895836506 5.024198789142964,0.004674862585014951 l2.9964091298374194,-0.3601840874881533 0.9774212684037139,-0.38634340652481586 l0.9375809088659213,-1.0196634786726353 0.3411917952571789,-0.9810824305329764 l0.1552398856245157,-2.0217981751190512 " fill="none" stroke="black" stroke-width="1" /></svg>