<?xml version="1.0" encoding="utf-8" ?>
<svg baseProfile="full" height="113.78794433332035" version="1.1" width="110.53317986974864" xmlns="http://www.w3.org/2000/svg" xmlns:ev="http://www.w3.org/2001/xml-events" xmlns:xlink="http://www.w3.org/1999/xlink"><defs /><rect fill="white" height="113.78794433332035" width="110.53317986974864" x="0" y="0" /><path d="M25,25 m0.0,0.0 m18.710879473884038,8.891610871830508 l0.005016566209490477,0.5604821473972545 -0.13505478780125968,1.969889412261448 l-0.9148378199571695,2.4041716024394963 -4.211857984998391,7.156436242892613 l-4.765405057141098,5.741471481812404 -6.26850164374339,5.633560111663067 m11.991573444683329,-20.13482203870553 l1.9711835321638806,1.0679306329348557 2.723225341473967,2.3191541869951946 l2.086768028920406,2.031214440646977 2.6221149302527937,3.1734527534554684 l5.042789878107224,3.319726023790326 4.818807965296334,3.001792262638841 l3.2722482496221006,2.691271962713085 m-27.77070364025611,6.8007985172346395 l1.9817997196802422,0.2131750736971351 2.5343233991479632,-0.038892594602060564 l15.67894335771076,-2.45475689800334 2.6160000607721003,-0.07117846046858216 m-11.467064338165228,-7.942447931484141 l0.7206011384402606,1.1977979714736093 0.25973777274088283,2.1018848219693105 l-0.039749678486595816,30.2230717093767 m-0.2637110493680331,-23.223450974631852 l-0.1774036923008967,1.6070525897336114 -1.2387437800858765,2.4522340382525356 l-3.8231324112465663,5.889126095529726 -3.9826570736966214,4.615758676291738 l-4.634656678361897,3.4982384697413664 m18.081089289779023,-13.639691767686827 l3.905331861254693,3.191226495084801 3.0488821775874495,4.006863259698942 m6.079779231188607,-37.81357411670509 l0.8473950610801686,1.129481317767774 0.3511023131039357,1.1305671358967646 l1.5560811406212227,10.936640325293428 2.1599549425148834,9.785226313941711 l1.9257286136625347,7.119168016400432 2.46662241933813,6.675469310366107 l2.2011393323758766,4.607561795844243 2.5034146308841696,4.3264203253832845 l2.859344486902738,3.91616644798676 3.2308884978572014,3.236847585908088 l0.9435855517133438,0.4838186892635452 0.6192435339005048,-0.06708581539335967 l0.41106356248750725,-1.3636474191179961 -0.0853778481019785,-4.315658089616588 m-5.77627533824007,-26.550276865519493 l-0.375419032592829,2.386395924494068 -1.6822839704369066,3.8255171089369786 l-2.2902842990476673,4.028588533585029 -2.969869544725907,4.124717272972732 l-2.8920834629252865,3.3665670051473504 -3.342399206720515,3.245082163872695 l-3.831000166336546,3.0283308847386703 -3.1907056196391004,2.07251320979457 m16.380495432882718,-49.799650102133185 l3.6133377445402752,3.296243994603394 1.7167059927177333,2.3829435744633507 l0.7986127798316979,1.6015129385620899 " fill="none" stroke="black" stroke-width="1" /></svg>