<?xml version="1.0" encoding="utf-8" ?>
<svg baseProfile="full" height="102.05406369432694" version="1.1" width="103.47076410418444" xmlns="http://www.w3.org/2000/svg" xmlns:ev="http://www.w3.org/2001/xml-events" xmlns:xlink="http://www.w3.org/1999/xlink"><defs /><rect fill="white" height="102.05406369432694" width="103.47076410418444" x="0" y="0" /><path d="M25,25 m0.0,0.0 m10.187906580362037,4.078777370917155 l0.4659405721832849,0.41009029545213393 0.36033163208594293,0.9285485424813402 l0.0955637734028122,13.894118166270578 m0.5661714848456679,-14.126332065032013 l12.442365038083413,-1.3022519863666553 2.1731213364259263,0.043042491125584205 m-14.918110748100073,6.669771522515469 l10.888977293671893,-1.664368264262795 2.4961364074890056,0.032244389698323876 m-13.911102367881076,5.912059118590816 l11.381180873630127,-1.3403647215485062 2.2148987505119813,0.05629024856580902 m-22.580352393006205,6.598501434730549 l1.9044669577319973,0.12588055215882973 2.8698168555197143,-0.23992906483399495 l15.312206105212477,-1.9882018020302854 4.074066351221202,-0.20745502302104812 l1.9424172078070991,0.14758721281218548 m-15.522746440042662,2.752271741960633 l-0.4261431355711104,0.9108478598615206 -3.4389918457328505,3.713146362271936 l-2.0937494589435843,1.3157137782692832 -0.41550884701669377,0.5073760139034447 l0.27570443860489385,0.44310384475790704 0.8702495828684431,0.06418831376647463 l16.27708895862338,-3.707574326827579 m-2.9726638713678213,-2.2593225294328247 l2.966237861773481,2.225301950728521 1.5410541562760776,1.6409167513001137 l0.7121523268983326,1.1978946284175906 m19.713794975963165,-23.274948319788713 l-0.0819746749332537,0.7688959407565328 -0.5553141621708604,0.48806676436377844 l-3.6116144971685182,2.381776069298723 -4.461833938398679,1.9096886177410528 l-5.302450321212418,1.7462802228809184 m17.203345489213387,-0.4836086390043561 l0.08142011041597996,0.35537991177228784 -0.4640585574049203,0.5805815706537827 l-5.74058870333041,3.213962600687301 -4.836606222872331,2.122312978886685 l-5.5872137748136,1.866395602953212 m19.233396073477014,-0.44735622702172306 l-0.10791881229168018,0.8394475442329586 -1.0648196963959529,0.7994689584834788 l-5.123935915802831,2.8440594655619202 -5.926861457703838,2.2721689081655416 l-6.693456859904347,1.8310429009488218 m-28.04213136232968,11.44137017017838 l3.3023090767665666,0.1734651665960877 6.438394510229559,-1.1498448186387256 l31.392335442142002,-6.312981213911756 0.8869142623071632,0.4022991332991819 l0.20837340462950132,0.49809953473601243 -0.014697763398657937,1.3766812531966603 l-1.3141793332604157,4.178811106911644 -1.942998157272698,4.377735013181578 l-1.303218797337208,1.5455245893892884 -0.8461475356726873,0.4908790221513269 l-0.7977917387579915,0.1418523745350777 -0.7198608126569837,-0.49281542380461396 l-1.4037309480281712,-1.7424037613663668 m-8.54970055715532,-16.418607114786628 l0.5180344994180641,0.8732406126295329 0.20853119143473253,1.5142852699216995 l-0.24912228098183778,15.800727188036483 m-15.613801636778206,-15.727323130633502 l0.9683065029745416,1.2757906622936517 0.20772326773118419,1.0266857223567278 l-0.2273422800473223,12.224710960654807 0.24445117346290945,3.4061978178322714 l0.553730125238412,1.323101981086181 0.7139159174429978,1.6090038176577683 l0.7398955611980065,1.1356028164005771 1.0157152110705852,0.9352251071073939 l3.03493081942023,0.9247848071904174 5.922048615543229,0.5262987283908062 l12.17018949195436,0.050178622962268486 8.167946117604634,-0.5116817673528518 l2.5484174723253417,-0.6650771117393764 1.584769922633862,-1.0684013615459715 l0.9678134879437202,-1.9026184867869174 0.2887467421569591,-3.0742263829638117 " fill="none" stroke="black" stroke-width="1" /></svg>