<?xml version="1.0" encoding="utf-8" ?>
<svg baseProfile="full" height="106.78011391994923" version="1.1" width="115.89887511925971" xmlns="http://www.w3.org/2000/svg" xmlns:ev="http://www.w3.org/2001/xml-events" xmlns:xlink="http://www.w3.org/1999/xlink"><defs /><rect fill="white" height="106.78011391994923" width="115.89887511925971" x="0" y="0" /><path d="M25,25 m0.0,0.0 m18.898467501360475,10.15653112202275 l0.005910025242679713,0.5711691008184034 -0.14716937809370037,1.9420442146573196 l-0.8885914653185091,2.4485863542486146 -3.9513377195706956,7.116723185738591 l-4.397322664324668,6.093981813493341 -5.588345323892818,6.098547527129719 m10.555719964611058,-10.022877871276636 l0.5798094801837232,0.9208612516760275 0.1523008444978258,1.2122329510909595 l-0.19316276204314162,30.242314270350132 m10.563876600725097,-35.9598682847086 l4.254138103368205,0.2133639885251783 23.371072808325188,-2.4737329310186453 l3.2052911022035855,-0.3849180182835813 2.683159410056864,0.12949166529998168 m-34.48294705887489,15.694282148169933 l1.9227758226643443,0.27336071855186383 2.119491911431064,-0.08529779796065275 l28.777169279921864,-2.763327307225384 3.3641634231950612,-0.1371657649579463 l2.5036933929314054,0.19281149946371798 m-21.987775348647148,-9.329523011937916 l0.31768785911710873,0.8561646003585769 -0.0001503901247958047,1.921931817186782 l-1.062521341533383,7.355340772888182 -1.569637641641125,4.948599851503423 l-2.1851294527756573,4.5046148154970105 -2.6873590353264865,3.923987537516607 l-3.189893376501044,3.373013704146781 -3.686575339348899,2.8399105449237614 l-4.995699278474782,2.4741941501144233 m19.41134419938109,-20.392622565619636 l6.09206778999477,6.069173961657393 7.299084082988921,6.205415058097171 l5.942637774004472,4.37394320225262 3.5020529758704093,2.0513469474257673 l1.3905783436762202,0.4532828188344988 " fill="none" stroke="black" stroke-width="1" /></svg>