<?xml version="1.0" encoding="utf-8" ?>
<svg baseProfile="full" height="98.3235688686226" version="1.1" width="108.32975110845318" xmlns="http://www.w3.org/2000/svg" xmlns:ev="http://www.w3.org/2001/xml-events" xmlns:xlink="http://www.w3.org/1999/xlink"><defs /><rect fill="white" height="98.3235688686226" width="108.32975110845318" x="0" y="0" /><path d="M29.59334380376881,29.047204680257778 m0.0,0.0 m12.286977106279357,3.5255229328378728 l0.5245008779080376,0.18634976912581577 2.90036595245207,0.13022802743596676 l23.44971992183414,-2.8145862581244634 2.7618025810218354,-0.1286267403956792 m-15.91871437780891,-4.946092411137289 l0.7707393602189452,0.5992520314897363 0.5307068242008791,1.1774964626275357 l0.16515759698177804,10.284143219789327 m-13.14750996879167,1.912080212466816 l1.683725576654132,0.10808763830452457 18.6776160589955,-2.2605593730275637 l4.528725911116946,-0.3421482347388079 1.4304549461652296,0.14565195647367238 m-37.16408182864885,7.781995937325401 l-0.8514205413043916,4.633752988864686 -1.7120218633271713,5.487393309670894 m2.910493750391332,-8.274843375575811 l11.273579969478323,-0.3871898547819986 31.356905488513704,-2.499291767178308 l4.1209213953478425,-0.08630523718705724 2.1854587338317955,0.3380771507546017 l0.8449876605126091,0.518648621856113 0.1273161726609155,0.6689090134762633 l-1.0656716766283891,1.6067197251840053 -3.5160898580590385,2.921552799008266 m-28.974997153394344,-1.9974264652905955 l0.3348520857274565,0.9672671883947694 0.019612576403515037,1.067212429190519 l-2.6333871022244137,3.92418599402813 -4.260828958573137,4.424683158055101 l-5.148248761480139,4.154718009921263 6.097697780576608,0.6116014306845987 l7.455467826527593,1.7831526586786655 8.582616987136209,2.8129680072002388 l6.468128714133876,1.8271630991981496 3.437429351237121,1.2641464093760024 l2.8132088514783318,1.5003649888277744 m-10.571045263871946,-20.8581301112876 l-0.1481840544584669,2.686043765392885 -1.9593534014786265,3.4854082217179787 l-3.0159219839465576,3.64703845487725 -4.256079455261044,3.698018957218491 l-4.339473835831752,2.7816049653233885 -5.255660412043702,2.560519526979299 l-6.213690094282196,2.2371280911563893 -5.286592971837414,1.412476864177603 m-6.89354029830272,-17.632717854145625 l4.500637488260042,0.13040646715669466 24.88303212518284,-1.8850289347393836 l24.020423678034767,-0.9449619623289525 3.603362895058423,0.4503298485253313 " fill="none" stroke="black" stroke-width="1" /></svg>