<?xml version="1.0" encoding="utf-8" ?>
<svg baseProfile="full" height="98.13433256523113" version="1.1" width="105.50389709649468" xmlns="http://www.w3.org/2000/svg" xmlns:ev="http://www.w3.org/2001/xml-events" xmlns:xlink="http://www.w3.org/1999/xlink"><defs /><rect fill="white" height="98.13433256523113" width="105.50389709649468" x="0" y="0" /><path d="M25,25 m0.0,0.0 m19.519299893884483,12.000604265039003 l0.5181684545022831,0.12335776059293785 3.1789079032261127,-0.05784904905688008 l16.7655059361065,-1.8650008689636817 3.103568993782131,-0.09016558910585615 m-12.599865090973331,-4.997997509155896 l0.7042864381067627,0.9235227648377096 0.22898692884344712,1.037865774709129 l0.0055002315964574775,13.672963115876176 m-12.31255341769733,-3.746348522894988 l3.2650545885201043,0.07881988748956094 17.376049884693344,-1.9956403026719518 l3.6773940622089563,-0.016268950893852992 m-34.96265291582132,8.095887516457204 l2.2735242450674567,0.2319807136635759 2.3480423516687896,-0.06383010569553538 l34.07386004305332,-3.052924513344613 5.121635705364068,-0.11055543626503253 l3.219182860362455,0.3009000955936726 m-29.511173275629165,2.5240359053375285 l-0.11419374244500327,0.8276830533283444 -0.31378885071721074,0.5333127221295966 l-4.47961023020856,4.913159519878925 0.0015705564733796092,0.5330288704680388 l2.7286590930057977,0.6032046226331541 2.4346536732182953,0.8569627396170774 m9.449178375372407,-8.12815033684501 l-0.43427319953241217,1.362595329423288 -2.4190412939468473,2.3690528118031566 l-3.805782681557798,3.205795056705131 -7.963213207793867,6.430027980726495 l0.3671328412636299,0.1849830112467106 0.7703188109641413,-2.9548996395897436 l11.015816829742528,-3.479477987444283 m-1.9636904517324094,-2.677428320594178 l1.5885558409054703,1.1104028049940677 1.5724751650322422,1.5682942842493337 l1.38898950798459,1.7871785823176667 0.7003219101475963,1.4027428561005788 m-10.329068845710685,0.421742067829567 l0.4553204775425999,1.2442742123152255 0.056093675264401004,1.7064682838663847 l-0.3272081134937663,10.48187499455028 -0.42963529464711614,0.8381480939731085 l-0.5913724594622507,-0.04534319717048589 -0.6475377339249379,-0.5952599148534896 m-6.836581394286096,-8.324173378194422 l-0.17063905023037015,1.4462300108162385 -0.4601930930944008,0.7816998549287297 l-2.79218680470564,3.087182540974293 -3.0687853906975047,2.90666323348469 m23.986720879972136,-8.469547040247576 l3.555509043772286,3.33414726666849 2.7535488487196083,3.6991259054204675 " fill="none" stroke="black" stroke-width="1" /></svg>