<?xml version="1.0" encoding="utf-8" ?>
<svg baseProfile="full" height="102.35266534066002" version="1.1" width="93.33872467759497" xmlns="http://www.w3.org/2000/svg" xmlns:ev="http://www.w3.org/2001/xml-events" xmlns:xlink="http://www.w3.org/1999/xlink"><defs /><rect fill="white" height="102.35266534066002" width="93.33872467759497" x="0" y="0" /><path d="M25,25 m0.0,0.0 m13.999203403219717,5.184449455550065 l0.38849035590146225,0.18012694151606695 2.7800006584438117,1.6776189545730347 l1.615002026644337,1.6463029842773014 m-8.097780888783085,5.401250415892081 l3.047747968745887,1.7316895433719366 1.5012364273816265,1.2802668916707398 m-4.778524058961982,15.571123247101776 l1.0167914268000444,0.3224848229182846 0.8378983837769266,-0.42965041715006463 l2.122232078999031,-2.972436793547904 2.140519989449278,-3.714332729726345 m10.00382322062169,-23.18897999979843 l-0.07270765447849328,1.441464232331854 -0.3030266086552429,2.96771987775291 l-1.0371332626903573,5.385448756553258 -1.1831610695677457,4.140060326610479 l-1.1186404909498222,2.7683163145567007 -1.3929286701145838,2.5654774492592147 l-1.7189969423311473,2.4984765808221794 -1.672620394324428,1.85033432697973 m2.1827538013894845,-12.818143213394238 l1.7401736981688631,0.11573302925098654 10.525129429161545,-2.2987273382092726 l0.9195402635911082,0.3810472603686 0.20080546068304136,0.48405532418314273 l-1.2311403759395376,9.860261598812691 0.5210475219253894,2.1427202452042757 l1.1841770458690741,0.7215135174176442 1.7604616824412496,0.21532377484587814 l2.4091283518557693,-0.10065356787585272 1.1427469144797713,-0.5756639347954182 l0.42209071749877847,-0.9573515305736302 0.1370066947201246,-2.0860252018735506 m-21.981065322461564,12.864307689918927 l1.1553042061805632,0.27407527184792446 1.5316042566957855,-0.025134758675356382 l13.798649158304894,-2.01925902488288 5.930323268322952,-0.36167600091000357 l1.7930025042035616,0.3222252446684779 m-12.45792426328083,-5.882702630367531 l0.5245243443036395,0.6940932284099395 0.21899490208723554,1.2810579018154666 l-0.028293102662159685,20.7577653904462 m-1.2655451002398002,-16.343317260733635 l-0.39739282665224906,0.8281619173003973 -0.5336562172764069,1.3051940938754913 l-1.4415287507728332,4.081623534114519 -1.2074114916786605,2.8572293087187615 l-2.4193210192693164,4.082231629434624 -1.4273190696438058,3.2288134512922526 l-2.517523167159251,3.016675209510312 m10.685763447092604,-17.698512053944544 l9.094050259996816,11.497393048198223 2.231265547389879,2.225603748947107 l2.0608760091423,1.515251028662156 " fill="none" stroke="black" stroke-width="1" /></svg>