<?xml version="1.0" encoding="utf-8" ?>
<svg baseProfile="full" height="105.64248633992494" version="1.1" width="89.67959558990188" xmlns="http://www.w3.org/2000/svg" xmlns:ev="http://www.w3.org/2001/xml-events" xmlns:xlink="http://www.w3.org/1999/xlink"><defs /><rect fill="white" height="105.64248633992494" width="89.67959558990188" x="0" y="0" /><path d="M25,25 m0.0,0.0 m19.664597221073638,19.22848224724329 l0.38384169435375187,0.3766847904229724 0.4390162375750418,1.4137962224216227 l-0.01188549279065887,10.793451619022605 m0.8978615600945072,-6.698961035200438 l8.975234611230796,-1.103288685863371 2.374258079525167,-0.05336220469865491 m-24.884817969378396,-0.5459047849196531 l0.7063784949206426,0.6267949899054223 0.3839677309028389,0.9298727747295312 l0.30549536353134216,5.348088206111671 m-6.981577865393381,0.6104716393061956 l1.6315405051413694,0.2526367701187117 2.421191506748338,-0.0704648655932105 l27.038890003690444,-2.155358320819661 3.4593747878286223,-0.07671389276179504 l2.876229120847819,0.2522140317790341 m-19.341569806056064,5.266707842562368 l1.4836130472117537,1.747886359117189 -0.04154664432359006,2.2536529881538434 m-16.514444841594525,1.0939399218842956 l4.29973410262644,0.19900147715169353 19.877064175059633,-1.4368380823370177 l2.9079724640114004,-0.11377424082355436 m-14.515524328751544,1.9279023000014845 l0.49654706475241756,0.6870624839061992 0.1678900725835967,0.7693039154767753 l-0.05269450265572037,9.500358795642768 -0.24597442958306853,0.5380558402083454 l-0.4733862944283587,0.15788626909808318 -0.5922975888660253,-0.1053781083927432 l-1.423123544280648,-1.3580128379146308 -1.3066703121825989,-1.1882275514866694 m-5.063024901306517,-6.773090581640033 l-0.322669782275461,1.1509009925301996 -2.0510621556394173,2.169346342386427 l-3.0824172732477533,2.291723835192876 -3.4022634359389126,2.107909570424838 m24.780719137661595,-8.962830218473249 l2.0259960576147162,1.2144922976048895 2.0674718607944174,1.6968292050999871 l1.5811169806404017,1.6698932810290779 0.8174353417374031,1.3873494754892426 m-5.6795343845786705,-16.553677992644946 l0.37647984386514344,0.6406258086504477 0.14154465298130595,0.9836849282079376 l-0.03782663412682053,20.6805966532576 0.14260238702979164,1.1563222412416696 l0.33937687718570936,0.802614665407422 0.806671463906559,0.5157037056298983 l0.9640682699856175,0.24189667780230184 2.3644558109071636,0.1542285792756575 l5.315386729829763,-0.38473145377773743 1.3666532884643048,-0.40091171827314376 l0.718181259804726,-0.5120665480085738 0.4546683527708187,-1.043106539345886 " fill="none" stroke="black" stroke-width="1" /></svg>