<?xml version="1.0" encoding="utf-8" ?>
<svg baseProfile="full" height="119.71519594667627" version="1.1" width="121.03624658639181" xmlns="http://www.w3.org/2000/svg" xmlns:ev="http://www.w3.org/2001/xml-events" xmlns:xlink="http://www.w3.org/1999/xlink"><defs /><rect fill="white" height="119.71519594667627" width="121.03624658639181" x="0" y="0" /><path d="M25,25 m0.0,0.0 m31.436269145609863,4.849487619841719 l0.3875070532673512,0.371557125315793 0.5450765476837459,1.4141752722078988 l-0.015294471300494087,5.038686694317194 m-22.31886166609491,1.7963565108989432 l2.1835535572232456,0.23194013345631295 2.312188900403419,-0.027199247224155176 l20.688467830868163,-1.9232057782309524 12.957154633581435,-0.9525024773038557 l4.092238613008268,-0.17041732755329686 3.350493443235204,0.3048143851065176 m-42.7191246646288,2.936770683893003 l0.5482247476587414,0.7848904365408893 0.22344973124548648,1.0407433034287312 l-0.3278921508540526,6.065259202914506 -0.8310968882224098,6.026743333945153 l-1.3393525541043039,5.474613274549137 -1.631760240763627,4.273249070518971 l-1.6096308808034347,3.0474769009976765 -2.718242795681281,3.6937383572847615 l-2.533562861199176,2.464065318047305 m33.29293308799113,-22.380690738426207 l0.05126831398006472,1.3723413640013877 -0.6025043790760112,1.411336532367355 l-13.915186452874858,9.012418316301954 -4.575799288882696,2.161302024421287 l-1.043106616772703,3.8836843514348423 m10.54451299827247,-15.518579697586471 l3.827934530723601,0.720933418992807 4.62923422546949,-1.9510750682416158 l0.9941727993502447,-0.8077476059316226 1.2857701437783748,0.272924143797065 l0.4756109583457505,0.4501319215411332 0.1583645608495167,1.39323422892481 l-0.531292067564322,3.538036062220612 -1.4570828388285277,4.018672009625758 l-2.253646294674024,7.992733426579906 -2.2150631257599587,8.813105733751797 l-1.7392778132390552,4.495093953552743 -1.908827431356667,3.543431105472068 l-2.634489605008632,3.1432135454376198 -3.1702966143677096,2.786233594036577 l-3.8767952379678925,2.726279636465963 -3.059574346907498,1.8969408949842494 m9.111033630132788,-22.330734957365323 l1.9851905580624556,2.2621162146154896 1.6293954639800736,2.5819376765131006 m14.546913572512343,-27.995926568894046 l1.3633681525034138,0.33145307889755327 2.0260866306435474,-0.10628978539612519 l12.592994268235005,-2.6011239331461016 1.414096513510038,0.3571510963492204 l0.3621560232484065,1.2908760786362408 -0.467782323150307,3.3980438600596394 l-1.7496336575089502,5.679020302223606 -2.2478641376508124,5.026212703090304 l-2.5050498801403007,4.389950495460544 -2.9601450847614705,4.034292479111488 l-3.4588243066658864,3.6612388660144415 -3.763406617848274,2.546165817585353 l-4.335151452921238,1.7104302001825629 -3.6574290513728327,1.0417517724505425 m8.343054218432275,-22.74424523824745 l3.3263199359084425,2.306623143926701 16.03416506945277,14.087922619526617 l5.161143143608296,3.987241141931819 3.3289513825695174,2.1461838220464693 " fill="none" stroke="black" stroke-width="1" /></svg>