<?xml version="1.0" encoding="utf-8" ?>
<svg baseProfile="full" height="109.49251472949982" version="1.1" width="109.34870522469282" xmlns="http://www.w3.org/2000/svg" xmlns:ev="http://www.w3.org/2001/xml-events" xmlns:xlink="http://www.w3.org/1999/xlink"><defs /><rect fill="white" height="109.49251472949982" width="109.34870522469282" x="0" y="0" /><path d="M25,25.00000672414899 m0.0,0.0 m2.7223023772239685,17.86346435546875 l0.662873238325119,0.20177572965621948 2.0228561758995056,0.2513773925602436 l2.719965875148773,-0.215741116553545 24.19487476348877,-4.03915673494339 l12.303948402404785,-1.76544651389122 5.539726614952087,-0.49701839685440063 l4.2099738121032715,0.35087667405605316 m-47.83177375793457,15.372833013534546 l0.8191219717264175,1.6447998583316803 2.2464847564697266,14.646949768066406 m-1.260916143655777,-14.638574123382568 l13.57542634010315,-2.5360366702079773 1.893923580646515,-0.07596181705594063 l0.6621447950601578,0.2420216053724289 0.6112456694245338,1.2718425691127777 l-0.10862745344638824,1.1210571229457855 -2.379423677921295,10.308043956756592 m-12.08614706993103,2.6704323291778564 l13.38166356086731,-1.9096305966377258 m-22.680463790893555,16.04881763458252 l1.4579570293426514,0.5939454212784767 1.471797227859497,-0.1834738627076149 l21.125261783599854,-8.056278228759766 m2.6107007265090942,-48.670926094055176 l0.9526071697473526,1.361439824104309 0.4652860760688782,1.408059448003769 l1.730663776397705,13.470168113708496 2.4631935358047485,10.684643983840942 l2.775326669216156,7.867067456245422 3.5460078716278076,7.156118154525757 l3.196360468864441,4.844073951244354 3.6807677149772644,4.351654052734375 l4.186299443244934,3.8169845938682556 4.715870022773743,3.2429802417755127 l2.6937422156333923,1.2893249094486237 0.6963811069726944,-0.011666297214105725 l0.36130234599113464,-0.42977500706911087 -0.43250661343336105,-5.614755153656006 m-9.224865436553955,-31.328411102294922 l-0.2892615646123886,2.455909103155136 -2.220989763736725,6.433513164520264 l-2.3298902809619904,5.603100657463074 -3.043389618396759,6.008108854293823 l-3.026999831199646,4.8863232135772705 -2.6558637619018555,3.6050108075141907 l-4.102529883384705,4.596407115459442 -3.529982268810272,3.2014596462249756 m11.888012886047363,-58.507676124572754 l3.6891448497772217,2.6724356412887573 2.2776253521442413,2.735626995563507 " fill="none" stroke="black" stroke-width="1" /></svg>