<?xml version="1.0" encoding="utf-8" ?>
<svg baseProfile="full" height="109.85299976820077" version="1.1" width="99.40011457220186" xmlns="http://www.w3.org/2000/svg" xmlns:ev="http://www.w3.org/2001/xml-events" xmlns:xlink="http://www.w3.org/1999/xlink"><defs /><rect fill="white" height="109.85299976820077" width="99.40011457220186" x="0" y="0" /><path d="M25.62272980692677,25 m0.0,0.0 m7.051208069031003,3.960402763112516 l0.3779616931484765,0.22358325875295368 2.507720517598507,2.2715692385268533 l1.3488096733819204,2.4855811430397874 m-11.908429760086676,4.681474548688232 l3.2963814645122103,0.07941578204468158 11.942000778891277,-1.4109854735390204 l3.5741542301331553,0.03936217855840064 m-14.853468118885218,8.088334956656983 l2.9292253862401516,-0.022986059391979206 6.428784726646791,-0.9384632678217381 l3.181869983443819,0.0308021334776165 m-12.06419453653366,7.6327828190473985 l2.808606231614076,-0.04060257257295111 6.172262836227156,-0.9267347454213357 l3.0566454853552174,0.025388191492872407 m-12.533175212205924,7.178295825506271 l0.4899850205349808,0.6416839310746073 0.2052467080318843,0.7625422644633565 l1.803250579987026,9.264483081438119 m-1.6739031180429347,-9.81714861970586 l11.640976362290015,-1.6538758863373126 1.1760443866090797,0.07096519065070327 l0.4491110146747235,0.3951356594144051 0.12007992270253512,0.48375010056107864 l-2.0608372508228037,7.917411060266858 m-9.162602984823216,1.3164609461217847 l10.330709538264312,-1.222871866740205 m14.254124862926744,-37.85553773342673 l-0.05781864939082727,2.3372554878269645 -0.5607826150094877,5.828671646154151 l-0.7623535931904697,4.703540902047307 -1.1587646561442584,4.613026780680659 l-1.4973164121923757,7.572187380772337 -1.3621162170138457,9.57858682662439 l-1.2937558417476105,6.873481459839373 -1.4972588688774373,5.504142912860792 l-1.640755796509972,3.8490787820986125 -1.9754753110237881,3.0407439951434845 m14.074804020762077,-31.43949207881875 l0.4910345781859615,1.072429346117552 0.18455040314134508,1.0325981303152123 l-0.3941992365394674,27.033574291961735 0.031992907502279865,1.7896931185275815 l0.5405604883349754,1.4765740384919839 0.9614658170701587,0.822995287379768 l1.8707849160619665,0.4145315267887109 5.2999305032821695,0.08916108545053829 l3.5930046329149916,-0.27909716629535697 1.2989519870854411,-0.41811706215212163 l1.1253230778687418,-0.9778708936611804 0.5064400055757263,-1.516092514133957 l0.11059013428417415,-2.1938272684285467 " fill="none" stroke="black" stroke-width="1" /></svg>