<?xml version="1.0" encoding="utf-8" ?>
<svg baseProfile="full" height="106.72190902499467" version="1.1" width="111.98806585036061" xmlns="http://www.w3.org/2000/svg" xmlns:ev="http://www.w3.org/2001/xml-events" xmlns:xlink="http://www.w3.org/1999/xlink"><defs /><rect fill="white" height="106.72190902499467" width="111.98806585036061" x="0" y="0" /><path d="M25,25 m0.0,0.0 m6.607094781331148,20.946807191228668 l0.6279873533718381,0.07283486698434635 1.5207549363302457,0.025659760148380884 l14.923925929626325,-2.4634116588754775 m-7.674687060443165,-12.840302058684351 l0.8462022504906469,1.8684704684635292 0.22679413323624723,2.7465546660221274 l-0.024155635751891707,44.267706470153406 -0.3641390813414057,1.4578828546309854 l-0.5335306566141801,0.6397064649230494 -0.6378685300064076,-0.012463909748767193 l-1.410143230273651,-1.21818280445249 -1.6197117723049852,-2.1205863255339183 m-6.456050946008332,-14.751531361577449 l1.597466846252791,0.5279261896614882 1.5077522169575444,-0.35742585316333714 l14.748457054868108,-8.860702880436168 m12.160458185864714,-21.244307145522 l1.5648566443668244,1.3028285642965582 1.741456085265013,2.000000480927681 l1.3169663407760894,2.244089026696494 0.6036246573542267,1.779714501570821 m-15.580587321294233,4.681257322141836 l1.7815622482191944,0.23130597420772703 1.625347093938111,-0.07741197034837784 l23.913402447870276,-2.724681074551122 1.8733332446188722,0.49092789306664697 m-16.833838255003055,3.034718678019155 l0.09410391486959654,0.9089320230084793 -0.4271390700829451,1.070130061288012 l-4.482534350507703,2.6024773231978595 -6.224407296910431,3.000005128865172 l-6.886495272000716,2.6631896933097954 m11.662895632157213,-5.839316470236627 l0.7833646914544198,0.9135607798424744 0.4215687305319173,1.5613278966002575 l0.016483724376303216,19.463171521647837 0.094376595734233,0.8174332163031828 l0.2611864143307499,0.499873065966308 0.34814034120110343,-0.2801625619939029 l0.587125820070554,-0.726598537196653 7.220493792943577,-7.00828032099314 m9.250626480294013,-19.51458626465241 l0.0907697972280648,1.202324332318637 -1.0525166095531464,1.4689904516738832 l-2.668699418921386,5.02332339825595 -3.0953414389589042,4.637018432534494 l-3.2342662481788285,3.821302763698683 m14.186480947661035,-7.365340655857495 l1.9833609263431984,1.8595310095978164 2.0656334281565134,2.510832029929382 l1.824418443597025,2.9331218679382176 1.115705912828257,2.448505578820611 " fill="none" stroke="black" stroke-width="1" /></svg>