<?xml version="1.0" encoding="utf-8" ?>
<svg baseProfile="full" height="126.3879133066803" version="1.1" width="100.64666169124266" xmlns="http://www.w3.org/2000/svg" xmlns:ev="http://www.w3.org/2001/xml-events" xmlns:xlink="http://www.w3.org/1999/xlink"><defs /><rect fill="white" height="126.3879133066803" width="100.64666169124266" x="0" y="0" /><path d="M25,25 m0.0,0.0 m7.586121443947827,15.682208025676854 l0.47935455699561436,0.1679799820722415 3.82228874332659,0.52554472759549 l25.889655576446735,-2.012598029429594 m-16.006638242176507,-7.852407786424644 l0.9475359829587595,0.8236390818451153 0.510072457123899,1.305598832272492 l-0.15953817615558266,14.368388063250105 m-12.206412598135024,0.9648854401832643 l0.3042902858657825,0.291913156125144 0.34075887172269326,0.8601183102659978 l0.2235920351489285,8.758457297146313 m0.36783959949473793,1.0630422484506474 l7.3539130541146145,-1.3043381799206446 1.8812093152504121,-0.07880607344166589 m7.958403474264102,9.999684008540177 l-0.5756751988968406,0.30579466450589315 -7.500813857682294,0.6114992459537907 m-4.719051413165527,-2.420168281925066 l0.5479654908599961,1.3946502958597902 -0.07814371258395335,12.473934927715208 l0.1942066641589745,0.931241672996648 0.48080660710184064,0.1622243114751365 l0.778873858261854,-0.3088758401564999 7.028284422434623,-5.142878749864903 m14.47595071099917,-16.49871989227867 l0.11720749479377314,0.9966543175004348 -0.5121771654000624,1.5797206892427067 l-2.2581838722959624,3.94901883662821 m-5.895398401168597,0.3479611303557974 l0.5861050498613483,1.4434880572353488 0.039912390350259584,10.658986935555234 m8.584859587206134,0.7700395093511647 l0.021875961398109843,0.2708225764833365 -0.23758559718396868,0.5526978500150322 l-2.5345874982831273,3.6451489111062956 -2.3953436798781644,2.716856993251645 l-2.445196320873547,2.181082521469345 m-23.94092580688878,-28.555957897719026 l0.8150222785175978,0.9248912194015727 0.3236931281310708,1.0671506650375848 l-0.07807919951823716,36.44800357741752 0.17566182663102156,1.0853133488107343 l0.4954322287493278,0.7167563921450788 0.6010016058068572,0.3033534030693384 l1.36133660710998,0.21391281183433006 33.35856201182698,-0.9988420154944647 l4.538619110669226,0.3519194692801365 " fill="none" stroke="black" stroke-width="1" /></svg>