<?xml version="1.0" encoding="utf-8" ?>
<svg baseProfile="full" height="97.5918457312823" version="1.1" width="106.3970486382452" xmlns="http://www.w3.org/2000/svg" xmlns:ev="http://www.w3.org/2001/xml-events" xmlns:xlink="http://www.w3.org/1999/xlink"><defs /><rect fill="white" height="97.5918457312823" width="106.3970486382452" x="0" y="0" /><path d="M25,25 m0.0,0.0 m13.927444456812097,4.064307625568848 l0.3470087601354971,0.20374316827034764 2.480190483385012,2.3872226334612443 l1.3305931296530285,2.641099217149152 m-12.362349675991641,5.113267137332085 l1.6432979250072781,0.14283789624760515 2.783643340401119,-0.18996348348349462 l12.339578006658884,-1.665317126428744 2.159743815136711,0.010585871608602764 m-14.144727255381381,8.736440171187061 l2.7469916060888204,0.06971137391762203 7.1563298267375,-1.0050198997027433 l1.383838061648704,-0.010402010240957282 m-11.07729610316251,7.924433886317724 l2.369922797002226,0.02930677610334599 7.585366554768501,-1.1255382766488435 l1.3963745521544348,-0.0030785548549861694 m-12.135934629308425,8.121710376476345 l0.4780182081246781,0.7806221558647608 0.3051346300785687,1.2738498195312815 l1.5299343181126357,8.713259856488326 m-1.2560755444695326,-10.109010714745947 l10.240841664542828,-1.8084072104039 1.3643387136758829,0.0024947588368384307 l0.4262382385063118,0.27879057743519103 0.20381660879903973,1.3600174627541022 l-1.6857705322304286,7.024705476346956 m-8.89215747193927,1.8320608332061508 l9.975173007858938,-1.3881418262166594 m13.790642813763922,-39.91486533712671 l-0.07613200489958391,1.218774654477633 -0.45895123059025555,1.49151110232616 l-2.643268096780565,6.005110379989904 -2.7003740480011675,4.539122210182518 l-3.572866157375537,4.564331233107819 m7.3492089506979426,-7.334419008411062 l6.138244265987198,-0.5486214452541529 8.680665544272923,-1.740471577117129 l2.2321145202060473,0.01733283349148539 m-24.43812470269885,14.228314762833707 l2.1968146431562485,0.24476296457474483 2.099347385894892,-0.06470654977841511 l13.471040527653045,-1.486107107704098 6.647562652780181,-0.5830086549401262 l2.842397134876374,-0.058507477165384826 2.2192189464968886,0.2649342459642035 m-15.490525313525222,-9.468485147648659 l0.558049232198286,0.8377747304892955 0.2845093940135048,1.6091714189435695 l-0.07643699328275355,30.364309528669693 " fill="none" stroke="black" stroke-width="1" /></svg>