<?xml version="1.0" encoding="utf-8" ?>
<svg baseProfile="full" height="100.88517997332904" version="1.1" width="93.13267588515109" xmlns="http://www.w3.org/2000/svg" xmlns:ev="http://www.w3.org/2001/xml-events" xmlns:xlink="http://www.w3.org/1999/xlink"><defs /><rect fill="white" height="100.88517997332904" width="93.13267588515109" x="0" y="0" /><path d="M25,25 m0.0,0.0 m20.04633157532327,6.913627303776488 l0.016830228183303646,0.3811138454638621 -0.46834829670425665,1.3818207612545148 l-1.2326786566202659,3.3068374603548394 -2.1477454566047016,4.6901618784868875 l-2.114103518401545,3.683997004082098 m5.186523326787064,-6.292979372854266 l0.8047211932490219,0.22589667245386222 1.3484883483378551,-0.18211863105434586 l12.121964695959257,-2.500654716013147 2.2553907801368154,-0.08371550954054628 l0.4175399333488064,0.1961562824728748 m-24.379678616646963,13.730600979875677 l1.2441438029078247,0.3179597272296471 1.7429229207677992,-0.03392061962038598 l12.384329984281505,-1.5737641691202824 9.690387294773478,-0.9873690710815645 l2.148081825970171,-0.11826801000034638 1.7982651707733623,0.2653688119989933 m-15.267605305218467,-19.63591115584215 l0.48474188288422015,1.0816513527420184 0.13106678710660347,1.2660089116911226 l-0.03282767621848501,39.83676801287651 m-1.4917386538978707,-11.304122914116673 l-0.3174386863609889,1.2629159904017158 -0.9317393580594138,1.7555732237361281 l-3.7805063861331747,5.736319845469125 -4.097940050751899,4.4556465566956875 l-3.822599803433154,3.109579521510699 m15.452977994805787,-17.512552274062383 l4.777254093757489,5.735885231275551 5.331418397303509,5.647829554120444 l3.2502757297948413,3.176212445992429 2.583970383750278,1.7585866751568429 " fill="none" stroke="black" stroke-width="1" /></svg>