<?xml version="1.0" encoding="utf-8" ?>
<svg baseProfile="full" height="113.14035118859192" version="1.1" width="93.45029514966129" xmlns="http://www.w3.org/2000/svg" xmlns:ev="http://www.w3.org/2001/xml-events" xmlns:xlink="http://www.w3.org/1999/xlink"><defs /><rect fill="white" height="113.14035118859192" width="93.45029514966129" x="0" y="0" /><path d="M25,25 m0.0,0.0 m13.420401492158106,4.076456338642764 l0.39491907865847914,0.14742318275698718 2.449909978248565,0.2807279176339661 l21.22949591347555,-2.4643580845019226 3.4240341651870665,-0.08918114521668488 l2.531534521933516,0.3568958613675348 m-29.10611845038887,15.427462045667045 l1.5349553335030233,0.42409728774574956 1.477572127786508,-0.06711805062196659 l20.121329544393237,-2.7559350246761842 0.9629612540433677,0.3431995074868217 l0.6212764797927537,1.0036376340374082 0.06217597056657949,1.6632003744476775 l-1.8419178691375673,12.9907488673185 m-20.55101761069217,3.0220218589928596 l21.508197766614405,-1.9517087536629354 3.3140228699579657,-0.06664347328973351 m-25.239933631654296,-12.274699587120082 l0.48842907489690673,1.2021443501544349 0.13955558523500114,1.1773578501684652 l-0.22780735860886198,9.328119506348914 -0.5430182462848325,7.692411003117687 l-0.9073532362970884,6.28489490575655 -1.2526809335674234,5.305345076644562 l-1.7585407929934622,4.712118757584816 -2.4361833152626255,4.478501268238414 l-2.2200102656529985,2.8932317135702648 " fill="none" stroke="black" stroke-width="1" /></svg>