<?xml version="1.0" encoding="utf-8" ?>
<svg baseProfile="full" height="109.3294942448847" version="1.1" width="109.4925114778064" xmlns="http://www.w3.org/2000/svg" xmlns:ev="http://www.w3.org/2001/xml-events" xmlns:xlink="http://www.w3.org/1999/xlink"><defs /><rect fill="white" height="109.3294942448847" width="109.4925114778064" x="0" y="0" /><path d="M25,25 m0.0,0.0 m3.338984910783438e-07,16.512370109558105 l0.5664492771029472,0.11026696301996708 5.671019554138184,-0.10718610137701035 l18.21019411087036,-1.8744741380214691 m-10.481201410293579,-13.905316591262817 l0.9199219197034836,1.6543479263782501 0.31830567866563797,2.2293852269649506 l-0.12571689672768116,51.379942893981934 -0.3333772346377373,1.2132801115512848 l-0.514235645532608,0.6403040885925293 -0.6612582504749298,0.15681268647313118 l-1.6275541484355927,-0.781315341591835 -2.696559727191925,-2.5756439566612244 m-8.66196870803833,-15.169436931610107 l2.0373624563217163,0.21520951762795448 1.4241957664489746,-0.6445980072021484 l16.503803730010986,-11.90436601638794 m8.17280888557434,-13.35569977760315 l4.019763469696045,0.1288487482815981 23.24709177017212,-2.3734018206596375 l3.503466546535492,0.471731536090374 m-15.103482007980347,3.1438109278678894 l1.1284329742193222,1.7209890484809875 0.27845844626426697,1.4874017238616943 l-0.11816771700978279,39.07675504684448 -0.33114440739154816,1.2771731615066528 l-0.5087394639849663,0.581907257437706 -0.6512964516878128,0.020395952742546797 l-1.590455025434494,-1.1078222841024399 -2.5763309001922607,-2.525491416454315 " fill="none" stroke="black" stroke-width="1" /></svg>