<?xml version="1.0" encoding="utf-8" ?>
<svg baseProfile="full" height="102.26378858126397" version="1.1" width="104.2594752664358" xmlns="http://www.w3.org/2000/svg" xmlns:ev="http://www.w3.org/2001/xml-events" xmlns:xlink="http://www.w3.org/1999/xlink"><defs /><rect fill="white" height="102.26378858126397" width="104.2594752664358" x="0" y="0" /><path d="M25,25 m0.0,0.0 m7.098819864428625,18.60109828587231 l0.5790911156041678,0.11403452242542698 1.3475418642615733,0.0050826604240537246 l12.832370008610603,-1.7894797485299019 m-6.602814399429728,-11.566498552771304 l0.7779057991145503,1.6307380705446266 0.19525578676982072,1.4512868370512524 l0.009507114131166552,40.45370811218959 -0.36243660672757894,1.287436488776752 l-0.4881844106020296,0.5458587475082677 -0.5949533597861436,-0.019939434245840684 l-1.2948864214269795,-1.0806816578960088 -1.4589119344106845,-1.9540354519157022 m-6.063392193113903,-12.694552236512534 l1.643429448551499,0.40237730823956985 1.5279859668763114,-0.37807849432579216 l11.74353611846403,-7.239732798984471 m13.214722419297843,-20.92378927903664 l-0.041575447961025705,1.2924769791719741 -0.5437781978763684,1.2650481613860387 l-3.0391159514973514,5.2602599057293915 -3.560046344908375,4.573697271982799 l-4.0585840548832515,3.991449874353833 m11.379760979950383,-9.077968081805736 l1.227898391901803,-0.48634948818115725 7.259749828466069,-2.103401403016035 l0.9485688313715287,0.040633179022069976 0.47238403995056916,0.8111087506840103 l-0.5692493108428712,1.8606103114379235 -4.107758709633117,6.523175401518597 l-2.8013176299196307,5.776327147274769 -4.299527423236642,7.0816500970486596 l-4.862590037645714,5.726514697833652 -2.955682659246277,2.5262645175780656 l-3.329728748926784,2.0345566717031613 m6.103963520592815,-21.758475055074904 l2.727194976131624,2.099749239917572 1.2951329270828618,1.5755887424428396 l0.6012562121557261,1.0492182984033873 m2.939997526111762,2.011089874708344 l-0.05538399436563661,1.044047232829109 -0.5293296453018218,1.6334769907014883 l-2.1269077598428128,3.7035417432717788 -2.4748920251420157,3.3250929670116767 l-2.9924305269749496,3.1216678067948678 m7.942734867144848,-7.453933952764802 l1.1319744860409795,0.10360991472107423 1.7053879410813262,-0.24096376156668708 l9.759623497124561,-2.019791057044472 2.300800753783029,-0.1922705758461363 m-20.69439250755761,12.477252292191931 l1.5589182042391725,0.2440364956577987 2.0573327036381683,-0.17504968282322475 l16.42776628849171,-2.5886410963176036 3.537455277446918,-0.21330187366003356 l1.819278808879048,0.25285620307489365 m-13.671626234506999,-20.06376364563558 l0.8769547517282644,1.0435820101978095 0.33070872857644706,0.9573195875082622 l-0.08486408426253048,28.386962510028912 " fill="none" stroke="black" stroke-width="1" /></svg>