<?xml version="1.0" encoding="utf-8" ?>
<svg baseProfile="full" height="98.72440793377584" version="1.1" width="104.0847183571728" xmlns="http://www.w3.org/2000/svg" xmlns:ev="http://www.w3.org/2001/xml-events" xmlns:xlink="http://www.w3.org/1999/xlink"><defs /><rect fill="white" height="98.72440793377584" width="104.0847183571728" x="0" y="0" /><path d="M25,25 m0.0,0.0 m13.28522416339906,4.77466567248965 l0.0055610456736563145,0.5016901536864011 -1.1452994971176644,1.5488869708568738 l-2.818986575490322,2.147828925259683 -3.5759475058826067,2.107758405999092 l-4.081892026786329,2.02169989436123 m11.555278841359016,0.8292349654770215 l-0.20680182194293287,1.127106682779178 -0.6151075630745323,1.232338697965726 l-3.2051666754480617,4.798845405274992 -3.937143288896924,4.555511193418103 l-4.557554674442456,4.53700079775191 m8.21791614608598,-6.497584525671973 l0.5255966808580437,0.8407801755777528 0.13792967737985037,0.9566338503960126 l-0.061342432951648075,23.242010668154187 m12.34766369840393,-48.26770266985759 l3.166070254926635,1.1108117773916453 2.1787922477684334,1.5606093870776523 l1.3623201397417568,1.3147117788704612 0.6074160791444406,1.0029260808042813 m-7.598099845238124,8.856377184392121 l1.477638876255923,0.6842121883855073 1.9357471010242155,1.4207523498337662 l1.8276176561295712,1.6492355182346166 0.6772848338103777,1.0029967835578806 m-7.050328987430744,21.250834735805782 l1.559792342475274,0.5595711135607754 0.69249509537611,-0.0653516869766432 l2.6921532525287337,-4.396508625354123 2.9337165647669163,-4.971414679423596 m8.167589262623162,-26.931727733367232 l2.6096332806968197,0.2951326975957097 9.814434218967314,-0.9115411421478044 l3.167184993781634,0.0627741102606011 m-17.410766919616318,13.020089458065017 l2.2287221940341198,0.07290914550850468 13.914815624206227,-1.4692103502891911 l3.260561900074265,-0.02608428443362251 m-9.717739551045451,1.8471865774108054 l0.5823514704605001,2.148068239898784 0.11024689184891949,3.4119877656950237 l-0.3185901155690249,23.90011244155547 -0.42004359825543447,0.6014668826312816 l-0.5956099084311224,0.02067986813923584 -1.47740299384289,-0.9592097243708688 l-1.7605865915053598,-1.9381890646223483 " fill="none" stroke="black" stroke-width="1" /></svg>