<?xml version="1.0" encoding="utf-8" ?>
<svg baseProfile="full" height="111.75542687519817" version="1.1" width="118.44983350411897" xmlns="http://www.w3.org/2000/svg" xmlns:ev="http://www.w3.org/2001/xml-events" xmlns:xlink="http://www.w3.org/1999/xlink"><defs /><rect fill="white" height="111.75542687519817" width="118.44983350411897" x="0" y="0" /><path d="M25,25 m0.0,0.0 m13.331218731960806,14.344267056702412 l0.38328229078745085,0.48522076386287283 0.403962166771911,1.5024532195593947 l-0.19683551305627145,12.243860061003833 -0.532237873645517,7.563761755864187 l-0.8295792031046653,6.070350741367323 -1.146904945284439,5.492896383828494 l-1.248267057367631,4.516016106865122 -1.658135275748133,4.371298067596915 l-1.5915377199334002,3.036918367882909 m7.561794861051367,-44.90934546676105 l10.184864604448812,-2.0024551759113747 1.0275368450954159,0.18816667825212344 l0.8524595197888603,0.3866812964778738 0.7486721171664632,1.1061756281200958 l-0.04106486923509008,42.68658299469079 -0.3233583957147979,2.0511351557506994 l-0.5520570484109706,1.0530018223048416 -0.7432605205057753,0.32027914216566966 l-0.842160062738952,-0.23499332506656595 -3.0989717461152613,-2.20539414968019 m-6.439847175509075,-31.077922744358794 l11.343638924920535,-1.2524373967298763 m-11.969815070890206,13.41735711125023 l11.841172477560397,-1.2993244982937164 m8.72344126268736,-17.409084504488916 l2.6779900289002723,0.1451148306116505 21.375315436903836,-3.0358035993236454 l2.9856074916736444,-0.24874788002992226 1.6917290762593817,0.21786027813397435 m-15.739125899186694,-8.558411706293716 l0.8384254002037606,1.0787521870653534 0.3277713135525466,1.4005337629159005 l0.14820724210922495,17.564511603698286 m-11.654637670154857,1.884615078340115 l2.5997021178445854,0.21280069883963 19.13307330371213,-2.8380515584082553 l1.5815397183472129,0.3242520902425668 0.3455374087704466,0.5370458053714066 l0.08120193402313437,1.5338948890588948 -1.347456462726372,6.39517351420781 l-1.8748327314124098,5.65865644056614 -2.385866896645489,5.330960285825049 l-2.64887598057809,4.5325516304452655 -2.879925739877802,2.209540598516481 l-3.257306342396009,1.3801215448786233 -3.375970393336814,0.8781805098384713 m3.7920673123033612,-22.503019607982406 l0.9983344415989883,0.9744198712307905 1.8727896413941842,1.9582357194099056 l9.54374877811565,15.173212884399337 3.3323287901887846,4.657881817197371 l3.1563639895289217,3.159558974593155 1.9440868700242402,1.2861211195946254 " fill="none" stroke="black" stroke-width="1" /></svg>