<?xml version="1.0" encoding="utf-8" ?>
<svg baseProfile="full" height="108.1118459161371" version="1.1" width="109.4925123435678" xmlns="http://www.w3.org/2000/svg" xmlns:ev="http://www.w3.org/2001/xml-events" xmlns:xlink="http://www.w3.org/1999/xlink"><defs /><rect fill="white" height="108.1118459161371" width="109.4925123435678" x="0" y="0" /><path d="M25.000000119645406,25 m0.0,0.0 m-1.1964540469477924e-07,16.6915225982666 l0.7152573019266129,0.08369466289877892 3.5585731267929077,0.03961104899644852 l13.320647478103638,-2.227473556995392 2.6552021503448486,-0.19588535651564598 m-8.26425015926361,-14.147852659225464 l0.8334039896726608,1.4538958668708801 0.2621104381978512,2.1882833540439606 l-0.007255474920384586,47.63280391693115 -0.19679317250847816,2.7944275736808777 l-0.5211210250854492,1.3979223370552063 -0.7411184906959534,0.32733913511037827 l-0.8580253273248672,-0.4180305078625679 -2.2318576276302338,-2.469214051961899 m-8.343604803085327,-13.773751258850098 l1.101049780845642,0.4960569366812706 2.1634848415851593,-0.8082070201635361 l17.412387132644653,-12.936272621154785 m4.083945155143738,-10.129091739654541 l1.8524418771266937,0.28469471260905266 2.630757987499237,-0.1251545175909996 l13.094981908798218,-2.3250289261341095 9.170454740524292,-1.3100208342075348 l4.810185134410858,0.15960661694407463 m-20.065462589263916,-11.78987741470337 l0.44584013521671295,1.492510586977005 -0.06563554983586073,2.0412643253803253 l-1.198117956519127,10.934685468673706 -1.8696238100528717,8.938767313957214 l-2.2506336867809296,7.365838885307312 -3.026115596294403,7.224134206771851 l-2.837647795677185,5.138232707977295 -3.3704596757888794,4.755628407001495 l-3.944365978240967,4.244072437286377 m17.106657028198242,-25.801692008972168 l2.7480190992355347,-0.12956066988408566 10.271151065826416,-2.882373332977295 l2.3285716772079468,-0.40855396538972855 0.7900068163871765,0.2520582266151905 l0.4424746707081795,0.5331660062074661 -0.08112626150250435,1.5764708817005157 l-2.0795245468616486,4.605420827865601 -3.0983853340148926,5.52721381187439 l-3.2138749957084656,4.7648391127586365 -3.868553638458252,4.806641936302185 l-3.3307817578315735,3.486657738685608 -3.7006327509880066,3.270557224750519 l-4.070483446121216,2.951720356941223 -4.43891704082489,2.530147135257721 m9.431902170181274,-25.937728881835938 l18.564096689224243,17.831125259399414 3.9128363132476807,3.2128122448921204 l3.4604421257972717,2.172873020172119 " fill="none" stroke="black" stroke-width="1" /></svg>