<?xml version="1.0" encoding="utf-8" ?>
<svg baseProfile="full" height="118.9512623653957" version="1.1" width="99.55167496133413" xmlns="http://www.w3.org/2000/svg" xmlns:ev="http://www.w3.org/2001/xml-events" xmlns:xlink="http://www.w3.org/1999/xlink"><defs /><rect fill="white" height="118.9512623653957" width="99.55167496133413" x="0" y="0" /><path d="M25,25 m0.0,0.0 m14.53183979871712,14.390144038801203 l0.4182013085293724,0.1086957609400169 2.431394762856159,0.04485389081990388 l9.851590631886253,-1.6003796437150237 2.1165832172221397,-0.17216061045041067 m-7.114642463747153,-9.388145414475428 l0.6166530187775052,0.8851280901747883 0.3321334751283223,1.572469162838445 l-0.02906877513184104,17.48897627876866 m-12.248700582283773,2.1206370805711687 l1.4852786425206166,0.3433908513400592 1.8006815453405378,-0.09724209566107882 l23.688193583838743,-3.4717554914253936 7.8177580339321695,-0.737915505674458 l3.8537787637479557,-0.10366954818625093 m-25.15005352620915,-14.33934672687098 l0.6593944083820211,0.9562548775894893 0.24962396554845645,1.1154679668703786 l1.3722995542476304,19.841174263431327 m11.068250682202057,-22.948109317847422 l0.29201704814899676,1.0287180869304047 0.018614791800069877,1.2499935126044253 l-2.0356790469128057,18.3367813046389 m-17.98217036983377,2.4826706829100336 l0.23860956682269951,1.0065972348425267 0.11807604984393168,1.6039801960281688 l-0.007231043293863806,22.409450720499873 0.4098636447098209,1.1760272736168382 l0.5444644473691773,0.3153621561980284 0.509600614767959,-0.1115101526405891 l0.5797243276636068,-0.22255832334064876 7.713917105748951,-2.487195332821801 l5.431786489489836,-1.3041202681955704 5.041601185199989,-0.3944435646388438 l2.721130964664208,0.05323802394253894 m-15.754818230751866,-33.1880375599845 l0.2942612233036008,1.2418048744761194 0.07709218901769459,1.9083188994095235 l0.03244600541611033,47.83771669308128 " fill="none" stroke="black" stroke-width="1" /></svg>