<?xml version="1.0" encoding="utf-8" ?>
<svg baseProfile="full" height="108.52749134451139" version="1.1" width="110.02508876041641" xmlns="http://www.w3.org/2000/svg" xmlns:ev="http://www.w3.org/2001/xml-events" xmlns:xlink="http://www.w3.org/1999/xlink"><defs /><rect fill="white" height="108.52749134451139" width="110.02508876041641" x="0" y="0" /><path d="M25,25 m0.0,0.0 m7.223098908135502,19.8184722151605 l0.6341686434260176,0.08610005168676976 3.166947310376085,0.004209278301181272 l14.99409155946839,-2.402894070062002 m-8.204082939545545,-12.11203860616495 l0.7767970202939835,1.238448281293742 0.2653629282492624,1.7182105749690846 l-0.1629989036975638,44.693614007997596 -0.40065311779353713,1.3752456067768764 l-0.5683780040421812,0.6034216435395626 -0.6890099198851207,0.06201058697961553 l-1.4590689663669454,-0.9731583066616823 -1.701690117555812,-1.939365192683275 m-6.342458362037828,-13.460487126365894 l1.0588886689634713,0.31563316053052515 1.3351393633430693,-0.6223267422635154 l12.691335965838668,-10.439967870511184 m18.564693129562528,-23.193293542767666 l0.4631577037594976,0.8933631449540902 0.19023757140094996,1.1770617613621563 l-0.07849757506912074,28.44145468265147 -0.2929195107021466,1.1739334736140214 l-0.5103537896175161,0.5100219490416897 -0.6738161615245493,-0.0032122690532661053 l-1.510794574562653,-0.8927842305686343 -1.5785678773321248,-1.471089670202073 m-1.7248362426961779,-15.30167307754443 l-0.07908786131772937,1.0296288697461042 -0.3932407064062192,0.9319233881519463 l-3.2398694612604415,5.63971636897455 -3.2705108887972565,4.3400735087391995 l-2.9654699473301913,3.068837032668481 m23.365150837530283,-15.693983133337925 l3.577100142969065,1.637833767020086 3.4348793591431104,2.164686916416755 l2.819785421271405,2.3101408625789634 1.3105591542257817,1.7268984835774273 m-7.07410022711257,0.3708336414895502 l-0.11732361995030154,1.6151300426111772 -0.37192561247896705,1.2514213849980105 l-2.4669933343678685,4.960386528324907 -3.5150807168662594,5.169312582564741 l-3.47507089544863,4.282239984437915 -3.9343115195819656,4.195226141354553 l-4.31109521796477,3.902843165988506 -4.569505242023744,3.442756591053083 l-4.790847116222311,2.88267550314304 " fill="none" stroke="black" stroke-width="1" /></svg>