<?xml version="1.0" encoding="utf-8" ?>
<svg baseProfile="full" height="98.97987562198287" version="1.1" width="109.3124997930157" xmlns="http://www.w3.org/2000/svg" xmlns:ev="http://www.w3.org/2001/xml-events" xmlns:xlink="http://www.w3.org/1999/xlink"><defs /><rect fill="white" height="98.97987562198287" width="109.3124997930157" x="0" y="0" /><path d="M25,25 m0.0,0.0 m11.522335279146937,3.730894128478487 l0.4217336642684665,0.42547477356695595 0.2777171787199155,0.8297745576301998 l0.11608105394353053,11.889548459022606 m0.17648681130611704,-12.501016348033147 l10.752613962691798,-0.5583205295378076 4.411213959411473,-0.01559616014600648 m-15.095250876197811,4.72257407713465 l10.833182035553707,-1.0403193252181653 2.3898538998808463,0.0324975480479032 m-12.954502703944268,4.657035644171904 l10.921201839914861,-1.0966506432320697 2.2596842300797957,0.030112088781605564 m-22.848954464371126,5.427955676156276 l2.5421150204256273,0.06602252443535624 19.34403087128615,-1.9143157416675722 l3.4218475064731124,-0.008207131256563291 m-15.433513398540963,2.1866690911397284 l-0.41105574909930653,0.7990562584972978 -5.05741148450623,4.469840251767389 l-0.32130898422328674,0.5819432823920421 0.30446592183896043,0.505674158697781 l0.9191668800848429,0.028634963992209612 14.776352368077527,-3.564368565098229 m-2.996442528438541,-2.432977118776414 l2.8591787583392256,2.1792161110353994 1.4927575597719747,1.9440017970889234 l0.5328818229850733,1.1411920495924832 m22.196903188746695,-19.80172088462939 l-0.5495467373896911,1.1020438307926497 -3.367826985734591,2.1377138122837835 l-4.435653517002368,1.8876300360102005 -5.372115135402682,1.7213291599465714 m17.127853334652247,-1.7832713311907402 l-0.4192012687458051,1.1051008475010302 -2.652161119702857,1.7692870255461135 l-2.851442218719092,1.501073000026485 -5.821427157972885,2.3816758485280887 l-5.824617793003291,1.7134159152344421 m20.868563512711926,-2.969144908140507 l-0.16321363346931844,0.8209237146548348 -1.121108732727171,0.9704522460794557 l-2.5190237102345563,1.5293018117386874 -2.8996036979662936,1.3968212639281963 l-6.686199712858534,2.4515803393887676 -6.803586623980011,1.7547375707162873 m-19.72856121037859,4.580643108006264 l0.48766214724550266,0.6262053353932775 0.45182090642210987,1.413383107747801 l0.17122656104221162,19.975845878737125 m-0.11711294748335925,-20.84967802169379 l27.813952603516274,-2.2120375544660424 0.9428786387924427,-0.012499317714565935 l1.1105301096399114,0.31428559194813716 0.6362709460542513,0.4343275269682949 l0.2662517891983256,0.9444957691863448 -0.3532207503319755,19.648155797326286 l-0.34532056190002774,1.1526786396285709 -0.5321032865036377,0.5949741388528091 l-0.6627742851454078,0.16380044498418223 -1.4785712870901557,-0.45221771613134054 l-1.9989324969250435,-1.3524665957412434 m-11.384682017088549,-24.503464928700318 l0.8824107064657146,1.1950359832598523 0.07713551898324154,0.647537195820814 l0.09086808508334329,14.740886941836141 m-14.143293092595883,-4.63502953265606 l28.105195526213425,-1.9082616312831147 m-38.739571858885654,7.99908466791274 l1.6680203117144867,0.253453614578937 2.2004167201838656,0.03198604603155842 l40.44703400639823,-2.8244847902140218 6.915518641707361,-0.3253380298629225 l2.666397942603159,0.2768758347767818 " fill="none" stroke="black" stroke-width="1" /></svg>