<?xml version="1.0" encoding="utf-8" ?>
<svg baseProfile="full" height="106.35757373372715" version="1.1" width="92.24150775342494" xmlns="http://www.w3.org/2000/svg" xmlns:ev="http://www.w3.org/2001/xml-events" xmlns:xlink="http://www.w3.org/1999/xlink"><defs /><rect fill="white" height="106.35757373372715" width="92.24150775342494" x="0" y="0" /><path d="M25,25 m0.0,0.0 m20.70966245616648,6.186502537729679 l0.04736303455513446,0.40662749538575865 -0.032707018558908584,1.51721092354747 l-0.6759544247459067,2.0076901800793556 -2.83852585841782,5.148616996872626 l-3.504065143857418,4.548110394329015 -3.8384327299739787,3.6244737952837203 m10.199272283564754,-10.963757168440567 l1.7815432879489874,-0.27968504548502954 7.268208607874105,-2.0539629658653005 l1.2567051482481841,-0.010885385007095424 0.6590259438093252,0.3313224392000872 l0.27372124705349765,0.5132161160306231 -0.27951309455687573,1.4440107769440282 l-4.364981846781091,9.236991986510288 m-11.729086096011638,2.610671688050664 l1.5620758515462496,0.29881331390514954 1.2800077320488696,-0.13379000780721204 l15.058618481928855,-2.8430284566668296 1.1140523994634726,0.13570588346896956 l0.6421157512632242,0.8648418539309383 0.0014490672688739726,1.3137897994933194 l-1.8017673223078747,11.447376756962344 m-21.15844236042531,-4.557832167839455 l3.57347435741249,0.0718183731287188 17.83143801937372,-3.139550255802969 m-20.32454256046206,9.665895696143076 l2.175218027600979,0.21717838204397144 16.061569748165738,-3.290845422520252 l2.3324274349732463,-0.20060431334059314 2.2340150440468407,0.1657941496727872 m-23.958010288517517,10.497538026661488 l-0.2533308512008396,1.7954794262314233 -0.8754891699006876,3.507077705352486 l-1.147244225979624,3.5508821269945137 -1.0574035821323522,2.350259826742454 m8.368026741065945,-13.146674478162558 l2.341098537285619,4.459421202754765 2.5613158714915354,3.4812105545181047 l3.0363897139136253,2.7657016651695154 2.9165163583083475,1.555685836035069 l3.3783844545983226,0.9296365020513265 3.1432328994541625,0.328636989441294 l3.6285378713322345,-0.015360586205701458 2.5864942808258884,-0.3439824971445259 l1.4257145994571192,-0.6973652133649823 0.2553430890346199,-1.0772573035917425 l-0.9304341449094696,-1.333347625133154 -1.976334787002684,-1.1315614833314194 m-13.855275941198292,-9.601268477942032 l1.0739945357348761,1.4438783265827917 1.1012571080442075,0.8054405348845304 l0.9575641745469606,-0.02684546799335133 0.37676316308191915,-0.45261917570295634 l0.2346866570864275,-0.8029142391136571 m9.246752894335106,-3.9420280978354936 l1.222793352457452,1.1873515640564056 1.120070391430586,1.5470381804366833 l1.8061485825673187,3.729809481947182 " fill="none" stroke="black" stroke-width="1" /></svg>