<?xml version="1.0" encoding="utf-8" ?>
<svg baseProfile="full" height="105.54932715851078" version="1.1" width="105.71362140625656" xmlns="http://www.w3.org/2000/svg" xmlns:ev="http://www.w3.org/2001/xml-events" xmlns:xlink="http://www.w3.org/1999/xlink"><defs /><rect fill="white" height="105.54932715851078" width="105.71362140625656" x="0" y="0" /><path d="M31.606767916951288,25 m0.0,0.0 m7.197724373951846,21.420030484309088 l0.5835301813681376,0.0739611310168874 2.942537255070156,0.11551707701906916 l26.523454303835713,-2.3455088136874527 3.267877744377218,-0.09747151435319118 l2.1381347172690277,0.23248234819503466 m-18.904165989811744,-9.99625849678238 l0.7009658308684696,0.7424433389604271 0.3969502804508991,1.3697194334392973 l-0.054583961833875386,20.36001545787255 m-14.774748187356552,2.1485658911384697 l2.1086663509193895,0.19813344536719002 19.226788185509626,-0.13470558308090108 l7.5739747417986125,0.140109844646377 m-41.36842365833149,11.311778352842289 l-0.29076163743363664,1.5368536415638985 -0.9816799862695061,2.630106700106675 l-1.4228715383417228,2.774948135244941 -1.4701369229918537,2.1251406720775132 m13.682844849184495,-10.77875670358937 l3.1148035723551892,1.6348500895569535 3.431947439493961,2.2427994450175777 l3.861576340378637,2.2206004262001064 3.8860631247538455,1.7615401369719956 l3.4708737372343292,1.758112681045852 3.094710542974294,1.0751438869401084 l3.553912798280574,0.6757092395647707 4.237424637849386,0.35346641090699654 l4.586130145301515,-0.011245899431004134 2.7666883772912145,-0.37015433844298645 l1.1002120026500197,-0.7059753181120624 -0.008733294935723362,-1.0513627662889877 l-1.1387651008700375,-1.3067605044191482 -2.3603915877285666,-1.3722522346569639 m-17.61719574882678,-8.685871479360307 l1.3990757798247704,2.0849821338564367 1.6494882559575967,1.2896926544641636 l0.5545295457095706,0.10582351573049856 0.49446453865018825,-0.10375899730765722 l0.8979668715596892,-1.3207636166707832 m12.566245348650957,-3.0455471664581046 l2.7150601847079816,1.2667549979430295 2.090366821771996,1.407614537415705 l1.9769209429994399,1.7781890524555144 1.7074012810380264,2.035439129776331 " fill="none" stroke="black" stroke-width="1" /></svg>