<?xml version="1.0" encoding="utf-8" ?>
<svg baseProfile="full" height="108.95761689319801" version="1.1" width="115.36439612494098" xmlns="http://www.w3.org/2000/svg" xmlns:ev="http://www.w3.org/2001/xml-events" xmlns:xlink="http://www.w3.org/1999/xlink"><defs /><rect fill="white" height="108.95761689319801" width="115.36439612494098" x="0" y="0" /><path d="M25,25 m0.0,0.0 m12.182037246013296,13.592718664884817 l0.3276580917345513,0.46017832740493286 0.4211198869802413,1.5217559100626044 l-0.1760985272313855,11.510692775211535 -0.49648404279227276,7.063549517008135 l-0.7481673308401351,5.928888618835331 -1.0952158549950513,5.002962280119075 l-1.186698316790228,4.079037829312996 -1.6256598796006616,3.8160805311473043 l-1.6415618587890548,2.4388194663680594 m7.742866768047861,-42.73415096045762 l9.859350407857185,-1.8625248286169367 0.9057694838702647,0.20716918142160395 l0.7586599470865633,0.37834090010648885 0.7061106125934032,1.0481578452951652 l-0.06884474782485474,41.647820726626826 -0.29262689360552735,1.898705132619163 l-0.5061365004501103,1.0023730187575113 -0.6894621788468728,0.3520271135188656 l-0.7838914174653817,-0.15950941836487495 -1.6371084041472408,-1.1437659652929337 l-1.9051786297716315,-1.7225974123207266 m-6.447051190961607,-29.07125867216972 l11.421753757018646,-1.2824636689650475 m-11.748647206874864,12.620680551696223 l11.641365522192359,-1.2512381476365353 m8.640024515358265,-26.483303210248348 l1.483456757516646,0.5394778635225602 1.7296440411631404,0.06984378561494914 l17.286080743019667,-2.0919198815995497 2.721483858095167,0.0681620417185037 l1.616029562384326,0.516846111390221 0.5783311112734879,1.8496184264082596 l-0.17872825772482828,0.968787133848238 -3.063913793093397,8.686634397719933 l-1.9098566582247367,3.0575791372954466 -0.8622678653019551,0.8074110784599762 l-0.7596827454231462,0.32030556467544163 -1.331966626874486,0.05594250612480681 l-1.267275012459203,-0.7201776498314575 -1.571404147595117,-1.744249781798254 m-12.034576142146793,-10.769805649449868 l0.5112095095853626,1.021629264586215 0.16312984391789126,1.1570484638891276 l-0.13888603291446283,46.30533797429956 m3.140268992142942,-26.98066313370018 l2.1266290066221223,0.22589716051164402 1.836503301684503,-0.2513084533147492 l13.410259059728688,-3.320454941765266 1.1491694913429755,0.3725049398971959 l0.6184060349337904,1.1461179583883192 -0.7610339292507774,2.669529837796635 l-1.5064305553779063,4.093655481521147 -4.0380647558981835,8.101298874589663 l-4.785813036857324,6.83427288322804 -5.305524639063291,5.605597158477644 m-0.6464630218795193,-19.768243853058518 l2.9933634923167127,2.356909265337023 14.23499789471606,13.257965207707082 l3.622878323987355,3.5806382756061286 2.7465590628295056,2.011164948241902 " fill="none" stroke="black" stroke-width="1" /></svg>