<?xml version="1.0" encoding="utf-8" ?>
<svg baseProfile="full" height="108.37844961292362" version="1.1" width="105.03421847526488" xmlns="http://www.w3.org/2000/svg" xmlns:ev="http://www.w3.org/2001/xml-events" xmlns:xlink="http://www.w3.org/1999/xlink"><defs /><rect fill="white" height="108.37844961292362" width="105.03421847526488" x="0" y="0" /><path d="M25,25 m0.0,0.0 m23.033798513860944,12.997718936217725 l0.024790475549448594,0.3893775907806266 -0.4908275773990257,1.4262942652548178 l-2.3525348355749505,2.9129846641264003 -2.762812514404408,2.418872409497361 l-3.1785406676088925,2.105005207839714 m8.439672334539665,-5.561053544124251 l2.3918445454947554,0.17422657641543624 21.44430405233453,-1.7856220498894744 l1.643083835914781,0.12361859302402058 0.9264917344662533,0.5263095263357453 l0.1819054340350953,0.9821607580841487 -0.2789298180219257,1.8492496961284428 l-1.5586582467518455,5.8898706836332835 -1.9554078688869552,5.041785793319243 l-1.8751403130557271,3.905821817573795 -1.2665190909919135,2.8337794805478156 l-1.2200535006312334,3.020449974226548 -2.7926568209460525,3.359453247529094 l-1.2211060565721565,0.0012469655950677564 -1.8801697267431543,-1.3352668321187406 m-6.071507164775729,-21.351492018721995 l-0.11969868047798164,1.1745643231967486 -0.9192942337537976,1.8436087065942974 l-3.033787029646298,3.7487593286722443 -4.225773210695826,3.584704019276986 l-4.972147684835977,3.0854748147900137 m23.18656383435287,-14.094944590985287 l-0.09280641432286424,1.9287143945457557 -0.9643779428430588,2.0301209253880836 l-1.9503582274214886,3.0585733102487644 -2.6179663600536545,3.346419126342225 l-5.952579211048838,6.003418459675199 -3.4349804306250777,2.691858894485095 l-2.7513640650765763,1.8003823211093641 m0.4252390935278304,-15.774741012532717 l4.691239909162,2.2459061191481777 4.885677887371223,2.779850867295728 l4.272765239578574,2.8067662871499386 2.357512083172329,2.2001793593683714 m-26.808922810725225,14.673881964767071 l-0.3150587850454191,1.6877026402917983 -1.2186232892100244,2.6386057265295446 l-1.655925350996897,2.664112065489899 -1.5230448248553203,1.7682326547771623 m11.99623050935774,-12.807161681637675 l3.4208115034681987,4.8036100983555805 3.4423273961505574,3.275191495397891 l4.200561651155192,2.717426184490788 4.084990688734975,1.6826983889570104 l8.369451610780633,0.8897426804607153 4.856101732066438,-0.20905097809769796 l3.3510703918996847,-0.6228798561297373 0.7163113284915466,-0.39398616075757104 l0.30528441575319104,-0.4717472856412126 -0.10144793371431295,-0.5473984122412537 l-1.5287523264390086,-1.2952241970413325 -3.1190715793383728,-0.8318324868417738 m-16.278082852081067,-7.489040372028209 l1.6230015647787135,2.4816960589881 1.1875637460155315,0.8537072353760207 l0.5805398372619501,-0.026367672109193795 0.5725400760071306,-0.38860597881718684 l1.0662244139744659,-1.8852231008329792 m12.43676897559678,-4.269614988689172 l2.407000025112152,1.212661324147797 1.7486664467597264,1.2567879591420312 l1.638901460829756,1.7040101241453045 1.6139091732812643,2.4218204690339804 " fill="none" stroke="black" stroke-width="1" /></svg>