<?xml version="1.0" encoding="utf-8" ?>
<svg baseProfile="full" height="107.85426042594541" version="1.1" width="107.03446127505313" xmlns="http://www.w3.org/2000/svg" xmlns:ev="http://www.w3.org/2001/xml-events" xmlns:xlink="http://www.w3.org/1999/xlink"><defs /><rect fill="white" height="107.85426042594541" width="107.03446127505313" x="0" y="0" /><path d="M25,25 m0.0,0.0 m4.513669020686503,20.219983752383115 l0.6369178569537567,0.08563890271815933 3.2060379447587195,0.00272803373410041 l14.553334591458135,-2.290155960127279 m-8.103194548404069,-11.740900646496808 l0.7825786647505717,1.164212047688365 0.27250422265737334,1.5938309976502025 l-0.15639599888748124,43.552939733345845 -0.3938322577463174,1.3399555394768672 l-0.5632673947511203,0.6155910873772854 -0.6708005556273107,0.06762400352846244 l-1.4456172667367757,-0.923037094653581 -1.722761736159143,-1.7537894084209982 m-6.358767314436991,-12.696525818544977 l1.0083845514574503,0.27832575571561896 1.3884892235458257,-0.5812014235102866 l12.714410986479955,-9.8398988669239 m18.16835069024537,-22.443551303879207 l0.4658369711579674,0.8656598772084156 0.18919067659209216,1.1334360844972187 l-0.06561557488032513,26.660702094929043 -0.25346325136637593,1.05898742989179 l-0.4965340843340192,0.47733112643268716 -0.6610817840111801,-0.004527571428197518 l-1.481510691164011,-0.8478637322272549 -1.5950825505802995,-1.4167972988360722 m-1.4988400322637123,-14.543011764117827 l-0.09410976796918505,1.006068851692815 -0.3997048536530647,0.910067540742115 l-3.2379036113212294,5.353609041253498 -3.331157404204906,4.301525219123605 l-2.9299507800697104,3.0038072125998783 m23.3722438317189,-15.32862002686661 l3.5823152424593405,1.5290388808603554 3.4965685418851424,2.034143764645868 l2.833360076162156,2.1451609001105645 1.3098596406511038,1.5872913017776205 m-7.053907360236324,0.6078613526136619 l-0.08914335647156293,1.534945151376276 -0.35192949187334777,1.2133757521499844 l-2.448269336906671,4.8420504216247915 -3.4910109462060745,5.056782373402338 l-3.4327809506054976,4.1393185452427295 -3.8852810330290186,4.070295413728231 l-4.257134412831358,3.7775334060583865 -4.5130499306911,3.310031253783412 l-4.774005957589148,2.724288492615089 " fill="none" stroke="black" stroke-width="1" /></svg>