<?xml version="1.0" encoding="utf-8" ?>
<svg baseProfile="full" height="110.33114120641999" version="1.1" width="107.26395507791815" xmlns="http://www.w3.org/2000/svg" xmlns:ev="http://www.w3.org/2001/xml-events" xmlns:xlink="http://www.w3.org/1999/xlink"><defs /><rect fill="white" height="110.33114120641999" width="107.26395507791815" x="0" y="0" /><path d="M25,25 m0.0,0.0 m7.137828017159471,19.54325270731894 l0.6103803387814957,0.0807175370055901 3.2672161231979366,-0.03227547441954689 l13.063251973575822,-2.1334129762445437 m-8.006053355041916,-11.66858941887018 l0.7486014967449578,1.3836984504983356 0.2447117185972943,1.938694518420498 l-0.11887572914926364,44.4198003138708 -0.38741686105481327,1.4549616832907133 l-0.5580913594471,0.6658513368772314 -0.6889596626630895,0.0348393415764281 l-1.4913929010320515,-1.1304382710170844 -1.6154344089298895,-2.0401033226325076 m-5.906370657974486,-14.04834439973786 l1.1014612274769238,0.4654258759816591 1.459796952626557,-0.5342804886473627 l13.898634322959957,-9.918454187547066 m5.368187485988678,-15.062420641415057 l2.130910655785032,0.22932201452190631 2.2851939543895807,-2.353685097002911 l0.8243376189250397,-1.7686186129927342 0.4464554679719442,0.06688725456469244 l0.2648039926863771,0.9250947708408486 -0.30503977291878853,3.29564393170448 l-1.0728115140892553,4.202336905086768 -5.993362511266335,8.872007379500337 l-4.491771021143662,4.082958025408119 -2.5335132595035668,1.8524309988555492 m4.269528690591289,-15.542516528189072 l2.9517162897505624,1.842736097502279 1.6431072523478432,1.5696185621423453 l1.090537307754577,1.2784392588331452 0.4234533984183511,1.6618978953124115 m9.556377139661864,-10.93456975431765 l15.238032278566184,16.19275186893571 2.4085243881746345,2.0687377698944696 m-10.420447334170099,-19.81742695996523 l0.0077655044579176035,0.7558279489992645 -0.5709554392526575,0.9561159777642498 l-2.889554555943104,1.8141343620832062 -3.3922844332088244,1.6711393467759097 m12.038590046166085,0.2529718461724802 l-0.2893011625668062,1.0715810807500985 -1.780551562206554,1.8506652159140227 l-2.5391410837555406,1.9120241958827293 -2.6199394780937957,1.4206529551880969 m-18.84115609450699,9.078108993820136 l1.879327583101722,0.22736074997937034 13.895186270337962,-1.4393177997502318 l2.6963838851912016,-0.071750530348181 1.0681014441199879,0.20331885137317265 m-25.51781014438959,11.330931307899467 l4.596740549011755,0.15832276379138485 23.480893487169457,-1.9241099885010267 l5.051822044605495,0.27590695418798117 m-22.99775472976472,-7.585331270023303 l0.5046503566399427,0.8545103966530311 0.2031145878615229,1.096519262957758 l-0.2980346430700202,5.45138651253561 -0.9215201646499489,4.601967189544291 l-1.2934479997377717,4.072683207157659 -1.7302055525392794,3.5425491874577295 l-2.26737045680551,3.1122662336625115 -2.8271537474673325,2.608471180379726 l-3.109734649223273,1.8892667091684023 m19.715057304982633,-28.538259965911017 l0.6238704563106915,1.2751684614807712 0.16025189866790607,1.2776406842203538 l-0.09612179483245759,18.715610076168545 0.35932622501057704,2.209593495468197 l0.8630335469592441,1.5696343436966465 1.324880316669984,0.8427863084571078 l2.1582050477578547,0.3244090186414204 4.793585485091714,-0.08090899173793915 l2.534767797157645,-0.4459410173863768 0.8278405846506034,-0.5581285299360205 l0.731876124929812,-0.6960500472801198 0.48983897532968057,-1.56305867708079 l0.14311337577997754,-2.2767195301763863 " fill="none" stroke="black" stroke-width="1" /></svg>