<?xml version="1.0" encoding="utf-8" ?>
<svg baseProfile="full" height="100.45737071238125" version="1.1" width="104.40064398580341" xmlns="http://www.w3.org/2000/svg" xmlns:ev="http://www.w3.org/2001/xml-events" xmlns:xlink="http://www.w3.org/1999/xlink"><defs /><rect fill="white" height="100.45737071238125" width="104.40064398580341" x="0" y="0" /><path d="M25,25 m0.0,0.0 m6.370115429135558,19.203584553881242 l0.6270025905234694,0.0978641608361834 1.387594912853483,0.017202016942336803 l13.766269059796665,-1.9688006636640105 m-7.57029428389624,-11.385282692441 l0.8302992350330709,1.628997904016687 0.21172333603606652,1.4424804967798555 l0.005436887460876533,38.51362428039599 -0.35245360762720934,1.2739850232018683 l-0.5151681677134019,0.5759199584138771 -0.630267038177794,0.007098045217785751 l-1.3824763809664358,-1.0312287002351805 -1.547210738947079,-1.8209408723953058 m-5.728549384708127,-12.738989188751999 l1.316037449634364,0.6204455484728618 1.1759557084860195,-0.2354905989071656 l13.73402952189677,-7.841604138720779 m4.85447157778371,-13.385708605701678 l2.1045543613820668,0.14778720409457263 14.521544908306842,-1.6160765667714407 l1.9290976429143993,0.1490419083927337 m-9.725781956946902,-7.178853046383546 l0.6350617272751227,1.1337711234786514 0.1319990135471088,0.7429895453413344 l0.08505134953461509,13.752462586645064 m-13.216714156744032,1.2666594551447103 l2.5782692164074303,0.31508991659415275 23.423145144616253,-2.400484992125592 l3.39013647302691,-0.17752076813311815 1.9917641558798376,0.3369727707838538 m-5.781001255129647,-13.201421030988572 l0.032318571478550225,1.6347338789286554 -0.420677595429993,0.9771373648238825 l-5.132339229787542,6.820795956910677 -4.6899987230565765,5.314338993077825 l-4.278280887323708,4.159377286700261 -3.8446108734714977,3.346412212035902 l-9.374435719834281,7.169856371993942 m12.824877567289708,-6.7093106430465825 l9.90158885133563,-2.076754288280928 4.34268227004611,-0.3154736505895432 m-13.674805773487154,-1.0955453509786004 l0.26096026422269947,1.1059155550772188 -0.21867728723045154,1.9047576648721332 l-2.1117963050550657,6.070312276563816 -0.17531552393811406,1.0464779251493188 l0.16998144912027996,0.47678648250453876 1.0735523069510289,0.08536306299528655 l12.860987130984526,-2.3743554381394913 1.1921920606830643,0.18084052237348158 l0.6761258078257438,0.32021488762413997 0.5335209129179431,0.9052702984188402 l-0.17675443812665814,1.4894141035432678 -2.5072543589711507,6.340473397091816 l-1.9069977856579057,3.729825013334172 -1.9642972237998493,2.7119886970900047 l-1.4572881405451565,0.9949434988928398 -1.248979655742385,-0.01506689060595495 l-1.1330169214970927,-0.7316432602635109 -1.1782468811382811,-1.2656221993783494 " fill="none" stroke="black" stroke-width="1" /></svg>