<?xml version="1.0" encoding="utf-8" ?>
<svg baseProfile="full" height="106.20163735752658" version="1.1" width="105.9475353978936" xmlns="http://www.w3.org/2000/svg" xmlns:ev="http://www.w3.org/2001/xml-events" xmlns:xlink="http://www.w3.org/1999/xlink"><defs /><rect fill="white" height="106.20163735752658" width="105.9475353978936" x="0" y="0" /><path d="M25,25 m0.0,0.0 m8.084011922500064,19.022101890143688 l0.602693137310404,0.0965314787102692 3.441722967937019,-0.006318166484837082 l13.871589987181,-2.1337299435538695 m-8.353826112237108,-11.948872717264436 l0.7785254223213286,1.23520304001208 0.2678478681432923,1.691677364874128 l-0.16349834259287196,42.124383487907245 -0.4190030629908341,1.3750224306686127 l-0.5993320683083879,0.5753500339588741 -0.729789490762185,-0.06010011135005444 l-1.5381900280719163,-1.1990522466300841 -1.7217214241516092,-2.024249630934667 m-6.309418037338245,-13.128173505073377 l1.567055587288176,0.3994582343754166 1.8378851691239162,-0.5278604695141035 l12.983062476200859,-8.715133158179713 m8.32002397281971,-10.725215407103134 l2.4524903382963483,0.09357208050960071 16.11566624284334,-2.2969623986109964 l2.221663629830968,-0.06962842128084523 m-21.857674142053483,-10.220892494726261 l0.6646973274710744,1.054044868293727 0.2291035936347748,1.053181852974034 l1.0111632509120763,34.211557114888855 m11.820050715852082,-34.771718041174154 l0.5840855331896091,0.8774220479811753 0.18274084338861957,0.9984802556525698 l-0.047341636573143386,32.79128625416188 m-12.443264390692876,-13.742217156832226 l12.126793012753502,-1.2610396724480684 m-12.245846108899512,9.221122130082561 l11.770118416354096,-1.2417082353039914 m-20.95425971798792,10.308583605615565 l4.232464677792784,-0.030753948783755036 22.430401461519942,-2.266140535026726 l3.434826706678767,-0.15091790703651284 2.3000156992099314,0.22375289061305031 m-20.665917365392293,5.435559537155981 l-0.10446493166104472,0.8066019287474783 -0.5205475484694545,1.0241516310559862 l-2.1283770686610914,2.538413781538991 -3.2769203201866706,2.927399337640221 l-3.823198268125248,2.6374642472764056 m19.318138857586533,-9.74884028506766 l2.9030593089856307,1.762630505661223 3.4076950758670064,2.940573264797333 l2.3428056845272,2.7210488914380453 1.2480814877386752,2.31684115542803 " fill="none" stroke="black" stroke-width="1" /></svg>