<?xml version="1.0" encoding="utf-8" ?>
<svg baseProfile="full" height="102.89677942755264" version="1.1" width="105.80417446131536" xmlns="http://www.w3.org/2000/svg" xmlns:ev="http://www.w3.org/2001/xml-events" xmlns:xlink="http://www.w3.org/1999/xlink"><defs /><rect fill="white" height="102.89677942755264" width="105.80417446131536" x="0" y="0" /><path d="M25,25 m0.0,0.0 m20.73599751568058,4.852465521574694 l0.2104111013403686,0.29113228372642824 0.4330396159073272,1.4777511266731032 l0.016561631426097328,7.592252242348578 m0.5021933715496404,-4.630389085516943 l7.1599625208046795,-1.261013353773482 1.6534022184991632,0.0613038567159906 m-20.910246445179308,6.735175120624015 l0.7158274104546988,1.6101259655902906 0.031331361707916505,4.380354275774674 l-0.3473150620563183,7.54480026317892 -0.6683753881507599,5.96609727910674 l-1.8791552409578032,8.566764115229217 -1.3400631794404105,3.708831773160747 l-1.6140880587851452,3.2980460284507878 m6.268446440615098,-33.07065658873263 l1.557010444294884,-0.04893356824262316 12.115156702629948,-1.8846766724968071 l6.557182804968565,-0.5584955579957496 1.528358403004536,0.10658766063701389 l0.7300588511399422,0.3704181134458977 0.09534907485166737,0.5631637603669715 l-0.36612015568505757,0.6654090454221856 -2.100358860939843,1.9857959907637641 m-17.61859033688604,4.83637583138006 l1.4868363172204597,0.20248724132973794 12.904275452978752,-2.387787029734021 l1.018501476174709,-0.06689990543120183 0.7027152431610058,0.20358305731592852 m-9.436109483826058,-3.1355915334490336 l0.497016742229197,1.2418143651885143 0.010800184073976309,5.565031860727774 l0.13281792121882352,0.6647758546450999 0.5612095916971482,0.7710811064134069 l0.9911049302683901,0.3188153806897974 1.426759448377493,0.0699664367063663 l3.854089589839267,-0.06757051308754569 2.0594580503061137,-0.336363107094972 m-10.747301297778817,4.341973602893756 l0.4849974740130017,1.0193972282834995 0.12368841076747347,1.3111340496179884 l-0.08887941094495465,15.756442320029706 m5.940906729132685,-18.493348032616638 l0.471623945675335,1.0188459827027447 0.12453084257629973,1.2770419252690712 l-0.08784968325759926,14.420495774817056 m-13.147644501359537,-10.27481211100203 l1.6895196820369265,3.911560170848283 0.9608472563634544,3.896414536039897 m17.103994888072236,-9.930644860941877 l-0.21826472256687607,1.4349371084771474 -1.120618255148269,2.3452375398908534 l-1.4519031694372975,2.0896851076120453 -1.8282869725839308,1.879299948075165 m-16.52541800100771,8.050760002093705 l1.0753928731086901,0.391351138367564 1.0679766251269833,-0.07744983863258836 l12.213475284235052,-3.4231721174271144 6.57232673449629,-2.1061737339292708 m0.09178794808227951,-21.260782326347098 l1.4528916077453171,0.11951331945171173 4.207491026712704,-0.5777001806877518 l3.8291839008943875,-0.8840825368575487 7.239868989993588,-2.118238451321978 l0.8730258723394426,-0.11622190672219265 0.786894964439633,0.15424522261748033 m-14.46775823742104,-16.607797976478818 l0.7416777401458731,0.9949844615740513 0.538716480676206,1.7241381056473393 l1.1380415028721824,10.150532084768795 1.7089689515164934,8.687590316755179 l2.3423569397214794,8.054881678026423 2.278984150134568,5.8098125773589775 l1.9535907736696367,3.959860085775891 2.1444263077149,3.5514652988762943 l3.0638823211181014,4.039977952087692 2.0598286793932847,1.975265549141622 l0.8165791606499854,0.1983317717858981 0.49723651496288546,-0.6382235355903945 l0.217931929920309,-1.5050508469157542 -0.12490945516487183,-4.122010335625603 m-11.360826077038272,-20.074491272691787 l-0.021944970365249523,1.7008506181145222 -0.6645772513545246,1.7386774955599082 l-1.4187757724215204,2.5291350345696064 -2.0415495130687495,2.847702647082102 l-2.608898675833798,2.9821591148151785 -2.4557661882552684,2.4129735092087983 l-5.00441850430709,3.8257468849733427 m8.415289450199475,-35.57103482096725 l3.197025425263942,3.198366735999365 1.380816152158208,1.942335659514274 l0.703809333612412,1.4029433021170272 " fill="none" stroke="black" stroke-width="1" /></svg>