<?xml version="1.0" encoding="utf-8" ?>
<svg baseProfile="full" height="127.23694002151888" version="1.1" width="91.01656733893185" xmlns="http://www.w3.org/2000/svg" xmlns:ev="http://www.w3.org/2001/xml-events" xmlns:xlink="http://www.w3.org/1999/xlink"><defs /><rect fill="white" height="127.23694002151888" width="91.01656733893185" x="0" y="0" /><path d="M25,25 m0.0,0.0 m22.055569936867826,5.615543816668196 l0.046376039928685775,0.4432998986532797 -0.25133751477423194,0.7179701907992606 l-1.2395610811533413,1.3399795698634949 -3.805592332219548,3.269109928107372 l-4.183638804584815,2.5878192571291083 -4.9145082593467775,2.3198285893869843 m-1.1548395496092985,-0.3675854986647235 l0.7378590288741534,0.9802386263015263 0.2976270700823289,1.4345243086851915 l-0.06364227373315681,25.511970881610363 m0.4693972276453062,-18.823723602029883 l15.128022268605136,-2.3166025141988333 2.3992219259436585,-0.01725341963095252 m-5.738226861350311,15.560863957720962 l0.2682238033485444,0.3675329162881195 0.31987167675005684,1.2869208266257481 l-0.0006140487983675742,3.805454482043236 -1.5011879883235182,6.313287923759511 l-1.824561829803059,6.921659472136081 -1.5186601861465834,4.215585642993347 l-1.7031405922781229,3.3683444705712264 -2.296302774393378,3.311678961931529 l-2.401363805532536,2.3781294840471734 m24.31724741231294,-37.742096242389806 l1.9787395755439552,0.43355532182881285 2.121210385548046,-2.086957687374151 l1.3949905611606022,-5.916289522118068 0.6989595660178727,-2.1248253525752614 l0.48449348669408854,-0.6456452695359449 0.4671039062667,-0.017885790467120872 l0.4288313693889862,0.9144473585549262 -0.2927324656567991,15.410956879677022 l-0.792625585599481,8.077166698946522 -0.9390645796794235,5.693906462071439 l-0.5289347377876616,4.960112441826872 -1.6444986274257734,2.5225984896934897 l-0.6022354444283673,-0.42141870394042447 -1.3373216065451679,-1.7533551527837004 m-6.617852458490502,-28.80610457105121 l0.4656431068335404,1.0427213409678875 0.16496269119108153,1.9646373655478413 l-0.06303609749086475,45.50683778384242 " fill="none" stroke="black" stroke-width="1" /></svg>