<?xml version="1.0" encoding="utf-8" ?>
<svg baseProfile="full" height="108.0065335587198" version="1.1" width="102.4287512128499" xmlns="http://www.w3.org/2000/svg" xmlns:ev="http://www.w3.org/2001/xml-events" xmlns:xlink="http://www.w3.org/1999/xlink"><defs /><rect fill="white" height="108.0065335587198" width="102.4287512128499" x="0" y="0" /><path d="M25,25 m0.0,0.0 m1.7305825348792092,19.652085958709755 l0.5823684027031056,0.11254141325955287 3.0058393329803392,0.03910452932710151 l14.521218914035225,-2.4762095875563177 2.3542107589708636,-0.06173558948417879 m-9.365175483953148,-12.89290562574046 l0.846085105504179,1.3136285653400055 0.2430093979929881,1.96686888625636 l-0.1296868600796982,46.63885705503391 -0.4436032018059326,1.5367088644288642 l-0.6257158576726305,0.6534331549710601 -0.7694359655319725,0.01965164250455791 l-1.671551501979896,-1.1592934630406135 -1.9249316289421596,-2.149885327113718 m-8.289956099353827,-13.0189610761673 l1.7107866160052867,0.30154303349307005 1.418666660583768,-0.7298388422689319 l16.78280201560029,-11.874114423513896 m20.466416624858315,-18.648600276540243 l-0.23619062922985273,1.8029649765114564 -3.6045421167946334,5.291696864878179 l-3.9286953963767344,4.655573343047443 -4.17697229300785,3.973010961668191 m-1.569950750206814,0.7198615845516549 l0.5549648439283281,0.8917426530573288 0.17785954204080967,1.1588805492952916 l0.25077791559565954,30.289923733811673 m0.4045064040935879,-31.356137631800646 l20.173257282598556,-2.341484215998728 2.3411615222474924,-0.029843108331310726 l1.1401362479564972,0.4976782601111319 0.43980564913018755,1.1445498634604552 l0.02070322608038165,1.4508996300681678 -2.392933137229402,28.711639659374626 m-21.659180702274934,-15.902358917702436 l22.018778513388767,-1.844582077185561 m-22.0449287018114,17.279047407752913 l21.31591044755103,-1.46521013079173 " fill="none" stroke="black" stroke-width="1" /></svg>