<?xml version="1.0" encoding="utf-8" ?>
<svg baseProfile="full" height="89.2563762480211" version="1.1" width="103.24179225998091" xmlns="http://www.w3.org/2000/svg" xmlns:ev="http://www.w3.org/2001/xml-events" xmlns:xlink="http://www.w3.org/1999/xlink"><defs /><rect fill="white" height="89.2563762480211" width="103.24179225998091" x="0" y="0" /><path d="M25,25 m0.0,0.0 m12.005835478288962,4.934912220471846 l0.494620096101444,0.11733535220090081 3.4415674454409064,0.1661104908360901 l24.59490542498892,-1.878798815615883 3.6568502544310264,0.19082040596489455 m-33.31923933136614,17.450739921393755 l1.6561546485316363,0.2489801828167139 2.055076109703723,-0.005583761968741079 l22.820559886789546,-2.211895095908313 4.326169359040368,-0.1912194058387794 l2.486493760166773,0.24216358124151258 m-40.68939500457688,19.850718192387003 l2.302178703868113,0.30497830003406295 2.8630603609593,0.03711468000602923 l40.58172376318655,-2.255108581392938 3.9652313044266534,0.3737921409303832 m-26.004037400993703,-30.33431293620579 l0.8615469533647315,1.1752123596673336 0.28682871088560674,1.086967464215574 l0.13528394083139664,29.26499829436911 m12.573391536035123,-11.293711534348239 l2.2643681810945,1.1981695508493044 2.1019406329345514,1.4916022310873323 l1.6291321725265098,1.4840166657648097 1.2299736950827889,1.6707482612195486 " fill="none" stroke="black" stroke-width="1" /></svg>