<?xml version="1.0" encoding="utf-8" ?>
<svg baseProfile="full" height="102.51119057469165" version="1.1" width="96.54112714176028" xmlns="http://www.w3.org/2000/svg" xmlns:ev="http://www.w3.org/2001/xml-events" xmlns:xlink="http://www.w3.org/1999/xlink"><defs /><rect fill="white" height="102.51119057469165" width="96.54112714176028" x="0" y="0" /><path d="M26.255277354567504,25 m0.0,0.0 m27.95412590300429,1.8648702467132745 l-0.024217906555664297,0.4216220639744582 -0.634540503028668,0.9657288858234389 l-1.235172576644176,1.083186622530421 -4.368142280978092,2.852301653399561 l-5.4976395488785474,2.519599612382249 -6.078293753034643,2.0031430775055585 m-4.311870729828879,9.529136904389224 l2.1109473803884184,0.32746635288802967 25.144032149263914,-3.1184381486967525 l3.502810061086603,-0.27313513826889435 2.3396105392383637,0.2197730396731454 m-40.156926088600436,15.187543668901855 l1.805396720756625,0.29671377185094006 1.6783072349393957,-0.06746155468125534 l36.59729601077572,-4.267870351587668 3.5898888426056543,-0.25094920395331466 l2.8702383326828778,0.26440482999098364 m-25.929828176540283,-18.20577986554566 l1.34020917198507,1.1380638399199192 1.7258494755780822,2.2177857577243167 l1.0871289556778547,1.565073194371099 0.9596958201494507,2.932658540523248 l0.8163262124609294,6.369222463542422 0.18377037798889664,8.14435483803019 l-0.5979459268120247,8.011942370337447 -0.5362687826542093,5.818097418174896 l-0.6469891380179034,3.256267479232061 -0.5021876754521604,1.037083683903558 l-0.6206183289899411,0.554152682069977 -1.3686959445329099,0.11463183957292228 l-1.3956615573685773,-0.8853251529493186 -1.7985755237655126,-1.974324472797736 " fill="none" stroke="black" stroke-width="1" /></svg>