<?xml version="1.0" encoding="utf-8" ?>
<svg baseProfile="full" height="110.34227285760147" version="1.1" width="103.99276059813003" xmlns="http://www.w3.org/2000/svg" xmlns:ev="http://www.w3.org/2001/xml-events" xmlns:xlink="http://www.w3.org/1999/xlink"><defs /><rect fill="white" height="110.34227285760147" width="103.99276059813003" x="0" y="0" /><path d="M25,25 m0.0,0.0 m9.394541281624475,22.116224747369657 l0.5752898762921457,0.09385093300071841 1.920662885641199,0.09023996895439976 l13.849608724917077,-2.4918217684574637 m-7.3401581933595414,-13.246599266980509 l0.7667005750685963,1.9333596259568953 0.21978916787517191,2.8267824366521985 l-0.02002536408918532,25.62499202202791 -0.19702331551246874,19.266915250383736 l-0.37792414997383567,1.4013779875479895 -0.5445199415461732,0.5184079065097597 l-0.6483131948564866,-0.11301866598352747 -1.3808653627062821,-1.2768186097234562 l-1.5857272084368383,-2.131130306458531 m-6.435334535454818,-15.03353760672031 l1.557891057124871,0.49172768337711753 1.3979719056423623,-0.41068532851117845 l14.215425059766115,-9.222613702277586 m13.53259867284924,-21.198617684370017 l0.6218469811287712,1.0044419815645844 0.31661655308061626,1.162396302948656 l-0.023928216929976747,9.240021930353214 m-12.294096983634585,1.6210017399500078 l1.5774691611477005,0.31683677283042905 1.8050067449417588,-0.05155495828215784 l20.78966350009152,-2.8401610374106 2.2995949174386086,0.5380108820318178 m-15.682656317853722,9.368473214434383 l4.099308036102986,2.0850279431045093 5.747701106953687,1.8379929042999268 l0.6365367448034585,0.7198581250176386 0.1459103858417094,1.1195022047636367 l-1.0279562917804437,4.736178367109961 -2.5443306210198724,8.200410001617282 l-2.5052556684934784,6.674605923109021 -2.002222447473415,4.171730544001804 l-1.1005187000316714,1.1984643938595512 -1.2149800871577352,-0.0905215820607893 l-1.5815447236835782,-1.701795256824043 m0.6483834359310562,-34.840783330503506 l0.024406389770177898,2.5662809319876003 -1.0517177076755329,3.830432701843254 l-1.9944006554209464,5.593341679750508 -2.3796615210347483,5.22612248086982 l-2.390019927156248,4.205683842321613 -2.8153474968219796,3.9880896704334132 l-3.2344902668187427,3.5702404443684657 -2.6937676113116615,2.336095566267561 " fill="none" stroke="black" stroke-width="1" /></svg>