<?xml version="1.0" encoding="utf-8" ?>
<svg baseProfile="full" height="95.05382149926535" version="1.1" width="106.48414301892687" xmlns="http://www.w3.org/2000/svg" xmlns:ev="http://www.w3.org/2001/xml-events" xmlns:xlink="http://www.w3.org/1999/xlink"><defs /><rect fill="white" height="95.05382149926535" width="106.48414301892687" x="0" y="0" /><path d="M25,27.320750932955065 m0.0,0.0 m22.82721924186927,5.665956911766724 l0.0511345609604464,0.48766589047117587 -0.27760015725185566,1.073865423285978 l-3.951870044728211,1.4457325832107875 -5.329509552298082,1.798486348424656 l-7.968446521874164,1.9751472114480824 m-0.20628832078059864,-0.23216363887121147 l0.5492862354389857,0.6923269258335403 0.3105460713948907,1.007512877788319 l-0.14034366653623973,18.05447428614964 0.28263192974719875,0.8044022995538394 l0.5797933576898103,-0.0831189171283912 9.981631322254806,-0.5211856161485259 l8.651896772053316,-0.6451598952966808 2.43053751625122,-0.4233285322684732 l1.3590892885559296,-0.364388695404159 1.5863279933585228,-0.8595087709867172 l0.6705640076248609,-1.2910034631091605 0.1313041876765006,-2.0792738781603357 m-0.8562229777861776,-26.62662695829699 l1.944409394570471,0.2983955673540751 1.2733837657281613,-0.09119918083843549 l15.689146357622276,-2.4077597117328096 1.562627382599046,1.1039040861848086 l0.029901288148554996,0.5174578750359291 -0.24007897583822324,9.720647030569136 m-19.635370836982784,1.933800473295328 l3.806857431532729,0.10329056370408023 16.04273131707323,-1.6912379623627427 l3.8857829320277646,0.07940769167707377 m-23.09825506613557,8.981081317576777 l0.763392292778807,0.6456039898095476 0.42254018995276926,0.7660298925995203 l0.0363500134314485,10.776799315164057 -0.5112091008418278,8.952113622979097 l-0.1441531017361948,0.9350039944922348 0.2646654855163635,1.27387858785962 l0.5268258159801606,0.6983414966900331 0.8536617542846121,0.2576995239908412 l3.0427340376328393,-0.08933384222158747 11.112288054129142,-0.23579705491898487 l4.201118553417471,-0.4028157581121587 1.794689364800461,-0.48592996109254727 l1.3465027820090691,-1.0303880943962658 0.6686285430048412,-1.672281113894678 l0.16329210060081015,-2.7522047138352628 " fill="none" stroke="black" stroke-width="1" /></svg>