<?xml version="1.0" encoding="utf-8" ?>
<svg baseProfile="full" height="103.68073995007154" version="1.1" width="103.52525539000274" xmlns="http://www.w3.org/2000/svg" xmlns:ev="http://www.w3.org/2001/xml-events" xmlns:xlink="http://www.w3.org/1999/xlink"><defs /><rect fill="white" height="103.68073995007154" width="103.52525539000274" x="0" y="0" /><path d="M25,25.109943419461207 m0.0,0.0 m6.969525777142038,12.88116216018412 l0.39479160322734164,0.17593003783620598 2.138951398276211,0.14819914598217404 l12.035908860136818,-2.2185262137536257 1.850568181307708,-0.010951150088284633 l0.5701260836124409,0.2862774997223392 m-8.737096933595021,-11.372034899344136 l0.6108165664914768,1.093400601711649 0.22640686607239896,1.1904535593893741 l0.0055521586942596755,32.40466059995237 m-8.594968263786265,4.7841691743655685 l1.5759302548489196,0.48959691872343347 1.128753899623453,-0.42820043080447245 l12.70119247526293,-9.480246358115263 m3.376430092098628,-23.604473611555438 l2.8493673630655736,0.23086695332461937 19.774945230773636,-2.8732881867065676 l3.0184604617328437,0.29693933520866744 m-23.633232420209264,19.221460584627444 l3.0216236373840526,0.8470987075271674 17.10140813336046,-2.348079816764254 l2.944375204926958,-0.20071570653711845 2.1954187595551535,0.274124948511663 m-14.103229125818872,-14.845715165500287 l0.5715123589025219,1.3227263859105078 0.14571694476811795,1.3030829233939025 l-0.006580335847513223,44.002878533408584 " fill="none" stroke="black" stroke-width="1" /></svg>