<?xml version="1.0" encoding="utf-8" ?>
<svg baseProfile="full" height="99.17691421316631" version="1.1" width="101.88260233708101" xmlns="http://www.w3.org/2000/svg" xmlns:ev="http://www.w3.org/2001/xml-events" xmlns:xlink="http://www.w3.org/1999/xlink"><defs /><rect fill="white" height="99.17691421316631" width="101.88260233708101" x="0" y="0" /><path d="M25,25 m0.0,0.0 m30.92499415710474,4.718499487140971 l0.36966297570428047,0.3793104062148052 0.5626362975154118,1.382239868546093 l-0.0004367758764890761,5.038566784886194 m-21.099659864489315,1.8311787042728225 l1.9742503326953498,0.19510743051839954 2.337995097491011,-0.014627484127034237 l16.977022747474926,-1.7628096448811186 16.133298100122182,-1.1153123593739123 l3.7028392693389254,0.2902191031710097 m-38.66150383682432,2.892059525862499 l0.5232285410088122,0.7506676386296579 0.20481682576736474,1.034170891221093 l-0.3103393520144405,6.114884295307608 -0.7776474147693238,6.248802976538899 l-1.222321541231745,5.3725441266955585 -1.4822810320695614,4.2288766179735005 l-1.4371194425768874,3.0876330094026008 -2.426948335008552,3.848266355479638 l-2.2273743165625075,2.567821297545115 m30.06615053133415,-22.470997064860473 l0.018748360720869873,1.393703453345503 -0.5864290580885746,1.4505947254568647 l-5.691466502910974,8.6817193401651 -7.37059396118903,10.773305650986758 l-0.37791165303259827,1.2822109714757974 0.3266193626727823,0.34677468451209065 l0.7096081344431663,0.019058887642078113 1.0689814018647739,-0.17294390759872716 l25.44176492965207,-4.80109302467809 m-4.937380984616545,-7.301881948114624 l2.325618391095403,2.31124217563952 2.7737730383560852,3.7161912515513764 l2.2507303694999377,3.75349114414733 1.2421325292000023,3.1074388424714137 " fill="none" stroke="black" stroke-width="1" /></svg>