<?xml version="1.0" encoding="utf-8" ?>
<svg baseProfile="full" height="119.8169875781202" version="1.1" width="98.20904177832108" xmlns="http://www.w3.org/2000/svg" xmlns:ev="http://www.w3.org/2001/xml-events" xmlns:xlink="http://www.w3.org/1999/xlink"><defs /><rect fill="white" height="119.8169875781202" width="98.20904177832108" x="0" y="0" /><path d="M25,25 m0.0,0.0 m13.15957185954805,12.827670457143192 l0.37437843167461876,0.11549659769359644 2.2031004909317136,0.08059086977601489 l9.707236137252044,-1.5393644321200612 2.0529823391749704,-0.18752227748066413 m-7.0442718290272754,-9.774478927234243 l0.6747860614948603,0.9502493309855989 0.35106632932489934,1.5142142161474477 l0.0049734418292631455,17.285175112148636 m-11.725722399183965,2.1591988568616918 l1.6545679534488582,0.32885986498108327 1.487212748533003,-0.11780368953558547 l24.225007372511513,-3.357103243959676 8.412875991468812,-0.45679518950897646 l2.671276849339706,0.2260524432576746 m-25.60539593418115,10.10724090881344 l0.400094582839378,1.6120846219490073 -0.009864831361990796,1.2894499639534232 l-3.429448732233689,6.526314706607385 -4.171297908059878,6.204904206843437 l-4.817607851662378,5.942035525690981 m8.121587252966895,-8.84430652153267 l0.4747975235860376,1.0775868463235523 0.06643598739113421,1.2428682760223975 l-0.11294649867429109,24.604369054293514 m6.493643925812936,-36.336397071536965 l0.34189337769449796,0.4765271646823356 0.39410305633000997,0.3904631993908506 l0.3484445451799599,19.59602331527212 1.6757282185564109,1.3202271196209774 l4.930410212480076,-0.017178048253972095 2.112058297563717,-0.46130996009173214 l0.7792900779818169,-0.6608263939558686 0.39693279658910396,-0.9327403918323042 l0.2366282602407748,-4.212906036745512 " fill="none" stroke="black" stroke-width="1" /></svg>