<?xml version="1.0" encoding="utf-8" ?>
<svg baseProfile="full" height="100.207754842081" version="1.1" width="101.50635657403656" xmlns="http://www.w3.org/2000/svg" xmlns:ev="http://www.w3.org/2001/xml-events" xmlns:xlink="http://www.w3.org/1999/xlink"><defs /><rect fill="white" height="100.207754842081" width="101.50635657403656" x="0" y="0" /><path d="M25,25 m0.0,0.0 m29.46099907217177,2.798702561216353 l0.35237404296640573,0.4279646900800686 0.5590237796851034,1.483660654111005 l0.009751249503487516,4.427087378930712 m-21.16413369903192,1.8223572393701073 l4.746022599832062,0.23036228250082724 32.46601179568514,-2.2375086959201287 l5.0763077332245095,0.23996987530165384 m-39.374995542648534,2.2674957832090166 l0.7110514014652339,1.4906480363646095 -0.17700643528392504,8.648830333392214 l-0.5951230585032139,7.565782114283606 -1.0575196023736129,6.260427124336119 l-1.3449240516341625,4.654413977772243 -1.848645611250373,3.7677211394736143 l-2.4753407632885205,3.2803211031477413 -3.335898585188613,3.079519244511241 m-0.6298389405347234,-32.43738877201966 l1.9891151934260949,1.2348083454544059 2.051990245391314,1.7539112415741156 l1.6507388368007307,1.7808905416025158 0.9565180622408223,1.5866974832971763 m-7.807641471796663,10.7457145977336 l1.068892300070562,0.21161693606991958 1.0904470115558311,-0.17302431750797856 l8.271678468803197,-5.013624079178278 m11.367607068423393,-11.25321055295299 l2.97896648376902,0.14470156964817107 16.342034406789285,-1.5252819346169317 l3.790848551901456,-0.2041062296731415 2.318840946099011,0.16782011867379992 m-13.130704175067326,2.3080779518474963 l0.061804394889705974,1.2765520860372388 -0.8396044788829184,1.3177372311723636 l-7.232419920701219,7.839559691332725 -5.400624059322084,3.898015961252637 m11.710847054335186,-7.564626815587936 l1.671155946498371,0.1414697273858935 10.690436652302512,-1.2370307418081288 l1.4720970030870257,0.1416633256100449 0.5568894570363594,0.3237925873523159 l0.28427280789491494,0.4959025974715736 0.015288355166038705,0.662044035440373 l-0.5095637754539439,2.306204850034154 -1.7361701432446464,3.697007606966407 l-2.290119854189492,3.552624325834837 -2.5304302951982502,3.168839518239491 l-0.8356846753785735,2.9032282227975212 -1.8527228233960173,2.265826635279763 l-0.6657554281880981,0.15481082459230028 -1.1698600031625002,-0.14170940478308566 l-1.596832692872406,-1.0512403054445851 " fill="none" stroke="black" stroke-width="1" /></svg>