<?xml version="1.0" encoding="utf-8" ?>
<svg baseProfile="full" height="105.14341028229872" version="1.1" width="98.43659315392577" xmlns="http://www.w3.org/2000/svg" xmlns:ev="http://www.w3.org/2001/xml-events" xmlns:xlink="http://www.w3.org/1999/xlink"><defs /><rect fill="white" height="105.14341028229872" width="98.43659315392577" x="0" y="0" /><path d="M25,25 m0.0,0.0 m5.454262006602738,18.230097955533786 l0.5393741977330583,0.11420856049145962 2.9224744555398505,-0.029627538703117517 l10.07042740253914,-2.0341562091829615 1.5842902285934446,-0.11786143096579738 m-6.758406437712557,-12.946945885572182 l0.632659558451117,1.363500729908241 0.1703213217425784,1.9412564338713683 l-0.1454914433629281,45.785462646452885 -0.3124479729531254,1.5403551520019736 l-0.4924917132143642,0.6899393994455497 -0.6089669440637391,0.01437276063943281 l-1.3084061213964218,-1.2022380137885926 -1.444329223770478,-2.077938785824375 m-5.129901890613714,-13.685164547094885 l0.83785786962112,0.4242776507147687 1.112401912326623,-0.39301748645318557 l12.122102175297451,-9.571948720415117 m11.965658871689287,-22.214984368641694 l0.6118336224578687,0.9910303332737874 0.25259277817894193,1.2061906231937987 l0.0008717034976645416,9.41317463482418 m-10.356941323763698,1.8109976862375656 l1.3790694933000514,0.22910529509573402 1.5089239931632359,-0.06196489066127206 l18.85408483182969,-2.689501932000147 1.7806042268243194,0.26687134299910803 m-17.17536441415076,9.571136505238357 l0.21185047462035805,1.9918851968100215 -0.0754364182095644,4.465412008028069 l-0.4283309530744922,4.794971589957077 -0.967231666896476,4.903619700383427 l-1.2467383251816144,3.873914724778934 -1.5907031523014359,3.455535270697092 l-1.9670292253409911,3.086888372275816 -1.8814697510236293,2.0045555187496045 m8.695123365208444,-31.596228325769726 l8.011905217160425,-2.274173650980914 1.1150806400205318,0.14956721046469756 l0.6754612282207559,0.9901746446571491 0.14540170330107902,24.009017061178398 l0.7573782550512659,3.0896876833322153 1.1856284505595267,1.0823415989659417 l1.5458718407117038,0.3153323622866755 3.1648676108459743,0.002075528426830715 l1.760995576057019,-0.4131840812010193 0.6519072680680249,-0.5820453870863882 l0.39598878054859676,-0.8938958863992865 0.2090090711938922,-3.6753152482351075 " fill="none" stroke="black" stroke-width="1" /></svg>