<?xml version="1.0" encoding="utf-8" ?>
<svg baseProfile="full" height="110.99293472963939" version="1.1" width="93.93512895520462" xmlns="http://www.w3.org/2000/svg" xmlns:ev="http://www.w3.org/2001/xml-events" xmlns:xlink="http://www.w3.org/1999/xlink"><defs /><rect fill="white" height="110.99293472963939" width="93.93512895520462" x="0" y="0" /><path d="M25.00269412775458,25 m0.0,0.0 m21.767871572416084,12.032021272415394 l0.33884871221724455,0.44230053715064693 0.44196929640347304,1.6889887263152699 l-0.008548566356690393,10.677718823491775 m0.7831000706749259,-6.454813567234503 l8.589386626495536,-1.2592112471021903 2.41714437446679,-0.11229714583915595 m-24.867688561836435,-0.37758997399134825 l0.6720295533237866,0.7496499935370909 0.32573338997109713,1.0502754055778072 l0.35999888642493316,6.317410979537013 m-7.77941411038047,0.5514210594555478 l1.839691437471767,0.2792789882600682 2.8607346701673695,-0.08631588092127651 l29.68818060389933,-2.741306176609153 3.1992410974267647,-0.09723575015489277 l3.3041557746645323,0.297808729724521 m-25.790012512359723,3.346764210817533 l0.49942499809239904,0.8807321710459373 0.1264284457384423,0.9534735430620147 l-0.007324032706105335,15.661402634814253 -0.08752633362565788,0.7868018610238882 l-0.1924596997036052,0.4465541657725576 -0.25486965359316566,0.12278356300022639 l-0.7171902948860126,-0.15267293017721928 -2.159909992790132,-1.4540094446893632 m-5.732489606037402,-10.099285108711184 l-0.06998698774645312,0.8484991450962894 -0.41557825777822993,0.6731807232270732 l-2.1953369455328318,2.5199908366367185 -3.3831731698854197,2.911362454772095 l-3.555124912390709,2.530612919443126 m29.71495450957045,-11.388468251087817 l2.2544084549683947,1.0768893471831698 2.4120665962807077,1.651465815989667 l1.9095923117360372,1.7366789559729172 1.1633695569239288,1.4709156669351524 m-7.441662996983212,0.031200305559691173 l-0.01522009135591878,1.827364490337909 -1.6912791597799126,2.8265217715636997 l-3.2985306351276242,3.856855331945639 -4.03325605971889,3.8396893393203118 l-3.6752162086300224,3.06406571896777 -4.069270816424854,2.971476011524509 l-4.333135329207865,2.768757563234146 -4.395237859340011,2.3252271434460585 " fill="none" stroke="black" stroke-width="1" /></svg>