<?xml version="1.0" encoding="utf-8" ?>
<svg baseProfile="full" height="136.8710937653758" version="1.1" width="114.04066376282391" xmlns="http://www.w3.org/2000/svg" xmlns:ev="http://www.w3.org/2001/xml-events" xmlns:xlink="http://www.w3.org/1999/xlink"><defs /><rect fill="white" height="136.8710937653758" width="114.04066376282391" x="0" y="0" /><path d="M25,25 m0.0,0.0 m33.507017430328645,3.516968551578805 l-0.05552599969466656,0.4778010191463192 -0.5939673183662889,1.0675923953523159 l-1.0386529366431343,1.0104580523756572 -4.498177045020013,3.048740700103559 l-5.8841329662695205,2.9380590910306834 -6.922785975845421,2.4830855055547016 m-4.089122316617939,11.314612650654944 l2.2021364951051687,0.35417025746561737 24.959492040038377,-3.3520468487109065 l5.0952880103385985,-0.3215940643082963 2.618021224578212,0.24152694845399086 m-40.67686696504374,17.817927030256325 l2.059473248475974,0.2720875906874421 2.062423713383532,-0.09742857456804759 l38.434032290766226,-4.481714188554267 3.438112918505346,-0.1966652855309683 l2.6193765918985203,0.32063115970841566 m-28.571485309506112,-21.521418767955545 l1.2594266664367109,1.190709467619661 1.731771827650267,2.548792692758271 l0.9428905268561569,1.9316176141208332 1.230376591549108,3.5694571541575724 l1.4389422983815991,3.6804135891006484 1.83511724715974,4.158109936158526 l3.2509896998954515,6.524739581592103 4.236384061715939,6.567367451484707 l3.4000957962870517,8.858931052604431 2.6442036095767363,11.313448067321538 l2.099003200617909,5.973856633693862 2.3181988352829044,5.103699847989563 l2.6558412133493285,4.435168620454777 3.1985027023089523,3.707389606524221 l2.027594004575305,1.5562042866623582 1.8835384790194787,0.858394940392024 l0.8097014750521166,-0.0056730408154855244 1.072340262074421,-0.3268397176603401 l1.1421583073143788,-1.4523370679473413 0.19892982730860934,-2.4772471845687747 l-0.36189931297526623,-4.406724654125847 " fill="none" stroke="black" stroke-width="1" /></svg>