<?xml version="1.0" encoding="utf-8" ?>
<svg baseProfile="full" height="109.49251413345337" version="1.1" width="109.34483600780368" xmlns="http://www.w3.org/2000/svg" xmlns:ev="http://www.w3.org/2001/xml-events" xmlns:xlink="http://www.w3.org/1999/xlink"><defs /><rect fill="white" height="109.49251413345337" width="109.34483600780368" x="0" y="0" /><path d="M25,25.000001004945318 m0.0,0.0 m56.45784378051758,-1.0049453180727141e-06 l-0.7577043026685715,0.33931974321603775 -4.893451929092407,1.5579058229923248 l-7.620528936386108,1.5760248899459839 -9.891005754470825,1.4589101076126099 l-13.622863292694092,1.5397869050502777 m-0.45363426208496094,-0.17937824130058289 l-0.16337484121322632,8.77125084400177 -0.5164742842316628,7.005140781402588 l-0.9415299445390701,7.006458640098572 -1.3457487523555756,6.744226813316345 l-1.729212999343872,6.218445897102356 -2.0925815403461456,5.428457260131836 l-2.4338778853416443,4.374918639659882 -2.0378950238227844,2.4312424659729004 m11.775383949279785,-39.047465324401855 l10.567010641098022,-0.1741793379187584 25.043773651123047,-1.8742473423480988 l1.1260145157575607,0.7236076146364212 0.5074971541762352,1.3734214007854462 l-0.7413148134946823,2.9968851804733276 -2.064579427242279,5.46930730342865 m-35.33669471740723,2.1927303075790405 l37.698094844818115,-1.8554361164569855 m-34.85176086425781,8.913237452507019 l0.510791502892971,1.1553342640399933 1.4660213887691498,25.34660816192627 m-1.1332619935274124,-24.626047611236572 l33.89194965362549,-2.7389979362487793 1.6570663452148438,0.31403549015522003 l0.9675553441047668,0.9392239153385162 0.3033288009464741,0.7908126711845398 l-1.2298281490802765,13.191795349121094 -1.1102838814258575,8.71524691581726 l-0.5390819162130356,1.4419442415237427 -0.5158977955579758,0.649649053812027 l-0.5590539798140526,0.1849786750972271 -1.2656955420970917,-0.6802866607904434 l-1.493006944656372,-1.5088199079036713 m-29.391019344329834,-10.45763611793518 l23.02103281021118,-1.8355180323123932 11.730579137802124,-0.5393495783209801 m-24.351956844329834,-7.447903752326965 l0.5218276381492615,0.3917001560330391 0.43397102504968643,1.4109770953655243 l-0.16631660982966423,20.388174057006836 m9.86201524734497,-23.487515449523926 l1.0324545204639435,0.7461740076541901 0.26052262634038925,0.7172659039497375 l-0.16632948070764542,20.25491952896118 " fill="none" stroke="black" stroke-width="1" /></svg>