<?xml version="1.0" encoding="utf-8" ?>
<svg baseProfile="full" height="107.09676676914768" version="1.1" width="106.25345302274972" xmlns="http://www.w3.org/2000/svg" xmlns:ev="http://www.w3.org/2001/xml-events" xmlns:xlink="http://www.w3.org/1999/xlink"><defs /><rect fill="white" height="107.09676676914768" width="106.25345302274972" x="0" y="0" /><path d="M25,25.776687516878336 m0.0,0.0 m7.271939655352961,21.684579890038755 l0.5755508947552396,0.09913914026649445 2.6926651364129786,0.026895173000349912 l12.311806079051665,-1.8943441513577846 m-6.877231597011427,-12.853341473260317 l0.6666450332779185,1.3315369103592294 0.20145054271070262,1.8352361871799743 l-0.13771906494633396,44.00816853548458 -0.36791426485476986,1.4723214763107697 l-0.5391539343338809,0.6098875642472911 -0.6474640414559847,-0.05943200803260239 l-1.3808719452189993,-1.2804194252185712 -1.5734679882402098,-2.1815674574917834 m-5.7107489588734754,-14.02442807607121 l0.9985625703485065,0.2817303371352048 1.2204718122030074,-0.5129434694644937 l12.072911483406731,-9.382034036152088 m5.2878585089086725,-19.955067076465767 l0.6763942240633203,0.23582254414319428 0.9167617625667784,0.03261013025407041 l7.09443945863512,-1.4501275068154476 1.1748167317776566,0.21714599204364743 l0.8263283948007893,0.8767668817289676 0.3279723212193565,1.1530181219989648 l-0.0377388082109311,15.842008395120063 m-10.552435323879555,-15.857458272089943 l0.16358892671841832,1.3027443952283326 -0.8924099378677688,2.8657108540160174 l-1.324022948660876,2.9726104258892065 -1.6280607514958012,2.776334050456431 m9.94140194451484,-6.9017593380696844 l2.769465942953507,1.4806338725030672 2.0757726288016634,1.9692036011511818 l1.6334020134522338,2.0995768326119526 0.6808827525694433,2.005657266865706 m3.98462798498134,-20.038032705972583 l1.2572384214339982,0.2954609284820238 1.6185649618429514,-0.042331075586154454 l8.215873431873646,-1.8182009513453872 1.1886306036625174,0.7735591494820284 l0.07666836550377823,1.6247518980920677 -0.4657731474454625,14.54914323092567 l-0.5768014783469048,2.1935280484644455 -0.5950292721141551,0.6458130235553025 l-0.6515207017805265,0.007998549959933137 -0.672252563354003,-0.3527553751540362 l-1.289152468662289,-1.2893239812996056 m-7.079131835898167,-14.146567687727547 l2.3722949047143636,1.7495670754776282 1.7041317102853506,1.9790126570962097 l1.203389197992762,1.7385488576325419 m-16.661990600191157,3.886123083822964 l0.8020938751611032,0.2372011889492365 1.3227833341026844,0.04722604996578702 l12.174159539141405,-1.6023877415330292 m-15.26603704062913,7.760100067922691 l0.836902689736407,0.18589238477029557 1.5537942482465552,-0.020028661575987965 l11.59853877078933,-1.9289776010993194 1.8174873968134544,-0.16138995051280386 m-16.660543543353114,8.514394590169818 l3.0961466236086403,0.13393645185126465 13.581801001975013,-1.739084920345988 l2.5999586324436827,0.13971068554473404 m-20.701737786931044,8.193333487262068 l2.9823863326724864,0.20510933628204084 17.31702977057918,-1.6183129217808447 l3.3752153413986177,0.21015148985070262 m-13.151532795834967,-14.852411060135132 l0.48447198390413615,0.9541638084929277 0.14397575093885456,1.1538128476015823 l-0.04185166659340434,23.992240580920598 " fill="none" stroke="black" stroke-width="1" /></svg>