<?xml version="1.0" encoding="utf-8" ?>
<svg baseProfile="full" height="112.50444932380638" version="1.1" width="104.12287567073916" xmlns="http://www.w3.org/2000/svg" xmlns:ev="http://www.w3.org/2001/xml-events" xmlns:xlink="http://www.w3.org/1999/xlink"><defs /><rect fill="white" height="112.50444932380638" width="104.12287567073916" x="0" y="0" /><path d="M25,25 m0.0,0.0 m15.453142014218566,3.8712824571470854 l0.035945754958318796,0.4688821867903088 -0.22965553951814155,1.308143466319848 l-1.0275231478866702,2.0418861783391384 -3.992732994951095,4.631186357980275 l-4.921974012551248,4.331735749058117 0.05949927886615306,3.4659205400667923 m10.226726287438176,-5.382194223027801 l3.7815764380584116,1.5964593145444956 2.434784514934486,1.5682798445194042 m-8.771375947991393,3.0867613049248326 l0.594169424342479,1.5472048719785296 -0.4834684076100286,3.8564965218734146 l-0.9769511923682753,12.109153465756103 -0.933340593715235,6.672838988927452 l-1.136096057765792,4.8095490236639105 -1.511052939857933,4.325714074473515 l-1.8432259108142512,4.165285621954446 -1.830308759606432,4.029863578516512 m6.87400254841265,-18.250713162325788 l1.5684537210206855,-1.9319707689063639 7.75698006396286,-7.052002095368561 m12.045079216278415,-23.272495028557913 l-0.21734402155491123,2.6089977121886245 -1.8357504161766973,4.772840348318516 l-2.3826270109763756,4.707824013499334 -3.366540305871545,5.542081607630602 m4.873367422662826,-6.803215281517475 l0.40857981065709076,0.9262360624756044 0.13655388302574914,1.1910595326023938 l-0.023588758757993624,33.96073537906933 m13.010542338643704,-44.70469770099001 l-0.09680388004776144,1.4580159940082227 -0.575301414405431,2.262475797314469 l-2.4552220771595463,6.258154988347344 m-9.557157378816479,2.3345233965080547 l20.65614472468398,-2.455622384785324 m-10.638275673606048,2.823351381580619 l0.47886817214765454,0.9829052051024064 0.09945908841437351,1.1343625927015866 l0.02111958854939055,27.308906579016703 m-9.50960147932862,-20.039747040450113 l18.45938166186959,-1.6983367838043741 m-18.3769459456125,11.109105161614877 l19.18791410573964,-1.77344814644034 m-19.173078984354035,13.067431363044188 l21.826528463158407,-1.5169649355303505 " fill="none" stroke="black" stroke-width="1" /></svg>