<?xml version="1.0" encoding="utf-8" ?>
<svg baseProfile="full" height="101.48872241176907" version="1.1" width="114.274061034239" xmlns="http://www.w3.org/2000/svg" xmlns:ev="http://www.w3.org/2001/xml-events" xmlns:xlink="http://www.w3.org/1999/xlink"><defs /><rect fill="white" height="101.48872241176907" width="114.274061034239" x="0" y="0" /><path d="M25,25 m0.0,0.0 m7.769799242552454,18.078266041971734 l0.6693391477394465,0.07894655908009017 1.4374993494888917,0.0321780938612998 l15.32341737107068,-2.2373517565059555 m-7.956848973774491,-12.385016089344317 l0.8729562066335401,1.793297603469564 0.2334731243264379,2.594095238325728 l-0.014373407702528056,41.4819076134547 -0.3475769898647697,1.4034033967366202 l-0.5233721957676565,0.6362202617159418 -0.6485578030455084,0.012775449003658701 l-1.4539727533199893,-1.1330422413750552 -1.6555157736329957,-2.0167147503389056 m-6.603062447891675,-13.775210698156645 l1.624200036290398,0.5640129722926788 1.5096530441463878,-0.3029877068771232 l15.122753910307217,-8.466214902711394 m12.419761326150821,-20.140675570408895 l1.633948498411647,1.2432752730909484 1.8135620484735853,1.9497085971519348 l1.4390289600683506,2.17929483874732 0.6394206785074091,1.6999118648391423 m-16.05548922153777,4.5718618460116085 l1.851520603427093,0.23292143933527715 1.703855916807256,-0.08147744309972241 l24.229107218718887,-2.763371821957592 0.5783456422110611,0.5518618302621282 m-15.752173915466143,2.7737467833727485 l0.15934399547704697,0.896383377290821 -0.34492828070852616,1.0809209646166595 l-4.479347477326435,5.706561980768404 -5.6852340920941895,5.814189410901432 l-6.188683966580189,5.051371384772914 m11.651981379030328,-8.573231682991237 l0.6146817255196255,0.9539063076215655 0.10067776097312277,11.606564766872227 l0.14035016855223195,0.873726344672851 0.37247033610126323,0.49804928390400943 l0.5464006075932354,0.14347307204987136 0.6709691575566091,-0.3516347960700046 l7.95535563666881,-7.156343831215088 m9.086298580223449,-17.84915154493499 l0.09627380245017085,1.2244604615547505 -0.9129976939383619,1.5185970118308496 l-2.400505126361385,5.290919586996343 -2.989771839320038,4.761856862346456 l-3.090151720754235,3.880012685792118 m12.675269751459238,-8.787659922379383 l1.8130301643932152,2.0173856105064445 1.9414392813650754,2.7963271633596034 l1.6853287775537587,3.1248918686518277 0.9951112630771377,2.6495915840101882 " fill="none" stroke="black" stroke-width="1" /></svg>