<?xml version="1.0" encoding="utf-8" ?>
<svg baseProfile="full" height="97.7505905228128" version="1.1" width="96.5790019882426" xmlns="http://www.w3.org/2000/svg" xmlns:ev="http://www.w3.org/2001/xml-events" xmlns:xlink="http://www.w3.org/1999/xlink"><defs /><rect fill="white" height="97.7505905228128" width="96.5790019882426" x="0" y="0" /><path d="M25,25 m0.0,0.0 m21.77928520036311,6.432867452806814 l0.05555390839173384,0.42932961206668047 -0.26106029045103535,0.685419929213679 l-1.3647320724313743,1.3442535220088787 -3.7189720195646103,3.291910989250897 l-3.8490399013640806,2.6592957978749503 -4.300858663773966,2.374102495156142 m-0.28565644550337,-0.5443322671814093 l0.7638487014413242,1.0008077136655158 0.3080520292864057,1.7525160983731953 l-0.09033813162578046,24.901295340851004 m0.30665356632193924,-18.957096031363815 l13.276426351561188,-2.1645306043240917 2.2257462606614857,-0.010411775866354502 m-20.016392581459755,15.40749158454438 l1.4162726442763085,0.6155659406321699 1.4111038836193883,-0.044756741784850104 l15.146333571825627,-6.146135513073553 m6.133625864873958,-24.67390857515622 l0.596877514736881,0.24936182953903976 0.6243581900599302,-0.04199457488845922 l14.695625524098627,-2.047504611166028 1.4666237880211574,0.49261877421677047 l0.2596650948775051,1.0540502245332073 -0.21650551121204692,0.6561481346941364 l-7.29154812940599,8.666674595798574 m-0.17526842446315138,0.25514287156940485 l3.044738746457917,2.2053716858531622 2.210106562797034,2.593094365410732 l1.3883621180100973,2.7099985983913752 0.7854409813995246,3.6715862251616014 l-0.22328602689759758,2.8755152200049627 -0.7079319403672544,1.9227957148245456 l-0.755389624636354,1.0601062508122503 -0.9466507918083222,0.7529510311739442 l-1.0922621354271445,0.3520926489392554 -1.2797774423894233,-0.06131492430867617 l-1.5514231533303016,-0.5666349643802197 m-8.33289502912529,-26.852882732035905 l0.4673892930540971,0.854372492979886 0.1486729928360496,0.9531466604715129 l0.012659156291510688,37.64221003752371 " fill="none" stroke="black" stroke-width="1" /></svg>