<?xml version="1.0" encoding="utf-8" ?>
<svg baseProfile="full" height="106.35304622972703" version="1.1" width="103.74948428745802" xmlns="http://www.w3.org/2000/svg" xmlns:ev="http://www.w3.org/2001/xml-events" xmlns:xlink="http://www.w3.org/1999/xlink"><defs /><rect fill="white" height="106.35304622972703" width="103.74948428745802" x="0" y="0" /><path d="M25,25 m0.0,0.0 m8.511165886346964,20.267066603029438 l0.5848743245220068,0.11221892170878464 2.924634165285376,0.12347347225939054 l12.21328103798514,-2.3549661836095783 m-7.153702322443896,-12.710460071356612 l0.6465633295490367,1.2669672548862883 0.2059675324589976,1.772737209388063 l-0.15550826428855605,45.653086161868316 -0.3380377228508478,1.527373857496659 l-0.5039471922850468,0.6819537728831394 -0.6189246937807465,0.013595231173143386 l-1.3344035291706458,-1.1851307634061616 -1.542501460951047,-2.190265233214635 m-5.360830708617079,-14.641179626392153 l1.249628249789529,0.4096980248215056 1.0754638112011101,-0.4801656700254153 l11.570991112561686,-9.432221375792963 m6.262942210200497,-21.895401138348795 l0.5497250417203684,0.8406216110268745 0.3356108679447876,1.126276318084228 l1.6051342236669057,12.967442520334748 m-1.324010486895088,-13.855922579951118 l15.312096330591116,-2.216665788056434 2.017500332763422,0.04652352112681536 l0.7428095627622971,0.6261660134023569 0.1777951155929447,0.6531305836939263 l-0.059704197562424274,1.615487649808396 -1.8661704384896198,10.600676169987207 m-14.81238590346904,-5.489614670699769 l9.414852673876148,-1.0277798361533113 6.152861590875315,-0.4517358626853253 m-14.926952999764042,7.863200048544 l13.841149214830104,-1.5376380498183644 m-20.74316270194877,8.08040964414229 l3.025760125420318,0.11899005444250328 20.011197686616175,-2.457882310044257 l3.5774495979557766,-0.20594271199568387 2.4802728854588683,0.18261637379605178 m-25.307748376497045,3.7460077334527546 l0.5278289447864348,1.0880209657062625 0.07435672111504951,1.0663674668878256 l-0.06271864226410688,18.903639621209045 0.24882129392646848,0.15689609379400962 l0.6415161846286547,-0.42134513891709846 7.138914291511149,-7.092425129337401 m-7.034561070672331,-13.437499530977478 l0.1650918966222666,1.822241657527532 -0.6239221740602799,3.1464461543356648 l-1.0711788615265556,4.636939877777232 -1.1939654999295712,4.026826180854842 l-2.3279634658828274,2.82334603807138 -2.0310072371395322,1.4028676736639782 m13.23174178576953,-21.956900544638767 l1.0892846999977324,0.3774070831029592 0.8732752003809309,-0.03815584314228749 l7.880801656948193,-1.8311243654191514 1.3129013207143647,0.39033275729510863 l0.31476298821729043,0.47989452660347837 0.08218697172680274,0.6855778853129751 l-0.1675774850411428,4.336420250790341 -0.41870419403819226,5.844756229144013 l-0.4320243801082885,4.220613275233158 -0.5106953223558294,2.6497313087017313 l-0.9101929565070469,2.150839444438294 -0.5686600111349596,0.32770846535899467 l-0.5984096402355107,-0.19856176967623723 -1.2756839882599793,-1.7659292171568766 m-5.790147963624232,-18.572962226970215 l0.37304069155674385,0.8112910902979728 0.0715132760682818,1.1062991883759714 l-0.059041764095856264,28.665857905192862 " fill="none" stroke="black" stroke-width="1" /></svg>