<?xml version="1.0" encoding="utf-8" ?>
<svg baseProfile="full" height="111.28229198003791" version="1.1" width="95.6937212810156" xmlns="http://www.w3.org/2000/svg" xmlns:ev="http://www.w3.org/2001/xml-events" xmlns:xlink="http://www.w3.org/1999/xlink"><defs /><rect fill="white" height="111.28229198003791" width="95.6937212810156" x="0" y="0" /><path d="M25,25 m0.0,0.0 m32.04090123665017,3.131098730876929 l-0.08161144248596011,0.4455911636427054 -0.6918651471981047,0.8585100833149332 l-1.0320449566519219,0.8148865403421653 -4.575659530712903,2.315416486951342 l-6.138527189337061,2.1930697472048144 -7.093872301440796,1.802686453235161 m-5.312370658889752,8.870435484851855 l3.3288939482411033,0.33314742550964105 28.075561447934028,-3.0462593631954458 l4.045652518203626,-0.3873193371933759 3.1286633567031696,0.1576231764386871 m-20.281429110739992,14.224511877132976 l5.80747902757119,0.8004736261799523 9.885997677178628,-1.645806369319134 l1.359312029334805,-0.12552037240510838 1.169444324528169,0.20940843436840692 l0.7640764560885286,0.43245956999224416 0.3883413691693394,1.0742394620106512 l-0.13260855423163423,0.7685504378831635 -1.2649551526141625,5.4011050108325085 l-2.5652034082614383,6.701716969806988 -2.781419118213597,6.244019891699515 l-2.355804509004965,5.673399850492804 -1.090795443797835,2.41476140583075 l-2.1610314758834455,1.6200855935527751 -1.6698620336990555,-0.6309357071662715 l-1.9029826077788805,-2.2526590316050394 m0.05496811398619778,-38.511566634850105 l0.07988293942472036,1.3317362066466276 -0.12072890781926703,1.2000826794419905 l-1.070194547716577,4.521434375019744 -1.8045523310393956,7.137464570194434 l-2.4146336277499656,7.208126925857297 -2.4555854089222624,5.538151482908576 l-2.2973010225692603,4.041250581682522 -3.390014053846672,4.505096298305576 l-2.903281653506731,2.743996232547621 " fill="none" stroke="black" stroke-width="1" /></svg>