<?xml version="1.0" encoding="utf-8" ?>
<svg baseProfile="full" height="107.91401215396388" version="1.1" width="107.77805960606756" xmlns="http://www.w3.org/2000/svg" xmlns:ev="http://www.w3.org/2001/xml-events" xmlns:xlink="http://www.w3.org/1999/xlink"><defs /><rect fill="white" height="107.91401215396388" width="107.77805960606756" x="0" y="0" /><path d="M25,25 m0.0,0.0 m24.920536990634076,5.692071811712472 l0.05514440743229711,0.3643365450195206 -0.3514990513751364,0.7994913874087798 l-1.5019710801504662,1.3234586259169185 -4.661582814552744,2.766495492316932 l-6.047578194546783,2.4214041197181615 -6.819908550026123,2.047423293631553 m-3.878406049413322,10.189961416408769 l2.028628131337801,0.31582579786191983 1.8922996988488383,-0.1359937229065502 l20.753389453123283,-3.061340104668994 3.178291104115175,-0.22144582292054155 m-11.387829938180273,-8.662625470833298 l0.6010561381307087,1.0417600628713553 0.14564375174019437,1.1527057339592781 l-0.07635568704400075,38.25619524749239 -0.1921599290790416,2.39186357056852 l-0.5120952013554612,1.2324241704067052 -0.7235869704970995,-0.08485733690645586 l-0.8014467722689214,-0.7587428109661445 -1.8298887648481188,-2.3396420368311976 m3.9048136474682194,-29.230096705764776 l-3.1095833431342004,6.300376709827635 -4.32406784581171,6.300201988470026 l-5.335621744154896,5.746974563838332 -4.8314329019042805,3.679268251846014 m19.564948240522696,-17.61777136918338 l2.507884899325737,1.1061875135481498 2.671685866463195,1.5554008341233763 l2.1883970797029444,1.6858267525305182 0.8872748969109192,1.6363768380612436 m4.931331431156843,-11.059845784147289 l0.7493341232890725,1.055741846108203 0.8235784881076359,3.9345367584788673 l2.164687069316067,15.643666826118926 m-2.0452265681856594,-19.446370619825224 l20.15711384791998,-2.5645725094830554 1.3920291377678642,0.31535289014336065 l0.44709415900184274,0.4394842749928882 0.2431384502804009,1.1629710500676458 l-3.4202679008564187,15.907419445467736 m-16.719480995019467,1.909677047737869 l18.235653447001187,-1.7817641134011448 " fill="none" stroke="black" stroke-width="1" /></svg>