<?xml version="1.0" encoding="utf-8" ?>
<svg baseProfile="full" height="118.95955219100863" version="1.1" width="95.79378093742747" xmlns="http://www.w3.org/2000/svg" xmlns:ev="http://www.w3.org/2001/xml-events" xmlns:xlink="http://www.w3.org/1999/xlink"><defs /><rect fill="white" height="118.95955219100863" width="95.79378093742747" x="0" y="0" /><path d="M25,25 m0.0,0.0 m31.320523401552666,3.723425335642089 l-0.06331512056414054,0.4292234646694253 -0.5979600005054897,0.8474001003212384 l-1.1490526160274055,0.8072559893360726 -4.868507710162544,2.3107378665387057 l-6.376782301961608,2.129968954630546 -7.24872354114061,1.81309183807905 m-6.924817253367721,9.122914333964118 l2.3508056034326943,0.3237806716368459 31.309994513355768,-2.988461297586965 l4.509097455520102,-0.3332970843892561 m-18.54191354916045,-7.175511320733064 l0.579765237763129,0.8227996384870221 0.26701300472906886,1.521446293093623 l-0.1293897189522938,24.51061878421127 m-2.64325129492395,-18.02351710810811 l-0.4760427982065348,1.5400365069769086 -1.6841709186326272,2.645090922349509 l-5.381463462727312,6.3469694518988105 -5.401518337011051,4.841399945883976 l-2.889331405150058,2.064075590094797 m20.771274282846925,-17.081209979663274 l15.111733671434152,13.838599295705588 1.8425339442719286,1.2274430146419417 l1.9841136250311733,0.7579113962150461 m-30.515293720307675,2.768014288678254 l1.458835465432649,1.5344358829537807 1.48396580675005,2.4145236096052627 l1.3702374570712044,2.635862709080911 0.6166009564383249,2.0122456426439626 m18.034395757124088,-10.509952536713884 l-0.12705153787420645,1.2047080425477181 -1.3096016504740426,2.340575739190776 l-1.9554826812537762,5.449791185960151 m-27.023489798972896,4.683559379999198 l3.2396341991536164,0.270565177197529 14.194698829373143,-1.2634306200801797 l13.595278046964376,-0.908774088317525 4.282233430836862,-0.12624899030387202 l2.7782056657219494,0.30474251368352895 m-20.18252533064017,-13.511717815785484 l0.5150374211227025,0.8243411970470552 0.28334380381707946,1.545121443347123 l-0.07786018707326137,31.26899682637843 " fill="none" stroke="black" stroke-width="1" /></svg>