<?xml version="1.0" encoding="utf-8" ?>
<svg baseProfile="full" height="104.16610517616547" version="1.1" width="112.11394275480974" xmlns="http://www.w3.org/2000/svg" xmlns:ev="http://www.w3.org/2001/xml-events" xmlns:xlink="http://www.w3.org/1999/xlink"><defs /><rect fill="white" height="104.16610517616547" width="112.11394275480974" x="0" y="0" /><path d="M25,25 m0.0,0.0 m32.70390046508381,2.7399071557487256 l0.36169765941058474,0.43480079811325734 0.555258949537585,1.6554259018377597 l-0.007766259095876653,5.260659479280541 m-21.61926681162945,2.19459005901266 l1.884358930606313,0.22569131674778076 2.3352867274588807,-0.006726660108535209 l17.753207898168505,-1.9644425028856953 15.597558922160065,-1.2616970404372179 l3.835928349442028,0.2877115619062523 m-39.15668232046464,3.3784673283330537 l0.471984628036079,0.8364761555023886 0.16655575155997435,1.1301088706466889 l-0.31189791425919244,6.375737173612995 -0.758721025273911,7.10170692548854 l-1.1981004320408093,6.203165592892176 -1.4122572368962423,4.767246997569239 l-1.3778156982447842,3.5460633664758854 -2.321965674326678,4.430994848555751 l-2.184408420157693,2.9640061797759856 m14.204340789668137,-24.51286934840337 l3.3205603145780898,0.2725631530795919 24.064641390182782,-2.9465714851229046 l3.928510481630635,-0.2383305484602576 2.3130620768060495,0.2705297535308235 m-18.46227021931217,-7.541600175807123 l0.7027185819576548,0.9978945667207625 0.28887938397522284,1.7626140064172664 l-0.012389424266444796,35.80198174614246 m-0.9418537360134523,-28.89138195758847 l-0.21834228625117824,1.3311062533742446 -0.7771163668040313,1.134982617669241 l-7.289684079256498,7.0721140399352365 -6.95127301958947,5.273399735141693 l-7.575414455359916,4.468979595575136 m24.938787970100666,-20.314190540583102 l19.4818572563851,14.497821303695668 2.578767247040347,1.6893335621044776 l3.20330436026366,1.6151636818404014 " fill="none" stroke="black" stroke-width="1" /></svg>