<?xml version="1.0" encoding="utf-8" ?>
<svg baseProfile="full" height="100.58825980006176" version="1.1" width="110.63077760113207" xmlns="http://www.w3.org/2000/svg" xmlns:ev="http://www.w3.org/2001/xml-events" xmlns:xlink="http://www.w3.org/1999/xlink"><defs /><rect fill="white" height="100.58825980006176" width="110.63077760113207" x="0" y="0" /><path d="M25,25 m0.0,0.0 m32.57292482500575,3.40480689712394 l0.3356429206355189,0.3775844457394632 0.4957134206769595,1.4001414476196443 l0.019714064362234048,5.004833106445982 m-19.348768499005075,2.074354922455656 l4.370224535597659,0.22664164278650917 16.800294216393016,-1.6833347252886632 l11.344628157693908,-0.8802659800678255 3.9918897860767126,-0.13519020014341046 l3.43585234656197,0.3067575717065174 m-38.15040387318101,2.606099082737363 l0.4777606756886782,0.7760869665149318 0.1930323425978202,1.0201889901006842 l-0.2837320424717397,5.951793931169038 -0.7378119621131422,6.685586524585756 l-1.1163290592447375,5.900268988368527 -1.337102084888572,4.596322931804428 l-1.2816496940511681,3.3432010901523177 -2.1565168307102667,4.132216743511441 l-2.0595954863432318,2.8206846092540063 m12.851792780624804,-24.046268329818403 l3.2788280878884417,0.25854827153982946 23.169725776233626,-2.6939904479889636 l3.6662613505170816,-0.22189989135968938 2.2046021022487854,0.24981091032838357 m-17.603805077157194,-7.044550983062628 l0.6618550516621343,0.9204356015567651 0.26505337873236634,1.5955735748324766 l-0.02251827342388879,33.64182210745767 m-0.924207262487412,-26.81072496504369 l-0.25039740048399667,1.3207393796408164 -0.695264991466052,1.0697518351334205 l-6.610797071762502,6.56313065791646 -6.548313941352358,5.133309262045007 l-7.002057861535104,4.2834475245793495 m23.114624125365673,-19.33175315211671 l17.95830197803486,13.703343114001536 2.4610605736915163,1.5625072944213427 l3.0902665165200016,1.5336931425672884 " fill="none" stroke="black" stroke-width="1" /></svg>