<?xml version="1.0" encoding="utf-8" ?>
<svg baseProfile="full" height="109.2468068364542" version="1.1" width="109.49251202866435" xmlns="http://www.w3.org/2000/svg" xmlns:ev="http://www.w3.org/2001/xml-events" xmlns:xlink="http://www.w3.org/1999/xlink"><defs /><rect fill="white" height="109.2468068364542" width="109.49251202866435" x="0" y="0" /><path d="M25.000000149011612,25 m0.0,0.0 m0.9178229421377182,18.561015129089355 l0.7152014970779419,0.07900898344814777 3.3205270767211914,-0.07900898344814777 l13.759745359420776,-2.120835781097412 3.052505850791931,-0.1981271244585514 m-10.19341230392456,-15.238522291183472 l0.8785942196846008,1.5421979129314423 0.2293231338262558,2.142021358013153 l-0.16786471009254456,52.11583137512207 -0.43643057346343994,1.6898247599601746 l-0.6449712812900543,0.746016800403595 -0.7854317128658295,0.007384697673842311 l-1.722790002822876,-1.3752222061157227 -1.9513966143131256,-2.4422912299633026 m-6.971423029899597,-14.848672151565552 l0.9907475113868713,0.5980317294597626 1.9442300498485565,-0.7300268858671188 l15.227055549621582,-10.699177980422974 m9.144259691238403,-20.214834213256836 l1.2691602110862732,0.46509597450494766 1.4325529336929321,0.029841121286153793 l23.342585563659668,-2.670001983642578 2.164953500032425,-0.06384768057614565 l0.8570951968431473,0.2796667255461216 1.0892847925424576,1.085701659321785 l0.24782126769423485,1.4458106458187103 -1.2739527225494385,10.85164189338684 l-1.206544190645218,7.391371130943298 m-13.805252313613892,-18.277052640914917 l0.6883276998996735,1.7439307272434235 -0.636909157037735,14.642640352249146 m-11.580817699432373,2.0839740335941315 l24.494576454162598,-1.8491193652153015 m-26.11990451812744,-16.10995054244995 l0.5897904187440872,1.0258626192808151 0.16603533178567886,1.4769843220710754 l0.12430533766746521,34.38521146774292 0.6646787375211716,4.233519732952118 l1.1326412856578827,2.21977636218071 0.8259215205907822,0.7868649810552597 l1.6246110200881958,0.8447332680225372 3.9174839854240417,0.7133203744888306 l10.523781776428223,0.1413338165730238 7.086084485054016,-0.6184558197855949 l2.0789574086666107,-0.7078559696674347 1.6326731443405151,-1.485942155122757 l0.6958523392677307,-2.2298091650009155 0.16042541712522507,-4.040386974811554 " fill="none" stroke="black" stroke-width="1" /></svg>