<?xml version="1.0" encoding="utf-8" ?>
<svg baseProfile="full" height="87.37408821344297" version="1.1" width="108.93933326856984" xmlns="http://www.w3.org/2000/svg" xmlns:ev="http://www.w3.org/2001/xml-events" xmlns:xlink="http://www.w3.org/1999/xlink"><defs /><rect fill="white" height="87.37408821344297" width="108.93933326856984" x="0" y="0" /><path d="M25,25 m0.0,0.0 m14.351636245819893,4.456656341691312 l0.5982639138210466,0.10592533980924054 4.2385386988872,0.16445704455681256 l26.617947761769642,-2.124410564282683 5.241153895742139,0.1376628565502109 m-38.40668548523587,15.067407321896875 l1.8187415445685124,0.2864604868407976 2.3335694890100367,-0.015731234525520704 l28.72111675905016,-2.395657741892367 3.3035404083712754,0.34547534051837925 m-43.05338704610897,13.285980592079772 l2.604279714863693,0.30848625116655076 2.848743384415858,-0.018412059884037827 l35.585282187835205,-2.569557303316679 8.211065387694104,-0.18525987619786627 l3.9255264080659105,0.3314656190951852 m-27.992856114518485,-26.326064507808418 l0.772282205598164,1.082462467602527 0.30033888472106857,1.5508447277927646 l0.013489779721151934,22.56967667391372 -0.4968834070407045,5.388094522500395 l-0.48428684491583246,4.288344832513421 -2.3036262871815802,1.6397810828225867 l-1.641383111998161,-0.8797512759315355 -2.344274646667245,-1.4294833093619477 " fill="none" stroke="black" stroke-width="1" /></svg>