<?xml version="1.0" encoding="utf-8" ?>
<svg baseProfile="full" height="107.65503327289426" version="1.1" width="100.73334709609354" xmlns="http://www.w3.org/2000/svg" xmlns:ev="http://www.w3.org/2001/xml-events" xmlns:xlink="http://www.w3.org/1999/xlink"><defs /><rect fill="white" height="107.65503327289426" width="100.73334709609354" x="0" y="0" /><path d="M25,25 m0.0,0.0 m8.68392765177925,2.9322168138604026 l0.42298813714712824,0.24492979269434978 3.150598754449414,2.548069354102094 l1.681397071858738,2.5237631051517564 m-13.814781187967506,6.043425586096147 l1.6153566868359917,0.1899820490940791 2.8232043936280147,-0.1934779690314713 l14.112333079161058,-1.913839990287454 2.449660665701065,0.008147466939389487 m-15.846263285353933,9.674561732858177 l3.0415771857795715,0.031301737865066785 8.23118315803434,-1.267162620955315 l1.5708138212252603,-0.009969878397815315 m-12.616073436102551,8.844213585096004 l2.712893614023295,0.05828719009867013 8.211502325987308,-1.2791478110191257 l1.548414993474086,-0.08758430023793312 m-13.60141997457581,9.088052152845899 l0.5672240379946825,0.9720163821960943 0.3647649510321866,1.4947796120316243 l1.6707614831658357,10.015332737813877 m-1.3560836088186512,-11.657563679027298 l11.04405915513594,-2.17080067110117 1.73231317295787,-0.04436963237621086 l0.48571914780422637,0.26858640572010783 0.2633938048119268,0.5696408958445109 l-0.07859458139758789,0.897145106033718 -1.799214685645543,8.134225253296368 m-10.02160897171784,2.019782953352293 l11.565629331562798,-1.5432447503303026 m4.302059481143685,-34.937386269192835 l1.8582087152711961,0.25670945214874213 1.562616012981653,-0.056168471590897356 l22.7637613125398,-2.638610931757094 1.4310246821866426,0.27063096051693913 m-9.442489047905344,11.513244315972129 l0.5480303725805089,2.142925250205904 0.031156350084338084,3.527535934418433 l-0.45464325945512346,8.007013151104672 -1.1265223112375164,22.092682207377358 l-0.452611478992255,0.7974550848806666 -0.5650082496151726,0.28770397858371655 l-1.3389364013092482,-0.5609257795014816 -2.439613539838149,-2.1517881378985524 " fill="none" stroke="black" stroke-width="1" /></svg>