<?xml version="1.0" encoding="utf-8" ?>
<svg baseProfile="full" height="99.78204770439915" version="1.1" width="104.11281104154247" xmlns="http://www.w3.org/2000/svg" xmlns:ev="http://www.w3.org/2001/xml-events" xmlns:xlink="http://www.w3.org/1999/xlink"><defs /><rect fill="white" height="99.78204770439915" width="104.11281104154247" x="0" y="0" /><path d="M25,25 m0.0,0.0 m34.365286026042426,4.350746546209722 l0.32320038530433,0.4004350485608052 0.40878178755096706,1.4680166875462026 l0.00021124318657387122,4.952064776597244 m-18.79089666670799,1.7557081133021237 l1.7561442661255,0.27382935664335045 1.924653439579988,-0.00010261068743827215 l16.252581126340225,-1.948116055442797 11.158493933618034,-1.125610730477334 l3.6095657588815135,-0.1956291789875187 3.104789741620913,0.3045403930843159 m-36.05248175930615,3.1048841353282155 l0.47818856553087075,0.7656194884259215 0.18784853778989966,1.0624142619994885 l-0.2438152530368796,5.762583163682718 -0.6936334705434356,6.663015402962258 l-1.0900018862330467,5.801091414999093 -1.2966391409637223,4.423166559422125 l-1.2444603523656212,3.1630087109667726 -2.1010111154689226,3.9384172597355858 l-1.9931634092172412,2.681335884947063 m26.717062416349215,-24.853462648449145 l0.03782427090205374,1.444616062614993 -0.5254502869444245,1.521107539946191 l-5.378868234862636,9.00620377566385 -7.116145100091354,11.748893772964996 l-0.8065718358402785,1.3429812587674965 -0.05363437293224211,0.5540635480368814 l0.43439785008455006,0.3983106526831632 0.7808024785660719,0.04455229246945998 l1.026017381453603,-0.18195594152185754 23.058200853470318,-4.699929605544438 m-4.547943310953628,-7.887041739144392 l2.15210137389893,2.4163642012573083 2.5516177926308274,3.8812893970072797 l2.069348024162442,3.9119289382731175 1.1186649087449656,3.5327075705563264 " fill="none" stroke="black" stroke-width="1" /></svg>