<?xml version="1.0" encoding="utf-8" ?>
<svg baseProfile="full" height="108.36703575379386" version="1.1" width="107.4450476603564" xmlns="http://www.w3.org/2000/svg" xmlns:ev="http://www.w3.org/2001/xml-events" xmlns:xlink="http://www.w3.org/1999/xlink"><defs /><rect fill="white" height="108.36703575379386" width="107.4450476603564" x="0" y="0" /><path d="M25,25 m0.0,0.0 m6.98572162044576,19.063327445902736 l0.6204611838388915,0.10705113606536684 3.5465955598068377,-0.0100213947241203 l14.749219162360715,-2.274749584435697 m-8.76496190063544,-12.631387127246759 l0.8441868761923744,1.337430748594491 0.2680242882487004,1.7732547758695478 l-0.1657186778396022,44.223665822425076 -0.4442354317382799,1.429603762143365 l-0.6308787771452831,0.58135833940752 -0.7692547601586609,-0.06776071482020453 l-1.61826712381881,-1.2612976719792117 -1.7977044039510006,-2.098737606096708 m-6.7308762605762436,-13.705742049313349 l1.7190321768285104,0.3360153568191658 1.9893403368413132,-0.5817370098717539 l13.849722692808198,-8.848329546887527 m7.831019031764421,-11.328086374455735 l2.842651212237656,0.09555340112748081 17.614411110021532,-2.554733076307799 l2.37804432949917,-0.06480573781290787 m-23.37371450530241,-11.108397327560668 l0.6948619656303828,1.0866144772618835 0.24799836041026285,1.1410077276129262 l1.0198157123414995,37.354130818039536 m12.642574890908469,-37.66389644030124 l0.6194061547119353,0.9198156916756481 0.196270602069191,1.0493678861238391 l-0.028075328525736007,34.69788036295897 m-13.153680869824719,-14.901343879448678 l12.866808872704691,-1.3510582258854802 m-12.953401618093793,9.83271180000186 l12.386383981266992,-1.286794052355307 m-22.2769445826361,11.08244836899344 l4.42281233037615,-0.06928519787494211 23.64899414537294,-2.4400520662209413 l3.688232708931273,-0.17039600759592521 2.4801725949846265,0.24388251519482979 m-21.76600369237064,5.630256787114581 l-0.1154875769289765,0.8697236501716351 -0.5461873812131424,1.1013688228881557 l-2.226758982742582,2.7634354029801798 -3.4054065110978993,3.178579566657025 l-3.985166589070711,2.8871621789595436 m20.443452665656174,-10.41399144252559 l3.1035949103687632,1.8361290573017577 3.5881100615178765,3.0616320781058497 l2.4827879371446295,2.831968698453645 1.331494316973713,2.4414921730680255 " fill="none" stroke="black" stroke-width="1" /></svg>