<?xml version="1.0" encoding="utf-8" ?>
<svg baseProfile="full" height="103.50891443231794" version="1.1" width="107.73190826732657" xmlns="http://www.w3.org/2000/svg" xmlns:ev="http://www.w3.org/2001/xml-events" xmlns:xlink="http://www.w3.org/1999/xlink"><defs /><rect fill="white" height="103.50891443231794" width="107.73190826732657" x="0" y="0" /><path d="M25,25 m0.0,0.0 m8.051844912179009,15.821969021155994 l0.579357304190043,0.1248250614924674 4.166747952171064,0.18196779408386674 l30.37304828470921,-2.5518596220658805 4.750625353522497,-0.15564068506115988 l2.76735894957616,0.28730998153898596 m-18.43237048124628,-10.501210286930709 l0.7805962517808036,1.4598670747650984 0.18883254833174062,2.067892730920428 l-0.032885209672390184,44.796524781010945 -0.31074287819420143,1.271213706449517 l-0.4988978878094715,0.6066884120472036 -0.6300700202483361,0.0993664629111814 l-1.5580509269808998,-0.903112209679119 -2.7822521028034797,-2.6082488126473358 m-10.518724094663622,-26.40893823058106 l1.6380572425391327,1.3700321646223936 1.799860175603555,1.9185098017825841 l1.5205422934380919,2.0945984679947554 0.6418814633652984,1.7024460453450176 m-11.838316937791973,15.305085151237595 l1.4096938516017306,0.4521615825173703 1.1430047370094882,-0.4728213472176796 l14.854035695377007,-12.10005631447782 m21.762195323874323,-12.359596885541423 l-0.35140940247636837,1.6621129411320847 -2.2295293579012903,2.2087833723290187 l-3.5611954346336283,2.612506185879016 -4.050181875885355,2.3851464345422677 m-2.3592420431857115,3.0909860114586296 l2.9767419555478623,1.9849792751305633 11.756241455910503,9.802602904867893 l3.168955218234507,2.1938068576821013 2.556155951857557,1.2680686174183031 m-14.95542626206957,-46.87031634673313 l2.3339470519325367,1.1576937644305492 2.4387666764407174,1.6788190908755558 l1.9164372340910725,1.7177182055534361 0.7846346787586919,1.0974750506474047 " fill="none" stroke="black" stroke-width="1" /></svg>