<?xml version="1.0" encoding="utf-8" ?>
<svg baseProfile="full" height="111.07323788169504" version="1.1" width="98.00462685908941" xmlns="http://www.w3.org/2000/svg" xmlns:ev="http://www.w3.org/2001/xml-events" xmlns:xlink="http://www.w3.org/1999/xlink"><defs /><rect fill="white" height="111.07323788169504" width="98.00462685908941" x="0" y="0" /><path d="M25,25 m0.0,0.0 m7.483164555225061,13.004884703445168 l0.4817191103188222,0.11272168927551988 3.1612042328424126,0.04832141645498755 l27.24555741717467,-2.2493997621990927 4.156935516411096,-0.1923602989214318 l2.614902706620941,0.2451668680630894 m-28.46409147990947,-3.658614820031894 l0.9891740903334282,1.216761974537361 1.4958976321657862,8.094081991081314 m13.743707841388373,-10.47039787586083 l0.13860498252639492,0.8645846642724404 -0.15876125714197067,0.9861629320752274 l-2.6141355498111496,7.765042385834406 m-21.55171915819743,6.8737396815661285 l0.42781464760929255,1.3117882313640228 0.07522203895759051,5.7702187886601015 l-0.46688580592867446,9.343142119924659 -0.5210820031266802,3.6768101761886163 l-0.8046017301542943,5.802229529621929 -1.8764412098416996,7.067207240666378 l-0.9680652097158511,2.375981333663023 m4.143436954313078,-33.0401879735607 l6.140719321451946,-1.0362811344896332 0.8536239302700225,0.2352637936699601 l0.7007825626218295,0.8204819419149775 0.15159835761573529,0.5420179510483513 l0.08022019464665016,28.42911351441772 -0.16908351901333435,1.815815250895511 l-1.0361233382116901,0.8349421052342794 -0.6755187389184665,-0.4901470218157127 l-1.5585256706081676,-1.8148442814524628 m-4.325735750410733,-20.439003029024168 l7.035715329990163,-1.0595388559300107 m-7.382723006822812,9.662720612862827 l7.364604334959329,-0.7786817275547636 m7.451849648297104,-19.20514423914053 l2.1482285731658863,1.6837774112395558 1.2971019583288605,1.807543265299436 l0.631984448134239,1.2307389411206742 m11.91133775362995,-7.124915080959811 l-0.17135741004161362,0.9781517287209713 -0.8902307944873004,1.826260892194032 l-2.4087505765226136,3.414757220446748 m-12.850003126579798,4.283117815139221 l2.234151552021809,0.11240355232499531 11.899886330754837,-1.7440212597372555 l2.9585514159080284,0.08206892905698174 m-20.39526498819254,7.300088843335198 l1.4351900494578325,0.25338655350328326 1.6384665558629843,0.0005268959325826909 l19.2442055597913,-2.199883028933026 2.594482590233218,0.21081483293054018 m-13.565761222332574,-13.41142364720529 l0.2590282800292851,1.9646048759514019 -0.705483765466294,4.625555719619554 l-1.0217464000567307,4.646330581025575 -1.4410306817849108,4.102743608698627 l-1.62009337538554,3.181741465953506 -1.5201565189344926,2.2585315613976418 l-2.491112526240616,2.741952837769938 -2.2237775947185843,1.7624399387748753 m12.951928500766638,-13.216432990112557 l0.9569465097974129,0.39471666713884634 1.7781195505838527,1.3140675857349762 l8.888835368807237,8.05834062647313 3.117988864632356,1.8925573478941415 m-16.183907464614588,-2.459163459766435 l0.456242600182787,0.6939571518005635 0.21783178661748254,1.4304734459771313 l-0.2170995093418485,15.708743735279679 -0.4122000215500965,0.6963522660691207 l-0.5591157044003423,0.10773117484971537 -0.6380362956555241,-0.2674056649943785 l-1.5234984417371782,-1.391365874692299 m-4.790534074196067,-12.21032653266335 l1.7977149064915188,1.412450355010068 1.2045833970834459,1.623470482988525 m-5.282763049133338,7.171659010847082 l0.5362479959185653,0.36029920735340265 0.9727374925510065,0.02344756531661535 l5.445968636357838,-4.815332362247313 m10.875392588096272,-8.749873630993617 l-0.09444231013487456,0.7958833543396335 -0.5648741085678435,1.1284261452777729 l-2.6561465029051727,3.089049953540272 m-0.08972471322788265,3.052298481012469 l4.294184464068401,2.8780680150477647 2.038276721095558,1.8817664682143234 l1.1322984964831369,1.4763485116281654 " fill="none" stroke="black" stroke-width="1" /></svg>