<?xml version="1.0" encoding="utf-8" ?>
<svg baseProfile="full" height="105.51434159018423" version="1.1" width="100.87333674660931" xmlns="http://www.w3.org/2000/svg" xmlns:ev="http://www.w3.org/2001/xml-events" xmlns:xlink="http://www.w3.org/1999/xlink"><defs /><rect fill="white" height="105.51434159018423" width="100.87333674660931" x="0" y="0" /><path d="M25,25 m0.0,0.0 m23.41914902441747,7.013246355083173 l0.07435634135754302,0.46925785459672686 -0.2502257249760325,1.0651515344236795 l-0.9054448402647833,1.2040957973044246 -3.6073676943499122,4.126813404873217 l-3.8508289400833693,3.2450617283715246 -4.929205900012947,3.358968721044276 m10.769872751925401,-6.987751526564484 l0.5297105499851222,0.7335620238039988 0.27733394036030967,1.0835539588962346 l-0.048094673506876934,16.445765803794295 0.1253994474546101,5.658576413378707 l-0.46538789455901547,5.271011813270337 -0.9421775378488317,4.068196322335725 l-1.355152345416441,3.304488489511208 -4.322848919444989,3.04626449294525 l-3.3877104642661204,0.8107843577174628 m-4.823739618535067,-24.187413353989914 l2.7218684290630883,0.2396140864338406 2.85493357065672,-0.18053566689764997 l30.57060833915619,-3.016859089973231 4.514965948885452,-0.2185897147980322 l3.9033229566117833,0.2192007746560997 m-16.910253407030744,-18.137978178623385 l0.8802913942051704,1.434248432962874 0.1575062746768555,1.113850821992863 l-0.08576179134186356,44.33175593363502 " fill="none" stroke="black" stroke-width="1" /></svg>