<?xml version="1.0" encoding="utf-8" ?>
<svg baseProfile="full" height="108.6628767637635" version="1.1" width="100.92186547916339" xmlns="http://www.w3.org/2000/svg" xmlns:ev="http://www.w3.org/2001/xml-events" xmlns:xlink="http://www.w3.org/1999/xlink"><defs /><rect fill="white" height="108.6628767637635" width="100.92186547916339" x="0" y="0" /><path d="M25,25 m0.0,0.0 m9.564448103165224,18.107511296816114 l0.48082920017118286,0.12875354317860388 1.451769118041496,0.05364849132967462 l11.988337098453346,-2.0543407667310256 m-6.255825227407118,-11.818652637160568 l0.7258448933683094,1.7276589900474693 0.18984431419665412,1.4890001938890787 l0.006518812988999996,41.73491278991946 -0.3431365296597475,1.349321080501164 l-0.47205520656143213,0.5800234307540098 -0.5747722062628569,-0.018566084616587344 l-1.2487671485983187,-1.1050932420090345 -1.4348189871556318,-2.0337927274192427 m-5.851445114142157,-13.070332674065876 l0.3059176367287779,0.3949689799005697 0.8291714694058707,0.35778061697413266 l1.6103684956657596,-0.4847849489643932 11.111121943295023,-9.031866449099573 m12.04550899776295,-19.756691090192746 l0.03847593562589253,1.5555180795813166 -0.35346280077018716,1.0355369423762695 l-2.6527725526155566,4.975641302973377 -3.3184570926583943,5.056258425663534 l-3.6718957959064658,4.493100864290986 m7.5945795506787945,-7.3059727975360795 l0.8558112115637451,0.293977678620197 1.8472022002603128,-0.04361429540620222 l15.05405913705402,-2.3394234411128054 0.9355250995068068,0.7044289665053564 l0.4639409229680841,1.666216058532485 -0.02908550061815159,16.94867783755243 l-0.29214387167006206,12.95345936163874 -0.8420132737835724,7.245141641744226 l-1.128191558482933,4.294090155704424 -0.9049985273004427,0.5803811895840142 l-1.0823840241562428,-0.4135560643290712 -1.7216496935351635,-1.948135397363923 m-13.028076385268363,-29.82207711052848 l1.79869774456655,2.431016329445241 1.0957612113472626,2.5134754506366908 m11.984282399320122,-7.839008144692688 l-0.22136043443664674,1.4657024805848728 -1.0993323264318824,2.5366610207788933 l-1.3466091839952434,2.251553117987072 -1.3502876888558903,1.704729983122621 m-13.556894583832586,2.9410498268052288 l2.031644761205348,0.22204867947058435 10.152841458835766,-1.6382555803175827 l6.703895514440726,-0.6184257275806526 1.4915578403883272,0.1553683260495034 m-11.096125067672125,-12.045252176745427 l0.84233730544809,0.9110437350358032 0.2004845763632257,0.9939742526403637 l-0.12716351823073518,31.88851029495922 -0.28150017699818075,1.775677027634985 l-0.4758592319628192,0.6335613703446414 -0.6079976117609313,-0.16828994816460768 l-1.9249824291266733,-2.358978452316622 m3.010213157724543,-20.144617523586856 l-2.3000887984797784,4.600103436655313 -3.1524171760038255,4.7900134948481154 l-3.1175887435720164,3.714279171650786 -3.2903522630454454,2.842892825845019 m13.46088329721621,-12.504520670635905 l2.0293965072796287,1.4714548957892408 2.11090417638768,1.9731581156798017 l1.8531213619443145,2.1804541399556876 1.2055090288919852,2.017673181231742 " fill="none" stroke="black" stroke-width="1" /></svg>