<?xml version="1.0" encoding="utf-8" ?>
<svg baseProfile="full" height="101.00003648756189" version="1.1" width="103.24320323505682" xmlns="http://www.w3.org/2000/svg" xmlns:ev="http://www.w3.org/2001/xml-events" xmlns:xlink="http://www.w3.org/1999/xlink"><defs /><rect fill="white" height="101.00003648756189" width="103.24320323505682" x="0" y="0" /><path d="M25,25 m0.0,0.0 m12.985609565670297,3.7583743949242847 l0.4371395507819186,0.4002311239734965 0.27130196646683613,0.7469575397487025 l0.15310393468195188,12.096452588129498 m0.30574306975721943,-12.785306366272492 l10.149948504522909,-0.5753555822095155 4.167500076621639,-0.5478269635710191 m-14.417793722507446,4.922507332796216 l10.293414007648218,-1.081023732486221 2.21706370956274,0.02234962475922638 m-12.3910471280919,4.647209019512448 l10.403823564275326,-1.1213859197197873 2.1293857467973174,0.03487431027083467 m-21.615705927974666,5.237257658312644 l2.3985261660444936,0.06517345964848471 18.190961009082944,-1.8500385661378127 l3.2934944184310293,-0.0042762497275486925 m-14.565997273561006,1.9902739584521603 l-0.36609773803400875,0.824995917212827 -4.716090558815541,4.552211974496065 l-0.3062563371057993,0.5794635537631548 0.2829007504435951,0.5311449138386041 l0.8627657243003334,0.04382939822170147 13.882984332428453,-3.618960155280902 m-2.8535173548600317,-2.363259258048845 l2.716636795028237,2.174132858335968 1.3952244431543703,1.8869143401315138 l0.5117724231850908,1.1398019326476667 m21.06005098819374,-19.51522192293207 l-0.5479750687459815,1.0596467122312598 -3.204659583781787,2.0760928923368804 l-4.204190886556492,1.8243318161049984 -5.058593405077261,1.6684891063912362 m16.198481630825018,-1.6635207015152145 l-0.4014843962636628,1.0581073806380121 -2.5530284675106922,1.7029654894425488 l-2.7296689777502534,1.4434516742063699 -5.6488068359244155,2.3139118467420743 l-5.605867660746832,1.630588264078693 m20.12215218046092,-2.9981844080986577 l-0.14468765645927778,0.7939395299949378 -1.0858709203540102,0.9283880150829693 l-2.464483267377603,1.48123544267815 -2.881054158652615,1.358611690685777 l-6.497457589102722,2.383611599031492 -6.632373024069267,1.711697303633415 m-18.995305660466702,4.336757469020691 l0.5480071199303396,0.11343841421825065 0.6315946229823811,1.1646383655229513 l0.14853380409405734,18.536635928986495 m-0.07753095966071182,-11.609352637458286 l8.937823243920912,-1.4283215728622445 2.356831897139017,-0.09675036623447979 m-18.874864924295835,-0.39534097145224495 l0.5862747576562762,0.49047167787760065 0.45066288611299926,0.9526884290242957 l0.7620112550811701,14.32704155393757 m-6.172528882553645,3.121228353666004 l1.2567574755239157,0.5220370068610523 1.2111506607706681,-0.1934494778648517 l18.80008974323098,-6.356049586133177 m21.279735591040783,-14.130148767225947 l-0.23330959898639544,1.0228616574810638 -3.795508621867889,2.7226774467996426 l-3.799060766418945,2.06530837356267 -3.6273306636977614,1.428764334989135 m-2.607212810527185,-10.687900402716705 l0.7262526439064657,0.6888678089625309 0.1105244415811259,0.4968477916444322 l0.02936836341097347,19.03316598470853 0.3156276062780623,1.2660938218873115 l1.0699075461585117,1.330608517300418 2.0527247421845107,0.8075419754256888 l3.467138878589989,0.3250127632858783 5.207746424166034,-0.02320506582702284 l3.6228113899522087,-0.45208949177858565 1.7296553855159271,-0.7529459804001795 l0.9488524910895432,-1.0612235350955528 0.34288051023401417,-1.4041389560211328 l0.072266171785284,-1.8845826543702597 " fill="none" stroke="black" stroke-width="1" /></svg>