<?xml version="1.0" encoding="utf-8" ?>
<svg baseProfile="full" height="106.50409439288258" version="1.1" width="98.39421819557523" xmlns="http://www.w3.org/2000/svg" xmlns:ev="http://www.w3.org/2001/xml-events" xmlns:xlink="http://www.w3.org/1999/xlink"><defs /><rect fill="white" height="106.50409439288258" width="98.39421819557523" x="0" y="0" /><path d="M25,25 m0.0,0.0 m13.87385301725964,8.368930620548007 l0.4237109275941077,0.16868378259672528 2.8389274615347007,0.28957281062269097 l26.160516886781433,-2.211908158266692 2.2462357241363065,-0.09764943143859674 l2.0708450034307857,0.2881992413790182 m-33.15070452908631,2.595198620684515 l0.18628467296550896,2.1452766531459635 -0.7482635953042828,11.520863121423243 l-0.7697831535643455,7.39204469597 -0.9240508220551439,5.779587188076933 l-1.329798974217742,5.751819421213542 -1.2704228310013692,3.881573425006988 l-1.5774500792801194,3.570786202039567 -1.9217946538557131,3.12130848383877 m13.57025309485436,-36.353821882265485 l0.4308010409182359,2.4108638393333592 0.4981658018511545,27.64216269874171 m-0.08035176080032656,-29.021069459615482 l9.456154561947425,-1.9272703577911903 0.5055943920923881,0.05739938759926765 l0.6796559606644149,0.8714167114494138 -0.2895145718039352,29.420371950314536 m-10.045756026365448,-19.207020235243235 l5.9417312617952,-0.9752963651982589 m-5.865657701407347,9.754229054830152 l6.0792996001082775,-0.909416352942299 m-6.018871694774723,10.642243431458676 l4.78423603993589,-0.8558028960068998 4.758171872792259,-0.5257565628655622 m-7.389928961044352,4.1869553426541355 l0.1802204488566698,0.9206620130392824 -0.9906473226984502,1.728322138054951 l-2.1316380490437568,2.9196721434738038 -2.6173723779451596,2.824942255731555 m10.407342893636562,-7.967339188311976 l3.445104043682239,4.236401519413834 1.5430850658659896,2.475609618765108 l0.7239927726932827,1.5913489114225192 m4.325600257441223,-38.23690891888393 l0.6369011441224728,1.0331146053310276 0.2703695751883536,1.926062496567064 l-0.023839226254042157,20.80855017998389 m8.515787591562855,-30.750207774925087 l0.8198701059143638,1.4609960668337203 0.16735330645170715,2.322351354460678 l-0.2499363105318234,37.58452128813032 -0.2313485308078147,1.0108078546494645 l-0.3502785579603871,0.47358371650253483 -0.468479101765231,0.028628966789099968 l-3.0550533778352196,-3.3999648477237776 " fill="none" stroke="black" stroke-width="1" /></svg>