<?xml version="1.0" encoding="utf-8" ?>
<svg baseProfile="full" height="109.55523707561198" version="1.1" width="113.16705576536228" xmlns="http://www.w3.org/2000/svg" xmlns:ev="http://www.w3.org/2001/xml-events" xmlns:xlink="http://www.w3.org/1999/xlink"><defs /><rect fill="white" height="109.55523707561198" width="113.16705576536228" x="0" y="0" /><path d="M25,25 m0.0,0.0 m6.500106671338302,18.194832256038048 l0.6015001422180599,0.09068854307717826 2.863484664014478,0.024948444712261653 l12.779651110854324,-2.1705651997795714 2.1101834594882596,-0.05731197221963869 m-8.703005769080024,-13.59158547742147 l0.8374178134046615,1.457478652881472 0.2467389323149899,2.0657435285710806 l-0.1341656102741857,49.44848711617709 -0.41968072548241453,1.6306207962315877 l-0.6210421233762324,0.7267980007161335 -0.7613724691773033,0.011837303519149446 l-1.654347027666874,-1.2737426124431623 -1.8691453708798338,-2.267430963100154 m-6.671838035379036,-15.33579178915138 l1.1290109758858597,0.29531978671429115 1.2606068019453267,-0.48836273842872263 l13.77031212680698,-10.223997228516915 m19.887233122239763,-24.839597324093575 l-0.25197153804449335,1.9419685074465876 -4.719313586905961,7.456781517407654 l-4.266986805258273,5.3503277875206905 -4.93921642627529,4.88195074679544 m15.925889695255831,-17.516150120965168 l15.697614761211621,15.183024061818356 4.56939097618374,3.0079983216110353 m-31.741862391909333,1.4797485976804277 l3.400929614517814,0.24861636375814156 14.788405693634074,-1.7422572431337802 l2.754920427376704,0.010201139368528766 m-11.523753263040517,-7.492159120512898 l0.7174986771616868,1.1752007793914965 0.24024369882894894,1.2890870572948314 l0.0630536788661631,15.571327821405236 m-15.996964332333846,2.050098359601105 l3.5762200300580025,0.13886039439592404 25.83901542581919,-2.5165739445779876 l4.60869443916674,0.08055067741809765 m-29.023651191206156,9.648981220546105 l0.6222060963859225,0.9970935861475817 0.579082386160512,2.7725925214292357 l1.678291051550576,11.839598920281633 m-1.8045010433167812,-14.462296639950084 l19.118619069365288,-2.566223632865464 2.3637239087996225,0.1694187811235525 l0.7895648772263439,0.9004955139749512 0.0024480374855143875,1.7162938052535663 l-2.425177259745598,10.343403569728254 m-17.603454381305664,2.2874577465497175 l19.084081259253693,-1.7332147596975582 " fill="none" stroke="black" stroke-width="1" /></svg>