<?xml version="1.0" encoding="utf-8" ?>
<svg baseProfile="full" height="99.44591830155429" version="1.1" width="104.96878117793602" xmlns="http://www.w3.org/2000/svg" xmlns:ev="http://www.w3.org/2001/xml-events" xmlns:xlink="http://www.w3.org/1999/xlink"><defs /><rect fill="white" height="99.44591830155429" width="104.96878117793602" x="0" y="0" /><path d="M25,25 m0.0,0.0 m30.15363188663104,2.3231117602820692 l0.39400033525416334,0.48274548680653984 0.6243950904554723,1.4625009819367276 l-0.008643736535303226,4.376663921446435 m-20.960003578815826,1.6878545342574032 l4.5680940836994495,0.27438324575779754 31.840181434558758,-2.3893132949380838 l5.202938039510616,-0.12228952842034536 m-38.61009043402307,2.5720554591167515 l0.676896815674466,1.45902499726093 -0.20121470843112102,8.605983644375492 l-0.596205750953506,7.52641940497998 -1.0483733969549778,6.290812373588109 l-1.327090280431406,4.702017834051852 -1.5443689219741723,3.763276472669108 l-2.403648650888164,3.449687637269944 -2.882252832876225,2.980983371113584 m-1.1468150704172753,-32.15783202467902 l1.5672884506779654,1.2202600388316205 1.8021481401479618,1.8884051717439505 l1.4971341436293217,2.0296573358809544 0.8069661974854525,1.6570053208524567 m-6.902322415525711,10.630810051696697 l1.4887918603541472,0.2128604275328221 1.1863596015789364,-0.22666811821066968 l7.67382665737224,-4.718947041667516 0.9426501134091578,-2.1617799890667624 m6.038561632039988,-13.690663653451589 l2.542947114006924,0.23680024896201649 13.11859676064824,-0.20465194736937012 l14.662608152206653,-0.3458241688049921 2.2912645540464776,0.29061794189840134 m-29.925054980033718,7.988420465568507 l0.665773221720917,0.6217421324423188 0.6286744080190191,1.0140289418639703 l1.9687073538153128,8.410442327381004 m-1.8297313040136824,-9.488122374287888 l18.683540873226946,-1.6340106527878984 4.705000703184925,-0.10617888061641508 l0.9959751519948515,0.6750177233854017 0.167908275758272,1.2193425960460584 l-2.3843233695461565,6.187366521627166 m-19.29317711059178,1.8031882513109625 l20.492118197071164,-1.1938023877824404 m-22.73861020945132,6.105357600695164 l2.1751933791795977,2.757930079950158 1.3542261061764453,3.1755452752989974 m16.15474927130209,-8.299364985094309 l-0.1587616898924625,1.2567714764033489 -1.0372922837064356,1.9473968175332623 l-3.3913526604862922,4.761861953049027 m-25.374162827710023,3.1440762265966375 l4.898753042364859,0.31421767950720725 16.44298331710481,-1.2901703524949508 l13.11376792892519,-0.6793800373116419 4.130440046846924,-0.005531985066166528 l3.0751850511159042,0.36019637797210163 " fill="none" stroke="black" stroke-width="1" /></svg>