<?xml version="1.0" encoding="utf-8" ?>
<svg baseProfile="full" height="88.61104594343192" version="1.1" width="103.20914448503555" xmlns="http://www.w3.org/2000/svg" xmlns:ev="http://www.w3.org/2001/xml-events" xmlns:xlink="http://www.w3.org/1999/xlink"><defs /><rect fill="white" height="88.61104594343192" width="103.20914448503555" x="0" y="0" /><path d="M25.365762370192584,25 m0.0,0.0 m9.392706109172376,4.205735834836232 l0.5827261924780162,0.09020343922758212 3.949344099461273,0.15833825476289076 l25.30151568358299,-1.937391009240687 4.9839909180175646,0.1413915336134472 m-35.853411345241845,17.80655615627965 l1.8819647933628965,0.24848193653512007 2.3339432939942237,-0.04104709931927701 l24.714409833537292,-2.0020259560938305 4.736221377447174,-0.14113705896542691 m-42.389173326004546,19.55735443788921 l2.4871814095197022,0.30924155056860286 3.1898752545539333,0.037774139440120404 l38.00874459756448,-2.3633203325319365 5.69276441614619,-0.0887162091063871 l3.8305788072512406,0.40937868193330207 m-28.30716480684264,-30.611689112451693 l0.941298532199581,1.2225359993988638 0.294812252038551,1.6893544333741801 l0.02066594670193154,29.920026323281967 m15.974096894910312,-11.886695598498282 l2.597624490972749,1.2534785270542148 2.456349304126856,1.569967080965457 l1.8995784053435616,1.580696298822113 1.434395863867682,1.7347442257503736 " fill="none" stroke="black" stroke-width="1" /></svg>