<?xml version="1.0" encoding="utf-8" ?>
<svg baseProfile="full" height="95.6016818944202" version="1.1" width="103.22441640035774" xmlns="http://www.w3.org/2000/svg" xmlns:ev="http://www.w3.org/2001/xml-events" xmlns:xlink="http://www.w3.org/1999/xlink"><defs /><rect fill="white" height="95.6016818944202" width="103.22441640035774" x="0" y="0" /><path d="M25,25 m0.0,0.0 m8.274070492351765,13.752728693457481 l0.49069584919626114,0.10062541448825031 3.3821369083521278,-0.03100840227093819 l24.793605067654248,-2.2152860257176417 4.208928072504291,-0.17491042637539914 l2.64662826518402,0.2282565336177896 m-27.286470778332628,-3.196343456143809 l0.9041375223998663,1.2033577637039206 1.4060455017934195,7.615504937486307 m13.739815009702582,-10.393316838113513 l0.11010565816599026,1.297637557489964 -1.741732077266535,7.667382240505784 m-21.43869592944182,7.003449907852239 l0.4810094169615438,1.0450365435751208 0.06522112891438045,6.700876423391466 l-0.6994222055074012,4.356904138808016 -0.8663402062081657,2.802864556474928 l-1.1979245619671914,2.464044583013679 -1.5363808109247017,2.050243959155933 l-1.607726598145363,1.40300224367395 m4.568872155534551,-23.061476597819055 l2.6817839715457663,0.17559837223902905 22.579833582968025,-2.1821966489266886 l3.720694615536012,-0.22025079400186034 1.6378176165827647,0.2144087810531232 m-24.01010426610235,5.71732092180074 l8.664039854407024,0.9641136120852467 5.6635824956740874,0.8192758237194404 l3.74799123723594,0.3382334853211719 m-18.763138357546005,5.651135662622355 l0.507239332760888,0.545243312303966 0.2874044860002841,0.7408719498208556 l1.3663860148053324,6.210786468718623 m-1.0274267998675337,-6.710353123968836 l9.81088230892778,-1.223608822258841 1.8035701699113373,-0.0646674057264252 l0.5661567243138906,0.23859080535821395 0.24928314738785146,0.7420863623823439 l-1.4471072882696563,4.599357572408613 m-9.531422676771692,1.364065256296953 l10.4326006655577,-0.9000463154369794 m8.660896646284655,-23.74872645362555 l0.972621485363637,1.647822011596193 0.09542020984836977,5.688000596423911 m-0.02865021825993709,0.8879943558654387 l-0.03500689719286923,-1.1969577033024883 2.2369824318459464,0.14061890375963926 l6.30601954498947,-0.274260324512513 1.7203316075135122,0.03681316234485042 l0.5385613082095404,0.21289958513279614 m-13.424137052289705,5.93845984164363 l1.6533905968006462,0.05242398682012704 9.767806515905399,-1.078970327288268 l1.1573057176049724,0.08429548766658998 m-28.950218271505904,6.036018411409062 l1.7480840976333785,0.2669557176613077 1.988618698749062,0.00936411288205237 l28.65488691103689,-1.7602663297504344 2.5248583518419845,0.36501890930954806 m-19.286362955772635,2.0278573203226347 l0.6288301767564356,0.6130147719284372 0.2241424289991944,0.8525787974221691 l-0.13870797757753603,10.478122798665519 -0.4111574715373568,0.5937665421803142 l-0.589683132953791,0.08929869379970669 -0.7018576372314086,-0.259286526243112 l-1.5526799184294398,-1.0159610567068176 m-5.592837693708137,-7.640269580033566 l-0.2936366137886408,1.2682214869065112 -1.6587619760583243,1.8752911279171247 l-2.9661491528361386,2.3397192127368003 -3.247461234881413,2.039851499695683 m24.93529076449799,-8.184232250952133 l2.2123208027286196,1.3637068144238653 2.57644610952531,2.0241899292800354 l1.9707952582445576,1.9510261097023351 1.0207462633905982,1.6230917069573196 " fill="none" stroke="black" stroke-width="1" /></svg>