<?xml version="1.0" encoding="utf-8" ?>
<svg baseProfile="full" height="107.8999762922666" version="1.1" width="103.80595403903837" xmlns="http://www.w3.org/2000/svg" xmlns:ev="http://www.w3.org/2001/xml-events" xmlns:xlink="http://www.w3.org/1999/xlink"><defs /><rect fill="white" height="107.8999762922666" width="103.80595403903837" x="0" y="0" /><path d="M25,25 m0.0,0.0 m7.619893718497637,20.76940609686277 l0.5761847359671126,0.08817105990168841 3.16588401613744,0.025358430393064076 l13.52620230130085,-1.917380003485092 m-8.270569066186969,-13.057363081633168 l0.7186367823169595,1.2902056058718288 0.2241877547491248,1.9559641580346006 l-0.1515902536202969,46.543054705184744 -0.3764308415701201,1.4909382278279173 l-0.5532212922264523,0.686043279469688 -0.6705248054492596,0.025577813838561884 l-1.4729286441136127,-1.214448004421461 -1.6850279671754727,-2.2569835824156383 m-5.910304843597635,-14.352545943352395 l1.3986641326904674,0.3441930946006342 1.1331819849693332,-0.5071185799234592 l12.946794781769954,-9.748602103766958 m7.393022841162808,-20.66843837338847 l2.3436785660166595,0.1296901068741778 1.9951795009200382,-0.2306071405409748 l13.699036891511222,-2.831755215602323 2.905897106607532,-0.10047449086717043 l0.8208197237548138,0.8197495942095482 0.12595143599658373,0.800828511504676 l-1.6438035142057112,7.637540106460794 m-17.71494392919663,3.104702016872366 l19.014094539170674,-2.4182802036956463 m-20.457678370747747,-7.375933626632542 l0.6616880763970892,1.702268560687464 -0.15377647581561613,7.265159609992862 l-0.624859537015503,6.783795960356526 -1.1302824610432534,6.987748255142998 l-1.298993023777227,5.627143004575977 -1.3284516326179463,4.2732355477447115 l-2.179168834757762,5.038168859482561 -2.1376331953353676,3.7443572109198673 m19.694223350383933,-27.909533541748132 l0.8371913493699413,1.9027726137541456 0.02017055022712815,24.390674954263368 m-8.5764637662324,-24.48866088762701 l0.3717264373153749,0.48021619978932717 0.20761354941644938,1.2397321729354696 l-0.9168623523955397,6.120478434260322 -0.04016919427948026,1.0235449233963063 l0.4153043857894964,0.3418240928228231 9.871320400113959,-1.697377874811768 l7.83848894616068,-0.5606494582434286 m1.2662344830950527,-8.93389285066653 l0.30836569859005214,1.4247513669321412 -1.1049046688089126,9.063484095033374 m-19.173420367049896,8.06896738335971 l0.1976848577422035,1.097105743480563 -1.3156651741768361,4.7710992558999825 l-1.3303532509911005,3.289437409670429 0.09231814589229688,0.38296006644206854 l0.49982642175189096,0.2951201331353913 9.581136400850493,-2.5137050002232786 l8.879938042324433,-1.375314082118837 m0.434584901635737,-7.691241100420771 l0.6768309903746141,1.273929030646765 0.032432698036262884,1.272220301143185 l-1.255452886429352,9.48807828113725 " fill="none" stroke="black" stroke-width="1" /></svg>