<?xml version="1.0" encoding="utf-8" ?>
<svg baseProfile="full" height="102.80153862770905" version="1.1" width="102.51098212330773" xmlns="http://www.w3.org/2000/svg" xmlns:ev="http://www.w3.org/2001/xml-events" xmlns:xlink="http://www.w3.org/1999/xlink"><defs /><rect fill="white" height="102.80153862770905" width="102.51098212330773" x="0" y="0" /><path d="M25,25 m0.0,0.0 m23.472544791895366,6.013378712090085 l0.051555966401522504,0.4768357676019122 -0.6011949182753684,1.6503980562859013 l-2.302113724907795,3.3640379384135053 -2.5088270584942416,3.0689644589062772 l-2.5862303684972088,2.5426457538205147 m7.63809929898696,-5.732319303307327 l1.9392403722996794,0.14314655430158374 18.940708013671745,-2.3558046863259805 l1.3939142078329059,0.07076418824664137 0.9396931375067454,0.6191151911848274 l0.09254964707520978,1.0965593373703628 -0.2694065653111893,1.8300108604861043 l-1.3487385367964426,6.006559260920832 -1.8350462801879963,5.754556785632189 l-1.878697218966775,4.227706827603728 -1.2187453475107548,2.3101094423912127 l-1.1258095002843864,1.644819488889309 -0.6119281608943983,0.6600251284735572 l-0.5469958243913644,0.29233806694788533 -0.5376032229949583,-0.2461628323425386 l-1.6874871375459433,-1.892289320097947 m-7.703045009312067,-18.88324942156924 l-0.11932650879121429,1.233333119392757 -0.6917251675280046,1.8071466633480897 l-2.385600560811732,3.959895502737059 -3.329616059567556,3.6567659489419007 l-3.8117819184363446,3.1105426062168444 m19.0942634268202,-14.830193155786999 l-0.1334958670790779,2.0120835028968367 -0.9119208299390653,2.080184027107969 l-1.7087112934616226,3.001312215698007 -2.29058997299,3.331261431238023 l-4.9126877696739895,5.835232200754592 -2.8546614140513586,2.6638789848489455 l-2.283312621164991,1.7935791064561228 m-0.739263184083256,-15.458970883227698 l4.054791302510645,1.5185976209119951 4.736307003776001,2.4982358763835335 l3.986744530093608,2.7963987841214997 2.0007815034292844,2.1472366677991515 m-22.607461813315822,15.930949861385626 l-0.2980150647634978,1.9010786174122107 -1.1082119463037698,2.972010760707829 l-1.4668995323452276,2.9612642886506904 -1.3099327004262018,1.9401918355465846 m10.303937935110872,-14.190607572692754 l3.0842759992355995,5.346390711350515 2.8597569128813585,3.563924032711981 l3.5386976745444665,2.928262400762651 3.4610951364443054,1.8030381248599328 l2.9644019249616846,0.9895629914453431 3.3880879244903066,0.6389710708227855 l3.9017282112194516,0.19783502898363692 3.9023712949290092,-0.26780204374801714 l2.1337591358269563,-0.6565038012620353 0.5116790836919305,-0.4364627907809789 l0.1430011445041519,-0.5401322007969223 -0.24439651123136918,-0.6407274232632377 l-1.647526590152979,-1.4876399005752208 -1.5972787378615223,-0.9041868877093208 m-14.059555772761227,-8.897474659732081 l1.378564493122342,2.6358322518497403 1.0140119211472747,0.9208989353202773 l0.5019217039404678,-0.0107765908614806 0.4896466019526053,-0.4052121851189555 l0.9220256936567811,-2.0506731976113834 m10.580026434825209,-4.388112728306721 l2.066364834041317,1.3578515225328471 1.4924819965155167,1.4032238464843179 l1.4113031852597584,1.9465876792354904 1.3944903898172158,2.7280330954722887 " fill="none" stroke="black" stroke-width="1" /></svg>