<?xml version="1.0" encoding="utf-8" ?>
<svg baseProfile="full" height="105.52199411338867" version="1.1" width="105.46548456844201" xmlns="http://www.w3.org/2000/svg" xmlns:ev="http://www.w3.org/2001/xml-events" xmlns:xlink="http://www.w3.org/1999/xlink"><defs /><rect fill="white" height="105.52199411338867" width="105.46548456844201" x="0" y="0" /><path d="M25,25 m0.0,0.0 m3.0909854638276193,19.310426572256475 l0.6193383449387135,0.09691233080826417 3.207550099635531,0.012384502788492985 l15.081238253267266,-2.392089579350148 m-8.399197008163235,-12.250640746636991 l0.7706349283752058,1.259004977775792 0.2490204159307977,1.711751923006603 l-0.15578685616542964,44.461097097595804 -0.3980317554826264,1.3537858800138616 l-0.568049167693954,0.6145359647864123 -0.6798692576399203,0.07504788975198945 l-1.4682289424280677,-0.948437865743981 -1.7295989612781753,-1.968916124746664 m-6.363844743251491,-13.190410663937909 l1.0066068733031912,0.3095206679886946 1.5404429331488874,-0.5441003451841525 l12.935170451586243,-9.801851963254258 m19.408525915318876,-23.421397453652364 l0.4056282924085991,0.8754702269121278 0.17455509966358584,1.1606059813801133 l-0.08266382186425694,27.098291137398956 -0.2681136818890203,1.1233699012397054 l-0.5111093147123835,0.4777840794299734 -0.6849090539296284,-0.04210578119680926 l-2.29184652237455,-0.9320437573780356 m-3.3670612674936615,-14.64173869264679 l-0.16891004116410135,0.9228889392304847 -0.4275958156623569,1.182236707437092 l-1.9137715878710815,3.0679678637471266 -2.9464126758857025,3.459566711347531 l-2.793536534907216,2.4737003766517938 m24.015191393883093,-12.352436348036308 l2.533865776836262,1.6268746007387354 2.5386076457818243,2.303451436854197 l1.983910036186323,2.36842025826794 1.1227496542068358,1.9338237559507838 m-6.9168228025339085,-0.7926247221490469 l-0.24367272788433642,2.742966035685946 -1.7475856792620765,3.6695293287097943 l-3.1205658181736706,4.68000956506337 -4.187684951865691,4.941027727413581 l-3.895052599965393,3.8136111579645315 -4.343197681861859,3.642350242916151 l-4.569967274478093,3.2628129497720604 -4.77002843378491,2.769561366417744 " fill="none" stroke="black" stroke-width="1" /></svg>