<?xml version="1.0" encoding="utf-8" ?>
<svg baseProfile="full" height="104.49250593717329" version="1.1" width="100.34199977297496" xmlns="http://www.w3.org/2000/svg" xmlns:ev="http://www.w3.org/2001/xml-events" xmlns:xlink="http://www.w3.org/1999/xlink"><defs /><rect fill="white" height="104.49250593717329" width="100.34199977297496" x="0" y="0" /><path d="M25,25 m0.0,0.0 m6.387385829969438,16.825289199885063 l0.6237402393196095,0.10975675399913093 1.358181298602514,0.04551064118635618 l13.18086889502414,-2.0148388155423445 m-7.351389309747058,-12.21856363295272 l0.7861503981728344,1.7423472902872776 0.2064265114888682,1.5108663562242752 l0.009119513662732196,42.03643995399802 -0.34512680496784565,1.3845691204584865 l-0.49587957261230026,0.6178760768581826 -0.6035129478260881,0.01896623424132966 l-1.3327198769801234,-1.114678808095697 -1.5129202139927567,-1.9952905427000303 m-5.870438578194803,-14.205557112980696 l0.7795506349929446,0.6765038009961257 1.0121168994723138,0.23470737386533894 l1.7981782469981713,-0.3796862099000872 11.438815529509078,-7.1557345871836295 m3.951061798863267,-12.50823975837718 l0.9020012762137769,0.4647907991031904 1.4907298439560681,0.07220567117132158 l19.59247786393753,-2.5920624227890614 0.5106040881277586,0.7015655449348782 l0.19342706168301707,1.2978211974211566 -2.1294544254774372,8.030127878872664 m-18.065008227661643,2.054090588168415 l16.809329768987354,-1.9925184423276194 4.425734745056215,-0.08172294824208448 m-21.99340501588376,1.4083752276935793 l0.26682799678490915,1.4744254126984502 -0.15045469227767405,1.0249435399408409 l-2.5804484979035225,6.499171006126165 0.10229519027281594,1.043590118756444 l0.3837598215889196,0.44043221398392923 24.62797339548928,-3.175652248969614 l0.9326134191153435,0.067955664588064 0.4708530162171863,0.2819672477480999 l0.5325346529938845,1.011345145012044 -0.30550528371908975,2.525728333538788 l-1.1185068453211933,4.180563852459943 -1.4974404876560592,3.8319662457268504 l-0.9185121386827159,1.5885783082404414 -0.6147923937503325,0.5942243658885379 l-0.5290597508453693,0.05188489886116002 -0.4676454398812276,-0.38923818780587216 l-0.9855717341492117,-1.7122618596796408 m-13.575223785103372,-36.324356860959156 l0.5237225683043093,1.184434142678441 0.27535616728439294,1.7669869208297135 l0.04227434802767877,15.824331577420162 -0.3679493044821866,6.419553799162918 l-0.946119934902526,5.970563801265821 -1.553751225302164,5.244659478285324 l-2.1532218376758343,4.556515691923471 -2.375358395099954,3.890031852139645 l-2.9049684103560156,3.64724504903868 m16.31190089724185,-49.746797427015395 l1.005202356930364,1.3019031842219941 0.32929101900456503,1.6776809504346213 l-0.16979872536647234,46.57427504052933 " fill="none" stroke="black" stroke-width="1" /></svg>