<?xml version="1.0" encoding="utf-8" ?>
<svg baseProfile="full" height="104.8072385587329" version="1.1" width="91.83481837406873" xmlns="http://www.w3.org/2000/svg" xmlns:ev="http://www.w3.org/2001/xml-events" xmlns:xlink="http://www.w3.org/1999/xlink"><defs /><rect fill="white" height="104.8072385587329" width="91.83481837406873" x="0" y="0" /><path d="M25,25 m0.0,0.0 m20.106624477734336,16.46077117618703 l0.380348698425073,0.3652120595445163 0.5345708518805251,1.4785467474691552 l0.012478102575605917,10.55244606401073 m0.7284117763863003,-6.705163550963473 l9.528320810456863,-1.1811427729832331 2.4626982712372647,-0.03515869434884624 m-26.281290617333152,-0.6290088275753459 l0.7415295339491282,0.6715534988833286 0.3879933569572701,1.0168239657597433 l0.3607523222573919,6.0048151090764 m-8.018351918569653,0.5156262546574345 l1.769801150335713,0.3364870208560744 2.4826895963640543,-0.034400849806181855 l29.694074360054127,-2.3682678152938754 3.4369383297435,-0.09871058262872325 l3.507229271614381,0.28459245668944205 m-20.717867371224163,2.906687791598255 l0.5850418020525943,0.8084387354571515 0.17530206660321723,0.8956892731567021 l-0.08393953641274932,10.824770275597182 -0.274775934099582,0.6085646050678823 l-0.4228289779331072,0.2125573237710406 -0.5461624045957675,-0.05501783920666218 l-1.3445278597051937,-0.7091440725369946 -1.4745132739582085,-1.1224994788166058 m-5.761793031774142,-7.335914898858246 l-0.06260894158707837,0.8003084565117536 -0.3769083131361081,0.5594971382777322 l-2.0479987026090174,2.088594289392259 -3.303386666132485,2.612904657990153 l-3.328590101048351,2.0167238857757077 m29.03749267719031,-9.844878249806174 l2.4243919273734056,0.9201854133102841 2.5089047195217207,1.3196052648823657 l2.0092025226966865,1.435216644696943 0.926241777366506,1.2107144378780768 m-7.782929138266696,-0.06679401347706451 l0.005812746266728041,0.8475582211045903 -0.3299272336443261,0.9559326470920312 l-2.1932582546977644,2.2803161531400256 -3.8783783844322204,2.946913413036244 l-8.500335126297578,4.883612310340435 -4.730788440308991,2.316604586619164 l-5.062341190970307,2.1006313418829623 -4.941507723372774,1.7544389853215296 " fill="none" stroke="black" stroke-width="1" /></svg>