<?xml version="1.0" encoding="utf-8" ?>
<svg baseProfile="full" height="109.5410825129354" version="1.1" width="112.52374366313745" xmlns="http://www.w3.org/2000/svg" xmlns:ev="http://www.w3.org/2001/xml-events" xmlns:xlink="http://www.w3.org/1999/xlink"><defs /><rect fill="white" height="109.5410825129354" width="112.52374366313745" x="0" y="0" /><path d="M25,25 m0.0,0.0 m2.1606902858709205,19.15982366098585 l0.5834812212709056,0.09136870745314826 3.1426331835985737,0.00573415452523161 l13.47330556162402,-1.9585751495620103 2.345874518037755,0.0073908514466714675 m-8.847837166288825,-12.278658136674988 l0.7179197211620748,1.2377801494610923 0.21119096174795898,1.725242088366358 l-0.0002357715552571654,43.030184866690114 m-0.31720985376011873,-32.232997323649265 l-0.6928010440985525,2.931272300322499 -3.4695026286762674,7.131254543827885 l-3.191538371600398,5.098792359217891 -4.319141088518319,5.652378884248123 m14.386898617135358,-14.856377567662236 l2.3801539841010326,2.5783442682677875 2.7016728235337664,3.814120962048583 m13.517718767470205,-25.721173722835164 l0.30928433375921743,1.0797821716182725 -0.3269871839832029,1.0918079872087754 l-2.6636633532911245,5.420591563509005 -3.308605500188704,4.94251265847593 l-3.647489403315852,4.3082607865405205 m14.527620605368835,-0.07929661077139077 l-0.13060164671289393,1.6757193431468616 -0.7799480316364849,1.4889725870168486 l-4.020081201246189,4.926012511979583 -5.396110887710882,4.337237470461595 l-5.769974180428628,3.645782960318098 m10.842632067244777,-5.513173197608115 l0.6323629656377567,0.9053996208140505 0.11057071846931778,0.9763945102864642 l-0.05829946162418522,24.15542364161973 m9.58296823116256,-41.26135972832906 l1.6099538085735883,0.5189961654641834 2.0339379643249007,-0.08836487611384979 l11.767433358918202,-1.9838982869042476 1.3505802570475522,0.2999500517306282 l0.40506352280440117,0.4438560873191402 0.09594550950769841,0.6445207743008259 l-1.8034571178778835,6.635690268802931 -1.8842084401515686,4.861783741696185 l-0.8293843890970477,1.7260784337710104 -0.719096357138886,0.8009681669659274 l-0.7227000773305061,0.19847773978216376 -1.2993299978177535,-0.6583698161839827 l-1.492485235728754,-1.5965165395439447 m-2.1521502140936803,-11.146633708535076 l-0.1899958915845044,1.4638996804780473 -0.9650306135717108,2.04509406308535 l-2.8123839432931454,3.622826605883447 -3.40256552112767,3.25514840359577 l-4.5452735412797285,3.267065831887746 m2.027331960184733,5.54033471051816 l0.5635459483136106,1.7601094057451168 1.4894942732321055,20.41409143642513 m-0.8046362733527013,-19.63654232903327 l16.59309773926683,-1.8864416971513054 1.8686239014205843,0.034674650468998286 l1.035796749208079,0.3490820788578376 0.6186844912215554,2.181384733383168 l-2.3513333854069165,15.641496390420288 m-16.684947973703355,1.1837224800505803 l17.66546613193799,-0.8958305603230915 " fill="none" stroke="black" stroke-width="1" /></svg>