<?xml version="1.0" encoding="utf-8" ?>
<svg baseProfile="full" height="109.36544978598764" version="1.1" width="107.2586496937594" xmlns="http://www.w3.org/2000/svg" xmlns:ev="http://www.w3.org/2001/xml-events" xmlns:xlink="http://www.w3.org/1999/xlink"><defs /><rect fill="white" height="109.36544978598764" width="107.2586496937594" x="0" y="0" /><path d="M25,25 m0.0,0.0 m6.015938931507083,21.690575815115807 l0.6920624369300288,0.10022537141440739 1.4148205492547201,-0.006234916640984594 l14.356233358176388,-1.8930390147473815 m-7.6691998168242685,-12.279088265055446 l0.8623204716626788,1.7272388307464628 0.21230472088947136,1.5007954322497485 l0.011477544147965434,41.89281051216569 -0.38553472858264914,1.3733051098163322 l-0.5387221470907023,0.587910883436813 -0.6450192590917245,-0.014363096723621809 l-1.420648869116267,-1.1643920106179533 -1.5862237126906837,-1.972795376983421 m-6.6729846056096624,-12.453180881419367 l0.3882626905099154,0.4059646181734389 0.9621475341017127,0.34855718172763345 l1.8603256160980624,-0.43661513429460286 12.736576473198884,-9.041825659507918 m8.178535826144888,-21.038810057971403 l0.5508455355350397,0.6305662395183123 0.5686610836486792,2.1294836780089343 l1.6304538947250486,8.682916957190582 m-1.9600490008666316,-10.569344821057372 l11.467148602690314,-1.517310172261709 4.351158856160385,-0.3373767396614039 l0.5395664828118285,0.2744154146938151 0.3339953033603106,0.8082254986524707 l-2.1304075770890787,8.167305913973399 m-12.284337365902164,1.5187717652460715 l13.432177411713843,-1.2384838986390623 m-20.848525147299352,7.228736028333658 l0.4250723730234853,0.5166977299394158 0.45417767631486705,1.6755361335933312 l1.292870935344228,7.737648397221505 m-0.8223032453731256,-9.1363764574343 l8.430952969062668,-1.2336943749941365 1.3953204871851943,0.022524271060474055 l0.36073720069519993,0.8264095403456153 -1.5432253843814316,7.021293072595129 m-7.774917129037793,1.043678320259731 l8.99455873111321,-0.8672888529487639 m4.723876609296791,-9.177897074600601 l0.42519297855000204,0.5336185632610427 0.6581992170896375,2.266079888780237 l1.2067776278389246,6.3538882712483264 m-1.2560164848306732,-8.494082105647431 l10.518802718470305,-1.288852255145569 0.6459423729587551,0.09470301793488363 l0.36861235238674855,0.3626586408127601 0.08389187571089282,0.468940639801074 l-1.6457649027376393,7.010725214015655 m-8.473120169009324,1.0821644260158343 l9.740965681539334,-0.845114352749966 m-29.06944868186493,9.500067216862117 l2.664439946915953,0.19067075976193434 21.46967111576337,-2.1163432307614976 l6.0352137327801,-0.36636230937914366 1.6338798900637042,0.18019811006702988 m-16.764521407067278,-3.5298490870470522 l0.4056468751021582,0.4110557458238551 0.4127588339555598,1.139938192367229 l-0.24677468024482307,21.53763194416986 -0.44553152447669025,1.1370213626909202 l-0.6150711620825157,0.20321522318620505 -0.7063496648586703,-0.38814454660915026 l-1.7224916730782358,-1.9719510992601574 m2.5921762429706123,-17.032803941472093 l-3.1300860170343614,4.428764610208601 -4.375805270149497,4.68493141366543 l-4.255600395535091,3.619060915866209 -4.188459549863411,2.6316894103480246 m17.542859163101735,-15.4781126760862 l14.491685085543345,13.042925679428931 1.5183941821684677,1.082015300662236 l1.378099067335573,0.48324178264587236 " fill="none" stroke="black" stroke-width="1" /></svg>