<?xml version="1.0" encoding="utf-8" ?>
<svg baseProfile="full" height="104.31564835712172" version="1.1" width="103.44456501340531" xmlns="http://www.w3.org/2000/svg" xmlns:ev="http://www.w3.org/2001/xml-events" xmlns:xlink="http://www.w3.org/1999/xlink"><defs /><rect fill="white" height="104.31564835712172" width="103.44456501340531" x="0" y="0" /><path d="M25,25 m0.0,0.0 m6.711762568813461,19.133172015828368 l0.6406609454127745,0.0868996344975714 3.328849058997128,0.001437782328548719 l11.264900990809219,-1.7372391011051236 2.1694008960254916,-0.03566457366988815 m-7.29791487207137,-11.801067688674793 l0.7561801073081712,1.2428740643616432 0.1660202119643444,1.736992332183887 l-0.17287910841146206,43.714557656496396 -0.43007873771589666,1.3928705419890497 l-0.6142224441902983,0.580815692886071 -0.7318217869220662,-0.03307065966868614 l-1.57628622281765,-1.1971319569321737 -1.8031949316125884,-2.0959159342074933 m-6.243929043156161,-12.586148147707895 l0.9647703589003357,0.29943825792392414 1.1431892259004923,-0.4044880513545023 l13.974592390993271,-9.768945528405183 m8.72017018407604,-23.11774213529909 l-0.30975810271714577,4.015096806236244 -1.4719668848441718,4.9493696397087765 l-2.037674296621802,4.380706738967848 -3.2052975897919875,5.1591360759550575 m5.743293247251332,-7.618982674299396 l3.2842894540182854,0.714249349697897 17.423036153725977,-2.7448982008536453 l3.0484732400815826,0.21611961471510546 m-24.578834289950173,3.8610298831683947 l0.579042723847876,1.1867835477359399 0.1738138101868833,1.150850973572594 l-0.036653715111608746,32.978747828511516 m6.172889219991489,-34.371089291044946 l0.5094578895671077,0.4013770766438318 0.39330522540688695,1.1665997029442443 l-0.06416622793230392,28.88161187248291 m-8.223088145165457,-23.140163487092806 l12.605740852760775,-1.4229867502649087 1.3883865915675648,0.04786479070369334 m-10.45526043584044,10.862700952163584 l9.745602277171814,-1.2193141367777882 1.9211784426519067,-0.006926724348939404 m-23.62653425009683,13.751700677224678 l3.2805511554264544,0.33885606900396664 11.468958256594934,-1.392663312113534 l14.136751863023438,-0.9517139903888662 2.5561819360769715,0.4034482591874 " fill="none" stroke="black" stroke-width="1" /></svg>