<?xml version="1.0" encoding="utf-8" ?>
<svg baseProfile="full" height="104.52795723801273" version="1.1" width="102.13430379279036" xmlns="http://www.w3.org/2000/svg" xmlns:ev="http://www.w3.org/2001/xml-events" xmlns:xlink="http://www.w3.org/1999/xlink"><defs /><rect fill="white" height="104.52795723801273" width="102.13430379279036" x="0" y="0" /><path d="M25,25 m0.0,0.0 m1.5783466070820469,19.91618780630092 l0.6508970425888896,0.09869408770045135 1.4196281661833356,0.02663370359661587 l14.604060460698362,-1.9614214379695798 m-7.878137829751664,-12.02080693228518 l0.8658905269291639,1.6354886274371638 0.3008329769684909,2.3131512419906297 l-4.350251327059252e-05,42.527918923436744 -0.395819630609702,1.3790084235541082 l-0.5577770447808863,0.613102794250865 -0.6685101459816337,-0.008527546975328612 l-1.4506653387378854,-1.1856339580420108 -1.6663651692079045,-2.0649177730993005 m-6.243873905170183,-14.354367848838905 l1.6323497061463559,0.7204934313961628 1.4874416989558195,-0.3752068462250487 l13.826030489032993,-9.391242539556975 m15.328286290675507,-23.277968176134262 l-0.035340494118365866,1.461512692661362 -0.7308100975707249,2.0679287386060294 l-3.611260035430937,5.98027198992821 -4.163369596059959,4.8415457819519325 l-5.389073496512747,4.71907358649086 m13.965576622859814,-15.59761404398499 l6.087552299367036,5.407539378067009 8.936733461300834,7.2932994822972415 l2.1006460642083002,1.37878765574358 2.141077666239275,0.6277280335940706 m-25.038556296829515,-3.353272002136039 l2.0071814181546097,0.07911960967153743 9.470296506580839,-1.1151618493816327 l2.434956409116437,0.07730534145737496 m-18.749491979803917,7.398465821413086 l0.5034460662041286,0.7362140264480422 0.5633435528873668,2.196942263417637 l1.244440346068332,8.055349720871996 m-1.1462804704203367,-10.017965633496596 l23.302941414446707,-1.716969749757288 0.6303179736206173,0.4993282327907167 l0.21053189857278545,0.5730810230428669 -2.274786267309813,8.5455329895363 m-20.506463821568133,-8.058205093803522 l0.595930566008806,0.003907591257836232 0.4195567977282518,-0.009816797895044171 l1.4978081547687023,5.957825930746119 m-0.7020493600487961,-6.356429982196056 l10.42754779688444,-0.8848443703965904 0.641443338246274,0.09702866687660462 l0.34104152810377947,0.3815629144844876 0.0633048216553258,0.48816683793249827 l-1.4143709421249464,5.2887285793140055 m-8.10995974681444,0.9541727700926024 l9.13523444430865,-0.8838675248863537 m-15.231383350034907,5.18934870661073 l0.6008684297988409,1.1390205764861767 0.18749730547309115,15.954225495908899 m0.12080205221258067,-16.255255080229503 l17.606054851216484,-1.6727771633843913 1.2494870566793166,0.2632805716169271 l0.43006759344018375,0.8234650704923587 -0.3067381367184156,14.822569492257491 l-0.2859511674490317,0.9701817711923035 -0.5070205144698703,0.3131963540351383 l-0.6277530243269323,-0.24653559724586321 -1.849012496777281,-2.108881736386415 m-14.948259623537288,-9.821126277278761 l18.22906880858549,-1.4609247648202843 m-18.524786474745103,7.063886017932185 l17.935188174349488,-1.298135348432571 " fill="none" stroke="black" stroke-width="1" /></svg>