<?xml version="1.0" encoding="utf-8" ?>
<svg baseProfile="full" height="105.96454671111175" version="1.1" width="102.69844620406114" xmlns="http://www.w3.org/2000/svg" xmlns:ev="http://www.w3.org/2001/xml-events" xmlns:xlink="http://www.w3.org/1999/xlink"><defs /><rect fill="white" height="105.96454671111175" width="102.69844620406114" x="0" y="0" /><path d="M25,25 m0.0,0.0 m8.58985212275876,19.387711948678696 l0.5579815036008459,0.08141207688580727 2.845324856698607,0.007878774634350895 l10.483802853892096,-1.9016288532201615 m-6.162293411790764,-13.318918252799465 l0.5894840487318677,1.0483039749775678 0.21235519423548865,2.039846281241479 l-0.1678200410657083,46.52921248077409 -0.347758773780133,1.4818718465812055 l-0.5263753642007762,0.6088564333581862 -0.6209325038047062,-0.09551347274548895 l-1.290497481518259,-1.354520446939349 -1.4661479831025614,-2.2351466837216996 m-5.013708541847388,-14.438912514128589 l1.236664029307875,0.3425376142615376 1.1048283187541486,-0.6330517670845043 l10.676554578341909,-9.894956025080774 m12.479769235364264,-23.283044826992633 l-0.1537946576007705,1.676194221295302 -2.213931812783599,3.3475754348084155 l-2.60975534895018,3.3090483629208625 -2.9185005117441123,2.926449029626014 m7.872265961528706,-11.958559626328205 l8.30412947035112,-1.6565404051992312 0.6638144870935523,0.4176279252600862 l0.15919534661804127,0.6232055051372535 -0.2063000232757404,1.455566665502085 l-5.955448240054159,9.559798914596602 m-8.908176964010819,1.5450322998571357 l0.5902525408913674,1.9142813062021873 1.5428091670706603,14.706973366078886 m-1.2249735324084936,-15.516429239943179 l16.063727519438327,-2.988508558533459 1.7488360689157467,-0.20579560677772404 l1.204207519963402,0.5005881474014131 0.488999867032515,1.0489764753050719 l0.03448945294862318,1.3953172324208714 -0.9002974369161546,7.01358550035304 l-1.2550674287539012,7.0889170255496365 m-8.909989393462538,-14.236575368001807 l0.474898532426052,0.9661779935371546 0.16189414878857544,1.3221850099654164 l-0.03896877725300019,10.769457055798334 m-8.137321421254933,-5.790862148439147 l17.529046214768794,-2.604376400122508 m-16.865232080647992,10.316895573481824 l15.222409957716067,-2.154160374695083 m-18.926271515218037,9.20488458210842 l0.8525219527939201,2.030773736936536 0.8272815201222918,12.303116921403175 m-0.9389634850065871,-13.035891832800559 l16.744873706907693,-2.7936547007386374 2.584166267263194,-0.07885121555887818 l0.8405736266760596,0.7890524658982884 0.1711620138086595,1.447624148532951 l-1.60903087792659,10.206844242740411 m-12.934424324307633,-9.177556964790375 l0.3145815167505929,1.9307686998435387 0.4830796328563443,8.031157202684659 m6.104084170996254,-11.073711087292066 l0.3168673201675132,1.2111804705367306 -0.7109521284731143,8.948445942574567 m-19.303964113465472,2.193348101067315 l3.191232189072573,0.3605136527501668 12.914279190116249,-1.429368090048363 l9.0774979682546,-0.737709677729099 5.368090940160974,-0.0989814876274854 l2.387459365500942,0.3457722734627063 " fill="none" stroke="black" stroke-width="1" /></svg>