<?xml version="1.0" encoding="utf-8" ?>
<svg baseProfile="full" height="105.99190500643891" version="1.1" width="103.93477258717172" xmlns="http://www.w3.org/2000/svg" xmlns:ev="http://www.w3.org/2001/xml-events" xmlns:xlink="http://www.w3.org/1999/xlink"><defs /><rect fill="white" height="105.99190500643891" width="103.93477258717172" x="0" y="0" /><path d="M25,25 m0.0,0.0 m6.231897230591399,21.366651977390106 l0.6475073812379393,0.11172560097199602 1.7752916970621053,0.026206010290330095 l13.624027065443666,-2.0268426888106115 m-6.8235592665209674,-12.98192682971175 l0.8414045316566471,1.6982866963070593 0.24573284431295586,2.4481049887564854 l-0.024798036933399315,39.428163332948316 -0.34302809080934227,1.3716926065744568 l-0.5273476147746764,0.6052230499181772 -0.6422013226142355,-0.0055801299634841055 l-1.4103097955445159,-1.119656513541649 -1.568184667642797,-1.9577164650271974 m-7.217269340951389,-12.169117688918169 l0.37159135886096273,0.5522152834626443 0.9634724801573524,0.4089175705205079 l1.8678182275255846,-0.4911598422924086 12.614278701434575,-9.521741011914141 m5.260651523964138,-21.41188409824409 l2.3615101345933778,0.23435602233470973 15.653550618893654,-2.116941941184708 l3.3324077624873336,-0.13557022429372548 1.7718655811509643,0.2663451712888888 m-21.760361878170194,2.500882128566415 l0.5443874993658117,0.8445178300166643 0.200651837267227,1.01009911568872 l-0.11339910634069128,16.835000965224125 m13.272772096301356,-13.861692299386924 l0.5855561208075113,0.1675810250024206 0.4054133186516204,1.1533551130557906 l-0.36408800246908024,10.56247750356616 m-13.319299606256042,1.683733888059944 l14.858542798310138,-1.3308376405216218 2.1347621461286783,0.03753065611390256 m-21.126175333078717,8.476243571060612 l0.5254202264067919,0.6394061461964576 0.6659463929434032,1.3340265093310562 l1.7107970020692633,8.98455114835429 m-1.4332882933201796,-9.996427762614482 l17.378133501539068,-2.016364877571529 3.231480592359596,-0.23742051609521342 l0.5181063341410008,0.25658402054936663 0.3686737336903778,1.0666735735853818 l-1.8280311060554515,8.121972537177529 m-18.68506752882651,1.9430627428511866 l19.84600029215357,-1.7679317135045902 m-11.640940404014192,-14.780699435932744 l0.5744236018243472,0.8484205898129568 0.2330459335819738,1.010093458140016 l0.031105369675966128,25.662031662548525 m-19.47951379811974,1.7648244847272883 l2.2538900596867957,0.500459705575475 12.281477740157051,-1.1646272383519292 l20.464767622113467,-1.2247627769034715 2.5932744210661633,0.3352264569372116 " fill="none" stroke="black" stroke-width="1" /></svg>