<?xml version="1.0" encoding="utf-8" ?>
<svg baseProfile="full" height="113.23725788106532" version="1.1" width="107.98867201028942" xmlns="http://www.w3.org/2000/svg" xmlns:ev="http://www.w3.org/2001/xml-events" xmlns:xlink="http://www.w3.org/1999/xlink"><defs /><rect fill="white" height="113.23725788106532" width="107.98867201028942" x="0" y="0" /><path d="M25,25 m0.0,0.0 m8.332112406874334,18.16539756241925 l0.5736277762616876,0.1024563559304123 2.6976412503358715,0.031657761408287945 l11.98085314188082,-2.1075465517381167 2.0214682558163872,-0.0870183056940239 m-7.9383129947945275,-13.458678470761926 l0.7549529928789441,1.4221165608643997 0.25633692858402096,2.0562753775502687 l-0.12188336315988835,47.887722775427925 -0.40327530961784114,1.5995510230301815 l-0.5735577886854307,0.7054557822140174 -0.7126920145212596,0.01932254721325219 l-1.5239995234946204,-1.2522813076073636 -1.7757010883278772,-2.2994233784912645 m-6.724983262031447,-15.168471678236676 l1.029492532706978,0.29257198169561194 1.230817880547099,-0.3822221248613994 l14.039718033229988,-9.968348415958127 m16.644879877761582,-24.579869762921536 l0.5397870108108163,1.1670663936919095 0.158518775488802,1.18183597875082 l0.044482196024164304,6.17795272739397 m-12.749564059657605,1.9154870357344715 l3.1388252423261913,0.18604744450037417 18.338341215975777,-2.3085676185681363 l3.177368844666936,-0.21866886205461894 2.293020638779528,0.15377570279206865 m-22.775185408912918,6.990313319787149 l2.5649665476380665,3.33693859653472 1.1840924519098202,3.5398411611358025 m11.573195351091098,-10.537126814266987 l0.24128171507085155,1.3096525207958514 -0.11074635885546791,1.6613686718464338 l-3.187419556278974,7.727417811028531 m-19.131531456597788,2.879542720278019 l3.0113010911277214,0.27638362408452 13.641884378796952,-1.5512476127799242 l11.833108745214954,-1.0062791939905535 4.415448913425662,-0.16638520281350283 m-19.553928226799627,3.758836355179323 l0.01131738440161909,1.9423085817846935 -1.7827714461423085,5.235379621835442 l-2.7589143243302625,6.107242933134676 -2.6318553118384105,4.700052624928837 l-0.19270691462997058,1.3478050419540948 2.399629217821861,0.3492063888253981 l3.043745034944393,0.5295261293820589 4.615133912560054,4.088800329511528 l4.54947780494368,4.627795900502701 4.44552416899012,4.856287838662476 m-4.8614120630240265,-26.37603623556127 l-0.03777919365782567,2.439098094741683 -1.4697118161651783,4.299032789751716 l-1.9331586844924735,3.8902470769008306 -2.6196944079715876,3.8407870160296267 l-2.7500550223779285,3.018123699740384 -3.4325695881279925,2.8820704485358104 l-4.216356379289856,2.6122531683528254 -3.7024380961598755,1.7362898636731305 m-3.667433761581953,-20.510283104987565 l2.914574077671023,0.3269167112343839 12.934198969303969,-1.4707678867610832 l15.585662753205254,-0.8427173750386209 2.3573639580751675,0.4474116728463644 " fill="none" stroke="black" stroke-width="1" /></svg>