<?xml version="1.0" encoding="utf-8" ?>
<svg baseProfile="full" height="108.41590449966765" version="1.1" width="105.02131436281788" xmlns="http://www.w3.org/2000/svg" xmlns:ev="http://www.w3.org/2001/xml-events" xmlns:xlink="http://www.w3.org/1999/xlink"><defs /><rect fill="white" height="108.41590449966765" width="105.02131436281788" x="0" y="0" /><path d="M25,25 m0.0,0.0 m8.723089793348805,22.723444461981355 l0.6073784346564017,0.08862487726661611 3.163397484021493,0.021719709954603556 l13.114689479154006,-1.996171147054403 2.208575344382361,-0.07948139814968395 m-8.453586798154163,-12.977404884982075 l0.8329909067969106,1.3574759221690096 0.22432563740631242,1.9292709228329499 l-0.14716627195542256,45.32046848703257 -0.40564615290335976,1.4418872024399811 l-0.6067027646394352,0.5860703461767168 -0.7336490841097383,-0.0449085143893556 l-1.6021977784124548,-1.2479226511731976 -1.8252026569981938,-2.1394464279259853 m-7.128427116674923,-13.452348998941002 l1.7003664405910537,0.23918602734044353 1.1732608620736091,-0.5787098499153847 l14.311452979781599,-10.658917941830088 m18.57593805853399,-20.696655245273945 l-0.1952624951632496,1.008097194887863 -0.533681227637537,0.705139002857716 l-7.7348331850942085,2.8092313990510553 -6.924809906639827,2.083977066773358 m-1.6585867098835287,4.6922101949616115 l2.3988299350462543,3.251966180997311 1.589196047263335,3.6984206642750395 m5.335908306584532,-9.602292413433684 l2.223025410869575,3.215774855777198 1.4282641807982315,3.458010892194334 m12.479301790440488,-9.81598560899445 l-0.31005893829438885,1.61826005165189 -1.5719306418437045,2.6649783422573257 l-2.1312814750887834,2.9668536826573937 -2.6108354979744384,2.8848211954123304 m-18.268587476676814,7.001735851031929 l1.6552907467146099,0.2828052550307694 2.283206389974958,-0.04903581629145162 l16.43851678177917,-2.318806589775537 2.2961979183321843,-0.034994056101983556 m-27.21811365171237,10.755048185656248 l1.273907247291373,0.2885839805942003 1.8610522063488428,-0.0034230956017747708 l27.049412216666603,-2.8134080734302738 2.1342995938177207,0.28460273519563156 m-17.82557057620077,-4.88611867151253 l0.5478004456100934,1.0134393023340311 0.12311679792349654,1.157856289370296 l-0.005281651177132649,19.364404609444264 m-11.39176921672223,-7.420895247865782 l0.3107726041290034,1.2900401765120222 -1.1657199913654814,7.016310630996416 l0.12040109924528018,0.5913201031510673 0.45883307214838337,0.2525414955446716 l11.999149159847015,-1.9101510733094056 10.574667411943956,-0.9977455969303404 m0.15142273197769743,-7.897492689008275 l0.530347353755391,0.7779861584695725 0.1909856141526839,1.1597741776146187 l-0.43693272455635424,9.758403058857452 " fill="none" stroke="black" stroke-width="1" /></svg>