<?xml version="1.0" encoding="utf-8" ?>
<svg baseProfile="full" height="109.40450758891929" version="1.1" width="113.33894597150217" xmlns="http://www.w3.org/2000/svg" xmlns:ev="http://www.w3.org/2001/xml-events" xmlns:xlink="http://www.w3.org/1999/xlink"><defs /><rect fill="white" height="109.40450758891929" width="113.33894597150217" x="0" y="0" /><path d="M25,25 m0.0,0.0 m7.25013040086461,22.65895043539037 l0.6199084520310925,0.09517943780501327 2.7893045480478675,-0.022976857622672958 l12.942914115038217,-2.0414496412027394 2.0106885511650066,-0.06714820849739464 m-8.39741499692888,-12.332319763924518 l0.8108235694734639,1.3274378112513774 0.2324691892534381,1.8200190059138122 l-0.01786930056248114,45.03156002101495 m-0.475439651017416,-34.064118565637976 l-0.6900817822185701,3.031949095313467 -3.444902179213166,7.87204878319567 l-2.9993485761465224,5.4018141912922335 -3.869241367621912,5.592128676185159 m13.400922924022517,-16.7359396109734 l2.4986460714869554,2.357227298557422 2.6637564090115804,3.5923913166173618 m5.037696093546453,-19.94692929295499 l2.9891135077079545,0.10813253163805849 17.683653060547034,-1.8563579455427788 l3.3438363293102524,-0.2223543883499754 1.9068868250214024,0.17417080227441686 m-20.298123347528477,-5.405361239422053 l0.6873134492827644,1.1466067587849307 0.30930279023192286,1.1660302658802626 l0.8728718543717753,17.634965035223946 m10.20066848328547,-22.634106605330935 l0.6210566594904038,0.9746789885663721 0.16720046746082606,1.9784113783398227 l-2.40164579192026,18.296704740923097 m-17.09113233279922,-4.708494810403772 l3.059296586143143,0.12245641135241928 19.75442730413777,-2.0798953090736516 l3.4237528999062006,-0.16027063141865838 m-28.756923696887178,8.673515928216986 l3.7710557277852463,0.2731597896299869 25.102527209377858,-2.151734029496043 l3.7934113392322275,-0.15137385288171012 2.604781666679448,0.25344173331682057 m-30.247464457640795,7.266427524433709 l0.6392963060030106,1.058596818950971 0.20027301144680773,1.2472455520316843 l0.059998572999150054,24.830088009552238 m0.5846710671824176,-25.6163155438784 l19.95523341132417,-2.5220509673810554 0.9230722501037425,0.053573874316313344 l1.0516693986729408,0.705525257353813 0.36538820679630035,1.3156745842202349 l-0.20702195239476825,25.103336192293256 -0.4382038986428728,0.5403667768773435 l-0.6253758612107596,0.016573300623841335 -3.011237178808715,-2.2365131605909796 m-8.527325326204252,-29.45842388288686 l0.4874816780001742,0.8116955034014035 0.1751968672048038,1.0661856191808723 l0.06561425427990854,16.12865036795355 m-9.95855091988027,-5.25658760947946 l21.261670470663145,-2.0324661780722733 m-29.786725098652486,9.28875970254116 l4.398359014018098,0.1467082890328745 27.578392270826654,-2.6045670443428803 l4.105989547195365,-0.14703110742416847 2.182250877151596,0.19661701753891622 " fill="none" stroke="black" stroke-width="1" /></svg>