<?xml version="1.0" encoding="utf-8" ?>
<svg baseProfile="full" height="112.60735859317857" version="1.1" width="103.65731961345185" xmlns="http://www.w3.org/2000/svg" xmlns:ev="http://www.w3.org/2001/xml-events" xmlns:xlink="http://www.w3.org/1999/xlink"><defs /><rect fill="white" height="112.60735859317857" width="103.65731961345185" x="0" y="0" /><path d="M25,25 m0.0,0.0 m7.638231535244889,22.776316063251198 l0.5286914056483515,0.09236144977810477 2.819964641349261,0.0028939840044969727 l12.419649911900596,-2.0621378786658853 m-6.82823724225,-12.757855109771958 l0.6251111895603162,1.264395212389934 0.21407529132384182,1.93212836666603 l-0.18855918832587196,45.01079690723666 -0.3900711237254856,1.4597037684685588 l-0.5555468834777016,0.5846797492429806 -0.6677230247040079,-0.09506924550944328 l-1.4211256783696649,-1.328367278487856 -1.635306457514698,-2.1936046293646916 m-6.077330334429221,-13.18252731109603 l1.4701623282866507,0.32884827123946697 1.0136146440841802,-0.7434936705897225 l12.050215077785596,-11.297992759373995 m14.8386256574046,-22.912005497420704 l0.46083049265571363,1.118666758483213 0.13051700689950232,1.2937748507312241 l-0.009479782713256621,28.426456862138693 -0.186284137087607,1.771508230730048 l-0.42061936049297755,0.7084896724900422 -0.6072999587507111,0.04966949921749905 l-1.4013111164503662,-0.9537496909023393 -1.5227056440812297,-1.4884616372284944 m-1.796383123541509,-15.449849478263928 l-0.12301596491347024,1.1185369079374539 -0.37832180052483,1.0191901724174641 l-3.3055219842115604,5.943490640124218 -3.2729986838592486,4.553373485674177 l-2.8894513010019307,3.1812665951464267 m22.33590575859572,-16.318291265737862 l3.453363548063435,1.701476192183376 3.3752039958839757,2.23728180855256 l2.6852798699501554,2.35554314247261 1.2751700492403901,1.7917007068216178 m-7.154214936942831,0.24315255478300385 l-0.11769362276242662,1.6566846398342372 -0.33617359531266117,1.312998304503663 l-2.284172395510847,5.235586635692495 -3.251222013529061,5.435191728228999 l-3.2068628366936758,4.409456407197279 -3.6469093250686293,4.31250292092342 l-4.009722776541334,3.935844097373125 -4.305664714457729,3.387362160599382 l-4.548485997431603,2.739435299057854 " fill="none" stroke="black" stroke-width="1" /></svg>