<?xml version="1.0" encoding="utf-8" ?>
<svg baseProfile="full" height="130.4469747876299" version="1.1" width="115.12818605208794" xmlns="http://www.w3.org/2000/svg" xmlns:ev="http://www.w3.org/2001/xml-events" xmlns:xlink="http://www.w3.org/1999/xlink"><defs /><rect fill="white" height="130.4469747876299" width="115.12818605208794" x="0" y="0" /><path d="M25,25 m0.0,0.0 m7.35468106646579,20.60256451311952 l0.5761429529152906,0.09214290506549278 2.967136923916326,0.010477796848188297 l12.452670086818175,-2.24073107819009 1.9576749327297849,-0.09161988326250678 m-7.960178551899057,-12.295617736977643 l0.7574085582890957,1.30412298980659 0.24304352248439043,1.9973421782843903 l-0.153323292373048,45.382782256675576 -0.39711303631624173,1.54545540570637 l-0.5839519137513507,0.6764079102574281 -0.7149668343435314,0.015872839086442728 l-1.5462898919286665,-1.1928251214540082 -1.7493166414616013,-2.1219955869513694 m-7.609550523641288,-14.928024480334905 l0.9857811975705452,0.6441159265531473 1.1153462236225442,0.06147001799095513 l15.276502407650778,-0.5960213901243518 m5.3605005852349015,-27.611089470240294 l0.7102993184899545,1.0758403792888738 0.39543932052558156,1.3646341678161271 l2.149886278622881,9.517669617309592 m-2.0117406992566624,-10.89707001551902 l19.485849449030702,-1.7099663835163743 1.9598610064116408,-0.21210314964001542 l1.5573860245820605,0.18052339540171777 0.8533578319122592,0.7263608246024857 l0.1216318946528364,1.3371705896281323 -2.4113706734249174,8.557038477745916 m-19.102385653204962,-4.575118066657973 l11.214470899676195,-1.3551269707153857 7.945871560286789,-0.5262582066648518 m-18.251791934663917,6.493870402275146 l17.755887291541743,-1.3879159474091924 m-26.41042402153864,7.288209090765228 l3.201514746748875,0.10465091320996107 24.930839736220605,-2.098303199976531 l4.513160640583292,-0.1856486072670431 2.7390070627522083,0.16218696615136993 m-30.576156370433836,3.1651364041495924 l0.6695374931528173,1.0615535110697083 0.10071201171905007,1.0300495054902428 l-0.041968714719134714,16.813185798028485 m0.6985906584575938,-13.658396506600225 l9.014062923009277,-1.0144921244069987 m-9.02872794271609,6.874999764055012 l9.033881778127896,-0.9485130224634356 m-15.528803655420967,9.945550348805869 l0.8544039187168486,0.32673484316392565 1.3747444257663126,-0.11494857538246515 l13.743364034025955,-5.275134291662901 m-0.34719793119790243,-16.602346193676137 l0.5306780187685156,0.8750252337425763 0.173705586811198,0.9882345922113817 l0.017616208414128375,25.82867482985514 m5.765650214001465,-23.376256733061666 l2.3207270389080437,0.09102388881446731 9.949855172436633,-1.5310334833721975 l1.1677328321982645,0.08175636868619089 0.5605183843204,0.30752395516555686 l0.27854184396841425,1.230307259608836 -2.81531376218458,13.744760396166026 l-3.007092207820341,6.006570848722157 -1.6190069910845717,4.41061994388262 l-1.8528736646598116,7.271531054843366 2.570434261597858,5.7512838905345465 l1.6455432254583884,6.749133058068931 1.1094457484255904,3.522606347482 l1.181353380650474,1.188846241001315 1.7298995667248902,0.5733445456434542 l2.082272426195534,0.0141688203774309 1.6959596941741024,-0.32647574774095317 l1.6332152537619489,-1.5566865027515477 0.2896461876599456,-1.2566306571999697 l0.0742871529422586,-2.6810847632411283 m-8.212470136659423,-32.917367350695464 l2.286592264743585,1.0416115856627155 2.08180237607726,1.685055415677525 l1.612744803878731,1.761272449669055 0.6511263411103215,1.1030796405685286 " fill="none" stroke="black" stroke-width="1" /></svg>