<?xml version="1.0" encoding="utf-8" ?>
<svg baseProfile="full" height="111.93861715063105" version="1.1" width="101.8079000307031" xmlns="http://www.w3.org/2000/svg" xmlns:ev="http://www.w3.org/2001/xml-events" xmlns:xlink="http://www.w3.org/1999/xlink"><defs /><rect fill="white" height="111.93861715063105" width="101.8079000307031" x="0" y="0" /><path d="M25,25 m0.0,0.0 m8.212472051801884,20.438020679528467 l0.6272420082027426,0.10574195226065751 1.2757999853706794,0.007563937178114841 l13.797756480582892,-2.3085174787236307 m-7.164782987561474,-11.93003838203083 l0.8057663794517312,1.6980305924372896 0.19577605547249874,1.5132893900800866 l0.006511503022045615,40.53315199946207 -0.363130737021674,1.3661692723877013 l-0.5147006635699961,0.5971347944242918 -0.613663901694905,-0.014836851585634282 l-1.3396822527903018,-1.1468525494803141 -1.4988800082996947,-1.9753827978999863 m-7.167255943445541,-12.484515370300574 l0.33866999201322845,0.33888521634912616 0.9449846878633406,0.32278432597816636 l1.7734259216649622,-0.4427356914683821 13.03550301873417,-9.345885973481122 m11.555177754887524,-20.54034399419648 l0.7019363486293834,2.266980554977359 0.11109064164749927,16.853547278231886 l-0.14638493472937775,0.9999021429717023 -0.30868412616400814,-0.101024520457005 l-1.4567899601105585,-1.9346682252442233 m-3.1827269781690153,-9.7525119908313 l-0.23327219883591005,1.408623866750677 -1.5589271805401335,2.5762750753096175 l-2.2788595683295942,2.662161045575664 -2.2235910756827817,1.9781353419602257 m18.998236714579523,-8.885210233971604 l2.050808006393793,1.343484339209099 2.2658578383873684,2.0351630142575217 l1.7127427712139212,2.0590221335260397 0.8173012576546148,1.6852782068249856 m-7.047641675359606,-0.6365318406753918 l-0.22546505299908828,1.1033044882603746 -0.3687210348965292,0.9776024989614914 l-1.6697329320901235,2.986990822050901 -2.488435594767149,3.447785078395092 l-3.2683037558567,6.271084270224769 -2.6946239202828757,4.544660743447044 l-2.7085250348791057,3.799492248204224 -2.91028077936885,3.2858521968315704 l-3.2601046125038415,2.9564165401979894 m5.331476643328471,-11.774884608795642 l1.105303820233784,0.3386943983132242 1.579205231112865,-0.040875358160804294 l14.158004459604498,-2.442050352051332 0.9758101859033913,-0.07393570765783015 l0.9349535685353438,0.24602661788794647 m-20.672431149592104,12.39957391514027 l0.7105046175593994,0.24338631488759632 1.4373547122985308,0.03203503677020551 l19.5609694167638,-2.5391505281825912 2.6785021931410338,-0.15417644407440928 l1.474353824189112,0.2599318939999762 m-14.059340581472226,-6.848816644781575 l0.5856313199399366,1.682462821770086 0.044600851144674276,15.522481478747665 l0.004868651113739578,2.7321349308937037 -0.5105272888925453,1.4813640943856754 l-0.5734973051596429,0.2109371456311645 -0.6366488040453053,-0.32802475957464833 l-1.6512352733407298,-1.8404595426826122 m-5.888213782357839,-8.8159608565413 l2.1651226565479424,2.1739476032485263 1.1942287558154414,2.2862242340432295 " fill="none" stroke="black" stroke-width="1" /></svg>