<?xml version="1.0" encoding="utf-8" ?>
<svg baseProfile="full" height="111.00551413705388" version="1.1" width="112.07940127343329" xmlns="http://www.w3.org/2000/svg" xmlns:ev="http://www.w3.org/2001/xml-events" xmlns:xlink="http://www.w3.org/1999/xlink"><defs /><rect fill="white" height="111.00551413705388" width="112.07940127343329" x="0" y="0" /><path d="M25,25 m0.0,0.0 m8.872954516766358,20.294932475251628 l0.6064104944830482,0.08851824695965808 3.189276773203823,0.020642498124474037 l12.126911112065219,-2.038167867782002 2.1364825946958588,-0.07761097981460675 m-7.92085736658416,-12.587124159974909 l0.7895215359071833,1.3334420425261062 0.2062515301093538,1.8910984912970075 l-0.14699669250590067,44.744840339617674 -0.41987830226196704,1.5024251009435146 l-0.600113659309029,0.647526934651087 -0.7213801860671606,0.017018832021566177 l-1.5325468274993452,-1.1597748413334314 -1.7687890260562427,-2.162344868956993 m-6.812639350442709,-13.120364631657697 l0.968305109611474,0.3603181310881845 1.192129861537989,-0.3739565467937216 l14.302525066795857,-10.217925469839265 m7.355874394003035,-23.783553605472243 l1.3785070783159619,0.24415320103976074 1.874986177750151,-0.15815159758445962 l14.753755177549671,-2.432088830894771 1.4212336493670703,0.9101802015685138 l0.12828195484224178,0.7168164758847315 -1.698577639627057,7.44121050319468 l-1.6035400914883509,4.258409028497104 -1.203905974626009,2.2233794273438945 l-0.7022220781593219,1.702109390125636 -0.6974138376705574,1.903799872059737 l-0.667252927417646,2.0341622107602615 -0.6206016579275544,2.5450141127958203 l-0.5543082559541692,3.142055320513352 -0.4627835375055808,3.5690186073107175 l-0.1655859867332162,4.011911454760732 0.3571796026435935,4.546543017786779 l0.8414848918694813,4.0865088955764035 1.1366939205876962,3.95674231788074 l1.633266938182456,3.5939117767111197 1.9938595385832565,3.2346465460360694 l3.1895826904399693,2.8416769066779106 3.753479002872893,1.2535651781531236 l1.5260225594824817,-0.6572227034739209 0.6511790829784949,-1.816006384273784 l0.11514477185151206,-2.7969634810517494 m-27.43403449462517,-24.36325322042146 l1.9039593820816063,1.5353789908206243 1.8189075738859857,2.024905747822173 l1.4591823667331045,2.0632988455199506 0.852820694599813,1.7989715363937775 m-6.870873717124859,13.062046942671481 l1.040748740790393,0.2075221002991376 1.0800174596447274,-0.26869238571647663 l8.000704561546858,-6.379471205071805 m22.02606207724067,-16.45339587620257 l-0.16981957239394668,0.4932095445851681 -0.49432092407329775,0.980635183311291 l-2.0105095227681726,2.6248343292003105 -2.4234938870814733,2.1772902604026623 l-2.977538454850358,1.9392611896249037 m-0.5090648752960463,5.660384993312921 l2.3820310841832297,2.1245489366700507 2.260646285433947,3.0082964035145534 l1.906662787601869,3.1122725469343058 0.8740921430405124,2.173690454731904 " fill="none" stroke="black" stroke-width="1" /></svg>