<?xml version="1.0" encoding="utf-8" ?>
<svg baseProfile="full" height="106.83872691814709" version="1.1" width="114.81167656918359" xmlns="http://www.w3.org/2000/svg" xmlns:ev="http://www.w3.org/2001/xml-events" xmlns:xlink="http://www.w3.org/1999/xlink"><defs /><rect fill="white" height="106.83872691814709" width="114.81167656918359" x="0" y="0" /><path d="M25,25 m0.0,0.0 m18.071299772635196,19.885443597868573 l0.31504108455981467,0.10818423060857539 1.640090294224117,0.05581443499285745 l11.114870004837169,-2.036747870468322 1.3883138760589324,-0.036413252584369976 m-6.946859807044606,-13.153007254151696 l0.7474879764199238,1.3279500673744988 0.235414813056268,1.5028223911779814 l-0.14770708299271673,45.435949084082665 -0.16856784407707118,2.3789704246280285 l-0.37426612781102075,1.1432327265271094 -0.5395640710998748,0.2265283380911869 l-0.6110742770566949,-0.4018452667156371 -1.5347244644123048,-2.1388842774219077 m3.005768528432121,-33.226246374420185 l-1.9643733308871107,6.748086859054189 -2.179795612278429,6.304946966651803 l-2.196773816075074,5.227422459777225 -2.3644137081274033,4.4651797461774505 m10.459468785605607,-17.58248719330706 l1.9323747650793688,2.7956402959147173 2.289891326722104,4.354391582331069 m10.488319397617271,-30.409839085442094 l0.032337880248375535,1.6894619357466747 -0.3480953455010081,1.9914725021259705 l-1.862612518652709,5.522071816087997 -2.4264623764976165,5.19344178223689 l-2.931635555930837,4.6319088116456175 m6.527227808225816,-10.844409852533069 l1.0434288808188859,0.3194129575397545 6.057715138985605,-0.0928500037617977 l10.177522811093153,-0.94555552347661 1.9487177517470522,0.21826318850660403 m-20.479336924916655,9.568774861630454 l0.8442743556026885,0.8387351677970639 1.5824792830433878,1.4782078647239079 l13.194175463010765,2.4728011228542526 m-19.738618313102208,6.68638612886642 l3.611348999753364,0.2253838993246474 10.34247729957785,-1.7541642378929097 l8.642157568099401,-0.9320887217951701 2.073138905128558,-0.027525799239913402 l1.7228172174561154,0.2895133684186089 m-14.681123700121251,-6.929699912230093 l0.4742416368714412,1.6648378802464072 0.029303972625565212,5.721379833560821 l-0.4057952434232102,4.644765523620544 -0.9989412258797298,4.472167947450019 l-1.4182883632048122,3.622423313080567 -1.932774325310075,3.1977533819477046 l-2.3774063285850975,2.6877382487287087 -2.6938798643041837,2.216436102520465 l-4.131665657537147,2.359024661585162 m14.617261599688543,-19.113436634598063 l4.250967568464067,5.63242440959679 4.884475403159693,5.543669056081313 l3.867389262150987,3.805079275505315 1.6954925913483545,1.175692294658734 l0.9591404316648796,0.36243468363962544 " fill="none" stroke="black" stroke-width="1" /></svg>