<?xml version="1.0" encoding="utf-8" ?>
<svg baseProfile="full" height="103.61719573847788" version="1.1" width="111.40647123733113" xmlns="http://www.w3.org/2000/svg" xmlns:ev="http://www.w3.org/2001/xml-events" xmlns:xlink="http://www.w3.org/1999/xlink"><defs /><rect fill="white" height="103.61719573847788" width="111.40647123733113" x="0" y="0" /><path d="M25,25 m0.0,0.0 m19.59338423082052,19.506052398364105 l0.30078276074137233,0.11199617129415265 1.7887034891029132,0.036938575938976384 l10.758434977149856,-1.901067069310773 1.3149606884328169,-0.050069441242022415 m-6.807139104411675,-11.910709048025755 l0.7431442274221302,1.161339458222725 0.23293546499677592,1.4032695326283156 l-0.14279057931318212,41.93912431495907 -0.16858206854264746,2.0872228510481525 l-0.36954323708616327,1.031357685403853 -0.5223926388273317,0.2017403091970769 l-0.598829436269005,-0.36023457151842775 -1.5876309145926089,-2.0515054631245686 m2.99286030088791,-31.107245673052923 l-1.8660463089663462,6.290474788614755 -2.010520643503458,4.750152153825246 l-2.2720903705823914,4.314022468632343 -2.8209203365510107,4.388503031084838 m10.956653059445795,-15.077306252619493 l2.0762528684142025,2.4879395822251906 2.4093275671356293,3.7823634759424207 m11.229330264577383,-27.44096858529597 l0.0093466933743019,1.4066740960131667 -0.5950852060580917,1.8027313541615457 l-1.4460351607039925,3.0413241778625175 -1.7863358576722843,2.961631260312666 l-3.3732649136437267,4.562367628659505 -4.417590492951311,4.190898710185671 m11.53751666693957,-16.37085520350592 l5.004708659664568,5.153153173835784 7.7129265043148685,7.290008283416734 l1.736713038370729,1.2966961012976033 1.7932870452149998,0.5988308607802272 m-20.16876653612182,-2.442539547807023 l2.6287084378281493,-0.07456671462360469 5.309706495054296,-0.9611240481738431 l1.318303325583941,0.06407638674833598 m-12.662165853859372,7.9179805749075065 l0.9095215497411577,0.1809416658368871 1.3817561904664613,-0.18942467889480138 l11.230069165916019,-2.309381391735975 1.0309893181656042,0.1738931039096049 l0.34879133567602844,0.441490559378873 0.022978271180021034,0.6576606671329701 l-0.3478194236316339,0.8197574814929722 -2.7041571742782056,4.566040820435335 l-1.9659743543397774,2.939671581147835 m-12.59669427507168,8.095998391405356 l-0.4332778577075179,4.267643994592507 -1.0892990804625844,4.710686849459095 m5.5278608757363585,-10.941498127597832 l1.6399286986425123,4.014548567260067 1.9690702399318232,3.1033005480538205 l2.466537460473497,2.5951599658763107 2.916498967275951,1.7923439304500588 l2.0797494717911382,0.7211340327339169 2.2855987759058713,0.4329978292515177 l2.565717210601568,0.10046081439348913 2.2921128015201084,-0.3307768443847934 l0.6666006113262558,-0.7891916514982885 -0.07112161623646941,-0.6184889417802366 l-0.9705220221084878,-1.497763016222415 -0.8595337294755164,-0.9084606849828016 m-10.140291768855022,-9.600365773173001 l0.6088660341296732,1.2941671211787544 1.0741710618266198,1.2197167251364955 l0.4681146511695056,0.05355894037332504 0.3768089655143093,-0.37594767621934033 l0.2536261340243613,-0.8655030284347976 m6.599820308051718,-3.297634931213779 l3.1882801918505352,2.4618234792783906 1.3847089866201967,1.6770581010967884 l1.0256329872754595,1.817528333263685 " fill="none" stroke="black" stroke-width="1" /></svg>