<?xml version="1.0" encoding="utf-8" ?>
<svg baseProfile="full" height="108.58491475723584" version="1.1" width="108.89647711458974" xmlns="http://www.w3.org/2000/svg" xmlns:ev="http://www.w3.org/2001/xml-events" xmlns:xlink="http://www.w3.org/1999/xlink"><defs /><rect fill="white" height="108.58491475723584" width="108.89647711458974" x="0" y="0" /><path d="M25,25 m0.0,0.0 m9.498640332435315,22.18710899754625 l0.5574844282341944,0.11501243250118388 2.16521307756235,-0.009261284972688754 l12.373557942506478,-2.4343474822423774 m-6.268268534623882,-13.893725424773752 l0.7109748987373318,1.4169087452387552 0.22838735374876704,2.138029548906765 l-0.16326558398576319,46.926371607518256 -0.3814011477141927,1.5354491560732204 l-0.5265603906083198,0.603368461440222 -0.6256715112659672,-0.09339887195380651 l-1.3270607274841966,-1.3979651706811291 -1.5381634619872258,-2.3466897393168185 m-6.679372286568064,-13.969848256171375 l1.4244230237952993,0.367663086240972 1.070504925938844,-0.6549791680872377 l12.257091697244812,-11.605132014345406 m14.926233839954573,-23.629528360275977 l0.4061798202738705,1.0424524149413767 0.13986982872683335,1.2453546918793164 l0.018413013769977463,5.89848349614972 -0.5050966711662617,6.916042706445578 l-1.267669757722582,6.969301611698577 -1.8705115042456955,6.945928264386443 l-2.1379339521513856,6.016414630556205 -2.6014332723280784,5.550339963554021 l-3.0818494090283814,5.0611440766971265 -3.2583418554764014,3.8657656273043233 m5.589921205972979,-31.189748884023675 l1.4999386382816786,0.3560025880006564 1.5155446890311481,-0.0966603794251956 l13.122998237999623,-5.335241655349929 1.1628394438640042,-0.33124197049475057 l0.6488094932332825,0.16987855738604554 0.36065028175950115,1.0096143149374408 l-0.23592047566842925,2.0684317267545373 -2.450385536680234,15.460633840448029 l0.13131510980398386,4.992646950937193 1.139534432347286,2.804076443393524 l1.6922443049723723,0.8464493812239 3.388857546445608,0.30567575293480115 l4.096542385573498,-0.14577673192702217 1.7454167736066617,-0.3958092322983457 l0.8965835435712879,-0.5572654907592287 0.5995005206934108,-0.8606940484677456 l0.3545490387695375,-1.740052690499505 0.09316336444030711,-2.369268089039493 " fill="none" stroke="black" stroke-width="1" /></svg>