<?xml version="1.0" encoding="utf-8" ?>
<svg baseProfile="full" height="111.81289837905561" version="1.1" width="98.97469493013129" xmlns="http://www.w3.org/2000/svg" xmlns:ev="http://www.w3.org/2001/xml-events" xmlns:xlink="http://www.w3.org/1999/xlink"><defs /><rect fill="white" height="111.81289837905561" width="98.97469493013129" x="0" y="0" /><path d="M25,25 m0.0,0.0 m7.490125800399669,19.73612975604006 l0.460848172724622,0.13492631338168037 1.4783281590962511,0.039930344035835584 l13.163395405906588,-1.991938926174947 m-7.446110530022409,-11.605888065138897 l0.7487728878947538,1.6837540411881942 0.19854024869794848,1.5250336761717098 l-0.0020230216230015647,42.65901645722378 -0.3354357913141066,1.3606627114100807 l-0.481023582994552,0.6208546184001293 -0.5897640954504644,0.00561941779093266 l-1.3037150368043007,-1.1266839583561834 -1.4547828825333746,-2.0174188062635534 m-5.086659563405093,-14.95953158844649 l1.1985307937593728,0.6926664534765306 1.1555876232954332,-0.2720109000192989 l13.084886521827418,-8.669840872197598 m11.669930966114142,-21.974127220129386 l-0.15003504284912178,1.4146366309276015 -0.6857410789588689,2.050696983539822 l-2.744179975458374,8.89453577984586 m-5.241965638819319,0.594322395564027 l0.49608762870085676,0.9578873011978591 0.10595251568105307,1.022887708875392 l0.3294083640619309,13.035409429707485 m-0.09512062567672448,-14.493107374428812 l14.872337184034667,-2.267221915639841 1.1783606078186757,0.023746095776838033 l0.8289652638194709,0.5553181553746925 0.38612822282198894,1.0480855765021406 l-0.01364587842070075,8.939422073494914 -0.49791063105436695,5.54945777204481 m-16.05115906467408,-7.025431219747174 l16.24360209530602,-1.0989072291516129 m-15.782973789805773,8.119672641665229 l15.023117085631297,-1.1257046820611403 m-8.275935431323889,6.550384688782545 l5.634556220537844,1.122781587103931 7.39549693861961,0.7515231527221755 l0.9494803389982002,0.31498511373712634 0.7117291168629803,0.6693464214142798 l0.4087084287090191,1.1921497151977256 -0.17415805484584318,1.538466134504206 l-1.0622057875363813,3.9962252740753823 -1.941348284782417,5.387570687921112 l-2.0695882729778634,4.970039797018725 -1.0233111815607006,2.039157081351789 l-1.0461316976405006,1.1216841545336187 -0.9926488495076841,0.12172499481231198 l-0.943413014558304,-0.7061460683513737 -1.137574122975036,-1.5546521976289591 m-0.6852629735650173,-20.30468675614478 l0.03318909761162346,1.7007961954896518 -0.9058685428096939,2.7388218771044412 l-1.4948751428742002,3.574038881945256 -1.828781616640932,3.4681800516674093 l-1.7516297131753877,2.6734521790231836 -2.1100346471168443,2.5505319429716535 l-2.5262566675592573,2.3698943711342024 -2.11804261867531,1.5056227319384092 " fill="none" stroke="black" stroke-width="1" /></svg>