<?xml version="1.0" encoding="utf-8" ?>
<svg baseProfile="full" height="106.72757012882313" version="1.1" width="101.23089736519216" xmlns="http://www.w3.org/2000/svg" xmlns:ev="http://www.w3.org/2001/xml-events" xmlns:xlink="http://www.w3.org/1999/xlink"><defs /><rect fill="white" height="106.72757012882313" width="101.23089736519216" x="0" y="0" /><path d="M25,25 m0.0,0.0 m6.925460220070416,19.352855499270937 l0.5085649637948327,0.13851210045074974 1.6931054221798392,0.047748478974055826 l13.615576196051935,-1.920766188352009 m-7.210990902975802,-11.382444304273346 l0.7989201328258364,1.5944389367607992 0.19873457768013733,1.4759002346135086 l-0.00068429975817087,42.273831363885265 -0.34153429997086515,1.3542910701944495 l-0.5017070383128203,0.612102288237859 -0.6152545696560989,0.02168007544804729 l-1.3705388994127443,-1.0757942670905667 -1.506208361441144,-1.9806615047906362 m-5.4582541066156125,-15.039868073109616 l1.2171465033732196,0.6662355777786494 1.2021158252322732,-0.2728015120861513 l14.19895795633411,-8.369782845661103 m13.055971972844024,-21.44759082832307 l-0.1584782934141373,1.2615418851007125 -0.7833805877578155,1.8663908632455941 l-3.1406965611614077,7.967167520253051 m-5.440737800019074,0.5884349977360104 l0.5154471771480749,0.898604559209287 0.06987703068760578,1.0246409139375212 l0.2865006068502789,12.741436312580742 m-0.004128385762561947,-14.139974561453636 l15.488027304400033,-2.067730849592854 1.230402518684775,0.033531368172653786 l0.899701860008837,0.5450360765011331 0.4090038483903437,1.0343295344571763 l-0.006749414920716583,8.440577184770733 -0.5201751439851753,5.328716653848737 m-16.915180915380848,-6.82803088817989 l16.994206359852406,-1.5015892205168342 m-16.60018341137434,8.046397425776592 l15.765932968911885,-1.2292947845856759 m-8.621101422422658,6.48676668696814 l6.1794738352098495,1.7441670540654433 7.614600057125487,0.893152902744202 l0.7378664098460003,0.2139504614660961 0.46933658426421915,0.4854773651873803 l0.35195144776775183,1.0702325923427884 -0.23929908969430289,2.7622528732213802 l-1.4523611982650422,5.257068292271392 -2.142320610679661,4.707202929395856 l-1.9016143520115147,2.6063384810321066 -1.1079931457963694,0.4428893969394749 l-1.0935413236937528,-0.3635058880578995 -1.4886284875807732,-1.4381044839849582 m-6.043985922797341,-18.57122260339893 l0.09442575357974295,1.6001805681381909 -0.7890893059989498,2.1389054956963283 l-1.46540296860734,3.703385684530701 -1.6613532169955805,3.3178554454672886 l-1.6243798684548356,2.4182587052540225 -3.7786874004084416,3.9239552719464146 l-2.1138715557127474,1.5782985770124542 " fill="none" stroke="black" stroke-width="1" /></svg>