<?xml version="1.0" encoding="utf-8" ?>
<svg baseProfile="full" height="116.46155796341796" version="1.1" width="109.75132469536196" xmlns="http://www.w3.org/2000/svg" xmlns:ev="http://www.w3.org/2001/xml-events" xmlns:xlink="http://www.w3.org/1999/xlink"><defs /><rect fill="white" height="116.46155796341796" width="109.75132469536196" x="0" y="0" /><path d="M25,25.200581429273168 m0.0,0.0 m7.094206468534718,18.74353758373837 l0.5617647197483151,0.08935255193791754 3.0645085354807935,-0.04799239022884279 l11.952003558936632,-2.2204611990666354 2.4640916307933325,-0.26001297136862034 m-8.970811309498037,-12.705767528303976 l0.6438255105794599,1.0201055092450477 0.27255576804841103,1.103987500942456 l0.04168104611350998,29.42317611657483 m-9.82322579237602,4.8450448704968325 l1.2092660203217007,0.3693036909012998 1.7678872632807963,-0.4642410064485443 l14.652719520395804,-8.493352226090776 m8.069237749855413,-29.717821488038847 l4.21371343469648,0.1993325315375444 18.2829364807399,-2.0847729751012185 l4.254964089710746,0.17850937367587544 m-25.76319348828886,3.3605010446462806 l0.5829029520865131,1.0280650082907004 0.18466636601942413,1.2416339987854386 l-0.7453307855158708,16.59439832605185 -1.055084189311123,7.25012611104304 l-1.3003490023211195,5.570402964943246 -1.7124325899536257,4.977949457447812 l-2.269771452798682,4.711017935778798 -2.1102099594113954,3.210502990341008 m11.567865377855783,-28.15004369359104 l2.098964748588649,0.0591883875432067 2.834495219937695,-0.34822052927062486 l13.442242891227158,-2.8240655546394016 1.3604760602786894,1.6325122942184545 l-2.1225473474609657,0.869246014659607 -10.177982133149731,2.9459134942994307 m-9.049114860717555,0.8715164995938135 l0.552103872697746,1.5853601709077365 0.08451382918136181,1.2483396135659415 l-0.006357022260489211,6.834117693193053 -0.3252390133662166,5.898091506663594 l-0.6226661369839204,5.581850269603852 -0.8486466465098395,4.681101196055556 l-0.9231652101609512,4.1707279785041695 -1.13004079131093,3.8887235479436697 l-1.3922148675975305,3.5101006027292834 -2.1517028608947366,3.2329629840727536 l-2.368727626936323,2.651028276360835 m13.252770908242187,-28.36022177060846 l2.5055640659498346,0.23898459011012466 11.06049963133349,-1.7351641941612521 l1.4858965333926555,0.09499786469765109 m-16.996620593450686,9.829287355696225 l2.8300090379720366,1.6488585315259332 2.9842395346423443,2.2801721767258227 l2.970419332077231,2.6868907406318234 2.3036410746890983,2.4760461923563657 " fill="none" stroke="black" stroke-width="1" /></svg>