<?xml version="1.0" encoding="utf-8" ?>
<svg baseProfile="full" height="115.42333100265681" version="1.1" width="98.78668756052193" xmlns="http://www.w3.org/2000/svg" xmlns:ev="http://www.w3.org/2001/xml-events" xmlns:xlink="http://www.w3.org/1999/xlink"><defs /><rect fill="white" height="115.42333100265681" width="98.78668756052193" x="0" y="0" /><path d="M25,25 m0.0,0.0 m12.50217583891918,3.8857784248526226 l0.3818418249219261,0.15592512769245628 1.513135490704035,0.17357389373082335 l13.419394806061279,-2.1150007189352538 1.7532225298028221,0.22090030084382117 m-9.758703923984754,9.885319340094702 l3.4363713496138337,2.0742658273863785 3.2884315239642334,1.0983145784670816 l0.6830152083943616,1.6026781847276828 -1.9531838375534698,1.6103232888987988 m-6.530752098964698,5.266305948278953 l0.649490624162948,0.9632769136525027 0.4912528010621502,1.5981149361789042 l0.7885794792075915,3.193491872348937 m-10.09631520308532,-8.201378593435255 l0.4677837146179398,1.0102983195593735 0.18351756848096235,1.0838367880015791 l0.3732514519863296,8.907779664072876 0.48588136066543164,-0.4002673352669792 l5.810836806222333,-1.2809168548380725 m4.0063222582490825,-10.530644030652274 l0.3210345540944043,0.8553574603907904 0.08898153594169327,1.052523077520567 l-0.6055784765344099,7.794213505368402 m-4.867240560934396,4.431823297333265 l0.035099242263042785,0.8268399350039314 -0.14609910373390478,0.774144116723241 l-1.3082202639224287,4.96012820971653 -1.5641996917558194,3.7823481338687164 l-1.8478103037189393,3.1718874290915258 m5.167640206382365,-8.91236723115437 l6.935694436503477,-1.4400737199688403 0.8558133006157962,0.08857239864825193 l0.3466201292955128,0.49368277443008257 0.03832551395028691,0.7405734462339123 l-1.952767266703222,11.102492543929046 0.22557329811143972,2.386076139559931 l0.4777015219473922,0.9006557336509192 0.7422128207823382,0.4555746456709615 l1.8029166593903279,0.13609539020523967 1.0936671609011062,-0.2331662036167262 l0.788270633017076,-0.4928609358436468 0.5485147693381776,-0.7712506717684228 l0.3100412894161475,-1.0146080823449137 m-14.52771480240093,-35.27931769933533 l1.890882874455339,1.89047436745351 1.1344568494983969,1.6143180854099792 m-4.757181987428665,4.772454898411027 l0.4328774696034396,2.0451441734005438 0.009913453712815642,9.210850951251187 m-0.03654566117894325,1.5031393247269846 l0.19245637319914174,1.8359794910158866 0.8106714915955537,8.788483679734124 m-0.6406231105751384,-10.646507135529088 l6.118955113795744,-1.549497985675953 0.955513080951304,0.0413580442173794 l0.2929234013029192,0.3525658340590252 0.09901080335179095,0.6099605106170765 l-0.07754328854706882,0.8416132070131138 -1.0330209450835734,7.843090471599561 m-5.269429499206438,1.6412803048503593 l6.028747266905845,-1.1694457967630623 m12.453425211093881,-39.19456997186706 l-0.08664458653465897,1.9327279870605245 -0.8363240625467869,5.797309317237702 l-0.9945931103456369,4.714092517454795 -1.0355914064757725,3.738936593319163 m1.73989358216218,0.343508584743121 l0.3560271244310766,2.2695074205036283 -0.029573971985208464,25.257605164165405 m6.355836352219087,-48.691106704407424 l0.06799356992090848,1.5607198697218396 -0.3364166299621176,2.297698112539227 l-1.5193845614867747,7.230674693618014 m-5.052511557096696,1.6842557582022544 l11.041109205201764,-1.9965985721450714 m-5.182094181953478,2.502204380049469 l0.26236414449927387,1.1183442346142618 -0.06377932618998414,23.809438879026644 m-5.523097996914915,-16.982517653570984 l11.007005869602674,-1.6461774587361133 m-11.149864006584195,9.69311234903985 l11.3099520685652,-1.6724574534254282 m-11.282438148060102,10.707957578481079 l12.28142920222945,-1.3537336280247676 m-9.548439571216868,13.787316072393416 l-0.007645696681809803,3.7695129736081756 -0.6981590540419471,9.10898796429069 m4.545648490827239,-15.796157304685176 l1.3901083817210793,4.703473199179886 1.2206710356376764,5.819061170781562 m2.878021884118288,-12.197324402721579 l1.291051486460112,2.186652494102645 1.349563226055423,3.1510445163729837 l1.07122157900649,3.2494575893237103 0.5058331527998776,2.341207287718702 " fill="none" stroke="black" stroke-width="1" /></svg>