<?xml version="1.0" encoding="utf-8" ?>
<svg baseProfile="full" height="106.64296096445068" version="1.1" width="105.7538546146273" xmlns="http://www.w3.org/2000/svg" xmlns:ev="http://www.w3.org/2001/xml-events" xmlns:xlink="http://www.w3.org/1999/xlink"><defs /><rect fill="white" height="106.64296096445068" width="105.7538546146273" x="0" y="0" /><path d="M25,25 m0.0,0.0 m2.180427209455325,19.733854306493576 l0.6039394432160305,0.06751872177371258 3.2885904540663446,-0.011604619889334422 l12.56782792812912,-2.052373834173779 2.0793178601245366,-0.06091534862489927 m-8.170914185982,-11.606658174604348 l0.8032373478090407,1.2939265552649997 0.21317986114494406,1.791345707100588 l-0.145814760166455,43.46507066755447 -0.4434566243450722,1.4159946368159118 l-0.6124879177756077,0.5956043975094553 -0.7439425422561985,-0.0016196694322215743 l-1.5919712141158777,-1.1586878053463776 -1.8321961027291278,-2.060305677764907 m-6.951781252529807,-12.920531266112878 l1.0111457567480107,0.3628230741216809 1.2162313527342878,-0.3742486674595937 l14.838451464388395,-9.947234117877978 m7.429837898514176,-22.63000707422798 l1.2759871247844086,0.18413488423086974 1.9327094806315936,-0.15602652002803905 l14.299481719983845,-2.1899906056973104 1.2338631023115232,0.9637572179064421 l0.10693050913688694,0.7306655531946422 -1.5654439746273348,6.561240069360657 l-1.708908585567366,4.335979110984442 -1.1926049055099894,1.88252544472368 l-1.4353544917875787,0.9131806028636525 -1.1162129905242224,-0.14085165208360487 l-1.3610879358964456,-1.3120395120615773 m-9.977139573347666,-10.111545833375155 l0.3661661453061127,1.1466286982836875 0.06383325095929486,1.161388521424894 l0.36573247737220566,10.686012870865655 0.03528498561203349,6.432428388789498 l0.6732092330292844,0.9848935684649102 1.044944910769152,0.5319911875064515 l2.465094081886675,0.43041635966542324 11.027094841917005,0.1609264096498641 l3.7565283230145208,-0.3863458085709978 2.6799494586899675,-0.4798317826885266 l2.205528936762272,-1.7751257836598766 0.3236128726659449,-1.8518387775710632 l0.025732322917512693,-2.4743765682488834 m-29.648389746216825,17.121821529133744 l1.663113129558625,0.22468566393710254 2.120080546108853,-0.10687557763030757 l18.747527429726887,-2.173484557982222 5.804371673292155,-0.14737470654653834 l2.6146902522481565,0.27416714860475516 m-16.334897818537517,-8.799567261720323 l0.6374892070355004,0.9975136949531628 0.24295955324178584,1.6670437004159302 l-0.03432100795450527,23.611448164338572 m-18.257464739961193,1.529967291339535 l3.7931260271134106,0.31346802055745454 25.12667687329478,-1.8958388364081171 l4.837338393611146,-0.0358104405389971 3.177001545146337,0.31984132686307487 " fill="none" stroke="black" stroke-width="1" /></svg>