<?xml version="1.0" encoding="utf-8" ?>
<svg baseProfile="full" height="108.69672152344799" version="1.1" width="114.50982487672975" xmlns="http://www.w3.org/2000/svg" xmlns:ev="http://www.w3.org/2001/xml-events" xmlns:xlink="http://www.w3.org/1999/xlink"><defs /><rect fill="white" height="108.69672152344799" width="114.50982487672975" x="0" y="0" /><path d="M25,25 m0.0,0.0 m5.855197266627387,19.022386617736398 l0.6350135382486395,0.1031728949401713 1.424953420001234,0.02473748192117461 l13.593609531864889,-2.124918226757439 m-6.983584652520716,-12.903096029724104 l0.8150836811543724,1.736544122789404 0.21474199215405526,1.5432564839044494 l0.016943914541900664,42.3400724315974 -0.3551029212959564,1.3780424203341302 l-0.49802251837529177,0.6055415768782396 -0.6124718663048645,-0.01735261665583686 l-1.309267112116688,-1.1908110705289687 -1.4994622055935263,-2.071148695270967 m-6.53133704719,-12.457618481284873 l0.3395406779526224,0.3885928198126066 0.9393669165535992,0.3663232533895764 l1.7272967435438975,-0.4843215224405454 11.759346059185207,-9.742292852350595 m14.235108765017765,-22.08927696626744 l2.1613694109525685,0.858041262436372 1.7530422509826884,1.314901546729053 l1.4474473011745392,1.7777837863678951 0.878430832269422,1.7184273521479816 m-14.262641197422829,4.283484878014626 l-0.6535175923954387,4.538199987652864 -1.3202436553140942,4.713756129385779 m2.7318107232638464,-8.189038440477065 l23.160655086913557,-2.911693753547176 1.2664471693815316,0.1025855960637262 l0.5745970146959006,0.42559336135155 0.10111976701796506,0.6246887048995402 l-0.7714791197416895,1.571033010103621 -1.8187472670559814,2.0173808707611354 m-16.166605024633665,1.7806799183329232 l0.055651600646767885,1.2354972628195124 -0.35784272106280074,2.001806001569628 l-1.526242920119987,4.629725341708542 -2.3154837491131635,4.50504525051728 l-3.3190721620695753,5.380650248943019 m7.688613715244591,-11.409834307632302 l1.8390104381465333,0.008164106386882398 4.993342373969816,-1.897469791856771 l1.5074661495974235,-0.16674739123770352 0.5432877256417816,0.2926122584792204 l0.24496533537807003,0.5632476195469632 -0.049257708634919975,0.7996958373624494 l-1.560050887528779,5.177844062693692 -3.1726972963218056,8.013946484830587 l-4.055649486758784,7.794517929788256 -2.16959513691807,3.278480175203846 l-2.3434682385976893,3.0320245039151863 -2.5287585912819237,2.707804133157175 l-2.681152539686177,2.2513165575223955 -2.275728799050382,1.4447373874845273 m7.1682553211649855,-21.545147166304044 l2.693605200800666,0.9970006684872917 1.8803437331631696,1.4232268243806985 l1.545734122939602,1.4357768067131071 0.6104241726112697,1.4820290957138273 m10.881164124123806,-13.35345384862045 l2.2976538728511664,0.2197945455844143 8.584447796446488,-1.363769979940294 l1.0706549651620045,0.6845943733932661 0.2766311236880848,1.387396483089297 l-0.5897248469397418,3.6091987748179344 -1.297113403056982,5.673663861646476 l-1.515456224814724,4.614605390748865 -0.5987385933823821,1.2100897344284514 l-0.6059649292585445,0.4442895849886755 -0.5592016809216763,-0.12361177126458076 l-1.1194755092857174,-1.2280687854020256 m-6.3862945693991735,-15.118631448723404 l0.47938085172629,0.9307837143577837 0.24706997168090364,1.7718033373879718 l0.17906266192239562,21.213539509798245 0.4821375525985198,2.748769042335506 l0.8556199516998799,1.383501608684759 1.699529431093666,0.9030474219488012 l2.7408089284572856,0.3354551234270382 5.807702576745006,-0.07905272243633628 l3.2378687381129083,-0.49868827502249974 1.0949478346198098,-0.4858776617219519 l1.2635593330479178,-1.108544117745554 0.5645073051747242,-1.598502399646399 l0.1547080789403874,-2.4496563980465518 " fill="none" stroke="black" stroke-width="1" /></svg>