<?xml version="1.0" encoding="utf-8" ?>
<svg baseProfile="full" height="109.42661501104178" version="1.1" width="100.6218013828867" xmlns="http://www.w3.org/2000/svg" xmlns:ev="http://www.w3.org/2001/xml-events" xmlns:xlink="http://www.w3.org/1999/xlink"><defs /><rect fill="white" height="109.42661501104178" width="100.6218013828867" x="0" y="0" /><path d="M25,25 m0.0,0.0 m7.203762437284856,19.048828082341107 l0.4857374103998689,0.12332638521354512 2.7687016538282885,0.01359428132285529 l9.929663456573515,-2.070590614345728 0.8281413258479862,-0.010176891413678927 m-6.079017320783198,-14.074922377222123 l0.5445000048410549,1.4320118140161142 0.22287760613981453,2.1673770579856737 l-0.09895605066157426,50.28995460874294 -0.27325769108142395,1.6421900197265176 l-0.4554223433355923,0.7908730297253391 -0.5616484075686294,0.07414961494920488 l-1.278029376748132,-1.227606709077363 -1.4860056540579916,-2.410995988836152 m-5.491591047889113,-14.921482559932313 l1.199236201226539,0.39880280206926 1.045295809366933,-0.586480196093054 l10.679386574494773,-11.637716055503725 m4.365916785664659,-23.49505481452109 l1.8417440031734995,0.12723498626414567 6.84299619414561,-1.4752383516022227 l1.0142152962560507,0.1519126206797923 0.3414838872138075,0.4786049453822659 l0.03943265303399911,0.8176138904968252 -1.054051620210159,6.679442925293025 m-7.755261605795094,1.8152245766488357 l8.733091152799837,-1.4794088789127682 m-9.952380716603564,-6.2967060972769735 l0.4296703624875623,1.1862141650220297 0.005769068597106172,12.159867935381694 l0.29120095361421267,1.2809526959796602 0.5926618497200109,0.7477413524557197 l1.0375688255211728,0.5130086660073464 7.067321349445037,0.17460935753592083 l1.2508362486405773,-1.528969231088721 0.06953756279049501,-1.3001490769384998 m3.0336554735387526,-17.70989878916157 l1.5523600524671024,0.2099729857174733 7.416128233233302,-1.5910056600914142 l1.3250763906582497,0.054945923846095326 0.28493496412620073,0.3669248054449607 l0.09352429741592919,0.6942111059800646 -1.1857462756220412,7.682869203664273 m-7.551738421615235,1.748890253161199 l8.298304012077832,-1.2955006782256635 m-9.256883213427704,-7.556246080454444 l0.45706025576352904,1.5332144986942633 0.07754256807631385,12.91961938628875 l0.19157682702025675,1.3874605818763002 0.41674877045607545,0.8945106885611923 l0.9392931407548755,0.758207366384771 1.664563730822444,0.4160256667053217 l5.670693541550684,-0.04329255485253533 1.003796779151232,-0.3198567970153013 l0.6171881536561711,-0.5624318595409487 0.2777252278415908,-0.8378783462429293 l0.03273538075483323,-2.3215945127079576 m-26.00339489982986,15.876563604822067 l2.979068587793861,0.21305370072506186 8.235047099693833,-1.17293329498004 l9.912278889567379,-1.03212798789732 2.192644839430172,0.26872167093241833 m-17.64140012406791,-6.092543211295048 l0.5547639456859613,1.2450082000964002 0.19788583699664483,1.5074719013731732 l0.542282555019505,15.131229571278261 m9.868290092868126,-19.051059810582284 l0.5110263970028922,1.17708851786778 0.055117460679656984,1.488623292592948 l-1.1110752331194966,14.961661692730685 m-18.199483716312237,2.2828752625777935 l1.5012433946249377,0.34053948817245644 1.9784436955320939,-0.01219427375776847 l20.664379928902854,-2.3820688795612877 4.681015905345121,0.3262413818156153 m-20.056053503347044,6.086569309585738 l-0.2412808401066339,1.6990105761679364 -1.379771843106912,2.301075701083135 l-2.9940821784448346,3.593695112411269 -3.860709152753875,3.987654325640409 m17.798251616264345,-12.12592686321119 l2.1492922780471817,1.8987667432597548 2.7371965391936874,3.403393938923621 l2.230401394035841,3.5887430409810985 1.026620572453933,2.589738555327249 " fill="none" stroke="black" stroke-width="1" /></svg>