<?xml version="1.0" encoding="utf-8" ?>
<svg baseProfile="full" height="89.99174293482977" version="1.1" width="107.00846454070368" xmlns="http://www.w3.org/2000/svg" xmlns:ev="http://www.w3.org/2001/xml-events" xmlns:xlink="http://www.w3.org/1999/xlink"><defs /><rect fill="white" height="89.99174293482977" width="107.00846454070368" x="0" y="0" /><path d="M25,25 m0.0,0.0 m6.441214036914201,21.122669942262625 l0.5139943330172149,0.10321818768018738 3.1119128582454127,-0.049370682036446165 l11.460733905973532,-1.9035268016274005 2.421916918101011,-0.23196775716496412 m-8.616728463355278,-11.858287944549916 l0.5992091897013841,0.8773577557791296 0.21176033459247018,0.8508170815035007 l0.040837880105189635,26.713589527399197 m-9.737389179229616,4.0436668307089 l1.20161145152036,0.3235767948749638 1.7541857811907653,-0.41807414696260015 l14.289924631164991,-7.5234378346192665 m8.559470853477151,-26.123991355425535 l-0.12874939897728263,1.6478305658848198 -0.5060481168352415,4.189972343699062 l-0.6839552338157352,3.3541130683595766 m2.3573701035571593,-6.389572138974202 l14.679503217295787,-2.52937378929731 6.139315776626367,-0.7683382496684721 l1.7191623029612124,-0.007534171927330803 0.7889217798927396,0.2992878132145517 l0.2958774784720088,0.5029414968043534 -0.15556215369351767,0.6384649167075671 l-1.1254191834607108,1.4657411445678916 -2.0984195464558937,1.7174322238437612 m-10.45057832771548,6.850381773741374 l-0.047588935063601484,1.3892496070088223 -1.2383955203653607,3.012001039763884 l-3.5779651417446914,5.985337198041539 -4.2199801150347165,5.375527707063588 l-2.57069254826529,2.5856466381740844 -2.847324932092484,2.4115502289755892 m6.47690350582081,-21.490856305244364 l1.6048711385341647,1.0026745602588045 2.424855891481055,2.17274245636676 l10.845830110855385,12.890337984161304 3.2057303666189254,3.062190361177689 l1.5338515262435297,0.9772729337201458 2.334295964445748,0.920454512262893 " fill="none" stroke="black" stroke-width="1" /></svg>