<?xml version="1.0" encoding="utf-8" ?>
<svg baseProfile="full" height="108.76225418120157" version="1.1" width="109.4925133138895" xmlns="http://www.w3.org/2000/svg" xmlns:ev="http://www.w3.org/2001/xml-events" xmlns:xlink="http://www.w3.org/1999/xlink"><defs /><rect fill="white" height="108.76225418120157" width="109.4925133138895" x="0" y="0" /><path d="M25.000000335276127,25 m0.0,0.0 m0.3594525158405304,20.27080535888672 l0.6810367107391357,0.08228610269725323 3.3470886945724487,0.06102557759732008 l14.183131456375122,-2.2364014387130737 m-6.551390886306763,-14.513850212097168 l0.8232984691858292,1.446065604686737 0.2589321695268154,2.509966492652893 l-0.16395291313529015,48.756065368652344 -0.426260344684124,1.650446504354477 l-0.6299414485692978,0.7286322116851807 -0.7671286910772324,0.0072126107988879085 l-1.6826435923576355,-1.3431751728057861 -1.9059227406978607,-2.3853781819343567 m-7.525699734687805,-14.681835174560547 l1.2094874680042267,0.3351157158613205 1.4782625436782837,-0.6434152275323868 l14.334666728973389,-10.091136693954468 m14.905813932418823,-26.519134044647217 l0.6623134016990662,1.0236547887325287 0.33386897295713425,1.714140623807907 l0.1586637645959854,16.197893619537354 -0.2853765897452831,10.6614089012146 l-1.0427279770374298,8.556004166603088 -1.6173745691776276,5.626077055931091 l-1.7890337109565735,3.6557599902153015 -2.3671798408031464,3.2798948884010315 l-4.188410639762878,3.953232169151306 m0.8168240636587143,-43.541550636291504 l1.6941924393177032,1.8168561160564423 1.7732851207256317,2.5635117292404175 l1.4856119453907013,2.7367454767227173 0.8311727643013,2.3367327451705933 m-7.7048832178115845,15.129793882369995 l0.7314319908618927,0.17577115446329117 1.3039787113666534,-0.4624820128083229 l9.217792749404907,-7.568308711051941 m10.269445180892944,-28.848516941070557 l0.7505051791667938,1.0359036922454834 0.3173986077308655,1.8096818029880524 l0.09915562346577644,44.99321937561035 0.43658439069986343,3.846842646598816 l0.9344130754470825,1.6647952795028687 1.6731944680213928,0.8838427811861038 l4.963238835334778,0.38554929196834564 4.601372182369232,-0.316304974257946 l1.4443157613277435,-0.4446336627006531 1.3353008031845093,-1.1253203451633453 l0.59153251349926,-1.782384216785431 0.13367664068937302,-2.559661865234375 m-4.199609458446503,-38.92758131027222 l-0.3583229333162308,1.7704854905605316 -1.8982236087322235,2.1981455385684967 l-2.905779778957367,2.787140905857086 -3.5892662405967712,2.6692017912864685 m0.19353199750185013,7.788875699043274 l2.4798694252967834,2.179422229528427 2.57436066865921,3.072364330291748 l2.0740820467472076,3.2144510746002197 0.8995912969112396,2.1697983145713806 " fill="none" stroke="black" stroke-width="1" /></svg>