<?xml version="1.0" encoding="utf-8" ?>
<svg baseProfile="full" height="100.85148583606966" version="1.1" width="97.85537017515827" xmlns="http://www.w3.org/2000/svg" xmlns:ev="http://www.w3.org/2001/xml-events" xmlns:xlink="http://www.w3.org/1999/xlink"><defs /><rect fill="white" height="100.85148583606966" width="97.85537017515827" x="0" y="0" /><path d="M25,25 m0.0,0.0 m6.610214991899987,18.516673062456675 l0.6074538028770826,0.12747768044361418 1.2818721176127414,0.012271158686886968 l13.842408027498522,-2.3162243856932574 m-7.118254438404639,-12.109072623779673 l0.8067613432144762,1.7187144287556555 0.20001800846705375,1.5026998307454602 l0.009398488337077232,41.40057416618467 -0.3210806884509149,1.3892346056245102 l-0.48360300903466524,0.6091379126451084 -0.5984297303984933,-0.010714127876513567 l-1.3242921813782276,-1.1564271774713923 -1.5011210954461591,-2.006694025841162 m-7.120688365940168,-12.724991863982844 l0.32857830261065984,0.3528807746001783 0.9373322828800559,0.3309800156019895 l1.766980248049076,-0.4513647848899788 12.852836198481565,-9.571036354633142 m12.10748495876745,-20.822073711778664 l0.701812202025941,2.2707731430206657 0.13521209524290667,16.24600424548201 l-0.15043186931384714,0.969786581851554 -0.3369151709166022,-0.12135498305027342 l-1.5524314371007677,-1.9485148499531506 m-3.2791214332226186,-9.810143177158038 l-0.24616176214122945,1.4227477338088994 -1.5519582301290928,2.591511244238549 l-2.2384441781073643,2.6844324201140792 -2.140786838953926,2.003233428013478 m18.85297182175767,-8.946034192247517 l2.0340476189581738,1.3733312817098633 2.2324076173990495,2.0563426276473287 l1.7008568052815216,2.0908256565743812 0.8104436727359738,1.7301165445508209 m-7.14381045162827,-0.7529590708019063 l-0.2219725046899021,1.1125965249766865 -0.37155841578079385,0.9761195544277175 l-4.383944156475173,3.113690711195758 -7.315809008319647,2.809775220540554 l-8.32735194788892,2.0817659097739667 m-2.1547480216177517,4.334455022000611 l2.5536262258163025,0.3457020549585252 20.426758996686083,-2.470138636305145 l2.3394219684607336,-0.163517797697061 1.833978716446641,0.26663111814145174 m-14.514687997581404,-4.975083133232887 l0.5429164753244348,0.9832292809563282 0.12141823001022077,0.8236840058690671 l-0.10637214405624787,20.26898952478346 -0.21057969137111823,1.7527756640570062 l-0.45590494354876876,0.6172595763616515 -0.619304629119254,-0.15809228064084713 l-1.692976979686122,-1.8597210112401332 m2.6464741032255232,-16.488747639061522 l-3.1387858969370184,4.447194004097593 -3.8028906026731732,4.333910754724674 l-3.8429000734553758,3.405424312652795 -3.863357002926396,2.5890089835825663 m15.2577574182663,-14.595403788353508 l4.106763670938905,4.512840268703706 5.030993783062417,4.97563887983665 l3.7165019129975967,3.2722446058853385 2.3500629596497196,1.2730765394442127 " fill="none" stroke="black" stroke-width="1" /></svg>