<?xml version="1.0" encoding="utf-8" ?>
<svg baseProfile="full" height="117.04696233293036" version="1.1" width="101.66361209832309" xmlns="http://www.w3.org/2000/svg" xmlns:ev="http://www.w3.org/2001/xml-events" xmlns:xlink="http://www.w3.org/1999/xlink"><defs /><rect fill="white" height="117.04696233293036" width="101.66361209832309" x="0" y="0" /><path d="M25,25 m0.0,0.0 m12.786787941756312,18.069292476059168 l0.5459524482925534,0.11505238367607182 1.4249665864820653,0.07892382821071023 l13.392930001216069,-2.0414864920892417 m-7.197806272789677,-11.577764448376673 l0.7945982873309959,1.7144348365247069 0.2268065523513411,1.5702964877517134 l0.011904696004274455,43.82797166237445 -0.336005484633983,1.4735343992475427 l-0.4924795395866147,0.6846610210599249 -0.6061051757481791,0.04423643725622331 l-1.3057739645291604,-1.1201577371179525 -1.4942460502461778,-2.047013181976522 m-5.992360583667061,-14.324083081258792 l1.1679540865372973,0.716133485658372 1.1144758444746987,-0.26898163244413936 l12.299131366724469,-9.132902710471708 m14.336832204054499,-24.680945372920686 l0.06679770724156386,0.856090467400021 -0.34396012479792987,0.8931860554829398 l-2.160660388023805,2.4338793306917275 -3.0733230388208455,2.4990666359184024 l-3.403405155968156,2.0703644672984143 m-1.4279658186223312,-11.667866631522731 l0.5703487592506624,0.7622159602628128 0.2850625441026843,0.8986796514900804 l-0.024099413334280447,12.708133886339118 0.23506012259244974,0.9877997910406447 l0.6120321585603222,0.8372216088958236 1.5022645174556055,0.6689426727959541 l2.4455185379856923,0.29350433089876243 5.141673474929895,-0.013192126217782093 l3.037377075292791,-0.2826355459738238 1.7403480464964776,-0.46294919827472136 l1.0415617372857844,-1.7068773577192105 0.1822910233686354,-1.8597608615058674 m-14.827407270430554,10.735462296368336 l0.5016841594574731,1.9200338121019191 -0.005081546790402329,20.45504729772894 m0.33314654670392724,-20.84660122928474 l9.912635176831651,-1.6880279340912476 0.561879995558273,0.09785691003155712 l0.3249371199151076,0.39819709551465254 0.16487261118014832,0.919547729406442 l-0.03257607497292928,21.06622215225028 m-11.076838487759074,-13.758994075319194 l7.238985657939507,-0.8381795413768545 m-7.303904696644882,7.74979525296434 l7.166161041634915,-0.8490372237388181 m-7.069301093003435,7.785391165397636 l11.332696283018823,-0.9245149200830797 m-18.308227932673393,-12.750014413910684 l0.4568463879838952,1.1604539901713187 0.18213341598763194,1.337920091092419 l-0.412861209344464,16.377615408139103 0.10940684488526171,1.555023777334448 l0.2877489845637124,0.867693607322746 17.775849105114556,0.4145455488426526 l3.983966606650382,-0.16749076965199292 3.2623757634980124,0.2047287642642991 m-18.819024486421746,4.196103220358438 l-0.01589545860362666,0.8705301656908799 -0.39006111631377693,0.84284888459542 l-2.058463032700753,2.554648943188209 -2.793237159811721,2.3705183967170136 l-3.348865173189246,1.9726324324421718 m17.719150530729134,-8.83473077473343 l2.115295861577393,1.4932285356806645 2.5750926096472964,2.490881538550891 l2.005222403109341,2.515174134070083 0.9773157300104081,1.882436172869016 " fill="none" stroke="black" stroke-width="1" /></svg>