<?xml version="1.0" encoding="utf-8" ?>
<svg baseProfile="full" height="109.55761125424951" version="1.1" width="107.94880031127087" xmlns="http://www.w3.org/2000/svg" xmlns:ev="http://www.w3.org/2001/xml-events" xmlns:xlink="http://www.w3.org/1999/xlink"><defs /><rect fill="white" height="109.55761125424951" width="107.94880031127087" x="0" y="0" /><path d="M25,25 m0.0,0.0 m2.9104489975979084,18.837496747914322 l0.7454213784549599,0.09470729410705714 1.472226594298463,0.04209855147133922 l16.556322714356273,-1.9445378899201216 m-8.501355810726805,-11.791170446411595 l0.9376419526081246,1.7111278356570936 0.23644128335961156,1.5219585136010227 l0.005934008131503782,41.14875800773751 -0.4272905438542238,1.3585664184381554 l-0.6039550191209689,0.6027512760730831 -0.7347261885934393,0.021285622115638225 l-1.5918672858475307,-1.0942741568033738 -1.7782493595241602,-1.9474919355664095 m-7.387198938753343,-12.311886700315387 l0.9985988219717399,0.5450723813713639 1.4553250216580031,-0.20042413478076782 l17.43247845987211,-8.486981891989988 m15.515747668380223,-22.089545244484494 l2.3995278944070724,2.4779503943501706 1.968350463955382,3.495499911130714 m-14.885054858601997,3.5968738719396596 l-0.7431503040801616,3.777880477219391 -1.7298266485631404,4.639662029628784 m2.7037640153585785,-7.078297217747298 l16.924539826872458,-1.870603008275677 8.872095134554732,-0.6229841012906281 l3.9969513094178164,0.019579764778777486 0.8892491904763536,0.3556940670518463 l0.31041053320531875,0.5488368135889982 -0.128412488262879,0.683408789088696 l-1.1880105144772313,1.5399320798296938 -2.412290042788876,1.972800312063542 m-25.496739077328957,6.940272749390077 l2.9220056885926313,0.13311159493416871 16.366459725675007,-1.6548755564916433 l5.50298271780307,-0.08538318170815185 m-14.897112456920043,0.9261998795540074 l0.6712882023436114,0.6839954688209243 0.36020140646765175,1.1751989872292627 l0.12347778281387288,18.794903344461083 m0.14169495500671636,-10.28291267875198 l11.802888521109454,-1.2106630234326985 1.9003369566529993,-0.00959901368388263 m-23.89110420023281,-2.4229717674757523 l-0.12975109601193308,2.651244496480283 -0.5998485554316877,2.8524617301913016 l-1.0462504779139492,5.964912137507704 -1.4073495619567424,4.777492488709098 l-1.5125863388898866,3.3624967228688494 -1.9228570618401508,3.0128686280522388 l-2.3130972196601385,2.6653598515968504 -2.023757921519092,1.729753964426649 m10.824660805074329,-13.415581925602897 l2.5935269205904943,1.1224587696568462 16.178463511266028,7.852210123318173 l4.038232289287168,1.5388446017961301 4.43888666404235,1.1351837289997417 " fill="none" stroke="black" stroke-width="1" /></svg>