<?xml version="1.0" encoding="utf-8" ?>
<svg baseProfile="full" height="107.32621694889144" version="1.1" width="109.1338710552813" xmlns="http://www.w3.org/2000/svg" xmlns:ev="http://www.w3.org/2001/xml-events" xmlns:xlink="http://www.w3.org/1999/xlink"><defs /><rect fill="white" height="107.32621694889144" width="109.1338710552813" x="0" y="0" /><path d="M25,25 m0.0,0.0 m9.514169654919451,18.962975055460216 l0.620107815191753,0.12682143153617156 1.4825047493550372,0.04066736418686027 l14.697614340807533,-2.061182668225384 m-7.636850518885173,-12.476787927572978 l0.8274411213792027,1.8183308312923632 0.20450761526915828,1.6258437664524708 l0.0033746330081556994,43.79573109432247 -0.3740202893518483,1.457731837262004 l-0.5290043225498672,0.6605098339028149 -0.6512811228226257,0.03712016825274255 l-1.4324468209898629,-1.1443273801057674 -1.6211481837256458,-2.055452783080243 m-6.784233381166082,-13.10377497765485 l0.9240601259025267,0.5896037236051364 1.3306337974471494,-0.21708499990658034 l15.92864543855763,-9.028116833187934 m14.637457788251972,-23.60439944007321 l2.083679766514259,2.590375069750137 1.6806606548745295,3.6871244592076073 m-13.48579829664299,3.751408784096012 l-0.6739939248292154,4.081650192864077 -1.5664334214596194,4.983584586301225 m2.4603941771127316,-7.569676793593472 l15.432344656894989,-1.9965521864971947 7.998753950876065,-0.6825248697059191 l2.8703652445563996,0.00630117845256782 0.8677672069796807,0.35397867105784603 l0.324598599806013,0.5693318744433282 -0.09659332357045416,0.7141798909475823 l-1.0458053009898238,1.6656532027326725 -2.199042358566019,2.123806443794437 m-22.76593694596902,7.319084783650587 l2.6694690533686396,0.13911780444225844 14.433371787069156,-1.7693598963705774 l4.897025925641244,-0.09253264178837033 m-13.181353058044078,1.0077633130852013 l0.6014582695305052,0.7278110341513716 0.32388043303737685,1.2456474929356316 l0.11573888579155223,19.94663707375753 m0.15678658572290352,-10.832120487063392 l10.508490993208706,-1.3218746502384777 1.680867014600675,-0.014213991133833363 m-21.543659800687617,-2.704808480264665 l-0.11229074467055046,2.7640776968622003 -0.5279090452961541,2.961622266639169 l-0.9385071388887859,6.368710823187388 -2.098867835505986,5.052900136548555 l-1.7928587025285159,2.7418575361517186 -2.221771772360377,2.488130775577347 l-1.9377099039894843,1.5949177584445973 m10.337206203286966,-13.125022950764555 l2.3738758863268465,1.2029872500958851 14.640900351129659,8.515760248876223 l3.634938445982319,1.6212358589744307 4.03867370834041,1.1671818856094833 " fill="none" stroke="black" stroke-width="1" /></svg>