<?xml version="1.0" encoding="utf-8" ?>
<svg baseProfile="full" height="116.3371929350205" version="1.1" width="102.52954500737007" xmlns="http://www.w3.org/2000/svg" xmlns:ev="http://www.w3.org/2001/xml-events" xmlns:xlink="http://www.w3.org/1999/xlink"><defs /><rect fill="white" height="116.3371929350205" width="102.52954500737007" x="0" y="0" /><path d="M25,25 m0.0,0.0 m2.6981156882381527,20.203784182143075 l0.6015139219541134,0.08210135099061763 3.0445210491083294,-0.01983844960977181 l13.538346428341223,-1.8719937089875516 2.185618242695339,-0.0016366978212216507 m-8.698858229977004,-12.232148975978433 l0.7237920832712709,1.194990103811738 0.2198532106678866,1.7814756045799556 l-0.007792398322938126,43.38506649072636 m-0.38270092589443083,-32.71584553415179 l-0.7904675078775509,3.0955364189832384 -3.3137507229961316,6.697865955970202 l-3.163613979314087,5.053557453511079 -4.434414219037522,6.07401152463973 m14.486506463983696,-14.87203179688121 l2.319841781179092,2.1291390726324257 2.9836972446593206,3.71237973584007 m14.18916920091482,-25.337347674581036 l0.5024722492940007,0.9322472223802575 0.11726377529696422,1.0389303236456282 l0.026192210791470896,13.354543347407965 -0.48169986894487693,15.98894885206962 l-0.46214497712040126,0.8604329559096477 -0.6454735705985539,0.19209282754250975 l-1.451707066812217,-0.6032915337416503 -1.8547512783509816,-1.4136978868314656 m-1.9738531054536308,-15.06602266827446 l-0.34890901193557117,2.1026367543414084 -1.6631282751416567,3.468285994649554 l-2.2235046694666285,3.4242046783725475 -2.4133598476837603,2.8744863159759757 m21.198472367066657,-12.952327607968858 l2.414350949853329,1.6391279221048152 2.634015477384595,2.410917819148229 l1.9699088766431083,2.373641898275708 0.9860234409546488,1.9921472425438718 m-5.6867404024641655,2.1003504457390956 l-0.28869030658579825,2.526464025384706 -1.950617987554279,4.04419750839041 l-3.1014992694820136,4.329587597649424 -4.032844652330436,7.376117036418088 l-3.0948753528026423,5.130937250264947 -3.1473450111206924,4.538547413544007 l-3.342121908226679,3.9985724529437787 -3.5135571196185125,3.316049691317248 " fill="none" stroke="black" stroke-width="1" /></svg>