<?xml version="1.0" encoding="utf-8" ?>
<svg baseProfile="full" height="104.22690015747953" version="1.1" width="98.79652758391751" xmlns="http://www.w3.org/2000/svg" xmlns:ev="http://www.w3.org/2001/xml-events" xmlns:xlink="http://www.w3.org/1999/xlink"><defs /><rect fill="white" height="104.22690015747953" width="98.79652758391751" x="0" y="0" /><path d="M25,25 m0.0,0.0 m7.55876699330204,18.76279185948444 l0.2444384162527484,0.4160523969769875 0.6428944308626834,5.145638689350207 l0.9056543883729601,12.436391148216162 m-1.1219909289712975,-16.82878077905028 l9.449797346917382,-2.400828949493541 0.44453928741797666,0.07627236984577855 l0.3223408353712116,0.42554782384136497 0.20232590121819208,1.2257398808128273 l-1.6518243396304932,13.68063572787834 m-7.809578924981302,1.672207438398481 l8.747076482150588,-1.4705754977984768 m14.569201830004117,-30.489786552889274 l-0.19905396984106738,1.598667324536314 -0.8208118689831628,2.351578876307782 l-1.2535841204996845,2.7729874225490816 -1.4502345577816018,2.5431033228686166 l-3.4812597546132116,4.980187262212997 -4.062557913761333,4.857421789719333 m11.978652811683492,-15.887676597425088 l12.789570841068251,13.52557255211874 1.1202564162166522,0.8281807592402047 l1.6719079821423561,0.5802543081074502 m-20.276156493245033,-4.456566765991011 l1.4051037792978112,-0.03013414640272343 6.803680656459826,-1.2631165519803693 l1.3715778979465778,0.09112833807710122 m-11.627827383653173,7.808397835931016 l13.0061249455242,-1.88482722564773 0.8342734728891363,0.2883755846048436 l0.3434462678538278,0.762635738009671 -1.5164842881192953,14.318626267463777 m-12.50203472505799,-6.739252624857844 l12.912431913361514,-1.1453251585630098 m-12.951498592393028,8.601646822464279 l12.43270835185078,-1.316240433990377 m-13.590474406845846,-13.464715107232472 l0.3501224376078614,0.3937749500587349 0.4784785651139469,1.1716221349073312 l0.12677905474835868,1.5647902387850436 0.07759199953598438,26.269096387617108 l-0.029326746606966464,2.4554012984177085 -0.4279548504460781,-6.140424769315463 l-1.0866961449752366,-3.8146842206171625 m6.493759024289153,-12.024427845589418 l0.2940814106754106,1.0855783876847318 -0.06642955105131201,1.1875723120609656 l-0.06077064697435363,15.646886278394764 m6.7341741735569745,-10.419162847104491 l1.5434360905882276,1.0848958237143929 1.597032686978113,1.6280486869746957 l1.353777694711132,1.8373481359970896 1.0002877987318226,1.9457473269247476 " fill="none" stroke="black" stroke-width="1" /></svg>