<?xml version="1.0" encoding="utf-8" ?>
<svg baseProfile="full" height="117.42488498270087" version="1.1" width="97.30192149152526" xmlns="http://www.w3.org/2000/svg" xmlns:ev="http://www.w3.org/2001/xml-events" xmlns:xlink="http://www.w3.org/1999/xlink"><defs /><rect fill="white" height="117.42488498270087" width="97.30192149152526" x="0" y="0" /><path d="M25,25 m0.0,0.0 m5.609013591336983,19.208835049961593 l0.5675469709752629,0.12065605455593974 1.393228308168804,-0.022212171607425262 l13.319772149208388,-2.067272781770878 m-7.083389352496982,-12.250300765440393 l0.7702625671941745,1.7667272871243678 0.19715994429810238,1.5668145378972604 l0.0014937445140677684,42.35861371489222 -0.3428706528173381,1.3985798554478608 l-0.49273374404398484,0.6382772713801457 -0.5843241227590094,0.02829545538430862 l-1.3060096184105756,-1.0983158704404827 -1.4582800085007597,-2.019643174362982 m-5.666939723469399,-13.946313694648715 l0.35126381914827237,0.7038546059082841 0.7808188345909981,0.4299886327715722 l1.6231923694235835,-0.43353030573711243 11.429352302798335,-9.588181104697112 m6.4214568798234835,-19.48535935353329 l0.37037404822941683,4.51634817694292 0.893616842960431,11.29850174609223 m-1.0616170013801405,-14.920770476432043 l17.32121901247158,-2.092535250680436 0.68971000334186,0.018403741289337396 l0.9042444777815374,0.3663547689556776 0.3132571692869407,0.3759375070502625 l0.14666512227596218,0.8480153930727602 -1.9514347766587714,14.597551700518327 m-16.727906696240336,-7.017912057560862 l12.344756285783761,-1.4642993675875675 m-11.52349199169315,8.406778716605835 l16.003856155233272,-1.4262423556852546 m-20.353330096138457,2.8501954189815986 l0.4235408681836476,0.79921926915231 0.26529724540848787,1.6451182468960792 l0.8012801161441242,9.469667976595062 m-0.6188648107320998,-11.54813856602983 l10.150234444301764,-1.874803263357664 10.410420470798453,-1.1786772281124414 l1.5858334114757184,0.7460646624772982 0.06196300957976048,0.6253856085839852 l-2.351985966571821,10.891236401827165 m-18.9923484542559,-9.930262945062038 l0.5434801069356096,2.44957356498151 0.7744459495675093,8.698106071442734 m7.919395492728016,-11.682273911806584 l0.34775324612372294,1.6925036070838213 -0.8108164956051013,9.411241251552426 m-21.822998197143328,2.025619968120878 l2.597617395373022,0.2604644547663847 26.565613087326447,-2.347668307649456 l4.56405308609224,-0.2447188379140628 1.9880746715586775,0.22593878519903482 m-29.11236021048409,7.618484121386335 l1.9439854904524445,0.8615213871794095 15.730081039805276,-1.9299646828837416 l2.252158115611235,-0.11685172179324181 1.7083265677096329,0.3106747621446708 m-11.964962162186199,10.273396356872405 l0.49139862760475067,1.9302799156023491 0.060295280215898236,1.5347281215447623 l-0.13321693885864982,12.021028608572784 -0.3170836780379409,0.8372864477586501 l-0.4938519091994193,0.28486395292194533 -1.30137637045205,-0.1601423118937908 l-1.8639279419177501,-1.7768822190725968 " fill="none" stroke="black" stroke-width="1" /></svg>