<?xml version="1.0" encoding="utf-8" ?>
<svg baseProfile="full" height="114.46680488203118" version="1.1" width="95.14812329519934" xmlns="http://www.w3.org/2000/svg" xmlns:ev="http://www.w3.org/2001/xml-events" xmlns:xlink="http://www.w3.org/1999/xlink"><defs /><rect fill="white" height="114.46680488203118" width="95.14812329519934" x="0" y="0" /><path d="M25,25 m0.0,0.0 m3.7124083719378387,20.456752157122704 l0.4553333112342587,0.35365120394947797 0.6335841042976228,0.6163897229826383 l11.444600332879897,-1.7215698439438987 0.8556000064669032,0.012563762426444898 m-6.2916010695047015,-15.351826372384716 l0.6298610368694741,1.4028625725538224 0.21091596926276435,1.642654648812949 l-0.18783692439515157,50.261810031588986 -0.31850497343087353,1.7239073813590036 l-0.4406093949082264,0.6845382949533274 -0.5370239688574259,-0.055704738245750986 l-1.199739623553914,-1.382948769528553 -1.3589135039079174,-2.3593167715191687 m-5.485292010189952,-16.437866990003933 l1.1172713743798548,0.7395583086525166 0.9951918472795127,-0.3395309227101186 l11.610055134742005,-10.30270950255512 m13.198408828609889,-25.845428487617106 l-0.18550560806279517,1.8371145540343536 -2.9744232458816193,8.719287675810742 l-2.778743832935,5.920444821925986 -3.087587616734376,4.834341511106766 m7.052282450523137,-11.386760996535038 l0.854362135587662,0.33298146144774177 1.2856345841997254,-0.06782994992278572 l11.552774798714973,-2.3975861291188023 1.1596587055773375,0.015104128416548804 l0.9186343230172991,0.25748634881809496 0.4624789967147773,0.33665331282203814 l0.4461796733550598,1.1303940866135083 -0.09547357135434999,9.937418162163837 l-0.5152789650373512,9.195721174481507 -0.7206725374231724,8.212619968272318 l-1.1436402154408238,8.787891800530744 -0.6756064410699782,2.6572768159600724 l-0.8041400975633074,0.831919158467083 -1.0209751083189982,-0.4579240933892591 l-1.5975695576176787,-2.126712252070277 m-10.034186763049705,-30.268962281150927 l-0.14143135437355991,1.5787023464680645 -1.0061438087736907,2.590085326493602 l-1.514440573300505,2.8056637421684685 -1.6192787182293902,2.1021447702541693 m3.8092854256948603,-5.574951146815714 l4.242528113054164,-0.09303936552716337 5.697358442177577,-0.6167681164291261 l0.8166852897391114,0.13729684200956313 0.5263673684914132,0.40502832331864475 l0.219526817769077,1.237497585578222 -1.5927484448662945,5.304334700348938 l-1.6250636296686023,3.7912694938444624 -0.8068264609772859,1.4302796896738017 l-1.0218045597987864,0.8100100418618167 -1.0230108807070069,-0.2463395334746619 l-0.9445179723353482,-1.008345680638868 m-9.346775060968692,4.354959258246882 l1.8095200113445575,0.3505315173264639 15.487214285515986,-1.965481385074812 l1.9095519417248974,-0.05435683380842557 1.4610473773542028,0.2183972176152244 m-18.555419308728855,8.84137101678579 l0.4809642740827897,1.4184029152271087 1.1020713826067223,8.00789959494612 m-0.936246687587056,-8.533511514944845 l10.62277359013844,-1.720649881325883 4.071887760718674,-0.43375862779405067 l0.7855776062692733,0.564119677908655 0.1691785058964288,1.0709155912382669 l-1.5497418421199682,5.974402074008213 m-12.550814540029998,1.6532519514047372 l13.492676745865383,-1.3527932294784806 m-8.457937218071052,-12.669820423761966 l0.5603170592267878,0.864231418769997 0.21278722205207842,1.3706851612938327 l-0.013060509633779846,18.85764230569446 m-9.504386524628039,2.0209163330182767 l0.5206087490206464,0.4804749349447919 0.9311144373955568,0.0974418260788271 l16.241514188658133,-4.95054675567247 m-2.1760643032116502,-3.2454053757815258 l2.3565289810668846,1.6932222864285151 2.137983353669042,2.0482359460812765 l1.7330229151851924,2.1405421615413323 0.9938328920783476,1.808032962839929 " fill="none" stroke="black" stroke-width="1" /></svg>