<?xml version="1.0" encoding="utf-8" ?>
<svg baseProfile="full" height="119.95463980796012" version="1.1" width="99.35920925443877" xmlns="http://www.w3.org/2000/svg" xmlns:ev="http://www.w3.org/2001/xml-events" xmlns:xlink="http://www.w3.org/1999/xlink"><defs /><rect fill="white" height="119.95463980796012" width="99.35920925443877" x="0" y="0" /><path d="M25,37.161456306590225 m0.0,0.0 m6.096743447193167,17.955448066895222 l0.5820481380111082,0.1186004813272509 2.733788982120926,-0.0027242389782515465 l10.69888226498453,-2.1744712490432194 1.5501376675214802,-0.023135908883346556 m-7.128577698583307,-15.245954722544996 l0.7111468167583991,1.4667463770438542 0.17790395393054756,2.1903843473194327 l-0.1258868316610041,51.104574039093194 -0.3798656227689499,1.6560557864851395 l-0.5730069614705704,0.7476605226556245 -0.6961724961386909,-0.023844066003263092 l-1.4764363983476954,-1.4510920206211508 -1.680605879640154,-2.4856045708626855 m-5.2216822952515045,-16.20615090658667 l1.091548407058109,0.48017798307418424 1.4014632964402833,-0.5190324487422409 l11.929341325327263,-10.219911591091467 m4.021307958772226,-23.70445054021906 l0.5986212264473112,1.79504331184023 0.042418945103361035,1.5472451844776052 m-5.731108414964832,-6.469759776331756 l0.4261300518382598,0.5747633768023317 0.2825026053542111,1.0794981260546268 l0.03264448735152078,10.158705839727846 0.4728507907952609,0.8661158316812728 l0.8081224909002052,-0.3973649027303947 4.42433818836142,-0.8670433443232402 l1.0565033892272582,-0.21861027019124304 0.500376209126888,-0.16580023014447423 m-8.963440148030339,5.723594208294642 l0.27939885431261224,1.9091011422944537 -0.5918978969002922,3.57814554418586 l-2.040190968424483,5.518846289620712 -2.1881948443545025,3.6980553400070084 m4.072172645037684,-14.518791140173787 l6.961207717282797,-1.5016468891756374 1.0832834570688537,0.46573077384347034 l0.2317388237311588,1.3548523718734866 -0.9554130758403051,7.5783452450347815 l-1.5939071837171548,6.074584925828666 -0.24881004936255324,1.0803482697192313 l-1.028414928676138,0.5206875486331706 -0.7501270629916363,-0.7344554852003373 m-2.859694036621715,-36.81810916249443 l0.0014341123499805929,2.2717380897400883 -0.728892432898709,4.069984879105803 l-1.8279202395138094,5.306310302103722 -2.6323317804816537,4.987622339440103 l-3.349131985930397,4.353689842403859 m20.067281770150263,-26.072789958303364 l1.1284393448703163,0.2826151760917118 1.6254449051913733,-0.14647046672573352 l5.766737323913411,-1.7911570608245913 2.6080694530939024,-0.9183569190934582 l1.008301323445895,0.1505566763151083 0.3840707735146862,0.44088332640461386 l0.15584442563963394,0.695886778011689 -0.12282680197528653,15.774006478301818 m-6.87845745791714,-13.775618383038344 l-0.10085253506737232,1.974613088675254 -0.8472071139762224,2.6852212675228806 l-1.2651660652805325,2.5974654396898598 -1.535626001464971,2.3232668786595343 m6.804836679013718,-4.84201672504329 l-0.2008660375194914,0.9743040727851698 -0.33240282158179213,1.1345737427761466 l-3.6218503906339974,3.4805561121002007 -3.3002459651682834,2.7194894149076907 m-2.403580025185315,3.655111095100098 l0.16433591104248677,1.244958721282044 -0.3467190845062902,1.215886638415165 l-3.8514654568321807,3.8063617241522 -4.469393893141067,3.3081459006093197 l-5.989013504665521,3.426015222106638 m17.141840567298814,-12.412919968425628 l5.400671936770573,1.5260192164302036 7.323870288676264,2.0696418148468854 l3.134744885136441,1.8408922424986711 2.4140458017600377,1.6245712662961656 m-15.731421812477485,-2.658564318833645 l0.00962028207826396,1.0254878060918609 -0.605792355044433,0.8516483433425276 l-3.8927261399522495,3.6096497246064887 -5.278032105678353,3.2086869678462984 l-6.1209780738559,2.9388619286131465 m21.0087289623872,-4.786362494376342 l-0.11881278678515443,1.1307182915836398 -0.8328598559475715,0.8317282714404634 l-5.392400529345754,4.044162517487038 -6.606689157610012,3.4098346068273124 l-6.6055751852925075,2.4982712439652834 m24.117261594044077,-4.889991769112447 l-0.13463546895461237,1.2315975596793982 -1.1031116555239178,1.2245547092353115 l-2.4438608178153776,1.891486059370764 -3.3498045975665014,2.040607481907868 l-7.427099875151946,3.6337575435559177 -9.406951726703,3.4867183212996338 " fill="none" stroke="black" stroke-width="1" /></svg>