<?xml version="1.0" encoding="utf-8" ?>
<svg baseProfile="full" height="104.98568119063026" version="1.1" width="127.95333070786609" xmlns="http://www.w3.org/2000/svg" xmlns:ev="http://www.w3.org/2001/xml-events" xmlns:xlink="http://www.w3.org/1999/xlink"><defs /><rect fill="white" height="104.98568119063026" width="127.95333070786609" x="0" y="0" /><path d="M25,25 m0.0,0.0 m19.743531059080162,19.80278702518073 l0.3378806992118086,0.36286525175473633 0.33310182523977644,0.7586764221260859 l0.10989227211708794,12.125859521215524 -0.289096556834459,4.54617318039478 l-0.5669626309441738,4.18218823575637 -0.9441375489425136,3.6916961162812827 l-1.173616326700117,2.7706517745856187 -1.760070171845402,2.8283806732035845 l-1.9796640495590603,2.290732486258608 m6.821351455198467,-34.03507119029564 l9.874875071748631,-1.5653553413480592 1.407657111322735,0.14373702696819243 l0.5934998333715001,0.7282393098680303 -0.41901099339629116,34.27493396085449 l-0.47080608273813274,1.0224558079219772 -0.6619442878354901,0.3246755141477786 l-0.8036834089241465,-0.13913553900870632 -2.9569822769739718,-1.859685724958731 m-6.36611615391074,-23.660516310787678 l6.911933804553245,-0.6767848399739493 m-6.914341353556486,9.571161031924774 l6.763559793103086,-0.5433447298201093 m12.382354668186322,-19.848940599527676 l3.4597287377044488,0.21662015675326968 22.28625922654891,-1.5730089050000418 l3.3316074595576217,0.1712596264502074 m-30.45138347463169,5.9740392332507195 l-0.6221987665940151,2.7647716210964757 -1.9477911534963017,4.526721935535231 m3.053306972469828,-5.934165157898226 l22.672322519963654,-1.6966302290725168 11.962539662699779,-0.6212102212271886 l1.5911658517749705,0.07492275791184011 0.8149033209527745,0.29019500115474994 l0.2873621062333595,0.4473528712294962 -0.6997464774225949,1.1996710666621841 l-2.361991377225206,1.8960112440491401 m-18.1483380430619,-7.683258857540405 l0.975660561120498,1.2546376542143967 0.027356176475755747,16.550996057355075 m-11.952840312891242,-9.09861461013508 l3.101474572789234,1.0381672166031763 3.204801702813532,1.5768345428968968 m-7.056389039685224,3.098195770792698 l2.9967888598953984,0.9826364990013478 3.623426743312289,1.8640074863099592 m12.115516017315402,-9.00962832243703 l3.3179181426257376,1.137228311332939 3.046025436346098,1.3530521527279484 m-5.558938501974216,3.1765408521522156 l3.181103684223553,1.1619495047427284 3.157772035006666,1.7939193965719369 m-26.808834063464467,4.840574518172107 l1.46366459216404,0.39014052624996426 1.8657978750715114,0.11878021333762152 l18.071956859873993,-1.265730093768113 3.728477764980117,-0.006674383517023038 l1.1737095235440826,0.46828008180627034 0.30488070941331746,1.009942437550289 l-1.2551687762435466,15.400774172592985 m-29.777731733330913,-8.748172968995124 l3.7440954976233063,0.5063064438441917 17.355484605832128,-1.2296438608293245 l14.23305897893778,-0.721224388853102 4.473310479645793,0.42139518181283764 m-34.505273475466176,8.719743722441136 l4.450646687463419,0.44277904917006755 9.671169434626044,-0.6967723828772857 l8.093344279333474,-0.28675754177612967 2.727043113947006,0.08910591214830553 " fill="none" stroke="black" stroke-width="1" /></svg>