<?xml version="1.0" encoding="utf-8" ?>
<svg baseProfile="full" height="105.37579273209649" version="1.1" width="102.1008989921218" xmlns="http://www.w3.org/2000/svg" xmlns:ev="http://www.w3.org/2001/xml-events" xmlns:xlink="http://www.w3.org/1999/xlink"><defs /><rect fill="white" height="105.37579273209649" width="102.1008989921218" x="0" y="0" /><path d="M25,25 m0.0,0.0 m28.30053723074995,5.245137492688268 l0.3711479722529099,0.3761564085369393 0.4975903599782004,1.3442810942486416 l-0.04025522921861659,3.920895292690213 m-20.144575708354754,1.9639899959398324 l2.2709061400602084,0.2532651823417391 2.553571007779792,-0.05873162642379153 l32.05298301312402,-2.4896669819194495 2.8361394109633724,0.2571538964398515 m-37.64550415101914,2.8071740924301825 l0.530140605888371,1.2550385087020977 -0.24973867114015952,6.557870928766919 l-0.533390055088657,6.157939811782566 -1.0102966850105064,5.9242006722881735 l-1.2565484671852938,4.6180725969698315 -1.272373636594474,3.3383100677593185 l-2.1976779133172744,4.228839580283323 -2.0514598696346518,2.8300019161947123 m11.333162527370208,-28.55672846527936 l2.528597000206273,0.1686242388508385 10.425389718154673,-1.4600628198417898 l1.8746146040679086,0.0016425574377451689 m-6.796651823864222,-4.075874499405392 l0.5415807984836748,0.6696324698321771 0.20954433579664158,0.8489342873908882 l0.0029068628701014493,14.657793285629323 m-0.9207778704534895,-10.654390197468473 l-0.5419940180427746,1.767579505875327 -2.1423664305954007,3.025406972955833 l-2.734239097188632,3.1751007170234407 -2.3836036955097484,2.479381601078693 m10.106055202883496,-8.614750717694077 l2.381177091985177,1.556247613702813 1.86828481065341,2.303522721964074 m3.748066931685139,-7.132553158207715 l2.762049159678469,0.19253501111612387 11.999886997590416,-1.554354399172904 l1.9444285765165596,-0.014950610932918197 m-9.209102902788828,-3.2907500768114955 l0.4876488591844723,0.7959713071424209 0.13634623858105563,0.9436685770199966 l0.03451331934491589,13.726182869903969 m-0.715932879874073,-10.993809945897281 l-0.6364150072695857,1.7883584286808574 -2.6338810712428637,3.689920848776607 l-2.7463995367593808,2.761180694262173 -2.6986254910849854,1.9491574189797205 m10.460482650096392,-9.744740020217128 l6.114571519220995,5.187499393183359 3.9560123706745056,2.597663901516094 m-14.8058123931307,2.636226124434467 l-0.17973044436949784,0.4886312050406245 -0.8455015816268449,0.677631093564208 l-3.53155419476209,1.7439631042025074 -4.547614959642512,1.60680608069465 l-4.315494382860191,0.9276066063924305 m-4.657607685123633,4.93384794044976 l1.0497559322625594,0.20405775999479753 1.802833611630128,-0.024715123535068936 l17.328894525380175,-2.4372115281754354 4.349029015845121,-0.40478981450240276 l2.2107415809802586,0.14761102775717636 m-30.435635865689157,8.92179306279753 l3.9307285403828285,0.13668777568580712 25.232109826850017,-2.40833270349284 l5.432522151611397,-0.3726104624364232 2.316710209780125,0.20413803301932076 m-20.28075631271364,-10.01176086576261 l1.6422414940782777,2.0615724176852677 1.2090460496386075,3.7030792043325165 l0.4262133454706171,4.397062433388181 -0.4344464722831598,4.902730009955818 l-1.0987494021440514,3.553651317089294 -0.6295876874425288,1.5564610328929207 l-0.6826454946316008,0.9567907634650331 -0.7140988476629845,0.45468347000072895 l-0.7210682694958289,0.0972143260449171 -1.3794401071894373,-0.521384650644027 l-1.3879531533614538,-1.0286905657462515 " fill="none" stroke="black" stroke-width="1" /></svg>