<?xml version="1.0" encoding="utf-8" ?>
<svg baseProfile="full" height="109.1183123679366" version="1.1" width="109.49251225683838" xmlns="http://www.w3.org/2000/svg" xmlns:ev="http://www.w3.org/2001/xml-events" xmlns:xlink="http://www.w3.org/1999/xlink"><defs /><rect fill="white" height="109.1183123679366" width="109.49251225683838" x="0" y="0" /><path d="M25.000000023402432,25 m0.0,0.0 m-2.340243332454861e-08,18.161531686782837 l0.7695444673299789,0.12944184243679047 1.6561788320541382,0.04384525120258331 l14.326250553131104,-2.19704270362854 m-7.206780314445496,-15.247403383255005 l0.977497473359108,2.04264298081398 0.24238619953393936,1.7834210395812988 l0.014715548604726791,49.74356651306152 -0.412183441221714,1.5959417819976807 l-0.609138123691082,0.7045696675777435 -0.7417948544025421,0.006974419811740518 l-1.6270755231380463,-1.2988176941871643 -1.8429811298847198,-2.306602895259857 m-5.54451048374176,-18.290386199951172 l1.4717453718185425,0.7954328507184982 1.418953388929367,-0.32419681549072266 l12.967872619628906,-7.998026013374329 m9.275142550468445,-24.235572814941406 l-0.04158213268965483,0.8247052878141403 -0.522758923470974,1.1692067235708237 l-1.843150407075882,2.5370600819587708 -2.210156172513962,2.1864673495292664 l-2.729615569114685,1.9668392837047577 m12.713388204574585,-11.771255731582642 l10.207123756408691,8.741470575332642 1.92098468542099,0.9610845148563385 m-21.17093324661255,4.0067750215530396 l2.106940895318985,0.1940993219614029 10.517784357070923,-1.2629885971546173 l3.779701888561249,0.11943759396672249 m-16.936745643615723,6.789858937263489 l0.33274170011281967,1.2544859945774078 -0.15940964221954346,17.950961589813232 m0.5614222958683968,-18.279556035995483 l15.828114748001099,-2.348269522190094 1.2661612033843994,0.007423870265483856 l0.5566845089197159,0.256514810025692 0.49297887831926346,1.100171059370041 l-0.22176433354616165,18.33217978477478 m-12.691730260848999,-23.650801181793213 l0.32284319400787354,0.9759745746850967 -0.06143464706838131,3.7428152561187744 l-0.6123529747128487,4.231479167938232 -1.3683611154556274,2.8978052735328674 l-2.4944205582141876,2.2071103751659393 m9.080218076705933,-14.22946572303772 l0.40892627090215683,1.48325115442276 -0.11780899949371815,8.364819884300232 l0.2333337441086769,1.5360431373119354 0.33587194979190826,0.42064368724823 l1.2226755172014236,0.3632831946015358 2.4568569660186768,-0.07819387130439281 l1.2895114719867706,-0.3846876323223114 m-12.984116077423096,6.161770224571228 l11.456533670425415,-0.9078695625066757 m-14.695117473602295,6.215916275978088 l17.964158058166504,-1.6148504614830017 m-23.131003379821777,9.53504204750061 l2.7093109488487244,0.4365278035402298 17.408828735351562,-1.6979724168777466 l3.755674660205841,-0.24012308567762375 2.212524861097336,0.1915876753628254 m-12.864996194839478,-5.330634713172913 l0.3118448704481125,1.1363809555768967 -0.7460249215364456,3.9059287309646606 l-1.4192917943000793,3.746875822544098 -1.576990783214569,2.784437835216522 l-1.9350287318229675,2.514386773109436 -2.2595638036727905,2.169208377599716 l-2.5516116619110107,1.7492416501045227 -2.8118491172790527,1.2538091838359833 m12.680901288986206,-10.255178213119507 l3.4835928678512573,1.835874617099762 2.8209862112998962,2.0030491054058075 l2.585791051387787,2.3753000795841217 2.1989886462688446,2.691713571548462 m3.4788551926612854,-52.54289627075195 l3.118448853492737,0.04852483049035072 7.044681906700134,-1.1879884451627731 l3.2978060841560364,-0.8212365955114365 0.7262279838323593,0.15676844865083694 l0.5143832415342331,0.44128671288490295 0.35837624222040176,1.501525342464447 l-0.6351956725120544,2.285959869623184 -2.870224714279175,6.898488402366638 l-2.634522318840027,5.238926410675049 m-0.5265660211443901,0.69306381046772 l3.1688717007637024,2.996959388256073 2.2291070222854614,3.691376745700836 l1.373944878578186,4.071750044822693 0.6469131261110306,5.47547459602356 l-0.12783439829945564,2.548227906227112 -0.6856187433004379,3.323863446712494 l-0.7495782524347305,1.7468726634979248 -0.9543164074420929,1.2639614939689636 l-1.134350448846817,0.686972439289093 -1.2890039384365082,0.017301214393228292 l-1.4192917943000793,-0.7458557188510895 -1.5241989493370056,-1.6016948223114014 m-4.207113981246948,-36.86233043670654 l-0.1455321814864874,53.40651988983154 " fill="none" stroke="black" stroke-width="1" /></svg>