<?xml version="1.0" encoding="utf-8" ?>
<svg baseProfile="full" height="101.25433796227631" version="1.1" width="98.0778032696578" xmlns="http://www.w3.org/2000/svg" xmlns:ev="http://www.w3.org/2001/xml-events" xmlns:xlink="http://www.w3.org/1999/xlink"><defs /><rect fill="white" height="101.25433796227631" width="98.0778032696578" x="0" y="0" /><path d="M25,25 m0.0,0.0 m28.83122888984236,4.067440343367494 l0.3792797516388179,0.20906104160395797 1.4681121395525212,1.576695786423712 l1.1926952677273632,2.362058270309556 m-18.280949100964314,4.087824720057737 l2.8213364308639655,0.2567623106775929 27.56456399913701,-2.3764307602572354 l2.525953679457943,-0.08539182669041553 1.5504009292745338,0.3082068508231696 m-11.209067350722806,2.120250713094465 l-0.08077596607391659,1.2443982871626627 -0.42720977095559226,2.3239345156713 l-1.5194290851338892,3.2614510509525356 -2.6453500916530603,3.720315612361905 l-3.479948765011197,3.597664380457767 -3.2780470450876744,2.732907201718116 l-3.558034480387449,2.419557161793539 -3.888947960087575,2.027818353064681 l-4.207846410080812,1.590908412397231 m7.647836454085894,-19.22934915836307 l4.090600517800181,12.741414366182513 2.855980879696287,5.386602818734143 l2.7084862279654325,6.573040111867226 1.7844905200085737,3.2470579391845593 l1.743428273116392,2.513164655343998 1.99094992090177,2.0236739432074677 l2.390154942467488,1.5974943859794979 4.5029576420151125,0.9558064751501999 l0.7804419129891613,-0.8417817435176385 -0.17172688572387576,-1.3159484120897949 l-0.9469991198374772,-2.5729517989479342 m-14.382117454731853,-18.39541508620744 l1.6666593900847178,1.7547836451532062 1.2426277998521462,0.9623441442838422 l0.995833441260959,0.6734946682225498 m11.35616920355225,4.733772446571094 l2.478591083964031,0.9265839890916724 1.585473458854391,1.1473093594885155 " fill="none" stroke="black" stroke-width="1" /></svg>