<?xml version="1.0" encoding="utf-8" ?>
<svg baseProfile="full" height="110.77710848610211" version="1.1" width="107.24671275962706" xmlns="http://www.w3.org/2000/svg" xmlns:ev="http://www.w3.org/2001/xml-events" xmlns:xlink="http://www.w3.org/1999/xlink"><defs /><rect fill="white" height="110.77710848610211" width="107.24671275962706" x="0" y="0" /><path d="M25,25 m0.0,0.0 m7.7140800360602,17.808286623021942 l0.32335970275570364,0.30767659358905064 2.5410381181394195,3.2517969107018376 l1.1490564073976115,2.0803007727083815 0.6439842186757352,1.8364419182963243 m14.891072859188933,-10.786809071341274 l-0.30468969941810603,2.1362597533323426 -1.1640612293675998,2.9461042468889063 l-1.4376647072655735,2.5883512123522334 -1.8367582913438465,2.3549813317235038 m-16.25256157054073,6.08696162416822 l1.6917050848509398,0.3641599759255952 1.3452291676694206,-0.08379819353139592 l15.51537517646719,-2.550445187226568 3.3579795198513667,-0.1773749060523189 m-10.612723194417558,-17.0955755127136 l0.6682606267636161,0.7673489315452825 0.37266114092779884,1.648671891905476 l-0.254808791852488,44.80243125099552 -0.36447958796061536,1.6180634835516412 l-0.5596822866473282,0.7565127207091599 -0.6984628828246827,0.11676211555185309 l-1.5581751316733319,-0.9585086569148674 -1.697095749263715,-1.9064584422721913 m4.8681573973739996,-26.85560299764866 l-2.118165136576242,5.30882508699243 -3.0596885671445144,5.620821736257802 l-3.1516828464418842,4.495569259177054 -3.2319107418400406,3.3197894916084816 m13.55557811678715,-15.568895835192219 l2.0518308185495955,1.430627883198684 1.6638889716584864,1.571469549080959 l1.30766773287781,1.8108047451142877 0.7060769934842079,1.6664962893178892 m7.519219566016845,-25.17222532224494 l3.8964338960646936,1.8270118112871931 1.553593421458332,1.1334300622576308 l0.8293458715443017,0.9247868552227937 m-7.0465059729847805,7.273060587846292 l3.657317572682178,1.794931566114372 1.8147182781328401,1.540437016654776 m-6.900086825117622,9.506649509981852 l1.4322449776954567,0.31687242772901014 1.211092842065505,-0.04384733012178543 l19.333160368090965,-4.377325770911751 3.881787089077423,-0.6711572332234437 m-11.231739151215834,-27.665247870838872 l0.8214573417959461,0.801538380199656 0.4889352303360726,1.7074300018231008 l-0.1660344072679352,48.36598021054423 " fill="none" stroke="black" stroke-width="1" /></svg>