<?xml version="1.0" encoding="utf-8" ?>
<svg baseProfile="full" height="98.50389314923872" version="1.1" width="99.76718085369157" xmlns="http://www.w3.org/2000/svg" xmlns:ev="http://www.w3.org/2001/xml-events" xmlns:xlink="http://www.w3.org/1999/xlink"><defs /><rect fill="white" height="98.50389314923872" width="99.76718085369157" x="0" y="0" /><path d="M25,25 m0.0,0.0 m10.263007762476477,2.3866526030957544 l0.4740295506785942,0.35202111739800823 2.8807182429670286,0.8571103044381532 l30.985446915338734,-3.1453541396995766 1.961473998252055,1.064920057115982 l0.2721139917176054,0.7255220176847029 -0.032391498595041125,0.857235130168757 l-1.6185131453785875,0.9470958577647975 -16.4413443740999,7.941938209714395 m-6.971652653826538,-3.074424627047159 l2.453246029605898,1.128260107457233 3.204870666318481,1.8773650525571899 l2.263931016902612,1.7812910105528816 1.0197103387696365,1.3455656002026757 m-26.545507156372228,2.514226868717896 l2.153571731606761,0.5309316892117872 2.7900190773294606,0.04626322127539128 l38.85578562107005,-4.437341285484865 1.697594406453851,0.877703788086342 l0.10107033247660727,0.6339109095840518 -1.5590878648435886,1.9762762991105092 l-3.614298390755019,4.9197336381729 m-16.39495574786183,-4.7224463086837245 l1.0178602096006033,1.2138422486548415 0.40003455155446593,1.3112269759002404 l-0.09927580245725022,27.07970549798172 -0.4255291729643518,1.057040438486011 l-0.630261192244543,0.45762086682182357 -0.7683315004417047,-0.029309639215247374 l-1.7578646461889826,-0.9354401057230767 -2.9081437322266903,-2.6166091180495763 " fill="none" stroke="black" stroke-width="1" /></svg>