<?xml version="1.0" encoding="utf-8" ?>
<svg baseProfile="full" height="123.48855345934021" version="1.1" width="102.89916067560567" xmlns="http://www.w3.org/2000/svg" xmlns:ev="http://www.w3.org/2001/xml-events" xmlns:xlink="http://www.w3.org/1999/xlink"><defs /><rect fill="white" height="123.48855345934021" width="102.89916067560567" x="0" y="0" /><path d="M25,33.821919007263205 m0.0,0.0 m8.512203442592986,13.031032007717206 l0.38707905134625076,0.16679778670006673 2.4826237778610087,0.06267094352525399 l12.593991028901769,-2.4269871138284684 2.3134183881796635,0.0974800081004783 m-18.397474239765405,-14.423452028928768 l0.884610115583068,1.2809638181628595 0.35571888843798555,1.8969549789116487 l-0.3915296139197797,43.396063962529205 m9.261807084946456,-46.85299393095035 l0.5186730385625108,1.1063075007304801 0.3045175920539799,1.8889840525382602 l-0.097067516231524,50.48511508987444 m-9.077111118735216,-40.242912380697305 l5.996668054112162,2.804940665634569 1.7179818733602021,1.7105018098668252 l0.6768436540531422,0.9871286393308456 m-12.060192106959997,11.06212874450883 l1.2547562197670887,0.2796099674826415 2.169363924437033,-0.14330404400108343 l12.379980913573837,-2.590707931450291 1.7293096285937795,0.21856040189361298 m-12.113656931653768,3.3672382094343667 l0.042409615953166425,1.9367297895761222 -0.519860641930828,2.920146843250056 l-1.724752347693892,5.753402673621518 -2.0681146637776506,4.559244605761974 m9.893037998889545,-16.530802237880398 l0.5196541016472085,2.179552804905477 -0.29190966543809715,10.658429388214493 l0.23995255156074805,3.0982169317227535 0.7820226161431137,1.3062895063475621 l1.7252477256266254,0.6235617931086784 2.487686116211226,-0.09770693010539798 l1.436198465591162,-0.7602165617601836 0.5355930735530811,-0.9707083925059005 m-17.821757088208408,-50.66018037860529 l0.6995902656075133,2.5838134387725997 0.10874865957323471,52.6819836233523 l0.4435683930933036,1.4971807578417824 0.7794837759667409,0.8724264748218811 l1.4898481249377664,-0.11991155743927905 17.040716727654875,-2.5767036456551304 l1.0676432510307645,-0.3093426109872138 m3.8099785746881367,-49.30573563869893 l1.014347133648743,0.381460365500472 1.5691243453668073,-0.07975747569094975 l12.991126110548322,-3.4872665491146915 1.301584695642895,-0.004351686768355257 l1.1305660286075767,0.9404882074792588 0.2608696656682008,1.5182567069527948 l-0.15432425076662987,1.0914267970656941 -6.903110397618999,18.148460194585663 m-0.13667195165483864,0.4979336903897484 l3.0512999858873733,3.750819966306297 2.145895121997516,4.2123442178721575 l2.1354532038292473,3.345377066747123 1.7147110166590092,5.179283990725435 l0.700789188013873,5.243268012178937 -0.057276340464561724,3.1640810593310142 l-0.3703931862340307,3.245678748207581 -0.5749980087940583,1.8783524610657771 l-0.8287778628210557,1.2496818410435295 -1.0526883285869704,0.5288882875803705 l-1.2483742666502438,-0.2090397069554577 -1.3389422774799657,-1.832997581815577 m-7.2772075207911024,-46.28285708595508 l-0.14917627306687467,65.68531109060046 " fill="none" stroke="black" stroke-width="1" /></svg>