<?xml version="1.0" encoding="utf-8" ?>
<svg baseProfile="full" height="113.21285760516463" version="1.1" width="99.80771675322913" xmlns="http://www.w3.org/2000/svg" xmlns:ev="http://www.w3.org/2001/xml-events" xmlns:xlink="http://www.w3.org/1999/xlink"><defs /><rect fill="white" height="113.21285760516463" width="99.80771675322913" x="0" y="0" /><path d="M25,25 m0.0,0.0 m10.896691204450738,18.451425671612284 l0.5182744203866979,0.07683138722473946 3.5453239350032244,0.08794547626604886 l28.470705778456175,-3.085297024745687 2.870697298315094,-0.2507649189183208 l2.324798185575697,0.18395409389681575 m-19.874907480746096,-8.505828450260687 l0.8357798862640273,1.072839749586582 0.4278281689266712,1.5219819508448622 l0.01932357893110233,18.01952836281963 m-13.77232127763904,2.0649132119455826 l1.944569425955508,0.19130297490763915 2.721972850235419,-0.2348267821397305 l17.242049618368327,-3.4827297452258357 0.6929577933775996,-0.03646356093906671 l0.894176169979495,0.18831359977594775 0.45925486380421804,0.32330542591176864 l0.22450195244257848,0.46305327459384044 -0.025565419437280655,3.8635148595368496 l-1.5112158703163798,4.378541599853262 -2.601930438289406,5.065451109475558 l-3.3614178080658457,4.694245117475511 -3.714634701875106,4.100809450261438 l-4.027242132968483,3.646517725353943 -4.30121284798346,2.97731020126582 l-4.499005406676758,2.208255079300572 m6.737192478619203,-22.79708278424842 l1.461001560979032,0.7286411459824879 2.3018132857533296,1.6661892551578277 l10.853397492086305,14.969689320946097 4.168131158131835,4.614851246314024 l3.8450637152399656,3.3890525697842615 4.041665315944725,2.657387011548986 " fill="none" stroke="black" stroke-width="1" /></svg>