<?xml version="1.0" encoding="utf-8" ?>
<svg baseProfile="full" height="109.492512261495" version="1.1" width="109.23217515461147" xmlns="http://www.w3.org/2000/svg" xmlns:ev="http://www.w3.org/2001/xml-events" xmlns:xlink="http://www.w3.org/1999/xlink"><defs /><rect fill="white" height="109.492512261495" width="109.23217515461147" x="0" y="0" /><path d="M25,25.000000014821524 m0.0,0.0 m42.52432823181152,-1.4821524008112874e-08 l-0.1250800583511591,0.5918696150183678 -0.7295136153697968,0.9891168028116226 l-1.6975036263465881,1.3050580024719238 -6.6581326723098755,4.114598035812378 l-6.411653757095337,3.2375171780586243 -7.329707741737366,3.0364927649497986 m-2.0128047466278076,-0.24263771250844002 l0.6125162169337273,0.894046425819397 0.3006563149392605,1.0745842009782791 l0.06513586267828941,6.49199903011322 -0.42147498577833176,8.998722434043884 l-0.8412294089794159,6.242640018463135 -1.0624203085899353,4.3591561913490295 l-1.46174818277359,3.939822018146515 -1.9097316265106201,3.653010129928589 l-2.407171130180359,3.5006412863731384 m10.284254550933838,-30.094759464263916 l1.8249045312404633,0.2622839994728565 2.0070429146289825,-0.1037257257848978 l29.061148166656494,-4.008363783359528 3.1363645195961,-0.18894052132964134 l2.483995705842972,0.20377526059746742 m-19.749045372009277,4.23559695482254 l0.8631564676761627,1.4596675336360931 0.16593314707279205,1.3329069316387177 l-0.04588969983160496,34.20743465423584 " fill="none" stroke="black" stroke-width="1" /></svg>