<?xml version="1.0" encoding="utf-8" ?>
<svg baseProfile="full" height="111.06962484383547" version="1.1" width="102.93511192183665" xmlns="http://www.w3.org/2000/svg" xmlns:ev="http://www.w3.org/2001/xml-events" xmlns:xlink="http://www.w3.org/1999/xlink"><defs /><rect fill="white" height="111.06962484383547" width="102.93511192183665" x="0" y="0" /><path d="M25,25 m0.0,0.0 m13.355195009421285,5.330221012863362 l0.3979778892894845,0.25079737182774187 1.2937349051386018,1.0823936083842394 l1.6899099777956745,1.8962211134591922 1.4463246028767536,2.13832112472917 l0.77322348960576,1.8377275194823155 m-12.712912004828821,4.905539284693759 l2.0896797066051507,0.28427460914245506 15.697004931484308,-3.0364402709892624 l1.8180519519703437,0.20629239716293887 m-11.116482807115075,9.576142585108318 l4.862942996468885,1.6083131146859324 0.8465716290578976,0.8326517170933074 l0.2363714310847386,1.510143721595909 -0.726234130665169,15.6941051718726 l-1.0467395663884689,5.4934977909713005 -1.3158701661641,4.4414499896788024 l-1.3854257483418067,2.9819072987119535 -1.1652358924553852,1.252333878951305 l-1.1769626147184362,0.1346228443128602 -1.0496633028780527,-0.8786421733891936 l-1.151141469925751,-1.5315351551391236 m5.454184274548992,-33.942013064797216 l0.015502657588963785,2.2439761077900617 -0.7210481578855766,3.8418952805476785 l-1.3251656277952284,4.7694813586960825 -1.6505570694339773,4.60608112358037 l-1.640147156054314,3.631117856293733 -1.918645352692039,3.398985070932257 l-2.149141300655096,2.9833547511073975 -1.8468817917784666,1.9378023308819197 m30.884366621646244,-42.68286306893066 l0.0091831057497474,1.584429844968568 -0.4731100398636818,2.1342076356790445 l-2.4770935589177383,7.230254502758697 -2.7165762615508386,5.900217775087062 l-3.4201888669460687,5.5789886671577955 m8.852339576681171,-19.342431517131853 l5.043722061425771,7.3424138830639505 7.792815100180499,10.029469546912866 l1.8040454325053326,1.8384631228274295 1.7571874577651407,0.8063697560305336 m-19.83957077497532,2.318509978925982 l2.692404656486558,1.685707323915884 3.34443682184976,2.787358045081375 l2.7064235108849903,3.016336308118556 1.2570759007220682,2.16983224331763 m-12.815229646878379,6.911677477126934 l3.893416484884309,2.168749180878624 4.821689336682969,3.4097933693216396 l4.022961086153797,3.8189731035361283 1.97826329028037,2.8821482949471124 " fill="none" stroke="black" stroke-width="1" /></svg>