<?xml version="1.0" encoding="utf-8" ?>
<svg baseProfile="full" height="102.11073333112562" version="1.1" width="106.73530771156149" xmlns="http://www.w3.org/2000/svg" xmlns:ev="http://www.w3.org/2001/xml-events" xmlns:xlink="http://www.w3.org/1999/xlink"><defs /><rect fill="white" height="102.11073333112562" width="106.73530771156149" x="0" y="0" /><path d="M25,25 m0.0,0.0 m12.609406057876912,18.296157904322 l0.47817314613851064,0.09216102632182743 2.653175104270419,-0.01389801649875818 l10.455544837039021,-1.7986724782994448 2.470720471012299,-0.015674872674357066 m-7.76185643558821,-13.763842284684872 l0.7293437681068469,1.2703922324864991 0.2840356685162265,1.8937026867869866 l-0.029382037156388114,46.15040713336573 m-0.34305095598445756,-33.426097211601075 l-0.5462882690461323,2.539301385170419 -3.4151122154370697,7.092959347192351 l-2.9297089654870736,4.84500878731736 -3.739432375935896,5.362858488988551 m12.61676760962006,-14.217655536642248 l2.2649206471178314,2.3015703564127854 2.5528509516559006,3.7072995114862293 m9.122347935296693,-19.904439129735792 l-0.20945437450693355,1.4309502137923364 -2.2831531479251543,4.530025751338512 l-2.115623666066556,2.970049803756257 -2.4214315294239874,2.5118531300249747 m11.664868050433217,-14.64551925711885 l1.6029389390131255,0.5103961862429082 1.9713443185876873,1.4400019865416607 l7.495667819097509,7.401589127423143 1.9656226078109618,1.5005217725015714 l1.5920737525261155,0.944511310906351 m-15.62735893800702,3.6027468521232042 l-0.050843662888530955,1.510475772931708 -1.3959358339900854,3.2718094050085167 l-3.400433700443127,6.684332895998414 -4.359985562546404,7.0711766251081665 l0.23526894542228083,1.3728633944545026 0.7686244327345166,-0.035102399644611114 l9.556482344736278,-5.322118965629754 m-0.5593614968457217,-4.938302396318055 l1.6773462780131427,2.210360169656366 1.6520166201710806,2.8809619718350308 l1.3782735830366928,3.1674938216022395 0.8259935649070849,2.7918493323615623 " fill="none" stroke="black" stroke-width="1" /></svg>