<?xml version="1.0" encoding="utf-8" ?>
<svg baseProfile="full" height="86.25327607809905" version="1.1" width="102.75685637201876" xmlns="http://www.w3.org/2000/svg" xmlns:ev="http://www.w3.org/2001/xml-events" xmlns:xlink="http://www.w3.org/1999/xlink"><defs /><rect fill="white" height="86.25327607809905" width="102.75685637201876" x="0" y="0" /><path d="M32.157471865876815,25 m0.0,0.0 m25.09856545068013,1.1122737590960523 l0.3731863462159384,0.3719012571727845 0.6159278553250781,1.2138483513617582 l0.07467131146044288,4.905439218501971 -0.6742580203936419,4.645383753791458 l-1.413742098491208,4.153696202239878 -2.143585255766581,3.7968827314293385 l-2.880820394595572,3.0929391887295257 -3.985165452309081,2.5520876875805896 l-3.62799904495269,1.5595252112854652 m3.813515375729605,-16.717777768608844 l3.056828425507715,2.2113857882183128 3.3780963953488405,2.919230003487117 l3.4064504816766377,3.114687015581486 2.3392856429397595,3.4377445430915485 m-34.58842888425219,-17.922369250611464 l0.7057303690988488,1.0097138021296412 0.24317129835120566,1.5035100857003763 l-0.7796831154531466,26.334497235942578 0.34380781971426927,1.024898090136536 l0.7669003260520857,0.18106566028024157 2.1322925933865124,-0.06192359051253909 l47.05929278157999,-2.4598449263877082 m0.9623597892207744,-28.292588827370587 l1.1588741296947347,1.3551041589170816 0.1641103803734759,1.2946957779550616 l-1.4714965551944597,29.917270918961403 " fill="none" stroke="black" stroke-width="1" /></svg>