<?xml version="1.0" encoding="utf-8" ?>
<svg baseProfile="full" height="107.1059891169848" version="1.1" width="105.79634260522985" xmlns="http://www.w3.org/2000/svg" xmlns:ev="http://www.w3.org/2001/xml-events" xmlns:xlink="http://www.w3.org/1999/xlink"><defs /><rect fill="white" height="107.1059891169848" width="105.79634260522985" x="0" y="0" /><path d="M25,25 m0.0,0.0 m12.283507468833177,15.8511382133824 l0.5718625373731838,0.10747206400162305 3.6897690331782775,0.05579681529050295 l29.627227941126176,-3.2094656470499263 3.021316181426593,-0.23118005271611208 l2.340043674577775,0.19990457447486962 m-20.488676166965124,-8.554259065968749 l0.7968297627390998,1.1341722224485233 0.4086077492340557,1.5887644542717267 l0.011525372285912097,18.457651713757446 m-14.764792694125063,2.312334718297927 l2.131896350080339,0.20748172661698427 2.768436990610721,-0.240496245482565 l19.072138274311037,-3.8051814259843373 0.7424566317859469,-0.039226447620090435 l0.556733129957259,0.2071006700161566 0.32876281045283456,0.37844133834555654 l0.13925740037621614,0.5321109207334459 -0.1328805991409938,3.5050464668353376 l-1.6879725583631673,4.926248490470718 -2.7832481111339233,5.323457543209891 l-3.607320154871928,5.0010574680867474 -3.9822453390930037,4.312692232212501 l-4.348251733645944,3.789647860949064 -4.624713361337607,3.0669448471662455 l-4.883342681070488,2.2283336612389038 m6.97438416708458,-23.78646182107346 l1.5755244378647852,0.7327129287617019 2.51227140395997,1.726561696033072 l12.023231155278104,9.58686466326116 5.588469515416537,4.239763597471079 l4.705700383968817,3.2930270921134634 5.229833633055705,3.0586910813604016 " fill="none" stroke="black" stroke-width="1" /></svg>