<?xml version="1.0" encoding="utf-8" ?>
<svg baseProfile="full" height="107.18177352829318" version="1.1" width="103.44844875435015" xmlns="http://www.w3.org/2000/svg" xmlns:ev="http://www.w3.org/2001/xml-events" xmlns:xlink="http://www.w3.org/1999/xlink"><defs /><rect fill="white" height="107.18177352829318" width="103.44844875435015" x="0" y="0" /><path d="M25,25 m0.0,0.0 m12.90620311073543,18.16179981420561 l0.5711638035410105,0.034566193010423955 3.7879543243351175,-0.04205918426124824 l30.367850422663462,-2.9929621003278664 3.27841020439253,-0.200474608779116 l2.53686688868261,0.19197100572815573 m-21.009270709012124,-9.880358813517512 l0.8590016561162986,1.1387678155809624 0.3565977493825849,1.6382864183227712 l0.020569666996496882,19.952404495031818 m-14.132320455660373,2.2724073535472153 l2.076941951864277,0.22906404983788117 2.679069130842238,-0.2442940394494852 l17.68164162863628,-3.527598587924215 0.7499634327925867,-0.0378420253983139 l0.9135534704484678,0.18198899326682969 0.467862228295915,0.31038438107793276 l0.25475398685944445,0.4496674373853599 0.009333406198228509,0.6315841286436247 l-1.661917286929202,3.030813334540035 -3.333505580199577,4.888149674485944 l-3.679731838966681,4.232354158768534 -4.200137501028743,3.833830486693325 l-4.527263615980474,3.302464655852656 -4.79115242064547,2.7148394963334366 l-4.888207122884622,2.090453026118796 -5.024253695984724,1.4834764856037608 m8.736323526800621,-19.389536250092583 l1.6373663382871053,0.6997764051167036 2.5424752632172236,1.5077406842564123 l12.1701154280925,10.922709954123475 5.089102965674875,4.005798573005843 l4.464645317598149,2.9532986563992325 5.0654280547253006,2.6383014611067677 " fill="none" stroke="black" stroke-width="1" /></svg>