<?xml version="1.0" encoding="utf-8" ?>
<svg baseProfile="full" height="128.18954288739366" version="1.1" width="113.4475176004591" xmlns="http://www.w3.org/2000/svg" xmlns:ev="http://www.w3.org/2001/xml-events" xmlns:xlink="http://www.w3.org/1999/xlink"><defs /><rect fill="white" height="128.18954288739366" width="113.4475176004591" x="0" y="0" /><path d="M25,32.306434586269255 m0.0,0.0 m19.41304446471727,3.8661128927669917 l0.3041549501531686,0.45920275041140524 0.49929890623694606,2.0878986276099964 l-0.022766545196508017,7.7042230235407825 m-13.155892697872286,1.8136613581833696 l3.540114157048,0.24982105841299607 17.03180553193183,-2.7549879164932682 l3.5774935654047533,-0.2805497756481568 2.118050169279051,0.17842516781181852 m-22.824150791034146,3.5737987987488093 l0.6341762724952584,1.8469224551250933 -0.10300400838937786,8.32284141602957 l-0.39516744605988713,13.76535773497967 -0.6089800859020216,7.365190455719828 l-0.7419852133077401,5.3505910187590775 -1.1224872713618232,4.658420717481083 l-1.5372743963409612,3.9930899728049356 -1.8619909896458315,3.1273172240965774 m9.902739738967561,-38.53223584073795 l2.061471803192196,0.2900528242673316 14.843369368460735,-2.759162614589597 l1.2930489799348233,-0.16011984433950313 0.6077833534100596,0.318269060983237 l0.5218596659511493,1.3905398993677975 -1.3036849073377144,8.292224138545437 m-12.891529176357345,-13.452365046966063 l0.5092016781991516,0.9183512300396091 0.290593096321137,1.724938992646045 l0.46563826449355294,13.531738461234042 m5.881688586203913,-18.31847692875933 l0.5266254720133051,1.0331598618161586 0.14654022911314135,1.265343127443654 l-0.7706398598066417,14.811698846211085 m-12.019366131435758,2.3115594504192813 l1.9176475971036477,0.2542011635630735 13.162918536279179,-2.265098380033193 l2.5101278092355632,-0.24903606626260444 1.429466830066395,0.22146187446583115 m-15.758240767942253,15.37069886854995 l4.197234505842802,7.576136150703673 0.9141789205301474,0.4229574716009839 m7.739529322624259,-11.541363837728468 l1.7729224538140869,1.4573740831464503 1.5951484200268677,2.1874278851144493 l1.3226769204369342,2.399041519278917 m-16.92303394376036,15.99136620615162 l0.9695146286032594,0.988205765336563 0.9208180466147333,0.0768829993153522 l15.467249793344191,-9.60257220642502 m1.9306590502295706,-53.11660906664102 l0.7047420049227945,0.37405653799903077 1.3949794473821366,-0.09207196054350493 l6.845084549469891,-2.76575714338257 0.8258781972241955,0.1628564284418273 l0.3753195930227815,1.3618247846551128 -0.3101643935462853,52.00167658717645 l-0.5054155998290809,1.8183506330708712 -0.6857432623669227,0.4864513948470101 l-0.8104833750940496,-0.27443291640736905 -1.652148999788098,-1.676352905089083 l-1.5609608319819073,-2.466016079204692 m-5.089026981101939,-51.01511126220687 l2.791845211255758,2.9475367507996255 1.6053990140776893,2.6927291412129284 m-5.020911354567228,17.598152340621464 l0.863866612388354,0.36327187419531376 1.1109849857727938,-0.45724499994297413 l4.579858578343726,-7.029532245289094 m7.759213009029331,-27.344076533196617 l2.430928333806431,0.15281771862104665 8.104446260004684,-2.309489760705523 l1.253547865721376,0.4391262780439256 0.4576818797846828,1.1170079808667235 l-0.022213576829911586,51.66108698725168 -0.26726735645543925,2.140565414111989 l-0.501798348783829,1.048924376162922 -0.7151465934696383,0.17619262083072826 l-0.8113917418522867,-0.4616452348134268 -2.062571493412593,-2.7726646194808366 m-5.747389131203877,-38.32308376323709 l2.4172090068032417,2.3814300722835435 1.7531926806167286,2.840510677217755 m-5.297736228191108,14.711007992541218 l1.059961775058801,0.2944780935458686 1.1378230720384561,-0.5812584247203265 l5.244851888835544,-6.731733892536473 " fill="none" stroke="black" stroke-width="1" /></svg>