<?xml version="1.0" encoding="utf-8" ?>
<svg baseProfile="full" height="101.60143744562508" version="1.1" width="108.45028249549637" xmlns="http://www.w3.org/2000/svg" xmlns:ev="http://www.w3.org/2001/xml-events" xmlns:xlink="http://www.w3.org/1999/xlink"><defs /><rect fill="white" height="101.60143744562508" width="108.45028249549637" x="0" y="0" /><path d="M25,25 m0.0,0.0 m13.082043670906387,3.881969603483653 l0.5458180907042207,0.3370722433945917 3.295997828631368,0.9218365043909871 l33.49542932215417,-3.4511276893439304 2.2256218007860324,1.0158031285300142 l0.22795103027960373,0.6451876204359377 -0.02859667297024934,0.803774826317768 l-1.5090418374810954,0.9976344057725048 -17.09133190334426,8.57704121153096 m-7.043809715326397,-2.9291681712231745 l2.648440637324039,1.2301929683757928 3.370154917059857,1.8993735284219209 l2.3452414460349904,1.766620180707259 1.0932493483151557,1.4473813946026697 m-28.3552781430859,2.8305568018540983 l2.3059723178144576,0.541120458929767 3.095360575521663,0.04983944796586083 l40.51990182500409,-4.411058254134489 2.5336461603179075,0.029372425044756675 l1.1060664557437199,0.29574576759209503 0.5213663199155438,0.47576421424312637 l0.06607902119105555,0.6441539445036284 -1.9435408341200338,2.229941778926815 l-5.037838427091448,4.712765244528538 m-17.76131321463839,-4.878957449353301 l1.1114058458724507,1.2538068893105618 0.4632641668498211,1.3709469322104366 l-0.4250969160804878,28.100831954813657 -0.6046374454153364,0.9806472260277632 l-0.7737770246254662,0.23236830776481301 -1.8452434215484714,-0.8026778279930424 l-3.093367341266774,-2.8125008146739083 " fill="none" stroke="black" stroke-width="1" /></svg>