<?xml version="1.0" encoding="utf-8" ?>
<svg baseProfile="full" height="106.09293096931651" version="1.1" width="109.49251374811865" xmlns="http://www.w3.org/2000/svg" xmlns:ev="http://www.w3.org/2001/xml-events" xmlns:xlink="http://www.w3.org/1999/xlink"><defs /><rect fill="white" height="106.09293096931651" width="109.49251374811865" x="0" y="0" /><path d="M25.000003981404006,25 m0.0,0.0 m2.5995850563049316,19.136863946914673 l0.5952010303735733,0.16781035810709 2.4803969264030457,0.022858378943055868 l20.151371955871582,-2.6162853837013245 2.957836091518402,0.06890896242111921 m-12.521765232086182,-13.50154161453247 l0.5381707474589348,0.911138728260994 0.2887263335287571,1.9625820219516754 l0.041345381177961826,45.24604797363281 -0.15351071953773499,1.4144857227802277 l-0.4199044033885002,0.724065974354744 -0.6251461803913116,0.16890386119484901 l-1.623091995716095,-0.7879936695098877 -1.712590754032135,-1.3885781168937683 m-10.309191942214966,-24.5051908493042 l1.7142732441425323,0.8985213935375214 2.359270453453064,1.737489104270935 l2.6723483204841614,2.9386579990386963 m-9.033328294754028,11.918824911117554 l1.2216930091381073,0.4187268018722534 1.8081460893154144,-0.8303038030862808 l9.365920424461365,-8.154237270355225 m14.373650550842285,-14.212149381637573 l-0.07583009544759989,1.0265451669692993 -1.4822827279567719,2.8592529892921448 l-3.747848868370056,4.748486280441284 m1.5436869859695435,4.893501102924347 l2.1469631791114807,1.6156898438930511 1.9144679605960846,1.9339826703071594 l1.6513548791408539,2.209208756685257 1.3569507002830505,2.44069442152977 m-5.3483980894088745,-36.585516929626465 l3.1391891837120056,2.4268995225429535 1.967124342918396,2.6307952404022217 m8.791075944900513,-9.15176272392273 l0.1705441065132618,1.3650257885456085 -0.23253722116351128,1.3085001707077026 l-3.515605926513672,10.304818153381348 -3.6112451553344727,7.878590822219849 l-3.5335224866867065,5.740039348602295 m8.349637389183044,-10.379174947738647 l2.0396317541599274,0.0758090615272522 16.397132873535156,-2.7207988500595093 l3.441668450832367,-0.10434523224830627 m-10.465309619903564,3.714539110660553 l0.33747125416994095,1.0322649776935577 0.0132481858599931,1.2664425373077393 l-2.184310406446457,8.001062870025635 -2.6129627227783203,6.50851845741272 l-2.58739173412323,4.7414204478263855 -3.0853551626205444,4.315459728240967 l-3.63715261220932,3.8760405778884888 -4.242110848426819,3.4238359332084656 l-4.89888459444046,2.957499623298645 m6.960722804069519,-29.522509574890137 l1.4042235910892487,0.8226072043180466 3.0005669593811035,2.970621883869171 l17.28808283805847,19.31694746017456 3.7865418195724487,3.4591645002365112 l2.2835667431354523,1.3379405438899994 " fill="none" stroke="black" stroke-width="1" /></svg>