<?xml version="1.0" encoding="utf-8" ?>
<svg baseProfile="full" height="104.23292042635987" version="1.1" width="96.92952660016982" xmlns="http://www.w3.org/2000/svg" xmlns:ev="http://www.w3.org/2001/xml-events" xmlns:xlink="http://www.w3.org/1999/xlink"><defs /><rect fill="white" height="104.23292042635987" width="96.92952660016982" x="0" y="0" /><path d="M25,25 m0.0,0.0 m15.14477754593875,4.249863371298531 l0.379649671959635,0.41284683553936913 0.404151869316014,1.4617069528110966 l-0.03114019842788496,13.642425997470013 m0.6390402762827108,-8.682961215632178 l7.35242378323858,-1.3123547276154786 1.7106081945403542,-0.04338584581243329 m-17.336838744652436,0.17851628930052674 l0.6461999201897968,0.8795834953130405 0.24384326526209624,0.9419770495214447 l0.12252263883951234,10.346026279979949 m-4.949946607589508,0.8873598269784001 l0.6604040931943629,0.452490252555132 1.350945761053104,-0.0027997911911528998 l19.15818269654305,-6.999658855831781 m17.165231388543916,-11.82789887882679 l-0.5608670836231281,1.228922919856154 -2.705090304260021,2.0886909788531236 l-3.7630120654294013,2.143704700974511 -3.86130262875673,1.684075882139784 m-2.353541627519464,-9.760691069392688 l0.5286329090417402,0.7985260861165252 0.15539319142794233,0.9625367019434872 l0.06744182763502111,14.027308043780204 0.4138734059575853,1.530067465711143 l0.7819374393998241,0.798830225837709 1.4866404176613863,0.5604822843464324 l3.2007349268501275,0.3728648402947443 4.226135458430469,0.01952260957451193 l3.3540736538566582,-0.3453888369551945 1.3268809630823124,-0.4917780898942656 l1.1862475333745701,-0.826176471055129 0.5706885462906033,-1.0277211833774673 l0.21460448251828468,-1.513427418378143 m-29.621672500226992,6.296627548592763 l0.1555200351247116,1.616970693739806 -0.03740503982005023,1.0741939266220768 l-1.117393645166819,8.998128963744684 -1.0315186011523605,5.134144187566223 l-1.2844536948597522,4.371212421770516 -1.4291964354013698,3.6876319437776255 l-1.6969387345398446,3.2692894804169823 -2.0573630443329236,2.9506345538960597 m13.478984371301351,-28.503214760105713 l0.5819159427906011,0.8696165324360212 0.16745174265976617,1.0546496916323589 l-0.023339024705614542,22.892346049075726 m9.163578513358534,-25.111588580585895 l0.47091678769259543,0.7712402816770675 0.19952353367910391,1.564700388660482 l0.009546176449245786,21.19421034968435 0.20287155974737617,1.62517841867714 l0.3510210075019382,0.9776987362724718 0.8169299798899965,0.6605287285800407 l1.7718955485009007,0.29420860342868294 4.424338358402172,-0.05070728811415037 l2.5194575476440453,-0.37477198710526083 0.9446766983300983,-0.35367362820771353 l1.061344301894959,-0.9125102758131728 0.5181475179317407,-1.039658617326561 l0.27474340620685567,-1.967981527274303 " fill="none" stroke="black" stroke-width="1" /></svg>