<?xml version="1.0" encoding="utf-8" ?>
<svg baseProfile="full" height="101.60594945196482" version="1.1" width="98.5219477571868" xmlns="http://www.w3.org/2000/svg" xmlns:ev="http://www.w3.org/2001/xml-events" xmlns:xlink="http://www.w3.org/1999/xlink"><defs /><rect fill="white" height="101.60594945196482" width="98.5219477571868" x="0" y="0" /><path d="M25,25 m0.0,0.0 m26.05682006196448,6.3258893971724515 l0.34684558802535653,0.21502983813383308 1.3507863871657046,1.3724139521600598 l1.280095622525474,1.743604226775705 1.0883732374549864,1.9542455183444052 l0.6258469812164752,1.5956166991953924 m-19.640154037152904,4.6797620403024505 l2.83247009701304,0.28728707515599283 31.683622247972924,-3.1478212729324686 l1.5145469726110374,-0.017157246728882736 1.3826945983902175,0.38116198921224104 m-20.231255022361818,10.283117448470428 l4.886041569391006,0.28498801842358995 4.533859311282106,-0.22738115836084732 l0.9203165231812422,0.1288262996876488 0.690681538483129,0.6093498312004708 l0.2289709407341934,1.0403112035555995 -0.916327587730279,4.0132301266628145 l-1.9677640357616688,6.045580166682095 -2.6952039223759954,6.721106569934221 l-2.0969068718201513,4.232052475070063 -1.0008435826599242,1.5643585499579076 l-1.0666085096006441,1.2186799409525506 -1.065794993358625,0.30169776293709005 l-0.9410697396716735,-0.6378991450582484 -1.333045304741725,-1.9190686592065072 m1.5604408481592782,-30.981695990109277 l0.14202423153069202,1.0941959909850307 -0.10948376910847026,1.099106377491082 l-1.0731953749417806,3.6192880303656354 -2.077405188552797,5.140994571225482 l-2.351561164176182,4.541717735645119 -2.325415464094295,3.7111602671156017 l-2.673070652572199,3.461025953579172 -3.0075414924622894,3.032603617365172 l-2.477256261934613,1.9200123460959087 " fill="none" stroke="black" stroke-width="1" /></svg>