<?xml version="1.0" encoding="utf-8" ?>
<svg baseProfile="full" height="104.88256598400345" version="1.1" width="96.75191879347392" xmlns="http://www.w3.org/2000/svg" xmlns:ev="http://www.w3.org/2001/xml-events" xmlns:xlink="http://www.w3.org/1999/xlink"><defs /><rect fill="white" height="104.88256598400345" width="96.75191879347392" x="0" y="0" /><path d="M25,25 m0.0,0.0 m13.122018600128468,18.60604954821286 l0.3405887619317946,0.1135472034801114 1.481138369485419,0.005190105714144293 l6.8432789609172335,-2.0922714494978054 1.5133197440868429,-0.09642306391776777 m-5.14878115538288,-12.251249417429495 l0.4932347582534511,1.3518761725543342 0.150688834947107,1.5117190390327657 l-0.011601191654597214,47.7341278458543 m-0.30225110680037304,-35.33187821442203 l-0.3265444207434944,3.0708295610792002 -1.8907728381183582,6.878752332415164 l-1.8918569946078063,5.5855673681023355 -2.6377555985507852,6.8313851593453245 m8.199740260077895,-17.581969265449068 l1.7012658113298842,2.505945385328092 1.7514840574772883,3.150555534187484 m1.0597011957477676,-24.0166226937618 l0.28291391863098536,0.9104175707951543 0.13591116407936238,1.2650986287658268 l0.04096400568602479,17.29414467875874 -0.3849249097413338,6.606457968758471 l-0.6190955363771735,5.005031777569899 -0.6773130548519483,3.493341343176027 l-1.2368200422052211,4.33852413862425 -1.2924874831633884,3.0549772704468183 m4.855183518989537,-41.3855944808809 l13.737094800685599,-2.2812329834365443 1.6032122987862925,0.10800905974768946 l0.5719545249043251,0.6981973178699322 0.17500646425471644,1.9122563217382895 l-0.34423636099368704,10.66861515104494 0.1569793493555773,7.517930824851511 l0.5336805097804276,5.868442693467972 0.7456348988458007,5.051531522552192 l0.7251774372960941,3.4740033827133563 0.9173322038708343,3.0082165165936923 l1.1653430446537958,2.484533577795464 0.5516775457423564,0.675845512083832 l0.3328784127223001,-0.14150228340708804 0.21553181807322175,-0.8661441469382748 l0.11342421592457058,-3.4558465160688527 m-9.169535312934046,-36.351358658444525 l-0.27128579334003966,0.9236358099016576 -0.5542612745478636,0.7893405994159672 l-2.3078561028136764,2.2063702075636256 -2.9661024761278236,2.1540238114778263 l-3.6308389197197353,1.8955568510320382 m-0.18342101322068863,5.742216026497375 l0.39422525025812827,1.6957321515567476 1.0403456264253164,10.861369371335673 m-0.8608016881516928,-11.837948951217019 l8.393792304566558,-1.4655421651692668 1.2140868547373356,-0.03696845938600043 l0.36718012780663556,0.20385297301795144 0.2730701661386814,1.1625866529453894 l-1.0419380440765746,9.544398206943978 m-7.756226006804715,1.2093166846288708 l8.697745923646888,-0.9872591782815419 m-5.4616258740285,-17.28239307728586 l0.3219739737996205,0.8928452530375872 0.06823093459394791,1.1002733832559726 l-0.018438934116591515,26.95485148460403 m-5.925341778984268,2.1301664827951545 l0.7345430184673081,0.7644158883806469 0.7759543592858279,0.06341423909264965 l9.142895161452005,-4.585703279046682 m-1.0486150320061,-4.389720700134521 l2.0393224233574117,4.647977318396668 1.2671808598452539,4.453407686203559 " fill="none" stroke="black" stroke-width="1" /></svg>