<?xml version="1.0" encoding="utf-8" ?>
<svg baseProfile="full" height="95.6560135261002" version="1.1" width="101.69997809340313" xmlns="http://www.w3.org/2000/svg" xmlns:ev="http://www.w3.org/2001/xml-events" xmlns:xlink="http://www.w3.org/1999/xlink"><defs /><rect fill="white" height="95.6560135261002" width="101.69997809340313" x="0" y="0" /><path d="M25,25 m0.0,0.0 m12.599599197216289,11.170743173601254 l0.4678748114766923,0.13448796381942602 2.8006592864309634,0.07367716482762114 l25.14525485328431,-2.407006214804152 4.044223708936205,-0.15171977342243131 l2.2509432979115997,0.24001388918422037 m-27.494373884772727,-3.77431776567554 l0.8827732140044388,1.168323472761061 1.217784441576269,7.8901629904305315 m13.247677352417965,-10.465332118144001 l0.13670471839405124,1.2152580766911418 -1.9964879995685847,7.649602382642071 m-20.320751977767202,7.0100132714911245 l0.44381129621265325,1.3476209541347022 0.046668775730813156,7.060041344961508 l-0.2288576445439075,4.424772280734451 -0.5676544963604306,3.6757112604451723 l-1.0383729764939555,3.264151031368877 -1.0981748323898848,2.167628455608146 l-1.4147714363660182,2.103647644588385 -1.6938951534809745,1.8585340408566366 m4.089960371408203,-27.608423681120204 l2.651539298420616,0.2430075559379783 23.389027529856453,-2.362980733360398 l3.5960776447117273,-0.23188323159565932 1.623723898768068,0.23321285833818817 m-23.902671359815663,6.502040660124244 l8.811203341721638,-0.8421779238586331 4.830984294519697,-0.24871266964875935 m-14.210299208274865,0.41132983036402254 l0.32479909466222484,0.3962508578015386 0.16192954331876222,0.7819662263190169 l-0.062315317437768185,21.518343018579213 m7.012279067929493,-22.410701745473524 l0.0556059288643172,5.665927867190508 m-6.677577930349404,1.0396368546132422 l13.002807208079044,-1.6085592547191376 0.4636919896653028,0.2642595698042269 l0.1451571727537607,0.9346426845085526 -1.0433357061187818,4.733614913844281 m-12.52923661113314,2.0058106025328937 l13.413503979725526,-1.6947152753390229 m-6.416853531369849,0.9911708767276196 l0.0005783631391745921,5.343818134110078 m-7.153072058037233,1.3014145247230484 l9.8216609711633,-1.2369090550599133 4.8095969091843855,-0.27957713499202597 m0.8982129762801953,-27.64613956584176 l0.7813995667907556,0.9202590226917152 0.2870459868362636,0.8598707671694186 l0.8586368691779385,6.819991639929902 1.450026316420845,6.061169079141882 l2.0810875181944324,5.702587071030672 2.1265555016146274,4.083689207376494 l1.832906629475485,2.7392197230763347 2.005354908841564,2.322624856233785 l2.233900732172776,1.9012767424529693 2.9630164655443645,1.3818467488869708 l0.498727527442996,-0.3909580867486003 0.043707657407362155,-1.572560258757097 l-0.2877775800679298,-1.6720712523129295 m-6.752225248674565,-18.830059556303056 l-0.033179882694106065,1.7444380275685096 -0.5106558372134561,1.8449330536631947 l-1.153381787957895,2.8944410507771887 -1.6416152951235186,3.3031206467783414 l-2.1158594532438837,3.503626301032822 -3.7658288782089966,2.706340322478368 l-2.349170769523653,1.062699521385074 m11.332772498820983,-28.493280304946484 l2.5475347697089528,2.126514914684845 1.6836361105944015,2.358805475901762 " fill="none" stroke="black" stroke-width="1" /></svg>