<?xml version="1.0" encoding="utf-8" ?>
<svg baseProfile="full" height="101.91417262949727" version="1.1" width="99.35236025613528" xmlns="http://www.w3.org/2000/svg" xmlns:ev="http://www.w3.org/2001/xml-events" xmlns:xlink="http://www.w3.org/1999/xlink"><defs /><rect fill="white" height="101.91417262949727" width="99.35236025613528" x="0" y="0" /><path d="M25,25 m0.0,0.0 m8.555854271749421,16.54283870209004 l0.4063783515919549,0.1446443316428712 2.244661701990685,0.11428539749185954 l13.822488077857601,-1.9783216042989107 2.5085187327861678,0.08447120473493955 m-14.098819542355013,-6.924294432885515 l0.5102547242152828,0.8595222857153014 0.22151623054513134,1.3834426093417695 l-0.03574412891507928,28.329134833462327 m8.161307748812158,-33.35605643471221 l0.4790055104104389,0.9375501779260506 0.16058457687662114,1.614015680696026 l-0.027208481695325058,29.105505566872065 m-8.585771838552985,-13.403259360532346 l8.070413170207257,-1.036995201784596 m-8.009801293976192,7.960485770891307 l7.975560437721617,-1.117454960353778 m-15.575163889712446,9.81871619861249 l2.407540322172538,0.15857474924157722 16.257399414282467,-2.2495218326068325 l2.6176105198364055,0.14382644116886292 1.3806975892239792,0.29738396928976607 m-13.146678647995513,3.937845988753324 l-0.018525630559576664,1.15045658533981 -1.4671009734933145,2.955500420756999 l-1.9763465658189008,2.830683965240833 -2.315232291405048,2.46586441587454 m11.59597111610533,-9.689082183044288 l1.2085816554877284,1.106117386979617 1.3840383985629334,1.8406605647064256 l1.1179639049012913,1.963769554102193 0.5896799777377156,1.6051183382306735 m18.886517563841522,-38.59044915047465 l-0.07759984107152117,0.8944239967487935 -3.0558735745073893,3.144274700205237 l-2.618292695984884,1.7721017649482156 -4.187629757772396,2.2666436307398885 m-1.953227711924393,-0.38349819970048027 l0.3649195106023559,0.767269570712526 0.14905008046203375,0.9794893599567311 l0.01067620558461806,6.55562052383015 -0.2308031993797184,6.642539679172692 l-0.5522872289015015,5.586584269048633 -0.774216941794545,4.121382045647888 l-0.8094040507992559,2.9451981624140453 -1.4178771228180513,2.8240893905934388 l-1.5624460089701326,1.9972392797654859 m6.748248712055636,-23.420121056069604 l11.859890910728481,-1.9416750980169784 2.1530822581890985,-0.10631778243007792 m-7.502520893358324,2.6643681035876012 l0.4928822813239461,0.8439505130825573 0.13866703357069896,1.1736224226619303 l-0.06680128503197372,23.582007374130047 " fill="none" stroke="black" stroke-width="1" /></svg>