<?xml version="1.0" encoding="utf-8" ?>
<svg baseProfile="full" height="104.42220083990773" version="1.1" width="103.35252514949535" xmlns="http://www.w3.org/2000/svg" xmlns:ev="http://www.w3.org/2001/xml-events" xmlns:xlink="http://www.w3.org/1999/xlink"><defs /><rect fill="white" height="104.42220083990773" width="103.35252514949535" x="0" y="0" /><path d="M25,25 m0.0,0.0 m28.83370133201857,0.6774795559434877 l0.36914490050531223,0.4706016008075653 0.4908571234098963,1.2208363212423974 l0.08728021501812464,1.2619323968628304 -0.0755544621555061,8.787272502383574 m-22.26224983625338,2.4664075305787203 l2.197415999899739,0.40713267457791374 2.4111884721585333,0.007506566517482399 l24.37729920266911,-3.1535771272468187 10.478419343052066,-1.0315103656050413 l2.741208947529452,0.013267299872867183 2.5579319797883837,0.4804597827986075 m-12.781690995878405,3.5438013003464732 l-0.00935553736830491,1.831070807951863 -0.4321097945913929,1.8502591075116395 l-2.478278333335194,5.791916196750367 -3.7249934837515477,6.622679350274297 l-4.793333009800727,6.647120170589995 -4.516266618823733,4.931155318475146 l-5.171697889838708,4.613297680561625 -5.69338712913899,4.044203900782409 l-6.052135245984346,2.9388882679303396 m8.520448071947916,-31.83498353166951 l1.9770691237776312,0.8770273905528136 2.796990433755494,2.395849220335794 l14.651344150889646,14.107156253429995 7.720070905992561,6.979914590772143 l6.183043495456295,4.429304256863083 2.6341649432846825,1.3616621486208598 l2.3159988452621714,0.7682217370471374 " fill="none" stroke="black" stroke-width="1" /></svg>