<?xml version="1.0" encoding="utf-8" ?>
<svg baseProfile="full" height="97.34165990075817" version="1.1" width="98.85186347190513" xmlns="http://www.w3.org/2000/svg" xmlns:ev="http://www.w3.org/2001/xml-events" xmlns:xlink="http://www.w3.org/1999/xlink"><defs /><rect fill="white" height="97.34165990075817" width="98.85186347190513" x="0" y="0" /><path d="M25,25 m0.0,0.0 m26.971954667362716,1.351036057729032 l0.3567518257717457,0.35195587118416594 0.5999449889527158,1.1401227358206303 l0.1231897266008816,1.1964062234653532 -0.09919783603141569,7.174910304051874 m-20.28086796841749,1.8169684632198004 l2.195283748268407,0.3633405151827402 2.7052362834776242,-0.0006414179680976518 l30.391647481907505,-2.8239320701965256 3.359416657824964,-0.022580242456446055 l2.528503896187483,0.40772126861075997 m-22.172751409556128,10.361252181332498 l4.40677544375895,0.722482239662205 5.823324163826769,-0.2935399697237554 l0.7891274670137006,0.06087077637013835 0.967433737075876,0.5863692086866209 l0.4037484039149929,0.9674627888979043 0.011755074415317274,0.6496751993712855 l-1.32148935843606,4.71963239652758 -2.4742054098938784,6.506175921121675 l-2.7734846748477153,6.1871823291759105 -2.4154957043502567,4.11329716458561 l-1.2385336393366058,1.4386597508651289 -1.2367061616282107,0.3668322052420896 l-1.0607355893505463,-0.7336300867208979 -1.4152443470581466,-2.0607927669088677 m1.8129573666417278,-30.185666667695347 l0.10181927548512265,1.061561392749136 -0.12477260783446756,1.1050425280516025 l-1.1864054735399916,3.436498552035417 -2.317011206717206,5.070812388804279 l-2.6117725154372256,4.512367166249187 -2.5638599218829308,3.647450907612022 l-2.9801025370959344,3.4816006126373953 -3.3202049219675613,3.0959362717087218 l-2.7502292524992047,1.9996047499725167 " fill="none" stroke="black" stroke-width="1" /></svg>