<?xml version="1.0" encoding="utf-8" ?>
<svg baseProfile="full" height="109.81088524525477" version="1.1" width="105.43019275672467" xmlns="http://www.w3.org/2000/svg" xmlns:ev="http://www.w3.org/2001/xml-events" xmlns:xlink="http://www.w3.org/1999/xlink"><defs /><rect fill="white" height="109.81088524525477" width="105.43019275672467" x="0" y="0" /><path d="M25,25 m0.0,0.0 m7.529266487181721,17.880878002880493 l0.333377852682719,0.27937224510758185 2.4771909105513603,2.8984266308065223 l1.1657791926927112,1.9996248693280907 0.6347853356264307,1.686017118794068 m14.558688357319904,-10.033889117424748 l-0.28236979858773714,1.8423932203227373 -1.1416348221653063,2.7433665474047095 l-1.3982762342292454,2.3909013498812897 -1.7525056748612262,2.1249663873390223 m-15.572434095073856,5.724040352834756 l1.6022989502831269,0.3230108801822366 1.2414542276623126,-0.07318791988715286 l15.051739004632708,-2.253469649477394 3.2399757430380025,-0.14770723711167574 m-10.406479489804152,-16.256481494911217 l0.6440821378883889,0.727827190453409 0.3444429028764751,1.5430146463673136 l-0.1254569227889822,42.5788778229821 -0.17174246712908528,2.356542889981673 l-0.45589625413681334,1.1744904058666061 -0.6428088131346401,0.30187010353434324 l-0.7545936966807856,-0.32416883292766163 -0.7850730769281403,-2.173234962610983 m2.814284267467791,-28.01897552357261 l-1.7854826986463102,5.141456025613138 -2.8243855686398858,5.918593536277253 l-3.4668208711016892,4.8312821601548706 -3.3723492484872213,3.9927097371543763 m13.757521423776408,-16.67256006913 l1.9566099404067316,1.4379444644734891 1.5897495110417599,1.585455869887165 l1.2476084388071231,1.8317516534199803 0.6861521151821748,1.6535150508743415 m6.622694019414156,-25.024876730989284 l3.9415452869035077,1.6301671161501832 1.6513707279046133,1.1236893601896125 l0.7921168408654407,0.9105232865194638 m-6.765439854519728,7.3033638552257045 l3.6113434723965945,1.7719970317642009 1.71192194302096,1.462853565303294 m-6.715959182168227,9.147395741388078 l1.3544091870117738,0.3121028529078905 1.2442764505653234,-0.05049680547454912 l16.537249176104737,-4.082946504711495 3.5663537895048183,-0.6742591996559714 l1.9416138329979196,0.024895126273118552 m-10.484513776445441,-26.440338727773565 l0.7915365175466014,0.8160403466349243 0.4233035644796771,1.7289633760124081 l-0.14496722429040654,46.722880286399295 " fill="none" stroke="black" stroke-width="1" /></svg>