<?xml version="1.0" encoding="utf-8" ?>
<svg baseProfile="full" height="95.60036958310667" version="1.1" width="113.28301555695987" xmlns="http://www.w3.org/2000/svg" xmlns:ev="http://www.w3.org/2001/xml-events" xmlns:xlink="http://www.w3.org/1999/xlink"><defs /><rect fill="white" height="95.60036958310667" width="113.28301555695987" x="0" y="0" /><path d="M25,25 m0.0,0.0 m7.945269151940058,9.830880921718435 l0.5259422579646469,0.14545591744193237 2.367443422188341,0.027869874416139726 l14.090239448219464,-1.7680969526430952 2.8467954409256384,0.17646294555398875 m-10.477932432665048,8.951707581602086 l4.916392979158479,1.7912154701415324 1.5861381476955367,1.1925722499312033 l0.6114672312605898,0.7333711675256005 m-6.240512583112445,11.954974888711925 l0.9939814695767255,0.32142783677536857 1.0597208667001285,-0.180209627762674 l8.617443690210767,-5.280713053851318 m11.561109914196523,-15.899222356888515 l-0.1393462524304239,1.620451263811822 -1.0666172231176665,2.3847364697340034 l-1.5053246527101443,2.552936488341547 -1.8568526688068359,2.530403775628166 m-2.8714818028410085,-2.5663631290961235 l1.4961610276047927,0.14989475213937972 1.8003274108116798,-0.4212371506594298 l11.929927223440083,-1.9873269130493387 3.4984419239765567,-0.2131678471679932 l0.9439828716425015,0.260675738013967 m-9.381539715095247,10.357924657459922 l2.7692547062979034,0.2568302864530101 5.424723898234794,-0.9165531996556 l1.1785379821819204,0.38685222351223014 0.25489010454658206,0.9410814458073602 l-0.8873498975116735,3.5371038538020407 -3.070485521669953,4.593512800067861 l-2.5630797599023296,2.5470010298687917 -2.693073460576789,2.175302996435253 l-3.150598326841887,2.0819319415991577 -3.5564615955112537,1.8024657945652072 l-3.8623458941208044,1.5282154428228347 m5.693644715069857,-14.569049217142817 l3.3967831691719157,1.4797041131036526 14.878596954082505,8.974914069011891 l3.1902187246354194,1.6393577896266398 3.02858261213997,1.1430714397112332 " fill="none" stroke="black" stroke-width="1" /></svg>