<?xml version="1.0" encoding="utf-8" ?>
<svg baseProfile="full" height="106.38572097755969" version="1.1" width="109.49251192621887" xmlns="http://www.w3.org/2000/svg" xmlns:ev="http://www.w3.org/2001/xml-events" xmlns:xlink="http://www.w3.org/1999/xlink"><defs /><rect fill="white" height="106.38572097755969" width="109.49251192621887" x="0" y="0" /><path d="M25.000000316649675,25 m0.0,0.0 m4.8777371644973755,6.028987765312195 l0.24580396711826324,0.3654782101511955 0.411825068295002,1.329493224620819 l1.9390372931957245,12.360049486160278 m-1.8446056544780731,-13.157216310501099 l19.25315260887146,-2.1898898482322693 1.359618604183197,0.36870595067739487 l0.4201013222336769,0.5455689132213593 0.2271229587495327,1.5062732994556427 l-0.847899541258812,5.406363010406494 -1.4436222612857819,6.356474161148071 m-24.59827184677124,-6.303175091743469 l2.353097051382065,0.3660161420702934 24.919722080230713,-2.4390043318271637 l3.729599118232727,-0.05942848511040211 1.4533054828643799,0.32898005098104477 m-24.428775310516357,7.939881682395935 l16.85404062271118,-1.3559770584106445 m-20.212535858154297,6.763995289802551 l0.640745535492897,1.119939163327217 0.6828715652227402,2.160426378250122 l1.2050601840019226,5.859237909317017 m-1.5320952236652374,-7.722713947296143 l21.209986209869385,-2.5396743416786194 0.5207402259111404,0.26748767122626305 l0.21607160568237305,1.499321311712265 -1.267918050289154,5.139206051826477 m-19.280298948287964,2.0273447036743164 l21.119441986083984,-1.6950127482414246 m-12.638130187988281,-30.170490741729736 l0.5288509279489517,0.9746085107326508 0.27975717559456825,1.661287248134613 l-0.10346577502787113,28.38216543197632 m-2.2577549517154694,1.0984209179878235 l-0.08815992623567581,2.1220245957374573 -0.944400355219841,2.751680016517639 l-5.324925184249878,9.007846713066101 -0.516105554997921,1.5218326449394226 l5.235541462898254,0.38490667939186096 4.131823778152466,1.0263349115848541 l4.441685974597931,1.94706529378891 4.0010592341423035,2.85314679145813 m-1.9598105549812317,-18.5175621509552 l-0.1084599643945694,2.4477772414684296 -1.3942132890224457,3.182043731212616 l-2.2122356295585632,4.045750796794891 -2.521269917488098,3.372066020965576 l-2.6007217168807983,2.5821828842163086 -2.35640749335289,1.815142184495926 l-3.7627041339874268,2.1922072768211365 -3.3422717452049255,1.4281457662582397 m-3.5673850774765015,-15.530176162719727 l1.912139505147934,0.9966647624969482 25.571556091308594,-4.115188717842102 m11.663521528244019,-37.69192695617676 l-0.1538136787712574,2.498427629470825 -2.7345484495162964,9.268380999565125 l-2.373953014612198,6.175389885902405 -2.4462874233722687,4.845565557479858 m6.250206828117371,-8.188830614089966 l3.339623212814331,-0.22917907685041428 9.59876835346222,-1.6992750763893127 l3.964313268661499,-0.22755486890673637 m-6.594498157501221,3.6892113089561462 l0.2820538356900215,2.3540902137756348 -1.4506572484970093,6.875889897346497 l-2.1693648397922516,7.091071605682373 -2.7301618456840515,6.486576199531555 l-2.5748997926712036,4.6287283301353455 -2.9105836153030396,4.028205573558807 l-3.2356739044189453,3.3310160040855408 -3.550170660018921,2.540139853954315 m4.8333171010017395,-28.814513683319092 l0.900288000702858,0.6542357802391052 1.9869567453861237,2.4818751215934753 l9.211110472679138,13.375046253204346 5.035918951034546,6.695137023925781 l3.671996593475342,3.8123613595962524 1.3364452123641968,0.8587414026260376 l1.7555534839630127,0.42949482798576355 " fill="none" stroke="black" stroke-width="1" /></svg>