<?xml version="1.0" encoding="utf-8" ?>
<svg baseProfile="full" height="103.13468827122574" version="1.1" width="98.15866940333402" xmlns="http://www.w3.org/2000/svg" xmlns:ev="http://www.w3.org/2001/xml-events" xmlns:xlink="http://www.w3.org/1999/xlink"><defs /><rect fill="white" height="103.13468827122574" width="98.15866940333402" x="0" y="0" /><path d="M25,25 m0.0,0.0 m7.05151494886495,21.37786781209912 l0.3367465852154367,0.08979277995489054 2.143050815439414,0.012977205398846198 l12.27867241595905,-1.9521049590979278 1.6520638602157212,-0.0238356043310945 m-7.688389266895263,-11.025637460246381 l0.9895390736607579,1.2276253805562882 0.6613425571986914,1.306272425910437 l-0.16082191516157937,38.688059582258944 -0.16524935259938492,2.1976951889240737 l-0.4418301570158294,1.047264753479888 -0.6353803924169138,0.18871116631865978 l-0.7443224188440378,-0.4206129194830939 -1.8394196972717252,-2.0617971831680095 m3.745724273973351,-27.856089939818087 l-3.103393406694477,7.235712339659505 -2.1030701201918416,5.858762332374978 l-2.2483108519234225,5.287257801803295 -2.299528624710493,4.20418360276885 m10.622718370429366,-17.219681466236576 l2.5535400387281246,2.8268825426761457 2.456839150273865,3.612975437090854 m2.4714810976854227,-24.477108604701705 l0.14995867279157726,1.311401035358346 -1.1150777748704115,24.151207332144548 l-0.5072558076032359,1.1553073446196784 m1.9751290093182143,-23.967626439417863 l9.9807979626469,-1.5780639330784814 0.8427437973169957,-0.6064324667266342 l0.9115807426564441,0.10862859732613343 0.3395645667624884,0.4059192353970857 l-0.26855443792536166,1.0539494856235878 -1.0860599433035119,2.997757147680934 m-7.041900017804618,1.502574990051258 l8.186837497039754,-1.1451159513584575 1.6544935079613023,0.07043214594243294 l0.4496042230448684,0.321168970794184 0.1645765165944861,1.0192210211052137 l-1.2714830128304582,6.912055548043836 m-10.236652129153196,1.5008330363218316 l1.2395201852791202,0.1021491257433574 9.26763120862629,-1.493717200720458 l1.1653918197723996,-0.05079930046192564 0.7506138423341708,0.2183120845370587 l0.4484390144738598,0.9525185495313983 -0.11277643558513059,0.688959761792727 l-2.938155323977026,6.7147977993699675 -3.6340454465739014,3.244475672195588 l-2.654761349145748,1.8438842021166102 -5.474447941857769,3.007887730430406 l-2.5171595361555443,1.0905652195175077 m4.73386362100419,-12.722655433954836 l2.6739516104429777,1.5414956551304182 9.982348144006943,7.459996759581711 l4.140649041120947,2.6918805077685963 2.425786593006816,0.8826285644494802 m-20.253722377395793,-24.467655853295337 l-0.22198741227723462,1.3156084653567583 -1.8458326069114979,3.47305338915968 l-1.9276600774701371,4.250268161279023 -1.9862476013333932,1.3151094693441283 l-1.9788757913768167,0.7875896698108621 m13.382525013705605,0.06658592976360833 l-0.1026902387502791,0.8807405193756509 -0.6698616118956056,0.7769126457134863 l-3.936559393179091,3.290408802508439 -5.004986521546192,2.6871070424848185 l-5.009796689644452,1.9290468854382505 m16.754798939844477,-2.8879746552216927 l-0.08322142838280924,0.980588033774878 -0.8120288633732143,0.9973107324101419 l-1.9893061565485388,1.830477392983774 -2.54348929918018,1.8889942518483307 l-5.382062104871671,3.188280183948634 -6.391460299335576,2.867754218711134 " fill="none" stroke="black" stroke-width="1" /></svg>