<?xml version="1.0" encoding="utf-8" ?>
<svg baseProfile="full" height="97.93454296324536" version="1.1" width="97.70464555576348" xmlns="http://www.w3.org/2000/svg" xmlns:ev="http://www.w3.org/2001/xml-events" xmlns:xlink="http://www.w3.org/1999/xlink"><defs /><rect fill="white" height="97.93454296324536" width="97.70464555576348" x="0" y="0" /><path d="M25,25 m0.0,0.0 m9.308613238324334,3.1239030254010625 l0.4450691006579241,0.18451152563274942 2.9915835587341593,0.13640379083764848 l28.15841963315524,-2.4804847606304397 4.027154614368222,-0.11837693436630024 l2.773805410523592,0.3692435442868164 m-34.35033869858695,8.198913013349086 l0.6143775645391232,0.7929310768830997 0.2743793830843155,1.7442573722227177 l-0.12554654189684786,6.538581816784662 m0.08242064972611361,-7.760919296129762 l9.36285270411383,-1.9334764864487144 3.070237715185068,-0.267100249537454 l0.5229695029311443,0.21637100328773298 0.24552626875634337,0.3773685707804846 l-0.054520271528919265,0.5661370021388054 -1.5974435075692097,5.89232219084832 m-8.937293750294437,1.4992489520671086 l9.98626630030163,-1.134879731565725 m9.26576806693292,-14.090139292972497 l0.5262674919288913,1.365466457424949 0.11926383377489765,1.2766639411632492 l0.046462485935554576,10.096343643551235 -0.1862607952775018,4.725781345204312 l-0.5024403390055695,0.5082135695102702 -0.9644876760230318,-0.08346866055805958 l-0.654115681806268,-0.5998228708184489 -1.1499123343879873,-1.87291449161242 m-26.402084967756057,8.268083257871464 l2.439683672803484,0.38160710943646026 11.645565539259545,-1.5604688592978935 l18.783250223771145,-1.3058263380190331 2.7238807073982163,0.08879378370637295 l2.143808097923202,0.3263665126913532 m-31.45847770384882,7.809111522713797 l0.5435324291917589,0.5339857537926798 0.630633338702665,1.8547128986535104 l1.4297689975581864,7.120428393117973 m-1.349153236498638,-8.493221585815226 l8.878312288855508,-1.5269354546280682 2.5549095535151234,-0.32340126778619416 l0.7544901600217065,0.12512355789258722 0.4118183018946811,0.3808480676828583 l0.04305550815136896,0.46739234257823603 -1.7756122734123394,6.802966804031259 m-9.200158738519214,1.297632218807388 l10.052901063474435,-0.9449488910533995 m9.10397827141949,-13.77373098091442 l0.4305310865209358,1.1223984935454596 0.13734620015632534,1.7621215232773586 l-0.1341664187980201,18.92685687387655 -0.29995717862214893,0.9530718192073069 l-0.36541179004271857,0.3104046600418788 -0.46749364483337125,0.06009168110060907 l-0.5077538176198126,-0.2019526451318209 -0.510048161328247,-0.889961996756793 l-1.216828597109536,-1.298213029238783 " fill="none" stroke="black" stroke-width="1" /></svg>