<?xml version="1.0" encoding="utf-8" ?>
<svg baseProfile="full" height="101.82342468110517" version="1.1" width="107.1205307251235" xmlns="http://www.w3.org/2000/svg" xmlns:ev="http://www.w3.org/2001/xml-events" xmlns:xlink="http://www.w3.org/1999/xlink"><defs /><rect fill="white" height="101.82342468110517" width="107.1205307251235" x="0" y="0" /><path d="M25,25 m0.0,0.0 m21.897730143532517,20.976226880728824 l0.48852911160053386,0.10940396982046437 3.3157082892915857,0.13243027031988105 l25.812433409012296,-1.780373301506109 3.7251291785987894,0.17006480447375685 m-18.177018948074473,-5.945903145059274 l0.6386890781550205,0.9756596840406706 0.16296446525022912,1.2317558668798605 l-0.0255802909548353,12.010747422128475 m-16.011952075591424,1.2308658408286326 l4.09498791611971,0.1011138877109562 14.269177070716152,-1.2447265659490496 l8.487250223715673,-0.5762728484690738 m-31.848372918900676,7.363016599045009 l-0.604514777795343,3.6279185838759145 -1.5040465703994967,4.059502710082639 m2.7971990321994604,-6.515163774028865 l23.466889845902045,-2.0759879499929523 9.114884551078848,-0.534038961314301 l5.801935610088898,-0.05079880421342582 0.8842905494849337,0.29870883851013497 l0.3342178320930823,0.43816761199391974 -0.06682721890697428,0.5610659583646388 l-1.002187582354264,1.2394538546571372 -2.5860680893351495,1.9691904597432959 m-30.1975661404074,3.1455321362284816 l1.42963820731908,0.2090600445874035 2.1495029739008293,-0.09113820421474288 l17.70146260984331,-2.1534430267359093 2.6763002992166576,-0.01899757235611254 l0.8800850422890316,0.26770226853434 0.3984468568467341,0.37994780479240026 l0.0994935285868278,0.5058847879089844 -0.16547623385455976,0.6002339820838499 l-2.228369417328693,4.788692761229265 -2.1535282387366284,2.6541852706885316 l-2.6429646980260317,2.2120648913953875 -1.602040228579551,0.7795619571161153 l-1.2717103030749757,-0.12645291664044322 -1.309741285070405,-0.9603051918209993 m-2.108323909600586,-14.518248273608025 l-0.18847734686845452,1.3446395146828307 -1.5612342693991301,2.368318105404333 l-2.099555702281349,2.5245724415759923 -2.576272722633342,2.5631386025414318 l-2.578985567027455,2.1647040019008323 -3.002175270561374,2.1289521017655937 l-3.417578654148085,1.9781783112514442 -2.8175136326702375,1.3046129901230301 " fill="none" stroke="black" stroke-width="1" /></svg>