<?xml version="1.0" encoding="utf-8" ?>
<svg baseProfile="full" height="109.00218588559967" version="1.1" width="108.80581133361531" xmlns="http://www.w3.org/2000/svg" xmlns:ev="http://www.w3.org/2001/xml-events" xmlns:xlink="http://www.w3.org/1999/xlink"><defs /><rect fill="white" height="109.00218588559967" width="108.80581133361531" x="0" y="0" /><path d="M25,25 m0.0,0.0 m27.686149833422572,3.3596573480229934 l-0.03490509702846207,0.474252398594071 -0.5434970590672648,1.9700607969832342 l-1.127657899333484,2.2257846903853133 -4.237946893774542,5.362522872442838 l-5.140008142774309,4.701995720082015 -5.848736162975139,4.387791891083868 m15.397447194598383,-10.96267414199179 l2.1469099306035524,0.1899691530597535 2.4027869659724574,-0.30534075913312186 l23.819372632616982,-3.276926873216655 2.0564196687511527,0.043744087101342165 l0.7483332440354351,0.2938208764669908 0.7701182267664431,0.4033111539090731 l0.6897156271696503,1.133333222976506 0.02130926463189141,0.7237269945461141 l-3.5490786287881027,5.7387857270338465 -4.805630719291729,5.910268955782133 l-5.489979817672903,4.572576736175486 -1.855432316498662,0.7716543474212214 l-1.6364392041526328,0.20656965050718867 -1.4053795220584475,-0.4990886412441341 l-1.9843339069417611,-1.1637251897423482 m-24.751402063489934,1.1164600528886834 l3.905409870037471,0.21115852278159014 27.953303622013276,-2.3046384094272234 l3.319509792512737,-0.03967421128912527 2.4608004069507614,0.24840208797374205 m-38.8549188177173,9.841667778846883 l3.657143583140734,0.30283709972593015 28.76179076713911,-2.161150822304988 l4.476428314244283,-0.17891416927439271 2.9612570267970333,0.22027668954077706 m-21.153292536802883,8.966294181851021 l0.6834345261183125,0.7269862990065901 0.3401625057818897,1.5279696259782583 l-0.15437792184755722,5.752776400312728 -0.45364465210681587,7.609423584928253 l-0.483305793696866,0.7207593568644579 -0.732411718284943,0.1794807999505606 l-0.8454555110413151,-0.2502466407602277 -3.399719859687878,-2.160817771254651 m-10.118904475158772,-10.471860807470671 l-0.45078568546189957,1.5859932768389007 -3.0061957569189524,2.8354406152761316 l-4.105917822826861,2.735489454933632 -4.884786594479478,2.490845755437176 m43.18644947988735,-9.638940369046459 l3.0115587227141787,1.553104459291881 3.5041522807289054,2.2850259508248336 l2.8455282738664023,2.390307365732342 1.3110181942258663,1.809070239497607 " fill="none" stroke="black" stroke-width="1" /></svg>