<?xml version="1.0" encoding="utf-8" ?>
<svg baseProfile="full" height="94.91842141168974" version="1.1" width="106.3412129988879" xmlns="http://www.w3.org/2000/svg" xmlns:ev="http://www.w3.org/2001/xml-events" xmlns:xlink="http://www.w3.org/1999/xlink"><defs /><rect fill="white" height="94.91842141168974" width="106.3412129988879" x="0" y="0" /><path d="M25,25 m0.0,0.0 m14.172432791689968,3.9932160543263238 l0.44683407777743644,0.40077185583576713 0.7081671142666465,0.9519906408629081 l0.3796961918463171,1.4539561150325502 2.888950947562304,21.03339281254012 m-3.0778098366298425,-23.774236990908026 l24.414320535814788,-2.2815913072616514 8.558421467919425,-0.5449049764389056 l1.4288428337306285,0.20876447756889743 0.9834548872616966,0.8592724333850211 l0.2663754538350808,0.6157438238555043 0.021011484745662074,1.5599512929330752 l-3.621997497245049,18.020005856174144 m-30.18430418719297,-9.183223493451212 l15.401969403545635,-1.6663744040793411 15.360026157216994,-1.1175037757134711 m-29.079535955827115,12.463420084155157 l27.57480742778564,-1.9385698906258357 m-15.436534326287541,-16.865755745565327 l0.684418733472744,0.9523510258204934 0.3126691055202383,1.615366802421944 l0.08447894458574927,35.460461171447704 m-15.792877811788543,-9.451926374848648 l3.575908849523667,0.20797886960940684 21.882863659441682,-2.095142897801944 l3.7122658754843645,-0.18521535057249094 2.9417435473487457,0.22695176347853063 m-41.10206008305564,13.649868537656143 l2.5919712585386088,0.33050111321582787 3.0786148478102517,0.018901888637053728 l20.184218912760166,-1.96825233999854 13.795015264315015,-0.8733383673378777 l5.392848618750879,-0.10817706521499934 3.7940043043642846,0.40982880367626573 " fill="none" stroke="black" stroke-width="1" /></svg>