<?xml version="1.0" encoding="utf-8" ?>
<svg baseProfile="full" height="109.95241643067752" version="1.1" width="106.7421268332458" xmlns="http://www.w3.org/2000/svg" xmlns:ev="http://www.w3.org/2001/xml-events" xmlns:xlink="http://www.w3.org/1999/xlink"><defs /><rect fill="white" height="109.95241643067752" width="106.7421268332458" x="0" y="0" /><path d="M25,25 m0.0,0.0 m8.748639204883364,12.439425718923266 l0.4337944165507302,0.3184371652227154 2.21351257047378,2.0908786050054227 l1.3326795805363847,2.3177729374023603 m14.88989563732834,-7.034537123846443 l-0.32114442584036285,1.4330423849884513 -1.1075608778894053,2.0198645658789673 l-1.5292420979782075,1.9245006503516608 -1.5167083077503296,1.3660587437895226 m-17.4828454438908,5.179999859722804 l2.1930700202707625,0.19489951449462223 14.777561032257044,-1.7824591396615863 l6.138544750605013,-0.2698016189591224 m-11.491674265952769,-12.294720015318163 l0.698273470379747,0.9597603799242851 0.2561017040667736,1.1023566794353838 l-0.10812919636706853,24.43128136528939 m-0.3772764046383993,-12.600260100623458 l-0.8250727403529874,2.3941676647392995 -2.5476704876611858,3.762128335436885 l-2.991965715669541,3.3169939720355837 -3.785915871578787,3.1688671587408 m12.576896820471978,-9.008709974581016 l3.853547447290583,2.2122402240180157 2.0628989494778063,1.7162830382208978 l1.2413839608038695,1.4059133860079398 m-10.781587027161898,5.837187433239543 l0.2623265229456678,1.8941440856140468 -0.8420570713019917,3.057381607261417 l-1.4323447378679381,3.325078250232184 -3.0896539758787904,5.21001287616329 l-0.19403995265681906,0.8647072911254797 0.8186396053733059,0.48055231477335064 l4.102106588384045,0.7643118058783678 7.611378219876683,1.3654999084751245 l3.1011730000073294,1.1580967303722278 1.914450950490361,1.4439114534580284 m-2.1264277693306908,-16.55287109669903 l0.31497340783070105,1.029851817536794 -0.03058260441027613,1.100621484047571 l-0.9240141229843344,2.980374742888657 -1.8729508356704474,3.5701030186632314 l-2.4447549481430664,3.2099810235873996 -2.5782610235246772,2.5476742714869554 l-3.1341364579304463,2.375337051721148 -3.785951446044299,2.142606395128736 l-3.312413112199709,1.3834695890845068 m-1.8721912663587232,-15.74628827352916 l0.8630710201308729,0.48029023331780896 2.1398346625401192,0.023424949838842843 l19.312329270157278,-3.3502441692366194 m10.702259012189401,-31.00763718341654 l0.22861951602375433,1.1546430237371414 -0.13029074014472014,1.2034604263586137 l-2.609772354266061,8.542193271477824 -2.730705828110435,6.21202582897785 l-3.2334692716419764,5.543733660350368 m7.144924267247139,-9.380552669995343 l3.28328804041828,-0.23231336302436303 12.06717869555294,-2.056417916285601 l1.7686822892399967,0.04473030804639771 m-7.286651419132021,3.8887927949729275 l0.2386800368386937,2.117984724828985 -1.8014109274300099,6.332483181535304 l-2.288785662791275,5.974226431688101 -2.8730540170180916,5.557376182450563 l-2.6999634173290343,3.912061416380757 -3.088975144972515,3.4400036800110847 l-3.5063583317619216,2.8901350215815333 -3.9303826356139226,2.182054078963516 m5.741269768428012,-24.599515764263085 l0.9388544031313274,0.685495115538255 1.8138073460328479,1.9655488636960996 l10.484649189882095,13.4518607376241 4.2399365330025685,4.911585798178363 l2.7675211902713657,2.544882969502194 2.1517656691007936,0.7517111039652378 " fill="none" stroke="black" stroke-width="1" /></svg>