<?xml version="1.0" encoding="utf-8" ?>
<svg baseProfile="full" height="104.09798375516341" version="1.1" width="101.49066465242765" xmlns="http://www.w3.org/2000/svg" xmlns:ev="http://www.w3.org/2001/xml-events" xmlns:xlink="http://www.w3.org/1999/xlink"><defs /><rect fill="white" height="104.09798375516341" width="101.49066465242765" x="0" y="0" /><path d="M25,25 m0.0,0.0 m9.260399747712365,3.9569526699968924 l0.35543756938846766,0.4459957849457212 0.5480753556124751,1.1370165403713026 l0.1711048688367573,1.1979619989695287 -0.06770533919030439,47.360056760879964 m0.8539320693765419,-50.28226868002561 l33.525416544829575,-2.703262751782543 4.9101095977447,-0.013362524686609535 l1.3284842259756837,0.8587760769161282 0.6054100121413918,2.2785391119838136 l-0.040363410563443065,49.01770987655529 m-35.65326487676925,-36.204550076874895 l2.8455986554392574,0.13757454720834936 17.67992092423098,-2.092255261802615 l4.327050900352467,-0.29672075721966057 1.8640360327269239,0.17220145403136664 m-28.370817916028788,12.449099622238055 l0.8144721743764983,0.2699252403720241 2.00194106882134,0.08266675683420122 l20.523137385530383,-2.2355509442666954 4.976184528425802,-0.1945326036233898 l2.4586520576386253,0.22171468852627288 m-22.12456376001561,-16.564788491653577 l0.4714754048279099,0.8205870034880782 0.20708768587195947,1.1115733677654702 l0.10096741792180786,7.277723083517818 -0.35711583915835204,5.7757203123519245 l-0.9196495786904002,5.215737431372491 -1.3287575743014242,3.668492469637724 l-1.5677149640233081,3.0411659135874585 -1.9170774939930753,2.7058096431646548 l-2.2871140649949915,2.4067014124822315 m17.618850921249198,-35.93089840862968 l0.8244937717187751,1.4035198656470649 0.171140106275552,1.186977689528645 l-0.09065176314397264,35.00907970749927 m-25.57881612061357,5.786215047963774 l41.17519573051357,-1.7841753993149247 " fill="none" stroke="black" stroke-width="1" /></svg>