<?xml version="1.0" encoding="utf-8" ?>
<svg baseProfile="full" height="100.31094810265215" version="1.1" width="106.67299589024327" xmlns="http://www.w3.org/2000/svg" xmlns:ev="http://www.w3.org/2001/xml-events" xmlns:xlink="http://www.w3.org/1999/xlink"><defs /><rect fill="white" height="100.31094810265215" width="106.67299589024327" x="0" y="0" /><path d="M25,25 m0.0,0.0 m20.52583149087427,7.394900461765673 l0.5599951221712715,0.3641848571120179 0.5836588883813228,1.3379293520154816 l-0.018328874224061674,4.6107830413054245 m-15.514338393826263,1.551125524812455 l4.317799443960348,0.024166675121210138 21.95193054552175,-1.9559505700305515 l3.2567394152859794,0.11398514101132541 m-16.310826017882228,4.614653113970499 l0.010801302472199492,0.9655471158320046 -0.7789409523723713,1.3825215849395138 l-5.813161838763614,6.502057381207852 0.003276840285683369,0.6184427432564712 l0.6997832807292609,0.33860291041520635 6.284006118165486,2.2139786482777315 m7.773953739302842,-9.370602589846573 l-0.22501553112524517,0.9270974810321769 -0.523681160886669,0.8047575184073502 l-3.0897947866935707,4.592786494428543 -2.5056148511603915,3.1916270632893986 l-4.637566672617057,4.808168913447567 -5.914584002494303,4.960107012262303 m19.159464609115602,-8.451358743057575 l-0.259888761178556,0.9454625249787921 -0.9603150359548625,1.3159653114671066 l-7.605827485013049,7.312180312155932 -6.5713048376251955,5.004620780131912 l-7.080040937491635,4.193208042942884 m17.650985607841182,-9.295014371051971 l2.022728430390913,0.8734826502078739 2.573527922132382,1.578284996764605 l2.1279194266792256,1.6927895032177571 0.8805055639997883,1.041027093887021 m4.321665863325691,-20.993956451501003 l0.69951942137991,0.28335968056070254 0.8515590154776909,0.08985138034375896 l16.068979132071377,-2.064998201789039 1.6096419764132424,0.24633653058692911 l0.5479528735748973,0.7878105106962446 -0.0037695097225896434,1.4705100398552629 l-4.122923357512445,10.088190795523454 -2.4269099384370847,4.33835321097524 l-1.3109916580885579,1.3708126133364928 -1.2840259608461384,0.0874599982993256 l-1.4589961295564406,-1.3497737887490098 m-0.4988502061958837,-17.70244757364116 l0.06789155838405223,0.9479394836348644 -0.5504701792130717,1.5764343216197512 l-1.3256515936035864,6.124823910153415 -1.2451175039405933,4.2045562111887635 l-1.183631118370096,2.9259955614400917 -1.6388690040492955,3.0396116219184055 l-2.141539655244206,3.0347716285512916 -2.7229695353237426,3.0243967969410757 l-2.4330706136782236,2.190749462720993 " fill="none" stroke="black" stroke-width="1" /></svg>