<?xml version="1.0" encoding="utf-8" ?>
<svg baseProfile="full" height="112.22299504758877" version="1.1" width="96.98196021235265" xmlns="http://www.w3.org/2000/svg" xmlns:ev="http://www.w3.org/2001/xml-events" xmlns:xlink="http://www.w3.org/1999/xlink"><defs /><rect fill="white" height="112.22299504758877" width="96.98196021235265" x="0" y="0" /><path d="M25,25 m0.0,0.0 m12.295363189350118,16.308199831641602 l0.4689376675296628,0.10970400306413139 3.171563246865617,0.07360795333308891 l26.311404238050027,-3.222391141454675 2.489026111479415,-0.2152997505076461 l2.067966557759382,0.20441368272900987 m-17.957584992853064,-8.837146209702679 l0.7624532264965822,1.0877521927999385 0.37373975088351125,1.5559724659390366 l0.049594992327426764,19.47210163442889 m-12.491003562609487,2.285903850928061 l1.797531849891576,0.18171059644567464 2.4645081347653086,-0.22150797327398933 l15.84556606411098,-3.8812756354116433 0.6527930488599711,-0.03646279404788765 l0.4532330748510162,0.20536983799110567 0.25769587470969707,0.3735470727509764 l0.09353310227310094,4.4243933050253865 -1.6217474403083891,5.008690425345101 l-2.533895395473922,5.034459287505908 -3.2550767096312128,4.600765579091465 l-3.6098739452407744,3.9691729989416205 -3.893483915116397,3.437658314866164 l-4.044360299256661,2.755690661463001 -4.194658189567848,2.039017647611658 m6.500255641259989,-22.138248871509667 l1.323683086869796,0.7251142994670073 2.1134185610784093,1.6425239638785796 l10.083170265986514,14.753776248999015 3.7199356848097676,4.513006156382992 l3.4443442516250324,3.31859521223167 3.843927040577507,2.6941802006358633 " fill="none" stroke="black" stroke-width="1" /></svg>