<?xml version="1.0" encoding="utf-8" ?>
<svg baseProfile="full" height="105.87534223190691" version="1.1" width="102.63695153328794" xmlns="http://www.w3.org/2000/svg" xmlns:ev="http://www.w3.org/2001/xml-events" xmlns:xlink="http://www.w3.org/1999/xlink"><defs /><rect fill="white" height="105.87534223190691" width="102.63695153328794" x="0" y="0" /><path d="M25,25 m0.0,0.0 m12.547878808517993,5.416472474377823 l0.4116356981919123,0.26886521885177483 1.3630576234522114,1.0933043816604098 l1.7633928412813944,1.9577726972205725 1.5097513983532234,2.2445998898664 l0.811795990020814,1.8638609195251388 m-13.139513575739064,5.082116001626702 l2.2536623919556753,0.28829205592542234 15.525514448592103,-2.9577297203862085 l2.1826939745911123,-0.17441616647863784 m-10.746119190534168,9.915567497953983 l5.709039783171163,1.4626230666544286 0.7819413147829694,0.7422293076175843 l0.21177710957321738,1.412431052717154 -0.8208525951775227,4.3210099858549045 l-1.4056320577014636,5.178224199784124 -1.695298951429386,5.22000959959827 l-1.8790241172564803,4.5560822518320725 -1.64557387075986,3.0752874574900813 l-1.3084203087304531,1.3580010038975125 -0.7318602783445893,0.24496260904639455 l-1.128969547165102,-0.47218692659959516 -1.1477339416775807,-1.1746856540190693 m5.5518607978226715,-32.59848235342817 l0.051799946469819586,1.9488918580047339 -0.7666172412541176,3.4104347106476522 l-1.5144127718915705,4.714033123120119 -1.7691199979875898,4.34918212599231 l-1.7169022677863435,3.4465451201514417 -1.9953521640996734,3.2756035712063203 l-2.2555007770327884,2.905406402752414 -1.8882707094697408,1.831918963019018 m32.47610145428671,-40.77590534668646 l-0.000399166600328195,1.5038935700512839 -0.4962826840141719,2.0390074271147425 l-2.6015347970553147,6.945808062974563 -2.8693177720735368,5.695261438589247 l-3.5507974896683447,5.439897920140464 m9.216900957630981,-18.84449232619763 l5.347213983021463,7.186203339867083 8.2285121951263,9.626840993391482 l1.8933818518013186,1.763451941095207 1.8725452380940866,0.7825833907325982 m-20.923507515487742,2.194899576422852 l2.7745866977216673,1.605224674350198 3.478199663176104,2.687379981846706 l2.812996449355066,2.9054649346201065 1.3043242792339278,2.0855338898683597 m-13.479564839305395,6.77524310498781 l4.193118947966338,2.0980503268313075 5.068756323041408,3.3696878725945045 l4.210191537193702,3.746213632392548 2.076305508435975,2.838867101436862 " fill="none" stroke="black" stroke-width="1" /></svg>