<?xml version="1.0" encoding="utf-8" ?>
<svg baseProfile="full" height="98.7082357339811" version="1.1" width="105.11342344299719" xmlns="http://www.w3.org/2000/svg" xmlns:ev="http://www.w3.org/2001/xml-events" xmlns:xlink="http://www.w3.org/1999/xlink"><defs /><rect fill="white" height="98.7082357339811" width="105.11342344299719" x="0" y="0" /><path d="M25,26.276687731489602 m0.0,0.0 m8.056752494154582,12.809587503370098 l0.5191262693969311,0.1108170056805505 2.26797499003629,0.0840083443654321 l14.681165560238185,-1.743530989943325 3.1542375006171164,0.14981197247497371 m-16.912307188956888,-5.369525807637785 l0.9730510971511852,1.815792526227086 1.4267918709611174,11.619083272280442 m8.912077184308119,-15.133442334122675 l0.18531373817281224,2.418986219738694 -2.0032685050625996,12.52000996729324 m-15.666234660556814,1.39052647685043 l2.3889370141446618,0.19831023879696702 17.076659468185046,-2.121259452448123 l3.1259724635513253,0.11911665721590027 m-16.316535181854153,6.220778533476494 l0.4244024981848604,1.2932085158398772 0.03987583408928392,21.049269353033228 m0.4256938734856744,-21.791214456018317 l10.202143849629591,-1.3548896664789294 0.7785747023880736,0.11499165982356678 l0.5066589248106558,0.428607545088938 -0.1521322601356186,0.5565504883995709 l-0.3944946327788507,19.704148033444643 m-11.537680337083813,-12.085216307243176 l7.511570520837691,-1.3678025183024574 m-7.485590277949394,10.945204413121465 l7.814815775891699,-1.3266067245232709 m-15.500845934081969,-39.43458565348068 l0.6101494663374224,1.982189011067907 0.04923883872809409,34.78302008567386 l0.12421173078424713,1.6527773554535279 0.47171399182597856,0.7144447492106833 l0.7835670143539195,0.06109810067821982 13.99157172828652,-2.046044192730194 l1.400579700283276,-0.11961187284805103 m17.113342641875125,-40.12529578431842 l-0.37182969260784976,2.236904898290554 -3.1984292330548802,6.691057311364725 l-3.382982172098739,5.3085225997306615 -3.3710538180955374,3.937855237398501 m7.556781034971057,-7.786689371199149 l1.2397468361103197,0.18780413778222613 11.304654483522146,-2.0647938709906697 l2.5414902868159577,-0.20216279103919127 0.4772914591381311,0.22848378339129466 l0.33845666745072955,0.40872638981423237 -0.029440022288267642,1.3095453889917104 l-1.1710467396209316,2.6857778440968647 -1.9557726532448405,2.6762425931866693 m-9.899570874060249,0.8345459810423325 l-0.11779871450356653,2.925439814215111 -1.099944852978977,6.128407316709883 l-1.3316981468627824,5.182491502709095 -1.3795097657679285,3.9777107900557453 l-1.724409155683314,3.8572885045922343 -2.144103120695711,3.710531098136313 l-2.5931356160491963,3.4775589286916246 -2.226691513963238,2.4020216610630247 m11.768842699020087,-22.996821188431607 l3.6087479591683094,6.310519095279796 5.600386632275194,8.152040712604157 l5.1315879908098605,6.542082871510321 1.2292982219008923,1.2138255799664814 l1.2664734991411237,0.7657049153167441 " fill="none" stroke="black" stroke-width="1" /></svg>