<?xml version="1.0" encoding="utf-8" ?>
<svg baseProfile="full" height="111.40939669313005" version="1.1" width="115.99873152620009" xmlns="http://www.w3.org/2000/svg" xmlns:ev="http://www.w3.org/2001/xml-events" xmlns:xlink="http://www.w3.org/1999/xlink"><defs /><rect fill="white" height="111.40939669313005" width="115.99873152620009" x="0" y="0" /><path d="M33.08989467477909,28.21275423700234 m0.0,0.0 m2.9442429112842206,4.249961010425521 l0.4038874968989349,0.37841565017612333 2.685389170388495,3.3899156397401575 l1.7164283536054572,3.62269889952733 m14.966696782010846,-10.535387748833415 l-0.15978564011245372,1.6387288884259792 -1.1984823478805084,2.563637838438375 l-4.1751890275729355,6.465951643355257 m-17.641489622661574,4.386497446700141 l3.3720615007720567,0.15520414981243644 15.38653706052982,-2.093968956689419 l4.11030926732148,-0.24879965190428419 2.1916878295328583,0.1448594176599139 m-12.422053577022213,-17.330468463836457 l0.6258633742721038,0.9686191217933096 0.32397223999972286,1.504088191605872 l-0.089364194595326,34.2094324197155 m-0.624653620734807,-18.130600924063405 l-0.30605227616577096,1.470534064161027 -1.144525237785074,2.5357783812374204 l-3.823517913959101,7.004590780739477 -3.434515379995114,4.512767618612698 l-3.8953855005079507,3.546861627585675 m15.467591298521453,-14.084399129951708 l4.852654750755625,3.593479978448574 2.317709187650102,2.5021225744276743 l1.284076401462656,1.9829771256338002 m-31.823987960792092,-24.987241973945515 l0.7851302115088762,1.0789446899552662 0.26429792126926016,1.7885972823556635 l-0.29710526622426314,34.34611226710222 1.1493342073217248,2.0059737637700725 l15.6194790254758,0.0657073141420295 11.681367084925766,-0.7462048655527201 l3.460614687996816,-0.15826053662377332 3.0544617325383583,0.30496625218033313 m19.597305609564117,-45.01706586994612 l-0.4979737136527007,1.850552198522673 -2.8346408964053804,3.942322185476288 l-3.9001939734602495,3.8959096438257323 -4.60850295352083,3.891269247203256 m-1.888551199258589,-0.30609128127643503 l0.9945536679602669,2.6767314866225114 0.0481426998913388,9.057166497327186 l-0.5086424332673132,7.496995679972289 -1.095374167376792,7.11097037937613 l-1.322600283017793,4.77617845526376 -1.8653836304474898,7.675786346641105 l-1.9851136148237676,5.693541756166273 -1.8758649901070195,3.350283944625896 m9.065857125036912,-35.62858604393357 l22.95813467427303,0.004108571909647017 -12.290211619595466,0.4458974696014788 m-0.48257152129007397,-0.6358499814496432 l0.7468963700606015,0.6632627859613056 0.45234595724675447,1.4591454212157153 l-0.07532114826540408,29.94600688731096 " fill="none" stroke="black" stroke-width="1" /></svg>