<?xml version="1.0" encoding="utf-8" ?>
<svg baseProfile="full" height="109.49251286685467" version="1.1" width="107.62220962904394" xmlns="http://www.w3.org/2000/svg" xmlns:ev="http://www.w3.org/2001/xml-events" xmlns:xlink="http://www.w3.org/1999/xlink"><defs /><rect fill="white" height="109.49251286685467" width="107.62220962904394" x="0" y="0" /><path d="M25,25.000000141178074 m0.0,0.0 m22.68929958343506,-1.411780736759738e-07 l0.5985021218657494,0.26474960148334503 2.5641918182373047,1.6780583560466766 l2.505199909210205,2.3049840331077576 2.0050178468227386,2.447637766599655 l1.0629311949014664,2.105483263731003 m-29.4488787651062,6.18952751159668 l3.588152527809143,0.39539262652397156 2.876671552658081,-0.2203267253935337 l40.13324737548828,-4.435672760009766 4.346112012863159,-0.18050981685519218 l2.618536353111267,0.5088519304990768 m-15.204956531524658,4.135885536670685 l0.4798027500510216,1.1301465332508087 0.03155185841023922,1.396147459745407 l-3.1818217039108276,7.591752409934998 -3.7704920768737793,6.537044644355774 l-5.751197934150696,7.819855213165283 -6.694356799125671,7.15056300163269 l-5.882768034934998,5.041861534118652 -6.225280165672302,4.273891448974609 l-6.451238393783569,3.3571892976760864 m10.800210237503052,-36.061718463897705 l6.766577959060669,5.683267116546631 18.083772659301758,16.219621896743774 l7.919963598251343,6.582093238830566 6.562429070472717,4.612827897071838 l2.004302889108658,0.6266574561595917 2.596726715564728,0.25060487911105156 " fill="none" stroke="black" stroke-width="1" /></svg>