<?xml version="1.0" encoding="utf-8" ?>
<svg baseProfile="full" height="130.2744546755931" version="1.1" width="102.84438030644415" xmlns="http://www.w3.org/2000/svg" xmlns:ev="http://www.w3.org/2001/xml-events" xmlns:xlink="http://www.w3.org/1999/xlink"><defs /><rect fill="white" height="130.2744546755931" width="102.84438030644415" x="0" y="0" /><path d="M25,25 m0.0,0.0 m13.954587499806918,3.8779894509180424 l0.44445823026219483,0.34309753350717936 2.624809402303524,1.0085059437516497 l31.21372785015434,-3.069445958557139 2.5304066214267293,1.0002031769935926 l0.2761328794037924,0.6790475128560047 0.09835861463201169,0.7949536883565057 l-0.12156281517636308,0.9699613136781412 -1.306651992046834,6.9815606060559094 l-1.666823185521813,8.483755392608126 m-34.26285331633359,3.174076711766529 l3.8425278530165383,0.48594427503067616 29.597439880068023,-3.429185758641873 l4.446064824513192,-0.09037995938668442 m-37.30348212861067,3.8080491118503295 l0.5973278135360592,1.537713578841774 -0.07109790555105193,1.857517767920542 l-4.197023267579445,16.339897544436344 0.45300640771750705,1.2977490681767552 l0.8079197059803285,0.26577169251110855 36.7775984673644,-5.326839113042456 l1.2968110594974815,-0.17466927824481007 1.7240424350748957,0.4753713772118427 l0.9582179501219413,1.4432472706858723 0.13043742238403877,1.9392627465444372 l-0.8256422197372599,8.505851783030055 -1.8508407589673284,11.564694981519185 l-2.0433067988046814,11.24565547405326 -1.200383473731073,2.5283454950423967 l-0.6722379226492937,0.9527646223274033 -0.7016060027654527,0.6130829767735668 l-0.6980052952245989,0.19090364701880835 -1.2882490318939768,-0.8951533467828369 l-2.252841531570534,-3.7166890545670896 " fill="none" stroke="black" stroke-width="1" /></svg>