<?xml version="1.0" encoding="utf-8" ?>
<svg baseProfile="full" height="107.43352983026966" version="1.1" width="93.19468148999186" xmlns="http://www.w3.org/2000/svg" xmlns:ev="http://www.w3.org/2001/xml-events" xmlns:xlink="http://www.w3.org/1999/xlink"><defs /><rect fill="white" height="107.43352983026966" width="93.19468148999186" x="0" y="0" /><path d="M25,25 m0.0,0.0 m7.835471210596003,21.504279315715024 l0.4589555978958788,0.130734359087089 2.5466949456602563,0.0758871808362307 l22.738493579506027,-2.5657377969817716 3.670045526547131,-0.1799159878342665 l1.974781784187814,0.2604394619334803 m-16.013419154089558,-14.892211161067731 l0.7783687348500942,1.3992682742601976 0.29361387156647556,1.9645049545773476 l-0.010807238177647375,46.07943202793147 -0.09832082625110442,2.4093244585531215 l-0.7825602069688862,1.2475247432594763 -0.5784175776815604,-0.30968284386573786 l-2.0982513946677432,-2.3835957109804418 m-7.611875859641535,-31.208873646471975 l2.1749057029394003,1.3555233843369876 1.7606348359537307,1.513987399435112 l1.3716508841317439,1.5086005539954663 0.7408266167163433,1.4348883572137654 m-9.27171542739778,15.491211962943556 l1.6420964845209352,0.42116496740074316 1.2388256503396942,-0.4726264613681311 l10.420405829077621,-10.544233378400897 m16.324000189396568,-15.426471253737395 l-0.2014398177070233,1.5403493796663297 -1.1414621524707198,2.1545180747561976 l-4.0806615782658895,5.1138950355838615 m-0.5285171402876657,6.970917138984836 l2.359054732164477,1.899201465667808 3.1172712778396483,2.969583754203531 l2.373468174891548,3.0146220841351576 1.7925642348176012,2.8198344507324555 " fill="none" stroke="black" stroke-width="1" /></svg>