<?xml version="1.0" encoding="utf-8" ?>
<svg baseProfile="full" height="107.31578793142336" version="1.1" width="99.11438108279958" xmlns="http://www.w3.org/2000/svg" xmlns:ev="http://www.w3.org/2001/xml-events" xmlns:xlink="http://www.w3.org/1999/xlink"><defs /><rect fill="white" height="107.31578793142336" width="99.11438108279958" x="0" y="0" /><path d="M25,25 m0.0,0.0 m7.102603764329631,14.850426673886968 l0.4070775167566279,0.1336901653067063 2.3009319747212897,0.06596610147786788 l13.797023148211833,-1.7695239378358991 1.8062338004410543,0.10523475634850385 m-9.69861437700418,3.1247605641097844 l-0.0356050155356803,1.0537329132912145 -0.397107150149631,1.2486970320731667 l-2.770091062259135,6.248559005996125 -2.7073114587003024,4.997927969715687 l-3.235395363982321,4.585225252654898 m7.8728434699735335,-9.159138126210339 l1.6215147010269904,-0.12376272218650987 4.863098944636211,-1.158879654055135 l1.7342888650184365,-0.030283418170890516 0.40057029339069083,0.3218257524349358 l0.2347562206616813,1.099933511577914 -0.1637381857748968,1.441005827329223 l-3.459092457975851,13.548932980327018 -1.6140647564443562,4.087368931322366 l-2.1101793900684664,3.7000683014483062 -2.094193235790918,2.735403937985071 l-2.401346853971337,2.3772199161138547 -2.7849764232963348,2.018512540517753 m4.4185319065607045,-21.244423506620933 l1.7895570176909765,1.2225150296370684 1.5988005357192983,1.4432518400798617 l1.346472068387925,1.5804907118621927 0.8992285982564908,1.4748339538925115 m12.6909102659619,-17.8358229266937 l1.1808993300859982,0.22175165437700747 1.5212244313006906,-0.14451010478733253 l12.482305676912446,-2.2144128099122318 1.4259110944710645,-0.12599208565020442 l1.0913131892375358,0.18265887961233448 m-12.78708558795968,9.469945176337966 l2.458512294472821,0.8800104781404237 3.5571257673420034,1.2371777254442045 l3.202310569892789,1.6532204038237253 0.9291485592784859,1.3488276966986328 l-0.007915790795254476,6.891479884825795 -0.8768401490912439,4.823735187313358 l-1.3132018306168183,4.882056252649521 -1.5638093535515556,3.859126290490192 l-0.9054262783219843,1.5690808672493561 -0.9775479267440919,0.6378830571950352 l-1.0433845110063211,-0.2710412155474674 -1.489659243902523,-1.5011620285689167 m1.3259416346836965,-30.54312735951424 l0.24422221731836946,2.0995872710210417 -0.7366425135598085,3.5099044885140844 l-1.545520071116129,4.749917344216655 -2.0324452360413194,4.674558456130313 l-2.0099351248732646,3.701142657404511 -2.3253682854371367,3.494422321864255 l-2.6397328370482867,3.1255278275432667 -2.1887057426122523,1.9803711583683403 " fill="none" stroke="black" stroke-width="1" /></svg>