<?xml version="1.0" encoding="utf-8" ?>
<svg baseProfile="full" height="102.65260666294711" version="1.1" width="89.39544307163393" xmlns="http://www.w3.org/2000/svg" xmlns:ev="http://www.w3.org/2001/xml-events" xmlns:xlink="http://www.w3.org/1999/xlink"><defs /><rect fill="white" height="102.65260666294711" width="89.39544307163393" x="0" y="0" /><path d="M25,25 m0.0,0.0 m18.324623361403333,11.044244025423374 l0.03492553473085687,0.42571637211792457 -0.9906332221438071,0.7342306927295981 l-3.6076367316921676,1.9840254847298546 -3.723659036673113,1.594208105543613 m-1.3367160292792741,5.348839571683186 l2.0579558312576323,0.15277581053829753 8.608800276526974,-1.551680773446548 l1.6573878936681792,-0.08989649374948638 m-5.5435095036911,-4.5054292445074156 l0.39649710744202016,0.6236871692587046 0.15066350696399952,0.7955498210226972 l-0.01881494711673934,19.60052546636924 m-0.46845339533316654,-15.02746571248409 l-0.6453346980044616,1.883066336152796 -2.297342848574983,3.7937561805004183 l-2.226430683555216,2.9228900089638707 -2.7516223385918095,2.965830453995911 m9.540087344615934,-8.962425196705924 l1.6197571866677158,1.3405353200291048 2.0424775021500983,2.567566418701006 m6.8856224957633945,-12.38704866020865 l0.37013475022749687,0.6406204311675852 0.1775940108851479,0.7844261894021579 l0.006406936722257043,9.380682357030867 m6.204909424533833,-13.6576263684041 l0.40620625461778753,0.5966315208658138 0.16557317073090114,1.133439946768105 l-0.1240235378990353,16.462034698141665 -0.2695267818677703,0.7700093699894417 l-0.3795715448965957,0.16709234826280256 -1.7432865314740416,-1.6898378573181285 l-0.9014398813714267,-1.0837939178179996 m-12.76109810750851,3.4604476084929345 l0.15233286236252733,0.17584025615934473 0.22426603965401862,1.840244396323069 l0.7752024784026618,6.243005048713071 m-0.6742373008994846,-7.728253815158171 l10.432131787929537,-1.3056015383710866 1.0105488588855178,-0.3214746432188245 l1.519735077752813,0.0015175413936143107 0.4840658098738391,0.4346143963146311 l0.08350372765430306,0.7849168364039544 -1.6030212335837664,5.737302894208415 m-10.725364258977397,1.5363527236326002 l11.633396257976536,-1.0938615908372014 m-23.529544247741036,5.94332375982741 l-0.40859847325748794,1.091274520164769 -0.6253015974360011,1.4658474275980018 l-1.9445615374683511,3.0567650903826857 m10.2513468931448,-5.928216428783946 l1.8730317384684017,2.354487323004744 1.210610811741355,2.657075833439998 l0.7196756583544398,1.9993167626017299 0.27332735886530657,1.4905023859096644 m6.390828420474784,-7.868317544005748 l0.9776182659853485,1.5673129486624167 1.003955986418084,2.1259802149898133 l0.8038304464425219,2.134067035569906 0.34395047202698303,1.5697726269166985 m5.588152982256413,-7.247106062095919 l1.285086155027041,1.4538463692303718 1.4025740361595065,2.1561316439620657 l1.1016109767372801,2.193944846599003 0.5047658491691023,1.543857128265344 " fill="none" stroke="black" stroke-width="1" /></svg>