<?xml version="1.0" encoding="utf-8" ?>
<svg baseProfile="full" height="107.70872814716239" version="1.1" width="105.82881987869557" xmlns="http://www.w3.org/2000/svg" xmlns:ev="http://www.w3.org/2001/xml-events" xmlns:xlink="http://www.w3.org/1999/xlink"><defs /><rect fill="white" height="107.70872814716239" width="105.82881987869557" x="0" y="0" /><path d="M25,25 m0.0,0.0 m8.306608585869371,16.71343739348113 l0.33335723756205204,0.2719614256981436 2.608384813354001,3.047764699298639 l1.3028898570584246,1.8971908405366549 0.7183462270624266,1.6639143924623863 m14.99358337694248,-9.826811822398941 l-0.34907398217903274,1.8258427346705015 -1.2727724971872567,2.6379435282370145 l-1.5641481321795094,2.274748068713247 -1.942866819774986,2.0518317613126222 m-17.039153094168014,5.613324267319462 l1.6498496882259288,0.2700865892568955 1.3559074954355665,-0.0648461442346744 l16.43362534529173,-2.1375544272349574 3.463338981321642,-0.1619711232202555 m-11.281632708620457,-15.425742705892148 l0.6778597657277927,0.6936337928786265 0.37091772002623763,1.4768839691645488 l-0.13575014770163954,41.27555988848116 -0.20803772634898163,2.225810416861911 l-0.5100054500224458,1.1154151571729287 -0.7074561307126609,0.27030544459749933 l-0.822923558546508,-0.8638484149455407 -1.7538992970996607,-2.4422061706099587 m4.018745995050603,-26.461631249042952 l-2.0584506096246438,5.090763900870413 -2.9715859809608958,5.520580948507998 l-3.1101933780549733,4.456655467058255 -3.153967266440266,3.2714237774866537 m13.358349861152957,-14.781350838620375 l2.087346209034121,1.392348561680814 1.6806875262784176,1.5074034466082664 l1.3474027454965494,1.7361322565123798 0.8955211623928734,1.6442974483835109 m6.9569510507501615,-24.396899713304958 l2.957078019757108,1.6317003862003803 1.5382594208845608,1.2031998819270435 l0.7382654611864161,0.9645498803747478 m-6.551760897762707,6.250293768906776 l3.5913508747084646,1.727955083020148 1.765881368872414,1.506344617364211 m-6.9245623838004855,8.342892364116722 l1.4677019439506935,0.29879882927647317 1.2632786632303241,-0.049304361369505216 l18.700967734172398,-4.037137225016883 3.604602809084977,-0.6152879917335392 m-10.860957498847048,-24.869819639683655 l0.8303476545816305,0.7563013070673128 0.47907291024692256,1.607914456624166 l-0.163910180178863,44.76657202366785 " fill="none" stroke="black" stroke-width="1" /></svg>