<?xml version="1.0" encoding="utf-8" ?>
<svg baseProfile="full" height="122.70057289497522" version="1.1" width="107.08962693162403" xmlns="http://www.w3.org/2000/svg" xmlns:ev="http://www.w3.org/2001/xml-events" xmlns:xlink="http://www.w3.org/1999/xlink"><defs /><rect fill="white" height="122.70057289497522" width="107.08962693162403" x="0" y="0" /><path d="M25,25 m0.0,0.0 m21.53391665590686,5.272719841720044 l0.3373240318884051,0.44117301298493034 0.4820142805264111,1.9489079243806167 l-0.01875007265533429,7.279572036495613 m-12.710007870760386,2.441411769703629 l3.3780301819301575,0.11588283393887867 17.36670542049268,-3.0435037165365775 l3.2354995367040695,-0.24647844088156057 1.936478056324083,0.18472401292895563 m-22.693762623781815,3.640835584616177 l0.584546697097919,1.8165293485879093 -0.14694402396886186,7.655115498085664 l-0.4260270243794146,14.902422569739743 -0.5900941754381287,7.512373438229606 l-0.7286802431365819,5.543719754287992 -1.0723867108691802,4.764367200746922 l-1.4682975105097447,4.047418564661758 -1.7493635644668728,3.208824848259421 m9.697991381363265,-40.25657619401905 l2.002212115882106,0.27291211599165593 14.573544090407692,-2.762309890293627 l1.2698285880840083,-0.15913301657147125 0.5815445768755303,0.3170808048260402 l0.5015863754545697,1.4090049892378824 -1.2375936687135471,8.232062653274518 m-12.886314308482014,-12.764639009458165 l0.541679945734079,0.9727817603268593 0.28391889958350525,1.7803447377727348 l0.5068887303959417,12.706610685612471 m5.753554251149993,-17.70851490152639 l0.5034857733454795,1.0594344601056267 0.122422568916328,1.2801573909544444 l-0.7275622837241077,13.967873676464473 m-11.518804163237224,2.2889988857853085 l1.9032713675785085,0.2333241558942265 12.910730545757177,-2.2359734259438824 l2.4043823756446066,-0.20470407257587048 1.3876699977816935,0.22871933287877663 m-15.361715227270523,14.607169089501152 l4.370892651768088,7.745754044692337 m-6.960079104707646,-10.630891282105543 l0.606736376153606,2.7204264097934443 -0.050882466059798834,22.114643412407542 m0.1959339437053831,-23.49843399780659 l9.051445097679785,-2.0396117653448473 1.2890545959619328,0.27749007045606855 l0.3255009910955385,0.5999995583314762 0.16810267104439106,21.362754647738225 l-0.15560645908294685,2.165372970281081 -0.5447032278506639,0.7489957938717001 l-0.7132596076956638,-0.3409798610746373 -1.4045320022526038,-2.3208392631555985 m-4.3598064745658895,-16.984111951234496 l-0.0136833306822946,2.0456302021130184 m-2.8528161927163973,4.99566410602329 l5.541632856876692,-0.7305235097026852 m13.893975640964463,-44.390509563295915 l-0.16233106143856513,2.3058536682441066 -1.9806829544336275,7.631198847250814 l-2.11044038707431,6.035880476958175 -2.47804937313004,5.480796662383922 m4.855389060856788,-6.5839340491497245 l2.8714736230233853,-0.3300235007642559 10.797557353519428,-2.896171309553205 l2.245487627510032,0.05212260313224216 m-7.25916912872177,4.2518701859314785 l0.15674930058285846,2.224849285084949 -1.0691007451796155,5.881559576623744 l-1.6797367179301792,6.56099347299918 -2.075837422140043,6.307406345637593 l-1.9245667871583854,4.682029837267862 -2.139174068056601,4.312585106807938 l-2.3693348387010236,3.9624240277350635 -2.655771313263714,3.7063674653812893 m2.7364363407180408,-29.954561775232342 l1.9812376448569362,2.4788848427348764 10.540805821129233,15.74578634307238 l4.312809859651144,5.589843771145366 2.9705774429964102,2.5834830877921715 l2.674468720940326,1.1129113331061091 " fill="none" stroke="black" stroke-width="1" /></svg>