<?xml version="1.0" encoding="utf-8" ?>
<svg baseProfile="full" height="112.90016469250776" version="1.1" width="112.7611490813896" xmlns="http://www.w3.org/2000/svg" xmlns:ev="http://www.w3.org/2001/xml-events" xmlns:xlink="http://www.w3.org/1999/xlink"><defs /><rect fill="white" height="112.90016469250776" width="112.7611490813896" x="0" y="0" /><path d="M25,26.22810808219881 m0.0,0.0 m19.656926873669757,5.10359502167604 l0.36197127567331,0.4348706388146505 0.4924080017328578,1.6138586232095904 l0.0017368757880064484,6.3972789161199515 m-13.767939898301089,1.6664419530539083 l3.5898870005415966,0.22307627942868966 17.714043656775143,-2.547948423618881 l3.7033213198526336,-0.2886703216220552 2.6330864377628287,0.1527255397133593 m-25.030101118746614,3.176711774232058 l0.6039875833801073,1.585771352811321 -0.11181103693199977,7.133383609369137 l-0.4168571556858534,14.598301351659932 -0.6139778409346174,7.145510214454148 l-0.8519397312861196,5.234611539003736 -0.9549358817814686,3.776428013656886 l-1.2672328247654308,3.320266759476292 -1.7708942373666108,2.9458437688701924 m9.220576263107128,-35.543372146625714 l2.1507080883305743,0.22881880687709147 17.745288681151617,-2.4780173633248843 l1.430488998591977,-0.08975463861827655 m-15.382590633129608,-5.0172335709153115 l0.5349586351273548,1.040979274949632 0.21368091814348608,1.5179370254149973 l0.5076765171853981,14.917331418724828 m7.992149319588913,-20.42992270232489 l0.48022275227618927,1.0674218898064596 0.1511837404381283,1.269671276797187 l-0.9723011178783892,15.713947620599706 m-7.066044005446821,1.8968972951540268 l8.238479330466472,-1.3065076050901454 m-12.959272058051427,10.260388960356163 l-0.41242939302045256,4.695316431588366 -1.2582164100090305,5.796477116044039 m6.072912789874103,-12.32433179342555 l1.023606158167093,3.554993736888711 0.7999126651462426,5.440514643429573 m3.9860992878592976,-9.843685293510132 l1.830590886974365,3.9743323803998423 1.0150022312939861,3.9964879282581665 m3.0683206538455137,-10.067092445712014 l1.7107914972187237,3.3137405409856404 1.1272945015966715,3.8538641605894335 m11.855832699688502,-48.339367639824694 l-0.2663464068517095,1.286658287956182 -0.5235171890806579,2.256357672662105 l-2.2364430465602783,6.250008381798917 -2.3563945910512727,4.845757706891023 l-3.0297419461020922,4.572087858624136 m6.524877917668168,-8.303712109205065 l2.1979470794219176,0.2257175648679766 9.38595964550666,-2.597075142683658 l1.8370518783917005,-0.15821565301121376 0.39495209185080377,0.8444394251245543 l-0.4709255447294289,1.9413514646836683 -1.6656350246494793,2.578784844250687 l-2.249587128598414,2.6526226593520694 m-7.759464025884465,-0.13610052131627892 l0.3792745724368849,1.1856405502214515 -0.4733901294717204,5.277441262392138 l-0.718566929345206,9.361133834721905 -1.0967971169112782,6.561821635822422 l-2.5675990082530324,7.615896554220671 -2.1684451638196536,3.641465888540897 l-2.1689810081618215,2.520069193107186 m10.800295472701182,-23.764168301077397 l3.7250125447689775,6.826503219490011 4.78268081038493,7.9369110569478005 l3.168960503664241,4.220338016622352 2.2393685261522083,2.297691504088281 " fill="none" stroke="black" stroke-width="1" /></svg>