<?xml version="1.0" encoding="utf-8" ?>
<svg baseProfile="full" height="87.67934485143374" version="1.1" width="100.81382311766149" xmlns="http://www.w3.org/2000/svg" xmlns:ev="http://www.w3.org/2001/xml-events" xmlns:xlink="http://www.w3.org/1999/xlink"><defs /><rect fill="white" height="87.67934485143374" width="100.81382311766149" x="0" y="0" /><path d="M25,25 m0.0,0.0 m13.8199663885375,5.2015758243111465 l0.41812241312735793,0.27700472328931613 0.5381600712581199,1.0841350684813467 l-0.036216162550778544,5.288375877126472 m-11.922837468286126,1.196067871596048 l1.8884566327596075,0.13743051152017705 2.4331551987158107,-0.15001559913429585 l16.121570403512244,-1.8364365247025483 1.3990376965522795,-0.00568039059682037 m-11.275052004337981,6.176005037347233 l5.132678838983676,0.737375134642523 0.8927799957317407,0.5014904326300216 l0.2406593298439501,0.873912372772356 -0.6585051553385707,2.3737727250215364 l-1.3053285306428675,3.2939360825577273 -1.6860152932179535,3.39278833539326 l-1.7975073335505245,2.8584815721617094 -1.7333941794214698,2.0861908693210927 l-1.199708705321651,0.9293008745794382 -0.8086727118896251,0.2886193967215629 l-0.6967899135773018,0.00023610169523120774 -1.092457361854619,-0.5486178284495435 l-1.0640119070639504,-0.8530273742801194 m5.7379832577340695,-20.009857992813995 l0.024215605014200482,1.0655737379633738 -0.838410626404697,1.966378811114841 l-1.5244072919351892,2.840455178248723 -1.6912231249923086,2.6023105072591295 l-3.65528968909769,4.242050374562212 -4.119057231731814,3.271512304427923 m32.495847984363714,-26.12864002149582 l-0.02278130760167891,0.992087963235498 -0.5378000223025782,1.2859772626145372 l-2.747435603503051,4.476287705873576 -2.9434276414576153,3.525867979858065 l-3.5788530348988625,3.294766541227499 m9.305428742532019,-11.51610830586486 l12.345440677524264,9.32781671325432 2.2272105546755143,1.5052142441621081 l2.7282916277743077,1.5715505936072793 m-20.36554070589537,1.4418529750921398 l2.5528938031558916,1.070077251970983 3.070832580075531,1.7148912409457402 l2.6821052421985314,1.8943209950063835 1.405778274494223,1.5867758687026794 m-12.69734127156668,4.031040728498747 l4.196215267813979,1.4534362675422374 4.851226241528165,2.3260651859383685 l4.178268467341564,2.537025818928571 2.23594431369725,2.007693827568615 " fill="none" stroke="black" stroke-width="1" /></svg>