<?xml version="1.0" encoding="utf-8" ?>
<svg baseProfile="full" height="106.53248123862848" version="1.1" width="104.77061197872207" xmlns="http://www.w3.org/2000/svg" xmlns:ev="http://www.w3.org/2001/xml-events" xmlns:xlink="http://www.w3.org/1999/xlink"><defs /><rect fill="white" height="106.53248123862848" width="104.77061197872207" x="0" y="0" /><path d="M25,25 m0.0,0.0 m6.932048223004432,4.947819810335822 l0.43996684864638147,0.17369153837990112 1.8208609604724215,0.13951785976266887 l11.763363680914267,-2.0262437719883595 2.444550009378504,0.07259640798771802 m-8.928950758823659,3.9427130416052774 l0.06405090011157052,1.4758821152340211 -0.2818320731320221,1.9042607997706145 l-1.1945950199370177,4.644972499199283 -1.4518462703117951,4.345118153263492 l-2.8094137813192632,6.894077237970149 -3.3345212412768053,6.625881193196433 m8.229428218290634,-13.237578746391701 l1.5871436261388006,-0.15897357593815006 3.884924596446718,-1.4968413348137823 l1.1111261673868078,-0.03493786726499946 0.42271413383003836,0.4065557729756003 l0.3534820147250405,1.3171270804725936 -0.301248403778551,1.6886622503233688 l-3.303673932060455,20.389109231987828 -2.4099073092636987,5.437447055230576 l-1.9597030873794543,3.2268342180224683 -2.2678085540196573,3.1253737463263236 l-2.5552235228130384,2.729416522981327 m3.4893564509546824,-25.99535836988498 l1.528239322214492,1.6072669854161499 1.4329008268036638,2.056207813697329 l1.1925483420357046,2.1623952263333543 0.7728289647127908,1.9954025723881912 m11.470683925236786,-22.839490853620966 l1.0119265906476809,-0.1657644090513344 6.733241607067296,-1.9087538932142805 l1.7002902925276222,0.043970402341963734 m-11.659611227868506,10.36878910589401 l2.077392387949544,0.2142005379642459 10.305971812631498,-2.473466075012313 l2.535591432203833,0.0319749972266358 m-7.832459961622271,-19.37846617113588 l0.43259986976212567,0.9073489774844071 0.16676811845811051,1.7284707491148823 l0.0193477900512244,48.537278436900216 m-0.317982793300996,-27.939800941348903 l-0.025712484541277978,1.6159160911585357 -0.5473289626952743,2.19107314872416 l-2.452808210129478,6.650806005041847 -2.3730600215621225,5.118955112038381 l-3.0072064047217704,5.16753939740001 m10.546700121264907,-14.047540105046176 l1.954305812782876,1.763926243058755 2.075612276845813,1.7968512548183146 m2.857017841959221,-25.824790331237182 l0.49708164717297015,1.0857326076394465 0.1660449463747843,1.0549729740378266 l-0.0226667898338099,41.19844901053357 m0.26070792960438977,-39.45948834845003 l9.760544269045548,-1.9802652340757914 1.0023923334525597,0.26989828944269756 l0.6609322817644283,0.9811955172084585 0.10348621624282595,39.175173150380736 l-0.1573674225708745,2.0405579051552687 -0.3817357573234379,0.9265790437988219 l-0.5351412809223182,0.1522260655109468 -0.6103397945347188,-0.4254035814414404 l-1.6112934159512498,-2.1052534738972426 m-7.97524389631425,-28.424232193345155 l10.683198689183577,-1.4256718816510132 m-10.453651279997421,12.130741596752515 l10.171501183094817,-1.046498216096547 " fill="none" stroke="black" stroke-width="1" /></svg>