<?xml version="1.0" encoding="utf-8" ?>
<svg baseProfile="full" height="106.52530868736864" version="1.1" width="99.83532021471515" xmlns="http://www.w3.org/2000/svg" xmlns:ev="http://www.w3.org/2001/xml-events" xmlns:xlink="http://www.w3.org/1999/xlink"><defs /><rect fill="white" height="106.52530868736864" width="99.83532021471515" x="0" y="0" /><path d="M25,25 m0.0,0.0 m9.527228533822333,16.951852184398707 l0.5467173416314368,0.06435783407377743 3.8813372778922752,0.03052468133353345 l30.077498090811833,-3.1702295254244244 3.302280932047382,-0.2675990432414481 l2.500258038509894,0.1969640951247067 m-21.267879538507596,-9.660143436842963 l0.8536163632986363,1.1628386937133308 0.3719927701446527,1.545857617128379 l0.036838291183427206,20.08329309141992 m-14.631277131267296,2.335867637137536 l2.044258866936539,0.22481920232331465 2.870998222331643,-0.23519214687637188 l18.40170608195083,-3.6011249570208186 0.774242284166479,-0.040239274657743 l0.5341083906393618,0.2050294681270955 0.30644620832557823,0.3756309949510868 l0.12633637202921622,0.5386691544326444 -2.0792033864967445,3.709920448546794 l-3.5235632275704045,4.573901842911397 -3.964707485963209,4.287933241383438 l-4.291448134488782,3.7346636713870884 -4.604467986222152,3.2349466881951616 l-4.797417139283895,2.6872625173153066 -4.942978432197093,2.0613306281901433 l-5.1147634436238505,1.4422872937089548 m9.272101579119143,-18.743797304223317 l1.7009508794546309,0.6697832524361871 2.640057396200788,1.4678033496216885 l12.717714587541384,11.23177946574722 5.12135499880604,3.8756421853345566 l4.512418014750363,2.921049230316246 5.117198903200671,2.6296259063974996 " fill="none" stroke="black" stroke-width="1" /></svg>