<?xml version="1.0" encoding="utf-8" ?>
<svg baseProfile="full" height="102.55992798992776" version="1.1" width="116.9502612416489" xmlns="http://www.w3.org/2000/svg" xmlns:ev="http://www.w3.org/2001/xml-events" xmlns:xlink="http://www.w3.org/1999/xlink"><defs /><rect fill="white" height="102.55992798992776" width="116.9502612416489" x="0" y="0" /><path d="M25,25 m0.0,0.0 m19.372660053035293,12.493012633856502 l0.4236642724098412,0.40415568365451354 0.5416830143363612,1.5801970950773758 l-0.023599144933322234,5.685491641986717 m-14.055140320487187,1.4791158456068492 l3.8403654533744356,0.17092639451836206 20.10891484202115,-2.0164301592057297 l2.83126890550245,0.09345234960046281 m-15.527449882051455,5.341144235192357 l0.08576961986389577,1.46944272355942 -0.6118801980306365,1.7630549168812093 l-1.959907487459595,4.812447840998114 -2.6680014811368933,4.042227156214868 l-3.421646476985259,3.1341534418099775 m7.629778554755437,-7.613789015295372 l2.560312551731841,2.289870801730097 1.3538377951866147,2.3736800399905675 l0.7069271677821239,2.0549916788731375 m7.881998900384681,-13.217560851237195 l-0.29584020642440395,2.22136096639132 -1.4662697446966668,4.115139582761193 l-1.9346580236317226,4.427066702102686 -1.8640433426932381,3.2265214860378726 m5.045424748728729,-8.576531907501511 l2.5313402542065697,1.954633311258358 1.8956259216322726,2.8812276154588115 m-25.199796733475146,13.502993712887598 l1.7079217010426824,0.40092358994844396 1.8448065119853803,-0.04422143637723947 l22.664967615630314,-7.5194798034993156 m3.6651366349259176,-33.891547294395664 l0.7835912950962433,0.3034572199954828 1.7098137928958503,0.07096599545632051 l19.82948549732604,-1.9145747015403007 1.7126933737636743,0.387653134448279 l0.49513803197266515,1.0289783098865102 -0.10103822614447473,2.212095976985475 l-1.3286183525338287,9.015890587939236 -1.6712107661570885,8.329287391743781 l-2.0149384728537654,7.259520209684542 -1.934863575600498,5.320533611017387 l-1.5559934198525986,3.9287212163166667 -1.279681610384104,2.7484697827835793 l-1.2931212376640924,2.1992479138357255 -0.6860355825709188,1.0408837052905702 l-1.2912835621008112,0.6880834493883564 -1.1871026408944902,-0.4933572073694298 l-2.085291963149761,-2.387893954022607 m0.21992475043788554,-36.79785289351461 l0.12109449125396171,2.844657025764893 -1.3329569269299375,6.383820866268032 l-1.9450843417083155,7.1048517257649975 -2.2453390268650155,6.313675520182105 l-2.326754255144127,5.029467434287951 -2.8251313607732,4.784032830782799 l-3.4448952743335672,4.680407294584623 -3.0530233559041697,3.4412345650826075 m5.723177062496837,-31.460983184030137 l1.652443840705808,0.2988380630387795 1.8161581687702055,1.2590810933348575 l23.48391900267683,23.484839831382658 3.017227916462586,2.640563646979571 l2.3237864928246044,1.2217183484466945 " fill="none" stroke="black" stroke-width="1" /></svg>