<?xml version="1.0" encoding="utf-8" ?>
<svg baseProfile="full" height="87.43920813233004" version="1.1" width="101.58955173368199" xmlns="http://www.w3.org/2000/svg" xmlns:ev="http://www.w3.org/2001/xml-events" xmlns:xlink="http://www.w3.org/1999/xlink"><defs /><rect fill="white" height="87.43920813233004" width="101.58955173368199" x="0" y="0" /><path d="M25,25 m0.0,0.0 m7.734776175634851,4.0727366372118645 l0.46895690803910106,0.12419491811287038 3.4865062332000987,0.07672660679845786 l27.650411345195813,-2.170643218291062 4.058783536378682,-0.097820610514599 l2.828070449531377,0.3108454147189902 m-34.04762462105514,6.94546003105666 l0.6290813930130404,0.8533040477918724 0.2850318067558445,0.935837250168762 l-0.08838445145400342,15.650860537767329 -0.3821370004725317,0.7316958619289512 m1.211519500439205,-19.15641288897179 l24.44879217489844,-1.8078855566963854 1.5986616854851101,0.13124608165794888 l0.8835244324480307,0.3331263286201927 0.5953489983433596,0.7355239607332862 l0.15756944537158243,0.5119628741403425 -0.5164993735765633,17.173424875783642 m-19.242805407363697,-10.829332592222109 l20.17787055404384,-1.750244269414682 1.7939807444714273,0.02326690847671634 m-22.902157354789143,8.06185821765764 l22.853931617022702,-1.102070485783794 4.536376612494671,0.03373024954102514 m-28.826613896071514,8.629797007229612 l17.99758906615909,-1.1635789854503604 9.622201685482361,-0.40912384464228957 m-21.71947446474928,4.22205487922935 l0.06697903833782759,0.9172902629410391 -1.0948369902368775,0.6720231741165251 l-5.35488456342559,2.439854797044223 -5.9494120288862655,2.339499661589807 m27.63146779016144,-6.414982152320575 l3.2454523177586783,1.3341418800292317 3.2454975966120805,1.7155695474102286 l3.003664971869248,1.9548633339575274 1.50233580661468,1.3705841788879538 " fill="none" stroke="black" stroke-width="1" /></svg>