<?xml version="1.0" encoding="utf-8" ?>
<svg baseProfile="full" height="107.73950466200839" version="1.1" width="97.3767675445043" xmlns="http://www.w3.org/2000/svg" xmlns:ev="http://www.w3.org/2001/xml-events" xmlns:xlink="http://www.w3.org/1999/xlink"><defs /><rect fill="white" height="107.73950466200839" width="97.3767675445043" x="0" y="0" /><path d="M25,25 m0.0,0.0 m7.327166287819303,21.09876387065275 l0.4145553524787897,0.08945067131487289 2.6159836198640374,0.021170583121604008 l11.129190814278822,-2.3781799067914258 1.5441853521995048,-0.02520463353132547 m-7.030119094500429,-13.702558125864073 l0.544608454004449,1.4187905393061464 0.12493757807814064,2.0400616462888235 l-0.02265902434085225,49.17721001751102 m-0.38215808275244595,-36.045699794555595 l-0.7539652158154388,3.9945889503963303 -2.445281095049493,6.705863592941537 l-2.533124463067398,5.5822568629792375 -3.719920715159516,6.843006925920672 m11.32218067939958,-17.85211063926018 l2.3358619130291847,3.52363843524778 1.9429201430956746,3.9826041454797654 m8.849735927344708,-27.577588442480327 l-0.15477793582969576,1.683441961192591 -2.243208433928586,5.622403439478321 l-2.18277615405954,4.258880532606525 -2.5933638737711577,4.018197858334932 m5.590790390329117,-5.6968094546328985 l2.911348253442864,-0.07012462756661796 12.257658013451032,-2.6735723568615826 l2.5269988539636383,0.028669846524777814 m-19.083249841589232,9.538294922115503 l0.9886044107772881,2.0659811123201224 0.05698549641108804,11.18208342160957 l-0.4758779037745879,6.921588486481648 -0.8383004416630785,4.555428065105951 l-1.2087317122581807,3.629204962127226 -1.6532462372653338,3.055961148560056 l-1.7751884818190666,2.1552246068252 m13.450482473943723,-33.37361897870242 l0.47963895714651517,0.8327751596838773 0.16025276080052878,1.6413729867102618 l-0.024045070503083396,28.750913107141635 m-12.359508588300775,-28.381663225534126 l0.3289429615216191,0.9932130814509957 0.04951295272665473,1.437338712536556 l-0.3481521927515774,9.970418557902581 0.14542650002649615,1.5481267215610797 l0.42632782824050425,0.22109851830467353 7.785317219835339,-1.7923138534637317 l7.129537672939496,-1.0689420617306276 m0.1514998780996258,-13.39373994998402 l0.553833330523188,0.8444132710466353 0.24833248426542964,1.5881954033456491 l-0.7806152143483674,14.859857860174774 " fill="none" stroke="black" stroke-width="1" /></svg>