<?xml version="1.0" encoding="utf-8" ?>
<svg baseProfile="full" height="112.4982782649044" version="1.1" width="109.92139930631615" xmlns="http://www.w3.org/2000/svg" xmlns:ev="http://www.w3.org/2001/xml-events" xmlns:xlink="http://www.w3.org/1999/xlink"><defs /><rect fill="white" height="112.4982782649044" width="109.92139930631615" x="0" y="0" /><path d="M25,25 m0.0,0.0 m13.695515486884776,3.028416764997309 l0.5033862185405154,0.3707613744090211 3.095298459029177,1.113067896758126 l31.167516719679647,-3.8597657300652757 2.0300278990994234,0.9440882419059562 l0.4151107767726132,0.758617342307065 0.08433706110643656,0.8465455289055995 l-0.1290087131396172,1.0012498253665263 -1.224260073143032,6.7356443489269395 l-0.8682344619463733,7.103398041834241 m-34.37599409652441,3.5316811557804795 l36.17857580434902,-3.304536226672823 2.7775575541060524,0.009800425901852539 m-38.72232677320293,-12.349212052557858 l0.6508763526387329,1.3578300216124934 0.22826966459310769,1.4544724844466757 l-0.14091627278451155,49.64545210906463 0.2593457024598204,3.283650503258273 l0.46615500831573176,0.7111518114439161 0.8820937986853647,0.11596439728124505 l1.4074652035802189,-0.1096635089716709 5.315678747790576,-6.434255543075163 l5.955006914627538,-5.761006757583718 m14.412431583315017,-17.314192055456907 l0.07133821864203145,1.7722655196948212 -0.8354783334958052,1.5290310610923545 l-7.1953460845696355,6.939256639057679 m-13.944630277876596,-8.337852864469427 l2.406311156402553,1.1033255097337287 4.523624409202164,3.384178498941053 l20.509819841447516,16.959578008293576 5.4227778650919705,3.395174569905166 l4.899073946639041,1.8100530910090358 " fill="none" stroke="black" stroke-width="1" /></svg>