<?xml version="1.0" encoding="utf-8" ?>
<svg baseProfile="full" height="105.16853119564406" version="1.1" width="99.52000952063973" xmlns="http://www.w3.org/2000/svg" xmlns:ev="http://www.w3.org/2001/xml-events" xmlns:xlink="http://www.w3.org/1999/xlink"><defs /><rect fill="white" height="105.16853119564406" width="99.52000952063973" x="0" y="0" /><path d="M25,25 m0.0,0.0 m10.724960905108828,16.324001609483425 l0.4649745680435058,0.005094108627040654 3.539104756482528,0.008775794247630172 l28.477044760171925,-2.89985621250727 2.7086689954042944,-0.23428812780628952 l2.2721929079103886,0.18703080200830371 m-19.299763286504113,-7.470517664371133 l0.8621960894829276,0.9816080029274182 0.44887571007943056,1.4394187259729314 l0.027324187314942024,15.420448200107847 m-12.918466902622448,1.81266241425586 l1.7812832676912256,0.1389760841895439 2.6269027320069216,-0.230197657615716 l16.09191334753468,-3.2171370886983377 0.69800696882512,-0.05657447632729713 l0.8607582432241832,0.18843117907534987 0.4280034060117731,0.31609123589931265 l0.19575176962777774,0.44086204439479676 -0.06063402525731707,3.3842271244122477 l-1.4998385388356874,4.032203762260361 -2.5296419319394334,4.470298894791446 l-3.2429194954526266,4.137810992883987 -3.5554565193515577,3.6231913671625118 l-3.885445139014284,3.217240239905369 -4.077392997361151,2.684864598336868 l-4.303374111857122,2.088040813970872 -4.668783388228975,1.4648143387553227 m7.982342312030721,-20.61936076171664 l1.4724939783545594,0.6798477958176576 2.342212846429871,1.6015268390762611 l11.377069223456788,11.396790851875798 5.0131354906096535,4.303594978880805 l4.406189901147399,3.069527509284801 4.7603194901149966,2.4790828760829675 " fill="none" stroke="black" stroke-width="1" /></svg>