<?xml version="1.0" encoding="utf-8" ?>
<svg baseProfile="full" height="125.946962563217" version="1.1" width="98.38784723430338" xmlns="http://www.w3.org/2000/svg" xmlns:ev="http://www.w3.org/2001/xml-events" xmlns:xlink="http://www.w3.org/1999/xlink"><defs /><rect fill="white" height="125.946962563217" width="98.38784723430338" x="0" y="0" /><path d="M25,25 m0.0,0.0 m7.453415054472134,11.717119298344635 l0.49693744231557163,0.13859642912358036 2.24958571788139,0.009542377573733907 l14.69117211980231,-2.002761387513427 2.833480641369931,0.1597876254786354 m-10.961807890044444,-6.835107096468314 l0.6506051487845702,0.9886729601921385 0.17679012891444115,1.0113879573350217 l-0.015351938319218874,12.615259143214187 m-8.675479731358086,1.5212972753212917 l2.55349043384552,0.09389593214916861 11.617139216500114,-1.560470531292229 l2.6807782703516394,0.02308133057416114 m-16.596453974260566,7.908624852178692 l2.0728415544806453,0.7531691455109779 10.493444333220138,-0.9953493072899956 l3.2565773183358084,0.15203545562741588 0.6908057497068749,0.33038394876100347 m-8.564997661128674,2.0559761668191077 l0.45907313423781976,0.8058725086203996 0.20310164347923412,1.428714136003694 l0.015561292299220843,13.555306740602104 -0.24194519758756994,0.6508094214069393 l-0.45407892671629907,0.1108505968847183 -2.2582548276534697,-0.3309694534920425 l-1.8658981848031941,-1.190779733386731 m-3.324268671779032,-10.155334230172272 l-0.20139605268553842,1.5646035023677862 -1.5579573862311749,2.8398209753085317 l-2.1306613603049804,2.727970666825057 -2.208787448602759,2.057010535243217 m18.795060543481135,-11.013514893708317 l1.6909998096580359,2.5324395783488405 0.8774037847717817,2.294516473519036 l0.33424919788903057,1.9093139896447937 m8.803654669152277,-33.25868840959962 l-0.2065609352152504,0.9966327754445842 -0.3730559446010433,1.6135834926495536 l-2.0405794570532687,5.293586640674161 m-3.1326384741023325,1.0744404261619507 l2.1438716910019027,5.039408931932275 1.7828459683654478,3.992726086392882 m9.89623802693202,-11.135524865216269 l-0.1454369356323845,1.2330835372297877 -0.9330862252636574,2.2611437265040166 l-3.09181174275079,5.434724491995227 m-4.153599541889049,5.388948572556211 l1.2464252609561934,1.6548789212150588 1.1218086107308356,2.7307102944605055 l0.9454312114006792,2.632419962478701 0.5065614519986897,2.3503307656942742 m4.470592171166012,-11.388902319207745 l0.03880681355495587,1.6666656194061173 -0.6099157485681053,2.299105164856151 l-2.0302475579840236,4.756484101951508 -2.1398932543579168,3.8281728280839444 l-3.4419667887325227,4.943234749669074 m5.284334251158656,-7.19759969373068 l1.9256602757067804,1.5861996786755121 1.8072220754467896,2.307963545723848 l1.4300731374182336,2.660990991664244 1.1503193721180505,2.6449603224527207 m-27.07770752401045,9.875449988313019 l3.296374716064841,0.29141569118039723 22.379058997585776,-2.5132771532504066 l2.513616709202389,-0.08407433097866711 1.7862786701813076,0.269619201344861 m-15.731600873095012,-5.678037381756627 l0.46644014780971327,0.9315897015475392 0.1583565906621619,1.6540323044951621 l-0.05845427246594701,25.992497464270556 -0.27263591979578744,1.3789034091831769 l-0.46971180506279203,0.547390939094438 -0.6159534355865378,-0.11444266634798102 l-0.6844689961416561,-0.5955966452020732 -1.6272445726559444,-2.114187713637107 m2.706540327222705,-18.900401370890126 l-2.3125336638290044,4.422315238809547 -1.9711671543125278,5.27595097092284 l-1.5857218846199685,3.811522350190644 -1.652168908069936,3.093039915675017 m13.477367459059657,-15.778367123756444 l1.6361535292501186,2.338053239573985 2.035039978069848,3.48878631766636 l2.203593704178779,4.146702298788059 1.7732664515001213,3.491393857056142 " fill="none" stroke="black" stroke-width="1" /></svg>