<?xml version="1.0" encoding="utf-8" ?>
<svg baseProfile="full" height="97.99573578107123" version="1.1" width="108.73406494662561" xmlns="http://www.w3.org/2000/svg" xmlns:ev="http://www.w3.org/2001/xml-events" xmlns:xlink="http://www.w3.org/1999/xlink"><defs /><rect fill="white" height="97.99573578107123" width="108.73406494662561" x="0" y="0" /><path d="M25,25 m0.0,0.0 m18.36061361179009,17.400644804756055 l0.42835218292514526,0.11524235145718754 3.9856283223481723,0.12867018932272936 l28.006364053641402,-2.0656094477338875 5.047776614613558,-0.13941627189272546 l2.9053301613072415,0.2333636074842173 m-30.82347089250055,-5.132083396554066 l0.9215747657260616,0.6961412156235008 0.42256610267021966,1.000936301323338 l1.0979537179610515,10.853051515807316 m15.049983372383911,-14.127232030256106 l0.44284960233093923,0.9412086617690987 0.06806181108404694,1.1685370278430822 l-2.138171067478464,6.599444130731746 -1.6039402806547856,3.18305018855799 m-6.076138343754801,2.7884096376217236 l-0.2221595881316585,0.5563686367467575 -0.5389484095727078,0.5913392809425851 l-4.187612437256764,2.303712265073582 -5.0295104259851415,1.8373757821516306 l-5.844703989123112,1.5632102406553374 m-2.621709279047626,-1.0110093381816958 l0.661148707392252,0.6647131930940621 0.29344986863660727,0.9090431174460931 l-0.043755316586105486,16.025612143985118 -0.4102514582621748,-5.640253175996032 l8.742107373565101,-9.35190122697085 m0.2352385550263282,-4.990094146524361 l1.8171071441690858,0.8438700184950038 1.7588028844391341,1.3698511771275592 l1.4654045283924513,1.553489785565337 1.0574877116262242,1.670115605556089 m3.7638904423298016,-11.441528401430295 l1.5937911294003586,0.2413760023526701 2.0401603381992586,-0.04469636016410917 l11.84387875640241,-1.6474176530609903 1.4573025125976875,0.31948112700302167 l0.6497961201906961,0.9056778965491721 0.13672441564072038,0.6863746064017036 l-0.5113238479831028,8.106579014407709 -1.2467789560408826,6.043787725525804 l-0.9841753450248469,3.2598413040469265 -0.5367403577830827,0.8203157737305975 l-0.6178044611700465,0.38264190177243235 -0.6173540159815616,-0.022058432263692924 l-0.593717849734618,-0.33950890179840254 -1.2656087155023779,-1.3190867421213863 m-8.476506605819651,-15.602547749083543 l0.5386343362415432,0.7541318938721132 0.22722716596817838,0.8823336121543732 l-0.050449559353523,23.47023731814972 " fill="none" stroke="black" stroke-width="1" /></svg>