<?xml version="1.0" encoding="utf-8" ?>
<svg baseProfile="full" height="102.29967607897471" version="1.1" width="92.46138869902722" xmlns="http://www.w3.org/2000/svg" xmlns:ev="http://www.w3.org/2001/xml-events" xmlns:xlink="http://www.w3.org/1999/xlink"><defs /><rect fill="white" height="102.29967607897471" width="92.46138869902722" x="0" y="0" /><path d="M25,25 m0.0,0.0 m13.838113872586764,6.126987493989576 l0.02268674829482385,0.44209087821472987 -0.47548778619824966,1.7577454523775005 l-2.381489053950072,4.014845717736177 -2.775089570100276,3.3336342232416305 l-3.192290075915064,3.3565981564807195 m7.691005842186246,-5.346821502806447 l2.526474939055341,-0.04591656457174541 19.55416941241688,-2.6278783518444913 l2.975535571165918,-0.03122241332322524 m-34.28144240363197,14.119346264185731 l2.321110270091059,0.2557484901434188 2.7602934007097573,-0.1078413472528659 l29.04334430992531,-3.0157551415252035 3.046777896120435,0.12171593944140263 m-19.252121349199665,-20.98797144117781 l0.6862323342278227,0.8256343449585825 0.3452033115361386,1.6458043175005101 l-0.11809898089341096,43.70232917240095 m-1.2594011817960833,-12.775015642774608 l-0.5823535770531567,1.3075898867122628 -1.5641467584647906,1.682987748438095 l-6.18632562210167,5.66998155583526 -6.241598856066759,4.443995448811582 l-5.966150419088692,3.4039817450948378 m23.649558708477056,-17.506809168623736 l4.321023776023829,5.66005374007847 5.903139582111196,6.401912175864243 l5.81001587796173,4.4344491923330756 2.242698480596777,2.0374757090360895 " fill="none" stroke="black" stroke-width="1" /></svg>