<?xml version="1.0" encoding="utf-8" ?>
<svg baseProfile="full" height="109.49251383543015" version="1.1" width="102.8858512127772" xmlns="http://www.w3.org/2000/svg" xmlns:ev="http://www.w3.org/2001/xml-events" xmlns:xlink="http://www.w3.org/1999/xlink"><defs /><rect fill="white" height="109.49251383543015" width="102.8858512127772" x="0" y="0" /><path d="M25,25.00000167172402 m0.0,0.0 m2.8025564551353455,15.437620878219604 l0.6676149368286133,0.11832980439066887 4.4670990109443665,-0.053178234957158566 l34.500582218170166,-4.995500147342682 3.645000457763672,-0.27968285605311394 l2.748042047023773,0.26913968846201897 m-22.77921199798584,-10.49673080444336 l1.0078875720500946,1.4505822956562042 0.44852185994386673,1.91539466381073 l0.027873115614056587,22.592828273773193 m-16.57263994216919,2.7249032258987427 l2.316235899925232,0.2586497366428375 3.2312291860580444,-0.3005351684987545 l21.61071538925171,-4.696868360042572 0.9051252156496048,-0.044448114931583405 l0.6618303060531616,0.2859991602599621 0.38552891463041306,0.5556652322411537 l0.07630614098161459,0.764252319931984 -1.835600733757019,4.0356335043907166 l-3.6790278553962708,5.975187420845032 -4.303087592124939,5.541679859161377 l-4.813497066497803,5.029910206794739 -5.21093487739563,4.43715512752533 l-5.4940420389175415,3.766818046569824 -5.666220188140869,3.015156090259552 l-5.724747180938721,2.184550315141678 m10.70361614227295,-24.6520733833313 l2.0065878331661224,0.8416643738746643 3.039655387401581,1.9136933982372284 l14.642612934112549,10.427314043045044 6.55909538269043,4.361614882946014 l5.8336341381073,3.4190595149993896 6.677510142326355,3.3089813590049744 " fill="none" stroke="black" stroke-width="1" /></svg>