<?xml version="1.0" encoding="utf-8" ?>
<svg baseProfile="full" height="107.6340144158229" version="1.1" width="109.63477429890182" xmlns="http://www.w3.org/2000/svg" xmlns:ev="http://www.w3.org/2001/xml-events" xmlns:xlink="http://www.w3.org/1999/xlink"><defs /><rect fill="white" height="107.6340144158229" width="109.63477429890182" x="0" y="0" /><path d="M25,25 m0.0,0.0 m12.404383600956319,19.089402763143706 l0.4593211537290335,0.4522930800661158 0.5627386022451775,0.9946135798807285 l0.20109274118737586,1.6648886442075164 -0.03318482972192503,27.960854163053636 m0.6276415777447372,-29.753280171389175 l6.127741277380558,-1.660590676400227 3.6272491088705188,0.027982580066183135 l-0.19042516504881146,0.39813362403510283 -0.16420929891437375,0.9720206606567217 l-1.0451536387530969,27.290300715064877 m-8.734492961324682,-20.046914616567566 l8.734487652413472,-1.3266308605122175 m-8.65526779007233,10.216995837885191 l8.489401565201277,-1.2351511580867978 m-8.559762551801297,11.399953296336585 l8.51842062924699,-1.2812301089202982 m5.054140478116596,-34.74371643701904 l2.1760867557862262,0.12674290666906338 15.366959984997267,-2.1181789237707735 l2.054020338596616,0.17032240007396826 m-10.797272478581549,2.5954008823811714 l0.12442893873779935,1.2837692046480211 -0.1869178635592997,2.3153874921463586 l-1.5371117688005103,9.035832967347512 m-5.860394238386418,1.3572936760508982 l0.5118606202913646,0.2861797677514729 0.3010119742564984,0.18948709725212792 l1.3657088888827589,0.11208860799856137 m3.8963690999512948,-5.460474113408764 l1.4559748401537544,0.8466508503927102 1.357490742319711,1.3663047374637172 l1.4660362334430501,2.627060540805052 m6.868704211067911,3.6953913681498363 l-1.0548660478856409,0.9205735493690912 -0.5495705488866816,0.5079509077809893 l-2.479259641617793,3.747382418849457 -2.1171056139372038,2.746980621771282 l-3.574993639226494,3.799279429178229 m0.5158942875218406,-9.435986934978512 l1.9769224318880596,0.8752684704233252 2.3831863867541627,1.832721801536454 l2.3718933882409563,2.1828068518807022 1.8425062270545078,2.137403665844697 m-13.587196274784052,-16.81162705050582 l0.32112863886287824,0.7313078804752327 0.12072863317339023,1.0576128172221946 l-0.004635877281011776,19.290659507404495 0.1284479138388613,1.1848124380047242 l0.21640201052885785,0.3705495638550481 0.4091298406244769,0.19228051053786116 l0.8448815752281404,-0.024718390576557957 10.71344450944378,-1.8876887429515605 l6.338475187841975,-0.6346226955764863 m8.76678486472071,-20.124406872203433 l0.06549761618607372,0.7080724481600955 -0.276565494364343,1.2815897523361697 l-3.0661867170798685,11.764917583432904 m0.1736502250187157,0.993247919283046 l0.236784142905481,0.907668653998769 -0.14503568475001666,1.0892512318725573 l-0.8675477373530482,3.6427582612443836 -1.223564742408468,3.391155247999523 l-2.664575948216447,5.080625897600772 -3.654124940150388,4.804503604324403 l-2.5909274206722053,2.4624996907769052 " fill="none" stroke="black" stroke-width="1" /></svg>