<?xml version="1.0" encoding="utf-8" ?>
<svg baseProfile="full" height="116.92139622967173" version="1.1" width="103.9702138308508" xmlns="http://www.w3.org/2000/svg" xmlns:ev="http://www.w3.org/2001/xml-events" xmlns:xlink="http://www.w3.org/1999/xlink"><defs /><rect fill="white" height="116.92139622967173" width="103.9702138308508" x="0" y="0" /><path d="M25,25 m0.0,0.0 m14.508295378647151,11.629291012057552 l0.4727461619516567,0.12786764271361356 3.4734051647794044,-0.012987211224437613 l10.806430470374757,-2.479302624424173 1.87256187234253,0.0882466983198692 m-17.631442440443664,12.039163747368246 l3.124976919246261,0.27114118019556366 12.673958878978501,-2.8087762175289432 l1.7131369529160214,0.028052526657989907 m-20.128047834385416,12.320723990305243 l1.5694719188879247,0.48162467196360775 1.6599537353195983,-0.13775560286182478 l16.78870435066808,-3.8778018264553453 1.3813438295381792,-0.8217793811737337 m-10.162274287208882,-22.815287167800655 l0.5616309981419697,0.9175496551967741 0.3011724846623021,1.6591076441872603 l-0.07999607681619784,25.76774067123284 m13.858332306478106,3.64478213029037 l-0.06002659381902427,0.7315858286110427 -0.6823273010782974,1.3407414313735007 l-3.614566764996219,4.278754537664817 -3.8485670077955483,3.6415363581578397 l-6.018418819622515,4.509240266021114 m1.0275656386064247,-7.194852023709575 l0.7442233330452666,1.130193126567937 0.2788243037872837,1.286561666711818 l-0.05599858466047128,21.1760334992534 m10.040148236053351,-29.40907586928316 l2.3015105585278293,1.0354643741928393 12.908432658494462,-1.6537813403472579 l0.6735235962230288,1.1469061890260221 -0.22977624487909376,0.9989160754849792 l-7.091417402121187,3.979220823909939 -4.554123571747204,3.1907600942493524 m-0.5638203855258345,-34.31603710249261 l0.64348341980251,0.9944748371789427 0.2310337811046197,1.232644121046664 l-0.0670221117807134,43.552695277872516 0.24193762019480494,4.877275077896933 l0.6014994847158909,1.8473257258392384 1.48916508144731,1.185613157660112 l2.2874477758343668,0.45168845931607304 5.469160113107008,0.020018953047964548 l3.621623431353277,-0.5613982133657954 1.2820595871004066,-2.388962966578661 l0.15027921540078135,-2.522025790400697 " fill="none" stroke="black" stroke-width="1" /></svg>