<?xml version="1.0" encoding="utf-8" ?>
<svg baseProfile="full" height="97.77926677516479" version="1.1" width="108.60599200884143" xmlns="http://www.w3.org/2000/svg" xmlns:ev="http://www.w3.org/2001/xml-events" xmlns:xlink="http://www.w3.org/1999/xlink"><defs /><rect fill="white" height="97.77926677516479" width="108.60599200884143" x="0" y="0" /><path d="M25,25 m0.0,0.0 m17.92953570411295,4.171442491125818 l0.06386567549848793,0.44561649576533807 -0.21315193814304273,1.5564481442443097 l-0.9279570672736246,2.0658462381364116 -3.4514103006131207,6.064026879030348 l-3.986255582702287,5.224378040518188 -5.0929406563986035,5.281173628135215 m9.76497026106082,-8.294215944395638 l0.4072845377189136,1.5193980633613786 -0.4096394313590627,24.98096769898625 m9.30134792279612,-29.878583429430567 l0.5392587921067253,0.9093008231345207 0.1890429810227966,1.6349920642337197 l-0.003658482597856238,18.563848013709826 m13.390528975311442,-31.96660444766853 l-0.08308094762847094,2.001025384212909 -2.809035815038879,6.234252825736994 l-3.217891752646047,5.098166439778316 -3.0005497280149585,3.357065731397041 m8.693951386327685,-8.762244773706566 l2.794566257784226,0.055463305994017394 12.065107662224507,-1.2157001945414643 l5.632306824588374,-0.25670955072083346 m-7.711744830384024,2.494383860221416 l0.03101256231666454,0.8639140182168346 -0.2758828284653523,0.9250426543559035 l-1.7123095259215797,3.659922877155766 -2.1095055802712133,3.3579551047014475 l-2.939312326550325,5.232819099246365 -2.497725353388883,3.627361400019471 l-2.7891487864360758,3.2356354940771612 -3.018846408007006,2.9415061500905715 l-3.2819041663605266,2.652718734932758 m4.9817433646100255,-20.775728566851978 l7.29672054661632,7.8523679505272455 7.1567858700078375,6.58532169493927 l4.929873861831271,3.7863996043097674 1.665495429016823,0.7105340222074116 l1.3045449020903677,0.23144752886947825 m-43.14889621172726,-30.970533350280316 l2.3404393388221254,0.916440951954452 2.494040861304707,1.3327542643083468 l2.0494276276914825,1.3990566365408725 1.1571334245603784,0.8750500050199637 m-9.490449626189735,5.325676037285635 l2.3774447085130803,0.9719195999882558 2.4188820023693793,1.3475792971743663 l2.011310945425834,1.4190051993747168 0.8290079465463042,1.2243331116813276 m-9.607576733052017,7.765923790221126 l1.5402856768122988,0.26110815763436357 1.9479920845959124,-0.11226604929575225 l6.626335266254871,-1.796962417768643 0.7830116638042586,0.005400270376550507 l0.7082725747064763,0.7485851935709018 -3.755947430759816,4.078621843466282 l-0.3092773567306524,0.871864953568068 0.40137426652687114,1.0146412418028177 l3.087499853679231,3.590357503548292 -0.2604361324410544,1.0291053897592208 l-5.738042510349881,3.755762443757438 m-2.8272556362282835,1.2489230760613652 l6.122502454875552,-0.5407768956400202 4.223720149514771,0.1840966258942001 l5.762626279478729,1.3400080410647457 20.228276476975225,3.9881883267173603 l4.612956420149346,0.33444797332296483 " fill="none" stroke="black" stroke-width="1" /></svg>