<?xml version="1.0" encoding="utf-8" ?>
<svg baseProfile="full" height="103.09080583557163" version="1.1" width="104.9106579989687" xmlns="http://www.w3.org/2000/svg" xmlns:ev="http://www.w3.org/2001/xml-events" xmlns:xlink="http://www.w3.org/1999/xlink"><defs /><rect fill="white" height="103.09080583557163" width="104.9106579989687" x="0" y="0" /><path d="M25,25 m0.0,0.0 m30.361202104968548,1.023780459568482 l0.38025940475556586,0.41292632334625506 0.5982393158833617,1.0408070942872012 l0.15566243297592086,1.1548447530836252 -0.07172657799168904,7.988836386154603 m-22.08841737700883,2.1436763827619307 l2.33939590601553,0.3681487203665999 2.448308536966448,0.004706530279559192 l23.29361347676737,-2.8800138716189214 10.834435088454045,-1.003618743129339 l3.0890929876461604,-0.030092932713928097 2.7198270289987336,0.49763542931805127 m-12.716554716135535,3.3647316384084114 l0.007945718582699489,1.566051505776073 -0.407133690978562,1.6725132680921908 l-2.3418044774985547,5.282082859165822 -3.5526965717261305,6.211707897464678 l-4.635253582872134,6.446732742226155 -5.392781599329825,6.01390355867633 l-5.011393307568253,4.606318236698624 -5.593034653728411,4.158430836107166 l-6.0392375788265085,3.0466967612520532 m7.920742786804174,-31.53331676778261 l1.9205740146275647,0.8619939808483537 2.8537876889411216,2.3694372740038308 l14.88119723073682,13.325699793127773 7.704933843763309,6.7590464465981555 l6.375688352029418,4.456937416039876 2.6416329399819514,1.322310873145305 l2.2341532737343974,0.7448984613763119 " fill="none" stroke="black" stroke-width="1" /></svg>