<?xml version="1.0" encoding="utf-8" ?>
<svg baseProfile="full" height="108.24935028329492" version="1.1" width="109.49251429643482" xmlns="http://www.w3.org/2000/svg" xmlns:ev="http://www.w3.org/2001/xml-events" xmlns:xlink="http://www.w3.org/1999/xlink"><defs /><rect fill="white" height="108.24935028329492" width="109.49251429643482" x="0" y="0" /><path d="M25.000002468004823,25 m0.0,0.0 m14.937787055969238,0.5942704901099205 l0.519685186445713,0.671822801232338 0.5067996680736542,2.036440819501877 l-0.09463615715503693,10.447022914886475 m-13.353990316390991,1.29601389169693 l2.126372754573822,0.40047217160463333 2.1761372685432434,-0.10189536027610302 l19.389731884002686,-3.1726300716400146 1.9543291628360748,0.020505704451352358 m-13.968228101730347,10.407922267913818 l5.8601438999176025,1.6378793120384216 1.0564325004816055,0.9501494467258453 l0.29749931767582893,1.605265736579895 -1.4638806879520416,7.1334075927734375 l-1.6660496592521667,5.5672430992126465 -2.0684324204921722,5.328373312950134 l-1.9760121405124664,3.982594311237335 -2.1583642065525055,3.32996666431427 l-0.983918309211731,1.025862842798233 -0.89292012155056,0.4624558612704277 l-0.801921933889389,0.022971720900386572 -1.3322709500789642,-0.7761508971452713 l-1.3176970183849335,-1.3605302572250366 m7.586976885795593,-34.715821743011475 l0.06653801538050175,1.973879486322403 -1.0004473477602005,3.4785494208335876 l-1.8773716688156128,4.907506108283997 -2.11606428027153,4.483084678649902 l-4.441139996051788,7.269905209541321 -4.965090751647949,5.769856572151184 m39.515981674194336,-43.54265213012695 l0.04196671303361654,1.6255268454551697 -0.624457560479641,2.2376321256160736 l-3.275936245918274,7.593376040458679 -3.5841214656829834,6.1871689558029175 l-4.430476129055023,5.833483934402466 m11.829769611358643,-20.20160675048828 l14.295074939727783,16.137079000473022 2.480412572622299,2.4836118519306183 l3.2443001866340637,2.6734283566474915 m-24.364774227142334,2.2422532737255096 l3.066924810409546,1.7502941191196442 3.682584762573242,2.7093300223350525 l3.2482102513313293,3.0619481205940247 2.0423059165477753,2.5824302434921265 m-15.685819387435913,7.001176476478577 l4.954782426357269,2.258782237768173 5.820687413215637,3.6306872963905334 l4.980020225048065,4.034491777420044 2.837474048137665,3.274514377117157 " fill="none" stroke="black" stroke-width="1" /></svg>