<?xml version="1.0" encoding="utf-8" ?>
<svg baseProfile="full" height="130.77885789893753" version="1.1" width="146.28465601546077" xmlns="http://www.w3.org/2000/svg" xmlns:ev="http://www.w3.org/2001/xml-events" xmlns:xlink="http://www.w3.org/1999/xlink"><defs /><rect fill="white" height="130.77885789893753" width="146.28465601546077" x="0" y="0" /><path d="M25,25 m0.0,0.0 m16.46708953718593,20.251593214412196 l0.42667052684881646,0.14023891869523028 1.407013993293941,0.11880604502942242 l2.2068833776503984,-2.446090223221057 4.945348202305888,-2.6783619568642028 l5.577425953891659,-1.5200042430200316 5.729832725230161,-0.3626231655076068 l4.14802924029976,0.502788394051624 4.873065732205674,1.2541057159537168 l2.9757920723051328,1.2917849479206736 3.504413386808889,1.1738656851786966 l2.8642450849539074,1.1283868212781651 2.753315967421684,1.1602268291874025 l2.8406848706447843,1.2664707838281153 3.408802458714896,1.2369526209032597 l3.513381244029553,1.1501172459365394 3.622999457530177,0.9767415576278788 l3.8892245076010177,0.7408601599801681 2.6536159985241667,0.5947323619880116 l3.404934680071867,0.7270290816978228 2.6278846489997743,0.7299376191724724 l2.3563913938459384,0.8544509917960991 2.2153593059860923,1.0101702640310326 l1.9692171359615274,1.1890392139279011 1.7429643377260007,1.4330375035806093 l1.4011856792992874,1.714419541368496 0.9790682591628508,2.090375717118975 l0.3903369064323626,2.6243058735720415 -0.08316705109893792,2.5141298903110045 l-0.4537696850525845,2.2283051487194543 -1.1187815866654245,2.3917053434726308 l-1.5867892329570943,2.048807024803138 -1.8371860448983353,1.9143122656426665 l-2.9958798277317267,5.261136536329009 -6.687140742517119,5.394997714009174 l-5.294629123119861,5.852031205768795 -5.075162062531719,4.819799841682657 l-5.348304465842124,10.000275408575352 m20.65089340563265,-56.09746834613731 l3.146962612644648,4.457898861011873 2.665384930191396,5.771049178336243 m-1.1288272698164585,-12.39611227008528 l3.6460921644531012,2.5748439421484695 2.889783309838229,3.2950623448359564 " fill="none" stroke="black" stroke-width="1" /></svg>