<?xml version="1.0" encoding="utf-8" ?>
<svg baseProfile="full" height="97.58375289969501" version="1.1" width="108.26832939901186" xmlns="http://www.w3.org/2000/svg" xmlns:ev="http://www.w3.org/2001/xml-events" xmlns:xlink="http://www.w3.org/1999/xlink"><defs /><rect fill="white" height="97.58375289969501" width="108.26832939901186" x="0" y="0" /><path d="M25,25 m0.0,0.0 m12.675746626655963,7.948333471501183 l0.44994984936055066,0.13464054772907674 2.679311887377339,0.12213228856849292 l27.425091837143178,-2.0141258892418548 5.529548311619184,-0.14956029956096484 l2.605456903308217,0.2726197364897891 m-29.330974719185384,-3.4509152540794528 l1.081588384153206,0.6960338429244476 0.39322680216450845,0.5009022807034665 l1.591376064310065,7.305740434157846 m14.332024404542008,-9.237304437991398 l0.659094746542976,0.8360823237207423 0.03305401286388371,0.434394470889413 l-1.812506702086285,6.9423352433777845 m-18.181077638363867,3.2166795379038016 l0.8435484011727362,1.3055649655110664 1.798876666276196,8.285736089116428 m-1.3080770310889311,-8.91606827744218 l19.323572089857503,-1.6352292864900912 3.0735761028841226,-0.0546894401283719 l0.8779725368076724,0.6622929036092786 0.2587651493175762,0.5703952184144816 l-2.37685059196728,8.394601113675352 m-20.73872300832959,-3.869966513953274 l14.900697346905627,-1.1510712668163918 m-13.93003840221669,5.13609792758472 l19.750308436303605,-1.1592051709084978 m-31.74157147466981,8.299012680803756 l2.0990080148305554,0.09385932771965526 29.18332907460212,-2.1975302252100106 l14.139538237954735,-0.6547908187723891 m-27.704019293565473,-3.0831435784140546 l0.2610136263327022,0.9840227752164401 -1.4806737704586241,1.8988782473558532 l-3.253670975728878,3.5208893605019798 -3.0487101784484487,2.745170011202649 l-5.6053114302095075,3.8752669178702157 -6.906814930308861,3.358169874945621 m27.426906099221092,-15.37840491193836 l1.792712396640334,0.8276735737016006 2.4296912222950904,1.5158193028455706 l14.033834613634568,10.418620749423901 2.1648520877944133,1.038471107991636 l1.8736776127677326,0.47621134055148523 m-35.226635810510686,-4.458056233511374 l0.542322141531191,1.3190597585694666 1.7692262918859316,11.858107079576483 m-1.586155764267857,-12.318746585920705 l17.703055958264706,-1.9482036519552244 1.5688339301054999,0.07437778348547427 l0.522061708786721,0.3826654085360579 0.30154893529151233,0.7938071492861861 l-1.0364932551900339,6.897397387959006 -1.100124124031801,4.65938372243404 m-17.093173739152164,-5.821822150431642 l12.224734929229935,-1.0862344325372753 m-11.057872388127782,6.793010345852912 l16.086652619541873,-1.2461430687759552 " fill="none" stroke="black" stroke-width="1" /></svg>