<?xml version="1.0" encoding="utf-8" ?>
<svg baseProfile="full" height="106.30333275510415" version="1.1" width="109.58614752551539" xmlns="http://www.w3.org/2000/svg" xmlns:ev="http://www.w3.org/2001/xml-events" xmlns:xlink="http://www.w3.org/1999/xlink"><defs /><rect fill="white" height="106.30333275510415" width="109.58614752551539" x="0" y="0" /><path d="M33.44593067002423,25 m0.0,0.0 m11.282667953947495,4.026951038740802 l0.4241954308580255,0.4686812273068035 0.568298283511775,1.2916939035434787 l0.1323498369716156,1.3117763689823385 -0.104758494332724,49.20423021653073 m-12.491566627052823,-49.19396135579868 l1.002148874433006,1.07496881255304 0.19960951302177232,1.1833442537274592 l-0.8416362177648435,11.826944346017173 0.3237577697233724,1.1478085288672926 l0.5762171996189711,0.24978817553831342 9.64287510482618,0.0052040381799681006 m-15.49496041605225,12.02265146767874 l1.5523889633425436,0.3115660886764427 2.1621742319231076,-0.15405936310039578 l12.009549237785926,-1.8892821115195468 m-8.410876238345494,2.50469868110361 l-0.2845919407865072,2.190174864150255 -0.5785959373338926,2.3346737692627753 l-1.0046226698720813,2.53455818865856 -1.4983623660596226,2.6701104730217504 l-3.102813714694502,3.5759277656936748 -4.50937844769328,3.430900793809333 m23.23670115053048,-27.808924156150912 l3.48674123197599,0.16606292484368684 24.76374893494735,-2.1817510297223563 l5.822501040376187,-0.32759853333753725 2.2764551676853837,0.2051490277185721 m-21.12288866989629,-13.963543904965704 l0.8616848190789874,1.064857425364954 0.45128762834542513,1.382339272809866 l0.003459483051732671,25.678909944225293 m-13.282597814854038,0.7145817666453381 l0.8139853214639376,1.110940212235434 2.812098985413566,14.821031960706225 m-2.0191806900786586,-15.02233864543838 l20.887751538047812,-1.7741779644570566 2.7419761176339588,-0.2229630226270277 l2.1956206587665115,0.2412160296071401 0.6273133216377992,0.311829530345784 l0.3866536476837682,1.0068282507237503 -2.636043071870422,12.235913794548813 m-21.558050094103283,1.8081082916126234 l23.081669918126142,-1.3330759388160036 " fill="none" stroke="black" stroke-width="1" /></svg>