<?xml version="1.0" encoding="utf-8" ?>
<svg baseProfile="full" height="114.60468117571202" version="1.1" width="108.4678157046902" xmlns="http://www.w3.org/2000/svg" xmlns:ev="http://www.w3.org/2001/xml-events" xmlns:xlink="http://www.w3.org/1999/xlink"><defs /><rect fill="white" height="114.60468117571202" width="108.4678157046902" x="0" y="0" /><path d="M25,25 m0.0,0.0 m34.492619686016916,6.250494868322702 l0.35353434939941797,0.44929101723260767 0.5573722898472344,1.7353002684655945 l-0.03839548413397972,6.113660363699572 m-19.572031614164118,1.7239687690068866 l1.9252637509072268,0.26891127908011186 2.2241817087190148,-0.04443743087311025 l30.926498720863254,-2.896029519994913 3.0603943865508163,-0.07769895136699938 l2.529631875936188,0.33119980793586223 m-33.16590779469575,8.651143433071331 l0.6282622898805297,1.1123868809507764 1.9807551908549226,8.563370018250732 m-1.6077113312147129,-8.952696956256453 l18.465499598974663,-2.4102735291641215 2.587910623782197,-0.0868157712575152 l0.5730670541410376,0.26911898235701737 0.35032394733871797,0.47743941472210144 l0.07299070794311287,0.6919028347448064 -1.9043858948849381,6.143519271922357 m-18.126819869351394,2.6058563394801664 l19.184470585764426,-2.1957296111230096 m-31.090345710976397,8.4213005495566 l-0.686351354027825,4.3753538523222195 -1.6543256255005971,5.993296480691231 m3.346769030326407,-9.031612376220245 l28.288211511816097,-3.075665729075341 7.809485901577154,-0.6638951458786382 l3.9601920564278705,-0.07936310933898719 1.8055341222838057,0.2651226589212374 l0.8329819809397793,0.4013843276374979 0.3581390133491331,0.5563684689220345 l-0.03741420196833258,0.6870647710516103 -0.9726352143491596,1.6286009161361632 l-2.6966820900179327,2.579329708633468 m-33.86386192646907,6.1412299887284165 l1.6531446060748203,0.3467638326123612 1.7883270510812859,-0.04587126139174156 l22.605904478847066,-2.5752093930610855 4.266101076192694,0.2563752503589468 m-14.805155388241309,1.8653600085894912 l0.5780331474264235,0.9466355669149885 0.18669441454148783,1.2493274577587086 l-0.2326890995992001,14.684566050109398 -0.40935340883262467,0.8172143346502094 l-0.6212468535540702,0.13712218787696218 -0.7552757264656146,-0.3659486885191735 l-2.549785830940913,-2.7494479996299694 " fill="none" stroke="black" stroke-width="1" /></svg>