<?xml version="1.0" encoding="utf-8" ?>
<svg baseProfile="full" height="119.03752304267749" version="1.1" width="106.56342153677093" xmlns="http://www.w3.org/2000/svg" xmlns:ev="http://www.w3.org/2001/xml-events" xmlns:xlink="http://www.w3.org/1999/xlink"><defs /><rect fill="white" height="119.03752304267749" width="106.56342153677093" x="0" y="0" /><path d="M25,25 m0.0,0.0 m22.30055236412979,23.710376086098275 l0.39653820940945134,0.15509578896274168 2.670609152122657,0.07253570591904096 l21.977911970364666,-2.1381974291494 4.2137724385825255,-0.1957997962444887 l2.150287996817564,0.20609834173153319 m-17.51122686508399,-9.500655568490117 l0.13738293405411545,0.8040139354501641 -0.06770469788918332,1.421718466631296 l-1.3050477625140322,6.519144805056093 -1.7002333002618293,5.597809971180314 l-2.0122767465868705,4.73542121720604 -2.560200756265488,4.485285766607634 l-2.961648985410655,3.977172554002728 -3.629783175318362,3.5846764858313254 l-3.5207687460768797,2.5447075888307134 m18.72229572578028,-20.03716943031061 l8.020720389595715,8.537996163080836 5.297516385930263,4.928635146870857 l3.3729601510678298,3.1019021575674555 1.650168420806839,0.9361862706426175 l0.9215964335165079,0.22461649893780722 m-31.342820833786313,-1.2578103329443686 l2.536518633452083,1.5379702941717455 1.841012449291518,1.9196823562109173 m21.435809141283215,-7.368390245314661 l-0.12394471576656209,0.9745311506666319 -0.8845258166579679,1.3181701691767622 l-3.494430540815775,3.5041294668189695 m-19.262839098370925,5.52105605347002 l2.3863450763114433,0.2321662477157309 16.009243038399887,-1.8498913727499346 l2.8856639003037663,0.09995564743225675 m-24.631837519783403,10.575320042372127 l3.2626029631770734,0.24135963913975034 19.72208351345167,-1.8045794069581107 l3.442355282862633,-0.10754376915643973 3.082943958077798,0.2281549243628997 m-15.81528823419533,-15.706073391713504 l0.45065737685589424,1.0206937369996811 0.15365290253833844,1.1109403075168873 l0.014448557448193495,25.176110799047272 " fill="none" stroke="black" stroke-width="1" /></svg>