<?xml version="1.0" encoding="utf-8" ?>
<svg baseProfile="full" height="96.27295263042586" version="1.1" width="96.56972622729072" xmlns="http://www.w3.org/2000/svg" xmlns:ev="http://www.w3.org/2001/xml-events" xmlns:xlink="http://www.w3.org/1999/xlink"><defs /><rect fill="white" height="96.27295263042586" width="96.56972622729072" x="0" y="0" /><path d="M25,25.067268346054654 m0.0,0.0 m5.4883591681930115,10.663656121602855 l0.3077847716607896,0.34687431789056494 0.3800145577584952,1.4938856402667107 l-0.0004347612893373438,24.924375001289818 m0.476673739534757,-26.54275514204969 l7.857799516554251,-1.3596000399848953 0.6140431514996898,0.022770997559979207 l0.7219092096196379,0.6767013372949277 0.15011025831072017,1.2207813406271717 l-0.008848702228102965,25.72445851842302 m-9.069200121952836,-14.140735797088611 l8.283381664751111,-1.2392049384473676 m-8.152715462931809,13.784499907560473 l8.300268677254799,-1.0680026309385786 m6.937697341667392,-26.040088545800604 l2.3998220294493824,0.16915298062299605 11.67728868546512,-1.9064275293803803 l2.737454212024867,0.060679720778830264 m-9.297190034885512,-6.858289606281868 l0.566157928938446,1.1675924216779254 0.12077354378661491,1.0160393060229949 l-0.04254003222469553,12.041324977332057 m-11.95486292660819,5.329298386883082 l2.595235424984663,0.19614245500120997 18.24125565278018,-2.512521244413455 l2.052992168875231,-0.15270679276714888 1.6187723148545725,0.2306447773553374 m-19.32662605358057,-4.013131504593672 l0.4808164226058566,0.9224961171732402 0.15461500840479311,0.8754230095121864 l0.4085532676069529,12.650533909137344 m11.341591930948653,-16.367371332208254 l0.3720406134017513,1.0075375840034295 0.02302549853992817,1.0706177050870198 l-0.8704278817530464,12.843018269832086 m-16.441267376373155,2.4549205354662753 l3.2466940309620362,0.06904066803519654 17.05210632045077,-2.178950475913511 l2.071587542142188,-0.05837600101451316 1.5652671699785266,0.2513270785634874 m-17.312786479340907,3.92572575213128 l-0.17022231941035795,1.5838090015387796 -0.615502197849776,1.9953153832962736 l-1.1008333402044095,2.396996498378069 -1.5209097601071286,2.5268281863581414 l-3.2480809689403376,3.959489790198927 -3.62126714753252,3.0418881683520658 m17.81037954270568,-17.177020279257064 l0.4774332118256028,1.3551169065749418 0.05823533377306418,11.24300713593238 l0.3402605444645286,1.3992466814441717 0.5274744720306651,0.8608067329128938 l1.1791560064810755,0.6890124427222483 1.8042842621255502,0.30447252131631886 l3.4648393081335604,-0.013341780979602482 1.9456615766262468,-0.3688028503095299 l1.4703198950025231,-0.48516629133390776 1.3255056165796886,-0.8875395157098853 l0.5357002528330718,-1.161695101870528 0.14009994891695401,-1.5088912833513375 " fill="none" stroke="black" stroke-width="1" /></svg>