<?xml version="1.0" encoding="utf-8" ?>
<svg baseProfile="full" height="126.0371341951853" version="1.1" width="108.07463549774734" xmlns="http://www.w3.org/2000/svg" xmlns:ev="http://www.w3.org/2001/xml-events" xmlns:xlink="http://www.w3.org/1999/xlink"><defs /><rect fill="white" height="126.0371341951853" width="108.07463549774734" x="0" y="0" /><path d="M25,25 m0.0,0.0 m14.491054963251063,5.906219075507166 l0.2852751720592306,0.389463990408124 0.6716470762169886,1.6820534634331268 l0.7132041284814268,3.8918507906966098 1.7295762265519745,12.253199364531435 m-2.3919423405029834,-18.133485653766613 l29.160163372869427,-2.730932154417525 2.256411155771957,0.2584257951954949 l0.7999606776864272,0.7820400907936523 0.1646969119935931,1.7155778066221778 l-1.5455588650202297,7.959052027495909 -2.04506481064979,7.5629769229586445 m-27.12823559877408,-7.60523554223759 l21.205792669945883,-1.638019036762394 m-20.306403717523736,9.341411847120913 l26.348616565789204,-1.9820145928946202 m-26.72303912692682,-14.581928160395524 l0.8327048403422699,0.9070689845950147 0.255766151841391,0.908611393148531 l0.06681359681457834,28.563820159135958 0.4671342231047652,2.927126728237124 l0.5545059490339198,2.3798529696406505 0.33015930222975864,2.089981548213846 l0.26777853106185273,2.342027090079981 0.4397409408820203,2.813448848101987 l0.555288400112699,3.022375330093494 0.6258540394924111,2.7158640330351873 l0.7825502372297023,2.185168286442942 0.7791906051425436,2.4114751907248944 l0.9239077950443358,2.764467278220316 1.0069685446950367,2.6983387161709196 l0.9546659991694325,2.487233012020833 1.1375929906740914,2.637544744229565 l1.260208870651212,2.3273934612662615 1.5656611881257376,2.1940243691814416 l3.3577964108686142,2.0063115493770853 5.029245574041138,0.5843444689802622 l9.554653105897692,-0.1479170582649685 5.365676930026841,-0.6104434197871894 l2.2229041232100752,-0.8757653284497948 1.3510892073557608,-1.5085061720936204 l0.5777818223653262,-2.5103160369016213 0.12284165711459138,-3.5981091296448544 " fill="none" stroke="black" stroke-width="1" /></svg>