<?xml version="1.0" encoding="utf-8" ?>
<svg baseProfile="full" height="121.43940569764561" version="1.1" width="108.6327498638137" xmlns="http://www.w3.org/2000/svg" xmlns:ev="http://www.w3.org/2001/xml-events" xmlns:xlink="http://www.w3.org/1999/xlink"><defs /><rect fill="white" height="121.43940569764561" width="108.6327498638137" x="0" y="0" /><path d="M25,25 m0.0,0.0 m5.549711101592991,20.184631337353736 l0.35665267937850814,0.41714806501395474 0.42698557374930113,1.3414491229388086 l1.817571440811725,16.149360974510927 m-1.5419520196120853,-17.517082594955262 l12.525759345986097,-1.899119886535457 1.4438073152775937,-0.06033694710834805 l1.578981113528757,0.4125755792613279 0.3205867746835504,0.41949833152304855 l0.13921196053698653,1.4006825439556476 -1.8950716034166295,13.55805375231424 m-11.766522403845517,1.7352542394155723 l12.944312508482282,-1.3645096156966463 m-8.396365587109772,-28.01311370723953 l0.5320433952556018,1.10159382335877 0.1959952412597301,2.1095899622020777 l0.03516183505635309,42.33389790974821 m-9.82691246029256,5.637142268145375 l1.1621635172574938,0.4414767341891134 1.060625576616397,-0.4945041332642653 l14.38840811746382,-9.954028457012626 m-2.1326160531311498,-5.995750703738728 l2.942221834751472,2.182600077140341 2.3441820417748365,2.4160909384300404 l1.6508639515935382,2.236445900096713 1.216858715086053,2.4621279909214504 m2.319723750392932,-34.19818494139206 l2.804890131684879,0.43593185260489675 20.293252253624512,-2.108220446600105 l3.865872531569542,-0.16967229525285651 2.276347283806459,0.28809529160835134 m-28.57231811305383,14.563079427002496 l0.541967591141525,1.0687589868913796 0.47167742014659814,1.2357897713209136 l2.034445799918168,13.664465404787265 m-1.889949536703927,-14.904715639858605 l19.288587996679727,-2.7110236424050607 3.7304949282861974,-0.4293953750299479 l1.420677551095843,0.21817159144273693 0.8478827437689075,0.8851501453557328 l0.3227119120551631,1.6338940821931602 -2.1340544490513658,11.728403956578553 m-21.278854021245202,2.6489696279434147 l22.524091401611933,-2.0092377312970804 m-13.5414781704669,-32.935806564786546 l0.6247083263086274,1.0504011564412634 0.30822697827496887,1.9475481792559604 l-0.08603690508199956,58.29582935587326 " fill="none" stroke="black" stroke-width="1" /></svg>