<?xml version="1.0" encoding="utf-8" ?>
<svg baseProfile="full" height="118.77664373365617" version="1.1" width="102.55490616596154" xmlns="http://www.w3.org/2000/svg" xmlns:ev="http://www.w3.org/2001/xml-events" xmlns:xlink="http://www.w3.org/1999/xlink"><defs /><rect fill="white" height="118.77664373365617" width="102.55490616596154" x="0" y="0" /><path d="M25,25 m0.0,0.0 m15.00964623043527,13.634300504594243 l0.4676751428451197,0.10127323852195669 3.2896873719127515,-0.06044970945682078 l11.391484289646195,-1.5021794739244434 2.831043448533924,-0.09321350502502666 m-18.8434020003824,6.891079799510593 l0.6684166940760022,1.496284457198061 1.422305950987576,9.408016564388637 m-1.1332239649875604,-10.239226438633546 l13.666516434110262,-1.9587985633598344 1.3374894123083871,-0.13205306060634225 l1.5000588309494347,0.28491178852951216 0.4937099352658428,0.9592657777124272 l-0.020964513696427656,0.8354938181140954 -0.592577748587873,4.890278116285732 l-0.8246050335248228,4.188529980081604 m-14.71818636652546,-4.233190874086388 l15.099589632154524,-1.663794815168779 m-14.426625682300086,6.532301007619585 l13.337263739395913,-1.3698259900466814 m-18.68666351439773,7.156587834335714 l2.7170952233330214,0.14147132045699715 7.791766974834707,-1.1043056472917576 l9.229829070084328,-1.001216157100338 2.966848632508344,0.23095872270092474 m-11.725571302891996,-26.788974616315187 l0.5226567768065099,1.04435909961483 0.159026326677369,1.2762966982810988 l-0.019554608615863927,31.113440239714595 m27.223961585345922,-31.74672710383731 l-0.005425400003329893,0.6084711188241667 -0.5499469721729042,0.9009636500557707 l-4.9035247022800625,1.9591403579012028 -5.160637009109661,1.7821712357203485 l-5.706634600237228,1.521995099494798 m-2.1982008267351105,-0.8295415267699078 l0.47021269519714626,1.728997947128427 -7.027292830185568e-05,4.686400593950391 l-0.8721566585968143,14.16238725411762 -0.7992348985660515,3.6068705093923628 l-0.8969306983110356,2.510529451476878 -1.1079095562512193,2.20492126376572 l-1.4510323301273103,2.0388514498308337 m6.626677814494173,-18.408482166134277 l15.59642770326159,-1.8779730437772795 3.3785949120264878,-0.056295771990983304 m-10.008170185151199,2.5142762463352994 l0.5802875620207679,0.8972740870985499 0.23953651417143534,1.2046245921114402 l-0.059547253913594875,18.762493693801648 m-29.44075654939408,3.8246840416092835 l0.631308072909782,1.0531165517710517 0.370252499108074,2.7862713564235744 l1.367756127647373,12.903602728711089 m-1.4450494200321358,-15.424595049333583 l21.614183699044123,-2.167377377213799 1.8206426042271724,0.15032934544574847 l0.9018565604949726,1.5331318893902581 -1.999107174124586,14.986915725861387 m-20.990045551342085,-7.556417272590859 l21.435613175965383,-2.068630748175029 m-20.679984622215486,9.463727717735765 l19.97951724177156,-1.416793597643247 " fill="none" stroke="black" stroke-width="1" /></svg>