<?xml version="1.0" encoding="utf-8" ?>
<svg baseProfile="full" height="104.61628542692549" version="1.1" width="108.24063488463932" xmlns="http://www.w3.org/2000/svg" xmlns:ev="http://www.w3.org/2001/xml-events" xmlns:xlink="http://www.w3.org/1999/xlink"><defs /><rect fill="white" height="104.61628542692549" width="108.24063488463932" x="0" y="0" /><path d="M25,29.039700102425982 m0.0,0.0 m13.605921861740603,18.94848642467026 l0.2835119116146442,0.38424495799601016 0.45399276657446114,1.4822534078559613 l1.4369029476652406,23.732731071004114 m-0.9196959701276677,-24.34977854355872 l10.42516929526073,-1.7696352849584391 1.0632975780249598,0.11037508621806728 l0.8239683117815895,0.6713123848598663 0.316663038698516,1.369985867378178 l-1.173128766613877,24.17981638477919 m-7.102291213247624,-25.59766778702299 l0.3986202449576945,1.1916484949620636 0.04823080382958128,1.1543954283856483 l0.01959635041346524,15.568236731259901 m-5.835713067170841,1.5300115359388105 l12.004479597074637,0.3792169072874447 m5.257288108738105,-35.99033021879754 l2.238011089928562,0.2662046801172474 2.1934280664128565,-0.11249481888632562 l15.746878479144408,-1.9625244733639131 2.2643319054772353,0.1354797938247264 m-11.845019222949272,-5.36166813237554 l0.6089958047867031,1.0304425225990705 0.1975771321884902,1.2672302043989687 l-0.05705991793323036,15.947492525693773 m-9.708727767330547,-4.248783311186294 l2.520931028706064,0.12164434050523548 13.426549750260342,-1.7771591103113382 l3.2969149838580503,-0.16306718071267634 m-22.623300772278323,8.907107964959394 l3.5725394345367913,0.17801244552311027 19.727534942922773,-2.2000243372247366 l3.634753405569678,-0.11317437045124064 1.9394827421245322,0.291540844707446 m-23.60465413604227,6.694136602699727 l0.5048259786001965,1.0193542014551484 0.13740857787495925,1.2069362052887762 l-0.02424817913202777,26.454595878981117 m0.3896255781426825,-27.95307467246193 l13.782341334225258,-1.9233935914123572 1.4608592285901338,0.10272130539540815 l0.8173416020283963,0.75650840918736 0.24275218485544572,1.3466591601424132 l-0.20743851517422238,25.376792081289175 -0.2614274107377443,1.4648900698527307 l-0.46494929520676476,0.6471990162842979 -0.5981440911418301,-0.057852451895825746 l-2.05910286717823,-2.3373541414750623 m-12.42240633554934,-18.19570582744358 l15.046677538086215,-1.4617508946506221 m-14.92520014254052,9.307022151894497 l14.96143371126816,-1.2784940695406837 " fill="none" stroke="black" stroke-width="1" /></svg>