<?xml version="1.0" encoding="utf-8" ?>
<svg baseProfile="full" height="98.10172798839479" version="1.1" width="116.00767064337741" xmlns="http://www.w3.org/2000/svg" xmlns:ev="http://www.w3.org/2001/xml-events" xmlns:xlink="http://www.w3.org/1999/xlink"><defs /><rect fill="white" height="98.10172798839479" width="116.00767064337741" x="0" y="0" /><path d="M25,25 m0.0,0.0 m14.84620534562211,4.88631001626725 l0.39240073402793124,0.4278823558338185 0.5764791672942055,1.1478307996258084 l2.4762182533545793,17.18566845387112 m-2.221078255568755,-18.722576267899047 l26.12342282116149,-2.7147799445090746 2.322634738165669,-0.25145445536128275 l1.4410668676243243,0.38265121257079193 0.7705291270206358,0.9651324315132833 l0.08846867695173902,1.6159628001688404 -1.5810154071827833,8.98869931698639 l-1.4888531607692486,6.897750352670987 m-26.404212053508655,-7.8129763197443385 l28.211728803575784,-2.2569656909027263 m-26.73120325896697,10.316822108938895 l24.79528476160177,-1.7421804822557403 5.13638400921753,-0.013774900507481534 m-16.231239216594517,13.859572502368195 l10.818425036917803,-0.8980810460995057 8.400084294786602,-0.6074280594699776 m-31.82262501413897,-9.797254606441806 l0.5746655134215569,0.95026671869268 0.29006027315921884,1.1501132264776173 l-0.03571737662317587,22.158169580257862 0.5550694468664441,1.4543695566044883 l0.4962515938403063,0.37821792643251145 1.766670974732708,0.15378040230522913 l40.47857806530897,-2.9628142539044213 1.9629858820790893,0.33294828354514294 " fill="none" stroke="black" stroke-width="1" /></svg>