<?xml version="1.0" encoding="utf-8" ?>
<svg baseProfile="full" height="102.0560941243925" version="1.1" width="103.7654545944664" xmlns="http://www.w3.org/2000/svg" xmlns:ev="http://www.w3.org/2001/xml-events" xmlns:xlink="http://www.w3.org/1999/xlink"><defs /><rect fill="white" height="102.0560941243925" width="103.7654545944664" x="0" y="0" /><path d="M25,25.097912492387483 m0.0,0.0 m1.6270260770075236,12.80228804307864 l0.3448182299778697,0.4567130578893855 0.3953413750523778,1.5882806937295872 l0.021355337098599072,27.750997296502703 m0.6183035920151465,-30.67880621449672 l10.22881137878284,-1.7639406123304893 1.1329940104665128,0.08697416518574343 l0.881756495591657,0.8815666908796599 0.1807925267970193,28.768728476158792 m-11.671250832173047,-15.130313096781153 l11.03161817131067,-1.4558624081154055 m-11.12696827301589,15.655033377195917 l11.128496914330412,-1.4369093141081535 m8.443200634187189,-26.473920197014323 l3.177428752383598,0.13894453880794966 14.370261103607621,-2.3994979199296442 l3.0302660133461825,-0.33293727583677807 1.9035502573761856,0.1291168261829985 m-12.292085817150733,-8.684368619386193 l0.761311854257147,1.3617661953966054 0.15359656896225976,1.1685680813055144 l-0.0779747680557507,16.241390175041246 m-14.946496111408589,1.8717403184949792 l1.590020164765299,0.28591177204854906 1.9051108616619319,-0.019658465843389518 l24.678704900458015,-2.9342917489457343 3.8096939981066273,-0.17553766839125295 l2.465771178727745,0.3023842213435794 m-31.683664475421843,12.498434114607628 l3.298397316720421,0.24985565890022898 19.912996675445633,-2.433594704400315 l2.700591024232176,-0.18402866772581783 2.095945223878603,0.2325754900249632 m-9.828639536131044,-6.893224213694429 l0.6863117772274387,1.2248065239053312 0.2579805156039742,1.9521576266249474 l-0.18639116216200186,26.100110797428755 -0.3391657064082364,0.9109516794331213 l-0.5362077591998208,0.29577693883798606 -0.6642075803240379,-0.23419414536253944 l-2.7211893474767237,-2.8834869699612984 m-9.12048438956273,-12.438400835321755 l2.502674054689216,2.5600385292924797 1.1165787736880168,1.7243531801223548 l0.6180523338774391,1.443793574262201 " fill="none" stroke="black" stroke-width="1" /></svg>