<?xml version="1.0" encoding="utf-8" ?>
<svg baseProfile="full" height="93.84439768390206" version="1.1" width="109.56218313297583" xmlns="http://www.w3.org/2000/svg" xmlns:ev="http://www.w3.org/2001/xml-events" xmlns:xlink="http://www.w3.org/1999/xlink"><defs /><rect fill="white" height="93.84439768390206" width="109.56218313297583" x="0" y="0" /><path d="M25,25.61504092727376 m0.0,0.0 m17.413302726643565,1.482122829885452 l0.4117226603421737,0.25702876594491386 3.0289896892530166,2.68574882052249 l1.6366312781958992,2.0563619082385 m18.314399468829265,-7.096303251865114 l-0.10701049169625175,0.7317062841817534 -1.123989327420439,0.9887687256840811 l-4.812052723896036,3.8607788980077373 m-29.588023933772956,3.8871504378286716 l3.371165310692743,0.21104736376663547 31.907493305694928,-2.2646010992381838 l9.292363112509769,-0.37595937091669784 3.1503624106336603,0.27473024219837133 m-42.18998026715135,7.886480966146359 l0.6189073262495337,1.241215715990913 -0.010180933911896634,8.195705493082881 m0.3946153250086055,-8.8938224213064 l11.550501156329341,-1.8648369476061648 1.8365353191917937,0.0022216024103522075 l0.5872951006091733,0.3003412066848833 0.2869457181911529,0.4796757780188046 l0.02494675376833055,0.5732252682153655 -1.875585591192751,6.633026421764914 m-10.318498442562687,1.708988319640909 l11.402752172366872,-1.1561630059449344 m9.801594853824778,8.978408247035272 l0.15329452950948788,0.9985595247390995 -0.2921810061517236,2.211025826401747 l-1.5316671201607146,4.063180691137318 -1.82857008018254,3.4182734247163884 l-1.4988871464088966,1.5418609539685502 -0.755350218542404,0.21340913729342162 l-0.744039497175184,-0.08340441929832586 -1.3451657721772992,-0.6357197218779799 l-1.6792916677507244,-1.3302869812986522 m1.130466755395742,-23.423753375173728 l-0.005399385207395628,1.5655205071917062 -0.9854339806976007,2.596650263835608 l-1.586425935095166,3.0784468409662136 -2.108977166433109,3.2538807166414596 l-4.688563248993049,5.29743355979734 -5.467339815058354,3.966286184927408 m33.97500423450282,-28.670323303761517 l0.5919229436574787,0.921871480547999 0.18113660702538234,1.089298049326803 l0.04170454247400082,22.4195420882742 m12.137626049240362,-25.46528073181743 l0.6016262211652647,0.8674565268109474 0.2614913133092374,1.1119236881120091 l-0.23824203476860337,31.560271626005505 -0.43270417684816254,0.4996598036330904 l-0.6694955195352056,0.04395999705985796 -1.652442169423274,-1.0761521096543727 l-1.8912301790354613,-1.737522904239519 " fill="none" stroke="black" stroke-width="1" /></svg>