<?xml version="1.0" encoding="utf-8" ?>
<svg baseProfile="full" height="108.84950368508359" version="1.1" width="108.6177596084358" xmlns="http://www.w3.org/2000/svg" xmlns:ev="http://www.w3.org/2001/xml-events" xmlns:xlink="http://www.w3.org/1999/xlink"><defs /><rect fill="white" height="108.84950368508359" width="108.6177596084358" x="0" y="0" /><path d="M25,25 m0.0,0.0 m27.917777717737405,7.15126072528622 l0.3350516744679756,0.1935355877590611 2.6419124959908133,2.187296436165832 l1.357803728648235,1.5080465669875565 0.5440248687807295,0.9674532918088415 m16.08059112206293,4.3470281079105115 l0.07167705618989142,0.8331440905101225 -0.37484204649728337,0.9202680665776506 l-1.4253286663918419,1.957480031538238 -2.3684728865765208,2.675085031608271 l-2.8596300173154425,2.633080426851527 -3.1634916246130973,2.2237635135140654 l-3.7108875361932148,2.0536559899769324 -4.420576986520311,1.889174905367006 l-4.984763899245075,1.6024414801811167 m4.192196976788467,-12.789869754001787 l1.5870236362349193,4.795325077188693 1.576771589139752,4.2779900297948625 l2.0452327793592,3.8682806312427767 1.8718427479252997,2.294451969339823 l2.161996781958749,1.7796459585060533 2.3543070265363726,1.2113067111590166 l2.7946832534091746,0.867098920035398 3.587993127938761,0.5645090117858057 l3.9861811105189884,0.18348599746341357 2.6765521211680787,-0.22862182069524345 l0.7663660862729351,-0.5900081736639231 -0.08003351442173758,-1.0382531769854786 l-0.8600307676921571,-1.5255732134366342 m-32.40753726070611,-8.788002908449997 l-0.8849756197231978,3.980390109420298 -1.3872126329932168,3.919157323787859 m33.62350921166622,-10.232300796681761 l1.8603047942276134,1.2848717210563798 1.5837001141956397,1.5139063437655969 l1.266923931388226,1.6321355903153085 0.6611191147186044,1.5200862377649285 m-34.32183509204961,13.127239891329499 l0.7821089740025913,0.9375374879068865 0.9920691572544539,3.000474222507472 l1.6711625998752702,10.141526042585404 m-1.9685503942266536,-13.083710827347721 l24.032349404462956,-1.8415554986635678 2.9065831188682214,0.005785961282700933 l0.9438129893492756,1.7663326585226957 -2.8614242228048727,11.103147358687977 m-23.4023827185024,1.6319999632174464 l24.31095396300264,-1.5536396094736173 " fill="none" stroke="black" stroke-width="1" /></svg>