<?xml version="1.0" encoding="utf-8" ?>
<svg baseProfile="full" height="100.49583930089668" version="1.1" width="94.57432232066998" xmlns="http://www.w3.org/2000/svg" xmlns:ev="http://www.w3.org/2001/xml-events" xmlns:xlink="http://www.w3.org/1999/xlink"><defs /><rect fill="white" height="100.49583930089668" width="94.57432232066998" x="0" y="0" /><path d="M25,25 m0.0,0.0 m11.735231371212855,3.374966276726894 l0.3209747727291677,0.39070038207071417 0.5481458336381037,1.6010320883260334 l2.112810299966999,15.512377593636959 m-1.9988989821965224,-17.269685072724396 l21.956894525067554,-1.8551435488181074 1.4214861677988195,0.04630847435593827 l1.1738283082494516,0.4549339137482406 0.6762473614243523,0.9111022573148392 l0.07098400291252316,1.3237312807981512 -2.661225700614792,15.138078318121615 m-21.173409403078168,-8.119707592300177 l22.25102725063798,-1.610725587977128 m-21.258806640213514,9.082414615118099 l19.71004946464692,-1.3194510205126142 m-15.553174711214798,3.078636551229804 l-0.08514599291408037,1.0033329145401748 -0.7500510451067939,1.2083417502032845 l-1.8671255759310537,1.9484055703536731 -2.042388074561304,1.6773340306099722 l-4.957517097764375,3.2012310743895283 -6.42616203969866,3.2433133268462924 m12.661615741630635,-5.813642771145144 l1.5071573713279631,0.32981491281056624 2.0255424011344956,-0.0349189749388309 l23.387035176125266,-2.0427197098005183 1.487933551228861,0.7514520009343003 l0.2871155985154377,0.5365304331305241 0.014148385716664848,1.4010192885923123 l-2.230204631910623,7.7806030783706985 -2.657137785991283,6.347826960722149 l-2.3074956577369843,4.308140951625817 -2.176144995214573,2.811927856737884 l-1.2320650490013643,1.03502098620056 -1.1958099680488328,0.06325669159855916 l-1.9764226355809889,-1.5128123410101386 m-7.655291693827399,-19.44954163126467 l-0.3842706720058343,1.1309887838099468 -1.2356324884966663,1.5744305815051018 l-3.4408736407785065,3.114308041393493 -4.178527987840093,2.6405628798713003 l-6.206763101150595,2.9563687675146952 m26.33349074020578,-11.951070974120142 l-0.3312092551084851,1.9750430282058242 -1.500043051416953,2.582364108431331 l-2.4919039006928214,3.0310843734587123 -3.5015109817171375,3.3598403211416725 l-3.524487337303262,2.7865699739559693 -4.040148800923213,2.7244070323122362 l-4.534767291821462,2.553555526819351 -3.714181165100845,1.7381649803227555 " fill="none" stroke="black" stroke-width="1" /></svg>