<?xml version="1.0" encoding="utf-8" ?>
<svg baseProfile="full" height="109.49251433834434" version="1.1" width="109.41480749985203" xmlns="http://www.w3.org/2000/svg" xmlns:ev="http://www.w3.org/2001/xml-events" xmlns:xlink="http://www.w3.org/1999/xlink"><defs /><rect fill="white" height="109.49251433834434" width="109.41480749985203" x="0" y="0" /><path d="M25,25.00000179745257 m0.0,0.0 m2.74088591337204,12.979966402053833 l0.4285215958952904,0.5467461049556732 0.5152421817183495,2.034207284450531 l0.03468770068138838,29.32612180709839 m0.6592118740081787,-30.959243774414062 l11.974214315414429,-2.004989981651306 1.6951161623001099,0.12436441145837307 l1.0691020637750626,0.8753358572721481 0.37211935967206955,1.4844122529029846 l0.01387560972943902,28.611013889312744 m-15.08937954902649,-15.447102785110474 l14.526373147964478,-1.776120364665985 m-14.775017499923706,16.40102982521057 l14.770952463150024,-1.762273907661438 m16.05414628982544,-40.43346881866455 l0.0711803138256073,1.710360050201416 -0.7025721669197083,2.4115772545337677 l-3.5975489020347595,8.94305944442749 -3.536912202835083,6.366509795188904 l-3.814011514186859,5.022002458572388 m8.010812997817993,-9.940345883369446 l1.9264839589595795,0.10731829330325127 4.080270528793335,-0.3794660419225693 l17.260442972183228,-2.8631338477134705 4.726609885692596,-0.36123692989349365 m-19.97825264930725,4.216787815093994 l0.704265907406807,1.149047613143921 0.18381543457508087,1.1957953870296478 l-0.11794401332736015,41.914238929748535 m1.769641637802124,-32.47685670852661 l12.74623155593872,-2.085612863302231 2.44714617729187,0.039083538576960564 m-15.598864555358887,14.363094568252563 l14.819055795669556,-1.8246889114379883 2.1710631251335144,-0.04857389256358147 " fill="none" stroke="black" stroke-width="1" /></svg>