<?xml version="1.0" encoding="utf-8" ?>
<svg baseProfile="full" height="102.45491657544189" version="1.1" width="96.7408486056801" xmlns="http://www.w3.org/2000/svg" xmlns:ev="http://www.w3.org/2001/xml-events" xmlns:xlink="http://www.w3.org/1999/xlink"><defs /><rect fill="white" height="102.45491657544189" width="96.7408486056801" x="0" y="0" /><path d="M33.78258363184113,25 m0.0,0.0 m15.688819045366861,4.504230885189973 l0.353023122416322,0.353178456307357 0.5814955248673351,1.655174145937186 l0.07623582876155763,12.80390714751885 m0.8008248780865914,-7.080004109666036 l11.504663898840585,-1.379017619829005 2.309496446776811,-0.0920264979600323 m-31.1817142102052,-0.48565774051253996 l0.6963581368004566,0.667353443546794 0.3681530290906746,0.9635905694803444 l0.21106591285654874,9.108511679778792 m-10.191005245499673,0.6318756363373765 l2.084557098351016,0.3592954695007297 2.848817886151443,-0.01827729539500504 l34.92623900297722,-2.938747654055212 3.0954582551029186,-0.09926917797136399 l3.785776363097513,0.3251569017077166 m-22.723378460417376,3.559687391925906 l0.6189447918671089,0.9664307549289308 0.14565074858697324,1.7559737570725937 l-0.25692366458271243,11.127541421787063 -0.28453244082646867,0.7297006810419846 l-0.4715903718481332,0.31492764911426996 -0.5990845455229135,-0.017159727758648765 l-1.47213129973428,-0.8385916970314115 -1.626224821138227,-1.3313113702152601 m-7.597709082915208,-8.631664793129486 l-0.0826266013014177,0.9447422345249197 -0.40084831178679575,0.6713573836202136 l-2.388556344688092,2.634246551819529 -3.7768248267703886,3.1280492424955075 l-4.178988207092844,2.6819728612860616 m34.4521833594689,-12.629707520828562 l2.682358625498733,1.1907039614528503 2.871318367501683,1.7196193523063998 l2.283714563642356,1.8353520771753222 1.517240427117528,1.6923790111925232 m-9.044680610246198,-1.5394508802440432 l-0.03318682774067138,0.952972255600281 -0.41255283487894767,1.1182021385674086 l-2.687028895464714,3.365693033703195 -4.045886354139849,3.7893336727773144 l-4.0741311010699865,3.1574153961878415 -4.688302508760815,3.107999319813568 l-5.107354441405701,2.939930864481879 -5.417193547763228,2.6318515059395264 l-5.492936668500486,2.147445805918287 " fill="none" stroke="black" stroke-width="1" /></svg>