<?xml version="1.0" encoding="utf-8" ?>
<svg baseProfile="full" height="141.46258752591694" version="1.1" width="103.650917195517" xmlns="http://www.w3.org/2000/svg" xmlns:ev="http://www.w3.org/2001/xml-events" xmlns:xlink="http://www.w3.org/1999/xlink"><defs /><rect fill="white" height="141.46258752591694" width="103.650917195517" x="0" y="0" /><path d="M25,25 m0.0,0.0 m17.684651034168184,19.854459600239426 l0.39669992952439187,0.15161889441896162 2.949106661109103,0.14247778658845164 l24.76665904603391,-2.700370677676529 5.243616378650843,-0.22153296411093004 l2.610184146030557,0.25899947370248366 m-19.579416400367613,-6.510291977995905 l0.2319811375364246,2.031507983727401 -0.5061886990549547,6.488537838612858 l-1.162982331354602,5.905962381930776 -1.6089152042556405,4.939903597217665 l-2.2640657652506992,4.419590151455344 -2.967002452476549,3.8945882841705672 l-3.5376747470938597,3.166357444345338 -3.755044150437048,1.987836998814056 m6.336407183365595,-20.567700030171284 l0.49921644581405344,0.7223325818739198 0.3423032996832535,0.9372609027359224 l3.1828068136823116,22.883385973879385 7.944406874347781,0.3540119481648661 l4.029039120132685,-0.6644803744186278 1.6919599780903254,-0.7591545308664138 l1.416226811664284,-1.016807846123213 0.7311872304429564,-1.2496152735163335 l0.26121410761087127,-1.7667118798961845 0.023424600926881076,-2.645097753858044 m-9.283412402165007,15.625326943814736 l-0.21044915241088127,0.7137870271690413 -0.5332114115121672,0.6871447945599387 l-3.8116773186169772,3.3997779535404105 -4.626486724764832,2.614267051356272 l-5.582010729229088,2.196677634906824 m-1.8628808505665098,9.92145747695043 l1.6399881198947834,0.3627007889497858 1.5812272306452386,-0.12077287029898524 l16.332567961699834,-3.0581283975582596 2.953185328711472,-0.1898696986202759 l1.8491695110431405,0.3143652736441633 m-12.419884194900437,-9.556701819040953 l0.39109367191812366,0.9936640549125849 0.14565900587061953,1.8183156278475872 l-0.051205953884888335,25.70350715053971 " fill="none" stroke="black" stroke-width="1" /></svg>