<?xml version="1.0" encoding="utf-8" ?>
<svg baseProfile="full" height="111.89276184561814" version="1.1" width="110.49150823221783" xmlns="http://www.w3.org/2000/svg" xmlns:ev="http://www.w3.org/2001/xml-events" xmlns:xlink="http://www.w3.org/1999/xlink"><defs /><rect fill="white" height="111.89276184561814" width="110.49150823221783" x="0" y="0" /><path d="M25,25 m0.0,0.0 m13.274850064057269,11.33038740727988 l0.3763781279480251,0.36206701565522614 2.26658034157338,2.8129740425882757 l1.4427374474350498,2.763615325513682 m13.376595040372145,-7.73968231069755 l-0.12103773581016528,0.9602514418966448 -0.975875987118788,2.1335026978680216 l-2.8273106106303847,1.9858883780995709 m-15.039194004861173,5.3329022921083435 l3.456140252500015,0.15853972973937955 13.611009964786073,-2.145631821291948 l2.321129590049878,-0.17947658407248804 m-8.520079643066616,-11.9317270347132 l0.5994650420491685,0.8030356883649775 0.23970895891244154,0.9741878903648566 l-0.08195431197830713,26.044543490762234 m-0.4847786460917236,-14.785286527913447 l-0.166734343274922,2.285659009924686 -2.383664097479143,4.751131575109617 l-2.665634949264574,4.547504064164207 -3.2311996978667876,4.361836560225541 m11.55506295755837,-12.309116124008892 l3.3295976242538217,2.7930968632864164 1.7398131207080572,2.152568420662166 m10.827803529696656,-16.517748749126735 l-0.12369387728330114,1.3509306732010562 -0.43592025759046943,4.389572626865279 l-0.5079859638839785,5.858926074163038 -0.5989040962816854,4.198026736760372 l-0.6277088550840315,2.503327588933751 -0.7353195114376544,2.0039134980609994 l-1.333729233829495,2.439690792214364 -1.3088777858015765,1.7061286572420433 m5.214504996866698,-23.573834321180467 l11.233553843551828,-1.5780033570872298 1.3063132364709962,0.1806153430229259 l0.6478836217811421,0.9831862294909308 -0.26317117379129107,19.07125992579693 l-0.18815411720281075,1.4598744292436732 -0.6463361091212749,1.4090839210029322 l-1.0767385366029052,0.8143630362472404 -1.3056427239909536,-0.3840172049644253 l-1.4494223191465094,-1.1967521478401608 m-9.638287711980814,-15.198006141917192 l13.917735781634791,-1.3907675641898336 m-14.326339300106566,8.088100033635834 l13.981259421073037,-1.2926765421019537 m-35.25692837560306,16.36918528139035 l3.08507925806844,0.29019946345763475 22.28640005406234,-2.0988135323888666 l5.50126110412728,-0.21349785390572654 2.4729776136693196,0.27052121645958116 m-17.564077519524506,-5.792961929459158 l0.7121438853184543,0.9621143219440285 0.22233461600424104,1.0673858990009886 l-0.01939226115030725,13.646126665178006 m-23.17017923301825,1.5107077007013008 l2.1359089176883486,0.3912492819463641 2.9051696463919185,0.09150619970639026 l20.832163555948256,-2.4223904519895276 19.23611321587285,-1.0828308026406481 l3.458106391661553,0.4619198810109344 m-12.843211670271058,-5.688763301287592 l0.3443547433743839,1.0182242236465562 -0.0926371373015807,1.5055514452537249 l-3.3542840176330073,18.14660009692217 -2.3112566618758623,0.672763012282051 l-2.2038212692980754,-0.7757663325504939 m-15.504775838983084,-8.875678849865283 l1.591962588502204,0.9587582466425596 2.449230501531646,1.8416709572007484 l1.8111757594457836,1.7675444823539268 0.7905569993369174,1.5037315069479056 " fill="none" stroke="black" stroke-width="1" /></svg>