<?xml version="1.0" encoding="utf-8" ?>
<svg baseProfile="full" height="109.49251413345337" version="1.1" width="109.11931679118425" xmlns="http://www.w3.org/2000/svg" xmlns:ev="http://www.w3.org/2001/xml-events" xmlns:xlink="http://www.w3.org/1999/xlink"><defs /><rect fill="white" height="109.49251413345337" width="109.11931679118425" x="0" y="0" /><path d="M25,25.00000163447112 m0.0,0.0 m14.094974994659424,7.413530349731445 l0.661478266119957,0.14152444899082184 3.2787445187568665,0.11853383854031563 l23.741600513458252,-2.325265407562256 2.8607630729675293,0.10488190688192844 l0.819360613822937,0.8301030844449997 0.045940508134663105,1.3304436206817627 l-2.5865036249160767,11.039882898330688 m-41.397080421447754,-3.432394862174988 l2.4489668011665344,0.288420133292675 2.5270941853523254,-0.06101665087044239 l44.009785652160645,-3.081391453742981 5.150545835494995,-0.10703345760703087 l3.463645875453949,0.3876662626862526 m-45.626373291015625,8.599216938018799 l3.2273107767105103,0.29330309480428696 24.955503940582275,-1.9000613689422607 l3.0603134632110596,0.046672956086695194 m-31.12593650817871,8.682553172111511 l3.413514196872711,0.28666025027632713 24.521570205688477,-2.2067315876483917 l3.7533682584762573,-0.04665769636631012 m-40.3762149810791,9.552370309829712 l4.5613351464271545,0.3080028295516968 36.29340887069702,-2.818484902381897 l6.487825512886047,-0.2125892974436283 3.1508108973503113,0.2897019125521183 m-26.709136962890625,-33.52184295654297 l0.9827769547700882,1.4700962603092194 0.31761616468429565,1.6702976822853088 l0.20667379721999168,30.512638092041016 m-15.802558660507202,7.833569049835205 l0.9533163905143738,1.8000216782093048 2.446606755256653,16.205891370773315 m-1.7331251502037048,-16.67758584022522 l20.69072723388672,-2.161930352449417 8.915632963180542,-0.6781820207834244 l1.6361169517040253,0.2083802968263626 1.0599277168512344,0.7765533030033112 l0.4204228147864342,1.1943718791007996 -0.049480656161904335,0.7070524990558624 l-2.033427059650421,10.650711059570312 -1.2732316553592682,4.770651161670685 m-28.20918321609497,-8.802348971366882 l29.83292818069458,-1.8333680927753448 m-28.66752862930298,9.50028657913208 l27.000160217285156,-1.3332919776439667 " fill="none" stroke="black" stroke-width="1" /></svg>