<?xml version="1.0" encoding="utf-8" ?>
<svg baseProfile="full" height="99.01196802707427" version="1.1" width="105.31533176389716" xmlns="http://www.w3.org/2000/svg" xmlns:ev="http://www.w3.org/2001/xml-events" xmlns:xlink="http://www.w3.org/1999/xlink"><defs /><rect fill="white" height="99.01196802707427" width="105.31533176389716" x="0" y="0" /><path d="M25,25 m0.0,0.0 m5.753157893962749,20.509830732224223 l0.2530387724866208,0.4178965712795045 0.3987587458186929,1.3300487636275404 l0.00921841871790003,24.23727036810775 m0.35822451808783556,-26.363726895333038 l9.61890620649096,-1.5705962690612953 0.6489677060982522,0.05352878484816349 l0.7858593400202135,0.7271577736936187 -0.17676875666278688,25.048532122642435 m-10.854141724923824,-12.460945084663374 l6.852055656934886,-0.8172718328837154 m-6.720324963579422,12.617987190449034 l10.342559429483726,-1.1055315456647812 m7.600545432127019,-25.263523701855746 l0.4855380212899929,-2.058343477709324 10.54437713681315,-2.3202754742973113 m-10.816741547974882,-4.741503619404364 l0.6942042741731361,0.6881040216787228 0.25816198992215306,0.8465204290834296 l-0.12264217547869866,13.648083891869002 0.3486117614739987,0.9254572595679362 l0.7179253942246566,0.463095668192147 7.564181795250138,-0.9731169494640091 l0.8833166994895053,-0.1646529935960419 m-10.222712134936831,5.303935774229931 l-0.21937173787863987,0.16406571240222262 -0.7834156134902222,1.5772954879622236 l-1.3608601818700738,2.0923551603024793 m-0.4012076152955357,0.2061500124809332 l0.4036169596187257,0.6295821240292354 0.22913471572760544,0.8192416997695532 l1.2476405475887447,14.545316322567192 m-0.6077600390455276,-9.846387887468211 l4.420842106633261,-0.8863143920369976 m-3.725054793619761,6.895005779695609 l4.024691524028456,-0.6676491895007717 m5.777613564641618,-12.31964464001353 l1.4619812349392514,0.20714565631499293 4.824806412901033,-0.8141514884604353 m-5.46238672341254,-3.9680813470832903 l0.4188623538111492,0.9213335141040457 -0.012752730694377141,15.320274845713714 m-4.124091350925957,-9.582490687018964 l1.3727745435645071,0.21785851364303863 5.759897334272288,-0.7355270187269813 m-7.104995266749309,5.970560847819788 l6.884108889294532,-0.9054072225107715 1.7938966023561156,-0.015218585979119953 m7.108394646975805,-28.32854915299654 l0.45106744971489987,1.506053575854527 -0.037407462494971136,6.732187814407633 l-0.35956513859492734,4.404620808093642 -0.7906387420383842,4.089088572644065 l-0.9884507809235795,2.974089677714602 -1.059984631634086,4.695876581882994 l-1.1265134245099078,4.15932149769634 -1.265336929913388,3.5201559523990547 l-1.259974909505801,2.521243236957462 m4.827104766212653,-32.53808206965603 l7.681148233493531,-1.2611599227187227 1.044252810696544,0.03861890737323848 l0.5068499078914083,0.2677388672228746 0.45916965738082194,0.44765144823460257 l0.10296768544206612,1.0449889580712923 -0.4597870792479067,24.870940725849547 l-0.4234847923821243,1.6891049335121135 -0.48765207157011997,0.9590951975906167 l-0.5609592897670227,0.2926734062105348 -0.6251722992403819,-0.1755416310634789 l-2.033450176168445,-1.7642636468014687 m-5.429414760612487,-20.80763183726652 l2.0291967088355376,2.1130668809656075 m-3.5623852768167272,5.802735087129598 l5.951694401954386,-0.432815138092392 " fill="none" stroke="black" stroke-width="1" /></svg>