<?xml version="1.0" encoding="utf-8" ?>
<svg baseProfile="full" height="104.78797315301902" version="1.1" width="96.62132292625186" xmlns="http://www.w3.org/2000/svg" xmlns:ev="http://www.w3.org/2001/xml-events" xmlns:xlink="http://www.w3.org/1999/xlink"><defs /><rect fill="white" height="104.78797315301902" width="96.62132292625186" x="0" y="0" /><path d="M25,25 m0.0,0.0 m15.135157855180466,4.755522571525279 l0.3181566075923731,0.47492205642492086 0.5279922338131382,1.846556547881358 l1.8037598203189222,16.91180169291317 m-1.586596742860004,-19.278643610787277 l20.159020814116857,-2.636350488467472 1.919102154680943,-0.26806919696806775 l1.1969605533430245,0.4445502841798885 0.588973494556313,1.1671355303811053 l0.00022444501217471977,1.4862467546694096 -1.2598723928692401,9.044814318792483 l-1.246573655669239,7.037189624313189 m-20.578391506652583,-7.987578925330488 l22.119828835655575,-2.1944580222684578 m-20.892202204468518,10.434737376078369 l19.250861055322055,-1.7448373572545155 3.8810772140763476,0.002343303587656127 m-28.03280465017251,14.828356117469458 l3.080019187003176,0.26147473021493023 24.250639776324483,-2.672943307603507 l3.8043414166956393,-0.18498061033979835 2.1816486152524637,0.26614857639643047 m-17.39633520375769,-9.099377504562154 l0.5155441130911894,1.1404116603298466 0.18797419199094365,1.8541494362403543 l-0.07504891245481632,28.898851595202917 " fill="none" stroke="black" stroke-width="1" /></svg>