<?xml version="1.0" encoding="utf-8" ?>
<svg baseProfile="full" height="121.79990070922545" version="1.1" width="89.94985861725654" xmlns="http://www.w3.org/2000/svg" xmlns:ev="http://www.w3.org/2001/xml-events" xmlns:xlink="http://www.w3.org/1999/xlink"><defs /><rect fill="white" height="121.79990070922545" width="89.94985861725654" x="0" y="0" /><path d="M25,25.628430001825954 m0.0,0.0 m14.609565474584775,5.24843410835407 l0.49403637586675764,0.15189910624592637 2.818906523963976,0.07144502503848679 l9.868202540263784,-2.231394800157166 5.24454602407515,-2.3165656347842547 l2.7453100733724303,-0.39969992787362035 2.4138662492370417,0.25901060244911617 m-24.927739893044205,13.387137452773773 l0.5801065116034795,1.1632027604981698 0.23622056725999818,1.3136031485583062 l1.6369509613236815,22.55591482043436 m-1.558404972897956,-23.752250679456342 l23.413255241911646,-4.599570962415098 1.3532650409701865,0.019146281249236802 l1.0217718987657902,2.0758931164914993 -1.614148908519919,11.684931953177816 l-1.6455943022973507,9.642461675017458 m-21.044960410684336,-34.90202804742769 l0.46723603681872855,1.4940792079328409 0.20621341383728406,1.5984823293948163 l0.06461801379603034,9.180488190546255 -0.041371621739498,6.5172689364932435 l-0.28552881735566527,4.8319486557943065 -0.6521089583433468,4.330151752515763 l-1.0923915643034972,3.9758582392339874 -1.5612214521737118,3.516415138045846 l-1.4756823992914632,2.2464574464919593 m12.339611977055208,-30.68817196765381 l0.48329360836302526,1.8260468963623118 0.09234049919616738,1.5265677901036858 l-0.11030921615286929,19.84413312630755 0.3493275747349487,2.9694397463506466 l0.3798283866842615,1.2180416825023443 0.5007829271869866,0.8549330230778616 l1.487430628853842,0.7168124158285689 3.0895857932964015,0.10890750436728862 l2.6710635660601514,-0.4968487820369736 1.4772189082207714,-0.7624603965660078 l0.698907451911445,-0.8085784717610381 0.36438902441966,-0.9462393757158972 l0.18185335543643938,-1.3781239166443997 m-26.13616872408477,19.388723111721063 l2.14419648630472,0.41940105667756616 9.920474640021135,-2.5133062599657823 l9.698120541876389,-1.6494463681527267 2.823682895574609,-0.23744088692811904 l1.8541502512245256,0.37624176137642196 m-15.035715409147318,-9.175131362978846 l0.45562515732057723,1.2987225387812655 0.1774127897718133,2.0942387047250595 l-0.06639015776788844,30.1222892429984 " fill="none" stroke="black" stroke-width="1" /></svg>