<?xml version="1.0" encoding="utf-8" ?>
<svg baseProfile="full" height="113.84990464943418" version="1.1" width="109.48910683784617" xmlns="http://www.w3.org/2000/svg" xmlns:ev="http://www.w3.org/2001/xml-events" xmlns:xlink="http://www.w3.org/1999/xlink"><defs /><rect fill="white" height="113.84990464943418" width="109.48910683784617" x="0" y="0" /><path d="M25,25 m0.0,0.0 m20.22361988244599,22.43969049930646 l0.4581994325763939,0.1287529761833217 3.0569796334494113,0.06154006743969377 l23.22226295410129,-2.1642467670061647 4.268911801488242,-0.14110222190269453 l2.109516517841137,0.22626933018902667 m-18.292691988168297,-6.457136104285275 l0.13378790852293168,0.7507177889665292 -0.14909569092175087,0.8991539575858163 l-1.6090716328276344,4.484095403901778 -2.1748750830171293,4.193857685384154 l-2.2886560777431386,3.3206382550995914 -2.6610507984428655,2.9604002160986784 l-3.097430303874509,2.972348134111218 -3.3435976693094585,2.6275911211162204 l-3.9428345284425053,1.9943658105744504 m21.28068291566548,-16.72292985743254 l13.954337643360272,8.13440544330752 3.8502179673812478,2.242710588199759 l2.8324887934883716,1.2540998897923665 1.657405160272674,0.4330334731468881 m-32.709371923566124,-1.220801329570547 l2.0547408915998058,0.058430949994136124 13.281316440678038,-1.3361408063238434 l2.9978441542732948,0.09690579232117331 m-9.37618366999111,-6.075986756196879 l0.5851851800130109,0.8324885967808141 0.16854080190002957,0.8157028627062485 l0.014011961980376573,12.456637083615743 m-16.49313233982132,1.4160843498511535 l2.823304666494542,0.28693986660888887 25.60009078363131,-1.714015800788687 l4.024614312884337,-0.08186324880860081 2.376011355801793,0.28031845628922164 m-24.11655123373156,9.246393361742657 l0.4439930221585084,1.4958354776632825 -0.12572012416914008,1.8419703819584066 l-0.705266208050841,8.972275688997518 -0.7319971361700622,2.8404740328167053 m2.2744773387733264,-17.879178024825727 l12.711438949912047,-1.6007007992936801 0.6563433956086518,0.07592553652168167 l0.47932551376560706,0.32424746103639085 0.32716832919816513,1.0019626109382045 l-0.04117241655722213,16.57689782365241 m-14.265168822940108,-9.873808863674585 l13.788506688096433,-1.2015728716386158 m-13.71175854613704,9.583797279736638 l13.755952877827378,-1.2883596708559086 " fill="none" stroke="black" stroke-width="1" /></svg>