<?xml version="1.0" encoding="utf-8" ?>
<svg baseProfile="full" height="121.75560043298944" version="1.1" width="93.35792207469105" xmlns="http://www.w3.org/2000/svg" xmlns:ev="http://www.w3.org/2001/xml-events" xmlns:xlink="http://www.w3.org/1999/xlink"><defs /><rect fill="white" height="121.75560043298944" width="93.35792207469105" x="0" y="0" /><path d="M25,25 m0.0,0.0 m15.189801658234291,3.7886089158050087 l0.43681304962455153,0.15705916710938922 2.2739971887314305,0.15895902726837177 l10.343405014911104,-2.174703282179835 9.524726152233498,-1.5293108109568976 l3.521896793734159,-0.1219779804754055 2.067282217222012,0.4228537260660216 m-15.941105660041067,11.329283008327117 l-0.16794469897336115,0.9706509821684328 -0.5490255479712473,1.3613169299172494 l-2.6770002633109793,3.9924192605753417 -3.518672741512064,3.71359180104324 l-4.139068505594683,3.2162482202469964 m-0.8405967946295704,-13.040703869762021 l0.4813886073810667,1.1880037981861693 0.22971033634517724,1.6014469484378218 l0.060003809938272056,18.1249588779332 0.27192046898959443,1.538052820177051 l0.5205551479201874,1.092149327571521 0.69084710409966,1.5411399587232393 l0.7922735283690933,1.7402533055961102 0.8290160915947268,1.4158614303816588 l1.6397382706233343,1.2984398818479825 2.519477643610624,0.6701903452555477 l5.463323723483701,0.12649017619704597 3.4245606486198645,-0.41578261948108075 l1.5389516697960637,-0.8028376985151581 0.9640284365508885,-1.3141680161072493 l0.5658082892151048,-1.8263456656492263 0.17238409852789144,-2.796113610064108 m-27.348023402361598,18.8112977009343 l1.4162759009778543,0.4144255868092548 1.6833936118692316,-0.07734648963390649 l19.581234562640315,-3.269045440229511 3.6258899623915553,-0.16399525581608954 l2.1659418900782743,0.32777034331000765 m-14.452195041553141,-11.151880061134527 l0.3474960354839066,1.1886462625468202 0.15714117322931648,1.8995660754878387 l-0.058476972858860506,25.77726190947707 m-17.365840900872072,2.152295622065496 l3.4329772049136533,0.42056982352914374 24.543313308903596,-1.931732644023593 l4.688432864521843,-0.05108849820314632 3.2102324244032263,0.43318055896638746 " fill="none" stroke="black" stroke-width="1" /></svg>