<?xml version="1.0" encoding="utf-8" ?>
<svg baseProfile="full" height="106.46043677279326" version="1.1" width="105.21793013440936" xmlns="http://www.w3.org/2000/svg" xmlns:ev="http://www.w3.org/2001/xml-events" xmlns:xlink="http://www.w3.org/1999/xlink"><defs /><rect fill="white" height="106.46043677279326" width="105.21793013440936" x="0" y="0" /><path d="M25,25 m0.0,0.0 m7.595028640011946,4.398470258460362 l0.36695151966685197,0.3416802149589621 2.3263007734751056,3.703257436607643 l1.3012384319866317,3.867314186070551 m13.203332062468492,-10.86838330818861 l-0.23902321501141516,1.9360681223176248 -1.1362344224589986,2.7940265009232306 l-1.529957380458438,2.6443793276940117 -1.7718291303238498,2.506495342491957 m-15.309001391030561,4.8229692592478495 l2.332558881776592,0.2663603736012808 16.28135804594568,-2.4567175158807872 l3.1171696356813547,-0.2257771525135104 1.9085754824787826,0.21648206626924807 m-23.56789951711768,13.976114540360337 l2.0441005074380305,0.27185091008812484 18.990312968719987,-2.591063335614148 l3.678198391402611,-0.18258646520808003 1.8187348082555181,0.2984015418443628 m-17.84918017400061,-8.912095588171162 l0.5163000547054009,0.8008294981152599 0.1763467819911699,1.0600168504668057 l-0.03995838414849168,7.534846116558347 -0.26187065046463637,5.817612495088389 l-0.7666109715272998,5.655600964764924 -1.1874337603321614,4.371288052278583 l-1.2850536143157432,3.180135621690031 -2.4997210575823097,4.200274733754996 l-2.412626381245152,2.8888041126699004 m16.552427115611156,-38.09080328571051 l0.5252209692846266,0.9223345017863808 0.14496617920664873,1.1679402639127614 l-0.05570098782418903,36.51124889427994 m8.632587641298738,-46.578826119400766 l3.371147514947698,0.2281168917909209 16.777685268135734,-2.2575224806628995 l1.7189661142072583,-0.0165288247675409 1.7505233835548901,0.2807642070793361 m-17.051390809471815,3.466215015125882 l0.4365826764905824,1.9215195670199672 -0.8324802578228437,6.032428057739194 l-4.843380418875107,15.421218809784257 -3.4440142459194156,8.82047411180324 m-1.202355112841057,0.7239882750484524 l1.3297063270007636,0.3018030839517353 1.3256748297195327,-0.16799588082242314 l12.03733535987669,-4.985442108727289 m-4.418814463887443,-21.076529361908673 l1.7379029954208984,0.7110117105676995 8.387265123006639,1.6986157756509372 l2.6483524175957154,12.944695750738212 1.5656088121380642,11.241174046304 l0.38398903089750025,5.061521928404679 -0.009755565795413392,4.581730949153007 l-1.3956713767721478,4.90162515129832 -0.6581262187141025,0.379002682607955 l-0.7600707271852842,-0.10129721873515757 -1.5148949688222024,-1.0639157027159758 l-1.5182200744112286,-1.7537497270582239 m-9.876175832954385,-29.182092168963287 l2.145344797158142,1.7187748085186263 1.9837239361232144,2.1626864504629486 m-6.396550772410748,11.461758209825339 l1.1917302641503942,0.26630029946733597 1.275908711537372,-0.36886554170594954 l6.508897357155264,-5.237036762466419 " fill="none" stroke="black" stroke-width="1" /></svg>