<?xml version="1.0" encoding="utf-8" ?>
<svg baseProfile="full" height="108.20166158832308" version="1.1" width="92.40305362934339" xmlns="http://www.w3.org/2000/svg" xmlns:ev="http://www.w3.org/2001/xml-events" xmlns:xlink="http://www.w3.org/1999/xlink"><defs /><rect fill="white" height="108.20166158832308" width="92.40305362934339" x="0" y="0" /><path d="M25,25 m0.0,0.0 m12.752441174687528,3.0399336611924253 l0.5270051698855189,0.19230544887299617 3.083451278361496,0.2461199344597688 l18.755022056659218,-2.983733428551285 1.0125537200881056,0.1208949438544725 l0.5450056952759977,1.0037708192796184 -0.3756371389253599,0.8297948959756286 l-2.6604940598470526,7.22760340247504 m-21.088056329974556,2.546880468359339 l20.10326253834605,-2.377603061937996 m-20.678336235684107,-6.274056825921506 l0.43751313564403777,1.3318502789738824 -0.19587294814269424,6.3418530058794484 l-1.440458583166047,5.663068393998829 -1.2676143991975815,2.886745992191088 l-1.626511731853476,2.6914152310247412 -1.9453195980612283,2.596969735607853 l-2.5722776103666787,2.7467379607953113 m22.104611226767794,-17.971401748933214 l0.4091084837611453,2.8914836060815716 -0.7621867422503693,4.804689810156417 m-12.084792823063314,0.4790992990747665 l0.14259914979936011,3.8835063815183695 -0.4250407975133079,9.525586143389098 m0.04184134550289948,-12.365691824693956 l15.577292755030939,-2.067908675831509 5.354998283029253,-0.37499308279827814 l1.0837873610018414,0.7175019655457885 0.18414816355137414,1.1663556623684277 l-0.47634291150639135,4.976023442165471 -1.0553046930622612,5.194021603837555 l-0.3973306191925577,1.4927109243741172 -0.39485573325015993,0.5983857138099167 l-0.45582443770499986,0.07407065323236244 -0.4649640547637318,-1.4744145421919803 m-7.784767778723907,-17.712402385775068 l0.4420021005311256,1.138574767224336 0.10396198772247835,20.10932417290439 l-0.026566970453228596,1.5211004278155351 -0.6260698667764684,0.7523353628975832 l-0.5592043956550827,-0.17356127193869147 -1.5969318414386726,-1.7085853924216077 m2.6197866694990006,-10.526501509706993 l-2.098368028346413,3.4000262879633723 -3.1256655799062893,3.9336343031437058 l-3.1810832765108046,3.098817011752436 -3.162038238989405,2.254153823877235 m13.408380324773736,-9.525644078388845 l4.223961036871627,3.3945502676246186 3.9735078955799152,3.9405296074816474 l2.369796138835374,2.310598268490357 1.6181738693869565,0.9555927685865432 m-33.50491857883996,9.809427639897219 l-0.17185456329027948,1.9515633374802601 -0.8800398451356141,3.2113749986092386 l-1.2731105600419879,3.43550789364958 -0.9943559453614287,1.9455897433330718 m8.514344347957305,-13.573454975267973 l2.4240314380836696,4.622283153533522 2.5842594825949394,3.401573285933104 l3.239125442823778,2.9063521801187435 3.9661604617080934,2.265033869595322 l3.8648489326998456,1.12353416277913 3.4777105464235736,0.4764879047261085 l4.399970769379284,0.08426977477061881 2.955040565715695,-0.47379498773012424 l0.7490829828617365,-0.41796036049238655 0.32900033786141014,-0.563982956198907 l-0.0652373860146384,-0.6831937654452982 -0.4092075106774632,-0.7997713021262998 l-1.8757800674522545,-1.883072370661333 -1.423163604812008,-1.0401615879243908 m-14.05874563437035,-9.45940253315886 l1.231224203159724,3.0373598038763485 0.9239930261333201,1.0316551353950614 l0.4553840125260329,-0.043138688321295776 0.44648213157088174,-0.5099223591097665 l0.9242585756650546,-2.2949911552557873 m9.325512153257169,-2.32767674544363 l3.0392207314227897,1.380676266483326 2.273066902281727,1.4940249643267947 l1.7798915195958958,1.6353125913119073 1.8105646253508507,2.1220080598472464 " fill="none" stroke="black" stroke-width="1" /></svg>