<?xml version="1.0" encoding="utf-8" ?>
<svg baseProfile="full" height="118.67976454023672" version="1.1" width="94.09171490943933" xmlns="http://www.w3.org/2000/svg" xmlns:ev="http://www.w3.org/2001/xml-events" xmlns:xlink="http://www.w3.org/1999/xlink"><defs /><rect fill="white" height="118.67976454023672" width="94.09171490943933" x="0" y="0" /><path d="M25.974114514118718,25 m0.0,0.0 m14.41907217289136,3.531380011072519 l0.4150624712083462,0.3686288154234507 0.43537278529684376,2.506470221060092 l0.005088660096735607,5.924411934135884 -0.5037848980243473,4.983212825886999 l-0.8564948920964628,4.005388271417765 -1.2762174518202098,3.225823885681146 l-1.2543944451197186,2.2308201901427895 -2.362118987606526,2.975720943458396 l-2.373458839712507,2.1627049953546607 m21.030786630975136,-29.401250837247535 l0.7752656611840589,0.8722757504514939 0.33399732061964577,1.4621178415245921 l-0.17486494859420063,23.466859275607373 m-24.047495729404233,-18.962060395563007 l2.470196615216266,0.037837538689692925 8.053168996549847,-1.458637864908449 m-11.493571718039812,9.075756988816988 l2.4758542283992777,0.0035368144871282168 9.033938525363109,-1.887816661378357 m-13.930442839869194,8.877701439579008 l0.9714394032690402,0.8099927643068363 1.0044568270382854,0.013497736549580676 l11.155904757595604,-3.7042868649418503 m14.012481930789896,-13.34410851832048 l10.867160893447032,-1.9229887623478306 0.9151991203787744,0.03256883135227072 m-11.074256531294685,8.253638663371632 l10.189165125540981,-1.6406436105063864 m-10.288899557889865,8.085408695685553 l14.189989108932137,-1.6710211985105905 m-30.92262635947718,12.72438302421909 l1.5535150455471305,0.2385249849440027 14.389516469594072,-1.7576204634953059 l4.775592174410058,-0.41280433040596953 1.5184070191846288,0.18124199441336994 m-24.23215445624902,9.164462389569286 l0.9538429987013215,1.6688762860823096 2.1672574174844064,12.810125602805362 m-1.655121064169282,-13.862260750071027 l19.049433593659206,-2.2486535284687257 2.6447174554611412,-0.09791917467869335 l1.0961117120127943,0.3637500446829503 0.6862360125367559,1.0265232579577317 l0.010311980956777198,0.7664323408664905 -1.0723015974888426,6.1557776023877615 l-1.4254142190184433,5.776942783585762 m-19.549811817321874,-5.658108141881401 l15.010491827393535,-1.6027662969706669 m-14.982696158911372,7.946278267392597 l12.69044477016462,-1.6017395439766775 7.118993870595865,-0.4051281884557027 m-33.91646158450563,9.54927210374253 l1.6035227952393856,0.390995922197777 1.6112419960956192,0.0010134929945681225 l17.746937507274094,-1.9559999251642957 15.466341437536991,-1.2102075202341152 l5.159078435595694,-0.1937747339328838 2.333783297537356,0.42857564444594853 m-21.73094059765264,-33.63977422618122 l0.730113933003223,1.2928816190345487 0.22417683345425066,1.4121568866227567 l-0.11405712861097014,42.515367395877185 " fill="none" stroke="black" stroke-width="1" /></svg>