<?xml version="1.0" encoding="utf-8" ?>
<svg baseProfile="full" height="98.48497605334234" version="1.1" width="95.38517553373363" xmlns="http://www.w3.org/2000/svg" xmlns:ev="http://www.w3.org/2001/xml-events" xmlns:xlink="http://www.w3.org/1999/xlink"><defs /><rect fill="white" height="98.48497605334234" width="95.38517553373363" x="0" y="0" /><path d="M25,25 m0.0,0.0 m12.382673052259618,4.638828644500704 l0.023764386438596935,0.39497205043523403 -0.6024326343961263,2.1260399217237307 l-1.6018509735982749,2.911339280741676 -1.8936819805828082,2.436455622779209 l-2.5232309389794993,2.295234512178873 m6.413527363431706,-5.2365651636067545 l1.9634452414952364,-0.4134236125356847 5.474604751022831,-1.395826582445407 l1.7023744533099319,0.020532336131106603 0.26037742839400563,0.3286804173645628 l-0.07146935746836978,0.4897812558038851 -1.4896970596495185,3.5401231950344427 l-1.4743996601374099,5.180463771222044 -1.207054059999453,3.908695387169692 l-1.6200813525086448,3.5372297020393098 -1.3632949004146135,2.2184673951613822 l-1.631897472042793,2.0758599338647974 -1.9234597931718556,1.8369109101543715 l-1.9708611048235025,1.4199169840047614 m4.186550281511073,-16.579983884633137 l1.6870700403753547,1.8183158548313332 1.0413453935988388,2.1290481469511335 m12.127691869176928,-12.36998339232926 l1.7726170082421793,0.049042555320185054 8.829868974802585,-1.7868360530234257 l0.6073086389588565,0.043899927184421934 0.7237247454146192,1.0721355138069273 l-0.2592464742814012,2.690834498201651 -0.8778252292926282,4.468232603253533 l-1.0154077228270226,3.7762646707548444 -0.44768209924833435,1.3235812181510156 l-0.8047211739134082,0.5223800598382317 -0.7998825830232914,-0.23858674391207876 l-0.8577021745789146,-0.9596265458224313 m-5.859014216473399,-11.178154284686546 l0.3448437107795656,0.8437406426622671 0.07761622337727625,1.0507642262868417 l-0.2855347498795269,16.163997762299612 0.04053958174452706,1.7215773239182437 l0.2539972262645008,1.1143902572965392 2.0750624605252512,0.9510448035728911 l2.6950434843303,0.10176739460900111 5.162312141317278,-0.06965436104800299 l3.7742190261931605,-0.4012750201148023 1.2237127290335876,-0.5056404722377751 l0.7078499528519441,-0.7501705603327194 0.3400919649472906,-1.1438013308385437 l0.07337111522737604,-1.820661928083477 m-18.759575863372273,12.097319018936403 l0.4211374905196267,0.8849337064284735 0.14880115086706788,0.8990299165186002 l1.075161710863602,10.253334567860444 m-1.0080804409100013,-11.218091890842166 l10.290827221742873,-1.7741918980284925 1.4445050303179159,-0.04151216413254757 l0.37934301345102395,0.19478976195048378 0.3525866952693455,1.635906433607877 l-1.6503062307147405,8.146904836866058 m-9.521027863399834,1.662080324071955 l10.613831489488309,-1.1181541192502287 " fill="none" stroke="black" stroke-width="1" /></svg>