<?xml version="1.0" encoding="utf-8" ?>
<svg baseProfile="full" height="99.04937331016552" version="1.1" width="100.43964119758303" xmlns="http://www.w3.org/2000/svg" xmlns:ev="http://www.w3.org/2001/xml-events" xmlns:xlink="http://www.w3.org/1999/xlink"><defs /><rect fill="white" height="99.04937331016552" width="100.43964119758303" x="0" y="0" /><path d="M26.050548695888825,25 m0.0,0.0 m12.832972444323332,3.7856769443951612 l0.3498803101900408,0.41044891095183167 0.47791059013523574,1.8651848724939282 l0.00870011017014467,12.120612396696172 m0.8784927075427446,-14.745185801319202 l20.160033003458814,-0.8224054753743872 1.904805112529472,0.28478424041726863 l0.9399066396510304,0.5239869600811279 -0.053854643263800205,0.44908219022009044 l-0.5269786668465071,12.406340338654106 m-12.929987549330235,-6.316455487399213 l0.6463532069571905,1.3134778861941336 0.8076210547624564,6.48119423592801 m-0.1937782031003643,-7.147562443049496 l11.545234575975531,-1.1797904728737973 m-36.00426868325007,8.918399321307913 l-0.6456323576918602,4.026270879339599 -1.2479583481019771,4.2161803913384635 m2.093730309171573,-6.569079825121232 l30.25829571481899,-2.2990505854699212 12.025099812171067,-0.704778753714729 l3.327356773668473,0.008802995653377155 1.8374730401052264,0.2679039873867159 l0.7483818200848563,0.4243497951829874 0.14930372756285495,0.5652255929667349 l-0.9138934939686212,1.3456728829038649 -3.2783796893788266,2.3690048075679204 m-31.262570206873374,1.2605968331281447 l0.5663842525485355,0.7510075353308427 0.16628791391578066,0.8111905276771377 l0.06421709831529325,23.38864897663518 m0.6520827767041099,-24.76448278202109 l16.086628669396895,-1.4407778960695439 1.5026590074034674,0.22326134952267282 l0.7349466730247108,0.6943363240497648 -0.39704935460735985,25.191319489368073 l-0.5372981517725666,0.7918154454566629 -0.7330713970765986,0.14416672173026313 l-0.817610181525773,-0.29758568527214935 -2.13904476530791,-1.5319627383583003 m-13.76492250454426,-16.242770504284856 l17.687397325695386,-1.1764496519823027 m-17.81196060074987,8.318378799912342 l17.769488838026426,-0.9048234454060067 " fill="none" stroke="black" stroke-width="1" /></svg>