<?xml version="1.0" encoding="utf-8" ?>
<svg baseProfile="full" height="107.50328644597693" version="1.1" width="108.41974902611275" xmlns="http://www.w3.org/2000/svg" xmlns:ev="http://www.w3.org/2001/xml-events" xmlns:xlink="http://www.w3.org/1999/xlink"><defs /><rect fill="white" height="107.50328644597693" width="108.41974902611275" x="0" y="0" /><path d="M25,25 m0.0,0.0 m20.84076092312179,22.73974308663455 l0.3944263738514257,0.13003027594249428 2.275493298051229,0.13241339327506813 l21.757148149158613,-1.9503720820459358 4.959501928963707,-0.17879288960283832 l2.110547710672653,0.22429117720944594 m-17.12986852731715,-5.849530028747291 l0.1585829383679752,0.6859655151844121 -0.1375030481458007,0.8660184703708631 l-1.3330922623797314,3.999669106612901 -1.9139570580821514,3.927971913104069 l-2.097942286761785,3.1477160204741352 -2.526531413660955,2.7987501102907846 l-2.8951183993265,2.7305094224490523 -3.075286506866242,2.4511060532070506 l-3.175121654611791,1.9190613178932558 m19.532070087682342,-15.577053777665268 l12.274068029944361,6.8911751321261825 4.921637476372747,2.1072253695559025 l3.479933267078002,1.0583858766948484 m-30.002851350863722,0.8991310772808495 l1.5628719076561015,1.1347359463930609 1.6220522430282807,1.7478957836588271 m17.44979444746641,-5.290010056160073 l-0.10674101890405716,0.8200173139492278 -0.6511980408375357,1.095135459985357 l-2.518406733973028,2.62593730671668 m-18.624001404073496,4.924428440128303 l1.3984992040578597,0.23432824691674659 1.6648930076164414,-0.01885754406162733 l16.9177095757928,-1.5156477022578312 2.2697305288498453,0.10780932755708483 m-24.9553904797439,8.356154506030029 l1.443736986324611,0.24524040679770295 1.7839647000066183,-0.004056746973411711 l12.391435630232747,-1.4121013838042613 7.802652203021236,-0.46609695737525275 l4.607974115069283,-0.08585352641920724 2.7076347443305004,0.28094089726046306 m-16.59639621157035,-12.018399736020637 l0.3709016173129598,0.7213167030234671 0.14532402623037508,1.0025684613869146 l0.02621633656499293,5.043636946800598 -0.4600755196760487,3.9706571131861432 l-1.0577805917240986,3.4941442985285858 -1.6856391195184688,2.937268235434387 l-2.3096794457792367,2.455118914709046 -2.896883968040401,2.032370064831326 l-3.8575370586856743,1.9311911855107369 m13.926862433166395,-10.213208064266121 l5.44920948092406,1.7803017975187831 4.682579720679436,2.2874820066530743 l3.8063773982182947,2.4419249023330893 3.291513468628603,2.997097988787364 " fill="none" stroke="black" stroke-width="1" /></svg>