<?xml version="1.0" encoding="utf-8" ?>
<svg baseProfile="full" height="111.23788225850282" version="1.1" width="94.10757536846725" xmlns="http://www.w3.org/2000/svg" xmlns:ev="http://www.w3.org/2001/xml-events" xmlns:xlink="http://www.w3.org/1999/xlink"><defs /><rect fill="white" height="111.23788225850282" width="94.10757536846725" x="0" y="0" /><path d="M25,25 m0.0,0.0 m13.656313478275889,5.412452479791826 l0.44807267573530263,0.13496926839002327 2.604967520523061,0.11817427291777827 l10.406880220146713,-1.9492546273162148 9.564698547441086,-1.2320585244866178 l3.3033727919053057,-0.15881015433374684 2.189012038326238,0.32489063174135097 m-28.408831252386246,11.130447456281104 l0.5946958510983994,0.85253332820279 0.36225181057434197,1.0069147084714674 l2.0320740863527766,19.000712133096656 m-1.7910188303884251,-19.52917520298956 l22.228157790199663,-3.4362640051260827 1.4378441736482064,-0.12756762697478016 l1.361333687586811,1.5918227658489574 0.08365569311349501,1.8117941776252646 l-1.140376367184415,8.65987558701946 -1.5610367209334621,8.38793399388516 m-21.14372631462378,-7.768621129687492 l11.569872552394408,-1.9943442652214856 11.062724736935964,-1.2876341212476112 m-21.654950397167188,11.607636231013148 l9.22452815956795,-1.498202387241644 11.063827237424396,-1.3103810375168858 m-9.915228539098045,-26.433339081221348 l0.3808136391376495,0.9769720189213721 0.14124296011241352,2.100223621758606 l-0.08976611583057466,19.213725294467537 -0.49706671710067113,8.018027394250119 l-1.3482166119738959,7.211774281119131 -0.9650935562496572,3.0523630516258105 l-1.2261891748379998,2.9612115154689023 -1.5431187653701257,2.7741920688738224 l-1.8229040384994377,3.9606011297033716 -4.5634661395186615,3.885702165541557 l-5.262628239337615,1.6940344357170525 -6.399261468533974,2.074550410134012 m5.426261041664474,-20.265066117435623 l2.0606531348067327,0.5753505155311615 3.842278248400981,2.008475773541994 l21.715393420306146,12.702277447996767 3.088424865296669,1.4474736409814484 l3.591104256526346,1.2326228241081454 " fill="none" stroke="black" stroke-width="1" /></svg>