<?xml version="1.0" encoding="utf-8" ?>
<svg baseProfile="full" height="112.54949339883493" version="1.1" width="127.84152464931354" xmlns="http://www.w3.org/2000/svg" xmlns:ev="http://www.w3.org/2001/xml-events" xmlns:xlink="http://www.w3.org/1999/xlink"><defs /><rect fill="white" height="112.54949339883493" width="127.84152464931354" x="0" y="0" /><path d="M25,25 m0.0,0.0 m15.858958765226722,3.9144342926745956 l0.4156298613259586,0.4545367875030119 0.6139019803276319,1.3675575396890942 l2.525188037512268,17.188992779993388 m-2.4636217672210377,-18.69588210246601 l26.343827992846833,-2.68611809983374 2.676144084240625,-0.040291325237303624 l1.1868771236512752,0.5282491110905821 0.7156288569315817,1.10531658767637 l0.05039475676937723,1.558097465770182 -1.5984558553867305,9.010300765115954 l-1.584533562865108,6.961599259488454 m-26.30952294034331,-8.14783679101119 l28.306853362928738,-2.1700282966255102 m-26.650031099045044,10.304373625761098 l24.549685018969196,-1.7542121020955832 m-26.553163639124076,12.877900048684161 l3.174590425782074,1.070500366202002 20.038410781504957,-2.12297303239036 l3.115630902167489,-0.05732522665827944 1.9703274115158915,0.33901628926476235 m-15.305879044904719,14.239143311336994 l5.785588730919851,-1.229988802712469 4.949539134875551,-0.2781740112578348 l4.006310458665274,0.11624399051531294 1.7247311800005538,0.2141616915461387 m-28.314887898504306,-11.631536577607415 l0.7540144033700789,1.0940116181245572 0.3106946090063527,1.2613756999673615 l-0.3188585045981807,17.743706208844984 0.25563195521130183,1.496897081220974 l0.4835859905546683,0.5850473770281278 0.6559696700680071,0.18926303348236598 l0.8881373758418055,-0.039273991394200305 10.871164542801282,-1.5214743382917386 l13.40696117036576,-1.287431731135747 m24.431538300695518,-8.31986601819671 l-0.30429460867592506,1.535521309501718 -0.8789766339648194,1.1949545078259702 l-6.508139058249039,4.2694096233985785 m-14.459490543781724,-5.262388278027729 l1.9329810434523402,1.018534088513413 3.4314223143657463,2.2363829209730786 l17.15213195815727,11.458789897714045 3.234323030776394,1.6439545914402187 l3.2746045751492128,0.8160222534292478 " fill="none" stroke="black" stroke-width="1" /></svg>