<?xml version="1.0" encoding="utf-8" ?>
<svg baseProfile="full" height="97.89033902370457" version="1.1" width="91.70222715782454" xmlns="http://www.w3.org/2000/svg" xmlns:ev="http://www.w3.org/2001/xml-events" xmlns:xlink="http://www.w3.org/1999/xlink"><defs /><rect fill="white" height="97.89033902370457" width="91.70222715782454" x="0" y="0" /><path d="M33.48792450869705,25 m0.0,0.0 m12.10498739504786,6.6888871840001425 l0.04088733453582205,0.4215313225629609 -0.9971307252123929,1.0983565145524163 l-2.9737700582941162,1.8366338830705016 -3.7200519417590985,1.7831610252525423 l-4.2622579183723435,1.717196726034283 m-2.21527608355752,-8.262865891513332 l0.5797370042233037,1.2365011175735083 0.05892498181333175,10.882099193291225 l0.36668240235241806,1.527361908125856 0.7377819614769165,0.8636694969131493 l1.3868083638238027,0.5666903718708582 2.27193882240473,0.2843912559256312 l9.48981374475639,0.059256525034481415 1.3304918864318966,-0.45379756279341915 l0.8144282992734749,-0.9776554699280705 0.23875822263335597,-1.4009562733726761 m-13.670471930911688,7.275784926722912 l-0.19480818426334348,1.7218477047941134 -2.0329109973535764,2.4249926454715864 l-2.78833615497924,2.475467456786895 -3.566513210626719,2.4312051359059708 m7.471497061959822,-8.94406298310562 l5.165848641039097,-0.9944602933029401 1.1689498014470623,0.11193759170556844 l0.33458097701423556,0.3136587646432651 0.11012118402559448,0.5476362608678111 l-0.13756102697770933,1.3047970151884998 -5.182973078909237,7.945977466054438 l-3.8914001024521947,4.426213576146858 -4.177994761930228,3.554031167728411 l-2.348706417356753,1.6133469409676056 m5.876300512570599,-13.63595581308113 l2.1184407645923047,1.5447938545626085 1.3559038367072263,1.6805051735470338 m-7.213206032645638,0.35052448879975484 l2.0269086868694908,1.722733246256613 1.5084482548631843,2.0606447371047167 m1.5411708048496757,-7.909114013989013 l1.7785093439584132,1.4202488766567607 1.441168210555879,1.8461337975963539 m6.135907854169887,-14.563113191501449 l1.7324033698369814,0.25579516479139613 12.546477092763157,-1.2454805728148914 l1.6683033751334841,0.10997149225368293 m-9.219246809196463,5.226683965330846 l0.3752965797732809,1.3940274229404992 0.04058817048588109,18.58151362024322 l-0.1084658902163876,1.7174814621323922 -0.4100065992540934,0.5884251848337733 l-0.601804007533459,-0.018192101944452154 -0.7183914501426737,-0.3934146435266454 l-1.58334373157121,-1.4433229499608815 m-2.6751035280387674,-12.074051684670223 l-0.0922531374789149,1.523901727677175 -1.0654861761766647,2.5451982750260287 l-1.584009915605582,2.6452614071521463 -1.7676677855285143,2.2749270350297315 m14.925389093272914,-8.744978570201472 l1.951426786858136,3.2484255600383185 1.228579019732882,2.8848411865060894 m1.755604972900081,-21.019737156728645 l0.5579798662189872,0.7833340087135326 0.21931375781483214,0.7996893426819066 l-0.014433522370964678,25.283142115694588 m7.138784149813288,-24.29566743360301 l0.6291252060080013,0.7434073567983834 0.20361603383531454,0.8486317016342483 l-0.004461120878571382,25.276609184329608 -0.11163169440813386,1.1326024474088054 l-0.32040434976669785,0.5435151583069172 -0.4825562242604675,0.12156345850380537 l-1.2334980385951524,-0.7712754676752578 -1.4222312133371775,-1.3974058524383148 " fill="none" stroke="black" stroke-width="1" /></svg>