<?xml version="1.0" encoding="utf-8" ?>
<svg baseProfile="full" height="107.48349307368562" version="1.1" width="104.86477053476905" xmlns="http://www.w3.org/2000/svg" xmlns:ev="http://www.w3.org/2001/xml-events" xmlns:xlink="http://www.w3.org/1999/xlink"><defs /><rect fill="white" height="107.48349307368562" width="104.86477053476905" x="0" y="0" /><path d="M25,25 m0.0,0.0 m16.00161873101947,2.5066514422271826 l0.4577056016680246,0.38621770605884537 0.7074848995811684,1.0447103714567552 l2.831458837776112,14.733322789659557 m-2.204489528760592,-16.083687889828013 l23.329538378806504,-2.191467427383995 1.4963864378009661,0.3789801366710955 l0.7235649592079841,1.1934343727317331 -0.09864960440560942,1.3411679548817907 l-3.388070501414915,12.24643287322898 m-21.230502605916904,-6.192052221305852 l22.559748343415833,-1.0610106694070875 m-20.789210437315077,7.776975425795183 l18.859281285521313,-1.2136368215297513 m-22.21927799060464,8.706455327771275 l2.988536775641396,0.13324642785927668 14.354171536640159,-1.4718003181553223 l4.482262344498386,0.05140088828391562 m-10.40153921180409,-5.557446769807718 l0.7091793680256367,1.0328144976236047 0.2147463996856225,1.0842952997689512 l0.02429609510750647,11.94638373670515 m-23.98191126625572,2.109844141053636 l4.704798477026815,0.35517008219423585 17.829919789991806,-2.374685839754717 l16.802861684194788,-2.0209110335850724 6.408738771459733,-0.5484929809843606 l3.6921229641773805,0.28900115326182213 m-7.886032601979864,-13.568824451354304 l-0.6571458027265277,2.2524937304887467 -3.126115499549482,3.419090654535405 l-5.647426580035557,5.092179135207917 -6.223696276550715,4.750435344078417 l-6.728903221857118,4.586055574436873 -6.005240327491341,3.7000613848947608 l-6.3487219240313495,3.5489560088771452 -6.821148596634929,3.4641461488453498 m16.74955221578178,-6.938746491243468 l0.518788666974222,0.9038111977979327 0.18073698810841776,1.0229046483278144 l0.6828331335341715,16.64961753330192 m0.022543104357778298,-17.362010976153154 l16.98610069496069,-2.243907991934937 0.9180179939768888,-0.020645782481999088 l1.2342515129594884,0.3740479738640683 0.41939569524210585,0.4134309235031007 l0.29271546275229887,1.4121168155900536 -1.071558580180974,16.997173905961766 m-18.39973035206335,-9.262566010948452 l18.57329676842472,-1.5867225307047843 m-18.243125151051373,9.886411333199904 l17.388548847833185,-0.9320374789673987 " fill="none" stroke="black" stroke-width="1" /></svg>