<?xml version="1.0" encoding="utf-8" ?>
<svg baseProfile="full" height="96.0143532383329" version="1.1" width="93.66712927653764" xmlns="http://www.w3.org/2000/svg" xmlns:ev="http://www.w3.org/2001/xml-events" xmlns:xlink="http://www.w3.org/1999/xlink"><defs /><rect fill="white" height="96.0143532383329" width="93.66712927653764" x="0" y="0" /><path d="M25,26.12880162178069 m0.0,0.0 m6.822470712481296,10.570156082005106 l0.24266420642260866,0.3541389523083808 0.26367646467368333,1.4581726582923606 l0.019175077611910975,24.058270193768607 m0.4268150336857671,-26.070243683088158 l7.103314011720548,-1.3186932509463045 0.5717744422461648,0.030228175877329046 l0.7166894670465265,0.39359553725291796 0.2723078816595414,1.0797013083864555 l0.006572552921375236,24.822877139461912 m-8.313859014445578,-13.67943866368372 l7.663903884490867,-1.0076963925350468 m-7.633593785618597,13.266587201822698 l7.752901993592697,-0.9626580333767563 m6.6750169298234105,-25.478650567707753 l2.1887983628158523,0.13335454198621272 10.378177218790961,-1.8834618835264407 l2.4894931646933145,-0.2553270382580856 m-8.211888879988173,-6.639713899820408 l0.5040983851732919,1.1096503784646832 0.12143720546752002,0.9907109340492494 l-0.020532516016960062,12.142830371624038 m-11.095984739085845,5.424709738626598 l2.4712411742894167,0.1681810004748147 17.215015209032842,-2.3790249085704196 l1.9634273837120242,-0.12443353286359408 1.5829114752643665,0.2295371296749695 m-18.19721063483182,-4.009169770557195 l0.4458035531914685,0.9131820836692032 0.13432596697995997,0.8789668552195473 l0.3099911264196072,12.195682643266483 m10.598365199420343,-16.022691066795506 l0.3358602775113518,0.9618843733993219 0.008269723283662572,1.0279615570725138 l-0.8142591641415143,12.610231129034572 m-14.996276686385928,2.4972392629182276 l2.923290262223687,0.05485989640898109 15.121408649468528,-1.94280734165992 l2.6586104119464524,-0.03781015514990912 1.548755271174251,0.23406130273381018 m-16.170616521819596,3.7407664840652948 l-0.1299786389321061,1.5739637908412647 -0.560173128299953,2.0075596509890716 l-0.9951778258628113,2.4374218171135453 -1.3932189230038696,2.548596324636744 l-3.012395629031203,3.912389959824561 -3.314403856594401,2.8699033298219643 m16.14563751421981,-16.93616303238457 l0.28948294522621343,1.193936223178711 0.04635839584529268,11.230846514412299 l0.3165353010018288,1.2797140292227067 0.5069503112370293,1.5133549546267224 l0.8109839371816535,0.9061828245785695 1.31719315084921,0.524656427828398 l2.5915257880878184,0.1349880710851061 2.0316257177464068,-0.24304952921852963 l1.4799382897512086,-0.42426596013486506 0.7965337599977083,-0.5714659881283881 l0.4913720188624689,-1.06718374764494 0.16599941135402688,-1.4977563617229173 " fill="none" stroke="black" stroke-width="1" /></svg>