<?xml version="1.0" encoding="utf-8" ?>
<svg baseProfile="full" height="95.05595369987685" version="1.1" width="100.25864229006314" xmlns="http://www.w3.org/2000/svg" xmlns:ev="http://www.w3.org/2001/xml-events" xmlns:xlink="http://www.w3.org/1999/xlink"><defs /><rect fill="white" height="95.05595369987685" width="100.25864229006314" x="0" y="0" /><path d="M25,25 m0.0,0.0 m16.126870429325816,3.140476650275353 l0.31360335163630193,0.3889291919733685 0.8924561966644989,4.694870009878765 l1.130588355801359,11.130011705050253 m-1.320133177282782,-15.990843004136686 l22.23338993012747,-2.1391645896998157 0.8093408903104895,0.022890557830003332 l1.2978190118841548,0.36551794048750896 0.6163829841718342,0.7809330606430661 l0.03898314560614951,0.8484923871300816 -1.1567305037188074,7.384972327639702 l-1.4438365321993523,6.697038630796876 m-11.27839605330014,-13.93537839434177 l0.5158986772071147,1.246952843385392 0.08355695861840991,12.448203114241727 m-10.77159854853568,-6.162538614757575 l17.18194931806188,-1.5909086164469701 m-16.398563264788155,9.153295965825263 l20.703221497522772,-2.0196544058057055 m-14.392034947265481,3.2758543328688154 l-0.08327384241389299,1.6524421388699546 -0.565136607348256,1.9297500086232326 l-1.284247192094188,5.702472879372893 -1.2358386454032637,4.522251262936588 l-1.2694727637903869,3.6988498439714634 -1.5598402057461036,3.4904592466558664 l-4.197743202768423,3.3865775153124202 -2.5305165682645607,0.9331997112967773 m18.639643010430767,-24.05766317541308 l0.5095440114649427,1.081763454672901 0.17604827510275986,1.040681870159152 l0.25540818634201534,16.919641443758724 0.9894514174844227,1.8943238565228377 l1.5218483323592924,0.8505073302642397 2.2081045784299618,0.397603232201265 l5.2894659156021495,-0.06766815475328887 4.3509605425969,-0.5328413222188327 l1.873437403916887,-0.585647094273046 1.2241400384826686,-0.7634093926936001 l0.5297260567170293,-0.7098404486693913 0.2341658291145532,-1.046746049835963 m-10.560274337613128,-15.687615967253947 l0.007758191382955582,1.5138405649063171 -1.0609076208362511,3.964536930571686 l-1.1853491298405838,2.7881070772406904 -2.053419205645074,3.403761023612556 l0.12872304344417662,0.45354083045299737 0.9196168701315218,0.087263442351559 l7.808372780499862,-3.0300159688173482 m-1.3647611898368521,-2.94420074564251 l1.5933812656370419,3.3018773101296177 0.9819282905628779,2.8274051788180987 " fill="none" stroke="black" stroke-width="1" /></svg>