<?xml version="1.0" encoding="utf-8" ?>
<svg baseProfile="full" height="107.15504430516519" version="1.1" width="98.1824357937204" xmlns="http://www.w3.org/2000/svg" xmlns:ev="http://www.w3.org/2001/xml-events" xmlns:xlink="http://www.w3.org/1999/xlink"><defs /><rect fill="white" height="107.15504430516519" width="98.1824357937204" x="0" y="0" /><path d="M25,25 m0.0,0.0 m9.189397454996712,4.382812908224143 l0.4193866951266773,0.40949439914522195 0.7033693227458865,1.6523655070584937 l2.681976463171425,15.971463268155413 m-2.6232031214672378,-18.151394700233357 l28.063152915619103,-2.823865023240034 1.3752641797122835,0.2467160992861779 l0.8919365491770356,1.435427067683298 0.013098394400795669,1.8034651257121455 l-3.8007440748598125,15.082000947472634 m-24.401421259635082,-7.496575597109764 l25.76742242976295,-2.390366298728012 m-24.635021777572636,10.373202791192577 l22.656857277838476,-2.0918349870270143 m-33.88809729284706,9.632935997544438 l1.904570587848104,0.4210367140644232 2.3864753994130106,0.053448607798451606 l31.767138861839353,-2.8671364675611586 6.443807260516204,-0.31736463568411794 l3.2670695279342414,0.3021617248557513 m-24.016125254221812,-20.86992708672258 l0.6542520511233374,0.843661470948206 0.361433735480132,1.318339719264662 l-0.15068873602463514,43.692016714184206 m-1.9858258780020068,-22.216475821621703 l-0.659225389845019,1.6780391862632908 -2.1270788902117284,2.5668964244161954 l-3.2537269987389066,6.026090291899459 -2.7643246073144656,4.442541383380645 l-2.274721705838445,5.530872343371533 -3.689491603149452,4.860184620212021 l-2.5367116847906392,1.9827100969754778 -2.9361925752218814,1.6721015139840734 m22.61036523020378,-23.309631753687427 l16.931309852421226,16.327760049539933 2.256577593563125,2.001639173460132 l1.9325732599843504,0.9485916669975583 " fill="none" stroke="black" stroke-width="1" /></svg>