<?xml version="1.0" encoding="utf-8" ?>
<svg baseProfile="full" height="108.62223728060093" version="1.1" width="102.42512345537557" xmlns="http://www.w3.org/2000/svg" xmlns:ev="http://www.w3.org/2001/xml-events" xmlns:xlink="http://www.w3.org/1999/xlink"><defs /><rect fill="white" height="108.62223728060093" width="102.42512345537557" x="0" y="0" /><path d="M25,25 m0.0,0.0 m15.016244291465668,4.593164411143626 l0.415008246213071,0.3829546843883309 0.6059363493177006,1.348723407702131 l2.251428954100733,23.5691087573693 m-2.100975546245271,-25.222853824686727 l24.25665622256669,-2.355072431331281 1.4376628367453061,0.009058884911163334 l1.1906405908686657,0.5005084796585254 0.7007076683337511,1.0711861028860208 l0.083644068164181,1.5034140305688053 -2.876783161802129,20.769808983595784 m-22.973754949881435,-11.079837968058856 l23.985454071143042,-1.919605452814912 m-22.690439859688432,12.2783006483342 l20.92534059165658,-1.7203496557089515 m-33.02328564423311,13.884185504444924 l2.1091121608108505,0.3803930218335539 2.6943682220036034,-0.01936946049514515 l29.924766759174236,-2.8646870680665453 7.505916387522647,-0.27990467055912555 l2.987475197139225,0.28359717798446626 m-23.3871837370895,-9.365261920553905 l0.7136139104427697,1.0421079668662308 0.2790667008643348,1.898781850031241 l-0.08585261194611957,29.933885821158075 " fill="none" stroke="black" stroke-width="1" /></svg>