<?xml version="1.0" encoding="utf-8" ?>
<svg baseProfile="full" height="108.85390065696768" version="1.1" width="108.57700032444342" xmlns="http://www.w3.org/2000/svg" xmlns:ev="http://www.w3.org/2001/xml-events" xmlns:xlink="http://www.w3.org/1999/xlink"><defs /><rect fill="white" height="108.85390065696768" width="108.57700032444342" x="0" y="0" /><path d="M25.199946934227988,25 m0.0,0.0 m11.14903712836758,3.643592294595779 l0.45249033277685935,0.4400345803712837 0.7458522789584173,1.4900845861270535 l3.2455887113160378,18.41968680529454 m-3.0942236847859843,-19.94257978191988 l30.78582636153822,-3.087626105889524 1.5555960469744459,0.0980924175874641 l1.2361045063080685,0.4096313648447282 0.9251206139975832,0.9479618264115564 l0.23358705419804676,1.096049932085134 -4.650301207186539,18.230303047413226 m-27.820916550171912,-8.415634962443734 l30.123332305849864,-0.22019801169343614 m-28.058841676137025,9.813357889597816 l26.573415070918166,-1.1119210974011562 m-41.67920731044544,10.707916085923474 l2.37872315327123,0.4254337262068162 2.8154334459276407,0.06055529487811115 l37.16844468676417,-2.953621734788893 8.630135019262685,-0.43486336344957205 l3.9856601716306455,0.30199326460752257 m-28.799058495345193,-23.545290930041983 l0.9218729248357529,0.8157047482652339 0.5384341884335434,1.3548547093911851 l-0.18846979504492198,47.16918089136606 -0.3249562978329532,2.166484579184513 l-0.6570254112742898,0.9427773716552008 -0.86394503331876,0.031941228789164645 l-0.9394840327448158,-0.5723198959617128 -2.2584658680366223,-2.3170421330810633 m3.467773889650083,-22.879354709252706 l-4.5388186200847285,5.359341718097884 -7.455809592195329,6.528324740276304 l-8.428919082111305,5.761016462944209 -7.373932168491211,3.690237216445674 m30.01391110967867,-22.084740407865908 l23.659634371442372,17.35137907742894 2.6281347276690474,1.5391493777817917 l2.275320115653314,0.6407096796737324 " fill="none" stroke="black" stroke-width="1" /></svg>