<?xml version="1.0" encoding="utf-8" ?>
<svg baseProfile="full" height="93.31668377951675" version="1.1" width="99.92252863042755" xmlns="http://www.w3.org/2000/svg" xmlns:ev="http://www.w3.org/2001/xml-events" xmlns:xlink="http://www.w3.org/1999/xlink"><defs /><rect fill="white" height="93.31668377951675" width="99.92252863042755" x="0" y="0" /><path d="M25,25.297992936620076 m0.0,0.0 m2.9070631475610647,9.15654663536313 l0.26914803746005883,0.35790878494885564 0.33346819529967436,1.6357981939056154 l-0.009673206759885311,25.16226822677173 m0.5266109035730638,-26.969507340160565 l8.32244123799177,-1.2368237033742253 0.6347034776234678,0.05608346616283497 l0.7556172851012313,0.6485261718624141 0.17804411723859664,1.1776537894219934 l-0.014098456138996681,25.67807185881515 m-9.695424829022695,-14.311256461233436 l8.8634000646898,-1.1110362443088062 m-8.809808440232455,13.828160786627675 l8.96179911313849,-0.9955581543507642 m20.60490290311724,-33.374828947071684 l-0.09446603096724988,0.6276519742698964 -0.5160536041465175,0.7288039582534863 l-2.3962903045768713,1.77592838451375 -4.1131692047139286,1.9117494934852233 l-5.1880903081995156,1.8653569266642833 m-2.3703656666245654,2.328161279368105 l2.2261820794026934,2.2806579540462955 1.1483545747895423,2.149946656304864 m4.965444674230188,-6.330935968971095 l1.5180323160694094,2.1662606925623336 0.9759531127138324,2.5279207874859764 m10.737091854067648,-8.23360477088273 l-0.3064959634845323,1.3249733300616557 -1.2503041381078939,2.2224095608584236 l-1.6392914612535032,2.1344320150798315 -1.74206197685607,1.6920796910873295 m-15.415022889867029,5.607663984972208 l1.593165890137244,0.31888974919992336 1.5089721185139076,-0.03750817989880681 l12.460538392866322,-2.1502684154087177 1.1251284631877858,-0.058902094160601576 l0.8301331294539074,0.22360410046725232 m-20.08618215734173,8.882212242480522 l3.2706284298463277,0.0816016675169701 17.250831866414085,-2.2758203554224616 l3.1224086468338927,-0.2719642040611128 2.029019545728016,0.18348403310332134 m-14.628398350308522,-3.476822960371552 l0.08207072411553167,0.8410903342988304 -0.20198614395771594,1.11728317531599 l-1.473220213750623,4.306464238797159 -1.7526169445027944,3.9079814897984737 l-2.2881985260245035,4.105790139549164 -2.248139086769005,3.2758080077527167 l-1.904002813490975,2.3912362133414566 -2.9691979812704803,3.0699439171515652 l-2.447380947265615,2.103124730906828 m11.950778891982313,-11.81608757914249 l1.7770034974877629,-0.11858555112251867 8.695593322571597,-2.317441244555495 l0.5426448857320691,0.3419325605076546 0.20025019718009796,0.5318907359145753 l-0.3971924939462291,0.6912213537666968 -1.4800703388239216,1.687239232819367 l-4.387125025164201,2.1408430018939257 -6.832783844048854,3.360637081944401 l-7.117845079191168,3.1396307120160163 -5.680201298572944,1.9683993289579607 m7.983580935156176,-12.32806107779803 l13.914383070483886,0.5962669762825126 11.499104483363128,1.5168327574877367 l5.613192770686741,1.6290731165088597 " fill="none" stroke="black" stroke-width="1" /></svg>