<?xml version="1.0" encoding="utf-8" ?>
<svg baseProfile="full" height="105.5508157498231" version="1.1" width="111.26332717939422" xmlns="http://www.w3.org/2000/svg" xmlns:ev="http://www.w3.org/2001/xml-events" xmlns:xlink="http://www.w3.org/1999/xlink"><defs /><rect fill="white" height="105.5508157498231" width="111.26332717939422" x="0" y="0" /><path d="M25,25 m0.0,0.0 m5.1447946798755995,15.577982603376261 l0.25138727929365773,0.44887759392405724 0.40820409922879947,1.4518621523872435 l-0.006197820962483742,26.57942368759297 m0.3766837322166054,-28.91202956371617 l9.537166310886946,-1.7388587955570856 0.6644812138622764,0.05976578079772876 l0.8229521750709503,0.7912068976816263 -0.21156631419278984,27.56005798293825 m-10.745975084922174,-13.53907624246801 l6.760178666087688,-0.9605258646867754 m-6.510861825858852,13.89402540476615 l10.271303988202197,-1.238229701280928 m7.753138937714968,-28.33305985456678 l11.038870783902032,-2.293998872280494 0.7417225195870045,0.09171180680543171 l0.4685848603647562,0.3919376199197581 0.16790756466895154,0.5469830093399349 l-1.9089876377306285,11.23321117862632 m-9.71844325479097,2.0200072428280085 l11.096648637914784,-1.668955351764342 m-12.739344504366567,-12.213417937599887 l0.9199834515215943,1.1403595278101437 0.3160083156453229,0.8854921910601506 l-0.14949232509178245,41.41989157686358 m0.08239213944115133,-20.618676986084882 l8.866883380849849,-1.4670335742247298 2.0610153268213383,0.02878080596181166 m-10.670072275935564,11.236355900278614 l9.03539287738891,-1.4342969608292033 1.9469689829215922,0.010506651200267563 m5.008109312027282,-30.999788051029046 l3.7079585257726726,-0.11295207100784817 9.125410346661319,-1.6575483771014432 l0.7995066124250036,0.4096143462680541 0.26488091541136477,0.5995609918484117 l-2.434721204866147,10.556460396167077 m-12.150159643384644,1.9736318118198843 l2.038428915873568,0.03713255552001697 11.617803619466596,-1.8320656124374926 m-15.039509926590819,10.653094568677057 l0.8143051215869458,0.2358067378449564 1.4378237156265212,-0.07129813881565682 l11.030602370041873,-2.225757232765577 0.7008099995182976,0.04566521988999342 l0.5300728058749612,0.4275452494727894 0.28059664302440623,0.6470476922730961 l-0.05995096362051156,0.6993519690843927 -1.4020766750456983,3.3322296896662555 l-2.21594023645485,4.263386894422606 -2.5318242861984768,3.9145548524891964 l-2.764239970808114,3.5137516715862604 -3.0397232926426625,3.2072815541081576 l-3.189557132402144,2.789382404640872 -3.3045573289899286,2.353616005503034 l-3.351747501612713,1.8408307125990266 m5.0372044852994575,-19.95285451397857 l2.8580886866711164,1.9050588873344072 9.857251517987889,8.800485468704686 l5.1382040259721595,4.263696012650775 3.807870318994524,2.5975898609042614 l2.6206785241597883,1.1387968064339775 " fill="none" stroke="black" stroke-width="1" /></svg>