<?xml version="1.0" encoding="utf-8" ?>
<svg baseProfile="full" height="114.90505808803836" version="1.1" width="106.97872115575979" xmlns="http://www.w3.org/2000/svg" xmlns:ev="http://www.w3.org/2001/xml-events" xmlns:xlink="http://www.w3.org/1999/xlink"><defs /><rect fill="white" height="114.90505808803836" width="106.97872115575979" x="0" y="0" /><path d="M25,25 m0.0,0.0 m21.486708281266818,20.604418046017216 l0.3506436078070661,0.405794705307949 0.4786323990318643,0.7742259130301956 l0.2474562923738207,0.958882276653629 -0.06127805123739188,20.382892546907 m0.7665802783928072,-20.965463336778402 l6.192088527408745,-0.7214495762007429 8.715257704382168,-1.7113083090169037 l2.7354664616250703,-0.02121290007628834 m-17.674372444000486,9.706535022474327 l14.74121039991049,-2.2086454209704005 2.337232744847353,0.061268242257062525 m-17.090662432978235,9.148430269841983 l14.62158806530836,-1.9829845940617652 2.48085454324427,0.06817754853896835 m-30.186965073460208,10.975469593458952 l2.0375973970920604,0.2618041152719906 2.1374311897145213,-0.13458588777682484 l32.2776403309241,-3.6876114278081027 5.7593050506597265,-0.4058180699022604 l2.5764319322830658,0.25430694042605617 m-35.02010423143133,4.73878204175195 l0.5257852455845591,0.6011343851119925 0.35561383014506703,1.3279826255983864 l-0.2900367131105204,14.852852722089338 0.21526995358817347,1.0467244346517706 l0.35966156946247524,0.4764887357467081 0.46902901142434145,0.09796744549455882 l0.6211334530057272,-0.27610390139148067 10.900050760967046,-6.692648995621387 m11.438450662424584,-14.67117818339337 l-0.1766046733617867,1.2819586493870732 -1.0341115063412134,1.2791579779991635 l-2.3070956600148778,2.1487435126854524 -3.075974185030187,2.374315887789155 m-9.822596703308323,-3.5104622521818105 l2.364733336406041,0.6672865240825943 3.12817046078404,1.7228509552455908 l14.203646851354398,10.366127621022311 3.9751309645028674,2.4523516924940245 l2.3375424420954416,1.04397544695634 2.8821790820172852,0.7704905222339886 " fill="none" stroke="black" stroke-width="1" /></svg>