<?xml version="1.0" encoding="utf-8" ?>
<svg baseProfile="full" height="108.61762209517566" version="1.1" width="104.06898283598721" xmlns="http://www.w3.org/2000/svg" xmlns:ev="http://www.w3.org/2001/xml-events" xmlns:xlink="http://www.w3.org/1999/xlink"><defs /><rect fill="white" height="108.61762209517566" width="104.06898283598721" x="0" y="0" /><path d="M25,25 m0.0,0.0 m5.377592447588997,11.670500602343559 l0.2805109826032193,0.42143933743847906 0.3174102104236137,1.6010602813948018 l-0.011953918437804594,30.548357092892175 m0.5025997534097296,-32.61976774486543 l9.342124333256839,-1.9063096185933688 0.6044713712536697,0.0744142501352568 l0.6959219485469864,0.796494698416243 0.13661325640851507,32.90407828920083 m-10.621690371961718,-17.45525182794326 l9.92913643300511,-1.4185074881193205 m-9.769470132902178,16.323904289193464 l9.825378468013403,-1.2909253843884205 m13.990706959289069,-35.59907047579536 l-0.2935018387780991,2.089785176355461 -1.9298469302159182,4.315581626133254 l-2.441633570140643,3.7643538123909868 -2.870630846812135,3.2701684175778225 m7.146208730467976,-8.742572566145745 l9.97946070266253,-1.8040892174125966 0.7060255427774054,0.1989402519725772 l0.45131403863319697,0.5829027489117262 0.19643532530819993,0.7306364780374354 l-0.14358632919456785,0.6286179984441788 -7.521919849135961,10.498204126179559 m-9.371456410001722,1.8294619584859664 l0.5196235719829304,0.9323713580262077 0.2995688236149972,1.2890062285815014 l1.5199085666992085,11.852591219343743 m-1.2391035649122444,-13.17024197706883 l16.78616851560566,-3.3291648576034514 2.4280170157087593,-0.3794248913311369 l1.2873958782221684,0.10637115833595862 0.8881769493733489,0.7855743730284301 l0.30097945835453316,1.4785321193232372 -1.0139824301843026,6.005016734115195 l-1.5343604673866058,6.286216159972212 m-10.201487236223343,-11.233187694848782 l0.6466609386633069,1.0094123416631686 0.23357919287883527,1.220258708043148 l0.0009997834120028966,7.819443778056113 m-8.027628674257508,1.9969974705695306 l17.249723852677477,-2.3005752472170173 m-14.305553293842888,4.75829123595948 l0.02858218224361389,1.6374278713503645 -1.0309689525494354,2.7316201063612593 l-1.9446939568859123,3.6678591376131573 -2.246126140511586,3.4123947947004227 l-2.264240174382304,2.8854957057845665 -2.7344380946159323,2.894066641942064 l-3.222939192679838,2.831468349807107 -2.7169661389893354,2.017394158427732 m23.52235742814054,-23.745565966578457 l0.49813816923667353,0.9071407647676468 0.21212855822159166,1.1033726677091742 l0.03863962277035599,15.93395290433428 0.40763354084530584,2.0224720218769687 l0.5240924956405687,0.9803013610466058 1.2760927680489125,0.9056579637471845 l2.0656429694177936,0.48402978233149374 4.374635723452018,0.13608044870743707 l3.8990814662623805,-0.3912761813351843 1.2039727150711872,-0.5181381578942876 l1.1989381595489181,-1.0698354534066867 0.5129125410416766,-1.426621484268028 l0.12159996020595668,-1.8810392110565768 " fill="none" stroke="black" stroke-width="1" /></svg>