<?xml version="1.0" encoding="utf-8" ?>
<svg baseProfile="full" height="103.65966857748441" version="1.1" width="124.77727667363293" xmlns="http://www.w3.org/2000/svg" xmlns:ev="http://www.w3.org/2001/xml-events" xmlns:xlink="http://www.w3.org/1999/xlink"><defs /><rect fill="white" height="103.65966857748441" width="124.77727667363293" x="0" y="0" /><path d="M25,25 m0.0,0.0 m8.366740909727326,4.134059375427079 l0.4128200755785748,0.44034691455673763 0.6847641501015034,1.24077705999589 l0.1941168401840996,1.17184751996756 -0.1354415405942969,46.672637707537135 m0.45518545866557614,-49.91919092984539 l33.493453282460365,-2.4490452352411367 4.539349343523645,0.14853229634965034 l1.6975332181758451,0.9057489738877494 0.6630312959915943,1.3072007435948374 l0.08171627582500002,47.102047078931776 m-36.95145362160871,-33.43279376984873 l2.8503987475896633,0.04515672576208685 18.384599696403175,-2.16190874031968 l4.518697402581482,-0.3139285769820383 1.9363705658836583,0.15375005328190633 m-28.985481001336144,11.112741276433425 l0.7760368401935127,0.6840897531467423 0.3744079586398831,1.0484562769047265 l1.7838476630867754,10.544750127601558 m-1.3558670070299899,-10.962834349137662 l18.058625421503017,-1.8364200109167832 7.298340146862337,-0.4310488859323558 l0.670013806062173,1.0853031612814363 -2.586612646183956,7.583977625960624 m-22.39546952625175,2.4520174377622133 l24.258568297716756,-1.9830093509467612 m-26.033499952956767,9.140350554596838 l2.4851847368331996,-1.1545057265015155 10.082928596247088,-2.429980015009959 l2.787622033404107,0.055832567092730274 m-18.12340920197491,1.4227339006764417 l0.7333024335597378,0.8112495138126582 0.24908961827380893,0.9736823105854092 l-0.004935328979096699,8.999875703022775 0.5860169626649812,1.2081044160742571 l1.053156070276301,0.01831430654849278 1.2890775851332417,-0.33442856120475917 l9.756034064859017,-2.049363542480218 5.558757819225076,-0.5697436614552667 m3.6026522541014065,-11.826961952702431 l13.368574564784522,0.3831011710580859 3.574236608242213,0.2351496407717056 m3.5288755803746272,-5.758479158932173 l1.9084502587500118,0.6612741885597517 2.1273684104872146,0.1548845105539451 l11.545483187843574,-1.8055352196116727 1.6441631298387296,0.06927694244749548 m-14.624463469861091,-6.177842054413671 l0.796098203919137,0.73492035132144 0.42419432613912084,1.2155184952287585 l-0.1305609835579891,16.517217476268286 0.17575761288186864,1.3777777452929223 l0.5333400558296257,1.1616034372105877 2.676444358887445,0.9128033795434929 l5.368644514490929,0.07299439358741458 6.101970587942016,-0.3555072479102915 l1.574079930567656,-0.4317684230456764 1.0743500516550082,-0.6996131617074809 " fill="none" stroke="black" stroke-width="1" /></svg>