<?xml version="1.0" encoding="utf-8" ?>
<svg baseProfile="full" height="93.2822096706203" version="1.1" width="100.83676110088189" xmlns="http://www.w3.org/2000/svg" xmlns:ev="http://www.w3.org/2001/xml-events" xmlns:xlink="http://www.w3.org/1999/xlink"><defs /><rect fill="white" height="93.2822096706203" width="100.83676110088189" x="0" y="0" /><path d="M25,25 m0.0,0.0 m12.370757359068264,4.483949342489606 l0.033914356285854985,0.4408494955949236 -0.6868066908505203,2.178098432411064 l-1.839045678021809,3.150989072729363 -2.126949723294246,2.5754064625119093 l-2.8700779807104535,2.5202732279773814 m7.15026052080274,-5.534358323845493 l2.2529532364035165,-0.3679059689182912 6.120634291464226,-1.602913852871073 l1.806742719587316,-0.003853223645678206 0.2798046713693706,0.34618964094065485 l-0.07698349596290978,0.5617071570764162 -0.3519313813953643,3.766140394684139 l-0.8248391423936503,3.4216770308414377 -1.1540777345641335,3.037133772638635 l-2.5162797197546194,2.827060528638734 -3.5814086578756936,1.5978022226196842 l-2.2356426400574922,0.681183982654392 -2.431802156118591,0.33347112348197205 m4.615149213490822,-10.883488440224452 l1.288100566061641,1.3873827406968846 1.036667482834398,1.9336070487715988 m-6.003676921639546,1.0204021133680228 l1.4989616633088256,1.5100237275603512 1.126558980236782,1.7540063365145848 m13.80005147799427,-6.778713758324223 l-0.2669923850656374,0.201147220398084 -0.5650993094845489,1.1826959072774117 l-1.3741243800707483,1.9171908812989658 -1.5523187434637116,1.6084870383543344 m-3.7633113999768346,-3.086824687419659 l1.755353279145341,1.171658913268463 6.76184793425256,5.456291769056578 m11.685739921714498,-13.43389994501436 l-0.2536459921001607,0.6390840672949241 -0.5599226063567058,0.7670375864940404 l-2.7037967435395127,2.9458396762821164 -2.406120494743377,2.2557218044716807 l-2.930928667686834,2.279233843023364 m6.265559575773905,-8.903455245150692 l1.2358728973699702,0.16859575570849128 1.6028968743709382,0.8030546488081036 l7.987220757960576,6.44658532997753 1.7551912360160506,1.19763886987053 l1.482304730497102,0.5120931337231414 m-24.051605863473586,0.803991747778687 l0.5406042726017624,0.6824461543656497 0.1701352297358923,0.7393947093091859 l-0.11619877802734123,14.058628919963642 m0.3240959551732301,-15.231629649560828 l12.61072538452441,-1.2212784820840854 0.6533481692602257,0.041358240771358655 l0.7293179423792819,0.34746006598842094 0.2878133960181654,0.8058173868332249 l0.03044462678562224,14.576797074449134 m-14.179360494860921,-9.298610725697698 l13.561369028021785,-0.9926299331797406 m-13.53728925684116,5.555611112777227 l13.534721128176402,-0.8163932459470782 m-13.615278920821874,5.668840024934408 l14.072128050790283,-0.774934692864794 m-11.96588006266813,2.97244641670791 l-0.2176236380035756,0.9156678996484087 -1.081322191658436,1.0590591541077525 l-3.4805971336951496,2.2827620720613426 -3.4248883140684008,1.7747700676521885 m17.904099582174418,-5.3337424733593695 l2.254132531944219,2.532451052829064 1.4731660787134588,2.116189442887967 l0.8519248134317904,1.533440476152739 " fill="none" stroke="black" stroke-width="1" /></svg>