<?xml version="1.0" encoding="utf-8" ?>
<svg baseProfile="full" height="108.98324624699157" version="1.1" width="104.21327902990328" xmlns="http://www.w3.org/2000/svg" xmlns:ev="http://www.w3.org/2001/xml-events" xmlns:xlink="http://www.w3.org/1999/xlink"><defs /><rect fill="white" height="108.98324624699157" width="104.21327902990328" x="0" y="0" /><path d="M25,25 m0.0,0.0 m16.51998869724865,11.388676165868846 l0.4169888423384678,0.34571277940249096 0.6288969991315665,0.8868266461104626 l2.487571785320303,12.081312099315156 m-2.025143820368178,-12.93059308304227 l22.022501248123735,-1.9484111500967811 1.4321045747457346,0.2305562859714414 l0.822769135325532,0.8342078013685603 0.05019657036343385,1.3815081745986917 l-2.999263635979794,10.052486464804426 m-20.697020681273386,-4.959663968780411 l14.271199649554895,-0.9552627728760763 m-12.127866990585675,6.773091033114828 l18.368380917383064,-1.4102086597122334 m-21.09937385591196,7.799757032457514 l2.751672289668018,0.07448001276606601 12.915233270475381,-1.4572513669884761 l3.0955627955417913,0.05389911600649659 m-8.686920867467457,-4.709906224706116 l0.7218878020941157,0.9522654121477255 0.12354574050085089,0.6795685966573312 l0.018369567665066963,10.494801295525635 m-22.85303793530382,2.017006297977231 l3.4344902851722727,0.3319835919106003 15.92826968403863,-1.4853895257928036 l19.749287413554356,-1.7500208729031146 6.269315481554095,-0.3769256480360631 l2.6736740669935766,0.32893962917475267 m-7.922762618610723,-12.266931274301665 l-0.6550628404500456,1.860415857262542 -3.072311654929866,3.0230065088048046 l-5.154711032764339,4.407953423424025 -5.719564327107037,4.19863928473974 l-6.107135158602111,3.8553105843176305 -5.52461776882978,3.11976399578644 l-5.925137292335912,3.0229492966135276 -6.411468837053034,2.9823527066348725 m15.85049700182876,-5.9489067715302895 l0.4584719919318121,1.1204454388746679 0.8665029682432981,14.884802034121364 m-0.48175380422520203,-15.669979960115088 l17.416743456879907,-1.9815583473879186 0.8108933826833584,0.07404478319502268 l0.5172489215864708,0.319266680945212 0.3749621934586753,0.6981947728135351 l-1.1408525599168917,15.254299333966168 m-17.38161834425834,-7.9759875026025755 l11.700930772367212,-0.9226285144581026 m-11.182206343809428,8.578265511001193 l16.11365815793679,-1.253731435039627 " fill="none" stroke="black" stroke-width="1" /></svg>