<?xml version="1.0" encoding="utf-8" ?>
<svg baseProfile="full" height="109.4925112859346" version="1.1" width="102.96787043334916" xmlns="http://www.w3.org/2000/svg" xmlns:ev="http://www.w3.org/2001/xml-events" xmlns:xlink="http://www.w3.org/1999/xlink"><defs /><rect fill="white" height="109.4925112859346" width="102.96787043334916" x="0" y="0" /><path d="M25,25 m0.0,0.0 m13.768559694290161,2.1674005687236786 l0.3289724141359329,0.5950604379177094 0.49998123198747635,1.8574315309524536 l2.760642170906067,17.742433547973633 m-2.307991534471512,-19.074044227600098 l9.376801252365112,-1.6091550886631012 10.420749187469482,-1.3690319657325745 l3.777413070201874,-0.31009458005428314 1.5129052102565765,0.2569313161075115 l0.5258207023143768,0.34820571541786194 0.5236464738845825,1.2613676488399506 l-0.028640839736908674,0.9626666456460953 -2.555055320262909,16.94801688194275 m-22.11390495300293,-7.89400041103363 l13.902137279510498,-1.6799837350845337 8.95099401473999,-0.704021081328392 m-21.471681594848633,11.378064155578613 l11.086721420288086,-1.4133939146995544 9.039633870124817,-0.7307594269514084 m-34.530231952667236,11.271026134490967 l1.949416697025299,0.4138496518135071 2.7575480937957764,-0.02850495046004653 l19.021196365356445,-2.5895917415618896 14.920997619628906,-1.529211699962616 l6.85172438621521,-0.3396134451031685 3.999515473842621,0.36693722009658813 m-25.860209465026855,3.3984339237213135 l0.6930664926767349,0.989091545343399 0.3344288095831871,1.5798035264015198 l0.0,19.008818864822388 m0.9245345741510391,-12.148733139038086 l13.43384861946106,-1.2878760695457458 2.2541384398937225,0.2534661814570427 m-29.456663131713867,0.602753758430481 l-0.06849759723991156,1.7266452312469482 -0.5499041080474854,1.669112741947174 l-3.052402436733246,5.505396127700806 -3.9038506150245667,4.901638925075531 l-4.927394986152649,4.427329897880554 m10.446839332580566,-9.93306040763855 l29.730610847473145,10.561904907226562 3.6810794472694397,1.1112645268440247 l4.095179736614227,0.8285355567932129 " fill="none" stroke="black" stroke-width="1" /></svg>