<?xml version="1.0" encoding="utf-8" ?>
<svg baseProfile="full" height="103.40798464426075" version="1.1" width="106.18872665671813" xmlns="http://www.w3.org/2000/svg" xmlns:ev="http://www.w3.org/2001/xml-events" xmlns:xlink="http://www.w3.org/1999/xlink"><defs /><rect fill="white" height="103.40798464426075" width="106.18872665671813" x="0" y="0" /><path d="M25,25 m0.0,0.0 m11.223002070464245,14.090021849598621 l0.4643161619312639,0.13053481704767186 2.5069383016857807,0.11011629011005111 l28.12223537412692,-1.9482108525145343 5.626817890030161,-0.1348525021801543 l2.6350895599967825,0.23320240399410044 m-29.78996757329231,-2.9530518966874406 l1.1316723912857722,1.0467964422611593 1.4310110965204061,7.030126717843341 m14.738268261122979,-9.14334206598324 l0.3263205166288381,0.7509614104449948 -0.05166556741954047,0.8007607362561333 l-2.227125407029694,6.737926112663963 m-18.632771291878587,3.601318617627589 l0.8187312083056189,1.2795492119541236 1.6958487696034215,7.794353078901932 m-1.1438845170716667,-8.45246052816831 l19.315397395412663,-1.5751415438435301 3.3812362474726987,-0.07645380381053582 l0.9137779838566745,0.6046278960865376 0.26227245319396625,1.2110485304610898 l-2.378626516477504,7.5651382862355385 m-20.922841623089873,-3.7477251614206413 l14.691173205694048,-1.0436896808374678 m-13.724671942828252,4.913760442503601 l19.809358831617402,-1.1732563806113656 m-31.288493545761565,7.503329666300888 l2.3809510787065644,0.1263046110874862 29.271967680738193,-2.13950162649427 l13.499607556649721,-0.6546313183988726 m-27.47483264911944,-2.754374336203637 l0.23404838366655495,0.9167342852471585 -1.4109086402861084,1.8186658501335344 l-3.0815433769186096,3.4151158233596934 -2.963277270282325,2.6502311188632475 l-5.501353227216761,3.766060802366724 -6.884883495640304,3.4780395992207818 m27.287090903414192,-15.005413965152652 l1.7347703936495622,0.7936203160168492 2.408076786018444,1.4702470634004732 l13.712140469409494,9.753178858849502 2.188289342727315,1.1648211449589936 l1.855162987100987,0.5259439903384563 m-35.06903432982992,-4.2364478565904 l0.5330901229889636,1.2946056107268133 1.7223785113219383,11.86939657829676 m-1.5340752761515866,-12.255420189463191 l17.896405824932202,-1.9052463890231421 1.5794223436474844,0.08024001093167754 l0.5115572886495842,0.39204692768743127 0.2971431305407013,0.8039777546640889 l-0.9892363727638357,6.970919810637268 -1.0969235401085375,4.558690499084447 m-17.231643268487066,-5.797150420177048 l12.368711776159541,-1.0451731953556227 m-11.194117038016655,6.724381358482983 l16.27702238407868,-1.1916224055896718 " fill="none" stroke="black" stroke-width="1" /></svg>