<?xml version="1.0" encoding="utf-8" ?>
<svg baseProfile="full" height="105.01408419858222" version="1.1" width="100.77917268556469" xmlns="http://www.w3.org/2000/svg" xmlns:ev="http://www.w3.org/2001/xml-events" xmlns:xlink="http://www.w3.org/1999/xlink"><defs /><rect fill="white" height="105.01408419858222" width="100.77917268556469" x="0" y="0" /><path d="M25,25 m0.0,0.0 m7.730776194757811,13.832428866353707 l0.17000850079101004,0.42161487274427456 0.24869676971936316,1.379740643925788 l-0.014169958916773442,27.488126666502907 m0.3280123669661342,-29.17560237006541 l9.926036700675681,-1.7930465722601843 0.6276332180809397,0.09856525657248286 l0.7662443027017247,0.9275850424795645 -0.23552295381408656,29.1121833616653 m-11.072622613902674,-15.129472942044293 l6.992215674032388,-0.9954745491968223 m-7.044669318106319,15.17957887881987 l10.627373755196531,-1.4068925874978169 m7.153973208445726,-25.460092581957458 l1.5008181493218975,0.1874699711983722 13.555166572401527,-2.376003590863203 l2.486020867110339,-0.20370634049350628 1.3892431103442715,0.17191775373225018 m-10.098103989874582,-9.446640163827908 l0.6105782361342399,0.9617395240184443 0.3033442800048827,1.8050063141823054 l-0.1299706477150136,17.9276023412817 m-12.775940609670391,1.8832326822804009 l2.040378796725994,0.33579092047207754 21.5081904846668,-2.8201161654316134 l2.963032495457239,-0.1472387704160929 1.2224290940300033,0.2783306553097732 m-27.934347597071667,11.735391290591101 l1.9437104404646293,0.3002655503048167 20.143285991911764,-2.7520091936363102 l3.6284576880122166,-0.17945054271391275 1.8094813753621135,0.27341192957800814 m-9.411865783393848,-6.941728474149255 l0.6098245209267911,2.0794386741342294 0.04524809078993342,3.2021919854920955 l-0.8923308252450264,23.896357842928897 -0.5151509070094121,0.36358801856764666 l-0.6819824915146367,-0.2309283301179347 -2.1391261211509893,-2.4413650577099433 m-8.474567792450157,-11.806577030907157 l2.2246301590887523,2.214634556455376 0.9743275342900563,1.411073129698667 l0.6207814869233689,1.3446291419878111 " fill="none" stroke="black" stroke-width="1" /></svg>