<?xml version="1.0" encoding="utf-8" ?>
<svg baseProfile="full" height="100.48315041121832" version="1.1" width="101.97922034381585" xmlns="http://www.w3.org/2000/svg" xmlns:ev="http://www.w3.org/2001/xml-events" xmlns:xlink="http://www.w3.org/1999/xlink"><defs /><rect fill="white" height="100.48315041121832" width="101.97922034381585" x="0" y="0" /><path d="M25,25 m0.0,0.0 m5.823606614131649,8.936928461025571 l0.15574934118216782,0.37689747961966286 0.3567003286975591,1.5474774290964488 l0.008540974425719832,26.49278039117303 m0.3463277476873303,-28.881153363859326 l9.041660164211505,-1.5623844525043435 0.5384224308162919,0.06824293880865775 l0.6970478377910285,0.7891161949485221 -0.2892788219458156,28.556856524791794 m-9.848115333809801,-14.58294177946786 l6.1501349082221335,-0.7377458469381284 m-6.2118740654176685,14.429016356157183 l9.599803753901957,-0.986431188623913 m6.863187784370335,-32.73800182409971 l-0.06161658103211385,3.9533012317528193 -0.9366467808295437,5.144272729910509 m1.747911115125108,-7.939144838138833 l17.548748143687842,-1.786816373180255 6.4405840439689515,-0.30088372557155657 l0.7400616924915852,0.17301116887693688 0.4830829990950431,0.4332645165163987 l0.1285746881729929,0.6000443731124916 -0.5833400216882245,1.4309238323229012 l-1.976145410638483,2.2650627794379656 m-21.01508537134216,5.867488469969933 l2.2887732509485077,0.2092718284765276 13.528458585885149,-1.6761149930243175 l2.8347537314656557,-0.16968652209721033 1.6700323299423336,0.20583803584599775 m-21.587572850425694,7.20594086883221 l0.5812753580778646,0.8637433566087921 0.4316551611065402,1.1433874738739946 l1.7058843846894223,12.236349188439227 m-1.3277547011627129,-13.181076919065827 l17.335917078216607,-1.9594312892423777 2.4918133018227935,-0.1472197831294493 l1.2414468550054911,0.33149640529380286 0.4171437519561261,0.8634577905724609 l-0.23253528458592237,3.2407554855483935 -0.6539459808322902,4.964716301121446 l-0.971156553876184,4.656532833065696 m-19.008470796051533,-5.909362404384161 l14.0650299255142,-1.2466394749345167 m-13.421893363632563,7.521114840140892 l11.291560690184136,-1.195807542545308 7.346476121794818,-0.3795118599748757 m-24.443505032108714,8.51345335315794 l2.3482272183872794,0.2707003522584454 20.615569167878586,-1.7696852069641722 l5.9776776506386735,-0.30925650397560916 1.7063181617018746,0.2870888259945986 m-17.013796245874055,-31.219491012602173 l0.7929491659095562,1.720118943875431 0.40652511156365706,1.8197279429050688 l-0.1228682927372373,42.043558612010486 " fill="none" stroke="black" stroke-width="1" /></svg>