<?xml version="1.0" encoding="utf-8" ?>
<svg baseProfile="full" height="116.3426719293141" version="1.1" width="107.15633474910766" xmlns="http://www.w3.org/2000/svg" xmlns:ev="http://www.w3.org/2001/xml-events" xmlns:xlink="http://www.w3.org/1999/xlink"><defs /><rect fill="white" height="116.3426719293141" width="107.15633474910766" x="0" y="0" /><path d="M25,25 m0.0,0.0 m14.276019306179967,14.981027808519833 l0.38664709628963767,0.08958270512835725 2.5036730841398858,-0.12041935460082133 l10.039689237126838,-1.4201102725806238 2.517012040631462,-0.08287782000403222 m-7.53769429662889,-4.635442962978593 l0.5091595066952339,0.752590348929702 0.2039710174628256,0.7719607666134853 l0.014958197738709633,8.983595261004153 m-12.562701034924627,1.1380902966917132 l2.3187663743563207,0.18778507974103206 18.17972990463606,-1.8547647334806223 l2.441077147534749,0.19233443653854038 m-16.7325012690696,2.565365752391612 l1.0272231106912615,2.102291513253592 0.8099919576842866,2.3196161735473178 m9.064432509108235,-5.602952392778556 l-0.4672189800816591,1.901546743101305 -1.7774989461715132,2.9772495709981777 m-13.506571835885044,2.2758047015653307 l1.2499502652926753,0.17163612888829008 1.8370661053062631,-0.10873739803145241 l13.71241223219336,-1.6598013365114044 3.015387630222223,-0.12949529522174108 m-20.27204758281113,8.147405819791992 l2.1882196181655513,0.19940012923679604 13.748214385289828,-1.7133130414177533 l2.504549227872518,-0.2138550456832385 1.2844945033561646,0.13819495987303887 m-9.453620178041357,-4.622363766462532 l0.665765958768974,1.5254843791076549 -0.07683588339356372,12.650811968923628 m14.77955077525586,-34.74832388482264 l0.504323578943365,1.0714405448737967 -0.13052011981737427,4.831933681795879 l-1.0144794925698712,5.831549351567511 -0.7437974798094484,1.9021173340619058 l-0.9548883519021042,1.7605997170367171 -1.1043222023587407,1.5398106057390915 m4.218238133650362,-13.40969469316259 l6.589407107355521,-1.3110974097999455 1.1076063625425592,0.0014348327117508991 l0.5085080133258826,0.28938068957496427 0.30717171961415896,1.1769594701119577 l-0.6106914850140971,4.3538302922648375 -0.05609518442107977,2.5351189915912995 l0.645157541300713,1.476976286289058 1.5416771199966806,0.7015260722805459 l3.1557876297786716,0.12890445323913627 1.8376936940998279,-0.34858983398992877 l0.8966695790943966,-1.1095169827226903 0.25784942505017544,-2.6274701448861646 m-19.01813234435069,10.15873851873531 l1.130316182286714,0.16545300890967118 1.033491554637447,-0.11650131292934672 l10.198490384781671,-2.4732975639052968 0.8212046400357454,0.49961076845406505 l0.20189654895431344,0.6288222092285057 -0.5138656976938192,0.6836902823625588 l-3.586752593163732,4.2816400503603145 -3.713650473400644,3.371035732642483 l-4.233804506584007,2.8205845192424697 -5.591693422734912,2.777436596565135 m3.4157921670129796,-9.918231186325672 l2.4007011511330947,1.0810460230466288 12.247648954293266,7.145486431020536 l3.390243975436549,1.5420657600845218 2.1569476812848736,0.6391108168825615 m-37.31144571377369,5.104514120311126 l2.5849791109929146,1.261738727394353 2.9382478833747436,1.8629458766481966 l1.9386548448019125,1.695717240557646 1.0208590400598052,1.3733133819303944 m19.255047600001816,-8.03167950489297 l-0.12720565686693053,1.0146543551846188 -1.114265648325216,1.8347478161373878 l-3.920372779565131,1.915152498515304 m-31.251128425180482,4.265637517073062 l4.660605697480156,0.3487830635405864 32.42836769995794,-2.0319737311918202 l8.308794852157428,-0.1383867088350771 3.55979526821244,0.36658524965810113 m-26.452853352546832,-10.168320795172969 l0.5378417500770013,0.9686653260318963 0.2336681652644903,1.2654883895025422 l0.015614039948996615,24.193867954698586 " fill="none" stroke="black" stroke-width="1" /></svg>