<?xml version="1.0" encoding="utf-8" ?>
<svg baseProfile="full" height="104.01827774745342" version="1.1" width="96.32350809170933" xmlns="http://www.w3.org/2000/svg" xmlns:ev="http://www.w3.org/2001/xml-events" xmlns:xlink="http://www.w3.org/1999/xlink"><defs /><rect fill="white" height="104.01827774745342" width="96.32350809170933" x="0" y="0" /><path d="M25,25 m0.0,0.0 m7.773904290066873,3.7533959655148768 l0.3730647539057429,0.426657191166655 0.5477712177011926,1.0754308014382468 l0.18754798036392745,1.152594259207014 -0.11131299240332872,45.51863262272876 m0.8390046499278786,-48.434853218963866 l30.620382157147986,-2.5343709944447292 4.1175203129587015,0.09736526703635516 l1.5069722594588946,0.8848544759754425 0.4686534625814654,2.1313304984780133 l-0.3081848409148538,44.615845132515695 m-32.93808843617817,-33.27715491943711 l2.7052248389937077,0.08134740451208676 16.192958486758474,-2.122008239780456 l4.108259358645028,-0.2846396089099971 1.7657992958903146,0.14454224149752956 m-26.595420283211716,13.192590493877436 l2.732590135986053,0.2601205745609196 17.625020985689577,-2.008659044363841 l5.262773368500989,-0.33864893302572924 2.3116056666215474,0.16734003030887756 m-30.217306673053542,16.73568967096549 l2.4817995260418533,0.1385045946467874 25.121395095774666,-2.6001365959005365 l2.5892978975592738,-0.14977479411303316 1.839344030303232,0.2746491773970154 m-17.13617915761117,-22.811544510855967 l0.46890595830997456,1.6820104395308983 0.11369681979832132,22.543678992452918 m11.614112394268359,13.703488773437684 " fill="none" stroke="black" stroke-width="1" /></svg>