<?xml version="1.0" encoding="utf-8" ?>
<svg baseProfile="full" height="106.27637908918325" version="1.1" width="102.38769258492036" xmlns="http://www.w3.org/2000/svg" xmlns:ev="http://www.w3.org/2001/xml-events" xmlns:xlink="http://www.w3.org/1999/xlink"><defs /><rect fill="white" height="106.27637908918325" width="102.38769258492036" x="0" y="0" /><path d="M25,25 m0.0,0.0 m8.2466863018362,15.111236409906477 l0.1447929972348079,0.4445563232695109 0.27372331327208954,1.2946936621201182 l0.016864531720024157,26.690377222491726 m0.29584175945241065,-28.194290218828836 l10.426788326112526,-1.797052710120678 0.6360353587523115,0.08022073780830359 l0.7917930086022474,0.8771410069032817 -0.24453600991641644,28.81102847335926 m-11.556665742229514,-14.622018484843734 l7.300106946147296,-0.939378268012353 m-7.3520305795461605,14.62641773737825 l11.161795899852155,-1.4136256223592365 m6.973191803375567,-25.372679308442045 l1.5365449945350702,0.20184645639302196 14.510971208778207,-2.4461550318530416 l2.5801382489200617,-0.21113206972384363 1.4315725263170278,0.1891998716700962 m-10.711439721858694,-8.996776884406543 l0.5601193900505576,0.9487676189838475 0.25914733139101015,1.8577638534735146 l-0.18375903982832753,16.948452171223405 m-13.368610644140848,1.9491870930611332 l2.01803282073021,0.302381954267866 21.976521313390506,-2.750695999885 l2.9731501806646943,-0.14816198695248928 1.0881258326128629,0.26725716052816734 m-28.72613159794212,11.87604683079947 l2.071195537902423,0.30147816183594073 21.647580265332646,-2.687757270722977 l3.7127562535530743,-0.1814293472023655 1.8973897698464481,0.277417975549432 m-10.067623122579565,-7.202472787365146 l0.6402060813915644,2.0721090758031946 0.052627003226374654,3.3088466505003353 l-0.8426890676480242,23.81206655526494 -0.5189784739948072,0.9164313079618974 l-0.6875942825643424,0.07508076934833921 -0.7614329112759816,-0.471475886982096 l-1.8129431859369118,-2.1064762238018533 m-8.660618717081517,-12.344347637913904 l2.127227240211795,2.114400579078532 0.9119991473312913,1.4074474363135308 l0.6027982217296919,1.37453665612934 " fill="none" stroke="black" stroke-width="1" /></svg>