<?xml version="1.0" encoding="utf-8" ?>
<svg baseProfile="full" height="91.50057184505285" version="1.1" width="100.67439767123884" xmlns="http://www.w3.org/2000/svg" xmlns:ev="http://www.w3.org/2001/xml-events" xmlns:xlink="http://www.w3.org/1999/xlink"><defs /><rect fill="white" height="91.50057184505285" width="100.67439767123884" x="0" y="0" /><path d="M25,26.815929687939157 m0.0,0.0 m8.850283773482275,5.25001296645125 l0.3810796966918417,0.17547852328219893 1.9875951615818435,0.2752560889698334 l12.544047562194654,-1.978443879680756 2.2587961218699126,0.17548172933101933 m-17.185529287952235,16.854721682133853 l0.6159573818970713,0.21953771581693746 0.7476858834740965,-0.005215736625460694 l12.848488251553096,-2.996639129139047 2.2163137181771573,-0.24758800618437604 l1.0569849178061614,0.3200520842778957 m-17.982124138212843,21.20432340346895 l0.5917396696511971,0.43766471501138815 1.1048967149053401,-0.008125362171662097 l15.175812090257873,-8.789516809929312 m3.598066570760764,-30.535858335264276 l0.598898087975527,0.3928998349568726 0.9854936630947401,0.05566217790445114 l18.079745509600027,-2.615633350548918 1.3793348921061106,0.27139776672268384 l0.7397639779689997,1.0414976150419157 0.08106745235522095,1.470264902232226 l-0.27161136362850596,1.005304772817798 -1.688475207663217,11.54304870008119 l-1.6813468978755468,9.454422545218364 -2.0821128485834905,8.173494652655021 l-0.9224440855764036,2.504829996056146 -0.6532625519379576,1.2982104920748567 l-0.6004771279967848,1.156719614482307 -0.565192942585707,1.1717642880198598 l-1.0710246624893716,1.250560509506425 -0.4657578693511678,0.16484808005393545 l-0.9068234691613012,-0.42692229856405123 -1.6853973755867346,-2.4737290583034968 m-1.6070455712854426,-37.23914586940358 l0.10833810194496787,3.0669052594581063 -0.8586027557029327,7.032422650129165 l-1.2401529453227227,6.243406378502092 -1.3194940823727033,4.814476770763451 l-1.6623575928424323,4.716277825841389 -2.040995626252473,4.53973887029381 l-2.460901624919188,4.3033512265692435 -2.242029547303407,3.131797140894749 " fill="none" stroke="black" stroke-width="1" /></svg>