<?xml version="1.0" encoding="utf-8" ?>
<svg baseProfile="full" height="94.65597733578332" version="1.1" width="102.20054187400424" xmlns="http://www.w3.org/2000/svg" xmlns:ev="http://www.w3.org/2001/xml-events" xmlns:xlink="http://www.w3.org/1999/xlink"><defs /><rect fill="white" height="94.65597733578332" width="102.20054187400424" x="0" y="0" /><path d="M25,25 m0.0,0.0 m31.574207099598212,3.710548879698983 l0.06775117270158157,0.42997460291428735 -0.12428743640208968,1.013477225135952 l-1.7120550713363232,1.768367523986948 -2.4914883594193586,2.153875235652865 l-3.2449077219615408,2.198994869892487 -6.374588511300197,3.394023569375324 l-8.0185737460694,3.2543839528842757 m19.336821284821376,-12.69566016901367 l7.22374487239704,4.006624173420342 10.852203680002557,6.028763294003042 l2.3869037145691507,1.0953984165737776 2.724810896403241,0.5182923995977405 m-29.906775014731803,-2.4835572892573112 l2.1590567528532767,0.0032086788864521326 8.88778943888458,-0.9106049689499471 l2.8181592083457274,0.050332553713970093 m-19.520991379865738,5.627125197611827 l3.567927947329401,0.21625497718739273 16.131665468376568,-1.772432233580972 l1.6960895444642003,-0.03358123462890301 0.5988707368624324,0.2550541083325736 l0.36654367336805094,0.4743934659250888 -0.07434928183580071,0.6335413450287073 l-4.841380252233537,6.224049660271189 m-16.10704870563617,-2.4230804001959947 l0.7443401514320103,0.9313476451181131 0.1463387634351751,0.7463221509745874 l-0.2932463814974954,4.114816027273269 -0.6122990501335626,2.656401830314859 l-0.9816691213093048,2.3020409158766006 -1.3584679345893838,2.036871018585401 l-1.5324061061221153,3.070664291641694 -1.8848954518957508,3.213782288894214 l-2.09725977544107,2.8459633326381537 m8.315765711375976,-21.0795040231882 l2.4762533374859332,0.2524534957881091 16.259288715536744,-1.5802554283528283 l1.5540434314554357,0.14226331018984592 0.7120770218388891,1.0681934968539246 l-0.3403725895709055,0.5570501041930744 -1.4145582065671116,4.156334615539573 m-18.495853915915365,-5.294090064260299 l17.164974157006835,-1.2719723743922395 0.83665922048738,0.07801085189467441 l0.486390264437362,0.3373416392909955 0.20796599325267787,0.8061055337939774 l-1.360833741490565,3.878695154493695 m-9.842496580487436,1.5301991199891887 l12.13326921739607,-1.048806085447 m-13.23953843159454,-8.51681797306764 l0.46445995087304465,1.061836876569447 0.03191372108472588,14.874801930780741 l0.348053493533793,1.7116946060432014 0.6832547372545805,0.8546332660247352 l1.6659461557282196,1.156221769086861 2.9059554772264775,0.5642251026046523 l4.207342595307046,0.20158528190845879 7.737638645910714,-0.0577467338299528 l4.385700980300138,-0.4001154262191911 1.757175729448969,-1.2780614383332585 l0.4763819547334908,-1.4071143631764305 0.11606909703667873,-2.1485116940698634 " fill="none" stroke="black" stroke-width="1" /></svg>