<?xml version="1.0" encoding="utf-8" ?>
<svg baseProfile="full" height="109.4925138540566" version="1.1" width="109.47300367057323" xmlns="http://www.w3.org/2000/svg" xmlns:ev="http://www.w3.org/2001/xml-events" xmlns:xlink="http://www.w3.org/1999/xlink"><defs /><rect fill="white" height="109.4925138540566" width="109.47300367057323" x="0" y="0" /><path d="M25,25.000000866129994 m0.0,0.0 m11.214745044708252,2.79326468706131 l0.5849262699484825,0.19746730104088783 3.9883655309677124,0.14868737198412418 l23.03602933883667,-2.8257152438163757 4.7913625836372375,-0.3137049823999405 l1.5305083990097046,0.734986811876297 0.7138361036777496,1.240597888827324 l-2.323272079229355,8.211941719055176 m-29.710168838500977,4.040513038635254 l31.89817190170288,-3.2710877060890198 m-32.65084505081177,-7.526731491088867 l0.6115469709038734,0.9776728600263596 0.18019121140241623,1.240597888827324 l-0.5877068266272545,7.5952887535095215 -1.1935558170080185,7.384511828422546 l-1.851780265569687,6.905338764190674 -1.9921770691871643,4.997399747371674 l-2.4749964475631714,4.378924369812012 -2.984801232814789,3.6233335733413696 l-2.589866518974304,2.138044089078903 m35.10140657424927,-28.51989507675171 l5.589984059333801,7.521262168884277 6.272640824317932,6.597559452056885 l8.055134415626526,6.7616599798202515 2.32694149017334,1.3839121162891388 l1.9363830983638763,0.7007081061601639 m-45.277085304260254,-6.5290021896362305 l0.8504039794206619,1.1352091282606125 0.4192761331796646,1.359114795923233 l1.9044175744056702,19.252697229385376 m-1.4863836765289307,-20.86480140686035 l22.732443809509277,-2.474016398191452 1.884782612323761,0.4098175838589668 l0.4930301010608673,0.5466361716389656 0.27274830266833305,1.4878423511981964 l-1.7775475978851318,18.700865507125854 m-22.32346773147583,-9.977295398712158 l22.19656467437744,-1.9193574786186218 m-21.284897327423096,11.336774826049805 l20.694866180419922,-1.5757499635219574 m-34.96137857437134,10.7999849319458 l2.093554735183716,0.5189214646816254 2.984071969985962,0.16833381727337837 l23.101670742034912,-1.9707073271274567 13.785150051116943,-0.703146830201149 l6.6938316822052,0.04310480784624815 3.2469969987869263,0.7114201784133911 " fill="none" stroke="black" stroke-width="1" /></svg>