<?xml version="1.0" encoding="utf-8" ?>
<svg baseProfile="full" height="105.89794960931596" version="1.1" width="107.28879209058353" xmlns="http://www.w3.org/2000/svg" xmlns:ev="http://www.w3.org/2001/xml-events" xmlns:xlink="http://www.w3.org/1999/xlink"><defs /><rect fill="white" height="105.89794960931596" width="107.28879209058353" x="0" y="0" /><path d="M25,25 m0.0,0.0 m5.231782265189337,10.108877250117013 l0.27712300867118556,0.41786511292624634 0.310709112663245,1.5934487436133886 l-0.010493875718736561,30.48357826412495 m0.44792390298294854,-32.10298322472293 l9.501740133016874,-2.004000601131252 0.6266457881834833,0.05569389675421058 l0.7306098372987885,0.7527443139385017 0.1645228969969007,31.9939478263625 m-10.898833634466554,-17.32823938049578 l10.231060632693787,-1.373239009849226 m-10.041110075491527,16.132814955071055 l10.111641100617527,-1.3097640344332646 m15.035790907859022,-34.89445460177197 l-0.32500698265371875,2.0233691331775057 -2.0053482652578394,4.161194103116539 l-2.5429985938700748,3.697314878053557 -2.98743281665976,3.2383566339593153 m7.463967714193469,-8.956316091212953 l10.036435544614251,-1.7472330782715595 0.7234303308282476,0.18272684206090475 l0.491391247130891,0.5545817981038504 0.22918740788120923,0.7289604944145734 l-0.12085845918547258,0.6227357208427265 -7.806385517593395,10.578305324577839 m-9.703128951972753,1.8456293369572974 l0.5132053530082756,0.8924262809412825 0.2973635641200741,1.2464049797269172 l1.589560886082629,11.605191376756459 m-1.2729808857143428,-12.791565788693248 l17.327130689265903,-3.3484876236275105 2.5538209219741552,-0.40237207311074147 l1.3480884380456044,0.08777125765298835 0.9336638034041304,0.7463184562272468 l0.3135828887949936,1.4377094485839215 -1.0976409136135472,6.112974590761104 l-1.5718925079071357,5.90863005784296 m-10.595780902242383,-11.028376356949998 l0.6588342375411658,1.00434228568433 0.23835807461446978,1.2034536499244515 l0.006253790428407788,7.644124643638515 m-8.229477963735974,1.9870741137333439 l17.71803858724832,-2.3142971679076227 m-14.697849686534058,4.536366572101657 l0.06413871952554193,1.6203697952565645 -1.0395005326614926,2.665841774200295 l-1.9841615373751886,3.7103361958498775 -2.328099723215973,3.4364372216455843 l-2.351564712332609,2.876956221154676 -2.801598303306707,2.8609683631874314 l-3.331374404669305,2.776356904813882 -2.808967511325231,1.9670798236385405 m24.310924799009037,-23.64713343227379 l0.5129347644325519,0.8861343478781173 0.22393603496496628,1.0970014859840038 l0.04691729701280241,16.760727752335107 0.4265420232677721,1.9547503307267673 l0.5353282505895433,0.9383118944937603 1.438349490825044,0.8375213544629889 l2.2653977666454295,0.4130702736351988 4.6397003921153654,0.06811872531924223 l3.8935177459769834,-0.44511689741199695 2.1579589793474083,-0.5309209895661897 l1.3859763995399723,-0.8915661693342931 0.6512855371255791,-1.3005595145523778 l0.17650758236001338,-1.7357224786101337 " fill="none" stroke="black" stroke-width="1" /></svg>