<?xml version="1.0" encoding="utf-8" ?>
<svg baseProfile="full" height="105.8746337229923" version="1.1" width="114.25928087938176" xmlns="http://www.w3.org/2000/svg" xmlns:ev="http://www.w3.org/2001/xml-events" xmlns:xlink="http://www.w3.org/1999/xlink"><defs /><rect fill="white" height="105.8746337229923" width="114.25928087938176" x="0" y="0" /><path d="M25,26.765892889220986 m0.0,0.0 m7.536648609645807,4.300712998531555 l0.40287849515317203,0.4237345959317006 0.5374424142599005,1.082271860042053 l0.18871049858320021,1.5298540195267942 -0.007636758583847206,41.29178331311415 m0.5502941169576527,-42.77671462892757 l14.229894765314084,-2.1261077946425018 0.9719153383086446,0.37241367040772855 l0.6410048344861727,1.1494661730857902 0.005290932106298465,40.8682502701582 m-15.32702549956818,-27.309415837034205 l14.314856268370379,-1.8037746682168694 m-14.073321903639497,14.236924172027603 l13.892841608796642,-1.6093649000102463 m-13.588542872856257,15.582478890028693 l13.82330787326754,-1.3616272025615643 m9.006359163192434,-43.39836319431259 l3.1961223229933147,0.19222360146545595 16.874938235579407,-2.178139420365553 l3.965643704326394,-0.2324988074696085 2.189213284066769,0.2328740668676903 m-14.431044967914277,2.9454584966360913 l0.6134693736828568,2.0528499652995778 0.01557249366811544,21.771597292569783 m-19.32714775579213,-12.308746196041035 l3.4929193047014717,0.2101161960803783 26.86630931333612,-2.7183161076896423 l3.868061592228649,0.14979287977559236 m-37.38054173225061,12.767115358356168 l4.316898417508004,0.3209923507940864 16.83621208037794,-2.654507252647561 l16.427839435068083,-1.223987657449808 3.6298978940075157,0.38877637902778994 m-33.624731906678896,11.141102157650826 l3.6715697545549033,1.0026666799444757 20.762729074586876,-2.2728762869689283 l3.0713351739705566,-0.1260159445436871 2.0028360390565534,0.3150153334758195 m-9.845475188021336,-8.724979417923404 l0.6830669921986279,1.4505946270867276 0.2543654848557118,2.3116572805047144 l-0.21899463048517495,27.289301386094962 -0.44959937542456724,1.143670780494653 l-0.6895688726761969,0.4104813555970419 -0.8276477125047311,-0.19538114627523212 l-1.7866172989920703,-1.3755829674699034 m-11.366802515993559,-13.811490290252275 l2.672522535166163,2.68894291511358 1.4663957962250924,2.1961569515815937 l0.6880520201522295,1.7802367143001556 " fill="none" stroke="black" stroke-width="1" /></svg>