<?xml version="1.0" encoding="utf-8" ?>
<svg baseProfile="full" height="102.01387053797805" version="1.1" width="104.29819091667382" xmlns="http://www.w3.org/2000/svg" xmlns:ev="http://www.w3.org/2001/xml-events" xmlns:xlink="http://www.w3.org/1999/xlink"><defs /><rect fill="white" height="102.01387053797805" width="104.29819091667382" x="0" y="0" /><path d="M25,25 m0.0,0.0 m16.909631714603883,7.421156019406406 l0.40026871001960657,0.3912780888894489 0.645296835624176,1.1158656319792075 l2.621302744467227,15.759952016992665 m-2.374788823615917,-16.752646735131695 l24.070731016744904,-2.4111309059982333 2.439646031445836,-0.24851704214207923 l1.3959578389601517,0.3211956705902225 0.7065287091819991,0.9304616646004634 l0.058159293457416224,1.6029838870293263 -1.4472228508721259,7.7390530722566275 l-1.4779125296365458,6.326378976385312 m-24.28593295998417,-6.85927773213862 l26.172597670779012,-1.9553486793256314 m-24.483410629168308,9.188104041768055 l22.584635863756464,-1.5768920181938695 4.746966019399074,0.004325619463905837 m-33.72423875685845,12.828044929553926 l3.7097386816488647,0.24928269949582627 28.099199168995764,-2.409608296737938 l4.792315978008594,-0.19386254536502284 2.738721189716351,0.2519193818010994 m-20.56136477712887,-7.536460928833459 l0.6356646004706381,0.9802133388332508 0.23978285425046753,1.6058425597514048 l-0.08996229663110773,25.241557823047447 " fill="none" stroke="black" stroke-width="1" /></svg>