<?xml version="1.0" encoding="utf-8" ?>
<svg baseProfile="full" height="96.94885164697423" version="1.1" width="102.10477944668291" xmlns="http://www.w3.org/2000/svg" xmlns:ev="http://www.w3.org/2001/xml-events" xmlns:xlink="http://www.w3.org/1999/xlink"><defs /><rect fill="white" height="96.94885164697423" width="102.10477944668291" x="0" y="0" /><path d="M25,25 m0.0,0.0 m15.117431904426983,7.328695005279988 l0.32551256526629685,0.40791656157864553 0.534688796992714,1.1839674739884616 l2.362966329446883,15.25167335998956 m-2.411809673527819,-16.144296663040592 l27.761031255779283,-2.4553726710796973 1.5192459526240423,0.005273829651032556 l1.1801881284465763,0.36249133508626474 0.7645404323418908,0.8088060278584086 l0.14846206141127605,1.2583683880534298 -1.5604672577357583,7.9210422654102715 l-1.586786424319179,6.229277071750703 m-26.317236117157194,-7.108058638288651 l28.02419005918047,-1.9216328938828409 m-27.013523457735122,8.874132747692446 l24.81724245961175,-1.5245028295675402 m-26.90463379732367,12.79136267597947 l3.265587335400386,-1.613676059407109 6.44955928068647,-1.6986448660547677 l2.385170342523946,0.03816907491774031 m-13.02792615229484,-5.9998017255050815 l0.5503976883036821,0.7150953303739211 0.2614847782051188,0.8968632372752013 l-0.015020181355643786,15.821426120908594 0.4433940314727122,0.9002612656674654 l0.6421970045004246,0.11770546879177471 0.8903680500333645,-0.24518656702358954 l9.393645378574005,-4.530270763932529 m20.893491846645063,-13.157396756664934 l-0.2586712023812305,1.1806166318801965 -0.3973709542985875,0.4419314037175351 l-1.3852920342615562,1.3845201445888835 -3.9871770923437913,3.1757400357930803 l-4.3081473907856225,2.8591857394558997 -5.7827936070382355,3.0191867257963656 m-1.9557447002720567,-12.749943719206122 l0.7438967955888104,1.2263608880707315 0.18292514889957534,1.3034112193473884 l0.329277826313314,18.523268697724966 1.121250820555314,1.1330415646496166 l2.191092303768911,0.6479483615192513 9.638009152667678,0.2898971478303787 l3.2596392265710508,-0.33204837326821457 1.5139868820340896,-0.5046526036565674 l1.3139162222979408,-0.8699910226908123 0.6964219798884367,-1.088300131563303 l0.2961674490547729,-1.5527143064053828 " fill="none" stroke="black" stroke-width="1" /></svg>