<?xml version="1.0" encoding="utf-8" ?>
<svg baseProfile="full" height="107.84302089976768" version="1.1" width="105.83367610133095" xmlns="http://www.w3.org/2000/svg" xmlns:ev="http://www.w3.org/2001/xml-events" xmlns:xlink="http://www.w3.org/1999/xlink"><defs /><rect fill="white" height="107.84302089976768" width="105.83367610133095" x="0" y="0" /><path d="M25,25 m0.0,0.0 m28.722938980668026,13.460274949142239 l0.04810927568405983,0.41211542591894895 -0.5342755223694284,1.4016851035463498 l-1.543127262786273,2.0449914369466393 -2.2898685317591347,2.285334352879302 l-2.8344481867654756,2.2902707728263927 -5.836412386503924,3.875206851489087 l-7.774383982832609,3.992355614341588 m21.930305619516634,-15.778405140769111 l8.147513092945063,4.7993975093740024 12.052321549538142,6.933467975032775 l2.5119193004731093,1.2375065975140551 3.233084155522765,0.6821675496663232 m-32.331321641870915,-2.697281242223337 l2.3590875847953745,0.15660428336079268 10.074409628647878,-1.1639056863171178 l2.584617840820639,0.09054530424741533 m-20.93262302146756,5.862713664636012 l3.597881444012524,0.2115391688224256 17.68967860713045,-1.914077352849538 l1.6406247975910662,0.009588226893076856 0.5887950461310373,0.27650876366062477 l0.16286462897947898,0.5262059921722795 -0.23861052220023593,0.7310346612710359 l-5.825586172279997,6.525131794286829 m-17.28211953493069,1.9044330366234785 l0.9409414204091044,1.3643835712857961 0.1461282206977109,16.39347996478766 m0.30415459922685295,-16.556044188444673 l22.02595125078939,-1.8680850883325475 0.6695417923662234,0.002091835591949872 l1.0710644775265368,0.413772561528582 0.637681099275134,0.8679440380899524 l0.11471602476924533,1.173550803922136 -0.4251440297009847,15.69409473286288 l-0.359415770071221,0.47703210727584155 -0.5407337470137855,0.08256834399855274 l-0.6473962796357643,-0.2576883770996892 -2.0765756012867547,-1.5611356378898795 m-20.359769663378938,-9.265053992652426 l16.66589552729936,-1.2123213842586205 m-16.573785989917106,6.334306791744657 l16.539243535851718,-1.0898453748250985 m-6.3298887995933555,-9.57628834235091 l0.6014560222861646,0.6044150807610632 0.1679187595306004,0.7264814724257037 l-0.0817415082529862,16.939952368854183 " fill="none" stroke="black" stroke-width="1" /></svg>