<?xml version="1.0" encoding="utf-8" ?>
<svg baseProfile="full" height="107.14910074236681" version="1.1" width="101.64732237535792" xmlns="http://www.w3.org/2000/svg" xmlns:ev="http://www.w3.org/2001/xml-events" xmlns:xlink="http://www.w3.org/1999/xlink"><defs /><rect fill="white" height="107.14910074236681" width="101.64732237535792" x="0" y="0" /><path d="M25,25 m0.0,0.0 m1.729990945828399,15.936719368233184 l0.2811162110169363,0.41397101569925726 0.3289852067202853,1.5189926400506992 l-0.015468144040199087,26.96540564033888 m0.6110744075118518,-29.162884895753287 l9.527412118298834,-0.9978254827688144 0.696968254432811,0.11488539390193495 l0.9513843379924444,0.7299431969281964 0.2141275678618178,1.3698674582092623 l-0.7014425541360467,26.606966105443163 m-10.440512903547399,-14.438988844898791 l10.08950126394527,-1.035318101571796 m-10.271792162387028,14.917676037611246 l9.80874184995202,-0.9770266899574868 m18.895505864071392,-37.58392548050634 l0.541402563864904,0.7159042746413264 0.321170625344932,0.898537768134441 l0.1411838545033082,6.501074484356965 m-12.113242918869425,1.7601325205399247 l4.418587371273429,-0.03775603606946863 17.936880218579486,-2.1518147045920535 l1.7348206915582534,-0.016335276329821236 1.544706368317443,0.27515346641846533 m-21.07513251562348,6.080676592878029 l2.0315138205447894,3.405734678948194 1.1160586673937896,4.365303703862808 m11.444369525848314,-11.191450723732592 l0.11017726188865654,1.487680118702755 -0.39004101719635176,1.7821878791745775 l-2.41936711344072,7.1034492561930405 m-19.415828739407907,3.302823498185415 l3.8408535747292087,0.22280959550482238 25.391634482216862,-2.2722785577286198 l2.9435895325049963,0.05720127384657541 1.8383938578060444,0.3550549181776867 m-27.228159677407387,7.528341023607614 l0.5892147203933662,1.8004522556491254 -0.07329167849219966,20.797761371038284 m0.45335454646316375,-21.65218552607835 l14.835146059753836,-1.976400082710074 0.6625886780244925,-0.013818365021375274 l0.9606740300574964,0.49859002664949115 0.3272698621325177,0.47082446534721367 l0.2606962707077766,1.3282792911248305 -0.4034306813818103,20.01419391253077 m-16.523975879823073,-11.17825671912801 l16.307842818146323,-1.5240219301544757 m-16.374869567277837,12.290290232365786 l15.76909936709803,-1.3871577693013033 " fill="none" stroke="black" stroke-width="1" /></svg>