<?xml version="1.0" encoding="utf-8" ?>
<svg baseProfile="full" height="109.49251376092434" version="1.1" width="107.6987612247467" xmlns="http://www.w3.org/2000/svg" xmlns:ev="http://www.w3.org/2001/xml-events" xmlns:xlink="http://www.w3.org/1999/xlink"><defs /><rect fill="white" height="109.49251376092434" width="107.6987612247467" x="0" y="0" /><path d="M25,25.000001909211278 m0.0,0.0 m7.206430435180664,7.566973567008972 l0.5455293506383896,0.15627143904566765 3.1184089183807373,0.08961581625044346 l32.333312034606934,-2.7706843614578247 5.56760847568512,-0.19993551075458527 l3.101695477962494,0.3011776879429817 m-33.54470729827881,-4.642348289489746 l1.256522685289383,0.8821398019790649 0.45535992830991745,0.6511588394641876 l1.8826113641262054,10.159815549850464 m15.959408283233643,-12.194186449050903 l0.38641665130853653,1.1004183441400528 -0.07834464311599731,0.6521616131067276 l-2.745196223258972,8.892262578010559 m-20.69802761077881,4.901742041110992 l0.986097902059555,1.7047794163227081 1.9169993698596954,10.350433588027954 m-1.3758572936058044,-11.156610250473022 l21.5865159034729,-2.192104011774063 3.4770813584327698,-0.08846676908433437 l1.0910587012767792,0.828322246670723 0.3460953012108803,0.746760219335556 l-2.6770883798599243,10.863455533981323 m-23.489854335784912,-4.95522528886795 l16.861939430236816,-1.423950344324112 m-15.702688694000244,6.5303075313568115 l22.201240062713623,-1.6019076108932495 m-35.577073097229004,10.263439416885376 l2.594273090362549,0.1006049569696188 33.460471630096436,-2.6278671622276306 l15.370423793792725,-0.7859978079795837 m-30.35710573196411,-3.9149755239486694 l0.2328089252114296,1.2394748628139496 -1.631239801645279,2.3693090677261353 l-3.554966449737549,4.466522037982941 -3.3540698885917664,3.4523454308509827 l-6.34645938873291,5.0314390659332275 -7.875412106513977,4.452148079872131 m30.29292583465576,-19.863686561584473 l2.188134342432022,1.0982456803321838 2.7871471643447876,2.03136146068573 l14.890412092208862,12.875429391860962 2.5193962454795837,1.6230502724647522 l2.0905274152755737,0.7181800901889801 m-39.53483581542969,-5.605047345161438 l0.6160604581236839,1.7318552732467651 1.9783587753772736,15.684304237365723 m-1.814420074224472,-16.323094367980957 l20.18976926803589,-2.506903111934662 1.765282303094864,0.10591150261461735 l0.5508777126669884,0.5131051316857338 0.3243885934352875,1.0248731821775436 l-1.2657150626182556,9.406704902648926 -1.2329565733671188,6.024221777915955 m-19.35024857521057,-7.894131541252136 l13.856513500213623,-1.3761235773563385 m-12.579265832901001,8.995886445045471 l18.380194902420044,-1.5676866471767426 " fill="none" stroke="black" stroke-width="1" /></svg>