<?xml version="1.0" encoding="utf-8" ?>
<svg baseProfile="full" height="89.1543456127161" version="1.1" width="107.1162976916454" xmlns="http://www.w3.org/2000/svg" xmlns:ev="http://www.w3.org/2001/xml-events" xmlns:xlink="http://www.w3.org/1999/xlink"><defs /><rect fill="white" height="89.1543456127161" width="107.1162976916454" x="0" y="0" /><path d="M25,25 m0.0,0.0 m26.476135084744367,6.155682148508128 l0.3571392600771762,0.20754995925385322 2.619035997499764,2.328571602246571 l1.3619732342174162,1.7881575958745404 m15.253130274350456,-5.538367390989271 l-0.09034253359776837,0.6849826022234032 -1.0434607670475233,1.7704432539123232 l-1.4683518304798928,1.8063432915794582 m-24.47027473721647,3.142984710911956 l2.8298509691039335,0.16503844333289933 28.30369326681801,-1.9924742892616136 l4.754058129334109,-0.1388507165645652 2.233711343841812,0.25505819948609704 m-20.73586198449112,1.9908054900152523 l-0.1056397150566502,0.8516294549628689 -0.887643501413235,1.4280475752868027 l-2.4530872648083615,2.361952425392931 -2.964349915933427,2.106931660404807 l-0.5916966218211244,1.0193171722032766 16.48310847808192,0.18721118027919578 l6.054215465984905,0.8035175458093088 0.23519202507326467,0.9934518675291439 l-2.815206748764324,1.5954339145346896 m-12.603976874826072,-7.474093098937522 l0.45088570816667256,0.8797852882936364 0.16361280309505746,1.070379147832137 l-0.05311183679103958,2.982780058038245 m-8.845233112087646,1.1369087350797906 l0.2848495032377495,0.7228725878776813 0.0052967572504316685,0.8018550776279461 l-0.00025080800377144414,14.354495933384005 m0.2969826184365883,-15.36605963868362 l15.3468453634373,-1.3496683697451943 1.1229824136520172,0.04127087461908428 l0.9002234738177526,0.45907259305198794 0.35278768768056085,0.9221124447110404 l-0.01557149731131166,14.009309120047234 -0.17603686209551267,1.2743819175971274 l-0.3871859699141112,0.5926402917967947 -0.5242959847998802,0.12288495319367489 l-1.2485006556541556,-0.5564960200987437 -1.5479360585505932,-1.214579558769627 m-13.974257534912132,-9.577099424523771 l17.528384028476925,-1.1796638898539498 m-17.290497682544256,5.313161604822065 l17.279418818934488,-0.9834270292361839 " fill="none" stroke="black" stroke-width="1" /></svg>