<?xml version="1.0" encoding="utf-8" ?>
<svg baseProfile="full" height="114.08055872430586" version="1.1" width="107.4169708876443" xmlns="http://www.w3.org/2000/svg" xmlns:ev="http://www.w3.org/2001/xml-events" xmlns:xlink="http://www.w3.org/1999/xlink"><defs /><rect fill="white" height="114.08055872430586" width="107.4169708876443" x="0" y="0" /><path d="M25,25 m0.0,0.0 m7.672882261458566,18.299077426979444 l0.28928712812306123,0.3520070522380246 0.45126119929367686,1.225542266635946 l-0.004074180376495665,14.853996294721696 -0.32752404866412105,6.843111879333607 l-0.566949292763466,5.38877670493303 -0.8326004822335654,4.851565663240444 l-1.1038895899999737,4.291849894875291 -1.4570248654437423,3.8581175264297216 l-1.5302336208345446,2.938177776565165 m6.629714821352663,-44.93861819817543 l9.122065226094971,-1.5806209197348855 1.1234645341384653,0.38919111116331523 l0.6985471736734667,1.568656533853242 -0.15075776027663032,42.55309159360661 l-0.41025079447546564,1.347913306481584 -0.6029186983653335,0.5750053368802717 l-0.7448008826709769,-0.040576156090242774 -2.8983473977756593,-1.1252722359250114 m-5.990173354120111,-30.217914242954713 l6.251774343074527,-0.8667450571379548 m-6.614758262053953,12.244187103982757 l6.584073510308125,-0.6580705920026594 m12.427501812439367,-24.228558555313466 l1.669830621126273,1.4816223692729658 1.7689180396874045,2.175268420026407 l1.4525275404563702,2.3006778352332344 0.8437341854654243,2.03716665225932 m13.637473026169609,-10.631300653894186 l-0.29657169181100673,2.592774848434231 -1.4968232120486364,3.942753034507794 l-2.0798153521145797,3.845179396331533 -2.176880973001761,2.944771078815661 m-13.236109055248027,2.710571601547147 l2.198398589168527,0.2172655740786893 16.716060327488368,-1.98993290391852 l2.60318903846521,-0.1664981548298805 1.4022759221783765,0.20548875865592572 m-27.471455277799894,12.411709597770853 l2.4298295792949247,0.24313700915859535 27.14180290528069,-2.3381202654871114 l3.530113621312889,0.4196362074006892 m-18.95260031174481,-7.800441221093115 l0.30130323823512506,2.5759501482796474 -0.6438846546992342,7.7713305911815755 l-1.0212607295340432,5.2512020748469785 -1.4371899878923144,4.437511832617407 l-1.8282155616562186,3.7221895719797087 -2.190538209557548,3.058361730037046 l-2.5852977942262605,2.481262420726048 -3.690526271256181,2.2571296557814406 m13.182874871941411,-21.336070613031506 l13.406404174266774,15.386902986654126 3.6617421079392587,3.4673164393903058 l1.3486613068057651,0.9339223409173044 1.2127320950495524,0.4338788611792775 " fill="none" stroke="black" stroke-width="1" /></svg>