<?xml version="1.0" encoding="utf-8" ?>
<svg baseProfile="full" height="109.14378858256799" version="1.1" width="96.9405669189959" xmlns="http://www.w3.org/2000/svg" xmlns:ev="http://www.w3.org/2001/xml-events" xmlns:xlink="http://www.w3.org/1999/xlink"><defs /><rect fill="white" height="109.14378858256799" width="96.9405669189959" x="0" y="0" /><path d="M25,25 m0.0,0.0 m14.140613519312792,10.305493377262042 l0.43412112423312343,0.4406908910268013 2.488945415519046,3.4528462825358646 l1.814967760679868,3.7414044476457597 m19.46909369695883,-13.808589157767418 l-0.14404060663108073,1.2515721546262726 -0.42689704838299025,1.3736526224738592 l-1.708008058239402,3.317719995212705 -2.1408442599872575,3.3173734511528217 l-2.497256433017271,3.0429620779005044 m-24.14773068361609,10.474031585378794 l1.7225089589387976,0.3776128498488596 2.049597898743847,-0.03697553079051095 l23.900166722680915,-4.096728835951615 3.7103745184237518,-0.350245987636149 l3.80925061630204,0.0567152159667581 m-17.915322293095922,-21.58748341685256 l0.7419500230362887,1.1370989156207596 0.38815746599054357,1.631472145807209 l-0.13061804288093096,55.10316549910724 m-1.6798707697236244,-33.13644933444213 l-0.5330867180509766,2.236646276553083 -1.541775941055248,2.931318605796193 l-2.515631542631216,4.104322471935464 -2.8343331153062556,4.054350313944391 l-5.718669622323463,6.7963625936464 -2.7381025739340785,2.66923698568947 l-2.5918928454971835,2.221457783725289 m21.513909463528496,-24.95194181211643 l15.252328522762957,19.414050962541225 2.4412719612608598,2.36820536508116 l2.3273898049967343,1.6205818740401072 " fill="none" stroke="black" stroke-width="1" /></svg>