<?xml version="1.0" encoding="utf-8" ?>
<svg baseProfile="full" height="106.11006688654956" version="1.1" width="108.61711995796918" xmlns="http://www.w3.org/2000/svg" xmlns:ev="http://www.w3.org/2001/xml-events" xmlns:xlink="http://www.w3.org/1999/xlink"><defs /><rect fill="white" height="106.11006688654956" width="108.61711995796918" x="0" y="0" /><path d="M25,25 m0.0,0.0 m14.810627743363876,11.96333450763849 l0.49841610497815925,0.39663034417019793 3.298570296478334,2.8142143045350347 l2.428878462871539,3.257404958463184 m28.497641244323763,-12.204764384430373 l-0.11324138289465167,1.095074152835049 -0.5201643322328081,1.119102465225419 l-2.077545235978865,2.9820604106027297 -2.829467748029401,2.84483675668485 l-3.302078081214168,2.5794876094396555 m-32.76774060786195,8.366759519217737 l2.3647381144626447,0.37413529333119266 2.6732151159107342,-0.019806588493129097 l32.17582460620059,-3.363398017973563 5.469519055719353,-0.3403697454663402 l4.908969466623723,-0.02865167740491314 m-24.342604882708915,-19.23610754287244 l1.0183589742958123,0.9459670425686656 0.5244211136378347,1.345432881817296 l-0.177026274375399,47.35389040288025 -0.20893425949606942,2.3739059950660493 l-0.5713525489391827,1.2433796280259175 -0.8135774738739308,0.24754857068858807 l-0.9390254585688869,-0.5206444946746109 -2.273931870739952,-2.675653748689081 m3.2858380767731608,-28.9571755751995 l-2.1969708485448516,3.504171314486205 -2.8181131267062263,3.6756210946030974 l-7.012587237838935,7.320292822522322 -7.114133635064683,8.185494761723211 l-3.6261532695143384,3.719676180893486 -2.6863044052127076,2.208894030257036 m28.10210192643126,-26.17775731484451 l20.5155021469494,21.310874705205133 2.121066623442638,1.7430767041218131 l2.3143835653022893,0.9753129322512847 " fill="none" stroke="black" stroke-width="1" /></svg>