<?xml version="1.0" encoding="utf-8" ?>
<svg baseProfile="full" height="115.36801291001471" version="1.1" width="121.65323722129709" xmlns="http://www.w3.org/2000/svg" xmlns:ev="http://www.w3.org/2001/xml-events" xmlns:xlink="http://www.w3.org/1999/xlink"><defs /><rect fill="white" height="115.36801291001471" width="121.65323722129709" x="0" y="0" /><path d="M25,25 m0.0,0.0 m21.323623608368454,12.446742962026006 l0.3129813300730837,0.3621373923419383 0.4325250250770654,1.413435235544101 l-0.01337548067151681,36.45114233456733 m0.4334816505630552,-36.22250346475378 l12.282312999795462,-2.1827151858151987 0.6430387884194847,0.05777195176589669 l0.8688035769786732,0.7302048284288227 0.20973183707855025,1.4112080689767055 l-0.056200137611790504,32.86029210689254 m-13.703752724305215,-18.50349879638736 l13.326218151325666,-1.9218004658254066 m-13.191394712088275,19.38247048630742 l12.856652151540777,-1.5020267109854086 m7.546163587429839,-34.9920087645239 l2.1275324393110733,0.3039076071834601 2.629306079119294,-0.014686041026373284 l12.74420286538302,-2.141004922787534 0.9133522759554769,0.12309143730046247 l0.9821098150166593,0.606138393791672 0.30127764909951754,1.5933301329396083 l-0.8812990211150198,15.11158979230512 -0.710814072479781,9.971199783975274 m-16.044661215699648,-12.811632424093899 l16.411747921363304,-1.9469178914976861 m-16.336447824103537,13.06789173881096 l15.192677997084353,-1.8555102607253355 m-16.689375734459347,-19.213739546021806 l0.5762693597255576,1.0084356848238658 0.174126717658228,1.3247135493559916 l0.047348229409086985,47.44325038095951 0.2627259514515733,2.1529716729964976 l0.47317622931691017,0.6589733619839242 0.5270305999569583,0.19515848118129636 l0.713406851582982,-0.18336103861799208 8.877868983656914,-7.143931456887683 m11.564208332172392,-22.254115911785497 l-0.4106320610851491,1.5930584238466785 -0.6959910950215793,0.9353527928442762 l-5.122942750170256,5.0162272907013605 -3.5271182227743716,2.9975732541318614 m-8.119885495170186,-5.029065059554677 l1.545141029775026,0.8628422186394044 2.9528257136770257,3.031635415853917 l13.664199544353254,16.900316148428434 2.3135662218438253,1.9839658203300474 l1.927494254490227,1.1003168983975176 " fill="none" stroke="black" stroke-width="1" /></svg>