<?xml version="1.0" encoding="utf-8" ?>
<svg baseProfile="full" height="104.84680395938372" version="1.1" width="105.20531925620077" xmlns="http://www.w3.org/2000/svg" xmlns:ev="http://www.w3.org/2001/xml-events" xmlns:xlink="http://www.w3.org/1999/xlink"><defs /><rect fill="white" height="104.84680395938372" width="105.20531925620077" x="0" y="0" /><path d="M25,25 m0.0,0.0 m7.009936862319537,21.459052891820914 l0.6211457048340577,0.10434170701622125 2.8764512343967885,0.0019658371758693558 l11.855802639339212,-2.0218259109615135 2.6292717247793904,-0.09236487895128767 m-8.571300935154806,-11.230071858056792 l0.7230027794750812,1.2331728799303134 0.20246836303761548,1.6994831491313607 l-0.005246428283807734,43.69305014227864 m-0.493834563573459,-33.50423563512114 l-0.5009397806165411,1.431461695598517 -1.1611482531883244,3.5376105871206875 l-2.2015375032695252,5.335980202202708 -2.6392020589681784,4.737145999943444 l-4.0926550411874,6.134355424421868 m12.482658384671149,-16.571885564621113 l2.9176470300374056,3.0514681337331315 1.667105472950692,2.6030684555101127 m4.106306108272732,-21.510512498802186 l3.0699199331724896,0.14266779291701182 21.364734447644025,-2.209663653724682 l3.344733135512644,0.17605398844916312 m-15.542681183625046,2.6135703701136808 l0.10107423118902864,1.8456546101358817 -2.5586575401596137,6.685546898601864 l-0.31157874714957684,5.687509555423957 7.975426899867101,1.638221650362397 m-11.195257867593305,-10.243180960223041 l2.23177792660037,1.8444642901239832 1.7004314072548787,2.224458000285016 l1.3473537595740352,2.4229578303647967 0.7289481655842189,2.1597744541591415 m11.443322121724819,10.476345717672718 " fill="none" stroke="black" stroke-width="1" /></svg>