<?xml version="1.0" encoding="utf-8" ?>
<svg baseProfile="full" height="109.4925114698708" version="1.1" width="108.80191725678742" xmlns="http://www.w3.org/2000/svg" xmlns:ev="http://www.w3.org/2001/xml-events" xmlns:xlink="http://www.w3.org/1999/xlink"><defs /><rect fill="white" height="109.4925114698708" width="108.80191725678742" x="0" y="0" /><path d="M25,25 m0.0,0.0 m0.37202905863523483,19.563894271850586 l0.7493577152490616,0.16848035156726837 2.682099938392639,0.07715685293078423 l12.072309255599976,-1.7004002630710602 7.004492282867432,-0.45632142573595047 m-9.632964730262756,-17.65280842781067 l0.5032065510749817,0.8054880797863007 0.24952521547675133,1.8994930386543274 l-0.0060303229838609695,56.78752899169922 m-0.3221236914396286,-40.24794578552246 l-1.016356647014618,4.048533737659454 -4.160436987876892,9.119926691055298 l-3.851541578769684,6.727773547172546 -4.575872719287872,6.690234541893005 m16.73756241798401,-19.17440414428711 l1.320313960313797,1.1664024740457535 1.8962755799293518,2.3903654515743256 l2.2087462246418,4.234085381031036 m16.93205237388611,-33.15479040145874 l-0.43196551501750946,2.6070213317871094 -4.0735602378845215,8.589369654655457 l-3.9319828152656555,6.5543776750564575 -4.574442803859711,6.132863759994507 m8.609033226966858,-7.871115803718567 l2.1340247988700867,0.21826473996043205 2.1100711822509766,-0.16673745587468147 l11.343331336975098,-2.4905598163604736 5.393516421318054,-0.8160348236560822 l0.828726664185524,0.11154561303555965 1.284562200307846,0.697338879108429 l0.9479589015245438,2.1283046901226044 -0.056152669712901115,2.060733735561371 l-1.0375171899795532,6.34308397769928 -2.3011645674705505,10.627579689025879 l-2.5878939032554626,8.308718204498291 -2.899828553199768,6.538289189338684 l-2.3674841225147247,3.8161471486091614 -1.2212815135717392,1.3489153981208801 l-1.2391573190689087,0.8355195820331573 -1.2970753014087677,0.3003598004579544 l-1.3943202793598175,-0.2564297802746296 -1.5323220193386078,-0.8346257358789444 l-1.7082209885120392,-1.4347197115421295 m-10.061986446380615,-20.833289623260498 l2.5262221693992615,0.36609839648008347 7.54863440990448,-0.7198178023099899 l3.3238446712493896,0.3537193685770035 " fill="none" stroke="black" stroke-width="1" /></svg>