<?xml version="1.0" encoding="utf-8" ?>
<svg baseProfile="full" height="100.1054631529958" version="1.1" width="96.61701944968583" xmlns="http://www.w3.org/2000/svg" xmlns:ev="http://www.w3.org/2001/xml-events" xmlns:xlink="http://www.w3.org/1999/xlink"><defs /><rect fill="white" height="100.1054631529958" width="96.61701944968583" x="0" y="0" /><path d="M25,25 m0.0,0.0 m20.458340334217855,4.20860033798305 l0.00338779912565184,0.4506160681547423 -0.3571455008756478,0.9690884892969217 l-1.1042448581980293,1.5605282849534998 -3.5483942865984286,3.890789530139685 l-4.14134576997275,3.396368186276222 -4.712964623618666,3.098796505329932 m0.8673495988546726,-11.439481199131794 l3.9048064177261765,1.0789188682989033 4.4058680644246815,2.0150655398573547 l3.701570602304523,2.391045317592273 2.9767379351143166,2.7296105477726345 m-17.45065844237528,9.30358477634913 l1.4477584826505387,0.1641450798586543 1.5055598812082984,-0.09952204098833232 l13.2909469957954,-2.1418480815739596 1.8486133437334022,0.021051831586072288 m-7.714422743292388,-5.362713417394714 l0.7749706221751022,0.9248271380446282 0.20163530866548784,1.487125673079781 l-0.07477839752005046,31.458865717511113 m-0.5804491591508782,-26.081110015434348 l-0.1120364228765508,0.9746589003793323 -0.5539992378862459,1.1626359896854785 l-7.179347150110652,5.165897968813865 -4.83003820530886,2.5297216868156958 m16.346122630982105,-8.032238445565293 l3.3251691718876835,1.878257543843325 3.405578322878066,2.933459680823203 m8.76038759733149,-24.672930670240103 l0.6591353004721653,0.873575917100925 0.23679715086531222,1.4732141914311976 l-0.013449622844087985,20.897173774191064 m9.924701014005946,-25.43813066912043 l0.6968817532196766,0.9059641910073938 0.2479755426757987,1.3277484478377615 l-0.08675555499298535,33.41661410097896 -0.32993355622894044,0.9583755163125636 l-0.5060229748830716,0.37407905932778734 -0.6558066219087845,-0.05590282575687258 l-1.484704546272322,-0.8799008496964381 -1.6618573677934234,-1.4981919966000938 " fill="none" stroke="black" stroke-width="1" /></svg>