<?xml version="1.0" encoding="utf-8" ?>
<svg baseProfile="full" height="98.96141564694122" version="1.1" width="105.89796827872391" xmlns="http://www.w3.org/2000/svg" xmlns:ev="http://www.w3.org/2001/xml-events" xmlns:xlink="http://www.w3.org/1999/xlink"><defs /><rect fill="white" height="98.96141564694122" width="105.89796827872391" x="0" y="0" /><path d="M25,25 m0.0,0.0 m12.58282988870128,5.819211092443159 l0.42133790879409927,0.2445209798463849 2.738262169758683,2.065183491625297 l1.3286897116472558,1.7857512307036811 m-8.2633574296584,4.7132990416611635 l2.9971943977538587,1.9694341467751855 1.5536526672217088,1.9671791634661941 l0.5950214714143515,1.0741998577418033 m-5.075261165912521,17.153013930894367 l0.6217781615166086,0.4321643262087744 0.9084068794106122,-0.43832917942820837 l3.2020312206549,-4.393374277786537 2.8039216603695194,-4.810361840207995 m7.813359318214641,-18.24980745732533 l0.5170149417399122,0.7897532994082254 0.3349367402058767,2.8939719054620925 l0.7345321147899345,17.615144485298643 m-0.6593927401868067,-20.375584178412666 l15.984651217546793,-2.197960163748772 0.6483447287061929,0.010738388056295727 l0.8400568049456705,0.40318462870442023 0.4521748526391348,1.0138894392877902 l0.047512307058596784,20.35998424520903 m-16.969305173941887,-13.078296595241317 l16.59911053827127,-1.7250061035226418 m-16.37324231329781,8.70834602956308 l16.38057859096247,-1.4469913610365686 m-16.009413455595297,8.850842331177487 l16.39076036023015,-1.4030342260138666 m-26.83927812565565,3.4376093700496604 l2.634798671494601,0.3353911769649641 2.741802632327041,0.041730454777244436 l21.11912289214731,-1.7200612624991936 3.3788287471863603,-0.021537390176110522 l2.2134446297859434,0.300909053961068 m-21.90053411783764,2.671819543735674 l0.006544476078004023,1.202327322009899 -0.5413114711229134,1.1687122895367492 l-1.69276896392952,2.36205601258561 -2.2338188379139203,2.439343468843119 l-4.358417785652433,3.7070848255398414 -5.411088442468934,3.284964150803522 m22.458337265612418,-13.902084714221502 l3.002718446815871,1.8739410749341534 11.911835919952109,8.62668264025476 l3.5910602129760365,1.3420083718948868 2.6705057549684135,0.6044395938225436 " fill="none" stroke="black" stroke-width="1" /></svg>