<?xml version="1.0" encoding="utf-8" ?>
<svg baseProfile="full" height="104.37365389772827" version="1.1" width="105.71283036094214" xmlns="http://www.w3.org/2000/svg" xmlns:ev="http://www.w3.org/2001/xml-events" xmlns:xlink="http://www.w3.org/1999/xlink"><defs /><rect fill="white" height="104.37365389772827" width="105.71283036094214" x="0" y="0" /><path d="M25,25 m0.0,0.0 m13.093231552050325,17.2704431787941 l0.5112255603338832,0.13434642066269342 3.4517164207289843,0.2023996538451099 l28.591490845208558,-2.783382510102182 3.9192561300729576,0.19694608358229004 m-19.367923460056378,-12.520531430016565 l0.7805678791600626,1.3673402836567157 0.30088612936597037,2.1201627986990936 l-0.017737893958242174,45.84283752479189 -0.20506668359851488,1.5362444269734956 l-0.41444543058149386,0.8117111063296253 -0.5846229447057512,0.195136360512018 l-1.4260319324222526,-0.7664994714445791 -2.018159075036553,-2.217669284148532 m-8.185365330989834,-29.432543299642006 l2.583496169842654,1.2274897378057852 2.0217047248100286,1.5259526096245408 l1.6132264870867268,1.5803575291238932 0.9487123431407946,1.4910747344554744 m-10.691712644347133,15.047141349017231 l1.2798860380483879,0.3054885327696741 1.0886079326684976,-0.5013959169692749 l11.891830887990544,-11.225041025786192 m19.73603753010101,-12.39384494777964 l-0.38640198776973694,1.6729082739077101 -1.9017968239654517,2.3916758620021237 l-2.861340573325896,2.638346224707371 -3.224687677335305,2.3016030993702032 m-1.8897301976924077,3.0897384850583407 l2.5641599069646706,1.8877009217556462 9.82415981788033,9.474511442705671 l2.5173564653757374,1.9361408943257532 2.170300195896974,1.2226849359313965 m-11.93597748994573,-44.92513678620462 l2.0751319888337125,1.1432126268345006 2.0956359807623284,1.6797089071514255 l1.664069736614856,1.7212884921063694 0.6711164897368767,1.0632186868477878 " fill="none" stroke="black" stroke-width="1" /></svg>