<?xml version="1.0" encoding="utf-8" ?>
<svg baseProfile="full" height="101.86177504125664" version="1.1" width="99.27537861029218" xmlns="http://www.w3.org/2000/svg" xmlns:ev="http://www.w3.org/2001/xml-events" xmlns:xlink="http://www.w3.org/1999/xlink"><defs /><rect fill="white" height="101.86177504125664" width="99.27537861029218" x="0" y="0" /><path d="M25,25 m0.0,0.0 m12.825948453942459,18.483963472394578 l0.49968285470885254,0.09458158440707862 3.4169223131091555,-0.0006091788428716494 l24.516534756979375,-2.4395955381474965 3.520094967258801,0.12430050249521037 m-16.412003376967228,-11.253472946816489 l0.696153629541494,1.1427976543125014 0.27831516049453026,1.8131140835719963 l0.016932438039411225,42.20137578661531 -0.24158376638674955,1.103147975360539 l-0.40279188486584266,0.5046196893541924 -0.5348861525433535,0.08755195655208721 l-1.2797971027267223,-0.7084768694102015 -2.0774093649983096,-1.9031781190869792 m-10.288751646079076,-25.79263877459726 l1.758730119008714,1.030558385782011 1.898366709546242,1.4798664348400055 l1.5359257110519893,1.538911902960415 0.6332859564324927,1.0062768067892776 m-9.995080717829953,13.520604201377239 l1.25626007167922,0.16169594239545507 0.9523037559980181,-0.45183397061108643 l11.734492675150891,-10.406103197872385 m18.362472807282984,-10.053012274311786 l-0.4235817609113819,1.436115526037101 -1.8247322576316762,2.1074027203398717 l-2.7083104585297013,2.295063277352288 -2.9462549017644846,1.9804612428667403 m-1.8492271102074898,3.1052960181718907 l2.3719514466322016,1.6337233686130805 9.27700909980167,8.341373416594102 l2.5311015465502034,1.6811144515181031 2.1773046385254307,1.0496624822797254 m-11.715131727081973,-39.56175592000582 l1.9156293508401245,1.031840549102095 1.9883963032254177,1.5086345483583736 l1.5597078337861294,1.511039576654532 0.6396969068509128,0.9380470267737835 " fill="none" stroke="black" stroke-width="1" /></svg>