<?xml version="1.0" encoding="utf-8" ?>
<svg baseProfile="full" height="110.52721043689948" version="1.1" width="105.0410303335218" xmlns="http://www.w3.org/2000/svg" xmlns:ev="http://www.w3.org/2001/xml-events" xmlns:xlink="http://www.w3.org/1999/xlink"><defs /><rect fill="white" height="110.52721043689948" width="105.0410303335218" x="0" y="0" /><path d="M25,25 m0.0,0.0 m7.36612275239034,23.40077180473751 l0.37944674745306595,0.11712686826560119 2.414470578995818,0.03858954799032812 l12.72642318215877,-1.9175083750678907 1.7465772978833383,0.05415982447921461 m-7.919618955580134,-13.906355145545554 l0.9090813980254272,1.1071952198885664 0.5028367371579141,1.8391965612496077 l-0.15743112310372404,45.14005833655102 -0.18733256520904673,2.341797398980852 l-0.4450933311688558,1.098998149377059 -0.6372152538123178,0.1479221987410079 l-0.7479219154942743,-0.4927967595943948 -2.0291307107340577,-2.4452825750566465 m3.8797626063070747,-31.219961785172742 l-2.7661976485341975,6.693536112884218 -2.2282736916474155,4.75432163509637 l-2.5422067398666863,4.50305408679284 -3.8312276894109787,5.882289137221986 m13.07309244418834,-16.453048328101126 l2.8270066999919297,2.9393783026121487 3.1206491966821006,4.427826592236645 m1.9751397096030177,-17.542218432667028 l2.505885431631363,0.2671443535752786 21.118786131149772,-2.9823614992920375 l2.4643100642746147,-0.20604026281057516 1.523088980190609,0.2852609761820844 m-15.210791177075821,3.5429056226643687 l-0.11712490388957417,2.1926650576697115 -0.8236920492679414,2.83282610173501 l-1.3997182653505829,3.25265684028888 -1.9041692232660274,3.402029810851671 l-4.503068159319037,6.325820425137072 -5.059254656336572,2.9624288287751877 l-2.9178237978897648,0.9671347550929532 m12.738017481696504,-11.124694444331181 l1.2234937149089002,1.2332059718830526 0.36474702654922586,1.9058983220691994 l-0.03769299312784094,25.161279201509227 m5.281799489201272,-30.504471482351345 l3.1027858794626755,2.170324708632397 3.5475204679464625,3.2764897800769957 l2.793145289739996,3.3577487239817603 1.678609447577715,2.8408471674324156 " fill="none" stroke="black" stroke-width="1" /></svg>