<?xml version="1.0" encoding="utf-8" ?>
<svg baseProfile="full" height="118.27737925499031" version="1.1" width="113.6768702767699" xmlns="http://www.w3.org/2000/svg" xmlns:ev="http://www.w3.org/2001/xml-events" xmlns:xlink="http://www.w3.org/1999/xlink"><defs /><rect fill="white" height="118.27737925499031" width="113.6768702767699" x="0" y="0" /><path d="M25,25 m0.0,0.0 m7.089792706578786,25.340647209238877 l0.5724075390903459,0.0900111050158284 2.830823572980833,0.027998241455834637 l12.684805975258678,-2.0687832551057674 2.1996655846851874,-0.08329484947934483 m-8.208467629942882,-13.147010337533073 l0.7529503734719293,1.2848045320658565 0.21003693585393945,1.8346292523580323 l-0.10526889983565162,44.49279416510137 -0.31828722319865155,1.893791314713799 l-0.47326949644544436,0.9128289815859264 -0.6041780706394843,0.24721180954567412 l-1.4376901580231012,-0.8932778746891468 -1.6903788775093844,-2.0050351853403257 m-6.912502106700185,-13.462308874501815 l1.4668040752890148,0.4359378983004592 1.41708520486456,-0.4009076751808281 l13.85192211667738,-9.190949014891517 m15.466162679880883,-11.55206572726645 l-0.02401757619716463,1.7233830460957449 -2.015683574165278,7.126745868353994 l-2.1469040322169173,6.034919722928898 -2.459944759498468,5.484181993041656 m5.620097648671286,-23.439518294446994 l1.6306849375956007,0.4966634699174763 1.657371828671988,-0.11949579824808033 l14.887121385725655,-2.834707505793835 1.0707966391786463,0.09499241510668568 l0.5341623933158592,0.29536568559322096 0.4006007097955976,1.1285540128943645 l-0.15313828013281314,0.780932999159192 -3.5586261484513018,7.621883029976308 l-2.6622671047563284,4.391441236986033 -0.9397160862492454,2.006960481871032 l-0.3528440144838123,1.4536503830916125 0.08555564494910282,1.9782661495909704 l0.4428330245611466,2.0318952253309255 1.1028561063347966,1.0902261058084755 l2.086831523389833,0.486721269998674 3.6148883027349368,0.0857642521140637 l3.3088938614252044,-0.27864851954704695 1.3083335074425289,-0.42741781296154 l0.786013812070839,-0.6682362749597821 0.4849940183380133,-1.3427869094565497 l0.17556220638346362,-1.9079892655514812 m-32.996487134851016,15.110293095044703 l3.3381418168191965,0.20599777381210263 13.704163408617797,-2.326510333252213 l9.938740455593338,-1.0430259798633164 2.462904085066201,-0.08526170928881197 l2.38139355389124,0.2644358496404472 m-18.038971231074694,-8.517357863892192 l0.7186068479682719,0.9185607085665959 0.34869022235750324,1.6658641463317547 l-0.004541895089270392,25.033614885603814 " fill="none" stroke="black" stroke-width="1" /></svg>