<?xml version="1.0" encoding="utf-8" ?>
<svg baseProfile="full" height="106.83046599057727" version="1.1" width="102.9539342254698" xmlns="http://www.w3.org/2000/svg" xmlns:ev="http://www.w3.org/2001/xml-events" xmlns:xlink="http://www.w3.org/1999/xlink"><defs /><rect fill="white" height="106.83046599057727" width="102.9539342254698" x="0" y="0" /><path d="M25,25 m0.0,0.0 m1.6568052681217633,21.817203007311917 l0.32743832752945606,0.09095137550198414 2.0608552585227122,0.026079705263239796 l15.14372019252647,-2.016493080197575 1.7785663978197725,-0.016140882536264188 m-9.477273641896899,-12.445975283893494 l1.0544446971452288,1.249513439699243 0.7204554138740933,1.6746177006818412 l-0.21253191227663173,42.69553792416016 -0.14039252686392342,2.319527177687265 l-0.47993510581457016,1.1699529255694234 -0.6978658680437145,0.26569198132952054 l-0.8228713982080424,-0.3949677328055288 -2.1003219625724787,-2.227772974396042 m4.081769365527976,-31.746433249419635 l-2.8144577476591626,6.216193886170919 -2.3523305359384663,4.389140918791613 l-2.70493491504333,4.201282092384615 -4.0948372287069414,5.450357657200204 m13.703708859136352,-16.326113090241797 l2.7671801625712216,2.3222978027471837 3.407868871513216,3.7819923668804623 m3.379134190917129,-15.75453458866372 l1.3080661601483117,0.2449989332394702 1.9343867314952679,0.008475520442337002 l22.59692082225582,-2.9138705260338926 1.4002813328400283,-0.06612145822113032 l1.5300850165491253,0.3038620880150139 m-28.418214805462252,-11.15079461169207 l0.8793778495046307,0.9877105432348939 0.3908546231453761,1.6541250600700674 l-0.17381082576452603,43.6178698723905 m15.633647195354698,-48.42548966655622 l0.8295500484067009,0.9456018055517549 0.4026221102571832,1.7982071684250895 l-0.16401787612669264,44.381390603909814 m-15.666741469238822,-18.018371077615615 l10.329005918046349,-1.1064435559156918 m-10.275483801108422,17.830141308240215 l15.840430323709324,-1.2431501917515155 " fill="none" stroke="black" stroke-width="1" /></svg>