<?xml version="1.0" encoding="utf-8" ?>
<svg baseProfile="full" height="105.24126239629499" version="1.1" width="98.9083338079775" xmlns="http://www.w3.org/2000/svg" xmlns:ev="http://www.w3.org/2001/xml-events" xmlns:xlink="http://www.w3.org/1999/xlink"><defs /><rect fill="white" height="105.24126239629499" width="98.9083338079775" x="0" y="0" /><path d="M25,25 m0.0,0.0 m13.64257650573772,12.773062078506388 l0.47656327000220694,0.1555050480544 2.491245874891726,0.07498185397657692 l25.850323911600626,-2.3761569127870406 4.074198618775005,-0.15720004694495462 l2.3734256269702203,0.24497348012129816 m-26.982855351729288,-4.08051690480617 l0.9784111804556196,1.4150458897392406 1.3066809004651814,8.929330234722745 m13.994728747233335,-11.70958752386513 l0.22156092970141503,1.35129098207055 -1.4427854547445484,9.543134968089367 l-0.7585662622544775,3.3182748128616133 m-18.452748623557536,4.781521124093751 l2.340075652262273,0.27499796017772654 16.492823464894347,-2.206532333475397 l2.5465702711863925,-0.14545123108083177 1.5023052270059403,0.23611357508442635 m-23.655620476117882,11.045558649668479 l1.3437168154760575,0.2613643715483743 2.4380975611088163,-0.11365568239453995 l15.945466878531995,-2.1564960410752785 3.7381424937102348,-0.1580190110287212 l1.8129079246788384,0.22929765467438717 m-13.0666284798501,2.704639493797674 l0.6821652217615561,1.0579953616081283 0.28389082176242963,1.2569607044837041 l0.03683465153337858,17.410896828751618 -0.2709265839370585,0.9855164362948405 l-0.4189727290852648,0.29441657542775 -0.5276323303904329,-0.20347802976497384 l-2.184433203409338,-2.0973782755207395 m-6.143125449708133,-12.055058834094666 l-0.013698394170242639,1.1053801162290604 -0.3148195822697931,0.8855029443964488 l-1.6559782090893342,2.735503155137041 -2.850543429673558,3.4836431970164585 l-3.0930183061990593,3.0103410498643384 m26.208020629742993,-11.206327580962236 l2.127257788571175,1.9538916813255207 2.3688549813919524,2.9020188699706155 l1.719995771589007,2.710513116669651 0.8699572961452277,2.1829110766018607 " fill="none" stroke="black" stroke-width="1" /></svg>