<?xml version="1.0" encoding="utf-8" ?>
<svg baseProfile="full" height="108.5421970630133" version="1.1" width="105.68074590803376" xmlns="http://www.w3.org/2000/svg" xmlns:ev="http://www.w3.org/2001/xml-events" xmlns:xlink="http://www.w3.org/1999/xlink"><defs /><rect fill="white" height="108.5421970630133" width="105.68074590803376" x="0" y="0" /><path d="M26.499901208925507,25 m0.0,0.0 m25.322694623305416,3.459580451445534 l0.06698724524773332,0.49697085131215263 -0.38318269169021507,0.959670688772092 l-1.029218661860787,1.3087350792413543 -3.345669934228466,3.095714014513602 m-3.153248400252429,0.5837535889119585 l0.9093949099755305,1.3027258720107926 0.11443613942564229,17.876813072749098 m0.20219751181262796,-18.255535632783516 l14.075909470357379,-1.4871476876700147 0.8287454429693676,0.039474752802132966 l1.1808485028116689,0.3751690347503252 0.5916265105321075,18.166547843038458 m-16.11404253310816,-10.553895001892677 l9.67158959558947,-0.94276596746399 m-9.341811767216454,6.757797705292436 l9.49918763529389,-0.9131407002680827 m-8.993345248289534,7.421806283694391 l12.909704892538052,-0.696247565422175 m-26.225283085085014,-16.895041683774558 l0.1869153776563364,1.1961039757169567 -0.22592398890225893,0.7610749175870315 l-4.702717720189509,4.935633311661271 -0.06676890406676281,1.8814710411043385 l0.31552590707300515,0.28541739094787927 5.724098665459529,2.0821908774375752 m5.6447117360947985,-6.2046830105459225 l0.03550409513555612,1.4084936682635742 -1.2442395594318698,1.342416785157732 l-5.018499584312089,4.424115356093325 -8.588569110855637,6.822992276605993 l-0.3474582807144437,0.7697521638843339 0.6932812676042439,0.31428475733775246 l15.730200676069233,-3.187782806032318 m-2.670258372876227,-3.1287378549964178 l2.6214593493100957,3.135524274527131 1.6521218461683067,3.1431685195408225 m28.692744168539416,-23.05823231260358 l0.10234755999130125,1.15897841384776 -0.2816699909223726,0.5705984162823374 l-3.540632354374412,4.393064293768845 -3.9140711610767323,4.691484178327862 l0.1800084512283186,0.8418913773585881 4.737356121035039,1.2323291769228035 l2.440277116613231,0.9604913515114801 m5.779089248766036,-6.441890885349873 l0.009156389229461945,1.3507021103280776 -12.945996855216611,11.477349224136585 l-1.0074202827348107,1.1624487455753836 -0.00992630833518601,0.39020598809351836 l0.6620439863893705,0.1378002826167912 11.633439765930797,-2.5166217438708784 m-2.0476802820256004,-2.1477561596971784 l2.7667585116681783,2.7684804141152033 1.8165831476049257,3.11524436248327 m-52.152278416260295,7.79123304390877 l4.134717289279687,0.35745409126355693 36.11193800322796,-2.387197568123664 l12.046156289099596,-0.6658136084517097 2.441000744100816,0.054690208850780526 m-28.925185655361858,-4.835965886468292 l0.9369138392786212,0.650024329491077 0.23321203074255165,0.6821305486082171 l-0.1422849868022182,21.194028526445873 -0.24980930376687743,2.4280534721695037 l-0.6246007091777868,1.0650226926014612 -0.8322208741418192,0.03954933532037726 l-0.9065883683056369,-0.5423185016678258 -2.051908484839877,-2.0024304787951794 m2.8094383226216117,-16.634301798685303 l-3.8445934826304926,4.91244002322941 -2.6272126793089003,2.6017113987282183 l-2.9876736941161797,2.457885587799736 -5.82932403802242,3.746617385280323 l-3.8304648761420044,1.744445269902764 -3.1177264846084434,1.057598516234734 m26.130276417445312,-16.320189109109418 l6.453228385982579,4.59221624577704 8.008576583968038,5.013801872988576 l6.168664771283285,3.290193161237259 3.094255816340788,1.397018405861196 l1.6446024752424981,0.46879360327892017 " fill="none" stroke="black" stroke-width="1" /></svg>