<?xml version="1.0" encoding="utf-8" ?>
<svg baseProfile="full" height="111.15952056178442" version="1.1" width="112.50733489440924" xmlns="http://www.w3.org/2000/svg" xmlns:ev="http://www.w3.org/2001/xml-events" xmlns:xlink="http://www.w3.org/1999/xlink"><defs /><rect fill="white" height="111.15952056178442" width="112.50733489440924" x="0" y="0" /><path d="M25,25 m0.0,0.0 m9.36347785505085,21.59216702125438 l0.5263730255086309,0.08741047459688456 2.6595579793675004,0.030837912325647223 l16.786069261208542,-2.0473592518159016 m-8.679628268709672,-14.97550571051264 l0.8336826170818454,1.3940023509396897 0.31301153125475695,2.1473096105570595 l-0.0008256314852049204,52.9306581544393 m-0.5043280674468853,-38.68491455184797 l-0.2656307782086143,1.8823412855166406 -1.3105870264810218,3.0194719779935153 l-3.7091540542061368,7.416276678985714 -3.9956379611660697,6.537167193118559 l-4.914247111454452,6.795677159080142 m15.60707319387145,-19.044058320320445 l2.8898127598858316,2.52865845733876 3.046372413808626,4.209743856248525 m0.7213302482430032,-13.027233909943506 l3.5778759892101744,0.3131327898928155 23.70708129638844,-2.3884859904518003 l2.9113507721041336,0.09295176896103237 m-17.836119248830467,-14.697579030322302 l0.7498746270787673,0.9535602783308762 0.42327405530917883,1.631727523077593 l0.011614183150265954,29.380716249159835 m-12.109504782322446,0.8594855666945717 l3.821856500683594,0.8198380716359556 16.81410110915195,-1.481301674422806 l5.484954377090014,0.21625375109515943 m-29.0243272939645,-33.96305470458187 l0.7624279169088177,1.057445944450464 0.2893121849023171,1.7582835147990898 l0.0286507254640485,44.163366002978464 0.2589646081242984,1.9211573222017733 l0.34509601206482987,0.9479425485690268 0.45896654574469103,0.49459932494670383 l0.7362578849748027,0.19022219342212093 1.064006793812703,-0.023137656757597724 l26.92595683232039,-1.2916139042506571 3.7389418189202694,0.3998038221752024 " fill="none" stroke="black" stroke-width="1" /></svg>