<?xml version="1.0" encoding="utf-8" ?>
<svg baseProfile="full" height="110.37616632253592" version="1.1" width="105.12652374024842" xmlns="http://www.w3.org/2000/svg" xmlns:ev="http://www.w3.org/2001/xml-events" xmlns:xlink="http://www.w3.org/1999/xlink"><defs /><rect fill="white" height="110.37616632253592" width="105.12652374024842" x="0" y="0" /><path d="M25,25 m0.0,0.0 m28.489083557921056,3.928517323587992 l-0.02536225403650494,0.4821264642455493 -0.42551699898507506,1.1700803103326152 l-0.7685873877351957,2.9883708795246133 -1.5838242404986702,5.0024559407049445 m-4.889402213778114,1.3796725612356748 l0.6718940257613755,1.1043808902647503 1.500206917199438,1.912646900749324 l0.8816797610298003,2.0604784867900197 0.4665753276077897,1.5224494449218198 m7.864560145436703,-9.620949907740895 l-0.18482728947204627,1.3045853321073104 -0.7914115202406746,2.3988304659135276 l-2.296108413795299,4.822087115587413 m-9.004664158218612,6.386417524283874 l2.4263951689755716,0.15578132690046642 7.9666619044282605,-2.408436933381903 l2.7815746793202636,-0.3484486140923908 1.1809302731314635,0.15691771644214364 m-7.103801718171865,-11.676907959091801 l0.3427516992044747,0.8185716639256131 0.1650920436970169,1.5300958218783793 l-0.018191862698367697,29.794642451158033 m-0.7067156657650923,-17.387045413857543 l-0.20055613307569506,1.2673631885747354 -0.6875724750457349,1.826056749754434 l-2.580141123524764,4.662676696095526 -2.891121970387667,4.109694558132389 l-2.7892478519919126,3.176234463638413 m10.814251315798355,-12.796064100717173 l2.62186860467077,3.0657839003606773 1.3710516473543517,3.717273976883483 m11.578322671566854,-33.906223582227305 l-0.2305846350681652,1.5842420966597803 -0.6904268633428379,2.7385994987956166 l-0.7780790409329276,2.557994354999341 -0.9184473845768132,2.391923828265197 m-3.0489043940125113,0.7082612469974559 l0.3198934392255943,1.0736147753566017 -0.005625197047924714,26.726258475282364 l0.06047815034153813,1.2601150240511467 m0.025515865566804206,-27.216954326646462 l9.977709603562431,-1.8443979297002084 1.0470129169900522,0.0689319075774211 l0.7151002150595506,0.26935392200518754 0.5683996648199013,0.3803268241337379 l0.23584795040522805,1.0286627548028773 -1.1399649222841772,12.541251235027461 l-0.6366528958149046,5.682189495775815 m-10.548299338955422,-9.90584294607962 l11.360946696864472,-1.5020080354991532 m-11.479902712670606,9.4110023171911 l10.711928745316916,-1.396401056139996 m-10.684119430388252,8.921705416995016 l14.741156200999463,-1.9311869542218814 1.3476946405087575,0.0013260729580250924 m-16.293315903609468,9.589783603638699 l5.804869847095504,-2.8112248758905554 7.525395302343718,-1.529619475263319 l0.8996719165491032,0.10291625888946176 0.5798336632350709,0.5666222354263423 l0.2245055393724632,1.2270456337707834 -0.061334165762599244,0.8544822136424882 l-0.7611446306545707,5.2513371869182945 -1.0735401570358554,4.417070676612382 l-1.2053758129292338,3.7612497955883093 -0.8572904405892352,1.9674052308897143 l-0.5107343217519297,0.623271877587743 -0.4677199114679199,0.20674231925402592 l-0.8079381994684989,-0.4724839589050604 -0.9139894301622825,-1.4421912340497356 m-11.870962790950019,-7.674317988586967 l0.0764478617090075,1.7540006177601608 -0.10611417494114576,2.2217281024731528 l-0.3712925725100963,2.154359419790647 -0.536346392091199,1.5897089825616197 m4.67483008829308,-8.538639028112843 l1.100699041738174,2.3507648575693443 0.9403869443422128,3.699810249582244 m2.0971819617447993,-7.3858811786776855 l1.0934661225024958,2.46114300537567 0.7598063330540594,2.755672298095447 m2.117766649021953,-6.745103435625097 l1.4314269298460904,2.467357150242954 0.8286503739814689,2.3553211553596856 " fill="none" stroke="black" stroke-width="1" /></svg>