<?xml version="1.0" encoding="utf-8" ?>
<svg baseProfile="full" height="95.8098768859721" version="1.1" width="109.56900143343314" xmlns="http://www.w3.org/2000/svg" xmlns:ev="http://www.w3.org/2001/xml-events" xmlns:xlink="http://www.w3.org/1999/xlink"><defs /><rect fill="white" height="95.8098768859721" width="109.56900143343314" x="0" y="0" /><path d="M25,25 m0.0,0.0 m15.157034000017967,4.199537001659497 l0.48102282410531716,0.18993261548491305 3.381438341848163,1.9142984067000446 l1.5987928155281332,1.1894238015215552 0.7266159832191322,0.9792524302337339 m-9.525794873750753,8.066012897979899 l3.9258670340639013,1.9785839922406803 1.8028538466328161,1.2816938044017874 l0.74545620090747,0.85811982256085 m-7.099306307320947,20.627344133664938 l1.1033770726525627,0.08042238379908595 1.1452598589072496,-0.8007857349374092 l2.2737129556599895,-3.691617014940557 2.4620654163424254,-4.701213735342105 m21.4067036632751,-28.955997166347363 l0.6875071819274875,1.4043363803150937 -0.00876186670104999,4.028881753944182 m-14.752351063849902,1.7170950886739915 l3.7784024891917283,0.08831907553423415 21.865136338766515,-2.1764134157720156 l3.5190856683968783,-0.18140091003169354 2.3705941373555306,0.218367022557595 m-28.295373449840987,2.9084538683344294 l0.5790116746088619,1.1354220754319726 -0.1348831441022895,4.471501515915535 l-0.5556984530883112,6.110117938796013 -1.0539755997367657,5.612934042021632 l-1.168642954262819,3.837275457120474 -1.5178564134587076,3.5657915540063216 l-1.9731065780363684,3.360489578137996 -2.4041357411100894,3.0492211450917055 m11.590791144335194,-25.853718958222508 l2.5151759218018985,0.14458734920042912 19.684733881746823,-1.8901316172246019 l3.41155457566738,-0.14538870619526098 1.8466948517336246,0.21045220102178902 m-21.622302441211104,-2.6389330728183 l0.6251884054966415,1.012800275340856 0.9465862455507541,9.716369224856185 m9.815205368509586,-12.435122981971661 l0.4634261730829936,0.7368259914262052 0.08352698342649273,0.7769995949041267 l-1.2399791274420573,8.631443602075732 m-8.505553321480091,1.408191853333283 l9.709802524608042,-1.0690932869413554 m-14.753375589482689,6.362556749908299 l1.2391910645485655,0.1843615522948095 1.6204894568982122,-0.11952825949494046 l12.864684284709087,-2.110493656975799 0.8009897609384904,0.11379042856971917 l0.5034955127182038,0.35015403314940935 0.15486210731645952,0.49767626222136685 l-0.18680136046157333,0.5550715832904782 -1.7802878645449816,3.6477705322240643 l-2.1362343644971626,3.061368983150181 -2.712167512595452,2.9255123713062368 l-3.0286423813184213,2.5663080015894026 -3.2508783916508626,2.238202353690244 l-3.5007938366889495,1.9464200520153832 -3.7328179467836566,1.6012537366164998 l-3.136078613291656,0.9930533835959146 m6.311568783152873,-13.911057483748385 l1.538635642525837,0.5047602188196516 2.6022666934688066,1.3988135297934217 l13.509234346132605,9.336786443805206 3.0530176343106543,1.6909211608417898 l2.418923186159586,1.0054936317672014 " fill="none" stroke="black" stroke-width="1" /></svg>