<?xml version="1.0" encoding="utf-8" ?>
<svg baseProfile="full" height="90.293227239049" version="1.1" width="92.76468804427532" xmlns="http://www.w3.org/2000/svg" xmlns:ev="http://www.w3.org/2001/xml-events" xmlns:xlink="http://www.w3.org/1999/xlink"><defs /><rect fill="white" height="90.293227239049" width="92.76468804427532" x="0" y="0" /><path d="M25,25 m0.0,0.0 m6.452768236536643,18.02028729874584 l0.6157024160589183,0.110990713403703 1.8078146786047573,0.002005986539298176 l14.55004068740337,-1.7925338155131567 2.609199391423481,0.08540053065624581 m-10.16546991362616,-6.986075782270976 l0.6829918504100508,0.7105519562149334 0.23057104376902235,1.096940571794753 l0.026362578579015222,12.760232274226682 m-9.811553828515354,1.5834182604839189 l0.6843108371168791,0.050844762398443794 1.301037013556372,0.023206356663474034 l13.816083524501824,-1.6119647212013126 2.0970877364269027,-0.03321793233082791 m-15.907818221617058,2.43798738437928 l0.5016507523955935,1.0034283787464922 0.11506581847483437,7.570067635514752 l0.525412938658578,0.8726877936855585 0.8095722426688532,0.12545758255758171 l3.1499127974289185,0.03713842138778728 4.871528848684336,-0.19674762418139072 l2.7738986173985625,-0.3453992573569276 2.1302389468813514,-0.4268529083453704 m2.235691982622496,-20.098701669900887 l1.4457449385787842,0.24846308514691653 2.1819345369307808,-0.15372439699838059 l10.658094337112153,-1.3622875865784863 1.694572560219159,0.20641815029164673 l0.6045136318797006,0.6126108568393298 0.0777270637125608,1.0278499695870307 l-0.7122321918460847,3.7454018458934826 -1.1530339733337596,5.40084814120783 l-1.376690868478812,4.827020065396159 -1.4457988796208143,5.564451797721698 l-0.610365697154458,1.865211117942011 -0.8008632000057639,1.312872218885603 l-0.5484121285443845,0.4204602767571192 -0.9931938529839714,0.04948558693705218 l-0.9085602313205211,-0.4985388621064445 -1.2513724000033954,-1.2802785899005644 m-0.4295224357759563,-21.30804981234681 l0.30272738589088954,0.7035322026819798 0.0778840157287232,0.87329301400009 l-0.7736391265351923,9.14643058117937 -0.9742122580036278,5.355787157076098 l-1.0651942657080071,3.624164340523349 -2.980700317258489,3.4749199663672274 l-2.1391726414046053,1.4377339162478124 " fill="none" stroke="black" stroke-width="1" /></svg>