<?xml version="1.0" encoding="utf-8" ?>
<svg baseProfile="full" height="106.53576294750238" version="1.1" width="103.30673644923476" xmlns="http://www.w3.org/2000/svg" xmlns:ev="http://www.w3.org/2001/xml-events" xmlns:xlink="http://www.w3.org/1999/xlink"><defs /><rect fill="white" height="106.53576294750238" width="103.30673644923476" x="0" y="0" /><path d="M25,25 m0.0,0.0 m8.225921208054636,19.184057941972313 l0.534400830552346,0.1011554190679424 3.4265055569185323,0.0964874967912818 l29.207373010431994,-2.49034485998879 4.36232989454886,0.17321710484057165 l2.806892100844116,0.3314743528039148 m-21.42013620038813,-10.710392933593656 l0.25828630254504226,1.2093711277530572 -0.15682827038921868,1.1162554494734462 l-1.8190176886451903,3.9989977123741896 -3.0651921382615464,4.834526909518266 l-4.047857746397486,4.884186549169041 -3.687755883086572,3.6944477776607156 l-3.9725723923252856,3.5314198761014426 -4.536230214953424,3.51925010410312 l-3.9820338563134574,2.5868288180201136 m27.245243918094804,-19.272759569462643 l9.724931911855391,7.97597637200926 8.735510064491452,6.133161680291948 l2.9457121582422605,2.3351594267876727 2.521253883415651,1.6409229631793916 m-36.65223338727531,5.572646057776543 l1.8905669266945249,0.22542992128232026 20.67747818687782,-1.7800319130452837 l3.9892865309230827,0.11456585503295766 m-14.122969521057849,-8.522701614645719 l0.7287332744570494,0.8128379764668462 0.24190890988243788,0.9204144336365059 l-0.054001049364777995,24.319202512125607 m-1.0422234498897902,-19.03273811575344 l-0.5378674787625468,2.2290845560866903 -1.2816259691830507,2.2924657110074773 l-2.094857521080363,3.0772107958260713 -2.5495883667431483,2.960651023700448 l-5.166647363268447,4.474376325389464 -2.9550235718623643,1.8272480987551234 l-2.5766984966270545,1.2115556787088722 m20.75125535598071,-17.378976595640907 l6.507108254021481,6.187805073460379 6.806064697653087,5.892584274114103 l4.0886558739921846,3.0314706454098705 3.088674926076318,1.4204697967979554 " fill="none" stroke="black" stroke-width="1" /></svg>