<?xml version="1.0" encoding="utf-8" ?>
<svg baseProfile="full" height="97.24637886231038" version="1.1" width="97.27102857526813" xmlns="http://www.w3.org/2000/svg" xmlns:ev="http://www.w3.org/2001/xml-events" xmlns:xlink="http://www.w3.org/1999/xlink"><defs /><rect fill="white" height="97.24637886231038" width="97.27102857526813" x="0" y="0" /><path d="M25,25 m0.0,0.0 m12.063275151295679,4.445123927510057 l0.46424930420628413,0.21632070458705752 2.8814345949472786,2.2541121703714864 l1.3688573784541214,1.5212761297856328 m-7.794292217948599,7.922080054792732 l3.226260744565575,2.153758530465464 1.4371137594557584,1.5317937578740715 l0.6721806897885274,1.1148206741844018 m-5.764439218749594,23.293568471298396 l0.9949272699417749,0.5516667871266797 0.47396012400431164,-0.012297410167539033 l0.7786504260384159,-0.6766151611432608 2.0643830345532663,-4.241347328465539 l2.1621667378752685,-5.339339672164161 m15.855625261863784,-33.65830083396787 l2.0464696873789565,1.7520406842937664 1.3112951222212679,1.7820921411861328 m-13.378772083823097,4.080412009527907 l2.0996494007045543,0.2065795907118069 21.02938461109268,-2.298061011214038 l2.0186013071543383,-0.08189249839803601 1.2600474902475736,0.3059327098290407 m-18.320301302879383,4.818246845616847 l0.07127528267690039,1.4011827529617606 -0.2565281169232292,2.0504345436393834 l-1.5244646030357023,5.137013956798724 -2.0148413296768126,4.935945210987295 l-2.537379355485371,4.644577916637018 m5.172199679234287,-9.088916143961173 l1.893286219415991,0.2990873891686833 10.569813028713146,-1.7203378380479788 l1.3029860299154519,0.15421734945688775 m-17.747934366124092,12.83991792744574 l2.1856637890202193,0.10089621096789209 15.701227308672943,-2.1294290030969707 l2.5060492347107752,0.13029609918663052 m-11.104526507504923,-7.9772349881960825 l0.7019252053854175,2.0872420702012238 -0.030140451235171048,22.73951413452031 " fill="none" stroke="black" stroke-width="1" /></svg>