<?xml version="1.0" encoding="utf-8" ?>
<svg baseProfile="full" height="115.62071516681115" version="1.1" width="103.90283986679825" xmlns="http://www.w3.org/2000/svg" xmlns:ev="http://www.w3.org/2001/xml-events" xmlns:xlink="http://www.w3.org/1999/xlink"><defs /><rect fill="white" height="115.62071516681115" width="103.90283986679825" x="0" y="0" /><path d="M25,25 m0.0,0.0 m30.599978504728533,1.3623112325092825 l-0.05829002698611644,0.4889660257156808 -0.5032397430060932,1.1987369962726924 l-3.6221773511195496,3.015330678310195 -4.456105506176796,2.7509301997240048 l-5.547959414215558,2.6138474240895664 m-3.562365664697389,8.93191216992074 l3.1373017239149723,0.21153971031194327 19.294691817336147,-2.9106356995386706 l1.7910157491445369,-0.13121715369738388 1.4298693498037314,0.2547140319632196 m-12.144900614550206,-8.217097470964626 l0.6843002854464243,1.4321422695320942 0.2202862896639281,1.7854239692487124 l-0.06592552526889321,42.077931255748986 m-0.7433032096855383,-30.812013727618275 l-0.23480962929367682,1.7821580268485209 -1.0840291045873514,3.015284959507205 l-3.387738365672579,7.657471259338973 -3.4077932726964097,5.858325806869653 l-3.8145656241765216,4.641645896643678 m15.007715400232176,-18.55208390621937 l2.7610921298440543,2.672127068521018 3.424357020566764,4.623678174338179 m5.121769274659309,-23.559099861037264 l0.6218190770200144,1.221088346644536 0.23589937735813937,1.3230286633447734 l-0.026353094812425377,17.808681802256345 m9.934811481683143,1.7652339464436122 l0.11499960680150727,0.8488385146170199 -0.34799368270303627,1.093626625361335 l-3.0836169086614893,4.179970352951317 -3.7379308470348414,3.8083201784411935 l-4.006985644532832,3.2443662516382497 m-0.8174079453128744,-21.89550884738657 l0.563561792688126,1.0544929959690277 0.23563104547102745,1.4021663892895497 l0.002714656312592453,30.870256451681602 0.22884895344222952,3.5033280272278793 l0.293934780521889,1.2467521414258758 0.9997360866269944,1.175782931270563 l1.9118406925640208,0.6378883683609421 4.217946039785937,0.14007269093513347 l3.308633407408042,-0.457902060162463 1.0770484669802678,-0.5799155121931601 l0.9069733352440649,-1.321350043944013 0.36068746298361387,-2.0828054541699617 l0.06886723375623449,-3.014770192738048 " fill="none" stroke="black" stroke-width="1" /></svg>