<?xml version="1.0" encoding="utf-8" ?>
<svg baseProfile="full" height="113.2408456077539" version="1.1" width="105.06669933624795" xmlns="http://www.w3.org/2000/svg" xmlns:ev="http://www.w3.org/2001/xml-events" xmlns:xlink="http://www.w3.org/1999/xlink"><defs /><rect fill="white" height="113.2408456077539" width="105.06669933624795" x="0" y="0" /><path d="M25,25 m0.0,0.0 m8.032801078757773,21.989310853899248 l0.30111882089484565,0.10229323500369177 2.012784905805786,0.02984787885485463 l13.53725435310285,-2.1822245262705975 1.6226915466819662,-0.002832403939949386 m-8.98947067133428,-12.032483801439977 l1.1137847467563533,1.1492518074984206 0.7368235611046597,1.7327039628433827 l-0.193930750575401,43.039913247903726 -0.18492207355019913,2.256083362148616 l-0.4442196366452195,1.1692002786966702 -0.6117927463049071,0.28174393625616867 l-0.7066521192770087,-0.31800402189418936 -1.7376311864415461,-1.975054261068188 m3.518946974764219,-32.03338898217178 l-2.557872059150617,6.021033618373963 -2.104701105120103,4.298353341958879 l-2.39506201436572,4.132681740514804 -3.5756602040611094,5.378452791349891 m12.113467641682924,-16.294499107201897 l2.6147847538858002,2.262360609768479 3.284720766379817,3.692763089205518 m2.5427204642968606,-17.185668237843824 l1.3280724821183378,0.2878314716657076 1.8714428461430488,0.039416243038254084 l18.962417268934857,-2.453776981313511 3.230313046938831,-0.12652771054278816 l1.744468644825123,0.3116484921573513 m-14.462467100102078,2.4897787063521086 l0.08317296273972077,2.3733327416949357 -0.6058017482140472,2.338318116333568 l-1.3980661050051038,3.6200139267426614 -2.0423240067648023,4.272217219278762 l-2.459613282175287,3.7846099132065727 -2.5831669575438156,3.292038166795679 l-2.9649622059365193,3.096703034089121 -3.312190263419333,2.8687826626380186 m12.43782586950822,-13.528668266910335 l1.1284909623394648,1.4569549148849237 0.2681249397910143,1.8325158250142772 l-0.08549061957314479,31.77381872018268 m5.772983797811675,-32.53437834694367 l2.735417369405904,2.3821847234747384 3.3177978564481605,3.873954703888652 l2.4536706080535033,3.608429396163735 1.3772466714230998,2.998455669821339 " fill="none" stroke="black" stroke-width="1" /></svg>