<?xml version="1.0" encoding="utf-8" ?>
<svg baseProfile="full" height="95.62336081325812" version="1.1" width="102.61634195293149" xmlns="http://www.w3.org/2000/svg" xmlns:ev="http://www.w3.org/2001/xml-events" xmlns:xlink="http://www.w3.org/1999/xlink"><defs /><rect fill="white" height="95.62336081325812" width="102.61634195293149" x="0" y="0" /><path d="M25,25 m0.0,0.0 m15.277049990563578,4.0800071682857455 l0.42991888211350615,0.41563126233729186 0.6804871693443026,1.4391662506843799 l2.4274224766428025,12.721278903163812 m-2.073282497934117,-14.352859036890578 l23.055965119838365,-2.4891921973946607 4.456256598242022,-0.1477403022705022 l1.102135706646882,0.8019468887465894 0.17808240183245594,1.4131952727662602 l-3.138919333778263,10.647755943337975 m-23.330499458943528,2.7410134805591295 l24.9389153873358,-2.188337999136684 m-37.86648309416082,5.574411115480658 l0.8071213255948715,1.0732992717819223 0.4439611126479238,1.186506121091807 l-0.021318260450357725,22.70727867071497 m0.413196118093139,-23.457461531280476 l39.299855963878855,-2.627700353220593 2.730808011362179,0.022639363321104052 l1.3968126320868752,0.35777834451157103 0.9694606408085117,0.7286221414412666 l0.43939506116649807,1.9581220873356497 -0.5850880904558704,9.740547574312146 l-1.0812222741614206,6.697301117938566 -0.9927729313775128,2.4631786046820863 l-1.3172210995130573,0.3954854369471692 -1.3996873219693768,-0.7580127677011511 l-1.7343957258782086,-1.317305293578586 m-27.170803794200825,-32.02874623668092 l0.7966948563109079,0.9990913893931191 0.30915970348458927,1.1928854093773762 l-0.053425697613232716,23.75624098437731 m11.894866918505894,-26.940509465219826 l0.7125276043087844,0.7706145171456477 0.3768515240767529,1.5157109561911275 l0.04391096624874594,21.62105249724256 " fill="none" stroke="black" stroke-width="1" /></svg>