<?xml version="1.0" encoding="utf-8" ?>
<svg baseProfile="full" height="106.76526665477562" version="1.1" width="109.79580094708021" xmlns="http://www.w3.org/2000/svg" xmlns:ev="http://www.w3.org/2001/xml-events" xmlns:xlink="http://www.w3.org/1999/xlink"><defs /><rect fill="white" height="106.76526665477562" width="109.79580094708021" x="0" y="0" /><path d="M25,25.66374330381115 m0.0,0.0 m9.216244404572013,17.30548974777812 l0.5589980739616482,0.10938274724749268 3.162060309014419,-0.007358651952845078 l13.173048659563188,-2.2010563495255777 1.946859194678996,0.008774708828783031 m-8.059606904273421,-13.949868362617543 l0.7954175715248953,1.4569099194437818 0.17867389631346683,1.9047852666637721 l-0.023055330191594354,51.474464325098474 m-0.44628884167418487,-38.63712320700624 l-0.26131374019594766,1.8110662831741908 -0.6697263170242254,2.6399121127920755 l-2.650016374069007,7.390439690073552 -2.7587066323469016,6.217863145447758 l-3.9944795186944395,7.34474610070089 m12.297043766853234,-19.033450089112307 l2.6845261900631745,3.2207201917000896 2.312319968136378,4.088359001086439 m4.078276610882211,-30.027523876066503 l3.340701992844327,0.9397533327046853 21.415338360392823,-2.7200293402702433 l1.2243388766647714,0.5174422741184936 0.4587964612698465,1.3531995886169534 l-0.25715625666667524,0.8508641659721703 m-23.494953606158866,21.565500372647517 l18.89309877881528,-4.204199821535922 1.3255760779529124,0.018722512030472233 m-22.777323652403602,-13.031259513863588 l0.7547800074903657,1.2386441954712175 0.23533254897825645,1.2294113391338435 l0.024125006069785366,38.221388359080144 0.4103195004836114,1.7069798941088528 l0.42039021468939486,0.6046920353662795 1.0351184213906388,0.25318038721913827 l0.9374552846346326,-0.20311644259227235 9.551179643781813,-7.311266367479948 m11.668039841343761,-24.561551233713995 l-0.13936458892496822,1.358047385771558 -0.7381340025119343,2.061976842609012 l-3.328800218517961,4.726949251813994 -3.63411725216879,4.022284517823527 m-10.444375524028109,-5.708525328053061 l1.3960337101034683,1.0581787911133385 2.1387486754983054,2.6877252693519873 l11.978390712580783,15.855143534546166 3.4845875619810927,3.8092689533513 l2.3773993844013463,2.1888543082965373 " fill="none" stroke="black" stroke-width="1" /></svg>