<?xml version="1.0" encoding="utf-8" ?>
<svg baseProfile="full" height="88.0545774503278" version="1.1" width="107.56561299918546" xmlns="http://www.w3.org/2000/svg" xmlns:ev="http://www.w3.org/2001/xml-events" xmlns:xlink="http://www.w3.org/1999/xlink"><defs /><rect fill="white" height="88.0545774503278" width="107.56561299918546" x="0" y="0" /><path d="M26.039044615479803,26.967782765789305 m0.0,0.0 m15.595618059338733,4.175298798080848 l0.38559374111060235,0.4297725975879669 0.4984526370332185,1.0698584042262538 l0.1426540970933037,1.1867463710501973 -0.0176083219658675,23.662130762234035 m0.9208855049850267,-14.156521051760675 l9.092355874390426,-1.3925721619589932 2.706622979470244,-0.05887229928029455 m-25.381861982235066,-0.2217912783953442 l0.6814438636038533,0.871399363608837 0.30861006201857527,1.2625340152380127 l-0.09614782279085247,18.37693944934158 m-5.875663307532,0.34464884218073844 l1.8634356682696762,0.5372228723853203 1.455070519150631,-0.12996400451580023 l15.257332711390795,-3.445311277194956 8.957449335334891,-4.450959910892471 m24.54948975825859,-20.142181974764725 l-0.404769589563836,1.3184855662098682 -3.976306208025962,2.226102610374473 l-5.447955893488459,2.2944273951971903 -6.0104878285140755,2.142557165238618 m-3.306662709880615,-17.867733019979998 l0.7345655332791037,0.824048536513793 0.20977211510663513,1.0461247350251746 l0.06500597042120103,29.525947847952047 0.3561700757158859,1.9686990909114577 l0.9600408311655858,1.306780354349944 2.1399882589552934,0.9644227676359169 l4.82065813293675,0.49451441054838124 7.330897428304604,0.0023162597047960915 l4.7805255221370615,-0.49057481893610927 1.6427693964191636,-0.6260339829423563 l1.0348413276405994,-1.0033042897943434 0.46724556334588896,-1.8093030159333208 l0.08653708082604468,-2.8077949257315296 " fill="none" stroke="black" stroke-width="1" /></svg>