<?xml version="1.0" encoding="utf-8" ?>
<svg baseProfile="full" height="101.55411664029221" version="1.1" width="110.22217562388363" xmlns="http://www.w3.org/2000/svg" xmlns:ev="http://www.w3.org/2001/xml-events" xmlns:xlink="http://www.w3.org/1999/xlink"><defs /><rect fill="white" height="101.55411664029221" width="110.22217562388363" x="0" y="0" /><path d="M25,25 m0.0,0.0 m7.402635929223537,18.833926104518905 l0.5900789219407284,0.09228080374433269 3.0657748293203246,0.033595418554243375 l12.348273224604332,-2.0139027782114374 2.7984013870932656,-0.03874374591242452 m-8.721999029172906,-10.238895179509983 l0.7243779396469547,1.1702606322770401 0.20858304073333114,1.5534824126757485 l0.014242986855490353,42.16211297215578 m-0.5861702608919422,-32.37201443093747 l-0.2813557209133283,1.447173124831338 -1.2025317153460302,3.6021666710267612 l-2.617741298979729,6.024564118571425 -2.726577532599324,4.984300005150875 l-4.042987778116215,5.5704331877786295 m12.829292130722457,-17.035594297476464 l2.679490221281647,3.1821374246560485 2.3151772464036036,3.0606541241533027 m3.7575364798547892,-22.47864880105243 l3.067114285942113,0.08739942010647994 21.058199428813918,-2.4142691334445665 l3.340041273696267,0.13985424884743095 m-25.358101194368363,2.6679784648262266 l0.6306917103195382,1.665079123063627 -0.02016585027801881,8.632784659026868 l-0.4591397211954032,7.199241591578992 -0.8729241830118963,6.077832760805286 l-1.2140674899248791,4.793161051319565 -1.6225677592972234,4.147655695527102 l-2.1425486997053556,3.786951313529675 -2.117855435256754,2.6675911960857883 m10.897636112176654,-26.641298970077518 l1.6628561987060735,0.16093493177860657 1.9126378729059712,-0.20822854412605682 l14.023864567401118,-2.9453827776505985 1.2138096280838617,0.3379317554013093 l0.4462723811308517,1.0225276686225089 -0.11346785321318782,0.9013795345244183 l-1.7345237316931774,4.986304504368233 -1.9922930604701128,5.138222564864132 l-2.1103712064677054,4.578354256429248 -2.4562669288676937,4.241092437987419 l-2.902526957432533,3.7609694036153387 -2.5581063412731044,2.5703632926361677 l-3.7657622624195217,3.0093653735647763 -3.3210276199861837,2.1044638067285 m4.863185779394536,-23.08206704477285 l0.9230651068385978,0.6348787416624522 1.781727128012744,1.7526116830300682 l9.301082310552017,10.999197196567314 4.88776225843169,5.1993386844383505 l4.287114741415759,3.721885384698927 2.132330133262031,1.1664180920087592 " fill="none" stroke="black" stroke-width="1" /></svg>