<?xml version="1.0" encoding="utf-8" ?>
<svg baseProfile="full" height="106.7509872653529" version="1.1" width="106.81475200408298" xmlns="http://www.w3.org/2000/svg" xmlns:ev="http://www.w3.org/2001/xml-events" xmlns:xlink="http://www.w3.org/1999/xlink"><defs /><rect fill="white" height="106.7509872653529" width="106.81475200408298" x="0" y="0" /><path d="M25,28.658651780479005 m0.0,0.0 m9.217626012589948,15.148412455969403 l0.31761933860518793,0.09289884215290897 2.4888117987143565,0.0063583069041464445 l15.652395261856826,-2.2031083486328944 m-8.745675143030379,-13.782081179451826 l1.0133515068710013,1.3513296999328017 0.5908389363475623,1.8160704659279596 l-0.178688540601074,46.66428537965757 -0.1518226688468607,2.5586004646643827 l-0.42455428024808517,1.2217085276879551 -0.5864213369508108,0.21786087006149354 l-0.6699807992777776,-0.4542474346063861 -1.7334097868121123,-2.386094577150529 m3.5378226871014276,-34.267373806362095 l-2.378063113286013,6.638717923349527 -2.080597396962816,4.980523422043531 l-2.372512324135565,4.7314209996064385 -3.6000255857560184,6.209700687123174 m12.342935508501215,-18.248966303111526 l2.0274495001878563,2.0607371822348997 2.893395437155444,4.571784778963564 m2.652699833927147,-15.581479328693533 l2.298175161404372,0.3296800623988094 19.612593533947525,-2.848037755211801 l3.369544584591973,-0.1753682730772663 1.721243878188642,0.28095369851663266 m-21.770835013215237,-12.592938541376332 l0.7171788911388144,1.0519743216897193 0.3622912690597464,1.927506020665507 l0.9225688891284446,50.433019267872105 m13.315623974392869,-53.22218881232532 l0.7440589821031429,0.9954637063878322 0.38968823832398813,2.017152655927419 l-0.16503826257498036,49.33958618308564 m-14.152416456357816,-19.91010580626104 l9.02966284767545,-1.3833627735532965 m-9.143124850348721,20.267187495907606 l14.289425083776887,-1.4497165972466521 " fill="none" stroke="black" stroke-width="1" /></svg>