<?xml version="1.0" encoding="utf-8" ?>
<svg baseProfile="full" height="104.31335989227237" version="1.1" width="119.20465466853352" xmlns="http://www.w3.org/2000/svg" xmlns:ev="http://www.w3.org/2001/xml-events" xmlns:xlink="http://www.w3.org/1999/xlink"><defs /><rect fill="white" height="104.31335989227237" width="119.20465466853352" x="0" y="0" /><path d="M25,29.851943457423385 m0.0,0.0 m7.8194126598108165,13.036013656555241 l0.3467384143400683,0.132702498016613 1.9942174727299005,0.13367649392463768 l11.971931859055013,-1.85963886656139 1.53676290957262,0.033424441580104 m-7.498699775427046,-11.515504714417954 l0.8972177019299972,1.269794669190466 0.6210819872818475,1.6531224854869013 l-0.17552935319478005,43.18759460002143 -0.208257850168981,2.2505829197599523 l-0.4825662748839844,1.0657144047776594 -0.6600798215624829,0.0739338465153255 l-0.7432810408025636,-0.5564303429100385 -1.796502576516662,-2.2490446379061138 m3.841909184765984,-32.73424791878887 l-3.911622253113376,11.041079704556767 -2.0824465358568855,4.521554641726518 l-3.11790250018881,5.849868693596494 m10.46411733280853,-17.920713818192997 l2.2531427799533454,2.242357185368638 2.5745060759906044,3.4562205732878546 m8.941050468109278,-18.37298214684337 l7.512558625365989,-1.6729173556988566 m-9.938009321923515,-7.841644054066017 l0.691860968028507,1.4761231581117735 0.2709024792522118,1.183713920227892 l-0.10702374715786711,17.205936343849054 0.5667105771922637,0.5753689675182228 l6.329312673152376,-0.948135303478479 4.442127112281247,-0.048799460582939574 m0.9523505994884947,-15.444529686906098 l0.4706757242316467,0.4482292226973374 0.2990856403194195,0.15595437371457097 l1.420068280447745,-0.7269322717578586 3.425130900283142,-3.306865052937875 l1.2637545511859785,0.18002971959844216 0.43883419037480653,0.9338645148478634 l-0.08128068474346178,32.154570159050664 -0.20268292728138557,2.014453211562298 l-0.8018406136749066,1.0013999859463034 -0.6621512696925631,-0.11880730639818783 l-1.4108171818238573,-1.075996037425721 m0.12754653266634214,-31.426756911670168 l-0.30461664839389463,1.6234992213066504 -1.4319085105298746,2.4937132269554874 l-1.8421564023826031,2.3577048428053424 -2.2508863748312495,2.1356028184843034 m8.634678960652984,-0.3193330569287896 l-0.04325947775614672,1.455383289529973 -0.4601821445610803,1.4426268619157112 l-2.476347849771811,4.37087129158743 -3.4102704936801134,4.0121715337669155 l-4.1957025240300245,3.5641142311298344 m16.92398035468868,-26.376667236075317 l1.041990163328329,0.428926405682674 0.9675540184606636,-0.018165184106920824 l8.263599545459053,-1.4797302084227566 1.3570920002860443,0.15841760038496402 l0.5008960077260332,0.2283558570765543 0.3378800712635047,33.85178007119344 l-0.25616087829483875,1.9989193631724007 -0.49763722363936075,0.8482725133800036 l-0.675257399940366,0.12315147604885748 -1.546928305620086,-0.8934091659056577 l-1.581612757067308,-1.5239301317776415 m-0.23510811573501933,-34.51318652604025 l-0.3480217536081408,1.950317150372374 -1.8090968477155085,3.2322633835374353 l-2.2747155046680843,2.858762508398606 -2.787307381178077,2.509067732977653 m10.154783266777322,0.4283857319080292 l-0.05441433921167445,1.3189849230122193 -0.4496699485586459,1.3242546210782036 l-2.459202613556757,4.3650182075387916 -3.2507937730147733,3.8870432249516194 l-3.8933559783733864,3.3381091090883066 " fill="none" stroke="black" stroke-width="1" /></svg>