<?xml version="1.0" encoding="utf-8" ?>
<svg baseProfile="full" height="114.01344806544542" version="1.1" width="109.55910139162489" xmlns="http://www.w3.org/2000/svg" xmlns:ev="http://www.w3.org/2001/xml-events" xmlns:xlink="http://www.w3.org/1999/xlink"><defs /><rect fill="white" height="114.01344806544542" width="109.55910139162489" x="0" y="0" /><path d="M25,25 m0.0,0.0 m35.55576128323772,4.211340170766253 l-0.0004671042444385175,0.4931629676953464 -0.6367763930348813,1.0331728973154541 l-2.139038269712504,1.5448221347648121 -7.388509018025598,3.0407862938649046 l-7.889251772987877,2.237898974445867 -10.97981847286514,2.116145721427024 m1.4882928269067046,7.151596781952043 l1.2103186424370138,0.9131405789418484 2.2521487211,2.1690810040510105 l1.9837377547624697,1.8859406385650828 m13.552632523393745,-10.830908662636563 l2.9764835236060665,1.6245530021099324 2.602692127872168,2.4550014599561774 l1.7599065549264217,2.051723582872381 0.8701965699144705,1.6880099119788787 m19.52378143636144,-11.094255588143158 l-0.25776882309454324,1.8657979638150104 -2.4803170107361856,3.914499663646127 l-3.286278875827771,3.6710388449039226 -4.114071785159519,3.390006838990777 m-36.90417270274284,4.014113941977621 l6.515951982869119,5.365399674701023 3.019381116633369,4.287170100574777 l1.2581260745571083,3.618937484446325 m27.095981057266123,-15.781535035181529 l-0.2558631878852165,1.660223069193027 -2.3399547278937365,3.4499858714072085 l-3.1520783569803865,3.878740624257241 -3.9887323926502094,3.8422428811871345 m-35.43644880332263,5.52131995015482 l2.656957688406697,0.33306372726795763 3.1504996048921967,0.0021962417944160735 l37.66610676401177,-2.9965527961589005 11.072458962114846,-0.4124962705804566 l4.5972338735189116,0.41542981361150727 m-16.441463529740243,-14.434850637709994 l0.8504865700239125,1.3119897458788048 0.22289891992118033,1.4936430707218498 l-0.22786403890464954,32.911871426619456 " fill="none" stroke="black" stroke-width="1" /></svg>