<?xml version="1.0" encoding="utf-8" ?>
<svg baseProfile="full" height="106.67672502656437" version="1.1" width="97.35607957683776" xmlns="http://www.w3.org/2000/svg" xmlns:ev="http://www.w3.org/2001/xml-events" xmlns:xlink="http://www.w3.org/1999/xlink"><defs /><rect fill="white" height="106.67672502656437" width="97.35607957683776" x="0" y="0" /><path d="M25,25 m0.0,0.0 m3.729858564150718,22.007791902016386 l0.359212393905525,0.08258145326908616 2.9096901383933096,-0.004590231169822332 l11.827395253323397,-1.4293005094289006 m-6.7043708964090065,-14.040591873211397 l0.724376085873418,0.8461043186885778 0.33746657610914754,1.6981298307427453 l-0.032016892446165277,47.5166001356577 m-0.30978507292782836,-34.15319929211916 l-0.6720573883669032,3.001297468924655 -2.801908847358643,6.757972419012007 l-2.464092964222299,4.545783515424056 -3.0988767828156103,4.833720421093038 m11.042852616904243,-14.873781099021826 l2.2831306909217615,1.965026758354837 2.167860412048477,2.8778789653810644 m3.179546963425579,-14.771562309297305 l2.333650895923789,0.18942224957730666 12.432847899670652,-1.8342271362805231 l3.382190277802094,-0.2487640459694311 1.5815681213025106,0.11715716124060545 m-11.002850798782427,-11.78439810229509 l0.5442822783373809,0.8726056753791481 0.3097753187402416,1.6543486271187346 l-0.10940800518560835,46.80887981870374 m-0.2835624511723768,-34.12706261303539 l-0.24138972494299846,1.559561224089437 -0.9025636669427487,1.826071311255604 l-2.173815895397643,3.773095571196663 -2.350246412672372,3.634709836830948 l-3.9238923383296607,5.342017261876089 -4.103884117886572,4.3812099511749105 m14.713442720732198,-21.26196849414196 l3.904255414521383,6.771729520058303 5.029449872511862,6.983841737849677 l3.7512983744287296,4.353192417690872 1.9866509636702085,1.4878828380197278 m-22.50876092027568,1.3683614226524972 l1.3603648293130535,0.208014928910674 11.346009320528538,0.026699636158155914 l1.824682784726324,0.11008116968836874 " fill="none" stroke="black" stroke-width="1" /></svg>