<?xml version="1.0" encoding="utf-8" ?>
<svg baseProfile="full" height="114.55759971855163" version="1.1" width="94.49165083338107" xmlns="http://www.w3.org/2000/svg" xmlns:ev="http://www.w3.org/2001/xml-events" xmlns:xlink="http://www.w3.org/1999/xlink"><defs /><rect fill="white" height="114.55759971855163" width="94.49165083338107" x="0" y="0" /><path d="M25,25 m0.0,0.0 m22.70696845706607,0.5357032706405634 l0.2837553763720947,0.44076509653677576 0.51227492134235,1.7423830585785551 l0.006725786826552618,6.081967333560923 m-12.624443552463843,1.9192525260907973 l2.889427920911695,0.22865432578563855 18.079392801843618,-2.9594605332811605 l2.6708753648352395,-0.16177913836703264 2.0789144479238,0.2355478189001587 m-21.509785727828252,6.782582810520886 l1.9467557800020534,4.0858076991448185 0.932733207757325,4.0961978555566 m12.409094917348044,-12.196218860711513 l0.06614695416785978,1.2044037934710567 -0.3610751934998573,1.7659510828175475 l-2.5138748381544493,7.979353189622492 m-24.460446453841218,4.489624571994847 l3.434883976304302,0.3010076273363641 18.104613277896817,-2.267888814161936 l10.838771819803673,-1.1986220538254133 6.348713633372965,-0.3023751752801973 l2.6512279553942313,0.3076737465179896 m-33.492270390162176,15.499696281705836 l2.632115397355385,1.2842844390859054 2.468003426433535,0.03783000368256011 l9.179390358423722,-2.9650832358236925 7.1927745838916035,-1.1941328097765567 l5.314245136658021,-0.11137009209430698 2.504486878299185,0.3956919602814025 m-15.292077097177241,-11.077443663965024 l0.41743490871210637,2.538182778299414 -0.7178936733768427,5.515336206747416 m-1.400221361490171,1.5514359456766906 l0.2628265466084347,1.88440925779304 -0.1711253107345414,1.4028118450878306 l-1.2616427857620576,6.587053977125344 -1.4922978310443376,5.152310945593934 l-1.603436272100694,3.8616397603091865 -2.0258256991817576,3.441735590245978 l-2.447120847632015,2.9613512410003744 -3.059499261812754,2.507507630589956 l-3.639592224675732,2.1738204255375737 m15.851209133452901,-21.600226174676944 l10.312037097786856,14.069955124126649 3.3784648237653223,3.487180718466999 l2.704231364401232,2.1796852319132856 " fill="none" stroke="black" stroke-width="1" /></svg>