<?xml version="1.0" encoding="utf-8" ?>
<svg baseProfile="full" height="102.32347098968822" version="1.1" width="107.75910569427722" xmlns="http://www.w3.org/2000/svg" xmlns:ev="http://www.w3.org/2001/xml-events" xmlns:xlink="http://www.w3.org/1999/xlink"><defs /><rect fill="white" height="102.32347098968822" width="107.75910569427722" x="0" y="0" /><path d="M25,25 m0.0,0.0 m3.0441718508671483,19.156436916828536 l0.6456509816300489,0.10870409619118122 3.2674703616537983,-0.019583105187150153 l12.986527897688628,-2.1184398736340717 2.8637356404939127,-0.059383075451535025 m-9.410940671690305,-11.13227833265165 l0.7856415289416177,1.314627569845352 0.17849924831970185,1.8092000694424493 l-0.01155071730609387,43.264186724305105 m-0.5175716108350039,-32.67727529055181 l-0.49827814338296084,1.4163220505987306 -1.5593397767402597,3.5781826413974143 l-3.0028665310159632,5.453009722698647 -3.3670415331785213,4.601588577312483 l-4.68713727156244,5.283039829160062 m15.196077458594006,-14.958367684817153 l3.335521115076471,2.8840158455862928 2.282554938703691,2.8013738624845517 m2.544554978704211,-24.700603107289016 l3.7631483125656344,0.16998389395219224 22.810548725843855,-2.47041674247817 l4.178167103882112,-0.21045648376648785 2.9315618070239244,0.21454774801669854 m-32.37444066846487,14.27808701965026 l0.7540547247637214,1.4099874766369487 0.1814598399836872,1.3257905790310738 l0.001985053504700671,27.906731020989106 m0.49334829674496467,-29.47911914259582 l26.07949108788303,-2.901397698798523 2.3549218282857383,0.0061698706230656685 l1.0152270443804607,0.597272942170922 0.5809388797040758,2.0474931042333133 l-0.10096143695774643,28.88590132140792 m-20.57917277361817,-39.30670489025296 l0.7040150459772992,1.430474707328159 0.05615975969738936,3.2384393275613736 l-0.40087670273466086,6.879714340969976 -0.835508022961266,5.016494694983657 l-0.9088271516323996,3.0772495393067403 -1.2531465021153436,2.7443084647988663 l-1.6187408970178454,2.3897877833433556 -1.5734465330449423,1.6520927163851473 m14.142979763524306,-26.894406202842163 l0.586695112491735,0.7900219680600374 0.2971783114468823,1.4843792143311434 l-0.0475769781945467,17.11746204698163 0.30137744405017786,1.560346554033877 l0.6351651639015539,1.125206176816516 1.6943778407597812,0.6616581538355509 l3.938180060954007,-0.007885794058673063 2.605673844959198,-0.7176130144442201 m-27.247657880715334,14.083718265261274 l28.38451331009771,-1.4557298283519566 " fill="none" stroke="black" stroke-width="1" /></svg>