<?xml version="1.0" encoding="utf-8" ?>
<svg baseProfile="full" height="112.72162642834199" version="1.1" width="108.05059259481911" xmlns="http://www.w3.org/2000/svg" xmlns:ev="http://www.w3.org/2001/xml-events" xmlns:xlink="http://www.w3.org/1999/xlink"><defs /><rect fill="white" height="112.72162642834199" width="108.05059259481911" x="0" y="0" /><path d="M25,25 m0.0,0.0 m18.555214625403668,13.517668271368727 l0.43154960901194406,0.3590204021986231 2.636847305961504,3.0557492280870813 l1.8570528649240017,3.3581189722878424 m27.36180610977062,-12.531834034762696 l-0.05332398622419736,1.1421388690719843 -0.3818935289408941,1.0984196217509452 l-1.8055222375462565,3.0537377489780693 -2.533934209068901,3.282803850384207 l-3.0726605493168107,2.931883845570277 m-32.9090466524274,9.907015903421744 l2.2548825346138894,0.38211642351882324 2.5021618558988754,-0.03061462517613597 l30.753521258966146,-3.6640026721848766 4.983228384585603,-0.3415790246089383 l4.7355718954670145,0.0063908939971637525 m-22.84528909006055,-22.175675939859556 l0.9760548178796128,1.0005333710817317 0.505199686713409,1.48225222689972 l-0.1521740314655066,52.96866331899612 -0.17190056166110199,2.390276423880195 l-0.512616858660969,1.2654293352700396 -0.7420583957200442,0.2631140181709025 l-0.8713503111386224,-0.5165970902705203 -2.157398344621524,-2.892080147770261 m2.96052314767031,-31.760932492050504 l-1.9672259694543295,3.834196425650363 -2.5616341909654254,4.078449991188335 l-6.516000289047897,7.998244296645553 -6.583288705360433,8.806363197927864 l-3.461474066878539,4.012575565244499 -2.5979845843294056,2.407623568226219 m26.173888702713633,-28.11712104101315 l19.098578438832003,22.746587878997623 2.007845065876973,1.8804475539206067 l2.15344285341871,1.0427408258933406 " fill="none" stroke="black" stroke-width="1" /></svg>