<?xml version="1.0" encoding="utf-8" ?>
<svg baseProfile="full" height="119.81757339426842" version="1.1" width="100.83873416345574" xmlns="http://www.w3.org/2000/svg" xmlns:ev="http://www.w3.org/2001/xml-events" xmlns:xlink="http://www.w3.org/1999/xlink"><defs /><rect fill="white" height="119.81757339426842" width="100.83873416345574" x="0" y="0" /><path d="M25,25 m0.0,0.0 m30.546001772577497,5.345003156528296 l0.32112092192154984,0.40570830733160657 0.3661808322414696,1.4707472480149268 l-0.04495674517095996,4.591415469487536 m-16.89764904860172,1.7327825204178997 l3.7372228347869,0.17308713645909415 13.62777575821593,-1.5001430557086628 l15.142385317530822,-0.9190017432258248 2.321409419562311,0.33673525815596467 m-20.67614122566117,2.6524478224177708 l-0.14011690873146465,1.3961306905410698 -0.3858279166191951,1.3145264073322245 l-1.3148475331038092,2.75184722929796 -1.6632540242464855,2.985514278766466 l-3.5477572074081265,4.881707964474506 -3.867318299896262,3.9358645744938636 m8.3302190088407,-8.310485890465374 l0.37827819289162384,1.601959140215913 -0.020647846054185875,14.234226787614626 l0.10383073011356632,0.6576471538873999 0.33091197052540716,0.34733096593681195 l0.4328949363317859,-0.35931919335976065 0.650121740857249,-0.770842025083566 l5.952072505386354,-6.684620371329384 m8.512562211012453,-16.044772553370084 l0.041666520107307446,1.005049051240547 -1.1505833306037585,1.822408203752387 l-1.9132780089509407,1.9638436873279688 -2.942962233530463,2.374389078460757 m-5.0044617722789795,-2.2486629433147125 l1.2151701019828642,2.4553084424522087 1.883498696899828,10.401405964837203 l1.0736776154996275,5.093137919143784 0.7314161705957622,4.928748169592423 l0.577101696264225,5.172907200044056 0.6161279147228563,7.219820773797735 l0.6209084560427734,7.458729327273212 0.6380176511558101,3.9268316596270685 l0.8651130985366913,1.3840565097205282 1.8743448363049244,0.6305216690854832 l4.104346907369534,0.00358140239647085 2.8083387248776015,-0.5395941844793323 l1.1088152856536522,-0.7135218969533458 1.0306648239875815,-1.5809417155459762 l0.3831568044395823,-2.379188868110155 0.08318280707702311,-3.3713561737957254 " fill="none" stroke="black" stroke-width="1" /></svg>