<?xml version="1.0" encoding="utf-8" ?>
<svg baseProfile="full" height="118.75039919534957" version="1.1" width="110.17771249131141" xmlns="http://www.w3.org/2000/svg" xmlns:ev="http://www.w3.org/2001/xml-events" xmlns:xlink="http://www.w3.org/1999/xlink"><defs /><rect fill="white" height="118.75039919534957" width="110.17771249131141" x="0" y="0" /><path d="M25,25 m0.0,0.0 m11.702287468672186,18.662385773159443 l0.43278879658812486,0.22044639443100547 0.899985562489037,0.1435865820838854 l1.75310127810818,-0.17706893932386256 11.657684627144823,-2.2649522751719973 l1.8095432015506898,-0.05009855729264334 m-7.909078836237864,3.43723522461899 l0.5480166023118599,1.3676186172968958 0.1442480691630452,1.3328417087342441 l0.08891233479443868,29.65189677655735 m-8.128898967038113,-17.001867553711065 l2.7215195275049866,0.2841029262992572 9.678942985034213,-2.1622534933178175 l2.4490040478558366,0.042500149677715156 m-16.37712278192775,22.44338624670884 l1.1256215587333267,0.8180948379947792 0.9961473759347483,-0.1436263282921324 l12.842146791897836,-8.192182334248873 m14.352834534301728,-22.761077624151316 l0.1195550715852245,-2.207000970951572 0.6478194004098761,-0.9802589871044156 l5.190781953064827,-2.610564270961201 0.8440004260554863,-0.08749501591167014 l0.3999465568002851,0.191887081090937 0.2545175489830659,0.48143077588048866 l-0.10034195210933798,2.2644723132759457 -0.996925131026313,13.14381213815918 l-0.9037038381330945,7.746529595054324 -1.117642464512596,6.555387013506776 l-0.39421214466832544,5.620115331768921 0.25811347654335276,3.9604814542907656 l0.6769595221614302,3.9864237456835343 0.9116580766458371,2.763943771801902 l3.000447834089135,2.2702670877129707 3.874837986689843,-0.2571798356303882 l1.945771281765289,-0.6520923378828403 1.6907358592972128,-0.7672823931291856 l1.5124613300838134,-0.8261643015445165 0.8922981903025807,-0.9149055647281537 l0.5432992944322804,-1.9203765169375708 0.13965003597019238,-3.0106138996544023 " fill="none" stroke="black" stroke-width="1" /></svg>