<?xml version="1.0" encoding="utf-8" ?>
<svg baseProfile="full" height="109.40366951108444" version="1.1" width="109.49251228943467" xmlns="http://www.w3.org/2000/svg" xmlns:ev="http://www.w3.org/2001/xml-events" xmlns:xlink="http://www.w3.org/1999/xlink"><defs /><rect fill="white" height="109.40366951108444" width="109.49251228943467" x="0" y="0" /><path d="M25,25 m0.0,0.0 m0.8121633529663086,20.28479814529419 l0.3736542910337448,0.1141910720616579 2.719467580318451,0.009154019062407315 l16.616206169128418,-2.7419480681419373 0.5143281072378159,0.1072936225682497 m-9.003126621246338,-15.433931350708008 l0.9496337175369263,1.3367421925067902 0.4734543710947037,2.09580197930336 l-0.20927578210830688,49.93411064147949 -0.2190152369439602,2.445613145828247 l-0.5759793892502785,1.1247096955776215 -0.8113441616296768,0.12713441625237465 l-0.9257906675338745,-0.5470271781086922 -2.2470349073410034,-2.4524255096912384 m4.6677833795547485,-35.72911500930786 l-3.076772093772888,7.174026370048523 -3.0416887998580933,6.084740161895752 l-3.096868395805359,5.168486833572388 -3.919793665409088,5.682134032249451 m15.597425699234009,-18.09345006942749 l3.058379292488098,3.1597119569778442 3.3320629596710205,4.6112412214279175 m4.381667077541351,-21.55954599380493 l-0.6375987082719803,5.577905774116516 -1.3924327492713928,6.539801359176636 m2.2603189945220947,-8.621638417243958 l13.55305790901184,-2.2863759100437164 13.778544664382935,-1.472434550523758 l1.2725363671779633,0.2626139298081398 0.6710109114646912,0.5221623182296753 l0.1639208197593689,0.7241468131542206 -0.24847839027643204,0.8692485839128494 l-1.3559868931770325,1.9428661465644836 -2.7637475728988647,2.5627845525741577 m-12.229429483413696,-18.921825885772705 l0.6260497123003006,1.5113073587417603 0.17614036798477173,2.0184825360774994 l-0.42072299867868423,14.570133686065674 -1.3403187692165375,10.083557367324829 l-2.0658279955387115,8.020793795585632 -1.449996680021286,3.868020176887512 l-1.769152581691742,3.7127000093460083 -3.320993185043335,5.174617767333984 l-4.214765727519989,4.564236402511597 -5.214129090309143,3.7978535890579224 m21.668541431427002,-30.56267261505127 l0.757356733083725,1.6870643198490143 0.20522033795714378,1.4029918611049652 l0.13847051188349724,20.255672931671143 0.5109219998121262,2.6915371417999268 l0.9116551280021667,1.82194784283638 1.3607555627822876,1.1165348440408707 l2.5985491275787354,0.6742466986179352 4.859208762645721,-0.03770178649574518 l2.564147114753723,-0.718015730381012 1.7204447090625763,-1.2374530732631683 l1.0412590950727463,-1.665605753660202 0.5257387459278107,-2.0021329820156097 l0.18270783126354218,-3.034195601940155 " fill="none" stroke="black" stroke-width="1" /></svg>