<?xml version="1.0" encoding="utf-8" ?>
<svg baseProfile="full" height="126.2308355106263" version="1.1" width="99.56009689763228" xmlns="http://www.w3.org/2000/svg" xmlns:ev="http://www.w3.org/2001/xml-events" xmlns:xlink="http://www.w3.org/1999/xlink"><defs /><rect fill="white" height="126.2308355106263" width="99.56009689763228" x="0" y="0" /><path d="M25,25 m0.0,0.0 m28.91238480297,12.002790085619038 l0.04781882228668361,0.3471616685087326 -0.33798091793496093,1.282773608577647 l-1.414649040061225,2.0251397415272554 -1.9021287068046715,1.9853164733679587 l-2.6048338109627323,1.8471449387842847 m-4.799781600134849,0.25632349284332295 l0.6661380484448365,0.8094208945242698 0.3249766850661956,1.407547856700817 l1.721944058144242,21.622393132959115 m-1.325145574531152,-23.01138609137155 l20.440044537194282,-2.1101517195697763 1.7530571007000486,-0.024848245858711572 l0.5328249911310547,0.46009904943286895 0.18389650996278345,1.11480654131767 l-2.2003509836084834,20.801620844566234 m-13.161509917240318,-18.642853279378162 l0.3826249154960371,1.5356932702970567 0.4806183819565484,13.94556453461381 m5.594320776641896,-15.491437601584158 l0.2536711584112758,2.434072824846833 -0.618319797425455,14.62522386248761 m-16.875032337173295,2.8003238774444794 l0.9649409985402713,0.2987216553712798 1.3413169832061305,0.05275097602594522 l25.860627494220893,-2.540672448523971 1.831168350087741,-0.08668386341849904 l1.9503500884930574,0.37344589121366917 m-16.933368236652544,8.714219050007582 l0.30778234121657727,0.9366551198390568 0.07489164423543097,1.0855185143683397 l-1.4961230869986848,5.2307814748177055 -1.760144679070265,6.437261245426831 l-1.6662859511447932,5.026325639024829 -1.5919511912846664,3.4835572723272565 l-2.053508265332497,3.1016424648187035 -2.0187718186775796,2.094572758670924 m15.492394373428732,-26.915833551130117 l0.42802863682848,1.3148590535642641 0.12754644856003877,1.3072591810876233 l-0.01036250488059742,20.672361448292122 0.6322591590740236,1.316403166765529 l1.2468456484898873,0.7687401340350797 2.1690261689316226,0.3886183971033556 l4.988002285332731,-0.02281385493914335 2.4216699534941655,-0.4208326775548802 l1.0012170140777554,-1.6395826918821568 0.19795694092761223,-4.170407868616922 " fill="none" stroke="black" stroke-width="1" /></svg>