<?xml version="1.0" encoding="utf-8" ?>
<svg baseProfile="full" height="95.18049300345137" version="1.1" width="114.82929547800539" xmlns="http://www.w3.org/2000/svg" xmlns:ev="http://www.w3.org/2001/xml-events" xmlns:xlink="http://www.w3.org/1999/xlink"><defs /><rect fill="white" height="95.18049300345137" width="114.82929547800539" x="0" y="0" /><path d="M25,25.514628641021467 m0.0,0.0 m13.879511169316944,12.441025472289581 l0.5474267440190883,0.15320997353030938 3.1944926506444618,0.04572989565154982 l14.649691191851343,-2.037472859041522 2.08881995534771,-0.09183911962008304 l1.5738060173222952,0.1988613501449013 m-11.8613559226071,-9.778129585784509 l0.7729876423799039,0.9443591551341024 0.4445393944663294,1.6447118503488503 l-0.06741303776812364,41.14540822977672 m-0.39651148904165445,-33.032451777095005 l-0.6447485066652675,1.6702307200450262 -1.4201141372465513,2.335957643297358 l-3.9739246156498433,5.8157840593584575 -4.0046052965866865,4.499628241628358 l-5.081067067062624,4.544809329818599 m17.17525500971543,-13.64508239962078 l3.0127892668333005,2.2147418972472166 4.037286694659902,4.249253902756441 m9.374184172752653,-23.833364620887036 l0.6712706399161419,0.8000945888031316 0.3447570084699525,1.5631204294007779 l-0.029554684965363207,26.07375304666796 m0.5896315263574953,-25.860551394987922 l5.875283756947775,1.1414473185084288 4.105938464113434,1.751623339639774 l2.73262535900655,1.8066308817931116 1.8590203893870008,1.6807976399724056 m-19.320018590639222,13.217493260501808 l3.218985353998857,0.12358967812044774 16.233353303074296,-1.628135656566444 l3.224612555943799,-0.10981892155486873 2.02234055971317,0.22885359332152333 " fill="none" stroke="black" stroke-width="1" /></svg>