<?xml version="1.0" encoding="utf-8" ?>
<svg baseProfile="full" height="106.10860082974457" version="1.1" width="101.79980201620272" xmlns="http://www.w3.org/2000/svg" xmlns:ev="http://www.w3.org/2001/xml-events" xmlns:xlink="http://www.w3.org/1999/xlink"><defs /><rect fill="white" height="106.10860082974457" width="101.79980201620272" x="0" y="0" /><path d="M25,26.309173088740238 m0.0,0.0 m2.0085578275827913,21.88831170883385 l0.3179881769229946,0.10365516512914982 1.6177298086845282,0.041930784876136905 l14.057969706376507,-1.884635357317082 1.0315471523708397,0.06806289742175901 m-8.205500331948537,-12.677502066431106 l0.8851616451752695,0.34691578060785505 0.7170040604366974,0.8492396293420224 l0.18990106976251284,1.488623893094051 -0.17913927204036514,41.49263043170862 l-0.15971277379451299,1.962887536493827 -0.46872239055956183,1.002969765425436 l-0.6482187605281355,0.11633757181982113 -0.7486211224023274,-0.5074728966405504 l-1.9040221243558046,-2.164320560066849 m3.805413643375358,-30.157926080527567 l-3.5912818533685273,7.166217781873759 -2.400534867544022,4.672247047210599 l-2.7753333590870666,4.436297615842599 -3.372779430241826,4.297287511900998 m13.341731082188748,-16.36386312609182 l2.236208049805849,2.0425127355141304 2.59367200769433,3.325918000622339 m2.6291476045203446,-24.711358619419716 l1.679223774232932,0.2433286165348189 1.6769989694953547,-2.2491540030133983 l4.876766409348014,-5.735159323879042 0.6224371291249583,-0.4031555296048634 l0.49366749617555555,0.28531510848980873 0.26577103344731706,0.6450900723877496 l-0.16894579410242555,0.8597758889146441 -2.258384776928387,5.78127123192097 l-3.285158033234008,6.058822082241333 -3.4192342645053624,4.651298378198838 l-3.9777631655901122,3.978916780836224 m1.869963534073455,-14.65601172572198 l2.9638668922815383,2.1724123879661015 1.4173678216274923,1.806719043412931 l0.680165055531023,1.3512439953791515 m18.44167400806847,-12.209044282625449 l-0.251400789895979,1.0350927810141248 -1.1828941471044732,1.558008041330351 l-1.7812186180126133,1.65982243514216 -1.774348151993423,1.2236343161990166 m-5.29598452045519,-0.11903499948304211 l4.23533923044934,4.328896736838408 10.839976312115148,12.01448076286085 l1.354685842410363,1.0808760768346997 1.5820158744169468,0.6550747612616544 m-2.4032726440501686,-15.641887614065807 l-0.2746252263838123,1.1401286867801468 -1.3314431703306764,1.6371309975994393 l-2.1774030962054347,1.7565381279032248 -2.0344795922110106,1.222996452151984 m-16.938096912793004,7.29910624997167 l1.6228917972736174,0.1756122741210499 9.498762450448565,-1.2178877331344056 l2.447060759185536,-0.159017893428331 m-17.267651081414684,7.7643743651499415 l0.6723285063805835,0.6917690743326038 1.9761921083251934,10.708857007240582 m-1.865343603943687,-10.708327370335732 l15.228400995986698,-1.890689511157933 3.5563520556513137,-0.1341328522698117 l0.8626279056797711,0.9324798688236587 0.11720639112071558,1.3548046324436513 l-2.0841696910446363,7.850668191514194 m-15.470759063151451,1.3858179900719931 l16.781228143330896,-1.4656340052396613 m-17.277525192312098,5.165977878228059 l2.1091881956894376,3.4231858585728507 1.1493467102052506,3.292368323365556 m13.141032365346485,-8.656975937696076 l-0.26127123055151646,1.6905353507918937 -0.9732308424946601,2.5313980156364595 l-1.2842952160335388,2.41705547362783 -1.4962503843631283,2.0738044215167712 m-20.79087804357938,2.5405468183413946 l2.656368888044374,0.28569734216670417 26.457985412685094,-1.7858194122260111 l4.814441951007894,-0.11714422454499916 2.0563297007021664,0.269099075618717 " fill="none" stroke="black" stroke-width="1" /></svg>