<?xml version="1.0" encoding="utf-8" ?>
<svg baseProfile="full" height="108.81885754508713" version="1.1" width="98.88374291405859" xmlns="http://www.w3.org/2000/svg" xmlns:ev="http://www.w3.org/2001/xml-events" xmlns:xlink="http://www.w3.org/1999/xlink"><defs /><rect fill="white" height="108.81885754508713" width="98.88374291405859" x="0" y="0" /><path d="M25,25 m0.0,0.0 m5.895556587119621,22.63752064279829 l0.3496949091022249,0.11055263533549237 1.788859650686186,0.06901891031588858 l10.052790688250461,-1.7225637832732572 5.504307513710509,-0.4105534649232848 m-8.161809151750115,-15.294392497620667 l0.5910696203325941,0.9806558242445469 0.32431785042477057,2.207475347763148 l-0.12834176068624278,50.24114393044698 m-0.11937191288490262,-36.71584514906046 l-0.5711059559321486,3.1666658197799427 -3.1537466202733935,8.236724951369164 l-2.8048752812448097,5.798784090393177 -3.544870313426041,5.967319476017933 m12.379249806616533,-16.343572231127723 l2.2541178811701656,2.7419203805135703 1.7644357696423556,3.6809529173136704 m11.33570503017807,-30.315812637010573 l-0.19759248679991975,1.846727900276111 -2.7935904753801455,6.875073095254128 l-2.621480938790866,5.12420519495454 -3.2516489910874125,5.06869136095301 m5.660066879354675,-6.0147269722858026 l1.4915408781432797,0.13457309896245398 1.7736077449077416,-0.1582476253803774 l13.513055499192639,-3.0834091075561108 1.142801519116265,0.6401468071239532 l0.4109989743665024,1.8731064420343546 -0.5342925957044808,4.79446353261454 l-1.6326464467431747,9.249285052542536 -1.8707658912624527,7.555082079685269 l-2.1876062670862226,6.22311009344495 -1.88857393068148,3.7146239513971078 l-1.0231854999685166,1.2409339570201878 -1.0022566368896606,0.27464945143630143 l-1.053942110355462,-0.3460527654624605 -1.2237928982707007,-0.9434245188780379 m-7.248953331333682,-22.242076452548417 l1.5939473631770047,1.3747303948680292 1.7258559332856578,1.9246737355304613 l1.4858744619190392,2.046809888312638 0.7856198840070958,1.7119603937901666 " fill="none" stroke="black" stroke-width="1" /></svg>