<?xml version="1.0" encoding="utf-8" ?>
<svg baseProfile="full" height="120.09662876019843" version="1.1" width="104.4293662010476" xmlns="http://www.w3.org/2000/svg" xmlns:ev="http://www.w3.org/2001/xml-events" xmlns:xlink="http://www.w3.org/1999/xlink"><defs /><rect fill="white" height="120.09662876019843" width="104.4293662010476" x="0" y="0" /><path d="M25,33.873036092649066 m0.0,0.0 m28.868449036248016,3.7339820853792776 l-0.03695895982748804,0.46904368100968574 -0.4752559667801068,0.9805326744231194 l-0.8996182754686824,2.514056940426556 -1.7654705748386763,4.408764753016241 m-5.208552428378705,0.9943546025641956 l0.5727983811604298,1.0226547804731507 1.558270119514429,14.810520961353896 l0.10521891060142573,-7.313726748225933 m5.031466217587497,-5.800164267670165 l1.3672411386038736,0.7353378500772535 1.5191656592191,1.622233513185229 l1.6116230964823166,2.8168196904479914 m0.3742575911759352,-9.052337411856934 l0.3384116571794083,0.852509158377087 0.11666856651234885,1.1142927464155887 l-0.9947976639201668,5.414850398396807 -2.3396655270146334,7.914728836921485 l-2.9308152637952603,6.88566787684768 -0.34274218826143155,5.713276769926959 l2.591535603168141,-2.8866524423005195 4.36891521008253,-1.5808656430530106 m-0.6085206428327455,-5.510715681191935 l0.9627651470236857,1.7073670724339007 0.9332161073159418,2.4047504361279484 l1.0337437391630289,3.889689786481915 m-11.54388998103884,10.311251848775111 l0.5563012085487845,0.3835084788209639 0.7309880256399782,0.04840422050881232 l10.35268587595061,-2.169070208318604 m-2.600297128071659,-6.058575243792695 l1.023262805491866,1.798287313172954 0.9408564262909398,2.224086197106885 l0.823883461742411,2.3828675163031283 0.37911483755010505,2.005199428520793 m-5.508177724184409,-44.260809643087185 l0.29457440363152165,0.9797757662516743 0.20068021881205683,1.5754104759727685 l-0.06999618081838865,51.70540607419721 -0.010301127230177348,1.8544307452117026 l-0.10881001867309743,0.5824472779183779 -0.18936852515298588,-0.3301093560128896 l-1.0104299610759844,-2.9958710195533538 m1.5190784244634155,-28.223614695158734 l-1.4489195190871769,6.3578344429655305 -2.045206686965498,6.558012160191167 l-2.162852835453716,5.5204437713942776 -2.1302871675192536,4.003047120938341 m8.934924278630557,-16.36607915709 l1.261541825066346,1.667507881259034 1.3315728701664624,2.5132459343359868 l1.3325617078411163,3.177212822627548 0.7545800943523108,2.563143756995998 m2.623751473986516,-52.55575919782475 l1.5416401160026016,0.46868681880212304 11.038914152179117,-2.3027017959538174 l1.0517518043972423,-0.15162824811488554 0.8138903556546148,0.37412164185230234 m-7.86790344017361,3.5733368223828132 l-0.05749277082637219,1.4164566147517343 -0.5008559770596893,2.3424089452052375 l-1.6197769791705674,5.484485134817395 m-3.3685057020627815,0.7641985883157243 l0.41918204399679654,2.454325795288671 -0.06442448674443801,31.944707954967715 m0.3745961108321959,-32.95559219883828 l9.731118439914614,-2.0358998439006992 0.4295990545653434,0.11668875732143473 l0.6250231935825258,1.0627764230752967 0.2073269425284864,1.388988670182127 l-0.2815646030555758,32.492711961488965 m-10.774484198638545,-22.10795958766856 l1.895589070511039,-1.1533603235125922 5.436405256944,-1.053195658406461 m-7.006671072397329,11.478798538342737 l6.512752118563926,-0.920929916917295 m-6.49264883099952,11.786351158909069 l4.7942977368563815,-0.8506563943791234 5.704659062044359,-0.5319780225627232 m-8.343279336164043,5.488004435781932 l0.04407969100457572,1.740660972202425 -0.3310252454417057,1.3277905297491088 l-2.0892943927083167,5.027518946764815 -2.297728404722798,4.615596077607722 m10.172964995205735,-11.24043621826695 l1.513255177302295,2.770211906189558 1.345236509593823,3.146938079405491 l1.106141177863578,3.2247488971997655 0.6431482417250611,2.5882627982570714 " fill="none" stroke="black" stroke-width="1" /></svg>