<?xml version="1.0" encoding="utf-8" ?>
<svg baseProfile="full" height="113.8177184104529" version="1.1" width="123.82585800236723" xmlns="http://www.w3.org/2000/svg" xmlns:ev="http://www.w3.org/2001/xml-events" xmlns:xlink="http://www.w3.org/1999/xlink"><defs /><rect fill="white" height="113.8177184104529" width="123.82585800236723" x="0" y="0" /><path d="M25,25 m0.0,0.0 m6.435631170326743,20.88588270826568 l0.34505895871365394,0.10029868344486982 2.251936660839539,0.014843182022578668 l15.481804282009751,-2.1899724510427236 1.6532281006596412,-0.0071713402949498285 m-9.366731099685826,-13.880754360838951 l1.0551699374603902,1.373114894762634 0.2742159150934163,1.5259799046185987 l-0.18952287169832238,47.59134655421267 -0.12794032958825974,2.4355881495924017 l-0.3992661065474521,1.2540510690111306 -0.6035697157403366,0.3284696555791092 l-0.7275124131830216,-0.3184151241377703 -1.9560267697559635,-2.225085502782637 m3.810338639500937,-35.18783139500543 l-3.0573043544469947,7.420134871042516 -2.426894608785522,5.267823350767783 l-2.748430670215557,5.010151670643186 -4.152828277542236,6.566521924234651 m14.006201889792166,-19.928452892997825 l2.9656432473708216,3.2730232375908552 3.136111711550662,4.839320005590515 m24.20819705090218,-18.302325404777335 l-0.11313326034231248,4.1726618492696375 -5.714756580258425,6.413457355153641 l-6.064897218183065,5.74904707803491 -3.731201643830427,4.591624498076601 m16.79471964534358,-28.04660657795609 l1.7335655008931894,0.9439146813767637 1.5146871201835643,1.937849124320314 l9.545289754677434,13.96091038701269 3.8051648747558855,4.197492089934756 l3.440818341757539,2.4358190157976467 2.74809112033984,1.7584311244376754 m-34.59554331703348,3.1095570676615547 l1.9695924897204764,0.23056731788544108 2.8030626830390704,-0.1162511512020377 l16.527426774441157,-2.355629414026661 1.5369751488901977,-0.04559160580441407 l1.2694226936237754,0.5725461680851468 0.5391730541291654,1.1984057657152167 l-0.0772288924453679,1.627565855100993 -1.413683187996983,8.154947830188672 l-2.1801034332012517,9.24183372651914 -1.9171688475265696,5.6687624449799605 l-1.296614770852801,2.060394953732997 -0.8262228643614994,0.5094674366568014 l-1.4504632775341326,-0.481530628971301 -2.304845323421263,-2.2110853843894898 m-3.7746618106862253,-22.56529783250522 l-0.04202700996473071,2.099188209763491 -1.086185683271813,3.1092667156130758 l-3.3707600062444736,7.162035467623931 -4.046501316033428,5.629715151590339 l-5.354671280820536,5.155992563234775 " fill="none" stroke="black" stroke-width="1" /></svg>