<?xml version="1.0" encoding="utf-8" ?>
<svg baseProfile="full" height="118.12457456428871" version="1.1" width="122.96412625236928" xmlns="http://www.w3.org/2000/svg" xmlns:ev="http://www.w3.org/2001/xml-events" xmlns:xlink="http://www.w3.org/1999/xlink"><defs /><rect fill="white" height="118.12457456428871" width="122.96412625236928" x="0" y="0" /><path d="M25,25 m0.0,0.0 m15.786109549089872,24.291106454689622 l0.3656992499430651,0.12943027704647883 1.8548697032855832,0.08866458292775405 l13.66388747975727,-2.0877716925275456 1.55304813584433,0.04853105916490877 m-7.376106377709727,-12.88607302296792 l0.7814721029395961,1.2368974979987764 0.2559252733713114,1.6127769595280506 l-0.07892688903396415,43.99626102221789 -0.15615064021458896,1.9522011202155278 l-0.382877038141469,1.0509532665664956 -0.50960977354956,0.2536333795289196 l-0.5743747065144769,-0.3105384728769882 -1.732725679761538,-2.211127197870894 m3.135415161896825,-32.491680737606714 l-2.4200618601625963,3.1152451461742907 -2.775738857220178,3.1739231596197786 l-7.544968617782933,7.654973300879472 m14.403565491862597,-10.858459409261997 l3.0935298540526803,1.5698936242532904 3.397985108057165,2.7719304350241636 m9.597027504908366,-14.753587422188104 l-0.3825607764591008,1.3831580209643775 -1.8471177522683595,2.4039962662355823 l-2.3955770536713272,2.368580433329901 -2.6254500713109827,2.129279292681644 m21.887517083264026,-0.04286691965188449 l2.675471737483983,1.0870513601918839 2.580772544405403,1.8067553816080797 l1.8927533589699421,1.6505506058319421 0.9116997641570607,1.28901125194726 m-14.21891530976811,1.8041618720412407 l0.16273219857876284,1.3830695179491976 -1.3812520526731134,1.7029945134443762 l-3.4230014839371563,3.933243570198973 -3.373534622229917,3.042688625162452 l-6.402678267522939,4.5500179444951625 -7.012054239295731,3.646871490133269 m20.091872471643857,-15.882715181129262 l6.25442705433787,5.303872953283049 6.994823744396144,5.088484225964411 l4.500698938783818,2.745531365543216 3.7365048105675274,1.5298108548266809 m-32.40856864581805,3.9826494762605473 l0.7727468566537876,0.9575464771670168 0.6510047356192022,2.097415020411011 l2.164664657749733,10.816232814863342 m-2.0373335953173317,-12.844026425501793 l18.399813936101673,-2.1295272476917386 0.8619036238220862,-0.02100799252256041 l1.3060571450751328,0.3459912387531626 0.6578025062649038,0.8810792564482254 l-0.019462571498762682,0.6649492293354599 -2.969352132567765,10.268102563132976 m-15.782871984273289,1.5750793929475841 l17.506287178358797,-1.1025077849339797 " fill="none" stroke="black" stroke-width="1" /></svg>