<?xml version="1.0" encoding="utf-8" ?>
<svg baseProfile="full" height="109.66213679225669" version="1.1" width="103.00550683125272" xmlns="http://www.w3.org/2000/svg" xmlns:ev="http://www.w3.org/2001/xml-events" xmlns:xlink="http://www.w3.org/1999/xlink"><defs /><rect fill="white" height="109.66213679225669" width="103.00550683125272" x="0" y="0" /><path d="M25,25 m0.0,0.0 m14.240347644078426,11.419885760525778 l0.43105908140264443,0.38255452914114896 2.557417691133531,3.0289194554731145 l1.7664910175329573,3.383016399890002 m27.263655711389145,-12.600156597277326 l-0.03370135102030002,1.0523514187285272 -0.4199121478560319,1.171655524808518 l-1.8115634202035529,3.029560021748992 -2.509375803022217,3.1529547747901345 l-3.0259204891418054,2.798298511438815 m-32.97588806534525,9.306261764705406 l2.2961882833061953,0.40785331128944563 2.5486670834221368,-0.02471055078654795 l30.082131443726592,-3.7615306786977 5.130596649410901,-0.41919385609813103 l4.9089237387818,-0.05807185421783522 m-22.767650672031845,-21.423848754341112 l0.9518140370791358,1.0196214059561712 0.47322823697371635,1.4994575899807627 l-0.16565072665033323,52.4083490426606 -0.22271488304801385,2.380679273361243 l-0.5362461952814799,1.254313769967776 -0.7544394924712172,0.2539165292089099 l-0.8771730498832919,-0.5319984013055348 -2.155295278880761,-2.8713010161568344 m3.072858576859408,-31.812797833222827 l-2.1508504381754867,3.877224836934332 -2.678806246771436,4.038779495076194 l-6.614809630305077,7.863905583467625 -6.642510214012496,8.886119964123713 l-3.37050688603843,4.016818046019879 -2.5376275837590803,2.399768608312498 m26.237971218600567,-28.349875006200964 l19.131414838798392,22.60968880198753 2.014672513282006,1.8683255716047658 l2.1487116393732664,1.043638883713967 " fill="none" stroke="black" stroke-width="1" /></svg>