<?xml version="1.0" encoding="utf-8" ?>
<svg baseProfile="full" height="106.35975217246153" version="1.1" width="108.65208434234236" xmlns="http://www.w3.org/2000/svg" xmlns:ev="http://www.w3.org/2001/xml-events" xmlns:xlink="http://www.w3.org/1999/xlink"><defs /><rect fill="white" height="106.35975217246153" width="108.65208434234236" x="0" y="0" /><path d="M25,25 m0.0,0.0 m7.761088847807474,16.61202565922365 l0.43190214635949686,0.11588536788667735 2.433182775402438,0.10029903925958673 l12.230457807418773,-1.8656927257966216 2.588032136180443,0.09187403621024696 m-9.358739415174504,8.95844887499669 l4.1960908706398525,1.20426658470271 1.6223333236892252,0.7607000845274533 l0.7425796784983496,0.45634528487302667 m-6.447472134739742,11.36402464276727 l0.69830572475191,0.7541401307948514 0.9446624172068608,0.003100739330684214 l8.478930218821526,-5.763208771153559 m9.362686848464852,-16.634958623563513 l-0.12237946473134982,1.4434633351024073 -0.4330412693162711,1.3570674526195403 l-1.8834116485614278,4.5070673357232565 -2.127758964566912,3.8840943249823567 l-2.608198580560168,3.5847304176874553 m5.4017651509365665,-5.365395487455565 l1.83661697173581,-0.06265812230474208 10.892726873283527,-2.3243036073440333 l1.9626486710359687,-0.13218417372328484 m-17.343491528801696,12.988110777030254 l1.5036002235385892,0.23477036236390927 1.3472052347914625,-0.12760515209666148 l12.80536038090657,-2.108857138950656 1.0344319860657265,0.2576727662701712 l0.27115630546395914,0.3799318592961721 -0.7822101470481894,3.1230913385890484 l-2.145584078021247,4.336808958645912 -2.257504914965239,3.5205367741643023 l-2.540844544663842,3.037392824586166 -2.8586878098098882,2.796473539061115 l-3.3340553119558174,1.9704344527225277 -3.854155934125373,1.6239204093930308 l-3.258949837803885,0.9692211816520403 m6.0852865735899035,-15.577769600594635 l1.4889930914728158,0.39105480621651356 2.5546758101759326,1.3667499774535214 l12.561601344493374,8.501214873001741 4.499158252969308,2.8249541896126282 l2.2603515227666264,1.8805707866843835 2.012738738720563,0.9219423880135103 " fill="none" stroke="black" stroke-width="1" /></svg>