<?xml version="1.0" encoding="utf-8" ?>
<svg baseProfile="full" height="101.16818802087114" version="1.1" width="102.07228887978701" xmlns="http://www.w3.org/2000/svg" xmlns:ev="http://www.w3.org/2001/xml-events" xmlns:xlink="http://www.w3.org/1999/xlink"><defs /><rect fill="white" height="101.16818802087114" width="102.07228887978701" x="0" y="0" /><path d="M25,25 m0.0,0.0 m26.514633667651523,3.5609577093448044 l0.45283941549176077,0.21704628273291407 1.5226814159835838,0.7538231066438061 l1.440582116646288,1.1180716122750771 1.007684604267554,1.2640052716353867 l0.3311237192043618,0.7216098747153641 m-20.972189918798136,4.81769896171483 l-0.945687490286786,3.9491669555398077 -1.9442610722103741,4.587511239380819 m3.8018664230490717,-8.19413168742697 l32.36757152759834,-2.634245976448285 6.994197875886018,-0.32312060288232314 l1.0793014023172725,0.27926339087017066 0.4219451929865353,0.5001560445489324 l-0.07454151565773064,0.6407798183083122 -1.1721919747791743,1.4750298262602326 l-2.653938639926785,2.017238217754204 m-34.00406554858499,5.727812201727725 l1.857969942478023,0.22829948141659304 19.05897246798536,-1.7861565181965682 l3.116500216536311,0.08170831444110303 m-31.95409530155171,11.605765489027252 l2.870541196960855,0.23734886151872214 30.26864804693244,-2.4477140041448697 l5.499618752606882,-0.17684275216760517 2.7703591030179995,0.2345838086220113 m-21.581445357101625,2.674557232003242 l0.6770112986244132,1.417847187204247 0.26058076442957034,1.2838734936692766 l0.10383321821961268,16.265360268211786 -0.30321132095290304,0.777285421774602 l-0.4848730909292044,0.2935994907965408 -0.6203898098285846,-0.12370836162344984 l-3.1067066002811754,-2.3510856997274963 m-9.133638703251123,-11.325170200954854 l-0.04505415883778386,1.1873582611133642 -0.35160440293263934,0.9702301149861233 l-2.11279619249609,3.2572907821644828 -3.416487651021636,3.705833355026905 l-3.730808845456999,3.1339441073951226 m34.9429305444486,-12.455671388374913 l3.198164481727692,2.2589335919713616 3.768270528883933,3.61115598427193 l2.677229992684209,3.339632816039502 1.2430708445446783,2.4107059616886426 " fill="none" stroke="black" stroke-width="1" /></svg>