<?xml version="1.0" encoding="utf-8" ?>
<svg baseProfile="full" height="99.75291140288499" version="1.1" width="106.30395241687788" xmlns="http://www.w3.org/2000/svg" xmlns:ev="http://www.w3.org/2001/xml-events" xmlns:xlink="http://www.w3.org/1999/xlink"><defs /><rect fill="white" height="99.75291140288499" width="106.30395241687788" x="0" y="0" /><path d="M25,25 m0.0,0.0 m29.668555711134193,7.336921014710108 l0.018099567075437292,0.37733361894078704 -0.556833846364286,1.6706966821273852 l-2.1011460468407726,2.8810536032074716 -2.717733939262991,3.351426505217764 l-3.447454049841848,3.7667486416122444 -3.240691193694645,3.048495152484976 l-3.570019203029776,2.995191993009475 -4.142600935468804,2.858533234248818 l-3.7104116852360334,2.053524443717574 m23.910205917241445,-20.147920450804328 l20.797511900112905,6.005497534969774 1.672064136175589,5.121438153198641 l0.682224724354394,3.0969402129824823 m-28.438598946210252,-1.2911435958303874 l2.4310400883539587,0.2613799224116852 13.196288425243319,-1.255667223698758 l3.1453204476607186,-0.14754162704580978 m-25.039647020647518,10.092088906147456 l0.8188394749094489,0.24607623966769002 1.0184382036333472,0.14394381932759243 l11.587107379889247,-1.102817343013772 9.369634684378422,-0.6264517662905446 l8.131098717801093,-0.1690947278199885 3.114375556181591,0.1771403454921173 m-19.911836526206812,-6.034800783801471 l0.6207862263039812,0.7803884875430753 0.2781793686028054,1.3195149036875014 l0.013459494375193995,22.33835562017741 m-13.408167935204114,-9.874317241704462 l3.0557811354346844,3.0371113258327544 2.282659104907617,3.407005634736935 m19.711993375756997,-7.780450714662413 l0.15896995851817242,1.2879972160376674 -0.45187913062234425,0.8708666005005452 l-2.4029147825578163,2.5579606554652083 -3.288356375346546,2.795275190498433 m-27.212005921500104,4.01279968478365 l3.3524972529605113,0.29141153481971493 14.445535697639679,-0.884046019136406 l14.31328204527705,-0.6836675779825954 8.94883120331544,-0.12100420298508371 l3.201470157675298,0.2665443512673982 " fill="none" stroke="black" stroke-width="1" /></svg>