<?xml version="1.0" encoding="utf-8" ?>
<svg baseProfile="full" height="109.6902410596487" version="1.1" width="98.69788444246164" xmlns="http://www.w3.org/2000/svg" xmlns:ev="http://www.w3.org/2001/xml-events" xmlns:xlink="http://www.w3.org/1999/xlink"><defs /><rect fill="white" height="109.6902410596487" width="98.69788444246164" x="0" y="0" /><path d="M25,25.513004520529577 m0.0,0.0 m2.772846615231846,16.170213350610833 l0.5738197242310883,0.11037888524495597 3.3327458739976126,0.0028199745504890565 l12.153370692242467,-2.3939969109111923 m-7.201929799874109,-14.402419820024667 l0.6634169449279755,1.4649924368217841 0.22685230455348016,2.1376404121280177 l-0.1430714547394657,52.35715471688303 -0.383957063411885,1.6979109581932532 l-0.5580704739362152,0.7145614043598251 -0.6755177662632248,-0.025815990216067775 l-1.4687669365196123,-1.404210356895157 -1.6624098467192596,-2.415655313277237 m-6.37694701178651,-15.324483484004764 l1.0299021884344912,0.40041649006343144 1.4202223588665912,-0.6014913194403224 l13.40633122025109,-11.092836678175326 m15.070889910155113,-27.333670987353766 l-0.20745013119555894,1.2194390497731293 -2.200745744244418,3.1000267129731305 l-2.3571070066853927,2.6833500976587885 -3.469551842158374,3.2701985897533525 m-2.128777650044001,0.3065445234230574 l0.5840511771894282,1.0074179358275348 0.22800250037260425,1.3391865524183892 l0.11094850040140589,17.024195540591666 -0.444675237185043,1.0760314146805599 l0.23202155541904915,0.7244168932069495 0.6647517243698212,-0.2820388631137499 l0.9950597141955977,-0.7991053652511118 7.495486305398589,-8.220234347506794 m2.9988265239346323,-14.89271458883216 l2.2919912231944237,0.3985547622330654 9.920069583507491,-2.2209507063296985 l0.9347830268899188,0.1379831275861686 0.7474502142860114,1.1276498969362412 l0.12302252517397624,3.1523749547326863 -0.7204893073132507,6.650777950560963 l-1.1902334323114838,7.172177095416582 -1.2488631215174144,7.7247818652656015 l-0.6980001596577762,2.168605263400986 -0.597888465326478,0.7826142087044615 l-0.5973031336510304,0.11279870279274638 -0.5845296637823423,-0.36420561503453613 l-1.3931923800727886,-1.8532050316947708 m-7.316100225257771,-22.862458658037774 l0.5407202744978563,1.0368469062440093 0.22611556638141192,2.021917632833966 l-0.021940649565996017,46.37275226934855 " fill="none" stroke="black" stroke-width="1" /></svg>