<?xml version="1.0" encoding="utf-8" ?>
<svg baseProfile="full" height="108.49071365531836" version="1.1" width="97.82910083634457" xmlns="http://www.w3.org/2000/svg" xmlns:ev="http://www.w3.org/2001/xml-events" xmlns:xlink="http://www.w3.org/1999/xlink"><defs /><rect fill="white" height="108.49071365531836" width="97.82910083634457" x="0" y="0" /><path d="M25,25 m0.0,0.0 m15.408990928138381,17.029096648060918 l0.38508989227369983,0.1062551108082706 2.5715828609974616,0.05508216778106862 l17.43773575446624,-2.152455154357297 2.611696110720623,-0.1341497922060893 l1.6060883660175043,0.21047629914341365 m-24.41909578128989,7.409952660976733 l2.26274594926229,2.89635203991667 1.1504209880731668,2.372340680385247 l0.41682308608219976,1.5408151400217769 m18.768383061903087,-9.614099892364413 l-0.2766905932733064,1.5601315722782623 -1.1924289755361737,2.4458773425941795 l-1.6633942613926185,2.2705863797996426 -1.6164254110479936,1.6019077013581902 m-24.20166873838275,6.303924027918392 l3.6066818966690297,0.2921142033402038 24.75840354344339,-2.394168431932956 l4.839272134068081,-0.2621760801230854 2.9520576266996295,0.2949014318732137 m-19.127368874665134,-24.570448968666682 l0.7967274122451862,1.1392833877206283 0.2989907027811607,1.5135145587696914 l-0.1282288154456859,48.57560062222239 m-1.8385507735318711,-25.44360299573052 l-0.25224822258465046,1.5692702457353185 -1.1381247039116908,2.255821382150832 l-2.16257437776085,3.429290680701545 -2.556611981018637,3.5140905469986543 l-5.086048259775893,5.878871735391973 -2.4129791067122155,2.2581572438094533 l-2.4813535083745384,1.90279842597944 m18.509924920523282,-20.32908000304343 l8.144056031344956,8.23503674974257 5.287714934036971,4.923444443696541 l4.866554345853791,2.9312183502051212 1.702952675448337,0.6135746468069595 " fill="none" stroke="black" stroke-width="1" /></svg>