<?xml version="1.0" encoding="utf-8" ?>
<svg baseProfile="full" height="106.20749195250255" version="1.1" width="109.49251072481275" xmlns="http://www.w3.org/2000/svg" xmlns:ev="http://www.w3.org/2001/xml-events" xmlns:xlink="http://www.w3.org/1999/xlink"><defs /><rect fill="white" height="106.20749195250255" width="109.49251072481275" x="0" y="0" /><path d="M25,25 m0.0,0.0 m1.473982185125351,18.242390155792236 l0.3647010028362274,0.11145488359034061 2.269989401102066,0.057929945178329945 l14.904536008834839,-2.2798798978328705 1.8587450683116913,-3.63620506504958e-05 m-9.468262791633606,-15.40454387664795 l1.1226939409971237,1.3047118484973907 0.6068099290132523,2.045583575963974 l-0.20425863564014435,48.05675029754639 -0.1770312525331974,2.6729223132133484 l-0.471750870347023,1.2433743476867676 -0.6778717786073685,0.15683472156524658 l-0.795227661728859,-0.5874445661902428 -2.2018365561962128,-2.8045737743377686 m4.21550452709198,-34.19213056564331 l-3.0236604809761047,6.822601556777954 -2.536284327507019,4.891381561756134 l-2.9069694876670837,4.691577255725861 -4.353805184364319,6.103838086128235 m14.542826414108276,-18.00033688545227 l3.869088590145111,3.601962625980377 3.1298792362213135,3.785310387611389 m13.11726689338684,-30.23460865020752 l2.1276994049549103,1.4872285723686218 2.1476466953754425,2.0435889065265656 l1.6965079307556152,2.1416625380516052 0.6932476907968521,1.394972950220108 m-16.213070154190063,9.803375005722046 l2.970135509967804,0.07237346842885017 19.941197633743286,-2.5411048531532288 l3.545944094657898,-0.1955239474773407 2.137008160352707,0.3494081273674965 m-15.659868717193604,1.7832781374454498 l0.7732857763767242,1.1765512824058533 0.5882341042160988,1.7174524068832397 l0.17021596431732178,30.414133071899414 m-12.595981359481812,-16.468393802642822 l2.9694706201553345,0.19559666514396667 19.28959012031555,-1.8918447196483612 l3.273000121116638,0.1983160339295864 m-31.660170555114746,20.18122911453247 l4.447556734085083,0.0374165503308177 15.490981340408325,-1.2382421642541885 l12.455685138702393,-0.6575505435466766 3.156309127807617,0.0074074690928682685 l3.0888211727142334,0.5846187099814415 " fill="none" stroke="black" stroke-width="1" /></svg>