<?xml version="1.0" encoding="utf-8" ?>
<svg baseProfile="full" height="119.0996676460698" version="1.1" width="107.71988793230322" xmlns="http://www.w3.org/2000/svg" xmlns:ev="http://www.w3.org/2001/xml-events" xmlns:xlink="http://www.w3.org/1999/xlink"><defs /><rect fill="white" height="119.0996676460698" width="107.71988793230322" x="0" y="0" /><path d="M25,25 m0.0,0.0 m12.298420486618618,4.485331554985046 l0.5220841767542519,0.24628970715241927 3.3125345098245287,2.2882371812133733 l1.409789596381941,1.5177356971155453 0.7549847677250906,1.2513334957908107 m-10.834584351062253,7.773351692904787 l4.170392705370104,2.4579692635015395 2.0441430700291607,1.9049184167479272 l0.7551521141024743,1.15043163312413 m-7.70283508821583,27.691920340998426 l1.2478544200325226,0.18431977683675843 0.950329046416122,-0.8924249696952715 l5.3551972594019075,-5.210283888193078 4.040433708272417,-5.637155365126867 m11.020811172480643,-33.04769515291415 l0.6952605537004539,0.8480156640060995 0.32673728721105033,1.7377093897243594 l-0.09853743464367475,28.851943155809202 m0.5983098189355698,-31.316095398238286 l18.525380157264674,-1.868972264292534 1.652317897390981,0.046309024827588856 m-20.588210638573045,11.894580701687714 l16.867464360298257,-2.0711263970646585 1.7579650101253652,0.0586794487572117 m-18.51326615359765,11.449960217259145 l16.91732985330721,-2.04771820985247 1.8608418777292426,-0.0867277566891361 l1.4778870537078597,0.43272297046657504 0.689607648689814,0.9918626324366662 l0.0881635621559384,1.3578782352630625 -1.5522898539076315,7.134998095700384 l-1.47318901214679,5.089482279188637 m-18.245948771018583,1.7214911450469994 l15.586879901146332,-1.4180694714642628 3.8743980745953412,-0.09675816400943266 m-30.968128293956,13.07539650856918 l2.2976141496552285,0.2661330576863417 2.786797750850195,-0.04926079691659879 l29.200310478308655,-1.8698225960606962 4.611485060942738,0.3108375678001414 m-20.43205777148785,-7.121744073984968 l0.5330863888021921,1.0593855647369426 0.15853166016130382,1.3059842039446974 l0.041176362206253474,23.248313527290513 " fill="none" stroke="black" stroke-width="1" /></svg>