<?xml version="1.0" encoding="utf-8" ?>
<svg baseProfile="full" height="107.82955531017737" version="1.1" width="107.34336410953168" xmlns="http://www.w3.org/2000/svg" xmlns:ev="http://www.w3.org/2001/xml-events" xmlns:xlink="http://www.w3.org/1999/xlink"><defs /><rect fill="white" height="107.82955531017737" width="107.34336410953168" x="0" y="0" /><path d="M25,25 m0.0,0.0 m6.227741438423392,21.689069970049808 l0.3261155597791572,0.11531564448175065 1.7666514426050812,0.1022484458650095 l15.301362037541928,-1.7808530907088864 1.0815301983568266,0.06786828661935343 m-9.140912126909134,-12.74829983639136 l1.018574250831359,1.3108721790293958 0.2958912742408542,1.4868818548797094 l-0.18985161573612452,43.844931366509 -0.1578856314095212,2.315194521616444 l-0.4400539850965768,1.161377805026525 -0.6300901482791379,0.2649481632006205 l-0.7246290240883704,-0.36068622188774385 -2.018874568811597,-2.296991025480155 m3.79406265283749,-30.432979887186654 l-2.547855507909335,6.279987158506135 -2.169753962600063,4.3979790659889275 l-2.4791237122054812,4.15863810516232 -3.7154182244944605,5.383820775266975 m13.50439734366628,-15.028011045175296 l2.8206169427195342,2.7397419488235513 1.9707387936362304,3.3752204737808893 m14.067626146009202,-27.381506250497978 l-0.0034338853799555655,1.3260430553905622 -0.728930826369296,2.0512615409975457 l-2.809061718707305,5.44339584521203 -3.7435454568197137,5.346560882654325 l-4.369267213699086,4.741425521777967 m7.4077995671009145,-6.514514658771264 l1.0914199718177726,0.2776114332902414 1.9351642346134539,-0.02835112565616042 l16.838999028082853,-2.8688148524638093 1.095909248088645,0.09014955309142206 l1.118290929866707,0.5137930227068499 0.7311626348515583,0.4093675782776088 l0.6733641492661194,1.0255090772472113 0.1446338737114696,1.4561052295914407 l-3.571606915499205,4.477650319995019 -3.7788877207577474,4.593186737501884 l-3.5881054457276687,3.9369996229452844 -3.562554548279884,3.586500550013345 l-3.340264389286345,3.0701664626442438 -3.2471301357750146,2.463808253064826 l-3.5162991022598145,1.8316076997329818 -3.9274748720113717,1.4551824701668599 m7.920156930742026,-18.257236054668432 l2.0269662364595975,1.563791625193061 2.3790810717834097,1.974652892545801 l2.1518849616182587,2.2004884632833885 1.9965490177394156,2.0697324704748103 m-15.581430773497999,-17.33949130580947 l0.6797252851081056,1.5188438168884455 0.13577579112920696,1.8805587335332243 l-0.10483548717162568,25.777466731196878 0.8408933700914396,1.281313594079347 l1.2204750070491255,0.7659737892515875 3.1953136045191712,0.6830108773464791 l7.253048884058835,0.24131818991596143 4.690141820454642,-0.36883151271838666 l2.31517134346846,-0.6359456423839257 1.3751978811350196,-0.9816751194409208 l0.7508797158851717,-1.2922020165523556 0.31090007190360214,-2.04021666211348 " fill="none" stroke="black" stroke-width="1" /></svg>