<?xml version="1.0" encoding="utf-8" ?>
<svg baseProfile="full" height="104.63848119878676" version="1.1" width="109.6367577678204" xmlns="http://www.w3.org/2000/svg" xmlns:ev="http://www.w3.org/2001/xml-events" xmlns:xlink="http://www.w3.org/1999/xlink"><defs /><rect fill="white" height="104.63848119878676" width="109.6367577678204" x="0" y="0" /><path d="M25,25 m0.0,0.0 m15.065714236372276,18.831956464499367 l0.3852746449916969,0.14107561171959151 1.3202204652260323,0.11073040385902677 l1.3411437995934123,-0.09808305480816613 23.57913371776738,-2.8839149397694 l2.3580827348092703,-0.12889266914905592 1.8529714404971789,0.23922924662646938 m-27.15325103509547,13.789185754400377 l2.5844245580875467,0.10864009406789883 14.659898519813671,-1.993366840914607 l5.093833253627911,-0.3808485471325503 m-11.87675505626844,-20.510256195247514 l0.6525042028438752,0.7661263156859484 0.34596038878154267,1.4448150572957097 l-0.09107546220981015,45.20208449765368 m-0.3817072470582214,-27.605953040322454 l-0.27245300585255305,1.4741374231493316 -1.3393742027029223,2.504090713121969 l-2.3498887934519828,3.6499650928334897 -2.6073159106551267,3.5763545957156953 l-2.901798990708461,3.4309838679738216 -2.4588593210270306,2.5701658455077467 l-2.4772711768933853,2.260521364123976 -2.326886116667807,1.8143162851322827 m17.81678505703353,-20.610712212694157 l12.496972187845067,5.6068497086817075 10.780948682105038,7.394482174577479 l2.9568781375396167,1.4412883992731462 2.5826480594765533,0.9272999592813783 " fill="none" stroke="black" stroke-width="1" /></svg>