<?xml version="1.0" encoding="utf-8" ?>
<svg baseProfile="full" height="119.58096143781543" version="1.1" width="111.04543297004781" xmlns="http://www.w3.org/2000/svg" xmlns:ev="http://www.w3.org/2001/xml-events" xmlns:xlink="http://www.w3.org/1999/xlink"><defs /><rect fill="white" height="119.58096143781543" width="111.04543297004781" x="0" y="0" /><path d="M25,25 m0.0,0.0 m4.76024427591121,24.70187789435398 l0.5927758352988696,0.09301563253471015 3.202119874835,-0.0188418063673507 l12.371445215881174,-1.8034552484055026 1.9848429314845666,-0.04466806968254697 m-7.929663177109127,-11.715512342730573 l0.7772087649955419,1.2555587552709493 0.20993939417912577,1.7105048675822976 l0.005082333905749791,40.870110499650046 -0.2829091885412642,1.2893644041812302 l-0.4816598564945958,0.6433334599483073 -0.6056378557348221,0.09448620861359396 l-1.4308258733126313,-0.9174675563176645 -1.7423517908731667,-1.8641600341560196 m-6.726497847350988,-11.97460011617979 l0.8682858093706908,0.33774008382623466 1.141233265396742,-0.3263246059648573 l13.732856373222006,-8.972158976281147 m6.843762276240253,-19.97100676280684 l2.4299294150021935,0.2228111494495791 1.6492089092368483,-2.126552094554389 l0.813013575851267,-5.41221104774453 0.36768780519474387,-0.5240655612919777 l0.2776999841799328,-0.07232707900027541 0.23858528955711222,0.2917160303263496 l0.09755126295970828,0.6391384673721792 -0.16298722905670865,2.5490931688098155 l-1.6344395448353637,9.424139016819618 -2.8454217648163196,8.166388297972746 l-3.6988634446299073,5.784867911855305 -2.4811916973833967,2.611869035633603 m4.508840731414611,-19.07672147865603 l2.404179310042661,1.0254202511430262 1.8287700953202546,1.398339724433213 l1.5054100116920217,1.5347564092913337 1.1315535300263442,1.6577639279981489 m8.117722601087731,-11.895156771368569 l1.673272675716793,0.2409642388713013 1.5558133624339978,-0.16379528888570252 l8.597220283949934,-2.202399154058928 1.1513286991557472,0.0848828299362876 l0.4346121351975908,0.31457431355497684 0.2186143139585546,0.5204435234822713 l-0.3068548576695755,2.1002722148601 -1.5631312653931275,5.010833179779479 l-1.7003133244504425,7.117867268913953 -1.2607787411059037,6.294680555411658 l-0.676517029690033,1.6231053240112465 -0.5856332168765308,0.3489710584857507 l-1.2002407919677007,-0.7213977055168048 -1.1605943298648258,-1.3522677061241468 m-0.4701701639180911,-17.649407923332994 l-0.2520332074605447,1.7350425432627876 -0.9302339726080905,2.6563303853629807 l-1.2858188332943976,4.527538623007649 -1.4204321651079876,3.729478556385178 l-2.575708884148403,5.142489946088587 m0.48440143069679203,8.019527888969318 l-0.09160255431274328,0.7729602265361976 -0.43213608351051785,0.8802248185319234 l-2.358948854340482,5.634381179681149 -2.196033507158568,4.378695164730077 l-2.527557298477725,4.116749516875668 m5.8163227805419835,-7.554159448932507 l0.4779257806653278,0.21034006830934004 0.5720740647048171,0.01897732100393192 l14.585466510680991,-1.66042015919666 m-19.768377771368062,11.70725460143775 l1.5583183717619056,0.8988096287689179 1.68396525654844,0.07162602232113839 l14.36094617642872,-2.0529103001998807 2.4677812612893955,-0.05751874235137806 l1.9836707578140729,0.23864435233233885 m-12.016567820083951,-7.260953909836192 l0.5185494579390931,0.9805101332488434 0.12997630948966424,1.1203643837894066 l-0.020420989522136924,18.725045701055603 m-15.062648406138779,1.1915662653943535 l3.407845958002359,0.2559742962922647 13.157349378238568,-1.4689870961915912 l8.66288497350687,-0.6383527327822465 2.9364188580543242,-0.013953080636230755 l2.635928639592441,0.5194996654559915 " fill="none" stroke="black" stroke-width="1" /></svg>