<?xml version="1.0" encoding="utf-8" ?>
<svg baseProfile="full" height="100.41412039814658" version="1.1" width="99.9030072336089" xmlns="http://www.w3.org/2000/svg" xmlns:ev="http://www.w3.org/2001/xml-events" xmlns:xlink="http://www.w3.org/1999/xlink"><defs /><rect fill="white" height="100.41412039814658" width="99.9030072336089" x="0" y="0" /><path d="M25,25 m0.0,0.0 m23.960361007049258,3.5759236069490377 l0.4668355356637076,0.17459238641976102 1.4797672975575549,0.758164291526602 l1.401581388779571,1.2249560291963344 0.9690601380604326,1.3393243367948855 l0.27042510067209247,0.7703630798843405 m-20.363033187924295,4.452239616796509 l-0.799984636763967,3.9435893766939683 -1.8147205711911651,4.693028140425858 m3.2817840117110166,-8.043183428867653 l33.341037039470905,-2.4811251183422227 6.221218583589461,-0.2242312660551585 l1.0668760149645122,0.29486750828223784 0.4217995119698127,0.5004672266655946 l-0.07940926250319309,0.6359281750928227 -1.1753405886058772,1.456897129309192 l-2.604702540939728,1.8635627396488654 m-33.86843768766983,5.220471401643177 l1.8670263395962052,0.16925402081103366 19.241558433872807,-1.6529581737987837 l3.1562141673939847,0.08372320392206835 m-32.44908285199079,11.154148503815092 l2.892279592092471,0.23770930191458475 30.77304732466421,-2.3097234150723853 l5.638014977968828,-0.16862134225197645 2.738016631494643,0.2270643678437282 m-22.024452606810954,2.5379162986297796 l0.6965903747040837,1.3546722946937124 0.2660833147440778,1.2487804420301463 l0.09092951540912755,16.320173359121977 -0.3131546333831476,0.7648581116308326 l-0.49382081378958875,0.29128819279262236 -0.6215859114363516,-0.11318797091979542 l-3.103845705666129,-2.2684669668768778 m-9.187806437107717,-11.166046338410403 l-0.04991982439935408,1.1447765607133724 -0.35932952693988396,0.9401308894368569 l-2.18291453371689,3.0914879367839965 -3.5674369820987786,3.5752825253143863 l-3.9610293449107012,3.0318509683804904 m35.6805570360723,-11.957086979180684 l3.2478652144264917,2.1896857903038547 3.834754835677044,3.4569595038167686 l2.7174844808587295,3.177032805518399 1.2683124253856233,2.30074659991923 " fill="none" stroke="black" stroke-width="1" /></svg>