<?xml version="1.0" encoding="utf-8" ?>
<svg baseProfile="full" height="100.90511565464456" version="1.1" width="100.94307607713802" xmlns="http://www.w3.org/2000/svg" xmlns:ev="http://www.w3.org/2001/xml-events" xmlns:xlink="http://www.w3.org/1999/xlink"><defs /><rect fill="white" height="100.90511565464456" width="100.94307607713802" x="0" y="0" /><path d="M25,25 m0.0,0.0 m7.602211570042945,18.89553344981092 l0.3621955688314902,0.11211450967831486 1.8174353288136536,0.0706331579993612 l10.0919107106732,-1.6146632258833575 5.413228198673813,-0.41551712033260285 m-7.928967378945151,-14.468879068692809 l0.7255581619007208,0.8748623748303593 0.41664327499373377,2.0782698319550605 l-0.17048949757709242,45.37276174527933 m-0.10609234747822635,-33.15220270753091 l-2.208302999027033,5.994338378551302 -2.0453453370710535,6.772394081247238 l-2.015616646517179,5.331805244625385 -3.0486446964628233,6.724416853645388 m11.194917774442064,-18.254587937329916 l2.0019605059490955,2.7705340659753386 1.5979119620120585,3.690513922747643 m11.20213045205408,-27.799959544270695 l-0.06183701029631965,1.5564287568949564 -0.44374497847034444,2.0207460436276654 l-2.169851061442155,6.170551625426362 -2.9573396099900853,6.122623482435802 l-3.436081271497552,5.272756766095504 m5.861765669123484,-6.767723959257437 l0.8988010266225172,0.330566455714868 1.4876990954241633,-0.04185456962923313 l14.027741839114084,-3.37098196175385 1.066645315885949,0.10207749727374912 l0.9224289549201689,0.5829325899184327 0.6554017767191684,1.025247821171898 l0.18880172571664566,1.4790400782084452 -1.55006091586833,4.715044467354891 l-2.6207676893394907,6.603937499896655 -2.6468309889209194,5.24860500498961 l-2.5357848011731345,4.0851900316662375 -2.0383157186395566,3.0541567779117744 l-1.0500332651266469,1.1359454104948712 -1.039786129008828,0.5030075418708707 l-1.6326452456307272,-0.15193643629635606 -2.152477739360118,-1.7639574712462287 m-2.802286972284782,-16.02541513977381 l1.300411377038447,1.4011681546626822 1.3697359555221258,1.9012421795392256 l1.191666715234135,2.0815685282541962 0.6435880330181019,1.7420529067262898 " fill="none" stroke="black" stroke-width="1" /></svg>