<?xml version="1.0" encoding="utf-8" ?>
<svg baseProfile="full" height="124.75223610140972" version="1.1" width="104.9994686218547" xmlns="http://www.w3.org/2000/svg" xmlns:ev="http://www.w3.org/2001/xml-events" xmlns:xlink="http://www.w3.org/1999/xlink"><defs /><rect fill="white" height="124.75223610140972" width="104.9994686218547" x="0" y="0" /><path d="M25,25 m0.0,0.0 m15.74517097104057,11.708162045868704 l0.4570065160688801,0.18308091423096884 2.3955805306699216,0.13086449060776933 l12.654578832289149,-2.4823858778698518 1.36305494530378,0.4470288218092705 l0.2511005350751569,1.1842385325026457 -0.39271343352174043,0.8532179576965985 l-4.803495453537527,9.41036171451285 m-0.362090728580516,1.1344384037818094 l2.7754563616487182,2.5401705448103544 1.5253514505862957,2.2948516490615622 l0.9829272447440615,2.311667783381818 0.8513285059669754,2.9112899774051013 l0.5179552270585944,4.59214585304067 -0.16493330570002318,4.085932274021699 l-0.4782511639649829,3.499984225115761 -0.665677592786911,2.4785561015804043 l-0.580688904637428,1.3367196985376053 -0.6825510756376572,0.9808173796817429 l-0.8021265923632442,0.5793679439740268 -0.9574737220094426,0.11370984231209362 l-1.1296320754138889,-0.38529337299066363 -1.487653910511953,-1.450155918435021 m-7.2117157831253,-33.076409002117174 l0.33704127631923936,0.4118895652050436 0.15640003246566425,1.0098379359070244 l0.02122350358536196,51.611328241154496 0.3487386694313058,2.5345235605916527 l0.26131056831355237,1.1732375309005727 0.600703720872245,0.8408659726806434 l0.6349406592888058,0.4899319328222507 0.6507611999898224,0.37680387104692015 l0.6854320385809141,0.387600582920952 3.0937094625524946,0.5338549256594239 l7.87278180129599,-0.13386502758682917 3.6431986601919735,-0.6662802573334059 l2.920447594259622,-0.5781571669249922 3.2613532762999498,-0.54775518285804 l3.678271514147405,-0.5495364445484544 3.5675851715998594,-0.6127948906649204 l3.4650620939990175,-0.8017925905789605 " fill="none" stroke="black" stroke-width="1" /></svg>