<?xml version="1.0" encoding="utf-8" ?>
<svg baseProfile="full" height="106.22711716466398" version="1.1" width="103.59745438094092" xmlns="http://www.w3.org/2000/svg" xmlns:ev="http://www.w3.org/2001/xml-events" xmlns:xlink="http://www.w3.org/1999/xlink"><defs /><rect fill="white" height="106.22711716466398" width="103.59745438094092" x="0" y="0" /><path d="M25,25 m0.0,0.0 m10.245199233785115,9.998583376182353 l0.24634210455117336,0.4442454016223661 0.34238211210296815,1.6437973841244469 l-0.009978703810258385,13.057799814072549 -0.2942643461094339,10.157038702458713 l-0.4927447419864857,5.896706099374376 -0.7272785035559548,5.174299370332958 l-0.8590078995455753,4.0535790998684025 -1.2238605461297418,2.8948058192216073 l-1.2857165493618674,2.1465605305280757 m5.6724879281490015,-45.06231026445695 l8.798094490187669,-1.9691057748466478 0.6812398004945205,0.6379360461724889 l0.2073722528591873,1.6774466783340924 -1.1279724290614224,42.07084180824902 l-0.5089030567099051,0.18722188020698957 -1.2577075276912482,-0.6091703944792495 l-1.7284083510608987,-1.988396620539274 m-4.869298649144627,-29.28073670052197 l8.830133968865072,-1.2920500850713623 m-9.533250004609782,12.568383891663581 l9.213523482429563,-1.3556094490858488 m6.93712468453521,-24.224847485912424 l1.210588837340099,0.6133613130797207 1.1771855710207273,0.14105395387051212 l13.90735252926599,-2.10216591398706 2.2849673730289117,0.07501099993612631 l0.9479594735492776,0.5400509729031014 0.3345861355072111,0.6129519699320205 l0.03959665522522558,0.8169558480678387 -0.29309040113208656,1.0453584923334056 l-2.63859824581808,7.691851084983241 -1.6033633023105844,2.6903197436610307 l-0.9862605668668253,0.5108807085517605 -1.1067536284351709,-0.15036079320052753 l-1.3698967270383455,-1.2851330551543265 m-9.543417541678894,-9.817139677349783 l0.4056971351672934,0.9234509685389108 0.16209544920697777,1.0894601337110672 l-0.13125785592699005,46.004191287288634 m2.1831451525365386,-28.376369552657632 l1.7464657344365615,0.26690109492865915 1.5563150433845991,-0.18070232898794011 l11.645173372355085,-3.1497272575822013 0.6956679219575153,0.4918540698388031 l0.37578283143069746,1.218789012637381 -0.6194988104964251,2.70559635426359 l-1.209547543417005,3.8429860923931667 -3.3392116808029617,7.925423087288464 l-4.001405764392787,6.911323755959278 -4.397816135943422,5.698154017834178 m-0.8175935431533901,-19.485720829925885 l2.35945585090041,2.3929034296363825 11.23986193338759,13.195487974175366 l3.610303980337414,3.6836169910561622 2.5174563991334753,1.920698645748085 " fill="none" stroke="black" stroke-width="1" /></svg>