<?xml version="1.0" encoding="utf-8" ?>
<svg baseProfile="full" height="204.10067506085366" version="1.1" width="102.04758549312251" xmlns="http://www.w3.org/2000/svg" xmlns:ev="http://www.w3.org/2001/xml-events" xmlns:xlink="http://www.w3.org/1999/xlink"><defs /><rect fill="white" height="204.10067506085366" width="102.04758549312251" x="0" y="0" /><path d="M25,25 m0.0,0.0 m7.198537205789786,19.574535880505056 l0.3353761161295886,0.11544034069298904 1.7608020286734922,0.07669098936973363 l8.931998831047197,-1.728320287303529 5.177267007046975,-0.4826363939500007 m-7.234618138797876,-15.675329174157133 l0.7851541829672927,1.0206009084726864 0.38174453765099153,2.185737912774276 l-0.15604328517641866,48.88490644463977 -0.15335067853110745,2.387217386740891 l-0.397264301298052,1.242917481228346 -0.5404465233083845,0.22595980401153673 l-0.6155896590140004,-0.571328650916554 -1.7562419681255463,-2.857649414939365 m3.343031591656161,-34.13836548429137 l-2.28364468823907,6.873322982486026 -1.9597213120533523,4.902834501563811 l-2.26224238588663,4.674348619066528 -3.4192180397307594,6.069114297258262 m12.40591233407063,-16.693177060167336 l2.3639022706337744,3.1651861170525994 1.6066526889356427,3.85868397227116 m11.943116929682544,-31.57396506279614 l-0.0007310552938595154,1.5464282908711506 -0.4583308190108696,2.144313088763775 l-2.209121483182719,6.558575267972519 -3.1110861795003375,6.651533111168478 l-3.5726825003470997,5.820322140000878 m5.78426835723054,-7.5584920122659565 l0.8882961511808276,0.3430818793338339 1.6157613375324416,-0.03712871233881015 l13.992192265863602,-3.521378411634142 0.7660153955233157,0.09307306013507267 l1.1493815019234832,0.6018215635466886 0.6598719503760078,0.47493226620366047 l0.5793104252228731,1.2251994985119008 0.058445401724948935,1.704263913995258 l-3.677668107819665,5.59165569218362 -3.422694874357539,4.902471558564387 l-3.275002780481973,4.11655000190229 -3.161496030569768,3.7586155771537375 l-0.9010964958126084,3.231888805589563 0.027005904571339764,4.505881855272493 l0.7188665858582893,8.13523281438007 0.8423362341970294,6.145548310733899 l0.784149807057322,7.904881956574028 0.6271355328909463,4.263837668501946 l0.657404907468805,5.3012856868058655 0.7393732888096436,6.138461676524159 l0.77691952840827,6.493542654905184 0.7973029036637891,6.658863676491611 l0.837798821991236,6.793314675682588 0.8494333573666405,6.9486135606497434 l0.8494596689904241,4.919400347479598 1.0470596078795065,4.787924979677165 l1.1612027806023768,4.700525487324736 1.2418065709972932,4.361386067400477 l1.3975982184628437,4.156750173433783 0.8524287349265864,3.8832579928239817 l0.5102018338696055,3.9409886081132592 0.17135400078609853,5.892440508532564 l-0.19061033284206802,3.0037684102054274 -0.6788250569259516,2.846516016673271 l-0.6059609219099146,1.7772116992108788 -0.6314277126141923,0.9196655297290652 l-0.6458701638627335,0.39562585876757295 -0.663432232438004,0.041296155690152485 l-1.2091296332809716,-0.686589385528721 -2.466256866971933,-2.6381307168603962 m-2.303391072036025,-33.95666884084544 l-0.025934629969838596,2.2537911797100536 -0.6646972728781776,4.406016620979706 l-0.9755193738124769,4.402453908631299 -1.309732798072007,4.283363065933958 l-3.255703499941405,3.8216019803473564 -2.425634347406105,1.9351799738307875 l-2.6436821358951845,1.8070808350290684 m18.61438552919062,-37.18208317195385 l0.10846178098985947,1.697069568826747 -0.14946587502387276,2.7629125581212755 l-1.1655374018365883,11.383187447493617 -1.3222021764141763,7.714404581707394 l-3.5780733020670654,5.70601163522032 -2.936948632758285,2.944262870092839 l-2.993822817824827,2.269921574453749 " fill="none" stroke="black" stroke-width="1" /></svg>