<?xml version="1.0" encoding="utf-8" ?>
<svg baseProfile="full" height="118.26234606535434" version="1.1" width="99.86654679574045" xmlns="http://www.w3.org/2000/svg" xmlns:ev="http://www.w3.org/2001/xml-events" xmlns:xlink="http://www.w3.org/1999/xlink"><defs /><rect fill="white" height="118.26234606535434" width="99.86654679574045" x="0" y="0" /><path d="M25,25 m0.0,0.0 m18.934226310592233,17.907449422852086 l0.4357132858499843,0.12854742833236718 2.756301054791582,0.021594338500911463 l17.33122427942125,-2.657906187107939 2.9478806158932374,-0.12131491040193228 l1.7095569536873172,0.2779842431890996 m-26.27038979585234,9.425011589431342 l2.381522611171498,3.669106454090866 1.2281148246687146,3.201437191061464 l0.3965970831688175,2.153136737277972 m19.439388518467965,-12.384371891773306 l-0.2538669629210445,1.8140390116714373 -1.1617045964128254,3.0733806190495403 l-1.703559395517021,2.910412950951986 -1.6637602862114127,2.090034509553281 m-25.01136851317208,8.130424590803477 l3.632240169799922,0.35690224685626454 26.33112057385299,-3.1618903119613564 l4.329820354507083,-0.3268337300957608 2.929391281917469,0.3950720904008348 m-19.923866873125846,-29.754670535349995 l0.7601135322716559,1.4241876582200244 0.2857181114766533,1.819083256523725 l-0.1189692024841725,57.871529293277945 m-0.13366286626352994,-30.53739491184749 l-0.2695261020556246,1.82904059470838 -1.2934906237614565,2.9082322242553635 l-2.3046854631594953,4.1781500614995055 -2.687976492852914,4.226912451842337 l-3.0406809222962465,4.1181411521841 -2.55683533733438,3.0489970031480516 l-2.661252076984966,2.7930177442360113 -2.740409477001451,2.4475890029073404 m19.26217260950547,-24.889064371118295 l6.971165755200155,9.75398491027835 5.055209465428184,6.783446164488846 l3.571290785985173,4.2420235333848835 1.7413814317426646,1.5133478729406087 l1.232402173747234,0.7237772079910166 " fill="none" stroke="black" stroke-width="1" /></svg>