<?xml version="1.0" encoding="utf-8" ?>
<svg baseProfile="full" height="101.29509898019155" version="1.1" width="107.55448515967778" xmlns="http://www.w3.org/2000/svg" xmlns:ev="http://www.w3.org/2001/xml-events" xmlns:xlink="http://www.w3.org/1999/xlink"><defs /><rect fill="white" height="101.29509898019155" width="107.55448515967778" x="0" y="0" /><path d="M25,25 m0.0,0.0 m19.596661303385734,11.861965758767369 l0.03428897442232983,0.37998425838053784 -0.25040125732217267,1.028811087900013 l-0.9890774250667576,1.6520452629983842 -2.858603903337429,3.723965094785216 l-3.3446791523642165,3.2821035045031746 -3.9511084527128517,3.022718611469044 m9.083412157421408,-5.887036216535642 l1.7685610464651906,0.07255862181819843 3.6697746482324467,-0.18026461594187002 l21.938269918841975,-2.3284406840115355 3.041451808011906,0.11804499579727862 m-41.12929331812824,14.341578337806038 l2.3079839910500755,0.27777238652868785 2.223198553555278,-0.02578019866653235 l19.980666158350132,-2.5691556489371283 20.566973251494275,-1.4675176196049455 l3.5025245666273457,0.2821358697412185 m-24.168834326519715,-20.615747235001578 l0.7042540687542956,0.6610493652960655 0.4372701947370251,1.4075720321220726 l-0.12467747184278234,42.25673601097748 m-2.0415225896829168,-22.831856967584592 l-0.595105825286087,1.4132307725598514 -1.9733465947696471,2.1105598081192154 l-3.536839336364233,3.237517732824458 -3.52803200592003,2.806999926119343 l-7.2416457800234655,4.998929543931823 -6.744347049537668,3.506125332872448 m26.481341484975353,-18.178734663850296 l8.600381661892284,7.150984849421872 7.408730440661491,5.603447358299818 l4.6422394322551135,3.202165894046681 4.044015987422326,2.237092259051458 " fill="none" stroke="black" stroke-width="1" /></svg>