<?xml version="1.0" encoding="utf-8" ?>
<svg baseProfile="full" height="106.48963959430279" version="1.1" width="107.41615540352564" xmlns="http://www.w3.org/2000/svg" xmlns:ev="http://www.w3.org/2001/xml-events" xmlns:xlink="http://www.w3.org/1999/xlink"><defs /><rect fill="white" height="106.48963959430279" width="107.41615540352564" x="0" y="0" /><path d="M25,25 m0.0,0.0 m15.361738990036283,10.938406914461993 l0.4272062051040698,0.18245582892359238 2.2927440451276806,0.14087859516535423 l12.458981514372029,-2.353388013190108 1.153262526324218,-0.09750213470164061 l0.906989507007305,0.24513499230039085 0.36043564626180663,0.48878162517026796 l-0.043286798184212306,0.6195099696178902 -0.3957391368460406,0.7590877044088243 l-4.636729870640744,8.960855301206426 m-0.48178153787072103,1.049554446656247 l0.5395977556581586,1.2726846925622222 0.10574738178003658,1.412632601452927 l-0.20898011400451558,18.503740501748915 -0.5058489201209999,1.6505647260723137 l-0.4502051544690812,0.6044866423155483 -1.0821522476818368,0.256424826691418 l-0.6581438410660684,-0.36688104385142645 -1.5620497318769,-1.8875560825247635 m-6.119766767257,-9.608997722513513 l0.9360146391925052,0.3097798293794825 1.2587840386302191,-0.6602812670836014 l13.158483254617252,-10.310788598077485 m7.108490292995302,-16.36988205827069 l0.41230809245060396,0.7837358942825441 0.1798520574187543,1.621063046859907 l-0.3424093995486151,30.679977485733662 -0.019385407516846066,2.1348573980662877 l-0.027052791493033655,2.1892218257431635 0.27605662998709174,2.612317527141005 l0.5983409642620794,2.416386979770756 0.6102856058610856,2.3341262947551953 l0.6924662889850698,2.491412222555942 1.2744216216809723,2.2186992927532914 l2.0018722715324078,1.014895999183507 4.260520124554275,0.2532433495369617 l4.361575821645294,-0.32974969770716633 1.4620147963200307,-0.47854577201862325 l1.1275625767539748,-1.0768507110994912 0.46505802734996665,-1.3178459282571977 l0.15887644619378627,-2.2957335818419344 " fill="none" stroke="black" stroke-width="1" /></svg>