<?xml version="1.0" encoding="utf-8" ?>
<svg baseProfile="full" height="105.33537419333504" version="1.1" width="99.88675015729233" xmlns="http://www.w3.org/2000/svg" xmlns:ev="http://www.w3.org/2001/xml-events" xmlns:xlink="http://www.w3.org/1999/xlink"><defs /><rect fill="white" height="105.33537419333504" width="99.88675015729233" x="0" y="0" /><path d="M25,25 m0.0,0.0 m25.058863034552115,2.618577814244223 l0.313674549104015,0.3883859845969824 0.5257775153250374,1.427500099905124 l-0.0023224531403393247,5.448244365736665 m-14.570472384276993,2.0256657330067673 l3.194674331705481,0.1499707911979111 20.769007698596226,-2.909564808838357 l3.188996342010663,-0.21343368752185912 2.513283847768325,0.2141737056569063 m-24.622111637171965,7.233183879581762 l2.509115758284342,0.7703541446650226 11.77038200512993,-2.4521563954051717 l1.8459512740261868,-0.002296249615655777 0.3106359468832727,0.423718399246741 l0.17476020086785476,0.6503293189774693 -0.06104885960230729,0.785052723727851 l-0.614599773807992,1.0919454992375603 -2.0665504892188573,4.177356040566184 l-1.9244769435516287,3.5013130940450714 m-0.535376347115018,-7.225183225579818 l0.41814948626935555,1.6064921425594254 -0.023324027806917672,1.647153785970669 m-13.765743209964715,8.801170349243172 l1.2592940139944924,0.2375958956234927 1.8789816996609388,-0.12988856686017394 l12.479088864094482,-3.671450525489376 6.885094572708579,-1.447296672920394 l1.587540011863139,0.09640942343660361 0.5433161049794327,0.41833144736396327 l0.16492909881362403,0.5703176026135826 -0.08974665193004862,0.7162322844131587 l-0.6231218147124307,1.6508574308437947 -1.6575387130075216,2.7997180792151535 l-4.379655112302052,2.6352353047644863 m-5.581152606993676,-2.733799658665588 l2.092871348635956,1.560113515390939 1.5403550653012228,1.8207194508327553 l2.426390327336042,4.26186518894161 0.9925402749696246,4.070436031066539 l0.12038552976146452,4.101262234670888 -0.5953170344407386,4.089989594645923 l-1.209123605046314,3.350961784560511 -0.3769613414293902,0.4751173121848461 l-0.8339602906316466,0.30469353149768463 -0.9149687289788103,-0.40574509816872556 l-1.4072637250520672,-1.514893451323367 m-15.406753448968567,-13.869324342860908 l1.71541233938407,0.3004443612544618 2.3298304718876617,-0.050665646109157844 l15.627584123437021,-2.1002448343154976 11.839884065921215,-1.0887043674692127 l3.148698643382443,-7.903508164420776e-05 1.9228708097881235,0.5144980951828765 " fill="none" stroke="black" stroke-width="1" /></svg>