<?xml version="1.0" encoding="utf-8" ?>
<svg baseProfile="full" height="98.59797619200376" version="1.1" width="98.17652272855776" xmlns="http://www.w3.org/2000/svg" xmlns:ev="http://www.w3.org/2001/xml-events" xmlns:xlink="http://www.w3.org/1999/xlink"><defs /><rect fill="white" height="98.59797619200376" width="98.17652272855776" x="0" y="0" /><path d="M25,25 m0.0,0.0 m20.346654028522924,5.189718811385758 l0.07604701242574383,0.3990307264097795 -0.3178335471369073,0.811827258166133 l-1.534748004650483,1.6338658423588373 -4.031155292608773,3.4209040765005048 l-4.477087775625557,2.9826043763515977 -4.878914057121772,2.6215349661394196 m1.3652890063342817,-10.720196937107639 l4.018672256094354,1.25562248977253 4.551664276742836,2.08809971978725 l3.8562423533919907,2.4515675294632318 3.0330546484414125,2.7804485162667802 m-18.215535823076692,8.850765311768752 l1.5878756697980512,0.18265164702720882 1.533591836823785,-0.07707393908698368 l14.432090084296526,-1.977298130051061 2.0196118662071547,0.03267820135647855 m-8.46711192266828,-5.439179909638697 l0.8232598923747886,0.9104884432477443 0.20657605419165856,1.4553462515418338 l-0.08913745767605105,29.744570940344303 m-0.4642611855492277,-24.481129964510185 l-0.11189367458581544,0.9366840499959368 -0.5912373976560892,1.128265773209855 l-7.717069549918592,4.843998208251691 -5.293934568003698,2.309068833979336 m18.25924277311845,-7.523174375437689 l3.7160704615581768,1.8418946849500055 3.670119924309641,2.843638166694454 m8.818390623719322,-22.50687403405187 l0.6987406081377879,0.8431143420148177 0.24136637364725386,0.9452682447404598 l0.033692726048950676,20.08831662279439 m10.108663107553983,-23.45455914494494 l0.7271953707683495,0.8378143810469585 0.24233203032826134,1.2069714560367435 l-0.0835424346965679,31.14846540255189 -0.3381421804113105,0.7526209464269309 l-0.5426129779145058,0.2847528760343451 -0.7035457993588257,-0.08482095384990629 l-1.597500478090259,-0.8361233099590826 -1.7792901029526238,-1.3718378050034548 " fill="none" stroke="black" stroke-width="1" /></svg>