<?xml version="1.0" encoding="utf-8" ?>
<svg baseProfile="full" height="109.26962327221163" version="1.1" width="105.54482197315839" xmlns="http://www.w3.org/2000/svg" xmlns:ev="http://www.w3.org/2001/xml-events" xmlns:xlink="http://www.w3.org/1999/xlink"><defs /><rect fill="white" height="109.26962327221163" width="105.54482197315839" x="0" y="0" /><path d="M25.09218175351579,25 m0.0,0.0 m1.6178583537030855,20.492766360524932 l0.36271625506015015,0.09701383222935306 2.6696990849995137,0.0015126783880767892 l17.99625199736108,-2.6197462920049928 1.2115823872441795,0.029879028824433926 m-10.998621718063864,-15.066689622895751 l1.1030729689582015,1.2604103776613464 0.644092211732651,2.0645180098013256 l-0.2046742726622173,47.69232192522017 -0.2505357806607859,2.5614196294494245 l-0.5427601806981994,1.2291360680458383 -0.7554962668211465,0.17580594237767608 l-0.8549105703657646,-0.5439564161436413 -2.151289418740964,-2.709137247183931 m4.032597904418307,-33.7151339246806 l-3.0007960527950814,6.739588852391634 -3.4461101692550304,6.403136425455809 l-3.5074124429044575,5.102745494627833 -4.01744604402545,4.605390021467301 m16.147438512244758,-16.970579331636166 l3.5508493951810705,2.9859076926474493 4.383386875507783,4.973849246095424 m9.789072468156215,-29.19808788333067 l0.69958831159994,1.6595452077653357 0.20870893483013275,1.4088551461605558 l-0.28678812973956314,35.75774778515896 0.09967888701110504,2.4062133807162422 l0.4107828873239439,3.1809843655093633 0.876413738146618,2.6498730679525155 l0.9548185691935487,2.550494860434312 1.8375972145987767,2.8945395550723556 l2.5615127622086944,1.04851385498039 6.653077770920183,0.12078518112933072 l4.050275180376974,-0.5745489264229161 1.9576670517272334,-0.9770828219182421 l1.0695857394259094,-0.9620178324642105 0.5811558044450746,-1.724163551326398 l-0.005670120080746776,-3.3277508797049418 " fill="none" stroke="black" stroke-width="1" /></svg>