<?xml version="1.0" encoding="utf-8" ?>
<svg baseProfile="full" height="107.63588141225898" version="1.1" width="101.70162918600154" xmlns="http://www.w3.org/2000/svg" xmlns:ev="http://www.w3.org/2001/xml-events" xmlns:xlink="http://www.w3.org/1999/xlink"><defs /><rect fill="white" height="107.63588141225898" width="101.70162918600154" x="0" y="0" /><path d="M25,25 m0.0,0.0 m6.95226310614361,20.90713006627005 l0.2987998354286241,0.10037840064802712 1.5840149539718713,0.032473001521192944 l12.538598692125005,-1.9015567974671217 0.9594628188398887,-0.00658217275775489 m-7.265940854433592,-12.777602139484236 l0.8882196268931264,0.3051927106552808 0.6913169925088861,0.7864114898482002 l0.23613280241038584,1.543918754640843 -0.1795573465554647,42.53171924415381 l-0.15286071496474116,2.0751900223536524 -0.4210779455205803,1.0571258800970744 l-0.6032778764729794,0.17346773456260525 -0.7090292935180755,-0.4838880952453729 l-1.7957306032347202,-2.2065311738423556 m3.493361171091818,-31.109586686364754 l-2.893590279299426,7.867808673607706 -1.9571246595128933,4.852679001279506 l-2.352035476837704,4.896908509553526 -2.773010012629904,4.767847839399835 m11.217187560021799,-17.462441440628982 l2.199802147299649,2.4708417762041788 2.320580912354251,3.6109832958986945 m1.7406300943523678,-18.903590372585484 l1.9787626937325424,0.26043067861054026 18.440752084241538,-2.6370825850977884 l3.216354624977412,-0.21288308124349176 1.5807287147879496,0.24321246658882897 m-14.788184763544102,-5.438805108633106 l0.139156196262001,1.51708875564648 -0.9665201963465672,3.7941949815972347 l-1.5023713695176746,4.368959310871107 -1.9619330108941817,4.27633313774929 l-1.7832636884613489,3.0827736564148682 -2.0833895079763196,2.9765906884457305 l-2.4045509891400205,2.8394722770900915 -2.7539924030052867,2.662503085856802 m16.43611599447966,-18.22162381970616 l10.20647386794345,11.653838854132909 2.141984956608004,1.918239919267032 l1.7883703313932726,0.9304175705798429 m-24.43590534643998,-1.2202156109005766 l3.2183938108333447,-0.009567231055951702 9.688959480117669,-1.3641485809095926 l1.7308529768325833,0.12098830261519683 m-19.85416282199442,9.043982581892767 l2.186603294444946,0.228406664861174 19.547302791897724,-2.2073053466046226 l2.9107155973527403,-0.17295392643493712 1.4320113109223482,0.25954563077411347 m-17.27302834786976,2.921717604545918 l0.09002811479705647,1.582090722714406 -0.28530455159329815,1.549149761938901 l-2.0244290544651733,4.9013354148448665 0.3574354444970078,0.770633173086235 l0.6784779339729105,0.1243098053156971 11.9319441795282,-2.732582704836085 l1.1772713410951865,0.11388427033716399 0.6713449363672698,1.051823706031566 l-0.7044320042165358,3.6049988863506686 -1.4313467199657073,4.080415709114717 l-1.858113984471624,3.7559988392757684 -1.917109358333532,2.844103060029656 l-0.8741138540959636,0.8802742961108406 -0.6705064137520313,0.36703807267277205 l-0.5403090849140593,-0.039809066891729646 -0.7957943743200474,-0.8457207591140331 l-0.7578706203291492,-1.5501528594629488 " fill="none" stroke="black" stroke-width="1" /></svg>