<?xml version="1.0" encoding="utf-8" ?>
<svg baseProfile="full" height="108.82745230104774" version="1.1" width="109.49251042240547" xmlns="http://www.w3.org/2000/svg" xmlns:ev="http://www.w3.org/2001/xml-events" xmlns:xlink="http://www.w3.org/1999/xlink"><defs /><rect fill="white" height="108.82745230104774" width="109.49251042240547" x="0" y="0" /><path d="M25,25 m0.0,0.0 m5.124999802319508e-07,20.667035579681396 l0.6786532700061798,0.1385956723242998 4.374537765979767,-0.07018196862190962 l17.276469469070435,-2.684216797351837 4.066189229488373,-0.20781517028808594 m-12.033113241195679,-14.943979978561401 l0.7746316492557526,1.2298128008842468 0.3548380360007286,2.1953268349170685 l-0.03667458426207304,52.502875328063965 m-0.6675512343645096,-38.84976387023926 l-0.4424228146672249,1.919568032026291 -1.3041244447231293,3.090289831161499 l-3.9222219586372375,7.696895003318787 -4.297182261943817,6.354271173477173 l-4.762391149997711,5.553138852119446 m18.255950212478638,-16.938037872314453 l3.695884644985199,2.938443124294281 4.555751085281372,4.946110844612122 m8.978994488716125,-30.896451473236084 l0.7490254193544388,1.1589033901691437 0.4392892122268677,2.274473160505295 l-0.19845906645059586,40.80801486968994 0.15972524881362915,2.659461200237274 l0.5163315683603287,1.9729290902614594 0.6360359489917755,0.9812717884778976 l0.9354313462972641,0.7472348213195801 2.993236780166626,0.9049008786678314 l8.037832379341125,0.3070838749408722 5.811707377433777,-0.4968583211302757 l1.9983561336994171,-0.765320286154747 1.1580081284046173,-1.2213968485593796 l0.5451609194278717,-1.7644985020160675 0.1646103523671627,-3.3467096090316772 " fill="none" stroke="black" stroke-width="1" /></svg>