<?xml version="1.0" encoding="utf-8" ?>
<svg baseProfile="full" height="117.6621782183547" version="1.1" width="107.22783631670052" xmlns="http://www.w3.org/2000/svg" xmlns:ev="http://www.w3.org/2001/xml-events" xmlns:xlink="http://www.w3.org/1999/xlink"><defs /><rect fill="white" height="117.6621782183547" width="107.22783631670052" x="0" y="0" /><path d="M25,25 m0.0,0.0 m6.720973538560877,23.546087155958713 l0.5953332095206493,0.11454644904950358 3.3553442518406134,-0.04063214666168179 l12.049045086370484,-2.2628533025074975 1.981829716273662,-0.08725893500844095 m-8.13298637679455,-13.073245710017844 l0.7837739258016325,1.5131684615115206 0.2187572799163043,1.9412369742804438 l-0.0130015017951704,47.2161700749664 -0.28895151987595746,1.5721156139800754 l-0.4678671442505923,0.7840962687563469 -0.6040114266269442,0.14638215318134698 l-1.4094401221878943,-1.0625519302743078 -1.7838946250836814,-2.210393886325217 m-7.064977731418924,-14.140199210815334 l1.067310529763894,0.31695663208601577 1.4961691545126414,-0.4781013797949037 l13.761665546153099,-10.099817952248392 m5.900556519588359,-23.95130039224502 l2.412589776862558,0.25818612708941596 1.6245946236889093,-0.17443765915445852 l15.200379451161965,-3.2290581208817826 3.2562200519866327,-0.16838407884172862 l0.8293198170053926,0.4305466552728188 0.32720355738921864,0.6701910510733309 l-0.07185464696764293,0.8109892445720877 -1.5641177154747072,8.039938021397747 m-19.018375739052914,3.5114002301092637 l20.387135640703367,-2.729075858008961 m-21.502885624048904,-8.20942432073113 l0.6431635747699196,1.738430379955122 -0.13098944314967656,7.501309003140576 l-0.6344626183769548,6.8113788195215115 -1.1006250888646918,6.779064075917992 l-1.2503146863419352,5.846497117319771 -1.2828789019260018,4.559787006029274 l-2.059220791880221,5.361809333785111 -2.532146739908193,3.948613126209238 m20.50683749215313,-29.810641289812693 l1.024567546904765,1.6951150246003954 0.19130208245711128,1.2003849273396232 m-8.828844789943984,4.868766725026398 l2.2304636146116312,0.0862981074494302 10.963113203174096,-1.9651711831578278 l1.7412431293310382,0.024249669733070262 m-15.42117572520669,8.163244720519184 l2.2023013555132254,1.6725060817119215 1.529261914190182,1.7844321095023448 l1.1173713604928939,1.7140802735027199 m10.26237644841226,-9.587135080514882 l0.052309534353021596,1.001453672458315 -0.29429651713052574,1.2521877661221643 l-2.9026911753965647,7.6091182590742985 m-15.248543140305326,3.4430899737064267 l3.327570515135321,0.1517973387093568 17.635794268125725,-2.1787722690883706 l3.4224264838949705,-0.1512668362304675 2.0180859080896023,0.21270606257419353 m-25.099417387086408,12.615925042335718 l0.6861996808688703,0.6874524857078288 0.4544586066900093,0.9048563546199112 l1.8345137529083302,10.765335190818714 m-1.7327380013198053,-11.745623174608088 l15.629540498071998,-2.2622296374804556 1.6233049457869035,0.03592092897520811 l0.8795468518625051,0.3798510189747324 0.3857530430165146,1.767174402579726 l-2.1304318559514046,8.50074387830628 m-14.435485044104484,2.2117573479917105 l16.02643988926318,-1.724799601253098 " fill="none" stroke="black" stroke-width="1" /></svg>