<?xml version="1.0" encoding="utf-8" ?>
<svg baseProfile="full" height="107.69912740116263" version="1.1" width="107.99123577758633" xmlns="http://www.w3.org/2000/svg" xmlns:ev="http://www.w3.org/2001/xml-events" xmlns:xlink="http://www.w3.org/1999/xlink"><defs /><rect fill="white" height="107.69912740116263" width="107.99123577758633" x="0" y="0" /><path d="M25,25 m0.0,0.0 m6.018950058270881,20.437518995950963 l0.5805814616182255,0.08482042568547285 2.90325630345861,0.02217040473618143 l16.914372865288662,-1.7336867865419694 2.134219162918946,-0.004630116060635846 m-10.456656731954112,-11.508009171768926 l0.8972678218946787,0.979693197360802 0.48479449862896135,1.6583951811294921 l-0.09748898058076773,43.56253759309512 m-0.5838663500064435,-32.06872713685866 l-0.25157525532176817,1.5771117906961267 -0.7172949823692809,2.279451130255891 l-3.142590298112935,6.481775116421325 -3.630087087802834,5.713074287040391 l-4.779885044872799,6.290267810460393 m14.80113378213088,-16.94644021471644 l2.7858252490352244,2.3677331657638865 3.5575792632360375,4.088938582027887 m1.3206307943388411,-9.655722979817753 l3.1524848261801286,0.14954355232066235 23.25122275359814,-2.1720902776769115 l2.848361668009045,0.015121741815072153 m-12.56622740930138,-12.320224830032997 l0.6907012128013946,1.1339233415465475 0.31948046045593514,1.5641118831165852 l-0.06981450725743753,43.332553590446246 -0.2690810083578184,1.3372898312236663 l-0.46743542972344526,0.7477448639496066 -0.6043443695330177,0.28488242959461646 l-1.4609942221333279,-0.43170550172692573 -2.9777764893324177,-2.53085247630178 m-8.312827968020772,-19.39731900771714 l1.686223338538122,1.4367105984528177 1.7256570924369097,1.9642407275581812 l1.3636228020570986,2.022503415711231 0.5696704909298576,1.2579230180154812 " fill="none" stroke="black" stroke-width="1" /></svg>