<?xml version="1.0" encoding="utf-8" ?>
<svg baseProfile="full" height="103.19005764563326" version="1.1" width="109.13762450116154" xmlns="http://www.w3.org/2000/svg" xmlns:ev="http://www.w3.org/2001/xml-events" xmlns:xlink="http://www.w3.org/1999/xlink"><defs /><rect fill="white" height="103.19005764563326" width="109.13762450116154" x="0" y="0" /><path d="M25,25 m0.0,0.0 m13.020787122773502,3.774646082399499 l0.44610922407749365,0.4921271085048544 0.6941149183262402,1.764369161366725 l2.444855741241737,13.612195758273629 m-2.283133314828011,-15.545966217743302 l23.44734947151574,-2.6279440654989887 4.3061089384601985,-0.10452736019907305 l1.25069603852158,0.843435823138653 0.2890896750805644,1.4819808674017128 l-3.228562212244194,10.8734768337248 m-24.03384350760835,2.7207248892496287 l25.763318546362967,-2.173096731702521 m-38.477145859465615,8.251289724587272 l0.8238589094841327,1.1011376972548834 0.48423011969846397,1.196318267071923 l2.642793327100073,24.318771546806197 m-2.546208012082215,-24.86418221700827 l40.66847445296525,-3.2691493986842213 2.894804874455555,-0.00852354864759791 l1.5861649356948209,0.509535354382617 0.9308705805693741,0.9000043132194416 l0.30055619904255826,2.0968155479919717 -4.317371540529322,20.40059570513981 m-38.72765482098732,-11.043774158296834 l26.833105002888196,-2.0079625543395934 12.460412988624894,-0.6482042624919966 m-38.361827875409915,13.172594308555869 l19.753731266250945,-1.6460444187824235 16.725297511662287,-0.896993060639335 m-20.22820669024805,-36.65484342359764 l0.6785892135575222,1.1673616669881264 0.2492664664816129,1.2827841045991617 l0.04722448059094952,35.092558436163124 0.8289711305198539,2.61392805494443 l1.3116251365502887,1.6907691704026617 1.300036509964238,1.7579747275198339 l0.9478781480404138,1.4508486748453313 3.548715580372929,1.574750442598416 l8.306593667018117,0.5402747961344888 9.064166100745258,-0.35181098233300523 l2.620944420531835,-0.647688275864803 2.946260608146843,-1.3923923037692127 l1.2130018415369697,-1.6966349229714817 0.511575185711124,-3.062256772626871 " fill="none" stroke="black" stroke-width="1" /></svg>