<?xml version="1.0" encoding="utf-8" ?>
<svg baseProfile="full" height="108.51383767487553" version="1.1" width="110.10474361797777" xmlns="http://www.w3.org/2000/svg" xmlns:ev="http://www.w3.org/2001/xml-events" xmlns:xlink="http://www.w3.org/1999/xlink"><defs /><rect fill="white" height="108.51383767487553" width="110.10474361797777" x="0" y="0" /><path d="M25,25 m0.0,0.0 m2.1377363892366312,20.503793157258666 l0.34993417162597934,0.10575762865632828 2.1339799745909036,0.0477097883786588 l15.728497316563187,-1.9352812451367791 1.8432033028372832,0.07947840540316266 m-9.273835921999467,-13.91958957199064 l1.0809958921880198,1.1462908882462792 0.6652947276311483,1.910463625250763 l-0.211425153805189,45.649343801814496 -0.23134835230925696,2.465733119811038 l-0.5303176522232748,1.1235632325755796 -0.7242327426441789,0.10388266153112108 l-0.8481723961883075,-0.585877710270544 -2.1844343526318313,-2.5778760939772494 m4.552669182965721,-32.41105894358647 l-3.166808982844823,6.76596571488572 -2.6242544293808283,4.742650485955834 l-2.979861238265889,4.526553566915234 -4.4848536109190125,5.86895703497276 m14.906310773748164,-16.95611042518822 l3.2085037246987107,2.9444927890345443 3.4458954586698862,4.324714200447916 m3.814547547637962,-16.758449869228336 l1.2022194189061226,0.2771662240038626 1.9390102234493845,0.07616101788745397 l24.83927807298481,-3.2027543376110055 1.4905011077922958,0.059104456826969 m-17.30471456294418,-12.07281645320519 l0.9032762379317607,1.5112709722922213 0.598452036193533,1.9216855884035924 l-0.13971645749596778,22.976196461318878 m-10.970570794798228,2.123247194026637 l1.6697267097849433,0.47180614837999363 17.91126492432569,-3.2725012607212243 l1.2435161312845795,0.9046762702386749 0.2830462670974264,1.736723247569675 l-1.3978881110783918,3.7452423713693643 -2.7266749191731097,5.498294889107059 l-3.017880584575611,4.7640160148735635 -3.3661955376642703,4.240198523580857 l-3.65934071979088,3.6943488807924076 -4.00115727927274,3.2085018918680013 l-4.314023508689546,2.688163332113881 m4.32082446624013,-22.352597600431107 l3.3347534781385795,2.2410326705238592 11.648469839823905,10.027869256354704 l5.942797068651574,4.749704452635978 4.323742175995961,2.8221107578562346 l2.7440043056784647,1.1822845026363673 " fill="none" stroke="black" stroke-width="1" /></svg>