<?xml version="1.0" encoding="utf-8" ?>
<svg baseProfile="full" height="112.29043163790605" version="1.1" width="103.03909112331209" xmlns="http://www.w3.org/2000/svg" xmlns:ev="http://www.w3.org/2001/xml-events" xmlns:xlink="http://www.w3.org/1999/xlink"><defs /><rect fill="white" height="112.29043163790605" width="103.03909112331209" x="0" y="0" /><path d="M25,25.972754040419666 m0.0,0.0 m20.804910159565644,3.075024325850687 l0.358966261320661,0.4023746348652744 0.4723522237475065,1.0852016861296503 l0.06430149842343139,1.3118407337088747 -0.06431540672204102,21.759127106271436 m0.8387526532018572,-13.676357390509146 l6.413518375482388,-1.2699140206511512 1.7316794846047217,-0.09196182490679855 m-17.308711548421947,1.3163500177646792 l0.5044389928537678,1.0847779066062517 0.14432216603430498,1.2700175123694202 l0.03631656215276049,13.75653704850435 m-3.198407982972403,1.1139540763629567 l1.0609417994034203,0.5918350934697729 0.964979129292843,-0.2889784162305316 l16.731833924818655,-9.076990778741305 m21.05374064623542,-16.927403330636384 l-0.8315108883565355,1.822816354876205 -3.4377700090811345,3.108852830017109 l-4.5285216062929585,3.01581803543599 -4.050214021284127,1.9343795574487272 m-1.7962903448608627,-16.290055198425733 l0.4410100748536318,0.48030816343720345 0.35933224175293443,1.2411128155578333 l0.02826351259627692,21.998533998208067 0.2552971825276418,1.7321854638139957 l1.8380335331183262,1.2593775679878274 2.6152991035418127,0.43286614228353654 l5.0577923463510555,0.12775568759270806 3.249219595916144,-0.3648526233435991 l1.169655712247504,-0.4561647152498522 1.2807958988087387,-1.2283754139667886 l0.5102042465222306,-1.1688610626993978 0.2688756059304069,-2.4483803305821388 m-39.58747759110155,17.14305777790211 l1.606924307153984,0.34526669249979836 1.8160261817642256,-0.030322922075947518 l29.18889787255287,-3.26927130791928 2.630747810661392,-0.07545231449515034 l1.9011614849759555,0.38900681804562615 m-20.09488560572257,-7.483398654973947 l0.608618969860935,1.0358315532379396 0.2916118174484791,2.0003347191251004 l-0.043590195153551434,30.629873583520403 m-1.1364240948961273,-23.94694140051992 l-0.8957574694333931,2.5168084425027035 -1.6475521579452281,2.6028928028590386 l-3.115277410437788,4.3238278290064684 -2.9747979425597575,3.525046716829757 l-5.423624704569711,5.060960938940873 -3.00961404249511,2.143380172801468 l-3.171290910723729,1.8255760001321357 m21.810812595887903,-21.148722983739834 l6.611766524156228,7.60180419568001 7.923493639977909,7.913336900688732 l2.8572494499660426,2.4007723148569178 3.0288227123958977,1.7741885922237801 " fill="none" stroke="black" stroke-width="1" /></svg>