<?xml version="1.0" encoding="utf-8" ?>
<svg baseProfile="full" height="141.97319197184413" version="1.1" width="110.58870497531396" xmlns="http://www.w3.org/2000/svg" xmlns:ev="http://www.w3.org/2001/xml-events" xmlns:xlink="http://www.w3.org/1999/xlink"><defs /><rect fill="white" height="141.97319197184413" width="110.58870497531396" x="0" y="0" /><path d="M25,25 m0.0,0.0 m4.490162543978108,21.14645169081354 l0.615518338787854,0.11339421164320646 3.217733463552482,0.04025581284041346 l13.806752786026836,-2.290930930596702 2.0746835927922715,-0.04800845408351706 m-8.4048156225974,-13.423569421809228 l0.8071767020853232,1.3958404024068434 0.23881856543565638,1.8719755323821818 l-0.11129866309483226,47.72595839983344 -0.3654620410304663,1.5299518469884965 l-0.5415973608457855,0.7784092182712355 -0.6617901749768098,0.17387585289312366 l-1.5423514346494818,-0.9803596491333819 -1.8549380394290056,-2.1393076697420357 m-7.540426746519252,-14.7292882118747 l1.6150250321020743,0.37595182979287073 1.4068041874797281,-0.48500707515052466 l15.1076701604956,-10.073337302079656 m15.217073492523271,-21.771924393057944 l-0.1899425976615441,1.9428382656140766 -3.285251039898258,7.415050489973691 l-3.122954833607606,5.614215833140548 -3.517887454562346,5.051331808243902 m6.5944982181879075,-7.023374682486599 l1.8051910220452843,0.03184352367407606 2.369592040526962,-0.3667347437182842 l16.17275322085868,-2.7004652228959767 2.4606509037375113,0.08244971671536644 l1.0025146787200903,0.645333496514274 0.5525843667295162,1.1619959192931357 l0.04311870586022219,1.6247094416401104 -0.7263673557429515,3.19259577201128 l-2.3600299512836207,7.747752077382299 -2.53920774818752,5.954313271959302 l-3.5972893454211765,8.62660376357812 -1.258171358473666,5.259655621752663 l-0.2910573126529267,6.10826203578273 0.5747039201383816,6.496451303345648 l0.9559114791871562,5.840849765535405 0.9246450645989385,3.8115506393640013 l1.126989156541366,3.66665878254827 1.4700960719307548,3.7237330005407747 l1.7630643782680702,3.4318743920987695 2.020509406456835,3.0101580130746477 l2.859681220122399,2.4132079968242435 0.8531584607592185,-0.38052243481902576 l0.3524628760201139,-1.5177215639609802 -0.09152053615520159,-4.563376458422499 m-29.76506841396537,-23.822956774025727 l2.5684060999229628,1.570562068579823 2.7384372857011643,2.3026500146998443 l2.3191902321116156,2.559174827440179 1.3417645058918704,2.480694513587408 " fill="none" stroke="black" stroke-width="1" /></svg>