<?xml version="1.0" encoding="utf-8" ?>
<svg baseProfile="full" height="109.4925144314766" version="1.1" width="107.55898599280044" xmlns="http://www.w3.org/2000/svg" xmlns:ev="http://www.w3.org/2001/xml-events" xmlns:xlink="http://www.w3.org/1999/xlink"><defs /><rect fill="white" height="109.4925144314766" width="107.55898599280044" x="0" y="0" /><path d="M25,25.0000015553087 m0.0,0.0 m6.6556316614151,15.063211917877197 l0.45855890959501266,0.1343626994639635 4.285142421722412,0.4236841946840286 l35.071375370025635,-2.9143965244293213 6.213719844818115,0.33658985048532486 m-24.761524200439453,-13.043453693389893 l1.0055424273014069,1.551211029291153 0.3744075819849968,1.8085958063602448 l-0.026929036248475313,56.132707595825195 m-1.5883560478687286,-44.431891441345215 l-0.8684679120779037,2.611977756023407 -2.6655584573745728,4.441611468791962 l-3.351917862892151,4.566523432731628 -3.133978843688965,3.6467760801315308 l-3.5014835000038147,3.5619673132896423 -3.838088810443878,3.4041836857795715 l-4.143137335777283,3.1734248995780945 -4.416629374027252,2.869691252708435 m27.938237190246582,-26.928420066833496 l8.228092193603516,8.339198231697083 11.82523250579834,10.927509069442749 l4.734168648719788,3.8873961567878723 3.064948618412018,1.4170949161052704 m-41.90735340118408,1.292511522769928 l1.5166959166526794,0.35517770797014236 2.0518456399440765,0.04208593163639307 l19.371566772460938,-2.045641243457794 3.4906360507011414,0.046292468905448914 " fill="none" stroke="black" stroke-width="1" /></svg>