<?xml version="1.0" encoding="utf-8" ?>
<svg baseProfile="full" height="107.37538584656814" version="1.1" width="96.56547351311679" xmlns="http://www.w3.org/2000/svg" xmlns:ev="http://www.w3.org/2001/xml-events" xmlns:xlink="http://www.w3.org/1999/xlink"><defs /><rect fill="white" height="107.37538584656814" width="96.56547351311679" x="0" y="0" /><path d="M25,25 m0.0,0.0 m29.26401105186417,3.892563807735843 l-0.02977406116322286,0.41580113259913953 -0.3941176581740356,1.2137862037112372 l-0.6756398371465385,2.850593077819042 -1.599527436227618,5.149910316429585 l-1.6947280451711801,4.1923612057154225 -2.5529808737513124,5.169657870281835 l-3.786917539840884,5.470818591490174 -2.237125174358953,2.4054648997762307 m4.696589378575907,-18.285423794481208 l2.1171387384377094,-0.006067367613477349 13.793487794651705,-2.390985664951562 l0.798572390474564,0.07967698963553642 0.3982020979281964,0.3411409766264068 l0.17785462606330382,0.5564082541384967 -0.09758225635381709,0.6525697114711291 l-1.320200033269825,8.866809829816692 0.055977695842744146,1.8158831315230708 l0.41636204550688405,1.0681195450347198 0.5729972996814403,0.49562360753474655 l0.9539114716608855,0.6083302963130861 1.8314258195655742,0.7926806859781355 l2.060193888071259,0.29497476322185817 2.078913117951917,-0.050530775474089795 l0.9144563236367367,-0.24759093140162594 0.6141117364705221,-0.7890995185131657 l0.20986095219066003,-2.243598678878178 m-29.748191481447545,14.59030886772848 l1.3672213129755066,0.3187864674835624 1.1052267114090149,-0.007083954473093592 l11.188921214454465,-2.6628575859206203 0.8284061872787654,1.4067769010412667 l-0.21926919689793842,2.0026348220669945 -1.120058508762398,4.931031994542563 l-1.458806551013806,5.038595290128638 -1.7093096173711553,4.585373057519461 l-0.6264862628961987,2.223606603780897 -1.6783348454128428,2.6283352171309113 l-0.493866458830403,-0.009827580085240836 -1.3721713385177603,-1.4954529547424023 l-0.638504240173842,-1.304910432246278 m-0.5082563720623897,-40.08035876382922 l0.12332088687324075,1.375189011579069 -0.704077747556632,2.901410160005373 l-1.4247977066374924,6.44738759478894 -1.638830801965251,6.0565004796126685 l-1.891523114159176,5.017655455907583 -2.1546249046673913,4.392981750810171 l-2.5274907510662694,4.060103435305629 -2.041074887905311,2.677168880597385 " fill="none" stroke="black" stroke-width="1" /></svg>