<?xml version="1.0" encoding="utf-8" ?>
<svg baseProfile="full" height="97.95890395355516" version="1.1" width="102.04917872930136" xmlns="http://www.w3.org/2000/svg" xmlns:ev="http://www.w3.org/2001/xml-events" xmlns:xlink="http://www.w3.org/1999/xlink"><defs /><rect fill="white" height="97.95890395355516" width="102.04917872930136" x="0" y="0" /><path d="M25,25 m0.0,0.0 m31.118045283616816,3.031603333245938 l0.05086611637400333,0.49578197149042547 -0.5169266616881074,1.0918230241411893 l-2.140082582976528,1.8288860307914245 -3.1638959601803593,3.120207488670134 l-3.4552060279315833,3.051439681286628 -3.7212384809908676,4.281279402753759 l21.907700340915394,-2.6804204494558412 10.100010196539817,1.1150381072414952 l1.8699065056227788,8.394154762319967 -0.9920779703328434,4.878276540714421 l-1.4606861028497249,1.374851515856043 -1.5906224565602503,-0.15927529316225986 l-2.5835260450770994,-1.7200250535857555 m-17.56827001868645,-6.898399610748611 l3.0226792456730744,1.2599316658573982 1.9781973565412405,1.4363194846922125 m-7.509283680090524,4.612699333519059 l2.8263253289624335,1.1434928753738713 2.0590180074721127,1.4540956671777752 l1.3394794809945092,1.1932488799449266 0.6618784404808711,0.9127068786401804 m-25.338584967867565,4.600951618025069 l1.7947905252042764,0.289197874257168 2.54367345259756,-0.004637987225797691 l31.069239116644475,-2.9265236205074427 3.7532370641844386,-0.15328590723471805 l2.8875450832798952,0.23098323840915494 m-21.10995071791873,2.2290095519185806 l-0.21683527188780866,0.847114892619868 -0.6455525193860889,0.744943588342888 l-4.284634733930332,3.4189529133866414 -5.80304442305959,3.7128117412258934 l-0.5340741755451393,0.7351770018717513 0.4616511488307554,0.509278346486521 l1.120382989560584,0.0025691640261178966 1.5957341469633746,-0.3164304301615826 l21.505075225564003,-3.6931758076872025 m-3.95393198252984,-4.064673846575211 l2.4843577827922845,1.557897302632919 2.856681408142944,2.4713160483886636 l2.343714025253254,2.6625789637828348 1.065669724119681,1.8871330708086882 " fill="none" stroke="black" stroke-width="1" /></svg>