<?xml version="1.0" encoding="utf-8" ?>
<svg baseProfile="full" height="106.0481580000922" version="1.1" width="100.55641109664931" xmlns="http://www.w3.org/2000/svg" xmlns:ev="http://www.w3.org/2001/xml-events" xmlns:xlink="http://www.w3.org/1999/xlink"><defs /><rect fill="white" height="106.0481580000922" width="100.55641109664931" x="0" y="0" /><path d="M25,25 m0.0,0.0 m13.14927795107221,2.3051651912201656 l0.17845449640812475,0.3847964530785704 0.4080532456031722,1.5516361066212139 l0.6329585102674915,3.6999824746007293 1.6952167434856362,12.198980711648552 m-2.0606612227927457,-16.993091495041266 l25.85000619901056,-2.6653582243765315 2.1515469777077008,0.20525723527880685 l0.77227362755142,0.6942816706991193 0.18826067917334216,1.0232089475226542 l-0.9647463289142829,7.27200740317902 -1.55317009156189,8.397148720692593 m-25.203512304176325,-7.444450186710483 l18.71383647401824,-2.1713260550046853 m-18.183074776421815,9.61943077632586 l14.445670128083112,-1.4359337566544694 10.114401990834514,-0.5442402570276904 m-33.51701116707263,13.383081831409546 l3.1576577495656135,0.2988253139096653 34.95012727119468,-2.6330090075853763 l3.3519920406812336,-0.15284682954653395 2.2788529029319466,0.25917355975956163 m-23.4787161301859,-8.979317792943007 l0.750812214438403,0.934618072498163 0.300864601860647,1.180612453678666 l-0.11646910023821326,32.693251151120144 -0.2374688605049926,2.0319546200164043 l-0.48315096945449026,0.9193722020000614 -0.6630499472713631,0.014946709722760479 l-0.7406763637967062,-0.5539304202614129 -1.980348428432366,-2.3355517093349207 m2.5046833087699882,-23.49389932867521 l-2.016527581864782,3.413626481332702 -2.2735571457486343,3.321669558827489 l-2.639393228030803,3.253258119624412 -2.9609054955456537,3.03798791607495 l-3.3504718581809767,2.800014759805903 -2.8004149054375027,1.8843124834825848 l-4.051175568373046,2.1855621197642985 -3.3158494660104987,1.386593210528007 m24.850735148172276,-21.299831125091327 l18.672570080442725,16.970521946528084 1.7318917608076383,1.2999197711129695 l1.9741293384010157,0.7467044099350887 " fill="none" stroke="black" stroke-width="1" /></svg>