<?xml version="1.0" encoding="utf-8" ?>
<svg baseProfile="full" height="111.63976232558832" version="1.1" width="95.76893753065335" xmlns="http://www.w3.org/2000/svg" xmlns:ev="http://www.w3.org/2001/xml-events" xmlns:xlink="http://www.w3.org/1999/xlink"><defs /><rect fill="white" height="111.63976232558832" width="95.76893753065335" x="0" y="0" /><path d="M25,25 m0.0,0.0 m2.1250995506522923,18.320297022492507 l0.5998886093503729,0.09178246225911577 2.943300048783221,0.022593444591915566 l15.666033608910247,-2.162643785352941 m-8.202525358013016,-12.61945396503927 l0.7771188570896249,1.2728694747357774 0.2444071404351838,1.8431489282512463 l-0.029168113654940403,48.819338202737235 m-0.35734198357080027,-37.26112176101101 l-0.27869125652092075,1.754264712666579 -0.7942126072087341,2.698531437636491 l-2.6980650485683504,7.386793122731439 -3.074602957851541,6.63512013049338 l-4.0759393941509385,7.386284957819393 m12.975528710249225,-18.64308947891713 l1.1688662825941263,2.4073213448390662 2.2494519099579966,5.678927261422225 m3.1793386794109404,-9.416414102151693 l3.255770122411202,0.17295558882137774 13.520262739221236,-2.1401421669729284 l4.410091815599223,-0.3097848636678548 2.1643261755276946,0.18302873222911833 m-10.197576141697505,-16.444869089403642 l0.5827593109186624,1.4743149779455171 0.22024599281644883,1.8647606995134662 l0.07997662545970835,49.5089251982272 -0.1578133093415387,1.6959899199185038 l-0.34704777047919616,1.0183272576097107 -0.49540389257353257,0.4017066611635176 l-1.2113167901610034,-0.532644273740475 -2.4144068753153314,-2.75884325772716 m-7.10736520285518,-22.46591582894507 l1.3168480283798814,1.6646449066930076 1.347798275844232,2.3159248161862176 l1.0648264069444695,2.432066168466304 0.4285967059576468,1.5314384326828172 " fill="none" stroke="black" stroke-width="1" /></svg>