<?xml version="1.0" encoding="utf-8" ?>
<svg baseProfile="full" height="124.08027253758803" version="1.1" width="121.4342026743962" xmlns="http://www.w3.org/2000/svg" xmlns:ev="http://www.w3.org/2001/xml-events" xmlns:xlink="http://www.w3.org/1999/xlink"><defs /><rect fill="white" height="124.08027253758803" width="121.4342026743962" x="0" y="0" /><path d="M25,25 m0.0,0.0 m6.518292134165263,21.128846002381927 l0.5277652399398501,0.08989022502302645 2.8295287904662367,0.021516255827810003 l12.333642323374239,-2.2121428102888303 1.730324913250119,-0.04403095181785789 m-7.554204208537798,-12.997932226147688 l0.698927066940172,1.251175366256203 0.220171439944071,1.8399714475513718 l-0.10825312821979532,45.34977202971818 -0.3090795274304629,1.4676730555602369 l-0.48029202618698014,0.72313673946168 -0.5859615468826618,0.12466881378220866 l-1.3798008030693245,-1.0296890566155144 -1.5780505865075283,-2.1010823817780646 m-6.696999892662432,-14.081720744702636 l1.0680125175911865,0.24307644848436258 1.5802764759248167,-0.4490730212188968 l13.641533631250763,-8.916034741267527 m16.39762129429134,-13.141885273281996 l-0.19786634057329822,1.6504488010415856 -2.8674651762774395,5.501507286638954 l-2.885741363693283,4.722701390473376 -3.200471242124084,4.062645203033665 m22.200390421454426,-20.918085875537756 l2.2666396036743883,2.756580826368121 2.514913078585134,12.08433063857938 l2.0662163075681685,9.154959530592395 1.422904789522478,5.197025695693346 l1.1574251495387666,4.52301513935089 m-12.310668567559082,-3.308474580401032 l5.256973984174922,0.09430938034062503 7.961442308668478,-1.191280193432963 l2.114856504070621,0.03456261378916973 m-21.700720244423223,15.873336481171311 l3.3407760316658117,0.1841382089708573 19.936454566202535,-2.039032357872393 l3.585270585707918,-0.10085077711738835 1.919418170571899,0.2683967490545944 m-15.576644944501448,-9.833720190313961 l0.5205408021869553,0.7386536263842503 0.23278951019273117,1.0619558478417805 l0.0017798359629920234,26.297013916011228 " fill="none" stroke="black" stroke-width="1" /></svg>