<?xml version="1.0" encoding="utf-8" ?>
<svg baseProfile="full" height="109.49251279234886" version="1.1" width="109.32880430133082" xmlns="http://www.w3.org/2000/svg" xmlns:ev="http://www.w3.org/2001/xml-events" xmlns:xlink="http://www.w3.org/1999/xlink"><defs /><rect fill="white" height="109.49251279234886" width="109.32880430133082" x="0" y="0" /><path d="M25,25.000000388827175 m0.0,0.0 m3.1831181049346924,17.34654664993286 l0.4763585701584816,0.20938649773597717 3.457517921924591,-0.03835486946627498 l19.151794910430908,-3.4610530734062195 1.9497308135032654,-0.08973251096904278 l1.8178632855415344,0.34423548728227615 m-11.972341537475586,-13.171756267547607 l0.6826783716678619,1.0396064817905426 0.39185430854558945,2.2192583978176117 l-0.013957148184999824,55.09437561035156 m-0.48146966844797134,-42.98266887664795 l-0.3524133190512657,2.036960870027542 -0.6872783601284027,1.8430781364440918 l-4.718266427516937,8.759817481040955 -4.443968832492828,6.258765459060669 l-5.904392600059509,6.782146096229553 m19.201542139053345,-18.460086584091187 l3.3263319730758667,2.792899012565613 4.615021646022797,5.315588712692261 m10.500332117080688,-31.83901309967041 l0.69954514503479,1.0804956406354904 0.35422351211309433,2.059790790081024 l0.0,56.176490783691406 m2.7422985434532166,-39.340810775756836 l5.030727386474609,3.267553746700287 4.531880021095276,3.71477872133255 l3.4902292490005493,3.66400808095932 2.2998441755771637,3.310317099094391 " fill="none" stroke="black" stroke-width="1" /></svg>