<?xml version="1.0" encoding="utf-8" ?>
<svg baseProfile="full" height="100.09408827641245" version="1.1" width="101.69866040929261" xmlns="http://www.w3.org/2000/svg" xmlns:ev="http://www.w3.org/2001/xml-events" xmlns:xlink="http://www.w3.org/1999/xlink"><defs /><rect fill="white" height="100.09408827641245" width="101.69866040929261" x="0" y="0" /><path d="M25,25 m0.0,0.0 m16.813913273146518,4.148160687617764 l0.43077243088327,0.4225618818747052 0.5349244093167651,0.972839764744071 l0.0699659492665625,14.46946919071026 -0.23328304644457626,7.713616838587051 l-0.7191865145301041,6.558885675680628 -1.12214338285299,5.145339230927715 l-1.4121113256417106,3.652545260235588 -2.1944208729300265,3.6882222779299645 l-2.781700410728985,3.3224474681046936 m21.363933041133212,-47.85857256011088 l0.7229076108437344,0.8114915380307292 0.29634457800102376,1.6560556167316667 l-0.12506271003832287,42.725487855884836 m-26.349951695725366,-33.8225315885821 l2.5408566580295204,-0.02764126473667741 9.157666452929508,-1.3908923081540085 m-11.768102567375568,10.257975754864916 l2.7621295570938056,-0.0234293829880271 9.807295860431726,-1.602906849728244 m-16.55613521186628,12.274851963007057 l1.4483466718006168,0.7807943228697762 1.5912357391975267,0.07098577998691534 l12.919259895340495,-4.035936391318115 m18.36036812936425,-19.551188656952785 l11.73542928336179,-2.230114910014056 1.10040354803786,0.02454911372910431 m-12.706511988850805,11.327086408351272 l12.517409665840203,-1.8142833419226936 1.1033012944252507,-0.008164863431783702 m-13.69824014106442,12.957906005278538 l16.08904622889813,-1.8229931291134356 " fill="none" stroke="black" stroke-width="1" /></svg>