<?xml version="1.0" encoding="utf-8" ?>
<svg baseProfile="full" height="101.29741597631264" version="1.1" width="102.58286321836843" xmlns="http://www.w3.org/2000/svg" xmlns:ev="http://www.w3.org/2001/xml-events" xmlns:xlink="http://www.w3.org/1999/xlink"><defs /><rect fill="white" height="101.29741597631264" width="102.58286321836843" x="0" y="0" /><path d="M25,25 m0.0,0.0 m12.272620387668747,17.27259663245276 l0.40391007662638523,0.2063016116157732 0.8783620200123737,0.10795128358018627 l1.6918570740022576,-0.1890154347933426 11.675243772581265,-2.417964496933781 l1.735090295586249,-0.08627158882775117 m-8.01488939750028,-13.562261737846365 l0.6953993638717774,1.151603249729943 0.22179498135510609,1.5306716650050352 l-0.04476050243053134,47.28380479233019 m-0.3483688005157305,-34.79101584123549 l-0.19679685052657733,1.7665094950842521 -0.5707467241148804,1.7084155406614028 l-3.486714416425191,7.42718923129519 -3.2645753984329207,6.465622755280405 l-3.5622695687780026,6.743547332180417 m12.426383624350962,-18.154985340217078 l2.1998835753617807,2.46556425277577 2.8863792275216107,4.384180511435108 m8.265516949291793,-17.154665049142906 l0.8940669419460815,1.4790783618839813 0.18555041832117525,1.249421239108746 l-0.04903955698161876,31.332590787458237 m0.4737123483474436,-31.295220601046342 l3.8593859805977035,1.9450104503809607 2.912253370386592,2.1247598556017033 l2.308903379449253,2.3391316768632047 1.5699442296094597,2.005808790523492 m-15.192955152397492,15.01137742023858 l2.3028994070401545,0.5580669642396826 13.050756095185307,-1.837969469969054 l2.6868691838578296,-0.16210046064221356 1.7171968835003393,0.24909924582270196 " fill="none" stroke="black" stroke-width="1" /></svg>