<?xml version="1.0" encoding="utf-8" ?>
<svg baseProfile="full" height="103.86410229289137" version="1.1" width="103.08054551659032" xmlns="http://www.w3.org/2000/svg" xmlns:ev="http://www.w3.org/2001/xml-events" xmlns:xlink="http://www.w3.org/1999/xlink"><defs /><rect fill="white" height="103.86410229289137" width="103.08054551659032" x="0" y="0" /><path d="M25,25 m0.0,0.0 m5.663530523270115,19.1819940020678 l0.5429355257594153,0.09487368233636573 3.147602957141268,0.023435733317330176 l12.514433006619358,-2.2410039514177593 1.9808887831386968,-0.015312178568046711 m-8.127776786508226,-12.2052309019483 l0.7972929607093893,1.3826782937436417 0.2182437051690634,1.7109604063722461 l-0.010877395342992029,45.9317072069881 m-0.5058422391442267,-34.747273634049655 l-0.6801227578710153,1.4305919303799257 -1.3028472157731459,3.509699737644797 l-2.2559979396560434,5.109487365106815 -2.7108972193726375,4.721372711706574 l-4.140396007732378,5.9265971249346565 m12.889104901724071,-15.539655037500335 l2.8884565896176033,3.058040462171504 2.0116476285917724,3.180590955289865 m3.7431847119333193,-24.627661627435906 l3.4529216057352485,0.18216824738329992 15.29285397306011,-2.5838981389970193 l3.415260842714164,-0.29309115070439823 1.7775759899306809,0.19849608358372192 m-22.513354099439667,2.6535939573197673 l0.5959304154112716,1.4566497138912184 -0.18932101097462253,8.31065144056484 l-0.726393211397792,7.938101292876409 -2.1942172410557332,6.659920653203948 l-1.8379982109070025,3.1140004360139604 -2.3445345312097046,2.8166557724507646 m10.112465327385962,-24.291416520245825 l1.751349560792848,0.17963168190778123 1.6016261195988213,-0.16480366105442962 l12.579102394277868,-2.711757756502218 1.251205889012345,0.24399965242684502 l0.4746362992297547,0.9755489138042095 -0.09636171201695862,4.356231194378444 l-1.3360571114744801,6.5190120330668115 -1.3569906543825787,4.907024289977143 l-1.6048541491047374,4.485118551698777 -0.6674590921493376,0.9247723957823637 l-0.6157316661699276,0.3908608743834884 -0.5575811187437175,0.04043556006268757 l-1.1235538488916985,-1.0938196443653823 -0.9594023992313551,-1.104037641070001 m-11.232751524492656,-14.727148569809149 l0.47692260908974027,2.2590844469017703 0.025184574339522113,21.96237495532425 l0.5702530362622988,2.731490294597566 0.9846245529723114,1.3987975107787642 l2.149970754620604,1.141055452177785 3.8935951097641186,0.652464607501689 l7.078544093023869,0.0684347395912813 4.396617429336277,-0.5190103883204722 l2.023771987818832,-0.8713678153597467 1.2303383373868888,-1.404815580693041 l0.5227186208666337,-2.241629938093281 0.11707384332870764,-3.1309089069843896 " fill="none" stroke="black" stroke-width="1" /></svg>