<?xml version="1.0" encoding="utf-8" ?>
<svg baseProfile="full" height="114.28093179630083" version="1.1" width="110.28790011785333" xmlns="http://www.w3.org/2000/svg" xmlns:ev="http://www.w3.org/2001/xml-events" xmlns:xlink="http://www.w3.org/1999/xlink"><defs /><rect fill="white" height="114.28093179630083" width="110.28790011785333" x="0" y="0" /><path d="M25,25 m0.0,0.0 m6.342759134677188,19.15420640218689 l0.6100296666966363,0.0876653031363672 3.3092870379392103,0.03648436618612 l12.439824464369584,-2.054022803272837 2.2540392592144207,-0.18061886103099048 m-8.138803720788164,-13.60838470227732 l0.8496228162031485,1.4496509983762045 0.19959492116587257,1.9586055414592733 l-0.14750884337400605,46.75062584316646 -0.35990468339317266,1.5497062467985703 l-0.5541365925663132,0.7058703927302465 -0.6930460775147741,0.04119774202896123 l-1.5413933777302284,-1.2257733038647343 -1.8344798245272464,-2.2235283836072406 m-7.018648016058262,-13.794081436561813 l1.7659550993528967,0.3182608835063403 1.1466916853888016,-0.6849648041691573 l14.111597391375208,-11.597133203833618 m24.721680417924176,-21.433187124550102 l-0.3369827462502124,1.0767268037804592 -0.5884095247347076,0.642499696485498 l-3.935067797806867,2.8117522010951017 -4.9944757393957335,2.60207992315856 l-6.308124302445331,2.653728011852273 m-2.3155959932700134,5.226073621198616 l1.16826173024804,1.080182040500947 1.6828083714787763,2.0628761227806596 l1.5472867176211853,3.103770835023639 0.5399669628939415,1.7211770587503643 m6.659672646386647,-11.650973013635133 l2.2237366839604933,3.5954605724851074 1.7916883504934573,4.7536028847859475 m13.847829294060473,-10.81010513757659 l-0.30766559501654006,1.5538589904325866 -1.695487094901706,3.2509498696061634 l-2.2229283019820505,3.407124938287014 -2.4401818824063115,3.107213170264153 m-20.54193608434824,10.186196177453564 l1.784333348003449,0.20836337299107519 2.4843558325935557,-0.07509300527054716 l18.153206034734477,-2.726177119297831 0.8829753569654006,-0.024795247191886916 m-28.4824621846105,12.549373901497882 l1.448682873118842,0.3200451001143073 2.054092927673723,-0.015728958080727367 l23.756205273556667,-3.1153818071909667 4.364040651453158,-0.3443561285793706 l2.6049135514242865,0.23746789191981896 m-19.155780441190633,-6.795044912666639 l0.4843384267679515,1.0102790625736928 0.13674446702146675,1.2806180249021597 l0.010049071580332629,22.47815697416487 m-11.990304347250294,-8.648589082449247 l0.35253372321410853,1.4342196864563628 -1.359932425170345,9.091048592795557 l0.19557656222953176,0.6903913616632188 0.540239774766762,0.17471594739670132 l12.83748932139997,-1.7986638187371495 11.94691848682068,-1.0877147470679913 m0.5559176623634751,-9.742113867176327 l0.5579437604409517,0.9554606085907487 0.14170870704835772,1.3032869224724613 l-0.5553981219261598,11.296389179334097 " fill="none" stroke="black" stroke-width="1" /></svg>