<?xml version="1.0" encoding="utf-8" ?>
<svg baseProfile="full" height="94.94742310551408" version="1.1" width="98.8877848436768" xmlns="http://www.w3.org/2000/svg" xmlns:ev="http://www.w3.org/2001/xml-events" xmlns:xlink="http://www.w3.org/1999/xlink"><defs /><rect fill="white" height="94.94742310551408" width="98.8877848436768" x="0" y="0" /><path d="M26.009592168979722,25.187287712238756 m0.0,0.0 m16.434031686940457,2.586588986674472 l0.01607077078744291,0.41280693969366306 -0.3607610871420407,1.1343696914594004 l-1.059900044850995,1.8536808930098447 -2.7185921147800776,4.062580739661577 l-2.9988067078096257,3.440681550362652 -3.7040684282259253,3.2623823237736893 m8.390976910216608,-6.1144330965640465 l2.5918997291314714,0.09042031907924943 19.38833326179509,-2.0907065937759173 l1.8038051220405584,0.08416467411248116 m-32.921140850432856,13.73417988465167 l2.0158344807684183,0.31331517274107673 2.190694099697922,-0.019739049172884954 l31.560167710140636,-2.7895080469776294 2.9041942318201235,0.2569875935716266 m-19.836344888188442,-20.405059694539684 l0.7034324090196379,0.6340962969948494 0.41506756174304804,1.4426419831253148 l-0.12607082828609756,42.87068482539391 m-1.306310170126978,-23.708374364323216 l-2.0392521496778238,1.5177414054765106 -2.6782083995459813,2.2950074912110807 l-6.686397494781846,5.024920048025032 -6.561656464275188,3.870844371016392 l-6.426590514957253,2.9725283858723133 m25.228616203970162,-16.575946783219848 l6.857935172757294,5.442562041489983 7.981803960080332,6.049327802089649 l4.896521159452676,3.19736887377869 3.922908347416333,1.8219817290031306 " fill="none" stroke="black" stroke-width="1" /></svg>