<?xml version="1.0" encoding="utf-8" ?>
<svg baseProfile="full" height="105.14196800796111" version="1.1" width="98.59436858039176" xmlns="http://www.w3.org/2000/svg" xmlns:ev="http://www.w3.org/2001/xml-events" xmlns:xlink="http://www.w3.org/1999/xlink"><defs /><rect fill="white" height="105.14196800796111" width="98.59436858039176" x="0" y="0" /><path d="M25,25 m0.0,0.0 m2.6565624591113637,19.850443238886648 l0.5365431026242238,0.11624757238421678 3.1835742756378274,-0.07208466612979098 l11.503294018251106,-2.175627948128767 1.872125346923186,-0.0554088905186384 m-7.8209423372229665,-13.808686060190313 l0.7941145454231946,1.492363743351955 0.2271681743812937,1.9345487506233054 l-0.0013758338871995698,47.86017226768249 m-0.39686554537737384,-34.99506744141901 l-0.5775057903074219,2.889829995232195 -3.0978890737211837,7.439386265579448 l-2.742895104179346,5.1420790232371925 -3.8437467496477615,6.109427651406401 m12.209215034092592,-15.99703850427801 l2.630891105965266,3.0408244052847686 2.504528503174608,3.5734911621145424 m2.316064537089868,-16.769890905395705 l2.6713928438768697,0.09263302446911183 20.0740803687533,-2.464813939156419 l2.204884292306318,-0.23356321466653737 1.6911504071239916,0.17558265717404772 m-21.028623430482764,17.984640448018418 l3.7330612243489,0.32592753925082246 8.570126788385078,-1.4680412378287515 l1.902552431276584,-6.042745471602894 m-5.854801494158073,-15.875948289269282 l0.598812422410371,1.0694458808767933 0.2735981390921491,1.8299802360513553 l-0.001402453951133774,12.968599349121895 -0.5160253525588095,8.64525787310715 l-0.978232971006094,5.809639025917105 -1.3146379309241052,3.8493503553428825 l-1.711568080354667,3.3860318667624356 -2.2416038521739625,3.5340687981532457 " fill="none" stroke="black" stroke-width="1" /></svg>