<?xml version="1.0" encoding="utf-8" ?>
<svg baseProfile="full" height="100.25692672231808" version="1.1" width="100.30983904001585" xmlns="http://www.w3.org/2000/svg" xmlns:ev="http://www.w3.org/2001/xml-events" xmlns:xlink="http://www.w3.org/1999/xlink"><defs /><rect fill="white" height="100.25692672231808" width="100.30983904001585" x="0" y="0" /><path d="M25,25 m0.0,0.0 m15.36406945732458,22.25400369996863 l0.31550541511818786,0.19957376571076457 0.7989528715311862,0.06971012238552686 l1.676176516994432,-2.137001902511373 4.312281646158362,-2.578727517766564 m-0.2949784072154135,-12.944163944048478 l0.44955309554088385,1.2281227638830376 0.1860587623017528,1.4136690543347663 l-0.07115225641350954,40.837327782293734 -0.21200975236839123,1.3196719386522973 l-0.3460729153149579,0.594740959415735 -0.4344993105491976,-0.011721107451219018 l-0.9579525029053949,-1.0659826150890388 -1.066411567622427,-1.9769224123241547 m-4.279286762101174,-12.370990459517891 l0.6979622008275801,0.27404806160920336 0.8243690742731831,-0.5230373103461955 l8.286514053668503,-9.63747616460088 m10.083962805537853,-14.964116650498674 l0.1712037125787727,0.8249402846760832 -0.035187150282854074,1.105145679297969 l-0.23694950573365786,3.10014232433378 -0.6415384934630395,4.760520477599006 l-1.175881896752729,5.945547368743857 -1.6014490698490202,5.80423612818442 l-2.6418431245043297,4.529496826839497 -2.000560867478559,2.100692039268953 m1.4965686750653442,-19.458081715803484 l1.1536352658191553,0.1524572501394015 1.665379722862235,-0.14889441031847908 l10.321253735145076,-2.9795550305416634 0.8334268143837686,-0.10810681883640598 l0.4312872045309053,0.2373760866880295 0.209852962403026,0.4958969671071648 l-0.030374800450044644,0.7258509807847148 -1.3597311698690941,13.582778142698634 l0.541661665629242,2.0932422259853056 0.7031606480098956,0.6283746604573779 l0.860484896372,0.33584095068826636 2.0781901443334903,0.14972779624863713 l1.6868092602773765,-0.22318205389517426 0.9367732145503238,-0.39161518936492895 l0.5160309381849324,-0.5602405704803257 0.340408897954559,-0.8374245346186423 l0.18518210119578168,-1.5776856683359448 m-20.099168487588628,15.611745611181874 l2.307117016679245,0.1769842401924139 14.508881567726855,-2.043139028931383 l2.589002111546686,-0.12083608790061771 1.2631706259530824,0.21188375069992424 " fill="none" stroke="black" stroke-width="1" /></svg>