<?xml version="1.0" encoding="utf-8" ?>
<svg baseProfile="full" height="105.84750164997905" version="1.1" width="100.36616326290695" xmlns="http://www.w3.org/2000/svg" xmlns:ev="http://www.w3.org/2001/xml-events" xmlns:xlink="http://www.w3.org/1999/xlink"><defs /><rect fill="white" height="105.84750164997905" width="100.36616326290695" x="0" y="0" /><path d="M25,25 m0.0,0.0 m11.296999941714772,2.913321699642344 l0.3917200466556066,0.4629085049241502 0.6439073125164848,1.8763375805458098 l2.1752775101267106,13.181705278178468 m-1.8123014348305881,-15.064773689005008 l23.88695408560498,-2.667961584867021 2.357812203141038,0.21549490455196005 l0.9013213420283764,0.8329778707198373 0.19178083109905184,1.6031119966757723 l-2.773816350787374,11.98571385358582 m-23.15765632602431,-5.581251224978045 l12.472955291680513,-1.485914792695144 11.700731929373477,-1.0059587006134834 m-22.963159557504035,8.716277310078167 l10.687790851064555,-1.1938799154769704 10.99505044948662,-0.8302910268819166 m-12.327315560811869,2.604225771765064 l0.6072621800223975,1.65091119831489 0.0982490265423414,4.033781071450995 m-23.391236114157476,2.12656917803128 l5.210155056315169,0.20044961740864473 21.58991688277324,-1.9929008101561547 l17.570081284367852,-1.260450899607659 4.01368238250942,0.32455310677371907 m-35.04540649780247,7.539100155500009 l0.7722676770836007,0.9655470862889388 0.18565577034651345,0.822167913712523 l1.2897769591968014,9.506632264910298 m-1.122025863310828,-10.221866971297557 l18.073658262405033,-1.893210722317911 0.9976258564131102,0.611530084876149 l0.43970885856700853,1.1488436259347736 -1.9879428246726618,6.331277818288635 m-15.600950962362615,2.499531595410339 l16.828551810908003,-1.8108646704388491 m-9.56527192538089,2.7035233353843933 l0.6369081058350065,1.1510633919837032 0.24036460952997807,1.1837018302035898 l-0.12893525595565344,12.247953614182961 -0.36392114298781464,1.0397828434143888 l-0.5364803572340765,0.37783215557715055 -0.6568442347644516,-0.09606862954886831 l-1.4625199316970356,-1.0815058552755346 -1.7954625477598656,-2.087007690344175 m-8.645013842261676,-8.065115703165208 l-0.32315402593642994,1.6218884604324473 -1.7413900277490368,2.5357175270733188 l-2.391958135150206,2.475746956949066 -3.170512835318611,2.4198329138317236 m32.90032282575338,-9.309774290205258 l1.7600118313426723,1.5669956235907847 2.140641355375831,2.664511331105447 l1.7213346419881266,2.8296408393802723 0.766127441180269,2.049173780612097 " fill="none" stroke="black" stroke-width="1" /></svg>