<?xml version="1.0" encoding="utf-8" ?>
<svg baseProfile="full" height="107.06273852579423" version="1.1" width="103.11001630060578" xmlns="http://www.w3.org/2000/svg" xmlns:ev="http://www.w3.org/2001/xml-events" xmlns:xlink="http://www.w3.org/1999/xlink"><defs /><rect fill="white" height="107.06273852579423" width="103.11001630060578" x="0" y="0" /><path d="M25,25 m0.0,0.0 m2.5850727016279382,21.40004473527539 l0.3312597606112578,0.10257206046940232 2.432263566018385,-0.013969335829932664 l15.934963712606118,-2.4429577224223076 0.9774394053707348,-0.02796059105379487 m-9.676564957544436,-13.823582258541915 l1.0140804423822347,1.190774212325813 0.5832418094200494,1.9272345990567756 l-0.1907892972004884,44.855513017159225 -0.19004229051680868,2.4422368352778103 l-0.45969849137456814,1.2214035520932796 -0.6536949029767112,0.2314294219844968 l-0.7573636323377165,-0.44995765043950453 -2.0468715006410223,-2.606065772889599 m3.6370319590932225,-32.221547661070474 l-2.6137654551341116,6.777889457372567 -2.9215480934972127,6.025498854688457 l-3.0846028508191683,4.906785726685712 -3.6566349070378203,4.427298783624321 m14.43305573401653,-16.512331940268737 l3.380652828393168,2.9175155338167036 3.9991991518847034,4.733894715607507 m8.741869881257989,-27.747487245848106 l0.6379467056468671,1.6130729568513074 0.16148924166373127,1.3307159162577538 l-0.18905405163186362,33.27815401076588 0.13043121464421734,2.034227741261717 l0.41500817443412286,2.776162708400445 0.8182935151669157,2.4934982516896453 l1.5193194986348728,2.5864008911078704 2.264859876690008,1.0079827267281931 l5.644517148970732,0.2168219795900324 6.704249659479353,-0.47841593156888107 l1.8252140318463212,-0.7491070882378986 1.206117011674163,-1.5251960315937547 l0.17306969978406933,-2.501649009568533 " fill="none" stroke="black" stroke-width="1" /></svg>