<?xml version="1.0" encoding="utf-8" ?>
<svg baseProfile="full" height="112.81004137139223" version="1.1" width="99.3449301220122" xmlns="http://www.w3.org/2000/svg" xmlns:ev="http://www.w3.org/2001/xml-events" xmlns:xlink="http://www.w3.org/1999/xlink"><defs /><rect fill="white" height="112.81004137139223" width="99.3449301220122" x="0" y="0" /><path d="M25,25 m0.0,0.0 m13.133634504590592,17.791026074657 l0.4178256188029795,0.1209986875894029 2.9446376581054805,0.08558539091991205 l19.857577642617564,-2.316990574828217 2.680903463043911,-0.08976877963194527 l1.7661688163234752,0.23189592990128285 m-25.796649419272992,8.334749165716143 l2.364230387403594,3.0210830548587677 1.2299542105740096,2.476899459011582 l0.4437780762010503,1.6251060726930473 m19.9356152487249,-10.552160489317298 l-0.27944679437923736,1.6400153794541488 -1.2849227197079451,2.7078229704175816 l-1.7618242111516376,2.4862038094423737 -1.6731254848705595,1.7554541822925784 m-25.68054254510344,6.9469972169037835 l3.82773361128985,0.33480559175655805 26.765384670597342,-2.5830553036173103 l4.943428703529141,-0.27751223689834775 3.2170189148488535,0.34259347883125774 m-20.54318601312031,-26.398227463209743 l0.8346735406398768,1.2239745120153331 0.31942637699120213,1.661782463241479 l-0.15217007800574786,52.240762779192856 m-2.0984203032055113,-27.439120228779505 l-0.2781142422861946,1.6424244560541723 -1.2383559965334145,2.3605661833884994 l-2.3742196727184486,3.668564451833809 -2.8015638274489927,3.728209669130163 l-5.657592088775891,6.215205093528329 -2.664013280844552,2.338162847788509 l-2.7462232304396537,1.9446831032127438 m20.435077235274257,-21.656625566988485 l8.754468800570884,9.172606543052945 5.477089089492561,5.396525666727774 l3.8285678839281445,3.2004174989712455 1.8136615362426318,1.1515650609188148 l1.3844440400844227,0.5621618053129204 " fill="none" stroke="black" stroke-width="1" /></svg>