<?xml version="1.0" encoding="utf-8" ?>
<svg baseProfile="full" height="101.13006358962413" version="1.1" width="98.29607290405545" xmlns="http://www.w3.org/2000/svg" xmlns:ev="http://www.w3.org/2001/xml-events" xmlns:xlink="http://www.w3.org/1999/xlink"><defs /><rect fill="white" height="101.13006358962413" width="98.29607290405545" x="0" y="0" /><path d="M25,25 m0.0,0.0 m9.207810877930774,17.712759846510558 l0.48438867023757926,0.10277389806238137 3.1079892210160374,0.08931215864154174 l26.233808226054293,-2.324495854535477 4.046756125075064,0.1630352889802546 l2.612797180372211,0.3192859016272471 m-19.552833869352916,-11.530811905576972 l0.9022470794370497,1.130579183211261 0.30523577797931556,1.7344584812213948 l-0.01060125019179138,41.401237874217856 -0.196033102729921,1.4727565882971732 l-0.41045988548364537,0.7350653725591549 -0.5791002604414371,0.12410675640776266 l-1.4044656347047784,-0.8773003106118624 -1.6477633157959533,-1.7790717323000937 m3.230438356485694,-28.47339988769566 l-1.674954437832921,2.90698528492853 -2.043139672969223,2.8941775702918164 l-5.5118043238036005,7.014351146620396 -5.351640361456433,5.551042538359866 l-2.573026574259482,2.037044191502881 -2.3335610385074275,1.426986915940431 m20.650846906085793,-21.658550812467116 l17.477961768926157,18.74727426094421 1.5096209397211782,1.2541563326566119 l1.8155555022638314,0.8651610923971287 " fill="none" stroke="black" stroke-width="1" /></svg>