<?xml version="1.0" encoding="utf-8" ?>
<svg baseProfile="full" height="83.79848866229169" version="1.1" width="111.3062631434021" xmlns="http://www.w3.org/2000/svg" xmlns:ev="http://www.w3.org/2001/xml-events" xmlns:xlink="http://www.w3.org/1999/xlink"><defs /><rect fill="white" height="83.79848866229169" width="111.3062631434021" x="0" y="0" /><path d="M39.91293797992609,26.372883044304743 m0.0,0.0 m13.731696490366154,5.869572862292163 l0.023330697893416706,0.4418998706925252 -0.04820006228578114,1.0511874611519352 l-0.6453829983461101,1.8572043646311414 -2.13045358891694,4.577456950567718 l-2.329706399523927,3.781112664414335 -2.7666716743287325,3.47288768103548 m6.463900598446231,-6.710664996939741 l9.623167262543072,0.11545299875444666 17.796100404596697,-1.3733767388538642 l3.4665308565493134,0.2568948882019398 m-42.681178593026814,-10.938516229596202 l0.8636169112014954,0.8977927058603031 0.3864611738424478,0.9666106423854757 l-0.12014288355466522,16.582690879220657 m-16.546006175381944,-19.151252253797715 l0.6984971645964984,0.8684744266564685 0.06981684951522228,10.941228773611238 l0.40491204702930633,1.4888622472334951 19.712683159353052,-1.6096426445676326 l17.34622907330875,-0.8017065247186723 m0.29890996167631595,-13.957053072540235 l0.6683108450663483,0.9059561760389209 0.1414600849006436,1.0653383309469282 l-1.5508507932497655,13.828881693105581 m-34.68251572356374,7.903620266179834 l0.2540566039063217,0.9151912135425107 -0.4188934715835335,3.4212469863179717 l-0.713606574245756,3.210286363147409 -0.9803536538170635,2.5479676330125254 m15.338314590335823,-12.503486610614885 l3.1563164617122075,1.7521999607872456 2.327077072864735,2.2046364746166938 l1.8910724982937492,2.3985815742692473 1.244877151814612,2.3507874070422297 m10.35495140073905,-8.71367597806774 l2.030550112390909,1.8534506015522407 2.1113703111840474,2.6830380683013866 l1.611932489067564,2.647819149663161 0.7257604880472873,2.0638129815122657 m10.51947489465487,-9.590658620876358 l2.4270097751250375,1.8046021093409865 2.9627119995965603,2.7951066350218667 l2.265936550359776,2.793165945215054 1.0902517743232865,2.1012143082487924 " fill="none" stroke="black" stroke-width="1" /></svg>