<?xml version="1.0" encoding="utf-8" ?>
<svg baseProfile="full" height="109.4925132393837" version="1.1" width="106.43164411187172" xmlns="http://www.w3.org/2000/svg" xmlns:ev="http://www.w3.org/2001/xml-events" xmlns:xlink="http://www.w3.org/1999/xlink"><defs /><rect fill="white" height="109.4925132393837" width="106.43164411187172" x="0" y="0" /><path d="M25,25.0000010849908 m0.0,0.0 m6.483654975891113,13.706125020980835 l0.6736094504594803,0.1460632774978876 2.5972259044647217,0.3115198202431202 l2.4944497644901276,-0.05534140858799219 20.640337467193604,-2.072216421365738 l16.06319546699524,-1.2851931154727936 3.9644110202789307,-0.14415821991860867 l3.00374835729599,0.3176160529255867 m-43.15290451049805,16.559401750564575 l3.3624830842018127,0.3157774358987808 22.12928056716919,-2.5111427903175354 l7.367808222770691,-0.5256232246756554 3.8478878140449524,0.20719913765788078 m-19.69112992286682,-24.970028400421143 l1.0681848227977753,1.4666880667209625 0.4398263990879059,1.7177368700504303 l0.0,56.308088302612305 m-1.0055045783519745,-32.846479415893555 l-0.415523424744606,1.727883517742157 -2.325229197740555,3.437110185623169 l-3.6046943068504333,4.393190443515778 -4.209895431995392,4.395154416561127 l-4.597433805465698,4.1660356521606445 -3.8131925463676453,3.0138951539993286 l-3.8131925463676453,2.6021355390548706 -3.701251745223999,2.071561813354492 m28.070333003997803,-24.8862361907959 l6.532996892929077,6.880766749382019 11.679497957229614,11.183947324752808 l3.588656187057495,3.069538176059723 2.7540087699890137,1.5761741995811462 " fill="none" stroke="black" stroke-width="1" /></svg>