<?xml version="1.0" encoding="utf-8" ?>
<svg baseProfile="full" height="105.09725206874789" version="1.1" width="105.28567480204319" xmlns="http://www.w3.org/2000/svg" xmlns:ev="http://www.w3.org/2001/xml-events" xmlns:xlink="http://www.w3.org/1999/xlink"><defs /><rect fill="white" height="105.09725206874789" width="105.28567480204319" x="0" y="0" /><path d="M25,33.42417598740123 m0.0,0.0 m15.863308627611243,11.588321734024033 l0.3935582624856752,0.18292787877958575 1.9881998219840227,0.09863823154201037 l12.100379634533233,-2.149090749741304 2.480198497293901,-0.1219660966193037 l1.4120312820298626,0.20899930889636673 m-10.005059268268825,-10.755948201024612 l0.6097835593460271,0.981996844505241 0.3645846156099521,1.7344363241635765 l-0.05762473507335608,43.5204997090707 m-0.2239285919799445,-33.82903131389386 l-0.39698247262852415,1.7892104696931017 -0.613701125197143,2.344370537290578 l-2.633539952235908,7.14595427344176 -2.581379323972517,5.548261547113197 l-3.5781796443248335,6.321121791585627 m11.67461283235925,-16.814741711510727 l2.3619077454676445,3.095800925576717 3.0463454676714044,5.140403395367041 m2.961084538434693,-27.504989617531947 l1.2927313696862885,0.9682607868820962 1.8228667414160382,1.8239875646246795 l1.2027702290002245,1.5122564529706086 0.6154658229485106,1.132382749541941 m-6.098103654029733,7.201819056043314 l2.8339295944826857,2.225423872284674 1.3115707597868278,1.5303436340613423 l0.6141916282916824,1.1262724907962671 m-9.167713252279478,10.226407205218338 l1.5465090084300006,0.4136368612747697 1.5009938685920403,-0.01881537691843708 l16.576245319524876,-3.5371178528396183 3.748854857263078,-0.5330027985321129 l2.319762737784301,-0.22981552664631333 m-10.046655565430362,-30.791390386890555 l0.701295289369351,0.9553604051266823 0.3573131873597191,1.8758547780511077 l-0.12820176491885876,52.2660368855701 " fill="none" stroke="black" stroke-width="1" /></svg>