<?xml version="1.0" encoding="utf-8" ?>
<svg baseProfile="full" height="95.16707361008926" version="1.1" width="91.80840027596216" xmlns="http://www.w3.org/2000/svg" xmlns:ev="http://www.w3.org/2001/xml-events" xmlns:xlink="http://www.w3.org/1999/xlink"><defs /><rect fill="white" height="95.16707361008926" width="91.80840027596216" x="0" y="0" /><path d="M25,25 m0.0,0.0 m16.996919587541292,11.203038297364435 l0.36743917796692577,0.29861356792535376 1.361849334515,2.8040564120328257 l1.0211158631903892,2.89791465267373 m13.782612460391213,-8.35952420722564 l-0.030828058860935537,0.9860473902610968 -0.7986034488812164,1.8968697552800076 l-2.855680382360357,4.6214751787287165 m-19.43059740099611,5.812629067816912 l2.215458639890456,0.21151517429343264 18.867245994073485,-2.5643584771530725 l5.362148435820098,-0.2853341459215053 2.0589342424588617,0.2743180189967919 m-14.913174945034434,-16.72942483158093 l0.6457385553772622,0.8465401365487366 0.31482623976212887,1.4060418411658164 l-0.10035925076085592,39.84665577888254 m-1.217634890664831,-22.84275191951524 l-1.1990170519349928,1.621264448599734 -1.8496924341750667,2.445348017933473 l-4.300384960468611,5.1846263360136 -4.47967792807483,4.096791865793721 l-4.398362317541786,3.003799804689483 m17.461638706724365,-17.094040513010572 l13.320334369404723,12.853243214268874 1.737984056957477,1.3693722895080531 l1.8681676816425192,1.0366228164660178 " fill="none" stroke="black" stroke-width="1" /></svg>