<?xml version="1.0" encoding="utf-8" ?>
<svg baseProfile="full" height="113.47856606277304" version="1.1" width="99.7608131775859" xmlns="http://www.w3.org/2000/svg" xmlns:ev="http://www.w3.org/2001/xml-events" xmlns:xlink="http://www.w3.org/1999/xlink"><defs /><rect fill="white" height="113.47856606277304" width="99.7608131775859" x="0" y="0" /><path d="M25,25 m0.0,0.0 m10.09361523693642,12.45022332454001 l0.25827643763585706,0.443027972234587 0.371044804055533,1.5286227899696296 l-0.008438969695229908,12.008572423387621 -0.19697397791317323,9.85358793411923 l-0.4176435371734251,5.994039351639214 -0.6528398125031999,5.206496150866481 l-0.8075208177317834,4.071748703137358 -1.2000623498603775,4.156871128624465 l-1.2366211934957076,2.871499228951347 m5.26853777051447,-45.995283804467704 l7.817889088843928,-1.941560339503725 0.8074194582871941,0.1963519958607178 l0.6754311946049288,1.654430000006194 -0.12722679822505523,45.03835708270195 l-0.2805399134732071,2.103301504923513 -0.4330783763420575,0.851266453075038 l-0.559592564740287,0.11406466326467671 -1.2694494732966695,-1.0474280352401628 l-1.4946466463071308,-1.869850527807566 m-4.728867413608784,-31.063688250656902 l8.440416724405134,-1.4860605000612528 m-8.983803975048122,13.245370839948063 l8.623590383992706,-1.4762105190828327 m6.363742946317099,-25.6717790827149 l1.237371049986399,0.6369178181057372 1.148366486816333,0.12697111248800327 l12.88936696039988,-2.1802227102450886 1.3791436249668687,0.08238994029543195 l1.0315613733952396,0.9721001849947888 0.16866965950065474,0.7695612808399439 l-0.10274731959128434,0.9818401559156575 -2.2689531445906335,8.409794613233489 l-1.286225304024952,3.107547475093729 -0.6735116923842119,0.7872051179558465 l-1.1044908191751663,0.2449167982968123 -0.9470758319264242,-0.7425892695207698 l-1.1152570016434908,-1.5554558036470605 m-8.354060999839316,-10.521047013645143 l0.3675695269664318,1.04415016534123 0.14452281153413946,1.1922467627282312 l-0.12114674636059433,48.886268946827144 m1.8561271109544002,-28.8652839315517 l1.5418862522356482,0.2657928516982688 1.4777406776223962,-0.1954476264244097 l10.697073004157462,-3.19324426522157 0.7878851625232571,0.5683996656929585 l-0.388897030566524,1.3085606729847072 -1.3711357874482968,3.2453420989974155 l-3.563083315067158,6.891805545496202 -3.732012500055264,5.783740176387065 l-4.101209322775279,5.232418444837794 m-0.9496591899218624,-16.964101740929163 l2.3148011014340972,2.3599930142755854 11.13264287244213,13.372176531641477 l3.1991033364786716,3.633558375328747 2.1437899453632894,1.8875029686399059 " fill="none" stroke="black" stroke-width="1" /></svg>