<?xml version="1.0" encoding="utf-8" ?>
<svg baseProfile="full" height="106.27323164850871" version="1.1" width="101.43503518124504" xmlns="http://www.w3.org/2000/svg" xmlns:ev="http://www.w3.org/2001/xml-events" xmlns:xlink="http://www.w3.org/1999/xlink"><defs /><rect fill="white" height="106.27323164850871" width="101.43503518124504" x="0" y="0" /><path d="M25,25 m0.0,0.0 m2.424409177902788,17.40714907058882 l0.33372502787727115,0.08841322810315225 2.5747206299531293,0.0012437523067662746 l16.84002711047152,-2.77969943168908 1.0895643302395137,-0.034083133841499164 m-10.357196253908631,-14.521324579450132 l1.0673470656886455,1.3061225067843147 0.6494083989730415,2.001161362122296 l-0.1987458126084878,48.58486392629957 -0.17787373041735022,2.6620872265558924 l-0.4528351202359006,1.3174023273242437 -0.6568941982682122,0.2398953934043653 l-0.7706964793100782,-0.5151407873060624 -2.1031350356451703,-2.8415273138309303 m3.7262699267411863,-34.978897591719246 l-2.826537873237385,7.310520567215889 -3.135431424017377,6.71068133441477 l-3.219957291120349,5.39051059912438 -3.647385081777579,4.81513947689472 m14.829486479704155,-17.945229386150906 l3.282916545259598,3.081981030081886 4.051822203054881,5.158870623556201 m8.389611449048541,-30.169246598432732 l0.6597981790301306,1.698831451184248 0.18893489221066379,1.4214776503339879 l-0.1919038578175472,37.33168408364732 0.20680280123142514,2.274851036061203 l0.6552575128757955,3.232199505394231 1.25876124927174,2.6113752078219323 l2.0690139140822357,1.0168769270671927 3.3421837918211854,0.2095933546198817 l6.740204561321335,-0.3115998880994347 2.3330120604322437,-0.7762532126457513 l1.929316763364596,-1.430444540600471 0.5310332690534775,-1.7916366963469235 l-0.03998748043395174,-3.273740142657866 " fill="none" stroke="black" stroke-width="1" /></svg>