<?xml version="1.0" encoding="utf-8" ?>
<svg baseProfile="full" height="111.90025532072916" version="1.1" width="115.98491573692174" xmlns="http://www.w3.org/2000/svg" xmlns:ev="http://www.w3.org/2001/xml-events" xmlns:xlink="http://www.w3.org/1999/xlink"><defs /><rect fill="white" height="111.90025532072916" width="115.98491573692174" x="0" y="0" /><path d="M25,25 m0.0,0.0 m10.354459652301646,18.288406440509053 l0.5850476389185619,0.09235534483915897 3.194027824707212,0.006233475765173007 l14.908863302689891,-1.951599477733279 2.8923203736027245,0.028272496016388423 m-10.542961203770474,-10.195688438324384 l0.8194702122318698,1.0101819974246968 0.25970337684582057,1.5607888960487428 l0.035126862339938815,19.006964360109297 m-17.137950464876937,2.0532190151441876 l4.15229924979006,0.21544008657784103 24.54363142439694,-2.6043787385240345 l5.3221321348846296,0.16123385395777642 2.4676333583701693,0.43116636263840946 m-4.037165438317574,-16.01546613647218 l0.09448807241315531,2.2889454154734126 -0.9708414770777952,1.5058070886856774 l-7.12130045723463,8.265249903823102 -6.518217177798191,6.606565652456712 l-5.279632775882048,4.99209504805952 -4.809793900296258,4.105804939709802 l-5.0204750880361235,3.9038304883298602 m11.056127726648397,-7.629638914546432 l0.4145613765887983,1.6793478102894406 -0.002995154906901339,18.805878050636505 m0.825806245095121,-20.83098605921482 l13.735187349515074,-1.3503232147264215 1.715102506084808,0.1647961207015008 l0.4975352643823973,0.4076070600334704 0.2778622244427108,1.4523152750009616 l-0.21358124243676802,19.897970617470722 m-16.51931803438387,-11.168873535363597 l15.824282056755502,-1.4493577559355124 m-15.812818832460804,11.116244043433966 l15.818935152981439,-1.2612171016302627 m11.447461952303378,-40.873806556165846 l3.143404930294123,0.28121018888574945 13.1029508258082,-2.1902024082007827 l1.521534041506888,0.13474141110439314 0.6101269455106887,0.37801316077481634 l0.3518849029899616,0.6437013011154116 -0.0010457153885053583,0.9554377002065654 l-0.3308513313844014,7.499263983703344 -0.7876734824125988,11.323298564843487 l-1.0171727689438042,6.190945017256286 -1.0841291543516507,2.681502343478257 l-0.7992254134281349,0.6610725695367037 -0.8533746484699567,0.11105916082698385 l-0.8581236412706779,-0.2943375734106753 -1.8538844021071026,-1.8641888661531427 m-9.994822683794068,-25.14892435449808 l0.7581246776356635,1.006644877033289 0.28448459748064003,1.3538800944096674 l-0.029850877857541088,45.46175423531827 " fill="none" stroke="black" stroke-width="1" /></svg>