<?xml version="1.0" encoding="utf-8" ?>
<svg baseProfile="full" height="120.14706428145132" version="1.1" width="112.1102577834879" xmlns="http://www.w3.org/2000/svg" xmlns:ev="http://www.w3.org/2001/xml-events" xmlns:xlink="http://www.w3.org/1999/xlink"><defs /><rect fill="white" height="120.14706428145132" width="112.1102577834879" x="0" y="0" /><path d="M25,25 m0.0,0.0 m6.480163922769988,21.036484359845034 l0.6354467832726979,0.0869719192716308 2.973895357510173,0.0408683440738199 l10.994669180526436,-1.957782927632791 2.2269844982521763,-0.12424736730471275 m-7.187059042567885,-12.47721236600552 l0.7982336352500383,1.2476138868534528 0.22984492327116418,1.8133377986584487 l-0.15060128817748442,44.65492273489728 -0.3804885189970589,1.439803086157055 l-0.5426756538108897,0.5952794927812972 -0.6687704462971884,-0.053091631701476794 l-1.427963775833733,-1.2418733781641107 -1.6451324776685206,-2.123948705351721 m-6.204666805342138,-13.257720335862837 l1.5882710693393065,0.36150680192887835 1.0527052118130849,-0.6014943275444702 l12.748286779470217,-10.534998942836097 m23.901934885614473,-21.79449804011418 l-0.31490094113334843,1.000567796492836 -0.4991420503967224,0.6474931780713648 l-3.6312121549802883,2.340871623635806 -4.83754444679227,2.277145531896844 l-6.367710407671483,2.31477158152516 m-1.9616561721267327,3.7342427738799304 l2.2497607263609973,3.312490789796019 1.5339956205964669,3.662142114561707 m4.911358601291449,-9.21850466922067 l2.201906850799797,3.158429227502798 1.4834956186761297,3.465676088212352 m12.689268223413888,-9.517561267544687 l-0.223230868401033,1.3957631975812856 -1.4086808203395835,2.526329106924168 l-2.015133226639465,2.7938635178461984 -2.5716008564586823,2.7930743369505118 m-18.140364769843824,6.712495643222274 l1.5730344134471148,0.32337661546941737 2.1191137588164333,-0.04384050354844873 l15.390867327157322,-2.288958078251187 2.156274148574554,-0.012771256198736541 m-25.25867242669195,10.626415112924743 l1.283236433510675,0.2663406765617814 1.8085333122768112,-0.03249544520424927 l24.924122094737566,-2.911120626335451 2.01628975481945,0.23356237539730348 m-16.678058138862013,-4.847587107650751 l0.30608450244877766,1.0786471505543975 -0.06781520209572854,1.2860104841640163 l-1.4278405545049062,9.007148890614967 -1.5184143217912878,4.517928597665096 l-1.9509830618515733,3.8016287395547477 -2.5128707266442034,5.767517759777948 l-2.5962736715559522,5.13731134738964 -2.924532867638959,4.500192984569727 l-2.7975918817338523,3.228545590713484 m12.46998906140344,-16.02476920452423 l11.326829937214203,1.8599081015413435 12.237707494077648,2.3087261152470986 l3.709541233624166,2.1014544051082926 " fill="none" stroke="black" stroke-width="1" /></svg>