<?xml version="1.0" encoding="utf-8" ?>
<svg baseProfile="full" height="113.40991667902048" version="1.1" width="107.36983175142969" xmlns="http://www.w3.org/2000/svg" xmlns:ev="http://www.w3.org/2001/xml-events" xmlns:xlink="http://www.w3.org/1999/xlink"><defs /><rect fill="white" height="113.40991667902048" width="107.36983175142969" x="0" y="0" /><path d="M25,25 m0.0,0.0 m6.870409595800984,20.30723234011387 l0.5991331581546375,0.18629750180972696 2.8013792342952613,0.029580295079238948 l12.98358232314236,-2.2104248142063962 1.9385413969613876,0.004770768266997676 m-8.576368374813997,-14.473953632039525 l0.6936238851398494,1.4064858805933471 0.20969220378485331,2.1327742319980127 l0.0008851542234344386,55.330523990039495 m-0.5562710115857391,-41.40251702313223 l-0.7452058738196962,3.4406827304554777 -3.3655823521207378,8.238433331526934 l-2.8808162363904626,5.754215001030585 -4.216136067830849,7.49721379848456 m13.361403440810866,-17.846053383305563 l1.8686235494050865,2.3217010200400687 2.804470505764104,4.714043962296811 m5.602722483075171,-23.267890585313243 l3.709548352075621,0.19349486463955987 18.78117590131205,-2.4630634468080186 l3.131788472043874,-0.11869352998299912 1.768636194938476,0.33635877178130635 m-27.56582191171063,19.002656081943115 l0.6483696007226327,1.1572050559320586 0.27743293637482036,2.2551147916648326 l0.8938210386272352,29.48698928957905 m-0.29479245321567304,-32.14474109201278 l23.094275183712085,-3.693261303355502 1.9539488689431364,0.170156650911153 l0.9823423374826823,0.78277893137885 0.5950202161268674,2.1598620875031393 l-0.015825045335859485,31.254032403173206 -0.27636680517036954,1.5494507152119537 l-0.3781273719309045,0.9025797791863245 -0.44884979244320433,0.4158812145370484 l-1.17954190046847,-0.4410378480947039 -2.316835708051849,-2.5618981373322005 m-10.485240754516916,-44.37254077621945 l0.6269147636959834,1.744141923462943 -0.1813818925317447,6.932694145288068 l-0.5069604747035752,5.618280884025209 -1.024675137997456,5.518663103820733 l-1.2737876802025765,4.209038645210992 -1.7547860519260252,7.1814135430789525 l-2.005827561874047,5.96525551147138 -1.6828106528950548,3.8714722439452554 m7.397816992182992,-15.200793844040119 l2.3820662924688865,2.2281188395845413 2.7550189657076034,3.550609695745286 l1.9913227338397494,3.333353738316829 1.1273910580761808,2.813882931579863 " fill="none" stroke="black" stroke-width="1" /></svg>