<?xml version="1.0" encoding="utf-8" ?>
<svg baseProfile="full" height="110.9587335152793" version="1.1" width="108.08401567130939" xmlns="http://www.w3.org/2000/svg" xmlns:ev="http://www.w3.org/2001/xml-events" xmlns:xlink="http://www.w3.org/1999/xlink"><defs /><rect fill="white" height="110.9587335152793" width="108.08401567130939" x="0" y="0" /><path d="M25,31.19189772625609 m0.0,0.0 m7.870623995818929,18.2873067475332 l0.5001733289069132,0.10446040864895072 2.69803567487742,0.0546443517222495 l10.7865506484388,-2.017347846634928 m-6.011312952029423,-13.466195017710687 l0.5625375283865843,1.3149469005855479 0.1756971113661989,1.9078368996113926 l-0.11574595192290783,46.50597103239983 -0.33753986147923415,1.488088447591357 l-0.49091194011624384,0.5871238652763144 -0.5820568372208923,-0.09016251663628794 l-1.2709986343677309,-1.3441756685334663 -1.4004942985205977,-2.2147225448119854 m-5.523912372232738,-13.612726277882098 l0.9263298011451354,0.333781932961332 1.1374679198123652,-0.5492886431504368 l11.209953662029205,-10.147654490123863 m13.563096408722918,-23.146107489237504 l-0.20291868809510147,1.0946120800564836 -1.9055816385222017,2.6935764304333376 l-2.043545329097258,2.370622023464678 -3.0829859517221285,3.003553609078145 m-1.7512324437655895,0.37618719404265066 l0.49071005317246963,0.872080126742244 0.18567809032280658,1.191426603521108 l0.028908567674540548,20.29488917346122 0.26941383259922513,1.1852081741946845 l0.500947323185037,-0.08592372221680707 0.8091686016240391,-0.607443667987671 l6.547352625848526,-7.058271968140562 m-0.20022774827080161,-18.241561525533328 l1.9763177868862216,0.677780178316474 1.617654751399063,1.2467977612219765 l1.2498072947123107,1.2729401730751524 0.7864725241737445,1.2891190319651185 l0.711256813238734,1.8298102008882267 0.3260818512264842,2.29973337772369 m3.4679036339423135,-24.35862170776896 l1.2698222286837402,0.35305998366941527 1.0195189605843202,-0.04501765049191902 l10.715564852991536,-1.8422336975803546 1.0592037029492969,0.42074283596562595 l0.5412307439533418,1.1784861452161295 -0.284704982490509,4.629758445001493 l-0.9256356065972428,7.497915819774123 -1.1352917115197125,6.001564568944342 l-1.264184351317517,7.1282673031862736 -0.598276657401754,1.855132909426283 l-0.6112148306998906,0.922577540377211 -0.5815346638188036,0.2289062733465102 l-0.5209108970924038,-0.27400628937005717 -1.1975813004588272,-1.7738837281768889 m-6.720422340064511,-25.782828186156255 l0.4921280470057119,0.9975869081208925 0.18154333388242966,1.3319402221978216 l0.01804134151997765,43.70671683853569 " fill="none" stroke="black" stroke-width="1" /></svg>