<?xml version="1.0" encoding="utf-8" ?>
<svg baseProfile="full" height="123.86051608246123" version="1.1" width="98.3714942909719" xmlns="http://www.w3.org/2000/svg" xmlns:ev="http://www.w3.org/2001/xml-events" xmlns:xlink="http://www.w3.org/1999/xlink"><defs /><rect fill="white" height="123.86051608246123" width="98.3714942909719" x="0" y="0" /><path d="M25,53.12926779149337 m0.0,0.0 m18.927942907334334,3.5728792421133093 l0.39765514480520525,0.5129846886839211 0.5907236515845312,1.9476098327506848 l-0.03002536664080153,6.804605285415741 m-16.64502562319535,2.305078774399639 l4.1404815857591455,0.19704390287798793 21.980334677724898,-2.103318424458141 l2.8564878296339034,-0.08140889481710302 m-14.665280070463835,2.3366995155358583 l0.44587641058162686,1.600831957436654 -0.5742562659223824,1.4097734664145185 l-2.5070353576536797,7.760965743475091 -2.1944140276938295,6.0210729693119776 l-3.4900007966867053,7.644355042571547 -2.2649772444987533,5.802075189256178 m2.2740644584347702,-25.510956704152765 l2.4567220074635676,2.662738768918887 9.66714212218466,3.9708223774525377 l5.50335774112438,3.619458474964027 5.085110370151292,3.9202224079245216 l5.045892072470954,3.808668332991646 4.369092557193406,1.7670532610879635 l5.804623268386326,0.8744026811758383 m-22.30599944822724,-42.93461394114308 l0.01115050708405903,0.39464653871913435 -0.16987337526365545,1.9253458018784597 l-1.8277063392835242,4.907978634954298 -2.165102782348565,4.059215062221932 l-2.535594862156818,3.5781097980034975 m11.136404397660133,-7.4967235547345865 l2.0291754531699477,1.2699102892290197 2.091106230107311,2.1920490184796755 l1.6389245065921325,2.3411281544921283 0.7823607288031477,1.8066932809757057 m-5.299382046131591,-41.01666476590008 l0.42267616267587754,1.3977438841929515 0.057155505427588814,1.4403783694241759 l0.0016972764664269376,49.293916846687516 0.3173253782016198,1.7491001531367247 l0.40258232359989055,0.9511189220969007 1.041156646112636,0.5283344583583003 l1.0837513293115013,0.19346019208649817 7.843746838840156,0.08055530789522115 l3.2793962118167457,-0.37640247256132586 2.613640952213117,-1.915167275000176 l0.5915253452414271,-2.0274676754775824 0.1568852989819035,-3.1093799830237003 " fill="none" stroke="black" stroke-width="1" /></svg>