<?xml version="1.0" encoding="utf-8" ?>
<svg baseProfile="full" height="103.77573815132108" version="1.1" width="99.83426370821962" xmlns="http://www.w3.org/2000/svg" xmlns:ev="http://www.w3.org/2001/xml-events" xmlns:xlink="http://www.w3.org/1999/xlink"><defs /><rect fill="white" height="103.77573815132108" width="99.83426370821962" x="0" y="0" /><path d="M25,25 m0.0,0.0 m27.006475217473035,12.87424402876397 l0.3216719285275283,0.34155797002283483 0.4446018581148976,1.0346477399862608 l-0.00444790839363596,3.789861653308616 m-16.9452294168704,1.4174968948317235 l3.789381543779653,0.10408723420652911 12.141639502277467,-1.097801698125127 l13.053190894152532,-0.9809044840243721 3.3195183259738394,-0.07740161917092729 l2.200324908541023,0.3609056442524669 m-28.336907676946083,7.892189811485875 l0.5732114458891706,0.6145999436172587 0.5557956875027965,0.8828878539237229 l1.735046451926478,6.518526241437319 m-1.4328189553703496,-7.499340497799108 l15.27402401276845,-1.8829882763091768 3.5873041182562284,-0.16820687540243975 l1.0098900741091392,0.21798685148943792 0.7085706984347019,0.6325301009563464 l0.03792038953815864,0.5119860355795508 -1.8103283496971239,5.48476168866952 m-16.724004678346986,2.039577606807395 l17.944106425200015,-1.7390463453742788 m-19.21476426046806,7.1688658793541675 l2.765764141770827,0.6421899261733023 13.087868589057111,-2.132471194306673 l1.6330206884325287,0.27341035868760094 -0.11052993604560961,0.5260539959650467 l-0.6167144445623557,0.5617653988101944 -4.676167562989089,1.049482508435015 l-4.524433153040493,1.9581174836009287 m-0.7636172749195885,-1.2450225882284531 l2.2754078310934114,2.1055617064436163 1.4950572099273787,2.624647247121845 l0.7496506701937117,3.1778459975224784 -0.17814819948064892,2.9726941895486014 l-1.5853052418202929,2.6687901035118156 -0.5445888303208168,0.15164963554820085 l-0.5378933506916956,-0.08587334312681816 -1.8368079709863312,-1.0556434121801783 l-1.0574694711075516,-0.9968495907312138 m-16.226688278772723,-8.129741896602566 l1.9115050365788422,0.23815589982688043 2.884446958768402,-0.050592237511979755 l13.678015486589125,-1.3253571875841852 13.45853661128106,-0.9651073482831426 l5.725315260198642,-0.13539360574993886 3.5938667026933055,0.3550456332634822 " fill="none" stroke="black" stroke-width="1" /></svg>