<?xml version="1.0" encoding="utf-8" ?>
<svg baseProfile="full" height="99.07487070256866" version="1.1" width="104.44013187292103" xmlns="http://www.w3.org/2000/svg" xmlns:ev="http://www.w3.org/2001/xml-events" xmlns:xlink="http://www.w3.org/1999/xlink"><defs /><rect fill="white" height="99.07487070256866" width="104.44013187292103" x="0" y="0" /><path d="M25,25 m0.0,0.0 m27.65343283683091,3.387878718477596 l0.4653080149623298,0.178788666342262 1.4374736906157761,0.8015640536581278 l1.4648434103917503,1.1433944495244943 0.9860674667477476,1.23223190457149 l0.3278648514709198,0.7401204518671171 m-20.24613581418296,4.389890376908694 l-0.7644104639095236,3.7166859728232726 -1.74110830440619,4.378071522685539 m3.451467219444927,-7.619028592091463 l33.40646998887001,-2.4020583224161913 6.576354665614616,-0.22902173859778294 l1.046610316183552,0.2868963331847632 0.3758939942871581,0.4766074752497399 l-0.12581000632662354,0.6033597284409005 -1.244031824383292,1.3746373156531837 l-2.596496443026021,1.7181366111466758 m-34.83586897067474,5.51461976863824 l1.9070637438650275,0.20808954961031573 20.139875299503117,-1.6228241402922634 l3.1693682332324338,0.07374875752304391 m-32.20370814066779,10.649218896567948 l2.914488355796213,0.22167933035899312 28.485398880637288,-2.22554325077373 l5.500499397857143,-0.3820242358503803 2.771027489448633,0.15933936594608594 m-20.721847506031622,2.5665268269121646 l0.6935640122286596,1.355451035633385 0.26666149518387344,1.2335104823933203 l0.08679350039379456,16.24872187549287 -0.33360185898612066,0.7349393276503704 l-0.5056303729083597,0.161262185329878 -0.6416447732654069,-0.22155312293805937 l-2.9513721263401393,-2.11340212178754 m-9.019793527042816,-11.024380086612151 l-0.03299223967581974,1.0996069602226477 -0.3556191111385191,0.9258872769176082 l-2.1622270622319273,3.028938170440794 -3.4714157159833263,3.463076392854386 l-3.8692041941981667,2.97532959290747 m34.95017177550617,-11.653598165264954 l3.3092994197133216,2.101576124522867 3.8720959067168286,3.3323872504534515 l2.7579019466857204,3.0766319551427532 1.2874968274922904,2.2259182261941493 " fill="none" stroke="black" stroke-width="1" /></svg>