<?xml version="1.0" encoding="utf-8" ?>
<svg baseProfile="full" height="101.2902932502605" version="1.1" width="92.53168742058816" xmlns="http://www.w3.org/2000/svg" xmlns:ev="http://www.w3.org/2001/xml-events" xmlns:xlink="http://www.w3.org/1999/xlink"><defs /><rect fill="white" height="101.2902932502605" width="92.53168742058816" x="0" y="0" /><path d="M25,25 m0.0,0.0 m31.939352141303726,1.7489010575877906 l-0.07823752339615689,0.47809986177710734 -1.0374769468248786,1.1646581138847245 l-3.6979253015419493,1.371718994394448 -5.357948842179267,1.2186450198203156 l-6.565144365960887,1.1948187223594724 m-5.743413546744447,5.787277683475285 l3.624924099303987,0.14988639734599768 23.556091805787485,-2.4214894440603905 l3.2188468362483382,-0.27353041484074014 2.672619064592213,0.13026598699175188 m-16.562611693582713,9.510096588937348 l4.1413699209021475,0.6193179506828086 7.883298330659314,-0.783217188347052 l1.4100024290527584,0.11262298027841422 0.7579835359161302,0.3021307524026426 l0.5048313417902947,0.8653114876999977 -0.4412416577996552,1.8525101746382604 l-1.744177971093348,4.1357903587649325 -2.3393121329526503,4.063815639004811 l-2.063203006415333,2.99206035415596 -1.1416334122018645,0.9190699832306517 l-0.9521504807480337,0.06593161283443716 -0.8934834532289783,-0.5708070564804346 l-1.1506874039857595,-1.3014670235012489 m-2.118445016866548,-20.233849363712263 l0.14618739022472743,1.688672829944435 -0.9228839104811272,2.5976890504264647 l-1.6633633642173309,3.689939386959609 -2.088100949036546,3.6797096746544935 l-2.0145947535071196,2.852074931742147 -2.4093723890520327,2.7455906106001238 l-2.8066119413544204,2.5060414133911295 -2.295761987787847,1.6335507680396661 m4.976817547743393,2.32671555829579 l0.6097180159669162,0.8976028684846462 0.35594210596834014,1.4126756974546013 l1.3025680176638557,12.161461230942356 m-1.1446598763035836,-13.69982202647853 l15.325173101096409,-1.741847694922532 2.0974947993239037,-0.05710097551306794 l1.002727771729539,0.2710180997639683 0.6375819481995479,0.7712110694783467 l0.031534763389069666,0.6218462421427023 -2.4537442078838243,10.35126038855053 m-14.938335525618475,1.5827990972973829 l16.287520151907593,-1.1626433729144003 " fill="none" stroke="black" stroke-width="1" /></svg>