<?xml version="1.0" encoding="utf-8" ?>
<svg baseProfile="full" height="106.30481290943527" version="1.1" width="111.3724792559012" xmlns="http://www.w3.org/2000/svg" xmlns:ev="http://www.w3.org/2001/xml-events" xmlns:xlink="http://www.w3.org/1999/xlink"><defs /><rect fill="white" height="106.30481290943527" width="111.3724792559012" x="0" y="0" /><path d="M25,25 m0.0,0.0 m30.906626296037473,7.170973596584008 l0.024168070652948227,0.4315214992246959 -0.5065445523616059,1.5963653356451268 l-1.9514002411093936,2.825406774410398 -2.7130938785108865,3.266321545983121 l-3.5976357694447807,3.662109328126864 -6.746827442525949,2.892685368779392 l-5.245790685656567,1.567538291829745 m22.45173850341151,-13.654409237967306 l7.90241447950715,4.0194202619489845 14.48276958829077,5.625355576309688 l2.6695644516938697,0.9187151963802023 3.696490435916662,0.5905386178278991 m-36.620244119022495,-3.3930543782350857 l2.780790185386096,0.2029151155088061 11.808016870822483,-1.0135140827236728 l3.0432824262298985,0.0921611178288076 m-23.092921875098558,5.6142014275818175 l3.743106905237413,0.22457777265742587 20.006049813300315,-1.7182665994791713 l1.8365566231050348,0.04574540220372952 0.6732723466221838,0.26264742887060294 l0.21045328266263064,0.44016392071608995 -0.18857735187717292,0.6485555835824602 l-7.222008890724616,6.652291818191852 m-18.7945411734645,0.46085004546206293 l0.8511706684720993,1.0514413090968815 0.1273551040418411,0.7971235521987078 m17.42313264597039,-3.7346564526439816 l1.5330102714273734,2.1928045473644318 0.9027083720696897,2.3384236620246517 m-26.197438202843685,4.605521031081173 l1.830674506561692,0.23250040877709408 2.8709648520204123,-0.08449536945354146 l26.020357147580565,-1.9876348612912946 4.883586257828421,-0.12582065403221224 l2.9615674463554087,0.2024780829272442 m-20.861980985388612,2.5295591014885357 l-0.18157089022059045,1.1229231741212498 -0.9601355039666942,0.9787189104562957 l-2.2268367531749442,1.9868249618551792 -8.866441451614122,5.861099815829182 l-6.940293096918022,3.05561013772253 m15.53714335187073,-6.206611948197712 l0.6736280699829036,1.2499666220993348 -0.13993448879102718,9.776891177413452 l0.18520131674353296,0.9391051700742362 1.1884951730439262,0.09122380327528215 l8.575787514749658,-0.45021406883110443 6.007541771477076,-1.2071811088697657 l5.974874816606755,-1.2219688589022515 1.896694065251195,-0.6467299167358054 l1.0077305419633713,-0.848138149041372 0.41638913205228123,-1.521842630865482 " fill="none" stroke="black" stroke-width="1" /></svg>