<?xml version="1.0" encoding="utf-8" ?>
<svg baseProfile="full" height="104.94175319246101" version="1.1" width="100.07652893223951" xmlns="http://www.w3.org/2000/svg" xmlns:ev="http://www.w3.org/2001/xml-events" xmlns:xlink="http://www.w3.org/1999/xlink"><defs /><rect fill="white" height="104.94175319246101" width="100.07652893223951" x="0" y="0" /><path d="M25,25 m0.0,0.0 m7.098392394459485,19.4990700564131 l0.3669343205481263,0.11110094263470677 1.835930192208296,0.089101742945754 l9.806575203223469,-1.6388150968243054 5.424257600062286,-0.4447715834192724 m-7.635288919760726,-15.16237787204878 l0.6123887087637886,0.9631607222422411 0.3269593052935188,2.2116860555941273 l-0.12410226646249925,49.31359822492344 m-0.2100349070021628,-36.0826244958024 l-0.6052644473176991,3.3705485570981977 -2.956969970687764,7.7969721756526384 l-2.7796955429641934,5.713246066226502 -3.5451182844499676,6.055608369374204 m12.274536262911685,-16.20589331995138 l2.2421228282629166,3.2098264631154927 1.4721610715364957,3.9577546992183454 m11.77991530380008,-30.95920409960794 l-0.23746252118617572,1.8534412136331038 -2.8921026844227846,7.013082821234236 l-2.6208245277266577,5.1106258207781545 -3.2292294189299287,5.123058530235017 m5.599373048699656,-5.9714546275763976 l1.507394193923175,0.1386405423527722 1.6989375920831595,-0.16897733558374053 l13.452766888820621,-3.000888633933314 0.8162665506946026,0.6626540696665278 l0.5977109578587266,1.9030256749750465 -0.018369843924332316,2.134434631164707 l-1.2357437838133503,9.749934118378741 -1.7323597092843142,9.041330136889728 l-2.0230246409369466,7.336987377069713 -1.8670574496096493,4.772447645012808 l-1.020674019147822,1.8950524076069055 -0.9414260789931503,1.1829303967345233 l-0.9726972633396502,0.45229012207505875 -1.0108875665151622,-0.15682391597885453 l-1.1183864463440196,-0.7362638879073786 -1.625401546842306,-1.802256867338157 m-4.232193618403276,-20.841347582052844 l1.4704977770854348,1.549432836590583 1.5434856002918922,2.11597741882591 l1.3334913754966318,2.295938336721166 0.7394070185544221,1.948984097962734 " fill="none" stroke="black" stroke-width="1" /></svg>