<?xml version="1.0" encoding="utf-8" ?>
<svg baseProfile="full" height="110.20996577717685" version="1.1" width="106.6930588475861" xmlns="http://www.w3.org/2000/svg" xmlns:ev="http://www.w3.org/2001/xml-events" xmlns:xlink="http://www.w3.org/1999/xlink"><defs /><rect fill="white" height="110.20996577717685" width="106.6930588475861" x="0" y="0" /><path d="M25,25 m0.0,0.0 m8.406712666073263,21.059339547298762 l0.3044182514584014,0.09782454311634652 1.8190236193479772,0.04896929287763386 l12.680593108474465,-2.1876180216521806 1.546347365216242,0.003760546417227252 m-7.676502206499074,-12.714559079529552 l0.9670459340324616,1.3135077645758493 0.6790007745353808,1.456418992821318 l-0.18962726651767364,41.69003039302155 -0.2278686005311404,2.328479541009496 l-0.48888729710618767,1.0590590782630802 -0.6665268264547692,0.059230005094139115 l-0.7536084905919723,-0.6238780888760567 -1.7673077853893027,-2.42356316538306 m3.835074016182715,-29.908541893801093 l-2.585956790446001,7.115492906959232 -1.9798940225566444,4.962673227151056 l-2.233950643213225,4.695430236016233 -3.365542367784714,6.111933692526176 m11.62842242879434,-18.779082527129567 l2.3670255801689977,2.151322632940336 2.7161804784037162,3.3184547718279087 m3.846154687959813,-18.716641405561536 l1.0376357088218224,0.19086133551551 1.743146771941449,-0.074021213986443 l12.855496065673243,-2.0121328979947126 2.679221240823212,-0.13853187383465576 l1.3190589890175464,0.24284738176368564 m-10.572532958123698,-6.991187018339507 l0.5872905138970073,1.020921628603364 0.21934041323802111,1.1283175133062116 l0.09796804115097282,13.353325333115729 m-12.694601375059396,1.118906561432452 l2.708270840188965,0.3588981501451578 19.242427092277246,-2.169199773100609 l4.072263158914473,-0.2163832819991715 1.897628817582011,0.35150487194130425 m-27.888782165888344,10.881981499386132 l1.4258259497331234,0.2702787914638706 8.980837442296838,-1.4176791217090445 l1.5995222779344092,0.0460524760496776 m-6.226694082526993,-4.648515232014957 l0.5725129429757542,0.962842276067873 0.24436591509398442,1.18296432538374 l0.010310730408149829,10.312794758373554 m-6.7938823952516,1.8333973685745026 l0.7832617629534853,0.527888746549815 1.2404014299014634,-0.08471903059655389 l10.511750627963549,-4.4494818614278655 m3.0830898838844423,-6.122714195574866 l2.294647458572429,0.17945040000562096 9.130889792130562,-1.2200586563380245 l2.7845407077016007,0.09915097149494075 m-7.644936156019688,-4.467745123036162 l0.6321681593849783,1.6557536969413893 -0.1246855758919715,11.533781836953695 m-8.137226742300836,0.7441432526481639 l1.8679771511651027,0.1981723287126172 12.803644290964558,-1.2946077774467475 l1.4905795085011764,0.17430073365120569 m-29.916401093517248,8.353827081941233 l2.8286293650118104,0.23670477694876793 20.08613754208737,-2.266820146958798 l2.6552464876134234,-0.14307137675787446 1.8651243016421704,0.2547890865657846 m-19.468783575207187,3.6522517016385474 l-0.0886977194163657,1.840269895549439 -0.8031867431361226,2.6416390580338103 l-1.313265179510245,2.6641721325644245 -1.3822494456428898,2.028781012881937 l-1.7709985167988198,1.9882554462832158 -1.5671313021995836,1.3452733031679924 l-2.359393509498483,1.537119975221627 -2.0531135352664145,0.8971716594325271 m19.071212292742352,-16.008527240906343 l0.5293595199841408,1.8125398970387225 0.1788612255925859,9.689545072806157 l0.5147006581658955,1.7587825698231447 1.041101637247334,1.2069753227893123 l1.4955674668257908,0.67232180871279 2.193774896638717,0.3610944882338624 l3.712742973725071,0.031592589062009756 2.255500843618019,-0.4297328448062951 l0.9665268532317463,-1.7316812274131932 0.16875561961374497,-3.3180506143045574 " fill="none" stroke="black" stroke-width="1" /></svg>