<?xml version="1.0" encoding="utf-8" ?>
<svg baseProfile="full" height="107.65892333684306" version="1.1" width="105.64952836980711" xmlns="http://www.w3.org/2000/svg" xmlns:ev="http://www.w3.org/2001/xml-events" xmlns:xlink="http://www.w3.org/1999/xlink"><defs /><rect fill="white" height="107.65892333684306" width="105.64952836980711" x="0" y="0" /><path d="M25,25 m0.0,0.0 m5.502953081324367,20.957488361181888 l0.5877678545846864,0.08177152693643115 3.067566894940742,0.03541166306077293 l12.373871659211494,-1.9830227723325273 2.4211562672958085,-0.07594088788107466 m-8.099960962087192,-12.471353468042336 l0.7671311634551995,1.37431941842455 0.20556733064262164,1.9000845373077704 l-0.0066282459595856155,45.5727774395889 -0.3092143263690918,1.4741291325287003 l-0.48956167269310685,0.6950456887292957 -0.6331082331193152,0.09821269734069155 l-1.472893476371367,-1.1049700291302966 -1.7390454324358553,-2.1411111037330244 m-6.9998881714059795,-14.171741994381161 l1.7374694341506354,0.2186744045444034 1.0724906359939632,-0.6196731262006187 l13.62478082202118,-10.920939554636897 m24.10514786591304,-21.79348541279322 l-0.3177782508170961,0.9998743719285832 -0.5410532199090827,0.6346279513173634 l-3.8088430234259443,2.3036235692549645 -5.282865240784177,2.199638665190685 l-6.748162583966236,2.166577823540802 m-2.268586481117742,3.968705407383731 l2.5020666088035335,3.353045839617699 1.6779353872175218,3.759761568364653 m5.422022771857611,-9.52291148518056 l2.298056455129798,3.262662205678654 1.5271200211140226,3.543304947300696 m13.432149085223966,-9.709860445790959 l-0.2878488414794957,1.4676244429443115 -1.5364351349020522,2.592700003675336 l-2.201337504240146,2.8833618220654875 -2.7020543997413573,2.7317084689768354 m-19.517041785098158,7.53689670721273 l1.725038415820264,0.32206781538833024 2.258698599361868,-0.04345115399828535 l16.620100919097062,-2.4348462523616874 2.360389392743104,-0.004662756730930381 m-27.50301822920254,11.17465353598357 l1.2713041631033077,0.2761041212158522 1.8430934982611564,-0.006455509195134373 l27.084819037800465,-2.9401784627406427 2.335960828671654,0.2528741693659523 m-18.06939976020737,-20.873766897941767 l0.641794990371853,0.9949790373429577 0.23539297050543145,1.2032534360986553 l0.016386638141355298,7.675746617844765 m-1.6993966672285987,-10.25789781368904 l0.3868506063724429,1.9334242938793125 -0.017056454607280464,1.2140058476018671 l-2.192878602052945,5.781573583507225 -2.3586402312450097,3.9065975388154595 l-2.4711933937480093,3.1747042871326685 -2.958366039349705,2.9995388228040696 l-3.419511376256037,2.6797717260317446 -3.231337486965774,1.930069671915187 m17.728084583124353,-11.448758489684655 l10.817906019737208,1.8445490264953393 6.881559594601659,2.296837781973039 " fill="none" stroke="black" stroke-width="1" /></svg>