<?xml version="1.0" encoding="utf-8" ?>
<svg baseProfile="full" height="105.90091481197936" version="1.1" width="105.71934016278699" xmlns="http://www.w3.org/2000/svg" xmlns:ev="http://www.w3.org/2001/xml-events" xmlns:xlink="http://www.w3.org/1999/xlink"><defs /><rect fill="white" height="105.90091481197936" width="105.71934016278699" x="0" y="0" /><path d="M25,25 m0.0,0.0 m7.156669678856811,20.047741385517956 l0.2996621626864371,0.11990943999117293 1.675060724315432,0.08826264047923348 l15.115947945709635,-1.764035552589321 1.043509977172724,0.05956585129341711 m-9.017881695998454,-12.468772613006678 l0.9891019944716118,1.287175579714183 0.289758357229643,1.4745671672260376 l-0.18805395193868274,43.456373845494895 -0.17053030875132777,2.2515476183405303 l-0.43987680278465807,1.112989530169217 -0.6202091415538001,0.23558991934871631 l-0.711308698885286,-0.3765853412924901 -1.897706176313025,-2.2274992055610445 m3.714003632051988,-30.280575127128788 l-2.508000177747867,6.0999953413519075 -2.126595748980263,4.299239855103254 l-2.427485125988475,4.068233767022688 -3.629844431595799,5.271279253007157 m13.087313797508466,-14.859490652331761 l2.7202795043013643,2.6498951842537344 2.0198617796694047,3.343507919135642 m13.051648386301284,-26.791419157206686 l-0.011114494593674668,1.3760115546721807 -0.6685102547860531,2.010844058884196 l-2.641089058685373,5.432981069726115 -3.5601874040319452,5.344471767075874 l-4.190606986518231,4.770359896250926 m7.0482066681409465,-6.566924916825264 l1.046508794350633,0.2751480890724634 1.8657468242843718,-0.024322573551943873 l16.19938808678183,-2.9012774315198944 1.1646352429209488,0.08357515843886246 l1.0974695294901178,0.5064398723112663 0.703792817685124,0.9091390635005745 l0.23977471801112654,1.362372475900493 -1.4301007926408562,7.915871206143428 l-2.0521346860434986,8.158047519298579 -2.260277749300974,6.374471166625939 l-2.286405228898883,4.720635176244521 -2.022672051620996,2.6021507506670196 l-1.1912879029995667,0.30774481363571293 -1.219342192212826,-0.4009711906202124 l-2.3085060639587596,-2.1621376524379765 m-5.09856725436675,-19.405068504997363 l1.5631228589795667,1.2863031123632733 1.6750605776451857,1.8654628241259978 l1.4298055846917914,2.031696561829401 0.7838151019858608,1.680943990504839 " fill="none" stroke="black" stroke-width="1" /></svg>