<?xml version="1.0" encoding="utf-8" ?>
<svg baseProfile="full" height="104.71441121712917" version="1.1" width="108.64830376736137" xmlns="http://www.w3.org/2000/svg" xmlns:ev="http://www.w3.org/2001/xml-events" xmlns:xlink="http://www.w3.org/1999/xlink"><defs /><rect fill="white" height="104.71441121712917" width="108.64830376736137" x="0" y="0" /><path d="M25,25 m0.0,0.0 m15.764889743463154,13.157290849078583 l0.5018406364120036,0.3519580672737889 3.291552641523524,3.007299579202332 l2.3290512057178625,2.0653224985677565 m28.438420587627313,-11.257430187435254 l-0.11028855204898119,0.9266103537482647 -0.4733171694785272,1.0813782418199216 l-1.9572387361390866,2.8083410153857273 -2.7030694275280633,2.753597383327676 l-3.2543097645121466,2.4227068749559058 m-33.197980253389936,8.108042019147508 l2.3647629925810896,0.3563206225918628 2.623078757266195,-0.03892057177006418 l32.1471846366868,-3.196563790137582 5.353506963531227,-0.3257708552454643 l4.904996315927623,-0.01774814364930266 m-24.124048172249147,-19.420186788131097 l1.0492529216762343,0.9263764251805919 0.5164427617160291,1.3243154067567857 l-0.18975503969643995,45.82341655559227 -0.2320498620352699,2.4357000030377907 l-0.5919869881270889,1.2115222094582476 -0.8210966852649484,0.21083344837294446 l-0.9366210511125697,-0.5227282145288233 -2.249290466368243,-2.5304416239342147 m3.1637770913273022,-28.01720418811265 l-2.241636520703652,3.257970088917344 -2.8674331365459986,3.4834336078284625 l-7.136569525227553,7.00640586447544 -7.133455550536727,7.882421035461594 l-3.6252824136841078,3.5706621206283464 -2.6251379150037795,2.0748436331521316 m27.910067655324333,-24.83965344664985 l20.303733114581817,20.100713067453814 2.138348649921375,1.6648480920135411 l2.317964321729749,0.9213603869784911 " fill="none" stroke="black" stroke-width="1" /></svg>