<?xml version="1.0" encoding="utf-8" ?>
<svg baseProfile="full" height="104.87379115482996" version="1.1" width="111.61048075553842" xmlns="http://www.w3.org/2000/svg" xmlns:ev="http://www.w3.org/2001/xml-events" xmlns:xlink="http://www.w3.org/1999/xlink"><defs /><rect fill="white" height="104.87379115482996" width="111.61048075553842" x="0" y="0" /><path d="M25,25 m0.0,0.0 m33.29282206539029,5.146930888656357 l0.01889158617436669,0.4135371488465903 -0.1050126458715717,1.6283447529642352 l-1.6242690429287183,2.7638284722042306 -2.57078074410827,3.397791083086996 l-3.380816086527761,3.755839268671518 -3.2641200642943495,2.9536392961905253 l-3.792913238937771,2.8684799761726367 -4.3392683669397085,2.7361972896182873 l-3.7194481091874967,1.9993781291087855 m23.93008119063594,-19.501688712546454 l8.279067203595,6.00361633216195 13.048447976071712,8.496780411604485 l2.4697191972347143,1.4058006222173791 3.3680798352320327,0.836694746047403 m-28.317105440871924,-8.624272407272478 l2.0476064783174976,1.6594713252632316 1.6304192227997454,1.9722035260363524 m-10.42136086666684,3.0967565983783323 l16.333184367522968,-1.4036931108043298 1.2154767023095276,0.3650217054337077 l0.3774978972600729,0.6592417958456174 -1.6466388186859253,14.31661080927682 m-15.89848064046055,-7.2898471705171985 l10.888746588937927,-0.8105243562938109 m-10.830391424523121,7.841202614576204 l15.44679300842437,-1.1234556286207904 m-17.461847501546547,-13.239489378640485 l0.8675293579897164,0.830378428481832 0.50066131951845,1.4659627993281887 l0.19160594753560564,21.194352093031448 -0.15882555214709287,8.22895633057437 l0.21360856958980318,0.59646723376512 1.5439575279706543,-0.3343072469717541 l7.624394609785048,-5.039249692413986 m11.606639863209875,-12.61366694991999 l0.25890077195505784,1.4398153313120465 -0.29446367604163665,0.5765104655530106 l-4.4746764263894345,3.817692600762922 m-9.159333827294333,-1.830612094703401 l4.205363512796367,2.173041793385367 5.435072952779746,3.6503362037772225 l6.159816433469692,4.778846118023824 3.8600876013561205,3.6148717131776262 " fill="none" stroke="black" stroke-width="1" /></svg>