<?xml version="1.0" encoding="utf-8" ?>
<svg baseProfile="full" height="98.88579459356116" version="1.1" width="98.4544042653883" xmlns="http://www.w3.org/2000/svg" xmlns:ev="http://www.w3.org/2001/xml-events" xmlns:xlink="http://www.w3.org/1999/xlink"><defs /><rect fill="white" height="98.88579459356116" width="98.4544042653883" x="0" y="0" /><path d="M25,25 m0.0,0.0 m20.336853343043675,4.41826971421133 l0.05917084477806561,0.4435745949554072 -0.2970364043387898,0.8551567490223722 l-1.4369847111583796,1.7100056160275374 -4.076044851818938,3.9440098266985855 l-4.371100983528054,3.1354281225292815 -4.952441602950743,2.8017837600613853 m0.976377979077405,-11.207333604761178 l4.157466117993828,1.1630355762410605 4.697860659831468,2.035684778051627 l3.9387473331582417,2.378150249711297 3.160878925323971,2.7105229424886113 m-18.455838709010052,9.02436176429858 l1.5956591191778573,0.16629917191910498 1.6259113405644094,-0.1010604783683806 l14.355456826835757,-2.0193584669089946 1.8732295440811486,0.016386343272782617 m-8.438417721241796,-5.490858961654076 l0.8743502092943709,0.9110625868023884 0.2357639517175565,1.4545504784372194 l-0.07818113866262008,30.536123830525224 m-0.5071024072142455,-25.194731536893062 l-0.10436884194193546,0.9046242019021833 -0.5906719502294897,1.1669303250789582 l-7.569614330488547,4.90183969629061 -5.221150316284235,2.316143946861903 m17.994284929229583,-7.570507935276616 l3.6313153160064924,1.852586820635369 3.6372000112864256,2.877868031110095 m9.202039324959413,-23.35653123728501 l0.6986254389360744,0.8586033379220445 0.24656582133712915,0.9463088600027922 l0.03616653812635712,20.28682865890015 m10.255574377369067,-23.548439549370208 l0.7149242899548375,0.8280965626695298 0.24893599217299314,1.227377137719166 l-0.07824758392226454,31.422118699801057 -0.3485212411831286,0.7103930715276587 l-0.5399316980020216,0.2420888598763976 -0.7009405971113719,-0.11797788649948633 l-1.5785296229053347,-0.8630780290513044 -1.7963896264133985,-1.4249009753412363 " fill="none" stroke="black" stroke-width="1" /></svg>