<?xml version="1.0" encoding="utf-8" ?>
<svg baseProfile="full" height="104.55682310173738" version="1.1" width="103.60953834970812" xmlns="http://www.w3.org/2000/svg" xmlns:ev="http://www.w3.org/2001/xml-events" xmlns:xlink="http://www.w3.org/1999/xlink"><defs /><rect fill="white" height="104.55682310173738" width="103.60953834970812" x="0" y="0" /><path d="M25,25 m0.0,0.0 m12.251229140091246,3.94543305550458 l0.41297682522629003,0.37850258926300856 0.67751063157384,1.5121806887687121 l2.445161133700731,14.227933852083844 m-2.161252901287755,-16.005040999533446 l23.450864601120696,-2.416928246224721 2.2179233057614822,-0.13741823295236796 l1.4033758777818777,0.34676043935366174 0.8132241336539894,0.8708267407921719 l0.11967859465411149,1.458961327114147 -3.478830034613968,13.414119083382092 m-23.31954522854347,-6.404307498061789 l24.504680219380703,-1.3806518290167449 m-23.12957273721623,8.44339743751372 l21.58045737846616,-1.503453857099718 m-34.68378927733568,8.13013482117225 l5.269360968106409,0.2937666576630814 20.17482807321461,-1.7964527438444344 l13.025018850145129,-0.8879547745909145 7.4403882000423165,-0.14735375899414901 l4.59585059578563,0.2854612537295391 m-40.554422846636754,3.4956437749695293 l0.5079073103493223,0.9245680212440663 0.14431126877861156,1.003925497581583 l-0.08445936196227956,20.081150547581842 m0.840240292051432,-16.417887641188944 l9.752722674755724,-1.2570242165127181 m-10.264862165092614,8.727482769998094 l10.38674111619228,-1.340141472543646 m-17.006814306080642,13.628181510364419 l0.9293493986211985,0.32148247616222353 0.8745980614585355,-0.2049513778337495 l15.56694754768485,-7.874186630512308 m-1.0187816239012109,-20.035972598767565 l0.5889789822425583,1.017486103485542 0.18898542206493554,1.0401691871206311 l0.08406633845072378,28.818981144565853 m7.158773731559869,-24.418287949428066 l2.74119337358755,-0.007879294736777669 9.69520332159437,-1.9754246922930023 l1.1387349727670928,0.412436326714912 0.312819455784437,0.5355700232916247 l-0.3561611397652446,1.5336016785322095 -2.040686324629376,4.129626816216995 l-3.862571175050023,6.221163078685257 -4.5052279687662375,5.567072167197871 l-5.07609685554113,4.426862464117206 m0.5163361020323025,-16.50701435031773 l1.8953146625628787,0.6537400850235481 2.2204087343677466,1.6647622931347876 l9.784187747386556,9.658843154936847 3.6539115288668524,3.355420472720877 l3.2434273452811566,2.4232239969105094 1.8671866463437181,0.8356646602307463 " fill="none" stroke="black" stroke-width="1" /></svg>