<?xml version="1.0" encoding="utf-8" ?>
<svg baseProfile="full" height="108.30488401873563" version="1.1" width="104.22813273350204" xmlns="http://www.w3.org/2000/svg" xmlns:ev="http://www.w3.org/2001/xml-events" xmlns:xlink="http://www.w3.org/1999/xlink"><defs /><rect fill="white" height="108.30488401873563" width="104.22813273350204" x="0" y="0" /><path d="M25,25 m0.0,0.0 m7.469540533943381,20.6335692226252 l0.3235725625650983,0.1050849071570716 1.978755578740369,0.05778092254689787 l14.302006489788225,-2.211280274926437 1.704758606181816,-0.006245036537966008 m-9.34101315707634,-12.515628860844176 l1.147125139381187,1.2309743192464775 0.7835952155715527,1.8318325972229845 l-0.1889480402263797,45.1774048119399 -0.1823414124139066,2.4188206595535724 l-0.4546382239775908,1.2495609901994476 -0.6417156681303641,0.33300976055264553 l-0.7389201488789816,-0.30202507410385226 -0.7344037632740664,-0.6986711422380073 m2.90775962682977,-35.215737689618095 l-2.4274632676335046,6.089325637179656 -2.1003355881907617,4.419482831854015 l-2.414923017242804,4.2095089672597314 -3.608339609304787,5.4702245405241285 m11.927059143412466,-16.67871231266642 l2.499664204013658,2.8422340287995276 2.824935868869463,4.749700418252234 m2.5846843321467503,-27.0480633594505 l2.1541685442735923,0.24190388203318527 19.65602933323521,-2.247873255129009 l3.3575919575105866,-0.21919752505730547 1.4399274933883834,0.2650959626358301 m-13.377123821135791,2.985749709829643 l0.1686820487801278,2.3313323718219907 -0.5422247218341087,3.3548695551657994 l-1.2122034048152368,4.427792601036087 -1.81650195673008,5.185276500275869 m-5.293510393946193,1.1113405837636092 l0.5480078715952205,1.6616403913459288 0.34847973694238654,4.650337391675352 l0.5442628324699621,27.097728049621164 m-0.6791612466464317,-32.999187029490116 l17.879148179841227,-2.6142960371411483 0.7535790936755308,0.058340150794297836 l1.0846890457385923,0.8381176583907873 0.27475909446021685,1.1218342283592815 l-1.048072934350498,33.42985911065494 m-18.166564459190006,-18.69173802356641 l12.18534243128561,-1.1291759924366178 m-11.851611861216977,19.019132256162308 l10.751427940466748,-1.0480428337902186 6.875083532735116,-0.3116150808974216 " fill="none" stroke="black" stroke-width="1" /></svg>