<?xml version="1.0" encoding="utf-8" ?>
<svg baseProfile="full" height="94.85484302651271" version="1.1" width="95.62728009398572" xmlns="http://www.w3.org/2000/svg" xmlns:ev="http://www.w3.org/2001/xml-events" xmlns:xlink="http://www.w3.org/1999/xlink"><defs /><rect fill="white" height="94.85484302651271" width="95.62728009398572" x="0" y="0" /><path d="M25,25 m0.0,0.0 m29.581116083030913,5.959723582256314 l0.10845573964574674,0.3758068070899068 0.12436297858176434,1.587021701585671 l-0.8591573808938242,3.013651475672155 -1.3726466280534984,2.9495475713935884 l-1.6554142518057853,2.6968357011142285 -0.17235602512880296,0.5877677543932778 l0.3362986971920663,-1.3136999164152756 6.804710403904719,-1.6205521604424085 m-1.6642043367234285,-3.9048113712327 l1.0317345186724836,1.1575690536986771 1.1235724762660881,1.83140435960932 l0.8395787906837052,1.7806756055894983 0.3775111792834278,1.3619472789296967 m-9.858132185164713,3.1291723540069403 l0.3578636868413307,0.8231335008757368 0.09320213867696778,0.8351077131631854 l-0.02576941821390291,16.167724173929514 m0.29177186303567626,-17.372740542767794 l6.264171563967624,-1.251867608490739 0.44744400156489456,0.06778204871769272 l0.45214541575891515,0.5481260204964763 0.09847314635578366,17.732910829559575 l-0.10239624037499565,1.5533981168255453 -0.2710315050068442,0.6330329593211078 l-0.38510216818157433,-0.027090014011692656 -1.0468255067010859,-1.204478527605786 m-5.136834636732642,-11.796646468042148 l6.97028063914711,-1.1244632932677354 m-7.163690378908671,6.24562621905589 l7.142452679170954,-1.0750661085433368 m4.066282273619056,-20.78327917707868 l1.0301962956244515,0.17129937763853936 6.443998197756394,-1.3445066138353061 l0.7430936308718507,-0.02462945205248915 0.4225418107777779,0.255331260216436 l0.18958254544576003,0.46756800714675584 -0.055261103665066424,0.5745952397943324 l-0.23175661937836378,5.196109273965925 -0.24626143148686572,3.838874458818572 l-0.35039422085881355,3.3624948361696694 -0.45683258763959134,2.8406460668022047 l-0.5529335439014729,0.9884505109749558 -0.37249776084102404,0.018847305975159816 l-0.37163290763374085,-0.3023042297031083 -0.7202127857645497,-1.3254460607964103 m-4.805111710437314,-10.117953600439266 l0.3279335230741479,0.6519152770352439 0.1500160245299035,0.7963416599843335 l-0.0011043227426358584,24.438055158594416 m0.32042398644458125,-19.117090458869797 l-1.1013753616114397,4.780293729197238 -1.7231132276335486,4.618236911244698 l-1.732897127033403,3.769127186674818 m-13.696189693246286,10.51591994506422 l1.129037997584544,0.23939759752585957 1.1482001045647228,-0.07245789037608619 l17.11261718271424,-1.9907021734669066 1.5756807064904448,0.28259673517046435 " fill="none" stroke="black" stroke-width="1" /></svg>