<?xml version="1.0" encoding="utf-8" ?>
<svg baseProfile="full" height="114.4975157943381" version="1.1" width="93.29559119262865" xmlns="http://www.w3.org/2000/svg" xmlns:ev="http://www.w3.org/2001/xml-events" xmlns:xlink="http://www.w3.org/1999/xlink"><defs /><rect fill="white" height="114.4975157943381" width="93.29559119262865" x="0" y="0" /><path d="M25,25 m0.0,0.0 m3.1939657523506857,20.86244038921624 l0.5589223913579212,0.15210964877024274 2.8521461453122603,-0.0519688539342344 l13.097798619029685,-2.469535124746479 1.6869587941312232,0.01368616082439488 m-8.089252694653906,-15.764884290062989 l0.5670349415321709,1.4310343028500998 0.17630600459399576,2.2236895238764522 l-0.0027436575845094704,55.56982483665682 m-0.5280945328954099,-40.425313440866795 l-0.7241643744996268,1.9300833890276314 -1.1132167646801192,4.190213692003322 l-1.966543372741305,6.458346375206735 -2.047707194846096,6.0020345203175784 l-3.382629455131059,8.732368037471932 m10.72172760900108,-20.062029669406378 l2.523017979440574,3.711303521165149 2.2699662233878617,4.515669856483948 m8.89438672136696,-30.676379156881293 l-0.21824661615201238,1.9123362488617937 -2.3924396040631852,6.878359709397121 l-2.2480677480339937,5.0296061904694565 -2.5516137174226006,4.515355887329906 m6.013946818210932,-21.930851078923883 l1.1593102621254512,0.40317903614057904 1.3271456957779084,1.4908773429376898 l11.325912175173581,13.283974057984624 2.19176479254019,1.2137046119869037 m-20.902855430507053,4.033419433108085 l1.5583861946938133,0.3107864056589607 1.0918732576645926,-0.03999381903085249 l10.490954808245947,-2.8478460880810212 1.0515497632925033,0.28948865210994884 l0.5428553338290675,1.852396091242952 -0.2838219095206341,1.1113846359434605 l-1.8254825219135578,7.038673724661943 m-12.600144016097005,2.6391423812706125 l13.453904574814656,-2.0714988491608737 1.2828938311336968,0.011621085802528991 l1.3429896150543257,0.3156717461518789 0.4961162078576156,1.0311397906743032 l-0.0371628735849051,0.937499995617996 -0.2782513337459171,3.5804552625386767 l-1.0758751058066356,6.4360199028290985 -1.301905975818855,5.199765914744219 l-0.888210002259074,3.205650718496476 -0.9529393798117288,2.2315867164875947 l-0.8723644445401681,0.4202870698271784 -0.9881207290135648,-0.740483136729439 l-1.1045913754652545,-1.5988782074702315 m-5.194762880000523,-17.089224993427237 l0.45741428610589585,1.2209389694219377 0.13243626206937853,1.4916551930584245 l-0.07605100868154044,26.388621474434892 " fill="none" stroke="black" stroke-width="1" /></svg>