<?xml version="1.0" encoding="utf-8" ?>
<svg baseProfile="full" height="105.3481227396068" version="1.1" width="112.62301557949081" xmlns="http://www.w3.org/2000/svg" xmlns:ev="http://www.w3.org/2001/xml-events" xmlns:xlink="http://www.w3.org/1999/xlink"><defs /><rect fill="white" height="105.3481227396068" width="112.62301557949081" x="0" y="0" /><path d="M25,25 m0.0,0.0 m7.110182953024196,21.711611428561145 l0.6295103548524946,0.07874109619158565 2.925507229456009,0.0412653637110733 l12.034851132233285,-1.7455051216945416 2.276225215524279,-0.08571320038478149 m-7.829882297897927,-11.666789712412841 l0.8261257187657313,1.2550037542722203 0.19158452756147804,1.7132481901635266 l-0.15934429217276133,41.58747369531804 -0.41396935769350174,1.646735155029872 l-0.5950113274876595,0.7414621412776321 -0.7129508561168164,0.07058994957387005 l-1.555342151411933,-1.0495734709636477 -1.7973597138529713,-2.0099532882497564 m-6.319547665680238,-12.910264690161831 l0.9801382014906721,0.3680831113813799 1.2442453586388063,-0.3490344828016938 l13.06155439655075,-8.50063982769474 m6.750955188154093,-20.666722419909043 l2.976667456897161,0.22452955068912483 19.43673338914342,-1.9524493926308641 l2.0879662915382666,0.3068153630338132 0.5162397225092639,0.8437898864386802 l-0.06980504864843234,8.67317904543942 -0.339519689724056,6.177203376674681 m-20.584181780751745,-7.314114032124151 l19.624259781595647,-1.9588476937010675 m-19.922671851447006,8.985230179544487 l19.52955386616015,-1.8541387469110093 m-20.62213756166303,-12.673233811173192 l0.6831706072031686,0.8318371960457608 0.23806789724939,1.0255724383391047 l0.013531068680891328,35.652555535982394 0.255790864887734,0.7654543309391434 l0.4433020177813733,0.2106080524416259 0.6907843375430279,-0.13363020709598142 l9.944674065629894,-6.0142410969703874 m-8.257466726346806,-17.631497048292424 l2.6033786847129834,-2.237045235201619 10.291605724037362,-2.1824943047960423 l0.7021883438117917,0.05173987237047857 0.5111919817893056,0.4116566966447488 l0.24288007536148543,0.6189488012188153 -1.6249110663750739,16.08990668418316 l-0.39064217502998694,2.3768999934080677 -0.6951875487608963,2.7035984759958795 l-0.7921103507947105,1.12212462943589 -0.6459382246297255,0.3458206677148718 l-0.6744265347190931,-0.04829255148962326 -0.667176065115335,-0.3804535396716016 l-1.5244515424070073,-1.4930000562949453 m-12.486187078410202,-14.242281396227035 l1.9938580462216353,0.6757732922593093 2.1958531028370474,1.4300926982992193 l1.7141768601971907,1.4590594058589785 0.7455524405606365,0.9293025454399212 m-8.506126410312609,11.212402408319955 l2.454358318171257,0.22219338845450312 8.825573766020186,-1.807014811017057 l4.556887725441355,-0.708597423507436 m4.031929212253527,-11.789406463507772 l2.7846321469933892,0.2272125654030275 9.819998161029151,-1.2686454369144597 l1.354856849973511,0.24324850695262598 0.4348411942296314,0.46661940113536504 l0.07397862022772766,1.7894619721103149 -0.2161526480496001,18.632742452717363 l-0.283031182849062,1.3856939532491035 -0.5763495907816057,0.6765603648396464 l-0.7577331986648768,0.12441563018649586 -0.8427266392311624,-0.24638987609632043 l-1.9866224559358905,-1.4812050412328472 m-8.44363772321556,-17.966246025139657 l2.9138578471046963,1.8048013517076318 1.912020673468541,1.9553372375704807 m-6.893945946134144,8.185507019393476 l1.2954532523098845,0.1359691345508065 1.1929307610859652,-0.3369947156125722 l6.302528553873131,-4.033617902067677 " fill="none" stroke="black" stroke-width="1" /></svg>