<?xml version="1.0" encoding="utf-8" ?>
<svg baseProfile="full" height="115.57436664287935" version="1.1" width="102.82880915577587" xmlns="http://www.w3.org/2000/svg" xmlns:ev="http://www.w3.org/2001/xml-events" xmlns:xlink="http://www.w3.org/1999/xlink"><defs /><rect fill="white" height="115.57436664287935" width="102.82880915577587" x="0" y="0" /><path d="M25,25 m0.0,0.0 m29.868179526960994,14.72263800931629 l0.36531548082008897,0.3076587323973438 0.4463327052574341,1.4899969133679585 l-0.034770329397612,10.043167385090781 m0.8218394572489479,-5.503085276263851 l10.045699788524361,-1.1070448851350538 2.338703590660192,-0.09755466700279271 m-28.192828043873227,-0.33945622310133194 l0.6283831479197555,0.5805574229495508 0.4136934928909927,1.2068172943621691 l0.16391024527386416,6.3073904074070875 m-8.122996889081525,0.3455242735289608 l2.0052696652100246,0.323518151451757 2.8564574150586854,-0.07200506263609603 l32.236464429684254,-2.730454330882598 3.464469154971406,-0.029578676887978623 l3.5246863176472396,0.3394988918065012 m-21.460289007708766,3.084224167795796 l0.5718736921925219,0.791468828575549 0.16788178250180893,0.8560633447579019 l-0.11442034197240936,11.143517686201996 -0.2850776330983167,0.6356701353839531 l-0.41256370719681307,0.29348702607035465 -0.5418384437190854,0.031030043733873094 l-1.357247042414577,-0.6576493445607273 -1.8057211776053261,-1.208412245263899 m-6.636060927018488,-7.368640289391447 l-0.0881285953216913,0.8170573028647679 -0.40431449179720674,0.5662308831653571 l-2.096148358996171,2.2069571507308425 -3.255085464966342,2.6412030439411986 l-3.6884287719641082,2.3695412740891553 m31.638053884141446,-10.738249876407474 l2.5040882482250386,0.9632065993339695 2.6940428767020967,1.4587361511711587 l2.1290569380372344,1.5702871338894797 1.3270218611204012,1.3751121688116703 m-8.498559718175777,-0.8680606855276418 l-0.04738649292512218,0.8341892703708323 -0.39791403577378853,0.9546205964024314 l-2.4931766958876977,2.67011927841218 -3.8657436724007286,3.1445932083403862 l-3.9092572315399154,5.253153624010199 -3.517330562533041,8.364619941423202 l-5.059478935859683,6.195967665863369 -3.001571879166566,2.4067341989222246 " fill="none" stroke="black" stroke-width="1" /></svg>