<?xml version="1.0" encoding="utf-8" ?>
<svg baseProfile="full" height="105.76615153278382" version="1.1" width="99.03727535589863" xmlns="http://www.w3.org/2000/svg" xmlns:ev="http://www.w3.org/2001/xml-events" xmlns:xlink="http://www.w3.org/1999/xlink"><defs /><rect fill="white" height="105.76615153278382" width="99.03727535589863" x="0" y="0" /><path d="M25,25 m0.0,0.0 m2.045018559992973,21.35710746032295 l0.3568257945528409,0.09453469053356228 1.6296243346326589,0.04865726141888412 l14.717292522997996,-1.5550686397695979 m-7.702544453209162,-12.700180414350113 l0.9668325428482769,0.9276840937315153 0.5494068918456988,1.837790997212203 l-0.18473306797075895,42.158229504157006 -0.16461201045004345,2.3306779869220153 l-0.4450182496573273,1.1042129202280648 -0.6531548059763607,0.1625056723773365 l-0.7300032052954689,-0.5105427096715487 -1.856334329549781,-2.403498999778336 m3.6537278451987967,-30.52585084479828 l-2.350515017979675,5.730062469647078 -2.0514551639445013,4.295914232983495 l-2.331290679930586,4.078585496921054 -3.5423759474817866,5.320784044228841 m12.335530625748877,-15.118457120988644 l2.0342631790157273,2.1461357827580354 2.9228375343814785,4.371590301996876 m3.502796019978626,-27.868493902210158 l1.3510216700478852,0.23186986113724029 1.5779796027993402,-0.04143838451340845 l19.708232431246202,-2.070094838761974 0.07932052709561178,0.4105629196092146 l-0.26078841759252624,0.7099194706763384 -9.729057244614188,7.472846582305374 m-5.563282330895203,-2.8744898349512487 l3.1213383655956477,1.5722542419588297 1.9538449289039068,1.6023220841890389 l1.1527201582565596,1.160281249440729 m-14.541147281343127,2.6647914067817733 l1.4975806739298225,0.3348524392534936 2.062302943401705,-0.03485788962281013 l22.881281025606636,-2.5590288216246853 1.0438093837118783,0.4128705640265649 l-0.005286397874843876,0.49267998613669384 -0.7371932018036034,1.3209917082212574 l-2.12360401384579,2.2436970315628484 m-9.77518026766521,-3.0278122937292222 l0.04444697301150658,0.7936283032342781 -0.31711130443584595,1.2094366459004569 l-1.3990959377640448,2.2117218290541016 -2.6204440780221865,2.859944580134701 l-4.334381937978693,3.695011935286442 -5.7026816831790725,3.4296096422862963 l-6.557369055161184,3.234002331080783 m10.289001161721957,-14.293239387638232 l6.823478082514411,4.692938979149736 8.71514162706532,5.72261295506884 l4.309335962584919,2.4993499279297 2.6091872587041225,0.827527224655201 m-25.492509802283283,-0.8581202862125572 l0.7627522980371831,1.8171396621807872 -0.20507781363666422,18.63417337741272 m0.346176268512444,-19.51647849756557 l16.417020189322454,-1.6937967554956548 0.8382498476749807,0.06993291812264928 l0.47140311790009914,0.43323707191100247 0.28166040523149266,1.1036160678915024 l-0.3572066578453172,19.101405514226133 m-17.77486450676443,-12.712424510344023 l11.451874882753367,-1.472380476791108 m-11.512719698450697,7.829834642747608 l11.325968428724792,-1.1720117768555116 m-11.255306931889676,7.973263457577515 l17.55962894051482,-1.259301206398065 " fill="none" stroke="black" stroke-width="1" /></svg>