<?xml version="1.0" encoding="utf-8" ?>
<svg baseProfile="full" height="95.14033132114352" version="1.1" width="102.2133076757907" xmlns="http://www.w3.org/2000/svg" xmlns:ev="http://www.w3.org/2001/xml-events" xmlns:xlink="http://www.w3.org/1999/xlink"><defs /><rect fill="white" height="95.14033132114352" width="102.2133076757907" x="0" y="0" /><path d="M25,25 m0.0,0.0 m11.63331014068159,18.5668453628924 l0.4439356446443288,0.33233100533466514 0.5372248961133506,0.7851536316524751 l0.20575773977363349,1.0221766616436283 1.6245352056049374,23.72831935274717 m-1.1347638735138728,-23.649704600359026 l25.71561059537333,-2.1920045472460803 11.416197683002416,0.0213130567409082 l1.7714996441109854,1.3024479117542602 -0.2540065194700431,1.3592784455149733 l-2.1904165364961914,22.96400970878299 m-24.869348508870893,-29.866482965245215 l0.7291037377640976,0.7083063284613437 0.23961129331177197,0.8067977808357958 l1.3811638933700159,27.827475594429714 m12.693437074791133,-31.789526908591863 l0.5146908355578746,0.7857425684773961 0.13918804230303053,0.9424016446763243 l-2.6343923470608215,29.48859651948961 m-22.593603035634906,-9.591789329315107 l10.030124188558357,-1.508957784527796 14.85383812002744,-1.1936760063004375 m-22.416406019568402,14.291277889295385 l16.934136984756336,-1.5072277644707213 12.80592884090745,-0.5717440462453011 " fill="none" stroke="black" stroke-width="1" /></svg>