<?xml version="1.0" encoding="utf-8" ?>
<svg baseProfile="full" height="101.84779764835189" version="1.1" width="106.6124998200453" xmlns="http://www.w3.org/2000/svg" xmlns:ev="http://www.w3.org/2001/xml-events" xmlns:xlink="http://www.w3.org/1999/xlink"><defs /><rect fill="white" height="101.84779764835189" width="106.6124998200453" x="0" y="0" /><path d="M25,25 m0.0,0.0 m14.522512248791434,3.2401397696995153 l0.45422875304114474,0.4158125480674866 0.8480814915305077,2.8958363141146846 l0.7847902908142231,7.0824117833210485 m-0.6872007255626418,-10.217796051445076 l10.062700613010827,-1.601398169311962 2.534099365465591,-0.18943459944958885 l0.5231659896007413,0.2304054121706545 0.25789694762673654,0.49524269663851356 l-0.03915869861548468,0.6952937520475457 -1.8849484261462013,7.82054982188568 m-10.15971671168547,1.6253496059952435 l11.144806844549008,-1.2185063107754868 m6.669896780975876,-9.487190490603606 l0.7163452113939464,1.8749112959051677 1.5993542464147077,9.353656706033757 m-1.5804821254417645,-10.615236728982294 l12.303827873787538,-1.953232089030176 1.3163467578179424,0.005894031603245571 l0.6742665435847454,0.41832648724554505 0.23349245805162372,0.6555488208948719 l-0.06704229524671634,0.7770031415051855 -2.0413607070976294,7.423139485735284 m-10.318978248036453,1.7395096143582391 l11.296973749544419,-1.1672859856650937 m-36.20923371801165,12.765495562720993 l3.056764390098956,0.19383163609018045 29.09107270370964,-2.561477178257551 l4.424315402845297,0.2031544582111105 m-19.317847903496546,-8.001289283035774 l0.31467381381729026,1.571654842530234 -1.609114458062539,3.9651635698600085 l-2.3818310127556552,4.406693348599995 -3.5064464263630573,4.734989182691358 l-3.040829533947537,3.248246289219299 -3.649027550532274,3.1145646847320094 l-4.255612832956787,3.303962837181461 -5.281424735048173,3.4564998754708265 m24.994755202306624,-19.039500048394462 l17.22374624411962,12.485328858323644 4.509114919924568,2.6769201669957154 l1.941744313481239,0.84494252618702 1.1437827727476555,0.2334501832185328 m-43.68759431088256,2.5920495584175 l0.759211224203696,1.0175989472444564 0.4551202143765594,1.4452749622263954 l1.564797451971051,8.891291806160563 m-1.414877912304682,-10.420111487370553 l9.849613718077261,-1.401955225408172 2.7136870405419478,0.002726159062626599 l0.42465866019965415,0.373652282817598 0.11770195668391666,0.6398605250684053 l-1.7005817661633331,7.530512073997447 m-9.456201121756354,1.679747199161361 l10.162841765612537,-1.0539524046113424 m6.228086947741882,-9.88106549916094 l0.692378443895836,0.7253607074730323 0.6215060023816911,1.913117902714926 l1.6110946971942497,9.101505616946422 m-1.6579516716177845,-11.075239715838054 l9.920291930628222,-1.3184056404533055 2.5018928811047147,0.026362104626980142 l0.4848169224246622,0.33772782233261084 0.20101129590218475,0.9820828054116348 l-1.5860028149394272,7.7649489577951565 m-9.498948281613968,1.957081090317383 l10.785744928825153,-1.1019322627894697 " fill="none" stroke="black" stroke-width="1" /></svg>