<?xml version="1.0" encoding="utf-8" ?>
<svg baseProfile="full" height="117.02566156432914" version="1.1" width="110.7435540681273" xmlns="http://www.w3.org/2000/svg" xmlns:ev="http://www.w3.org/2001/xml-events" xmlns:xlink="http://www.w3.org/1999/xlink"><defs /><rect fill="white" height="117.02566156432914" width="110.7435540681273" x="0" y="0" /><path d="M25,25 m0.0,0.0 m12.42994111193035,21.033127696113887 l0.3723201967522886,0.3665317449104159 0.4406221248378879,0.8688943056982585 l0.27394417087895234,1.147011164339425 1.793457376728851,11.079312679161214 m-1.5636722553585103,-12.776072135815944 l16.208577818391166,-2.225722314293409 2.1998972181845824,-0.09859018025038199 l1.0399061072660285,0.45624391961402294 0.33518381091004223,1.0263091613297528 l-2.233186928137238,9.666772491584425 -1.006776269629156,2.290708860575611 m-8.551845450823699,1.4729621373640844 l11.264718582899853,-1.1377313838770151 m-7.518145097848641,1.8023475614099784 l0.5109106915731392,0.7250023549247145 0.25353976356890945,0.9841054032234972 l0.0552907905844535,20.71372172889693 m0.531357386544993,-12.838966634923265 l6.5154548579950005,-0.866319124366475 3.3275616964227104,-0.03062409588151769 m-18.513781840395957,0.5619789888269792 l0.7332010688276452,0.8756433762449517 0.33324147292683265,1.160993279392046 l0.795150624921368,14.816153418593267 m-4.466596980343898,1.2108892271359994 l1.456922422795109,0.48756186002105034 1.2321460603676706,-0.3487344775148149 l15.991879428536238,-7.90199133922626 m15.990329358640661,-34.398234513782846 l-0.16464119012996106,1.069500497886822 -0.42269969922642037,0.9606239532677627 l-3.1091398058680406,3.3302384492725454 -4.063659684812652,3.1722510993292397 l-4.667997949737141,2.610958679039325 m0.13148938013539072,-3.7307499717405723 l0.8461434334228963,1.8067169047399012 -0.004557471028937676,9.504875627187426 l-0.4575891681255418,6.27418301103383 -0.6614818106168631,4.292771645196489 l-0.9778566815835894,3.686930533744175 -1.209303275616848,2.8465754515639055 l-1.606765260423328,2.6806512168754963 -2.0272966595802746,2.4468955044555685 m7.962830548676122,-23.535043895681657 l2.205585520653938,-0.10380043537374632 16.41599551057375,-2.7332613187549373 l2.322949011467128,0.0549972264165041 m-10.788676491367735,3.5377348009480714 l0.7199427947656524,1.0577795595854742 0.19076287672340847,1.127771697047089 l-0.013478301934740203,26.54377616886186 " fill="none" stroke="black" stroke-width="1" /></svg>