<?xml version="1.0" encoding="utf-8" ?>
<svg baseProfile="full" height="96.49307302495848" version="1.1" width="95.86158373509807" xmlns="http://www.w3.org/2000/svg" xmlns:ev="http://www.w3.org/2001/xml-events" xmlns:xlink="http://www.w3.org/1999/xlink"><defs /><rect fill="white" height="96.49307302495848" width="95.86158373509807" x="0" y="0" /><path d="M25,25 m0.0,0.0 m24.18311763257251,4.489997692854816 l0.06461666859283915,0.3931365241539103 -0.22637664960726264,0.8490202752976768 l-0.7412114452320857,1.4244730104823744 -2.1641021755799508,2.967324093686962 m-2.793652246798744,0.5941094335808252 l0.4991493731474484,1.175861985329092 0.7655766542800327,11.494426344700287 m-0.916828317911986,-12.346836851251037 l9.669454842299995,-1.0932579226381633 0.5217991831829464,0.07627467860324529 l0.3597268127790583,0.3357325578232449 -0.8351881744666109,12.6076606650022 m-8.997663969461541,-6.283406081644684 l5.6745781919518965,-0.6454436131326972 m-5.295996676756137,6.547942882185762 l8.450122415180275,-0.5386701517879373 m-17.216023146736052,-14.163238664293926 l0.14503840365942006,0.8117819550747372 -0.17757047715592023,0.5463639840204306 l-4.156819832458442,4.238443391703117 0.024689729974696508,1.4894904185091762 l4.114325288302969,1.8933031138027563 2.7391197646786556,1.3481832697420733 m4.0270582846858805,-5.390873180553863 l0.040120582783121445,1.1104267159116492 -0.671137564450548,1.0646307411939298 l-3.323595401144781,4.025364102879937 -5.060616106683084,5.373180124778447 l-0.2438702200309719,0.6416325625421015 0.45139984867819477,0.19173047390988066 l9.226763238698316,-2.421675060151996 m-1.574237486530611,-2.4478035334694526 l1.6651800263521772,2.6396423830776516 0.9541475884547174,2.5405878410908636 m20.23294704401004,-18.449650061133262 l0.16219919423579726,0.8791471420864796 -0.16715620098269424,0.46528729647423955 l-2.2205412804360933,3.3092803399049386 -2.470038203185599,3.280139083480596 l0.2927237011549298,0.43152601366749865 2.8573018280109523,1.0234525613103629 l1.475353854113697,0.8682519634930846 m3.9376685756568244,-5.098781906961373 l0.007978396287748091,1.0658712584351342 -8.570376806827666,9.330814980674852 l-0.29616029349801465,0.810323800007243 0.4809212404600735,0.12308328889868048 l7.829223556811092,-1.9892017782849452 m-1.490099982424783,-1.8940649709471757 l0.9448141961737251,0.8135832639020132 1.3169447132070706,1.5741737953335007 l1.2604524132924757,2.29475766576255 m-36.861520775947845,6.694572444029939 l2.934586615902134,0.2462465699419939 25.650301935206866,-1.9713815110272588 l7.774566510924819,-0.4931581632361268 1.5983988637021043,0.021508886568011042 m-20.28080708554209,-3.6574761015463184 l0.6630178501635775,0.5096809959587947 0.1746065769615407,0.5321294987397607 l-0.10426189517894116,17.87976566441681 -0.22515625482189572,1.619119289928488 l-0.44308227352207835,0.707296565172526 -0.5840471068976143,0.027258986894056626 l-0.6363245522445623,-0.42958647528061117 -1.454164118937227,-1.693068875528478 m2.363953144572321,-13.046068437683422 l-2.8387078799246193,3.8530637083852968 -1.9457208744868117,1.9008696836876688 l-2.263709589875649,1.8449859910423834 -4.5256873032644656,2.7464281457951825 l-2.8927609489011945,1.2253593734893016 -2.3647524209756456,0.6821387077078919 m18.912791368938333,-12.490718749461866 l4.364000595090646,3.5568039613496363 5.541496840142968,3.9159774007796044 l4.310886721456913,2.570635267154459 2.205145613114893,1.0323687475081538 l1.1746267508490695,0.35894808823335095 " fill="none" stroke="black" stroke-width="1" /></svg>