<?xml version="1.0" encoding="utf-8" ?>
<svg baseProfile="full" height="123.3505443895063" version="1.1" width="100.40544778033482" xmlns="http://www.w3.org/2000/svg" xmlns:ev="http://www.w3.org/2001/xml-events" xmlns:xlink="http://www.w3.org/1999/xlink"><defs /><rect fill="white" height="123.3505443895063" width="100.40544778033482" x="0" y="0" /><path d="M25,25 m0.0,0.0 m8.742661835099085,21.175147511225493 l0.5250352074557921,0.09345783877304531 3.0446955317727946,-0.006279501847746938 l10.492988423472317,-2.074449720590178 1.7201152502583996,-0.03259838543408627 m-7.0243504962276715,-11.288932187648495 l0.65288556800646,1.2045653514550636 0.1835065358927707,1.7292972466413403 l-0.0911075043138003,43.93591859749476 m-0.15932017623769965,-32.13498870615335 l-0.8346246133990605,3.327327522875803 -2.8640443532454434,6.741490858315419 l-2.48426871232902,4.470151796615794 -4.152162071554,6.248529273922319 m12.42749183002583,-16.058719807541014 l2.716082771613469,2.574897651984688 2.133476768779297,2.8261600509055333 m8.6352695557138,-24.114400621206705 l0.5394272680660112,0.9270131486487715 0.19004859802368385,1.0727302696561813 l0.16663170963835883,14.986698858229763 -0.2879828947678453,9.090732053291202 l-0.7781319045398929,6.3179486967722225 -1.4152533918255163,9.009543302779385 l-1.3683544768700602,9.567701224160512 -1.3391934420659262,5.748302009352743 l-1.6662906383822258,4.446712775632197 -2.154915096777214,3.566587281195631 m-1.6987189327836534,-53.04636446248482 l1.808099642282032,0.23815167259140665 6.604927364268629,-1.3282476956097018 m-8.35251302506098,11.876398726343972 l1.6278688049250571,0.08105629075707688 6.489759940384636,-1.4769854757564564 m-8.640426070866916,14.17383655097396 l0.9902065223145735,0.27548910428743684 1.0080607752526367,-0.2565973138951192 l6.529479064117028,-4.290227971271187 m7.900884554425672,-35.95549675221926 l0.6854531399904449,1.0541666341398466 0.18143436728574172,1.1412820808692443 l-0.057461283994894245,52.69851514660781 m0.8077862115891606,-41.88827678190739 l8.613008734603278,-1.630417287807208 m-8.852717757597448,12.780515929621435 l8.028611834734622,-1.6195341408238044 m-8.395661164080243,13.423028293018149 l9.577047977262755,-1.4849203465512966 " fill="none" stroke="black" stroke-width="1" /></svg>