<?xml version="1.0" encoding="utf-8" ?>
<svg baseProfile="full" height="108.0486973143713" version="1.1" width="108.99239679011772" xmlns="http://www.w3.org/2000/svg" xmlns:ev="http://www.w3.org/2001/xml-events" xmlns:xlink="http://www.w3.org/1999/xlink"><defs /><rect fill="white" height="108.0486973143713" width="108.99239679011772" x="0" y="0" /><path d="M25,25 m0.0,0.0 m12.589698830473361,18.082478386632875 l0.363825081488153,0.3577054049165369 0.49734476632123387,0.8785224978382342 l0.21851570504552387,1.3287698078141608 1.4105048632980954,37.401221217169486 m-0.8113628811775221,-37.905262180861115 l32.78709341874701,-2.2530569331293515 1.4851561000416669,0.16052136014433374 l1.1307177632537542,1.9626982722439936 -2.2694627114143007,36.18093842465656 m-21.63756024194193,-39.23343409142763 l0.892553886687686,1.5510517504039725 0.10848730725458135,33.43933447688245 l-0.4467112176193776,1.9823644618945957 -0.3679508245705032,0.7950742978262817 l-0.3833825153842447,0.43686189609846365 -0.31039578758541647,0.1131860323787055 l-1.2947416475282763,-0.17887955073812273 -2.4096382259176004,-1.8047403418249244 m16.116609084704294,-46.08490484720987 l0.5095926651757356,1.1202081499672984 0.24645646663428225,1.1852041036747425 l0.04236481995975716,31.921245475484437 m-26.483897246326666,3.9339346801514035 l1.8978372917613542,0.5335487534952328 2.3897229954160752,0.07272815347213353 l39.61084151868682,-2.9213660228453935 3.1101775246341683,0.5511753685259221 " fill="none" stroke="black" stroke-width="1" /></svg>