<?xml version="1.0" encoding="utf-8" ?>
<svg baseProfile="full" height="106.43852982380793" version="1.1" width="105.64979884455816" xmlns="http://www.w3.org/2000/svg" xmlns:ev="http://www.w3.org/2001/xml-events" xmlns:xlink="http://www.w3.org/1999/xlink"><defs /><rect fill="white" height="106.43852982380793" width="105.64979884455816" x="0" y="0" /><path d="M25,25 m0.0,0.0 m22.421008125611735,5.468375461298166 l0.4007934868731856,0.3428970334269445 0.4533379720583465,0.9133925798778255 l0.1032406902486555,1.0689180433562162 -0.1039982472701208,15.885906619086729 m0.8794958758532131,-8.44939601121959 l6.608543524912861,-1.0564359551742954 1.8276502416381384,-0.0920365716270126 m-19.264508228886022,0.5913216734459689 l0.7053943802608801,0.8765352144801936 0.21745948764307346,0.9028517898280326 l0.0770266645744612,11.52368760088754 m-4.160550097490154,0.9603690978227809 l0.8540623268366998,0.5661250697423202 0.945207635416079,-0.021631851899717145 l18.649673022979197,-7.645928345948185 m21.6411248907571,-14.209151033493441 l-0.6602949863269855,1.436655251595517 -3.674610187216727,2.5010679652325685 l-4.777272662472197,2.390357186001875 -4.316670267422145,1.5076902697171324 m-2.0175340854043875,-11.852016532093245 l0.5103121532951282,0.506904520578226 0.2950406447384253,1.0982008646428043 l0.05094241832735904,16.520140811300273 0.3022477999421442,1.4520900286233018 l0.4587889676992989,0.9783582867088197 0.9489840710388793,0.876988070502151 l2.110431501635912,0.6857201392269122 4.941949247402598,0.28275468345650495 l3.775317920600031,-0.18940146811594757 1.4241626651399293,-0.36420639712457475 l0.927524560996509,-0.9052164732394716 0.41526020247195344,-1.5870733509765766 l0.1010623222559668,-2.426738793477937 m-38.183202466281024,16.565229185417593 l1.6563345765655482,0.3554149621865016 1.697637451297879,-0.005147449161233724 l29.739684301744116,-2.935352576094881 2.7240140306778273,-0.06767513734079415 l1.9285437368023521,0.3452034168880889 m-20.59263006366763,-6.076213294068832 l0.6876871424197801,0.8955254013800026 0.314274417410465,1.658529360662866 l-0.06255630868988613,25.164940477489804 m-1.142243379632813,-19.875119954040244 l-2.5174486975353285,2.254909774634949 -2.686854427011674,2.169594817636736 l-6.494206617044642,4.577075806406257 -6.032969680008138,3.518188182231799 l-6.465463968355276,2.508072288976145 m24.49353020515999,-15.771254982951858 l18.465445111543232,12.890033964698763 2.36020103274783,1.1601836307480693 l2.68941840769652,0.735875809008912 " fill="none" stroke="black" stroke-width="1" /></svg>