<?xml version="1.0" encoding="utf-8" ?>
<svg baseProfile="full" height="100.05455809010476" version="1.1" width="101.33380643068918" xmlns="http://www.w3.org/2000/svg" xmlns:ev="http://www.w3.org/2001/xml-events" xmlns:xlink="http://www.w3.org/1999/xlink"><defs /><rect fill="white" height="100.05455809010476" width="101.33380643068918" x="0" y="0" /><path d="M25,25 m0.0,0.0 m11.47346904936656,19.41828421445744 l0.43832297460670816,0.364455216704742 0.491163262901633,0.9026263702425278 l0.25200558333060635,1.4239655874776151 1.9321678406819305,27.945226701222445 m-1.4551749202187139,-28.50179182774579 l29.149839943788002,-2.4195476489565033 2.393155321827122,0.10880886604276305 l1.0356857027380546,0.6251440959295501 0.6017068585854816,0.9032108867965467 l0.14939037935329122,1.7865049078919877 -3.3817593686214957,27.22130383971858 m-20.792752389123525,-32.9950538730777 l0.7415432160593081,0.6719925290490725 0.2977615140298489,0.8355070444873247 l1.188852522937434,30.975186232869394 m10.56127695178975,-32.956519692250566 l0.5361457379927839,0.779620551456682 0.17795867788498135,1.0316360658414818 l-2.3179410539010648,31.753443721782173 m-12.655558095579181,-18.886165944398492 l5.6732526340240925,-1.2332453728164414 6.387902441768484,-1.4056567274525478 m-25.529990803885315,16.603117599881422 l3.76025027026451,0.19342102179558904 27.765455685413198,-1.5533883006888922 l9.047207463576505,-0.3317661035373788 3.412469029098187,0.16543877079104985 " fill="none" stroke="black" stroke-width="1" /></svg>