<?xml version="1.0" encoding="utf-8" ?>
<svg baseProfile="full" height="113.76728122337838" version="1.1" width="103.90646496621224" xmlns="http://www.w3.org/2000/svg" xmlns:ev="http://www.w3.org/2001/xml-events" xmlns:xlink="http://www.w3.org/1999/xlink"><defs /><rect fill="white" height="113.76728122337838" width="103.90646496621224" x="0" y="0" /><path d="M25,25 m0.0,0.0 m16.78665942732808,15.988127070279115 l0.5122030499215907,0.13762405439482073 3.2222651061327823,0.10157747471295764 l26.92573168643625,-2.3682869928681147 3.8858499626052123,-0.12813570701946206 l2.5737557337883343,0.2689959838483387 m-28.01466188206857,-4.042160707719476 l0.9256363114143825,1.4546433364724034 1.3196229808421915,8.174405464098525 m14.679268731227221,-11.327795640907592 l0.2813253456999945,1.4289768665672002 -1.8688231247754432,9.116415812158746 m5.998221629025218,6.801264031582906 l-0.46504880708947355,3.2597283179883645 -2.8863845797926224,2.4874479466319843 m-16.033366812189193,8.027768006958 l2.841822013648101,0.24955004087204236 16.159389714897852,-2.5059093887280603 l2.9072492201681097,-0.22197852954165073 1.7056711146982813,0.22161825824030965 m-12.719836461170058,11.90236001380347 l6.1265506497709055,-0.8513159184934629 3.2433665769310447,0.010065106102833203 m-12.683871331517382,-8.617510081715286 l0.39518135820200834,0.961230056682885 0.20325325985045417,1.889094429663421 l-0.01322280238864027,20.97134020384163 m-10.096284753702184,-16.176673083856002 l0.47663846916377806,0.9022080777643688 0.1869223890658945,1.2665000800316868 l-0.020330947033634673,13.40354429737487 m-5.714236779152961,0.5120344317402 l2.3322179160498613,0.4705279124163954 14.07534051631533,-1.152399335258369 l13.966899516479655,-0.5617888777373103 2.511695049928772,0.5041537381652633 " fill="none" stroke="black" stroke-width="1" /></svg>