<?xml version="1.0" encoding="utf-8" ?>
<svg baseProfile="full" height="122.59877980863077" version="1.1" width="122.12195839456936" xmlns="http://www.w3.org/2000/svg" xmlns:ev="http://www.w3.org/2001/xml-events" xmlns:xlink="http://www.w3.org/1999/xlink"><defs /><rect fill="white" height="122.59877980863077" width="122.12195839456936" x="0" y="0" /><path d="M25,25 m0.0,0.0 m7.534246966151553,20.28211314724559 l0.3560552701330629,0.07885677840806311 2.209934890506382,0.02546111730541821 l13.210445556909697,-2.354475163130734 1.6169817121174979,0.01337726698768855 m-8.19882289335666,-12.826482787034447 l0.9750668365367763,1.2703425462115483 0.6546922548161423,1.8184885952660501 l-0.18958687090573262,46.25276361169268 -0.1910414674370966,2.6471160462175707 l-0.4688331952307159,1.2551841998476225 -0.6595605011614821,0.15557021433764115 l-0.7807914940406987,-0.5838785876094037 -1.934105122264848,-2.553933369391775 m4.030730561814886,-34.001916877019895 l-2.880852763363267,7.756617374839806 -2.171391423171832,5.363904856815578 l-2.456645580266729,5.182072398770663 -3.6875235428582296,6.733092387825765 m12.502428957449766,-19.66941792526251 l2.6245162823073978,2.9890068414223467 2.556824920662764,4.267923554159474 m10.503181075677638,-30.239497314773324 l-0.15620509115921977,2.1246666274994888 -2.5714786477949474,6.353088478738525 l-2.9982198040365224,5.130545670339372 -3.2858029430723446,4.07856505402027 m7.86837473239228,-8.813268586466341 l2.626162175909189,0.28047948854902915 1.8878670003385074,-2.4557097088972304 l4.245255020943087,-3.462311003983951 0.8707079635621873,0.03182945984364853 l0.35015913295146084,0.46987863937464264 0.061603724684134865,0.7889799254951975 l-0.5309299320319472,2.2313253136969786 -1.5226585512748496,7.111532929725454 l-1.386814694957801,8.043170883440206 -1.3946879218767376,6.633473752532499 l-2.825651557634258,4.606329377295029 -2.3303611960415758,2.1855487486077894 l-2.7372387224969374,1.6228148914866396 m4.3654355975757175,-22.274675736860008 l2.4025182928016338,2.798226941282914 1.3743261818362666,2.880360777976243 m17.01658169525997,-11.014354104830536 l1.236579867230122,0.15429611883569316 1.547396855300131,-0.11376793689707333 l8.525263613232568,-1.9131663400577243 0.783242137507815,0.07404676178295398 l0.8136188348282365,0.37789495386520044 0.47046849660495843,1.6193995111069133 l-0.6022130604444192,3.259885793461133 -1.324155448636697,5.291610034668637 l-1.7571076347228143,5.260988751776264 -1.8620935402929695,2.1303194592884456 l-1.7182167820302279,-0.05619170474350857 m-8.067171439250611,-12.726817632182616 l0.5392875431335733,0.9580582634218362 0.21571478866381852,1.2239603849432505 l0.07286372131371853,14.94330720628113 0.6403824116825805,2.2414457846078273 l0.9494732470588005,1.0993981591878061 1.7727988143778461,0.7362130816715634 l2.520843442815111,0.20548309218150645 4.51541604630072,-0.14095762876668436 l2.658751346165359,-0.4818882891124885 1.6313980036896774,-0.5813391222978666 l1.4153627478528776,-1.083335960810002 0.5250418157171273,-1.4461035267686686 l0.13411967956849577,-2.0727410985767865 m-36.2135205916162,13.912317230443442 l0.745365606089684,0.30587964772970183 0.5100865694398586,0.09307754036287963 l7.243516127856052,-1.8326309890838117 0.9503922916979908,0.3721741266208087 l0.5558782561593419,0.5395918341723251 0.3026231618502844,0.6790651709976678 l0.0023547382479101255,20.375915389380665 -0.24070083408312107,2.2530254247524137 l-0.5415138708108845,0.9373258392022235 -0.7807348593660763,0.027238486455802933 l-2.2808953506925325,-2.108518614411254 m-0.6342821618372363,-18.66066364740222 l-0.06322258571377573,1.0327205812904428 -0.5113456004603107,1.2864740724251773 l-2.207936834696397,3.2286559661451055 -2.8664227124024277,2.8357360545566124 l-3.3198300842128035,2.3526039805741905 m13.12757764303007,-3.7404850336322526 l-0.05050337995805881,1.0509248349724112 -0.5634674241875001,1.2207653480569176 l-3.171209206709798,4.092452930309708 -3.8138502618096473,3.718981618817603 l-4.824184311350495,3.5795151736889643 m18.907506898171725,-23.64698721554045 l1.316947205306386,0.5005813459083508 1.2989793184622824,-0.02527031802243205 l8.526788862465432,-1.7764669735822964 1.3650926667077348,0.14131442602776387 l0.7791254170251689,0.8874295317728929 -0.31545051387869966,24.149871958154428 l-0.31374837267680644,1.8827991654256677 -0.5979938154225557,0.7605800731973233 l-0.7878615858543032,-0.03236726390996822 -2.6919167234110697,-2.200884884480138 l-1.573634689305502,-1.8602425792988189 m-0.3987766552170564,-22.785334133990858 l-0.025859821477023346,0.9255599254348815 -0.46065695142393515,1.103096516238088 l-2.074145912561697,2.743185409852736 -2.8071613790094365,2.4511761399376764 l-3.382124199442608,2.120160202439849 m12.2824844894472,-3.41322891835651 l-0.061263713612233116,1.3040356600756264 -0.5355337099474229,1.2931841561606678 l-2.8183096541676442,4.247216096268922 -3.4335734225377132,3.8609278881287454 l-4.204278659178889,3.4462977726505826 " fill="none" stroke="black" stroke-width="1" /></svg>