<?xml version="1.0" encoding="utf-8" ?>
<svg baseProfile="full" height="108.86624044767879" version="1.1" width="113.64442882142944" xmlns="http://www.w3.org/2000/svg" xmlns:ev="http://www.w3.org/2001/xml-events" xmlns:xlink="http://www.w3.org/1999/xlink"><defs /><rect fill="white" height="108.86624044767879" width="113.64442882142944" x="0" y="0" /><path d="M25,25 m0.0,0.0 m28.28689408745646,1.7433501785194239 l0.07560341993786093,0.4502176774986098 0.0654425699567427,1.7565005559984037 l-0.8721805358469473,2.719318747889553 -1.4069372468332813,3.3534937724002547 l-1.7440451674815227,3.2958029367203023 -3.444868342203957,0.7522622897984877 l-2.7938483415700435,0.023075185234633557 m8.374520501308664,-10.107132084081504 l6.998734659575488,-0.462441896351541 5.116899195936326,-0.8354538447899779 l0.5296152571657372,0.1918703955851412 0.23114853840012514,0.6098147169857177 l-0.24377716865433247,0.8205528224240436 -4.964241599387491,4.126469797372641 l-3.1805793364009984,3.9714260305412417 -3.053174224332247,3.828542117328275 l-4.92816989711893,5.303419807716884 -2.6590009777561483,2.24009794682032 l-2.8058770922261127,1.8375120275496126 -2.830008127415856,1.3611588044930278 m7.450635258086955,-17.406770683862547 l2.7976223667148217,2.111315697956655 1.87997070288572,2.5328725231040865 m-10.252906233651467,1.4418815122868083 l3.0297028913429878,2.7494871200033164 1.852905565781164,2.249980873677479 m18.900464593976377,-13.528889037802214 l1.6564042390467018,0.3822958545173379 1.581998335358326,-0.08748478382029204 l10.359731872607973,-1.8745192017989925 0.8105863568156586,0.07109198711852413 l0.5613759229314975,0.3223531732739839 0.2788448380978671,0.5446436204483255 l-0.04771014391122,0.6668251820454009 -0.5376467251478566,2.375706626843176 l-2.417679849830383,4.740274885590791 -2.6121305843653255,3.8170730767989913 l-0.8663518551335181,-0.08998451875216823 -1.3251401677641528,-0.8331049182696124 m-8.742948444475433,-9.64243015698799 l0.5362999572342133,0.7433746463913535 0.23274535092541063,0.9581635921674612 l0.12391474981999016,11.375641005121484 0.5436539135595768,1.7096365523684458 l0.9131698806949458,0.8838703819315182 1.9793181331061704,0.6444025070705641 l3.1668848901057687,0.21183634650228317 5.629415593496219,-0.06322365328003468 l3.788638993481191,-0.3933512875105128 1.4967782341468263,-0.5024800907168528 l1.3178087743802906,-0.9090258396314754 0.534186828983565,-1.0587244134330742 l0.17017385865770202,-1.6021791488327186 m-45.34837042904393,9.80819987784432 l-0.5128546998429115,1.4879753587208868 -0.9302399582201631,1.6093943834176538 l-1.5919364045502187,2.164651633628264 -1.9926869982548137,2.1842854849482762 m14.643169691886202,-7.633625525216983 l1.1444890553242284,0.8672746298840126 1.386578229308955,1.6662568791551882 l1.7591842923338064,3.39760532729364 m10.207264497256062,-6.55766276125162 l2.3265544917371423,1.2027933506839943 2.4678362212306624,1.5912265121697335 l1.8606449749008007,1.6262324367966488 0.956533698383163,1.275029673788048 m8.937416401623366,-5.807316311304139 l2.29037783145712,1.0737430321396937 3.2132672768028985,2.1696049978119105 l2.1986442551257577,1.987067229485995 1.0856881235032154,1.522688139324191 m-43.48478300617748,1.4660009844416335 l0.6820961955480795,0.7789514854720515 0.3043688965040007,1.1737562961959407 l0.9693665910547757,8.217668395665243 m-0.7633397675070448,-9.385178927384402 l26.0275573103338,-1.8993170086339208 7.148103854239756,-0.35370482234874256 l1.0861999015337511,0.22389981491221733 0.5751418947461024,0.8952948033890943 l-2.1412097969073387,8.417905224232662 m-22.36895661493225,1.8840865001425535 l24.232737099659563,-1.7732646923804314 m-13.848286082938296,-13.707275218073413 l0.7208543500331382,0.8704988361911189 0.2662188859492637,1.0837999612873772 l-0.12839019929823778,20.98960491484287 m-18.956549309909484,2.466936033113832 l1.7816062747111587,0.6832134953851585 31.639188245562632,-4.32349817168054 m-5.456835987938021,-3.9777870277111815 l2.8214466872039545,1.7943707280071848 3.3119641359009204,2.983775574905884 l2.497419557351701,2.920569828338654 1.2914476674481417,2.28009167387519 " fill="none" stroke="black" stroke-width="1" /></svg>