<?xml version="1.0" encoding="utf-8" ?>
<svg baseProfile="full" height="122.1146010055336" version="1.1" width="111.89326328693366" xmlns="http://www.w3.org/2000/svg" xmlns:ev="http://www.w3.org/2001/xml-events" xmlns:xlink="http://www.w3.org/1999/xlink"><defs /><rect fill="white" height="122.1146010055336" width="111.89326328693366" x="0" y="0" /><path d="M25,25 m0.0,0.0 m13.319190342453918,22.740041315504314 l0.5158545494254498,0.10617726061385796 2.54593268046657,0.030200441990608333 l10.82164567253494,-2.081308430942516 2.0486439608180165,-0.09139647975898102 m-7.183789662810392,-12.319406588407233 l0.5654161391453935,1.2222074108563437 0.15817025965317608,1.8516667372609223 l0.005721056347060278,46.29910119793366 m-0.5088474381049601,-34.94513471806116 l-0.5451223260234869,2.8745251067601374 -3.004299074443753,7.314618830622419 l-3.022041890855967,5.001503044285222 -3.9509225660993352,5.243414582606749 m12.76625807801871,-15.207463286521458 l2.3880550791004396,2.428144634466656 2.4666060906694955,3.565175930453744 m2.0118985361825708,-17.112199957879273 l3.0747348451045506,0.15472198178830235 19.130541321065866,-2.363183911937037 l2.422100277903593,-0.2503155655911371 1.9029086998446845,0.21454744092603306 m-26.92338481844676,16.639848440770525 l0.6564686286871504,0.1458096308759483 1.7017264957528004,-0.10856102303483352 l12.098060874283401,-1.681136318316188 1.9687331993566852,-0.03224552202865209 m-17.40761027933348,13.240024885970387 l1.4732093356890574,0.29777017356981267 1.7265094846681828,-0.08957158500397754 l12.487303715848649,-2.52995915026574 1.9763504826775269,-0.1780672959633836 m-10.032665858592198,-29.066648590095276 l0.6656311330206452,0.9387542953090258 0.40733803723141654,1.6117792290299282 l0.04067583979188134,22.306986251495992 -0.2969943497166267,7.900935025346332 l-0.6375048550842479,5.460507634231728 -0.8146821852186878,5.0245587911709455 l-1.1740994620909329,4.433493673759733 -1.591791529615239,4.19759240255414 l-2.549967982587652,4.950524186902166 -2.966962734297776,3.9765688922848046 m19.513198428024424,-53.9300140947037 l3.8341452103713185,8.35612751588176 3.811184967162963,8.095006196590681 l2.9584888494533166,5.00728209367944 3.0412480295013142,3.7678905291140707 " fill="none" stroke="black" stroke-width="1" /></svg>