<?xml version="1.0" encoding="utf-8" ?>
<svg baseProfile="full" height="108.55955601400655" version="1.1" width="111.13907252701964" xmlns="http://www.w3.org/2000/svg" xmlns:ev="http://www.w3.org/2001/xml-events" xmlns:xlink="http://www.w3.org/1999/xlink"><defs /><rect fill="white" height="108.55955601400655" width="111.13907252701964" x="0" y="0" /><path d="M25,25 m0.0,0.0 m7.744718857966413,20.93916335888555 l0.6566558461676767,0.10082959371720451 3.0935245411884535,0.0665419395729416 l13.558519030746599,-2.168127575454164 2.3122466007195683,-0.03466535179563108 m-9.009539712958393,-14.684330420885285 l0.8351112843029881,1.3453373283973218 0.2324899017570821,2.083984746539466 l-0.1268619611599406,48.61151229224806 -0.4140014169253702,1.6294247268116453 l-0.6361599068801347,0.6698853759694406 -0.75967696720759,-0.07758976946783283 l-1.6375452765177618,-1.4488661124948168 -1.8484210449870526,-2.4179815665833315 m-6.624032790269165,-14.734975143807393 l0.8525488485724171,0.44125711185861755 1.1960679425491438,-0.3739773547681913 l14.228848924005376,-10.12942945181956 m7.433053999307194,-24.210290340626905 l1.0784224931399464,0.8234181704555436 0.9685666311624966,0.40823240819285694 l22.240711601408734,-1.291694803424433 -0.4338064959760753,1.5243550979141458 l-10.301308637435312,6.943047345893196 m-6.423756942083801,-3.66713416021891 l4.273731372453843,2.3024519733850948 1.80602417940841,1.3323847729161515 l1.093962099640079,1.0830987500874827 m-14.882469059280822,3.1733467891160307 l1.5708747322532817,0.842638946686426 2.0500621617508,0.03275854799056969 l11.496937913854936,-4.0048034031338355 4.246356392668928,-0.7370906630287135 l5.96896256766664,-0.2090694307104038 4.340441978198126,0.0574208672715203 l0.9101102726520329,0.829829435726269 0.04770256515987941,0.6523850870362508 l-0.8727782637396891,0.7763467200525929 -2.5045341686317006,1.6381602698719724 m-10.437780244395016,-1.0225669994968412 l0.11485240551155694,1.0013165249103482 -0.13486208214117573,1.0542179501796238 l-0.5188055994547388,7.20179335982981 -0.2817668218030083,8.360822414188602 l-1.851438515834677,2.1513846222794406 -2.329631323558996,-1.2952176257447092 l-1.579273969602183,-1.4093664725637467 m2.871274639079624,-15.349855401716674 l-0.14451797901897315,1.0361399712662174 -0.6574905846858615,1.048545927114102 l-4.464616315567042,4.429550666730378 -4.341573006283805,3.2587166484799757 l-6.097698610362195,3.379489583058609 " fill="none" stroke="black" stroke-width="1" /></svg>