<?xml version="1.0" encoding="utf-8" ?>
<svg baseProfile="full" height="103.40721495015946" version="1.1" width="106.31188713611691" xmlns="http://www.w3.org/2000/svg" xmlns:ev="http://www.w3.org/2001/xml-events" xmlns:xlink="http://www.w3.org/1999/xlink"><defs /><rect fill="white" height="103.40721495015946" width="106.31188713611691" x="0" y="0" /><path d="M25,25 m0.0,0.0 m5.144064953232729,19.481238898016596 l0.3554732591703701,0.0835692621882351 2.343184785993494,0.024450148974794743 l13.886203135380264,-1.4658861397909702 1.8084934292235024,0.004150732311416312 m-8.920986329975367,-12.522395905796952 l0.9955569360156766,0.9855593041054147 0.6044423805905964,1.534456675135109 l-0.1921044053025447,41.68689383721007 -0.1838331641131966,2.2503973412379605 l-0.47668107447498725,1.0975041786373816 -0.6887084598621408,0.2472766179304059 l-0.7948238733964642,-0.3538316307911558 -1.9592335412685653,-2.0427770384224795 m3.999880707387513,-30.17891371779589 l-2.8090129064919616,6.61388548297056 -2.220957107206583,4.630893148013627 l-2.5292081768814114,4.431681201897453 -3.8242116088884304,5.806767801200707 m12.863798103068525,-16.6222288984019 l2.5152205759450386,2.3835427763443944 3.3794243162937843,3.539126476340452 m3.848718768393821,-18.45869737199493 l0.7657681807520919,0.21279521498174747 1.6574237330809685,0.036026760918675564 l14.73691633254714,-1.8163197504295676 3.0441955413215727,-0.12460817651019351 l1.4247096835769404,0.25783233634765756 m-12.127971681344873,-7.692456335945642 l0.6827197603086411,0.8622066774487799 0.3919810296749811,1.5947059854676096 l0.15287555843413694,14.813131974532041 m-13.859292784963273,1.0075952102428405 l1.309857166869343,0.3193622126836118 1.8485357160714972,0.03355665887622231 l22.67550444435192,-2.682738925013385 4.234385648251135,-0.17114001390749886 l2.2295781043510208,0.4322948282480113 m-29.745767460800334,-11.973474238637477 l0.8503278836931434,1.1277798747118932 0.2548691402120951,0.9151586731701201 l1.196570474054292,15.507664589436217 m14.153211037424391,-19.278850614282934 l0.5036860272366575,0.9345537281897668 0.12222677601745657,1.2505716625559267 l-2.6345883693896748,15.929482523492041 m-20.303423167157057,1.953024864982021 l2.8988073786538893,0.2900977943568055 22.75196021197188,-2.0967505743805006 l3.1877546229270104,-0.10288037832391103 2.2835595583051482,0.28789786791272653 m-26.935144672865707,7.636676912745087 l0.6533233066456081,1.674385231218483 -0.00679268966823243,17.89256992295199 m0.42832762401309654,-18.777522953178266 l16.57357147447534,-2.091480428571757 1.3010789492791668,0.05028083324446241 l0.5527387239064334,0.36167989038354115 0.37475753318923927,0.9571956986889261 l-0.31572090337134917,18.539382249267266 m-17.794650014121196,-10.257781205641587 l11.533781178158478,-1.0574714955818763 m-11.60392707249912,10.074794631152141 l17.33397769694278,-1.240169750748874 " fill="none" stroke="black" stroke-width="1" /></svg>