<?xml version="1.0" encoding="utf-8" ?>
<svg baseProfile="full" height="106.87258418864386" version="1.1" width="107.05649589902848" xmlns="http://www.w3.org/2000/svg" xmlns:ev="http://www.w3.org/2001/xml-events" xmlns:xlink="http://www.w3.org/1999/xlink"><defs /><rect fill="white" height="106.87258418864386" width="107.05649589902848" x="0" y="0" /><path d="M25,25 m0.0,0.0 m2.1693681301983596,19.30565763388171 l0.6069696592647964,0.12294854323204427 2.6814229074464033,-0.011815246710048256 l13.836708862514746,-2.326002536966528 2.1021432976841794,0.05354216705908903 m-8.573385522773101,-13.30826596780453 l0.626855746840453,1.319976193863569 0.16874541610728988,2.10796686330775 l0.004173945722837479,49.608576538780795 m-0.46850277753323444,-36.9646472197821 l-0.29931567462879793,1.819329726814367 -0.7486704368383569,2.4113701907226357 l-3.116761784860474,7.321982829814414 -3.3617120831652856,5.792064214399278 l-4.583465844988917,6.438113331711752 m14.158877841019034,-17.633791018994476 l3.0102343929631434,3.5537807584488745 3.12477001192529,4.010526862963343 m8.245346786154613,-28.937407728865416 l-0.028494969316308905,1.8607631255980073 -0.36524608437137923,6.837179474604877 l-0.5083904669171082,7.3905793870301215 -0.7106253167495424,5.587693930732167 l-0.9023406981782461,4.388885715778376 -1.2487423010041994,4.128107690796316 l-1.6794006553579923,3.7346470459643903 -1.7109554130671885,3.296038813523815 m8.002422594191327,-36.333350607151566 l11.737220246923648,-2.3023329042988037 0.7331739593318349,0.024607455054218557 l0.9299076800328915,0.7216262104512247 0.3927318039857246,1.4682689768798896 l0.026839108068256925,29.280311914817936 0.6102543729786742,2.8314208543754273 l1.0400087605278967,1.4403906997394356 1.9681061781333948,0.6713690310299355 l3.685012452832759,0.15085570746373078 2.7141987640339504,-0.3661002602851082 l1.1442993498198715,-0.49669618487007783 0.8324198061156849,-0.7345082320826776 l0.5376204457770603,-1.0070084238701358 0.2726734081844838,-1.973158990370703 m-24.86023663454111,-18.253013276999244 l2.160706134029169,1.297087365430456 2.2656249970726847,2.0708968712886566 l1.9498826655437158,2.227719466301655 0.8691502735764237,1.4487298486489548 " fill="none" stroke="black" stroke-width="1" /></svg>