<?xml version="1.0" encoding="utf-8" ?>
<svg baseProfile="full" height="97.45202747781151" version="1.1" width="111.21770020105113" xmlns="http://www.w3.org/2000/svg" xmlns:ev="http://www.w3.org/2001/xml-events" xmlns:xlink="http://www.w3.org/1999/xlink"><defs /><rect fill="white" height="97.45202747781151" width="111.21770020105113" x="0" y="0" /><path d="M25,26.026183439027573 m0.0,0.0 m27.330344879667674,4.48412698908482 l0.05098343422606389,0.3541606454339569 0.12552417713070868,1.572304003027627 l-0.7946238852068,2.9307294238982697 -1.2555803276817215,2.98499759850559 l-1.6176717642963805,2.7745459330669875 -3.366378301445824,2.239372682309643 l-2.6221422494049342,1.14259023252502 m6.231815573335481,-10.914243199501934 l4.652525586085073,-0.4558415087610622 5.256555332879834,-1.4078176665083486 l0.9837448436577989,0.061818739494856195 0.42314997548137545,0.5070399237586664 l-0.01180699006079889,0.7351880622400627 -3.2239700138259044,5.675535185684333 l-2.163013881408052,5.391175661694737 -2.2169987837456806,4.87184077925438 l-4.167810760764934,6.854860267149695 -2.2583127691317326,2.6691311033256935 l-2.425189358673826,2.040904428801775 -2.319288496306396,1.3677479795804863 m5.998083245020173,-18.654472718997898 l2.411250018378511,2.077660048126882 1.5666384233907775,2.015116109567482 m-8.742802683407367,-10.777135637293009 l2.3655233474697153,2.138031120482081 1.6468453764825837,2.2861200500048575 m17.344201868460928,-14.557647445870817 l1.4929459410622206,0.3829343375531995 1.4848122254962737,-0.06725650175930936 l9.26332925781114,-1.7497000649062957 0.7219136642983301,0.3627290936674349 l0.35117682749084034,0.5674590032060327 0.04208598447337956,0.6979110441931466 l-0.36857714879944364,0.782872143035547 -2.5463307969270144,4.128166493331136 l-2.6495013346266902,3.72917552724677 -2.5693571904437684,2.8839288541729013 m-6.157997233133137,-6.128179030805619 l2.2386935078574646,0.7592699762130898 3.14690720906789,2.022988879489477 l12.579100117192125,10.174723509516076 2.762096035934659,1.6817897187579294 l2.2248073179905403,0.9364556067815264 m-31.66711675783211,-1.3158080829539214 l2.4475328318001335,0.17079934794532184 11.105939517439923,-1.2345600897384486 l3.751349453364713,0.09204330867905074 m-25.907193876270682,9.800787575713207 l2.559905552803546,0.38046596471947614 25.58114083086112,-1.673328723363388 l2.832605718614141,0.25787454605550003 m-15.853165970795141,1.5711803960303952 l0.5743783316445805,0.9944929014111187 0.2679529920531648,1.3561898358582731 l-0.1288446781502632,13.472246717939923 -0.3959254174246883,0.8136564047362269 l-0.5438772607085213,0.16669655597332758 -1.3220337868267962,-0.8655419414299492 l-1.5893374633155526,-1.7054971145193836 m-6.495079753215159,-9.498276779013068 l-0.29445994521872065,1.6383063444381898 -2.1161404710209064,2.7773687240037814 l-3.4180621188518194,3.2241857184822647 -4.137747120545773,2.9816483088027494 m28.82247187883804,-10.735912027001248 l2.317469890711987,1.7143610574193442 2.7617025476123582,2.719122028793684 l2.2463643882417594,2.789379407591806 1.2501656871801459,2.2425646082433897 " fill="none" stroke="black" stroke-width="1" /></svg>