<?xml version="1.0" encoding="utf-8" ?>
<svg baseProfile="full" height="126.19451047180578" version="1.1" width="102.73739265410907" xmlns="http://www.w3.org/2000/svg" xmlns:ev="http://www.w3.org/2001/xml-events" xmlns:xlink="http://www.w3.org/1999/xlink"><defs /><rect fill="white" height="126.19451047180578" width="102.73739265410907" x="0" y="0" /><path d="M25,25 m0.0,0.0 m6.3967134495333005,18.051930852195238 l0.3307324804853773,0.31922191063849803 2.6155863872905925,3.102542712081331 l1.3578311455705594,3.079621867984351 m14.285274695579986,-9.716619132704013 l-0.1654389163702088,1.5469131297841714 -1.0732473265936604,2.6626429530056464 l-1.3382643699432653,2.340127591806756 -1.5770009311782887,2.171654989668366 m-16.14577354862056,5.8379081212207495 l2.1708632736856424,0.3467509404282178 15.609837924934702,-1.9425185943517294 l1.606341628864977,-0.03627713435755643 m-9.18852186833515,-16.928507123122092 l0.6775990409802264,0.8269943957179888 0.35075058077439786,1.2356254534076598 l-0.11475859841344663,45.39625687254394 -0.1730704283403977,2.4648425093007043 l-0.47293941745293755,1.170539684435565 -0.6636707243169152,0.21178066383395663 l-0.7803540168982179,-0.47211920132008256 -1.8870160455536313,-2.291918839970399 m3.824941082857832,-29.145975719368344 l-2.2742925483653025,5.9492331416209 -3.1428790066697974,6.217758046632073 l-3.220177280871946,4.888940392283387 -3.3312618062992105,3.6092707528104673 m13.581765351279568,-17.09527536060339 l2.102524389213828,1.5363041116958436 1.6936483206654098,1.6619151830963175 l1.347978626743656,1.9258128439530464 0.9258830751024946,1.868887929331617 m5.456805155282889,-24.449641467098576 l2.3834509880891765,0.1807420379823963 17.94713813180598,-1.662063262673093 l3.6203937595914257,-0.08556907306401404 m-23.467566214214795,7.33047704091615 l0.5710547884279396,1.7019824996703874 1.7438770847122524,13.813336596646643 m-1.4750624083194652,-14.623023379002762 l18.468491895033335,-2.1515716351229557 1.381848032172042,-0.10489768642435818 l0.5453122449463216,0.15468968981135964 0.6873769880926069,0.9804220055278746 l0.07722631767458084,1.4991553949339003 -1.0189384778170794,6.218078860715129 l-1.3182523545347646,5.9037495519980805 m-18.028209155725268,-6.2829169084862 l14.000206200106676,-1.3304411762142412 m-13.439538695739055,8.02196504661267 l17.360233939242423,-1.3102079871582044 m-21.060428882218556,-23.99062205468829 l0.5977431295506582,0.8694267455189665 0.2721201541150726,1.1896007992120248 l0.721596281815677,25.190477162045628 m8.389902523657609,-28.89336018666472 l0.47251511847647476,0.851418279484399 0.22337659325740797,1.0856413596799193 l-1.1809650565913037,24.462245708534812 m-14.442256151791348,6.591868329176656 l1.159198023435017,0.26354047738156583 1.6991864541166875,-0.06469602701086198 l15.333104775494952,-1.9685943056046409 1.8678405850695856,-0.06730967802728506 l0.8630362368714287,0.27414197631843834 m-20.693663457894395,7.526128914202467 l1.349036904348967,0.26300452337895414 16.31865650100445,-1.4100626935088827 l3.017112956851368,0.19045834943080225 m-22.991454272282336,7.774710402860359 l2.487110355384352,0.26433324824448745 18.466239921963208,-1.5249914730367902 l3.5258521508909215,-0.07672296359963018 1.9490367405520794,0.25606596845216695 m-8.498527380135425,2.728194834872232 l0.45255572971096464,1.5724975832514012 0.06393728412860541,1.754025358371546 l-0.12375897007093262,3.010573370117725 -0.748704874032824,11.891458380918166 l-0.5816688979045544,1.304898300207633 -0.6764133968805875,0.2776276890371588 l-0.7414864050269745,-0.21896978994978064 -1.5395554919638346,-1.137278036171197 m-5.775944242347937,-11.047397601930735 l-0.03955621814419421,1.8318975508711004 -1.137881778279326,2.460861107498945 l-2.244597801370698,3.0224759164604023 -2.8354214865066867,2.762086083197145 m22.005458213260287,-10.133553429008648 l2.1481069094017595,1.9608331095905664 2.3113237492938907,2.730872646603757 l1.857314898174182,2.7746605406421496 0.8221887571891292,1.9768710585078975 " fill="none" stroke="black" stroke-width="1" /></svg>