<?xml version="1.0" encoding="utf-8" ?>
<svg baseProfile="full" height="113.96698919788187" version="1.1" width="97.97935135146258" xmlns="http://www.w3.org/2000/svg" xmlns:ev="http://www.w3.org/2001/xml-events" xmlns:xlink="http://www.w3.org/1999/xlink"><defs /><rect fill="white" height="113.96698919788187" width="97.97935135146258" x="0" y="0" /><path d="M25,25 m0.0,0.0 m19.29627967306568,2.787005868313209 l0.35221115609525744,0.41591799687115916 0.46722709561658443,1.6169800841071529 l-0.06645849086756352,10.554924022646839 m8.011690265719523,-13.410180442498469 l0.5324624178793661,1.0269119397199975 0.17352918957285865,1.280574464740807 l-0.6618556442315701,10.050221832531465 m-19.603397802935724,-6.654003158154871 l1.1745594083534554,1.1681266277798417 1.5513966123975234,2.2545826708011387 l1.4462836684726688,3.2192293147637807 m25.780040362014745,-10.102944263152642 l0.10447508412121805,1.694633198328374 -0.8215693033147705,2.587721299202894 l-1.3183481234290413,2.835419240580416 -1.4512421167304768,2.282685070646228 m-34.35179255851479,4.7375794506329365 l1.797810530291613,0.388376739072006 1.8039387766678576,0.018915344710692113 l19.241732128713984,-2.351335819422716 13.318782257504335,-1.3635335769993056 l7.097809171682218,-0.3105924867815306 4.103787593317636,0.4425076117826641 m-32.91191219009225,4.771399800955775 l2.1162885790276453,2.757999062582256 1.262553017659376,2.8364058156659224 m13.757043237456795,-8.106149443675257 l-0.08313346930902851,1.146375174178582 -0.6351492059267124,1.7303533362654369 l-2.6706093977692844,4.182293528133044 m-18.625342418163445,3.7651895107991864 l3.326819350101322,0.12530988433482015 21.277029915653163,-2.486941908781093 l3.1118003865225554,0.09992773617708245 m-26.55986911984203,10.418771717928186 l3.3850530989218734,0.2634230230383007 17.905888853369092,-2.4796917381721393 l3.0881279399555415,0.08425967793055505 m-30.90384054698987,10.520061537317812 l4.135278887823452,0.3473499747808406 25.319259869400742,-3.1385653585037834 l5.448168035903584,-0.37924107285040315 3.379138294459202,0.18937583806691402 m-20.02659912952528,-13.354751546510457 l0.6500443786112983,1.1550076862420848 0.18720157944111013,1.1550626970573523 l-0.12794903948599218,33.19404123469879 m-2.9871865318247983,-19.83205073707467 l-0.5240166699708545,1.5020105783333808 -1.8023742660647657,2.6710733086506515 l-5.234720370406876,5.683276543114073 -4.9846011927897065,4.291394479482216 l-5.539472096665161,3.441548847329642 m22.16023011291303,-18.121736781095724 l15.080627136024846,13.842085019935439 2.408848172428025,1.864523693649005 l2.0060548636783593,1.2432390496501113 " fill="none" stroke="black" stroke-width="1" /></svg>