<?xml version="1.0" encoding="utf-8" ?>
<svg baseProfile="full" height="104.40277788078653" version="1.1" width="113.00406193644693" xmlns="http://www.w3.org/2000/svg" xmlns:ev="http://www.w3.org/2001/xml-events" xmlns:xlink="http://www.w3.org/1999/xlink"><defs /><rect fill="white" height="104.40277788078653" width="113.00406193644693" x="0" y="0" /><path d="M25,25 m0.0,0.0 m2.0312715018269842,19.925482925065996 l0.3674575449699789,0.09071954676944148 2.426528490814014,0.038554595052890196 l16.82628641361795,-1.9328005514438422 2.002542083471374,0.007130070287979692 m-9.65653164358152,-12.8637535997752 l1.1849311212263007,1.029772317592275 0.6640064562662488,1.4266229688150667 l-0.22210027114262976,38.277771323451844 -0.2067729775921483,2.03093824275027 l-0.5333005056551735,0.9628224393337009 -0.7602635954387846,0.14062661422263964 l-0.8831111775680329,-0.4088153326100487 -2.0938992454497787,-1.8952189551423448 m4.2694335843385405,-26.986529783150747 l-3.108534362493093,5.273577125509427 -2.626447137736506,3.8152423916074816 l-2.9853470716097066,3.636393270111838 -4.460045193323176,4.727939429961953 m14.675430478796079,-13.555901794463763 l3.2887098703708784,2.227628874269653 3.437494801895831,3.3647585640585875 m9.943955056011072,-22.835211219917035 l1.6606446400701842,2.1496596825765137 1.673575204280184,2.830877143549216 m-8.54583227209841,-7.157757884660067 l0.6938793793622761,0.7727173032040019 0.260105972554737,0.8465549629866193 l-0.2053800397609762,15.947253109279261 0.7967680457190688,0.5910686182112401 l7.328160307845278,-0.6855964923760713 5.657957114207728,-0.49865058255894973 m1.5636139287118278,-9.76352710464682 l0.34010224221603197,0.4280592643031288 0.26473844679703734,0.7531933877917474 l-0.7934811563749601,8.107152400562551 -0.9146655682963772,3.397980933307139 m-7.401844583590865,0.97283810479851 l0.5705578145748281,1.3751400335970456 -0.30095846348265326,4.347273513236669 l-0.6908924361453745,3.182047560519646 -1.080944433980478,4.132713790036664 l-1.3259731056195116,2.9828113008613566 -1.746814551682562,2.694881416045288 l-2.2601887876605913,2.4705741935821544 m13.515762886769197,-18.002169263345834 l2.16401242413016,0.22348681256489997 7.973998379784852,-1.117848031480826 l1.3215422477652954,0.07629527487800791 0.5311331739847005,0.3066605710154692 l0.22998760266894117,0.5005754348141301 -0.47971066941560536,8.93179481575476 l0.3786268286210215,4.09525084853177 0.7673517980396912,2.321501679592498 l1.2519525564708225,1.743735428823572 1.754493035564907,0.9999829027986614 l2.677466911840858,0.3526004947019238 0.9266033073902609,-0.2240544655628485 l0.866019533170704,-1.0881149910196692 -0.08989191786054768,-2.4033077269341634 m-21.072989891946044,8.590656453514098 l0.70569334746443,0.23168504566983497 1.3412173877120661,0.054462543783505894 l12.212542841411858,-2.211449446486058 m-16.74722008111162,-5.1264316352715085 l2.138057011332047,1.0393518312634504 1.8285065757585552,1.4861563056995002 l1.4677982847177897,1.6637480457480471 0.6281095374646635,1.033495196638498 m-0.20314663320374937,-5.771806208382884 l0.5011877200722265,1.7102022878272798 -0.41948866136323415,7.297976439648559 m-12.774013355909794,1.102937223698677 l2.5655881777585026,0.2103898957382883 16.97015058256912,-1.4291769877041032 l3.4245148475918996,-0.04971275425687984 2.3200683125582553,0.22685639097055904 " fill="none" stroke="black" stroke-width="1" /></svg>