<?xml version="1.0" encoding="utf-8" ?>
<svg baseProfile="full" height="102.64059168261184" version="1.1" width="111.40772939826141" xmlns="http://www.w3.org/2000/svg" xmlns:ev="http://www.w3.org/2001/xml-events" xmlns:xlink="http://www.w3.org/1999/xlink"><defs /><rect fill="white" height="102.64059168261184" width="111.40772939826141" x="0" y="0" /><path d="M25,25 m0.0,0.0 m4.629852265046153,20.102052701896998 l0.3237108941817123,0.09061009226873484 2.2320757669846305,0.03711651653186205 l12.891383370230574,-2.303766583040794 1.6968186394099296,-0.012821385986951216 m-8.485867992133684,-10.610005718867432 l1.0846139973981779,1.218968947457355 0.8090485023587547,1.533571116531262 l-0.21684473858881956,39.364339645955745 -0.23705268612616723,2.239827681978762 l-0.5371118345293393,0.9806986678862847 -0.7503871006414534,-0.01577561504115852 l-0.8288393144038911,-0.6196516188271695 -1.8420099423403753,-2.162786997513203 m4.218680683650213,-28.393989557608908 l-2.987749970900147,7.268357254605823 -2.1232400368591864,4.339215636940854 l-2.5468498093594847,4.342876358657804 -3.1894901207033266,4.706944955152319 m12.612539083232958,-17.326389528676252 l2.6326710044489836,2.6941331560721324 2.894828666426353,3.8461941567587763 m3.2489975590787257,-24.027422879687787 l0.2126008940121022,4.369195102421151 -0.658815299881403,5.36613294786356 m1.6200484335657634,-8.276992839309033 l19.37277394115749,-1.9621481762081172 5.424033107322266,-0.4849295682645363 l1.5080208485815512,0.11664524463309917 0.7715192582378596,0.3841494334926177 l0.2542782698010739,0.5571500382884408 -0.1797242839942508,0.6903701918097341 l-1.1558379849669878,1.5522035216321017 -1.9250443950478737,1.7002448129539771 m-12.703295122224082,5.775925113621083 l-0.0023640551074562153,2.8792396950921595 -0.8731151547239152,3.722079304702989 l-3.244464738546431,8.128319642615153 -1.9947739297761269,3.4921840660731527 l-2.2378907375900736,3.2414678236465915 -2.4457385940229917,2.8775157901166803 l-2.80240929002623,2.6065181373946493 m6.647566753599299,-28.164750941966126 l11.24562065722593,-1.8742301438373459 1.196767761341773,0.11147304969043323 l0.43525999768348267,0.401908746292117 0.21165511687618446,0.6657009525623911 l-0.01196501088304652,9.058400320713917 0.2342803643944562,7.7738259727855 l0.9054314485774608,1.818318181794153 1.011762062016871,0.6786110251146572 l1.6908890148247857,0.3906728463404438 5.880549050483063,0.11367979658048193 l2.4328061710534694,-0.3257827915837248 1.7660824461129176,-0.46013083466519816 l1.6148336776759065,-0.6079468243095887 0.8706305907800238,-0.6822277561639698 l0.5481468865999867,-0.9284796876496021 0.2578343572672628,-1.850118976648898 " fill="none" stroke="black" stroke-width="1" /></svg>