<?xml version="1.0" encoding="utf-8" ?>
<svg baseProfile="full" height="122.26170306956035" version="1.1" width="91.67483316815947" xmlns="http://www.w3.org/2000/svg" xmlns:ev="http://www.w3.org/2001/xml-events" xmlns:xlink="http://www.w3.org/1999/xlink"><defs /><rect fill="white" height="122.26170306956035" width="91.67483316815947" x="0" y="0" /><path d="M25,25 m0.0,0.0 m12.48941144344541,4.577387802201545 l0.4234048563605855,0.41014710051022574 2.49339741334048,3.1448218746028855 l1.5612554288350426,3.4475300164417177 m-11.474206436940463,7.568160179757789 l3.3151814563598627,0.15059170527856305 11.027257495679862,-1.853871589026873 l3.4966464601495466,0.007595676380818051 m-14.598083650792649,11.37993605673261 l3.0125894475756234,-0.0814575344483829 6.769023853621385,-1.3982918120311534 l2.4130773814146114,0.031012376427152547 m-11.914630330668531,10.642615237783277 l2.5823202595043675,-0.020401948595057694 6.425035566694804,-1.4926463057198938 l2.944460016109646,0.00699798478902391 m-12.858767886294173,10.553834457281125 l0.5264751642164545,0.9468652768603173 0.2251719293983623,1.5173702301993282 l1.521838116579608,12.890173509320103 m-1.3288121894096112,-14.153193584465807 l11.083337764386991,-2.168055488591337 1.1681985365602519,0.38758075551357607 l0.3261428068985579,1.1102896758862972 -1.8905014670595481,10.62444425143259 m-8.822270858455598,2.0020910575255613 l9.66046545719325,-1.512985503003369 m7.530946792051922,-53.47967838605342 l0.6895210828795574,6.611647238216702 0.9342738712256587,15.25872885241566 l0.3780331208204495,16.479042014924506 -0.0897919483143834,14.782541669656563 l-0.5878425445814958,0.9525282625955608 -2.0415577187806297,0.03582455063433456 l-2.1967479549529267,-1.7598008957560665 m-3.4414608355110223,-36.479054239501664 l-0.18900820988220354,0.3052211026642109 -0.47969926934713447,3.389892446810008 l-1.2029911475278277,5.197953793377996 -1.553253570298202,4.181317080652545 l-2.118278030767244,3.689166682919765 m19.085002838121756,-18.38873339850398 l1.8284034241524834,1.855159524451541 2.159253261045896,3.1796734049455466 l1.6625006862435647,3.4548527356874223 0.7301112868771115,2.55899888199362 m-4.393493576224145,3.7104581158747574 l0.005257267512775883,3.112738961926467 -1.65800615497288,5.337926361145931 l-2.7330528981834257,6.593035243239312 -3.4265166450387357,6.400871506625066 l-3.2800024908010954,4.973386589755535 -3.7044146293537583,4.628763052436808 l-3.965384086126094,4.0402425295117546 -3.4608032545874505,2.920457927871224 " fill="none" stroke="black" stroke-width="1" /></svg>