<?xml version="1.0" encoding="utf-8" ?>
<svg baseProfile="full" height="106.24035705035847" version="1.1" width="117.08059050192259" xmlns="http://www.w3.org/2000/svg" xmlns:ev="http://www.w3.org/2001/xml-events" xmlns:xlink="http://www.w3.org/1999/xlink"><defs /><rect fill="white" height="106.24035705035847" width="117.08059050192259" x="0" y="0" /><path d="M25,25 m0.0,0.0 m7.373238276778947,19.533339967482483 l0.30716534190651246,0.0915678808196187 2.111196072251348,0.043826286369154366 l13.258268679573963,-2.406350421245521 1.6412029009264077,-0.025268687906026828 m-8.375906469420144,-13.91955277019815 l0.9977210359995087,1.2981390703249478 0.663447383563599,1.8610723396636466 l-0.1972699711029379,45.77145984791323 -0.16560465340732317,2.559496592431075 l-0.44914066208783837,1.2318470227150249 -0.6458765835919644,0.20077992198899566 l-0.7446028848719771,-0.5177284571518249 -1.9107397475653287,-2.661179638696641 m3.753483560068136,-33.074475091344645 l-2.53992709050976,6.614183399997202 -2.112907498919923,4.776289911033176 l-2.394445413589288,4.5125378324610725 -3.60501874062766,5.8661991998504135 m12.339262681144715,-17.704889380496624 l2.910725342479392,3.0943528941344276 2.614380540987338,3.5921194779018104 m2.5268807174393073,-27.761920339010054 l3.7954929822121577,1.1382314325109635 20.468717659245385,-2.6183874934225853 l1.9425944290651853,-0.19552265942890354 1.2399424177124934,0.37388779002356376 l0.4767465155726023,0.5028714926547343 0.14177927658555542,0.6835664733865652 l-0.1559255923020999,0.8905284827431101 -2.310104869415083,7.8664393591797355 m-22.524025531549817,1.8584746523940614 l24.218817189014008,-2.269227587355843 m-23.84062995517903,-6.601050867469197 l-0.3187394464707686,17.213477779515287 -0.4871460766284248,6.072773398781812 l-0.7420907953093173,5.231735546269516 -1.0785745926986106,5.170323823726693 l-1.07988776211595,3.786144419295966 -1.8139898651706399,3.67278389371449 l-1.909187181458212,2.34178680279065 m29.55517181793353,-31.197837732149633 l0.20946333749682564,0.8640677513996544 -0.6241027178617606,0.9436943967892558 l-4.107398426777567,5.6955086304133085 -4.231951440038061,5.104358007355254 l-0.2906727584090253,0.7467827604575863 0.22569653658772632,0.4786105659523753 l0.8474736012773518,-0.008533731813844647 19.230251605324195,-3.910032086006519 l2.8873373278549064,0.0858399125751254 m-17.778009873896114,-5.344469535563127 l1.1292892612300418,1.0536620156665462 1.7359328966353684,2.062454213663385 l1.5777890870282523,2.17540325597673 0.6439771177292589,1.630024409747169 m-10.21788777734077,-9.576304712551153 l0.6446492704750934,0.9145683293248209 0.24759458064089962,1.6682120401023508 l-0.12832160418823274,14.945241218822586 m-8.21586791762782,-15.022197669650733 l0.23269523621622276,30.81455608296758 0.3821396614962023,1.4854686132461454 l0.9096023809637297,0.572091942878227 1.025530385587765,0.08450271922381726 l9.503106368334276,-6.635914275997992 m9.763998136025412,-15.632366995819478 l0.06286744193249173,1.0829151696430064 -0.572473702846308,1.2339917873526194 l-1.912285473480515,2.8245175065366146 m-9.958403116637381,-3.8928114868082373 l1.0673928297434587,0.7177453170812755 1.7752519337615535,1.879486774826818 l10.594881906931228,15.02027985035464 2.0944578674333467,1.6702877815874257 l1.8702398727517138,0.7179954202412333 " fill="none" stroke="black" stroke-width="1" /></svg>