<?xml version="1.0" encoding="utf-8" ?>
<svg baseProfile="full" height="107.62472359466565" version="1.1" width="109.70299513777641" xmlns="http://www.w3.org/2000/svg" xmlns:ev="http://www.w3.org/2001/xml-events" xmlns:xlink="http://www.w3.org/1999/xlink"><defs /><rect fill="white" height="107.62472359466565" width="109.70299513777641" x="0" y="0" /><path d="M25,25 m0.0,0.0 m5.0735339583451085,19.458230921920787 l0.32668706847785767,0.09972494164213644 1.7471694878498585,0.08249678785532784 l14.194156885546642,-1.6829168499332077 1.0938392417840612,0.07578612643759025 m-8.701475552246931,-13.955230825802044 l1.1046055149871155,1.3366531017252585 0.784319316994074,1.8561380825734999 l-0.2101586650264577,49.886175877696964 m-0.12382604641590635,-36.09562413782525 l-4.068523678601199,11.787092480128267 -2.1800146328849377,4.788101044497948 l-3.2481734952697363,6.192950944921295 m11.789946948697262,-18.150413127917208 l2.3847240222049244,2.563734013943158 2.6212602556885276,3.82942293730308 m0.9005933646541575,-17.5184995191028 l3.2577020610207383,0.3224419335290408 22.487154948091263,-1.9492643803655842 l4.934339551114581,-0.20467827502995115 2.1154223890190833,0.30925078666922945 m-25.4856044799221,-8.349976847510854 l0.6721695624088458,0.9125972015837749 0.3731134565840447,1.6230105761317606 l0.07981242123320431,31.77961821552975 m14.215020585196516,-35.360794242325774 l0.7039156052863735,0.9511818957462898 0.3868343721715223,1.6402260183046342 l0.1548101447337944,30.958751122394442 m-14.91625637537228,-14.916944279032563 l9.814629390421805,-0.8238556232801739 m-9.740363557766374,8.921506099943896 l9.679067492027308,-0.6312908855256857 m-21.244589314404315,9.46674805910805 l1.7823395355613658,0.3084492949604221 1.9786338913269665,-0.013440430310310829 l29.7145386338859,-2.229055980026048 3.272684414593953,-0.08955621651712371 l1.9789564157797752,0.34395026047183935 m-22.662384872706493,2.8050173965942524 l0.38237678909252587,1.3920176677905498 -1.2074969476702788,4.542072832677963 l-1.585483240944679,3.001873366722774 -2.3489164518914394,2.9212189021161525 m12.040605467455526,-13.340444840597504 l0.7297098316655672,1.5160994391468743 0.04167803573271932,6.739879945560704 l0.7114905515021669,1.4585689622893119 1.9198317943233958,0.6682180589655824 l3.059811735922189,0.12011006042729624 3.4772295445910353,-0.35754894482536176 l1.838497635912209,-0.692518028790331 m-28.372019541516384,-7.508240973213774 l0.5429178982751157,1.1809688963562819 0.38437013847826285,1.999330359134385 l0.1833120961849441,9.97017753760533 0.6006841904839563,1.588263985745016 l1.3082980406931128,1.1143546761317193 2.2565743977600348,0.6127560283939435 l7.470827985179464,0.36985116192062145 8.461018151071361,-0.282999731236644 l5.509798020374632,-0.9858868402920798 " fill="none" stroke="black" stroke-width="1" /></svg>