<?xml version="1.0" encoding="utf-8" ?>
<svg baseProfile="full" height="108.72127511667443" version="1.1" width="100.36520189915854" xmlns="http://www.w3.org/2000/svg" xmlns:ev="http://www.w3.org/2001/xml-events" xmlns:xlink="http://www.w3.org/1999/xlink"><defs /><rect fill="white" height="108.72127511667443" width="100.36520189915854" x="0" y="0" /><path d="M25,25 m0.0,0.0 m7.193389550832032,11.183291395825643 l0.44518092628641553,0.1118969807414182 1.7930167791097653,-0.030468779850095294 l7.7810363515106,-2.0711564778400438 1.1132049128937127,-0.0038448608928862917 l0.5497235484027164,0.380661143649083 0.20317284192839766,0.5618426527428585 l-0.07469278536890653,0.8282036095863909 -5.152319202146014,9.31960226337179 m-0.012878612262970884,0.5908477561378421 l1.9701168648740854,1.8344962540512355 1.4089773282256663,2.304860046922347 l1.068981314630351,2.5658170180409523 0.5744001872179696,2.9465170518765635 l-0.13860107841673958,3.1630281381654157 -0.8302943420292683,2.466888217708052 l-0.6836095280061035,0.8868246671903766 -0.8452998543787721,0.506000549795339 l-0.9646309819726776,0.061323537463141474 -1.8349615207716214,-0.905168060419986 m-6.12778508694448,-25.059751167382753 l0.5146924104847103,0.9013403802260813 0.17101963226522165,1.1570813353985165 l-0.0525630367183794,42.46470309758662 m26.75363976117174,-47.30713209624978 l-0.10573728301239996,1.5367611142891904 -0.7999498398995855,2.8514069567704596 l-1.1518965128115948,3.3913373814070504 -1.3855383200153422,3.1784795764929163 l-3.3342049589051506,5.43708462474379 -4.012009598810349,4.529496941019708 m-2.0035387072048243,-16.208005712380977 l3.3204782862084024,0.15915359286454225 19.967928822419967,-2.4589785818504546 l3.0662194097997966,0.20025781237625995 1.9362356078728276,0.3839473709452014 m-18.93872392108321,9.930037620042336 l0.46784738917003893,0.9086016572498729 0.09718291944671235,1.0643579658839082 l-0.04396700435266341,24.640770279857264 m0.46283876763305704,-25.89665254990073 l11.243045088400677,-2.271569693718684 1.3046522800976952,0.2017335002726169 l0.6876872107868649,0.8643159927603903 0.2292107579940003,27.13876697311305 l-0.19219927706744883,1.7489899466762187 -0.4529772988870677,0.7716276290239887 l-0.626410529932843,-0.01796015795218569 -0.7033759759990383,-0.5533450214735832 l-1.4567401097887345,-2.102258820144612 m-9.772229705811846,-17.32407876558134 l12.57622840431782,-1.4174896524601122 m-12.41387751255995,8.507297678194222 l12.466598616070451,-1.3209809624558229 m-25.383035468047712,-16.16286170263916 l2.5798367739504426,2.258158703736913 1.1810556801331038,1.5532059300073457 l0.6269893975068549,1.3157578359944746 m-5.701390001147929,8.484927910739396 l2.083007702746121,-0.07129480423108604 4.957066716369255,-2.639574593696931 l1.784986316903419,-0.18491056316991222 0.26024927893979105,1.192339641211134 l-3.928908161890309,6.1447369830448695 0.33029085042259326,1.053164814073623 l2.811496346715847,3.4283659537053937 0.27986426324540137,1.0276984051599054 l-0.6998319606659623,1.0864854215054554 -5.773187659097947,4.543570680456359 m-2.661014088979925,1.1350506347367408 l4.923706216338064,-0.5087553326888935 3.238574302480246,0.37997232354489613 l4.563839211594663,1.4087262641798122 12.613300823072016,4.9085618508548405 l3.2880606683278977,0.9658550970570859 3.7345513053488744,0.6712843131835531 " fill="none" stroke="black" stroke-width="1" /></svg>