<?xml version="1.0" encoding="utf-8" ?>
<svg baseProfile="full" height="111.32364187657868" version="1.1" width="99.4388142650557" xmlns="http://www.w3.org/2000/svg" xmlns:ev="http://www.w3.org/2001/xml-events" xmlns:xlink="http://www.w3.org/1999/xlink"><defs /><rect fill="white" height="111.32364187657868" width="99.4388142650557" x="0" y="0" /><path d="M25,25 m0.0,0.0 m5.561830021590812,17.832879031184948 l0.2982133260628325,0.09866839739699661 2.041896524995622,-0.009846826062046742 l12.98064627823011,-2.123006071036313 1.5703287345298178,0.0040050162951621275 m-7.95728198737003,-12.909227603459598 l0.9472373829524919,1.2689876773647404 0.6398004811702408,1.4327347549060878 l-0.18225829058623771,41.30038160088576 -0.13359169701263204,2.332847606881295 l-0.4232190948262403,1.1666851221471366 -0.6073464233922252,0.2466188769459291 l-0.7255628223809124,-0.4333289238341208 -1.7996671458246163,-2.1952321752269577 m3.5649611674400705,-29.736975795521133 l-2.3375445450173804,6.0270965489794 -1.9836893082012181,4.3678279318271755 l-2.2650600422610467,4.144936384216595 -3.380672501540436,5.373178717984553 m11.344516930479722,-16.411913712538663 l2.5769190554865795,2.5577024460280207 2.5513450589081503,3.358114941421403 m7.75460984787262,-24.760687414794237 l0.9410178113254166,0.9672938174856301 1.3427921340003581,1.7994953693684694 l1.0040431456037202,2.6990714788131323 m10.996686655109219,-7.403881715888178 l-0.1977628087364363,1.6653409661813128 -1.0023111665051812,2.646184886231458 l-1.4090443153803625,2.538535108611845 -1.4827756755839465,2.012439517876112 m-14.660887330469068,2.8437441179913594 l1.9980342310955272,0.27352146092857316 18.399712810770207,-2.2642710109768442 l2.3930126048015476,-0.14454198844501623 1.0798852177185962,0.2342288876621536 m-20.005148115583154,7.877704746991075 l0.48520417885094524,1.5726452856562658 -0.2659295321190903,17.444246603622503 m0.69764978263613,-18.213021918268282 l15.078174796825271,-1.7693557374319602 1.069999139682294,0.0545256731298243 l0.49957807630496015,0.4157385896294062 0.3071643945613132,1.1207284682715217 l-0.28788107118151834,17.767595825079713 m-16.683593052551775,-23.375050489430667 l0.44257228711500396,0.39082419639563354 0.20895834272715444,1.2307341901475504 l-0.196490111999489,7.386221545796426 -0.39317998707940927,2.2216318101703725 l-0.7382934858551117,1.9930522560705282 -1.8393601500931984,2.5599162353377833 l-1.3913811545871806,0.9755335216201456 m9.519816744514193,-15.492553667599239 l0.5074447998406681,1.7248740136565457 -0.15770817289370306,8.414073318284482 l0.22751749581479255,1.6840809638975047 0.605483214837735,0.5697519004640408 l1.331963013141823,0.28891731945769245 2.86834996500736,-0.05026314671666116 l1.4798650967307205,-0.3785559580760602 m-15.587688544225715,6.39561974946454 l14.98505225909801,-1.0770282234832687 m-16.439629574732056,6.651854324761026 l18.085926926300427,-1.1449929401121182 m-24.309490447495968,8.955275883161766 l1.0728957139078805,0.40892638988478214 1.570789985567322,0.1502609455636238 l25.03981478126209,-2.204410626710862 1.2719317608145642,0.03382721515547566 m-9.811836900297566,-4.774694410286932 l0.4450295796959114,2.668572810412591 0.14280742418092573,15.346666100605557 l-0.16902382370541733,1.8244620020686533 -0.4352720562106237,0.8229375587616087 l-0.6128507576979028,0.05276212334394058 -0.7091506066189277,-0.4789161377936628 l-1.7449023480214447,-2.087989455133892 m-9.590198285282177,-8.801177485900121 l2.358964828574546,2.4839812772849137 1.283408807353688,2.4096046548599426 " fill="none" stroke="black" stroke-width="1" /></svg>