<?xml version="1.0" encoding="utf-8" ?>
<svg baseProfile="full" height="99.69033872731683" version="1.1" width="106.00305627408129" xmlns="http://www.w3.org/2000/svg" xmlns:ev="http://www.w3.org/2001/xml-events" xmlns:xlink="http://www.w3.org/1999/xlink"><defs /><rect fill="white" height="99.69033872731683" width="106.00305627408129" x="0" y="0" /><path d="M25,25 m0.0,0.0 m2.086285087583363,20.652145816470544 l0.37653393919295924,0.09700089262995483 2.381584634226963,0.03361188445830676 l16.746027185184673,-1.767495484154739 1.9773057851469091,0.049899398657979134 m-10.07090336866875,-11.317829956836677 l1.1855720700369363,1.0065946766751999 0.7703359889415893,1.2968630657821372 l-0.23866336607109706,36.68009275090315 -0.2661691328634073,1.8899397441456611 l-0.6172087879610015,0.9227638130805249 -0.8020934005894734,0.14675212550478728 l-0.9140718577111918,-0.38946735862863696 -2.1992439265026973,-1.7913431574353844 m4.694883968667088,-26.22468241944678 l-3.270911998408194,5.007892719221961 -2.730308499637356,3.568056246972361 l-3.1008246360896683,3.45048956549192 -4.6277979777975355,4.486701963920987 m15.254789844651823,-13.16160168868235 l3.1572911401980046,1.9959424030162636 3.8051012415167675,3.1042227549653787 m10.692543180223884,-21.57229193197065 l-0.11609933499295526,2.116780983676604 -2.519178777761292,4.964815387956301 l-3.265884466935363,4.881417194113479 -3.7354461071567058,4.564086280941089 m6.375744969702146,-5.707771648458644 l0.5974983717724358,0.24125540891100453 1.3052872376768259,0.03684842679346664 l21.033604493299737,-2.196989948258725 1.0369491487680995,0.2711524814150835 l0.7960037341465646,0.7740704152568841 0.2045198922912045,1.1713292968200657 l-0.20796579263167247,2.3923743294991575 -1.718535536362568,9.449273548571867 l-1.9506108328723377,6.878613509250018 -2.353329067768738,5.822809005670521 l-2.1983933125599586,3.8648107885354777 -1.253058339936148,1.1398480489506662 l-0.683102086090168,0.23727674054481682 -1.3579520978003896,-0.13126693812908768 l-2.589369188442053,-1.7876248175129688 m-16.126918525996224,-22.141406582442233 l0.49349352573048455,1.0307166614698229 0.05071353475373597,15.15966108389257 l0.3079600979090795,1.5074304134585144 0.9570273022013188,0.9347195206472059 l1.1556992219773743,0.49806488068041066 1.5823566347457247,0.4215492286852444 l3.743479445481485,0.5585828545266852 6.9846893263109076,0.12842121810131585 l6.4873877951970025,-0.3472303337142094 3.835190725670501,-0.48887743475473594 l2.2159085316677323,-0.7176395013384917 1.5235026101064169,-1.2070647187365056 l0.4986978110177368,-1.4070854546483826 0.09404612140601312,-2.230687134902638 " fill="none" stroke="black" stroke-width="1" /></svg>