<?xml version="1.0" encoding="utf-8" ?>
<svg baseProfile="full" height="116.16658028840354" version="1.1" width="123.30454896080236" xmlns="http://www.w3.org/2000/svg" xmlns:ev="http://www.w3.org/2001/xml-events" xmlns:xlink="http://www.w3.org/1999/xlink"><defs /><rect fill="white" height="116.16658028840354" width="123.30454896080236" x="0" y="0" /><path d="M25,25 m0.0,0.0 m22.816274121543234,20.670331288978602 l0.032535119970924176,0.36849671793471134 -0.28133747668563763,0.7042722223985846 l-0.9620305907220735,1.0764921450544696 -3.027352485238748,2.5791541607878656 l-3.448383939000684,2.217306368203345 -4.088889819050971,1.7720531413277636 m12.767382515837081,6.600402549168389 l-0.15676248598556267,0.6790058118432644 -0.30936386594699267,0.5974322138333511 l-3.3227691084444766,3.613563070524032 -4.03744189299901,3.216714377414096 l-4.3995522776502565,2.659698466532091 m20.94688817931628,5.320063676224643 l-0.1800053814078932,1.0253906691742005 -0.3681738345493851,0.71550371738524 l-4.889507519968402,4.024072243023163 -6.665112743259328,4.154550624860729 l-6.992223654658752,3.0477368780348493 m28.396638962208296,-35.069609793792914 l3.2753118588413574,0.23641548265640897 21.10853442360448,-1.5137654228243635 l4.894145296783157,-0.13451605642622352 2.195745558265747,0.2447768511083441 m-16.407160107932235,2.3565827894152247 l0.0235989921355044,0.8484838499482531 -0.5265369808860985,1.8638591670771176 l-1.0665971659819993,2.171021140650235 m-7.816049524862035,0.586911809176724 l0.8431764690053064,1.4518652294278622 -0.19229538090191003,18.82903555641378 l0.2080570854434616,0.8448870990741065 m0.5991841105186905,-20.78148067809086 l19.18151133028636,-2.5407616774760244 1.3764570343989315,0.01551910713617522 l0.47960337090010535,0.2479203942087523 0.35670789832386596,0.9483835329752507 l-0.5979211893534755,21.473767700181288 m-20.98286312360344,-13.956263502362646 l13.163706912696034,-1.0259345379501845 m-13.063364845784307,7.711071219119849 l12.644767325034364,-0.9621434540333079 m-12.922279179165699,7.676795822719518 l11.166284469506103,-0.7175588220724196 m-10.444347742096005,3.5817516206492925 l0.3861632555021053,0.9035555111924446 -1.9546760767316544,0.8039369549694275 l-6.560531479651523,2.5083313292604825 -6.203133366129792,2.0393998559413578 m25.573626662574423,-6.429220610793593 l2.897146027929205,1.3807507054853347 3.0736180885780064,1.8703073505792278 l2.5951278487468277,1.8768061440704258 1.8365043460223491,1.7834582780858128 " fill="none" stroke="black" stroke-width="1" /></svg>