<?xml version="1.0" encoding="utf-8" ?>
<svg baseProfile="full" height="118.03215496150212" version="1.1" width="113.48806046602076" xmlns="http://www.w3.org/2000/svg" xmlns:ev="http://www.w3.org/2001/xml-events" xmlns:xlink="http://www.w3.org/1999/xlink"><defs /><rect fill="white" height="118.03215496150212" width="113.48806046602076" x="0" y="0" /><path d="M25,25 m0.0,0.0 m33.218918837365464,6.004394317192115 l-0.045459020349154985,0.4676638713309632 -0.8994864487338237,0.9593171925501509 l-3.3415335230231493,2.501933319904864 -3.306535765344324,1.8309014776901573 l-3.9237797901745965,1.7322739018886828 m-2.1678129768348207,-0.11138622489014018 l0.6420098934703802,0.8059595537783328 0.2779319675321194,1.2842386724475614 l0.08418841989997493,20.014543297219983 0.2802262025136916,0.13468748504971623 l0.6080535666382789,-0.3590590609272029 10.371757521476978,-6.347092090905265 m0.14426671510061065,-7.445675092585336 l0.7408286647422607,0.925028797629088 0.2928920358726534,1.827632307903041 l-0.3244640889096109,9.488670393289652 m7.4317131821742555,-16.746553760595226 l1.5893796703411385,0.24805671093930837 1.8141220522346826,-0.08660623710095353 l11.878134965779633,-2.122507669296666 1.6468478327188936,0.12173377274624894 l0.6132880005562152,2.4437976286132104 -0.9969086551720169,5.640485082025279 l-1.4959938546652578,5.99956857223147 -1.468927300955505,5.871388355615508 l-0.8470379611380376,3.061049013577313 -1.1619315519696438,2.532529302878628 l-1.1403604072052251,1.0085378188701466 -0.47835198619821995,-0.21164843330702546 l-1.2699888923419613,-1.829361940971193 m-3.887383417680658,-19.31697140446058 l0.013332727131597581,1.9005870012722161 -0.5451991964197384,2.245273566207299 l-4.757680012070031,6.41847670745611 -5.0481568677455355,4.018936297992042 m-2.1256598418494312,6.7650923009703545 l0.3152142020475152,1.669844306482316 -0.09036568854574864,1.6931266712394188 l-0.45877441186543955,6.343545552103465 -0.6987008918103299,4.722566195215031 l-0.8592888320076297,3.390902425365864 -1.1815668848301952,3.0225417243226342 l-1.2541656392609253,2.14307459396483 -1.550998823827986,1.8165555054357143 l-2.0099565732305624,1.554103183142983 m8.429003048584613,-24.61321837491403 l15.864125950388397,-2.2677901150259108 0.6766451514259267,0.029139628509895807 l0.8617248341148553,0.8702652867920742 0.19020266544450848,1.4876384917332126 l-0.15568623338990575,7.238779531092517 0.1585475989996704,12.532905604543142 l0.3713579506305423,1.6477841369605477 0.740485958477698,1.4360380332651483 l1.350127939565902,1.0132566017451354 2.2368870964785676,0.4932183891287004 l3.4811730255217324,0.0031992913529753407 2.7271603861598113,-0.45623724274076966 l1.041628581706843,-0.5968788557252146 0.6562810625971529,-1.2277676488704343 l0.23175829587765942,-1.8522270895716735 m-29.218706329960405,-16.25574316571096 l3.175470363478754,1.152311279390242 3.4901375417343528,2.23797308654567 l2.8408895276192525,2.4586337850231152 1.5028115913939728,1.9341240173946488 " fill="none" stroke="black" stroke-width="1" /></svg>