<?xml version="1.0" encoding="utf-8" ?>
<svg baseProfile="full" height="109.49251298902254" version="1.1" width="108.91991779208183" xmlns="http://www.w3.org/2000/svg" xmlns:ev="http://www.w3.org/2001/xml-events" xmlns:xlink="http://www.w3.org/1999/xlink"><defs /><rect fill="white" height="109.49251298902254" width="108.91991779208183" x="0" y="0" /><path d="M25,25 m0.0,0.0 m0.8268404006958008,16.91640615463257 l0.3729710727930069,0.11398227885365486 2.3364242911338806,0.05705488845705986 l14.531252384185791,-2.329496890306473 1.9008946418762207,-3.718661446328042e-05 m-9.334816932678223,-12.968649864196777 l0.7738214731216431,0.9118582308292389 0.6468770653009415,1.8182766437530518 l-0.20889313891530037,50.88590621948242 -0.20025521516799927,2.632897198200226 l-0.5320873111486435,1.2538900971412659 -0.7609017938375473,0.20042521879076958 l-0.8873788267374039,-0.5273274332284927 -2.388782948255539,-2.690695822238922 m4.65924859046936,-37.57862091064453 l-2.3892928659915924,6.480245590209961 -2.3847030103206635,5.327672958374023 l-6.945014595985413,12.256027460098267 m13.479998111724854,-20.845582485198975 l3.058227002620697,2.4244822561740875 3.9258861541748047,4.260098338127136 m-0.3272422030568123,-19.529132843017578 l2.3955829441547394,0.35503651946783066 28.098289966583252,-2.585255801677704 l4.486533105373383,-0.09040596894919872 1.7958371341228485,0.31529996544122696 m-28.722515106201172,-5.891379117965698 l1.0730144381523132,1.0600946843624115 0.3891206905245781,0.7782413810491562 l1.608586609363556,11.524025201797485 m14.415656328201294,-14.53533411026001 l0.31857240945100784,1.0974937677383423 -0.02609437797218561,1.2491302192211151 l-2.63179212808609,10.840301513671875 m-18.789310455322266,4.360055923461914 l1.0494700074195862,2.857631742954254 2.2996732592582703,13.393725156784058 m-1.6020417213439941,-14.77468729019165 l20.893521308898926,-2.751936912536621 2.5994080305099487,-0.27692340314388275 l0.7133029401302338,0.16081616282463074 0.9978761523962021,1.0376551747322083 l0.3217173367738724,0.9390576183795929 -2.792353332042694,13.633674383163452 m-22.085871696472168,-6.2884896993637085 l4.158780574798584,-0.23813243955373764 11.555644273757935,-1.412113755941391 m-14.65501070022583,8.562356233596802 l21.243712902069092,-1.5805584192276 m-30.65910816192627,10.90149998664856 l2.098429799079895,0.1311731245368719 14.891643524169922,-1.4122837781906128 l19.58081364631653,-1.385764479637146 2.722654938697815,0.29243551194667816 m-20.45391082763672,-5.695543885231018 l0.04341271240264177,2.66009658575058 -1.2187009304761887,5.5207884311676025 l-1.545943170785904,3.8405483961105347 -2.0725905895233154,3.3591198921203613 l-2.617257535457611,2.905910611152649 -3.181644082069397,2.4826206266880035 l-3.762350380420685,2.0882301032543182 -4.362775683403015,1.7220589518547058 m18.267083168029785,-17.89717197418213 l15.1680588722229,13.542217016220093 3.9466261863708496,2.8765013813972473 l2.813093066215515,1.155887395143509 " fill="none" stroke="black" stroke-width="1" /></svg>