<?xml version="1.0" encoding="utf-8" ?>
<svg baseProfile="full" height="106.05513675566097" version="1.1" width="109.15404269239903" xmlns="http://www.w3.org/2000/svg" xmlns:ev="http://www.w3.org/2001/xml-events" xmlns:xlink="http://www.w3.org/1999/xlink"><defs /><rect fill="white" height="106.05513675566097" width="109.15404269239903" x="0" y="0" /><path d="M25,25 m0.0,0.0 m6.4391640599409525,20.28513864281347 l0.3263112988323974,0.10702709637283439 1.9737718972596665,0.048183561980519235 l12.915867217481395,-1.886205977341427 1.6870928514850883,0.004539759882018973 m-8.200090725223626,-12.442737266634651 l0.9331436737168234,1.2665284430301893 0.2554735690674191,1.2344419383636156 l-0.18432214840170769,42.80521729522595 -0.14594545076995202,2.377247518502521 l-0.43432901444672894,1.208603731395746 -0.6179065280818126,0.25905279910351664 l-0.7177195911956713,-0.41395130345760284 -1.829444910555589,-2.171660710819799 m3.6305967116814712,-31.35998973965373 l-2.892298149919702,7.051729962497236 -2.1330419102134464,4.3810768492564645 l-2.532241483682871,4.333292557563118 -3.8406702232979018,4.780887251743481 m13.149438916404804,-15.813674775572121 l2.6278337526731392,1.9750179432534254 2.9610360921101573,3.192782377541786 m1.0675210214784647,-25.24080733072309 l1.4886720063219772,0.3027864054244701 2.141549827447941,-0.07733332394709799 l21.88860273759966,-2.3226955018059345 3.1960363637492897,-0.1244534001039304 l2.095794710124351,0.2849603392581525 m-29.434981040863885,2.6688474779788285 l-0.20798011267641278,18.38417968455185 -0.5218929961366893,6.440595001754953 l-0.8079510469703993,5.781791251065279 -1.123576719845061,5.138957572921777 l-3.192480823451505,8.022287848529654 -1.6908281807456176,2.5132775549711344 m20.500997333691988,-39.85516528129677 l-0.3021810183136098,1.0542794726518183 -2.15837395689421,2.0166960906549694 l-2.8987821928322663,1.8580308359870419 -3.0214365308359223,1.3799363724883769 m-2.182634073808782,5.508920298378703 l1.146407890793984,0.23149419605990346 8.393874153078492,-1.3790061568018988 l2.058982938587409,0.05499771630828924 m-5.45178445658453,-4.528071599572978 l0.3200044213811652,1.1101172190341793 -0.04958633450411929,16.048929238190013 m0.0840768128089163,-12.312703765632152 l-1.376929454569376,3.266753243471178 -1.495074481597234,2.5598030327860304 l-1.8514775504898702,2.2997967146171585 -2.091296831227954,1.8116431801868451 m7.66521086225759,-7.556791436926827 l2.6471139841716673,1.730983357748681 1.2174956115332458,1.3308644954877424 l0.5902537500461136,1.0709282191707612 m12.972380964827963,-17.33477584106563 l-0.08916057450217778,0.46826571876107675 -0.6056842621292116,0.687530768383486 l-1.903269284271554,1.4472028336065794 -2.2876598579587437,1.2699124216895563 l-2.9038023014893,1.1616836388288871 m-2.2838300117254096,5.405895611173723 l1.1185346678310712,0.16098167915967132 9.687687449421368,-1.2733216221224748 l1.9428942837484764,0.03866638105147845 m-6.753537410755713,-4.148037603302961 l0.2850196286507699,0.8164763102379194 -0.03167390034002538,16.98559211683893 m-0.1868601733141928,-12.87124407851421 l-2.4502059174367004,3.4701022424961967 -2.565573153393592,2.5865900766107206 l-2.9402645808678045,3.6832858993296904 m8.182506454283022,-8.632929996215532 l7.569041191050092,7.711838292738915 1.4989207256415142,0.9573803311645959 m-17.06468956559105,3.9450304580012463 l0.5519567265880196,0.4481177775901503 0.4110568149712713,1.1973583644357688 l0.15435889517376894,14.758115376196587 m0.11129140972880651,-8.81116360846125 l8.62985914988663,-1.0330274208833077 3.4128227673517446,-0.13169795184783573 m-22.672223975984426,-2.792144915746367 l0.5515155348521982,0.7262595803639977 0.3120232775621466,1.1449041102910889 l0.09956735340235037,12.04523584490238 m-9.251667171089977,0.15916105792687532 l2.2592500559094795,0.4444420335058835 28.46998167142414,-0.07667763668836346 l2.292472822763949,0.30279148186578475 2.615936460591033,0.4399600454440242 " fill="none" stroke="black" stroke-width="1" /></svg>