<?xml version="1.0" encoding="utf-8" ?>
<svg baseProfile="full" height="110.10526691041213" version="1.1" width="103.92807523790643" xmlns="http://www.w3.org/2000/svg" xmlns:ev="http://www.w3.org/2001/xml-events" xmlns:xlink="http://www.w3.org/1999/xlink"><defs /><rect fill="white" height="110.10526691041213" width="103.92807523790643" x="0" y="0" /><path d="M25,25 m0.0,0.0 m2.0268087838811932,23.671941630025852 l0.30884584180312347,0.09342295868181619 1.723234751806329,0.0722136410608621 l13.528973272481208,-1.697954192124553 1.0858411763156914,0.0646430282633113 m-7.687934870578815,-12.223438472662037 l0.9634324666743311,1.2447003907764806 0.26581978155861485,1.528057372142906 l-0.1842012450468413,43.14762473284895 -0.14678521255387578,2.2411079159707095 l-0.4032294587039195,1.1359636756819773 -0.5905529267391216,0.24842225872054216 l-0.697363361409113,-0.35176177686352933 -1.8251340478649452,-2.139327713359511 m3.4661248731324417,-31.661792841705914 l-3.765693424555867,10.262454502628051 -2.105762062723575,4.292494642708857 l-3.1603683136109377,5.478050741264531 m10.67550959342567,-16.10955701698841 l2.0262341413358342,2.1390183068074444 2.261705652904854,3.3690440542211864 m2.845636209092217,-22.626191371366392 l0.9370946428749025,0.1913896933767505 9.063500695064187,-1.1837879304827983 l0.6976313856154823,-0.0010592070769400784 0.532963105931509,0.2870661932829797 l0.2866366490216025,0.8453068872738573 -0.22283110455517305,16.224444878909672 m-4.998790886614766,-14.633882675767282 l-0.08203190862336099,0.6890967952949564 -0.4516528674205248,0.9593123871107085 l-1.6974366341750713,2.2086837807627844 -2.0631644849030537,1.8843007124829372 l-2.470420230844403,1.641596474792604 m9.55730267282083,-2.7499973734174787 l-0.06014402472358825,0.9143586703271434 -0.4438115938596962,0.952923228907219 l-2.3021496718468617,2.993521961029928 -3.0736361748337098,2.7719479166878638 l-3.384258667883465,2.191233846328601 m15.943804858922991,-17.403530340848683 l0.860867270009057,0.3694499470104064 1.48447640747766,-0.07224626881529524 l8.09838814088953,-1.2595450603515093 0.8912435783575768,0.511675333529669 l0.18929418315097724,17.98123013854057 m-4.544129800144756,-16.399517179020286 l-0.04161595868149589,0.6614258286715861 -0.46371140868076843,0.8348222278350725 l-2.076665488041418,2.2568311637099434 -2.6671056148742083,2.022203187035577 l-2.675932859772996,1.4524322042079634 m10.969514710645376,-2.6448982030014228 l-0.048447997792957685,0.7670901226747968 -0.4710553034829135,0.8674076374936086 l-1.9763518303187946,2.3158674960282086 -2.5738270211738525,2.167969845075521 l-3.198168529081036,1.9094838756383203 m-2.270637521680892,2.087891796514517 l0.07206826303135208,0.9085570907802193 -0.6835022002121403,1.1966945458673073 l-2.0185945547590487,2.336271854606625 -2.8669311067728187,2.69517541834268 l-5.917966779856478,4.355476303288173 -5.861214751268334,3.2127256348468225 m16.88076022311014,-12.677644320801932 l5.66524224942879,4.445014183129381 8.827688981363776,6.145897632528574 l1.9593042702951793,1.1054479908972998 2.0053383061495964,0.49484656178080344 m-16.218102723749883,-5.549509521061316 l-0.0849337889402751,0.9713629124089548 -0.6081223943578794,0.7285996980962994 l-3.7255963871111843,3.0887095232102584 -4.762703713942301,2.8021375678920823 l-5.281465072627609,2.263573568616551 m17.840158575229957,-3.618945228874336 l-0.10004051675601888,0.9940026780926206 -0.7189866106449971,0.712275246723485 l-4.773115282691369,3.464604922314306 -6.292875402272886,3.184466550385482 l-6.218618413397612,2.2861264812533277 m22.708617671092693,-4.078078768339157 l-0.13818602301865907,1.1203393793330179 -1.0847321946829964,1.085383705035488 l-2.409573625242926,1.661195540455106 -3.4786167086671416,1.9042328181866996 l-7.547295257442046,3.199782572160546 -9.5742774994056,2.8749079107715905 " fill="none" stroke="black" stroke-width="1" /></svg>