<?xml version="1.0" encoding="utf-8" ?>
<svg baseProfile="full" height="109.49251612182707" version="1.1" width="109.00834348751232" xmlns="http://www.w3.org/2000/svg" xmlns:ev="http://www.w3.org/2001/xml-events" xmlns:xlink="http://www.w3.org/1999/xlink"><defs /><rect fill="white" height="109.49251612182707" width="109.00834348751232" x="0" y="0" /><path d="M25,25.00000374403271 m0.0,0.0 m1.8720687925815582,18.81731152534485 l0.3624596446752548,0.11497556231915951 1.8817555904388428,0.09902313351631165 l15.233421325683594,-2.354554682970047 1.8507356941699982,-3.6878161608910887e-05 m-8.75028133392334,-13.896870613098145 l0.7201988995075226,0.44911276549100876 0.6864816695451736,0.9110380709171295 l0.30589908361434937,1.6919279098510742 -0.20716043189167976,49.77531433105469 l-0.20921507850289345,2.5503671169281006 -0.5495899543166161,1.0924364626407623 l-0.7727976143360138,0.004009183030575514 -0.8786696195602417,-0.714804157614708 l-2.099568545818329,-2.7600881457328796 m4.4048115611076355,-35.885863304138184 l-3.3009114861488342,8.184506893157959 -2.5217077136039734,5.318547487258911 l-2.8770866990089417,4.991490840911865 -3.5918906331062317,5.197839736938477 m14.015555381774902,-19.80951428413391 l2.6639941334724426,2.71575003862381 2.9504212737083435,4.0855103731155396 m26.132161617279053,-30.577433109283447 l-0.1035960204899311,0.8355116099119186 -1.0054461658000946,1.0767580568790436 l-4.207734763622284,2.5080522894859314 -6.536411643028259,2.455790489912033 l-7.40429162979126,1.9699259102344513 m-2.6865845918655396,7.050935626029968 l2.6865845918655396,0.18639540299773216 2.137668877840042,-0.19056526944041252 l19.627104997634888,-2.802065908908844 2.424939125776291,-0.11685371398925781 l3.2857388257980347,0.28523676097393036 m-17.17687726020813,-5.1708656549453735 l0.3203131631016731,0.5482412874698639 -0.016394976992160082,0.7296396791934967 l-2.799874246120453,5.702923536300659 -2.405046224594116,4.132377207279205 l-3.8950082659721375,5.205257534980774 -4.047409892082214,3.956710398197174 m17.068982124328613,-13.832134008407593 l11.520147323608398,9.236820936203003 2.794479727745056,1.819041669368744 l2.105974853038788,0.7802575826644897 m-27.383739948272705,-3.107374906539917 l0.49732834100723267,0.40056005120277405 1.6503715515136719,8.94887626171112 m-0.8840643614530563,-8.216201663017273 l13.10687780380249,-2.5619152188301086 0.6544503569602966,0.061913165263831615 l0.5893762409687042,0.32992254942655563 0.5030602961778641,0.8371975272893906 l-1.4017072319984436,6.850655674934387 m-12.699236869812012,1.9259250164031982 l13.562396764755249,-2.1545276045799255 m-23.067944049835205,7.450147271156311 l1.0361288487911224,1.7448638379573822 2.022959440946579,20.00575065612793 m-2.195662409067154,-20.370569229125977 l30.66054344177246,-3.436475694179535 1.3314913213253021,0.4408520832657814 l0.4046061262488365,0.5688087642192841 0.3526816889643669,1.729016751050949 l-0.2947302535176277,3.3825072646141052 -1.7855773866176605,10.16741394996643 l-1.8180301785469055,6.8836987018585205 -0.717838704586029,1.1271651834249496 l-0.5492528155446053,0.1169143058359623 -1.7809411883354187,-1.0083121061325073 l-1.3520587980747223,-1.2650683522224426 m-16.043981313705444,-13.896870613098145 l0.5317198485136032,0.40730345994234085 1.760963797569275,9.093185067176819 m-0.9461040049791336,-8.976861238479614 l12.12132453918457,-2.005876898765564 0.6072463467717171,0.349309965968132 l0.2744472771883011,1.5526759624481201 -1.4983069896697998,6.338154673576355 m-10.69778561592102,1.4916478097438812 l11.621298789978027,-1.7194917798042297 " fill="none" stroke="black" stroke-width="1" /></svg>