<?xml version="1.0" encoding="utf-8" ?>
<svg baseProfile="full" height="104.61264947714218" version="1.1" width="105.23674377979037" xmlns="http://www.w3.org/2000/svg" xmlns:ev="http://www.w3.org/2001/xml-events" xmlns:xlink="http://www.w3.org/1999/xlink"><defs /><rect fill="white" height="104.61264947714218" width="105.23674377979037" x="0" y="0" /><path d="M25,25 m0.0,0.0 m15.839497807638928,15.22757146247591 l0.44737587283650443,0.11813837551277007 2.3732760119901255,0.0552746111950345 l24.629105314179018,-1.8301952337805705 4.081262290727266,-0.12088351465382265 l2.429521776001977,0.2038884411177206 m-26.635139812570106,-3.5226136296260133 l0.8347867583568164,0.7053042888389915 0.2587689066304499,0.5840036553498065 l1.0364291927206635,7.041006582905261 m14.08228186088381,-9.542009012243819 l0.21735609240692114,1.2075285492737602 -2.7336250322840616,7.0149386231086694 m-16.112059440820946,4.1050863248247875 l0.5605320509901784,0.6089255254852455 0.24083999407696044,1.1366982880424399 l0.03618013759275821,15.134763943691368 m0.4239410637943076,-16.185843750244494 l20.48206339988182,-1.624866467941064 1.647814316743606,0.010960074793998843 m-12.770966523458917,6.162025433726838 l4.082822903822865,-0.7136760279183968 6.6518531197389175,-1.009724298162567 l1.796194719741,0.06782237317655632 m-16.746190238996686,7.0830571357462855 l15.334298957669796,-1.4765256427168432 3.34899283285546,0.04508610265918554 m-30.180422435740503,7.474249504552174 l1.7060907037163824,0.2311680051259211 2.004418983776008,-0.02388395996071472 l32.21341898736869,-2.388709417594099 3.656023207520346,0.510893073989359 m-22.307571118939908,3.3071490674408515 l0.558675360653077,0.7581745000989089 0.1905045969367163,0.8130121833181514 l-0.1314810621395102,12.065374899813918 -0.31880025524241323,0.9618577275029001 l-0.40101453278738775,0.4176216782177625 -0.513893356811526,-0.030390106253139055 l-0.6131696787938566,-0.3941696417344083 -1.7336429385442178,-1.820521518829199 m-7.441327713888854,-7.879695997455622 l-0.2576828445665342,1.210780210931915 -2.292003929413152,2.308906496933452 l-3.2485773118368155,2.4283220078292125 -3.9562909166666027,2.6504242604017203 m29.54868722262072,-9.6347854095666 l2.660933048442756,1.7726113239068677 2.689884229826978,2.281910929681546 l2.256503809537093,2.3820243294137486 1.3003160490683296,1.9706011296592458 " fill="none" stroke="black" stroke-width="1" /></svg>