<?xml version="1.0" encoding="utf-8" ?>
<svg baseProfile="full" height="106.8914809667599" version="1.1" width="109.27291938530394" xmlns="http://www.w3.org/2000/svg" xmlns:ev="http://www.w3.org/2001/xml-events" xmlns:xlink="http://www.w3.org/1999/xlink"><defs /><rect fill="white" height="106.8914809667599" width="109.27291938530394" x="0" y="0" /><path d="M25,25 m0.0,0.0 m6.761788621894709,19.125627124237123 l0.5682482445570575,0.10540834506423377 2.5816003289180665,-0.008999196192783122 l12.213730210301422,-2.3705460237343634 2.0091793040553205,-0.08037637503485767 m-7.806487369816056,-13.468203271204061 l0.7291566357958708,1.3824572118538232 0.21277122466082038,2.012845443181467 l0.002033433224665847,50.193267708589325 m-0.47930446121905185,-37.78476103634408 l-0.7368488167750024,3.3696740876917257 -3.3919715388092877,8.001110025112927 l-3.0611892465808404,5.7506992551649745 -3.789202465621423,5.802307319499058 m13.327364349845503,-17.93755987402125 l2.0725948831661,2.2883188492816178 2.601652136446351,3.9373984324767277 m13.790636631351747,-29.721174065589423 l0.3888686812536963,1.1868839915023164 0.09926484503177194,1.277696769799555 l-0.015065132905137639,5.644695354406155 -0.423993233594601,6.195684364635496 l-1.0049323606211573,6.585642072115843 -1.3738362055951365,6.172687705158609 l-1.6861528591391002,5.427147100574213 -2.1337958148500324,4.953747989267848 l-2.7195417710333056,4.599674473003382 -2.876672336284861,3.611485263612644 m3.661308025184678,-28.82270455370725 l1.6565475500426288,0.2760446639757484 1.7086412048049586,-0.2109908229907709 l13.448761012111014,-4.482410492510795 1.2636525702383465,0.43648276726748675 l0.2085113580776297,0.6168559460995375 -2.0586187953620936,19.52121139609673 l0.15429509802965377,3.4183260888981035 0.7421982895434994,2.1394061617536217 l1.358604782812698,1.0936621506882458 2.4256581124036503,0.485860418836788 l3.8400674309668656,0.015621308668165452 2.7581502369551845,-0.4009576255391692 l1.1669621609777112,-0.5155867306368742 0.8286356254011137,-1.2068209289964178 l0.2496488054582871,-1.8121761478255556 m-28.10394223394061,-14.256217997174474 l2.512020650795679,1.3432388099198695 2.391184811140337,1.9608225742943226 l2.179194539548638,2.257622576960837 1.1731042195424808,1.763505823923844 " fill="none" stroke="black" stroke-width="1" /></svg>