<?xml version="1.0" encoding="utf-8" ?>
<svg baseProfile="full" height="109.13385652602756" version="1.1" width="109.49251216201355" xmlns="http://www.w3.org/2000/svg" xmlns:ev="http://www.w3.org/2001/xml-events" xmlns:xlink="http://www.w3.org/1999/xlink"><defs /><rect fill="white" height="109.13385652602756" width="109.49251216201355" x="0" y="0" /><path d="M25,25 m0.0,0.0 m4.2845389458534555e-08,20.21826982498169 l0.3652159869670868,0.11161226779222488 2.2878435254096985,0.055868555791676044 l14.229108095169067,-2.281060069799423 1.8613697588443756,-3.641339844762115e-05 m-8.458895087242126,-15.085384845733643 l1.080167070031166,1.4060983061790466 0.31099123880267143,1.6080157458782196 l-0.20454967394471169,48.80643844604492 -0.1955919712781906,2.7059942483901978 l-0.5176945403218269,1.3217024505138397 -0.7357587665319443,0.2663380093872547 l-0.8502840250730515,-0.4610976576805115 -2.200617790222168,-2.4689534306526184 m4.391914010047913,-35.60406446456909 l-4.385754466056824,12.43665337562561 -2.2915056347846985,4.983184337615967 l-3.434428572654724,6.484664678573608 m11.836060285568237,-20.071232318878174 l2.677362859249115,2.6815244555473328 2.9678377509117126,4.03402179479599 m8.416280746459961,-27.6139235496521 l0.15426795929670334,1.0756725817918777 -0.22925876080989838,1.0653520375490189 l-2.939372956752777,6.463024616241455 -1.458367109298706,2.3397792875766754 l-0.20156897604465485,1.4155864715576172 0.2015845850110054,0.47308284789323807 l2.66571044921875,1.1961905658245087 2.0045265555381775,1.5241192281246185 m2.4756117165088654,-6.477340459823608 l3.641339844762115e-05,1.8274116516113281 -2.97899067401886,5.59209942817688 l-4.255082905292511,6.8175870180130005 -0.25834785774350166,0.9747971594333649 l0.4098276048898697,0.5250187963247299 0.605253092944622,0.034082941710948944 l9.082126021385193,-3.3204028010368347 m-1.6086815297603607,-2.2505560517311096 l1.864698976278305,2.7096563577651978 0.9446676075458527,2.4176833033561707 m11.676257848739624,-26.782948970794678 l0.15426795929670334,1.0756725817918777 -0.22925876080989838,1.0653520375490189 l-2.7552667260169983,6.018573045730591 -1.5264497697353363,2.4439840018749237 l-0.20156897604465485,1.4155864715576172 0.2015845850110054,0.47308284789323807 l2.66571044921875,1.1961905658245087 2.0045265555381775,1.5241192281246185 m5.886070132255554,-11.250118017196655 l3.641339844762115e-05,1.8274116516113281 -1.6050194203853607,3.09151828289032 l-3.3680105209350586,5.7062917947769165 -3.9651072025299072,5.656353235244751 l-0.3004625625908375,0.9461656957864761 0.4327992722392082,0.5416649207472801 l0.6312210857868195,0.04619299899786711 9.075134992599487,-3.3204028010368347 m-1.2611104547977448,-3.4224435687065125 l2.786228358745575,3.592899739742279 1.2638570368289948,2.8501495718955994 m-35.73190689086914,14.307677745819092 l1.2075099349021912,0.3397474065423012 1.8883363902568817,0.02846487332135439 l29.063801765441895,-4.959088861942291 5.7915198802948,-0.684821605682373 l2.080099731683731,0.39380569010972977 m-30.724751949310303,5.358721017837524 l-1.176568940281868,6.298894286155701 -1.875685453414917,5.394676327705383 l-2.4701185524463654,4.504441320896149 -3.4304335713386536,4.133565723896027 m9.593494534492493,-13.615199327468872 l3.4131217002868652,2.4028682708740234 2.7705812454223633,3.3924803137779236 m-2.080099731683731,-48.580050468444824 l0.9213630110025406,1.3666468858718872 0.36463338881731033,1.1132928729057312 l1.3171662390232086,12.455296516418457 2.144353836774826,10.507034063339233 l2.4223440885543823,7.982150316238403 3.023602068424225,7.33761191368103 l2.646733820438385,4.929916560649872 2.9596811532974243,4.322665631771088 l3.2619747519493103,3.6108773946762085 2.337116003036499,1.9602476060390472 l3.193392753601074,1.8723562359809875 1.033058539032936,-0.11643964797258377 l0.34016359597444534,-1.2904076278209686 -0.2409110590815544,-4.1781774163246155 m-7.686514854431152,-16.981711387634277 l-0.10229043662548065,1.9495943188667297 -1.0204075276851654,2.480272799730301 l-1.7856298387050629,3.1507784128189087 -2.528546452522278,3.5449588298797607 l-2.5425291061401367,2.934378981590271 -2.9929733276367188,2.8677943348884583 l-3.4304335713386536,2.6593849062919617 -2.8538116812705994,1.7731451988220215 m12.5178861618042,-31.683568954467773 l2.315143048763275,1.613176017999649 1.2714311480522156,1.455204337835312 " fill="none" stroke="black" stroke-width="1" /></svg>