<?xml version="1.0" encoding="utf-8" ?>
<svg baseProfile="full" height="111.46538883928812" version="1.1" width="102.6121478692752" xmlns="http://www.w3.org/2000/svg" xmlns:ev="http://www.w3.org/2001/xml-events" xmlns:xlink="http://www.w3.org/1999/xlink"><defs /><rect fill="white" height="111.46538883928812" width="102.6121478692752" x="0" y="0" /><path d="M25,25 m0.0,0.0 m7.259183115362591,19.643035173309713 l0.49988309763170674,0.09232900725381053 2.954324463035643,-0.007517093594024394 l10.686250201560993,-1.998648190257867 1.8045151928288965,-0.037409215518686804 m-7.207616253815059,-11.979347895858114 l0.7370411421687132,1.420870514289061 0.18047121189223236,1.8286492525296572 l-0.01985204714930412,46.888076325801734 m-0.44954943229813016,-36.04426616153736 l-0.6327258768861846,3.1409488672909758 -3.051231678744908,7.848889785852188 l-2.7177619778006643,5.398774618572817 -3.6267939299955763,6.145539867632769 m12.201580258456678,-17.84330798420094 l2.0672818916249867,2.198352286045042 2.5770408813898826,3.649762553006132 m2.0291379862410093,-20.66313717592588 l3.0945334477503605,0.22536504413820643 17.9590890194178,-2.1507251280302064 l3.8182596988699546,-0.2747882037748981 2.4490874577335817,0.2249574119714301 m-26.478513885764492,14.437844662247041 l0.5375606520600176,1.3922660100848865 0.1501367810355836,1.3782162152213608 l-0.026442398214828265,29.585053278943526 m0.5275353385179432,-31.290340604031933 l21.11610748511404,-3.0071309162445994 1.738975479530858,0.24271701613883173 l0.7343470046543482,0.7502601731470329 0.4184525200573559,1.967495372406501 l-0.05002550543605469,30.333413878186903 m-16.88123130150323,-40.82187471286272 l0.5874380244506423,1.460858573308889 0.0571562315035396,3.478952278144334 l-0.3138771345326444,7.060499724714249 -0.668829694537474,5.222016617607258 l-0.7095314198921135,3.0229577698580377 -1.0085537875874535,2.70726425617694 l-1.2983227172379364,2.334212576817344 -1.277710147144932,1.6637110530937111 m11.63344250708808,-27.78479087611171 l0.4975334765195315,0.8589514521705574 0.2333125009891191,1.5189446791953203 l-0.018859196681224506,18.522037449981763 0.23552055387651769,2.4853770320381763 l0.4946869212195643,1.3035669370017524 0.850877582639897,0.7871541560500968 l2.050059470797566,0.30748759733592024 3.0928480872633743,-0.3219220805940108 l1.7683627484539832,-0.7568519116265391 m-22.97838596313751,14.98123559558935 l23.52735908868465,-1.5242743505721927 m-23.527137050730936,11.463676276876479 l22.870703533181594,-1.7444728692275673 " fill="none" stroke="black" stroke-width="1" /></svg>