<?xml version="1.0" encoding="utf-8" ?>
<svg baseProfile="full" height="104.46839082561885" version="1.1" width="104.45082825561593" xmlns="http://www.w3.org/2000/svg" xmlns:ev="http://www.w3.org/2001/xml-events" xmlns:xlink="http://www.w3.org/1999/xlink"><defs /><rect fill="white" height="104.46839082561885" width="104.45082825561593" x="0" y="0" /><path d="M25,25 m0.0,0.0 m11.209635225555967,4.610143937766449 l0.41225260622277615,0.282703752449826 2.514464081058351,2.724863696731384 l1.35756086677735,2.5278885772610913 m-10.829423298417051,6.5474945586809445 l3.463927000413395,-0.05640510208952629 9.946952679483006,-1.5687270227755068 l3.330623897991381,0.012241036681940461 m-13.849797558145646,10.456803500954095 l3.5277473218393474,-0.0803044594762363 6.640094331604645,-1.1710298509004313 l2.3426282167800982,0.07835593343793079 m-12.271026991278257,9.061506050574275 l2.69167140508118,-0.0017363132322755004 6.659106637056934,-1.2449431065874665 l3.0232178066953574,0.007731827450529307 m-12.715817332082757,9.538573710094864 l0.5368502915657527,0.8488287931489976 0.24433028733508186,1.4157628550099193 l1.3990796550356517,10.47863845043806 m-1.1506379077310764,-11.865688605846 l10.34368197519548,-1.8548410514955862 1.144999056483793,0.12755353363113467 l0.4278483520479488,0.5201630630014018 0.052953480151937515,0.6485092226558775 l-1.7147548022601768,8.743528491223197 m-8.386222070315979,1.6572129849598862 l9.28946951052302,-1.1860112133091354 m13.58649463229079,-46.43629814165378 l-0.028639154745612953,2.7512667685025125 -2.612857379142007,5.852021082317902 l-3.3473287351999734,5.579884421379686 -4.593796286857484,6.09240057372619 m6.954032417428154,-6.853558084789722 l0.6082560139051377,1.6470831435514226 0.13204908998330134,1.9910019808834467 l-0.18973457804144034,29.87656647612085 m14.438567021103061,-43.074327745613004 l-0.1391925164973857,1.5884370326018384 -0.7934120996239077,2.3055195439371694 l-3.027906877825231,6.46027898694255 m-10.611310686116957,2.1396532986642014 l22.309313989280287,-3.0983711448237647 m-11.175440240260496,3.1316172782283096 l0.3769263431199,1.1398817886023271 -0.11437439024211851,26.88822541123292 m-10.978322049029567,-18.95532547951572 l20.754967486659723,-2.489259635507176 m-21.176612512358677,11.596899013097072 l21.25686435756898,-2.3333112033156547 m-21.12910803284852,13.373950936204123 l24.30997771839847,-2.4027528085737635 " fill="none" stroke="black" stroke-width="1" /></svg>