<?xml version="1.0" encoding="utf-8" ?>
<svg baseProfile="full" height="106.70870076879831" version="1.1" width="113.03164588024825" xmlns="http://www.w3.org/2000/svg" xmlns:ev="http://www.w3.org/2001/xml-events" xmlns:xlink="http://www.w3.org/1999/xlink"><defs /><rect fill="white" height="106.70870076879831" width="113.03164588024825" x="0" y="0" /><path d="M25,25 m0.0,0.0 m8.886986073771913,19.822100936990854 l0.3062542624552324,0.09700270682418052 2.1956774455736587,-0.018469208740429476 l11.469226154431038,-2.4193459026768274 1.5257135997066786,-0.010076860637971377 m-6.984741167730284,-12.500218688945951 l1.3504113297842215,1.5908965128275432 0.3310665798838554,1.3867351728208748 l-0.17851846409532393,44.58437400152516 -0.17100713476486445,2.697406418505711 l-0.45578773349676927,1.3018061344270733 -0.6384310817873403,0.1764895458780954 l-0.7302596155630723,-0.5756556628573415 -1.7743251684385941,-2.582806699401956 m3.725048659662089,-33.00521904638806 l-2.9613894007246513,8.883302670693066 -2.0542731889204355,4.996592930044892 l-2.628649427899925,5.3563176459877315 -3.124198469914875,5.420822784980547 m12.103973342747546,-19.503701030421297 l2.5310638874277545,3.069888352775856 2.8107211649670165,4.433202934194111 m2.1277953177989137,-16.266354805999747 l0.9345635709101672,0.1751177860084875 1.4802345348555341,-0.10881629428632594 l10.221287099965165,-1.9149138377268564 1.0317015653208566,0.48426270995545734 l0.42955875925887516,1.2194646816671202 -0.3093649338660004,6.352022869253516 l-1.0216253931319101,20.081553774721268 -0.8663526716827097,8.875468596984208 l-1.0071374179898611,3.0952678670375198 -0.6903106850278701,0.6276535455971172 l-0.6703132094793965,-0.044458306785323747 -0.6462638031535465,-0.5061453764190708 l-1.5109644281658658,-2.335241417777764 m0.21723350192722632,-46.20334975704837 l0.2520940859376335,3.1258679898785338 -0.8568484562874702,9.702310344047827 l-1.0886614501635155,7.407370967333038 -1.2620308496050414,6.1341900720312985 l-1.6842553796407356,5.932438123200218 -3.9002419425572463,4.2459370464037285 l-2.6579964589425944,1.494966166639863 m25.018063431279984,-33.7313755092606 l0.7915402428161181,1.658204435817417 0.28614221967214665,3.1110306807495625 l0.9790208422365562,31.276027514876727 m-1.32730005168518,-34.73168684502791 l8.09971745126648,-1.6501787695098842 3.4183395077723615,-0.5591971340647791 l1.0757318584032292,0.2899182195644632 0.633727375131063,1.0276227046238613 l-2.3917250352832564,32.77855940045752 m-8.72708782071238,1.0807742609138742 l10.099401299393103,-1.0074905895660198 " fill="none" stroke="black" stroke-width="1" /></svg>