<?xml version="1.0" encoding="utf-8" ?>
<svg baseProfile="full" height="110.41417276799518" version="1.1" width="114.83447979525486" xmlns="http://www.w3.org/2000/svg" xmlns:ev="http://www.w3.org/2001/xml-events" xmlns:xlink="http://www.w3.org/1999/xlink"><defs /><rect fill="white" height="110.41417276799518" width="114.83447979525486" x="0" y="0" /><path d="M25,25 m0.0,0.0 m6.4696773267461,19.95323010540486 l0.3039100919681835,0.13415925124222106 1.650461316052377,0.04094302627995387 l13.241829889854792,-2.0261020913491676 1.550172288075852,0.002942622048862219 m-8.225846069584998,-13.153281340681495 l0.852742944894573,1.1542024637361696 0.49544158214636164,2.0238412251617537 l-0.1893915253254546,48.21571653307147 -0.16034876298210463,2.6035132575413926 l-0.44825815907539757,1.2634341317204456 -0.6371785253154144,0.20157358381871188 l-0.7486823339029249,-0.540662681005572 -2.00669553860909,-2.628213629737846 m3.8887645697093265,-35.37276897748646 l-2.617136123803673,7.914244356694224 -2.0861209061088135,5.565152884573694 l-2.3817627647463664,5.269894907360722 -3.617690033866469,6.875648501613821 m12.181126527493664,-20.565682525219337 l2.2760573117383616,2.558193117735079 2.7164293536579533,4.237924465011225 m1.7617828838106453,-21.938476230423493 l1.3460327891357338,0.30757326705643345 2.339278906915202,-0.07706551037538337 l21.3452131857078,-2.2972004143774525 3.107435023088199,-0.1297494500027323 l2.069624033080157,0.3124925644731859 m-24.307626651325023,-5.974246116213002 l0.8874189997873206,1.3965834198360252 0.898436817273628,11.070727565588584 m11.559787300012065,-13.212522996296027 l0.5186453043796738,2.072532141511725 -1.5805792861193542,10.441351220628677 m-16.729728139335247,4.620961686384251 l0.5811240399005128,0.739384182297895 0.667123001636012,10.70525745377242 l0.8371270937527328,9.947687027149039 m-1.555492059960081,-20.44985369910196 l20.340718998576726,-2.5464658234739295 1.7914097882500106,0.05455899006918431 l0.9414663196460344,0.8839014353114999 0.2683076148605089,1.3127282447338722 l-1.000485255285587,10.325043275120217 m-20.69862134814619,2.4020059613241465 l21.33213517264437,-2.0377267183520456 m-16.24669028628914,9.909712628926016 l6.876584659136276,-1.1659899732033259 8.75731902916671,-0.7744092459772324 l3.2861353893430225,0.14215939990738768 m-23.344649020230616,10.924030270683158 l2.2727824603464954,0.31425566013678086 20.556610163731516,-2.1176767980261673 l4.264494727504609,-0.14458020799501356 1.9091446341634237,0.30639197827073916 m-15.563260206980305,-31.0712032276276 l0.7712207854986588,1.2637079596898484 0.27963718610823185,1.246233820119631 l-0.08893949413987132,22.290847449596004 -0.6616281628289084,12.60088856301354 l-1.0321134601801014,2.6405615626405092 -2.0373734676747643,1.2981799025814906 l-3.0483964222777784,0.05581354687703689 -4.826991108249432,0.20049300874000905 m17.002076037493914,-14.87675577656879 l5.4107818963775705,1.961310161677627 4.359563115765215,2.795577855241954 l3.7030942031331007,3.2333423154126137 3.007040145034342,3.6089452619202738 " fill="none" stroke="black" stroke-width="1" /></svg>