<?xml version="1.0" encoding="utf-8" ?>
<svg baseProfile="full" height="99.68198135448696" version="1.1" width="97.62015935150117" xmlns="http://www.w3.org/2000/svg" xmlns:ev="http://www.w3.org/2001/xml-events" xmlns:xlink="http://www.w3.org/1999/xlink"><defs /><rect fill="white" height="99.68198135448696" width="97.62015935150117" x="0" y="0" /><path d="M25,25 m0.0,0.0 m6.310491673558355,17.86569301594191 l0.2959445752471498,0.09725606450402847 1.5002789437117772,0.08268012246569154 l12.526334502396756,-1.0593562580541502 0.9861965111039014,0.05687409895971725 m-7.21314484934803,-10.69787770474541 l0.9017400867458039,0.840678564044822 0.5558899060566248,1.3803198883116037 l-0.16675617568398776,36.55285231548858 -0.1809312771290277,1.8502434267245083 l-0.4347832426159819,0.883373121256236 -0.6066324531296171,0.11858759710507365 l-0.6958152023689326,-0.41418702281527786 -1.6655731125038744,-1.797305084763458 m3.575319133901197,-26.363721001432385 l-3.0340849722301515,6.751570872033891 -2.0799779274043253,3.8394922505238553 l-2.551298789503953,3.9288496853223855 -3.0995345624705206,3.908138717362667 m11.977662852988727,-14.059911062680928 l2.1005225103606926,1.9241639212806807 2.4797111777552034,3.1362935278129793 m3.4957128783131988,-21.49064250798084 l1.126516301631152,0.172522320272351 1.671463546475517,-0.04321098122122079 l18.207630393281615,-1.5082638698823077 1.049304569608198,0.15596950116898753 l0.5879723527537077,0.3508618763232893 m-23.479034622769518,-3.6799455653051916 l0.9977396790689258,1.5245884843296624 1.0525566431941136,12.690393026960237 m10.428860934521378,-14.628691083353635 l0.5419523075435465,0.7169075459612972 0.2900132582387992,1.3706280406210414 l-1.2983944212463967,11.715093568596973 m-9.919246108980236,1.2266183208050028 l10.885857093750435,-0.9606481111932343 m-17.074967556474483,6.552729307949964 l0.56536288478487,0.4873132081216569 0.7308294033395742,1.899367464492034 l1.3045279675502466,6.818321065545235 m-1.4419263101479185,-8.499473897973425 l18.0121087426804,-1.8075995317658489 2.8124056268304876,-0.1578675866051913 l0.844861485324017,0.3003393234524389 0.37695399359929554,0.7506086126288377 l-1.9190778081965967,7.11492133340901 m-18.86743197052397,1.4101968981600823 l20.048628397959448,-1.3521031260602339 m-12.203428640296458,-12.125231247439231 l0.7239620537636706,0.764020638296856 0.35036279593787745,1.247100604601709 l0.13617033135360251,28.088736355618423 m-10.477505343929158,1.3868222022977952 l0.7943398980660119,0.34557342610982605 0.8848298532230104,0.02131668289760228 l18.14257823796887,-4.741230406016484 m-2.3732821925073275,-3.3258860002281256 l1.556743617450625,1.4043858681547516 1.884795066862941,2.307766594191586 l1.4331382961246952,2.2811224416546607 0.6980358444461215,1.6380567782348854 " fill="none" stroke="black" stroke-width="1" /></svg>