<?xml version="1.0" encoding="utf-8" ?>
<svg baseProfile="full" height="109.49251390993595" version="1.1" width="101.61378625780344" xmlns="http://www.w3.org/2000/svg" xmlns:ev="http://www.w3.org/2001/xml-events" xmlns:xlink="http://www.w3.org/1999/xlink"><defs /><rect fill="white" height="109.49251390993595" width="101.61378625780344" x="0" y="0" /><path d="M25,25.000000754371285 m0.0,0.0 m27.560205459594727,9.278176426887512 l0.6461311876773834,-0.07358903996646404 11.139261722564697,-1.6778132319450378 l4.877564311027527,-0.29605021700263023 m-18.482121229171753,-7.2307246923446655 l0.8758066594600677,0.855034589767456 0.46266522258520126,1.2116226553916931 l0.12100182473659515,17.204720973968506 m-16.87169075012207,-11.672918796539307 l0.8758066594600677,0.855034589767456 0.4757322371006012,1.2679438292980194 l0.32926395535469055,10.659475326538086 m-11.532411575317383,0.8923567831516266 l2.748675048351288,0.4144291579723358 3.5836130380630493,-0.21243928000330925 l38.459835052490234,-3.93125057220459 2.841896414756775,-0.11953732930123806 l3.502551019191742,0.39714016020298004 m-24.75090980529785,4.315196871757507 l0.6966260075569153,1.1877262592315674 0.20611686632037163,2.210288941860199 l-0.34703586250543594,14.308276176452637 -0.32407887279987335,0.8754689246416092 l-0.49988191574811935,0.351606160402298 -0.6420780718326569,-0.07937314920127392 l-1.5786811709403992,-1.0804880410432816 -1.7509378492832184,-1.690816879272461 m-7.781945466995239,-10.721791982650757 l-0.06223191972821951,1.17573581635952 -0.4282772168517113,0.8214276283979416 l-2.6899051666259766,3.525518774986267 -3.87509822845459,3.8051825761795044 l-4.185160398483276,3.1242620944976807 m37.872138023376465,-15.73682427406311 l3.3059757947921753,1.6350868344306946 3.145540952682495,2.1552343666553497 l2.4592164158821106,2.302159070968628 1.1198368668556213,1.6962210834026337 m-10.446182489395142,-1.4658699929714203 l0.11846864596009254,1.2459895759820938 -0.312130693346262,1.4584393799304962 l-2.1741487085819244,3.397846221923828 -4.205763339996338,4.746851921081543 l-5.554093718528748,4.964368045330048 -5.19539475440979,3.88489305973053 l-5.683117508888245,3.609282672405243 -6.002636551856995,3.147905170917511 l-6.158004999160767,2.5010985136032104 " fill="none" stroke="black" stroke-width="1" /></svg>