<?xml version="1.0" encoding="utf-8" ?>
<svg baseProfile="full" height="97.80062421379355" version="1.1" width="101.03574431332602" xmlns="http://www.w3.org/2000/svg" xmlns:ev="http://www.w3.org/2001/xml-events" xmlns:xlink="http://www.w3.org/1999/xlink"><defs /><rect fill="white" height="97.80062421379355" width="101.03574431332602" x="0" y="0" /><path d="M25,25 m0.0,0.0 m5.614058553186358,19.268018432616785 l0.4186976855199423,0.08896327770454213 2.522277897389256,0.06949394854955068 l15.493196818387732,-1.9202410117660487 2.2044429764282394,0.18464307022753015 l1.700386701030551,0.3474054334354619 m-17.179831083516397,2.864167018189028 l0.6373084093756727,0.8545465780618685 0.140732960752855,1.1058813183728804 l-6.439602219946739,24.33478505174869 m-0.7440412308831614,0.47584453861392956 l0.6347627343936892,0.12711655803934743 0.9239005115474258,-0.22683293600708818 l11.114700003280516,-5.534524379157635 m-3.9411340161785158,-17.613386546564087 l1.5382542412394398,0.5630224419928759 8.019368787316292,1.143617705489695 l2.2498900167591054,1.2583819589646765 1.3833482140404378,1.3191063733148283 m4.367133648875738,-19.311168341148168 l1.5179626011509746,0.33353683026706527 1.788679581035753,-0.07848924486513081 l11.367802604978596,-2.2115726925474486 0.8421533865154218,0.17610816894573988 l0.37555967726981737,1.1102108418720147 -1.3456439372957325,3.3239818028889965 l-1.9076468815458454,4.146742259574841 -2.113939983646401,3.886125227582584 l-2.3937160898259706,3.594102605603328 -2.734994505408559,3.3925459347640223 l-3.1256850909224236,3.1456006106647054 -2.700736696606994,2.2011531291458297 l-3.7531460563854133,1.868381643520673 m2.215418936068368,-22.876871284576072 l1.5491099159321249,0.6633563910397852 2.091425150441811,1.7407585328397837 l10.11048404212414,15.401031269160933 3.5270993949498375,4.584721573209043 l2.7003662609341847,2.654446108587186 2.3673403945638953,1.4755429603383419 " fill="none" stroke="black" stroke-width="1" /></svg>