<?xml version="1.0" encoding="utf-8" ?>
<svg baseProfile="full" height="106.46622579652907" version="1.1" width="113.390289254468" xmlns="http://www.w3.org/2000/svg" xmlns:ev="http://www.w3.org/2001/xml-events" xmlns:xlink="http://www.w3.org/1999/xlink"><defs /><rect fill="white" height="106.46622579652907" width="113.390289254468" x="0" y="0" /><path d="M39.510101500571274,25 m0.0,0.0 m14.91638120696431,3.401339557333204 l-0.0387449605837233,0.5437132225351431 -0.3416271151205998,1.9581560042507513 l-2.314767392116846,3.838366997273451 -2.9819436331855846,3.9302926954953445 l-3.727193262282252,4.296895352280505 m7.431125823685118,-6.439950110075408 l21.987322860304214,0.1670975133495368 8.043215360300689,0.2329889726175735 m-27.56218993326295,8.002204148367708 l3.9242139222574646,1.2581350647372973 14.480080874538636,-1.6646151957826065 l2.550912463192969,-0.11131540455447261 0.6600828515236693,0.20268171496302603 l0.42565740134665453,0.41781829836031875 0.14334575246203946,0.5256634917532895 l-0.15490575607266469,0.552658036355646 -13.65967336704887,13.825862031803783 l-3.3822518915255886,2.4198390557708795 -2.6951430700525694,1.5087999129608594 l-2.60081652186836,1.0850286759493932 -4.321944829481817,0.8965391055287281 l-3.88399197843609,0.34586793635204965 m7.723326393417925,-18.779425655303193 l0.911242476275198,0.5781606718224711 0.6420559644130311,1.237520729286963 l1.4559261551756908,16.568414196457432 1.1199215207786102,1.5630731226588481 l2.379891139538052,0.9277928982535641 4.630545422566088,0.41593242961229876 l8.766753432782114,0.09949071445965842 5.402210064574849,-0.30838232547532485 l2.167228000571033,-0.5209155539566344 2.3047343520327144,-0.9544148781809015 l1.0773733117952953,-1.1656456654335905 0.4281650516368017,-1.757515468620712 m-57.30241564949664,-24.696720867147494 l3.5301556601445685,0.9735120255122307 3.1125773475512823,1.1929479574709756 l2.4595053297035623,1.3195350562765051 1.039063274863504,0.8209860673837894 m-13.25550555443281,11.22935370118274 l1.6948808824705668,0.30253125941411035 1.3156212317317608,-0.13379896794460783 l11.194473821180095,-1.9873196680919358 0.8566672243293109,0.3500735934707457 l0.08112816569781692,0.5445139370726304 -5.740338865358663,7.042351437446144 l0.3994995565926303,1.1236658630194933 4.356321902087492,2.786913126884679 l0.6261856598099926,0.982406598717441 -0.2126670857823837,1.1690081716461762 l-10.225598992779883,7.278994319924707 m-3.1363451088543797,0.8872548182143991 l5.820589898933555,-0.5112802838536928 7.4083527833016225,0.0692941770553757 l10.185845690721239,1.3804381138537003 23.77944748362687,4.168515533079884 l7.166070902222251,0.7644300001543614 7.820154104538115,0.31046753257981347 " fill="none" stroke="black" stroke-width="1" /></svg>