<?xml version="1.0" encoding="utf-8" ?>
<svg baseProfile="full" height="104.84800882513366" version="1.1" width="109.77294512053132" xmlns="http://www.w3.org/2000/svg" xmlns:ev="http://www.w3.org/2001/xml-events" xmlns:xlink="http://www.w3.org/1999/xlink"><defs /><rect fill="white" height="104.84800882513366" width="109.77294512053132" x="0" y="0" /><path d="M25,25 m0.0,0.0 m15.692890815748335,22.7717041742277 l0.643885226726881,0.09141479579357495 3.558724300780857,0.13339048840325435 l13.41792104868038,-2.3951699381304516 13.764552614451887,-1.5725301082159322 m-14.648656969561106,-13.025909023026054 l0.5685915594957779,1.346187934844332 0.14413725410130018,2.1649531139453995 l-0.37448244125727975,26.85393732356891 -0.44146084933426244,16.616835342408827 l-0.39935985933371515,1.186049035074176 -0.5305522642167282,0.559610630765667 l-0.5973988652919974,0.11753505547426155 -1.3531953059476372,-0.5992611298204416 l-2.764826891157828,-2.199424998635019 m-9.582264571173024,-33.52630631694998 l0.19461598313924372,1.2254095612616196 -0.014367783873581274,1.1746034075031713 l0.26076091379411814,17.62858489748891 0.46461772646502014,2.8610883096187583 l0.484598967893444,0.6904711520503033 0.8160180962370992,0.3774808041639616 l0.9795199194717891,0.0672582223254862 1.1160137233218115,-0.20737017560184437 l1.1582160217030886,-2.8463945282708103 3.0817438919102784,-6.753564984265969 m22.863531215462277,-30.14308972749686 l-0.24073563852782204,1.967571956037954 -1.128441524618683,2.1780763385211075 l-2.7817329051751303,3.4214237085706025 -3.634850219700725,3.3598370865243212 m-0.8041625027911598,-3.719513380341518 l1.89488318408684,1.5121991804293304 2.887207158502785,2.9412743790381746 l11.512686660462359,14.946823714495185 1.7701391064672978,1.550449331243509 l1.7941783235891313,1.2590256756234843 " fill="none" stroke="black" stroke-width="1" /></svg>