<?xml version="1.0" encoding="utf-8" ?>
<svg baseProfile="full" height="132.78149287500784" version="1.1" width="98.3830568713144" xmlns="http://www.w3.org/2000/svg" xmlns:ev="http://www.w3.org/2001/xml-events" xmlns:xlink="http://www.w3.org/1999/xlink"><defs /><rect fill="white" height="132.78149287500784" width="98.3830568713144" x="0" y="0" /><path d="M25.393642052722832,25 m0.0,0.0 m6.632574156540958,6.48877919592334 l0.5183782839804035,0.11649153701751934 4.1566144441981,0.0804127008789891 l27.562641054425335,-2.676076341113484 5.1924026864916994,-0.24322415606105605 m-35.9665308950051,3.7677434119482167 l0.6415424912854145,1.0546964290560337 0.24034816927063235,1.2476543044146704 l-0.12272749513729728,17.971095307784967 -0.7963268300197927,6.326413722858764 l-1.3001038625222656,5.237183712226329 -1.5796959281099143,3.865109341003772 l-2.591629954026393,3.4686402593302934 -2.9811283740946104,2.483420744951067 m30.2311160809923,-35.46102678985216 l0.0387244309635905,3.3425420229872276 -1.792026574691102,5.984836063194547 m-10.145401238086404,1.4489477043064305 l0.6211287233052806,1.8732762917400785 0.4202867104080483,14.572164531164502 m-0.07747568683896404,-15.311338292687777 l18.279760890892792,-2.5704008134354788 1.5236853803835262,-0.03804367153591692 l1.1705738858604497,0.3025096722507654 0.8168219183647096,0.8265050409539237 l0.13569458660012648,1.35361898218148 -1.1675133374060764,8.54867702677388 l-1.349038751145863,5.434052526789406 m-19.459118099583048,-6.459664137129565 l11.603538249402314,-1.2858327994570722 m-11.36344328499952,8.093466823266663 l18.35183047334087,-1.613351881235694 m-14.750617702703668,8.42285078765324 l15.696857094379132,-1.986106232088858 4.592631301295642,0.2137413413742037 m-23.99361362173384,8.392410209650741 l1.6418582837408273,0.3207482335093129 1.9454094337270518,-0.10086492405060818 l18.27664263929747,-2.3206090736549556 5.7641503286771885,-0.2912446101883284 l1.3705947568715755,0.2876073176228877 m-15.650547250627152,10.957126564056338 l4.569417286168286,0.5109949207496648 6.846903627336758,-0.09521986569959312 l1.4642266466349048,0.14010465806266173 0.9523073883455202,0.23768731804151083 l0.6183462159622423,0.9612248328567116 -0.28412342640395866,2.3957933372032114 l-1.3456834798027077,4.297570219923625 -2.1124766259925805,4.169368515539075 l-1.2137494811194516,1.5966782746650734 -1.2175398764264893,0.7264645177141225 l-1.2002002434663839,-0.32762338980647054 -1.7542254404272457,-1.469350127549589 m-3.5011579255038052,-8.938223330981675 l0.031583563183324205,1.5075682990379498 -1.1901564818257655,2.341709923970888 l-1.84611317303687,2.7219038592313387 -2.244381831579157,2.5525538131893737 l-4.434935258336494,3.913141520176869 -5.685520457721411,3.4142074943044767 " fill="none" stroke="black" stroke-width="1" /></svg>