<?xml version="1.0" encoding="utf-8" ?>
<svg baseProfile="full" height="109.49251437559724" version="1.1" width="109.38153552822769" xmlns="http://www.w3.org/2000/svg" xmlns:ev="http://www.w3.org/2001/xml-events" xmlns:xlink="http://www.w3.org/1999/xlink"><defs /><rect fill="white" height="109.49251437559724" width="109.38153552822769" x="0" y="0" /><path d="M25,25.000002486631274 m0.0,0.0 m2.86675363779068,5.388924479484558 l0.5333459749817848,0.1876525953412056 2.1377092599868774,0.16675379127264023 l17.71620273590088,-1.9963458180427551 1.4340119063854218,0.06646030116826296 l1.0051392018795013,0.34236617386341095 m-13.319342136383057,3.1541606783866882 l0.23847518488764763,2.807469069957733 -3.3105379343032837,9.150725603103638 l-3.6791887879371643,7.093534469604492 -4.348616003990173,6.173238158226013 m10.710837841033936,-14.586329460144043 l2.480407953262329,-0.09538590908050537 5.571352243423462,-1.4194554090499878 l2.26913258433342,-0.30629755929112434 0.8407767862081528,0.8502592146396637 l0.1344906073063612,1.540481448173523 -1.0736789554357529,4.0365272760391235 l-1.897154450416565,4.890280067920685 -2.555602192878723,5.362073183059692 l-3.102256953716278,5.5097997188568115 -2.6191511750221252,4.035196602344513 l-2.817450761795044,3.797636032104492 -2.9691699147224426,3.422330915927887 l-3.0743086338043213,2.911277115345001 -3.13286691904068,2.26081445813179 m7.223959565162659,-26.76644802093506 l1.8825149536132812,1.6903705894947052 1.9480602443218231,2.38358736038208 l1.5499639511108398,2.4790771305561066 0.6224310025572777,1.5624408423900604 m13.76651406288147,-24.658350944519043 l1.1924590915441513,0.2775694616138935 2.233199179172516,-0.05575095769017935 l18.059566020965576,-2.4515031278133392 2.521664798259735,-0.17598150297999382 l1.4765997231006622,0.29990311712026596 m-17.248069047927856,-8.762445449829102 l1.1101115494966507,1.4103889465332031 2.1182452142238617,7.8844040632247925 l2.310056686401367,6.155937314033508 2.0096130669116974,3.7410742044448853 l2.4860642850399017,3.3458060026168823 2.228540927171707,2.1952691674232483 l2.5805559754371643,1.8838457763195038 2.969835102558136,1.5334942936897278 l2.2505004703998566,0.7828839868307114 0.8624034374952316,0.09216271340847015 l0.5889097973704338,-0.17085038125514984 0.3480223938822746,-0.4331980273127556 l0.1025601290166378,-1.6502782702445984 -0.4729577526450157,-2.6903527975082397 m-7.101519703865051,-10.657603740692139 l-0.5315160006284714,1.2127548456192017 -1.7055092751979828,1.8264520168304443 l-2.544955313205719,2.108762711286545 -3.3188560605049133,2.2604818642139435 l-6.754828095436096,3.607654571533203 -7.186695337295532,2.7828481793403625 m16.758309602737427,-27.78855562210083 l4.937525987625122,2.4181899428367615 2.7212953567504883,2.181295156478882 m-28.02278757095337,34.87942934036255 l2.514677941799164,0.29986152425408363 23.066630363464355,-3.3368641138076782 l3.6296138167381287,-0.3629946708679199 2.2964152693748474,0.29298365116119385 m-20.953209400177002,-7.426251769065857 l0.9232906997203827,0.7655826956033707 0.5203700065612793,1.023438721895218 l1.406313180923462,6.527249217033386 2.558263838291168,6.73686146736145 l2.992127239704132,5.137156248092651 2.9458796977996826,3.616637885570526 l2.5273212790489197,2.339668720960617 2.7961570024490356,1.9600379467010498 l4.141665995121002,1.9280971586704254 2.458781450986862,0.5121352523565292 l0.7672462612390518,-0.13167290948331356 0.7788913697004318,-0.9242888540029526 l-0.0012476902338676155,-1.6522745788097382 -0.8692241460084915,-3.440297842025757 m-7.665808796882629,-11.381596326828003 l-0.1499099750071764,1.553790122270584 -1.569594293832779,1.9570435583591461 l-2.8314247727394104,2.4637721478939056 -3.97530734539032,2.763550579547882 l-8.443701267242432,4.531943500041962 -9.162371158599854,3.5005193948745728 m17.29065775871277,-31.025230884552002 l4.142663776874542,2.4790771305561066 2.1536795794963837,2.120075225830078 " fill="none" stroke="black" stroke-width="1" /></svg>