<?xml version="1.0" encoding="utf-8" ?>
<svg baseProfile="full" height="99.85945524799976" version="1.1" width="97.05220051206857" xmlns="http://www.w3.org/2000/svg" xmlns:ev="http://www.w3.org/2001/xml-events" xmlns:xlink="http://www.w3.org/1999/xlink"><defs /><rect fill="white" height="99.85945524799976" width="97.05220051206857" x="0" y="0" /><path d="M25,25 m0.0,0.0 m16.42375947266283,9.948525498031744 l0.5002653620221925,0.0927143195107915 2.856355839927272,0.04562033796715518 l15.947941350993563,-1.8000570232012247 3.176287423269748,-0.1223537248135612 l1.8881476652148168,0.2052041581953539 m-13.499389112489721,-6.058306928156433 l0.7300029084354421,1.3473250035201718 0.14431904034881982,1.0067167612282513 l-0.05671925722622148,11.767388626476402 m-11.102647695859202,1.6230856231427095 l2.0599128318356836,0.17291692065994765 14.44678485334137,-1.6944909492500142 l3.6593975382811905,-0.42162871862991563 1.2565162009829012,0.09308811043611673 m-22.935068461620734,7.577785696115803 l-0.6646162699778921,4.115810167356362 -1.3538635230260276,4.636060173415951 m2.5445659688417566,-7.723214117955666 l16.96045356622753,-2.3381198378833625 8.911896670967087,-0.7375002128202982 l4.032111167341231,-0.06375583661276871 0.7983394555845766,0.3258249689032392 l0.3274475159903546,0.5079144953074518 -0.0319619628848454,0.6393104029789146 l-0.7906950942569038,1.4305711816559967 -1.962185435910892,2.285407599023034 m-19.344689334904253,2.2538820416648675 l0.1248349904412048,1.548354885468362 -0.377046935581753,3.150423446572733 l-0.833073130555423,3.4508212720629454 -1.010905892370935,2.94173946139103 l-2.4811886588476897,4.957002779497103 -1.487860769789902,2.005703978110115 l-1.5520570400669822,1.7202436599709703 m15.95688603768616,-21.499537593068222 l0.4796045149056286,0.852261016060828 0.172482903297984,1.5743701604885185 l-0.0013480489119135648,17.009838253925267 0.3112837061929059,1.2541327361096972 l0.5180022755032154,0.8353234245403948 0.9554188102957228,0.5495744539932504 l1.7313148949768908,0.3635166971826626 4.8801384609737015,0.029961879427074237 l2.582417033117451,-0.37965400621919565 0.7924065004188144,-0.3882164861645103 l0.5656254661409621,-0.980206589979077 0.20430177238868436,-1.6096454891546768 l0.03609109677147771,-2.312983810004796 " fill="none" stroke="black" stroke-width="1" /></svg>