<?xml version="1.0" encoding="utf-8" ?>
<svg baseProfile="full" height="100.43783406493846" version="1.1" width="106.41091374013767" xmlns="http://www.w3.org/2000/svg" xmlns:ev="http://www.w3.org/2001/xml-events" xmlns:xlink="http://www.w3.org/1999/xlink"><defs /><rect fill="white" height="100.43783406493846" width="106.41091374013767" x="0" y="0" /><path d="M32.976936463448475,25 m0.0,0.0 m15.49977226963907,15.366871007171198 l0.025976782713819317,0.3434380311497165 -0.21050799761251035,0.8732355753091401 l-1.3173256453914786,1.0557333423710586 -6.16099551044842,4.08783643167191 l-5.857697029856188,2.8622984502421733 -7.013267167989842,2.85114766808068 m1.2305358423845731,-10.714387855972545 l6.073617394344359,1.3803969631706239 6.1139258604342634,2.348034288392854 l5.03208153180244,2.7302359464344907 5.434973621571216,2.955846419179469 m-2.4858794176572325,2.2997830115427442 l-0.1594061200859816,1.7290173157002036 -1.2614661016602657,1.8442207225901248 l-2.5103265067028935,2.6164747501549255 -3.3693460563331326,2.6689639271541914 l-3.3491677221156966,2.1544390350908285 -3.8976169317484466,2.0674577723215712 l-4.5284423580853135,1.9970666916496964 -5.266375200650809,1.9912189571727335 m6.162019186541273,-13.29774286317225 l5.277127038841295,0.9937288879970421 6.434010713822743,2.440208688158508 l5.721366492063763,3.033474174815416 3.6208108024347716,2.6634164715223956 m8.082746661262936,-25.188541618993597 l0.6369406807680535,1.0949146731395012 0.13306432247128014,0.9975164017648748 l0.1415117651491576,11.712246909194771 -0.43229348956675046,3.988981302498855 l-1.1573361664263844,4.110867163780186 -1.8458974620106676,3.5950732597332924 l-2.0874522298202365,2.547028912381324 -2.53614555848819,1.9717316125720823 l-3.1753028593790438,1.6571408283910085 m11.189464578482134,-31.75040114837968 l17.907169565570786,-1.624265748492723 1.801214234991149,0.35539482830407093 l0.5378954634295985,0.7769981899728662 -0.03583118324598786,32.77415508080317 l-0.3442646176416976,1.2678526843341031 -0.6053685505241585,0.6310846182897404 l-0.817643946473234,0.17764230574569917 -0.9358628789939301,-0.1742894913558052 l-1.9347893561009413,-0.8724146522880943 -2.3180144880987577,-1.3463681411519057 m-12.791537628827259,-22.323833150899944 l19.610162723529065,-0.8992985902848761 m-20.28613409040859,9.389709399645884 l20.12390057712179,-0.824554746379553 " fill="none" stroke="black" stroke-width="1" /></svg>