<?xml version="1.0" encoding="utf-8" ?>
<svg baseProfile="full" height="105.48715143054648" version="1.1" width="105.03603352979282" xmlns="http://www.w3.org/2000/svg" xmlns:ev="http://www.w3.org/2001/xml-events" xmlns:xlink="http://www.w3.org/1999/xlink"><defs /><rect fill="white" height="105.48715143054648" width="105.03603352979282" x="0" y="0" /><path d="M25,25 m0.0,0.0 m19.66125526917667,10.030782666117402 l0.4927926959322358,0.08821575819369219 2.97039447813693,0.059322779550630776 l14.798925613385832,-2.0492565368642035 3.065445424994665,-0.1999231512896535 l1.744950613786263,0.20143635594749784 m-13.133718830556832,-7.188864477412193 l0.7712654919439252,1.3605234004988709 0.17520399274301207,1.0628367091846151 l0.0352699539402385,13.67685621957379 m-20.932863387903122,1.9739010687912644 l1.8972280814491689,0.3982037458923898 2.091684272190709,-0.0038387553713040536 l18.293910799442724,-2.046660682667335 12.123373116740572,-1.082970150651415 l7.89421044094719,-0.37251505734505447 3.086705503442631,0.37524371529818007 m-33.25692669188772,4.108858152432855 l1.2341427840366714,1.5580968204335937 1.3598367931999404,2.600082933385227 l1.0630592224212172,2.500105431164073 0.5112752570574752,1.9964702541014179 m14.259729609005417,-10.002437431754831 l-0.15397921917840438,1.6411299653390066 -0.7630854951223421,2.8038576639491373 l-1.9683605957678436,2.538389517828649 -1.9367038889874613,1.877777629561433 m-18.699067320798328,3.8305663638675616 l2.844861259515278,0.26725129059017816 19.553665311358213,-1.9841339613837317 l4.937121194921232,-0.13053633552061203 2.55197895617867,0.3128558043312064 m-29.716806562998823,10.45090644870923 l3.6141898598045654,0.30345185712889927 19.001135706564938,-1.7181807068502175 l3.3510735777700478,-0.20039690320487233 2.9096793840573225,0.24234619279049227 m-14.997342381014725,-7.9773393087678555 l0.5401359272940169,0.896919847412481 0.21873213788624074,1.4695053830213944 l-0.10700143340991324,21.8183109145346 " fill="none" stroke="black" stroke-width="1" /></svg>