<?xml version="1.0" encoding="utf-8" ?>
<svg baseProfile="full" height="104.85106461389132" version="1.1" width="106.62591941961921" xmlns="http://www.w3.org/2000/svg" xmlns:ev="http://www.w3.org/2001/xml-events" xmlns:xlink="http://www.w3.org/1999/xlink"><defs /><rect fill="white" height="104.85106461389132" width="106.62591941961921" x="0" y="0" /><path d="M25,25 m0.0,0.0 m34.02224977857921,15.912120322602513 l-0.034546286229279896,0.3162864994331544 -0.4725023088765158,1.2995007727388965 l-1.0745764383514622,1.2128537190103983 -4.349550420678725,3.71309599867985 l-5.100099262806475,3.194368874897965 -7.180056500484846,2.8169472180282504 m0.24426848162591974,-0.5751530833780061 l0.7371481685721367,1.066520612583595 0.3351433038874818,1.669745751074089 l1.9872470501168005,23.12454591250701 m-1.2182111575527395,-19.21782988068926 l26.032177686786675,-2.280986053439199 4.4826957903013405,-0.09683862534795332 m-8.909428529921545,2.073832184466733 l0.4308014631502619,0.9784574049289699 0.12663636887399088,1.3228532224665703 l-1.8523072447693785,16.353171747896358 m-33.17052179388741,1.5394208336573452 l1.78930599482421,0.34421782489345865 2.482195234435026,0.08393335688060259 l21.423552360061738,-1.2229177646018874 17.588570336384493,-0.6839982362743208 l5.037333421946493,0.006105925502182534 3.268393923631817,0.36275753218620505 " fill="none" stroke="black" stroke-width="1" /></svg>