<?xml version="1.0" encoding="utf-8" ?>
<svg baseProfile="full" height="128.24930178825377" version="1.1" width="105.66070035988949" xmlns="http://www.w3.org/2000/svg" xmlns:ev="http://www.w3.org/2001/xml-events" xmlns:xlink="http://www.w3.org/1999/xlink"><defs /><rect fill="white" height="128.24930178825377" width="105.66070035988949" x="0" y="0" /><path d="M25,25 m0.0,0.0 m11.81712355946489,23.544158124340875 l0.5334801926772357,0.1065201741992736 3.738083180518748,0.019621427317669637 l11.861882834018974,-1.6316268071542879 2.3251862637035723,0.0940627900929527 m-22.76550419122814,12.883157487483624 l2.794806987244377,0.33375782661288245 3.098800336715231,-0.12226240779349484 l34.70760660527919,-2.823187896179157 4.342283968337915,-0.6523962268488405 l3.206950623157494,0.20844054370025777 m-30.328435083383187,10.918533555965334 l0.3409109214699482,0.9104448096138791 0.08743657343426921,0.8927075182314209 l-0.018149927359861356,5.58716730784959 -0.5057734444578023,5.111303954570739 l-1.0907807898894604,4.887958509477439 -1.5365346209144988,3.9706912003557093 l-1.565732019387435,2.782201388616595 -2.4405090606430635,3.0301080354249175 l-2.404351320845586,2.1336220435098077 m19.257722003682677,-30.245089879980753 l0.7383444785737288,0.9162930281917592 0.2648418006586305,1.6697337216409454 l-0.054090178591394956,27.141341846602266 0.01923936559815615,1.020460069523144 l-0.09213691329777171,0.5446533256519596 -1.1288365905475912,0.21907173808703653 l-1.458274249865716,-0.945623690808738 -1.9173826335850976,-1.740144934634385 m-5.366865962165442,-20.472643729625172 l-0.3292148218820536,1.6775912548434517 -2.5555859392513525,4.2044941206296285 l-2.859778873545417,3.5822563899451434 -3.3765897599145105,3.5603254115794307 m26.74448237084193,-12.160582743356647 l1.9675133235489506,2.0091807582152446 2.1733467228661656,3.032280768333017 l1.80897317296332,3.485426063449889 0.7942884312763774,2.437011149084195 m-6.900820624960282,-29.629628222630597 l0.598429107742642,0.7904938589459948 0.46351023813726333,1.7470152355829942 l0.10825948235776268,10.476399128631302 -0.6247045213429068,8.51720745877463 l-1.3593784406735414,7.194429618490596 -1.616685793745789,5.612152255994947 l-1.8241780383455979,4.263625173456018 -2.333726954706073,3.7139084211042674 l-2.819129733723124,3.4426808331450656 " fill="none" stroke="black" stroke-width="1" /></svg>