<?xml version="1.0" encoding="utf-8" ?>
<svg baseProfile="full" height="103.34797546092423" version="1.1" width="103.286716078101" xmlns="http://www.w3.org/2000/svg" xmlns:ev="http://www.w3.org/2001/xml-events" xmlns:xlink="http://www.w3.org/1999/xlink"><defs /><rect fill="white" height="103.34797546092423" width="103.286716078101" x="0" y="0" /><path d="M25,25 m0.0,0.0 m6.334786819720772,14.949918304598548 l0.5282281722321169,0.12054191093193685 1.9512035634589904,-0.006877497681910703 l16.779719983717047,-1.9257409262267713 2.56104049038803,0.1772438095482757 m-17.135592920134577,-5.993507648848004 l0.6717929847928619,0.9465502110759813 0.25013903784113334,1.0258838986377377 l1.0936397307160992,13.557587272350077 m9.242622214132863,-17.509452081924536 l0.5343918411302433,1.0804489495797143 0.06177023384244713,1.1851457999971582 l-1.7737602245921718,14.163515964650735 m-17.640739080904872,1.7679814762644233 l2.5216516409190897,0.17268066201983234 20.07647085714467,-2.3102810325287533 l3.0854072039395253,0.1961103338975655 m-19.28364443624932,6.785180020077148 l0.5074960002253911,0.916011162682217 0.1600950093842291,1.0528036041816915 l-0.08252587478101547,22.996231267641168 m0.3650682699822702,-24.13799221877428 l11.537673630878073,-1.6431889532380586 0.6944968051483206,0.20919426347945497 l0.6198488731218719,0.9062687757650228 -0.23286373083212963,22.655474133705468 l-0.36568013374139235,0.38117059538268505 -0.5568616066868671,-0.034654150552523626 l-2.044166907120648,-1.9883127227239397 m-9.18546453300776,-14.474197941367693 l11.76554308842278,-1.3618590481194426 m-11.728590880392257,8.30894689516254 l11.880923655756492,-1.225832496624338 m14.675744727459392,-34.29350319147275 l0.1274729954239663,1.7531356744939952 -0.5523027590247584,2.4574106104708533 l-2.723436835962401,8.227668198468164 -2.9250536487351986,6.118102334974931 l-3.3655921448129176,5.1866926601048995 m8.366203595730662,-10.78537296056691 l3.496549135402219,-0.3560980963723874 10.268247882498624,-2.208552008701138 l2.1837703355572167,0.0035825496657983474 m-8.229362202189906,3.808623143900015 l0.289997690554176,1.4155262371674062 -0.035589123030912856,1.2040641805778987 l-1.3527169289629914,5.5170311931943905 -2.114101118810021,5.904503016811067 l-2.6563003472999847,5.272882450402405 -2.4517250882302744,3.8179387239804163 l-2.7678727020545923,3.443603679067773 -3.104244569348308,3.0028917148485843 l-3.4468481995948523,2.534260666770368 m4.535673222397209,-26.08636945750698 l2.356440102344826,2.522752345608006 9.607119793198423,12.970176527770004 l4.117669890019337,5.1139370123412435 2.9765303044743496,2.892003272903956 l2.816322292645393,1.6869610314446737 " fill="none" stroke="black" stroke-width="1" /></svg>