<?xml version="1.0" encoding="utf-8" ?>
<svg baseProfile="full" height="96.6380115810424" version="1.1" width="108.70676729577865" xmlns="http://www.w3.org/2000/svg" xmlns:ev="http://www.w3.org/2001/xml-events" xmlns:xlink="http://www.w3.org/1999/xlink"><defs /><rect fill="white" height="96.6380115810424" width="108.70676729577865" x="0" y="0" /><path d="M25,25 m0.0,0.0 m8.09903177610098,12.272941416582404 l0.5431219317217032,0.08019567614877997 1.7096383129088115,-0.043938006373080325 l14.210299731234675,-1.9959891436840844 2.0800239401109346,0.23128244238344872 m-11.61428190717981,3.4150725905265147 l-0.11180168367013245,1.826762217017194 -3.0834734062178084,6.405432600940558 l-3.1974967394825984,4.629519831339509 -3.5143771250597333,3.6022857149554275 m10.019386910817127,-10.101686645561989 l1.3767158011004055,-0.09324760293474778 5.611478143607119,-1.1837366474742832 l1.757626155289513,-0.1198683606586357 0.45465771224621737,0.2503459443484891 l0.22153112947893586,0.4679154284203559 -0.2860832356963529,1.4607386527436328 l-4.28975072238791,8.343321771252608 -4.528260998969322,6.743255403574493 l-2.374299682657981,2.8889249315840853 -2.62809073522058,2.709844585158528 l-2.9298186671297533,2.524086359185772 -3.2914222835916163,2.3245524215674345 m7.190459297900845,-19.490849337334783 l2.7580273412495995,2.06433159836948 1.216054340980969,1.2969435903782094 l0.6647452066956602,1.1127501534614908 m14.063534440022053,-17.880497837765372 l1.6613359125114804,0.05890770511749084 17.12773441370004,-1.5477484358460603 l4.818886859454743,-0.3411988041390171 1.4708379096618711,0.044675876198380385 m-13.523290169223184,-5.221011793907652 l0.638455720171014,0.6693980140560829 0.3148831197171814,1.1190922192854644 l-1.3201571879966902,10.995308337593789 m-8.45733410135958,0.4799335086102266 l0.6743517210645734,1.8400580856165352 0.09790384785770417,18.406836547386206 m0.5321544475575194,-19.23142409307812 l15.27073026479225,-1.4232939357284184 0.6642062074653812,0.06981214429322535 l1.0158470563869926,0.6092739251981268 0.31547457232159465,0.7671684717765461 l-0.7475766093966697,18.799044115500795 m-16.7501601903646,-13.065362305118123 l10.781666641277658,-0.6920588667624683 m-10.666061642838697,6.7980215932546155 l10.223132012035833,-0.7233986234299584 m-10.492552513581794,6.84199213765136 l16.85530591509179,-1.0853304701557014 m-24.385119688041538,-9.087627446018244 l0.5232948830417037,0.969222836699791 0.09680058724476047,1.049475526475721 l-0.35364156493822285,12.630226474736618 0.5340186467867571,0.9514138242252674 l1.3050584059806032,0.33406418325455683 21.244625169723168,-0.8424514291216951 l6.853154012509411,-0.1504078334890093 2.255627652963635,0.17663952137855607 " fill="none" stroke="black" stroke-width="1" /></svg>