<?xml version="1.0" encoding="utf-8" ?>
<svg baseProfile="full" height="107.29946314772275" version="1.1" width="100.73422987067289" xmlns="http://www.w3.org/2000/svg" xmlns:ev="http://www.w3.org/2001/xml-events" xmlns:xlink="http://www.w3.org/1999/xlink"><defs /><rect fill="white" height="107.29946314772275" width="100.73422987067289" x="0" y="0" /><path d="M25,25 m0.0,0.0 m5.490103005302466,12.157654604279232 l0.4418024302571851,0.14930945311942062 3.457168563727057,0.0284143058890956 l14.938111147704074,-1.669436225959256 2.6542319540705632,-0.09815465658647529 m-16.53488137165802,-4.61802242640291 l0.9846519244890234,1.314107106748185 1.1582500935473585,9.301712526721243 m9.10395238046843,-11.934878316596464 l0.19147709254799294,1.4861318085094648 -1.5761654669289684,10.410428042676939 m-6.844065441517363,0.7337077587818999 l6.449873513395833,-0.7654799380226857 m-12.139591874580175,6.319600718013938 l0.3432345303233731,0.5179561086739181 0.8552212836852644,3.286785507073738 l0.7817342760787926,4.732070086618864 m-1.5188548829625748,-7.872162386865165 l10.36354425051288,-1.8068181745776186 6.255509287125341,-0.8194967058903572 l0.7562893385671025,0.1142228466107169 0.44104062069436856,0.9319529727692357 l-1.9093402145852223,6.911350278120234 m-13.908080360801112,2.271692006215056 l14.776447581528675,-2.0310572924822767 m-16.38826134368273,8.035991640084909 l2.7360220786271574,0.11009472272560748 11.651315107667624,-1.5795609428498092 l1.661948349361621,0.13022777099514665 m-18.197055969622262,8.502235719876152 l2.473029555687455,0.33384641285423805 16.486703413208986,-2.638114568559962 l1.566616260512908,0.2289119923475417 m-10.123780691531348,-25.887718543535815 l0.24951059467959544,1.5561308433522025 0.05684239843509726,3.6685406945224694 l-0.07910926487751702,11.597713414728958 -0.4795690116696649,7.013034147139576 l-0.9078047782815671,5.324879010000776 -1.442533038491956,4.048510416095854 l-2.017853186301158,3.078469811084059 -2.655720951629088,2.5274352121998405 l-3.40052680482194,2.1972453872230417 m10.157739066135111,-12.44864140773657 l2.419372231598009,1.6327312448191547 2.22296859170629,2.0453337488863212 l1.8576694092803232,2.3432209729748394 1.3291248918068406,2.471702296794386 m11.557483079655114,-48.41590512351166 l-0.03709818429363928,2.0476152546797817 -0.31491347171791895,2.027274732793627 l-1.7091988365751694,6.53988723004663 -2.514973194146138,6.418586830786703 l-2.447031536658196,4.480289691536835 m4.035353946639681,-6.340514379833018 l1.1995309921358628,0.36321927294539685 0.9071134823301499,-0.047840996170939155 l10.443653062577049,-3.5216487966763355 1.241204154750801,-0.24170894989763653 l0.5256437869672349,0.19326982832533662 0.2513610018954615,0.4282735928393712 l-0.21772179929075347,1.3609037289748174 -1.3354859436796618,2.4837926537086825 l-1.7380547264168769,2.462068039654416 m-8.2416439876065,2.1338744819724713 l0.20192537001606484,2.8680861919821674 -0.7994512497910303,6.0928536427080555 l-0.8794393474310915,5.032516167831229 -1.2965154066915292,4.875228973201446 l-1.4724954648451631,3.73241561535231 -1.4169477670609654,2.6629452402239355 l-2.416654884501334,3.363696601269902 -2.258435068564405,2.315434874027389 m10.26608139557355,-24.664378840951198 l3.0830974535373232,5.966320703281534 4.983859549490747,8.186641760695837 l4.611368297121845,6.711680908045359 1.1721398642988055,1.3616244933830723 l1.1621647341634407,0.8128541066321326 " fill="none" stroke="black" stroke-width="1" /></svg>