<?xml version="1.0" encoding="utf-8" ?>
<svg baseProfile="full" height="118.93426712685303" version="1.1" width="113.67855177110442" xmlns="http://www.w3.org/2000/svg" xmlns:ev="http://www.w3.org/2001/xml-events" xmlns:xlink="http://www.w3.org/1999/xlink"><defs /><rect fill="white" height="118.93426712685303" width="113.67855177110442" x="0" y="0" /><path d="M25,25 m0.0,0.0 m14.299056906742923,21.51479675062354 l0.656410463514397,0.024379897027119967 3.861663451238697,0.06569620136693533 l31.33111510814822,-2.389147735651361 5.0283703404646225,-0.2073047736684156 m-21.56660684027922,-10.20711529160463 l0.7400070500601652,1.1145815995001864 0.21535492653812874,1.2051969339670543 l-0.0020055771411705997,21.107850104303893 m-28.080505652496765,1.814223525076794 l6.143215702720639,0.3410932069284674 22.69158861811947,-2.285317960488985 l16.867816435306583,-1.1510257241532502 7.172781929066373,-0.20237609123756556 l4.320288909101353,0.290618117308788 m-49.299334093447115,15.004424015298893 l1.2057438894873225,1.826909600345449 2.592757490289886,14.53423303193998 l0.8856156635683039,6.532551719970126 m-3.1370249841201785,-21.868727231385833 l30.699011577167504,-3.139784544519754 1.9541841994252722,0.13227460036700867 l1.2881679135220738,0.5450841360283132 0.8188157151018539,1.020401888284947 l0.07765402299638449,1.1983948805033136 -3.159834632459914,22.040991630470234 m-16.18166922420304,-11.672915262414726 l18.490041915559594,-1.5325095282441898 m-18.94668122705333,11.646019277088639 l19.119649630677536,-1.6374734106933366 " fill="none" stroke="black" stroke-width="1" /></svg>