<?xml version="1.0" encoding="utf-8" ?>
<svg baseProfile="full" height="104.73753346290147" version="1.1" width="112.61615576556488" xmlns="http://www.w3.org/2000/svg" xmlns:ev="http://www.w3.org/2001/xml-events" xmlns:xlink="http://www.w3.org/1999/xlink"><defs /><rect fill="white" height="104.73753346290147" width="112.61615576556488" x="0" y="0" /><path d="M25,25 m0.0,0.0 m35.49320978857915,17.642449816779315 l-0.07259236719269865,0.27660429663056 -0.4920264618534097,1.1825763963153955 l-1.6748318640820694,1.274461777079601 -3.2809500405297847,3.1367641416842487 l-3.27228932345884,2.7398891161461028 -5.785470449578824,4.172086375313017 l-7.6409328949855775,4.3704041753688765 -4.480611570740725,1.9686817502717882 m28.387505390030014,-17.81534472020203 l7.543793737935793,5.598134658369429 12.00306567139676,7.822846472977141 l2.7085177360795134,1.45758114372762 3.179768413965577,0.8178549111711079 m-27.809211546722004,-4.21868603865375 l0.7392490433921634,0.703732554414425 0.3468319470458636,1.1646491617067716 l-0.04597569064409145,21.191179367860887 m0.6397382128841307,-11.915864772822129 l10.347287448646552,-0.8062404094384062 4.178875239505729,-0.15638578017912788 m-32.94103374490967,0.452523272016171 l0.717743464356948,1.3940855966444028 0.059508367058195344,11.52375594998428 m-8.852605097934006,0.4926736070462546 l4.134339190070433,0.26712064268950575 34.599783625925404,-1.4027526423183534 l3.936530727172064,0.030382372556065962 3.4351259337145743,0.2804324121755054 " fill="none" stroke="black" stroke-width="1" /></svg>