<?xml version="1.0" encoding="utf-8" ?>
<svg baseProfile="full" height="92.24411742194071" version="1.1" width="109.0236195844459" xmlns="http://www.w3.org/2000/svg" xmlns:ev="http://www.w3.org/2001/xml-events" xmlns:xlink="http://www.w3.org/1999/xlink"><defs /><rect fill="white" height="92.24411742194071" width="109.0236195844459" x="0" y="0" /><path d="M25,25 m0.0,0.0 m16.498052308428072,13.99617297354256 l-0.0006736618739954176,0.3431623526156417 -0.0980168160617842,1.0002241623957846 l-0.5818206733503587,1.1680762642011435 -4.07106774746804,4.513770271494804 l-4.214652980047586,3.688622027473819 -5.721051281051468,3.9621081506912152 m10.90049298786946,-6.990904796506079 l0.5006259236257481,0.734912204729303 0.1817531249223025,0.8584466410848475 l-0.14340051877522497,18.969527170217678 m9.224822176510532,-26.421445806700728 l2.7388663360543495,0.2336043582375781 23.603392480906255,-1.2289897432619756 l2.994277365495006,-0.12168385899782969 2.0850894612730673,0.13336155052804366 m-24.876755646434127,-5.35052608572051 l0.7622207399855104,0.6897868073038896 0.34794176430901963,1.0640256748188763 l1.1975890079361977,11.787142507914131 m13.256085124733122,-15.159577450586449 l0.5755965065821289,0.7242448985043234 0.1528990582279522,0.7363557260948046 l-1.767850876424081,13.423353739892205 m-25.305884432998614,1.2639823646568222 l4.736597568501004,0.17506574741145034 28.240910905261767,-1.3882067686274242 l4.896784134905061,-0.1525477755812607 2.9107972434046085,0.15435419836884373 m-26.92651186632967,2.5631516245853367 l-0.23540932765095218,1.1890859120784993 -3.6558118837015,1.7670834563205142 l-6.077068264781739,2.4937843316281865 -6.52863185633692,2.2559203673571204 m28.740419407857953,-9.049216824298647 l3.959488481428909,1.6311511392516758 3.8856265823393175,2.227396273821779 l3.6234489649270682,2.381560623986367 2.452781721484989,1.9800001227124455 " fill="none" stroke="black" stroke-width="1" /></svg>