<?xml version="1.0" encoding="utf-8" ?>
<svg baseProfile="full" height="105.70522850764996" version="1.1" width="102.06666844294037" xmlns="http://www.w3.org/2000/svg" xmlns:ev="http://www.w3.org/2001/xml-events" xmlns:xlink="http://www.w3.org/1999/xlink"><defs /><rect fill="white" height="105.70522850764996" width="102.06666844294037" x="0" y="0" /><path d="M25,25 m0.0,0.0 m16.082998273846332,19.153174116930156 l0.24937166661465937,0.16027947244450547 1.3212964108049352,0.06506368419248 l11.62519584312019,-2.070091689275769 0.807319658665799,0.10802443838897884 m-7.075908736914497,-12.19893887145177 l0.8184000120150559,0.8938193932840183 0.4614990984591462,1.797171565030688 l-0.1644659529042671,43.99089567101425 -0.11002789078182332,2.27694567964782 l-0.3472837704206455,1.141758550797602 -0.5033158839531656,0.28251091753078916 l-0.600627219643499,-0.3467637472862606 -1.5821011648627448,-2.1186964071751326 m2.9109194254978723,-32.41469983706679 l-3.499417781810442,8.541800018890372 -2.08453695180872,4.569701084783866 l-2.764824474124397,5.185972585068506 m9.556808906226552,-13.969478087930435 l1.7470350876167375,1.6787008544618258 2.555610467807191,3.325456889353132 m3.254299579652664,-24.628829550805538 l0.6985033047307038,0.2013539497379689 1.1584417220021381,0.009823986461949628 l11.820474603496162,-1.7663751442244273 1.3031913015614194,0.19482103530801576 l0.3800333436943297,0.8722620799711652 -0.08953662298762129,0.7720526113936108 l-6.158632014683607,12.429445231458747 m-4.352530937817747,-2.9454830819666324 l2.750440547321266,2.4199401565044973 1.2824798429172246,1.8432638147909153 l0.7206161020662003,1.4972473159223272 m-11.359711957529566,3.7064760725010446 l1.4611819811990046,0.4296363269664576 1.1884948486755278,-0.03183416591524989 l17.047784828175622,-2.670438589528805 0.7268258119108869,-0.006892043903942064 l0.5380486594695412,0.21199747847389766 0.29231847563593666,0.9792421042947487 l-0.7010592770655257,1.5941968284230938 -1.9953916028318568,2.975214477720396 l-2.4889574473732385,2.851472467189792 m-6.585646190552318,-3.1012242489004587 l1.0404619592865498,1.2199670846096329 0.38984000142874137,1.6457154277286805 l-0.29680951564614355,23.787951084207595 -0.2628909965279627,0.8409949026899064 l-0.33940627976269966,0.3206246149077337 -0.42232290330345373,-0.05165067610381912 l-1.0695284760067907,-0.9703922757813782 -1.350819564610648,-2.0577416732009604 " fill="none" stroke="black" stroke-width="1" /></svg>