<?xml version="1.0" encoding="utf-8" ?>
<svg baseProfile="full" height="104.94504732213085" version="1.1" width="99.24485836123667" xmlns="http://www.w3.org/2000/svg" xmlns:ev="http://www.w3.org/2001/xml-events" xmlns:xlink="http://www.w3.org/1999/xlink"><defs /><rect fill="white" height="104.94504732213085" width="99.24485836123667" x="0" y="0" /><path d="M30.386494880262035,25 m0.0,0.0 m25.500219421647135,4.469413076509189 l-0.010347021632643484,0.5392249887767271 -0.60137274714806,1.1299899205878245 l-1.048833636042894,0.8287494652209263 -6.19568598732223,3.2479832403998508 l-7.506448984562144,2.8354772440469476 -8.754201007331483,2.594985062507881 m-3.382608560795076,10.28315108156903 l1.7869741934479038,0.2639650399876209 2.7392468251826068,-0.12593686256402478 l27.66892242776005,-4.3762268186387 2.8552080715037267,-0.36035396437717115 l2.3253800784801557,0.21530588315055088 m-40.762947953449086,17.040201887329694 l2.439358008547876,0.3283325040478406 3.147373191536953,-0.14964147650590318 l32.39826930019955,-4.563189089473569 4.344921783878226,-0.4158215476400476 l3.9198466202919944,0.2258396410355746 m-26.363359290790573,-18.96611510632785 l0.5709684653990421,0.9993301670742536 0.19501008792301103,1.902795648858511 l-0.286641935730917,29.730249817651355 0.4508867081216339,3.5278600766504113 l1.12592143611745,1.7168882191804637 1.2481632755261687,0.9270719414196721 l3.2514719313744833,0.7968293555750405 8.712247583868423,0.2986879260787488 l8.616787407861594,-0.46954039495365985 2.347145684661979,-0.8762822354673291 l2.0501746571658543,-1.558878449309407 0.8560282031174823,-2.2266019353496205 l0.22028524216643106,-3.3504506765890043 " fill="none" stroke="black" stroke-width="1" /></svg>