<?xml version="1.0" encoding="utf-8" ?>
<svg baseProfile="full" height="109.27611222645292" version="1.1" width="105.90287318984093" xmlns="http://www.w3.org/2000/svg" xmlns:ev="http://www.w3.org/2001/xml-events" xmlns:xlink="http://www.w3.org/1999/xlink"><defs /><rect fill="white" height="109.27611222645292" width="105.90287318984093" x="0" y="0" /><path d="M26.994928844725933,25 m0.0,0.0 m8.33002336253925,14.46905419107388 l0.4812533881105707,0.13927964520370684 3.232261862244281,-0.029956563372693402 l14.513925474569605,-1.6427324790876556 2.5300850685150325,-0.10888874773557246 l1.3177433690429996,0.16805497502470654 m-16.617415018918038,-3.4813877812247274 l0.7132237343376486,1.1408000100511162 1.0041161201712758,7.634625509351679 m8.438796408618717,-10.26927851623973 l0.1419157204592393,1.4114719230299493 -1.525958254588175,8.645503548323667 m-6.3343795473736275,3.383551525828149 l-0.33711632779551753,-1.2897969125873836 -2.1412507234139433,-0.18286559784157838 l-2.8783719004623465,0.11278669487237468 -4.151036985655694,0.4393681494082888 l-5.88094102078772,0.7006515369392355 m-2.8318035743394923,3.1107273125892347 l2.4786443021989335,0.21190385170048498 17.907548055128327,-1.9189278931099922 l2.6442934766501005,-0.16397566267164004 1.5642642363884196,0.19842892569313575 m-21.79848113477267,5.3483632183714 l1.413886916805102,3.3651356444142904 0.9567066256446283,4.852875220093692 m-1.5676361441551083,-7.792454886676026 l15.972614148257023,-1.5927705647469248 1.9467740649977432,-0.03847970055348208 l0.5432436760769601,0.24730633145021996 0.24566634781082586,0.7408403426725257 l-1.7038849277401436,6.85151431824679 m-15.712416068947771,-2.932150978191274 l11.913890830617074,-1.08493299242439 m-10.841646843206384,5.010344301359322 l13.862383975458576,-1.3299800118235565 m-18.857237053067887,5.991230966426038 l1.5173510990183963,0.17443896188531988 2.2988005721694114,-0.09550980575329192 l15.174580784421678,-1.6151760664163357 2.6238342611389376,0.10045527230800627 m-11.245667620756754,-17.534636356546926 l0.44975247060984774,1.9868559793653697 -0.10798168095317096,23.09779413683288 m13.246302752977167,4.4992634732503 l1.1993038976129422,0.49782596926861666 1.3884179909191818,0.9070548767947951 m6.300979385927518,-20.029091150978893 l0.5567863520437513,0.21402821166777997 0.4504925485410759,0.023269197880175844 l11.524863090468424,8.737822687913352 2.609037895323761,1.5558985108571732 m-7.088876385119671,-19.82723405915525 l0.5481885148772646,1.6003801853120891 0.04313328283674877,6.409759988125603 l-0.2862703941787194,5.6078222233615165 -0.8766626899315414,5.723323536641159 l-1.2806868996508576,4.55605433286327 -1.800247593060002,3.9796560048672407 l-1.7951580297198304,2.726163528880076 -3.001315884594681,3.110253913573647 l-2.911790014895216,2.1087071895743357 m11.224339078027828,-19.409694882745832 l3.1421622402667087,6.0298428711516445 3.6227911960409487,5.875084985077659 l4.055042407274578,5.1782825988530305 2.4267290044069,2.2268497973014725 l0.9260270736545597,0.5453272606056766 " fill="none" stroke="black" stroke-width="1" /></svg>