<?xml version="1.0" encoding="utf-8" ?>
<svg baseProfile="full" height="106.45344681537331" version="1.1" width="97.01556649530568" xmlns="http://www.w3.org/2000/svg" xmlns:ev="http://www.w3.org/2001/xml-events" xmlns:xlink="http://www.w3.org/1999/xlink"><defs /><rect fill="white" height="106.45344681537331" width="97.01556649530568" x="0" y="0" /><path d="M25,25 m0.0,0.0 m5.445480142682206,19.11477850541714 l0.44467620302464206,0.04960119780962519 2.448250118607301,0.0593656111505029 l15.531537838148614,-1.889581873364095 2.39311101066241,0.13280269227761451 m-15.579661738648618,2.796893191679931 l0.5256350627829072,0.8550976845286581 0.1316118287769566,1.1269148367213448 l-0.07822684035709596,23.330348893140417 m0.7572945902890489,-18.448596872830038 l8.837763260822609,-1.150054589801312 m-8.953645669535584,9.642313612928167 l9.02747579966831,-1.3143554560046633 m-15.329260925680703,13.498721603582524 l0.8548622963399468,0.30114391014391023 1.0135196480981723,-0.17256018872856024 l14.083536519933983,-5.837989633980978 m-0.5706606438087442,-23.16689797171752 l0.46279420107757735,0.782448551122977 0.14051433049499626,0.9323885396012189 l-0.005276291842870164,35.81066457169645 m6.263179683900876,-27.777448429023703 l1.1104153904756413,0.18758861010104858 1.0753363074438493,-0.17262207529029794 l9.884427035298462,-2.7842388957166806 0.8684027435964115,0.3328925356700829 l0.3895209886249053,0.9791767076920904 -0.15974150210134058,0.6340809868532072 l-1.4982403124641337,5.843235964997517 -1.4728786545590562,4.341123083930495 l-1.7060026557340693,3.9084380876341815 -2.0512258165250365,3.5909850133125936 l-2.345858997638523,3.2040432460207136 -1.996283305224569,2.2382390211777117 l-2.820170755429676,2.389171992894359 -2.476656631674062,1.58744365889816 m1.3430506515042155,-21.363232846311092 l1.3009166726064498,0.7009016280677519 1.7400847914697173,1.7190354760308628 l8.549443542210874,9.989676133664013 4.035073575376067,4.330036713887063 l3.1415992262780215,2.698223346328366 2.25984377633459,1.3820063277504664 " fill="none" stroke="black" stroke-width="1" /></svg>