<?xml version="1.0" encoding="utf-8" ?>
<svg baseProfile="full" height="116.14641043036397" version="1.1" width="104.3031269871604" xmlns="http://www.w3.org/2000/svg" xmlns:ev="http://www.w3.org/2001/xml-events" xmlns:xlink="http://www.w3.org/1999/xlink"><defs /><rect fill="white" height="116.14641043036397" width="104.3031269871604" x="0" y="0" /><path d="M25,25 m0.0,0.0 m13.319559656844314,20.24149015127375 l0.4711861575026012,0.23073104572515288 2.2074903407621327,1.7175626890654587 l1.5863692447487523,1.634890815869469 1.3004812272716821,1.7100713779674948 l0.5178427384403946,1.1431898883943319 m-14.042998072004758,5.643606404807448 l1.8919581806400838,0.10626856658158243 2.4779722108724176,-0.20565305451379884 l13.43877156387642,-2.051732510116097 1.9150760969350922,-0.15834907957587704 m-8.65973615747257,8.597979664881523 l4.618872936367958,0.8066355069155146 1.1658009808493577,0.5744031685103571 l0.5866460401341859,0.9075407045413726 0.12605410603323167,1.2746557778800682 l-0.6429857328758435,8.028792333554723 -1.1734024106901582,5.241341280335676 l-1.7458576649275876,5.186078082290042 -1.612705667528835,3.4591909335340185 l-1.1546694834922573,1.5665693938045693 -1.2461947992028948,0.4911472886371908 l-1.1492475977188696,-0.4264402819965345 -1.3923591576347896,-1.4687176378856148 m4.282312612803887,-30.383261564310942 l-0.06289278638430384,2.430957524970577 -0.7554989698720391,3.461031356066203 l-1.157551348834555,3.844634181952493 -1.622557659161348,4.092692028958071 l-1.6922509072418694,3.3092957896005597 -2.061828511149597,3.189581550647039 l-2.4323863902041873,2.9770555155902882 -2.1168361293586457,2.052123262525288 m30.878396946485065,-38.02302192051416 l0.029281120544983438,1.1202915178807609 -0.4873577001727887,1.8277945685652175 l-2.404143077782839,5.950916537677113 -2.6665374925883643,4.8954853792139135 l-2.771699123000925,4.119382591903087 m6.390567541466299,-7.4448040488612826 l3.3197961001826135,-0.5749532679571152 12.129164706466225,-3.0187728383550976 l2.6634250779406208,-0.11018202551403071 m-22.018483137774346,4.217142897683168 l1.205418370171867,0.6828527941411769 1.3173934762451829,0.12377128313363941 l13.755072372691192,-2.4375508283402914 0.7311080949768769,-0.22996102546301192 l0.6680899905642159,0.17976287328900764 0.22180278302798936,0.5148576736490935 l-0.18809733279367125,0.7528473996012764 -6.941969778898609,6.57435857223049 m-2.136108087610732,0.2641360811931713 l0.8917237332439167,0.8827405617361117 1.0232710574470858,1.469808677465077 l0.40373902346250823,2.8457844325255754 0.043934885599306424,4.720970436857115 l-1.007425901722818,5.221689255004962 -1.364601391091536,4.1525235368144715 l-0.4775066291499062,0.6834744600127048 -0.45189118218535285,0.14214273003305533 l-0.47423474202135496,-0.20856120029624178 -1.9492637631840262,-1.9009207064990918 m-9.173333933343564,-13.417747974217242 l1.1859056315772065,0.346680399437929 2.338278396911171,-0.01937633096726012 l12.79869855359656,-1.832366474276816 9.52780914022208,-0.7613892589450242 l2.1084686093308607,0.4406259292808701 " fill="none" stroke="black" stroke-width="1" /></svg>