<?xml version="1.0" encoding="utf-8" ?>
<svg baseProfile="full" height="93.32283776785364" version="1.1" width="91.85650327528147" xmlns="http://www.w3.org/2000/svg" xmlns:ev="http://www.w3.org/2001/xml-events" xmlns:xlink="http://www.w3.org/1999/xlink"><defs /><rect fill="white" height="93.32283776785364" width="91.85650327528147" x="0" y="0" /><path d="M27.104040922546844,26.76707408524519 m0.0,0.0 m14.891125945836464,3.143262578238034 l0.007524971290254883,0.45462811133943853 -0.3898171023403775,1.7599673892650265 l-2.2165809604106164,8.032858242884497 -1.9821504693657859,4.754930498292121 l-2.586651543991614,4.8912724238135645 -4.638395670445222,6.115579445231065 l-2.9542111756037372,2.643615153950849 m5.883109606870896,-31.516766939333205 l3.1577173802578162,0.3363574919848064 20.621392176326168,-2.3827784809113886 l1.2299962637325415,0.045377381581207785 0.5440369681808893,0.36037532120593946 l0.24828231135710924,0.5677409228256077 -0.029124439305060756,0.6882311660969022 l-0.15863172058309052,0.7503378244641509 -5.581176128515015,11.2128065669706 l0.243506910954219,0.8605596480861196 0.7504854732746421,-0.009719841710172147 l10.537076839455262,-2.149044032366337 1.0947312945205203,0.09901086146698372 l0.5789031670365182,0.33101300460610833 0.5013122542018328,1.1093909469735626 l-1.131300000944814,4.393213459054912 -1.5167232638441952,4.461038966458472 l-1.6624544549494507,3.755818569628415 -1.087680922003303,2.442559016743964 l-1.2019381849568664,2.5724978854362277 -1.0888186124366739,1.8577477416026458 l-2.1392496320387906,0.8723323175193709 -0.9700857105539598,-0.667869356942706 l-0.952131787938405,-1.5954677366358667 m-30.106120705615005,11.10704103562171 l3.5528138407010177,0.2578460991658336 32.02502462165067,-2.4979809703021507 l3.3570456705237386,-0.13823537039637948 2.2354446915790946,0.23593204361540043 " fill="none" stroke="black" stroke-width="1" /></svg>