<?xml version="1.0" encoding="utf-8" ?>
<svg baseProfile="full" height="118.17712814587432" version="1.1" width="96.39680618041177" xmlns="http://www.w3.org/2000/svg" xmlns:ev="http://www.w3.org/2001/xml-events" xmlns:xlink="http://www.w3.org/1999/xlink"><defs /><rect fill="white" height="118.17712814587432" width="96.39680618041177" x="0" y="0" /><path d="M25,25 m0.0,0.0 m12.223897433532557,23.4565507446156 l0.46809985503892676,0.1075076434970933 3.4789669946094457,0.12257485239838256 l12.967117535292006,-2.4091533108143146 11.787251262450921,-2.0040609196374706 m-13.950243731883187,-10.574924015279787 l0.47681460873612,0.9258915943266206 0.28302210888243945,1.8182923277351606 l0.006439976715804864,19.663760702468668 -0.12806814767485755,2.8375952037024943 l-0.669077520168514,2.215185235290252 -0.5116631486777434,0.4224301113622756 l-0.5258511410172545,-0.194472200442158 -1.6161175476814438,-1.8713049853133534 m-10.450514314148291,-15.183528491211513 l0.20513596526543904,1.3478837646902209 -0.3140719905954323,1.8760157280981675 l-1.9998757808448426,5.74149131330914 -2.658623395048568,4.673716820016908 l-2.767481721074816,3.5919530921606495 m30.01695350128128,-17.137102336265563 l2.718597412260756,1.6317371137130732 2.499982232920223,2.1107505882081528 l2.230265132454926,2.3595432878705833 1.4196518045060693,2.1127304336046544 m-12.641239457434942,4.33012107545376 l0.06113623010039808,2.400028831153409 -1.4879388701126617,3.737450284214281 l-2.721740529000394,4.948887407225597 -3.714583476110263,7.988544172751464 l-2.735979944407545,5.274453028462207 -2.9630393503898125,4.672361808651054 l-3.3039055712942598,3.967707112868658 -3.351312983722779,3.2165101269899625 m4.2501093118841915,-30.384077684535317 l2.219314951802657,0.5808599262176223 2.6401160356140254,0.8849485384517504 l17.83976341162214,2.6915969356683593 4.915923138838541,3.4618977917909475 l1.71878113257739,8.681150824369395 0.48079476531312504,4.8538257872700035 " fill="none" stroke="black" stroke-width="1" /></svg>