<?xml version="1.0" encoding="utf-8" ?>
<svg baseProfile="full" height="110.09904078267726" version="1.1" width="97.24957762738974" xmlns="http://www.w3.org/2000/svg" xmlns:ev="http://www.w3.org/2001/xml-events" xmlns:xlink="http://www.w3.org/1999/xlink"><defs /><rect fill="white" height="110.09904078267726" width="97.24957762738974" x="0" y="0" /><path d="M25,25 m0.0,0.0 m10.879562765500216,5.686045824682878 l0.019931225089301088,0.4755088789110101 -0.6111287272273814,2.716100111376559 l-1.648834687308108,4.276832947505388 -1.9203868756841296,3.9415213639268045 l-2.325511309537002,3.456223084037017 m5.641771829191737,-8.194280286750839 l2.9633916252297285,0.07990265988013466 7.633721631272969,-1.5366745033798883 l1.8825216953259576,0.13547755741750184 m-7.700610317927028,13.170337832463911 l1.319652661545411,0.011702902331359837 6.774056110070413,-1.521334308789866 l1.5229766085068166,-0.012220112471762185 m-14.54508467001383,2.76712533563903 l0.5187971957900875,1.7357795900240605 0.018340990546663473,9.946408410362997 m-4.929306239688296,0.6706425170447611 l2.4908173160053155,0.2219230793181021 13.945095800336977,-2.11077626262882 l2.1538689856289386,0.048282617968511826 m-8.8791126619151,13.368961141518547 l2.489590139706891,-0.2946659191252013 3.8952013347550727,-1.2857389646127928 l1.5872583986201616,-0.045458819995925395 m-14.094775421021058,-7.819324107704522 l0.8557203772843698,0.8723932799654013 0.7229016754425999,1.1680938495790192 l0.460768855730698,15.532445788105406 m-6.392762632259237,-12.737421550948302 l0.45379301766822894,1.6174962187107924 0.007984834222166046,12.71568700200334 m-3.6635306369112275,0.5913343727931384 l0.7855309373745292,0.45070925351952423 0.8808571489312481,-0.18487074881724258 l15.775185710727646,-7.080193680598508 m10.488815480169519,-35.48571470194835 l-0.1452693095978427,1.6430752996257152 -1.8837167557140904,5.452282033838599 l-1.8935097833716503,3.8727623972775462 -2.2286708271532247,3.684910905774515 m4.746613799223813,-5.274482061960005 l3.120213282878521,0.015292391114272217 11.692570859593951,-2.4179902325695113 l2.34123799322435,0.11341692873990836 m-20.853916133808756,4.0032083633130116 l0.6073882001325439,1.1545142360633347 0.14762469093105018,1.012032258081125 l-0.05207482395246843,25.595413687913897 0.21018957032005448,0.8795385884890928 l0.4052947669889795,0.13375240393075566 0.6289284699772526,-0.30163431800379464 l7.203069264860687,-6.469059149262707 m-6.926157233426646,-15.926858264765368 l2.1231682599696957,0.8126935552222233 14.351379266746434,1.4058929808667477 l4.198143898385825,2.333479931317882 m-12.35571590810243,-9.843686263194606 l0.516046153867066,1.7251686807934297 0.051510330540523765,5.989934976832588 l0.4691071459008919,17.5073075032081 -0.21963684434947187,3.06695431644352 l-0.785599335309933,1.205599343933834 -0.6356437031525924,0.09876844553310224 l-0.6914955884041991,-0.2654803525835381 -1.6010230866331794,-1.7485329166188324 " fill="none" stroke="black" stroke-width="1" /></svg>