<?xml version="1.0" encoding="utf-8" ?>
<svg baseProfile="full" height="109.49251599609852" version="1.1" width="103.70822478085756" xmlns="http://www.w3.org/2000/svg" xmlns:ev="http://www.w3.org/2001/xml-events" xmlns:xlink="http://www.w3.org/1999/xlink"><defs /><rect fill="white" height="109.49251599609852" width="103.70822478085756" x="0" y="0" /><path d="M25,25.000002086162567 m0.0,0.0 m4.3092116713523865,25.592613220214844 l0.7616626471281052,-0.0954875722527504 12.383917570114136,-3.0442261695861816 l2.513635754585266,-0.09931080974638462 m-19.670441150665283,-16.817749738693237 l1.2305215746164322,1.741902381181717 0.30501939356327057,1.3670389354228973 l-0.284198522567749,45.67812442779541 0.2231346070766449,1.8250808119773865 l1.5166112780570984,-0.3313158079981804 13.562219142913818,-6.93478524684906 m11.900138854980469,-22.714107036590576 l5.253681540489197,-0.7135924696922302 12.06313967704773,-2.4259813129901886 l3.307376205921173,-0.09925252757966518 m-22.344093322753906,-22.928953170776367 l1.2480524182319641,1.7501083016395569 0.5318024009466171,1.9395913183689117 l-0.6280039250850677,42.52218723297119 0.4149606451392174,4.664717018604279 l1.2305215746164322,4.3409547209739685 0.8623722195625305,1.4878904819488525 l1.5498080849647522,1.5311582386493683 1.7993439733982086,0.8537931740283966 l2.676636278629303,0.40211550891399384 7.658775448799133,-0.15531301498413086 l4.13580596446991,-0.45095499604940414 3.3767539262771606,-1.1228182911872864 l1.8198588490486145,-1.5561491250991821 " fill="none" stroke="black" stroke-width="1" /></svg>