<?xml version="1.0" encoding="utf-8" ?>
<svg baseProfile="full" height="94.77167076358204" version="1.1" width="107.22220036456508" xmlns="http://www.w3.org/2000/svg" xmlns:ev="http://www.w3.org/2001/xml-events" xmlns:xlink="http://www.w3.org/1999/xlink"><defs /><rect fill="white" height="94.77167076358204" width="107.22220036456508" x="0" y="0" /><path d="M25,25.46220845494868 m0.0,0.0 m14.376007591713115,3.3558948220723193 l0.468980205364798,0.11488310523357778 3.975653502727222,0.01656098719319353 l25.229985541048816,-2.370903942494722 3.808190187788588,-0.19902785959975178 m-34.27882611653162,21.065047175294044 l1.7546521011877554,0.24790625147855821 2.567996572902073,-0.09722275297266246 l24.918025152999736,-2.307901297108869 4.7501176964255905,-0.16198941467716252 l2.661303887844626,0.2675958550022188 m-44.331087783208645,24.102151654938016 l3.7800996836384746,0.2764677242745924 3.8437527139335645,-1.401949765155156 l17.34034948311061,-5.214525580447017 22.41031228950219,-3.973724782812528 l3.9466876541181883,0.16805388389095316 m-26.577679466746506,-34.349524519058285 l1.0070898797646641,1.607484666914594 0.3763680197954586,1.9840130288499431 l-0.015691256874835042,39.056517228729135 m14.843848264277101,-42.62713773372218 l2.3899127811247696,1.5202270748593205 2.216119446684693,2.1153786429046355 l2.0060591610777645,2.4137460033444533 1.3381037108674088,2.284907340475794 " fill="none" stroke="black" stroke-width="1" /></svg>