<?xml version="1.0" encoding="utf-8" ?>
<svg baseProfile="full" height="107.38187184091657" version="1.1" width="109.49251050615263" xmlns="http://www.w3.org/2000/svg" xmlns:ev="http://www.w3.org/2001/xml-events" xmlns:xlink="http://www.w3.org/1999/xlink"><defs /><rect fill="white" height="107.38187184091657" width="109.49251050615263" x="0" y="0" /><path d="M25,25 m0.0,0.0 m8.349763103154828e-09,8.550300002098083 l0.6497326493263245,0.18241973593831062 5.111478567123413,-0.1336455810815096 l17.996714115142822,-1.954575777053833 3.6487334966659546,-0.10144133120775223 l1.4752793312072754,0.23806029930710793 m-21.47437572479248,-4.460729956626892 l1.047770157456398,1.4986534416675568 1.3043349981307983,9.5403653383255 m11.10033392906189,-12.78056025505066 l0.24280285462737083,1.7344272136688232 -2.178366035223007,11.052230596542358 m-15.913368463516235,4.073193669319153 l0.44393882155418396,0.5828285217285156 0.7395028322935104,2.594188153743744 l1.4112545549869537,7.083712220191956 m-1.990526169538498,-9.609810709953308 l13.949605226516724,-1.9596993923187256 7.237167954444885,-0.7806827127933502 l0.9661301225423813,0.12330694124102592 0.5772390216588974,0.4380106180906296 l0.10094908066093922,0.5626725405454636 -2.4491162598133087,8.325589299201965 m-18.276526927947998,1.8523140251636505 l19.405596256256104,-2.247895449399948 m-21.691179275512695,9.197884202003479 l3.540331721305847,0.07760672364383936 14.247369766235352,-1.744970977306366 l3.21275532245636,0.1270993985235691 m-23.956775665283203,9.756152629852295 l2.060309797525406,0.5341747403144836 1.5853747725486755,-0.08435536175966263 l19.323278665542603,-2.6123538613319397 2.866547405719757,-0.18919482827186584 l1.5680983662605286,0.1803871989250183 m-13.279207944869995,-21.322615146636963 l0.33469025045633316,1.544385403394699 0.007876061135903,3.3360621333122253 l-0.42731866240501404,10.918761491775513 -0.8505298942327499,6.687029600143433 l-1.3763627409934998,5.1775360107421875 -1.9698621332645416,3.958694636821747 l-2.6311123371124268,3.026439845561981 -3.3597752451896667,2.382804751396179 l-4.157882630825043,2.0271117985248566 m13.485171794891357,-13.192486763000488 l3.2086902856826782,1.753905564546585 2.926506996154785,2.1765027940273285 l2.446829527616501,2.4678324162960052 1.768472045660019,2.6280635595321655 m15.024474859237671,-51.989455223083496 l-0.05550823174417019,2.185310423374176 -0.41649963706731796,2.1111230552196503 l-2.3059073090553284,6.9658249616622925 -3.375527262687683,6.958034038543701 l-3.295411467552185,4.847927093505859 m5.265612006187439,-6.769685745239258 l1.5735183656215668,0.4420756921172142 1.2083401530981064,-0.018885607132688165 l13.789881467819214,-3.84051114320755 2.1072272956371307,-0.23904478177428246 l0.7066436111927032,0.2532196044921875 0.32571323215961456,0.48103250563144684 l-0.2493397705256939,1.4596965909004211 -1.7232482135295868,2.736465334892273 l-2.287614494562149,2.721898853778839 m-11.019032001495361,2.254755198955536 l0.27053846046328545,3.135857880115509 -1.0522586107254028,6.543397903442383 l-1.1985162645578384,5.372658967971802 -1.758478730916977,5.201926231384277 l-1.9790083169937134,3.976309895515442 -1.9021110236644745,2.8428342938423157 l-3.1964951753616333,3.5684484243392944 -2.9627537727355957,2.4837538599967957 m13.647773265838623,-26.189851760864258 l4.19141948223114,6.386892199516296 6.78086519241333,8.657230734825134 l6.236823797225952,6.969889998435974 1.5704695880413055,1.4227722585201263 l1.5623393654823303,0.845702588558197 " fill="none" stroke="black" stroke-width="1" /></svg>