<?xml version="1.0" encoding="utf-8" ?>
<svg baseProfile="full" height="120.03060918591636" version="1.1" width="105.15071044367602" xmlns="http://www.w3.org/2000/svg" xmlns:ev="http://www.w3.org/2001/xml-events" xmlns:xlink="http://www.w3.org/1999/xlink"><defs /><rect fill="white" height="120.03060918591636" width="105.15071044367602" x="0" y="0" /><path d="M25,25 m0.0,0.0 m9.050420457567451,14.696780702458335 l0.5278022840167315,0.08237613058762361 1.7953338126515972,-0.009863607978367045 l13.778957734842244,-2.088148781295002 2.0814938463100643,0.2258483239836273 m-11.68040336352021,3.7209102216278693 l-0.08043119364405904,1.9180948691666737 -2.943168204871057,6.816606097926312 l-3.0389569556224463,4.890751807197252 -3.4165437070780436,4.032010455500721 m9.95498830128526,-10.724193587518359 l1.4070791931685716,-0.049869407069988964 5.700487933700442,-1.2427926387785833 l1.7539577124049588,-0.015231422507754897 0.35840821127454464,0.33522927822078313 l0.1358650403490678,1.281766046603368 -4.036287205130332,11.43369120564214 l-2.4637835650414495,7.28459785960312 -1.734659214802965,4.941882847094188 l-1.80786906666493,4.636235906268274 -1.9658473391231612,4.544949553190302 l-2.148142815953599,4.290188250820443 -2.4746850930052626,3.963245655172407 l-2.761198407915413,3.3377473066719867 m6.075756877181135,-30.175806109961478 l1.3934327406473148,3.046120628836685 1.089864884874644,3.29093884063412 l0.8917471163606897,2.8696583696808085 0.3948765418913586,1.7071808985423753 m10.92666095124219,-28.27387254833719 l0.9066531544284487,0.36147214743644895 1.7111600549682153,-0.07797499816172802 l15.410005711305446,-2.735296107122525 2.0693609976241554,-0.22734129416053017 l1.2085352583288507,0.292892379203355 m-14.658510327009433,-10.341574499718611 l0.9796780805233948,1.4310641807531899 0.49750711932147035,1.795308809562195 l5.746435512784577,19.961562619773712 m7.906800222777713,-19.670308777542704 l0.4240105380612083,2.2823487280755237 -1.1768616049815943,16.42322449423202 m-16.43720184112165,2.155427319480049 l2.8020578860801253,0.33132962109403125 17.732052953855924,-1.564524609022045 l3.2638692193338192,0.28169785757186216 m-22.93994862043789,9.357137249523635 l0.5901429041178524,1.9732413534796407 1.433514604045462,13.96200648539239 m-1.1959321812341093,-14.872689253363776 l16.016337029298178,-2.2606677560679143 2.4572260379552704,-0.10841068189664485 l0.904349453420798,0.9180052595775198 0.1500920674549789,1.5561061000441656 l-1.8895422124812633,12.410645505610413 m-16.369025972060733,1.8367630635035297 l17.350605370017956,-1.7233142707845002 m-13.40231243791018,-34.710356443446 l0.7715732338334256,1.12317402742281 0.3340487284841834,1.7905364806339885 l-0.10458696724431657,43.90710320579608 m-11.212847175849829,1.7475349165474987 l0.9598344556427763,0.7272263990077874 0.6680602626109481,0.09373446092843082 l19.683542928639124,-5.346191988506212 m-3.110020327102845,-5.005925941204146 l1.6057383087881505,2.078270976764379 1.8676250409239519,3.3670300151280976 l1.3865283491260756,3.172394923012501 0.758094962217144,2.570914075375759 " fill="none" stroke="black" stroke-width="1" /></svg>