<?xml version="1.0" encoding="utf-8" ?>
<svg baseProfile="full" height="100.77301886884968" version="1.1" width="97.20672021661446" xmlns="http://www.w3.org/2000/svg" xmlns:ev="http://www.w3.org/2001/xml-events" xmlns:xlink="http://www.w3.org/1999/xlink"><defs /><rect fill="white" height="100.77301886884968" width="97.20672021661446" x="0" y="0" /><path d="M25,25 m0.0,0.0 m15.078970207362245,19.870962937088823 l0.6428458845390226,0.11219518796648982 3.790582081043862,0.15242075163716387 l14.294711215332395,-2.6682292563543855 13.39961082833694,-1.5846451532277661 m-15.260329173582464,-13.474421794090127 l0.4660785251683017,1.356980358378584 0.09675567306005062,1.5854751364781121 l-0.5617372523359996,27.2817041344328 -0.9027658867512783,6.723765960471999 l-1.034949262147881,6.370959335666025 -0.4759563084212413,2.443548996615114 l-1.7588931245739907,2.6023022737868398 -1.3190330528721006,-0.9213212284548384 l-2.0986965127005672,-2.0766094356667595 m-9.450126701840468,-34.70954897172742 l0.18551344259347813,1.346893798854202 -0.06197743746447472,1.1550491857419136 l-0.20209393790931715,7.197106505602838 -0.3439321607502903,6.183008100310962 l-0.6970130816192339,5.210188690772715 -2.177759305734545,4.430630812046079 l-1.9825095034404379,2.144873494377956 m31.056672152683443,-25.759799119961126 l0.2135448926726631,1.8213537006922955 -0.08122924520987898,1.9274100219236272 l-0.960073553756872,6.971584893384056 -1.383088272795171,5.966890316371349 l-2.200333238834679,6.036597059308614 m0.2662899770203488,-11.359601019108224 l1.8783860998384057,1.6151554681488158 2.3907185204691817,2.8029706600059714 l2.1092602127626816,3.0920646842097943 1.3746114787830144,3.0343345283343184 " fill="none" stroke="black" stroke-width="1" /></svg>