<?xml version="1.0" encoding="utf-8" ?>
<svg baseProfile="full" height="103.53089649583333" version="1.1" width="90.2920623652129" xmlns="http://www.w3.org/2000/svg" xmlns:ev="http://www.w3.org/2001/xml-events" xmlns:xlink="http://www.w3.org/1999/xlink"><defs /><rect fill="white" height="103.53089649583333" width="90.2920623652129" x="0" y="0" /><path d="M32.08919882168473,25 m0.0,0.0 m20.336150321265816,12.143776340558805 l0.0037855618856196915,0.3725010151597414 -0.41178526842471924,0.7704584054636213 l-3.0970669930514547,0.845284742833376 -8.5907042355064,1.4374787827417168 l-10.425714329618199,1.366843620161013 m-1.576542202745156,2.69254934461378 l3.6928880588331547,2.149239123517622 1.888542016450156,2.1107071661444357 l0.5889400368570684,1.327596813680684 m5.974188405665755,-7.877458340218777 l2.3676655319644144,1.1625728654111895 2.217426618490641,1.6008744724224302 l1.6830481979308913,1.6080366100174943 0.7191590555927221,1.2003038328280948 m12.667992256856994,-8.051234870072998 l-0.2111831938339792,1.295899305986879 -1.9625529273627906,2.309097515642661 l-2.774259031080735,2.4722803294194406 -3.3201054068943896,2.170800312444304 m-23.39452252913596,5.9209293909383565 l1.9759611801985415,0.1594634440311377 2.3400084629551827,-0.05135837836091931 l21.89505573870789,-2.0001355516901014 2.9494374916197144,-0.12184741906325265 l2.417856335760539,0.1748603601921412 m-35.04286797506605,9.790384326773438 l1.9841873891263777,0.24340068260062658 2.2975233792901504,-0.0428344639581557 l31.363864635163424,-2.033204654831482 4.646486961632945,-0.12904552918816262 m-20.5089134819663,-10.818712931141313 l0.5053353300941519,0.6515956544279323 0.15886924306477293,0.8896869091646303 l-2.163943685478816,7.64782489564749 -2.3353591251901205,7.401547469001103 l-2.1007841352384204,4.074519392178051 -2.5761142028118194,3.413812424784096 l-3.1892985593143224,2.890733846015139 -4.049360569224338,2.361669239557055 m16.109052566251528,-12.65178096429133 l3.5638833173345046,1.9415156305004322 3.872391839436616,2.516024901809771 l3.861360799745892,3.1680516833586645 2.978590823007984,2.774949151739215 m4.728390936809472,-37.1031135269534 l0.6260560038805181,0.904407097512453 0.30078866451396485,1.4771183721541181 l-0.04559140466551592,35.34071767426907 " fill="none" stroke="black" stroke-width="1" /></svg>