<?xml version="1.0" encoding="utf-8" ?>
<svg baseProfile="full" height="106.250742857667" version="1.1" width="98.61915480865757" xmlns="http://www.w3.org/2000/svg" xmlns:ev="http://www.w3.org/2001/xml-events" xmlns:xlink="http://www.w3.org/1999/xlink"><defs /><rect fill="white" height="106.250742857667" width="98.61915480865757" x="0" y="0" /><path d="M33.48057790662254,25 m0.0,0.0 m28.74455794454306,5.572086811748367 l-0.05239823025317383,0.5272302141995415 -0.6056562914953706,1.0396154624157474 l-0.9951351289949761,0.8548279042175236 -5.452719791590398,2.8986972169126877 l-7.08859606634255,2.694271610135447 -8.570194990188357,2.541199217511512 m-5.359429876448476,9.927615056928957 l1.8502070267230921,0.3162556812391393 2.5518274453022665,-0.09143801645900689 l29.70195947013944,-4.065949711178615 2.9300766899758046,-0.24749088475246336 l2.4840787006646616,0.28712168213955214 m-42.26097343161222,-8.48661060610099 l0.9713707947707776,2.05079232395113 0.11348423436127922,7.091752045505295 l-0.24006152814791654,8.576804167865783 -0.7975982552044444,7.0701201130097635 l-1.0600310408123463,4.794150965563202 -1.1768885808210825,3.45915884242886 l-2.107184345300971,4.13744841682835 -2.061272655890641,2.8129824393651974 m24.32377907043974,-37.755389370020396 l0.6557094038429356,1.106326686786431 0.29862187826183306,1.1898408934735853 l-0.07763990711678555,37.94932369395239 m-14.232890619102214,-31.062728461166593 l2.062119016774261,1.2799923664616244 2.1370654361017403,2.232199714561834 l1.5742744023406823,2.0994336492780237 0.6893698289676042,1.3934129218433127 m-10.467541085346713,16.071424780233805 l1.173164259689018,0.3833262378903067 1.570253777342182,-0.20768465918853465 l10.860787382194125,-7.617883069301432 m22.102942357302428,-18.200689782086034 l-0.13372526255415068,1.3387348693568268 -1.3117873116295002,1.050535815833012 l-8.472851648839997,4.8279391308482555 -4.885439662769001,1.926199510635941 m0.3503479236687832,6.735890517128773 l4.004982988252862,2.2717655960294914 4.574431887168772,3.2074434336164472 l3.855577802384183,3.3681882565700847 2.2464607108645933,2.9032962826786615 " fill="none" stroke="black" stroke-width="1" /></svg>