<?xml version="1.0" encoding="utf-8" ?>
<svg baseProfile="full" height="130.03921859133507" version="1.1" width="103.04766811260458" xmlns="http://www.w3.org/2000/svg" xmlns:ev="http://www.w3.org/2001/xml-events" xmlns:xlink="http://www.w3.org/1999/xlink"><defs /><rect fill="white" height="130.03921859133507" width="103.04766811260458" x="0" y="0" /><path d="M25,25 m0.0,0.0 m7.401874953375018,19.53097472780087 l0.5706245515764408,0.12086374874674066 2.7865717181447196,0.023115580012483802 l13.529318823568328,-1.8672868963256046 2.9691024561044843,0.03015683279980131 m-10.445706967235461,13.007913592231658 l5.1294968207605915,0.8210037407764045 4.592782269130141,0.3383943157884971 m-10.09677568992823,-11.716031264274417 l0.6111901549706037,1.307393573924998 0.1587793642826675,1.8098149035730955 l-0.07669374240873013,28.71492196801893 m-9.260290180264262,5.361034689767786 l1.111213378602266,0.6648014312363634 1.5256374394619399,-0.3731484850740475 l17.335615440613193,-10.997777293279508 m13.334092822368232,-26.43267532291994 l-0.20800979331745093,1.2052865956635308 -2.6264661495905584,3.611405461143941 l-2.863230469414806,3.061929379419175 -3.188968319953637,2.661773636535417 m-2.133898234396593,-16.028766490895297 l0.6136081664918658,0.9941424390665189 0.16767688557401308,1.0626338960026256 l0.350081299088384,24.385099693223363 0.7137102255596517,1.6986472002288349 l1.521759284584578,0.8137481414965512 2.5037027328345034,0.3654918258053669 l5.488482170707508,-0.003685390486617983 3.050067457600746,-0.49183458443889005 l1.2847442969539862,-0.7091914096707558 0.8080609337669233,-1.0689353098217353 l0.39742521780391077,-1.8301305768196667 0.045083482138099165,-2.3926125178804516 m-22.074268043298986,16.171734135768002 l1.2799226537161483,0.17563493143569633 1.9848911724490195,-0.14399737131015897 l12.315945778754948,-2.205725796424287 1.6677796251377404,0.18852185778130115 l0.6459725897564672,1.123364123249791 -0.06572572140362674,0.9113169778685346 l-2.2930534755340504,6.6418988177181335 -2.043724407207868,4.376668070607104 l-2.3898714553442213,3.805191259899608 -2.9678118780142135,3.317965401338817 l-3.53930015055967,3.0702986291769796 -3.962983985002674,2.2031467331356303 l-4.472940720018534,1.816187937793346 m5.960657497166267,-20.671136254859785 l1.9145129155089164,1.0096869512302047 2.902522596340711,2.11787433982172 l15.075857493140713,13.660388115550665 3.186335612308382,2.917377449424157 l2.8222872151560288,1.8743504507536062 " fill="none" stroke="black" stroke-width="1" /></svg>