<?xml version="1.0" encoding="utf-8" ?>
<svg baseProfile="full" height="99.66056862304717" version="1.1" width="93.65121409037587" xmlns="http://www.w3.org/2000/svg" xmlns:ev="http://www.w3.org/2001/xml-events" xmlns:xlink="http://www.w3.org/1999/xlink"><defs /><rect fill="white" height="99.66056862304717" width="93.65121409037587" x="0" y="0" /><path d="M25,25 m0.0,0.0 m18.68984596141024,15.410538953302577 l0.33970303535506274,0.059608128608651265 3.5858467904885765,-1.38105310220349 l2.0486256068781183,-0.4593254622711607 m-7.96011081485505,-5.172154589006228 l0.4055669482622258,0.818167164317862 0.20545906189159474,0.9717697941806372 l0.053744851440484714,11.162171487209305 m-6.592590730060406,-8.532670872793053 l0.4616368375922081,0.6794705418710308 0.24863424928196645,1.0021533181511884 l-0.037349540577685525,7.653094228130254 m-4.643933675247378,0.3550370849506563 l0.8791351024896713,0.26760401568419534 1.406826205101605,-0.05174499748778152 l14.378240049585644,-2.1387573878077246 1.6710758335300784,-0.09883756628878322 l1.3454180967856944,0.2249132268066241 m-9.8298279970437,2.523025738834158 l0.42056791685108524,0.8705565641948679 0.13290962753091168,1.6014025784224708 l-0.17924250591898455,10.535719135373084 -0.19898521220134874,0.6395853157982029 l-0.3394683446672925,0.13896715035216523 -1.9361565288887468,-1.6956625341900569 m-2.5890057891336236,-7.054647311829496 l-0.06907568543862645,0.9195421477875116 -0.25307863690616084,0.6592153721645174 l-1.2800695737242902,2.3737992713325737 -2.0511088867318152,2.8717310323567595 l-1.937049024843748,2.1360728269392557 m14.184963897790738,-10.696268059405437 l1.428032021243524,1.1553395802595152 1.6717888120288895,1.878461276407858 l1.0631231121826425,1.6886230907551092 0.6015570930400462,1.4611225490765802 m-2.906862887528921,0.6724092558812859 l-0.0006474084704077919,1.1745943367351286 -0.8118606008924051,1.664639560553911 l-2.0032209641797496,2.918096150510286 -2.2942750255296223,2.6248527892055886 l-4.693715382564291,4.185698081928575 -2.688803903395708,1.9157344117434152 l-2.892577948565936,1.7279743465045774 m19.178881144605494,-39.483422436104654 l1.333042961477996,0.26276435774166673 13.568021128041975,-1.742672043131174 l1.6918557790200546,0.26688564231963047 m-8.855950349409474,2.0449543270088824 l-0.10276806447223526,1.2753315868475303 -0.4600094613330758,1.805108725889178 l-0.82989006512591,2.035635365320159 m-3.8892820738283578,0.8130514701740056 l0.4605217702713913,1.499615689716919 -0.1476793493606396,20.82302948873302 m0.48276245137038654,-21.908536050495265 l10.55007296239726,-1.4432230462698208 0.4616982940912824,0.07848541506247894 l0.6982652954796227,0.6722786459900828 0.22266173007793927,0.8690737700675235 l-0.16144186600135765,20.66486902942181 m-11.74572397836299,-14.542399184818715 l7.401358175923073,-0.946586669411938 m-7.392996526861114,7.700358457742293 l7.2868712935566,-0.6967709165997508 m-7.6330829063594585,7.82731343802878 l11.645150678281821,-0.9828336976345126 m-8.970004328937598,3.5338593833727487 l0.019020796320944052,1.194819415276061 -0.5746737612105499,0.8504291363585711 l-2.770204911283384,2.7181398937890124 -3.762230147303781,3.1433881391845566 m13.302782651862774,-7.672847902596441 l3.3378310640932365,3.652150959152093 1.541906067051593,2.2743887890989067 l0.7307635929072389,1.5247976251863673 " fill="none" stroke="black" stroke-width="1" /></svg>