<?xml version="1.0" encoding="utf-8" ?>
<svg baseProfile="full" height="107.99821518361568" version="1.1" width="109.4925153395161" xmlns="http://www.w3.org/2000/svg" xmlns:ev="http://www.w3.org/2001/xml-events" xmlns:xlink="http://www.w3.org/1999/xlink"><defs /><rect fill="white" height="107.99821518361568" width="109.4925153395161" x="0" y="0" /><path d="M25.00000312924385,25 m0.0,0.0 m3.609360158443451,9.056490659713745 l0.6621290743350983,0.25263549759984016 4.706104099750519,2.6676717400550842 l2.205410450696945,1.950245052576065 1.1227641999721527,1.5096688270568848 m-12.305771112442017,37.65751123428345 l1.2306492775678635,-0.11938292533159256 1.1198728531599045,-0.9357272088527679 l9.123069643974304,-15.132287740707397 m19.487992525100708,-35.529441833496094 l0.3448890149593353,1.3828089833259583 -0.47314945608377457,1.9394020736217499 l-1.6892966628074646,4.197219014167786 -1.9469921290874481,3.8448306918144226 l-4.512019753456116,7.039819955825806 -4.825374484062195,5.587256550788879 m8.223123550415039,-6.5808117389678955 l1.7529073357582092,0.22968506440520287 2.527981400489807,-0.20770031958818436 l19.138495922088623,-4.477955102920532 1.9032599031925201,-0.21793879568576813 l1.0441544651985168,0.44825635850429535 0.18260955810546875,0.4702128469944 l-0.34940682351589203,1.4243726432323456 -2.416120618581772,3.324379622936249 l-2.954281270503998,2.989700734615326 m-13.867123126983643,3.183424174785614 l0.43145012110471725,1.1952298134565353 0.06764562334865332,1.2819716334342957 l-1.1331552267074585,5.820013880729675 -1.8474197387695312,5.340403914451599 l-2.672370672225952,5.2912503480911255 -2.7580279111862183,4.032047986984253 l-3.3330538868904114,3.7161636352539062 -3.9272350072860718,3.275226056575775 l-3.348233699798584,2.0915618538856506 m19.00223731994629,-26.30011558532715 l9.543044567108154,10.588282346725464 9.139695167541504,9.368115067481995 l3.513404428958893,3.1682443618774414 3.7692931294441223,2.161497324705124 " fill="none" stroke="black" stroke-width="1" /></svg>