<?xml version="1.0" encoding="utf-8" ?>
<svg baseProfile="full" height="126.08066798053426" version="1.1" width="110.97720366674679" xmlns="http://www.w3.org/2000/svg" xmlns:ev="http://www.w3.org/2001/xml-events" xmlns:xlink="http://www.w3.org/1999/xlink"><defs /><rect fill="white" height="126.08066798053426" width="110.97720366674679" x="0" y="0" /><path d="M25,25 m0.0,0.0 m8.292785095942373,12.99499807664951 l0.4289803361257473,0.07899013671699619 2.360183556008793,0.02783428366241932 l11.370289421737999,-1.59736745274688 2.4721232793598866,0.14978796844002315 m-8.637337335379375,9.46308646315068 l3.8383328600061177,1.9366521226578173 1.4142560713532784,0.9495466799903912 l0.5241124292091537,0.9592473094490225 m-5.565947497750958,13.067507230825349 l0.9968574302068922,0.6503679793486478 0.9223849215546992,-0.21287139239221145 l7.991630855683153,-6.038272471899609 m6.40380827701881,-16.70764388131376 l2.250368491469401,2.7660436979632386 1.3507627732073193,3.03638305660324 m16.43483442656743,-9.091209893037346 l-0.06561084928680604,0.875986235267219 -0.46381606069544085,1.7270527127258672 l-2.627759307697397,6.269270251509994 m-7.256735922633233,4.788007128573721 l0.08322415971095277,0.8988364009409653 -0.31127405007502784,1.4319519466333865 l-4.429031182995389,4.381667488488344 -6.162223862697116,5.211132294983181 l-5.679002373547003,3.4551567048001273 m17.800528077250334,-12.281436165196853 l5.044885554048659,1.0511622192163497 4.772037286536828,1.7978178791507962 l4.2589730089224815,2.473988708508336 3.1645837975842297,2.6746292416390194 m-21.152418751487012,2.996308641060581 l-0.0732455215017037,0.9254922177120858 -0.7941306949681538,1.4288598950649551 l-3.250670643990255,4.633022019921555 -3.4322928502470353,3.70838715574892 l-4.443228762616068,3.7511732484937 m10.913166911170848,-9.12335041683217 l2.466439135092482,0.12607264883690097 6.208442006764042,-1.5554707517929027 l0.704508724302971,-0.23324302134960553 0.6471541237984979,0.1321692119054816 l0.4342110034774477,0.3898433591610324 0.13298569836780683,0.6128531801424772 l-0.20575201422496042,2.0375146431050832 -1.6538696623761275,3.3898725310267435 l-2.1410605642500777,3.191942555243948 -2.6707253449504877,3.274595934586773 l-3.2412335236343384,3.266750172919327 -2.808827582038763,2.3618438930623133 l-3.0812256018712763,2.1604134438981917 -3.283743616243618,1.8038610742438688 l-3.368167442268938,1.3170722466850109 m8.811405769121079,-16.30698912076376 l3.9564879500596555,12.133801432213408 5.74814481403768,6.408693298352254 l3.8098068590889764,3.235509371958845 2.048109483811758,1.6478240262088961 l1.6576436371976504,1.1775421284123528 " fill="none" stroke="black" stroke-width="1" /></svg>