<?xml version="1.0" encoding="utf-8" ?>
<svg baseProfile="full" height="115.28135228268391" version="1.1" width="104.82713861797146" xmlns="http://www.w3.org/2000/svg" xmlns:ev="http://www.w3.org/2001/xml-events" xmlns:xlink="http://www.w3.org/1999/xlink"><defs /><rect fill="white" height="115.28135228268391" width="104.82713861797146" x="0" y="0" /><path d="M25,25 m0.0,0.0 m13.014769118393703,3.4206454384351668 l0.08688346764412762,0.49540657991049375 -0.018807184830379915,1.2938716286280842 l-0.45659697449846687,2.162804501379355 -2.300218387577764,6.471449896144524 l-2.590237626895199,5.563584520706731 -3.055902241526227,4.7829943849283705 m7.369090442221281,-10.544729318978181 l2.126617829208256,-0.21970133952010634 6.133069215126598,-2.8956871661571686 l1.5486673111651466,-0.1032580904154808 0.44689400969119003,0.3998064405221931 l0.22345986951582858,0.6462609623326494 -0.30978004345143073,1.6202408243967152 l-1.684324041024497,5.203988887883219 -2.1231704743375293,5.385189938486007 l-2.4291267898252724,5.233356131171126 -2.8987969453577205,5.219048026140799 l-5.080355514691075,3.6544334128329967 -2.79765852542443,0.9819472510234062 m6.634209364684307,-18.353808395110526 l15.814525758012934,10.22956734387663 7.443972889926505,4.7080298842710855 m-21.6757733262023,4.904223709206474 l2.0631040449771443,0.1486683911530677 12.290687314284646,-2.075365054083617 l1.811670944617773,0.17291608973275746 m-16.94273888277808,10.716880093317322 l1.292781706703986,0.3075037015226212 1.506674685334894,-0.10327204743194006 l12.118866005583651,-3.1702938152449023 1.635427554022967,-0.16447088327181783 l1.5621046929407902,0.16580833382399573 m-8.887037283665862,-17.597374756665147 l0.3819429200213395,0.8514574800126182 0.2638554100730746,1.84363316766535 l-0.02013448107399744,33.925596130059056 m18.229087884281437,-53.63787975379928 l0.011831962027509987,1.9959166350288355 -0.30077464973165247,2.060362229310871 l-1.9146103719456593,8.07134691765494 -2.369923259326608,6.9187808482127 l-2.7657752118281684,5.8423260810507145 m5.428622252837181,-8.801402104141301 l2.028493782103414,0.08612862486288415 10.007598720984584,-3.326079742562403 l1.380663662531007,-0.25583541472048976 0.5754959518567433,0.49643307344229987 l-0.02916548777707466,0.5719254234074025 -0.6413951860620629,1.5570745046399364 l-1.383654871712695,2.372973851091342 m-9.883512645193141,2.037338700715274 l-0.1988916263940627,2.9807817342421674 -0.785646186008146,4.666253790395299 l-1.1541190361483784,4.760025518954756 -1.6034810420160988,4.809133676583317 l-1.6591580058123307,3.862522328195127 -2.048329814391906,3.789580397661967 l-2.4766851702405424,3.6288187412068216 -2.8520038051287013,3.262713152495103 m12.461303941259615,-24.26120223058473 l3.127682418054433,6.824693035011908 4.9308072625380035,8.986945687335028 l4.038622749567724,6.653874541439253 1.1522245158874684,1.514017189983492 l1.0232140527696654,0.7811337121661541 " fill="none" stroke="black" stroke-width="1" /></svg>