<?xml version="1.0" encoding="utf-8" ?>
<svg baseProfile="full" height="101.80335312992793" version="1.1" width="99.94827248483188" xmlns="http://www.w3.org/2000/svg" xmlns:ev="http://www.w3.org/2001/xml-events" xmlns:xlink="http://www.w3.org/1999/xlink"><defs /><rect fill="white" height="101.80335312992793" width="99.94827248483188" x="0" y="0" /><path d="M25,25 m0.0,0.0 m25.834778482989922,3.9198464232157146 l0.042111327122249735,0.4339799082469862 -0.24279563590571712,1.6542543637159641 l-1.3539027595740734,2.601431108508431 -2.2253296802190725,3.2437004235749516 l-2.8802528997403103,3.4978998301971167 -5.7349472721146455,5.634765254276449 l-3.839996395580162,2.9501943427784876 -3.1094042600271545,2.0235761118527 m20.560222361026764,-18.80955676202904 l18.59028660947808,14.369962155436495 2.0295777719638886,1.301287863641554 l2.2779248354121115,0.891973973938067 m-29.642423333097476,-3.3056306686214176 l2.030142976093058,0.17319953644048403 10.863363276576893,-1.3661795090804307 l2.987474569627956,0.07376910697731776 m-20.70338336896619,6.986113061904318 l2.339762888176156,0.4956184358832881 21.48747611506059,-2.3243990773682506 l1.2336553116348774,0.010678454123586017 0.5570507607606388,0.22501868742619344 l0.3688462363875891,0.4629978700444726 0.05650269480620775,0.7916252692375053 l-0.54321071765221,9.032362364130625 -0.4896554450153635,3.7230591870096363 l-0.6219545986512217,2.094226461992783 -0.7862034741707915,1.3805293321371384 l-0.9268231989057865,0.3951822664022374 -1.0338790967163498,-0.5880597293252812 l-1.2572096826111585,-1.137769383967221 m-11.589829602464905,-12.227835689509977 l0.6731879200850445,0.7899656155303847 0.320615092784719,1.0489302956227535 l-0.09367068257025103,21.3566362455839 " fill="none" stroke="black" stroke-width="1" /></svg>