<?xml version="1.0" encoding="utf-8" ?>
<svg baseProfile="full" height="102.54885789671376" version="1.1" width="99.45601397657103" xmlns="http://www.w3.org/2000/svg" xmlns:ev="http://www.w3.org/2001/xml-events" xmlns:xlink="http://www.w3.org/1999/xlink"><defs /><rect fill="white" height="102.54885789671376" width="99.45601397657103" x="0" y="0" /><path d="M25,25 m0.0,0.0 m6.007620840545954,20.58170061436478 l0.38676038195302914,0.08692455307979924 2.0010839820692805,0.02181186679705018 l14.415315822175257,-1.699640383678122 1.8434791602901437,0.14874912019786815 m-14.332871441167004,2.372097894060722 l0.49614754019375107,1.5166326484550547 -0.023025156836407486,22.141843893234103 m0.4576420805345302,-24.46275021739851 l10.754987950952794,-0.9710413887330229 0.6228148099104873,0.10857684590553779 m-8.662128317534295,7.929627544922004 l8.137057172242082,-1.2355318278032081 m-13.338614669827168,12.352048695855684 l0.9162751300345976,0.19070658670415094 0.6024356607490727,-0.13313633546740847 l11.603729703486438,-5.683898375216339 m-0.0950213114894594,-20.648494389057674 l0.39571142185425406,0.7207563094584597 0.024091822231505255,0.5812793108382377 l0.058815910377615646,34.84032535931801 m11.208672058263765,-29.304546357085716 l-0.011644478707036115,1.280864858559056 -0.2601782348921573,2.135767764413666 l-1.4104645752095115,5.1594459287179415 -1.7007493930287028,4.115402867000317 l-1.9702542106935685,3.270992064135115 m4.189023478720712,-6.455559876508879 l0.8672520968713454,0.20011184008115537 1.5165005517817267,-0.1097767735382733 l8.62213662572066,-1.8055658388424638 3.258267772559154,-0.2525622441073099 m-6.54821939676779,3.2957413597116507 l0.2323671036600644,1.4981262761268705 -1.0368523352025119,3.1566363814698186 l-1.8108514478832118,4.300740833789014 -1.98820340316769,3.709530525706494 l-1.8666633934071015,2.778084213438768 -2.086397057857614,2.532294080425975 l-2.3156411800702017,2.278775260150695 -2.5576230109277387,2.005766407232664 m3.731081294132038,-17.44384129653429 l10.148923289565111,9.4577936508002 3.9116316375529228,3.6799881373696977 l3.601943838003664,3.052728908415737 1.4596478548082432,0.6046972524672062 " fill="none" stroke="black" stroke-width="1" /></svg>