<?xml version="1.0" encoding="utf-8" ?>
<svg baseProfile="full" height="109.49251361191273" version="1.1" width="107.22011231817305" xmlns="http://www.w3.org/2000/svg" xmlns:ev="http://www.w3.org/2001/xml-events" xmlns:xlink="http://www.w3.org/1999/xlink"><defs /><rect fill="white" height="109.49251361191273" width="107.22011231817305" x="0" y="0" /><path d="M25,25 m0.0,0.0 m0.7778216898441315,17.561548948287964 l0.36956578493118286,0.11294160038232803 1.914195865392685,0.10091891512274742 l14.101444482803345,-1.7518159747123718 1.2020152062177658,0.08890150114893913 m-8.559642434120178,-13.885163068771362 l1.2838789820671082,1.2141431868076324 0.813162699341774,1.8353641033172607 l-0.20696353167295456,54.21567440032959 m-0.11041494086384773,-39.822819232940674 l-4.73933607339859,12.408246994018555 -2.4752824008464813,4.970441162586212 l-3.7067753076553345,6.465548276901245 m13.011950254440308,-18.757907152175903 l2.13384672999382,2.1956655383110046 2.8891488909721375,4.082741737365723 m2.0280639827251434,-23.479723930358887 l2.1732625365257263,0.24145374074578285 26.44669532775879,-2.273823618888855 l4.374149739742279,-0.16171662136912346 2.4077363312244415,0.23457912728190422 m-26.368873119354248,-4.271735846996307 l0.9590350091457367,1.1385118961334229 1.0900843143463135,8.189066052436829 m12.839463949203491,-10.651041269302368 l0.1380397379398346,1.490391194820404 -1.9731512665748596,8.82409930229187 m-20.590574741363525,4.684086441993713 l0.4554721713066101,0.5036471039056778 0.5712773278355598,1.9771939516067505 l1.2847211956977844,6.9917672872543335 m-1.1521559208631516,-8.376375436782837 l7.296313643455505,-1.2505272030830383 3.987402617931366,-0.28862854465842247 l0.4800228402018547,0.8145944029092789 -1.724780797958374,6.4305126667022705 m-8.796811699867249,1.2559174001216888 l10.341441631317139,-1.366121768951416 m4.325638115406036,-8.381765484809875 l0.46911612153053284,0.517459474503994 0.6288009136915207,2.0860084891319275 l1.2685506045818329,6.490141749382019 m-1.186518445611,-7.961329817771912 l7.275763750076294,-1.1917401850223541 5.277682542800903,-0.4084552824497223 l0.49274034798145294,0.8412085473537445 -2.449510544538498,6.996147036552429 m-9.330441355705261,0.9520445764064789 l10.825549364089966,-1.0556375235319138 m-24.06186580657959,6.139441132545471 l-0.3656073659658432,2.3322734236717224 -2.165682464838028,3.5612398386001587 l-3.219972550868988,4.10868227481842 -4.40480649471283,4.659156799316406 m7.37379789352417,-7.389968633651733 l0.5647922307252884,0.8994901925325394 0.2692153863608837,1.65310800075531 l-0.04061075858771801,22.925543785095215 m14.92008090019226,-33.958280086517334 l-0.11725271120667458,0.9934818744659424 -0.7569865882396698,1.624472439289093 l-2.3341265320777893,3.48813533782959 m-11.79376482963562,1.483653336763382 l28.535566329956055,-2.504422962665558 m-15.362077951431274,1.8555773794651031 l0.4484817385673523,0.8624324947595596 -0.31046831980347633,22.4239182472229 m-12.677757740020752,-14.650571346282959 l25.679433345794678,-2.5528085231781006 m-26.261069774627686,9.95031476020813 l26.89408302307129,-1.8904872238636017 m-26.368873119354248,10.273727178573608 l30.212762355804443,-1.6282835602760315 " fill="none" stroke="black" stroke-width="1" /></svg>