<?xml version="1.0" encoding="utf-8" ?>
<svg baseProfile="full" height="106.86885514559239" version="1.1" width="114.53611370323078" xmlns="http://www.w3.org/2000/svg" xmlns:ev="http://www.w3.org/2001/xml-events" xmlns:xlink="http://www.w3.org/1999/xlink"><defs /><rect fill="white" height="106.86885514559239" width="114.53611370323078" x="0" y="0" /><path d="M25,25 m0.0,0.0 m22.149549659662537,13.016230751342095 l0.05620610533570475,0.43425609421307887 -0.352301990798307,1.284594208112112 l-1.4449998443893355,2.360976128245331 -3.9924665609452736,4.843776770524038 l-4.5683948018466,4.2809994143458185 -5.60490287869164,3.6714785592551973 m13.48803231593715,-9.88410095577807 l3.8084487721022153,0.2565890609735341 25.65368656041294,-2.5224618824556764 l2.4679471473958348,0.16201784414908363 m-42.902018449790205,15.63546601374749 l2.3922327134533647,0.31120036417911 2.326481097260876,-0.018200803726298096 l31.6111483817576,-3.0697716991829402 9.967149438885013,-0.5564512607905083 l4.112294051873894,0.2628975064422545 m-25.529273853779237,-8.608899816543596 l0.4397657482258799,0.8558043199088516 0.0478671049662639,1.2571574541006136 l-0.9354289222228308,9.231676817500622 -1.5280837130371996,5.438458069577998 l-2.3187216338831385,4.7780124050308554 -3.086098731845882,4.3007688575854575 l-3.940777163898094,3.7635981246908217 -4.750461674249647,3.1221170903942532 l-5.1626877372573166,2.2606657097508576 m23.76357087778113,-21.41834640504389 l9.327307936359547,8.839640687950606 8.370531546609644,6.237813969713764 l6.1572781129138185,3.629555537007405 2.821763557450877,1.000632709398484 l1.691470531481209,0.26416798379429063 " fill="none" stroke="black" stroke-width="1" /></svg>