<?xml version="1.0" encoding="utf-8" ?>
<svg baseProfile="full" height="100.07753919107611" version="1.1" width="112.53308148699081" xmlns="http://www.w3.org/2000/svg" xmlns:ev="http://www.w3.org/2001/xml-events" xmlns:xlink="http://www.w3.org/1999/xlink"><defs /><rect fill="white" height="100.07753919107611" width="112.53308148699081" x="0" y="0" /><path d="M25,25 m0.0,0.0 m20.946600174740148,4.580079858281819 l-0.024482882907420716,0.4534142984308454 -0.46830190493307,0.9404831577461911 l-3.165638594554046,1.0842744420748425 -5.0144789264709875,1.732094582936789 l-7.423908203385839,2.2946614878635794 m-2.5562827629999605,4.729327181235305 l2.781681537189148,0.09344215533413751 17.29594914361846,-2.253419240684917 l2.9138596671470998,-0.03588057669169531 m-10.351248225080182,-4.724084770343977 l0.605108671773521,1.6421553882083169 -0.0921543409565977,16.389669355341738 m-0.5958266849010289,-11.736670236676735 l-3.0057597833076635,3.5200726244963696 -3.581909920202666,3.1708754050191343 l-3.593775171331134,2.4264010412745227 -3.917083613718909,1.9189066970077087 m17.156298852962674,-9.081789546959667 l2.4142396624563753,1.279226820858123 2.629878875933712,1.5754381820656167 l5.96052461732728,5.116715361667025 m-22.46832631318611,4.955034986265244 l0.47558710695487794,1.1829889476168844 0.8275872938094493,4.966212701430536 l1.0870835681974733,10.20484831916321 m-1.5291720082913696,-15.449685299109358 l16.042444042855653,-2.028762594369691 1.5606262086476055,0.00898189577536822 l0.557877384588992,0.2701726316808644 0.4112280790573384,1.1209209148163457 l-0.15285321007498476,15.080560688186834 -0.33245168153951193,4.650872331134804 m-9.429616671993108,-17.27614772998049 l0.43086154362755874,0.680332648828794 0.13656634943763593,1.0010801785837593 l0.004683872093365463,12.976402338035001 m-8.734567004258823,-7.295235315466611 l17.803053809461787,-1.6517053039615777 m-17.17590241760313,9.511025578132356 l16.582455211819276,-1.254025394111194 m16.70028367802187,-40.99936069186232 l-0.3314118025944682,1.8194078858267118 -2.8070621200003507,5.626295873571434 l-2.789464268634974,3.9172233633333535 -3.159235555694698,3.3604586874108686 m7.684295977814777,-6.007372099838239 l4.045275924207956,0.26147994923060425 14.964371808125527,-2.4399437296304307 l1.6819178134734105,0.013606598433942569 1.111982647591233,0.621055028063971 l0.42167203267763537,1.124728862470541 -0.34490560935479364,4.3542369873645965 l-2.798498299026765,11.035134310463874 -2.0003514796476303,5.072242232792716 l-2.140300258254996,4.000135807681998 -1.2683136918146076,3.0685316185126803 l-1.0976344144328627,2.506731834483649 -1.1756201309142347,1.8273335698240156 l-0.6518123401085871,0.4658606483839812 -0.6088034203045203,0.1138452932557175 l-0.5825341892151362,-0.39104131477225945 -1.7776637464304001,-2.193729214160871 m-12.711561296524371,-22.884039427645593 l0.5209608391358765,0.6302905800742256 0.4081973368082065,1.8496930615707945 l1.4955011271444456,11.75686071943249 m-1.6248019571725725,-12.831333666766042 l9.518555965294274,-1.7412603340033872 2.544415647847167,-0.18193595002402543 l0.8793621263336656,0.8559116432987526 0.004339740771732302,0.7891823612735294 l-2.021082941144195,9.292260513019684 m-8.921219641221665,1.0944745243832752 l10.243642579704499,-1.0434148334904048 " fill="none" stroke="black" stroke-width="1" /></svg>