<?xml version="1.0" encoding="utf-8" ?>
<svg baseProfile="full" height="104.46860985568361" version="1.1" width="104.74256772795579" xmlns="http://www.w3.org/2000/svg" xmlns:ev="http://www.w3.org/2001/xml-events" xmlns:xlink="http://www.w3.org/1999/xlink"><defs /><rect fill="white" height="104.46860985568361" width="104.74256772795579" x="0" y="0" /><path d="M25,25 m0.0,0.0 m32.12220261717714,16.145697850609526 l-0.06086185406983276,0.32323249086970823 -0.6156023782523325,1.2730181065693913 l-1.2591438875265917,1.3106662395379378 -4.858160399102595,3.4179025003656847 l-5.4681312604219565,2.865363188657364 -8.137005593081877,2.542225934733911 m-0.15552907093295118,-0.4019537558527615 l0.6587139863936393,1.1273368349835422 0.28334864117492237,1.5456678221649829 l1.974515366961818,22.87677077040274 m-1.0134817543249524,-18.973812242970357 l27.846280636405986,-2.4724878475965117 4.99701777966503,-0.13296843413737142 m-10.055040580008667,2.3553073152664417 l0.4400824766488813,0.9641777119825452 0.12201612136277129,1.303125693899354 l-1.9491437916752503,16.28418819455084 m-33.9313021034591,1.6801526397835214 l1.9584439192240912,0.3430558288612574 2.668173171595005,0.09194301300186777 l22.32924296803198,-1.237175059531999 18.22755160582962,-0.6934501991882175 l5.199381937820435,0.0002162582594227914 3.418999172520587,0.36991440541689513 " fill="none" stroke="black" stroke-width="1" /></svg>