<?xml version="1.0" encoding="utf-8" ?>
<svg baseProfile="full" height="143.44138600402167" version="1.1" width="104.40527510779934" xmlns="http://www.w3.org/2000/svg" xmlns:ev="http://www.w3.org/2001/xml-events" xmlns:xlink="http://www.w3.org/1999/xlink"><defs /><rect fill="white" height="143.44138600402167" width="104.40527510779934" x="0" y="0" /><path d="M25,25 m0.0,0.0 m7.215298025880537,14.807270897931609 l0.44092414062588775,0.018634269355968562 2.0139832569278417,-0.018514436339613083 l14.281572317512037,-2.1827925516721725 2.1994056696812283,0.22799575482062504 m-10.677923292185735,2.954700727426892 l-0.1083299223802497,2.3506829435885965 -1.735093063772422,6.943878655654051 l-1.6278977948011157,5.105369339628927 -2.9314473173278053,6.762989534658842 l-3.6870829498443367,5.953392845741783 m9.902221315000729,-16.158799722690336 l1.7539252309745386,-0.15355711728926985 5.371563010273166,-1.4777506276637604 l1.1482067250259385,0.27447529713496094 0.32313752922299943,0.5693235107515117 l0.052757053262172816,8.594129924603026 -0.5238400702795306,6.6225335341957345 l-0.7688397673208037,6.1001591851368815 -1.0037908278465077,5.515609139897469 l-1.5467594956232777,4.8361197750557094 -0.922228910466236,1.1829219798851565 l-1.125253116493739,0.000877431668524502 -1.1428786262414492,-0.9600966842555955 m23.842892126931126,-22.099223140886032 l-0.29403881686492417,0.36069636661812415 -0.5587980020165623,0.8798085494977212 l-3.0010492957330186,2.808352929837895 -3.1820388458252955,2.2458514143738393 l-3.537355737144762,1.846491820373602 m-1.2712378186462419,3.7958936667730834 l1.630442372805077,2.1660124349009 1.3168534713196358,2.4191307506894053 l1.1942278901656123,2.7210303322506793 1.4286990913195412,2.4278681938959683 m11.957405045263176,-14.801200420752991 l-0.23628201512067745,2.0650568141094356 -1.6970617293824855,4.178264199060362 l-2.0716414951032514,3.85057990444665 -2.487502325399975,3.574683123496306 m-14.484050810639086,8.645906886352428 l2.5095725761094756,0.1681876117627941 18.361477551206082,-2.593982904746297 l3.3412572191179613,-0.16039150040696915 1.6950499574756301,0.20525563454304244 m-14.185057319142134,-7.333945998725831 l0.609198733261983,1.0203755354922686 0.2528936516697727,1.1518843125611864 l-0.05914068936814542,33.529375926327276 -0.2198921235803568,1.6248988702193317 l-0.4205680001171648,0.7779877338009006 -0.5674848341961622,0.09698335093107237 l-0.6450511978534235,-1.0188856127815087 -1.4020472015699061,-2.5418463460141916 m2.799073242223554,-23.39424097326829 l-2.368563395899441,5.353908715610631 -3.461954328660184,5.646463896091786 l-3.6385792028350097,4.541062635116238 -3.5988659074147114,3.276677763749624 m14.548072381428927,-18.336828033693987 l12.695421335879884,15.98911888160192 1.374943665162374,1.2893390249591001 l1.3344267691685596,0.6537638287447769 " fill="none" stroke="black" stroke-width="1" /></svg>