<?xml version="1.0" encoding="utf-8" ?>
<svg baseProfile="full" height="104.20378527649008" version="1.1" width="93.20146794326818" xmlns="http://www.w3.org/2000/svg" xmlns:ev="http://www.w3.org/2001/xml-events" xmlns:xlink="http://www.w3.org/1999/xlink"><defs /><rect fill="white" height="104.20378527649008" width="93.20146794326818" x="0" y="0" /><path d="M25,25 m0.0,0.0 m18.034176208552182,16.85907102059716 l0.016905242165478482,0.3304141930115943 -0.2201581703362409,0.863100450736739 l-0.5432106842118357,1.0712879225047125 -2.968071775088629,4.607191791102617 l-2.6996509433914184,3.236262383176016 -3.331670721458942,3.427840901072504 m7.721759195321401,-6.6263868865872455 l2.556664225703529,-0.09157356411122371 8.61655543235987,-1.8574531708625504 l1.929269707437976,-0.09007789953394012 m-8.239651959337072,3.8073687275060633 l0.950321966215514,2.036021387347988 0.6096949308083696,3.686645436149557 l-0.06650527508549878,4.145890072896348 -0.8844160632017052,4.827347331947222 l-1.4594484068714608,4.206344966819904 -1.6080407008933943,3.0051807504389942 l-1.9426525021832357,2.606917271659952 -2.2277110215690716,2.212461632632112 l-2.50476955989954,1.9399305579855555 m3.284674257477754,-20.867780983833594 l1.3102929608738934,0.9882916319788183 1.825567243547009,1.8148345587795294 l1.8788975057949608,2.177916254703772 1.7221860266532525,2.4360268615781564 m5.551298536194464,-18.907098835698008 l1.0761917961944327,0.8357857995006823 1.061041947485421,0.11748393374216337 l12.026431150951773,-2.480304644593573 1.412814725271898,0.3302029311172201 l0.312682667787041,0.8747434104583066 -0.07377013192144108,1.731692947450776 l-1.166459172438022,6.90037248889155 -1.5160649816766454,7.128468403877013 l-1.6013940659231896,7.782649213470781 -0.8011970576046817,2.9101270458649835 l-0.9677905916911661,1.8919506074990846 -0.5494012454696873,0.6253017277198905 l-0.5268307475682328,0.31527452785294074 -0.9009421302474148,-0.08761031700189593 l-0.8953731818127925,-0.768505088663098 -1.0608815452135905,-1.4158254140165616 m0.8319009147644643,-37.003487006844246 l0.3947904165468653,0.8656269826209259 0.12266154680908319,0.9571659583067189 l-0.5343303357387348,14.183949741469627 -1.0385349642771533,8.059722913385103 l-1.3892119325775671,5.614023058031245 -1.5126591199222539,3.9646909067841567 l-1.8192868489110499,3.398709299138987 -2.246838933766942,2.97976269786638 l-2.580115536696809,2.5234070132102997 " fill="none" stroke="black" stroke-width="1" /></svg>