<?xml version="1.0" encoding="utf-8" ?>
<svg baseProfile="full" height="111.38050953497068" version="1.1" width="96.33301571021826" xmlns="http://www.w3.org/2000/svg" xmlns:ev="http://www.w3.org/2001/xml-events" xmlns:xlink="http://www.w3.org/1999/xlink"><defs /><rect fill="white" height="111.38050953497068" width="96.33301571021826" x="0" y="0" /><path d="M27.81394828856461,25 m0.0,0.0 m15.033646431471764,3.548390937106908 l-0.06339502746619503,0.5374536094074348 -0.41958248764098044,1.797390849660451 l-2.2265473659731163,3.3933448653923897 -5.682684410381813,3.260000929679688 l-6.281476392743954,2.858838130345121 m-3.173909035830316,1.4578112058397437 l0.8647450559435707,1.0056418953355295 0.30695464010885587,1.2067214495181726 l-0.3518835784892527,27.527765896821048 0.29592746617033455,1.1725285741870708 l0.5846257006925082,-0.2041802139755674 1.1103393497386198,-0.7541231416024459 l9.697835151283579,-7.092518839937921 m-9.270485324614082,-13.123069323395379 l33.70073634859167,-5.0502454303627315 2.864742333888408,-0.13979586946820838 m-19.77989338639642,-8.31154848153506 l0.8735550632123796,1.1854051504706546 0.6642028205919618,1.7957545557698957 l3.620800516017209,8.49256426899127 6.49577823705003,15.813988557789328 l2.2110642844241153,4.114594241372159 2.392927013177757,3.5431881041039586 l2.7023425658562727,3.2482602394959614 2.9347653855820792,2.5827691445673215 l2.2344763371736454,1.6410075867454454 0.9979309991531476,0.27159333086484316 l0.6316812461115668,-0.21788831401213268 0.3929284538121922,-0.5479939871241563 l0.15691903113811717,-1.736854476560406 m-37.43625246247462,7.915961628580145 l2.7795270689937257,0.18775246090017178 19.755915522070282,-1.6047486067895038 l5.0545808500364675,0.12866417413720938 " fill="none" stroke="black" stroke-width="1" /></svg>