<?xml version="1.0" encoding="utf-8" ?>
<svg baseProfile="full" height="105.99352916974574" version="1.1" width="102.23592826145192" xmlns="http://www.w3.org/2000/svg" xmlns:ev="http://www.w3.org/2001/xml-events" xmlns:xlink="http://www.w3.org/1999/xlink"><defs /><rect fill="white" height="105.99352916974574" width="102.23592826145192" x="0" y="0" /><path d="M25,25 m0.0,0.0 m6.019373590086678,12.9678897985893 l0.5235812133486883,0.1355752326594053 3.790444156305619,0.007619703065607963 l14.377469859067157,-1.7561165587600616 2.8945069742449485,-0.10285889552318239 l1.3697545599605643,0.1877188686603074 m-17.21704255009559,-3.9175365409805196 l0.7091503001915259,1.2891520935968703 1.0092312703908934,8.779182378724522 m8.776493983415598,-11.735364921942484 l0.1748895537026342,1.49658044618793 -1.6986871437703703,9.99396854014475 m-6.835085574799408,0.3647586188206612 l6.880090364433103,-0.8217005038273457 m-12.48758481802934,6.129166429027029 l0.34717228426018987,0.522705399676348 0.8499564126243561,3.19718605378826 l0.8349975855435637,4.642686688403998 m-1.589641066509511,-7.744662747706164 l10.3721439833916,-1.8217290164204032 6.3738542696847915,-0.8247122160056354 l0.7759253829912758,0.10433921574360468 0.44149273730817423,0.9107078850013184 l-1.9852906419158278,6.690845339819169 m-14.284950325762981,2.2697261400263335 l15.19073973810151,-2.021627481867465 m-17.09539384385465,7.75477953730838 l2.834911806605385,0.1026040352877289 11.932643282436803,-1.5794893053601773 l1.6805148674250894,0.11149903311150472 m-18.932703972155338,8.422894661061903 l2.579013336720597,0.35830249443025736 17.08035581627338,-2.735710039990411 l1.6264452046578697,0.2154299000562953 m-10.372599513270526,-24.77287627674635 l0.2774140774498925,1.4588149229935476 0.07347458485605096,3.5078709679033846 l-0.08008435562374065,11.06111120144277 -0.4995896269381722,6.7922441029727 l-0.9516111941683938,5.140333513846202 -1.50966563066863,3.8394147373956677 l-2.141512732010935,2.9116012759873877 -2.832553247064266,2.377084334568201 l-3.6263300214430036,2.0841201245745973 m10.704010015434504,-11.97307986369816 l2.509844498770786,1.5825821337553339 2.306994330067961,1.9863990372927278 l1.9420460665459751,2.2711470203187973 1.3972921266038822,2.4159889816056697 m11.937865529581885,-46.424090954455494 l-0.0340434502026418,1.9699537041645254 -0.3198170810853449,1.9288550985586332 l-1.7719270575632502,6.283095476761572 -2.629602052650901,6.264156406295955 l-2.5475461922008615,4.3624527442484275 m4.068239001422691,-5.855437448692289 l1.246512317576045,0.36054640805610777 0.9548263572739888,-0.030461356795976113 l10.888376020332823,-3.494003872195132 1.4183098873226703,-0.23441873284632764 l0.565586318688353,0.1993300296505591 0.2683747077294157,0.42079486721276105 l-0.1729663231474445,1.3145556191140924 -1.3637644607278288,2.422123789457721 l-1.8046010730104645,2.401879639813813 m-8.515425619127198,1.9648533691603667 l0.20162683321793956,2.778401586425528 -0.8480496791258629,5.817934837291601 l-0.952776430939272,4.840846616655887 -1.388888806263539,4.694576440248972 l-1.5530981692229788,3.5789242441751146 -1.4961293791908747,2.5584611439465474 l-2.5406759387077296,3.2372271194293916 -2.3699103791485987,2.2442538514227013 m10.753918915544892,-23.50165848986964 l3.2644390720256498,5.771291089380058 5.26920089242672,7.833424984758957 l4.781081963151049,6.379893365236816 1.2111629277206264,1.3290870835753477 l1.199727634931615,0.7874465631804479 " fill="none" stroke="black" stroke-width="1" /></svg>