<?xml version="1.0" encoding="utf-8" ?>
<svg baseProfile="full" height="111.40107970374255" version="1.1" width="112.53567493760286" xmlns="http://www.w3.org/2000/svg" xmlns:ev="http://www.w3.org/2001/xml-events" xmlns:xlink="http://www.w3.org/1999/xlink"><defs /><rect fill="white" height="111.40107970374255" width="112.53567493760286" x="0" y="0" /><path d="M25,25 m0.0,0.0 m20.17841109286793,1.2917040974770682 l0.0391332271829035,0.5244023548261172 -0.39687340731219156,1.9379650425738517 l-3.400554835322585,3.1096017724355876 -4.604086437599624,3.3202838448243854 l-6.928548089847785,4.62585223938149 m29.527718989692122,-11.30189270476204 l3.9230107517297332,0.10788362986655554 4.030413169420512,0.7351109618101345 l15.208095602082237,6.913064422473819 4.9589548747096,1.661365742902498 m-26.49460368293178,-3.484525234874022 l-0.23267028743051263,1.1165186388643515 -1.5033164438078541,1.4357851985244514 l-4.317943211337957,2.705184118071524 -5.003412872372978,2.567352435978262 l-5.859967039243035,4.393458533858479 -8.197950707896206,5.8555806119802565 l-4.475528783577955,2.7233770769823473 m28.75065521590074,-18.80749551344779 l9.099443191842619,12.522328293644257 7.317307919474772,6.6122202792259195 l4.948361706844611,3.879578304622834 2.6566504396922546,1.082073221220166 m-37.442164895525615,-0.5342633775386266 l3.9752391187765626,0.7927881562468699 18.370535459396276,-1.4761739990305345 l3.3433895983381303,0.1571949206848224 m-31.736527108612275,10.232453631881397 l4.9278814406534615,0.29395584539924247 27.019824821178368,-1.937004884281986 l5.148028003902181,-0.09823156570577131 m-20.09829033006225,-8.32876693096996 l0.6754320764895524,0.7168089531867229 0.2792884440745934,1.5325303926947875 l0.05799962585941926,24.523011192715092 " fill="none" stroke="black" stroke-width="1" /></svg>