<?xml version="1.0" encoding="utf-8" ?>
<svg baseProfile="full" height="103.30971925244566" version="1.1" width="96.23237741765263" xmlns="http://www.w3.org/2000/svg" xmlns:ev="http://www.w3.org/2001/xml-events" xmlns:xlink="http://www.w3.org/1999/xlink"><defs /><rect fill="white" height="103.30971925244566" width="96.23237741765263" x="0" y="0" /><path d="M25,25 m0.0,0.0 m7.6650236846911834,12.29528848751776 l0.5956578826232406,0.12859926223495652 1.9650078649837335,0.17058064500762374 l2.4467401837848475,-0.17942653282391782 26.05050106975707,-2.833016180670951 l4.357390956172542,-0.17886735092240902 2.687227357196058,0.25092701098171105 m-22.773759571339596,3.6857500590781136 l-0.02275217857970746,1.8411663902822542 -0.7964136090589071,2.167101583149247 l-1.7761663631723936,3.2053277829875393 -2.3373975390897006,3.201596783899101 l-5.510503070684277,5.953589479358894 -6.139859345432065,5.277573531222711 m15.258962426515978,-12.83086380343597 l0.5335680593657524,1.0225215875308362 0.16482711647228493,1.376273167655588 l-0.007005643794052679,23.467208872310817 m6.986574766677856,-27.647195286164077 l3.4301428006394787,2.0284836940149833 4.214630689405696,3.3010158221822974 l3.6703203819327133,3.688112450553158 2.3568377966743927,3.262687154270399 m-40.38339469768201,20.41994245586676 l1.8792501390724743,0.2353421863582417 3.1886763218039795,-0.013291043282343474 l35.807218472998414,-2.2841173553149106 2.7210714657176407,0.3572952234405823 " fill="none" stroke="black" stroke-width="1" /></svg>