<?xml version="1.0" encoding="utf-8" ?>
<svg baseProfile="full" height="112.55585721115479" version="1.1" width="102.69718586605198" xmlns="http://www.w3.org/2000/svg" xmlns:ev="http://www.w3.org/2001/xml-events" xmlns:xlink="http://www.w3.org/1999/xlink"><defs /><rect fill="white" height="112.55585721115479" width="102.69718586605198" x="0" y="0" /><path d="M25,25 m0.0,0.0 m28.19434803583319,1.5977103411389608 l-0.06460298080104591,0.5702117575268095 -0.5391905564802505,1.0881439848348118 l-0.9611416085323149,0.7623687796599119 -5.813135312419943,3.4526581590405767 l-6.717488532464029,2.9295769412287256 -7.835820116728615,2.6325391935075104 m-4.457342306333327,11.24575580808934 l1.839945837251257,0.33494754856011233 2.7464419613052042,-0.12107385925844712 l25.940161623359774,-4.153242907248627 3.4355726713055934,-0.4074486352895902 l2.596216833317303,0.26201676470047447 m-18.39175818825953,-10.703930258363673 l0.49429585161613915,1.1436051046802627 0.19661545415902876,1.9556704008078847 l-0.008071454796825346,25.889778916615274 m-13.059815185912148,1.586890763961552 l3.3740324976114864,0.9643472709880582 3.3039053361768915,-1.993451346588771 l11.74693791543723,-3.304888315420863 6.946969587428541,-1.5316304743096554 l1.5489345887214057,0.030390848186078238 1.0776455578265205,0.32538254138481226 l0.5219860287371713,1.0549326494702422 -1.5016876221414877,9.601740236823773 l-1.157856293374474,6.1299002557011235 -0.522522503625485,5.578547416347975 l0.17610510511991936,2.299855541417627 0.8838935848713044,1.7332019639226184 l2.0503963981179982,1.2202408539266287 3.095604157019128,0.38110896511327885 l5.253870314388936,-0.19981965036564217 3.720137297318792,-0.6939288025981118 l2.4084341156952536,-0.8902178075667874 1.2326314424927771,-1.184331651677508 l0.655164125124787,-1.6434006509752563 0.2873722076858308,-3.929606995904571 " fill="none" stroke="black" stroke-width="1" /></svg>