<?xml version="1.0" encoding="utf-8" ?>
<svg baseProfile="full" height="128.13181085621693" version="1.1" width="96.25599575484348" xmlns="http://www.w3.org/2000/svg" xmlns:ev="http://www.w3.org/2001/xml-events" xmlns:xlink="http://www.w3.org/1999/xlink"><defs /><rect fill="white" height="128.13181085621693" width="96.25599575484348" x="0" y="0" /><path d="M25,25 m0.0,0.0 m30.698855335776123,1.6204944451586552 l-0.09329825937976113,0.5473737804550163 -0.6128790744172097,1.062751792285594 l-1.026917668215106,0.6508658233369119 -5.944470231624807,2.998751282034119 l-7.294186267995488,2.6822983090605654 -9.048425721700987,2.542041642910931 m-4.745234985350518,10.992985980684878 l2.050742000105275,0.3088098116743221 2.9296533454019182,-0.14542203680360852 l28.880646068189016,-4.2374512552998285 3.6734594943372976,-0.25440897924985434 l2.643962174586006,0.32425153432157716 m-20.67912484574294,-9.877987327859868 l0.381962681182601,1.1719681999093303 0.087917053827998,1.9980645276106175 l-0.04223042341801705,9.192542808077658 -0.25634736074979325,6.1545594377355615 l-0.9484814593512017,5.888929632456414 -1.6987531202713706,5.01554708552193 l-2.0515155683658906,7.915471409451127 -2.2243709436870844,6.925614307898982 l-2.369353911145903,5.268030552173368 -2.706309627432788,4.045089537800489 m18.431944568048266,-45.997798480956305 l0.5544138608835459,1.6104805227690817 0.1722845987332063,1.5906054681696675 l-0.05396655178987105,47.20905633674935 -0.010511077670108398,2.523798790579405 l-0.006109365649958505,1.509302328770501 0.16999025134351714,1.1693287668363488 l0.4417571926837927,1.2762957723132689 0.5683691877235314,1.390805869456175 l0.6108020976367234,1.2443498490289788 1.7504136039715386,1.27728587802622 l4.798870756951457,0.5371274531293632 5.522607087269977,-0.38143782625520806 l1.7643534290344915,-0.8544690127976168 1.2034192527953396,-1.5828283752984664 l0.5334201040569869,-1.8990165168594775 0.19863807426366795,-3.435266031178247 " fill="none" stroke="black" stroke-width="1" /></svg>