<?xml version="1.0" encoding="utf-8" ?>
<svg baseProfile="full" height="109.49251354795933" version="1.1" width="108.34312120117829" xmlns="http://www.w3.org/2000/svg" xmlns:ev="http://www.w3.org/2001/xml-events" xmlns:xlink="http://www.w3.org/1999/xlink"><defs /><rect fill="white" height="109.49251354795933" width="108.34312120117829" x="0" y="0" /><path d="M25,25.000000092237933 m0.0,0.0 m21.71285629272461,-9.22379328471834e-08 l0.137941287830472,0.49771182239055634 -0.30361123383045197,1.3727439939975739 l-0.8585353195667267,1.2867499887943268 -3.7630242109298706,4.5668041706085205 l-3.782329261302948,4.018198251724243 -5.633831024169922,5.038893222808838 l-6.060992479324341,4.115423858165741 m3.5576918721199036,-15.297794342041016 l5.063813924789429,1.1411745846271515 5.958502292633057,2.247600704431534 l4.962376058101654,2.6129871606826782 3.8469120860099792,2.9831120371818542 m-23.002851009368896,11.321715116500854 l3.7019512057304382,0.12563450261950493 17.137011289596558,-3.0729231238365173 l2.3288561403751373,-2.19372282117547e-05 m-10.417550802230835,-5.834951400756836 l1.172676458954811,1.4645293354988098 0.7174131274223328,1.8844956159591675 l-0.272718146443367,34.03078317642212 -0.21638881415128708,2.8655284643173218 l-0.5665069445967674,1.3099157810211182 -0.7918461412191391,0.14513670466840267 l-0.8929328620433807,-0.6282822042703629 -2.0396357774734497,-2.614215612411499 m4.369193613529205,-30.34848690032959 l-3.4022006392478943,7.4200475215911865 -2.852892577648163,5.321093797683716 l-3.268822431564331,5.104178786277771 -4.895336329936981,6.63943350315094 m16.57822608947754,-18.644888401031494 l3.0961325764656067,2.567532956600189 3.9774826169013977,4.513102173805237 m8.28911304473877,-34.97601270675659 l0.32342053949832916,2.134755551815033 -0.22847622632980347,4.0062642097473145 l-0.5401822924613953,3.9543169736862183 -0.8820520341396332,3.744421601295471 l-2.1977591514587402,5.160688757896423 -1.4945393800735474,2.024542987346649 l-1.3067567348480225,1.2088290601968765 m7.1041518449783325,-21.216986179351807 l4.097522795200348,-0.32532908022403717 6.326169967651367,-1.102345660328865 l0.581599734723568,0.34713469445705414 0.6103814393281937,1.4317111670970917 l-0.3806767240166664,8.072198033332825 0.15922587364912033,4.357962012290955 l0.7451637834310532,1.8862506747245789 1.6117720305919647,1.2363821268081665 l1.7051368951797485,0.3927640989422798 2.580519914627075,0.014259197050705552 l2.0610465109348297,-0.30808640643954277 1.0617617517709732,-0.6510969251394272 l0.37925079464912415,-1.0305232554674149 0.31291261315345764,-5.4779887199401855 m-25.496323108673096,15.780763626098633 l2.0052380859851837,0.43104734271764755 14.409072399139404,-2.813844382762909 l1.0333311557769775,1.2112859636545181 -0.001754978293320164,1.8118394911289215 l-4.487128257751465,9.363159537315369 -2.8728994727134705,4.555221498012543 l-3.130881190299988,4.063827693462372 -6.180331110954285,6.139615774154663 l-3.978184461593628,3.071211874485016 -4.337604343891144,2.841309607028961 m6.0427409410476685,-25.136902332305908 l3.4155386686325073,2.3306110501289368 11.711671352386475,10.460021495819092 l6.19296669960022,5.088033080101013 4.620506465435028,3.161417841911316 l3.1814244389533997,1.3881000876426697 " fill="none" stroke="black" stroke-width="1" /></svg>