<?xml version="1.0" encoding="utf-8" ?>
<svg baseProfile="full" height="98.9387862035727" version="1.1" width="112.91950504555035" xmlns="http://www.w3.org/2000/svg" xmlns:ev="http://www.w3.org/2001/xml-events" xmlns:xlink="http://www.w3.org/1999/xlink"><defs /><rect fill="white" height="98.9387862035727" width="112.91950504555035" x="0" y="0" /><path d="M25,25.19234351685786 m0.0,0.0 m11.776184881435107,3.7698922604395744 l0.09953521231106839,0.40833151234748843 -0.10652161469146931,1.6237455339133857 l-2.908438382144866,8.029916556488255 -2.6778547549045433,5.33988305310047 l-3.0986359498040654,4.654262279014041 m7.481418362794351,-9.504931239471134 l1.5670736562813194,-0.24639472378995178 3.8428430582244704,-0.626330903034305 l12.082214525547768,-2.6850326155446838 2.387950096717012,-0.40144801389856477 m-10.566597256697605,3.657000632410854 l0.5953648572264814,1.6295592532549574 0.08568945636361981,1.325204730072056 l-0.23101458405508696,25.790843124589976 -0.2970140701301975,1.8576568819190513 l-0.4419761767609288,0.788070177572895 -0.5495549659083447,0.1364773133142115 l-1.2652323450285454,-0.8945849856730922 -1.6535154210209226,-1.703867160508741 m-5.629003805314975,-21.346638488845183 l0.04541284545094046,2.080028334718615 -1.5059798432459892,1.877840159487068 l-2.821444241352152,2.707753713668176 -3.9242394026479768,2.9283105743373774 m24.17796932370916,-10.293863600220591 l1.8703779049161786,1.5429864596074765 1.9221085246641496,2.1483387287549904 l1.5640547150745676,2.3237466827289497 0.8859151372301052,2.041607336772005 m4.7126278351392,-26.967196294003774 l0.6341723477705355,0.33503638987706763 1.2651803232034022,0.07118866548188463 l12.456068838528132,-2.589735845738669 1.2238830650111037,0.3052835897588061 l0.4103988425183315,0.4206974468450387 0.21787495946133528,1.9258125381005464 l-2.335562060626149,8.13487976485618 -2.1612465085466352,6.042125917138579 l-2.292374484394254,4.900073113287827 -2.9103354197758344,4.688722657983955 l-2.8422500294866593,6.487452299722884 -2.4012545361357764,5.249382955484003 l-2.5411024917578744,4.364445777650201 -2.7881601198471175,3.573790523667694 l-3.1741094922829665,2.8461196190769904 m4.593204097298919,-37.30764373828766 l1.3936994761915713,0.6811578428616675 1.7865201287367063,2.2063323956049343 l11.83118031093855,14.889770259466152 9.428386170352313,6.288879830921108 l3.7056140490148812,1.4914969198914092 " fill="none" stroke="black" stroke-width="1" /></svg>