<?xml version="1.0" encoding="utf-8" ?>
<svg baseProfile="full" height="94.82089953295116" version="1.1" width="101.80150125007034" xmlns="http://www.w3.org/2000/svg" xmlns:ev="http://www.w3.org/2001/xml-events" xmlns:xlink="http://www.w3.org/1999/xlink"><defs /><rect fill="white" height="94.82089953295116" width="101.80150125007034" x="0" y="0" /><path d="M25,25 m0.0,0.0 m32.595438647427095,3.246849105413781 l-0.0684131284584703,0.48857647119560155 -0.6010413684054143,1.0327714062739846 l-0.8974627768454448,0.5581504777649596 -5.743759908048825,2.66531865733568 l-7.3710113174165715,2.4473343575007935 -9.354099031664248,2.360117021520104 m-2.109373500996248,9.038218433550202 l1.644201475378806,0.1981039284974358 2.833305391494166,-0.14583029197563982 l24.575722406425328,-3.9155100526008924 3.2341334751725768,-0.289879770597898 l2.3150564234076527,0.21879673750364917 m-40.309599095931205,15.001124593936225 l2.3894113202877283,0.3170034449678229 2.9885832281479066,-0.11367853184768202 l36.56015983447287,-5.078573725099774 4.029884707750455,0.07965034781941722 m-25.990887971121246,-16.16893354892439 l0.6040521488507017,0.94646925975392 0.2118299332527087,1.8829063691577086 l-0.18740430009175565,25.52195677014911 2.3106553843478994,3.5775188148099244 l3.2679814425459606,0.7636023391066217 4.773365961003729,0.1888369177404966 l9.485563850197478,-0.24748678822152154 4.9639368343221735,-0.6930272642136764 l3.3436953443977817,-1.0001273063681448 1.5581775000412612,-1.3140217539757342 l0.6608555998248419,-2.1934937642381565 0.0885427403006477,-2.988694139275484 " fill="none" stroke="black" stroke-width="1" /></svg>