<?xml version="1.0" encoding="utf-8" ?>
<svg baseProfile="full" height="92.45219304851003" version="1.1" width="94.398423029927" xmlns="http://www.w3.org/2000/svg" xmlns:ev="http://www.w3.org/2001/xml-events" xmlns:xlink="http://www.w3.org/1999/xlink"><defs /><rect fill="white" height="92.45219304851003" width="94.398423029927" x="0" y="0" /><path d="M25,25 m0.0,0.0 m29.334523467242047,6.726899796946595 l0.2314550572120505,0.4493366713948322 -0.11732850584185671,1.5344778469373506 l-1.5160333043610148,2.9860354954607438 m-5.5229488821621295,0.9999849739293462 l0.4156264612591022,0.6812490421536715 0.23837139826370138,1.2551846634233725 l0.663866495691295,10.115450063748185 m-0.6124765437894281,-11.080009601912224 l11.48617187178916,-1.6161654546384785 1.0341364192918352,0.1748494223684554 l0.593297410507129,1.652736171101521 -1.229494465629681,10.177783484311753 m-11.142041558600361,-5.4334638757322455 l11.697063925423018,-1.3182122651281396 m-11.23009683179463,6.374397431208642 l10.529051661921356,-1.0762642530085773 m-17.863662607674428,5.130011827917977 l2.6904510393617422,0.24445041365243395 16.809095680667607,-1.7253842823387295 l4.000577958763332,-0.20321845639656508 2.076830019916377,0.1965623247617205 m-12.930475644107519,2.066951576020505 l0.40463926806391826,0.7679844900625523 0.15112737966852552,0.8709660858954035 l-0.04550504635101408,11.511009472650477 m-8.726277976499535,-6.72814449276143 l1.751839295469117,0.17354976427734295 13.269032053400359,-1.3630848821994486 l1.8156687114722543,0.10210614526374562 m-20.589371807094256,8.489022359372827 l1.9984761631904595,0.3151410897664102 9.193174131967973,-1.5199108423207344 l10.199790099333525,-1.040383906714528 3.2385585897401263,-0.15037684031308032 l2.1013116442168376,0.2760232634930022 m-8.751298115578233,-4.931887392123491 l1.7130614733195022,0.8386613523410741 1.4259414887256783,1.238933762920083 l1.0546296603831753,1.254082076966974 0.702029260868887,1.2937728485515938 " fill="none" stroke="black" stroke-width="1" /></svg>