<?xml version="1.0" encoding="utf-8" ?>
<svg baseProfile="full" height="104.07489689695981" version="1.1" width="100.32335169299188" xmlns="http://www.w3.org/2000/svg" xmlns:ev="http://www.w3.org/2001/xml-events" xmlns:xlink="http://www.w3.org/1999/xlink"><defs /><rect fill="white" height="104.07489689695981" width="100.32335169299188" x="0" y="0" /><path d="M25,25 m0.0,0.0 m6.028922863627059,2.9525050052902504 l0.5459498080505542,0.24014587844296295 3.970040577798619,2.4916823830831625 l1.6706540681173523,1.3543224866112138 0.8847469405607187,1.111902567650019 m-12.318805303696735,9.452603683080138 l2.5328167402069557,0.9957949732598126 2.6518818467547427,1.4453673420115258 l2.11287894776502,1.4513068267285856 0.8494363202790248,0.9071752324971127 m-8.362387523347664,24.233461795265985 l1.2073190515485985,0.09025305299175922 0.9382446465029816,-0.7307979742442873 l2.8796650905250334,-5.253055836128669 2.9562821704862707,-6.232028270795139 m10.319259307941063,-17.322740585636833 l0.7178364657036266,0.7814093398307679 0.4035036394536622,1.036602541810021 l2.0338464071441154,13.440462217366678 m-1.6982852239866626,-14.564748748674278 l22.46637483744184,-2.4965430587231343 5.484488861142941,-0.32499415042796953 l1.349463144822461,0.32677640638167543 0.6992180081502919,0.9542230556408956 l-0.19717473980701009,1.5871822883428381 -3.675729089849783,9.939507927296024 m-23.9225656426376,2.3476156685712795 l25.265260868811133,-1.5118589965187184 m-14.343503369521917,-26.23612678298053 l0.544149550950462,0.8251840349117486 0.3283101070317303,1.7742779496551444 l-0.003018700904125632,49.008028644369766 " fill="none" stroke="black" stroke-width="1" /></svg>