<?xml version="1.0" encoding="utf-8" ?>
<svg baseProfile="full" height="109.49250972047707" version="1.1" width="107.00500506907701" xmlns="http://www.w3.org/2000/svg" xmlns:ev="http://www.w3.org/2001/xml-events" xmlns:xlink="http://www.w3.org/1999/xlink"><defs /><rect fill="white" height="109.49250972047707" width="107.00500506907701" x="0" y="0" /><path d="M25,25 m0.0,0.0 m3.9864960312843323,3.949764959543245e-07 l0.6831057369709015,0.26255812495946884 3.016197979450226,1.5344306826591492 l2.9961177706718445,1.9860456883907318 2.3429428040981293,2.0083992183208466 l0.9481265395879745,1.2618322670459747 m-12.996816635131836,12.342126369476318 l2.9199644923210144,1.3747361302375793 3.0192288756370544,1.937928944826126 l2.4031834304332733,2.014082223176956 0.9685856103897095,1.2684626877307892 m-9.117169976234436,30.43097734451294 l1.6594582796096802,0.7081113010644913 0.8047235757112503,-0.023892598692327738 l1.3071075081825256,-0.8784141391515732 4.336944818496704,-7.384589314460754 l5.858873128890991,-11.22218132019043 m12.45124101638794,-37.1476149559021 l0.921984389424324,2.6297488808631897 0.18763622269034386,1.5836839377880096 l-0.3026208467781544,54.20802116394043 m0.16291484236717224,-56.59434795379639 l25.148937702178955,-2.1107301115989685 1.7481142282485962,0.4041140526533127 l1.1930671334266663,1.1623784899711609 0.3566604107618332,1.5677712857723236 l-0.450064092874527,56.16887092590332 m-27.933454513549805,-39.37841176986694 l18.708306550979614,-1.3268561661243439 m-18.88903021812439,17.494781017303467 l18.69163751602173,-1.016465574502945 m-18.210091590881348,21.616907119750977 l27.351508140563965,-0.9932300448417664 " fill="none" stroke="black" stroke-width="1" /></svg>