<?xml version="1.0" encoding="utf-8" ?>
<svg baseProfile="full" height="121.45726901729674" version="1.1" width="110.26361533365919" xmlns="http://www.w3.org/2000/svg" xmlns:ev="http://www.w3.org/2001/xml-events" xmlns:xlink="http://www.w3.org/1999/xlink"><defs /><rect fill="white" height="121.45726901729674" width="110.26361533365919" x="0" y="0" /><path d="M25,25 m0.0,0.0 m9.559857662325916,3.2897616511579186 l0.5542277299672114,0.24599823085656156 3.923648958797765,2.3630353669140027 l1.7792349270076016,1.4414236645622542 0.9302643158191887,1.1726631678466881 m-11.771971903442209,9.099442998093377 l1.9394905197993897,1.0325860381962682 2.3560573610015556,1.7430618222947205 l1.8247726401400137,1.7176158891407058 0.7725774725415482,1.1499473591939646 m-6.471734391853929,25.93421425417791 l1.2688400636185533,-0.09444061944659134 0.8487850037015628,-0.8747499990680109 l2.896219679352338,-5.123836731778303 2.948815572812187,-5.963175895949498 m9.338262418800458,-26.27049429587073 l3.301118830545083,0.21376312511950438 23.100568378311046,-2.7688096547757444 l3.7759908674765716,0.1253963407122459 m-17.009771860857033,10.050385566242008 l0.0562100011484099,0.9063138743258716 -0.0871268851825364,1.6410537479434355 l-3.7272450832828183,34.449629512460334 -1.62226033529048,-0.5172945787438404 m-3.2848676909329555,-19.432924939748613 l1.3504808812232445,0.28116046934567557 1.6096061863553324,-0.13315570160730686 l12.057822986999454,-1.8869745247530563 1.0523411596456096,0.5479532420831423 l0.19543465971847487,0.57079646908308 -2.104853687535748,13.584855722864193 l-1.153457751174528,4.030292287167345 -1.3588717892450235,3.693724034660687 l-1.312536953280825,3.208295385861545 -1.5330515020914448,2.4148463954876234 l-1.6939537368804265,2.3065415498096375 -1.9724258515766238,2.5647862433874646 l-2.300529686504806,2.5256586232509126 -2.6733424574820956,2.2179229267993574 m2.7923795919662644,-23.522050133451913 l1.5156961114590846,0.9019756861559549 2.4900449011969377,1.975522537498671 l20.364662115583222,15.958034405549457 3.0268163353065822,2.7994419435670324 l2.711389567652084,1.5078374778142158 " fill="none" stroke="black" stroke-width="1" /></svg>