<?xml version="1.0" encoding="utf-8" ?>
<svg baseProfile="full" height="98.33937408720041" version="1.1" width="103.24896715857463" xmlns="http://www.w3.org/2000/svg" xmlns:ev="http://www.w3.org/2001/xml-events" xmlns:xlink="http://www.w3.org/1999/xlink"><defs /><rect fill="white" height="98.33937408720041" width="103.24896715857463" x="0" y="0" /><path d="M25,25 m0.0,0.0 m10.345080017809233,3.828707771108623 l0.4863761151700423,0.2245304845265963 3.579152741814068,2.3894348152798393 l1.5556911797311956,1.3406825485597451 0.7735994442000633,1.0673481460164902 m-10.917116038536587,9.189276350340302 l4.215518472571918,2.3319018672996124 2.1022917336503673,1.7568780887240487 m-6.19918876574357,25.612378540755678 l1.1529332923799451,0.5982354745894657 0.5769153166595028,-0.023487032353760998 l0.9367357102901126,-0.7223027523780159 2.39623669942274,-4.553290656002775 l2.558371020369843,-5.606525795807268 m19.199714442608474,-22.73828245694923 l10.198502218845343,-1.2262610981825735 10.28815355733193,-0.01751668039668455 m-18.936797361529027,-12.981875954674887 l0.87368384148832,1.1660851961872414 0.34675776915593925,1.0930521761514105 l-0.1016436395558252,24.177933945728494 m-11.985453291823031,0.6656813733545722 l0.6444664249416577,0.9481338070229012 0.691902863772052,3.165174378104673 l1.6930702147369687,13.312723516201137 m-2.0738590636794028,-16.339865654009124 l25.525101171025735,-1.8741348561336462 0.8867037708013599,0.7395547239580776 l0.3534273011877073,1.703025838323127 -2.7454831100203174,12.630841122187046 m-21.299505306802672,1.3847668734635021 l22.665606531047047,-1.050090913135446 " fill="none" stroke="black" stroke-width="1" /></svg>