<?xml version="1.0" encoding="utf-8" ?>
<svg baseProfile="full" height="98.43154450820545" version="1.1" width="103.6717251013637" xmlns="http://www.w3.org/2000/svg" xmlns:ev="http://www.w3.org/2001/xml-events" xmlns:xlink="http://www.w3.org/1999/xlink"><defs /><rect fill="white" height="98.43154450820545" width="103.6717251013637" x="0" y="0" /><path d="M25,25.001056582097853 m0.0,0.0 m11.252470255549238,3.834375890928013 l0.489076571607983,0.21909403546458944 3.6297446418192534,2.4430746746456733 l1.5379496378395656,1.3472079522469773 0.7892970298575508,1.0726821391857728 m-11.034291459271804,8.8456483974382 l4.182084533379857,2.244417129328012 2.053435743384339,1.764663642923755 m-6.3183308585355,26.066198009266888 l1.0691949814658068,0.5931260546797165 0.5494647229060674,-0.019866950354279926 l0.9057755605464838,-0.7097866008129233 2.341235155848858,-4.5499811179154275 l2.4711960856115205,-5.696527071522814 m19.664827937132305,-23.133302557513343 l9.768494552487946,-1.2643122281087493 10.320100009734231,-0.026202471155686847 m-18.513825182403185,-13.031565510822222 l0.881619758436363,1.156414607307182 0.3333378650152451,1.0757744594825487 l-0.09886393585330652,24.05884360019157 m-12.097369113991979,0.7606387667111059 l0.6435871490420405,0.9545221904254171 0.6721533811484632,3.2490972128038678 l1.666499122830083,13.349919250020934 m-2.0851112063644663,-16.467898763913063 l25.13798265176379,-1.8657682129652835 0.8825570093635976,0.7132094133759472 l0.3620937050118453,1.6440898971215692 -2.7142329785157395,12.962716682879805 m-21.15866238881357,1.3751386836345147 l22.543551567931452,-1.1171455132893855 " fill="none" stroke="black" stroke-width="1" /></svg>