<?xml version="1.0" encoding="utf-8" ?>
<svg baseProfile="full" height="107.71820451598614" version="1.1" width="109.49251377955079" xmlns="http://www.w3.org/2000/svg" xmlns:ev="http://www.w3.org/2001/xml-events" xmlns:xlink="http://www.w3.org/1999/xlink"><defs /><rect fill="white" height="107.71820451598614" width="109.49251377955079" x="0" y="0" /><path d="M25.00000074505806,25 m0.0,0.0 m2.408425360918045,3.8949593901634216 l0.579010546207428,0.24844564497470856 2.55578875541687,1.4487442374229431 l2.5376948714256287,1.873433142900467 1.9840854406356812,1.894311010837555 l0.8025768399238586,1.1910776048898697 m-10.867582559585571,10.978931188583374 l4.271594882011414,2.8070181608200073 2.036975771188736,1.9920885562896729 l0.8180611580610275,1.2585823237895966 m-5.879184007644653,27.592079639434814 l1.3347864151000977,0.6712207943201065 0.6461673974990845,-0.021954295225441456 l1.047716811299324,-0.8272821456193924 2.7657845616340637,-5.203091502189636 l2.9350683093070984,-6.520479917526245 m24.852914810180664,-39.28363800048828 l0.13094285503029823,1.774611622095108 -0.4158158600330353,2.645215392112732 l-2.071337252855301,7.030941843986511 -3.6943238973617554,9.694947600364685 l-5.597333908081055,12.768852710723877 0.2639300003647804,0.5713553726673126 l4.557272493839264,0.8650361746549606 5.4755473136901855,1.9179725646972656 l4.507513642311096,2.2492334246635437 3.304257392883301,2.0373237133026123 l4.120578765869141,3.1031346321105957 2.752387821674347,2.5617042183876038 l3.0352818965911865,3.645957112312317 1.6761380434036255,2.852601408958435 m-5.08861243724823,-39.773571491241455 l-0.192396380007267,4.625125229358673 -1.9419819116592407,5.888926982879639 l-3.046068549156189,6.326664686203003 -4.342579245567322,6.426877975463867 l-4.537438452243805,4.987702667713165 -5.587590932846069,4.662705063819885 l-6.739348769187927,4.165813624858856 -5.868049263954163,2.6946261525154114 m-1.3751500844955444,-34.2507004737854 l3.2851195335388184,0.6200974062085152 21.989874839782715,-2.1719855070114136 l12.673510313034058,-0.7980968058109283 4.317525625228882,-0.07880276069045067 l3.0707740783691406,0.6970135867595673 " fill="none" stroke="black" stroke-width="1" /></svg>