<?xml version="1.0" encoding="utf-8" ?>
<svg baseProfile="full" height="103.34242181466298" version="1.1" width="97.24642868778653" xmlns="http://www.w3.org/2000/svg" xmlns:ev="http://www.w3.org/2001/xml-events" xmlns:xlink="http://www.w3.org/1999/xlink"><defs /><rect fill="white" height="103.34242181466298" width="97.24642868778653" x="0" y="0" /><path d="M25,25 m0.0,0.0 m29.304504847575885,6.74094169164862 l0.20136453681779146,0.44050313466141694 -0.1550985305096541,1.6224892410286185 l-1.8232575313166237,3.115204998224719 -2.312663685193229,3.6275974835183775 l-2.80709953133414,3.696650301140928 -0.3192836476669642,0.8691755059569568 l0.3340901925898454,0.6470164159538745 3.053519081364571,1.660474188963813 l2.9984738560639816,2.460265516522245 m9.96066940532292,-12.499016161700025 l-0.036978550435760475,1.213947529871288 -0.5802271350777977,1.2198702293961883 l-6.5492963944856095,7.497009716094059 -8.794612540715875,10.136228884296466 l-0.39541164748909163,0.7560386141775551 0.22686448194105807,0.4455935955121217 l0.7877589832336219,0.04830614783797855 18.57523012272193,-4.4403540139324775 m-2.5511657294375376,-3.968148550485269 l1.3453179469641303,1.5111700986024972 1.519276004395174,2.3708831187875496 l1.182702611536075,2.3876655018418043 0.5466738309585197,1.7007989888318067 m-12.429476316640105,0.04974076119687854 l0.4808404158523259,1.0271851115997865 0.13669508156047958,1.224413447915087 l-0.07302988727641296,17.78077031720012 m-8.75550450508431,-13.661559627196725 l-0.03196631101473152,0.9524663785133594 -0.29575325170014394,1.172387633870554 l-4.032254944992403,3.9460528843428864 -4.123469270709905,3.3622327073200466 m26.2285207508743,-10.39736370576015 l1.550350064644293,1.6478470366874887 2.0302538218487056,2.605657920808954 l1.7955745079816288,2.7074172968981607 1.0542975546196154,2.07135980083985 " fill="none" stroke="black" stroke-width="1" /></svg>