<?xml version="1.0" encoding="utf-8" ?>
<svg baseProfile="full" height="98.77946060572727" version="1.1" width="105.61744274847683" xmlns="http://www.w3.org/2000/svg" xmlns:ev="http://www.w3.org/2001/xml-events" xmlns:xlink="http://www.w3.org/1999/xlink"><defs /><rect fill="white" height="98.77946060572727" width="105.61744274847683" x="0" y="0" /><path d="M25,25 m0.0,0.0 m10.615669761489631,3.022143454559293 l0.484809591903832,0.18135487197969788 2.3716152051943773,1.0842769236375425 l2.1820030279908447,1.2943775938422193 1.8379468829112613,1.4010728027317938 l1.2676439493345772,1.3943755588099072 m-11.903357094804685,9.062862659178759 l2.2231480996772897,0.9514540366153665 2.352039692942772,1.358671387384968 l1.9369431930770615,1.4376447736875435 1.0997002356097187,1.242493107497363 m-6.7371815926180645,22.591860150775915 l1.070746076135355,0.11342998978448998 0.8074894922039547,-0.6053113329632529 l2.6394186829220803,-4.878363284870056 2.5902033625884595,-5.354192071050538 m9.310272349039423,-28.391580225103088 l3.325727098033837,0.17523729982910577 18.472653808904365,-2.1142431662062475 l4.304153081257962,0.06225917116289606 m-29.04369099959901,16.587373129821707 l1.5004601568709108,0.3005249274798504 2.097142217054571,-0.012015793155593623 l22.22850761329573,-2.1466187668332752 5.739803263138475,-0.2867957038328442 l2.843575593922097,0.23745887164123652 m-18.59025295165239,-12.15678656366499 l0.8246588848139799,1.4186980445570878 0.17666373544560363,1.2715020661473835 l-0.05298960199107088,39.536296692283024 " fill="none" stroke="black" stroke-width="1" /></svg>