<?xml version="1.0" encoding="utf-8" ?>
<svg baseProfile="full" height="96.25392709772106" version="1.1" width="99.94343978966623" xmlns="http://www.w3.org/2000/svg" xmlns:ev="http://www.w3.org/2001/xml-events" xmlns:xlink="http://www.w3.org/1999/xlink"><defs /><rect fill="white" height="96.25392709772106" width="99.94343978966623" x="0" y="0" /><path d="M25,25 m0.0,0.0 m10.665787661570949,12.454102194631497 l0.43709407173324394,0.15328057527554445 2.6776476699850336,1.5604962017705442 l1.469376638069051,0.9257652781102066 m-8.322361349013878,6.388975044885845 l3.344995933605116,1.6149379815039022 1.696344624001567,1.278505421380879 l0.634152748265674,0.7402519263538235 m-5.573513186352389,18.069580951480535 l1.0086117058830995,0.41737150533581163 0.4734244680544769,-0.019263642704488028 l0.7706253441572797,-0.5109026930579915 2.0390027779793907,-3.2507500946659884 l2.187739582459438,-4.076051789458533 m8.30681488797599,-19.765314091092115 l1.8517163106752759,0.17876618681508785 17.985837059128073,-2.0560174586506363 l2.0112719746868377,-0.08541394316797139 1.4201524578124396,0.17744674928208018 m-12.960414927813986,-4.633729458896403 l0.9184094367762335,0.5716278469975739 0.5561837368374769,0.79538127595837 l0.21833414501682374,9.961884038450208 m-14.380854879471752,0.6380075399527602 l2.415918539720318,0.23862343508020012 22.812101556210063,-2.0720144561019502 l3.8151169922984907,-0.1704316989283169 1.4639238094158957,0.2573016662112154 m-22.575350229329132,2.361762598274944 l-0.033604886241396105,0.7134388806243219 -0.4672957760703797,0.689568625435993 l-2.235699097572833,2.2622157369977622 -3.053830298949632,2.1120373172692504 l-3.544093027758141,1.7314598808175918 m19.168344056644393,-8.937876728301726 l0.5648044377734237,1.029800019375998 -0.010082313874849947,3.1049779523648344 l0.22637691790166617,0.6073717628090434 0.5408630592496766,0.46819603730713577 l1.5462402622493328,0.3687010542708162 5.900452078369921,0.11776244517439668 l2.776715632824041,-0.4415801197013877 1.0796384039820912,-0.590275496063948 m-21.029810239388286,2.1362276295868057 l-0.05925024020489487,1.4000315021441814 -2.2311985422697544,3.524359162935114 l-3.26629474441506,3.0502884551098757 -3.4891586131626195,2.420906783417129 m8.952811637215264,-6.39133944078032 l2.0462964387296423,-0.08513572603996433 8.821266875001896,-1.548108388567672 l0.8921849564282323,0.01014438805427969 0.46179880402525286,0.2383223379535926 l0.1435662058215566,0.41947910070711525 -0.4480376283509444,3.967371355247196 l-0.8645777705432041,2.815468874799502 -1.375759582769577,2.7814041348381355 l-1.7169233080445783,2.42917162887614 -1.7524174239086472,1.8594409238470166 l-0.8796766780337402,0.36317118173449103 -0.8393123286442441,-0.26114361748503667 l-1.1688572609829235,-1.0514148642955066 m-12.397724380841986,-7.749829002037692 l1.7915987836822471,1.6994775886146067 1.3089224819457272,1.988862150099291 m-18.69913342690672,6.596833722809439 l2.6630027890026753,0.25996075674662844 26.76376795354152,-1.8348834493060542 l3.7489685292543142,-0.11482294105516101 1.9412446229984306,0.23042748509886377 " fill="none" stroke="black" stroke-width="1" /></svg>