<?xml version="1.0" encoding="utf-8" ?>
<svg baseProfile="full" height="104.81347371600175" version="1.1" width="110.66930192408306" xmlns="http://www.w3.org/2000/svg" xmlns:ev="http://www.w3.org/2001/xml-events" xmlns:xlink="http://www.w3.org/1999/xlink"><defs /><rect fill="white" height="104.81347371600175" width="110.66930192408306" x="0" y="0" /><path d="M25,25.757841013450214 m0.0,0.0 m8.327184488097828,2.6397416878536673 l0.5218588265963267,0.24643579681517683 3.7283158849961837,2.5171538512493643 l1.7204606131864733,1.4924527735541395 0.9037789360756089,1.207748255510556 m-10.830055121089972,11.318700830317265 l4.314058579140176,2.454483118846964 2.0171949876039568,1.7983063386961229 l0.799915354551601,1.123404780851686 m-6.714191465654604,28.583936184308627 l1.1803590268764241,0.6732690845479659 0.56952668987845,-0.027309813370452185 l0.9473426869016258,-0.8447817729105326 2.4839066052567498,-5.066967211547187 l2.6786963161848596,-6.55348602724419 m20.859908745638915,-41.40805457622779 l2.6594540302934897,0.9101473107177994 14.446552548488244,-1.8230216254193992 l2.116967535008274,0.9948499972084208 0.049239274614425364,1.4443147459567154 l-1.8804049443790787,13.658707338771658 m-20.836553982825528,-6.406818536645946 l1.69480593537952,-1.7904173311984675 10.060144384660644,-1.8491793854277274 l3.119813127428575,-1.4648234069107502 m-13.492072006006616,11.146416750233824 l2.335421130832949,0.2254367269060477 10.784821930331608,-1.8297484440513156 l3.9654349756885896,-0.23109562690280994 m-18.223069652848775,10.285014384968314 l1.1610163256142814,0.2919370333548342 1.323393584303011,-0.08545079153910348 l6.412445493168007,-2.4323958802756036 3.990869318355297,-1.1737124970312531 l0.7651164314770209,0.3234101362151074 0.41552089463651326,1.3981193011217636 l-1.2044743701336114,2.940234933556317 -2.583403183495115,5.05853294728381 l-4.610907370570919,6.94484647785314 -5.679950820254738,6.129325843285597 l-6.283591228375426,4.791854992760074 m4.502295670940346,-18.96701189115219 l3.4280117600977755,0.8103344090376156 14.156068622097123,7.116144066140271 l6.3261790273140015,4.671215136030545 4.897402882078947,3.161146743444874 l3.3444934459236353,1.3213296689413694 " fill="none" stroke="black" stroke-width="1" /></svg>