<?xml version="1.0" encoding="utf-8" ?>
<svg baseProfile="full" height="103.29096556542777" version="1.1" width="120.8863908225528" xmlns="http://www.w3.org/2000/svg" xmlns:ev="http://www.w3.org/2001/xml-events" xmlns:xlink="http://www.w3.org/1999/xlink"><defs /><rect fill="white" height="103.29096556542777" width="120.8863908225528" x="0" y="0" /><path d="M25,25 m0.0,0.0 m9.038596325248996,19.29759054466438 l0.5634545587115541,0.20483382594004634 2.414621792089361,1.1221394007286964 l4.32875784664986,1.4048207530511292 2.128088277005152,1.010946311825251 l1.3677892413502626,0.78821860050313 m-14.041254821204673,6.467878355457984 l5.646493580121923,0.8345905232293794 4.381644834710451,0.8205452020742224 l2.8622472609612575,0.9331440479784853 1.7828116173582222,0.6288406321344271 m-12.56888431619131,19.35537367597075 l1.6227494471799075,0.4220436918698814 0.7657366667691741,-0.015463460370656336 l1.2535922220217426,-0.5620504987428051 3.969168597995373,-3.692430165059593 l3.993624566403145,-4.193287276468249 m13.352269042955808,-26.552929091704307 l0.8837022123921526,1.4350830372501828 0.9763594807371241,2.751752250390816 l2.192798063321285,10.900191863395357 m-2.667891158052317,-14.298893279715989 l32.15546370442329,-1.6942478949376154 1.8609409691565861,0.00576262598231858 l1.661588021953139,0.287801565011853 0.5869057170816022,0.27047822028610113 l0.3750170714037382,0.6692152568536622 -3.29935048265829,13.831811993764633 m-31.529744250000277,-6.879560848414237 l23.13392263100145,-0.9765275750608637 m-22.03528503394136,7.8886167663285605 l30.169332899986742,-1.1373630289378605 m-32.75872380173151,-12.989004248594348 l1.1544678651364448,1.1726340137895543 0.3144313357289373,1.0632549326740015 l0.005320888864550159,15.743157071198619 1.9178533803917088,8.147997181000335 l1.4318167372734214,0.4339260465225149 2.4059102493476203,0.5119990856041071 l5.320282911163559,0.35517122158152875 11.001641681726754,0.01393583472281148 l7.172448891258699,-0.28823168706672114 2.6276946489432795,-0.3810006205047016 l1.6194787067166727,-0.8232013224215299 0.646428359785807,-1.1988193150447575 l0.1974707829748354,-1.8720494641844059 " fill="none" stroke="black" stroke-width="1" /></svg>