<?xml version="1.0" encoding="utf-8" ?>
<svg baseProfile="full" height="104.93765479964895" version="1.1" width="96.633665995984" xmlns="http://www.w3.org/2000/svg" xmlns:ev="http://www.w3.org/2001/xml-events" xmlns:xlink="http://www.w3.org/1999/xlink"><defs /><rect fill="white" height="104.93765479964895" width="96.633665995984" x="0" y="0" /><path d="M25,25 m0.0,0.0 m30.76791868553986,5.851773766548461 l0.24643250113908324,0.4259202692431614 -0.1076865178168393,1.4495909416637778 l-1.715360745747662,6.222094664789869 m-7.481545231637352,1.2766083549701357 l0.46054411761019903,0.7210113844592869 0.2348828492745915,1.114358651485023 l1.45802263176481,13.936385104938273 m-1.3307572857043029,-14.918590936870086 l14.701324596102458,-2.5767317941590506 3.0141947010299095,-0.32931586719225475 l1.0160653989729524,0.285821947717113 0.713127782876007,0.7828442012086382 l0.1669462676747968,1.2968684812687294 -1.988685445278246,12.570827164522493 m-16.669890670710775,-5.914179212687712 l17.37253956557992,-2.163086794089564 m-16.495298639179023,8.811115281646563 l9.620356394327873,-1.8683064032693344 5.878363709133576,-0.629410330161931 m-9.208058734331255,2.975750612967887 l0.5963997342516364,1.4907512208473206 0.12201084692975507,1.3422043604416933 l-0.24502677606239565,22.543281034270883 -0.36361675451509906,0.2400686950895778 l-0.4538836745315918,-0.11832620489154949 -2.315880775308702,-2.2576481470294065 m-11.81053727328765,-13.753346547904819 l2.0885812471501337,0.17341489968875995 5.2696635579004,-2.2337188732597295 l0.7629288241120294,-0.20787042128746025 0.645525018622995,0.7961109831823393 l-1.840359848410038,0.650740261621085 -4.357402119714053,3.3679997117196514 l-3.843798091902249,2.7231032021313855 m24.76555427317595,-17.260275395998793 l-0.12804544430983206,1.1085981353189462 -1.6158122983122658,1.5408905709929654 l-2.493055871181823,2.002211243021362 -3.968024133979884,3.016842043952639 m-2.1285447075063924,-1.2165201653324975 l7.7995857427026545,8.945398770636999 4.364126157449194,4.169413398975337 l2.8922048875548687,2.3003569465735696 2.237637544535777,0.942621598952227 " fill="none" stroke="black" stroke-width="1" /></svg>