<?xml version="1.0" encoding="utf-8" ?>
<svg baseProfile="full" height="106.97313484451332" version="1.1" width="113.4589643001745" xmlns="http://www.w3.org/2000/svg" xmlns:ev="http://www.w3.org/2001/xml-events" xmlns:xlink="http://www.w3.org/1999/xlink"><defs /><rect fill="white" height="106.97313484451332" width="113.4589643001745" x="0" y="0" /><path d="M25,25 m0.0,0.0 m6.957822424068167,11.26175263767836 l0.538728204240904,0.21932733399502088 3.902163744415646,2.048059075839094 l1.629762057674415,1.2699202680514843 0.802812580318936,1.0576749660658995 m-10.132345189788841,8.893565781883227 l4.3599948049550346,1.9805406480382632 1.9083573359128403,1.3030162242581007 l0.8272705899481976,0.8425470726751777 m-7.524879808079233,22.67776811539303 l1.1780492083868788,-0.01017014050082342 1.409003121904094,-0.7211789911189692 l2.7938633892220714,-4.268422169437924 2.785296647545102,-5.05977029910603 m8.483934003896207,-26.917699052614807 l3.4213017853268215,0.22715262626055904 22.153711106402614,-2.061952461341332 l3.8041288561109523,-0.14378505260832564 2.1826193430082124,0.1962132276044521 m-30.77144153704129,2.4840623427852946 l0.6561193412453453,0.8230391208266458 0.2413365053422823,0.990882797998618 l-0.1909913821692329,11.662905000853709 -0.6099192402657873,6.00447860043579 l-1.0454365139729693,5.256210402867199 -1.5113605403620234,4.5470711970551525 l-1.6055390096151303,3.3023488067478812 -2.633330207624154,3.9285683965298057 l-2.545872286365623,2.7490587076029604 m27.393602104041694,-28.068685168065937 l-0.03191498950718829,-1.5884175091923576 1.9404170100539408,-2.945165592906476 l1.123038387482133,-1.0537348061476652 0.9787900176602,-0.5575326210295609 l0.6478876726859021,-0.03515686496645408 0.43269122143119326,0.28320855724346417 l0.14435864149441466,0.5795586885657454 -0.3877489654293286,3.258929148175699 l-1.3852180640293217,4.873384774983069 -1.7495914095948435,4.418325574390411 l-2.016061708195697,4.19510115004359 -2.106661696938117,3.419230154368945 l-2.345594810469146,2.9964356833525554 -2.645163120134021,2.5856928242256494 l-3.031164385856436,2.248111842678476 m4.45698085961379,-19.951099037198123 l2.993767732267009,2.152869799864823 1.753051510759807,2.8306425745302612 l1.5805735932771527,2.951995255000599 1.5229531958956757,4.350123680320608 m8.92949176783819,-18.60267000708345 l0.43239268680524606,1.8497024491382346 -0.7949790465936762,5.617052125082272 l-0.952903902343837,4.296029804453597 -1.3336558538385737,4.246940977944149 l-1.2621382920493507,3.913682317832579 -1.4447475332995419,3.929359265909244 l-1.7198133700368483,3.8201999160756928 -2.2065196400846783,3.6859616321269226 l-2.106872467732572,2.7298730700792464 m8.030611569816736,-23.370998635888178 l5.281379606547512,7.689015145105127 5.707019615908133,7.31317870069588 l3.501123327693114,3.850524377092527 2.664423700395401,2.3818236768832004 " fill="none" stroke="black" stroke-width="1" /></svg>