<?xml version="1.0" encoding="utf-8" ?>
<svg baseProfile="full" height="109.23130786370558" version="1.1" width="92.12414363413016" xmlns="http://www.w3.org/2000/svg" xmlns:ev="http://www.w3.org/2001/xml-events" xmlns:xlink="http://www.w3.org/1999/xlink"><defs /><rect fill="white" height="109.23130786370558" width="92.12414363413016" x="0" y="0" /><path d="M25,25 m0.0,0.0 m4.907389508489454,19.593799182793532 l0.4918302371906976,0.1800665066140946 3.7480496647291015,1.81167196950433 l1.6340625020632265,1.2841662477464681 0.6959748507564801,0.8392494669573184 m-10.677763262183968,8.380420592896046 l4.138270988082025,1.7228714439904398 2.085618729463661,1.277890674631771 l0.7809978775923362,0.7768095796752357 m-6.545224793708934,19.367365419636965 l1.0519291711272647,-0.03620928156387651 0.8137514221330213,-0.8018557778578812 l2.4041309831084496,-4.162068954984715 2.548974518883041,-5.008855453694574 m20.306024637283556,-26.461428791570878 l0.5864049138872764,0.9236230061046627 0.1062703910935416,0.9387957932981441 l-0.0180766835404443,13.200555341241223 m-12.639465529732608,-7.699828589207299 l0.4744299633844204,1.1534042473134232 0.057429479757031554,0.9104312559467393 l-1.397461670815148,7.869195211874098 0.43936416175377097,0.5235949879982237 l1.1957174116780935,0.07248339012746682 13.008882990067283,-1.4425657758443426 l7.13151434116917,-0.47032394989722853 m1.5279777032958355,-9.357431333255185 l0.37822357412736723,0.8827252605038656 0.0426006887030906,0.9855911913128387 l-1.39297752348603,9.625280529579893 m-26.25424499864729,6.427894230408273 l2.9624341100449856,0.1310955591686885 20.678801972302338,-1.3390859970132707 l4.372036849925601,-0.12595551227881488 2.4802644541524717,0.19746900467795567 m-17.374815592831705,1.7688197444611247 l0.5208215944005964,1.2215431491534074 0.06752787644871891,13.130282349925938 l-0.17809319898451864,0.6736509702270926 -0.3897144762880403,0.26617097310437493 l-0.548917110985441,-0.027496431111670345 -1.3323532265043352,-0.7058020925533603 l-1.5616053402375343,-1.2390382684939611 m-6.500261597639288,-8.361019937917641 l-0.26439404915277165,0.8804211948102442 -2.003444473331993,0.6927114495075429 l-4.646652935239033,1.4918632300233337 -5.916143919835838,2.2713571872442793 m27.030527187362843,-6.326089313053524 l2.955422753112411,1.498685832419319 3.12509594442008,2.0472998092872547 l2.3404975629879057,2.017458389931922 1.26750248687655,1.666550556961744 " fill="none" stroke="black" stroke-width="1" /></svg>