<?xml version="1.0" encoding="utf-8" ?>
<svg baseProfile="full" height="102.43514965925466" version="1.1" width="105.66590332135621" xmlns="http://www.w3.org/2000/svg" xmlns:ev="http://www.w3.org/2001/xml-events" xmlns:xlink="http://www.w3.org/1999/xlink"><defs /><rect fill="white" height="102.43514965925466" width="105.66590332135621" x="0" y="0" /><path d="M25,25 m0.0,0.0 m13.82319925192649,4.033494738309138 l0.07218110206128117,0.4880449093092713 -0.2618273345568972,1.8396607342495421 l-0.9555923857988559,2.7025948627671297 -3.167563919800751,6.483581795619506 l-3.973249651456389,6.258282540059322 -4.534479516474885,5.469641036010416 m8.466618299868152,-9.355959625668607 l0.6546745170825963,0.8797317566442834 0.2381609225327728,1.5648069355844556 l-0.07409821490548894,29.788177973844057 m11.8571460565004,-46.842706196253275 l1.5558532219217884,0.3136817591886324 1.8923080013820326,-0.037622439547532825 l15.520187547244346,-2.0877442002800413 1.5626465625656696,0.13506076068772965 l0.9116792672265581,0.36282119488669273 0.5823748763499522,1.0139175804260803 l-0.004234922688180448,7.20371899579886 -0.22798637129756427,5.516099502368555 m-18.922344877441287,-6.290765025461435 l17.837528434271675,-1.753187611367361 m-17.592801077538578,8.963859087050423 l17.591920370552312,-1.6789986858046646 m-19.59566725201392,-12.104980437998911 l0.4924368372344091,0.9018323124246391 0.10989213314007054,1.002603615445757 l-0.1312244481722856,5.826263426863217 -0.3603826533640968,5.851849616278584 l-0.7498511237384511,5.855475715183822 -1.0020586021453033,4.588491814011001 l-1.4229997034188073,4.350924669599383 -1.9058945018849796,4.11339865501503 l-2.4937008291957383,3.883784052003109 -2.39746010173862,2.695578555615606 m14.867403138534584,-25.174735549526766 l5.982962605857545,3.0950364875570178 15.958015667814013,12.229940987730458 l2.6251704022904065,1.4760509086871083 2.8369615926302387,1.563111478431094 m-26.97766210981983,-1.3498528782891916 l0.2920243335103131,0.06646216998594158 0.3928204205604301,1.6824932066269471 l1.0002922725755472,5.110749336407731 m-0.9036277265630926,-7.112427936957198 l10.89676323299969,-1.5998672017954096 3.8331550104296994,-0.054542216198784584 l0.2882969212642493,1.213739943660564 -1.464757492961382,5.851032422523443 m-12.350668919662834,1.6953167675448881 l13.602484967711561,-1.4512708201174742 m-8.832074584041106,-13.0561255701245 l0.4412196853187979,0.6396955276665206 0.13090011781586214,1.1828052754837697 l-0.024446499056715268,21.418166656329003 m-9.772299538064853,2.4590321640584385 l0.7526165789892172,0.6066925941815751 1.0808144114004374,0.008231532527055156 l16.16162936729341,-4.650861526225225 m-1.4825899461255294,-3.6730085333773363 l2.7193882410384793,1.9117346899277667 2.3389260713036744,2.172828001812343 l1.7505229463291887,2.077803073306818 1.1115452757379545,1.889509776637676 " fill="none" stroke="black" stroke-width="1" /></svg>