<?xml version="1.0" encoding="utf-8" ?>
<svg baseProfile="full" height="107.50852197963901" version="1.1" width="108.7576972153024" xmlns="http://www.w3.org/2000/svg" xmlns:ev="http://www.w3.org/2001/xml-events" xmlns:xlink="http://www.w3.org/1999/xlink"><defs /><rect fill="white" height="107.50852197963901" width="108.7576972153024" x="0" y="0" /><path d="M25,25 m0.0,0.0 m8.142927315494228,17.350534318273887 l0.5235491296117419,0.19058071613790392 4.0069635573627265,2.1009400585673697 l1.7181992078855253,1.2441019445092443 0.7588630472884359,1.033057075263427 m-10.181246489761367,8.345636388898221 l4.195929437157665,0.9280862693036898 3.3100349227501704,1.0750501413688698 l2.321219444303621,1.1907319526778188 0.9168738306844628,0.7573403803678147 m-9.994115121966866,21.694837105736095 l1.2608601780301811,0.05229249625242858 1.0063616437199259,-0.6783877695865744 l2.9215474997281374,-4.392693285356082 3.183632332498784,-5.317624846341529 m8.470773440320343,-26.2529685450944 l3.777762555738205,0.23643015834970652 25.403836245090268,-2.0660998126128107 l4.2528034804123775,-0.13885729465714133 2.2330647841699935,0.21910418995339742 m-34.06410077932666,11.49103564098222 l0.6730628379431511,0.7608405798501556 0.29357980214375334,0.8827498977996248 l-0.11363094047495784,26.279290123201786 m0.6621674134309677,-26.345741718831956 l29.462609642500517,-2.8108654345734663 1.7173063955007017,0.05514915334538663 l1.1461653596676737,0.4666559605846087 0.6387069645968488,0.859766764681732 l0.11199007880184232,0.5216650781519612 -0.190931881527638,27.77588429243562 m-25.15805535354709,-37.232444951087736 l0.707510196786956,1.0685664619673754 0.18799085773970486,3.062577932348868 l-0.15514953658611988,4.7856799585942635 -0.5967490016615735,3.618402536305567 l-0.8524767591133561,2.5510014047432175 -1.1779599606922848,2.215274605255203 l-1.5940391108199718,1.9799393942813095 -2.0893322970313823,1.6841215662713631 m15.695253065337967,-21.870250076362517 l0.6488128710166975,0.7723997965161223 0.31741404201901846,0.9627762380492012 l-0.1067749180586772,13.357407267992615 0.21911486590299298,2.3942227910623135 l0.5080334070781288,1.1113870944304507 0.8479442777501424,0.6850158899028953 l2.2633970526101286,0.390041685947952 3.7726594662601767,-0.09390010517996807 l3.0556490925028283,-0.7522367199753791 m-29.1538859536618,10.669229981626849 l30.747281634367276,-1.729985756648232 m-30.801444548712833,9.887893749491505 l30.578407058492935,-1.4457556883707057 " fill="none" stroke="black" stroke-width="1" /></svg>