<?xml version="1.0" encoding="utf-8" ?>
<svg baseProfile="full" height="101.79657140705629" version="1.1" width="103.23308753753808" xmlns="http://www.w3.org/2000/svg" xmlns:ev="http://www.w3.org/2001/xml-events" xmlns:xlink="http://www.w3.org/1999/xlink"><defs /><rect fill="white" height="101.79657140705629" width="103.23308753753808" x="0" y="0" /><path d="M25,25 m0.0,0.0 m11.971974543154186,8.374419821743105 l0.4594811254861067,0.21691756764197873 1.9859755780436712,1.1960327815720395 l2.0335852751806622,1.566802112478484 1.6783371882558125,1.602988378714222 l0.6653000233598317,0.9870176297070172 m-9.544758236835946,10.047900945201995 l2.0319155784796905,1.0414196412799337 2.1199034374254477,1.433157880039257 l1.7630013779602216,1.5131670208107373 0.9756628117279366,1.287031774638795 m-6.451035621185982,21.012557179170756 l1.0537277126980928,0.21092799690964165 0.8701063491920938,-0.5997723389289296 l2.852015321038753,-5.051065932191287 3.3178584442190537,-7.184841556179629 m6.269680752000456,-29.355806887782602 l0.5349870770358293,0.8078426858528676 0.29514677454100224,0.8972805318064808 l2.0834121193100783,14.317767179661702 m-1.6595624292368452,-15.33932893763913 l18.672143381808436,-2.72102614338049 1.0941714886045633,0.2792909438785206 l0.7163323343354907,0.9960601728649341 0.13341306177837603,1.333477424360383 l-2.0700632702995376,12.4695538886039 m-16.2724814386959,2.1351382509918437 l17.485718552408514,-1.7089966095188176 m-14.032249549649537,5.259611341105903 l-0.09128216049391527,2.3592842150832327 -1.002289488272056,4.021990875302367 l-1.3280044302929468,3.838122443534909 -1.93167821085687,4.090909825551187 l-2.0118073747345813,3.173278353859518 -1.8163074764403493,2.322686305130941 l-2.915294767626028,2.9529863122322566 -2.5734077001083877,2.011788332948266 m20.102496713875695,-27.463941586517937 l0.473032125272083,0.8490623676785077 0.2298874762995269,1.9852049738217097 l-0.1274761993499808,19.436472034131473 0.2706571836060812,1.9523498449917336 l0.5801497608894179,1.2665307280729623 1.0690194797958725,0.9684513935080794 l2.38511379362872,0.6865102741925048 4.900599628709876,0.17821433199274445 l3.422498396927155,-0.4562564906141921 1.3272102104697316,-0.7339017226450995 l0.7896853844141621,-1.292517956141403 0.3609806526387446,-1.96840630235809 l0.08560477704555254,-2.7006678316254984 " fill="none" stroke="black" stroke-width="1" /></svg>