<?xml version="1.0" encoding="utf-8" ?>
<svg baseProfile="full" height="101.96799893261039" version="1.1" width="103.14302456796" xmlns="http://www.w3.org/2000/svg" xmlns:ev="http://www.w3.org/2001/xml-events" xmlns:xlink="http://www.w3.org/1999/xlink"><defs /><rect fill="white" height="101.96799893261039" width="103.14302456796" x="0" y="0" /><path d="M25,25 m0.0,0.0 m5.118557751680723,11.20781591479897 l0.543925447103508,0.20140319847711435 2.4161291108054046,1.122036121636333 l2.4616302215624324,1.481556383578242 1.9639777221848709,1.4787199065931993 l0.7961168350203713,0.9160237018990505 m-11.535910453996964,9.913749047393692 l2.387471868669333,1.0003716677799377 2.5159807139901535,1.379950080564308 l2.1340620437836884,1.4424815589019948 1.1919647263664812,1.2101995644193027 m-7.670429023277292,20.40147057778822 l1.2854277102076612,0.2122212087800173 1.0243549400474223,-0.609532666704388 l3.386506566012375,-5.040936673944862 4.086998571503272,-7.038157180696034 m7.689703233567686,-28.57898212168413 l0.6328339168494496,0.7555192896885384 0.33434538792093943,0.8555724222098674 l2.3324652804878805,14.00552582164759 m-1.7827941780588514,-14.985731887461883 l21.356106380401194,-2.7418418586142432 1.3000528650871452,0.23900156554858867 l0.912913264947492,0.9408813006865582 0.20737469603128214,1.26437063239666 l-2.440955300192847,12.381260351982768 m-18.7168410715035,2.020384093918394 l20.13346684930678,-1.6888271517891587 m-15.990752912009123,5.0939404775199915 l-0.056992611734406305,2.3641715859953836 -1.1044603635527277,4.014007586166158 l-3.7276953980347427,3.787252279167712 -2.9631761968324666,1.758829569237832 l-3.8165770953210125,1.8103377388346755 -4.477015273486642,1.7103599349219807 m24.97450492522823,-18.341833168327575 l0.5178985621330893,0.8405776119270237 0.20042413858484837,1.7843908356077276 l-0.01628655198646989,13.516259085481224 0.4909791032908462,1.6067366006381827 l0.9050358854300958,0.9517970616354017 2.195898672167035,0.6631362994201598 l5.2667422762056075,0.2309119240429074 3.6591648807766775,-0.3415367861477156 l1.6061714596546122,-0.670317431877854 0.8388236029555175,-1.02764331175975 l0.44748341482540477,-1.681018482563376 0.12741797315753742,-2.3104377476387263 " fill="none" stroke="black" stroke-width="1" /></svg>