<?xml version="1.0" encoding="utf-8" ?>
<svg baseProfile="full" height="122.32689876134828" version="1.1" width="91.37136863104374" xmlns="http://www.w3.org/2000/svg" xmlns:ev="http://www.w3.org/2001/xml-events" xmlns:xlink="http://www.w3.org/1999/xlink"><defs /><rect fill="white" height="122.32689876134828" width="91.37136863104374" x="0" y="0" /><path d="M25,25 m0.0,0.0 m4.677541017350403,20.254510149318023 l0.6064183180349112,0.17902352634809077 2.6523106084520096,0.9324211757229411 l3.052523163377792,0.16951947977297593 12.761821384237852,-3.692751495334301 l12.761448226353545,-0.2556363345182744 4.4450946402730755,1.5960714971098144 l0.4142112729641521,2.0806078308743863 -0.23055591566499145,3.630508132097434 l-1.8009003743791765,11.846314759543672 -2.032606123971579,12.986322027480975 l-1.1576674575134527,10.231455242384312 -1.6067563488706527,5.972775199830679 l-1.0828636160605898,2.61645741362399 -1.321970888933699,2.105743257331339 l-0.9169103344527858,0.8406649998262111 -0.8642860496786157,0.5878453075207764 l-1.9165854481643263,0.24504659241521584 -0.9728561143160486,-0.4079069325486652 l-3.6930571292989853,-0.679593192161055 m3.44606706622867,-56.38836583425352 l0.7458752876629047,2.1281606067247663 0.08526812714541962,2.8260535368540585 l-4.286139649403671,11.153138463984684 -11.13154180549371,7.761272717221128 l-5.891745525775582,6.429090859952553 -5.0445075978343095,11.509941463880923 l0.7107157780738906,8.886200444904318 " fill="none" stroke="black" stroke-width="1" /></svg>