<?xml version="1.0" encoding="utf-8" ?>
<svg baseProfile="full" height="101.32799154811732" version="1.1" width="111.96140783497401" xmlns="http://www.w3.org/2000/svg" xmlns:ev="http://www.w3.org/2001/xml-events" xmlns:xlink="http://www.w3.org/1999/xlink"><defs /><rect fill="white" height="101.32799154811732" width="111.96140783497401" x="0" y="0" /><path d="M25,25 m0.0,0.0 m10.129131243206023,2.7031685582360008 l0.4671997746448381,0.21847468054680758 3.2543211531981973,2.410770972094704 l1.3020333010034435,1.4234855365098193 0.6981896782265614,1.187721059542281 m-10.14220443886898,7.924172284099901 l3.5708711513506453,2.2104191408337335 1.7418877816279335,1.5653199526939512 l0.687302664698173,1.0144488225061228 m-6.126920237161284,27.65432879448306 l0.5950232589704929,-0.1574086141125986 0.9127193779605748,-0.06844994862819084 l1.1145143045054002,-1.0512437145907996 3.1527318349997135,-0.6686632908868604 l3.669929857039796,-0.2296306209293169 m11.548338877405723,-27.38817440993167 l2.6403342266354635,1.2810335228355354 2.2243709757533034,1.8355010783635843 l1.5236958379795873,1.7604119169461088 0.6529812734098701,1.2791653493330564 m16.699398715710497,6.220287433829391 l-0.03683423678618973,0.5846882166487279 -0.4184865110453695,1.1944206429992186 l-3.6508406163095266,3.335358912520837 -4.278880878693296,3.442983687420063 l-4.465546666213218,3.4448644081808744 -4.154416991565389,3.0309842947110464 l-4.617080453651429,2.462256646817155 -4.996783033782719,2.7072962350447862 m4.310123058244965,-20.657813853546692 l1.885546377569176,0.6011064497813803 3.191391639546409,1.582710548866813 l18.09030272954267,8.764009960596267 6.01867680874948,2.485793938691283 l4.768385997072469,1.7190838568223092 " fill="none" stroke="black" stroke-width="1" /></svg>