<?xml version="1.0" encoding="utf-8" ?>
<svg baseProfile="full" height="95.29027488805305" version="1.1" width="112.21656853968909" xmlns="http://www.w3.org/2000/svg" xmlns:ev="http://www.w3.org/2001/xml-events" xmlns:xlink="http://www.w3.org/1999/xlink"><defs /><rect fill="white" height="95.29027488805305" width="112.21656853968909" x="0" y="0" /><path d="M25,25 m0.0,0.0 m11.221981788542347,2.924542417920698 l0.4856939062425156,0.22108751461374257 3.3625717193298432,2.254185772844868 l1.3788406691519077,1.3024496154909844 0.7370354221328662,1.0622817596745255 m-10.929667028711096,9.94760170932651 l4.17817208409623,0.8843523920768614 3.2170407382690263,1.0965859652869596 l2.2398705206009484,1.1684812985828055 0.9013845632361032,0.7452478373464666 m-9.455229328123723,22.995254877594963 l1.300120903196987,0.08872811848929707 0.9862171229459249,-0.6988559420367827 l2.8394205758801783,-4.887760024059727 2.982822950669795,-5.7410424505055 m25.707077459139114,-31.266803955752785 l0.07902106948392242,1.3928073424678047 -0.43284306216309504,2.7123401766276247 l-1.6628558186734312,7.589943813941475 -2.228937283024561,7.234129139864685 l-2.4914245806009063,6.988796896732744 -2.7703588020991856,5.803599893169656 l-2.6976425230021386,4.430386350285709 -3.101910582179005,3.882446986895321 l-3.4963857991217364,3.159487381174143 m6.276143005519271,-27.350975047648156 l1.4133015462570087,0.27417533369765695 1.926809539403476,-0.08335949499878269 l17.97129979560207,-3.91444745707914 1.178453904749221,0.5071737562919915 l0.1029998219402323,0.6758446227218982 -2.6437773934765287,18.076020149403 l-0.0625404764255488,3.803858751241217 0.5665209052983928,2.101041303324519 l1.068697816308951,1.2045868654813963 2.1996585569369826,0.7817725161232638 l4.07357998230213,0.2341901908412658 3.347633229332837,-0.31339035742613625 l1.3088025599886635,-0.5129595151414357 0.8070268036843606,-1.074460943589226 l0.28089645323400814,-1.6452436607144012 0.051045803814747645,-2.2670730091003364 " fill="none" stroke="black" stroke-width="1" /></svg>