<?xml version="1.0" encoding="utf-8" ?>
<svg baseProfile="full" height="104.01462156596901" version="1.1" width="110.46788480289497" xmlns="http://www.w3.org/2000/svg" xmlns:ev="http://www.w3.org/2001/xml-events" xmlns:xlink="http://www.w3.org/1999/xlink"><defs /><rect fill="white" height="104.01462156596901" width="110.46788480289497" x="0" y="0" /><path d="M25,25 m0.0,0.0 m10.41755246060438,2.455455506311681 l0.5250891737882798,0.18981721147045427 2.580868634556158,1.2466795389825374 l2.3721765564872914,1.413604295399305 1.9412202723906984,1.5508696382860756 l1.2857888426385313,1.516524442820147 m-12.593497480345578,9.801711199002094 l2.3116409718560282,1.1000337059846022 2.459366658212202,1.5424411481129907 l2.0465393298673553,1.6431168731278474 1.1507586294543732,1.4076068397871306 m-7.227141857285014,23.969983883453523 l1.1857376713596173,0.12476076421266581 0.8938764449197807,-0.6157484438076009 l4.0397460375791505,-5.213668820247996 3.2217387163922138,-5.548281859179149 m9.701897214947271,-29.776856368147666 l3.4740068125863255,0.25089709287425754 19.911547307492164,-2.213956317439875 l4.601224302158027,0.06702400501560304 m-32.062498726742334,17.455941237104838 l1.613228667744477,0.323732131220596 2.3073729786380235,0.0034800411313244415 l24.762002680587138,-2.2834205921552853 6.374907257466382,-0.30434756451086004 l3.1727352455420355,0.27241160390237773 m-20.8435963562202,-13.339166302457848 l0.909077282343146,1.4770265906404196 0.21614114363216577,1.3185589284205057 l-0.06271722267744274,44.17839115665431 " fill="none" stroke="black" stroke-width="1" /></svg>