<?xml version="1.0" encoding="utf-8" ?>
<svg baseProfile="full" height="122.09559716350411" version="1.1" width="113.30596556810465" xmlns="http://www.w3.org/2000/svg" xmlns:ev="http://www.w3.org/2001/xml-events" xmlns:xlink="http://www.w3.org/1999/xlink"><defs /><rect fill="white" height="122.09559716350411" width="113.30596556810465" x="0" y="0" /><path d="M25,25 m0.0,0.0 m15.485155856769207,11.555948629197195 l0.4384119741149029,0.21817649968917235 2.999547374928378,2.2029881835038654 l1.2342367721828345,1.2223484478236075 0.670411757376009,1.0661835324155926 m-10.519310339768506,8.740321947581222 l1.9043764321747165,0.8316958203269528 2.2413690804648048,1.326192901442759 l1.659302781163732,1.2246955398576396 0.7500173533767407,0.8367757323658116 m-6.480541371937815,24.28940650048851 l1.1603408364361185,0.3008941989852896 0.5519328952441022,-0.12252549598659163 l0.8913385929480657,-0.7348673438731183 m23.20190568367939,-28.495238253142993 l2.278904170819924,0.629046654951784 1.9564301951768426,0.06119617292005894 l14.95199159571005,-1.9012791125862651 2.161000323417203,-0.024927388619489822 m-25.310035692022755,12.538140892843167 l3.0442530265771954,0.3315439187535781 20.242478873954525,-1.9128877886698303 l5.305317083363685,-0.23643868865545137 2.4871303119553145,0.21140201505866807 m-18.268395604326074,10.018192680301647 l5.478354824450225,0.6888569700538223 3.8806663148481073,0.923617335160521 l1.329746495799892,1.4354299760222737 0.22190370744116997,3.2617699841913805 l-0.9676004664419636,4.818089914517005 -1.881644315051735,5.270811430642208 l-1.9871252376319382,3.926138149483736 -1.3678928084847553,2.4468566789743273 l-1.1764693139181712,2.1194226158291407 -1.289656509801289,1.8144233381335535 l-0.7324568923115738,0.7800232722913866 -1.3346330465727352,0.4331713012319994 l-1.1660410899305151,-0.4426263192517378 -1.8739641523736654,-1.8080084316069025 m2.2397656306460654,-31.710594981329503 l0.2731825993084194,0.9770890096580638 -0.11872522479898971,1.05750692946849 l-1.555191140220653,4.001422593376624 -2.586120856414463,5.69455813963363 l-2.716925549691226,4.822195416838479 -2.648741898218417,3.872809051046207 l-3.153274905359783,3.76263990972162 -3.6644587117682694,3.498692525442729 l-3.136177839803365,2.3938528027564128 " fill="none" stroke="black" stroke-width="1" /></svg>