<?xml version="1.0" encoding="utf-8" ?>
<svg baseProfile="full" height="109.49831224856888" version="1.1" width="96.57237822174264" xmlns="http://www.w3.org/2000/svg" xmlns:ev="http://www.w3.org/2001/xml-events" xmlns:xlink="http://www.w3.org/1999/xlink"><defs /><rect fill="white" height="109.49831224856888" width="96.57237822174264" x="0" y="0" /><path d="M25.99213275337773,25 m0.0,0.0 m5.146357894132212,11.424557959073029 l0.5485444795004032,0.21195390865348412 4.24012992692322,1.9686077022228483 l1.7625279548100408,1.06142912971616 0.9676899288311298,0.7948893710286777 m-13.657382937574738,8.74053827964671 l2.5398326202309716,0.7827231656380521 2.8059849321942747,1.2134645556180919 l2.253735789285226,1.1997852254522932 0.960542263319695,0.7753668846582753 m-7.694151054362113,22.77692426791602 l1.4624571618313311,0.27885243998617903 1.0069812750607463,-0.08127790051198333 l1.2378238591588058,-0.44572600687516684 3.174648980429363,-3.618886647940868 l3.3706992833212173,-4.739652623022456 m14.63214558106675,-27.80036626014816 l0.7252100680922952,0.6250108607545303 0.4200946124910092,1.3540297309303186 l1.5801704903294782,6.902154671232236 m-1.2518432431086912,1.3484342521056718 l12.284487101748935,-1.4930752057806551 2.537465916251969,0.10164323696848887 m-27.692361498181224,8.00340037238991 l3.602045842394031,0.7271551187841853 21.405095317856524,-1.703972643502744 l4.740558993174498,-0.017934200803340808 2.455774105800957,0.28383065318848016 m-18.59740271784406,8.19863050644654 l6.16703449378391,1.2424088234090178 5.057353944476915,1.0804957735380696 l1.1305408441235727,1.1598062780920149 0.09540007342434566,1.1508547094666117 l-1.1573244494819936,3.1937541487326384 -2.5507616432058313,4.824831651562151 l-2.8705124458945055,4.387871456933731 -2.505776260308447,2.8377568744089063 l-1.306710894049777,0.7141686617374101 -1.3131422211203652,0.033873066863538394 l-1.2723526403903154,-1.5810650756953433 -0.9824670004704065,-1.7512394408409537 m2.8439417226574775,-22.350145157439336 l0.19133147462146705,0.7962565933449807 -0.1306304510290256,0.8537821870733117 l-4.201472684207237,2.819087770125975 -7.6105608162725185,3.3529775369978174 l-7.311650263975236,2.6727239600695163 m36.34014175851861,-10.029575939456729 l-0.03522751205489422,0.9135783046744733 -0.8330289195761316,0.9734756011293868 l-2.9529392043321727,2.4951740641032534 -3.3210055789736375,2.516684970588051 l-3.8719717338705584,4.428851730862186 -5.8005123334627715,5.588405281443965 l-3.4226150266936872,2.8650591824716813 -3.6867419127035164,2.7568186595518096 " fill="none" stroke="black" stroke-width="1" /></svg>