<?xml version="1.0" encoding="utf-8" ?>
<svg baseProfile="full" height="98.65009765612511" version="1.1" width="108.83708560909781" xmlns="http://www.w3.org/2000/svg" xmlns:ev="http://www.w3.org/2001/xml-events" xmlns:xlink="http://www.w3.org/1999/xlink"><defs /><rect fill="white" height="98.65009765612511" width="108.83708560909781" x="0" y="0" /><path d="M25,25 m0.0,0.0 m8.97906413380571,3.3764095402330674 l0.5388575871517413,0.21507065589718238 2.385598011020425,1.160711613312752 l2.4539320900657526,1.5592476262634276 1.9809098623570427,1.5638416519632836 l0.7875392299291759,0.9554424291559177 m-11.67745414389151,10.084549582092531 l2.575753792223423,1.028538514259594 2.6148155775775486,1.3947864828330487 l2.1819555777450352,1.476059317617635 1.2085204867274415,1.25943000869559 m-8.41355930074478,21.064312091547478 l1.3197631751334837,0.23346544549650244 1.0480150956962113,-0.5961525396504204 l3.5892165180934907,-5.184427809482382 4.18190483224925,-7.350717033859085 m7.855858285995427,-28.85773884986695 l0.6674100899645028,0.7850441670504626 0.34414341011135957,0.8578652850792828 l2.4449999394982456,14.758303124628279 m-1.8516865656609531,-15.79835287741829 l22.49325433709491,-2.7978667567260587 1.3261764724802043,0.2704603665306149 l0.8642503199174579,0.9703192860834897 0.19063571735204018,1.4687834602458467 l-2.4893196302595926,12.690734197568629 m-19.59433985808993,2.1218772684240657 l20.9248102511546,-1.7212866124471342 m-16.544913482634584,5.286518031954512 l-0.06586207332140621,2.446276549557148 -1.1534654874301296,4.1845517497014795 l-1.600190171402023,4.0037218265829 -2.283261414582295,4.293781211830209 l-2.4078435142192642,3.4535915311515795 -2.1697748346831887,2.5659567494050526 l-3.446940001459554,3.2538093111702358 -2.97591236050881,2.1731810592436354 m23.399523194001244,-28.75758283218395 l0.5445964228807316,0.7893743769960972 0.2850623215850274,1.9732416523986185 l-0.1430817121382453,20.0894931432957 0.33271305875039797,2.0136103743002254 l0.6693409397138761,1.3345085593117219 1.6304651509308867,1.0347044892561919 l3.1176860498855006,0.610209682425704 5.819642063312892,0.0995632365877457 l3.8832431017459625,-0.4951363804526786 1.5139940269052659,-0.7355612235358746 l0.9476500644791193,-1.3185848413690175 0.4373524467156104,-1.980290753439841 l0.11603652587307424,-2.731833240124172 " fill="none" stroke="black" stroke-width="1" /></svg>