<?xml version="1.0" encoding="utf-8" ?>
<svg baseProfile="full" height="108.36949305958115" version="1.1" width="109.49251164216548" xmlns="http://www.w3.org/2000/svg" xmlns:ev="http://www.w3.org/2001/xml-events" xmlns:xlink="http://www.w3.org/1999/xlink"><defs /><rect fill="white" height="108.36949305958115" width="109.49251164216548" x="0" y="0" /><path d="M25.000000409781933,25 m0.0,0.0 m4.45377379655838,6.258256435394287 l0.5737489089369774,0.2847868390381336 4.395494163036346,3.307841420173645 l1.4943915605545044,1.6116464138031006 0.8404430001974106,1.3653066754341125 m-10.866783857345581,9.018539786338806 l4.095224142074585,2.627449929714203 3.2083314657211304,3.428923785686493 m-8.194623589515686,27.59005069732666 l1.4115822315216064,-0.145111670717597 1.6165176033973694,-1.4651647210121155 l2.448783963918686,-4.71037745475769 2.8955358266830444,-6.655347943305969 m10.900185108184814,-25.608198642730713 l2.483229786157608,0.4159592464566231 2.8308194875717163,0.005751841235905886 l21.906490325927734,-3.378646969795227 1.6297391057014465,0.21766478195786476 l1.0191088914871216,0.9557842463254929 0.32214660197496414,1.3614793121814728 l-3.5120809078216553,12.129100561141968 m-31.976845264434814,3.228859603404999 l2.7574044466018677,0.36987926810979843 2.6763349771499634,-0.06392263807356358 l19.946906566619873,-2.147252708673477 12.200775146484375,-0.9520439058542252 l3.7796446681022644,-0.014153987867757678 3.815482258796692,0.5200795456767082 m-26.276237964630127,-29.438295364379883 l0.9879684448242188,1.625216007232666 0.22320188581943512,1.5239661931991577 l0.06292231846600771,14.109560251235962 -0.955958217382431,11.227246522903442 l-1.8618133664131165,8.781942129135132 -2.6551109552383423,6.7736464738845825 l-3.3346328139305115,5.202361345291138 -3.902466893196106,4.069477021694183 l-6.669961214065552,4.937232732772827 m19.996663331985474,-26.922011375427246 l10.384193658828735,12.165981531143188 6.037063002586365,6.628556847572327 l4.329385757446289,4.060082733631134 3.9755338430404663,2.5420311093330383 " fill="none" stroke="black" stroke-width="1" /></svg>