<?xml version="1.0" encoding="utf-8" ?>
<svg baseProfile="full" height="102.47194651622412" version="1.1" width="102.04270921224133" xmlns="http://www.w3.org/2000/svg" xmlns:ev="http://www.w3.org/2001/xml-events" xmlns:xlink="http://www.w3.org/1999/xlink"><defs /><rect fill="white" height="102.47194651622412" width="102.04270921224133" x="0" y="0" /><path d="M25,25 m0.0,0.0 m11.813198185551222,3.0112887669834447 l0.47461391313844653,0.2194599339118063 3.388405253793848,2.3773557227072137 l1.188059956560422,1.17877248322789 0.6679818923140136,1.0274378672808169 m-8.928812674377689,11.414830107373254 l3.6565092103978447,2.1112560868461507 1.6955399178759503,1.5435638073502096 l0.7080442676786322,0.9768399084173748 m-5.77815602877906,24.12310281495713 l0.951550662213414,0.042244458054785994 0.7393984347682949,-0.7769992691510554 l2.355230894624688,-5.167370654881814 2.5251184024672524,-6.323362313934384 m9.65225568994031,-31.291789208915286 l2.5620262645676584,0.2379092452670173 12.33977992932947,-1.5237636384065034 l2.9300224663281673,-0.1910183457220985 1.7762518471985596,0.16356847197738383 m-25.486706500184663,14.89047116331383 l3.027400154355131,0.304042245412084 20.28582003281454,-2.062973860283854 l6.920314428015689,-0.3758976485579661 2.5788626116492024,0.20782791382800475 m-18.346377958850553,-10.899538281685816 l0.26615283128920975,1.7668756416572025 -0.3746382368244723,1.734247078849556 l-2.457964468728228,7.51965978971552 -3.894919126968789,10.21452713389571 l-0.048145671144509544,0.8453472934081515 0.37354080753645474,0.6331920703810846 l0.6479630142664128,0.2709935578144304 0.9708829519398704,-0.01755783064843206 l14.272111445236305,-1.4845224725914254 1.329481537886566,0.581650994329784 l0.3618753775603806,0.524241965129433 0.23591620877406744,1.2943266945922105 l-1.099619814176876,5.133520163928716 -2.053196449763203,7.236297756055747 l-1.7770158030212626,4.702014121361583 -1.918965524561237,3.8678571711435272 l-1.408719620271733,1.8080861639037082 -1.3110745810628233,0.6239314479279814 l-1.2201767076018804,-0.2501738517068461 -1.1135275860355018,-0.9402549405348918 l-1.9529264019847963,-2.4732525844730016 " fill="none" stroke="black" stroke-width="1" /></svg>