<?xml version="1.0" encoding="utf-8" ?>
<svg baseProfile="full" height="93.12573546729737" version="1.1" width="106.73936022911677" xmlns="http://www.w3.org/2000/svg" xmlns:ev="http://www.w3.org/2001/xml-events" xmlns:xlink="http://www.w3.org/1999/xlink"><defs /><rect fill="white" height="93.12573546729737" width="106.73936022911677" x="0" y="0" /><path d="M25,25 m0.0,0.0 m10.085283334122305,8.402341305391614 l0.49398166717941394,0.19891240280265407 4.101089241769877,1.1499373790549317 l2.9498907302608455,0.7943154330852971 0.9514358216681125,0.8180482670147863 m-12.2095694573351,7.499794013459491 l2.1479388697980095,0.6808887537546738 2.449468054165126,1.0485795287295938 l1.9978899785278441,1.1262992548752444 1.1349850397350314,0.9507469023381008 m-6.190869666791181,17.40232754474711 l1.1102173876033954,0.039320485875859436 0.8210425536657542,-0.46842277859159104 l2.653140446161664,-3.8309466273082937 2.752488681542305,-4.4047707173673825 m10.04539630027272,-22.301751555794883 l2.788523870421118,0.15921829200147708 18.192690800063403,-1.6900353674779172 l4.319872326701725,0.040657768697638076 m-29.416605958307315,12.78386772780539 l1.5485322041300134,0.26780954601372764 2.1068588839290117,0.01163208193901559 l23.689901362753396,-1.7161184231685733 5.390469095346606,-0.24246593151174128 l2.825308661732695,0.18070866215065945 m-19.306003759667558,-8.665772882571929 l0.8391695712802335,1.0445067091825833 0.2096189542917031,0.9950369601834191 l-0.04407469225468103,30.851070731986407 " fill="none" stroke="black" stroke-width="1" /></svg>