<?xml version="1.0" encoding="utf-8" ?>
<svg baseProfile="full" height="112.72519987040931" version="1.1" width="93.71562514392454" xmlns="http://www.w3.org/2000/svg" xmlns:ev="http://www.w3.org/2001/xml-events" xmlns:xlink="http://www.w3.org/1999/xlink"><defs /><rect fill="white" height="112.72519987040931" width="93.71562514392454" x="0" y="0" /><path d="M25,25 m0.0,0.0 m27.79330821691076,7.435820506257561 l0.35015629595051295,0.4629836765815411 0.4644657606099418,1.4878817639768573 l-0.027464451599103865,10.645084517179193 m1.0355846297442322,-6.180562599302913 l8.80761576925139,-1.4792383610383413 2.2029441785002177,-0.07931585975941326 m-23.437585342403818,8.337423471305963 l0.49533945540370916,0.9005682117400119 0.15597813047775383,0.9737286244461535 l-0.051188003931384944,22.84864121253148 -0.5169218026990534,8.950317382015148 m1.5294091231006468,-30.515206123644944 l18.485681881589457,-1.9708048581256905 1.3930550586386055,0.045741277516937504 l0.8063846279131061,0.38227599504399223 0.4728729214057344,0.9378632711665326 l-0.27710537353283815,26.71848800570717 m-20.792863419198284,-17.64126505564753 l13.554955663262076,-1.5183092023185496 m-13.435042498559934,9.789535463359382 l13.217972448876216,-1.436517309787974 m-13.50131323421729,10.132464598493419 l20.799099994756844,-1.8400526338197325 m-17.622405521067986,5.580428515122544 l0.14533335389159777,1.2237691157821502 -0.9017053924588228,1.3574333532147254 l-4.061939133316536,3.5933916292515047 -4.820513026130156,3.5826312831621423 m21.37899273734834,-9.212190799794234 l2.994907301603733,1.8962934747018838 2.9356247418928425,2.2899779559484124 l2.72290006500016,2.5970441062452956 1.419089986911877,1.860890171235815 " fill="none" stroke="black" stroke-width="1" /></svg>