<?xml version="1.0" encoding="utf-8" ?>
<svg baseProfile="full" height="118.82847529528186" version="1.1" width="99.02378311961499" xmlns="http://www.w3.org/2000/svg" xmlns:ev="http://www.w3.org/2001/xml-events" xmlns:xlink="http://www.w3.org/1999/xlink"><defs /><rect fill="white" height="118.82847529528186" width="99.02378311961499" x="0" y="0" /><path d="M25,25 m0.0,0.0 m11.656840844877694,4.313895170971816 l0.4727079873307089,0.22779695604934244 3.3965297692021528,2.4258944946298153 l1.1988588909785969,1.3486810470707733 0.665420416994626,1.0986260807329025 m-10.19695672957134,8.886249868788818 l3.7842709125599288,2.357267102700379 2.0203595627676654,1.8542790825099327 m-6.1911232936831295,26.66724163200448 l1.0751558657705877,0.615297365143796 0.5143942524836075,-0.022783000920920872 l0.8640220158228653,-0.7419180819363859 2.2326367252454964,-4.807017796239313 l2.368725195372887,-5.846131312503496 m17.84510949721838,-23.31003248754839 l10.330553067185951,-1.2837023959382514 2.5202240714920703,-0.02133619734857449 m-14.267829523796165,-7.694629840654102 l0.7393588061380231,1.098803701753438 0.31339970932283134,1.0302131920377098 l-0.005391471296599321,16.999985031776212 m-9.8746312121262,-13.074673265677418 l0.685914560085117,0.8241435878946327 0.34396389450405906,1.1617898423895896 l-0.06716778213471922,11.786679822817 m-7.6347523497513565,0.5104275904495076 l2.313242116569659,0.3611054841634155 26.43343945958242,-2.3521374758834703 l2.8712173225092634,-0.07582463553979081 2.615290537959898,0.32014221107419305 m-17.45939981116453,2.533692375721451 l0.5549967157974764,1.0825070990649817 0.1087559606529354,1.0761122358915494 l-0.64549004539778,13.40787174692001 -0.5528432941288682,-0.02874009524515603 l-1.324556714310684,-0.9743337405227529 -1.0652877938820788,-1.3529375282761875 m-5.332316637881869,-7.987599147915036 l-0.043627422588061404,1.0838929464041518 -0.345465759020073,0.716489375890555 l-2.1471170047631354,3.119856286689793 -3.2043095661991874,3.408983243341453 l-3.3570906485890575,2.677257901857133 m25.865259329751765,-12.944601351939715 l2.4394838011237483,1.6836882002161204 2.5020560516600376,2.342717546799878 l1.9611055342160522,2.4583183057492892 0.9394412202848804,1.8230240991619786 m-7.407106260890944,-2.8426233739227103 l0.0806923037582737,1.031707296306985 -0.26393822736915484,1.2104900468473112 l-1.7851848389190421,2.8302653858038815 -3.4077939566932725,7.699284972068693 l-3.296916992859593,5.991146703022944 -3.027174181927065,4.356809694667101 l-3.399195865235324,3.8538617773041293 -3.756139578468736,3.2532306940979594 l-4.097049977476119,2.659769824508448 " fill="none" stroke="black" stroke-width="1" /></svg>