<?xml version="1.0" encoding="utf-8" ?>
<svg baseProfile="full" height="100.86795583560198" version="1.1" width="107.13484852458909" xmlns="http://www.w3.org/2000/svg" xmlns:ev="http://www.w3.org/2001/xml-events" xmlns:xlink="http://www.w3.org/1999/xlink"><defs /><rect fill="white" height="100.86795583560198" width="107.13484852458909" x="0" y="0" /><path d="M25,25 m0.0,0.0 m12.182190213973396,6.143161622265327 l0.4775677863310343,0.1959462450490005 2.0891635559729025,1.11080964144996 l2.505302644135726,1.6292204090555353 1.828291707108054,1.5960740724089784 l0.9569660272089816,1.3078300616649665 m-11.527013530280511,7.710406032838577 l2.0930473332033834,1.0641203238474333 2.267377751776231,1.5223828812249853 l1.9024965020668918,1.6309682970537553 1.0490529788442688,1.3626709568895568 m-8.550387500869565,21.611384250114682 l1.2560033570787072,0.5052771755442369 0.618063449405454,-0.02026137209246172 l0.995529257061556,-0.6551600915315434 3.0914409297797323,-5.455241850553315 l4.37864857913186,-8.348990764883242 m4.7221353052922295,-15.544922309758098 l3.146662119723255,0.2451130355396088 24.920075822850396,-1.8037170597319023 l4.346260032325677,-0.10391777857561271 2.38597420246943,0.23644871587345123 m-19.407844291643933,-13.998653728591073 l0.888184609590233,1.1163278008688275 0.29835717393029443,1.5458669828540508 l-0.12417177694145987,46.264812286776284 m-0.8077806446175391,-32.87005489982436 l4.894597283366117,1.7906792337828037 4.113523924583478,2.6130221112319965 l2.944104963054122,2.8626846580435514 1.5160222016512122,2.621204273747311 " fill="none" stroke="black" stroke-width="1" /></svg>