<?xml version="1.0" encoding="utf-8" ?>
<svg baseProfile="full" height="100.7744999110389" version="1.1" width="108.8668531948833" xmlns="http://www.w3.org/2000/svg" xmlns:ev="http://www.w3.org/2001/xml-events" xmlns:xlink="http://www.w3.org/1999/xlink"><defs /><rect fill="white" height="100.7744999110389" width="108.8668531948833" x="0" y="0" /><path d="M25,25 m0.0,0.0 m28.839140749609456,1.3379485673878015 l0.3484773069224881,0.43642194096603254 0.6241023590488946,1.1044234986568409 l0.21582962709700798,1.4670995951199053 -0.4544229219978921,44.73139336102571 l-0.44126094087971884,1.16043487403826 -0.5973485612363618,0.534266497472677 l-0.7184112584115596,0.002511576371669119 -1.643956755294066,-0.9280643639536453 l-2.4294657811719613,-2.0752989632917953 m-16.81389277399245,-27.33893399110911 l1.882573097644779,0.26560170931212934 1.674621895473593,-0.23364234126773897 l11.670666122733275,-3.8973782948508204 1.2964415653686194,0.570272848344587 l0.4752584433994376,1.187171894524404 -0.5844379878745666,2.2013954084089846 l-1.4182061900386718,3.224367956115304 -1.8315958504303855,4.443041117985172 l-4.061048045235762,4.674475058483764 -4.624189500604185,3.712399313778604 l-5.413183514981708,2.861717166193023 m45.833806499518154,-28.74648539959207 l-0.34077407906969237,1.1692337805264104 -0.6778794316508965,0.8752219906262534 l-4.843029233792773,3.663057416533526 -5.170880327304933,3.1416832169411038 l-5.501940879152279,2.5408012974330885 m0.030708506247856943,1.135646165000872 l6.854912793725789,7.80842829111246 6.416209978589681,6.148600956384713 l6.142270680499765,4.786137721312811 2.2198118227919847,1.4953248883683175 l1.907945779332389,0.7088509331566113 " fill="none" stroke="black" stroke-width="1" /></svg>