<?xml version="1.0" encoding="utf-8" ?>
<svg baseProfile="full" height="98.2677132503591" version="1.1" width="104.19458192904955" xmlns="http://www.w3.org/2000/svg" xmlns:ev="http://www.w3.org/2001/xml-events" xmlns:xlink="http://www.w3.org/1999/xlink"><defs /><rect fill="white" height="98.2677132503591" width="104.19458192904955" x="0" y="0" /><path d="M25,25 m0.0,0.0 m7.412406010438428,14.065168032582193 l0.4486354283238657,0.14935026211386407 1.8224882805795157,0.10842664770541251 l13.184677455427416,-2.417117379365159 1.9378551278597114,-0.013276447011209246 m-8.6937979352693,2.740967335032112 l0.6307480098787024,1.2218366428484644 0.19773627022550008,1.3743287074479342 l-0.05881765748106059,26.538231244590207 m-9.285622551182641,-15.297525721197033 l3.0230061499500747,0.17213497300725816 11.744907681537793,-2.2791821861938955 l2.224777554213643,-0.09635477531003238 m-17.447099186307756,21.415623916050173 l1.075392638105952,0.5851019980588115 1.4773907734294807,-0.2598550392255321 l13.950932996533917,-7.957678900016492 m5.260837158543274,-35.99751638783942 l2.0911424533559964,1.648767078085484 1.9788511943475857,2.4872178739351454 l1.594278143777971,2.6367576519915534 0.8496909796357791,1.727478462843955 m13.481959280739707,-11.183736240214143 l-0.20619378943366018,1.6165791616972935 -1.3864652742840966,3.2003492960702626 l-1.98774244849731,3.378113139841775 -2.494739452452682,3.3754850252631345 m-15.029998309496275,3.7237718941772293 l2.9010259975027233,0.264362112902391 18.263961628806225,-2.3778292436251314 l3.4626308369851335,0.18003145745141672 1.7697264832559274,0.4185927730868992 m-19.16808586353894,15.311820208627939 l5.357561771643828,0.1759610047333122 3.679945351248608,-0.8070297133964025 m-16.5061687144478,-10.401841179280256 l0.48652942924209586,0.8990918808100901 0.1861069532399573,1.1837122908053888 l-0.04698922729243949,20.040350671463298 m-8.079698605895032,0.9804487216066082 l2.463791192797181,0.3638458171378423 22.179487861949443,-2.1253084987500457 l2.9694274745212104,-0.07965371439609181 2.102681076413825,0.40675541658541703 " fill="none" stroke="black" stroke-width="1" /></svg>