<?xml version="1.0" encoding="utf-8" ?>
<svg baseProfile="full" height="104.7152234280116" version="1.1" width="104.00661004457453" xmlns="http://www.w3.org/2000/svg" xmlns:ev="http://www.w3.org/2001/xml-events" xmlns:xlink="http://www.w3.org/1999/xlink"><defs /><rect fill="white" height="104.7152234280116" width="104.00661004457453" x="0" y="0" /><path d="M25,25 m0.0,0.0 m10.552567358790293,10.275734235248557 l0.5135331934533767,0.2228234058990388 3.9554415982465128,1.9769280766288782 l1.6466157286172423,1.2598480918047923 0.7709301439240296,0.8600751004313534 m-10.19366135735393,8.970865665144066 l4.494676337780843,1.936242206025257 2.0594421613519143,1.2127673922072228 l1.151782730023931,1.02181490035463 m-7.770671436210501,21.61260962738235 l1.2159028857481107,0.015377703509701732 1.360028981392567,-0.6965537773400405 l2.821869625006515,-4.218675242082128 2.9370975403086295,-5.10339063986617 m8.448048454310639,-25.44006654026893 l1.6090626865850544,0.2437287310087763 2.3342222079237884,-0.07932561276054323 l22.008175346120417,-2.5270008474746484 2.293004708893378,-0.08037819268220503 l1.7985411496617254,0.24729138013084984 m-29.496555696652635,14.863704568180033 l0.6854024960435265,0.8705958906982199 0.3115412978941781,1.44884299886213 l1.5381902983786073,10.71655270155778 m-1.1927791218548445,-12.028644055519486 l11.01561994698278,-1.9774059048588122 0.708131956171836,-0.018426324780505796 l1.0416942875345614,0.4002029782258412 0.5018313671552853,0.9464390881888625 l-0.01803501650675804,0.6252344749186359 -1.4583232846213945,7.539773195198111 m-9.865472282001898,1.9568339608176617 l11.375892693033789,-1.6091227150179306 m9.048898097668014,-22.08253144385318 l0.8161810213689205,1.2852679509631855 0.2516238515604455,1.5257065408364912 l-0.12818385940541635,36.82803871209392 -0.35223586738245355,1.0841053704155736 l-0.5325101988044538,0.5204038957355586 -0.6743339570973531,0.10893588204871701 l-1.5493985479223316,-0.6152384368135602 -2.353278296107062,-1.8624224165619234 " fill="none" stroke="black" stroke-width="1" /></svg>