<?xml version="1.0" encoding="utf-8" ?>
<svg baseProfile="full" height="92.89059236220463" version="1.1" width="112.30907555691707" xmlns="http://www.w3.org/2000/svg" xmlns:ev="http://www.w3.org/2001/xml-events" xmlns:xlink="http://www.w3.org/1999/xlink"><defs /><rect fill="white" height="92.89059236220463" width="112.30907555691707" x="0" y="0" /><path d="M25,25 m0.0,0.0 m31.2306222106594,2.2113610025899684 l0.3769420289930445,0.40076745823280624 0.7135431429364705,0.9154975606731417 l0.3893692199236746,1.2983054373005523 -0.33129943070130635,36.53680866278785 l-0.33234049598135584,1.0007740530008067 -0.5221113580288022,0.4735488034364513 l-0.6762470735542223,0.053529384183057284 -1.5727860145974755,-0.7912806434682238 l-2.600787106340797,-1.810206512313805 m-17.71579652546504,-22.283484249592014 l2.0751651412767216,0.2265099808949822 1.9844094869402653,-0.23065109245736046 l12.123877121408555,-3.254415326600558 1.2390864090766267,0.4031300806505303 l0.5548833002962287,1.0369293714361083 -0.5725917066019154,1.9448653101518 l-1.3454537801181135,2.8959166721870515 -1.7998355366348642,3.874413474951424 l-4.213170808078089,4.10797298299208 -4.889261673128301,3.068833896981137 l-5.702737902595354,2.2085358487561004 m46.853078126180186,-23.761252483307004 l-0.3205664045109694,1.0007089697807579 -0.7056473899302904,0.7694943785526228 l-4.874724579179459,3.1652975564225465 -5.1684224476105305,2.7658467383385754 l-5.507487453125253,2.2520145535554175 m0.1598989112553928,0.9651978339309136 l6.788709445167593,6.768686981816568 6.424265598150668,5.456685371798798 l5.959378803823721,4.223005155482186 2.3846250130575024,1.3861774691033302 l1.9024892839531693,0.6449255632428441 " fill="none" stroke="black" stroke-width="1" /></svg>