<?xml version="1.0" encoding="utf-8" ?>
<svg baseProfile="full" height="102.36726749688387" version="1.1" width="109.4925134186633" xmlns="http://www.w3.org/2000/svg" xmlns:ev="http://www.w3.org/2001/xml-events" xmlns:xlink="http://www.w3.org/1999/xlink"><defs /><rect fill="white" height="102.36726749688387" width="109.4925134186633" x="0" y="0" /><path d="M25.0000012665987,25 m0.0,0.0 m5.650702714920044,1.9710342586040497 l0.6194360554218292,0.2319764904677868 2.72416353225708,1.323745846748352 l3.4277603030204773,2.191740870475769 2.206718772649765,1.8133750557899475 l1.2390504032373428,1.5384267270565033 m-14.60685133934021,8.872520923614502 l2.7794384956359863,1.263478398323059 2.9099586606025696,1.7823497951030731 l2.438516914844513,1.902884840965271 1.3665394484996796,1.6250835359096527 m-10.755435228347778,27.661724090576172 l1.4909972250461578,0.18892666324973106 1.1896596103906631,-0.7804466784000397 l4.477984607219696,-7.093381285667419 4.330346882343292,-7.73956298828125 m10.595673322677612,-22.960145473480225 l2.2659163177013397,0.277177132666111 2.7655306458473206,-0.07376308552920818 l20.136842727661133,-2.93059766292572 2.50627338886261,-0.14274811372160912 l2.5415778160095215,0.23331379517912865 m-15.725188255310059,3.4120693802833557 l0.6003573164343834,0.8997335284948349 0.34698404371738434,2.0027361810207367 l-0.019886724185198545,27.9616379737854 m-22.343919277191162,2.345084398984909 l2.6000621914863586,0.5190050601959229 2.790493369102478,-0.04477716516703367 l17.706172466278076,-2.0894376933574677 15.610002279281616,-1.3325051963329315 l2.8967639803886414,0.12520445510745049 2.7298694849014282,0.71188785135746 " fill="none" stroke="black" stroke-width="1" /></svg>