<?xml version="1.0" encoding="utf-8" ?>
<svg baseProfile="full" height="100.44848070978168" version="1.1" width="95.31115738793243" xmlns="http://www.w3.org/2000/svg" xmlns:ev="http://www.w3.org/2001/xml-events" xmlns:xlink="http://www.w3.org/1999/xlink"><defs /><rect fill="white" height="100.44848070978168" width="95.31115738793243" x="0" y="0" /><path d="M25,25 m0.0,0.0 m10.583034790940085,2.860435159444313 l0.4683216148734834,0.2074011598458864 3.201401407973681,2.249956691957409 l1.339457320427538,1.28650939099808 0.6931455299415687,1.0548735162506646 m-10.205112583200304,8.782902793942435 l2.0908668103805836,1.0014087786664054 2.1380402916414973,1.3921477353734735 l1.7213156807863832,1.407486035031496 0.6830485449181313,0.8919173115275397 m-6.140785514019114,24.027616345533367 l0.999628208825222,0.0370416573074868 0.7465401023628854,-0.7132984573038812 l2.608120532088113,-4.660480523784939 2.5765672294843647,-5.522504100733969 m8.231357968278772,-18.887695340914732 l2.3644236668041287,0.7772864722647966 2.2842256923466477,0.10614580813031808 l8.537426903317765,-2.4365477649607183 6.904842833877046,-1.1339390457055287 l0.8868484071148166,-0.09333387065845329 1.4973439005816973,0.23557562143537145 l0.8223899039730842,0.75025218747098 0.27870814421433926,1.207399102648119 l-0.06219622361620121,4.396048425275417 -0.5509965380569327,6.677935850255309 l-0.8612234678660826,6.351827395397636 -0.42936374713349834,2.4827564703514695 l-0.421276830467161,1.252115270234925 -0.4993085861389954,0.6287929212733099 l-0.5691535361894104,0.16976437364049282 -0.6102061607864054,-0.18965781332026177 l-1.1489145245087606,-1.0790807562726557 -1.0875901400094385,-1.3335481493847223 m-10.81910601623624,-19.496219929311007 l0.5845214401491439,0.9769228471702364 0.22115231271115277,1.533109150622578 l-0.025864167470029432,33.24915799008303 " fill="none" stroke="black" stroke-width="1" /></svg>