<?xml version="1.0" encoding="utf-8" ?>
<svg baseProfile="full" height="114.94297170250383" version="1.1" width="92.84861742645343" xmlns="http://www.w3.org/2000/svg" xmlns:ev="http://www.w3.org/2001/xml-events" xmlns:xlink="http://www.w3.org/1999/xlink"><defs /><rect fill="white" height="114.94297170250383" width="92.84861742645343" x="0" y="0" /><path d="M25.48028634732429,25 m0.0,0.0 m5.300811223340346,10.305386489056874 l0.5180016853088462,0.19049387562606482 3.7954830975271707,1.908798239210147 l1.5417629559440755,0.9930469383083119 0.8633651210018729,0.8587794414577229 m-12.499710430446603,8.215809714702141 l2.2225015445623466,0.7076433127141726 2.639717463125975,1.1451571312169304 l2.0565430584719753,1.1018459729416674 0.8811890134344471,0.7370342826696952 m-7.1259570160512435,20.690212084323978 l1.3664627934914968,0.29956193190028607 0.6709286874179582,-0.06975413007461255 l1.0553810106812014,-0.4228507067426721 3.090793708713634,-3.36151429113453 l3.182079487282322,-4.298579717434922 m13.25341323694373,-25.940345723498435 l0.6368119747161177,0.5839082737962568 0.3711225936194552,1.271816996935709 l1.5194832544941201,6.373691520373881 m-1.198390067030182,1.200304223692713 l11.412204863023389,-1.458728254632306 2.295416042296051,0.07778447435891402 m-25.994426362260974,7.582724493611875 l3.356569933200875,0.6909489168288261 20.307063569098684,-1.5538063053092472 l4.526174682181816,-0.007660220209073524 2.3235339550402223,0.27837056674080274 m-17.960832308360995,7.942274717631572 l5.516403121081634,1.3633432148336133 6.584784390233471,1.1401396005509103 l1.102788335363253,1.455834465175991 -0.0781778201108846,2.36475240777484 l-1.2517402296869065,4.479536041041168 -2.328990609656324,5.537297174192326 l-2.162103510234461,4.043581166351331 -1.3600967609541343,2.729510291883042 l-1.1699347788860999,2.122532833286493 -1.3426536184174378,2.0471044903206166 l-1.3532299367127154,1.3144866012373457 -0.6724991075472029,0.29276721402784706 l-1.2279059334345426,0.009731952765571626 -2.241325301729436,-0.6935598186669397 l-2.151857166229787,-1.449007492148698 m4.525479463086762,-26.74723116565458 l0.11078047374480622,1.4969174303350696 -1.2495326305182537,2.713162735605624 l-2.549676566132417,4.408621799350592 -2.794145654562298,3.8746423003800614 l-2.471030017618193,2.9310969657318386 -2.8762872645541404,2.9024962110690904 l-3.2764362470774144,2.72516132416883 -2.758131318327087,1.9550479439262085 " fill="none" stroke="black" stroke-width="1" /></svg>