<?xml version="1.0" encoding="utf-8" ?>
<svg baseProfile="full" height="100.1206344228366" version="1.1" width="98.32570697289668" xmlns="http://www.w3.org/2000/svg" xmlns:ev="http://www.w3.org/2001/xml-events" xmlns:xlink="http://www.w3.org/1999/xlink"><defs /><rect fill="white" height="100.1206344228366" width="98.32570697289668" x="0" y="0" /><path d="M25,25 m0.0,0.0 m15.268962827761662,2.2712111373444075 l0.43693164588656214,0.25136381819413384 3.157923359401701,2.5107456098533656 l1.2983913592938292,1.3833608582412378 0.6804345647243488,1.1646070318941133 m-10.531414859732946,9.922648906986039 l1.9691599873649552,0.8313926437411381 2.2907096934021487,1.4285011554501774 l1.6526444967567595,1.3204837008770476 0.7603867500906165,0.9267666812234957 m-6.615272955872791,26.295319287064938 l1.1558668722380476,0.261371311407275 0.9307884447649025,-0.5357153190625888 l3.7812872064486673,-11.650446136784659 m10.518380173394574,-23.383414724578106 l1.084885377585254,0.1784382444970435 1.166688940980975,0.004460162329174429 l13.75332338283811,-2.189682210917056 1.7029254252756267,-0.09028701980842865 l1.2454872769345364,0.34626036893645934 m-20.921058388350538,8.841870263855082 l1.34067907461554,0.333359653932709 1.2045537576593508,-0.011968901458954892 l16.425325167316558,-2.1826927781707464 3.4072058370441893,-0.07167973122828662 l0.9037225188529704,0.6855441130393215 0.2567890362210491,1.2495676645530407 l-1.3496225817226906,5.764802091347648 m-19.163064933574773,2.425137923615886 l20.07165057308481,-1.7591289802372856 m-20.656333773332285,-5.755900752728436 l0.3423135974126726,0.777299866769611 0.12896336393209898,1.086235453963826 l-0.0664204946344106,4.206788123333489 -0.3968303805571805,6.0390560000089195 l-0.8133028263829465,5.145354827288322 -0.983071996815297,3.6315894472032437 l-1.3804053457809935,3.3047433224861544 -1.8537665000333505,3.0433882874092513 l-1.7981722522962458,2.1198830209645982 " fill="none" stroke="black" stroke-width="1" /></svg>