<?xml version="1.0" encoding="utf-8" ?>
<svg baseProfile="full" height="102.4946266970301" version="1.1" width="97.48294499741272" xmlns="http://www.w3.org/2000/svg" xmlns:ev="http://www.w3.org/2001/xml-events" xmlns:xlink="http://www.w3.org/1999/xlink"><defs /><rect fill="white" height="102.4946266970301" width="97.48294499741272" x="0" y="0" /><path d="M25,25 m0.0,0.0 m10.798626043167877,18.631432334413145 l0.45722646729182653,0.09115812627013757 3.1359674101821824,0.12939236188526765 l26.126489317433013,-2.2583342246108953 3.834007794843767,0.1953235945890213 m-17.97655136010879,-11.580239277202564 l0.7770249017778811,1.1780335586384334 0.29797483942823383,1.773975058550043 l-0.013301606436209576,42.10670157463737 -0.15133448271701597,1.2974153066505762 l-0.3518367752253085,0.7105198923849905 -0.5040312809644288,0.21924839082457503 l-1.2937637309257868,-0.5668695590096553 -2.0966108520388542,-1.9016540698123812 m-7.777281268369361,-26.62173367470709 l1.5782915769795105,1.04526164323136 1.7967201427050727,1.53474265241828 l1.4195571850546795,1.6044556630055213 0.5853524336501661,1.0586662870387575 m-9.59722840313615,13.851967867613126 l1.1877758076858216,0.16916178472031113 0.9142064914237547,-0.5190982908850812 l10.984687569544995,-11.02672039889432 m17.180394043628528,-10.69138286379491 l-0.3576212033328219,1.4511797748560373 -1.8559119969889315,2.1448790603996657 l-2.6691851691392943,2.332416159467201 -2.8409416992702585,1.9456566328776348 m-1.9104971915952869,2.972676808587789 l2.420536430305177,1.7146733162273338 9.200014089239515,8.49198571227349 l2.4577905378011144,1.6229829203720008 1.7263989355180813,0.9605708579789513 m-11.601818673842814,-40.55935963187481 l1.7897537937579022,0.9796737515730705 1.9145373351589334,1.481450569716568 l1.5020397723887626,1.4991165386268515 0.6073208036561147,0.9362711401535607 " fill="none" stroke="black" stroke-width="1" /></svg>