<?xml version="1.0" encoding="utf-8" ?>
<svg baseProfile="full" height="100.58531348208246" version="1.1" width="101.88549264776063" xmlns="http://www.w3.org/2000/svg" xmlns:ev="http://www.w3.org/2001/xml-events" xmlns:xlink="http://www.w3.org/1999/xlink"><defs /><rect fill="white" height="100.58531348208246" width="101.88549264776063" x="0" y="0" /><path d="M25,25 m0.0,0.0 m8.66675928970632,5.729270249069765 l0.5415052548973613,0.18750540798613172 4.258026405405865,2.06954236327336 l1.6729507657354297,1.1683303983071303 0.9132613498086602,0.9482847926732725 m-11.989850850687924,7.959096603389747 l2.573112354574003,0.8758603099616532 2.6006177605289262,1.2086119637954968 l2.0870901534006756,1.2479069127438667 0.8195072394627836,0.7912957273401414 m-7.984122290993876,21.650621120329774 l1.26058996168761,0.12117579821543926 1.5069104246843636,-0.6361946304796406 l3.432407774458056,-4.19060180057324 3.261021929138571,-4.429733938549867 m10.024249233082891,-16.810768464172128 l3.3395955726288338,0.6232429684643997 2.893780574662939,-1.6786152617677375 l7.3377031365523555,-2.25326282889307 5.2961943830057105,-1.0544324530614615 l5.870440465990964,-0.3838669609404558 1.0778470160283116,0.0004461172904916366 l1.5458241370434196,0.39490630506795416 0.7232350563085116,0.8767752195053693 l0.15683555064985305,1.1885564169909846 -0.16879713294823856,4.882119289342337 l-0.7888461803826559,12.645477323337856 -0.40366880692722623,2.94937792765544 l-0.4330118687125537,1.317998781002795 -0.5872166040195628,0.7081413027276148 l-0.7360649404306876,0.2313555634898054 -0.8085629017755003,-0.14018631790264835 l-1.5090921500518277,-0.9628250751213765 -1.4676310850835317,-1.2085262761882252 m-13.185545443042017,-20.192626273316048 l0.7429213779497242,0.8870754800906152 0.266859516240807,1.4469271070573624 l-0.03953523997527301,32.417052313939564 " fill="none" stroke="black" stroke-width="1" /></svg>