<?xml version="1.0" encoding="utf-8" ?>
<svg baseProfile="full" height="118.10939449890942" version="1.1" width="89.43316135763425" xmlns="http://www.w3.org/2000/svg" xmlns:ev="http://www.w3.org/2001/xml-events" xmlns:xlink="http://www.w3.org/1999/xlink"><defs /><rect fill="white" height="118.10939449890942" width="89.43316135763425" x="0" y="0" /><path d="M25,25 m0.0,0.0 m8.818576690203864,4.421716816311221 l0.4904411787662107,0.21786129777445032 3.7985936604987702,2.272129169573203 l2.3129360857926464,2.171047570965269 0.7912565205356925,1.2121257213475252 m-10.907177839270576,10.812292087280195 l4.636292424731091,2.3388979152154463 2.0187145835591513,1.6169928805583658 m-6.069350541161162,26.586193133981524 l1.1998267364301458,-0.15013959041455477 0.9832897521483492,-1.0349460224480098 l2.563464308690242,-4.975024275469644 2.9367658471769302,-6.668593756144447 m21.5175554269842,-24.879081754490773 l0.31747426877386936,1.6175601727191162 -0.3376528693346806,1.275405601231551 l-11.381570795057815,8.241653823490045 -8.222073219334899,4.151118274471219 m-0.5601242762573195,-14.353713166829325 l0.7453929943404576,0.8872690251693713 0.32520789377817355,1.1446563523133406 l0.5073005369321781,16.909279434353063 0.5525979290746654,3.3162705294478827 l1.2023851065212128,2.754201453944971 1.9594643226595125,1.1696286271229235 l3.426118824298814,0.574090155739456 8.073470221586163,0.07922181535411556 l3.9857057772850224,-0.4592876293438906 1.604569640290539,-0.621109795846583 l1.1147178927690087,-0.9906658692937027 0.6954860419791492,-1.4871860154257162 l0.33350623224462705,-2.516158679637629 m-32.011026099825024,15.22190799815943 l1.775824512512078,0.20677396948664042 2.2592117426291005,-0.0766607991343658 l21.48624324234642,-2.2099349837162077 4.471446874495658,-0.10258990270425883 m-16.36703485732819,-10.057608275763068 l0.518150085477821,0.8287234249789099 0.31161096636362706,1.5222198056192227 l-0.03676503278702695,27.142857958963116 " fill="none" stroke="black" stroke-width="1" /></svg>