<?xml version="1.0" encoding="utf-8" ?>
<svg baseProfile="full" height="109.49251216550145" version="1.1" width="108.87641806155443" xmlns="http://www.w3.org/2000/svg" xmlns:ev="http://www.w3.org/2001/xml-events" xmlns:xlink="http://www.w3.org/1999/xlink"><defs /><rect fill="white" height="109.49251216550145" width="108.87641806155443" x="0" y="0" /><path d="M25,25 m0.0,0.0 m23.729660511016846,4.836145262032687e-08 l0.7341078668832779,0.3604419529438019 4.278126358985901,2.926781475543976 l2.8561943769454956,3.3002686500549316 m-17.933104038238525,10.979452133178711 l1.8767285346984863,0.49259211868047714 1.9424909353256226,0.02017098944634199 l11.068087816238403,-2.6841935515403748 1.5078875422477722,0.3246568888425827 l0.5732760578393936,0.4349607229232788 0.7010480016469955,1.3867275416851044 l-0.2740367315709591,39.92274284362793 -0.48285283148288727,1.411745846271515 l-0.7123062014579773,0.61616450548172 -0.8663473278284073,-0.0035907936398871243 l-1.89281165599823,-1.1637074500322342 -2.1047523617744446,-2.000032961368561 m-24.154794216156006,-23.06828498840332 l1.8874505162239075,0.2040386013686657 1.772366613149643,-0.21864190697669983 l12.280402183532715,-3.482634127140045 0.8949396759271622,0.19156856462359428 l0.6436846405267715,0.498221218585968 0.29771754518151283,0.7241005450487137 l-0.14314031228423119,0.8684917539358139 -2.375664710998535,4.92502748966217 l-4.453254044055939,7.081603407859802 -4.77527529001236,5.5486977100372314 l-4.7481125593185425,3.9278700947761536 m47.76061534881592,-36.483802795410156 l-0.3807246685028076,1.1090246587991714 -0.7319634407758713,0.8674196153879166 l-4.839607775211334,3.597271740436554 -5.373927354812622,2.9771754145622253 l-5.494729280471802,2.150142639875412 m-0.17566407099366188,1.1708556115627289 l8.706004619598389,8.147382140159607 6.421120762825012,5.49008309841156 l6.7041850090026855,4.90805059671402 4.153392016887665,2.2416380047798157 " fill="none" stroke="black" stroke-width="1" /></svg>