<?xml version="1.0" encoding="utf-8" ?>
<svg baseProfile="full" height="103.72665996954703" version="1.1" width="106.67464506761985" xmlns="http://www.w3.org/2000/svg" xmlns:ev="http://www.w3.org/2001/xml-events" xmlns:xlink="http://www.w3.org/1999/xlink"><defs /><rect fill="white" height="103.72665996954703" width="106.67464506761985" x="0" y="0" /><path d="M25,25 m0.0,0.0 m10.824705398642283,4.323798173406815 l0.5278962745763716,0.2252384813548779 3.7566481709827064,2.410558435352266 l1.3872461144623733,1.2810895428714602 0.7536198053858726,1.083025510831686 m-9.91157705765946,11.5442528791877 l4.248082739511208,2.172328766616178 1.9301178567137172,1.4813502163573524 l0.8092930690514112,0.9774861641602615 m-6.570252245056711,24.908892210078932 l1.0689752048315104,0.07353938858687868 0.8181437160854379,-0.7561703591389463 l2.6658406670869916,-5.201759855383583 2.8155072477998098,-6.397567753016515 m10.953316881337686,-32.1052282430951 l2.919442613451201,0.2700926024002136 14.046835999423353,-1.494579167855157 l3.430622773322233,-0.1996188911788015 2.0767532931196833,0.16109221049990982 m-29.435629884731497,15.245668814693808 l3.467636665014751,0.32523138029483545 23.22921218107954,-2.1451173202813645 l7.910566962029285,-0.38524048132493305 2.9516406211601036,0.21277592510419457 m-20.82723904219789,-11.191177492830484 l0.2631407320690957,1.7765521625131813 -0.4809292142571935,1.751227628468699 l-2.965745403056552,7.479589166734804 -4.55903020502319,10.06447834704979 l0.05976378011700524,0.9685021497567072 0.4915596730373471,0.6219979585867718 l0.7866811129601132,0.23137034047184063 1.1499049711119802,-0.05402309582008528 l16.632429996544452,-1.7531448599552713 1.3897361287824042,0.5819385817568379 l0.39812701985930526,0.512007086257478 0.20645319480319488,1.3297529673031063 l-1.2710572727751084,4.972056094450329 -2.4054092529756343,7.3448332622202495 l-2.1221416081628797,4.736192149341196 -2.3086969868398644,3.836789984649257 l-1.6505280572841092,1.7222665828670172 -0.786849489259294,0.4972939344229746 l-1.4265429979777577,0.2870183907796621 -1.3047613886106715,-0.5399707638800377 l-2.274189812198394,-2.46497350417582 " fill="none" stroke="black" stroke-width="1" /></svg>