<?xml version="1.0" encoding="utf-8" ?>
<svg baseProfile="full" height="109.065933492966" version="1.1" width="109.49251334182918" xmlns="http://www.w3.org/2000/svg" xmlns:ev="http://www.w3.org/2001/xml-events" xmlns:xlink="http://www.w3.org/1999/xlink"><defs /><rect fill="white" height="109.065933492966" width="109.49251334182918" x="0" y="0" /><path d="M25.000000298023224,25 m0.0,0.0 m5.017912983894348,5.0686269998550415 l0.6259926408529282,0.22849254310131073 4.613940119743347,2.4883994460105896 l2.253083437681198,1.8079954385757446 1.1923252791166306,1.366056650876999 m-12.630424499511719,10.67651629447937 l5.097518563270569,2.3204416036605835 3.587997853755951,2.874877154827118 m-9.758346676826477,31.083385944366455 l1.2211929261684418,-0.055548534728586674 0.9790538251399994,-0.7757549732923508 l3.235286772251129,-5.847730040550232 3.4291377663612366,-7.209937572479248 m13.089509010314941,-27.948172092437744 l3.826638162136078,0.4514411836862564 24.271647930145264,-2.013656198978424 l3.6975201964378357,0.08600180968642235 m-18.24021339416504,-11.768240928649902 l0.8935003727674484,1.4402379095554352 0.1956445723772049,1.319168359041214 l0.10032634250819683,24.178221225738525 m-19.852609634399414,2.2072450816631317 l4.479923844337463,0.2558649703860283 17.754886150360107,-1.8191926181316376 l11.162893772125244,-0.8482304960489273 5.551704168319702,-0.1764841377735138 l3.696470558643341,0.37339989095926285 m-24.745779037475586,4.112166166305542 l-0.050409198738634586,2.090374529361725 -0.975554808974266,1.9392123818397522 l-4.0344855189323425,6.657426357269287 -7.372996211051941,10.396586656570435 l-0.9291914105415344,2.0021966099739075 0.31614549458026886,0.5038733035326004 l0.9118707478046417,0.1331415306776762 1.5648065507411957,-0.26715783402323723 l26.442852020263672,-5.819036960601807 m-4.464877545833588,-7.0654237270355225 l2.632388174533844,2.8082188963890076 2.7555572986602783,3.9638033509254456 l2.3076698184013367,4.232885837554932 1.2903006374835968,3.6142414808273315 " fill="none" stroke="black" stroke-width="1" /></svg>