<?xml version="1.0" encoding="utf-8" ?>
<svg baseProfile="full" height="99.21412344362939" version="1.1" width="105.85663086267019" xmlns="http://www.w3.org/2000/svg" xmlns:ev="http://www.w3.org/2001/xml-events" xmlns:xlink="http://www.w3.org/1999/xlink"><defs /><rect fill="white" height="99.21412344362939" width="105.85663086267019" x="0" y="0" /><path d="M25,25 m0.0,0.0 m5.036236283655233,3.186167906599143 l0.5389879316076429,0.2334746887050371 3.9825260593248584,2.3270588737326845 l1.665413193650468,1.393930196943262 0.886118800105993,1.1358989706071314 m-11.895530123828403,10.412258559145705 l4.8305910546853985,2.3058535628482155 2.1682160439566474,1.5843099540516865 l0.8602012143513408,0.9803515829296069 m-7.514797887577545,25.609916317555115 l1.3035294694782678,0.04490283051180118 1.5375394068649675,-0.9101784633052125 l3.103008713495029,-5.027108648079384 3.3268204321469454,-6.202841902871873 m25.103492370854443,-34.26268757734583 l0.935921370494256,1.1943472192040754 0.3230838989062341,1.100532388841096 l-0.024658237671700892,6.594947247945778 m-18.532764198916635,2.429349266052863 l1.7061734156286394,0.3498200221544477 2.3052532033546242,0.001374635717635133 l27.576417585281792,-2.925789226287511 4.329365411719419,-0.16699936012099076 l2.3054854511022635,0.3427741701543073 m-33.753246819750046,3.5006596486745636 l0.675327294918186,0.9337348752357228 0.2772253202434363,1.125356465460939 l0.23073595026687313,16.03995015605937 0.52627169429615,1.0784900306406635 l0.7551942845597038,0.6990694474364385 1.3635299943577994,0.9625776401955094 l3.3064934804723887,0.9975813609983822 14.597455840605935,0.2821714088725748 l4.498467399364547,-0.431444698048928 2.888218716423126,-0.8192965184891499 m-31.044109396784332,-24.528421156538343 l2.6099028548293557,0.3488134175848026 17.691927708911752,-2.2038828314508745 l1.728944022690824,-0.1439437579211734 1.460249016533885,0.2731361673329168 l0.7461367174421103,0.8409640780271682 -0.02957762790358134,1.8228668095110014 l-2.6984657274512425,5.6791784399670115 -2.7941792778902195,4.203450222290177 m-0.9173164257096302,-9.990732378875032 l0.6017342040611582,1.1468505420677724 0.14962135336743923,1.3074532261746474 l-0.9554732117121585,9.459608787407106 -0.9030640985362028,9.442302022957833 l-0.44293747085242685,1.0014568403505477 -0.5562270801577142,0.3853414022713287 l-1.3403980668970408,0.014995623336809418 -1.6781629596148435,-0.8716688823621708 " fill="none" stroke="black" stroke-width="1" /></svg>