<?xml version="1.0" encoding="utf-8" ?>
<svg baseProfile="full" height="109.0082153193806" version="1.1" width="101.99911054242992" xmlns="http://www.w3.org/2000/svg" xmlns:ev="http://www.w3.org/2001/xml-events" xmlns:xlink="http://www.w3.org/1999/xlink"><defs /><rect fill="white" height="109.0082153193806" width="101.99911054242992" x="0" y="0" /><path d="M25.292184920585882,25 m0.0,0.0 m4.232644501802668,12.712019661328128 l0.5153619417405231,0.18785020007773992 3.9338876826263767,1.9212360753962134 l1.9475863899799641,1.3378704849329033 0.7747393291676654,0.8101384234682097 m-11.696404765903083,8.405051116923596 l4.638587340056639,1.6982660226547313 2.202340227428524,1.221615843460574 l0.8389596233472754,0.7376433039508551 m-6.967998585487185,20.185200140116272 l1.0922106201378685,0.03320229446645581 0.8632211544052184,-0.7785551839699401 l2.530936375386863,-4.211304727677252 2.6620127182449593,-5.2638279155018575 m21.2636796827267,-26.947200047945216 l0.6983967086028267,0.9355615203490852 0.16450572033185126,0.9411816042662289 l-0.024568731528713465,6.677400428193511 m-14.03566480877914,1.219910262200463 l1.6766766331217748,0.20381414750960009 1.9082638650459205,-0.0531496705390435 l21.37532922354139,-2.1059111079633706 2.788179664248912,-0.10652524881787623 l2.069868799045187,0.12992192630153696 m-24.70364483221145,5.883611256160142 l2.3498491041807523,3.1686151429738185 1.195758839164113,3.0092038279547864 l0.40494780364066957,2.540117913120278 m13.861109001915262,-11.67654036104371 l0.28543165454838,0.932014329042857 -0.2871827935318207,1.4075343220894971 l-4.176664454570678,10.302113631159715 m-21.520672585479925,3.1846914244914917 l1.8229954423258858,0.2264634379303592 2.2047846496571846,-0.023449064078775714 l14.573824480539011,-1.2621056420114765 12.007959682929966,-0.7251264669922802 l5.156595344098782,-0.045679792918533 3.079082975346897,0.31013128489094305 m-33.42473082395509,8.654205531851854 l0.6368818789884662,0.6744563738991091 0.43569942167317566,0.8245512149553031 l2.0031488683250473,11.731997402723673 m-1.6605396898255775,-12.23865581322639 l20.427980747465575,-1.6769277170254586 1.6873522155514065,0.024486100304629197 l1.4636807660036415,0.21649245838017045 0.8396285077615462,0.7354547773148886 l0.15578445236241556,0.5512049257368221 -2.81769163988812,9.21039819786179 m-19.36905353915291,1.9178437484174455 l21.240949498027383,-1.3234976840878427 " fill="none" stroke="black" stroke-width="1" /></svg>