<?xml version="1.0" encoding="utf-8" ?>
<svg baseProfile="full" height="100.21779495043242" version="1.1" width="112.80239975496168" xmlns="http://www.w3.org/2000/svg" xmlns:ev="http://www.w3.org/2001/xml-events" xmlns:xlink="http://www.w3.org/1999/xlink"><defs /><rect fill="white" height="100.21779495043242" width="112.80239975496168" x="0" y="0" /><path d="M25,25 m0.0,0.0 m29.827668693651592,4.008154044006527 l0.48752079778274865,0.4240974124792031 0.7625192380806404,0.9905776504885087 l0.35845059332481116,1.6738990524270028 -0.6193177560696226,41.740187141092136 l-0.4598332151199814,0.9241133972726395 -0.650713479891096,0.44202779979895895 l-0.864404200525572,0.014738452867452376 -1.9342065063499785,-0.9780716937180647 l-2.754930183215981,-1.9374458715012488 m-7.984606746812474,-36.27782967289201 l-1.1966830013314764,3.9024858387014927 -2.1377044808415677,4.155270909133493 l-2.0742825544238563,3.1377956222844454 -2.5049339685591576,2.6256673067648877 m33.27992304295272,-13.309934025939357 l2.0795693202250556,2.485271816345184 2.535158697303302,4.0527281914634345 l1.7545773568966343,3.8415577408966666 0.9209166950445613,3.067306326802071 m5.340757755351695,-15.78967037402613 l2.462393716562657,2.439161910014576 2.8181738469589535,4.020565082863878 l2.305050803514091,4.402297221663371 1.0513352904529871,3.1347571923166555 " fill="none" stroke="black" stroke-width="1" /></svg>