<?xml version="1.0" encoding="utf-8" ?>
<svg baseProfile="full" height="99.2031644436315" version="1.1" width="109.24550376549307" xmlns="http://www.w3.org/2000/svg" xmlns:ev="http://www.w3.org/2001/xml-events" xmlns:xlink="http://www.w3.org/1999/xlink"><defs /><rect fill="white" height="99.2031644436315" width="109.24550376549307" x="0" y="0" /><path d="M25,25 m0.0,0.0 m11.3570062546625,2.3921436559590212 l0.5045116381834006,0.20298506674129502 3.6510310686652967,2.312946416504817 l1.417070562919245,1.3404545814695752 0.764503347589128,1.0931673067054297 m-10.92137517609998,8.174265120383499 l2.240351496011921,1.0555072309842195 2.299354184435668,1.4039249987220528 l1.86401516269528,1.4615051426537964 0.7289247757143709,0.9191284055146767 m-7.013259104444037,24.203161228644998 l1.0770986617716478,0.09931839656057778 0.8487244800778921,-0.7517941053383757 l2.470811141011489,-4.826180604452448 2.535847680254154,-5.734391547680365 m9.176762148611587,-18.565679558036432 l2.8779772278679565,0.7233830391902002 2.720660641494135,-1.8029469769500779 l6.468116942773757,-2.198560996234175 4.735215882049843,-1.2154380817131532 l5.3722946320858656,-0.4956535511402989 5.8354243262855805,-0.050893659437447863 l1.4629635921066138,0.3390864128791872 1.4484019816763385,0.8084816779122359 l0.5640215517362248,1.0863115501987612 0.031069165510864798,4.512178515955316 l-0.8028933855446759,6.262260000582957 -1.2094403429294547,5.707363515769273 l-0.5816672946051364,1.4323750466838894 -0.6606303193740002,0.7313522896752113 l-0.7202087474226554,0.22775874768255328 -0.7310360733360366,-0.1402967980252066 l-1.3800551436239235,-0.9567948334048065 -1.4521023125628378,-1.4740680949887168 m-16.07224911940128,-15.360411708208998 l0.7587645340059196,0.8630407476451359 0.316316195448268,1.3868881600578316 l0.30701714753002596,25.518989933679865 0.4986854654852219,5.028908727788 l1.1418071986910587,2.149127185167148 2.0519496829086292,0.9052147161588505 l4.2346134180698085,0.4350471413716265 9.335051437702926,-0.06194262493553078 l5.2197668850295775,-0.5508651405754617 2.2296941897123537,-0.7158535403470995 l1.3867376533079268,-1.1917607989438732 0.6762354340127016,-1.8166578687176118 l0.18162299674191046,-2.6455972381859243 " fill="none" stroke="black" stroke-width="1" /></svg>