<?xml version="1.0" encoding="utf-8" ?>
<svg baseProfile="full" height="110.26575067897973" version="1.1" width="106.43823834340519" xmlns="http://www.w3.org/2000/svg" xmlns:ev="http://www.w3.org/2001/xml-events" xmlns:xlink="http://www.w3.org/1999/xlink"><defs /><rect fill="white" height="110.26575067897973" width="106.43823834340519" x="0" y="0" /><path d="M25,25 m0.0,0.0 m10.59069343635284,6.020613525551182 l0.4888958709866645,0.20636817083285608 2.1329045643592806,1.166663211211788 l2.5307169321332768,1.6410377235969904 1.8344997694135192,1.6357342684165403 l0.9854845745513415,1.38648381272583 m-11.912951440061818,7.528103053671292 l2.182600586511571,1.0790403477104353 2.332432470334566,1.5499797523620769 l1.9576078157895476,1.6589567497295301 1.07999410311042,1.4002857983024088 m-9.02033777157276,21.910320418737374 l1.2911225085447855,0.5207073764459152 0.6370671275205134,-0.020799829264305993 l1.042437249007569,-0.6595444609745763 3.246087290678961,-5.481940363556325 l4.585230446800486,-8.273852607354561 m5.048014855328391,-16.76993728146917 l3.192374141063272,0.20016854894804495 25.507822016206354,-1.7404704477677952 l4.295196946118956,-0.10576607035467749 2.4103448502274527,0.22431134701295974 m-19.67778232166749,-13.55848740078638 l0.9257034959130878,1.120994837232722 0.3043425213144141,1.563005882151744 l-0.12378216603067882,25.186578329184492 m-12.839373788467391,1.065264478329276 l0.753164253764658,0.1396889724603054 1.2872766828925852,-0.010371308342876808 l20.398445547883775,-1.7537372421137059 m-2.110560726251701,-7.115450115475276 l0.7253847170752568,1.583473977664252 0.14014161605789896,2.513756355073841 l-1.137227374068292,5.686105765181699 -1.7540900435431444,5.970819606398057 l-2.268681275342407,5.914204183143434 -2.7410119788741696,5.287976026176377 l-3.508372236308116,4.706550488966699 -4.2547074591413985,4.102529018632127 l-4.263649654475228,2.7863857805891277 " fill="none" stroke="black" stroke-width="1" /></svg>