<?xml version="1.0" encoding="utf-8" ?>
<svg baseProfile="full" height="103.78982313063975" version="1.1" width="108.71266972588829" xmlns="http://www.w3.org/2000/svg" xmlns:ev="http://www.w3.org/2001/xml-events" xmlns:xlink="http://www.w3.org/1999/xlink"><defs /><rect fill="white" height="103.78982313063975" width="108.71266972588829" x="0" y="0" /><path d="M25.120084036712086,25 m0.0,0.0 m5.953607275943719,4.044795640314442 l0.5245226087703625,0.24072205589457665 3.6697041261723644,2.5078372402997844 l1.4308990595652398,1.4240897389744325 0.7955384255248502,1.1858908560447299 m-11.629002185352771,8.133184239403832 l4.281372029176853,2.2777915132023074 2.0359050408862864,1.6177758586434543 l0.8065059283067857,1.013291433419388 m-7.989136345705777,28.145776370537078 l0.6594806089572034,-0.22111874071707133 1.0700560183059398,-0.012746930645256751 l1.2102378936094687,-1.0293232502552925 0.47586577134631525,-0.6201827366048425 l3.2988193496472284,-7.169759907829468 3.4883526673124154,-8.915203243186884 m9.387547749706515,-15.125631690204619 l0.5850262500887267,1.020043390837554 0.31811145798799334,1.1964518251384326 l0.09841805517058602,27.351714845491436 m0.5859360671612552,-30.201302106186304 l29.044383665052084,-2.6870913907908975 2.3544096292247505,0.08405784301963586 l1.7832971622976068,0.4810690019438259 0.9334623977637311,1.779552375853252 l-0.035068859419643925,21.033325914544154 -0.46700085743619646,10.791740104821725 m-18.02560740158204,-15.912614722087454 l0.21732037059608772,0.3207443920822822 0.22112784359962212,0.923669126629125 l-1.4637979213456354,4.83709266984982 -2.9229029041281054,4.029654531748004 l-3.1316895829456457,3.097582968074393 m16.865050883816814,-14.348301750635178 l0.694625235848056,1.51830442205813 0.11118195651443731,8.065171830251256 l0.24532887722790261,1.1751168238646372 0.5043017576613931,0.6979686581681754 l1.4633034191036467,0.5075154977795031 2.7831421510447494,0.09393667168249795 l2.277254114719062,-0.276655978851825 1.6446568532334704,-0.70903859406827 m-27.858867903825253,11.422926332131278 l30.29690694957376,-1.0982769154742262 " fill="none" stroke="black" stroke-width="1" /></svg>