<?xml version="1.0" encoding="utf-8" ?>
<svg baseProfile="full" height="109.26547470434033" version="1.1" width="99.1938350321755" xmlns="http://www.w3.org/2000/svg" xmlns:ev="http://www.w3.org/2001/xml-events" xmlns:xlink="http://www.w3.org/1999/xlink"><defs /><rect fill="white" height="109.26547470434033" width="99.1938350321755" x="0" y="0" /><path d="M25,25 m0.0,0.0 m9.409467213088657,12.052123891391169 l0.47892895518204315,0.2139074793739039 3.477603031841366,2.2577902409202255 l1.6101174391520456,2.2008726509534524 m-8.910040437899031,9.538840228527391 l3.8261495017179827,2.1366644015232144 1.9846501283798859,1.717375145683119 m-5.975339610644637,23.173962020733445 l1.064461351129797,0.56932496159469 0.5313690940512552,-0.012944183119833466 l0.8366002631733203,-0.6995774744415902 2.184241349403334,-4.265541161071245 l2.3542424140226594,-5.242807496700344 m18.294792570113547,-23.63094353903783 l10.894092439838307,-1.1987171006792086 2.471607863547173,-0.05056326157847979 m-14.186377341072728,-5.959194580438238 l0.7041338429828076,0.8989822552866045 0.34301352250685674,0.9571423157675677 l0.05994070336202349,13.517041521837475 m-10.256546923302844,-10.270637846423584 l0.671485425106022,0.6998571386279547 0.3836724491558789,1.0554709765538057 l-0.03900939711962857,9.685696820705607 m-7.628338749524032,0.4085923856345128 l2.2357291449223418,0.3534593814923416 2.4847914089077907,-0.14765644838656575 l26.416796334769767,-2.54153823872901 3.471601045383538,0.29931385430171575 m-17.32483323355418,2.029659801241937 l0.570369271433318,0.97114402118516 0.1511907430484926,0.9554910578550135 l-0.6623800120438025,11.289518223650527 -1.0727748472733345,-0.021618526034296443 l-1.3836498094785468,-1.6901877369912979 m-5.808187933416484,-6.668615677222263 l-0.06873526757472509,1.027010359591761 -0.3336097531597427,0.6501077475201805 l-2.108872395767504,2.7491017321960953 -3.2453617627977054,3.1419039674729987 l-3.3847324484132426,2.5138773717011573 m25.86158972417392,-11.759661947486478 l2.4797904713645726,1.473433667143778 2.4135239173944742,1.9414202090941641 l1.9179441392243737,2.0696574340138905 0.8962379956473296,1.5251644150091432 m-7.679003419686398,-2.4495585341955826 l0.07626764687230175,0.9570318439495398 -0.26575069068882584,1.1421626746616724 l-1.7429085955620167,2.6182720578477396 -3.320465864435812,3.5753539643509606 l-4.403539878768318,3.708724858551894 -4.090743992236794,2.9056825778994186 l-4.409721503998038,2.684758425287928 -4.653424535538154,2.3251817181191954 l-4.878712841438514,1.8841626576238302 " fill="none" stroke="black" stroke-width="1" /></svg>