<?xml version="1.0" encoding="utf-8" ?>
<svg baseProfile="full" height="104.54055356174392" version="1.1" width="115.56294089682162" xmlns="http://www.w3.org/2000/svg" xmlns:ev="http://www.w3.org/2001/xml-events" xmlns:xlink="http://www.w3.org/1999/xlink"><defs /><rect fill="white" height="104.54055356174392" width="115.56294089682162" x="0" y="0" /><path d="M25,25 m0.0,0.0 m7.864331547839735,3.160419594404363 l0.5105276584849987,0.2228073998822786 3.9820492804111605,2.4429786297010447 l1.7389335168886773,1.4081990750416389 0.9162327255612788,1.130683132429706 m-11.422006141868422,9.8882468140952 l4.390436549782865,0.8921914151747147 3.479169535267567,1.181051002700511 l2.3789690454010604,1.2093977276418104 0.9688196085895086,0.7913880081567478 m-10.219543383761017,23.353076777944064 l1.4615727057147068,0.10582795270924229 1.0119341401570496,-0.7732976413998264 l3.1419373818592176,-4.9587085359482135 3.198300392393183,-6.05544622834192 m26.41909994092064,-32.29429161811957 l0.19292691786919922,1.3779796426875448 -0.4268121929945146,2.932655434191463 l-1.815980903219266,8.04019891182069 -2.6222645257963584,7.594439585015953 l-2.761876507162048,12.08513850774232 -0.08272136394894501,0.8468248240247502 l0.183955459228713,0.4713271759847216 1.5720524562693121,0.22008260331443555 l2.464928619392128,0.1724150834846836 3.191643695208699,0.6977806859951964 l3.7302927170835574,1.0739904059754921 4.206030831321373,1.7700434389313116 l3.364519276658581,2.230710006550459 3.724788722588628,2.8231462379866388 l2.5437487487812174,2.9385919387875625 1.7535771565757274,2.798707148800076 m-5.969896750436785,-34.39233318387177 l-0.19381027648791732,3.741007274527746 -1.969801944110438,8.52618153290493 l-2.6186680373813584,6.6070334694051365 -3.0488913768104795,5.349571742315804 l-4.08152165257518,4.940767425458077 -3.879404746034049,3.3757528880044974 l-6.299923822358762,4.015668770069444 -5.684675463679648,2.5983485055649544 m0.02327893259692515,-31.09906193367442 l1.914343484405066,0.45171989231010307 2.6422098631159274,-0.12057282404647833 l28.701023569077535,-1.63989698035939 4.217623071130277,-0.036921091913390935 l2.7714824348722944,0.46398444349502593 " fill="none" stroke="black" stroke-width="1" /></svg>