<?xml version="1.0" encoding="utf-8" ?>
<svg baseProfile="full" height="101.76549756052819" version="1.1" width="112.04614197001361" xmlns="http://www.w3.org/2000/svg" xmlns:ev="http://www.w3.org/2001/xml-events" xmlns:xlink="http://www.w3.org/1999/xlink"><defs /><rect fill="white" height="101.76549756052819" width="112.04614197001361" x="0" y="0" /><path d="M25,25 m0.0,0.0 m30.142707926164352,5.553278275676832 l0.42221404009001545,0.4218369441421633 0.6841118717017233,0.9585458408699591 l0.3395778136477593,1.7111861132628658 -0.6205760166061569,41.7383048128836 l-0.4049825036695807,0.9045236137076035 -0.6045231662426814,0.4380619252060339 l-0.7985544274191645,0.03976003477913379 -1.825208200166061,-0.9132571333130015 l-2.865928945073597,-2.006579535428863 m-17.30428847026951,-36.35793704440121 l2.569454535527685,1.2310021592555629 2.8513387157092343,1.7156707467548586 l2.278727782853925,1.7908870668723467 0.9582036895837256,1.1855396579769446 m-14.25970497594615,11.008631943476962 l2.122900052648651,0.3671042328749091 1.818625445296694,-0.20980496985250252 l11.931378255541292,-2.6838225654494727 1.0972513751255222,0.09801710559658938 l0.8254666951756907,0.39256214475540185 0.38864352523183376,0.5594690380748796 l-0.33503130269343157,1.2424235895754168 -1.7778165223116549,3.2034657422727872 l-4.018577183227537,5.782014259879296 -4.270265709850263,4.363689529755159 l-5.051906345481242,3.9117370544560917 m47.30818131141242,-33.78884959580226 l-0.10357195128837225,1.0552806618616144 -0.6120215358158025,0.8808649501063889 l-4.449365465767563,3.5958601705269158 -5.311143130427889,3.3920719449406875 l-7.148961507746608,3.5959208609002955 m0.05464403890454946,0.2974759931708484 l11.31502102838628,9.474636131209149 6.5890819321248415,5.3755422067023595 l6.000414763223577,4.093539309278189 4.1106245316670815,1.7353775952670798 " fill="none" stroke="black" stroke-width="1" /></svg>