<?xml version="1.0" encoding="utf-8" ?>
<svg baseProfile="full" height="99.87057176476267" version="1.1" width="110.18414290036074" xmlns="http://www.w3.org/2000/svg" xmlns:ev="http://www.w3.org/2001/xml-events" xmlns:xlink="http://www.w3.org/1999/xlink"><defs /><rect fill="white" height="99.87057176476267" width="110.18414290036074" x="0" y="0" /><path d="M25,25 m0.0,0.0 m31.309757578935166,1.243107044029533 l0.36948446466285856,0.41771738435538036 0.7444148508697842,1.0438972850194244 l0.2788535158227205,1.3951544495251025 -0.06446965072709425,43.741552624808634 l-0.2066967110708497,1.1961664320349148 -0.45524564168363496,0.6411047595211202 l-0.6334144462561422,0.1918717854685656 -1.5677843529113737,-0.6626864434416092 l-2.926137184212582,-1.9288845515660524 m-15.695735051566707,-38.37728232134497 l2.280342000914328,1.209057060019416 2.5904919053124273,1.7920963535825374 l2.0714519907507687,1.8536018752556767 0.8689709534631426,1.217545648973664 m-13.764845940558446,10.970871282364095 l2.0646921779388188,0.3410358339004236 1.7523195787757906,-0.18903487735691754 l11.59854439840234,-3.056603561073792 1.2040933223241248,0.1868689176944338 l0.680658503671552,0.4527787242536622 0.32812304402862547,0.623578164085812 l-0.2969531956717996,1.2678140351798854 -1.7654736211791635,3.3639809693449823 l-3.9686799338312304,5.770697279061395 -4.288767355875871,4.698067290307223 l-4.892194031079402,4.11246981409727 m43.6417684942542,-34.85260415440074 l-0.10557350738568425,1.1484852426260241 -0.5761545959541633,0.9336853886455861 l-4.096146368495492,3.569377921309261 -5.203632412306896,3.535678173559616 l-6.941395717251649,3.6887293027925083 m0.04256566777078205,0.3068272619917993 l10.332123176168547,10.069051122118903 6.18103377104921,5.950228034550583 l5.4990731063443405,4.481125257183182 3.7946801169194075,1.8590977376569013 " fill="none" stroke="black" stroke-width="1" /></svg>