<?xml version="1.0" encoding="utf-8" ?>
<svg baseProfile="full" height="107.25882332932099" version="1.1" width="101.63413018538745" xmlns="http://www.w3.org/2000/svg" xmlns:ev="http://www.w3.org/2001/xml-events" xmlns:xlink="http://www.w3.org/1999/xlink"><defs /><rect fill="white" height="107.25882332932099" width="101.63413018538745" x="0" y="0" /><path d="M25,25 m0.0,0.0 m11.068359035685594,3.309912784126426 l0.49204518786864393,0.22086565094131802 3.5925139989951997,2.27742148309264 l1.4332821978354893,1.2958129035348767 0.7795057591747098,1.0605888968270676 m-10.80954743008506,8.873439942034897 l1.7640079443153507,0.8174837283968125 2.223464337318445,1.4489690450157715 l1.6482654994278603,1.3479483597606192 0.7327226147360094,0.9302678814380089 m-5.960974636860455,23.145081207744695 l1.1607515685979453,0.1354812856827475 0.9016659115393867,-0.7441087767012713 l2.490265126704155,-4.371210555537684 2.610427017692233,-5.470438772150521 m20.96513559594486,-32.07829680677171 l0.6391613974081845,0.9293235594027267 0.2518553029768013,1.296243898962407 l0.022543079074742792,23.289090594233528 m-13.548873649481509,-13.627128598183923 l1.8091255200372873,0.9039416384389072 2.180395901303233,1.7397244399471385 l1.4078655383394771,1.5818116405407312 0.6695279265871182,1.2623737094315994 m23.110639440251727,-9.16561201665498 l-0.2000229162191943,1.438990278063324 -1.2006280276039978,2.0528055194322534 l-1.934639620483143,2.2095667048533554 -2.3272765409428,2.1345458252253455 m-20.680114750316005,7.437390579534992 l0.5590002448460188,0.9378021857229276 0.20475471786338803,0.9750994559199412 l0.09648440817067443,27.916684892015095 m0.7735085847914885,-28.863600386206873 l17.363918942649644,-2.322158690496752 1.5120730108679306,0.13838278200100862 l0.9132127949257621,0.7164022193786054 0.4932872787916269,1.1260720148384997 l0.018059652085161842,29.54140310292764 -0.32708578711905384,1.0250673753654935 l-0.5398482146542231,0.3853823471933175 -0.680971849033891,-0.12927205991358706 l-2.9130843095814822,-2.67326803711379 m-14.969887937448782,-19.7939744176817 l18.6387924552574,-1.5970598360189787 m-18.54747584633265,9.685112997380193 l18.55151190510935,-1.4843307545744961 " fill="none" stroke="black" stroke-width="1" /></svg>