<?xml version="1.0" encoding="utf-8" ?>
<svg baseProfile="full" height="100.75008742965487" version="1.1" width="96.92809305494468" xmlns="http://www.w3.org/2000/svg" xmlns:ev="http://www.w3.org/2001/xml-events" xmlns:xlink="http://www.w3.org/1999/xlink"><defs /><rect fill="white" height="100.75008742965487" width="96.92809305494468" x="0" y="0" /><path d="M25,25 m0.0,0.0 m7.1913999340199775,21.463295858338586 l0.4199030865082096,0.12344669245182777 1.5878353885421752,0.20985090687699035 l2.1545591560701727,-0.0842627687369263 30.263294515936092,-2.2509181788989943 l2.7958676805665186,0.24617537792314811 m-19.317733192932337,-9.41789878413956 l0.7732104447107929,1.044681622581598 0.23417543312206196,1.5122790337671121 l-0.01156566519489254,35.266154698640484 -0.1175259464914948,1.534163799389719 l-0.3260898563073551,0.8557317321499713 -0.49617825060001064,0.24738743931092133 l-1.2933929983646388,-0.6796556582720966 -1.6197202512504985,-1.7223121612194476 m-8.068832186740572,-23.815386269660376 l2.682982059697708,1.1080501079455687 1.8406065440835202,1.027573003925723 l1.4611938952610444,0.8758487526192157 0.5981630554011769,0.6091971698590853 m-9.752484939331051,13.26776221807828 l1.1978088552401613,0.28290883560457863 0.9689680756560143,-0.4179332799709613 l10.738222744830077,-9.300657313596634 m17.184675622488367,-11.197536085794141 l-0.2334843132613138,1.200474543984007 -1.8293736825253277,1.9028514136158894 l-2.7104818378933353,2.0737947869999527 -3.0062107635390882,1.8696346661864407 m-2.0944580305352423,2.28025955824541 l2.5268793847281303,1.5425744866322406 9.346314040212977,7.170850490748881 l2.2451295555613546,1.3375398355066195 1.5944354972753194,0.9107858745156545 m-11.384694721492673,-33.69391133192541 l1.979396662051112,0.8714200010483408 1.9426209464866844,1.3018883027874206 l1.517688046761142,1.322963767411639 0.6190035102307403,0.8318144046969045 " fill="none" stroke="black" stroke-width="1" /></svg>