<?xml version="1.0" encoding="utf-8" ?>
<svg baseProfile="full" height="106.05101725880905" version="1.1" width="99.2281602895813" xmlns="http://www.w3.org/2000/svg" xmlns:ev="http://www.w3.org/2001/xml-events" xmlns:xlink="http://www.w3.org/1999/xlink"><defs /><rect fill="white" height="106.05101725880905" width="99.2281602895813" x="0" y="0" /><path d="M25,25 m0.0,0.0 m8.5633134586309,3.9902083618807054 l0.5472686312326198,0.25337021046159525 3.735560937477281,2.559705394201399 l1.6045463989700586,1.631327644648124 0.8759768695688552,1.2404319736952407 m-10.082927125137958,11.315687959405349 l4.146794199981238,2.5353825426320844 1.8852033922092066,1.735252276039661 l0.7645675390610649,1.121326498633689 m-7.1617572920278025,28.99712395646379 l1.1834727204802864,0.6712004407474134 0.5703273347755152,-0.028270351915091647 l0.9378392182738405,-0.8376117486528236 2.450979021395643,-5.3176870699716545 l2.6164869600120615,-6.609695682946259 m9.022292911873278,-37.4659565226308 l1.6021802612800689,0.2540418772890206 1.8850790793555012,-0.14543593072780003 l20.590395598692275,-2.925100157361891 2.1283324027709134,-0.12312563829865392 l1.2997121616532048,0.2991748595672133 m-27.040217720167277,12.295189006342605 l0.54946462125293,0.9674572876337935 0.3830616480456166,1.7215155030142382 l1.5808980872050153,8.155289898020408 m-1.341236948784751,-10.198548469584075 l7.251184886806878,-2.0515411503105994 1.5560575507582537,-0.24342323083696096 l1.0489840665364256,0.7701484236902234 0.06886812139762716,0.6579636648862177 l-1.398416285626221,7.96077908582499 m-8.191742615922642,1.7387966646703679 l9.05258304507068,-1.4229446506076577 m8.241184471666909,-18.568164277738315 l0.6516655282537073,2.5220848465533807 0.03669859443996495,14.887681975162486 m-21.459612779717332,7.334016476748508 l4.481911970719706,0.38884513561612905 20.383624874680965,-2.6463635737774847 l2.1171888912587753,-0.3508099751048936 2.0903656011780214,0.28187126210457186 m-25.531728085563284,11.792907094137188 l0.5739036114921885,1.0551473991219344 0.3508718430635897,1.9683512014957352 l1.2266199665865314,13.579813771419213 m-0.930866631503961,-15.11513240179164 l16.54813048355258,-2.477809219340744 1.624835659765808,-0.30698167659649683 l1.250850691799073,0.24433913426871334 0.7275793583665902,1.0248135502970241 l0.13410477393307385,1.2947286463104313 -2.394159636877969,11.678582592990079 m-16.890207283589547,2.4009938799100072 l18.153785709525025,-1.8098533444477423 " fill="none" stroke="black" stroke-width="1" /></svg>