<?xml version="1.0" encoding="utf-8" ?>
<svg baseProfile="full" height="104.35732131098251" version="1.1" width="92.90487295904654" xmlns="http://www.w3.org/2000/svg" xmlns:ev="http://www.w3.org/2001/xml-events" xmlns:xlink="http://www.w3.org/1999/xlink"><defs /><rect fill="white" height="104.35732131098251" width="92.90487295904654" x="0" y="0" /><path d="M25,25 m0.0,0.0 m13.483585431056554,4.756791236843603 l0.3932453417888196,0.20364097826463456 2.362953613094662,1.873011496451244 l1.201940022690537,2.0662088431049273 m-7.798596578518123,5.094601036668445 l2.856487446003294,2.080778068855069 1.4388095930218854,1.5518229387584936 l0.5963120913967569,0.9492885167561251 m-4.69679453497348,16.73568173549432 l0.5780968901947542,0.39208134008989187 0.8689802279463049,-0.4067201198979911 l2.0861905460494876,-4.022753374834531 2.154563453231917,-4.857774170868263 m11.457435115926291,-20.81730374301755 l-0.10301359412152254,1.5070878059939625 -0.312866249385965,1.4440318767898264 l-1.74495064872982,4.340314014347026 -2.31982478909694,4.42005820257368 l-3.2775828286690736,4.988176931075482 m5.958210532001991,-8.297578367433342 l1.2073529929543008,0.8688263222198052 1.111866072558167,1.5227351705528662 l1.0532841127809263,1.855242508823172 0.7433401589975991,1.7751867642659758 m8.379796312135483,-11.664029740516018 l-0.08320482158855454,1.0158915282524354 -0.35602325999200163,1.143563686559337 l-1.7581895421478413,3.925358663826611 -2.206769871648712,3.4135257970680297 l-2.527757890379788,3.0254824895997965 m6.0597750986632155,-5.738170777716297 l1.7034537777697223,1.0365338137703148 1.8583433337380508,1.6854918558891687 l1.4364406595369463,1.7495981741534068 1.0999847447606985,1.6263345794649542 m-23.899693990201715,3.2425809290315946 l2.7690282996802607,1.5438624885175707 1.3362346090152781,1.357795074834685 l0.6114727938837523,1.0254849798447043 m-6.618660860375401,5.357987426969378 l1.5744946418603203,0.49222762541792076 1.5987941266180916,1.0756739088020733 l1.3480862292060813,1.2648051979828536 0.5573860090842678,1.1581197176307194 l0.13823505512605724,16.273659383264324 -1.073039333437942,0.3221084964580846 l-1.255256587576548,-2.086630354356213 m11.834428304803861,-14.731592448310519 l0.013795683749825106,0.38472242472399143 -0.3458358928452919,0.8702178356758001 l-2.22476387017598,2.9875363643087565 m-2.2503326764194918,-2.2716947771141407 l0.9995983995124709,2.1918216736956997 1.4471149738404678,2.5676897532235254 m-15.420328007833612,4.100209684167051 l1.3109167186415231,0.2107442186517306 1.6879982102135016,-0.08848473160393355 l18.99920937326837,-2.0323357752742974 1.5372745117298818,0.18956305360180564 " fill="none" stroke="black" stroke-width="1" /></svg>