<?xml version="1.0" encoding="utf-8" ?>
<svg baseProfile="full" height="109.49251435697079" version="1.1" width="109.39591273665428" xmlns="http://www.w3.org/2000/svg" xmlns:ev="http://www.w3.org/2001/xml-events" xmlns:xlink="http://www.w3.org/1999/xlink"><defs /><rect fill="white" height="109.49251435697079" width="109.39591273665428" x="0" y="0" /><path d="M25,25.00000008381903 m0.0,0.0 m10.093555450439453,2.570824921131134 l0.5821311101317406,0.28713226318359375 3.8339129090309143,2.815004587173462 l1.5672485530376434,1.6248179972171783 0.878739058971405,1.3805948197841644 m-13.547779321670532,7.986782193183899 l2.5244754552841187,1.334110051393509 2.612796127796173,1.882629245519638 l2.0807254314422607,1.957719773054123 0.837618038058281,1.2329165637493134 m-10.349633693695068,29.612882137298584 l1.4224308729171753,0.10521627031266689 1.12600177526474,-0.8231362700462341 l4.578382670879364,-7.040282487869263 2.854337692260742,-5.204138159751892 m12.80402421951294,-22.163891792297363 l0.7324911653995514,0.9407781809568405 0.446699820458889,1.2708194553852081 l2.2994714975357056,15.532673597335815 m-1.9623681902885437,-16.728761196136475 l25.935585498809814,-2.8100430965423584 5.694015026092529,-0.3598763048648834 l1.5608121454715729,0.3861803561449051 0.7902394235134125,1.0080023109912872 l-0.18477655947208405,1.7392419278621674 -4.188984036445618,11.5339195728302 m-27.049787044525146,2.6074326038360596 l28.591291904449463,-1.6478146612644196 m-16.41981601715088,-31.031734943389893 l0.6091279536485672,0.9615176171064377 0.35748500376939774,2.0188650488853455 l0.014649375807493925,56.512131690979004 " fill="none" stroke="black" stroke-width="1" /></svg>