<?xml version="1.0" encoding="utf-8" ?>
<svg baseProfile="full" height="101.53217942617468" version="1.1" width="108.3366328691528" xmlns="http://www.w3.org/2000/svg" xmlns:ev="http://www.w3.org/2001/xml-events" xmlns:xlink="http://www.w3.org/1999/xlink"><defs /><rect fill="white" height="101.53217942617468" width="108.3366328691528" x="0" y="0" /><path d="M25,25 m0.0,0.0 m11.32899156624807,10.020026705493407 l0.5122731069845805,0.19536041461048015 2.279793713132926,1.122180042407742 l2.282899764540733,1.456518796760718 1.8743380240080214,1.5240560492352309 l0.7314484230987708,0.9269616092096473 m-10.901624868588055,9.360572463119306 l2.3814136688636918,0.9474011094988674 2.438813347248455,1.3123226182024132 l2.029864887398184,1.4022912748933396 1.134060206308713,1.1897583419123374 m-7.450015620677262,19.903729167051864 l1.2289393862031006,0.19250658761487816 0.9842805349970447,-0.5780637496399427 l3.3926440301611054,-4.7391378806107465 3.9265252743912726,-6.8533655981800345 m7.5880354852554115,-27.890035946004843 l0.6162087974200051,0.7821373557626478 0.3234350662180742,0.8323852147076094 l2.2762660939363157,13.882765645305014 m-1.7813402222032781,-14.899968823961348 l20.90711437310587,-2.6295686351431895 1.2231449312660325,0.2439003229199313 l0.8160489698558859,0.9271650072799074 0.17345740874785912,1.2663989909699598 l-2.3462657246470777,12.233124609382102 m-18.18219758764909,1.943676956691608 l19.461740871073538,-1.6487834256157878 m-15.560586884443083,5.009766496340698 l-0.07379052072845338,2.2716049898578214 -1.0960473145831195,3.883510475790818 l-1.4824931748224626,3.660002900953512 -2.1251744956614376,3.8883275510400854 l-2.2276040841559324,3.130080463020922 -2.035662739066327,2.334731973754856 l-3.2231452218279424,2.9243921227023826 -2.86206426143102,1.9776352024597657 m22.210843917555366,-26.621715553440797 l0.5194827440596367,0.8002420821428963 0.2554928327256764,1.90003600877467 l-0.14757161937470767,19.148179631688762 0.3117943173300864,1.8594784942665634 l0.6617616871353454,1.2381571932776352 1.2388538212693323,0.8954266555426214 l2.82136495546471,0.6621691208867932 5.061974280531592,0.14383839324155065 l3.835784317492609,-0.42541700537388877 1.5168167811030957,-0.6818820644714931 l0.9279966067482559,-1.1884337165818226 0.4419761464555752,-1.799829793599455 l0.11633687067709185,-2.5283066360595665 " fill="none" stroke="black" stroke-width="1" /></svg>