<?xml version="1.0" encoding="utf-8" ?>
<svg baseProfile="full" height="96.90396258268062" version="1.1" width="100.67754583311903" xmlns="http://www.w3.org/2000/svg" xmlns:ev="http://www.w3.org/2001/xml-events" xmlns:xlink="http://www.w3.org/1999/xlink"><defs /><rect fill="white" height="96.90396258268062" width="100.67754583311903" x="0" y="0" /><path d="M25,25 m0.0,0.0 m29.41305886002328,6.713055508167242 l0.32723726847646223,0.4119299312157454 0.4738662376574082,1.397682844279096 l0.009265325374796721,3.9439235680433096 m-17.035799878016665,1.6174437592603204 l2.3597557409171013,0.23544160427478011 25.894075523527995,-0.10352551022466969 l4.220061901298782,0.12679390169246352 m-27.31265242082988,1.8260548450668992 l0.6108913220199063,2.7620606445843574 -0.09008086743144583,6.067689501582595 l-0.6435542193567046,5.6758536763767395 -0.9525096590935859,4.17699581872175 l-1.2150591504539154,3.8042144631665558 -1.3971688550377264,3.008317444466536 l-1.8865925921566535,2.785268092212623 -2.2829644843704946,2.454762489794277 m13.309642100863064,-28.203967479079104 l2.496023559551825,0.17621303400782706 14.693371663885443,-1.4755217330258907 l2.6677798748931703,-0.1392021817732607 1.3653327259357995,0.17733995558151017 l0.6827378884100318,0.6346627702264387 0.11992877200815122,0.9963508695598126 l-1.6410862373972284,8.703562350842711 m-21.871786456616675,-4.104855017339754 l2.3677347842102665,0.21487953574467095 22.794758877200778,-1.4088218666743948 l3.2012782276257368,-0.12037651949080035 m-26.124897428336848,7.090164121170475 l2.2440780781124725,0.17988242612607952 13.382860170235979,-1.0575640625248923 l4.577683524508623,-0.05685633014586309 m-20.51425025889636,5.602138852987549 l0.5393727505613334,0.573898744615879 0.5380438068711446,1.8976081522481738 l1.3417548012362903,7.879780978682882 m-1.164037630233896,-9.679603939869086 l16.77797874791466,-1.7530151566988632 2.1262988808348835,-0.05223518066598506 l0.48441201030012787,0.24842580684879312 0.2597780254302051,0.8018541060477475 l-2.1173677497226358,8.042454278041173 m-16.15172437532186,1.3625759611249955 l17.474166949556828,-1.100040050624787 " fill="none" stroke="black" stroke-width="1" /></svg>