<?xml version="1.0" encoding="utf-8" ?>
<svg baseProfile="full" height="109.49251271784306" version="1.1" width="109.39068268053234" xmlns="http://www.w3.org/2000/svg" xmlns:ev="http://www.w3.org/2001/xml-events" xmlns:xlink="http://www.w3.org/1999/xlink"><defs /><rect fill="white" height="109.49251271784306" width="109.39068268053234" x="0" y="0" /><path d="M25,25.000000175497856 m0.0,0.0 m27.718501091003418,-1.7549785624737524e-07 l0.46924687922000885,0.535639114677906 0.9017341583967209,1.9287508726119995 l0.173295009881258,1.5840363502502441 -0.19972765818238258,52.521514892578125 l-0.16344869509339333,1.6129188239574432 -0.4347379133105278,0.9369933605194092 l-0.6455426663160324,0.3726593032479286 -1.6819368302822113,-0.49475349485874176 l-3.2340899109840393,-2.78922438621521 m-16.600310802459717,-48.03647518157959 l2.8713706135749817,1.3998635113239288 2.969646155834198,1.9763882458209991 l2.3634889721870422,2.056659162044525 0.9516222029924393,1.297086775302887 m-15.027903318405151,14.043647050857544 l2.2374561429023743,0.48556361347436905 1.9257500767707825,-0.21688835695385933 l11.596887111663818,-4.137043058872223 0.9242400527000427,0.20574092864990234 l0.6646726280450821,0.5461418256163597 0.3162071108818054,0.8012080937623978 l-0.3325238451361656,1.543900966644287 -1.7858389019966125,3.989161252975464 l-4.163018465042114,7.099093794822693 -4.272359609603882,5.681975483894348 l-4.999298453330994,5.125706195831299 m47.43631839752197,-42.34699726104736 l-0.11330286972224712,1.3405981659889221 -0.6318516284227371,1.1560502648353577 l-4.472661316394806,4.241601526737213 -5.799006223678589,4.421273171901703 l-7.611851692199707,4.680465459823608 m0.0,0.3840997442603111 l11.146019697189331,12.507247924804688 6.910419464111328,7.261135578155518 l6.071326732635498,5.498178005218506 3.911890983581543,2.387870103120804 " fill="none" stroke="black" stroke-width="1" /></svg>