<?xml version="1.0" encoding="utf-8" ?>
<svg baseProfile="full" height="98.1632308830048" version="1.1" width="108.96809210499214" xmlns="http://www.w3.org/2000/svg" xmlns:ev="http://www.w3.org/2001/xml-events" xmlns:xlink="http://www.w3.org/1999/xlink"><defs /><rect fill="white" height="98.1632308830048" width="108.96809210499214" x="0" y="0" /><path d="M25,25 m0.0,0.0 m13.30041230289948,2.970726033788639 l0.5124653628055973,0.21585018776718945 3.9022189246907746,2.324415123825899 l1.4036370998858383,1.1291731462192238 0.778310949287487,0.9834740922862232 m-9.867486506953586,10.389024705621818 l4.164687968766303,2.0283572600600963 1.9055513132005908,1.3386333250017013 l0.7859526165766235,0.875468356003789 m-6.422309492713715,22.091096100018376 l1.0382300852021535,0.07862464452266582 0.8056877104532693,-0.6711453651698482 l2.657740070803624,-4.7005363364929735 2.7989350187538022,-5.766298037452874 m10.9883160733823,-29.06357141790588 l2.870092209672253,0.21997541045158295 13.65430313393651,-1.401334770421337 l3.3581341731296215,-0.17320833698184582 2.0542122637126896,0.15243144601996658 m-28.171444871821212,13.902544797561804 l3.3548523453050576,0.2957164331100349 22.804004888643757,-1.9606300885854444 l7.448099501407729,-0.31619965105112735 2.843488963965196,0.19537869352275603 m-20.259534812552825,-10.006838279777712 l0.30573475421479956,1.6345928781559804 -0.4164081407861465,1.6101274557341245 l-2.8013390575913912,6.718578810886314 -4.2849305756541165,9.239341939714498 l-0.05075248763889609,0.8470607098128674 0.40828787685409856,0.6116444955350612 l0.7069451612922639,0.2594922418811263 1.0624068636225048,0.0024884720340020007 l15.860860450745463,-1.5075473027378685 1.2999839351070943,0.5464652647877694 l0.36674531977626035,0.4922066405507161 0.1723523470032496,1.2483379071659524 l-1.2568913339706262,4.953408426449607 -2.2198248223364656,6.648620658688454 l-1.9488378215326843,4.282261404871376 -2.1681318490494714,3.4326732903303867 l-1.5973972726993173,1.5280892760713245 -1.4629691746289748,0.48426084113037515 l-1.375454742083868,-0.08479852726089443 -1.299431443043037,-0.7123923741590529 l-2.269117537538188,-2.3231838632731385 " fill="none" stroke="black" stroke-width="1" /></svg>