<?xml version="1.0" encoding="utf-8" ?>
<svg baseProfile="full" height="103.29693515396485" version="1.1" width="99.25654325715104" xmlns="http://www.w3.org/2000/svg" xmlns:ev="http://www.w3.org/2001/xml-events" xmlns:xlink="http://www.w3.org/1999/xlink"><defs /><rect fill="white" height="103.29693515396485" width="99.25654325715104" x="0" y="0" /><path d="M25,25 m0.0,0.0 m28.082903622537916,4.275818943382928 l0.3985866694231422,0.39068029341492727 0.5583294001113107,1.383461633112329 l-0.012193404135085404,4.224857006760947 m-20.34325286315581,1.5224865338681721 l3.1281838200864307,0.24882476451539062 30.331592246230972,-2.3665042725775023 l4.609816066131489,-0.07159904286831809 2.5025776999206832,0.30003644930680945 m-27.283266208909343,2.643217905604256 l0.3805581042557405,1.0202313482455145 -0.15762922979741475,2.259953833768753 l-0.698234595457782,4.108798163582974 -1.0294032380243527,3.820511163251965 l-1.0794896522187494,2.7151900524553056 -1.4271793504626773,2.578194256423186 l-1.7954230879415634,2.3035067971885534 -1.6957359401632262,1.5779881882870685 m17.481556004905354,-20.519090666640952 l0.5401719164454194,0.8674016493035199 0.10246957465188007,1.3931039153360318 l-0.10166396605886138,15.973438712110159 -0.3670453643880338,1.2352703010410742 l-0.6458179333560726,0.22571749149833342 -0.7589182487208838,-0.43227711386381623 l-1.9149278001896934,-1.8178148381949806 m-14.722937436202152,-10.594777593946123 l-0.07651912187068996,0.9606197436788991 -3.075455667051768,3.8854215218078636 l-2.751719694760103,2.720109970027634 -3.4089859443722537,2.7361708404937666 m34.30412514492556,-10.930242109291498 l2.587627443548014,1.3548978646711278 3.186518583514502,2.3719000380346857 l2.2432424253395253,2.2174240559962355 1.2211356823198138,1.8259746937908299 m-38.57891884003223,15.202376240306984 l-0.20862571428900223,2.1013573477346403 -0.781644825962729,3.147324669579886 l-2.0044761470749424,5.2776365336879145 m10.093393883949952,-13.181346682907261 l2.8239159792557915,4.980101758541246 2.996707964307986,3.426608056793439 l3.7484711671742343,2.730999168771098 3.64977047216031,1.6157371350628442 l4.326792539408281,1.040001888402038 3.769429547623533,0.44981779291199936 l4.420751039221674,0.09741875150397786 2.802354816816853,-0.3537275476103531 l0.8617023498508021,-0.8213858068802582 -0.10223820072344314,-0.6026754353372014 l-0.47204625510470455,-0.7390919440011169 -2.1396747596550156,-1.7377375971859292 l-1.5362523000287127,-0.9806653342792239 m-14.893382807028907,-9.77459915210102 l1.4994190052372816,2.7348405855237794 1.096457478340945,0.7918638433537202 l0.5510364667602599,-0.1890702450684422 0.5289351083498328,-0.6888442979004495 l0.5078829736408125,-1.2660806159496987 m10.292359364628645,-3.848456434570672 l2.0144914260829476,1.1025724373535088 1.7552440120039663,1.3233477182123434 l1.601876746039836,1.6649432109173263 1.6203105244932796,2.434436008511938 " fill="none" stroke="black" stroke-width="1" /></svg>