<?xml version="1.0" encoding="utf-8" ?>
<svg baseProfile="full" height="109.38486993312836" version="1.1" width="109.49251383543015" xmlns="http://www.w3.org/2000/svg" xmlns:ev="http://www.w3.org/2001/xml-events" xmlns:xlink="http://www.w3.org/1999/xlink"><defs /><rect fill="white" height="109.38486993312836" width="109.49251383543015" x="0" y="0" /><path d="M25.000000521540642,25 m0.0,0.0 m4.57140177488327,2.6178401708602905 l0.6235434859991074,0.2573098987340927 2.7466627955436707,1.4836834371089935 l2.767733335494995,1.9306279718875885 2.277397960424423,2.0038388669490814 l1.2754786014556885,1.704566478729248 m-14.262218475341797,9.531001448631287 l2.729877531528473,1.2819068133831024 2.857729196548462,1.8092046678066254 l2.3956069350242615,1.9313420355319977 1.3429756462574005,1.6479618847370148 m-9.251013994216919,27.633047103881836 l1.9424128532409668,0.17851879820227623 1.0049550235271454,-0.7562161237001419 l3.3237797021865845,-5.191553235054016 3.521985113620758,-6.503637433052063 m8.542474508285522,-16.52497410774231 l3.669121265411377,0.36896783858537674 29.744739532470703,-2.6893436908721924 l5.036202669143677,-0.25595951825380325 2.6316678524017334,0.2651667036116123 m-22.05615520477295,-22.581844329833984 l0.8078209310770035,1.2235166132450104 0.39183512330055237,2.0309802889823914 l0.0073155207792297006,55.98891735076904 " fill="none" stroke="black" stroke-width="1" /></svg>