<?xml version="1.0" encoding="utf-8" ?>
<svg baseProfile="full" height="94.15691638216745" version="1.1" width="98.60625459921317" xmlns="http://www.w3.org/2000/svg" xmlns:ev="http://www.w3.org/2001/xml-events" xmlns:xlink="http://www.w3.org/1999/xlink"><defs /><rect fill="white" height="94.15691638216745" width="98.60625459921317" x="0" y="0" /><path d="M25,25 m0.0,0.0 m27.134019154493235,3.0154483890831916 l0.38725291863878164,0.2706637320883301 2.1387101671243145,2.065312404318733 l1.129536932255153,1.6453574074747623 m-19.698813909572674,3.8735335692977957 l2.7826302907148897,0.2551103361355191 16.178074303483154,-2.30107378708189 l14.207325843806561,-1.222893364926479 1.7908729384133044,-0.0881376164467548 m-27.692091169390228,3.6813998534025414 l1.7626516251727864,0.5280320863318239 19.54725211424239,-3.0046945410306445 l1.3369049013728092,0.00878435206202557 0.650650403531486,0.35871235046668704 l0.25803845932479885,0.5459485259460637 -0.08953258410598898,0.5483411301069774 l-0.6719559052540136,0.5279216195647859 -2.3708992570319585,3.06389774205822 m-21.365913821075992,-2.4024103088794493 l0.4632742410572037,0.6563820742312162 0.22482937655763438,0.872375176425981 l-0.05541101604663709,5.985859817200685 -0.3937264395362757,5.060140237700549 l-0.7636643115317788,4.857796605993311 -1.0173755578700272,4.251496432426782 l-1.0108520804464978,3.7804764194648297 -1.5014841781990733,3.9298054953972095 l-1.3204488542317079,2.5531855870285507 m9.405462576173695,-25.081784772577656 l2.048067165286902,0.3150057730686455 18.482077163493603,-2.0785680891694223 l0.687631276173963,0.16767420706497324 0.6251506110911872,0.7603979760609998 l0.05943518687584652,1.0472004327193976 -1.6596618855324654,5.622648003139777 m-16.672796717308472,-9.45824332022667 l0.40623054283980786,0.3925032317461855 0.35371405975883746,1.0035077320759598 l0.6261789884865304,8.639118477619018 m7.7086296863408155,-11.540931662196702 l0.4248618175605249,0.3680195016044868 0.34599775591024906,0.9945278823908885 l-0.9797351930305326,9.442586988057169 m-15.279757169901696,1.6156707078348977 l1.6766914138115432,0.18034232683924803 18.653483233131688,-2.1599001549802885 l2.597452374815495,-0.12431951165176794 1.7026713927681392,0.20421216131371794 m-21.596692465965365,9.989521381433049 l5.206681809214702,-1.0611580482313192 1.8170041716247491,-0.39591462778956177 m-8.596618678782391,-3.220747315426148 l0.5681175415701677,1.0545586695964397 -0.016103076945466158,12.187297424884042 l0.23016447959276465,0.716901732733198 1.0669781675430574,-0.16276991176972608 l6.226496826914724,-3.1861318528717377 m15.457891599367548,-8.057401214976332 l-0.12245564320546448,1.04798116171304 -0.4732512346615564,0.5333592999670713 l-6.5955783189192,2.664297071307268 m-1.8010833470281677,-6.116103892483586 l0.35341546357420683,0.2434995412805694 0.2893480149750261,1.0061486014371017 l-0.002541873592958997,9.996242744962064 0.4145445349369832,1.479000680344021 l0.6587944526901554,0.8204636293475 1.2757767498530554,0.6219492378010452 l1.9957307281699534,0.3387723433382951 3.8850927943874307,0.030710108996958082 l2.5229659236731736,-0.3346795218770552 1.0271970035001436,-0.40999363303608466 l0.929463928569507,-0.9010164886010966 0.4331504791727997,-0.9113515322658391 l0.2001257043422804,-1.8598343981183842 " fill="none" stroke="black" stroke-width="1" /></svg>