<?xml version="1.0" encoding="utf-8" ?>
<svg baseProfile="full" height="106.30405185923851" version="1.1" width="99.88152505883765" xmlns="http://www.w3.org/2000/svg" xmlns:ev="http://www.w3.org/2001/xml-events" xmlns:xlink="http://www.w3.org/1999/xlink"><defs /><rect fill="white" height="106.30405185923851" width="99.88152505883765" x="0" y="0" /><path d="M26.81349504549568,35.34040389950742 m0.0,0.0 m12.378329505329239,3.2328855977823237 l0.04620577876894915,0.5426431955452088 -0.33717701371642195,2.006008243377009 l-3.077372301457667,2.595865388436589 -4.764880570216898,3.486913829853402 l-4.934725231417876,3.1345076511012793 m-1.1238752127850045,-23.33458401962062 l0.7168750305023902,1.485325253378249 0.20388641324091505,2.7353612404509233 l-0.14738092948172574,36.89873337023824 0.209808162335417,3.2360018349305997 l0.48812562548819205,1.8983255144418583 0.7437642523839738,1.4377238366446339 l1.013375360868306,1.059562398322601 2.314815120857548,0.6609949506263385 l4.623077509771559,-0.06203690713775918 3.0631743649151852,-0.6646146800413446 l1.3633646747830943,-0.7678220998449894 1.2047321367695107,-1.700149121543373 l0.679194704902009,-4.819880434634499 m1.985153936607265,-40.735555985194424 l2.4488840577533564,0.29745891114396805 2.2178272972285376,-0.11171749762662081 l22.05885700539774,-2.77570662795362 2.3897849158557993,-0.0766477421833905 l2.3042054186585768,0.40833223914337513 m-17.963405506472817,4.241850902538595 l-0.12659057156453296,1.797282907085738 -0.8528868785559977,2.8508270077025246 l-2.588719496693855,5.999826546934203 m-4.422741931209304,1.2816516003002116 l0.5323457507203905,2.0091168219511144 0.047104513111790855,37.71516383358276 m0.7765810438312898,-38.52201382505963 l15.198673855409815,-2.2282855839255022 1.560743923597796,0.19677849483938392 l0.9198518460227124,1.0553703790475948 0.3446220869253511,2.5745332208175333 l0.02756365312528916,36.186995344644025 m-18.02457992040196,-25.900188377689997 l17.2221124163688,-1.7464288717266747 m-17.16381616982692,13.683930027260216 l9.65932184773112,-0.9782373020682223 7.81475132673569,-0.37954538729777565 m-17.661139656961158,15.209545071259814 l10.074923357161424,-1.1290295156502133 7.397736729904416,-0.4247813013937386 " fill="none" stroke="black" stroke-width="1" /></svg>