<?xml version="1.0" encoding="utf-8" ?>
<svg baseProfile="full" height="121.63895810071602" version="1.1" width="116.80656553284132" xmlns="http://www.w3.org/2000/svg" xmlns:ev="http://www.w3.org/2001/xml-events" xmlns:xlink="http://www.w3.org/1999/xlink"><defs /><rect fill="white" height="121.63895810071602" width="116.80656553284132" x="0" y="0" /><path d="M25,25 m0.0,0.0 m9.910613312639134,2.4637501146040277 l0.4990647434404373,0.2250541401422826 3.4870768397272953,2.458795597554977 l1.4991856511861092,1.4880783104077906 0.7902364588248187,1.2253084402300682 m-11.556188885458027,8.765277632540087 l4.265256241845049,2.237142335839386 1.984702854256521,1.5225583769113478 l0.815785012518494,0.9823348784678321 m-6.6721054161398445,27.77869507295814 l0.6310953264477894,-0.10789813328555897 1.0280555225178776,-0.06258125241598893 l1.2075496766021954,-1.085495298342043 3.407603308521483,-0.6362451813903598 l6.682524614572983,-0.23762204231218031 m12.184629144261168,-26.331964629832 l0.7123326150621626,0.705522557036278 0.32962023549746355,1.4724293394209003 l-0.03099381054149509,6.637009389178649 m8.073317858776253,0.7591311248664641 l0.5687887247177369,-2.197588238225176 2.597835596899215,-0.8071945686663287 l13.672034138733089,-1.5954734012181215 2.175368479587755,0.06814816333595095 m-12.554530964696948,-10.475460977161381 l0.6464666827321542,0.9814007356639743 0.15282642254866213,0.8754340026293658 l0.042816789017944765,20.0079087216334 m-16.937449445000176,1.1007958165905405 l1.891071467272993,0.2979255685019003 1.8645202594679684,0.03699239495307404 l28.42124989791623,-1.9983759534168537 2.6188083990236,-0.03917438921353494 l2.3973977800632276,0.28421452675239184 m-31.73460423158086,2.751440860801749 l1.714919358931412,1.4320915081916488 1.8589355398207454,2.1541635185048857 m16.68503233894862,-5.98430477115407 l-0.10594050914319264,0.9217265210416945 -0.9224666179793258,1.4409756096837283 l-3.676626262733873,3.695347624163625 m-19.76805967620217,2.9811084802514545 l0.5078979610552546,0.26305743246463104 0.5121535271689581,0.200430220097506 l2.2679370223577964,-0.028419882403261827 m10.796755336810223,-4.454759316544555 l0.1089069252128291,0.6069731213617025 -0.22510332320345633,0.8208884714179194 l-2.373799681800551,5.104121703695418 m-16.609184497374088,1.8358770632543324 l1.8158767068199189,0.1749486693825003 2.2283715778345488,-0.08737646269875017 l20.40149178967729,-2.302756224060882 2.2874373529187944,-0.048547846563305706 l2.102291839647501,0.2496443856946358 m-15.011060133953235,8.692206217527099 l0.5258892827399901,0.6336123941847013 0.09185522370656282,0.5612002841712832 l-0.04875728337682085,12.236213796997154 -0.38846273318171737,0.8049646687423325 l-0.6052645667792691,0.1852968777715463 -0.7504195691624133,-0.29415970272766423 l-2.6063892922765777,-2.3571513288532784 m-6.333690279020573,-8.84680857770841 l-0.3604375871422343,1.3640951942371484 -1.5667939993717317,1.9894877252704015 l-2.637281109511964,2.42404774825753 -3.240547866200678,2.4092467823968446 m26.965404408045334,-8.718127705409366 l2.6767842521033547,1.4681991773092284 2.683846564472595,2.0395941684614027 l2.119616255914102,2.066697351617373 0.971546727555189,1.6186305840543804 " fill="none" stroke="black" stroke-width="1" /></svg>