<?xml version="1.0" encoding="utf-8" ?>
<svg baseProfile="full" height="104.47241093611852" version="1.1" width="105.85229291827027" xmlns="http://www.w3.org/2000/svg" xmlns:ev="http://www.w3.org/2001/xml-events" xmlns:xlink="http://www.w3.org/1999/xlink"><defs /><rect fill="white" height="104.47241093611852" width="105.85229291827027" x="0" y="0" /><path d="M25,25 m0.0,0.0 m9.32955182537,2.969111793477682 l0.4975327768730087,0.20782584745086002 2.4369138537805175,1.3229212642123314 l2.15895457030646,1.4448190774843124 1.7858340924066174,1.5937035879008066 l1.240718899480807,1.6018649082340475 m-11.934671563246697,9.735856513981712 l2.2706020498455315,1.1196528183596588 2.370510914725351,1.5636777837455795 l1.9506077902822097,1.658642725476166 1.119226131714759,1.439084663182892 m-7.256746039352191,24.8797541721559 l1.118723908531104,0.1400621282418107 0.8468690252524499,-0.648458739510868 l3.774787304996992,-5.47873638217111 3.0776478403708665,-5.666095911325263 m9.105444398904904,-30.926219821716774 l3.0411681893446443,0.2357789973901364 18.657927935830642,-2.3202768520603 l4.364461708651309,0.06380426351129183 m-29.942204747426064,18.24412670449738 l1.489488889237647,0.33319734521758876 2.1594880613370893,0.016943319780451636 l23.581369632590235,-2.3822287377792404 5.750456225219587,-0.2898148638829683 l2.857629243242475,0.29735525037702204 m-19.4243057549836,-13.70061695912773 l0.8353328206253935,1.5639450127923256 0.19022959280886148,1.4189970588624874 l-0.04833770318024116,44.03373396736034 " fill="none" stroke="black" stroke-width="1" /></svg>