<?xml version="1.0" encoding="utf-8" ?>
<svg baseProfile="full" height="99.99671738012492" version="1.1" width="78.75415924375197" xmlns="http://www.w3.org/2000/svg" xmlns:ev="http://www.w3.org/2001/xml-events" xmlns:xlink="http://www.w3.org/1999/xlink"><defs /><rect fill="white" height="99.99671738012492" width="78.75415924375197" x="0" y="0" /><path d="M25,25 m0.0,0.0 m27.229980980635013,5.156109043893028 l0.4548373173160684,0.4095671668009779 0.7428056839725763,1.0915466632269781 l0.3265352618283085,1.6784757563759045 -0.5592454417477807,40.12891275568215 l-0.4763650552792069,1.0868507538133927 -0.6525696543878259,0.4452552403324937 l-0.8574463327974186,-0.0002884691799031258 -1.9027923094017574,-0.8976078187865151 l-2.795102274867979,-1.864146525054078 m-8.478501150880788,-34.797540487550904 l1.954281780917854,3.6140779114852015 1.3914981334279182,3.9414899475794494 m-8.357451941574242,-11.973563607878248 l0.3975648190833214,1.4981345501861854 -0.9069978217328952,5.047484081993586 l-1.1438200799823448,4.070471378677942 -0.08032448124050157,1.3672959966684302 m20.20406380958868,-14.168661660146787 l0.11533543422048897,1.544433977600518 -0.8117051311539012,2.3309573942654374 l-1.7637494064392067,6.001823273733382 -1.6622982216733801,4.680402323017681 l-1.7948729481222783,3.8301999103940334 -2.1266658770302636,3.5764201729803613 l-2.5888615453044665,3.34359364968355 -3.100334564673631,3.074582684166307 l-2.550155771680545,1.916722298699966 " fill="none" stroke="black" stroke-width="1" /></svg>