<?xml version="1.0" encoding="utf-8" ?>
<svg baseProfile="full" height="96.3474816009125" version="1.1" width="105.83680868151177" xmlns="http://www.w3.org/2000/svg" xmlns:ev="http://www.w3.org/2001/xml-events" xmlns:xlink="http://www.w3.org/1999/xlink"><defs /><rect fill="white" height="96.3474816009125" width="105.83680868151177" x="0" y="0" /><path d="M25,25.06071618068519 m0.0,0.0 m12.569150134504188,3.3081283177719443 l0.49861262943609075,0.19509982017591695 3.7374733735476,2.1741209348064627 l1.6208014479348822,1.3518310505404152 0.7355851561194704,0.9378165101556107 m-10.538326175500629,9.68261689335716 l4.2489970703622095,1.9618596086794449 1.992013478378979,1.4807583453069064 l0.7677818212138079,0.8903493728026713 m-7.414295576225001,24.094136785658957 l1.1423400675293491,0.00868007519504743 0.7784205704843308,-0.8168768362553482 l2.511548501851427,-4.808882065431166 2.5101073462242427,-5.698283818722319 m9.831099407985535,-31.64748787126453 l1.7935876377087892,0.29374681609400755 2.183700316309977,-0.05141821240228864 l19.252913547954893,-2.6596795112038665 2.06521081481546,-0.08488364472739461 m-13.41912159143155,10.76791968484453 l1.7949352379187538,4.186734256483779 1.131013181912079,3.8627901702650296 l1.4524076889792128,10.535861394375653 -0.36067017857303296,11.821001389883245 l-0.8048559935561851,4.095197189438747 -0.6081167717568611,0.4056287643986839 l-0.6818926824094224,-0.21823914457441126 -1.5316728013245025,-1.2090344502830448 l-1.7021985501584336,-1.7717486051156721 m-7.602091894642653,-27.35242156452474 l1.3699187276954778,1.1414085612262048 1.7240785444330264,1.9890568044740105 l1.3676594059833715,1.9247003636242894 0.6162791482409338,1.366255751821988 m-8.010188925989437,13.866614409578084 l1.1020786825934077,0.24943713647667623 1.0816921346511101,-0.4983799102489621 l7.623542937761456,-7.925262236160251 m15.377658038404677,-13.599124632528236 l-0.11337376446222884,1.1931674978520967 -0.92869508389638,1.9048377926502824 l-1.6020004634531686,2.191622132787293 -2.420463097105521,2.515546293840928 m-2.4976357899184976,3.5438972842255234 l2.2612373576121745,2.0417377744482246 7.700842663224727,9.250484416537637 l1.5023504339503315,2.047395738690292 1.7273705161932953,1.4788854437383085 m-8.47217795628871,-40.47831845944901 l0.46540657691207854,0.9664290952719654 0.1867369336475758,1.5749487584598694 l0.0026711591714814664,37.62774466053726 " fill="none" stroke="black" stroke-width="1" /></svg>