<?xml version="1.0" encoding="utf-8" ?>
<svg baseProfile="full" height="111.2207772075734" version="1.1" width="94.54759892833958" xmlns="http://www.w3.org/2000/svg" xmlns:ev="http://www.w3.org/2001/xml-events" xmlns:xlink="http://www.w3.org/1999/xlink"><defs /><rect fill="white" height="111.2207772075734" width="94.54759892833958" x="0" y="0" /><path d="M25,25.790843007098548 m0.0,0.0 m9.640368984985388,3.0624195943849744 l0.47807855463687043,0.1856674763836564 3.482793349958598,2.1791191368750535 l1.4905555986915358,1.2852077134199635 0.787284136247908,1.0479256519366902 m-9.459645485358914,9.177355863413188 l1.6603141442317462,2.091669125501358 1.5545368783130515,2.8389591027855174 l1.342001447853918,2.6115591730899115 0.5301845591774562,1.6392412771164022 m-5.470618709133871,23.887911503506153 l0.9879376371677336,0.20859000279216874 0.7675193712032488,-0.7822049666662684 l2.149638991415713,-5.049087091098888 2.2847337426446126,-6.1597416511056755 m7.223836528196356,-37.72881791315741 l0.4939365940444197,0.7777620331519778 0.34190341690851156,1.914949716949883 l1.4180073294651552,9.360470381502852 m-1.276610988469179,-11.133590506947472 l8.225423356345711,-1.9690807434050996 6.780599618093604,-0.23712788752748545 l0.4046878080501197,0.7695535634393106 0.03437190211163386,0.6500497831596899 l-1.7655039548985123,8.165979711627175 m-11.905421118343028,2.014972936436402 l12.92833019043469,-1.706098842753891 m-19.721415084419533,8.529899134748728 l0.43015925028538526,0.7751746007038736 0.2769164134118892,1.3180470663024841 l1.1399501394339802,11.074539012475874 m-0.8410864248840941,-12.35780704802922 l8.403861228752493,-1.912419179719388 1.0660869473371393,0.00028855161555917433 l0.36623612475171635,0.3666411430992986 0.1738188219616523,1.1009714322080213 l-1.3377175392603604,9.515443024143813 m-7.490435912042089,1.8318191344180106 l8.463077464836138,-1.4412047911840755 m4.21636068524617,-11.065112029899002 l0.36041353959573513,0.6382575338873483 0.5099326561593527,2.384462705979315 l1.0723801015944503,8.826856908453577 m-0.9382505600160035,-11.010097856223377 l9.44204164883586,-1.905522066836555 1.1383274783075021,0.04746615954018324 l0.3734274891620358,0.45284760068041563 0.0981343429258202,0.6377009012087055 l-1.3576948589018936,8.79127410086246 -0.3578453252244543,3.3412960557467946 m-7.596085409378378,1.664922134236049 l8.467781502247613,-0.9961461098809471 m-27.914904906976265,10.205998239560715 l1.7374604726933518,0.3740412425023894 26.68376556202219,-2.715006681045613 l2.1634762596900816,0.327846536444249 m-15.361065730524007,-4.922580666639444 l0.4808334153403522,0.8696328399990925 0.22809277515979062,1.71057727805408 l-0.7017295682375316,24.659226363063066 -0.615882474893237,0.20698678518824223 l-0.6243746109679665,-0.48558268086531137 -1.5365659949124566,-2.2060698200389464 m2.0027631094370713,-19.65599435133373 l-2.9339443349293486,5.586943590469112 -3.793787130121765,5.271756824431857 l-3.8731283322287484,4.2150763605177115 -3.7304241634862243,3.0115110937921665 m15.47838992577626,-17.984950799712554 l12.794321718245033,15.236109347906188 1.3354183517440394,1.266184489113324 l1.241265980816368,0.5878442493352144 " fill="none" stroke="black" stroke-width="1" /></svg>