<?xml version="1.0" encoding="utf-8" ?>
<svg baseProfile="full" height="117.94216442470977" version="1.1" width="112.64422145229004" xmlns="http://www.w3.org/2000/svg" xmlns:ev="http://www.w3.org/2001/xml-events" xmlns:xlink="http://www.w3.org/1999/xlink"><defs /><rect fill="white" height="117.94216442470977" width="112.64422145229004" x="0" y="0" /><path d="M30.653864224122273,25 m0.0,0.0 m10.509025962747813,22.36047848272059 l0.5091905447887507,0.16381361701520997 1.779807246006348,0.17715917258177874 l2.6217313061951564,-2.5645543238402513 4.877327943464273,-6.820393789469122 l2.9714501552528274,-2.3557059300576393 4.504602642992713,-2.115944641249219 l5.634763552090907,-1.0457709949076015 5.937950473663915,0.14309584338124204 l5.082440513290509,0.9772392375895808 3.1902561606769577,1.3603638516903411 l2.229250516884592,1.498209685859918 1.722690633768437,1.7052541358486635 l1.379622076175162,1.8988796256036682 1.2332440457081952,2.2601821246518727 l1.24312108239112,2.495987792577209 1.215532756499455,3.599782335863736 l0.348349615570624,3.9822487004867084 -0.0708676950435207,3.547829303714033 l-0.3632722017333437,2.3494714591434516 -0.9619648265815401,2.675964955893997 l-1.49425749125016,2.353000111852718 -4.798296854600694,6.984691935281806 l-6.123653977057065,5.184898328746811 -5.111973209405489,3.9039888056441794 l-18.47811375146789,1.5702264455869457 -4.182658938653671,-0.6606677305418773 l-3.985014771424724,-1.2410994189610944 -1.3417799404219466,-1.315208975309146 l-0.9259361397197833,-1.8020387475835804 -0.8945248433839199,-2.5318062051613976 l-0.4684792501062152,-2.7505987632906517 m17.8661357414021,-12.37854578759856 l0.5010217382936395,1.1024362702565422 0.272749626321494,1.8287902205546984 l-0.4996361890580237,15.657274961393966 -0.9515837246800083,2.483378459548402 l-1.5957931092681759,2.874313784252496 -2.367783106354286,2.982042143252466 l-3.091200605092562,2.6256976450658676 -3.49789929771351,2.153794622447633 l-4.012683640446383,1.5072281548891378 -4.395824914825088,0.633608476522175 l-4.309119162381996,-0.09008261629393328 -3.9403101942251326,-0.9340813947091062 l-2.2610608868095228,-1.2312615446385105 -1.0695215190499807,-1.3242587293631172 l-0.09091831755263195,-1.313411981008809 0.40898056659131304,-1.1751962713598878 l1.879595788595142,-1.2230938950830774 2.620784382767063,-0.7989271037820269 l10.273946787954271,-0.06797778278362628 6.25742180337125,1.2255455349106203 l8.370281622129337,1.53414816429783 7.46530119057848,2.7278302577479328 l5.9949880602921155,3.153936404827769 " fill="none" stroke="black" stroke-width="1" /></svg>