<?xml version="1.0" encoding="utf-8" ?>
<svg baseProfile="full" height="98.62019627711886" version="1.1" width="100.27824715519253" xmlns="http://www.w3.org/2000/svg" xmlns:ev="http://www.w3.org/2001/xml-events" xmlns:xlink="http://www.w3.org/1999/xlink"><defs /><rect fill="white" height="98.62019627711886" width="100.27824715519253" x="0" y="0" /><path d="M25,25 m0.0,0.0 m8.51246913565758,3.673897284069595 l0.4721454492934782,0.21246373408316369 2.0209773863797884,1.2255899759109254 l2.0843083370883004,1.5916595411446313 1.6790323792614763,1.6135830572756906 l0.6637896250227996,0.9890958090625923 m-9.601450877794006,10.272932492876269 l2.0776923689384814,1.0690744855000152 2.1480132182666676,1.4454142788741742 l1.7967659743784772,1.5406383780703188 1.0024332634100805,1.3165575925523325 m-6.7269844249632476,22.131809580008415 l1.0917719997558746,0.2048766903587579 0.8871177623665446,-0.6253673168243834 l2.9238154991580068,-5.2599318236223445 3.382965380949219,-7.547681854672361 m6.273032661634789,-30.968036649698284 l0.5293065603689141,0.8387276318662436 0.2895466333189434,0.9460245485246833 l2.1090736593258868,14.858139413172816 m-1.6455477689625764,-15.94090131725101 l18.734272777049316,-2.893971225852577 1.1210548342882245,0.2779791480956073 l0.7272241943319682,1.0319113002469504 0.1392600716815997,1.4108047690762917 l-2.0533288277010495,13.15428433782059 m-16.39532020476071,2.2038394983794354 l17.589145423948803,-1.8541703990828775 m-14.146288979538097,5.534636859309551 l-0.10886921763832241,2.465823036451552 -1.0251273785269837,4.168372710091182 l-1.3424400808029102,3.964341040365669 -1.9320295279235293,4.307716914263131 l-2.0094050945682422,3.369600511197273 -1.8064547959687705,2.495505345306176 l-2.875132414601996,3.1928044922514287 -2.539583723828185,2.202152407917243 m20.122670140632152,-29.013453827971148 l0.46120760876980393,0.9294299289258536 0.22322670822162424,2.093971867307246 l-0.12655922614752838,20.22380122002107 0.26556671539276516,2.053766866100834 l1.7769252157428466,1.360970793494304 2.7617362490813626,0.347293470290662 l5.100348223468318,-0.026579798751733066 3.2334886280363437,-0.5234137932294112 l1.224423937558813,-0.759726043787703 0.7781627040597381,-1.3896561059017123 l0.3333691941829768,-2.1181429727672914 0.07642977789673817,-2.901391599184796 " fill="none" stroke="black" stroke-width="1" /></svg>