<?xml version="1.0" encoding="utf-8" ?>
<svg baseProfile="full" height="102.71049616400032" version="1.1" width="107.99538810280862" xmlns="http://www.w3.org/2000/svg" xmlns:ev="http://www.w3.org/2001/xml-events" xmlns:xlink="http://www.w3.org/1999/xlink"><defs /><rect fill="white" height="102.71049616400032" width="107.99538810280862" x="0" y="0" /><path d="M25,25 m0.0,0.0 m29.494867984930842,2.9856420885677606 l0.38224007758663453,0.403801114443144 0.6679363509258421,0.9758451411948783 l0.2702520265885896,1.4003167964819687 -0.5985864105836214,45.336812997729204 l-0.5196899868927624,1.1243165718320676 -0.6267002520020565,0.46708900838592843 l-0.7379136350815144,0.016672445365366745 -1.6161362698091633,-0.8974936340333697 l-2.3992529992056557,-1.9716317868800532 m-16.355097696250656,-25.694725615553537 l1.8527896678937228,0.23970179170563394 1.718133025471539,-0.24223271501235258 l11.850075022539825,-3.6357156075549137 1.2643416786032107,0.4635851625681242 l0.5044486993303754,1.1633099909576612 -0.520347514265389,2.0774115226724152 l-1.4097728226344464,3.1695731103733773 -1.8305887755440942,4.231373909393825 l-4.031683303456275,7.5181899315905865 -3.7914582293417998,5.370469153264148 l-4.4952271797663235,4.391442510392715 m41.821746305821804,-34.67770560447325 l-0.3039539898644751,1.2699123787851279 -0.6201485686315953,0.9390837405869281 l-4.561058699173059,3.9812487260635554 -5.002579879297644,3.43136092024425 l-5.44576661061172,2.730975491286438 m-0.0654405862423996,1.09535757050548 l6.550650047062893,8.005757211295977 6.3359699930058815,6.340754860371456 l6.141915412146561,4.819373210921289 2.205660131796195,1.4543388857000152 l1.8657650877593497,0.7234356548127915 " fill="none" stroke="black" stroke-width="1" /></svg>