<?xml version="1.0" encoding="utf-8" ?>
<svg baseProfile="full" height="106.76610283589797" version="1.1" width="97.52472726996527" xmlns="http://www.w3.org/2000/svg" xmlns:ev="http://www.w3.org/2001/xml-events" xmlns:xlink="http://www.w3.org/1999/xlink"><defs /><rect fill="white" height="106.76610283589797" width="97.52472726996527" x="0" y="0" /><path d="M25,25 m0.0,0.0 m25.886656008706847,1.678802588305753 l0.39038816250637076,0.462701355275867 0.5999124323365143,1.6171657011850944 l-0.039915141591991006,4.580952230671558 m-20.32360268118593,1.7701386868190763 l3.0624710176681478,0.3087880048095481 30.84162807237032,-2.6595703808268754 l4.818115896720172,-0.06449166356956491 2.289073502434813,0.35088801644208223 m-27.162289622935244,2.647905676049289 l0.42323769607508127,1.1662469312677903 -0.1514621956031612,2.5286018105400463 l-0.6693078471803707,5.011479805983279 -1.0001707506842945,4.401049707997188 l-1.0496215944498117,3.0041821098291943 -1.4024174735318884,2.757407755068424 l-1.781158760441069,2.4659222706552053 -1.7001683285249196,1.738981750795689 m17.45846635404952,-23.080077577365245 l0.5448785396723661,0.9641714122117152 0.12982729229230713,1.5390671267079097 l-0.10570683093737406,18.455447039360624 -0.7146194247605562,1.4341218189211498 l-0.7467947575830389,-0.13490303629787476 -2.076579451660224,-2.2329133757251767 m-14.765409569419498,-11.904317845222039 l-0.0720862715953292,1.0919654378455457 -3.073843040698641,4.400830930008665 l-2.7818972114464056,3.1055184695494367 -3.454542156482801,3.0937200059215044 m34.27331439019621,-12.351571990090475 l2.541399900649067,1.5458416317131722 3.1928998358443765,2.7109799658508718 l2.265280544170169,2.5643453251189228 1.234236100676918,2.0461267026211716 m-38.35386617271741,16.536011630905445 l-0.2360873226588516,2.324433277689711 -0.7856271702261248,3.519164268274402 l-1.948415678425667,5.814987298066187 m10.103099316958067,-14.673168637950177 l2.8485641611281176,5.538227159357967 2.9891396099596537,3.8660862939930367 l3.7461120981863862,3.102813894784907 3.6731726353340637,1.853302474755796 l4.337271363559148,1.207053180017295 3.7945441437673457,0.5219396713068272 l4.4546208080052425,0.1397479262680533 2.8308559457804106,-0.38332504055164895 l0.8893402318386351,-0.9128505717119404 -0.054486244596635786,-0.6715849540080554 l-0.42284830533196127,-0.8040262347570006 -2.0377905142930293,-1.9247553858775979 l-1.5535146118898793,-1.089367948163968 m-15.293456434690446,-10.724462523831871 l1.4995081809085289,3.110236850415969 1.092057833459985,0.8878547443237301 l0.5542199721072808,-0.2160660868805138 0.5309675016733908,-0.7944256978923556 l0.5072001704471697,-1.476265978730105 m10.15845449712931,-4.386969569119009 l2.065798801102649,1.2349654346252545 1.788476308451331,1.4856953590071322 l1.6214603207070821,1.8951117295181685 1.6264374318417514,2.7791729010160595 " fill="none" stroke="black" stroke-width="1" /></svg>