<?xml version="1.0" encoding="utf-8" ?>
<svg baseProfile="full" height="100.83217531207998" version="1.1" width="107.04684332565974" xmlns="http://www.w3.org/2000/svg" xmlns:ev="http://www.w3.org/2001/xml-events" xmlns:xlink="http://www.w3.org/1999/xlink"><defs /><rect fill="white" height="100.83217531207998" width="107.04684332565974" x="0" y="0" /><path d="M25,25 m0.0,0.0 m4.362357931833496,20.68009053415027 l0.47405627531413785,0.17087394934224343 3.4733023142725363,0.8797571282735095 l2.0293515551485846,0.9672602160576834 0.7273939489444728,0.8933490923800091 m-10.61623405783115,6.717941115983915 l4.304753317429375,1.4565740079293312 2.0310073749866517,1.0297445036447663 l0.7739051567063759,0.6697634025940432 m-6.1952248619403445,16.956160761865046 l1.0750327309924512,0.41066059985916176 0.5380468730034624,-0.024517878501140962 l0.8653985714399417,-0.5422829495697324 2.2860620904383158,-3.1792643591111873 l2.443822551224238,-4.05302446588631 m19.165013570972214,-24.603908106810593 l0.09129233704053749,0.6883930014574309 -0.41414130774618646,0.8841008901216646 l-2.6442208230399697,3.258391987028059 -3.1507738495860007,2.758480793082857 l-4.22123431540672,2.840289401097792 m9.578580046978852,-5.949116669060467 l0.9771502304381497,-1.1207076994218101 7.700876838068334,-0.662248125470688 l1.2433642540688146,0.12288607470595773 0.5594606838511937,0.27837759766316333 l0.15313138980957142,0.4025676197724671 -0.6401144768064041,1.6460904751145367 l-1.7348972508050722,2.748788389704687 -1.9469180349802164,2.5354077104144213 l-2.2826173645426837,4.301773537206919 -3.8690967485677352,5.5037503774180445 l-2.19969514451968,2.3188326172642024 -2.5195526088371216,2.1413820655372553 l-2.8879107989836847,1.979338217779368 -3.22601800366187,1.7843289694215538 m6.20426185732087,-15.194149171788887 l2.988054422714762,1.418723673685826 1.6111201023169799,0.8775058464392338 l0.7562244044631183,0.7672735449962026 m-9.39429183119849,2.3081410397199638 l2.5806983312786294,1.196959038875654 2.668311275366261,1.4570222143025817 m11.285691675630458,-6.6848087029100975 l2.4656855599435725,0.0993893607478702 11.59904369753141,-1.2103610962035838 l1.671732006168022,-0.055333073026584634 1.3424518457871752,0.1487061253009967 m-6.777701758334976,-7.0166221974833 l0.6028994607116093,0.800156897905055 0.1766893802707556,0.9312599521959283 l-0.04552846192707318,16.807827312629602 m-16.758192332246068,-5.651291907218147 l3.227011471872471,0.22832743302507183 20.42531419492212,-0.9776842446239434 l4.112657627361248,0.10626366362950675 " fill="none" stroke="black" stroke-width="1" /></svg>