<?xml version="1.0" encoding="utf-8" ?>
<svg baseProfile="full" height="95.69030814222552" version="1.1" width="98.31587499494557" xmlns="http://www.w3.org/2000/svg" xmlns:ev="http://www.w3.org/2001/xml-events" xmlns:xlink="http://www.w3.org/1999/xlink"><defs /><rect fill="white" height="95.69030814222552" width="98.31587499494557" x="0" y="0" /><path d="M25,25 m0.0,0.0 m19.76582449828184,5.421211862449971 l0.48707541467266974,0.15619750175518937 1.760562257859896,0.2946598523595982 l2.1670002898333403,-0.03233472742478377 21.138873639960014,-2.592447704476451 l1.478009689464402,0.00886354737628341 1.140234024962802,0.5839238444777597 l0.3782951799106261,1.092236001745839 -0.5974470950446574,0.7087115528330008 l-11.03620137411142,10.796818929648188 m-5.920504534834725,-3.180065571633551 l3.2562198520739147,2.020702008075839 2.714314037197959,2.4822158999707487 m-17.866226727687188,3.3515779821910563 l0.7438703518133672,0.27707394343567254 0.8544405283599055,0.1855832976282155 l10.510728090998429,-2.511927655012458 1.0472383887220733,-0.10490083830984295 l0.46929158980460395,0.03659545751705471 0.3585435334342302,0.11710648559527113 l0.24396809423176055,0.7611604825011473 -0.3634328367731569,1.4339440484368555 l-1.8999859347516856,5.615457733787858 -1.6595195480910945,6.860687178540359 l-0.9969782360265801,4.889475398532623 -0.9329191913525107,4.921757950268455 l-0.3510486327214605,1.136896890460195 -0.9490443806690904,0.9163883393861884 l-0.5475003333737568,0.042738450109220553 -1.005463781813997,-1.669659969599906 l-0.6715436864572984,-1.3155013299768625 " fill="none" stroke="black" stroke-width="1" /></svg>