<?xml version="1.0" encoding="utf-8" ?>
<svg baseProfile="full" height="118.59166817471763" version="1.1" width="112.1452483500529" xmlns="http://www.w3.org/2000/svg" xmlns:ev="http://www.w3.org/2001/xml-events" xmlns:xlink="http://www.w3.org/1999/xlink"><defs /><rect fill="white" height="118.59166817471763" width="112.1452483500529" x="0" y="0" /><path d="M25,26.66746096499038 m0.0,0.0 m23.07120086725951,3.0856692788356597 l0.0063628887925274765,0.5442177272108777 -0.17277857704523905,1.3155339856155903 l-0.8400498700959961,2.1870987812266196 -2.7447752707423843,5.26005679404387 l-3.1102294336705776,4.239881316011827 -3.6442356009480696,3.758097126591983 m10.678744396291401,-11.17051115397595 l2.5852039044249917,-0.32703471911981347 6.134590328722248,-2.030557928011812 l0.6543435765880993,-0.054305693319198454 0.6077592409403421,0.8245573553026988 l0.049390531914206996,0.8715220311525942 -0.5605726528746245,1.8391017104973253 l-1.6612405366476828,3.837533278478858 -2.3555742482724304,4.46339701919075 l-3.070023814754148,4.811789619098929 -3.560766635531145,7.190472212424131 l-2.450067123951953,4.687493630187542 -2.6259504868441046,4.452839339823207 l-2.7107490095862765,4.091154962346186 -2.6838387744262464,3.5996020721181434 l-2.0857534437628393,2.8596608696440105 m6.854337559455637,-28.56521929580916 l1.8289644139385393,1.1521537643253648 1.8117701620420428,1.9780837675076284 l1.5060828027795137,2.164897801263864 0.6064929314180547,1.3977256407026635 m14.0694292445301,-30.13237225835477 l0.5494557130910535,1.6659345167328978 0.16175422900895214,2.0500062775624364 l-0.11551199615649939,50.041736625347504 0.01443981199435727,1.0962971094461065 l-0.7355222214927762,0.6636785051034935 -0.9993235760029886,-0.7104189980138853 l-1.3861011933760106,-2.052893453877956 m-5.476497980574672,-27.928145020467657 l2.6716075256919383,2.713258335725722 1.8661255131555716,3.0574444099268003 l1.1635634299483053,2.416936187403195 0.5234370164963448,1.626752370181092 m-7.3632600746791415,15.482932060610498 l1.1550158562466608,0.46035820911567393 1.8198353277298998,-0.40731648168794793 l8.948953612324079,-7.302045308192568 m12.59784268613824,-39.11649621571991 l-0.007484769836446759,1.3511830698314393 -0.30381170684819914,1.752637811332994 l-1.2904820578596368,4.71976077544541 -1.7717905523783535,4.879395945928271 l-2.7273927426549416,6.586821641849154 m4.004310095884873,-7.40559320431356 l1.655907705373687,0.24653604731938872 9.13725026020215,-2.2813998912323394 l1.864861068682952,0.06360948075093412 m-6.363973105066476,3.761661413153177 l0.23753460106022256,2.2127716066334506 -1.0837727175374525,7.005431514609189 l-1.269204046451888,6.338976087873505 -1.2070286924748437,6.111725896927523 l-1.3606703545545589,5.523034023516111 -1.6002946435706569,5.146319163263707 l-1.8894179390486625,4.570325973543794 -2.2900198400393945,3.958803928423386 l-2.127163556070005,2.746117861051688 m2.564333608387456,-30.35081135625501 l2.0494765236735724,13.278331442560162 2.3366447738722953,12.203163300344269 l1.3548874878754886,6.785730544680047 1.1593053042464843,4.553817392544948 l1.3796012686332344,1.0752985757405058 2.1453362113563545,-0.553604841823492 l1.6944031097000936,-0.8861244095206148 0.6476689083669035,-0.9285608594129898 l0.405051622794599,-1.2761899779229404 0.195850386501551,-3.7794511233291006 " fill="none" stroke="black" stroke-width="1" /></svg>