<?xml version="1.0" encoding="utf-8" ?>
<svg baseProfile="full" height="108.96640374525776" version="1.1" width="105.0885432185798" xmlns="http://www.w3.org/2000/svg" xmlns:ev="http://www.w3.org/2001/xml-events" xmlns:xlink="http://www.w3.org/1999/xlink"><defs /><rect fill="white" height="108.96640374525776" width="105.0885432185798" x="0" y="0" /><path d="M25,25 m0.0,0.0 m10.174650789065529,2.763366918261584 l0.5003875970559095,0.21029863663353607 2.3609668901248724,1.1777507111879095 l2.3119340197905047,1.544677373385734 1.849796281706379,1.606418022050163 l0.7291451564283022,0.9885307260769367 m-12.426848249076984,9.003291043183799 l2.346586117285276,1.0557256871348795 2.4616789070098215,1.413223558051598 l2.060285607209924,1.4731858040317782 0.8052200814193453,0.924611616740397 m-7.90675952067252,23.65598411705255 l1.2981500596675148,0.1041788563437251 1.0022395381688147,-0.8100967883122291 l3.575549779045434,-5.394834368052813 3.505433901492947,-6.388933059227595 m21.543735802556885,-30.200379657085044 l0.4140345221843178,0.9803255030491139 0.053444051139070865,0.9535733890748117 l0.05628168746712049,17.92240278382761 -0.22120261949352657,15.992459226094262 l-0.4293920954308465,0.9394527907459168 -0.6050398791018141,0.26896301627930236 l-1.5055677220926305,-0.6961966670130428 -1.9418460944207216,-1.720503962015321 m-3.6536019228753416,-19.133281793226097 l-0.2897329434715894,2.201679589588813 -1.5712375200164221,3.5384497889369237 l-2.713476928907632,5.094987616302907 -2.865237421658569,4.239795700154467 m24.529490947592613,-14.844207824699126 l3.0211137092781497,1.9798737911511632 3.027440682224914,2.711507839045436 l2.4283155316346074,2.9009059682745977 1.1626044762501415,2.338999818620283 m-5.979097186355918,0.16134863879402084 l-0.4221922105904594,2.6296177011260715 -2.2821316743626943,4.751846415210028 l-3.6247812161053194,5.089686601910244 -3.6349373669568146,4.12520698244209 l-4.2304833636556625,4.0321412074562275 -4.630840299466784,3.712257227119223 l-5.063935110185114,3.196276681575753 -5.189475368622041,2.471836517975188 " fill="none" stroke="black" stroke-width="1" /></svg>