<?xml version="1.0" encoding="utf-8" ?>
<svg baseProfile="full" height="101.28500614716208" version="1.1" width="104.43160496765239" xmlns="http://www.w3.org/2000/svg" xmlns:ev="http://www.w3.org/2001/xml-events" xmlns:xlink="http://www.w3.org/1999/xlink"><defs /><rect fill="white" height="101.28500614716208" width="104.43160496765239" x="0" y="0" /><path d="M25,25 m0.0,0.0 m6.033541281981215,4.447212106062381 l0.48681470458768517,0.23283242117696668 3.4725177468916923,2.454334231245312 l1.54567826475284,1.4112352715947891 0.7785701925163987,1.142839608989004 m-10.818158291074244,9.512319355951137 l4.05394016549534,2.355700887541803 2.0734134211944824,1.835759384830718 m-6.137088670124708,27.277330017082488 l1.0673028964311988,0.6154428626874751 0.5423070026744689,-0.023576506818911755 l0.8970004287102964,-0.7638138164490778 2.2989761235976016,-4.8707496391643454 l2.4440553495930875,-5.940330770692655 m18.300474765308987,-24.591136275403507 l0.06567749516217058,-1.3360248399734633 0.7783894676754222,-1.4975037397334325 l9.995024265399884,-2.257222563022445 1.6731404162357217,0.21323434096517815 l0.609032098427279,0.828369047692338 -0.20974461814457135,1.3851028312456304 l-1.5171743660262182,3.280260936326913 -2.289823523399856,7.217775275291269 l-1.9904352939226724,5.253810038381069 -2.371741973453887,5.129178889069346 l-2.5399334901698833,4.460578626307368 -2.822347213351899,3.955695775890503 l-2.990421521282771,3.366272794595677 -3.0960889385294124,2.7563773011019714 m6.2460735314093805,-27.109415927480097 l1.7073384042507425,0.7730836708642526 2.5420690565281627,1.8435736581529472 l13.605559794190546,12.784599464962266 4.92544038678944,3.8934993893773995 l2.639171134787749,2.1974222266996666 2.4330544725407113,1.2382634010073097 " fill="none" stroke="black" stroke-width="1" /></svg>