<?xml version="1.0" encoding="utf-8" ?>
<svg baseProfile="full" height="116.24168273005981" version="1.1" width="103.40861803919739" xmlns="http://www.w3.org/2000/svg" xmlns:ev="http://www.w3.org/2001/xml-events" xmlns:xlink="http://www.w3.org/1999/xlink"><defs /><rect fill="white" height="116.24168273005981" width="103.40861803919739" x="0" y="0" /><path d="M25,25 m0.0,0.0 m29.17460570001099,3.1335320907517614 l0.41923188589874083,0.3738944510562317 0.6318693482566226,1.6221465359151972 l0.045879813073272366,22.20289251835806 m0.34123738742429466,-13.458886507083694 l12.709209691076765,-1.4105476253134288 3.326801403910411,-0.028412337083327098 m-29.20689725244682,-0.46595085150573146 l0.8292012257351081,0.9084262891775681 0.33257221431120154,1.069154796014279 l-0.10928493195887103,13.092212714245818 m-8.628082791661912,0.5311990387243596 l2.3356368925704745,0.4858386157035444 2.8062831590297663,-0.008151461940608116 l31.854314220475466,-3.515903278660423 3.237964766404049,-0.08335923186348544 l3.308075307087837,0.4136835645786852 m-44.71475845934691,10.36117893954743 l0.9925208353148008,1.1408590004005776 0.24534468824400524,1.1267186797671045 l-0.02140260945665475,23.984671619743583 m0.6121608418559756,-16.726978772752002 l27.375276650521315,-2.6362310138893563 m-19.44007004094961,1.5965399615817466 l0.709779654044525,1.0112573679800287 0.2559541736387776,1.297046675800816 l-0.10182861639374767,20.224850950805074 m-11.862599889292657,-13.065112461112971 l13.321716546990547,-1.4573144139213097 8.968630583651352,-0.6629539747110833 m-23.20348317847199,12.809783671332795 l23.27901383853661,-2.237695928492217 3.564878112437857,-0.07360522943943906 " fill="none" stroke="black" stroke-width="1" /></svg>