<?xml version="1.0" encoding="utf-8" ?>
<svg baseProfile="full" height="103.69520000087792" version="1.1" width="113.3288557314151" xmlns="http://www.w3.org/2000/svg" xmlns:ev="http://www.w3.org/2001/xml-events" xmlns:xlink="http://www.w3.org/1999/xlink"><defs /><rect fill="white" height="103.69520000087792" width="113.3288557314151" x="0" y="0" /><path d="M25,25 m0.0,0.0 m8.772806917392042,3.592871514653442 l0.580668965975255,0.2362422668944095 2.7497796998455164,1.2798370429983965 l2.95082264248938,1.5815143197383525 2.3136158472186477,1.587952896575721 l0.889332475640133,0.9995647732840004 m-14.718244623438435,9.205285375041067 l2.749504688433374,1.0060510696122993 2.884851522566588,1.3597934596705148 l2.3992866327839013,1.4317243956107268 0.9594178528546582,0.9013476002674085 m-9.43162673334518,23.75141320763053 l1.4745795037359355,0.04691888034477438 1.1878555797663466,-0.8270148921658523 l3.6867001166733098,-5.518841030835989 3.825411889718754,-6.4266943656468705 m25.564872087760165,-30.412116651176028 l0.4293151960970268,0.9378110817129561 0.0296430382371728,0.9395052117637609 l-2.183519547418153,13.284270917004436 -2.202819060423672,7.612764572509277 l-2.470301744607079,6.580072037386864 -2.687549931030415,5.591723882749968 l-3.038351721033048,5.139727568316954 -3.661082025586824,5.3242548543905786 l-4.158904147061146,4.4892200125462205 m2.9050436199277345,-30.24354007916698 l2.759801042313709,0.7742299765275119 2.7535332918797506,-0.11235042549725134 l18.661363156858386,-4.713126568303445 1.6372641267817345,-0.2568788804286363 l1.3304235352424754,0.14624434319764543 0.9860840839746194,0.7811825230775771 l0.13685474241211693,1.5237145011040856 -2.917163979168621,21.630790463366008 l-0.12153183667881581,3.7741964273478943 0.46123956716761433,2.3489637021439593 l1.30470628340549,1.5830845165338039 2.320245241286799,0.8278457867917797 l4.532520529960424,0.2802005393973805 4.102841829617929,-0.2616696290246931 l1.6720205148894265,-0.4809728433771772 1.3762388506436203,-1.0860264762496734 l0.4705135575831437,-1.6572148266338482 0.060792450073298046,-2.335865885844996 " fill="none" stroke="black" stroke-width="1" /></svg>