<?xml version="1.0" encoding="utf-8" ?>
<svg baseProfile="full" height="109.4925132766366" version="1.1" width="108.27927935868502" xmlns="http://www.w3.org/2000/svg" xmlns:ev="http://www.w3.org/2001/xml-events" xmlns:xlink="http://www.w3.org/1999/xlink"><defs /><rect fill="white" height="109.4925132766366" width="108.27927935868502" x="0" y="0" /><path d="M25,25.000000949949026 m0.0,0.0 m7.380971908569336,0.5831205099821091 l0.68305604159832,0.24375876411795616 5.268909931182861,2.8165146708488464 l2.4083517491817474,1.8623623251914978 0.9706685692071915,1.1730415374040604 m-15.940760374069214,13.3406662940979 l3.2311323285102844,1.1326049268245697 3.341241478919983,1.5994295477867126 l2.659704089164734,1.663406789302826 1.0716652870178223,1.0475551337003708 m-9.422301054000854,31.103920936584473 l1.2324624508619308,-0.15160765498876572 0.9989552199840546,-0.8514470607042313 l3.483434021472931,-6.5241539478302 3.320358693599701,-7.340479493141174 m26.51123285293579,-41.69869422912598 l0.1749405637383461,1.944754421710968 -0.804840549826622,2.0438526570796967 l-6.674509644508362,10.50023078918457 -8.474223613739014,12.213376760482788 l-0.251542329788208,0.8869477361440659 0.634835883975029,0.2568579465150833 l3.048882782459259,-0.5868055298924446 28.924520015716553,-7.321305871009827 m-5.178924202919006,-7.01660692691803 l2.9630735516548157,2.8757458925247192 3.081156313419342,4.056570827960968 l2.5002357363700867,4.258944094181061 1.1365916579961777,2.998764216899872 m-34.141411781311035,9.829325079917908 l0.7367817312479019,1.0942565649747849 0.39857596158981323,1.3159935176372528 l2.674986720085144,20.141611099243164 m-2.2234444320201874,-21.092345714569092 l24.828462600708008,-3.2193145155906677 1.9918355345726013,0.14878966845571995 l0.7627902179956436,0.3500710055232048 0.9366866201162338,1.248789057135582 l0.12453719042241573,0.8975789695978165 -3.1544357538223267,17.12006449699402 m-21.967144012451172,2.729186713695526 l23.85646343231201,-1.8739902973175049 " fill="none" stroke="black" stroke-width="1" /></svg>