<?xml version="1.0" encoding="utf-8" ?>
<svg baseProfile="full" height="112.78964309156285" version="1.1" width="106.08824320360401" xmlns="http://www.w3.org/2000/svg" xmlns:ev="http://www.w3.org/2001/xml-events" xmlns:xlink="http://www.w3.org/1999/xlink"><defs /><rect fill="white" height="112.78964309156285" width="106.08824320360401" x="0" y="0" /><path d="M25,25 m0.0,0.0 m11.373262817172069,7.599391548215848 l0.505032632551016,0.20615517209297654 2.3944594393832648,1.2247803325876527 l2.3116991483756553,1.57312224771787 1.8420372671588525,1.5953539100546514 l0.7329522001151223,1.0113286855720687 m-12.20515280764848,8.931013123930645 l2.343107654729979,1.030258850884247 2.457262516794183,1.3845262943842132 l2.0339280621291955,1.4566089947025511 0.8088367610560524,0.9095562048709057 m-7.794144968482697,23.20144714932548 l1.3032178843229851,0.044635717562387794 0.9705785376790217,-0.8340525267977702 l3.057484799381239,-5.28042783008478 3.2381714612299692,-6.3205997575861455 m22.00025289674717,-30.26649097063713 l0.4560861944952249,0.9031606075130546 0.1013753140514652,1.2250279186653652 l-0.06981991915790757,19.209925679482286 -0.3388887478559795,13.658321743662125 l-0.4672669359517336,0.905025456501177 -0.6365359080411044,0.19455769313822027 l-1.527031000436534,-0.7651954183392127 -1.7956299228025911,-1.6321562661285887 m-3.7168045954676003,-18.821366713539124 l-0.2969693287629103,2.202790363000132 -1.6005629503789502,3.564283655071623 l-2.696078935898094,5.02131268967363 -2.8538904992649448,4.164907850107271 m24.523669733592282,-14.866829859891157 l3.0424286792397406,1.9854523764370915 3.0137695835619946,2.7188844573910442 l2.413907454234232,2.92708831008447 1.1634986857528182,2.3897054188272624 m-6.161837742660555,0.05204002569235014 l-0.40029380075304555,2.5768532598057416 -2.192305537778402,4.717046644681678 l-3.466783330844199,5.142240724519796 -3.4864333782606773,4.186350010379202 l-4.033059088491612,4.089943668223534 -4.45392086857139,3.7691196793239077 l-4.825211297596583,3.2644631083428033 -4.9809116317631394,2.5400828621414804 " fill="none" stroke="black" stroke-width="1" /></svg>