<?xml version="1.0" encoding="utf-8" ?>
<svg baseProfile="full" height="107.54542389151607" version="1.1" width="89.63716331983737" xmlns="http://www.w3.org/2000/svg" xmlns:ev="http://www.w3.org/2001/xml-events" xmlns:xlink="http://www.w3.org/1999/xlink"><defs /><rect fill="white" height="107.54542389151607" width="89.63716331983737" x="0" y="0" /><path d="M25,25 m0.0,0.0 m26.488875136511023,6.416063563846843 l0.4641004419220045,0.35399273016214416 0.7767772244476256,0.8818793333564552 l0.37551149083242613,1.2257040251907303 -0.1457903667279041,39.52860310796193 l-0.3482158478005758,0.9645883375889175 -0.5390834977222722,0.4878561197082741 l-0.7799835528153113,0.09733782866474439 -1.8589031968554386,-0.7240146519485274 l-2.9098097881438556,-1.8532629766594484 m-18.830229041970068,-32.472520200456515 l2.63376827113447,1.1136770726847862 2.8384628002170635,-0.04477608578832906 l29.36313213276262,-3.9733557898030707 1.613753197725138,0.5237377443425837 l0.4947979163204273,1.1004011356233767 -0.7058720595323222,4.88609248643655 l-2.1306357309124024,17.964739574446526 -1.8444305954945905,4.9249498494272475 l-1.2873666932584595,3.4505277278208424 -1.4546637793658006,2.8811333038654654 l-2.6962589983121443,2.2517499987704004 -0.8947798296088683,0.09011856594058248 l-1.6008261265303465,-0.6049086086787204 -1.5055535054198004,-1.7420677272207024 m-2.672892131872099,-33.7503166714081 l0.1383682640212044,2.5973691804397503 -1.3677345626791282,6.86087403966621 l-1.8285814250813317,5.523705879983381 -2.3390872004794985,8.775377157115415 l-2.09677268429852,6.357941925282362 -1.9186756297834242,4.506079348098684 l-3.030102726912134,5.32695335095705 -2.7885746697233746,3.619193216098248 " fill="none" stroke="black" stroke-width="1" /></svg>