<?xml version="1.0" encoding="utf-8" ?>
<svg baseProfile="full" height="218.27355118943228" version="1.1" width="254.28741838106367" xmlns="http://www.w3.org/2000/svg" xmlns:ev="http://www.w3.org/2001/xml-events" xmlns:xlink="http://www.w3.org/1999/xlink"><defs /><rect fill="white" height="218.27355118943228" width="254.28741838106367" x="0" y="0" /><path d="M25,148.86083422077098 m0.0,0.0 m16.797590784633446,5.891093691707807 l0.44955327897519837,0.11332197330034054 1.7878344397533834,0.20545518204250332 l2.406834499688412,-2.1874005124721325 7.246953651491615,-2.3194909815026286 l0.5658796492904002,0.010799439906075056 0.5116115218125054,0.38974348446802876 l0.2785973516061284,0.6591257815303871 -0.13152782891499923,0.8419214564715397 l-6.344800590339502,11.454097641337508 -2.8032475180316494,5.294390712750823 l-2.7005691776435947,4.740801849608218 -1.9034557713639921,3.034442335534473 l-2.1071383204262433,2.9114839132114176 -1.3579018813326749,1.973327507659645 l-1.5907084528207818,2.767529970432333 -0.9400770909574955,2.764656655148042 l-0.005872269532359005,5.867416867526914 3.4863637906862066,-6.27877358957222 l3.0350689917531675,-8.660931704424382 2.5932211433895507,-4.672458491453927 l3.387171272536124,-3.71179822976981 3.4359690235124978,-2.812785690855169 l2.5617609883250014,-2.4808056110977192 2.5672212839861666,-2.960497891831093 l2.6210092438951316,-2.8098163619587657 2.584555968908233,-2.5761641616286948 l2.578708908560339,-2.7170823029987954 2.572787563906024,-2.770379792295341 l2.7312597375131413,-3.372946912879663 2.6775975246413624,-3.269006301177773 l2.782877815772833,-3.2392575715464322 2.7778643054432997,-3.344385557670181 l2.7792412574851166,-3.3104853029974177 2.963448578166455,-3.355595931144402 l2.9669959846147784,-3.6568071283659376 2.9310277940421683,-3.831887573268086 l2.8653034911442363,-3.8096885318849494 3.1440045049414493,-4.101922349251054 l3.0902060066695403,-3.8016751837929816 3.142705284158605,-3.8722048808902376 l3.119362200323824,-3.95504459256549 3.3024510261236064,-3.874057310473175 l3.2501230212138124,-3.7876831901609775 3.1468268508721455,-3.9001329233669284 l3.2234220713101496,-4.127050527339945 3.2839843273448937,-3.789569095854045 l3.3018532998790953,-4.098138215916764 4.757663726597465,-3.825145266206853 l3.315542783220634,-3.1776559800434425 3.2723669310295835,-3.8758705018624644 l4.98743542376735,-3.6399761025634447 3.282207655870793,-2.9830811054329267 l6.151028044867089,-3.7081437189304776 3.3348621423873928,-2.77853338551573 l3.4202476140895945,-3.693418790000538 5.188345098651609,-4.105762470795612 l3.5836286480601562,-2.8411565260430547 3.636208178581336,-3.693472002879997 l5.234809919234338,-3.8099333878029262 3.8130792713916044,-2.922060045067637 l3.7221980060405473,-3.6357848518498526 5.347637615991909,-3.4067563168218067 l7.91704186330018,-2.474933221113812 5.404688437212718,-0.7353538660107057 l5.542474710419998,-0.017480742058630414 4.85903891355811,0.8333684118217697 l4.01230971343278,1.4284578918009445 3.4437800786959087,1.6814621831162897 l3.1297684895971147,1.9793292386590668 2.726891446537961,2.669544468374415 l1.850137024474378,2.6330356066811635 1.5449213129503854,3.14531841769225 l1.0403532673605271,3.4744961156931913 0.6547077285574533,4.578947788316994 l0.050094798177960094,4.460563745979807 -0.5350149241179908,4.691064883332506 l-1.0222568860436079,6.17531049665681 -1.209054878790239,5.426145793233714 l-1.2597832400507274,5.639059840548631 -2.607892716685366,6.728399663662817 l-2.7318112336210696,3.3633877992544634 -2.8312785834776375,2.1450835571729576 l-2.0038848673767418,1.4974373014903264 -3.436435618834365,1.9746196281120203 l-3.8290399051392536,1.1026568647808959 -1.9482453084151765,0.2368204439300519 " fill="none" stroke="black" stroke-width="1" /></svg>