<?xml version="1.0" encoding="utf-8" ?>
<svg baseProfile="full" height="103.75439609226538" version="1.1" width="106.89379110379568" xmlns="http://www.w3.org/2000/svg" xmlns:ev="http://www.w3.org/2001/xml-events" xmlns:xlink="http://www.w3.org/1999/xlink"><defs /><rect fill="white" height="103.75439609226538" width="106.89379110379568" x="0" y="0" /><path d="M25,25 m0.0,0.0 m10.22415254657461,4.3308571175986 l0.48493518676248765,0.18604435886983592 2.331276067520623,1.1592167782613034 l2.17455499887412,1.3365019291814484 1.8197279804432436,1.4555665960280018 l1.2324634418651887,1.4047919170337309 m-11.926712816155685,9.638324273097599 l2.296536203731138,1.005696016184304 2.3911930554631446,1.3595492780987042 l1.9617468980940145,1.4482543846262677 1.1054420341743185,1.2598815345349024 m-6.475152239103796,23.162578127804714 l1.0476420503441224,0.06884171656524235 0.8303818422635801,-0.6438571674099858 l3.1924280801765064,-5.218248430817384 2.8270712417989907,-5.457563514436204 m8.831494805006194,-28.42033893165837 l3.383491550409624,0.1768641496475012 18.98558086618017,-2.171799523108265 l4.341322164085257,0.06822767430935714 m-29.85880378245185,17.132214867937122 l1.5428449123661887,0.31530545188664943 2.2152787512182086,-0.001553481891357514 l23.211409929013094,-2.1566418290376537 5.744438529448901,-0.26818206932672856 l2.9790468056932764,0.26688388064483004 m-19.372278651822615,-12.401414364485666 l0.8535116637395431,1.4300711360537035 0.19502049048976802,1.2519848411037677 l-0.04581807258760109,42.0363393749694 " fill="none" stroke="black" stroke-width="1" /></svg>