<?xml version="1.0" encoding="utf-8" ?>
<svg baseProfile="full" height="94.33578381187283" version="1.1" width="103.13990532243268" xmlns="http://www.w3.org/2000/svg" xmlns:ev="http://www.w3.org/2001/xml-events" xmlns:xlink="http://www.w3.org/1999/xlink"><defs /><rect fill="white" height="94.33578381187283" width="103.13990532243268" x="0" y="0" /><path d="M25,25 m0.0,0.0 m9.977275775922646,3.9381281530609633 l0.5005538810199244,0.20069238320588104 3.7558766435795836,2.23136959996859 l1.6464410667522613,1.2722050614715115 0.8384437812947609,1.012666053133923 m-10.965795885338588,8.300269296372882 l4.245430008710182,2.0445351008464443 2.1067895609438945,1.5248105358504394 m-6.204280769240412,23.27930514146873 l1.1452953902028031,0.5318024864934617 0.5847717250100569,-0.01515695091709219 l0.9385705243287114,-0.6379709298048869 2.4030573652259726,-4.220677499132681 l2.5597632136878925,-5.15606378362887 m18.820402133392744,-20.617929430443315 l10.3665238458047,-1.140458142892909 10.420787061135545,-0.023677139146559407 m-18.84471761062605,-11.821479199944537 l0.8981204895089279,1.0770299750166397 0.3350540802274474,0.9988168933806141 l-0.08415838582475843,21.879326499147016 m-12.229444053124993,0.7153506025013182 l0.6449833219893576,0.8437625695818782 0.6414683094617171,2.8968107907830456 l1.6388349153307502,12.27897051031617 m-2.050650428951639,-15.073308056959457 l25.403929034943175,-1.7330671027944746 0.8911146412672912,0.6594619441234874 l0.3504993868528178,1.5134236860513262 -2.7664432965680406,11.793887167837195 m-21.496210027714255,1.2771952293414663 l22.712949806110974,-1.0202065398536746 " fill="none" stroke="black" stroke-width="1" /></svg>