<?xml version="1.0" encoding="utf-8" ?>
<svg baseProfile="full" height="101.87497712442192" version="1.1" width="99.6202576425676" xmlns="http://www.w3.org/2000/svg" xmlns:ev="http://www.w3.org/2001/xml-events" xmlns:xlink="http://www.w3.org/1999/xlink"><defs /><rect fill="white" height="101.87497712442192" width="99.6202576425676" x="0" y="0" /><path d="M25,25 m0.0,0.0 m10.965658077513496,14.282517199756834 l0.46228029456556424,0.14554853135699133 2.9423684810555284,1.5090587125853254 l1.3211106117880327,1.0854206907143071 m-8.450964320749588,6.9289309801017644 l3.6954919697435584,1.6236506128967771 1.8608023244423935,1.2788709134008542 l0.6660684908252262,0.734803447255923 m-6.183362906156616,18.48754004349819 l1.032051137041915,-0.005697128541638551 0.8026257320422373,-0.6795094013582929 l2.1154196633026077,-3.4892168378125126 2.235202649861964,-4.455574788685126 m7.965917672291739,-19.25347070791555 l2.1168867079472173,0.1373472058000443 15.339732996811472,-1.929659053840412 l2.2531744302272765,-0.15970025150183162 1.634924332457262,0.14229657272017682 m-11.449826250494018,-5.192989581429582 l0.7523609975437034,0.590540506716878 0.41447595316132907,0.7884056129929312 l0.05216861588470158,11.086857071995428 m-13.983035766586708,1.007828721659854 l1.821272341983906,0.25486964501670223 1.7160037182870238,-0.026235905062806656 l21.54138776437128,-1.9105253086532505 4.07031220886828,-0.09120460723840293 l1.909749714536814,0.2683491362145974 m-22.657418869863648,2.7753344456866818 l-0.03845345307576838,0.7652712239977505 -0.42274827515576613,0.9543645242932588 l-1.907973928871427,2.8960057443724505 -2.5224444439374714,2.4698574434060587 l-2.963197234871469,1.9776808569417583 m16.75478481798899,-10.495027260606486 l0.6157348365232093,1.1017794147966398 0.025894116116217253,4.095945778214045 l0.3049598874778791,0.8015000521101996 0.5808858928091757,0.4924174081932506 l1.647243749695953,0.4444258052760297 3.28088660600524,0.13451884165965095 l3.022943911818679,-0.14354061347662503 2.3397818621435102,-0.49992603985231476 m-20.619273677093368,2.086584124426789 l-0.07122030001440523,0.8948077270148533 -0.330877808236671,0.8151369031277758 l-3.148609477009967,4.546699218950552 -3.1436131559399847,3.5087658408268054 l-3.680621137860839,3.1134390870521536 m10.50721881271442,-8.907602612582613 l2.2954370912444393,-0.07195793671954055 6.072331243531283,-1.4156025156333303 l2.0775158607052044,-0.2714368500543557 0.5111551923155958,0.17052473543851007 l0.24219620188544888,0.8309867383905418 -1.338987272362021,1.88826718258342 l-2.0153851496845285,2.197470581491232 -2.554414141766546,2.400428433314 l-3.0545600745029353,2.4842606102358546 -3.4776474190076216,2.4283314214332514 l-2.7582747539740224,1.6591882862103708 -2.908383033730887,1.4545538154387787 l-2.897491481748641,1.1324726758203658 m7.363529772438113,-12.620128233950854 l16.39705627832274,9.758602169140334 3.1851975685132787,1.374534727339634 l2.843737676517213,0.9363992076529413 " fill="none" stroke="black" stroke-width="1" /></svg>