<?xml version="1.0" encoding="utf-8" ?>
<svg baseProfile="full" height="100.1260493526756" version="1.1" width="92.24094060045574" xmlns="http://www.w3.org/2000/svg" xmlns:ev="http://www.w3.org/2001/xml-events" xmlns:xlink="http://www.w3.org/1999/xlink"><defs /><rect fill="white" height="100.1260493526756" width="92.24094060045574" x="0" y="0" /><path d="M25,25 m0.0,0.0 m6.6477353572091635,3.6272548995185936 l0.502089111394259,0.235016832092617 3.52184677437397,2.4454286263862115 l1.5025581811087365,1.4242016167867513 0.8056853422690937,1.1862888177926456 m-11.363945168589881,8.221111604346717 l4.169614287734673,2.2819111449750658 1.9327998606757397,1.570101380347247 l0.7868874358652289,1.0300720344271834 m-6.9669173909047775,28.10466239600256 l1.1884174224166644,-0.10295215516725113 0.9648588069890575,-0.9092933385867958 l3.532755975788404,-5.129305091149654 3.5212027011724936,-6.63600969370193 m9.796800136691944,-20.559617316864827 l0.7324807188997131,0.9971718899307144 0.28283224639229126,1.1494651103533111 l0.03797345245232489,26.062033282688084 0.2653920094349893,1.5848115675711894 l0.46895265374678957,0.5499197495093506 0.654647980852647,0.21080984690239057 l0.7942471020498495,0.009696320357311399 9.073892015760393,-0.08618091455999875 l3.419385545975182,-0.29287819284790556 3.285466306916496,-0.4757196231786719 l1.495112231387249,-0.6503190874805126 0.8783857852803306,-1.1929557423552735 l0.3097837171127297,-1.9986812948418164 m-33.60841418957265,-31.779771872427247 l1.9379664098406368,1.0590013337096638 2.2725567764827934,1.7091261422092265 l1.7237675371626777,1.7721634840296379 0.7414860114822123,1.12809027210886 m-7.58355549669827,13.066462675584921 l0.9460947164644403,0.24004403062910856 1.0032436995278025,-0.24572259664778667 l7.71747746723642,-5.201412248220665 m21.14645568484404,-14.982790576547051 l-0.10551599398373898,0.7715765212354766 -0.4558709278307478,0.8523536447859762 l-1.9476594868443915,2.5963308265879292 -2.3203711186604816,2.076033194673814 l-2.8438921508836565,1.7421607004267727 m1.167146116721381,6.5943988198580135 l2.248546253785604,1.5159990666067176 2.604917884313374,2.479190520957662 l2.1470719716268873,2.589403092756551 1.1395420178179256,2.0060165188441506 m-8.94656327585437,-32.279361213457115 l0.41367778548794815,0.9764845157229808 0.1381802851489332,1.6633744906094754 l0.015563209390521143,38.742624443106735 " fill="none" stroke="black" stroke-width="1" /></svg>