<?xml version="1.0" encoding="utf-8" ?>
<svg baseProfile="full" height="111.25596201897145" version="1.1" width="114.3273530725369" xmlns="http://www.w3.org/2000/svg" xmlns:ev="http://www.w3.org/2001/xml-events" xmlns:xlink="http://www.w3.org/1999/xlink"><defs /><rect fill="white" height="111.25596201897145" width="114.3273530725369" x="0" y="0" /><path d="M25,25 m0.0,0.0 m4.324111039850013,17.99491112256776 l0.5487364582688901,0.1897689891510356 2.5006893277751767,1.027815113281399 l4.633026576194917,1.2285081215868416 2.1741752417815308,0.8221534127930836 l1.3911933641216228,0.7317615190537294 m-13.673201411733565,6.057142758069265 l5.588582416560973,0.7574592980190135 4.187709666216693,0.7767382970399589 l2.740715725531014,0.8768906625161218 1.7362717823427298,0.6036604786923059 m-12.746530878833612,18.304821218515777 l1.6309443166409394,0.4038940672761805 0.7643526747442188,-0.015706323900176566 l1.2765389000490242,-0.5345853324059324 3.645523718377106,-3.4150929506187913 l3.77949922174301,-4.0542925579559235 m42.818018331362715,-25.74292082485123 l0.10135038973516489,0.3765248589194371 -0.23182153096655397,0.4785664692634466 l-1.8056460750247179,1.2125304556565808 -3.7758765223682365,2.0131319457375225 l-4.130441790511599,1.6471106142800862 -8.903856111642177,2.424155698818843 l-9.749491272332792,2.0447613952800405 m0.46529110526134176,6.31792155429596 l1.587229646118832,0.8151212982305334 1.997139407873502,0.09952686795260908 l24.638688751591935,-3.698237048774913 2.0351320981730034,-0.2559303301704382 l1.8781121898114774,0.1354874815759431 m-19.062503692092452,11.062366120100805 l7.614109958329972,0.41047421036696596 5.2298047690072,-0.6018737674143937 l6.2074286586098335,-0.06910443141738522 1.4389476548357383,0.1840974610529713 l0.8514322350412327,0.3020964069131781 0.6219667320927987,0.7669216496931898 l-0.17313252560372894,2.7536905141685484 -1.4926642774534367,5.22854147873952 l-2.4244666042702265,4.936148237483897 -2.811487808743996,3.8312292483633845 l-2.4915862195531537,2.238868265315926 -1.5624572220481427,0.575357229383737 l-1.4714088388586788,0.013551066325022048 -1.3813324710375425,-0.42636131126628546 l-2.1719767474139804,-1.507458854283175 m1.3604076301296126,-20.39757760384686 l0.16244286853428075,0.8413484032639436 -0.2747818843664815,0.8208025712330854 l-4.708661759704792,4.124493440914451 -5.653123235738847,2.9579565887842296 l-7.420032841523173,2.9790448384605055 " fill="none" stroke="black" stroke-width="1" /></svg>