<?xml version="1.0" encoding="utf-8" ?>
<svg baseProfile="full" height="94.22213142998862" version="1.1" width="103.84273942134801" xmlns="http://www.w3.org/2000/svg" xmlns:ev="http://www.w3.org/2001/xml-events" xmlns:xlink="http://www.w3.org/1999/xlink"><defs /><rect fill="white" height="94.22213142998862" width="103.84273942134801" x="0" y="0" /><path d="M25,25 m0.0,0.0 m8.036534887523551,6.736665287703764 l0.488779958824692,0.1853769060287845 2.1487183500261913,1.0195816025437796 l2.6298997937935544,1.482844661582546 1.8904955044148035,1.4663880500375936 l1.0030322775370775,1.2340302755160788 m-11.783326233015991,6.746298992173119 l2.245940567321544,1.0085067298479273 2.3744799788535516,1.4133847517443705 l2.01826193317496,1.5175465186069887 1.1058326028491,1.2830108678298675 m-8.84319483886652,19.668934408114957 l1.2862149137862218,0.4595623782588455 0.6377769912533384,-0.01782796308550802 l1.018500596946742,-0.605022246874779 3.156260558126698,-4.730988397509188 l3.4649223434429457,-7.762433461483334 m4.6547908870243795,-16.625252127765584 l3.377951834691153,0.17979607935618927 25.983389949990315,-1.4988225848126207 l4.529401439468074,-0.08632827580756705 2.418075124181626,0.21270066765293966 m-20.018064737511178,-11.840562021813312 l0.8835092100761357,0.7246952444899718 0.47328190812416504,1.2903578569407759 l-0.17653339803321733,22.476667087579145 m-12.61390062046481,0.6283287546982355 l2.5343226732340938,0.059619304278893816 17.960042409389523,-1.272685546872872 l6.370263644166874,-0.1691937678898008 m-28.32250877337796,15.361458942682164 l0.8812898931623305,0.15557422299228735 1.2399584223433118,-0.02128488595275688 l22.139449169292263,-1.77249233451742 2.8728963839021584,-0.17512492993580395 l1.5308887343485906,0.1854569860643736 " fill="none" stroke="black" stroke-width="1" /></svg>