<?xml version="1.0" encoding="utf-8" ?>
<svg baseProfile="full" height="109.3968369637787" version="1.1" width="96.59587731258112" xmlns="http://www.w3.org/2000/svg" xmlns:ev="http://www.w3.org/2001/xml-events" xmlns:xlink="http://www.w3.org/1999/xlink"><defs /><rect fill="white" height="109.3968369637787" width="96.59587731258112" x="0" y="0" /><path d="M25,29.151467275457676 m0.0,0.0 m14.863025034268,3.526973292647314 l0.4108919224283418,0.1951496669848349 2.408072231473597,1.9468744879927316 l1.3375313980097208,2.123989054198292 m-8.557954607873764,5.072028003836704 l2.737999060517943,2.0406765162401586 1.510318452469155,2.0434605216680954 l0.5463089907716979,1.1331064336155612 m-4.897670747351666,16.654601762117313 l0.6484122382953204,0.4414859125827035 0.9420676503782388,-0.02086974616829095 l0.9849662360825159,-0.5393212781442202 2.940078328404311,-3.6875568289376672 l2.8152229827392414,-5.061634108304808 m6.768789285018009,-21.35470984852159 l0.4289223282406655,1.6709271845123703 0.03923921218536555,3.5453181151442137 l-0.3226124521909528,5.887150421456833 -0.6245131828772296,4.865553822545756 l-0.7097881279703842,3.1546494803178535 -0.9598206525295828,2.818499599712502 l-1.246695039108035,2.6729638507560125 -1.466759273977057,2.537892343922593 m5.8897353827444165,-25.82926863586872 l11.134289616610124,-2.208898016741495 4.339904808768516,-0.5595161049764613 l1.240847264391013,0.2305989977552169 0.4138535825864748,0.47427003394608735 l0.02964298288063699,0.6874343992326265 -0.858153322401747,1.647791151228444 l-1.1901705382223342,1.656924167562454 m-8.149829154720981,-11.918011927771103 l0.43467209655518463,0.6503848782525065 0.3439802136601645,1.4343898994152484 l-0.012825323256900929,15.099643389403248 m-5.7435710695876585,1.9865582347045407 l2.123694717971681,-0.02758353657601997 8.166755123283743,-2.4950254964980423 l1.1456916082497812,-0.04837861094723211 0.4866722554150629,0.37405338805746713 l0.2342606375279777,0.6234686644404681 -0.8774229526239565,2.372555946584334 l-1.9761766445008258,3.9288593281830075 -1.9630496470490988,3.329323204467566 l-2.1313045315259758,2.973569656090203 -2.29736098692049,2.6375242788958544 l-2.487392420834352,2.3246860541326417 -2.6430059904558987,1.918926092090009 l-1.9838594603039408,1.101220629151907 m4.326998808391204,-15.182048705824704 l1.4768496013203498,0.47715241559543103 2.0360689204822227,1.4187130862858803 l11.375214409159986,9.48727816551951 3.1148360575832834,1.8337833145140119 m-32.8421055292637,8.248866598992915 l0.6486578139732204,0.2839124480622354 0.9692513964248897,0.05294131401269275 l11.626722797982088,-1.6731395356369934 9.702740854607459,-1.2538135514577438 l3.843434849938192,-0.27087966480071407 1.7041420650916752,0.27660027543383553 m-14.850786004975564,-12.230360046080216 l0.5865683553373615,0.9128243912564069 0.23754009471810056,1.0933847595562696 l-0.13336012908501885,25.55262497544252 m-15.801294600731703,1.7992478471436004 l1.3311759727399892,0.3705006130122627 2.105955913573758,0.015072262903789213 l26.810316244690153,-2.563876488202 2.5168710162554753,0.33679444454451707 " fill="none" stroke="black" stroke-width="1" /></svg>