<?xml version="1.0" encoding="utf-8" ?>
<svg baseProfile="full" height="102.25384466870403" version="1.1" width="107.8908878356261" xmlns="http://www.w3.org/2000/svg" xmlns:ev="http://www.w3.org/2001/xml-events" xmlns:xlink="http://www.w3.org/1999/xlink"><defs /><rect fill="white" height="102.25384466870403" width="107.8908878356261" x="0" y="0" /><path d="M25,25 m0.0,0.0 m11.188039520434797,3.9259131831316862 l0.5426292634885832,0.22415414716457227 2.3487123876233817,1.230016817083776 l2.338175184759548,1.636165665595572 1.9162564673139406,1.6884785753348386 l0.7526090407580557,1.0437422592062788 m-11.0400521851059,10.980317336377713 l2.3504846192432725,1.1359451690443079 2.4495067679561733,1.541893415741828 l2.0124589790206833,1.6150246613407406 1.1299630340778932,1.371506223087892 m-7.597307389021315,22.479954070859467 l1.2285202003393105,0.2311489352699956 0.9948593043772112,-0.6461007742729202 l3.2685419125518997,-5.418502444315234 3.900082676347857,-7.904918568155195 m7.202274468375745,-31.300541420698078 l0.6099582953255539,0.863542618463001 0.3205748212581378,0.9694083156148503 l2.352930468352862,15.513609385465191 m-1.8326398839054552,-16.638287011859518 l20.808356005968403,-2.9515437229046295 1.2179714187226898,0.26790244341419595 l0.852627223114263,1.0453679993371972 0.18665677529332445,1.4466959697475448 l-2.324685080671317,13.61977389592687 m-18.11676205125441,2.317642147923501 l19.4044409058444,-1.8572020085895904 m-15.475463545402361,5.645678684348921 l-0.06993959135491401,2.6477027604264904 -1.1125858401008553,4.56879433848061 l-1.493451319522469,4.292193612004308 -2.124821051986301,4.548087126542815 l-2.2476883849949783,3.661657625798712 -2.0326176531063878,2.695404958801684 l-3.2171831643461455,3.433355182969917 -2.8095903660705734,2.3298630949947117 m22.057770499414445,-30.630397803951645 l0.520080142926612,0.8989912981711649 0.2554402253738466,2.149779785211363 l-0.1454856669245514,20.265756025238723 0.2885939203460327,2.126685505820275 l1.8693562227261402,1.4146551837045378 2.979884080243265,0.3824952593753298 l5.810507082986611,0.03744290664216292 3.665143256032224,-0.5342533980012585 l1.3533706260019054,-0.7616732142903502 0.8703406354523441,-1.4253594304653487 l0.3864128859511719,-2.139401442158888 0.09763169139144978,-2.9185913453392778 " fill="none" stroke="black" stroke-width="1" /></svg>