<?xml version="1.0" encoding="utf-8" ?>
<svg baseProfile="full" height="102.12407799480212" version="1.1" width="99.79173158306014" xmlns="http://www.w3.org/2000/svg" xmlns:ev="http://www.w3.org/2001/xml-events" xmlns:xlink="http://www.w3.org/1999/xlink"><defs /><rect fill="white" height="102.12407799480212" width="99.79173158306014" x="0" y="0" /><path d="M25,25 m0.0,0.0 m8.68328251272369,12.392498680569268 l0.497639691826467,0.1814243664404909 3.3515931990563024,1.9242261717427913 l2.308278961615193,1.856622092387357 m-9.142711402883883,9.307556455137437 l3.9339559859031317,1.9248463486963523 1.779894777727835,1.4390226770174397 l0.7396765233602927,0.9279523531620184 m-5.64797049380113,22.16992884964896 l1.0687390116103244,-0.13092406094521145 1.0595879477430474,-0.7590206149934554 l2.627113784084171,-4.29849359772374 m18.594659843880947,-32.5669506942408 l-0.11041115194265665,1.1768816637414232 -0.422410138909627,1.2503493561867425 l-2.428954837946816,4.1012740281282465 -3.282000406575301,3.9074732830568975 l-3.871703946353527,3.3715403165033497 m8.588387113899163,-7.12708166491147 l2.7094022737862025,0.1412076804520804 8.935608967295869,-2.0875480076778175 l2.000428279199772,-0.23095871269751309 0.4764581330461565,0.1806378612105865 l0.21653448469854591,0.40155027585537 -0.3696461536862659,1.187422218286279 l-2.0692138844026773,3.8820596043243194 -2.2085564661829347,3.0973114693203745 l-2.5622989295889163,2.8663097907367887 -2.8243513828537545,2.433859227951606 l-5.857620053824199,2.334285346735733 -3.458799601524528,1.4665423734435956 m5.878539336475309,-11.075050855513252 l2.8655961469011224,1.602187549752027 2.6910834527245195,1.7322208088495001 m-10.529455422425684,2.340857405058321 l2.1499577556170766,1.909107531875183 1.563869666832515,1.729939198859202 m1.9565608879723557,-3.6701036126296804 l1.7914431499347687,-1.15721515387999 9.393364776865655,-1.9693522244581085 l2.720438940275558,-0.0007230675875373254 0.33536531943740455,0.2484252461694808 l0.17929331215379074,0.430200422744205 -0.07952262499814326,0.5611015080196576 l-1.6791974567489587,2.4699255094763326 -2.155966912767407,2.471080200884645 m-7.771518856996638,-3.1080357385376054 l1.5843779644764213,1.3826702550820624 1.3079744415585286,1.4803988343489833 l1.1285124755168625,2.605786468389249 0.8450848703534201,3.1886247684107 l0.2737524302136782,3.292916152760648 -0.42880044876599843,3.8344834797557215 l-0.952513088461806,2.755130566704187 -0.848228226829806,0.5967317530855297 l-1.8452156702924507,0.061391052112703216 -1.7676325944106468,-0.6682775721995027 l-1.134862766713014,-0.7355479280674079 m-9.729339981504793,-11.18680646743666 l2.33274243145442,0.2785014340372303 21.135919979434377,-1.9786035764060317 l3.5022400499322264,-0.07465216074217461 1.7632756048645726,0.25218440360004485 " fill="none" stroke="black" stroke-width="1" /></svg>