<?xml version="1.0" encoding="utf-8" ?>
<svg baseProfile="full" height="106.00527726248478" version="1.1" width="107.43018009202947" xmlns="http://www.w3.org/2000/svg" xmlns:ev="http://www.w3.org/2001/xml-events" xmlns:xlink="http://www.w3.org/1999/xlink"><defs /><rect fill="white" height="106.00527726248478" width="107.43018009202947" x="0" y="0" /><path d="M25,25 m0.0,0.0 m8.868052251643455,11.176418990863423 l0.5341841859159053,0.2154192975766785 3.608283096795416,2.2704394336161595 l1.5188823374399123,1.4453173508232298 m-9.415127831713793,9.278396311285658 l4.171215193390527,0.8273983068331644 3.1056822199480343,0.9221010370455714 l2.0689606558732727,1.0647186309840655 m-7.419857126058691,20.65439456042726 l1.7665595761507846,-0.25299992227065704 0.8200009120923372,-0.868917524467991 l2.5320223587135917,-3.9824330919083537 2.9601797430199714,-4.928057363759463 m21.43556270841863,-28.086706414936863 l-0.20652379285064337,1.2318791939369444 -0.5162536977170769,1.182050143178762 l-2.934931314936563,4.084170165013678 -4.113702165350925,4.029254193978424 l-5.488636724191895,4.3321116186239506 m11.637186296304408,-8.422182615166808 l2.930060828588368,-0.2838877240799057 9.180972409047016,-2.3038872344605474 l1.5888332988308744,0.031732789201181125 0.5014613889343669,0.35672112744955303 l0.17713501856428843,0.5237166185027452 -0.8363454206284594,2.10260635157557 l-2.400741633032418,3.724945717715519 -2.733972958424088,3.45767151807488 l-3.357516551343384,6.248840284261253 -2.492953799980137,4.045375870471232 l-2.6411348573101514,3.6155543745058303 -2.922959503457209,3.577900196565867 l-3.189488995004608,3.572933552736216 -3.3914320107174554,3.482918660403907 l-3.5208649759001407,3.255949279607163 -3.7766396547953915,2.962073319197681 m9.340558957314137,-22.420925060478613 l3.5423513138098053,0.9403461602318448 3.2880378819198,1.0787341903628602 l18.040355463062053,1.3544759332603455 5.172725009665552,11.669118016324207 m-19.373686179208477,-8.649299564671212 l0.5478648277815916,0.3548962857466688 0.3727668487287722,1.3586787129823048 l-0.05427560356867972,14.31805535836759 m-12.73834880021714,1.1143424086597131 l1.6640446818079737,0.34291781829409235 1.8457327296027994,-0.004211925091157132 l22.773537638081084,-1.2563493042432166 4.198232636463916,0.2953118289759288 " fill="none" stroke="black" stroke-width="1" /></svg>