<?xml version="1.0" encoding="utf-8" ?>
<svg baseProfile="full" height="105.3500054879319" version="1.1" width="109.39282569852045" xmlns="http://www.w3.org/2000/svg" xmlns:ev="http://www.w3.org/2001/xml-events" xmlns:xlink="http://www.w3.org/1999/xlink"><defs /><rect fill="white" height="105.3500054879319" width="109.39282569852045" x="0" y="0" /><path d="M25,25 m0.0,0.0 m10.14754994002349,2.2411570076331424 l0.5298877360397793,0.22581633070887341 2.636784464744973,1.3333825425005952 l2.3240357372985176,1.443766771428013 1.986950016556999,1.5902414042447361 l1.4278017307360862,1.5958957707890533 m-13.057749608741606,10.54813027456784 l2.350184624618621,1.0955369092813898 2.5292297982624046,1.596529142836881 l2.080737673302913,1.6833487023748686 1.1799709846636215,1.45578093465656 m-7.130595445904547,25.630076359354213 l1.1747282188775483,0.12468103843047838 0.8775570094939933,-0.6814668736546327 l2.98695405385564,-5.674506836447179 2.8603387648547267,-6.447868948132188 m9.536159870158516,-31.21688455771482 l3.7462487065530463,0.2327946545277625 20.577009497129808,-2.380540268538774 l4.63486460109716,0.07301842010351228 m-32.405980220433776,18.579561769090187 l1.6686816384532026,0.3466012927865676 2.4063531209531996,-0.014110980747709265 l25.16492442938638,-2.431586104257574 6.048685266719187,-0.29320453351856773 l3.111513089820556,0.2855592651953992 m-20.79156970204055,-13.738662607538368 l0.9051481971370636,1.6250097026064994 0.19062103433843464,1.4269028775842691 l-0.060325212629297645,45.09504602778087 " fill="none" stroke="black" stroke-width="1" /></svg>