<?xml version="1.0" encoding="utf-8" ?>
<svg baseProfile="full" height="102.19542946693042" version="1.1" width="96.82772805953599" xmlns="http://www.w3.org/2000/svg" xmlns:ev="http://www.w3.org/2001/xml-events" xmlns:xlink="http://www.w3.org/1999/xlink"><defs /><rect fill="white" height="102.19542946693042" width="96.82772805953599" x="0" y="0" /><path d="M25,25 m0.0,0.0 m8.176216634406623,1.6928791446339655 l0.48184218306872567,0.22266801449433707 3.476358505009801,2.378480641278134 l1.329010813877532,1.4087326885043239 0.7251230511118463,1.1323467448011753 m-10.555158532071529,9.018274372253888 l2.1345032861191275,1.01621824267074 2.1892889881624242,1.4108148498414763 l1.788345881840498,1.4935638636281285 0.7019194936916135,0.9305834063031452 m-6.73893667665399,24.364478656238482 l1.0859121763800104,0.06735123171937131 0.8340967120953294,-0.733608356436088 l2.4695941518078266,-5.097746438066702 2.556805504138816,-5.938419943996755 m9.023694020628465,-17.56875211193277 l0.6150950920507939,0.7786638341399638 0.3232501902307139,1.0203339287600794 l1.8068652287294062,13.022071286362177 m-1.53469443160279,-14.07910489652321 l19.794496294884524,-2.5545124013009857 4.3691607073499945,-0.2868127377349163 l1.133921887419379,0.3394206813714708 0.6410168968608405,0.960493446683582 l-0.14558407169742635,1.5189438984169923 -3.166667888281681,10.470880855309854 m-20.62766038767491,2.268475819372891 l21.636166552970526,-1.5110800928929804 m-12.392339564090808,-27.308693838767752 l0.43521125310318387,0.835057847338526 0.2790349825459198,1.7664718949304736 l0.013615760527464297,49.156954935529406 " fill="none" stroke="black" stroke-width="1" /></svg>