<?xml version="1.0" encoding="utf-8" ?>
<svg baseProfile="full" height="115.71130077484003" version="1.1" width="101.22607096920068" xmlns="http://www.w3.org/2000/svg" xmlns:ev="http://www.w3.org/2001/xml-events" xmlns:xlink="http://www.w3.org/1999/xlink"><defs /><rect fill="white" height="115.71130077484003" width="101.22607096920068" x="0" y="0" /><path d="M25,25.496381673232356 m0.0,0.0 m8.742303603530189,3.883228099578913 l0.4620650840845978,0.2037640404782931 2.042907535008379,1.2245064012395948 l2.4154244300955874,1.62055011884147 1.840396352117893,1.6510660821205025 l0.9538830337611801,1.3444022565767955 m-11.457438529636391,7.957514372798228 l2.137638529387411,1.0788944374217473 2.2659915376563156,1.4983665325551294 l1.9245094547359838,1.625078196162773 1.0566317059531622,1.3700632721466894 m-8.254916275413953,21.974489081685817 l1.2031070881889534,0.5126874009541134 0.6001075536605535,-0.022410187670311357 l0.9698951665961656,-0.6715653955537432 3.006448077140136,-5.679811884692808 l4.333093315014008,-8.882452829016687 m4.91273379457732,-13.921487538648888 l3.0306081092000263,0.2233079445376313 23.480000699479138,-1.9244213372596368 l3.420197470877926,-0.13700298071337955 2.140483233186093,0.2451552370584996 m-17.935444417060985,-15.670302993833095 l0.8525917026528116,1.1732666478629918 0.26890351809024104,1.5982509745673013 l-0.09483543961278128,27.720751197231166 m-16.07933308761822,1.2174881783487612 l0.8028872848989307,0.2944255160443104 1.331307063947606,0.13226517951015468 l26.707624777315342,-5.289303889584169 m-5.004782354566153,2.510770577378945 l0.5315396361368849,1.2647802778237967 -0.008734129238151658,2.167927793931148 l-1.7320501696662938,5.6400356720842435 -2.352298063873296,5.594387704252428 l-3.2102970563360524,5.821300930669522 -3.589803935395409,5.009424056153151 l-4.166400526712585,4.477127088518801 -4.803417008429442,3.8524711428603564 l-4.434718921712645,2.52593172718712 " fill="none" stroke="black" stroke-width="1" /></svg>