<?xml version="1.0" encoding="utf-8" ?>
<svg baseProfile="full" height="91.40323123257332" version="1.1" width="92.71447087234195" xmlns="http://www.w3.org/2000/svg" xmlns:ev="http://www.w3.org/2001/xml-events" xmlns:xlink="http://www.w3.org/1999/xlink"><defs /><rect fill="white" height="91.40323123257332" width="92.71447087234195" x="0" y="0" /><path d="M27.622506142408263,25 m0.0,0.0 m22.148998093968036,3.232793659387719 l-0.010495984861568535,0.4650403940950221 -0.440674054306999,1.0944039077394767 l-3.8921971178990478,1.6315040548999933 -5.668112728044616,1.675900051473273 l-9.219659723342989,2.3847262831234457 m0.33566263897204934,-0.5527990641021888 l0.24785319508444054,0.6575340507978275 -0.24498770407864526,1.0452756399723646 l-0.33091582369338085,3.958888805218083 -0.7951731869064217,7.537132376865011 l-0.3635102551071706,2.3932157706352615 -0.4430839582585992,2.330893562832628 l-0.5699551827324052,2.5864385705877107 -0.7967736649126818,2.6601290447644477 l-1.1222454141795726,2.559810924902164 -1.45723527210869,2.2500387277424725 m11.703461751018954,-20.21171174683334 l1.443056988786256,0.03814274015234631 3.333130056863749,-0.04308633321329345 l19.052662383453036,-1.6711960608837844 4.712070432757064,0.09222519434668001 l2.470089259462897,0.1734238495795579 m-16.96389925721754,1.8624793977197485 l0.3083373171584124,0.7891937250154292 0.08445512159675805,0.9703519526430278 l-1.5004459691955074,21.492481753112227 " fill="none" stroke="black" stroke-width="1" /></svg>