<?xml version="1.0" encoding="utf-8" ?>
<svg baseProfile="full" height="119.46833593207394" version="1.1" width="104.04039413155463" xmlns="http://www.w3.org/2000/svg" xmlns:ev="http://www.w3.org/2001/xml-events" xmlns:xlink="http://www.w3.org/1999/xlink"><defs /><rect fill="white" height="119.46833593207394" width="104.04039413155463" x="0" y="0" /><path d="M25,25 m0.0,0.0 m25.876712182533918,3.830364669037366 l0.4223154849702094,0.35395417816340324 0.5955943378925496,1.530685669713801 l0.042349124372184514,24.069227956521324 m0.325314300440793,-15.286093681200006 l12.388816146112973,-1.3621172153173313 3.067014602314584,-0.06936308244779671 m-27.708928082299266,0.20125138073370505 l0.7662378529040131,0.8754164167816127 0.28432326535567365,1.0786509015974726 l-0.09663918120795743,17.68660774826648 m-7.776911377228675,0.4621862619443015 l2.095097725974835,0.5219995926076928 1.6507655264068883,-0.011973125722268057 l32.22705904580973,-8.241941467059446 3.2776446688974628,-0.2999496729597183 m-20.674756378583673,4.8011427153306245 l0.5622561960833833,1.3377718955068492 0.1364616818054483,2.3663073642381707 l-0.2830869799660619,21.407771627235093 m1.9864236714008143,-15.864272121775652 l10.853962151546758,-1.592305625844543 2.1767563990953893,0.06365299408571727 m-23.50849976189995,0.4195870385628385 l0.3887038312310769,2.1941403578392986 -0.3091807422532399,2.185296041388072 l-1.1114803422677633,8.90303432153735 -1.3755977828384491,5.775062621351173 l-1.323115571685784,3.5104691581562495 -1.8090378223216754,3.3202861429499944 l-2.4007087802759552,3.0896884067104446 -2.3587202769716944,2.2117964641416887 m10.25129016534665,-16.866918790069203 l27.25473459809437,2.443989296921013 4.1952736623679625,2.0680256442984573 l3.9519505903971135,1.6824654451308652 " fill="none" stroke="black" stroke-width="1" /></svg>