<?xml version="1.0" encoding="utf-8" ?>
<svg baseProfile="full" height="94.13031986147122" version="1.1" width="111.71914818252063" xmlns="http://www.w3.org/2000/svg" xmlns:ev="http://www.w3.org/2001/xml-events" xmlns:xlink="http://www.w3.org/1999/xlink"><defs /><rect fill="white" height="94.13031986147122" width="111.71914818252063" x="0" y="0" /><path d="M25,25 m0.0,0.0 m10.853672530164426,2.75730408182054 l0.5313566457727547,0.2203365797836975 3.946215329987951,2.2598608134301212 l1.6937900657281901,1.392218950660732 0.9093710594935003,1.1233139603729998 m-12.362944590087984,9.204558384169683 l4.529373722374481,0.9316097092797956 3.5065443034414265,1.149029085498095 l2.4166219948535694,1.2018774494383788 0.9938953602920753,0.7685722632795845 m-10.398412342311781,22.967164168587146 l1.3801246583731626,0.15447441515044824 1.063545627157952,-0.6866014186497278 l3.3092607013364055,-4.913233488850559 3.3050145222490515,-5.779841400764921 m27.757437653388187,-31.276468868404603 l0.239888920910911,0.9958781854879841 -0.28492525866786467,0.9732450959695425 l-5.854793263722571,13.730716940278786 -4.357480602444757,11.705685931021225 l-0.2178051139991615,0.525536341157694 0.1848199892810406,0.39792082073089935 l2.093297481935745,0.010193612405002992 22.48911973552559,-6.5842672723318 m-5.152338563605061,-8.821953125566525 l2.555202280491337,2.564276221937992 3.026803133369064,4.19986941823381 l2.363462496591832,4.199973304619631 1.199029704641167,3.282753974086573 " fill="none" stroke="black" stroke-width="1" /></svg>