<?xml version="1.0" encoding="utf-8" ?>
<svg baseProfile="full" height="105.90900148345779" version="1.1" width="95.14278868892278" xmlns="http://www.w3.org/2000/svg" xmlns:ev="http://www.w3.org/2001/xml-events" xmlns:xlink="http://www.w3.org/1999/xlink"><defs /><rect fill="white" height="105.90900148345779" width="95.14278868892278" x="0" y="0" /><path d="M25,25 m0.0,0.0 m10.309351571821267,5.276202320232102 l0.4815217367395491,0.23988012017520058 3.4134298502352065,2.515532517770792 l1.4389259333825972,1.5197636315933034 0.7981519651141709,1.2415875052942151 m-11.341271502398762,9.264282347500197 l2.0326597001073266,1.0637980011625094 2.226602091749762,1.5413304495498255 l1.7990488519463734,1.6322502177495226 0.7085143103320999,1.0376474219328846 m-6.046350082532295,25.719492284236598 l1.636731217357717,0.07951876430009108 0.8412802807207262,-0.6802856920753458 l2.581394766738784,-5.0828657931151655 2.7369290034212623,-6.008879091562483 m8.482053887147782,-15.366344787183 l2.7029259322204946,0.3909626864773867 2.841421987560192,-2.2071002425217765 l5.2418095506462725,-7.7612736167840675 9.890796244482534,-7.601914266547398 l1.2729401510048794,0.25086238318022075 0.7651359666255438,1.0693257843496944 l0.3287852744992927,1.4474565688417451 -0.2856791464026238,5.5232191495565415 l-0.846752684361441,8.514989083647098 -0.7132994366054918,7.147850588693299 l-0.3881877227221726,3.593009463361388 -0.43929993163596653,1.6495245134637875 l-0.5501869048892674,0.8876014322445805 -0.5822944173098584,0.18438587688658362 l-0.5627671850759834,-0.3263177932753848 -1.3477217357535343,-2.0121584594184427 m-9.138085698291304,-23.181499682920705 l0.4926207182966393,1.1585227397129727 0.15844763317136537,1.9142926340606286 l-0.06076540813041364,41.274352422888384 " fill="none" stroke="black" stroke-width="1" /></svg>