<?xml version="1.0" encoding="utf-8" ?>
<svg baseProfile="full" height="100.7533023921952" version="1.1" width="103.1257134108999" xmlns="http://www.w3.org/2000/svg" xmlns:ev="http://www.w3.org/2001/xml-events" xmlns:xlink="http://www.w3.org/1999/xlink"><defs /><rect fill="white" height="100.7533023921952" width="103.1257134108999" x="0" y="0" /><path d="M25,25 m0.0,0.0 m10.632072329894964,8.330133460967412 l0.47728122131089556,0.21537014668938406 3.0974808527834807,2.1434573067873606 l1.3409556243270948,1.3856980880513325 0.7382481706061412,1.1475699934124843 m-11.192190260197918,9.250068775865579 l2.0299770161820136,1.0083572970311965 2.2059668215991057,1.409490929250582 l1.8105795889395404,1.4897298759408846 0.7047161585806212,0.9225676343418835 m-5.832293618639783,23.398790714974435 l1.0759403968714318,0.05206816888265745 0.7806331370028486,-0.6957515725152791 l3.051774862809969,-4.936815977195871 2.9496389025446637,-5.553340874368502 m8.532790897800473,-17.855125481222185 l2.294205620859642,0.30444255828434436 2.5476449775535315,-0.11235226159018662 l9.093209935926831,-1.62564187665494 8.387615821139729,-1.2389055808142775 l2.8095631009346267,-0.193001208552488 2.182690270543999,0.23525943006191724 m-14.195513027264028,2.9088598222633544 l0.44495696527833567,0.7074624451687912 0.2331823577521922,1.5778648466606133 l-0.07898789162237076,23.564651603680186 m-18.154813880479484,1.8587485265300896 l2.2419131583455396,0.4837678449266195 2.3412769326734453,-0.036286675693446416 l13.975269328511718,-1.6396894202554642 11.98011104904704,-0.9863087957794338 l2.425796300764452,0.07620059212514328 2.1940202885191553,0.5593401816049017 " fill="none" stroke="black" stroke-width="1" /></svg>