<?xml version="1.0" encoding="utf-8" ?>
<svg baseProfile="full" height="100.58287237769233" version="1.1" width="106.07829724276533" xmlns="http://www.w3.org/2000/svg" xmlns:ev="http://www.w3.org/2001/xml-events" xmlns:xlink="http://www.w3.org/1999/xlink"><defs /><rect fill="white" height="100.58287237769233" width="106.07829724276533" x="0" y="0" /><path d="M25,25 m0.0,0.0 m11.096466181241684,10.900739303671987 l0.494567249441306,0.18784486951214505 2.1438888724157943,1.0836304448934369 l2.191541916126349,1.4062401492607148 1.8083137570731522,1.4396106252085863 l0.7128416618373168,0.8775067309061175 m-10.209599033780512,9.109883428897254 l2.2834264365754935,0.9402374347156502 2.3393773456188014,1.245199132555928 l1.9449616937728857,1.3109134407581369 1.0915105419913826,1.1078424402441445 m-7.032490833390247,18.973596296573977 l1.1629904635159622,0.20675867413339064 0.9096559484888358,-0.5483363903415353 l3.168504248647095,-4.498623685586048 3.6808007318168947,-6.405035544400019 m7.294708953852391,-26.551168907859257 l0.575710679250689,0.7553199491759034 0.3018396468438171,0.7753763095225163 l2.152760718373481,13.078111388051715 m-1.7344943558969497,-13.998887226888584 l20.25115915221406,-2.4684310224120507 1.19497712361954,0.25226633288505945 l0.7787154132190639,0.8796300471918398 0.1587129741419023,1.2013494338980535 l-2.2356990728892288,11.340240219719837 m-17.66065211991258,1.8524202258355629 l18.75876946864932,-1.537901109064271 m-14.983513427191896,4.840959424011519 l-0.10359083379935159,2.1367789624909 -1.077738683613075,3.579376592726007 l-1.4506064559197989,3.430321686888989 -2.07977664279567,3.7245538576874875 l-2.1607531773776754,2.9782569838953923 -1.9184816571026289,2.2166190338369294 l-3.061587629606005,2.8366383014055288 -2.6681978744381785,1.923034543689381 m21.25240200974952,-25.115050601211582 l0.4873140129844423,0.7493277221887845 0.24935124580489174,1.7868955704383032 l-0.13480696796979302,16.70140245677229 0.28263194486856014,1.8103897475907678 l0.6265430846418938,1.1962485793632667 1.1437318632338096,0.9121505941183878 l2.5441159975409904,0.6407236975052578 5.172688106922074,0.16595998269237122 l3.6448302771991146,-0.40426170728998856 1.4053316612818112,-0.674974668301388 l0.809577862631175,-1.158266633700296 0.38515245995815756,-1.7790516108237322 l0.09041430290527348,-2.4431911561772006 " fill="none" stroke="black" stroke-width="1" /></svg>