<?xml version="1.0" encoding="utf-8" ?>
<svg baseProfile="full" height="96.65496008948155" version="1.1" width="111.45965093070512" xmlns="http://www.w3.org/2000/svg" xmlns:ev="http://www.w3.org/2001/xml-events" xmlns:xlink="http://www.w3.org/1999/xlink"><defs /><rect fill="white" height="96.65496008948155" width="111.45965093070512" x="0" y="0" /><path d="M25,25 m0.0,0.0 m29.06977524314127,2.317530049777099 l0.43193507867303615,0.37780755553876305 0.796620771143518,0.9810867428046292 l0.2974306641803535,1.2684090495319074 -0.4270881926657302,39.96091132531482 l-0.34028920486546105,1.157332039329094 -0.5549313651476594,0.5308806129188115 l-0.7299657354031558,0.06100271426642845 -1.7134339037049164,-0.8196674098110369 l-2.6767637755112177,-1.899030619770511 m-16.689182497034654,-23.798777000136322 l2.0497493340422177,0.27975557654614563 1.7877020796967358,-0.2093982316645897 l12.229249764145022,-3.414700262458328 1.4902542323384054,0.4299962433512382 l0.5214058355437402,1.0750070475635256 -0.5816534688225888,1.950985320925589 l-1.2838726919492742,2.891103871660794 -1.7216567878421702,4.282422821725323 l-3.920140872437443,4.430325682314306 -4.829342610877976,3.500491152182013 l-5.713556761133637,2.5381475134265306 m47.43842116096483,-25.97326534688234 l-0.3604635047904661,1.0914128489797263 -0.7294345424684225,0.7971648181966103 l-5.146522729832964,3.425025433904986 -5.368307344349386,2.8504116335120053 l-5.712713413006677,2.3420164983160743 m0.020082092440146804,1.0335865016480887 l7.085746300491557,7.3056603906273825 6.456195830819034,5.745042735487195 l5.920057604368886,4.339232420951965 2.4521049145321148,1.4458348710501607 l1.9122394260280706,0.6463872852396465 " fill="none" stroke="black" stroke-width="1" /></svg>