<?xml version="1.0" encoding="utf-8" ?>
<svg baseProfile="full" height="99.56884224320282" version="1.1" width="91.77667324737087" xmlns="http://www.w3.org/2000/svg" xmlns:ev="http://www.w3.org/2001/xml-events" xmlns:xlink="http://www.w3.org/1999/xlink"><defs /><rect fill="white" height="99.56884224320282" width="91.77667324737087" x="0" y="0" /><path d="M25,25 m0.0,0.0 m8.301439287235672,3.7233361699329404 l0.5512086223266891,0.22081395416015603 3.618342116112741,2.264669149169818 l1.467792219784666,1.3816309635293202 0.8015319927069688,1.1135916411286972 m-11.193260569152299,9.481114112618489 l1.9506803207261787,1.137177409171441 2.2670950503889653,1.6739867122965224 l1.8019223593074944,1.7052099789047437 0.7330173147634825,1.0913205671932016 m-6.655422772235635,25.775991585097497 l1.130948719705132,-0.039701406924609585 0.8606816846774659,-0.9100024044562828 l2.6075978839095026,-5.2356358389954805 2.7298503543845825,-6.302412214819397 m8.409824025885696,-22.135672348806285 l2.7303028720453426,0.3069051774035636 2.754937095893476,-2.1398692459221498 l6.2120087640700055,-2.3467051894626474 0.6814806082076528,0.9785094839118492 l-0.17505783493525334,0.8178048026928249 -5.384246559123622,0.8580499426480205 l-4.580178321005792,2.055107461575891 m-1.5518718583854023,-2.0389417884601615 l0.600910767896581,0.6924564233587854 0.29556498395627445,1.3993654601510859 l-0.03326058844050062,8.977108698859086 -0.3075437300115762,5.150280806970464 l-0.4432524117549988,4.038699019785432 -0.7623138641693724,3.452686389230636 l-0.9435552158079711,2.578889113622896 -1.5670987587254186,2.905786542986826 l-1.7245568895863261,2.312440776588397 m9.90991801337912,-23.04602379516399 l1.6054703386046945,0.20885077647096642 9.146257460769105,-1.7712553000562172 l1.3278679579644594,0.25759064668511505 0.266073669802074,0.41747228646949663 l0.05803603431755054,0.6154786672878426 -1.483354681017102,3.4683874566884785 l-1.8931789831384709,4.10215136002851 -0.49596719655653276,1.0032409361579444 l-0.39968199729897447,0.44864707680682264 -0.3393569178674197,0.11357899715441533 l-0.9904635734655324,-0.8710435542255737 m-6.32966312122405,-11.931410210029393 l0.44673868882148343,0.8032137549148529 0.1957446448606665,1.1026484073183453 l0.16093607893026607,22.428422516457015 m-17.152432023743543,4.43612250909885 l2.0467220891159053,0.3365881401951487 17.58785408165966,-2.0961451907535475 l7.441169409873153,-0.5756723700170894 3.071142088626169,0.004918753695686092 l2.4113235143077825,0.3680559207382193 " fill="none" stroke="black" stroke-width="1" /></svg>