<?xml version="1.0" encoding="utf-8" ?>
<svg baseProfile="full" height="104.46271911976781" version="1.1" width="105.85197140202106" xmlns="http://www.w3.org/2000/svg" xmlns:ev="http://www.w3.org/2001/xml-events" xmlns:xlink="http://www.w3.org/1999/xlink"><defs /><rect fill="white" height="104.46271911976781" width="105.85197140202106" x="0" y="0" /><path d="M25,25 m0.0,0.0 m10.787040290318414,2.8712667502082057 l0.5239988140248741,0.23138174448254992 2.4171195314729843,1.2747176771173814 l2.38975817801239,1.5970877934157723 1.9455984080755262,1.6349311572725966 l0.7683309281163264,1.0276361618751402 m-12.880426878989335,9.503299234253827 l2.45664878578041,1.0860944220883841 2.620977811262373,1.4334748092375833 l2.1633471333247565,1.4870876721994057 0.8509088150916901,0.94271643552197 m-8.26910188170034,24.655529087341694 l1.362767418256428,0.07268082991372128 1.0375396027641652,-0.8601955058446306 l3.2441636295186482,-5.522359781365524 3.4094914653600865,-6.707591996033739 m22.77362538917697,-31.946091489191872 l0.3992374688975085,0.9838009549058386 0.0414301938623598,0.9923903080562032 l-3.1474381146300456,15.924404429498557 -2.450348168850294,12.122121858162638 l-0.22882616612187426,0.5484921737921707 -0.157281117755696,0.154719260230854 l0.0930570544079876,0.1115605032411625 0.42465500660768657,-0.11611377025022014 l0.6423975158502562,-0.3654459375585471 8.503299184983364,-8.84445155605454 m-8.762017006484102,-11.52864378703861 l1.4358984776533628,2.933340262903541 1.5524342572377872,4.619947115697147 l1.3519456363829698,4.435247184233938 0.7473462377539504,3.6049215147725504 m11.386887835470132,-18.438571670601167 l0.28835584930981994,1.2302214658054227 -0.14455034303354936,1.3094579833194864 l-2.593638763718376,5.698788872121665 -3.0627969555754544,5.249297160029719 l-3.0407516637896537,4.023322255592901 m-2.1843469391927353,-25.780555904325755 l1.2294726482189469,0.9854394830266984 0.6730742241855673,1.9819641700423087 l5.170632994395465,36.764833985485254 1.585234898130401,5.132245828601869 l1.485436073878067,3.09750310375408 1.5070296029375665,2.2792899774466826 l1.8792439326774928,1.8457383171821775 2.1129118348155806,0.7257885752013363 l0.6838277404261852,-0.21854308610500855 0.7085907847730906,-1.3147332898660058 l0.11977974845093137,-4.174992195230521 " fill="none" stroke="black" stroke-width="1" /></svg>