<?xml version="1.0" encoding="utf-8" ?>
<svg baseProfile="full" height="102.63423022599827" version="1.1" width="110.08849954806942" xmlns="http://www.w3.org/2000/svg" xmlns:ev="http://www.w3.org/2001/xml-events" xmlns:xlink="http://www.w3.org/1999/xlink"><defs /><rect fill="white" height="102.63423022599827" width="110.08849954806942" x="0" y="0" /><path d="M25,25 m0.0,0.0 m33.70253382629001,2.9295568412613346 l0.3984201627679363,0.4068283768666427 0.6493476406968663,0.9984603467212352 l0.2506263148799028,1.349450098989255 -0.4440644662289638,45.48165886326224 l-0.40997168642508575,1.046102925162769 -0.588889451194117,0.4221727737347912 l-0.7318814023402532,-0.09179750090632165 -1.6565022811311416,-1.040195595946194 l-2.469700638593555,-2.1738577313144494 m-17.292494323876504,-26.307751421142306 l2.01695350368981,0.22275376415661882 1.6908729232328792,-0.2555369591755317 l11.800082935827213,-3.573772775050237 1.1752301532281617,0.5587989223557451 l0.4617268968650849,1.1879956592003686 -0.5369310089159062,2.2650721651324677 l-1.4315642413726004,3.0290610898836756 -1.9174424585936782,4.299528450618686 l-4.073847561166073,7.4311224154967235 -3.919290594647812,5.275211315790183 m35.78194214140222,-31.836170175876063 l-0.3705199203106956,1.327385918140131 -0.6066386968435217,0.8940810228089654 l-4.058211545805157,3.6441856152948295 -4.594853160159394,3.286925032961322 l-5.0286371594651165,2.5932738365227626 m-0.08531425178199215,1.1251311073734038 l6.479593072279128,7.44113534183724 6.12397180009272,5.875585821126609 l5.844895244695545,4.500623442665954 2.145129991266764,1.3429086663888852 l1.783927789706788,0.671006704212986 " fill="none" stroke="black" stroke-width="1" /></svg>