<?xml version="1.0" encoding="utf-8" ?>
<svg baseProfile="full" height="115.79856520913386" version="1.1" width="105.76160031335773" xmlns="http://www.w3.org/2000/svg" xmlns:ev="http://www.w3.org/2001/xml-events" xmlns:xlink="http://www.w3.org/1999/xlink"><defs /><rect fill="white" height="115.79856520913386" width="105.76160031335773" x="0" y="0" /><path d="M25.157307719342086,25 m0.0,0.0 m5.436923690580749,10.696388360985122 l0.48628162501708205,0.2090364408562512 3.63720097948509,2.003962104828868 l1.4322995426367062,1.0586158691472112 0.7772672963850075,0.9071779275282789 m-11.92728085344672,8.68200212466609 l2.1508713026549575,0.7311071429123679 2.516668355272456,1.1800128284860538 l1.9262401566068625,1.1460012827413542 0.8489113657528004,0.7658759286459125 m-6.990438341111907,22.048390572263177 l1.3315162734075776,0.26620930914239416 1.0636592143329204,-0.10367396461803184 l1.1675976644625334,-0.44654514850314186 m26.192394547739013,-30.910795732151144 l2.6881033414457214,0.5888631676765712 2.1793969568632288,0.07458735384340585 l16.652070904631415,-1.6937495996038825 2.2675095081877608,-0.013358772898762122 m-28.954052756948272,0.8352559508714836 l0.7411880610412176,0.6835109130849262 0.36679165166635197,1.380887337294701 l-0.24338116742709653,29.744602491045832 0.29690206581615874,0.596071042255961 l1.3661449858451653,0.26344536607207747 9.739680328272618,-0.2888479267467987 l10.171497739382673,-1.5405779660617793 8.25351698436516,-0.685640323370696 m-0.31794735352185105,-24.39095374414592 l0.34675852462027074,1.9459147254756453 -0.1089464091210322,13.710822791130889 l-0.6857159007757714,6.284267089538159 -1.483162413109026,5.157293002680414 l-2.173635767871638,4.843852489956279 -2.602464267024651,3.611589592298195 l-3.438954597507243,3.3640943187432426 -4.5745319340550035,3.092870863063149 " fill="none" stroke="black" stroke-width="1" /></svg>