<?xml version="1.0" encoding="utf-8" ?>
<svg baseProfile="full" height="97.59602169489763" version="1.1" width="101.4827638326895" xmlns="http://www.w3.org/2000/svg" xmlns:ev="http://www.w3.org/2001/xml-events" xmlns:xlink="http://www.w3.org/1999/xlink"><defs /><rect fill="white" height="97.59602169489763" width="101.4827638326895" x="0" y="0" /><path d="M25,25 m0.0,0.0 m11.6896983126978,3.70023905851503 l0.4631597431823445,0.19163348375285044 3.408081951739498,2.193731309192102 l1.157499664770995,1.0720283890770195 0.6507147344864884,0.9574423572333821 m-8.811384671991437,10.2066994860677 l3.637939311230242,1.9298934773370404 1.6616727176145643,1.3525968558178885 l0.6868533728359346,0.8738435487507282 m-5.674390171725212,21.687320257047492 l0.9231552206839467,0.06156345501434481 0.7170154940065308,-0.7128165795766587 l2.2645403706326444,-4.629055560384643 2.46965314085057,-5.7398659991383925 m9.424202062291517,-28.39139480986246 l2.503434179096337,0.19978367702151167 12.45406212384947,-1.3853872073106737 l2.9572848198509507,-0.17038568641297638 1.808033142978153,0.14706423007888386 m-25.233512504526797,13.468470104787055 l3.0198750155502974,0.28220752392908277 20.101465893677094,-1.871155306756707 l6.716459866879612,-0.33015113036287697 2.4872500420279655,0.19072380528905325 m-17.9777716047694,-9.792350233656455 l0.2501510794946142,1.572845985976066 -0.3421172845614893,1.5977919910513343 l-2.4326171894736563,6.872969510362359 -3.725859890050732,9.225253539345122 l0.17625639889032196,0.8566111590293066 0.44289142947653626,0.4554941385755479 l0.6939914590799052,0.17084283505176856 1.0124807954223685,-0.05735270478176234 l14.116017241843767,-1.3186431031009007 1.3910840649873157,0.5654110955539674 l0.29453097324099714,0.47433649433688 0.06135079886314868,1.2241406240770256 l-1.365585818212397,4.769379004969531 -2.1834575835997674,6.3186550455371036 l-1.8686558534524145,4.094527800806269 -1.99684385493211,3.2816439212393465 l-1.4014808723191943,1.5028091117105018 -1.2977684675042862,0.4966267397088443 l-1.2090938649454952,-0.08283203777456119 -1.1429007613327766,-0.6979907459870539 l-1.9957587282188023,-2.1579997980531087 " fill="none" stroke="black" stroke-width="1" /></svg>