<?xml version="1.0" encoding="utf-8" ?>
<svg baseProfile="full" height="109.49251360462085" version="1.1" width="109.4001434603706" xmlns="http://www.w3.org/2000/svg" xmlns:ev="http://www.w3.org/2001/xml-events" xmlns:xlink="http://www.w3.org/1999/xlink"><defs /><rect fill="white" height="109.49251360462085" width="109.4001434603706" x="0" y="0" /><path d="M25,25.00000047285038 m0.0,0.0 m21.055634021759033,-4.72850381072476e-07 l0.042661926709115505,0.6129653379321098 -0.4317842796444893,1.6440093517303467 l-1.4566873013973236,2.3474229872226715 -4.09424364566803,5.098934173583984 l-3.2216468453407288,3.4568768739700317 m8.32904040813446,-5.164004564285278 l3.1982213258743286,-0.21317746490240097 21.449880599975586,-4.117994606494904 m-28.152155876159668,11.99381709098816 l1.951468139886856,0.15926543623209 3.5365885496139526,-0.3585391491651535 l17.990076541900635,-2.795962691307068 2.5166064500808716,-0.17656508833169937 m-34.48222875595093,12.670552730560303 l1.6931377351284027,0.4206002503633499 1.8343409895896912,-2.0334571217972552e-05 l32.78648376464844,-5.417943000793457 1.901363581418991,-0.12980572879314423 l0.6256540864706039,0.18317380920052528 0.42881544679403305,0.3722039982676506 l0.3264918550848961,1.3837268948554993 -1.0444648563861847,7.880703806877136 l-0.11832687072455883,6.622888445854187 0.5411436036229134,4.980505704879761 l1.4300896227359772,5.704091191291809 1.716563105583191,4.053900241851807 l1.6049669682979584,2.6945745944976807 2.54361093044281,3.0693814158439636 l2.2774720191955566,1.9234877824783325 1.1374346166849136,0.5856356397271156 l0.7665319740772247,0.0078084750566631556 0.45972395688295364,-0.47631699591875076 l0.25767967104911804,-2.030203491449356 -0.19521187990903854,-2.8422850370407104 m-25.320281982421875,-25.820024013519287 l-0.16981398686766624,1.8665508925914764 -1.3876309990882874,3.090529441833496 l-2.9965022206306458,5.278528928756714 -2.9102838039398193,4.260824620723724 l-3.336496353149414,4.104655385017395 -3.006913661956787,3.1533226370811462 l-3.3322668075561523,3.02187979221344 -3.6823469400405884,2.8767722845077515 m2.831873595714569,-19.656535387039185 l6.257842183113098,3.0420517921447754 6.1739009618759155,4.429683089256287 l4.929099678993225,4.821082949638367 4.129381775856018,5.531003475189209 " fill="none" stroke="black" stroke-width="1" /></svg>