<?xml version="1.0" encoding="utf-8" ?>
<svg baseProfile="full" height="109.4925133511424" version="1.1" width="104.99140669591725" xmlns="http://www.w3.org/2000/svg" xmlns:ev="http://www.w3.org/2001/xml-events" xmlns:xlink="http://www.w3.org/1999/xlink"><defs /><rect fill="white" height="109.4925133511424" width="104.99140669591725" x="0" y="0" /><path d="M25,25.000001006992534 m0.0,0.0 m4.6506235003471375,16.599549055099487 l0.6459512561559677,0.09286811575293541 4.769194722175598,-0.012555719586089253 l34.301090240478516,-3.392043709754944 4.770205318927765,0.19430844113230705 m-22.060682773590088,-13.48212718963623 l0.9328910708427429,1.4279632270336151 0.2810670994222164,1.8624141812324524 l-0.00689617358148098,53.192973136901855 -0.13926008716225624,1.6071321070194244 l-0.38528062403202057,0.9685900062322617 -0.5822990834712982,0.4334406927227974 l-1.5613295137882233,-0.3244069591164589 -3.340221345424652,-2.5120699405670166 m-13.137260675430298,-30.606906414031982 l2.443029284477234,1.204843819141388 2.5262150168418884,1.697390079498291 l2.0099253952503204,1.7654204368591309 0.8079442381858826,1.1122283339500427 m-13.180369138717651,17.846845388412476 l1.7479076981544495,0.13016692362725735 1.2178099900484085,-0.6129464507102966 l15.691176652908325,-14.746918678283691 m24.485526084899902,-13.10492992401123 l-0.5380962044000626,1.9381904602050781 -2.562924325466156,2.743103504180908 l-3.856847584247589,3.0775299668312073 -4.250547885894775,2.5871726870536804 m-3.1037992238998413,3.6210989952087402 l3.234807848930359,2.2362440824508667 12.596049308776855,10.933685302734375 l3.6312025785446167,2.3450252413749695 2.9546040296554565,1.3846863806247711 m-16.036295890808105,-52.07484722137451 l2.4992722272872925,1.3259176909923553 2.5858256220817566,1.8678027391433716 l2.058759033679962,1.9415582716464996 0.828993171453476,1.2235353887081146 " fill="none" stroke="black" stroke-width="1" /></svg>