<?xml version="1.0" encoding="utf-8" ?>
<svg baseProfile="full" height="93.8940925120736" version="1.1" width="100.95376850716906" xmlns="http://www.w3.org/2000/svg" xmlns:ev="http://www.w3.org/2001/xml-events" xmlns:xlink="http://www.w3.org/1999/xlink"><defs /><rect fill="white" height="93.8940925120736" width="100.95376850716906" x="0" y="0" /><path d="M25,25 m0.0,0.0 m29.30831798343042,2.841691843429105 l0.38342085528333597,0.4282384404158092 0.5404782559336122,1.6873932819873998 l-0.026674782430676062,4.650344059900281 m-20.70643882760061,1.646665950542039 l4.095395147365794,0.30492170368479593 31.946438210358725,-1.645097938662116 l5.41283166482846,0.21169504858015004 m-28.312180966057383,3.502758675390887 l0.19745239676788837,1.2363883521122527 -0.6898885671973959,1.0652019832643955 l-6.827928946385269,3.9523618175369726 -0.9296946443217405,2.4732475557058544 l20.020753248693815,-2.6650654580791064 m-4.164109145116227,-3.641888873996898 l2.333336875137404,1.3074366251408045 2.7266598279818925,2.0636784580999756 l2.0518311009569263,2.0263019213665014 1.0183961939580743,1.5005440848834757 m-25.021610412195184,9.295594092613038 l0.23119649461259736,0.37111588152420594 0.40713018377407084,2.2123023043210965 l1.3922003810966477,9.068262702312675 m-1.097194694867658,-10.734274947873434 l19.189694300403342,-1.706048288685178 1.9979169372182575,-0.12891823884637602 l0.6959622823354825,0.1223396452575471 0.8248779132004199,0.6851075440565227 l0.1216322039216385,0.5673644232104215 -0.11426884437240649,8.778946513433299 m-20.958689278394992,1.9767137516821776 l14.788607730805476,-1.2340876884704373 6.600547627990721,-0.32975304690769786 " fill="none" stroke="black" stroke-width="1" /></svg>