<?xml version="1.0" encoding="utf-8" ?>
<svg baseProfile="full" height="98.0508517550636" version="1.1" width="89.49159880133521" xmlns="http://www.w3.org/2000/svg" xmlns:ev="http://www.w3.org/2001/xml-events" xmlns:xlink="http://www.w3.org/1999/xlink"><defs /><rect fill="white" height="98.0508517550636" width="89.49159880133521" x="0" y="0" /><path d="M25,25 m0.0,0.0 m4.433273958220498,3.1052589241931865 l0.5649560631044267,0.22651350822993638 4.472451967804608,2.3813822648125273 l2.00657317258885,1.5388644052364957 0.8284125600255435,0.9881678605776534 m-11.696792872516285,8.385117561074566 l2.2229210418926257,0.9893141180747431 2.4883797696522825,1.5071626795696293 l2.0113081216103477,1.5608484614620632 0.809282786381382,0.9807725205825363 m-7.921845934411325,24.674580291418124 l1.3238259966882344,0.11873036083453282 0.5570321819001984,-0.7860327378473582 l2.860853263996772,-11.768784295904046 m20.367627413762335,-27.006412966844415 l1.719339503001296,1.1604339308099987 1.9169174464751526,1.8645787789470731 l1.5392745351231591,2.05164274615289 0.6770124931924884,1.4416799159189415 m-12.772360114710965,6.166039224402762 l1.9581423281875145,0.18618477551959883 2.0192179765535045,-0.11071484036944172 l6.932166514679546,-1.1477719895900058 8.673559919238478,-0.9671049518934068 l0.9863065045077332,0.4284889018828743 0.38122149898649466,0.4593069816925094 l0.1325407054003329,1.1640588877194245 -2.6400075866733044,12.563936126811228 l-1.7359767488821702,6.712871792104954 -1.7455549580168839,5.731687310987207 l-0.8441838447226732,1.9010398366034544 -0.5783914594770132,1.0805961386164102 l-0.6206798208277085,0.46841523327696377 -0.6213627866824948,-0.7352602892235984 l-1.3046465934722287,-2.2859070100402676 m0.41517767606344586,-26.95802732779974 l-0.015988415966724463,1.1624006112904257 -0.48673815646336693,1.3364570073936415 l-3.2697282241565304,4.743366883562918 -3.1534677861411846,3.6469758469545135 l-5.251048137717832,4.8540468262287035 -6.329772455441172,4.630858584149729 " fill="none" stroke="black" stroke-width="1" /></svg>