<?xml version="1.0" encoding="utf-8" ?>
<svg baseProfile="full" height="118.04871832471137" version="1.1" width="100.23663538356192" xmlns="http://www.w3.org/2000/svg" xmlns:ev="http://www.w3.org/2001/xml-events" xmlns:xlink="http://www.w3.org/1999/xlink"><defs /><rect fill="white" height="118.04871832471137" width="100.23663538356192" x="0" y="0" /><path d="M25,25 m0.0,0.0 m10.487389495948877,3.611146543814211 l0.48668739826302415,0.24311321479122913 3.680114362242331,2.790228089761441 l1.5146972444720597,1.5693167882370944 0.8158028565275746,1.2828028454750808 m-10.454864621804644,9.05148235542701 l2.1141882376703416,1.0820968035378338 2.307048448611985,1.5910145647646283 l1.8814288493265758,1.638388315784356 0.7596782928306128,1.042950837930727 m-7.41422726167257,26.115362496947416 l1.262375607028432,0.15323091326599841 0.9718870130642374,-0.86297742886085 l6.0352736660613076,-4.738735920762879 3.2395033291501965,-3.235079196226876 m22.333660835223128,-30.466184463156257 l-0.25523665900991294,0.8948786052322938 -4.540240997476681,2.7073284241576228 l-4.27499116210866,1.817276157689364 -4.743705402176978,1.5003081618405851 m-1.9200808433118102,-0.8106560301967398 l0.5178667391872352,0.8463980156540646 0.250622283899766,1.0903139217828024 l1.7311864529322818,10.473730982341873 m-0.8277922165161425,-8.1028213248742 l9.10511930819767,-1.503958831008313 2.48517688341933,-0.043971162727281125 m6.0750194977748295,9.209173473142508 l-0.21588787354905825,0.8485442472878215 -0.4479789047767137,0.5928028691723872 m-19.03255646708453,1.5998095764627256 l-0.20831728487710546,6.641260709064955 -0.6621114803468189,5.40546725149609 m1.080380626158402,-9.167437694571175 l16.76479536193663,-1.8872732317239 6.051495991125574,-0.4405320829383134 l1.3578704791046994,0.18881596360281763 0.6192237301901705,0.34358679397109276 l0.30056261816184193,0.5216474867298454 -0.07817276704733214,0.6974687670100118 l-0.9302296481099279,1.5894283949217547 -1.8709178969471665,1.8999131064652144 m-20.30241863541084,2.882918386157881 l2.188192106938861,0.15909124805815944 11.685825136957071,-1.8066955759358434 l1.3320250892491174,0.13981059449284303 0.18723528418642674,0.4008800773406547 l-0.6518163157159182,0.799475502428005 -7.537889200199081,5.402936723502498 m-1.693185459474215,0.5101907584136093 l1.8984101283316392,2.209760417624526 1.4944693053432958,3.0764808515597277 l0.9812633894332451,3.983580423574695 -0.017433049361897702,3.7777869499286267 l-0.9334948735875055,4.074925589536725 -0.7481275417111011,2.7493427653845575 l-0.8154341265500095,1.362342116833014 -1.0426059115512836,0.5462321850956187 l-1.173417950006354,-0.05197433572773425 -2.1626260396913146,-1.6344043073116536 m-11.502503851507575,-14.295031483198283 l1.4383196518938741,0.3694041041313184 1.7043352745535383,0.02137234048196988 l15.11728070963125,-1.6393924157403552 10.521140584833958,-0.7783646700321757 l2.0905743824912966,0.03437057192445598 1.826773172792378,0.43699385761144227 " fill="none" stroke="black" stroke-width="1" /></svg>