<?xml version="1.0" encoding="utf-8" ?>
<svg baseProfile="full" height="102.96637111128331" version="1.1" width="103.80094823078838" xmlns="http://www.w3.org/2000/svg" xmlns:ev="http://www.w3.org/2001/xml-events" xmlns:xlink="http://www.w3.org/1999/xlink"><defs /><rect fill="white" height="102.96637111128331" width="103.80094823078838" x="0" y="0" /><path d="M25,25 m0.0,0.0 m7.651130237567596,3.1659079937504786 l0.4961141193014507,0.20922219117521196 3.7310084590823815,2.215174272305871 l2.1962265798774316,2.0955784870269425 m-9.08909269074201,10.852732326003347 l4.028279576061975,2.190133720912889 1.873741545347384,1.5027804815751722 l0.7631138636658874,0.9638812415460769 m-6.412184533157396,24.283407150731538 l1.201927907551496,0.01506585331135328 0.9182492501276324,-0.7377483376698409 l2.7078444564216606,-5.068362284794556 2.809390297492024,-6.169234621561325 m17.9195062968121,-33.94313679916942 l-0.2346898448947789,1.5416179525208633 -0.45751535714032804,1.3512177233334548 l-2.222585326840274,4.250996835280718 -3.4291198161170993,4.566417867904984 l-4.017052568583408,3.9214368933445303 m8.915503255237503,-9.658728458378876 l11.23383611490861,-1.4902042039001087 0.8092829338101589,0.1385041125967731 l0.5079188363566187,0.43883273920120924 -0.06356473351342429,0.667343696916388 l-0.5633110296826291,0.9425733752917917 -5.732026689659713,9.23666186878435 m-12.549373762557094,1.6795208284667376 l1.6497504178785256,0.4306694307022735 1.751320903295447,0.07903505355625899 l19.065145767337928,-2.3105711754586884 1.9816826127285159,0.5677952348283469 l0.2528517451895822,1.2472423639419412 -1.8112114043405418,13.50738400318643 m-30.33312189303252,-5.34762080338228 l3.413108093915962,0.27063665587485103 18.02921119083215,-1.8596231664560396 l13.680892493652685,-0.8295963083067032 3.128760926596881,0.3805673304150451 m-32.37707610250862,9.318930557154946 l3.2581395474096264,0.25609442621207634 12.367471160222987,-1.3657637529559319 l7.161951856988608,-0.3148579746479519 3.259170088774459,0.07564456299034762 m-13.681699392078981,-13.039528025734768 l0.694662701344296,1.1680659007188114 0.24863884221872087,1.7569528153001464 l0.013752421667474849,26.275165416976225 -0.21205290549187428,2.2290085071938184 l-0.48943489362109144,1.0904185644272808 -0.6738567861695638,0.21872858824032707 l-1.572255185037579,-1.0535897423304486 -1.8799018273513224,-2.0721770890271904 " fill="none" stroke="black" stroke-width="1" /></svg>