<?xml version="1.0" encoding="utf-8" ?>
<svg baseProfile="full" height="103.24741007441216" version="1.1" width="106.59066452311583" xmlns="http://www.w3.org/2000/svg" xmlns:ev="http://www.w3.org/2001/xml-events" xmlns:xlink="http://www.w3.org/1999/xlink"><defs /><rect fill="white" height="103.24741007441216" width="106.59066452311583" x="0" y="0" /><path d="M25,25 m0.0,0.0 m9.50414302055679,3.8283301106984293 l0.49605189296821994,0.21423309765069343 3.640563786091351,2.326693675687493 l1.5927472431280514,1.4460564483952154 0.7423086937989695,0.9669235164662418 m-9.65380813930753,9.109941015977727 l4.020570507552779,2.1062833631147666 1.959605753072139,1.646886819388167 l0.746270245845126,1.0134972588824958 m-7.199050521468761,24.83341714887209 l1.1196447164635255,0.07934496586562916 1.2290753894718824,-0.7900903334441863 l2.7192385370852716,-4.63377574760963 2.7806065572528325,-5.739969186147931 m21.212526423779448,-31.515207624809797 l0.6281573398914055,1.427994318174858 0.043137942807597744,5.209240633790145 m-14.849172774192134,1.8137678153066177 l3.9914250775598035,0.1369673150040374 22.790084969389504,-2.3253431358804932 l3.142732362993893,-0.14354056665155795 2.078983288511604,0.26219300407369034 m-19.50529455433246,3.19873398599314 l0.10670635553280497,1.2649623878740763 -0.24981454658423835,0.7148892313393131 l-7.356560486838067,8.817279221746007 -0.8006374281159024,1.0364304695653395 l-0.11202121138392629,0.49670955266912287 0.48262626445605844,0.32669122262126304 l1.1449731903044669,-0.1029798359381372 19.73105371466098,-4.177022007936298 m-5.057692112058373,-5.558879802338876 l2.2208454735015137,1.709255924284582 2.6610276736342917,2.7932442025713535 l1.960204645800069,2.5609107114738094 1.0449991170490547,2.1345468807744004 m-23.188336053057224,5.3393161681019645 l0.5573267099285845,1.3481720324365305 -0.3070368015653971,4.156051028180753 l-0.6060090953801498,3.8882217877330225 -0.9779520031102046,3.456334059396862 l-1.1123506738852207,2.446896580643553 -1.4528256463054259,2.217548035484619 l-1.8221383463563008,2.0058279251865607 -2.2178845984180504,1.900426399744505 m15.992490784409071,-22.898438513659176 l0.7307801216920965,1.2268025960532396 0.16292327383264354,1.1077994818141061 l0.008279023259642073,19.412588216750937 m8.408427748004408,-23.813748615304966 l0.6282848275913335,0.827163790346261 0.3471630432861626,1.1148621555699765 l0.24641833335619331,19.154207644650704 0.3548668144141336,1.1879723579817507 l0.5741834152098777,0.9653519585406767 1.3323820641771045,0.7517607525845662 l2.176409459617789,0.2666037989918126 4.306952326433007,-0.08131495138727883 l1.9752004745130907,-0.49239254710266034 0.7502111874429153,-0.5853410430618424 l0.45440760894137966,-0.8885133364218297 0.26223211620632253,-1.1911180009546223 " fill="none" stroke="black" stroke-width="1" /></svg>