<?xml version="1.0" encoding="utf-8" ?>
<svg baseProfile="full" height="125.78145716589354" version="1.1" width="113.22893177078916" xmlns="http://www.w3.org/2000/svg" xmlns:ev="http://www.w3.org/2001/xml-events" xmlns:xlink="http://www.w3.org/1999/xlink"><defs /><rect fill="white" height="125.78145716589354" width="113.22893177078916" x="0" y="0" /><path d="M25,25 m0.0,0.0 m14.134913737081686,4.056402847067383 l0.4317270961941755,0.4089255894756353 0.6826577462079556,1.2456865873838159 l2.142873551524688,16.53028900579897 m-2.07664357723815,-17.803411419365222 l29.51743211138366,-2.845375549178765 1.5921806276759272,0.1726981634386009 l0.9263799462325613,1.6719595408881875 -1.6457983868165351,8.045431569016037 l-1.8904903925217331,7.963646762090037 m-27.263121284008253,-7.408754492123113 l19.555562351668456,-1.624810461459358 m-17.91541988282677,9.274081270221114 l25.887942477854885,-1.9989443865212337 m-27.218829548310797,11.572553753458056 l3.040104619491991,1.0865271035004365 2.320891155734394,1.277728379242522 l1.9578595492460975,1.4259919855364156 1.2220372818605714,1.5137257929348071 m-11.879386061666626,13.882202722276231 l1.1063180465135647,0.7805567565184407 1.0169225208371189,-0.1921214228518777 l13.187660151218845,-6.433633117239652 m7.7039424467944615,-16.369846911717605 l1.5859109927766348,0.4299126314570313 1.802660333588405,0.013602841370465574 l15.214101193172729,-2.549792984609861 1.5980866506394336,0.7864080708010079 l-0.017375953977488978,1.7858987688078836 -7.935731771756617,7.982519942166181 l-4.100179914359319,4.055643762759747 m-0.8844761242837634,0.2003128185916526 l3.361950970461091,2.9819272875519407 3.055956926688768,4.252116609696878 l1.7394065281953892,3.8854056810374824 0.9347046601153871,4.112089328263518 l0.2755686211855539,5.325558645249353 -0.463075746893671,5.369879761537401 l-0.7625850628590782,5.074968777395313 -0.9393437274561213,3.9932315072966627 l-1.1604887450447758,1.617078368211251 -0.809662318822477,0.23318527991978327 l-1.4420783487143132,-0.4713911799953252 -1.7208221164952737,-1.743618131700602 m-11.355149693923293,-16.871207973877404 l1.5051026480281429,0.3147809008661108 2.136238463408623,-0.10823833539492828 l19.943643573585067,-2.6531871828864944 3.1605916966182255,-0.07598651067347366 l1.968261752779729,0.37929491560145234 " fill="none" stroke="black" stroke-width="1" /></svg>