<?xml version="1.0" encoding="utf-8" ?>
<svg baseProfile="full" height="147.12321430849443" version="1.1" width="102.97239837587577" xmlns="http://www.w3.org/2000/svg" xmlns:ev="http://www.w3.org/2001/xml-events" xmlns:xlink="http://www.w3.org/1999/xlink"><defs /><rect fill="white" height="147.12321430849443" width="102.97239837587577" x="0" y="0" /><path d="M25,25 m0.0,0.0 m5.093248302285073,7.174365335931809 l0.5743523477443087,0.21726736681148695 4.389327649526188,2.230783000604929 l1.9744431146239887,1.5282146657903068 0.8210145220489995,0.9744166222538492 m-12.28655619424334,9.025915042653105 l2.199021568565028,2.1790866412276366 1.9367330865506016,3.0529215082333097 l1.6572585449107287,2.8318779114642343 0.63041311068555,2.324663487022285 m-6.521265603665773,25.602948181059183 l1.2160929578430129,0.1766303885396242 1.0096512858323834,-0.8850582656449794 l2.906300674926957,-5.44294015556932 2.963795520201534,-6.942786046448662 m22.44434677655426,-40.19854830104757 l0.833859716484236,1.137722129942908 0.3616331254824562,1.5804642766122592 l-0.01144777918296152,7.795547315598048 m-16.044392446102385,1.8515868989742001 l1.6778118152335246,0.32354379313935033 2.21581072492474,-0.02495167402696421 l23.149944835500484,-2.9850271184623525 4.165752550544202,-0.2085814033572742 l2.081291587634826,0.3562304453710744 m-31.02398179138048,3.5847791873543393 l0.6228795625670868,0.9910688989082935 0.2575982183376572,1.320214390280529 l-0.2633852306962282,16.939885674963733 0.5281819618386581,7.720934006325473 l1.37976554247288,7.8434069535753626 1.7991634832299177,5.388520187749678 l1.8181839126399102,6.427777666336039 4.327751991569897,9.494818993685618 l2.866694719466419,5.298367476360047 9.00135172739544,6.489199479769779 l2.040286105167195,-0.08298252114674831 m-5.07693083747917,-39.96656374817608 l0.20273704817084376,2.970439900421309 -1.9406123220312939,8.827414228740686 l-2.3511378460255066,13.303411643913124 -1.982433216663337,8.547197890591086 l-1.6841548061262726,4.998707492156793 -2.1212791834710574,4.32323834927289 l-3.6182243132028304,5.307183766226689 -3.6435772446260453,3.719902344513303 m-4.7176004286971125,-46.58508091169877 l3.166546902314624,0.3935969413960784 26.850273791754358,-2.7022795418790717 l4.726509191230561,-0.10236738416363302 2.3693496432110233,0.4575536328430496 " fill="none" stroke="black" stroke-width="1" /></svg>