<?xml version="1.0" encoding="utf-8" ?>
<svg baseProfile="full" height="112.14778445082732" version="1.1" width="101.71245121901103" xmlns="http://www.w3.org/2000/svg" xmlns:ev="http://www.w3.org/2001/xml-events" xmlns:xlink="http://www.w3.org/1999/xlink"><defs /><rect fill="white" height="112.14778445082732" width="101.71245121901103" x="0" y="0" /><path d="M25,25 m0.0,0.0 m11.656861562828778,4.083288330322462 l0.46135202404722475,0.21378700739986775 3.5704302529799037,2.3705907923730987 l1.6243017073391257,1.5687141352780558 0.6724193792903312,0.9699930938549282 m-9.843152630251575,10.581576782965895 l1.7402501066662808,1.021361463776353 2.0201639514075507,1.5187034004425939 l1.614602914654473,1.5611854076269271 0.6607360935883655,0.9947752650547792 m-4.897911568646072,24.493312893631042 l1.0288334573897135,-0.05374193343731945 0.6892112473066673,-0.9421144127343448 l2.155379131734788,-4.96137448391049 2.421812015372816,-6.232205809646245 m17.58071881615761,-33.805634762373415 l-0.20007408927303216,0.9516996435777295 -0.4028536231956739,2.599707617408847 l-1.7152405755135507,6.474082526320656 m-6.870714376020915,1.1688566125929791 l0.5283220156570338,0.9411683661209038 0.22093706243708636,1.5652881732764445 l1.2662296046371537,14.41591500758839 m-1.1443544428917294,-16.031409901599314 l15.572423110874418,-2.4108284190983262 1.6697876578142894,-0.09234806434380594 l1.0468519451248874,0.4159841393767991 0.6041567566575262,0.902396694065967 l0.08130960907154096,1.5066205683676033 -2.0257738479264407,13.871645771171893 m-16.343229079966477,-7.008061683877431 l16.99328969455013,-2.151804115799667 m-16.095383252135406,9.722910883399184 l14.785432578764388,-1.872302793885318 2.6447873175980328,-0.05044893347517226 m-8.569494647102506,4.201491224140184 l0.47821002853671957,1.455030116255457 0.062199035777983774,1.444778940888836 l-0.10935339332621545,21.77723424938139 -0.24937150333186547,0.8157510718864787 l-0.4018286868630828,0.2559821360291778 -0.4961263519031104,-0.7679288814163433 l-1.5529244075747184,-2.6666176814210862 m-9.206599304208746,-13.70546169961222 l1.3911394262467394,1.6943815233937045 1.2364118540918896,1.9759459087356392 l0.9853377870466097,2.0021183358115167 0.4277178129559262,1.2958338285646458 m-6.256056961171887,10.835724212570215 l1.1527318506454394,0.4538502358625375 0.9926717943520997,-0.4401940465135357 l6.222281590485775,-6.211926322527504 m14.777609755969975,-12.434650105162241 l-0.11045738058508357,1.1431869457422699 -0.8866178029950798,1.5448002672255938 l-3.569532810398353,3.7018248046857387 m-2.4448235920493833,2.284442986532901 l2.4292060926058365,1.7664195331969914 7.496050500997773,8.052313952706683 l2.1973027570661725,2.0581774815334954 1.9448552456128845,1.3139861705242328 " fill="none" stroke="black" stroke-width="1" /></svg>