<?xml version="1.0" encoding="utf-8" ?>
<svg baseProfile="full" height="109.49251279234886" version="1.1" width="108.06563230231404" xmlns="http://www.w3.org/2000/svg" xmlns:ev="http://www.w3.org/2001/xml-events" xmlns:xlink="http://www.w3.org/1999/xlink"><defs /><rect fill="white" height="109.49251279234886" width="108.06563230231404" x="0" y="0" /><path d="M25,25.00000312924385 m0.0,0.0 m6.304236054420471,3.210938572883606 l0.6419426947832108,0.25681272149086 4.2287662625312805,2.514839768409729 l1.7294314503669739,1.4499850571155548 0.9702210128307343,1.2318456918001175 m-13.048439025878906,12.341268062591553 l4.866788387298584,2.366027683019638 2.3193344473838806,1.681312471628189 l0.93172587454319,1.0625381022691727 m-8.936583399772644,28.469321727752686 l1.4442819356918335,0.22716164588928223 1.2856675684452057,-0.8183789253234863 l7.672302722930908,-11.094809770584106 m11.286214590072632,-36.7500638961792 l2.573830485343933,2.786623239517212 2.5577014684677124,4.156765937805176 m22.652273178100586,-9.558209776878357 l-0.32172881066799164,1.2874498963356018 -0.8367354422807693,1.0109439492225647 l-6.688358783721924,4.855026006698608 m-7.060300707817078,-10.687401294708252 l0.39417456835508347,2.372443526983261 -0.6416308134794235,6.562714576721191 l-1.0755480825901031,4.39914345741272 -1.5562030673027039,3.7240520119667053 l-2.019927352666855,3.123099207878113 -2.465829998254776,2.5973552465438843 l-2.894623577594757,2.1468189358711243 -4.1938358545303345,2.164284437894821 m13.960916996002197,-13.584520816802979 l17.313205003738403,11.384769678115845 2.9213562607765198,1.5125396847724915 l3.0004850029945374,0.98037950694561 m-35.130414962768555,6.261881589889526 l3.9036959409713745,3.4577935934066772 3.052792251110077,4.046449065208435 m21.12387180328369,-10.328112840652466 l-0.23952554911375046,1.1184988170862198 -0.8014481514692307,1.1017462611198425 l-6.996854543685913,5.911861062049866 m-5.845564007759094,-10.550529956817627 l0.3253154456615448,1.83957040309906 -0.14437919482588768,2.2394923865795135 l-0.9920527786016464,6.365962028503418 -1.664203405380249,5.335859060287476 l-2.2508984804153442,4.411975145339966 -2.7513357996940613,3.5943087935447693 l-3.1665846705436707,2.8803661465644836 -3.495219647884369,2.2737105190753937 l-4.702114462852478,2.1486012637615204 m18.808457851409912,-19.69812512397766 l13.51216435432434,13.37315320968628 4.709956049919128,3.9254385232925415 l3.494863212108612,2.1780072152614594 " fill="none" stroke="black" stroke-width="1" /></svg>