<?xml version="1.0" encoding="utf-8" ?>
<svg baseProfile="full" height="97.70777100021415" version="1.1" width="101.9533302467122" xmlns="http://www.w3.org/2000/svg" xmlns:ev="http://www.w3.org/2001/xml-events" xmlns:xlink="http://www.w3.org/1999/xlink"><defs /><rect fill="white" height="97.70777100021415" width="101.9533302467122" x="0" y="0" /><path d="M25,25 m0.0,0.0 m9.95522384999532,4.033289825039771 l0.471087941860651,0.2138783366329228 3.1419223918694104,2.1543771763715402 l1.526054547306232,1.496812366419461 m-8.312168536303348,8.611375866907514 l3.419779279607863,2.1148468018052142 1.7461376105510675,1.6595862495781437 l0.6653177326986688,0.9530956116619291 m-6.020960428802134,22.82171885823412 l1.0145137644959619,0.5476007719342083 0.5064533572471186,-0.01454902148854915 l0.8090117627932428,-0.6587619129314504 2.1540997149329297,-4.149157911392018 l2.33579045061604,-5.215790399825713 m17.834822267506116,-32.047185685111366 l2.2960618985294765,1.811606040597158 1.4756614319750112,1.6441804570688816 l1.0240857822469085,1.3591217597388718 m-14.962617802054888,4.574663100235084 l1.2792851686377207,0.25321356581751814 1.5145917340313932,-0.10873679640295178 l21.07356114436608,-2.6961849061308705 2.518659849649812,0.16244664980124962 m-22.260841719026118,5.163156579244575 l2.2465412084579666,3.31448117606317 0.7938663755497264,2.790122867287114 l0.30508480002023824,2.3833578523974897 m12.194831319368149,-12.07249830341396 l0.40793076060242933,0.6641681092408531 -0.2355089470794533,1.540345791551236 l-3.609925384891887,10.081666696035011 m-18.6117765378979,3.195758404301167 l2.3640451544917513,0.21818096905948317 13.819165120310501,-1.5652515602715502 l9.608978188787964,-0.9141860772070656 5.571908218255421,-0.3212969967131453 l1.8926567760067565,0.22177773774507187 m-28.003869608782594,9.545005913184465 l0.5440658378357346,0.6932773449694843 0.6259760196930031,2.269497120998233 l1.387482002674197,10.97876057118186 m-1.0265601385558747,-13.220977146205515 l18.3275968536213,-1.9127643277648767 1.279507098043069,0.3473326709653062 l0.5183303394703853,0.9270050347503855 -2.4722849710816375,10.506089548353687 m-16.33158949938826,1.827383777504891 l17.293387263000238,-1.5441688782263052 " fill="none" stroke="black" stroke-width="1" /></svg>