<?xml version="1.0" encoding="utf-8" ?>
<svg baseProfile="full" height="95.12926380550152" version="1.1" width="91.69650231300818" xmlns="http://www.w3.org/2000/svg" xmlns:ev="http://www.w3.org/2001/xml-events" xmlns:xlink="http://www.w3.org/1999/xlink"><defs /><rect fill="white" height="95.12926380550152" width="91.69650231300818" x="0" y="0" /><path d="M25,25 m0.0,0.0 m12.582908965792656,4.53273185132826 l0.37274832841502903,0.1872982635461117 1.6967243992020355,2.3025098033319447 l0.9684150395782682,2.2593387717299063 m-6.641458185746088,7.539121349753724 l2.606502439245517,0.6809253775615348 1.704452311864928,1.0492427102328925 l1.3002047444300482,1.0992146000140761 m-5.592736301451698,21.523356159345454 l1.4833920400456582,-0.24646998589129623 0.5932031162324131,-0.8146526278381873 l1.6706092480045682,-3.656718582091264 1.885734682295895,-4.651921757316587 m4.342796805301223,-23.038211286097553 l1.8141539141618268,0.25225782647132144 7.6986641576324475,-1.7189594408123727 l1.5066746125137935,-0.25360703970568577 0.7448504621701947,0.10248064054117408 m-5.451461583910667,-5.568631596325016 l0.518455175265001,0.7758999430635446 0.11973375812344951,0.6999088440972288 l-0.0029693430940834703,12.412884083504725 m-9.39321206706387,1.5501623154998672 l0.752245260125504,0.3020304267435959 1.216401522800623,-0.01186281001296667 l13.949428021847849,-2.694977652508478 8.253925664722674,-0.30838809986579246 l0.9961151245029827,0.4395500964879246 m-4.889955879267053,-13.258071442798474 l0.091704869215922,0.9039430004105109 -0.3358989870236421,1.0461313700880959 l-4.201724377695464,6.5713968168213714 -3.5258098624635252,7.668831504250858 l-4.2182237693663,7.88250790513927 -5.4839372036285035,7.707834091243808 m8.40879037534939,-7.4528299267412805 l1.04585268012868,-0.07039901664115374 7.591985683317899,-1.4793274795798055 l1.3652233443061217,-0.10399888730806588 0.4696436052432885,0.20408848425203216 m-7.114980158518127,8.082672833458869 l0.269232606300781,1.3849470405775628 -0.0363724447150488,3.282426174477531 l-0.14653592308754634,4.020111750230931 -0.4480502406352067,3.2349137184596533 l-0.2933172368510413,0.5989790903641681 -0.36069605524101217,0.16059459400754028 l-0.411002368602281,-0.18580910761107053 -1.3224881682275054,-1.6587506666112621 m-4.457562379898032,-9.276019176378355 l0.07783556705576504,0.7572473589092945 -0.10155008492195049,1.2040733267038157 l-1.9771216894832615,5.847858905363268 -0.1495427660778522,2.2030253322098323 m11.761683521616701,-10.454990778830796 l0.9062280090661068,1.715065300963883 1.1145030020705498,2.66421382016558 l0.952831217198228,2.7991025297950745 0.42440901226311345,1.94442003282571 " fill="none" stroke="black" stroke-width="1" /></svg>