<?xml version="1.0" encoding="utf-8" ?>
<svg baseProfile="full" height="118.45621699140871" version="1.1" width="97.63897394712885" xmlns="http://www.w3.org/2000/svg" xmlns:ev="http://www.w3.org/2001/xml-events" xmlns:xlink="http://www.w3.org/1999/xlink"><defs /><rect fill="white" height="118.45621699140871" width="97.63897394712885" x="0" y="0" /><path d="M25,25 m0.0,0.0 m10.349203595664962,4.1941254343771845 l0.46448331878098303,0.21827206102434665 3.315626835341028,2.493604070951937 l1.466386443796971,1.5929724334405884 0.668138877871864,1.06260896228165 m-8.50246299764999,9.082285814244727 l3.6148696740285047,2.3323597120170656 1.7731744200295307,1.7590981159362395 l0.6810734754483967,1.1019649344798883 m-6.43567607953429,26.843858591221217 l1.0573020053119682,0.14014433712457638 1.1305605333925741,-0.9171459358927573 l2.623728352963127,-4.804368514368549 2.636221320100405,-6.247783918603696 m10.027032710494819,-33.621989853994776 l3.070922168211208,2.941411929574296 1.497639388958866,3.6462212901111495 l0.5055067786131611,2.4966865670466607 0.16766211794830335,4.423966457515818 m10.942932153636669,-12.330814733336224 l-0.08607005305291152,1.9406308467079387 -0.8316824770102034,2.587425123270365 l-3.749422340841125,8.990538908132596 -3.0769220196295612,4.30265879210663 m-11.560725780756128,2.8881193643317173 l0.7140194585242505,1.9702972770946459 0.1571297127347968,13.195965055895924 m0.263182238123498,-14.93981898991143 l16.509228325774114,-2.4560544098683024 1.2220115771903608,0.05631077392367005 l0.42918287965044116,1.909920418180644 -1.5809490981588832,12.570105726829583 m-16.375299356835807,2.3832731269708676 l17.245146749333006,-1.827530028954322 m-12.989899836502264,5.362228255783572 l-0.051764433445145794,2.058175156362821 -0.7195914069135445,3.0710883047632747 l-1.1400218964166884,3.552752046553215 -1.619293888000401,3.7888897269417843 l-1.6741051894345051,3.0569966287308774 -2.0314575722993937,2.897902010017255 l-2.375662800546597,2.5811409076499525 -2.0159671285408605,1.6218435259230493 m17.5937391271223,-24.6090180604138 l0.5333830348045482,1.0284490300702074 0.18877000140147196,1.2456933176649025 l0.03811448692593391,18.291909859887898 0.3994937526408569,2.1289262350468627 l0.49587060729417654,1.027009660904385 1.2643137087003797,0.9256527524942217 l2.058777111005947,0.42651980654424915 4.533678270950101,0.020738086622117072 l2.5915883137618123,-0.4015325801857978 0.8826476240938946,-0.48286132272111276 l0.859014762968654,-1.2213854345681863 0.3283520336812498,-1.1712347470286044 l0.15584035542203228,-2.302776742798965 " fill="none" stroke="black" stroke-width="1" /></svg>