<?xml version="1.0" encoding="utf-8" ?>
<svg baseProfile="full" height="111.20273618357653" version="1.1" width="99.09092646721533" xmlns="http://www.w3.org/2000/svg" xmlns:ev="http://www.w3.org/2001/xml-events" xmlns:xlink="http://www.w3.org/1999/xlink"><defs /><rect fill="white" height="111.20273618357653" width="99.09092646721533" x="0" y="0" /><path d="M25,34.419906968752684 m0.0,0.0 m13.004866696123818,3.469100384200979 l0.4991887029516218,0.21809150942656433 3.27291802880815,2.386425882734918 l1.5064006795349016,1.5752227282469782 0.8291418910057391,1.2775001639213368 m-9.112037674772742,10.950811378810094 l3.9669289118329134,2.299099178271068 1.8534434957368429,1.6730294019705794 l0.7359556402666417,1.0469406595858348 m-6.411862602830656,26.795486445331527 l1.0662702044103913,0.09112148232396688 1.1360341106689746,-1.0765009779436674 l2.2936181032396146,-5.307115221938365 2.431429731692866,-6.568718003805941 m7.80535954002974,-35.547569516096786 l2.3555870155216634,0.27762826180595107 15.14068054089754,-2.4835361006150696 l4.809359239901125,-0.3375282830899859 1.907644212196177,0.2678267560644242 m-24.04154242817496,11.244492118002745 l0.6459577975742489,0.9005339483191627 0.3184162564411728,1.4986720917852474 l1.7252599154218446,11.824440670304654 m-1.5357266276284167,-13.3062535394255 l15.140272763731401,-2.8762106729952834 5.098348907167317,-0.7731561101037241 l1.2013059041149625,0.11028572988532814 0.8638456496370683,0.8752347381201997 l0.2089343691932545,1.4737031290363416 -2.152712460232117,9.420897515533092 m-18.52619248038062,2.7442442422436506 l19.92753467106739,-2.1413501222517874 m-20.97389030107274,-31.422756836411214 l0.5251967248469617,0.842627613982129 0.27832419226222416,1.3386852942839749 l0.189774894511538,23.182794992505443 -0.47231347686310854,9.631285822312417 l-0.8180035782647124,6.244689177696159 -0.8795658546668296,3.4052971043873446 l-1.2212723321491998,2.9174215222596045 -2.2811655932174526,3.9514782088208835 l-2.9209221758205097,3.396808566490707 m16.339463897049605,-44.01280826117813 l0.6034721097098097,1.2006445010061655 0.14684571089029083,1.3248753764543546 l-0.04444364148246158,43.710679646892686 " fill="none" stroke="black" stroke-width="1" /></svg>