<?xml version="1.0" encoding="utf-8" ?>
<svg baseProfile="full" height="116.86359914489017" version="1.1" width="97.00582720973941" xmlns="http://www.w3.org/2000/svg" xmlns:ev="http://www.w3.org/2001/xml-events" xmlns:xlink="http://www.w3.org/1999/xlink"><defs /><rect fill="white" height="116.86359914489017" width="97.00582720973941" x="0" y="0" /><path d="M25,25 m0.0,0.0 m12.61750413812079,3.6388513040006796 l0.4721686299106767,0.4735660264340905 0.6897343925968861,1.5270867111098485 l2.227587399985041,14.223924626678894 m-1.7972304178838505,-16.122014301524878 l28.797046133582274,-2.866388147802279 2.819184455651685,0.21270002102320582 l0.9657718438546875,0.7776793680244632 0.2140606339212051,1.645677212079521 l-3.2078191749383933,13.011295809502451 m-29.11487547619091,2.7484164253235366 l30.18276358959348,-2.3568656369404253 m-17.908382473852207,11.305577754622306 l8.633575684509031,-1.0872376525536505 3.86975842483096,0.19069382678844718 l1.3529012925109256,0.23856000108810582 1.192138474180192,0.683463733792645 l0.7957561400288196,1.575399302160596 -0.03439004518535002,5.244960331586404 l-1.5428698778982353,15.122198338537839 -1.5229796698084868,5.80361855203791 l-1.8305220624696834,6.193475111183316 -1.2852904138486478,3.041095829253065 l-1.4458357504327173,1.637864598484086 -1.4607511579797643,-0.06373269724089381 l-2.369797910177193,-2.1340047226677106 m0.5190714922946419,-35.85049683206486 l-0.06500996006246927,2.459286233270605 -1.512443469974896,4.34770759280452 l-2.353473211645488,5.255135473237115 -3.0224670519383787,5.514901907702857 l-5.748685030238881,8.245563318824262 -3.673371890110567,3.9630514032488198 " fill="none" stroke="black" stroke-width="1" /></svg>