<?xml version="1.0" encoding="utf-8" ?>
<svg baseProfile="full" height="106.75014236448894" version="1.1" width="94.38410475763015" xmlns="http://www.w3.org/2000/svg" xmlns:ev="http://www.w3.org/2001/xml-events" xmlns:xlink="http://www.w3.org/1999/xlink"><defs /><rect fill="white" height="106.75014236448894" width="94.38410475763015" x="0" y="0" /><path d="M25,25 m0.0,0.0 m12.29407635668131,3.993694783470508 l0.4263837233260337,0.25525855538913667 2.872851780119686,2.472971921267979 l1.3915184320166467,1.5243682050859186 m-7.691658445251893,6.1565746836646 l3.0968404315542597,2.216320090504276 1.4209530187973967,1.6133043641024725 l0.628242684009635,1.007580246787299 m-5.579569812693765,18.76258203194461 l0.74690314176605,0.5188694076604009 0.4046612318538025,-0.020693452799525565 l0.7540591501135271,-0.6283355689378576 1.9865148781765056,-4.076796811482112 l2.1679394312925346,-5.066134806295894 m13.999762607731236,-19.857917874981947 l0.31430755315110565,1.5073287131156825 -0.4550550759676429,1.4659529876705673 l-1.9411426267230703,5.78347244086865 -2.257854810453385,5.235864463142946 l-3.214629163063623,6.056155626913505 -4.050150148993652,5.62703456668765 m11.793598845837604,-21.152267220942527 l4.634545939524757,6.1117806662508665 7.003214928202297,7.952543015993981 l1.4375208108093558,1.3886512030127267 2.2002698958134372,1.3722233463462297 m-20.851805987004763,-1.6119981004390922 l2.1342251619167873,0.08763427878733646 7.511904077236369,-1.3319035911648947 l2.4769355098111983,0.061824917079668786 m-15.470049076158665,8.707787591368568 l0.6258968768990697,0.04929777982590631 1.2493403221174704,-0.053247123899952245 l5.338019105791414,-1.0229646305709903 8.534140511606774,-1.3686234702636049 l1.8078142272912052,-0.023788926947768706 1.4372147099434973,0.21271974285640982 m-10.878762318805745,2.458894736079592 l0.4126000435681377,0.6555745980874002 0.27458826995923136,1.2769413219378205 l-0.04787669016124149,17.491825899667155 -0.26968113227552676,0.7751540630059879 l-0.4709842552816632,0.16462769463924354 -0.578029974301971,-0.4468081372064529 l-1.5170211758899246,-2.101802468142794 m-3.4652776538004098,-8.811561130286215 l-0.07958740329564742,0.8355972626308833 -0.31194166791860917,0.9089048697001421 l-1.7153413322490612,2.5582394299261613 -2.698777226287463,2.955283518550084 l-3.718482357772681,3.103322498468372 m20.313708580118423,-10.449081644581213 l1.5948382523426397,1.474153592889918 1.9155483758664056,2.4623947533743693 l1.5275564226912148,2.522778232255863 0.8860662570162342,2.021857548569129 " fill="none" stroke="black" stroke-width="1" /></svg>