<?xml version="1.0" encoding="utf-8" ?>
<svg baseProfile="full" height="114.12592689083081" version="1.1" width="103.18078636150103" xmlns="http://www.w3.org/2000/svg" xmlns:ev="http://www.w3.org/2001/xml-events" xmlns:xlink="http://www.w3.org/1999/xlink"><defs /><rect fill="white" height="114.12592689083081" width="103.18078636150103" x="0" y="0" /><path d="M25,25.492435480848233 m0.0,0.0 m10.200922845447028,4.238860227462928 l0.4937968181319817,0.2389394622588254 3.6452499853644897,2.7525691928623766 l1.457082983927141,1.4713088879241647 0.7724233076194765,1.2022811389407668 m-10.282166541059633,9.19480582720122 l4.131150898894268,1.0515018951333848 2.555096373651489,1.257808863672572 l1.8610703862055056,1.2825495414689632 m-8.654571499575917,25.18759233643538 l1.2676704422552165,-0.027874815732568715 0.888193311715997,-0.8967248432201643 l2.551425087335745,-5.068092931112345 2.698173436791306,-5.780300691322982 m9.803827248867684,-27.051329872747758 l3.58283542604581,0.18715852350621814 20.464750483705494,-2.207039680820244 l3.266057237680016,-0.23526848553750224 2.477798128497936,0.18162527980851237 m-29.25587361361383,-5.579133278722182 l0.7870841414626556,0.7648407067169957 0.3955115308280845,0.9109592864652869 l1.786540207229788,10.775490081884428 m13.988152392558197,-14.344962133374512 l0.40663986984111117,0.9366659879489982 -0.03566208881988021,1.1188687376061326 l-2.3132436758902792,11.204779983684515 m-22.086081606158377,5.001051725454977 l3.034136541974647,2.401024241511042 1.8967561096416836,1.8489463296725461 m21.167511166204616,-7.132119053176214 l-0.17587354287968276,0.8892589183276187 -0.7997334772875845,2.4124224871418094 l-2.7913701397049575,4.554940418447051 m-24.346730311816373,3.7303563608247097 l4.550337673424571,0.2120241852434091 14.54220940717261,-1.5512882179499192 l10.514840800110914,-0.8185182541500019 4.631140334476462,-0.13991793617916484 l2.976864395587452,0.2959568607090812 m-20.79723276607508,2.86329268827318 l-0.15759005579193755,0.9391803638094764 -0.7722247594246804,1.199948561842438 l-4.098796562636126,3.781372037692411 -5.457213071038775,3.6203495454572447 l-5.942743062671485,3.24164837278633 m12.576001079547959,-5.582364955067859 l2.602236623031154,1.8143989417907027 2.060880198449969,2.1979829871706205 l1.7324615817506062,2.5345218603557154 1.3644377222988984,2.8504581624255874 l0.9851161917889334,4.826907857585467 -0.14996583463405913,8.001270939267084 l-0.7126822526975087,2.744137772517988 -1.06451989785053,2.507624394582677 l-0.7103792345143725,0.9718637880725398 -0.7390828043115256,0.5334486884633556 l-0.7447760454402786,0.1154321086892713 -1.38587297829127,-0.6406103726570817 l-1.3902343562079311,-1.515148650267376 m1.1838554024532955,-21.377102399247864 l-0.12639175563810742,0.9516077634495598 -0.5634054291815486,1.077281807706042 l-2.7357026714665276,2.7565942964977572 -3.806533734220055,2.839542709126269 l-5.082934329663802,3.009179499690218 m15.773933792304575,-4.607781557324519 l-0.36050347958515394,0.9089221144054245 -0.6390077524866881,0.8505135796494069 l-4.391689942727906,3.4966244519459155 -5.911465762963496,3.6678468991866207 l-6.840019192735137,3.3501025479167383 m30.551811598249312,-24.246975127582417 l-0.49325128881697977,1.2623662385084873 -2.0054290367136067,2.2287568906620505 l-2.638282975480246,2.1832801483308097 -3.132414621590681,2.0333872375264264 m-2.023544039639047,0.6618515656932734 l2.5764712421932114,2.4148062644191497 4.238518324491012,3.7154791802475327 l3.8042210253858,3.6770076465205825 2.5354552685485743,2.9575500128786434 " fill="none" stroke="black" stroke-width="1" /></svg>