<?xml version="1.0" encoding="utf-8" ?>
<svg baseProfile="full" height="102.88734523092049" version="1.1" width="106.10412731089299" xmlns="http://www.w3.org/2000/svg" xmlns:ev="http://www.w3.org/2001/xml-events" xmlns:xlink="http://www.w3.org/1999/xlink"><defs /><rect fill="white" height="102.88734523092049" width="106.10412731089299" x="0" y="0" /><path d="M25,25 m0.0,0.0 m4.064064948094666,4.398933891348438 l0.582919313398764,0.22809536090719873 4.4971436762492685,2.4508533109314667 l1.9481114948950744,1.5060439544310371 0.8544102703848233,1.0417913062961552 m-11.268303650036755,10.756518292683651 l4.828110330338076,2.32802078971913 2.2323443983736535,1.7159754743429074 l0.8537345613089062,1.055875782125275 m-8.420792079313832,27.2213447739916 l1.2859296292684141,0.18389229414363342 1.4780142716475253,-1.0297921404180066 l2.94534497097055,-5.166078360067461 3.20459823021986,-5.992916392880185 m25.28091638501794,-39.41532363457629 l1.020263825451997,1.7846834829456906 0.053396849309245466,5.32566889082136 m-18.306419136807463,2.061494124591534 l4.751069716620484,0.23561072967291194 27.09403607715866,-2.798036529890128 l4.29745543864093,-0.20065562282718627 2.8277777897022007,0.3451533799526881 m-27.25796685023683,3.8681497695108322 l0.048951278032654394,1.3291284392406155 -0.3333894726338001,1.1222980670072509 l-7.294400772278183,5.0516302481374185 -6.034156563789961,2.9381082931618163 m27.24888814766028,-10.269441885337706 l3.8261551006327563,1.8270416753091914 3.9344217666434345,2.275621028725151 l3.2817452510240166,2.451222738452247 1.8828453793652122,2.0145326501818426 m-33.407458623629914,0.7896750473419347 l0.5907573405403612,0.8065408561473817 0.35439753545112535,1.3304260842738147 l-0.01830962417151985,22.234084618198484 m0.6041296404372739,-24.116833086336985 l23.268790149569714,-1.9921833146630974 1.8337818048470174,-0.00450032353720011 l1.230351021043889,0.5579756659971281 0.5951368748832307,1.3697256578256514 l-0.04336115317937241,23.709469240350202 m-26.00458153609163,-15.894360813427983 l24.969757944506934,-1.6215972746744678 m-25.05078361245122,9.190799029703626 l25.30356563662343,-1.7552853103735977 m-25.349389724401323,9.410149592804093 l24.7192354277718,-1.501625486247839 " fill="none" stroke="black" stroke-width="1" /></svg>