<?xml version="1.0" encoding="utf-8" ?>
<svg baseProfile="full" height="115.08679661180484" version="1.1" width="102.57170939689364" xmlns="http://www.w3.org/2000/svg" xmlns:ev="http://www.w3.org/2001/xml-events" xmlns:xlink="http://www.w3.org/1999/xlink"><defs /><rect fill="white" height="115.08679661180484" width="102.57170939689364" x="0" y="0" /><path d="M25,25 m0.0,0.0 m11.457577209374898,10.947660363367481 l0.47594547458436987,0.1754790987027107 3.6544405510778932,2.118684082262138 l1.6078692085211146,1.2965424996987802 0.9058885352018549,1.105671644111685 m-9.501013028757976,8.42255094334531 l1.9190675035676226,0.9874250321681277 2.4850730687026723,1.7564807236611824 l1.5377996390155837,1.3401723052226517 0.9012918175955328,1.2175926988010979 m-6.123629926469706,19.862149245840346 l1.1719465830780822,0.4830661530025888 0.5624930491551311,-0.013916597566312087 l0.9059149061687062,-0.5951152268571237 2.430020899548518,-3.8160070039902783 l2.603745348462083,-4.808879900277295 m17.124749034367326,-32.602357507766826 l-0.11771332199961612,1.5326974779660956 -0.7546007702194218,1.7061188565717524 l-1.4255713975501265,2.3826909101531815 -1.6970397440795009,2.15540901483216 m-5.487632068793242,0.16934995931404262 l0.6341825967294932,1.6582479514464201 1.382480236815469,22.78525536163063 m-0.9532366375241045,-22.89532006558602 l19.185748176042363,-1.9065320923160194 1.2170188071408305,0.10718131988845284 l0.5004714024350561,0.33620112617795755 0.46682543265452986,1.004921016131289 l-0.0065651556068003145,1.5909063020428698 -1.1090695637748587,20.668141834301508 m-19.444866732479042,-12.134176563558427 l13.01990300775724,-1.0145478784485378 m-12.691786006719587,12.481565754641789 l18.69101113567422,-1.3833593989456752 m-26.22321524774634,13.224883382059879 l1.2275960713469254,0.2582558500023246 1.5015766423126808,0.03943340116337213 l26.12360701703957,-1.9369026246640348 2.8103890478540214,0.008484611917587856 l1.6030165963901521,0.3284054061797705 m-18.196366646481923,-7.454489060840155 l0.6184362586230167,1.0500592377121374 0.3365351263323275,1.2092454156927102 l-0.0745607579066612,15.30452186049519 0.04057475869193228,1.7253036230910284 l-0.1893417752076773,1.5802987613649078 -0.543629165679554,1.708328254790853 l-1.1963302913104394,0.919019052869528 -1.5994741051582453,-0.18455130028490233 l-2.25747211004913,-1.3424540092712105 " fill="none" stroke="black" stroke-width="1" /></svg>