<?xml version="1.0" encoding="utf-8" ?>
<svg baseProfile="full" height="102.03331008149966" version="1.1" width="105.09424051131481" xmlns="http://www.w3.org/2000/svg" xmlns:ev="http://www.w3.org/2001/xml-events" xmlns:xlink="http://www.w3.org/1999/xlink"><defs /><rect fill="white" height="102.03331008149966" width="105.09424051131481" x="0" y="0" /><path d="M25,25.74153312215026 m0.0,0.0 m10.258576805015371,2.8497980972433523 l0.4825657550559324,0.20108905265417942 4.068368197679056,2.4321936500251327 l1.7071178892349552,1.4960617912912855 0.9551340098317852,1.3005534371683736 m-9.643100354356134,9.814253419083355 l2.015641260233467,1.0706471196597789 2.5863959859700993,1.89041436540613 l1.6012328954188306,1.5590474080731498 0.9332240545835365,1.3767621465835869 m-6.384423133814865,22.250376583966087 l1.209714060414575,0.5372242899569161 0.5836643480653161,-0.01592274857759027 l0.9382844372321959,-0.6756137251081451 2.5157447093214684,-4.242175605258763 l2.723492213184236,-5.361612897378863 m18.526458015907625,-37.22462950693823 l-0.06973507849478078,1.609483540367494 -0.7502596199635121,1.8609213188863951 l-1.5383513239919666,2.932808130555851 -1.7379725253444118,2.715556964007424 m-6.069028039830269,0.1777621522690809 l0.687895567890606,1.890278109596048 1.4446046013498777,15.217256177266579 m-1.1759367143152761,-16.386105273865656 l18.96211467336409,-2.1754614531083254 1.1838107011304033,0.16091579570660963 l0.7574865996079778,0.9724555310607134 0.06362309306019173,0.6622497137083867 l-2.303602152751316,14.605914045892664 m-18.2298333667425,-7.15932768263695 l12.909191050593668,-1.196242944039659 m-12.215168196175634,8.772062299617955 l17.35804315930934,-1.5936992395972223 m-21.17932364358238,8.414554179410542 l2.3101433960374753,0.09996334856064634 21.99308213774089,-1.434220289540044 l2.4936397583838392,0.32187401928347587 m-14.79572726161051,1.665264024146766 l0.4900595743823502,1.1192167847796335 0.20388931889264328,1.4485581126076337 l-0.031397038502691405,15.734778521060663 m-11.324614050095205,-9.30097107166519 l0.944084085233859,0.20090554269309743 3.8253798049299625,-0.1916606802786324 l15.824052791739282,-1.6354967366297308 2.8210315809268924,0.14500936066400627 m-28.8610845218754,12.071781263583436 l3.0868934295515627,0.30692651713596003 16.35765107346902,-1.8189351316358555 l9.141383329345247,-0.6883734747127249 4.998273939065238,-0.04999053355910537 l2.441849229608799,0.5890430876299407 " fill="none" stroke="black" stroke-width="1" /></svg>