<?xml version="1.0" encoding="utf-8" ?>
<svg baseProfile="full" height="110.28652637356613" version="1.1" width="106.87748296958674" xmlns="http://www.w3.org/2000/svg" xmlns:ev="http://www.w3.org/2001/xml-events" xmlns:xlink="http://www.w3.org/1999/xlink"><defs /><rect fill="white" height="110.28652637356613" width="106.87748296958674" x="0" y="0" /><path d="M25,33.684029183818225 m0.0,0.0 m15.499381455026148,2.671096186148734 l0.5266460404447377,0.23643675400112366 3.7045960653817676,2.6614740466233546 l1.6623369573546734,1.591148198397636 0.8953536124852296,1.3111741209023922 m-10.541832915767628,10.830301582078889 l4.273895916154854,2.444449512014104 1.9879257315517573,1.7362345123903666 l0.8010904518925783,1.1291664350446546 m-6.880900968737041,26.817286584746167 l1.2102376033438824,0.17372925740048126 1.2529736994817988,-1.0242670281539124 l2.6203932950805497,-5.408117855079523 2.74206228814095,-6.681183093889658 m7.718889804097634,-36.11395752574494 l2.464170524663818,0.3164572235817788 2.6577971261518107,-2.4197528316196517 l5.918827130345674,-6.663751137513339 0.7041697207303841,-0.33033520028822044 l0.5104296507756773,0.3062640632000223 0.1787302214650171,0.6801541310242434 l-0.3265984698299332,17.096442523180617 -0.8844790032246186,7.386769459149802 l-1.2155656513445492,5.5541423185966075 -0.8516609998668636,4.309586263761386 l-0.5196580655512936,2.2199541369171225 -0.5402518380717822,1.345517944005065 l-0.597375093631057,0.5673707114270037 -0.5695019833863169,-0.21834810670693 l-1.0821714517764076,-1.443579322207227 -0.925463775651502,-1.8084874848505963 m2.0826168768377262,-29.203805736929798 l-0.12577229051669447,2.127250454634878 -0.9901403975455805,4.541073243929639 l-2.3297531860063034,7.624511743295526 -2.7317584063014886,5.944377193341973 l-3.6058212534959435,5.30525664443519 m17.178613266633494,-31.671821351328386 l1.149443290770733,0.28919188005735025 1.2547851009434314,-0.1348386844030879 l11.417768876517336,-2.7786009493890766 1.1830540140200925,1.3733904070604053 l-0.2485549873795199,4.704467365121242 -0.9180877133798361,8.809026459131161 l-1.0046785098826287,7.097565479879764 -0.982791505974715,8.024012082632819 l-0.4724185994186018,2.8601860378450388 -0.5143835347288409,1.7976418024695089 l-0.5560585938172999,1.0344575561876415 -0.5550219510822466,0.324779491254921 l-0.5321159026584197,-0.20079567350816876 -1.2833379223688202,-2.0608552462302177 m-0.5280649934739272,-30.101915187809592 l-0.1347439183244431,2.386168883845267 -0.7336397267037024,4.03542582567452 l-1.019378568575537,4.292511715058094 -1.2310493221617447,3.9708235821234648 l-1.3088474608449232,7.058069880925043 -2.3841622847398107,10.903387198122315 l-1.5092918655725198,4.733099398109551 " fill="none" stroke="black" stroke-width="1" /></svg>