<?xml version="1.0" encoding="utf-8" ?>
<svg baseProfile="full" height="101.62694435623203" version="1.1" width="101.04369351318418" xmlns="http://www.w3.org/2000/svg" xmlns:ev="http://www.w3.org/2001/xml-events" xmlns:xlink="http://www.w3.org/1999/xlink"><defs /><rect fill="white" height="101.62694435623203" width="101.04369351318418" x="0" y="0" /><path d="M25.639407371097384,25 m0.0,0.0 m4.853491375415191,3.101632318885205 l0.5606180700384849,0.20272211238188537 4.116831503354897,2.234961862008268 l1.940168636506671,1.5214229935639578 0.8010553181339342,0.9407009827780252 m-12.911572274546566,8.782677609065894 l2.3532306400011427,0.9548131081380998 2.6327074746133965,1.4290659579073584 l2.0881888394584878,1.4715244311089055 0.8454031975801136,0.9410853414967794 m-7.224441787806805,25.61005677999382 l1.245810900124618,0.09456138084492662 0.9630058147976508,-0.8056649711847637 l2.645938332201673,-4.532087135066145 2.926782338346241,-5.908095507121707 m9.423823312622487,-30.201122440663532 l4.096330762711853,0.14364673744810585 21.00032105894418,-2.3155629151869825 l3.992236144987872,0.24254049186786308 m-28.114629708267287,9.44476612622731 l1.6650169062631996,0.38389958285799974 1.6772736805986543,0.023263945889607188 l20.676410250571802,-2.4648561072634 1.4434323289656648,0.5115647741451151 l0.5043088275458291,1.0383594563368903 -1.554897322735585,6.421991868162773 m-22.194143348761028,2.497507894430302 l23.49005501398324,-1.8170353797048935 m-24.61691011299845,-5.928307545914638 l0.48217271237507053,0.7831794204273723 0.18666004145677728,1.053245669147466 l-0.3076117322792226,4.77873702388199 -0.8166814641608852,6.848368512519503 l-1.260730533358425,6.024268725545161 -1.294567187839812,4.174293900972398 l-1.6246777704784832,3.736880005908839 -2.0846994226803663,3.486178141294477 l-3.1388605846532696,3.7203583830011637 m12.445362969504176,-15.866977774827271 l3.436457424141014,0.14201604603010498 18.330750516272754,-1.9702545308147106 l4.382977549311697,0.24181148410108372 m-14.37257880109007,-6.782195927288802 l0.3621749584739914,0.9231755033186362 0.0023631188896394485,2.1529144716840745 l-0.7298249450779696,6.163524435208189 -1.2795937317570418,4.3024208418838334 l-1.9074342868422713,3.7302722772874684 -2.462225488507487,3.1565447741679975 l-2.9750108757953018,2.6643149006414726 -3.4726609790910454,2.2529013120450667 l-4.003042835364498,1.8909330066634646 m17.31712287259109,-19.137148967576653 l5.731203000562815,7.977847195709844 3.654033206001016,4.704232056610178 l3.59407075321299,3.8542687762972605 2.8832914856183587,2.009153674559987 " fill="none" stroke="black" stroke-width="1" /></svg>