<?xml version="1.0" encoding="utf-8" ?>
<svg baseProfile="full" height="111.46296979333867" version="1.1" width="106.72685152180036" xmlns="http://www.w3.org/2000/svg" xmlns:ev="http://www.w3.org/2001/xml-events" xmlns:xlink="http://www.w3.org/1999/xlink"><defs /><rect fill="white" height="111.46296979333867" width="106.72685152180036" x="0" y="0" /><path d="M25,28.9206353970183 m0.0,0.0 m4.890057683087774,3.198132555920652 l0.5379840083511868,0.22006831684150263 4.144529265464339,2.4328376307578767 l1.7626459034247726,1.4602250965945942 0.7859203565291819,1.0214558489949215 m-10.630874499076732,11.029958923758809 l4.708558963773106,2.46070776416541 1.8042824240860527,1.4651658495250979 l0.8059454470202715,1.0140405567069135 m-6.920701640133427,26.16523299464874 l1.1858318910473402,0.023112898163170588 1.3047676208760686,-0.8938368870230637 l3.0578175587490013,-5.195275528635222 3.2486476843575494,-6.807119735767732 m9.977954104657455,-33.86947097466164 l0.6624703632458326,0.8501199009327405 0.36546184385263986,1.0228960626042312 l1.9078447795366764,9.440279516437453 m-1.623735847744994,-10.717029388479135 l18.722233771353494,-2.16365841142553 5.957695326236981,-0.5138207389163855 l1.4970258892602974,0.14354995734073225 0.8207769918235545,2.0171038983619463 l-2.2203319174247618,8.253356170835518 m-23.04930170905589,2.326613962389773 l24.13534110978503,-1.957585210539305 m-14.175661407569828,-16.347696426550367 l0.7096096107869024,0.9460641966217512 0.33454452970478504,1.32808680454797 l0.08406434429869225,19.079087664184193 m-18.565845528482324,2.0176018178843327 l4.011247943841081,0.24464447104131573 29.594659488663456,-2.458767416722986 l4.371982950877052,0.2323535425463049 2.5234022165977343,0.449891731691094 m-32.707027785725224,7.377184397411659 l0.6779418208409035,0.7689777911354397 0.35775059170580864,1.3628875147469013 l0.023412898193793188,20.74136720907915 m0.5555443941664026,-21.864226997154184 l18.36642623520928,-2.083173785823035 1.661839006680752,0.06635433582040426 l1.0049682823099924,0.4668750443266476 0.38841604255208523,0.49309320013147173 l0.22186895116316083,1.550675756924144 -0.09049345834550312,21.259901212327883 m-21.2194452984654,-14.545862783783834 l20.44875371683015,-1.9116183730994432 m-20.495837481484784,8.54555412475858 l20.302719668639817,-2.1229799756717584 m-20.641437312133785,8.758778442792913 l20.92932054682106,-1.9144872491570857 m-17.75447478713394,3.8694324503481092 l-0.25391209991673414,0.6674395556681708 -0.6036668752477331,0.9845414934799397 l-6.112460040361697,4.710438685310903 -3.9454758590571384,2.2291668363196813 m22.412483082355802,-8.009525446181096 l6.002121600803499,3.8662317615910036 3.095240154203726,2.590804947307124 l1.579542231502076,1.766176832935005 " fill="none" stroke="black" stroke-width="1" /></svg>