<?xml version="1.0" encoding="utf-8" ?>
<svg baseProfile="full" height="100.96515135721035" version="1.1" width="106.81969032805146" xmlns="http://www.w3.org/2000/svg" xmlns:ev="http://www.w3.org/2001/xml-events" xmlns:xlink="http://www.w3.org/1999/xlink"><defs /><rect fill="white" height="100.96515135721035" width="106.81969032805146" x="0" y="0" /><path d="M25,25 m0.0,0.0 m10.478005095584418,2.8092331272845374 l0.5313450929076391,0.22147621214311486 3.792636435507567,2.1632066237918948 l1.7364976010820405,1.41552194644563 0.800851471664292,0.9851283896681942 m-10.648069053098869,11.639653941438327 l4.43821093835344,2.259692157175754 1.834933644612701,1.3987894872524804 l0.8164071939906181,0.9809329445865322 m-6.902209914741442,25.08702729189068 l1.169745189486203,0.62351312466311 0.5807573194613654,-0.022255489326640832 l0.9444756250112707,-0.7536024839659945 2.4468777714014776,-4.757523320628689 l2.6580148083935287,-6.102975410510606 m10.647115344037319,-35.379589643933485 l1.5324081728464225,0.21069623833899515 1.6352107151949173,-0.07789564295814196 l20.30037772040942,-2.265410605030281 1.1794057962311555,-0.129117717973104 l1.2476344721397012,0.2527923383585683 m-26.949096740999874,10.585445790947471 l0.49163951538164247,0.329572066723987 0.6437116780606811,1.6124477361699343 l1.4375166892363416,7.947624363292906 m-1.1835887750216318,-9.462758468055414 l18.154070003473173,-2.1886393082281588 7.393841947544161,-0.7030569449971531 l1.5280610166516042,0.11228324312819314 0.6499614904365149,0.8061618916907238 l0.12779507423308084,4.571585402115519 -0.7655321543961114,3.606827086374354 m-18.869314780640263,-13.726158307363018 l0.6680761311068973,0.9092805984568971 0.2809444051125412,1.0007130903660992 l0.7162110786570844,11.8838289808267 m8.49290342620577,-15.481531605155597 l0.4477717110926395,0.7558452797408627 0.12299242443383945,1.2704145812457792 l-0.813796982504182,12.575863933733002 m-15.419338407099367,2.3651414262583565 l24.465929229195105,-2.2390703478330725 m-23.561806775813256,8.583172080367067 l0.7849562657346478,0.2777273304168708 1.7966971191229775,-0.039583124631341615 l15.075473690350682,-2.054765309303609 1.9644123113451142,0.11328509752986785 m-25.33662127790554,9.80695026520726 l1.4693862487762224,0.3007719373478907 1.7338401503909584,-0.0207326396302336 l24.497716108927918,-2.6068629213019814 3.364759138074566,-0.17784382086679992 l2.1894879284123245,0.32534798960467165 m-18.358266448206475,2.858725783848383 l0.584372382751902,0.9615981149844799 0.2540239729898469,1.2741001944057446 l-0.08427045740593332,12.582991214822474 -0.39577920013213075,0.7608499956920851 l-0.5768605545220906,0.26657654465753355 -0.6882174906064287,-0.12946884109051268 l-1.5095583653371798,-0.9055434782063659 m-5.894160559388758,-9.866677640592092 l-0.21997719903371316,1.0739673909814382 -0.3969832052959805,1.0778978282940097 l-2.0092527920699963,3.0051600612252596 -3.200345346081309,3.3016596125601247 l-3.9429716925104854,3.104733692738877 m27.282443277006816,-10.47056047375874 l2.2061847236256673,1.649612806658521 2.800111538527213,2.8867691902398938 l1.9485515890170106,2.6506234303449054 1.0778032066055354,2.288238015886448 " fill="none" stroke="black" stroke-width="1" /></svg>