<?xml version="1.0" encoding="utf-8" ?>
<svg baseProfile="full" height="99.34085124988658" version="1.1" width="106.89771982152504" xmlns="http://www.w3.org/2000/svg" xmlns:ev="http://www.w3.org/2001/xml-events" xmlns:xlink="http://www.w3.org/1999/xlink"><defs /><rect fill="white" height="99.34085124988658" width="106.89771982152504" x="0" y="0" /><path d="M25,25 m0.0,0.0 m6.747387734355694,10.374840273654456 l0.5189548921488213,0.20114997404094948 3.821140340882728,2.008254401575789 l2.3679724732501453,1.2230250173521897 0.835063068552242,0.8150474659966883 m-11.701071477626352,8.112655287168758 l4.836943484336653,1.6018766336087336 2.213088321719497,1.2606726738048717 l1.2786701001287348,1.0169990393014108 m-8.942965157811356,22.072783980635162 l1.325625182263001,0.12746173256278687 0.9485007078938945,-0.7260680536945019 l2.7603146452754883,-4.068024096674057 2.9616372700008697,-4.905246130447595 m22.38777488704772,-30.5860687539407 l-0.28320432709913224,1.602234339528872 -3.1758641507840983,4.183134684015354 l-3.3759139742465343,3.316429078227474 -4.25494585938319,3.3196796260029413 m10.497307338311744,-8.076427333171342 l11.236967133393714,-1.0952714130648422 0.9565760556679378,-0.03258799701860737 l0.5908516977051599,0.2521048040177309 0.30215600439345225,0.5024733292723229 l-0.5090839208915585,0.8572398771162071 -9.32030072805357,8.436678864134098 m-12.997186419243999,0.9047515546990417 l1.2230922031918017,4.282275907953929 1.3078729277422518,10.416187645946888 m-1.5487955952752144,-14.205817248066076 l24.182190611399264,-2.3839346772450245 2.503576017233169,0.01359360177899143 l1.186678832909761,0.5570690273896002 0.43182413334076925,1.2090932845514553 l-1.3646993896628703,6.680305208791047 -1.7449035294959363,6.782752479497038 m-13.106700876056486,-13.723204661734748 l0.6381432644782561,0.7794027758964392 0.30578416519588125,1.1861465604738968 l-0.01635128788078961,10.427901795095824 m-12.033358743928165,-5.564026409360479 l25.42393317953393,-2.1057620818221636 m-24.648311773502986,9.133267249581305 l23.134515976447307,-1.9274343322816838 m-28.609224388291683,7.76386142524264 l-0.37345258407756365,1.627348598747446 -1.046270408658448,1.711316590675574 l-1.80671539504917,2.0661380708868085 -2.277399660979877,1.9145715791836915 m13.831197620137395,-8.30848624303648 l1.720343379463726,3.1656064911090724 1.2219956852041358,4.303094797444207 m7.480561943156368,-8.250115721183187 l1.4537916705884224,1.467890597264286 1.5433046133673984,2.140728572106719 l1.2659028966584684,2.2975041335541704 0.6866960415788443,1.9550222409979756 m7.518609415283459,-7.490044278708289 l1.7193387874488804,1.3052473529532287 2.326918131771832,2.4148751650019267 l1.4886547252569815,2.0062801459091992 0.8525819108082251,1.7394876329432358 " fill="none" stroke="black" stroke-width="1" /></svg>