<?xml version="1.0" encoding="utf-8" ?>
<svg baseProfile="full" height="103.64695174018169" version="1.1" width="102.06687823385819" xmlns="http://www.w3.org/2000/svg" xmlns:ev="http://www.w3.org/2001/xml-events" xmlns:xlink="http://www.w3.org/1999/xlink"><defs /><rect fill="white" height="103.64695174018169" width="102.06687823385819" x="0" y="0" /><path d="M25,25 m0.0,0.0 m5.985399434804302,4.401968488069065 l0.5148273780677495,0.2244258005080658 4.257245415108027,2.699899071724136 l1.9069323260966446,1.7749693545255447 0.7619242815918033,1.0989517564173459 m-10.720927136815298,9.504688659057965 l4.518239485661655,2.132341659252198 2.4461541023712297,1.8735369036570575 m-7.6604682907692085,29.93617004697031 l1.2444658510902256,-0.04717256708140436 0.7807452208838191,-1.1116217260533625 l2.7768375980860913,-6.154360187026942 2.8241388404593013,-7.163820642781795 m20.410294292295372,-37.665922563257354 l0.9106517970959402,0.9562170782666642 0.4078062274051579,1.6250256054513168 l-0.0058071104920442256,7.727912094271399 m-15.190848640522018,1.5256761470439566 l2.4427066154187047,0.2916011461395889 24.892424221390222,-1.5951118403599032 l2.155446234658686,0.25074152266438954 m-24.983156651281213,5.746108586038452 l-0.020709355451456316,1.2904605636470925 -1.5894876196974561,2.0719292016362636 l-2.7378098730600895,2.5780308806735017 -3.6830432537067073,2.5904451166462255 m22.797008726787293,-9.594069112966274 l3.27039485915101,3.077197255582163 2.6882772775963226,2.7280103856529316 l1.887147553479376,2.4716979379947013 1.6082144240330953,2.5944954110952128 m-9.722377227831215,-2.1327157370858347 l0.11337035578683143,0.935865456752752 -0.19627181548095374,1.1734243602029424 l-1.465210894348812,2.8143420564502017 -3.024568596512321,4.227763212632884 l-3.7229514565349087,3.9690785629720446 -7.615689716181603,6.365864100310004 l-4.095330384527704,2.748688295327455 -5.16119894988335,2.471982201742672 m9.363459286554892,-21.28805881639975 l1.776627500723517,0.5873336377426497 3.1228115197607367,1.900963900352736 l15.425177259506295,11.912805122591351 6.034337745887292,4.153675010529778 l2.8653161636567352,1.482578705161241 3.474353211546214,0.4434454336247609 " fill="none" stroke="black" stroke-width="1" /></svg>