<?xml version="1.0" encoding="utf-8" ?>
<svg baseProfile="full" height="103.3212336890343" version="1.1" width="108.53632458484529" xmlns="http://www.w3.org/2000/svg" xmlns:ev="http://www.w3.org/2001/xml-events" xmlns:xlink="http://www.w3.org/1999/xlink"><defs /><rect fill="white" height="103.3212336890343" width="108.53632458484529" x="0" y="0" /><path d="M25,25 m0.0,0.0 m12.386741060457211,5.366373373566559 l0.4499610052731415,0.15458178010715062 3.566016647969399,2.0883770401855353 l1.5963907816567602,1.3151995129326768 0.8837119079132477,1.114744253527194 m-9.508083540740971,8.58581462017772 l2.0337207709102434,0.872298637704509 2.080404802493662,1.2259250961076504 l1.7038070854232739,1.24673993178059 0.95422464171707,1.0732078734805042 m-6.308538003600715,19.635225467601597 l1.1409374229326956,0.10502554566485345 1.2243247155534984,-0.8584582309076431 l2.5336393646046105,-3.7038369106607716 2.5523646793042944,-4.262610507943826 m21.501069112046384,-23.947110379872292 l0.6468576957392846,0.6247867044733837 0.24899765445500732,0.7693079035561308 l-0.06169929328370177,4.445695682462818 m-15.50520796983933,0.5155958479770347 l3.7386003702313455,0.25056119575515606 25.82596248068689,-1.6496831755013048 l2.26141158167794,-0.01139776140386654 1.6165588716387431,0.2989921448922422 m-29.09543875832795,5.361497502079596 l0.6199975790947527,0.797876434492967 2.1068234105559545,6.975251562126706 m-1.6487905263830394,-7.193996635637951 l18.093021566214855,-1.301101390525019 3.6393343628538832,0.2087746762164829 l0.3460791696926935,0.6751387699970057 -0.14166789143537006,1.03579252503144 l-1.6799954262490218,4.486649528627541 m-17.54555519902799,1.2323102088297437 l18.774061712914413,-0.9393686673672987 m-22.438526175794273,5.235496642864486 l1.827965246306568,0.36996616548200273 1.6809761306681195,0.0583808488799795 l16.350321849612197,-1.6359036618000382 0.6080180521374826,0.4559242815921104 l-0.02581883471353209,0.6363517119765773 -0.8643211014200355,0.7620569796810464 l-8.763624663857932,5.438331420620453 m-1.795211630393541,-0.157418788648395 l1.834824402945753,1.0794604204630087 1.8260938961018958,2.23666380681822 l1.3908176215644559,3.122486693104481 0.4313443274029572,2.9511910613746686 l-0.5085381139824618,2.2297450171578403 -0.705227874348272,1.9558962721411293 l-0.9591670626283677,1.5739195751731274 -0.6174860967735141,0.38483584906332025 l-0.6075681468905573,0.029669233555460056 -0.5829095648251663,-0.22326474962461637 l-1.474589017639376,-1.4493428456310877 m-14.701580764968506,-10.085377026211939 l1.6884471100986422,0.2696421480948574 2.3141438173520883,0.017545268334203647 l14.781671502999657,-1.3798014082466548 11.879314443205127,-0.7720827048320436 l2.981578910016943,0.058639564981300185 1.955332477545768,0.3833291392966248 " fill="none" stroke="black" stroke-width="1" /></svg>