<?xml version="1.0" encoding="utf-8" ?>
<svg baseProfile="full" height="99.77879667280726" version="1.1" width="97.68693287630612" xmlns="http://www.w3.org/2000/svg" xmlns:ev="http://www.w3.org/2001/xml-events" xmlns:xlink="http://www.w3.org/1999/xlink"><defs /><rect fill="white" height="99.77879667280726" width="97.68693287630612" x="0" y="0" /><path d="M25,25 m0.0,0.0 m9.3170534932386,3.439444795760558 l0.4551935398184074,0.21314276018339318 3.6826961151599233,2.4496712485642558 l1.730775924962369,1.6279733481417002 0.6883435172915137,1.0073926444840566 m-9.485698668502407,9.30129372306407 l4.080497444769575,2.011915647955827 2.1873521370802416,1.8260875879975824 m-6.515158219067897,27.901874916655807 l1.0978310897484405,-0.08430801373159036 0.6889568410078001,-1.0133420700153162 l2.4610653846942387,-5.5465296569033695 2.5053588614229563,-6.891061957899171 m17.589477420356783,-35.19897176984836 l0.42072879736514973,0.9444393672655635 0.1796783421012831,1.368808064644364 l-0.02453818590471759,17.247381043171988 -0.5172431065288717,1.2410400208075905 l-0.5732073130305277,0.2951603171695976 -0.5947491402349786,-0.29297473747018565 l-1.2795158268347262,-1.3948086687306178 m-2.8991981807047162,-11.790859359176164 l-0.057433620621252825,1.6401301913359003 -1.4950625128152164,3.3804918700395863 l-2.3813831609111045,3.916635839931382 -2.6175421190466754,3.297095832875914 m20.64202128587281,-12.954253578622358 l2.5414442509147244,1.8313425406486523 2.541117533297608,2.4235620262868274 l2.1360723119416547,2.6864405600871564 1.1819986394651265,2.2742964927479363 m-6.844450844840016,-0.4291360300024358 l-0.44112453755353176,2.5171559825864276 -1.630718128470951,3.862336862172587 l-2.6193523070616087,4.627987105565392 -3.4208942771070716,3.982957108335463 l-3.437452948124602,3.2728651249195426 -3.812961567172606,3.104129631832391 l-4.025555403019735,2.7253684130979754 -4.2506716570198595,2.263241118592958 " fill="none" stroke="black" stroke-width="1" /></svg>