<?xml version="1.0" encoding="utf-8" ?>
<svg baseProfile="full" height="99.66884950292055" version="1.1" width="114.69622327397022" xmlns="http://www.w3.org/2000/svg" xmlns:ev="http://www.w3.org/2001/xml-events" xmlns:xlink="http://www.w3.org/1999/xlink"><defs /><rect fill="white" height="99.66884950292055" width="114.69622327397022" x="0" y="0" /><path d="M25,25 m0.0,0.0 m7.7615199030043245,7.538557475954677 l0.5901232157958504,0.20849002890793236 4.42780596919902,2.3490340757101102 l2.087251455953907,1.5782281432384415 0.8423519345382049,0.9805160896598172 m-11.790723988921147,9.803845708790504 l2.3764552083471746,0.9504391205759672 2.6184238620310363,1.3845174083449898 l2.135702658620028,1.4298170571271318 0.8571121173418781,0.8922308507231758 m-7.410611299365254,22.5531735438878 l1.3645055181897006,-0.04962735586990693 1.4638131015941593,-0.8837630963730405 l2.9673339549799285,-4.307397712535475 3.4987252506088877,-5.764390849925611 m33.5116078986148,-31.070094148861617 l-0.36328110302812283,0.854972309946257 -0.7013067851308343,0.6764462502698813 l-4.834982094948692,1.8573325017306337 -5.896028824597457,1.8980834593643676 l-8.159021298166005,1.8389911100712568 m-3.2487801608533307,8.384430794597819 l4.118385463620603,0.11577465127923377 22.778123697365753,-2.0953050987470494 l3.869982952096116,-0.1445244014606451 2.5049109066330133,0.17944687840967005 m-18.293489722432284,12.86466789557689 l7.091024876303687,-0.25762892438358387 3.949917359020939,-0.8190111259347843 l4.389036225232723,-0.026208856460084643 m-27.94454228549374,-12.362510767053806 l0.8593968789738927,0.9570788035520591 0.2850675361095372,1.0291669962677223 l-0.018023909458912066,19.807224745662577 0.33001477193943723,1.6154180728195784 l0.45740926680342353,0.4199999168497377 0.6854518028656078,0.13411513779698153 l28.263596686949967,-0.04880049326398846 7.271964273632397,0.33103899624138583 " fill="none" stroke="black" stroke-width="1" /></svg>