<?xml version="1.0" encoding="utf-8" ?>
<svg baseProfile="full" height="100.01969930690406" version="1.1" width="102.05190049433614" xmlns="http://www.w3.org/2000/svg" xmlns:ev="http://www.w3.org/2001/xml-events" xmlns:xlink="http://www.w3.org/1999/xlink"><defs /><rect fill="white" height="100.01969930690406" width="102.05190049433614" x="0" y="0" /><path d="M25,25 m0.0,0.0 m9.792991959480831,6.891541740723458 l0.48948083523851976,0.20724070113333257 3.198022583525953,2.0990381078306943 l1.3887764344087885,1.2746775491447395 0.7347224674545919,1.0329011552316016 m-9.356054220732084,10.273616188428116 l3.8482519920652303,2.123381121878526 1.6125714088573144,1.3560717823708672 l0.7320143058700049,0.9722042640986068 m-6.2745877793045866,23.204985300365877 l1.0767202989580094,0.5840413956982383 0.5189490090871716,-0.0170763548010163 l0.8452293700804389,-0.7043206991813467 2.198423047613018,-4.474650049668956 l2.385909441561843,-5.721820231639946 m10.164570548448237,-31.24226008405451 l1.3633258364730552,4.084323380401587 1.2427980490248853,9.559447782747116 m-1.334661283274894,-13.278656495127544 l22.54862050626943,-2.124740173751011 1.4072000904796633,0.024593080383678776 l1.031739591340151,0.638532569267559 0.2691475655311738,1.3275199694461117 l-2.6701416298754963,11.600283888040202 m-21.46869655111707,-5.802652487995017 l15.383072641876172,-1.2730367214648668 m-14.58438422955568,7.254656201900605 l20.883574489925984,-1.5473455304257822 m-12.087693062900566,4.785687697732 l0.49023328871198535,0.8010186626391389 0.12319934679058928,1.3478926436295482 l-0.09243938347636346,8.956524335784522 -0.45255457376359254,9.054277079868612 l-0.32327015862392355,0.778868617875064 -0.4942320617574201,0.0702597751722412 l-0.5924030805446101,-0.397552885346531 -1.5834977314862988,-1.9372545464514395 m-9.485703575829062,-13.244389170819698 l-0.38984059636700624,0.34154510203411914 -0.42022185138282075,0.7190517824156308 l-1.9237902322976235,2.281348172756966 -2.73664126091328,2.7325340466164 l-2.999698528443729,2.409712256323616 m28.655354323593073,-10.119717182340368 l2.5756841218076687,1.6792628566455203 3.0475200864501684,2.7322095481957556 l2.143171100327868,2.540911151893408 1.1711375447304264,2.164689877456462 " fill="none" stroke="black" stroke-width="1" /></svg>