<?xml version="1.0" encoding="utf-8" ?>
<svg baseProfile="full" height="110.02522192803993" version="1.1" width="106.97041888343257" xmlns="http://www.w3.org/2000/svg" xmlns:ev="http://www.w3.org/2001/xml-events" xmlns:xlink="http://www.w3.org/1999/xlink"><defs /><rect fill="white" height="110.02522192803993" width="106.97041888343257" x="0" y="0" /><path d="M25,25 m0.0,0.0 m5.219673178750789,14.347194910509335 l0.5294362482667532,0.18189650897061319 4.435496486067169,2.168185731502721 l1.913931350602668,1.3896120627200688 0.7790527628024881,0.8847430269889351 m-10.989776406119924,7.789706197657114 l4.592787421958557,1.6723709034349614 2.516720214971555,1.5821560191666657 m-7.252754886627597,24.483316716523195 l1.2416005941977106,-0.10771721626309794 0.7906437232173897,-0.9438411561664218 l2.579798837577012,-4.768721265709249 m21.181004963455212,-27.800518454179013 l3.287859432549845,0.8448289073106774 2.4836886965980365,-1.3229817921473643 l6.922186234244439,-3.271584845293577 2.3348144445019905,0.43154353736914736 l0.0902736795100804,1.2751955231503953 -1.1913426935995244,0.8497828958521622 l-2.66434834451598,2.8838252738102135 -5.754335547178629,5.703399794370871 l-5.708404196255091,4.589736434757401 -3.138887143991416,4.03552687308334 l-5.2806960755751815,6.67087000045839 m4.301570300199777,-18.03678892845881 l3.749879432599906,0.5146687545436525 3.805209733843549,1.4181397063271421 l16.75900705309719,7.91856281849849 5.21046702397008,2.0261899133586225 l3.659558202179272,0.9949629845198946 m-33.66291872897256,10.013811222016317 l3.737798152311853,0.1236779145410004 18.669094162839617,-1.6236800196285996 l3.8383883754394756,-0.12127269029699832 2.3563450508224006,0.21019469173841912 m-15.24689575381339,-7.725488659601927 l0.6186976863114957,0.8173924894276924 0.2630167292483269,1.733484078481711 l-0.052469519607855765,16.444337116790127 m-19.684296035206387,1.4221841891303966 l4.568646698227249,0.3263197587753185 15.607795150293166,-1.2262552015792523 l16.18152112694366,-0.6514145094591678 3.371581067297401,0.4392830884590708 " fill="none" stroke="black" stroke-width="1" /></svg>