<?xml version="1.0" encoding="utf-8" ?>
<svg baseProfile="full" height="108.93552234897089" version="1.1" width="105.13187694931949" xmlns="http://www.w3.org/2000/svg" xmlns:ev="http://www.w3.org/2001/xml-events" xmlns:xlink="http://www.w3.org/1999/xlink"><defs /><rect fill="white" height="108.93552234897089" width="105.13187694931949" x="0" y="0" /><path d="M25,25 m0.0,0.0 m9.623382490241061,3.2752261456105507 l0.5068431279350938,0.2138791089031905 3.3964863772244596,2.184996052157949 l1.587701446459841,1.3110792514882768 m-8.89809312836936,8.831119689782913 l3.6315615209837424,2.1214852787187275 1.8249019059900495,1.589931833057852 l0.6917670576863101,0.9508045067891518 m-6.030309624748685,22.47130591174673 l1.077416973941404,0.5253257452708548 0.5377216989382971,-0.015197468079234831 l0.8702594628982588,-0.6676943261463709 2.274251318199582,-4.027793102327508 l2.4874676154145847,-5.064793948846192 m19.052129584153704,-32.69070837125931 l2.2706632068857404,1.6321588290654903 1.6349271007166146,2.584268535062332 l1.2830294423428212,2.1793977536860596 0.7828523935462933,1.3894969969486326 m-16.358819127078032,5.0630579810599645 l1.4820334108004034,0.2648728145801993 1.990447148351702,-0.12439692399363096 l20.48440147078511,-2.808471630744551 3.5474306593965466,-0.20605415136030195 l1.8758220361082163,0.28329596260408235 m-25.40140907059373,3.240161249688825 l1.7012693232922094,3.6656053427259727 1.1753138588239636,3.445546716607678 l0.8408514571189614,4.024128787676566 0.3763895665649634,3.7065833381133007 m13.613133362635834,-17.232048254398975 l0.34961584655035377,1.1101651118379934 -0.4110163998864283,1.8361495739082248 l-3.975025666111428,14.539337377772284 m-20.8731508522248,3.4409323529591918 l2.6521779595083683,0.2363521773554241 15.195131508389876,-1.5662238937984465 l11.224302959802403,-0.9137616603286691 4.909436846121562,-0.22909349870444773 l2.1285806805236116,0.23988098193145627 m-30.685274425112937,11.196833152079874 l0.580088757266137,0.8092696791293633 0.7424660358487707,3.26436213327783 l1.683348224882814,12.854749207361591 m-1.5299546737640035,-15.975676374362866 l20.74029737742111,-1.9418792890369931 1.3313353329526838,0.3835324906521362 l0.589330928312263,0.9763939144892171 -2.6421781114044767,12.82892457230259 m-18.080808231274418,1.6625608272165933 l19.288501224111567,-1.4123961487808216 " fill="none" stroke="black" stroke-width="1" /></svg>