<?xml version="1.0" encoding="utf-8" ?>
<svg baseProfile="full" height="109.49251387501135" version="1.1" width="108.59821025282145" xmlns="http://www.w3.org/2000/svg" xmlns:ev="http://www.w3.org/2001/xml-events" xmlns:xlink="http://www.w3.org/1999/xlink"><defs /><rect fill="white" height="109.49251387501135" width="108.59821025282145" x="0" y="0" /><path d="M25,25.00000113621354 m0.0,0.0 m5.76703667640686,4.1541337966918945 l0.47529779374599457,0.22531885653734207 3.8381901383399963,2.538975179195404 l3.206486403942108,3.351406753063202 m-12.453004121780396,9.793769121170044 l3.832785189151764,2.486445903778076 3.0855509638786316,3.3943086862564087 m-6.399461030960083,27.305808067321777 l1.3525886833667755,0.2481948770582676 1.0411284863948822,-0.8777976781129837 l3.1343641877174377,-5.501225590705872 3.2926279306411743,-6.8200331926345825 m19.50105905532837,-40.29930591583252 l-0.07611267734318972,1.7363400757312775 -0.5242801830172539,1.2941476702690125 l-3.0771055817604065,5.222870707511902 -4.368550777435303,5.349549055099487 l-5.009037256240845,4.738114178180695 m11.15581750869751,-11.242295503616333 l13.925515413284302,-1.545097827911377 0.9560005366802216,0.1678912527859211 l0.564817264676094,0.4725952818989754 0.05742759443819523,0.8154717832803726 l-0.5665063112974167,1.1958451569080353 -6.51701807975769,10.336291790008545 m-15.501396656036377,1.820116937160492 l1.8795712292194366,0.5252091214060783 1.9738200306892395,0.11590028181672096 l24.10236120223999,-2.4398280680179596 1.653914600610733,0.2580546960234642 l0.7300060242414474,1.059032455086708 -0.02482898999005556,1.6647246479988098 l-2.5944605469703674,14.59809422492981 m-34.267380237579346,-6.280551552772522 l3.760831654071808,0.35085462033748627 20.91681957244873,-1.8821683526039124 l12.234104871749878,-0.7935986667871475 4.260789752006531,-0.02552571939304471 l3.278439939022064,0.37876877933740616 m-37.74817228317261,10.572081804275513 l3.82636696100235,0.29084332287311554 14.092731475830078,-1.4293137192726135 l8.453679084777832,-0.4246263951063156 3.846973180770874,0.07553206291049719 m-15.836503505706787,-15.25276780128479 l0.8102357387542725,1.3461703062057495 0.29657552018761635,1.9744957983493805 l0.013839628081768751,30.57816505432129 -0.19744958728551865,2.3930415511131287 l-0.5286716297268867,1.205303817987442 -0.7641247659921646,0.27278104797005653 l-1.8525464832782745,-1.2326663732528687 -2.1562372148036957,-2.4717512726783752 " fill="none" stroke="black" stroke-width="1" /></svg>