<?xml version="1.0" encoding="utf-8" ?>
<svg baseProfile="full" height="104.747006290367" version="1.1" width="100.59240315416811" xmlns="http://www.w3.org/2000/svg" xmlns:ev="http://www.w3.org/2001/xml-events" xmlns:xlink="http://www.w3.org/1999/xlink"><defs /><rect fill="white" height="104.747006290367" width="100.59240315416811" x="0" y="0" /><path d="M25,25 m0.0,0.0 m5.1736387021144346,2.8303843670107334 l0.5231939409207672,0.21965730851535684 3.835858017379058,2.3559712936502124 l1.7345093827953717,1.5997585142716366 0.7638488370299621,1.0081267545916133 m-11.909087921068108,9.193392293907968 l2.205555627478308,0.9354987144241268 2.4852963284423586,1.437090812599084 l2.0230239054501276,1.4977139407653735 0.8102156252727246,0.9550868110480445 m-6.756507721634247,27.94669885628697 l1.1381381352410673,0.10310905817050586 0.875030495301178,-0.7578694873812591 l2.5762407326767836,-4.95549074960126 2.8772931070419507,-6.415258164202133 m9.310285375926627,-32.740462110929634 l4.079396898455368,0.17067383932468513 20.219570331291965,-2.371959193696301 l4.010035702537686,0.27055015902498825 m-27.49622849376083,9.93754677624801 l1.6370635592696794,0.41906602480120947 1.5961554556910689,0.03650581837452824 l20.248021599934702,-2.556964863705582 1.4904574517502747,0.04713113403369196 l1.0533683976534605,0.6517243211701674 0.28393480392578424,1.2523225303591834 l-1.5194833300526125,7.097894773195644 m-21.996492885389536,2.451505202171446 l23.472721179540734,-1.7997263039596068 m-24.636708634073365,-6.715877312653402 l0.4663419474541836,0.8354378243962546 0.1909167764275441,1.131886974940096 l-0.2593107769410544,5.23677631674615 -0.7765347295922284,7.353193977451185 l-1.1987180100915835,6.484765652434487 -1.2541113288005075,4.6435135683763455 l-1.5702243174394173,4.204525780214268 -2.0120867752117575,3.832576083511064 l-2.9517774494420967,3.879015602283197 m11.7415820612454,-17.20807156611612 l3.417762467752042,0.1514871870780522 18.030038739226608,-2.107980850818871 l4.1603388495198,0.2738056000791499 m-14.142552529808746,-7.1571774813768085 l0.3759458270670366,0.9877368020646569 0.02012969096983307,2.2519102773094226 l-0.7377555603117588,6.8165101205705865 -1.2825842762375197,4.534314300910591 l-1.8777454897351864,3.930237199871294 -2.4185378560974455,3.3369605915182645 l-2.947098157146747,2.8133571770119246 -3.333480756924017,2.368865809411569 l-3.916862825085198,2.0495582246842305 m16.885121562544644,-20.565422813104906 l5.674425036298896,8.283008521852588 3.7323313384489296,5.095245055452842 l3.5957323784964332,4.104717540667957 2.8727727104392913,2.149436707002291 " fill="none" stroke="black" stroke-width="1" /></svg>