<?xml version="1.0" encoding="utf-8" ?>
<svg baseProfile="full" height="104.50687351121005" version="1.1" width="100.92765507984205" xmlns="http://www.w3.org/2000/svg" xmlns:ev="http://www.w3.org/2001/xml-events" xmlns:xlink="http://www.w3.org/1999/xlink"><defs /><rect fill="white" height="104.50687351121005" width="100.92765507984205" x="0" y="0" /><path d="M25,25 m0.0,0.0 m5.312618642688998,3.906063150925442 l0.5009787731808137,0.22225046794798298 3.6142823985142805,2.27107471276351 l1.599389277009603,1.4090546621471092 0.754788494792201,0.9959220400001412 m-10.753522398460841,10.185956180523501 l4.22817115890247,2.0328891190021805 2.1284770002508644,1.6095505019007974 l0.833504648900294,0.9704746835253936 m-7.0863209201081965,24.46069519531374 l1.2029032808682971,0.5690033940721447 0.5836060838109144,-0.023864208409577762 l0.9526929787374401,-0.7057374321607142 2.5150658991900645,-4.440506655263943 l2.6892044479957002,-5.7343682979937265 m22.32577656870692,-36.794650390981474 l2.4765941525101414,1.630783422497711 1.5838915967228417,1.653916472784075 l1.1290991503918124,1.562181195293762 m-16.6163406494102,4.837800384031829 l1.3752073422045397,0.22046038771033644 2.4759456027883977,-0.11279988646893385 l23.05189868702298,-2.6680243944201534 4.049742862631726,-0.25997039309799214 m-25.686328989095912,4.547728812314962 l2.5471855406714408,3.395350855213388 1.0135890378375656,2.7997327062126325 m14.979014896319853,-8.358209665851074 l0.3306863677837695,0.6506177752197253 -0.49143989596581866,1.417043523559215 l-3.0775380861279302,6.184269383991993 m-23.456932772303325,2.8677726779927757 l2.277602765834387,4.904650890069764 1.5142792095373814,4.375226231426213 m19.68274925881974,-9.723984096976999 l0.10181947343546911,0.9856219358554255 -0.5475598319893545,1.531202002663709 l-3.563849643331211,6.573764880827185 m-25.773507672918278,3.378475872549637 l3.208693692481342,0.24733652740879536 30.798684266248806,-2.9181798085743536 l3.2809472072293944,-0.14445304908331977 1.8525426994834442,0.240467654249824 m-34.48276384733236,8.876595187649302 l0.7228365357908476,0.7580123397452657 0.4135982056905983,1.043361739608823 l2.14062525231547,13.076314823494025 m-1.794253933477189,-14.251775778209952 l23.985013220018672,-2.4221200705482113 1.6594398455426702,0.12637300579749156 l1.0303744490468467,0.9595344313402407 0.12028906520739828,0.7067902125205328 l-3.172900952979943,11.29026870584248 m-21.887365548523743,2.247753867157703 l23.201428610257455,-1.906492042783479 " fill="none" stroke="black" stroke-width="1" /></svg>