<?xml version="1.0" encoding="utf-8" ?>
<svg baseProfile="full" height="116.89032092252225" version="1.1" width="108.44558922787695" xmlns="http://www.w3.org/2000/svg" xmlns:ev="http://www.w3.org/2001/xml-events" xmlns:xlink="http://www.w3.org/1999/xlink"><defs /><rect fill="white" height="116.89032092252225" width="108.44558922787695" x="0" y="0" /><path d="M25,25 m0.0,0.0 m10.10687415465131,9.029500829751075 l0.5161606254948106,0.19856827488379394 4.056873935138559,2.4432497198978176 l1.80898632106483,1.5856622610333773 0.7396977344162393,1.0021777326047925 m-10.494733284419432,9.3015049716545 l4.463507562678141,1.943875207041107 2.4768206829708816,1.835035720634819 m-7.39881417682003,28.15818930602767 l1.2207132561180616,-0.0826134878682222 0.7636809486227417,-0.9986578132060694 l2.780588695812546,-5.468821673556984 2.798675790828307,-6.90930488142214 m19.439617110741743,-35.22964903850158 l0.47589905362656604,0.9389507868497846 0.21653277097329926,1.4121931514659616 l-0.02177866704247641,15.617457113068628 -0.6203305218864428,8.413213573115078 l-0.6061190095761885,5.117447631747259 -1.084718003218423,4.91711334588064 l-1.6785807711192615,4.684583901689535 -2.1890225506171412,4.137734862900069 l-3.008087516227486,3.7634713281683734 -3.8210866041689866,3.296223831008508 m20.19697999958297,-37.57284632969163 l0.5261870443231281,1.021969503318978 0.2318493329525629,1.7411412182120927 l-0.020068051484060424,36.91273675155095 0.15644759438846115,2.492566309878147 l0.5992349063813501,1.6068051964024248 0.9806451314973572,0.9369144001993126 l2.0257251626189365,0.531835915187035 6.0033791578489355,0.1120913025971307 l3.2135443532182077,-0.3087221045863789 1.4017574095208587,-0.4302497243558767 l1.3336428405805312,-1.0815755183873763 0.5654588433982649,-1.0416726447395759 l0.2894479650072863,-1.8936051420408313 m-39.43517928348852,-32.047828333064686 l2.359595309244553,2.14561548718462 2.1115356294630083,2.6047888446414396 l1.624422327461557,2.5903811808821 0.7002494498428926,1.6426069118436994 m-8.167265866686645,14.652478920912996 l1.2483721491839783,0.2128580011452689 0.7892711307714682,-0.2659672909908543 l9.088470809092694,-7.0336735164536295 m22.973018438128165,-18.12003371455197 l-0.0661133839858151,0.9027590764516394 -0.5215559997608543,0.9980795884223204 l-2.4564126089902425,2.4545547153229856 -3.4536338139423814,2.421183636014155 l-4.086090598914775,2.118932880406073 m-0.06503045613043115,5.258558779871765 l2.8082769670784278,2.219512026067584 3.060762048426532,3.158617601442759 l2.5852320965200875,3.395210917585152 1.3449875977246717,2.581333571694991 " fill="none" stroke="black" stroke-width="1" /></svg>