<?xml version="1.0" encoding="utf-8" ?>
<svg baseProfile="full" height="109.30453620605817" version="1.1" width="109.49251250363886" xmlns="http://www.w3.org/2000/svg" xmlns:ev="http://www.w3.org/2001/xml-events" xmlns:xlink="http://www.w3.org/1999/xlink"><defs /><rect fill="white" height="109.30453620605817" width="109.49251250363886" x="0" y="0" /><path d="M25.000000223517418,25 m0.0,0.0 m5.780649185180664,1.0969293117523193 l0.6133438646793365,0.28495904058218 4.701106548309326,3.316865861415863 l1.5970626473426819,1.6185960173606873 0.8945345133543015,1.3731148838996887 m-12.483646869659424,9.296699166297913 l4.733047783374786,2.8951695561408997 2.2592157125473022,2.0546481013298035 l0.9085312485694885,1.2981069087982178 m-9.003844857215881,30.11234998703003 l1.582707017660141,0.21048927679657936 1.224893257021904,-1.0190695524215698 l3.559117019176483,-5.774189233779907 3.73945951461792,-7.162377834320068 m28.20592164993286,-38.95540952682495 l-0.4043125733733177,1.823163628578186 -4.278154075145721,6.640191674232483 l-3.5924938321113586,4.338268339633942 -4.249622225761414,4.251057505607605 m-2.8811728954315186,-0.5146489664912224 l0.8778461068868637,0.9227074682712555 0.6212394312024117,1.899966299533844 l1.9992892444133759,17.568765878677368 m-0.9553664177656174,-18.271833658218384 l23.086347579956055,-3.0063357949256897 3.5278934240341187,1.1215328186153783e-05 m-7.660158276557922,2.7706345915794373 l0.08081764914095402,2.79324471950531 -2.888530194759369,13.693825006484985 m-25.380735397338867,3.284565806388855 l2.013016790151596,0.3563334047794342 2.8065237402915955,0.04259581211954355 l18.034247159957886,-1.7405739426612854 15.425829887390137,-1.069314256310463 l3.0268824100494385,0.15618464909493923 1.9710265100002289,0.4906032979488373 m-30.502820014953613,7.7405500411987305 l-0.011159251444041729,0.687275305390358 -0.5548446625471115,1.194746419787407 l-4.273667931556702,5.143259763717651 -4.578365981578827,3.9201608300209045 l-5.391611456871033,3.5422492027282715 m26.758875846862793,-15.527037382125854 l4.016343653202057,2.938774824142456 4.177843928337097,4.144467413425446 l3.4069472551345825,4.363031387329102 1.6002029180526733,3.165414035320282 " fill="none" stroke="black" stroke-width="1" /></svg>