<?xml version="1.0" encoding="utf-8" ?>
<svg baseProfile="full" height="108.06211966246119" version="1.1" width="109.97632489361163" xmlns="http://www.w3.org/2000/svg" xmlns:ev="http://www.w3.org/2001/xml-events" xmlns:xlink="http://www.w3.org/1999/xlink"><defs /><rect fill="white" height="108.06211966246119" width="109.97632489361163" x="0" y="0" /><path d="M25,25 m0.0,0.0 m7.419057936118159,19.060221452284843 l0.074284129771407,0.4369558600215853 0.26030057933967055,1.527384946610221 l0.005249126462377477,25.649373770250232 m0.24603759414384307,-27.65188264363142 l12.061428167320733,-1.4849916204747855 0.5970836170228311,0.08447527896730787 l0.8525391966812631,0.7177344411140371 -0.16277243504847683,1.059966877934257 l-0.35742717408398866,24.53290602547533 m-13.083153482000666,-12.865573886826645 l8.107274512904096,-0.8683170760196283 m-8.233990384816568,13.776970997719685 l12.71340430595246,-1.2167115358732088 m12.858726889013635,-30.64206184436931 l-0.10577259559815728,1.6294158811291206 -0.42689041652253734,1.6858655138929746 l-2.2177935565423077,5.2443664394916905 -2.7754649906118622,4.969451108557524 l-3.428868973579707,4.496796295906502 m6.378601086883268,-6.4919919788147835 l1.5026183202982146,0.29469847930329157 2.052548933029726,-0.12284040705356611 l16.92205442954591,-2.3363992685072437 4.552548475205635,-0.14337928359511012 l0.7097411151342445,0.23479757526956962 m-30.45921379960828,14.11797670887273 l2.832704604658075,0.22911905607763114 23.750624237284693,-2.239753609556834 l5.089731372514961,-0.15318530028154087 2.241114072738976,0.25859152881658914 m-18.55403916001589,-25.81328012237633 l0.9450258443398242,1.2460405101575707 0.2976311509463676,1.7188296443352702 l-0.13294469640212409,47.12054984765363 " fill="none" stroke="black" stroke-width="1" /></svg>