<?xml version="1.0" encoding="utf-8" ?>
<svg baseProfile="full" height="117.00489088058607" version="1.1" width="102.13607476061053" xmlns="http://www.w3.org/2000/svg" xmlns:ev="http://www.w3.org/2001/xml-events" xmlns:xlink="http://www.w3.org/1999/xlink"><defs /><rect fill="white" height="117.00489088058607" width="102.13607476061053" x="0" y="0" /><path d="M25,25 m0.0,0.0 m4.568104710050044,9.771273057546017 l0.5230951204894783,0.19429830370392007 4.459018947967182,2.2238748239668618 l1.884356108490776,1.361284301669006 1.0777988029779784,1.1595687482898898 m-10.816833500486739,9.041644203274034 l2.1996894213457567,0.988248510156583 2.852066944235306,1.7467950997509403 l1.820365326748563,1.446439999755202 1.0280909413488168,1.2766428245954087 m-7.086769930613297,19.495926873891385 l1.3553864607738066,0.48662449097910526 0.6473831184886282,-0.011335799236530528 l1.0507558099016046,-0.601915548242581 2.7734635594580257,-3.76867319098816 l3.011444857293412,-4.828282516132569 m20.833043160136786,-34.03855558924143 l-0.15913294966733638,1.4451876065560691 -0.9139962638092592,1.8186138748145835 l-1.6313737193209294,2.499668758903949 -1.8123892399230117,2.212050058760534 m-6.804246533689088,0.1551165900738332 l0.7367180569707873,1.7141745814145293 1.587687564149477,23.307800568378013 m-1.1556982713709278,-23.370595927763098 l22.356813209481786,-1.9530041686285065 1.3802171122700526,0.1079964632593744 l0.5839710492287783,0.3583854126233098 0.5554957430286553,1.0237400858393686 l0.0010286105993712027,1.7037381830851699 -1.262775008687576,20.97430806303786 m-22.555871911362566,-12.277854853669485 l15.134381003824188,-1.6243611765718513 m-14.63142662182313,13.12421656259272 l21.325955310083298,-1.7099056889390387 m-29.713849319680882,13.198845567641097 l1.362797114018035,0.2529000567330744 1.6402495269116686,0.04020572788576986 l31.901884165469443,-2.009102432807751 2.0291762753035694,0.29230127710299825 m-20.331895009447425,-7.52641965736383 l0.7218739211843326,2.3188798155213917 -0.022425563905224925,22.442334154368087 l0.024723172523535487,1.4940480710635589 -0.09285596683729404,0.7891978546880866 l-0.8406019395023203,0.2585668582491842 -0.7935121565135381,-0.3940557042489512 l-2.1114835913036853,-2.00041896746382 " fill="none" stroke="black" stroke-width="1" /></svg>