<?xml version="1.0" encoding="utf-8" ?>
<svg baseProfile="full" height="104.30238160804291" version="1.1" width="98.53976112947834" xmlns="http://www.w3.org/2000/svg" xmlns:ev="http://www.w3.org/2001/xml-events" xmlns:xlink="http://www.w3.org/1999/xlink"><defs /><rect fill="white" height="104.30238160804291" width="98.53976112947834" x="0" y="0" /><path d="M25,25 m0.0,0.0 m9.662067397981087,10.29759479403243 l0.49069145719494317,0.18781127175642012 4.086952290593342,2.3326369191989835 l1.776956445747772,1.469361278242689 0.7299781366425482,0.9498173042616357 m-10.096771350597265,8.951911985818356 l4.3737393317179185,1.8354229533976443 2.3746924030243646,1.7164961142928574 m-6.90361628848233,26.561328987041897 l1.1532475667144466,-0.1343307875457454 0.7158439322949189,-0.9146068370099587 l2.7234466208964037,-5.513572420679227 2.6986478656645523,-6.766863009240082 m18.713697508580395,-34.21610470620951 l0.9150906792303762,0.8716249249191049 0.3909566036348906,1.4582573332740003 l-0.014857743217381175,7.348897611310565 m-14.02546482975462,1.3066080359283905 l2.3387851492950578,0.2795176549870407 23.21447395792359,-2.362509987829304 l2.0524253464841,-0.05666751025774596 1.168778647909244,0.29996452053641337 m-18.84062612607922,2.9039802381417523 l0.1312970974970191,1.208983279788411 -0.2904258155810524,0.928417893438956 l-6.296335391535203,10.083676413827659 0.09450345705722997,1.2502058715801394 l6.630076572968619,0.1485213409913275 3.753796566018911,1.4593713150792225 m7.681453496813317,-11.84166836667757 l0.026101804878415246,1.6349184719555856 -0.5897275257380213,1.347114391491811 l-10.233342789796431,11.328549650418555 -9.10170171640735,8.98247794095164 l0.2763892827003973,0.8043278840945224 0.8266125133378125,-0.03982770571699352 l20.75808474883534,-4.9344524474764535 m-3.464219861070613,-6.586819019787914 l1.774516691512239,2.263489687550432 2.187534086594505,3.78724601800271 l1.6285332483054622,3.6754650548851617 0.8578143943480312,2.9186303681744588 " fill="none" stroke="black" stroke-width="1" /></svg>