<?xml version="1.0" encoding="utf-8" ?>
<svg baseProfile="full" height="106.27979043738694" version="1.1" width="103.84687727591066" xmlns="http://www.w3.org/2000/svg" xmlns:ev="http://www.w3.org/2001/xml-events" xmlns:xlink="http://www.w3.org/1999/xlink"><defs /><rect fill="white" height="106.27979043738694" width="103.84687727591066" x="0" y="0" /><path d="M25,25 m0.0,0.0 m14.676249248330999,12.907133839267058 l0.10792890685490467,0.417411159225035 0.007958715268410544,0.8408319327704062 l-0.590987744818878,1.2019277765645164 -3.567436944283878,4.726751454781867 l-3.6451688270069273,3.953476465365101 0.11027137466343845,3.225301563850447 l6.2280318116660105,-0.8178642910720908 m7.384486084276582,-6.2762513770063695 l-0.042496187646451716,1.3162895696251267 -1.5582684371800126,1.8752195950548223 l-6.399416890672836,7.3379899514374385 -6.692422347636204,6.211532805601239 l-0.46327910102270037,0.707747540764444 0.3551684233828099,0.5078072521141709 l0.7877339695010139,0.1801784769515892 15.07408143369636,-4.277995611839889 m-2.2723183516910606,-3.011050075405764 l1.1717597027650586,1.3180567781661212 1.3503375540125635,2.0682620006307624 l1.4072629532469618,3.386997149372036 m-9.283027886460049,0.3437917342199991 l0.49558606999207017,0.7223322520837536 0.26512885649917994,1.4288016100173941 l-0.11205939770935783,15.98511088484773 m-6.732033856754388,-13.090270740327743 l0.058869334854180055,1.3625261416532808 -0.7877627505485146,1.9662520477325334 l-1.9922115948389467,3.7632804024468096 -2.152324806023792,3.196193670804924 m17.192579636720836,-11.901130827912311 l1.8228737250694973,2.690734873084053 1.6242461068100267,4.113321379125401 m4.505930101144943,-28.924463589968497 l0.5831243220611779,2.022448133117135 0.06590355023856731,22.32690508500058 m0.4442130048767698,-24.02974767653396 l21.70336834647572,-1.690722870265356 1.9601959828505338,0.23606349622083247 l0.7548031849460398,0.63993685099417 -0.368499701646562,24.82241964140471 m-23.713517376385184,-17.8604790083123 l2.9161044736406536,0.02895176069489065 10.638929882998372,-1.064645309154966 l4.880827145780549,0.04891644866741662 m-16.818483427871172,-5.097889407238629 l0.7076157718285123,0.8013928612076171 0.15989022613784779,0.8109488658093545 l-0.011291028063956135,23.779648703906265 m7.8120148758224355,-24.081477018518402 l0.612479451181116,0.7571403703122593 0.2061662091920729,0.8066620000666025 l-0.0457895529696784,21.80217030813845 m-8.683699393993887,-14.129964072119886 l10.840134634416012,-0.7521354531547777 m-10.704710190170214,8.09144730820278 l10.97235108423221,-0.6588113478912535 m-16.2511523581748,8.153141789948204 l21.97250769598317,-1.1729845438177 " fill="none" stroke="black" stroke-width="1" /></svg>