<?xml version="1.0" encoding="utf-8" ?>
<svg baseProfile="full" height="101.97338049298588" version="1.1" width="115.35644120267676" xmlns="http://www.w3.org/2000/svg" xmlns:ev="http://www.w3.org/2001/xml-events" xmlns:xlink="http://www.w3.org/1999/xlink"><defs /><rect fill="white" height="101.97338049298588" width="115.35644120267676" x="0" y="0" /><path d="M25,25 m0.0,0.0 m9.165097321386334,4.266961245349193 l0.533693240660243,0.23949612008566604 4.067745555512491,2.5279701950960765 l1.7782588040059484,1.6332387221857265 0.9563848653303206,1.103156955456925 m-11.090342093567168,9.066026949778488 l2.01021272451265,0.9863339070572971 2.331565390143209,1.6202830408548323 l1.8190576551092978,1.64023931517486 0.7487064952473064,1.0645757633832897 m-7.237157170738815,26.049398475277616 l1.2262697557220148,0.15430073869316985 0.5203320499258648,-0.7517488480420321 l2.707071149502494,-12.375159959174846 m18.3545340383931,-27.581446057341225 l1.8662322107483624,1.1179479835083908 2.034351851205215,1.8599266985056255 l1.4776521040731831,1.9822482353787654 0.6788071180940691,1.447563808554283 m-11.96188940544354,6.916741323098637 l1.7906862181983054,0.19683878622829562 9.457187074656327,-0.08601532714171621 l4.750208734566942,-0.4965108033785421 m-8.643282020154016,8.973712886621467 l2.5870616193896265,0.754452665560035 5.917703074083859,1.0357378813652074 l1.7805169080928784,0.6521879997776072 0.7998325801744522,0.9133915430920495 l0.27044815126277294,1.2166432064989448 -3.1397437088195637,1.4521436288525504 l-3.0384212453859454,1.8950480327665327 m-1.665883333295994,-19.46693044687867 l0.38380764821394103,1.5896435846161074 0.004195592431629951,2.043763870068347 l-0.9183862843688654,5.835500099651669 -1.4538423613401876,5.542155640158685 l-1.8299462622029727,5.016634262679995 -1.9305674229643468,3.8405887712441342 l-4.459337633344592,5.946462184582783 -2.595627023814672,2.149877413739666 m30.122093611585417,-37.094519913033196 l-0.012714610614756542,2.6287025469283707 -1.218606174720928,5.5358917903122045 l-1.6771866956885175,5.025874530316974 -1.8698306467053163,3.813399952269199 m4.785640752496602,-6.618076842495585 l1.8800005074844568,0.13771381761536453 11.007250496600651,-1.59981534170888 l2.2865999970370154,0.048849610435427224 m-17.486623971791442,9.686179928169851 l2.2058386053647085,0.16479962962055925 10.900268840434048,-1.9429666171471784 l1.095564345076096,0.12848672005922024 0.35603515667323765,0.4009922630527307 l-0.3634877285644268,0.6316802339466158 -6.707922014715782,2.201352763228289 l-6.753083694289941,2.937989818049281 m-0.7045463622820688,0.03777526276735853 l2.310405478987912,1.8832988606018077 1.984704233580213,2.2804579324732224 l1.5494375612792,2.49630319273808 1.0011840704485768,2.6531116896475586 " fill="none" stroke="black" stroke-width="1" /></svg>