<?xml version="1.0" encoding="utf-8" ?>
<svg baseProfile="full" height="91.3393485253149" version="1.1" width="107.89963706162945" xmlns="http://www.w3.org/2000/svg" xmlns:ev="http://www.w3.org/2001/xml-events" xmlns:xlink="http://www.w3.org/1999/xlink"><defs /><rect fill="white" height="91.3393485253149" width="107.89963706162945" x="0" y="0" /><path d="M25,25 m0.0,0.0 m5.824424602902114,3.9041563382002153 l0.4880741991384005,0.19433834601515515 3.4489932620638664,2.00839895895717 l2.0684027977401183,1.2414219678588236 0.760326842132715,0.8334255665792892 m-10.765358283462902,8.222574935353844 l4.358408753047773,1.7082978954416643 2.0673723175078904,1.277308834592626 l1.1605003848435087,0.7975713677131652 m-7.564905393973953,21.12003838276174 l1.224215459071789,0.031815931841206055 0.8279603311804967,-0.7087781316587913 l2.623602701529694,-4.04011279792939 2.728880860654448,-4.84040985525019 m19.378895575352537,-28.138638031919154 l-0.44909826952556864,1.451422802893116 -2.8193625099764956,3.322793414175514 l-3.040765226111705,2.6853999598621736 -4.098851947233062,2.9093235121842422 m23.5845908853785,-10.401074673505027 l5.594430914225774,3.115885485431268 3.369255922995327,1.982557683490907 l2.075446562762347,1.553286569455023 m-17.06491211177169,0.44044558138128476 l-0.21496257162360188,1.3648710232525663 -1.2113088196733213,1.7769502213615525 l-2.1434535233188203,2.571135759862304 -2.5824352354226345,2.6022356382786054 l-5.260610463418757,4.124359639599808 -3.1470446032479664,1.9538344543876023 l-3.4366292775071017,1.7676505822722293 m17.884322068777955,-13.794410323184364 l13.287234296025133,8.532761634818824 5.877928005955426,3.03447478839621 l3.066068554611198,1.219145147246531 m-33.09968137259016,2.4462826485450373 l1.0329206884225954,1.447731993791305 2.203966047712528,10.682614465476265 m-1.80294219838801,-11.09549761325379 l20.08576474559934,-2.161964283365795 2.139267833845234,0.2911745222237594 l0.7439309522132866,0.7118525621997471 0.08773120766289187,0.5655155800513592 l-2.656811880481403,8.923701217713432 m-17.71900284400153,1.798954623236947 l19.04485857730653,-1.3254683477177753 " fill="none" stroke="black" stroke-width="1" /></svg>