<?xml version="1.0" encoding="utf-8" ?>
<svg baseProfile="full" height="108.9449149928987" version="1.1" width="109.4925125874579" xmlns="http://www.w3.org/2000/svg" xmlns:ev="http://www.w3.org/2001/xml-events" xmlns:xlink="http://www.w3.org/1999/xlink"><defs /><rect fill="white" height="108.9449149928987" width="109.4925125874579" x="0" y="0" /><path d="M25,25 m0.0,0.0 m4.579233527183533,3.098107874393463 l0.5492112413048744,0.27089472860097885 3.6171025037765503,2.655813992023468 l1.4786197245121002,1.5329335629940033 0.8290458470582962,1.3025212287902832 m-10.363494157791138,11.33507251739502 l4.779622256755829,2.2837133705615997 2.648729681968689,2.207471579313278 m-8.118070363998413,29.859819412231445 l1.518089920282364,0.2517288364470005 0.5519100651144981,-0.1750863716006279 l0.8663233369588852,-0.9472881257534027 2.6814529299736023,-5.044444799423218 l2.845575213432312,-6.321663856506348 m18.654290437698364,-41.79942607879639 l-0.3359933942556381,2.532173991203308 -2.169182002544403,4.386268258094788 l-4.051951169967651,6.14354133605957 -3.9797574281692505,4.901743829250336 m9.246180653572083,-8.960104584693909 l2.6637420058250427,0.2306337095797062 1.7238755524158478,-0.187652800232172 l8.171709179878235,-1.3667027652263641 9.25258994102478,-1.9403719902038574 l2.307496815919876,-0.024531912058591843 m-25.628058910369873,11.637340784072876 l0.6796826422214508,1.0518676787614822 0.1102618221193552,1.2411229312419891 l-0.8684317767620087,4.907141327857971 -3.227459490299225,11.283794641494751 l-3.3737018704414368,8.111998438835144 -0.06633209995925426,0.8609256893396378 l0.2818587049841881,0.6149951368570328 1.309943050146103,0.5184277147054672 l11.513195037841797,0.9659269452095032 8.372434973716736,1.6943570971488953 l4.04014378786087,1.2579905986785889 3.8734909892082214,1.577126830816269 l3.365774154663086,1.7576108872890472 3.379943072795868,2.246435731649399 m-28.132567405700684,-37.092673778533936 l7.489243745803833,-0.6194808706641197 13.720496892929077,-1.846967339515686 l1.7043091356754303,0.2304123342037201 0.852997899055481,1.1125913262367249 l-0.6610438227653503,7.002780437469482 -1.7375384271144867,10.313565731048584 l-2.490679770708084,11.715606451034546 -2.107783555984497,7.856284976005554 l-0.7627558708190918,2.1381454169750214 -0.7684908807277679,1.411486268043518 l-0.7630932331085205,0.675043985247612 -0.738803818821907,0.09589267894625664 l-0.6949479132890701,-0.3263893723487854 -1.9546252489089966,-2.387786954641342 m-1.4371252059936523,-35.86200952529907 l0.6885381788015366,1.589946299791336 -0.22712312638759613,2.424895763397217 l-2.724718451499939,12.293155193328857 -2.7453815937042236,9.772451519966125 m-18.56792688369751,-12.792438268661499 l4.898370206356049,0.3109554201364517 33.33927869796753,-2.6759710907936096 l5.996118187904358,-0.20011905580759048 3.6086684465408325,0.3129373863339424 " fill="none" stroke="black" stroke-width="1" /></svg>