<?xml version="1.0" encoding="utf-8" ?>
<svg baseProfile="full" height="102.72963772939994" version="1.1" width="105.98296903688967" xmlns="http://www.w3.org/2000/svg" xmlns:ev="http://www.w3.org/2001/xml-events" xmlns:xlink="http://www.w3.org/1999/xlink"><defs /><rect fill="white" height="102.72963772939994" width="105.98296903688967" x="0" y="0" /><path d="M25,25 m0.0,0.0 m10.382112520944151,3.230016493967417 l0.49937819794690735,0.23218700279978266 3.8045366176106863,2.528759332845867 l1.6259242340508795,1.4543942811052264 0.842818858734346,1.1824157648170281 m-10.670974134790882,8.624809750865921 l2.006517492464371,0.976340277666345 2.3488955255594903,1.5786464600719932 l1.8528087042410393,1.5524690781244765 0.7679001728683185,1.0103655210687994 m-7.247507807777304,23.151670813898644 l1.3085456704257241,0.5351974259434966 0.6347132981785436,-0.011579546860814827 l1.0196727484427508,-0.6826421064200852 5.846117615238164,-10.4847719255184 m20.51391424499326,-33.21224281593998 l0.881422745278809,2.3597383154282396 -0.07401449085592653,10.314092048582788 m-12.706225301104292,-8.938498986556755 l1.2482263515597591,0.9748547338447446 1.7656466289312984,1.7911638454597483 l1.3408750305171202,1.7108924719905876 0.6428492931318182,1.1987564876393242 m20.014552433780526,-8.05833122591282 l-0.23965459104438067,1.3567577837942597 -0.9920968279061351,1.9357906807684928 l-1.3827901498903008,1.9603150928437334 -1.4632213682113364,1.4605616451632788 m-23.400590600727238,3.0278025780205278 l-0.7870146872705588,4.891882533295011 -1.295466272354781,4.5314684656968796 m2.4797665759279774,-7.666138609370099 l19.575831998372184,-1.9866472927186831 11.98761210365785,-0.8245076682532163 l1.7473545325369804,0.06672141038879909 0.8241657895083335,0.3382268806895412 l0.2803658839215057,0.5584082018995693 -0.14781414423845496,0.7101608545117847 l-1.1573533936518394,1.6848786668750884 -2.2140632040921306,2.114431104689262 m-24.7420722266792,1.8401271933180448 l0.42002025754757377,0.3766242283802125 0.19281782537146902,0.8102813190912259 l1.5250675084628351,8.304011195018994 m-1.0430937211650708,-8.889094875062474 l16.428678952457293,-1.6211300582707127 0.6288322687784583,0.2197849008387576 l0.3602980125571141,0.5346840360465112 0.013644925147603383,0.8083472289583385 l-1.7594645126616373,5.7169642934889 m-14.179731199445628,1.692809368325742 l15.168501196323891,-1.2363256075562314 m-20.240984574415076,7.323131823605556 l0.7619360844355338,1.6178149907674815 0.1366377681801017,1.367242560874039 l0.0141527833058431,11.185846063572486 m0.045103681545474714,-13.035401368435206 l20.19769059810584,-2.017723510966752 1.9701191577616917,-0.0033640435620615073 l0.965632833612313,1.4667232505584855 0.013696238304068293,6.029922418689611 l-0.6251676975330978,3.760824320541847 -0.4314730144043983,1.083422100873733 l-0.5569634043845005,0.4979844400803807 -0.6176775808723272,-0.017460456417437424 l-1.8713727752149423,-0.8275449388874256 -1.160874409095761,-0.9955315860287202 m-9.33977452238104,-17.346440654960322 l0.845217629796603,1.6685029384171852 -0.07165401908837185,25.235790330893945 " fill="none" stroke="black" stroke-width="1" /></svg>