<?xml version="1.0" encoding="utf-8" ?>
<svg baseProfile="full" height="101.19505915984293" version="1.1" width="110.50604748787222" xmlns="http://www.w3.org/2000/svg" xmlns:ev="http://www.w3.org/2001/xml-events" xmlns:xlink="http://www.w3.org/1999/xlink"><defs /><rect fill="white" height="101.19505915984293" width="110.50604748787222" x="0" y="0" /><path d="M25,25 m0.0,0.0 m5.386569509426559,4.456292076371866 l0.44482714097257947,0.22437950337103926 3.276706147949744,2.501321461528881 l1.5646319144739762,1.548573265050186 0.66547127662242,1.0151245773682511 m-8.11128466864722,10.30895385486103 l3.519680708792712,2.303637230502647 1.7455245418828216,1.758343703824901 l0.657857626427337,1.0946856887685248 m-6.213556022005919,25.9837477981956 l0.9868613890298429,-0.009365707799632635 1.0281833235860967,-0.9442047436221449 l2.448506829300931,-5.184026320992598 2.5427275532294837,-6.294692148809591 m16.97843185620495,-34.15095243404149 l0.5803656322357499,1.6415783549786722 -0.0017387855274125243,5.745120345331452 m-12.1319840205672,1.9217951851715447 l3.1958057244652154,0.18696515844516717 18.6680536871786,-2.4179757185367903 l2.787367068169148,-0.16196395386549886 m-8.153268445347038,5.066219140213605 l4.400754331692042,1.6445508619063154 4.230955966057704,1.1262750268617452 l0.5708813980131978,0.8859095213648679 -0.51818461659463,2.8108527598310804 l-1.8528871410214691,5.443620430635277 -2.3254728146860444,5.336561627855763 l-3.013261789516964,3.6449626562479747 -0.9840107483337953,0.03610546255813557 l-1.7429128579975455,-1.4095759250868456 m0.262186066448821,-23.941773677065605 l0.022577607497591714,1.6144862895511491 -0.9206222698151076,2.666198867625346 l-1.6245516046696202,8.04933091618778 -1.0657715250562139,5.5886485021009 l-1.044644301317051,4.137434935068717 -1.0881450852948693,3.151863947012133 l-1.8193323589421055,3.8187832155157655 -1.6281813616683374,2.6479292169509026 m25.580506964243135,-21.04406189976202 l0.23436232251100866,2.2461484377941097 -1.2220232602814356,3.3628283462334307 l-2.2118946667406885,4.06075707366383 -2.9051075117333314,3.942055428901264 l-3.2970760918553004,3.261025316483568 -3.1088578845890504,2.498696440474961 l-3.5665141085901935,2.360057403433001 m10.738171584031964,-18.25004193211236 l2.659405972020891,1.9897457644805052 10.159665310301111,10.847796405606 l3.502014212325358,3.3713169474784537 2.218277763579789,1.8018881182827124 " fill="none" stroke="black" stroke-width="1" /></svg>