<?xml version="1.0" encoding="utf-8" ?>
<svg baseProfile="full" height="109.14766604546458" version="1.1" width="109.49251221492887" xmlns="http://www.w3.org/2000/svg" xmlns:ev="http://www.w3.org/2001/xml-events" xmlns:xlink="http://www.w3.org/1999/xlink"><defs /><rect fill="white" height="109.14766604546458" width="109.49251221492887" x="0" y="0" /><path d="M25,25 m0.0,0.0 m4.865772128105164,5.579604506492615 l0.6174299493432045,0.2613936923444271 4.064429700374603,2.566269040107727 l1.659884750843048,1.4806531369686127 0.9287450462579727,1.2573938071727753 m-11.359879970550537,9.518336653709412 l4.679779410362244,2.796635329723358 2.232940047979355,1.984720230102539 l0.8973708748817444,1.2539270520210266 m-8.58647108078003,29.575624465942383 l1.8179689347743988,0.01840632874518633 0.9433054178953171,-0.78504778444767 l3.4880807995796204,-5.697620511054993 3.6614185571670532,-7.061443328857422 m19.13651466369629,-35.58837413787842 l-0.5466999486088753,2.250620573759079 -2.285114824771881,3.036535084247589 l-3.456706404685974,3.4036651253700256 -4.708206951618195,3.6279642581939697 m26.26971960067749,-11.925654411315918 l5.985707640647888,3.8214096426963806 2.789008319377899,2.3466499149799347 l1.782781332731247,1.9897468388080597 m-18.681676387786865,1.4699062705039978 l-0.2839709632098675,2.1157637238502502 -1.2641540169715881,2.392410933971405 l-2.1535512804985046,3.3007022738456726 -2.7720212936401367,3.49761426448822 l-5.671966075897217,5.611298084259033 -3.3856379985809326,2.6402845978736877 l-3.73786062002182,2.4222251772880554 m19.369481801986694,-18.637301921844482 l13.566818237304688,11.246516704559326 6.228034496307373,4.42774623632431 l3.4012383222579956,1.9696398079395294 m-35.410873889923096,4.074136316776276 l1.1927387863397598,2.0377615094184875 2.527441382408142,14.867546558380127 m-2.136910855770111,-15.630927085876465 l21.903681755065918,-3.131047785282135 2.371263802051544,0.3231237083673477 l0.8335824310779572,0.9984268993139267 0.10001602582633495,0.7481268048286438 l-3.0704227089881897,12.598899602890015 m-19.191983938217163,2.5556954741477966 l20.78183889389038,-1.8530699610710144 " fill="none" stroke="black" stroke-width="1" /></svg>