<?xml version="1.0" encoding="utf-8" ?>
<svg baseProfile="full" height="110.4902928055301" version="1.1" width="112.61192318486002" xmlns="http://www.w3.org/2000/svg" xmlns:ev="http://www.w3.org/2001/xml-events" xmlns:xlink="http://www.w3.org/1999/xlink"><defs /><rect fill="white" height="110.4902928055301" width="112.61192318486002" x="0" y="0" /><path d="M25,25 m0.0,0.0 m31.59866160523744,3.677296558768395 l0.2740289045618044,0.4888325630250071 0.302650383775184,1.624376232205346 l-0.044664078051445365,5.281160965054312 m-13.66564338079213,1.7764537792031025 l3.1263251597651607,0.24057727032270854 23.73417496304657,-1.6117080896535496 l3.9010791495913923,0.23674105993070627 m-26.430636277529715,3.813029440925518 l1.1754287740255194,4.11677110224927 0.7951130382126355,4.021485900588085 m13.860481330141491,-9.489094333758043 l0.026555428443047133,1.0988345476616523 -3.1020667808296998,1.6163476649976034 l-3.9079539250260535,2.302299148864526 m-1.5975595804360565,4.208518128434563 l1.464998403447231,1.6707221141422068 1.0095523896300145,1.9900482270733206 m-17.859724658194185,-8.637162006163438 l0.48048196679905875,0.8682357680388211 0.17641766921456478,1.344804422353005 l-0.47755867253746337,10.25725979611043 0.31562491749036553,1.1782877381775683 l0.5205266645903207,0.09473025354604678 3.9211721304641047,-2.04358285433758 m23.961011072852425,-10.561873421338943 l-0.16870231847544043,1.2314405544493099 -1.2932676356879618,1.9798631554367814 m-11.590466170090512,4.815789581695811 l0.32720234950253574,1.4931639047725733 0.009939382772723257,16.477351901501073 m0.34093512378336993,-17.725149275613063 l11.850377689659872,-1.3942507175766965 0.7096821686916918,0.4002283246056335 l0.2840877339785206,1.5092805476418991 -0.21185854467539797,16.212298117247645 m-12.319299213726584,-10.708592063968362 l11.8865704557629,-1.1452899221523491 m-11.78744646130514,6.469887107810286 l11.805381603957507,-1.040265616523303 m-11.587233663796843,6.51319953733748 l11.66258969370492,-1.012797162283814 m-9.649342859224639,4.084411323592765 l0.02715079818751264,1.0461812667635586 -1.0647283343676528,1.1469205171451597 l-3.557148474435306,2.9492254518227936 -3.2806605736726384,2.347782770815827 m14.395651201718424,-7.202642654707613 l2.912334605490833,3.0739689222571953 1.8700558389669288,3.105735861740422 m4.923540528968598,-27.71219063614535 l0.5936547806400979,0.27676847563868134 0.40502039587027927,0.044958589691526815 l10.201273872744354,-1.5292553108573088 1.0408769980330133,0.382422172368804 l0.3172756139924875,1.5822051980076672 -0.2929855366360356,0.8390826204049445 l-4.972343187773881,5.97672072579826 m-0.4072931255264332,0.4091977963838102 l2.4432038204455377,2.477271854830263 1.6377405472747586,2.635728948590769 l1.4436114801607003,8.469607197399034 -0.5793748476159252,2.204467479095325 l-0.5581553194805735,0.9312408012452198 -0.712318770946895,0.5937010545392538 l-0.8583980626957977,0.2044298351178272 -1.0227633216799752,-0.19846380789445134 l-1.2546103335487302,-1.146544253005758 m-6.664748545653279,-25.1472037246314 l0.061319514812940706,35.00501437872131 " fill="none" stroke="black" stroke-width="1" /></svg>