<?xml version="1.0" encoding="utf-8" ?>
<svg baseProfile="full" height="104.12530508245936" version="1.1" width="105.34657380217814" xmlns="http://www.w3.org/2000/svg" xmlns:ev="http://www.w3.org/2001/xml-events" xmlns:xlink="http://www.w3.org/1999/xlink"><defs /><rect fill="white" height="104.12530508245936" width="105.34657380217814" x="0" y="0" /><path d="M26.195845504047945,25 m0.0,0.0 m4.472942195277089,4.322864515881915 l0.5822179231089262,0.2125995806294661 4.3232962478343815,2.178465476693437 l2.036116929388077,1.4992097383854015 0.8516115379860334,0.9518349292100461 m-13.462030337642453,8.93943549814387 l2.3261706739440493,0.8629558893864094 2.7079520616439976,1.4558164302792975 l2.1118041960127054,1.4895637645459197 0.8673487216581275,0.9777568176272999 m-7.162211829274627,26.170150081504 l1.306295464721225,0.059861769227259345 0.974280400220521,-0.7489477189212226 l2.9484757062834537,-4.546662700369811 3.179273171833974,-6.029931879691302 m10.683526780840339,-31.63384530285569 l4.57019361879113,0.16953850398386044 22.083435935697057,-2.3216750305756872 l4.3111764473808405,0.257355863795866 m-30.49691089402649,9.836101729701538 l1.799783746711003,0.3975132520339374 1.801005419728244,0.029322084375009164 l23.56831577589308,-2.569012473103034 1.5556369763645579,0.5172800976771157 l0.5584953522547237,1.0589434997401619 -1.7398420793353342,6.60941876903506 m-24.79591819515243,2.530754018858611 l26.196345414497685,-1.8584738832045755 m-27.313519229179597,-6.017709936937681 l0.5168675616921157,0.8143898666445671 0.1985937672224189,1.102358498946093 l-0.26569600524857684,5.077219491792286 -0.8324082111647854,6.98770869482353 l-1.2753095731301172,6.12210742604757 -1.3879832323572643,4.3649043054556325 l-1.731195454861395,3.9301066375748515 -2.2441176406006313,3.710002153372988 l-3.273516366059529,3.868102131041931 m13.050327349631996,-16.44327942642371 l3.6571869675780935,0.12830492943745686 19.131930063668104,-2.0293318408254293 l4.500358386655683,0.22026519440954523 m-15.127944512731368,-6.6947082637005515 l0.42357746389993545,0.9386259859970699 0.04163745311468719,2.1278928072124295 l-0.7978922808930324,6.539835148983009 -1.3883280764236474,4.418481770952216 l-2.050554630564269,3.8507898204236333 -2.619917823546561,3.2385557488515375 l-3.201328005006932,2.747738911022346 -3.6625397522087955,2.3192623748679195 l-4.247675053982748,1.9854893304959624 m18.681334110142444,-19.803069212540084 l6.001251870449777,7.89384233262858 4.07056805038664,4.838481720466772 l4.011059295917639,4.008358321903243 3.127174443090006,2.139206630552011 " fill="none" stroke="black" stroke-width="1" /></svg>