<?xml version="1.0" encoding="utf-8" ?>
<svg baseProfile="full" height="107.43490273783263" version="1.1" width="103.84561025173718" xmlns="http://www.w3.org/2000/svg" xmlns:ev="http://www.w3.org/2001/xml-events" xmlns:xlink="http://www.w3.org/1999/xlink"><defs /><rect fill="white" height="107.43490273783263" width="103.84561025173718" x="0" y="0" /><path d="M25,25 m0.0,0.0 m12.142758648059617,16.19798759593936 l0.46622092488849054,0.1480425280360727 2.456858103589211,0.16318266933501682 l25.303650658854377,-2.564406640992626 5.589888352656541,-0.16214555062170816 l2.417896596361108,0.2960911954957273 m-29.394339379995884,-7.252239206240121 l0.8049446994947823,0.9315914639572601 0.3756177141945481,1.4474163271218292 l-0.1280122837141232,31.536544274233854 m16.153511898679756,-36.82290779381453 l0.7563991715694247,0.8098323715598982 0.43544583310797746,1.49966442931527 l-0.08587512866064574,33.54814837318463 m-16.98613796997475,-15.726228580404781 l11.272539383893191,-1.1592622887472634 m-11.139607151244926,10.01415538017481 l11.106402686412228,-0.8319908154262632 m-26.00619569554379,10.983983600663715 l3.0804713336748,0.248807250250669 19.21475571464003,-1.6714004565603793 l16.71576929707519,-1.1771610621941684 6.80252761953229,-0.3241433441734385 l2.4901192241877244,0.30823352569047674 m-32.25026214110198,3.864285828617471 l0.0738843926676996,1.0061033556928738 -0.5109257404644604,1.1785672449605276 l-2.747731025633456,3.91216392124194 -3.4686005509407436,3.4817213470173294 l-3.9916973718400692,3.5502657945191887 m25.226197500603938,-12.37398233539973 l3.1273949691311014,1.9759489470965335 3.37989729210608,2.9469580358185112 l2.8301301302607444,3.117808697182712 1.5495053572142565,2.6019406927862887 " fill="none" stroke="black" stroke-width="1" /></svg>