<?xml version="1.0" encoding="utf-8" ?>
<svg baseProfile="full" height="99.97818682384127" version="1.1" width="106.96018719573905" xmlns="http://www.w3.org/2000/svg" xmlns:ev="http://www.w3.org/2001/xml-events" xmlns:xlink="http://www.w3.org/1999/xlink"><defs /><rect fill="white" height="99.97818682384127" width="106.96018719573905" x="0" y="0" /><path d="M25,25 m0.0,0.0 m11.737660057345025,10.979937900760085 l0.5202356946477068,0.18648868110620903 3.8996148012439678,2.135335788869878 l1.813525365848598,1.4847069350349589 0.7394901518557546,0.9042088837745034 m-10.392600614559413,8.665831268696335 l2.1364460120765236,0.9996692816527865 2.2513181878012642,1.3566396586661496 l1.8615361456653436,1.4280496549423451 0.7263528874408894,0.8971415594131035 m-6.272137464280097,20.871774157249668 l1.1605193579202486,0.06840305367524553 1.25313536893853,-0.8116403802717926 l2.5815739563965976,-3.7062361558984094 2.8176906265727952,-5.083796333875889 m28.953964700832575,-29.16592565703991 l-0.31990855703900967,0.7341514293718743 -0.5836072795075024,0.6965624115621799 l-3.797273455001134,1.8433074554705144 -4.593662001247353,1.7409644784663383 l-6.6933557178975605,1.7514284371978783 m-2.701626432827518,6.988768970287264 l1.4612783896259578,0.1313262427622141 2.0134173980383983,-0.09955773866696321 l21.62413659941498,-2.4661133925805316 2.333871277918115,-0.06858996505475003 l1.3548429044294088,0.23062914091931264 m-16.106975305285594,11.667400287462476 l5.341537922594491,0.9977685337246947 4.35092182637524,1.0557021856593802 l0.829329576451874,1.0469898481067812 -8.912745495680662,6.221350304764384 l-7.783734335210968,3.154142517490659 -8.078105930723751,2.3108559041258236 m-0.9602974743313211,-19.106887194667802 l4.385215955575375,0.3464563456293839 25.080607167382613,-2.467011881448852 l1.1642356422961224,-0.10499780201351776 1.7637592846425278,0.15676506420544628 " fill="none" stroke="black" stroke-width="1" /></svg>