<?xml version="1.0" encoding="utf-8" ?>
<svg baseProfile="full" height="111.4606134867241" version="1.1" width="103.13331425990995" xmlns="http://www.w3.org/2000/svg" xmlns:ev="http://www.w3.org/2001/xml-events" xmlns:xlink="http://www.w3.org/1999/xlink"><defs /><rect fill="white" height="111.4606134867241" width="103.13331425990995" x="0" y="0" /><path d="M25,25 m0.0,0.0 m14.420453385795424,8.061549915793439 l0.46269776979248256,0.19473359686082622 3.404185699384341,2.290687503088056 l1.4608844683616713,1.3763808361748404 0.790837916482722,1.086780823765185 m-9.509206183665484,9.621726940208744 l1.5062135589459003,2.38993505358308 1.5278857141315574,3.2362565099706653 l1.3474372390498246,2.9978083098288546 0.5245830545244357,2.415428074957106 m-5.42468832559676,22.42523652711771 l1.0367490631955851,0.338801613719115 0.4880327154499379,-0.05396315285839085 l0.789020250116957,-0.7601470000964159 2.720181524538856,-6.778544245222915 l2.7184103478799715,-7.528397268711022 m15.065941555366566,-35.520086318737896 l-0.09668308838473327,1.1958270147657863 -2.9067603173880046,3.3417175674124127 l-2.5632142853218896,2.0927604369710386 -3.4841497961645977,2.1942659171416055 m-1.5792915906675375,-1.0259898921328432 l0.474135932442548,0.9555410494152179 0.2569987831363543,1.7199902011191799 l1.5062137322927904,23.966337675507916 m-0.5659374197401641,-14.918847816946942 l7.035213202112236,0.2477238394993065 2.0977944958558643,0.12237248631818855 m-8.447819558218908,12.772219884364839 l7.103347298675718,-1.0512064274873012 1.6604052423772682,-0.006700072665198993 m7.270423510069244,-22.772954399876006 l7.634392448544634,-1.2173523709238028 1.5437613253281368,0.13346186822924422 m-8.848146138771943,-5.834082409131117 l0.39564433558583584,0.738041720061029 0.1549992103301313,1.6692485585745576 l-1.4467525400328047,12.391435815922014 m-4.714377329774679,0.35127532390655286 l0.5426298229709914,0.29135950140361105 0.7185415816470104,1.1200059288392945 l10.465575680139425,10.179236098634362 4.159441939245346,0.5690283408705349 l0.7569798643394365,0.04980248274095834 0.6803281655282731,-0.11935083243432795 m-25.52259212546762,8.261277298905712 l1.374173475999491,0.2864300558263931 14.647285361398403,-1.5234747506387647 l2.662695708387389,0.06814343783899758 1.2539445497905215,0.2525278166559174 m-10.858701969421276,-7.813756350090461 l0.5009098140501306,1.8415996385601492 0.04593780521494865,23.931230217849155 m-13.616513499993763,0.8576966017297183 l2.1876256197533093,0.34958431054618333 22.636184437033872,-1.2490547301336143 l2.0249161322152056,0.3006826760923482 1.401299776226817,0.47339096800689495 " fill="none" stroke="black" stroke-width="1" /></svg>