<?xml version="1.0" encoding="utf-8" ?>
<svg baseProfile="full" height="100.80041931451545" version="1.1" width="92.37544878883241" xmlns="http://www.w3.org/2000/svg" xmlns:ev="http://www.w3.org/2001/xml-events" xmlns:xlink="http://www.w3.org/1999/xlink"><defs /><rect fill="white" height="100.80041931451545" width="92.37544878883241" x="0" y="0" /><path d="M25,25 m0.0,0.0 m11.654020945292638,3.980204310833944 l0.48583780416398914,0.22646679599904576 3.474765611474118,2.4850724575246965 l1.5748697326763452,1.5462035754783348 0.7151756742920201,1.0480864073220955 m-8.954069440197717,10.189641776207932 l3.856848897463404,2.302742976770101 1.933591907006934,1.7611287709740633 l0.7352071572110088,1.0831062866397423 m-6.8833228444052095,26.161284751032536 l1.0991768150016579,0.0164812057329615 1.196016207291785,-0.9565551277748204 l2.61035126065467,-4.936164511623066 2.6898396492021885,-5.957788587483243 m18.497668318158162,-32.995201457571156 l-0.30453939382786915,1.6605548710469786 -2.6055127296241074,1.6344123315660146 l-3.9993383911894007,2.4821946501862646 -5.333052788826334,2.6785583393867767 m-2.272033975414438,-9.776386164004478 l0.49170498257953454,0.7654996097786072 0.2578301988950487,1.01626698180461 l0.30734481454411083,13.69644898547668 0.37424603329951067,1.2019551861202205 l0.9987172165636233,0.9204602670133151 1.9055105508360555,0.5756257136040908 l10.270160226865727,0.252622243370691 3.452168302126847,-0.5449204573206338 l1.1155697698268092,-0.6294169724861124 0.7179060684298844,-1.29262103671054 l0.23541540892918036,-1.9506766932818969 m-27.392493109890516,12.303122325551161 l1.4489295500118655,0.20934899265335252 1.9330234862103506,-0.08685064809047947 l17.5703979070149,-2.390971555773411 3.365644542797578,-0.03426598210275129 m-13.529011285373125,-8.44821668519662 l0.4820209992563418,0.8514729841250845 0.23963430738710803,1.1551323724249065 l0.02926899575172552,19.35669654217131 m-20.504487785041647,1.2108117357900705 l4.12741644983772,0.3126754485658585 14.275078965032213,-1.2313289388937243 l13.675930009412662,-0.8136985558737683 3.341234783305216,0.028812753561224383 l3.0147869838198496,0.4399835836805627 " fill="none" stroke="black" stroke-width="1" /></svg>