<?xml version="1.0" encoding="utf-8" ?>
<svg baseProfile="full" height="100.3677944901092" version="1.1" width="101.8872797499624" xmlns="http://www.w3.org/2000/svg" xmlns:ev="http://www.w3.org/2001/xml-events" xmlns:xlink="http://www.w3.org/1999/xlink"><defs /><rect fill="white" height="100.3677944901092" width="101.8872797499624" x="0" y="0" /><path d="M25,31.860580045412544 m0.0,0.0 m13.102789650943526,3.235608044984538 l0.44715959465477034,0.22423141250576595 3.1519261474567184,2.317559118273814 l1.93600992654881,1.4203647794232666 m-9.001068957757763,9.204793574266677 l3.764396436750584,2.0018747602194664 1.7956112440456566,1.547039638693527 l0.69382888294041,0.9309176287692855 m-6.528423957484712,22.605771397799437 l1.0546884576421363,0.019054089760883113 0.7712681504126281,-0.76255466973388 l2.2234852631037003,-4.355511434881756 2.273746786615358,-5.203551588217912 m16.010871677227748,-31.637138603664567 l-0.1790433947348476,1.6292628021966629 -1.8445385762572266,4.227939122696234 l-1.9441507054067548,3.5105602921754766 -2.6169064473988173,3.6851564536237555 m6.739127263544847,-7.29537394972955 l2.114275985064328,0.07863496320485248 1.797704854088346,-0.1887280730940283 l6.439377695689059,-1.1280503413694445 2.081111791608558,-0.19785776816252015 l1.0501992013368637,0.18175817581128564 m-17.175480933974793,12.418619409147073 l2.3994726485441533,0.17665923343442932 15.927486413635059,-2.032389710764159 l1.9888112116597185,-0.14425745225797115 m-24.278507201466837,14.373201674641916 l1.553694302975292,0.260062410347791 1.7776512352974774,-0.07724098469806459 l19.55953734313817,-2.675495850628126 2.847579012544426,-0.18419821704343392 l1.9535887469758197,0.23562717397038366 m-14.734689014204669,-27.220865401311478 l0.6047592944656558,1.9524446137234601 -0.01375695875908058,24.139004464536104 m-9.685832094984935,-32.82428822897007 l0.418466585188082,1.0282787161516238 0.12987098778417475,1.132233591101865 l-0.17541122012486263,8.351682116132379 -0.4911547030426709,6.443222362721925 l-0.9105216425535685,5.922816638042083 -1.1761363549233623,4.09122591406982 l-1.2352494943051608,2.849418633758618 -2.233148365744764,3.6031326956646974 l-2.2003582178270626,2.6396304218513853 m15.21933217487072,-37.37086409458607 l0.5246367129473184,1.0584975903117273 0.14836659377797978,1.0211787963268113 l-0.03766699099460216,35.24559227265394 " fill="none" stroke="black" stroke-width="1" /></svg>