<?xml version="1.0" encoding="utf-8" ?>
<svg baseProfile="full" height="116.27214399306797" version="1.1" width="124.06683571826936" xmlns="http://www.w3.org/2000/svg" xmlns:ev="http://www.w3.org/2001/xml-events" xmlns:xlink="http://www.w3.org/1999/xlink"><defs /><rect fill="white" height="116.27214399306797" width="124.06683571826936" x="0" y="0" /><path d="M25,25 m0.0,0.0 m14.061733835094724,13.708485773894182 l0.38072528796946514,0.38313850991818627 0.5193639097120953,2.9372437974529158 l-0.02514801967071239,7.355065862280767 -0.5398915105356329,6.328450264900394 l-0.9519198295871274,6.508218113060853 -1.2580271002278003,4.8681959199481355 l-1.5394184361817103,7.547181168911597 -1.6963455536906928,5.844222350225419 l-2.053244115604217,4.968685340729836 m6.986633453382464,-46.716391292277784 l2.8361389337867737,0.38256015670687465 24.144772042505462,-3.38724406141775 l2.6817124242835013,-0.17915159897004532 2.0658860607493983,0.28691196230485105 m-36.4585420396687,-3.3336946405503536 l0.5988237521904464,0.9122635881096262 0.265228963328349,1.0948484829119587 l0.0029824077700691667,10.522129243859206 0.641957296824033,1.4175084496976535 l0.6622353136271678,0.12082994440773269 7.4678879287809306,-1.229178504137502 m-12.204439290259332,11.493358172729668 l1.3994921904528894,0.3099254858107849 10.437989744010881,-1.1422540123119587 l1.215346498352693,0.12503141478251337 m-6.437232707031613,2.318588864193405 l0.362409010953212,2.810513558045137 -0.06219884793194125,5.053805805117648 l-0.5434435863700251,3.7742590561684195 -1.083917729699698,2.6588785657063583 l-1.2090146349677413,2.5393319544066575 -1.5208012191073095,4.209518062973157 m15.847291410479222,-32.382886369364144 l0.6086697972658093,-1.2661294368231515 0.9383666540930053,-1.577861745087496 l7.965192359965274,-1.7380987220806283 1.0186130727850722,0.206194637126004 l0.38445566006593784,0.45109136648822173 0.11219206102333953,1.3219731101945202 l-1.4558180528877607,9.507625850957806 m-6.657908615112826,1.7084217562454662 l7.747630869500773,-1.5023203539252616 m-8.499242403950664,0.46820737062857415 l0.518384597567299,1.6057826696756474 0.025306664866077157,1.2246095205546008 l-0.06145660641243873,31.667985639631866 m0.32182114584325716,-20.962738597856003 l7.426713043090004,-1.1601677014355987 1.6999855052423651,-0.014799293227069 m-9.040265072109698,-0.06901706075223603 l0.4585098606237094,1.0372506540540964 0.1683270822033419,1.2927394477587184 l-0.041477743250460615,20.6373913748072 m-5.314246683512436,1.012209282352015 l1.1625446949628022,0.31344483355627156 1.0969698371023062,-0.31478887945499506 l12.341310699034214,-8.497309154115843 m10.029243725169659,-44.4278922395004 l-0.041017428288950525,2.30012428793571 -2.1230245105268,9.42396981688403 l-1.9115918113739587,6.992118226725419 -2.034915495837214,5.905276741439885 m4.667238078236466,-11.23401208961329 l1.0874480445893455,0.3493870128982546 1.4621931607884142,-0.12463148852257122 l9.389950847728237,-2.4972075222288783 1.6244534658593406,-0.23403278479448417 m-5.898248037426159,3.903576054848164 l0.25449065957396627,2.2164493131923666 -1.3179072433552312,7.11487464864742 l-1.766475204775949,6.809186246550052 -2.157913449926038,6.127886995757998 l-2.0487201607151895,4.504489396263948 -2.317344084261592,4.124938494336432 l-2.603637787838212,3.690368639658023 -2.884319416804879,3.137292923048224 m3.951858625030047,-29.258862406503678 l7.6070002337152,0.5311982529846894 11.777774144326953,10.937766558662295 l6.057359741233773,5.615023231202114 2.9482469511548914,2.1574113106980217 l2.3950884002754105,0.7669323527993723 " fill="none" stroke="black" stroke-width="1" /></svg>