<?xml version="1.0" encoding="utf-8" ?>
<svg baseProfile="full" height="103.37508091651907" version="1.1" width="98.22458106230381" xmlns="http://www.w3.org/2000/svg" xmlns:ev="http://www.w3.org/2001/xml-events" xmlns:xlink="http://www.w3.org/1999/xlink"><defs /><rect fill="white" height="103.37508091651907" width="98.22458106230381" x="0" y="0" /><path d="M25,25 m0.0,0.0 m10.227156551473712,4.124119797735579 l0.5166039544758309,0.20974496065691647 4.086847734730032,2.4185175084250057 l1.6384609029489743,1.4337866410054756 0.7357063834083188,0.9513073971659373 m-10.277555450483918,9.31182595414727 l2.0833870228240463,2.3017458426352295 1.6966280833099938,3.089091426247819 l1.4225660937213902,2.7489683206303166 0.5600301618305783,1.7087583936717536 m-5.2028695719114735,24.82407436292093 l1.0360261236379893,0.2531403112768389 0.8370776850412682,-0.7396880352088129 l2.7601223638243133,-5.67920293831816 2.896504963389331,-6.524616762380622 m8.112847339472854,-37.502669369042344 l0.6227636024819502,0.8076429794553095 0.40017487995690915,1.95203033851376 l1.5818411105354662,9.978531787476848 m-1.4005948643451245,-11.816166925334905 l16.394153259687954,-1.9595238648295776 6.609663063160774,-0.5789786984313225 l0.8731821877733045,2.0608573282172626 -2.1505091800980694,9.130950508146894 m-19.828396652785248,2.0070944327526887 l20.865810322913386,-1.7389109396317122 m-12.014193536729652,8.923801868469035 l5.456246392386591,0.9738127186816665 7.534089304706038,1.1085015745790845 l0.15081083096629083,4.907111342047623 -2.228377665959562,6.192971306960154 l-2.5841905185290184,5.721855778805254 -2.707647094541952,4.637180712129368 l-1.5096214400154975,1.3649828729884932 -1.3854487294537576,0.2480523248261246 l-1.1977172678654908,-0.6197438503821132 -1.5932686914371066,-1.8570118995022369 m2.296852750225596,-30.0131646099014 l-0.09287064496850642,1.8744927309014991 -1.2993342989827028,3.298372793302079 l-1.9401907560872629,5.098078752320327 -2.0833206155626427,4.822378387780434 l-1.9142732345729212,3.63455111566603 -2.3111347001495073,3.5170683449968814 l-2.7820445604620607,3.2935106352335106 -2.380150385431921,2.271624743270088 " fill="none" stroke="black" stroke-width="1" /></svg>