<?xml version="1.0" encoding="utf-8" ?>
<svg baseProfile="full" height="88.46890135048605" version="1.1" width="104.44925514971081" xmlns="http://www.w3.org/2000/svg" xmlns:ev="http://www.w3.org/2001/xml-events" xmlns:xlink="http://www.w3.org/1999/xlink"><defs /><rect fill="white" height="88.46890135048605" width="104.44925514971081" x="0" y="0" /><path d="M25,25 m0.0,0.0 m15.078950532812412,4.13017760747707 l0.4643102581754484,0.19271105156731172 3.019997768971244,2.0423669283336 l1.3215448430617522,1.2955236193195145 m-7.417284659070121,8.040916628561646 l3.3128748869860005,1.6514269889364557 1.6268622739291896,1.192275252470436 l0.66573733705729,0.7709883556710129 m-5.993655598153468,19.152514918149006 l0.9563006946871657,-0.004709726162100245 0.7273106012543625,-0.6100669868096026 l2.276740510221158,-3.9427372904189486 2.2109266570855537,-4.772714081669924 m7.48770177254499,-26.402021343216475 l1.9466835167564478,0.5906435388797193 1.5068262717152558,0.10777955860901407 l18.38258762331443,-2.071446454235509 1.0712121269905561,1.2040315754184077 l0.010443520829570025,0.5349926825384276 m-11.494200863680737,2.8866676509080706 l0.10580611202528109,0.6032924561084464 -0.3327645768686098,0.9551289308423391 l-2.6361847444818274,5.8605719612098826 m-7.524419961074581,1.0450806670787969 l2.541119436242064,0.24224319171824715 17.836819069003838,-1.647653382733948 l2.2880932855273297,0.13483171130218832 0.8297717540553026,0.2963197476609459 m-23.60114476835724,9.745633399226609 l2.326546072009308,0.23068449453141993 7.53415047688344,-1.170098753529356 l6.007319217855091,-0.058965521761924974 3.8591819035835275,0.05969300610064691 l2.1650305868228346,0.14470017496804105 2.041935626034964,0.3484048160429391 m-12.640760641611772,-6.319309784051794 l0.4276065283398145,1.351929171436367 0.01320376576934559,3.7682607734579796 l-0.42188959861034214,3.771466216836302 -0.9941170889201362,3.6528701521794664 l-1.2501720396351634,2.7771077544242244 -1.6844268085456038,2.3184130881396965 l-2.2852438385263927,1.9366030051310337 -2.941085917905986,1.6415310797322773 m12.143351927232816,-13.712984009707826 l8.795442255352278,8.867032727626512 2.423689716347063,2.2788060488951514 l2.2605273256756466,1.4210363959744636 " fill="none" stroke="black" stroke-width="1" /></svg>