<?xml version="1.0" encoding="utf-8" ?>
<svg baseProfile="full" height="107.54986415790927" version="1.1" width="107.57701292141013" xmlns="http://www.w3.org/2000/svg" xmlns:ev="http://www.w3.org/2001/xml-events" xmlns:xlink="http://www.w3.org/1999/xlink"><defs /><rect fill="white" height="107.54986415790927" width="107.57701292141013" x="0" y="0" /><path d="M25,25 m0.0,0.0 m20.9901129034395,2.5146108744353772 l0.06359382056343868,0.4161544577289425 -0.30443017437783493,0.9881535577357418 l-0.9009861314723838,1.7639257789858687 -2.844666145628887,4.163665110137005 m-5.44501468348547,1.0773562309342166 l0.5499287242755695,0.8352824861753955 0.2854066917253605,1.1084119640894319 l0.30293343524095356,23.32693906285998 m0.13401129539841225,-24.173963753922738 l15.825159861875523,-2.1716383035912377 1.2468475816623186,0.0788578440369516 l0.6477654201131846,0.6600076300789399 0.1736846684629513,34.43256550388378 l-0.31537941088955496,1.0488424390084845 -0.5658534423950836,0.6149185173000473 l-0.7434011404244306,0.15542138313247805 -1.6231672500850942,-0.7052755361399671 l-1.7054407999993486,-1.352121144254749 m-12.152009636301036,-30.234084695261377 l10.671648815664426,-1.7820213413640553 m-10.404060306443,8.093496908728124 l10.344596109323936,-1.5465221350055562 m-16.147715474359423,10.953654149795657 l0.9053478375881459,0.9124159371051235 0.790259646708374,0.18193012015259144 l17.939312914934643,-6.644877694653018 m5.307013015301246,-4.984969978425495 l-0.000938400268908888,1.8075964428177442 -0.631640352811081,1.185061131565841 l-5.940779063749258,8.506491879964317 -4.65754808124162,9.338518088692584 l-3.2019228562641415,5.951034653451129 -3.292784133627236,5.071101566973251 l-2.7208853657481327,3.205541861232682 m25.780009003115982,-39.42174999744579 l1.2692611028526717,0.4405366551974244 1.5401409386954723,-0.022810307439133815 l14.73689739072234,-2.1635272290179577 1.440559756534571,0.6796446645903715 l0.23114483678302863,1.5180004732395342 -2.686197684103264,11.279573925754848 l-2.006172993784673,1.832321121116618 -1.2517142765862301,-0.30034299089987443 m-10.608776854165614,-12.925414356076274 l0.43983482251831213,0.9216924706222512 0.12221118705574299,1.249176363168899 l-0.0651742408765232,39.66628236671486 " fill="none" stroke="black" stroke-width="1" /></svg>