<?xml version="1.0" encoding="utf-8" ?>
<svg baseProfile="full" height="103.93657311162892" version="1.1" width="106.17804982174987" xmlns="http://www.w3.org/2000/svg" xmlns:ev="http://www.w3.org/2001/xml-events" xmlns:xlink="http://www.w3.org/1999/xlink"><defs /><rect fill="white" height="103.93657311162892" width="106.17804982174987" x="0" y="0" /><path d="M25,25 m0.0,0.0 m12.127164470805347,3.8119411126298717 l0.4638762554845796,0.22234119260067953 3.144262330060167,2.274966330485618 l1.2765572023246345,1.2561092071533053 0.685769753024907,1.0317980467082242 m-10.35502160056546,9.146997071991084 l4.200527351106535,1.9610276478867439 2.3017370410554125,1.885382515122181 m-6.4672691033775385,24.827662857380005 l1.0744006805319333,0.5378521281877858 0.5336851936991396,-0.014079989814648086 l0.8614898089059171,-0.6782384870515564 2.314547624597889,-4.317616648329961 l2.4415255876738358,-5.396001312556932 m12.961958966694342,-28.503055456070822 l2.117803854690914,0.1726889908912445 15.625333795294273,-2.130030294089348 l2.1852381590949443,-0.08290588490838637 m-20.857675276488628,8.414735740467679 l2.4883023204555967,0.09760276681179847 17.356230939465476,-2.018439478681756 l2.9204529397945644,-0.11549113131072836 m-28.31370868904142,9.55934418447734 l2.8693734431001263,0.18184261170730442 26.120009069460668,-3.2513590055665986 l4.551176111060277,-0.2296670281366736 1.5503015928414314,0.3138681882439423 m-19.10351709560485,-18.83882160730666 l1.3034119406392113,1.463383568469814 0.177057266851477,18.457447607929392 m-8.346692889606775,6.175131087675464 l0.6253993964307532,1.0474159705875092 0.0660149208989297,1.9943703600607727 l0.04815951651558764,12.780704397394409 -0.3001156232269163,10.114351884066973 m0.8202458194180734,-25.697490799150703 l14.04909236949724,-1.720593640040852 0.8955566454208543,0.06011759045793015 l1.0763303696055715,0.788471455534398 0.1942023807099868,0.5032919436944746 l-0.43471675986519465,25.282655230673953 -0.30804488148216225,1.81573304663934 l-0.37295265054154675,0.6945294640324412 -0.5157539279299519,0.056599674682861034 l-2.3009221469212595,-2.111640803450891 m-12.199951339218531,-17.085066712527816 l9.269911568820362,-1.0646330276867533 m-9.00322648035881,7.884609649465158 l8.988230053025127,-0.8354761726204403 " fill="none" stroke="black" stroke-width="1" /></svg>