<?xml version="1.0" encoding="utf-8" ?>
<svg baseProfile="full" height="127.43460050397032" version="1.1" width="107.54418677825393" xmlns="http://www.w3.org/2000/svg" xmlns:ev="http://www.w3.org/2001/xml-events" xmlns:xlink="http://www.w3.org/1999/xlink"><defs /><rect fill="white" height="127.43460050397032" width="107.54418677825393" x="0" y="0" /><path d="M25,25 m0.0,0.0 m18.999996251517334,1.2356202919417785 l0.014709432629784523,0.5497186422144132 -0.3488708947123524,1.5109614542792578 l-1.5081092645520522,1.9697198975206753 -5.37965039578523,5.982440982879855 l-5.090202466928953,4.865473774409211 -6.271771438063555,5.21963095289913 m2.8629500186477372,-17.365483545776158 l1.8916572746556066,1.8205453683463717 3.3341620579945883,4.149042692204411 l1.3897411785710163,2.2265538962274003 2.3368651983853455,4.951600583281016 l2.3535103807198974,7.725428098486617 1.1840410992986166,7.934269880459307 l0.21959601642335058,5.163567482332822 -0.16457113580254554,4.826704268050411 l-0.5271452572992733,4.453126782335748 -1.3975023613748732,5.645575790194166 l-1.9091761722266876,3.7464009337962514 -1.4212174977403864,1.203455270398267 l-1.528848884683185,0.06258706866281323 -1.5979205950764301,-1.2714792217962694 m5.171236656960792,-31.882532545273072 l-0.05760690640082606,1.1514533237169715 -0.3587730600390272,1.1690488946224094 l-3.31932542003499,5.94759453904688 -3.157441891605586,4.228008346766434 l-5.102221530620925,5.660562560207501 m24.779096366501676,-30.24757167177523 l2.8690989564141067,0.33859836229676255 16.913025450822158,-2.3199184162812987 l1.929093611356091,-0.2162520829423452 1.5029697912919084,0.24858168297018715 m-11.92200970660057,-8.047285913457092 l0.5934653198931474,1.0449642380186146 0.24835205813541614,1.523970877780314 l-0.016108233460163136,16.138788884217796 m-16.1856076281419,1.8873794466927722 l4.0553209195717494,0.2508407860239954 14.590681702134267,-1.8375014959170979 l13.883394496341225,-0.9506584845373457 3.6853032811376174,0.4173867559994722 m-25.785620118106788,-15.606053120488165 l0.6563603336344355,1.2611516072746156 0.21561190114452025,1.166134624126048 l-0.17716791096931353,11.178390195341178 -0.6947665741470336,7.719200403361326 l-1.29561418713978,6.414960066486423 -1.871115718206921,5.5127780207152055 l-2.594546486089523,8.706068265058041 -2.840998857750768,7.323419094628738 l-2.516159908332086,4.681309179563441 m0.6600396848551834,-32.521505668107025 l1.37949203984311,0.46082174255414804 1.898008998250678,0.0040499809641983235 l15.365204275621817,-3.7601952736059365 0.760119476941842,0.009960249481375675 l0.5574082641098107,0.37769379748659493 0.3157458431810428,0.6526359586196532 l0.01855027207784579,0.9545257799388238 -1.6219133783150652,10.446709278091166 m-11.549119773614356,2.3463012226857187 l13.227472834831266,-2.163466098747039 1.7098050431910807,0.12246650860637416 l0.5095226065923159,0.5763464371940801 0.04230609946617857,1.0817348960527866 l-1.7589993605128131,2.803710012447218 m-11.042594703095757,1.1152727527356092 l0.3406183375166197,0.8032858765202018 0.15061304744212467,1.307979830242395 l-0.016694761423375466,10.247796275455451 m-11.717573772098683,1.6340756226356585 l2.1937818456307823,0.4189338320454829 2.063329439675401,-0.06787629307754468 l22.764960278158902,-2.7354659766618026 0.9307443628575454,-0.018148859809760255 l1.1444598054063628,0.44322071167736665 0.6646744191879557,1.267298610420538 l0.040296737690587295,1.9392492039008553 -1.8523679157162205,6.492379607445315 l-2.16570045386174,6.554185769059487 -2.6596095745246067,5.494447325613496 l-1.2837140500660993,1.4513485086298707 -1.1600301769533863,0.22655111588456386 l-1.1831179920258306,-0.8912068715202185 -1.032564003542355,-1.6865938516958308 m-18.126053624555677,-10.062741965313679 l1.9180990616747955,4.4112920481438795 1.0204434110536702,3.715540243565824 " fill="none" stroke="black" stroke-width="1" /></svg>