<?xml version="1.0" encoding="utf-8" ?>
<svg baseProfile="full" height="111.72404310124301" version="1.1" width="108.31513619304107" xmlns="http://www.w3.org/2000/svg" xmlns:ev="http://www.w3.org/2001/xml-events" xmlns:xlink="http://www.w3.org/1999/xlink"><defs /><rect fill="white" height="111.72404310124301" width="108.31513619304107" x="0" y="0" /><path d="M25,25 m0.0,0.0 m12.701566881840007,3.1290165004379586 l0.48358822351011355,0.19672505168900029 3.4285095800677117,2.331127035212009 l2.037525182682646,2.19483103253432 0.697651092912079,1.2194844589785836 m-9.729265116937235,11.783208304204692 l2.1136230705548247,1.1062540878032079 2.2502252156296776,1.6051587440775212 l1.8571841953807682,1.7048139798163593 0.7366886960215341,1.4465702482598035 m-6.918443992586051,25.673472331247133 l1.2320584406261943,0.615735754199141 0.5876029882011029,-0.023174634098670835 l0.9498422267164014,-0.7598637846680146 2.8760637059699703,-5.885704809959777 l2.7538173232396277,-8.449617563282589 m19.354355222915956,-37.78914256081175 l1.718948204962646,0.8775765637090283 1.4266278275126614,1.3936649986438323 l1.1901817377050528,1.6224307412535988 0.6927407471811664,1.6469797061276905 m-15.544088608686579,4.6692422402363665 l-0.6962434355553652,5.05314152482921 -1.453117069711067,5.654397839469891 m2.459846479535308,-9.276027674482258 l20.354504634777236,-2.4304710749981955 8.305073277510145,-0.7005916113224199 l1.3568680977370886,0.15625686361471094 0.8029010731296151,0.42244958065615806 l0.28830029019783043,0.6224671609469337 -0.1160279499976273,0.7535944709044784 l-1.0532192619851117,1.74199117355801 -2.1388468257709814,2.2400613400242277 m-24.069901780648,6.561925574337786 l2.3678239706863993,0.1380821018707334 15.64733659405976,-1.917433737168868 l2.1956290090129884,0.14474808772025208 m-24.526644962485342,12.632922348104824 l2.850885677605688,0.3642570697418811 21.809263511797266,-2.010797494629131 l4.452544280161051,-0.11143272358215717 1.8976701437805383,0.27716328137648666 m-21.312986013479005,3.665459251923855 l0.5753820258647266,2.5608480981074577 -0.3787246129824238,4.087766362959117 l-0.9122226580226844,4.031782285599493 -1.670959800583296,4.223908404746177 l-1.8556933178688773,3.0957938465685775 -1.7798922845851528,2.1739404593285787 l-2.8156997231286387,2.4531088564745165 -2.6123644674746753,1.546560906842173 m19.874479176747624,-25.640978407142008 l0.5674554884743075,1.5369403031318036 0.14086818218008254,1.3129462281981712 l-0.65662562019281,20.145735509417534 0.23809486472526614,2.465697939265215 l0.4347731907936833,1.4834596616069236 1.0652337125599354,1.1682597845116443 l1.775497323888836,0.6302188898965861 3.6673783070007384,0.15710219322519162 l3.335501816317308,-0.3419296989050603 1.2094593866212515,-0.5430948300749953 l1.1247730621889365,-1.1786649663083983 0.4211835978850032,-1.0911257711201299 l0.22059975901082754,-2.1774161720606156 " fill="none" stroke="black" stroke-width="1" /></svg>