<?xml version="1.0" encoding="utf-8" ?>
<svg baseProfile="full" height="94.47686938472498" version="1.1" width="108.71142486433547" xmlns="http://www.w3.org/2000/svg" xmlns:ev="http://www.w3.org/2001/xml-events" xmlns:xlink="http://www.w3.org/1999/xlink"><defs /><rect fill="white" height="94.47686938472498" width="108.71142486433547" x="0" y="0" /><path d="M25,25.08841802197653 m0.0,0.0 m14.024005718767933,3.599509597250347 l0.04380006538390361,0.4466484949259087 -0.28370961221818963,2.5001409041446965 l-1.5012842142525429,8.181086239419756 -1.1424819154395867,3.7772528545439963 l-1.489307322361403,3.463989124019367 -1.5630471602053841,2.8212207199186783 l-1.4930471159458605,2.202210296913587 -1.5837270075377436,1.8594884104666187 m6.810529489097197,-27.333585625272438 l1.306441629849952,0.19310411587403445 11.612527787527979,-1.7994831541810825 l0.9931167116954582,0.11542996588850471 0.41241837867677406,0.40479971082772587 l0.16392058321392408,0.6279584159258447 -0.12084154755704513,14.805705829825037 l0.1841585074245754,3.372670214479512 0.36672332071762,3.014869337785342 l0.5652771049665187,2.292852186649189 0.7326226862522569,2.1847680643379404 l0.9037214734708939,2.344276082527663 1.0075432023889845,2.3426085443123283 l1.1363004312413187,2.277153972571048 1.2350463471443212,2.1606845704341318 l1.8147943396391197,2.1165434515164976 0.9688929315109662,1.0770525608015218 l0.8937162515735533,0.9327533135756896 0.7819323246234485,0.8257528214726341 l0.7207007104924016,0.7370254844623699 0.394799273262921,0.38352748955011545 l0.21841806195134444,-0.03178997787031502 0.0958862463450037,-0.5499825231111789 l-0.08389148754030991,-3.0066870749681565 m-14.043980047678813,-29.004851632135917 l1.8768006658486673,0.7271906554577909 8.29777765179987,-1.4121620696687633 l1.5764240179476903,0.015682173691575825 0.5247548222677295,0.3274433780071135 l0.2593187368697529,0.9773557742920214 -0.9812188759190071,10.616608138828607 m-11.636592878222569,-9.506004860670346 l1.3477229499589667,1.6369090184975228 1.1759998648402203,2.4421991458067205 m-12.460299774398495,8.858825344632285 l1.9994102111675272,0.2655285726266191 16.74653517718368,-1.9830141717743517 l2.7811830815023924,-0.10247948547746732 1.4436317351303902,0.22538090539713798 m-12.148170299685056,3.635614974282993 l0.482792761671193,0.8728674535646931 0.20131729965708217,1.0928739490935002 l-0.04903764598721884,14.386909571992696 m0.7011830486061305,-8.675924767800785 l5.811307193696205,-1.0923775166321181 1.7721835947053002,0.09864827824504117 m-16.05908255653264,-0.04154176989778123 l0.2743566036522321,1.5970525937874391 0.03487316952583834,9.601878321652272 m-4.273971262188335,0.09194256236198753 l0.8072119195093682,0.39302863295822377 1.1511101655260498,0.003313772612833386 l18.747281152366675,-5.845432108156943 m2.4820364566682867,-24.326191479392207 l2.3192462869492743,0.12638702668529905 15.263462980300675,-1.7596686614383497 l1.6572587849175786,0.17637194350365806 m-10.858251625079875,-12.217257441726197 l0.6597531043419778,1.0946169158054946 0.241736563753319,1.2237940400952378 l-0.38068627331271626,40.8979317136528 -0.4691414153890966,0.6160454867892354 l-0.6062780827786173,-0.06947961954903051 -2.255724082646495,-2.502692716246017 m3.186071196526988,-25.554115146698376 l-2.0993570259500047,5.437198530309726 -3.36554525928889,6.2978598182410535 l-3.7896255319032157,5.636158143598309 -3.273964594944703,3.5544801075188697 m12.61880457651626,-20.72983151945957 l3.1088348431361954,6.2005482941517585 4.171176883830648,7.054166296558262 l3.409773031832402,4.693594779845972 2.205065369874355,2.2008356965471623 " fill="none" stroke="black" stroke-width="1" /></svg>