<?xml version="1.0" encoding="utf-8" ?>
<svg baseProfile="full" height="99.19651591215525" version="1.1" width="100.58913136850553" xmlns="http://www.w3.org/2000/svg" xmlns:ev="http://www.w3.org/2001/xml-events" xmlns:xlink="http://www.w3.org/1999/xlink"><defs /><rect fill="white" height="99.19651591215525" width="100.58913136850553" x="0" y="0" /><path d="M25,25 m0.0,0.0 m11.564475431722819,11.6875644053128 l0.47463008325674866,0.1886111158563342 3.4480500740075786,1.8551735434454297 l1.4292300464759644,1.0169902199313496 0.7519932734394158,0.8461319636473643 m-10.987515253739346,7.774701284825231 l4.32902159962782,1.5479928380249823 2.3471814415526473,1.4726986050907467 m-7.142373822702976,19.432719700409447 l1.1585296255747017,0.45218597354952855 0.5800391277381853,-0.00909877508651094 l0.9115271872373004,-0.5627963647431503 2.4451936781170205,-3.434836716742923 l2.6259129031083566,-4.347061137825186 m13.004610273500107,-23.308832328123454 l2.2717990797963923,0.14916814541418968 16.636219871218305,-1.7230659338879533 l2.3402276601460863,-0.07713197203666436 m-22.097485681528724,-4.403585709316264 l1.278319636010461,0.6457490062705542 0.49431082049736785,0.45831208805994866 l1.7410154623958962,9.889445612561364 m11.514784060938586,-11.791058646738755 l0.542413737359859,1.2272041823253983 -1.5145461515981675,9.811492824828049 m-18.320679006006202,1.7894045549456716 l2.510131783890718,0.16683957293053575 23.071652504480994,-1.692699326452229 l3.1804619219876167,0.1349750789424825 m-29.288061799057726,2.0658201563952363 l-0.605985011593735,1.0999738309180322 -0.9044724349639769,1.578298847365009 l-1.409676619479326,1.8976749442132685 -1.8399677935661025,1.8834005870226602 l-3.0677912602801265,2.4950298924332945 -4.071683417695292,2.536719670783029 m22.968992069559654,-10.869759762146103 l0.3628254374753998,3.8660530894400282 0.10418911001212133,2.2464331591725433 l0.4171663868528988,1.56562816104816 1.10887389299746,1.388923712936189 l1.3847615963478137,0.5742908241429926 7.443828617755744,0.1751016418275328 l2.484850938717796,-0.39893713888174265 0.8013622358791508,-0.42404008962143086 l0.2573871795579634,-0.4829985284054956 -0.04315863364503057,-0.8570048072431526 m-29.713148698843888,7.7374807039584 l1.7292455003874851,0.17978538637597827 17.072789081062123,-1.4034455545790685 l3.0980431322778834,0.11532322175255288 m-12.00247440216089,-5.66668032888683 l0.7038468489939768,1.7378366473424294 -0.01056687226307914,16.95841383937342 " fill="none" stroke="black" stroke-width="1" /></svg>