<?xml version="1.0" encoding="utf-8" ?>
<svg baseProfile="full" height="110.66098435515632" version="1.1" width="112.14640047399426" xmlns="http://www.w3.org/2000/svg" xmlns:ev="http://www.w3.org/2001/xml-events" xmlns:xlink="http://www.w3.org/1999/xlink"><defs /><rect fill="white" height="110.66098435515632" width="112.14640047399426" x="0" y="0" /><path d="M25,25 m0.0,0.0 m6.2067841224144145,22.165412774226855 l0.09858868754217429,0.3900217516534109 0.2522728423431905,4.692895532226469 l0.4955126756338535,30.860850709381857 m-0.44995141994469284,-36.0111856940811 l22.682085164577533,-2.0611753065772684 0.6736644280084317,0.21667716853327093 l0.9714167596302165,0.9074243143408959 0.27706941660688733,1.2121228680573797 l-1.2327235919249542,30.808078855024874 m-13.232010629612784,-35.39057155706701 l0.031804766074606666,35.623175957369654 m-10.754972890623446,-15.923623360081915 l16.498161927465,-1.610591732305793 m-16.08805850364049,18.63617001355528 l20.35267755381158,-1.7139971485082055 m13.010664972789684,-31.550791109060274 l22.35341419284305,1.9237146834548915 m-30.017776863003988,9.285870011729772 l26.078607264031447,-0.9230332745287306 2.2431231270417,0.2462872005492938 l1.295823570967134,0.8590463578620158 0.2690117496109676,1.282516545838224 l-2.4832234073548873,4.415147397757309 -3.2179918683874162,4.707203897567779 l-3.727463909009282,4.486701366088155 -1.5313344473100932,4.856519852706837 l-1.6684399972855697,4.898887014676852 -3.381483535846255,3.371229264765539 l-0.6049031045273097,-0.6122154972301175 -1.6402373939114583,-2.1243529044794327 m-0.9635656768442088,-40.264580190139235 l0.16435532894360136,2.6238750967715805 -1.3542490779472365,7.658550081735552 l-1.8208585249248088,6.319986244059393 -2.5477141402467023,6.396080226974119 l-2.8453171566485738,5.397953630448554 -3.5265200200123203,5.21661061833652 l-4.272862447039138,4.867831228731328 -3.6710723744644493,3.216815191710604 " fill="none" stroke="black" stroke-width="1" /></svg>