<?xml version="1.0" encoding="utf-8" ?>
<svg baseProfile="full" height="109.14217537195219" version="1.1" width="99.60215400514915" xmlns="http://www.w3.org/2000/svg" xmlns:ev="http://www.w3.org/2001/xml-events" xmlns:xlink="http://www.w3.org/1999/xlink"><defs /><rect fill="white" height="109.14217537195219" width="99.60215400514915" x="0" y="0" /><path d="M25,34.03000704016205 m0.0,0.0 m17.631262007970825,14.569763093263763 l0.44341210352896276,0.13365361605161483 2.8593913010581975,0.03585327072610199 l10.640462220737156,-2.1814162965283397 8.164520711224768,-2.292313485950122 l2.241953870602925,-0.36456605807791714 2.443885410161492,0.20891190680981817 m-19.855191039083895,-11.767062131047657 l0.5378200034715805,1.4211974247641614 0.18332475646120383,1.3386115202346234 l0.9994173716849836,28.334569328637176 m10.632607062639346,-38.467209229045274 l0.41188322407687095,1.3937800797339102 0.08346419559847024,1.1712693539053654 l-1.3927533259118297,30.903699226140542 m-21.079316725143332,2.730414205637091 l1.568611913491051,0.4451003324599023 1.84052587909396,0.053813175774448475 l15.722591066058948,-2.605388179163488 9.651628989801587,-1.4309791544129404 l3.4446311529168194,-0.1346072340902379 2.4280218547090415,0.49372462134273587 m-22.98215475377401,10.071916502675867 l-0.15920449690981997,2.119039973157869 -1.2599038232964104,4.014447196471709 l-2.152905681826116,4.651193842380399 -2.6652252152681597,5.264751429939034 m17.04127764949243,-16.653609970166993 l2.050280298938073,2.983362454211965 2.5590177592080985,4.566717154492633 l2.0375848232121268,4.666722710972275 1.0084521220539784,3.654066733353736 " fill="none" stroke="black" stroke-width="1" /></svg>