<?xml version="1.0" encoding="utf-8" ?>
<svg baseProfile="full" height="105.13778639459429" version="1.1" width="97.70489621196378" xmlns="http://www.w3.org/2000/svg" xmlns:ev="http://www.w3.org/2001/xml-events" xmlns:xlink="http://www.w3.org/1999/xlink"><defs /><rect fill="white" height="105.13778639459429" width="97.70489621196378" x="0" y="0" /><path d="M25,25 m0.0,0.0 m9.238416876430657,13.46246153415746 l0.49304595456602973,0.20275184776471075 3.3071950118632234,1.9861505706283635 l1.3792708978204444,1.1376405283127093 m-8.652242210866053,7.864846684645604 l3.8854195862010075,1.7833559430234027 1.8548284414587108,1.132013864497029 l0.7313633318558144,0.7660044733588837 m-6.492597951992544,19.487269664382577 l1.063945079742365,0.46907031231886387 0.5112670887294701,-0.009170669626683267 l0.8669826597656147,-0.5717492965011454 2.264082757911902,-3.5378943278449553 l2.4411809013739814,-4.45731395964942 m10.045153481215578,-26.136771658874853 l0.6375185309818929,1.1531477445373537 2.111252403876948,13.57021811111367 m-1.7995508015410078,-14.486432129073355 l17.231264917372997,-1.458436732969626 1.1044440434599152,0.059773150308216304 l1.068456311277563,0.5325760487372697 0.44610924566073357,0.761948283376624 l-0.017106343383624944,1.0843160513701025 -2.1269433261680746,11.908692537665777 m-16.598939530720944,-6.507324828851058 l11.802635256618382,-1.0118427813361146 m-10.570914936309398,7.5884077682685565 l14.800885475358974,-1.131076553289869 m-20.225565595263213,7.63545419877173 l2.1253721918246318,0.17544008597224464 2.351855896773171,-0.0609329461606019 l19.737670933859143,-1.6917920109778133 2.6891396322094954,0.15120278972349932 m-15.297925129654594,8.913424587442638 l5.5154590848510905,0.6307722721941673 2.9056967491146324,-0.030247748846566943 l0.7709419121203634,0.21133549423174908 0.6990122695800216,0.6355872727732845 l0.18466124492839228,1.0872595138271681 -0.8734275922674991,2.5907897505055675 l-1.990332168709128,3.669568839451006 -2.3959609602709286,3.5001711481220745 l-2.6219854477600473,2.0771209671140642 -1.1016484973243361,-0.21322911363971286 l-1.2853424160743043,-1.0954674194153506 m-0.4490890373763635,-16.512412892838203 l-0.021129271759485365,1.4268310010700738 -0.8970360914161459,2.1386607984264914 l-1.6139692077969388,2.9152003607807573 -1.9980551177028043,2.8389216200762077 l-4.161805727634143,4.293761626581207 -2.637282383968175,1.945574641317905 l-2.1480598524582595,1.2254629485851996 " fill="none" stroke="black" stroke-width="1" /></svg>