<?xml version="1.0" encoding="utf-8" ?>
<svg baseProfile="full" height="108.35302207158229" version="1.1" width="88.45215153913034" xmlns="http://www.w3.org/2000/svg" xmlns:ev="http://www.w3.org/2001/xml-events" xmlns:xlink="http://www.w3.org/1999/xlink"><defs /><rect fill="white" height="108.35302207158229" width="88.45215153913034" x="0" y="0" /><path d="M25,25 m0.0,0.0 m7.248602732098466,18.94512294590532 l0.10956209511079604,0.40192270257440244 0.2853425400366019,4.934948242705087 l0.5562106759960634,12.666509741677716 m-0.6550578539514564,-17.339537224080317 l7.177618513946903,-2.0196759377643465 0.3809664777817727,0.0611105541639019 l0.28746833342104594,0.4377619755278262 0.16049101196071128,1.205895573550686 l-1.2720544015775272,13.734455963670774 m-5.722310930271781,1.3825502430476766 l6.489672322926641,-1.158306204763701 m7.533592248085253,-19.793181563245124 l-0.05311936820588142,2.449525891054529 -0.4285752431028465,3.6769554181419863 l-0.7554419718054839,3.855040053152612 -1.0507748040439082,3.673900838946632 l-2.2616537224449362,5.922252709483606 -1.5788859643982225,3.080876480459306 l-1.4877802309185308,2.21380270935173 m2.109266169387417,-27.960604038404004 l0.7665029840708457,0.31941454331352676 0.8156508961518039,-0.02583763455140789 l11.955950419975366,-2.150132049069263 0.4151894327164908,0.416810455706907 l0.14218674235196133,0.6214454137466967 -0.11401283618442741,10.014049116233343 l1.4107612962829437,6.521692728736417 1.8136607010305612,2.792149643690096 l1.2806500007217663,1.221988559074797 0.7319826632228739,0.6215156714336569 l1.2214418666412783,0.16599105799784802 0.4674855745202984,-0.34450146850168634 l0.32556345281478466,-0.6757432042187268 0.14599971478270038,-3.545005899987195 m-20.39815355617674,12.317585607375731 l0.8946002457376859,0.34128018746301253 1.28691277963429,-0.05320482121066022 l11.670376837268876,-2.1769200052168336 1.9734751572621505,-0.14335203439956098 l1.3005204787604576,0.23953055319103678 m-9.158176495118088,-8.23680062896512 l0.4780854958006635,0.7452157326540985 0.19638724644328984,1.3208174925814604 l-0.046409352178781116,27.67370597934781 m-0.18314692402618454,-21.612858243019904 l-2.1299212367353717,4.852263342664791 -2.8030817292540116,5.112296473194415 l-2.9245295201142696,4.121553044357288 -2.7760609566905106,2.889876427994379 m11.327528194608506,-16.292820821914283 l2.104047353095969,1.9342947123888354 1.995225052562078,2.39261920611067 l1.9062859228486975,2.811529539944316 1.4398805263715808,2.934879557618764 " fill="none" stroke="black" stroke-width="1" /></svg>