<?xml version="1.0" encoding="utf-8" ?>
<svg baseProfile="full" height="103.7823170872035" version="1.1" width="103.69919881321573" xmlns="http://www.w3.org/2000/svg" xmlns:ev="http://www.w3.org/2001/xml-events" xmlns:xlink="http://www.w3.org/1999/xlink"><defs /><rect fill="white" height="103.7823170872035" width="103.69919881321573" x="0" y="0" /><path d="M25,25 m0.0,0.0 m8.8387151420793,4.347594750288544 l0.48071794588551875,0.22941134410971542 3.3936065977715404,2.4402032095330135 l1.5310247459325501,1.4250892787590326 0.7859520694279807,1.1886012992315538 m-9.889472614403928,11.496844162894412 l4.305547168135353,2.3320437575125403 1.862132506425799,1.6611865580047618 l0.7631500074892528,1.0243497263178887 m-6.1611822887126175,24.919152159198205 l1.0972159731007858,0.10905927490954262 1.1636220091870457,-1.062315034096771 l2.395271737480934,-4.591704771876685 2.5966297484874405,-5.974517797743842 m10.241131434890459,-34.61188827665565 l0.6634083997829385,0.892112824666489 0.35938204079787567,0.9890467931519388 l2.033957690277262,15.90537765897528 m-1.659297469174859,-16.924243465780066 l17.789185992467047,-2.1177257935247473 1.6973981058046246,0.02157303335022457 l1.641532041351575,0.6206056795479378 0.5634974156950259,1.0287461157135653 l0.015240932341459304,1.6890932044412392 -2.0875826842409086,14.43268142046277 m-18.58419174900386,-8.053677795994576 l18.950358401098022,-1.8705343761953646 m-17.88646952996909,9.940252557258031 l17.05070137242848,-1.5445984573368459 m-22.73376196925167,3.8815471602353435 l0.17954800918550246,1.1345700215921666 0.09466985622829051,1.2321696856214752 l-0.07630275056424939,21.710788212421427 m0.32120020370258495,-21.828588824914362 l28.049509650860678,-2.262832034124594 1.9427966476649339,0.10065576082011395 l0.9256472351896484,0.3632194935480013 0.8189458637557314,0.9315882360359502 l0.22576292361126893,8.672128849756826 -0.5368208064030725,5.73275189297359 l-1.1234644692299358,7.05489485914643 -1.2492085905584653,2.3479634685288606 l-0.6047790569041059,0.22408394712521681 -1.28221368590123,-0.5813989805176031 l-1.5125068770143826,-1.625842100315973 m-18.892979106465283,-9.701329841001277 l1.7205205650465385,0.42256996227357296 1.4923077304781696,0.06900766640588532 l14.196828153709902,-1.7728482589623051 m-12.060819955836195,-4.6010027860472995 l0.6250856339894554,0.8187989809743829 0.2832195418220018,1.527859771701087 l-0.07033814037405897,8.708351533419076 m-7.994585495846331,0.8113333535654274 l0.7131858787362272,0.8233511707709262 0.37087605847348676,1.0620778856651825 l1.6446862186846278,7.468599961221647 m-1.285688592985763,-8.891146786830447 l10.955939437876566,-1.205989614445034 3.3605626352691824,-0.051756517091841 l0.383048381639114,0.24635284888069287 0.24770658171524546,0.5284148537274577 l-0.0596894153991124,0.8071518122657521 m-12.65047293507395,1.800905222737651 l0.45034240858513136,0.7553336115997941 0.13824417039550108,5.743033622976439 m-7.90036290929237,1.3837299463416999 l10.565403318430885,-0.7346357729941063 7.236830426815229,-0.40040013891484405 " fill="none" stroke="black" stroke-width="1" /></svg>