<?xml version="1.0" encoding="utf-8" ?>
<svg baseProfile="full" height="94.74896735484216" version="1.1" width="98.92534325811795" xmlns="http://www.w3.org/2000/svg" xmlns:ev="http://www.w3.org/2001/xml-events" xmlns:xlink="http://www.w3.org/1999/xlink"><defs /><rect fill="white" height="94.74896735484216" width="98.92534325811795" x="0" y="0" /><path d="M25,26.06685917021582 m0.0,0.0 m13.517514878909173,3.4686737057404615 l0.4108476407495572,0.2176372397504434 2.213310724414775,2.2287896697162908 l0.9631513078793709,1.6854206844365585 m-6.65458128667809,7.433204253856599 l3.033082503560099,2.3372244374743767 1.4404300850751413,1.6656839968699615 l0.603767985233574,1.1637788954953714 m-5.260083961726814,22.965332489322638 l0.9251725555354245,0.5163628119636368 0.4569721324618617,-0.01877872793007559 l0.7368256398871365,-0.6561736748918857 1.8805515687574437,-3.962914532992986 l2.026084125460337,-5.091631267727563 m7.9520954951639515,-33.17835064692884 l-0.5612613946319818,4.169665764065029 -1.3127275007014754,4.822403005867437 m2.590745876345043,-8.139010347639962 l15.927041981858666,-2.0867236586551976 6.172370891133566,-0.6074532680081122 l1.0835522413498888,0.11690655264107339 0.5859210561487274,0.40092802517853815 l0.1945587119325598,0.568055966085616 -1.0557487625003494,0.6922418504619798 l-1.7472412880722457,1.4605468684496237 m-11.07550467727965,6.649481293967938 l-0.09963183324412009,1.4764655195390664 -1.6822999716028397,1.9315221404864718 l-2.375361040330938,1.8737276114820915 -3.21638544820006,1.7150170671623028 m-2.2117396525877084,-7.5949764223599425 l0.320553652916549,0.542431101802088 0.285701310619166,1.1959364781880277 l1.876243534671447,13.803519349809429 5.687450256296138,0.39086336514204817 l5.177255437980525,-0.201257247431759 2.5061194669719455,-0.6014086760523218 l1.0840720314721666,-0.8635747671507035 0.5227614606687719,-1.2005161711168484 l0.15120541042753033,-2.0058168196414097 m-19.036681226499528,11.2326718547574 l1.1824793610176207,0.20357282976965055 11.946556114940416,-1.6352037069730487 l2.230136717513632,0.08401896570487713 m-17.575287223138055,10.951046192401511 l2.721368343031526,0.17353680941171395 13.318753955408937,-1.5660969763824772 l3.2295822050515435,-0.10205301948898211 " fill="none" stroke="black" stroke-width="1" /></svg>