<?xml version="1.0" encoding="utf-8" ?>
<svg baseProfile="full" height="103.7984571000839" version="1.1" width="98.57156556972924" xmlns="http://www.w3.org/2000/svg" xmlns:ev="http://www.w3.org/2001/xml-events" xmlns:xlink="http://www.w3.org/1999/xlink"><defs /><rect fill="white" height="103.7984571000839" width="98.57156556972924" x="0" y="0" /><path d="M25,25 m0.0,0.0 m8.875447528173366,13.649188876018266 l0.5075906503541477,0.17848342723550362 3.907257102710047,2.054758269237985 l1.7503629278003525,1.3942569887251401 0.7075457762158092,0.8698750954917814 m-9.767113634574297,9.583186575517498 l2.0101564124242066,0.9748039928492866 2.1273689659882913,1.3833867435383076 l1.7662036219580604,1.444218112972792 0.9838485546074179,1.2506015892823203 m-6.10178710807317,21.01569742921502 l1.1726771569376462,-0.010161639555020738 1.2147865916665923,-0.8854253450493699 l2.439892147064527,-3.9872070819822403 2.4999470989364525,-4.84805922542683 m9.368797612248569,-24.26141419634395 l3.3808713671714568,0.28650162705593857 16.560787384877873,-1.9421921346131006 l3.162409158238466,-0.23834349488355763 2.004516255003428,0.22568543170833782 m-13.388097839911195,8.355741453410944 l1.6385332303212754,1.2745192009449209 1.0012407280940603,1.482214737295522 l0.1648300742441292,2.8576640363038606 -1.5767201635239174,11.250844433030986 l-1.2436332829296821,5.476566714669554 -1.620857086098534,3.9401241997007874 l-0.5865841518271233,0.43515285651919255 -0.5955730019450636,-0.10120575728818834 l-1.187819319282678,-0.7681617701542633 -1.3944713537842826,-1.5234122797519285 m1.7485564063238637,-21.863943013071 l0.27314287549506716,1.6796662783762588 -0.9017057581573299,3.1510239137368283 l-3.7294727158368635,5.006878814758829 -4.739213790193468,4.006203582533986 l-3.2457221415774975,1.9704905006674978 " fill="none" stroke="black" stroke-width="1" /></svg>