<?xml version="1.0" encoding="utf-8" ?>
<svg baseProfile="full" height="112.04574740675183" version="1.1" width="111.81474782921266" xmlns="http://www.w3.org/2000/svg" xmlns:ev="http://www.w3.org/2001/xml-events" xmlns:xlink="http://www.w3.org/1999/xlink"><defs /><rect fill="white" height="112.04574740675183" width="111.81474782921266" x="0" y="0" /><path d="M25.4166693270572,25 m0.0,0.0 m13.45265148342625,3.3071077603328294 l0.03894222722004837,0.45369975078592045 -0.832198569914084,2.123068567850288 l-2.1980313263247364,2.584284947856677 -3.306388521492523,2.6617252100891813 l-3.9780293085601928,2.319333657153699 m9.649504852957403,-5.675550333057325 l14.34292346728641,-1.3793732795286608 2.764866991571827,0.032422256661374785 m-11.81206113832725,2.4298654940717728 l2.534318930069377,2.1732286094427486 1.516495993234765,2.452561223971917 m17.381584795300885,-11.529983908918645 l-0.27760489881476785,1.4017856677693348 -1.7636745302342511,2.4290747984918384 l-2.4971543661096347,2.6364495439865965 -2.763558238856343,2.355358993341542 m6.783445534364701,-3.515580392043237 l19.047841726602133,-1.6784107658625862 3.31420339875545,-0.029462988985069296 m-12.514824159866542,2.732281985753379 l-0.19601831171058884,0.7313546881386823 -1.2288709450245185,1.4278256863035381 l-3.455980893997582,2.534865702884658 m-33.12200531614779,5.241080943954712 l1.8829112863604394,0.25456811013484365 2.5075285520749673,-0.0032449712358365514 l28.52116031888115,-2.3061508416382206 9.427454158629063,-0.39876262129807816 l1.7757452369210436,0.2512722638066203 0.7756794459519807,0.3637099083469189 l0.38079749488507053,0.45446695340188226 0.05139496502517169,0.5708945849373883 l-2.9582090030688493,4.508017383423028 m-40.66675447240727,-2.1709007438628416 l0.6265975807552756,1.1221864732719373 -0.1764604316405645,4.943060147493695 l-0.5482594275684435,4.640996515381168 -0.9860129680353904,4.45453426260662 l-1.312047306749573,3.5936226327661114 -1.9201771680954898,3.3485559974899957 l-1.9359869426256429,2.30706702163787 -3.4762520577945035,3.121818723557935 l-3.2661574639640816,2.0254063487919103 m31.179613008353904,-22.72518727446201 l0.838186011368823,1.4276762782661305 0.002908031748939904,3.6488145290784995 l-0.5016446530172392,10.925262444203877 -0.7629466016473246,2.4828150605108985 l-0.7128727705078398,1.8429322874816318 -0.7423822610419447,1.329454176119591 l-0.8031994601567747,0.4981480939585169 -0.849749134613193,-0.006580398737385136 l-2.5004084021688326,-1.135447581549938 -2.511514754140226,-1.1071480713454633 m-10.090289221831217,-12.812125493262258 l2.2472882211780285,0.15922066251510206 9.70516500806042,-1.071593744800483 l0.8057934716922305,0.17488043648352486 0.37640895278516273,0.4144801562769188 l-0.1571825574637033,0.5386529478969448 -2.8583276279927228,3.2842939821833106 l-4.246789002486139,3.570831459981441 -5.019400427166711,3.1950958223804196 l-5.485998257272551,2.39627662702274 m43.53675068313079,-18.54944649456238 l-0.5170203432566474,0.9674046930037761 -2.4870347317746417,1.5284012250760333 l-3.3249403557719353,1.7176307553050656 -3.622528702900426,1.5175761600309294 m-6.36634425142852,-1.0738911087025287 l11.418428707471593,7.194503517780382 7.615417002462624,2.535794603571623 l3.5860771778652167,0.9486749937776945 3.425222969317084,0.4751868544293905 m-53.31757304078274,6.566369339585568 l3.81075991631404,0.22162464120780476 33.72587192744298,-1.4046981572467245 l5.430014390355396,-0.07773449578542076 3.0918909227485845,0.23609972551256259 m-24.13638483493339,-5.819224581087379 l0.807237836721664,0.8352843550795588 0.25592927244151986,0.9103272173046973 l-0.09112088335194166,16.984979792811043 m-1.722204327607321,-14.468962611588196 l-3.6332238632479013,3.909163792158155 -5.280284524055506,4.044976847668653 l-5.842509738436591,3.2403538042634055 -6.019130333267532,2.4362433849165845 m23.610353528474416,-9.343116492964215 l4.727124290311395,1.3775329951044726 5.090647012884347,1.9460657268259334 l4.603441945470031,2.3484849390901608 3.4540657552050766,2.413593949710151 " fill="none" stroke="black" stroke-width="1" /></svg>