<?xml version="1.0" encoding="utf-8" ?>
<svg baseProfile="full" height="94.85996475463318" version="1.1" width="92.93891518100617" xmlns="http://www.w3.org/2000/svg" xmlns:ev="http://www.w3.org/2001/xml-events" xmlns:xlink="http://www.w3.org/1999/xlink"><defs /><rect fill="white" height="94.85996475463318" width="92.93891518100617" x="0" y="0" /><path d="M25,25 m0.0,0.0 m7.433275330385417,3.8019701332114346 l0.47277433314572165,0.21543452255243303 3.378076453587399,2.00657012970634 l1.6100460135372567,1.2064155993047905 m-8.010643433617277,8.221288766790629 l3.728424161484043,1.6752908396109605 1.7615586532650154,1.2690353937370498 l0.7110698228755149,0.7832947970546417 m-6.935319024137205,19.113365338229833 l1.0275494078224467,0.4627821496050824 0.5061224136242684,-0.020556269426893533 l0.8423843335543515,-4.3009725934116885 3.3216814537390826,-6.651774213707553 m24.528745512061658,-27.04224611343943 l-0.2487318029595126,0.5620397057856905 -0.542568598102807,0.5210121576319342 l-3.020120897187496,1.534055950791974 -3.473040751931545,1.339060146138948 l-4.945957325917404,1.2646078439320925 m-2.260138524381521,3.7237720245998522 l1.1570769115014017,1.8044373270728946 0.9422891168171114,2.0747072514744556 l0.8337341378017082,3.1675263017226207 m4.519628249030088,-8.513376871750587 l1.535719079587189,2.6384399211418565 1.169114398595838,3.236984526359441 m10.147161478485506,-7.806414528177599 l-0.1820315472182131,1.2809874646941903 -1.126904020851884,1.7369002742153323 l-1.9534518818918,2.3751663454735996 -2.5741367929224066,2.5910780202048946 m-13.787370650453713,4.388433259424604 l1.73023024358845,0.2289179442359968 1.327538670282119,-1.9299804928716107 l10.839499278689617,-3.1328947632657966 0.20645530613549518,0.280328467741746 l0.07153600439233118,0.5411521467247843 -0.4954706231807874,0.744256997503964 l-6.110399109123872,5.8665113930352195 m-0.4338102269142982,0.11717110486250117 l1.3593239680123743,2.6186443689203 1.2468619060301112,3.6632504771478915 l0.7303126092231345,4.2090074123278285 0.07239900782559054,3.9382407756467983 l-0.4682603685305378,3.1665484009777347 -0.46395259562237456,2.7764643963651108 l-0.5068081125931434,1.5842952232233483 -0.6578972077291115,1.074091285194445 l-0.8393415724256739,0.45464401630909623 -0.9735549284188914,-0.1817482167763464 l-1.046972718768647,-0.7741400952966296 -0.9686477861100308,-1.4128626899585464 m-10.093033296229539,-11.063919849402579 l1.2669156666615793,0.25442564891891256 1.6936917561191704,-0.03630603413707611 l11.316380602794027,-1.6848838523229193 9.13438008597822,-1.0160021440086655 l2.4026191674144246,-0.008897779039746059 2.032903444178198,0.4323024160046868 " fill="none" stroke="black" stroke-width="1" /></svg>