<?xml version="1.0" encoding="utf-8" ?>
<svg baseProfile="full" height="98.2633344786014" version="1.1" width="100.96367291827663" xmlns="http://www.w3.org/2000/svg" xmlns:ev="http://www.w3.org/2001/xml-events" xmlns:xlink="http://www.w3.org/1999/xlink"><defs /><rect fill="white" height="98.2633344786014" width="100.96367291827663" x="0" y="0" /><path d="M25,25 m0.0,0.0 m13.44520186962268,12.409751773003004 l0.41913076890385126,0.17620410547738208 3.067497393272034,1.8407470111774307 l1.4240984867511663,1.2010155010028918 m-6.924181006431407,7.406992757743189 l2.992385276625181,1.8973871874940857 1.4242544833105633,1.3605205925597756 l0.5814963797625369,0.847251050734118 m-5.467042788282419,20.66089213136171 l0.9692421473515984,0.4625723680478114 0.44714383068347946,-0.034677635241635946 l0.7211271468258412,-0.6185328667970145 1.9990230688643054,-3.6675618975092172 l1.9703503776917954,-4.296779356867035 m7.130725162532186,-27.10663288613552 l0.455774241291902,1.2176524298386233 1.6232608308590697,12.755484113438868 m-1.4159516163838832,-13.356317555274657 l18.108393144477713,-1.6994105595243871 1.1980944939090654,0.005863022810828302 l0.9360578265861593,0.21925877949625458 0.7132669637346891,0.7451697995137354 l0.09988156073772733,0.6163717133440966 -2.62458149821482,11.905049593769817 m-17.111894738081258,-5.82189994065503 l11.825223274239171,-1.1558757809352065 m-10.835285068929803,7.120665849287914 l15.646507072008045,-1.213523920131933 m-11.820087315884109,7.476245599402445 l5.132540998603001,-0.10756817600524281 6.571885259415076,-0.47079260288002234 l2.077297410102347,0.10030041828267615 m-19.691603795365868,6.858170698104633 l2.1650285323447314,0.23336457538478206 18.575318672140824,-1.4212709921495996 l2.733339817966681,-0.0788838128407014 1.1877033957750385,0.1638491324322128 m-13.804364595859681,-22.879518069940275 l0.4619228895824329,0.661395692337417 0.18775276988332792,0.9511960320784897 l-0.05313964395463675,28.242668509423446 m-1.4627121495445157,-20.11315986377014 l-0.13133365642231554,0.8711485445449754 -0.4039733350626918,0.8988284451248874 l-3.1866560306662617,4.429637042865669 -4.1721823717727355,3.789852833515117 l-2.4232140678460876,1.9961643235650377 -2.449969833930979,1.8530148139381521 m14.701588458355568,-12.830875445222018 l4.000473695981873,4.282521436618694 4.238363202577158,4.173153219769221 l3.2548239570737683,2.8009732273264065 2.4556715710675157,1.3978196423019578 " fill="none" stroke="black" stroke-width="1" /></svg>