<?xml version="1.0" encoding="utf-8" ?>
<svg baseProfile="full" height="125.95969129845714" version="1.1" width="105.15940092516583" xmlns="http://www.w3.org/2000/svg" xmlns:ev="http://www.w3.org/2001/xml-events" xmlns:xlink="http://www.w3.org/1999/xlink"><defs /><rect fill="white" height="125.95969129845714" width="105.15940092516583" x="0" y="0" /><path d="M25,25 m0.0,0.0 m14.054511325086073,13.59383886663188 l0.41249774291612334,0.17789859802699745 2.9198884132291494,1.919803287825926 l1.299479225128164,1.2624236020056714 m-6.513163432372827,7.197103263164222 l2.955273762855818,1.9213533130143112 1.4738313199327817,1.404249581779386 l0.5804637028785276,0.8620174691337732 m-5.566303866777838,21.08492435922295 l0.9063300733823139,0.4751981577131945 0.41975140730244875,-0.026265720354193053 l0.694393836754131,-0.6198588613277306 1.9543728149483477,-3.6816848038562897 l1.9044043348728503,-4.437511907022101 m6.175168585288256,-26.882250564523964 l0.40029001084929033,4.1798488885146785 0.5493352832162739,10.491743092062498 l0.6254164893156516,13.18662801348583 0.087120352258016,12.940641270645624 l-0.4406246699892785,6.0905590613535825 -0.9221708253855043,3.855269823989921 l-1.402234196498258,3.204478314947945 -1.9643502668485482,2.856675023582337 m12.13094552996223,-48.15430036659097 l0.4465966012318641,1.0703925854265983 0.15869126809636572,1.1567228998438008 l0.005571991345336755,11.230031611527046 m-6.245751257434464,1.1890136691318522 l6.042784118049079,-1.1779986305286982 m5.528953485338199,-12.676504779769004 l0.5218783894349877,0.9570390083660005 0.17154658457895133,1.1224686010953715 l0.002916443980075324,41.46282487230405 m4.78987532481395,-32.0272849912641 l0.9354399755475362,0.21800216506229717 1.3170649536567438,-0.2076298273509717 l8.665301720410238,-1.7866724836809562 0.08390437381277427,0.10920987374686403 m-13.517547450011108,10.762147865120726 l1.5246588176941502,0.16728084587117004 8.500090199065934,-1.5267434920636704 l1.4475351897468007,0.12212468704827044 m-11.9093501476843,10.446389114429184 l1.3233991839465131,0.25896751014332625 8.697710849711463,-1.5688770941167736 l1.4276524317823787,0.15788003395655034 m-12.296373940544427,13.320443340226408 l1.152623592626913,0.38145693448782675 9.026513904942671,-0.1999665672573612 l1.3264214751079928,0.21770636713842836 m-6.670307228385604,-19.332025867649907 l0.46883063902887173,1.030413498334923 0.165702148531675,0.9417249771064257 l-0.021755716025514283,27.238372808345982 " fill="none" stroke="black" stroke-width="1" /></svg>