<?xml version="1.0" encoding="utf-8" ?>
<svg baseProfile="full" height="109.65778798665178" version="1.1" width="109.45282601694328" xmlns="http://www.w3.org/2000/svg" xmlns:ev="http://www.w3.org/2001/xml-events" xmlns:xlink="http://www.w3.org/1999/xlink"><defs /><rect fill="white" height="109.65778798665178" width="109.45282601694328" x="0" y="0" /><path d="M25,26.597620997501387 m0.0,0.0 m12.898146116897728,3.706231139062215 l0.4884645996593491,0.22694131941299323 3.746111649191285,2.5320109730063836 l1.7253976619115186,1.627253912594883 0.7105391685274057,1.0504528691510606 m-10.742878053901551,10.433942448283538 l1.9795253363241812,1.0922264575454583 2.2444408525001527,1.6278863576217688 l1.827750613301834,1.7616686062570501 0.7342942599928844,1.4673054421581369 m-6.833703718072663,24.83789048004385 l1.2609051757490226,0.06820917825110105 0.9610154027604636,-0.9894892893676416 l5.51113593803297,-11.145299818247873 3.99521388612276,-5.267645838138157 m19.571521291073342,-34.62720523513616 l0.9488909106344751,1.5582745824705735 0.07199234806085641,5.649824989498671 m-15.260464498904378,1.8016929894974436 l3.941520105455246,0.25637957485518875 24.032799792781763,-2.539224836665701 l3.5087554278701085,-0.1486912791464511 2.1147007333185286,0.35350049123143773 m-30.88240594679848,3.2106289879585925 l0.5948696398381225,0.8235935081231435 0.19504690434010047,1.1836936023370752 l-0.407983366639968,6.9117173818014095 -0.884245497657763,7.808101150264892 l-1.3063070606883724,7.442609347359351 -1.4928867626852955,5.8815113202267755 l-1.5454777421433636,4.5554236670308805 -2.505138768287088,5.348037286249606 l-2.4523409258836715,3.695218401061872 m12.585576302969669,-36.164489771745295 l2.4739376062233585,0.21913998600653103 22.373828649245166,-2.2676315553354507 l1.7540724122992968,0.2305599733041535 m-20.240617403591816,-3.521939357715588 l0.6466064518013412,1.40668721786118 0.9124165714807697,12.465891554293373 m9.884811102893122,-16.147980643410765 l0.523164657107976,0.99502518480319 0.10371382377601478,0.998922169268233 l-1.1886445238611705,10.934978858995562 m-8.791956739611532,1.727519753673791 l9.911841057436382,-1.2345446860841296 m-15.137340421305492,8.138127640589529 l1.244283684958227,0.2558698090719893 1.5194618903423642,-0.10008127076134156 l13.823291687562248,-2.5763116726349753 0.9081191433053795,0.3341491115000545 l0.3379604685963411,0.5723921723201358 -0.0513351931979106,0.7218475125450691 l-1.6181979610030808,5.3571593064815115 -1.6037808837819314,4.26037012596301 l-2.258285039503792,4.454293290920739 -2.6768254661586197,3.8761546572814223 l-3.039364983829576,3.3833068949987632 -3.365180216835334,2.3641008278922993 l-3.831252116931861,2.009064254697924 -3.4686333769605318,1.4114176513671102 m6.578218904405507,-19.12574657266495 l1.543123075315333,0.54138198699785 2.5527785273452097,1.7386823074862507 l13.842149167825063,14.152853847044563 2.3848266400603224,2.6403557640672393 l2.0708530458853387,1.813970493418038 " fill="none" stroke="black" stroke-width="1" /></svg>