<?xml version="1.0" encoding="utf-8" ?>
<svg baseProfile="full" height="108.44779499185437" version="1.1" width="101.81248038665701" xmlns="http://www.w3.org/2000/svg" xmlns:ev="http://www.w3.org/2001/xml-events" xmlns:xlink="http://www.w3.org/1999/xlink"><defs /><rect fill="white" height="108.44779499185437" width="101.81248038665701" x="0" y="0" /><path d="M25,25 m0.0,0.0 m8.0152254070131,10.038005161903106 l0.4503595541830112,0.1894825660075978 3.2268384070667024,2.059713107456889 l1.4911152689879237,1.2882723172202284 0.7785418279307256,1.064561260256926 m-8.959479317435246,9.501863294341733 l3.8395097308665918,1.9828572972863534 1.7530127810278013,1.296885403158821 l0.7202026860781036,0.8404732632001456 m-5.10072942635768,20.44479186379018 l1.0562868674971242,0.05982025984250397 1.026680067545306,-0.9267516720796133 l2.059398198729507,-4.189435426542474 2.192044323997021,-5.09281116365693 m8.601420204080021,-21.196171551754 l0.5331235507924429,0.7336953557853604 0.23753763693281907,0.9314854567098172 l0.001959747856633365,5.9826311722847825 -0.24508398231234788,6.44954955661966 l-0.677557141376772,5.688420271373023 -0.9018703930310635,3.9585279711597954 l-1.2787423658109436,6.662626799658731 -1.2049941869564595,4.477018758947345 l-1.5038341444986403,3.669232216251407 -1.6146184817171794,2.5330514526329653 m6.781252266963107,-39.42956183806945 l19.49159103774501,-2.7746372639946664 1.6208586071788968,-0.05370266766224302 l0.5528019241881673,0.26006425129907074 0.348399298748274,0.8555840984128001 l-0.32849577877500713,1.3132781119036878 -1.8990245394948764,6.81389431195494 l-1.391651748748889,4.564650232116205 -0.8384981897502948,3.1252892499066323 l-0.5406502405712613,1.7229880659754433 0.3967109374681833,1.1910056846245023 l0.9515944278891936,0.504182482441525 1.3190044983617784,0.22053580344298057 l4.304973226747333,0.08258742526578226 4.113679940881648,-0.25345013531079674 l1.1883399690746346,-0.3398005720020306 0.6516141615967689,-0.5367209357088745 l0.4238100314566332,-1.2255826332196615 0.1698237346092093,-2.0377501503561333 m-28.34664897868933,-13.344045114153541 l2.764377726025246,0.2119770494642765 11.060416876625094,-1.7872024324126075 l1.4242153944625229,-0.04074129055835988 1.3577541450561825,0.2102899917256175 m-9.070618877216951,2.695004232327656 l0.43122470581547734,0.6868233795573134 0.15125298436176524,1.2927369576436758 l-0.017416022114416247,21.537781381384423 m1.297838743459749,-19.704218414814324 l-1.1450026731480105,-1.1198044564713356 -0.8408416761489708,-0.35054469177035547 l-2.621315078372988,1.4560399875872203 -2.2477664214732824,1.1279590048676265 l-3.5977425576191493,1.6313053429844695 m-2.0687472995729927,-3.48668078258531 l0.44192540227534366,0.4553478739037799 0.1712016212315646,0.8526363020249114 l0.05038760166353387,13.725039959912971 0.23387036301005007,1.4242191473723924 l0.5210858578632585,0.6883288047350922 1.2555010228140153,0.50024897382487 l2.40470266020149,0.30741107904996046 4.437988718906661,0.04905051212691851 l3.0101181904381504,-0.33888213142643037 1.1958525228518342,-0.4060206716335857 l0.7611011779367661,-0.6623698493507749 0.3972455552419688,-0.9186930705655388 l0.13652048589408902,-1.642143587750083 " fill="none" stroke="black" stroke-width="1" /></svg>