<?xml version="1.0" encoding="utf-8" ?>
<svg baseProfile="full" height="102.85082370656298" version="1.1" width="96.28809417254959" xmlns="http://www.w3.org/2000/svg" xmlns:ev="http://www.w3.org/2001/xml-events" xmlns:xlink="http://www.w3.org/1999/xlink"><defs /><rect fill="white" height="102.85082370656298" width="96.28809417254959" x="0" y="0" /><path d="M25,25 m0.0,0.0 m8.355696289535894,13.68773124359776 l0.4883371337737115,0.1903796521628235 3.2659246913891913,1.932227366511225 l1.4380379161183687,1.1033868770076278 0.7486863362840499,0.9034436333737296 m-9.882152294591803,8.793505062756278 l3.96598289865341,1.9537753450887454 1.7655060737233863,1.4127498558612457 l0.7387529969991818,0.9111121891199155 m-7.075050387075923,21.44598322995595 l1.1850107398759642,0.5165292511276787 0.5549261168360037,-0.014623090301201068 l0.9202157170803441,-0.6357673936568631 2.459195582865168,-3.9855194566110934 l2.63851315718041,-4.873941559522738 m10.33491354713926,-29.321227399717248 l0.5963268402617937,1.397957515210201 1.9877017562511412,16.197632999403787 m-1.6326013393189713,-17.154538376608777 l19.375746456012745,-1.8272435572514218 1.2396992429046911,0.31709316617642674 l0.47045175851881393,0.7947410307200278 -0.01992631874969573,1.2765953512302068 l-2.710081512952561,15.094218774274516 m-17.810659152333425,-8.217296387898687 l12.688339059978366,-0.15273993326006696 m-11.465444475957813,8.368961771177107 l16.27929455385756,-0.9910798316680952 m-21.753549805070424,9.62542812356932 l1.9351895405859325,0.7261326946074446 1.835056997878018,0.06610338720941776 l21.268188802601635,-1.9697202073477034 2.1018652522951644,0.2456872679760225 m-15.342614797621623,-6.485081316626001 l0.6163110272534293,1.8545302747412307 -0.04430819724013922,19.581668824426323 " fill="none" stroke="black" stroke-width="1" /></svg>