<?xml version="1.0" encoding="utf-8" ?>
<svg baseProfile="full" height="103.1833141695634" version="1.1" width="95.1963172260341" xmlns="http://www.w3.org/2000/svg" xmlns:ev="http://www.w3.org/2001/xml-events" xmlns:xlink="http://www.w3.org/1999/xlink"><defs /><rect fill="white" height="103.1833141695634" width="95.1963172260341" x="0" y="0" /><path d="M25,25 m0.0,0.0 m4.242515528728002,7.7661317230563425 l0.4902036071660372,0.2431849653379336 3.2808764896231293,2.3782764646410173 l1.3634062812914922,1.4290451430104485 0.7673300765141858,1.2090681236800238 m-8.668062130421843,9.161538120548794 l1.5901805604301595,1.026872434571974 2.247479779944879,1.9097284289317125 l1.4743688635366883,3.0800804667515567 m-6.007592064040754,24.68842678407832 l1.1977644328781487,-0.019942091821830814 1.225445392826462,-0.9925539332550678 l2.497496723997439,-5.082981213813249 2.546475085960476,-6.219209691786381 m4.164519738414832,-16.025247641227402 l0.6749115582392773,0.2905516691184587 1.5719015549617648,0.08780864231773435 l12.82133831488287,-2.082664137904762 2.118965001650417,0.05854224408104931 m-8.644980637920591,-14.345619826957618 l0.6130974433443641,0.8784149833374552 0.3508521704487316,1.867056096435334 l0.038519663486990485,26.221079292609588 m-7.427901118547387,0.7495831527064846 l0.604324450125479,1.5947354377338558 1.4155480252621333,13.311408533381645 m-1.0485043841981823,-14.09745904783183 l10.9941847680088,-1.9384028667591198 1.365746933355757,0.0603039081428922 l0.8370365298508978,0.28839645933695474 0.5321514757653908,1.0059773989235903 l-0.02349163077214086,0.7960519295961574 -1.4498385122154158,9.103396100334313 m-10.980467999974103,1.7983303549380203 l11.893831194118693,-1.5567125939249518 m5.827835695628869,-37.23985887605221 l0.5790828556332219,1.8907322243837636 0.0347471667290373,28.225276939305175 l0.14644328149418803,2.308731059557636 0.14024536442128957,1.0182345727307776 l0.27806723007319556,0.5782343538842575 0.5215095304681376,0.33384764108456544 l0.7696040311378728,0.20549329753717901 0.9412201520838316,0.1296991874847265 l3.171601336258089,0.058968465264483794 2.295521794045898,-0.33021812071148365 l0.9552959027566038,-0.6579797136381083 0.6105257941713391,-1.2563415744593702 l0.2549839244094461,-1.9317852453855295 " fill="none" stroke="black" stroke-width="1" /></svg>