<?xml version="1.0" encoding="utf-8" ?>
<svg baseProfile="full" height="104.93125103619232" version="1.1" width="101.31511751370886" xmlns="http://www.w3.org/2000/svg" xmlns:ev="http://www.w3.org/2001/xml-events" xmlns:xlink="http://www.w3.org/1999/xlink"><defs /><rect fill="white" height="104.93125103619232" width="101.31511751370886" x="0" y="0" /><path d="M25,25 m0.0,0.0 m10.163023657747223,9.528856463373732 l0.5192234835349517,0.20089682785194965 3.4144439888050986,2.0048075690263545 l1.5338486665354916,1.2235776717318636 m-8.908291994715938,9.16983015560558 l4.038383250890362,1.8794087286088101 1.826007748014545,1.3782831522958945 l0.7611225518675109,0.8705932159509896 m-6.848173523977891,21.690327551257415 l1.1168324596213752,0.49538468360126486 0.5350830481411823,-0.01821260700953604 l0.9026507510668343,-0.6241000100280008 2.3664303059589926,-3.9423992583314704 l2.557185136387211,-4.942167581117809 m17.755316181668555,-30.370825817384087 l2.6793214351279504,1.4834348544593905 1.5100005659588969,1.397344518373282 l0.6336937124970746,1.091621627974035 m-15.439998189150536,4.152639674154844 l2.0552426919063067,0.2386521021732873 2.679346022067675,-0.16703737146227207 l20.215464333823057,-2.1143104635822163 3.451006440050864,-0.13294453913074253 l1.7979547898820554,0.27437820926637774 m-9.50864511879286,2.759599739008213 l0.16690154320746906,0.7394603705164728 -0.23089151343073094,0.9879124334692088 l-1.1643844011828102,1.7134697928064742 -2.6724821943866797,2.953239128620543 l-3.1175137531064934,2.652612244856886 -3.573954239804985,4.158628236537247 l-2.7745552361271586,3.1184835612024324 -2.850691858389143,2.8314110139210618 l-3.179380574031066,2.7431740251890573 -3.6423889998817565,2.6661699167420703 m5.758680675704833,-19.965314552747305 l1.8306132453056605,0.562729453548358 2.561851634499929,1.591431118095298 l12.543942241046263,8.664970987390754 7.30494480070444,4.810221884094726 l2.4703855044327496,0.953396848636673 m-28.482512524753627,2.8741080485436474 l0.5589432874966711,0.7984078185511246 0.562586475347247,2.362883533109361 l1.273206268676062,10.186216076441088 m-1.4787674467631111,-12.581029918881818 l8.989979561433014,-0.9719034429406734 9.973414054742088,-0.9638386407664873 l0.5818154406161212,0.1838299446573608 0.427119497433906,0.3791125389327944 l0.2969800478390012,0.945343229211613 -2.2745859280741345,10.702373810312046 m-16.387039679452666,1.3113524818636684 l17.436217328212887,-1.255281876965652 " fill="none" stroke="black" stroke-width="1" /></svg>