<?xml version="1.0" encoding="utf-8" ?>
<svg baseProfile="full" height="92.88729017844668" version="1.1" width="109.63771049168491" xmlns="http://www.w3.org/2000/svg" xmlns:ev="http://www.w3.org/2001/xml-events" xmlns:xlink="http://www.w3.org/1999/xlink"><defs /><rect fill="white" height="92.88729017844668" width="109.63771049168491" x="0" y="0" /><path d="M25,25 m0.0,0.0 m16.582310441817697,4.327024478737157 l0.3967520566510768,0.23663912191185138 2.459696652385488,2.3497049369874503 l1.556089646493987,1.364137841720872 m-7.0074706818171215,8.811814275321662 l2.975204511802765,1.9671731608426037 1.420953235181819,1.4812206075972283 m-5.730482849051813,22.188178684927458 l0.8799597417689511,0.08192769150403029 0.7409261988311774,-0.6940265212922272 l1.9921762488210328,-4.489017432611107 2.003009685665911,-5.254253547925012 m6.839351546473784,-23.20532523700893 l0.4227161927657371,0.18072474807520392 1.1294714663078902,0.07562861520772385 l10.065728845911588,-1.2730768435862296 1.2634719684222333,6.85074121132741 l-0.7814539567443274,11.510906525544193 -0.8537723251660718,2.1096733308581768 l-0.9342046690027264,-0.022389510622737585 -0.9365169062258323,-1.5847795900711237 m-1.1677180644069896,-11.761270324521256 l-0.08302699734108156,1.3107238283121765 -0.37265404781457,1.9611724711266467 l-1.5073372639501166,2.532633539624637 -1.8570991171909113,2.1032687501825307 l-3.2463948312416466,2.4922440986051795 m3.21140692212879,-12.492234557969137 l0.25945218876099174,1.0734725932191276 -0.3021389466475325,3.3499578308461233 m14.931288880838922,-15.977637035445433 l0.40218244026363215,0.1831618438754209 0.35749779803520915,1.127853245220654 l1.0674882059374236,7.722672278403345 m-1.032006037947514,-8.33825788989222 l9.297316999220872,-1.4000336470736876 1.1807873604322645,-0.025821354264027586 l0.9001662754072149,0.2755944860691494 0.422280855896251,0.89361311444793 l-0.06777119598020319,0.6471523158936147 -1.2703320562706144,6.236535611670832 m-8.862895531389302,1.3757321269845826 l9.418122885830668,-0.9874445803323778 m-13.363389316775704,2.882782869388835 l1.6978951999753726,0.8198510631755426 8.254437557445701,1.0038006932756005 l1.6775693661214057,3.0090401449839996 m-18.131793786514976,4.259828137581028 l1.3390417393694576,0.27247620388327276 1.7677885505564754,-0.028888786108780044 l17.97618430962713,-1.7688649510956005 2.2574430980150426,0.24208713129395765 m-21.100742833786498,2.192377804229883 l-0.07069316441737299,1.2185304125604082 -0.5580337543337173,1.3326232704603913 l-2.408657015485216,3.518058281241352 -3.125515908761545,3.4158048351328234 l-3.5853877852635265,2.8010029484479557 m8.98699684575124,-7.585760200412419 l1.8231734912773594,0.7160385927544811 13.174553522677087,1.109699769453348 l1.4837176230364775,5.028482113703016 m-18.341510372512584,1.4721879644701377 l2.2076952861788826,0.210154706628473 11.625255944287268,-1.1356266486644866 l1.9426087654258244,0.08519477366647461 m-18.553673134163112,-5.544147003494695 l0.4040587916327737,0.44976360765980483 0.3057596622461845,1.016395301028402 l-0.08904728659421887,11.814724002480888 m-6.8679401306763515,0.4213069666762513 l1.8238313782583162,0.34265088161689244 22.154199200832625,-1.5575154719112707 l2.041818111955427,-0.026369038463163064 1.7340384343941335,0.289996484856154 " fill="none" stroke="black" stroke-width="1" /></svg>