<?xml version="1.0" encoding="utf-8" ?>
<svg baseProfile="full" height="109.49251428246498" version="1.1" width="107.37426500185393" xmlns="http://www.w3.org/2000/svg" xmlns:ev="http://www.w3.org/2001/xml-events" xmlns:xlink="http://www.w3.org/1999/xlink"><defs /><rect fill="white" height="109.49251428246498" width="107.37426500185393" x="0" y="0" /><path d="M25,25 m0.0,0.0 m4.846939742565155,2.9165950417518616 l0.574565939605236,0.2439488098025322 4.437002539634705,2.806878983974457 l2.031698226928711,1.8545635044574738 0.8205865323543549,1.1695041507482529 m-12.286871671676636,10.983048677444458 l2.575533390045166,1.1967821419239044 2.6659995317459106,1.6881327331066132 l2.1221646666526794,1.7540834844112396 0.85304394364357,1.1030353605747223 m-8.126792907714844,28.28632354736328 l1.377369910478592,0.03979490604251623 1.1757192760705948,-1.1004457622766495 l6.640310883522034,-12.192261219024658 m26.805710792541504,-40.74998378753662 l0.6462140381336212,0.9461001306772232 0.2606954984366894,1.108732670545578 l-0.015953570837154984,6.268258690834045 m-17.999383211135864,2.057940512895584 l1.2941545248031616,0.34753642976284027 2.1024832129478455,0.06524940486997366 l26.52153491973877,-2.8087347745895386 4.627603888511658,-0.26052553206682205 l2.480577975511551,0.3298617899417877 m-35.070621967315674,3.1683996319770813 l0.6418979167938232,1.0476160049438477 0.20337700843811035,1.4005045592784882 l-0.395413339138031,7.490074634552002 -0.9898658841848373,9.0093594789505 l-1.5248095989227295,7.885088920593262 -1.8369534611701965,6.241498589515686 l-1.8117472529411316,4.495702087879181 -3.0848389863967896,5.567488670349121 l-2.8776636719703674,3.733297288417816 m14.31995153427124,-37.766661643981934 l2.842443883419037,0.1992334984242916 25.11585235595703,-2.505568265914917 l3.920445740222931,0.24862103164196014 m-24.50744867324829,-3.8037368655204773 l0.8343981951475143,1.4522983133792877 1.0890564322471619,14.226118326187134 m11.966440677642822,-18.198270797729492 l0.6151377782225609,1.095266342163086 0.10611794888973236,1.0686788707971573 l-1.414359211921692,12.395638227462769 m-10.5576491355896,1.965402215719223 l11.908776760101318,-1.3435743749141693 m-18.131974935531616,9.016265869140625 l1.459549367427826,0.2784780226647854 1.6870968043804169,-0.10175864212214947 l16.399816274642944,-2.7579769492149353 0.9550777822732925,0.057879574596881866 l0.7099203765392303,0.45302312821149826 0.34943554550409317,0.6784988194704056 l-0.12663585133850574,0.7340908795595169 -2.0817656815052032,3.3210188150405884 l-3.165637254714966,4.124167859554291 -2.6359593868255615,2.8603991866111755 l-3.8189300894737244,3.4957364201545715 -4.1138094663619995,3.126964569091797 l-4.354822933673859,2.7488699555397034 -4.539209008216858,2.36214280128479 l-4.66696709394455,1.967819333076477 m8.795278668403625,-19.181662797927856 l1.8773527443408966,0.501730889081955 3.1283456087112427,1.7589175701141357 l16.483551263809204,12.110081911087036 4.111047089099884,2.6380309462547302 l3.130072057247162,1.4980494976043701 " fill="none" stroke="black" stroke-width="1" /></svg>