<?xml version="1.0" encoding="utf-8" ?>
<svg baseProfile="full" height="109.37308345747036" version="1.1" width="93.37731686847016" xmlns="http://www.w3.org/2000/svg" xmlns:ev="http://www.w3.org/2001/xml-events" xmlns:xlink="http://www.w3.org/1999/xlink"><defs /><rect fill="white" height="109.37308345747036" width="93.37731686847016" x="0" y="0" /><path d="M25,25 m0.0,0.0 m12.797814942895169,3.9036483304633616 l0.44140774537134414,0.1952670290001918 3.0759998807864752,2.1603955099598573 l1.7568528814156825,2.0722266198110604 m-8.50362670396076,10.052104237158877 l3.518794597599389,2.1559589227656333 1.5707024328489643,1.4769613513181847 l0.6751092916887766,0.9586024583719124 m-5.4455279498299936,23.550900509894166 l1.0492887006343083,-0.013339299218668992 0.8080631632116375,-0.8300156908843701 l2.1993956350077783,-4.532992542158563 2.2709656191607426,-5.806258459323056 m16.17682586042185,-33.52845099520335 l-0.10362414680188126,1.5877658619978843 -0.33613344866840755,1.3752093005471926 l-2.0384113545029314,4.693191624637123 -3.1812948335169793,5.0709078883252685 l-4.247840053943974,5.266194171752144 m8.201796940421199,-9.507807294706806 l1.7698707021494264,-0.3202458429971679 6.9538287608075855,-2.7658407245949865 l1.265913024912903,-0.13721703525013476 0.535565826110586,0.322599563877657 l0.27610859165265367,0.5446411086834787 -0.5498639828514795,1.469903323284996 l-2.0137404512824912,4.287578842208908 -2.190338266682301,3.904008578245271 l-2.499260807698135,3.8885529093835536 -3.0424773948028743,6.503986084662001 l-2.0802091909636267,4.302964091989321 -2.165216770707179,4.1643464814485 l-2.3396149764122773,4.0642805045623 -2.4743210046569644,3.8801397765994436 l-2.6812489398998443,3.6707823373305275 -2.3219212319906744,3.272750605844621 m5.87233381957483,-25.182788231083446 l2.691338745956006,2.4017082200385533 1.3699778001115561,1.6890775802495095 l0.589658368474075,1.247026848961075 m3.060053756896807,3.7973969038378574 l1.2555622474292676,1.3921656832167764 1.2108921097024599,2.298718410032298 l1.1282626938183067,4.496539480648029 m-13.283626755737222,-24.62077362544039 l0.35245179709169133,1.3412762001993097 0.10193379661450942,1.9826224639800905 l-0.10339819271269261,32.874042278648744 0.19604292961157932,2.759690411033942 l0.2288691020757923,0.7297528478404921 0.7578529393953434,0.5225324604996437 l0.5017456399974741,0.08699176768764014 16.517160467013323,0.1120480791427927 l3.800572515233355,0.09135553819107842 " fill="none" stroke="black" stroke-width="1" /></svg>