<?xml version="1.0" encoding="utf-8" ?>
<svg baseProfile="full" height="108.56381268078758" version="1.1" width="98.51016551474505" xmlns="http://www.w3.org/2000/svg" xmlns:ev="http://www.w3.org/2001/xml-events" xmlns:xlink="http://www.w3.org/1999/xlink"><defs /><rect fill="white" height="108.56381268078758" width="98.51016551474505" x="0" y="0" /><path d="M25,25 m0.0,0.0 m20.57532703503983,3.9194316687986546 l0.060769903133710904,0.48195717225999607 -0.1872952055059088,0.9249825265685825 l-1.3899395069772331,2.0876985547935782 -3.751830270588528,4.11012297424269 l-4.397681111084253,3.612805090507776 -5.245079956865509,3.0862697509019 m1.836283827975092,-12.206709151882347 l1.7253605541140786,1.3744791236739011 3.1073070007616264,3.121633647242977 l1.2475103855038046,1.706362083166928 2.106530159967518,3.6806141809733703 l2.1641137325107485,6.045691498011923 1.0851836552693266,6.22070093150097 l0.18148150765317353,3.986907082750551 -0.20107975704728265,3.7572212721367446 l-0.536450367280845,3.432585370031758 -1.3125923875136094,4.312407281071426 l-1.7806034161892794,2.9030298245452437 -1.3107326108166955,0.9691154706576286 l-1.3978181640351832,0.1564593317934088 -1.4701727696392435,-0.7942337098442775 m4.934952055681919,-25.428096463635192 l-0.04006274571601924,1.383447878835909 -0.3706502903213201,3.246065716684009 l-3.0055595260038324,9.754892918956171 -2.320611240577212,4.8507489129799986 l-2.464466709834551,4.391618854862148 m25.615427610624888,-32.274104117280615 l-0.051506459891676945,0.7460810373172552 -1.2320657885798307,0.8525552153600432 l-5.114274188590315,3.452534449048857 -4.299351726106109,2.5171559404258983 m-1.6876768428837636,-0.3476413889071033 l0.5781582074211294,1.6566231399215319 0.03719797531125483,5.831385439670551 l-0.22221603612214536,10.672736830004554 -0.5469442736213943,6.785372642205963 l-0.8547246233846303,4.406176503536503 -1.0697741747488791,3.1751743578174705 l-1.399281695454469,2.7784871325723524 -1.8200808903092305,2.370511539039976 m22.309823322677175,-36.85781167945882 l-0.03518641176159227,0.9284674523872135 -0.43982593908009626,1.3943433158202658 l-3.611440777130306,4.870527013740304 -3.779487382714769,4.037506725423173 l-4.183972790840951,3.0941840592727288 m13.608760832666082,-0.02881453164943385 l-0.006739399893437811,1.309766116489737 -0.610195254960272,1.5312057585139918 l-3.8074250692905807,4.9818262771666175 -5.020817082124418,4.445574073846079 l-6.096241164870673,4.102480527735951 m24.40783175678974,-6.081474252752999 l-0.06512489828746283,1.3242951319507583 -1.3604697955189193,1.5016824856623867 l-6.066025129068266,2.5355912991191065 -8.89709133823809,3.8587394404149458 l-10.660483988049366,3.904464953785925 " fill="none" stroke="black" stroke-width="1" /></svg>