<?xml version="1.0" encoding="utf-8" ?>
<svg baseProfile="full" height="100.00491600720781" version="1.1" width="102.34718192780349" xmlns="http://www.w3.org/2000/svg" xmlns:ev="http://www.w3.org/2001/xml-events" xmlns:xlink="http://www.w3.org/1999/xlink"><defs /><rect fill="white" height="100.00491600720781" width="102.34718192780349" x="0" y="0" /><path d="M25,26.93751081490859 m0.0,0.0 m9.962149730032564,3.6950679890450453 l0.48635639825620514,0.22835850920406467 3.900282039554167,2.5034503804235153 l1.806594458916484,1.5793098109254662 0.7094708275157988,1.0062618522230404 m-10.90641788803231,9.75212383784355 l2.048089158909342,1.0939195830656658 2.2832417594684298,1.5803404314281506 l1.844864663885017,1.6832747386193394 0.7314434865661148,1.4298972678728123 m-6.873931794420203,23.4506385550535 l1.2442454831937837,0.06476223659506786 0.9208477823868655,-0.9342172190340501 l5.609486752488843,-10.612345210038017 3.9176253938462904,-4.921346138455167 m19.832448952342094,-33.53700743968057 l0.9187573610889489,0.9730542150210902 0.31818032932257295,1.5181806202109194 l-0.06278076277730205,12.846976681860504 m-14.168600531355127,-8.765284715084817 l1.497472976947984,1.077942608226753 1.817963190551094,1.8081822756776673 l1.2290580534445406,1.646058811272178 0.6529046212745477,1.3306357725576048 m22.627429484396753,-9.286057998658496 l-0.20013953590510594,1.4195560821940496 -1.1834249879833534,2.0831200768274254 l-1.5865984529481714,2.054913947403593 -1.9228506756788335,2.062178348048353 m-19.350752639677022,5.179306075372097 l0.7512295838253907,1.0043993089081493 0.3095629527119391,0.9088904780076442 l0.06701558718187808,26.20009653390389 m0.6317914376655822,-27.073126204705428 l17.47967759279263,-2.1420705395587274 1.477769821957891,0.11454677894122428 l0.9549685386328102,0.6764439003740794 0.42478332502945443,1.72671935975804 l-0.11148711181898067,25.714159732969666 -0.3261587115888608,0.8926008094260242 l-0.525138218933007,0.33931048721851353 -0.6722526907988231,-0.10845931128157187 l-2.860770086417912,-2.317617975800498 m-15.033836900897851,-18.48998860596384 l18.840598137815178,-1.6962290019511943 m-18.722139113573974,9.428580700080373 l18.38827591950669,-1.7054053468387789 " fill="none" stroke="black" stroke-width="1" /></svg>