<?xml version="1.0" encoding="utf-8" ?>
<svg baseProfile="full" height="97.61461900944812" version="1.1" width="105.12914861214264" xmlns="http://www.w3.org/2000/svg" xmlns:ev="http://www.w3.org/2001/xml-events" xmlns:xlink="http://www.w3.org/1999/xlink"><defs /><rect fill="white" height="97.61461900944812" width="105.12914861214264" x="0" y="0" /><path d="M25,25 m0.0,0.0 m11.580176878312832,9.023658726007843 l0.44306048427760525,0.19777034919600067 3.177895944815221,2.1322366969686466 l1.3042162058611018,1.2636800044941932 0.6407746704829006,1.038520087588155 m-8.041833630036422,24.05821947340796 l1.0246881653106825,0.1614289400473775 0.4120920283363578,-0.17691706299679597 l0.8111347488024309,-0.7745694032797587 4.150599242076293,-11.562703031246146 l3.685379183571725,-7.8563420303291585 m6.285695946920097,-12.37828928775819 l0.3551226768593795,0.6901016764963602 0.6467451783640772,3.0964674454009447 l1.118385014483885,9.41886131350319 m-1.2128789071909212,-12.693628136716574 l18.314536990670028,-2.1810653458399956 0.7069254991200475,0.018260223642147244 l1.2051413619498619,0.3833236742309508 0.5995570885259515,0.8203277578164281 l-0.026344108252628687,1.2202664749208465 -2.2299019970857685,10.905869498601385 m-17.95507807587271,-5.5238735917734925 l10.931715268807537,-1.3736773616997473 7.960725833372555,-0.6704919684808919 m-18.24338739527228,8.126821481817643 l17.068874041259637,-1.731652842836738 m-9.837560733969305,7.808888117268669 l0.41961857145788967,0.8410919884692575 0.06082650450979198,0.9077317858733303 l-0.018087650923295114,4.41921890888153 -0.3038654990035133,3.8954649393680643 l-0.95634605291895,4.161599256084119 -1.4310320924731312,3.1406102144262986 l-1.8304141854688294,2.391848318365258 -2.4151534536500496,2.0341979454661403 l-3.101695348278473,1.620767558393354 m15.962326287494818,-23.45815557131031 l0.5311166269069524,1.0588077770697013 0.13602510365466872,1.0764759219695015 l-0.007914335268743392,17.773430262807697 0.27693227593082154,2.059444115208835 l0.42435390438244336,0.9435907255247951 0.8224402464273487,0.6699006216899123 l1.8211248310291217,0.47585451078149166 4.002229445731047,0.16124785192790414 l2.834189032619428,-0.2683768558458774 1.2772588082385035,-0.3770085079378295 l1.1427144203751636,-0.8446015406197771 0.4805774867879029,-1.334501244399587 l0.12546608008155588,-1.949060206339715 m-32.867369137459264,-14.643961228090527 l1.7356685807071548,1.4164364456167788 1.6930882135273109,1.7606576614169607 l1.3371205121903431,1.777442073555403 0.7156468784638068,1.4854319451364284 m-7.7833534370653235,8.736101928904274 l1.132770806687587,0.2359502141522029 1.1218908545946715,-0.1659229153476805 l7.333749373607836,-4.984154865545436 m18.07356172458044,-11.085345632888608 l-0.08617546896588504,0.7493235419987654 -0.4042856064582301,0.7909365787358444 l-3.822312286704615,2.132302644053767 -3.8199831311806363,1.2448310217100604 m0.12417298622041692,4.211786806378373 l2.240407298203797,1.5305203255031559 2.6013451510584704,2.3703955942894313 l2.346674021323671,2.6679551979755467 1.0775369165439606,1.764892273630011 " fill="none" stroke="black" stroke-width="1" /></svg>