<?xml version="1.0" encoding="utf-8" ?>
<svg baseProfile="full" height="105.92560048146676" version="1.1" width="97.88990581510953" xmlns="http://www.w3.org/2000/svg" xmlns:ev="http://www.w3.org/2001/xml-events" xmlns:xlink="http://www.w3.org/1999/xlink"><defs /><rect fill="white" height="105.92560048146676" width="97.88990581510953" x="0" y="0" /><path d="M25,25 m0.0,0.0 m13.016232117476164,12.99123275102102 l0.43117805558573613,0.2017965192239385 3.2031390729010165,2.1463575603850695 l1.418298972763714,1.346466255266356 m-7.7587891823006245,6.484825643671176 l3.6339877283300748,1.7506545620629237 1.6000370063034346,1.2179975408035564 l0.6793256165951528,0.7498068408800803 m-5.9221118267834205,17.094798097779364 l1.0105985795004098,0.4327447682835117 0.5020328126535867,-0.012688796750955422 l0.833895442219692,-0.5317565173751293 2.1399421692814244,-3.322211545645614 l2.2364323647194073,-4.242251881024412 m8.490988466106074,-22.888823845494823 l0.5179598717136876,0.21969547372268058 1.1611219092651641,7.67963159192437 m-0.8158702821386787,-7.509184094048232 l12.864836859677759,-1.3569058365171005 7.670946117423094,-0.43203391033325506 l0.8421387429615088,0.5465887715360663 0.1335852008551431,1.1519374742107087 l-1.712062101307832,5.707469928585387 m-18.962591703511478,-5.8135802113346955 l0.5103045793643001,0.48068768852248095 0.9418370154828511,4.290260382828292 m8.897331036398631,-5.314245391494601 l0.03147346506661968,0.7001643188017471 -0.8091414496368899,4.4210696836568735 m-14.014631907194339,1.379406161502696 l20.899995890091038,-1.3892693009567272 m-18.344265481852542,5.871424365391116 l1.6548442542758284,0.20375342850290845 11.324849818328344,-1.2829792994312756 l2.3849203927504443,0.05747486323523185 m-7.946579379291667,-3.1944764887387356 l0.4627732962217045,0.5780610449365781 0.15986336313921648,0.6212110777348814 l0.018245881334866675,6.671030310711597 m-11.972395198562928,0.9584324953958414 l1.9820532949027752,0.2491581200266433 19.597063931520445,-0.06303027623444744 l2.0796037764951154,0.18816894323474914 m-18.295824829804108,1.1329075516840121 l-0.08035379512182342,0.670808695382879 -0.4356729929226578,0.9786666772707695 l-1.908761298616865,2.344792677149169 -2.542965420030081,2.1653470447346574 l-2.9296435319586256,1.721050644626233 m17.23853684248188,-9.23712258990044 l1.5862399651472237,0.7666638372434431 2.246722137159427,4.119210482884673 l1.7742923920533071,1.3611853004830328 1.2310570373234215,0.4510510940139766 m-19.32745550969756,-0.5062027314369311 l0.2061778547979727,0.12629891191011158 0.30151053977906894,0.9136360362830598 l-0.022330821453434412,8.872547002422445 m0.33601318866806296,-9.759096565789568 l10.97948386439291,-1.124417614033009 1.274974673122854,0.13684765256944348 l0.31813242069798825,0.28303469194552905 0.2148272775816012,1.0096710200239183 l-0.04238422158508759,10.121330998095912 m-12.679185401738255,-6.802625336282155 l12.139818267090442,-0.8993667824584534 m-12.18420457004282,6.075605429088907 l12.370548531396343,-1.0318407865905115 m-12.390849438874982,4.546014038816188 l13.126344707016608,-1.0624909006881056 m-11.069373260640134,3.0449031242758697 l0.10528492957912587,0.7016129092708607 -0.20127484265496878,0.5472656097965699 l-3.9824440852306187,3.9505229435023215 -3.041223555936378,1.2689201467141098 m15.593356294339952,-5.4513550788120755 l2.125387335370008,0.8973381252875675 2.5820662131032317,1.4756218642566645 l2.061571738975928,1.5738826991422865 0.9633393993299838,1.1300697552095662 " fill="none" stroke="black" stroke-width="1" /></svg>