<?xml version="1.0" encoding="utf-8" ?>
<svg baseProfile="full" height="96.374227523605" version="1.1" width="101.96209134802115" xmlns="http://www.w3.org/2000/svg" xmlns:ev="http://www.w3.org/2001/xml-events" xmlns:xlink="http://www.w3.org/1999/xlink"><defs /><rect fill="white" height="96.374227523605" width="101.96209134802115" x="0" y="0" /><path d="M25,25 m0.0,0.0 m15.723000693966847,13.542311773434372 l0.48709224908053295,0.10729614444171526 2.9104228131965413,0.09890121441292175 l22.015799962938136,-2.105387328571748 3.4280810962968835,-0.1260237803114113 l2.3582036239752715,0.2644058224339077 m-33.46695272333918,12.741581362328006 l1.6195669287094956,0.30920604033126675 1.6880540820967849,-0.01653149078130974 l25.00095720566773,-2.6493728514005124 4.259289449061156,-0.27775657552892213 l2.2633292911348217,0.23708377223841304 m-18.528015333352677,-7.514137027124088 l0.6141084948692597,1.29971799397873 0.16069973207618593,1.0875508140807462 l-0.06609303783742208,29.375381639642917 m-1.2164839245380272,-23.592966939719407 l-0.23802988537636752,1.379829930874274 -1.3220116704648734,2.305229437818245 l-2.416631861727702,3.2449704504100487 -3.071422749025613,3.239025295727376 l-5.859665807855185,4.900691077291606 -2.9266145758582587,1.814012155448369 l-2.8662191465166758,1.406517680171111 m21.49061661249341,-17.423421893133888 l5.607452462042489,5.3360937062712726 7.220603655685298,5.863297898939469 l4.219286411916119,3.090744019401055 2.8736672987061667,1.3031759238232832 " fill="none" stroke="black" stroke-width="1" /></svg>