<?xml version="1.0" encoding="utf-8" ?>
<svg baseProfile="full" height="99.28752674319931" version="1.1" width="101.76147047229523" xmlns="http://www.w3.org/2000/svg" xmlns:ev="http://www.w3.org/2001/xml-events" xmlns:xlink="http://www.w3.org/1999/xlink"><defs /><rect fill="white" height="99.28752674319931" width="101.76147047229523" x="0" y="0" /><path d="M25,25 m0.0,0.0 m16.702418110020727,3.2865472183092685 l0.4778534983014847,0.12829533287099576 2.995437801324611,0.18375517511038109 l25.171713253236778,-2.7283211860873 3.998069667255039,-0.17165832974448017 l2.4159781421565993,0.34591725697397296 m-37.08613852765978,3.502942004241543 l-0.08466491763509047,7.88040917021507 -0.47223450014353885,7.004508147297163 l-0.8687776692397676,6.236389434805183 -1.1989467171847445,5.479358895357517 l-1.6654969615974085,5.239957748246331 -1.691791748758788,3.827375950494097 l-2.06701383090243,4.79186337620149 -2.190372471929074,4.2801865489080795 m15.942439130028935,-36.733869564205186 l0.5359785467619488,0.23195970399502697 1.5064732377208239,0.03931517241281274 l16.49104367488247,-2.8036346943481982 0.6984987537590462,-0.12958230222726402 l0.7797752741843748,0.6144466746779266 m-10.853972327772908,2.4306079781801433 l0.13976539139397498,1.3928285361205308 -0.5990964766499329,1.687852354959876 l-2.515733809490846,4.548789319790979 -3.593923296825817,6.299541537745363 l0.2844484278805926,0.45251369761954463 m5.3370828252579035,-7.336654375526404 l1.5131723741719838,0.8241466013634342 1.592176096332119,1.4702429051594061 l1.5404271356964834,2.927894291104672 0.9073511322679682,3.436910987404138 m9.00544141294957,-18.40340744215728 l0.020454500175015017,0.5053825714809276 -0.2840930107166238,0.89341393752324 l-2.0737242831784912,5.267998186714022 -1.8796759587183727,4.226302054350163 l3.4942689753875045,0.47354635719328547 1.9191685144502704,0.9414133583123748 l1.3451213864899882,1.1638898718518438 1.284727257774926,1.6360014142198893 m-24.586910119951295,5.627024282861844 l1.491543049282244,0.23256380510513924 1.9987326642906749,-0.05702377651992835 l16.174143411105756,-2.0422030199552847 2.794144526753566,-0.12765150547418144 l2.1512691125854895,0.26844155762411764 m-13.25888099893493,2.452253827915364 l0.4584722714285522,0.6620746491443741 0.258369607294634,1.024952064206376 l-0.0026833439713802158,12.71306688031281 m-10.945050480321452,-7.175547397915031 l2.0777529327911433,0.2403453769446174 16.898211252747366,-1.7923134441882878 l2.6191925770382394,-0.0545069130177679 m-27.196040108872772,10.250766398587078 l2.6064046730351103,0.2949099284341587 13.657971733564048,-1.766682938801643 l10.941056811968581,-0.7193206975911104 3.41675458105045,-0.07081595253467438 l2.492647855366529,0.4793162538836266 " fill="none" stroke="black" stroke-width="1" /></svg>