<?xml version="1.0" encoding="utf-8" ?>
<svg baseProfile="full" height="106.67501641318842" version="1.1" width="108.6802560167136" xmlns="http://www.w3.org/2000/svg" xmlns:ev="http://www.w3.org/2001/xml-events" xmlns:xlink="http://www.w3.org/1999/xlink"><defs /><rect fill="white" height="106.67501641318842" width="108.6802560167136" x="0" y="0" /><path d="M25,25 m0.0,0.0 m10.426849004369585,3.975742141029236 l0.500934118694151,0.2262641777877697 3.8463424358133635,2.6036161826584614 l1.667836916481186,1.519229761290461 0.8754844144209001,1.242106518333725 m-10.863502514019592,9.333625530886138 l4.469167577561639,2.2232060229812514 2.0501434051632748,1.564353788238663 l0.8155748701034228,0.9671499152191788 m-7.956756806593509,27.930467122797022 l1.2406157161710407,0.6132835097134405 0.596229185307049,-0.01499442559052369 l0.983423307096638,-0.7707108838597416 2.614433262825629,-4.818883703590223 l2.7187787183370205,-6.108116090178647 m23.69289679258378,-39.77315338323548 l2.4118034387647134,1.9628490350754224 1.6440053892316797,2.5036932201184126 m-17.185366325235332,3.4701352430906804 l-0.588268867872654,4.507486854550373 -1.3138913626792086,5.353021255302558 m2.0685559753802423,-7.567987679012147 l23.341304065965417,-2.457946448085846 8.549279192783965,-0.6900880654113597 l1.16845955753462,0.11380566024969545 0.6788457845159049,0.3620352313574915 l0.22707876400866087,0.558593988022282 -0.6095361224764679,1.5081750207568805 l-2.51119581881232,2.5526550162859296 m-25.444148112452847,4.371972200506598 l2.051038258987699,0.26305730186649 13.853670788974656,-2.0134898522609035 l2.489989750399949,-0.14805292015281915 1.1565264979086183,0.22427184087939958 m-22.60384533954256,8.972236243742945 l0.5694603524820608,1.2077610263352427 0.5713393539625868,3.3923392763574376 l1.209693599223917,13.300076255292725 m-1.2684911729696617,-17.066515473435267 l23.642255101532882,-2.084846091205742 2.1855426100303834,0.25388723890396137 l0.51025064249066,0.37361742973155676 0.3430628494463246,0.9665048585682607 l-1.333423243391772,9.302735737258859 -1.390292796517843,6.240218812488073 m-12.516352810913373,-22.681075636783625 l0.6542446634909558,1.493559406193143 0.08561153437149242,20.33888285753959 m-11.11022696940029,-7.114172320854217 l18.265028185920062,-1.54210829230674 m-17.440044033464172,9.515535796401334 l22.07540468841675,-1.4020295128008236 m-18.388106288504904,6.924701913634285 l-0.06312567775385242,1.0328521488423859 -0.4648854804873496,1.0052013185750706 l-2.3613857298427874,3.0533944349987405 -3.2649898720586257,2.9383781604873596 l-4.133590406278984,2.6665077376039803 m23.810443238999284,-10.762512084123426 l2.680691771941504,1.6921014726012051 3.3937682628986177,2.881436618026374 l2.8112618789324726,3.1129064372075907 1.280453015074845,2.2132872586286356 " fill="none" stroke="black" stroke-width="1" /></svg>