<?xml version="1.0" encoding="utf-8" ?>
<svg baseProfile="full" height="102.87539334572298" version="1.1" width="106.62967120328145" xmlns="http://www.w3.org/2000/svg" xmlns:ev="http://www.w3.org/2001/xml-events" xmlns:xlink="http://www.w3.org/1999/xlink"><defs /><rect fill="white" height="102.87539334572298" width="106.62967120328145" x="0" y="0" /><path d="M25,25 m0.0,0.0 m10.236685347262435,9.78326007379136 l0.4804097058056046,0.20808637296035232 3.4590157545299682,2.196849255339325 l1.4358449415865564,1.353327041539765 0.7040453701563573,1.1001083625008465 m-8.659366657404298,26.08336009269877 l1.4050097712028682,0.14051351224492095 0.544704949077016,-0.20570221131661792 l0.9469786896367339,-0.7137980433566418 7.513131568298049,-12.339313828192816 m9.075136302048312,-18.909634889563563 l1.503076527275461,0.8007212819733529 1.6646141645140593,0.1808668518226216 l20.464937235375686,-2.4785063964899323 0.8805589250014489,0.18025033766615703 l0.3843706490662661,0.38735538416815474 0.08379553625984841,0.6044927827779721 l-0.7095578075053119,0.7555758184560396 -10.565906016598818,7.269222034364692 m-5.813407983580339,-2.555021121535615 l4.5361267714487825,2.00269403550592 1.7652524022531926,1.0496329860807903 l1.0596706496068462,0.9541268318891407 m-15.265894228304175,2.1637424511119057 l0.8593063538398993,1.0093384699234487 0.27538253042932714,0.8587946434176064 l2.1664772923215816,12.378050099128483 m-1.9287100629339278,-13.565026464809684 l22.912921608467055,-2.0143961233380234 2.9424571769255268,-0.13458985910971744 l1.4892446749714565,0.3242973502074113 0.7258640320873914,0.7974309265351377 l0.057495030160596934,1.1508273177066142 -2.7806855323738326,11.640440260244874 m-13.163795292604176,-11.603393905926808 l0.6099827962325799,0.8505754659207021 0.13212352707592337,0.814067625580312 l-0.05808548723734958,8.970252486140526 m-12.561194588877065,-4.760266446866246 l26.349517322279272,-1.881534046051736 m-25.490130435215555,8.030349315985855 l10.013108767677192,-0.8670240784970993 13.44208821831089,-0.7155577542907251 m-29.230828869014637,9.724066751482527 l1.8968894709869049,0.19429057805294386 2.6040909163781745,-0.1417658400740419 l24.792467414731767,-2.604318875867431 1.9762738429237003,-0.0658061728325239 l0.7154997048340495,0.16700608960689334 0.5926510340299926,0.8141176961065707 l0.0031319532474717365,3.7109477180858508 -4.451422126139737,5.662538255056561 l-3.588568924555256,2.3161424503528862 -1.1888071404771436,-0.017370735530119624 l-1.9414806613681739,-0.9733974530356716 m-2.944587986861387,-17.454492765809075 l-0.01461439518088476,1.8231425455569212 -1.2971238640227727,2.6566364587379754 l-2.129953473774759,3.0670878272643587 -2.9503670691482324,3.212863725298981 l-2.9226933879610204,2.5306567993918825 -3.483090968382433,2.512339162146098 l-4.053877515142686,2.3298127463697944 -4.63884451460734,2.116052087023773 " fill="none" stroke="black" stroke-width="1" /></svg>