<?xml version="1.0" encoding="utf-8" ?>
<svg baseProfile="full" height="99.23947321241027" version="1.1" width="100.19910708722432" xmlns="http://www.w3.org/2000/svg" xmlns:ev="http://www.w3.org/2001/xml-events" xmlns:xlink="http://www.w3.org/1999/xlink"><defs /><rect fill="white" height="99.23947321241027" width="100.19910708722432" x="0" y="0" /><path d="M25,25 m0.0,0.0 m8.86896563816268,1.7055837528512963 l0.4250399755882546,0.22486157749720329 3.0811667737902413,2.5609595966798437 l1.4222597681239961,1.5172463934949543 0.7709333519065092,1.0970522300947587 m-7.535607198309375,9.444650265042439 l1.6845893661384777,1.125186036131884 1.8728497709604437,1.6230786181550363 l1.49507973669811,1.693141976732289 0.5987365290480009,1.0700679383876925 m-6.005104739609131,23.422703144208338 l1.0122041434760694,0.5689643459378035 0.4966897056709989,-0.01621897730861398 l0.799526194315354,-0.7257193333914933 4.47091828310034,-11.053606174787678 m7.738476325364403,-27.8518505453625 l-1.0803673631982247,5.042363200249483 -1.9062878385010407,5.076208133543649 m3.0279066283340947,-7.794136522909014 l18.23099263722608,-1.5120033446878782 9.494454253840313,-0.490542685720539 l0.8331907304239039,0.35242007841791084 0.3609033004511561,0.5274720792447318 l0.04159111422265255,0.6493276350615048 -0.6654159564448109,1.5052687654444301 l-1.8628002192052133,2.186551503910933 m-22.555665925369297,2.1931453521047226 l0.3185389195727482,1.5332391130975114 0.47535886860621,3.4735268923959115 l0.9915137157525178,10.473571166576084 m-1.1567664759800822,-14.79526378747025 l16.128538731371414,-1.4192154839541018 0.6365213606190636,0.032296927603001374 l1.5034202031948987,0.5082781269856507 0.5957796743809488,0.7162511028203047 l0.13769107972085876,0.9114990912702265 -0.9602164657200518,7.096493340860153 l-1.1400047704840366,5.589721142894925 m-16.00009038555277,-6.89526936495511 l3.1785917454476325,-0.9523913382263732 m-6.396783778533197,7.264612113521236 l13.901622807305477,-1.3358311981232476 m-8.905996599560096,2.45445127729857 l1.5354860939053099,1.5293876922916965 0.9155766911119271,1.7377754042344298 m-15.831012380387111,3.0297579438705515 l3.120899756268786,0.3764222487669944 25.213993631074025,-1.7586704913520501 l1.3411184903047062,0.1317767943096523 0.7162910143902138,0.34902080854715856 m-21.233708744780923,4.1848740107004865 l0.12807548328054674,0.9198748533282775 -0.23651224824488815,1.0980674611330974 l-2.306762927375954,2.863779952702464 -3.431776410093022,2.97099470424506 l-4.658874466540155,3.0082676680147924 m21.35965956468188,-11.341314539832334 l2.7101520940019754,2.790255098972606 2.036565336363452,2.514366318117281 l1.748800292787786,2.658037863000701 1.4321902051216617,2.784297018873934 " fill="none" stroke="black" stroke-width="1" /></svg>