<?xml version="1.0" encoding="utf-8" ?>
<svg baseProfile="full" height="98.31784148336324" version="1.1" width="95.72434597917574" xmlns="http://www.w3.org/2000/svg" xmlns:ev="http://www.w3.org/2001/xml-events" xmlns:xlink="http://www.w3.org/1999/xlink"><defs /><rect fill="white" height="98.31784148336324" width="95.72434597917574" x="0" y="0" /><path d="M29.863159800754048,26.160181347689797 m0.0,0.0 m12.162544066481518,3.313102029886668 l0.3657281933551263,0.5349521289245487 0.551369034265712,1.6554778287130127 l0.08571323830817296,9.38339060468445 -0.23378855170717255,7.944124822648331 l-0.7075346891843487,6.832532054929532 -0.9676523371323466,4.8325343918160675 l-1.4008889049802005,4.928196419052282 -1.601305758739942,4.308096406783956 l-2.273395589231722,3.4252534482346 m7.548868039668754,-45.83161744624164 l22.887800041888102,-2.4862240371216053 2.601742645901271,0.09100570017571691 l1.3105535498618048,0.7696948359255693 0.5314331996669558,1.1140301519096762 l-0.3624692590291791,43.81366705600742 -0.38097381780118383,0.8251831975742543 l-0.5319334406541667,0.39498242973373954 -0.6526993105196005,0.035621020875302674 l-1.491198619012645,-0.8587692727921074 -2.1308655430544547,-1.9129498897799169 m-20.815976214248657,-31.202123376535102 l3.0090578730094744,-1.646386330018657 13.398400335122941,-2.204941629285623 l1.6636041644928934,0.08200678089563417 m-8.745678256145588,-6.382292391963889 l0.47110492344020305,1.1211355843839172 0.13417212237810233,1.23219263664897 l-0.001427050988848085,13.69075525076283 m-10.060494266445176,1.4959221129428362 l2.7542268286306917,0.11705909747443267 14.3082194164232,-1.7774250718023539 l3.518662552389916,-0.11360196203739119 m-18.014470878442317,8.83241217218569 l0.5941129122859304,0.8296499415839655 0.3361710441734511,1.0881517851983429 l1.4948632108292121,9.209224953749391 m-1.0915910049927198,-9.931690686170306 l9.90683323993058,-1.7471764398201632 1.0325023413850412,0.05403975499361614 l0.8003687989092902,0.4756718559054002 0.466753932725842,1.3678298671126232 l-1.3445789062597682,6.522504190804629 m-9.226104177311244,2.100877629231328 l10.353511040110227,-1.2012206689153513 m-29.40591284379865,-34.41994769727353 l2.129223457688887,1.0434517026819852 2.277258847656735,1.696815135188541 l1.8315170621193195,1.7880159914423144 0.7320297524318359,1.1182321649687643 m-10.225549507474264,8.057812359576308 l2.2061815949371346,0.9894860510095513 2.4675751071289933,1.4875042736641824 l2.0737309696019444,1.5419718935723052 0.7751062586841018,0.9683825393672579 m-8.329330943310802,9.435581789500388 l1.3557103250944302,0.3069710886614839 1.0371260703820313,-0.15580526276754933 l6.00521747133231,-2.2094994797176715 0.8987992781927753,0.3184240473110559 l0.2195224503034988,0.568026238462705 -2.8549221079359834,0.9300119459126144 l-3.590966247866482,2.9191027236495297 -0.30263160000534656,0.8827799449460807 l0.4038237599818685,0.85839143197492 3.125805896479852,2.6630584748828148 l-2.5613280483883782,2.1196901771530006 m-5.384436973743002,2.0007334537789205 l3.0670961269933072,-0.2580798739670538 3.367920590807323,0.005709121397454637 l25.53309027796161,5.690320187421609 4.175239083433738,0.4374932184047843 l4.839425660327594,0.028096797912675713 " fill="none" stroke="black" stroke-width="1" /></svg>