<?xml version="1.0" encoding="utf-8" ?>
<svg baseProfile="full" height="103.44523360276406" version="1.1" width="105.63877858130284" xmlns="http://www.w3.org/2000/svg" xmlns:ev="http://www.w3.org/2001/xml-events" xmlns:xlink="http://www.w3.org/1999/xlink"><defs /><rect fill="white" height="103.44523360276406" width="105.63877858130284" x="0" y="0" /><path d="M25,25 m0.0,0.0 m9.822226670061513,12.766170877140533 l0.4791475373901006,0.20147994486045653 3.5894796583752764,2.197654246273177 l1.5140694161365371,1.3440470566831189 0.7041156431075771,0.9560376860212436 m-10.315372305338538,8.889855429573679 l4.153761970201771,1.7906608144387794 2.0754587705850436,1.4771630323342058 m-5.36986652755147,22.42263627535701 l1.1395842957902211,0.4971930718522459 0.5602212031182127,-0.01519587528739797 l0.8818250568329616,-0.6437645250768577 2.3391059687115825,-4.089444471750516 l2.4421882650567706,-5.061935040929788 m10.693755773608855,-26.620676415042386 l1.5321318599945948,0.22764691760308836 24.3171966533696,-2.0739217612145917 m-25.41907600429398,7.5423790383914655 l2.3606951298327425,0.12499830854426093 19.36595811374766,-1.7279909722637135 l2.280220150514183,-0.049548325827040114 m-29.713152952071802,8.034993920362634 l2.5283055316824923,0.2101784758763564 25.034365283489546,-2.2782128377970774 l7.2087955130783685,-0.4605933597932611 1.4336379058730266,0.05891904950797219 m-20.46618835063129,-15.739152088474228 l1.2583429419742502,1.567341989866477 0.17852189060312593,15.427496160426559 m-9.718802746246208,4.311938027757331 l0.6773370967689119,0.745379852516919 0.14239434757150832,1.661327941551901 l0.07234717881558876,10.461619586703653 -0.3587784675782792,8.929876010350396 m1.04631717746745,-21.220614422636324 l16.120094617414562,-1.441839988198201 0.9102421806916342,0.03384798725441783 l1.168254614299922,0.653736140256834 0.23864855029808593,0.413282902070763 l-0.41904985308078907,20.158914947162316 -0.3004249123550964,1.2374619301873835 l-0.46825171529501763,0.5186319786400698 -0.6309955334741452,0.005254087490188252 l-2.330291889081437,-1.6941581874821954 m-13.707568051887122,-13.969135900214852 l10.442005592948034,-0.8757836413887441 m-10.104509620322567,6.5258648079465615 l10.14368034932009,-0.7017696235807138 " fill="none" stroke="black" stroke-width="1" /></svg>