<?xml version="1.0" encoding="utf-8" ?>
<svg baseProfile="full" height="115.17181787335771" version="1.1" width="99.61692691395868" xmlns="http://www.w3.org/2000/svg" xmlns:ev="http://www.w3.org/2001/xml-events" xmlns:xlink="http://www.w3.org/1999/xlink"><defs /><rect fill="white" height="115.17181787335771" width="99.61692691395868" x="0" y="0" /><path d="M25,25 m0.0,0.0 m15.367506392080292,4.613395739109545 l0.4061625707254405,0.27261363646402825 2.84265976060993,2.726492851160985 l1.2444580125314548,2.4501571006091325 m-7.885039115192041,6.554074023869183 l3.4785661813071456,0.2603915368083696 9.763389796925635,-1.6803483415894127 l1.932074198780126,0.053555190730482025 m-12.341463504277094,10.236448794447828 l2.7962151315306136,-0.003437418191864301 6.423978604340639,-1.2578676504866362 l1.9416110793453805,0.0647287083554701 m-10.69733894171741,9.581865251690829 l2.397981943138106,-0.005698758558849534 6.171403642566898,-1.2274051700029647 l1.6922579155056716,0.015790118475829288 m-10.996130287523215,9.934119435702652 l0.6762595273771661,0.8939942700770427 0.2775954035536114,1.3464067912774638 l1.605747204009447,11.609325210591127 m-1.483045743294162,-12.854747007514053 l8.333818931867963,-2.132046256072325 1.065896609257716,-0.05697920945323527 l0.48731098813779866,0.37641889280703017 0.2270333632157994,0.596196602819418 l-0.009238820851933522,0.8354384605589534 -1.475390872886431,9.426003718188278 m-7.232903515679688,1.7144808694736162 l8.163220923320434,-1.229676755166266 m7.084911296943687,-38.68368504396915 l1.235272536931103,0.25963920095574095 2.7267513624006683,-0.10629742813840133 l12.04885799747009,-2.064056877098639 1.3465363415078475,0.09827511774384966 m-18.353974608909446,-6.918789853761842 l0.4527925410144289,1.0497061026171137 0.13377480962085483,1.099760926063557 l-0.006315271043153319,13.598082190440488 m9.185245869292775,-17.715385516057292 l0.38379677921504957,0.9725011499462123 0.045479333637478594,1.1612129447985615 l-1.2896882968804015,14.051119911549385 m-13.983123882871395,1.9763807594318916 l2.2968266390195278,0.2834932262715992 16.093804092064808,-1.185440845375113 l3.3873150853302403,0.11097920449968172 m-20.57212659293578,10.894249782044572 l1.2245461569254248,6.061379756888983 0.9017201118455859,9.893686309360158 m-1.2468132189298253,-15.905927942005029 l15.336447437982539,-2.235136303526012 0.6349606029301665,0.23401785608587794 l0.6692393606924383,0.4445978691816963 0.3521517391982549,0.9857068948136092 l-0.014437909677313999,0.7346622916820839 -1.7138266225316816,13.730441624224223 m-14.344892865981802,-6.8633649500881395 l15.2528194106864,-1.824452598940276 m-14.775456586989812,9.068272569353018 l13.877573089561734,-1.4132707256024664 m-7.935332069529705,-25.171233735099452 l0.4518689911098642,0.8624706635416387 0.21738927565169616,1.2019628386563892 l-0.014480226581849356,22.373053711664557 -0.2427691531589324,5.338780259534352 l-0.528832170194331,4.87699170364958 -0.6046064519789673,2.8436800495800143 l-0.9117191936336864,2.351121564850356 -1.1060356437436725,2.091292438771044 l-2.3247500464603474,1.950908362455542 -3.3392929073505107,1.5467417761820872 m0.8845612776415265,-15.81992090497784 l1.5936138465655962,1.7186685912959034 1.8241428775010085,2.3598133584388497 l7.31388351335165,2.8479343916342073 7.7339662186629665,6.873066722438594 l2.279721288456291,1.2304098951897409 " fill="none" stroke="black" stroke-width="1" /></svg>