<?xml version="1.0" encoding="utf-8" ?>
<svg baseProfile="full" height="107.69322469718097" version="1.1" width="106.39604537889116" xmlns="http://www.w3.org/2000/svg" xmlns:ev="http://www.w3.org/2001/xml-events" xmlns:xlink="http://www.w3.org/1999/xlink"><defs /><rect fill="white" height="107.69322469718097" width="106.39604537889116" x="0" y="0" /><path d="M25,25 m0.0,0.0 m7.7222077014909924,2.6751537355754196 l0.4860672570961045,0.21068885476720312 3.705646136763402,2.2932011945209387 l1.593075680317822,1.353224139775029 0.857214841190948,1.1265770456253879 m-8.940967820333864,9.03794284361865 l1.9784359239588691,1.0325085184130567 2.1576801965232892,1.4980823379515813 l1.7742698851785759,1.5732769360014527 0.7039142098549941,0.9843444044852321 m-6.96504271290729,23.270511147663928 l1.163958090585793,0.5528098746076164 0.5726086486540203,-0.016415760428731677 l0.9221747990725107,-0.6841889452891156 5.3474743380621925,-5.390118433825208 m10.00655267176994,-33.17140135349751 l1.0140502854525122,1.2434326701928233 0.5946762656387515,11.342513513838389 l0.8318846015236098,6.967417458704843 m-1.6109522455194358,-17.63998479680966 l20.119635947038628,-2.101681456887105 1.3821557762230552,-0.004600931143934062 l1.082327151584254,0.43934024088597173 0.5554660869252096,0.9378411322457344 l0.06275006073736167,1.3778516462392423 -2.4146417752896774,15.059606282574277 m-19.924863241500727,-8.053121025443104 l14.948197452405964,-1.243236577474205 m-14.11026150871549,9.220771134527759 l19.366978487737995,-1.3543602014215734 m-15.10014347785612,8.945600085290307 l7.0388075119028075,-0.2658208138384134 9.132574838717215,-0.5068835848544427 l2.4507598240764716,0.15171525550916565 m-24.89236804957175,10.483832201731852 l2.8817654656780545,0.28613952104370466 23.337611748787072,-1.6800074016428592 l4.530901273094785,-0.08394669811947518 2.033463052542314,0.24154274667666725 m-17.27841808033666,-7.526907277857829 l0.6021879225867978,1.204651377825234 0.19550660091767508,1.6270628794366364 l-0.06608977399566757,22.27826077598602 " fill="none" stroke="black" stroke-width="1" /></svg>