<?xml version="1.0" encoding="utf-8" ?>
<svg baseProfile="full" height="103.77691820479032" version="1.1" width="106.43055133866042" xmlns="http://www.w3.org/2000/svg" xmlns:ev="http://www.w3.org/2001/xml-events" xmlns:xlink="http://www.w3.org/1999/xlink"><defs /><rect fill="white" height="103.77691820479032" width="106.43055133866042" x="0" y="0" /><path d="M26.25266325731616,25 m0.0,0.0 m10.63263996956689,4.188506942854636 l0.40986835475771843,0.46953533085870414 0.5792136399266995,1.3639413536900262 l0.11955038548864484,1.6295728748770466 -0.004372235132999811,8.330066290666096 m-12.353787439731994,2.3189646816994474 l3.8527280749240598,0.08480883937646869 8.566132718761054,-2.7990121135060564 l12.113120848634434,-1.5228173171462118 2.2566942213340635,0.3551083825419782 m-13.541833393693073,9.363249181670694 l5.218466783878066,1.6018682507884832 2.8970689984594435,1.2549547359000808 l0.7455941665947067,1.8900332680492864 -0.6009957992443448,4.269325141518736 l-1.406583984095755,5.633377947068975 -2.1267656574147926,6.25646455109615 l-2.17482660091336,5.040300509698321 -2.0023829430587803,3.056330996501875 l-1.4035226315750333,0.8958893057341357 -1.3486750153374423,0.0964490508514441 l-2.0201625603247684,-1.4947605314198364 m4.4802443434449035,-33.85656899660691 l0.38362032853554384,1.918946884308312 -0.7477940915586315,3.5898001269125506 l-1.5739476095701936,5.455836936110819 -1.841908129648077,4.967433056631594 l-4.077748739822458,3.9432855504810465 -3.1397346789333236,1.8864214582658814 l-3.1425645815673664,1.3849776309180253 m39.377115787748345,-34.46905028542755 l-0.08336033142933405,1.2936432260800395 -0.6700408162997852,1.7390062051265502 l-3.2864193477028008,6.238519082777216 -3.5940370765899265,5.209838078415232 l-4.341069162534954,4.587750601393621 m10.589331485801402,-8.252351113954036 l2.5554166478358735,-0.19748690367422397 9.009162776334158,-3.0169556453876267 l2.360120812742475,-0.2665371627424819 0.7453574459591445,0.24770399989391545 l0.44184060677714926,0.5044653689909925 -0.29784607952247166,0.6786576244374327 l-6.296472477785587,5.463265182511906 -3.970154917587141,3.352544008853851 m-0.976876956952021,0.6452993268689808 l0.4438376426023556,0.9338377373092884 0.02563945810524337,1.0690148752396567 l-0.9325697699757747,4.478016081722048 -1.4815641279367093,4.011447939311715 l-2.2813789271343654,4.221592509557086 -2.324495632127741,3.2253712090462376 l-5.834320376948812,5.814678677862517 -2.859778189634834,2.0710882781133546 m14.750011796242607,-18.107384658540173 l4.435740757354416,5.946255624167576 5.068721987743512,6.289585743690605 l3.761491624652039,3.870350553672558 2.097146698923947,1.3998151580759668 " fill="none" stroke="black" stroke-width="1" /></svg>