<?xml version="1.0" encoding="utf-8" ?>
<svg baseProfile="full" height="103.65787248190992" version="1.1" width="102.34830845799519" xmlns="http://www.w3.org/2000/svg" xmlns:ev="http://www.w3.org/2001/xml-events" xmlns:xlink="http://www.w3.org/1999/xlink"><defs /><rect fill="white" height="103.65787248190992" width="102.34830845799519" x="0" y="0" /><path d="M30.202241641878004,25 m0.0,0.0 m13.67607548091534,12.306131342027063 l0.42435809513876055,0.3996932256993764 0.441990184931724,0.9782922014831542 l0.11457006949943196,15.343605088397712 -0.3513463988126203,5.702705631190019 l-0.8357763718521749,4.91482822853958 -1.3333697492341678,4.284241667300974 l-1.6716641923714515,3.628015496771474 -2.3372633146230504,3.3511740487353228 l-2.9933239880860283,2.749185551765244 m21.87727146751197,-43.58581509541641 l0.7739126270991278,0.9087268404759066 0.30887396022415403,0.9843671748557848 l-0.06892579061047154,39.16681368835537 m-30.42053632491913,-28.539303607766076 l3.2209972978966,0.040446476613007674 11.135470855053988,-1.1811632410237751 m-14.431087465744703,9.682484863831256 l3.400248044483088,-0.032571380296069215 11.293990411503549,-1.632241235652824 m-17.426706539881945,11.574055042217179 l1.4238971970514773,0.8707363805620622 1.7379218949812627,0.08313952083753597 l12.72962483853959,-4.266850527818343 m19.06687925797486,-18.046531656844216 l13.371663311622802,-1.7962040958463423 1.087219709383082,0.021241547885177542 m-13.696414630533242,10.195997731530605 l12.674835597774862,-1.6032323371618569 1.1193878929051757,-0.0067404598314786 m-13.959740111206976,12.15164118824195 l16.793033499502286,-1.7020486773063452 " fill="none" stroke="black" stroke-width="1" /></svg>