<?xml version="1.0" encoding="utf-8" ?>
<svg baseProfile="full" height="102.13411333620024" version="1.1" width="110.9051709045745" xmlns="http://www.w3.org/2000/svg" xmlns:ev="http://www.w3.org/2001/xml-events" xmlns:xlink="http://www.w3.org/1999/xlink"><defs /><rect fill="white" height="102.13411333620024" width="110.9051709045745" x="0" y="0" /><path d="M25,26.144116844808504 m0.0,0.0 m13.076198687198048,4.009186016307023 l0.4016718154432795,0.5171509166813163 0.5330936702697168,1.1313842986783222 l0.2731220124722313,1.6808322812014669 -0.06448944896006219,20.028024561601303 m0.997297240877007,-12.139095806823903 l11.860935794637294,-1.7313613565155728 2.9856328550946953,0.06671502359596508 m-28.625490405605245,15.791170983448563 l0.7581069014171516,1.2736488342486154 0.6941514760649204,1.7091420388842966 l2.446178170218166,14.262126584528337 m-2.338306461693737,-15.69457079305078 l18.465731599177335,-2.832758738585929 5.400437600065122,-0.5506690982967077 l1.7921374214612913,0.3696843023175432 0.8830960263104272,1.0737069119032023 l0.11683626726173034,1.659918957073201 -2.599512744552435,11.91087658522103 m-20.478142040044045,2.710615750985271 l22.35191365146885,-2.2632347830391386 m8.981385040207167,-42.466309336995394 l0.9396133824642444,1.0581415038511357 0.41544271663071264,1.157185804082459 l-0.0115913580823278,11.521235683843974 -0.5696068951298091,9.027973166825998 l-1.2638888901739025,7.319075746078913 -1.8656909094422593,5.7184283969187515 l-2.64257870466053,4.661308979119553 -3.716967614031646,4.022856520019502 l-3.859933424260005,2.6004711274798034 m15.126339851326366,-46.09797699065245 l16.24807944982783,-2.649000915744185 1.5862031626592203,0.07639919482849652 l0.6509337508249494,0.3785096645283892 0.701306583915775,1.3945804037718752 l-0.020373499491998803,47.76875765230683 -0.3534328992788967,1.6293257592275168 l-0.6608998285718829,0.8150367421017988 -0.8646848583441772,0.07150391943532793 l-0.9679624580749187,-0.48438422112923457 -3.188439875353494,-2.628503387881916 m-14.808437540169603,-32.54707133494989 l20.70172164517065,-1.4256020088941506 1.4180339880312882,0.042501084593343445 m-21.9989838045567,14.590198862842513 l20.73701418142842,-1.5160477414063258 " fill="none" stroke="black" stroke-width="1" /></svg>