<?xml version="1.0" encoding="utf-8" ?>
<svg baseProfile="full" height="109.49251496698707" version="1.1" width="109.06655923463404" xmlns="http://www.w3.org/2000/svg" xmlns:ev="http://www.w3.org/2001/xml-events" xmlns:xlink="http://www.w3.org/1999/xlink"><defs /><rect fill="white" height="109.49251496698707" width="109.06655923463404" x="0" y="0" /><path d="M25,25 m0.0,0.0 m8.016932010650635,5.184310078620911 l0.5990275368094444,0.2476942166686058 4.595004320144653,2.883952260017395 l1.5633077919483185,1.40566885471344 0.8802619576454163,1.1913470923900604 m-10.131816864013672,8.350162506103516 l1.8477283418178558,0.925205796957016 2.5738731026649475,1.7793063819408417 l1.5690095722675323,1.415395438671112 0.8782495558261871,1.2030861526727676 m-7.727656960487366,26.939470767974854 l1.5160159766674042,0.6567166745662689 0.7358714938163757,-0.006314986385405064 l1.0863663256168365,-0.8222374320030212 5.934934616088867,-13.043104410171509 m9.906426668167114,-30.867695808410645 l1.147157922387123,3.221869468688965 2.266896814107895,10.757173299789429 m-1.9922864437103271,-13.33020806312561 l23.692948818206787,-2.3725903034210205 3.2158321142196655,-0.11397371999919415 l0.9367771446704865,0.7761197537183762 0.047417422756552696,1.7128968238830566 l-3.37103933095932,11.317126750946045 m-18.052666187286377,-18.61077308654785 l0.8609763532876968,0.9022308140993118 0.4646153002977371,1.144726201891899 l1.0921310633420944,17.00822353363037 m7.931581139564514,-19.85578417778015 l0.6137852370738983,0.9022308140993118 0.13478958979249,1.144726201891899 l-1.8203093111515045,16.636934280395508 m-14.950870275497437,-5.014927387237549 l5.962772965431213,-0.28643837198615074 13.346643447875977,-1.348566710948944 m-17.65554904937744,8.54335367679596 l22.112369537353516,-2.0331846177577972 m-25.65152883529663,8.114039301872253 l3.0223053693771362,0.28165364637970924 23.269503116607666,-2.2659115493297577 l3.136341869831085,0.246520284563303 m-27.798099517822266,2.4940475821495056 l-0.1416338887065649,4.4487690925598145 -0.609089620411396,5.301360487937927 l-0.7501260191202164,3.5284268856048584 -1.359383463859558,4.145565927028656 l-1.7333564162254333,3.548550605773926 -2.0667457580566406,2.997150421142578 l-2.3605576157569885,2.4933768808841705 -2.614792287349701,2.0352180302143097 m16.786189079284668,-23.26883316040039 l1.8681877851486206,0.19916575402021408 13.600542545318604,-1.9665023684501648 l2.1767574548721313,0.1394380535930395 m-21.744766235351562,8.478956818580627 l1.8681877851486206,0.19916575402021408 22.290465831756592,-2.3842453956604004 l4.143553376197815,0.117731261998415 m-23.934271335601807,3.6813700199127197 l0.44004712253808975,0.6057355925440788 0.27746113017201424,1.1648503690958023 l-0.09302944876253605,10.310921669006348 -0.4237617924809456,5.758848786354065 l0.64900241792202,0.5430154502391815 1.004863679409027,-0.24299858137965202 l8.503776788711548,-7.012245059013367 m9.852762818336487,-11.011911630630493 l-0.132965836673975,0.9760192036628723 -1.0654037445783615,2.0291806757450104 l-1.3493213057518005,1.7367103695869446 -1.718263179063797,1.570686548948288 m-9.418082237243652,-5.661581754684448 l2.511153221130371,1.2840019166469574 3.307732343673706,2.3716259002685547 l12.51434326171875,10.35720705986023 1.1997321248054504,0.706356093287468 l1.7813189327716827,0.5643134564161301 " fill="none" stroke="black" stroke-width="1" /></svg>