<?xml version="1.0" encoding="utf-8" ?>
<svg baseProfile="full" height="97.15695492549625" version="1.1" width="100.19235020329128" xmlns="http://www.w3.org/2000/svg" xmlns:ev="http://www.w3.org/2001/xml-events" xmlns:xlink="http://www.w3.org/1999/xlink"><defs /><rect fill="white" height="97.15695492549625" width="100.19235020329128" x="0" y="0" /><path d="M25,25 m0.0,0.0 m10.556008460751613,3.143280955852935 l0.4496872859182637,0.19157255556283329 3.4282470833744965,2.281155939039068 l1.4257772661755566,1.36139432142862 0.7816689382995673,1.1376467398400067 m-8.255076095378854,7.975297882734092 l1.8166741238761541,0.9391203891034531 2.0454841735071154,1.4261632444958112 l1.6300482397427598,1.434631548633143 0.6534109423494339,0.9289516841809068 m-6.417939052500761,21.70867317284942 l1.0788596983666983,0.5049127492343674 0.5298528635903063,-0.017980576460845183 l0.8720299174832936,-0.6339098266026068 4.749517197584865,-9.722810769547658 m7.736115327262074,-25.808202078736954 l-0.6864346690484209,4.677906268848597 -1.5409436128076752,5.185227670464317 m2.3620485801955673,-7.921338666868097 l13.915937630119345,-1.4850836340221567 11.45575541706216,-0.756883842879155 l0.8968445838100509,0.22045739346034837 0.5322450843845447,0.41004131399606863 l0.1765308191731288,0.5510231051916024 -0.4637372518839374,1.3720079771298022 l-1.9201919920734516,2.197366505453938 m-21.718843541464732,2.1056979784959258 l0.360142714131332,1.4817632782855477 0.4542364233085003,3.1818499809228618 l0.9799796228519623,9.63607177269907 m-1.1506962378239582,-13.72262719096249 l15.602504204600004,-1.3617948473007664 0.632144018884881,0.03684005491712071 l1.46769368152241,0.4650245499932745 0.5981119034969149,0.6885508459976162 l0.01465648292708361,0.8692352435488356 -0.9627699658645716,6.360806732033454 l-1.138560347662812,5.051158610299698 m-15.514952492885866,-6.116434714361509 l16.87369186659797,-0.8497670669581275 m-15.828841083694211,6.637817596541714 l14.303148150096767,-0.7607840777656469 m-8.73973426922808,1.8680573826510918 l0.719357604890571,1.3951922952024347 0.06767708279604154,3.343210680518153 m-15.310476877106549,0.724686544237014 l3.3376130006177216,0.3213465410889283 25.18593060595244,-1.5268146377399745 l1.3630914427206957,0.152959006266746 0.7359628974790383,0.32348864072129696 m-21.47856038532725,3.5914499318913986 l0.13597149161474623,0.8327286454721688 -0.25670793001700837,0.9970078996588784 l-2.4380451608440006,2.7912130933659296 -3.4995489629061862,2.825035770345882 l-4.562836792967968,2.735903005165817 m21.399528161304122,-10.659056694636933 l2.7263206529189232,4.07669218344538 1.8151107505962112,2.8123352178255736 l1.5036294823790497,2.6885845636561303 1.2756563747263543,2.858904087591886 " fill="none" stroke="black" stroke-width="1" /></svg>