<?xml version="1.0" encoding="utf-8" ?>
<svg baseProfile="full" height="103.11300476614358" version="1.1" width="108.0990920158887" xmlns="http://www.w3.org/2000/svg" xmlns:ev="http://www.w3.org/2001/xml-events" xmlns:xlink="http://www.w3.org/1999/xlink"><defs /><rect fill="white" height="103.11300476614358" width="108.0990920158887" x="0" y="0" /><path d="M25,25 m0.0,0.0 m11.131311939194251,4.120969675721904 l0.4695904297530659,0.22077765072013616 3.597818666316522,2.3780350827773793 l1.5399865731655986,1.391174470714074 0.8087136278027829,1.1444685235686314 m-10.325809967383416,8.850179133149156 l4.153394798517214,2.012575315785479 2.0010894202926495,1.433906723719607 l0.7973910003471116,0.8822280689709807 m-7.549612043845687,25.557552776139886 l1.2107743652826215,0.5546558076273875 0.5763087742370863,-0.017120793169403292 l0.9459754113891412,-0.7091468399083426 2.4941334344969364,-4.490982208476687 l2.5916699756712807,-5.643701627875413 m23.285734941634363,-36.6020934395458 l2.208790377112428,1.8042388124207949 1.5576337983169632,2.336050737374562 m-16.63186637473716,3.3369044855455003 l-0.5697163991603361,4.204269231746427 -1.2559043650898518,5.004838628418977 m1.9725076442917215,-7.006130683272824 l22.416841088393443,-2.3563971005093522 8.663134497544762,-0.6806172261362293 l1.1435627707623235,0.10900627563034734 0.6538615464476217,0.33769327329271553 l0.2117760851352686,0.5176585667905836 -0.5712437938599443,1.3865809511068874 l-2.4768150592370173,2.407289598149246 m-24.817869161051796,3.9801776457314295 l2.0363474852505417,0.2464415078185908 13.541211850208613,-1.9082079185296177 l2.3937216024026733,-0.13573058861555978 1.0852332868468246,0.20912485191438887 m-22.069245478548826,8.434064961134546 l0.5570121473925713,1.1229929710178397 0.5616266801803499,3.1587071379736007 l1.1733200568398043,12.502295018713324 m-1.231934901905647,-16.083097918912593 l23.050317179458013,-1.9020641483593417 2.1070854900122358,0.263371429462373 l0.4744655614793204,0.3589367256492947 0.3145751172897801,0.9037286628184279 l-1.3118161388323157,8.717915828593243 -1.3473999369505967,5.882313486038919 m-12.174066897747272,-21.201928678922048 l0.6249618872103592,1.420083775393442 0.08243456821936969,18.79373074504969 m-10.756860221355415,-6.519353090195331 l17.854187532008154,-1.4276841094754715 m-17.09761667741721,8.839730988370405 l21.46435911314441,-1.3249432093457338 m-17.850963243522767,6.449360186918126 l-0.06718621775766254,0.9317980023067685 -0.4452850031246078,0.9278769507413903 l-2.2444920823464587,2.784606510242922 -3.1282185832315266,2.7301599889945316 l-3.94372664086583,2.4737331831394016 m22.97808020298419,-9.968068226737222 l2.5941780849263485,1.5697825076376417 3.289250037207439,2.667305679850523 l2.7235427491449298,2.8609024869652004 1.2427498198231066,2.014065350168631 " fill="none" stroke="black" stroke-width="1" /></svg>