<?xml version="1.0" encoding="utf-8" ?>
<svg baseProfile="full" height="105.79476556146018" version="1.1" width="109.89020753224727" xmlns="http://www.w3.org/2000/svg" xmlns:ev="http://www.w3.org/2001/xml-events" xmlns:xlink="http://www.w3.org/1999/xlink"><defs /><rect fill="white" height="105.79476556146018" width="109.89020753224727" x="0" y="0" /><path d="M25,25 m0.0,0.0 m10.309311026199861,11.987637373916293 l0.4966944843120523,0.20134164184812653 3.857840817883095,2.1863986928396013 l1.6259608388000828,1.2843455878975387 0.7470150840873553,0.9234713764897701 m-11.054122607569537,8.438412913598627 l4.566881683009042,1.743008914687827 2.231713386924102,1.4003560965588873 l0.8638647197432745,0.8202311375671845 m-7.304850161821214,21.65294253662495 l1.1836485449099918,0.5028522296945587 0.5916837195228272,-0.017655165389119366 l0.9797914828416767,-0.6208451466746736 2.573514373734651,-3.845531848012941 l2.7353035529184226,-4.960085765805542 m12.329685160644248,-26.936585100405715 l3.0764010122055927,0.18626936192006174 17.476277447894205,-1.7407393584195379 l2.847844158054467,-0.12964116320734964 m-11.895650561721892,-4.734459896830452 l0.9029010701813002,0.8163608119102546 0.2537906026693489,0.6048199593155595 l0.4365867624996066,16.08153068515038 m-11.842276066788623,-5.199512231026209 l2.8650801582804153,0.13081056220966442 17.047429977231644,-1.7908446575974357 l3.6362000967822037,-0.1617466727856831 m-29.989686152104586,8.773971857165435 l3.277765950494894,0.19159583213981424 28.81109419326729,-2.75951257224359 l4.335946718251625,-0.17932540121310556 1.9165660589098559,0.27296370740809994 m-28.7346577074818,6.380524080571802 l0.6115554835188489,0.8812628850600823 0.15745616708514967,1.0676745287490235 l0.046123736621498816,20.805991035816813 0.09485568260535865,0.6524561440345394 m0.7312576149281819,-21.561925263111938 l15.769919088954435,-1.58580976518317 1.474464473582276,0.06029711335593383 l0.9924569021905364,0.6896163286263586 0.17672790892951368,0.4681610629973922 l-0.48690562151099653,20.862078035826972 -0.29948244275487745,1.3262738764201012 l-0.5158287908623941,0.6064709774996196 -0.6866630012509125,0.018858221465387688 l-0.7858220576919029,-0.4192805548291077 m-14.09957708038491,-16.021439739733612 l10.109897992874274,-0.923287357037981 m-9.761052887681991,7.01595307838903 l9.862545415490338,-0.7830540987219243 " fill="none" stroke="black" stroke-width="1" /></svg>