<?xml version="1.0" encoding="utf-8" ?>
<svg baseProfile="full" height="105.66584805961088" version="1.1" width="107.15181967872262" xmlns="http://www.w3.org/2000/svg" xmlns:ev="http://www.w3.org/2001/xml-events" xmlns:xlink="http://www.w3.org/1999/xlink"><defs /><rect fill="white" height="105.66584805961088" width="107.15181967872262" x="0" y="0" /><path d="M25,25 m0.0,0.0 m33.34940873767523,6.441305331961987 l0.0433227221129796,0.34550965550061014 -0.3525655603324233,1.0673791877549366 l-1.6229623663161976,1.9691110257577897 -2.3231683578478055,2.1289875407958117 l-2.6952504090683673,1.8145511325949828 m-6.040166760650716,0.29336478003853617 l0.6362786319060701,0.8040188125774096 0.2820218991336444,1.4992655479962815 l1.6563160782282362,19.894937412350497 m-1.2865589523457317,-21.405666720166952 l25.00537804401875,-2.3001135749693886 1.5204431644432173,0.0482896893700876 l0.5855283358576892,0.5440461467381283 0.10194898793015311,1.1262559194689952 l-2.950149385734738,19.83143962227243 m-24.091945427309696,-10.374059811829774 l16.267110739456456,-1.1463615468900246 9.231951918384,-0.37146239536333436 m-24.225504336487383,10.088607491852715 l23.219990189128538,-1.2411487560906687 m-35.595505950358984,12.58829151006328 l-0.5597104245638903,1.8666206964846594 -1.341458569867824,2.7819235054498272 l-1.640086973437284,2.722521883972467 -1.7435214788843507,2.2620184319254797 m11.478995274652636,-12.313910931697546 l3.11030200491139,4.354680829851729 3.6550312792667294,3.4875935965045293 l4.594307970217375,2.4673845848439533 4.345298210476593,2.301672507880449 l3.6894087869932637,1.1509423379218107 4.008087656752961,0.6416007124190589 l4.605502826263928,0.2962519022701361 4.710351811246614,-0.08872433513306764 l3.1219965688925786,-0.46039975650884757 1.3934490903179537,-0.846087071926407 l0.04954369655363385,-0.5523515619184324 -0.34023433011907617,-0.6352290719366042 l-1.7740680906975832,-1.5066118363843675 m-21.680892355269883,-11.639408896869924 l1.7330497366434128,2.5203501409566247 1.2082327782718982,1.1095674047879285 l1.021079555011073,0.0975088042806501 0.7384436937304293,-1.1075606509099227 m13.759456997455292,-3.870769164482745 l2.4434632671781946,1.0327037922999824 2.4979113077546486,1.4816421459802367 l2.0152371209782127,1.6646286776626145 1.3367203261707699,1.536263182987843 " fill="none" stroke="black" stroke-width="1" /></svg>