<?xml version="1.0" encoding="utf-8" ?>
<svg baseProfile="full" height="98.6329707950087" version="1.1" width="101.77276408264575" xmlns="http://www.w3.org/2000/svg" xmlns:ev="http://www.w3.org/2001/xml-events" xmlns:xlink="http://www.w3.org/1999/xlink"><defs /><rect fill="white" height="98.6329707950087" width="101.77276408264575" x="0" y="0" /><path d="M25,25 m0.0,0.0 m11.254964357105756,17.61940670728631 l0.1297475878045834,0.4448855913638248 0.18985865327310053,0.9971085855212247 l1.4413247806019296,15.038092471060855 m-1.3610164334391561,-15.907252582373598 l11.375367392661499,-1.9408340116680414 0.9607945112632862,0.03879179336844054 l0.35691867612407546,0.3321912736210857 0.21483639445443412,1.1540283176717767 l-1.6414070666337903,13.535635534038114 m-10.187051193063585,1.3538208081377272 l11.029847985352438,-1.4211698062563454 m-7.086902988539541,-26.892559857154012 l0.7434951786612344,1.1725027510784802 0.3541907527448593,1.5305831912597045 l-0.09793065934816501,37.27637686696173 m-7.22939799325122,3.6623332694114397 l0.7289391088240844,0.6390298916799793 0.71559481474704,-0.09506709318441772 l12.199136034801684,-8.306994011684328 m-2.0621572461881996,-4.774013684869739 l1.1856055018786156,2.147714349426909 1.2245567569248437,2.8615304449137278 l0.9448718212900611,2.9180115481354076 0.43816270266012547,2.1475891574405463 m10.888027545863773,-43.56745419071154 l0.715764661855274,1.0356290497456209 0.3810367245205136,0.9973188079078207 l-0.052914116490532105,7.008605444367631 m-9.447404946449405,1.0374827252019496 l-0.5345902449113297,4.707065891548026 -1.1137835272150314,5.209721798949461 m1.7604428090077655,-8.522997492084299 l12.917728867250606,-2.3018825658262014 5.995400682848789,-0.7154131664133997 l1.2212271920141615,0.0365582011810877 0.7033958439008628,0.33099619638506367 l0.2765459493022852,0.5183167473704262 -0.05175804705769606,0.6698209737797374 l-0.7650625605612941,1.547547008772442 -1.6166680696576496,2.109799334698842 m-15.58185317303344,3.4726042489237043 l0.45628241796762486,1.857572678244306 0.06863011463561403,23.95962965685289 m0.3150196321287705,-25.56099648901279 l10.381722562945038,-1.8741772967836818 0.6119176579157257,0.06032123274567679 l0.7592169630793923,0.8555118646119256 0.13011488976302568,0.6032075324434429 l-0.1792998702810386,26.042278660631588 m-11.953716376121921,-16.9380446365588 l7.861293707235852,-1.2523716173059456 m-7.79854835678165,9.969052017449686 l7.658149594532408,-1.177361156702228 m-15.105468962760801,11.692318313607336 l2.1452141447017206,0.3050744214880278 19.748749202664683,-1.7166913872074607 l3.651173578378899,-0.06278785851406417 1.5044281607447423,0.26227366950734965 " fill="none" stroke="black" stroke-width="1" /></svg>