<?xml version="1.0" encoding="utf-8" ?>
<svg baseProfile="full" height="110.72655657537297" version="1.1" width="98.54737093035703" xmlns="http://www.w3.org/2000/svg" xmlns:ev="http://www.w3.org/2001/xml-events" xmlns:xlink="http://www.w3.org/1999/xlink"><defs /><rect fill="white" height="110.72655657537297" width="98.54737093035703" x="0" y="0" /><path d="M25,25 m0.0,0.0 m6.582377032377013,4.236260609294146 l0.4496827267785887,0.1808577432191064 1.8711028557257696,0.1360129745202004 l9.23690305462518,-2.3452662802488042 1.1459416250886703,0.354356138215427 l0.3340061072546273,0.5583954060904508 0.028934931751631848,0.7421023441138112 l-0.30463181360865027,0.9826133024680648 -5.184323421365698,10.991860814528566 m-0.007062547146967168,0.4127727533044116 l2.027017522946655,2.1326508810251363 1.482909088567302,2.6742095889847897 l1.1879684994300916,4.034043532995002 0.33681138849569237,3.9541315679660562 l-0.40636032265940814,3.529556593252641 -0.9764187510465079,1.485606339857836 l-0.8796501246595629,0.31557550769367404 -1.7361532503288568,-0.6906091829791824 m-6.690241124059125,-29.575485579559537 l0.552065135093721,1.115519862118433 0.16077341753569344,1.363347085041348 l0.028407217462199656,46.34892441386932 m26.48699235533254,-52.564625745110526 l-0.12191160995933942,1.7484186990788844 -0.8379568563029675,1.0099866381490834 l-4.726549084589691,3.8232277879518217 -5.216504317192479,2.623576271682451 l-6.443766793102761,2.107796644388617 m-0.2885807171698092,5.987843103928525 l1.8431348013011253,0.3408400709787589 2.9307435340669,-0.10693783771472724 l18.453172668785438,-2.480632201909914 2.4686037929329077,0.310011009592452 m-26.206228451267616,13.52680353149351 l1.8722972921811514,0.2998770923379675 23.54874645097577,-2.503094830659576 l1.7548488246920362,-0.08758659562184401 1.6889201601451582,0.2565649616435087 m-24.6318680385042,-6.1183043378430035 l0.6493054753102054,0.7834450939264287 0.6981662344253257,1.7103943301138684 l0.742123681607942,7.281858054252733 m18.674742574616428,-12.34208030974482 l0.14095885230032695,1.6735530354840933 -1.703691664135573,9.811918662046587 m-22.41032475699413,5.066192817597957 l3.0795561880667144,0.1888291059941759 20.505057831250493,-2.3202931826009343 l3.2751352780804415,-0.09945263763233403 m-14.596580097430218,-26.25448342997597 l0.5290192993321354,1.001175351214077 0.16455497615135742,1.8037753520656918 l0.0167152065626881,48.75311618813372 -0.27456731340064355,1.7980697601908806 l-0.5131793388103201,0.7593377061699234 -0.6570188219839026,-0.042996315667772844 l-0.7294273354699428,-0.6091245596469214 -1.8945069960923937,-2.6788160823097904 m3.236776263208286,-23.149569988829274 l-2.8285177475914796,5.050538204718089 -4.239736892220852,5.851494015868797 l-4.528373699055732,4.893042322962451 -4.123487454245467,3.320582332009374 m16.517485453796787,-19.18870961355936 l14.106620785561478,16.401836213621984 1.4915772675318208,1.3506852357754489 l1.4048344194030233,0.6449507660482071 " fill="none" stroke="black" stroke-width="1" /></svg>