<?xml version="1.0" encoding="utf-8" ?>
<svg baseProfile="full" height="100.52236657096415" version="1.1" width="106.50189956556422" xmlns="http://www.w3.org/2000/svg" xmlns:ev="http://www.w3.org/2001/xml-events" xmlns:xlink="http://www.w3.org/1999/xlink"><defs /><rect fill="white" height="100.52236657096415" width="106.50189956556422" x="0" y="0" /><path d="M25,25 m0.0,0.0 m8.485070629311895,12.149333738822472 l0.4774989107008575,0.20044244330032615 3.4418430829028877,1.9387050300232929 l1.3511129031686921,0.9974170231159896 0.7385478579620883,0.8670143357006074 m-9.710650665995805,8.856456423845165 l4.050912331694701,1.8796974335149923 2.2082392447420567,1.6263617930666 l0.7823783434304221,0.9396422005073707 m-6.97939411293442,21.006383513014885 l1.1456018585341523,0.06091263605244358 0.8890296849201377,-0.6832071585396469 l2.076769333801565,-4.053989237728787 2.1501210452990547,-5.19353649757603 m5.496423521193151,-20.54490844813932 l2.900103422487575,0.15168065256661414 11.776988411257486,-1.2665423862644798 l2.7766468522668397,-0.21070223550088796 m-8.725240574773428,7.328727895987311 l-0.2861607386364177,1.2231397496391518 -1.6112565151168514,1.476265115433199 l-3.5957755684622255,1.6631206368245304 -4.843681326533971,1.6787722389104034 m-2.170969126255118,-7.48383464633848 l0.5309919978335043,1.2427047595949579 0.006150983333473759,10.284380445768205 l0.36523574290145033,1.1073811403416767 0.6657349479443259,0.5424476222354868 l1.461192091440398,0.32700443330347134 7.217949296998107,0.09818475051504588 l2.8050446803902886,-0.33598516101044223 2.2574694504510187,-0.41017914058419036 l1.7571329596836354,-0.4098807191048645 1.0162462986402772,-0.541780736160221 l0.6132291837240442,-0.5940631432154311 0.3615144152675388,-1.1133107527436852 l0.06281254045202558,-1.6533770180470477 m3.302506323229058,-23.960937592945694 l0.40941764372684625,0.1992566324259443 0.4709965071995779,0.12389722795043014 l12.602795478845545,-1.1548517601568347 1.4806508312911988,-0.009432542424932544 l0.9670746026676642,0.44203237749712426 0.3028330204263373,1.0048126455801234 l-1.6562745249838708,8.15998639769938 m-14.039234833192186,1.5847905741139796 l2.1059613546369533,0.1622229350677635 12.372559015511296,-1.2648796310268202 l2.3401127802725963,0.0869419225794392 m-16.154904463043696,1.8096758228899985 l0.4900181893895156,0.7886009465953598 0.16094822714503026,0.9699600272388575 l-0.24455778773449183,17.00361470127846 0.29821277829524834,1.5270181399847051 l0.6881717337231428,1.1987658667012224 1.491733714840995,0.8321112428483033 l2.846826774331036,0.4536205849957842 6.878095280948449,0.04428649520782616 l3.716593202408778,-0.36987754047872984 1.3861486093342112,-0.4426861483122044 l1.5295396360648286,-0.9982651868390058 0.6138307085010971,-1.1698195553530553 l0.1969813677036399,-1.912102576576339 " fill="none" stroke="black" stroke-width="1" /></svg>