<?xml version="1.0" encoding="utf-8" ?>
<svg baseProfile="full" height="106.47688607219607" version="1.1" width="109.49251511134207" xmlns="http://www.w3.org/2000/svg" xmlns:ev="http://www.w3.org/2001/xml-events" xmlns:xlink="http://www.w3.org/1999/xlink"><defs /><rect fill="white" height="106.47688607219607" width="109.49251511134207" x="0" y="0" /><path d="M25.000001540889656,25 m0.0,0.0 m-1.5408896558710694e-06,16.73250913619995 l0.12058340944349766,0.6963065266609192 0.9577792882919312,6.5709006786346436 l0.24790937080979347,5.030152797698975 m21.102454662322998,-17.472784519195557 l-0.30825698748230934,1.1625385284423828 -0.5598003789782524,0.7312828302383423 l-6.415609121322632,4.730482995510101 m-4.748910367488861,-16.121678352355957 l0.5496697500348091,2.938370704650879 -0.11397222056984901,15.693732500076294 l-0.4922182485461235,9.79695439338684 -0.8528502285480499,6.161561012268066 l-1.414797604084015,5.032299160957336 -1.5146276354789734,3.236072063446045 l-2.7379947900772095,3.8629627227783203 -3.689780533313751,3.656145930290222 m13.007262945175171,-18.50329041481018 l2.414172738790512,1.5976406633853912 2.3969975113868713,2.2460000216960907 l2.5301045179367065,3.0560916662216187 1.4822454750537872,2.538692057132721 m13.991968631744385,-42.77740478515625 l-0.2564298175275326,2.037394195795059 -0.8415791392326355,2.2603125870227814 l-3.441457450389862,6.996699571609497 -3.8361263275146484,6.079263687133789 l-4.491642117500305,5.562580227851868 m10.390925407409668,-10.860377550125122 l2.6746615767478943,0.08062002249062061 12.75822401046753,-3.6567720770835876 l1.2562857568264008,-0.02679134253412485 0.38254812359809875,0.7344137877225876 l-0.3914487734436989,1.362556666135788 -1.0655708611011505,1.8592028319835663 l-2.643531560897827,3.4278604388237 m-10.345125198364258,5.078099370002747 l0.6474648416042328,2.736921012401581 -0.8652395755052567,7.00814962387085 l-1.4316147565841675,5.794443488121033 -2.4130992591381073,5.881750583648682 l-2.8356778621673584,4.499156475067139 -2.754454016685486,3.1201401352882385 l-4.632263481616974,3.654714524745941 -4.277311563491821,2.2510094940662384 m18.526190519332886,-24.594721794128418 l8.9049232006073,9.760099649429321 8.77646803855896,9.04411256313324 l2.715809941291809,2.2764141857624054 3.0292552709579468,1.8636755645275116 " fill="none" stroke="black" stroke-width="1" /></svg>