<?xml version="1.0" encoding="utf-8" ?>
<svg baseProfile="full" height="91.88241900871292" version="1.1" width="103.64714106544723" xmlns="http://www.w3.org/2000/svg" xmlns:ev="http://www.w3.org/2001/xml-events" xmlns:xlink="http://www.w3.org/1999/xlink"><defs /><rect fill="white" height="91.88241900871292" width="103.64714106544723" x="0" y="0" /><path d="M25,25 m0.0,0.0 m6.531804169416044,4.321690826162612 l0.43269591979996735,0.18921818104095645 1.725726624898551,0.19180536006418664 l23.43574702166956,-2.3995569400769354 2.170559576040432,-0.18749291708223148 m-21.21233446192257,3.185762999654446 l0.6357545215764544,0.9482615573027494 0.2089098859547102,1.1118732906562379 l-0.07954076843128137,23.284114266738996 m0.5797496955457164,-18.15012311742391 l12.646489685464962,-1.2371770809105882 m-13.27745936450346,9.534637256755007 l12.999213467877208,-1.5282576914087322 m-20.645937045263864,13.493285636566252 l0.8413525825570842,0.4341369154804521 1.0944294022922159,-0.1468066300478327 l18.164511269053882,-6.759082258220023 m-0.8014134069635479,-22.767015454699177 l0.5929305704242062,0.7184276655506625 0.1909464308785374,0.9004557017176323 l0.007194969921774194,36.74426144089215 m7.477962536407028,-26.497023712831194 l0.4345434225536775,0.27350389618139953 0.600951254720599,0.05195602097113053 l11.517802187939678,-2.4863788262373236 1.2439566318632302,-0.03119926633548423 l1.0793648434843657,0.6164905226365999 0.30968967145079607,1.1391258888996538 l-0.25889211842461746,0.6960315732155304 -4.596376325984726,6.661195123859099 l-2.587778165803738,3.0572238887006997 -2.056302191239256,1.9947253303710348 l-2.8898744489475923,2.3069818106009907 -3.1538826659108032,2.053899610066605 l-3.353398361964776,1.7923681086060963 m1.510662635690961,-15.254835877879671 l1.7227238448847577,1.4101550144363661 8.603635163108589,8.226387011447914 l4.851843294144344,4.086683530731658 3.90815598506609,2.7090969822643767 l3.0410231261220426,1.5394915633857438 " fill="none" stroke="black" stroke-width="1" /></svg>