<?xml version="1.0" encoding="utf-8" ?>
<svg baseProfile="full" height="99.51572921204877" version="1.1" width="92.17758332590878" xmlns="http://www.w3.org/2000/svg" xmlns:ev="http://www.w3.org/2001/xml-events" xmlns:xlink="http://www.w3.org/1999/xlink"><defs /><rect fill="white" height="99.51572921204877" width="92.17758332590878" x="0" y="0" /><path d="M25,25 m0.0,0.0 m6.594956568023598,19.325063565323298 l0.43184005717753055,0.34174749600051685 1.8867012976822843,0.8722806131184503 l1.5532209446333969,-3.0495609889478734 9.567665620048075,-7.445229152920804 l3.33975118822077,-0.5893501987593769 6.395992759489244,0.7320054694280015 l3.207891130194984,0.9747311235500161 3.2241177452735963,1.6660168324303275 l2.201897602364474,1.7432615211106945 1.2305871025325792,1.431057812831206 l0.9444401065615062,1.5302465052574037 0.7638179127234829,1.8065342313752657 l0.5439061663093927,1.985871738123624 0.29079712467386665,2.8363489130636115 l-0.016327096060156025,3.2871253268927396 -0.7675728406683955,3.6063548581163594 l-1.8289362260158095,2.3579200240239198 -2.8992201794544217,0.8948403415818795 l-3.4912881081514415,-0.0061222401376309025 m-11.534645409746558,-30.522585423924102 l0.777314440879609,1.2507184100292568 0.4962060805870469,2.324865927657098 l-0.10795828994961992,19.322099413852207 -0.4792942032062167,6.797473611107542 l-1.3442271933551682,6.908954139071734 -2.0755526259695256,4.2657303291796715 l-3.224762228074636,3.0451759882623124 -3.6580642387301996,1.8221530253514362 " fill="none" stroke="black" stroke-width="1" /></svg>