<?xml version="1.0" encoding="utf-8" ?>
<svg baseProfile="full" height="101.16284205264711" version="1.1" width="111.08571901006725" xmlns="http://www.w3.org/2000/svg" xmlns:ev="http://www.w3.org/2001/xml-events" xmlns:xlink="http://www.w3.org/1999/xlink"><defs /><rect fill="white" height="101.16284205264711" width="111.08571901006725" x="0" y="0" /><path d="M25,25 m0.0,0.0 m13.431992610666542,12.741904257548532 l0.33722247768729147,0.38737761697438183 0.4511049331806487,0.9058404565532404 l0.08262556312173719,16.28832005169539 -0.4712731054866136,5.297999655550837 l-0.9104963132977696,4.7436235933607716 -1.5244736716818408,4.31412954058791 l-1.726164116999357,3.0677506866648807 -2.137535322287217,3.4158961937111534 m7.35892587650437,-37.74745746298517 l24.39035557124385,-1.8196296456150918 9.978429532105514,-0.06385339494309898 l1.1806291614619089,0.21146042009035876 0.7842819701765728,0.7570821244704451 l0.16312945568435103,0.568964995501123 -0.6628425677351798,7.449120919584221 l-0.3073747087309576,7.712999624644926 0.3071816561124969,5.257892966565874 l0.9556457562498785,4.816966900833542 1.2738614309403844,3.517619184529517 l1.668490557748127,3.1511891082485177 2.1212185831543446,2.787601116170153 l3.4164293008998183,2.3824279237060475 0.9243543793483511,0.18375424983235247 m-23.811433894568736,-33.57450330561556 l-0.14222435358706093,1.5720594580563598 -0.7653357897281529,1.1411736732007498 l-2.242585545068997,2.0734195193216043 -2.908274226166123,2.085540941262971 m-4.587813986649906,0.44051121988374187 l0.7583001256818417,0.7648453244000323 0.35195870386619743,1.1127365891643328 l-0.004332583631328458,18.286475222502315 m0.3281923651128486,-19.24013118616424 l14.659821812165138,-1.8449393139898074 0.8833607863714732,0.08023913247556222 l0.4389097974855919,0.3778986284964929 0.3946638924056737,1.1340128270372076 l-0.026149780469868725,18.26752829401805 m-16.50705703719024,-10.716819862358111 l10.295192746074985,-0.8357009959757331 m-9.98459062391066,10.643373114848782 l15.820503383189905,-1.3013585824027343 " fill="none" stroke="black" stroke-width="1" /></svg>