<?xml version="1.0" encoding="utf-8" ?>
<svg baseProfile="full" height="109.49251260841265" version="1.1" width="108.14231177908368" xmlns="http://www.w3.org/2000/svg" xmlns:ev="http://www.w3.org/2001/xml-events" xmlns:xlink="http://www.w3.org/1999/xlink"><defs /><rect fill="white" height="109.49251260841265" width="108.14231177908368" x="0" y="0" /><path d="M25,25.000000266662212 m0.0,0.0 m31.025004386901855,-2.666622123115303e-07 l0.057773576118052006,0.5209414288401604 -0.558355525135994,1.6692321002483368 l-1.1166293919086456,1.4221438765525818 -2.632451355457306,2.8318846225738525 l-3.35543692111969,3.0198934674263 -5.777357816696167,4.14762020111084 l-7.492939233779907,4.0696099400520325 m18.03841233253479,-12.126575708389282 l2.041333019733429,0.3763442486524582 2.6941418647766113,-0.11657736264169216 l11.811268329620361,-1.9529183208942413 1.3353203237056732,0.6479126960039139 l0.4152679815888405,1.2736298143863678 -0.253942608833313,0.7337570935487747 l-1.5673938393592834,2.229994833469391 -3.0443736910820007,3.276447057723999 l-4.012162983417511,3.4768596291542053 -4.850369095802307,3.5147225856781006 l-4.107472598552704,2.5655382871627808 -9.186325073242188,4.654526710510254 l-4.965263605117798,1.9522245228290558 -5.141522288322449,1.612437665462494 m15.040713548660278,-18.424874544143677 l3.9868664741516113,2.3303641378879547 3.5134169459342957,3.0042260885238647 m-15.34361720085144,-0.0200534681789577 l3.2651862502098083,2.7401649951934814 2.57059782743454,2.9353544116020203 m-6.1886268854141235,10.726953744888306 l3.298969268798828,3.566620945930481 3.0519625544548035,4.844167530536652 m26.947946548461914,-13.787322044372559 l0.2725476585328579,0.4295481741428375 -0.011301751947030425,1.110101342201233 l-1.4853031933307648,2.423715740442276 -3.01728218793869,3.7934717535972595 l-3.3254078030586243,2.9320907592773438 m-9.980140328407288,-14.67514157295227 l0.62996044754982,0.8956536650657654 0.15875494107604027,0.9560384601354599 l-0.17372872680425644,3.859405815601349 -0.7649286836385727,5.251193642616272 l-1.8879230320453644,6.072427034378052 -2.7773749828338623,5.114103555679321 l-3.5545438528060913,4.264799654483795 -4.22171413898468,3.527778387069702 l-4.775296151638031,2.903040647506714 -6.577700972557068,2.9190343618392944 m23.898022174835205,-21.66280508041382 l8.293282389640808,7.75210440158844 8.812918663024902,7.339528799057007 l6.4771682024002075,4.535715281963348 2.6523619890213013,0.753912553191185 " fill="none" stroke="black" stroke-width="1" /></svg>