<?xml version="1.0" encoding="utf-8" ?>
<svg baseProfile="full" height="106.61988588566746" version="1.1" width="98.2785637442834" xmlns="http://www.w3.org/2000/svg" xmlns:ev="http://www.w3.org/2001/xml-events" xmlns:xlink="http://www.w3.org/1999/xlink"><defs /><rect fill="white" height="106.61988588566746" width="98.2785637442834" x="0" y="0" /><path d="M25,25 m0.0,0.0 m27.96540475443906,8.346416592668886 l0.344717660387146,0.4406133366827095 0.4036202576181555,1.511115972416365 l-0.03646983170058071,3.9776777950763056 m-18.52629459903612,1.6808467013687205 l4.0779233866467,0.14026522308370473 15.195150202397363,-1.2880835266956852 l16.439241418700945,-0.7669856644636356 2.4152704948307395,0.34672616055601124 m-24.719394257990857,2.6866717914757032 l-0.14877994589854426,1.2530332134385251 -0.7729749014727905,1.245045592839057 l-2.1582755474050805,5.229656977612178 -1.5901988907282205,6.216120046428541 l-2.123241669882665,4.974732615789179 m5.598588080057191,-11.172496871295131 l2.4595194365831086,-0.12666098978179696 11.56874428815046,-1.9392619129335116 l0.8138285103159598,0.1183612975461277 0.42241114022871534,0.3890340231689714 l0.17156160005563229,0.5554065646610163 -0.07958370687026282,0.6159728252604273 l-1.909182697192598,2.4468684407729255 -2.6073025617601417,3.220065668072527 l-2.942557199626444,3.1358368664679297 -3.4856020273195276,3.1203818887806083 l-2.9299569641764505,2.227209948973903 -3.152281725011941,2.049668770189845 l-3.414481809603435,1.8047268383896424 -3.660692189723967,1.5092942809362626 m9.509553701202517,-16.874393353823972 l1.801840180423761,12.527285252040585 1.3713610477179494,8.662203607534247 l1.055531806573917,5.932325765292624 0.7238037079614896,1.2585509158793409 l4.3757348483206435,1.1656532312583414 5.643668595810701,-0.04131609228559654 l3.225992016358133,-0.41758499879684147 1.399164139863096,-0.5978966184419362 l1.0636067217662462,-1.2276117369731325 0.5021660935959334,-1.491757450385172 l0.2175260685456524,-2.7894718350951506 " fill="none" stroke="black" stroke-width="1" /></svg>