<?xml version="1.0" encoding="utf-8" ?>
<svg baseProfile="full" height="115.11509069432445" version="1.1" width="100.47260019957524" xmlns="http://www.w3.org/2000/svg" xmlns:ev="http://www.w3.org/2001/xml-events" xmlns:xlink="http://www.w3.org/1999/xlink"><defs /><rect fill="white" height="115.11509069432445" width="100.47260019957524" x="0" y="0" /><path d="M25,25 m0.0,0.0 m25.986261622668184,3.501031531370123 l0.432424618983729,0.4685489355279055 0.6215491178488819,1.6320581773038234 l-0.0075971553071874,5.781429461613598 m-23.707318610002577,1.6945254921856703 l2.404316869614381,0.25690116511319444 2.583811053422459,-0.025344661472650524 l21.623105796104255,-2.642550394700539 12.375341443956641,-1.2016762405218173 l5.036170149086634,-0.19439386942254544 3.124535293199833,0.4110419297516416 m-39.5781559883709,4.4654003512573235 l0.6558688158447441,1.4300288743677005 0.02862938217698718,3.686218282157343 l-0.6415687717344548,7.270435305132637 -1.307901497625666,7.013259592812947 l-1.4153658872080501,4.715197591729529 -1.9519942217535706,4.649955316290957 l-2.4495450682096473,4.3372423008112735 -2.370491246671225,3.1167112080966057 m34.89394495214231,-30.635589102150675 l-0.7321849947352149,1.6511494271862575 -3.386816724628551,3.4218510042685293 l-3.6108264953170943,3.013902064689551 -5.79990824122987,4.281269534184482 m19.553617770441484,-0.10229016265552539 l-0.42632589314621866,1.667118453075961 -1.348410006655062,1.0462347424008287 l-7.077255565439669,3.5702249421687906 -8.057767144046476,3.2499914275401776 l-8.955733488897918,3.0255741586727005 m29.54524524510506,-4.144889278018134 l-0.5196396511372394,1.5082120054536632 -1.5953161223286556,1.1848635097863818 l-3.5449401544779393,2.210710644803089 -4.185637878787816,6.17503180026266 l-5.496659535273186,7.683659108573663 -5.083068169887164,5.942046064677331 " fill="none" stroke="black" stroke-width="1" /></svg>