<?xml version="1.0" encoding="utf-8" ?>
<svg baseProfile="full" height="109.22540294006467" version="1.1" width="109.49251393787563" xmlns="http://www.w3.org/2000/svg" xmlns:ev="http://www.w3.org/2001/xml-events" xmlns:xlink="http://www.w3.org/1999/xlink"><defs /><rect fill="white" height="109.22540294006467" width="109.49251393787563" x="0" y="0" /><path d="M25,25 m0.0,0.0 m8.005406260490417,7.440363764762878 l0.6973471492528915,0.19122952595353127 2.883152663707733,0.27233006432652473 l3.62643301486969,-0.2536756731569767 32.93133735656738,-3.726365566253662 l5.027201175689697,-0.24682488292455673 3.8223129510879517,0.33492449671030045 m-47.56993293762207,4.072477221488953 l0.6889957189559937,1.1692047864198685 0.22838404402136803,1.3499000668525696 l-0.09339195676147938,9.802339673042297 -0.48106323927640915,7.454820275306702 l-1.1806880682706833,7.59451687335968 -1.6579551994800568,6.033552289009094 l-1.7648160457611084,4.429312646389008 -2.2867825627326965,4.297966659069061 l-2.875940203666687,4.120308458805084 m20.359349250793457,-28.741180896759033 l2.414521872997284,4.86510694026947 1.8847733736038208,5.702531337738037 m27.890849113464355,-15.390987396240234 l-0.2339121326804161,1.8050548434257507 -1.7073996365070343,2.470514476299286 l-3.991999328136444,4.588369727134705 -3.5903698205947876,3.2790881395339966 m-8.557972311973572,-18.58580231666565 l0.5739732831716537,1.0412755608558655 0.2662977762520313,1.4516361057758331 l-0.877390056848526,9.397674202919006 -1.4005783200263977,7.379656434059143 l-2.5115126371383667,7.795711159706116 -2.628812789916992,5.247755646705627 l-3.1891199946403503,4.505234956741333 -3.75891774892807,3.889504075050354 l-5.512725114822388,4.187879264354706 m17.917684316635132,-23.420538902282715 l17.940841913223267,16.665724515914917 5.004424452781677,4.127900302410126 l3.2005083560943604,1.9772090017795563 " fill="none" stroke="black" stroke-width="1" /></svg>