<?xml version="1.0" encoding="utf-8" ?>
<svg baseProfile="full" height="99.3166966792628" version="1.1" width="117.19030686090291" xmlns="http://www.w3.org/2000/svg" xmlns:ev="http://www.w3.org/2001/xml-events" xmlns:xlink="http://www.w3.org/1999/xlink"><defs /><rect fill="white" height="99.3166966792628" width="117.19030686090291" x="0" y="0" /><path d="M25,25 m0.0,0.0 m7.517573105574245,9.466323930469773 l0.4525563748735829,0.4133097405464817 0.5978740975797473,0.855924947869224 l0.22978189002737076,1.1430572575601108 -0.0028937528591983785,15.931899446901566 l-0.4147564651315059,5.192533263087662 -1.0230171723666137,5.13294862982487 l-1.7378059746343824,4.84355897351366 -2.064448224268687,3.4791070821794654 l-2.542325077832257,2.858033407309999 m8.931873715099515,-39.35579839896901 l26.308673046454317,-1.9845818952769312 15.006272200466189,-1.03298724144351 l1.5632573447372067,0.06986261388394015 1.3519431904869372,0.6586968019480612 l0.4373896835490863,0.4949156910835045 0.19032497914846644,0.5873195844704412 l-0.06483793126549962,2.1014685931259023 -1.0025926262950031,7.945448391537455 l-0.6589796759339696,7.044140736554729 0.6154163754518245,5.86938786918689 l1.2292350845165851,4.7434403497190925 1.5046767189287051,3.582843889120305 l2.032209265461722,3.259958860392587 2.6855207909888628,2.8514418233790937 l3.5408893268316977,2.1974343116379047 0.9078285916745543,0.3721726420943861 l0.8325244831506959,-0.10650413853106544 0.42869509973091746,-0.5213550816553392 l0.3374483967578025,-1.8308393758140622 -0.03356613532626486,-3.0714177856381064 m-26.29751957253929,-34.43364449466283 l-0.4130733519202712,1.050091910852114 -1.0311354022275852,0.8261281846204386 l-4.967012847947316,2.205929602072846 -6.407346015138948,2.1802284534563885 l-7.735101434933608,1.7945704620505423 m-1.882798801971515,7.33824423611833 l1.2205666846076872,1.1992767840032286 2.073906262212415,7.54637495985969 m-1.278766689776083,-8.185730731687883 l16.25815574219786,-1.7590071461309256 7.261950476077349,-0.4403388062085242 l1.5064818454312394,0.5055198190312236 0.2619706154615395,0.4975743975415337 l-2.163463925674773,5.87263133430958 m-21.186433529348857,2.5503250258028642 l22.609140369636815,-2.0020134611327673 m-13.62348821289522,-14.108828070946817 l0.7992293732944952,0.9535080309313656 0.23041066405412564,1.1194096260866115 l-0.15898817324772954,21.738067383860614 m-14.35381461570587,2.5115171208116682 l1.3804801739858967,0.34954219042827894 1.179185350297138,-0.025373681468710066 l23.650102207409002,-5.236403491286219 m-2.5797436860878906,-3.4230863781771728 l4.315938531375029,4.083224327995911 3.236819329591909,4.66026759170852 " fill="none" stroke="black" stroke-width="1" /></svg>