<?xml version="1.0" encoding="utf-8" ?>
<svg baseProfile="full" height="134.76816055261855" version="1.1" width="94.08172004301868" xmlns="http://www.w3.org/2000/svg" xmlns:ev="http://www.w3.org/2001/xml-events" xmlns:xlink="http://www.w3.org/1999/xlink"><defs /><rect fill="white" height="134.76816055261855" width="94.08172004301868" x="0" y="0" /><path d="M25,25 m0.0,0.0 m7.792416857124189,20.64217382682783 l0.44175199947946026,0.3758764878768379 1.7103100913036289,0.9110918832197346 l29.700671780156213,-5.09314538985517 1.5695903267268292,-0.19748304062340935 l1.3983737222495507,0.29439495649707975 1.1034497592033155,0.8711395945670817 l0.3651555067754883,1.5339427894779505 -2.707101122555185,18.66523286972632 l-2.8303533529026024,11.54813258585366 -3.1888990982833025,8.723231067909998 l-1.461152096753731,2.959920994429641 -1.591861509728088,2.8683487253055056 l-1.322832977255795,2.210812753832797 -1.269128748323684,1.6319526815670142 l-0.6642439352575975,0.6531458251982588 -1.0800513606651818,0.04539351438531222 l-0.993511206339198,-0.5063733418696053 -1.007677579134134,-1.1242995799042181 l-1.6141985090703497,-2.84391725707025 m0.9289888707047498,-41.79588425686951 l0.11098085876554191,1.6549643006318597 -0.20894764003458896,2.2288774219937224 l-1.5716831809888643,7.127072378869495 -2.4144305469082026,7.151068972392099 l-3.281245862515607,7.373823976007349 -3.3987130761966933,6.050061322437212 l-4.13179147884462,5.79834466449222 -4.934154979128777,5.28899517307176 l-4.343973941017974,3.7181519476821876 m5.184342965481987,-35.3749559489 l1.4711089820558143,0.5103996010731663 0.9955573728669368,0.7974945170750112 l10.572107985969351,24.560679395472647 4.677976262088512,8.155309403075293 l5.118097100971897,7.523706326296088 4.469384259815848,5.313378372661434 l4.04828639720729,3.3418395411930035 2.4426682073448815,1.1752614966111514 " fill="none" stroke="black" stroke-width="1" /></svg>