<?xml version="1.0" encoding="utf-8" ?>
<svg baseProfile="full" height="116.47990881770266" version="1.1" width="102.47063539338812" xmlns="http://www.w3.org/2000/svg" xmlns:ev="http://www.w3.org/2001/xml-events" xmlns:xlink="http://www.w3.org/1999/xlink"><defs /><rect fill="white" height="116.47990881770266" width="102.47063539338812" x="0" y="0" /><path d="M25,25 m0.0,0.0 m14.701745148093135,4.93453806839357 l0.485557755118436,0.1414397502024264 3.0926796907989376,0.21873199466922413 l27.13217650487013,-2.529342124109096 4.150581252288637,-0.10262392056603069 l2.907895042218848,0.29004916632302186 m-37.06870379016462,2.4273369202602995 l0.049241909143419235,0.9385558161723179 -0.04178776969528618,1.1819962401966988 l-1.157463477286364,7.474904889032548 -1.3397781334300876,6.36164362570004 l-1.4113667489988664,4.892729128077029 -1.7654163378568217,4.696741365225431 l-1.743510747051084,3.546876637515031 -2.037109811407749,3.236793623815437 l-2.4642243120223157,3.09757766954856 m31.6418025652413,-17.70926539026513 l-0.04440668885601644,2.7667480185756474 -0.9140802300606006,2.3780810215230144 l-5.583274445236411,9.047535594015681 -2.893472335125645,8.298259027067822 l-2.4235753457208107,6.180813335779225 -2.0755524083190124,4.21975856658428 l-2.4168453355891275,3.7692449450530354 -2.9606099106720642,3.4663255264049355 l-3.6683862826481293,3.254459322507638 m15.031660302998928,-25.929444797900416 l7.874697782709027,9.929710738588556 10.609065567502668,11.63118601999803 l2.4622261740757203,2.999386928876117 2.515500540722747,1.3034717260855293 " fill="none" stroke="black" stroke-width="1" /></svg>