<?xml version="1.0" encoding="utf-8" ?>
<svg baseProfile="full" height="126.00668579197057" version="1.1" width="98.17082961151999" xmlns="http://www.w3.org/2000/svg" xmlns:ev="http://www.w3.org/2001/xml-events" xmlns:xlink="http://www.w3.org/1999/xlink"><defs /><rect fill="white" height="126.00668579197057" width="98.17082961151999" x="0" y="0" /><path d="M25,25 m0.0,0.0 m8.569816680348659,20.398250123787836 l0.42940889709285945,0.3137541981043121 1.8207543712603236,0.7305990705581328 l1.7164556490944642,0.03960947666132002 21.07694938276308,-4.1407483366193105 l1.8918603408082448,0.15006804013313357 0.9701935738534446,0.9205701603582833 l0.32729607408046923,1.6217855394898884 -2.5750431003198235,18.050808685893614 l-2.517098484709118,9.771767575387132 -3.6915970950437313,8.256827408972327 l-1.2598428386009315,0.7672116002335568 -0.56298246878109,-0.07135239262565873 l-0.8094917255882789,-0.6364912455733766 -2.194213933585953,-3.0647432555719423 m-0.5267640253665327,-32.81913287780777 l0.21427119266795422,1.5602586068793414 -0.025789338999979913,1.9891469927938201 l-1.0310183590721211,5.203501190779251 -1.9618846818730835,11.954824761307009 l-1.954972253648133,13.460913417297954 -1.716290499795037,7.413248458190653 l-1.5844220391506132,4.882455663183706 -2.7474305736344786,5.64724973169344 l-2.591091334326342,3.6063031984639116 m30.36399914538184,-34.232631194265025 l2.57109389854022,2.890160796824578 2.658911237684197,3.406400464031986 l2.171462884114051,3.7518442288239426 1.13828903632544,3.1968221564390413 " fill="none" stroke="black" stroke-width="1" /></svg>