<?xml version="1.0" encoding="utf-8" ?>
<svg baseProfile="full" height="119.12640519251345" version="1.1" width="99.04360831611649" xmlns="http://www.w3.org/2000/svg" xmlns:ev="http://www.w3.org/2001/xml-events" xmlns:xlink="http://www.w3.org/1999/xlink"><defs /><rect fill="white" height="119.12640519251345" width="99.04360831611649" x="0" y="0" /><path d="M25,25 m0.0,0.0 m28.94894224591843,4.430742993378067 l0.42126638997911897,0.4586042250387418 0.5331926838317047,1.671176760499103 l-0.07987988810959312,6.796300616016078 m-18.309583216567866,1.7405269139004844 l1.854051805703804,0.2603870477682045 2.0685895929957425,-0.04642475901432004 l28.134689474927093,-2.8443836342763005 2.8878317620068903,-0.054051831843614236 l2.5845074654311717,0.29857640205188785 m-31.812332772094447,3.5021872226617523 l0.5313259070825255,1.6203267447604712 -0.040114212878021985,6.591770172240725 l-0.5204355960801466,7.19408292937193 -0.9796042490725416,6.083348161019104 l-1.236233008820107,4.647358957155614 -1.7276471911502438,4.432690240847299 l-2.2429435743311026,4.117846051098468 -2.2217854853795105,2.9424805262099185 m28.021546006483206,-27.894185754846163 l-0.44621405658289853,1.5559755215808324 -2.4202707249608237,3.133786926973997 l-2.730548250170884,2.9108328970229946 -4.991296403514604,4.48647148708715 m16.234199305950288,-0.1457752628936599 l-0.6023859219527613,1.4685924915866937 -1.2328873606154735,1.1427869481421264 l-5.781037855042268,3.5013994504750188 -6.763725304843842,3.1181803318625883 l-7.752243365093692,2.8548243282421004 m24.91789023364264,-3.8150865092681787 l-0.5029513900977994,1.4185717794912447 -1.4519125282452399,1.0311961280448179 l-3.338289839134632,2.0492594307416634 -3.7026940830002073,5.6777461081096074 l-4.641979410775871,7.069341333582024 -4.62547424791594,5.718941817694959 " fill="none" stroke="black" stroke-width="1" /></svg>