<?xml version="1.0" encoding="utf-8" ?>
<svg baseProfile="full" height="105.74891212706567" version="1.1" width="100.11792969312182" xmlns="http://www.w3.org/2000/svg" xmlns:ev="http://www.w3.org/2001/xml-events" xmlns:xlink="http://www.w3.org/1999/xlink"><defs /><rect fill="white" height="105.74891212706567" width="100.11792969312182" x="0" y="0" /><path d="M25,25 m0.0,0.0 m27.937622960969776,2.2868111533450475 l0.39471153399598546,0.4942574232416919 0.5957265423987473,1.811188820283562 l0.006346934800610616,6.315719303339232 m-20.153702443871467,2.114810044943423 l1.9527839781726364,0.23757396398762212 2.280551287103932,-0.0266662254751062 l31.217123623228087,-2.882003544008587 3.291526623344645,-0.019859475799954562 l2.5952386529788707,0.33479783524299705 m-36.28197338491356,3.2909022139732658 l0.5254811561646178,1.6703514188884498 -0.10115205271053665,7.216283716680207 l-0.5994097901307143,8.090698086442345 -1.0320710083516784,6.652531220700761 l-1.3296026484564445,5.231562591013069 -1.8603907686284573,4.893498552520777 l-2.375388168238816,4.56904828544251 -2.3517632013271585,3.4674067423043655 m29.676944901042525,-33.42293261104525 l0.0005186103118214025,1.6288663562938324 -0.5690812490137243,1.5162014429895039 l-5.948551445173282,10.687680901908251 -4.993304934944017,12.825313759560812 l0.4855003362592203,0.2952683124747253 0.6618638673832551,-0.11963784300081629 l1.041032998820924,-5.423421165526487 6.81671400636645,-6.4564506643790205 m-0.4018591987628132,-6.77522039275162 l3.0937609551118803,4.086690065827041 2.315933437638165,4.149463078571229 l1.6591377650881625,3.952973170212566 1.0564989751584468,4.585538326641189 " fill="none" stroke="black" stroke-width="1" /></svg>