<?xml version="1.0" encoding="utf-8" ?>
<svg baseProfile="full" height="103.11329044061681" version="1.1" width="95.7837958687204" xmlns="http://www.w3.org/2000/svg" xmlns:ev="http://www.w3.org/2001/xml-events" xmlns:xlink="http://www.w3.org/1999/xlink"><defs /><rect fill="white" height="103.11329044061681" width="95.7837958687204" x="0" y="0" /><path d="M25,25 m0.0,0.0 m7.439673286061718,21.909620668864957 l0.39785577259443844,0.3015057587087164 1.6683553375043738,0.8039760792790609 l1.7496904972455345,-4.304546138144209 8.935113969869137,-3.6960037491611684 l3.560916465758626,-0.2623395040420224 4.173005133568096,0.5469406971592039 l3.5566675573997273,0.8962575494027558 3.0455828631414885,1.1792294988248153 l2.4196158389899165,1.2457638749217492 1.3838882636083911,1.2153426295233758 l0.9816964489331603,1.2501380601303549 0.7307257671551213,1.41495629807863 l0.5260127318646698,1.5913267842055248 0.3100753378091531,1.8973553068179916 l0.11892301838033907,2.431011687252934 -0.17325418263229078,2.713123290867037 l-0.9927096514728462,2.302003530751518 -2.237627540251031,1.2691573489232073 l-3.073971555993661,0.27527735214480636 -3.007187705884451,-0.8398228147950094 m-10.826135770934684,-22.87386350164486 l0.7087581719111169,1.0206984855009262 0.4021828428216064,1.8054130617313524 l0.009988300111437668,21.41372400909873 0.3383484981156933,4.805594753968849 l0.6849649374495257,3.2193275485079296 0.7704965290927795,2.419818754094112 l0.975127722010929,2.177814477984583 1.550152833345893,2.1030285191470015 l2.160608519608156,1.6754555397407416 2.750129790834096,1.0204123124611224 l7.932741533741288,0.1855922703121018 3.313100660131195,-0.4065017547459547 l1.2496716558556002,-0.6701155382930061 1.554374188447029,-1.6115551141707944 l0.5662196039873735,-2.2953509404719075 0.13001819854175845,-3.1713215144704923 " fill="none" stroke="black" stroke-width="1" /></svg>