<?xml version="1.0" encoding="utf-8" ?>
<svg baseProfile="full" height="99.70360719018393" version="1.1" width="105.71820218473212" xmlns="http://www.w3.org/2000/svg" xmlns:ev="http://www.w3.org/2001/xml-events" xmlns:xlink="http://www.w3.org/1999/xlink"><defs /><rect fill="white" height="99.70360719018393" width="105.71820218473212" x="0" y="0" /><path d="M30.642386257857904,25 m0.0,0.0 m13.539286685306987,14.754397322472087 l0.49571401795134845,0.1466413726755028 3.052547048985164,0.21452943538612146 l25.59326462332847,-2.5550688347502075 4.629015110962014,-0.11137394667702342 l2.7659884403402395,0.26412038513102337 m-36.894944922754064,2.986062906190168 l-0.964839631750641,0.8609084246783941 -0.917731885309175,1.3783120117450058 l-2.5175800714558982,3.965178492437562 -2.8415311344606944,3.4670022800957745 l-3.2442983130619534,2.9366005386781544 m7.3575041909942716,-7.03335112016046 l1.5597632002507877,1.3018015556743745 1.59583591846812,1.7364882275217943 l1.2812502602018927,1.9640844202366263 0.6918858592104519,1.7248919752025185 m18.839977100558436,-13.224836153370012 l-0.02478541693772476,1.481152416172258 -1.676381326479255,3.447566502430697 l-2.197569299998224,3.0646935181841677 -2.301635155106161,2.4443691868056923 m5.314298535434454,-4.803031752265987 l3.200132804976785,2.3383100703706035 1.5578256537362551,1.630747167318264 l1.4213383510114177,2.0968765342552786 m-18.833213523620973,-20.94891724639547 l0.795179398772047,0.7076687959096151 0.3395336321062147,0.9583115154141705 l-0.14461322999558404,39.761894522414835 -0.21278270304094746,1.6627845076567918 l-0.4378447632631773,0.9013066603367381 -0.6042043610111841,0.18348549840887246 l-0.7139214854873199,-0.318664790077593 -1.8814884509031282,-1.7306882250832396 m3.921665391456727,-19.811180416854114 l-1.9768378494808592,2.52086416033822 -2.4334542426479624,2.6254822613615656 l-11.818022564612107,5.232415737763896 -7.571222424710438,3.5693666229034973 l-3.3854897258225085,1.7809887691107162 m24.434004731776476,-15.848091890016207 l19.351767715377424,12.626782598752385 1.7841026459083467,1.0027786083047114 l2.0509249512737653,0.570005030333676 " fill="none" stroke="black" stroke-width="1" /></svg>