<?xml version="1.0" encoding="utf-8" ?>
<svg baseProfile="full" height="112.34813503543157" version="1.1" width="103.31365480831946" xmlns="http://www.w3.org/2000/svg" xmlns:ev="http://www.w3.org/2001/xml-events" xmlns:xlink="http://www.w3.org/1999/xlink"><defs /><rect fill="white" height="112.34813503543157" width="103.31365480831946" x="0" y="0" /><path d="M30.21828940216117,25 m0.0,0.0 m18.581627616517714,3.3116791479771157 l0.0221244245291884,0.4582715435437729 -0.5340473443219212,1.095602788625852 l-2.88812875035059,2.9759905221245866 -2.6421452728832255,2.2906793841114967 l-4.38715994313859,3.289272659660865 m28.115972738894634,-9.577744455965934 l3.367877812403796,1.7225320117436655 3.311167855120808,2.1010612505246082 l2.7793241821010684,2.238255332982531 2.3687520872854075,2.214575824479274 m-13.225044495457562,-1.5388494758900197 l-0.44536636664732066,1.095574007164669 -1.7018791922611622,1.1992963325143349 l-4.195239418769414,2.018963353531691 -5.0832959924988845,1.9425180160135043 l-5.5711197527211604,1.6946568910512378 -9.662916164549832,2.413874843996364 l-5.386084072396626,1.9859026227728396 m11.47786099126436,-10.500723777817296 l0.6950773369897202,0.4502913113146365 0.38510840112664274,1.208399721668582 l0.24761815415923655,16.080404088653584 0.6864263035164405,0.651557452762825 l2.0982484314831384,0.5406598422425892 3.7597263746159815,0.17438292910185846 l7.0103040459827755,-0.0403989304219838 4.528261628631478,-0.28888552769628484 l1.7626497038708895,-0.3840679367502022 1.2021274028733488,-0.6280574909623715 l0.7702261116225565,-0.9100690608804018 0.343575287849876,-1.5379499472820892 m-43.00991952700395,11.57166322200527 l2.241430587701736,0.2172688026519665 2.463808227215092,-0.012848848192296442 l34.352896870757185,-2.3897818172109933 5.115053750205911,-0.18943503094119643 l2.853857171327634,0.2069944033935899 m-30.877882362278115,-6.002958935114862 l0.8537857605890116,0.7852907250174551 0.3715853328929904,0.8735026037463762 l1.582820849235466,14.847166140442464 2.0133114188957864,2.457042833688239 l3.1093798275166638,1.9243703499184073 3.679124860679227,2.3486650297360825 l3.021609532155161,1.537305182687018 3.7955462458139535,1.4829067746414677 l4.178977016670775,1.1770633711909686 4.201844223422908,0.543449320076459 l1.2714469681892364,-0.4264006907029995 0.3768087580228381,-1.1806411465329092 l-0.30489442787215776,-2.239957993926688 m-11.329150929660207,-13.211797699060472 l-0.36526505188680297,1.5061295860384734 -1.5914003641952348,1.4901481559009457 l-3.629902523458704,2.0814128612567924 -5.043765253612182,2.3398797747805222 l-5.9290840991517575,4.357321084057694 -9.229107788396234,5.886192857737093 l-4.958512242243687,2.620528843250781 " fill="none" stroke="black" stroke-width="1" /></svg>