<?xml version="1.0" encoding="utf-8" ?>
<svg baseProfile="full" height="107.34781959215331" version="1.1" width="101.1184090550461" xmlns="http://www.w3.org/2000/svg" xmlns:ev="http://www.w3.org/2001/xml-events" xmlns:xlink="http://www.w3.org/1999/xlink"><defs /><rect fill="white" height="107.34781959215331" width="101.1184090550461" x="0" y="0" /><path d="M25,25 m0.0,0.0 m29.465569421654127,3.8888627470187336 l0.3614216987882964,0.49900107440610575 0.5240611740148249,1.6783553773313746 l0.035389996491355026,6.95983428412293 m-17.691655319411037,2.019240835391576 l1.5813561281367532,0.21799740367670198 1.860490158003838,-0.028047760997600042 l26.349549586716268,-2.7700422433599083 2.7391408354550784,-0.06881938117464606 l2.2995569796740623,0.2951182890632074 m-30.190007885750653,3.3349020274983885 l0.47409817154888945,1.705563425488636 -0.07179932412708107,7.13678215542569 l-0.5542067610677727,8.03444903185576 -0.9225159444263109,6.5710987722675345 l-1.1985661132376444,5.083609279116974 -1.6050136247588833,4.742778824199392 l-2.130114847019948,4.471783787573072 -2.1114017184052463,3.247530454725523 m26.82068280203586,-36.86909555538369 l0.6777391865101242,1.6463254680156318 0.10967959921543059,1.3674112742712854 l-0.11137734658851804,16.553871631043403 m0.5629111444305245,-10.945923286873219 l11.890748709904031,-1.9930527628438228 1.952672347259748,0.12653487239499625 m-25.496668396414165,14.04739315753687 l0.6532998308183552,0.8941072111348802 0.28198161164078217,1.071895107517126 l2.0498029919186362,14.42835409171041 m-1.7370776457741535,-15.355905653808831 l20.530076531005975,-2.523312620850292 1.7009767040271824,0.10906753998692281 l1.005740694620703,0.8056538825793647 0.31460348399911814,1.4333079281724226 l-2.4311379911613913,10.69947135659754 m-18.69121978384415,2.602561417856537 l19.71081446797938,-1.928672698558472 " fill="none" stroke="black" stroke-width="1" /></svg>