<?xml version="1.0" encoding="utf-8" ?>
<svg baseProfile="full" height="105.71459742238922" version="1.1" width="103.238308127256" xmlns="http://www.w3.org/2000/svg" xmlns:ev="http://www.w3.org/2001/xml-events" xmlns:xlink="http://www.w3.org/1999/xlink"><defs /><rect fill="white" height="105.71459742238922" width="103.238308127256" x="0" y="0" /><path d="M25,25 m0.0,0.0 m31.33850368904928,1.3951076247068734 l0.3425926136079561,0.4592750332488954 0.3963995636941634,1.601767810541852 l-0.039695839276887655,4.707194150770871 m-18.422869501963607,1.788726038004921 l4.062408839928468,0.20502022516350035 14.817603024945916,-1.4874365775338987 l15.779349679288437,-0.9324582950813757 2.7151302738102254,0.3706343528935198 l2.2488857841720593,0.5274343017068475 m-25.276308321366624,2.8616110491047486 l-0.10519938273170107,1.3514252981397425 -0.49343155176210385,1.3401196723728594 l-1.726896721177138,7.952992221890788 -2.087145989139053,4.248304563142564 l-3.0599320226428626,4.005170138794397 m7.398506962258183,-9.789531623666832 l2.099326760839387,-0.11136507520387796 9.510851562217004,-1.9788639372237076 l1.1332216351183375,0.11259643413826709 0.3813495814738721,0.41987353976645314 l0.12154400192604928,0.6404160650410814 -0.15630375203387997,0.7070956328992243 l-1.7248099408071345,3.486364704461448 -2.0494644449398733,3.3289249988716043 l-2.538070413190845,3.37399548048113 -3.0400918762055427,3.348207869617158 l-2.5647902074330258,2.4070194094044193 -2.8721987240365774,2.2250815172904015 l-3.1892255994094443,2.00790097468264 -3.543355432537727,1.7859306701677908 m7.926652399385065,-17.39258491171097 l3.203626013503378,2.05542842372886 1.8097720856465556,1.9976593438523431 m-11.671210701118415,13.379670276482969 l0.8419102818454514,1.1219508392311304 0.40930251290244385,1.624775192593019 l1.5741125503902456,10.569163989617554 m-1.1535053053514042,-12.234111407322354 l16.583373264391938,-2.299783881174113 4.840957973632142,-0.3036473408646305 l0.563642630600272,0.8976754921806465 0.00021265426480203712,0.8205129155486524 l-1.9275519409873532,9.739768953385974 m-18.313762187948182,2.1323391198020434 l19.35708282415135,-1.7788832872844933 " fill="none" stroke="black" stroke-width="1" /></svg>