<?xml version="1.0" encoding="utf-8" ?>
<svg baseProfile="full" height="109.12562788464129" version="1.1" width="109.49251438956708" xmlns="http://www.w3.org/2000/svg" xmlns:ev="http://www.w3.org/2001/xml-events" xmlns:xlink="http://www.w3.org/1999/xlink"><defs /><rect fill="white" height="109.12562788464129" width="109.49251438956708" x="0" y="0" /><path d="M25.00000035817223,25 m0.0,0.0 m-3.581722296530643e-07,18.303827047348022 l0.3078498877584934,0.4238685965538025 2.976961135864258,5.8561331033706665 l2.185785323381424,6.280001401901245 m15.02484679222107,-17.79430389404297 l0.4692709445953369,0.9986807405948639 -0.31778428703546524,1.4380525052547455 l-3.7125983834266663,5.76004683971405 -3.166407346725464,4.015166759490967 m-3.2928183674812317,-23.376829624176025 l0.7300148159265518,0.9594967216253281 0.3375786170363426,1.231740266084671 l-0.04526922479271889,10.429074764251709 -0.5168453603982925,13.884080648422241 l-1.1404245346784592,10.283242464065552 -1.4169272780418396,6.2367284297943115 l-1.9114972651004791,4.964441657066345 -2.4484883248806,4.148051738739014 l-3.8809189200401306,4.736833572387695 m12.386231422424316,-20.062203407287598 l2.3459285497665405,2.093958556652069 2.3213960230350494,2.947317659854889 l2.33826220035553,3.825039267539978 1.3684584200382233,3.1704962253570557 m18.03417682647705,-50.59164524078369 l1.0114581137895584,2.0079240202903748 0.15537304803729057,1.6907040774822235 l-0.02163105644285679,17.181670665740967 -0.34193355590105057,13.686798810958862 l-0.5025773122906685,0.9315568208694458 -0.726437121629715,0.1561397034674883 l-1.7608946561813354,-1.1472391337156296 -2.049833983182907,-2.1217280626296997 m-3.1946879625320435,-19.517035484313965 l-0.048873513005673885,1.368032544851303 -0.3552965819835663,0.9935697168111801 l-2.127179652452469,4.184850454330444 -3.072706460952759,4.425747096538544 l-2.958221137523651,3.1319937109947205 m26.342546939849854,-15.64633846282959 l3.1043943762779236,2.5433820486068726 3.080543279647827,3.420933187007904 l2.529582381248474,3.685680627822876 1.4521075785160065,3.3360910415649414 m-7.130805253982544,0.4395421966910362 l0.04532778635621071,2.5810325145721436 -2.6115280389785767,4.813497960567474 l-4.066276252269745,5.542320013046265 -5.1688796281814575,5.682701468467712 l-4.841096997261047,4.4424426555633545 -5.397850275039673,4.183487594127655 l-5.887820720672607,3.768478035926819 -6.310326457023621,3.1980952620506287 " fill="none" stroke="black" stroke-width="1" /></svg>