<?xml version="1.0" encoding="utf-8" ?>
<svg baseProfile="full" height="113.906407021386" version="1.1" width="103.0258477790767" xmlns="http://www.w3.org/2000/svg" xmlns:ev="http://www.w3.org/2001/xml-events" xmlns:xlink="http://www.w3.org/1999/xlink"><defs /><rect fill="white" height="113.906407021386" width="103.0258477790767" x="0" y="0" /><path d="M26.219951082089555,25 m0.0,0.0 m12.127925046534815,4.992832990321393 l0.5150744047773177,0.146142363713827 3.3925336105745094,0.2453222417785566 l28.162303733879934,-2.3926407277782578 4.532233791913288,-0.1023162339589815 l3.075826109307283,0.2830605208883419 m-38.965163565929885,2.539717563129509 l0.025843571262225296,0.8813194717068921 -0.07181332573599811,1.1358197718795777 l-1.5284166743514627,7.160531500763428 -1.7529476378203452,5.755876768510138 l-1.729157724144962,4.493900787598173 -2.1193356739378135,4.365984179280558 l-1.9505172187268052,3.231288329691259 -2.2303572500569904,2.9592982802018284 l-2.7039822796346655,2.838090532813391 m18.11883961329435,-16.66742726763791 l2.27721975939906,3.35499013134222 1.8099142773440682,4.264942781303686 l2.384790566100864,6.234978327072318 1.3632899960654772,5.523217594158134 m17.712229315523942,-18.297828606545206 l0.24204640158122098,1.4434952119666802 -0.44667050379594825,1.4048253178897974 l-2.9824201180012477,5.278292546592744 -2.927109183614403,3.8604828702531733 m-8.822817665861177,-16.900187322791272 l0.6095201205794288,0.9574143040717461 0.24617155039049649,1.3404188337844058 l-0.7376540577250967,8.357970465089878 -1.4244020349713782,6.267633085271235 l-2.2805984231965035,10.555648027457453 -2.0359868886009966,6.209274579886079 l-2.3749204211055512,4.953994466973667 -2.9793234519774363,4.055876890300447 l-3.564891386232346,3.1741664444070925 m14.194708595940714,-23.815053925165124 l14.73415472948453,16.289187480442642 4.10606078998402,3.8245357921185654 l2.716611186601896,1.9650662544964765 " fill="none" stroke="black" stroke-width="1" /></svg>