<?xml version="1.0" encoding="utf-8" ?>
<svg baseProfile="full" height="122.9945928486077" version="1.1" width="94.53623321063058" xmlns="http://www.w3.org/2000/svg" xmlns:ev="http://www.w3.org/2001/xml-events" xmlns:xlink="http://www.w3.org/1999/xlink"><defs /><rect fill="white" height="122.9945928486077" width="94.53623321063058" x="0" y="0" /><path d="M25,25 m0.0,0.0 m7.329542918907441,4.36990594803201 l0.42941880075244776,0.19049817705503688 1.630228587026316,0.10368588838245009 l8.399999836559546,-2.2944388971412564 0.8271931850343697,0.06021921034762575 l0.8260900955666446,0.8673917551736157 0.09689888283430766,0.786734394639752 l-0.23711909745117907,0.9091014603257094 -4.97923853301044,11.48691606018983 m0.005372038134633281,-0.003497894108327172 l1.9568410307574553,2.204176972296826 1.4104692547457724,2.7488877649322307 l1.1095400126850192,4.060634485625776 0.29426564073751965,3.9376747459451624 l-0.47795798875034556,3.440291647210095 -0.500866449704527,1.3178085756553162 l-0.6680704407005192,1.021781105565636 -0.8559521073836499,0.607264657072802 l-1.001843209778489,0.05199861171492995 -1.775453170266194,-1.1357799684668746 m-5.48291566555168,-30.06167663011988 l0.5232015377004423,1.0745659593735044 0.15642837450609812,1.2975459206020374 l0.014396447351629083,46.212719384161346 m25.5487247063231,-53.0083472013156 l0.5278536993957951,1.7373969853948201 -0.00984601543175705,5.715990039497771 m-10.344056074700752,1.6635416689827283 l-0.4351567045859829,0.18211085620462295 -0.7247987842870769,2.946016815423563 l-1.5911850457080392,3.8641480507890806 m2.875988037215427,0.28991515786848426 l1.8778559534146824,2.2836794986664533 1.5042950788548064,2.3887875588415075 m9.983952893835543,-9.988106958070544 l-0.12009913704828758,1.0930361054899747 -1.232758552295797,2.8646726338587034 l-3.018157007378646,5.205769756320908 m-13.867194009447458,5.355158637293211 l3.2282081833613168,0.07227824238196569 17.208136027852046,-2.8936549490398633 l2.3529914644480807,0.12337255615560445 1.7410085161109508,0.36003773822632484 m-13.749333180931776,3.575706260436348 l-0.11899733028398927,1.812516680977872 -3.4565127869079695,3.974819129171524 l-4.058778886071899,3.562058242047348 -4.675672105112081,3.0817822355659357 m9.755861311002507,-6.035150511042569 l1.8797731922292755,1.9670906996726445 1.505986279073126,2.386440339638628 l1.2208889638017093,2.935506249638619 0.8631358009140538,3.172353964052551 l0.556684185257484,5.28382389583551 -0.2257833262303523,8.403416606006958 l-0.6802977317325485,3.351630091059161 -0.8450940512551883,2.081440519008324 l-0.5619657320894409,0.6539373713671743 -0.5880842696399702,0.24983841932815684 l-1.135877310737351,-0.4459214430471265 -1.1692045192333447,-1.3738570512401032 m0.5105779171715044,-24.13108285883406 l-0.08012593680107553,1.0969009896627446 -0.3976047115690398,1.0334394684826955 l-2.327850262075109,3.160642187160852 -3.2512558830542164,3.169962561387263 l-3.88636498596574,2.767464494202146 m11.977569859884275,-4.757638990388833 l-0.04308714969487735,1.3544096801750245 -0.5418252566118054,1.2453178326247247 l-1.30370064171636,4.310013510775483 -1.3688897270560678,3.487744748561852 l-3.1603048755744916,5.4307986209529036 -3.9564639380743594,4.460526887678911 m20.9920169435927,-30.557924746740632 l-0.49622658724388796,1.414680040958532 -1.8519483436431599,2.28714450172192 l-2.4226033390515602,2.1131989316349866 -3.1676376725719204,2.217705942508533 m-0.27211001041418226,1.0045949466796036 l1.837747227954597,14.203163136179834 2.3534622312182147,7.189415237166543 l1.6336014894174413,3.7857850290090447 1.7174868137751536,4.560686471135582 " fill="none" stroke="black" stroke-width="1" /></svg>