<?xml version="1.0" encoding="utf-8" ?>
<svg baseProfile="full" height="109.49251165458061" version="1.1" width="103.12342633493245" xmlns="http://www.w3.org/2000/svg" xmlns:ev="http://www.w3.org/2001/xml-events" xmlns:xlink="http://www.w3.org/1999/xlink"><defs /><rect fill="white" height="109.49251165458061" width="103.12342633493245" x="0" y="0" /><path d="M25,25 m0.0,0.0 m25.86977481842041,8.226431980062898e-08 l0.4469934105873108,0.5224812030792236 0.6193957105278969,1.1636333167552948 l0.21624460816383362,1.1560516059398651 -0.1282587368041277,20.765743255615234 m1.2757112085819244,-11.033748388290405 l11.483379602432251,-2.0792941749095917 2.3968209326267242,0.1282201148569584 m-30.210952758789062,14.999991655349731 l0.8723953366279602,1.2684592604637146 0.8318495005369186,3.0837932229042053 l2.325906753540039,11.72896146774292 m-2.410336136817932,-14.852312803268433 l18.172457218170166,-2.935371994972229 8.09598684310913,-1.055098995566368 l2.1551939845085144,-0.04390408284962177 1.1277023702859879,0.8114117383956909 l0.4708511754870415,1.710508018732071 -2.4506348371505737,10.45885443687439 m-24.87340211868286,3.7394490838050842 l26.336021423339844,-2.9772982001304626 m-36.62445306777954,12.130794525146484 l-0.3091827966272831,1.9649909436702728 -1.1481402069330215,2.788105010986328 l-1.9946585595607758,3.241691291332245 -2.286720722913742,2.8064000606536865 m17.056952714920044,-11.424044370651245 l0.9426089376211166,1.387789249420166 1.0836952924728394,2.4647270143032074 l1.5048117935657501,6.0512226819992065 m10.970457792282104,-10.970457792282104 l2.4408280849456787,4.327858984470367 1.2612071633338928,3.4134340286254883 l0.5580000951886177,2.36550509929657 m9.746829271316528,-11.118136644363403 l2.134426385164261,2.124042809009552 2.2362856566905975,3.0386322736740112 l1.8753284215927124,3.2367464900016785 1.052049770951271,2.720198929309845 " fill="none" stroke="black" stroke-width="1" /></svg>