<?xml version="1.0" encoding="utf-8" ?>
<svg baseProfile="full" height="99.41332255564743" version="1.1" width="102.36782765160208" xmlns="http://www.w3.org/2000/svg" xmlns:ev="http://www.w3.org/2001/xml-events" xmlns:xlink="http://www.w3.org/1999/xlink"><defs /><rect fill="white" height="99.41332255564743" width="102.36782765160208" x="0" y="0" /><path d="M25,25 m0.0,0.0 m32.56514601019614,3.289647624403023 l0.3947708609914708,0.4268054757707451 0.5133086899963022,1.4793922865101339 l-0.03371330118496916,6.028085423979093 m-18.011293181877942,1.8482726409079042 l1.722786821998801,0.25986458577760513 1.9185450282551337,-0.03762666403589925 l28.421679206946095,-2.352979765147619 2.8421892228124954,0.2672921186521793 m-30.28694756040207,2.8699924739635634 l0.4969466961321789,1.3519095456073527 -0.20602555708295642,6.171937437986041 l-0.6247180143063621,6.785550163898938 -1.0001491244545075,5.814390016612741 l-1.197602325049192,4.424402059497632 -1.6363169562190885,4.2641051441290525 l-2.105276762640833,3.84008789091458 -2.104186382807681,2.6821940962203654 m25.77458328402843,-26.848020832101813 l0.0007095958046485348,1.4062997360978957 -0.4996479732202645,1.4188040790282908 l-5.144475978996823,9.949133667739382 -4.858951257885327,12.31304576270054 l0.41707435136716325,0.2841719234302498 0.6811387115711366,0.11041669169258196 l0.8637775432904717,-0.25979825677463275 20.17107039373223,-5.190663774010638 m-4.053663899940695,-7.464528656317377 l2.003510647265967,2.3775777334680606 2.402444079658976,3.8941385111935998 l1.9026433648791925,3.8045333647113844 1.0384714187439719,3.1262828371659266 " fill="none" stroke="black" stroke-width="1" /></svg>