<?xml version="1.0" encoding="utf-8" ?>
<svg baseProfile="full" height="109.35134941670404" version="1.1" width="101.27756561766572" xmlns="http://www.w3.org/2000/svg" xmlns:ev="http://www.w3.org/2001/xml-events" xmlns:xlink="http://www.w3.org/1999/xlink"><defs /><rect fill="white" height="109.35134941670404" width="101.27756561766572" x="0" y="0" /><path d="M25,25 m0.0,0.0 m4.393060516996664,12.469110628556322 l0.36469494827538423,0.11329429709685968 2.4311136996865024,-0.018611102610625943 l10.124858224520867,-1.45618130232746 6.447886710252951,-0.13295560401416107 m-9.2772740284437,-9.345457166567341 l0.8481471751786457,1.8431356320870762 -0.08592157694398139,26.53789159824017 m-0.15954762031530936,-18.11136527976723 l-2.089816467482969,3.7085984236256686 -3.5301580845073732,4.753493716713531 l-3.5719323815142103,3.807046953824407 -3.22300316627097,2.566214965531676 m14.69902455600893,-11.381875471117976 l2.7940374727592943,2.002398855773842 2.9972461825182877,2.8370872657943567 m5.177876648934464,-10.175611513702833 l1.810808871955889,0.3551652101143098 1.4880466017054435,-0.0368416684978084 l13.630472540212983,-1.3309619629738563 3.4316651117348433,-0.1089955808055166 m-11.720154998532674,-7.198808868538527 l0.9547958445240351,1.0150224408965307 0.38217634546291457,1.1664903623971599 l-0.15366092652642568,23.613775267688972 m-0.05877175881592664,-17.2185141195403 l-2.0045600676904316,3.6575831984453857 -3.1957471769330623,4.044407119536714 l-3.6900131193742833,3.623542686468545 -3.4073299374584702,2.40025446363343 m12.019800357528204,-12.02022316719827 l3.7610293949171134,4.084641047736472 4.310772706583815,4.1424693511343325 l2.8246835790241613,2.2160902482173537 2.553259439694108,1.2921551784323695 m-39.7344553827627,9.59756198327525 l2.717411297733806,3.5095338307741217 2.6494181729306012,5.4245431144349805 m24.635359740065443,-11.563247590803984 l-0.015593057133340853,1.4911766048521795 -0.4412184497222175,1.1501041767222138 l-3.4564857655541763,4.139051538382616 -2.7887400863233562,2.7447900445393474 m-8.19302608637087,-12.268620199973434 l0.406056234457334,1.362263323429054 -0.013200333529729349,2.204008404391542 l-0.7562163506780517,5.749142060122506 -1.5562223352196118,5.175198649623243 l-2.267534492065868,4.451709531921207 -2.981432031986342,3.8362557495814054 l-3.6418275701175395,3.2173934157591275 -4.23851239474443,2.6527013197505624 l-5.967118814228468,2.764317355638506 m20.48211986543143,-19.729425670417758 l7.745390798780236,6.688998343496612 8.502075499328564,6.531452839843288 l6.310420783779069,4.082167658791911 2.2870245432647374,0.688378981581149 " fill="none" stroke="black" stroke-width="1" /></svg>