<?xml version="1.0" encoding="utf-8" ?>
<svg baseProfile="full" height="106.37432623267858" version="1.1" width="107.22912169539057" xmlns="http://www.w3.org/2000/svg" xmlns:ev="http://www.w3.org/2001/xml-events" xmlns:xlink="http://www.w3.org/1999/xlink"><defs /><rect fill="white" height="106.37432623267858" width="107.22912169539057" x="0" y="0" /><path d="M25,25 m0.0,0.0 m14.59851156879591,4.395210695865184 l0.4587343066088771,0.44327646208430344 0.5116062797303561,0.8242639837114202 l0.35877831273592276,1.1585876043746237 2.505254474373612,21.440492193666156 m-2.2541883439900223,-23.022937229756092 l27.008512541957064,-2.5938811944473685 1.81351966093017,-0.4814836996464342 l1.5798360370023437,0.16198944655057979 0.8656776381570905,0.7850581035204516 l0.2484054451490888,1.2391643968006505 -3.4904857974603996,19.841193869178955 m-19.983547567080453,-9.809613972278749 l12.363191367440146,-1.5604633960332452 10.461113622062568,-0.7944757932833981 m-22.214394931404236,12.17950993583274 l20.390087867523818,-1.3511306142728048 m-33.632484224638276,14.614687479599963 l1.8869828991378341,0.3840572786073601 2.7410693614593327,-0.00043836454116392824 l31.079574562316374,-3.0482067197719873 6.108040696784973,-0.24702736185419175 l3.8253259177984713,0.29461354647068644 m-23.557591818674037,-8.657558358679347 l0.6542526496273743,1.0766587659094369 0.214736132833195,1.8261295526994903 l-0.09066485184050484,27.276649622371373 " fill="none" stroke="black" stroke-width="1" /></svg>