<?xml version="1.0" encoding="utf-8" ?>
<svg baseProfile="full" height="93.33277896460136" version="1.1" width="99.53971545741548" xmlns="http://www.w3.org/2000/svg" xmlns:ev="http://www.w3.org/2001/xml-events" xmlns:xlink="http://www.w3.org/1999/xlink"><defs /><rect fill="white" height="93.33277896460136" width="99.53971545741548" x="0" y="0" /><path d="M25,30.67636635762814 m0.0,0.0 m10.873258899561968,3.7347947215494504 l0.394211169445397,0.18797031295854058 3.1486480241735593,2.09231247317084 l1.5706523922575248,1.4205635432536206 0.63221393907221,0.9136084152607328 m-8.533706079402052,7.138341758571293 l1.6274367140989079,1.9697374365780675 1.361716119146728,2.6665892700179032 m-3.191064324392409,17.380200437865476 l0.29720697291520803,0.15229423774730266 0.763100124748739,-0.553399402852988 l1.9051486190041633,-4.155186110112816 1.9646802084580328,-5.045949594249445 m7.000372473444193,-21.446959905419227 l0.42580704345565973,0.2050451907938402 0.9812439454806211,0.07952503927372631 m5.976348390438225,-4.177331557783887 l7.055458601533251,-0.678027215362979 7.412608873635824,-0.7043187879141478 m-9.443344995117597,-6.856176620973444 l0.43785362132265,0.622980896983103 0.17669140014806675,0.7804325947838303 l0.0173090195611772,13.0018573228963 m-10.610706353388455,1.102319820998065 l2.394199103735928,0.20438047276130233 15.935460750134483,-1.633548309907517 l3.1532497472675205,-0.14540304733307835 1.9370212909627134,0.2109387811529208 m-21.28770620211536,8.79003537385122 l2.2620213308613946,0.22105913192737622 14.627633690998495,-1.7262280488172956 l2.489745837725178,0.08658570780799853 m-7.036516420071016,-4.796976359371554 l0.42363662211747116,0.7882674867038523 0.14510721358885695,0.9660370964492907 l-0.0385905859341091,16.661324723867164 m-13.658261696294405,1.1425065470534566 l3.274437722113662,0.2135985541141994 18.593202622919282,-1.5450347465940852 l2.249268268533651,0.036651361779019516 1.8326613612701377,0.2810342901628575 " fill="none" stroke="black" stroke-width="1" /></svg>