<?xml version="1.0" encoding="utf-8" ?>
<svg baseProfile="full" height="104.13782884772311" version="1.1" width="106.10343185458927" xmlns="http://www.w3.org/2000/svg" xmlns:ev="http://www.w3.org/2001/xml-events" xmlns:xlink="http://www.w3.org/1999/xlink"><defs /><rect fill="white" height="104.13782884772311" width="106.10343185458927" x="0" y="0" /><path d="M25,25 m0.0,0.0 m6.927126156623347,14.484343872292499 l0.43598916470420124,0.11641826923281154 16.388220320495424,-1.0568813556245111 l2.769598939750939,0.131539600322006 m-10.062159722557201,-4.528884592602933 l0.4743980001925214,0.5103375693309379 0.30928767087812764,1.1169327687239878 l-0.09800631060949948,9.229990099312392 m-12.327932471866431,0.983005444142322 l2.7457985524903115,0.18189307463141213 17.654163478824174,-1.623360831316158 l2.2893121623440207,0.16262024166124323 m-17.186072630002762,2.5473673951242604 l-0.20209114046660528,1.884030331887457 -1.3654607491312434,3.6120965504700986 l-1.819176620155052,3.0559162552570127 -2.242936978499567,2.5056617547322433 m6.2657615156311515,-6.27548950472167 l2.574436150372484,-0.07740841097650755 7.107314110458874,-1.167889817836277 l1.142557212322558,0.004511245005125756 0.44077851570292653,0.27786666576183383 l0.11637699459457601,0.5197421222410347 -0.37169846005692486,1.753411523894166 l-1.1857201100866777,2.7357493158697057 -1.586645322894083,3.114500336870949 l-3.9415348653898983,2.999442518434138 -5.010379291333314,2.6307527750389146 l-2.9626194217655293,1.2290378251358574 -3.1123844319651233,1.0795949913790495 m7.533934075780769,-10.866528681406269 l3.0591358770772374,1.331466853408792 3.2624862589920123,1.7617287147011111 l3.076787900466183,2.0704749065326125 2.424625395614376,2.118785223450336 m12.082307387624553,-17.16463496850725 l1.4649566908330773,0.11890517390771689 12.950361378110788,-1.2682513647470575 l1.3526974869497073,-0.07651959136756861 0.5861921165651616,0.19407672281626384 l0.328026993364344,0.4185973461289337 -0.05105149754277606,0.5626669036070608 l-2.0228342720636086,3.9292975675456643 -2.092856770819105,3.10622453422119 l-0.918602921605341,0.7590552045200988 -0.8312156603455417,0.21581471791376863 l-0.6828822401046012,-0.0653387943846631 -1.0726901563388491,-0.7854116643902292 m-4.1467915958373665,-6.436488769005631 l-0.08621142749033592,0.5704180014788475 -0.4847309383584919,0.9781382602853285 l-1.8870222918566377,2.3819821680447286 -2.451966912445601,2.0908546790626934 l-3.115324665743265,1.7435555741442927 m2.7458006803186112,2.1742868574863463 l-0.10319041076691504,1.1180572885727809 -1.0839435506227642,1.8032690161636657 l-1.7165385400569795,1.8341529353409975 -1.8023941871771867,1.3213664772001705 m-6.499318622527877,-1.0255497160562248 l0.7708035967354018,1.0770825015959902 -0.2552124080723719,14.290931200527947 m0.793915844354503,-14.460923859247458 l16.42986754089365,-1.2684098105796286 1.3801700300253774,0.041897954536442523 l1.0297437751189908,0.28980445505604824 0.48316498683334597,0.8150483756428712 l0.003989143719580443,0.9441247222227679 -0.3928356334310719,13.635561267083629 m-18.83402078411053,-9.625292984004735 l18.594966757630175,-0.815536601348858 m-18.756389043619766,5.341436475200087 l18.438971614843172,-0.7986538591601975 m-18.55930555504473,5.739337615934872 l18.443821552455926,-0.6501622736658724 m-36.808325375224385,2.29173433999082 l2.4036668688461496,0.21944311832812333 2.796483334014458,0.01910659926834692 l40.34295961101128,-1.2434195960285335 3.812949999010816,0.16190827701779328 " fill="none" stroke="black" stroke-width="1" /></svg>