<?xml version="1.0" encoding="utf-8" ?>
<svg baseProfile="full" height="88.6818596283584" version="1.1" width="105.4252368923294" xmlns="http://www.w3.org/2000/svg" xmlns:ev="http://www.w3.org/2001/xml-events" xmlns:xlink="http://www.w3.org/1999/xlink"><defs /><rect fill="white" height="88.6818596283584" width="105.4252368923294" x="0" y="0" /><path d="M31.140369428713285,25 m0.0,0.0 m11.619976763603276,3.2874248541415327 l0.5077224700079205,0.1343375192477292 2.975352547891035,0.15625316564570024 l30.326612118261355,-2.371901882427434 1.7784820520071842,-0.1391138878309594 l2.0767215118453417,0.26634517489789156 m-38.80733516346316,2.9941485784275272 l0.06544923808387564,1.8563878578136428 -0.46669903649609645,11.437210756631723 l-1.410905220763267,7.274558301822505 -1.4808728955568706,4.343872131700752 l-1.5281865454593704,3.09248532540405 -1.9050248003019157,2.774154051667128 l-2.3412881381749786,2.394892019842215 m30.32446110760978,-32.412961483131106 l0.046726627268590185,1.084840931952785 -0.5676327187202832,1.38420727621962 l-2.203094038774969,3.32394423527417 m-9.810365600959276,0.8255390937306989 l0.7005718544415703,1.580995753424352 0.38992466585278535,20.63025795171573 m0.07408871825747905,-21.011212702172664 l22.089729383781922,-2.4266685526244567 1.4021220495038251,0.16278523977466938 l0.9153187671258243,0.6927714947166799 0.4478792534307978,1.1820017303666526 l-0.532633763935846,19.842491290654188 -0.45422269449676156,2.0500753099778644 l-0.6068028122971381,0.6875315514469273 -0.7488513732228332,-0.056749983772614275 l-0.8207881977383915,-1.8244213693068885 -1.3161398572264318,-2.0128364442849804 m-18.879384142685158,-13.36538675285914 l15.345342234365967,-1.1825105218420529 m-14.85342304542057,7.56145069802407 l14.875885792907352,-1.433736727274079 m-29.03340155947186,-11.615671458737943 l0.9380924324212279,1.0372641751074747 0.5158980767474542,1.69331674270099 l-0.09136471886758271,20.313494364736258 1.55278247647803,0.7674998717598226 l19.60848832787222,-2.217325670836181 8.248989624764027,-0.3320457562739815 m-41.563966702345766,-9.762271861992737 l2.953364156891621,2.3947925816666507 1.6746223909982885,3.167538662963919 l1.1432921142617576,2.45085435884049 0.44758334749682005,1.4344388306067306 m-9.76346650651208,-8.706560757945171 l0.770217874671136,0.9171397308569635 0.3690059165570854,1.465395058789708 l0.08553493271758177,10.418920720175379 0.25559454096728806,1.2727682947771712 l0.33523072793655,0.5739343193750531 0.4041047280859834,0.2992564579983932 l0.49962259249182717,0.20640760524088914 1.5526230075450134,0.11925137155406836 l19.51798551564926,-1.5826031891715204 3.8565133085181316,-0.2035965795800506 " fill="none" stroke="black" stroke-width="1" /></svg>