<?xml version="1.0" encoding="utf-8" ?>
<svg baseProfile="full" height="105.55796802371096" version="1.1" width="95.72931240535016" xmlns="http://www.w3.org/2000/svg" xmlns:ev="http://www.w3.org/2001/xml-events" xmlns:xlink="http://www.w3.org/1999/xlink"><defs /><rect fill="white" height="105.55796802371096" width="95.72931240535016" x="0" y="0" /><path d="M25,25 m0.0,0.0 m7.206214031232929,21.917309606545288 l0.18954270708392426,0.3338045950802986 1.480754695755049,4.167238464928955 l0.6451655717199619,4.598925457255988 m12.285737077127893,-13.161317682845905 l0.07061924037728623,1.603595842247072 -0.4097536647966133,1.179455838802547 l-2.54860557094887,3.955805059840786 -2.195856900442399,2.646464246641632 m-2.224069003447366,-18.485205011587997 l0.46713000007221284,0.9615657020832542 0.13882384045957213,1.1748250108553935 l-0.09622179010371774,23.810855154879345 -0.5561425520735114,6.413835105526921 l-0.6113273149692152,3.4818533645635945 -1.299411293584695,4.145079949182004 l-1.7548851914820873,3.5045227487762562 -2.7555109303450585,3.3093545709355237 m8.387050490917943,-14.673578206049559 l1.4864580782307952,1.2498372652933152 1.728807481565114,2.0148599658390056 l1.406064139496009,2.2502626537907906 1.0085946980433067,2.2055474786334215 m5.333236100025407,-38.87375987115684 l1.369993704235325,0.21225348542280711 1.5007014225441917,-0.02250399094618802 l5.870763341412478,-0.7708944524882818 7.198039645952934,-1.1390796747886023 l0.21368143071773016,-0.0033829317471160123 0.4017793139211471,0.41611879955177067 l-0.04865606038836816,1.1278066202208386 -0.576765231225713,6.043136089465606 l-0.7930480358439973,4.598393215383834 m-13.098849022536518,-9.96672081268934 l8.381916744531715,2.5073292836432572 1.6441570827547851,1.043453172774684 m-12.478199844647923,4.5183013188832355 l1.4777704842113877,0.2360830685923989 1.4505673473975922,-0.03562628738577696 l12.87558306480491,-2.007860295454559 1.2180840961916855,-0.10847334143322918 l0.6115002890406149,0.18469088485061355 0.3867992134900726,0.9367630660882493 l-0.4733816714521014,1.4456018584698551 -1.9097495083302525,2.731759327364314 m-6.882151332154749,-3.2222984689952177 l0.7426661581129551,0.8241352483729428 0.3013133850520135,0.9665431885058277 l-0.09684861265943434,16.99994210559957 -0.21001664392497138,0.7304230188430774 l-0.3877774580233487,0.24067576309896815 -0.5198718161622852,-0.15674397233377657 l-1.183343300576474,-0.9584119776993285 -1.256160775057071,-1.3885865203814254 m1.361327668842569,-17.700627919116123 l-0.06419503045145447,0.8774682028002725 -0.7215991535286023,1.0637999723569216 l-2.9747650885156545,3.542913359063735 -3.2104005984084183,2.859973361181341 l-4.437994209807766,3.032716974209116 m-3.1500500691081856,8.425100568966808 l2.433444236869636,0.31014821346414506 21.347355302564647,-1.8050128608381062 l2.0332779955912006,0.18755311637707792 " fill="none" stroke="black" stroke-width="1" /></svg>