<?xml version="1.0" encoding="utf-8" ?>
<svg baseProfile="full" height="128.98506841140562" version="1.1" width="98.46352012827914" xmlns="http://www.w3.org/2000/svg" xmlns:ev="http://www.w3.org/2001/xml-events" xmlns:xlink="http://www.w3.org/1999/xlink"><defs /><rect fill="white" height="128.98506841140562" width="98.46352012827914" x="0" y="0" /><path d="M25,25 m0.0,0.0 m28.17801631634648,3.074825483693937 l0.31556410899038995,0.26221064439299047 0.9325909206278695,2.5805588520715497 l-0.03656659493512166,6.598388341478166 m-15.246175891272655,1.324620052998875 l2.4493095441453554,0.2871410560704059 25.532221078678006,-2.4918677219842995 l2.146884129599914,0.2620351262731308 m-25.49543908808435,2.9979686386515474 l-0.05417696026691819,10.467176000225503 -0.35878608298133885,6.226615110300001 l-0.6068931254676637,5.883123075925177 -0.8677562860792551,5.408411718290302 l-1.0476237566587547,8.517870741773885 -0.9736916428577556,11.43890048797971 l-0.9466815798881076,6.0893944117523775 -1.3745182115608818,5.460818350612297 l-1.7312316428253418,4.59687804090005 m-0.963902224011771,-47.10648402508301 l2.250452857412824,2.9982824476037853 1.0996443322868525,2.296792382923328 l0.5278183292225349,1.7190460754991113 m-5.094022497376313,14.956380027392923 l0.4243264728030397,0.2651974423008334 0.6503624829295414,-0.16243189999515426 l5.62916653732648,-6.536402562709 m6.373876781331235,-11.690717908153445 l1.025887064401002,0.3100368823125073 1.1788278692505338,-0.06342228684412472 l14.885736773157099,-2.5963337759243075 2.542304590951541,-0.166280556914147 l1.4568895775005497,0.29990251046889993 m-8.695758808044626,-10.517644454000836 l0.548920965805762,1.4917159200828056 0.23605067863940457,1.5535252936751287 l-0.20569901081647252,46.66229397042636 -0.28237499135320426,1.474473360282801 l-0.41482966968390056,0.5581155569792148 -0.5088827893447471,-0.11081280536300124 l-0.5494074443487509,-0.7036353408628211 -1.3303866933463406,-2.6803358825378907 m2.9892954220590333,-32.787657260828986 l-2.2136138792311786,7.391436506322367 -3.3354681476911057,8.399142632190488 l-3.8403993062153496,7.421722266229585 -3.291508866282989,4.566241112678484 m13.205064696689067,-26.80066341422758 l3.1218090126545732,7.696031057040311 4.183258445597608,9.472578289487183 l3.1581378493126078,5.942128447778481 1.9543009714932882,2.6910153390751725 l0.9325975096914525,0.7634707655934134 " fill="none" stroke="black" stroke-width="1" /></svg>