<?xml version="1.0" encoding="utf-8" ?>
<svg baseProfile="full" height="97.90908158910679" version="1.1" width="107.13722995448848" xmlns="http://www.w3.org/2000/svg" xmlns:ev="http://www.w3.org/2001/xml-events" xmlns:xlink="http://www.w3.org/1999/xlink"><defs /><rect fill="white" height="97.90908158910679" width="107.13722995448848" x="0" y="0" /><path d="M29.940316974356143,25 m0.0,0.0 m21.059862255193774,2.8471040631208155 l0.022614387811213672,0.5072014104950531 -0.21387462176167887,1.1787073074709746 l-0.8542363906120395,1.8652847131198043 -2.893018672835125,4.616658796475723 l-3.3926403433284373,3.953839278393253 -3.917363359327806,3.5626331630489676 m11.592085196182827,-9.48474798425849 l10.234125194953958,-0.30603217232426333 16.31452229140963,-1.2677012639015046 l3.4226729732583094,0.15645680884880991 m-37.52538969829444,11.829761358822987 l3.4741142501530957,0.20900129112224622 31.65841878075228,-1.8933502218698235 l3.2150207365767804,-0.19925393528481414 m-44.357202635336215,-7.195903228144556 l0.8569052684284726,0.7258261884412609 0.3850765421233714,0.8016898073618806 l-0.041279520128941705,12.616381378151491 m10.658355546538205,-15.424484661479127 l0.8015522939834326,0.6915414289189273 0.3281476638326867,0.9483138087324419 l0.040157768166322674,12.901879961338484 m8.226263119384965,-16.55661159698327 l0.8572401565012385,0.7801773803589792 0.3075652599009582,0.92636800893885 l-0.8877519025476546,14.161609384692229 m10.395518417430193,-16.050649441765838 l1.0966213154012876,1.0919974971699429 0.12415403291303878,1.154236066671372 l-2.8007016411170746,13.22317625147693 m-42.070067731940036,1.809918336980149 l1.9899490197116216,0.32459584848897255 2.860707956853247,0.08675337395385005 l41.66901953053868,-2.5660457756328983 3.8708569367204158,-0.21265962760705637 l3.5676824499537605,0.3952691969116616 m-43.47256721170635,6.2149782175231945 l0.63616862775872,0.6767038850342213 1.439126475253131,0.9916103732104257 l1.90647624644534,5.907062427286642 m-1.5717902608363399,-7.087908844620513 l22.075365021285027,-1.537560033147376 4.061434265877433,-0.060930211706420496 l1.1054336253915018,0.22816713874287056 0.6061680029555679,0.8276874431676245 l-2.389711787306595,5.845449216497896 m-23.63485532928865,1.8982150587329039 l25.62755450310333,-1.6401766674227827 m-37.66952141802925,6.814261881630783 l-0.6481002460258962,1.8097728095493708 -1.2486825048923962,2.2234294660102685 l-1.838497811785044,2.4803330410987154 m14.68613711130105,-7.722494936516029 l0.8561660275740403,1.1009895650954682 1.0045371813230655,2.0063246839013127 l1.3914026425255557,4.724224874783786 m10.067569170951177,-8.048027733017259 l1.456987674376556,1.348034833748685 1.74064750658344,2.1797633798767286 l1.3697419435090934,2.2384938547494757 0.6017954788944122,1.6437498153599468 m8.719613414159879,-7.615918754293306 l2.0585342342604482,1.4889586801091974 2.4122953172573594,2.2975194799075536 l1.9223664687595883,2.3721211950443326 0.8643190368299184,1.6157362804923248 " fill="none" stroke="black" stroke-width="1" /></svg>