<?xml version="1.0" encoding="utf-8" ?>
<svg baseProfile="full" height="130.32087758422466" version="1.1" width="106.65018994617327" xmlns="http://www.w3.org/2000/svg" xmlns:ev="http://www.w3.org/2001/xml-events" xmlns:xlink="http://www.w3.org/1999/xlink"><defs /><rect fill="white" height="130.32087758422466" width="106.65018994617327" x="0" y="0" /><path d="M25,25 m0.0,0.0 m22.48792695869153,4.114362039965158 l0.015030327109401763,0.477603371243512 -0.17783271294711817,1.2035814447177573 l-0.8549183470038572,1.9455818357983579 -2.855354173549716,4.72967265915993 l-3.4048235498814203,4.0745053007804195 -4.001965730293325,3.7099274623988485 m11.043606053908972,-9.86098681663311 l10.421673967552968,-0.41860018918520053 15.265689314216386,-1.2700314602440737 l3.1562877631634323,0.18516689481231727 m-35.46831651717932,15.344683845263615 l3.249613455795918,0.2233110784301863 11.992183665536121,-1.1351962794965782 l15.117899088844801,-1.085962614785629 7.916280567886543,-0.20027681775940498 l2.7472098143219394,0.2966693968137925 m-21.88922489060232,-8.167519670735222 l0.5001978747091507,0.7402060615960337 0.1679698589527475,1.427807842543522 l-0.040325153654690304,16.488286871434454 m-15.81784716292201,1.3604742979659286 l4.076867411637751,0.6717862408035669 15.765963940558235,-1.7683285660315844 l13.685413239676564,-0.8834049244198386 1.7396918299917477,0.3692071515919727 l0.8789825494172702,0.8235283451483847 0.17526801147015605,1.3298851832554492 l-0.8095048443062706,6.737536035672537 -1.6053835156119014,6.68152535153917 l-2.1848645593433877,6.084199243763185 -1.3823773482763324,4.175280253086194 l-1.3622716794521021,4.0849026173566845 -1.279217887596408,3.1248673393142727 l-2.6766143591309235,2.078364016255422 -1.8607533920019426,-1.787263889022238 m-6.94310246470484,-16.614483052820738 l-0.11937639775568576,1.734325066935014 -1.1348921249037391,2.4596076552211787 l-1.99835667967999,3.1326788460431656 -2.52570261177586,8.109797857679196 l-3.18454118682543,8.450627666449329 -4.023334225199126,7.142972592319705 m-6.074667220382499,-21.782155366074907 l3.427776175721051,2.251090100917148 2.8267656344524648,2.548508186147634 l2.4177442062531305,2.6419479615641186 1.5236846049499089,2.477898386141919 " fill="none" stroke="black" stroke-width="1" /></svg>