<?xml version="1.0" encoding="utf-8" ?>
<svg baseProfile="full" height="99.84198844978464" version="1.1" width="103.10643703558847" xmlns="http://www.w3.org/2000/svg" xmlns:ev="http://www.w3.org/2001/xml-events" xmlns:xlink="http://www.w3.org/1999/xlink"><defs /><rect fill="white" height="99.84198844978464" width="103.10643703558847" x="0" y="0" /><path d="M25,25 m0.0,0.0 m15.011068174516515,4.829626423655455 l0.3774838712911317,0.19350741950822856 1.8799820574710147,0.20588437542285704 l11.76549354242263,-2.3320953436881404 1.0957304324299473,0.2930077101305348 l0.3330053672060253,0.4721846354963817 0.1361815787135426,0.666932057420056 l-0.22190776478096133,0.7417097196743061 -1.9294016333694979,8.669567507205974 m-12.152630026865152,2.3007926257233877 l12.542312937089811,-1.9891691881080238 m-13.155403841668264,-9.38563005784873 l-0.3939430128381924,1.579912428889113 -0.8039892173681643,2.2136839179807586 l-1.2847245823776943,2.9620466454352177 -1.928972276364223,3.2475953138507427 l-3.4488346129797356,4.470879956923415 -4.231248265993286,4.472328944903432 m8.025876009274144,-6.68256997883443 l0.4567885807868583,22.690952679717526 0.30869621254425295,1.299384299533808 l0.7845677146676008,-0.4998762271175406 5.919052206928203,-7.997383625756711 m-1.3843103209755128,-7.736074099518528 l1.2321822704036722,1.1172923396335448 1.6026259159495582,1.9949707375244343 l1.42175423160043,2.1325648391360685 0.8494486317926843,1.9881595162770278 m3.376855811813341,-25.373089975427085 l1.4453021825288863,0.32504869923130386 2.0481757183997,-0.0841555603857877 l14.27137766480934,-1.6534890179770292 1.932510160523489,0.6778978002313276 l0.37277908833004636,1.1798895484977934 -0.1684241433804918,0.8317181668339876 l-2.0591680140377955,11.41839210832531 m-11.445729960525114,2.052755210050802 l12.685363625477102,-1.4547781292756452 2.3034474797325495,0.00296684358168711 m-17.110294411328205,-11.612661931133182 l0.5524136336696888,1.001214773676587 0.143062474568491,1.128193302208476 l-0.019576337426226078,33.534969242954574 0.3805609999997293,2.5019288587359414 l0.6291429592573112,1.3725747855939046 1.6397551961536745,1.3923416195884122 l3.034766552748808,0.5986499109778032 8.017983577954606,0.08143662032528519 l4.525027005419576,-0.5057291808090842 1.8541435637521622,-0.7418798584746731 l1.2827230564194394,-1.4039639957029866 0.5008271993916021,-2.167280446940184 l0.10652777182941671,-3.2253290487509227 " fill="none" stroke="black" stroke-width="1" /></svg>