<?xml version="1.0" encoding="utf-8" ?>
<svg baseProfile="full" height="88.6971543580547" version="1.1" width="123.55145359250234" xmlns="http://www.w3.org/2000/svg" xmlns:ev="http://www.w3.org/2001/xml-events" xmlns:xlink="http://www.w3.org/1999/xlink"><defs /><rect fill="white" height="88.6971543580547" width="123.55145359250234" x="0" y="0" /><path d="M25,25 m0.0,0.0 m30.951790113767665,3.9413527610817356 l-0.013242534960871228,0.45093690426913596 -0.3779496014787495,0.88786523124952 l-1.0305102995100086,1.5344901842046326 -3.0534628892077387,3.435186873319914 l-3.639177088515473,2.8934225383603778 -4.397460187194618,2.582068370939745 m11.661703778483426,-7.8653045801173205 l10.76560838954345,0.14304592631010582 19.4526616833364,-1.1921533292464552 l3.5612088241722777,0.166206444811859 m-41.71067761487709,12.135287095166504 l3.582200791667837,0.1756612877428075 13.518655687750396,-0.9289856961346178 l24.83232629018594,-0.8948827924809641 3.036002391794175,0.22857647691515617 m-34.43740460286808,-5.980934523194068 l0.7339308089670044,0.7156926780372536 0.2973849175094784,0.8443076885880919 l0.7858884798100814,12.842273174323761 m7.415769500862084,-14.94960671780521 l0.7627421330227291,0.7865519674342931 0.24680299554476473,0.8420913680624255 l0.07046298803229639,13.161112665559024 m8.902539190249549,-15.690611057437417 l0.681571279916017,0.7437699993815875 0.2019172179326391,0.8634386995430251 l-0.9639849685419819,13.526227580649902 m10.273473671837596,-15.66191902076761 l0.474596724848175,1.2835729421727737 -0.04448321214079243,0.9402469231381763 l-2.5210666111119497,12.356914585499213 m-36.237891982564534,1.7801343125741003 l4.256036311366572,0.17881219358301675 18.3562592911003,-0.9930080293840179 l21.379456577782925,-0.8455996033023608 3.143525811003789,0.025778988382331638 l2.634249334986667,0.2405959661497597 m-44.651312167353595,7.654733184768251 l-0.7674959719203139,1.7022683179597133 -1.3037961106155982,1.7892430381973814 l-1.5379177337946697,1.529424149997947 -1.7175431664885104,1.3188691895512235 m15.65941932245654,-7.680174186659819 l1.1965434390280523,0.93360114514021 1.3021454466517461,1.5972596591556827 l1.0433394990222895,1.7895904316583915 0.784835747721423,2.0522519684322815 m8.289472989767786,-7.073557444611523 l1.5365908239099375,1.2416935616384863 1.5548837159896582,1.7097001007190817 l1.2755948188841615,1.8224764513291702 0.6774451868061465,1.5214060589734049 m9.512890385794217,-6.238451767397056 l1.6715078702822335,1.1524820782478162 2.1534103565387244,2.0555295769205557 l1.7715476565930681,2.1770222404323856 0.7667990388095026,1.4682457236246405 " fill="none" stroke="black" stroke-width="1" /></svg>