<?xml version="1.0" encoding="utf-8" ?>
<svg baseProfile="full" height="111.73409973372873" version="1.1" width="117.0527052266912" xmlns="http://www.w3.org/2000/svg" xmlns:ev="http://www.w3.org/2001/xml-events" xmlns:xlink="http://www.w3.org/1999/xlink"><defs /><rect fill="white" height="111.73409973372873" width="117.0527052266912" x="0" y="0" /><path d="M42.36377110451933,26.175650241656946 m0.0,0.0 m20.55710736249305,3.9237456712780787 l0.006658095972988257,0.48544398276713874 -0.22235163901855598,1.1606842010346412 l-0.809427651465414,1.856374096431744 -2.6495582123661476,4.586999804902193 l-3.0513533705208338,4.053505598375707 -3.477082575769063,3.7828863129189747 m9.947857629930093,-8.775346945093865 l12.066243329378418,-0.333139074664519 14.115151557933952,-1.219370776386327 l3.2056895956033915,0.2396035925732617 m-39.856730127715494,-10.937036705793975 l0.9269537361287273,1.0859461303379603 0.3841747672183752,1.0897975238377606 l-0.14734535388607778,19.641652302751428 m18.35523181638289,0.7300312635967615 l0.47922537239536545,0.6692995809234901 -0.07982094501846158,0.8570537765054121 l-3.756227765748053,9.677894208189683 m-12.963442971657628,1.4302244657996717 l-0.05702467971577308,1.0329711077503048 -0.6456897757752635,0.8804277127244754 l-2.042968373995135,1.9727762081450073 -2.656224051576419,2.2481833781075626 l-5.191780411808742,3.5922692198907678 -5.697881518350534,3.002786538886149 m32.61598655111818,-12.994031382330808 l4.336211803487074,1.7141752924580302 4.837483685182183,2.709542420563952 l4.143183780731447,2.9376031431244507 3.0584077190802414,2.503257872858279 m-53.119579625265715,-3.830152860193826 l2.4386797689415327,0.225406574793485 2.4599227527831204,-0.014770147479232932 l27.18897971359086,-2.259386308763173 3.2987232832590734,-0.10116022067046294 l1.4620123786931583,0.2988408240239531 0.5429464387763271,0.7956563254377836 l-0.025607468244918233,0.679651933696965 -1.7979990850234473,3.120199569180958 l-3.354558357614042,5.663782089388328 -3.3171271933517676,4.551423085859211 l-1.482907672486347,2.2513546457105833 -3.231311847424976,3.802504143073956 l-2.575674651589724,1.7688893155498964 -1.3593713676093502,-0.22154677404151188 l-1.6573204874282346,-1.6782905251168638 m-2.8350937819290314,-27.489848859477117 l-0.08516489275106731,2.2987520480598573 -1.8867974767104594,4.039258074040123 l-2.698948209530557,4.302707969156663 -3.583682107910379,4.3849161018011165 l-3.645738100414958,3.5435850267007782 -4.347125172851095,3.4323817830636583 l-5.178940207402182,3.192508233858163 -4.302745113673929,2.072720993865148 " fill="none" stroke="black" stroke-width="1" /></svg>