<?xml version="1.0" encoding="utf-8" ?>
<svg baseProfile="full" height="84.7793148796022" version="1.1" width="119.15792547233087" xmlns="http://www.w3.org/2000/svg" xmlns:ev="http://www.w3.org/2001/xml-events" xmlns:xlink="http://www.w3.org/1999/xlink"><defs /><rect fill="white" height="84.7793148796022" width="119.15792547233087" x="0" y="0" /><path d="M25,25 m0.0,0.0 m30.833867042939243,1.9495519565871615 l-0.011243942062807051,0.4287139039574919 -0.4429572867991551,0.7553603323445514 l-1.1243124873117814,1.288341582501289 -3.3085580323894273,3.0233792556603305 l-3.707329482148624,2.5602836610435773 -4.149007385863775,2.406003788098069 m11.388533606392565,-6.974522620254733 l10.937223311324251,0.07178791137353092 18.92577124108102,0.15095377942630564 l3.3397354944072792,0.21919410210067716 m-20.87505259634771,8.119073939059442 l0.5594248384154421,0.2799565319256427 0.5277680629898368,0.6479474632165819 l-0.20473897511812356,10.29084899757219 -1.747414637708954,3.2324389046435935 l-1.975005193585928,1.6989414040599444 -2.9520254828803414,1.6709121459832048 l-3.4307346882112038,1.54577793029615 -4.119767453039304,1.4143699100072022 m-3.1527365007251666,-16.32646174826159 l3.047916805457003,0.2488984039795918 24.0560176853381,-1.7497765498441613 l1.8736714198495799,0.6654682166672711 0.13007536934081676,0.43995456907211555 l-2.8118574940273198,6.77278099655531 -0.7320139286495511,2.1647349886230005 l-0.06216289708160226,2.464438856311372 0.5334984445874075,2.094984020534213 l1.000293421363298,1.0411503493007292 1.742016334991187,0.6715576193567113 l3.0615163111344894,0.3495049550509316 5.871021448043114,-0.023766855866952156 l3.713846887178976,-0.3506917073821448 1.4387738529020904,-0.42821231162234413 l0.7523457937888905,-0.8571812713727457 0.2210398479569526,-1.2669692770861258 l0.01048671680011965,-1.8094738019330006 m-56.65654535415287,-7.3437952968188 l3.5246687935101706,0.7006853239012362 3.4046368353711634,-1.4241441464560372 l20.88306749919881,-1.1990657523825032 " fill="none" stroke="black" stroke-width="1" /></svg>