<?xml version="1.0" encoding="utf-8" ?>
<svg baseProfile="full" height="109.0832681581378" version="1.1" width="109.49251309037209" xmlns="http://www.w3.org/2000/svg" xmlns:ev="http://www.w3.org/2001/xml-events" xmlns:xlink="http://www.w3.org/1999/xlink"><defs /><rect fill="white" height="109.0832681581378" width="109.49251309037209" x="0" y="0" /><path d="M25.000000800937414,25 m0.0,0.0 m2.041577845811844,18.985793590545654 l0.10553399100899696,0.47498874366283417 1.4898310601711273,11.298142671585083 m16.42966866493225,-16.517529487609863 l0.33916737884283066,1.156240776181221 -0.5557265132665634,1.5435418486595154 l-3.7347018718719482,4.038434028625488 -3.477988541126251,3.1025275588035583 m-2.424364537000656,-21.086206436157227 l0.6079787388443947,0.9225215017795563 0.2705702744424343,1.1860991269350052 l-0.28177788481116295,15.4453706741333 -0.8099518716335297,11.818434000015259 l-1.0778195410966873,7.29780375957489 -1.500985026359558,5.759581923484802 l-1.962074339389801,4.567304849624634 -2.4610869586467743,3.723033368587494 l-2.9978516697883606,3.2260799407958984 m11.070258617401123,-20.383331775665283 l2.6326867938041687,2.010980248451233 2.5866982340812683,2.829340696334839 l2.177947163581848,3.0283966660499573 1.564820259809494,3.0263373255729675 m5.897548198699951,-43.16082954406738 l2.768937349319458,0.40774300694465637 27.447760105133057,-2.3756301403045654 l3.3458563685417175,0.40065377950668335 m-18.6920428276062,3.113510310649872 l-0.10568414814770222,1.1284415423870087 -0.7993984967470169,2.3509198427200317 l-2.3001262545585632,3.8307979702949524 m-8.050098419189453,0.8435855060815811 l0.8784631639719009,2.228054255247116 -0.3514421358704567,28.83068323135376 m0.9417407214641571,-29.740335941314697 l20.123188495635986,-2.790387272834778 0.8724143356084824,0.1009007915854454 l1.3175447285175323,0.9273263067007065 0.4244096577167511,1.2070342898368835 l-0.7098715752363205,28.88019323348999 m-22.05265760421753,-19.15330410003662 l13.544729948043823,-1.6165576875209808 m-14.090417623519897,10.845118761062622 l13.684755563735962,-1.729041337966919 m-13.51933240890503,11.300888061523438 l21.880028247833252,-2.0522713661193848 m-19.96600031852722,6.144652366638184 l-0.019784942269325256,1.6854549944400787 -0.9504923224449158,1.1689390987157822 l-4.696348607540131,4.176400303840637 -5.354949235916138,4.1094765067100525 m25.479166507720947,-10.960434675216675 l2.816985249519348,2.33993723988533 3.268979787826538,3.2854533195495605 l2.6827940344810486,3.2566243410110474 1.6049747169017792,2.6453855633735657 " fill="none" stroke="black" stroke-width="1" /></svg>