<?xml version="1.0" encoding="utf-8" ?>
<svg baseProfile="full" height="110.2157583753987" version="1.1" width="100.88934119886255" xmlns="http://www.w3.org/2000/svg" xmlns:ev="http://www.w3.org/2001/xml-events" xmlns:xlink="http://www.w3.org/1999/xlink"><defs /><rect fill="white" height="110.2157583753987" width="100.88934119886255" x="0" y="0" /><path d="M25,25 m0.0,0.0 m29.721529644838053,4.386629214037448 l0.38106502484942134,0.40147617114081 0.49800254013718626,1.5372223777928886 l-0.04071375505834056,4.898223495263299 m-19.839429141500204,1.8991349541144524 l4.197601243526792,0.17202519670324176 29.709221376901457,-1.660543979476884 l3.5102951415919605,-0.059289734256573516 2.7517691235762336,0.2329565313387809 m-26.277384816990963,2.384993860726413 l0.30945461093136467,1.1720946607480094 -0.5194230333077129,0.983561606600826 l-6.539676754363284,6.233077276676846 -0.6889317311547388,0.7964447043190188 l0.09674125347785174,0.6870273593620347 0.8223951980316937,0.26973799107637075 l7.644332514993595,2.2642914782989987 m9.57529533102374,-8.772472394665735 l0.02199878563792613,1.487901290385934 -1.6877587609019646,1.0654146895836156 l-9.15385501322702,7.1845384846882565 -11.250137842507376,7.286218738856457 l0.0630336055076507,0.6923253089694825 1.9547624276405586,-0.1049780790653021 l21.667224050772756,-3.681377342065536 m-2.962033183911643,-3.9188827129338435 l1.914395085192935,1.525714187001697 2.092696368581546,2.28334214404014 l1.6998545806337086,2.3160385718460743 0.7957197382946081,1.78571936691227 m-26.61611602135875,4.931497137371052 l0.5919100246295866,1.6343074278422287 -0.2764075085627522,3.389019044449507 l-0.6712842208022798,3.647623518920445 -1.042382744701719,3.082064637105967 l-1.2907109703241415,2.462873531776484 -1.6530627575871033,2.142431218837196 l-2.1147565503774293,1.9020448811035608 -2.0448340556410893,1.2753315599727821 m13.48363192993897,-22.732307431953423 l14.963788451605536,0.8610851365887098 10.318969561167751,0.4851786647745331 l1.2559016563493668,0.3940904443446963 0.7664652129953177,0.9574925010925284 l0.08166069688661755,0.5968831876636738 -0.131230261791058,6.186563516542458 m-28.908026277617438,2.1053852845498167 l3.695110409426626,0.2251933168787893 21.585310048983732,-1.123408906702272 l7.162964669794016,0.09387588256891535 " fill="none" stroke="black" stroke-width="1" /></svg>