<?xml version="1.0" encoding="utf-8" ?>
<svg baseProfile="full" height="111.12533468864537" version="1.1" width="112.97443969580944" xmlns="http://www.w3.org/2000/svg" xmlns:ev="http://www.w3.org/2001/xml-events" xmlns:xlink="http://www.w3.org/1999/xlink"><defs /><rect fill="white" height="111.12533468864537" width="112.97443969580944" x="0" y="0" /><path d="M25,25 m0.0,0.0 m14.403036809746732,15.103729515872494 l0.2899094751630997,0.4126071500387196 0.38309902409869745,1.5732887457590643 l-0.02699036074275075,26.62717622714552 m0.5720141884046922,-28.437246803747595 l12.608610212203121,-2.0893580802925658 0.6460477455160043,-0.016347921278993992 l0.895798015827817,0.6970446071296508 0.28244008657308944,1.0852103126974524 l-0.31493098859347246,25.771297943169888 m-13.711365796505813,-15.14969536539764 l8.190267277178878,-1.7486779898784703 m-8.378401720455567,10.71265250316908 l8.328255890188005,-1.51032631542537 m-15.06984001599265,11.116131768652448 l1.431406835448146,0.806487526986128 2.089186705987813,-0.041705040480361916 l17.644370318010466,-4.476904005336532 m5.0921273886997325,-14.22166915111441 l2.485084503554659,0.19940157910118309 2.242860187355339,-0.25981333872773354 l19.32864366351401,-3.892470980612824 1.5649480251802894,-0.055818950836546886 l0.8701088298556107,0.21282898808402012 0.9213500459552944,0.8379532416739425 l0.20640334963818607,1.3641929911406847 -0.6166993597819218,2.3111925981052632 l-2.225859358715034,5.9340443483412315 -3.0613832015755813,6.6777547772342425 l-3.3923190477749525,5.507468363828956 -1.4463036188731677,1.811848714837685 l-0.689494526877177,1.2072688681862116 -2.5659533874026565,1.88004470658602 l-1.229448263772402,-0.20358032608665871 -2.542121710923498,-1.9437162102436303 m2.1738587044798745,-35.09768905745451 l0.516658205737654,0.8566458787224129 0.2349325190488183,1.5881936009680098 l-0.6758365099128952,6.563604326337248 -1.7469397098200048,6.773967481239533 l-2.807428951814771,6.924151170810626 -3.088958339617634,5.310562173599013 l-3.8715640464707195,9.078853654866629 -3.8107758797091966,7.228261811443166 l-2.8713393305127926,4.096488649832677 " fill="none" stroke="black" stroke-width="1" /></svg>