<?xml version="1.0" encoding="utf-8" ?>
<svg baseProfile="full" height="113.52938603563112" version="1.1" width="114.05711894084752" xmlns="http://www.w3.org/2000/svg" xmlns:ev="http://www.w3.org/2001/xml-events" xmlns:xlink="http://www.w3.org/1999/xlink"><defs /><rect fill="white" height="113.52938603563112" width="114.05711894084752" x="0" y="0" /><path d="M26.04190085552103,25 m0.0,0.0 m13.043252271865189,15.969418148972009 l0.3930929729727123,0.3873993601199478 0.505729157788152,0.7509398528049783 l0.17541514101853273,0.9541929383105454 -0.021193420882869216,6.538095964985754 m-15.138196978282746,1.6527511405442545 l4.064942838064453,0.09044006661241738 13.644769426985267,-1.3678667425003832 l15.910581095444055,-0.812696385616781 2.275442930749738,0.458050066728698 m-34.62784303067116,8.273888827503878 l0.5873825660596591,1.4573056291703008 0.40860536143493786,6.55756232585416 l1.1880410759147264,5.154751848527612 10.541690297767596,6.459840921682177 l4.12102624669702,1.2044268123887134 5.910339772845974,0.7877985823974688 l5.6278889029492305,0.08762717422729151 3.969671605233798,-0.38099489830230776 l1.8364762422763818,-0.48375696611924146 m1.4409173790706447,-26.995147580375473 l0.39002155177148595,1.1523961602965052 -0.09102426144310777,1.1469826068109485 l-2.032427524323857,5.672499701730225 -2.7692708520672173,5.994432968074228 l-3.6430505114518246,5.617543764626776 -3.5435533646511153,4.296811499572905 l-3.2079995743063305,3.1594592241829136 -5.0787778917782305,3.915770836709856 l-4.3708505237103585,2.573723887936972 m39.92587063785228,-32.74562330053058 l0.41204627651879944,1.052275051498742 0.16595719710799753,1.782510017662456 l-1.5354754999938052,26.285441250357223 m11.805515834404613,-28.10235135298565 l0.7094938067071114,1.966414298833485 0.020710929388745435,2.318504187610465 l-0.16179511545082897,26.956692239236645 -0.127889725197207,2.3296485905325217 l-0.8919069988896723,1.41222731555846 -0.6855176585051711,-0.6590741512875388 l-1.8937074440303516,-2.466724359262123 " fill="none" stroke="black" stroke-width="1" /></svg>