<?xml version="1.0" encoding="utf-8" ?>
<svg baseProfile="full" height="88.8802589028895" version="1.1" width="107.97192482597973" xmlns="http://www.w3.org/2000/svg" xmlns:ev="http://www.w3.org/2001/xml-events" xmlns:xlink="http://www.w3.org/1999/xlink"><defs /><rect fill="white" height="88.8802589028895" width="107.97192482597973" x="0" y="0" /><path d="M25,30.364090354794623 m0.0,0.0 m12.274709258431908,3.9345031542504154 l0.49420963519336325,0.1591192189352523 2.5101692510077753,0.04596852091293506 l12.539701324642067,-2.0912612377002744 0.7153340710374386,0.07989445847133023 l0.7505144055202951,0.374005212031666 0.38822136590983397,0.5675290093604509 l0.08004551383941746,0.6083310446014134 -2.202967989701775,0.7030382862360129 l-10.52767029327459,4.8733341077802494 m-1.878317322227952,-1.8910631010012287 l3.6998807976042127,2.0386520782181328 1.8115609941040103,2.104216736366644 l0.9675047501234666,1.537940381412362 0.7149219583764147,7.072513161532404 l-0.7849068620186683,1.6061479246894157 -1.1334162074151433,0.9158996712347778 l-1.546270907623291,0.1679472992695936 -2.4915706441062637,-1.2002824626400448 m-11.085740988335061,-6.01072917602895 l1.777474950647712,0.23359447458130525 2.545554659150804,-0.3541265184650094 l20.493104772551813,-6.615320347811542 m8.76728396312743,-13.564029019486627 l0.7049600743200876,0.1062827964212532 0.7572547056520224,0.9335905326886347 l1.8773317507115574,6.314402969622015 m-2.114960184712138,-6.691665610135231 l14.80161022163019,-1.3125660655980402 1.741232040938028,-0.009957854543943592 l0.6968276240358369,0.2284577358982521 0.3021398167138224,0.39125090081752134 l-0.07840915003112962,0.5080524086805402 -2.3738801570271466,5.3129574808756805 m-12.746923447149623,1.2936562924832313 l14.189194308841063,-1.0175915805271385 m-38.58670384813647,6.347650064613535 l0.6668333316213062,0.9994139303772254 0.12579556921356433,0.9927548755022719 l-0.005016021663905333,16.982496722839574 0.32100760745282236,0.8134239893102593 m1.0731773756247756,-18.559532222660778 l28.059031440770166,-1.8594330725370578 2.1197019311633016,0.05308284417312384 l1.225071616269861,0.33982195126586967 0.7087923609054798,0.344078061652323 l0.3746327586401921,0.42639031816279777 0.1477831229281181,0.5410490972246276 l-0.5074826305763449,15.969840850222916 m-31.80795913432702,-10.448103557880465 l21.092684462229755,-1.2499104310962301 m-20.832125374373124,6.727213183513405 l21.071774209851075,-1.1499415971726783 m-20.978300903240772,7.124855762289311 l31.52676941402544,-1.3381978041279976 m-25.543348234842192,3.344378686296985 l0.002649931841740118,0.3627059158643262 -2.2024754680961567,0.8233102544405659 l-7.2954922743794866,2.5836763083984913 -6.022548761741545,1.9881589556841723 m31.475762353456,-6.253305427114398 l4.226120079716341,1.422768388307872 4.428105042868926,1.8379545347288322 l3.4502262503085217,1.675494726862869 3.021750557981591,1.321380355519654 " fill="none" stroke="black" stroke-width="1" /></svg>