<?xml version="1.0" encoding="utf-8" ?>
<svg baseProfile="full" height="94.75463207360772" version="1.1" width="102.70590815576173" xmlns="http://www.w3.org/2000/svg" xmlns:ev="http://www.w3.org/2001/xml-events" xmlns:xlink="http://www.w3.org/1999/xlink"><defs /><rect fill="white" height="94.75463207360772" width="102.70590815576173" x="0" y="0" /><path d="M25,25 m0.0,0.0 m27.005498808769623,4.00954730695111 l0.3749263844722068,0.24970653041790497 2.3406632568718098,2.601337575326607 l1.2065611196295907,2.132233809133806 m13.170782122850401,4.857643448617127 l0.02102670554654062,-0.35887606476443956 0.770532215198268,0.3450656313963967 l0.1843385038077123,0.6097226947296622 m-18.65435914120751,3.3625529333809205 l1.2175851810758385,0.13867133360721393 1.9900739733808448,-0.09036481140063594 l15.054840014821774,-1.4980513930888533 2.919916767814295,-0.08624424797277312 l1.8327167144454384,0.13747039693598279 m-12.671652802075101,5.193473849415288 l2.3583421656960435,1.0042024927616722 4.551765635118035,0.6504431908989585 l0.8958904044918639,0.8164958655954704 0.12089886283251598,1.165432622912264 l-3.211107759830601,2.844988863310748 -2.8283797487795352,2.131799339496371 l-2.7482544527595603,1.7949711066547296 -0.6122894669448704,0.005756499813493775 l-0.3968868436941306,-0.1504008850816834 -0.7002533355474811,-0.6569645293293515 m0.7003239882042689,-13.209050211689012 l0.0732893121361919,1.036104426717316 -0.8241705535826384,1.797881016385442 l-1.4996221287646982,2.37173543393011 -1.8158844496541084,2.2446510326387057 l-3.688856790349613,3.443971113232272 -2.3340730506843728,1.614761878225495 l-1.8858794728441621,0.9918697661446744 m4.698097938048794,-10.184642605037887 l2.26311241505379,0.9569048498062485 2.5467011331315614,1.2807370576113153 l2.1889995917449867,1.3809850129447014 1.2709181196350865,1.1785400092463612 m-13.78117912940437,10.600665319617013 l-0.3967011441032589,3.1371203523680724 -1.1001242484556084,3.489647010735043 m6.773716821943979,-7.6993279964809975 l1.664573289509504,2.8873020602323543 1.9900591835634611,2.384983487488638 l2.3836664799912524,1.8350565275576276 3.063117710124797,1.2595886128434768 l3.206686275958504,0.5598406809600941 2.8451777733692034,0.18469367841267184 l3.2564675746432634,-0.06536002782260106 1.8669549990967993,-0.3537181342551186 l0.5314044637091553,-0.2949280338201652 0.21232272898744917,-0.38356434751523977 l-0.0855613215352589,-0.46318526330775545 -0.40223474364785367,-0.5372217757426865 l-1.6220539916460959,-1.2061782900791418 m-10.717306445040963,-6.6917823113533474 l0.9812611542930919,1.672844717848887 0.8299657591962317,0.8444412851985797 l0.3738244329482036,0.05468127815636004 0.34967342519596417,-0.22881517270290053 l0.5737510301309686,-0.5191781065067375 m7.3744990549725085,-2.94676686726481 l2.722028655018099,0.8861080844849131 1.3572610581527722,0.6656942427503155 l1.2055355079268788,0.8733128176022615 1.3629904628039502,1.4553886154143465 " fill="none" stroke="black" stroke-width="1" /></svg>