<?xml version="1.0" encoding="utf-8" ?>
<svg baseProfile="full" height="109.49251355137676" version="1.1" width="108.38693563826382" xmlns="http://www.w3.org/2000/svg" xmlns:ev="http://www.w3.org/2001/xml-events" xmlns:xlink="http://www.w3.org/1999/xlink"><defs /><rect fill="white" height="109.49251355137676" width="108.38693563826382" x="0" y="0" /><path d="M25,25.000000782310963 m0.0,0.0 m5.983429551124573,9.456742405891418 l0.6314972788095474,0.13812916353344917 4.439617395401001,0.23782266303896904 l15.280146598815918,-1.4224345982074738 21.66400909423828,-1.456792950630188 l5.551261305809021,0.3725961968302727 m-32.77801275253296,-6.2572163343429565 l0.7884147763252258,1.0688482969999313 0.2805204875767231,1.0688482969999313 l1.246989667415619,13.71688723564148 m13.794822692871094,-16.923431158065796 l0.25746995583176613,1.548994928598404 -1.939462125301361,12.700923681259155 m-11.4010488986969,1.959555298089981 l12.47024416923523,-1.2470657378435135 m-13.71688723564148,9.107478260993958 l0.6768155097961426,1.5890072286128998 1.674468070268631,13.5317862033844 m-1.0973787307739258,-14.217908382415771 l10.053505897521973,-1.9024944305419922 0.810682475566864,0.05210287868976593 l0.6227989494800568,0.39142392575740814 0.3674165904521942,0.6506335735321045 l0.04488327540457249,0.8294708281755447 -1.7957225441932678,11.956696510314941 m-8.19450318813324,1.346498280763626 l9.427576065063477,-0.9548135101795197 m-31.48648977279663,-8.834699392318726 l2.0131367444992065,0.2875661104917526 9.465848207473755,-1.0285751521587372 m0.3348849341273308,-10.081689357757568 l0.5415785312652588,2.0169639587402344 0.09263155981898308,22.63704538345337 m-11.645992994308472,0.3917718678712845 l1.3482379913330078,0.32814372330904007 1.1916684359312057,-0.22145895287394524 l11.732454299926758,-6.704831123352051 m35.56147336959839,-16.077258586883545 l-0.5720008537173271,1.2894374132156372 -3.757321536540985,2.7676281332969666 l-3.1550508737564087,1.8383008241653442 -2.7688461542129517,0.9950866550207138 m-2.3088793456554413,-11.094868183135986 l0.569913238286972,0.9495075047016144 0.16387615352869034,1.0671085864305496 l-0.05644659511744976,18.993282318115234 0.6162752583622932,2.320360988378525 l1.4303500950336456,1.0919857770204544 2.670033276081085,0.5511248856782913 l5.006051063537598,0.015200297348201275 2.5399065017700195,-0.31687941402196884 l1.1199943721294403,-0.5138961225748062 0.731353834271431,-0.8753978461027145 l0.40247078984975815,-1.3395397365093231 0.1339974533766508,-1.905277818441391 m-47.69735813140869,13.09339165687561 l-0.30196184292435646,2.1488304436206818 -0.7657991349697113,2.277565449476242 l-1.3798998296260834,2.8780966997146606 -2.0060911774635315,3.2061970233917236 m16.578283309936523,-11.701661348342896 l1.3712015748023987,1.3882501423358917 1.6589416563510895,2.5701767206192017 l1.307355910539627,2.8526976704597473 0.785544365644455,2.5451254844665527 m8.662124276161194,-10.070555210113525 l1.9150198996067047,1.7626255750656128 2.005482316017151,2.4898043274879456 l1.6808614134788513,2.6575076580047607 0.9409832209348679,2.2678232192993164 m8.17223608493805,-8.823565244674683 l2.596619427204132,2.1745775640010834 2.693692445755005,3.0645886063575745 l2.170054316520691,3.2041093707084656 0.9409832209348679,2.1596163511276245 " fill="none" stroke="black" stroke-width="1" /></svg>