<?xml version="1.0" encoding="utf-8" ?>
<svg baseProfile="full" height="117.21320110482768" version="1.1" width="100.57602308419519" xmlns="http://www.w3.org/2000/svg" xmlns:ev="http://www.w3.org/2001/xml-events" xmlns:xlink="http://www.w3.org/1999/xlink"><defs /><rect fill="white" height="117.21320110482768" width="100.57602308419519" x="0" y="0" /><path d="M25,25 m0.0,0.0 m11.308378543815124,13.146022420806323 l0.4745571190619573,0.10659437767092693 2.964209039346485,0.0066651816402574894 l10.814976191567176,-1.8523164310681035 2.586569719072712,-0.2512440329589727 l1.3397530644804916,0.15903836961915405 m-9.363967986483805,-8.483735463839146 l0.5687834645458183,1.4199895715708493 0.14654309763459028,1.1739193268288384 l0.04301557448106074,18.029936307469125 m-18.875369579704422,2.769780264508932 l2.1155165071381385,0.4241883672895096 1.919246560016166,-0.032737935750052335 l30.81639608500563,-2.4943203238931213 2.481944850357869,0.34732822655401685 l1.9176274402060194,0.5484075452109856 m-6.306888265607494,-17.056418014610884 l-0.07474691058268372,2.4434659390005007 -2.9416416398278193,6.558189587929277 l-3.0505985070437167,6.011502013624674 -3.8787046706209383,6.265436425652566 l-3.635055313342239,4.659183344560856 -4.157898333242159,4.36036022107237 l-4.93097345715208,4.279356398488211 -5.617141785435305,4.8836735009692145 m22.176978258288635,-8.67204080123478 l-0.2532257409876769,-2.2002611994925303 10.406389640862832,-2.9840145478036506 l2.1611999443464507,-0.06383715575958496 0.49354828420182467,0.31262292763710686 l0.3126157768309951,0.4709921991829465 0.05977721417092442,0.6298261352333395 l-0.4888279103331748,0.8004513297419458 -7.5719895588425885,5.793225202767964 m-2.460362376382225,1.3757549240106908 l1.5074025052921807,2.5747011446726 1.3044387660846701,4.2620593174366554 l0.6117965440998419,4.142342397509274 0.012878538206214932,3.791345346469701 l-0.5067632698786734,6.6547120782402125 -1.362526925209279,2.8830513509324693 l-0.49986400778639667,0.02000526693700954 -0.9708433602027473,-0.7797590878564986 l-1.239315947385512,-2.0461019582261994 m-9.889103431082187,-13.451792465794266 l2.7772464139742317,0.31106553321481806 22.861560535750254,-2.803378022201007 l2.3816661561206103,-0.01234659110204085 2.08681622636942,0.4298899505237656 " fill="none" stroke="black" stroke-width="1" /></svg>