<?xml version="1.0" encoding="utf-8" ?>
<svg baseProfile="full" height="100.6437378940162" version="1.1" width="120.7339558609834" xmlns="http://www.w3.org/2000/svg" xmlns:ev="http://www.w3.org/2001/xml-events" xmlns:xlink="http://www.w3.org/1999/xlink"><defs /><rect fill="white" height="100.6437378940162" width="120.7339558609834" x="0" y="0" /><path d="M25,25 m0.0,0.0 m18.511669275848554,3.8839019867136457 l0.022918390671830078,0.43876666214218263 -0.11435208014504845,1.2912824168418864 l-0.7120182180852743,1.8308440159701052 -2.9499558041466734,4.621770777697775 l-3.802875793321002,4.251618724853727 -4.318698708653785,3.455706867319223 m13.679588835604523,-12.659999528285113 l2.656992498878865,-0.08461007502931325 7.624522394018857,-1.0724963977433792 l1.2966657426493777,0.4163179277567121 0.24272718237680696,0.6542542977078967 l-0.3693437990866376,0.7420766433848239 -8.260663855070305,10.528537663572683 m-11.347384836169098,0.9916802426219027 l0.6362565011658383,1.1097929635919304 0.4600563520094151,2.8513582344857507 l1.339509701031923,12.531121786253305 m-1.4595107694384823,-15.736947547140025 l18.390136302565576,-2.2306027705764406 0.935825083718631,0.01526299221481606 l0.6739153475943493,0.3080261923319237 0.4453045909325607,1.0987211740622223 l-0.14577157385366904,5.252061678702893 -1.2140910498012418,10.623142470989459 m-10.263753779209807,-15.848557968351022 l0.6543971268708899,0.7846803185234328 0.43514849053205573,1.754148256393152 l0.017309264137629773,11.967682587494549 m-8.90948180196149,-6.853848503972369 l13.90358699402213,-1.2445075381137907 m-13.503464293643304,8.877307173955701 l17.323077753207976,-1.6039696574867257 m-20.663439838377816,9.093427625206234 l-0.6163765275934439,3.909890666145618 -1.4400357629937033,4.201669325414383 m7.998184087380316,-8.71295779637285 l0.8775177757587505,2.854040752662861 0.6681974064323188,4.056572831604658 m4.875007203316168,-8.019999697245973 l2.029458686794002,3.3428512082769126 1.1422503796065955,3.2693803502461214 m3.209139296447439,-8.041865394605448 l2.4232599454050425,2.858200802190535 1.6485545806496282,3.273109334565321 m6.645795613270168,-41.430752912628265 l0.6864258144875344,1.4952533392466252 0.03694398879757727,4.8016440298008 l-0.29074328605771693,15.843147089190014 -0.6462530117064104,6.494966611788568 l-0.9328966708971289,5.175309805919574 -1.372082470907492,4.764490823960076 l-1.87398745478496,4.0637720548082275 -1.9422031422368349,2.6097232788670985 m7.012303496470715,-44.43098029833916 l27.18385946780162,-3.002353374675494 1.3630514137146301,-0.0001431280264982545 l0.8337834049544458,1.7702384759070227 -0.1580339786510325,44.41201587800604 l-0.5080996228474328,2.29435573518549 -0.6115836387954193,0.6420411296996671 l-0.7842854807726782,0.11216527833451756 -0.9470889368473386,-0.2904397108411434 l-2.491237055104041,-2.016927085538467 m-19.21221518142567,-35.52878643450475 l2.793341968270043,0.11300494102541529 12.264732124003267,-1.686369137878448 l3.3266976350595914,0.08605311483762709 m-9.854725537985901,9.155776000873312 l1.4357508085788797,0.6195095438722099 7.17935941615181,-1.0920408258570131 l2.0788313151477813,0.015014385187453782 m-13.49097086372558,-11.915148326908112 l0.6470793862477083,1.7177368905315706 -0.06327866049248762,14.533185794979815 m-6.991187783944904,-14.195983158722484 l0.686936121929619,1.5608142769677207 -0.022309908018919005,12.718668581689265 m-7.105310193756711,1.0023796931640228 l2.4968888667439093,0.17935082109411915 12.848159785228212,-1.6442257678555785 l3.0087089104870484,-0.2035055750464921 " fill="none" stroke="black" stroke-width="1" /></svg>