<?xml version="1.0" encoding="utf-8" ?>
<svg baseProfile="full" height="105.97019667572532" version="1.1" width="121.23291542916002" xmlns="http://www.w3.org/2000/svg" xmlns:ev="http://www.w3.org/2001/xml-events" xmlns:xlink="http://www.w3.org/1999/xlink"><defs /><rect fill="white" height="105.97019667572532" width="121.23291542916002" x="0" y="0" /><path d="M33.020143340637894,25 m0.0,0.0 m11.725208114073235,3.3548606499006643 l0.42236891551045547,0.4177237089763991 0.47176043008001906,1.7312598140289233 l-0.03758301076490455,6.076551570633746 m-13.98547882270747,1.5946705358500095 l3.7294560419911362,0.1424964315508133 17.556693748839322,-2.4644435225381276 l3.3147226515915826,-0.21695437573325985 2.28096846793776,0.12483041048541016 m-21.10143999239222,7.04769678190601 l2.519771972582283,2.1446372673239265 1.5325615877747685,2.236921048015405 m10.97097481615117,-7.845946826553165 l-0.05127856011531106,1.9793088885707348 -3.7960951536273755,6.300828668833127 m-19.341242726757606,3.166055516043545 l3.859526425034439,0.16719503485241974 21.890422259741808,-2.4005198370486815 l3.39759185509159,-0.019633062788441194 m-27.1500222183372,8.980894042498523 l3.3753302497347706,1.3100806322019545 2.5294718735101855,-2.4928069319433854 l6.208377193656038,-1.5245077639170075 5.866220001081849,-1.3419354200585527 l1.132708857619799,-0.4216718080305992 1.6795456384217422,0.06962888041966359 l0.16513449970049643,0.4323489521681315 -0.5250165144693545,0.8130426088097534 l-8.45027805630029,7.366468995126867 m-3.9569917339820138,0.6141753654542764 l2.5430793949913086,1.9289998826180106 1.7302362168157464,2.820796530360098 l1.0953687916144215,3.929672758789747 0.15293387624182891,4.212908523042349 l-0.9235172940767097,3.296833688332954 -1.031015393936994,1.696583379803197 l-1.4449149819604497,0.7411456577398745 -0.8196282816803977,-0.14207006632770836 l-2.4823357315845263,-1.9641668783567594 m-13.073738747732838,-7.616194244037181 l1.5352010045635802,0.49130058282952643 1.7756208685774413,-0.35283048928964544 l25.17517783253257,-8.412011456304336 m16.228739208921503,-31.941746129579577 l0.5246240592696958,1.066873770390038 0.1452754372334433,1.2440500791735298 l-2.3857575291578548,19.111243806046676 -4.771453822694753,7.138913911151122 l-3.8715299511878714,4.078439473895216 -4.997374205212987,3.9505267856996875 l-5.029924740744643,2.7139364368644245 m9.381592932708609,-30.6869631123742 l3.908788895110751,0.0842695143498165 17.605972298031645,-3.905418983332202 l2.3844607792285686,-0.08779117895661367 0.8504127581408616,0.8343693320917372 l0.05160204687687152,0.8726409230352934 -2.7810451211801506,20.39016136329446 l-0.1860207974548581,3.6651097627391693 0.4809608590239298,2.677607978378125 l1.2843286766580055,1.71767593514152 2.376415445276832,0.7905279735331048 l4.752481590499689,0.15506172070496074 3.573262097862734,-0.38531460750259566 l1.3767908407645209,-0.5632253779074412 1.0000935881603301,-0.8663247363828422 l0.6623295664340507,-1.8572206187862679 0.18189081091748044,-2.719774875206916 m-36.08584243462033,-10.22791969486261 l3.701058618859354,1.4013127015178375 4.246822201092151,2.357370991883281 l3.4482065299052667,2.4274073669190965 1.7840464234437392,1.937179520431121 " fill="none" stroke="black" stroke-width="1" /></svg>