<?xml version="1.0" encoding="utf-8" ?>
<svg baseProfile="full" height="101.82698877794233" version="1.1" width="113.56689632891167" xmlns="http://www.w3.org/2000/svg" xmlns:ev="http://www.w3.org/2001/xml-events" xmlns:xlink="http://www.w3.org/1999/xlink"><defs /><rect fill="white" height="101.82698877794233" width="113.56689632891167" x="0" y="0" /><path d="M25,26.14336671833815 m0.0,0.0 m20.326478746045336,2.9441028031227883 l0.06028778183656172,0.4689043839938159 -0.35363703024351556,0.9958065341782294 l-1.0350165017125412,1.7727819212643536 -3.0585819045827622,3.902699150597857 m-3.8079639861839847,0.6527805766597229 l0.6272629282968306,0.8386795243749878 0.22574263155861626,0.9929109753685988 l0.15550461466319715,19.457905835185045 -0.30297415729320026,4.684768504036313 l-0.8063512772903727,3.92343731515722 -1.1636898915984961,3.43176286253438 l-1.7663036202565732,3.7619666309836175 -2.0320207197635165,2.8551150421472538 m6.437299840136027,-38.5815654544335 l10.310692196485771,-1.6336050194885814 1.3743582282342321,0.39342209954084995 l0.5403771091862462,1.012297218294202 -0.7421796234157207,35.15631384819968 l-0.5494923504375062,-0.03291339408681211 -0.7059564829327047,-0.33335278657907513 l-1.820092500486058,-1.4032132113236984 m-4.371144589561309,-31.313234832367257 l2.3133291581310913,3.286852723792787 0.8297351218395375,1.839775434805764 m-1.6332487733226746,7.322181749364742 l0.5659304644724711,1.0995411811290516 0.09641498487963217,1.021925105418718 l-0.20078944041003874,11.355160948808765 m-11.955133941098431,-12.92785348150781 l1.2679605344260314,0.6556155408927511 1.1344038010111885,-0.05262256005118546 l20.436320542239738,-6.686385534411101 m3.0445098252307754,-15.74932091679329 l1.350207870559111,0.9646406129931424 1.8469732189816679,1.9699022790989091 l1.5050726940169596,1.826745183628337 0.7117951513177736,1.372132141560068 m-7.845262696979745,-8.787566232726595 l0.8386871256347347,0.999853096877903 0.23538992936471456,1.0589161227144357 l0.013229706457951355,11.765528627269948 0.17817339539301916,1.376966315058129 l0.4612430687923259,0.5301455654294788 0.6761316698057609,0.11807869889379065 l7.484755747001122,-0.882195089048324 4.415693453877322,-0.03631047449730213 m1.8391248257148247,-10.58467214673397 l10.082904394304023,-1.309083020253649 1.3467581302183451,0.013371174932520699 m-11.47837043584894,-6.652460292344153 l0.6605238744842659,1.5350520466108744 0.03871296091015304,4.86497022681075 l0.6911545508532722,2.6236585282735048 0.9407213088730354,0.7273812903854912 l8.809794469015726,0.6047661124220218 2.9130765470011704,-0.31869142578420506 l2.4083736510791875,-0.6901546133298381 m-16.294423969323557,5.781680299398688 l-0.217271085429519,1.4737833032788221 -1.0077193430353069,2.0816938611344593 l-1.8207808290559706,7.056850665472898 -1.7945558977499598,4.55920003674197 l-1.6186210477809353,1.1864641247082608 -1.6135238309096511,0.9246106312258346 m7.951338091409117,-14.521882211680275 l8.916044169986574,-1.4671117950112116 0.6109043493775607,0.13752103177892652 l0.43369017831924317,0.4337558139671473 0.11152393265854946,0.6632458864430858 l-0.34866901725209276,5.20815847851476 -0.7592591220072133,4.071137110280761 l-1.1640875966546174,3.876101257828385 -1.395348950119793,3.3030225354704292 l-1.622477282843034,2.838993077293122 -1.6992398965677236,2.1929375373921034 l-1.8720803433793953,1.749781239748847 -2.6662451109168877,1.3935418812277405 l-2.6982706345051146,0.8979670618314325 m5.522225498693416,-16.911322466202357 l2.8917664486542614,2.0120872129371503 11.60036682391236,2.2172112372073802 " fill="none" stroke="black" stroke-width="1" /></svg>