<?xml version="1.0" encoding="utf-8" ?>
<svg baseProfile="full" height="108.52562819725159" version="1.1" width="111.3643990755096" xmlns="http://www.w3.org/2000/svg" xmlns:ev="http://www.w3.org/2001/xml-events" xmlns:xlink="http://www.w3.org/1999/xlink"><defs /><rect fill="white" height="108.52562819725159" width="111.3643990755096" x="0" y="0" /><path d="M25,30.811956816616153 m0.0,0.0 m19.062502977285778,3.743666103537402 l0.06101526458774561,0.5082020057206899 -0.3625434595582372,1.1205961428338629 l-1.0571596595251014,1.9717826670838252 -3.136843730576324,4.255072948508484 m-4.084188269164574,0.9102030870088298 l0.6644721774452087,0.9191101685033626 0.274513062124339,0.8596645688271737 l-0.034431782499751575,18.185161599910206 -0.4381129149859553,6.261252940230025 l-0.7184296466649828,4.273949734018559 -1.1340130659277974,3.83018541996316 l-1.7052056007507472,3.268633100049773 -1.98567417129384,2.6061908944400867 m6.564016768490966,-39.304165218609036 l11.01199396023096,-1.8401322394948845 1.3635515178175068,0.16987144188137496 l0.5566905171038095,0.8659104842616563 0.1023284788779034,35.16557468048621 l-0.20079643595970734,2.7566562338657583 -0.5440878179505735,1.10086929049417 l-0.7662726894234825,0.19002911301950415 -0.8586680488222977,-0.3990986766795991 l-1.8126344648737602,-1.6224452349380236 m-4.747202687634953,-33.55713731435623 l2.30344596614298,3.6249196697746875 0.7900893924169484,2.081990136848936 m-1.7762058797768676,7.586792079449817 l0.5599609813588787,0.9855355092419321 0.11786983206937073,1.0386215329212007 l-0.17728033223004058,11.589339617888227 m-12.462031624629466,-12.776542633244624 l1.3577093193374485,0.6609844519840409 1.1662557062718808,-0.06214052702837055 l20.9880610208847,-7.525241633850521 m3.8669501427395447,-21.251397904701992 l1.6446367028641455,0.9534139500007655 2.03287797167882,1.9289708881818184 l1.5590064728631052,1.927233785933294 0.7122862984691769,1.4217454751186427 m-8.347131675566626,-9.022301021640665 l0.862704689188844,1.0197364712360473 0.2796305055209213,1.046674365942618 l0.006503559366805049,11.525087019089057 0.2006368381569718,1.3024823844857862 l0.4763878366173705,0.46856317351591614 0.7060959193388583,0.1043070209577161 l8.745681888627358,-1.0748827760193909 4.421136233633172,-0.06636321115374895 m1.3029122991163071,-19.02715255244356 l0.638691543508308,0.4186803813861373 0.6781775054857582,0.21016890545926245 l12.391306408653753,0.2961618075351081 0.24321327504903087,8.395275089061073 m-10.294586405352767,-9.8322222131117 l0.5729434512280724,0.8953725897829207 0.15626856846253992,1.0251517407249782 l-0.2335681985023877,9.371851035986246 m-6.896810789545624,1.1142144378172314 l1.78882898032969,-1.1631901140933125 m8.47319042965772,-1.066723893770769 l-0.14921192491394317,1.8183699686569255 -1.0303675056865107,2.0621791665859868 l-2.644667713579264,3.249114627912132 -2.8159475295172953,2.6417488045638793 l-4.495303738542319,3.194208577093246 m-3.3176794104123544,3.430440952356021 l1.907414771324402,0.4082136896554946 14.223903168349398,-2.040551305643847 l2.361908671014842,-0.10166978877779502 1.429076504308533,0.26353190145784344 m-19.813279169026426,8.537576840796474 l0.6444299164709557,1.4761812713657299 1.6344424925971281,12.071224674233738 m-1.500274694823716,-12.566903911414977 l15.260334607325571,-2.0261769311710274 3.5357702996087834,-0.07700635569295684 l0.846522161378416,0.8749226084296716 0.100126805856861,0.7447634288497548 l-2.004467468173312,10.102648632584188 m-15.993194380350177,1.623210998989826 l17.088087953669856,-1.309947927351876 " fill="none" stroke="black" stroke-width="1" /></svg>