<?xml version="1.0" encoding="utf-8" ?>
<svg baseProfile="full" height="106.1408648695422" version="1.1" width="108.85726320021313" xmlns="http://www.w3.org/2000/svg" xmlns:ev="http://www.w3.org/2001/xml-events" xmlns:xlink="http://www.w3.org/1999/xlink"><defs /><rect fill="white" height="106.1408648695422" width="108.85726320021313" x="0" y="0" /><path d="M25,25 m0.0,0.0 m24.82285987283734,14.047569681446648 l0.39533704112122886,0.20508071482857165 2.381750045641246,2.136716827495153 l1.1721463660091065,1.7183449696735267 m14.60758823759086,4.142564842177854 l0.13297758938504095,-0.5703129985236361 11.374984981016189,-0.7304313141741218 l3.9696190666121116,-0.13502941952631314 m-31.15160359757691,4.702338255593479 l3.106585032321923,0.09868979799669408 20.413610474344804,-1.3607117277159235 l3.9719674607689925,-0.12306113507529312 2.0854047832317613,0.10794591587756268 m-16.690824115828498,5.271425294355172 l2.9403729786961086,0.6007026413047826 7.041063207937046,0.5271942815106339 l1.4029648967361712,0.22496409344495347 0.8184977591970447,0.760144690808703 l0.016821783246343102,2.0750986720403994 -1.0423066331560706,3.7308885367623716 l-1.8555264403366778,4.13409424034284 -2.0719311878153657,3.31958399900068 l-1.2328847653451813,1.1496911085572323 -1.2354593051352867,0.1699725156333564 l-1.1674825888714322,-0.4903152883669735 -1.475532468491009,-1.1090139523489326 m0.6896946991448639,-17.424601697214996 l0.09953415806310456,1.1810828662493384 -1.1871712819565388,2.250271276815432 l-1.9967200283765174,2.8152374412547485 -2.4211086752669204,2.6817229874613138 l-2.294598724429593,2.1021959397608017 -2.661320336001046,2.0229960254454324 l-3.059140715571445,1.8782074978024268 -2.6120825720971883,1.2233118493255146 m8.386255972350153,-11.994733426844437 l3.0049920210114265,1.0066129226855876 3.1665401853531128,1.3435492513534537 l2.756092765477891,1.4913862691138573 1.733930375139653,1.3007665169999194 m-26.326958075553534,11.340490210859226 l-0.38548883190332883,0.21474751320079855 0.3532239421131612,1.5932437979117575 l0.9164605737427025,6.510242384242602 m-0.7608131851119565,-8.654910278092125 l21.30412639734819,-1.3332353163086477 5.811802151264947,-0.21134240176038313 l1.310320301954575,0.9494012195455234 -2.3840406445520093,7.801928506740665 m-17.696754329017313,1.229752508794549 l19.224716326732942,-1.162892274544438 " fill="none" stroke="black" stroke-width="1" /></svg>