<?xml version="1.0" encoding="utf-8" ?>
<svg baseProfile="full" height="102.02526106064728" version="1.1" width="107.53382942814844" xmlns="http://www.w3.org/2000/svg" xmlns:ev="http://www.w3.org/2001/xml-events" xmlns:xlink="http://www.w3.org/1999/xlink"><defs /><rect fill="white" height="102.02526106064728" width="107.53382942814844" x="0" y="0" /><path d="M25,25 m0.0,0.0 m7.112895523824276,20.396595030958185 l0.2192769863774992,0.33390505290248407 1.3707599142094335,3.2903359180990153 l0.9345599527229099,3.2856008711909546 m13.327079804482983,-10.231561597654927 l0.010922726851494589,1.026633328804523 -0.45522265076757856,0.9834426318608988 l-3.2680079592589903,3.19100408931159 -2.40035336893771,1.919794202426391 m-1.3011774827643068,-16.576775121765596 l0.47015418420176597,0.8896518783453625 0.13869994406815536,1.0824412596139295 l-0.1574260443007138,12.823954022752147 -0.4588102344912262,7.8868066675377175 l-1.0735685380535176,7.531657041514424 -0.9214474301335908,3.462933184600582 l-1.5825271933416933,3.804191850685348 -2.0065445032902183,3.186950027850236 l-3.219943267170602,3.7377007216140195 m9.696714241969321,-15.30137113081793 l1.7049385968176451,1.287472328711774 2.155389630885675,2.3246015617732225 l1.821073953713902,2.5323306791704114 1.311026031785369,2.5615484369300368 m4.845199941751089,-35.92866749054721 l0.7918920650377601,0.25087464079652966 1.7170372704719086,-0.26593120998772823 l4.523188761558212,-1.2497804887802877 2.1257709103096856,-0.22940512861602322 l0.4030109445803909,0.2515144957050922 -0.006531450060656627,0.508020609704918 l-2.2363994705387387,4.684225990237651 -3.8271328017500537,5.567308947068141 l-4.253591218150015,4.793684357695687 -2.016490558309951,1.7570165718034931 l-2.09156104100365,1.46008582064779 m4.1659741560531725,-13.982190560551146 l2.2272461691684176,2.3729681379596923 1.4814521856702745,2.7823367199106372 m17.13194710522855,-10.350948679615351 l-0.13915693534933002,0.7773412906347755 -0.6901743258772112,1.2338722703414444 l-1.181077420657171,1.3967636718531247 -1.530744622245494,1.335512242533841 m9.252432463318916,-3.188751044577355 l-0.3239530793328707,1.3057897915531818 -1.0763993673529442,1.571558253561824 l-1.7249771594051735,1.718291091781196 -1.6771038892492254,1.1948984025797298 m-10.137643076303288,-7.775232424291449 l4.257339904631095,3.597608993311945 11.25447753611934,10.711830540214677 l1.3260043532002022,0.9512683299927375 1.5153292572348902,0.5561102566102597 m-23.391041263633134,-2.023653626199083 l1.4683082010666781,0.12865185873693877 8.898176546880947,-0.8560620301465904 l2.8806224706887145,0.03842668239879362 m-15.677604606124453,6.700416332586211 l0.5968004742475459,0.6240034290311144 1.7396197230337702,9.12687867946995 m-1.4318996967808,-9.152361906887712 l13.554868956382787,-1.6770889865181138 3.104908585230164,-0.09376369322416771 l0.7685551080210399,0.8284333325555565 0.11801096326307228,1.281004037186815 l-1.8666927503245425,6.762517405869081 m-13.462712172699906,1.259746335435297 l14.92422082879918,-1.2700340392019722 m-16.323920543121954,4.316963511735312 l2.305961846750394,3.858434833477187 1.080505641819981,3.2621407423705473 m10.945198041061419,-8.368584214881997 l-0.17618386020828394,1.602379526976551 -0.8762736978637492,2.594019592147732 l-1.1257476240472821,2.303359535934686 -1.4176543427815393,2.0810050447595287 m-17.678384797107515,2.0108044332485355 l2.328442836821427,0.27538299900277113 22.098239541727253,-1.7855871082904058 l4.514178464838698,-0.17097704655136275 1.4532143083911802,0.2632145844748579 " fill="none" stroke="black" stroke-width="1" /></svg>