<?xml version="1.0" encoding="utf-8" ?>
<svg baseProfile="full" height="97.99594191069698" version="1.1" width="100.90715017199545" xmlns="http://www.w3.org/2000/svg" xmlns:ev="http://www.w3.org/2001/xml-events" xmlns:xlink="http://www.w3.org/1999/xlink"><defs /><rect fill="white" height="97.99594191069698" width="100.90715017199545" x="0" y="0" /><path d="M25.069112486063805,25 m0.0,0.0 m7.8293033402861445,21.592767575665153 l0.4351254091483317,0.1058203083044165 2.53235303347225,0.050122692068924835 l25.904355027535495,-2.0198019344448173 4.130559602410114,-0.1324625128279922 l2.4634914313446963,0.18710651998870584 m-35.00110425710579,2.379118304395863 l-0.12825877621637982,10.47221614234898 -1.0817884019901314,5.153711466694923 l-1.0281655656882343,2.871890204220217 -1.5168139764881132,2.837397816753128 l-1.7078231864762285,2.0927382380524104 -2.9003461662959595,1.5802890790510782 m28.934755465608667,-24.790625783108563 l-0.02404465004116071,0.17785928411550647 -1.0680266197681036,0.6934789626970512 l-6.669271212422097,0.9896236643672909 -6.789405797201464,1.014129014067069 m-2.4080422554597547,2.8103241330938933 l1.1628399378471117,0.1553764361632998 1.7711762210564248,-0.04206960592479657 l15.13175351308242,-1.2533623040844715 2.4252669665725772,0.09235681245151756 m-21.089131687210976,-2.591999052629457 l0.5752844208526497,0.5412940426801327 0.21392888497537677,0.636003429746397 l-0.16955853433964996,11.38073263311829 0.3029242221638388,0.5704384427390526 l0.7892722753671796,0.5006190888035488 1.866494775122241,0.22479491020530012 l7.816446917606427,-0.4626535238034202 1.6981018005772042,-0.8343293734381335 l0.24807607418543504,-1.1926960131629794 m3.37678331110257,-13.76674658636531 l2.42486287901235,0.18902521289015764 15.992966998734216,-1.4106651029949295 l1.8442946058911718,-0.007573671632175257 m-11.005643102381283,-2.8554989710491068 l0.5390074664413429,0.3864315992361812 0.36534696721568827,0.8078628882346945 l-0.08852827770426502,6.5230220177728135 m-8.337822556083522,0.6880575834846804 l1.9104134393156482,0.11062509657378575 14.100118647498862,-1.1543998110191083 l2.563230114841247,0.007206612755379597 m-17.802690332658603,4.903390010389727 l2.747223209046522,1.6718360653338473 1.588741221968594,1.4460107039531769 m-24.16541319701523,3.3301090074051336 l2.1951109801643223,0.19930095040189041 3.0354445150198086,-0.04900667339745171 l32.73797949226833,-2.145633023507306 2.166883070743344,-0.051317511852546335 m-27.49678311056437,1.9715770921651543 l-0.14804779270261295,0.9759974111533599 -1.1365885875236215,1.561106698372157 l-1.742598992798327,1.76344928593574 -2.317708384667953,1.9696613924825184 l-4.720113412219997,2.902911383051677 -3.200324762198488,1.3737080032654991 l-2.7460501393931906,0.8652851492898231 m25.786108488343714,-12.197918396027456 l0.6597049522154239,1.4669740920707068 -0.1930025056208641,6.938072880646279 l0.38745089623683204,1.209305522206427 0.9495576791186903,0.9106853927546179 l1.5158032911170132,0.5268396386731072 2.598415601301751,0.27322110989315823 l4.8564006546548795,0.01252972899890965 3.3936856801173207,-0.26605565745310955 l1.3843193550884274,-0.3632527078008632 0.8873770607595144,-0.6933184533539585 l0.416524754217269,-1.15105468275018 0.10947242044783119,-1.654470462048806 " fill="none" stroke="black" stroke-width="1" /></svg>