<?xml version="1.0" encoding="utf-8" ?>
<svg baseProfile="full" height="102.90934825128278" version="1.1" width="100.97058056405858" xmlns="http://www.w3.org/2000/svg" xmlns:ev="http://www.w3.org/2001/xml-events" xmlns:xlink="http://www.w3.org/1999/xlink"><defs /><rect fill="white" height="102.90934825128278" width="100.97058056405858" x="0" y="0" /><path d="M25,25 m0.0,0.0 m12.623290953898154,4.702724373562287 l0.4903576415555108,0.14228271118921346 3.175794310059784,0.16154764570885902 l23.56667732427787,-2.4001347967621176 4.166642010096841,-0.08871698614002343 m-33.2817264074975,10.15125838214112 l1.9901401590612335,0.9504641796343686 2.148524166110051,0.17894853996429128 l27.813059787793566,-2.928303759443942 0.9862902709594102,0.42534945839391197 l0.6330143486108967,1.2304818527489878 -0.8015104975517376,6.3462390977817025 l-0.6702459060002922,4.932719016874207 m-28.24833722937597,-4.903562774119033 l28.089248825886386,-1.5873226921359136 3.797441437904001,0.07748211853681373 m-30.62715513678917,8.21149257511037 l3.859052112471273,0.13936295082983877 19.795669182428313,-1.9315925716963707 l3.9461041096750615,0.10529894637926568 m-31.127403518211082,8.846655662932688 l4.4086560977022415,0.15208576144927807 26.344813164740966,-2.282174702643023 l4.292657261830064,0.11592762873472373 m-18.957755315268468,-26.820445236140444 l0.7178708710144153,0.7711273845168795 0.3150453505109511,1.1120324041268244 l-0.13511778597480006,25.977603464071606 m-12.774499250078827,7.913153212787974 l0.6800172722093535,0.9707283824599386 0.7440708307809865,2.611791289367921 l1.4715006822973922,9.624844731060577 m-1.5986707402595715,-12.225196596989298 l18.11589641331668,-2.223341100915086 5.977554816982688,-0.4875794070247226 l1.5191050473183612,0.15335561641571197 0.7570667541987693,0.6794788540531937 l0.1520457042624611,1.1447785419481156 -2.3645260432060855,10.679759471012309 m-22.46544847908093,-10.356019248648966 l0.6810076367073473,1.6276218218727214 1.1804536810325046,9.433549507641724 m9.607893515821372,-11.627584804826721 l0.40062095995569164,1.2086841261487833 -0.7590985678147291,9.608756684444662 m-27.63613972252872,1.9172643922581118 l3.46440033445763,0.3772032222909048 17.330092561630323,-1.3058960340947159 l13.912575575013815,-0.6474022346085707 8.95993454295487,-0.26175299357856463 l4.303629448169239,0.34900703687903184 " fill="none" stroke="black" stroke-width="1" /></svg>