<?xml version="1.0" encoding="utf-8" ?>
<svg baseProfile="full" height="100.7258722040246" version="1.1" width="110.69701084797592" xmlns="http://www.w3.org/2000/svg" xmlns:ev="http://www.w3.org/2001/xml-events" xmlns:xlink="http://www.w3.org/1999/xlink"><defs /><rect fill="white" height="100.7258722040246" width="110.69701084797592" x="0" y="0" /><path d="M25,25 m0.0,0.0 m21.574495262776104,4.4965911794002 l0.3456182532580587,0.3987289932896404 0.6199710239068312,1.1340460322940238 l0.10934991034464071,1.2358559885883635 -0.11044188780827546,43.46065001045237 m-12.271291655026596,-36.96802761696873 l1.9560280470123297,1.1263334769703117 2.082036100123143,1.7787367434406272 l2.6630260053493515,3.1232570272528113 m-8.641894893440384,17.632701448884262 l1.1718047026354577,0.2665277351190966 1.1081302158331987,-0.388107396769701 l7.279777764238505,-6.7551846067566395 m11.791059247556689,-6.257953574126686 l1.814282828990998,0.2920926019521515 1.7049123634387156,-0.019486858302432762 l20.436337104520863,-3.2299770320696433 2.6761796334714925,0.0873237256206986 m-15.047780275502069,-14.646895734743449 l0.5329011583665835,0.7011172925350653 0.4491497575026413,1.4792768821026576 l0.06694260846002655,10.125872856188733 -0.7244876894320851,7.698946121367623 l-1.248172693031232,5.873794765477249 -1.9296539241615844,5.292129112391027 l-2.677871504603938,4.748778043389654 -3.5438377908199663,4.108004938370786 l-3.4800255255098578,2.5791819924158714 m13.982667908646468,-25.874932599380987 l3.3581996842300508,6.3075339360534795 5.170171821084276,7.734626983233324 l5.2492226378814175,6.713030608632735 2.4067117638747284,2.285167965682476 l1.8234928838093303,1.3805478394032606 m-9.438096718219118,-38.427507420038964 l2.9220230705113885,2.7673132403602017 1.8358235240658696,3.1154461166672576 " fill="none" stroke="black" stroke-width="1" /></svg>