<?xml version="1.0" encoding="utf-8" ?>
<svg baseProfile="full" height="115.5296237560209" version="1.1" width="100.42115638759259" xmlns="http://www.w3.org/2000/svg" xmlns:ev="http://www.w3.org/2001/xml-events" xmlns:xlink="http://www.w3.org/1999/xlink"><defs /><rect fill="white" height="115.5296237560209" width="100.42115638759259" x="0" y="0" /><path d="M25,25 m0.0,0.0 m18.25603010861623,6.469587532868222 l0.01921344823020611,0.42734374730210356 -0.17563382143479375,0.7043338703843589 l-0.9998955352836641,1.2625197176089464 -3.588255453111863,2.8027114382327047 l-4.453069516370307,2.514996622366226 -5.232992485936123,2.1388542312242556 m-1.2815935539965062,8.3219881799439 l1.1761288361281519,0.36413065786201504 1.5128070600990566,-0.06382816013887095 l16.30764089704968,-2.2776371807197626 m-8.008554748494495,-8.802742035528258 l0.40438621615885223,2.4442296081461636 -0.03987891707367087,40.356738495203906 l-0.22010063447434455,2.2411991657412993 -0.4665336706670227,1.0351739484418552 l-0.6361259914350129,0.12483629878494444 -0.7349988195037928,-0.5316867265127053 l-1.795686700611407,-2.409881738003018 m3.5250639502107144,-31.62101096647829 l-2.1932411362931936,6.2151661896052675 -2.70380175859617,5.936375919929283 l-2.87847111375765,4.974395523032224 -3.6370029321200446,4.772698773291661 m13.830318332578457,-18.052596331956323 l2.21979125795716,2.801548448460581 2.4674727099438596,4.75890016403099 m23.357048248534838,-30.541046037255597 l-0.10864784418878223,0.8172339422562119 -0.8882385034931612,0.7723371327067043 l-4.9041304115915585,2.525272894070316 -5.93043747631774,2.1952801544077 l-7.252286567939153,1.9318735126218467 m0.8263388768134652,5.227845450537085 l-0.19602521155172237,2.7816543082321044 -1.2293433617674592,4.1916492722340495 l-1.7811015472226337,3.9156912356481857 -2.0602190462609484,3.015713753586916 m12.758840425580104,-14.650477229332237 l1.407725640495095,1.6473980857376758 1.511503890431224,2.4209484293928965 l1.2606792467882046,2.5301769500131823 0.6860676275094244,2.0729893812669884 m4.480650400867778,-11.338490270653491 l2.2166762050832034,2.2083066593754057 2.563357754903202,3.3953533647698535 l2.1021783875049818,3.591697191225768 0.9275036256018989,2.699224499528833 m-17.59667511223119,4.273419919572378 l-0.14044994326325744,0.8259124581550372 -2.970300085762361,3.60420597096018 l-2.5834398691864378,2.1857615383679083 -2.907169982501961,1.7905321198157864 m-0.931797416154488,-0.8143580996859698 l0.43644494110598936,0.8493549950394328 0.30539849720905926,1.6596580163377894 l1.9957576423849084,22.836158763964278 m12.302264814493439,-27.42702424125986 l1.7680652573120905,0.3138338099184901 7.88096603616764,-0.8360592975874817 l0.6768227899021575,0.10201030463473142 0.4607471379959215,0.4523616332766329 l0.15426002783891674,0.6155029007349135 -0.4100916084880566,3.78719397929592 l-2.6782089133686875,20.815778114415593 m-21.321877871517554,-12.665139173323691 l7.139831034467334,-1.4937057512168643 1.6113538529295628,-0.026264587073172176 m5.164940784941941,-0.14292313166963258 l1.595518380172088,0.24317466859028172 7.05498685345402,-0.811281145808061 m-21.43603747751879,13.955844437194795 l20.548754746630642,-1.5615261985225486 " fill="none" stroke="black" stroke-width="1" /></svg>