<?xml version="1.0" encoding="utf-8" ?>
<svg baseProfile="full" height="122.53942076525391" version="1.1" width="97.53385119416893" xmlns="http://www.w3.org/2000/svg" xmlns:ev="http://www.w3.org/2001/xml-events" xmlns:xlink="http://www.w3.org/1999/xlink"><defs /><rect fill="white" height="122.53942076525391" width="97.53385119416893" x="0" y="0" /><path d="M26.066505772443058,25 m0.0,0.0 m18.245649373585024,4.9690562716716125 l0.03925604359823953,0.5297111634434185 -0.15238236415601786,1.0355270322286583 l-1.3071764668541546,1.5756742700277526 -5.315231348972674,4.91759559941876 l-5.303592279341453,3.6523192294186235 -7.273028730302021,3.9831899961905717 m2.9679678747667473,-13.996742254007147 l2.1197872777308713,1.4408254787742683 3.767315352414373,3.2911063586950906 l1.5558203557465646,1.8043745942684437 2.540389250970898,3.955240329321599 l2.6405755318474937,6.406023975556503 1.3523794861003053,6.65934084422646 l0.27840629269612577,4.221270093848643 -0.19002345090524725,3.92989394935761 l-0.627378598389909,3.609583689776848 -1.534670589994677,4.444992476885075 l-2.118059440836683,3.0238967644409867 -1.6042666682919378,1.0615480876112617 l-1.662928058163438,0.19643147857104837 -1.7135210349591052,-0.7409957366273597 m5.175392568305843,-26.832755214610973 l-0.07376648579984989,1.5218195059427448 -2.198980064954142,3.4832749729484203 l-2.1304549030248467,7.635578541669472 -2.2760482939598474,7.483868697883117 l-2.012125520457247,5.0250063755861 m25.570928601461826,-37.19327710289135 l1.3111412874334367,1.1742590986879038 1.2867480975699914,1.6297978197712433 l1.2993762344316833,3.2251284187290583 m-14.481583880989955,5.343304947320926 l2.5229919783786867,0.31230479527340066 12.006959309976388,-1.6817628092708299 l10.685992430793725,-0.8803145439778424 1.6976884962123602,-0.027218343053495714 l1.377797758058509,0.4314635022199465 m-19.840141436695006,6.161426755051392 l-0.06242040644251848,1.668264549104958 -1.3232073374906212,3.4570915232500457 l-1.7582570215749496,3.301405288595812 -2.043323979026742,2.9612634932631376 m16.024444578260344,-12.342688798135827 l3.2882506088290673,4.414765422030721 2.293793767917399,4.489673715654216 m-7.080492124496846,-0.7414509148766683 l0.2102177830397979,1.212986303236893 -1.1394640215340357,1.2307859516158743 l-5.283740914630381,3.66550618684405 -7.012782937230709,3.8612610392362887 l-7.36281816013751,2.95632873007701 m7.0955326711456195,-6.381164505761836 l3.848123269642874,0.9256382512596335 3.8454113724043837,1.6169337394455547 l3.2955028614440316,1.9841725059135717 2.0097171894660457,1.9542114351293272 m-19.82322132207214,6.063277800203489 l2.5222899444250544,0.2639014793031284 16.759849936100863,-2.0479997738419335 l2.2946543671423134,-0.13331923650535796 1.7706461973515497,0.22193045800773337 m-13.091685242503576,2.0356105389697414 l0.5618264029619636,1.190639694037896 0.21036318076760074,1.2393484749736772 l-0.05040183460151377,14.656900191447848 m-10.743457789791302,-8.947183295419178 l2.091365147579061,0.24169327611014582 16.36240126795234,-1.6905926741128323 l2.211096153154813,0.18174365827124048 m-24.82153947661788,12.018503396475879 l2.591836142284386,0.2282137510717073 24.68718519271252,-1.5925673443348338 l2.005943840096447,0.14491757528833535 1.9880958038571934,0.48859199888788296 " fill="none" stroke="black" stroke-width="1" /></svg>