<?xml version="1.0" encoding="utf-8" ?>
<svg baseProfile="full" height="86.79184606560389" version="1.1" width="101.91953345757669" xmlns="http://www.w3.org/2000/svg" xmlns:ev="http://www.w3.org/2001/xml-events" xmlns:xlink="http://www.w3.org/1999/xlink"><defs /><rect fill="white" height="86.79184606560389" width="101.91953345757669" x="0" y="0" /><path d="M25,25 m0.0,0.0 m16.340259064113035,8.452687644619942 l0.09058006872178823,0.46082000853368044 -0.09007650332875763,0.9600400730959054 l-0.854744100544071,1.7030088273330606 -6.920490926319569,5.534487856754377 l-5.460655861492823,2.815454145699584 m31.294374710792322,-14.376985021559605 l4.421986393187288,0.5550032330227155 4.077124141630121,1.3771405978268396 l3.289302381928322,1.4067920568033303 2.378636282472534,1.4766905112848496 m-15.109019964805626,3.8753419061321406 l0.24618938978816474,0.9205061767906958 -0.34424857330884245,0.9454953835023664 l-3.0279074391877834,3.8737229216701063 -3.749896210064106,3.750572853542631 l-4.254946089003048,3.7361247770634973 -3.921552006112255,2.7380459787111238 l-4.460742876833607,2.522970265433778 -5.0260181397945995,2.181887589412717 l-5.943325637298178,1.8820382799301594 m7.462346032076172,-18.692850829785126 l2.039995315682569,0.6630662487762015 3.156910908980385,1.6088480334204516 l19.245788321039914,10.374022828265362 6.970685305587194,3.107716678378972 l4.864698319742464,1.633616805700416 5.20428114992767,0.9934777007653522 " fill="none" stroke="black" stroke-width="1" /></svg>