<?xml version="1.0" encoding="utf-8" ?>
<svg baseProfile="full" height="123.90555141171573" version="1.1" width="105.68676831328445" xmlns="http://www.w3.org/2000/svg" xmlns:ev="http://www.w3.org/2001/xml-events" xmlns:xlink="http://www.w3.org/1999/xlink"><defs /><rect fill="white" height="123.90555141171573" width="105.68676831328445" x="0" y="0" /><path d="M25,25 m0.0,0.0 m8.970363675094655,4.363851942374271 l0.3989494127391907,0.523662111779977 0.4895404619234346,1.7037229312737596 l0.009119912541406976,13.058853905246375 m0.8668926779348232,-16.546301977466488 l13.999183487166494,-2.0993570078830195 1.6030414521824665,0.2698905971080283 l0.4966340919583942,0.7458482417735158 0.08006751007958016,0.807760851005854 l-0.9892581417289323,13.792993686971615 m-8.749580642350915,-6.716739726683035 l8.790379718064836,-1.3912510443149166 1.963016744183678,-0.1191579518989305 m-12.928527058724097,1.5849174257225929 l0.568190986735512,1.3692993914902396 0.0690709589357679,6.865258823526513 m-6.631718513993197,1.0287429654786644 l-0.16011431316490246,3.524795323341455 -0.7315291548814891,5.023468508971674 m1.797251690789127,-8.425900271966619 l11.538304552922277,-1.8311573105719663 7.931023464235425,-1.0800687068786323 l1.0314618974021024,0.09647412496533213 0.4890871927815991,0.39791427721014494 l0.011464549671900276,0.652441283309352 -0.941840861985744,1.614370931657643 l-1.238823492784317,1.403675302147848 m-15.48124502380499,3.718820385802033 l0.4745944078784335,1.9380296926384393 0.0297795928190479,26.846237458927845 m0.36544077837786404,-27.99479383017203 l9.830047972114675,-1.8942513866622737 0.6709031678124189,0.0738390549531853 l0.7977477091836993,0.9705289842971443 -0.2125822539478565,27.84930840560238 l-0.3010613429564132,1.4853492586548758 -0.5147752439306726,0.46676418430015315 l-0.6486237100737278,-0.28242616798349246 -1.7519447429519344,-2.2186836429688586 m-8.082539017845162,-17.84597168086486 l10.922533195168405,-1.7565740709769957 m-10.982103388764175,9.47835020979951 l10.850364328029949,-1.5428353178637582 m16.32452615677321,-36.49319979810232 l-0.31091806375927966,2.1493025336776124 -2.5634982370400836,6.091562983911226 l-2.613669049123269,4.919009364175318 -2.958542606119724,4.552727375705039 m8.431739283894764,-10.716134468253149 l2.910624460562155,-0.225691459213615 7.463072603238256,-1.9191040591825028 l1.1405541375489299,0.153657127132103 0.4332194111892161,0.43634851781274137 l0.10300228475427833,0.634832146769201 -0.6186862766828566,1.6962401277171715 l-2.0654751300962406,7.09380167868569 -1.7457594382065347,5.291757933299303 l-2.0346213781639086,5.153638725483886 -2.4241808149228534,4.655356487996045 l-2.4025626915742158,6.456235817412431 -2.232788464740995,10.055845251918019 l-1.5791527407714536,7.601418874737214 -1.5222928254710621,6.375333843897963 l-1.7569953619590313,5.272632251883952 -2.1680710351254944,4.76027998907784 m2.9026108415785776,-32.075154331956526 l6.0077439850084335,8.77082983848271 6.943509909012287,9.076380497056983 l5.2086745005546184,6.169435075139891 2.1165161680880864,1.411242239828701 " fill="none" stroke="black" stroke-width="1" /></svg>