<?xml version="1.0" encoding="utf-8" ?>
<svg baseProfile="full" height="103.58273419892835" version="1.1" width="111.36098676723344" xmlns="http://www.w3.org/2000/svg" xmlns:ev="http://www.w3.org/2001/xml-events" xmlns:xlink="http://www.w3.org/1999/xlink"><defs /><rect fill="white" height="103.58273419892835" width="111.36098676723344" x="0" y="0" /><path d="M25,25 m0.0,0.0 m20.7905227275483,5.310531890163295 l0.042647202908431464,0.48686672218200705 -0.21194897881894717,0.9656076536588063 l-1.208878455043069,1.6647336664494872 -4.8407712719422005,5.075301345635537 l-4.530224589251563,3.636780291434568 -6.060888004635839,3.8345589477124196 m2.170012490439953,-13.02101744957235 l1.9888039516236256,1.266323399654146 3.5296947345130896,3.0100282588036054 l1.442936058869465,1.7397484244594852 2.338966963644734,3.9075007374685446 l2.355939925977737,6.381588327542877 1.111746043682438,6.449153469471582 l0.15792799149977937,4.242557588707532 -0.22832783345342736,4.034621194613594 l-0.5804979674500824,3.6971079384659777 -1.421960950788121,4.5761516565023275 l-1.927179154034477,3.1273001978633754 -1.4391155715696817,1.044879816846343 l-1.5793140855358527,0.07490055521987876 -1.6018641411024341,-1.0562867471827901 m5.302068938091822,-27.539337707064455 l-0.06374344193464782,2.279876546351069 -3.2486420906566646,4.382765721624701 l-3.675865795784031,3.638622006875235 -5.725770625891222,4.582140375211312 m50.68803641856709,-34.929334851603166 l-1.047123564361385,1.4176819247899115 -5.634594901280243,2.788131309526473 l-5.336879371255946,2.0205921549150085 -10.017868397406517,3.3238950021916085 m-2.377009028767292,-1.7686903376396375 l0.7381696241385506,1.5611162773200187 0.07206950948830744,8.224595994059326 l-0.19889891476337304,8.176723028183424 -0.7302352611240621,6.562982456998469 l-1.1616198361136447,4.756305277047034 -1.342151217000362,3.3963815971203952 l-2.433010000514641,4.165808383800678 -2.485091681332715,2.9531397761198246 m17.749653405507118,-38.237563472807516 l0.6262151089881829,1.081168563895176 0.1398114633092463,1.2181710366986602 l-0.09001480246552268,31.257104311034904 m-8.861871951512695,2.5666744865223237 l1.398139501661692,0.39316903098025535 1.2919253195259663,-0.12812812502590304 l13.302035778875961,-4.878619434292042 m-1.4146888476763613,-5.173017297008394 l1.3645591727293733,1.9025505652198704 1.5146618164617958,2.8972644428670007 l1.6479723480512578,4.923296880956589 m-3.053423697578282,-38.42663546433046 l3.672885183395679,15.903890728604646 3.722692772304497,13.300723918203367 l2.829396609839281,7.736354781719222 1.7497572689588863,3.4573999606960952 l2.1512128676765023,3.346596463067076 " fill="none" stroke="black" stroke-width="1" /></svg>