<?xml version="1.0" encoding="utf-8" ?>
<svg baseProfile="full" height="126.81514306526806" version="1.1" width="87.5671913799667" xmlns="http://www.w3.org/2000/svg" xmlns:ev="http://www.w3.org/2001/xml-events" xmlns:xlink="http://www.w3.org/1999/xlink"><defs /><rect fill="white" height="126.81514306526806" width="87.5671913799667" x="0" y="0" /><path d="M34.02329108088965,25 m0.0,0.0 m14.663124720693183,3.94476566026518 l0.0639528685326357,0.461651840507591 -0.5978796855273597,1.0570368368193228 l-1.1002143530479631,1.595591891908088 -3.270937241880476,3.7485883928577377 m-5.265480929512299,0.6484641293510304 l0.5202449438257577,0.8084525043075593 0.2143411168757283,0.9385377113912524 l1.559878214736925,23.43598302055361 m-1.099187411478206,-24.820979217097683 l20.415142480661526,-2.277554639237237 1.431777706667477,0.15424662474872236 l0.7929842102410836,0.6885632389465666 0.2161536582890318,1.1122685606919687 l-1.4028300758184624,22.811503382867645 m-20.597821938801957,-13.424044862478159 l12.740451617393745,-1.2834301960414984 8.307968757842442,-0.5174134321611868 m-20.46001500893356,9.46907773811164 l11.136645624226906,-0.9971811461141957 m-11.453798456150865,8.356146750831812 l10.692035550662515,-0.9493334472495847 m-22.670463532800124,2.9670890822649474 l2.950184179057768,4.434306816763082 1.7845732662971376,3.734423051947176 m24.572652644928745,-9.546218549144948 l-0.3141685379988571,1.4317231034763183 -1.5760247636142666,2.526301140881876 l-2.095395436222345,2.4408629625805256 m-22.372476411843596,-9.859182352794072 l1.3579898729281288,0.8129268501539019 1.8093450622675493,0.9192242469911395 l1.6526354700031072,7.3172546748818545 1.1196495198027472,5.102334219279414 l1.11279189314002,5.5762695455964835 1.4724660018810702,5.254687947396086 l2.0535375412639465,5.0290047015954835 1.7539762925576843,3.145464795957442 l1.9818139216965218,2.97728801695472 2.183722725152147,2.798074260745138 l2.438653713052531,2.5874797838501444 4.753302372761958,2.2048874221111654 l0.5638816598783575,-0.9065216638494406 -0.05156595908999168,-3.550179991592313 l-0.4206487800744228,-2.5704739871283167 m-6.330630765956056,-17.28522514842649 l-0.05027565999830745,1.9096157895718648 -1.2687614612537694,2.0102588443286464 l-3.0254981373135816,3.622825250032876 -3.727468761159307,3.61232379676126 l-3.5692521937875843,2.7839413233513013 -4.121745101679635,2.588692987241888 l-4.633906273792925,2.4488227706155254 -3.862721810472105,1.6577672572611724 " fill="none" stroke="black" stroke-width="1" /></svg>