<?xml version="1.0" encoding="utf-8" ?>
<svg baseProfile="full" height="108.33620771123333" version="1.1" width="105.15097268320682" xmlns="http://www.w3.org/2000/svg" xmlns:ev="http://www.w3.org/2001/xml-events" xmlns:xlink="http://www.w3.org/1999/xlink"><defs /><rect fill="white" height="108.33620771123333" width="105.15097268320682" x="0" y="0" /><path d="M25,25 m0.0,0.0 m17.745046604030602,10.261069186341773 l0.3151276585590258,0.3726079402482833 0.590224099082951,2.1486622465925955 l-0.04243873653259314,45.55386833805068 m-11.818700748684256,-42.5797643332782 l1.7557530769768108,1.154743321432734 1.8068360035316868,1.7734525027112873 l2.4424600632445723,3.4987108756638263 m-8.188036232258911,19.664429868927982 l1.152433596204742,0.30167610455114446 1.1274740504432135,-0.4136000630348489 l6.866415958536228,-7.314453105639564 m10.749105500349119,-7.0833856456483835 l1.8586285460124021,0.3213901925815865 1.7530657402742205,-0.02110459058769088 l19.582420758177626,-2.8446817630626935 3.8987613305947386,0.11734839695951033 m-15.475908349189266,-16.19901908856311 l0.5232235417243873,0.7275498847772529 0.41400650532376937,1.5351352746361249 l0.014409688188915144,11.151582215754642 -0.7686734956982544,8.422991929796137 l-1.2354245360027076,6.348210229562223 -1.8957158423234457,5.7768451292762535 l-2.652375624991139,5.1763868292512125 -3.484617639836801,4.472754550743037 l-3.2832515782529303,2.8226576436185025 m13.215708090831582,-28.780052066743515 l3.3327734825592663,6.829304954343147 5.157718013350531,8.357091699842409 l5.341050262382089,7.41016550509309 2.4861519430402725,2.476187636650445 l1.867320953558384,1.4622382725288308 m-9.756817383945457,-42.52673518156045 l2.8915550508404757,3.007495428468393 1.8829215184882344,3.4191810865835994 " fill="none" stroke="black" stroke-width="1" /></svg>