<?xml version="1.0" encoding="utf-8" ?>
<svg baseProfile="full" height="113.39162635524079" version="1.1" width="102.82899340058079" xmlns="http://www.w3.org/2000/svg" xmlns:ev="http://www.w3.org/2001/xml-events" xmlns:xlink="http://www.w3.org/1999/xlink"><defs /><rect fill="white" height="113.39162635524079" width="102.82899340058079" x="0" y="0" /><path d="M25,25 m0.0,0.0 m20.322788133643787,6.234022847140228 l0.029171422913042717,0.5352783356638774 -0.15408539530761325,1.0837979546830636 l-1.1103791116261301,1.6337470970306882 -4.541299307681887,5.532924273565998 l-4.260367958512841,4.01269143357689 -5.558497707036136,4.39454560646421 m2.5825853590075303,-15.296434486582783 l1.7146903587319957,1.4665618682309536 2.984277481155427,3.3579126531393375 l1.2476493749194697,1.8408058559515406 2.0735705768596415,4.025775490650417 l2.0942793395516675,6.488777210473875 1.1507340942751914,6.68471890636869 l0.29509500148629575,4.330815436697394 -0.08172339920056368,4.172786537196304 l-0.4522905194116647,3.839556361658883 -1.1746025014198846,4.761099637728998 l-1.6381934472170494,3.1996570035564598 -1.2665651612507658,1.0956074940175258 l-1.3435462768429784,0.14810184332584142 -1.4051304484734353,-0.9244783004835517 m4.011417841177957,-28.412143334513306 l-0.060839992663561396,1.5987773899310247 -1.8209215376992582,3.667046291703998 l-1.7473095702762789,2.9082175417840648 -3.4724025680270114,4.463965062178173 l-4.276269252195759,4.4551958726604886 m21.708457783290086,-21.8392377611276 l2.8578213740156277,0.6891668505368814 20.477306332979133,-2.542483921740622 l1.8612309258504147,-0.1821329395187885 1.7823421555663315,0.30320613132111696 m-20.30369001849862,-12.454410516643767 l0.7642624923988313,1.079709929241585 0.367025901462029,1.1576216827015373 l-0.01852470810503005,26.1730658229141 m-10.499707913002675,0.8569383578616977 l0.6973447702562638,0.30525973073570173 1.698096251530018,0.19220629413662108 l19.250304955959653,-2.1590564194875097 3.075366147219521,-0.05849011699786512 l1.7334503901362348,0.3492760782663852 m-27.068028608585742,15.184331273100693 l1.6600545676660208,0.2703264697075136 2.8842925538861053,0.0025389352229307047 l18.61295672735222,-1.7905558979228489 2.4647046082890007,-0.10709236869001562 l1.888224902726628,0.27043746461072277 m-15.53112392722059,-7.407306205528467 l0.6068544008873739,1.2313653490045715 0.1987074603249657,1.9868341847805475 l-0.03499534438390429,18.708692181627338 m-16.673296246726967,1.4309565878821666 l2.785495393529298,0.44112929544688206 13.582364353078983,-1.1674106615813638 l12.165923594733576,-0.735895268361861 2.79639148642436,0.06185919045618707 l2.431255367568328,0.4701485374555523 " fill="none" stroke="black" stroke-width="1" /></svg>