<?xml version="1.0" encoding="utf-8" ?>
<svg baseProfile="full" height="102.60457275776398" version="1.1" width="96.0263940732587" xmlns="http://www.w3.org/2000/svg" xmlns:ev="http://www.w3.org/2001/xml-events" xmlns:xlink="http://www.w3.org/1999/xlink"><defs /><rect fill="white" height="102.60457275776398" width="96.0263940732587" x="0" y="0" /><path d="M25,25 m0.0,0.0 m16.248995559052528,2.707932846964587 l0.034473327885192646,0.5335465708374045 -0.10795350812181916,2.3633325696097693 l-3.160590969370299,10.49949724064179 -2.935405231587154,7.055832442503332 l-3.6327969909546756,6.485202076923559 m6.965435338114841,-12.05480221889356 l0.36038394145894365,0.9642608379200888 0.10892907577617278,1.2383332075778393 l-0.1297557103987017,32.81143718367916 m13.736517092838014,-48.844959442247394 l2.997137683814453,3.031535772200583 1.664382448270385,2.291461720571973 l0.6283625458619181,1.480232070418217 m-12.772601090820237,8.855454529394956 l1.7172731090015514,0.12707442026769272 1.7108386261181225,-1.2155234245781088 l7.244939985640942,-1.974885030682202 7.822456554647355,-1.847790071240129 l2.060371775811473,-0.20757761899734314 1.4449662025052603,0.28160053331750456 m-10.98885415395516,4.084212856505658 l0.5136991496922616,0.9429711502997957 0.2821510513921585,1.9075426479447783 l0.039016468806114535,28.603329132276073 m-9.377144119036146,-16.577998159659504 l2.6248376136307225,0.1889430997153033 14.030699439668005,-2.3670189628234017 l2.409142939433683,0.08705798320691659 m-23.221016362990586,20.482010110879994 l4.0083986287488615,0.16492216065775073 19.885310411403687,-1.6801921199109549 l1.9573776631103503,0.09167987925498132 1.856415577810477,0.40422946560587203 " fill="none" stroke="black" stroke-width="1" /></svg>