<?xml version="1.0" encoding="utf-8" ?>
<svg baseProfile="full" height="111.68470805122642" version="1.1" width="108.5529744314434" xmlns="http://www.w3.org/2000/svg" xmlns:ev="http://www.w3.org/2001/xml-events" xmlns:xlink="http://www.w3.org/1999/xlink"><defs /><rect fill="white" height="111.68470805122642" width="108.5529744314434" x="0" y="0" /><path d="M26.627283036263442,25 m0.0,0.0 m35.91057548645379,5.898831033685694 l0.0680525321599643,0.4378814554072293 -0.23540868312041235,0.965948777535765 l-1.632102841461757,1.58928835624949 -5.4894377958528136,3.4315992869742384 l-6.4897401571631175,2.8442653721030275 -8.190259469733991,2.5457656874194177 m-3.2424755309156263,-0.11634024717762335 l0.8771181089186717,2.496707584423873 -0.413380140671193,8.951844946997225 l-0.9246234249397057,8.400237397369793 -1.5547066925002457,7.278790884369803 l-1.9033344583855312,5.2729147170913455 -1.9915965997730962,3.6748716129843637 l-3.2488516615101903,4.2066676656870365 -3.167111707768185,2.680274951793776 m25.842287735105778,-43.423110279382655 l0.8697746484925656,0.9991840661758931 0.6110149147137398,1.810241086210117 l-0.15906489915201025,41.73884369530861 m7.760302139451894,-45.6494002010059 l1.191302938584795,1.2189918033419056 9.038393261170421,19.98708376262746 l6.115183802842116,12.602207796096693 5.498384794305358,6.52376770640507 l1.7853950959287381,0.8436592130032584 " fill="none" stroke="black" stroke-width="1" /></svg>