<?xml version="1.0" encoding="utf-8" ?>
<svg baseProfile="full" height="104.6683055341237" version="1.1" width="107.03029674783185" xmlns="http://www.w3.org/2000/svg" xmlns:ev="http://www.w3.org/2001/xml-events" xmlns:xlink="http://www.w3.org/1999/xlink"><defs /><rect fill="white" height="104.6683055341237" width="107.03029674783185" x="0" y="0" /><path d="M25,25 m0.0,0.0 m17.964201207860615,2.513924157337831 l0.33243452958093406,0.41905417783831533 0.6505015668219244,2.3790784349504768 l-0.047783035165482886,49.35624876399708 m-12.476139887734812,-45.11942159771382 l1.7324856712296148,1.2569890546003009 1.8309034913012656,1.9085617518053815 l2.591465494522102,3.790516627872235 m-8.5256843126186,20.9243213861927 l1.1994288338639065,0.29109559340894975 1.1477500869591006,-0.459541693130792 l6.919721542791529,-7.685953212150839 m11.95716958596313,-7.721350399320784 l1.928783393095732,0.30892534762915635 1.8157879117099935,-0.031123726429603614 l20.327331612931363,-3.375070710708701 3.960148317731921,0.10737771032910433 m-15.778062681623979,-17.369868900764303 l0.550573093493959,0.7965707593728042 0.4169616615033127,1.6579712223595644 l0.05516547919280445,11.779173525805456 -0.7348433384825914,9.132668131102301 l-1.2456120893923563,6.98871029507476 -1.9263877554356819,6.37419954468945 l-2.683422260145343,5.685276227845473 -3.4822428710839435,4.848588180396176 l-3.2307672665076614,3.0871397520233606 m13.19215923072013,-30.748608567624277 l3.372445583789935,7.300830921124924 5.3040597096462045,9.214450153889265 l5.471180121497496,7.879961429500271 2.528052453804293,2.6073224173474454 l1.9125316660110474,1.5928645116055995 m-9.858233930012595,-45.83541432145436 l2.9810191522921103,3.1349043323040706 1.9370780090680009,3.651055902744691 " fill="none" stroke="black" stroke-width="1" /></svg>