<?xml version="1.0" encoding="utf-8" ?>
<svg baseProfile="full" height="116.8000302909038" version="1.1" width="94.13782172134191" xmlns="http://www.w3.org/2000/svg" xmlns:ev="http://www.w3.org/2001/xml-events" xmlns:xlink="http://www.w3.org/1999/xlink"><defs /><rect fill="white" height="116.8000302909038" width="94.13782172134191" x="0" y="0" /><path d="M25,25 m0.0,0.0 m15.476501125354552,13.152705480676362 l-0.011234841541964274,0.42606748505912784 -0.3257775143964481,1.7887671741635538 l-3.0255423316300147,5.544491113165787 -2.7482599430386068,4.047948486185804 l-3.4999302337719187,4.494482879862451 m6.750645191814494,-6.323948562621276 l0.3557999607107757,0.23830538760963743 0.2771043787962639,0.5342789643854409 l0.08101564085034994,19.816740669915223 m7.878744430187874,-30.915429506662242 l3.345947559130962,0.1396279190498278 17.11299063253515,-1.8882202520458815 l2.469817666340429,0.10176610776658089 m-22.75523973143918,12.474738065761214 l0.769353932180962,1.3148050261465856 0.14821923534517936,10.18034406582076 m0.18710081529369657,-10.879206327325543 l16.351327780744384,-1.9503751617949387 1.1371909974597978,-0.005340333584669637 l1.1914225263106986,0.22022717281809012 0.667048130171088,2.0557787408038015 l-1.936967504499916,8.445715190335422 m-16.76483899751469,1.8604561810394027 l18.036809511906927,-1.4328285057394368 m-10.913583651645608,-24.67427107991716 l0.44111737116552036,0.6717417631907097 0.2621800584326764,1.0847690539063215 l0.09944697788838545,18.199528994868604 -0.376396907622022,9.049999454369479 l-0.9255760166871896,5.6483141264930445 -0.7225570771495335,2.271293062055545 l-0.969525633209717,2.0191755745586204 -1.1957113030697015,1.816633316026212 l-1.5093629252400511,3.0569760871457468 -1.6183765003390822,4.887368694271215 l-2.3917906668834745,5.043481503520096 -2.7342979913304997,4.283122279624261 m10.920777548519702,-20.516811789178266 l3.1642494676025748,6.738420592022211 3.4347833567872192,5.870296007770939 l3.8533226501270854,5.322964326213704 1.3150200766918876,1.2141016379101637 l1.095170139400499,0.5653868618196087 " fill="none" stroke="black" stroke-width="1" /></svg>