<?xml version="1.0" encoding="utf-8" ?>
<svg baseProfile="full" height="104.56755073486492" version="1.1" width="129.5223940588101" xmlns="http://www.w3.org/2000/svg" xmlns:ev="http://www.w3.org/2001/xml-events" xmlns:xlink="http://www.w3.org/1999/xlink"><defs /><rect fill="white" height="104.56755073486492" width="129.5223940588101" x="0" y="0" /><path d="M50.29031733526291,25 m0.0,0.0 m13.22087878021042,11.32657146402298 l0.43270866480061637,0.4329696758912224 0.5346105444352687,2.1637151030300474 l-0.21750875606226844,3.0331002000674046 -1.0166682332620276,4.2070073939116135 l-2.119566631004329,5.3937839369180995 -2.36904024808529,4.339191551146058 l-2.829692067343699,3.891835364070867 -3.3229129667231048,2.6795036047485765 l-2.917066999321872,1.4769029212341152 m15.192200016914203,-27.2918511182065 l7.795249199364324,0.055355721322528015 13.51897231316868,-1.524532570700026 l1.3385558487381024,1.9264716005377935 -0.28557207474330076,7.94300263200229 l-0.230298776787857,8.177378899931817 -0.0792229496474611,2.08763510369548 l0.21550074570656752,1.9207550212634918 0.670420791101525,1.4997023983356628 l1.0793681772657533,1.04458589998571 1.6191165023615808,0.8284018474965633 l2.938340750324624,0.5357084563169456 8.086448769626683,0.0764718718624365 l1.3147712525970578,-0.22508125427013057 0.8681036566409609,-0.5119954514773998 l0.5867537314131834,-1.3779958481776826 0.20762668185884392,-2.261538065996872 m-39.78960908951483,-8.711484627580099 l3.163608134859469,2.30926440493946 2.447061682577895,2.431695393284125 l1.9646012909073,2.203536294572597 0.7459228128896784,1.9319275692888884 m-26.910668235257948,-10.280241085847322 l1.9604663021381052,1.6379124562633525 2.2370220941673225,2.2780134355394956 m-10.987889832867285,5.225758473701858 l3.5844866205978834,1.5692387914416743 2.3152388734618,1.385104726357484 m20.42782531611758,-6.453054466337191 l-0.058747504227735524,1.2150903876780765 -1.40231072913366,1.7293256229228255 l-2.0689215057996515,1.7179573654953375 -2.3695679660570446,1.42037160110422 m-1.6644485267087132,2.820853318978072 l0.5111732233138646,1.3593309475716115 -0.9196432849967769,2.631701250855201 l-2.026701778159652,2.7999367911464277 -2.840060381115077,2.465939400899705 l-3.0501441306620123,1.9595129968850427 -3.6248969751300035,1.8477038611103715 l-4.411472868704627,1.7630486784329118 -5.6253752210249806,1.6206639225229529 m12.387978650093276,-12.637378829866066 l2.4883901686418395,1.329968547610093 3.385093219683081,1.9510572808207454 l3.330168149690967,2.2858475203489115 4.420829122806335,2.255028402468288 m-37.1418016913965,-11.613525633719938 l0.9836673462119468,0.8519449199543445 0.4169358177650411,0.8027185269013754 l-0.32812943451582216,12.811468621336523 0.5261082069076591,0.8681188725835405 l38.24507723538121,-1.8609500230107745 3.4619592157111687,0.17251287141618965 m3.2669770786441235,-17.082371021199755 l0.7447683576398648,0.5571509416124119 0.3276717099990477,0.887405124643901 l-1.0040628806931484,20.262390742774958 " fill="none" stroke="black" stroke-width="1" /></svg>