<?xml version="1.0" encoding="utf-8" ?>
<svg baseProfile="full" height="106.61525782197714" version="1.1" width="109.49251307174563" xmlns="http://www.w3.org/2000/svg" xmlns:ev="http://www.w3.org/2001/xml-events" xmlns:xlink="http://www.w3.org/1999/xlink"><defs /><rect fill="white" height="106.61525782197714" width="109.49251307174563" x="0" y="0" /><path d="M25.00000334228389,25 m0.0,0.0 m40.62906742095947,1.2203042209148407 l-0.011434991611167789,0.4098166897892952 -0.4620909318327904,0.9764561057090759 l-1.992788314819336,1.463678926229477 -6.306419372558594,3.606923222541809 l-6.762813329696655,2.7371934056282043 -8.662781119346619,2.506650686264038 m-2.999737560749054,-0.5488795787096024 l1.1284200102090836,2.0678485929965973 -0.35004477947950363,8.238555788993835 l-1.0734651237726212,9.275327920913696 -1.7223694920539856,7.56100058555603 l-2.1298405528068542,5.644948482513428 -2.1341966092586517,3.8629332184791565 l-3.680643141269684,4.490224123001099 -3.46886545419693,2.759142220020294 m27.150440216064453,-44.6073579788208 l0.9871791303157806,0.9060870110988617 0.6804448366165161,1.8594218790531158 l-0.1852845586836338,42.18498229980469 m7.355924844741821,-46.32302761077881 l1.1528817564249039,1.2214916944503784 8.643680810928345,20.201988220214844 l6.142224073410034,12.373582124710083 4.190317094326019,6.976936459541321 l1.5286867320537567,1.4774176478385925 1.846018135547638,1.15656778216362 " fill="none" stroke="black" stroke-width="1" /></svg>