<?xml version="1.0" encoding="utf-8" ?>
<svg baseProfile="full" height="101.33673936342115" version="1.1" width="109.04995827385054" xmlns="http://www.w3.org/2000/svg" xmlns:ev="http://www.w3.org/2001/xml-events" xmlns:xlink="http://www.w3.org/1999/xlink"><defs /><rect fill="white" height="101.33673936342115" width="109.04995827385054" x="0" y="0" /><path d="M25,25 m0.0,0.0 m18.152251530419154,6.606496161513424 l0.04754425465167846,0.4095311714268847 -0.12561048123471039,0.8980461089386017 l-0.9890201389888468,1.2918239621988499 -4.272497479719386,4.525406078236344 l-4.266048626928177,3.409118586161135 -5.84474506328569,3.8227549900524336 m2.613931839031803,-12.590010758042611 l1.6233472335745913,1.392073564024276 2.916008917024891,3.2562704259861 l1.245343431866959,1.7987260004095358 2.111373644806839,3.927896725567203 l2.245505198594062,6.296466755888073 1.0314967408365014,4.318938463757754 l0.5603360172796926,4.304165538323036 0.14969331283733298,4.05598084796493 l-0.2353197945249,3.7401061628143566 -0.576731794492068,3.3682747763348466 l-1.3690792294250986,3.975998313782117 -1.2231481152012542,1.7019725887044903 l-1.4019311528517788,0.8267028993793654 -1.5206906124723347,-0.1736132062417348 l-1.6432415292769178,-1.285093444261702 m4.107968311531369,-26.663827132735822 l-0.0638972243831295,1.5380483011237662 -3.634274459689849,6.275032201530966 l-3.441957727493008,4.162902875604329 -4.26530864883186,4.130069856000664 m23.095807201452505,-29.28438790880164 l0.6542565371191773,0.9541265195265728 0.731697068435532,3.9877571899707647 l1.6328317758102164,15.686050761515286 m-2.068636621703004,-20.209463810129947 l25.70103764522026,-2.1874172424564873 0.8728233100627371,-0.04105636105764136 l1.291521424398429,0.39291237348673475 0.395657501556378,0.3672930753012036 l0.2667932490493642,0.9025417424882545 -2.804004334568211,18.627662496730515 m-24.483231108482556,-9.047658822659214 l19.469181939959913,-1.7708585383041553 m-18.45369539935,10.761846578063624 l22.590455971685834,-1.757149361902444 m-12.157234815533108,-17.006382996027256 l0.8670765668264777,1.5859870518251773 0.19167966225984312,1.813354906743888 l0.07909234080889986,36.327081324194914 m-12.62383183386093,-10.640294003636122 l2.4791642688166284,0.19028445625118587 18.06420068101979,-1.3168877416141167 l2.7469438251390077,-0.07330336850657716 1.78481943574251,0.21633565010850087 m-30.8201656416541,12.546863782064383 l3.154153058166871,0.3143861818966033 26.210213080994084,-1.529735201679392 l6.129424910013316,-0.05537077474112178 2.1206282208088214,0.2879912908971687 " fill="none" stroke="black" stroke-width="1" /></svg>