<?xml version="1.0" encoding="utf-8" ?>
<svg baseProfile="full" height="92.81916660199902" version="1.1" width="94.780627376808" xmlns="http://www.w3.org/2000/svg" xmlns:ev="http://www.w3.org/2001/xml-events" xmlns:xlink="http://www.w3.org/1999/xlink"><defs /><rect fill="white" height="92.81916660199902" width="94.780627376808" x="0" y="0" /><path d="M29.356182886899795,25 m0.0,0.0 m7.295421806692493,12.988955509611976 l0.03679917704570092,0.4078271558029939 -0.8587501162683665,0.8595687006586172 l-3.3452470967492465,2.5435672823669417 -3.183984076962554,1.7880396397407212 m-1.829006020008463,0.1851242792676916 l0.5367759438262942,0.6390336833982927 0.2901716008662748,0.8618147379107377 l0.005154690754966169,18.193941374840296 m0.4417666766091524,-11.883480484863265 l9.296948696091503,-1.3047557540292436 2.424699109926242,-0.04678397277951619 m-15.466933278723795,10.833924538593136 l5.002892421516088,-1.6748070844532643 7.052937697815258,-3.0522271327313226 m15.408098763823572,-15.57595272793204 l-0.0060718287678691255,0.3479749112467212 -0.41741937197096945,0.6215114185552756 l-2.504754750124314,1.6288908163466842 -3.349822596539608,1.563659023310628 l-3.7020554267621266,1.2082012067480783 m-1.161594033221178,3.347656432043035 l1.5417695022184075,0.5923653034812835 1.6481152957996443,-0.023726491456703434 l12.931256789271005,-1.7840121086451395 1.601119688348024,-0.033644430512597676 l0.5939021656361682,0.22863222867068717 0.26994229367754174,0.3627944145300261 l-0.34496671327577727,0.9853286937346565 -1.8400515934665174,1.9740439954396218 l-2.305870302507863,2.520331273676397 -2.480456562532567,2.323473514055139 l-2.8431758092411465,3.9133760927252585 -5.419703964842893,3.836306623904756 l-3.305963091296265,1.7729810275782616 -3.731958377724958,1.6692329111641953 m5.255695603326296,-13.927816835271626 l1.4677496980814568,0.28719231143475743 2.3176605935926196,0.9322555067141615 l12.572005786695648,7.0728131310671944 4.561537733603649,2.2728657591107857 l3.626928824868058,1.3167157138929015 2.342878940808594,0.6072291362659635 " fill="none" stroke="black" stroke-width="1" /></svg>