<?xml version="1.0" encoding="utf-8" ?>
<svg baseProfile="full" height="99.84436740119624" version="1.1" width="117.38566953349125" xmlns="http://www.w3.org/2000/svg" xmlns:ev="http://www.w3.org/2001/xml-events" xmlns:xlink="http://www.w3.org/1999/xlink"><defs /><rect fill="white" height="99.84436740119624" width="117.38566953349125" x="0" y="0" /><path d="M25,25 m0.0,0.0 m20.4555389691552,8.763144192118347 l0.00018732437510883028,0.46342452949185475 -0.4322525476000519,0.9383061416207855 l-1.376787023163907,1.3075972779531786 -4.566758764325853,3.3540642540601873 l-5.266716555061461,2.66841188163938 -6.73276807492875,2.5056428046170507 m1.052313514835316,-10.997586347698727 l5.255979454271317,1.1714275102259646 6.157965791032656,2.267965399942707 l4.938455460805251,2.6591899770292597 3.8887470521157796,3.175583068495519 m-1.1995910766416604,9.786254705920692 l-0.17496439903430833,1.812529280177026 -1.2513833174957214,1.7442342791844059 l-2.4292478385029597,2.137586616372659 -3.3146459265508375,2.273160757281905 l-3.723978736330834,3.6189554760778746 -6.637867821084936,3.629436705810966 l-4.52895031207323,1.8882731053070485 m7.737009876599022,-17.25376810184011 l4.467245550206384,1.7146668616599126 5.426831981934764,2.8672658149580377 l5.366075625964673,3.319961375268153 3.395119783427974,2.9734571182186107 m8.270290355572538,-29.105486473685986 l2.0109369128117973,1.0807515442553768 2.157502799645877,1.4263553526208461 l1.7076606542828667,1.5249230289888367 0.7454973063427148,1.0587559641699313 m-10.057167004710765,5.216331758327348 l4.302988562679797,1.8390405912401668 2.2709357396631655,1.4236150096377156 l1.0036168680378872,0.980619567692079 m-10.708185011166472,8.083595174538708 l1.8143508230690957,0.3878514996546382 2.1462214040155376,-0.03354783404023474 l19.789835818524356,-2.7650575702884206 7.719391487989686,-0.5998595722834921 l4.945570356083715,-0.05615436419459748 2.760664468720525,0.36218958325329326 m-17.738302325045208,-26.286535622748445 l0.9678757196884198,0.8454326791733916 0.516762353204809,1.6692994768107088 l-0.1947438285996824,44.00306292418169 " fill="none" stroke="black" stroke-width="1" /></svg>