<?xml version="1.0" encoding="utf-8" ?>
<svg baseProfile="full" height="97.65803898555626" version="1.1" width="102.79047165487393" xmlns="http://www.w3.org/2000/svg" xmlns:ev="http://www.w3.org/2001/xml-events" xmlns:xlink="http://www.w3.org/1999/xlink"><defs /><rect fill="white" height="97.65803898555626" width="102.79047165487393" x="0" y="0" /><path d="M25,25 m0.0,0.0 m19.5131966805999,5.513060275232481 l0.10249163041473473,0.5315989624754299 -0.12540178300097882,1.0674020580672228 l-0.8946355353019366,1.8744971153846102 -4.120605961936429,6.26842936901665 l-3.4395224595857496,3.605769915278371 -5.579639394993781,4.17270681771965 m30.783729262716395,-17.892333874775282 l4.323286569648234,2.445420386109103 3.4671313928207503,2.4707809017030833 l3.1130822598756773,2.5415760576816706 2.702997664259471,2.668153616958805 m-13.121705970499056,2.7770476176917733 l0.2189483792924886,1.092116722251422 -0.260200282748028,1.2621159637944694 l-2.682588755269976,4.821088664869741 -3.629918082807696,5.1021064165632986 l-4.436631263627695,4.825194753485211 -4.102982339902829,3.551754784795112 l-4.64852505412821,3.3087773602496173 -5.372356451121127,3.0230234246155505 l-5.953032526603203,2.6277516763882693 m7.311681750600988,-25.221850102541733 l1.9451621065016,0.7762269298471183 2.986284014103097,2.026322533260123 l17.796488007941463,13.271270964745307 7.048936019325503,4.748049181986356 l5.004471128631056,2.6699963597425858 4.840330649669286,1.4880534389137392 " fill="none" stroke="black" stroke-width="1" /></svg>