<?xml version="1.0" encoding="utf-8" ?>
<svg baseProfile="full" height="104.70651962377372" version="1.1" width="126.46334075370483" xmlns="http://www.w3.org/2000/svg" xmlns:ev="http://www.w3.org/2001/xml-events" xmlns:xlink="http://www.w3.org/1999/xlink"><defs /><rect fill="white" height="104.70651962377372" width="126.46334075370483" x="0" y="0" /><path d="M25,25 m0.0,0.0 m19.733050398933006,3.7346505486407953 l0.051947626104833965,0.40652210480230383 -0.12282129209651343,0.8945627704162985 l-1.0537352095444037,1.418162432068222 -5.025634548604721,4.716601608661943 l-4.775425733217017,3.318890631293955 -6.373347858442907,3.564837576470044 m2.143770878609581,-12.159904671067677 l2.1287186206774686,1.1316978932376311 3.7514290166240807,2.710026089312384 l1.5171110280558755,1.491437779613332 2.560244771157784,3.3810588153833634 l2.6758289921169807,5.689033091636184 1.4125808139941387,5.877610274343697 l0.33213871700788544,3.7997314604032053 -0.10765913162451798,3.6913300618926272 l-0.4686539740740209,3.411061232854792 -1.3322542891559024,4.24190446139314 l-1.9332258983631514,2.899483751849528 -1.494545600913767,1.0093673330314923 l-1.6791301085313648,0.19661275304205536 -1.699059092519973,-0.790039620328051 m4.9412133650712695,-24.76574235183933 l-0.07778440694988267,1.385686672883008 -2.175244496419035,3.1901676527070286 l-2.166160528199276,6.776766535014465 -2.35487969022859,6.965300152088649 l-2.1197800441061045,4.650676077760673 m24.209352373691154,-35.59430001722813 l1.1705136931058246,1.0454017287281518 1.309802727477547,1.6148231832641526 l1.4214036519117519,2.935105960411959 m-9.249632936681175,5.196886639813176 l1.2165117869371969,0.2509689825847734 1.8235951081010637,0.128554150998126 l11.048055958550277,-1.6218900255033266 2.2062858567364043,-0.001051099416127274 l1.3348364399131953,0.2701694223330701 1.0676126946390352,1.049958071403666 l0.0782361080198519,1.6470427685896651 -1.5720736208573833,14.930030214651708 m-13.685868031054943,-8.389187500440054 l13.644229967391052,-1.6854065046939208 m-14.088269250461396,10.014028827068678 l13.321358820512238,-1.349596811246079 m-14.422124483874175,-16.816376922572534 l0.6370962764126499,1.0613869677376446 0.23791595076136854,1.4167745545091128 l0.1073281141087834,34.461647117996115 0.26915071586094,1.1378576759634145 l0.3843639399948105,0.1661991212547114 0.6796893088834965,-0.3319250674247443 l11.028330173713982,-7.55324379413712 m-2.401967681329511,-5.540216337663303 l1.5741052765636159,2.055695977550384 1.8391378726926837,3.0028005234171027 l1.660804741198627,3.2843025885357773 0.9976493107150961,2.599300576811033 m4.4002040608940804,-35.06225143738665 l2.0719988193394534,0.3238937598229753 2.493444725484421,-0.24659347046778848 l9.165016802771099,-1.878308654669979 0.8219644174485389,0.35521273010098253 l0.49594823808554683,1.1626953920619703 -0.15166281978345683,0.7452230917258676 l-3.3677992210614054,12.737415913876413 -1.6885610824752402,4.582897913622809 l-2.0337559289294984,4.160662427162547 -2.5660053433467627,4.006078822367697 l-2.428664108759193,2.868944322172101 -2.757273882921945,3.2758435155330754 l-3.800826347158767,3.4330018393336426 m3.8092071608216536,-29.955940540749797 l5.3589382562684404,1.9655466852210641 13.269017889174634,12.669713415462404 l5.728619397039387,5.137098015591242 3.507406531818008,2.5112383077531746 " fill="none" stroke="black" stroke-width="1" /></svg>