<?xml version="1.0" encoding="utf-8" ?>
<svg baseProfile="full" height="106.03998315146339" version="1.1" width="106.87693223401325" xmlns="http://www.w3.org/2000/svg" xmlns:ev="http://www.w3.org/2001/xml-events" xmlns:xlink="http://www.w3.org/1999/xlink"><defs /><rect fill="white" height="106.03998315146339" width="106.87693223401325" x="0" y="0" /><path d="M25,25 m0.0,0.0 m19.579255456607182,3.752116797358027 l0.32622315440831134,0.4219818266161833 0.5841132373788732,2.3055811941690574 l-0.04992525759963459,49.560303333320114 m-12.747271058677171,-46.167511825656305 l1.689007540712158,1.2561722313080887 1.8105601128759259,1.7871056290227039 l2.6674073781520033,3.7426952596144782 m-8.54859228691581,21.27574822300079 l1.2109860530172323,0.2984952871999006 1.173727853622802,-0.4629563822763669 l7.112179465000965,-7.809445157609621 m11.269772649382581,-7.613918096320815 l1.865395736023844,0.3208553109160773 1.776063963485424,-0.025770070836003734 l20.98768335734089,-3.7244991697434635 2.6647201447282463,0.09837695155162932 m-15.319550692997687,-16.767386810844187 l0.5333705962066373,0.8360981682430904 0.4147009340101705,1.679611115150198 l0.04056133930696584,12.404394615858543 -0.7578249034688225,9.121039845091353 l-1.2606719559119521,6.991473420132068 -1.8960555867462732,6.319652324993876 l-2.6368370572770186,5.729481695100367 -3.467214350749899,4.937319617134551 l-3.2422198523995003,3.220963686018763 m13.315919599006538,-31.482894532777088 l3.1986606168375906,7.834935805983774 5.064627866530258,9.470296846581304 l5.165135291237643,7.987262538635445 2.4892335287755496,2.7659447435379447 l1.863789362109216,1.619091411512467 m-9.052573301455647,-46.34594460401002 l3.0459867360093553,3.229529465264811 1.9675609386037018,3.7386892489390067 " fill="none" stroke="black" stroke-width="1" /></svg>