<?xml version="1.0" encoding="utf-8" ?>
<svg baseProfile="full" height="107.89724967118767" version="1.1" width="108.5812732660886" xmlns="http://www.w3.org/2000/svg" xmlns:ev="http://www.w3.org/2001/xml-events" xmlns:xlink="http://www.w3.org/1999/xlink"><defs /><rect fill="white" height="107.89724967118767" width="108.5812732660886" x="0" y="0" /><path d="M25,25 m0.0,0.0 m33.24386209733792,7.644342649471532 l0.2907729148961384,0.44932759190134297 0.3696387562224109,1.6164192732498524 l-0.01507459998497628,6.252205088373414 m-16.54502811207214,2.1254963540241247 l1.5750370503196516,0.27059771959915446 1.9252795297350382,-0.04262396556946339 l23.070138291976452,-2.9478549049144402 3.208428225342788,-0.17573914250296918 l2.5454613904663206,0.3346336143437581 m-31.37828440575782,3.2793907483860365 l0.3447781974823963,0.8545074213952386 0.07543265587721312,1.1477313579020596 l-0.34727555884547817,5.288396236893305 -0.759908564372521,7.125316961217641 l-1.110250889770519,6.468334337815341 -1.1834035637199545,4.834063995630374 l-1.1261112342973263,3.5022896982809075 -1.947343941192576,4.316121222518999 l-1.760474484263938,2.761867904110596 m11.372313206940884,-26.902949328396428 l2.778714267978098,0.26367185016483924 19.722267696320237,-2.9931381721791763 l3.1356147154643965,-0.2729654657663185 1.9109475187928504,0.2552531102388626 m-14.605932421797851,-7.2038393470254185 l0.5156794880009887,1.0439070208186867 0.19566482047055067,1.7119351154735603 l-0.00013420882048141005,36.890550725732254 m-0.4999838121295198,-29.824100756196994 l-0.238354584103284,1.346537006608485 -0.645924120864606,1.175005768292324 l-2.1698170462804693,7.587078418485378 -5.691167946120279,5.188295267151964 l-5.27623064206686,2.338012383259543 m19.265201778357994,-17.79985234383998 l13.854806964738424,12.683157106765984 2.116469761024559,1.7221553746811442 l2.3654640748039046,1.5841958454944949 " fill="none" stroke="black" stroke-width="1" /></svg>