<?xml version="1.0" encoding="utf-8" ?>
<svg baseProfile="full" height="108.8996298608754" version="1.1" width="109.49251625454053" xmlns="http://www.w3.org/2000/svg" xmlns:ev="http://www.w3.org/2001/xml-events" xmlns:xlink="http://www.w3.org/1999/xlink"><defs /><rect fill="white" height="108.8996298608754" width="109.49251625454053" x="0" y="0" /><path d="M25.00000248197466,25 m0.0,0.0 m6.98171854019165,11.169708967208862 l0.05299543496221304,0.6004203483462334 -0.39465129375457764,2.3166216909885406 l-2.2459889948368073,5.684980154037476 -1.9530339539051056,3.6565598845481873 l-2.4410422146320343,3.501451313495636 m7.311785817146301,-7.829481363296509 l2.7462556958198547,2.6059910851472523e-05 11.095768213272095,-2.731078565120697 l1.870642751455307,-0.00836001883726567 m-8.117682933807373,-16.04323148727417 l0.7702058553695679,1.205844134092331 0.22711733356118202,1.1851630359888077 l0.02049351343885064,56.19100570678711 m-15.27469277381897,-17.53761053085327 l1.9383569061756134,0.298021137714386 1.8392875790596008,-0.6926515698432922 l17.57080078125,-13.494113683700562 m6.922179460525513,-0.7378498464822769 l4.368725121021271,0.047491579316556454 17.284101247787476,-1.8875713646411896 l3.7946563959121704,0.21420203149318695 m-14.314020872116089,-22.65052318572998 l0.5945829302072525,0.9770172834396362 0.2730453200638294,2.021748721599579 l-0.07514635566622019,45.848093032836914 m-18.754462003707886,1.5784382820129395 l4.61056113243103,0.24093430489301682 15.773710012435913,-1.230444759130478 l11.409987211227417,-0.484703928232193 2.505754232406616,0.1540766190737486 l3.10050368309021,0.6437840312719345 " fill="none" stroke="black" stroke-width="1" /></svg>