<?xml version="1.0" encoding="utf-8" ?>
<svg baseProfile="full" height="104.04298935626883" version="1.1" width="91.32879094368732" xmlns="http://www.w3.org/2000/svg" xmlns:ev="http://www.w3.org/2001/xml-events" xmlns:xlink="http://www.w3.org/1999/xlink"><defs /><rect fill="white" height="104.04298935626883" width="91.32879094368732" x="0" y="0" /><path d="M25,25 m0.0,0.0 m18.97250634592946,2.4309676576080688 l0.02555272588406792,0.5382614291138014 -0.34706696645158297,2.52507520549628 l-2.4445977185841663,6.300449743247498 -2.507624177760197,5.368696659877205 l-3.2337280146721064,5.430186120875657 m5.5340335264878835,-8.777438186124659 l0.4911156811501449,0.18252648765422702 1.461962600368302,-0.20857209029558024 l21.798379725187786,-3.400364713247047 0.5000442763897267,0.16227432994112992 l0.676016793575795,0.7123107296023334 0.3871871070226963,1.2987837684470696 l0.015009039159515746,1.6583766709912544 -1.8924093378988338,11.110038113222513 l-2.371326022464654,8.72761631860679 -2.4725991778470724,6.757407984256816 l-2.4281899427683147,4.841892529014977 -0.9803497370411874,0.8326810246016937 l-0.7945072622139261,0.015513844094746562 -1.7049076933234233,-1.5736350800848726 m-6.073215127463015,-28.881783503815985 l-0.12027999527227684,1.7348884753257792 -0.8158112612474586,2.1733583242352146 l-5.756422517975108,9.63844713713915 -4.011112751149812,4.681155584402883 m19.56987927403179,-19.024188138125236 l-0.1537567728367635,2.822210153350363 -1.1014719802201884,3.024402516394163 l-2.1199491842663725,4.078950388185748 -2.9755708382886845,4.579799872947302 l-3.411034222793917,7.994938031656765 -5.018764991149769,11.090267478091986 l-2.1538549569538747,5.197494489580811 " fill="none" stroke="black" stroke-width="1" /></svg>