<?xml version="1.0" encoding="utf-8" ?>
<svg baseProfile="full" height="100.67866708650756" version="1.1" width="93.27687428445867" xmlns="http://www.w3.org/2000/svg" xmlns:ev="http://www.w3.org/2001/xml-events" xmlns:xlink="http://www.w3.org/1999/xlink"><defs /><rect fill="white" height="100.67866708650756" width="93.27687428445867" x="0" y="0" /><path d="M25,25 m0.0,0.0 m12.579658227465442,5.995293544623863 l0.3765804382272774,0.5284179896747982 0.4409891477384789,1.377365750030928 l0.08675581938132192,18.139221166362333 -0.37199332038427707,5.871545614999976 l-0.8783347548713932,5.5208798762293965 -1.5021736242331507,5.165645134021742 l-1.7683903697360375,3.7299352199844313 -2.2049028454114907,3.7153527482966298 m7.680842286594965,-44.132433478243776 l24.314299230872418,-2.2784289026712505 2.546084749908095,0.1822219200819354 l1.3585735237930296,0.7346763186619137 0.5378355453881523,1.0462787865672531 l0.0810502297258292,42.69751252834585 -0.3471045475740148,1.424916343165698 l-0.518907046642659,0.7174889288913734 -0.6570447373668767,0.242777597484468 l-1.5641033867421208,-0.6651530995568063 -2.372921938647581,-2.0214140337286497 m-23.104453111984455,-30.816612244328557 l3.0698694128878516,-1.6673769454108662 m7.166629276984715,-0.45459458020981597 l2.1047687164741538,1.6174443191380363 1.6292083827020443,2.499288368926073 m-15.588901961106318,4.8103705715843175 l2.712641983975387,0.12218535408439861 16.53072448636992,-1.7341918959504223 l3.979046218439375,-0.03530662759012739 m-21.212137911419777,7.768815828367243 l0.9697406716988621,1.5220349224015033 1.7008116211724529,10.357839433145829 m-1.1274676538017778,-10.947553643141532 l12.943758267424194,-1.5717087847652678 1.2326686359564687,-0.1598677894715605 l1.2913886945301714,0.3379057328770319 0.5915594989004667,0.938074409434674 l0.010073400514709873,0.6784768335111315 -2.1741470941244887,7.3344962759747965 m-12.356840763551174,1.5195551553971605 l13.894089173196118,-0.8961000672399114 " fill="none" stroke="black" stroke-width="1" /></svg>