<?xml version="1.0" encoding="utf-8" ?>
<svg baseProfile="full" height="100.72114629409373" version="1.1" width="107.16300248928158" xmlns="http://www.w3.org/2000/svg" xmlns:ev="http://www.w3.org/2001/xml-events" xmlns:xlink="http://www.w3.org/1999/xlink"><defs /><rect fill="white" height="100.72114629409373" width="107.16300248928158" x="0" y="0" /><path d="M25,25 m0.0,0.0 m19.96277919638849,5.180120809573101 l0.10916993688095548,0.5204320939587044 -0.11083255786943783,1.0948551517318412 l-0.8810912987893182,1.6632306613666952 -4.480302985853819,6.22702344689692 l-3.671170474900081,3.72744063154689 -5.724356211682021,4.641165247958227 m34.11026897866241,-17.989529416128494 l4.415310074335606,2.5211168343280814 3.5374829139962314,2.5433831229089137 l3.1152247295851887,2.6724490288769274 2.6899268621844943,2.861558160608145 m-13.765109348789002,2.5217089275021545 l0.2158548081378008,1.134257654311439 -0.2778145220947277,2.038960214280174 l-2.5543304723406983,5.42900277259507 -3.6110176507308966,5.4859616354290734 l-4.557952845729711,5.135972181253725 -4.298089140046214,3.801971012951395 l-5.010267754112464,3.558991102888125 -5.784736314009385,3.2033986391444325 l-6.448592106977442,2.747676380112179 m8.056220712780785,-27.90884204954421 l2.0510471081206894,0.8279125885615196 3.1963026098317924,2.2134795958927183 l18.065594347928275,13.388204442910968 7.816109481312396,5.36354188285129 l5.634134954800049,3.0440658822664823 5.3632394582616225,1.756167690685028 " fill="none" stroke="black" stroke-width="1" /></svg>