<?xml version="1.0" encoding="utf-8" ?>
<svg baseProfile="full" height="111.73721727525908" version="1.1" width="101.66930679848994" xmlns="http://www.w3.org/2000/svg" xmlns:ev="http://www.w3.org/2001/xml-events" xmlns:xlink="http://www.w3.org/1999/xlink"><defs /><rect fill="white" height="111.73721727525908" width="101.66930679848994" x="0" y="0" /><path d="M25,26.767525016167138 m0.0,0.0 m18.955311262753796,2.93047995564808 l-0.013651000502394282,0.451839578977206 -0.2067341645523506,0.8537972013476316 l-0.9879574222245033,1.2994482358663657 -3.47560195508106,3.101725830771497 l-4.250048873925712,2.7574295113897374 -5.136223183254619,2.4629983532435276 m-0.183073713597073,8.320017139739221 l2.528771490295636,0.2821692913065014 12.981716555645972,-2.048064696473398 l2.74955457464415,-0.22103828931537453 m-7.851566744329338,-8.866933419022 l0.3996821026487744,2.555552300680118 -0.059494908553898614,42.95863486001659 l-0.19048515857192963,2.110733271424015 -0.4239638145724285,0.9735037254686093 l-0.5758547548495173,0.04739940802361603 -2.028414365258438,-2.502207434695801 m3.281366865348206,-33.90928909128772 l-2.377534644768725,7.675128954304463 -2.7264256065495407,6.979126043164401 l-2.887112844727394,5.779385762694452 -2.824273253233157,4.358344422037919 m11.985384921900073,-20.26979228611001 l1.8850161297406647,2.7531988016738604 2.3912440133735373,4.899740073516707 m4.485972367375462,-23.038247525982626 l0.6262644704050085,0.9971543976412468 0.34708715349554786,1.1280670557962316 l1.1610865451453005,13.907833302894607 m-0.8604975264109972,-14.444591765218618 l17.61562203475569,-2.9213443681523965 1.0266539382553057,-0.05446428985978059 l1.0365678961468061,0.4467180380859107 0.29047263995578165,0.4910501021524803 l0.06928178054164583,1.2604209261010824 -2.0020308438809584,13.872170374357196 m-21.908986114821904,1.979568796446023 l2.0125897603339062,0.2606448209881947 23.90971165148663,-2.3996486358943017 l2.89987953790799,0.38280813030841937 m-16.638405019868745,-29.368991880221024 l0.2802349775936034,2.6119973159360548 0.06811772159372854,4.632341493846128 l-0.30312915934512824,14.674516116987864 -0.7700065541072599,9.413510670214217 l-1.313309515242625,7.217820741018592 -1.9439420168787076,5.722442736400983 l-2.64281435588071,4.754837035573711 -3.3958830892750496,4.150092988981224 l-4.095314595940314,3.8352011215191117 m13.801136681960315,-27.38665747006472 l4.59211656872019,9.607139905037021 4.330485098787946,7.993446590862191 l3.372545003787849,5.245968052264389 2.9320145588012982,3.5287822003356815 l0.5932746041652538,0.46738694077388854 " fill="none" stroke="black" stroke-width="1" /></svg>