<?xml version="1.0" encoding="utf-8" ?>
<svg baseProfile="full" height="111.74862530151006" version="1.1" width="99.26921636701786" xmlns="http://www.w3.org/2000/svg" xmlns:ev="http://www.w3.org/2001/xml-events" xmlns:xlink="http://www.w3.org/1999/xlink"><defs /><rect fill="white" height="111.74862530151006" width="99.26921636701786" x="0" y="0" /><path d="M25.100690328977983,25 m0.0,0.0 m12.569237131630217,4.317103387780983 l0.5022060685726469,0.15157717343165117 3.5526363387541227,0.09988455516351964 l25.35997417160152,-2.385617650657242 4.580270969600813,-0.16875174913471805 l2.6042013578805627,0.2770649574690886 m-37.645097486805966,14.51497831918306 l1.7551542407801672,0.3458703247742259 2.0106516697326846,-0.039555972931095355 l27.642639355121478,-2.7131408771713033 1.5656798212364642,0.44939049740740794 l0.7500630634159086,1.0903002872207004 -0.04292005646927223,0.6947798260014918 l-2.671231672529596,12.713173200719318 m-29.55244600295128,3.0882596335400585 l30.238884456307556,-1.9524892579355138 m-31.817793242271854,-11.984855248297391 l0.6515709844074943,1.2248263347911061 0.23222391714342444,1.2891858264866218 l-0.1690404461572471,6.929564695562897 -0.7750202163245216,6.881241163866008 l-1.367894457981167,6.56220234867432 -1.7001134718344542,5.353453613522947 l-2.2510265696401333,5.1237086654530035 -2.79636067259564,5.020713131615104 l-3.327139579601911,4.865758114973814 " fill="none" stroke="black" stroke-width="1" /></svg>