<?xml version="1.0" encoding="utf-8" ?>
<svg baseProfile="full" height="131.60945440251413" version="1.1" width="104.89868931617723" xmlns="http://www.w3.org/2000/svg" xmlns:ev="http://www.w3.org/2001/xml-events" xmlns:xlink="http://www.w3.org/1999/xlink"><defs /><rect fill="white" height="131.60945440251413" width="104.89868931617723" x="0" y="0" /><path d="M25,25 m0.0,0.0 m7.582246141011458,6.1030198871439145 l0.38398695920356224,0.40897988308270267 2.5176924045669895,3.9417309655336306 l1.9683257225486845,4.542053773465674 m19.837506494839307,-14.172126472925495 l-0.32120506927931686,1.6460187807802398 -1.3798654991049475,3.231597051863903 l-1.8764247516466719,3.5104767333642632 -2.377775342376375,3.413474403982473 m-19.874291881591198,9.645390787066365 l1.6288264154606724,0.24488574007513936 1.9819078439120708,-0.13789764165102625 l11.893617064493704,-3.4658158701272948 1.6547712515624247,-0.16465455479257513 l0.9987174356988208,0.2725423543261063 0.5003597387612246,0.5997356727375867 l-0.09752592117033013,0.8652365273343896 -0.5189238618117313,1.1258313979491577 l-6.9869655987045105,11.637169511673529 -5.659613024509986,6.380011440242714 l-5.600559531092045,5.0213903967121905 m8.277979327391103,-11.089122959307058 l1.9805489646219114,1.4938399608677673 2.154501618942133,2.58185106093929 l1.6871454091501719,4.306460682486845 1.3615824921770359,5.32173877840461 m7.112037500095046,-28.971521130453766 l1.3833883789681973,0.5194624151007318 1.8023586777335732,0.003911117094850809 l14.677143588208445,-2.087952490355444 3.244671918180281,0.7090755106615184 l0.36916643903775276,0.7198728847850083 0.13278126382647967,2.3431164243508733 l-0.21573903662214394,15.978962049592198 -0.6871499623332814,11.029632317568145 l-0.9853557129858879,8.435995691776327 -0.4813264782164329,1.737578209879988 l-0.6130954586429643,1.0951893570885813 -0.699193547301606,0.5042232499542113 l-0.7437809948596635,0.04871741343471382 -0.776800537791526,-0.810874702687854 l-1.823827025773669,-2.4595009696955197 m-11.224898939075253,-33.22984630747269 l0.531744938448824,51.8458646167092 0.21144968803715222,2.7818975609152186 l0.7153360639748232,2.066783939462288 0.8078579130429786,1.0937531583811613 l2.3121071997864036,0.741384838185117 13.167097111543997,0.24991095701025848 l2.2934701456691102,-0.7255042578255608 2.3889015104753013,-3.128592830486557 l0.2837798696971104,-3.2560595779662713 " fill="none" stroke="black" stroke-width="1" /></svg>