<?xml version="1.0" encoding="utf-8" ?>
<svg baseProfile="full" height="105.19269380733768" version="1.1" width="106.26248015910905" xmlns="http://www.w3.org/2000/svg" xmlns:ev="http://www.w3.org/2001/xml-events" xmlns:xlink="http://www.w3.org/1999/xlink"><defs /><rect fill="white" height="105.19269380733768" width="106.26248015910905" x="0" y="0" /><path d="M25,25 m0.0,0.0 m18.25996730358447,4.7957765089538285 l0.3323847752071236,0.385491650316884 0.6083005772707513,2.2605238789409623 l-0.054372973595271525,47.750901769126 m-12.060794361204467,-43.4091265587996 l1.7569370309393686,1.1203175246322223 1.8578954096747715,1.7374570247417847 l2.5481950421828925,3.5294763954841204 m-8.095620919024896,20.401812700226472 l1.170143834360156,0.30499979348345796 1.1212559985016208,-0.4546902853772558 l6.919812295602193,-7.553944737547534 m11.25938281115091,-7.743882803084731 l1.7964486464294322,0.3306797058736509 1.7250925783594675,-0.015966860403038633 l19.660435597604696,-3.272492992462316 3.6629592017112116,0.08689547154594497 m-15.013888697704312,-17.158786139122665 l0.5167146706403456,0.7907708025028428 0.41047876256645943,1.6283432730623881 l0.01297635057027683,11.640983056128556 -0.7580567004613272,8.777572632733852 l-1.2364740858194077,6.7868294330737005 -1.911221800711063,6.144805805632535 l-2.6216739256625035,5.496232743814214 -3.439366459958894,4.729489572202364 l-3.258781197499677,2.9838735191182275 m13.23933940822148,-30.137502187792613 l3.1922928220328255,7.388613491547116 5.127733443922998,9.02992661357689 l5.223842722116587,7.686521334554093 2.3692323390685734,2.5284425438332727 l1.9409096590322388,1.4490741925205803 m-9.15221679964914,-44.67753401360086 l3.026988473475504,3.0761175459069916 1.8893856490812588,3.4831843709199033 " fill="none" stroke="black" stroke-width="1" /></svg>