<?xml version="1.0" encoding="utf-8" ?>
<svg baseProfile="full" height="102.29866584441609" version="1.1" width="102.54616225004503" xmlns="http://www.w3.org/2000/svg" xmlns:ev="http://www.w3.org/2001/xml-events" xmlns:xlink="http://www.w3.org/1999/xlink"><defs /><rect fill="white" height="102.29866584441609" width="102.54616225004503" x="0" y="0" /><path d="M25,25 m0.0,0.0 m19.07577132881163,4.17923271719606 l0.0930359665846376,0.5381464161799696 -0.11416326714877731,1.0562907176666152 l-0.9132842451682222,1.8609774675656758 -4.023661198344285,6.326228048415459 l-3.098302227693659,3.92659156262778 -4.6603727661806555,4.713671978474255 m30.41352021642697,-18.706616755246912 l3.945607369001222,2.4654207263780887 3.1437875316653523,2.531128181467337 l2.770372013176166,2.710854498086289 2.3707984445329013,2.9408065404006836 m-11.912535721059529,3.0366748313673457 l0.17449746362674984,1.1312145500180337 -0.24197797168684948,2.065708522611988 l-2.2051796473508234,5.444834145207058 -3.142491968204715,5.640524706998969 l-4.038550923926311,5.320840361912561 -4.395888737258966,4.673010017161584 l-4.471200239145751,3.891974803313468 -5.058502446370217,3.5132410159831418 l-5.690325618277587,3.0379107906306526 m7.467087677759203,-30.904988872727873 l1.7767759609301426,0.8240190217058515 2.7343813591666453,2.2972677290335115 l15.918703862384284,14.627446706894979 7.025295647648552,5.917890712325622 l4.955633959314956,3.350085578495906 4.64733042683197,1.9078968771448808 " fill="none" stroke="black" stroke-width="1" /></svg>