<?xml version="1.0" encoding="utf-8" ?>
<svg baseProfile="full" height="105.7878647907637" version="1.1" width="109.49251458514482" xmlns="http://www.w3.org/2000/svg" xmlns:ev="http://www.w3.org/2001/xml-events" xmlns:xlink="http://www.w3.org/1999/xlink"><defs /><rect fill="white" height="105.7878647907637" width="109.49251458514482" x="0" y="0" /><path d="M25,25 m0.0,0.0 m18.538748025894165,3.3052006363868713 l-0.020946243312209845,0.48651546239852905 -0.4189249128103256,1.0429227352142334 l-1.6934283077716827,2.189148962497711 -4.374547600746155,4.76560115814209 l-4.595474302768707,4.142370522022247 -6.038314700126648,4.68241274356842 m4.538537859916687,-14.17202115058899 l1.7524102330207825,1.624218374490738 3.0261462926864624,3.667105734348297 l3.422313928604126,6.307312846183777 2.210627943277359,6.886903643608093 l1.1431577801704407,7.034187912940979 0.24035975337028503,4.5562660694122314 l-0.12706251814961433,4.299882352352142 -0.4515695199370384,3.9153069257736206 l-1.1927639693021774,4.869927167892456 -1.68217733502388,3.2811665534973145 l-1.3224901258945465,1.0903127491474152 -1.4332941174507141,0.06247649434953928 l-1.5007995069026947,-1.0940630733966827 m3.99304062128067,-29.915072917938232 l-0.06893296260386705,1.2358923256397247 -0.41986245661973953,1.1731601506471634 l-3.9424115419387817,6.43618643283844 -3.9630380272865295,4.663320481777191 l-5.619304180145264,5.260980725288391 m38.032073974609375,-41.28323554992676 l0.7176698744297028,1.6310369968414307 0.008395544718950987,7.097602486610413 m-13.702893257141113,0.09077416732907295 l-0.8847924321889877,4.601951837539673 -2.005895972251892,5.579244494438171 m3.1829768419265747,-7.451493740081787 l16.749496459960938,-2.5248003005981445 12.248802185058594,-1.1132260411977768 l1.7769575119018555,0.18291207030415535 1.0023513436317444,0.4377616196870804 l0.3562779352068901,0.6351634114980698 -0.7071860879659653,1.635810136795044 l-2.6729369163513184,2.512015402317047 m-32.053425312042236,15.022995471954346 l4.54808384180069,-0.02348728245124221 27.79752254486084,-3.8760995864868164 l2.562132775783539,-0.13039197772741318 2.5369036197662354,0.2594947814941406 m-13.037385940551758,-8.384293913841248 l0.8247237652540207,1.5290971100330353 0.22254586219787598,2.1155068278312683 l-0.18169749528169632,34.36803579330444 -0.44117096811532974,0.9287091344594955 l-0.6603927165269852,0.14915942214429379 -0.8182460069656372,-0.4254879057407379 l-2.7861276268959045,-2.670891284942627 m-11.509993076324463,-18.121421337127686 l2.738737463951111,3.682277500629425 1.8275012075901031,4.263743460178375 " fill="none" stroke="black" stroke-width="1" /></svg>