<?xml version="1.0" encoding="utf-8" ?>
<svg baseProfile="full" height="107.65200418673433" version="1.1" width="106.63181534549454" xmlns="http://www.w3.org/2000/svg" xmlns:ev="http://www.w3.org/2001/xml-events" xmlns:xlink="http://www.w3.org/1999/xlink"><defs /><rect fill="white" height="107.65200418673433" width="106.63181534549454" x="0" y="0" /><path d="M25,25 m0.0,0.0 m19.254872512275142,7.664407243559902 l0.32510127365229347,0.38993584377550894 0.5891955881096334,2.0718618893303673 l-0.06586155320463516,47.525799210068556 m-11.595961487787655,-43.78910979079267 l1.7804252512600105,1.1670571720339307 1.8547805794538426,1.8108295710635762 l2.520812282552073,3.4943057768280985 m-8.301256256375874,19.520499415900606 l1.1726276912538707,0.2834066960508766 1.1080868135867865,-0.43850039795082313 l7.035870653300985,-6.8406689909169955 m10.966505217683853,-7.808753156857449 l1.8172530397201554,0.30726503481206857 1.756193830881921,-0.032031506605089445 l19.229771078586943,-2.705897652822855 3.663371562103529,0.10436899264092894 m-14.886256538662389,-16.843539179384187 l0.5167846587254208,0.7607522438081722 0.38983415749772143,1.5752993371210595 l0.06336464944028589,11.325125450608155 -0.6889172099581665,8.594579215199976 l-1.1503964909991755,6.5884999196270595 -1.7973752907756184,6.053028593472375 l-2.535854264659371,5.4357018675790885 -3.306542112184637,4.63056866661233 l-3.1008677684724804,2.9783998662472086 m12.561449937835116,-29.827700265305225 l3.168455048983269,7.1585882436054815 4.978967265074992,8.825047783465486 l5.163315742166145,7.492120508440115 2.378716408762475,2.5370312952839447 l1.7653490756680907,1.5343829907006272 m-9.225376870002476,-43.923434799395466 l2.8301663807647395,2.9936408521493068 1.8657000244881008,3.4420914851644473 " fill="none" stroke="black" stroke-width="1" /></svg>