<?xml version="1.0" encoding="utf-8" ?>
<svg baseProfile="full" height="101.60583075343114" version="1.1" width="103.52154737415816" xmlns="http://www.w3.org/2000/svg" xmlns:ev="http://www.w3.org/2001/xml-events" xmlns:xlink="http://www.w3.org/1999/xlink"><defs /><rect fill="white" height="101.60583075343114" width="103.52154737415816" x="0" y="0" /><path d="M25,25 m0.0,0.0 m16.6000115092791,13.67546573859744 l0.5008478625803442,0.12538671748726785 3.0507016640375086,0.08263467767351111 l22.41531680961347,-2.2462090756367745 3.3994684915527493,0.1936122200627792 m-33.76565340243839,18.943328540399424 l1.8959491064633855,0.31152453717285494 2.5528706782716553,-0.044838625608408206 l26.420782983536384,-2.7184010984255793 4.449183387482695,-0.14388860773797674 l2.534955347564248,0.29913274817419 m-19.73780853646456,-13.195706912975258 l0.28200472732621984,1.4654393315012932 0.049596655312100085,1.9288697370037684 l-0.5921675627927209,6.017953989331922 -0.9165553447475061,5.2476712111478925 l-2.1719379603249283,6.5964415412751585 -2.5153670728934188,4.779219080617621 l-3.219199532879329,4.134190357683329 -3.997731786155781,3.580982276742607 l-4.200405896872856,2.573022368944063 m19.06910131006662,-23.256293431307622 l15.37584997944329,16.893554187823153 3.051093716281126,3.269374076659828 l2.990640240916752,2.2119638576471465 " fill="none" stroke="black" stroke-width="1" /></svg>