<?xml version="1.0" encoding="utf-8" ?>
<svg baseProfile="full" height="110.01831155281013" version="1.1" width="90.22695290310371" xmlns="http://www.w3.org/2000/svg" xmlns:ev="http://www.w3.org/2001/xml-events" xmlns:xlink="http://www.w3.org/1999/xlink"><defs /><rect fill="white" height="110.01831155281013" width="90.22695290310371" x="0" y="0" /><path d="M25,25 m0.0,0.0 m18.29174436290437,11.911540200000163 l0.39334766639871527,0.4467358639906025 0.511794924678127,1.9265747249026381 l-0.20216541792647572,2.925704880644321 m-16.58936349381196,1.0394576376287223 l-0.638358357035391,4.529214492999013 -1.3624157954846277,5.08430794264427 m2.0747268286032092,-7.986993534485236 l21.839937154262262,-2.4806678582137067 10.396189054906479,-0.8473370358851069 l4.5229111125949775,0.022199174425414827 0.7763494274954966,0.4079999796505283 l0.21225543551852857,0.5711320384499529 -0.20139313260597042,0.7204489213004498 l-1.209642249989039,1.5127956289670752 -2.2904349107776287,1.7050145342025993 m-31.71654937624462,13.987568748129755 l3.104138634660069,0.3209143205898968 24.64033405607954,-2.692687057675958 l2.7369327224976625,-0.1537476246136009 2.6634911754191295,0.2893449720399163 m-18.33313119610192,-9.59785212586635 l0.5569147097376114,0.946101695243243 0.23334460958957115,1.7015320119181325 l-0.03720397211148865,30.285912761854437 m-0.8368723834625859,-22.977530125710526 l-0.5864043387963835,1.706639775081407 -2.141143240063682,2.9433856426599134 l-2.7403275864911523,6.328997694851601 -2.151842578547464,4.454790682771164 l-3.723718469443659,5.861129534121808 -2.285471077567081,2.7441227985176297 l-2.570171432989916,2.381560257675972 m17.29432579807728,-23.391163869445577 l12.216934727675838,15.854387930415658 2.855657541751452,2.672308230727515 l2.806907914202872,2.106281360222965 " fill="none" stroke="black" stroke-width="1" /></svg>