<?xml version="1.0" encoding="utf-8" ?>
<svg baseProfile="full" height="110.4086213858851" version="1.1" width="91.37978096294383" xmlns="http://www.w3.org/2000/svg" xmlns:ev="http://www.w3.org/2001/xml-events" xmlns:xlink="http://www.w3.org/1999/xlink"><defs /><rect fill="white" height="110.4086213858851" width="91.37978096294383" x="0" y="0" /><path d="M25,26.06426908190076 m0.0,0.0 m7.6445468271790915,5.350696350371232 l0.3728416098357947,0.44706068505878593 0.5039349218215022,1.7938483082092789 l-0.006251242480250229,11.889882271549089 m6.501799321280091,-7.303197854496954 l0.23759508712063038,-0.8364294781063265 1.3524804391391172,-0.004092772496084829 l13.50460604664175,-1.435800691381145 m1.5288413189189025,-10.966235900608636 l0.5594836274408302,0.6245785385875327 0.22628454010368423,0.9282634821181723 l-1.043998308017806,12.28395153049544 -0.9615243258855464,3.9740694597722594 l-1.4682877592981425,3.9373694002984085 -1.5935417823007403,3.008089370881984 l-1.9611727551617393,2.8749884644892036 -2.3905961526706188,2.7013650309185 l-3.015848267004795,2.6857300009279914 m-15.02734631118693,8.044610505839335 l1.3719247328328459,0.4845808117714612 1.599754776113015,0.05659696040645281 l15.112820630954433,-1.7952803240804156 12.55653796142172,-0.6515249385613823 l3.3479304122028513,0.5147718567290488 2.4269656139441373,0.6942973149828953 m-18.414359651975563,-10.631667625544472 l0.5729087753180576,1.084278507421117 0.21794959854659146,1.6649520752958447 l-0.03980824133827487,27.924600963135724 " fill="none" stroke="black" stroke-width="1" /></svg>