<?xml version="1.0" encoding="utf-8" ?>
<svg baseProfile="full" height="112.57762119422408" version="1.1" width="112.00798777870308" xmlns="http://www.w3.org/2000/svg" xmlns:ev="http://www.w3.org/2001/xml-events" xmlns:xlink="http://www.w3.org/1999/xlink"><defs /><rect fill="white" height="112.57762119422408" width="112.00798777870308" x="0" y="0" /><path d="M25,25 m0.0,0.0 m2.2313291261086885,14.088267284426278 l0.41640337597330174,0.11151751571416808 2.686456827782476,0.0745525585563409 l13.35555976732038,-1.9911231821185773 5.450179186984206,-0.25937971722860687 m-11.577679354076944,3.315093678602961 l0.7601591513203402,1.2268036403735294 0.28107796466124896,1.1551102940362026 l0.1766756666016915,27.97136083435379 m-10.440582407872196,-15.514103341632115 l3.4909208872519892,0.24835997281522762 13.187019417529932,-2.1404150882993536 l3.069657301914054,0.10755581848380624 m-20.82027519981786,21.687745092701192 l1.8510318347623391,0.9777008038802766 0.6573436901319192,0.02158587542893371 l14.88243722510641,-7.812128472846218 m8.59412819726184,-34.10181245025631 l0.898175881200213,2.2200144844172276 -0.27171972967453567,26.984315038262142 l0.26363272094810936,2.174585683964716 m0.5313697562984513,-30.190101779925985 l19.7293053785118,-2.512134941503713 1.639273906805292,0.23330584409120803 l0.9269878437747601,0.8406958149908467 -0.6644932394817862,30.51364954072313 m-21.618788750383906,-19.45264408215885 l13.46727142273582,-1.3725191618300292 m-13.207139327004748,10.627601331357006 l12.962882895263323,-1.010042412470396 m-12.392856027474567,10.620439458651038 l20.27319790043549,-1.420695014381213 m-16.856774693551255,5.001670897444164 l-0.08420374485113967,1.9486783461838775 -0.62340779826632,1.8752303740810132 l-1.3919007171042337,2.8722571700808457 -2.0141806263213113,3.262696165781037 l-4.340944935249137,5.343115308078379 -2.6425173326373477,2.5561976563842292 l-2.8579879953447027,2.294614355011889 m22.320336414108567,-22.462998106264504 l0.6960668997213402,2.8569875064123633 -0.18238817899061865,14.241732386999463 l0.4279273578275042,2.057920024548333 1.0404410933832369,1.4524921195931795 l1.8374910960172086,0.9138990555757137 2.905169525586445,0.4306469062273337 l5.9634914806407995,-0.09968245930858766 2.974679840789082,-0.5858801449683319 l1.8080085733517255,-0.6754954800587072 1.400339182441206,-0.8759706102325219 l0.6021882047319104,-0.9593533099803383 0.23721084152260008,-1.9599083438671328 " fill="none" stroke="black" stroke-width="1" /></svg>