<?xml version="1.0" encoding="utf-8" ?>
<svg baseProfile="full" height="120.6964897028189" version="1.1" width="96.74523250429499" xmlns="http://www.w3.org/2000/svg" xmlns:ev="http://www.w3.org/2001/xml-events" xmlns:xlink="http://www.w3.org/1999/xlink"><defs /><rect fill="white" height="120.6964897028189" width="96.74523250429499" x="0" y="0" /><path d="M25,25 m0.0,0.0 m14.570302868523545,13.052861386455056 l0.5736950765361688,0.1276050488680372 3.4568242530476994,-0.001632817074288382 l21.891653222013623,-2.3587097793600407 4.080810596015791,-0.22220740538304118 l2.1719464881581487,0.22951659395301993 m-18.104318570333746,21.552637498952418 l1.3561002472062804,0.17515327548811438 10.674151415505785,-1.1353080675649574 l4.71625093664535,0.016693315682464488 m-14.725872097843181,-17.64646757902026 l0.6594348766705799,2.2250080279651194 0.10946331922573431,2.6144767990932842 l-0.17102024393179024,32.94595606907825 m-17.20871648032604,0.7801210420222502 l0.7163211306806447,0.9090027451252055 0.857400524707664,3.2511156779027948 l2.451826337051078,14.180667870635457 m-2.9223910228092747,-17.704894734623622 l12.25516888044217,-2.2971500381316465 14.874891221839302,-1.6730649951891465 l1.6503409710692065,0.8722008666892931 0.5775963048864257,1.88173341101044 l-2.6637901528443035,15.589741177654597 m-23.015465182578527,2.8022806910668656 l24.54614081767368,-2.411423755334032 " fill="none" stroke="black" stroke-width="1" /></svg>