<?xml version="1.0" encoding="utf-8" ?>
<svg baseProfile="full" height="108.98629500859364" version="1.1" width="117.4881912893486" xmlns="http://www.w3.org/2000/svg" xmlns:ev="http://www.w3.org/2001/xml-events" xmlns:xlink="http://www.w3.org/1999/xlink"><defs /><rect fill="white" height="108.98629500859364" width="117.4881912893486" x="0" y="0" /><path d="M25,25 m0.0,0.0 m19.444992468737226,4.817898123611022 l0.006762753295927902,0.4762377229567172 -0.14187078112679788,0.989208438628458 l-1.0229020140199698,1.4656444653695269 -4.246018275155296,4.958958533356264 l-4.18009116671626,3.5937712594567066 -5.919695481198103,4.109452389105474 m2.4450034473854703,-14.655567554508165 l1.7659410716834358,1.567975435339906 3.121899752782179,3.4844196983654667 l1.3270379709824254,1.9035348350242158 2.1913796310862588,4.149877590615803 l2.271215083834431,6.644220977769852 1.177889064236135,6.792978939483086 l0.2620772611496669,4.387579927989526 -0.1376699278322357,4.189976399756123 l-0.4725959329998235,3.8152402694740637 -1.2326702056393524,4.776376584495316 l-1.7433173458442048,3.281081754952016 -1.3147300239025863,1.0959201021551213 l-1.4307789670039472,0.15966308017092412 -1.4780938200940943,-0.8975996345992677 m4.487179290431289,-27.017732058787857 l-0.06149871797559927,1.405211317342231 -0.7338163460067085,1.6490275812500537 l-6.22851908026594,9.066559390505345 -3.9829258399370313,3.926961758342416 m28.841125207318534,-33.947208376951075 l-0.30492420246389207,1.6434375099257803 -1.1719418072832826,1.91105094483208 l-4.408399225639407,5.287905137695602 m-3.1256260622609977,0.7545561698365553 l0.63292868609623,1.0428560896381551 0.06901396672786893,1.141804244194181 l-0.07951510245997961,33.8409284730298 m0.8454768451927297,-34.52724679289097 l9.537554995357443,-1.3612476821531305 1.3842399753166779,0.22173027664204933 l0.3645067490736902,0.4329214987319117 0.10322584159638983,3.014103686410521 l-1.2493616838172579,8.6296386810325 m-10.14707654963739,-6.201310662979784 l10.72631669153025,-0.9092525750210174 m-10.736863579190834,7.7985915785075886 l10.341541444498754,-0.8959763621108726 m-11.050017900009173,9.345608768329733 l10.35634555995752,-1.30388006890128 1.817628791025044,0.11520645383455441 m-12.854722232938231,9.178533378079635 l12.029251667814313,-1.349317614844009 1.8242110241352134,0.07103564907215049 m2.4068605168860975,-29.420368487161745 l3.1659858856432135,0.17652815183527135 11.35676182094259,-1.4810950153262283 l2.3522638846828965,0.205443910496542 0.5570722029962326,0.3956659502613528 l0.22934175881063182,0.6330055103071237 -0.12604946812968934,0.8030910128621768 l-2.3777496829280893,11.932547088287032 m-12.393189999351963,1.4612517223920722 l13.96273864697522,-1.1434144785293336 2.7628858895960375,0.00886925989448779 m-17.267735068473936,-11.548047828991063 l0.40726485048488875,2.510743674603262 -0.2551800340107199,13.359615417290645 l0.22201453594886095,1.9111377971540235 0.6652680020856497,1.133164859196195 l1.117453300312786,0.885048836633485 9.19310808439647,0.5415913496679597 l3.4363096619245157,-0.3076868472532853 1.5373715972320383,-0.44623918533394075 l1.72577963129831,-0.7746336958398684 0.9237157255125819,-0.9287831254677881 l0.39590890801011985,-1.452037255215833 0.060272601575440225,-2.0171446334142384 m-33.0425026635346,17.289620826645297 l-0.2026802343461869,2.5164903289532727 -0.990414165914968,3.0917630163658885 l-1.5479504695448347,3.2581166047859957 m9.228677580193091,-12.530733498499783 l2.538478963549359,4.407334005257688 3.007685346589984,3.5317455528314254 l3.0691800128919002,2.512467285533318 3.709673142423174,1.7626605990335027 l2.7907245451824485,1.2023955249535552 2.9628756481730516,0.8974515387123945 l3.4535700873936293,0.5154328109907967 4.266592032315254,0.02195069312100531 l2.2607558145388476,-0.5994100108387094 0.48716316671223014,-1.009936619780856 l-0.7949214642273017,-1.4367352510101432 -2.1700520951132147,-1.8037888218923508 m-14.042835466650505,-10.481230824794354 l1.2792711023988026,2.6530985618616443 1.156904565878303,1.138479148988063 l1.0744046608224314,-0.047878182451985725 0.9588136685473083,-1.9271276468430154 m8.6634128688664,-2.7707382423537132 l2.4653444174044536,1.4405933043825039 1.7117954911975048,1.4335672035294351 l1.6442144293095389,2.055062605733914 1.572434082045623,2.7441773446262974 " fill="none" stroke="black" stroke-width="1" /></svg>