<?xml version="1.0" encoding="utf-8" ?>
<svg baseProfile="full" height="109.49251312064007" version="1.1" width="108.47103841602802" xmlns="http://www.w3.org/2000/svg" xmlns:ev="http://www.w3.org/2001/xml-events" xmlns:xlink="http://www.w3.org/1999/xlink"><defs /><rect fill="white" height="109.49251312064007" width="108.47103841602802" x="0" y="0" /><path d="M25,25.000000831474054 m0.0,0.0 m24.52763557434082,-8.314740540527055e-07 l0.5457710474729538,0.24887440726161003 2.3492343723773956,1.5587951242923737 l2.8683650493621826,2.7355152368545532 1.7799778282642365,2.3183877766132355 l0.9135618805885315,1.9902943074703217 m-31.94566011428833,6.1244136095047 l4.350745379924774,0.3948252275586128 27.322204113006592,-2.4819527566432953 l20.75051784515381,-1.546570509672165 2.6612037420272827,-0.07535242475569248 l2.3474816977977753,0.514223612844944 m-31.519417762756348,4.279237985610962 l0.1645287685096264,1.9762730598449707 -2.079152911901474,3.7653645873069763 l-4.1768839955329895,6.239036321640015 -3.2988128066062927,3.310380280017853 l-0.40924064815044403,1.2696099281311035 0.4090654104948044,1.0922431945800781 l6.432176828384399,2.8663498163223267 5.405832529067993,3.0923521518707275 m10.919626951217651,-14.27908182144165 l0.16242559999227524,1.958746761083603 -0.521497018635273,1.6306531429290771 l-11.958590745925903,12.318933010101318 -14.42349910736084,14.063156843185425 l-0.6705588102340698,0.9352069348096848 0.28813349083065987,0.49354251474142075 l1.0999548435211182,0.006917438004165888 30.152361392974854,-5.025247931480408 m-4.127810001373291,-7.178800106048584 l2.4698157608509064,2.860478460788727 2.584087550640106,4.0380749106407166 l2.166609615087509,4.313589632511139 1.2141390889883041,3.6840423941612244 " fill="none" stroke="black" stroke-width="1" /></svg>