<?xml version="1.0" encoding="utf-8" ?>
<svg baseProfile="full" height="119.84307786442375" version="1.1" width="104.31808407222957" xmlns="http://www.w3.org/2000/svg" xmlns:ev="http://www.w3.org/2001/xml-events" xmlns:xlink="http://www.w3.org/1999/xlink"><defs /><rect fill="white" height="119.84307786442375" width="104.31808407222957" x="0" y="0" /><path d="M25,25 m0.0,0.0 m6.279438207170654,14.079248245589099 l0.3462913674773767,0.11640788542156323 2.123238997673421,0.08428239521538991 l11.051539930733853,-1.9044505784413286 4.5113506188483194,-0.27446637959579484 m-9.467377953666317,17.630224662323148 l4.2132884935247805,1.603256827894003 2.773506025980538,1.4021780526003014 l0.7704179094713123,1.3683260394436507 0.17994016272896507,1.5823158760010907 m-13.440172309107362,17.514272413100542 l1.8860689463107008,0.5943118767297694 0.5993215382863445,-0.19481682503448444 l10.271468345050483,-9.159152026539841 m5.565594884733957,-29.476995898826157 l0.4432892296898371,3.4799119626984414 -0.03892202672446145,27.40171697300366 m0.1158721056158334,-28.67969907674332 l16.238148995668514,-2.9621894585073143 0.6480391762735908,0.007096682341177467 l0.8666403378989079,0.7695797570038828 -0.5083417702611801,30.745062602167227 m-17.06814388496917,-18.771413237212897 l10.861391336196963,-1.4936063444579868 m-10.696659937643526,10.746198639251986 l10.468468044209631,-1.208979203402062 m-10.137687258633111,10.896711462061056 l16.201121852292086,-1.6363610801085207 m-13.275204834724914,4.396036448779959 l-0.059673262883926784,2.0010069535183272 -0.4932246052226472,1.9585418988978047 l-1.1336702578109066,2.952096782621428 -1.6688243075047462,3.4505122485109494 l-3.5831705723852827,5.7065417332070805 -2.160469126182026,2.6705492927257923 l-2.3621197512311443,2.368833583930267 m17.894765111581084,-23.206480296516848 l0.5589387607851575,2.9615553387785 -0.14109762993751218,14.944134796909172 l0.33767867969818555,2.208217913769197 0.794959999896168,1.628442451777198 l1.3767082452492414,1.0273172076950228 2.132598108943254,0.5167992658435979 l4.615828665539873,-0.011262336327023682 2.508799877061006,-0.5700262888874268 l1.7335840068439028,-0.6546639966482792 1.365990149268333,-0.8217198267420165 l0.5758323673794354,-0.8814087008919449 0.24272308303608908,-1.161275315279405 l-0.08047326778914803,-2.503893404062553 " fill="none" stroke="black" stroke-width="1" /></svg>