<?xml version="1.0" encoding="utf-8" ?>
<svg baseProfile="full" height="95.94205221824569" version="1.1" width="102.0552411250416" xmlns="http://www.w3.org/2000/svg" xmlns:ev="http://www.w3.org/2001/xml-events" xmlns:xlink="http://www.w3.org/1999/xlink"><defs /><rect fill="white" height="95.94205221824569" width="102.0552411250416" x="0" y="0" /><path d="M25,25 m0.0,0.0 m7.403610150901034,19.54205138713068 l0.415127402237471,0.13560304619717786 2.4077773404202176,-0.05141154976729944 l9.979218723157114,-1.8690717009529405 2.086610205619162,-0.10303839734791348 m-7.382137863218057,-11.64055121486082 l0.584587218238305,0.7104670066461162 0.33636978543283186,1.3541043007289644 l-0.02675532607737277,25.479501110558054 m-8.609143159060695,4.595096013157042 l1.0294305441507319,0.33686078533278596 1.1728965068769068,-0.45083470929499286 l12.43757076982612,-9.014644264183842 m5.283130119438111,-26.72928108064734 l3.1699122972911367,0.12826368791919554 16.086659805304546,-2.1605580525165538 l3.659519598326814,0.20220058205525104 m-11.992835873947737,3.0718281242132814 l-0.058902338277949974,1.3531783453268933 -2.860964686259008,6.218396437430645 m-6.258274272373143,0.9996640469090925 l0.49641098679536766,0.783800924291735 0.2006733855559308,1.0437892785658667 l-0.03060924542141641,21.254724014461175 m0.37755368626010627,-22.18508733160793 l14.961092945821115,-2.0284791108773406 1.305267141344099,0.09079470391191873 l0.7427237055024913,0.6658671794219948 0.2585833298678715,1.4893391426171387 l0.00011131158789758847,20.598324840164864 m-16.96700190217224,-14.271465548465303 l16.52167199755278,-1.7419228492870258 m-16.465729995752387,8.82038113868369 l16.534782955151506,-1.4739719213255438 m-16.22542249541001,8.82605377763445 l16.378610454876245,-1.3663259482528693 m-12.236320338505413,4.599158205732409 l-0.13046152281172485,1.2837768990881817 -1.8098452199651327,1.7517007366398767 l-4.055908771130792,3.1179006208812314 -4.362390926545335,2.575869561933699 m19.08041782539719,-8.970593553687923 l2.386894393504644,1.661699255411573 2.8032728834185736,2.492207902373383 l2.2898543941525284,2.458162610928554 1.1376031979611663,1.628817421641975 " fill="none" stroke="black" stroke-width="1" /></svg>