<?xml version="1.0" encoding="utf-8" ?>
<svg baseProfile="full" height="97.69304341668072" version="1.1" width="101.27295945155713" xmlns="http://www.w3.org/2000/svg" xmlns:ev="http://www.w3.org/2001/xml-events" xmlns:xlink="http://www.w3.org/1999/xlink"><defs /><rect fill="white" height="97.69304341668072" width="101.27295945155713" x="0" y="0" /><path d="M25,25 m0.0,0.0 m7.605282733919135,10.505223386567097 l0.3853823384306739,0.11582137765690088 2.054523462602307,0.08531200052855632 l9.299010900434597,-1.1646309153784191 4.270745152516862,-0.19783290148421828 m-16.293478641727283,16.323777051761077 l2.9039078140066836,0.1973964357039589 10.412595844727536,-1.8705944442820404 l2.3629175547870913,0.09651042696203718 m-15.850823161165156,19.50068983645444 l1.1434663839406205,0.6463519222267268 1.4884978858426219,0.0019931380601364494 l12.30932242266889,-7.156680513645793 m-6.441818191683712,-25.006054919538876 l0.6253613299792865,1.0328409120847055 0.23073407658640066,0.9290504182073397 l0.20339094767013557,25.249328861858285 m10.878103818501081,-35.13027788803506 l1.3588644895126614,1.02105887710201 1.924197740950644,1.920396429433672 l1.493318798151953,1.9195491531202609 0.6152980134738367,1.2356800001883677 m12.934059611766166,-8.669620040413534 l-0.20448811642139042,1.6179624921589146 -1.3108300842560572,2.764686439628007 l-1.8027979270180263,2.6426317128824715 -1.9499716265980618,2.1003312292967964 m-14.058263097362373,2.9555287036345845 l2.551157650672285,0.1903382220921757 17.648588279298373,-2.0720950078393634 l3.0671749227880056,-0.10805295826475475 1.4195281245613325,0.21481426691099498 m-23.32924081631731,1.6228713798421253 l0.7348861854408478,0.8365358034693778 0.3051748390141303,0.9068171325648852 l-0.3606467903301345,21.41872753035019 m10.585534066611315,-23.294761613312634 l0.5929225762120967,0.8057191185748038 0.23162293219889846,0.9032168425954828 l-0.04440077374930838,24.322224533709182 m-10.815758424957421,-20.834266079722187 l6.530485205902988,1.3272600608925158 m-7.5719327863607795,7.109439324510587 l8.080233979894142,-0.5162575003740137 m-15.665660071734626,9.050242906994495 l1.03110391823243,0.32590011001179003 1.3882792021360857,0.030365394956604074 l23.70366313332724,-4.640111940493858 1.9901635205347206,-0.22142547355049377 m-18.707213611807678,3.408184464664912 l-0.03224396081585484,1.0903981616498755 -0.49140662907558375,1.645192344308705 l-2.140484154837683,4.031093791747337 -2.880793857478697,3.6093699730582554 l-3.7248088361539877,2.864873444595337 m17.806164230818418,-13.212643353877835 l2.3628577938037125,2.0255516996352387 2.6757583289136337,2.8904654033317794 l2.1839639332199567,3.17490078171758 1.1379591037615322,2.5606145873842827 " fill="none" stroke="black" stroke-width="1" /></svg>