<?xml version="1.0" encoding="utf-8" ?>
<svg baseProfile="full" height="108.93807159969583" version="1.1" width="109.49251234531403" xmlns="http://www.w3.org/2000/svg" xmlns:ev="http://www.w3.org/2001/xml-events" xmlns:xlink="http://www.w3.org/1999/xlink"><defs /><rect fill="white" height="108.93807159969583" width="109.49251234531403" x="0" y="0" /><path d="M25.000000968575478,25 m0.0,0.0 m9.244453310966492,8.975510001182556 l0.7271114736795425,0.20369946956634521 2.185664623975754,0.22846275940537453 l2.194685935974121,-0.16292348504066467 16.822798252105713,-2.485891282558441 l11.363146305084229,-1.3522379100322723 2.190355509519577,-0.056247394531965256 l2.2073155641555786,0.4107367992401123 m-20.323035717010498,4.330192506313324 l1.1704149097204208,1.7277467250823975 0.30739856883883476,1.531444787979126 l0.18476614728569984,42.81874656677246 m-19.214506149291992,-22.782585620880127 l2.1456104516983032,0.38543224334716797 2.1733957529067993,-0.031754744704812765 l25.939295291900635,-3.5377219319343567 4.035739004611969,-0.354963019490242 l2.6493561267852783,0.2871120534837246 m-46.003966331481934,28.2905912399292 l2.932983636856079,0.512721836566925 2.955717146396637,-0.0030108369537629187 l28.61607551574707,-2.6439884305000305 12.105774879455566,-0.751829668879509 l8.525787591934204,-0.10593184269964695 4.356173574924469,0.7010852545499802 m-18.105978965759277,-16.928166151046753 l2.7117830514907837,1.7555321753025055 2.3653677105903625,2.1975725889205933 l1.8605393171310425,2.321343868970871 1.3762794435024261,2.5934243202209473 " fill="none" stroke="black" stroke-width="1" /></svg>