<?xml version="1.0" encoding="utf-8" ?>
<svg baseProfile="full" height="111.83216426231672" version="1.1" width="112.16177036161538" xmlns="http://www.w3.org/2000/svg" xmlns:ev="http://www.w3.org/2001/xml-events" xmlns:xlink="http://www.w3.org/1999/xlink"><defs /><rect fill="white" height="111.83216426231672" width="112.16177036161538" x="0" y="0" /><path d="M25,25 m0.0,0.0 m19.208581862692217,24.196650017685787 l0.4647246889006658,0.1211468061009209 2.03300644703453,0.034413857214993154 l10.2075917367883,-2.035757700453298 1.796184949588801,-0.1269500541409388 m-6.78992588359517,-12.801649827455943 l0.6253107911914819,1.3499681316722585 0.1670693193142341,1.7794093875393815 l-0.0022989141652730955,47.479867964993524 m-0.3124801436454253,-36.199955202775925 l-0.1574521942013704,1.6208879196995256 -0.6796836168075977,3.6620986295048854 l-1.5344289936387614,6.806601324825904 -1.717933766845955,6.157040638336154 l-2.6971319952196837,8.371440819803913 m8.802109740441733,-17.50131168426278 l0.9118871716353224,2.457032146708249 1.4310512529412813,4.919831394990295 m15.377796011972245,-27.2988203486003 l0.3471190096889074,1.4020951683225884 0.055664464974729405,1.344620153444089 l-0.08817537889422328,6.378228439737816 -0.4295645324156689,17.85213235770114 l-0.3423984332501094,0.6520100621780335 -0.5154421550848562,0.11618685048547403 l-2.115805754261424,-2.416673932961733 m-2.264524043215138,-13.946226646493827 l-0.26327310367695295,1.8392763658806854 -1.3688511482118955,3.676794525642696 l-1.7808173734349078,3.731774149017816 -1.7443462807009138,2.831869661803959 m17.1907781979342,-13.79376073100152 l1.7663002626376818,1.6359965245863146 1.8778346847518712,2.4113300994902 l1.457103259246489,2.5250674416053736 0.687390475180606,2.040078211580769 m-5.044659249920918,0.9675394485377179 l-0.24221689656267387,2.6233723485954483 -1.2668287529594249,3.903997996842146 l-2.2231397820804535,4.918224658374079 -2.9143815821354595,4.958008427164675 l-2.7264370650776826,3.8284040261923757 -3.0540585311874344,3.5785556564360013 l-3.2091568141083617,3.1408169395756267 -3.367320969312859,2.640501838192162 m6.090912798976331,-23.382782567745 l1.2680319622345022,0.6076308989971491 2.004931673101276,1.7347707676139053 l11.275691200992775,11.906827687358387 3.7916282095621265,3.4893519487806928 l2.1758035444436685,1.4655144495141532 " fill="none" stroke="black" stroke-width="1" /></svg>