<?xml version="1.0" encoding="utf-8" ?>
<svg baseProfile="full" height="126.44797809626255" version="1.1" width="101.42622755916001" xmlns="http://www.w3.org/2000/svg" xmlns:ev="http://www.w3.org/2001/xml-events" xmlns:xlink="http://www.w3.org/1999/xlink"><defs /><rect fill="white" height="126.44797809626255" width="101.42622755916001" x="0" y="0" /><path d="M25,25 m0.0,0.0 m25.12748493226166,2.6792188104600614 l0.3811686123355629,0.4382568871964494 0.5072175313538551,1.967769254538237 l-0.11796246824800738,6.9313241026445445 m-21.441023243430788,1.0305881842314344 l-0.875559240473114,5.566866945862097 -1.7540604327353004,6.589654881893927 m3.2396436965683972,-10.283604649602772 l28.79234728778125,-3.0010319782354715 10.267096638389878,-0.8029416776875328 l5.548230483141062,-0.0949263664130743 1.1698961768455332,0.37450167504569704 l0.5490439395140336,0.5761958010494892 0.032703645855981976,0.7273132313529469 l-1.1259806666581755,1.7413341959995117 -3.338444524873644,2.900919995628245 m-34.37474131591271,17.528826124209683 l19.735358346079497,1.484808033173032 3.6567695001854132,0.4564312278529438 l1.793043548649516,0.4742745821599169 1.3819490502821885,0.9788971052838444 l0.4946421346266543,1.2774358956668468 -0.1081204173353275,1.969379274225366 l-1.5348807739219612,5.49333496166736 -3.166100917583541,7.475515201212201 l-3.1327073528096916,9.597100995230923 -2.513313444144719,7.26177657656363 l-1.4058389615350468,2.2546573717651444 -0.7499925754704219,0.39866785157199336 l-1.4449749985898293,-0.18639481959916396 -2.169332443792277,-2.077569358588568 m-0.5593243914459073,-44.11850986794036 l0.011443092913129858,1.4892683906505138 -0.28882070584451275,1.8061152147065267 l-1.8168591246512278,4.9337587822757465 -2.962025347194489,11.886903823929844 l-2.4648281914206547,8.62151340227486 -2.1371708404970624,6.518601258202495 l-2.039455941909897,4.951935605282613 -3.227965385445882,5.408888106301997 l-2.811306987765184,3.22092306421933 " fill="none" stroke="black" stroke-width="1" /></svg>