<?xml version="1.0" encoding="utf-8" ?>
<svg baseProfile="full" height="109.49251370504498" version="1.1" width="107.93913795612752" xmlns="http://www.w3.org/2000/svg" xmlns:ev="http://www.w3.org/2001/xml-events" xmlns:xlink="http://www.w3.org/1999/xlink"><defs /><rect fill="white" height="109.49251370504498" width="107.93913795612752" x="0" y="0" /><path d="M25,25.000001220032573 m0.0,0.0 m18.341068029403687,3.8353899121284485 l0.061391773633658886,0.601239949464798 -0.15381591394543648,1.3334257900714874 l-1.131623238325119,1.9412651658058167 -4.690088629722595,6.54799222946167 l-4.59109753370285,4.7487881779670715 -6.254145503044128,5.306263566017151 m1.7783641815185547,-18.350495100021362 l2.184053659439087,1.9700941443443298 3.7303966283798218,4.298639595508575 l1.5616261959075928,2.296590656042099 2.5577878952026367,4.809919595718384 l2.5400736927986145,7.524703145027161 1.1746929585933685,7.519145607948303 l0.12978726997971535,4.800194203853607 -0.3188551589846611,4.4862014055252075 l-0.7042253017425537,4.045778810977936 -1.6397768259048462,4.971083998680115 l-2.1503618359565735,3.278858959674835 -1.6116425395011902,1.0374949127435684 l-1.6797205805778503,-0.027439603582024574 -1.6845832765102386,-1.2170679867267609 m5.399002432823181,-32.54406452178955 l-0.06401308346539736,1.9061842560768127 -3.8691577315330505,7.772006988525391 l-3.684721887111664,5.236796140670776 -4.539344012737274,5.2159565687179565 m24.496967792510986,-29.565305709838867 l1.2094266712665558,0.2623694948852062 1.7102862894535065,-0.11243942193686962 l17.267847061157227,-2.313002347946167 2.4216318130493164,-0.08273127488791943 l0.9454506635665894,0.22559521719813347 m-11.59271240234375,-11.75943374633789 l0.9178373962640762,2.27609783411026 0.15649691224098206,21.802501678466797 m-17.339051961898804,1.806151121854782 l3.108316659927368,0.4624354839324951 27.296154499053955,-3.1642380356788635 l4.560531675815582,-0.24619663134217262 2.0888832211494446,0.444200299680233 m-3.9624178409576416,-17.43908405303955 l-0.08218856528401375,2.355290502309799 -0.45127730816602707,1.1868497729301453 l-5.952657461166382,8.841804265975952 -5.430957674980164,6.968269944190979 l-5.053749680519104,5.620603561401367 -4.54872190952301,4.507041871547699 l-10.930687189102173,9.444085955619812 m10.898038148880005,-10.981398820877075 l0.8251853287220001,2.411559075117111 0.0,23.196539878845215 m0.38415446877479553,-24.074604511260986 l16.25396966934204,-2.191000282764435 0.8704259246587753,0.17280004918575287 l0.5515708029270172,0.5362879484891891 -0.16313431784510612,24.010868072509766 m-17.28347659111023,-12.426319122314453 l11.025162935256958,-0.9816279262304306 m-11.103662252426147,12.715303897857666 l16.810057163238525,-1.5862435102462769 " fill="none" stroke="black" stroke-width="1" /></svg>