<?xml version="1.0" encoding="utf-8" ?>
<svg baseProfile="full" height="101.02201559600064" version="1.1" width="104.91025511011972" xmlns="http://www.w3.org/2000/svg" xmlns:ev="http://www.w3.org/2001/xml-events" xmlns:xlink="http://www.w3.org/1999/xlink"><defs /><rect fill="white" height="101.02201559600064" width="104.91025511011972" x="0" y="0" /><path d="M25,25 m0.0,0.0 m6.5000023140252665,4.281143538969401 l0.41950483384715886,0.41627264795141217 0.5568619474607998,1.1451054159422154 l0.11755911504743721,1.8426168024013285 -0.03891093071505199,41.24223972593869 m0.8240680860362573,-43.91599155738297 l13.62234691417759,-2.0388926424214695 0.8813046037902444,0.31781500983235517 l0.6902905626014629,1.030214473991319 0.006198243614391023,14.293277794305709 m-14.257818528274067,-6.831128509817462 l13.726038650932377,-1.1489682629636055 m-13.640064221781724,8.21293472778444 l13.69215701195933,-1.4319188511639618 m14.167267761936829,-13.927008529434447 l0.5253804487680226,0.7753703179758314 0.1542015020214888,1.0157670972156707 l-0.006025959571696602,12.961186580164844 m0.6291663332079886,-13.92464176529111 l13.601444055295358,-1.832577422818953 1.3025818610186557,0.2624047236217127 l0.7858373403672931,0.34744028039989555 0.6508631643542951,1.0666522184660037 l-0.23161227200260573,45.81109509948227 -0.4631769553492524,0.808933537368046 l-0.6348884485598677,0.24267314548346736 -0.7557147251872035,-0.8785892421361238 l-1.8818476297356024,-2.283208314377715 m-11.891445415831017,-38.49659118154251 l15.329640759577158,-1.334963913586471 m-15.007578247676697,7.854686060185021 l14.793504608902971,-1.1581868411052514 m-34.59489651397101,8.568047429226798 l2.3611356001876627,0.13832794269056187 16.11075820431751,-1.6640454519484873 l3.1498429710279967,-0.0035640820206897655 m-24.470181014312235,2.619095908951841 l0.6333908040774223,1.032262018239764 -0.1191620836852408,2.6525642928719626 m-5.729863158990807,-4.16557859798858 l1.8681779889453023,1.0835241012746362 1.4669761776998884,1.2261651064736667 l1.203892708263052,1.2516594062142883 m9.616152633775537,3.644966558976265 l-0.09761916731703756,0.6778674051479551 -0.6398947899725967,0.5026200246072682 l-3.6600834832765807,1.8897620144846965 -3.6825855517926396,1.6985480775177726 l-3.9979628763579687,1.6704275903982118 m0.20878037262075363,-13.906911938942073 l2.587258020762062,0.9409894304672031 11.014799216264574,1.6428397199112728 l3.7938763544108247,1.5731798219704185 3.07385088640894,1.6870546700173812 m-21.19247546429186,-14.244600748750598 l0.6301376572768498,0.9214836056861198 0.11940412145734133,3.64663504076148 l-0.1116811156909898,7.757496048134946 -0.44330806469562756,5.137311209528559 l-1.388670090827006,4.350815643018407 -0.9719591492307142,1.6054301953193701 l-1.3660037048729303,1.445487006901456 m5.690717489761499,-21.970275714650075 l12.638224945455088,-1.2610128636404383 1.7415888264086448,0.26392965077472286 l0.6469617109312259,0.7481574617071809 0.05293142970226813,20.79651036170448 l-0.3528331481337804,1.1087808598824385 -0.5825403273599882,0.3603430730724082 l-0.734808474476112,-0.12132920219810336 -2.50259072672111,-1.610839356054773 m-10.519659411141854,-13.063147853372698 l14.331039715524746,-0.7367564974704275 m-14.521593287883764,6.005289186254009 l14.377466375429707,-0.5661424866994161 " fill="none" stroke="black" stroke-width="1" /></svg>