<?xml version="1.0" encoding="utf-8" ?>
<svg baseProfile="full" height="92.9093875224999" version="1.1" width="110.41554409262949" xmlns="http://www.w3.org/2000/svg" xmlns:ev="http://www.w3.org/2001/xml-events" xmlns:xlink="http://www.w3.org/1999/xlink"><defs /><rect fill="white" height="92.9093875224999" width="110.41554409262949" x="0" y="0" /><path d="M25,25 m0.0,0.0 m13.424562951791966,6.562981077112538 l0.4622037756395043,0.09936223830724422 2.9558612230261314,0.03720571151562025 l21.953240977077755,-2.275332896601842 2.2394844002071452,-0.15943486246820135 l1.8297224543431467,0.2547408296435268 m-31.33284790332727,2.7928877784861115 l-0.07491630191780618,1.5768748039918863 -1.4348625730715117,7.369245333485009 l-2.1806303350054157,8.090396733459679 -2.5791468441676217,3.676666061663011 l-1.8276199164442233,1.6396979584811646 m25.510135462669236,-19.414528331617525 l-0.004991549577073396,6.216809014127002 -0.395310689894597,5.033872320021466 l-0.6766252003830754,4.6361006517692624 -1.023951376430074,4.5856285707229 l-1.1558304336348257,3.128407545386307 -1.3901436715132915,2.6508108082376522 l-1.8732702402623147,2.4826582309731746 -2.3024376094388113,2.0806394854360986 l-3.031203157632252,1.8436984603678122 m10.368299565455178,-30.02089995393878 l17.216204462061413,-2.194680105090507 1.4491422047419777,0.039776684671643435 l1.0333394923319847,0.63412052219285 0.449486322636153,1.112463846498722 l-0.5580600360043843,0.744605179116792 -2.4457748919484503,6.3528688329303815 l-1.4140618876247202,5.512325516811443 -0.04503838472064773,10.729714601836738 l0.9896631586195451,1.364656298623244 1.8547637481826236,1.0470160526348986 l2.435129564845865,0.49803549697756205 3.1816413438576583,0.11072284344890128 l4.506810266990689,-0.18615549517901211 1.681395429146687,-0.3414492872209941 l1.38560510892844,-0.5791806070486518 0.8477004162600246,-0.9311881324783268 l0.3476433870641435,-1.356656195172674 0.040231379750575724,-1.9831535423116433 " fill="none" stroke="black" stroke-width="1" /></svg>