<?xml version="1.0" encoding="utf-8" ?>
<svg baseProfile="full" height="97.07874058759828" version="1.1" width="99.62430121266586" xmlns="http://www.w3.org/2000/svg" xmlns:ev="http://www.w3.org/2001/xml-events" xmlns:xlink="http://www.w3.org/1999/xlink"><defs /><rect fill="white" height="97.07874058759828" width="99.62430121266586" x="0" y="0" /><path d="M25,25 m0.0,0.0 m3.455288858913629,13.848118650837169 l0.5142551593387843,0.09991480702188232 3.0467127964349605,0.026911649087663154 l14.251152320203632,-1.6688583041603091 3.217879317385434,0.05867071542493032 m-11.114410460223256,-5.848611336673175 l0.8223203657936597,0.8320475305915898 0.21892351583598857,0.804508204975294 l-0.003181688861698471,10.660913533575695 m-9.834246640312392,1.59569411736913 l2.803263212439248,0.05974264505500357 12.506303590829905,-1.412192519017527 l2.7081243956351075,-0.02508753725972873 m-18.040608898058455,6.7963546888536825 l0.9874203187457937,4.580577329635249 1.067586926905733,7.610477863286292 m-1.1451652316811702,-11.631300445424952 l14.003935255444315,-1.6379106428959618 2.014611285648739,-0.10433448577173413 l0.5773046291273989,0.24348413030002217 0.43804230203636013,0.9899067483932579 l-0.06879349449659862,0.7720444107659915 -1.8982281863989603,10.047912017258833 m-14.573658076826677,-5.092237057603149 l15.601843467249598,-1.339432750253412 m-14.543711313597619,7.160888806999919 l13.229958500442033,-1.3892984193115931 m-18.777518533630708,3.274283590222461 l2.627540155437249,0.33822206638913926 3.1655646552620498,-1.6327664092604204 l11.796462836219616,-2.2417144412746617 5.614879863317237,0.023908959608517223 m-11.363285434011368,-18.120675501503502 l0.5696598469241265,0.6845283717123496 0.2670370051679097,0.9758750501620156 l-0.04115663759572888,27.738174550482317 m14.693664343574108,-38.05465847831653 l0.8952608839862808,0.4891520224170513 0.4943509667154339,0.13522944346673554 l12.692314282502508,-1.220561551030576 0.07430125776181118,0.38429496144102276 l-0.44682985278501414,2.7904714610195485 -1.5563013645923167,5.818164453980595 l-3.614442610904062,5.933001805462124 -2.7417936882538356,2.853637011731086 l-3.0541995132911075,2.7178633054170542 -3.2989969261270558,2.4274159351857607 l-3.5174232124086346,2.1216507663323423 m3.352259298703968,-20.01004533907901 l2.5594140094735773,1.6772705773206569 9.186042916704944,9.525709801128913 l4.593383764943457,7.671219087941734 2.9683501087378747,3.834202363839047 l2.242840562880044,1.2466921201928336 " fill="none" stroke="black" stroke-width="1" /></svg>