<?xml version="1.0" encoding="utf-8" ?>
<svg baseProfile="full" height="117.86965476420242" version="1.1" width="95.15782068954654" xmlns="http://www.w3.org/2000/svg" xmlns:ev="http://www.w3.org/2001/xml-events" xmlns:xlink="http://www.w3.org/1999/xlink"><defs /><rect fill="white" height="117.86965476420242" width="95.15782068954654" x="0" y="0" /><path d="M25,25 m0.0,0.0 m6.49078308439649,12.283517136053625 l0.373664153519422,0.3716048054308836 0.45306204864485455,3.222554973020058 l-1.2048088359239641,14.124114430313206 -1.0940808893650884,9.183609358121748 l-1.1813629782526003,10.536114982337718 -1.0984964140303608,10.673621127351895 l-1.0525639872654224,4.570067014660346 -0.9862237921415947,2.9044509369129416 m5.42950083081646,-52.28438986549213 l7.5510515880897655,-2.0918822151300254 0.8104049493932975,0.6658750023038265 l0.18060561960101792,1.5679746834000898 -0.9675015923807747,47.299365692255186 l-0.45644528427913533,0.34234307811128406 -1.1875032780090367,-0.6840371625058056 l-1.424144011412557,-1.9281019797196148 m-4.641306407534252,-33.48923103159831 l8.235451349434511,-1.4467703940559573 m-8.834631087358412,14.435200162410258 l8.735159548313662,-1.4444299562281384 m7.474941912368512,-28.409401288369125 l2.4239749358520615,0.8450178087886637 2.7675408972865636,-2.3707367359604627 l0.7332089422894214,-3.107924815431256 0.4740894704996877,-1.1364312890502468 l0.29384601879857364,1.466889068563591 -1.866318128690854,7.32084366962013 l-2.715077474805814,7.4308431467028795 -2.8572712973414087,6.007479394227824 l-3.345952771779588,5.195234553075868 m1.4602855161997834,-18.07850082297665 l2.2980912472301043,2.428244060868209 2.20802956095057,3.1955141085534966 l1.7680278558378362,2.869296161975368 1.5777614234245898,3.181203418376907 m6.454256699722923,-18.185137404924767 l1.6086594952804663,0.13600812564465095 1.5565023935921043,-0.2532439046928052 l7.1645352077501165,-2.9355013858220635 0.7409713817215006,0.0005280618745166375 l0.42279815890476014,0.39204461874174706 0.10815779841971661,0.6551735519432396 l-0.5666593230021622,2.4897269587124553 -1.3813478652408047,4.217048301359414 l-1.7475037273718603,4.263090388815987 -1.756293233814145,3.3268878812582736 l-1.9424990308742984,2.786254227308449 -3.9408523232844908,4.128438294392749 l-2.7138444902531456,1.8769564889329355 m3.235029326042359,-15.903379574735343 l3.0417267081702213,2.3900765416801097 3.2483256878232063,3.134290495166031 l2.735643022332875,3.4056426058059746 2.0644220812508762,3.473640267428473 m-26.64951543324536,10.692441358020002 l1.237315591370873,0.10489316151434842 1.1268918572925746,-0.23116068377753576 l6.5503441883909135,-2.8082685118045223 0.9942683272752543,-0.03776933774783145 l0.5193374160524926,0.3545705789450317 0.257711758391987,0.6689632952601049 l-0.7286701797642903,2.8586126317001286 -6.712856534475612,4.442030069671919 l-4.339637574551485,2.5318336215866126 m13.317014653355505,-17.06040895393465 l0.08981805001246214,1.3836407901506187 -0.22118126636394406,1.3977999988836032 l-0.798131999074966,5.4644627091092906 -0.8988285761963066,4.190555333960535 l-1.2598413757421558,3.911420380659073 -2.841086823995017,6.007129956597472 l-3.7083003988173324,5.440768335496957 m2.0047548344136037,-18.724484920624505 l2.7579523143561917,2.5672740457274887 2.825596895129839,3.42529435335901 l2.579640829873054,4.049612218054002 1.8099792304042288,4.474405657205358 " fill="none" stroke="black" stroke-width="1" /></svg>