<?xml version="1.0" encoding="utf-8" ?>
<svg baseProfile="full" height="98.30950288169318" version="1.1" width="116.43225497899928" xmlns="http://www.w3.org/2000/svg" xmlns:ev="http://www.w3.org/2001/xml-events" xmlns:xlink="http://www.w3.org/1999/xlink"><defs /><rect fill="white" height="98.30950288169318" width="116.43225497899928" x="0" y="0" /><path d="M25,33.084373081520546 m0.0,0.0 m8.799632875223956,19.749867835940695 l0.4610407871239631,0.14017930314009813 2.93998292764264,0.0032846038668886022 l10.485211221436849,-1.9729736366656792 2.471858705161684,-0.07185611606946928 m-8.069842737975508,-12.238764819427216 l0.5796407133478593,0.9482225394321883 0.21701892897660377,1.1831170306277887 l0.024431759585717028,26.816027166168404 m-9.150022548762253,5.307583280221045 l1.0473872266616422,0.36044261293787144 1.213945922563853,-0.45863845188513414 l12.70301175158248,-9.130917654481845 m5.283831467867055,-19.977580323841764 l0.5649407584547634,0.10823934289180025 1.4749148242718118,-0.012400131469821924 m-3.076585873647352,-5.4973533728767086 l0.7258401719702492,0.41339413892712495 0.5392904041831877,0.9756346753838843 l0.011943352041720786,9.731270503242365 m-6.199065115193095,1.2300691747410646 l0.8496247022706129,0.29671152359280134 1.447562899134494,-0.09349810375583407 l10.36420505140508,-2.0515680622076182 m2.5958706666977576,-8.747732806324972 l0.3039856794044808,0.22906959104726612 0.45709809211628016,0.14129138223322485 l10.701986895699005,-2.9658238602462226 m3.3775404566815292,-5.771545918735469 l0.3536978457644267,0.17835312830277508 0.3557897422855577,0.08359957380682809 l8.343653590555602,-0.9753998211589415 m-7.491640874940995,-6.014677408877966 l0.5509734970226703,1.1483274882356025 0.007326779879389085,15.311360942108955 m-6.905238323411368,-6.073880292682756 l2.144339816423885,0.13008073957759345 9.896595945634088,-1.1858744853986836 l1.832832007281154,0.050567271103421595 m-14.745806667039268,8.774973097862706 l2.3758568804125213,0.05625535535536225 13.004421969317976,-1.9135771053091002 l1.959880856852429,0.12374065655095776 m-22.623205433809982,9.1958777573618 l1.672873002819932,0.26992169852664555 14.100232363858542,-0.18449729918253147 l1.8487952753885701,0.15587597825496152 m-10.020118828376782,-4.9188531322075235 l0.46340492414591167,0.8939643335180738 0.09325807152045881,0.863321090260251 l0.0035238395715305663,10.577179670158918 m-15.783782466233653,1.2588638590663437 l3.4983830344246236,0.3183646433227901 12.89344048297182,-1.1601545473589139 l13.173910636619334,-0.6849153570696498 2.282575044133836,0.11053933011376654 " fill="none" stroke="black" stroke-width="1" /></svg>