<?xml version="1.0" encoding="utf-8" ?>
<svg baseProfile="full" height="87.16045071883428" version="1.1" width="91.19521702251241" xmlns="http://www.w3.org/2000/svg" xmlns:ev="http://www.w3.org/2001/xml-events" xmlns:xlink="http://www.w3.org/1999/xlink"><defs /><rect fill="white" height="87.16045071883428" width="91.19521702251241" x="0" y="0" /><path d="M25.421463531763084,25 m0.0,0.0 m9.79071526981855,6.432362508609783 l0.4288745932086136,0.11996619681687898 3.2058303477333276,0.13430689012184163 l23.2717306843594,-2.4531546599185146 2.0575075165039967,-0.20444088678713718 l2.0190950791254485,0.281247322941692 m-31.91047731571202,2.8958801779506484 l0.06577082057546726,1.9433833659169215 -0.8164242221561909,9.60325453140777 l-1.6440368421080167,6.529941345217819 -1.3653140514930273,3.604084903786287 l-1.4957252523056563,2.8387442359509634 -1.8149220309248293,2.557023707725956 l-2.214088128388148,2.3936584050785115 m26.863174955231976,-22.10275642973154 l-0.016379367475417093,-1.2016635369636945 1.5730081504093543,-0.4769797606298682 l9.240531952998676,-1.6171769241591454 -0.07792496254143551,0.31910445079738486 l-0.23101946665562287,0.9267617014866576 -1.5631151403670642,7.012818637334761 l-0.8669668515443305,3.7592383375177443 -0.42673886685128315,3.984178722793094 l-0.7087389329292776,4.2949523457898975 -0.34384523990210347,2.0539326496976993 l-0.7968839361142906,2.415852440609422 -0.5655331147404821,0.7923732545277925 l-0.5530596077607555,0.32355678494465895 -1.0701453802534833,-0.24848376803146485 l-1.605522606190193,-1.393013822105802 m-1.0133663059808986,-17.879606700403833 l-0.00870049436018417,1.5821739768969938 -0.7457521320487388,2.456130462662056 l-1.3468988380490805,3.2125035427048814 -1.6422232698728794,3.0752167420901433 l-3.571717153835086,2.544029027963197 -2.705827798225763,1.319093356451616 l-2.509855809636301,0.9844373941347185 " fill="none" stroke="black" stroke-width="1" /></svg>