<?xml version="1.0" encoding="utf-8" ?>
<svg baseProfile="full" height="116.9421132345601" version="1.1" width="101.14667915735276" xmlns="http://www.w3.org/2000/svg" xmlns:ev="http://www.w3.org/2001/xml-events" xmlns:xlink="http://www.w3.org/1999/xlink"><defs /><rect fill="white" height="116.9421132345601" width="101.14667915735276" x="0" y="0" /><path d="M25,25 m0.0,0.0 m26.635771580500656,6.491439125248471 l0.38131421713643204,0.4074128018972387 0.5768424448564471,1.6045663404995216 l-0.06253715891594909,5.581981022949307 m-19.328607456418545,0.7753859531729963 l-0.9108581487681825,4.56562685012505 -1.796076461417991,5.452025044557496 m3.363349203809307,-8.57618306540412 l24.519102324240908,-2.5902433419506474 10.524873569135508,-0.8587073089541164 l5.836484910950066,-0.1011831410793536 1.020832299324837,0.3620902406950763 l0.3861878329192807,0.5287451998234024 -0.14742240015158933,0.6747762922087636 l-1.3494990261765407,1.5419402809439855 -2.7985177686331952,2.1530111307477076 m-32.77531906570865,15.82218260478766 l3.486532756731875,1.2223447292214022 2.260030194452493,0.10097942489444986 l25.270916057965923,-2.792735187602374 2.027901604274667,0.2650930232906489 m-17.47047282405434,3.154594102495883 l0.6639208322486398,1.0388603973746673 0.277977259156324,1.8450787473721493 l-0.09611061498443496,26.942782820006318 -0.3662783822405303,0.9693655725805853 l-0.5604873378610923,0.36088357465792253 -0.7043281252618403,-0.1262539966082343 l-1.6389715589192917,-1.1337528455603838 -1.9219951728891256,-1.8307871459508884 " fill="none" stroke="black" stroke-width="1" /></svg>