<?xml version="1.0" encoding="utf-8" ?>
<svg baseProfile="full" height="111.04577002229769" version="1.1" width="107.46759921221522" xmlns="http://www.w3.org/2000/svg" xmlns:ev="http://www.w3.org/2001/xml-events" xmlns:xlink="http://www.w3.org/1999/xlink"><defs /><rect fill="white" height="111.04577002229769" width="107.46759921221522" x="0" y="0" /><path d="M25,25 m0.0,0.0 m6.533562313838086,16.651905031625358 l0.3894706838810087,0.1159569834171777 2.369589381221845,0.0826503184420212 l11.939434894440565,-1.6704114749790204 5.014732167981651,-0.2554592557376588 m-10.360683510834653,15.950861418491979 l4.399530416960071,1.583414590448117 2.871525467712619,1.328602745793389 l0.9758750242263651,1.2332738035516577 0.2719182450848338,1.4590665735172699 m-14.800910613496198,16.464723270069282 l2.16268973392875,0.5588330641398507 0.6406240631605196,-0.1928135765310503 l11.478634810361413,-8.56107519533627 m5.897773653191853,-27.33849813279992 l2.194669956002912,0.38690381351187203 13.960673968949717,-2.0969335381110623 l5.042064506053931,-0.36797282903332745 1.4846805252073283,0.22976080006457025 m-12.726388428163704,2.843712371298486 l0.17708234910989348,1.518159123134602 -0.5424049097102757,1.271526130665336 l-2.8031144658022016,5.376516196185995 -4.125215030049487,4.855930529429986 l-0.34982291943241023,1.4168913153093972 0.5044069899600482,0.23451363326932434 l18.568416806136067,-4.508855444860067 m-4.157584976741183,-5.6158956625246725 l2.0700497119376307,1.8828974437932804 2.405389060214901,3.05867957319758 l1.823323358519355,3.065273040737658 1.0043425423974566,2.6010292986591863 m-23.444404180158582,12.761429308727049 l1.660913045121983,0.2848454435143252 16.302034421766074,0.015323673127311508 l4.844508842519864,0.17266426385880754 m-12.927902464095482,-10.091144333892894 l0.5969548285518195,1.114445619942271 0.12881289070487056,0.8543614734629702 l-0.027532432634591292,20.853567009976366 m-15.372647200542248,1.1874412647255868 l2.5011672192119936,0.32967034001558093 11.214762460737273,-1.1043810679809125 l15.65970089519635,-0.6649987941266644 2.016895109587181,0.29542869663565646 " fill="none" stroke="black" stroke-width="1" /></svg>