<?xml version="1.0" encoding="utf-8" ?>
<svg baseProfile="full" height="123.50537378125394" version="1.1" width="107.20066673525352" xmlns="http://www.w3.org/2000/svg" xmlns:ev="http://www.w3.org/2001/xml-events" xmlns:xlink="http://www.w3.org/1999/xlink"><defs /><rect fill="white" height="123.50537378125394" width="107.20066673525352" x="0" y="0" /><path d="M25,25 m0.0,0.0 m15.488707313416912,2.702520563269497 l0.4250973866992103,0.16237636745034925 3.2531311942672203,0.1804284773419019 l22.462450384472284,-2.5645812859285133 4.307671541324051,-0.16918836415042057 l2.342714589572026,0.3448473557711116 m-33.007052081417164,2.4009822799643668 l0.5837193135571594,0.9128834158803335 0.18212506381811308,1.22902468319939 l-0.17166714918574363,13.38481027158482 -0.4874054833790471,7.597151402942202 l-0.9435072435960012,6.777536704011795 -1.4215761670817806,5.809500721749653 l-1.540367249368635,4.118980906506537 -2.003947136740286,3.731070737630851 l-2.5466247144221876,3.166552233441838 m26.89889094382974,-39.80333957146564 l-0.10524988238001266,3.422088754639428 -1.0432289232864838,2.8636926278863184 l-2.150848261733226,9.163142739591752 -2.6787724027296997,8.888267508346233 l-3.9190052029464075,7.111043418276739 -2.9008191707005326,3.195348540577029 m9.565706379760906,-21.955518774895868 l1.2746594928427126,2.7620110872010226 1.146522326674043,4.792556767063807 l1.4287354338237894,6.676260523101131 1.0016369010909054,7.255017909152964 l0.9295999747162293,6.7821602189722725 0.930361586476654,7.126761353345668 l0.9165697752073655,7.210741809051917 m3.7034222421164165,-41.28553968458449 l0.6005561445736987,3.444162121123245 -0.3212255303247786,5.341173313760401 l-3.3173024426221245,17.58540631535082 -2.1454539669079398,6.396325821830728 l-2.3716799765282017,5.375463326077646 -5.431012778014767,8.320205191745641 l-3.125818319009981,3.0530459944394726 m12.48445861693105,-32.41987966954179 l4.314607487370745,9.874569077142846 6.330371953295223,11.835029453935725 l3.8319855315023674,3.9019118469017458 2.767586775039287,1.8261303232634467 l1.6619424652504102,0.6766017008294745 " fill="none" stroke="black" stroke-width="1" /></svg>