<?xml version="1.0" encoding="utf-8" ?>
<svg baseProfile="full" height="109.49251234298572" version="1.1" width="106.11149634816684" xmlns="http://www.w3.org/2000/svg" xmlns:ev="http://www.w3.org/2001/xml-events" xmlns:xlink="http://www.w3.org/1999/xlink"><defs /><rect fill="white" height="109.49251234298572" width="106.11149634816684" x="0" y="0" /><path d="M25,25.000002089655027 m0.0,0.0 m3.6100542545318604,3.9963972568511963 l0.5498048290610313,0.12880805879831314 3.0316466093063354,0.2630285546183586 l12.589457035064697,-1.890803724527359 2.581195831298828,-0.054470705799758434 m-18.248953819274902,10.064314603805542 l3.2377395033836365,0.13062925077974796 11.94012999534607,-2.6806971430778503 l1.8763180077075958,-0.13061221688985825 m-20.128629207611084,11.600277423858643 l1.4960195124149323,1.240081787109375 1.1754678934812546,0.1983308419585228 l14.19825553894043,-5.5080342292785645 m-5.945141911506653,-13.007348775863647 l1.0779598355293274,1.566171646118164 0.283167939633131,1.0187164694070816 l0.0,11.939960718154907 m16.852625608444214,-16.487431526184082 l2.0005108416080475,0.013761903392150998 14.809485673904419,-2.2596582770347595 l2.3583203554153442,-0.14142400585114956 1.0354992747306824,0.20823270082473755 m-18.936378955841064,10.193206071853638 l2.6056990027427673,0.03786096815019846 12.08194375038147,-1.8208928406238556 l2.903761565685272,0.043766419403254986 m-19.666767120361328,10.757108926773071 l2.85106360912323,-0.07065562531352043 18.822927474975586,-2.6586487889289856 l2.3066292703151703,-0.11305319145321846 1.5020613372325897,0.48435185104608536 m-14.833317995071411,-14.360713958740234 l0.7578697055578232,1.7524608969688416 0.005150224315002561,13.652479648590088 m-15.993345975875854,0.6531868875026703 l0.07350869942456484,1.6416943073272705 -1.365281492471695,2.4506257474422455 l-3.104148209095001,4.027873873710632 -3.445174992084503,3.5780948400497437 l-7.264270782470703,5.932387113571167 -4.493764638900757,2.974584996700287 l-5.099959969520569,2.925579249858856 m25.02652406692505,-21.9760799407959 l9.620241522789001,7.031996846199036 14.685629606246948,9.677974581718445 l2.9121530055999756,1.6039329767227173 3.777810037136078,0.9406764805316925 m-39.89206552505493,-3.477398157119751 l3.4132876992225647,0.030953793320804834 11.808383464813232,-1.8297037482261658 l3.7924113869667053,0.06649138871580362 m-23.28648090362549,10.7248854637146 l1.7376920580863953,0.14248080551624298 3.71336430311203,-0.4333740845322609 l18.60139489173889,-3.311415910720825 1.2009777873754501,-0.09692071937024593 l1.3775329291820526,0.5110365152359009 0.17454121261835098,0.5998175963759422 l-0.16950637102127075,0.8237002789974213 -1.5785910189151764,2.723514139652252 l-10.278463363647461,13.450413942337036 " fill="none" stroke="black" stroke-width="1" /></svg>