<?xml version="1.0" encoding="utf-8" ?>
<svg baseProfile="full" height="106.44008968025446" version="1.1" width="109.49251523241401" xmlns="http://www.w3.org/2000/svg" xmlns:ev="http://www.w3.org/2001/xml-events" xmlns:xlink="http://www.w3.org/1999/xlink"><defs /><rect fill="white" height="106.44008968025446" width="109.49251523241401" x="0" y="0" /><path d="M25.000000298023224,25 m0.0,0.0 m41.270084381103516,1.4440138638019562 l-0.12524530291557312,0.5799585953354836 -0.8206193894147873,1.0582295805215836 l-1.1100902408361435,0.753505602478981 -7.081867456436157,3.7104132771492004 l-6.963909864425659,2.640489637851715 -8.200770616531372,2.3922021687030792 m-2.8608128428459167,0.49284622073173523 l0.6748247146606445,2.402540445327759 -0.5326950550079346,9.77828562259674 l-0.9613721072673798,7.552003264427185 -1.74224853515625,7.307953238487244 l-2.154422551393509,5.4457128047943115 -2.1588289737701416,3.739394247531891 l-3.7231242656707764,4.389517307281494 -3.5089021921157837,2.7530238032341003 m28.157992362976074,-44.40632343292236 l0.7062207907438278,1.146697849035263 0.28646260499954224,1.8242765963077545 l-0.18742306157946587,34.16815519332886 m-11.302244663238525,2.3469510674476624 l1.7537732422351837,0.7851982116699219 1.172458752989769,-0.028620839584618807 l19.46200132369995,-5.539435148239136 m-2.763192653656006,-7.223891615867615 l1.7530952394008636,2.234077900648117 2.2167909145355225,3.837692439556122 l1.8247850239276886,4.123773872852325 0.8279917389154434,2.9103007912635803 m-5.5046916007995605,-42.41053581237793 l0.5769079551100731,0.8494309335947037 0.661817193031311,1.89918652176857 l4.823384582996368,16.582545042037964 3.916330635547638,9.835230112075806 l2.5049060583114624,4.864737689495087 3.0038535594940186,4.7586435079574585 l2.5642237067222595,2.9767367243766785 3.0370715260505676,2.574392557144165 " fill="none" stroke="black" stroke-width="1" /></svg>