<?xml version="1.0" encoding="utf-8" ?>
<svg baseProfile="full" height="101.39012579488146" version="1.1" width="111.2182245787544" xmlns="http://www.w3.org/2000/svg" xmlns:ev="http://www.w3.org/2001/xml-events" xmlns:xlink="http://www.w3.org/1999/xlink"><defs /><rect fill="white" height="101.39012579488146" width="111.2182245787544" x="0" y="0" /><path d="M25,25 m0.0,0.0 m6.084418345497363,21.365737154152384 l0.40042004064610676,0.44353799485733875 0.49314462499079964,1.1750695677610505 l0.22510466617315372,1.5070057547980011 0.00207533423070453,26.478330499474037 m0.3980848710921575,-28.40352977698122 l15.193121612359175,-2.014152983595586 1.3908096608715685,0.304900615687415 l0.7375882373084675,0.9014410803925522 0.20268323850742193,1.3225767211793351 l-0.069445407006615,26.71202548081095 -0.24145838512826964,1.1318001038988295 l-0.4983993956246158,0.4653835824463697 -0.6640966875259038,-0.10966403994812808 l-1.5050497621209031,-1.2401251419659631 -1.2998792145686346,-1.5063392099692856 m-6.6450590129051,-34.067740711472645 l0.7336250286654792,2.2618177238190675 -0.0158488216471801,21.195351021480832 m19.255203637475738,-34.67884865299849 l0.5562339412135755,1.6585499609885572 0.055153341008454836,7.456563618215132 l-0.035453508649970676,6.2966009383399495 -0.5222045694417299,6.68602552465921 l-0.7769128097271808,4.84269900121259 -2.8386764625841763,8.262252120632763 l-2.1787457995213924,3.269142801097055 -2.5662569236214474,2.737092354626206 m9.18055163851409,-41.934497916336895 l12.907755490931635,-2.252554400538974 0.7143877945657484,0.025501655826586266 l0.786259965647586,0.7144503589154901 0.14428683642492462,40.41415181900328 l0.1894352865169827,2.311591933689879 0.127916234889145,1.2783135403311707 l0.333116069741557,1.3557225240031412 1.1480848997137711,1.4954419057411332 l2.131685070096364,0.6145845023290364 3.8986761351606263,-0.03754221544985666 l2.2024898676416957,-0.49809239909084774 0.8462008965957142,-0.6373120374826071 l0.48151552878746173,-0.9941364182784649 0.2556830435600647,-3.7564963839364487 m-22.103992304329783,-20.726317598613576 l2.849987171601685,3.189496453569776 1.3473710964759635,2.269724467642703 " fill="none" stroke="black" stroke-width="1" /></svg>