<?xml version="1.0" encoding="utf-8" ?>
<svg baseProfile="full" height="114.98596738834483" version="1.1" width="98.96218923667828" xmlns="http://www.w3.org/2000/svg" xmlns:ev="http://www.w3.org/2001/xml-events" xmlns:xlink="http://www.w3.org/1999/xlink"><defs /><rect fill="white" height="114.98596738834483" width="98.96218923667828" x="0" y="0" /><path d="M25,25 m0.0,0.0 m14.788188627464747,15.404922740512758 l0.4418837211344712,0.10829736519642624 2.878585659793719,0.10773244873836384 l24.974032799859476,-2.221065665338605 3.388337046231247,-0.15426850725158406 l2.49116138219462,0.24158040200900335 m-18.25402192425101,-4.944791529906811 l0.7591274429584292,0.7907436847524543 0.30944776292640447,1.163319957623439 l-0.1300153112242928,9.825415360807966 m-13.408420215225489,1.2560538191884962 l2.57678300207822,0.09305755876788013 19.69775078338653,-1.6365577639696178 l3.928387683447531,-0.151945748127002 m-28.100400707252295,6.067002038163469 l0.9212056548062825,3.4092701182991685 1.4137609811475256,8.524181590484146 m-1.472714472287033,-11.13452969892478 l13.210715385164352,-1.8370561847558855 3.121656683404681,-1.4753240054782346 l1.4383108876115138,0.06835227138914053 0.38595164290538053,0.4695793883743878 l0.16368773767963268,0.9688460302427768 -1.676058823099182,11.502654959405994 m-16.229258129635745,-5.559524475074431 l11.976403033934213,-1.3266492241074137 m-11.001351707636902,6.972754040303862 l15.214324425937484,-1.4832521079787866 m-18.543191047871723,2.839625215337021 l-0.23002565371591796,1.4796693819259883 -0.7269707145006018,1.3458497491637285 l-1.455605364681225,2.1503959908568917 -1.7897718603487183,2.1596711759568614 l-3.650328024295756,3.4256620177324435 -4.364631509796817,3.121643837081989 m11.310143985980575,-9.253502170163364 l2.158587914172391,0.2631821458450955 19.545134006781755,-2.013841423851087 l0.9977471405423555,0.10941461369814826 0.8289244046509517,0.5742799045342981 l0.2825710736038048,1.0374022416590143 -0.009904576952838473,7.131747951693038 l-0.6746412049487261,6.469218999823914 -1.0455958072074194,5.541789465790323 l-0.9669889512045465,2.5372657307500823 -1.0376796337287082,1.0176936971638686 l-1.1340562262241805,-0.1443791073042557 -1.5415198713236622,-1.7118949030089272 m-6.045690275860109,-16.310717044969778 l-0.050069478229595454,0.7973534014081977 -0.5490163180762825,1.1436421083430628 l-2.187870280563778,3.1988896818293098 -2.391177910583893,2.341076508775127 l-3.0095543962049756,2.189050656809209 m7.880844652988969,-5.580495036913657 l1.3898791481179555,0.7326960760037294 1.7912047378636298,1.3204526438745927 l1.5077537198388085,1.5829815852134266 0.8159924270837099,1.2775969995569747 m-16.4957522679019,-7.594494960766824 l0.557480679899603,0.7533283023533517 0.30866531352309107,0.9304275669148105 l-0.2472572687944291,8.105403344421989 0.2349706201572977,1.0074496156656976 l0.35746723401547364,0.13261390358593425 16.038263579721836,-1.0890220808677975 l2.45974483698692,0.2201516445222676 " fill="none" stroke="black" stroke-width="1" /></svg>