<?xml version="1.0" encoding="utf-8" ?>
<svg baseProfile="full" height="104.03600101582026" version="1.1" width="100.33549091502772" xmlns="http://www.w3.org/2000/svg" xmlns:ev="http://www.w3.org/2001/xml-events" xmlns:xlink="http://www.w3.org/1999/xlink"><defs /><rect fill="white" height="104.03600101582026" width="100.33549091502772" x="0" y="0" /><path d="M25,28.028343250750947 m0.0,0.0 m13.92407444843289,4.73032409851772 l0.46986576876496533,0.1643512512318431 2.4928152951979308,0.13755610258404852 l11.139810435874852,-2.149879499695214 1.8192917922012013,0.08920144964819376 l0.41708134774789407,0.4066571698888043 0.16371868679992688,0.6637668888089813 l-0.276520036765275,1.996481703646504 -0.9176224203351908,4.5161403868071295 l-1.0730452154899088,4.060228645182038 -1.469884194247332,3.747285171795379 l-0.8230822848916408,1.6854229076676859 -0.7265854373379865,0.8136467199690545 l-0.6003061607657355,0.10043402702983248 -0.5250871121115275,-0.2892919955374184 l-0.9889351068561703,-1.4333894769879574 m-1.177163056051244,-22.267278801307565 l0.2793672070083909,2.470911389962491 -0.5710354524817496,4.618694160316588 l-2.2110247222300328,8.60790859426806 -1.4428552776470576,3.570516145911456 l-1.792675883340911,3.3186630729872295 -2.19254638657632,3.1178507814769945 l-1.7981034855358562,2.052259999620681 m23.206371835818917,-21.902348886406354 l0.6282986407481796,0.9615281617947022 0.39893210210931507,1.7720485833373762 l1.5245716437580192,12.20674937728227 m-1.4004382053030873,-14.046030215527784 l11.48545386958947,-1.9316296787148082 1.318979311866532,0.08534373745749928 l0.7266136154705807,0.9504454457629602 0.025704645025797005,0.7767042455993073 l-0.12030400566007461,9.974942391109606 m-11.059203198635645,2.3275272786818344 l11.480957910875617,-1.552906553830709 m-28.958971326371714,11.220180708123856 l0.4761476842448566,1.0630860028372398 0.20239773347035356,1.271528504970107 l0.07348551277507269,23.10202776879966 m0.5180469349605495,-24.82882612701081 l18.523603158842413,-2.385832923608291 1.428870654389465,0.03731612913851707 l0.8687257248604805,0.6240672745145692 0.39690330575519284,1.4598092935708735 l0.0586093348310117,2.1530443470260376 -0.10635162455505104,22.188684132480105 m-20.811615860263476,-15.982327730704501 l11.977594461030966,-1.6741486722742052 m-12.214263952616493,9.543693785352133 l12.26051684135203,-1.541706146643963 m-12.636775671623756,9.296087607744315 l20.38377540133205,-1.7003684061982067 " fill="none" stroke="black" stroke-width="1" /></svg>