<?xml version="1.0" encoding="utf-8" ?>
<svg baseProfile="full" height="115.54629339221108" version="1.1" width="98.08845679277478" xmlns="http://www.w3.org/2000/svg" xmlns:ev="http://www.w3.org/2001/xml-events" xmlns:xlink="http://www.w3.org/1999/xlink"><defs /><rect fill="white" height="115.54629339221108" width="98.08845679277478" x="0" y="0" /><path d="M25,25 m0.0,0.0 m3.9845125699735964,17.081789835148182 l0.36226678175799537,0.1343281945486598 2.455243898682801,0.06137679122398222 l11.07326808410066,-1.7858821345824145 2.6090178928118655,-0.2068904834761215 m-8.64005706225155,16.97339473359288 l4.613634703089586,1.3267563593137688 1.6955019086113958,1.242338978637536 l0.5441670130694021,0.7845410338544214 0.2751434096057253,1.205076927709099 m-12.731540965968206,17.74059307598733 l0.4974354838641686,0.49524133393891046 0.9698007932911551,-0.10571296383758243 l10.99103090835491,-7.480241016936071 m0.3019365088931225,-28.54714965211553 l1.9234563472279045,0.5983817468976088 1.7110270472811058,0.04809820910585709 l12.617834732859246,-1.5810239019918284 10.662704850980536,-0.8738896583710298 l2.1720718865393542,0.3768819569628808 m-16.85338706812419,-11.784529592702127 l0.18982521874797426,0.9750602984071952 -0.03953596216232718,1.0388106646341861 l-2.0798383330820416,8.184523024980114 -2.237204285541242,11.434857006070084 l-1.712349001940286,6.854137191893363 -2.042522465163761,6.484403522030876 l-4.872774653421451,11.396838034005112 -2.788424217678681,4.334899574808937 m11.904662398216152,-24.180672440011186 l1.3797212731185415,0.13253956684528012 10.571783328531636,-0.5982161485178702 l0.7610327499129196,0.6938243511723792 0.25170007039846315,0.6474745416333425 l0.028957538551366378,0.7641709448029408 -1.7073310628473204,0.826190675128232 l-4.945850317772982,3.5733175475187893 m-5.54976845495957,0.2776246070262926 l0.48921441124181214,1.7414957745920867 -0.5456486065611985,5.3651136817366485 l-0.8462429022781182,4.480451437601589 -1.3329892848100144,4.491410410491786 l-1.4455847426270743,3.449768522213189 -1.3435682842493737,2.4339572307568567 l-2.099794323213537,2.946024285665119 -1.8555973215184276,1.9495708886732481 m12.211784955698521,-22.56551460266457 l3.4423030223285327,7.704886482658322 4.208972240675616,8.138797111993313 l3.296643313776643,5.394866339675236 1.8144150147036233,1.4722030934817716 m-7.2740717289784715,-35.8098248269482 l2.478647365945087,2.54539471512261 1.456182639239644,2.402068145002819 " fill="none" stroke="black" stroke-width="1" /></svg>