<?xml version="1.0" encoding="utf-8" ?>
<svg baseProfile="full" height="117.7762060786304" version="1.1" width="103.97610481189466" xmlns="http://www.w3.org/2000/svg" xmlns:ev="http://www.w3.org/2001/xml-events" xmlns:xlink="http://www.w3.org/1999/xlink"><defs /><rect fill="white" height="117.7762060786304" width="103.97610481189466" x="0" y="0" /><path d="M28.487787212545587,25 m0.0,0.0 m9.828445473883614,7.535528853479723 l0.3995653868822805,0.3657468146475668 0.4995259065029595,0.9184060845487058 l0.1682375435362513,1.6233755175126003 -0.07686761004636479,7.158476727954146 m-13.095830731585595,1.8731259612284097 l3.59784993968481,0.06619506239021974 16.784597687425176,-2.4318205406728577 l2.948511389470532,-0.18156057994938932 2.2661024479725045,0.17442298154860988 m-20.18934907181504,9.593228045240874 l0.6014609267224275,2.03581168435034 1.6637336158521565,3.958458941048165 m11.867158674087435,-8.157022998910115 l-0.171122532142763,2.0297708911519514 -3.6221412762567162,6.7725052225471725 m-16.520498749335236,4.218623067673459 l2.991848352481857,0.16864365137176004 17.162182820669628,-2.3238528297938656 l4.938033941074697,-0.36044359277668786 m-24.502958096436096,10.734912630591346 l2.9721708099980995,0.20072542925366632 15.249333978804472,-2.32493717213135 l3.726720492870042,-0.3649017488965878 2.0028989262082884,0.10092735059138395 m-11.744388961558853,-6.493157189146322 l0.8432841902677919,0.9751111744368118 0.33730598823881575,1.7790409398356144 l-0.18466039805274623,28.13086569950504 m-0.9065751493143993,-22.999072572397985 l-0.2120797244908742,1.2587576906297298 -0.8585543832901272,1.9421666306532241 l-3.9039127438251287,6.193813524913516 -4.209682124422584,4.869864150935957 l-4.138134152606898,3.4816314441724794 m16.702866907522868,-13.688196152071871 l3.5301974747016294,2.9644659463118943 2.638390688871675,3.174692359880467 m21.389438711491593,-39.68912331527257 l-0.7972381900297076,2.1305005724005577 -3.5923316947033994,3.460285816148841 l-4.154208545893917,3.092222214458812 -5.656339116359997,3.536626138480135 m-1.639639123557649,-0.19505066555863668 l0.8403668870583888,1.4655168134339047 0.1575703350363069,1.294676778287226 l-0.21504105167003484,12.265987961217464 -0.6796365253639383,7.459416280602092 l-0.7013430419748947,3.726126914506105 -0.9997680735442811,3.104051224392903 l-1.312439432408639,2.5789714604787397 m5.5758891794211145,-25.87457412038976 l20.28898966680207,-2.605509239634546 2.600379756495479,-0.004650405895857035 m-11.15235509025561,3.140371384217059 l0.8538810571047657,1.3890208789357699 0.16278921283177486,1.0885439874600147 l0.06639731759173273,30.28109521712412 " fill="none" stroke="black" stroke-width="1" /></svg>