<?xml version="1.0" encoding="utf-8" ?>
<svg baseProfile="full" height="109.7481860583149" version="1.1" width="101.93169623967528" xmlns="http://www.w3.org/2000/svg" xmlns:ev="http://www.w3.org/2001/xml-events" xmlns:xlink="http://www.w3.org/1999/xlink"><defs /><rect fill="white" height="109.7481860583149" width="101.93169623967528" x="0" y="0" /><path d="M25,25 m0.0,0.0 m31.903489453526372,14.080258949728952 l0.3586148359426623,0.18563627214454195 2.1049741164949034,2.089768389134213 l1.2174078809976245,2.416920335002061 m-18.481111494923663,3.714907168668914 l2.9274376447087795,0.3077486970524172 29.197079635842755,-2.22210167315856 l2.703804167085842,0.30039869196523006 m-33.174268819924244,2.9052816258125933 l-0.16023751455415464,10.220081310750873 -0.3904728932949417,5.345419210498316 l-0.676729513188616,4.886769760650445 -0.7209405708911866,3.3868241500108898 l-1.3103200419858891,4.194242635049419 -1.8051408878478408,3.9995804934778842 l-2.2324733211516388,3.936450041526703 m-0.99893026732515,-31.109563436687225 l1.1337330408464104,0.920540015953745 1.5507967859203882,1.7745495264841984 l1.3383795536487746,2.53982949007882 m-5.991643444917707,9.682890137220573 l1.3017284015821555,0.14560381381418375 6.770829691636653,-4.932828511021605 m7.7816103369673755,-10.967699951635996 l1.8282093508034514,0.16695705110474088 8.971774300253049,-1.077170465689749 l9.675659751720644,-0.7740064045501918 3.036368713709461,-0.09187544260949712 m-12.877078872663935,2.1365949179214794 l-0.019262877772820364,1.3201685094916875 -0.6145496041758937,1.356121391986303 l-1.52429098531675,2.259265173826183 -1.9258955633137003,2.2283286598249408 l-4.3681878228386495,3.8603064182268887 -2.6127675172111013,3.2347039320968163 l-4.799824255610602,5.815039459241564 m9.37455354854882,-7.991839414643984 l0.4493150571914152,0.9256305331534798 1.5417575946928381,12.881670482921303 m-1.2577488082553374,-13.079264455640223 l13.951373919619234,-1.5680933987036776 1.7354709395377468,-0.037525985773214525 l0.5491956852335875,0.2834663307715858 0.39220181941724774,1.4626919589020364 l-1.6559800410139272,10.095444749057997 m-13.080093324907658,1.4430877538961167 l14.340536235253628,-1.1120324780017594 " fill="none" stroke="black" stroke-width="1" /></svg>