<?xml version="1.0" encoding="utf-8" ?>
<svg baseProfile="full" height="112.23438984146088" version="1.1" width="105.73635426395765" xmlns="http://www.w3.org/2000/svg" xmlns:ev="http://www.w3.org/2001/xml-events" xmlns:xlink="http://www.w3.org/1999/xlink"><defs /><rect fill="white" height="112.23438984146088" width="105.73635426395765" x="0" y="0" /><path d="M31.80015357349992,25 m0.0,0.0 m7.7507161430579945,11.181134219253316 l0.41833305647521835,0.32811197286028665 0.41625397745976495,3.113527929510899 l-1.0837414453772103,7.374498034313459 -1.4253193919156921,5.7859021962679975 l-1.813446356550338,5.281053074103156 -2.187409952167719,0.7148777404820703 l-1.5637296403466652,-0.0784069442868703 -2.2180748199463896,0.00781554093819161 m-5.093735144188885,-15.91207325048773 l1.6913936310348534,0.18296979585984202 9.28899661946821,-1.040807010912314 l0.7846832962828506,0.09725236660897671 0.45678086395947903,0.30982333096962245 l0.0810847842425094,0.5213599575659486 -0.5657097069776155,9.229591113325105 l0.41228673638476826,1.7639695783373268 0.5740961978342879,0.6198217851866809 l0.9248274395892244,0.27679345743216244 3.2158722063295953,-0.9025721367757542 l5.917628234899757,-1.8979491740219485 m3.025388292146628,11.035993221940844 l-0.15024901747925803,2.370198042682672 -3.3170163109359305,3.128166145915021 l-5.04316706909097,2.860124212883476 -4.631791223854225,1.6455673572448295 m31.90224958736784,-20.113122962393874 l-0.35634595202224234,1.0292072034172675 -3.308230498076007,1.6528152633322024 l-3.9279105460185804,1.5136250108140652 -4.073652263528801,1.2289366131791506 m-1.1797268241041996,0.30972896720973286 l3.935527640407135,1.3659383971028256 14.55723252470229,6.2103929300653515 l3.060657827668881,0.7333157887880735 m-41.901445055494605,5.7838635272106815 l2.410192365342998,0.15780965783823114 30.914429436413602,-1.5526429605291203 l2.19577074763898,0.13922748914775487 1.6248937849975558,0.27105266859909233 m-19.949359165493348,7.197885529261884 l5.66251036722199,-0.5970510935560305 5.90019441484612,-0.07781731891994703 l3.0896001182276858,0.17567470053075562 0.9396840954354325,0.24327588977704895 m-26.641199873694113,8.382445888434354 l2.876042800015909,0.18308609495410044 15.785066667886309,-1.669850380853967 l10.895203774343074,-0.7340790055497528 6.097658456603893,-0.12924858805768966 l2.562204859435677,0.2971421884766597 m-20.600392902054676,-14.955052063625049 l0.5759131803455851,0.7383773795184169 0.20165255106622704,0.8617408449793547 l0.014985901062809793,13.77502001754286 " fill="none" stroke="black" stroke-width="1" /></svg>