<?xml version="1.0" encoding="utf-8" ?>
<svg baseProfile="full" height="108.57772574695773" version="1.1" width="95.09975394705515" xmlns="http://www.w3.org/2000/svg" xmlns:ev="http://www.w3.org/2001/xml-events" xmlns:xlink="http://www.w3.org/1999/xlink"><defs /><rect fill="white" height="108.57772574695773" width="95.09975394705515" x="0" y="0" /><path d="M25,25 m0.0,0.0 m16.0829243423388,2.7957514164311514 l0.411546461561893,0.16122260301644134 2.2694990129307335,0.11095681840663539 l19.425962227580936,-2.689815496432059 2.8349088982819057,-0.19629770091310064 l1.8411160736496917,0.31080051073127357 m-27.56963489753098,14.030792810741072 l1.5347092998784801,0.403426675110997 1.8146344953772253,-0.0762198662314792 l21.145175902206347,-2.7593159484999563 0.45684405426861463,0.5227890909752403 l0.08230959883274909,1.3264129745087712 -1.5485105343455614,6.886663831645374 m-22.00099404909987,3.7421467655940734 l19.56850686556628,-2.871993176950094 3.1542527287654196,-0.19950761614745363 m-23.92032248446392,-7.870436962163235 l0.3910811185631409,1.0105665860191178 0.12972418672220698,1.2973249805882359 l-0.15741631400342312,7.959578336840325 -0.5950542504891363,7.778372803908427 l-0.9927239098148392,6.743286032990665 -1.173808197404062,5.175416145662816 l-1.4993732105587358,4.573863436102967 -1.8281585836556569,3.962935318439856 l-2.30276358452065,3.3954139685318565 m10.104936471140812,-18.276381370931613 l0.5337470497768748,0.24860873101842462 1.2537651115280528,0.09843735827759924 l19.830947385879522,-1.6286092156335625 1.7033298981438594,0.2104769892094103 m-13.277305611905074,-9.842031722795431 l0.45149875593595723,0.8752506549725151 0.20765810728913994,1.6253994380334351 l-0.05965559339656961,17.328472381480566 m-8.927276820049283,1.5242452495950845 l2.6194181526525684,0.1728336730558123 12.807187917112822,-1.3928292213218654 l2.0360267194538437,-0.09532926475054926 m-23.64105437536347,11.775635640875823 l3.5545060885235467,0.4294120869641558 12.363118582682821,-1.429991266609111 l9.966101994118981,-0.7391416187079969 3.395391425137624,0.1080447325476002 l2.6229774377555453,0.5026807024750405 " fill="none" stroke="black" stroke-width="1" /></svg>