<?xml version="1.0" encoding="utf-8" ?>
<svg baseProfile="full" height="103.48469973148204" version="1.1" width="101.30819982594622" xmlns="http://www.w3.org/2000/svg" xmlns:ev="http://www.w3.org/2001/xml-events" xmlns:xlink="http://www.w3.org/1999/xlink"><defs /><rect fill="white" height="103.48469973148204" width="101.30819982594622" x="0" y="0" /><path d="M25,25 m0.0,0.0 m15.193280793228276,3.045855138860504 l0.4484069176384909,0.1887182511683135 2.672444547535905,0.19044418858415713 l22.967372441250088,-2.7951475284121186 3.2709292811113997,-0.14686804018324648 l2.1346771382127248,0.35388951261734597 m-32.1238448623436,3.108194817838245 l0.5181726449579199,1.0207050333538559 0.1418266921604923,1.3007771740552923 l-0.1552837907054865,8.680125797400317 -0.5083135356302412,8.127495490792588 l-1.0253424342478876,7.946198350816158 -1.2634623551731163,6.142854350236413 l-1.2719324096763933,4.539252750895114 -2.1985952300805636,5.566062974446481 l-2.091631978224157,3.8203194360991497 m14.940332318781198,-35.62760273085857 l1.1795763169068767,0.3078752301516324 1.9076295455521992,-0.02446467747248448 l13.811499789307101,-2.569290898434885 1.8203521877435298,-0.05619698685262074 l1.5095415065798647,0.27066953621078627 m-25.381590959089053,12.27141395312862 l2.468154485663689,0.3371824023278528 10.198908400755794,-1.7051759871256504 l9.39938130398925,-1.2292769422424197 8.108229346727658,-0.7140122930009213 l2.6258222412771994,0.2497963991630979 m-26.964549233428063,5.172521657582141 l0.4757366366227815,0.8046627419099361 0.29046325353569397,1.750407274114562 l0.04628110238331759,22.40467101036913 0.5072350752936909,0.7526423439432548 l1.4138429129843284,-0.09187860847995909 7.634170726283466,-7.934323183209537 m8.897855910716537,-17.510504672759904 l-0.08689042460457266,1.1005434957984446 -1.0270596839869413,1.7323124594354022 l-1.7761782728428028,2.0523969233853046 -2.655827685967198,2.393512286530481 m-9.404231669470061,-4.649249723677105 l1.810815345347333,1.111371660251026 2.931098043098177,2.626926076948438 l13.13406775126517,12.442873442299204 3.9564615122269577,3.150347135852903 l2.8283681822792626,1.6954311798654638 " fill="none" stroke="black" stroke-width="1" /></svg>