<?xml version="1.0" encoding="utf-8" ?>
<svg baseProfile="full" height="118.12867149560999" version="1.1" width="114.17928282739668" xmlns="http://www.w3.org/2000/svg" xmlns:ev="http://www.w3.org/2001/xml-events" xmlns:xlink="http://www.w3.org/1999/xlink"><defs /><rect fill="white" height="118.12867149560999" width="114.17928282739668" x="0" y="0" /><path d="M25,28.063397778907685 m0.0,0.0 m12.5673401483279,4.3831095535999305 l0.45255925495051147,0.16227572035254315 2.3434694800833165,0.12542891532664754 l9.584498354287232,-2.118528747499814 1.5607957183769083,0.04709470540438092 l0.40897846771787716,0.3604981032565756 0.0716248853642621,0.6144622909379119 l-0.9688771635365079,0.849355588643458 -4.616454701308263,7.051007187104686 m-0.5348406684686391,0.8550624677480153 l2.2030636095252087,3.1358844258839844 1.3899315404323804,3.8798118526105445 l0.5695584068363247,3.1916977185402273 -0.2796278973294558,7.839621960930218 l-0.911579526338854,3.200656004725564 -1.0879816704906782,1.6241259607693015 l-0.7036301189188119,0.3240459587827386 -1.2011516185567104,-0.1466141559687658 l-1.1992508248657059,-0.8946565856387765 m-6.400338699327102,-10.545206990215343 l1.1002781353976558,0.2888953631911409 1.2623785126696274,-0.46995266063394964 l14.379207257971933,-9.458387827905929 m13.443365574653194,-17.363084588852974 l0.1889232601762926,1.3906992043520687 -0.3578698044578906,1.885228703648744 l-1.4231319234466469,15.500277158226808 -0.9489174572578487,4.3393331359118665 l-1.390102088869306,3.766467091666285 -1.9860208735640656,3.5188297513166753 l-2.694757623413176,3.3800624369781076 -3.130867734125307,3.275076590279056 m2.7387574975847855,-20.697594807303467 l1.5597983840680365,0.12567998931540322 1.9813169560938564,-0.18745910493901483 l14.768147358816753,-4.5765985208739846 1.0756783675250088,0.4971002552674124 l0.15469253180616638,0.7537850387771596 -2.5815074556810123,14.81376624713514 l0.051586257043237174,4.086073516563262 0.6631949141362317,1.7775384749016327 l1.3676534407201912,1.1875772062191432 1.9605926126306294,0.5066609550459176 l3.638680146076015,0.0735893984751881 2.8687111864104344,-0.3504604632973297 l1.0433588190172904,-0.5051097545509166 0.6467707196698215,-0.8236182526688283 l0.3816313199548766,-1.1645234446459107 0.1696475590286863,-1.573931622646532 m-46.66339087098694,17.592045138755097 l1.8140088381679638,0.35386930026946883 2.449076739302631,0.021308709887326808 l16.631376080156446,-1.9753950009978416 14.736006396835851,-1.387654739737308 l5.619303712749143,-0.20470798406371032 2.8047817442154486,0.3621547124912395 m-22.361672716692446,-6.1428346161902 l0.5737882869713633,0.9709031803542102 0.2673655247268397,1.7277407113933954 l0.023994085857520855,25.812792900294436 m-2.287290166391068,-21.57597937571356 l-0.6063377568810234,1.9068777929475191 -1.4764731527783075,2.017047629876428 l-3.2577241399417267,3.997630303516233 -3.5479305865070296,3.7503219897444495 l-5.534925326735035,4.6873104710041975 -6.041803000060617,3.6108850644282406 m23.671088959542097,-19.80422125989609 l15.034859090108307,13.030608714840756 3.527377792799638,2.7677033922291163 l3.6433654186454776,2.0825239767904526 " fill="none" stroke="black" stroke-width="1" /></svg>