<?xml version="1.0" encoding="utf-8" ?>
<svg baseProfile="full" height="95.69240483973866" version="1.1" width="105.63533384849173" xmlns="http://www.w3.org/2000/svg" xmlns:ev="http://www.w3.org/2001/xml-events" xmlns:xlink="http://www.w3.org/1999/xlink"><defs /><rect fill="white" height="95.69240483973866" width="105.63533384849173" x="0" y="0" /><path d="M25,25 m0.0,0.0 m6.621391335985495,16.417864023658318 l0.3228322949512472,0.4164825818505404 0.8310891353034002,1.455820733254834 l1.5324146848607474,12.135203226408557 m-1.2019147393267626,-13.426314635939216 l13.888239689242313,-1.9050689732464579 1.403739550062113,-0.05754578806056361 l1.2639644111434938,0.24237700085769628 0.7095373624266985,0.8838278527707766 l0.029051941229850862,0.7020519494392186 -2.092813312387946,9.78716246624793 m-13.593854834881197,1.8427560357449315 l15.207684445743352,-1.4565994900943937 m-9.366077995832974,-22.09791083838591 l0.5693382049938498,0.7228998284795993 0.2710479974748851,1.421143161114445 l0.032318688207747845,31.574143866772854 m-9.713145654517751,4.094424517568623 l1.0776716784100395,0.49395116118556515 1.2335898305138109,-0.25753464023377765 l14.900261513069896,-7.394178038269976 m-2.3886335048483573,-4.681414451676578 l1.7603774293407852,1.7847731391896218 1.8079665913391374,2.4950009340651613 l1.4078399863213915,2.5538769347089207 0.6294350054632436,2.0375117207210014 m4.033701370337796,-34.816652385499914 l2.983421404798633,0.4405501446165247 16.29076119847623,-1.6416508829802745 l3.2614457717823724,0.1725613732079257 1.922652368808192,0.34224352709486194 m-13.251957225193264,2.5781975664044774 l0.734782203519407,1.2821236489221604 0.20564570533391655,1.7396381579932485 l-0.10294022022650806,34.496747515484614 -0.2674611799809451,0.9269581627879737 l-0.41903494963302296,0.3857029782079118 -0.5525978979646904,0.0012807553674387684 l-1.2960597087237795,-0.8697368133099104 -1.951096674453109,-2.023899370331626 " fill="none" stroke="black" stroke-width="1" /></svg>