<?xml version="1.0" encoding="utf-8" ?>
<svg baseProfile="full" height="104.49919860094761" version="1.1" width="111.04574353640642" xmlns="http://www.w3.org/2000/svg" xmlns:ev="http://www.w3.org/2001/xml-events" xmlns:xlink="http://www.w3.org/1999/xlink"><defs /><rect fill="white" height="104.49919860094761" width="111.04574353640642" x="0" y="0" /><path d="M25,25 m0.0,0.0 m11.207737863354287,13.548262890839066 l0.4419399382699081,0.12215800248682372 3.11144355553873,0.14304255432005172 l25.913185962935465,-2.2403462730325265 4.233187256325861,-0.09964966335491876 l2.7979932688994023,0.29601081435012117 m-27.948063080277656,-4.9474536395835695 l0.8450908651987066,0.8120997667612607 0.32137902029181187,1.0133437299162602 l0.6500060927964177,21.746027884579426 m15.620147812176244,-25.757647887673734 l0.690855101976382,0.7282463501410711 0.3272270227349231,1.199673005787169 l-1.3048657859542372,22.790881488834984 m-14.91463040090987,-10.489422631371458 l9.976879309566556,-1.317848538375866 m-9.878585067665965,7.526154470447269 l9.755956173076934,-1.0214359706761937 m-24.465006083134757,8.217768630054392 l3.342531663185565,0.30309928018421284 18.72544445510102,-3.0932721052038814 l14.16995825628199,-1.5671974877864308 6.554201522213924,-0.2943927519625551 l2.62851845471178,0.2755867071706671 m-31.245672292754165,2.9659337844049682 l0.10731423614087253,1.5391462146719541 -0.7020102484385138,3.5855692481374235 l-1.1346928860201015,3.173787361416743 -1.7849556370218225,3.2475401967639566 l-3.4843715959060004,3.9673197983342816 -4.35526051855809,1.4528183279250897 m24.173912380402545,-16.50558125337292 l4.644100744304378,2.0574810741715 13.95439785425991,8.56435244085278 l5.060588996390538,1.4482811789740857 3.0098593269134404,0.4384491666506328 m-38.64772509097169,-0.21067345795347142 l1.8370151974577713,0.2716417452666635 17.48094979426788,-1.804462618842169 l2.9163083511786723,0.17298847551212515 m-11.783799527005257,-7.758936733337755 l0.7003307983845208,0.8379508412986293 0.20715715137536317,0.8603041952939163 l-0.08671409264715213,16.852245079015994 m-19.050337289737193,1.1706344475268653 l2.59126753748311,0.278720461384671 30.49812068317463,-2.0223310364537594 l4.726583155780917,-0.2170350581984821 1.831498017133219,0.2806582808999525 " fill="none" stroke="black" stroke-width="1" /></svg>