<?xml version="1.0" encoding="utf-8" ?>
<svg baseProfile="full" height="120.92322891105283" version="1.1" width="103.20284808759942" xmlns="http://www.w3.org/2000/svg" xmlns:ev="http://www.w3.org/2001/xml-events" xmlns:xlink="http://www.w3.org/1999/xlink"><defs /><rect fill="white" height="120.92322891105283" width="103.20284808759942" x="0" y="0" /><path d="M25,25 m0.0,0.0 m29.55071126044873,2.599479548606643 l0.3708990258292145,0.24745000642536463 2.197933242707096,2.5679160994601284 l1.5332828711360713,2.7176609124532707 m-21.314208993622636,4.946793546052257 l3.424113889601317,0.3683870422572008 32.070009136711214,-2.9875175346869 l2.894879560485422,-0.1686667624845312 2.1125836314743807,0.38669105418264826 m-36.6078531867401,3.3388695069236705 l-0.35452768182264727,15.360252537189028 -0.5595198837804591,6.698352980238177 l-0.9013683450077109,6.126969472444852 -0.9421943494897955,4.110666260020036 l-1.668981018954247,5.140524541384573 -2.208215967035146,4.910968695241949 l-2.797053439384567,4.882999400693746 m-1.0174385031643087,-40.77850040646853 l1.4495391387299654,1.4037269945097568 1.802184203868626,2.3819618339729685 l1.48037496358922,2.518867617150111 0.5870920582587188,1.6210326179650683 m-6.802563209555814,13.845478934371759 l0.5443122192188986,0.2539680118187502 0.9020041096476276,-0.14307089435843345 l7.497691914761699,-6.45867194021329 m10.12308350375064,-16.517814894677713 l2.5263399894968654,2.6527109472516073 1.8996828716265035,3.1359646517289623 m13.819426258756744,-7.777828099713589 l-0.10999912776870861,1.6886152626032163 -0.9711001928828279,2.670872120943195 l-1.3588716202760176,2.611827885298213 -1.3403922413164249,1.8976307690507332 m-17.439268232062037,3.699139599579649 l3.467609371934607,0.20857291104745915 18.053026419672616,-2.1969769234130747 l5.176484239817462,0.22774838867479852 m-26.441850668763685,12.775992084450296 l4.04545280824536,0.1941971533136872 19.828490460875216,-1.8717224089222666 l2.823171897712682,0.2083248011531558 m-31.381367855998974,13.274411919864283 l1.7104725488521506,0.45316887675442286 2.4265217759118745,-0.012602648457009117 l27.39742232847341,-2.729473619817754 3.40893142620338,0.008531539648682486 l2.2958954774278295,0.3803896942798388 m-20.755696432961983,-19.228641822838675 l0.6438062232214947,0.9122267820441865 0.34737487878695533,1.722653634594773 l-0.12460997347636613,36.64272023146149 " fill="none" stroke="black" stroke-width="1" /></svg>