<?xml version="1.0" encoding="utf-8" ?>
<svg baseProfile="full" height="124.55447940464808" version="1.1" width="103.82228498536571" xmlns="http://www.w3.org/2000/svg" xmlns:ev="http://www.w3.org/2001/xml-events" xmlns:xlink="http://www.w3.org/1999/xlink"><defs /><rect fill="white" height="124.55447940464808" width="103.82228498536571" x="0" y="0" /><path d="M25,25 m0.0,0.0 m29.13182187656576,3.1833711042267274 l0.3963508011561782,0.4656931792609193 0.48375195615391386,1.6839759753361243 l-0.020572203623017305,5.9664800526961 m-19.851075775668768,1.3354301885170285 l-0.7946172144030995,5.334355387779228 -1.6236848880634376,6.033042709283934 m2.83964268662581,-9.65664013795284 l24.28311303281725,-2.9700993379455976 10.98209555116623,-0.9785099084696559 l5.655276508652201,-0.14035946607859248 1.4665819302054446,0.34395674453855507 l0.7235354746843223,0.5418281406263222 0.1500652490969205,0.6907414171752425 l-0.2948301028316926,1.6597582326294835 -3.154405559000779,3.4937671140868836 l-2.191787672643677,1.4570056101819107 m-32.77351321680177,-4.639723260016473 l0.33613494338409877,1.2677903994745445 0.14965600833021145,1.302253221585747 l-1.2196203702917907,7.179692197726848 -1.6039756335706394,5.470539685280207 l-1.5932220189084694,4.3814196648185595 -1.8909473658139453,4.232647785019752 l-2.3769081406163233,4.054468260181046 -2.9744695715411265,3.8952389297330523 l-2.7991500239845393,2.872510827768665 m8.608216923186358,-16.58105735146739 l2.405377733480183,0.18498379365872586 3.3095434505540764,-0.1964758077017873 l19.81094280410444,-3.22180726014339 1.7695749521513078,0.017941193132314296 l1.073350162672615,0.32791224972612165 0.582407570835247,0.47466237389197985 l0.3143883592516362,0.6500080185800186 0.03343516259507437,0.7760810112505959 l-2.202969212987643,4.409899852775526 -3.2957282072988123,5.619860533150095 m-13.601534270769532,1.7891821814454238 l1.748993671397249,1.4044299350399863 1.6124851067546815,2.149327283631357 l1.3067856878384816,2.177659546789695 0.94768675501538,2.2518787320896214 m-19.53677317156276,4.767637146136687 l1.8733850369199485,0.3355318783843564 2.1474049057998066,-0.01843565922279473 l27.610406404026218,-3.8383739658442115 2.591729831548864,-0.06963358813307827 l0.9270861713026185,0.3626395891532852 m-20.275032256082497,-5.483589568402998 l0.6504166494468969,0.9956315765425041 0.2573435415695439,1.1472795386780636 l0.005236180199156421,24.637811082881793 m-0.5686955019117188,-18.767398151230587 l-0.4896685291009093,1.7529491215763084 -1.5186779126291852,2.4866289823066294 l-2.31887603123638,3.2824024994888084 -2.6257682334325225,3.204765030409934 l-4.917144440667969,4.91741246528756 -5.490218480853089,4.146100423323204 " fill="none" stroke="black" stroke-width="1" /></svg>