<?xml version="1.0" encoding="utf-8" ?>
<svg baseProfile="full" height="102.11741730734578" version="1.1" width="103.18296886166738" xmlns="http://www.w3.org/2000/svg" xmlns:ev="http://www.w3.org/2001/xml-events" xmlns:xlink="http://www.w3.org/1999/xlink"><defs /><rect fill="white" height="102.11741730734578" width="103.18296886166738" x="0" y="0" /><path d="M25,25 m0.0,0.0 m28.839976128772456,3.2926504339964326 l0.3634637795691674,0.43096439651850266 0.4729343162963243,1.624059933928269 l0.023552482032119272,5.905725412309735 m-19.622600684838275,1.2181818057578648 l-0.7451440996270237,4.796369715655489 -1.6531061496925255,5.873251156190515 m2.892207375379827,-9.21765868108698 l24.885352214781413,-2.696890230950473 10.775805750906068,-0.7713906073135873 l5.289326836922785,-0.042805576849087465 1.001468104217082,0.38211148650067045 l0.35901240751871355,0.5811822499332645 -0.15461490131756606,0.7017237936247531 l-1.2873994071769728,1.6020019811609525 -2.678803910867922,2.1003067948766296 m-32.54200366134312,7.9928343960490205 l3.8318304184213536,0.20485177527014814 18.026441889342866,-2.2011013480716417 l4.460393114381118,-0.2591578419397307 1.9799705061371282,0.19366512308568243 m-14.480663903076504,2.326637567960729 l0.5390016847356153,0.9802447197900119 0.23753903461363024,1.7804481586399434 l-0.0749213908391461,24.058736917656702 m-14.546959439172804,-14.035362869855375 l1.120836799958102,0.32433453187726924 1.8975542557028982,0.012085577380585494 l22.115388597290238,-2.331718097119509 2.4399408844528723,0.19505750950880185 m-34.02140789446148,16.789202686343806 l1.837833995023675,0.29715443419804716 2.4119065623520073,0.009720002318321791 l33.582029915202774,-2.505211084072161 3.080300362407776,0.13289219511017633 l2.5265268876626945,0.4812574628054528 " fill="none" stroke="black" stroke-width="1" /></svg>