<?xml version="1.0" encoding="utf-8" ?>
<svg baseProfile="full" height="110.36909285782855" version="1.1" width="101.78201924724183" xmlns="http://www.w3.org/2000/svg" xmlns:ev="http://www.w3.org/2001/xml-events" xmlns:xlink="http://www.w3.org/1999/xlink"><defs /><rect fill="white" height="110.36909285782855" width="101.78201924724183" x="0" y="0" /><path d="M25,25 m0.0,0.0 m26.25883333982211,3.2322989899730157 l0.3813942008841642,0.2564083039069375 2.4777562106567728,2.24897371982865 l1.3439351777168433,2.923830712882352 m-20.6963128373253,3.6707743600144243 l-0.738299610270165,4.974748222122691 -1.6275760754153008,6.173236365419579 m3.333991386655352,-9.663247893410093 l29.810367708752914,-2.723936059333788 9.717418993286298,-0.5161657835944964 l1.026547071041417,0.32358807645821 0.48092775279520644,0.5589453133187087 l0.01303592864152649,0.7094673726535989 -1.0316008187486367,1.6850688355968686 l-2.65153852401179,2.2597976735574066 m-30.57892885480708,4.10637283482922 l1.8431279397752598,0.19366555275016364 15.754376691994025,-1.9681649488116908 l4.488191297226957,0.07335973522494217 m-24.10592914579879,13.933419226129066 l3.2722212408453633,0.08558610784902214 17.789141288805446,-2.2947818040338177 l4.0624856552321305,-0.2150421469499002 2.1999670079011584,0.19245451778799008 m-32.45211018638137,16.33426061989447 l3.200161572521679,0.18076961165500913 29.649348114588364,-2.8082157797672127 l5.336454494952447,-0.13662264387184272 2.5824529956353275,0.41694125822160794 m-21.512354473941308,-22.541033421415193 l0.5942577641410082,1.2379906303011832 0.21927065206053287,1.8075046351780966 l-0.08615785893386221,19.619893002400026 -0.5091448994447593,14.518288192645615 l-0.22124183001635064,1.0269462987074276 -0.38702760929674507,0.46389747878766213 l-0.5460513842835706,0.027815690922647067 -1.4625806348049386,-0.8593886013344382 l-1.9367755818376997,-1.6258276217402872 " fill="none" stroke="black" stroke-width="1" /></svg>