<?xml version="1.0" encoding="utf-8" ?>
<svg baseProfile="full" height="102.31662869395018" version="1.1" width="102.57704714604137" xmlns="http://www.w3.org/2000/svg" xmlns:ev="http://www.w3.org/2001/xml-events" xmlns:xlink="http://www.w3.org/1999/xlink"><defs /><rect fill="white" height="102.31662869395018" width="102.57704714604137" x="0" y="0" /><path d="M25,25 m0.0,0.0 m6.93039205678254,16.43932493275163 l0.28919486107397996,0.39277637122234427 0.6907488250058749,1.5066149862833824 l1.3498330329828783,24.78365258400616 m-1.0607256939320686,-26.9104633757992 l13.219033300909825,-1.494944260009154 0.682919103295196,0.11672347899635466 l0.8120483491988428,0.9311850535440802 0.22710668744889467,1.2380075240631323 l-1.2583566235934387,23.198328194854618 m-7.328168720586112,-23.72991534860968 l0.5485944867673254,0.7982346015746553 0.22926249308286767,1.0693594804025843 l0.0996158836832948,20.20148756393973 m-6.42130033962337,-10.584181612746942 l13.041568397485888,-1.2157744085824127 m-12.560566600596198,12.74438969492696 l12.208378835091679,-0.9136239370898352 m4.9355747475098255,-24.657020993509324 l2.8310282963044022,0.22626643424813625 18.440578913942396,-1.8698143088588197 l3.120154856576492,-0.15492355465431623 1.5501319972303464,0.23385602341871176 m-13.572334656881774,2.338261331645942 l0.7474369321846509,1.487901721423828 0.20126930199198187,1.7951951004042148 l-0.10740067174202596,32.78758332998702 -0.2520033407488023,0.9922372149203138 l-0.3790546135873975,0.4795781305255876 -0.49633278316799434,0.08632674067047177 l-1.210819246087745,-0.6509181169717932 -2.385509308758065,-2.368636211736692 " fill="none" stroke="black" stroke-width="1" /></svg>