<?xml version="1.0" encoding="utf-8" ?>
<svg baseProfile="full" height="100.61978297247416" version="1.1" width="107.72166823060562" xmlns="http://www.w3.org/2000/svg" xmlns:ev="http://www.w3.org/2001/xml-events" xmlns:xlink="http://www.w3.org/1999/xlink"><defs /><rect fill="white" height="100.61978297247416" width="107.72166823060562" x="0" y="0" /><path d="M25,25 m0.0,0.0 m16.834589434204542,14.043186542886936 l0.4623578669477334,0.13622309158079737 2.8703969152407063,-0.04329093578223584 l10.183267796546774,-2.2880983107596653 2.3634677251026446,0.12102382636049497 m-17.47496879210045,16.580385373040436 l2.41220085726899,0.19943160788424105 13.796268209813013,-3.1816634974939486 l1.8692454942679704,-0.1712249057283144 1.2888191749208815,0.1678682680634936 m-18.859757615485755,-9.946765521903496 l0.5156746841311408,0.7664371254379735 0.2451971631015217,1.075101279517224 l0.0024665962670570715,28.099186560030287 0.498638788952138,2.104426678265886 l0.7224620554650824,0.8278111319398658 0.5720950309701727,0.5237468572895578 l0.5767588647217489,0.24269466297418268 0.8117050394558036,0.3459687362690786 l2.3262938498396624,0.3925784187035159 5.234696509349168,-0.05837940862070732 l2.772598665237136,-0.43134036644323254 1.079214874005249,-0.6442969287275548 l0.8358411718027325,-1.5320216153994188 0.3371121781282872,-2.172338387750381 m5.256189357648121,-39.51553632046314 l0.6051062935486327,0.3836172446562806 1.364633509994882,-0.012657746177755511 l15.315511112628917,-3.050433230257059 2.1901134666545388,0.249462078618157 l0.6505437710616883,1.024698806229258 0.06292818091489422,0.946304184717693 l-0.14256524006837612,1.7857969719517621 -2.8165027661901734,10.1591631124031 l-2.2301090067257285,6.720412820047673 -0.8047069049563427,1.9899626310908938 l-0.6275673910662424,1.0105035959827835 -0.5897760956161389,0.5152815024079592 l-1.7018980995671762,0.12929473270067737 -0.9095727496055067,-1.0044453796792898 l-0.9314049730899484,-1.6348509598903298 m-7.95827390566193,-24.432019372566874 l0.47309606927235726,1.0859508091536707 0.19045613552826196,2.0453569033313723 l-0.05804316185173018,47.06727030658231 " fill="none" stroke="black" stroke-width="1" /></svg>