<?xml version="1.0" encoding="utf-8" ?>
<svg baseProfile="full" height="117.20569991007787" version="1.1" width="108.3766064123761" xmlns="http://www.w3.org/2000/svg" xmlns:ev="http://www.w3.org/2001/xml-events" xmlns:xlink="http://www.w3.org/1999/xlink"><defs /><rect fill="white" height="117.20569991007787" width="108.3766064123761" x="0" y="0" /><path d="M25,25 m0.0,0.0 m11.136629405508108,14.913814460903497 l0.4968427484661507,0.1386618108108618 3.391707833764884,0.12599463314943554 l28.084595196949202,-2.3854179847868497 4.520696908783807,-0.13511964902837853 l2.965471678622241,0.30119747163657173 m-30.36260782106491,-5.097450141603002 l0.8889859001700842,0.9236900448066561 0.3235155528983132,1.0943953919176448 l0.9071043763713926,24.44245993580732 m17.128015970964874,-29.270141408117112 l0.758790255855333,0.9020133917523633 0.32659827804602753,1.0261666450885527 l-0.14116819064136152,26.554224096575016 m-17.671373030346864,-12.878312221678211 l11.254105549406562,-1.368255541852803 m-11.01635836793876,8.51196245442956 l11.018159040511174,-1.0732223377475323 m-26.960997307655674,9.539734761446374 l3.6689497790837855,0.3339534591826267 19.936956331228462,-1.8806683302420837 l16.926562551238483,-1.314865384674221 7.745183607956601,-0.2987275413822338 l3.0502401641981836,0.27697988266120155 m-34.5873526151172,3.122058363295502 l0.12249122097392924,1.4494837851744917 -1.8241166348648934,3.515688999345901 l-2.4795130265954324,3.063127173126514 -3.2050966049463083,2.9240119615870244 m16.57161171378826,-11.337656505853976 l2.191319130258289,1.5936657750951762 2.1658766656341877,2.2087219945307015 l1.8677314715104725,2.5228080568041578 1.1583181601988308,2.215140514589684 m10.830953453855807,-9.28222137743941 l0.4179447666796486,1.8969715534663438 -1.1405291415658576,2.310185801400854 l-2.542324876327243,3.431568877707652 -3.1740328616661504,3.0513539911384373 m-10.588121995681798,-11.360858300551616 l0.6509074766549933,1.0625787227879675 0.2535147403883409,1.1322812418030461 l0.23350975511083588,5.941845695244991 -0.3264237044915393,4.903558050219239 l-1.0696545849417594,4.497696045716745 -1.7609523470606683,3.8404533324155334 l-2.1936051703505908,3.3017599025050157 -3.1196230883572587,2.9745478362358893 l-4.248367535994486,2.42522380885693 -5.838364457343634,2.418636711819814 m20.885411851676125,-20.0097298324836 l5.718944720287401,6.950718086673816 6.34887171508388,6.759785317002971 l5.254796053422108,4.41238037954455 1.7599216770503192,0.9687746435832506 l1.3866028321066182,0.35040755573983007 " fill="none" stroke="black" stroke-width="1" /></svg>