<?xml version="1.0" encoding="utf-8" ?>
<svg baseProfile="full" height="132.4162432992076" version="1.1" width="105.42813013575903" xmlns="http://www.w3.org/2000/svg" xmlns:ev="http://www.w3.org/2001/xml-events" xmlns:xlink="http://www.w3.org/1999/xlink"><defs /><rect fill="white" height="132.4162432992076" width="105.42813013575903" x="0" y="0" /><path d="M25,25 m0.0,0.0 m32.436614633521415,3.3702133374767387 l0.340246012286585,0.23306167134417902 1.5754034721730665,1.7815544722665062 l1.4263839343221592,2.4864559576255396 m-18.80701586960631,3.4147890999891333 l3.1308202437157955,0.32621524620455905 31.531708576302762,-1.9376455707784435 l3.0351447940168965,0.31368375541149107 m-34.883411638977066,1.8470434902023125 l-0.2062009718378944,8.907883634125959 -0.3804949674308027,7.410570712583275 l-0.6764911791467149,6.155287620312324 -0.7050141427028296,4.176919836465753 l-1.3052571972129414,3.8565665921502137 -1.9384515517356549,3.76673856745268 l-2.540402464543504,3.668016555553423 m-1.4763657995812967,-32.06774696525995 l1.2730900109429668,1.2384615079218573 1.4346620573771407,1.884735193354188 l1.2443429187096529,2.049178273680684 0.6780792040647421,1.7486787094784844 m-5.791300020337826,10.023234850402325 l0.9500043373478628,0.24370843790154242 0.36145046533438674,-0.12031287740705635 l7.870923176485582,-5.735053610663738 m12.457226762229569,-6.927756715333659 l0.47240496359622836,2.386710915045134 0.019327860455176274,20.29782080376067 l-0.09009859360911446,2.213263523780756 -0.24336513630760204,0.5765190747097567 l-0.3341360126674463,-0.03483830454670444 -0.33251731707220067,-0.4318492105672787 l-1.3649660660658642,-1.9770490256093622 m-2.7838702556252786,-13.027155342113536 l-0.10037868000899156,1.5594239961067153 -1.4810832725847072,3.2172093964582453 l-1.9057126755594083,3.0040324479516376 -2.076335374116424,2.4655029944357367 m16.5008313962471,-9.717297979686844 l1.546859164454137,1.6520103582863428 1.726430453379421,2.4698716813528723 l1.3691742305527506,2.693696270401396 0.5756684846402342,1.8874636994126115 m2.052609082576183,-12.568206589804047 l0.4642852171918227,0.3384343735145335 0.5892249688199934,1.2887767261031604 l1.152872479298014,5.900573372292708 1.8368231678201474,4.977623527359706 l1.8352253521813429,7.011023663831942 1.0218478670761695,4.5795552334747045 l0.9213174159556861,6.301933538633757 0.717536982789387,4.35067203904733 l0.7692571829259626,4.824292057409949 0.9794469367995138,5.014616930015011 l0.42982577161538316,3.722196855249641 0.12392974528368107,3.698261005758088 l-0.1578608736441792,1.0308678881303097 -0.20418228899909813,0.4991870019934406 l-0.2586953280883195,0.0966185945588986 -0.34565259533166887,-0.3268341168574389 l-0.7290257178541524,-2.6331498938622 m-1.65520429760308,-23.62830567383627 l0.034282384620031636,1.9847496193628673 -0.7584424771329032,2.419105286485736 l-1.5050703046317708,3.4338199658542017 -1.9808869921305174,3.6631443178811174 l-2.0115817040088855,3.1515561963986998 -2.3000459682993015,3.103941663481858 l-2.6001948067271266,2.9284744521803012 -2.172672612381047,2.0222233051120804 " fill="none" stroke="black" stroke-width="1" /></svg>