<?xml version="1.0" encoding="utf-8" ?>
<svg baseProfile="full" height="105.69736783392727" version="1.1" width="109.4925118034458" xmlns="http://www.w3.org/2000/svg" xmlns:ev="http://www.w3.org/2001/xml-events" xmlns:xlink="http://www.w3.org/1999/xlink"><defs /><rect fill="white" height="105.69736783392727" width="109.4925118034458" x="0" y="0" /><path d="M25,25 m0.0,0.0 m4.486498728084598e-08,10.860908031463623 l0.3142889589071274,0.4429003968834877 0.8368261903524399,1.657128930091858 l1.3048739731311798,27.55317449569702 m-0.8510501682758331,-28.25840711593628 l9.2344731092453,-1.520085334777832 7.64309823513031,-0.9065830707550049 l1.1675535887479782,0.10357055813074112 0.9927783161401749,1.0241220146417618 l0.2771534398198128,1.5923972427845001 -1.5559005737304688,26.919145584106445 m-8.503687977790833,-27.86592960357666 l0.06978076882660389,25.991950035095215 m-8.7053781747818,-12.352151870727539 l13.20797085762024,-1.4163869619369507 m-12.701021432876587,15.33934473991394 l16.612513065338135,-1.311757117509842 m7.004640102386475,-29.28321123123169 l2.406652569770813,0.24418076500296593 25.528438091278076,-2.3140056431293488 l3.7217262387275696,-0.13618654571473598 1.48678258061409,0.23150064051151276 m-16.211516857147217,3.3006298542022705 l0.7921529561281204,2.8768083453178406 0.12900539673864841,5.815622806549072 l-0.36737311631441116,18.8716459274292 -0.6851541250944138,16.384589672088623 l-0.6970570981502533,1.3099631667137146 -0.5386349931359291,0.36385972052812576 l-1.3890038430690765,0.17862940207123756 -1.8009011447429657,-0.9062423557043076 l-2.3926842212677,-2.4287977814674377 " fill="none" stroke="black" stroke-width="1" /></svg>