<?xml version="1.0" encoding="utf-8" ?>
<svg baseProfile="full" height="99.89671382321981" version="1.1" width="96.42489841150572" xmlns="http://www.w3.org/2000/svg" xmlns:ev="http://www.w3.org/2001/xml-events" xmlns:xlink="http://www.w3.org/1999/xlink"><defs /><rect fill="white" height="99.89671382321981" width="96.42489841150572" x="0" y="0" /><path d="M25,25 m0.0,0.0 m15.678753127275739,3.7419641864342976 l0.4436122348820821,0.4737376083257561 0.6219430057827394,1.3787205201052282 l2.185663144093065,12.392238869460812 m-1.708345440289997,-13.79614520010744 l25.544769585340703,-2.374335451611911 2.7177870986543193,0.23977007924693436 l0.825310065593509,0.7951791574847844 0.1154055901735682,1.5108935608188314 l-3.1679979127703777,10.66921252931112 m-25.024429370099885,2.3965353946990464 l26.735162680961494,-2.012671085684137 m-39.247039872325864,10.171092396230694 l0.866208321056642,0.18154301699398884 1.1775281240512365,0.12074879251258029 l15.632975334021854,-1.671807393053621 1.9246167509944083,0.11315054921255868 l1.286908813628291,0.926985219751284 0.3347767304691652,1.4667525168424038 l-2.7553364936956446,23.173148556246606 m-20.503985323691996,-25.61796023171228 l2.7119741492941993,0.6277807864753676 2.8185304679454717,-1.4055856460261853 l10.534092865961481,-1.5603549519198534 m-12.352020653375819,11.208562208031003 l2.794541975649259,0.16606375004356508 9.227328251201504,-1.4206321944061306 m12.469775661362169,13.56762990459171 " fill="none" stroke="black" stroke-width="1" /></svg>