<?xml version="1.0" encoding="utf-8" ?>
<svg baseProfile="full" height="100.35376188398341" version="1.1" width="94.20675767747079" xmlns="http://www.w3.org/2000/svg" xmlns:ev="http://www.w3.org/2001/xml-events" xmlns:xlink="http://www.w3.org/1999/xlink"><defs /><rect fill="white" height="100.35376188398341" width="94.20675767747079" x="0" y="0" /><path d="M25,25 m0.0,0.0 m16.563189029167734,5.697137299426156 l0.34163067556863885,0.3807470728042454 0.4846380676239345,0.8933294466455722 l0.3409640721961062,3.0458219986813875 1.0108309876727084,12.005136145714662 m-0.9358646375670648,-15.29248773453618 l17.443269083272003,-2.1863026840643447 3.434314640513182,-0.12373218271077072 l1.0134356225335641,0.4238576114919543 0.5495025339093039,0.8313692444455735 l0.04719435437200461,1.49433573615594 -2.3701982807352002,12.024083820487183 m-19.29808930027451,-6.149564884013372 l10.828987698549298,-1.2234422003397367 9.140898976546959,-0.7262960931071057 m-19.525376541625597,8.420360506226492 l9.406606953599956,-1.0198131845390346 9.077566349345338,-0.6873041976029104 m-14.775271876106626,7.6493257554148295 l-0.09290895547034565,1.1311214342040903 -0.5063307427920503,2.525697035617341 l-0.6473398705213723,2.6081505025471685 -0.9628740232902573,2.67476383663617 l-2.461243089089216,4.826028253437126 -3.460113978230525,4.347580803868459 l-1.9425167365679545,1.7058246991534938 m9.386626604200012,-21.76507076491904 l1.6494399981728183,0.5661042365683294 8.336125181800455,-1.4217878922014107 l0.6071541949887979,0.08948931592739033 0.5206232954449538,1.8547714087031393 l-1.2229659449695824,5.608879165743634 -1.1975586827594653,5.160312505930383 l-1.2716156958195197,4.681532172438965 -0.35586916736326135,4.071463248628142 l0.24002542797569126,3.0034682730870323 0.4787934687360566,1.218944242891518 l0.7194912010417337,0.9514938002461537 1.6239785561200355,0.752748665120318 l3.219086458370737,0.3056854637744825 4.061975500106882,-0.2115465279393445 l2.488870695646457,-0.48958372750767154 1.8820364493295538,-1.7402573023703554 l0.2907898338365428,-1.6045401288282817 0.044849290011896636,-2.0206562714472214 m-22.904978579164602,-16.248938528580297 l1.18940521369206,1.1447397665375878 1.5280798872551116,1.870902318748562 l1.1401056870040116,1.88985401379753 0.6238006803585942,1.5873078306674904 " fill="none" stroke="black" stroke-width="1" /></svg>