<?xml version="1.0" encoding="utf-8" ?>
<svg baseProfile="full" height="105.21458202100467" version="1.1" width="101.6806248265472" xmlns="http://www.w3.org/2000/svg" xmlns:ev="http://www.w3.org/2001/xml-events" xmlns:xlink="http://www.w3.org/1999/xlink"><defs /><rect fill="white" height="105.21458202100467" width="101.6806248265472" x="0" y="0" /><path d="M25,28.981859999430615 m0.0,0.0 m9.901361441850923,3.536206962089171 l0.45914278406885206,0.24125475109483147 3.0898732063437087,2.346473232862013 l1.3355472690928623,1.4806725807958294 0.722135865450895,1.1918476619615048 m-9.147184173012358,10.389157713883689 l3.587425607070294,2.298509803112647 1.9093097120870894,1.8769706188021185 m-5.335535279843128,27.87162869697226 l0.9822441705996173,-0.03033509147914686 0.7327579973451712,-0.938182004313902 l2.397152037452581,-5.383243911632338 2.487190252765519,-6.603417856599344 m9.881271611728327,-26.638328617436738 l1.6830079218233869,0.19448432517546332 1.802798349785863,-2.176292523552049 l5.538072217127954,-8.235937357080154 0.6219317480919676,-0.45592078854848356 l0.36040343321236074,0.21322989463022823 0.19721408910017438,0.6051684262365399 l-0.22960368145636806,11.623177301826326 -0.8543209479415368,6.9862063657211735 l-1.1531847237404769,10.462328584405718 -1.4831668344769824,6.690603082513139 l-0.47079047086803233,1.9059026327237698 -0.4546012236280661,1.0025740786242425 l-0.48616335153845436,0.2887706012012786 -1.0307807679235714,-0.4127255961390148 l-1.302805317846926,-1.9195608481237618 m2.064902057998399,-29.412007816624477 l0.018186111784243154,1.0387169278202582 -0.28287008532591734,1.2474432541304465 l-1.868476936105093,5.774691179595838 -1.9789077760742515,4.518705118799946 l-1.9524954639411969,3.9075501067649534 m16.974251313517996,-27.1667680158695 l1.20036367867362,0.3688087364034375 1.397920241142126,-0.11766406227054174 l8.808696054321315,-2.552558147908006 1.2446995018625673,0.637534210654336 l0.31365318597175385,1.2589659512032705 -0.26341255316042167,5.525656921887856 l-0.7190553175407997,19.742274962324686 -0.6057598002778658,5.034121516698091 l-0.39120899785725055,1.571134417673601 -0.4641524426249971,0.8492720597722601 l-0.5091016505250199,0.32918602772596567 -0.5238296002437312,-0.1340562014258855 l-0.5316160730554234,-1.8798242290031446 -0.7160740229119325,-2.319479833960297 m-1.1664901909980083,-29.114527058838597 l-0.05866375202056928,1.2045199797478627 -0.36796994596053245,2.5315921663532346 l-0.8608376295643856,4.509818102572107 -0.9850276014910572,3.9885946686371745 l-2.4006650062145285,7.435278155771286 -2.9603314044601556,6.410554995193621 " fill="none" stroke="black" stroke-width="1" /></svg>