<?xml version="1.0" encoding="utf-8" ?>
<svg baseProfile="full" height="132.8026607885152" version="1.1" width="96.2043137118121" xmlns="http://www.w3.org/2000/svg" xmlns:ev="http://www.w3.org/2001/xml-events" xmlns:xlink="http://www.w3.org/1999/xlink"><defs /><rect fill="white" height="132.8026607885152" width="96.2043137118121" x="0" y="0" /><path d="M25,25 m0.0,0.0 m8.27075617026408,11.351270074043418 l0.3578030658728272,0.13760258639803266 1.8678191725870035,0.2844420694893214 l23.95158300835404,-2.3919517098559067 1.7150346885227175,0.38507863065890463 l0.4445219390366359,0.8638336935753563 -0.05081968833451454,8.066026418343723 l-0.5667212250165788,6.071211882203021 -1.1084317342417014,5.427676132233651 l-1.5713903621010463,6.018774108390861 -0.9553324218391825,3.5725020097593667 l-1.1006726253896473,3.6420214131972894 -1.063143632597266,3.043868514033563 l-1.0510718569238326,2.6652158228654224 -0.5381773524683614,1.9277671200195916 l-0.9817248840032622,3.212540976673129 -0.5281176102818966,2.75350647276289 l-0.86715917042278,3.8785809412059007 -0.47561755455036436,2.9600569597485364 l-0.7674424259904237,3.6286726650728593 -0.4561268513538967,2.016671072997447 l-0.4459160284654103,2.5635126042345666 -0.4101609399476998,2.4452550772880652 l-0.7846733017253915,3.135131545214268 -0.447637235176352,1.865605707188741 l-0.8363519817393659,2.130596136868671 -0.4701044520382733,0.7435718759991026 l-0.8355357664018584,0.40361998790541703 -0.8516299997189756,-0.6765475851126741 l-1.5174205216185754,-2.888366706604364 m-0.46021551357105206,-40.59612743441442 l0.183800759575221,3.286568468671267 -1.3075342657918059,10.648646895851359 l-1.543638085537029,7.436131441963256 -1.7048547182335378,5.824763745009278 l-2.1833648126403795,5.5372744353581 -5.18818272089669,3.9503139380721977 l-3.0363895017272973,1.0802813819464838 m5.178604662682464,-31.11313642194328 l1.2358182822323172,0.3240716632797339 0.7224256399802722,0.6753805960950133 l4.751878664433993,5.534379576743372 6.872104879774297,3.937106106131234 l5.687773944960339,3.184814043391607 5.6264887972001425,3.177072581146095 l5.151124371843705,2.6330810391350057 4.92395634138829,1.8702512137643583 l3.368378563848211,0.7091748136898726 " fill="none" stroke="black" stroke-width="1" /></svg>