<?xml version="1.0" encoding="utf-8" ?>
<svg baseProfile="full" height="98.59277690648823" version="1.1" width="96.8559656323163" xmlns="http://www.w3.org/2000/svg" xmlns:ev="http://www.w3.org/2001/xml-events" xmlns:xlink="http://www.w3.org/1999/xlink"><defs /><rect fill="white" height="98.59277690648823" width="96.8559656323163" x="0" y="0" /><path d="M25,25 m0.0,0.0 m6.962337043962368,11.776129116495433 l0.4329698519881857,0.09405791296947111 3.0819814967384693,0.10978233565041778 l25.186760218402846,-2.6547154514779363 4.938494941691653,-0.2639024647673703 l2.567056863144404,0.23654804653993708 m-19.494553939160856,-7.357245781804772 l0.23475184176096445,0.8236352490142925 -0.11815379153233493,1.4430270785071027 l-1.4156693255588337,4.57142838373366 -2.3288433893991587,5.17043320626113 l-2.441320234628764,4.053284592791525 -2.9235136889750346,3.680818368763578 l-3.420859060298096,3.292157664859439 -3.916858011336052,2.8175066073462705 l-3.8751855023839723,1.9931069732889461 m22.28381441680348,-18.682579205013432 l9.19624921628769,7.72897230985374 6.104941973042846,4.281825743039458 l3.700673246018636,2.1523317489788627 2.1008914657478597,0.7080069990266904 m-33.500274348755674,-0.6591188674560059 l0.6150037712132242,1.4635662440475734 1.8199970377080505,12.14194578951082 m-1.4237027856639468,-13.041254175540095 l18.263838790041593,-2.2501281585954076 1.3841635708350635,0.09468374396678521 l0.833251640801545,0.31333070941330365 0.5280272225302998,0.7028055614666496 l0.06221237090327344,1.0550871915304911 -1.8281036570315403,11.04325302782103 m-18.326512673968942,-5.618701924373386 l14.302149685721458,-1.3263211471142056 m-13.245548824200139,7.533466991186288 l16.960040683173506,-1.7586782286794602 m-9.426773380916153,-18.303623160860436 l0.4767083191584164,0.7515391869935917 0.1854500478186822,1.054001719715879 l0.040841038033098825,21.432488477845393 0.39850464805874203,2.0702302351900927 l0.6723469901740384,1.2668822807865676 0.6665999753500798,1.0873112041379707 l0.8118298169896665,1.0344237326299142 1.0292887715603831,1.1457427252089816 l2.3831508895424967,0.9620104625241683 4.2870073969691065,0.42322385107526816 l5.773101901426488,-0.191536652377452 1.9183471889572075,-0.4504849309373979 l1.9733316787148583,-2.214693262571211 0.21844856196489196,-2.3055255744874428 " fill="none" stroke="black" stroke-width="1" /></svg>