<?xml version="1.0" encoding="utf-8" ?>
<svg baseProfile="full" height="114.2858065168372" version="1.1" width="102.3637199642727" xmlns="http://www.w3.org/2000/svg" xmlns:ev="http://www.w3.org/2001/xml-events" xmlns:xlink="http://www.w3.org/1999/xlink"><defs /><rect fill="white" height="114.2858065168372" width="102.3637199642727" x="0" y="0" /><path d="M25,25 m0.0,0.0 m9.756775654671932,3.21123439726921 l0.49910641887843377,0.22098474479324645 3.5286692450659167,2.0884202491265915 l1.5361752964941238,1.2658262341579674 0.8089549567943222,1.0366990369429014 m-10.708435279243398,9.881789530228513 l4.259202459412903,2.0668381757430048 2.133002697681428,1.7072511486331703 m-5.750618129462759,24.90805615711393 l1.1433179082022558,-0.014192982668743696 0.7669763157247544,-0.7435515540620794 l2.631369014815985,-4.879546529572663 2.6978256852504767,-5.886470158892052 m12.528655650857898,-27.454098680971544 l2.8197720153880312,1.5172831755892213 2.147748183545523,2.4466207459664533 l1.502329779208215,2.2394979967162314 0.8947986167204162,2.1958656622018324 m14.431498095420817,-10.479885763319503 l-0.12576557473708305,1.4652539099743522 -1.3998136685458247,2.832995787350755 l-2.289823560531319,3.504303272235926 -2.895991806181012,3.5761396921819855 m-18.15751119910233,3.176367697110723 l3.5319018524756705,0.1466679826428905 20.91073570407473,-2.1693253999272804 l2.8970316140504386,-0.12476993163546501 2.2658320173421456,0.21437625209307323 m-29.944618989961487,13.933452122399665 l3.2164801201237516,0.2371657004003032 2.506764906023846,-1.7693509125637592 l8.09789387822331,-3.7551537981083447 6.072015049059298,-2.879112801771825 l1.456464984818339,-0.08156395585496003 0.637892987150123,0.3550022913081223 l0.4374490406097238,0.5417327392922083 0.15427883559418737,1.43759914482429 l-2.2338310190715838,10.55960367289405 -1.521503348951655,5.649628015735201 l-0.7384232237553557,2.964462528634191 -0.7191073678414461,3.3031229112594787 l-0.6551353612600105,2.8806257062497 -0.733363514499103,2.7970590970149978 l-0.7642594306954054,2.229660236814136 -1.1094948195400165,1.7571163867207653 l-0.6756644529552667,0.45899918085024904 -0.6486440610333961,-0.00928881176390826 l-0.5986080726073622,-0.3705113489012222 -1.4810058447888301,-1.8605729521078236 m-0.942249644916141,-31.218809612349734 l0.2054131937330686,1.2357460388221058 -0.08443186691898492,1.3899964464790344 l-1.3223043802156276,18.21956899046132 -0.9436225265361367,5.172855659808892 l-1.1871680276112322,3.8796299257983726 -1.5841688992584873,3.3797162548999014 l-2.0614219238868428,3.1155324386944776 -2.5480523559520116,2.7812643738746683 " fill="none" stroke="black" stroke-width="1" /></svg>