<?xml version="1.0" encoding="utf-8" ?>
<svg baseProfile="full" height="105.36310676215331" version="1.1" width="98.1836023808991" xmlns="http://www.w3.org/2000/svg" xmlns:ev="http://www.w3.org/2001/xml-events" xmlns:xlink="http://www.w3.org/1999/xlink"><defs /><rect fill="white" height="105.36310676215331" width="98.1836023808991" x="0" y="0" /><path d="M25,25 m0.0,0.0 m15.607575531360585,15.57324444706141 l0.3993630078895972,0.13762738129276925 2.3334008103514945,0.13908135533896565 l23.158042465966886,-2.2351241860076767 3.1750359404595994,-0.15965475789687775 l1.871486632737093,0.21385807865372605 m-32.46472523901771,11.502439873909537 l0.7206516067753022,1.5835426297003141 0.42466091277058376,3.7649313680742855 l1.0307536437357085,22.701186582232186 m-1.3503435964084287,-28.46593289103696 l31.05114252678469,-3.3342610170158236 1.1203973487516072,0.18118102979748696 l0.453109119832847,0.3968022057693331 0.5460548269276569,1.0646058191072714 l0.1069968419815854,11.408466183789127 -0.7858885923363685,9.786596486182832 l-0.9500709693805046,7.390721867742262 -0.4823064201297633,1.9887916809923316 l-0.3188302585340888,1.0152586522769242 -0.3572571484892274,0.5469176467455394 l-0.40281074985855564,0.16282632544434503 -0.45620044702998047,-0.15801056111280154 l-1.9215030499199475,-2.1246135357091607 m-13.018307503224037,-38.21348106851605 l0.5803812857598647,1.0225084864630682 0.2828664403860427,1.341183231646163 l-0.2158146726748239,6.639955223328962 m-8.046698294085578,1.7423304596488578 l0.8336732763442575,1.384348121359737 1.440839660378548,9.251070826533047 m-1.397201971342686,-10.106923349144585 l11.920689658402805,-1.7006095770253564 3.6786805321944565,-0.36906311918450274 l0.41515600633172434,0.20982097936876737 0.2482647015099188,0.9329986067095819 l-1.5879009416167156,7.350541082273159 m-12.53798664030435,2.047715164757928 l13.571860961656236,-1.5799232043840108 " fill="none" stroke="black" stroke-width="1" /></svg>