<?xml version="1.0" encoding="utf-8" ?>
<svg baseProfile="full" height="102.01410816640606" version="1.1" width="101.13435813199" xmlns="http://www.w3.org/2000/svg" xmlns:ev="http://www.w3.org/2001/xml-events" xmlns:xlink="http://www.w3.org/1999/xlink"><defs /><rect fill="white" height="102.01410816640606" width="101.13435813199" x="0" y="0" /><path d="M25,25 m0.0,0.0 m12.099742970558628,4.373346887311633 l0.5424373017470056,0.1282822469960466 3.9580881545733613,0.1248733605215729 l27.43623696662752,-2.9165625959513783 3.298093565145529,-0.07320298826943049 l2.7883098539273967,0.30236010674727654 m-36.05922886346324,14.03547186636451 l0.8291184800914764,1.6273168675323948 0.5248008207785013,4.107214246183227 l1.1836684433176412,30.305008168970215 m-1.5860196551936907,-34.606958201735544 l11.774224265085925,-1.6859024773433546 16.638051480576184,-1.7789790427990955 l5.608279068269294,-0.27245798298571494 1.4228076189753118,0.8191241190642048 l0.6430122451306187,1.2516789793120624 0.032735415842541075,1.9540104671873353 l-2.0346770012415383,20.41760005670404 -1.668140929817849,11.873453151942469 m-20.445413924503438,-46.58312298146919 l0.5020605343842399,1.047022040735387 0.2395437009238218,2.007026567722985 l0.8052735744222803,39.11059477106455 m9.918499032587794,-17.048904134821655 l0.44153657899552323,1.0140349242689701 0.22689329704995842,1.3137641726026446 l-1.2249168086703486,18.305064883772978 m-23.457127338018065,2.0940899393156274 l18.883107264185664,-2.209826017963963 15.268928342531037,-0.989060914402209 " fill="none" stroke="black" stroke-width="1" /></svg>