<?xml version="1.0" encoding="utf-8" ?>
<svg baseProfile="full" height="119.36547525523552" version="1.1" width="108.95230898946906" xmlns="http://www.w3.org/2000/svg" xmlns:ev="http://www.w3.org/2001/xml-events" xmlns:xlink="http://www.w3.org/1999/xlink"><defs /><rect fill="white" height="119.36547525523552" width="108.95230898946906" x="0" y="0" /><path d="M25,25 m0.0,0.0 m13.140745713451377,3.274708061142929 l0.5312365434210148,0.44351726048153045 0.7022715808248109,1.1241158801880706 l2.7738317978172278,14.060958216096534 m-2.418409339110451,-15.376057349887954 l25.603946518557727,-2.49740491532497 2.7249637110001426,-0.0891796698300334 l1.4706701376223121,0.421769049676431 0.8341994788542142,0.8984888419409317 l0.08707132371551321,1.5485041281224654 -3.4276901305580822,11.983272011992954 m-24.79515336930441,-5.622540563112679 l26.122838716119897,-1.8766163388332329 m-24.85106415303095,8.3592682366681 l22.81628675941843,-1.7020911319993484 m-18.019075838616015,7.677366624370144 l2.5288364230439107,1.0391132300208983 1.9781367286411438,1.5077495605495685 l1.230791008423593,1.2564599947524697 0.8134093709378932,1.2631251879249783 m14.817549079755242,-9.622304787151688 l0.31324769682289255,1.4265260644312578 -0.29097107410886597,1.3925661971423846 l-2.089853566190214,7.9273997804167395 -2.3972764472756394,6.0362904248270075 l-2.877172052723412,5.380925082113004 -2.686376600918342,3.835005128508143 l-3.090385901579181,3.324485479131988 -3.739964897999213,3.088375877523433 l-5.241606500741985,3.3163995826596424 -5.857998928858016,2.4973921254268863 m8.837152980336711,-26.888487970604427 l1.9337062227513375,9.993656623035273 2.6638799443289938,13.719943680765214 l1.4282592668392942,5.840845736274974 1.1150641948438267,4.227083121570776 l2.864734528481843,3.4908287096961432 2.637643410824649,1.534966905581648 l3.5155447564918205,0.8851538949136841 4.1709814632475,0.26389728403364693 l5.14346269848986,-0.2383325277624017 1.6287997421275258,-0.39272897054236605 l1.3342634523587118,-1.0995224923014342 0.43406563140584153,-1.6468210732613076 l-0.2376248392671968,-2.4055763141826954 -0.9674041551013066,-3.0865308775125713 m-19.8918748771806,-12.68583364441601 l0.9615729994879422,1.8263164281952453 1.2979913260153755,1.927455401377978 l1.1490722312218724,1.345155175624968 0.7765451177975902,0.31116288070440284 m14.947368624118349,-7.6836695768155145 l1.827489057446085,1.4544640159243154 2.0157200767032815,2.110446318317783 l1.7847602479176587,2.541617224376123 0.8741011003695157,2.0274617273581854 " fill="none" stroke="black" stroke-width="1" /></svg>