<?xml version="1.0" encoding="utf-8" ?>
<svg baseProfile="full" height="97.19201235910393" version="1.1" width="100.19384026275145" xmlns="http://www.w3.org/2000/svg" xmlns:ev="http://www.w3.org/2001/xml-events" xmlns:xlink="http://www.w3.org/1999/xlink"><defs /><rect fill="white" height="97.19201235910393" width="100.19384026275145" x="0" y="0" /><path d="M25,25 m0.0,0.0 m29.02762198557029,3.276472340957667 l0.3333481990296337,0.3424626674247625 0.5889778789218204,1.6061956119607441 l-0.030718112436202004,4.816890187153595 m-17.06088459010008,0.1603526758398068 l-0.48779161864101683,4.427814324059771 -1.2351900961279565,5.162287414364424 m2.185909241603016,-7.670025005546065 l20.40827448170555,-2.3767524811046545 9.73142065940319,-0.8269612661674803 l4.789334460374525,-0.11254212543431198 1.2403291044101257,0.2868460429457643 l0.5862164724901019,0.4612820408370786 0.11699219654845275,0.5877902518182776 l-0.8436978847206942,1.3936968203031554 -2.5871837220589016,2.1744723935266235 m-26.875974598338768,13.343126943995708 l0.450924327149884,1.2620089060947153 0.21860601135303512,2.522292334300463 l0.9947047194400228,13.202566641138624 m-0.9508664415145696,-15.883969970376377 l19.12892392156937,-2.025096947277951 1.3768252521894413,-0.28983541814682273 l1.28144172826127,0.34670137301870046 0.4948404275549895,0.8945783152830447 l-0.08385087310178466,1.1738373687370636 -1.0197775578015467,8.629373022921204 l-1.1244472065211626,6.036923470491158 m-10.853859834062467,-7.509228342002451 l0.48748210404305525,1.2967174279322016 0.03731113109272056,8.96291425400031 m-9.985700641458823,1.5188210860551623 l20.473151368989043,-1.83490442635769 " fill="none" stroke="black" stroke-width="1" /></svg>