<?xml version="1.0" encoding="utf-8" ?>
<svg baseProfile="full" height="96.32584884490099" version="1.1" width="99.95247830943153" xmlns="http://www.w3.org/2000/svg" xmlns:ev="http://www.w3.org/2001/xml-events" xmlns:xlink="http://www.w3.org/1999/xlink"><defs /><rect fill="white" height="96.32584884490099" width="99.95247830943153" x="0" y="0" /><path d="M25,25 m0.0,0.0 m9.8491681592431,3.5503409567932978 l0.4957702792975805,0.2116965654271299 3.4234472365761053,1.9682937789267185 l1.5569459692355303,1.1156711108597084 0.8199701258084235,0.9438108212585152 m-10.221752567031094,8.268072623469504 l4.073646076033274,1.784501627601764 2.178773045224123,1.450637325360209 m-6.522343696844908,22.112383267809566 l1.1212040333306583,-0.10134997499810953 0.7889109381900198,-0.7235197253820397 l2.703285740547682,-4.0333630005639876 2.683667484603385,-5.041685729491969 m11.81626060595622,-23.48158086889461 l2.944974360912652,1.45299961462022 17.84452630488378,2.2811394233617563 l4.396024213464995,1.7277308827381022 m-30.974389320568413,-11.080713872224592 l1.0884979519558569,0.962365182185869 0.29076236946467837,1.321195959386579 l0.8685859733239505,16.64915710696097 m15.16551177948018,-19.50364072008682 l0.4963153589022843,0.7488219022328529 0.1530641820613029,1.2845000231276433 l-0.12647216169782427,16.468011681248345 m-25.318619399231224,-6.03346960959962 l3.395830409298244,0.10899182114697242 25.6245831210147,-1.5454634473986717 l3.713109397631794,0.12665517133248258 m-37.37254253247336,7.741814226082974 l4.18917027252116,0.20779724530794638 13.707087363534178,-0.8254384081271074 l18.765092097059405,-0.7325288169390096 3.7711184645211264,0.2907642147272482 m-33.62955259173233,6.3066002526507585 l0.6765372416150623,0.7733293090240507 0.20692956908123486,0.8966736530751455 l0.013188380210262167,17.680630437247668 m0.3806739264895989,-18.554800782644218 l21.04193041820081,-1.3447594163323346 0.843575838324877,0.029116676543099827 l1.13064187051553,0.38489118754360824 0.7184328042023004,0.8673261565057638 l0.10986106927044823,1.187871373519453 -0.7883401983406285,17.22243451814433 m-22.944131502053764,-21.142735661369922 l0.643436692876788,0.9727274273167126 0.1848035903117392,1.005512015993439 l-0.004233486673374761,20.366433339423605 m9.071119118371627,-22.514059715400034 l0.5485524041722348,0.8843926667725152 0.1448206134881716,1.1188340658310547 l-0.04242967911214228,19.18741025122026 m-10.840350618137181,-13.845334717752577 l9.263591365721425,-0.8096669412977636 m-9.729939878118548,7.082187296931475 l9.993914990732938,-0.7115922328001312 m-19.081879074698904,7.584855078968707 l2.711156002827458,-1.5266777953142714 8.164478629123728,-0.9301623664599074 l14.47675157339067,-1.160822322731192 3.680673396304047,-0.08298775880442609 l2.7180918376813437,0.25788296295849183 " fill="none" stroke="black" stroke-width="1" /></svg>