<?xml version="1.0" encoding="utf-8" ?>
<svg baseProfile="full" height="111.5777792599855" version="1.1" width="101.87451524822568" xmlns="http://www.w3.org/2000/svg" xmlns:ev="http://www.w3.org/2001/xml-events" xmlns:xlink="http://www.w3.org/1999/xlink"><defs /><rect fill="white" height="111.5777792599855" width="101.87451524822568" x="0" y="0" /><path d="M25,25 m0.0,0.0 m28.685743065566207,11.86711641695429 l0.31211772506352237,0.3763561346850653 0.40712016585915833,1.323840066264928 l-0.01846242363485093,4.373904645597729 m-16.81152736308577,1.9989233164377302 l3.35263331830342,0.20559753716633658 25.375608207332036,-2.5729847937956505 l3.8250957548187317,-0.10675000183316126 2.4931846478274613,0.2898817069425094 m-32.16193704650091,2.8676898506615336 l0.47162196737666695,0.7462000927931024 0.17173076914809007,0.98000891855522 l-0.2792137107252836,6.045569697581512 -0.6681005988376698,7.127071315429487 l-1.0864882179188506,6.332512123015595 -1.225929623030652,4.575006227960252 l-1.2345858860769494,3.386899010531415 -2.1279962575001354,4.202663048360185 l-2.028444613401813,2.870723755490139 m12.553531180218505,-30.66524956260751 l2.3344190392144037,0.22735167836060644 8.626574840131372,-1.6353828117159224 l1.4177493933613319,0.025783136675057838 m-6.475175197425254,-3.3132483868950566 l0.46002286676981363,0.7991172496622734 0.15182867465241554,1.0121548927170765 l0.01446899950739567,12.907298255650137 m-0.6347836628880976,-9.698975376350296 l-0.4605930980462753,1.6570570458202383 -1.8575795710910397,3.0448912387361413 l-2.3650468197925933,2.8434420675077887 -2.1648756773173714,2.1513855433396554 m8.879524260684565,-8.066775488484513 l2.022570343043606,1.5025815180308173 1.8528567697337086,1.964146463929552 m3.0243324901377946,-7.065116097066003 l2.5264674578328203,0.23499920909233857 9.588353252276837,-1.6342443953506853 l1.7736061201937363,-0.048814718824244596 m-7.545654713043759,-3.0616078194970098 l0.36242116288997955,0.4605389287402863 0.23945506292403249,1.0026713904386637 l0.04306087880299987,13.443589318777393 m-0.842014429222352,-10.322237097779052 l-0.615979441349247,1.972798604038032 -2.344197539109307,3.629661523939636 l-2.4718164633957165,2.719627494692806 -2.410408492567319,1.9065579185835415 m9.20971777165982,-9.747806224084906 l5.145925532249055,5.266172209583802 3.3706753762612176,1.6730064549130825 m-13.206919555245717,2.071560047659674 l-0.19065898155817887,0.4446266833411311 -0.7124243282355659,0.6760520806074425 l-2.9038784851228687,1.9005297122627798 m-4.158631274221542,0.7202296008608903 l0.4518560463879608,0.786419439061957 0.304945888691647,0.9998561383063453 l1.1857797496563565,8.113383210357238 m-0.9218199643851811,-9.147265885696445 l14.349075604006513,-1.6494880855408323 1.7796846564244713,-0.0007359264776741819 l0.8733692153998065,0.6088711080336543 0.12105047260958651,0.5321068606278576 l-1.448144424811252,7.128770837120411 m-9.874755386264948,-6.202923557638688 l0.4322789285496174,1.5284386980198885 -0.04591873952776786,5.72280985668607 m-7.750562044649871,-3.5478619884202427 l17.060932938110945,-1.6341825839855675 m-16.196491188708592,5.990090205627452 l15.391657108823674,-1.4254687816911034 m-12.25725827164337,2.4314901847375805 l-0.04612462533385547,0.9964567881346538 -0.779078995203193,1.6264685607249063 l-1.3691006481917516,2.092259180014775 -1.6781324007696214,2.125188454838947 l-3.805799644537494,3.7366469559160307 -4.067883339538956,2.877848233124388 m15.931708080887589,-13.728092007207412 l0.5170773174688708,1.1899979586992087 0.24707976207805143,8.763727762335428 l0.41851770866561094,1.134216475687902 0.6012219569709376,0.6649420638722348 l1.2638372047923303,0.55812492191853 2.3560128695260283,0.34187220933239937 l4.256915724886959,0.04284305040386368 3.107456797225009,-0.305141934993149 l1.0455758196576936,-0.3632225885288669 0.7304574474762785,-1.5392217376316377 l-0.009797795773244617,-1.5478218056584616 m-8.061602427096872,-8.563650341041892 l-0.0649914465515596,0.8577229908389494 -0.5032581622604687,0.9168022542544352 l-3.109804892116448,4.623829111679101 -0.20455243947942867,0.5539167690657634 l0.1979218396453785,0.46105505159272736 0.6166293165205226,0.07023015867205301 l7.472897735167192,-2.2614731816172724 m-0.9350061807573548,-3.0435955579163565 l1.4191135919193598,2.5472323038042313 0.7912615195677312,2.3643699229627355 " fill="none" stroke="black" stroke-width="1" /></svg>