<?xml version="1.0" encoding="utf-8" ?>
<svg baseProfile="full" height="99.31320137552592" version="1.1" width="103.61359599586518" xmlns="http://www.w3.org/2000/svg" xmlns:ev="http://www.w3.org/2001/xml-events" xmlns:xlink="http://www.w3.org/1999/xlink"><defs /><rect fill="white" height="99.31320137552592" width="103.61359599586518" x="0" y="0" /><path d="M25,25 m0.0,0.0 m9.02615702091799,3.8278115188687427 l0.5008204444509265,0.22546154255035514 3.4002828527269826,2.0412489200122277 l1.6216074756994598,1.1994348209856538 0.8409550365734705,1.0062044808840516 m-11.0612166163716,8.90967168201743 l4.293769609510309,1.9941169525306819 2.1392371265725774,1.5344186387922725 m-6.128257169910947,23.83796455750651 l1.1689642181531101,-0.010960451518494339 0.8146159817198186,-0.7786122126338055 l2.644778410863189,-4.461620725725231 2.6423828305326063,-5.418785244150475 m12.332446862948029,-24.169439627238816 l2.770144185218134,1.5234472959265726 2.1316518274732656,2.44186785545958 l1.4490528897607418,2.2211550651788627 0.8489604497478485,3.1252034482404882 m15.81946022587847,-11.01643694671178 l-0.12304919007539232,1.5805913419705047 -1.3889607850455306,2.6034812591661805 l-2.3993672543526583,3.373598401173559 -3.024611580300518,3.5278805729926397 m-18.696094861098977,3.2986306398236613 l0.970925562304999,0.1736735008786259 2.0175631269238474,-0.009354520997613042 l20.8208771310028,-2.133130543034818 3.644658743709793,-0.14357410113622787 l2.749009180686287,0.23532497871763083 m-31.934055270388885,13.522244468563866 l3.0865777823989737,0.26455077374244307 2.5365314515977886,-1.6417227714334277 l9.026230474440707,-2.5804917850517075 7.30041716938144,-1.5994524462497124 l3.0984465803991927,-0.2874452359707384 2.569163785493155,0.15433556937139528 m-15.123391083685851,-8.353776376230547 l0.5456982500237841,0.79845299757002 0.21188474913612748,1.078661071281551 l-0.5803717896273044,7.675699563302205 -1.1381776161279316,5.028292854444381 l-1.6163828640792899,3.878291826884248 -2.2534160345579215,3.497585679727746 l-2.9721549223768586,3.0338227988582913 -3.717339444696735,2.4765042460980125 l-4.169963281437486,1.8283750400889183 m17.61390715064654,-17.270877249415438 l13.568086985947993,12.282117878928535 2.9208847531984885,2.7076719303568484 l2.8142554339602324,1.907283969727477 " fill="none" stroke="black" stroke-width="1" /></svg>