<?xml version="1.0" encoding="utf-8" ?>
<svg baseProfile="full" height="109.71445677265336" version="1.1" width="108.75866686722387" xmlns="http://www.w3.org/2000/svg" xmlns:ev="http://www.w3.org/2001/xml-events" xmlns:xlink="http://www.w3.org/1999/xlink"><defs /><rect fill="white" height="109.71445677265336" width="108.75866686722387" x="0" y="0" /><path d="M25,25 m0.0,0.0 m27.992804653118057,3.468228988868443 l0.32710677310611963,0.34174874897051194 0.48571587552913825,1.7879828525877361 l-0.05670267764233995,5.818325168918539 m-18.373111817054756,2.408060427198572 l1.8059728372739718,0.40615217972706563 2.3037962379017842,-0.03671100485921903 l26.879245240171528,-3.6426109227928842 4.379667671497005,-0.2213965799477074 l2.8577207755707743,0.37757437692192813 m-35.797651658692146,3.6994347248222486 l0.4783329146041356,0.8526645128182521 0.20933554349585853,1.2311462240330522 l-0.15166383931211197,7.071612111876536 -0.5748461888178605,8.118524587479778 l-1.0459504407559737,7.381287591956054 -1.2069061799280187,5.2546229489497325 l-1.2502979220226966,3.8866400664605387 -2.2225027882523287,4.798228252480978 l-2.1008611860099706,3.1761033767164353 m36.306379023119725,-36.723357524388575 l-0.7564439547857805,1.4933857401043382 -3.223164033264226,2.5459184499977274 l-4.250337978554348,2.4322616117881832 -6.208920356927432,2.8294441416507965 m-2.1383031355724187,-0.47414634588032145 l0.759193588419639,1.3846832869420196 0.1476246184278772,1.3433482402667787 l-0.12478252082681346,21.249108657563703 0.18787902276044385,1.7334569598394736 l0.4316192476599767,0.49848142803489437 0.6719254832598933,0.020765476926659563 l1.02625953954543,-0.5508393882351539 6.6611163778128955,-4.929447518938768 m-6.982583881887523,-12.571795724138287 l25.348115889373144,-4.039464666541311 2.527391056235436,-0.1481194426002989 m-18.304030435696433,-6.041097501011734 l1.1113444244374266,1.8119629471354903 1.5740493387166934,6.751020621849052 l1.9259760113722713,5.206628859599395 2.597259391313294,5.4541125429991055 l3.3870588807997075,5.169100024108244 8.139437885931224,5.146454024661458 l1.0092056562489715,0.45774454153695887 1.2288800450636577,0.07696029766489805 l0.4964482001616309,-0.34027412441943133 0.2708656602993306,-0.6397444770129962 l-0.0798062456452025,-3.0931554577809397 m-38.38888726395898,7.291205019639057 l2.820458823159243,0.1922374381063576 21.53007492217994,-1.2384610183775788 l4.3727606164784065,0.16874829747217346 " fill="none" stroke="black" stroke-width="1" /></svg>