<?xml version="1.0" encoding="utf-8" ?>
<svg baseProfile="full" height="106.8236352566498" version="1.1" width="98.17369942420046" xmlns="http://www.w3.org/2000/svg" xmlns:ev="http://www.w3.org/2001/xml-events" xmlns:xlink="http://www.w3.org/1999/xlink"><defs /><rect fill="white" height="106.8236352566498" width="98.17369942420046" x="0" y="0" /><path d="M25,25 m0.0,0.0 m12.525317233485026,15.561775866135061 l0.4465413663150676,0.07594636466056993 3.277721767963469,0.002035871148661503 l23.668853166974475,-2.6157221869939487 3.6728717506924347,-0.2665928294157008 l2.1108757013512776,0.20715507814803377 m-18.270060889960337,-7.139650444576212 l0.2529358997308302,0.8532787167149111 -0.08494603960414397,1.352787467567765 l-1.266067281219793,5.093983551944102 -1.9902006286829703,5.111233346439184 l-2.203908801681826,4.118707928819689 -2.715382922747317,3.75097369071261 l-3.1347929530913787,3.3313207737473003 -3.563329268702276,2.8274545899136987 l-3.615673175940082,2.065714156363073 m20.709713669526007,-19.224907936965536 l8.987564212347147,8.379512343407297 4.699025650696444,4.31557586068305 l3.0742469582109724,2.365902952897455 1.592394008537437,0.8114428882540708 m-29.718704130070854,-1.0749560210836697 l0.5594446354607054,0.14159120068183143 1.3287453337631165,-0.039784388777426245 l14.105494275408729,-1.7919676400030566 2.455218517355112,0.1909712739494903 m-22.62306464318588,9.675469329185239 l1.1388176593788504,0.275304111844603 1.859496506884403,-0.008058565582523203 l20.390630210726076,-1.954776996987522 2.0415840534048937,0.19822019243147118 m-13.843608298274534,1.9689479376923404 l0.5946589633494649,1.2500175679014998 0.08202591760993291,1.4899713628493638 l-0.1461310595017991,14.527698175642032 -0.2564099891155822,0.7780864297438315 l-0.4128586531215248,0.2189732375571587 -0.5177373994826304,-0.2249889464241457 l-2.3953075472578584,-2.2598693016116633 m-6.525862151309379,-9.472135294307247 l-0.1793130438751907,1.4883140475817938 -1.8553898796023873,2.1266636978939726 l-3.194625321241155,2.658306630343879 -4.518100610783146,3.4026124220219534 m29.24735914991509,-10.584449099316313 l2.6035452795967626,2.0378705822346093 2.540783875011448,2.7033839904998556 l1.8674441867553562,2.5544268324848187 1.1579065695694843,2.2173115110099264 " fill="none" stroke="black" stroke-width="1" /></svg>