<?xml version="1.0" encoding="utf-8" ?>
<svg baseProfile="full" height="101.7736704721636" version="1.1" width="114.59908594820517" xmlns="http://www.w3.org/2000/svg" xmlns:ev="http://www.w3.org/2001/xml-events" xmlns:xlink="http://www.w3.org/1999/xlink"><defs /><rect fill="white" height="101.7736704721636" width="114.59908594820517" x="0" y="0" /><path d="M25,25 m0.0,0.0 m30.70891954032704,2.9731928335021416 l0.427720260534654,0.4183833567353851 0.6460071914839963,1.6350054062137924 l-0.028302426447604608,5.546933553751845 m-21.40437071880028,0.31738513219357906 l-0.6883115360613924,5.113572887274154 -1.5363590707940815,5.74876655418736 m2.8209442802091282,-8.633002746975817 l25.04206346086346,-2.839906447702246 12.154997515066434,-1.0182137524875845 l5.981036420034733,-0.23095880668852597 1.8245110127668045,0.30078978026953224 l0.8474421640178766,0.48442823868655904 0.252299743008842,0.6278079356466874 l-0.21239432564386768,0.7261737306939909 -1.486578387704626,1.59866205510263 l-2.952550488665233,2.075670490797076 m-34.68258853469673,16.119918397488753 l18.37507863995972,1.197492937867586 3.472952477235595,0.27032614835072555 l6.26448354369082,0.3513190629155989 4.6172995582212595,0.11630804118836284 l3.9221924327721704,0.602425890375846 3.7539262292562174,1.2170231124076594 l3.842654473155418,1.7331508729208467 1.7612440211438263,1.898564907641167 l0.8747684732709854,1.9850105131619407 -0.12075346809322318,2.1490539545977794 l-1.094464355714874,2.1709937073411822 -1.6883682435722207,1.807459984508153 l-1.9494423900746878,1.590401708565699 -2.008750653840059,1.4676252924634416 l-1.9675287658590719,1.2999115449890244 -2.9625782805024445,0.9519941941792778 l-1.7637453357537554,-0.21959852378559352 -2.630272439916042,-1.402261237676829 m-3.444617468975437,-26.526174659283516 l-0.24233275655707903,0.9687684710169958 -2.442551462773168,3.7946390234472704 l-6.536777197934401,3.646696781356357 -9.290267885112563,3.600214698216188 l-11.757265570030114,3.6184136221382 m14.603378566729344,-23.755851382070354 l2.9019942997770736,1.8848163316719149 2.9901394658239364,2.606379416870946 l2.7710096415360095,2.9127827866622304 1.7673309221710054,2.640076476730736 " fill="none" stroke="black" stroke-width="1" /></svg>