<?xml version="1.0" encoding="utf-8" ?>
<svg baseProfile="full" height="112.23453400574309" version="1.1" width="104.18392583954714" xmlns="http://www.w3.org/2000/svg" xmlns:ev="http://www.w3.org/2001/xml-events" xmlns:xlink="http://www.w3.org/1999/xlink"><defs /><rect fill="white" height="112.23453400574309" width="104.18392583954714" x="0" y="0" /><path d="M25,25 m0.0,0.0 m30.54775749825902,2.6593682724734395 l0.3944368465519013,0.25294483172598775 2.196821469698726,2.2553550638727002 l1.4848573396772817,2.370527429977536 m-21.130495603670227,4.451259331771677 l3.3268192249869792,0.3353932097772351 32.41224802245602,-2.696704162040414 l2.941351460525872,-0.10129045929549518 2.0101295810615696,0.3528205871299849 m-35.93166695237349,3.0722179418068145 l-0.37881528368606976,13.060755529462853 -0.57763715402689,6.16132642055314 l-0.8813732767616302,5.548193105460794 -0.8718092842132338,3.6542211347462614 l-1.584105376337689,4.711779563046648 -2.116772799685814,4.584729499463622 l-2.7071129742812996,4.744589338188086 m-0.9533160546721892,-36.527373845647396 l1.3112276539468177,1.1950367217851399 1.7032849300879116,2.136535781097452 l1.524428924183965,3.1549575601400646 m-6.64730670852538,12.895273026585585 l0.6044882821579398,0.2100764199624556 0.914284992001713,-0.13734829176439187 l8.259154044377485,-6.307808619377282 m8.903808012354713,-12.240272776535784 l2.6898924651313494,0.20037122432619606 19.477810653104452,-2.1490887856726824 l3.5404400618027854,-0.17242766734391574 1.8497670591442243,0.24438322448811334 m-13.748148906217713,1.8267379748304498 l-0.00525120844638454,1.7430855468857558 -0.7558103344376045,1.8112220900908453 l-1.6995517226403418,2.739873778038431 -7.433723572674307,7.7877911468427685 l-6.528426177314908,2.289768218756863 -4.027275271259027,0.7918074123660884 m15.767721698218795,-8.379755344364696 l0.4484993818333276,0.9895656896962419 0.16550840634926361,9.745373668391007 l0.26088126596248273,0.9292920867246091 1.5445620232251682,0.4739236490527664 l3.6914744122894536,-0.5984691197183445 7.768161948556274,-1.2091294791575031 l1.344199945079704,-0.4227293066952631 0.6976472778725841,-0.44694508145704676 l0.4391386546764044,-0.7685834825083423 m-34.65702947736636,11.881951491244003 l-0.241953956695028,0.2947516169683374 -0.7401866228286913,1.9432104531463397 l-2.3848058685547415,3.7117139473039633 -2.5286182592414956,3.002729409117329 m8.926899267858085,-9.661864880592228 l2.2153114586077,3.9289675877620915 2.468316089181924,3.22109024663829 l3.0746878376797437,2.8399832632971855 3.753302808473103,2.0375547705661696 l2.6569542493424283,0.924462313001043 3.043345552354758,0.6294660866434111 l3.520074151697402,0.2578876427080926 3.084853309039548,-0.15849168451029724 l1.582987462448196,-0.301005670391231 0.6954451817960716,-0.3924595954354322 l0.24552377537540207,-0.5270001607678234 -0.1999314504540885,-0.6618523722769257 l-1.6268621853847904,-1.7355748882030582 -1.5846534660371885,-2.2459275528085016 m-12.631622344528328,-9.769302630215472 l1.085919971044304,2.468839821930744 1.1766162583207216,1.2009572857047255 l0.5780599136502653,-0.09427740671539983 0.5448389594221396,-0.8083584010935433 l0.4919022201182711,-1.702655349828262 m9.469186220195876,-2.6907856549809948 l2.3222522581909972,1.0929020752445022 1.8950261417258332,1.2757847577631767 l1.7980933342160004,1.8026251131022446 1.547971109911389,2.239352159380071 " fill="none" stroke="black" stroke-width="1" /></svg>