<?xml version="1.0" encoding="utf-8" ?>
<svg baseProfile="full" height="102.64063192527748" version="1.1" width="109.62641853216721" xmlns="http://www.w3.org/2000/svg" xmlns:ev="http://www.w3.org/2001/xml-events" xmlns:xlink="http://www.w3.org/1999/xlink"><defs /><rect fill="white" height="102.64063192527748" width="109.62641853216721" x="0" y="0" /><path d="M25,25 m0.0,0.0 m6.849365459562137,13.945580838367992 l0.33150063733933116,0.3831137560054639 0.8429634125823676,1.6188059233730279 l1.500352828240609,25.378626635260108 m-1.348527908029902,-27.130377411176546 l14.33492648522232,-1.655929411358773 1.5725590367107538,0.12027748249676438 l0.9387003842939781,0.8354848642776759 0.2706210331220198,1.2422015008748055 l-1.4010416315848522,24.19874741108251 m-8.33768059105752,-24.52517823979351 l0.627717629414798,0.9192810245281449 0.198456227925206,1.1606755120054204 l0.09423520203833045,20.576701523121258 m-7.340106087696325,-11.026567400354574 l14.71087783406554,-1.3506218051377241 m-14.201052957755383,13.322374630421514 l13.913040778309963,-1.0208658798523114 m5.9036260642073,-23.648800686647668 l3.389832513156668,0.22258037867581557 21.56840180703969,-1.9211989638873739 l3.3890093616872856,-0.1522567815893674 1.8186410133729018,0.26137058813554037 m-15.517517256028245,2.5164517085391824 l0.9090095130669279,1.536399898668457 0.2286004359870536,1.8941241846718728 l-0.13633897247429655,33.344077133816604 -0.2919977464014311,1.0076740444952548 l-0.44661549260427497,0.49056370405450456 -0.5613950464396167,0.09731576220340732 l-1.3652613833030542,-0.6349126680175884 -2.7521967029950756,-2.5925826055390138 " fill="none" stroke="black" stroke-width="1" /></svg>