<?xml version="1.0" encoding="utf-8" ?>
<svg baseProfile="full" height="95.43673091733177" version="1.1" width="115.47209431706999" xmlns="http://www.w3.org/2000/svg" xmlns:ev="http://www.w3.org/2001/xml-events" xmlns:xlink="http://www.w3.org/1999/xlink"><defs /><rect fill="white" height="95.43673091733177" width="115.47209431706999" x="0" y="0" /><path d="M25,25 m0.0,0.0 m30.898510128155106,2.81808992568932 l0.35520254812102864,0.3863331871999543 0.4996651384070355,1.5430090345080973 l-0.05337234883993659,4.533472963046753 m-18.237365023529495,0.7411277653011387 l-0.6571250833072968,4.480531536701407 -1.4235699275230689,4.886829648192335 m2.5244867595756935,-7.613847568340438 l21.012062906464188,-2.5029998602180292 11.189465064502299,-0.9092810445098733 l5.014186945396802,-0.14532310781108063 1.5552870129612655,0.32394910807070826 l0.6503304353380626,0.45716864758948206 0.12776471292015149,0.598573025967697 l-0.9034821810606312,1.4002125853536735 -2.858989380922886,2.3347701525499396 m-30.027099510357125,13.945828426760599 l3.1440206380825124,1.1883103033630478 2.2968868923870596,1.4954122788125235 l4.464504213177711,1.4812840645589298 4.441685413105567,1.8105006584131391 l3.2086254550992277,1.31276154464318 4.615084652168657,2.290546484821232 l4.830140372028513,1.6820722000349353 3.291814779266433,1.1781217265390753 l2.0841859701829994,1.0681412151034453 1.7729491527371302,1.0613785163129223 l1.6535343257340347,0.9808831643739736 1.4673203658362692,0.8487827072924999 l1.4393055173362337,0.7395336067719368 1.4875568652962963,0.6164695289203778 l1.6296354715543115,0.37026122652795024 1.6343932151064247,0.03382726479092723 l1.52441626476848,-0.47712775236370897 0.7289820466144801,-1.082446813050324 l0.0910945102864364,-1.9148675360091718 " fill="none" stroke="black" stroke-width="1" /></svg>