<?xml version="1.0" encoding="utf-8" ?>
<svg baseProfile="full" height="110.9054766659196" version="1.1" width="100.20742803906741" xmlns="http://www.w3.org/2000/svg" xmlns:ev="http://www.w3.org/2001/xml-events" xmlns:xlink="http://www.w3.org/1999/xlink"><defs /><rect fill="white" height="110.9054766659196" width="100.20742803906741" x="0" y="0" /><path d="M25,25 m0.0,0.0 m28.458903424561658,7.799625492876287 l0.3884294818185861,0.4413863253027059 0.581688132664209,1.5545604281605463 l-0.04310611737688203,4.219158236361389 m-17.588687299128498,1.0202926748099397 l-0.7588527047526624,4.077739639487231 -1.6246746858531818,5.0357219412732785 m2.827712160096084,-7.599568378066218 l22.136344622091844,-2.3330368956083434 10.385282856147892,-0.7476200338137476 l4.168814300953951,-0.017854467327204956 0.9930985872225062,0.37310459460826234 l0.28247528062189403,0.5561127991641536 -0.25174957675373616,0.6922936766777605 l-1.457913540749054,1.5189422248934032 -1.875723447923833,1.3798736102951432 m-32.17520564325298,0.9773106983878993 l-0.23352711324522374,0.9032444684809461 -0.4539969902262066,0.967171641039406 l-1.9508214513152895,3.040682672448237 -2.6521113248010653,2.824806349560388 l-3.293347166976599,2.51573494963971 m21.438749492622197,-12.8828912451005 l0.5275322217803071,1.3734361551867025 0.07473472589873595,4.684373289183949 l0.314634288262096,0.8211104944608124 0.6623308603889322,0.6369477161426165 l1.7729770470265886,0.5049162764247827 4.095765692635784,0.14345442253642207 l3.3709699782780187,-0.11177013121209778 3.652413632042679,-0.5106330355342258 m-23.182418386539513,5.6838504858616155 l-0.08507095465407521,0.4903968426642817 -0.5939081550354206,2.2478773205233455 l-1.9176016026397373,3.8529066357869803 -2.27736538656401,3.1487885959267663 l-3.7226977720710255,3.802060975075061 m8.545342862159877,-6.591643722797214 l2.894393842042276,0.07504620824125151 16.511435104038892,-2.1271457742450135 l3.7480377150489845,-0.2002307480697224 m-33.129256045171005,3.7161319278831964 l0.2399784421159843,0.8566414148202554 0.10416546273833165,0.9935316423295796 l-0.02842071410159287,15.768692810564373 0.5032557350689709,0.08222596745929514 l0.8444515895372169,-0.21589014481621283 11.810311286325012,-5.690956285687291 m-0.8533397854021926,-11.2359574664904 l0.5467534258799839,0.9059861952598056 0.14746663620638165,1.1061904796924589 l-0.011578997101880827,20.378346715197544 " fill="none" stroke="black" stroke-width="1" /></svg>