<?xml version="1.0" encoding="utf-8" ?>
<svg baseProfile="full" height="96.31185572965686" version="1.1" width="92.32995118449819" xmlns="http://www.w3.org/2000/svg" xmlns:ev="http://www.w3.org/2001/xml-events" xmlns:xlink="http://www.w3.org/1999/xlink"><defs /><rect fill="white" height="96.31185572965686" width="92.32995118449819" x="0" y="0" /><path d="M25,25 m0.0,0.0 m28.26581939670285,2.2646350219010993 l0.006874994718057597,0.37446939421152303 -0.40655584034083236,0.8411445790017804 l-1.7468762333213355,1.5631987819871596 -5.295696072515381,3.0765962601702435 l-6.034278082412065,2.377096211677016 -7.086651582758255,1.9372510845420206 m-1.7040402917279334,-9.44441130306157 l5.029053096402839,0.7432858496402459 5.7543640985386775,1.689641741531493 l5.380624852777466,2.3699289182413557 4.790382789598809,2.9676542626138347 m-11.51771165835423,1.4266159498117115 l-0.11032568164133592,1.6329244020386005 -1.3502528624137422,2.6468721417025063 l-1.9800917672451348,2.9960275787106085 -2.487300323012579,5.073165991609073 l-3.936423583556483,4.483073095676088 -5.5208354302331095,4.344171145959726 m0.3330513665936126,-15.43691763508787 l1.618411057208929,0.25510878801812603 1.7363181830930474,-0.004552615891788534 l30.36530643884833,-2.4446528408793164 5.487210131679541,-0.159813548300761 l2.739574187868453,0.24458079494213555 m-26.44481332667976,7.756190509092411 l0.6595349663777823,1.5617424749012858 0.09460846709063735,21.17682869489812 m0.09867167805719214,-22.519010831592418 l14.145428198570793,-1.9047735627913591 1.4304075509659437,0.2603349170602963 l0.6897790509694599,0.7024341078326096 -0.3415140807802196,22.025129112776433 l-0.39861766356565187,0.9088422426239599 -0.5884265284641802,0.2763307484228035 l-0.6913545585671543,-0.24319213481101054 -0.7199008298934297,-0.5758596163868732 l-1.499023936708438,-1.5784870231763748 m-11.752850632056122,-14.331297894362995 l10.054924533548576,-0.852402827687501 m-10.136473247505048,7.017155403881445 l10.028193848631274,-0.770660353610698 " fill="none" stroke="black" stroke-width="1" /></svg>