<?xml version="1.0" encoding="utf-8" ?>
<svg baseProfile="full" height="98.99221999795662" version="1.1" width="121.64302146209766" xmlns="http://www.w3.org/2000/svg" xmlns:ev="http://www.w3.org/2001/xml-events" xmlns:xlink="http://www.w3.org/1999/xlink"><defs /><rect fill="white" height="98.99221999795662" width="121.64302146209766" x="0" y="0" /><path d="M25,25 m0.0,0.0 m18.65627942382129,8.054487245031163 l0.02022707006596317,0.45322124152897436 -0.29572990255230003,1.0784072299797876 l-0.9438409354047251,1.61373873120211 -3.285106740267413,3.795332414539 l-3.987572949924997,3.3475446025833233 -4.577113789146436,2.9955623143642893 m14.897467476672308,-10.662376861805756 l5.582059333633824,0.3750979659766672 3.212256969520129,0.832529524312615 l2.411703024993335,1.1634219833320487 1.7167009607684325,0.5056119356413205 m-19.66426843508148,3.1880395542460587 l2.6864505253477424,0.024517996693767172 9.70222033598393,-0.9536211147649928 l3.441702504669418,-0.006858695113207652 m-20.015462723630446,5.491358250008626 l0.5875352626888728,1.3844842623774882 0.06931125588860632,24.694309194211822 m0.2537273420345155,-24.698253078409245 l17.141016873997692,-1.4849198588418022 1.5774340610227013,0.2943487234604321 l0.5572672330940028,0.6269123851244685 0.15155016564568063,0.5666156123689242 m-18.342214496382706,4.903745192266722 l5.630548401868137,-0.5266938278702641 10.044540138044495,-0.8431307188371919 l2.684727828491691,0.01102740801266173 m-18.620865802400285,7.869088411612244 l16.24600968491201,-0.5206637302816164 3.1814167062036978,0.10776192892175375 m-19.15154533589303,7.858641190744053 l15.415108904615344,-1.0770310386839865 3.8419155305056196,0.019762584671358246 m6.100484684818371,-25.910814356866496 l2.4462498479010835,0.30003964595661453 2.597279581674754,-0.027128357838377987 l23.320834070984187,-2.118337866177277 2.6779765005832292,-0.060838129967982296 m-17.676897700969914,8.530590283843642 l4.535963028589962,1.048093857942966 4.312888911339792,1.4522090946040604 l3.9722351162187266,1.4190223263853645 -0.013462591525223583,4.3042162267983635 l-1.8843829962124417,5.396439249449774 -2.2401946985622336,4.636306995159872 l-2.3806440083158265,3.7445188846360304 -1.6966084934625831,1.7788500638416727 l-1.5918215268734828,0.7379548899384265 -1.6005613822109181,-0.18441639644002195 l-1.916321839107319,-1.3480214303080431 m1.9346714367632445,-29.318118068641024 l0.11687594714289225,1.9314862915611144 -1.1636409871154745,3.7592875000845942 l-2.0375199223762697,4.560287205516896 -2.5504710403346467,4.59127740539021 l-2.483354658635772,3.6620128287523634 -2.8479743392934678,3.466007732154293 l-3.381911294022749,3.2985061224024625 -2.697969436066586,2.082352613181359 m7.281324940508057,-21.424418615701875 l3.827336852645254,0.30439780802737515 17.85962049232599,-1.2736645994252238 l1.3140070047602548,0.6888926039626072 -1.645221955005448,1.2344906469911054 l-4.005513937589419,2.64457067049761 -9.415007949803137,5.644875211675389 l-0.5933397297241159,0.7202885937610757 0.17990970570628584,0.5007064055110355 l0.7510738744384848,0.3836445997599951 1.1288533226156918,-0.19620215276699718 l18.894300189441083,-2.387037599165196 1.220376990833446,0.3059247752463128 l0.16812354620829215,0.4021827612088053 -0.5626499038937531,4.966637455793032 l-1.6627399567726782,5.021963394844617 -1.9753989268409005,4.080223871172523 l-2.4625703742275418,3.6422477031104754 -1.7027665327895736,1.3581154624676195 l-1.775598865681585,0.16057743102186275 -1.5418892417257408,-0.75654109567517 l-1.4404773845287488,-1.2010957863042926 " fill="none" stroke="black" stroke-width="1" /></svg>