<?xml version="1.0" encoding="utf-8" ?>
<svg baseProfile="full" height="102.20015338630404" version="1.1" width="99.52974309784369" xmlns="http://www.w3.org/2000/svg" xmlns:ev="http://www.w3.org/2001/xml-events" xmlns:xlink="http://www.w3.org/1999/xlink"><defs /><rect fill="white" height="102.20015338630404" width="99.52974309784369" x="0" y="0" /><path d="M25,25 m0.0,0.0 m9.308298043564708,6.677091006757516 l0.4119557175132992,0.4070897158962163 0.6386723756687748,0.9758436089295698 l2.2385271605953507,0.9834716563359192 18.951795820155095,-1.5785538019160141 m1.5253707259703344,-6.8888079767898525 l0.5393929671489294,0.8455604696652752 0.2653028524362503,1.0667774721292451 l-1.4537930616819896,9.57019703999852 m-27.034362750869604,3.950346895100228 l3.654238169685425,0.3760432766373216 35.02898601652227,-2.7659953846253926 l2.9377205831136224,-0.17021989595844875 2.5176384780212415,0.29417525117933596 m-23.014766079880253,10.001067835106824 l4.374323057273279,1.084269711555478 3.8225509553521855,1.0330063992071854 l3.4973864498502474,1.1978016092834038 0.24229617736787876,1.2275461532728553 l-0.9947721305863407,3.8504624841492565 -2.8820473689062185,7.182840220485985 l-2.9054703140364255,5.69022750953463 -2.3761833598958373,3.613949578262361 l-1.2007248434102173,1.017426229348658 -1.2255122095586117,0.2276128724919656 l-1.1405449991519814,-0.5647699939594205 -1.6218124283346858,-1.7256332030779848 m1.4740888430905945,-29.771058010692197 l0.18598065750207038,2.114999651863317 -1.3733227027366093,4.015925060293244 l-2.354805981860438,4.878534738829495 -3.013729570381352,4.772157067257457 l-2.928545339479554,3.7403359440041983 -3.397892508639324,6.430355141757549 l-3.00204994701133,5.325422013015051 -2.162633685413536,3.1146550409752694 " fill="none" stroke="black" stroke-width="1" /></svg>