<?xml version="1.0" encoding="utf-8" ?>
<svg baseProfile="full" height="109.49251221492887" version="1.1" width="108.53065417148173" xmlns="http://www.w3.org/2000/svg" xmlns:ev="http://www.w3.org/2001/xml-events" xmlns:xlink="http://www.w3.org/1999/xlink"><defs /><rect fill="white" height="109.49251221492887" width="108.53065417148173" x="0" y="0" /><path d="M25,25.00000000047071 m0.0,0.0 m32.18290567398071,-4.707104844792198e-10 l0.1466473750770092,0.22851208224892616 0.6848916411399841,1.7449426651000977 l0.158418957144022,11.722766160964966 m-17.120678424835205,-9.431844353675842 l1.9099614024162292,1.425219178199768 2.495906352996826,2.5584328174591064 l1.6356824338436127,2.173926532268524 0.9158209711313248,1.8490462005138397 m26.03168487548828,-9.710313081741333 l-0.4537608474493027,2.0778805017471313 -1.4816220104694366,2.646421492099762 l-1.7768506705760956,2.2806084156036377 -2.1951985359191895,2.051774263381958 m-32.343645095825195,1.425863802433014 l-0.3687940165400505,2.2996245324611664 -1.0274985432624817,3.5756176710128784 l-2.4453049898147583,5.7158637046813965 m5.107840895652771,-9.246197938919067 l33.439953327178955,-2.5269880890846252 10.156378746032715,-0.5236135050654411 l2.2483783960342407,0.533570870757103 0.5002126097679138,0.49279969185590744 l0.12932364828884602,0.6152743846178055 -0.2078847587108612,0.7167994976043701 l-1.2917861342430115,1.6546982526779175 -3.622673749923706,2.7208727598190308 m-32.343645095825195,1.339486837387085 l0.46201981604099274,0.6336455792188644 0.19426750019192696,0.9298411011695862 l1.5551874041557312,9.795400500297546 m-1.0429691523313522,-10.308505296707153 l21.875276565551758,-1.9215239584445953 0.5237406864762306,0.3735479712486267 l0.30844295397400856,0.6658758223056793 -0.039401412941515446,0.9417663514614105 l-1.966928243637085,6.5214574337005615 m-19.26591992378235,1.874508261680603 l20.42362928390503,-1.3993746042251587 m-28.486335277557373,7.286602258682251 l0.7063247263431549,1.5380248427391052 0.9336281567811966,5.175846815109253 l1.7463527619838715,16.974353790283203 m-2.2445107996463776,-22.050609588623047 l30.92874050140381,-2.4977192282676697 1.5863701701164246,0.0075740955071523786 l0.744517520070076,0.2515566721558571 1.0026813298463821,0.9085691720247269 l0.41793495416641235,1.6466405987739563 -2.8251779079437256,20.59509515762329 m-15.779902935028076,-21.029558181762695 l0.6081031635403633,1.6762924194335938 0.17089556902647018,18.15317392349243 m-15.656139850616455,-9.571078419685364 l24.288995265960693,-1.6435183584690094 m-23.123230934143066,12.139180898666382 l17.709202766418457,-1.2190265208482742 12.184302806854248,-0.49059394747018814 " fill="none" stroke="black" stroke-width="1" /></svg>