<?xml version="1.0" encoding="utf-8" ?>
<svg baseProfile="full" height="110.24393227464157" version="1.1" width="104.90159543657727" xmlns="http://www.w3.org/2000/svg" xmlns:ev="http://www.w3.org/2001/xml-events" xmlns:xlink="http://www.w3.org/1999/xlink"><defs /><rect fill="white" height="110.24393227464157" width="104.90159543657727" x="0" y="0" /><path d="M25,25 m0.0,0.0 m26.44465039770035,2.556576845178287 l0.39936779954149587,0.2279676418656883 2.818830118618,2.2598460460196512 l1.2567280724018797,1.881477387612185 0.7576641188061739,1.6443234715798154 m-19.71453112699681,3.962293342273007 l-0.9096416442711214,5.73665157268966 -1.6174522509076883,6.246104055792188 m3.0966823193173756,-10.186624075920676 l23.509595697544867,-2.9012210335496706 10.799356825449227,-0.971989643805729 l1.6309121596734788,0.09945513867412187 1.0411061047046566,0.38252584512189614 l0.47923493159288105,0.6135598153830865 -0.0016215139074324475,0.7675834895154726 l-0.38201932762614577,0.8289413736725435 -2.980818066701041,2.8692496042219204 m-27.85217576860428,11.817326851755348 l2.757933917255382,1.1152691732317332 10.117771316545797,-2.6708682056125075 l5.593322921640227,-1.0665420323289432 m-11.808429019648768,9.242894314799143 l1.413473494799935,0.8236937685716852 1.702977608259409,1.7895213676923707 l2.09160068259496,2.708836973480338 1.795157469253404,8.426648066141068 l-0.14425324495219355,5.52202537153159 -2.130129532208904,5.86994853459194 l-1.2555207742793406,0.6484572144643521 -1.3211171016950685,-0.27931137870907036 l-1.7101399825892307,-1.2943789291457215 m2.331424910304342,-33.51777239849602 l-0.06303091218450442,1.3154819272320666 -0.621461474884211,1.2840075950548993 l-1.4612104885196293,2.1285933042034006 -2.077478629865603,2.5386814603097982 l-4.575993089175507,4.293717113073747 -5.724910577306598,3.9103503233714667 m14.549330947897412,-4.707832832941169 l-0.07037949337126961,1.288241741215071 -0.6186221259544208,1.1733454637118417 l-3.7076274262804545,4.037307187439242 -5.384414124640289,3.6728132552410875 l-6.202851577716093,3.1599999756168815 m18.4165013534732,-7.055807231671814 l-0.11173311150373744,1.503498806179158 -1.1521225188826412,1.8878993711403926 l-2.1709398477396955,2.5187958767886496 -3.10614165497078,2.870613566721676 l-6.467729559440077,4.72426800169156 -7.000249780622301,3.6982608979973706 m34.381397342324505,-30.307640686786915 l-0.11599724497352591,0.9339456850812292 -0.4544643354638525,0.855769059867881 l-2.8530938210301837,3.1238027256837984 -3.898703026239485,2.9701510222366228 l-4.096940927109355,2.2729717529302174 m0.48075857960302715,0.6222907031593518 l17.010123624959476,15.685423458655722 1.8172031004118867,1.338480556414013 l1.9724347241661526,0.7377684378704399 " fill="none" stroke="black" stroke-width="1" /></svg>