<?xml version="1.0" encoding="utf-8" ?>
<svg baseProfile="full" height="100.77568632651449" version="1.1" width="98.47734004131138" xmlns="http://www.w3.org/2000/svg" xmlns:ev="http://www.w3.org/2001/xml-events" xmlns:xlink="http://www.w3.org/1999/xlink"><defs /><rect fill="white" height="100.77568632651449" width="98.47734004131138" x="0" y="0" /><path d="M25,25 m0.0,0.0 m25.174068994040148,14.186320129371294 l0.12419872604755218,0.38504162993054103 -0.049712817234319966,0.6251968827363693 l-2.209243634533277,2.107807937263481 -2.5792284689091427,1.8393807376475748 l-2.7193871581969917,1.2982485545378275 m-5.397801965054266,0.49739352567315526 l0.7632100277556799,0.6388396344788094 0.15212279484117436,0.32392999099029274 l2.3413240400162714,10.963408121144182 m-2.123199660509526,-11.716235176376424 l24.869975697442275,-1.594778301456066 1.6427448678609642,0.003476553768174739 l0.70944298100798,0.17408010886783581 0.4090694307944616,0.31642243051250113 l0.03130739296277561,0.937891194663827 -2.861389221366547,10.621075449465437 m-23.644290038026956,-5.464709418870653 l17.11212485978443,-1.1455689703701437 m-16.12671307592833,6.471768937676764 l22.59063876453485,-1.2180260932934595 m-33.518967141790114,6.667860189323781 l1.165980112778902,1.7421662382849494 1.1112208546422246,2.9098542821498996 l1.9184963281454033,9.204841758394531 m-2.9109027052202174,-12.719708145940864 l12.868292744068249,-0.7622698257136293 27.62323727868924,-1.4947184460541518 l1.3680211267929288,0.2828147319655405 0.6424979401762356,0.7244844524514729 l0.00020096569932085404,1.2747006903721652 -1.959617537734502,6.822636834779416 l-2.017829206702247,4.994988047672248 m-20.008430794247296,-12.166415927952206 l0.4301805587541236,0.25418773528585553 0.271615396487019,0.7431518863859055 l0.1844033915295048,9.937246783980939 m-18.765923940485948,-5.21846200807755 l39.44075162202555,-1.4261868840400107 m-36.327567817457314,7.6558107244588385 l35.91249819772313,-1.2077118634978454 " fill="none" stroke="black" stroke-width="1" /></svg>