<?xml version="1.0" encoding="utf-8" ?>
<svg baseProfile="full" height="110.79215718634234" version="1.1" width="110.27981146617833" xmlns="http://www.w3.org/2000/svg" xmlns:ev="http://www.w3.org/2001/xml-events" xmlns:xlink="http://www.w3.org/1999/xlink"><defs /><rect fill="white" height="110.79215718634234" width="110.27981146617833" x="0" y="0" /><path d="M25,25 m0.0,0.0 m30.034751225414116,3.0442564170115705 l0.37819377250927244,0.4626256724416762 0.5077742974075696,1.8016710045026514 l-0.05444750717563752,9.700678881063208 m7.505677514455716,-12.34449773522834 l0.589969960750892,0.933720044586745 0.3141938332555913,1.1861925021713278 l-0.8808705031195796,10.127048724132983 m-19.176357540165004,-6.535250362490335 l0.9721767045523549,1.1145382598489515 1.4805317857555813,2.148582647174284 l1.4763872399295352,3.167441913809103 m25.106880981228297,-9.189504436217932 l0.08979474418057053,2.758220658934033 -0.9972644344131993,3.3287494429162656 m-34.20276444069895,5.365908593415611 l2.895231439343647,0.417005238755982 14.431770657937026,-1.7696330407657461 l17.237829750640852,-1.7608925500191657 8.113121589124988,-0.4048924831308022 l4.457230395264691,0.37744555797645174 m-32.810927880279706,4.472045989176922 l1.9766008016325922,2.3892091036645646 1.1839972068751192,2.543226146859882 m12.735886593169766,-6.9313367565610005 l-0.10258548473505492,0.890148040175899 -0.7610518769237836,1.551888891471613 l-2.497963234205099,3.4251000169305668 m-16.772895274533237,3.5026530951191828 l2.957557191157907,0.13263909534666726 17.712107163134192,-2.0585094438751983 l3.185458805710069,0.04115208360406653 m-23.930256760668815,8.962663686313597 l3.1621152975031617,0.20752610522070647 16.87416771869937,-2.164879848262494 l2.8369503284895914,0.08055027927150818 m-28.932033918149287,9.147040185774285 l3.897871305193034,0.26841585473662044 24.649345406013307,-2.92472895853926 l5.439187020339521,-0.338336797911107 3.1428772711754824,0.1867910930686518 m-19.57574530859234,-12.173606238744151 l0.6341993582232291,1.3055275495652037 0.11794964727580814,1.2280312052354485 l-0.08475706104459825,31.307447737047895 -0.28679341426915966,1.2957807272582795 l-0.46374776340940216,0.5163033935054447 -0.5991375790813689,-0.043628925081313163 l-1.3488233232442297,-0.9955448343588515 -1.5263548824626878,-1.6800512382427035 " fill="none" stroke="black" stroke-width="1" /></svg>