<?xml version="1.0" encoding="utf-8" ?>
<svg baseProfile="full" height="117.82595630708002" version="1.1" width="96.0250458853777" xmlns="http://www.w3.org/2000/svg" xmlns:ev="http://www.w3.org/2001/xml-events" xmlns:xlink="http://www.w3.org/1999/xlink"><defs /><rect fill="white" height="117.82595630708002" width="96.0250458853777" x="0" y="0" /><path d="M25,25 m0.0,0.0 m10.910922289485205,26.471093863613326 l0.38442521284275954,0.38907904678130256 0.8444104677114711,2.1897731090878993 l1.716042583086836,2.6481063076013025 1.6166849480679124,2.5100403685403787 m24.826159101745677,-11.359442393913596 l-0.020850170717035967,1.4327335988819367 -0.4697627919081164,1.1948223654836099 l-2.1073176457764577,3.610977648705426 -2.3394279455189833,3.280334602978501 m-30.7794259862745,7.8807006435548805 l3.24946311588208,0.3193756263013498 27.089820153266373,-2.608250377762649 l6.621783493528724,-0.36732914149417023 2.923155269402237,0.27021403248665404 m-20.49330013980405,-20.92097026348344 l0.6783440760834697,1.3154920580623348 0.2259994205517871,1.6935020713266362 l-0.0740951317950215,47.87570314032832 m-2.529223990655851,-28.4038040150724 l-0.46918070509177273,1.9017882334982024 -1.557282909963074,2.761076099259804 l-2.6827532373473844,3.747586055244168 -3.2358526611385634,3.790110639043093 l-3.627505604489134,3.6046824061368032 -2.8808383197857044,2.426008879190772 l-2.903108563187849,2.130758469195313 -2.954088970995584,1.872825057185571 m23.399022478949448,-22.604363666196747 l15.526085453680578,17.726826371674967 2.5639745031333097,2.366425787462263 l2.5727680924089094,1.5369350074185872 " fill="none" stroke="black" stroke-width="1" /></svg>