<?xml version="1.0" encoding="utf-8" ?>
<svg baseProfile="full" height="101.59415523715096" version="1.1" width="102.47042145006706" xmlns="http://www.w3.org/2000/svg" xmlns:ev="http://www.w3.org/2001/xml-events" xmlns:xlink="http://www.w3.org/1999/xlink"><defs /><rect fill="white" height="101.59415523715096" width="102.47042145006706" x="0" y="0" /><path d="M25.577420989478252,25 m0.0,0.0 m27.40855039875277,3.0997829904694054 l0.38491240800078114,0.4488902771402257 0.5266646773455469,1.5177197419805022 l-0.05196210371711162,5.074403908638253 m-19.78530983625146,1.5804647580798143 l-0.5987500880283464,2.253035767772321 -1.14324477856753,3.111226719721936 l-2.662911904042305,3.5934482469558198 -2.0890786114667685,1.6290774306694733 m6.944933952643508,-8.52167076043839 l24.864205649730273,-2.7212604092893544 10.92520470379215,-0.8042910136561751 l5.9179762404429725,-0.024761870275902206 0.9602419822024029,0.3976505058749645 l0.29156776975192356,0.5819598560059261 -0.2098910977588642,0.7249369738850109 l-1.3974886905645825,1.574593945552602 -2.641158292830409,1.9425777365738754 m-21.959434236012324,1.1125249596550664 l0.5163852716566609,0.7384451557676892 0.3823501687653326,1.0095128880177735 l0.15601110225059758,7.125326125885445 m-21.366750758717945,2.348951826650665 l5.3817210401618985,0.19244411202436487 18.79750081270632,-1.7786819775652896 l12.341530279733847,-0.9254342672927475 3.8974342959441857,0.02766469323528096 l2.767927207231167,0.4962243552147981 m-24.110071701140107,8.046103749228386 l5.147887457552454,1.0009246821694986 8.015079609867078,0.8404827124069826 l0.5905757624909643,1.5300338868030088 -1.428019675475184,2.277655828990205 l-3.6438868071153894,4.740336710052533 -3.5793655256933126,3.9742979302903385 l-3.5929525071870643,2.939494763550082 -1.550187751371255,0.44006229640656414 l-1.3640557273673242,-0.36023880862288515 -1.5518352818268693,-1.4508523856174151 m1.6709872939208632,-20.483798377981838 l-0.3612230087795157,1.1133490094963538 -2.2203749460144993,2.5109968478477867 l-2.9542320433153124,2.858489215703578 -3.263577185506138,2.601586885848256 l-6.823364715061538,4.263806265175304 -8.117941800610796,3.6525573912105607 " fill="none" stroke="black" stroke-width="1" /></svg>