<?xml version="1.0" encoding="utf-8" ?>
<svg baseProfile="full" height="106.91436399835939" version="1.1" width="101.39248150488531" xmlns="http://www.w3.org/2000/svg" xmlns:ev="http://www.w3.org/2001/xml-events" xmlns:xlink="http://www.w3.org/1999/xlink"><defs /><rect fill="white" height="106.91436399835939" width="101.39248150488531" x="0" y="0" /><path d="M25,25 m0.0,0.0 m14.186354180342736,3.747231323639917 l0.3302516369405168,0.2218022774052954 1.3234033552799789,1.997507719444325 l-0.062497902416771806,39.4547222566844 m0.34868856637781775,-41.358250731971616 l31.384012623115847,-1.84482994759144 1.4996376304975394,0.06761953317800967 l1.4581770521781614,0.40002685409421135 0.7541900649568004,0.8452599376493963 l0.1702642976126738,1.3425049729886844 -0.3943203323004483,38.15589881371949 m-20.20452983622186,-29.32744286694437 l0.33701498345704867,1.5975290843285033 -0.7244867718741969,4.679837950865426 l-2.2895113164728045,8.508214184378623 -1.4983207656430233,2.8991874831128652 l-1.9965215172208033,4.829957595373146 -2.0901062590935946,4.509899335915007 l-2.2354713625344442,3.802816150246273 m1.4472244771965148,-26.29218646311117 l2.4906822816643452,-2.218883779764102 11.325185505003878,-2.6197738020366113 l1.1434348255064979,-0.01732520522445117 0.8986164692069711,0.23941625442413877 l0.7376181890266672,0.9460883737474691 0.04997885783184762,0.7377729323444028 l-0.9222167808927179,13.476003771847026 -0.24705057567802718,6.440856773199744 l0.3211469481949658,1.641373422230401 0.7430458852862923,1.2659192083509285 l1.3438493100363442,0.720856361905289 2.1597458510270084,0.31075557439811047 l3.475315971314634,-0.06491910255010576 2.2892415933229397,-0.48952766433786793 l0.8211690832117099,-0.6077254451750257 0.4390923790667554,-0.9839730211734771 l0.16645872750276436,-2.001584424326265 m-30.334976583430592,13.083094676458828 l1.3078433736303074,-1.3007276309198175 2.1543203835241074,-0.25365598237706705 l17.113462392745816,-1.9156247243476965 3.291199227067252,-0.09104316585294672 l1.8729648887079553,0.20037526181459034 m-13.769739373437538,-7.856860066133585 l0.5942353735253753,1.0556003388542836 0.16831855150309327,1.4676641513738398 l-0.08932198796356564,15.485719595054963 m-14.777381956948581,1.4963112833917431 l2.210849022163061,0.3470308238135135 22.273522722033576,0.02646144081981637 l5.312876761722107,0.15738230514433726 " fill="none" stroke="black" stroke-width="1" /></svg>