<?xml version="1.0" encoding="utf-8" ?>
<svg baseProfile="full" height="108.954264450223" version="1.1" width="105.1860751498049" xmlns="http://www.w3.org/2000/svg" xmlns:ev="http://www.w3.org/2001/xml-events" xmlns:xlink="http://www.w3.org/1999/xlink"><defs /><rect fill="white" height="108.954264450223" width="105.1860751498049" x="0" y="0" /><path d="M25,25 m0.0,0.0 m15.256333032009262,3.5390521876031147 l0.3968837887074373,0.428269852630081 0.6774661318025232,1.0642662206674955 l2.3464321156244106,13.558395066950476 0.26270233295957307,2.0425218473319973 m-2.253297681920684,-16.98368467348674 l27.67367251265459,-1.957425152329726 1.7273033032698153,0.19098561320163784 l1.1475714364642615,1.5379367057764985 -2.7175430852793485,16.23198358212291 m-26.22212283230948,-8.012423341588715 l18.785843551758006,-1.4425332862832685 m-17.39962444231498,9.43303975158805 l25.07513427588229,-1.807142116613081 m-20.101234404518717,3.4704055656420905 l-0.07362578146542331,1.181202215050948 -0.8983180498215074,1.1723158333988073 l-2.2772429573771498,2.22300200101623 -2.8896145294563955,2.487028209662603 l-5.7949000529202,4.193039626808639 -7.405066400429391,4.07405703743078 m15.651094741468372,-8.996488081932222 l2.512146560647686,0.27000722273403704 28.614139358200305,-2.36992773606047 l1.4942011019722379,0.1303518764066185 1.1373389970099719,0.6228440907788401 l0.46040212718745344,1.2045503280175298 -0.039837221450809514,1.8024114827442317 l-1.4599480594231724,7.659074532430997 -2.101861819102021,6.598282313597387 l-2.667528964383259,5.429984559833808 -2.308589095697986,3.6547664180186366 l-1.3523771160866964,1.3844095327475026 -1.3004880855232306,0.14284609412976534 l-2.2757509572182935,-1.53772217526857 m-9.717089413354302,-22.196100530670144 l-0.046254608514842296,1.2724892172135307 -1.0031963929683472,1.9048242770099024 l-1.814214529522572,4.3981121881296525 -1.713675788915856,3.089773318050178 l-3.4668181079668217,4.735521206471934 -4.938381083895643,4.579276725584029 m31.9360881003353,-17.830360866726995 l-0.12686432823301577,2.391382522638293 -1.3117538329310003,2.3520531816311574 l-2.9107128379456846,3.968810243350538 -3.810881620109335,4.253370844497251 l-4.789148374655716,4.424919758457222 -4.495138992933976,3.487114596313529 l-5.032427849568424,3.2946642257366903 -3.9952162799076922,2.208730337777274 " fill="none" stroke="black" stroke-width="1" /></svg>