<?xml version="1.0" encoding="utf-8" ?>
<svg baseProfile="full" height="115.10768745162473" version="1.1" width="109.26383130052847" xmlns="http://www.w3.org/2000/svg" xmlns:ev="http://www.w3.org/2001/xml-events" xmlns:xlink="http://www.w3.org/1999/xlink"><defs /><rect fill="white" height="115.10768745162473" width="109.26383130052847" x="0" y="0" /><path d="M25,25 m0.0,0.0 m28.42053584051151,2.659721358110295 l0.41244585620600777,0.23869181210998466 2.3791846619976598,2.369990287267759 l1.6955444675757505,2.4110254664418416 m-21.919987987345444,4.8597846514725465 l3.351170422844601,0.3333947243484031 33.244211842540885,-2.972474353242412 l2.9891128407987564,-0.16412905253858107 2.1101628398165855,0.37496857276114115 m-37.51063476596949,3.4783452482024395 l-0.331528602767832,13.260480061276562 -0.5573266051776339,6.150195480467227 l-0.9053913307665743,5.655216154695535 -0.9524638705469135,3.7984008823122952 l-1.299373543883037,4.715151687118098 -1.951887322724798,10.74087190142552 l-2.1534682102849483,7.198052569396072 m-0.9355134930571829,-43.01764502993502 l1.1066411494172457,2.3773125996029036 1.146335936716652,3.3369719098411674 l1.1476582554268622,4.69559812828184 m14.136911830359653,14.420764040627862 l-7.774191622604538,1.1710055000294954 -3.4222367280030594,3.188403897445287 l-3.602192116251397,3.1851149090122313 -3.518817545586365,2.4513289888805647 m17.961769366908584,-30.426100094248255 l3.1497670467067596,0.3494459254667707 22.868114596442897,-2.122545000883973 l4.668162340370105,-0.19127846871964768 2.404501313211622,0.31937510365355726 m-26.122560990174744,-5.4497369849748285 l1.001474944895443,1.5611408443093715 1.450080065919388,8.104551129139983 m13.418221701309465,-11.195728694135935 l0.27407110631086057,2.123115720603893 -1.3724737903549813,9.260472183573007 m-19.95715187795744,5.796213163275371 l1.575713709497293,0.26657084584133856 3.4427460737917106,-0.1717535417053752 l19.099070616088934,-1.8474952859291538 4.181521491157601,0.1979590312078925 m-31.32738051672025,12.14277973358896 l2.0834404115285836,0.2978634515617043 4.596018936293954,-0.13159365251382765 l23.485822249357266,-1.8066896443174054 4.391772520729154,-0.11190495991347064 m-18.859123750011303,-6.26069140345942 l0.44652100672683415,1.8628626494894136 -0.8739321422769283,5.906010296182949 l-1.437988862257689,4.527117995810068 -2.1269443456440253,4.045961020043654 l-2.4952279185705977,3.2196610261045486 -3.087166164548583,2.776538134000027 l-3.7022594727783935,2.3342538868110028 -4.912382451320031,2.0616615218141483 m18.769130547880625,-18.590247032863687 l14.977468537982551,13.294487781097093 3.4416529019803415,2.744289966918844 l2.546479898810494,1.0660280048563224 " fill="none" stroke="black" stroke-width="1" /></svg>