<?xml version="1.0" encoding="utf-8" ?>
<svg baseProfile="full" height="93.73953399995094" version="1.1" width="98.12101086770535" xmlns="http://www.w3.org/2000/svg" xmlns:ev="http://www.w3.org/2001/xml-events" xmlns:xlink="http://www.w3.org/1999/xlink"><defs /><rect fill="white" height="93.73953399995094" width="98.12101086770535" x="0" y="0" /><path d="M25,25 m0.0,0.0 m8.516682868539592,16.70863941913254 l0.4734362527689132,0.36816428079183317 0.5810320345985087,0.9446758753045167 l0.18965266576316894,1.0923002307147927 2.7781025188858215,24.625754194007257 m-2.234779366898519,-26.906253079247374 l33.282962262144245,-2.618219256964792 1.7765230528751788,-0.04385542854199457 l1.8565682881822632,0.44590060261974157 0.7048299964191952,0.7681373097201452 l0.19600029442699304,2.302498609647707 -3.481018919917777,23.065868500974496 m-32.08819870243977,-23.036126598040294 l0.6389843700567064,0.7018310143465435 0.38819048737281486,0.7117909015227755 l1.8597508035356773,13.992995002970611 m-1.7041431578598278,-16.012260508843827 l19.29370911774332,-1.9768975375854443 1.6385079402717975,-0.0738765356809964 l1.8214071184233056,0.22484244079039253 0.8926156291485815,0.873737286625571 l0.04637043156699265,1.3975266155807624 -3.0577499347167096,13.421049684759613 m-20.300628150866824,1.7437633669109767 l22.509665373923887,-1.3564780515028334 " fill="none" stroke="black" stroke-width="1" /></svg>