<?xml version="1.0" encoding="utf-8" ?>
<svg baseProfile="full" height="104.22515843185084" version="1.1" width="111.85574456492671" xmlns="http://www.w3.org/2000/svg" xmlns:ev="http://www.w3.org/2001/xml-events" xmlns:xlink="http://www.w3.org/1999/xlink"><defs /><rect fill="white" height="104.22515843185084" width="111.85574456492671" x="0" y="0" /><path d="M25,25 m0.0,0.0 m6.159178217066132,14.434404660528719 l0.30318497769869707,0.43302759124599494 0.7865538038402388,1.6334862573270086 l1.6197500013951154,27.601897976494307 m-1.4026407823818792,-29.776468514222312 l15.64651596089201,-1.9876762089120086 1.6223492746098096,0.12205172085234196 l0.905044586594618,0.9592565885946877 0.22632412885376685,1.8782644370549906 l-1.4332202776835863,25.90198135998291 m-8.826121060512166,-27.071251677815713 l0.6479245792500266,0.8215165376974063 0.2546197224965996,1.2000245277431254 l0.12002671662660148,22.35304634148627 m-8.013649902910753,-11.815578293448441 l15.987570383196084,-1.6198043748918796 m-15.466289678649966,14.884936438696158 l15.218530624209462,-1.3125629577657043 m6.676729076936986,-28.49826597809769 l3.524385591382034,0.2046146156774467 21.898362475431068,-2.1127119954264995 l3.4823123212994447,-0.18380490585788714 1.9183038252863756,0.28686957585940587 m-16.12243229532969,2.8480519997609886 l0.9757617226281251,1.6677212252436597 0.24073694476039292,2.075992351170223 l-0.14118725973402085,38.18752505530009 -0.8368934456975657,1.108614077573243 l-0.6331556244379047,-0.020896079836511282 -1.4993412591021138,-0.8148294125434463 l-2.8840981536163,-2.8281686580878937 " fill="none" stroke="black" stroke-width="1" /></svg>