<?xml version="1.0" encoding="utf-8" ?>
<svg baseProfile="full" height="107.89564264210772" version="1.1" width="97.92628309561829" xmlns="http://www.w3.org/2000/svg" xmlns:ev="http://www.w3.org/2001/xml-events" xmlns:xlink="http://www.w3.org/1999/xlink"><defs /><rect fill="white" height="107.89564264210772" width="97.92628309561829" x="0" y="0" /><path d="M25,25 m0.0,0.0 m7.685759731289377,16.87111265451037 l0.3306394805835675,0.43682930542682075 0.4234261842913588,1.656235112997655 l1.36645858546191,27.090522092477258 m-1.057433998587426,-29.07808400922067 l11.427081700438801,-1.525796515482829 0.6312294807628428,0.12183263841639956 l0.6787378862271339,0.8819788368369003 0.18468148749202387,1.7866157885758733 l-1.1071059327442139,24.982785136196608 m-6.69621837986663,-25.734181929181766 l0.4925965755888,1.1881192645896073 0.09533641398601685,1.2565438426475484 l0.05372996950322511,22.542369524920492 m-5.7998015391026145,-12.367471554508649 l11.53347436655021,-1.4556615528751062 m-11.146081749752945,14.271740562912484 l10.837580790958684,-1.0314869117996817 m4.2792710604098945,-25.934430857823827 l2.657924126713418,0.25745946649483065 17.095004837297807,-2.110962751552794 l2.532327914438862,-0.14714721623413385 1.4276641036781907,0.27954314307428657 m-12.232337725470085,2.651053925716932 l0.6932182624698796,1.5967415654720254 0.1882681704649516,1.9268382914838267 l-0.08458549015009761,35.75209774647457 -0.24349176582037133,1.1094363479876423 l-0.36482189836456713,0.5375340141247612 -0.4588013296586059,0.08347667945028708 l-1.0970014748398225,-0.7091672782625421 -2.1356566187362747,-2.686110149354156 " fill="none" stroke="black" stroke-width="1" /></svg>