<?xml version="1.0" encoding="utf-8" ?>
<svg baseProfile="full" height="107.2908312025991" version="1.1" width="101.50987968362287" xmlns="http://www.w3.org/2000/svg" xmlns:ev="http://www.w3.org/2001/xml-events" xmlns:xlink="http://www.w3.org/1999/xlink"><defs /><rect fill="white" height="107.2908312025991" width="101.50987968362287" x="0" y="0" /><path d="M25,25 m0.0,0.0 m29.305341158438626,3.902232109982394 l0.37646928848575206,0.4167908313621199 0.5946616629048843,1.3035529591089863 l0.04756826476885204,1.268210409766796 -0.0649627155493895,7.224476414074734 m-19.336627931395547,1.920581654103232 l4.137849204612408,6.211664490472592 2.3175995927605495,5.108726874080494 m-2.5718247121679774,-14.018147347384035 l3.8853945491469197,-0.6287889635020891 23.38633317296968,-2.1978201151724197 l1.176913839164108,0.6410350167481734 0.2774371399503849,1.134564689387159 l-1.0377065109492314,4.662467251925497 -1.7111834275168731,5.544606736305165 m-24.768421938905483,2.226414330025503 l24.781935996330382,-1.7247121446603304 m-2.0808507954492974,2.2305986477356097 l0.07536853251895863,1.0962102012456936 -0.3348740853544678,1.1474256173084334 l-2.4639617403688154,4.929185381457437 -2.936570185291888,5.0517322289071975 l-3.6051712039649857,5.003976531835603 -3.6853199079615395,4.088962393140369 l-4.090761101752984,3.8903327894784323 -4.5798640579613625,3.7413897229791364 l-4.486341917910816,3.1151624918872125 m7.2939356251591025,-25.934025300208596 l1.6281375985475521,0.9590047117693277 2.8944700389655456,2.4538505225039002 l13.538434893101096,11.847651083573496 6.395011699694964,5.316758218888045 l4.467185285113466,3.626577424953624 2.6842743734903096,1.2428654434920527 " fill="none" stroke="black" stroke-width="1" /></svg>