<?xml version="1.0" encoding="utf-8" ?>
<svg baseProfile="full" height="99.49247848549628" version="1.1" width="107.77515824418631" xmlns="http://www.w3.org/2000/svg" xmlns:ev="http://www.w3.org/2001/xml-events" xmlns:xlink="http://www.w3.org/1999/xlink"><defs /><rect fill="white" height="99.49247848549628" width="107.77515824418631" x="0" y="0" /><path d="M25,25 m0.0,0.0 m30.485188845525613,3.335885830442582 l0.3769372687769518,0.3984679651858365 0.5494186039459487,1.4311112968952384 l0.004279261094207989,5.319626795460793 m-19.575534290753566,0.22729949343359188 l-0.6191784678435318,4.57537131083419 -1.4559870290756183,5.279888564390545 m2.7167818393274326,-7.887328295050113 l24.05030066621511,-2.5235635386727218 11.026966055758779,-0.799761191022449 l5.564479628179022,-0.10914356077848755 1.495296679764109,0.3160010131134508 l0.6907064526015475,0.45861042639238764 0.12304941618426021,0.5915823646897271 l-0.9785034125114542,1.4024832178202464 -3.0967560479806666,2.346118346545304 m-31.828569598021694,14.316457993127525 l3.028532155633029,1.232390071420717 2.2189942321586695,1.487725157981482 l4.674950139593726,1.4458643306263803 11.018833332604283,1.7647846874894964 l3.7953771152077143,0.5041385537420745 4.529232006031962,0.8391956050479323 l5.123827798367256,0.9735585837110949 3.8565355934032333,0.4863065977409901 m-26.33475852029487,-22.72682751848465 l0.3853736590285732,1.1788398207875 0.12953644475559772,1.1821584501591966 l0.0745871615163055,32.44523611246642 " fill="none" stroke="black" stroke-width="1" /></svg>