<?xml version="1.0" encoding="utf-8" ?>
<svg baseProfile="full" height="119.69381067506123" version="1.1" width="96.27661408457311" xmlns="http://www.w3.org/2000/svg" xmlns:ev="http://www.w3.org/2001/xml-events" xmlns:xlink="http://www.w3.org/1999/xlink"><defs /><rect fill="white" height="119.69381067506123" width="96.27661408457311" x="0" y="0" /><path d="M25,25 m0.0,0.0 m8.18837448284008,10.309276892463668 l0.3451029028227076,0.12986139968336263 2.2801880449706045,0.2806567298308028 l24.4709312150001,-2.114887227806584 1.2465712685669796,-0.147212409199654 l1.2384454731819556,0.42774305053833955 0.5753523903634236,0.8553235991938869 l0.05971128272826109,1.397673053520417 -1.7218147916047601,7.387412586705367 l-1.5936641328450447,6.737335859672849 -0.8645761747756366,5.564987293845265 l-0.20030751498189184,5.314928308157399 0.5697601223942379,4.702430997728255 l1.048387189642781,4.810464577468445 1.1509811404811934,3.6726918482928843 l1.3405444022773112,3.374652526303762 1.5262189286213936,4.261109759451082 l2.008961337931611,4.366382914133273 2.582825631243591,3.6726126190307715 l0.6949315416275844,0.8827742506847011 0.5309935279383874,0.41512899241612916 l0.33840493313363684,-0.004527918504257788 0.2924083845090021,-0.5192234514629659 l0.16788249850560813,-1.7939452668912537 -0.10207332153569659,-2.951695422243981 m-17.491787858683836,-26.00251366260116 l2.3124712175153013,0.8336270927222111 10.801161878391332,-1.4996051904911507 l1.3281567178132292,0.295940007093663 0.428070807083291,0.9152289549079585 l-0.07689335384705832,2.456286822019921 -0.9618042625803808,6.362157143318427 l-1.2195184648924806,5.6093637466027335 -1.6947816185434317,5.223479447684889 l-1.9315531223359728,4.331934031001261 -2.492123927205586,1.7444669787256213 l-1.2008495657887408,-0.6371695984116182 -1.1252663553355637,-1.4308779784482208 m0.04252373626155971,-31.315267507010546 l0.2005346659891029,1.2754333705551582 -0.02154303432962642,1.6779717084929229 l-1.10209177514877,5.863195125210867 -1.6461674793087295,10.807068523861796 l-1.5362599563172985,6.994360666900279 -1.7494201331180073,5.560485534542643 l-1.679297798634158,3.708954322394451 -2.0205365038002854,3.184376667467578 l-2.5048335431089184,2.7029589055095795 " fill="none" stroke="black" stroke-width="1" /></svg>