<?xml version="1.0" encoding="utf-8" ?>
<svg baseProfile="full" height="111.1998062818005" version="1.1" width="105.31273277436503" xmlns="http://www.w3.org/2000/svg" xmlns:ev="http://www.w3.org/2001/xml-events" xmlns:xlink="http://www.w3.org/1999/xlink"><defs /><rect fill="white" height="111.1998062818005" width="105.31273277436503" x="0" y="0" /><path d="M31.50267339230206,25 m0.0,0.0 m17.08229118704382,4.2571852764292135 l0.4666485217346882,0.44976784652956187 0.7613653446510793,1.333878371256167 l2.3476788901383743,14.301493920540933 m-2.0635861508609668,-15.949324949520456 l9.247495008399232,-2.299197897474303 7.298729579389745,-0.6330656388309553 l1.416033866057168,0.344263022314055 0.4706403220876118,1.0967919736315832 l-0.10565666566362049,0.8952837332101424 -2.0816608864288244,10.824974763059018 m-13.516638431229678,2.7144616161761284 l14.81251234072179,-1.9253932744067086 m-27.869480344139056,-13.413445501396716 l0.766116172982176,1.1531715543921979 0.295581406963335,1.314578795015145 l-0.48163709451640474,17.41684761199678 -2.0977599218270537,5.169274926086711 l-4.114145973913479,3.207822606187501 m7.610282683981828,-12.1032350468835 l24.69728936388143,-2.4556928470092627 3.381267507622682,0.05025397136552846 l1.0805663590148047,0.6208938148099813 0.21134044810680305,0.5782003722300786 l-0.0647374821119191,1.5451137592514004 -2.1998512894093634,6.987929463172002 m-29.781684389366937,3.1171172948340296 l2.1911465794157734,0.19639140498058205 11.937563020723223,-0.16541284252352048 l16.595108104108785,-0.8392705164089814 m-39.532352740524615,1.6547548114605364 l0.7014791358168461,1.5195908992231792 -0.37209181605380537,5.798827021546816 l-0.7094636792300713,4.569617839947547 -1.0883076614781486,0.12177260911045096 l-3.7947547083893096,6.892124120856426 m16.67679223102679,-10.655148450146111 l1.6717881812766733,1.6443538032435934 1.5150402093006559,8.542034708383182 m9.262364045766276,-10.51196479896103 l1.531630965850252,1.0651967676133283 2.0618615240015727,2.0006993495004064 l1.6536293340726442,2.047663320143095 1.0701926592628468,1.759577586247349 m9.683383725257148,-9.08185918863646 l0.5386044163574364,1.2147168324873707 0.06612116479087769,1.23094910231827 l-1.5939521020744325,9.425477405603493 -1.9482278560509747,1.3389938533535708 l-2.4070785751239328,0.9127190071180759 m-9.044861843776713,-5.859318693324257 l-0.037347534348571194,1.4511003125008155 -1.116056749965502,2.0689383512418704 l-2.101668290164239,2.7114972847462924 -2.8675278348685307,2.8643058205937058 l-5.823873461984542,4.468807481718463 -7.316668039367558,4.212721540896173 m21.572258078201013,-16.02906734890358 l7.470399222258379,5.560675769344359 6.733754416179212,5.515047391337913 l4.285927786631505,3.1406730424973084 3.776247101856757,1.8093107624543932 " fill="none" stroke="black" stroke-width="1" /></svg>