<?xml version="1.0" encoding="utf-8" ?>
<svg baseProfile="full" height="111.85392518714364" version="1.1" width="101.55788908566754" xmlns="http://www.w3.org/2000/svg" xmlns:ev="http://www.w3.org/2001/xml-events" xmlns:xlink="http://www.w3.org/1999/xlink"><defs /><rect fill="white" height="111.85392518714364" width="101.55788908566754" x="0" y="0" /><path d="M25,25 m0.0,0.0 m29.44692994497504,7.190655587880477 l0.34244081772102003,0.3753332489444482 0.40967573254579726,1.662431005824016 l-0.05453894430920742,5.42476466720712 m-18.939050231578047,2.0293116346021374 l1.7555220641830311,0.24662621050415875 2.164231568852636,-0.03924009081601115 l28.274546178483966,-3.1305412581379115 2.937599311470003,-0.09438008645797658 l2.3090981375385513,0.2888510554154336 m-34.93408917758354,3.2098787132408204 l0.48804167382974317,0.8871405792069814 0.16125625282900297,1.1239977647060388 l-0.24459567545187896,6.146328580371037 -0.685398747770389,7.317258997505 l-1.141464025051369,6.441774833101787 -1.315028504526825,4.7243109285063545 l-3.6266816282764305,7.624890238725381 -2.1162481895430627,2.645335411968404 m35.50618014163281,-28.52950856927355 l-1.0824233632274545,-1.6218942889961565 -0.594613135801885,-0.4783485955947506 l-4.193964684504403,0.9759522803197693 -6.032152669160285,1.2416729700630371 l-7.125964160730058,1.1853511700182626 m-1.5602268049262207,3.9317893920904834 l0.6507342427327837,2.0126807500772737 0.028372273495657966,7.449445201881521 l-0.38452281431069496,5.952426180610793 -0.7934921247609756,4.271162354262701 l-1.0636703585267504,3.3846089974627023 -1.3756057912585766,2.7483929902773205 l-2.240330328298349,2.8872334627732474 -2.3420409022145092,2.0300636412866933 m10.43855254405389,-26.326414438282352 l2.847219638361517,0.1056089301643819 22.81067551633008,-2.266765839715712 l2.832915308442932,0.08895814905316854 m-15.468051558285193,3.245769119064502 l0.5897234017098768,0.8137210842820711 0.3045551175030661,1.296922923902666 l-0.030097540617812106,23.380369299117866 m-7.748150023359869,-19.056845684771602 l5.053511660479209,1.2125409668097218 5.37158457543302,1.6810545683067906 l3.376651701310207,1.8187660714120117 2.2640777471561306,2.0289463043973175 " fill="none" stroke="black" stroke-width="1" /></svg>