<?xml version="1.0" encoding="utf-8" ?>
<svg baseProfile="full" height="106.45983073860606" version="1.1" width="102.32800681025763" xmlns="http://www.w3.org/2000/svg" xmlns:ev="http://www.w3.org/2001/xml-events" xmlns:xlink="http://www.w3.org/1999/xlink"><defs /><rect fill="white" height="106.45983073860606" width="102.32800681025763" x="0" y="0" /><path d="M25,25 m0.0,0.0 m19.38059029545989,13.073356312506862 l-0.0742417404552763,0.31663079109953146 -0.8881244440314912,4.159618092928182 l-1.5906041749069155,4.4700908409546445 m2.3572538852034306,-7.382829460933302 l22.408185032686905,-1.9914090975747452 9.176237275935163,-0.5354575076732867 l0.9224768407846808,0.2392813002135602 0.5170326386558342,0.4010233968083919 l0.11920120092540158,0.5320350243837697 -0.1328570749519105,0.5885876584904152 l-0.8404085332611944,1.2986681215447904 -1.813084299717736,1.8866920099786266 m-27.247502900096592,5.319359546686072 l1.5389241727905603,0.2000272074235672 2.4680165141267887,-1.32374614421442 l12.912824725634383,-4.013243369816324 m-18.49074850420561,10.679366523776443 l1.004129604379116,0.10586967060367433 1.4077482865762765,-0.1140468476125979 l15.215174735557595,-2.4066176005309297 2.2544674794543975,-0.16241799889679878 l1.1982808236871414,0.18083735271687584 m-15.82122420247581,9.94370730794774 l1.7102519731497219,-0.7265906896890295 8.250213793349468,-1.774339056471144 l2.3215000277369566,0.031572086245829654 m-17.424467175686928,10.250588753031176 l2.653272666747764,0.20730583914571118 17.006718497546967,-2.0639490178360096 l2.683841325275115,0.15251797801540729 1.660248053337593,0.35320115970720656 m-13.8416345545462,-24.073331792633947 l0.48275517656554784,0.7583967413048431 0.17036073305967409,1.1135727640805337 l-0.02631685448559318,18.935718969938588 -0.6377930681063749,4.476859421621738 l-1.1011563679570837,2.3169929789631736 -1.2417441002547076,1.5402247235995896 l-2.649546690133813,2.5287655347197457 -3.559306942761023,2.5763013693223895 l-4.504777703671437,3.0925674412073736 m15.114411529511221,-13.349208598039521 l6.5201226410438196,6.435098228146792 5.2416303001589,4.699274542455678 l3.461807157683761,2.636536192856197 2.010141227861284,0.8763720381029967 " fill="none" stroke="black" stroke-width="1" /></svg>