<?xml version="1.0" encoding="utf-8" ?>
<svg baseProfile="full" height="104.57683998073321" version="1.1" width="98.21868920461364" xmlns="http://www.w3.org/2000/svg" xmlns:ev="http://www.w3.org/2001/xml-events" xmlns:xlink="http://www.w3.org/1999/xlink"><defs /><rect fill="white" height="104.57683998073321" width="98.21868920461364" x="0" y="0" /><path d="M25,25 m0.0,0.0 m12.432859610117664,15.396212013261446 l0.468506441253186,0.13139774319432665 2.8494349771619643,0.19673624636507966 l25.358606583204146,-2.257804857796142 3.6976529572775787,-0.15100487798781465 l2.387362502411845,0.26889168194028845 m-18.18966977060524,-7.677570266693305 l0.8207712428035537,0.8433588279965394 0.3722273427306353,1.1774974067948956 l-0.046574592618793244,14.604065789600972 m-11.844608483435449,0.9220259879070275 l0.37501186923846636,0.11453338935147439 0.5205067901065383,0.7009108755964399 l1.5187172985715618,6.721217631042382 m-0.9738241238092882,-7.4605721569091585 l14.471828716288687,-1.6628773268838697 4.662969801933244,-0.2995887050371783 l1.1021734184460845,0.6822686490324233 0.0857512144186597,0.9887710543860307 l-2.144885130020197,4.956687304608271 m-16.604656630032345,1.983346266884184 l17.977751205041244,-1.5963665954054707 m-20.243515766077618,2.4099614219125307 l1.7441584047688299,1.3082847378658853 1.4209065013840398,1.5689250081515276 l0.8876458362274532,1.4729999291155353 0.43403574684537455,0.9761845906899644 m15.052409141959373,-6.729960766601908 l-0.13629737270253794,0.9384537636317369 -0.8003806651835363,1.5241725743978591 l-2.0692835158238356,1.802987347765594 m-0.12218402644604974,3.6050878988034896 l-0.013187329543524806,0.8813481258598944 -0.4799174376328898,0.5910978835656686 l-3.3707211075447043,2.3203642495595322 -3.974680414708882,3.1100568433268805 l-5.788464733955179,3.75219481906199 -6.990521690324692,3.548845323333538 l-8.024928107118813,2.913700149044648 m9.542278956983159,-15.759790133043175 l2.098924752356134,0.4008113339522958 3.3655054578778456,1.3222283006370357 l18.05735539640806,9.257759990080492 4.627555863909076,1.71512910526352 l3.7040820724728123,0.8578335538920789 " fill="none" stroke="black" stroke-width="1" /></svg>