<?xml version="1.0" encoding="utf-8" ?>
<svg baseProfile="full" height="102.32332829047077" version="1.1" width="109.03401859385733" xmlns="http://www.w3.org/2000/svg" xmlns:ev="http://www.w3.org/2001/xml-events" xmlns:xlink="http://www.w3.org/1999/xlink"><defs /><rect fill="white" height="102.32332829047077" width="109.03401859385733" x="0" y="0" /><path d="M25,25 m0.0,0.0 m28.696197452020055,2.34459791021571 l0.4241295992761011,0.4597498780080543 0.6473620452754892,1.6508737458556877 l0.00038519139922269506,6.717715661715138 m-23.739052471257125,0.967229298223346 l-1.042130054365145,5.553392183617323 -2.0881675917070748,6.388120535191579 m3.7440975006022503,-10.102614344006088 l31.225993082867735,-3.1094621480079443 11.294857712329188,-0.8171369422919578 l6.501435117841493,-0.15650715821963432 1.871623700842851,0.30981836313221195 l1.0104760688229841,0.47925394012719835 0.460780075511261,0.6227345275582967 l0.02603116439804087,0.7393781125402402 -1.1385920780788579,1.6938879890134177 l-3.4891014745093467,2.827930674595621 m-37.39813898350316,16.260559834101198 l0.8734378169780579,1.4942456949925482 0.5154777224071742,1.1807232325798689 l2.714602637557018,16.818837301528944 m-2.185695869782516,-17.255704492567638 l25.055458659915807,-2.608415170923938 4.723635963006358,-0.4039293395127008 l1.6973833472126791,0.28127876152993847 0.9140163107443542,1.008714190885932 l0.023496975932866374,1.6018146270236469 -3.479021394569447,13.769157176052904 m-26.32554882495673,2.67382037916757 l28.367748718784938,-1.8995052042380494 " fill="none" stroke="black" stroke-width="1" /></svg>