<?xml version="1.0" encoding="utf-8" ?>
<svg baseProfile="full" height="100.01631913819423" version="1.1" width="96.27799259599246" xmlns="http://www.w3.org/2000/svg" xmlns:ev="http://www.w3.org/2001/xml-events" xmlns:xlink="http://www.w3.org/1999/xlink"><defs /><rect fill="white" height="100.01631913819423" width="96.27799259599246" x="0" y="0" /><path d="M25,25 m0.0,0.0 m24.086830442711495,4.414212296027779 l0.4342586721931588,0.24735325541663578 2.2923233581955516,1.7718146090186133 l1.3169858969705446,1.96055662270256 m-22.92762097976637,3.644869958504791 l3.3221410145892216,0.24414585463036592 20.711460226879446,-1.5255663392553023 l13.525967200274993,-0.8044657909362927 2.0034767358901595,-0.07209559559405247 l1.5121700280542467,0.31840384789810605 m-33.345005194280475,2.6728773327309323 l0.5624760941616445,1.1748279053432498 0.13684964263427696,2.7895704852391043 l0.2833541351722608,1.1665482962661362 0.9913347754564658,1.0167031476036992 l1.9249437861999457,0.616162607270168 3.125994207843228,0.3245163781212418 l8.01230089752928,-0.0039114799843840255 10.471063274313869,-0.3132697218486359 l4.96599168322994,-0.5567830147017181 m-29.025379009873355,6.207008008173474 l0.6786059830084802,0.8453859369337148 0.2009034516541694,0.872739321637299 l0.013799462305678478,23.004715216996757 m0.30424930833470964,-24.03972248390147 l23.253785660346633,-1.5617321514844968 1.2002041173317541,0.03435492576418245 l1.090617841326465,0.47346001893451717 0.5348366162339057,1.5439349625200256 l-0.26471996149636634,21.84440147308332 m-25.858212002367885,-15.33915975865994 l16.93570320832957,-1.0505659051984169 m-16.941946980381914,8.182248891854945 l16.66136615719832,-1.0688956811451973 m-16.688725873590407,8.992928514956656 l25.285281159226134,-1.154469040490872 " fill="none" stroke="black" stroke-width="1" /></svg>