<?xml version="1.0" encoding="utf-8" ?>
<svg baseProfile="full" height="86.91828323581217" version="1.1" width="101.52595003719394" xmlns="http://www.w3.org/2000/svg" xmlns:ev="http://www.w3.org/2001/xml-events" xmlns:xlink="http://www.w3.org/1999/xlink"><defs /><rect fill="white" height="86.91828323581217" width="101.52595003719394" x="0" y="0" /><path d="M28.697192787507333,25 m0.0,0.0 m23.842789623744817,3.1788877687394965 l0.02484816476525024,0.480602106581438 -0.4378783973479139,1.0009913350554949 l-1.5686261815091864,2.7969226631847177 -3.1917267919050034,4.417616357644382 l-3.5890888187208394,3.833725790265118 -3.8615979582037454,3.478480351086879 m13.417620780403539,-10.437852567543299 l2.707425256567204,-0.08733526429908846 17.59399473340665,-2.0031144746296707 l1.6908270376238743,0.15939937774693022 1.0488307543264908,0.710951414462892 l0.15133904653546904,0.5105066259819565 -0.11358240800656588,1.7227171673303894 l-4.235431935738206,6.70353686002182 -3.5412947362983704,3.4341386454156866 l-1.2913250573855344,0.4233943027262971 -1.5069213507387174,-0.1813498065195703 l-1.98467873806267,-0.9110001609928983 m-22.685745374110986,-6.251035986055278 l2.6199713743470423,2.5163502192364673 1.6742993462281468,2.586414650934093 m-20.46124115742808,-7.039537529646022 l0.9866234199409097,1.8904391605398323 2.0514775183992153,5.6925457279297085 l2.7666649766470646,5.987289599687267 2.7916655914067223,4.106042160429125 l3.746382177495903,4.308076229016162 4.007665639375602,2.166100001942618 l4.946313597916457,1.244896058224681 5.753096752019327,0.47948445131453366 l11.747612946781695,-0.06543514201560362 2.3587013665574688,-0.3716289297060891 l1.2529044944578744,-0.5633634338589791 0.6935623384088548,-0.7921138855335327 l0.026766868263641396,-1.715782750386498 -0.35588112829413054,-2.796537623812946 " fill="none" stroke="black" stroke-width="1" /></svg>