<?xml version="1.0" encoding="utf-8" ?>
<svg baseProfile="full" height="114.4717639123932" version="1.1" width="102.76993232082972" xmlns="http://www.w3.org/2000/svg" xmlns:ev="http://www.w3.org/2001/xml-events" xmlns:xlink="http://www.w3.org/1999/xlink"><defs /><rect fill="white" height="114.4717639123932" width="102.76993232082972" x="0" y="0" /><path d="M25,25 m0.0,0.0 m10.69342611145904,3.3937443283181343 l0.4774078621906254,0.2160262998338749 3.3412179409907425,2.2912958577015132 l1.5138024126756506,1.4597140563599138 0.8194783717239398,1.157860576812321 m-9.488109254592448,9.982534650460453 l1.8276071519934167,2.178924818911466 1.6447794430707288,3.098856165507993 l1.4052326314627763,2.7407361165657473 0.5474280694836917,1.7334677970768133 m-5.2381176760034975,25.800665074722247 l1.0910202851575184,0.18941487323971265 1.042964601618137,-0.885605152357925 l2.5713475866461915,-5.51042263106611 2.548770726355277,-6.824859192197592 m6.806836028040419,-26.246157395112863 l2.3202907184569925,0.4174420041974025 17.967018228227754,-2.547869135719467 l2.7959756596870142,-0.27199511026702 1.471387971347275,0.261888354576517 m-13.41133167709165,-8.150683458518868 l0.6208399041558216,1.0347712116923513 0.18493971548623428,1.2420942300224684 l0.05748222184575037,16.99368385861094 m-14.664104316440122,1.8535321740335677 l1.867016253017898,0.3340460308755939 2.151370773162331,-0.020137775031809902 l12.322065414771052,-1.589798339475629 9.848434932693092,-0.9601179252190265 l5.327627316709741,-0.14832165093743188 2.305826912528319,0.4211398838006717 m-18.70730107500863,3.547438099119833 l0.07168588127048785,1.0629460665882393 -0.42848074633068434,1.1392732836861386 l-4.378047597647794,7.033473751299205 -5.2776911916275475,7.171059522602972 l0.24987220141312397,1.2631321866394358 0.8944973548314822,-0.034394446862331306 l3.1321736191680194,-5.290728416733635 12.672956091698694,-4.999164830212579 m-2.4851045780535217,-5.759356466414142 l1.7983854951508245,1.987945939705269 2.148654078370712,3.2146149374390034 l1.812065901718778,3.4471050418817653 0.8391357994272061,2.630818605974672 m-21.64963215003583,6.116319386660183 l0.6796049168312631,1.8131464726629987 0.20813183056151194,1.6749428154840356 l1.071846973087536,14.807321365456172 m-0.6992181997169516,-16.921814865190353 l17.67030389680582,-2.516946173581867 1.8331125453540154,-0.14389079814840428 l1.0927082230157368,0.18744041150478358 0.7597266659512298,0.8861353363671827 l0.10875821454494843,0.6597770847181622 -0.06958228208824711,1.6358755823617537 l-1.8663373214816008,14.955121692590298 m-11.194935511879015,-15.622083590916542 l0.40452298778764617,1.521151407272248 0.08929082280067013,13.702719421233903 m-9.81521472075817,-7.07432960054479 l21.177868109316286,-2.029295653860188 m-20.065117056754314,10.735374946504187 l18.74181842933215,-1.798220310722401 " fill="none" stroke="black" stroke-width="1" /></svg>