<?xml version="1.0" encoding="utf-8" ?>
<svg baseProfile="full" height="94.48253817645659" version="1.1" width="102.0632795246772" xmlns="http://www.w3.org/2000/svg" xmlns:ev="http://www.w3.org/2001/xml-events" xmlns:xlink="http://www.w3.org/1999/xlink"><defs /><rect fill="white" height="94.48253817645659" width="102.0632795246772" x="0" y="0" /><path d="M25,25.075232876101296 m0.0,0.0 m13.980399694614295,4.569141663174915 l0.41874518709453,0.42161713233911186 2.31274594803462,2.7253077334399247 l1.7873750792469505,2.7520358210029086 m7.681476831784617,-8.707516890238441 l2.4769222553081085,3.7256448427869016 1.0397410031998655,2.673548311850733 m14.392267265623131,-8.23501149045735 l0.22627000813348003,0.9885996151352037 -0.6105980300971103,1.185413297406759 l-5.406888795091052,6.14844263092071 m-29.18150850076735,5.804866709078018 l-0.9297491294974405,4.687824323399199 -1.75617142117594,4.764578399976955 m3.672083533795598,-7.917994510844069 l23.38957270181772,-2.431256368747332 15.575237907592163,-1.1071467763706926 l1.5955404986829897,0.04773648008182908 0.9650039602952589,0.31243424632387173 l0.4348135260827774,0.5081836990649856 -0.021117570626750366,1.3409691805434332 l-1.0413589342670422,1.6326515832059598 -1.9974014684984294,1.9554011378923521 m-32.24159337360556,3.4483504415770105 l0.6814889448239403,2.350816139751397 0.08693838736471805,20.20006095263546 m0.30524085091682424,-21.58009574053071 l18.806705499732008,-2.3505105141331017 0.8003892750449383,0.02296387379461815 l1.1152498366459183,0.5776305615337868 0.4394122980690703,1.090395062093243 l-0.191985831922663,20.723489171483592 -0.26500003246328147,1.4668967701417273 l-0.5840479921395032,0.6118378110423776 -0.7899209236651529,-0.04101894571957699 l-2.7162014438342474,-2.211934594949027 m-15.08543746474196,-14.147161630472743 l11.970046839958748,-1.2394240145374509 m-11.619444041425934,7.80638419168388 l11.532479096322307,-1.1227703748986324 m-27.47847560812989,-12.14890541214979 l0.7669511468848156,0.9652688435066595 0.29105974412197455,1.1856782120211047 l-0.43867448733447373,17.893643338682857 0.2793718316773722,1.1586255180736698 l0.6274529251423795,0.42978085930607846 1.2524249944562167,0.14252706930964223 l30.59287936913384,-1.8377732475598663 5.838579910763172,0.21019967953089339 " fill="none" stroke="black" stroke-width="1" /></svg>