<?xml version="1.0" encoding="utf-8" ?>
<svg baseProfile="full" height="101.48215618560941" version="1.1" width="96.55774570829837" xmlns="http://www.w3.org/2000/svg" xmlns:ev="http://www.w3.org/2001/xml-events" xmlns:xlink="http://www.w3.org/1999/xlink"><defs /><rect fill="white" height="101.48215618560941" width="96.55774570829837" x="0" y="0" /><path d="M25,25 m0.0,0.0 m10.992965715322544,11.251054607670996 l0.4687205013295022,0.1295826111940141 2.6400525407919164,0.13449796372284661 l22.157285536434017,-2.4214819908072585 3.2433297191321335,-0.15415207465944208 l2.0253872170863407,0.27257819285060547 m-16.24238434522366,-8.367661759179713 l0.7232271095511253,0.9363556750573689 0.3507791698193023,1.3270999564401624 l-5.446741716371578e-05,17.099692944676086 m-12.203516981840513,1.4982131957203597 l3.4585688750981656,0.14282464047564541 17.480381116312376,-1.9774218466932554 l3.5399187746766403,0.14648735953669548 m-31.187843347790935,9.909513157881472 l-0.674216370894647,1.2430188506912694 -0.9357550751273735,2.3440338107513137 l-1.4078128363079505,2.4697285490731256 -1.451605417274095,1.896912165028556 m11.227046983623804,-10.660432110270532 l1.2334013928394878,1.5222394679729152 1.357530040674243,2.08172489806563 l1.0655655759935982,2.245399893171027 0.8066087712487675,2.4135117577389225 m9.218091493907915,-9.223366362297579 l1.307988755527847,1.762731207129337 1.4136769284687962,2.466795024207311 l1.1661388363571024,2.5277097013871135 0.5464176021866992,1.9703418767217236 m7.241026863169468,-8.313400454796557 l1.9468485852335937,1.8302491466599573 2.307729922499154,2.7586713186654475 l1.7869001338155288,2.667640607469901 0.9553463890746451,2.1307096897589552 m-33.26621179326998,6.214128878032461 l1.8481038198929904,1.0363643344919555 1.8973772919812673,1.7230468684676574 l1.3913768279277523,1.7837228323423238 0.6708319765521727,1.353322251019875 m16.30263664649845,-7.576408564787549 l-0.3054342912558375,1.0198540078352443 -1.0044504512921582,1.6700003794067066 l-3.4827802833337005,3.805218683221181 m-26.141204027747047,4.172254952144106 l4.463097588432417,0.21924989242102805 16.37234631348186,-1.694380229454615 l17.804466122469748,-0.884976681504779 3.0320086707046427,0.41577486228435045 " fill="none" stroke="black" stroke-width="1" /></svg>