<?xml version="1.0" encoding="utf-8" ?>
<svg baseProfile="full" height="117.20262695150282" version="1.1" width="101.69312070348118" xmlns="http://www.w3.org/2000/svg" xmlns:ev="http://www.w3.org/2001/xml-events" xmlns:xlink="http://www.w3.org/1999/xlink"><defs /><rect fill="white" height="117.20262695150282" width="101.69312070348118" x="0" y="0" /><path d="M25,25 m0.0,0.0 m7.653487613643695,19.217038003544776 l0.4181103371003264,0.09654359604129546 2.3955038556921564,0.012421270670508805 l10.648054732107141,-2.0034724440998763 1.394780165336685,-0.10132121110251138 m-6.348191149003199,-15.14524839187261 l0.5721735030870757,1.3948047426981838 0.18751201406414347,2.085757211438124 l-0.024809221247500846,49.26824394898731 m-0.221259346515758,-35.361081192649536 l-0.14075082871671826,1.685740405623114 -0.6568785400487951,2.5009387856765875 l-2.4816726983825865,7.2482919271052735 -2.49797275230515,5.436681333170927 l-3.5494017638444157,6.515271953430811 m11.20757319254575,-17.9486548926388 l2.3785900605691275,3.221499799915 1.7447267517141047,3.5217242059451728 m7.773644788314771,-27.9127345074079 l-0.2358745009453216,1.7714778550323569 -2.0477207385848186,5.48733991137139 l-1.9626529759230917,4.5276760155204565 -2.2882596698983195,4.382190252092659 m5.126174218913147,-6.761306400299612 l2.82883340630303,-0.005714331277106938 11.429161049899283,-2.2995655142873326 l2.349737678654281,0.0678710141615262 m-18.282217747732865,9.925546285618628 l2.505533641513792,2.08886296062673 1.2579646997680483,1.3447147946947036 l0.5973576860610156,1.2645446480319444 0.2940779322455487,7.862946076439845 m-0.458559762770696,-11.555352366972206 l8.811966936409746,-1.7468783249564448 1.765897282386164,-0.05340382368179618 l0.8292824165688526,0.81555520888019 0.04951671967358866,0.8212994779523681 l-0.15598262848090488,1.192274248500349 m-11.308510161243463,6.522011022023865 l10.72588624072036,-0.9943355082231823 1.8000058167265667,0.017287323944522984 m-17.224128809328008,8.144962610435007 l2.571049641280157,1.5505025423056202 1.5459455029064806,1.363014498576531 l1.0293582225330704,1.5566069977091563 m-3.737715890082694,6.7690438559158 l1.5489419037194752,0.2674952606562278 6.082181584804853,-1.6271427100277431 l1.0220489089511549,0.13936753020838039 m-5.354790448659604,-7.127042384828603 l0.4094298773362572,0.8354165486723206 0.12967236200012572,1.6023708240305616 l-0.026174035648210612,17.258237847164846 m-5.787203381857484,4.226493355261462 l0.4605237995632973,0.08831355487443482 0.9777101701793095,-0.5155416011768064 l10.151323829158668,-7.101897125036826 m1.5581839481117548,-37.25868142642406 l0.6506807993333554,1.2950810321892858 0.23747032777914237,1.234009350779789 l0.6832917998832442,9.525600099135103 1.02747726124982,9.133879124497478 l1.233324065353391,8.20662131779001 1.2779055387027962,5.826630912298617 l1.2178853485716388,4.064257618617364 1.508809077009673,3.7107677026490187 l1.7913844785139157,3.263733442300312 1.9437148292642306,2.3630408032598473 l0.3959548231322119,-0.0036832432656206207 0.23480861259949895,-0.4546227372498481 l0.049218302744852664,-4.6147641769613585 m-3.261154244750433,-24.090326354707322 l-0.03146639199945066,2.2447937827944275 -0.7982124642976594,3.384036164706295 l-2.896819758693848,4.747678379648468 -4.910815278543319,5.318849904943373 l-3.083805915689959,2.464455429394795 -3.413524748371808,2.3149169247073864 m11.822363673327763,-39.14038836729382 l3.09387010774708,3.0536126301660276 1.3739686939486708,2.276350840229141 " fill="none" stroke="black" stroke-width="1" /></svg>