<?xml version="1.0" encoding="utf-8" ?>
<svg baseProfile="full" height="101.64911469603067" version="1.1" width="100.29259645932854" xmlns="http://www.w3.org/2000/svg" xmlns:ev="http://www.w3.org/2001/xml-events" xmlns:xlink="http://www.w3.org/1999/xlink"><defs /><rect fill="white" height="101.64911469603067" width="100.29259645932854" x="0" y="0" /><path d="M26.703328948092043,25 m0.0,0.0 m25.000502981535426,7.216023538592895 l0.0011718855387955534,0.4105612972776009 -0.5422141343992056,0.987399146415955 l-1.7832178146097029,1.7161690842519688 -4.657719888696122,3.342876571685139 m-6.3547410351704965,0.41216931469215495 l0.6275581960700586,0.8546089594825569 0.1732942456669321,0.8228684980001303 l1.9894495498439957,18.55525542399885 m-1.485595119308092,-18.944633314464117 l25.618726646023692,-1.9402957028078118 1.911287495522444,0.22039174482319795 l0.8802656499070256,0.7782876143431938 0.05421689144054173,1.1561558656255517 l-3.4535512777099036,17.48928919813846 m-24.21225757197614,-9.438651225064783 l15.913009134066876,-1.0177955346321248 m-14.893697152427016,8.937101432626582 l22.50763191441872,-1.1583502815665958 m-34.04199955019256,11.205303454191045 l-0.4673438469692221,2.0396657688474154 -1.2650285227724611,2.7042494861793287 l-1.5466242799826848,2.5936980195778983 -1.676453343912941,2.205189075697708 m10.067728484686953,-11.992756755168186 l3.4289795036062185,4.36132514653444 3.713339050530758,3.308990685308347 l4.513446922558475,2.359125034472499 4.29157012775576,1.236576719463968 l3.7308332140720117,0.6499490967462707 4.245271293163366,0.4168714008501859 l4.8191879800194775,0.1614959319109432 4.501838711141299,-0.107215882867841 l2.6638499973552823,-0.41840689909698764 0.9000510871489023,-0.7904811832558362 l-0.08335595653166157,-0.5413088476494118 -1.3128387207322227,-1.3459096598960862 l-2.740346492674346,-1.583839160320956 m-19.23855821592232,-9.77132158510939 l1.6379031299225824,2.501408164342219 1.1642361104048244,0.9702787516464959 l1.0296306290114758,0.11400214302101766 0.8480238717401596,-1.0898172901775813 m12.989443633033147,-4.222912356403784 l2.832410101065002,1.3509934336594676 2.5961661865535337,1.5837849908907258 l2.1095560253349492,1.7340339638922397 1.5842297860849168,1.8312761686949757 " fill="none" stroke="black" stroke-width="1" /></svg>