<?xml version="1.0" encoding="utf-8" ?>
<svg baseProfile="full" height="102.12239035042865" version="1.1" width="113.68699008807104" xmlns="http://www.w3.org/2000/svg" xmlns:ev="http://www.w3.org/2001/xml-events" xmlns:xlink="http://www.w3.org/1999/xlink"><defs /><rect fill="white" height="102.12239035042865" width="113.68699008807104" x="0" y="0" /><path d="M25,25 m0.0,0.0 m2.180284511575289,17.87618272745681 l0.40249089742212824,0.12131747344779802 2.276651583838066,0.05731496141703731 l16.310078063804237,-1.9103761165710225 1.8853976111729234,0.013077354776509996 m-9.51614081304258,-12.204573408078184 l1.1609498865739434,1.0339356778927673 0.7483284780464217,1.5549217722422792 l-0.20622252360620666,42.01413745080849 -0.19474570029386745,2.2105508915446546 l-0.4859269901417346,1.0999019614301935 -0.7254563672918335,0.2559996040613168 l-0.8319842024176891,-0.34086798732406776 -2.2025759086683347,-2.087147447987893 m4.405497866238965,-30.102624792900983 l-2.774690007228754,5.595738816117698 -2.568245019937477,4.258593354290645 l-2.910197783620571,9.979937180047617 m10.372823746106336,-15.461495338085488 l2.5663085067201186,1.3813326412878664 3.7299225123976174,2.7798414884401126 m5.70502213860678,-16.910400069836783 l2.677557430983265,2.5394662561584185 1.8984957848530317,2.726034530411926 m17.017256162247694,-8.375111781745083 l-0.23845696008618333,1.3703130667958299 -0.9771669367928116,1.85928215552449 l-1.8293651629211876,2.4742199405176746 -1.8413128657983582,1.8869329237415051 m-18.471384434467673,3.594346830693255 l0.8469326326268574,0.24877259144710565 1.9936072820880382,0.035190231638196325 l19.780194164055835,-2.386523450401449 3.5630874193137405,-0.18968796877150076 l1.9923081624500272,0.25257981151164355 m-15.716094215511278,-12.143536651021458 l0.7541503630243312,0.8427581909298443 0.18488840145733826,0.8504027319600074 l-0.12561144514890546,23.910281063934992 m-1.0579284565808469,-12.844469547296153 l-2.6750084694842227,3.8430556613268365 -3.5673496512650846,3.876272934671967 l-3.6593904929195844,3.0592203509987614 -3.8921807562452995,2.2961580880675627 m15.201303117427072,-12.994374992049963 l14.173806482173747,9.402022736699132 1.2788041861601933,0.7387559846221465 l1.6185313260145886,0.41181750663047423 m-28.25034197716078,3.3343458699275352 l0.3058928673460058,1.2636166720175723 -0.1789740317127184,0.8831708577523769 l-1.6547227560029876,3.7363193858136268 -2.404955900327567,3.559518740419809 l-2.9597794962289097,3.0500723867064683 m7.720656369694124,-7.340908307494874 l4.451289330142265,-0.3409611437826454 4.935096468024901,-1.4365024777063229 l0.5196166634808088,0.12450259657768553 0.25631885130714477,0.6041438489791839 l-1.060852229129385,1.718545340769713 -4.274860573838288,5.108364485091579 l-11.116444700526475,5.25560905214746 -5.2298153464366735,1.0646231615804547 m8.172323167635215,-12.083370038084643 l2.7304713720347262,1.9178572596986765 1.5181265471004717,1.9388092847723466 m11.491908738562,-7.315075685098418 l2.3798258269368295,0.024661367358932387 11.163487575611226,-1.341996175227766 l3.037657493236912,0.055205568836958846 m-14.092865636431412,1.4257214257149566 l-0.10092324810825623,8.236467219084709 m-6.694620674546514,0.36838691086816494 l2.1196659365796098,0.02591422331134569 19.024330592150115,-1.99341188740018 l3.6222353047705345,0.16384041890331463 m-11.367974228302252,-15.470193896730612 l0.7591214764407328,0.6530458004263049 0.2410018238303127,0.7665741814800823 l-0.10714704886822346,24.635358664793152 " fill="none" stroke="black" stroke-width="1" /></svg>