<?xml version="1.0" encoding="utf-8" ?>
<svg baseProfile="full" height="101.56837548655858" version="1.1" width="102.78188417308004" xmlns="http://www.w3.org/2000/svg" xmlns:ev="http://www.w3.org/2001/xml-events" xmlns:xlink="http://www.w3.org/1999/xlink"><defs /><rect fill="white" height="101.56837548655858" width="102.78188417308004" x="0" y="0" /><path d="M25,25 m0.0,0.0 m15.003697888878019,4.731218316766598 l0.40824079238265676,0.15837008731591296 1.434154669498388,0.09085006682255643 l9.15349790175179,-1.888512899112174 0.910800375709803,0.302104033029217 l0.26974578950852574,0.48869940091587033 -0.3362010812845754,1.8915244695808044 l-3.471162513903182,4.054284780917127 -2.4688467745638585,4.350981424637966 l-2.297293801603329,3.8203536262431883 -4.7008819459787645,3.7132129134454948 l-5.691239260638308,2.9958599384673406 m4.553212871807005,-14.48062353447881 l2.861831499198109,2.3857742174185286 1.1654174714528824,1.3417880790436476 l0.6931057926361102,1.2095998782161883 m11.659454003277334,-12.49163314829546 l17.45145201336295,16.571013632596994 3.063523280626718,2.3278916913019043 l3.119375200961756,1.5307122458597038 m-12.501204436058432,-22.88989517857422 l-0.02662110971972295,0.6680099702793818 -1.8917713662815152,2.990476316973101 l-1.2374099003025882,1.4640093175880369 -1.5642016070449867,1.3988535532771158 m10.905784569450265,-0.5062882671975079 l-0.22106323049622156,0.9198544344145861 -1.2652781485296298,1.8394626813735397 l-1.6254160005101526,1.6485330824979438 -2.3028950634624783,1.7414638996966105 m-24.784215266562523,8.621461597516829 l0.7956701954810677,0.6000501208998341 5.8935620644303155,-0.7868014529545523 l0.6053105829372288,0.0009924457987245373 0.3484499085821176,0.36315843665332015 l-0.011133281388116725,1.1766010035398766 -1.8135812792430477,7.4074053961490405 m-6.93474228099172,0.727789539766841 l7.983079694351952,-0.8504238742609432 m-8.494649512555076,-0.29908171734644456 l0.19757672317141395,0.998576081748298 -0.16056703413053044,1.1452166728164404 l-2.215819125220472,6.320055103582117 0.2514938624351239,1.1932561069028162 l8.649456730996562,-1.9151011037981984 0.9338172204487905,0.08809338079551057 l0.494303376686241,0.933663307222369 -0.07865717110512864,2.210305110016123 l-0.7017285198003,3.306444340949362 -1.1543978375441397,3.344151780825122 l-1.3235472645245172,2.5705631373398 -1.1229248481692327,1.5980616932915137 l-0.6385436398209428,0.43598934808359247 -0.550519030920175,-0.30420158279395526 l-0.6295802034833701,-1.0347206819854622 m13.761991068435636,-30.862750213821112 l0.19257201916647915,1.6227593701338905 -0.6757704623884367,5.598658181408032 l-0.8271911009604219,3.768020344140515 -1.0157482126090103,2.4327106933528495 m2.7706741434156044,-12.514063919562528 l1.9186632316026753,-0.35347577560265697 3.3388335393085513,-0.9911535252981494 l0.5680838259069738,-0.0370854388059805 0.4083685058292344,0.3335985076565685 l0.2702193192209613,1.1248564092172184 -0.4984757849152949,7.817826102587292 l0.5960796296195188,1.5778076241460917 0.903747511692416,0.6332460939876975 l2.3116940920074316,0.3092269090591531 2.018093028231029,-0.4226699898714812 l0.9649901043012983,-1.1791432928004433 0.24572300998641192,-1.965180728012255 m-15.966853247927606,9.524137272088794 l0.6884442022100412,0.21584017617110515 1.1082791082458237,-0.0723497643927376 l10.383928142526674,-1.9354830666350444 0.5471758193632494,0.06143552848166504 l0.41141099899398215,0.40881544524922697 0.18645798059010624,0.5969105437818376 l-0.4932533679206256,1.4209429340759054 -1.8293129897982532,3.6516176975319805 l-1.6316963824958115,2.588845573163055 -3.753148180249121,2.3578882207960974 l-5.301376427023531,2.268941755940507 m3.1606887190829323,-9.055511913246521 l2.119315084325233,1.0277217384540753 10.577201985099457,6.988130443943619 l2.8681708671653605,1.5185297090868615 1.8042292520293781,0.6047040232927282 " fill="none" stroke="black" stroke-width="1" /></svg>