<?xml version="1.0" encoding="utf-8" ?>
<svg baseProfile="full" height="93.76785427838135" version="1.1" width="111.77595611793186" xmlns="http://www.w3.org/2000/svg" xmlns:ev="http://www.w3.org/2001/xml-events" xmlns:xlink="http://www.w3.org/1999/xlink"><defs /><rect fill="white" height="93.76785427838135" width="111.77595611793186" x="0" y="0" /><path d="M25,25 m0.0,0.0 m7.3930401140867525,4.227206534142438 l0.49937076990064155,0.22040499796105303 4.29095997928357,2.514511931992974 l1.8902837720258108,1.5785460787832928 0.7922395824048656,1.0239251489674426 m-10.838251076071916,19.48317390199081 l2.153233245127698,0.2713460059256089 1.33434671579111,-0.6458396532376788 l5.033602786910681,-5.453264666687055 4.889570807911116,-5.801933693189518 m19.954210820083443,-16.317880875967308 l0.3909030311537895,1.3103860467488908 -0.3616778319816595,1.3600013502635628 l-2.267249740071764,3.9483725728513273 -3.241546849461899,4.090522389789213 l-6.422697838076453,6.301302792789235 -6.690225833066684,5.00258218380508 l-3.4192437783633145,2.283968514422997 m20.625875724962665,-18.541203134556472 l6.840695615660076,5.498848823020298 10.312262080287905,7.19617895404562 l4.500728786623787,3.03222892303866 3.046810585303082,0.9737425996635071 m-36.79260562284753,7.092254645515446 l4.39531254425255,0.1719142635699463 17.355082983464058,-1.7435796479391392 l5.579074423836087,0.08347397541814698 m-15.298276274127877,-9.190531555125924 l0.7897103962493309,0.9896476088036845 0.16922210632983456,0.8272765382158503 l-0.005944800160703432,20.40376749434801 m-21.70374103102395,1.231768860190408 l3.4712588668495123,0.34473436882094816 31.570534040308175,-1.6527891002660489 l8.439768536314128,-0.14286041733815127 3.099318478064921,0.27985681700488496 " fill="none" stroke="black" stroke-width="1" /></svg>