<?xml version="1.0" encoding="utf-8" ?>
<svg baseProfile="full" height="104.8996783066287" version="1.1" width="103.09213085967001" xmlns="http://www.w3.org/2000/svg" xmlns:ev="http://www.w3.org/2001/xml-events" xmlns:xlink="http://www.w3.org/1999/xlink"><defs /><rect fill="white" height="104.8996783066287" width="103.09213085967001" x="0" y="0" /><path d="M25,25 m0.0,0.0 m8.750389385697849,4.218295140457251 l0.5232804008198286,0.21065109419347378 3.7561778671877932,2.361627026528828 l1.6179258782681731,1.4283262419489497 0.8836557196297958,1.1453232105031412 m-10.387946141393549,9.683548769514594 l1.8743499462939799,2.203724234447306 1.702734884564159,3.082520356495933 l1.4730118055170471,2.8086041451235215 0.5715625242369069,1.7667269154656695 m-5.81970278340694,25.810880584548304 l1.120369632885025,0.1794505874017332 1.1903281244102575,-0.9409911372444211 l2.6391083977414977,-5.4782972099410685 2.689252067140199,-7.279849073819016 m7.676395720520859,-26.83772177780285 l3.055937041037911,0.4774536608768856 18.752912160779516,-2.3480106161796934 l2.8546488975036612,-0.3396190973392175 1.7305643687307437,0.25319991040823026 m-14.586931224886479,-8.61488980891608 l0.6723829863319526,1.031844491040451 0.19863620514559444,1.3036833225704894 l0.039444804981494566,17.354986397089696 m-15.821122680283318,1.818877505572273 l1.9913739641734451,0.30550072938597195 2.3838284368055094,-0.03387011508962559 l13.016232731349998,-2.859671463342117 10.178642539242006,-1.343298915844841 l5.534051633441595,-0.35021740038088656 2.8306355652034942,0.4046119858449661 m-19.436465222914457,4.45637927714867 l0.06143496838484253,1.1258524552575544 -0.45256309676375633,1.185521398424542 l-4.697839137968547,7.617163877613835 -5.828887914245815,7.291507258220072 l-0.8013643161209761,1.6795284432671627 -0.029054130446204817,0.5851066566425148 l0.5129998545519671,0.25252757711076135 1.2607009191440832,-0.14780559388746475 l21.733932546439004,-6.214686792214226 m-4.275565205976282,-6.584370811595542 l2.127446535210513,2.491777456820022 2.457246905829702,3.868051042594052 l2.0264581240278234,4.172366139004601 0.9415823429650244,3.246198263924896 " fill="none" stroke="black" stroke-width="1" /></svg>