<?xml version="1.0" encoding="utf-8" ?>
<svg baseProfile="full" height="104.02417438906139" version="1.1" width="90.93530460388229" xmlns="http://www.w3.org/2000/svg" xmlns:ev="http://www.w3.org/2001/xml-events" xmlns:xlink="http://www.w3.org/1999/xlink"><defs /><rect fill="white" height="104.02417438906139" width="90.93530460388229" x="0" y="0" /><path d="M25,25 m0.0,0.0 m13.43654081075704,14.203793980727198 l0.059954910425936515,0.47846265449609804 -0.23385685807859014,2.598134165894445 l-1.2145907757585162,8.195818128296137 -0.9677559954445443,6.0202824982283625 m1.9820232081046674,-10.176305389751276 l1.357307507297444,-1.791621492531296 5.08327325661653,-1.9901994589738186 l1.0354242938578808,0.05343114381740103 m-11.061052551631153,14.920984361795027 l1.1832821561867206,0.20773885082900692 8.654014876175454,-2.4441281364987866 l1.2194890306989292,-0.18230040044450127 0.8187497490447102,0.2402069947194627 m-6.052630060762844,-9.826645927856385 l0.2435238587126174,2.704556090064816 -0.20895415329371517,7.4618406319105945 l-0.5274608314411187,5.88042504636604 -0.7586731736138553,4.91839869228098 l-1.0020001199306638,4.130807438522109 -1.1782388414001412,3.3135306099654636 l-1.3740796564924018,2.800918469259064 -2.1016612852754792,2.3060454379452358 m7.747110827512167,-15.282423771436404 l1.7491662282378269,1.8888789784196438 1.389860257930476,2.1510555577751043 l1.262488821527754,2.533755342616143 0.8843497498587524,2.34787539204783 m2.8420292084850995,-38.69127589918923 l1.909648624180363,0.2546057418245855 8.560184582090118,-1.756163490058582 l1.6134636282071664,-0.12432473473677724 0.9389658556263788,0.21289746386146322 m-12.318743630798227,10.97733243260644 l0.4921200231910707,0.8033846995641328 0.37353444925510937,1.06179611044135 l1.2958911761976533,10.922421115054306 m-1.3033710182744518,-12.023295996095506 l9.589142374007764,-2.0806314445294993 1.6579676063632593,0.03385995796424983 l0.4330836223236865,0.8637389637166926 -0.013090013768222337,0.7921429262829036 l-1.2915869800625852,8.80476484045525 m-9.039637307911873,2.18766297379565 l9.78233243233199,-1.6292528592399529 m-10.107349153563975,7.566141671278586 l1.464459586800702,4.01232139994788 1.0116746034907076,4.580267939230884 m7.24698677810711,-11.682821944276897 l0.013816290106869033,1.6520373335773537 -0.9013687150065971,3.9138916674582434 l-1.199054528012103,3.6145748873039554 -1.4111544904923439,3.2720470912557125 m-9.779496203882378,2.4589905008844144 l1.52606671844161,0.3032812294366536 13.598897477511613,-2.214647028941192 l1.306905496272539,-0.14297084576995467 1.2173808728423547,0.30941283491492166 " fill="none" stroke="black" stroke-width="1" /></svg>