<?xml version="1.0" encoding="utf-8" ?>
<svg baseProfile="full" height="98.05185808741675" version="1.1" width="108.79516221218054" xmlns="http://www.w3.org/2000/svg" xmlns:ev="http://www.w3.org/2001/xml-events" xmlns:xlink="http://www.w3.org/1999/xlink"><defs /><rect fill="white" height="98.05185808741675" width="108.79516221218054" x="0" y="0" /><path d="M25,25 m0.0,0.0 m30.323979235757125,5.064034439313725 l0.05542917235057375,0.47280524922522577 -0.443201601089358,1.876847423284319 l-1.696109039261764,3.112228749424241 -2.416971965852592,3.5188556028138143 l-3.2326381597086296,3.705099839275127 -3.520552207198544,3.300694622563057 l-4.003218936516975,3.2417684558375535 -4.665642690571483,3.193724753096603 l-4.0787997372751255,2.3533110511518602 m25.8368207551461,-22.83461599934938 l21.928091280690378,16.68788771306369 2.75397798078416,1.5462122048542437 l1.9539981249266705,0.6824488067943177 m-35.748725264727334,-2.702796625003812 l2.452501090729187,0.24093560747323167 14.044160153342073,-1.4539845838500747 l3.5416660186451456,0.08842920452888932 m-24.154835269091013,10.195761063487227 l2.6550071473612538,0.2221944069870355 22.479249343279353,-1.7763875927069863 l3.5402762901465743,0.09272078321619424 m-15.255054583755234,-6.607378504905432 l0.4742028972744001,0.8730547920506166 0.14526830416279343,1.1761526762330448 l0.11551350275637348,20.49256155123951 m-13.20907037566002,-9.394152062701446 l2.9613992724840057,2.9809156124361285 2.380581308459121,3.4860134207040674 m20.154455516708445,-8.083568980720807 l0.0002746222727057736,1.4530930560971813 -0.7607478020556826,1.1645200294734588 l-2.282007622789676,2.444785071176227 -3.030202401995893,2.551975667632123 m-28.217975632411257,4.38485530589132 l3.050319319505728,0.3008552773306427 2.706162265396571,-0.9544954985580596 l13.636317371086196,-2.715734848583702 15.554745716840916,-1.5123732091269486 l4.906309622935427,-0.25847554143132434 3.6975742838406616,0.2827277651372669 " fill="none" stroke="black" stroke-width="1" /></svg>