<?xml version="1.0" encoding="utf-8" ?>
<svg baseProfile="full" height="105.63957315880064" version="1.1" width="103.63588552464836" xmlns="http://www.w3.org/2000/svg" xmlns:ev="http://www.w3.org/2001/xml-events" xmlns:xlink="http://www.w3.org/1999/xlink"><defs /><rect fill="white" height="105.63957315880064" width="103.63588552464836" x="0" y="0" /><path d="M25,25 m0.0,0.0 m27.39229338011417,1.6305899995662179 l0.4092769507987967,0.44943688408275906 0.5180824910217074,1.5303480567936105 l-0.010402574876907664,5.912160908290034 m-21.390449533929452,1.0872577753184738 l-0.96001542495604,4.808188778827292 -1.8925390283491157,5.590546417376416 m3.5398100221914572,-8.898493902459204 l28.220150052935622,-2.703112216409883 10.734324423024619,-0.690531289497956 l5.559352403695611,-0.04676816845787268 1.0646848662785218,0.3394159584038834 l0.45131749669935806,0.5122146275114715 -0.05152371451556678,0.6501247589269749 l-1.168858387589896,1.5532671694279694 -3.1053523775883654,2.544280275501911 m-34.466061530700834,15.198226921109889 l0.8227938010881897,1.4920389342159437 0.3756103708594143,1.140605268717113 l2.465833098128289,23.539776001555605 m-1.6864013961943247,-23.873981877760095 l24.164303236407758,-2.4635986155223586 1.1189380008400496,-0.014693999037373902 l1.4730169103948436,0.5141322606451629 0.6464776282452503,1.122603869801488 l0.019565301689951527,1.732457445336072 -2.651923318754535,22.656735689497335 m-23.71826106595596,-12.612153957098228 l24.728817132310756,-1.974179951066163 m-23.75563598746239,13.481482749331807 l22.336841505204177,-1.5103482009341351 " fill="none" stroke="black" stroke-width="1" /></svg>