<?xml version="1.0" encoding="utf-8" ?>
<svg baseProfile="full" height="107.10943105746924" version="1.1" width="99.85401520029627" xmlns="http://www.w3.org/2000/svg" xmlns:ev="http://www.w3.org/2001/xml-events" xmlns:xlink="http://www.w3.org/1999/xlink"><defs /><rect fill="white" height="107.10943105746924" width="99.85401520029627" x="0" y="0" /><path d="M25,25 m0.0,0.0 m24.55543777587894,8.02286648306724 l0.05671221664989763,0.41598986406939975 -0.42771903736979533,0.9893998358982475 l-1.5836959051028983,1.7974593114432091 -4.2285646018535195,3.5748485982326397 m-6.425463987617202,0.5032375797430153 l0.6733611318019892,0.8766157771630487 0.21812826443317215,0.8465746355280676 l1.985074861799913,19.009513525141365 m-1.5142165625739523,-19.637499907196425 l24.51610630541989,-1.9453871277591919 1.7445736328565344,0.17868603425790985 l0.6222864523950444,0.7505540406658032 -0.00870513416821925,1.229944499775738 l-3.0614053565406545,18.390143775046266 m-23.024824005702882,-9.938504030561372 l15.356044764818089,-1.0267024248765795 m-14.44300186224169,10.333568185899148 l21.742756262626866,-1.2563985087136789 m-31.833615461243337,11.388230396415139 l-0.373533115543538,2.1510572466408187 -1.144970642225655,2.8405740832175486 l-1.40450692046929,2.7686383111625554 -1.5500057323856136,2.331077080305849 m9.456970111215348,-12.556324485248144 l3.2984652240084387,4.487279145563297 3.511983698039203,3.465027234376578 l4.243179289420327,2.4756258425528403 4.007978407845467,2.21204830143655 l3.3321950155914437,1.16019229767012 3.7511634132904006,0.7693110941837961 l4.308920327706335,0.4365798596427382 4.82566722335052,0.0652045027257056 l3.5477437581001885,-0.33672017445078767 1.7086337428492573,-0.7033185266998595 l0.2929787060521347,-0.47620507992843125 -0.05307975204993194,-0.5434424745790029 l-1.0857232190801884,-1.4148035400053838 -2.4164687665464024,-1.6987085209768131 m-18.359111793759425,-10.701712667878803 l1.5516807060270816,2.601283784931348 1.1258516773419531,1.0153033292244225 l0.9821584471540298,0.08827793223536372 0.737582163874242,-1.153573653788991 m12.204379448818594,-4.412555068743033 l2.579440602598627,1.396169015382877 2.438906880819524,1.6729967697356207 l1.9555487499072082,1.8007656949386055 1.4607177940798044,1.8501281470318827 " fill="none" stroke="black" stroke-width="1" /></svg>