<?xml version="1.0" encoding="utf-8" ?>
<svg baseProfile="full" height="99.18448260360378" version="1.1" width="101.88200826674048" xmlns="http://www.w3.org/2000/svg" xmlns:ev="http://www.w3.org/2001/xml-events" xmlns:xlink="http://www.w3.org/1999/xlink"><defs /><rect fill="white" height="99.18448260360378" width="101.88200826674048" x="0" y="0" /><path d="M25,25 m0.0,0.0 m28.383381596249876,0.7054615636217366 l0.37335085990502476,0.4346014649587025 0.5400797707806476,1.5801399453923741 l0.02610065817387278,5.133874743280279 m-23.18835823715207,1.6799800236815046 l4.160892886810745,0.24580459625999634 21.813479945842595,-1.7741294936352532 l15.159632561783217,-0.8935508568720691 2.463821581181483,0.041290453360817 l2.1496266431650866,0.4619229757797019 m-26.693091434228915,2.43171206744047 l-0.14667910284830007,1.4161101041585005 -0.38037219230674935,0.9828529657108744 l-4.384317397642731,3.629400894971754 -5.320609110539325,3.240893167692738 l-0.1719000581701226,0.8159714866689063 0.6479385070284791,0.4308063082998754 l1.2854456726350987,-0.0446612328776025 22.51051663128948,-3.702808222541604 m-4.151252115243149,-4.260037394571138 l2.4921426898449015,1.5369075274987527 2.7247332771002477,2.339246086764894 l2.070717595851553,2.3755099449168564 0.9486022358831627,1.623468847691688 m-25.694273647486202,4.451577404083807 l0.5942679413310092,0.6625325604939493 0.19405972281283596,0.8800689449524179 l0.11190251578020861,22.00847025158387 m0.4629312364059411,-23.148811322870174 l17.596448217811332,-1.697238084072812 1.3381690505978634,0.09605977435399311 l0.9904724295358025,0.6153139646743222 0.4692180360078488,1.1471780373929807 l0.021621531123755745,21.265849782907182 -0.2408941176588739,1.4346256636883852 l-0.463293920516234,0.7882090567223308 -0.615515062343932,0.24987860204078718 l-1.4520363898059674,-0.681368223229625 -2.2448622132616256,-1.9489357122064206 m-14.325475701703647,-13.839181841619832 l18.881079372205807,-1.2855909711643831 m-18.82538499124454,7.217366316591884 l18.714358286027494,-1.1616627498150447 " fill="none" stroke="black" stroke-width="1" /></svg>