<?xml version="1.0" encoding="utf-8" ?>
<svg baseProfile="full" height="102.92362451467072" version="1.1" width="105.31225110729702" xmlns="http://www.w3.org/2000/svg" xmlns:ev="http://www.w3.org/2001/xml-events" xmlns:xlink="http://www.w3.org/1999/xlink"><defs /><rect fill="white" height="102.92362451467072" width="105.31225110729702" x="0" y="0" /><path d="M25,25 m0.0,0.0 m15.732484789197771,11.342447131806736 l0.4578711480542736,0.1374564863946669 2.604326509481763,0.2241375751483353 l26.354345970275734,-2.297922520934545 3.754532557875722,-0.15021606672319934 l2.4000729741998783,0.2433216581652677 m-18.464228740236802,-7.247394022415905 l0.8221455805481864,1.1182755234371378 0.2667256528970037,1.0458103588664664 l-0.008654466999545125,15.399316231991728 m-12.314945680261683,1.1410379346066564 l2.655567810606568,0.19508674385348082 17.466976042190403,-1.7553140011466357 l4.664185131420605,-0.264898688560788 m-26.664835691206694,8.985076629444668 l1.0646470598171505,0.7967769343668266 0.827518491952769,1.6892322600095844 l2.111017298419152,8.93810081405278 m-1.9875391840416459,-10.607163924969885 l21.07542012917187,-2.457132629217289 2.687426873046124,-0.060819333263333684 l0.6179763320770009,0.3175366746302905 0.49102069072601906,0.9192309020122367 l-2.2775443785636234,8.433113390340354 -1.1828509082711736,2.800091348380527 m-19.367409973379328,1.6635005333251256 l21.071705317285474,-1.6184374735946956 m-24.482315839601014,5.68515027937541 l-0.49365406039110504,1.9489782192950458 -0.9375423210128712,1.9230017455772732 l-1.441733289069147,2.223688481608417 -1.7449762112409917,2.212555318807976 m11.654617384081726,-9.426603377636443 l1.0214891701892281,1.1995705786085835 1.1454514148158152,2.0357784221779602 l0.9484584283740477,2.39359696442106 0.7234576448044951,2.6683912406859336 m7.406501410039833,-9.095977460097602 l1.2845242950122118,1.5658962575679325 1.5060453655020456,2.3977434660564314 l1.1758789430997265,2.405910604852542 0.5390856906577387,1.853258147525995 m6.2478567759109005,-8.11123458031554 l1.7217040487124686,1.6609464584882305 1.9348305315671537,2.5821951300206774 l1.5336517394068294,2.612108385204737 0.7109626501549612,1.9790339725395614 " fill="none" stroke="black" stroke-width="1" /></svg>