<?xml version="1.0" encoding="utf-8" ?>
<svg baseProfile="full" height="103.17746284688582" version="1.1" width="108.1781053183251" xmlns="http://www.w3.org/2000/svg" xmlns:ev="http://www.w3.org/2001/xml-events" xmlns:xlink="http://www.w3.org/1999/xlink"><defs /><rect fill="white" height="103.17746284688582" width="108.1781053183251" x="0" y="0" /><path d="M25,25 m0.0,0.0 m31.50772778888226,3.530143715619367 l0.45257103916734975,0.5181861070649855 0.6463291932360347,1.705431541413544 l-0.010483952716362635,6.718554720304951 m-20.744707776317803,1.1132987639808058 l-0.8038725623356938,5.35348007785574 -1.9186324964819457,6.481775801019036 m3.3110744272763504,-10.152334305984551 l27.32326982666847,-3.0027203678762926 10.909362604083965,-0.8345764220310898 l6.0260827383375855,-0.07219896543940209 1.0249971737060082,0.35848947677531284 l0.4543873148188866,0.547756763552207 -0.016166673099444934,0.6786429070994318 l-1.0864448872237824,1.66120492665125 -3.234496542741821,2.777462780360578 m-34.95425487817292,16.08309096385611 l0.8051096058496402,1.5038440394150927 0.422493060691242,1.1986383582344402 l2.513933396305743,17.009291965014295 m-2.0596219213574485,-17.53076525961654 l22.707894704528474,-2.6862806055073816 4.673818570256598,-0.44700524592035384 l1.6993366193465334,0.28734223706245826 0.8169084863450334,1.0101463109062672 l-0.0032511331274329776,1.6392702219875035 -3.1283777297566018,14.103937497828182 m-24.321566972334285,2.718790791594221 l22.60199301712634,-1.9095541404195695 " fill="none" stroke="black" stroke-width="1" /></svg>