<?xml version="1.0" encoding="utf-8" ?>
<svg baseProfile="full" height="116.95984351150483" version="1.1" width="106.69674078871924" xmlns="http://www.w3.org/2000/svg" xmlns:ev="http://www.w3.org/2001/xml-events" xmlns:xlink="http://www.w3.org/1999/xlink"><defs /><rect fill="white" height="116.95984351150483" width="106.69674078871924" x="0" y="0" /><path d="M53.60096038255494,25 m0.0,0.0 m27.53440510380152,8.604480015600865 l-0.45413177340022537,0.5099361779829806 -5.0641201301487655,0.8685125402237488 l-6.105391621004414,1.4786054481865043 -9.259106306884597,1.9631941772656551 l-10.411286091455374,2.0266535072671417 -11.027363328721,2.1307762390128158 l-11.614170641717822,2.318455927492158 m-2.1997955930242643,-0.6044527883749597 l0.8240502278456815,1.2730509045392024 -0.18194319403978948,1.7512672862190026 l-0.3143820568837992,35.01267483815123 0.899951807455617,1.9183386395693625 l1.0179812848868304,1.058497234416324 1.5719981188134657,1.2517682852291336 l2.1848918104959583,1.532553878829192 7.675765334937636,2.24380720025224 l5.9725031249532705,0.6899247081373668 6.404248075839864,0.6549686131972923 l5.528703035237852,0.2768306783075789 4.787008229019914,-0.03353319227451143 l3.7935254519148076,-0.39841842400016036 3.6917034114771434,-0.8171600059299118 l3.385795324098252,-0.8972702894414978 3.3347673825026947,-1.2123566182010677 l3.3248075650312656,-1.8952927006517388 1.8868226316343186,-2.370997794670768 l0.9085432234982463,-3.150014851688461 " fill="none" stroke="black" stroke-width="1" /></svg>