<?xml version="1.0" encoding="utf-8" ?>
<svg baseProfile="full" height="108.48044890111214" version="1.1" width="120.95842502861812" xmlns="http://www.w3.org/2000/svg" xmlns:ev="http://www.w3.org/2001/xml-events" xmlns:xlink="http://www.w3.org/1999/xlink"><defs /><rect fill="white" height="108.48044890111214" width="120.95842502861812" x="0" y="0" /><path d="M25,25 m0.0,0.0 m22.334836711118562,7.438573140296792 l0.045027707126945,0.43467277962089185 -0.42011808845060344,1.0002945988301355 l-1.6574800142809387,1.7738838451018686 -4.596916209817193,3.662592194419907 l-5.4867765015983165,3.3687174287392705 -6.523795236795427,2.9596679197486875 m18.161972797249526,-10.060701166172345 l2.1789677335169815,0.10607782676868936 13.43266188049116,-1.1260773881755037 l1.516627045331037,0.19299267910438 0.8486696841567559,0.40863083335985934 l0.32443969746409707,0.48163318537628547 -0.3297175448371055,0.5491199216303452 l-0.5800171609935615,9.108718999707099 m-26.094293525215964,1.9016851923076854 l2.181649008175995,0.2728364780661799 29.185665386147114,-1.9427572656892804 l2.7645754002653655,-0.06655233231092517 2.0007612289509393,0.21850385966071947 m-19.482785781005855,2.667142624089361 l-0.22971367834877343,1.2995025820347252 -1.4371249113866893,1.6756059592103285 l-2.555926131557525,2.4298365437131357 -3.052824706853237,2.4536802025787807 l-6.514438219642861,4.0620545983796 -3.9785206330096003,1.8652564773633478 m14.808541586097666,-7.908422841992766 l0.7230249737509853,0.7665505406806579 1.2303305495270798,1.1890302505453931 l1.711967114593077,2.342986603808571 m25.869737149872716,-7.48483447487427 l-0.11061199709915996,0.773923416863658 -0.5268327703397353,0.8654980020920452 l-3.0082759183493835,2.8492775544447384 -2.9145765319404493,2.1221239746710787 m-9.196009185709633,3.8798562893931443 l1.7331339652902773,0.6931689365891255 1.8990808828199812,1.075402297537114 l1.9188196570656162,1.1938941868893869 1.8235471944058124,1.0607323366829042 l1.5057208655091885,1.3479417113910293 1.3681833253218045,1.6087753421311026 l1.647594605115505,1.8256554666408291 1.989844375120844,1.7994583836662486 l2.467932726732111,2.7230434452684937 2.3676652814934216,3.2505764572151175 l2.1607486118786614,2.4730222665802817 4.693946295013736,2.4311692751630813 l2.759650839541079,0.4660277619651452 1.5849543494954468,-0.3289137283672978 l0.4149011472106365,-1.0411438541107905 -0.1423770367331756,-2.326149696142857 m-7.923818818631882,-13.445376683582074 l-0.12187072682668612,1.4070515567950084 -1.4648718687102753,1.8056435614992985 l-2.591560342743216,2.858786543620243 -3.2833027968094752,2.8975817401484143 l-3.216769030292355,2.3326261776390753 -3.811073776244934,2.2511724716742454 l-4.4088931409321725,2.1185972551981163 -3.793284946381145,1.3719886149882947 m16.83091516931574,-26.125269817974583 l3.6532197930106145,1.7368008157120702 2.1150169755813284,1.4682556177396946 " fill="none" stroke="black" stroke-width="1" /></svg>