<?xml version="1.0" encoding="utf-8" ?>
<svg baseProfile="full" height="103.27666319169435" version="1.1" width="102.5792425013393" xmlns="http://www.w3.org/2000/svg" xmlns:ev="http://www.w3.org/2001/xml-events" xmlns:xlink="http://www.w3.org/1999/xlink"><defs /><rect fill="white" height="103.27666319169435" width="102.5792425013393" x="0" y="0" /><path d="M25,25 m0.0,0.0 m27.010078352172975,10.837697309042905 l0.3915758478929167,0.15731857379284164 2.247477709932989,0.10942246306889875 l13.127362193376042,-2.231330561594013 1.1437830883720712,0.1379787365923369 l0.49128720009874877,0.3307016520849421 0.25572211856579313,0.5529102787358485 l-1.0054109147505164,0.677059716931869 -8.27441024623465,5.528622051795186 m-5.110340827280842,-1.5774147947516761 l3.9666369525896243,1.7321895564801504 1.5779092219819064,1.552914483892896 l0.6220224152602063,1.0112492199464147 m-12.043202538272146,2.1996334954066024 l0.5166564337532078,0.7023969697748816 0.12961291315631115,0.6820940098389012 l0.09191984089505822,21.87658565395595 m0.447149595466248,-22.299616996186547 l20.26792683882738,-2.436008708417502 0.8264828539852038,0.029115803988971112 l1.0280892696536819,0.5779301979004038 0.2452817181708121,0.8992392269184574 l-0.38333062927029193,24.21891253185621 -0.3414765912619602,0.5106016931028535 l-0.4654931593404904,0.14182608293242324 -0.5232429068751084,-0.13982089135383471 l-2.253350708008569,-1.5890329855009773 m-18.291713898998466,-14.979964184370417 l15.594128986596262,-1.8669644571177557 m-15.607184939242222,8.95831500804661 l15.356936120362045,-1.534583152161767 m-5.732307060445907,-12.794656185084758 l0.5841511379428499,0.6316826205280169 0.15032225141897324,0.6817014154268719 l-0.09755499000388457,21.769162763730513 m-26.315819861657797,-32.901741884558206 l3.7281087450848753,1.8496257700219123 1.7761325103012684,1.3298302386578076 l0.7153229317567507,0.8382480306332583 m-8.822817871358852,13.73410352677524 l1.3648205573906658,0.31019935196179027 1.374897626821835,-0.19608151790308995 l5.779666855297424,-2.929232469041728 0.6807145623150493,0.008650707816126499 l0.5893690635494848,0.3523552329547691 0.2960002981396562,0.5291263184068121 l-0.16302040106276983,0.6147957954032875 -2.8499064415431112,4.623360157832748 l-0.22661957084129444,0.8499569913530511 0.46235813096369593,1.5670572076411227 l2.473295348596769,3.227577014280434 0.22051717837493517,1.3401139982358479 l-0.6621200835806496,0.8395199317662818 -2.5448352626937143,2.188531931030035 l-3.7092467847383848,2.7115701183351875 m-2.5394994940170657,0.838206779173621 l4.24491541909304,-0.5125932191048901 3.1040311254395307,0.054773439615937836 l25.901854839336348,6.305591110772473 6.472387392735759,0.6452500304018101 l5.285242037149611,-0.45527347421961056 " fill="none" stroke="black" stroke-width="1" /></svg>