<?xml version="1.0" encoding="utf-8" ?>
<svg baseProfile="full" height="95.26176204789604" version="1.1" width="100.36331885200646" xmlns="http://www.w3.org/2000/svg" xmlns:ev="http://www.w3.org/2001/xml-events" xmlns:xlink="http://www.w3.org/1999/xlink"><defs /><rect fill="white" height="95.26176204789604" width="100.36331885200646" x="0" y="0" /><path d="M25,25 m0.0,0.0 m13.710121521001813,12.968963370687938 l0.43153873135414,0.11704719423590353 3.028933505818088,0.06369081807632991 l22.866930110798982,-1.8087586564071818 3.876482857594709,-0.07884421562192848 l2.5602881708722482,0.23894812388254397 m-25.545810145621925,-4.3336356445023165 l0.8855307637286943,0.802185162586545 0.2864249622524538,0.6231058609034676 l0.9269705968883458,8.493508088470005 m13.612629772740538,-11.022594913155181 l0.4468202550511001,0.7627098170232179 0.05059204925307571,0.915286773077087 l-1.6240262189519439,8.600960475465861 m-7.4269985942688725,-1.275422133248574 l1.3180723134388632,1.2163336396377544 1.0434486778200407,2.20081552125225 m-15.169373639163659,2.6302229142777915 l2.4387563006089783,0.2442226183525451 22.169623362229455,-1.9317235880450483 l2.917686277007408,-0.10105315655303135 1.5603599332048674,0.2583374842071389 m-23.461101519820016,1.6401781524029682 l0.5448823923916173,1.20089680165157 0.08588358698935543,2.1852385211783103 l0.21196640191323024,1.118785739939086 0.665837277283902,0.8518631734184404 l1.049024481190111,0.5713726976056253 3.6772386740125818,0.39126930028718365 l6.853350405923204,-0.015319960082290756 3.827002257172192,-0.215375971903487 l2.6138271735124508,-0.46008549738972476 m-20.35859588495268,5.657037294919009 l0.388863259192378,1.2333892774250081 -0.24332637083456807,1.132313039422339 l-0.892386243677018,2.4337834171023034 -1.1776018278989886,2.319032367895445 l-1.1623689749989956,1.5747772793680015 -1.4667829651493425,1.4867183358542246 l-1.8091791841798912,1.3560175519083613 -2.165736016134976,1.2155649722905397 m17.903525500588433,-13.514982079755839 l0.6711713264508131,1.6769892299722444 -0.08094293664867518,10.740209247580765 m9.952335174765258,-13.920804379024784 l0.421048693869742,0.5551909047499128 0.2561017443893505,1.2634677843712443 l-0.07752077978353217,8.952204921984213 0.2755455335000262,1.984979560664842 l0.43166424369476686,0.8097610027583753 1.0231361230105622,0.817452765452679 l1.2251414912946716,0.2511346349738154 3.3309448944468123,-0.02194042350707164 l2.013633160141292,-0.2676709975126662 0.7392230880205942,-0.35749232766164407 l0.4588246294123719,-0.5412352431869967 0.2736884792620335,-2.299563849873223 " fill="none" stroke="black" stroke-width="1" /></svg>