<?xml version="1.0" encoding="utf-8" ?>
<svg baseProfile="full" height="95.18861957328961" version="1.1" width="104.20948501703526" xmlns="http://www.w3.org/2000/svg" xmlns:ev="http://www.w3.org/2001/xml-events" xmlns:xlink="http://www.w3.org/1999/xlink"><defs /><rect fill="white" height="95.18861957328961" width="104.20948501703526" x="0" y="0" /><path d="M25,29.372380444542745 m0.0,0.0 m8.791313056564698,4.137079112547054 l0.42292505610974596,0.23289151778982747 3.343410113487182,2.6650697176282083 l1.671000269848664,1.7153306164151176 0.6716377634457572,1.0969736477511915 m-9.703003223018989,19.644876018907166 l1.8558041962437033,0.2968194632722815 1.1944472880204704,-0.6239213759113741 l3.6048474692434156,-5.08481564295862 4.219579124384072,-5.646981015878645 m16.425425968969343,-22.805702504104953 l-0.06730701271311669,1.4311151737187828 -0.6792429955650244,1.7058958101962487 l-1.9066121392497477,3.1684098441411193 -2.332522729463666,3.1766693918456537 l-4.521508446214557,4.844034693494318 -5.54470938420856,4.379298392317444 m15.755738977202393,-15.912775390928415 l5.994602849861211,5.282867918148611 8.758828409314717,6.654226538653172 l3.2570836613455243,2.106119581479231 2.997746743428041,1.5187616561497723 m-29.078308905281183,-1.140148699687957 l3.0573374279948773,0.09382054926767369 11.487869945365222,-1.3641234166801313 l2.1800351622231156,0.08188387303346531 m-20.72448703560872,8.606230372407207 l3.733927561075671,-0.03898850830654757 20.756294294356177,-1.6272216443582392 l2.0248999962705985,0.1501929553326016 m-14.284049938218478,2.1072881157060555 l0.4812607371665141,0.7502913585445179 0.19683273158264564,1.0233619556064344 l-0.03570680637143724,17.261946335196352 -0.30912585091337047,0.7497399355994219 l-0.5890776000426496,0.17972278241282788 -0.7521924765308754,-0.3426198455346759 l-2.3194931557387615,-1.9852647533744028 m-5.13646568990652,-9.156616618391295 l-0.37061135560872127,1.4426845789507141 -2.4346230983437347,2.50722812997947 l-3.6989428235991464,2.9444019673710877 -4.9347091841278585,3.1436547671233006 m27.638129825593527,-10.181810950604913 l2.222525761696311,1.349076244807791 2.845737351693752,2.3845728300265647 l2.399383632669261,2.607870199174665 1.4222380987320296,2.088249300079819 " fill="none" stroke="black" stroke-width="1" /></svg>