<?xml version="1.0" encoding="utf-8" ?>
<svg baseProfile="full" height="97.20321780556803" version="1.1" width="104.03564113807073" xmlns="http://www.w3.org/2000/svg" xmlns:ev="http://www.w3.org/2001/xml-events" xmlns:xlink="http://www.w3.org/1999/xlink"><defs /><rect fill="white" height="97.20321780556803" width="104.03564113807073" x="0" y="0" /><path d="M25,25 m0.0,0.0 m30.844856275076378,3.8046020159683422 l0.036038258468427974,0.4600425381811699 -0.33444482848291907,1.558210289566004 l-2.2493264283189505,2.6428515692801113 -3.5063890335209273,3.3455203222184653 l-3.9085276191544693,5.354939240169736 -5.179479406531827,1.101422505189504 l-3.7614744945527914,0.2054809885972548 m20.64801377097691,-11.86829999351103 l6.843846094490392,4.197389496488051 9.805909972280478,5.515523971759564 l2.140659240895868,0.9468632739292021 2.6559593364441674,0.5009577017742723 m-27.959781101214773,-3.4567087569104316 l1.6702524101224854,0.10103417096131795 8.434706266853864,-0.9826611622076205 l2.5454854811622454,-0.0006106061839068852 m-17.631720972100407,5.5654555702052075 l3.1506601202245603,0.23708078945458738 15.222751507657053,-1.7094024781604804 l1.5991974605062524,0.21441776652896097 0.29814883672906883,0.37632184194507773 l-0.08674641359082996,0.5670549395247058 -4.381148576067019,0.7098994657322195 m-2.002725592617735,2.551748279846976 l0.23368868533722145,0.46177369819719494 -0.12264733910232706,0.683474542965052 l-2.9469195656101435,1.3768337009088276 -5.1581675921531085,2.0024096912404854 m-1.4592652744822683,-4.738334983363762 l0.44089035971138557,0.4860403175975636 0.26740346352690725,0.8136960619914089 l-0.03645646984398795,6.664378083772562 0.47910117680691267,0.8691013317109106 l0.7726014054352426,0.3580512217364322 1.7900944257131468,0.24398825766330784 l4.168592825281732,0.03590555248038883 5.069057097987368,-0.20260715302922033 l2.1782023432635675,-0.4684427296082792 1.0087608530857572,-0.6333459975410933 l0.4974487541593772,-0.946678654603112 0.1390470961786148,-1.2547825148556904 m-30.085759853905973,9.416691110187815 l1.3724072464442065,0.193431713816533 2.210854580580348,-0.011731503465522156 l25.478812294756484,-1.705256228135983 4.323247708994489,-0.12174501884626544 l2.302931256900589,0.18624959506802882 m-18.432060286727374,-3.57992640603162 l0.5285741276921712,1.299644139939215 0.002293776027781221,13.835266235425587 " fill="none" stroke="black" stroke-width="1" /></svg>