<?xml version="1.0" encoding="utf-8" ?>
<svg baseProfile="full" height="120.64566598882756" version="1.1" width="104.25006889711338" xmlns="http://www.w3.org/2000/svg" xmlns:ev="http://www.w3.org/2001/xml-events" xmlns:xlink="http://www.w3.org/1999/xlink"><defs /><rect fill="white" height="120.64566598882756" width="104.25006889711338" x="0" y="0" /><path d="M25,25 m0.0,0.0 m9.9393620788658,12.000821356295203 l0.48957048969907585,0.12645071117000362 2.908626162735675,0.1775928603558217 l26.072575102358673,-2.0945542514982782 3.8843579192670483,-0.11826772738564088 l2.604946874010974,0.2496549757484714 m-19.187832873366055,-6.774820136926678 l0.8757035721511861,0.8376515336830742 0.3605476443687841,1.0985208293008797 l-0.027214728724643956,13.14533936500383 m-13.055693797594605,0.783534013885528 l2.9232211083478457,0.13789857417219567 18.634551168962382,-1.5972700830767699 l3.303534445461858,-0.22624537492338676 1.352594778501503,0.15717253781784338 m-34.075604420243565,7.676326668107993 l-1.0475048564742029,4.710870237218637 -1.677619477945258,4.444294122040399 m3.4002264872311763,-8.074216177765544 l27.132347023533168,-2.3230019304831293 11.041593858580297,-0.682352173399236 l6.735985501067427,-0.11463406070299054 1.0983041881577558,0.27826562615012657 l0.5404599726638379,0.46179018162177127 0.023030675497242584,0.5918672041143036 l-1.0019341660777186,1.4227478802037885 -2.8422010272139584,2.3174741171163564 m-28.278165897449085,2.432878885182023 l0.41447890556508504,1.2648825898154772 0.10176820954487509,1.0054788785675832 l0.09273661202874726,4.12098364605211 -0.05966341794517917,3.146133108007159 l-0.5147532906928187,6.216502761688519 -0.8255707457236272,6.990908376546448 l-0.8299892487344305,3.883250504044336 -1.089855846601752,3.7649684139686905 l-1.5566984374288735,3.531612512947045 -1.991240929631244,3.0803974502732494 m5.835559993319291,-32.28392915779727 l17.16398996490409,-2.4645039754194498 1.0470890253452079,0.08479801854468919 l1.5576608398566143,0.33585946879332956 0.8180965694479881,1.0069144907410088 l-0.7017864346069062,1.550622479626417 -1.660534415936683,6.362269483730497 m-17.887336506960175,2.3062614240880146 l20.458745931280735,-1.7852591097616493 m-20.27214854722115,9.126861943847336 l12.342410827562189,-1.7310376016454148 8.270576882512525,-0.800985996898397 m-21.947222476794668,-13.36857956483413 l0.5587176460362573,0.9797304099060024 0.2272691427634953,1.2077905499375148 l-0.28076555747319937,24.806103717852395 0.3800943684676431,2.480378118868616 l1.0168684740822302,1.85823538002155 1.2857934348937663,1.2010506293392096 l2.8460837994855903,1.2331994926953116 6.827238461409971,0.4889777822547568 l9.035618901370496,-0.31777605994899816 5.05535730629323,-0.5518397474663489 l2.3888723655826247,-0.6693167170839601 1.667028179027054,-1.3423519495043295 l0.6209161374154043,-2.2804036211027636 " fill="none" stroke="black" stroke-width="1" /></svg>