<?xml version="1.0" encoding="utf-8" ?>
<svg baseProfile="full" height="111.8589375149421" version="1.1" width="96.5052375600514" xmlns="http://www.w3.org/2000/svg" xmlns:ev="http://www.w3.org/2001/xml-events" xmlns:xlink="http://www.w3.org/1999/xlink"><defs /><rect fill="white" height="111.8589375149421" width="96.5052375600514" x="0" y="0" /><path d="M25,25 m0.0,0.0 m14.15054634549191,3.2391433755260155 l0.42853000125230023,0.1494542182119068 2.5063896518031075,0.21911416563151717 l24.089135516560678,-2.7545300684769085 3.145217246859574,-0.18706716780007396 l2.185418798083823,0.33469807537535745 m-17.223457456276858,10.247229276155393 l1.4398035795162314,1.2147430630482425 2.2223762304850263,1.5212091763631146 l2.5572765935969666,1.8232600417445668 1.519698002881799,1.4928103497987961 l0.5766204130691713,1.726466247018712 m-8.312585857826017,7.960678470689425 l0.49939392140424904,2.1153428272702177 0.06138905309627151,5.13576626619281 l-0.22999941967412468,20.797214641471808 -0.2561673616548849,4.72871775204784 l-0.24513242151465303,1.459828476638974 -0.354358405667253,0.5761567538002562 l-0.45921185496121664,0.05870157423413092 -0.5281210464140691,-0.2915152752993107 l-2.124638159950861,-0.9259423794103346 m-6.606556955177587,-28.0655012426145 l-0.06394311334273507,1.0805672152368733 -0.3770743686398283,1.835110926714748 l-1.6645761861399282,5.206208403291176 -2.0748002038817326,4.669739965301559 l-2.3015734269067307,3.945156636305556 m26.86053858038597,-16.320624723514253 l1.9066375994295885,3.076632950587044 1.9471612104438198,4.410300025003594 l1.506898046730359,4.387803002632945 0.7451283636362429,3.414309848703688 " fill="none" stroke="black" stroke-width="1" /></svg>