<?xml version="1.0" encoding="utf-8" ?>
<svg baseProfile="full" height="100.18084335992005" version="1.1" width="112.06621503438444" xmlns="http://www.w3.org/2000/svg" xmlns:ev="http://www.w3.org/2001/xml-events" xmlns:xlink="http://www.w3.org/1999/xlink"><defs /><rect fill="white" height="100.18084335992005" width="112.06621503438444" x="0" y="0" /><path d="M49.59439517774987,25 m0.0,0.0 m27.749398980042887,8.812363851426209 l-0.7205862006546376,0.5350884016931103 -6.041963658067864,0.779862090769557 l-6.587608760797058,1.3025850340234357 -9.018033063308893,1.920963844443034 l-8.726004428521849,2.005959403944529 -6.758317559548431,2.244817871603102 l-5.263258293706817,2.3975702498110496 -3.9292762798133785,2.8243659826890566 l-2.485060747442722,2.5272588998776095 -1.7662424611725962,2.68846967206175 l-0.9601912073762109,2.6992577138664045 -0.0872514973822976,3.1186658109034897 l0.7530012825763364,3.994676319474748 1.864493942204723,3.1369718023527984 l2.1004478650642953,2.5572883054981475 3.219861311586834,2.161471206611144 l4.131714821189685,1.5842254846533999 4.56045983017449,1.2170525483364432 l5.014562469403357,0.9921133233946128 9.742224071465216,0.6798155424864156 l8.573905243005552,-0.2547291451126335 4.010158317805756,-0.6240642334418188 l3.775803027861787,-1.010585437472673 3.8359262533628895,-1.2911817635422396 l3.281425261353766,-1.6486934873575712 3.0099301291958294,-2.044366008139535 l2.5609541242904443,-2.729615358524618 1.2752109973839498,-2.8673131622807873 l0.3561360864595241,-2.935467319110514 -0.5983195934352461,-3.1428777911420522 l-1.6643165371502529,-3.257225559416113 -2.230011515956883,-2.6931088400724557 l-3.057219730699781,-2.129594634031734 -4.050160717046166,-1.6566172259441305 l-4.938482977623177,-6.084224702608559 -2.49660646191891,-1.5400915988879171 l-3.451546732296929,-1.2857458684967278 -4.03587333529277,-0.8344417855589216 l-4.563618533880575,-0.40563037806921926 m6.5373849562703095,31.561095806255697 " fill="none" stroke="black" stroke-width="1" /></svg>