<?xml version="1.0" encoding="utf-8" ?>
<svg baseProfile="full" height="124.92672497033205" version="1.1" width="131.8044582754367" xmlns="http://www.w3.org/2000/svg" xmlns:ev="http://www.w3.org/2001/xml-events" xmlns:xlink="http://www.w3.org/1999/xlink"><defs /><rect fill="white" height="124.92672497033205" width="131.8044582754367" x="0" y="0" /><path d="M39.709155833292606,25 m0.0,0.0 m35.046860792661235,5.303437034777869 l-0.4499846307358893,0.4782407958421662 -4.868057873835036,0.6660599110401729 l-5.5546480465772445,1.474764576416412 -8.370225068391642,1.9340350830097301 l-7.695371065960781,2.0740467014137534 -6.316426683019308,2.403603240343708 l-5.0021203100837806,2.400826723053985 -3.96392181851228,2.3757084637884924 l-3.2018637013526496,2.57056980070155 -2.3193683181316826,2.6371019702973246 l-1.4372633254230567,2.6023481936365283 -0.5767657839304909,2.9474778714219085 l0.2551081798712737,3.412557909370367 0.86807249232781,4.454908901931423 l1.5361929820465705,3.2502871709682504 1.8700679029115659,3.143349139388049 l2.098470914593181,2.8421706289682236 2.4837603363046443,2.7395941634159326 l2.7980962841780745,2.605989445524111 3.1266341212433995,2.6470417058852056 l3.2840379537669078,2.494665862661875 3.4597667173065103,2.3265633652018116 l3.572479245527794,2.2529576724319957 3.689447188379864,2.235333447262631 l3.855002179332289,2.074416293614964 3.8411760859600563,1.990476146856321 l3.822433038818441,1.9017662608726142 3.8662900098537953,1.6847158853051314 l4.053567060356089,1.4159399030735835 4.344131792107036,0.969109998303126 l3.5808810990423177,0.5075606144928495 3.557609330132867,0.10910008905997508 l3.760878293874609,-0.3418149015937242 3.7011520688699844,-0.9576073118530507 l3.41247919888552,-1.5877554429271823 3.427932344347265,-2.1637008811161356 l3.193888506983007,-2.9194609874103628 2.5747883158040734,-3.619866584119239 l1.6075847249267166,-4.975175246520551 0.16252990768503844,-5.628077753043904 l-0.837583482592549,-5.575602000560763 -1.669964391735483,-4.594886440201044 l-2.4583400889795723,-3.7147535639099587 -3.7534601013383173,-3.506740734954761 l-4.578009243217539,-2.9446220648182244 -4.94067520139108,-2.1992954331197057 l-4.811527206200932,-1.4393736964610293 -5.631127411997855,-0.7369547532347084 " fill="none" stroke="black" stroke-width="1" /></svg>