<?xml version="1.0" encoding="utf-8" ?>
<svg baseProfile="full" height="94.8598256537702" version="1.1" width="125.17088884919278" xmlns="http://www.w3.org/2000/svg" xmlns:ev="http://www.w3.org/2001/xml-events" xmlns:xlink="http://www.w3.org/1999/xlink"><defs /><rect fill="white" height="94.8598256537702" width="125.17088884919278" x="0" y="0" /><path d="M45.676338605689565,25 m0.0,0.0 m31.07365378054986,6.637727784391994 l-0.5244527807046158,0.5030994749125434 -5.766230518676834,0.8256694628288763 l-7.670682811426568,1.4165577038299633 -9.875469157494004,1.8293863340280088 l-9.042418269799725,1.9602924428794473 -7.019678541271778,3.268001029035842 l-4.842209568523784,2.7551499683478133 -3.3415109654040935,2.734379691645022 l-2.067888238832112,2.505545238320418 -1.2613054780069082,2.800415665506112 l-0.3381460560990028,3.2492260526842514 0.630873462076807,3.7855191369108057 l1.75727246226995,2.750942130687916 2.095443525448213,2.095211091387655 l3.5876467313617404,1.9280775745434238 4.118275748921354,1.3844760254745665 l4.553547973796173,1.0533672761158073 4.901870258630432,0.7639250690731345 l9.147428571062447,0.5641510598065808 8.013617244999267,0.04870544136002148 l8.428900706109053,-0.5990227029706492 5.270608694332776,-0.6944856572018974 l4.636626562103894,-0.9167646714027949 3.4859367060151416,-1.0712438975118126 l3.9487235500173767,-1.3810507213165624 3.4679007233178507,-1.498307801956306 l3.084447618229136,-4.383419932095931 0.26216777843933636,-2.337427861399992 l-0.8529894349273068,-5.518125097279982 -1.751446600389476,-2.92224987181128 l-2.5288812186036345,-2.467425326426185 -3.229772455034882,-1.9583951109477373 l-4.184116969024236,-1.4725309456579165 -5.0266618901919164,-0.8805614663928515 l-5.804296419520942,-0.22007769919926704 -5.469963129184679,0.3253631544061917 m32.62772864893891,27.126533428357693 " fill="none" stroke="black" stroke-width="1" /></svg>