<?xml version="1.0" encoding="utf-8" ?>
<svg baseProfile="full" height="119.6591903253661" version="1.1" width="102.74989868037785" xmlns="http://www.w3.org/2000/svg" xmlns:ev="http://www.w3.org/2001/xml-events" xmlns:xlink="http://www.w3.org/1999/xlink"><defs /><rect fill="white" height="119.6591903253661" width="102.74989868037785" x="0" y="0" /><path d="M25,25 m0.0,0.0 m14.745804942859623,5.2671007451391025 l0.4044189545231569,0.4447734951084448 0.5157111645622708,3.336336134040837 l-1.885125455980087,8.977096617053922 m6.921699710825793,1.4805629026358635 l0.2107141465327983,0.9057812487904445 -0.27863710548686904,1.1011451052842445 l-2.297933644167747,4.950618881273835 -2.570395335633152,4.72561103851868 l-3.585405236422028,4.687644214035673 m6.497409384161119,-7.769017845528892 l0.46041303202459294,1.0908916976668421 0.1334258782274494,1.8029063851320173 l-0.06570577791970302,25.73404169101381 m13.394860995197178,-37.93263728802225 l0.09623001122273382,1.0758515815383147 -0.3672835507455408,1.7817624404721426 l-1.9730655576556628,5.068861532935582 m-5.200333778257338,0.8352619620139132 l0.5223070719923681,1.7799707773045428 1.3857961941772072,12.781399361860792 m-1.2712968867616772,-13.660883511438463 l13.425194820207413,-2.011302392875746 1.2656555294932772,0.31414763233644705 l0.585240831059193,1.05273148871612 -0.022612953671763195,0.7120528163629033 l-1.916416941717695,11.056561361204965 m-12.084756702187406,-5.460473699659405 l12.76737084805253,-1.700985583396322 m-11.893546425491577,7.724320299222407 l10.947763372225198,-1.2778752126967001 m-6.647739861147235,3.744321750882654 l0.712785708904381,1.7552150775796922 -0.0007114338314387261,3.319341955733123 m-10.090476944944308,1.2711699530459182 l3.434395927303752,0.07574196191725421 14.043600124099212,-1.7991706597042334 l1.501933988162141,0.17417110687362786 m-9.701424700174424,6.2460007523046555 l5.328710934222923,1.932220036801447 1.3157791523958975,0.9630502069163169 l0.2635803761782739,0.6131872465712588 -1.1393686396030676,1.1490395588517053 l-6.387087553291533,2.3013728270083527 m-1.545203020344198,3.9419629031886076 l1.751310337170466,0.9106891994645444 8.165842028934689,2.028988615975872 l1.7287033611551894,0.32400982240107157 m-23.602399576870557,-44.02863761693027 l1.1890111329598994,1.1124404474159795 0.3582625787498939,1.7390951876400602 l-0.02421713442345805,42.664229216825525 m19.943773789529676,-47.1508410450633 l0.09418927671193943,0.8506409660503573 -0.19082523311142652,0.9419509684834556 l-2.278109395287854,5.106688886777602 -2.732535892241182,6.934824036861898 l4.090827359362489,1.1589472345341532 m6.163521093295019,-7.702285746841089 l-0.10875514927705068,1.4844477327899146 -1.2491807199494225,2.1550726173442967 l-4.693431096380484,6.618390083832729 -6.2160668102305925,8.316836421394184 l-0.06212272513985449,0.8109446108506099 0.5099329549577793,0.4445911606020578 l0.7096951174281708,-0.02285807086699259 11.70788955574321,-3.0575010234025792 l3.1890897184812625,-1.8693519887955847 m-3.5560764552026956,-5.027225596631742 l1.5294522932071724,1.9951244336857288 1.7370881123964055,3.103698171647922 l1.3558407715266787,3.205898274132236 0.6626002129552557,2.4627485497288517 m-10.091843836423706,-0.48850128907449303 l0.6446671786175442,1.8211000119113148 0.08792486653895953,16.51350381294199 l-0.3351419879091741,1.4546450015161474 -0.5346075459954047,0.285006684149219 l-0.6664938933182026,-0.49980825924918626 m-2.91446288965813,-13.912296374309237 l0.034027519872047725,1.1638484427516662 -0.6146907153039693,1.2577141434394525 l-4.044125688573911,4.684635747819862 -3.5460774289009205,3.569475534466587 m18.191363864440113,-11.68750817028028 l1.761111820660412,1.9469811292199612 1.7812372255135418,2.7837534224826332 l1.774780079528068,3.51316027854549 1.0926450116639344,2.808182168470992 " fill="none" stroke="black" stroke-width="1" /></svg>