<?xml version="1.0" encoding="utf-8" ?>
<svg baseProfile="full" height="100.89685948084427" version="1.1" width="89.20325593152818" xmlns="http://www.w3.org/2000/svg" xmlns:ev="http://www.w3.org/2001/xml-events" xmlns:xlink="http://www.w3.org/1999/xlink"><defs /><rect fill="white" height="100.89685948084427" width="89.20325593152818" x="0" y="0" /><path d="M25,25.941969041658 m0.0,0.0 m8.010428753129789,4.435776381510927 l0.42044442886221084,0.23517419498917355 3.3719251347015233,2.702825989852986 l1.5776264359157257,1.863018427656283 0.6297817594253907,1.1789352499323018 m-9.252319901732898,18.27152273324659 l1.825779156798887,0.31229084140876373 1.2243780533864908,-0.6694534587571876 l4.5142719015879464,-5.814121963898724 4.031950365613613,-6.029167380223555 m9.130992865238317,-17.42877005737556 l0.5208560511136149,1.7631113014881201 0.005099022346682924,1.3556013364507657 l-0.4902899574079368,25.722568065329234 -0.1589272670263401,0.22922343266082537 l-0.25402606383860454,0.05483170074015526 -0.7500425868036087,-0.5911017251699074 l-1.451696627001992,-1.8733433069388732 m-3.268126340082172,-14.520192167669949 l-0.2243851871951762,1.8978682346454345 -1.328122766679955,3.4803115177859554 l-2.104072759399908,4.242471582510068 -2.1457263669383813,3.4016884475305798 m18.393390566261466,-13.319424479464427 l2.2000418148066214,1.9994904114819607 2.2680077196281254,2.8349334123055328 l1.6496660106307042,2.7959827808042452 0.8563517161880374,2.3534200684227127 m-5.856119231969101,-0.8013988629554056 l-0.35076020241961675,2.838473083466663 -1.539676360851352,4.5520251192993415 l-2.400537099373222,5.006125332657956 -2.504777182731557,4.124685083245822 l-2.9162444887765098,3.939249095895781 -3.3151959393465162,3.6311988666760078 l-3.621579431891291,3.171861619050106 -3.7896137300401693,2.6071995305955635 " fill="none" stroke="black" stroke-width="1" /></svg>