<?xml version="1.0" encoding="utf-8" ?>
<svg baseProfile="full" height="92.48138984914624" version="1.1" width="99.84925998367567" xmlns="http://www.w3.org/2000/svg" xmlns:ev="http://www.w3.org/2001/xml-events" xmlns:xlink="http://www.w3.org/1999/xlink"><defs /><rect fill="white" height="92.48138984914624" width="99.84925998367567" x="0" y="0" /><path d="M25,25 m0.0,0.0 m12.21570196924581,12.523731192311232 l0.447948081005995,0.1266899242661562 2.7274625655565874,0.20100400209963065 l24.909979249168547,-2.571202850536252 3.925490923129258,-0.18434041497033934 l2.387284416854396,0.2813521363478399 m-17.94166664013715,-8.134604008628028 l0.8344843006536756,0.902058837237118 0.3877971744195203,1.2804785170768356 l-0.044452072669188825,16.039437145141527 m-12.217556699251478,1.2229747913495288 l2.8348018569646665,1.1401385707328975 2.147653898033021,1.3806245763033946 l1.2933858319436713,1.1232562104342914 0.855990403942361,1.3349763837068636 m17.11237076137616,5.512675338638654 l-0.6537478582126155,0.656444554527611 -0.6400762125474133,0.9106187196963319 l-4.5956961851334315,2.7166451243829917 -5.429786070999448,2.5602970083508527 l-8.720491673784352,2.1008910078317142 -5.583128961823502,1.3572430828454007 m-3.7873021927507464,-12.005494122694708 l4.680393111682389,1.323154487295784 21.625396648955817,2.3538910445385075 l6.37256126066381,1.7404397572006705 4.704462097389317,1.455933423956151 " fill="none" stroke="black" stroke-width="1" /></svg>