<?xml version="1.0" encoding="utf-8" ?>
<svg baseProfile="full" height="114.9741824031647" version="1.1" width="105.86106102977013" xmlns="http://www.w3.org/2000/svg" xmlns:ev="http://www.w3.org/2001/xml-events" xmlns:xlink="http://www.w3.org/1999/xlink"><defs /><rect fill="white" height="114.9741824031647" width="105.86106102977013" x="0" y="0" /><path d="M25,25 m0.0,0.0 m32.020851834650784,2.352024635488479 l0.3722973004712874,0.46182761488818347 0.5941693145533361,1.6293401307127064 l0.004541389443248235,5.998676792729421 -0.02542138427180114,47.285709223017115 l-0.20364600786012144,2.487865626488507 -0.408316255002385,1.1502747841485936 l-0.6104084375946949,0.38756087609621687 -0.7507779682386101,-0.2648933507835124 l-1.6558967321997442,-1.5124164575729078 -1.7566824695164154,-3.047285895806516 m-16.758216291151953,-32.28169195784666 l1.7571898621523996,0.3241709996874465 1.688228034912544,-0.24110568049385495 l11.0798785216239,-3.8196298388354974 1.0400338804622593,0.5238386462393522 l0.47463016592725177,1.395434556257811 -0.541965445253781,5.581483306677695 l-1.1264324275288058,8.955099667290563 -1.389907871984057,6.728982035799587 l-1.5933139448104672,5.432220366424129 -1.8005651320201936,4.9070414596837875 l-1.7944851420471903,4.1609119241834485 -2.393895572223504,3.7035878600451198 l-2.1994014104423854,2.675155078645488 m34.32728860834177,-49.64926771825174 l-0.1504628136166772,1.297239627355019 -0.398346247068814,1.2766862087751945 l-3.043287299031237,5.171776516224337 -3.382342931538984,4.247960474643419 l-3.681447755794353,3.351417004375894 m-3.5594100490862073,0.8547227610553716 l5.637368594911287,10.244406531086906 6.405266605231621,9.215724348118775 l5.934482795055216,6.239223242011702 2.0713793917770573,2.087421785907545 l1.678084318538552,0.9669144067691097 " fill="none" stroke="black" stroke-width="1" /></svg>