<?xml version="1.0" encoding="utf-8" ?>
<svg baseProfile="full" height="104.161045952722" version="1.1" width="101.1953261916588" xmlns="http://www.w3.org/2000/svg" xmlns:ev="http://www.w3.org/2001/xml-events" xmlns:xlink="http://www.w3.org/1999/xlink"><defs /><rect fill="white" height="104.161045952722" width="101.1953261916588" x="0" y="0" /><path d="M25,25 m0.0,0.0 m20.638312755401007,3.898715888130334 l-0.05393720960033822,0.5421851809468076 -0.8282898749218472,1.3963826933324435 l-2.9346203931974855,2.4703535605669895 -4.037391367466116,2.4108895737494485 l-5.543579651194213,2.3993477170738258 m-2.6511798073263586,7.373778597591098 l1.7937149411515922,0.3135763309068232 1.7461936108524492,-0.09964441919883694 l13.538607453109043,-2.9397371509262236 1.8533109338871774,-0.14340807470233205 m-8.113866154630959,-6.840791999430003 l0.47602332221416843,0.843657841789688 0.2369708847554912,1.782795478231584 l-0.0319560202456198,37.886127889540205 m-0.5223578286160119,-31.696216105136447 l-0.6439070865427086,2.9022940108260986 -3.4175393484847305,6.6034718383688125 l-3.442471759950645,5.205931982750731 -3.882659957835535,4.81852037880295 m13.337060356991135,-14.893676691269025 l2.348841841391018,2.2183815851648863 2.613923665880703,3.7642043549875606 m9.398931020453709,-20.55991213559917 l0.016219443870099985,1.2804721550231468 -0.26615396380674644,1.4547826154609003 l-2.098156804595339,5.824250597559746 -2.7857880343776222,5.300731405491419 l-3.2065711966001635,4.73398547077842 m6.353368867474159,-7.039339224904611 l4.737165462434161,0.008462915899598477 13.473549621165946,-2.5573672430578807 l3.0935584700193735,0.15778838170794163 m-16.49838867829754,3.6382527308339596 l0.5322459285163305,0.8153365294829192 0.20863698162889716,1.5644645764341003 l-0.07808067483875833,29.32199671551409 m1.3836099002649107,-24.177180916239067 l9.949772167695732,-1.4967377977104035 1.916397292022917,0.07346550934753572 m-13.194938497302015,10.650545379529962 l12.25069305090155,-1.2187661449666465 1.943949618413329,0.08230289765847898 " fill="none" stroke="black" stroke-width="1" /></svg>