<?xml version="1.0" encoding="utf-8" ?>
<svg baseProfile="full" height="98.24395074485889" version="1.1" width="103.39489367629805" xmlns="http://www.w3.org/2000/svg" xmlns:ev="http://www.w3.org/2001/xml-events" xmlns:xlink="http://www.w3.org/1999/xlink"><defs /><rect fill="white" height="98.24395074485889" width="103.39489367629805" x="0" y="0" /><path d="M25,29.09209158697126 m0.0,0.0 m11.81547378126179,4.235144086749575 l0.4444481547821558,0.20621213255406795 3.6555363949673016,2.4735326537699183 l1.6800851635801954,1.6044042943883137 0.6832586663085036,1.0236704640530652 m-9.438667654692587,18.804519032773083 l1.7675482277242953,0.26591413233670463 1.2239976605551843,-0.7059433243629082 l4.080867828071951,-5.315488350850288 4.294597641055676,-5.649117245326766 m17.374583195134587,-21.034939463056023 l0.42396084082138186,1.3243990331454503 -0.3746574121528998,1.3618377846048901 l-1.9060771140658839,15.665982635383134 -1.0317480928622278,5.812092916074106 l-0.3220691797996518,0.8289858394520908 -0.3307984486867417,0.2877690931134429 l-2.659562758203644,-0.0642445036786344 -2.099798232922562,-0.7567456947416692 m-2.7461601689840243,-15.506955235919044 l-0.03147626125813587,1.8836232797104295 -1.6304752951608417,4.011650924078573 l-2.212990736082856,4.681217191782077 -2.384121633600966,4.048864625147146 m24.50893042771756,-14.406403425260876 l2.7572211368854105,2.17363897861153 2.769165014724867,3.1239240287421786 l2.0318289383487076,3.1016425896005497 1.0519935928315207,2.7177578210068534 m-8.5486705059776,-2.8118142696993935 l-0.27784503241106345,1.522750951639142 -0.33180055169867834,2.8420155010715433 l-1.0799938968237444,3.918674282058668 -2.2011432542297023,4.788006261339907 l-2.6632522433512054,4.1452200948305205 -3.150742818982648,3.8853641208807734 l-3.7738579985164056,3.70338859477462 -4.224902115839684,3.2796562377151286 l-4.633169312106502,2.6816510893957335 " fill="none" stroke="black" stroke-width="1" /></svg>