<?xml version="1.0" encoding="utf-8" ?>
<svg baseProfile="full" height="100.03958741079137" version="1.1" width="99.6844509129013" xmlns="http://www.w3.org/2000/svg" xmlns:ev="http://www.w3.org/2001/xml-events" xmlns:xlink="http://www.w3.org/1999/xlink"><defs /><rect fill="white" height="100.03958741079137" width="99.6844509129013" x="0" y="0" /><path d="M25,25 m0.0,0.0 m11.561566621138885,3.951251062714046 l0.43889969011320645,0.2108848695888274 2.89464963963805,2.1532708594900547 l1.3592661694274277,1.3995589598892948 m-7.872220795638759,5.081181188639441 l3.1086723566343157,1.8516905829038206 1.4203486846802242,1.2446752533106784 l0.6926962010485529,0.9683075741745785 m-5.6742657240818355,15.766443038656304 l0.6468481936444648,0.34600049621993717 0.9460430923420046,-0.013321136348347981 l2.247041429103453,-0.5872005366825317 3.69138035558154,-3.0185425484064043 l2.853124735184379,-3.1818845230717456 m11.166440420284319,-21.171894180106765 l-0.09849088678490343,1.3569602164291366 -0.43051423621418883,1.3177674679068432 l-2.1156346934337926,3.948094863649879 -2.637332126147396,3.5692532156592836 l-3.3943048990313445,3.288168253109217 m7.491787102860079,-6.343853475478079 l2.257944966058084,0.23527304546216823 13.681175724076564,-1.8659872380206888 l2.566313725256802,-0.10088830806985312 0.46554686507470994,0.5420369760944479 l-0.3038596528484519,1.080607568938492 -1.9328924927591455,1.771806985729582 l-2.6289513661628203,1.9726860735893599 m-10.418582066403271,0.17958619158942382 l-0.006635352477245764,1.5215988011579564 -0.956987443295574,2.7403195295676475 l-1.3199530961347579,2.72323612229053 -1.7967926853193006,2.8322102393388473 l-1.765659650721935,2.203942790201503 -2.076856634914798,2.058230417527228 l-2.477519118208796,1.9347540214377872 -2.1477200288546117,1.3154936152795156 m11.17897320896367,-12.621356431795293 l4.9670395983424305,4.210520526198238 5.267140929962369,4.11740085731332 l3.7596749050759297,2.4970232118482993 2.238146688336115,0.9057226612212962 m-35.915058984797795,5.3929610903212755 l0.9577013199103207,1.640745775737212 1.3162091842307626,10.409732079393077 m-1.3309375839389226,-11.338000327345013 l27.93434954471816,-1.4393730837930974 0.9747237695154737,0.5841513673393719 l0.45158332354369907,0.9120328341904075 -2.1093342848124292,10.08021511503713 m-18.47640078139576,-10.189087490714348 l0.5900851119570769,2.584706961323478 0.4396910837589595,7.982845038997972 m8.661660281384895,-11.12631221977496 l0.4386884587551696,1.1717204539970272 -0.42564416284196116,9.607308115053387 m-26.71147489288309,1.1390585099578976 l4.077548348965211,0.23585403192327847 29.53201837986615,-1.3765071439277823 l9.457842545119997,-0.02426878178567632 2.9756518984507365,0.23971353591203662 " fill="none" stroke="black" stroke-width="1" /></svg>