<?xml version="1.0" encoding="utf-8" ?>
<svg baseProfile="full" height="102.66354510163376" version="1.1" width="105.61455769612382" xmlns="http://www.w3.org/2000/svg" xmlns:ev="http://www.w3.org/2001/xml-events" xmlns:xlink="http://www.w3.org/1999/xlink"><defs /><rect fill="white" height="102.66354510163376" width="105.61455769612382" x="0" y="0" /><path d="M25,25 m0.0,0.0 m2.232220403395985,18.57579736146184 l0.36851868816632344,0.1237018806470699 2.414652297855129,0.0948836537889629 l16.661916304399725,-1.668970561533253 1.9822723223709289,0.028394603096422343 m-10.091021637360722,-11.544338921809048 l1.2228524742158562,0.9135993093017221 0.8177978154483464,1.5262945683866236 l-0.2179210273500945,37.06622887499819 -0.20698018336294757,2.002515523685671 l-0.5172832393760344,1.043362305770655 -0.7294401156183935,0.25838758438574044 l-0.8226253563002143,-0.2751575216458609 -2.134052223508338,-1.8224725903235102 m4.207209418692479,-26.784515894538785 l-2.8319046132762726,5.2497174880215525 -2.544483534628772,3.9001307571029153 l-2.8672109505757737,3.693254386948596 -4.2845170874265115,4.419161655346951 m14.467243073323202,-13.803624056138654 l3.170838594084333,2.3546474960252644 3.107148020362155,3.476875879905458 m4.2461421237305,-16.720358713701806 l1.112691095291776,0.167161859013828 1.8313173695551248,0.017506671960786587 l17.975837593107485,-1.8146416951192719 3.403857336977628,-0.08328131966341777 l1.6548510509981924,0.23031759406292313 m-26.39077183784059,8.611507062947341 l0.7672100290846454,2.0782492277353626 2.1112481978303475,20.159761931894018 m-1.5813506929955667,-21.241395613785475 l24.296766538153797,-2.5790597738784387 0.7522924773739942,-0.009691726951984904 l1.1824095679714701,0.36929496790054733 0.7682862751325655,0.9430391994041201 l0.07854112822207567,1.9218254651594509 -1.2801795766926698,9.74956638831945 l-1.451687756367263,7.5759137207848815 m-23.182590849614453,-9.438499669371147 l18.240144784767786,-1.1207449397042726 7.073475590973466,-0.15673661869381142 m-24.235510263437167,12.187384447312738 l13.223113884254191,-0.9870287429022923 9.241215773409772,-0.3072444853769353 m-13.459829447378834,-33.07282669377715 l0.9095377480764313,1.3648010138335682 0.24854941365033695,1.601046068496473 l-0.08729594237450596,44.38980569284976 " fill="none" stroke="black" stroke-width="1" /></svg>