<?xml version="1.0" encoding="utf-8" ?>
<svg baseProfile="full" height="102.28828270999267" version="1.1" width="110.4302936939514" xmlns="http://www.w3.org/2000/svg" xmlns:ev="http://www.w3.org/2001/xml-events" xmlns:xlink="http://www.w3.org/1999/xlink"><defs /><rect fill="white" height="102.28828270999267" width="110.4302936939514" x="0" y="0" /><path d="M25,25 m0.0,0.0 m31.707032197315723,3.0726436739604344 l0.42160337648883084,0.453365149349466 0.6278944131402547,1.762684608143712 l-0.03642842624280147,6.396901931295321 m-22.275368736919077,1.2315677309742277 l-0.7968656415661205,5.321350630382813 -1.7862609301195138,6.340216443490836 m3.3400694605376318,-9.701886236973246 l29.65467253794272,-2.847792919845237 11.687241408158076,-0.6967783629564017 l6.312599206755746,-0.032055190335621965 1.0986827740022953,0.36033335291167357 l0.475422054457618,0.5542683440507085 -0.031532813707210845,0.698591668116695 l-1.2343927496895883,1.6506657827938875 -3.313049497549568,2.6841728652260355 m-36.93692331576397,15.907672980703401 l0.8227884695106367,1.440389861735107 0.46652490415688397,1.1770341040660646 l2.655649640579129,16.514936292902796 m-2.07213920143566,-17.04494196778466 l24.003513496888377,-2.5349469934192768 4.773301551436142,-0.4435336286125585 l1.6559941486454057,0.2807822438186658 0.8390267738856962,1.007562743574534 l-0.011117543254258226,1.626969078938724 -3.4340528580964835,13.596572329007572 m-25.346366528202132,2.5682842167706545 l27.28411935010722,-1.8055570681841822 " fill="none" stroke="black" stroke-width="1" /></svg>