<?xml version="1.0" encoding="utf-8" ?>
<svg baseProfile="full" height="114.03132584068149" version="1.1" width="109.78812135765969" xmlns="http://www.w3.org/2000/svg" xmlns:ev="http://www.w3.org/2001/xml-events" xmlns:xlink="http://www.w3.org/1999/xlink"><defs /><rect fill="white" height="114.03132584068149" width="109.78812135765969" x="0" y="0" /><path d="M25,25 m0.0,0.0 m26.613902048565077,13.875643336923243 l0.40048619088831006,0.18365187564061478 1.5207881104953729,0.1578897273704841 l1.8796940757698126,-2.5137385516621435 6.125236026501997,-5.338142617602159 l0.8645074480290035,0.11078460855491246 0.4661900541064992,0.5365282121424936 l0.1750139644971944,2.572409883280134 -1.3612767758186683,15.873610010607328 l-0.5013615869707372,6.426194120972006 -1.8845811563755606,5.282166651977933 l-1.4661153484449785,-0.7289817018358203 -0.5027246516613174,-2.047580760533004 m0.33703739276185474,-24.951900100474944 l0.10338009410988988,2.0009069995011703 -0.4334941234927421,4.1150547923956555 l-0.7339848710110131,4.636978539233593 -0.8883698460509024,4.580874473578211 l-0.9204011308993493,3.8829564634749336 -1.049872725228433,3.8086507214528007 l-1.2207664911889482,3.7320482921609037 -1.127834917557811,2.7515100807433073 m13.42907655122061,-32.112202066049825 l0.3734275454697858,1.9053851319048205 0.29301121224857146,5.824780556955889 l1.0210667525241204,6.140672564750236 m-1.3297866443218858,-12.948050516451369 l8.27409256588158,-2.1755133102319206 1.1016384046846637,-0.09317296723733905 l0.5013722896809044,0.3315358401828165 0.23821724284284632,1.3692261282820877 l-1.2585248337210486,10.697241720220564 m-7.305961508196447,2.0902954422791167 l7.867660424390248,-1.6200079952220294 m-4.558353920891749,11.239434140998688 l3.848714548349628,1.0007034123883494 2.502841502558025,1.527899354316389 m-23.114040468626058,-26.844916622695578 l1.6802041286768061,2.00081923496208 1.1832697043010763,2.080700657713049 l0.8744954182523008,2.0870968061605883 0.37890784822618523,1.3895825393613819 m-7.399634876758615,14.13205816030046 l0.9258777669518027,0.3573712852372739 0.7130022710370922,-0.1441533637225968 l5.415388399335712,-2.9707316168995166 0.8243925996871091,0.33643000249991495 l0.16402579672949294,0.7604087185280698 -0.29048892299375784,1.0314002474213964 l-2.5394224668139866,5.825154701604627 -0.3889868334607197,1.2350604711132998 l0.2693019393919546,1.5725458563708523 2.1217478440349153,3.3069801596475505 l0.008878301346942723,0.5908366749433467 -0.199727937040089,2.2670148286039145 l-0.02660204061946933,3.147855279103201 -0.5474103644464612,4.0014735824642615 l-1.5133007855353435,3.361461417600354 -1.6642402602634325,2.2007802923717934 m-1.5669067624251334,1.3683411289293663 l3.323782847770067,-0.49942914103941194 2.392756221452923,0.32172773223429013 l20.01381595944583,7.937769414593608 3.660785899889344,0.8847354321527423 l3.6943062163688065,0.16720946613305318 " fill="none" stroke="black" stroke-width="1" /></svg>