<?xml version="1.0" encoding="utf-8" ?>
<svg baseProfile="full" height="103.17182619584233" version="1.1" width="102.03664598118633" xmlns="http://www.w3.org/2000/svg" xmlns:ev="http://www.w3.org/2001/xml-events" xmlns:xlink="http://www.w3.org/1999/xlink"><defs /><rect fill="white" height="103.17182619584233" width="102.03664598118633" x="0" y="0" /><path d="M25.944306318639747,25 m0.0,0.0 m25.595566437596908,4.4040942438578305 l0.05054744506584057,0.43360576252769706 -0.4368541348852801,1.028070366516865 l-1.6859054465168573,1.879494024157672 -4.701948790988061,3.6978111760331083 m-6.313727569850431,0.400093857941681 l0.659348514617767,0.8928619236837382 0.20598700599552086,0.9129219512771622 l1.918101553860636,19.328336417830176 m-1.4937155711072698,-19.84424208918301 l25.59264660968747,-2.0269180265053333 1.8416349274300816,0.2157775974702821 l0.6408472687885648,0.8055909436976972 -0.012225244276084473,1.2541168577963557 l-3.3441548941207726,18.377042511502374 m-24.09307349972455,-10.009563894593189 l15.657363416536123,-1.0319430231866726 m-14.75328308927697,9.147270860885826 l22.420880931746375,-1.1939589027679338 m-33.84315304781094,11.370717066141385 l-0.46925875303899006,2.192238610815066 -1.243994662460203,2.878662509889217 l-1.50340697194937,2.8234216186187915 -1.6325287539592561,2.361743190825428 m10.289555807925652,-12.57337695804099 l3.3711838536839283,4.4815500431077515 3.6874103633846733,3.540751796060815 l4.444688030503487,2.5553308802383214 4.153158450541164,2.3038840859054477 l3.5077824129473614,1.2413125156999376 3.859144275633194,0.7935886126457139 l4.602514045664293,0.4593167197876545 5.085894768021411,0.07222294520545164 l3.6107356745337342,-0.34339884601117104 1.8626501823766097,-0.7047338021573226 l0.3389126148631795,-0.4841330733527828 -0.015366467247583818,-0.5645779382634096 l-1.0326208264895749,-1.4117823701578343 -2.4157509569675306,-1.6802346651140834 m-19.85649845088867,-11.082457252823156 l1.7187644738660153,2.5992985465964793 1.1775258353511309,0.9986640137104031 l1.0511214438180168,0.08206754044013634 0.7787399306812746,-1.1091720136486645 m13.130449796246054,-4.142281252144538 l2.604827710396772,1.1382158874944455 2.5914456660754386,1.5363901218181237 l2.0477289521635504,1.6454629270202166 1.442648394102739,1.6188632714980515 " fill="none" stroke="black" stroke-width="1" /></svg>