<?xml version="1.0" encoding="utf-8" ?>
<svg baseProfile="full" height="110.21519319551932" version="1.1" width="108.6558237796654" xmlns="http://www.w3.org/2000/svg" xmlns:ev="http://www.w3.org/2001/xml-events" xmlns:xlink="http://www.w3.org/1999/xlink"><defs /><rect fill="white" height="110.21519319551932" width="108.6558237796654" x="0" y="0" /><path d="M25,25.733110111215765 m0.0,0.0 m10.445463018240542,3.873644835547463 l0.5182268894058543,0.22208987854082016 3.639715039972288,2.4708915796023225 l1.5848307744412555,1.467481382412179 0.8314076293750708,1.2028784968372925 m-10.240780046694105,10.988729062544538 l4.387591887982231,2.42238323639412 1.9624437520123241,1.6129379267455715 l0.7945002378201563,1.0536657416179283 m-7.993612883055283,26.73813815301176 l1.243581038113327,0.14207448286082983 0.9316272924401581,-0.8907920826235673 l6.379054575933646,-12.416346857068513 m28.148889290831924,-39.620885947638506 l-0.6351880062854401,1.033019637036081 -3.6491583842122663,2.0232727671724393 l-4.152011126326764,1.7288716449579136 -5.938095132764469,1.861101007842327 m-3.0265838188076266,5.695444536409309 l1.4069684589689402,1.1706308834533767 1.4228469855966748,1.6870309926422116 l1.1232692625530922,1.7386371983584066 0.6503747673706786,1.4831445959789027 m5.0767639918549206,-9.22555055798198 l2.3261783788776236,2.913795018901498 1.4007690429221438,3.2836813180372806 m13.198268273855112,-9.590332090440347 l-0.5158950461366237,1.767895768957755 -1.8004828626226779,2.357209768963329 l-2.5851942235460768,2.6751518745335456 -3.671524694819056,3.1212694140825525 m-16.185075130149755,7.239012879843791 l1.715684853302776,0.2453856725826876 2.409586383433132,-0.11106639969303278 l17.09101743383286,-3.4448942554125663 0.832155607640123,0.23280038050252194 l0.29215885316252,0.5531124668329144 0.013787923120345214,0.8715609195503345 l-0.7358544466000159,1.050177045055295 -10.481205478301167,8.341724151317662 m-0.6841500255193315,0.23000759971459714 l2.163896963810492,3.587205676335582 1.8087098415115002,4.88508379590648 l1.0299206046288656,5.769714570597833 0.20533616842871735,5.2191310297190325 l-0.5406613831191359,3.8523370714152088 -0.6820931774996097,2.6401171542274113 l-0.8003529170751903,1.7829702693364673 -0.9372551304671424,1.079218707786062 l-1.0920137448332943,0.4671258443596459 -1.1804049217716213,0.00019483663678642252 l-1.2738066058836617,-0.6495824801922497 -1.5203346018731603,-1.865015946748977 m-13.378474560593503,-15.708936104064765 l1.690166110844918,0.3255271009400225 2.3762647246601607,-0.031940589365831225 l14.54200612972046,-2.0616680432118604 15.984930571979744,-1.4492258630136403 l2.7276393699777843,0.5189940541342988 " fill="none" stroke="black" stroke-width="1" /></svg>