<?xml version="1.0" encoding="utf-8" ?>
<svg baseProfile="full" height="106.14394437580196" version="1.1" width="106.26805091501078" xmlns="http://www.w3.org/2000/svg" xmlns:ev="http://www.w3.org/2001/xml-events" xmlns:xlink="http://www.w3.org/1999/xlink"><defs /><rect fill="white" height="106.14394437580196" width="106.26805091501078" x="0" y="0" /><path d="M25,25 m0.0,0.0 m5.916934428438707,4.421403341492027 l0.507228925706831,0.17521997337176984 2.713183367708956,0.06190929801675157 l10.966686806430799,-1.9709013070161903 1.5510225324188875,0.08913580183435282 l0.5153618372276343,0.3723794974204377 0.21692327830282548,0.5994151444202143 l-0.12623121212372507,0.7539857987240779 -6.003915351908516,10.474803901221556 m-0.07964264009309138,0.48313237314420987 l2.3740986022459296,2.2355743580437295 1.6312681047654611,2.606340613143255 l1.2235111862685324,2.8980171992734935 0.6305019665911127,3.409009385037368 l-0.24142368785801163,3.4343087566822685 -0.9872269937437662,2.524054602829725 l-0.8435404399697397,0.8478251681195212 -1.0530944985374724,0.44823218682524596 l-1.2209636916843765,-0.03709565152187604 -1.3506061198601464,-1.1057148619356294 m-7.016569941893631,-28.634120807985006 l0.4881010433386143,1.0161029641184287 0.12215161854145316,1.2424719652246083 l0.022333584644825447,43.4127917188736 m33.59322638194925,-49.23014633570401 l-0.37159164508189135,0.7914310946108556 -0.6318153055792509,0.6673032530245677 l-3.462754856943399,1.8597257910546274 -4.887746982694765,1.9053625419031675 l-6.089093511413177,1.570195051721472 m-0.5218724841750148,1.817795291850193 l2.1435602312060102,3.1427177732528966 1.269981420367845,3.4625628151374133 m5.78859454028458,-7.074857891141713 l2.062226038658829,2.950317975789635 1.3936138885382923,3.511296324169181 m11.491233426240363,-8.626880129190079 l-0.36642358848980106,1.618649520759346 -1.3271098508549928,1.8163260861468202 l-2.1792352414767553,2.2218385310399604 -3.6354485476156886,2.651802400199777 m-16.786507182941282,4.3863416496128895 l2.9259047385375228,0.11583602868751806 17.227963067852794,-2.073208962795795 l1.4768357617082817,0.22536635560587776 m-23.71169239556045,8.965504822541607 l3.1261844892084745,0.21585172826656912 19.08658330626178,-2.335234058630656 l3.0686800902184928,-0.20096990277122198 2.036720380199787,0.15947891878268233 m-14.81649262902612,-4.86799346232143 l0.5138201482994454,0.9775938829402921 0.11025458679235435,1.1014269086687964 l-0.030784094064559137,18.18478909176688 m-11.632027173053743,-7.026499570713099 l2.5516208138754535,0.21668684651437412 17.332734876744908,-1.663940976922648 l2.253923256226973,0.13476990743824213 m-28.582627968970495,10.977528803073211 l4.115042912470887,0.21727393224292668 26.587019380178997,-1.9832387286939728 l2.794401138815677,0.05879809596778977 2.3950567933570723,0.3925277492932247 m-12.14811184020775,-6.182853737705677 l0.48597636582513987,1.0712723435105682 0.09206714102365333,1.1753549513208426 l-0.00794751832874432,17.49440143110775 -0.3225243587688699,1.0728077684221398 l-0.5337391164197878,0.4803505653536242 -0.7027995076504276,0.040200481256634765 l-1.5207000553856014,-0.7441902209030069 -1.4981601192722283,-1.1174706337148146 m-10.810247196284823,-8.872502536559608 l-0.12376293528611175,1.4027889958210074 -1.2474200001548779,2.10957464625268 l-2.1790854725750775,2.4998991322383723 -2.7840232021433398,2.3943284848871427 m25.180852582293216,-9.105160101799722 l2.4260845480964055,1.8156275026249369 2.5140948878304172,2.592075325335376 l1.9199919377641879,2.679167402070578 0.8834969989550728,1.9984458968591496 " fill="none" stroke="black" stroke-width="1" /></svg>