<?xml version="1.0" encoding="utf-8" ?>
<svg baseProfile="full" height="120.96325881919638" version="1.1" width="100.96487460426528" xmlns="http://www.w3.org/2000/svg" xmlns:ev="http://www.w3.org/2001/xml-events" xmlns:xlink="http://www.w3.org/1999/xlink"><defs /><rect fill="white" height="120.96325881919638" width="100.96487460426528" x="0" y="0" /><path d="M25,25 m0.0,0.0 m12.375252286297242,4.463764542033175 l0.06218037592665645,0.5319826158966403 -0.30775926416758587,1.889610678788279 l-1.5829500101528027,2.6823891827488597 -2.8827871591825525,3.285308409668758 l-3.4848531303342387,3.3038171763192468 m8.274102516933622,-5.803383487382427 l11.922071217612391,-1.6596721848934772 m-8.99454812890954,3.3665527063558667 l1.8624352856067061,2.292408816564677 1.1831057066132937,2.486743541087525 m14.170951409729678,-13.815679659691842 l-0.2271723727247895,1.4290705864914923 -1.7276108491853086,3.373963763871879 l-2.1655188831915453,3.2421336241516294 -2.4113770074929888,2.9253688571183853 m6.341987119993236,-4.929997562592573 l16.379797446562133,-2.2158440493371034 m-8.933714436286687,3.4852122365199314 l-0.1493331323985753,0.7947140364242226 -1.0425124641509025,1.6871919782428946 l-1.2814549472638588,1.4210873215977111 -1.6187257202595065,1.241973475816593 m-29.301638983130207,6.559700270305907 l3.0720102472541155,0.770054662724557 25.559978284051414,-2.6669927320034237 l3.7436323671492024,-0.4072293671210006 1.3790653052700113,0.4702907833563581 l0.6363150007161203,0.828993568663617 0.23804465826657467,1.58593913490283 l-1.0863511221337891,13.110379266000471 -0.7423046881467263,7.386743512866603 m-34.8530379066572,-9.270122648652086 l3.702603407380645,0.3400877606565472 19.03540534200081,-2.0958402948809707 l18.18555475973179,-1.4897101231679992 3.1478545913585676,-0.1167530858651458 l2.4861774815798596,0.3723921500100537 m-39.75253058675333,12.150196316231625 l2.917142539340881,0.41172080685466445 18.435631517172045,-2.2795710840442105 l5.3097038940300205,-0.3369374716133539 1.9999179041228448,0.18283797448877417 m-14.121080024961223,-14.554692435061398 l0.5993578715950372,1.633060743149274 0.12334351800382469,1.785034955599028 l-2.2091997184696233,8.55847910841527 -2.337502014012968,5.942659716778263 l-2.6845258895850965,4.819188414627122 -3.343072616585542,4.3603030842093915 l-3.045047931320153,3.086251884160637 -4.886663867594971,3.768725211801376 l-4.493779126189597,2.7084351390771477 m16.541334547624775,-12.633379559140566 l3.8031672247188233,2.309841559360353 2.9668043274872193,11.3553744951955 l1.0656952895639245,5.550568483157219 0.6860988845054764,1.2885120123535934 " fill="none" stroke="black" stroke-width="1" /></svg>