<?xml version="1.0" encoding="utf-8" ?>
<svg baseProfile="full" height="115.19141217526435" version="1.1" width="93.57213354409421" xmlns="http://www.w3.org/2000/svg" xmlns:ev="http://www.w3.org/2001/xml-events" xmlns:xlink="http://www.w3.org/1999/xlink"><defs /><rect fill="white" height="115.19141217526435" width="93.57213354409421" x="0" y="0" /><path d="M25,25 m0.0,0.0 m13.748558815674997,4.748483842983481 l0.2919293049025358,0.37802306243940825 0.7959842237355421,2.4756062149967746 l1.5321395889305445,10.175990672479815 m-1.6208549413392253,-12.234370542007973 l21.628383841593912,-2.4787176763542105 2.001517879100988,0.03354697843942776 l0.5915300139678366,0.6876981050884166 0.045572736280778195,1.40234927673054 l-2.2617642844263637,9.803303003847663 m-20.925102794895285,-4.513023090334553 l14.581535331113752,-1.4598429024468595 m-13.696521473537892,6.868565058815424 l20.57437772552233,-1.9391507062323203 m-20.768275174274464,6.1597103585753965 l1.7497998842818023,0.8965446308992823 1.52937716665586,1.5455023341790468 l1.2342881361149134,1.592898605433262 0.5783760894994312,1.1389809589583861 m12.952676754678155,-8.231683790807724 l-0.14914124412042642,1.2575767913310913 -0.9561402523236201,1.8713425785804823 l-1.8330477750684675,2.3849189913985964 -2.1039236785496143,2.0544899893482005 m-21.55058453935407,3.800517648038592 l2.956814897774634,0.2889243995118056 14.266965463721366,-2.097738085704628 l10.739487269520916,-1.1727108673214408 4.9387505570056485,-0.2740828578052006 l2.699424021907711,0.2564043185655528 m-29.90214854476893,11.361283449484798 l2.180988983080685,0.2638512840137443 18.270163925001665,-2.127343257677702 l3.1802385154884742,-0.16693082508746632 1.8532902804818814,0.25222903346875236 m-13.665568111658152,11.603349394116243 l0.5265829405543877,0.7311703554226062 0.2789301214260216,1.3459584047071105 l-0.057255436669223406,15.186367339299803 -0.3061862098276229,0.9341431429732617 l-0.4392780965669692,0.38727655291747326 -0.5406968974388691,-0.04567141393670532 l-1.2326633384259504,-0.8767308662362594 -1.4996146818392877,-1.7472831276202938 " fill="none" stroke="black" stroke-width="1" /></svg>