<?xml version="1.0" encoding="utf-8" ?>
<svg baseProfile="full" height="122.53011066510491" version="1.1" width="110.86729871393692" xmlns="http://www.w3.org/2000/svg" xmlns:ev="http://www.w3.org/2001/xml-events" xmlns:xlink="http://www.w3.org/1999/xlink"><defs /><rect fill="white" height="122.53011066510491" width="110.86729871393692" x="0" y="0" /><path d="M25,25 m0.0,0.0 m9.915295978193091,4.69751640321443 l0.529483589046558,0.20146671363303106 4.037065757247159,2.2849584230970086 l1.744092605761113,1.428701611439387 0.7745354250206755,0.9582272033127083 m-11.149515219425844,8.948698165402345 l2.2989805142467596,1.0140865443344238 2.4218907255389457,1.3633576772181548 l1.9663258665491208,1.4174441006226681 0.7782469885482934,0.8918164313805211 m-7.348530432171323,22.813848036768906 l1.2714865365224306,0.1155595117906644 0.9106006527609609,-0.8031123596428402 l2.691275653668844,-4.472832045106956 2.8690952339015774,-5.491392628706022 m9.860077724596646,-22.228302777175827 l3.3888598785353166,0.3947526769183307 17.99849499089697,-1.8139916184609264 l3.3671186209341175,0.03386229263707835 1.3438791787633635,0.5160041939160255 l0.6365629453464194,0.9365329458949029 0.023485031559400196,0.7535963783830733 l-3.418007219895819,9.8895575858998 m-27.2585255363466,2.25170068624687 l2.0666864631712043,0.26811610335657055 2.154338788224411,-0.06227179856159223 l25.35601567797052,-2.419748176471701 4.413200844129327,-0.21463479181651432 m-31.19697759294801,3.6570362617546786 l0.26463955672052825,0.9893106263907465 -0.06967782318102247,1.1069139171954678 l-1.4936153698260068,10.410503686051932 -0.6007694021988055,4.803069763845631 l0.5324268608401065,4.799778402252506 0.808958609441422,3.716086708623496 l0.8416065571174508,3.2850076926237874 0.8654345228036654,2.3665742585831033 l1.1418240796885033,2.2651092961468833 1.5019724567031367,2.1867752077854643 l1.9413783479602138,2.3225677868826553 4.9297685275013565,4.4315526191841155 l5.6185628695018295,1.849716083083875 8.73187241669995,0.6665908651760503 l5.063928866222554,-0.04785847791002938 3.6208801479798085,-0.38401132426426404 l2.3963971503226156,-0.7083078732712045 1.6676301086349177,-1.3571924953457926 l0.6585405606590596,-2.4308926888741653 " fill="none" stroke="black" stroke-width="1" /></svg>