<?xml version="1.0" encoding="utf-8" ?>
<svg baseProfile="full" height="106.93978500963155" version="1.1" width="102.4362415732587" xmlns="http://www.w3.org/2000/svg" xmlns:ev="http://www.w3.org/2001/xml-events" xmlns:xlink="http://www.w3.org/1999/xlink"><defs /><rect fill="white" height="106.93978500963155" width="102.4362415732587" x="0" y="0" /><path d="M25,26.084247938859562 m0.0,0.0 m11.136318309369369,2.9048499082951955 l0.4753558606313497,0.19686938283449565 3.4186235683730324,2.1761593380796147 l1.5324970319105726,1.3852077197464547 0.6920017709231816,1.0899584777620877 m-9.530104358414883,9.363933179789884 l3.9738708475201414,2.05789217443592 1.832212292497943,1.5270130612065016 l0.7269526064838142,0.9417345256962841 m-6.288248245550455,23.38465349668426 l1.0513279960737947,0.09619526601795686 0.7770142252699952,-0.8632631348493491 l5.429830906506052,-11.606568228433588 m24.871369964289453,-33.738883106125286 l-0.6247113531794138,0.9684138293308695 -3.3406297590056937,1.813819640238924 l-3.92574820819118,1.5768426535047693 -5.3752312981151915,1.7229887341761396 m-2.8329741873763217,5.113611958957739 l1.218891949124884,0.9943890866916775 1.2758233695760983,1.45366604317711 l1.022577170839338,1.5306909559376505 0.5709663428752401,1.2960459759307412 m4.2816550494786885,-8.187882038163742 l1.9164393773758497,2.5092893158312695 1.16253400886281,2.8827776449950946 m11.613076946221202,-8.319503406763264 l-0.4427938253107117,1.5183616544818768 -1.5557324921624334,2.1243070481057913 l-2.1646602829118367,2.428355061152572 -3.0319358363089868,2.860435572532572 m-14.245555381560099,6.627389638077899 l1.5039561910742218,0.26992476179526814 2.0494242653627692,-0.0865195924035319 l15.457672319089736,-3.197613525288676 0.5929687001512166,0.2237729073310355 l0.2351768202188527,0.5207792036485394 -0.555719418958409,0.7683062778863079 l-9.773765467632748,7.085133838701254 m-0.5754922579007168,0.1971788575977751 l1.9010268309802698,2.95905377111027 1.6503585666368432,4.185535826722906 l0.9476908684039494,5.084028511780035 0.19144723159048238,4.725830797861961 l-0.4287751664963956,4.078173257063553 -0.4856020515389366,2.782337297634072 l-0.6362398746575518,3.3709491908836635 -0.6862850862164963,1.716473608911263 l-0.7832827377439646,0.9915852291817404 -0.9694603282454369,0.3508554210184248 l-1.0966620186473712,-0.32972435299399433 -1.1716100620692704,-0.9475177241952633 l-1.1119967818958432,-1.535283977431492 m-11.818414734561422,-15.528013304201348 l1.424911435952368,0.2777491745750278 2.060096133993973,-0.03549611019645312 l12.399269451720869,-1.8600264417610608 11.465169961354269,-1.3443966101549691 l2.385013613076503,-0.034387337756395166 2.6443508041013355,0.5240705648847561 " fill="none" stroke="black" stroke-width="1" /></svg>