<?xml version="1.0" encoding="utf-8" ?>
<svg baseProfile="full" height="117.76997833560341" version="1.1" width="88.80240855912722" xmlns="http://www.w3.org/2000/svg" xmlns:ev="http://www.w3.org/2001/xml-events" xmlns:xlink="http://www.w3.org/1999/xlink"><defs /><rect fill="white" height="117.76997833560341" width="88.80240855912722" x="0" y="0" /><path d="M25,25 m0.0,0.0 m22.996048015728196,5.983388518005997 l0.08701068996450907,0.4538584560625969 -0.3404327572225806,0.8161813680222264 l-1.237444119195183,1.562322295746054 -3.8461101286774104,3.359397451043521 l-4.6126129907942985,2.9651774368440855 -5.225695913436401,2.4989480700332987 m-1.8006059460612767,-2.5585720081910424 l0.7326064514787968,1.0603329501696839 0.28005234669401874,1.6076403741841705 l-0.2612605491434658,24.976217795939835 m1.1149650545583611,-27.23992014307637 l22.277938119400574,-2.478449113569008 1.4994799768626614,-0.008618191101497374 l0.9131595304267638,0.30931670168592046 0.4975879357311386,0.8272873532433562 l0.10249567932805752,1.1104391847991328 -1.0772673413200253,26.888067574878363 m-24.14252914982151,-15.837405773558185 l14.96639360288456,-1.2826260410946606 m-14.900748851430336,9.618779026106855 l15.460809781953376,-1.3571401509298766 m-15.67034431546604,10.597390747181212 l24.204944970597374,-1.4904054671341063 m-18.404374904078963,14.975853456474397 l0.3233120261524073,1.4264851302382489 -0.7984836717069869,0.9575759566447662 l-4.826410882039931,4.213633349529153 -5.920417101438096,3.8148220274252873 m25.83240786485705,-14.378587761453582 l2.849742690308779,2.2061383172134783 3.280305653884389,3.152017506140133 l2.9775701731045103,3.608698037806405 1.4703166170441868,2.5840093876853207 " fill="none" stroke="black" stroke-width="1" /></svg>