<?xml version="1.0" encoding="utf-8" ?>
<svg baseProfile="full" height="99.93703611177729" version="1.1" width="106.7391467969502" xmlns="http://www.w3.org/2000/svg" xmlns:ev="http://www.w3.org/2001/xml-events" xmlns:xlink="http://www.w3.org/1999/xlink"><defs /><rect fill="white" height="99.93703611177729" width="106.7391467969502" x="0" y="0" /><path d="M25,32.075425294975716 m0.0,0.0 m9.668898307892567,2.66866640750132 l0.46052995412366193,0.22806162333921218 4.036824323598623,2.725872800604919 l1.8247038142732612,1.7247081015520727 0.7364170701550857,1.1464287652578422 m-10.27315728558704,19.7448330064319 l1.9773913489437152,0.3125822523582162 1.3348250682210423,-0.6736136979817189 l3.9252264758927105,-5.518297752416797 4.261284761585515,-5.779359496758998 m18.14339528743319,-23.655307304863683 l0.4526071197521192,1.5000581381045468 -0.3972717379329402,1.5628830510757181 l-5.35358218369812,19.780054755824402 -2.080211092616723,5.044144998833871 l-2.225955709428451,4.840646504022816 -3.2205551248066526,5.552309360261837 l-3.0410870046266423,3.7240706167726625 m1.5064376359394565,-26.084721037986245 l2.0026323527822574,0.2859566087806879 2.1523463607540703,-0.1584049890430428 l19.275775686605698,-3.776764996277491 0.8117493038753184,0.4575126975509254 l0.17567369346439593,0.7185236631972317 -2.7228056637665596,15.213047913062606 l-0.12090745387573434,3.318338438957823 0.45199046674528076,2.1142249654582783 l1.1503709650437817,1.3313651385807137 2.181339986619925,0.7039444054708333 l3.9677612853752353,0.17361248288837605 3.0932158141229937,-0.30670626717439536 l1.1469906361712952,-0.3959256895224296 0.7735272631023354,-0.6520946707067036 l0.4552103192341176,-0.9851189868728549 0.20755475158140263,-2.8420358250647175 m-50.73981158635073,18.450274648343026 l1.9695322046669084,0.3641974388136703 2.8999919171498014,0.0036427484251489524 l34.020866898799085,-3.1963526040391144 6.315284147056019,-0.20839122687220657 l4.211027739137476,0.37786936039456714 " fill="none" stroke="black" stroke-width="1" /></svg>