<?xml version="1.0" encoding="utf-8" ?>
<svg baseProfile="full" height="110.94333563375793" version="1.1" width="98.23364804904398" xmlns="http://www.w3.org/2000/svg" xmlns:ev="http://www.w3.org/2001/xml-events" xmlns:xlink="http://www.w3.org/1999/xlink"><defs /><rect fill="white" height="110.94333563375793" width="98.23364804904398" x="0" y="0" /><path d="M25,25 m0.0,0.0 m15.984198770394219,3.293988735729182 l0.357896368701588,0.4022631893916021 0.9089869324334557,2.7283965708113755 l1.8324687031632676,9.46305540439781 m-1.9074173733875004,-11.899392130522363 l21.815861179969186,-2.3646857348487593 2.066098892038499,0.06943267554832486 l0.6306067478130131,0.7295413688537452 0.025576962762976833,1.4470437202904076 l-2.273377437278131,9.134423380222486 m-20.96011470454344,-4.208323700284956 l11.55097685754396,-1.2795307360037806 m-11.564876649738178,6.295259640986847 l20.05867124288381,-1.7749599067795248 m-21.449569627087044,6.249215884208683 l2.0394118323784287,0.8110109423359199 1.7342401686844755,1.4370014886011355 l1.2833233987506867,1.4235291701405917 0.6239715258603408,1.075642982841143 m14.47152352348142,7.554190189375466 l-0.7994347641770875,0.9816747246210936 -2.8327690442057185,2.06443149444276 l-3.8808738742847906,2.154244547944932 -4.017547160467948,1.7070277370750189 m0.9545576517980553,-7.707449631516636 l0.3441754784440658,0.8382957211764988 0.05230296936185645,0.900897606234167 l-0.2971898615912584,8.563480292605554 0.14561716539614036,0.9455344804854146 l0.44062351437835856,0.536721405980205 1.143474566211259,0.5227774585944326 l2.0806532053774,0.39939482288675643 10.671449866588889,0.1523427334683489 l4.937445685547818,-0.5484147767290163 1.4889191840278593,-1.1346216445003845 l0.44905282502442356,-1.257726283800978 0.12473332678962844,-2.078347497799554 m-36.61062768901171,-5.857606573722276 l-0.017002884224199873,1.315255486997261 -0.8459791204628743,2.067922824057136 l-3.076196279254573,5.359065758468782 0.17430922030622856,0.43812365278614684 l0.5427760932229175,0.13924736657720566 12.161444534828313,-2.0776703868680886 l10.692997301542482,-1.4061256571705165 1.939023528953257,-0.18395141574870633 l1.3129517037536125,0.48157334363850435 0.36728255259018217,1.0556246873204556 l-0.08844069256090077,6.285331003670463 -0.9754777045301516,9.30181247310458 l-0.972066787213497,4.687615177373576 -0.5303158777944171,1.1588665026529317 l-0.5292760868783849,0.484217043072881 -0.568663257221919,0.0666680210836524 l-1.1319024842210879,-0.6041739014841171 -1.6210734644179408,-1.8663187057748816 " fill="none" stroke="black" stroke-width="1" /></svg>