<?xml version="1.0" encoding="utf-8" ?>
<svg baseProfile="full" height="105.77496327677949" version="1.1" width="112.13537351429855" xmlns="http://www.w3.org/2000/svg" xmlns:ev="http://www.w3.org/2001/xml-events" xmlns:xlink="http://www.w3.org/1999/xlink"><defs /><rect fill="white" height="105.77496327677949" width="112.13537351429855" x="0" y="0" /><path d="M25,25.82350464714623 m0.0,0.0 m5.680857921954781,5.405508311310152 l0.34149091410666216,0.36203263874533737 0.5311300711903446,1.3516677217326618 l0.07218001990960755,6.153682210638515 -0.1666419289236675,22.046992370161142 l-0.35274361051535175,4.712992081911325 -0.68872834626346,4.382434019311852 l-1.0731122932849364,4.003256208671613 -1.3749619197258367,3.205666220355045 l-1.8576496712875907,3.1697144378793474 m6.418056854841768,-49.123664546216666 l9.617986932732501,-1.8374110393995218 1.2654956666638841,0.19323246745851233 l0.6825518161528462,0.38359923908617455 0.4939499360811165,1.1690304471186437 l-0.1078666832219028,47.30738764552086 -0.3955443226297194,1.4652453369529113 l-0.5821545232443999,0.600092858395372 -0.7109966658794779,-0.042043633787262565 l-1.5003490230167982,-1.2427119178481962 -1.717654925375562,-2.2722427002575802 m-5.847462157506509,-33.37499593333187 l10.291467429808506,-1.4941191092511257 m-10.73911646392623,13.874619822246594 l11.079201491983644,-1.3559867510729589 m18.15550238233171,-29.867483053477102 l0.2344636761511946,1.6586726453471958 -0.3694620909371724,1.378043382615928 l-3.619702885231908,8.35986917823038 -4.112363450589539,10.14937314801759 l0.732654053465698,0.33967374518550486 m8.94828243709962,-11.56794589048259 l4.823849693311984,0.9110234808111062 16.333162503475858,-1.758375597946752 l1.4789896680625265,0.9739369734160943 0.17061100653435446,1.472537908863615 l-0.8850214938137788,2.5740611571501693 -2.355055137494199,6.6054749699181885 l-2.6906249031189446,5.507867803377802 -1.2694479834854067,1.8841284483652854 l-1.3726424383798619,0.3925431189981332 -1.4208173316119328,-0.6826929404555435 l-1.2560708925063662,-1.3709233408428325 m-16.129523020608655,-11.49681264188332 l0.39744743082573175,0.41300286867889796 0.2319608717218843,0.936426957237322 l-0.025962178069332667,8.981419923621315 1.1994360460190236,1.1254003803312567 l13.279960274230124,-1.6162226421001098 0.819287151873434,-0.3724411293388963 m-21.236476675313554,9.925034964659819 l2.5963186252666115,0.2760999577333074 14.842487475670843,-1.862012802576191 l1.9608214094731862,0.0003451055148876261 0.7925658203459998,0.298102475363146 l0.6927659022387206,1.750016613750507 -2.225132137395539,0.8433506310942097 l-10.978212390255878,2.5574891320684525 m-2.9046010456051445,0.5153248668602902 l3.6045325613120087,1.1791546272021842 3.776435324663827,1.7747992314838519 l3.0017878387434886,1.9850856787388031 1.7973978287881311,1.6785058055289095 " fill="none" stroke="black" stroke-width="1" /></svg>