<?xml version="1.0" encoding="utf-8" ?>
<svg baseProfile="full" height="97.77364785377979" version="1.1" width="96.77297762249808" xmlns="http://www.w3.org/2000/svg" xmlns:ev="http://www.w3.org/2001/xml-events" xmlns:xlink="http://www.w3.org/1999/xlink"><defs /><rect fill="white" height="97.77364785377979" width="96.77297762249808" x="0" y="0" /><path d="M25,25 m0.0,0.0 m28.79906010695518,0.7698862124772874 l0.0519225123684899,0.44388090868465885 -0.1676919168408295,0.9986139865893279 l-1.3321178489984198,2.059542272682464 -2.133343881340346,4.605059914919581 l-1.9403425264759089,3.399040452520483 -3.604051304164283,5.106360760802502 l-4.467078189457523,5.035469725620862 -3.232685040696195,2.732739603633863 m16.829426492694004,-20.539252486585067 l14.56569504392602,14.932026518330623 1.9706411753573172,1.5113945262274435 l1.4335429991705668,0.6955605423347492 m-25.549721501759464,-0.7495593949423457 l1.6522316645767423,0.20208833982035995 11.142745015458726,-1.517563984623422 l2.447891836623832,-0.15817973811215336 m-16.781850391623646,10.349039031992934 l0.5394021272019629,0.16425048350374483 0.7417749140217179,0.021880636346723364 l5.433694386089892,-1.0330478273836625 9.175030790493336,-1.1663780511311765 l1.7414222657541372,-0.008304064189007579 1.4538115259282705,0.18123997404485562 m-11.543036607240413,-6.756924579626219 l0.4254213289031882,0.8288307379740754 0.20558221272183716,1.4300769250775383 l0.01694022032729427,23.140429853985715 m-8.830361660308316,-9.743898783312147 l1.9855427992777337,3.1460400443033767 1.6552797931885388,3.686631829830274 m13.163338283871537,-8.531728395405711 l-0.020421309490447702,1.477291928308005 -0.5573039821141205,1.238127122877904 l-1.5952005173806396,2.438792379993737 -2.2091115921257565,2.672956396122979 m-18.807516671841388,4.392682683937135 l2.0685622681643587,0.318551366147492 9.60116932426762,-1.019940938904242 l13.771873923840472,-0.9547014399870898 2.064790403859038,-0.023038229325357124 l1.8035160624037312,0.3247472757631623 " fill="none" stroke="black" stroke-width="1" /></svg>