<?xml version="1.0" encoding="utf-8" ?>
<svg baseProfile="full" height="108.85699100882218" version="1.1" width="100.93691301470876" xmlns="http://www.w3.org/2000/svg" xmlns:ev="http://www.w3.org/2001/xml-events" xmlns:xlink="http://www.w3.org/1999/xlink"><defs /><rect fill="white" height="108.85699100882218" width="100.93691301470876" x="0" y="0" /><path d="M25.082605732699392,25 m0.0,0.0 m10.931070239139748,13.412778255510828 l0.42371380457568225,0.1621576908293164 1.865980772150337,0.31955421879808144 l25.616008721666805,-0.15250370282052939 3.245943086353001,14.189286728064983 l-0.4078422800146084,8.500259351823638 m-26.859048978271492,-11.759875679831763 l1.9532195353373696,0.3198933274964706 3.719816654776915,-0.048764754169972724 l18.57230815490772,-1.4994646742287834 m-24.85422612661586,12.790313841715692 l1.1026986745293237,0.207816986986409 2.0102970160749076,0.0664462568209797 l19.856116083999638,-1.5290832917407637 6.056078811743588,-0.1316452854344608 m-43.31473990305247,12.582984808084339 l1.97472590725224,0.346521059779679 2.9285052977752333,0.028438124264074806 l19.45886957003387,-1.3278266476785812 19.11105399664688,-0.8309698207064338 l4.461317468683219,-0.0437923797784895 3.002440774317318,0.3200118068828088 m-26.29848922692121,-31.559829381512845 l0.8213180293732643,1.0929349372053534 0.2967556286719844,1.673380419061417 l0.05160506699366114,41.727968813400736 " fill="none" stroke="black" stroke-width="1" /></svg>