<?xml version="1.0" encoding="utf-8" ?>
<svg baseProfile="full" height="112.21899636418087" version="1.1" width="105.8234191610963" xmlns="http://www.w3.org/2000/svg" xmlns:ev="http://www.w3.org/2001/xml-events" xmlns:xlink="http://www.w3.org/1999/xlink"><defs /><rect fill="white" height="112.21899636418087" width="105.8234191610963" x="0" y="0" /><path d="M25,25 m0.0,0.0 m24.01412533316475,2.165259492320711 l0.028582683090193517,0.6581771382222429 -0.2426937248944951,1.9653814522777637 l-0.6597839866321393,2.332092430477634 -2.594585984374581,6.274061229019906 l-3.358828969633978,5.469147225444294 -3.649098400272174,4.1751397586718335 m8.239643525593989,-7.381626908378067 l1.7330370960081443,0.09547589959553253 5.948381536174921,-0.8132990840656652 l12.668500949760043,-2.707600526920138 2.67865137104193,0.009192634316341555 m-31.859808678753716,20.970684866690803 l3.6798975166764416,0.37218879634190377 19.236381671940773,-2.5319833826553695 l9.974979024451496,-1.0007810381208198 4.493345139904273,-0.1584497216032929 l3.0112743360468506,0.4628052474297957 m-21.29252536927434,-13.305311265236979 l0.3131513736577564,1.1154208828618977 0.11471261882866646,1.5556431545694394 l-0.20384842378424098,4.170309168097292 -0.5391262625017871,5.972036425568003 l-1.3058898788871791,7.292948226736678 -2.0949988452722135,6.567948103687062 l-2.740932477403865,5.625731302658648 -3.34556331968773,4.7654362176819856 l-3.9380775597394604,3.9542578413106444 -5.87584071796751,4.1487107971807955 m20.500146134010382,-29.475912571294945 l7.811477941947798,11.60307453026972 6.79187926953764,8.985103051574525 l4.878720356453294,5.276225666878489 3.408133881886364,2.464820042424264 " fill="none" stroke="black" stroke-width="1" /></svg>