<?xml version="1.0" encoding="utf-8" ?>
<svg baseProfile="full" height="121.62216620320824" version="1.1" width="108.35834134223074" xmlns="http://www.w3.org/2000/svg" xmlns:ev="http://www.w3.org/2001/xml-events" xmlns:xlink="http://www.w3.org/1999/xlink"><defs /><rect fill="white" height="121.62216620320824" width="108.35834134223074" x="0" y="0" /><path d="M25,29.651667346678277 m0.0,0.0 m24.41983003207387,1.169484893229712 l0.024136366826452434,0.5622694691616197 -0.2828270918102484,1.945079287804936 l-3.892694357296469,9.22612297546681 -3.0891301867369294,6.144259258323955 l-3.45936149647059,5.011290846176588 m7.799496324948565,-9.071385555909194 l2.587148708481673,0.18123857020902795 5.839841583498204,-0.5868140016592228 l13.73618947458071,-2.546715140245751 2.8857019017054477,0.05757725710447848 m-35.89883031656198,22.245995634304222 l3.920783078117474,0.3957702738159032 19.989007894900187,-2.2355434974874946 l11.531142174294875,-1.0885835510840416 7.314621467849117,-0.20320914271008467 l3.4068756878011413,0.5191901519639616 m-23.90572859418553,-36.377695075143706 l0.4301634999367039,1.8596827028653398 0.127688645529016,1.8755694359769555 l-0.18538622301009786,6.993560336075357 -0.468375051549943,7.865284319078825 l-1.2294198177566227,10.015167038989242 -2.224438157834316,8.925072317250514 l-1.5529465074635735,7.81066879966633 -2.8011350790235388,7.424115991917557 l-1.829156658739712,8.160678789179503 -6.334311340038361,7.8178354505171095 l-4.764280183809279,2.8745310216914963 m22.09313330603312,-34.23163418934006 l9.277565910540421,14.711344665342802 6.050364034319307,8.893703197221546 l4.817836375684175,5.5660965719442865 2.3954836481607598,1.8363512758437424 l1.629352289236739,0.7882353101777103 " fill="none" stroke="black" stroke-width="1" /></svg>