<?xml version="1.0" encoding="utf-8" ?>
<svg baseProfile="full" height="104.15958565827266" version="1.1" width="106.35390465083957" xmlns="http://www.w3.org/2000/svg" xmlns:ev="http://www.w3.org/2001/xml-events" xmlns:xlink="http://www.w3.org/1999/xlink"><defs /><rect fill="white" height="104.15958565827266" width="106.35390465083957" x="0" y="0" /><path d="M25,25 m0.0,0.0 m28.22024194292464,3.1322596983035713 l0.3551397013194266,0.3768449748134296 0.5309592813482596,1.479635463690388 l-0.03295076889071924,4.922945142214304 m-17.573864511449685,1.8023130814576187 l3.7532771478483373,0.06309321969852577 26.902576137054204,-2.8318795803836574 l2.050371549137233,-0.11418123546019003 2.0081749953941803,0.31759206101420734 m-27.268701397612908,7.858131005458257 l0.6448193869072995,0.6788638388990372 0.3674890433089925,0.9553012438324328 l1.5793313714394266,7.317510803035085 m-1.2960923721489561,-8.283152304995019 l13.66974148951057,-1.9364496023081275 2.577816636190609,-0.23778245879596027 l0.5519226733351875,0.11104553075407701 0.6364369021068873,0.43064475236799893 l0.23478257457247992,0.5342299995772576 -0.03935631455627363,0.6527034656893784 l-1.81159564574983,5.674458263382759 m-14.261726419989264,2.1143483825105953 l15.32860441301482,-1.6541120827172262 m-26.47493815924192,7.426466031613029 l3.344161812467905,1.030105743574029 25.000553208767386,-3.6982690829822373 l2.3226289961306947,-0.12629439131522235 1.103640315021648,0.39793339852747456 l0.5200791146465807,0.5480632072481373 0.1489304379168923,0.6440160459919428 l-0.6495521279653012,0.6881284755870766 -5.679612091574319,4.086123664495733 l-3.856344559053224,4.261029535069028 m-0.9313315213645963,-2.9582995193301374 l1.9166443157753643,3.4902274160063387 1.0792063289362743,3.6460409200866564 l0.4038058220512729,3.7298866673775652 -0.2389169294911084,3.5814041012119744 l-1.1580927793740097,3.345429918990331 -0.5812697863380545,0.5664225555097533 l-0.6052150709530133,0.13680730857243992 -1.1570982980695348,-0.5500203653765675 l-1.267692459733622,-1.2124707744534717 m-19.236522478258262,-12.572152438128676 l1.7551644192389444,0.3089572247834575 2.803224522192448,-0.03852813761114565 l33.22360392173801,-2.973989638654191 4.802783180783209,-0.11277875380283911 l2.638666701574988,0.44911035984703224 " fill="none" stroke="black" stroke-width="1" /></svg>