<?xml version="1.0" encoding="utf-8" ?>
<svg baseProfile="full" height="121.08738534467099" version="1.1" width="99.1872795089949" xmlns="http://www.w3.org/2000/svg" xmlns:ev="http://www.w3.org/2001/xml-events" xmlns:xlink="http://www.w3.org/1999/xlink"><defs /><rect fill="white" height="121.08738534467099" width="99.1872795089949" x="0" y="0" /><path d="M25,25 m0.0,0.0 m26.714745082079556,15.898005146938774 l0.37538798137757123,0.3359428776462015 0.5715416413245206,1.3627371289383452 l-0.012546520727773382,4.435464981668894 m-19.853520145480946,1.6098681306991498 l4.567099199295172,0.12661749625924534 18.797910504188245,-1.555992355001119 l11.400500825335893,-0.6578799516937143 3.4813072733026487,-0.07796181114110008 l3.144853668300013,0.36037792725765894 m-34.08279042461996,6.256721304699188 l0.7037756585608131,0.941831069595909 2.139576972979423,1.044246937460981 l20.85662555718267,-0.9025295361400681 m-26.51614927512429,6.208359873857782 l3.7019120073665537,0.06396808856761686 19.003594643157093,-1.792863995838696 l3.787226327865311,-0.1321527759917323 2.5742527593032687,0.16905277387197423 m-29.384921436612988,2.006476341818068 l0.4665208434470037,1.2508448263549887 -0.1654860290740643,4.728924803432227 l-0.5079204360421712,4.207038745036089 -0.996661535958985,4.418780111638693 l-1.1211176214809269,3.3572345523477796 -1.4664195499901496,3.3057809023791465 l-1.7928336392674329,3.001444311194741 -1.7201781432087844,2.73812967475841 m12.20881168645394,-21.76618344138417 l2.576667634613107,0.196290223689439 24.283449325321975,-1.8052835452891414 l2.0297922270534765,0.14241894663466675 m-22.598331075307517,-5.343529337440548 l0.6495086940882744,0.859382425149889 0.3150471899575345,1.216346529820791 l0.6671182132141636,13.489053823353183 m12.077149875433633,-16.631672313922234 l0.5362497961350283,0.8182400039600723 0.13984020975200276,0.930527620379561 l-1.4157742431140674,12.814791697850213 m-10.572240273317002,1.525737306410413 l12.248769324718465,-1.0675688365536051 m-19.87177060077075,6.093535402755839 l0.6119391891907106,1.5909590178939348 -0.08668643274053027,14.271572975741789 l-0.40016269404246085,1.0442992650054754 m1.922631982333868,-17.56925357255146 l19.44775812512889,-1.9835295777743305 1.536035669321595,0.046224285077197586 l1.0458783832905707,0.3702405664400439 0.5997192849831467,0.9747569647661088 l0.08362722028246135,1.3498344904107835 -0.16600538274293758,15.874203776363728 m-22.267060456814434,-11.388506467294816 l21.522219923784416,-1.7651486819385136 m-21.30661935135846,7.60762772041502 l21.057669253634316,-1.4254203908010905 m-21.18489657113063,7.7249891320100454 l21.125772540711232,-1.3550911775690373 " fill="none" stroke="black" stroke-width="1" /></svg>