<?xml version="1.0" encoding="utf-8" ?>
<svg baseProfile="full" height="113.10631470122655" version="1.1" width="114.4429017734458" xmlns="http://www.w3.org/2000/svg" xmlns:ev="http://www.w3.org/2001/xml-events" xmlns:xlink="http://www.w3.org/1999/xlink"><defs /><rect fill="white" height="113.10631470122655" width="114.4429017734458" x="0" y="0" /><path d="M25,25 m0.0,0.0 m6.40456216816776,14.762459604847804 l0.36472573935966457,0.3712643192551616 0.5254523423004367,1.199479268975127 l0.09279007501518291,15.05810336838504 -0.44885192596054657,5.316306968542986 l-0.8108838223513684,4.730780600153799 -1.2671762229615497,4.443736729450025 l-1.546109258028751,3.1238021412529835 -1.8920716112468432,3.0418559505730007 m6.88808014100865,-37.42104124159561 l9.626191916349608,-1.611771730184814 1.422060494822788,0.10527261197418623 l0.6547682978330077,0.26875009561505125 0.6407418993242294,0.8974419974917509 l-0.08081425545662234,35.79361020141037 -0.40724873251257127,1.1089633949624371 l-0.5876762044138492,0.494303999746659 -0.7268411520607189,-0.001176057761576119 l-1.5609138109093927,-0.9286431501149692 -1.7492702989428484,-1.605643541316301 m-6.111966405048912,-24.90621894937304 l10.402142185727445,-1.1036964890003824 m-10.899666757048598,10.493710020442947 l11.201422557456885,-1.102123869569912 m21.60935363445802,-21.721240890110753 l0.1271778300443784,1.32499285852722 -0.4926384328138925,1.0519204286034622 l-4.409747168999047,6.489775495114142 -5.039646064893002,5.251681219105355 l0.1351356041141095,0.9356562741101526 1.0915894873654202,-0.04585830171348001 l20.70697148498839,-4.230042896718222 m-4.069822153949322,-4.438034429824292 l2.328128191252847,1.6914667354560986 2.5916586179336054,2.432333025396917 l2.1739629492906416,2.6025642109689486 1.1117962623305757,2.046081016381307 m-20.31653218771866,4.680368606560233 l-0.18459002679086858,1.5726008703726284 -1.6609638559936442,3.2918772467919486 l-2.0601253713088634,2.9478737289955874 -2.6309784566571084,2.68916077002369 m7.2366010971606824,-6.405385001034115 l2.817662112849839,0.10627658337531272 13.776170739026341,-1.4312637831633097 l2.8747250164565563,-0.14106916062882974 m-27.915343875300113,11.596993892555497 l3.4602955532744133,0.16693030924911886 25.784102123231733,-1.4584605701253317 l2.4988317080536118,0.012954686917352399 2.7656795956160782,0.37808088440552 m-18.92223352409496,-6.763397775858829 l0.7031403491232596,0.6977931360606648 0.24422222888535605,1.3754902493647372 l-0.08559893909000783,22.012037198782604 m-10.856400722039654,-8.862760706080573 l0.6266957060226591,0.7222994092687807 0.2451607320654274,0.9797972424245455 l-1.3522279670386188,7.298099175626117 -0.04269772438752121,1.1870383521387258 l0.5226524198284599,0.3270146125333015 1.0416350296144654,-0.11735193271458669 l11.38952427762048,-1.413608332717965 9.629101647784147,-0.8247857645493786 m0.30104321785295884,-9.187816068999329 l0.6753942228067896,1.3820748002690326 -1.0377798205858129,10.366631051923832 " fill="none" stroke="black" stroke-width="1" /></svg>