<?xml version="1.0" encoding="utf-8" ?>
<svg baseProfile="full" height="112.35718997442314" version="1.1" width="113.52939152818091" xmlns="http://www.w3.org/2000/svg" xmlns:ev="http://www.w3.org/2001/xml-events" xmlns:xlink="http://www.w3.org/1999/xlink"><defs /><rect fill="white" height="112.35718997442314" width="113.52939152818091" x="0" y="0" /><path d="M25,25 m0.0,0.0 m24.451677923754865,6.481684534748107 l0.43045197006446556,0.23694627129103035 3.120194494454359,2.5732264672168736 l1.5895698171669752,1.8289754725145324 0.6305665738555057,1.1621480467939278 m17.617354010717932,-8.222056466239193 l-0.38218392590233463,1.7060947083730016 -1.3736047722281923,2.474616325876795 l-1.8804101823618193,2.46230446734872 -2.269267701218521,2.1644977774652365 m-24.15812445535309,2.3320083689984084 l3.2799869173163314,0.19892645478347482 27.67882774643357,-1.766818697784505 l4.388292463134839,-0.09022761007637327 2.505196982470215,0.19400917396996123 m-20.48009545766729,1.4322976281606015 l0.9397223491609349,0.682484599730071 0.4145969469080861,0.9023980022101743 l-0.004241335903611542,12.80165285899262 m-16.439237354387295,-6.672802002425026 l3.4905698535975596,0.22677448159944422 23.898759224403946,-1.80029371223159 l4.169099735777647,-0.16224313179779273 2.081690646958029,0.1918495886249917 m-41.846883644774245,9.802559352840081 l2.2206502673380624,0.2940054785373424 2.611596221143803,0.029815405309590995 l36.90246606715895,-2.690719982036319 6.996891341389409,-0.28929162485678245 l2.9452788047718275,0.3035511915196533 m-35.05702184386427,3.0637185274625915 l-0.027597940572554092,2.1138040481221085 -1.1258703137477337,2.231184821532911 l-2.439426084394525,3.4453020243318497 -3.194129692937797,3.564535787037708 l-6.615119675957489,5.687866441170822 -3.892498440514961,2.659764243135986 l-3.3473610367186417,2.011221500525009 m20.448246467588735,-14.879029806341002 l3.207869749756872,0.3904135688998412 16.30224837632947,-1.6500921059854003 l1.4357026918535172,0.24320372982172883 0.5091887360559008,0.36682176119369697 l0.2657120778924883,1.059337542254759 -0.6472681902278915,1.8005253746002892 l-2.6814816183751953,3.0165066416197717 -3.5360186620629994,3.1893768075249294 l-4.071447094814918,3.1760608333079645 -4.418440165843603,3.031302652402681 l-4.750458144819048,3.040397238760867 -4.301343116593446,2.3351637093405224 l-4.578527338096879,2.0348320028169162 -4.662732217447118,1.636599201429539 m11.073257002685986,-17.96745840398554 l4.427608098910099,2.0808285385607936 19.285004005261428,1.856534482425363 " fill="none" stroke="black" stroke-width="1" /></svg>