<?xml version="1.0" encoding="utf-8" ?>
<svg baseProfile="full" height="113.4119955852162" version="1.1" width="113.40044229723095" xmlns="http://www.w3.org/2000/svg" xmlns:ev="http://www.w3.org/2001/xml-events" xmlns:xlink="http://www.w3.org/1999/xlink"><defs /><rect fill="white" height="113.4119955852162" width="113.40044229723095" x="0" y="0" /><path d="M25,25 m0.0,0.0 m19.82325625662909,3.3864207346433255 l0.5137374325945544,0.23990256926398504 3.459085014431028,2.640981580610946 l1.6666425996848122,1.9925928089803215 0.6859315172970211,1.271695761500278 m20.426709995818122,-8.37911763817947 l-0.3165472612565915,1.7910194486449362 -1.5970696697110092,2.555312919270364 l-2.2391513360611004,2.6138219674501686 -2.700759836030752,2.3739148963789183 m-26.99895840796285,2.660874126420501 l3.785053356179467,0.19384577542337875 30.958119390931216,-1.9713036038173373 l4.794502240826453,-0.09168709754355436 2.782282647136816,0.2074918701254592 m-22.9778945899445,1.4904382722172467 l1.0753491419927654,0.7206917794389404 0.43760096987141794,0.9590323159703208 l0.0015642743663259488,13.841089539003878 m-18.421210829585576,-7.312730440651413 l3.872531229456908,0.23122163234978615 26.90340269120547,-1.891742274983299 l4.805124611911314,0.13156536978616104 2.2667795384462104,0.3072287027523471 m-46.69986008836897,10.110120065655254 l2.5133595818278964,0.29995164891275794 2.9813517093184894,0.019325872797037902 l47.999600876817006,-2.6255251760479106 3.5999092394099357,0.3367906357010396 m-38.456598330896306,3.475112701031274 l-0.08352994045850645,1.960729801663208 -1.1415469978087769,2.0224981324875855 l-2.6759430923790615,3.4864516904190443 -3.278996547382203,3.444349288788404 l-7.001776889313185,5.756237573584138 -4.061011721949004,2.674179941812904 l-4.653214046676195,2.598666616450769 m22.59803679468402,-14.438518667773051 l3.687108742587102,1.0416461516009663 20.028707617279437,-1.7770169855773932 l2.4227209637981946,0.3318090592387147 0.8397511873658001,0.8685500730126495 l0.05052260183278373,1.4008365776339664 -2.6221299967507865,15.236583581201739 l-2.108326009591562,5.435113957736695 -1.4696639207285662,1.7915420298302231 l-1.2493714416279948,-0.02078853658363064 -1.4105866111764542,-0.8858723582166809 l-1.420106817512203,-1.4549488748509194 m-7.1194120098828995,-16.221214705023588 l-0.055970203549625556,1.3144633207892846 -1.0984993729364363,1.9345595988578352 l-4.386540952016915,2.2530685099671595 -6.164051446611098,2.3319417488251113 l-8.034684097428846,2.2136488945916253 m31.155009262487805,-10.274981406166068 l0.017172577047961768,1.2876520771624507 -1.4100663738131576,1.876336492144387 l-2.966649576201278,2.7719075587544215 -3.6988170084777354,2.7329816497667156 l-7.982434449335775,4.4703318305037 -9.678377427896434,3.976750693422756 l-4.47657083810312,1.2505193767164953 " fill="none" stroke="black" stroke-width="1" /></svg>