<?xml version="1.0" encoding="utf-8" ?>
<svg baseProfile="full" height="115.47816043360078" version="1.1" width="89.74378639389676" xmlns="http://www.w3.org/2000/svg" xmlns:ev="http://www.w3.org/2001/xml-events" xmlns:xlink="http://www.w3.org/1999/xlink"><defs /><rect fill="white" height="115.47816043360078" width="89.74378639389676" x="0" y="0" /><path d="M29.654750876248947,25 m0.0,0.0 m21.157345971538717,2.676368701626771 l0.0180341471627814,0.5449154809204051 -0.23578931225514885,1.889045057899649 l-4.122880053742466,2.6621640695616455 -6.915992541982067,3.6181932809103015 l-7.613843228265985,2.8290867569296267 m-1.7788230239676317,-13.745667739528802 l0.8297533091972662,0.9396334671830556 0.29911158949044675,1.2238192346313115 l-0.042204244467436466,14.255139163937997 0.25635336147992516,2.182124738358938 l0.5942500400706469,2.538019104547109 1.1856427187501664,1.6399540727607702 l2.1485808142448906,1.634386820149356 3.2947273400214208,0.8631174994581593 l7.649373986760982,0.2212238814915702 4.92524264783381,-0.3751861725935055 l1.8324575662612543,-0.737246919840865 1.1949559252906168,-1.1786274023243806 l0.6267428676809114,-1.563401637636463 0.1815608367802136,-2.420153825078242 m-30.139351594132258,15.214404678897614 l1.4025892305819023,1.0667812329656268 1.4751932986414145,1.437042616593638 l13.78673759073997,-1.153301353991615 11.406393868242937,-0.9086694570638117 l7.476744817301346,-0.05375193201132809 4.196127588389196,0.4495327944502808 m-20.824750419395677,-9.612469590607699 l0.4998617799876754,0.7498292144343374 0.30268599130112256,1.5670679266466883 l-0.0272824880868237,28.60349577753015 m-1.7639976893215774,-23.927568374137337 l-0.11593011419637701,1.558178011625755 -1.2516908387577277,2.3057822812259374 l-5.641175902964974,12.767547144335325 -3.8347458417292257,7.080190469421774 l-3.9366195290663497,5.865585244873818 -2.4507117166951566,2.7715761150472122 m17.87644437209788,-25.345199463699466 l6.897087791971988,9.357044978987545 6.453038594837262,7.71768125394311 l4.755569515646014,4.766714292028307 1.8977612695680561,1.0994892319284233 " fill="none" stroke="black" stroke-width="1" /></svg>