<?xml version="1.0" encoding="utf-8" ?>
<svg baseProfile="full" height="109.57283841632541" version="1.1" width="105.02949413963798" xmlns="http://www.w3.org/2000/svg" xmlns:ev="http://www.w3.org/2001/xml-events" xmlns:xlink="http://www.w3.org/1999/xlink"><defs /><rect fill="white" height="109.57283841632541" width="105.02949413963798" x="0" y="0" /><path d="M25,25 m0.0,0.0 m23.087004314492372,2.3009467590320476 l0.037872709681109076,0.5561893304734822 -0.24001476298208776,1.8071233366115582 l-0.6224584215613249,2.209282503021954 -2.520047952719258,5.971208290502289 l-3.2075918326336343,5.5698544758363555 -3.3457231740935494,4.153486065576561 m7.62848846206207,-7.234129900843691 l2.1231700198678434,0.04458733264474606 6.452857448452536,-0.8262568499053278 l11.677470026223592,-2.494538197988468 2.4525602103539654,-0.0034836009156421835 m-32.4068569611617,19.92837005255229 l3.753301097527964,0.361596595500447 19.102402892920786,-2.3465325167085367 l9.965426519664492,-0.963744691261608 4.537145932773354,-0.16064154290459112 l3.0712558221943365,0.4389540200565998 m-21.16297362211115,-12.665997942800892 l0.35310424582714595,1.0372163891121533 0.12966931285329888,1.4881174278564575 l-0.20224441664165482,4.1540842354777645 -0.541450890361267,5.840203410913043 l-1.2950806717646552,7.158938533112763 -2.050955630665212,6.355355746115033 l-2.7109836578720836,5.279041624745433 -3.3298891581682377,4.42570393117687 l-4.026213825200285,3.6557798472594474 -5.9666598310665035,3.5321237520768833 m21.03079950290408,-28.64889156050211 l7.720067835213201,11.002294101008387 6.961502757964008,8.777182568025085 l5.074472528920395,5.1078136238531995 3.5000673087440326,2.2108765422467513 " fill="none" stroke="black" stroke-width="1" /></svg>