<?xml version="1.0" encoding="utf-8" ?>
<svg baseProfile="full" height="99.98697165042842" version="1.1" width="122.60699537787914" xmlns="http://www.w3.org/2000/svg" xmlns:ev="http://www.w3.org/2001/xml-events" xmlns:xlink="http://www.w3.org/1999/xlink"><defs /><rect fill="white" height="99.98697165042842" width="122.60699537787914" x="0" y="0" /><path d="M25,25 m0.0,0.0 m33.49661814254967,14.17146869170914 l0.027984970260556827,0.38728187879338505 -0.641365541618736,0.805121184985666 l-2.5488648770173414,1.1598593635658552 -3.981381569268191,3.509125241747473 l-3.4024261692241398,2.7419313966079644 -3.3257279914533346,1.9193842764550924 l-3.5736148111171504,1.7202646347266184 m28.295072702858377,-11.71867185136703 l2.6413737042652286,1.8667548463499812 9.260405544892242,2.2470182107366314 l7.763779167853733,1.5034511390662244 5.824958524793567,1.1076736607440274 l2.770183580104662,0.4649455895803037 m-38.36967455583299,-4.101156893322564 l0.39633221509760896,0.12285006606611133 0.3459142814967252,0.6248434304388591 l-0.425475909543382,9.373276477638708 0.007351951194947589,2.3470496665073926 l0.23760345889296305,0.603624452197657 1.8378950692950935,0.5016642191294383 l1.9371361786720054,0.1320408165008824 4.406790238647285,-0.35623772097049755 l11.065114209816775,-0.5334302146725287 2.2111809247742897,-0.38648130886186466 l1.0573425079077856,-0.24970404654074077 0.8191630850261666,-0.39971550651002175 l0.5340935968006515,-0.5322913143609027 0.3812082415577074,-0.7051695573164309 m-40.43009042212651,9.731859219617096 l2.1872664880046067,1.5226854127723546 2.117031096747112,2.1018517632911045 m29.088280569831348,-5.677563537072038 l-0.20025153898810447,0.6381266962497776 -1.458396801732954,1.1465278616639036 l-2.5302610899831235,1.3777493390721418 m-12.94856326138009,-7.781822360948182 l0.5190890779291399,0.6018071981833498 0.23657379256851638,1.0266306564663215 l-0.7259802694584879,3.5505284759425173 -1.5687189044572802,3.245326842928516 l-2.3207784466226977,2.7630336846063943 -3.1654059494426665,2.337439670513597 l-4.012434427942055,1.9562146938284675 -4.763420356637784,1.641406725223874 l-6.503268482440803,1.4783984784644106 m23.70784449445307,-11.40947799894668 l9.560773638027161,4.623070824359068 8.761990670333487,3.648126568941389 l5.772980975223657,1.9818012080728593 3.0229790488401287,0.4326385619376562 " fill="none" stroke="black" stroke-width="1" /></svg>