<?xml version="1.0" encoding="utf-8" ?>
<svg baseProfile="full" height="106.04012420866638" version="1.1" width="109.49251217651181" xmlns="http://www.w3.org/2000/svg" xmlns:ev="http://www.w3.org/2001/xml-events" xmlns:xlink="http://www.w3.org/1999/xlink"><defs /><rect fill="white" height="106.04012420866638" width="109.49251217651181" x="0" y="0" /><path d="M25,25 m0.0,0.0 m13.395460844039917,0.05421508103609085 l0.20838730037212372,0.5823327228426933 -0.15692874789237976,2.4322648346424103 l-2.72487074136734,7.052776217460632 -2.9382967948913574,5.4814136028289795 l-3.5134312510490417,5.053481459617615 m8.033167719841003,-7.687655687332153 l2.8407615423202515,-0.08934739977121353 11.028330326080322,-2.1648524701595306 l3.3341968059539795,0.050510973669588566 m-29.506776332855225,19.486911296844482 l4.085686802864075,0.24245493113994598 23.129549026489258,-2.918276786804199 l3.943522274494171,0.1916065439581871 m-12.173560857772827,-13.129478693008423 l0.36508265882730484,1.7862282693386078 0.028668998274952173,3.164319694042206 l-0.7773584127426147,8.59462559223175 -1.3453397154808044,6.213468313217163 l-1.979859173297882,5.609541535377502 -2.6068204641342163,4.986898601055145 l-3.225504159927368,4.34626042842865 -3.83590966463089,3.688347041606903 l-4.439837038516998,3.012078106403351 m18.749816417694092,-19.475393295288086 l2.949453890323639,2.3804378509521484 3.2337820529937744,3.344274163246155 l2.6795223355293274,3.6109665036201477 1.640464961528778,3.009558916091919 m4.0540143847465515,-27.687077522277832 l1.2913534045219421,1.717485636472702 0.5587586760520935,2.233954817056656 l2.417328506708145,19.126282930374146 m-2.2559094429016113,-22.020668983459473 l20.285189151763916,-2.564891278743744 1.69229194521904,0.28968174010515213 l0.6363190710544586,0.5006333440542221 0.3735854849219322,0.7248566299676895 l0.018220391357317567,0.939362421631813 -3.2137173414230347,17.387921810150146 m-17.379283905029297,2.756902575492859 l18.795164823532104,-2.0785193145275116 " fill="none" stroke="black" stroke-width="1" /></svg>