<?xml version="1.0" encoding="utf-8" ?>
<svg baseProfile="full" height="109.58863925806364" version="1.1" width="94.84641718560187" xmlns="http://www.w3.org/2000/svg" xmlns:ev="http://www.w3.org/2001/xml-events" xmlns:xlink="http://www.w3.org/1999/xlink"><defs /><rect fill="white" height="109.58863925806364" width="94.84641718560187" x="0" y="0" /><path d="M25,25 m0.0,0.0 m26.34295265107176,3.209184018176147 l0.36330171590868643,0.310711780518233 0.5376437605765957,1.6215100473535815 l-0.052915798229943876,4.293028866052037 m-15.263270861972421,1.5042987113530375 l3.32327975859245,0.1907093620281454 22.26508332674481,-2.194397758214611 l3.2291895044932564,-0.141134103015274 1.987545820808236,0.27031270167181365 m-25.35689169451244,5.395339248800077 l0.5519965115233227,0.630943003797651 0.3185969639199577,0.8454430132508265 l1.1460646615080228,6.1072880157709974 m-0.8582129105471157,-6.886486232412965 l12.832411389381528,-1.6124846604495768 2.348070760241826,-0.16150920625107207 l0.48462361626640815,0.18912390826763456 0.3068162701829766,0.41815529634324594 l0.0033148060348083333,0.5396502633981868 -1.6286963180658283,4.5839021491114496 m-13.170473680307117,1.7830849107818236 l14.12246327327916,-1.4228536795235893 m-24.222622100897347,5.997506310585343 l-0.8369033304517498,4.289706115057668 -1.5840302147493146,5.298199255668266 m3.1580323967515094,-7.70607232846428 l21.451310469651233,-2.4716313250855038 8.412420333025361,-0.6970733203458148 l3.0588236367540236,0.16597728195843187 0.6950479162106127,0.39597513468611273 l0.2718610866303522,0.5314541532637037 -0.06149899175476635,0.642035109599879 l-0.9137877670826058,1.5210171353397388 -2.3781352317061524,2.407602470879998 m-26.053142751208007,1.6265743464695444 l1.454243173278297,0.5813303784487077 1.7303421046566458,0.06087389162424916 l14.203313343810734,-1.9672060347773361 2.639393501204114,0.0805769039552705 m-10.508536541856625,2.765970615148432 l-0.320616434485494,0.9119105440600708 -0.6046796837776689,0.428016956346261 l-3.1636820356486375,2.086464932739257 -3.6346986792912155,1.7388859051850183 l-4.603639278614921,1.5547699343522359 m11.736296973699133,-3.77789085157667 l1.6031658198157743,2.0969952032699943 1.4062780529157137,3.729481110604389 l0.7442362677969266,4.655509788705543 -0.011924668160164385,4.452866233962447 l-0.6321415083020108,4.8986617868856 -0.7257521537885628,2.595078877505073 l-0.5721965100985208,0.9177420277104739 -0.6297027678804316,0.3035110574937342 l-0.6372087058359973,-0.17589374235429106 -1.5856211689135662,-1.7033235453627387 m0.7365011795494478,-19.619301322809946 l-0.1993207392903286,0.9658098577238292 -0.5636268142222711,0.7257141665137986 l-3.323719991058319,2.5708176459458154 -4.163966564774448,2.2587472406614797 l-5.210774776485498,2.038705417601045 m15.062367288311146,-2.540801023941437 l-0.005111249912604883,0.6407778481406631 -0.5617147530394153,1.0033265888105771 l-4.036849203190904,3.2489237279807592 -5.022976645182544,2.941554398486322 l-6.178907150547281,2.8348252569762904 m26.84524181547773,-21.202819382679124 l-0.21637991679176205,1.0605115434767793 -1.6995787307341865,2.0290597716650924 l-2.172913755799417,1.7461054323889846 -3.1650771090073513,1.9583496572530705 m-0.8588448018481237,1.033116810435326 l12.85305905127483,10.371734056073581 2.1106701644790955,1.5289249476102185 l1.9012018097984562,0.9223804826284272 " fill="none" stroke="black" stroke-width="1" /></svg>