<?xml version="1.0" encoding="utf-8" ?>
<svg baseProfile="full" height="102.00030075303465" version="1.1" width="102.83634509906508" xmlns="http://www.w3.org/2000/svg" xmlns:ev="http://www.w3.org/2001/xml-events" xmlns:xlink="http://www.w3.org/1999/xlink"><defs /><rect fill="white" height="102.00030075303465" width="102.83634509906508" x="0" y="0" /><path d="M25,25 m0.0,0.0 m31.807560326659097,1.197702084147262 l0.04473700820447788,0.48371886363276134 -0.20991728953128064,1.0875843784010564 l-1.473764545714502,2.2392415245021287 -2.2504059464163726,4.619533822586826 l-2.1391996330651137,3.8515346935321486 -3.8806855327116683,5.392420026836252 l-5.1958889390242975,5.328035827832092 -3.2788468922409564,2.6327168622527983 m18.55631499212948,-21.195398135819076 l16.192986529585987,15.759558084230251 2.080750918270292,1.5874750980659535 l1.4252626608063426,0.7788868621865764 m-28.08381551508983,-1.1320881665339884 l1.8356555757961057,0.2542564620019431 12.1852979390221,-1.6038954522220206 l2.57151218177639,-0.17279406935305155 1.241140474633865,0.18317657930677272 m-21.476463758467297,11.323003807968478 l2.4192528522712955,0.7363443049715042 17.368460831577156,-2.25548502242802 l5.141182538606511,-0.36668257853585506 2.0370721282157236,0.22730683531255347 m-14.542464391030311,-7.983624317483405 l0.41272287596741514,0.9109574500703101 0.15920558445737684,1.2118953822354321 l0.0363256976960485,26.2284793688464 m-10.565511644439065,-11.527358179054298 l2.4128087360393184,3.4678255656828147 1.8500456566087182,3.857132952960373 m17.167005220141657,-9.369276904381907 l-0.08759680120682972,1.5978642901683051 -0.42153050135691555,1.4007958757147494 l-1.55950422155809,2.7957413259142125 -2.330310815302102,3.0441519070212 m-22.667974126248513,5.024849562676861 l2.5101663493933506,0.38471377978824506 11.86574756426309,-1.1443710306327406 l17.512373834386096,-0.9872113024209533 2.195439882126551,0.05953710788828581 l1.9711972938337692,0.3869703244708465 " fill="none" stroke="black" stroke-width="1" /></svg>