<?xml version="1.0" encoding="utf-8" ?>
<svg baseProfile="full" height="102.08974780109185" version="1.1" width="102.47221829168423" xmlns="http://www.w3.org/2000/svg" xmlns:ev="http://www.w3.org/2001/xml-events" xmlns:xlink="http://www.w3.org/1999/xlink"><defs /><rect fill="white" height="102.08974780109185" width="102.47221829168423" x="0" y="0" /><path d="M25,25 m0.0,0.0 m29.110512414437245,1.820825773879835 l0.048376251195506904,0.411491128420353 -0.45828641682642307,0.8931338889960849 l-2.548874040539445,1.608491139746151 -3.564979327846714,1.5629371831211447 l-5.221288971112301,1.5020329512540664 -8.844152759439345,1.5921493779840872 m-6.510286363790956,7.268520237890501 l1.6846752044601203,0.25474829935057036 1.9225746917008613,-0.11820870159929726 l27.6210212486717,-3.9294711827672724 3.7953433797122953,-0.3223683118952715 l3.0045872256558885,0.1909470596084272 m-19.029393710393446,12.455094954956035 l5.635146099513427,1.8880589117979067 4.4392464432256125,1.418258097337014 l3.395782879983985,1.0795610684568364 2.9975282575232396,0.8975825961199004 l1.778070021619032,0.6221825232046307 1.8888068388189705,0.7728108054119355 l2.289166575894078,0.8691721019123055 2.3342173114341236,0.9685287293470821 l2.822404184706493,1.0923583530033147 2.034413557881928,1.7022036435973391 l1.2109062666142096,2.1124261462849483 0.6367010285841436,9.817107696505692 l-1.081839688049601,3.059954751428483 -1.1781942912179288,0.5992185777390535 l-1.5095883904473322,-0.6124340457436093 -2.894792288655511,-2.303805093476726 m-6.855999413097458,-29.202762418321655 l-0.28755682366184615,2.016253667882232 -1.734516760981844,2.9546439087877965 l-2.751574752541297,4.899769553885772 -3.40801015844994,4.934454320434655 l-6.349419577931961,3.571344465224616 -4.5291273974908055,1.6509538816179672 l-3.999853218924817,1.1859480771406943 " fill="none" stroke="black" stroke-width="1" /></svg>