<?xml version="1.0" encoding="utf-8" ?>
<svg baseProfile="full" height="110.24770562928225" version="1.1" width="86.71793741306853" xmlns="http://www.w3.org/2000/svg" xmlns:ev="http://www.w3.org/2001/xml-events" xmlns:xlink="http://www.w3.org/1999/xlink"><defs /><rect fill="white" height="110.24770562928225" width="86.71793741306853" x="0" y="0" /><path d="M28.623108422058262,26.13972617378932 m0.0,0.0 m22.919543990969675,1.2148523117613375 l0.024317138328925538,0.583378365099311 -0.25180808307088004,2.093466136201381 l-3.8898629313873805,2.9149064530289097 -6.649019248190734,3.8735645760107906 l-7.728442277804093,3.0004236711280927 m-2.024295084357041,-14.820317687019143 l0.8075855571972521,0.9501792817017192 0.29706506384474407,1.3051824318206129 l-0.12426557293626332,18.9114087661885 0.37332176206602674,2.4919755093287996 l0.8436736628071109,1.4234741355406355 1.7130908319977927,1.0906033644195898 l3.482382167915663,0.718233024349341 7.686824950101501,0.1972371163386378 l4.8932402451366634,-0.3537680970650376 1.8334319619960389,-0.7157942117445395 l1.0603461378629715,-1.2034537264381162 0.5501256731777142,-1.7112149120644806 l0.13143641113265148,-2.5697201001716423 m-29.571800778846598,16.749006865540554 l1.27372053370731,1.2515767529785928 1.3606446147421827,1.7151408156626615 l11.404799656429418,-0.7891610740493633 12.714250116464989,-1.2670561183596387 l7.233390641475555,-0.1240451132313727 2.7311318502490702,0.4646821151009701 m-19.195187710764227,-18.316895659782933 l0.39251363217831003,0.8366702773056314 0.23611198946912548,1.7049117734446773 l-0.006321103598574782,37.48853241246845 " fill="none" stroke="black" stroke-width="1" /></svg>