<?xml version="1.0" encoding="utf-8" ?>
<svg baseProfile="full" height="110.04379904614999" version="1.1" width="104.43499719073358" xmlns="http://www.w3.org/2000/svg" xmlns:ev="http://www.w3.org/2001/xml-events" xmlns:xlink="http://www.w3.org/1999/xlink"><defs /><rect fill="white" height="110.04379904614999" width="104.43499719073358" x="0" y="0" /><path d="M25,25 m0.0,0.0 m22.370638181813234,2.4255174160272412 l0.02728276002461591,0.5521719872081406 -0.14130057889350053,1.8902725420293653 l-0.6356870676253742,2.650532385648015 -2.6277944623774108,6.293888475870785 l-3.596211793538714,5.7664441391921715 -3.7263393490683288,4.155773752904623 m8.615252870006826,-8.018480844934567 l1.6503786735808958,0.14659339856531153 4.954871239948389,-0.6527620565927912 l13.645020284833299,-2.9500273000171076 2.6827166305012398,-0.011757539449965491 m-32.46107222654434,20.041634825824445 l3.8211442121632015,0.367524820400327 20.41454554379405,-2.5805347140544144 l8.936653846262713,-1.013600816048692 4.41494669272202,-0.1982705006034259 l3.0682640579804574,0.4544281376224632 m-21.141102103058394,-12.752209544784973 l0.3191292522947811,1.0627522699875809 0.11559899281249644,1.493009658395796 l-0.17207452403320292,4.033635169798407 -0.5634264495160325,5.812198961287729 l-1.305819808563597,7.210663061580261 -2.102177304681395,6.461016889193692 l-2.773649888401325,5.341688997074226 -3.4074828074063994,4.487248724938698 l-4.028551404583686,3.694166721075416 -5.973345752766918,3.880280028011214 m20.845944947198422,-28.394239378640002 l7.915259734123435,10.985453756044096 6.900677799029982,8.804426283887373 l5.001379936331746,5.21266441419725 3.3913270563704043,2.190693297195697 " fill="none" stroke="black" stroke-width="1" /></svg>