<?xml version="1.0" encoding="utf-8" ?>
<svg baseProfile="full" height="115.02907713556313" version="1.1" width="104.08445587792397" xmlns="http://www.w3.org/2000/svg" xmlns:ev="http://www.w3.org/2001/xml-events" xmlns:xlink="http://www.w3.org/1999/xlink"><defs /><rect fill="white" height="115.02907713556313" width="104.08445587792397" x="0" y="0" /><path d="M25,25 m0.0,0.0 m11.523384786310613,4.3166899640440315 l0.07881411003795664,0.49954525795241933 -0.05694790306350143,1.681811127741542 l-0.7473331521644311,2.764001986479446 -3.2178025014212164,8.030406754885144 l-3.5134009738104033,6.9407492976642144 -3.6588453514122015,6.271199489560447 m8.04066792100322,-11.48114764050305 l0.46517274821156535,0.8177722970715697 0.23847245386050475,1.6683460197148603 l-0.0199999358945441,29.831945035043965 m19.050864651579253,-38.86092805935538 l0.07449021216281468,-1.2381292034585893 2.243429108334607,-0.9820341883115066 l9.074692373932134,-2.6122257793695374 0.8963623048253319,0.19225748848429805 l0.3405759436981831,0.3401728365861084 -0.10324079279278171,0.5683232183005907 l-0.527636962422488,2.2563178664379766 -1.9547137753358796,4.210052126629981 l-2.5258358846337594,4.045665837175871 -2.8609464286459723,3.9855105128338786 l-2.6416129882098542,6.126289527953537 -2.3533935012354257,5.808628055660908 l-2.1611255544252486,9.016701721345989 5.0366589736511145,-3.8536491751020328 l4.652942551675257,-4.659683810860614 m6.536016933393001,-11.036716493243823 l1.4761131388079314,2.2863269327370954 1.3931464930774446,2.891600270499066 l1.2698055159392247,3.3682697453404344 0.774650491910548,3.0933611483165957 m-9.835941458797212,-30.06836043598892 l0.6218539681049264,2.004383226179324 0.11579201456177649,43.94736316771476 l0.06834272317042658,1.854590587989035 0.08274962329480003,1.4128827377060016 l0.0544863093108479,1.3102012105645404 0.10255702678732687,1.4848387017448808 l0.10906936838217308,1.7193056382582117 0.07720615398385798,1.7383967696528158 l0.9160148909320357,1.9710435663255084 1.65042511810544,1.0275184431608062 l2.6175999307203868,0.3394833540007396 4.867349987095653,-0.21987472350330614 l2.447669282450359,-0.6110742014417638 1.5095602611886079,-0.7990126729057773 l1.2491582692297318,-1.2876002918106646 0.6071374024598639,-2.0385917834696623 " fill="none" stroke="black" stroke-width="1" /></svg>