<?xml version="1.0" encoding="utf-8" ?>
<svg baseProfile="full" height="109.49251416663174" version="1.1" width="103.85044399881735" xmlns="http://www.w3.org/2000/svg" xmlns:ev="http://www.w3.org/2001/xml-events" xmlns:xlink="http://www.w3.org/1999/xlink"><defs /><rect fill="white" height="109.49251416663174" width="103.85044399881735" x="0" y="0" /><path d="M25,25.000001647368748 m0.0,0.0 m29.471147060394287,-1.647368748081135e-06 l0.3644631430506706,0.46609852463006973 0.4533536359667778,1.6786019504070282 l-0.028903570491820574,5.219817757606506 m-21.626970767974854,2.313661277294159 l1.807750165462494,0.3810517117381096 2.5622469186782837,-0.006068990915082395 l33.4590744972229,-3.348222076892853 3.198601007461548,-0.09689144790172577 l2.558039128780365,0.3059985116124153 m-41.51383876800537,3.441360592842102 l0.7476996630430222,1.74301415681839 -0.27037354186177254,7.201869487762451 l-0.7385557144880295,8.530897498130798 -1.1765750497579575,7.4122607707977295 l-1.4542920887470245,5.896146297454834 -1.4581762254238129,4.291990399360657 l-2.516608238220215,5.41451096534729 -2.373865693807602,3.7391459941864014 m12.481081485748291,-34.7191596031189 l3.149401843547821,0.18319249153137207 11.74600601196289,-1.9205120205879211 l1.4578525722026825,-0.03263094229623675 m-7.861528396606445,-5.39120614528656 l0.6365157663822174,0.8807320147752762 0.25849856436252594,0.9949909150600433 l0.03314427565783262,19.23829674720764 m-0.91471828520298,-13.506499528884888 l-0.6177018955349922,2.092588245868683 -2.159104198217392,3.265278935432434 l-3.1073233485221863,3.4578683972358704 -3.250713348388672,2.8182774782180786 m11.631747484207153,-9.347864389419556 l2.7130818367004395,1.8354247510433197 2.125927060842514,2.3279032111167908 m4.627322554588318,-8.969807028770447 l2.9645806550979614,0.20043855533003807 11.731764078140259,-1.4997690916061401 l2.194223403930664,0.0 m-9.990044236183167,-5.401564240455627 l0.5810047313570976,0.9943435341119766 0.14830591157078743,1.2131508439779282 l0.03314174711704254,19.309749603271484 m-0.5699996277689934,-14.666566848754883 l-0.1823124848306179,1.1875801533460617 -0.5601274222135544,1.2720605731010437 l-2.8271785378456116,4.168992340564728 -2.9629623889923096,3.5802191495895386 l-3.3584988117218018,3.155551850795746 m11.165648698806763,-12.180707454681396 l6.883369088172913,7.040677070617676 2.301037758588791,1.880578100681305 l1.8847858905792236,1.115076020359993 m-40.1466178894043,9.627524018287659 l1.8844620883464813,0.31939078122377396 1.9067960977554321,-0.024291134905070066 l15.749598741531372,-1.9697922468185425 10.200436115264893,-0.9394797682762146 l5.610336661338806,-0.21260688081383705 3.8333365321159363,0.3077787719666958 m-27.758755683898926,4.5082080364227295 l-0.1576622761785984,1.009880155324936 -0.783466249704361,1.275944709777832 l-3.9856278896331787,4.594307243824005 -5.018003582954407,4.408838748931885 l-6.137611269950867,4.448327720165253 m13.382205963134766,-9.565377235412598 l0.595732182264328,0.8312090486288071 0.4468395933508873,1.456557810306549 l1.6885551810264587,10.254167318344116 m-1.3853482902050018,-11.818187236785889 l19.236273765563965,-2.286917269229889 2.716318368911743,0.009508085786364973 l0.8242499083280563,0.8483640849590302 0.06833684165030718,0.8260301500558853 l-1.7863063514232635,7.988410592079163 m-19.047892093658447,2.778465151786804 l20.31768798828125,-1.9025477766990662 " fill="none" stroke="black" stroke-width="1" /></svg>