<?xml version="1.0" encoding="utf-8" ?>
<svg baseProfile="full" height="109.9718468843" version="1.1" width="101.1450621479832" xmlns="http://www.w3.org/2000/svg" xmlns:ev="http://www.w3.org/2001/xml-events" xmlns:xlink="http://www.w3.org/1999/xlink"><defs /><rect fill="white" height="109.9718468843" width="101.1450621479832" x="0" y="0" /><path d="M25,25 m0.0,0.0 m15.92386458090376,11.15519845926142 l0.06135534951890773,0.47242464731163336 -0.32526954275665326,1.4857445520822017 l-2.759160750677647,4.07653206279526 -2.789465145695403,3.191102656458925 l-3.3693975632078015,3.314435438749919 m10.170932385724125,-11.327765676663061 l1.4617863547685455,0.8289668041458417 1.7710165729649352,1.4194073346886045 l2.901161415408838,3.206944075792067 1.7854806292636622,2.203628204699125 m-8.911495863548698,0.43998920956087706 l0.5770752736555643,1.2758489238680606 0.00628816054195217,3.436026567186562 l-0.4447389220715836,6.127057244605522 -0.8461698824583227,5.086183490219409 l-1.0446402820834597,3.845939955910441 -1.435871414838426,3.46529181998889 l-1.7731461348222735,3.06408246869323 -2.0791924226421843,2.7360083816887757 m0.8874510713244216,-20.396363695178863 l1.4998003784652971,0.2793386768263138 1.7646003369124201,-0.16987815355936853 l11.081636740109044,-1.756628106353037 1.4729067661854116,0.06366753063275112 m-14.328363753755863,10.112723387130648 l0.528334027236497,0.7829668598637148 0.25716694045888394,0.8930273475642672 l1.3217990737038923,12.3582636954204 m-1.2143043951856647,-13.286613481692177 l10.822733394685253,-1.9666655869704288 1.149256940244889,0.02531433212816256 l0.38464492465643046,0.30805816515684936 0.38438655614006545,1.0910585289107348 l-0.04514656896302036,0.7982986473505884 -1.6445827774100097,9.672815946128399 m-9.112131909017027,1.7271606127924188 l10.205687475448476,-1.2913864336500196 m12.709129521906837,-39.08460947909015 l-0.15159631850258976,1.6056840180456027 -1.910726419709208,4.445829821949594 l-2.106182018542567,3.7965138938470586 -3.028090241892714,4.465341498753389 m5.639725931021432,-5.264028222940273 l2.7179406964469344,0.09101823608198467 10.735955335018042,-2.5686431261480727 l1.340104142071172,0.04548650856439154 0.4294715268786331,0.23823745910197552 l0.4730419740999784,0.826064483776533 -0.24022259863349008,1.38526172963355 l-1.5713171185292145,2.0439155213587994 -2.3918409565136862,2.6158287275424383 m-8.900719929853098,0.48826460239442765 l0.15079327789919672,0.9739211712698076 -0.004794487062042272,1.1600120351714156 l-0.717226990945139,3.5440314432900446 -1.1424922270118534,3.9151815585151537 l-1.6076453522453922,7.048244984865849 -1.250342171411008,7.450616633992368 l-2.3283373888009296,6.344857726836268 -1.9058319135118214,3.3381337177504338 l-1.8165650284527606,2.31847704619236 m10.57001112827677,-23.676081735772215 l2.778775317896375,6.447068283684674 4.912801276445948,8.53159176474213 l4.040314404008565,5.900932851030262 0.9696977101961052,1.1161626615658 " fill="none" stroke="black" stroke-width="1" /></svg>