<?xml version="1.0" encoding="utf-8" ?>
<svg baseProfile="full" height="102.18300462281921" version="1.1" width="88.13172827031184" xmlns="http://www.w3.org/2000/svg" xmlns:ev="http://www.w3.org/2001/xml-events" xmlns:xlink="http://www.w3.org/1999/xlink"><defs /><rect fill="white" height="102.18300462281921" width="88.13172827031184" x="0" y="0" /><path d="M25.61602912555554,25 m0.0,0.0 m7.548332193159799,8.141121472183027 l0.35235116392212723,0.4546973811568748 0.38206916565983023,1.6023371772927502 l-0.033105731362203225,7.277029961446961 m-8.865675916935091,1.9658867696496107 l2.583335111110213,0.0619642769276382 11.852782003539636,-2.249271226370886 l2.1380592366719933,-0.260595800708774 m-14.078299982986772,8.429547701756631 l1.8543401016564667,6.171354103611903 0.841827601599511,5.687733655458228 l0.4554480292159412,4.996445294683024 0.22898874072673717,4.448883607108351 m7.3079157088815805,-24.133468588077925 l0.19374979216475746,2.1784667028701943 -2.9365925899134893,17.570745005544623 m-9.283983234511677,8.875349648941047 l0.8239456592206725,0.44369162920557925 0.8879653620359004,-0.2516001953618599 l13.323766935374636,-9.681042589563091 m13.449053196525789,-39.11613738190557 l-0.39850057528936456,1.6018601736641527 -3.256087500959542,3.2776544283634523 l-3.9790020905201207,2.790096484805116 -4.523127558666517,2.684353208598663 m-0.7531688569131872,9.71524682549809 l2.156169893227221,0.12658375332091934 12.948853746071082,-2.8387887459222307 l2.1348516575001453,-0.25000096114840337 1.4966808356071728,0.1867232727534885 m-10.20625818318503,-10.375015009441976 l0.6217992649657702,2.2851010937772758 -0.024911372705835575,22.984894883964852 m-7.3833131545846795,0.45388076655384924 l1.754825344909875,0.2775566082554849 11.632032894672838,-2.447983147492436 l1.0843797324292892,-0.14188167589147446 1.0024099519555092,0.21009107769001936 m-15.8565798415564,10.69809028934376 l-0.25781673817045436,1.9021640463414573 -0.6734898342855168,3.088238640791501 l-1.0356421954005157,3.3410000031453104 m6.145978252198995,-11.00994024713974 l0.8552981955987239,3.6870669261651825 0.6803586186523436,5.208042770748798 m4.314200925563527,-9.819269547346767 l1.5294005428389261,3.7512848637696172 0.9050671288897362,3.8722442622373747 m3.6174357767731307,-9.082822928665362 l1.1934718468283938,2.0188404932819584 1.255450523711428,2.979790725056058 l1.027096115946624,3.2008288132687555 0.4815632528963596,2.4621940989690425 " fill="none" stroke="black" stroke-width="1" /></svg>