<?xml version="1.0" encoding="utf-8" ?>
<svg baseProfile="full" height="116.14786346304207" version="1.1" width="106.78783274696585" xmlns="http://www.w3.org/2000/svg" xmlns:ev="http://www.w3.org/2001/xml-events" xmlns:xlink="http://www.w3.org/1999/xlink"><defs /><rect fill="white" height="116.14786346304207" width="106.78783274696585" x="0" y="0" /><path d="M25.791910196092942,25 m0.0,0.0 m12.865550481109413,10.45025918205675 l0.05404646450749791,0.47067746763593016 -0.22293705029778266,0.9800526025389651 l-0.9428898620763191,1.8294032255840842 -3.0716839986018973,4.581756539649458 l-3.4898692494554093,3.6121525224926248 -4.2419249281439395,3.181626215303506 m13.816331985298174,-5.010138618488639 l-0.1018795625686102,1.7137627155754487 -1.6770751290105497,2.6394215541135644 l-2.38452076029179,3.246268054692595 -5.106889799657242,5.801465599859046 l-6.288168786904486,5.9490725422515185 m9.903115824926518,-6.975829129180353 l0.666553662073648,1.4755708841285082 -0.03842944288385348,25.951171131318404 m21.128738136707586,-52.000697894446304 l0.3368828068177777,1.1271557225790931 -0.2391639227208601,1.4783653098395344 l-3.2958918973608435,5.172927291631115 -4.04497567525141,4.409437523911574 l-3.2188133130356156,3.0148012175319314 -0.25352997821185375,0.7387956462169881 m7.204236034879902,-8.28339905057487 l1.4474766776360388,0.30220868701896364 1.7162543554389913,-0.034104833961529635 l19.88306499121696,-2.037591009658207 1.4055774432373969,0.5613165825766873 l0.4880655407238641,1.1882677917878526 -0.07049428228833324,1.7566565449708986 l-1.328768414537807,7.172839827411314 -2.054692618435619,6.5251450866893785 l-2.3451144297235964,5.158411343155108 -1.186135890627896,1.7653826201521854 l-1.3096621565477267,0.5452051916642272 -1.2727309829563518,-0.520548704273955 l-1.9371231536476168,-2.201748080396171 m-8.797446167432836,-16.225003790933837 l-0.04828609978647855,1.4357816342970005 -0.6386206136413788,1.6898838900835835 l-2.545093361601965,4.4842007340299075 -3.3920130401093975,3.9317549577164277 l-4.3741836711480335,3.563593877574923 m20.52240260891188,-15.884849733234544 l-0.07079264248199768,1.9378576561255183 -0.5688156773810601,1.8844629284692578 l-1.409629342719001,3.1023269781096 -2.024117833209956,3.471209749931685 l-2.6014810657078105,6.2916946379496475 -3.6804051660217674,7.922209953758884 l-2.2764834698100715,3.797183788661656 m-1.1953971736749176,-17.31561123060932 l3.711902005008877,1.7923724645259376 4.035539291754479,2.7696212897827843 l3.31409247586117,2.7918488600602234 1.8384606383340945,2.3248837477369295 m-21.96367370843581,15.418441926007867 l-0.28292970658580957,1.5757064406220151 -1.0823964483498316,2.892937505204891 l-1.5211098986619722,3.112592221314404 -1.3144277295902262,2.0390696297729103 m10.505272902925343,-13.674647204213676 l2.5998016188352455,4.929822060152536 2.6810281614285927,3.568132262904603 l3.1031720054469516,2.854969287428564 3.7961830505449794,2.128932179679164 l3.425539337665342,1.0688228643859758 3.3142883652960813,0.578031147355533 l4.797983985235454,0.15411144503379196 1.9641809265497328,-0.5829978147961066 l0.4157858031997935,-1.2356779930181152 -1.1662016397187207,-1.812610704824568 l-2.6741548336326475,-2.3376434174584113 m-12.730046426675294,-9.908958061637227 l1.121593845648004,2.3555274581166388 1.2617837374779735,1.2628172617398106 l0.6307383585673056,-0.08362546295010997 0.6158203722660149,-0.7794532493667563 l0.5757286429146582,-1.5260336234679244 m10.182871256786813,-2.762351847020704 l2.367622938891641,1.5630733461484136 1.7103026495697775,1.6071998430850487 l1.6460929592891271,2.2423924412537866 1.4229112095041936,2.6953566887273115 " fill="none" stroke="black" stroke-width="1" /></svg>