<?xml version="1.0" encoding="utf-8" ?>
<svg baseProfile="full" height="109.48860734933987" version="1.1" width="109.49251464568079" xmlns="http://www.w3.org/2000/svg" xmlns:ev="http://www.w3.org/2001/xml-events" xmlns:xlink="http://www.w3.org/1999/xlink"><defs /><rect fill="white" height="109.48860734933987" width="109.49251464568079" x="0" y="0" /><path d="M25.000001871958375,25 m0.0,0.0 m3.322475552558899,9.539631605148315 l0.5956042557954788,0.14300651848316193 3.86237233877182,0.03197144018486142 l13.460382223129272,-2.1237409114837646 3.251391053199768,0.129124466329813 m-14.84944224357605,3.777969181537628 l0.3830593079328537,1.0951872915029526 -0.08919754065573215,1.242123618721962 l-2.964181900024414,9.48797881603241 -3.305552303791046,7.588742971420288 l-3.666912615299225,6.247180700302124 m7.216959595680237,-10.891048908233643 l0.6516450643539429,1.0582824051380157 0.4456780478358269,2.2084854543209076 l1.5129944682121277,15.684927701950073 m-1.266385167837143,-17.626878023147583 l9.873088598251343,-2.430085837841034 1.4772215485572815,-0.2011830173432827 l0.9414169192314148,0.48480410128831863 0.4414920508861542,1.3941854238510132 l-0.05997047759592533,0.9554270654916763 -1.6304793953895569,12.463607788085938 m-9.62808072566986,2.4493926763534546 l11.547820568084717,-2.099393904209137 m18.862509727478027,-40.58993339538574 l0.6586501002311707,1.0873279720544815 0.22309530526399612,1.4181053638458252 l-0.18144380301237106,32.666993141174316 -0.4739547520875931,0.8952857553958893 l-0.6988012790679932,0.3263350948691368 -0.8494963496923447,-0.11242329142987728 l-3.899277150630951,-2.584710419178009 m-2.3168082535266876,-19.059336185455322 l-0.105268694460392,1.8667733669281006 -1.7411941289901733,4.247139990329742 l-2.769918441772461,5.37034809589386 -2.5710421800613403,3.918412923812866 m24.2096209526062,-16.752095222473145 l2.6639875769615173,1.9662116467952728 3.1891992688179016,3.207310140132904 l2.5693336129188538,3.4786292910575867 1.199922040104866,2.607946991920471 m-6.724894642829895,1.217861995100975 l-0.503833144903183,3.0931782722473145 -2.295280396938324,5.1304662227630615 l-3.5667911171913147,5.6177473068237305 -3.597545325756073,4.593294262886047 l-4.118998050689697,4.474378526210785 -4.509916603565216,4.164104163646698 l-4.771668016910553,3.6611035466194153 -4.902885854244232,2.9684531688690186 " fill="none" stroke="black" stroke-width="1" /></svg>