<?xml version="1.0" encoding="utf-8" ?>
<svg baseProfile="full" height="102.92654433750013" version="1.1" width="99.61636542499762" xmlns="http://www.w3.org/2000/svg" xmlns:ev="http://www.w3.org/2001/xml-events" xmlns:xlink="http://www.w3.org/1999/xlink"><defs /><rect fill="white" height="102.92654433750013" width="99.61636542499762" x="0" y="0" /><path d="M25,25 m0.0,0.0 m29.606238364452636,0.6337182035211351 l0.31008643436158373,0.38885817491124647 0.3542492985722121,1.4901985386654517 l-0.03942518994585399,4.589583503995039 m-18.22334465674333,2.1131225384090313 l1.7944086171647025,0.33513759038482616 2.296159640560693,-0.03209675871164525 l29.373843437733893,-2.8983703498991207 2.6164555037890946,0.256003217287826 m-34.63973085100443,3.170938586718224 l0.49536615341003515,0.8408713584202321 0.1532499841860945,1.1594284152342602 l-0.18950433474721712,6.1357095855815755 -0.6240501356811656,8.004708726264266 l-1.0616648943438027,7.105975677826929 -1.2251080377303152,5.04814758125042 l-1.2710393972749139,3.8052191868532836 -2.2660211333880063,4.746221020281908 l-2.1429882303537866,3.1978487418518595 m12.1798550474603,-32.13150222551795 l2.469757347525855,0.1972696611549295 9.5527190687776,-1.6522391671049093 l1.1207178719508553,-0.042670969268554584 m-6.605323740882965,-4.480204356360209 l0.520368702231718,0.7676710354730562 0.2209559400023559,0.9360279209301162 l0.008208480105152856,16.426486332541266 m-0.8084001289374133,-11.593742600056595 l-0.4545789999344202,1.9466584947930305 -1.7725919785736783,3.2048588128945803 l-2.4607038467652025,3.117653513515869 -2.5195899743708203,2.3993841455004308 m9.640093254598575,-8.530670494738093 l2.2584261227047966,1.6594728044273577 1.7524178763157916,2.0957795657642975 m3.3580755265318896,-8.073709597340395 l2.4262377463208726,0.21242151038161977 9.581128722426172,-1.2899199382448927 l1.7852290234896966,-0.013247299788508542 m-8.010292175097483,-4.97360308715005 l0.46677591972682064,0.8939170854731493 0.131069549020947,1.0681660133747928 l0.045173556794371364,17.187054557905917 m-0.5136730273888607,-12.900556648565376 l-0.13988389955225242,1.0990207364517335 -0.4239149616660856,1.1191363091390085 l-2.2756167762935218,3.9074873899854135 -2.326963314127082,3.1764086588898897 l-2.6379107671042723,2.845584821834201 m8.92727177619232,-10.906708699174898 l5.421406760532196,6.241000983069063 1.777882167190761,1.670314696882938 l1.4770943824160998,1.0299038009151462 m-34.02828816988885,8.130899074877307 l1.5387410194254563,0.299292656973318 1.5908459713396217,-0.011424337088913746 l14.045445335454586,-1.68560721098636 8.910226260633856,-0.803538387113528 l4.740474281358329,-0.15002956873364068 3.330318902035415,0.3031060139579428 m-24.190044475832934,4.1058321980837125 l-0.14861639360052556,0.8153440129634881 -0.6738362603152455,1.1300567167956277 l-3.4249729010567354,4.04122769677016 -4.278453458865254,3.853285788482684 l-5.224573711852846,3.834496930265222 m11.516332420240053,-8.561536537772277 l0.4624594157698053,0.7158434187921183 0.3788249943331093,1.2917877434070364 l1.3846857616907349,8.913380820992124 m-1.2367163442302338,-10.420340385777799 l16.386355484367954,-2.03079742544586 2.1530996437640018,0.04492091345632812 l0.8283226387013687,0.7643024736695425 0.10574576694121132,0.6899430120345832 l-1.4608514627166564,7.041533077514506 m-16.30023564762352,2.474364756113619 l17.33023820372961,-1.7605334483288093 " fill="none" stroke="black" stroke-width="1" /></svg>