<?xml version="1.0" encoding="utf-8" ?>
<svg baseProfile="full" height="158.02121228677476" version="1.1" width="101.63937448140135" xmlns="http://www.w3.org/2000/svg" xmlns:ev="http://www.w3.org/2001/xml-events" xmlns:xlink="http://www.w3.org/1999/xlink"><defs /><rect fill="white" height="158.02121228677476" width="101.63937448140135" x="0" y="0" /><path d="M25,25 m0.0,0.0 m5.581718112288106,11.303563332334924 l0.4267670159727717,0.15060516236022675 2.3029197911989887,-0.0418727662590865 l10.735719867013907,-1.6312040368886171 1.598703480941539,0.09489869703330858 m-8.619595629503491,3.0891710804935566 l0.07932356855805042,1.4988718029457475 -0.4102862191946456,1.6341186099748921 l-2.404759392966267,7.401664122331664 -2.519234114804714,5.858538686885089 l-3.0065834520107275,5.2539566648501275 m5.604014363356537,-8.027839315428187 l0.43929141988507475,0.8395653569421886 0.29700591948767197,1.0727698203028064 l1.2183586435217686,10.91538886635887 m-0.8307364945060938,-12.238357737259832 l8.776596838184291,-1.4389741775757687 1.2616958544125125,0.07223699803382948 l0.4092704728464558,0.2934443700726098 0.2208599156170811,0.5382077891125023 l-0.007328223943189367,0.7566279879554125 -1.6818597803638458,8.565760035623708 m-7.67781454364294,1.6885541938295978 l8.72724388848,-1.2336219099044905 m6.135246721383796,-31.242929371462093 l0.5694650674175206,0.9106407755969573 0.2205830176356143,1.0244370252828643 l0.029751750524380807,25.231101736967087 m0.41743672405475984,-25.92370882477412 l10.990860045376458,-1.7476492716050753 1.1720087400499792,0.1299463933288348 l0.7538782824776796,0.6562898519185928 0.28288495178678075,1.276525424163048 l-0.06094638644838018,24.086163253824797 m-12.999733495085765,-15.901273819236916 l12.522438382821194,-1.5592213636764656 m-12.58954357797152,9.10639358318032 l12.647602764248491,-1.3270706130188987 m-12.736550049801508,9.11133608056138 l12.893601049798413,-1.375554434722866 m-10.55438326426436,6.381408212119484 l-0.17651239264687654,1.0944389571927784 -1.2936599136525653,2.378143769516582 l-2.6962172543420158,3.696962778076756 -3.0778550325963825,3.006338059364987 m14.846318313628181,-12.513526720457897 l1.8286438083995729,3.3586558271089366 1.967865913168949,6.326348841395124 l1.30305553394031,4.171902846494428 0.7947045999023833,2.8292820072996605 l0.6825021680011928,3.387080299642138 0.5958430152076689,3.8743700659497113 l0.5194564035171073,3.9925069953686134 0.4992455402281898,3.7078406033893057 l0.5884153509757994,3.897714069094028 0.6756927435828055,3.8632941164211374 l0.7640868543958266,3.5776688062531723 1.591963132970431,5.357113592475278 l1.2045456730887334,4.852898218932496 0.584179903465132,4.7541409350301045 l0.2212080953345378,4.175266665512823 -0.04514335398732181,3.8242371996843887 l-0.3303857259660284,3.5237174575074346 -0.7098649502259115,3.3076560120653395 l-1.1022448431141918,1.9555620755897454 -0.6439764512495431,0.36869053529570994 l-0.6458017043928156,-0.03452544894014209 -1.2237919897194842,-0.9460577577543483 l-1.2955077583198682,-1.9805077014056027 " fill="none" stroke="black" stroke-width="1" /></svg>