<?xml version="1.0" encoding="utf-8" ?>
<svg baseProfile="full" height="101.94901217542079" version="1.1" width="103.61200864191895" xmlns="http://www.w3.org/2000/svg" xmlns:ev="http://www.w3.org/2001/xml-events" xmlns:xlink="http://www.w3.org/1999/xlink"><defs /><rect fill="white" height="101.94901217542079" width="103.61200864191895" x="0" y="0" /><path d="M25,25 m0.0,0.0 m29.178844506049312,6.057420730448477 l0.34733226022403174,0.34160623086946396 0.8987350519796333,1.234647954417395 l-0.03563966074847585,4.20445689677894 m-21.011884965435538,1.480881184750742 l3.2790886657634086,0.3054826541210949 33.43972891527726,-2.572047840637078 l3.656974853432571,-0.11951457234624124 2.140879194883323,0.28816879311743093 m-39.10620529631892,2.3806270061566366 l0.041654586970383344,3.365686192022738 -0.8103572064451178,8.039683877062911 l-0.9259530415794087,6.294689190787751 -1.1147700203609803,5.3293067617653564 l-1.5037184858830324,5.225613981210785 -1.4161081388183876,3.7444008217007188 l-1.7260344403618824,3.415542002915508 -2.0615938599343586,2.9323603102781637 m11.299918303358952,-33.395431855490514 l3.278887588478157,-0.06629045827279384 9.627360351210177,-1.2937971788407006 l2.364133848316404,-0.01756208483801847 m-6.828169497975199,-4.379370115633614 l0.44900410271279007,0.3075083067311723 0.3893511680910941,1.2112170900756913 l-0.1581792877888128,15.700377008520334 m-0.5048828626469134,-12.051933853218259 l-1.5953791554100363,2.860638636347813 -2.2512283844608456,3.115359593128053 l-2.5379047070437855,2.82367565277736 -2.3537438597824645,1.9460631756851043 m11.197091959740364,-8.50710871496182 l2.685411038526655,1.593797775664025 2.045976527729906,1.9514513081676144 m2.9838063981761396,-7.352499205360748 l3.581182488369453,-0.030153336134200744 11.72277058883209,-1.3567187468154545 l2.0262016685852404,0.004389994618293198 m-9.7816720292879,-4.375446670271537 l0.5254113719728171,0.2962630138625285 0.34422486503821853,0.9052958411428854 l0.10808582321730782,16.928906934770538 m-0.36622576682903796,-12.54295832309006 l-1.5816319821139515,3.004098074805072 -2.642590642381404,3.690453208282041 l-3.0411854369034317,3.2542126288169815 -2.5160158997741076,1.9308727741528926 m10.09745073254026,-11.533012824302183 l3.1510511832828167,3.071279440304504 3.504714608632237,2.9466236294511585 l2.7372692827398857,1.9246570107019358 2.3805413360720715,1.1366303292478686 m-16.159472166652467,8.51886611048871 l8.365557639593685,-0.7648366934682496 3.279800224812813,-0.19611357393480178 m-12.313676166452888,-3.559839641746783 l0.5006947479387985,0.5203571248242729 0.3959317530968135,1.0126509486833826 l0.18417127543573913,10.00882975568949 m-10.327952038186359,-9.392321042861429 l0.5702942249261597,0.35698708965494735 0.4675650471724827,0.9176546307043049 l0.24071809428134575,9.071246419875813 m-8.936591883825674,0.14639518059200088 l2.05733866099941,0.3305902773240413 28.604676856744142,-1.6999848171333372 l2.789900500518288,0.2459664715246757 " fill="none" stroke="black" stroke-width="1" /></svg>