<?xml version="1.0" encoding="utf-8" ?>
<svg baseProfile="full" height="99.70677929698338" version="1.1" width="97.55099279473153" xmlns="http://www.w3.org/2000/svg" xmlns:ev="http://www.w3.org/2001/xml-events" xmlns:xlink="http://www.w3.org/1999/xlink"><defs /><rect fill="white" height="99.70677929698338" width="97.55099279473153" x="0" y="0" /><path d="M25,26.127941771678895 m0.0,0.0 m13.996631955129317,4.2995564457667195 l0.10084013256336713,0.38462487651343785 0.05970946922750316,2.0201120881034567 l-0.892067773135637,8.543019231612172 -1.3335589587955037,8.238221392180348 l-1.2955060131391039,6.966500251402033 0.46086952174152773,1.3997441099982295 l3.06429893121314,1.8744442624024582 2.55485539936513,2.3896819400230442 l2.1891145627351456,2.889401965909584 1.5465211268764363,2.657451897214552 m-0.7657845429885677,-27.467980602963166 l0.19921989110791713,2.3644160762666506 -0.848902877760054,5.491244941107907 l-1.2325860922331364,5.022480619742757 -1.7214511058563164,5.056822672038159 l-1.7539708265551286,3.898240622260445 -2.126143945873211,2.8106712294218306 l-2.8051933636641744,2.747926545040143 -2.508085172706936,1.7466801711684938 m-1.7971701075691826,-22.140913796874035 l0.6929559774614222,0.5944499258295227 1.2381451163817752,0.04200895554766355 l15.094141903737267,-4.079698717197084 m2.986476066146538,-8.399545597575623 l2.132343149210157,0.20532821690427389 15.923315184230137,-1.7444348809337828 l2.2972387392599405,0.1722196855411801 m-20.29067151925036,19.178950363456746 l1.509563733469619,0.2508045733574161 1.7592626626160328,-0.07023361672217038 l15.280042925550955,-1.780371241852812 2.397755031635427,-0.16794990982492292 l1.4387836146001003,0.20764009355572896 m-12.299797549324246,-26.729456560100246 l0.7242277073605213,1.38918622539786 0.15587762008686973,1.2561092669005054 l-0.034119282225139255,47.06148380468502 " fill="none" stroke="black" stroke-width="1" /></svg>