<?xml version="1.0" encoding="utf-8" ?>
<svg baseProfile="full" height="106.53734164869098" version="1.1" width="89.43168144936797" xmlns="http://www.w3.org/2000/svg" xmlns:ev="http://www.w3.org/2001/xml-events" xmlns:xlink="http://www.w3.org/1999/xlink"><defs /><rect fill="white" height="106.53734164869098" width="89.43168144936797" x="0" y="0" /><path d="M25,25 m0.0,0.0 m23.27414851667937,17.110615360591193 l0.4631424574065877,0.029842672410101124 8.341429683649672,-1.4762172561535631 l2.1477495851009167,-0.2044964461217565 m-13.125772890166253,-6.921271371361084 l0.6123229309244401,0.8214867693502262 0.2754562428633456,1.0461392067679154 l0.04466521075217855,14.595152135201067 m-10.917255512859967,-10.335814521203938 l0.6720195128604648,0.7244604070476637 0.32110520546467736,1.0681495455811523 l0.22763355141511374,9.277000050116616 m-6.587076609639997,0.580912883534736 l1.5390643999469622,0.31783729387626897 2.4075946148055642,-0.25037712031397735 l23.35714370388086,-3.147620635862036 2.421816642942353,-0.11473480672082144 l2.684675065212269,0.33647356679799706 m-15.647622994191181,2.9980972600588385 l0.5669067333329297,0.9913221530207973 0.1645814091754182,1.1158941598528918 l-0.154692673807035,12.530759669707603 -0.2110198315332031,0.7708563934243059 l-0.31971459326129714,0.34770505978625477 -0.43894162825447836,0.01664878907923468 l-1.1290481771854186,-0.811965859720027 -1.2620730316675612,-1.4388025000272022 m-4.69562010111615,-8.928964304323541 l-0.06504034433136519,0.9845185928933042 -0.3040083065897762,0.6954190468339327 l-1.779392902969072,2.85216292334039 -2.721343796291927,3.1886915184288176 l-2.795513737813026,2.466618042105605 m25.02883481928093,-12.464844907897144 l2.3226744948130618,1.2459099853895679 2.208168712392833,1.6607630465019487 l1.7145268917665304,1.7421666523547858 0.7901581963792038,1.3329517658644445 m-6.8099248968625155,-0.6161371157965474 l0.066812346419119,1.0130559435847524 -0.19949793562335133,1.1528741107375182 l-1.5115909189795358,2.7070899482804833 -2.9942435592626473,3.7362503296371585 l-3.8293346791505654,3.723512881112573 -3.6026864334665962,2.9311115220371877 l-3.9658825976300687,2.759804378121534 -4.202600664114641,2.4218600419772165 l-4.307891866936839,1.954474388786542 " fill="none" stroke="black" stroke-width="1" /></svg>