<?xml version="1.0" encoding="utf-8" ?>
<svg baseProfile="full" height="101.2743885287326" version="1.1" width="113.86771677537118" xmlns="http://www.w3.org/2000/svg" xmlns:ev="http://www.w3.org/2001/xml-events" xmlns:xlink="http://www.w3.org/1999/xlink"><defs /><rect fill="white" height="101.2743885287326" width="113.86771677537118" x="0" y="0" /><path d="M25,25 m0.0,0.0 m6.403197135741161,6.24202081083247 l0.4638723705796154,0.1410597452232938 2.673444748295505,0.055194054543576856 l9.82048205094524,-1.7633721805567828 0.936965428832961,0.037187970935192646 l0.8475445590843292,0.3026788216757877 0.3352494084204661,1.097743541905924 l-0.2252127536199663,0.8618583244220136 -6.0736331980232805,9.396294408380545 m-0.017356509533008803,0.36612699021193607 l2.401980760725225,1.9255138102996494 1.7092209181041575,2.4797806748403826 l1.3659639958069048,2.75735478782309 0.7514379580067595,3.233924507504416 l-0.14832006520275226,3.5526602223959256 -1.020121592458448,2.4848410788612165 l-0.8285648756867321,0.721065307546236 -1.0133097291109425,0.3007069507521355 l-1.1985180690623254,-0.17971766260620514 m-7.777525691563186,-26.981633103650523 l0.5537846010249163,0.9659974269711294 0.12780540236060361,1.184586840170366 l-0.006101294426954478,42.09251520025083 m30.83419050676439,-47.1352593155109 l-0.2038252561609076,1.6233011566611772 -1.36803860965609,2.79221841115664 l-1.872240919094163,2.935531484332048 -2.2003973055998785,2.658320539259225 l-4.754017797343062,4.421693244362118 -5.948230627884212,4.117679013201562 m16.747405946743466,-15.733064958745778 l17.15040990960025,11.425125038295382 5.400175368761127,2.380962075782719 m-29.877640197209207,-1.1687737775201275 l2.606347557427878,0.11871832779578043 10.313959229883919,-1.154859078474198 l3.1808215751859534,0.05555104802007369 m-20.009477815225694,7.495482393590243 l0.6228486100708247,0.856128167164773 1.8946322577477182,8.466383134889142 l0.6966789188206458,5.524444513736944 m-2.16029647459599,-14.021070521281297 l23.514649869316248,-1.8176748727698004 1.4774810792226374,0.25440895967252275 l0.7439517503510509,0.3445488718831867 0.4103659770132927,0.8435800123546091 l-2.549396720793185,11.988504129453808 m-12.436854811244485,-11.95829890876784 l0.589493103462955,1.123865858656052 0.05903620009277189,9.925870312197175 m-9.974443822668066,-9.756053152349477 l9.070385743327606,2.5351238251733146 2.1896726111427838,1.4531395963349998 m12.191823566923707,3.8840690831703664 " fill="none" stroke="black" stroke-width="1" /></svg>