<?xml version="1.0" encoding="utf-8" ?>
<svg baseProfile="full" height="108.11365249573129" version="1.1" width="105.67251778603591" xmlns="http://www.w3.org/2000/svg" xmlns:ev="http://www.w3.org/2001/xml-events" xmlns:xlink="http://www.w3.org/1999/xlink"><defs /><rect fill="white" height="108.11365249573129" width="105.67251778603591" x="0" y="0" /><path d="M25,25 m0.0,0.0 m9.357190576548684,19.291068128387476 l0.3813913318567209,0.119200033313446 2.3229953877446174,0.02375146136674029 l14.668648879685042,-2.5276298737188396 1.6597916107881112,-0.03313415061306887 m-9.169642306862052,-14.242572751206453 l0.8997586123563237,1.3030913562625357 0.49470480483665763,2.0538303455968876 l-0.1451737084728795,48.26926580841093 -0.18170201895157911,2.3309181849255705 l-0.4254340186977544,1.2218566951396377 -0.6119298433058815,0.30400725786642835 l-0.7167637046048272,-0.38881484403468697 -0.7026194615293637,-2.6260286205168493 m2.5694158264672162,-35.49699552799012 l-2.307521646268217,6.914479950511678 -2.8438853481118724,6.688975158718478 l-3.0118319766458335,5.119888944383654 -3.554092444481876,4.843682593904197 m13.620604715996715,-17.621845141419822 l3.1674108441653814,3.032415209688038 3.7523729592407316,4.95773607916102 m8.349289245487128,-29.504961175137247 l0.633627015011046,1.7694505435880503 0.17253701436811458,1.4045481989719313 l-0.28009681497679173,35.87321889498869 0.1269550064627787,2.526670121122406 l0.37197085967738297,2.89349409916818 0.5842429200645619,2.6193641565065944 l1.2658149590016488,2.995681434430489 1.9123979979897894,1.2306306528303226 l2.8055912916505914,0.3208623874746396 6.001090380843218,-0.22618780641790667 l2.127753940041846,-0.734657200482467 1.856720625484059,-1.4601238783697097 l0.5187109949622017,-1.710679225086756 0.0022232782142586776,-3.1075112494932875 " fill="none" stroke="black" stroke-width="1" /></svg>