<?xml version="1.0" encoding="utf-8" ?>
<svg baseProfile="full" height="120.50708030555336" version="1.1" width="103.29023033327914" xmlns="http://www.w3.org/2000/svg" xmlns:ev="http://www.w3.org/2001/xml-events" xmlns:xlink="http://www.w3.org/1999/xlink"><defs /><rect fill="white" height="120.50708030555336" width="103.29023033327914" x="0" y="0" /><path d="M25,26.309198272098765 m0.0,0.0 m8.185076108801098,14.951733244494271 l0.3462895988979524,0.1328314145984287 2.1725131865487888,0.04672224876998616 l15.256342741852556,-2.29150622288653 1.375181392303199,0.012301405048925919 m-8.881793589915633,-14.161280362123847 l0.9959871034906833,1.2724006851245895 0.5113838408354149,1.943025066740796 l-0.173860917979493,49.54667153549616 -0.22595754777454824,2.607012429507526 l-0.45331240221756974,1.3065013392454052 -0.6486949103795908,0.29942317846058886 l-0.7436407641193417,-0.4251782375513488 -1.9223660876532438,-2.6939494823906944 m3.5632265430310763,-36.85035348003474 l-2.4984568838910715,7.291440935426647 -2.814167317390115,7.219610344879455 l-2.8788350615825546,5.776836911388556 -3.24332144370204,5.319771656027326 m13.105432640436149,-19.19649446459531 l2.815078898910414,3.2175346897071897 3.3843120126066086,5.169092617081388 m9.309439245594344,-30.399820832820463 l0.5769997787837967,1.830563458985322 0.17491703321272112,1.443316191262351 l-0.26324067738123635,36.72052211437249 0.10976666377718501,2.468009592067541 l0.2597470357111371,3.752615499267661 0.5259541698075776,3.2566963923783665 l0.6706762106347586,3.233929261508459 0.7735966964911968,3.5981314312254535 l0.8278748468986019,3.7149934324152523 0.8945955893846474,3.3466905755708947 l1.0406433049765853,2.7209974903871803 1.2510279457503197,2.1322851347546536 l2.0435971788045286,0.8848048396646553 4.880864417265528,-0.09475672340381672 l1.9175227016449454,-0.8002803264853254 0.9249751231893368,-1.6762798737773525 l0.14485592762442515,-2.8205490905961708 " fill="none" stroke="black" stroke-width="1" /></svg>