<?xml version="1.0" encoding="utf-8" ?>
<svg baseProfile="full" height="114.78603664671621" version="1.1" width="110.86333512138651" xmlns="http://www.w3.org/2000/svg" xmlns:ev="http://www.w3.org/2001/xml-events" xmlns:xlink="http://www.w3.org/1999/xlink"><defs /><rect fill="white" height="114.78603664671621" width="110.86333512138651" x="0" y="0" /><path d="M25,25 m0.0,0.0 m7.430265566937196,21.22823081031765 l0.34262222386511276,0.10807750206222211 1.9323458090878713,0.04310583944585994 l15.320535504119427,-2.0392029142423147 1.0989577117590328,0.08516950449926346 m-8.805526410793412,-13.392116101686648 l0.9523153165575283,1.394139135233529 0.26942609993200567,1.519487876701725 l-0.18923063891132147,47.90778094768396 -0.17866356159754837,2.5119986054047128 l-0.43969404461081063,1.2290139856994002 -0.6507429060340405,0.26545768939205155 l-0.7573681504032151,-0.4058620735352468 -1.909781518543986,-2.333381033013734 m3.6682303315964573,-35.03587289833284 l-3.0066488624241607,7.751057310527335 -2.3655758719103783,5.341729067486234 l-2.683764171845082,5.156448580198845 -4.0509684636851535,6.74715841270853 m13.761169796086628,-19.887544532133482 l2.482188555061576,2.815937400403524 2.7282720184931084,4.427184067459802 m25.485407673472533,-30.417392516094345 l-0.12246834509095025,0.8444900444580394 -1.0372829373058117,0.9508036777003865 l-4.715032588818353,2.532305943480689 -6.540818716358455,2.3286224612172526 l-6.9918298456300985,1.8765485467938374 m-1.509789572407685,6.415420086825164 l2.492960335656794,0.18314140085526445 2.1611709384798203,-0.17917774774443881 l18.069709810345376,-2.5473569225730195 2.2780642228909365,-0.10943223483665458 l1.6252920331523673,0.2751181303807947 m-14.819704929486468,-4.782975494826665 l0.36771417453236155,0.5354772709674158 0.12362630004729476,0.8229005993285173 l-2.2325422709290166,5.229898529189337 -2.1380450574418517,4.199113087760404 l-3.666339443097418,5.213308265518186 -4.133735744595538,3.9403037079809327 m15.572819283249991,-14.18037574634361 l11.190811931702548,9.913881413941489 2.4874234465208716,1.8143978615670864 l1.9675600897604346,0.7913963232620281 m-25.851239151624377,-2.732882305746002 l0.4825065296715379,0.3736958536247504 1.5240937582014296,8.977370594293296 m-0.8575243565155435,-8.115421826248214 l13.080245983405716,-2.5352511831964684 0.6126603300731617,0.04929003663838036 l0.5652333608105157,0.31336239239638913 0.5275291620095813,0.8589639172042314 l-1.3607420548633267,6.761058766185404 m-12.61832639413873,1.7915133493578967 l13.585985113844611,-1.716396613990592 m-21.5666259186201,7.26320593877922 l0.9126260048605251,1.7013867338145154 1.9571251687993774,20.70772712251492 m-2.1505346935696723,-21.025378531431073 l27.7485610414315,-3.360224213030543 1.2433490679280133,0.404394856620739 l0.40595843468001586,0.5086542338926993 0.3264998662794245,1.907975481950666 l-2.99491719567247,19.409433291793412 -1.133644745812543,1.438331170949582 l-1.2557129137555134,-0.699981976439009 -1.2981153456234842,-1.2940153101055445 m-15.199439538036652,-13.3599636236328 l0.4923231229397052,0.3897638597486243 1.5901936082988948,9.006446676513985 m-0.8620654124484273,-8.72501946475755 l11.260523671909167,-1.8807376172035766 0.5645550381895683,0.33153200126148874 l0.25085720740369477,1.5078411168400818 -1.3635227481332652,6.081901199697426 m-9.934802302554923,1.37376954457981 l10.875732025032795,-1.5379649949914365 " fill="none" stroke="black" stroke-width="1" /></svg>