<?xml version="1.0" encoding="utf-8" ?>
<svg baseProfile="full" height="103.69474089761484" version="1.1" width="109.19709911346456" xmlns="http://www.w3.org/2000/svg" xmlns:ev="http://www.w3.org/2001/xml-events" xmlns:xlink="http://www.w3.org/1999/xlink"><defs /><rect fill="white" height="103.69474089761484" width="109.19709911346456" x="0" y="0" /><path d="M25,25 m0.0,0.0 m12.285651624607931,2.8064966735568864 l0.494284344543655,0.27773665311705564 3.0606230935804035,2.175256125373298 l2.6844834165823843,2.855766769612366 m-14.952218595414676,9.017486988468262 l1.5544257529106387,0.40192525475506374 1.195320389674993,-0.06022057131709642 l13.673237587992988,-3.079698317805517 0.9219119304314889,0.1521129930400331 l0.562631057856082,0.4209896452171735 0.23047045763459056,0.6258929368601651 l-0.2221511969199261,0.7731788793232149 -1.8283285060234682,2.4460096181747004 l-5.231027019434717,6.183737944279171 -5.268450978963371,5.643934329542377 l-4.797341106935248,4.468204884679922 m9.73138665906513,-8.21273042507304 l0.9623025511488699,1.3348100028466858 0.24148261080013433,2.113619760559611 l-0.02486107655396726,23.350230752404503 m2.050428929100426,-28.039130513382293 l3.8913648740767646,3.0096680597584133 3.242581674265609,3.5124642964268387 m4.468034280144987,-7.299081305415578 l3.1909126696403938,0.16198970062162574 16.72773992543808,-1.6863463718016873 l4.384697953175942,0.027270241324358156 m-13.625456245680143,-20.542669048266546 l0.8877369317974898,1.5303248126674007 0.28558629758125054,1.9511702640858064 l0.06630197882297256,41.86677749348818 m-19.369002063623405,1.9133534892013433 l4.219148138909813,0.38412675423961334 27.487164604406207,-1.9122122960261763 l3.291728866284389,-0.05385471013994585 2.7242973025398807,0.4202042345570713 " fill="none" stroke="black" stroke-width="1" /></svg>