<?xml version="1.0" encoding="utf-8" ?>
<svg baseProfile="full" height="109.49251216685306" version="1.1" width="108.35089092841372" xmlns="http://www.w3.org/2000/svg" xmlns:ev="http://www.w3.org/2001/xml-events" xmlns:xlink="http://www.w3.org/1999/xlink"><defs /><rect fill="white" height="109.49251216685306" width="108.35089092841372" x="0" y="0" /><path d="M25,25 m0.0,0.0 m11.449172496795654,5.902629940379711e-08 l0.09988117963075638,0.6970047205686569 -0.14240730553865433,1.3521820306777954 l-0.503913164138794,1.2443680316209793 -2.512354254722595,3.905101716518402 l-3.396681249141693,4.120368957519531 -3.698488473892212,3.4504079818725586 m12.554018497467041,-11.815546751022339 l2.469985783100128,-0.1665775664150715 6.975095868110657,-1.7692850530147552 l1.778389811515808,-0.1587461680173874 0.8827044069766998,0.23437822237610817 l0.514189787209034,0.5062569677829742 0.14864987693727016,0.7521737366914749 l-1.2962917983531952,3.514952063560486 -2.0289941132068634,3.724810779094696 l-2.654964327812195,3.96207332611084 -6.011621356010437,7.038558125495911 l-6.372202634811401,5.598394274711609 -3.5546162724494934,2.4735915660858154 l-3.773849606513977,2.1685394644737244 m9.60013210773468,-21.50798797607422 l3.71092826128006,2.3290884494781494 2.3809221386909485,2.190534919500351 m-12.461709976196289,1.6687729954719543 l3.905462324619293,3.0696332454681396 2.460069954395294,2.6535221934318542 m21.79645299911499,-17.723320722579956 l1.9680558145046234,0.45884042978286743 1.7243024706840515,-0.08953697979450226 l11.172268390655518,-2.4251383543014526 0.9028969705104828,0.12196681462228298 l0.5960418283939362,0.40637578815221786 0.2826962061226368,0.6432780623435974 l-0.03695964114740491,0.8329441398382187 -0.5951403826475143,1.412038654088974 l-3.2780498266220093,4.901389479637146 -3.5950011014938354,4.1650813817977905 l-3.4179556369781494,3.050522804260254 m-8.677042722702026,-6.461626887321472 l2.7094122767448425,0.9117312729358673 3.963155448436737,2.3015940189361572 l15.35718321800232,10.780496597290039 3.8831061124801636,2.0572999119758606 l3.073960542678833,1.1178037524223328 m-41.10056400299072,0.05909035447984934 l3.204851746559143,0.2215494029223919 14.66558575630188,-1.4277690649032593 l4.799344837665558,0.1205949205905199 m-34.40816640853882,12.09247350692749 l5.551518201828003,0.5323991179466248 28.772270679473877,-1.9401559233665466 l8.746995329856873,-0.21234892308712006 3.8221678137779236,0.49025610089302063 m-24.277257919311523,2.4216680228710175 l0.7775948196649551,1.1776604503393173 0.3493136912584305,1.4751404523849487 l-0.13922967948019505,15.520524978637695 -0.5379881709814072,1.0262160003185272 l-0.7759721577167511,0.23690229281783104 -1.8721410632133484,-1.0348699986934662 l-2.1277935802936554,-2.1025529503822327 m-8.509731888771057,-10.55783748626709 l-0.3840196877717972,2.0008687674999237 -2.999500334262848,3.4125468134880066 l-4.654751420021057,3.843802809715271 -5.711977481842041,3.614112138748169 m39.000537395477295,-13.280951976776123 l2.9798486828804016,1.8569967150688171 3.716517388820648,3.1395864486694336 l2.6596519351005554,2.8915059566497803 1.7581972479820251,2.7011188864707947 " fill="none" stroke="black" stroke-width="1" /></svg>