<?xml version="1.0" encoding="utf-8" ?>
<svg baseProfile="full" height="107.66376409679651" version="1.1" width="109.49251451995224" xmlns="http://www.w3.org/2000/svg" xmlns:ev="http://www.w3.org/2001/xml-events" xmlns:xlink="http://www.w3.org/1999/xlink"><defs /><rect fill="white" height="107.66376409679651" width="109.49251451995224" x="0" y="0" /><path d="M25,25 m0.0,0.0 m21.53228759765625,3.872957229614258 l0.07031918503344059,0.4476303979754448 -0.16643742099404335,0.4784552752971649 l-1.5393996238708496,1.333174705505371 -3.7217652797698975,2.42276594042778 l-5.25965690612793,2.6658466458320618 -5.852030515670776,2.4301372468471527 m-5.063316226005554,10.346426963806152 l1.6055725514888763,0.3499625250697136 1.9329190254211426,-0.09232534095644951 l21.075148582458496,-2.2475753724575043 m-10.571582317352295,-10.651994943618774 l0.8003309369087219,2.7161046862602234 -0.052365073934197426,40.231451988220215 l-0.19433055073022842,2.0599040389060974 -0.513300709426403,1.042684018611908 l-0.7277344167232513,0.258158091455698 -1.6806241869926453,-0.9071552008390427 l-1.2829168140888214,-1.2530970573425293 m4.406613111495972,-31.07144832611084 l-2.9157960414886475,6.652136445045471 -3.3840322494506836,6.0597628355026245 l-3.55557918548584,4.987929165363312 -3.477512001991272,3.765321969985962 m15.610774755477905,-15.953869819641113 l2.2803686559200287,1.6876605153083801 3.0375877022743225,3.4590840339660645 m14.763761758804321,-31.650419235229492 l0.04535776097327471,1.711784154176712 -0.658629834651947,2.2766830027103424 l-1.6342194378376007,4.1141122579574585 -2.3512323200702667,4.7992947697639465 l-4.190169274806976,6.632032990455627 -4.599268436431885,5.1976728439331055 m7.531984448432922,-9.563744068145752 l8.121007680892944,-0.6013044342398643 13.537468910217285,-2.333558201789856 l1.6203148663043976,-0.08226066827774048 1.5013711154460907,0.2586187981069088 m-15.074690580368042,3.7525898218154907 l0.6377728283405304,2.223074585199356 0.1419262308627367,3.822281062602997 l-0.3850121796131134,29.929420948028564 -0.4861614480614662,0.9689723700284958 l-0.7029405236244202,0.22733325138688087 -1.7040780186653137,-0.9676321595907211 l-1.9831769168376923,-1.9962438941001892 m-4.076921045780182,-22.75141716003418 l-0.048022475093603134,1.6812944412231445 -0.4420182481408119,1.8293876945972443 l-2.1888992190361023,5.423498153686523 -2.6700347661972046,4.642825126647949 l-3.3381298184394836,4.1821277141571045 m27.66195058822632,-17.808719873428345 l2.4545960128307343,3.28988254070282 2.5541067123413086,4.640145003795624 l2.0828549563884735,4.884063005447388 0.9781026095151901,3.5438525676727295 " fill="none" stroke="black" stroke-width="1" /></svg>