<?xml version="1.0" encoding="utf-8" ?>
<svg baseProfile="full" height="114.12220534975438" version="1.1" width="97.69507889776739" xmlns="http://www.w3.org/2000/svg" xmlns:ev="http://www.w3.org/2001/xml-events" xmlns:xlink="http://www.w3.org/1999/xlink"><defs /><rect fill="white" height="114.12220534975438" width="97.69507889776739" x="0" y="0" /><path d="M25,25 m0.0,0.0 m20.242373488386047,19.61713254843549 l0.3132363710492907,0.32204101154924325 0.42292888506425236,0.677167150126069 l0.12430559645118022,0.8340214800470594 -0.06955862206917252,16.388031299523522 m0.2794144378230693,-8.618449856873305 l4.63631366834279,-1.2597611203644983 2.212088280717244,-0.20498401230250365 m-14.016840649404465,0.5930983058612801 l0.5085285667467828,0.6930941657242959 0.19357340583008062,0.8095148696236688 l0.039342830409897396,9.759798381012645 m-2.4489193627633257,0.5603949647465453 l0.7774803186833699,0.31490531671380273 1.667816794966472,-0.16374446525362257 l13.875148625280326,-5.717679009983598 m14.63247777993464,-14.252332449728906 l-0.2364152769970168,0.8920984284240281 -2.114705690748368,2.0033881899870227 l-2.6167283096782654,1.909060941812655 -3.214865964466113,1.7685168432366167 m-1.3328451898017684,-10.199710573722014 l0.428723451198985,0.7187319162491753 0.15899421048911166,0.8311001499152152 l0.05382561992056282,13.027453073905574 0.20609507923676917,1.2194490232590471 l0.4249846103115361,0.7918322657433153 0.9803835409458886,0.6128405758369081 l1.8839257274104289,0.3531176998799179 3.531905947069301,-0.12278984521149479 l2.149668005539315,-0.4028161047189853 0.8272188127644449,-0.391067551111811 l0.7347467626136309,-0.8203879232988882 0.3231907592663628,-0.7467116424064729 l0.1929815715901895,-1.385413802806838 m-25.151944043713375,8.598596043332533 l2.809465472783684,0.13833882372196668 8.740172829060947,-1.0110207393246442 l8.342746978640658,-0.6473068972918774 2.0937792520692997,0.2440560100788241 l1.8141374042163485,0.3410187240053848 m-16.659486035386024,2.5526867389400834 l-0.09028070195948205,1.1824738710600018 -0.659545223423278,1.3179519767059606 l-3.123070024209924,2.208367573284875 -5.262615100073516,2.4667594621467295 l-6.281993117889382,2.186286064839819 m12.851088379559663,-4.7441036471774565 l2.368631860969569,1.470362673572932 1.6926831162140348,1.6054359750099951 l1.4320933417419668,1.8680211172036338 1.6910944577049059,1.9184268433177927 m10.21434664789067,-10.092163705503848 l0.005776791107695097,0.7588360833908826 -0.31667847167269936,0.8757912461445128 l-1.8530370777058565,3.001607632791549 -2.1348814626474812,2.4942734646193783 l-2.7935823269600077,2.3346148079657167 m-5.36371860819625,-5.077136079462849 l0.46699814968192754,0.7628409863630521 0.12717840793858493,0.7589206426675404 l-0.014288181133031675,11.820568292411684 0.23311555887443872,1.5762506337124453 l0.49034867146906974,0.9585236951228662 0.877720956793775,1.0119699535134536 l1.731136068983961,0.6099284222971125 8.41256151663524,0.22008841646417718 l2.909598566989511,-0.4312890625922643 1.116012979258295,-0.5306467391333598 l0.7161380276533699,-0.7645664466244148 0.36364865626856796,-1.070106381367478 l0.12893109811804923,-1.972315587986953 " fill="none" stroke="black" stroke-width="1" /></svg>