<?xml version="1.0" encoding="utf-8" ?>
<svg baseProfile="full" height="107.41276175018274" version="1.1" width="119.28470280561346" xmlns="http://www.w3.org/2000/svg" xmlns:ev="http://www.w3.org/2001/xml-events" xmlns:xlink="http://www.w3.org/1999/xlink"><defs /><rect fill="white" height="107.41276175018274" width="119.28470280561346" x="0" y="0" /><path d="M25,25 m0.0,0.0 m21.841690116508683,19.480019647603676 l-0.021220488147874497,0.35616911842397236 -0.3688390865074048,0.5439847742924189 l-1.4377272083475456,0.8529211934288333 -4.257068169197907,1.9390897695611242 l-5.3159332136303,1.6947111972901912 -6.226746561717179,1.4445711061181605 m-2.4799652564233,6.150659361654226 l1.8085535077926187,0.24306739856985796 1.6228182985017643,-0.07775857211414232 l19.240953030979693,-2.376130417950689 2.9377864049761215,0.024664224248549724 m-10.442733601732002,-5.361201412195404 l0.8966049455609245,1.1697113446750114 0.19747575518290256,0.8975383800210097 l-0.06824426044270944,27.995484863046247 -0.29141100210926435,1.52998635754177 l-0.5642156710886419,0.7465971413898188 -0.7715297362563602,0.15867627457810135 l-0.8511622692567264,-0.282715854356477 -0.8765822754187941,-0.5578090516838543 l-1.777460854728792,-1.5809336096011721 m5.291628123672803,-21.702722603165913 l-3.1514365069193992,4.7586283015261355 -3.7151462302662157,4.441300253809435 l-3.86931904701085,3.608886305434356 -3.7938017123830514,2.72733157596965 m16.058125888516336,-12.399005956156252 l2.8483936724238235,1.5996001325423548 3.430525248785532,2.9699920851525796 m12.790507965979483,-17.499753863468435 l1.2030686623920124,1.663960207396461 0.17739705233256067,1.048412874318227 l-2.562995642580746,12.6786119948482 -2.0192591041012355,4.776975787439694 l-2.6165237726715844,3.956051142185112 -2.581703720948694,2.8462470932727 l-2.9306041683480966,2.403222769310418 m12.350315165681112,-31.978306203241768 l1.596386904033178,0.4857221586630792 1.2497537883955274,0.04341330914546392 l7.506129385208904,-0.9119479275711334 6.368737606076971,-1.0061758734417425 l0.9025217578775526,0.5559295212248341 0.2345919453332279,0.5107484983547439 l0.00793601491513853,15.238834936443238 0.5080616078394679,5.898509098371931 l0.7990487668574272,1.431258731972214 1.5777070644271562,0.7669347810134177 l2.9320287439212454,0.30415140788222267 3.190110711579973,-0.18789710102552323 l1.2761291804319892,-0.40549428597609377 1.0090871887499346,-0.9079858820927784 l0.42225786091409273,-3.027517071687368 -0.015625949770251144,-1.9559400649067955 " fill="none" stroke="black" stroke-width="1" /></svg>