<?xml version="1.0" encoding="utf-8" ?>
<svg baseProfile="full" height="134.01819857148337" version="1.1" width="95.17216575812347" xmlns="http://www.w3.org/2000/svg" xmlns:ev="http://www.w3.org/2001/xml-events" xmlns:xlink="http://www.w3.org/1999/xlink"><defs /><rect fill="white" height="134.01819857148337" width="95.17216575812347" x="0" y="0" /><path d="M25,25 m0.0,0.0 m9.66629942566143,4.921546022632297 l0.45006541791864724,0.3572978358409793 3.014178498389514,2.8546168989935814 l2.644156426741693,3.6281033262472597 m-12.62420337908357,9.747043979798487 l1.3704440588875584,0.48263118248856957 1.6068656947447704,-0.108530912460896 l12.120788444274089,-3.582211273574659 0.6670963614917093,0.24898793803027486 l0.41803618285394306,0.5447164813132798 0.12730239096093054,0.7792698513578276 l-0.2593884901021488,0.8743983724200761 -2.115860167833537,3.4075426952133117 l-5.034974762862517,7.2763600090344 -4.797420098446427,6.420977429513577 l-4.579861171073157,5.523019134007383 m10.485791367558658,-11.879636089879003 l0.5954649058075774,1.479493490027045 0.1324464433463434,1.528304670189093 l0.02215335304345906,26.695064023016066 m0.8276594663973393,-31.436132153106126 l3.404628272374639,3.433430708736259 2.9376930649121067,4.261862993224663 m3.8527503215181116,-24.481298022621935 l1.4208583864335722,0.1780551136062671 1.6923961370710519,-0.11805544570837742 l11.511403558396724,-2.294793030002672 1.1337659125115078,0.3746230760142292 l0.5101124727243976,1.1446749047844755 -0.06464620670196984,0.8858245471418968 l-1.7407843364865274,13.694700045556454 m-12.293167075706494,2.5812249352778474 l13.145141259548742,-1.799618467894361 m-13.54480177103117,0.7636021441849796 l0.495048451831918,1.731640928214438 -0.03587993102757089,1.500105677486892 l-2.4670489009279377,14.300318908309317 0.154409781443586,1.2037613421031568 l0.38227124170148935,0.48437073385952834 0.8706804174379682,0.13444779166676918 l16.751762792441724,-2.903597959634563 1.1543769999410531,0.13407292101251853 l0.8639101287467202,0.8153454700049848 0.3002444122935348,2.3657206210084065 l-0.9814569918283167,10.329620526261337 -1.3179111544845992,9.13285143583003 l-1.5179249019732635,6.703846091866037 -1.523766075764122,5.620912568842924 l-1.0100988411708784,2.5395318163601988 -0.5553878400320287,0.9183315486033512 l-0.5522715833201836,0.5237665511883751 -1.0778493328633534,0.09605518509710935 l-0.568688525914389,-0.9906869055111828 -1.060952974528257,-2.675539237556629 " fill="none" stroke="black" stroke-width="1" /></svg>