<?xml version="1.0" encoding="utf-8" ?>
<svg baseProfile="full" height="103.6575605458824" version="1.1" width="106.67974615701795" xmlns="http://www.w3.org/2000/svg" xmlns:ev="http://www.w3.org/2001/xml-events" xmlns:xlink="http://www.w3.org/1999/xlink"><defs /><rect fill="white" height="103.6575605458824" width="106.67974615701795" x="0" y="0" /><path d="M25,25 m0.0,0.0 m11.31666986983832,4.3988367104111985 l0.4675957750872856,0.2867347658033366 2.8094536571958244,2.2588033876768883 l2.546133430872685,2.954329471486826 m-14.322895960458006,8.636840272058947 l1.5178181229992371,0.42796809955064175 1.1816964210738978,-0.06648215493446835 l13.332362490812672,-3.152134642805237 0.8322527534936625,0.1762425705887834 l0.535322684636525,0.4427350568576614 0.1989582390102667,0.6224206835288711 l-0.22270622949980157,0.7601625277396413 -1.796820153741047,2.1975455046200043 l-5.192151308057223,5.724411493560116 -5.340574221457103,5.529601887073464 l-4.778761432119354,4.400747656234428 m9.506799866381773,-7.962550925912471 l0.9011678703680777,1.270650442311474 0.23242574030243884,2.053093453254981 l-0.031736212600876,22.69760428677732 m2.0148271174203245,-27.722946815963418 l3.8469051268110226,2.8974884506814447 3.2092552339153437,3.388941748793656 m4.178735134359573,-7.175402760850491 l3.1867527521920667,0.15426022858479796 16.375359998097785,-1.6444648854049198 l4.137006623373309,-0.005795889401794584 m-13.28516528675624,-20.10047473718334 l0.854147322872499,1.5131869353245366 0.2634263344271134,1.8899035646593534 l0.05950154359153139,40.76300508723943 m-18.9391140707321,1.8640569949283152 l4.192595077603575,0.3799629318282513 27.018494114258587,-1.988864151394573 l3.2446856193267415,-0.046951666850388825 2.62932211211755,0.4271779375571139 " fill="none" stroke="black" stroke-width="1" /></svg>