<?xml version="1.0" encoding="utf-8" ?>
<svg baseProfile="full" height="97.64670507415411" version="1.1" width="113.12277694770141" xmlns="http://www.w3.org/2000/svg" xmlns:ev="http://www.w3.org/2001/xml-events" xmlns:xlink="http://www.w3.org/1999/xlink"><defs /><rect fill="white" height="97.64670507415411" width="113.12277694770141" x="0" y="0" /><path d="M25,25 m0.0,0.0 m6.356054484663318,17.387009682290106 l0.523147924622779,0.32838688165688307 0.678848429356081,1.2990543158330095 l0.01992147586106416,20.821330343700357 m0.523302910590856,-21.6886117024872 l9.193850202445825,-1.3893434091584638 0.6644289086908994,0.04345400531528451 l0.941595028934239,0.5478790030124898 0.17835558770749793,1.1682767662568452 l-0.07379459471860132,20.370434770531123 m-10.693029386886904,-11.815593818010898 l9.562653297924436,-1.161208756854342 m-9.558974566914047,11.75904453816352 l9.656368457756821,-1.014893787464364 m7.231483235911957,-19.361003492451346 l2.718257811062269,0.2547892207050892 18.604424460748614,-1.7927939941510707 l3.2786753708468286,-0.1103776984106214 m-13.167154321607477,-5.958558773389837 l0.7314426013404481,1.0192233784402875 0.1746206983761445,0.9420654934587445 l-0.05340297436505836,11.278459208534374 m-15.791534364759595,5.479250575542398 l1.3491048550912899,0.2027489948169163 1.8631435784284849,-0.018011093614829794 l26.16924600890372,-2.380229312482245 2.272505834404656,0.012840227025445438 l1.807909619302958,0.21808733633364388 m-9.431245095268057,-3.4924842793325084 l0.14691129547254916,1.009401932634927 -0.2963923529098288,0.8953697517898875 l-2.595558749479369,4.309226056471119 -2.765151289501339,3.914447434664846 l-3.4296582166296417,3.861905552715035 -3.174035698336484,2.9390858271603446 l-3.657499892052686,2.9086076065120974 -4.11115595970241,2.721208285577198 l-4.8081724435284166,2.138228002819864 m8.790333396090212,-18.18044011536592 l1.3928183701624337,0.5487191208826817 2.340716149398139,0.6824648014493186 l15.393476351291122,7.566636505918054 6.076750497963522,2.8227611036887756 l4.129537803931154,0.9278338240879405 3.959652207080989,0.5142998328187288 " fill="none" stroke="black" stroke-width="1" /></svg>