<?xml version="1.0" encoding="utf-8" ?>
<svg baseProfile="full" height="103.72745499085298" version="1.1" width="105.26352743090763" xmlns="http://www.w3.org/2000/svg" xmlns:ev="http://www.w3.org/2001/xml-events" xmlns:xlink="http://www.w3.org/1999/xlink"><defs /><rect fill="white" height="103.72745499085298" width="105.26352743090763" x="0" y="0" /><path d="M25.579112781177198,25 m0.0,0.0 m17.874860358151214,4.996444552220474 l0.009790027028397066,0.3884624382422631 -0.37472390294252256,0.9723554778671271 l-1.1144320764645037,1.130024522852013 -4.243044943299021,2.714220501770237 l-5.2577530727424735,2.4084715203713647 -5.8232960483135185,1.9188114694158158 m-1.6505131225947693,8.034897546263306 l3.029711267749595,0.17784043701062832 18.678677236724607,-2.0318531817288426 l3.09441220197769,0.010135965869150474 m-11.26139490631192,-8.218447654606159 l0.7913562261903747,0.8533583773004861 0.2882515717096511,0.9742883747435371 l-0.15380780731812016,37.072110134607755 -0.37068510930983956,1.6264360108035327 l-0.6390139184619279,0.6998984978502993 -0.8223803544767739,-0.0270527489744682 l-0.9016894260934111,-0.46056364426827645 -2.038445822860544,-1.9787310189896015 m4.332278054074467,-28.473288045452882 l-3.129361346092988,5.777589585299845 -3.525122540298321,5.4313570556407536 l-3.646501471203555,4.447946374212809 -3.599138844736863,3.3352501961918115 m15.709002409915126,-15.434884992210462 l2.69222924970284,2.165233502237095 3.139600732807485,3.8595063557226466 m6.335622273017394,-20.48974860903837 l1.28914909247721,0.5237481305585896 1.5215190269314833,0.12959418930430658 l22.508239883781986,-2.5771316014889503 1.3100567268172805,0.4314188255133304 l0.6041938058009018,1.0065221773199897 0.026769218393811817,1.2854135623302603 l-1.4764101724371053,11.560727069234348 -1.6668891359338174,8.54408960530875 l-2.139805002726741,7.248983816798751 -1.7805574003691664,3.79052385795816 l-1.3641446692891923,1.9778371164362156 -0.7067090299235681,0.6178950196393141 l-0.6603601995740138,0.38032551117896274 -1.2301711612760342,-0.10649224255693028 l-2.421377851963522,-2.103004227916715 m-1.817044045309419,-34.42951025015663 l0.14739646158931266,3.1420919159989067 -1.1850780421441052,6.316646336645478 l-1.6399409815573873,5.890746605342427 -1.775337839524748,4.531329104601501 l-2.258743705640005,4.321528265127785 -2.835380055104794,4.2532768778187995 l-3.5425621278578183,4.10599406255135 -3.208317317929011,2.9924690779810086 m7.08847543243159,-26.99712178916779 l3.552652086376103,2.05462423624424 3.385296744817224,3.1213984702067004 l2.8008092638081394,3.226763642846322 2.3152133268606385,3.398148114084231 " fill="none" stroke="black" stroke-width="1" /></svg>