<?xml version="1.0" encoding="utf-8" ?>
<svg baseProfile="full" height="106.20813338059281" version="1.1" width="110.38841444992894" xmlns="http://www.w3.org/2000/svg" xmlns:ev="http://www.w3.org/2001/xml-events" xmlns:xlink="http://www.w3.org/1999/xlink"><defs /><rect fill="white" height="106.20813338059281" width="110.38841444992894" x="0" y="0" /><path d="M25,25 m0.0,0.0 m18.66084622926498,21.271279937117566 l0.4496175659142732,0.09933345109560603 2.603294264127683,0.015739550000997322 l10.724246011418522,-2.1676001783104044 1.6005987125860772,0.0023725802717098655 m-6.303641460947129,-13.519096204548223 l0.49815654385068997,1.038293555063164 0.1701256709326411,1.8485946639380837 l0.0370583027101533,47.326273976885794 m-0.41304450474977084,-34.04421289745492 l-0.6719004319405093,3.162804008056106 -2.6347873116473877,6.714704438831679 l-2.3717072518466646,4.975618209916654 -3.5065948452299702,6.323349173233425 m11.218690950611025,-15.277133234101967 l2.488475030649151,3.216968492965231 1.7359862067876313,3.471595313185814 m2.986028701983362,-14.711914014735633 l3.293062013751533,0.09887541141441811 12.351669802161586,-1.9313219216306026 l4.185245553278975,-0.48098593079097807 1.7543366002611542,0.11262274237508148 m-11.775231306881034,-12.66448249910469 l0.41696105666368233,0.8664698419585422 0.15854218117478586,1.6110068051808613 l0.08198820891604433,10.08120292359183 -0.18858193524843025,7.77483093968478 l-0.683967026000119,8.042247800906077 -1.2630575009565332,6.10781215152989 l-1.4418537276725167,3.795366066454671 -2.4666443970664513,4.11108759567754 l-3.1433888846325755,3.8400528498782793 -5.135270728114923,5.096377782056445 m4.379089909230629,-27.978838756464057 l2.437472628396669,2.698351404787037 9.847311801790854,12.772603459856493 l4.369993250250441,5.209019049148704 3.0669320514644887,3.0343702141104756 l2.872356514685948,2.0410292322415797 " fill="none" stroke="black" stroke-width="1" /></svg>