<?xml version="1.0" encoding="utf-8" ?>
<svg baseProfile="full" height="104.4860266122279" version="1.1" width="96.11451498623231" xmlns="http://www.w3.org/2000/svg" xmlns:ev="http://www.w3.org/2001/xml-events" xmlns:xlink="http://www.w3.org/1999/xlink"><defs /><rect fill="white" height="104.4860266122279" width="96.11451498623231" x="0" y="0" /><path d="M25,25 m0.0,0.0 m11.862987608492661,11.215900323928036 l0.4519375826470645,0.14667138943441924 1.5476102215153347,0.09870459389113888 l22.48119768390462,-2.055151500384984 m-13.420873368137977,-6.246799191434917 l0.8659064063817636,0.5237174605987224 0.663997734074247,0.8472095465811181 l0.22736548906714152,19.181209737514063 m-10.96654503352204,-6.3017138910200385 l2.7274287236157146,0.1161780635304692 16.15327626928875,-1.9388590905549143 l3.032658060892062,-0.11289930836914466 m-30.872478141896362,10.208661306144819 l2.550224158362736,0.1640793081312523 2.6712223945969225,-0.15342740808688007 l29.74157867020026,-3.0838153043420378 4.519581680912891,-0.16369118285648496 l1.87743884583653,0.29401497073823296 m-31.05370734074164,7.093055156905944 l0.7651381599566084,1.5725738545723118 0.05590927191370419,14.509506514917886 l-0.30788966023410325,8.570901262388894 m0.3941171987313281,-24.126669132987573 l15.885919012284596,-1.5123408022482092 1.5221174642555968,0.232028912754271 l0.7829808465460303,0.675728308970261 -0.4341999355400733,0.364281556040754 l-1.1827772880216252,21.87350871706541 m-17.129727472984108,-13.6485424006091 l11.18227541754711,-1.1192550261862153 m-11.08272076686788,8.10596328419862 l10.727717509274846,-0.9966082805788931 m-10.625819692258412,8.616275933023882 l16.745297077776943,-1.338052687116733 " fill="none" stroke="black" stroke-width="1" /></svg>