<?xml version="1.0" encoding="utf-8" ?>
<svg baseProfile="full" height="97.90454821498027" version="1.1" width="98.12049123085012" xmlns="http://www.w3.org/2000/svg" xmlns:ev="http://www.w3.org/2001/xml-events" xmlns:xlink="http://www.w3.org/1999/xlink"><defs /><rect fill="white" height="97.90454821498027" width="98.12049123085012" x="0" y="0" /><path d="M25,25 m0.0,0.0 m5.778937090431772,10.36478374445403 l0.2959643870927432,0.049073291959959166 2.807618658046175,-0.09024100189782645 l11.299954963422639,-1.390331592675863 1.7678130853140455,0.0814184709032362 m-7.365819709656788,-5.9628783932509775 l0.6208704513422262,0.765321354914845 0.21097646733287223,0.7756089659544388 l-0.02157379199040745,18.23937869568326 m-0.26851405901792436,-12.471841234732546 l-0.6337219238792832,1.4756623619464666 -3.0261004759326418,3.809374651769025 l-3.5810657456960437,3.6621319213843027 -3.076715525728265,2.4648195373726334 m13.04031815728494,-8.876017334101306 l2.5365113298733277,1.8057852417347968 2.430100980578316,2.211292385233317 m3.0430639855351194,-7.962778871644896 l2.372643287435157,0.16703169705981472 11.003454843309719,-1.336548028067502 l4.930316231079939,-0.24886678103073573 m-10.141317406558747,-6.075773418001669 l0.7480560922915933,1.174271791201333 0.1505917821955337,0.8723299399818647 l-0.13712451494089753,18.357851853662222 m-0.5463782379697751,-12.465777648813143 l-1.0417764078715872,2.3095651682984015 -2.61567286566355,3.6572092908041056 l-3.4518381849760207,3.6384511963249055 -3.373939130629638,2.819591660066732 m11.310627633369666,-11.774819391169997 l8.824951297604562,7.406822909304885 2.3976724876724145,1.6899695453222137 l1.8316060001489403,0.903836758924121 m-32.1788049742726,4.94257497272633 l2.201719981175697,0.12767733840495787 11.66840509226572,-1.120610400537373 l2.849153649823695,0.11720622700996136 m-27.043238494551527,8.038933162150387 l2.277479790738676,0.25183600307269266 2.3587574749483684,-0.02053804466874353 l25.10442112064208,-1.8077653360410255 6.819889357911484,-0.2693413122256803 l3.358389139315573,0.20021501704732936 m-20.313698948045083,2.169301445650161 l0.5584722722048999,0.7454191777646899 0.31549432666031973,1.4741960152256977 l-0.032739869783371366,9.558068517391636 -0.28622421783374596,2.417551907193941 l-0.33484689185127514,0.7732240717974789 -0.43585370790662226,0.2608907141433789 l-0.520967745405635,-0.10579139644113086 -3.117918865394659,-2.214958057457608 m-7.515870251677181,-8.844409099955616 l-0.0112113193896001,0.8271114959149641 -0.32229720922804284,0.7739310425448398 l-1.6488597440447306,2.016644304367015 -2.7049626395183712,2.4898956008654483 l-3.8849897707456726,3.0384466766129505 m30.45430417436908,-9.091117496600779 l2.1142243316127365,1.5379423229812235 2.2562566966096185,2.1625265443795283 l1.8872231049977097,2.3246337788756763 1.048355819562662,2.0242921426906633 " fill="none" stroke="black" stroke-width="1" /></svg>