<?xml version="1.0" encoding="utf-8" ?>
<svg baseProfile="full" height="109.35699767433107" version="1.1" width="109.49251430109143" xmlns="http://www.w3.org/2000/svg" xmlns:ev="http://www.w3.org/2001/xml-events" xmlns:xlink="http://www.w3.org/1999/xlink"><defs /><rect fill="white" height="109.35699767433107" width="109.49251430109143" x="0" y="0" /><path d="M25.00000133179128,25 m0.0,0.0 m24.345226287841797,3.480989933013916 l-0.06196243688464165,0.5500930547714233 -0.9399133175611496,1.5449130535125732 l-3.9580699801445007,2.58352130651474 -6.110206246376038,3.039366602897644 l-7.489885687828064,3.1419959664344788 m-4.994625449180603,10.93070387840271 l2.0963744819164276,0.33876221626996994 1.943114548921585,-0.06390811875462532 l16.033774614334106,-2.317369431257248 7.130341529846191,-0.7286680489778519 l2.472681850194931,0.12985010631382465 m-12.545405626296997,-9.92904245853424 l0.6351043283939362,1.0707657039165497 0.35255301743745804,2.215082198381424 l-0.04904557950794697,43.36994171142578 m-1.0440820455551147,-34.87753868103027 l-0.6789355725049973,2.3751839995384216 -1.447073072195053,2.730281352996826 l-5.294645428657532,8.123450875282288 -4.807840287685394,5.647689700126648 l-5.587481260299683,4.963494837284088 m21.36878728866577,-19.442094564437866 l3.244454264640808,2.559061646461487 4.112356007099152,4.972389340400696 m15.271239280700684,-20.03323793411255 l0.16816237941384315,1.2349724769592285 -0.21021900698542595,1.224367544054985 l-3.729548752307892,9.424790740013123 -4.563582539558411,9.142901301383972 l-6.53303861618042,11.4876389503479 -0.8802172541618347,2.2817912697792053 l0.25263911113142967,0.5576191842556 0.7286680489778519,0.15197687782347202 l1.2158150225877762,-0.2661519683897495 24.043991565704346,-8.561506867408752 m-3.831493556499481,-6.612063646316528 l2.5852319598197937,3.333057463169098 2.7070188522338867,4.70555305480957 l2.2691337764263153,5.024388432502747 1.2731164693832397,4.290930926799774 " fill="none" stroke="black" stroke-width="1" /></svg>