<?xml version="1.0" encoding="utf-8" ?>
<svg baseProfile="full" height="108.82700859099052" version="1.1" width="108.31227552009256" xmlns="http://www.w3.org/2000/svg" xmlns:ev="http://www.w3.org/2001/xml-events" xmlns:xlink="http://www.w3.org/1999/xlink"><defs /><rect fill="white" height="108.82700859099052" width="108.31227552009256" x="0" y="0" /><path d="M25,25 m0.0,0.0 m34.664656865663304,4.62871885877449 l0.025446494560812948,0.47268425998744534 -0.48072973174315925,1.6497921362536738 l-1.6469891084358719,3.463405113199216 -2.202131409158867,3.095157453188678 l-2.827776661173665,3.125574077981511 -3.0522764107307596,2.8022536341260866 l-3.678961276233772,3.009456369807009 -4.292250175244477,2.9673179127459592 l-3.5593063763803716,2.052659820404277 m22.489313982332366,-19.858785214230494 l6.861663380579954,6.197677005554921 8.90579893583515,7.28446506006018 l3.9599836050722925,2.864191703727096 3.145833405149611,1.53158177292864 m-32.77242963846582,-3.7216296888548355 l2.4989089891996046,0.03626324789628555 10.868653541996146,-1.4339435804698648 l2.7074347444260285,0.06710155470813427 m-23.32517722133728,9.43787768896139 l0.6318391826851686,0.7906801087061361 0.5954798222074233,0.8923050391097309 l2.1421484908906345,8.862175122855929 m-1.9470738445061466,-9.873790989826702 l20.35691668126565,-1.949713097331453 4.709658965288322,-0.3299163307608361 l1.9086180251065665,0.174653851784868 0.7291854814531592,0.674408105389573 l0.019613927460099823,0.5542752973203053 -2.684354652308688,7.742167813610729 m-22.682402635925513,2.0959736079140114 l24.34081190915645,-1.7915684024391303 m-14.245668788744087,-15.651900706424355 l0.544532450584227,0.6981681236995109 0.22440753311130318,0.9249515768847401 l-0.0933656533173612,7.874554500793046 -0.8322110397154414,10.479636027172324 l-1.4114923755910418,4.797691707169443 -2.3302224441519757,3.8376308186909074 l-3.1811632932362754,3.269123799367565 -4.093194699781717,2.983128869159253 l-5.616928034421613,2.1005545613951417 m18.473753398862918,-16.699553993222313 l5.866298144509515,5.777560555777131 6.4300273075397225,5.492592053316971 l4.02374788537972,2.9267504923563785 3.0713941831655647,1.6298879269048216 " fill="none" stroke="black" stroke-width="1" /></svg>