<?xml version="1.0" encoding="utf-8" ?>
<svg baseProfile="full" height="102.31627434467379" version="1.1" width="108.24933793376522" xmlns="http://www.w3.org/2000/svg" xmlns:ev="http://www.w3.org/2001/xml-events" xmlns:xlink="http://www.w3.org/1999/xlink"><defs /><rect fill="white" height="102.31627434467379" width="108.24933793376522" x="0" y="0" /><path d="M25,25 m0.0,0.0 m11.8203552980283,2.882768011909516 l0.46380245726094965,0.29238513046387987 2.9648928843040427,2.3506627265023075 l2.7406589969259496,2.944666862102161 m-15.207769327849755,8.595062428021745 l1.613460265174081,0.4909582030038125 1.2332148786230113,-0.04190818513944004 l13.90363485844824,-3.1179579542717173 0.834188526173017,0.15576054953130347 l0.5460642718769898,0.4339814773877537 0.22076775884795707,0.6364977025178115 l-0.24479461848112935,0.7756697298216303 -2.2883030385263723,2.4977776191842165 l-5.864494709123804,6.181393216433275 -5.228692607108716,5.208521211782565 l-4.820180861180099,3.9831231461333685 m10.15032313994913,-8.33096594553283 l0.9903876678082596,1.274746715805893 0.2607217871982669,2.042367909243269 l-0.033248626692382544,23.060763789773276 m2.036493917962016,-27.563107681589265 l3.9236365700358378,3.0047836149713136 3.277474407188953,3.554876707520885 m4.175391334468228,-7.715965809767328 l3.342025818429249,0.16523367445812873 16.926282589075296,-1.6939310344153686 l4.231611555882925,0.010876027248700165 m-13.547801364912969,-20.356389841925612 l0.9040260273625589,1.5058757895520427 0.2947171460673708,1.9391402821265376 l0.06793242115015512,41.351267933747415 m-19.42109372744806,1.9128933644556314 l4.232202655538844,0.3719648922139552 27.88508777329872,-1.967417884760167 l3.1572944024299736,-0.053762610693833604 2.70906740558017,0.41835318113564 " fill="none" stroke="black" stroke-width="1" /></svg>