<?xml version="1.0" encoding="utf-8" ?>
<svg baseProfile="full" height="99.42769337678894" version="1.1" width="95.41227919944782" xmlns="http://www.w3.org/2000/svg" xmlns:ev="http://www.w3.org/2001/xml-events" xmlns:xlink="http://www.w3.org/1999/xlink"><defs /><rect fill="white" height="99.42769337678894" width="95.41227919944782" x="0" y="0" /><path d="M25,25 m0.0,0.0 m33.07186008202289,8.675973575419631 l0.06415848015586648,0.4338873851374739 -0.4998816151057463,1.5595388637874008 l-1.623131745417376,6.267977103617088 -1.4349659184867403,4.184276416050597 l-1.71476640714132,3.9344158392467503 -2.1613140244721487,3.791243008962736 l-1.837170464205421,2.660793144221512 -2.7506238876524436,3.5425990845410618 l-2.2905060283071816,2.465380052721631 m12.635584451950692,-21.782281248953346 l1.2671200952614659,0.2124089951153682 1.7811325971985292,-0.12787859816305577 l10.017546402451458,-2.463177238366766 0.4800574856729922,0.15541181718012023 l0.3375998460099536,0.40682256036099984 0.06957984951235958,0.6461326344238533 l-0.4707051005516639,1.55530543978275 -1.7186925095361332,4.9718909811978085 l-2.3205305043887106,5.060690150141376 -3.1289817639601423,5.479301931351334 l-3.7238030507913376,5.3148501894735185 -3.1353530131449925,3.7543482451293317 l-3.434865724049371,3.432601408173835 -3.771026216663621,2.9743165280423924 l-3.8386643143155212,2.320865108193534 m11.68580751012271,-25.8711777865198 l1.524259951880248,0.7539656937843637 1.9542434640747286,1.8680148755303 l1.6175832168244442,2.142765683736435 0.692326000572678,1.374821798037193 " fill="none" stroke="black" stroke-width="1" /></svg>