<?xml version="1.0" encoding="utf-8" ?>
<svg baseProfile="full" height="111.78647721524169" version="1.1" width="91.31667816879767" xmlns="http://www.w3.org/2000/svg" xmlns:ev="http://www.w3.org/2001/xml-events" xmlns:xlink="http://www.w3.org/1999/xlink"><defs /><rect fill="white" height="111.78647721524169" width="91.31667816879767" x="0" y="0" /><path d="M25,25 m0.0,0.0 m10.797577035109095,12.82029823798782 l0.3574171104483404,0.3275257325048973 2.654966171841807,2.3025389268064282 l2.3674649233553335,2.974056135547524 m-11.983517621836016,6.7713091025130785 l1.5247736737042432,0.361187403278831 1.7220407594465474,-0.11305812190861332 l11.095818937001004,-2.654332316964066 0.913064517506514,0.18134137153543783 l0.4246818215719139,0.41810843878256576 0.15741492586407918,0.6066371000353216 l-0.19962835813966753,0.6945476103273072 -2.0017199512662094,3.4881987523587745 l-4.314052857474082,6.799855341978837 -4.380032894353357,6.113617731140091 l-4.215874418139901,5.1617848072699895 m9.679323057889041,-10.851494537307612 l0.5426880036680171,0.99797377033027 0.12966584524471936,1.1782723468181429 l0.0376439489357217,24.20810938220668 m6.747604905660118,-29.587655713621174 l-0.2437117556604633,0.9318517522724177 -0.5469552176604986,1.800678420375095 l-2.0642631473363764,4.607460064912213 m-2.690375131756965,0.49206273713694376 l2.6366335953475204,2.7595186503738547 2.3126264111449473,3.2304590016084744 m3.3931283745302796,-19.05744379169021 l1.2416404536702204,0.2927351510046809 1.2496015256021435,-0.1032844003170628 l12.218631926253414,-2.449258297146557 1.18315333469965,-0.02835010309569061 l0.5228707300322155,0.6854291573842634 0.04637753389432259,0.6117711763287561 l-0.2616398012173175,3.809196005561936 -1.14799457261522,15.012751406643751 l-1.0025640411098642,7.537998503136125 -1.2818754533609795,2.4297671139015913 l-1.0421326551881946,-0.27160983014546625 -1.44383509627952,-1.7312662158649077 m-2.0641693981590317,-27.318739873826686 l0.19166074982884543,1.0920170759133714 -0.24377583167173938,1.5243827426893721 l-1.1822830649679255,3.8243795451127998 -1.607722305086104,3.8621091444512734 l-1.83383039562517,3.74177617036808 -1.6556028335111934,2.9079790344913827 l-3.8265112293730486,5.188127689910533 " fill="none" stroke="black" stroke-width="1" /></svg>