<?xml version="1.0" encoding="utf-8" ?>
<svg baseProfile="full" height="107.99874248215929" version="1.1" width="109.49251430109143" xmlns="http://www.w3.org/2000/svg" xmlns:ev="http://www.w3.org/2001/xml-events" xmlns:xlink="http://www.w3.org/1999/xlink"><defs /><rect fill="white" height="107.99874248215929" width="109.49251430109143" x="0" y="0" /><path d="M25.00000149011612,25 m0.0,0.0 m10.050147771835327,0.0334120006300509 l0.5236789584159851,0.32405704259872437 3.620885908603668,2.7451083064079285 l3.034113347530365,3.2125285267829895 m-17.228827476501465,10.768016576766968 l1.8577633798122406,0.43245576322078705 1.308145821094513,-0.1251361332833767 l14.537875652313232,-3.6395949125289917 0.8216221630573273,0.2844480983912945 l0.5299883335828781,0.5864223092794418 0.13924462720751762,0.8047971129417419 l-0.3506966307759285,0.9386963397264481 -1.9588889181613922,2.8634092211723328 l-5.299883484840393,6.715990304946899 -5.355265736579895,5.8845531940460205 l-5.33353328704834,5.175799131393433 m10.100624561309814,-8.171354532241821 l0.7171667367219925,1.1041423678398132 0.2807019092142582,2.176387310028076 l-0.3015017881989479,25.884604454040527 m3.2023635506629944,-29.79151487350464 l4.261638820171356,3.4431716799736023 3.4557905793190002,3.915674388408661 m3.6818766593933105,-9.130381345748901 l3.5003066062927246,0.15490307472646236 19.376121759414673,-1.8783564865589142 l5.08501410484314,-0.006572275888174772 m-15.624842643737793,-22.792303562164307 l0.9807588905096054,1.6341306269168854 0.31849250197410583,2.048797607421875 l0.09332085028290749,45.27535915374756 m-20.818166732788086,2.0820970833301544 l4.716966450214386,0.4373849928379059 18.332619667053223,-2.0834115147590637 l9.863672256469727,-0.7787270843982697 4.2861756682395935,-0.048344568349421024 l3.087041974067688,0.542168952524662 " fill="none" stroke="black" stroke-width="1" /></svg>