<?xml version="1.0" encoding="utf-8" ?>
<svg baseProfile="full" height="112.45617097799128" version="1.1" width="105.47843731832945" xmlns="http://www.w3.org/2000/svg" xmlns:ev="http://www.w3.org/2001/xml-events" xmlns:xlink="http://www.w3.org/1999/xlink"><defs /><rect fill="white" height="112.45617097799128" width="105.47843731832945" x="0" y="0" /><path d="M25,25 m0.0,0.0 m8.27249219388706,17.188841062311447 l0.33692381872278665,0.10429283690155293 2.3260420911030653,0.013833551944109655 l13.38316263123287,-2.578782277744238 m-7.016429780050948,-14.704410354715568 l0.7672404128824513,1.4255323208715964 0.28272919257106316,1.8957012273149214 l-0.40888521788314297,48.320053535152944 -0.44536190471372483,0.5521623113761037 l-0.5403984674277901,-0.054712359126223895 -1.2169621061730942,-1.3081901274233976 l-1.4362841238386987,-2.306641584296453 m-7.398626016829537,-13.251583998155311 l0.8862282006331347,0.42496901006511 1.4445536743293148,-0.2700261960858762 l13.128611863383753,-9.30837260962671 m16.211379494781752,-12.671407939897303 l-0.28092941228855295,2.0569525069395143 -3.4518929676660024,6.639277961742437 l-3.5088871742987062,5.528904813930572 -3.8808336154025493,4.776526540240244 m6.974756454540509,-6.73329112341922 l0.5134969363834322,0.22282507307690083 1.2947681987891013,0.04835191598542031 l16.887418282054217,-2.660913198420734 0.9705376027174548,0.3367132308710614 l0.4423110201203193,0.37395058930658964 0.4915969881272932,1.1094011980498208 l0.062387348919410016,1.5273144161628949 -0.8611268485823049,3.1845358376328017 l-2.358625441592864,10.448977473099074 -2.285236851452244,6.7831593708087645 l-1.0546636966897678,4.8950116435300135 -1.4444003680145183,5.743903524854281 l-2.5526947390144064,4.559820375954869 -0.4772114342753413,0.14349041877925842 l-0.9945677637517323,-0.3603508403938648 -1.8623699452743798,-2.0332430061546143 m-8.571557959450859,-25.296635243632597 l1.3662753971702297,1.4017185405539447 1.5145982985542088,2.067332341942345 l1.3170971044444904,2.374392250447922 0.5744869361331809,1.709381045361013 m9.13993269980281,-11.691308698556979 l2.7149507423374724,1.7971286104960875 2.8370795310262165,2.0284906687466058 l2.1352324203908037,2.1176097405814995 1.2500936179622024,1.7974449867357407 " fill="none" stroke="black" stroke-width="1" /></svg>