<?xml version="1.0" encoding="utf-8" ?>
<svg baseProfile="full" height="109.37221785211733" version="1.1" width="101.40133458423881" xmlns="http://www.w3.org/2000/svg" xmlns:ev="http://www.w3.org/2001/xml-events" xmlns:xlink="http://www.w3.org/1999/xlink"><defs /><rect fill="white" height="109.37221785211733" width="101.40133458423881" x="0" y="0" /><path d="M25,25 m0.0,0.0 m6.115620092932057,22.673941822278792 l0.5171364976933513,0.09737401017720745 2.711295323752894,0.015304136541517735 l10.402230364683941,-2.4961615822722014 m-5.7969749772793495,-12.174850168511837 l0.6343791000284996,1.2378578420089732 0.20732781357801114,1.7923590329292087 l-0.14654120022979217,43.95169486015555 -0.33047797084296476,1.4583498830469643 l-0.4626869512034633,0.6798116891267877 -0.5776670272654313,0.07370251444282688 l-1.2652692293495087,-1.0469150162016276 -1.45237040014003,-2.085313253204818 m-4.900239496870444,-14.144523365043039 l1.0413014215710972,0.38154841525820177 0.8747847425482481,-0.35092867280241613 l10.37133648206341,-9.171281251578218 m13.416991412868102,-21.207402598892664 l-0.2643085164634963,1.1140823362784742 -1.922438899355539,3.823487989941876 l-1.760736238239361,3.125372475533326 -1.9736435624202844,3.7647648721486586 m4.849516128099431,0.3917064947788922 l0.050528841444687674,1.013116923255489 -0.26573625195349254,1.4501371693044303 l-2.298829790190017,6.2245316276149 -2.704691948133895,5.862221458752159 l-3.3277352547642503,5.899830012217207 m6.191344564201955,-7.0759796719186285 l0.4915263963810266,1.0129309228310184 0.12862107600243466,1.087891038914886 l-0.04344462927872849,21.99355590500545 m7.482657743301116,-44.3693527696767 l1.339776340824902,0.27959870595077946 1.451224138093799,-0.1330679781656665 l7.053105646430999,-1.7804330420959338 1.812836001020357,-0.10096767596427283 l0.8255114289168506,0.19054446831082875 m-14.77946759029584,14.512207493105509 l2.369612839170581,0.184615054378757 12.014023376426227,-2.4234196004557393 l2.0104332644136123,-0.26258100029903814 1.3114734820670917,0.16910244573122674 m-7.476083922542115,2.58342816394934 l0.3845532528702468,0.8602396019767461 0.14461925863612363,1.772096402384813 l0.001631163876307453,24.95811568550361 -0.2019663573524215,1.089375366594252 l-0.37012319516282066,0.41537501671664245 -0.498452218130897,-0.09658679812444484 l-1.1942705466427945,-1.1237559478282886 -1.419900944064724,-1.9321622018395472 " fill="none" stroke="black" stroke-width="1" /></svg>