<?xml version="1.0" encoding="utf-8" ?>
<svg baseProfile="full" height="105.67414421322613" version="1.1" width="105.91538982656584" xmlns="http://www.w3.org/2000/svg" xmlns:ev="http://www.w3.org/2001/xml-events" xmlns:xlink="http://www.w3.org/1999/xlink"><defs /><rect fill="white" height="105.67414421322613" width="105.91538982656584" x="0" y="0" /><path d="M25,25 m0.0,0.0 m7.976001290952303,18.737889801627816 l0.3142528404076806,0.09920113199391956 1.973569436807127,0.035942667338727925 l15.861161247377696,-2.47254262297224 1.6472450817841489,0.035607957025868255 m-9.450986385990856,-13.11055224424314 l1.0672822256510501,1.1812424917435018 0.6000684952323201,1.7603057940327365 l-0.18570777740586306,45.47677691321743 -0.1823708792905652,2.370334413015277 l-0.426018151498158,1.2331523052526367 -0.618904511446351,0.3267856051935987 l-0.7287672479122556,-0.3484648834631424 -1.8762898530624639,-2.3252014163710024 m3.465456627776547,-33.290654821277116 l-2.6805293401895325,6.229890975749308 -2.9581649803549284,6.106207274245043 l-3.011134654976649,5.010231385750116 -3.5022531333561506,4.683527016904583 m13.780269746335016,-16.908039013631758 l3.1703974474568657,2.901413340443689 3.7967750704018837,4.793530853512456 m8.577769867548648,-27.652392528681155 l0.6444192368149917,1.6177072325648347 0.1865691540329227,1.3202494517692789 l-0.2628778562073401,32.60465148159097 0.8068251210632127,2.3187083454192683 l1.4602421622364639,1.853172797966777 2.262267109141004,1.2048404461748736 l3.5046925451030053,0.34201076792774415 6.395507627547603,-0.24729644941555268 l2.207956003477008,-0.6634820339018332 1.5345507118301638,-1.0811993004814366 l0.5661155492793055,-1.564805762822057 -0.017267366528853703,-2.7839398633735732 " fill="none" stroke="black" stroke-width="1" /></svg>