<?xml version="1.0" encoding="utf-8" ?>
<svg baseProfile="full" height="101.98098935947915" version="1.1" width="100.74989854058003" xmlns="http://www.w3.org/2000/svg" xmlns:ev="http://www.w3.org/2001/xml-events" xmlns:xlink="http://www.w3.org/1999/xlink"><defs /><rect fill="white" height="101.98098935947915" width="100.74989854058003" x="0" y="0" /><path d="M25,25 m0.0,0.0 m23.25259501495195,4.222810040560449 l0.02736967054990178,0.4696820848425874 -0.31299563417128573,0.9636798151522905 l-0.9464987580085965,1.451960843436389 -2.992030992953079,3.570715888166304 l-3.4858684414466823,3.102572310520245 -3.9724519002680534,2.8983031608293435 m12.401750385457355,-10.280709242847333 l2.4972250779634475,0.10063483238526184 7.895813439259412,-1.2633877552638773 l0.9018727996675341,-0.10193447141055745 0.590770487361539,0.22780832918784294 l0.31517776134117415,0.4647529377823022 -0.29472779599050436,1.3099166718017936 l-1.5409861672101315,5.4456820997569375 -1.7866390411466377,4.185914831696435 l-2.5305922943146575,4.412274037534834 -2.4504984332661763,3.4567146695412045 l-2.766725004005065,3.29582714076608 -3.0848411023440523,3.174251102406891 l-3.336733111908836,2.9375284178111873 -3.5919222771182446,2.6536104854264044 l-3.7481553947049373,2.2638396146784805 m10.576242410979273,-21.2303662066114 l1.9040569992614849,0.7208568159456532 2.2397105804789263,1.502339206857303 l1.6902100635560218,1.733689746618015 0.7242694117641137,1.0906641832957307 m2.49441079980083,11.012640843547997 l0.02753786905271555,0.9679806083574434 -0.4796419957572312,1.6244775108963672 l-1.1422333711119081,2.400764742879258 -3.7294229009010076,5.749726104997957 l-4.515637651304503,4.913688231608957 -3.553425962747655,2.5320797263243704 m5.303581354080805,-21.315619526249442 l3.088875224881529,0.3551524519469242 7.804208390109949,-2.214972169824903 l1.2572749611581107,-2.2372107254931284 1.3180208138762994,-0.24275376372749155 l0.49472577729184236,0.21584615967238502 0.30820617379325926,0.48809870022470975 l0.05246878553667704,0.7946157646781962 -0.18082557175148442,13.685001645139243 l0.0167776699068605,2.4732081475992373 0.3615109503656765,1.929864141724729 l0.5395733780773598,1.0848788432632157 0.7645259894867225,0.7715042898172225 l1.6085025848849681,0.9358497460895931 2.3601789509721938,0.39298251345831203 l3.1805562776050045,-0.06988051011403658 2.655431802304411,-0.408592905326618 l1.1126226509409995,-0.5950458228465089 0.8864472439688473,-1.1087729362195946 l0.4109418214119918,-1.5538448475404634 0.12930877091159226,-2.1253697039948105 " fill="none" stroke="black" stroke-width="1" /></svg>