<?xml version="1.0" encoding="utf-8" ?>
<svg baseProfile="full" height="107.04352040183284" version="1.1" width="109.14701829334129" xmlns="http://www.w3.org/2000/svg" xmlns:ev="http://www.w3.org/2001/xml-events" xmlns:xlink="http://www.w3.org/1999/xlink"><defs /><rect fill="white" height="107.04352040183284" width="109.14701829334129" x="0" y="0" /><path d="M25.059994547426726,25 m0.0,0.0 m20.043520167924783,19.100282695335537 l0.030739304293080014,0.29681580324337414 -0.3147978470958023,0.4379264109730117 l-1.4551082724584654,0.8376040851388569 -4.304828780423864,1.7736811375746286 l-5.480799263477163,1.5668121216498612 -6.075581172060531,1.401261562932872 m-2.5031386841287593,5.923055202648449 l1.825234383338336,0.22546705688199728 1.595357167520775,-0.06717553197740662 l18.946364003786094,-2.1915846638981575 2.8894730130401323,0.0156878017953056 m-10.148506729641435,-5.496115411338224 l0.8965527872844082,1.1203779124507285 0.1640361403208291,0.8725537051096877 l-0.07518782280096839,26.99877005556803 -0.2867078973733572,1.5065061065246945 l-0.5515484723577361,0.7997688454504301 -0.7381617816728338,0.22120970096692116 l-0.8355811811612252,-0.2216105641508633 -0.8592479870346817,-0.4914396164027196 l-1.8715209693089008,-1.4643064773833225 m5.024530897812258,-21.32883190308297 l-3.0901582394266938,4.440215351944474 -3.643072682028622,4.128695226764558 l-3.779707635800744,3.336048296895127 -3.697658402527241,2.508016172396774 m15.878762575646283,-11.353761289534047 l2.7627305329767324,1.4860822142784182 3.2881539187939444,2.7432973397302662 m13.38033391888449,-16.70662793476629 l1.3486548640439189,1.5709455993834165 1.284270259097048,1.0170640369642892 l0.5581094534534627,0.1414661556782074 0.2611238793714024,-0.1134642933744099 l0.4151988498219188,0.25954527694865237 0.473132423877166,0.8111977095368204 l0.0927494804836643,28.79275757463929 -0.08263695308593744,1.4388191649267927 l-0.3713990104695503,0.6006406215036675 -0.5925721865585365,0.10586714190612634 l-0.7703608982117188,-0.23822751726080532 -3.1013193872481013,-1.819475554329605 m-12.590152264159048,-18.506992283054082 l1.8824754656768865,0.18722374848960804 7.982686870557563,-1.1055740935100347 l0.6195077549727296,0.09433549559086611 0.48833270038213783,0.2901750820013857 l0.17289757842901704,0.4518039504127572 -0.5210818809255489,1.3947751178320151 l-1.6619776142528122,2.592299814224938 -3.163290313334927,4.286323170894462 l-3.6780100567769383,3.724430518531243 -3.786013895484052,2.634083788687577 m31.981737538519663,-23.291734280106628 l-0.4194775635980833,0.8784556640559588 -2.513495105423982,2.257705009432054 l-2.749868875727465,1.8584931652326226 -2.8758729576215107,1.4790727944029696 m-3.949070115029435,0.5808106239655362 l4.797812600059608,4.38555406420043 5.2592899918886715,4.0480555550572825 l4.566542785646992,2.977586656492376 2.714625336697257,1.0415352018232937 " fill="none" stroke="black" stroke-width="1" /></svg>