<?xml version="1.0" encoding="utf-8" ?>
<svg baseProfile="full" height="100.06986187742437" version="1.1" width="96.0710630449525" xmlns="http://www.w3.org/2000/svg" xmlns:ev="http://www.w3.org/2001/xml-events" xmlns:xlink="http://www.w3.org/1999/xlink"><defs /><rect fill="white" height="100.06986187742437" width="96.0710630449525" x="0" y="0" /><path d="M25,29.066328111228746 m0.0,0.0 m6.040239000227778,6.183469609251253 l0.5515494771766446,0.1735046738894361 3.0666210749873306,0.04902036529879727 l14.427589402304234,-2.041292578708762 2.1957885786405793,-0.09568639494285033 m-16.041293935820832,11.06177941722339 l0.5772963951566862,0.13316547649207316 0.6245426406549562,-0.07206784421266627 l9.954423789173159,-1.6423909044440848 m-16.10367792006519,10.60134365368755 l2.1393308623953744,0.299265984659229 13.936358752703924,-2.224606343446187 l3.0280960562169623,0.11857451594497022 m-9.378348523241874,-22.82757044619411 l0.5724352614195848,1.0247542389521744 0.16708907512795512,1.1867531732517984 l-0.0056442537073128855,44.07551716949362 m-0.9279686026165175,-41.54022364968125 l-0.05016789632892578,1.4563804704970487 -0.454801409352571,2.3667373613113805 l-2.3557944335357317,7.436073648550537 -2.5390991116788757,6.0836007504960605 l-3.8935809985285905,7.4344728692337565 m11.874079847426554,-14.74835833159091 l2.302941232242212,1.873465983194305 1.6958977184738582,2.0413231143603094 m19.991635261793974,-22.473334093795618 l-0.5052127062012935,0.9023084884820337 -0.6371977897847148,0.6973526621089051 l-3.810003979814303,2.604525971580321 -4.307199672726526,2.2174288142806096 l-5.352358633792427,2.088090641209235 m-1.7921159427932123,8.56351921176425 l1.5730540114305085,0.2317137992958321 1.6684407551678075,-0.13018690651495973 l13.515644795559806,-2.7918434911113246 2.4617054017152675,-0.08946131879286764 l1.8607694649462496,0.2688658210424982 m-22.3648384596517,-6.462210170015985 l0.6320764921520858,0.6559521954440665 0.306180606901961,0.9090461079466831 l0.1901079361196713,24.58870841383674 0.32996260849576214,2.2178206433982304 l0.9215555999060119,1.031269761556726 2.1878736430371806,0.648389640583504 l4.888095105325289,0.2460535475948159 5.1695308433152265,-0.2529911949261891 l3.0946960182809593,-0.4547880162970346 2.196434781542229,-0.6339973782554703 l1.1082106683291941,-0.9122585535377183 0.48545964870877995,-1.3870560520644193 l0.10952015703952284,-2.4497755984459935 " fill="none" stroke="black" stroke-width="1" /></svg>