<?xml version="1.0" encoding="utf-8" ?>
<svg baseProfile="full" height="107.61172295931628" version="1.1" width="104.54006225480434" xmlns="http://www.w3.org/2000/svg" xmlns:ev="http://www.w3.org/2001/xml-events" xmlns:xlink="http://www.w3.org/1999/xlink"><defs /><rect fill="white" height="107.61172295931628" width="104.54006225480434" x="0" y="0" /><path d="M25,25 m0.0,0.0 m9.262659159789381,3.7071813595183123 l0.48384304665636796,0.29499976277453327 2.9747251661585317,2.355419998202697 l2.655014370861798,3.121941222197289 m-14.833046646989809,9.27409730342216 l1.6769807458146069,0.44116044962677864 1.1982558375846208,-0.062460479260386205 l13.439591280186415,-3.423969794642736 0.8689687614000638,0.19645926617990814 l0.5245658989898977,0.4855510824475263 0.1870476469571382,0.6738617210298085 l-0.2506852309758271,0.8260452779896899 -1.8261291900369343,2.7621663686328803 l-4.829370165537684,6.391306966202168 -5.223409346222105,6.336432871152133 l-4.757548329342174,5.036630572858854 m9.657468421180699,-8.831024859423941 l0.6670584449038127,1.3397117128803353 0.180764846885546,2.2120377102567303 l-0.019243973521344153,24.474174447271547 m2.1228177610827985,-29.389898845652812 l3.7662683719774597,3.1618070465007175 3.1530403096592634,3.737209791742613 m3.8519897266284624,-7.985581905810415 l3.110894027968255,0.16106059772538212 16.380751542730593,-1.8365595732457212 l4.056282523537852,0.012842982421068337 m-12.873311173732121,-22.014290830102023 l0.8406837699060206,1.638738141345453 0.2618032955141037,2.0766139467214173 l0.046967112064311235,44.62326818003844 m-19.035924316450483,2.05526592753692 l4.1574867475778845,0.420254199970325 26.81098881214024,-2.1610581889503266 l3.1907924096422557,-0.0451435891863793 2.6610205898144415,0.462715985564645 " fill="none" stroke="black" stroke-width="1" /></svg>