<?xml version="1.0" encoding="utf-8" ?>
<svg baseProfile="full" height="101.99875312640734" version="1.1" width="120.60168848327423" xmlns="http://www.w3.org/2000/svg" xmlns:ev="http://www.w3.org/2001/xml-events" xmlns:xlink="http://www.w3.org/1999/xlink"><defs /><rect fill="white" height="101.99875312640734" width="120.60168848327423" x="0" y="0" /><path d="M27.063345643791,25 m0.0,0.0 m19.69936454501266,8.688746139433686 l0.0244455735123489,0.33968251087758916 -0.37470357656771514,0.7723363278783418 l-1.350000657155657,0.9592292401868863 -4.963687415086809,2.1614811388864084 l-6.1137716236883595,1.9170157850435998 -6.9271590838286885,1.5366881849458007 m-2.0578334059887795,7.1797189480308425 l3.802165861045146,0.21393361171846637 21.0082531668409,-1.4658789181732672 m-10.605345940437163,-7.339473738346986 l0.5413145407745423,1.8549949482092123 -0.056297870313908545,32.31931965935616 l-0.2829044531215784,1.8820922747088527 -0.6075806922638942,0.8721331999211737 l-0.7878733255173123,0.1067338137305729 -0.8772541688473836,-0.3838375358868604 l-2.159277913782081,-1.6903803341948054 m4.534088730669155,-25.757825604787428 l-3.011528038076843,5.154575707571853 -3.5714171272924875,4.816709620893477 l-3.738403027246318,4.015467015734855 -3.6393612500233723,2.983455141851115 m15.986017483699682,-13.392268031721493 l2.584242347943454,2.1570866431841993 2.960808995184555,3.8096037652911545 m6.487920875710011,-17.66533056242462 l0.7411950517521221,0.7063151475359114 0.4609075809461742,0.9020222067784109 l1.8051312749734199,11.050708019521764 m-1.3684581897967711,-11.761459907872446 l25.18182570516363,-2.0221645826518495 1.470948623913274,0.026221444259165172 l1.3205593970874079,0.31426355157587416 0.4365702004455342,0.3497498602947995 l0.17472478999825014,0.8934820644038283 -2.7910951766194745,10.994708600495787 m-28.74217023364432,1.4430179729111583 l9.492241846487984,0.20463418361562757 21.02675052040484,-0.8975389874987556 m-18.425645255068826,-20.649616299937925 l0.871526080541957,0.8643419944776682 0.3849898498683896,1.4777938987901784 l-0.07617050394507636,38.88073603045624 -0.48372859295295423,2.3471043659505773 l-0.6898015233677186,0.31448828464542483 -0.8294286835627488,-0.3035497623793784 l-2.259090102257999,-1.881078607093855 m3.734157574861744,-18.75895288910124 l-3.205189459744249,4.200270793804608 -4.985735042637354,4.963154923249636 l-5.668295590053021,4.393712505076492 -5.051142076719375,2.84715230134184 m20.00296449876375,-16.418348894568116 l16.465544334537665,4.849333510856113 9.280620763488994,2.759180065948951 l1.595164383056827,0.5073337626081594 2.164248242407063,0.5091134200438938 " fill="none" stroke="black" stroke-width="1" /></svg>