<?xml version="1.0" encoding="utf-8" ?>
<svg baseProfile="full" height="107.12985196934261" version="1.1" width="106.95064365041145" xmlns="http://www.w3.org/2000/svg" xmlns:ev="http://www.w3.org/2001/xml-events" xmlns:xlink="http://www.w3.org/1999/xlink"><defs /><rect fill="white" height="107.12985196934261" width="106.95064365041145" x="0" y="0" /><path d="M25,25 m0.0,0.0 m7.1860499892307015,19.68185169996571 l0.32262948210504616,0.10616029622902645 1.5078447175780865,0.08337486970768619 l13.220501194090849,-1.5873826070265147 m-6.980152116898963,-13.355869859553314 l0.8686394096083967,1.2579432422666985 0.5125500534307955,1.527904546965705 l-0.1568089791317901,45.172197957699304 -0.27103779749373474,2.507685370693572 l-0.49895338012852597,0.9815581390781647 -0.6696195526810742,-0.0916823015071245 l-0.7469681055976103,-0.7797348124634973 -1.752032424520505,-2.6343497900603667 m3.830076446321723,-31.06829693195488 l-2.1709410738571138,6.181030626109885 -1.8586961857726507,4.55794480723469 l-2.107452100442469,4.41161709423306 -3.1732596437374614,5.758226756622472 m10.973379264100638,-16.35046749760318 l2.1086654933473374,2.270935062210787 2.4329135826045065,3.495127715307827 m4.673084745946807,-25.432713631120997 l16.54788124765921,2.2483119752037326 1.705313000401924,2.718742005259012 l0.357044143015613,1.687055904160595 m-19.496073727968326,4.615057838559351 l2.0624445114110728,0.1763278994178522 m13.258286480688497,-2.064970095460469 l1.317309041948445,0.38351336992469 1.5301481060343636,0.7777266415790037 l6.699153140855174,1.0323637189919888 -0.5498956941044625,6.49049897268391 m-20.781839009011847,7.206095310786922 l1.248269642669807,0.28325339156621465 1.9157275928795783,-0.12283864943637217 l18.057417595076224,-2.257210099785522 3.7863618420411562,-0.175430136263469 l2.0426827187120318,0.19870071390084432 m-14.941811120272535,-6.568532025570699 l0.5463140007970638,1.499570265387379 0.18049948936668858,1.4985010457478913 l-0.10773433532108516,29.521814046658765 -0.2626155741393122,0.9478871900965782 l-0.4483607997610416,0.3403519328997191 -0.564191547262116,-0.10784458172793362 l-1.2810270604049216,-1.0442134205416962 -1.582474088136523,-1.8208605095497228 m-5.866611749512349,-19.276250780666732 l2.3442903573962592,2.2111981087453567 1.2132433216869043,1.7589472863711952 l0.5762634313919609,1.3126073032594117 " fill="none" stroke="black" stroke-width="1" /></svg>