<?xml version="1.0" encoding="utf-8" ?>
<svg baseProfile="full" height="113.81752603232817" version="1.1" width="129.78201450365097" xmlns="http://www.w3.org/2000/svg" xmlns:ev="http://www.w3.org/2001/xml-events" xmlns:xlink="http://www.w3.org/1999/xlink"><defs /><rect fill="white" height="113.81752603232817" width="129.78201450365097" x="0" y="0" /><path d="M25,25 m0.0,0.0 m21.474876855252795,20.486225315647715 l0.03200294589286776,0.3299744570943512 -0.27016736608643954,0.46594536236586037 l-1.5404038154971578,0.9064885566914014 -4.741220587313345,2.084658212596476 l-5.599034007518956,1.791851558625114 -6.362449102629238,1.5915576674920444 m-2.7144337381253214,6.2138925467485295 l1.9635460039664732,0.2686814945122552 1.7017689442403288,-0.08338120383353433 l20.70684473932547,-2.288663165568796 3.13534676891297,0.029813419625489945 m-10.995978594557727,-5.7797481210060395 l0.944210252924175,1.1982766824268647 0.17422612596021195,0.8762709765526902 l-0.07946174570249258,27.955164817741508 -0.2976230818810001,1.6718466630815714 l-0.6059826247185591,0.8198168495206509 -0.8050796811919688,0.18023620180376018 l-0.8949404985388587,-0.30097636741271916 -0.917925010024396,-0.5782595953118144 l-1.9477566271529234,-1.5561378985969558 m5.61163084025434,-22.11990328508037 l-3.352925270012686,4.7749693760705085 -3.9791240426911716,4.427959480702328 l-4.158242980813393,3.5892240004744727 -4.037357268822432,2.7128099342268905 m17.134374551399755,-12.25722852734186 l2.977381342014692,1.6090242948153732 3.5698966570097004,3.0148178781005583 m27.274405575085332,-16.829720773299787 l10.764307217495897,-0.9283177233827296 3.0179810185780944,0.07766488167913292 m-17.57216479850842,-5.374809964383612 l0.9848722525000521,0.647700676018495 0.5729414268921522,1.0043263337172275 l0.038590869970288405,10.886381353235612 m-12.263561681331973,0.3913084734462836 l1.0214833360311586,1.137254863473199 0.381888668898618,0.8885660620591486 l1.7974719264692258,12.80417053286325 0.7277525050144271,6.37188384464058 m-1.9165796231780423,-20.84624768422382 l23.394934240594807,-1.6537024566572704 1.7764909936036373,0.034835588215867054 l1.265393593657517,0.35907685183992427 0.7304910464464545,0.7383553279163552 l0.12213331786322716,0.8216064930098207 -2.8181423837973245,8.976654683230715 m-22.38632854336535,1.5732053763616762 l23.806117095565455,-1.314258104669423 m-13.522165656958673,2.521135937887181 l0.6148007372500683,0.7598843176940179 -0.06608117998766624,0.9665912568657133 l-0.9568246664291588,4.641781819168078 -1.1856518664757425,3.260123172616427 l-1.824559574825966,2.967630278530542 -2.3231316896555856,2.521163612054403 l-3.0727228755855145,2.2771766608815533 -2.8541863758323998,1.5230824499423834 m19.928057970077102,-18.680540200860268 l0.7040835923767633,1.157611528721636 0.11237212884185513,1.0392240796859686 l-0.14214459350538008,14.158656624106902 0.2930480686109829,1.6081639074182152 l2.2310205093674416,1.1105600544840077 2.876478531615183,0.18413831527645824 l6.171623854458836,-0.06961101120633043 2.9419978388590096,-0.3490981350685785 l1.3022648377970483,-0.4526640800241214 1.308987403463338,-1.1210069130162497 l0.39826947182849154,-1.0131223091616577 " fill="none" stroke="black" stroke-width="1" /></svg>