<?xml version="1.0" encoding="utf-8" ?>
<svg baseProfile="full" height="116.11892345303164" version="1.1" width="110.3366800823409" xmlns="http://www.w3.org/2000/svg" xmlns:ev="http://www.w3.org/2001/xml-events" xmlns:xlink="http://www.w3.org/1999/xlink"><defs /><rect fill="white" height="116.11892345303164" width="110.3366800823409" x="0" y="0" /><path d="M25,25 m0.0,0.0 m8.369779281849434,17.358698016160993 l0.3903834087688544,0.29307311189174606 2.767173318048684,2.6968728584818855 l1.6848138994057038,2.7835282678900475 m16.13128008856365,-7.833864744549415 l-0.1836847115050794,0.8394489178587601 -1.3040565229972592,1.9811165848408312 l-1.58224362374509,1.7999339002426076 m-18.302292718163073,5.4659347879414195 l3.6018313831821915,0.15356610996412606 15.271998556346697,-1.5349960719427171 l3.9789993960780894,-0.04274244222061442 m-10.378088329491085,-11.75200250910916 l0.6321146398615735,0.723158178989593 0.24746717116303857,1.2539947899159356 l-0.11919715491934223,34.00003937234442 m-0.4317833479864468,-23.374890637613063 l-0.3173668917658949,1.3483775327008691 -0.8708581834762356,1.2336284084383407 l-4.69622019049946,5.748026414308445 -4.278554162956786,4.43839841630808 l-4.361074228325821,3.5521043682383024 m16.542466896304703,-13.408391674997866 l3.9392718105123814,2.283042660785684 2.8783713982152945,2.5654564880894704 m16.04120901472343,-19.755748385088427 l0.7761185457915218,0.7245325814754553 0.34540959882413164,1.2946907206597058 l-0.06593780784795462,10.35255966900896 m-12.99429532583223,1.1247527516731917 l3.5335883681074365,0.07437314077984589 17.678518558576577,-1.462857358255375 l2.937576739115552,-0.05807841296640478 2.473961208413743,0.22512951881534635 m-24.63304849057688,6.503367442424299 l2.8260665509464777,0.725928774199261 2.399079068475135,1.236250141957497 l2.001318999944398,1.2709704166505011 1.2328205160351209,1.1896489751827721 m-8.541111880316757,4.067483507100527 l1.910585088675704,1.0798076214532462 1.8011284060482897,1.664822340850437 l1.3283730913255067,1.7834204561150686 0.5166135950141136,1.6561993563894042 m-6.943428881876133,4.945143847286204 l1.4938459305044367,0.17096229962609916 1.412406807034966,-0.10536236329595254 l6.51971447405631,-3.6341309477225625 0.9148482073374604,-0.2736377535215662 l1.1214556017905064,0.24848526224315673 0.367747024612044,0.3800523429014766 l-0.25904925452398714,1.1860643802603952 -3.7797063032803977,3.9061743127967143 l-4.688248118850367,3.67510535955902 -5.152171670131584,3.017086391189624 l-5.873097739489481,2.524244782065206 m31.005409019804564,-10.791147367262829 l-0.19794189570458287,0.999058761793894 -0.7212433056206498,0.878257121570481 l-5.64565939677693,2.7225865455111884 -5.117814280864251,2.148227272746807 l-5.042491572170674,1.5825927024750208 m-0.7190730896272185,2.3311235963068024 l3.615763136309956,1.6639644955022495 3.7867594059597796,2.275308047616192 " fill="none" stroke="black" stroke-width="1" /></svg>