<?xml version="1.0" encoding="utf-8" ?>
<svg baseProfile="full" height="101.285759392692" version="1.1" width="108.16692032344609" xmlns="http://www.w3.org/2000/svg" xmlns:ev="http://www.w3.org/2001/xml-events" xmlns:xlink="http://www.w3.org/1999/xlink"><defs /><rect fill="white" height="101.285759392692" width="108.16692032344609" x="0" y="0" /><path d="M25,25 m0.0,0.0 m9.394536184821874,14.118784608556444 l0.3702155697080223,0.3140727786304441 2.5266215292253666,3.0090046952045224 l1.5189216110902217,3.117660972481318 m14.956037584983036,-9.000194922699386 l-0.21521301673174287,0.9804495995427052 -1.2935457908114985,2.261258234131184 l-1.510300071840125,1.996147854984584 -1.7980030557152449,1.8032193222524422 m-16.21755349933119,5.95800520318712 l2.9831004379559736,0.17650738223695941 13.078510498134976,-1.7619858514733715 l3.3970428932964007,-0.14998593391715992 m-8.888341287015988,-14.007939380884526 l0.6049521795258035,0.7932512716313763 0.2696184354974142,1.4413923761125436 l-0.11490049141882094,40.236111182714794 m-0.3123431673165696,-27.33449068568568 l-0.30548480414854595,1.4464409987763045 -0.8061863986428172,1.5685890104279823 l-3.7593759218301823,5.795032916016625 -4.015474823447171,5.153172792577971 l-4.15320530978371,4.192671216118429 m14.878429026209707,-15.012244284159571 l3.532695420147236,2.6172430612142374 2.4362010442612263,2.900894973459685 m12.559525160426833,-24.302808332522947 l0.7797190165863549,0.7981227363748191 0.3715236445491464,1.492035869517766 l-0.04218443088413926,11.435944192311295 m-10.963691348630222,1.1922489662678455 l2.973459296072686,0.11373867061655754 16.146954742942334,-1.6545637286962884 l2.3036845755494473,-0.05669342691672129 2.503430050958834,0.25444558811518925 m-21.6498634228176,7.2837129939619505 l2.420839993061856,7.059802657240636 0.9355415429435069,4.322413128897822 l0.4197436794383154,3.5699358331570656 m13.731842975837003,-18.58354656628068 l0.12874239795444262,1.0462018695686355 -0.41267836911793704,1.9683737684031932 l-4.727639637505696,17.301458467449624 m-19.990702556875977,2.9648931274841432 l1.7294353145187495,0.28601537957161466 2.3104955471039577,-0.006450404215310545 l14.38967432094688,-1.2998232730900907 8.371905105817468,-0.4708343516853897 l4.316031750080217,-0.015233992850231718 3.004176197665985,0.2986270222719393 " fill="none" stroke="black" stroke-width="1" /></svg>