<?xml version="1.0" encoding="utf-8" ?>
<svg baseProfile="full" height="109.49251370504498" version="1.1" width="108.13321670866571" xmlns="http://www.w3.org/2000/svg" xmlns:ev="http://www.w3.org/2001/xml-events" xmlns:xlink="http://www.w3.org/1999/xlink"><defs /><rect fill="white" height="109.49251370504498" width="108.13321670866571" x="0" y="0" /><path d="M25,25 m0.0,0.0 m12.012941837310791,3.99955153465271 l0.5620945245027542,0.3214060887694359 3.391444683074951,2.4573326110839844 l2.2119249403476715,2.221038192510605 m-14.997867345809937,10.165220499038696 l1.7224112153053284,0.43170128017663956 2.248378098011017,-0.1717081479728222 l12.091377973556519,-2.8779271245002747 0.6704775243997574,0.2551720291376114 l0.38861658424139023,0.5474481731653214 0.051424973644316196,0.7590065896511078 l-0.7062797248363495,1.4861167967319489 -2.2545622289180756,3.3149582147598267 l-5.503774285316467,6.773776412010193 -5.900202393531799,5.950976610183716 l-5.473179817199707,4.359731376171112 m14.122990369796753,-12.248257398605347 l0.6423239409923553,0.9308572113513947 0.2774263545870781,1.4958809316158295 l0.013331741793081164,25.323383808135986 m0.6131940335035324,-28.57926607131958 l5.173742771148682,3.5947033762931824 4.325556457042694,4.150451421737671 m2.333001494407654,-21.330299377441406 l1.153237596154213,1.839907467365265 1.553652584552765,11.768182516098022 l0.92589370906353,9.648692011833191 m-2.0062249898910522,-22.309324741363525 l22.85221815109253,-3.4477517008781433 2.65229195356369,-0.22174987941980362 l2.075551003217697,0.5540389940142632 0.771700069308281,1.0284995287656784 l0.13810290955007076,1.6540616750717163 -1.5378671884536743,10.512827634811401 l-1.835106760263443,9.032244086265564 m-23.600809574127197,-9.74340558052063 l25.236806869506836,-2.313045710325241 m-24.03824806213379,13.018981218338013 l21.8562650680542,-1.7330501973628998 m-11.956632137298584,-32.62036085128784 l0.7093717157840729,1.0252447426319122 0.4304807260632515,1.9743284583091736 l-0.14664662070572376,56.49293899536133 " fill="none" stroke="black" stroke-width="1" /></svg>