<?xml version="1.0" encoding="utf-8" ?>
<svg baseProfile="full" height="127.9035750105149" version="1.1" width="121.55682039111682" xmlns="http://www.w3.org/2000/svg" xmlns:ev="http://www.w3.org/2001/xml-events" xmlns:xlink="http://www.w3.org/1999/xlink"><defs /><rect fill="white" height="127.9035750105149" width="121.55682039111682" x="0" y="0" /><path d="M25.779630245876092,25 m0.0,0.0 m20.23975375483943,21.316878397812616 l0.04270701372838866,0.289770127539195 -0.276346583596069,0.48933004817851566 l-1.324981669002359,0.7790314260118282 -4.395002765188309,1.912077601218981 l-5.732789834512656,1.6305499999506956 -6.7879259819001065,1.437751709187426 m-2.5450441802444117,6.433648408853077 l1.9215270438076353,0.2561102079886262 1.7409215291509557,-0.05592183743657769 l20.306196845494647,-2.1594267123666078 3.0840789198666663,0.024649425089828387 m-10.665907700672262,-5.827108452028525 l0.9483617329631836,1.1283885970996461 0.19369762317208739,0.8377150247175519 l-0.08625032553940569,27.336067299916802 -0.31723896408314706,1.6354500204218583 l-0.5936564285308125,0.7989647734791394 -0.7906452746659532,0.189533202016218 l-0.8789760186829761,-0.2735518810308356 -0.9094989940586335,-0.5518382961054941 m3.729006895160034,-22.315655989178776 l-3.0502259861239227,4.44694824403531 -3.72716931776864,4.221001408012903 l-3.849661736134319,3.399799363912011 -3.7821564443017213,2.5386063501076404 m16.289337105265577,-11.35611478949107 l2.840593640281283,1.5485314611232195 3.3740777901568744,2.8172079836404533 m6.878301779498371,-15.437521106194112 l1.6046451521485572,0.1472019577009421 2.3855256895153985,-0.03428417443470622 l22.422117465992084,-2.0338278827657343 2.536810153057126,0.03780183167448596 l1.1366404201190101,0.27322926497025385 m-31.79319012568814,8.610588103216257 l3.6680940429091704,1.0648991216948283 2.5471728856944873,1.3488348318186172 l12.35848989948675,1.2976440470260844 16.856393631210103,3.1941491124524344 m-23.07865346932158,4.701315024616408 l0.45105585167640894,0.752027296686544 0.16261766263178923,1.4164820954550263 l-1.541769005800583,9.408343984543333 -1.4263216783551957,5.110866650388651 l-1.464753406663386,2.7774286830037913 -1.9349006683128724,4.398332888593638 l-2.0217935074894364,3.313343720837034 -2.3025172247725902,2.521081728603473 l-2.8184548976952555,2.1072447079519794 m21.94654062273453,-30.872429519393897 l0.8097804121910082,0.7987000623595333 0.4814966089487594,1.407129987237374 l-0.147317468686054,24.056158108515902 0.1329370656920203,1.660833095852145 l0.2931502191375978,1.361189063583504 2.2201751513574766,1.2410898216494552 l9.795008548514858,0.2345023453358336 3.104824497017152,-0.35174416632895705 l1.2727908083506108,-0.4503594767050629 0.9267717866052357,-1.1315677650436253 l0.3187395546562677,-3.576073170093942 " fill="none" stroke="black" stroke-width="1" /></svg>