<?xml version="1.0" encoding="utf-8" ?>
<svg baseProfile="full" height="104.27061994511291" version="1.1" width="93.91015837479466" xmlns="http://www.w3.org/2000/svg" xmlns:ev="http://www.w3.org/2001/xml-events" xmlns:xlink="http://www.w3.org/1999/xlink"><defs /><rect fill="white" height="104.27061994511291" width="93.91015837479466" x="0" y="0" /><path d="M25,25 m0.0,0.0 m9.317570798565557,13.826001724971269 l0.3607806585904423,0.33182328715915743 2.4211794823803903,0.7245070102349505 l25.20155379377367,-3.2269463215151437 4.1021249013841885,0.034720445954351635 l2.5069487401004125,0.4234327267887901 m-27.54155484239387,-6.756705027813671 l0.5311598065045811,1.0916333478514417 0.19474408703315244,1.243319652733784 l1.1827359295418456,15.696551314580349 m14.913233392930131,-20.9308148605439 l0.07031280777601426,1.910841219380786 -2.7033614434946767,17.502696546241637 m-7.179133345407266,2.629866446223096 l-0.1096232703719819,2.371161524660266 -1.2892426239172912,3.716921046035538 l-4.364702725787569,7.611917569263758 -5.7873810013633715,6.805016895717577 l-3.335787705215048,2.8113429419979505 -2.9215724232505162,1.9145869009948182 m1.5133545815763372,-21.716750756900204 l1.9678873582834155,3.6940151654795885 2.367548781958892,4.617194670641426 l5.20349231894554,4.43104210938446 5.76914186107236,2.2418384082513945 l3.958348777082111,0.8960050477318054 4.102551022072992,0.4542550124954241 l3.8042032580363894,0.021061953053402246 2.671061910052025,-0.23643719433193616 l2.4499834794391835,-0.2585540856799004 1.2149543099395883,-0.2919276163891332 l0.8122746856833675,-0.48496855836297237 0.39474923277262625,-0.7393657489366499 l-0.0790982297182865,-1.7163765566654337 -1.0545933729545192,-2.5351708020996697 m-20.577328911524127,-14.188192216903689 l1.367071901243341,2.1645662110305395 1.4445396030229212,1.9548530521946144 l0.8597401533907256,0.6666009254430635 0.38930644353303584,0.13413166048177236 m-14.709115816883779,5.4144983337331665 l-0.36063532083132427,1.9803775476046626 -0.8362372903270782,2.799413896650081 l-1.2800885986918449,3.199126939842649 m11.54357725382278,-11.629200144909039 l1.6315843196582558,1.4501194655920553 1.5692088745024726,1.8553751379084507 l1.323414109769312,2.240542554925909 0.9489421589496779,2.5087126880836643 m8.006992730849545,15.61195845484659 " fill="none" stroke="black" stroke-width="1" /></svg>