<?xml version="1.0" encoding="utf-8" ?>
<svg baseProfile="full" height="108.46116679032275" version="1.1" width="109.9161499934188" xmlns="http://www.w3.org/2000/svg" xmlns:ev="http://www.w3.org/2001/xml-events" xmlns:xlink="http://www.w3.org/1999/xlink"><defs /><rect fill="white" height="108.46116679032275" width="109.9161499934188" x="0" y="0" /><path d="M25,25 m0.0,0.0 m19.738400628447465,20.25016681885222 l0.42674440595716123,0.31825906511902374 2.1375151173038556,0.49115876521106605 l10.424172824035622,-3.226077425560935 1.4878360187113193,-0.18918479687942164 m-6.259610412563026,-15.351559557184547 l0.5622994775282045,1.583412970208457 0.18093661442555406,2.1362398014108868 l0.001182622494421566,52.448751149146005 m-0.39459098502513457,-37.73583743219902 l-0.6183760752346033,3.716186532890832 -2.614278533033894,7.5749419414499535 l-2.4071687223392955,6.338756509914016 -2.91761905117075,6.922824812942792 m10.220628607224205,-17.56038176168991 l2.30020771394571,3.5950965508096253 1.6751938614129946,3.755810903867912 m2.906675034505648,-17.655132181660623 l3.0515558792414486,0.12471188596449548 11.929204890320744,-2.1571232521428727 l3.958889577485898,-0.4769921484356449 1.6065229106358787,0.1389661984294872 m-11.18139198536387,-14.497246018737519 l0.38029271527316616,0.9631401154850094 0.13238818467607105,1.8376502995335835 l-0.12593478367168057,10.98885706434305 -0.4332424527119995,8.377583964504693 l-1.0085489034766153,8.751227021241665 -1.4767666675711217,6.56833714157433 l-2.139603442580532,4.553280990528508 -2.8390776398255277,3.8404258379849425 l-4.645389111187333,4.505946355234884 m4.3256329647441865,-29.155631750295676 l2.188646553161461,2.860430271279456 9.097153314506823,13.60473039295267 l4.1751574395915565,5.7292859428406935 3.0469678781556917,3.2143479025634036 l3.0235435253891,2.192661886083427 " fill="none" stroke="black" stroke-width="1" /></svg>