<?xml version="1.0" encoding="utf-8" ?>
<svg baseProfile="full" height="109.84196228681841" version="1.1" width="112.03633894709395" xmlns="http://www.w3.org/2000/svg" xmlns:ev="http://www.w3.org/2001/xml-events" xmlns:xlink="http://www.w3.org/1999/xlink"><defs /><rect fill="white" height="109.84196228681841" width="112.03633894709395" x="0" y="0" /><path d="M25,25 m0.0,0.0 m5.946034815627382,18.587154100687524 l0.6116330424734958,0.12209629704466363 2.9707131856512827,0.030123439562638563 l13.095407414319054,-2.178157293206223 1.6766302171373895,-0.03790883330717688 m-8.015504082676797,-12.988839747959986 l0.7518609956803836,1.379825294896771 0.22265848557345577,2.0299737959404265 l-0.14418473359420775,46.86548228346586 -0.3667319223378944,1.5273554762219659 l-0.5398394061963054,0.744962078410441 -0.6618108274037822,0.09381021840474842 l-1.5212394567504541,-1.1097649216451277 -1.7386091726380972,-2.2064664355655728 m-7.019987671371403,-13.90744007375519 l0.9608900466308352,0.2736531683474839 1.7493688538123877,-0.4395572308292107 l13.892933168333203,-9.222711277431124 m17.211062510879326,-24.259986497690065 l-0.26572126709390737,1.2029192098683705 -2.779640473963275,2.689756956728634 l-3.3188584721356618,2.5401754369542497 -4.268878722089779,2.7402529727339 m-2.465086619086467,0.09045461862999121 l0.6341382497574167,0.9054705911737968 0.24348100663438635,1.726291879191736 l-0.058336403817545304,25.993911630504225 0.22825128276141493,0.6044122272083726 l0.6281487569323853,-0.23594813913408003 9.696297224663276,-7.807283113899254 l3.476927369927128,-2.8274067994763685 m-0.8706557404900981,-18.000115112088206 l0.9716497299195804,1.5053403983541451 0.4900785140369984,1.3185584401301538 l-0.08978791173165877,11.792159529980054 -0.6869973086059018,8.29137797535769 l-1.392275748961305,6.740772343190726 -2.000230894465734,4.869915682713991 l-2.4194106943814155,3.677723237311451 -3.331394630458475,3.518432394620944 l-4.486441508239055,3.2011860851710474 m19.390223402075435,-46.61748560928071 l1.9062685224689184,0.24757580557575223 1.652244258997115,-0.10741587650820827 l9.645221448191101,-2.092306083997393 1.1968175251654354,0.1483187121854037 l0.9865141102694927,0.9530567456572698 0.2425084776648989,1.7935285786701127 l-0.907886577716972,6.5547480229636435 -2.4750903013863024,7.584896447072477 l-1.2268158173010895,1.461932354136253 -0.7721805830871947,0.14192957480063847 l-0.6399641302471956,-0.3961099802208226 -1.1778834122918158,-1.8657930231818525 m-8.06656399297497,-23.384357177896067 l0.48873625420624167,0.9762676923149614 0.15560632818959358,1.280766669581754 l-0.06268009962783944,39.17390907583384 " fill="none" stroke="black" stroke-width="1" /></svg>