<?xml version="1.0" encoding="utf-8" ?>
<svg baseProfile="full" height="101.52925200431966" version="1.1" width="107.34093930829903" xmlns="http://www.w3.org/2000/svg" xmlns:ev="http://www.w3.org/2001/xml-events" xmlns:xlink="http://www.w3.org/1999/xlink"><defs /><rect fill="white" height="101.52925200431966" width="107.34093930829903" x="0" y="0" /><path d="M25,25 m0.0,0.0 m11.807007170163125,4.499945108765391 l0.45143909720704006,0.27345294857364116 2.812586414889467,2.104963210875457 l2.510663590846903,2.8039941370058834 m-14.849039395867598,8.674789022689861 l1.609116139165975,0.41987728962709475 1.2070122087024953,-0.07910302211562464 l13.685991567897382,-2.9090704511370267 0.928268010670197,0.4773118346782816 l0.27426199730023076,0.6066677708376427 -0.16260681257267706,0.7415268550086019 l-1.8937201292765988,2.928940405980546 -4.86198240643239,6.076564683983787 l-4.946357554954097,5.001954601990277 -4.897942781288139,4.161723578284764 m9.694648898449532,-7.810780274911468 l0.9280601200777358,1.2996204571065664 0.23422779131482455,1.2845035426924134 l0.0003832283903004285,20.972370304383578 m1.841093407422505,-24.196507011191557 l3.833876780950887,2.6408713998802513 3.1336950892854496,3.129458114085777 m4.209138649043034,-6.170266682368931 l2.9660585939176958,0.1535041171546185 16.264927947495103,-1.5351168640486068 l4.534357556799151,0.004748564383437078 m-13.081683977435949,-17.985950010206597 l0.8596702227700059,1.3496125724148966 0.26984803902049215,1.7037782159108412 l0.0925628246336733,36.13222016235043 m-19.062801796640365,1.827083896026124 l4.228617199836826,0.34246340299716327 16.748991046093813,-1.741399701434917 l9.241056946543488,-0.6747953353352517 3.800357833069096,-0.023069146553027414 l2.9291557908104204,0.45283135351104814 " fill="none" stroke="black" stroke-width="1" /></svg>