<?xml version="1.0" encoding="utf-8" ?>
<svg baseProfile="full" height="104.65934405820093" version="1.1" width="99.61718870665818" xmlns="http://www.w3.org/2000/svg" xmlns:ev="http://www.w3.org/2001/xml-events" xmlns:xlink="http://www.w3.org/1999/xlink"><defs /><rect fill="white" height="104.65934405820093" width="99.61718870665818" x="0" y="0" /><path d="M25,25 m0.0,0.0 m27.680374582410206,11.043044273529983 l0.39473411338896597,0.2837580248407391 0.5952183438734884,1.1772669402028162 l-0.01955015640915898,3.9185362555766705 m-15.584823869453622,1.0333461033372389 l2.15579805573238,0.19528763057771106 20.520112023348304,-1.387894354694496 l8.75878152873999,0.042877026413633175 m-25.035514872221132,2.9633756649690546 l1.9774042271783643,2.545120061074449 0.9557085351156361,2.859882289145995 m14.097333958663475,-6.66160192519554 l0.3572480499227452,0.359461939404951 -0.003786913732103746,0.6803188415065238 l-3.0367666850485313,5.841578963487828 m-28.192464719884732,2.2271170558975295 l3.206362402413984,0.06179328312367551 17.157736526839862,-2.1574937360059576 l11.186877619519173,-1.1499841536333133 8.89246895880441,-0.5469539536427479 l3.553936997456497,0.20414274583256362 m-34.448520398373084,6.280190095410177 l0.7536115107212693,1.4722614273906998 2.04755005452989,10.871367170450753 m-1.9704249412532409,-11.75237212712457 l22.24343780582324,-1.7751684250340323 1.3518732670298919,0.24793593756944268 l0.7227249910616232,0.7646397162523466 0.1192119150652365,0.8569596601207937 l-0.9956940901166134,4.778000688392674 -1.420502410236985,5.110881116949184 m-21.224868758199513,-4.714291583349414 l12.923734885293138,-1.0499990815332056 m-12.362825300647462,6.248199728972544 l19.555618794242918,-1.1431395572562397 m-16.499404678484765,2.561039109570392 l-0.03247164973043591,1.129616646005459 -0.6967621156223133,1.3796070502094284 l-1.3887575690536542,1.8924349389988109 -1.9138711640702173,2.088285480222479 l-4.256346554945821,3.4220112346597418 -2.5437193478239704,1.4997622080359465 l-2.140613962622755,0.9581436475382064 m21.598748136046122,-13.215583290423144 l0.6184680998136678,1.3902965088044084 0.08897447485019912,6.705039928324663 l0.27951422730220193,1.3352482074811702 0.8597965384935254,1.4990404511882305 l1.2425677193971536,0.810681296898357 2.320636988266723,0.4738299951645413 l4.756007628893482,0.06825705441215797 3.4460451482802505,-0.17156000498064172 l2.963247366969502,-0.3969348612562229 1.397234464924496,-0.44877589262572876 l0.9746797701783727,-0.7076011243774475 0.3367374178506451,-2.197562627911118 " fill="none" stroke="black" stroke-width="1" /></svg>