<?xml version="1.0" encoding="utf-8" ?>
<svg baseProfile="full" height="107.72095750745625" version="1.1" width="89.707185696551" xmlns="http://www.w3.org/2000/svg" xmlns:ev="http://www.w3.org/2001/xml-events" xmlns:xlink="http://www.w3.org/1999/xlink"><defs /><rect fill="white" height="107.72095750745625" width="89.707185696551" x="0" y="0" /><path d="M25,25 m0.0,0.0 m23.41450055532375,12.085513314801956 l0.3602287580975062,0.3397330209428127 0.5435963691679179,0.8759975631597846 l0.08372890181041488,0.9402261946090323 -0.05242294685301196,5.487966692407067 m-14.703687674047373,1.189109243783834 l-0.7352867725237623,4.903179751509632 -1.411647651891162,5.22961559353055 m2.300893483294149,-8.417301730963212 l15.829225573750692,-2.5522421241263515 11.654548577231171,-0.8854493968043969 l1.325810150436894,0.12160816800661627 0.7814601496251039,0.3512486819178549 l0.3162382231287035,0.5684811696420841 -0.06810917455619045,1.4843360097809326 l-0.8972413592543852,0.8633794509222628 -1.7623247285735133,1.5027809166935553 m-18.868361834830637,3.5963419125407396 l-0.12097571683647737,0.7534470431631607 -0.46915156030504124,0.9451501556080927 l-2.3038189417566866,2.9079923388570674 -2.599672208667912,2.3168853633571063 l-3.3619116065265113,1.975561545993041 m18.45318402956852,-10.99679790164612 l4.534054577062252,1.701919656352056 2.348989318841643,1.5154245097228893 l1.7421359485331658,1.3752598070914779 1.429145795892069,1.593148446595946 m-13.0245192378476,0.8955118817584873 l-0.4732101179502132,0.9218740454214405 -1.0283162477874348,1.6067707711153567 l-3.467544933393049,3.115802618342615 -3.738214299322422,2.4328209463905526 l-5.628676650632314,2.272162581163406 m12.778010897917664,-6.30011673592907 l0.3020854675413549,0.7400344243540977 0.1792059149919606,1.4296025637671943 l0.006202110306172937,16.55602121733818 0.8929931880471009,1.2141376710305578 l1.8094636009025757,0.8210480796752758 3.012818710202725,0.24277204557865795 l5.079050591246899,-0.13614050563545774 2.101352247250242,-0.4686768470932647 l1.1867053621739836,-0.7466334410945326 0.7241844032400255,-1.1904757842948617 l0.33530379896614104,-2.139698373784856 0.062452919592198945,-2.890736811258855 m-20.939175673241063,-10.459589690442467 l0.007893505793801329,1.3643332769182526 -0.8851486726289644,2.6056858924346558 l-2.7167058780529856,5.350330702154597 0.06412417498597084,0.6147909528609615 l0.40437473031314886,0.16650069992613245 1.2079956200096231,-2.8461372003820475 l4.293641435062174,-2.829781699383873 m-0.5840106243784493,-3.3596191607731796 l1.9203590309902403,2.1367059304095672 1.1478202394780546,1.9199762279354027 l0.7165442696092323,1.7544573006232118 " fill="none" stroke="black" stroke-width="1" /></svg>