<?xml version="1.0" encoding="utf-8" ?>
<svg baseProfile="full" height="113.28241064846274" version="1.1" width="100.60052130007794" xmlns="http://www.w3.org/2000/svg" xmlns:ev="http://www.w3.org/2001/xml-events" xmlns:xlink="http://www.w3.org/1999/xlink"><defs /><rect fill="white" height="113.28241064846274" width="100.60052130007794" x="0" y="0" /><path d="M25,25 m0.0,0.0 m27.381786915065124,2.992348287710943 l0.3614569131357484,0.29170720156421653 2.125906063356059,1.6170709280337003 l2.0275586652104582,1.3953680294355955 1.8796465168021563,1.8613512139236392 l1.0292283735217753,1.5316538978329541 m-21.529651553314192,6.574155906923572 l3.0271607647057377,0.23483589460370477 27.90791883916065,-2.820845751442276 l4.404346513123749,-0.16851389898363242 1.9851632893106823,0.3336049275347409 m-32.06957702553957,3.3536499791490537 l-0.03395619803043859,1.336043854574949 -1.6035979173501782,3.9909153818646734 l-2.0921387084030183,3.77993438665318 -2.3951668843385936,3.3759367033294523 l-4.141053374152879,2.575661916297517 -3.367098916620311,2.07393953318513 m26.89372606894289,-9.882971516770672 l0.023942043296142853,2.0300261824261834 -1.2966031485113574,2.5023417932103986 l-5.820060331804284,7.224150459019519 -6.814151735169554,6.016975747447568 l-3.655043205235656,2.6726982495884952 -4.270626786474701,2.7820997101361633 m5.280400011963174,-9.938820586675382 l0.7294181139510523,1.6300233583837267 0.12327725560791827,2.229039439727595 l-0.16924468515046576,21.68802941977804 m11.529393964911698,-30.581531057344407 l0.47203009080113223,1.3310572763370692 0.09495279616913962,1.3528273136563906 l-0.03129040710043892,22.077357503791013 m-21.462408301461807,1.6306125662254867 l2.7778541167974016,0.26256998620258365 29.226426110818455,-2.4866650383059876 l2.592736117850969,-0.14490402798242166 1.5932337159853789,0.2782510163617648 " fill="none" stroke="black" stroke-width="1" /></svg>