<?xml version="1.0" encoding="utf-8" ?>
<svg baseProfile="full" height="106.13696652408561" version="1.1" width="111.80113911357643" xmlns="http://www.w3.org/2000/svg" xmlns:ev="http://www.w3.org/2001/xml-events" xmlns:xlink="http://www.w3.org/1999/xlink"><defs /><rect fill="white" height="106.13696652408561" width="111.80113911357643" x="0" y="0" /><path d="M25,25 m0.0,0.0 m29.461471861462794,2.4919858041785794 l0.52121194279335,0.45038508762164287 2.640130096064989,1.746748911765868 l2.8000013493441687,2.7617273669743794 2.122889111026772,3.2687109416808062 l1.0401944901469597,2.6678908116618385 m-32.33281618913843,6.635036955768474 l3.998436778387573,0.5231682526705994 26.442849411119187,-2.542162642514861 l22.628436161811635,-1.5573947723852923 2.478334100557428,0.5318928605655021 m-36.80266349954831,3.8403392658866107 l0.4013210611600571,2.1279999443074105 -0.18872514884636732,4.75947012664824 l-0.7571849041908243,4.956805750145077 -1.4548490635540403,5.255889168825214 l-1.7532948716244092,4.20652889959748 -2.3638942219114885,4.014714834936523 l-3.0520441270880636,3.5338677319373235 -2.5160259223951917,2.147552141613779 m26.80550720072148,-32.34696844525722 l0.884769452183091,1.2370703933163425 0.3073709054138633,2.0977347358905503 l-0.32602487770743027,29.93341603743954 -0.35976179819748905,2.102747352824867 l-0.570360595478316,1.0341422774198943 -0.7195900578627745,0.2576667305664412 l-0.8196912698293061,-0.906995846477931 -2.18284612398571,-2.9600912582941485 m-20.011900638333664,-20.219486133616346 l0.025548669683846743,1.1927855158746898 -3.305586731725126,6.2434849739968685 l-2.996929902776299,4.447845658504828 -3.858788990255134,4.460354035368914 m44.83617839667682,-14.537622220590226 l2.4222796572223175,2.6295685100546766 2.590247792887134,3.9706241058377527 l2.130104186140599,4.039952635727309 0.9929296135412152,3.0005883384082974 " fill="none" stroke="black" stroke-width="1" /></svg>