<?xml version="1.0" encoding="utf-8" ?>
<svg baseProfile="full" height="92.88570746789458" version="1.1" width="101.85105637050182" xmlns="http://www.w3.org/2000/svg" xmlns:ev="http://www.w3.org/2001/xml-events" xmlns:xlink="http://www.w3.org/1999/xlink"><defs /><rect fill="white" height="92.88570746789458" width="101.85105637050182" x="0" y="0" /><path d="M25,25 m0.0,0.0 m29.626203683867196,1.3022289994943697 l0.3387650462421041,0.2890001617107661 1.4617150057701036,1.457656210660935 l1.095577667638707,1.8474064229120297 m-15.896983043906104,3.6389804963244714 l2.382106258426566,0.1765185968427613 23.84797274179504,-2.659695552369994 l3.384552364278044,-0.12220226525520396 1.4716600186721567,0.3148189927059723 m-24.348363985613037,5.677016631914712 l0.4573114990619585,0.41964466078855633 0.32748238760491444,0.7696828359554517 l1.2328201335041478,5.163907946762769 m-0.91709254972628,-6.118772462849547 l14.220639772167848,-1.759833178462461 2.1682778688225643,0.5700656627792559 l0.03907076662122275,1.4598035734765091 -1.5096484889027144,3.512436454413273 m-13.481136026255886,1.6388243628493182 l14.478598161621774,-1.52321732785425 m-24.58295455024349,5.43754251227961 l-0.8032900603407074,3.885789244542506 -1.5565040953768097,4.1087096477884755 m2.7342062020381053,-6.844131630841462 l29.186586770102124,-2.4188244378186803 3.491462957546885,-0.20997529767297712 l1.788004646987881,0.13731174438705343 0.8720633961261209,0.3247506103043122 l0.3419518219713931,0.4694645501463314 -0.04963592215848759,0.5652581536887169 l-0.876130393141374,1.3110763645765815 -2.194776529225469,1.997853872158895 m-28.09887130795121,3.6285508773240553 l1.8049347995365033,0.17563953030225907 18.12471210027358,-2.0368289422184547 l2.64218426809876,-0.14453325897426722 1.0375095772158032,0.1834458489825049 m-11.722947505068033,1.4879899121589848 l0.31433556125350187,0.9385776376361565 0.11719595587497357,1.1139139115004217 l-0.308127984375488,12.188347454550687 -0.4426894514701806,0.5315079402931727 l-0.5932671169645136,-0.09549675281546094 -2.1797119863295684,-2.114446448841046 " fill="none" stroke="black" stroke-width="1" /></svg>