<?xml version="1.0" encoding="utf-8" ?>
<svg baseProfile="full" height="93.24198517872793" version="1.1" width="102.14554369941612" xmlns="http://www.w3.org/2000/svg" xmlns:ev="http://www.w3.org/2001/xml-events" xmlns:xlink="http://www.w3.org/1999/xlink"><defs /><rect fill="white" height="93.24198517872793" width="102.14554369941612" x="0" y="0" /><path d="M25,25 m0.0,0.0 m29.567214030332497,0.7515312702729978 l0.3527251971781146,0.4340736993011449 0.549844165575493,1.5717916065421762 l-0.031418839162465524,6.587660752544041 m-18.313186461941005,0.8728680035401443 l-0.7513712407536951,5.127700750552737 -1.6264389360958447,5.946516647981177 m2.960219184800442,-9.494243876177197 l22.58469651129325,-2.4511651894239193 13.843704085759972,-0.9769446747125826 l1.0063342337824566,0.15027377053265983 0.5996703310448266,0.37926342885967806 l0.15639123811635794,0.5354852859222814 -0.6439058709711778,1.416060111754779 l-3.194014213545554,3.0796449527450585 m-20.280049692036116,4.05133128317615 l1.2049147994285425,0.9205859585571754 1.47204244906894,0.09862839911911343 l9.96220788674727,-2.3959695503540748 1.2157490181723891,-0.1457931560523951 l0.6799021547499315,0.20773374474491188 0.39030112248476284,0.4979799007615686 l-0.25085576039651697,0.6936922581818779 -2.3361059471533343,5.126538753453156 l-2.1659508840307593,3.551538448734408 -2.5518278922084114,3.4439770110637906 l-2.9278972264384815,3.248842431529795 -3.37885707928693,3.10698410236709 l-3.743981082862694,2.863517559464969 -4.070282135195511,2.5710918115223214 m5.904861094067366,-21.24686359842462 l1.8153091515467026,0.8071356123736712 3.1037791391770457,1.9436638734719984 l15.733869602772188,14.471708423466549 3.0627262639734862,3.132930050352657 l2.2452253014225723,2.362215320982632 " fill="none" stroke="black" stroke-width="1" /></svg>