<?xml version="1.0" encoding="utf-8" ?>
<svg baseProfile="full" height="95.24182477326062" version="1.1" width="108.76402912997736" xmlns="http://www.w3.org/2000/svg" xmlns:ev="http://www.w3.org/2001/xml-events" xmlns:xlink="http://www.w3.org/1999/xlink"><defs /><rect fill="white" height="95.24182477326062" width="108.76402912997736" x="0" y="0" /><path d="M25,25 m0.0,0.0 m16.437110931822836,5.235244337818701 l0.016137102075620448,0.4528876129339948 -0.17029409440614401,1.755736435633884 l-0.9579240829816301,2.828208597543204 -3.2787431272649306,7.185635468009599 l-3.610940132876937,6.031959086969699 -4.524755398491773,5.308771054285574 m8.132697847109913,-9.438224914453786 l0.7292100318255643,0.6999219552556115 0.4793066652127323,1.3049517039483771 l0.11994903583047178,23.87673343531576 m29.422065133794003,-37.2512753937867 l-0.037274682532779956,1.1083709981757766 -1.820859474908382,0.8660417997697295 l-6.7071162274510225,3.026375381408895 -6.893435056231955,2.385163384382912 m-3.523657984498312,-0.519421695049091 l0.7456442257967094,0.900154123658652 0.24854456073001188,1.3790407987063065 l-0.05875157644336092,24.280535750124333 0.2997886275392349,1.1494452908021113 l1.6312360328135682,0.12276503513109455 9.76173995879022,-6.178502933097973 m-10.42685341144948,-10.35005942238331 l8.708662702564789,-1.3280605760345454 13.925333341276797,-2.5404176629276276 l2.787997249686394,-0.17889083623274768 m-16.66562467700161,-8.798487199691303 l0.743410921115504,0.6920036575023161 0.4064312724122355,0.8292991615576318 l2.7632364944561907,7.707353152735233 5.479308519943402,5.531335431027789 l7.00854938939439,3.445311185519794 4.57127687293743,1.5265883820238435 l1.3944204598268377,0.2708477574777224 0.9583740941222918,-0.1672527637450331 l0.6698275854385233,-0.836629533596437 -0.016013780765709498,-2.8325349229974592 " fill="none" stroke="black" stroke-width="1" /></svg>