<?xml version="1.0" encoding="utf-8" ?>
<svg baseProfile="full" height="94.6148036760264" version="1.1" width="105.39304066887611" xmlns="http://www.w3.org/2000/svg" xmlns:ev="http://www.w3.org/2001/xml-events" xmlns:xlink="http://www.w3.org/1999/xlink"><defs /><rect fill="white" height="94.6148036760264" width="105.39304066887611" x="0" y="0" /><path d="M25,25 m0.0,0.0 m20.46374244673782,3.1905612848954914 l0.00887915355934139,0.4511986369450052 -0.17299162654118047,0.883382652432484 l-0.9211547816111345,1.4050312098825128 -3.797306699718769,4.105299455973023 l-4.122912872472042,3.3189747910585132 -5.315307075002847,3.4565582193506375 m1.3002967322539016,-11.987936739527784 l1.7350982222038729,1.3151700563147821 3.0954570546865914,3.0267451221398454 l1.291408190028075,1.6295223364486255 2.1592072098412625,3.537781716049069 l2.1659749477608004,5.684948037389502 1.1220079691100706,5.849008782537684 l0.22329755360353565,3.712853549143286 -0.13796074363110342,3.4922285509373374 l-0.46472187764547596,3.1822189973441497 -1.1898005410043133,4.003122514106382 l-1.655230688036669,2.6982851962526047 -1.2891656063106582,0.9556708671853605 l-1.40862673829989,0.17366755568021103 -1.4390037954653379,-0.7584029006978044 m3.920076518446125,-23.697828670194248 l-0.06233383903735191,1.3204648779173602 -3.381526281092331,3.040721241802709 l-3.7183353804754273,2.5947091127324984 -5.258848676434794,3.0304369328453595 m24.438148093794528,-27.000234863356976 l2.883736409050127,2.1456550892191526 1.8549813571869638,1.7971234867024035 l0.7344137192315573,1.20380772725205 0.6085837712537374,1.4306569528190851 m12.054670771441835,-8.001377241691584 l-0.15461917043060389,1.5739841941015322 -1.2073445954638538,2.66512693858517 l-1.6773984487884188,2.566321749964329 -1.7086782327427925,1.9773984037271837 m-18.2749387627018,2.533023576100591 l1.1405780017204836,0.23804519698874235 2.0508826209020308,-0.02466094787795989 l25.848908572871697,-2.4485172492449365 2.097719213780343,-0.06832447319872259 l1.553178572318213,0.23888009097026008 m-29.906998449702353,9.805947872520685 l0.49951625042811676,1.5010123939216826 -0.14709813841918207,22.866541391579112 m0.7623081987526056,-23.213401931589175 l22.40701108132317,-1.7909077913794063 0.9274634396842121,0.012002020581557261 l1.140387116852832,0.49282793050049467 0.5512832794179244,0.8804051137806762 l0.03265335954968786,0.6249611686880453 -0.09665613960546028,21.857253931248543 m-17.63623179096859,-30.28254929918618 l0.42075980837584853,1.1397892465406225 -0.045512622736897726,3.1089231849058123 l-0.24340958381809144,3.026409843283405 -0.6285729842160694,2.976329414966148 l-0.8137710453075053,1.9799743049895648 -1.134343342675438,1.777329443003627 l-1.5156802155434534,1.5633176900237389 -1.425647106736524,1.0207193834879245 m12.03137326107441,-18.0382102136727 l0.5367188635935061,1.155754272897909 0.12918133144944044,0.9594422833202945 l-0.19334336238131122,10.734672178725477 0.2793878975321345,1.2501990055509116 l0.659971067685199,0.7409155197900569 1.8408958586628112,0.45330478834795795 l3.5733906158403825,-0.03281727430932503 2.3236834791173924,-0.5125753400266642 m-18.728044884264214,7.930674414215916 l14.747903570889608,-0.9930789781974431 m-19.51359479089655,8.796962623893986 l24.310349211660274,-1.3620438204669332 " fill="none" stroke="black" stroke-width="1" /></svg>