<?xml version="1.0" encoding="utf-8" ?>
<svg baseProfile="full" height="107.71427802253565" version="1.1" width="97.798786898662" xmlns="http://www.w3.org/2000/svg" xmlns:ev="http://www.w3.org/2001/xml-events" xmlns:xlink="http://www.w3.org/1999/xlink"><defs /><rect fill="white" height="107.71427802253565" width="97.798786898662" x="0" y="0" /><path d="M25,25 m0.0,0.0 m28.06829575751297,12.112633211459833 l0.3821198597339138,0.34437795870289695 0.6093690406002644,0.8269731267621424 l0.147456694043301,0.9769409149285286 -0.04631098658131657,4.87785410219854 m-17.306816777170464,0.2532389063354735 l-0.8300938384390028,4.409468124211603 -1.6800439864566519,4.943549268179743 m2.7185008725233755,-7.28159350424419 l20.116947849246188,-2.303573469468324 13.25185491831979,-0.7921394054457168 l1.4346437936805918,0.11013372976234255 0.9328637016490317,0.8326488484305101 l-0.6481700632630424,1.406766208359983 -2.380239103306215,2.11491385362381 m-25.962413242810552,3.0986580083810553 l-0.02829012810853625,1.3060674673960928 -0.4513783455293306,1.642071899685418 l-2.277340344404012,4.816069896758615 -2.9416294030816217,4.50567724038486 l-3.3147218250833865,3.92331394646143 m8.338711590156752,-11.189402489898855 l5.420820074986433,-0.09102670251208286 6.197558260557621,0.5312050338782506 l15.57671448755702,0.359260744621523 1.4350789507785762,0.7177601680200077 l0.39009364879351754,1.1195809313912126 -0.08568650193302431,1.3855771792810139 l-1.9262866746371317,10.660680811926216 -1.7576980318086677,5.914041193088045 l-1.8929971426569672,4.1079399806059245 -1.3016749433787005,1.6744595410223813 l-0.5645507027308067,0.4001512982473605 -1.0892190804671387,-0.0023939641530543914 l-1.8449965064622709,-1.5853409488164178 m-16.326589217755505,-19.494207114424704 l0.061244008059270126,1.5343564436533723 -1.4164491638958467,2.3349144773558015 l-3.6119712223414533,4.30214193662836 -3.5494051118981744,3.505499381158044 m19.8804376275421,-13.06193517774525 l-0.18171144611349838,1.570624248891376 -1.2999159123871724,2.6695589731405627 l-1.9108997989921628,3.044248740170932 -2.4067629952493075,3.161130008992098 l-5.08457493948762,5.25039266720283 -6.58231346532076,5.050615700256916 " fill="none" stroke="black" stroke-width="1" /></svg>