<?xml version="1.0" encoding="utf-8" ?>
<svg baseProfile="full" height="119.65040050125018" version="1.1" width="99.32372237854545" xmlns="http://www.w3.org/2000/svg" xmlns:ev="http://www.w3.org/2001/xml-events" xmlns:xlink="http://www.w3.org/1999/xlink"><defs /><rect fill="white" height="119.65040050125018" width="99.32372237854545" x="0" y="0" /><path d="M25,25 m0.0,0.0 m20.68666415790128,19.432763258337474 l-0.027388051295382885,0.3689746092762673 -0.3325292764415752,1.0225065209048878 l-0.8963492522942558,0.9963183324437233 -3.6848640430148354,2.7142857653081784 l-4.595360911971154,2.490493237260028 -5.527331120128809,2.234232173342713 m-1.4465527503669136,8.200232073936442 l1.4355867956496817,0.20095591948667751 1.5389791264281154,-0.14703192231239204 l15.096561720600446,-2.296681768380476 m-7.577812625942786,-8.500499287558137 l0.4627613122569287,1.0826751945076418 0.11440403330710193,1.237231353178463 l-0.05003238966171336,40.60179069728843 m-0.35206910316610307,-32.504172082346265 l-0.2633652914769401,1.6432124762450273 -0.6469800439160652,2.3768613250694584 l-2.587327296701297,6.954523519786743 -2.871630867604235,6.02740031360272 l-3.803462882402424,6.275479279949005 m12.913942124043738,-17.603722395461478 l2.279563504043321,2.2135653532791135 2.6184167472585984,3.7966449792373074 m20.912469316665916,-27.046549147094314 l-0.6035539525847363,0.8011942233902564 -0.740839655288096,0.7189560151235114 l-4.2088694351408344,2.486358681663864 -4.348068788448662,2.1080166732419365 l-5.509937507269475,1.980161434272401 m-0.9083656801485537,4.242105038446254 l2.0435563677082964,3.2242947986553316 1.3140700520096298,3.618319217900992 m3.431370843841084,-8.909381249626604 l1.0561676378116909,1.0721432548915266 1.4694866298705034,2.0375030749252203 l1.2001333772874496,2.2186375197561237 0.47575918860104655,1.4135271498135844 m11.11093431588019,-8.350757712488033 l-0.4916578296861096,1.7801617673496613 -1.7878003170841827,3.092739798836511 l-1.8108006466297977,2.5214452819629827 -2.3180139776284547,2.5303367164584047 m-14.556252753285559,5.169874914188944 l0.4773453946430474,0.8738614830085152 0.21311780804090663,1.2059248558760338 l-0.030455727674245318,22.00185163070346 m7.092723280347779,-24.48895429610364 l0.5035816014369018,1.0821400355481228 0.1470495066737346,1.216622620035968 l0.006880327023315141,22.06597981704404 m0.39472109726919846,-24.101331306957963 l10.301225675630755,-1.2209842035760936 0.7623665672398902,0.008390296115853737 l0.9387321670025217,0.5472949000146091 0.30282387932560495,1.2725719177374206 l-0.08140878655177611,23.659906373753728 m-11.772417433905366,-13.929950822891199 l11.202203740307862,-0.8420636310659425 m-11.14926930776954,13.319262295525109 l11.131373973932698,-0.6318381340917664 " fill="none" stroke="black" stroke-width="1" /></svg>