<?xml version="1.0" encoding="utf-8" ?>
<svg baseProfile="full" height="114.78270708985225" version="1.1" width="117.54558528204602" xmlns="http://www.w3.org/2000/svg" xmlns:ev="http://www.w3.org/2001/xml-events" xmlns:xlink="http://www.w3.org/1999/xlink"><defs /><rect fill="white" height="114.78270708985225" width="117.54558528204602" x="0" y="0" /><path d="M25,25 m0.0,0.0 m29.72938229294152,5.872025854777181 l0.41187538662987255,0.45529701521720756 0.6578172996176657,1.6612560450923748 l-0.002340639359416338,6.588794488331602 m-21.268644803574816,0.6269850866951796 l-0.9184372948625519,5.887570473966767 -1.7778043041247273,6.474613892024563 m2.9400877803205137,-10.091487795659773 l27.065830000886905,-3.131553909749666 15.5111991986695,-0.9878469986540213 l1.9482721254792297,0.08334757654317144 1.279902251160131,0.3225088212479423 l0.6687767076866378,0.523105343093549 0.14877721801324378,0.6702588030909082 l-0.841469515728289,1.5615045764620357 -3.1719994240890013,2.750456840700278 m-32.48723616374887,12.301554131039744 l0.19154351639704886,1.1580432354867143 -0.023648410697319072,1.1797886781554052 l-0.03754142524461107,1.017607230570903 -1.0591131680747474,8.469110903435723 l-1.7856210964399168,6.129934846015885 -1.961533020412028,4.468411742788998 l-2.5120460730115584,4.370119422328643 -2.893773450621507,3.863887381376202 l-2.5541107366442977,2.55741340547473 m10.918181181990862,-33.898493650237235 l17.761318935476037,-2.549861604979271 15.178070395105765,-1.2387908566200119 l0.8839694772435344,-0.04857163698183018 1.0768849437383436,0.6536961827577276 l0.4772151511720289,0.6592009255372281 0.19566779614831115,1.6649690800164103 l-0.256816223357093,11.606807300121336 -0.12271143208485508,9.486178099387816 l0.5233037925426542,2.219997072514072 1.1563266953343134,1.641452929365547 l2.253176132504421,1.0025952851560287 7.277089746884378,0.24281278247052854 l1.5877957318817892,-0.6647957145151393 0.8092943548985024,-1.0932099647354698 l0.4084654812953526,-1.4252163153457864 0.16020887010308202,-3.2494681788678363 " fill="none" stroke="black" stroke-width="1" /></svg>