<?xml version="1.0" encoding="utf-8" ?>
<svg baseProfile="full" height="119.65991550988554" version="1.1" width="115.6215148707179" xmlns="http://www.w3.org/2000/svg" xmlns:ev="http://www.w3.org/2001/xml-events" xmlns:xlink="http://www.w3.org/1999/xlink"><defs /><rect fill="white" height="119.65991550988554" width="115.6215148707179" x="0" y="0" /><path d="M25,25 m0.0,0.0 m26.976852670162767,5.945083158633864 l0.45800332548842343,0.4913882818168097 0.6895152213807237,1.7905726567373421 l-0.011498333921900004,7.0893924544681015 m-22.574562604239222,1.0837060726949514 l-0.9815160927418215,6.738232579179024 -1.8417050673879072,6.939930894575411 m2.984607057174738,-11.180531302992797 l28.112594869838382,-3.5004448550300857 16.4387601707073,-1.196588370671538 l2.115752711124287,0.08876130778870323 1.3467713416844511,0.36497543260569015 l0.6807919168963656,0.5692990043255497 0.13391592577203057,0.7231282012116204 l-0.9082459393308199,1.729253225227123 -3.3346962991322857,3.0057675497183816 m-35.14750497901787,13.214959055350217 l0.15157126427836448,1.2947549888557193 -0.04661452792904713,1.35795367433616 l-0.04967011590060187,1.045879623993974 -0.9032429267933129,8.68159582545409 l-1.6821834040794483,6.613692237917564 -1.9411223834109965,4.89434946473078 l-2.5197160237344765,4.771808794943908 -2.98220263577873,4.300932511653932 l-2.6766252619498045,2.802063042361047 m10.944853389413387,-36.279370755405836 l17.54766527742363,-2.5352041550383446 16.778549974067566,-1.3900469814580718 l0.8647241256975639,-0.051842819597127186 1.0382427830501229,0.7472832959293022 l0.4065338523913083,0.7404658773501175 0.028641396249810835,1.7779351354330215 l-0.3631128905784906,11.360442993333185 -0.4321240156895305,10.122654055823839 l0.1934715097526913,2.340782859926177 0.6248879952052783,1.9464706979127622 l1.379868586560449,1.4148610484886897 2.9259142671881024,0.7370233121313224 l5.000889551539458,0.014499599953032218 3.350204175725662,-0.49501760565667663 l1.5024618334095843,-0.7522348048668289 1.0195010882643687,-1.599446932081226 l0.32231209188734583,-2.276866532408469 " fill="none" stroke="black" stroke-width="1" /></svg>