<?xml version="1.0" encoding="utf-8" ?>
<svg baseProfile="full" height="106.57120328737903" version="1.1" width="97.08312717167408" xmlns="http://www.w3.org/2000/svg" xmlns:ev="http://www.w3.org/2001/xml-events" xmlns:xlink="http://www.w3.org/1999/xlink"><defs /><rect fill="white" height="106.57120328737903" width="97.08312717167408" x="0" y="0" /><path d="M27.711293755392802,25 m0.0,0.0 m14.409982470913173,13.100058876083564 l0.08936540220036643,0.3353988747379946 -0.3413768965011346,0.665563065539936 l-1.137043808674327,0.942248886079043 -3.9733312448492852,2.533652197648285 l-4.550735854589984,2.085041769168045 -5.2281031414684165,1.6977482627081741 m-1.0860184062558857,5.712372065888537 l2.6697566277458167,0.16528297189599103 14.825192740536055,-1.7492127940265791 l1.6824939180399179,-0.16046552790590426 m-9.179214807151983,-5.618368145761221 l0.5653176729638129,1.649424596587909 -0.06984642667091329,21.272285836748406 m-0.5007361841511366,-14.57216597299945 l-2.231600043049348,3.754042440613026 -2.5598587580287324,3.3700674476912487 l-2.9697941172723206,2.893371155314665 -3.1257428991284724,2.2082935252280076 m12.985370831028002,-9.39690191225865 l2.350426336171364,1.5189698546686397 2.873515874966923,3.0373047206542134 m9.321618881697562,-14.682945377037843 l0.6187367292743202,0.8973809201590075 0.19727566990143913,0.9746723509534724 l0.011661431200460086,11.695787474708352 m8.775893124961051,-19.267688586325107 l0.6483585066292414,0.8783217271083328 0.18871041861885895,0.976805449368712 l-0.2164392538909997,27.279845679704934 -0.2828919482330334,0.9529097636639668 l-0.49342610506920964,0.3644407725423206 -0.6196836734255925,-0.06488402556675056 l-2.6282709485821174,-1.836671228648294 m-4.196455449036152,-18.443676333281296 l-0.22788936024788797,1.3955496195017958 -2.037216632760077,3.719163051919439 l-2.3409541491366457,3.209743995367541 -2.391588649060568,2.5710336171252495 m16.799579682087142,-11.077901029733871 l2.2923068486114957,1.5685176501747045 2.3796319555546352,2.0648633447182916 l2.0119187923934856,2.295828090094641 1.0629382580203743,1.7661449452230797 m-5.506255383269449,0.7383989048465017 l0.00022300232660374744,1.9655073760511226 -1.398383683457355,3.2796959778022474 l-2.40757461940203,3.8313208665899365 -3.2968468596198743,4.007428530880473 l-3.0810582697836066,3.0126475803720636 -3.4607468203466927,2.7602186743117296 l-3.750620098323874,2.402966644181895 -3.8629151671114568,1.8917646662984915 " fill="none" stroke="black" stroke-width="1" /></svg>