<?xml version="1.0" encoding="utf-8" ?>
<svg baseProfile="full" height="102.99644928573721" version="1.1" width="110.59061059888195" xmlns="http://www.w3.org/2000/svg" xmlns:ev="http://www.w3.org/2001/xml-events" xmlns:xlink="http://www.w3.org/1999/xlink"><defs /><rect fill="white" height="102.99644928573721" width="110.59061059888195" x="0" y="0" /><path d="M25,25 m0.0,0.0 m26.705096477329178,2.100314267830484 l0.4222137577068311,0.28770487903736985 2.6226310752719715,2.5864064466446846 l1.4964495481907443,2.750822005527087 m16.67646968552635,-6.781886468602929 l-0.2309821784309467,1.2621033978064358 -1.338365052329017,2.3090424338742572 l-1.9309142856107577,2.280123473208171 -2.1452959549356274,1.8115500371482451 m-20.55679565594531,3.403935899776809 l1.6527407854438607,0.20001078383110757 26.45833824749089,-2.998592256530015 l4.732307885688615,-0.31391163149856877 1.809877039658258,0.24807302483517424 m-18.741583242299154,2.3704181118159307 l0.7842337365272587,0.8416948275941989 0.3222055346407392,1.097279358822926 l-0.12321948500107277,14.352052422315596 m-13.878425973990304,-7.504258048039288 l1.9006278553324025,0.20084286682580194 2.152033926330319,-0.18511505238971288 l18.091739237693012,-2.268839441098828 3.431875053888989,-0.16259788694411006 l1.8068888577359772,0.21250589909220757 m-34.52565608634251,11.617079405025903 l2.317733505192615,0.308927285401988 36.10395424544949,-3.0537552757725828 l2.756717462584545,0.23613839057675237 m-40.73415044366237,13.993000382904938 l-0.2650034531517823,1.5674487127971481 -1.1768271053263955,2.881038430664778 l-1.6970991832888704,3.1210431816619737 -1.3992427144017145,1.9547489697569858 m11.350478818002864,-12.575601839201767 l3.2005715494991396,4.8520499391929865 3.2534843041007027,3.4518767801619448 l4.06780043845938,2.8736390897588646 5.0237132969982,2.136523116832277 l4.923425555580581,1.1275834407207137 4.28096671472971,0.40502992437125446 l5.220879295986159,-0.04049072108733724 2.645245322915357,-0.5477875840395869 l0.6980638495633577,-0.4511846601257595 0.3095065407031876,-0.5688469797678346 l-0.10048228661334417,-0.6738989097688882 -0.5116270731127276,-0.7754470022320542 l-2.197904498614887,-1.8630482037978127 -1.6449971912597745,-1.045192770403216 m-16.475943413806046,-11.028545096022103 l1.482191099040125,2.944261814075327 1.0895599624424253,1.1467289220438197 l0.549201578688686,0.11839588114290302 0.5350182952252843,-0.29286314853913703 l0.9833586081454277,-2.2070573121307944 m11.800948939727173,-3.232365588494047 l2.0980235646413816,1.3324178340527142 1.5465997137134495,1.3989787678810583 l1.4833540229172832,1.942249447086446 1.4786004882426684,2.783149310322927 " fill="none" stroke="black" stroke-width="1" /></svg>