<?xml version="1.0" encoding="utf-8" ?>
<svg baseProfile="full" height="125.20355977706139" version="1.1" width="97.09241363299773" xmlns="http://www.w3.org/2000/svg" xmlns:ev="http://www.w3.org/2001/xml-events" xmlns:xlink="http://www.w3.org/1999/xlink"><defs /><rect fill="white" height="125.20355977706139" width="97.09241363299773" x="0" y="0" /><path d="M25,25 m0.0,0.0 m26.055020749105168,3.629956360928011 l0.4343238980095468,0.3119238138656609 0.69112495392676,0.9631160819559342 l0.10139868617631932,1.1492571656733774 -0.07311595389423373,6.922268924042785 m-18.72887250930004,1.1097590871570135 l-0.9309971067154411,5.429977694470703 -1.7670466549083532,6.154305681569386 m2.84363914906856,-9.643839508532047 l21.47241777785418,-2.8468051838696127 14.220830245009743,-1.0037839373171302 l1.5613531449835178,0.246689132595758 0.8849422574554925,0.4757473197027851 l0.3273949962265052,0.6825158176647991 -0.12377842656745064,1.773779416913604 l-0.5224010644419175,1.929629434784248 -2.12472740389915,3.1208350349957157 m-24.270035739737445,-0.9306555379043163 l-0.08639295781675015,1.251727924088552 -0.49083824486760436,1.0825411858727993 l-2.2985488191699655,3.8356845054807107 -2.842395035517502,3.237403490571882 l-3.2710374474605994,2.7859475998200427 m19.916915125966426,-14.965506076918636 l0.4116219962385304,1.4449063832749898 0.06176912379706681,6.489370693153303 l0.5135102614230089,1.5143933316534466 1.3447271967304038,0.8465705647589128 l1.8140676459084832,0.288481672260291 3.747041200751271,-0.06417240790910644 l3.3189305171110877,-0.32778217707784923 m-26.61903939775795,6.8775780557157695 l2.2558230601846394,0.7186711402899544 1.8277258585932723,0.09750110481101894 l16.314011846476113,-2.37660777651021 1.4853273211377043,0.1276057624340384 m-12.668231483683972,3.5705822654467965 l0.610250530108609,0.7413599139397856 0.35215725017017424,1.5167460698396584 l-0.06452616373981572,18.757119881035702 m0.52957940173267,-11.934561408436851 l9.028700136392192,-1.2720710004085778 3.63462091212731,0.08500183521926928 m-24.309618428525404,-1.3853874374460207 l0.03033170130133049,2.065412179438084 -0.4015513315219428,2.235093028905393 l-0.9874380967038319,7.714432905430863 -1.2349516923930126,5.70442234347673 l-1.1761949126148248,3.3701500360717422 -1.6054719503169042,3.17340948997898 l-2.0980780641557693,3.016971089698756 -2.0251858165368644,2.1441672734505346 m9.044729539141075,-15.163097425767193 l1.3755739176694692,2.278721528776522 7.324716018659144,9.361774085462523 l4.131246952482657,3.7245190124776677 3.644825915097517,2.050194713743429 l4.188701308183924,1.1096076222610047 " fill="none" stroke="black" stroke-width="1" /></svg>