<?xml version="1.0" encoding="utf-8" ?>
<svg baseProfile="full" height="101.84018220508932" version="1.1" width="102.85979734222771" xmlns="http://www.w3.org/2000/svg" xmlns:ev="http://www.w3.org/2001/xml-events" xmlns:xlink="http://www.w3.org/1999/xlink"><defs /><rect fill="white" height="101.84018220508932" width="102.85979734222771" x="0" y="0" /><path d="M25,25 m0.0,0.0 m8.012206437401916,20.064829617426685 l0.5566578221192677,0.11039032457391323 2.930712483257299,0.023388521067530553 l12.185609734158334,-1.9708753458996227 1.955442710028819,-0.08757567355429899 m-7.89944600202239,-11.546140502456463 l0.7778332595625698,1.1296280193975192 0.24220817957717217,1.8155902645805155 l-0.1598998709797581,40.393456370673185 -0.40124878787267076,1.3228078391865388 l-0.5855018017092386,0.5846827700938194 -0.7105625211795576,-0.003621305867019074 l-1.565633419104006,-1.101244152437607 -1.7843011919208185,-1.9087625499824419 m-6.723866847146954,-12.508836682791898 l1.0655276263546423,0.3402112431245114 1.2410544465113422,-0.33344545641884205 l13.761020475238675,-8.766525454966569 m5.758534744558089,-20.481341990501377 l1.5772393078344034,0.16235840016294678 1.7813009534884818,-0.11741514212076642 l12.217791401807498,-2.441588403089525 3.3738976653453303,-0.0450800844332184 l0.6139217808314145,0.39700527820356474 0.2311319139288398,0.6036563678937397 l-0.16819019420523834,0.755954084066923 -1.6796215156647631,6.128341823899356 m-15.401413153148988,2.630350225683391 l2.949091893931639,-2.0794960527991724 m7.091281511767984,-7.045741439635483 l0.7212070267592259,0.26035404080151614 0.6152642394102805,0.19420718292829112 l10.280547033308874,0.11616261639401324 -1.1875796529437301,7.773660907934212 l-1.234575897075242,3.868402304006223 -1.4734176580015645,3.8505925463000557 l-0.5566005803889159,1.339828344953601 -0.5854827292498829,0.8721923590002661 l-0.6045407843846158,0.5132562667177206 -0.5993436315760042,0.121325352955469 l-1.1223046460464619,-0.5943334291977376 -1.1758513496637528,-1.2956751935205362 m-0.45273445469343904,-13.390843065245512 l-0.11028875977601285,1.361918077723776 -0.7136158871369205,1.8820789516005132 l-2.3827736615309525,3.7085672849978177 -2.7517143895978147,3.054927723985693 l-3.947180630948529,3.218530623859069 m-7.397311175172736,8.677021651834899 l2.099593189961745,0.28082869722951115 20.670108470271895,-1.9951288775314018 l2.9792634072408553,0.1612567549365392 m-13.581749618554426,-4.852028301447261 l0.503878702968403,0.8149849930213101 0.2083456901110605,1.0069204948379267 l0.014334807149818857,17.853006900913133 m-15.728454197091914,-15.05528617562569 l2.262751510739551,0.35100071381427195 19.268331194111063,-1.4000027446833232 l3.009305620680125,0.19557552760888164 m-25.896977532662486,11.485578407639684 l3.775149858268968,0.1920075400349755 20.271110725691948,-1.3928443940739172 l1.97453169900384,0.04012735734592713 2.52295059469402,0.32307817028177704 " fill="none" stroke="black" stroke-width="1" /></svg>