<?xml version="1.0" encoding="utf-8" ?>
<svg baseProfile="full" height="115.78550876161037" version="1.1" width="94.48702657552793" xmlns="http://www.w3.org/2000/svg" xmlns:ev="http://www.w3.org/2001/xml-events" xmlns:xlink="http://www.w3.org/1999/xlink"><defs /><rect fill="white" height="115.78550876161037" width="94.48702657552793" x="0" y="0" /><path d="M25,25 m0.0,0.0 m25.148934976475445,13.033355393512274 l0.394850561362213,0.3117226640358511 0.4782071420272703,1.4488190834856085 l-0.044610807329108666,3.76070854991707 m-16.18224461971166,1.5814400325627647 l3.6699224383495146,0.19423769260085422 13.843035651382413,-1.1738917625246204 l11.93672104045973,-0.6498601382599397 3.058622418477348,-0.0207306117541741 l2.1835877740347702,0.3291166990650782 m-27.803529281001026,4.987904582610847 l0.6635461091473295,0.9221312852300038 0.4082769581626887,0.9482267840210331 l1.4263614566878162,5.995972989376859 m-1.2290162991594262,-7.265155588178579 l14.995207293720162,-1.4625870733331652 2.3686882167986223,0.10765104158475976 l0.47403863521039213,0.7991024808696247 -0.5352862366714833,0.595187698808219 l-1.891743316431116,3.6961871617454793 m-13.707906177392232,1.5772855107427441 l14.980378598543291,-1.2448910026643283 m-27.951742615225054,5.5220414021095605 l-0.8437276097347765,0.9351307507184955 -1.2352526501920795,1.734701528211631 l-3.243767756276368,3.7175274048122207 m8.257290906293036,-5.633912875333962 l6.11809974261427,2.782016049168916 4.219774342971283,2.125784519770808 l3.9734343603869102,1.5293532540213433 4.0610377843458805,1.1569231824155912 l9.104323981058876,0.6160539248275079 1.6145478769546513,-0.16979439406937183 l0.8866497215112991,-0.6648338632921954 -0.5926096267463445,-1.1479599449384261 l-1.922736443928942,-1.3044444020874268 m-16.017408355664067,-5.417018394372494 l1.6281750898181313,1.5330329513629828 0.8449909893134085,0.24757009476030464 l0.41049388569967715,-0.28985202945825267 0.28844451150844413,-0.7295506753000847 m10.336592702583644,-1.9409745175780324 l2.2045675733883106,0.6532226561108059 2.0243244236667595,1.1140127936574729 l2.606785206885629,2.387137194393493 m-26.01260513113613,7.747685909721606 l-0.00883289605311256,0.8651595399326387 -0.4349989681696011,1.301738538478593 l-1.7932709473280533,3.531632533253289 -2.206562220456608,3.1853342570954615 l-2.9951645415143915,3.372246507436204 m8.258626134506143,-8.6178830337346 l2.5793320960130544,-0.19024170579774854 11.413616145463143,-1.342777030086086 l0.6865737866084587,0.16198664539785837 0.6498226973111363,0.346782793991812 l0.3764823745211394,0.4443608149857618 -0.15781619242511413,0.5175929333483585 l-0.7397009996188817,1.725699381102045 -1.8165432971167383,2.6226466054745954 l-2.286156747276733,2.4391494429389935 -2.755689620433189,2.308093574725829 l-3.3648285372348488,2.2388353457377876 -3.016275075638826,1.5956788323272608 l-3.3000082915078,1.3880871620292123 -3.597654156567743,1.1401035724906763 l-3.534948056906918,0.8020170318978798 m10.321315500577406,-13.348404329280111 l2.4707211104995905,0.8720276129966467 3.1190470342531373,1.4084628100419339 l10.084149451101375,8.557135490705626 2.7194491108375916,2.120611484336529 l2.7265346119179865,1.3636459566971473 " fill="none" stroke="black" stroke-width="1" /></svg>