<?xml version="1.0" encoding="utf-8" ?>
<svg baseProfile="full" height="115.67280420903128" version="1.1" width="121.95483585182966" xmlns="http://www.w3.org/2000/svg" xmlns:ev="http://www.w3.org/2001/xml-events" xmlns:xlink="http://www.w3.org/1999/xlink"><defs /><rect fill="white" height="115.67280420903128" width="121.95483585182966" x="0" y="0" /><path d="M25,25 m0.0,0.0 m26.655835349902517,4.007491072868815 l0.4310328966384579,0.4969503272642131 0.6446937309487368,1.8815018137489692 l-0.004642986667908432,7.149932311904765 m-21.22302834349777,0.8113620166561536 l-0.8936374767714601,6.733869198916667 -1.7018300515345175,7.220982827493206 m2.820639749469077,-11.364405644628537 l26.71886683873446,-3.5976231114092942 15.219464505866181,-1.1460231745388816 l1.9644648476522415,0.08072539887789999 1.2792533388597633,0.3473066261409006 l0.6703024618810636,0.5590744617477413 0.16695787860667072,0.7221505960703775 l-0.7720847692587884,1.7389133129632843 -3.2103055671575795,3.1191720938523995 m-35.105696917133514,13.234970765607283 l1.7340396504466284,0.312733119261535 1.9040688995736321,-0.10842997335752062 l21.730784222476796,-2.8439183493335616 2.8928938594245244,-0.6211971760762669 l2.3817753112128637,0.17521559599730097 m-16.291399508298746,18.350459611965864 l4.019761174415921,1.5579345182705144 4.444385820750346,1.6755566499279166 l4.640722601044465,1.8932596488086368 5.3951281040256145,1.6505854847812722 l4.092639896887798,1.4183053927448888 4.0838029539363285,1.4451736124195593 l3.4016240388501195,1.5073512247187018 3.3828817126961255,1.7271043979795497 l3.439360487409518,1.839717644543394 3.4534549439129933,1.8552046632205355 l3.5886261965270876,1.8413972496229982 " fill="none" stroke="black" stroke-width="1" /></svg>