<?xml version="1.0" encoding="utf-8" ?>
<svg baseProfile="full" height="112.51516374438519" version="1.1" width="102.74278014044333" xmlns="http://www.w3.org/2000/svg" xmlns:ev="http://www.w3.org/2001/xml-events" xmlns:xlink="http://www.w3.org/1999/xlink"><defs /><rect fill="white" height="112.51516374438519" width="102.74278014044333" x="0" y="0" /><path d="M25,25 m0.0,0.0 m25.775952684858655,6.506403057830409 l0.37852641797755254,0.4047150342520273 0.5182023057856544,0.94123628637802 l0.12153912762947745,1.1188634076264994 -0.02725446352634429,5.324250619879319 m-19.025567955826062,0.7781198947456843 l-0.8878062171587096,5.398848420255906 -1.7115940681932509,5.824698835258619 m2.8437628772172756,-8.895498494515612 l21.03438955963304,-2.686872079799052 14.00299368856484,-0.9632297107057509 l1.6289827566173714,0.11816507831511731 1.0685649668347474,0.3779792595459507 l0.45814257298972055,0.6008644149819825 -0.03347460424103093,1.6221271216428828 l-0.504047246595096,0.9486718904050135 -2.5665371127682715,2.5579286035051405 m-24.35450813137732,-0.20549640066434333 l-0.09908343553429036,1.0594548889351212 -0.4994070206438461,1.0071021812660892 l-2.3091891290643454,3.3234731773743285 -2.755420734843651,2.719329136762868 l-3.2781659426588643,2.52928711173768 m19.946900344117072,-13.449587739063528 l0.4214521522657289,1.2986848830259679 0.09428291797817158,5.599244013385758 l0.4893711192621412,1.3441170603953645 1.4053706177894847,0.7528899678896046 l2.0004630323214037,0.22906866221012054 4.450026688112234,-0.09328075944516978 l2.712584319371171,-0.5262674570954292 m-25.330206732093004,5.232330143833626 l1.5300832279841339,0.6913870890795379 1.522897538874733,0.20713545208604525 l13.59285122738529,-2.0418872747708416 m-20.842091243247207,8.649441361117502 l3.953399652119962,0.9941961738112431 14.676078618940439,-1.83793465054722 l3.0473010762835706,0.16142927201253882 m-10.829375128611062,2.983951714440912 l0.4192054145518023,0.8546993644499501 0.13006919011794874,1.426981453563233 l-0.02618519939817603,17.6844556275223 m-8.4041569342416,-11.153517978208704 l1.119325840619721,0.38800728280433133 2.003778193501673,-0.1153123271163863 l10.70842967298674,-2.1505632786735553 2.22518469079545,-0.07268003126073219 m-17.380573214350193,14.52404843939718 l1.0561304753785645,0.5237055445276431 1.257973232400369,-0.17397453761610518 l15.424762659681583,-7.473506922467542 m4.957402781944221,-35.469896178338644 l0.7033307331132739,1.3707313785156805 0.344833849891225,1.4841481485843917 l0.003605035724668395,39.64543779645892 m1.841221729413433,-34.814771248839094 l4.362592550735127,2.0673889239448107 3.712683450425916,2.5932370691515807 l2.7149759034368786,2.709687623766297 1.5893821251103981,2.6110193491702107 m-10.94083200265047,14.557978305554737 l2.50045464124245,-0.7687651919593643 9.7987949954808,-1.7328904260838718 " fill="none" stroke="black" stroke-width="1" /></svg>