<?xml version="1.0" encoding="utf-8" ?>
<svg baseProfile="full" height="110.94511385379761" version="1.1" width="101.96455608087342" xmlns="http://www.w3.org/2000/svg" xmlns:ev="http://www.w3.org/2001/xml-events" xmlns:xlink="http://www.w3.org/1999/xlink"><defs /><rect fill="white" height="110.94511385379761" width="101.96455608087342" x="0" y="0" /><path d="M34.746140859747214,25 m0.0,0.0 m29.552609698504437,1.1458166238362664 l0.01878790756938531,0.4020116930844675 -0.6287061595899851,0.8889746356373663 l-2.508019767819966,1.0705976054545114 -8.229994634922397,2.3323247195458214 l-9.10059606141501,1.924056411643699 -10.630166841350604,1.359582195845455 m-8.220055000723075,5.231297474910367 l2.459416972168723,0.3018498297103515 2.825336492967776,-0.04808179609325556 l23.067343225021695,-1.8262850075109422 20.03745973016804,-0.9583873924913159 l3.5749996605471916,0.22220805861406778 m-45.325722785194316,9.004620506403619 l0.8138449947975044,1.812708693469162 0.9017115238738902,2.914996542688671 m-1.0812505759492863,-6.240650184809995 l36.99151266454226,-3.0316327020672844 0.7937773975154555,0.022637177833479776 l0.568227693375119,0.3276949207845332 0.307410810100234,0.51137576520577 l-0.3143969940756568,0.9741567720216084 -1.9814763703583396,3.129667207559433 m-33.533901642850225,13.28781071334054 l10.072842355449422,-1.9102591284972286 17.916465570255287,-1.48514791909737 m-20.320731702317687,-18.241903565598054 l0.9071957299247502,0.9481219884211264 0.36749568920280423,1.0123720018512032 l-0.035977872225068736,24.40868616422062 m-13.61407623653642,-26.14697396741674 l0.8859895962433354,0.9937757437833152 0.29932280588061383,1.0822387569224945 l-0.07082815861711267,27.114707857094697 0.4654446256889942,3.300536271333313 l0.6199037457352145,1.4084276637361162 0.5788926419475662,1.463139927148302 l0.714459652846261,1.1925355045922135 0.8256430821063205,1.598360801966433 l0.7723585577112663,1.5855403746495993 0.7197458315734009,1.4806317074974789 l0.93519422213694,1.4795198738975863 0.9649706197229964,1.9137087559305017 l1.2126297714655625,1.8231059929473237 3.148145665152316,0.9868278775550146 l16.971393709319337,0.17781070624325554 4.137448212448342,-0.6296791406475889 l2.824433325596457,-2.3017984436923813 0.3651091157540361,-2.503869215017526 l0.01871589087907728,-3.433648683761814 m-18.425137750559294,-11.410363846906758 l2.484914804034168,0.9270512540134154 2.765601144964416,1.413832093186065 l2.060078440540686,1.3738659522816448 1.2307816634096307,1.0081688473906718 " fill="none" stroke="black" stroke-width="1" /></svg>