<?xml version="1.0" encoding="utf-8" ?>
<svg baseProfile="full" height="96.71516912511875" version="1.1" width="103.28395502981027" xmlns="http://www.w3.org/2000/svg" xmlns:ev="http://www.w3.org/2001/xml-events" xmlns:xlink="http://www.w3.org/1999/xlink"><defs /><rect fill="white" height="96.71516912511875" width="103.28395502981027" x="0" y="0" /><path d="M25,25 m0.0,0.0 m28.449320274907052,1.1371746709441315 l0.4290505688552605,0.4485958351372056 0.5489856753198717,1.6756252804656282 l-0.07318108538460977,6.921816133314205 m-20.12015976699007,1.0563245432720647 l-0.9459914491356398,5.279408515366722 -1.8683717057418037,6.281758384095604 m3.402160883386859,-9.903251541294358 l24.83911302298207,-2.5427293608400583 15.53392965420618,-0.9093934817964823 l1.0713666698610735,0.2917152994637789 0.484494839037426,0.4921691322985544 l-0.022266504743503116,0.6577286657326418 -0.9942967752979973,1.5903689284597247 l-3.0676086197873764,2.7554987395078947 m-24.082508386609664,4.741772290328227 l1.9534079416910248,0.8720958443457194 2.038889811426361,-0.0575576205220003 l10.395545851821636,-2.605921950338036 1.5671971763014416,-0.16300490397318165 l0.7494217478580435,0.25073316445988564 0.4013945637279987,0.5470962981216122 l-0.3096946824813099,0.8033907411541265 -2.6789280024165762,5.636196690476254 l-2.506877217034279,3.75458216467532 -2.979811043787665,3.8117028800439106 l-3.4510321997629427,3.662783818078084 -3.8765517749094496,3.460634143045285 l-4.26169736931151,3.1629041562219915 -4.629947680615369,2.8307499531528966 m6.7050241939380415,-23.48128122004008 l1.9901264577541136,0.8412716842750709 3.573485711622221,2.0642702700010718 l18.764474191251004,15.983591684990694 3.5161525478399325,3.096776359438883 l2.7393375100324513,2.269572933055761 " fill="none" stroke="black" stroke-width="1" /></svg>