<?xml version="1.0" encoding="utf-8" ?>
<svg baseProfile="full" height="108.66951603998845" version="1.1" width="94.44249004437242" xmlns="http://www.w3.org/2000/svg" xmlns:ev="http://www.w3.org/2001/xml-events" xmlns:xlink="http://www.w3.org/1999/xlink"><defs /><rect fill="white" height="108.66951603998845" width="94.44249004437242" x="0" y="0" /><path d="M25,31.59164528112562 m0.0,0.0 m7.35114485840396,13.544108251213839 l0.45260372587492054,0.17471767211033648 1.6581782508108163,0.1749792580318585 l2.403292400217262,-0.3281629811721849 7.370614105712973,-2.5261746232524467 l1.6456000972808305,-0.038089043282854854 m-6.832933396727195,-13.073034645175158 l0.6167710883138311,1.891039722762314 0.12844042769092132,1.7154071940725064 l-0.019265889219264844,50.54307995355462 m-0.33166214110761777,-39.14164983975643 l-0.17931107398182664,1.7792766365336372 -0.7956780458810675,2.761291668792499 l-2.8458789674896625,7.944553931866434 -2.5305635427247255,5.544441160168976 l-3.5827315309997347,6.457147187799954 m11.374123738046942,-18.60212274573017 l2.560718797832321,2.7603076421528465 1.8915692207587667,2.936513242547814 m2.6026488773345107,-29.970769127487067 l0.4106341008598355,1.1117419153553805 0.1712314884202568,2.0730306306889377 l-0.0018260874174417965,47.87213357600432 m0.33820030328212275,-49.347629361097184 l18.427943919291508,-2.8477825578283924 1.117036513919577,0.11790332674359973 l0.7914123933391818,0.8271445574314303 0.24583542901104002,2.0261257722617887 l0.004340983519393457,48.22663160066627 m-18.347652063987947,-34.03385248477059 l2.314637630136425,0.15298791622918573 9.912504527114836,-1.9579932052011624 l1.5908994838278925,0.03151658074272031 m-7.459557559095922,-9.910919860673655 l0.4440637791723846,0.8610903537932616 0.1594591045511876,1.2733696666852181 l-0.025606960517344797,37.07351101148761 m-0.38165629149710806,-27.98374391615586 l-0.17860531009849218,1.9677057722948557 -0.36175119850046816,1.4486404797526689 l-2.41937732581094,6.333952136541466 -2.4552341191529616,4.937599122356503 l-2.7657704230592692,4.428187572898909 m8.88588509148071,-17.616276084432965 l4.639947312394679,11.93157674568691 1.5575919163219645,3.320784563308433 l1.1723328334264875,1.8487261413047034 m-17.659435195694854,15.96510525472308 l21.15892476628739,-1.6964043560442588 " fill="none" stroke="black" stroke-width="1" /></svg>