<?xml version="1.0" encoding="utf-8" ?>
<svg baseProfile="full" height="108.43999433439963" version="1.1" width="98.0628887210123" xmlns="http://www.w3.org/2000/svg" xmlns:ev="http://www.w3.org/2001/xml-events" xmlns:xlink="http://www.w3.org/1999/xlink"><defs /><rect fill="white" height="108.43999433439963" width="98.0628887210123" x="0" y="0" /><path d="M25,25 m0.0,0.0 m32.43608220886882,2.737290502204484 l-0.02104328741064701,0.4418105164012324 -0.5416576026561528,0.9961487464842889 l-0.9691504457100444,1.0592406409940485 -4.230116938057845,2.901448237987384 l-5.898431537598936,2.8865745010802994 -6.279068593607354,2.422586482730247 m-3.9739630251982447,10.651149019720144 l3.0660967352086432,0.22499943706825515 23.141266148100314,-3.4249711604417215 l2.785605377576162,-0.2565254522575665 2.296554768325976,0.2160040969538806 m-36.24546026297325,16.860436794409544 l2.090363910648887,0.36549846601202973 1.9964559186304476,-0.13200779921284045 l32.50903017173447,-4.576420604797595 3.168544793685341,-0.2677181855499457 l2.7317803814457102,0.301594462045295 m-25.323393425079804,-20.601355022130686 l1.1442245050116389,1.0840245758082 1.6252350375100113,2.329127335193474 l0.9387936313728646,1.9285175232897551 1.1198116416348496,3.5791409495499082 l1.1309503275593291,7.670362442535361 0.366654024436055,10.087166959488675 l-0.5183866936756859,8.97187071505557 -0.5955224696459863,5.656218235574888 l-0.763954770243477,3.010647886276274 -0.5886482321895578,0.940359249036673 l-1.326525650011607,0.37677478289007094 -1.3002207847226293,-0.7608870327413472 l-1.7593452726032415,-2.007963633794874 " fill="none" stroke="black" stroke-width="1" /></svg>