<?xml version="1.0" encoding="utf-8" ?>
<svg baseProfile="full" height="110.51980693318261" version="1.1" width="86.55579476590194" xmlns="http://www.w3.org/2000/svg" xmlns:ev="http://www.w3.org/2001/xml-events" xmlns:xlink="http://www.w3.org/1999/xlink"><defs /><rect fill="white" height="110.51980693318261" width="86.55579476590194" x="0" y="0" /><path d="M25,25 m0.0,0.0 m13.842890218583337,7.45214648912504 l0.016976609781931527,0.44085930398389084 -0.20295052091167748,1.746796233394513 l-0.9055848104067041,2.7918854720353194 -2.6180691632009006,7.380495327703618 l-2.5907929724652323,6.175112370721513 -3.0989234389604468,5.517826939525106 m6.355587340533104,-10.3127616032473 l1.457260028599533,-0.3851713618759421 4.186755785354634,-2.414564337654986 l4.1048859974915946,-0.6658091962119109 0.8289815563991045,0.83379303223862 l0.05075826517119816,1.3208030722538457 -2.082235434053513,6.300726368039335 l-1.81087159620958,5.109802044180804 -2.0937694505873616,5.217549605178796 l-2.407930425051441,5.280349237751218 -2.0536483161753245,4.81552238543445 l-2.017166207041219,4.175767514697469 -2.048587058950073,3.7225854003176604 l-2.0740674484812844,3.27850928412596 -2.1545451972249596,2.7375833514655854 m5.063496792186338,-28.179192291747327 l1.4904575889848077,1.350751927651011 1.7984265738321308,2.235406006816291 l1.291499243938962,2.1567318327806357 0.6905701047888171,1.7425968712343827 m11.554063698160734,-18.86712306580261 l1.3150669685812961,1.3349542410542077 1.246001603753965,2.007577007774642 l1.1888819215672395,2.391641576948972 m-7.119149372224115,4.142292226436474 l1.8806540228512718,2.1535201604903045 1.6056730341952719,2.3290933264497253 m-5.7062357427727095,5.952061947699572 l1.278929584450511,0.8439656170337063 1.6742591279755827,1.7200594018820599 l2.24281706960847,3.0791931859249244 1.0379461743888485,2.162668518365397 m-6.90618117473582,7.456372547387915 l0.882602952085912,0.4535772781463274 1.4180333971914922,0.01561646907962182 l13.330907160426907,-3.0407633713324644 2.612120274471305,-0.49831080494380425 " fill="none" stroke="black" stroke-width="1" /></svg>