<?xml version="1.0" encoding="utf-8" ?>
<svg baseProfile="full" height="118.25319302931501" version="1.1" width="105.53645536131528" xmlns="http://www.w3.org/2000/svg" xmlns:ev="http://www.w3.org/2001/xml-events" xmlns:xlink="http://www.w3.org/1999/xlink"><defs /><rect fill="white" height="118.25319302931501" width="105.53645536131528" x="0" y="0" /><path d="M25,25 m0.0,0.0 m28.11822165090627,6.48474204551437 l0.4189202141734537,0.5019451962372932 0.6503062597066813,1.7486915685648703 l0.02715350077513416,7.202260496363655 m-22.38957287178197,0.5347774316020957 l-0.9256811495836277,6.442611935224663 -1.744718976373441,6.7577464060242916 m2.9838005705966966,-10.744932724316993 l27.703627302705502,-3.451827378896411 16.421222639716426,-1.2068827417148003 l2.1118200657378425,0.07238887740995972 1.3043073247979702,0.34537228648114066 l0.678034647291685,0.5433564991505404 0.17901418264665722,0.7135839289254625 l-0.7800779683180277,1.692210592806811 -3.2813953618683733,2.992872549393315 m-36.893248313414674,13.082797260226082 l1.7913389154277444,0.35356728523234765 2.015751681457364,-0.07701077195607271 l22.768528060318467,-2.806916617955216 2.043161611316567,-0.6190658129380217 l3.013006486899948,0.20058308800556313 m-16.541911331617342,-9.436872950865078 l0.7629222894382655,1.156167307725023 0.274506403285884,1.39230836811778 l0.0022963751632952794,29.79905738219544 m-1.1297532494526559,-10.609151153867606 l-0.5516654917935343,1.8058565285399666 -1.5444804654032909,2.0985949025029313 l-5.914044902560587,6.0092281439259985 -6.746911874254647,4.877863298079159 l-6.6579564954963875,3.541868615636359 m23.893021271569417,-18.95535320795372 l6.417688612084018,13.034931235115389 3.972970230516709,6.0790111547586045 l3.0940159044581392,4.019529309760417 3.0628796433787224,2.6772826962593985 " fill="none" stroke="black" stroke-width="1" /></svg>