<?xml version="1.0" encoding="utf-8" ?>
<svg baseProfile="full" height="108.21723720058799" version="1.1" width="109.49251411249861" xmlns="http://www.w3.org/2000/svg" xmlns:ev="http://www.w3.org/2001/xml-events" xmlns:xlink="http://www.w3.org/1999/xlink"><defs /><rect fill="white" height="108.21723720058799" width="109.49251411249861" x="0" y="0" /><path d="M25.000002305023372,25 m0.0,0.0 m18.834006786346436,0.8459723740816116 l0.03732819575816393,0.48188410699367523 -0.41472170501947403,1.1008475720882416 l-1.035548523068428,1.286698579788208 -3.6535048484802246,3.1340292096138 l-4.66329038143158,2.89519339799881 -4.870691299438477,2.2166021168231964 m-4.233580529689789,9.690828919410706 l5.460813045501709,-0.17723044380545616 19.174904823303223,-2.158716171979904 m-9.820454716682434,-10.73302149772644 l0.40718723088502884,1.1105695366859436 0.21521437913179398,2.0860040187835693 l-0.14180613681674004,44.742069244384766 -0.43683912605047226,1.2910735607147217 l-0.6322501599788666,0.40443267673254013 -0.7498855888843536,-0.24888163432478905 l-0.7887733727693558,-0.6688694655895233 -1.8157342076301575,-2.193269431591034 m3.9354410767555237,-33.03904056549072 l-2.470506727695465,5.874643921852112 -3.1463435292243958,5.842885375022888 l-3.6486437916755676,5.361325144767761 -4.790971577167511,5.839645266532898 m17.421715259552002,-18.74908447265625 l2.9496362805366516,2.6758018136024475 3.3555275201797485,4.624726176261902 m3.6580416560173035,-27.60512351989746 l0.6703276932239532,0.8428921550512314 0.5454007536172867,2.150168865919113 l1.7774136364459991,12.544218301773071 m-1.3007953763008118,-14.611426591873169 l12.571115493774414,-1.7203781008720398 9.243943691253662,-0.8675210177898407 l0.9326580166816711,0.953398197889328 0.20377082750201225,1.1828359961509705 l-2.522033154964447,10.916765928268433 m-18.852784633636475,2.3565980792045593 l20.11728525161743,-1.9247415661811829 m-21.54900074005127,12.029279470443726 l1.7094409465789795,0.16010819002985954 9.436113834381104,-1.4051038026809692 l8.187169432640076,-0.8915018290281296 1.9106850028038025,-0.09988280013203621 l1.6203232109546661,0.3713781014084816 m-11.82187795639038,1.8912412226200104 l0.5422006547451019,1.5532419085502625 0.008602903690189123,21.53604030609131 m-12.454452514648438,-12.060389518737793 l2.313821464776993,0.2110673487186432 20.0673770904541,-2.1568122506141663 l1.8627236783504486,0.2332860417664051 m-29.699876308441162,15.627692937850952 l3.5306841135025024,0.042487913742661476 16.80113196372986,-1.602337658405304 l10.533397197723389,-0.6237434223294258 2.6709407567977905,0.025803647004067898 l2.3005348443984985,0.6180722638964653 " fill="none" stroke="black" stroke-width="1" /></svg>