<?xml version="1.0" encoding="utf-8" ?>
<svg baseProfile="full" height="119.94079147228662" version="1.1" width="119.64970954099114" xmlns="http://www.w3.org/2000/svg" xmlns:ev="http://www.w3.org/2001/xml-events" xmlns:xlink="http://www.w3.org/1999/xlink"><defs /><rect fill="white" height="119.94079147228662" width="119.64970954099114" x="0" y="0" /><path d="M25,25 m0.0,0.0 m22.802436906014044,23.382597248245826 l0.33720514532769696,0.3380261247697261 2.0962197161834295,0.48837858993411754 l10.763352524119433,-2.4235391945177818 1.282000335066537,0.05422777845764833 l0.49958554202298416,0.40579516332075644 0.1493450559384432,0.6329062563242185 l-0.4887511276910264,0.7457566990257878 -7.309098778842333,7.0464613016969855 m-1.176315022927527,-2.3913753639585393 l2.6178196861015026,2.6945095450762673 1.047955220822349,1.656233840967445 l0.6606688867116979,1.5347940475355284 0.7403869105163015,7.342046334556471 l-0.38085206041994113,6.227228821858161 -0.9006255260696278,4.363186337810157 l-0.46746284727902626,2.5347301819951653 -0.9467171564382622,3.2180885946822744 l-0.5326763973847624,1.212291903979981 -1.2305713399784801,0.7524092733429258 l-1.1852990747598453,-0.5228601179982447 -1.4591091903237177,-1.6554916590863857 m-5.32828832506538,-13.359172280745483 l1.1615442089188799,0.2922899754569334 1.5470902550497052,-0.46651598874041617 l13.988421019060201,-9.510887585388023 m11.435681387710767,-16.427914873187127 l-0.05463110427905629,1.2752163799943865 -0.4324274091125286,1.7004276647108396 l-2.7762627184678,6.036018015978761 -2.905164128388783,4.573613605817127 l-3.589751475339261,4.069234353880639 m8.61570322677517,-9.538968706130438 l2.5738669458739065,-0.07985386275598874 9.634054189845092,-1.7997839922301595 l1.2098821395643777,0.17835992790187208 0.39574661566550196,0.35934896834934316 l0.10663393638104995,0.5018838755552413 -0.4639039581071626,1.2172346397126426 l-4.518379982911203,6.373513157685553 -3.2823695384448146,5.7942968059100695 l-3.1613116082390778,4.553929492745521 -2.6398656671504495,3.158656068104845 l-2.9550379402216578,2.93688580645773 -3.2081605814129857,2.5504645122456058 l-3.465767785739389,2.177206943819702 m7.771960342606264,-21.915327794449404 l7.933146104099329,7.584599807603503 9.242845626040573,8.038746923728608 l3.542581868490876,2.636205467812223 2.3523764910791067,0.8782053059375498 m-25.732618854572337,3.3283883755708 l0.6417204877417327,0.844610373600403 0.5963672335114835,2.4695175372478912 l1.6587446784032,11.873960862067365 m-1.3778889298956665,-14.215727510268051 l9.774430692261053,-1.5491477940503773 8.055335975724137,-0.7508291058347392 l0.48262544942247104,0.3367106957475612 0.24830926992812577,1.084566128134845 l-2.516923990912408,11.112238733352497 m-14.471355819836349,1.7129944788787121 l15.743738703949148,-1.2369737340380496 " fill="none" stroke="black" stroke-width="1" /></svg>