<?xml version="1.0" encoding="utf-8" ?>
<svg baseProfile="full" height="91.53063470034192" version="1.1" width="104.3869568949488" xmlns="http://www.w3.org/2000/svg" xmlns:ev="http://www.w3.org/2001/xml-events" xmlns:xlink="http://www.w3.org/1999/xlink"><defs /><rect fill="white" height="91.53063470034192" width="104.3869568949488" x="0" y="0" /><path d="M25,25 m0.0,0.0 m27.81135391254266,3.246009048736479 l0.35863446529573356,0.43230350114231736 0.5627307125389817,1.150633339096175 l0.23064040558633253,1.2002705199753754 0.0014907785567380878,8.068524869945044 m-19.125892848986396,1.623892522796955 l1.8246743271089605,0.2755758475130367 1.8187092284786892,-0.04610784379976232 l27.09508839090863,-2.100166067782442 4.072300995975112,-0.07219072329030189 l2.9445373543386344,0.31152438732119964 m-30.306627056775646,8.81229741396152 l2.2209967448642574,1.46694919332669 1.9788581751424874,1.9604148491999402 l1.505843680741949,2.1755526219603922 0.7503861198855984,2.196392419606349 m17.471034133053756,-12.388380433387747 l0.2172145082638513,1.2044814436965787 -0.15294711341172992,1.117588402549414 l-4.393262570210146,10.829896717510369 -3.108188466151376,7.061798402934802 m-25.742827044574643,2.7101779801602666 l3.9540412290270215,0.29319628716925344 16.911933165769696,-1.321874706676139 l14.180683093620003,-0.8905286477714839 7.7997729251682255,-0.19057851644162738 l3.505777648191403,0.33943801736318513 " fill="none" stroke="black" stroke-width="1" /></svg>