<?xml version="1.0" encoding="utf-8" ?>
<svg baseProfile="full" height="111.42117116852901" version="1.1" width="117.79077994636638" xmlns="http://www.w3.org/2000/svg" xmlns:ev="http://www.w3.org/2001/xml-events" xmlns:xlink="http://www.w3.org/1999/xlink"><defs /><rect fill="white" height="111.42117116852901" width="117.79077994636638" x="0" y="0" /><path d="M25,25 m0.0,0.0 m20.545122642830282,18.49332902733601 l-0.0018931832966924433,0.38672713225713196 -0.3941819656498847,0.6611481381569747 l-1.117023735870284,0.8771217830743533 -3.7487165560707796,2.027453529525278 l-4.911227926604112,1.906867626930684 -5.657399211696101,1.6203407512117642 m-3.6848081158501444,6.961893214584048 l1.6481717840231236,0.2783718543760504 1.8774711411144542,-0.110593673390952 l18.57357277237263,-2.2872370897845076 1.2525395712971266,-0.013819316321811211 m-9.058660800269166,-6.203272839038885 l0.45754241456832323,1.036056664201698 0.16885875978783,1.2317907135548138 l-0.0574065191173052,33.32074925791186 m-0.7398531500590018,-27.411420880122332 l-0.5777085698811538,2.48036006038077 -3.612350305563623,5.942231768367782 l-3.656375136260949,4.704066158074659 -4.4877978148719615,4.711183845035292 m15.161993762184625,-12.659613905603662 l2.834579627720389,1.7946097524982092 3.135640196270688,3.1480904510242103 m5.56561560479611,-22.39546388570871 l3.143027471480797,1.4082609869746245 2.582862106539522,1.957526537567689 l1.7138152440889831,1.6894791246686502 0.8104186138648181,1.1884187865985574 m14.286428499824405,-8.029081372697654 l-0.20349531066939083,1.4805669509263966 -1.4468595441686023,2.3022418922620433 l-2.112466370816217,2.597347844472629 -2.6274864518216146,2.6621036560090365 m-15.849798908534904,3.094135442964333 l0.909033533135255,1.3262571092155533 2.0734267437992635,9.349027355839453 m-1.5597447844084518,-9.919801422006687 l19.08130107816323,-2.187646978313553 1.7222936043521013,0.02626495915263617 l1.2507137282027496,0.20884602504429395 1.0087748613672238,0.7500689790849104 l0.02669548663181481,1.243782015106462 -2.654976704093173,7.706794834658074 m-18.65862802936812,1.4945121694042267 l19.545951010958234,-1.2925740195600537 m-11.210327426440518,3.456186464544653 l0.10186763711920552,1.3398517558581804 -0.6117006729610189,1.9664777405518687 l-1.5715046281110074,2.7561132228300567 -2.1258405531144065,2.7583330050283665 l-2.094171722134306,2.169615594889204 -2.4216910625686263,2.0664437245147798 l-2.7308686138387666,1.8886491656071096 -2.2824104658061284,1.2310519831119107 m21.68341252046411,-17.447681267403155 l0.5189322965790174,0.7466818662388012 0.25593736272672296,0.8680719531683736 l0.14187109291614863,14.648205067974484 0.4559116439489331,1.5672904638987006 l0.9664700559244371,0.9356230974319364 1.755114893074482,0.6488831486558251 l4.2159587824684746,0.2638731657255769 4.929036493650927,-0.14057023169342572 l2.737880884454881,-0.4270876906424199 1.1265968939341933,-0.45636580747652733 l1.0046590549102663,-1.0760295932442705 0.28275591112864756,-1.0190255486742783 l0.10589840360837857,-1.9969189796127063 " fill="none" stroke="black" stroke-width="1" /></svg>