<?xml version="1.0" encoding="utf-8" ?>
<svg baseProfile="full" height="107.62834686785936" version="1.1" width="109.49251674115658" xmlns="http://www.w3.org/2000/svg" xmlns:ev="http://www.w3.org/2001/xml-events" xmlns:xlink="http://www.w3.org/1999/xlink"><defs /><rect fill="white" height="107.62834686785936" width="109.49251674115658" x="0" y="0" /><path d="M25.00000341096893,25 m0.0,0.0 m19.121944904327393,1.6655577719211578 l-0.03013859735801816,0.4387500137090683 -0.4080171510577202,1.0564638674259186 l-1.2296546250581741,1.3848471641540527 -3.8013681769371033,3.3897852897644043 l-4.314149022102356,2.86613792181015 -5.8715081214904785,3.035253882408142 m-2.3431697487831116,6.835263967514038 l1.3423985242843628,0.354616679251194 1.351737231016159,-0.08239032700657845 l18.947752714157104,-2.6371273398399353 m-9.14990782737732,-7.666579484939575 l0.5572668835520744,1.2204857170581818 0.2538619562983513,1.5301917493343353 l-0.05306488834321499,40.086283683776855 -0.19645269960165024,2.636575400829315 l-0.5165160819888115,1.2734617292881012 -0.7280805706977844,0.2407691814005375 l-0.8299575001001358,-0.4615025594830513 -2.0134279131889343,-2.2980041801929474 m4.292415380477905,-33.57863903045654 l-3.144262135028839,7.711405158042908 -3.6516091227531433,7.0233964920043945 l-3.83566677570343,5.783214569091797 -3.7504300475120544,4.366785287857056 m16.169908046722412,-19.473437070846558 l3.0909463763237,2.675967812538147 3.5162827372550964,4.626910984516144 m11.5949547290802,-32.687556743621826 l-0.22971658036112785,3.414575457572937 -2.4182190001010895,6.6006070375442505 l-3.233913779258728,6.726255416870117 -4.876849353313446,8.38039755821228 m6.166951060295105,-7.677446007728577 l0.20456837490200996,8.239128589630127 -0.21844115108251572,29.60815668106079 m17.919474840164185,-55.290656089782715 l-0.19470170140266418,2.3788265883922577 -1.1391539871692657,3.51407527923584 l-4.097830057144165,8.747154474258423 m-12.475171089172363,2.0864398777484894 l26.381545066833496,-3.129744529724121 m-12.562105655670166,3.4366488456726074 l0.8276227861642838,2.2949479520320892 -0.13214819133281708,30.662243366241455 m-13.768328428268433,-22.027153968811035 l24.639787673950195,-2.531599700450897 m-25.27634859085083,13.453190326690674 l26.012749671936035,-2.29509636759758 m-26.01529598236084,15.202757120132446 l29.60594892501831,-2.6983806490898132 " fill="none" stroke="black" stroke-width="1" /></svg>