<?xml version="1.0" encoding="utf-8" ?>
<svg baseProfile="full" height="111.19315649640842" version="1.1" width="119.94782318477488" xmlns="http://www.w3.org/2000/svg" xmlns:ev="http://www.w3.org/2001/xml-events" xmlns:xlink="http://www.w3.org/1999/xlink"><defs /><rect fill="white" height="111.19315649640842" width="119.94782318477488" x="0" y="0" /><path d="M25,25 m0.0,0.0 m24.839537154110957,20.015429584610295 l-0.04692852097015845,0.40845852009055583 -0.46249029555220933,1.019769223925845 l-1.071492363661848,2.16456998802984 -2.2850695348618797,3.712898012175778 m-7.762491935856457,0.6874009228826544 l0.8290121101915422,1.3713146433181416 1.8903224431154644,6.968732097209785 l0.5471123808799839,5.085775746331775 m-1.8794899595562222,-12.98182720692766 l18.528963229005544,-1.931269660094676 1.3651719189727143,-0.1520535185068306 l1.5986800749293775,0.19305959128261274 0.7005328973309273,0.7512531650415425 l0.01410044162655183,1.2370462849040007 -2.12136634091474,10.789700050006418 m-9.831305367786376,-10.797897276094268 l0.5358061428483245,1.075683772547785 0.03512507537750236,9.565719788351812 m-9.0856786985533,-4.859414376683722 l19.34284502326851,-1.890493543004429 m-18.284736224386666,8.18492538062869 l16.86494864590289,-1.6009123397156007 m-12.85994622724335,4.42585966908358 l0.1240860534619591,1.5416007124146562 -0.5953929943242969,2.0854129338613987 l-1.2132542516532636,2.8765744983521326 -1.598177237724399,2.9531731221615165 l-1.5898978548864475,2.384470989370817 -1.9090389070244107,2.354410844386926 l-2.1993545486362405,2.1468540211559732 -1.8779269606801348,1.4069308553110798 m16.861764205359158,-20.138682330365754 l0.7383788961877842,1.260898272187066 0.20121630037538424,0.9855263263671119 l-0.08156075575319822,13.411971330128118 0.6794963608437974,2.197346598836923 l0.8654204618646334,0.9032575814101187 2.26908656919298,0.6761514972075545 l5.607262840972196,0.4509797660386286 20.019487628354224,0.16113410422791274 l6.473730978880223,-0.4574345750514151 2.978575995419682,-0.6594833669875114 l1.8524391673361746,-1.0371647099591779 0.7872199821126231,-1.3903793746048982 l0.15309918687935545,-2.446777070509871 m-33.65384033637034,-11.465464495248893 l-0.04451148296100581,1.2737430279480468 -1.2262605838825662,7.4830831256338985 l1.6638484208865958,0.3238913574602582 7.436565023293484,-2.174155403826521 m-1.6656343379971579,-2.4625258718470744 l1.7516622849182597,2.4672209838046713 1.0474675865768066,2.261168639769624 m1.3580663925079208,-29.941502626508093 l1.5719051308069965,0.716356598495553 2.0164311856460237,1.5157659711459948 l1.3271886304323692,1.2695524329717582 0.710826020705663,1.029499057318908 m-7.703382720613421,4.122365179853993 l1.6611613910872842,0.8278359811986589 2.273888086962329,1.5431762368477793 l1.4502172555308963,1.2458110945263596 0.7971129360937584,1.048272924352833 m-7.895222484371459,6.137253886237171 l1.714490751323657,0.3057736772638008 1.99607760741397,0.0006977528838699419 l16.484113525612447,-2.4325989306553604 3.722151356244564,-0.33179671084070783 l2.1896767624166085,0.09945550757061758 m-10.98821551249259,-19.303264518325587 l0.6977329460002653,0.741367004477676 0.30889282403422247,1.1455640961510964 l-0.13008434492268064,34.14196062437797 " fill="none" stroke="black" stroke-width="1" /></svg>