<?xml version="1.0" encoding="utf-8" ?>
<svg baseProfile="full" height="108.61015077711795" version="1.1" width="97.72904831882991" xmlns="http://www.w3.org/2000/svg" xmlns:ev="http://www.w3.org/2001/xml-events" xmlns:xlink="http://www.w3.org/1999/xlink"><defs /><rect fill="white" height="108.61015077711795" width="97.72904831882991" x="0" y="0" /><path d="M25,25 m0.0,0.0 m18.522188757833327,3.4616822883955467 l0.024181288291204694,0.4654280529852066 -0.2390719553590186,0.7967594456318396 l-1.1484360547577466,1.3256863812240427 -3.953776020316521,3.0301427664075558 l-4.675265199222943,2.5278649153369 -5.65130369638547,2.139128660842479 m-2.814144078758778,8.72575273995004 l1.5737652307682075,0.39534375611063777 1.7547123789369514,-0.08208642289959818 l18.450856280249415,-2.368219817683321 m-8.85071124674124,-9.012191278811063 l0.7731037284976644,2.5169747976062378 -0.0480536201214932,40.66646989683638 l-0.2385070899191278,2.716519662975417 -0.5491696138911687,1.1624660900003887 l-0.7650234894797582,0.14242884220927338 -0.8852795491496266,-0.5280114868767618 l-2.110305320351827,-2.412133895938343 m3.647218096574097,-32.683998086551505 l-2.450807705575683,6.172710119822084 -2.9407467420767666,5.740931516894682 l-3.080518737836988,4.760114216282962 -3.010096999284906,3.5946991149517786 m14.279586486977902,-15.470101027782368 l2.5166579403992326,1.839556712976399 3.2088607077479985,3.4836544495441233 m16.23309752965595,-31.149740052622995 l0.817090104543368,1.4085375427847235 0.09937397611102407,5.988325815559963 m-12.883229859305125,1.1073437845664562 l-0.6522649053703339,0.18298420159223305 -1.1768122612602478,1.730598151959976 l-2.3325469568493897,2.7799799302814945 m4.1628653739710115,1.1141158447400128 l0.6060986422912787,-0.4791399698413973 5.984391973386566,-0.7361027904064062 l12.235439354617842,-1.4231175953961475 1.006112910499651,0.18455185859257978 m-22.300241307576112,6.3914693229767225 l0.5872849910583594,1.5518756208079694 1.4835492387071927,8.515228380478272 m-1.1222206440228335,-9.229420423427088 l16.790557683974612,-1.9472244206952078 2.03521001593497,-0.3568899307732257 l1.9166486266959153,0.12814612582735896 0.5465459957915372,0.4099044515740686 l0.22905731530455042,1.0690231615136825 -1.9488239782273458,8.02427592778177 m-17.659328138864037,-3.9443115337597248 l18.546447627791906,-1.4654573531236281 m-18.211961777756606,5.897048257962392 l17.196054880976,-1.4425689207965857 m-24.541101759497973,2.3824030910448046 l0.45240005300693703,2.4336989115385412 1.1185494073538265,19.233662250687942 m-0.8346318715128561,-19.993533808097855 l25.615371317001085,-2.0250719122497394 0.7710656473334606,0.05832795009770725 l1.1352705526260527,0.4911244618383311 0.3102646810671931,0.4771516668931637 l0.17355010232550372,1.4282314679683041 -0.47044273536275644,8.514276737219145 l-0.7847913399455952,5.708461954898213 -0.5079276822837251,1.9196064361732552 l-0.5939313085599167,0.9412376049469326 -0.6541655876831748,0.34635522640148075 l-1.3634554796659706,-0.5436731685952615 -1.47823048563301,-1.4885319271317616 m-16.169458174560525,-28.884367137509937 l0.5173045692915824,1.4643293189188535 0.16964630715568216,19.92517865479953 m7.271264990708378,-20.269186168323294 l0.5837920462494878,0.9609823546107551 0.18396591853670313,1.175668761877482 l-0.051393052289184483,17.64681402640048 m-12.636352531006482,1.2821775995004852 l1.4986167176588086,0.42784871211395165 1.3537259901105685,-0.002112129229044177 l14.476952250996284,-3.496176378586274 m-2.359434275337282,-3.601681993379556 l1.3258218746333144,2.921203453293959 0.9801178426432483,3.6630562991855697 " fill="none" stroke="black" stroke-width="1" /></svg>