<?xml version="1.0" encoding="utf-8" ?>
<svg baseProfile="full" height="96.3919322662747" version="1.1" width="98.80921173109547" xmlns="http://www.w3.org/2000/svg" xmlns:ev="http://www.w3.org/2001/xml-events" xmlns:xlink="http://www.w3.org/1999/xlink"><defs /><rect fill="white" height="96.3919322662747" width="98.80921173109547" x="0" y="0" /><path d="M25,25 m0.0,0.0 m28.402436156667683,6.536755948436588 l0.35262241106681563,0.2563386897751252 1.606501126114443,1.3535170381860628 l1.097667999304526,1.6497345482407677 m-17.011386360590834,3.213747910654288 l2.409384895797021,0.17173401350034162 27.068648749918623,-2.4633347016257043 l1.756504616757786,-0.07945121246265704 1.2395159210536624,0.27790007548859297 m-25.39966015924164,5.004313932928117 l0.4328804209030858,0.3641894048930742 0.36046258402490233,1.0829701437726065 l1.1093076692713293,4.800908965889256 m-0.9144160085715799,-5.847513025581921 l15.499927346219124,-1.4714899582666021 0.7369829455564015,0.07719677559909803 l0.4083924944443822,0.2775177945394783 0.1480933863431056,0.4066022401735939 l-1.6289020407798027,4.394377273066281 m-13.910195713637503,1.5767036583839436 l14.62896365682664,-1.3992811341398719 m-24.0800387154735,5.686671091736097 l-0.7323649110371928,3.34982647475613 -1.5158614628720073,4.370195944744075 m2.978023201331768,-6.555982082488004 l27.08564729893501,-2.0621608834228686 3.581628833930768,-0.1738013335728997 l1.742819165554793,0.11252398967212988 0.9327902747659806,0.29018091379206606 l0.40297961515597935,0.4227519302298158 0.01985633335570716,0.5182632956954045 l-0.7759853183099149,1.194037809038476 -2.248271097099231,1.8938310321648677 m-27.34606242695783,3.3300860676745656 l1.6354959064809584,0.16367157967682222 2.342395068343308,-0.13793333796307414 l16.0479671823182,-1.607882675791562 0.7817505597852726,-0.06937850834478686 l0.998281254299026,0.1853525361884735 m-11.4328836203367,1.2819433519632 l0.38675317187415836,0.8212855969621004 0.12165285052057602,0.9663462279922783 l-0.22874310462558411,11.724507432887691 -0.37312010203491247,0.5025287429848694 l-0.5383745513965679,0.0016286882483591359 -2.3609249485642545,-2.1210803754758007 " fill="none" stroke="black" stroke-width="1" /></svg>