<?xml version="1.0" encoding="utf-8" ?>
<svg baseProfile="full" height="101.77558429278398" version="1.1" width="95.0344075185678" xmlns="http://www.w3.org/2000/svg" xmlns:ev="http://www.w3.org/2001/xml-events" xmlns:xlink="http://www.w3.org/1999/xlink"><defs /><rect fill="white" height="101.77558429278398" width="95.0344075185678" x="0" y="0" /><path d="M26.060143170554312,25 m0.0,0.0 m7.952702866805038,11.245610859692015 l0.37612352459648807,0.34134568341304933 1.038403068355078,1.5409075072191691 l0.22637996519441686,23.910119550272942 m-9.77499796731027,-13.31626354836048 l0.5949608961095632,1.540816602282132 -1.4737155243046252,9.618609388158125 l0.21385015331283733,1.1019913801651147 1.3338857968185214,0.17300214824391746 l9.501988717747283,-3.0320142939544614 m2.3124089755848365,-12.984985797787104 l0.3926557023551837,0.7170545012516084 0.1724314841440059,1.003839780789317 l-0.7566325197047509,13.345507864608853 m4.681814382816278,-20.327344089062162 l2.7204511477126583,0.16484155361658082 17.721233066880682,-2.159121097089864 l2.8861682604536036,-0.22062466018716562 1.898518027389557,0.22550431146087735 m-20.079384107045016,-5.996842164966349 l0.5529950137169145,0.866383169722837 0.2949866957578278,1.0668481431185861 l0.9492899963594471,16.411831820017944 m10.701818231264228,-21.098835931623103 l0.5256995393085813,0.9380953746537326 0.1188682848651685,1.1224871209525031 l-1.4223060386569408,18.267776216743695 m-18.533123343633406,1.8014058604958563 l2.472302760898467,0.2845685229083112 10.242009463879535,-1.2257181302516271 l13.995926270628836,-0.8649467205277452 2.1365515557134818,0.2476302452636119 m-23.724374283365947,7.244223865217309 l0.5611349045368316,0.87290099337026 0.16083814550210232,0.9031496706379594 l0.0037646338027904408,18.045828592317743 m0.2992367984704697,-19.128589710676753 l14.083569528304134,-1.6519335536570583 1.4747972250218162,0.032804261385264 l0.4950562161604845,0.2794784369158585 0.31867743627405026,0.9867879772075117 l0.010134116181114195,18.951033005022584 m-16.004870232636073,-10.435796189670157 l15.303293963321806,-1.354074101711324 m-15.286830089586765,10.436044715446968 l15.216612796179751,-1.1486327899841031 " fill="none" stroke="black" stroke-width="1" /></svg>