<?xml version="1.0" encoding="utf-8" ?>
<svg baseProfile="full" height="106.56166185568262" version="1.1" width="102.30902278077946" xmlns="http://www.w3.org/2000/svg" xmlns:ev="http://www.w3.org/2001/xml-events" xmlns:xlink="http://www.w3.org/1999/xlink"><defs /><rect fill="white" height="106.56166185568262" width="102.30902278077946" x="0" y="0" /><path d="M25,25 m0.0,0.0 m32.55619126868996,10.698079928966049 l0.3437190903629697,0.21643772852939752 1.630015846294808,1.596792629560722 l0.9721982423176331,1.864738758581651 m-17.09353337362674,3.445086633503061 l2.500243838217649,0.20888617168060897 27.569354229534046,-2.5265176268941385 l1.8524765766267737,-0.07054044284506772 1.2831112698344438,0.2889502663681556 m-26.675488728388068,5.379438364626449 l0.42181557079072785,0.3555222314600437 0.3934617222231524,1.2395645913026305 l1.1886257306821875,5.361168683952466 m-1.0048023120668648,-6.4784095181375045 l15.930463233396619,-1.677897972778147 0.8073637660979212,0.5465884635659068 l0.0407525887616279,0.4861781355973899 -1.6207805162731694,4.580128281542079 m-13.830846977312552,1.7210766489327696 l14.512830603387924,-1.5297641255373646 m-24.21347700255414,6.102185689918067 l-0.7371256701642274,3.670965246536971 -1.5408050371973847,4.739012476698041 m3.101595273700469,-7.1210550331303155 l27.215967705669126,-2.2153743971661957 3.4338255378089055,-0.19246547097348402 l1.8851865715175178,0.12157744580424006 0.9628223157383229,0.3176981116004966 l0.42054757591989184,0.46096290527104733 0.0033138407899394855,0.5610474022038402 l-0.7971390851733258,1.296525038402413 -2.245061724893372,2.0655895833627884 m-28.621227626014303,3.862092622399629 l1.7276041818848022,0.180521825857474 19.764433043952668,-0.1436663529189819 l3.563422569677872,0.09102873229686777 m-12.754781303129016,5.411370473783748 l0.4832484882879183,0.6555675610329837 0.1632079183418965,0.7874026528477787 l-0.14610553659297204,3.9344404761158396 -0.9239640967615262,2.6730070223516216 l-1.4934571149720703,1.963564495410598 -1.8903832157540135,1.5452588234967846 l-0.6036642180990013,0.0888966925031924 -0.5099014007534649,-0.13044004706281773 l-1.3763138872533247,-1.2683098711849112 " fill="none" stroke="black" stroke-width="1" /></svg>