<?xml version="1.0" encoding="utf-8" ?>
<svg baseProfile="full" height="98.60840628888768" version="1.1" width="94.04035886827353" xmlns="http://www.w3.org/2000/svg" xmlns:ev="http://www.w3.org/2001/xml-events" xmlns:xlink="http://www.w3.org/1999/xlink"><defs /><rect fill="white" height="98.60840628888768" width="94.04035886827353" x="0" y="0" /><path d="M25,25 m0.0,0.0 m31.220012648518562,3.095742491060572 l-0.03746212589175629,0.41093850745444904 -0.506883028733571,0.9139193158596972 l-0.8063247675974398,0.8149345598212178 -4.082216855084018,2.49854395387259 l-5.6602668201427075,2.541878100665759 -6.470946437112414,2.0934404710376797 m-4.792311047493508,9.345410212898347 l3.1793804706906337,0.16936462759895807 24.734480860403842,-3.387240590342267 l2.703033141684551,-0.20069526320534797 2.280547499221462,0.22365420110325265 m-37.35827394896327,15.140834247969467 l1.7567813360439293,0.3830183617869908 1.6158176339118342,-0.0786946330261273 l30.196677229398716,-4.330130670473322 3.460172973120801,-0.36318646430414114 l2.6081401062978884,0.2048098959889221 m-23.423086868635117,-17.36943425598302 l1.098574192596193,0.9913595615820467 1.7572801273923744,2.1026439551492055 l1.2763453471091428,1.7840534381417874 1.4764053169247804,2.9771256185136257 l1.360203169762603,5.236747102389875 0.8873016498815485,7.57836827119293 l-0.28647379071734236,7.067685053120932 -0.7735553187999301,5.254214234530778 l-0.8410878699390151,2.64412530319887 -0.5467662213308481,0.8042062607955943 l-1.1452050965350307,0.06077042048835994 -1.178180128297498,-0.8702117922181619 l-1.691303009035882,-1.8183235198769712 " fill="none" stroke="black" stroke-width="1" /></svg>