<?xml version="1.0" encoding="utf-8" ?>
<svg baseProfile="full" height="108.08395309389331" version="1.1" width="116.69325365772893" xmlns="http://www.w3.org/2000/svg" xmlns:ev="http://www.w3.org/2001/xml-events" xmlns:xlink="http://www.w3.org/1999/xlink"><defs /><rect fill="white" height="108.08395309389331" width="116.69325365772893" x="0" y="0" /><path d="M25.358886489228595,25 m0.0,0.0 m20.632659350678768,17.245040602126558 l0.0025765932991315466,0.3637673843145554 -0.39089155756688687,0.6238463467333757 l-1.2081515052054963,0.9420502331711644 -4.123183703795373,2.0799770130307396 l-5.698049146657025,1.9291241038959228 -6.668224066050935,1.6539874256905702 m-1.8173137884666017,6.795454768170474 l1.8972565281086244,0.2636092968263233 1.9956906362336595,-0.0896512972391449 l18.812245137252155,-2.0569068007377402 1.2734958569883594,0.03804327559551554 m-9.764469120310858,-6.148369866629979 l0.4999883782308241,0.7434965574621166 0.29760706143479765,1.4880941776531214 l-0.052104676426332125,32.21238987382973 m-0.6270468591689423,-26.646543864551003 l-0.6089595192751224,1.363690124702386 -1.3455938230791864,1.9474642885817253 l-4.314387306352786,5.366508211944505 -4.384061646747138,4.4541783505585935 l-4.767969312352234,3.792048515161376 m17.997890211408752,-13.664279630671754 l3.0791375344638294,1.8977656116825183 3.4100616543396494,3.374640072561693 m25.367316070228068,-19.846267736986213 l-0.680597616942808,0.7339752452414874 -0.9422436246535937,0.6717168105529837 l-5.154780414732232,2.3298046712179934 -4.99111437221176,1.8407044963521424 l-6.622444717969567,1.6940927651959872 m-1.974809689166123,3.5322144803745927 l2.926729840152257,0.08947248909766961 22.301535110407407,-2.1374933548359905 l2.990034820573032,0.09938441727655438 2.030989721420594,0.22680035116244196 m-29.88376141477284,7.115825847540796 l1.3407542761145812,0.8841950778867649 1.0698907578697394,1.5854232619759971 l2.219791104083712,8.003900676063113 m-2.028934005288271,-10.028850390319823 l21.2924893788038,-1.8635184689578494 3.035019003614934,-0.07209562062350995 l1.188872914939071,0.17787495084964489 0.8975264227323787,0.6300730080814518 l0.0922474896449168,0.9472696884258244 -2.500299567895623,8.027902130501023 m-21.963061510775923,1.4480948239452924 l22.739843334357115,-1.3007861489711938 m-26.493044653207704,6.951774865445479 l-0.8125917992383525,1.1179046876029397 -1.348232447936766,1.669085852161586 l-1.9696536640686872,1.9653536266903988 -2.1049844610490367,1.6080294766026362 m13.550111235757702,-7.716376949816671 l1.4875374894980664,0.8206881223587085 1.6145851019920994,1.6675471355600469 l1.2138950391403496,1.751499277192875 0.8340306424176487,1.8700825964333838 m6.796421812425226,-6.730610279400436 l2.483521596942535,2.5746082222374143 1.487467022071669,2.7882142441412987 m6.35629600557013,-6.036012640695346 l1.9238730513216542,1.225109205500597 2.081274275746028,1.9079269751153896 l1.6298354177653966,1.9752449112220363 0.7248292818358648,1.4432390527453893 " fill="none" stroke="black" stroke-width="1" /></svg>