<?xml version="1.0" encoding="utf-8" ?>
<svg baseProfile="full" height="117.59390010134895" version="1.1" width="112.77445688353308" xmlns="http://www.w3.org/2000/svg" xmlns:ev="http://www.w3.org/2001/xml-events" xmlns:xlink="http://www.w3.org/1999/xlink"><defs /><rect fill="white" height="117.59390010134895" width="112.77445688353308" x="0" y="0" /><path d="M25,25 m0.0,0.0 m26.789666746299634,5.2637387790091905 l0.42851452120402034,0.49643257923865497 0.6765047962862017,1.8576397738958799 l0.009621952789361345,7.077754253831572 m-21.298982589994555,0.5849218048542765 l-0.8858148876714101,6.537532172591565 -1.6843609957655592,7.098565746510291 m2.8150038529294505,-11.122137271778065 l26.73714291447812,-3.369326348580123 15.64180932938005,-1.08926533791789 l2.0016836881122777,0.0780451944274096 1.2683664289634302,0.3480213236440775 l0.6645909539782103,0.5473712190381056 0.15674210393861052,0.7038298995151674 l-0.7925079601460248,1.6750744613012318 -3.2703503041716586,2.97757731946909 m-32.887332399032076,13.077441191791488 l0.16931451865454156,1.2837357105764615 -0.04078029127078443,1.2916685970987425 l-0.06755735294515001,1.0956283629016066 -0.9502134756591566,8.615939431748997 l-1.7057035228813318,6.4801430334025465 -1.929969580121438,4.7769299750737355 l-2.4952933331625737,4.596447902220368 -2.902036865129961,4.077352473282125 l-2.5986213637340962,2.6328378542024535 m10.716564084004935,-36.354212014258046 l16.95995108409481,-2.4115802288988255 16.286662519454584,-1.3103030187355476 l0.8044369999343488,-0.0864167025914649 0.9679616025454288,0.7055358742103014 l0.3628385500933261,0.7229524899152975 0.13326129320837662,1.7553706014530601 l-0.2727520944269056,11.300698180399966 -0.22884619757966623,10.063530274965732 l0.4471546707486688,2.5230408602095764 1.0531662481381283,1.7728017220874077 l1.8875823210517217,1.5874486244237707 3.218733995790614,0.6686362489054745 l3.6366865792147696,-0.2478252154639217 1.3895658545551886,-0.6177778006526453 l0.8672998299914662,-1.0551840732543467 0.4860773620001358,-1.4506270176196423 l0.2086752953849879,-3.6079451959043163 " fill="none" stroke="black" stroke-width="1" /></svg>