<?xml version="1.0" encoding="utf-8" ?>
<svg baseProfile="full" height="106.9604276099812" version="1.1" width="114.28577498736553" xmlns="http://www.w3.org/2000/svg" xmlns:ev="http://www.w3.org/2001/xml-events" xmlns:xlink="http://www.w3.org/1999/xlink"><defs /><rect fill="white" height="106.9604276099812" width="114.28577498736553" x="0" y="0" /><path d="M25,25 m0.0,0.0 m21.43211556544934,3.5714768947172213 l0.004233302236999327,0.42917640446208144 -0.37754060271157674,0.6996938555751487 l-1.2667635703146718,1.0579408647194384 -4.267634780946737,2.4256979798488696 l-5.29568651765997,2.2476636513011177 -5.982820998475954,1.946951527301759 m-2.517583834767652,9.194382995845109 l1.6086879848780422,0.33851979139227667 1.798334166896766,-0.07888031662830225 l18.69569390686796,-2.1275179391102257 m-9.06536305267085,-9.554513607318937 l0.5233404008272191,2.360253233817448 -0.04631349414717823,38.78273258135223 l-0.18060875968864834,2.510709415640006 -0.4993880664406469,1.246514457011068 l-0.7320029876241035,0.2431916801224914 -0.8522363295906014,-0.45642973375432644 l-2.155679835105394,-2.318650259831297 m3.862344428243286,-30.780838406168904 l-2.514222174515076,5.921144303144593 -2.9883401802617198,5.5190892458636585 l-3.1381071361861617,4.599573358221316 -3.056365620233246,3.488884375446882 m14.076046820133238,-15.41873362857801 l2.683432316162161,1.979485996294575 3.187253361614136,3.454458946965746 m16.794776764919277,-29.7216332475715 l2.2991046886777955,1.2631400145442842 2.497176294919002,2.3187352358850566 m-16.023739833165493,4.30453645081424 l2.549396261552445,0.19402149155749995 24.227664927023298,-2.3901871931524843 l3.0416155981474384,-0.1364287230331294 1.7122024023358053,0.2864199095609991 m-23.45324185166965,4.774579799023812 l-0.29807603256044346,1.468694171664299 -1.8994941637637455,2.4239683235810903 l-2.4721109029840584,2.239625292151345 -2.9674976198961764,1.995297580377919 m21.18386078897924,-8.73968194560915 l2.935911637711576,1.1367907718344479 2.9700925842653962,1.5121545682559652 l2.373670132192275,1.5402511162713264 0.9493166556112982,0.9742638274283685 m-28.038082085199818,5.660152522583562 l3.2712132235279716,0.22175818215080012 18.316423809557456,-2.1495713934961382 l2.965159278188923,-0.1569375988318678 1.5877278799010341,0.21715884353645637 m-19.739161326174713,-2.012218849638502 l0.947816304551366,0.9082350759479798 0.5369061402269297,1.3267911477169962 l-0.14771833900873713,15.135963156608405 m10.824483331196282,-20.12673092591428 l0.7813298818918002,0.8348140078746538 0.41925239199364805,1.0022305455175546 l-1.7650237533463844,16.443962997656698 m-17.593076737203077,-5.0332938038745505 l3.1144578619663363,0.1911233937595129 21.330413614654486,-2.2047922001539932 l2.250543515410351,0.13314477296485702 m-31.315817912059142,8.621329913706631 l1.4495906641124368,0.24229657809196192 2.5594019217368307,-0.028298020061483353 l28.538801553160138,-2.1757507563663503 4.635681124017177,0.22254583371731307 m-23.562597878844297,2.8554395699271775 l-0.06334498625765829,1.2259663439559518 -0.637532119739958,0.8810918576660423 l-3.9718537030827785,3.811774935008158 -5.610301462544325,3.636482313370891 l-6.568760134920174,3.2918197379202017 m12.205403136719495,-4.328656587962585 l0.4842440224979566,0.8627236367283009 -0.1800436452179166,9.766901674413978 l0.17337157417567328,0.6792198431433452 0.4617429098392457,0.2772257510760891 l9.275498196778296,-6.468294131780864 m9.189844813747044,-12.424105819534828 l0.07830915721492387,0.9164342514393 -0.7701242445317353,1.0132111995081867 l-5.148953210353082,4.232252210380212 m-8.094306106843762,-5.5825266835490215 l18.995532836011126,14.8776490325734 1.8468379000130681,1.123023429278113 l1.7980601642469078,0.530321319531733 " fill="none" stroke="black" stroke-width="1" /></svg>