<?xml version="1.0" encoding="utf-8" ?>
<svg baseProfile="full" height="101.85738595098641" version="1.1" width="105.18907389638804" xmlns="http://www.w3.org/2000/svg" xmlns:ev="http://www.w3.org/2001/xml-events" xmlns:xlink="http://www.w3.org/1999/xlink"><defs /><rect fill="white" height="101.85738595098641" width="105.18907389638804" x="0" y="0" /><path d="M25,25 m0.0,0.0 m30.985939521520425,4.499912301450741 l0.4205492596530938,0.37030162389377164 0.7154379553663509,1.0099510440757429 l0.2654169465828611,1.3659471385332922 -0.10078298783379395,40.70812716392339 m-20.590070662275657,-27.033768545058276 l0.6868312217316415,1.0034512221545626 0.16315481195109588,1.3551331735839593 l-0.9410709782170601,3.0966694522607554 -1.4804486446246028,3.617752287685723 l0.15461751233228418,0.6407757432375851 0.8674736725776911,0.3422594146551403 l18.285972343379065,-1.5115220054090788 24.29376659933578,-0.9871998660728809 m0.6886825139433544,-10.937780195260848 l0.548284781187595,0.8953173823928893 0.22532002977792115,1.018475650583572 l-1.5385082227079545,10.82756164965648 m-45.972933419724704,9.453635668605004 l0.8553605220162025,0.804685755155126 0.3860280509127635,0.976565436798327 l-0.9317183002756364,4.717332575964624 -0.9499578493499331,3.6658945209341858 l26.112794171100674,0.6077205189724002 14.84980750224274,-0.7237135470955022 m1.4661338072941328,-11.485512003950804 l0.8049594763228363,0.9891100932995905 0.2777496620606404,0.9141051036414725 l-0.7519868075263881,11.65619719237544 " fill="none" stroke="black" stroke-width="1" /></svg>