<?xml version="1.0" encoding="utf-8" ?>
<svg baseProfile="full" height="122.8408520087336" version="1.1" width="99.20729341950745" xmlns="http://www.w3.org/2000/svg" xmlns:ev="http://www.w3.org/2001/xml-events" xmlns:xlink="http://www.w3.org/1999/xlink"><defs /><rect fill="white" height="122.8408520087336" width="99.20729341950745" x="0" y="0" /><path d="M25,25 m0.0,0.0 m7.324768537535635,18.421596761196184 l0.5661025227181784,0.08517931411891472 2.7111404688903744,0.029520009414911046 l12.20905617424537,-2.33491908314984 2.029386624494339,-0.04326306817797107 m-7.881435732913074,-12.769384087986818 l0.7427119328926216,1.35289444827909 0.19872137747205318,1.9736713255185334 l-0.12849003284748328,45.63487957244036 -0.33129958613719407,1.5113097313016925 l-0.5052964931174625,0.7138960720146514 -0.6193924687504101,0.0916952938334332 l-1.4109704150557514,-1.1081769401718038 -1.650998972881584,-2.1815364454584607 m-6.513692680840704,-14.339168901763703 l0.862951122427077,0.4307552743202223 1.1094331685076013,-0.3137729142501758 l13.405577066373487,-9.62704335794813 m5.210514299578574,-23.992827908392222 l1.9675770627580749,0.22240397712492274 1.6615983209667409,-0.16070390097913384 l13.973626946282664,-2.991102200365968 3.2357288742084838,-0.12075993820133527 l0.743768869544701,0.3843781615857268 0.29620643315513495,0.6171094296738353 l-0.07357646418967298,0.7792763096455677 -1.693713280547158,7.891354439794731 m-17.715352126380484,3.39396387464701 l19.278050760780435,-2.698007890176095 m-20.235785709285754,-7.974230839008041 l0.6229157460484382,1.6682324333261003 -0.09862923310054873,7.674009448086162 l-0.5478709416866749,10.38519596927236 -0.9033187371479096,8.175767095954567 l-1.1068786883516695,6.259422425989913 -1.1264899170558105,4.5496631421682725 l-2.141046623663133,5.861744798041163 -2.011129326247821,3.778792850492579 m18.702125470832662,-30.089536907037715 l0.7993344867788307,1.723667341907235 0.0916983500157641,1.2802084966193676 m-8.207688984205136,-6.338937731390143 l0.0033097299165422197,0.310915618025026 -0.16527392463453963,1.2894598869566276 l-1.3689290176661297,3.736041002702014 0.10260268839467084,1.125722766864989 l0.36566629728648453,0.2503503409803333 0.6501169154228523,0.19212070160528993 l10.04034274816502,-1.6647837998483788 1.9196236727235383,-0.3403692249422566 m-0.049171732596209536,8.0570670162677 l1.3634128827803722,1.4256041179526087 -0.4775901348306658,1.3781630379837908 l-1.97298243515451,3.6136486875269007 -6.9637857462780905,6.493154702340176 l-0.9362994750474657,3.5931685930581456 m-4.009369408265007,11.352483449100358 l0.11418264696273561,0.386669537745159 0.3999914345341805,2.1732287507071435 l1.0552352797814581,11.660990941398058 m-1.1078400438537166,-14.090456743193187 l13.263508228152201,-2.195797090892834 1.6391919969126647,-0.0747085918222692 l0.9603247491370822,0.21559157586579136 0.6203025376510476,1.670109712375926 l-1.8169249411568296,10.635226209317684 m-13.009143598906062,2.2376914073592316 l14.084169576828174,-1.5578088879570229 " fill="none" stroke="black" stroke-width="1" /></svg>