<?xml version="1.0" encoding="utf-8" ?>
<svg baseProfile="full" height="108.33461195607279" version="1.1" width="110.78943429451375" xmlns="http://www.w3.org/2000/svg" xmlns:ev="http://www.w3.org/2001/xml-events" xmlns:xlink="http://www.w3.org/1999/xlink"><defs /><rect fill="white" height="108.33461195607279" width="110.78943429451375" x="0" y="0" /><path d="M25,25 m0.0,0.0 m7.257305608323065,23.860769617663976 l0.5633130977859883,0.08769648158680277 2.818810851347515,0.03962653294928193 l11.932218589666547,-2.0818877135542255 1.8862170631150592,-0.06625220594706348 m-7.828897767633936,-12.829125779890417 l0.7456818716750818,1.329565661023931 0.1872734129197992,1.966356555285232 l-0.14714477051048533,43.85223949186287 -0.38606462465585273,1.449832637254484 l-0.5628817403922657,0.688407749244932 -0.6708749126214945,0.03738292859299501 l-1.4538008877476538,-1.1415947694828976 -1.6637888592064978,-2.1020317130531527 m-6.529607268448539,-13.499842522178582 l0.9938526983415347,0.3828505968273763 1.1634684928099683,-0.39272102324676333 l13.299671640550109,-9.791043585659171 m4.365670863967005,-22.123471673771167 l1.8847640649586508,0.18053789299273099 8.502483670578847,-0.1679439621100584 l6.748541469139549,-0.8774265951526364 5.911581666291106,-0.7785732790456565 l2.262970418898329,0.22981686390657613 m-24.07299450654014,2.2991012367519508 l0.5501246645092076,0.9514675037198362 0.18180967270681517,1.083611853562576 l-0.0664520985510605,14.836334447606294 -0.3886543800606577,6.144828392852266 l-0.853134588436303,5.568284136289587 -1.309101857985796,4.927241648658098 l-1.7896255678476707,4.425773003799551 -1.7983294466499318,3.7854103523724913 m12.15739482345651,-36.661565901748205 l1.9575929126131082,0.12540934516031 11.820048787787988,-1.4639273743152614 l2.160402165168411,0.16368109132217112 m-18.77672994335753,9.450890605391345 l2.889856261589853,0.1381832257402005 16.391999783970668,-2.016990878126806 l3.471989908287728,-0.20200068593308118 m-19.161789673782298,3.4964037874835623 l0.6764712969573617,1.3220577017099666 0.11450996882919877,5.47044047648624 l-0.3644356892415035,5.1853642406787825 -0.7909106165997796,4.8615608094974565 l-0.9209891818401895,3.5745676084867655 -1.1830810650241126,3.1646537502470338 l-1.606490555407185,2.7883086558489634 -1.764829930350864,2.292797652156364 m16.827458225773746,-26.333883915619978 l0.2214074414025758,0.817300856970157 0.040063514416813675,1.521211697237645 l-0.9727832149209832,23.782750819589076 m0.2954233510850046,-25.00835680371565 l0.36665623963575733,-1.6577551026400867 6.881541017958575,-1.0342736585092216 l4.850616759631459,-0.5569275274751436 1.559716821394057,0.2681052963722345 l0.5105160835578707,0.3899276238667588 0.2719496087814725,0.590022339344067 l0.01787348333367531,16.336747617767216 0.09165720814213275,2.63817234405765 l0.06503464317940165,1.186220186532196 -0.5429103008653291,0.7132308846269803 l-0.6267388109233646,-0.02615003393427944 -0.7254440351480974,-0.45150349487172586 l-1.463990098925159,-1.5893360697038366 m-11.240435165492446,-17.029773458946387 l12.721738726090397,2.1324493923200825 2.834667003052954,0.9221315888795013 " fill="none" stroke="black" stroke-width="1" /></svg>