<?xml version="1.0" encoding="utf-8" ?>
<svg baseProfile="full" height="116.59223597345795" version="1.1" width="103.41421672471085" xmlns="http://www.w3.org/2000/svg" xmlns:ev="http://www.w3.org/2001/xml-events" xmlns:xlink="http://www.w3.org/1999/xlink"><defs /><rect fill="white" height="116.59223597345795" width="103.41421672471085" x="0" y="0" /><path d="M25,25 m0.0,0.0 m28.888402378265774,3.8541189529198236 l0.36719074605333957,0.3000115668451834 2.1380165618988234,1.530516080988465 l2.296778088269228,1.4257533363233348 2.0769275321624816,1.8764289258542404 l1.11374622387323,1.544533160169464 m-21.67482793128828,7.0245691357680125 l3.193658028517443,0.24823453495665881 28.96004078914633,-3.4680666181212048 l3.7880805784503506,-0.1774400789672153 2.266203729362145,0.3692158067026684 m-33.08370081577147,3.6189737140291793 l0.6896850278975394,1.359112813517557 0.24312943054605157,3.852584704268224 l0.49900013549684474,2.908016255001052 0.8917228257137142,1.472185002910612 l1.9893964564119704,1.4682488661100797 3.02960320844097,0.9206371588376823 l6.526005940332647,0.410586202299885 9.636020973195677,-0.24504388509307354 l4.958900399792304,-0.7229913695202359 m-29.438563385126127,9.546858449287171 l0.2729207898703061,0.8788793372183774 0.15874877606832158,1.24922640775405 l-0.01313113890567544,25.34708751339795 m0.2781329313059532,-26.683519014300092 l23.196514141867894,-2.1581032236544586 1.1770527479974096,0.03906964656152243 l1.0646125871418555,0.5244921775451041 0.5404591113767321,1.661980878224499 l-0.13726167757973395,24.983745108700138 m-25.654428534274285,-16.165445370555727 l16.810101792734535,-1.3402368636616082 m-16.940639591250594,13.03843338338771 l19.448610652302975,-1.5658399926329354 " fill="none" stroke="black" stroke-width="1" /></svg>