<?xml version="1.0" encoding="utf-8" ?>
<svg baseProfile="full" height="109.54751304175565" version="1.1" width="107.48620681486423" xmlns="http://www.w3.org/2000/svg" xmlns:ev="http://www.w3.org/2001/xml-events" xmlns:xlink="http://www.w3.org/1999/xlink"><defs /><rect fill="white" height="109.54751304175565" width="107.48620681486423" x="0" y="0" /><path d="M25,25 m0.0,0.0 m6.101211237888059,21.254222793965855 l0.5725684779214448,0.09297814270440717 3.1215484391037815,0.005781258261922143 l12.052905119222645,-2.076731257449095 2.0713514395888395,-0.08058674338095169 m-8.1386718525094,-13.74655219587181 l0.8133917484667439,1.417076788612265 0.22673644436954318,1.9933147144823904 l-0.14737020248129132,45.81199498713943 -0.36187690428375924,1.5542606223243178 l-0.543242145030627,0.7398130721344728 -0.6793068514709684,0.056460816451451616 l-1.4894973937127516,-1.1920041120336422 -1.7430314319170215,-2.2125759284539606 m-6.673548020747327,-13.880780345465368 l0.9446386064086674,0.29695260453410044 1.147611547809847,-0.5079802132875436 l13.789415582617673,-10.005192671964373 m5.823004081477699,-23.181370496849254 l1.8465069652700872,0.15596631958693183 1.9448340375004298,-0.18404965704699727 l13.829602901813768,-2.637465505082549 3.5004546684897107,-0.08622722480512497 l0.7461672086381702,0.9125830248948746 0.01970920398644686,0.8050009899114414 l-1.5166565882824563,7.862911189996254 m-18.06665848004947,3.1441060095122464 l19.562627055639403,-2.5975012556934463 m-20.605497520481926,-7.844258423607331 l0.65262322211084,1.6113752716181453 -0.05989939185511001,6.9242140935340135 l-0.5308581073166583,9.82902671003337 -0.8754039595484087,7.725207836070227 l-1.0987317282889577,6.106441639670028 -1.1171598148589428,4.441536327151876 l-2.0182195168950696,5.654521250233322 -1.93397456188296,3.8686326501128208 m19.106556089607924,-28.697546728792254 l0.7915199003517839,1.6676475125764656 0.10372847125429403,1.2341583003161678 m-8.710248051923932,-6.2928832034600255 l0.08166924609379247,0.2971536318195797 -0.11759529570648117,1.189399446173785 l-1.3747012964204164,3.8457018999081725 -0.13699695938716366,1.0757039348171724 l0.2597200234268937,0.5067815359385035 0.6036607450024983,0.22548510214630074 l10.79075380337628,-1.629978458634011 5.124854899797556,-0.2768433635090682 m0.07394603955587796,7.528489646954626 l2.4875712660673153,0.2295024705807055 4.896751676955683,-0.6933326295150924 l1.1414477428991427,-0.07081436289664796 0.7789979263982583,0.10604844056984039 l0.41726707080422876,0.7623436267137076 -0.10159809968520174,1.4187266784770936 m-22.763930419327565,2.5462809081927884 l0.3988960509249595,0.8641197248040348 0.08293584426449944,1.1814588941574236 l-0.008158423756475566,19.129282092176158 0.5262073077494936,0.5213539002455212 m0.9840723448460362,-20.650025777061305 l14.459713615169411,-1.7789390122540378 1.5345303788352633,0.012817764595596868 l1.22779836146923,0.5191750735543454 0.49159514221236283,1.1161906790179688 l0.0045328061020724585,19.569612701065132 -0.20021025048345095,1.4247571095473583 l-0.4565261540232974,0.6345824215849466 -0.6229996267674127,-0.006786285103321835 l-2.138281550057953,-1.9335540137751133 m-14.151170070493679,-12.229143198158697 l17.02326454115541,-1.36734133101493 m-17.047364552361707,7.940622809966829 l16.932157451528226,-1.3309424301381751 " fill="none" stroke="black" stroke-width="1" /></svg>