<?xml version="1.0" encoding="utf-8" ?>
<svg baseProfile="full" height="103.86288589885291" version="1.1" width="108.94225488728515" xmlns="http://www.w3.org/2000/svg" xmlns:ev="http://www.w3.org/2001/xml-events" xmlns:xlink="http://www.w3.org/1999/xlink"><defs /><rect fill="white" height="103.86288589885291" width="108.94225488728515" x="0" y="0" /><path d="M25,35.26634333027112 m0.0,0.0 m31.456257081321123,3.3207287971290467 l0.3701282912089082,0.37384208947974606 0.4787253186040678,1.007558028075463 l0.05272352821839348,4.091483882654374 -1.2551925584797035,16.38770259852432 l-0.890087704068458,4.851795621634023 -1.1694534077490706,4.237582452846423 l-1.6238548088089388,3.608943044100931 -2.2800423107527092,3.052389567612608 l-2.922752305053527,2.6645164865248554 m-4.221888592525213,-41.927801157087025 l2.158073275901206,0.23195013473845755 8.73723896662461,-1.4252502495655086 m-10.977522911600227,10.769872844094715 l2.3534075784774404,-0.026940271902794022 8.792928333151558,-1.7277730011630459 m-13.761357551675642,12.64164324358328 l1.002603783830978,0.3963734186433539 1.090345500478489,-0.15931482900082708 l10.187180181628898,-4.149024857020336 m13.674006694939617,-28.486621174173177 l0.6198077159281219,0.8700233684309749 0.2602247030668441,1.5632940368840602 l-0.11230522226819269,45.33679764520824 m2.3588133178448736,-36.67544507071104 l4.601852792678182,-0.5585992184774763 5.843469310916271,-1.2453941167772489 l1.9206362431414237,-0.002257700542985376 m-12.370291865870906,11.270746868618927 l3.7644332485985648,-0.22183300359741107 7.006917138348124,-1.1714401024807748 l1.831496492378536,0.018388323419375647 m-12.850450354337505,13.343812810225414 l12.877440949888044,-1.7537723037436004 1.9387440333009844,0.027924391210438982 " fill="none" stroke="black" stroke-width="1" /></svg>