<?xml version="1.0" encoding="utf-8" ?>
<svg baseProfile="full" height="120.64452226482857" version="1.1" width="105.78299986056152" xmlns="http://www.w3.org/2000/svg" xmlns:ev="http://www.w3.org/2001/xml-events" xmlns:xlink="http://www.w3.org/1999/xlink"><defs /><rect fill="white" height="120.64452226482857" width="105.78299986056152" x="0" y="0" /><path d="M25,25 m0.0,0.0 m24.74395980251172,14.215081151455157 l0.013123111665947554,0.4107271219064729 -0.1996599595083249,0.8096728861454275 l-0.8404192596998233,1.151333726173331 -3.1757919049784338,3.1197007219277753 l-3.821566132482679,2.6640580022025455 -4.514171308536352,2.3984624110956343 m-0.9276885165617755,8.359299421717042 l1.3016252015661751,0.35637768408522036 1.2890366577784451,-0.12256584858590854 l13.795137332389347,-2.493628644217334 m-6.432747103823127,-9.303671002199435 l0.37318230179252565,2.559177784881076 -0.03958367462449849,42.59639988105391 l-0.18730726621999486,2.499198706763407 -0.426188715853012,1.2087840866172055 l-0.590807539499267,0.2161141738070444 -0.6878956226498091,-0.4793262600961711 l-1.6683443646218847,-2.4476666586911353 m3.104829544849097,-34.39686875120079 l-1.8194667311763513,5.966079124713387 -2.2811375611679154,5.816703478280997 l-2.489982243579298,4.9867178871617215 -3.2953924638127368,5.3373214990688655 m12.136348425612415,-18.110462413119897 l2.3156913119595193,1.9959226498388452 2.756088766531118,3.6884237249854737 m20.17475138878686,-29.418546513200326 l-0.040928122294999605,1.4833557942163251 -0.5221702893096904,1.0227568658301494 l-3.0929838774088596,3.7158514877378344 -3.444632206572183,3.2394188499832337 l-5.5929555241900895,4.030080894893577 -6.114089387080141,3.284900864836627 m3.204361351722365,-13.549068902558053 l4.671237969247153,1.272063344895852 5.120561708308371,2.673110228732228 l4.589853971185441,3.5361450228634195 3.198147786664014,3.5901347226606766 m-10.126308615205295,-0.2574555901559224 l-0.1794888239590506,1.8354071816435957 -1.08738982907644,3.323502526413032 l-1.8280283349836401,8.736739134617894 -1.4642008642283182,6.0399092720514185 l-1.4918116022131416,4.622586973322442 -1.9187297143961253,4.644078400610823 l-2.2622748786994555,4.384102309686153 -2.1285143103056705,3.2716974571694557 m-0.5491151126882204,-23.453414608551295 l1.6473764704153016,0.24988650974989302 1.8899463950583033,-0.0888203601190192 l20.173751745060613,-2.8404994914177983 2.7984113669708264,-0.13494960946823295 l1.7273491118925735,0.34505914940266785 m-20.813251728614077,12.873757215107018 l0.6559836753966545,1.830491047505367 0.15707739302609705,15.63751344935698 m-0.18017828542580916,-16.61915831643584 l15.21440750380432,-2.706566135683756 1.1596359078223168,0.12369362753513694 l0.7348632231649824,0.8587763786218818 0.21043090590024852,1.4690768873208215 l-0.23306181333475054,7.95070124110925 -0.6635023242758523,6.848028667303884 m-15.171876201056335,1.8600731968034225 l16.106259371667832,-1.7308862683404396 " fill="none" stroke="black" stroke-width="1" /></svg>