<?xml version="1.0" encoding="utf-8" ?>
<svg baseProfile="full" height="102.05171304138821" version="1.1" width="107.4371714990495" xmlns="http://www.w3.org/2000/svg" xmlns:ev="http://www.w3.org/2001/xml-events" xmlns:xlink="http://www.w3.org/1999/xlink"><defs /><rect fill="white" height="102.05171304138821" width="107.4371714990495" x="0" y="0" /><path d="M25,25 m0.0,0.0 m26.42645042907765,2.4113979726535306 l0.47461794005363495,0.45386937665106025 0.7557727351984246,1.4617466339718002 l0.004047183228207732,6.260798517966824 m-21.875391656024725,1.247369503571898 l-0.8783930636412819,4.699983082981302 -1.9957640643332688,5.573478511730633 m3.9082622615474794,-9.246202142672406 l26.63714128479445,-2.3864938653772625 17.10295889369929,-1.0051641706672165 l1.2669901845527811,0.15138486710607293 0.7168724858543429,0.3700386765697325 l0.17517076509524696,0.5469463920892689 -0.8585290463235615,1.436381139804588 l-3.361014153460991,2.8224645306108607 m-24.683002411587093,4.960284037286404 l1.781322332636355,-0.9679765258958153 12.192890781355862,-1.499028374298566 l3.3194400918589553,0.07734805959246238 m-25.50201034466684,10.132686914884284 l3.801886707201617,0.1886912196391377 24.281983679913107,-2.4786948669322855 l2.4325227499460427,-0.16085273381626186 2.776009972511498,0.27851489807331314 m-22.736759642891457,3.792624747302678 l-0.12979550118766947,2.39041550365562 -1.1761653202693887,3.795810204384058 l-1.8008708740095483,3.967189229392257 -2.3364648891133597,3.837531603433748 l-2.489161537132233,3.157072874761351 -2.9493847291221043,2.997180119241392 l-3.470589244658412,2.784917103693745 m23.552962254519194,-24.22899160904424 l0.6416841297365298,0.8246163144136661 0.42746112080422377,1.564950879861359 l1.2975323716816445,15.851290211595368 1.7777763747629696,1.2579245974062627 l2.985612777116552,0.6135515495993478 6.324855437627718,0.15065570087339963 l4.767243475385998,-0.3387407161823492 1.7984121092754246,-0.5678779333418819 l1.1452107678755887,-0.920873703725374 0.6503513682237549,-1.314249018501186 l0.2570253119368708,-2.3691764763437266 m-14.008603929649572,-28.365036070236002 l2.273485373236065,1.1977077947635224 2.1584876955039163,1.8475955183555919 l1.7908947836700253,2.0145449182944866 0.9767212420364494,1.7048048682190882 " fill="none" stroke="black" stroke-width="1" /></svg>