<?xml version="1.0" encoding="utf-8" ?>
<svg baseProfile="full" height="111.8920279493656" version="1.1" width="105.43097473643623" xmlns="http://www.w3.org/2000/svg" xmlns:ev="http://www.w3.org/2001/xml-events" xmlns:xlink="http://www.w3.org/1999/xlink"><defs /><rect fill="white" height="111.8920279493656" width="105.43097473643623" x="0" y="0" /><path d="M25,25 m0.0,0.0 m14.60768172419522,6.575311852855861 l0.027846654387714782,0.45161599082618353 -0.23239821114701456,1.4879646974112886 l-1.1277178080099868,2.5496902625666427 -3.4159642185689965,6.466203019793723 l-3.6889930385603384,5.313293120775079 -4.005540632047952,4.834809910344864 m7.857947453414555,-8.722470452071796 l1.699705420610877,-0.3419109755190432 10.056161824632108,-2.661106683355321 l2.2568132844110336,-0.5831192577215778 1.629997701634518,0.08207623676407934 m-8.070740831591202,3.5553237860164097 l0.5504365763445555,1.284309296830673 0.03733589376568263,1.1620128892862855 l-0.22713077428609535,26.74095412789024 -0.30998046021742526,2.1276203649930867 l-0.5148770057585006,0.9004447889893167 -0.6403350566666033,0.1399959813458022 l-1.58348612813539,-1.052950552669759 -1.964619485022338,-1.8578810640311323 m-5.017046793738575,-21.431803577837663 l0.08415401372263497,1.2593391569088503 -0.4123101718273242,1.646554483708193 l-1.9428462329048937,9.049074417735998 -1.9624605217557074,5.900649828152018 m18.562891234624008,-13.221497166217246 l1.9613369619939298,4.542532077705648 1.3493078936261365,4.419882867621577 m5.078794611281349,-30.475024130074274 l2.560584667425426,1.0248755846767155 2.144388830876428,1.5671892650356423 l1.6938282525354094,1.7292660129677324 0.9158432365322767,1.4962823678968602 m-7.616686244566162,7.2642022260431105 l3.1704759953662047,2.269422824149311 1.5542984490898497,1.60832520861944 l0.7579807534492342,1.1791476032783716 m-7.691606114176837,10.13417026332935 l2.6870576859077633,0.39382112554486404 17.61393026891257,-3.678101781030596 l4.467740773981014,-0.33887707582403864 2.529174302697067,0.7493409287419348 m-11.283180510805714,-30.596406104922863 l0.7177096717018636,0.9736252341261975 0.35582534424676865,1.8308046430521279 l-0.08216045611360548,54.14304432465741 " fill="none" stroke="black" stroke-width="1" /></svg>