<?xml version="1.0" encoding="utf-8" ?>
<svg baseProfile="full" height="120.53875141512185" version="1.1" width="108.81420801913266" xmlns="http://www.w3.org/2000/svg" xmlns:ev="http://www.w3.org/2001/xml-events" xmlns:xlink="http://www.w3.org/1999/xlink"><defs /><rect fill="white" height="120.53875141512185" width="108.81420801913266" x="0" y="0" /><path d="M26.671180666566986,25 m0.0,0.0 m29.86908401646182,6.4764365366972765 l0.4203196535730035,0.5025783167450965 0.6051151918052124,1.718585056729049 l-0.00014252753960388343,6.918743260641516 m-21.825144777291055,1.0709599909595275 l-0.904887172682555,6.3038481134171995 -1.7523076408818854,6.700288476129106 m2.945754629252765,-10.733585020318367 l28.054684006167594,-3.3782122229080924 15.826865608004006,-1.046865478123755 l1.7848069692869675,0.07417523603707285 1.2537197514951326,0.3386976974628107 l0.6789103793445963,0.5295977160502602 0.18624926556968555,0.6995541751272929 l-0.8110359800867192,1.6819247275751077 -3.225075523857688,2.918514412689526 m-33.453597205410205,12.563413300031344 l0.15160006396058234,1.1905876693378545 -0.027040509274850473,1.2589152664909797 l-2.7851767746722937,1.0879413043370922 -5.8313255923655,3.5693678683298034 m-5.765317825915989,6.737406607259954 l1.790603158410496,0.29869577331257074 2.4629700079514687,-0.09254925634091736 l25.03464702303985,-3.695469647023549 2.7748320675201223,-0.2230672055242612 l2.4087639858654635,0.27263549215696375 m-19.105419095466985,-7.332480884654289 l0.6239292465517078,1.05396806931244 0.24687926004908387,2.006039020583078 l-0.03781191416612678,31.068107042602158 m-1.3955253127569807,-23.824454898112418 l-0.5746656645611031,1.9040102348439183 -1.7616834404277348,2.4325256350114577 l-3.104746892829222,3.5461699239195146 -3.4081478023750313,3.327532899171881 l-6.658441713347331,5.527321032415093 -6.363421584967674,4.249605585475201 m23.36045702809474,-21.012515677400714 l6.661793752817193,6.877928447125344 6.72026114214222,6.425264404737182 l5.038189846501792,4.171878127910984 4.239056107995987,2.6224706644503413 " fill="none" stroke="black" stroke-width="1" /></svg>