<?xml version="1.0" encoding="utf-8" ?>
<svg baseProfile="full" height="104.93962406904768" version="1.1" width="99.07273496649302" xmlns="http://www.w3.org/2000/svg" xmlns:ev="http://www.w3.org/2001/xml-events" xmlns:xlink="http://www.w3.org/1999/xlink"><defs /><rect fill="white" height="104.93962406904768" width="99.07273496649302" x="0" y="0" /><path d="M30.380632911831718,25 m0.0,0.0 m22.069533491605153,2.205747519338908 l0.3318208120224523,0.2147402806989404 1.5208130751870008,1.396805752425997 l0.9540321710869644,1.769308132550899 m-17.436212961522372,3.547912492998092 l2.514847323594762,0.19359844781137023 28.31039643412915,-2.3820537972836977 l1.9026832877729387,-0.05966721270165723 1.2923518727465422,0.28102466471443666 m-28.082849202046678,5.1399737019256415 l0.4060962834180629,0.2976335487040694 0.42560300004866924,1.1055120682124842 l1.2528865979154264,4.80395445554372 m-1.0614471551823945,-5.811863604551376 l17.553688945466586,-1.526890601323957 0.8132156742751917,0.09123553990988667 l0.42948729689446313,0.2936840235639613 0.15222720365824102,0.4155109348202159 l-1.7909601288079091,4.528061327029629 m-15.490781259309262,1.5622700744416542 l16.207496267750113,-1.4224828777384408 m-26.619544033112632,5.750971771123283 l-0.8057351891385878,3.5126112068746584 -1.6442433944880857,4.5211769190323015 m3.1241220249652515,-6.804788715928165 l30.14588266877363,-2.073693257722531 3.761406905856162,-0.1882590125400639 l1.9820813314784647,0.11162981192302664 1.0319064272025504,0.30159491515245596 l0.4412962824214478,0.4483484584628112 -0.0019866706277444756,0.5384986857461069 l-0.8920734532897943,1.232610692910134 -2.4652956998410893,1.9598674794987947 m-29.773345869512955,2.552853015598934 l1.764251746448401,0.16150719905942043 2.670733256711893,-0.14748701670800501 l8.512187129810401,-1.5136564018495382 1.7344588443325297,-0.12552243731203644 l1.1851303897002659,0.14160623208697906 0.49615421552468386,0.34481244801927746 l0.027042271357911395,0.4822318573427516 -6.885390629869114,0.5073763891938228 l-4.864698831073679,1.398479261860554 m-2.543144253505661,5.025797792592004 l2.3621473235618002,1.7311410145947337 1.5640985196139305,2.1778939738507406 l1.0621711845299997,2.1122826322038 0.6173322059566486,3.1103423973719884 l-0.16504415262974506,4.429910010976344 -0.9065378594316998,3.4247892064078935 l-0.5277169527238982,1.7690256760051148 -1.0447435540646381,1.3135471006643757 l-0.6011118150074214,0.08810989146495073 -1.2033820723221211,-0.577770913648231 l-1.2234727986339597,-1.2931669931648662 m-17.970497441507963,-12.093868989096219 l1.5946107911128953,0.3316797062889949 2.4106680454968847,0.024445264552554923 l33.506553184982565,-2.4316763415916633 3.4138463886545627,0.017464647732873703 l2.0488480675409697,0.37718616117143905 " fill="none" stroke="black" stroke-width="1" /></svg>