<?xml version="1.0" encoding="utf-8" ?>
<svg baseProfile="full" height="100.35258962715713" version="1.1" width="110.67250243391302" xmlns="http://www.w3.org/2000/svg" xmlns:ev="http://www.w3.org/2001/xml-events" xmlns:xlink="http://www.w3.org/1999/xlink"><defs /><rect fill="white" height="100.35258962715713" width="110.67250243391302" x="0" y="0" /><path d="M25,25 m0.0,0.0 m25.69857550515252,4.196248267490996 l0.44307700968905417,0.25599129540771787 2.5705006006184576,2.331562053279273 l1.5761633927083558,2.5579216861995278 m16.632528752905742,-6.356952822708517 l-0.2806350748725735,1.2498125515353806 -1.448847935009565,2.161121560502132 l-2.0192480364872702,2.048141547737532 -2.1722766255696158,1.609299567277467 m-21.425026848584476,2.9648806473152187 l1.7428091042941858,0.20085650816246084 28.70283529083288,-2.9161157616857896 l4.777398448805947,-0.29756988922044575 1.8449425115999656,0.2340577144273704 m-20.216869480209265,2.5200847672323547 l0.8477512685851518,0.7514444546791282 0.36046458895652006,0.9740384409435473 l-0.14553911153052343,12.709060908422973 m-14.381610917990303,-6.880076405294304 l1.973407611584283,0.18217704900681428 2.292409014540666,-0.17778502179799335 l18.532999059797117,-2.048518673006825 3.724510550489125,-0.16229142173914352 l1.8854811277241252,0.1902201633371471 m-35.667632539788904,10.43028710918125 l2.475213797152545,0.28704221957482134 37.4969390248307,-2.7683896069840706 l2.793147570840865,0.2083498790115808 m-42.11622761959171,12.869679398008781 l-0.2623960265599007,1.451217135302665 -1.2410879206724228,2.723651756736687 l-1.7851013777961855,2.911158644554473 -1.4600617463282053,1.8002126222197241 m11.696086133883522,-11.763026621672665 l3.1381145861116315,4.550250890304693 3.2699198426342324,3.2138616437256586 l4.169591058330058,2.652081827388452 5.176254614614931,1.9766341587492344 l5.02844750723164,1.0615783229180726 4.305478410604953,0.4111248456461816 l5.32910056216015,0.0392662149875531 2.9101909483686885,-0.4333959641997856 l0.8576754383317333,-0.3880067281767262 0.45171042959295704,-0.4951725967277336 l0.020205338302486116,-0.5804617855276757 -0.3962447021792183,-0.6760588089357644 l-2.106036488291765,-1.6143058222033606 -1.7596423847651776,-0.9387007480715174 m-17.420314257687764,-10.029488007375289 l1.5241639972278211,2.7329964758869867 1.1077885944850885,1.0408610320411629 l0.5679920634166489,0.11916599315594298 0.5555792179907532,-0.2619885600784042 l1.0496114370799103,-2.048263230186255 m12.429109381470651,-3.0732435717055373 l2.2346006190845547,1.2444935723950523 1.6453911685462619,1.2776624126356473 l1.568973092653975,1.762935546712966 1.5701628545970285,2.5070452680187025 " fill="none" stroke="black" stroke-width="1" /></svg>