<?xml version="1.0" encoding="utf-8" ?>
<svg baseProfile="full" height="94.81735927469134" version="1.1" width="105.01406769380594" xmlns="http://www.w3.org/2000/svg" xmlns:ev="http://www.w3.org/2001/xml-events" xmlns:xlink="http://www.w3.org/1999/xlink"><defs /><rect fill="white" height="94.81735927469134" width="105.01406769380594" x="0" y="0" /><path d="M25,25 m0.0,0.0 m12.944206589990594,5.121618251116848 l0.02163767834262323,0.4537059434342454 -0.5968804727037527,2.591115319342162 l-1.9050358250010762,4.271836124856671 -2.1965235492960744,3.6380940731252074 l-2.413092031712731,3.2499933336149978 m6.054749755522396,-6.07066594631734 l1.9035039674418015,0.04573833236752718 8.895499543798051,-1.4352678703688415 l2.084769994651173,0.08300223652063601 m-20.138542670614033,12.594827761351675 l3.1620858773573977,0.169327586010199 15.748385722194097,-2.0146112799984475 l2.246629729486708,-0.14298103916494775 1.642043988292818,0.20753605887106555 m-11.24707469491156,-8.492593041731467 l0.39932099835069695,0.8114001135404217 0.15751803204214695,1.1676636554113173 l-0.8225676030133298,6.6968372649457875 -1.2006392614239614,4.869723708321134 l-1.8013270301601074,4.996335053992654 -1.8403112838665783,3.525027502396838 l-2.136762948583424,3.0173671671961197 -2.570413318431711,2.6093890958831327 l-3.0796521621305386,2.1349928922856245 m12.833564512964204,-14.127471227105227 l2.133792719807431,1.542645080528962 2.0789299378789146,1.9128096945726183 l1.7900752535899824,2.172519435070537 0.909676724458048,1.9766581683983713 m11.194757784642333,-33.729831404837434 l-0.2720512636103763,1.5676945373679934 -2.8760773733646303,4.862990599356717 l-3.7168537872644523,4.375621118878434 -4.733136092926128,4.417771390579364 m6.997803903223181,-4.25693589305046 l0.5645416440197659,0.9394653121700455 0.1705150943588965,1.0746154286780285 l-0.03481159591219392,27.98939473708017 m14.339782941961898,-40.3911772916861 l-0.10827030145094174,1.4633356646125506 -1.0170191976782192,2.369986026626926 l-3.222142527896953,5.433394483121288 m-10.571408095221033,2.127775889924217 l23.325998965827768,-1.9487718162869467 m-11.864439700128122,2.1330206587095315 l0.5520553920891058,0.9080206982597899 0.12302057299237087,0.9795922947029873 l-0.028929849245457582,23.99841059380296 m-11.18582121919267,-17.342527232970067 l20.884670330064154,-1.391797024843853 m-20.908625300692538,9.386525002022195 l21.45541022187075,-1.40989798541201 m-21.477873565179955,11.004995525929058 l24.36540253819918,-1.0710866836656803 " fill="none" stroke="black" stroke-width="1" /></svg>