<?xml version="1.0" encoding="utf-8" ?>
<svg baseProfile="full" height="108.67144713178277" version="1.1" width="109.49251205660403" xmlns="http://www.w3.org/2000/svg" xmlns:ev="http://www.w3.org/2001/xml-events" xmlns:xlink="http://www.w3.org/1999/xlink"><defs /><rect fill="white" height="108.67144713178277" width="109.49251205660403" x="0" y="0" /><path d="M25,25 m0.0,0.0 m26.584906578063965,4.2288073897361755 l0.4211251065135002,0.4676780477166176 0.9052757173776627,1.6580009460449219 l0.28039196506142616,1.362926959991455 0.035966625437140465,10.812458992004395 m-23.285064697265625,2.463725060224533 l4.518500566482544,0.16550913453102112 37.76195764541626,-3.1723591685295105 l5.030940771102905,0.29337307438254356 m-39.969642162323,10.886226892471313 l2.2793036699295044,5.302380323410034 1.9242478907108307,5.643649101257324 l1.692110002040863,6.383482813835144 1.0713443160057068,5.771849155426025 m23.835108280181885,-30.435597896575928 l0.4943116754293442,2.0465390384197235 -0.3452751412987709,2.088794857263565 l-4.760038256645203,16.674548387527466 -4.3729329109191895,13.291939496994019 m-34.102537631988525,2.420753091573715 l5.151978135108948,0.31676143407821655 17.938281297683716,-0.9877504408359528 l30.97346305847168,-1.078954041004181 2.917437255382538,0.11835189536213875 l2.511352300643921,0.5461913719773293 " fill="none" stroke="black" stroke-width="1" /></svg>