<?xml version="1.0" encoding="utf-8" ?>
<svg baseProfile="full" height="109.49251187704743" version="1.1" width="108.2217614306137" xmlns="http://www.w3.org/2000/svg" xmlns:ev="http://www.w3.org/2001/xml-events" xmlns:xlink="http://www.w3.org/1999/xlink"><defs /><rect fill="white" height="109.49251187704743" width="108.2217614306137" x="0" y="0" /><path d="M25,25 m0.0,0.0 m26.126673221588135,1.46406309298186e-07 l0.5741982907056808,0.2927807532250881 1.730407029390335,1.2320228666067123 l1.5951135754585266,1.6632930934429169 1.2701961398124695,1.9658391177654266 l0.7574303448200226,2.140548676252365 m-21.760587692260742,4.7043776512146 l-0.8084983378648758,4.847483336925507 -1.831521987915039,5.878874063491821 m4.516884386539459,-9.63602066040039 l33.186938762664795,-3.623955249786377 6.2256306409835815,-0.34342702478170395 l1.251375824213028,0.3094705007970333 0.6079328432679176,0.5401086062192917 l0.0637406250461936,0.7240508496761322 -1.1061395704746246,1.8145659565925598 l-3.2484635710716248,2.942366600036621 m-28.726248741149902,4.545292556285858 l-0.12359733693301678,1.6434073448181152 -0.8726606518030167,2.434927523136139 l-2.4194805324077606,4.526827037334442 -3.4437692165374756,3.8823187351226807 l-4.420296847820282,3.511238396167755 m25.090014934539795,-20.385637283325195 l1.1826637387275696,2.099001854658127 0.24608498439192772,9.023470878601074 l0.429849736392498,1.7847374081611633 0.8612973988056183,1.2961184978485107 l1.941869705915451,0.6805510073900223 3.1603986024856567,0.15874123200774193 l5.450800061225891,-0.399000346660614 4.5381903648376465,-0.8036822825670242 m-37.612295150756836,12.158657312393188 l2.7786651253700256,0.3854399174451828 25.11096477508545,-2.3926259577274323 l2.8067180514335632,0.39267510175704956 m-15.57898998260498,2.6902449131011963 l0.6872979551553726,1.6618725657463074 0.11997419409453869,12.73782730102539 m-25.22637367248535,1.6732357442378998 l4.0438902378082275,0.7344931364059448 25.903196334838867,-2.2955502569675446 l18.414827585220337,-1.180710792541504 2.3216502368450165,0.14976384118199348 l2.4058090150356293,0.5992328748106956 " fill="none" stroke="black" stroke-width="1" /></svg>