<?xml version="1.0" encoding="utf-8" ?>
<svg baseProfile="full" height="107.37003021640986" version="1.1" width="100.36501939652476" xmlns="http://www.w3.org/2000/svg" xmlns:ev="http://www.w3.org/2001/xml-events" xmlns:xlink="http://www.w3.org/1999/xlink"><defs /><rect fill="white" height="107.37003021640986" width="100.36501939652476" x="0" y="0" /><path d="M25,25 m0.0,0.0 m28.308001241494953,13.851809709502549 l0.3321848140579168,0.31206887431214947 0.4863580874114068,1.2656033115052885 l-0.01689440161244194,3.7711102763231654 m-15.253861911907496,1.6451144798160295 l3.23817107520573,0.09000962710116261 23.666072042750436,-2.0414980204559177 l3.8479635424635514,0.17742612044134953 m-24.50697638663873,3.791933932988535 l2.150563102888802,2.9741530821524997 0.9840782581669866,2.7981801054774027 m14.50356002723747,-7.734208928258433 l-0.13037854217989053,0.8956754353124349 -3.239178439978395,1.0878486077875251 l-3.825041639123748,1.9694710075580595 m-0.5103451735451968,2.3972751275581974 l0.37118408577111495,1.304252149020996 0.022813634162508988,2.4777308984374637 m-16.898585134699378,1.710743212167255 l2.3650765091359363,0.15744072453673405 12.72310418101138,-1.3991515026766022 l10.861410165937594,-0.817065743905403 3.14011141510598,-0.08478204662115262 l1.9090526424715404,0.28150803493961524 m-26.333612395317985,5.943017990152223 l0.6958123128281659,0.7199686354535876 0.389515819327593,0.7466166934160173 l1.725974230212079,7.781201549770085 m-1.4274565484197959,-8.744345148857837 l13.10601019204919,-1.5061190438125773 4.726228188244149,-0.3099947898563435 l1.0276405830824575,0.2196220699197451 0.6390468106611239,0.7102599742580258 l0.03468137325034425,1.1186386569248477 -1.9225907083950189,5.706188316126539 m-15.739815279417776,1.835235990731691 l16.86856664312073,-1.5241521322918856 m-21.10120552410666,5.712471284692482 l-0.32437566785532806,1.344446491782807 -0.7761780942296966,1.4516094688513108 l-2.338576845541842,2.8868627331423427 -2.5347304955492147,2.395853000985896 m11.691052786110271,-8.37163036901497 l1.1925931809096026,0.8824600148917231 1.334228974546362,1.5176354999779398 l1.0795928924063163,1.7075669211151112 0.8336008586553425,1.8323732961300965 m6.736598514778534,-6.628227356933416 l1.273382824081034,1.0491526828494475 1.6876169992528336,1.7912085061272847 l1.1823377613103947,1.5927860921649453 0.6335538567870308,1.3678303159926357 m5.599705090094198,-5.996622611586725 l1.749050087892792,1.2667138145059105 1.84719108744868,1.817399549255166 l1.4910946566519734,1.8494458511948824 0.7900420360688415,1.4672456277880035 " fill="none" stroke="black" stroke-width="1" /></svg>