<?xml version="1.0" encoding="utf-8" ?>
<svg baseProfile="full" height="121.94333795856075" version="1.1" width="105.38215496100895" xmlns="http://www.w3.org/2000/svg" xmlns:ev="http://www.w3.org/2001/xml-events" xmlns:xlink="http://www.w3.org/1999/xlink"><defs /><rect fill="white" height="121.94333795856075" width="105.38215496100895" x="0" y="0" /><path d="M25,25 m0.0,0.0 m25.29827231762642,5.924479115012824 l0.417439506774921,0.4419636138101153 2.2662833562220763,1.6755482819902696 l2.3117245826759496,2.5138183036888893 1.7792415604195417,2.828288650090741 l0.8943550592056811,2.4118037783531365 m-28.817770655737142,6.756422923516093 l3.4191085975440108,0.49833616089354194 24.304871190007766,-2.452580046994518 l19.350484633752593,-1.6077228167608077 2.1318020340215837,-0.03933707293389342 l2.0263427784955543,0.4916257669254731 m-27.34810578569395,3.473449188202034 l0.16266407470867406,2.0317952232166654 -0.39406911307612813,1.901617238428869 l-1.9232897162040943,7.517742048812644 -2.0502319741171147,6.38274089954726 l-2.205306941723603,5.409289198389497 -2.667019740778421,5.152385955332804 l-3.2273005582022583,4.86296416126031 -3.867280929796211,4.584117615036833 l-3.496256016011056,3.151127275911514 m25.736448978978647,-37.51499474798473 l0.7485271059889993,1.4693261387881809 0.31539357497343007,2.377486975583835 l-0.22016608833535195,32.99050798610132 -0.10191759874373957,2.3542897947428467 l-0.01174325579080755,1.9553729173667924 0.2766635876137168,2.059930607759358 l2.212216777974331,1.8747634704621885 3.027023841265819,0.46677935401068216 l7.153649083861849,-0.0703577242776082 3.395565527118012,-0.5854099515476057 l1.5060307179731465,-0.9175022454127516 0.9884363152774385,-1.4375551283449157 l0.5105413749309471,-1.9565882586712813 0.19804921280778118,-3.7570727131900292 " fill="none" stroke="black" stroke-width="1" /></svg>