<?xml version="1.0" encoding="utf-8" ?>
<svg baseProfile="full" height="117.5536491159863" version="1.1" width="110.56876061023314" xmlns="http://www.w3.org/2000/svg" xmlns:ev="http://www.w3.org/2001/xml-events" xmlns:xlink="http://www.w3.org/1999/xlink"><defs /><rect fill="white" height="117.5536491159863" width="110.56876061023314" x="0" y="0" /><path d="M25,25 m0.0,0.0 m18.40144242074285,3.8972438784257815 l0.032373128481719214,0.4357834863224181 -0.5091077983013739,2.335713701092963 l-1.679094482717584,3.7636496011865117 -2.214310758349529,3.6289677756108043 l-2.5711521418797236,2.922088128152419 m6.70081085582837,-6.220509692656193 l12.518002283131414,-1.7428051219962775 m-8.533102325124233,2.7912945474611006 l1.747631525123906,2.4084528630828475 1.0803930674191657,2.5559874217573495 m12.237356093288087,-13.178432037506866 l-0.06221572626738711,1.3140983030685494 -1.2196065443661632,3.0852218316665003 l-1.6686808156564987,3.007315312575667 -1.874173315975757,2.7246278661129963 m5.0680290710135605,-4.201263993789837 l16.12517936052378,-2.196087792144307 m-9.550894463390481,3.1926575973919857 l-0.08530626941533712,0.7319768606512387 -0.8935191760954476,1.6071796195162116 l-1.0779914675494766,1.3404695639222666 -1.4823692158494541,1.2657761829034146 m-25.3521444308089,3.4600313467989974 l1.7748459468898743,0.8831818786208145 1.9584289773133396,1.6174020517166567 l1.5349936935220916,1.578654430153005 0.6599174716839268,1.0560645568760594 m-9.070689936303996,4.683867881208981 l1.453068104940064,0.7128987638339663 2.1611522381029338,1.5262143701402904 l1.2394440762383472,1.1894068538932987 0.7330920059754279,1.0562296279105459 m-6.129538314559424,16.744279574186187 l1.6685790565621663,0.4113183279512338 0.8783050235266924,-0.5533356726610719 l2.3723325792856014,-3.5490558488216495 2.367604067114391,-4.007879027174699 m18.308593639977087,-24.650947207408475 l0.39030934283285373,0.5383301105296548 0.2293997560246192,0.8013666432512861 l0.08328121823245171,3.6511544572068524 -0.737437702673261,4.335269445587739 l-1.4050989116694728,4.666668823370599 -1.9988804294242362,4.367931698286481 l-2.167143577907846,3.2909856555731745 -2.619087271138254,3.003254035924186 l-2.8525801632148786,2.4475866203940764 m2.9148436561927085,-16.685611076653164 l2.456368811511165,0.12140211959964634 12.726751038586702,-2.557745195324904 l1.179424824095316,0.41117284361577605 0.26291697235410677,11.002706013829206 l0.5000283100682347,3.01447090118536 1.032094559854132,1.1444655278346592 l1.1339825857052372,0.6427296441897469 2.418833666284831,0.46163755097774445 l4.700682228525501,-0.0028797741228844017 1.1993599940865658,-0.27896111538273355 l1.1002524880343172,-0.7783007013810262 0.4232786142640037,-0.962597070510545 l0.164732262321191,-2.2871312140556896 m-31.353783681301,14.635979991099429 l1.578140647690002,0.33749909037620307 2.0025920914171573,-0.03386626361128912 l19.9404452766154,-2.5016452597896697 6.643818941895228,-0.12278911065046404 l2.507118334742564,0.34005087729147243 m-17.231524466350194,-5.16749767200029 l0.8118821330170173,0.8237185546273896 0.3259444464178519,0.9191531071002215 l-0.06400046528214477,20.347402047586364 m-1.1774726977133203,-16.16151581185749 l-2.983338195590722,3.926343135277989 -4.119565086232939,3.9285601840669564 l-4.420945245249201,3.0490079505734435 -4.578255803938512,2.2078279812434762 m17.647029268673442,-12.284064763171322 l13.758602899023206,10.123366855628927 1.4792875712346831,0.7891323862079604 l1.6187948641446142,0.48754416692353003 " fill="none" stroke="black" stroke-width="1" /></svg>