<?xml version="1.0" encoding="utf-8" ?>
<svg baseProfile="full" height="107.78227914057905" version="1.1" width="108.71881488221635" xmlns="http://www.w3.org/2000/svg" xmlns:ev="http://www.w3.org/2001/xml-events" xmlns:xlink="http://www.w3.org/1999/xlink"><defs /><rect fill="white" height="107.78227914057905" width="108.71881488221635" x="0" y="0" /><path d="M25,25 m0.0,0.0 m19.622016657479858,3.1014278896009717 l0.014982227805055186,0.4671194428084484 -0.5320049306554189,1.8771032741960738 l-1.9398416137723564,3.348515043573478 -2.424100063633309,3.1478217589909616 l-3.0848955336224457,3.168845130630409 m7.4297720848435995,-5.404610582086678 l12.753401744931029,-1.5844686620212685 m-9.119895725691848,2.6788359353490065 l2.306617802724865,2.1696427666869282 1.301022212103268,2.2833139944538927 m15.871975696887741,-13.509046340098191 l-0.18401419301538768,1.420855705926518 -1.7071936316861753,3.3528557045708633 l-2.1744570004174935,3.096786865894062 -2.425392234886789,2.766939628682795 m5.694324163601732,-4.082094736459633 l17.31649721922042,-2.090277983816074 m-9.801891026886096,3.276562647765259 l-0.18338334174335588,1.1750785665546009 -0.8172947357821758,1.5734729958507723 l-2.2131426914421493,2.699854908293567 m-29.912619657345502,6.014416447373916 l0.616409862394232,0.9546975348756848 0.12129356092669819,1.085410168001652 l-0.11171063876580736,32.06998321483704 m0.20955088718604398,-33.391355539660694 l12.378278828427618,-1.7027067495845276 1.419127849390256,0.3333508314953668 l0.42316112509467,0.9670125010356518 -0.7525592459060652,11.035396719360838 m-12.965615015946296,-4.74081441191151 l12.819923118885727,-1.732210626955134 m-12.917601937295853,7.357233550915747 l12.205545485861217,-1.6484713889823843 m11.270136846641448,-13.033047392776114 l0.47249027024519785,0.7579417471945888 0.1456615964056682,1.049149063753654 l-0.001442690705487757,11.51638781875357 m0.36102125533587615,-12.521624051506762 l13.70100331197791,-2.124389619765532 1.2351873074314594,0.32994948380652966 l0.6292425025337034,1.087871696558952 0.06272779846826437,36.49237516291293 l-0.17423765438415825,1.629341432537209 -0.4863290412063529,0.8502294132149791 l-0.7052098028602218,0.21161817974665223 -1.6552725862643107,-0.7657183462729148 l-1.7317769129292215,-1.4509697480187096 m-10.828259482563634,-30.574971334953677 l14.559162440713,-1.656135038298933 m-14.433313267793016,7.488168709971887 l14.67143529970559,-1.405029095945265 m-28.328053344606243,7.899251992686409 l0.5068752527978232,0.9260094243487246 0.12691435167058457,0.9420495454035728 l0.03861695547241921,14.726496358125107 m0.3635271046988689,-15.91337762249566 l11.075061365018588,-1.4242425024436716 1.469465918393272,0.16788682872982524 l0.43622242199109856,0.3269855406804036 0.29992454478633135,1.320162492270131 l-0.01760831117993337,14.51872373668342 m-12.744970658951527,-8.168291484786314 l12.05513275625365,-1.1608205875682585 m-12.115502960023294,8.718424303280605 l12.163610455139251,-1.1418707803562507 " fill="none" stroke="black" stroke-width="1" /></svg>