<?xml version="1.0" encoding="utf-8" ?>
<svg baseProfile="full" height="117.46484946576516" version="1.1" width="106.64355652066573" xmlns="http://www.w3.org/2000/svg" xmlns:ev="http://www.w3.org/2001/xml-events" xmlns:xlink="http://www.w3.org/1999/xlink"><defs /><rect fill="white" height="117.46484946576516" width="106.64355652066573" x="0" y="0" /><path d="M25,25 m0.0,0.0 m18.346581244614736,1.2798643053573213 l0.00310177998433564,0.5205044368317212 -0.3299280843153713,1.375030186926503 l-1.9818232346544973,6.089666772470902 -1.6272087191937772,3.9569660991611832 l-1.9166059311559975,3.8612424641664957 m4.826199935636872,-7.3009867817115435 l15.411545968144981,-2.083521118087734 2.5536180389793253,0.07547909452221319 m-11.149947316120612,3.793139650206697 l2.4496589377343008,3.0607826226883006 1.5431172547355994,2.3443456091323864 m14.166231463654544,-15.239211698625503 l-0.2828374378345161,1.3809189852871353 -1.576806525740923,3.1157030319960812 l-1.9720274742542565,3.000001378251177 -2.2442063381369683,2.8071059229020165 m5.4326539591603495,-3.684591195031537 l5.928691464661068,-0.6053522228002456 6.683131284493875,-1.1085930605333283 l1.8521024169136262,0.04714298672376919 m-9.481065164636874,3.048449500193985 l-0.09344652663468542,1.0922550713528403 -0.8934107057274633,1.699521240419926 l-3.1474706652504447,3.290072384156407 m-24.72259553704486,6.54234641074461 l1.9833961924497707,0.30552938609374497 1.9746328053176228,-0.05646096233037355 l27.435317076096048,-2.74050929241021 1.5754008882251347,0.617910254188128 l0.3685552676846866,1.1753839008767335 -1.693691131916009,7.107243671104329 m-30.410032940063036,3.092735797338753 l3.3701487385135773,0.17865175632904282 24.81596384994062,-2.7809957180573917 l3.0530820069456723,-0.12767155341467112 m-30.65422426956488,3.5695506001362 l0.33406301943846145,0.8484101841067405 -0.10949541565984837,1.1506025988490463 l-2.6955210202339113,7.5989959014967035 0.11690169121197165,0.5225434577410861 l38.519259869264225,0.36364627148657264 0.7099226998837588,0.6967157807999086 l0.17262310511951656,1.3182018101890085 -0.1750709494192891,1.295492202528951 l-2.976970577404615,6.054227555744134 -3.6441670901854417,5.376000130881349 l-0.9384271805383554,0.1036344698220126 -1.3233787386126599,-0.6864846777602613 l-2.1265640028874726,-2.0640004239654774 m-13.835433805712222,-25.439484568115773 l0.7692190300477989,1.2495593047551679 0.14430811086202963,1.1915096697127736 l-0.09951108488586985,35.18562988093715 m-2.1917807864438448,-21.216665779236255 l-0.200291483803096,1.0954504491758643 -2.1255086053299186,3.4451594372304575 l-4.961128978826236,5.893042506807067 -4.698545644138152,4.074080554445457 l-5.3583814829294125,3.1523090176244617 " fill="none" stroke="black" stroke-width="1" /></svg>