<?xml version="1.0" encoding="utf-8" ?>
<svg baseProfile="full" height="104.25973000869935" version="1.1" width="110.64988506399155" xmlns="http://www.w3.org/2000/svg" xmlns:ev="http://www.w3.org/2001/xml-events" xmlns:xlink="http://www.w3.org/1999/xlink"><defs /><rect fill="white" height="104.25973000869935" width="110.64988506399155" x="0" y="0" /><path d="M25,28.2374350864069 m0.0,0.0 m19.46175095396242,2.973922441649677 l0.050716491252985475,0.4497855914917971 -0.32687911861113433,1.811173303517937 l-2.8487058520048336,4.441587405127259 -3.292115032312735,3.920393862955968 l-4.1769473720587875,3.6222368566743706 m8.736909784290988,-7.261735864025323 l2.2191081337489966,0.07865536175327374 4.55434047358903,-0.294792853001873 l22.468513458647273,-2.436796618864972 4.693832240973214,0.09980193915134714 m-40.18761245126966,15.87261644801764 l1.9644991115647439,0.25543793186165215 2.229093475157838,-0.027480696991939692 l30.408577043723053,-2.643495332962654 4.701206821629282,-0.3371508541342959 l3.311953593056086,0.18841464359071575 m-21.256727972753204,-23.95000865221748 l0.6656753053117583,1.2515218498168106 0.2133407822551056,1.9575932794362356 l-0.30709800862826847,47.4303116636484 m-2.1678314651608104,-13.945912851504636 l-0.613005061632698,1.2851441057459352 -1.989425944478841,2.0399840501548043 l-7.334723674990472,6.023524304053406 -7.590266320542045,4.851276923305739 l-6.768966690005281,3.3662866840426546 m27.501287334109293,-18.22098431138001 l7.771907337968617,6.840468108490952 7.707867337998134,6.012936421149922 l7.346919851582459,3.5913556881924573 3.5026904976190343,1.7160719971378702 " fill="none" stroke="black" stroke-width="1" /></svg>