<?xml version="1.0" encoding="utf-8" ?>
<svg baseProfile="full" height="108.13667015464334" version="1.1" width="96.52687633669339" xmlns="http://www.w3.org/2000/svg" xmlns:ev="http://www.w3.org/2001/xml-events" xmlns:xlink="http://www.w3.org/1999/xlink"><defs /><rect fill="white" height="108.13667015464334" width="96.52687633669339" x="0" y="0" /><path d="M25,25 m0.0,0.0 m13.008744354902904,2.6803688085986086 l0.009268278471248191,0.48416188859095155 -0.6219499709472052,2.5235316466456905 l-1.5702283901655247,3.523734023953359 -2.1092887845991184,3.330122780620357 l-2.2228047307519003,2.5388194508555237 m6.311336072232474,-5.6792206553094005 l10.98588470205517,-1.720760480148199 m-7.995268204527926,3.076617877496402 l1.7404275095994288,2.5158881836093365 1.1233584156227545,2.6787367827227717 m12.595077610804152,-13.96358463315152 l-0.11917658899110024,1.3729235341704396 -1.2398731777369987,3.189753093290658 l-1.6558021857982075,3.10045438379824 -1.6826971590591289,2.501803040023483 m4.711432332744875,-4.2740496946796 l14.596095919892209,-2.3145340138386894 m-8.842854130943959,3.2580521930789157 l-0.20959581072516753,1.3046353138427864 -0.7312967509756959,1.9209857161163604 l-1.9011364819600125,2.9941030712690684 m-17.343294724808985,6.64469943182285 l1.1302496856687365,0.21972661349779377 2.4170393171838644,-0.12198567163864571 l13.067860159951982,-1.8927267847022138 3.3012977768410305,0.0332185951078452 m-10.155782945825035,7.477663598647973 l2.950864283622493,0.7652943576937682 7.543012116670323,-1.1199940639761572 l1.9420037314402017,0.0748403239322771 m-22.176897055610247,9.896330668202978 l2.3924449414881774,0.3395481229322709 20.662476528291215,-2.19974314102457 l4.394223173391509,-0.187733062836317 2.221726519244852,0.3047558444914609 m-15.434527203632966,-13.43332727557817 l0.5051862666482954,1.334552799566894 0.0637193740551076,1.247490261775458 l-0.810131540454548,14.09544813991786 -1.0470089057239944,5.640784234408209 l-1.7406309955521118,4.981348613747781 -1.7934837552181566,3.1658093145226243 l-3.112413615869021,3.552084376802283 -3.1028429800383486,2.188564634871791 m12.06903621002211,-12.468176111416547 l2.924875271686616,1.9915363804683621 2.735550329177047,2.8365471480561824 l2.538991882491893,3.642196292019566 2.1198259331826454,4.085374201774187 m-4.000952550195202,-24.764375543544443 l2.216660234398397,2.5106487516116025 1.45970731911635,2.1257614664203768 l1.0406330869660723,1.7853047666231632 " fill="none" stroke="black" stroke-width="1" /></svg>