<?xml version="1.0" encoding="utf-8" ?>
<svg baseProfile="full" height="106.887937895616" version="1.1" width="113.00357912589746" xmlns="http://www.w3.org/2000/svg" xmlns:ev="http://www.w3.org/2001/xml-events" xmlns:xlink="http://www.w3.org/1999/xlink"><defs /><rect fill="white" height="106.887937895616" width="113.00357912589746" x="0" y="0" /><path d="M25,28.614361288964353 m0.0,0.0 m16.220886321532948,4.208308403605298 l0.42956221157373964,0.47832624042223304 0.5964793621075241,3.156576064259292 l1.9794863915421896,11.794531857723024 m-1.7010795966136723,-15.17303153348211 l20.343977488893547,-2.2636291917020643 18.549810185695016,-0.152039532900587 l0.9834720795641428,1.0857549859067404 0.11947463526950892,1.4644674524821555 l-3.5792518053676146,12.043428476673157 m-21.099333869724138,-20.257054511951495 l0.8900400121353222,1.0670546921092798 0.26955312643523066,1.0697925103258619 l0.13103003550722817,17.284587729417737 m11.00614460162516,-5.366907523262532 l11.897217847175183,-0.973533427861577 m-29.50116072185363,9.393573468551276 l30.385908864713365,0.8448414904614907 m-33.44277937813651,7.476406447799153 l0.6827207190656834,0.2028321096070667 1.9788180873827403,-0.020999217189160164 l28.160440941168165,-2.420442974847564 1.9523701792876718,0.49720186104588143 l0.3955742982314105,0.5191539251705322 0.11197727074277693,1.2773337498601713 l-2.7270855610330234,10.470083395119518 m-31.78475882934876,-4.012686646733254 l2.16098687207729,0.2949678173146501 2.625230228076345,-0.012075087756794048 l28.611503506033976,-1.865813688570235 4.4082307489611505,0.12751914774213302 m-37.599399322129,8.55930029741487 l3.9754219071480206,0.16120713840590153 26.46663720255539,-1.6853289759106997 l3.894227185928174,0.0965124522102111 m-38.09485583703887,8.507095775297119 l1.3754694594852086,0.18491411096375684 2.5172483009081814,0.05532621546623592 l36.40624229839307,-2.421554260883189 3.007141677927314,0.2907512712538604 m-23.376514780757052,-27.61083315203204 l0.694702565048685,0.7845852869671366 0.32439549167401355,1.5247021669503527 l-0.07552411233888731,32.58836979120887 " fill="none" stroke="black" stroke-width="1" /></svg>