<?xml version="1.0" encoding="utf-8" ?>
<svg baseProfile="full" height="95.63540140452737" version="1.1" width="108.69145124488473" xmlns="http://www.w3.org/2000/svg" xmlns:ev="http://www.w3.org/2001/xml-events" xmlns:xlink="http://www.w3.org/1999/xlink"><defs /><rect fill="white" height="95.63540140452737" width="108.69145124488473" x="0" y="0" /><path d="M25,25 m0.0,0.0 m20.124280279561795,4.347078723334722 l0.020198317815276947,0.4550881021068515 -0.4669915032276156,0.9247446774611546 l-3.115189614405658,3.0399777117701836 -3.013073757655437,1.9857421793974601 l-3.95982130919927,2.147030248778522 m25.385205899980527,-9.156538654390287 l3.404624640321774,1.5342944694904184 3.010930265682066,1.683216006079077 l2.5367285182274917,1.7433609181282996 2.507101733639617,2.1061172134691843 m-10.584483625563706,-3.182995595541665 l-0.49234020503752457,1.5292568536171618 -2.1960190365265118,2.185941923848092 l-3.7529401824031283,2.8695451909521754 -4.166562287298374,2.4985857364886432 l-4.596765891584357,2.193332842403094 -4.205085201761441,1.6540923542272725 l-4.708621155234489,1.562636018216349 -5.1588831324149815,1.423060405105618 m13.034319848124252,-13.07845881190316 l7.256443882374207,0.4046767207167712 18.10404346702313,4.012558534059007 l7.928505553137,1.980389130242353 5.795845741310106,0.8724413263851366 m-42.73561429615221,4.255728264094713 l3.19446794790284,0.09993014538641237 11.976475303269387,-1.1561947378266473 l2.650300365485883,-0.09901179195322553 1.0909757671862335,0.14611590091335883 m-16.604688054083,1.251000315790886 l0.6828920783513738,1.2176268836754955 -0.08002988731701847,14.996393845029507 m0.3394174966373524,-11.61209776654737 l10.650402159293295,-0.7939796767643506 m-10.674299254132587,5.665230733464625 l10.348949773053137,-0.9689102532637248 m-17.69576699612773,9.160627846416336 l2.0100426104488087,0.05723225490972046 16.504277586102916,-4.685906725885108 m-0.36488202070294196,-14.372683943286573 l0.5650456662375721,0.5975901507990761 0.03129744531178065,0.34600166395944393 l0.08572612847877366,23.050922205642767 m7.8948076915637,-24.20141011995236 l1.773873383851382,0.16069464028820105 11.029882686733007,-1.2894231255716992 l0.8693056968175891,-0.04764737328860279 0.6540846321833051,0.21603148235672615 l0.5393451729367678,0.9254583340444645 -0.19275468864984088,0.5163922421050062 l-5.252663045777727,6.536754110523542 m0.36495801182102067,0.4291271214245633 l2.525759587226482,2.187569363848172 1.7611178295714853,2.1554863189522324 l1.0368454534853724,2.0200038058146097 0.442212703388641,2.62531617681471 l-0.6537067483041068,1.986432795118889 -1.4579362200829755,1.0584405078172194 l-1.2759163931468958,0.1347609173371364 -0.6443950062947919,-0.12431621935086105 l-2.141603497214024,-1.3047801129123164 m-6.93345460087018,-17.546981417732283 l-0.1057960373688217,24.306702417892232 " fill="none" stroke="black" stroke-width="1" /></svg>