<?xml version="1.0" encoding="utf-8" ?>
<svg baseProfile="full" height="104.89204390899559" version="1.1" width="99.44050418347487" xmlns="http://www.w3.org/2000/svg" xmlns:ev="http://www.w3.org/2001/xml-events" xmlns:xlink="http://www.w3.org/1999/xlink"><defs /><rect fill="white" height="104.89204390899559" width="99.44050418347487" x="0" y="0" /><path d="M34.14655911148378,25 m0.0,0.0 m13.562558950401838,3.6467549208750354 l0.37661779299638626,0.4180899487962017 0.5470325616488817,3.3156682823378993 l-1.3526403295111349,6.497131667185099 -2.0573017492195858,6.366847197858536 l-2.579090876426028,5.75869844558421 -2.7966860775054028,5.076294676607891 l-2.4342865063307646,3.6769131613638 -3.867393925414725,5.027097265212703 l-3.5181907814463647,3.6548523482813313 m-5.027178170676885,-27.89714415643644 l2.1057663842578007,0.31633280978719847 2.469474993891493,-0.05752201195683935 l20.86348809933743,-3.467685060814301 19.851356369778376,-1.6157232494160791 l4.150418336209774,0.38162060034795914 m-32.80188986511195,13.363493327851339 l0.7790071940433572,1.2255480632277043 0.27361612729707263,1.3056623544815193 l-0.0466503794522485,26.550280980341807 m0.6317749570246002,-27.793168561923817 l17.06381230149826,-2.495969725459435 0.8778974169937765,0.03171219890032664 l1.2032804193990765,0.6823479478207302 0.5892813747471427,1.5186570331464295 l-0.21394762020858343,27.02163094982672 -0.3761462626694924,1.697386242235256 l-0.6457498653226574,0.686236252932807 -0.8083740041249193,-0.09614646624267531 l-0.8632381657426239,-0.574067289772506 -1.815392993188904,-1.9805289351304016 m-14.573360459616934,-18.089963283194603 l18.605783821693517,-1.85301936279571 m-18.527018804910476,9.920613075350074 l18.421691853396037,-1.8260444961616074 " fill="none" stroke="black" stroke-width="1" /></svg>