<?xml version="1.0" encoding="utf-8" ?>
<svg baseProfile="full" height="102.6366351502394" version="1.1" width="102.36856655244021" xmlns="http://www.w3.org/2000/svg" xmlns:ev="http://www.w3.org/2001/xml-events" xmlns:xlink="http://www.w3.org/1999/xlink"><defs /><rect fill="white" height="102.6366351502394" width="102.36856655244021" x="0" y="0" /><path d="M25,25 m0.0,0.0 m10.71072188843565,1.338879556386448 l0.010301232734952285,0.47572321309945725 -0.6524324993941414,2.521118831389344 l-1.7315389860102175,3.5070665541006605 -2.2836117773544817,3.277009235941147 l-2.5703999795634904,2.737554425384972 m7.283417633252719,-6.203676794928777 l14.662220448949196,-1.6282816708138277 m-9.789347191702879,2.5345908328793656 l2.051994074832355,1.1043813699011744 1.9842195762676256,1.7850051811662067 l1.5415627216251189,1.871580564722087 0.6043057555396832,1.2590640383632419 m13.073323772047223,-13.581690869013284 l-0.25659108659856267,1.2984707330631495 -1.7881395164955454,2.950475509337392 l-2.2807891187175793,2.6593796016063447 -2.672720761145795,2.362688582270213 m6.345993696752906,-3.5841726302685673 l17.963548105517226,-1.7615289095049957 m-9.69374295487636,2.7780695890445637 l-0.10439631796689892,1.07348543608968 -1.3627007989630426,2.0652286520517094 l-1.7541612681959098,1.8048091723152877 -2.2102496107867116,1.5940932953506883 m-10.054152955107801,-1.8277052262781723 l0.09651381659226697,1.188061448619378 -0.9772776351081527,1.4870739035240412 l-2.118863480957522,2.6406262689586812 -2.7380258614998203,2.7100453042860355 l-6.12597442708362,4.711205883091128 -3.990459710957602,2.5337716428453483 l-4.462504418496421,2.388969942568061 m21.61212323285219,-16.423229044930558 l19.0790570438325,10.673437577506121 2.05288926589008,0.8988279650762324 l2.841323245909866,0.6114472760532474 m-32.919807806121426,-0.01855706253685422 l2.400502711185989,0.24566868337876183 14.719900882537798,-1.1188651032444479 l3.168000189122118,-0.11765510346822369 1.3295722286705687,0.15108917074000408 m-23.369064586832028,8.837715693658783 l2.8138686176261527,0.25773364338690163 16.843439655695732,-1.3044457480831657 l5.694659919253027,-0.12452166525967674 2.177573411870464,0.16892688983232965 m-34.96610504302439,10.444916456073598 l3.452018875144672,0.07067104302292997 17.845304364751993,-1.3617499123335046 l17.94831625436251,-0.9006927678461644 2.9349517241480374,0.41231381101590847 m-22.609160320106028,-14.866274274985138 l0.43498535796494375,0.4613765166890052 0.20780415007349964,0.8270195192993874 l0.15457560723881758,13.759862589827602 m-11.36738760264419,-4.034113150344963 l0.859301516173413,1.656580517153441 0.052198324846844994,13.35777896300968 m0.4853363896654395,-9.287942792005133 l19.483788628204913,-1.4640460729595264 1.294882691310784,-0.22608638980627824 l1.248029953425468,0.19782593532749654 0.5071184225129219,0.3196711116580909 l0.329247828314246,0.7805633953827499 -2.436249371702277,8.01569241125725 m-20.479598293884276,1.6009401551402236 l21.36071597048529,-1.1721042619712823 " fill="none" stroke="black" stroke-width="1" /></svg>