<?xml version="1.0" encoding="utf-8" ?>
<svg baseProfile="full" height="99.38812082640928" version="1.1" width="112.84911942303555" xmlns="http://www.w3.org/2000/svg" xmlns:ev="http://www.w3.org/2001/xml-events" xmlns:xlink="http://www.w3.org/1999/xlink"><defs /><rect fill="white" height="99.38812082640928" width="112.84911942303555" x="0" y="0" /><path d="M25,25 m0.0,0.0 m14.033221858220957,3.6178101152480613 l0.01313773511925574,0.4194427667382153 -0.8342918857799709,2.457836896864861 l-1.9681395091383083,3.013987010185087 -2.676246110114001,2.729571850586772 l-2.884473489640521,1.8379407744505434 m9.221574462110446,-6.520222730718724 l15.016729345610994,-1.6111421647466586 m-10.605596409609369,2.418686285776086 l2.3795697658561314,2.3239399612698284 1.6407061407586399,2.694730452953143 m14.67699818189363,-11.453116650388386 l-0.18600281629711407,1.0792021824665319 -1.6067236646112029,2.481090100368651 l-2.0834204475441966,2.359072367809595 -2.0400236937238234,1.8593764487412523 m5.799532657237483,-3.806122547897203 l20.841152537089478,-1.8094399006158324 m-12.868569021658038,2.4004532724536807 l-0.24246182236510977,1.204991633254396 -1.0269478011265583,1.781434483523628 l-2.5760841114542874,2.6703702630449144 m-23.249189382642108,6.14658245216269 l1.4619591704311468,0.13219305312155652 3.3032392395833354,-0.12458234101258231 l17.329408432293373,-1.5344264407934038 4.40562394141865,0.03078402012744607 m-13.048286092251084,-4.001894676466271 l1.0026993811212415,0.8400017060040762 0.21814197416749934,0.4816558830498655 l0.2129711444886664,10.25079879648859 m-27.418625591056582,2.16018679609288 l4.268793126328201,0.2700146962137301 45.595265703571016,-3.2895753381470647 l3.7553045578898536,-0.11289505940234129 2.9881719168578056,0.259238819625416 m-9.844409581901294,-10.877188090579237 l0.24159047022082356,1.2352024810717592 -0.5319678737635932,0.8562832081253865 l-8.596811143740627,5.366345797149063 -7.977510417950302,4.459941831708297 l-7.39300711098913,3.610018990618938 -6.371682586320216,2.8296197444811386 l-6.867542524039183,2.744382584204606 -7.396964441709374,2.6746383668392326 m28.5400016932741,-6.190986537411334 l3.647773574398944,0.957398954646237 2.491876122426997,0.918797615308234 m-17.90875260572513,3.1263745837514803 l0.582864921869102,0.9160573377292706 1.0736910131301654,13.103258720333175 m-0.5319795499785852,-13.29759928393662 l21.702107866271422,-2.1934242271538382 1.5816985559633603,0.3386628124975905 l0.5102515956214502,0.6214910349459588 -0.37533480332413144,13.72181035626687 m-22.995785921613642,-6.514550098094349 l22.34281916263362,-1.62689535137738 m-21.333314047746292,7.83737898314721 l21.157669847847192,-0.9270334082533364 " fill="none" stroke="black" stroke-width="1" /></svg>