<?xml version="1.0" encoding="utf-8" ?>
<svg baseProfile="full" height="101.97882071153168" version="1.1" width="90.48537056191796" xmlns="http://www.w3.org/2000/svg" xmlns:ev="http://www.w3.org/2001/xml-events" xmlns:xlink="http://www.w3.org/1999/xlink"><defs /><rect fill="white" height="101.97882071153168" width="90.48537056191796" x="0" y="0" /><path d="M27.570906052122012,25 m0.0,0.0 m13.678589182766615,5.08651319830753 l0.36131414268413276,0.45847892871868007 0.49256396383185425,1.4394669014576595 l0.02092442488312361,7.127872901154497 m-14.293435756748632,1.263613863700086 l-0.9846565691846426,4.632140789563028 -1.8462054403544639,5.111439254820535 m3.3408515990945835,-8.784523729112042 l18.04249766229263,-2.565099829548294 13.023962464092126,-0.9615370281684322 l1.421378764466818,0.25542995004636826 0.6932104334384234,0.44959350151891875 l0.22452288162476944,0.6175877359244495 -0.5835265703984609,1.497218948389225 l-2.7907098554611425,2.9218551496810985 m-25.83299092267585,7.712646291432673 l2.448719053840529,0.16695499595560245 15.229718333812094,-1.8742711145064417 l2.530925665279203,-0.13391846804406973 m-11.404793941246824,7.562685558773317 l1.236242995257285,0.8596386536158109 1.5189411061248341,0.041888607847337965 l6.060649663674048,-1.7251316669229184 0.7212390020027578,-0.2785776101489786 l0.7097225916755517,-0.02488236890828773 0.5557011451385587,0.3001431341581656 l0.21839781445255826,0.5046931348831751 0.003747212540913511,0.6866572945805762 l-1.0665230811673503,0.8084919670650801 -5.074752729662551,4.365910785446982 l-5.999709583096397,5.19317595361126 -6.338992998096848,4.523347824480017 l-7.201620144368783,4.285572592205653 m8.819790364548018,-17.22898548336729 l2.080583433352037,0.6860397816739857 3.2882284051326054,1.588083072085517 l18.442845789051265,11.362198394380318 3.3436286758176275,2.562303127717441 l2.823485331382926,1.4841057170634435 " fill="none" stroke="black" stroke-width="1" /></svg>