<?xml version="1.0" encoding="utf-8" ?>
<svg baseProfile="full" height="135.0235323022709" version="1.1" width="106.25192793031589" xmlns="http://www.w3.org/2000/svg" xmlns:ev="http://www.w3.org/2001/xml-events" xmlns:xlink="http://www.w3.org/1999/xlink"><defs /><rect fill="white" height="135.0235323022709" width="106.25192793031589" x="0" y="0" /><path d="M25,25 m0.0,0.0 m18.17476522356527,3.190228631407974 l0.026427967854017558,0.4370711938922246 -0.47596860302996247,2.7358065611382707 l-1.8601942961939828,4.412862098371748 -2.4618907871200473,4.181371054055886 l-2.6833782598616476,3.2722661233417285 m7.14181508873595,-7.3549324520605515 l13.708861250349328,-2.2685055178964664 m-9.868336607553521,3.441353368527623 l1.9288530237701147,2.983828150340021 1.1867837332570603,3.3101369854271665 m14.696634578246309,-16.555698419494558 l-0.06322545333190069,1.5281170579996735 -1.6092004573278664,3.8994320764996107 l-2.0920146136131974,3.604533253635714 -2.2400647269421947,3.067929491078987 m5.560432988630398,-4.920453843036038 l17.181627880881763,-2.19340848102097 m-9.646567489294965,3.5200527137831625 l-0.147869699484852,1.042009426204845 -0.8938059409461618,1.890173727834883 l-1.1780119412198655,3.23089290063158 -1.1401267459272073,2.5361123590047554 m-25.849092784805308,-2.211200069486469 l2.422930718510333,1.830723798322164 1.91014218356171,1.9844811032110026 l1.413299043553789,1.8123653807029434 m-9.540891341025167,4.4405200339865285 l1.5755906432049755,-0.7045595348803348 11.224037352080076,-2.1127299810866917 l2.315912098909835,-0.09867666423431329 0.42514875130700736,0.29383464370738505 l0.21866152050421991,0.506605031557627 -0.04087370496836333,11.00762485190678 l-0.5255766640065752,9.130392764613248 m-14.311643540046722,-16.12572094039663 l2.2606474822735465,1.6373217315441575 2.2811537159011146,2.165315526769933 m-6.971115906225749,4.619488056231162 l9.949312567332118,-1.164031543716774 m-10.91399545089589,8.589412839535822 l0.9953482275442477,0.8817777472384959 1.0676593404881902,0.08091998154645905 l11.135630686787476,-3.121627535816212 m6.302928743801351,-11.481062933509238 l0.3596465783559096,0.36534770461277544 0.13227539763093515,1.583127935547684 l-0.4392764916044162,9.074939428019537 m0.2173195139226042,-9.380229383886341 l8.910412755116038,-1.8658248148800916 1.864588850222218,0.04178664383044523 l0.3710068454083388,0.38646989540539134 0.0833836440586524,1.1107363300239192 l-1.5235004841434165,14.80531177145002 m-7.177458958504542,-11.593688166383652 l0.41789962870104364,0.42554314135542765 0.21010720271395195,0.5424611514117852 l-2.032057701756166,8.296617331904207 m-5.054902157154489,0.7782133940910437 l11.040567814716646,-1.0881684992870493 m-11.035877095127601,-10.235696175590125 l0.060860618516246204,24.322133655279863 0.26945844167379235,2.040886212982034 l0.4093282995185985,1.3829930724096653 0.5987868881437594,0.9935659837328088 l0.9794432267099937,0.8353472461288897 2.1212792046764166,0.6384790831030196 l4.697004218456993,0.17417904687602506 3.5207755288513414,-0.4525770965661433 l1.69375421364796,-0.5897554394625636 1.7337770399110226,-2.517556281153373 l0.07179048030727263,-2.2943606477580385 m-32.87372524358844,15.480123999977273 l-0.15476168972591325,2.111158523599917 -0.7538783111823991,3.3541748021684694 l-1.2376753730121925,3.412389471881351 m8.899294733433392,-10.882089390235388 l2.630569489795912,4.189811904444914 3.1946752705513273,3.257129902133188 l3.4941459683847373,2.4394041739698835 4.093067341859624,1.5232078053833487 l3.103505468699536,0.7070813961070007 3.6009728429247145,0.512153634684186 l3.2392625119220866,0.18635080754526942 2.776202610263688,-0.23050071549503326 l1.7243657790755542,-0.6710950100754389 0.44877626670453935,-0.5492790549509987 l0.031144841284186462,-0.6439751213837384 -1.1474958980670513,-1.6357962400102095 l-2.6633152384255934,-2.1502201230285007 m-13.763376266978483,-10.004982502431208 l1.2523932186049185,2.9184649011747656 1.0749998029411116,1.0968499926284492 l0.5058593969278937,-0.13736920875622224 0.5199440196021232,-0.6459841015311307 l0.999273966038566,-2.501018471883977 m9.588612138510316,-2.3871192381475113 l2.170989940636514,1.2063537992663738 1.7093892564868263,1.4037379166991937 l1.654365999879054,2.0083987627587283 1.3749428212622352,2.4987834050504425 " fill="none" stroke="black" stroke-width="1" /></svg>