<?xml version="1.0" encoding="utf-8" ?>
<svg baseProfile="full" height="98.89915881303529" version="1.1" width="106.4010753090003" xmlns="http://www.w3.org/2000/svg" xmlns:ev="http://www.w3.org/2001/xml-events" xmlns:xlink="http://www.w3.org/1999/xlink"><defs /><rect fill="white" height="98.89915881303529" width="106.4010753090003" x="0" y="0" /><path d="M25,25 m0.0,0.0 m12.657883705217778,2.7177476258312816 l0.0017616005675919573,0.4721020378508038 -0.7166322094309943,2.4351797820768697 l-1.6623828335533108,3.1020492834839097 -2.2888323971345534,2.8348639600175467 l-2.3857766006263024,2.0466367024956824 m7.900663518385184,-6.684910417369967 l13.019914647041919,-1.6271079517155906 m-9.24064820769636,2.6868997915356894 l2.1076697407402256,2.453188542772765 1.3829389027216459,2.7936824240481477 m12.807573541658442,-12.053910557454476 l-0.14836324584867747,1.1545590775181531 -1.3489134823063458,2.6373788972175265 l-1.768730473177927,2.5342101852665393 -1.7208282156349146,1.987614365598679 m5.012968563351503,-4.1259912246985735 l18.16991351949089,-1.9090700075635685 m-11.346559484419737,2.5688065590575486 l-0.20439871656309844,1.2819916750518778 -0.8289128327854604,1.8886633018044714 l-2.1236809525167035,2.888367514554311 m-20.819304555203686,6.810394416898333 l1.2701441591000484,0.1324494933140898 2.9337130617863707,-0.15039376289985215 l15.397894069489269,-1.6486401837076599 3.977872909665581,0.03491483394409464 m-11.634988294580557,-4.505132949969281 l0.9061720688971592,0.9074321970477459 0.19146990534684688,0.5227444913514748 l0.17936321067828684,11.178558397785 m-24.03632851227958,2.353190444001806 l3.7874046778737127,0.29823643445211423 40.895280911074046,-3.564920661861347 l3.3778764615110193,-0.10703657198534258 2.697877148160993,0.2809778364660086 m-9.055507780102417,-11.830932028822367 l0.22319130035372062,1.3385809237032853 -0.46470543791865193,0.9071623085028547 l-7.498323130316564,5.808372587494987 -7.192094951778632,4.878898590343915 l-6.612904940340887,3.9215816827131276 -5.777759628561314,3.057379983091895 l-6.241488217771793,2.9666121067696154 -6.776772478278842,2.8919882886536508 m15.602894472142962,-5.838731120804335 l0.5674220045147577,1.135205592639118 0.9450569550033542,15.037313916532728 m-0.49830787482185407,-15.223447697332452 l20.286954505295107,-2.41659729198742 1.4468559205455416,0.3823047965651343 l0.45637516357725616,0.6947091573222659 -0.3796507242875909,15.682890979015713 m-21.49390866663266,-7.295920942781571 l20.784856861762176,-1.8061091125647304 m-19.998828524754835,8.843930944349685 l19.936367605464607,-1.0960080923483977 " fill="none" stroke="black" stroke-width="1" /></svg>