<?xml version="1.0" encoding="utf-8" ?>
<svg baseProfile="full" height="108.64465084858239" version="1.1" width="109.49251413345337" xmlns="http://www.w3.org/2000/svg" xmlns:ev="http://www.w3.org/2001/xml-events" xmlns:xlink="http://www.w3.org/1999/xlink"><defs /><rect fill="white" height="108.64465084858239" width="109.49251413345337" x="0" y="0" /><path d="M25.000000831496436,25 m0.0,0.0 m11.497399806976318,1.2217507511377335 l-0.0019696567323990166,0.632733479142189 -0.5242764949798584,1.9097836315631866 l-3.0822229385375977,5.235978364944458 -3.0742594599723816,4.205795526504517 l-3.5104402899742126,3.9538604021072388 m8.878539800643921,-7.198972105979919 l4.968116283416748,-0.28224488720297813 9.153279066085815,-1.4285822212696075 l2.943948209285736,0.0206000916659832 m-12.231881618499756,3.796401023864746 l2.0811793208122253,3.5763195157051086 1.1137086898088455,3.3471891283988953 m17.91924476623535,-18.139325380325317 l-0.3705839067697525,2.3499462008476257 -2.1841612458229065,4.576096534729004 l-2.8650373220443726,4.377371966838837 -3.0905482172966003,3.7084409594535828 m8.322545289993286,-6.926766633987427 l16.694679260253906,-2.5130048394203186 3.6179468035697937,-0.13340500183403492 m-12.868958711624146,4.19602245092392 l-0.13069584034383297,1.109093502163887 -1.0692761093378067,1.9937621057033539 l-3.5446470975875854,4.036028981208801 m-38.641629219055176,15.799514055252075 l2.7969861030578613,0.6177567318081856 2.985575497150421,0.060054026544094086 l29.162933826446533,-2.1603840589523315 16.85503602027893,-0.934327095746994 l4.19312596321106,0.19106660038232803 3.4988567233085632,0.6244533136487007 m-31.413698196411133,-9.480867385864258 l0.6955362856388092,1.0823073238134384 0.24125678464770317,1.2274595350027084 l-0.009900600416585803,25.217759609222412 m13.448120355606079,-28.63372564315796 l0.6922785192728043,1.0258390009403229 0.264242235571146,1.9394657015800476 l-0.911850705742836,21.869394779205322 m-12.533046007156372,1.853315532207489 l13.922308683395386,-1.1119723320007324 m-30.996699333190918,-22.239785194396973 l0.6955362856388092,1.1199527978897095 0.24125678464770317,1.3186773657798767 l0.109636215493083,29.53232765197754 0.4799797758460045,1.4167727530002594 l0.5125575512647629,0.41265226900577545 1.764269471168518,0.2720699645578861 l4.3277812004089355,-0.16073983162641525 29.956746101379395,-1.5399576723575592 l4.760704040527344,0.24767622351646423 " fill="none" stroke="black" stroke-width="1" /></svg>