<?xml version="1.0" encoding="utf-8" ?>
<svg baseProfile="full" height="100.21696918842443" version="1.1" width="96.49054922934886" xmlns="http://www.w3.org/2000/svg" xmlns:ev="http://www.w3.org/2001/xml-events" xmlns:xlink="http://www.w3.org/1999/xlink"><defs /><rect fill="white" height="100.21696918842443" width="96.49054922934886" x="0" y="0" /><path d="M25,25 m0.0,0.0 m15.14787226410188,12.507174670181675 l0.43393639116274374,0.12018810151315286 2.5330927634002025,0.11539858014490048 l22.39118497774043,-1.9258251324024016 3.4926860941911166,-0.15311495591080282 l2.4917767387524994,0.1962467240239304 m-24.26008129713572,-4.265248618461714 l0.7644597818651335,0.7572720007940066 0.2600654898973644,0.6238405903044056 l0.7624086572296565,8.316539954784417 m12.689508640036959,-10.465275474995876 l0.2474775245272784,0.7812588936851292 -0.02838505971148907,0.9392505042881224 l-1.68340712299369,7.444698882475105 m-16.278135070263925,3.774366255294722 l0.6646851219343602,0.8481637182146229 0.2103275561531186,0.5801348951056107 l1.8273371691861025,10.922482870036205 m-1.5397228932884435,-11.81063420426882 l18.35565368105851,-1.9341637762784682 1.6478760279480837,0.27041524560501506 l0.6653540111011809,0.7857812269143596 0.08735152710372136,6.98876585951811 l-0.6713131821925634,4.349807992638931 m-18.362963489607314,-5.133897309101194 l18.564047649287243,-1.5802503201213274 m-17.919079236850298,7.089438378538746 l17.186019178242912,-1.3974525793939914 m-18.904579703909302,2.797876697462727 l0.05561115729851577,1.0852240189283107 -0.3478451567203087,0.8613423544490653 l-2.9352078297059494,7.884059028432831 -2.697709760228966,4.245420893054323 l-3.3858380255940657,3.2979035059369757 -1.94646636443074,1.2997797170336203 m18.41335586211831,-17.520584276129767 l0.4833793490995059,0.8284106158292124 0.18303511727958052,1.0108761937737103 l-0.037808687761299836,11.733936848653338 0.40694541634284764,1.3398354947032645 l0.8641576430488179,0.9372098919326249 1.2873074092136976,0.5746411150231504 l2.7303729473129312,0.36087837379015625 5.67295876606513,0.03541231689902717 l3.770582064321147,-0.34772560014973874 1.2113053101706852,-0.44163245511020005 l1.0021100430446908,-0.9264575037305257 0.39180075536289827,-0.9832419649779207 l0.13825237148632916,-1.7201743922070396 m-10.675226671115322,-6.329706948421059 l-0.18294151511871956,0.8167580628289218 -0.5287371363128356,0.7415993405016676 l-2.385387286199828,3.8466079102124318 -2.2190141424899887,2.511804799027729 l0.05900632136597293,0.7079810697930713 0.5518638622422178,0.13938508995980325 l8.748207753523628,-2.364713585114012 m-0.8793865777657585,-2.425090825690471 l1.6689561682953415,2.612906853713608 1.0596997814036822,2.3144649985144197 " fill="none" stroke="black" stroke-width="1" /></svg>