<?xml version="1.0" encoding="utf-8" ?>
<svg baseProfile="full" height="87.87181697816517" version="1.1" width="99.45970606050767" xmlns="http://www.w3.org/2000/svg" xmlns:ev="http://www.w3.org/2001/xml-events" xmlns:xlink="http://www.w3.org/1999/xlink"><defs /><rect fill="white" height="87.87181697816517" width="99.45970606050767" x="0" y="0" /><path d="M25,25 m0.0,0.0 m15.752300432879464,4.683314036556303 l0.41452958241433346,0.40773520406746544 0.5219088474193959,0.9993653445191959 l0.09249004165364148,1.0185134982609845 -0.1701914816635935,30.25977832760628 m0.8542055977882231,-31.479700775822323 l27.22283187815026,-2.355578817512568 2.7633675933998045,0.007409920274544653 l1.3764053219623795,0.5639127249048651 0.631858246503764,1.680513934976368 l-0.5028565814640975,32.086553580334055 m-31.706800733904945,-23.186676876308844 l4.44816879415421,-0.10909719993860875 14.800824191880395,-1.5093925470069507 l7.158825338661639,-0.1866301116657944 m-15.140124235405224,-6.971361907761666 l0.5136927092344912,0.7664899549846351 0.24358429730944306,1.0821541920966178 l0.05581653140004374,22.41709064459645 m-11.04596761538137,-22.068231158095827 l0.505407737222132,1.0027994336714152 -0.20517645836310622,1.4974511220193454 l-1.0642749477598457,5.286551260554071 -1.234338561257767,3.5829205653542506 l-1.269870611530402,2.6050705722480343 -1.6332247828374804,2.2599151478388078 l-1.622901892828514,1.8534907826373928 m13.25202201015153,-17.945539943231633 l0.5868498920801862,1.0752360819294564 0.12124633094976321,9.667701192935345 l0.36958316882857617,1.7262679144098718 0.6486791495941365,0.7674456357060063 l1.6075159349494341,0.4430254976073362 3.0397478666013313,-0.012417658373613197 l2.1292859621699094,-0.3527248531048488 0.7721241726679207,-0.4919722515940917 m-26.614740502126345,6.75484056848482 l29.45697225531783,-1.2623491659391721 m-28.18705374528653,7.85790216553631 l27.341381388760215,-1.1648105002035074 " fill="none" stroke="black" stroke-width="1" /></svg>