<?xml version="1.0" encoding="utf-8" ?>
<svg baseProfile="full" height="113.04475408542866" version="1.1" width="123.1170237016689" xmlns="http://www.w3.org/2000/svg" xmlns:ev="http://www.w3.org/2001/xml-events" xmlns:xlink="http://www.w3.org/1999/xlink"><defs /><rect fill="white" height="113.04475408542866" width="123.1170237016689" x="0" y="0" /><path d="M25,25 m0.0,0.0 m19.08302790932688,1.3461934767892216 l0.03508957956046764,0.440103935119283 -0.5481787724637025,2.4569970298370842 l-1.699485043979699,3.7733699858572876 -2.286365495365624,3.6795698992072037 l-2.581835883002687,2.9447560850519148 m6.612605071648107,-6.418798696002108 l13.029786372336032,-1.83408698078271 m-8.432510864186208,3.099760910942493 l1.9453322694860657,2.6089733235245496 1.1102007219638392,2.6251574025834765 m12.731631618025485,-14.149505794959556 l-0.10090594771130848,1.3118374846995136 -1.3910943797366593,0.9485003714329989 l-7.2384349137897175,5.485941317785395 m14.690493018344627,-3.586975597868364 l-0.17403588746903148,1.5167839652258188 m-8.03766233022368,1.863053170414121 l-0.03954066671863144,1.4369312150963038 -0.5138175593665901,1.7945686572848978 l-1.8603091263647469,4.452986250152782 -2.0471850056847196,4.450853013836457 m-10.592686085911263,-6.20138995707483 l1.6824021683479795,0.3358074970240677 2.386244656987201,0.9390802726229999 l1.909744172846345,1.2695309137126745 0.9434741899103366,0.9516313958239061 m-7.688512174580957,3.6463700546349473 l3.3619355700966427,1.5089395190246064 1.6857622717012306,1.1965014778603251 m-5.994135826875559,13.771689129438238 l1.0239538953124108,0.3064598379133872 0.9028307439956818,-0.480591569118166 l5.570499302931276,-10.434399714090196 m7.6631731978566515,-16.13995697636659 l1.28130291825814,0.14349312452972246 13.238579319862728,-1.7317580651949867 l2.38465815568916,0.01570959944370819 m-16.9476776174017,6.77800312783338 l0.4673237447080709,1.1478521207489094 0.03825604654537159,18.7681337960489 l0.19501294512321904,0.9066932091724409 m0.12023803843474688,-19.562402374480786 l14.220765773572493,-1.8687702007099938 0.7315750448962203,0.021052670778269247 l0.9882287427458076,0.5520637739863771 0.2548001647757528,19.783304993555294 l-0.19315633989820016,1.7807335139310831 -0.44570536652023407,0.6866893453495687 l-0.5936506024995166,-0.03523837383163445 -0.6458369895120423,-1.5888827305503586 m-12.71642256350493,-13.680561955385798 l9.915188935898483,-0.9954437026347785 m-10.007538483236754,7.275187819547005 l9.673349096048407,-0.9317103759603792 m-23.170410689231534,-25.263581771229546 l2.3289327579951697,0.8546342543110447 2.746558658679461,1.603517853928898 l1.7434674522002893,1.4194158069586689 0.9238685907045927,1.225690422188761 m-7.998619395054593,6.2931780566307465 l3.613031772158003,1.553340914261283 1.8835787606376024,1.230978203565172 m-6.102093475767634,8.208899664014595 l1.220949910291596,0.26719436333558105 1.1922022806816852,-0.16816906617078203 l4.685219103698606,-1.7862316186909957 0.559550912831395,0.00021440501297688606 l0.904820931131278,0.7818680484062437 -0.2068638882361445,3.557308308146944 l-0.04020176319119389,4.985367615311131 -0.2687903384475172,2.506072901888215 m-5.548287811177281,1.1325004090866848 l2.9197458262815004,-0.0016573824332744079 14.528815387746556,0.04559316079087745 l1.306763657073735,0.8895440023642139 0.6883249636723049,1.345129075918315 l-0.13427421968032033,3.94032672283629 -0.9656942398737002,3.9362684918129243 l-2.59551922861451,5.016478142538772 -3.620437641507158,3.962474585111744 l-1.6993801338757835,1.3162145331948505 m-2.9757259624597907,1.261146365858046 l4.2634806251044015,-0.3625329490155538 3.2353022326168706,0.07550897610538805 l22.538587864812534,4.389965187078028 5.582893617622573,0.4473047795030331 l4.47644545161424,-0.320894429789003 " fill="none" stroke="black" stroke-width="1" /></svg>