<?xml version="1.0" encoding="utf-8" ?>
<svg baseProfile="full" height="99.68324851947892" version="1.1" width="89.26415248956548" xmlns="http://www.w3.org/2000/svg" xmlns:ev="http://www.w3.org/2001/xml-events" xmlns:xlink="http://www.w3.org/1999/xlink"><defs /><rect fill="white" height="99.68324851947892" width="89.26415248956548" x="0" y="0" /><path d="M25,25 m0.0,0.0 m14.781702816687181,9.081456565070926 l0.40702084610096095,0.1479455067284753 1.6436024348283558,0.13310040986092253 l16.839171194464026,-2.132536908471916 3.082601288658837,-0.1653502661682081 l1.734292233326293,0.2171012034931702 m-25.91426486953635,9.084128604385965 l0.5304304270036079,0.3616532698628773 0.5143858995918724,1.3293286040671226 l1.4421050067963093,7.776422416122042 m-1.0212285203472455,-8.769416368649857 l18.22741864219856,-2.31287840452168 5.341517701416667,-0.4732940626791961 l0.9200586734883234,0.21438576165744172 0.6402952649570671,0.718631458520961 l0.09504344993100512,1.1514103880421966 -0.7989143814475466,3.47280625740192 l-1.1522786571285262,3.404347704863048 m-20.670704577875053,-12.672423620656875 l0.5825893512059146,0.8447064733883693 0.28832488748771806,0.817591736090087 l1.0329800681535517,10.647158655203057 m9.096342483345754,-13.675439234964943 l0.22881299973921798,0.7809866354410956 0.04989974295516887,1.625496217440674 l-1.946875447427578,10.616794758122087 m-15.238866943778872,2.3836505440257976 l13.328888093690365,-1.4307180345982653 10.354483920932354,-0.7581163326197363 m-22.35024430541979,6.708929155349564 l1.2592882959024425,0.26046891648894743 1.483081805300907,-0.011970908040415321 l13.131876470875486,-1.817390397589364 1.8898289227137106,-0.09866112128068508 l1.4380448922426774,0.20091755043557943 m-22.94797081406682,7.569829787771772 l1.5374000233355645,0.2698880665034706 1.6052024240649716,0.009961526423685937 l18.647874530300808,-1.364125308012867 4.779298391593308,-0.15147280814751807 l2.5733618322556837,0.26995752137567736 m-15.554568085359982,1.8551858203998535 l0.5546063865479075,0.8383582654559388 0.14685142790488168,1.3674544358102847 l-0.12721951271866103,10.454226377791263 -0.2837616073595322,0.6731491248744462 l-0.4176026217823055,0.22961257741171515 -0.4882707712425311,-0.05546995935272201 l-1.0821297524843405,-0.5979286095016941 m-6.902782009087587,-8.42197198399628 l-0.12250371134095185,0.9258658772828494 -0.26423751595496964,0.5246966027629172 l-1.6762096672114257,2.2121558699186714 -2.416819020777483,2.2974233951252523 l-2.8163207252839286,2.0947373845222526 m25.109190669151744,-8.29866136460992 l1.7623805542762119,1.2485478920940174 2.2058082750027777,2.0471173036125125 l1.6098725776658758,1.942600085227445 1.064187652302478,1.8275725285901827 " fill="none" stroke="black" stroke-width="1" /></svg>