<?xml version="1.0" encoding="utf-8" ?>
<svg baseProfile="full" height="100.56789720917968" version="1.1" width="104.6045484314404" xmlns="http://www.w3.org/2000/svg" xmlns:ev="http://www.w3.org/2001/xml-events" xmlns:xlink="http://www.w3.org/1999/xlink"><defs /><rect fill="white" height="100.56789720917968" width="104.6045484314404" x="0" y="0" /><path d="M25,27.54953730972735 m0.0,0.0 m19.72805881238134,4.7173904320807605 l0.026950106102581563,0.44908302368995917 -0.3918325831867253,1.6675018526411984 l-3.0237464249048145,3.9050266567220726 -3.5626188273536377,3.3664171212514424 l-4.47214808680759,3.3280321872581906 m10.43961586903229,-5.9012560366258455 l2.916281787204838,0.009475918510865393 21.29537464980299,-2.1704135677310776 l3.7794422387012614,0.03548656858501495 m-37.680291647094265,14.191747811892682 l2.4153759114245696,0.25715077183928375 2.766751561560854,-0.08764919667608774 l28.16050071743125,-2.97514439817302 4.2365646261569205,-0.30768250125198615 l3.0594831419987325,0.1742664535521278 m-20.326603010695035,-23.208970407292927 l0.491105193232514,0.8783881725584056 0.2444297700518581,1.705724219505214 l-0.2190113739505349,47.98378481711606 m-1.6455074573566624,-26.502450897866005 l-0.5617652755537166,1.6080528471181692 -1.9342287711668926,2.4518853491370676 l-3.3608530058328046,3.5158358663829286 -3.5394072880394725,3.2313396684547895 l-7.02173347813948,5.4326363561850215 -6.451407777444412,3.7556263408077806 m25.792369207899867,-19.691318165602418 l7.883558377166802,7.69146769322113 7.249995244936807,6.447698407615585 l4.389950871572687,3.568446746240858 3.9198953523082807,2.3947648757404485 " fill="none" stroke="black" stroke-width="1" /></svg>