<?xml version="1.0" encoding="utf-8" ?>
<svg baseProfile="full" height="116.53789841136377" version="1.1" width="105.10425640024428" xmlns="http://www.w3.org/2000/svg" xmlns:ev="http://www.w3.org/2001/xml-events" xmlns:xlink="http://www.w3.org/1999/xlink"><defs /><rect fill="white" height="116.53789841136377" width="105.10425640024428" x="0" y="0" /><path d="M25,25 m0.0,0.0 m12.143603901830362,4.711408502903841 l0.019950659095562512,0.44725739300345196 -0.6914998824486149,2.4581766061038324 l-1.87163636692449,3.508367182955519 -2.335872608379104,3.2823245289433367 l-2.7176021297400768,2.8334830169136276 m6.955465086733928,-5.722244083950505 l13.547654498385327,-1.7352782347644176 m-9.244603206718157,2.740935845065878 l2.143608896878491,2.5211906792476926 1.3155191703922158,2.6200480177416954 m14.11209605839191,-13.649079288337218 l-0.14001545161569579,1.3575195101063142 -1.5731502783755538,3.3466963709282274 l-2.009247331483867,3.070968980201747 -2.1981945273720402,2.7193933928842706 m5.497773398306319,-4.409904446149408 l17.55028638203948,-2.0682896751007043 m-10.047151252871078,3.0764559157082854 l-0.13638063799024075,1.2056473062097284 -0.8971085708843152,1.9687835693108586 l-1.2132314775004234,1.806836961789791 -1.3790906193606258,1.5013898508895707 m-28.20675814406399,-1.6072674415205548 l1.9252716966997212,1.5826195309935576 1.9404173284312325,2.0389105874020697 l1.7987352407944162,3.107102857863732 0.6517253389072072,2.239351951296514 m24.021812049988082,2.090763414648548 l-0.2999437327151012,1.0308812224696644 -0.6599226919922891,0.6224082330337383 l-4.546103000801073,4.726238945164604 -4.090736222061663,2.963691097719066 l-4.377611083360336,2.687173501740363 -4.598487205915972,2.2318586075506794 l-5.441342412213077,2.1171434830461355 -6.178778629439869,1.78457163801104 m13.405747211768562,-16.734002639935948 l2.402022890366168,5.463091551852228 2.8493345902835903,4.912206895583366 l3.645010603219351,8.84319952342556 2.170029108588624,2.965967352261597 l2.3645326678813197,2.523070986916687 2.493067304729287,1.9794545973692317 l3.0204086490662916,1.7326752100182945 3.6158289977666516,1.3094438426750865 l4.419534349217453,0.7210299842877136 4.623929353723267,0.1002047805666828 l0.9971724540265697,-0.3988252467735916 0.328185976960548,-0.8861225504928757 l-0.5928644821387905,-1.4053201416923158 -1.5409576792642805,-2.0836920397501935 m-18.77574470493795,-16.4698953653351 l-0.29023156596105665,1.862414075695404 -1.316748901390167,2.60452724900983 l-1.9000995348974965,6.062071274404266 -2.9952087778449488,6.967746545217729 l-4.0188457392878805,5.956282905361186 -2.8444076704103707,3.1520363151988153 l-2.4577200847360734,2.1527977734755512 m11.897719586836565,-18.8762116374828 l2.144263826463412,1.9552513189752356 1.7811699334567859,2.132915607511232 l1.4745434599533531,2.1679529196918503 1.035033835956111,2.2825062783206276 " fill="none" stroke="black" stroke-width="1" /></svg>