<?xml version="1.0" encoding="utf-8" ?>
<svg baseProfile="full" height="93.84608898802301" version="1.1" width="112.2140147024405" xmlns="http://www.w3.org/2000/svg" xmlns:ev="http://www.w3.org/2001/xml-events" xmlns:xlink="http://www.w3.org/1999/xlink"><defs /><rect fill="white" height="93.84608898802301" width="112.2140147024405" x="0" y="0" /><path d="M25,25 m0.0,0.0 m20.845015692496272,4.26230711391339 l-0.0036248249081812975,0.45640042238754874 -0.348223811367796,1.1808230733509633 l-2.5669759590050565,5.296356705778167 -2.089435085931763,3.0960560345547488 l-2.5169608098903185,3.235750041097769 m6.613608566686411,-6.331706949185508 l17.41841989470465,-1.7883681805705989 2.7381492996216727,0.03202102548757767 m-18.846434489556597,3.5081752245664157 l2.308429021236495,1.2751800658556423 1.996054491692634,1.5699974505413343 l1.4856530542420487,1.6558301760186835 0.8396954888061479,1.0507450206990352 m16.271119967081233,-9.931718439473686 l-0.09806897002938655,0.9033738922815693 -1.3497777842486927,1.0946254357806622 l-7.886739621404828,4.86264390454757 -5.1914653387543845,2.1032854272837307 m11.894641769291425,-3.8982920303913113 l16.625303354099874,-0.9925527510941181 3.407265412326,0.04572645150113961 m-13.214941073106969,2.399374390390163 l-0.05559502245431608,0.6579914949817981 -0.4475761709556671,0.8547749764752505 l-3.0441085066865283,2.443299126869381 -3.633486544353092,2.1997288196249185 l-4.469334602804657,2.1082738355571995 -9.394998219027741,1.7575413948532683 l-6.067972777055639,1.2960306117593603 m12.887475029294023,-8.886570340580379 l8.436856212268653,3.386635039456879 10.162507486517903,4.086289941087496 l5.7678647376806,2.068660506708589 3.7416748359360787,1.060595869224098 m-35.255754431724455,3.244549228393001 l3.686886480730971,0.10027286091517966 17.040278348698703,-1.1242202723389245 l3.9271781235549845,-0.147780656137663 m-13.025704317526268,-4.501643861862002 l0.6779731323461327,0.5210775916604315 0.24748883301800256,0.6215123650632316 l-0.01801187197090163,14.309488584505843 m-23.3748462295457,-9.0062474206361 l0.6700657854398423,0.23420247359868243 0.5338621564545863,0.7830054601724304 l1.467217099283879,6.625580607231646 1.0426741307842684,4.067007246118501 m-10.79774157067504,-10.624114973319166 l0.7480914867945088,1.7382907645091255 -0.23476817969533761,7.573946019302925 l0.2895092957191869,0.9668410359292856 0.5494967788316315,-0.011270112466348573 l0.986400818702373,-0.07969828976351506 10.030019969197012,-0.6091090938213662 l19.543991326194526,-0.9828228716423245 3.56695611535584,-0.1424181167861503 " fill="none" stroke="black" stroke-width="1" /></svg>