<?xml version="1.0" encoding="utf-8" ?>
<svg baseProfile="full" height="118.4966659596504" version="1.1" width="94.2140766529013" xmlns="http://www.w3.org/2000/svg" xmlns:ev="http://www.w3.org/2001/xml-events" xmlns:xlink="http://www.w3.org/1999/xlink"><defs /><rect fill="white" height="118.4966659596504" width="94.2140766529013" x="0" y="0" /><path d="M30.879226131043257,25 m0.0,0.0 m13.494786437433694,4.211214700323771 l0.39201843345628207,0.5026982698948238 0.45372857629815144,1.6184320891889115 l-0.02103871621980456,6.662227340380273 m-17.496956587869292,1.1948251229330829 l-0.892019664463977,5.240607138350571 -1.8097446096783125,5.81168197056126 m3.342681705220698,-9.88703394651172 l21.937338351118274,-2.616828640514231 14.363131878162593,-1.0617745172079696 l1.5375552894016489,0.23199152366672326 0.8461615359381336,0.42589824058109993 l0.3579126203308831,0.5924343526599654 -0.5101165633448541,1.440311134933984 l-1.5040216546941025,3.0815622597906676 m-31.251175762448277,9.038989540309696 l3.1869770188052216,0.15409443437156514 9.961084717405193,-1.693921305748906 l9.11574351039429,-1.1168337286586953 2.7641276105372916,0.20220575355024184 m-12.020884755018258,-6.429643900130564 l0.5843645890434335,1.004403573232091 0.31766507048385967,1.8495679269390692 l-0.061677142493874855,22.628490547804844 m-11.810326062879614,-8.669877768964707 l2.8044484630330393,0.3050383950566891 15.796607648529054,-2.0554076273956485 l3.638909632993551,-0.2101185017332573 m-32.15073658085903,12.01757697577813 l2.0557227360561834,0.3028443086680195 2.754583767461527,-0.08362361308243055 l32.62687443512121,-3.4109701851966516 3.1655373884814675,0.3822847813176659 l2.3655872061217473,0.5564279366181579 m-35.47709521975584,10.18407926743697 l0.7631720286233212,1.006159971121426 0.43511313403002283,1.1475972135061214 l2.068608701142508,13.939054925819349 m-1.6062371348317672,-14.710795807426111 l21.351507125547172,-2.8655196091694273 2.6900467506661268,0.18955158676849054 l0.7500726414930667,0.9523082431428266 0.11581478388536343,1.7447358430945985 l-2.4554269978203376,9.607110634106968 m-20.024082097225957,2.8928412454422023 l21.744011039152966,-2.401352943152616 " fill="none" stroke="black" stroke-width="1" /></svg>