<?xml version="1.0" encoding="utf-8" ?>
<svg baseProfile="full" height="102.58539354288145" version="1.1" width="108.40019329210082" xmlns="http://www.w3.org/2000/svg" xmlns:ev="http://www.w3.org/2001/xml-events" xmlns:xlink="http://www.w3.org/1999/xlink"><defs /><rect fill="white" height="102.58539354288145" width="108.40019329210082" x="0" y="0" /><path d="M25,25 m0.0,0.0 m12.583897712322466,3.1776585190527737 l0.009000764216555891,0.47403308622488377 -0.7775641034523968,2.513940165845453 l-1.7315138889467836,3.166120715241039 -2.29208246493399,2.860875982996487 l-2.4192820948169054,2.038444711290778 m8.11855406857246,-6.861564260473434 l13.847174992536956,-1.716954644295018 m-9.67180456939788,2.787868182919363 l2.1828942571058927,2.4710349013340616 1.4601501055311263,2.824720210826369 m13.332713219732836,-12.314623638376926 l-0.16543599204809517,1.159033986111295 -1.414876881567727,2.6622493227544872 l-1.8396906748635202,2.51105439426485 -1.8205150909613212,1.9890824844259807 m5.4249230455953095,-4.06594454732633 l18.88466179639017,-1.9117611248452915 m-11.861901010200892,2.5652166188594836 l-0.2196736420871641,1.3166739587663874 -0.8938296417758236,1.9263712791023728 l-2.2457950901757835,2.887182102715277 m-21.604052098460834,6.729334802147595 l1.3541744741421984,0.13469385458063987 3.0951461168691967,-0.1555345587199856 l15.71618736772087,-1.6416014794225808 4.155002810502663,0.03593524502127037 m-12.007195958646069,-4.430857011905039 l0.9400026430110483,0.9077053182270562 0.20874588861806895,0.5408736466596278 l0.1783832618943737,11.114393351655103 m-25.172502710652278,2.3476414245912296 l3.9755586259448137,0.2959484496732949 42.759625880772795,-3.595582743868318 l3.521033390738711,-0.1108041796129175 2.7900787828697915,0.2819081676392729 m-9.15759168504961,-11.959984201100077 l0.2412989300784083,1.352259557919378 -0.4813577291144555,0.9153392363901856 l-7.963384109568842,5.871243757684996 -7.513463207213736,4.843768029143618 l-6.855290087503324,3.9219270550007215 -5.961143987984882,3.103147803483366 l-6.448937455133976,3.033608872385488 -6.944249524128769,2.951531180909402 m26.46655054681067,-6.037430774385737 l11.39464940851351,0.9208926077305305 3.3634334870228786,0.46375112531580726 m-20.628848630883677,4.367053917004265 l0.4063545308725558,1.0316289187256804 0.8546282670661015,12.891889762593244 m-0.4678339585247874,-13.316586957524967 l20.398299127968244,-2.291827964309512 1.4614499604278315,0.3529971041408686 l0.48481373221347634,0.6804371243703738 -0.271073282532892,14.174413840568286 m-21.74459391817372,-6.765316596746712 l14.206093370762913,-1.54684501991624 m-13.318325502323388,8.001427782185726 l20.204528136029072,-1.174418352147694 " fill="none" stroke="black" stroke-width="1" /></svg>