<?xml version="1.0" encoding="utf-8" ?>
<svg baseProfile="full" height="102.13876750193299" version="1.1" width="98.67751416188412" xmlns="http://www.w3.org/2000/svg" xmlns:ev="http://www.w3.org/2001/xml-events" xmlns:xlink="http://www.w3.org/1999/xlink"><defs /><rect fill="white" height="102.13876750193299" width="98.67751416188412" x="0" y="0" /><path d="M25,25 m0.0,0.0 m11.59489430233879,2.973221446984991 l0.006738884078402375,0.4705160723151855 -0.6082786815398401,2.3517290610856443 l-1.4543438507051516,2.8217982631696863 -2.1787035492490183,2.9328262563580307 l-2.3708530816263265,2.1061050748536085 m7.593808821240693,-5.7475028498342935 l12.338309812997865,-1.2845192396057818 m-7.7137974976116785,2.393080982664122 l1.6449208232597792,2.0116927361255263 1.1058659280215204,2.3139690270008675 m13.032532059875019,-11.007305455311421 l-0.16775941343880282,1.2241723464849212 -1.3044446533274725,2.5517110044450653 l-1.979844703329831,2.7855697956480863 -2.0873093637843088,2.294929764778168 m5.445074406664084,-4.468599941642566 l15.780703918020391,-1.3545997888796901 m-8.990298549701722,2.7673018210878357 l-0.3267572111646176,1.0544190063666057 -0.9502063109198724,1.245104022170711 l-2.5932346658995233,2.0544148281305077 m-22.85767653495504,4.437924720762996 l3.814032317060886,0.015051279743845597 22.424116236431402,-2.0949701084903007 l2.4475689869689714,-0.1558435265513757 1.8128818710803702,0.12591453235510044 m-32.8686059324617,7.463723255378231 l2.2490422661790355,0.3314497664234786 4.251946240952593,-0.2027482197896852 l22.660221294636706,-2.532508465903002 3.3210059491658686,-0.1898343376355504 l1.0446431961777536,0.4998359654283547 0.19195978191382412,0.47155526697507594 l-2.058312719917563,5.963273018620093 m-29.26180301705378,2.496409298331179 l30.926801691044954,-2.537263692025134 m-31.20825323009931,-4.012192721524497 l0.328703083155459,2.475974281987761 -0.4035774610517327,6.135875333170122 l-0.6894321083606516,4.4120299490512584 -0.9107080865536286,3.1789180282391736 l-1.3165014462270481,2.9379231956519845 -1.8063205326640919,2.7410376735431585 l-2.387291306623008,2.6133987026090257 -2.242230743915501,1.9422034447713876 m12.011329611014174,-13.808948562845847 l0.3888511486803657,0.7731981767348873 1.078028201267072,16.167347012525465 m-0.6686939639048859,-16.098837795871383 l28.68654403928784,-2.9358604282363063 1.5028154525896689,0.3016967851061212 l0.8531476998457663,1.0413045890813495 -0.20862759479627285,2.155036002526801 l-1.3048454826892633,6.036107998290305 -1.935291677683674,6.690520487372595 l-0.5028106180616254,1.0136294603030775 -0.5126299650351807,0.4295212221223671 l-0.5341201630113157,-0.012687551358621608 -1.7152174809374332,-1.1618446369438102 m-22.642498631884546,-6.843433727435511 l19.122676837703914,-1.4308058234752767 m-12.634982951817356,-5.170425558294669 l0.932197136111619,1.190597561655909 -0.09513592465788274,12.072143779594004 m8.802977324495458,-13.868881941064096 l0.6725928038597143,1.2732644600644012 -0.10649327763886865,11.972399525097549 " fill="none" stroke="black" stroke-width="1" /></svg>