<?xml version="1.0" encoding="utf-8" ?>
<svg baseProfile="full" height="101.20046973277186" version="1.1" width="94.62012433074422" xmlns="http://www.w3.org/2000/svg" xmlns:ev="http://www.w3.org/2001/xml-events" xmlns:xlink="http://www.w3.org/1999/xlink"><defs /><rect fill="white" height="101.20046973277186" width="94.62012433074422" x="0" y="0" /><path d="M25,25 m0.0,0.0 m13.769429198298665,6.085627330429588 l0.3772061003451559,0.16773038797116296 1.5192449464524893,0.1800231934495423 l21.724268778157132,-2.469131750376672 3.8657931241125563,-0.19715143312356384 l1.8770079421506296,0.30133882011793894 m-23.028897339068283,10.150012326392474 l1.302233956439102,0.24112183416683425 1.6558643392791,-0.15002634779527038 l13.671407089818974,-2.210648050405264 0.7512058674071961,-0.1314370247328138 l0.8435519793566726,0.19690329387851424 0.5370827454306795,0.38557568658375246 l0.2670906885622091,1.079585447381423 -1.280315382524141,10.301823232337219 m-18.35695263314382,-3.2292503109548854 l1.3767016113113442,0.24302247803092514 1.618958551600278,-0.10659423851964539 l14.205024905149847,-2.129172628048348 2.6914609334331177,-0.20783103575259726 m-19.294028431586263,8.5586316811706 l2.068756431587954,0.2130699016794503 11.83240953952143,-1.9063431805282995 l3.187836460114392,-0.22719662877443136 1.522849429719404,0.15399438118786135 m-21.666759785656364,8.083870872273112 l-0.6074410625341062,0.18769337890225699 -1.2408387733146167,1.6808323799175517 l-2.438312954013682,2.5902539695886877 -2.6122628388800075,2.2289749175062545 m26.73112113974529,-8.620593615193362 l1.6074414083909518,1.3282211578645933 1.627336036427504,1.7958359201169176 l1.3323345714166137,1.9680976908422614 0.856239231130372,1.7080410956511005 m-28.743398270376098,2.1641921741657963 l0.5303533389458507,0.7124841809023363 0.2546299066750173,0.8956144812580288 l1.2328755309068362,9.183273763210828 m-0.9420223107381029,-10.060531341787453 l9.376857320964348,-1.9064945198843393 0.9111086046572171,-1.1722229784743474 l1.2065785648488876,-0.40279248473268425 0.36094145825665985,0.25573613967315245 l0.16409852149856105,0.9044799548645517 -1.352952705755582,8.531966422895048 m-7.9547163332550825,1.5831854904458258 l9.068059016164232,-1.2364839721128762 m6.480925653179019,-9.261872953124447 l0.38461074685559304,0.8053992040832383 0.21721484566306765,1.7282121665601742 l0.685837261361045,8.44782456400058 m-0.7725219378359655,-9.82553666038465 l8.913448340043582,-1.8352358780420701 1.670540437425328,-0.06827042686102244 l0.4071411462351006,0.272361097252446 0.22646739038692876,0.9169322900354394 l-1.56587827830714,8.06338019281528 m-8.623187102996026,1.3442860490479975 l9.842068276509451,-1.1056491066965835 " fill="none" stroke="black" stroke-width="1" /></svg>