<?xml version="1.0" encoding="utf-8" ?>
<svg baseProfile="full" height="122.52309829836321" version="1.1" width="100.98166467927334" xmlns="http://www.w3.org/2000/svg" xmlns:ev="http://www.w3.org/2001/xml-events" xmlns:xlink="http://www.w3.org/1999/xlink"><defs /><rect fill="white" height="122.52309829836321" width="100.98166467927334" x="0" y="0" /><path d="M25,25 m0.0,0.0 m13.464369748658173,4.47264430820253 l0.015202581308203652,0.45849723468504333 -0.6602912870960478,2.2978806079606486 l-1.688176189543173,3.308862763260903 -2.1804419182699513,3.083472267923281 l-2.343988502817661,2.3597727868390472 m6.448210822934098,-5.4596096418578695 l11.74455181335934,-1.6990993270275792 m-8.29422100802888,2.9811228416146673 l1.646171079506378,2.4231264213643353 1.0131003068672355,2.659598923720821 m13.126497060250284,-13.251881379777473 l-0.14445800044087,1.2814040863127591 -1.329367997315034,3.009225864292056 l-1.7620342494612844,2.9032277690241837 -1.8119585138181096,2.3550745052574693 m5.105589195115829,-4.0713557755061025 l14.777110753838846,-2.146469634428379 m-9.099317106120996,3.080184596763992 l-0.20477935043900003,1.2385663657671122 -0.7600294570630497,1.7567290962441622 l-2.01366291725664,2.785914400162274 m-17.89074076076232,6.172463794930733 l1.2380467129709989,0.20247310863202556 2.5479905522744,-0.1258903570185165 l13.746205937483106,-1.800694130870302 3.372255736500611,0.03526229313158194 m-10.700414702199375,7.037426072542126 l3.0635915656972084,0.7105860188147042 7.696367467513859,-1.0363095378759248 l2.0188578269010207,0.05415931973599819 m-22.760955178098936,9.204248123080063 l2.451892166834093,0.2940018123536031 21.22197852098413,-2.0600527014838654 l4.539662394846124,-0.17359073218888316 2.2625197179111693,0.2652136023314115 m-15.769473590560647,-12.24169174433933 l0.4753960391306943,1.2022024986384796 0.06469241736192397,1.1770477198657008 l-0.7805547093736495,12.680570827918151 -1.3585612181687328,5.096577879194923 l-1.9628294105326276,4.3467302880941725 -2.70763581176198,2.8423068677209966 l-3.8266523167286812,2.4430540378604153 -3.9637605707754813,1.5338310264845845 m16.792497235380537,-14.489862253291658 l5.02876349232736,4.215957285022616 7.4406366407679085,5.822862586838489 l1.79075137293484,1.0724254289056163 1.9030602862480885,0.838390883056839 m-25.11138785802312,-1.523376153910417 l1.3770545425245075,0.18549432871844937 11.351778952371927,-0.1291953643201342 l1.8051227979549482,0.03637902265154647 m-8.706826939654535,7.1722311868249 l2.5937355969843545,-0.3243524462343604 5.726048919764468,-0.9871298555060585 l1.1860103164470917,0.07583250766526585 0.5592212426431229,0.261713415272979 l0.20141120217295472,1.067194187641067 -0.9841036285730388,9.918354456821957 l-0.8216403039711331,-0.7196438925513129 -1.068779968603689,-1.149140029614603 m-6.110493251863918,-6.129247222932756 l0.406896066902217,0.7631949922016679 0.15238452307510578,0.8264949817548572 l-0.03650274937444533,12.031705084997526 " fill="none" stroke="black" stroke-width="1" /></svg>