<?xml version="1.0" encoding="utf-8" ?>
<svg baseProfile="full" height="105.68446995980597" version="1.1" width="101.8132543453471" xmlns="http://www.w3.org/2000/svg" xmlns:ev="http://www.w3.org/2001/xml-events" xmlns:xlink="http://www.w3.org/1999/xlink"><defs /><rect fill="white" height="105.68446995980597" width="101.8132543453471" x="0" y="0" /><path d="M25,25 m0.0,0.0 m21.500441458422465,4.01152387330534 l0.010855342132785438,0.4120017226299218 -0.5466056661907375,2.034992806452049 l-1.6243663831841084,3.3225924716804434 -2.0298832003183005,3.0980541276969764 l-2.328569429760672,2.6126180704815813 m6.031628245432957,-5.786293208484748 l10.34269491691199,-1.4729718407723518 m-7.189205676291224,2.4745087018253273 l1.6117009402394988,2.3246676452701833 0.9777206795771692,2.3560588366919823 m11.351277848974032,-12.45972107129613 l-0.14166281200743083,1.440956944976808 -1.1544590657594287,2.9927442111869693 l-1.5723842527241783,3.038491090406284 -1.737172025999581,2.7571135285815216 m4.506274794372328,-4.720115713078282 l13.804968631519529,-1.9367993627230895 m-7.946173739137033,2.9725648026982863 l-0.10682783563671719,0.732032260554263 -0.7764230951031204,1.4376264287497826 l-2.0436777991224075,2.431062466373382 -1.7363563507813566,1.6123834548239335 m-21.41813378373867,2.942250350846381 l1.6024556460844703,0.6596896805781982 1.8124036864081874,1.4474517656762869 l1.3785470718714903,1.478427620418491 0.6095651330441021,0.953013991294639 m-7.329545413458882,4.469708388123048 l3.329901955833935,1.7735222444133625 1.5192329975690666,1.3382409000572464 l0.6295945254282888,0.9087959768042381 m-5.565328288431998,17.22284650383295 l1.5056685771179235,0.4263194141482919 0.7173980786251001,-0.5583292967308863 l2.1648120829269564,-3.1760491603927097 2.1595335192078307,-3.76035799796112 m17.171584311863835,-23.170119951073342 l0.2640903028566903,0.4487017020682328 0.023930328816637297,0.682124151664927 l-1.1353065884947084,2.8233977823026826 -1.9801195143446142,3.404839497912633 l-2.166738921096932,2.7194202941203724 m-3.5316684721927625,0.03819739693472204 l0.6137663568389852,0.21521460940213683 1.4257968450343423,0.03448322666372445 l14.069970901474754,-2.2289307187591016 1.799497648829102,0.24535446054574156 l0.32590728100010086,0.31362078539476324 0.16327046926548303,0.975634995886951 l-1.6395261572526283,5.491315686500015 -1.2009431485342545,3.446921837275912 m-14.815701470545172,1.843540407618101 l1.8588213245383458,-1.7651276592088976 10.981719977459571,-1.7092549170763884 l2.2290469035357745,0.03254664261281034 m-14.387859534649156,1.7756038031473294 l0.38263150202971913,0.6133850571909425 0.1705839949431504,0.9231390612603243 l0.0628414609218444,14.810292432255414 0.4546570562094866,1.1524828009846477 l0.7497548277114598,0.4981096989841391 1.0533209180185323,0.20589877285016006 l2.726705090389244,0.05205547320817788 9.236345943813777,-2.366560037131221 l0.26432053812630985,-0.6330465613175946 " fill="none" stroke="black" stroke-width="1" /></svg>