<?xml version="1.0" encoding="utf-8" ?>
<svg baseProfile="full" height="142.96021416140067" version="1.1" width="105.96227918001946" xmlns="http://www.w3.org/2000/svg" xmlns:ev="http://www.w3.org/2001/xml-events" xmlns:xlink="http://www.w3.org/1999/xlink"><defs /><rect fill="white" height="142.96021416140067" width="105.96227918001946" x="0" y="0" /><path d="M25,25 m0.0,0.0 m16.569704456763997,1.2731161152897503 l0.016430577566288636,0.5152906338085098 -0.6367688580193132,2.477673084057032 l-1.880933427637575,3.7039054807372715 -2.526088057772429,3.5852782811145754 l-2.9198301826471837,3.173371757169635 m7.905395636820501,-6.847116889428134 l12.018967449384226,-1.6418975932611917 m-8.796553436696056,2.842949277843766 l2.0734959220675364,2.608698096670785 1.3550417389588925,2.822332162569166 m14.145795370786386,-14.40169334603315 l-0.14631123324417913,1.4346649677432937 -1.582932628410995,3.4990543913984204 l-2.0843780168846413,3.3809501917189424 -2.205954636502031,2.864278170076947 m5.6387545130974335,-4.973512100273559 l16.305925042609797,-2.12417700194371 2.7125189497788154,-0.033677564669896305 m-11.066053702514443,3.7114738336153468 l-0.17478809904359893,1.146228223038027 -1.0403459587859767,1.89659748463359 l-2.9953907385598075,3.2577073675621486 m-27.905658941685754,6.288237786765714 l1.9472810537048484,0.32035296509132183 2.6498856110945668,-0.10515497363047391 l30.829507564483915,-2.9368554436076657 1.3152510331924878,-0.17274311051022131 l1.757666734907214,0.40810661558454703 m-38.335499398923524,10.874630954962937 l0.7119440570289834,1.4228633457450515 0.4338226253662156,11.171512343158106 l0.7910555677732645,7.011748627143528 1.1864366709826375,3.8614564854825826 l1.3941149588211639,7.750253541638703 1.3240774720277955,5.798598642293419 l2.2830667371896918,6.322802295842045 2.8020788036031923,5.7776240316338265 l3.083717406752108,5.665297932682061 5.35927898970491,5.643052569064617 l6.375865406854119,2.704153168002934 8.04542732123858,0.9827813606200877 l2.1393835211784986,-0.6360495633139183 0.6844663959982451,-2.000893831388184 l-0.21304394999336482,-3.3274372428445247 m-14.9624892203326,-26.69801697440532 l-0.1186223446911948,2.00067919418717 -1.3919178832181236,3.206941436711699 l-2.501806712156939,9.060750163046423 -2.254750989495122,6.555364417312819 l-4.435866201155446,5.220056257101 -3.2917955448419116,2.250967051527956 l-4.034821078615926,2.008807415661048 -4.675468259674737,1.8194523639209736 m20.498722633577337,-39.191277762694085 l3.7938965963735014,2.9095835317626344 2.049351004429885,2.6299875900538954 l1.5927367250669933,2.50163910110518 1.3849899355802981,2.8450047051398495 " fill="none" stroke="black" stroke-width="1" /></svg>