<?xml version="1.0" encoding="utf-8" ?>
<svg baseProfile="full" height="98.77219089816128" version="1.1" width="99.74536448202764" xmlns="http://www.w3.org/2000/svg" xmlns:ev="http://www.w3.org/2001/xml-events" xmlns:xlink="http://www.w3.org/1999/xlink"><defs /><rect fill="white" height="98.77219089816128" width="99.74536448202764" x="0" y="0" /><path d="M25,25 m0.0,0.0 m11.50126969911914,4.519688935784619 l0.018791396112387993,0.49346675261186607 -0.6932325850173678,2.266012202640335 l-1.749822744155158,2.97324398407521 -2.329915547380787,2.8993329817700246 l-2.708504783057787,2.554716472538357 m7.986577111533213,-5.748192454937557 l12.445903503710829,-1.3156593010498037 m-9.02672586762972,2.6304978100259637 l2.033451057133352,2.2361837893142056 1.2704946964778452,2.5124503681578907 m14.327603503838127,-12.643505129602206 l-0.1779813267530252,1.3171025858904255 -1.5339499857738947,2.9534439185575665 l-2.118565663947993,2.9775230730230944 -2.1738720879879057,2.399533132618071 m5.561886255713091,-4.251642116511898 l17.111957850093294,-1.8255711623679276 m-9.765841746838376,2.9590663671142963 l-0.2814481464316792,1.2148396284339682 -0.8898001639185812,1.6433636588555673 l-2.302414235244045,2.67017361864468 m-28.329518437861427,5.880071947731345 l0.588284204636785,0.2692607116985024 1.2256151563499458,0.14760152829039738 l12.195092255844608,-1.5887128921008467 1.1376255977849086,0.004583389900195583 l0.832601559739883,0.27607443039061774 0.501670433203328,0.5027872131551675 l0.17404972498442153,0.6550194391826784 -0.040781877388306124,12.712944506124876 m-15.027196818934687,-7.152535223739471 l15.458487720454006,-1.660572771929795 m-15.046426810045205,7.787131741847638 l14.609434624392557,-1.513251289902886 m-15.771525805558078,-12.093012917063284 l0.5996565797715183,0.8227509099376964 0.22978795102203256,1.0944897334531272 l0.20971320417644007,25.69514163690471 0.2461533780862695,1.3030639833181747 l0.3642836030753122,0.19328570537568 0.6266930701753767,-0.19287832170561978 l0.9182514656655836,-0.5436170288225733 11.271479368451063,-6.8335324452934785 m-2.7290047733038585,-4.071171486194065 l1.9999160811568502,1.7492003462044725 2.15208911049636,2.714344432432111 l1.5333450957750667,2.6114730819096574 1.0106820196026467,2.639178514921775 m5.886618225245262,-26.709087910433478 l13.208120105784307,0.34814482101967137 1.9644871758981266,0.35453002643137554 l0.9259758299544292,0.6837268186184737 0.0680659056425785,0.9511082771691977 l-1.3756601186773636,4.352138667984433 -1.4814817084877359,3.102905243675722 l-1.9699349902497936,1.787419415482178 -2.1403796191779714,0.07436996950646602 m-9.433732165156085,-19.80916908364489 l0.6706155597689123,0.7722744277563055 0.3036406986021556,1.3987796102467758 l-0.10758628960657765,30.079068550292888 " fill="none" stroke="black" stroke-width="1" /></svg>