<?xml version="1.0" encoding="utf-8" ?>
<svg baseProfile="full" height="102.23220334451136" version="1.1" width="102.01539910641938" xmlns="http://www.w3.org/2000/svg" xmlns:ev="http://www.w3.org/2001/xml-events" xmlns:xlink="http://www.w3.org/1999/xlink"><defs /><rect fill="white" height="102.23220334451136" width="102.01539910641938" x="0" y="0" /><path d="M25,25 m0.0,0.0 m9.359235797484317,2.6597848817831125 l0.018028728456946617,0.46565259552518184 -0.6116989465902791,1.9627918109872284 l-1.9670490011001884,3.1547519328556204 -2.630061917307348,3.043638554645812 l-3.343217499712834,3.002709207888156 m8.215126616118688,-5.380644422075805 l13.979189020885613,-1.51319754398294 m-10.686273372867866,2.561174929603384 l2.7524193352419437,2.1898298283613453 1.498754120479376,1.712628030022635 m17.80157658978921,-12.374749418634032 l-0.19059331562247364,1.3326065617776541 -1.7906998816682762,3.160495318736385 l-2.3663149987840306,2.959694060348278 -2.5757195161141637,2.6267650445392103 m6.40338937362239,-3.9577957862659687 l18.149307974108353,-2.043725961391375 m-10.67211333954198,3.0643986436791226 l-0.22917736441710043,0.7694830406039646 -1.0256410832676432,1.375970172610469 l-2.6615332091064716,2.4729764484613566 m-31.4537449875513,4.999953240207236 l0.6482450314029106,0.8848616497234907 0.1550399539835962,0.9876159211441113 l-0.15001397864221216,30.329851778206812 m0.26223191283808334,-31.812098765664 l13.362884146369655,-1.600893293899486 1.533488707239254,0.35904115420540733 l0.43002434074112345,0.9359827765300255 -0.859829892608261,10.439685306947652 m-13.732207719125707,-4.353194419086988 l13.77457356770715,-1.6207179461520898 m-13.962080046371165,6.9532763345149124 l13.174812019733475,-1.5904449048258655 m12.371159910708593,-12.291450611193738 l0.5111142042850451,0.8378117767371455 0.12182673749720141,1.0075059552786996 l-0.011038630401837644,10.830728249845668 m0.3854669126696102,-11.940875778835833 l14.648272959485233,-2.002843000896849 1.282580396310056,0.3168439323647652 l0.6802821185146926,1.0129664800127274 0.07938052825227394,33.872990943337165 l-0.22662407569505494,1.5125544681371896 -0.5478751238607124,0.759496573924062 l-0.7691262170338165,0.1583175938703491 -1.7603375073610787,-0.729976540347332 l-1.8894890487678475,-1.3155124978466475 m-11.73124708987991,-29.24246868296572 l15.70291562070671,-1.573064329845777 m-15.643624527136838,6.955096508968753 l15.79676679435992,-1.3145443416064824 m-30.645558874944978,7.294935075822422 l0.5619731382209545,0.9242593231159163 0.08922942267549694,13.708019902287537 l-0.0017744472912154072,2.4092674348380543 m0.6638094205590451,-16.51972731473559 l14.802055382143173,-1.4672970174829718 1.7021416836760694,0.2920182922318167 l0.567105447900826,0.6248444857126555 -0.3881997699689006,15.882463616002793 l-0.3580130146992061,0.9865503921888505 -0.6168573079900339,0.2895751589155178 l-0.8051804546793806,-0.1787229312430208 -2.429938833051639,-1.4375379833482078 m-11.806843044858285,-12.03588012117197 l9.744136826256971,-0.7813527961693878 m-9.815229298627917,6.220255510419506 l9.940070122414095,-0.8040606226912663 " fill="none" stroke="black" stroke-width="1" /></svg>