<?xml version="1.0" encoding="utf-8" ?>
<svg baseProfile="full" height="114.10246915454529" version="1.1" width="97.57055631255798" xmlns="http://www.w3.org/2000/svg" xmlns:ev="http://www.w3.org/2001/xml-events" xmlns:xlink="http://www.w3.org/1999/xlink"><defs /><rect fill="white" height="114.10246915454529" width="97.57055631255798" x="0" y="0" /><path d="M25,25 m0.0,0.0 m12.726024205998128,4.9604088051514355 l0.02149892993386671,0.47967989811234996 -0.49554461767399094,2.476065763474213 l-1.6243514799714003,3.9624887772775086 -2.0319194818507937,3.495560993077636 l-2.367122566601562,2.8298527269583977 m6.175849857537079,-5.816446407637639 l11.84323119078431,-1.7454745480954332 m-7.941022733575132,2.8788879764374644 l1.7696363834651747,2.7130985611369116 1.0757685845731564,2.7503871115200993 m11.958998778001474,-14.60190174389116 l-0.08732775139641284,1.3833840863456062 -1.3114297701644924,3.3638155210687226 l-1.7328552479218144,3.090861174859647 -1.9588009365380532,2.7213993253531514 m4.726593712203233,-4.213922848546104 l14.922081691799358,-2.1790304290683866 m-8.630027561927168,3.09204937969918 l-0.11723937329774209,1.3527873330828801 -0.7352491615990786,2.2122825338516763 l-0.9827295624062368,2.0533653734495334 -1.0759691290050082,1.646625972423156 m-9.92797940642648,-2.1495733478882784 l1.296855038261947,1.593523772385618 1.1282944281265483,2.1953835022009494 m-16.593903049908572,3.8584773873420595 l2.8358227097994884,0.15163739703989168 25.680398760754887,-2.142239998035629 l3.8082753832649052,0.05097485807932853 m-27.333515857918485,3.43669115123908 l1.843805943381226,2.2872815898911014 1.5214427469143845,2.8871188553794562 l1.1371030550253858,3.654319532595136 0.4651049223683362,3.206848861406997 m14.019177428887254,-13.85016971193835 l0.1506048119580007,0.985016130522387 -0.30084913960816845,1.44812103904491 l-3.720539502053505,11.020789955343782 m-25.709890002777627,2.627250951783378 l3.3181052712977808,0.213650926231609 16.348821548949804,-1.4676883007330372 l21.173696544425592,-1.2063658255798397 2.301630717468375,0.2723020050743935 m-34.26124327227983,9.163984569467786 l0.9757140514118635,4.306998548451313 1.2556904423637607,12.651909969200407 m-1.3868993365650846,-16.41716373614719 l22.037200333560023,-2.4860499544037165 1.4100251031081603,0.29484440640567794 l0.7357028333094368,0.9583124556964393 0.09657329561293573,1.0318687942256861 m-20.97889139779213,7.373734752220354 l19.87197102589984,-2.0526234392393845 " fill="none" stroke="black" stroke-width="1" /></svg>