<?xml version="1.0" encoding="utf-8" ?>
<svg baseProfile="full" height="106.48830643569993" version="1.1" width="107.8633915644213" xmlns="http://www.w3.org/2000/svg" xmlns:ev="http://www.w3.org/2001/xml-events" xmlns:xlink="http://www.w3.org/1999/xlink"><defs /><rect fill="white" height="106.48830643569993" width="107.8633915644213" x="0" y="0" /><path d="M25,25 m0.0,0.0 m14.647002772431936,3.11524475218241 l0.020757703268972066,0.483915360792402 -0.7241164633033892,2.5779395392541518 l-1.6987488121870398,3.462013512550045 -2.2757145514324466,3.1035117871799116 l-2.3841699935430496,2.159370384952148 m7.932727179769566,-7.006794871972109 l13.120270466113535,-1.8053222481806215 m-9.25591462521258,2.8503842815542155 l2.0940767488363132,2.6593384248644583 1.3891479304802095,3.019725081757411 m12.807125618841582,-12.955055356943065 l-0.14623805152591862,1.2159456727523406 -1.3315222996726421,2.7999176286405736 l-1.788562881955517,2.641486285485764 -1.7485835225407367,2.054971016691055 m5.040676604210682,-4.382751498689426 l18.500081474974056,-2.02164913675882 m-11.595595379557238,2.6871909199912123 l-0.1986640726357048,1.391608168621642 -0.8165718884508353,2.064663000134297 l-2.1047788584573204,3.114752629028424 m-21.323184173478875,7.4170250800107596 l1.278817957927743,0.1422900237737149 2.9512605665599883,-0.16998402769046672 l15.559298965919455,-1.7950840035286182 4.03286115162152,0.03473432911908018 m-11.742210237481983,-4.815150661739143 l0.9161280730238064,0.9654025179513138 0.19769205223381653,0.5716872639514253 l0.1914718040471032,12.057555475100171 m-24.26084612358439,2.4668417094401334 l3.819180066234379,0.32170357019148915 40.646270638781566,-3.810821775389704 l3.382984900914029,-0.1316083379244122 2.730980823250713,0.3024991872334623 m-9.209422484629048,-12.575077876763766 l0.24153037098546706,1.4413573241665991 -0.4612539088856278,0.9637320315775552 l-7.688481299368828,6.288765536992818 -7.258644263228815,5.1719867882557 l-6.644589564291183,4.131516616553119 -5.8173767519443285,3.251173415428552 l-6.29386740779094,3.1595751523243223 -6.799426595298225,3.081410096016802 m25.861616829378313,-6.221410967704551 l11.12065629957617,0.998960002696618 3.279694480799512,0.5021230317898083 m-20.251029503271884,4.700800952591242 l0.40885497847171537,1.1207809784259397 0.7793851159649081,13.685117668961537 m-0.37136324877552035,-14.190314189014357 l19.598531844375103,-2.457353699671463 1.4019894658870462,0.37580302225148865 l0.4624884920277256,0.7374770964676455 -0.27595375044619364,15.158642315798048 m-20.80006785270486,-7.244294068973514 l13.574603410647583,-1.7113128196241936 m-12.79511189198985,8.599740474995373 l19.46442782210782,-1.3069797900530011 " fill="none" stroke="black" stroke-width="1" /></svg>