<?xml version="1.0" encoding="utf-8" ?>
<svg baseProfile="full" height="100.22107224726882" version="1.1" width="97.58725733173401" xmlns="http://www.w3.org/2000/svg" xmlns:ev="http://www.w3.org/2001/xml-events" xmlns:xlink="http://www.w3.org/1999/xlink"><defs /><rect fill="white" height="100.22107224726882" width="97.58725733173401" x="0" y="0" /><path d="M25,25 m0.0,0.0 m21.464359918343263,3.2559359825797785 l0.036584969861996004,0.39997105064827965 -0.4118433637831174,1.5259249257464158 l-2.9473861975114133,3.5448503112885055 -3.312488133727355,3.156290833906781 l-4.669065364394841,3.3963795146808695 m8.884162305501851,-5.47866615703125 l0.6110802539093535,0.6038233316858789 0.2922975577357724,0.9764781664208189 l-0.07395011965040306,12.025554504838205 m15.858183290599953,-14.232492918111712 l0.15542112878710965,1.1335529220683853 -0.5095928574575589,1.4924764349808575 l-1.9201814508898842,3.5437922332297767 m-13.447156330822363,2.1233189305886926 l24.73633692572155,-2.114285575476331 m-14.768217751689658,2.173794076837734 l0.5400280484959121,0.6370242981334835 0.21823087046758588,0.8298853748156493 l-0.010979570866106632,11.394649880902952 m-11.430356705931016,-8.072664567813524 l23.729258835378914,-1.5179750612648515 m-23.360698843245853,5.958439557594402 l23.18021537236146,-1.5077484984956329 m-23.13230593486262,6.198366567303075 l27.87532047940147,-1.6998862732013937 m-40.025164791006716,8.431460133533202 l2.0520960398544665,0.18999253512982212 2.1405832352535867,-0.015269637453104385 l18.529330091847058,-1.8502469860213204 1.6425103329921227,-0.9062957909743985 l1.61764064709129,-0.08446632083134163 m-12.633426125508173,-3.2039670275376397 l0.5017393919362664,0.6609495862614868 0.21824031171841318,0.8282841071011946 l-0.04591812416134941,14.83187625261981 m-1.346514015311441,-11.412591421534959 l-0.1662864727278988,0.740154061443317 -0.6666524139171914,1.320567221579459 l-1.5504950532275277,2.036141128713221 -2.0472054373536195,2.209144508601983 l-4.417484931023341,3.6187167573290333 -4.420745627004523,2.6187828875458234 m16.325443802312083,-8.002972383484014 l3.070945425512972,2.270008538530479 3.948480028602759,2.3751178392866827 l3.582784778468056,2.0996568435020535 3.216890091994599,1.7192395670721734 " fill="none" stroke="black" stroke-width="1" /></svg>