<?xml version="1.0" encoding="utf-8" ?>
<svg baseProfile="full" height="98.18466504347526" version="1.1" width="106.03099536545801" xmlns="http://www.w3.org/2000/svg" xmlns:ev="http://www.w3.org/2001/xml-events" xmlns:xlink="http://www.w3.org/1999/xlink"><defs /><rect fill="white" height="98.18466504347526" width="106.03099536545801" x="0" y="0" /><path d="M25,25 m0.0,0.0 m16.256654019832375,2.805111498799975 l0.4300485578163117,0.37374576905277884 0.6041637380044681,1.3313485132603713 l2.3071940511303004,15.966551833306113 m-1.8774997447246136,-17.811785512574716 l23.655750534102673,-2.2546587388091734 2.407184979208946,-0.04811547565353393 l1.2078593460511862,0.38472132061525055 0.7509654545461281,0.9492142343002452 l0.08104734676445904,1.5631330579735532 -2.9056713975877657,13.971232580986186 m-23.55571971358294,-6.97526903087993 l24.697813478447515,-1.8381691674416771 m-23.307270483964075,9.27395137502179 l21.494470886813318,-1.6506510954827893 m-33.40315976794137,8.46063308852765 l2.140797867907805,0.34385339026166095 2.7067644982699677,-0.030458235394482967 l30.11570141174384,-2.5634748832446266 8.233845785308432,-0.5137361145767555 l3.99005451731104,0.1895124802839903 m-24.676395716173406,3.2270302139979843 l0.6925426652870379,0.7994083553886995 0.3384093228782673,1.2465016375383513 l-0.06395857124828874,14.918976167442782 m1.5249627253463245,-9.32197908942046 l11.505055617481675,-0.9803227899975722 2.3717081656001278,0.14152470013583443 m-29.955949566245515,-0.382008793098515 l-0.03957598636062252,1.341389856917064 -0.4892790987324336,1.2726670222235703 l-2.815085086904272,4.1699603199553525 -3.7218411751568086,3.8776155078627004 l-4.881089980059449,3.3999549050877453 m9.560201240903016,-7.242347849967759 l30.791805841016714,8.39168674783533 3.5515417874535404,0.7672699600630173 l4.192539095037106,0.6306472831792553 " fill="none" stroke="black" stroke-width="1" /></svg>