<?xml version="1.0" encoding="utf-8" ?>
<svg baseProfile="full" height="121.69901319785534" version="1.1" width="108.15107020945914" xmlns="http://www.w3.org/2000/svg" xmlns:ev="http://www.w3.org/2001/xml-events" xmlns:xlink="http://www.w3.org/1999/xlink"><defs /><rect fill="white" height="121.69901319785534" width="108.15107020945914" x="0" y="0" /><path d="M25,25 m0.0,0.0 m16.645504858311536,6.491874485464045 l0.07748484266348864,0.5109781117211248 -0.12685110296002597,1.3720841735587714 l-0.9777216395720193,2.5167911015630784 -5.154481002086852,9.39220399453545 l-0.011687122498642254,0.8434506686300589 2.905658248940739,0.34089508984964045 l12.251713960402846,1.0580121119279828 m-12.816621628238318,-9.193385533385307 l2.759095597069674,-1.0705972128977468 8.501263512552423,-2.1134400488319436 l1.1727929333963427,0.14913809460708616 0.349888086522762,0.973117924417746 l-0.34940726222963103,5.379891360174467 -1.2138324954829873,6.4126569850385815 l-1.2839481235586336,5.981374968888279 -1.393544978203989,4.5077098443529895 l-0.8340674602078832,1.0436150608588628 -1.009736819750074,0.033819104319349924 l-1.2211797149511017,-1.4253914090236626 m-1.0557400752217785,-18.477299641229436 l0.11851626259966369,1.5022354785962806 -0.8302627368809629,2.377849817255879 l-2.364821895920578,4.255569711219853 -3.189849189976578,4.1841210398259765 l-4.223871998098756,3.6969874363747377 m29.191351560338838,-21.643053081342096 l0.5067746426291905,1.6783807358922258 -0.8422975269529056,3.193877603390541 l-1.5614865011199532,4.692201600244708 -1.7629350551125889,4.117325192558668 l-1.664374186657055,2.838400112698796 -1.9313655754925645,2.511075430358323 l-2.2843255218075256,2.368106231438231 m7.971247960851989,-16.080915034448317 l1.194133800774934,5.395217626934704 0.8485648503323948,4.769938957595277 l1.2689549759326408,5.207994426945318 1.5425286419964648,4.898142356473637 l1.6992795071560165,4.821726651127792 1.2596808804563755,4.545312065078699 l1.1998859099716215,3.4801793759712116 1.2510544082187796,3.1643016582335672 l1.3641676471169257,3.084275715986482 1.4541994201170931,3.082877354730642 l1.512748125141217,3.0219927309851733 1.5336085582826813,2.9651879476493295 l1.5555407936883403,2.814312951747031 1.618032539622451,2.5482022616097937 l1.8086610512477768,2.063039489619892 1.2800760323903755,1.2115657382007585 l1.175895118403525,0.20508438036281765 0.23717509531142844,-1.6066573298744096 l-0.15674244300487097,-2.7339264862906933 m-6.668778234652793,-23.700725911802667 l-0.16968268911632184,2.2797121543637147 -0.9983829985657895,2.914453074950885 l-1.6670747210598995,3.5391639241571062 -2.3124233206517233,3.8246191448874205 l-2.4120206002918274,6.766792112349075 -4.075644585641536,5.84444179984094 l-2.0951872125727444,1.9758661660389827 m8.513929076741267,-40.779834482910395 l3.10232981257873,2.741182479411967 1.8173338944900443,2.576375931155047 " fill="none" stroke="black" stroke-width="1" /></svg>