<?xml version="1.0" encoding="utf-8" ?>
<svg baseProfile="full" height="100.36934996329916" version="1.1" width="100.65452133858" xmlns="http://www.w3.org/2000/svg" xmlns:ev="http://www.w3.org/2001/xml-events" xmlns:xlink="http://www.w3.org/1999/xlink"><defs /><rect fill="white" height="100.36934996329916" width="100.65452133858" x="0" y="0" /><path d="M25,25 m0.0,0.0 m11.965491203671567,4.899921757495297 l0.02212716932860224,0.4473038781667308 -0.7481546825914968,2.2252173205765216 l-1.7521971110671315,2.9296773756132177 -2.3344117674525244,2.6660627530105097 l-2.7968424077822718,2.1643331538880126 m7.998987588186702,-5.431805538680241 l12.926332883626014,-1.316674997175526 m-9.112637693575738,2.6299694521772987 l2.0255798397387266,2.1468198951139614 1.3190542552464204,2.3724422556006153 m14.44921591804309,-11.775969100096978 l-0.17652256169879588,1.1706962279929796 -1.5215774884644568,2.7234457559433136 l-2.112832012450781,2.75078887774431 -2.182107050888272,2.1723571471854766 m5.328565963303602,-3.756556681710855 l17.35644929340675,-1.8060082536505468 m-9.888450378889374,2.6386567733327024 l-0.26613820812231376,1.1571018743044397 -0.8487248340800011,1.6207704872211586 l-2.204349486748392,2.64027849233613 m-28.300484298544728,5.601601790809643 l0.5896724629274205,0.2650675345383049 1.2298726903996755,0.13452642644160204 l11.833865266686125,-1.3877559602431884 1.1554302474543106,-0.01652568578432285 l0.8366057842913813,0.24454151029322196 0.43740753551301836,0.46368460271044687 l0.14457834713595824,0.6143419910393654 -0.038242838344088,11.981133550319793 m-14.792989426136836,-6.670057886484783 l15.186003940487977,-1.504212269456775 m-14.895610482815684,7.330149426106007 l14.473324105460305,-1.3547675761874922 m-15.626722080923617,-11.335075746004136 l0.6321893489523459,0.7799438812605317 0.25000029782726374,1.0123414852935981 l0.12084310738425881,24.271613713118104 0.21152609496115557,1.378282077021901 l0.3348218398997818,0.23844161268766154 0.5918470905555232,-0.18131258280510967 l0.8976288715185746,-0.5117341241081022 11.152292265974468,-6.441322879285722 m-2.7465356393812854,-3.7259253392840175 l2.0029647267356316,1.6379791990014274 2.1732482760179566,2.5497123276869176 l1.551777129412411,2.4800931121830754 1.0251844774660095,2.4964392972103826 m6.089556673188557,-25.23000378699643 l13.150177078080631,0.34134485954287724 1.967489169861058,0.3383010321545397 l0.9474212443709685,0.6292790101148787 0.25770803778115764,0.8979005635245274 l-0.5619074276375896,4.452865737590174 -0.806993275797093,5.789024840420349 l-1.0225872594918484,4.320687697939172 -1.2165686905608981,1.8292067686206985 l-0.8260196571789039,0.18183490683278175 -0.7610280803726882,-0.26665411188556987 l-1.565617445416079,-1.5813406022311212 m-8.801300806258437,-18.249407567339958 l0.7795517760137717,0.726866340896315 0.3617241521053934,1.3090194048457637 l-0.09759439397565309,29.26039247480331 " fill="none" stroke="black" stroke-width="1" /></svg>