<?xml version="1.0" encoding="utf-8" ?>
<svg baseProfile="full" height="93.4502107698421" version="1.1" width="99.0190566668609" xmlns="http://www.w3.org/2000/svg" xmlns:ev="http://www.w3.org/2001/xml-events" xmlns:xlink="http://www.w3.org/1999/xlink"><defs /><rect fill="white" height="93.4502107698421" width="99.0190566668609" x="0" y="0" /><path d="M28.04259121513826,25 m0.0,0.0 m27.48220553277914,3.5671189375302657 l-0.0015051894301954484,0.3820392519802993 -1.3595917337930803,0.9670793650083216 l-3.0804700237308933,1.3714183065914627 -4.203361467938344,1.3957846144746873 l-4.431436456157812,1.0511576037268346 m-2.3084403477028945,2.6333969521735145 l2.8899161752075995,0.7344894470434271 1.9038282608459889,0.8476495101196798 l1.3391768721008286,0.8727991069847654 0.6027774822886763,1.100724950347422 m5.402327550322392,-4.968342237562238 l2.349129755869268,0.8890295088329628 1.9780736337939853,1.0715030915234407 l1.310691748405921,1.1700728609282376 m10.376653562121847,-5.476854243484599 l-0.058498074754231126,0.6367248630199618 -0.43085802689826375,0.8345625036443016 l-1.6395956281009865,2.1317238550324564 -2.35037939186302,2.249877233403017 l-2.6672127486794777,1.9024752062037809 -2.7510882512851174,1.5444628024867182 l-6.759032468331234,2.850665137963198 -8.27082301543702,2.6732408306706015 m9.056382215875324,-9.242047422737715 l2.04178039922157,3.8151647861292686 1.3161629792190828,3.40634036641887 l1.6694274047041653,4.170209562122725 1.260920651862129,2.154880162636003 l1.600644713198212,1.850105329260955 1.9870299104804356,1.58850165548103 l2.5194387753285388,1.3756246395920837 8.118369960533432,1.0327131881336085 l0.9708579668983067,-0.6621468887580295 0.1129627247683904,-0.98009036694331 l-0.20439283611329298,-1.450550079607932 m-29.575302736135676,-9.793835226488039 l2.0722812516234006,1.063043219877912 1.9386482018046451,1.3609152500273776 l1.480347261299221,1.3692377712465544 0.642545697035895,1.1628143294730275 m-21.344698965774484,10.125825134293768 l0.9156712086241877,1.2665441242045952 1.7335893304376266,7.404161776836836 m-1.519762329418639,-7.763540873985646 l24.861930961591234,-1.6431769599957038 5.958569426758739,-0.1418784605225346 l0.6621506289781615,0.2139383190713362 0.3554208084517885,0.6760246659149522 l-1.2553796230697767,3.327031049083427 -1.7159026073403854,2.8934611714003746 m-18.091028566254856,-5.368763648825727 l0.6711736384881157,0.9211924325701932 0.562629619785762,5.354317272641953 m8.938390184007122,-6.921054491319884 l0.2716012848740325,0.3543118185408762 0.14624937511358035,0.7850641703337282 l-0.6816436519578092,5.450519265652108 m-25.842144229669508,1.405133155753963 l1.8658884389797226,0.23969619069889192 2.2534055642314166,0.010868602859684055 l36.44192871697992,-1.7981229377016335 3.0834946437830077,0.26049544804939545 " fill="none" stroke="black" stroke-width="1" /></svg>