<?xml version="1.0" encoding="utf-8" ?>
<svg baseProfile="full" height="104.77440070658608" version="1.1" width="114.94701440638437" xmlns="http://www.w3.org/2000/svg" xmlns:ev="http://www.w3.org/2001/xml-events" xmlns:xlink="http://www.w3.org/1999/xlink"><defs /><rect fill="white" height="104.77440070658608" width="114.94701440638437" x="0" y="0" /><path d="M25,25 m0.0,0.0 m19.895566884011362,3.703399104008853 l-0.022878869695401996,0.4475473110410862 -0.4449531269767527,0.9280308008602356 l-1.2285947906235646,1.09047933510482 -3.778110978547174,2.4029334401989826 l-5.090938305578071,2.2694393117520337 -5.8349858329772415,1.876451209400788 m-2.708692750281111,7.38855037463871 l1.8129080523016727,0.2539804064914326 1.7978534821367136,-0.11304977725995952 l17.822819119422586,-2.484273623904543 m-8.623242482744962,-7.178968572335257 l0.6650415019419185,1.1388768190152538 0.13377591754473817,1.1137678441228787 l-0.042371373555550595,36.259346784425446 m-0.38303766407268514,-29.88156729063613 l-0.28752489828681854,1.6103150516416205 -0.7602641067220082,2.0812939044359857 l-3.038764613520674,5.918186119479659 -3.6263167531422758,5.110501604700524 l-4.600320868936166,5.24956287818082 m15.492315550346316,-14.647521513120573 l2.7883125836761438,1.882834346412412 3.0708387944217455,3.164886061482693 m15.90685956498999,-27.702856670797402 l0.290500758606253,0.750634030758707 -0.2329922511288037,1.5425523394069447 l-2.5039471873499544,4.990149772932817 -3.5527622581189844,4.7878039365172125 l-4.371913201421354,4.654641428856589 m8.777889119792517,-6.932596738079038 l3.220397102448315,-0.2576806100685237 15.198320997702973,-2.2173174132219624 l3.2364015781249966,0.08729498431049831 m-25.199223320767533,9.277113151676076 l0.8456150602066936,0.9622072904656371 0.27602606401537877,0.9942196624284767 l0.037488790476143896,19.082591675854434 -0.571115307486611,4.295338503666972 l-1.036310412892558,2.675283169572769 -1.656491421691079,2.2720117318540565 l-2.7942426246855994,1.811153553129365 -3.3744107107644825,1.515514254247129 m11.202302628779378,-30.353218548527273 l16.33184692284483,-2.4982661307483625 1.7223318743223188,0.20896101801623898 l0.9852901026485548,0.28622381544667463 0.7690020099532388,1.045614067553571 l0.016177496382480384,29.817272765006443 -0.09225289690136892,2.566298121321885 l-0.9926795314934775,1.528455614868367 -0.8153432702147646,-0.18213993872430118 l-2.972191406364304,-2.336396688189587 m-3.01881737683317,-22.231062525809044 l-0.2793213008606664,1.0977269945663866 -0.7165723042128821,2.5699631064817323 l-2.1519817625395463,4.624508135503844 -2.624915833812094,3.7937460220850108 l-3.546214595225257,3.422807735824919 m17.577290447847147,-7.6867560810932645 l2.417388859076824,1.9580425037875033 2.449111544240287,2.6143153416924667 l2.1156377617495448,3.0089195687966424 1.0664002267982549,2.2598890933197846 " fill="none" stroke="black" stroke-width="1" /></svg>