<?xml version="1.0" encoding="utf-8" ?>
<svg baseProfile="full" height="122.23500262391563" version="1.1" width="100.34198078286786" xmlns="http://www.w3.org/2000/svg" xmlns:ev="http://www.w3.org/2001/xml-events" xmlns:xlink="http://www.w3.org/1999/xlink"><defs /><rect fill="white" height="122.23500262391563" width="100.34198078286786" x="0" y="0" /><path d="M25,25 m0.0,0.0 m25.278674929514768,13.31142527535863 l0.31969172724718886,0.4608315679917972 0.5590381426928579,1.4232241337526754 l-0.05698579275477369,17.22074336389306 -0.7637588824993277,8.861240100273303 l-1.1731164165761037,6.31746407452127 -1.5596698380591656,9.081994842865825 l-1.5761385901727225,6.5543456630418655 -1.8826574367810471,5.014550149866099 l-2.377275312738736,3.989183452351106 m8.799761723020172,-53.601600318131986 l22.38575709280748,-3.780221246704503 1.777349393798176,0.20734284607916462 l0.6113100433691038,2.1542462138401643 -0.6308169256737717,14.93141114032588 l-0.3641483899449673,28.637274421339757 -0.10682400361914149,1.727794579692948 l-1.0517900309365773,1.0308967609356365 -1.2848451666177398,-0.8556776839635613 l-1.9867674289315265,-2.5628331624363754 m-18.875507626211892,-34.7209301149469 l23.28024658613034,-2.1517038761800675 m-23.798102400207636,16.5458900083304 l14.684852322020607,-1.6492075422184542 9.042596025135362,-0.6687720026210828 " fill="none" stroke="black" stroke-width="1" /></svg>