<?xml version="1.0" encoding="utf-8" ?>
<svg baseProfile="full" height="131.42672856569018" version="1.1" width="108.97052591066166" xmlns="http://www.w3.org/2000/svg" xmlns:ev="http://www.w3.org/2001/xml-events" xmlns:xlink="http://www.w3.org/1999/xlink"><defs /><rect fill="white" height="131.42672856569018" width="108.97052591066166" x="0" y="0" /><path d="M25,25 m0.0,0.0 m6.915050988926896,11.791461314393535 l0.35013591454390847,0.35140142040621497 2.5095904933005286,3.5997491719909713 l1.305956143842575,3.608136044606488 m16.194337009844528,-10.786710748443548 l-0.22032847753549703,1.7727199599842283 -1.2359743915369503,2.8217596615936196 l-1.606248329305402,2.606423757484296 -1.758925398859992,2.16973320081292 m-17.8169245810235,6.751022873293174 l1.6429630499548746,0.4668347905281702 0.9873407263570189,-0.020070088129091113 l15.478651454812466,-2.4046516482152844 3.3056616008727655,-0.17263743229775932 m-10.34075378797739,-18.259260176914765 l0.6988403959089631,0.8286701241993163 0.39478941109894444,1.7328865720769886 l-0.27787279308867774,48.93782417001249 -0.44536503814649964,1.4239106803333905 l-0.6529919911504728,0.41868870836152344 -0.77845086625584,-0.26708586343391194 l-2.5350335027199398,-2.6669500490117475 m4.586055533966224,-30.093276690218953 l-2.293271208350083,6.03349697748167 -3.3100373265131755,6.3712620666410436 l-3.4210724782710775,5.047083315519566 -3.5092773075169696,3.7348229188822635 m14.471638495118423,-17.235736980603207 l2.208560304551845,2.8276293117246003 1.1717616463109377,2.2618998892491358 l0.8742311393138632,2.336385820133335 0.6687327834663633,2.696780205135063 m17.633198794615996,-33.48886453584882 l1.3730708333385127,1.2435129216703302 1.6641672393728668,1.9756878658119574 l1.874996021005561,3.563803342648838 0.9351533304097039,2.684667404856443 m-16.235513513500475,3.324281158329161 l2.639036456500728,0.3860945449353598 20.666302296067116,-2.0021888124387686 l3.110229850529226,-0.10254516854439834 1.7481149883827662,0.2915363191835279 m-27.045582926672324,2.8492803252997057 l1.2054844676485665,3.985150640731579 1.155021846241923,4.554885059879994 l1.815311242239912,5.965979651347634 1.9035519602864375,11.43061140508633 l1.1049429149733174,5.609035165277589 1.2790815382430967,5.662549836662857 l1.4852188332263334,8.389072179280877 1.3315706135949148,4.541950969670627 l1.8065722472957926,4.216292571687725 2.1843264335543955,3.5565996925268855 l2.473504829508079,2.8446197453360553 2.5361915676808193,1.2605130047229451 l1.6036058431948585,-0.7435512733493468 0.7504638325851674,-1.0999219741120818 m-24.625004342142514,-36.988664583371836 l2.6055474361431785,2.1620064648914696 2.0493037603695874,2.373940172147349 l1.5887012766194393,2.419120731946494 " fill="none" stroke="black" stroke-width="1" /></svg>