<?xml version="1.0" encoding="utf-8" ?>
<svg baseProfile="full" height="94.94066573558791" version="1.1" width="115.62876236721955" xmlns="http://www.w3.org/2000/svg" xmlns:ev="http://www.w3.org/2001/xml-events" xmlns:xlink="http://www.w3.org/1999/xlink"><defs /><rect fill="white" height="94.94066573558791" width="115.62876236721955" x="0" y="0" /><path d="M25,25 m0.0,0.0 m35.44400756457699,3.1330708715654865 l0.375612992294152,0.41035005445381895 0.5971861968980239,1.503859644390856 l0.0318413801850342,18.761674009051877 m0.8936388201773084,-20.580011879377935 l16.258932689817893,-1.868955973024521 1.2047714667443992,0.05784905570401856 l1.04476498413282,0.49542698253520456 0.5247970522423534,1.1104007276009888 l0.027307692445680074,18.543440684218076 -0.08307259371742738,1.4620518219908003 l-0.31326666606207254,0.6860624348510959 -0.4861481151413503,0.12667050335521446 l-1.2548889913686327,-0.7303610215458837 -1.37224960560902,-1.2122533718131934 m-14.482120789093456,-10.14845064067973 l9.957866689611206,-0.9417721122257795 m-9.720571259753331,6.888485324344297 l9.614325657336963,-0.8435647035670947 m-22.56091594779694,12.026001985239686 l1.465574012553264,0.2651773713256376 2.1143832058130116,-0.06262204621268835 l28.970158107817088,-2.743304504298013 2.5098569880269372,-0.15070966211556427 l2.5023425964459856,0.27304764733093384 m-19.408629273973588,-5.707142393894096 l0.6474541971782384,0.780093350443495 0.30226798608423106,1.3720026717812501 l-0.08664759707816887,22.034148904159675 m-1.6773990403798422,-17.785896535324703 l-0.43805882699045123,1.4562389488691396 -1.3990749644655567,1.7546820518115727 l-2.507136721467065,2.5620606848120664 -2.7738748689716353,2.4238788358172676 l-5.776326789064658,3.9104493338446704 -5.416317569189137,2.5405084245729452 l-3.0128369276342775,0.9049935484133028 m22.84432707716837,-15.490966763884261 l5.814508657931783,4.818163183168071 7.524161636156001,5.176978254827086 l4.633134494000357,3.039134506511261 3.0950767693380326,1.1292001787957393 " fill="none" stroke="black" stroke-width="1" /></svg>