<?xml version="1.0" encoding="utf-8" ?>
<svg baseProfile="full" height="106.25799190375969" version="1.1" width="95.24086178813963" xmlns="http://www.w3.org/2000/svg" xmlns:ev="http://www.w3.org/2001/xml-events" xmlns:xlink="http://www.w3.org/1999/xlink"><defs /><rect fill="white" height="106.25799190375969" width="95.24086178813963" x="0" y="0" /><path d="M25,25 m0.0,0.0 m25.168895281072427,11.463350317636573 l0.3856372109335283,0.3707985282705034 0.6652438802844285,1.5116747355057214 l0.002322506060731328,11.671827919926944 m1.0792658186207653,-6.8704178256870785 l9.990051335465768,-1.4702764900470537 2.3273220176981937,-0.03486966310210431 m-27.45553650208219,0.27495747187535957 l0.6890412133233231,0.6477264926080231 0.32689218424174177,0.9750196168841541 l0.2146415587927678,8.792402662409232 m-8.708891415044336,0.7763153297443622 l1.7035221541073298,0.35215687736534135 2.2498868977527864,-0.006014202468002179 l30.017856762210613,-2.927977866272249 3.035261828424313,-0.09027755004071446 l2.971775406547338,0.31953585214184355 m-18.952180780851492,2.8511558201192546 l0.5726193408769032,0.8452173468418217 0.1659046280573503,0.9760808152613341 l-0.08840134104235739,11.367608199082488 -0.25337259582685534,0.6771257514007953 l-0.3853688208039165,0.3007635108233748 -0.4988986639001829,0.006600538094310138 l-1.2275222122468301,-0.8090817032464409 -1.3096293669050085,-1.336281147290112 m-5.572230038199755,-7.664283821107047 l-0.08079103191216452,0.8736342838481481 -0.3387301547079933,0.6068413831110167 l-1.980861070828425,2.3059797972672134 -3.1070769259943534,2.763617337428133 l-3.653727174163826,2.610065208135206 m29.199543599154893,-11.473704176437826 l2.220721293950262,1.085803099192977 2.4202393992490667,1.563684597874341 l2.0491235602966698,1.7503949789371602 1.3983120055280833,1.6666295971064082 m-8.059884580172874,-0.7293656530237909 l-0.026082574458545595,0.8766605202246738 -0.36792410597234954,1.0675756205639688 l-2.2789287453864326,2.9035604406102333 -3.642600957101355,3.3397042264518837 l-3.6343235343958957,2.7538231614568867 -4.176216051354095,2.721529459994987 l-4.545332823115889,2.535697980231087 -4.849813748347386,2.2494881469624226 l-4.958533884670532,1.8155343770939236 " fill="none" stroke="black" stroke-width="1" /></svg>