<?xml version="1.0" encoding="utf-8" ?>
<svg baseProfile="full" height="101.0554069644719" version="1.1" width="99.78934747529007" xmlns="http://www.w3.org/2000/svg" xmlns:ev="http://www.w3.org/2001/xml-events" xmlns:xlink="http://www.w3.org/1999/xlink"><defs /><rect fill="white" height="101.0554069644719" width="99.78934747529007" x="0" y="0" /><path d="M25,25 m0.0,0.0 m13.197408290660759,13.00459330710565 l0.5109224649060065,0.13276784305623202 3.2482132026514035,0.07895477128018241 l26.135223898384726,-1.9296310629558082 3.952894523009796,-0.11066197963921796 l2.7446850956773705,0.22944849139356016 m-27.24944393532759,-3.7051059172687792 l0.7450127347934316,1.2616464512136139 1.0069989453018553,7.5131633128575785 m14.140221976289014,-9.75080569562774 l0.17548587797279852,1.2328779467478275 -1.727507551578837,7.757491753708173 l-0.928677578243646,2.502727293030965 m-18.82031537946756,4.278475963929509 l2.4556388963105102,0.2472164951861203 17.18012748881006,-1.8878095206515255 l5.528424670731192,-0.3402855370002181 1.9030499099567013,0.2061686322967888 m-25.564519966711938,2.1474926488470403 l0.48816804851921014,0.949695820467851 0.05669255556977311,0.894962581195195 l-0.1327628635297711,18.594366757931112 m0.3399615702552036,-14.764482402449296 l9.343024657267508,-1.0438331239778247 m-9.732546249985282,7.188405432631675 l9.785935341220682,-0.9258011425971602 m-18.601394806974287,10.88356121083289 l0.9440861104968048,0.4178588334416025 1.228835279201641,-0.045738533786379064 l22.76413031461293,-6.759657620185349 m-4.138336452817743,-16.233708020203554 l0.5843173094703531,1.4849288343577307 0.10113938274973394,27.546123139303454 " fill="none" stroke="black" stroke-width="1" /></svg>