<?xml version="1.0" encoding="utf-8" ?>
<svg baseProfile="full" height="107.56358093198239" version="1.1" width="116.10638121947453" xmlns="http://www.w3.org/2000/svg" xmlns:ev="http://www.w3.org/2001/xml-events" xmlns:xlink="http://www.w3.org/1999/xlink"><defs /><rect fill="white" height="107.56358093198239" width="116.10638121947453" x="0" y="0" /><path d="M25,25 m0.0,0.0 m2.221530952163214,20.94680248580082 l0.6364016694796948,0.09047170942098376 3.6148727945282726,0.00934154180826726 l14.23153359913035,-2.0935553483996574 2.2997169905760675,-0.08755439496706584 m-9.383715888603785,-12.86236286503478 l0.7975617211179401,1.2991083174459044 0.22874423353385095,1.9301721560888243 l-0.02420920564838538,46.01893678387093 -0.3441968567122154,1.5376991059560436 l-0.5635018372704528,0.7203268609596815 -0.6894468485263172,0.054194579032443416 l-1.559628600855722,-1.1379997837357398 -1.8669679425158674,-2.1329421031860107 m-7.543230228686755,-12.64881292340272 l1.1219992215671442,0.3653752741839057 1.90423366326285,-0.5223629041418189 l14.963254987304854,-9.097901221445506 m21.29506702603979,-24.31530143863049 l0.19771203540648502,1.8401522907362693 -0.13357316455003743,3.8888855508800213 l-1.0471856728989801,5.4088039887097565 -1.7803386922734181,5.814579905220096 l-2.8089026075004666,6.116960762467212 -2.726656247137078,4.598135486964205 l-3.267376511974921,4.432057256210504 -4.084281386276322,4.431904911857274 m2.9234158875165943,-24.030433519738217 l1.8394621195966068,0.2568360739962239 2.432968650311599,-0.08992089543780217 l20.93830487684633,-3.3742544062575863 0.9414359645746208,-0.07003354248544473 l0.6469071188810697,0.3487713865749418 0.32149986781180007,1.2772748495274195 l-3.057760009340792,8.539664257449012 -0.7238132081095331,3.6777243565499766 l0.3351029039309359,3.430186542123418 1.2257841465839425,1.4376592145753544 l1.4745512270659038,0.5562156053180645 2.912715225302671,0.2995609097432396 l4.027162808498814,-0.17359406397031032 2.099979539831881,-0.4807200046468024 l1.1696272393663572,-0.7318841689640451 0.6639503918204731,-1.110863434923257 l0.24566926630545344,-1.9486089755203464 " fill="none" stroke="black" stroke-width="1" /></svg>