<?xml version="1.0" encoding="utf-8" ?>
<svg baseProfile="full" height="121.73945924842022" version="1.1" width="103.4987533853116" xmlns="http://www.w3.org/2000/svg" xmlns:ev="http://www.w3.org/2001/xml-events" xmlns:xlink="http://www.w3.org/1999/xlink"><defs /><rect fill="white" height="121.73945924842022" width="103.4987533853116" x="0" y="0" /><path d="M25,25 m0.0,0.0 m25.093557937923666,12.239454892802568 l0.37803320522563594,0.4013422507599321 0.7068591109009832,1.1438802005649167 l0.137486465758962,1.439336874525285 -0.16394736491539916,28.098797690509933 l-0.6216503329872082,1.970735009532974 -1.2724671364542934,0.15434634638927222 l-1.7634849453119128,-1.0923530523257414 -1.9508389945194522,-1.7793267993606476 m-8.4164893774733,-16.96889621792194 l-0.053863198447536946,1.0360479498990816 -0.5916335418690796,1.34618905005545 l-2.9611556695070433,4.4622172718719995 -3.3922010920719408,3.8397589627831987 l-3.946670593621803,3.276986091711909 m41.162186807966584,-14.340040320310427 l3.32972161272171,2.4408348227181045 3.6179638937971252,3.468510745232658 l2.68457652973134,3.3610677775393043 1.5227700684645697,3.038370466973249 m-12.401651623290904,-2.5556320709915616 l-0.016280048663858387,1.6273196709240656 -0.4834708067796055,1.7573220559646077 l-3.050432729893086,5.603362089937165 -4.243582546188706,6.052067578619404 l-5.118303692745354,5.926441368743318 -4.926795030009427,4.749340239885225 l-5.508575931465658,4.436112391749769 -5.9747636609092165,3.9223711730948416 l-5.187902360168373,2.6834947365422845 " fill="none" stroke="black" stroke-width="1" /></svg>