<?xml version="1.0" encoding="utf-8" ?>
<svg baseProfile="full" height="104.01062096714418" version="1.1" width="98.13561714081055" xmlns="http://www.w3.org/2000/svg" xmlns:ev="http://www.w3.org/2001/xml-events" xmlns:xlink="http://www.w3.org/1999/xlink"><defs /><rect fill="white" height="104.01062096714418" width="98.13561714081055" x="0" y="0" /><path d="M25,25 m0.0,0.0 m13.503227810324153,4.520359017548163 l0.4658032800882132,0.16899059210929032 2.9071813417648027,0.02697174372298541 l22.31120140053691,-2.480553174877345 3.9606468432099673,-0.14439901400920363 l2.1625218234706716,0.2776550793528243 m-34.144983428534154,10.135691724958253 l1.540817127544795,0.8711024364337734 1.7880626846075753,0.2473715822087358 l28.165479463299928,-3.496336517558084 0.9820630624739926,0.31253910685300623 l0.4348954141673019,1.1224368473099429 -1.3992397244868018,5.852478854773431 m-29.91889692863463,3.243736023453181 l25.765173026668172,-2.883959202950628 5.736777046095359,-0.5075851631677367 m-32.251094738358645,2.3304355936168117 l0.35835016131123754,1.0549782067640894 -0.02884974930224207,1.2705836350033124 l-3.0000820442695235,5.621009819043217 0.020834364464485968,0.9065943447685607 l0.46637927195356504,0.411031252680223 36.14242827536555,-4.361429501920782 l1.6272219059408315,0.14782797402055348 0.5396994511090617,0.7159721068596631 l-0.32792041526999344,0.6036798708725954 -1.0426510068714865,2.0488224217325315 l-1.975197734999912,2.3308040205751044 -2.7832202948306706,2.608770646290151 l-1.4769024020216095,0.22702107285480583 -2.1666224212308522,-0.5727511051092944 l-1.3558854988473636,-1.305978823191655 m-14.74495550592342,-28.224918433866602 l0.5368574466590352,1.046747861951167 0.3204419254621,1.5937254100653102 l0.05048821192347465,15.447311866398637 -0.6064509507731587,6.304943435338366 l-0.7361749146727046,3.842680347237092 -1.1276698944009405,3.483466146209456 l-1.4483278802215176,4.655477129029585 -2.57307037609081,4.7707648557998015 l-3.4111430664873534,3.591040062532478 -5.102469229356986,3.2724513239516755 l-6.965134918339986,2.923059491476725 m23.00515493405917,-20.72400546810852 l6.232718345193887,6.810544968462819 8.568164521184203,8.269460841690211 l4.2568604487067185,3.675302603010755 3.2742823651761612,1.9109197041302886 " fill="none" stroke="black" stroke-width="1" /></svg>