<?xml version="1.0" encoding="utf-8" ?>
<svg baseProfile="full" height="107.04187958718691" version="1.1" width="102.54379319545497" xmlns="http://www.w3.org/2000/svg" xmlns:ev="http://www.w3.org/2001/xml-events" xmlns:xlink="http://www.w3.org/1999/xlink"><defs /><rect fill="white" height="107.04187958718691" width="102.54379319545497" x="0" y="0" /><path d="M25,25 m0.0,0.0 m6.519975217138692,21.931158658255832 l0.3123301363305677,0.09388619799629672 2.129572988973345,0.03063146241782733 l14.55320863188569,-1.9261474739544966 1.649004555341156,0.021374605799677 m-9.12499357090859,-12.784632784758672 l0.9993158875897508,0.9670398969155963 0.5732814096739204,1.8601435751913793 l-0.19391246908366613,43.17271349158589 -0.1814195335356248,2.2288589620848067 l-0.43796773449039217,1.129551676618639 -0.632470974190061,0.31730131903413633 l-0.7256883132301597,-0.2869885775220941 -1.8520125543847417,-1.9775111150499454 m3.6929189818719514,-31.536650298522904 l-2.5784800389350986,6.159466606661093 -2.2893681183323125,4.601472057065342 l-2.6127883094940727,4.426160034994632 -4.035869444579534,5.762185848245058 m13.466488050083004,-16.204701915159916 l2.5590020189663187,2.7708527103845273 2.881075339022384,4.03305627453039 m12.5031484824739,-24.819078929013713 l0.5904618786493601,0.9374460877869503 0.17417659274370625,0.9840465718660629 l0.09206394351478533,24.53525591445106 m0.5467345413901902,-14.068456897687744 l11.033654156873222,-1.411096849595095 2.6991508346285222,0.1066416679567768 m-24.460420716146064,14.726720240422521 l0.5848042768124397,0.8355022379378951 0.656815439623877,2.962782060708914 l1.582752474749472,11.726132611366467 m-1.7687673666259864,-14.756821127987894 l19.477662989663365,-1.805099391757492 2.1654611051062767,-0.1751787703826423 l1.0269159904816434,0.2221246968323987 0.7925442207825003,0.8234375792414385 l0.17543219502123253,1.1658074865310912 -2.7411018193817642,11.621371967774866 m-18.678172183838328,1.2905740474526979 l20.084943510561278,-1.0568922589832077 " fill="none" stroke="black" stroke-width="1" /></svg>