<?xml version="1.0" encoding="utf-8" ?>
<svg baseProfile="full" height="109.37858060766757" version="1.1" width="109.49251525104046" xmlns="http://www.w3.org/2000/svg" xmlns:ev="http://www.w3.org/2001/xml-events" xmlns:xlink="http://www.w3.org/1999/xlink"><defs /><rect fill="white" height="109.37858060766757" width="109.49251525104046" x="0" y="0" /><path d="M25,25 m0.0,0.0 m3.325336277484894,10.182565450668335 l0.41190966963768005,0.34099042415618896 3.094934821128845,3.797324001789093 l1.6336077451705933,3.4755513072013855 m15.16208529472351,-11.200132369995117 l-0.052083954215049744,1.2955936789512634 -0.9071536362171173,2.2309789061546326 l-3.1854119896888733,5.403465628623962 m-19.483224153518677,7.64634907245636 l3.8289567828178406,0.15795787796378136 15.927740335464478,-1.8926669657230377 l2.542547285556793,1.0629378266457934e-05 m-8.94704520702362,-19.37437891960144 l0.9063032269477844,1.469065099954605 0.20132042467594147,1.1013735830783844 l-0.1184298750013113,53.90897274017334 m-1.163279041647911,-35.59226036071777 l-0.24205219000577927,2.0296159386634827 -0.6287489831447601,1.899002194404602 l-4.126069247722626,9.048746228218079 -3.826915919780731,6.201434135437012 l-4.077259004116058,4.86094206571579 m16.457338333129883,-19.962140321731567 l3.539837896823883,3.254120349884033 2.8340473771095276,3.9905238151550293 m5.578297972679138,-26.55813694000244 l3.817732334136963,-0.08358942344784737 15.926039218902588,-2.1454335749149323 l3.601403534412384,-0.020907986909151077 m-12.941650152206421,-5.216388702392578 l0.692015066742897,1.0190597176551819 0.4017479717731476,1.892879456281662 l-0.07662718184292316,17.526737451553345 m-10.64502477645874,-6.198712587356567 l2.5075125694274902,0.22447120398283005 10.268828868865967,-1.4589883387088776 l9.006568789482117,-0.7158992439508438 m-25.447919368743896,10.008281469345093 l3.964332640171051,0.10971112176775932 12.820219993591309,-1.5944066643714905 l11.492654085159302,-1.0068146884441376 2.8901702165603638,-0.06412704009562731 l2.527921199798584,0.3125462308526039 m-29.36633586883545,7.390563488006592 l0.6590214371681213,1.1588572710752487 0.20459426566958427,1.3836899399757385 l-0.05571654066443443,29.142184257507324 m0.7455870509147644,-30.607166290283203 l15.682158470153809,-1.9922855496406555 1.8979816138744354,0.10678272694349289 l1.1241630464792252,0.8080027997493744 0.37024248391389847,1.4258672297000885 l-0.24841919541358948,28.02788496017456 -0.47075390815734863,1.216340959072113 l-0.6690555810928345,0.35578653216362 -1.6122639179229736,-0.9435486048460007 l-1.4438946545124054,-1.6061414778232574 m-14.454593658447266,-19.711798429489136 l18.069941997528076,-1.5465320646762848 m-18.166202306747437,9.997397065162659 l18.223345279693604,-1.33753702044487 " fill="none" stroke="black" stroke-width="1" /></svg>