<?xml version="1.0" encoding="utf-8" ?>
<svg baseProfile="full" height="108.20802838481526" version="1.1" width="86.3298077423868" xmlns="http://www.w3.org/2000/svg" xmlns:ev="http://www.w3.org/2001/xml-events" xmlns:xlink="http://www.w3.org/1999/xlink"><defs /><rect fill="white" height="108.20802838481526" width="86.3298077423868" x="0" y="0" /><path d="M25,25 m0.0,0.0 m6.702058980171562,10.497467880235506 l0.36163819408383246,0.16771811287655738 1.4903876878391416,0.0978345521485064 l12.833468886492634,-1.8292226733233554 1.704879071479813,0.15028957610859195 l0.4610035146291331,0.3557288367212699 0.18429085970322032,1.0362391348683502 l-0.4689119223464931,2.5035856493019257 -1.0212343687222418,4.488679620710887 l-1.0296000249277344,3.5465749752513864 -1.221859178371275,2.700303094321086 l-1.4701641152958427,1.6598092428942406 -1.0623828154026038,0.028278964676840376 l-1.1667865643610336,-1.2390359527761081 m-1.8221732331596803,-21.29661712694478 l0.18768766574179357,1.6719272100590057 -0.5141628950069672,3.1345698270103526 l-0.9596945056039092,3.852086273929235 -1.325077068850022,3.8114344048712105 l-1.390359238792062,3.053404362202888 -1.751434759886699,2.9932762046999515 l-2.0878253233689983,2.7254636568505375 -1.809946962173643,1.8442013836502602 m2.356329390795974,-16.045324291919435 l0.42901121488883176,1.3605341933060648 0.06999647322585925,3.957693530650878 l0.6786690024844231,17.602056797070347 m-0.5516149448663257,-19.93243801827451 l-1.3796437508653525,4.867434830127852 -1.8887509250197236,4.791662208553122 l-1.939245140563497,3.99340088532432 -1.90567830512265,3.041845918017302 m19.800308392017264,-20.421178770666728 l1.032213408371388,1.0012641922073522 1.1645900365691915,1.2123990286660857 l0.8979269351024035,13.161637574101555 m-0.6139046481053462,-14.715496275160994 l10.356469145814534,-1.7310642945184733 1.753339897750238,-0.030097703201108945 l0.8130980731035549,0.36356067355398297 0.43289160293412343,1.082722785205347 l-0.04140515601400826,1.9842056357664428 -1.6615763130273138,10.578634216612299 m-9.809696000618512,1.4651179527196958 l10.894330835436214,-1.145280228775563 m-30.045881966721357,11.734247208360285 l0.4875103730202438,1.4682082805435963 0.08757893746677274,22.608284846201204 m0.6413652725824895,-23.735628414625687 l25.19398538005314,-2.5773822408111293 1.3758430170801066,0.05730427009717688 l0.8468076375299005,0.5056009528344974 0.4903896349116091,1.1562355092166015 l0.07809859479080661,20.091648299322237 -0.2314401640397775,2.5799513513145214 l-0.35685477503950863,0.8460681125849678 -0.4696955069244749,0.1665365666787262 l-0.5520305440768134,-0.29643281405288563 -1.5093579964053305,-2.066596757591783 m-11.952437994698203,-32.9629174924136 l0.0722213459085208,1.035423904855326 -0.28309586924217434,1.198168680976152 l-4.725933336748257,5.799454423244967 -3.8257949613886577,2.7551935715079825 l-3.505446225801974,1.6926965331762434 m16.985105718702123,-7.228414398784421 l2.215762720466654,1.631428589434058 2.338664712591995,2.3511766666388896 l1.7680793163895083,2.317981133857664 0.9471372958495791,1.6778458103943032 m-10.298976195023563,-0.9086229396648515 l-1.73643205574943,1.5204067921989364 -2.9171998652576248,2.619592753902166 l-2.9944481351738506,2.3874248933412576 -3.2361849796616595,2.165255162726103 m16.79562852763487,-5.935487198751376 l3.1747712917148183,2.834390189007695 1.717966563427491,2.2501391470183285 l0.6870014627436066,1.5536581994398018 " fill="none" stroke="black" stroke-width="1" /></svg>