<?xml version="1.0" encoding="utf-8" ?>
<svg baseProfile="full" height="91.96696824642002" version="1.1" width="133.81223313875512" xmlns="http://www.w3.org/2000/svg" xmlns:ev="http://www.w3.org/2001/xml-events" xmlns:xlink="http://www.w3.org/1999/xlink"><defs /><rect fill="white" height="91.96696824642002" width="133.81223313875512" x="0" y="0" /><path d="M25,27.966854745172686 m0.0,0.0 m19.229984779809914,0.6507155089797453 l0.04802689984677007,0.4386503603311596 -0.16302627812810266,1.1184487440371 l-0.8727634218067705,1.9834098831163833 -2.921052679197372,4.456607453590659 l-3.860241227519173,4.387019918790379 -4.347183879565317,3.3901282997917117 m14.11313830998532,-12.725003945299491 l2.748543367891583,1.0426841022994442 3.0081739322490324,1.4861896844641678 l2.3286003190258784,1.6532184946096953 1.2921348740651175,1.4081935699137478 m-17.583561613906603,5.699738838519071 l2.846857213513746,-0.0910726069429494 9.917886806286873,-1.4415566935432085 l2.2844790912994477,-0.051484009719397844 m-18.722191450008523,9.453879304934416 l1.8751090030414423,0.1733241956076765 1.9489122403949333,-0.120680628510566 l14.881167557949016,-2.1964714984615195 3.1699157861614737,0.0025155713626608773 m-10.470101997285916,-4.604481189657197 l0.5884803714938395,0.8544692243096883 0.1875478947914029,1.2681654318557458 l-0.00465987549232339,16.507369896292285 m-10.252375067281056,-6.834621910297168 l2.3621687817553108,2.4247394495054313 1.5241903130733332,2.604666070971257 m14.550982266632206,-8.844782407687685 l-0.15488565271727744,1.2534904999128933 -3.8015368952004227,4.865772605759122 m-16.715665020229835,8.259147797103358 l1.1507258636168889,0.5277234853087361 1.2514180394113872,-0.1536424512109686 l18.070145775174723,-6.8360983692277415 m5.386941880570012,-32.75568794249882 l0.678049297094099,0.2211959666524696 0.5237099978130493,-0.010060818649803991 l2.248713702888122,-0.3380014260847793 6.1992265789211665,-1.952942324482622 l0.8272356065108979,-0.14173088091777006 0.6298331674284702,0.2334743221246178 l0.35324889090479605,0.46463059009751545 0.1212055769820277,0.7451182532850431 l-1.5669672064433917,5.925338844351425 -2.8221922375126076,6.729832027700637 l-3.6868853728480415,5.7142793631052475 -4.858953014316361,4.87690442334878 l-2.549644629229553,1.6725260113784948 m4.156459719453367,-17.972694262417317 l2.7629077640431996,2.096932239376529 1.8712742111079885,2.495602709849195 m10.096555596765757,-12.044289184641762 l16.914220909894524,4.358209784387261 13.2741107069728,1.619042828144433 l3.7438375626238565,0.5756825668532476 m-16.364796701644522,4.318099047035615 l0.006438535177814061,0.7529246901696562 -0.6836907895445429,0.7870526030882469 l-4.073659694433507,2.718111307593426 -4.475212889826759,2.1364167544375054 l-4.833449787403527,1.6952521318381448 m-2.3034800312191663,6.505327895982815 l3.5075985471347164,0.6425636905897941 15.264561080203363,-1.2904916098603116 l3.4236030211293076,0.14740574297222692 m-16.816779155422623,-6.737546875300491 l0.5365125848747152,0.7000718318446131 0.20946788787325427,0.9778379901199419 l-0.03854784273027536,15.94235734787467 m-12.246116659101851,1.3468893186120017 l2.4743256337150545,0.2972611336819454 19.909414518309205,-1.3541989111006518 l3.339839988959575,-0.08076895241652046 2.5814388532920804,0.25132480030599835 " fill="none" stroke="black" stroke-width="1" /></svg>