<?xml version="1.0" encoding="utf-8" ?>
<svg baseProfile="full" height="109.49251251295209" version="1.1" width="104.9294110923006" xmlns="http://www.w3.org/2000/svg" xmlns:ev="http://www.w3.org/2001/xml-events" xmlns:xlink="http://www.w3.org/1999/xlink"><defs /><rect fill="white" height="109.49251251295209" width="104.9294110923006" x="0" y="0" /><path d="M25,25 m0.0,0.0 m12.68757700920105,0.33099744468927383 l0.02719758776947856,0.564551092684269 -0.9354199469089508,2.5564122200012207 l-2.879725396633148,3.9338332414627075 -3.1893596053123474,3.144298493862152 l-3.8932782411575317,2.8198587894439697 m8.718677759170532,-6.0716599225997925 l14.021080732345581,-2.168685793876648 m-9.213061332702637,3.182600438594818 l1.4133088290691376,1.0505671799182892 1.9717445969581604,2.020346224308014 l1.8752655386924744,2.9740318655967712 m13.822166919708252,-14.337151050567627 l-0.05278585013002157,1.1075372248888016 -0.38124900311231613,0.8185025304555893 l-2.102743536233902,3.232811391353607 -3.1420454382896423,3.536008298397064 l-3.3657416701316833,3.0049309134483337 m7.070728540420532,-6.143757700920105 l17.481772899627686,-2.109583169221878 m-4.627130627632141,1.9904126226902008 l-0.37235748022794724,1.10447958111763 -1.847182810306549,1.7924657464027405 l-2.3634541034698486,1.5948407351970673 -2.9836881160736084,1.4403456449508667 m-26.30537748336792,1.1535639315843582 l1.7313113808631897,1.5586309134960175 0.9580309689044952,2.040945589542389 m-10.237879753112793,3.7387830018997192 l19.40523624420166,-1.1469405144453049 m-16.922370195388794,2.9663071036338806 l2.212177664041519,3.182600438594818 1.0642464458942413,3.1784161925315857 m10.845561027526855,-7.611462473869324 l1.5087418887560489e-05,1.7606012523174286 -3.3551201224327087,5.827043056488037 m-16.654579639434814,1.5951626002788544 l1.014518216252327,0.29048310592770576 1.720689982175827,-0.039428453892469406 l19.96077537536621,-1.8602988123893738 2.678881883621216,-0.09420584887266159 l0.9771819412708282,0.2729414589703083 m-20.37276268005371,5.932614207267761 l0.40813982486724854,1.382409930229187 0.0532711623236537,23.995351791381836 m0.9887690842151642,-24.101245403289795 l11.81872010231018,-1.5689104795455933 0.8915659040212631,0.10605449788272381 l0.8606668561697006,0.9861941635608673 -0.043439194560050964,21.902906894683838 l-0.31043872237205505,1.167725995182991 -0.4773256927728653,0.44771410524845123 l-1.3247960805892944,-0.6088075041770935 -1.599668711423874,-1.5224210917949677 m-10.639567375183105,-15.171425342559814 l9.40618097782135,-0.4350407049059868 m-8.904072046279907,7.364269495010376 l8.206589818000793,-0.7580723613500595 m19.52818989753723,-30.940232276916504 l12.03099012374878,-1.3907784223556519 1.5816442668437958,0.11865752749145031 m-16.14989399909973,-2.8864845633506775 l0.8413549512624741,1.0241741687059402 0.2331509068608284,1.1577481776475906 l-0.11472472921013832,7.7305519580841064 0.47346334904432297,0.29096590355038643 l1.1046404391527176,0.008303109207190573 11.778968572616577,-1.4830328524112701 l1.7950406670570374,0.14085614122450352 0.1501499954611063,0.39396267384290695 l-1.8062254786491394,6.3925594091415405 m-13.471978902816772,1.8127433955669403 l14.175575971603394,-1.1799567937850952 m-15.449515581130981,-0.8967157453298569 l0.7309553027153015,1.602887362241745 0.19199242815375328,1.3302677869796753 l-0.31948111951351166,21.136226654052734 0.5199727788567543,2.6959407329559326 l1.0637635737657547,1.8397799134254456 2.105318456888199,1.3996295630931854 l2.6891815662384033,0.5450782552361488 6.938120722770691,0.026920984964817762 l4.485509693622589,-0.4201142117381096 2.0663727819919586,-0.6995734572410583 l1.2069935351610184,-1.0454173386096954 0.5755749717354774,-1.4065498113632202 l0.17887644469738007,-2.4625885486602783 m-20.66115379333496,-16.77817463874817 l13.632267713546753,-1.0877224802970886 1.7071716487407684,0.11202910915017128 m-15.233224630355835,7.9307520389556885 l13.479059934616089,-1.166800633072853 1.5755288302898407,0.1384622696787119 m-15.336220264434814,8.162494897842407 l15.90012788772583,-0.5668947100639343 " fill="none" stroke="black" stroke-width="1" /></svg>