<?xml version="1.0" encoding="utf-8" ?>
<svg baseProfile="full" height="98.12341327209256" version="1.1" width="107.37367069019689" xmlns="http://www.w3.org/2000/svg" xmlns:ev="http://www.w3.org/2001/xml-events" xmlns:xlink="http://www.w3.org/1999/xlink"><defs /><rect fill="white" height="98.12341327209256" width="107.37367069019689" x="0" y="0" /><path d="M25,25 m0.0,0.0 m12.919860042640376,10.478573485578854 l0.41148364386591363,0.151640277581385 2.438517438625966,0.15943613968007608 l24.90213424032313,-2.3079526595851068 4.217227283135017,-0.14118772780739233 l2.0569233799747066,0.24965970372329357 m-26.27994432362094,3.3165656287745016 l0.7084153332964088,0.808284842139041 0.2880262940610964,1.3828132785383287 l-0.10154583095615421,34.025580303469575 m0.9549909833944012,-35.205970647964705 l18.66566232932604,-1.9648731299415603 0.795326354257951,0.0569371474622328 l0.9236336283161406,0.7225551959483889 0.2760217653314398,1.1552944090936719 l-0.29590868019436145,32.49181993675549 -0.27082995102005764,1.0136503328858861 l-0.4486059091043149,0.4508980646356027 -0.5645085282316181,0.01594427271563308 l-0.622817028404097,-0.32086491157134783 -1.5153028800746509,-1.7095828600655087 m-7.307103708308277,-38.111160969739416 l0.5896755827028037,0.6363406315810572 0.32629110096350544,1.1777667854879037 l0.003798716991664493,19.26588265805228 m-9.972469650034352,-6.964313176748467 l20.380211658106113,-1.5873366365590507 m-29.768817673672796,11.01001974114216 l1.8517031888500946,0.2967590628086083 2.261296522321431,-0.04421404753299371 l33.91856407967444,-3.0641940934076697 3.454257109239365,-0.0665076733558689 l2.1775041784204974,0.4147911869112103 " fill="none" stroke="black" stroke-width="1" /></svg>