<?xml version="1.0" encoding="utf-8" ?>
<svg baseProfile="full" height="100.01381322012134" version="1.1" width="98.0723834719482" xmlns="http://www.w3.org/2000/svg" xmlns:ev="http://www.w3.org/2001/xml-events" xmlns:xlink="http://www.w3.org/1999/xlink"><defs /><rect fill="white" height="100.01381322012134" width="98.0723834719482" x="0" y="0" /><path d="M25,25 m0.0,0.0 m11.481269310201242,4.818394359355846 l0.5130409948258033,0.21133622850473863 3.0846702430192585,2.2851828131298757 l1.352373270984076,1.371841699714077 0.7136386852672357,1.1052818943275557 m-9.354867124981023,8.652335184014536 l3.785209169559634,2.144834859147222 1.9943514665718338,1.827320076738863 l0.7557317627836981,1.0873690282111985 m-6.696091794177108,26.438600419673445 l1.1327790752561422,0.07131665730396425 1.221511398587623,-0.9529683319003375 l2.607493763393041,-4.323906500593981 2.747302876937964,-5.234700736630756 m9.328198686273742,-34.431669763526244 l0.6429820753882645,0.30404673846773794 1.5854748798123537,0.03161798460525787 l17.213616146047734,-1.298658380972193 1.4935129330464494,0.4123321263272102 l0.5456491258685914,1.1033000107079796 -0.002141060034513311,0.8213657541319593 m-21.005770729533836,16.69294157859177 l1.129089627727935,0.439808932022968 1.1248685157473903,-0.0337213829697634 l15.658560938441585,-2.0648964816584767 1.959109337610653,-0.1714457731856806 m-21.713811831321824,-12.676321813387123 l0.6561576567899303,0.5955387631812052 0.30998387091856106,1.3764827227760452 l-0.06630584926419056,9.879663006115743 -0.5262401729869204,7.0810819862544205 l-0.8489241848102913,5.203016877414672 -1.222712164326513,4.637198517913982 l-1.7099875707005368,4.148531168748374 -2.348121068645344,3.8477834986485795 l-2.4281045736904883,2.9330163306577943 m10.760268348356803,-32.41689040254293 l2.3245636836423,2.97189421338097 9.812064684049272,3.6865076275093833 l5.926603863601088,5.816954644971477 4.135385205710582,3.878277791079061 " fill="none" stroke="black" stroke-width="1" /></svg>