<?xml version="1.0" encoding="utf-8" ?>
<svg baseProfile="full" height="106.38083094970773" version="1.1" width="103.3848841587627" xmlns="http://www.w3.org/2000/svg" xmlns:ev="http://www.w3.org/2001/xml-events" xmlns:xlink="http://www.w3.org/1999/xlink"><defs /><rect fill="white" height="106.38083094970773" width="103.3848841587627" x="0" y="0" /><path d="M25,25 m0.0,0.0 m14.69429565676666,5.1520502136486765 l0.430426016865713,0.18316678109541518 2.508240715097597,0.13464436551166686 l22.449760953980377,-2.482611940515363 4.974070011199007,-0.13633967634740424 l2.2214880662677707,0.3075118434571231 m-33.62902627912486,9.226417761585912 l0.6857889072905435,0.8589473988420304 0.40316188228952093,1.3557578508690729 l1.7641684792108383,7.330816853860342 m-1.2518108474446001,-8.622914679031256 l22.038561693760805,-2.306852220356499 9.870961583418651,-0.7164880869299592 l1.1405954881486597,0.16565827735899905 0.879441708258216,0.6070886749309866 l0.2689690914918677,1.146213541342983 -0.39862001521848855,7.679717686538849 m-23.72624505701677,-12.662707617157578 l0.5328952166448894,1.078423392365386 1.0239009337927485,9.753547671661217 m10.075635255082181,-12.404721758322179 l0.26409250396858974,1.267031863415597 -0.03420186181561516,10.446716043217672 m-10.526062236908938,2.467580433228941 l11.675559369062594,-1.0948885755665199 4.139297378460379,-0.19327343740384184 m-20.68058868879028,7.165030846255576 l0.6168194600008696,0.7556438558337306 0.31796612477808006,1.0124585352968745 l0.07268739328175798,10.836875529786093 m0.4253080492918927,-12.129922712361475 l16.92081638280968,-1.9389324108599109 2.5303279364607434,-0.2028647428445172 l1.1175491145888998,0.15620273234098384 0.6421954234760381,1.5576568690559547 l-1.5267850318564384,11.293132209166034 m-19.617787701314555,-5.328596861587119 l20.104805306374168,-1.815690240652762 m-19.731931477649987,7.437033532161297 l18.942173192432797,-1.330518013046576 m-27.566243698906476,8.881858493517692 l1.7727048373892207,0.27652230457467025 2.196984429926836,-0.0213277436633633 l26.10704251832032,-2.1473510781440144 5.343067076850638,-0.14834359046665263 l2.922428897770158,0.2719584583698819 m-19.942305741988893,-5.308162180327713 l0.49213149349784285,2.174543607919097 -0.059303905213663445,16.39313088808369 " fill="none" stroke="black" stroke-width="1" /></svg>