<?xml version="1.0" encoding="utf-8" ?>
<svg baseProfile="full" height="107.1772014952172" version="1.1" width="107.74943315052926" xmlns="http://www.w3.org/2000/svg" xmlns:ev="http://www.w3.org/2001/xml-events" xmlns:xlink="http://www.w3.org/1999/xlink"><defs /><rect fill="white" height="107.1772014952172" width="107.74943315052926" x="0" y="0" /><path d="M25,25 m0.0,0.0 m6.443332891313922,20.830935317592083 l0.6074960916646116,0.0951359432224425 3.082802859517535,0.005799130343656232 l12.23876965572099,-1.8546200310482115 1.8886659655635345,-0.0764254721831997 m-8.070996140805153,-12.02410731335009 l0.8036713005707544,1.1890483502406628 0.2067172529457071,1.7870362326881888 l-0.16314262172201507,44.06225960961664 -0.4271202394003646,1.3897339760226728 l-0.6053846503483837,0.611979943551202 -0.713936826047967,-0.022387059539113983 l-1.509337635417779,-1.1772416869153342 -1.734733084347179,-2.0521401021174737 m-6.233429479819491,-14.04313976296105 l1.1644638049676954,0.35535333734015717 1.4615714014098857,-0.4391567210940107 l13.868540214467586,-9.16360885358058 m6.433435648008033,-19.66831727935327 l2.340270768349395,0.20089180267045928 1.8496726886697223,-0.13250134861284008 l15.3802824044066,-2.551208218957136 2.95871736360399,-0.11654639576332346 l1.0944945267167288,0.6842732358627247 0.28209681220650334,1.2676665760486794 l-1.659550788801774,8.313390582637727 m-19.166820535104616,2.9696041933927932 l20.611394424495863,-2.279575544212857 m-21.73460258875438,-8.223634569391907 l0.6511212097882344,0.7821039126411953 0.309247409817111,1.0886700340425353 l0.020740225704724734,5.961488631556687 -0.5982031859348187,9.134041490977873 l-1.1229964849168212,7.387395984081222 -1.4282289733696019,5.832742100493388 l-1.5081648022193164,4.2718192456324084 -2.406711669949427,4.96103594450292 l-2.426619179652966,3.6737577379802877 m9.684043235280084,-19.441923184556988 l3.6143056185778244,-0.0165251361667404 17.388743425867233,-2.290991226634425 l3.2119398276254905,-0.22381596207799034 1.6628750098815555,0.1600541570796202 m-15.371987416078335,-8.0911981713651 l0.5811764650575887,1.0450601585055965 0.19416332892211,1.1955105629067138 l0.08860223978572189,16.795751621457267 m-9.789402875586553,1.0246985434840106 l0.7802020881213159,1.3576817506559795 0.3187703891748884,1.345714592213379 l1.886493327064826,11.285630835657688 m-1.8657459650486914,-13.052223962910858 l16.235413759358195,-2.2776621274893594 1.4444990236688833,-0.06794632344292349 l1.5099014678809035,0.4366804065109603 0.39885203469000635,1.0132151906848015 l-0.10875413612696491,0.9631971114755025 -1.8482242033229634,9.157431575548642 m-15.070298237685037,1.9177754630741088 l14.165729554274142,-1.5139464679039776 2.349664752691801,-0.01431621107213757 " fill="none" stroke="black" stroke-width="1" /></svg>