<?xml version="1.0" encoding="utf-8" ?>
<svg baseProfile="full" height="100.38290522876821" version="1.1" width="106.0924706539339" xmlns="http://www.w3.org/2000/svg" xmlns:ev="http://www.w3.org/2001/xml-events" xmlns:xlink="http://www.w3.org/1999/xlink"><defs /><rect fill="white" height="100.38290522876821" width="106.0924706539339" x="0" y="0" /><path d="M25,25 m0.0,0.0 m6.609799553503299,9.01612397292066 l0.512458165153644,0.147765427367448 2.5343222028643586,0.04876717788428694 l10.922111978702013,-1.981478321648786 1.3290041479429873,0.2472320997380712 l0.4543328299659273,1.0818538697213926 -0.49198170065897306,0.755325407644823 l-6.574247184168495,8.181286730589605 m-0.6002583498318651,0.2773322005435309 l2.4798319771892463,1.8287628195296515 1.7110246687319566,2.203559441246917 l1.3775798956544243,2.361607584837553 0.818966153962746,3.019809102623207 l-0.3104204329624255,3.151263553059319 -1.0246852262273174,2.2169544193556487 l-0.9012823411933224,0.8421205382242816 -1.065602830650752,0.40274356468088973 l-1.226372953544298,-0.032195472603325205 -1.3510737104444903,-0.9235837530134439 m-7.8674170605762415,-22.718571973976093 l0.651875313326093,0.8635541959700332 0.16154424421331506,1.0893404217870737 l0.018213395386120455,38.30333222228547 m32.423871365579934,-42.154465295211416 l-0.31392830777773567,1.3317882913425612 -4.57565564398836,0.670497531438097 l-7.223166356898566,1.3565222349668076 -8.343501858246716,1.0205945948614157 m-0.574807053134365,1.6066407330555932 l2.5561088391898905,2.252887358839422 1.5172306886707756,2.4553729834672167 m8.496322532586083,-5.803466152995688 l2.2155422462224834,2.403671562359728 1.382494700256748,2.6952201995238516 m13.363534411388722,-6.872767969314133 l-0.3596468362908863,1.363903090850688 -1.4046282311417029,1.3407010684875158 l-2.180401890473478,1.7041104153319744 -4.273506384728407,2.6824032230589037 m-21.147512979938842,3.3172046658938315 l3.49317936626654,0.1197478985176767 21.481829076885795,-1.924961307088165 l1.9510368866056578,0.2740559797063241 0.8242864356957073,0.9835680120781516 l0.013291463361333876,0.6738871549179595 -2.678042495147588,11.651004660282464 m-25.57850372906236,-6.11308923804237 l3.2158312184700333,0.1343827302484624 20.979392592978023,-1.9757438875032591 m-23.516074324483444,7.715720684536453 l3.441048536875747,0.08761634865970415 21.134834876892693,-1.9533272901819878 m-28.77596472851253,9.604787002084311 l-0.23218813520524714,1.5163363379279877 -1.1053062664887428,2.9609681862040906 l-2.5522740495180893,4.484641939169595 m10.944728346504906,-10.928513928969954 l2.1802618140077175,3.4557839106441968 3.0785977920322294,3.281370259635155 l3.0016832965613363,1.8674419586510784 4.289219674592109,1.5072802208883285 l2.886932252465835,0.4791960008244821 3.303412703453035,0.30215482334463295 l3.400341903289335,0.03059269987531521 3.101096209349975,-0.34294809353386563 l1.6802613800875057,-0.38640101479332895 1.0006694997313341,-0.4304125928231435 l0.46133909028108966,-0.4898260010389388 -0.0011426509920116606,-0.5853826780333096 l-0.4682438941278852,-1.2493986004122486 -2.1554762088190387,-1.5009991207419684 m-16.1841600162462,-7.692917533516022 l2.133136204048057,2.915915339065245 0.7011041646286915,0.2655532046962792 l0.5416172328207027,-0.24967856455865914 0.41610504470467197,-0.8392062776330919 m12.575373278027898,-3.0752754073610205 l4.336547333960256,3.316982048390782 3.0466175003452944,3.2926684239863806 " fill="none" stroke="black" stroke-width="1" /></svg>