<?xml version="1.0" encoding="utf-8" ?>
<svg baseProfile="full" height="95.30397433659964" version="1.1" width="97.8084397313657" xmlns="http://www.w3.org/2000/svg" xmlns:ev="http://www.w3.org/2001/xml-events" xmlns:xlink="http://www.w3.org/1999/xlink"><defs /><rect fill="white" height="95.30397433659964" width="97.8084397313657" x="0" y="0" /><path d="M25,25 m0.0,0.0 m8.684337205948953,12.016995403953985 l0.5017315563129934,0.12983856539383087 3.3925568298167477,0.055222404346863575 l27.06210133651964,-1.9727972732352688 3.791188840023215,-0.12765094032963145 l2.7867927679817543,0.2113702577706141 m-28.158656229645757,-3.3179091609766918 l0.75729500993171,1.3019505378334053 1.1240665953092637,7.094317550560396 m14.440997775503059,-9.636142225180489 l0.1504822980779733,1.2109666877251561 -1.8351086816021518,7.647421895780626 m-21.246260414548114,6.0609588876413065 l3.47985609130406,0.11414782489196758 23.365315995096786,-1.9923315514866184 l3.540118917157114,0.15711912603609185 1.9659643559521551,0.2448068026527594 m-29.45473392204913,6.686535202931383 l0.6065909074663665,0.8465265463287108 1.6355926043517401,7.1235159475414065 m-1.4268743397305002,-7.310451485811116 l19.255320313696984,-1.6945807692535992 6.220926347480793,-0.18893238788670302 l0.8437802435929415,0.4152641856469883 0.28463793070846294,0.9289103527908854 l-1.5350748797350184,5.433530691869112 m-22.820238374089715,1.0867072833286278 l23.278156862222588,-1.4808511985582735 m-13.788904366295634,-18.804146910884437 l0.6291776100493987,0.6921481398400811 0.3509838966462239,1.2942093493872566 l-0.03176388566753283,31.077304595951002 m-1.9817802193134253,-14.038246675990386 l-0.4435717826354633,0.9661659489435152 -2.1140665716998748,1.7788523383245132 l-5.837737394268859,4.050082096933318 -5.757312550492613,3.044151538327632 l-5.77041697102997,2.137614166866644 m22.934815231014884,-11.887924529607751 l13.96565924578713,8.27137121534844 2.519565222328042,1.2910064769753684 l2.442928323888475,0.8249533047322164 " fill="none" stroke="black" stroke-width="1" /></svg>