<?xml version="1.0" encoding="utf-8" ?>
<svg baseProfile="full" height="115.33692847579194" version="1.1" width="104.70998224055147" xmlns="http://www.w3.org/2000/svg" xmlns:ev="http://www.w3.org/2001/xml-events" xmlns:xlink="http://www.w3.org/1999/xlink"><defs /><rect fill="white" height="115.33692847579194" width="104.70998224055147" x="0" y="0" /><path d="M25,25 m0.0,0.0 m5.796656201580153,12.954474992886738 l0.35919783890091694,0.3133215485469204 2.5775102642006242,3.3237408123620384 l1.3619961050185931,2.380101452721566 m15.959185730543513,-8.769943698250573 l-0.25393448542775393,1.612408198372192 -1.2188641726468457,2.448293930660371 l-1.5547767196680278,2.1950406060546594 -1.8474908799121859,1.775134573486789 m-17.243629359811553,6.019918975394368 l2.3853494775221953,0.3839344441466974 16.345172829083964,-1.7695145779376622 l2.4037763750004966,-0.13194581745666525 m-10.432422127103504,-16.352833121257568 l0.6975450393309383,0.763873143868227 0.3723035375727557,1.5660440988093574 l-0.1367524079113911,43.99784831750461 m0.0017967097707803767,-28.492099890795853 l-2.497174334714557,5.138479445643124 -3.5009643879275236,5.3932666431160134 l-3.5342004729454626,4.24657922708526 -3.64139543233814,3.162771622698915 m14.786563743041622,-14.654911101038625 l3.4154032389191893,2.5209997662634933 1.5054549845868754,1.7405762353305414 l0.7960446208321088,1.5116614872567793 m16.346146472766154,-24.30486478481872 l0.7879792587829121,0.9507078567554161 0.28537011461694806,0.9008331109065773 l-0.025490525960162273,10.10785618804132 m-12.158252804295115,0.0396992538987763 l2.4446138238942523,0.2856232029176607 19.351310991223876,-1.690307778331714 l3.0606734414048185,-0.07632558958103534 1.7152795526200133,0.25275682493754714 m-25.770659899556087,2.106613001910243 l1.3255916754007802,3.6411241737364923 1.0394198097152472,3.7705079222803333 l1.5107945880915947,4.631095911196796 1.670943204546881,9.348751087811056 l0.8586480533050547,4.380663125474343 1.6201582920938058,4.828347096341792 l1.5874471041577782,3.210877603544964 1.9320927643843322,2.893814559146084 l2.200200453592405,2.5758645453353 2.388816802197977,2.2218230656888216 l2.466257674235558,1.6376608908347003 2.3965624749618772,0.34658589229347603 l0.7033934534228705,-0.4849760890641901 " fill="none" stroke="black" stroke-width="1" /></svg>