<?xml version="1.0" encoding="utf-8" ?>
<svg baseProfile="full" height="97.57673705126876" version="1.1" width="96.78703197667632" xmlns="http://www.w3.org/2000/svg" xmlns:ev="http://www.w3.org/2001/xml-events" xmlns:xlink="http://www.w3.org/1999/xlink"><defs /><rect fill="white" height="97.57673705126876" width="96.78703197667632" x="0" y="0" /><path d="M25,25 m0.0,0.0 m11.418607908846804,12.82148974559747 l0.46712127715061874,0.12078382523039986 3.1619642606501874,0.08797564944563956 l24.66897757286292,-2.135073090463887 3.2566908389901954,-0.1145037346228879 l2.468366586293783,0.22727365539714897 m-25.60556788364467,-3.537518456428127 l0.6819836760916507,1.2419750619950192 1.0053847384187113,7.212904812819729 m13.255162170383356,-9.742884345836625 l0.13036492294879984,1.2939664806991606 -1.6534976249813997,7.563433211605399 m-19.992703322464553,6.228063419724453 l3.150270722446823,0.12933693204089455 21.074087806016223,-2.001509453605299 l3.440071937193192,0.15118447994788148 1.756900221296113,0.25644554196578684 m-27.269680990303016,7.095991005719154 l0.55315090832573,0.8688553419117889 1.4793149678174855,7.059412682593376 m-1.271678443927502,-7.267222697165696 l17.031914985870838,-1.7010957496409853 6.821111404845413,-0.3091194642515158 l0.8473851525532479,0.402533381799779 0.2865724888216282,0.9509924319206536 l-1.4512453918287727,5.433362920187521 m-21.512609538505213,2.299109718786868 l21.967210264487484,-2.043429448032342 m-12.739528523082559,-20.426351773997684 l0.5677051521411143,0.7496270876689048 0.2769337158621615,1.3748852959106233 l-0.03674029589032913,33.28584258234617 m-1.6864582091021456,-15.158368662337793 l-0.37127386031916654,0.9747520363345025 -1.8426519135081392,1.8505731184120444 l-5.258210413795501,4.2348177564387255 -5.279890608333271,3.265356010017432 l-5.227305930300671,2.2535818830585566 m20.994535964294386,-12.779016361122748 l12.695963994987311,8.796163853293493 2.311322223216178,1.44881285121956 l2.216999063850864,0.9389278826707095 " fill="none" stroke="black" stroke-width="1" /></svg>