<?xml version="1.0" encoding="utf-8" ?>
<svg baseProfile="full" height="97.96381916850603" version="1.1" width="96.43207080202228" xmlns="http://www.w3.org/2000/svg" xmlns:ev="http://www.w3.org/2001/xml-events" xmlns:xlink="http://www.w3.org/1999/xlink"><defs /><rect fill="white" height="97.96381916850603" width="96.43207080202228" x="0" y="0" /><path d="M25,25.441638331999847 m0.0,0.0 m7.4513028512477675,4.097722490938872 l0.39630946204162026,0.1918373402270618 2.000710867203077,0.26546555158339524 l8.10070679787486,-1.8628662854110458 0.6579463131253913,-0.0333901863186814 l0.4109801909267426,0.351979524198888 0.15130565270487417,1.2947360630497746 l-2.3437455287959286,9.66182639025748 m-6.42900942786399,1.4970939262507403 l5.902230264536976,-1.069903463337604 m-6.741833074849697,0.15799351221365351 l0.19813120996864145,1.4104990347458264 -0.1432196141122834,2.1205155514677254 l-2.3287379163842767,7.525572912236997 -0.13848827214905823,0.5928074116423265 l0.15391139149185892,0.4318766362110599 0.4032726337744105,0.1533641333951223 l0.7782199783501728,-0.12475433578361218 3.544756546209276,-2.1894503606962785 l3.8130359931367654,-0.6382238737080296 0.4722837494110863,0.583915801215317 l-0.3220064434166132,1.5127174095945035 -1.106789777901423,4.954079956187473 l-1.3624743714862233,5.3240242125361 -1.3203096896796602,4.079439768594129 l-1.1766746770901042,2.789461919607893 -1.083429885373555,1.4556149406802035 l-0.5782428593006572,0.15790207893444796 -0.5148254201815632,-0.2400386538191455 l-1.139871395861498,-1.9829315504602143 m10.796896883442134,-35.94241194122986 l1.9966143778596213,2.732491742581912 0.8955703439016325,1.9392058798151446 l0.38432551822875094,1.3542545685748664 m11.01691532714698,-8.354143045773743 l-0.07941743889412281,0.6580128680714514 -0.9839017660140039,2.755198508462129 l-1.0641296183909092,2.0370349582757266 -1.002773999300776,1.3907270221477268 m-12.235755034657409,6.15779587799486 l1.5068972499412883,0.3489662387104578 13.002167750066233,-1.7396863931780264 l0.6963751633179789,0.05979554472856482 m-7.398282232536403,-16.30776801741544 l0.5361912979215272,0.7202097568177374 0.2699532246487954,1.5154371825440045 l-0.08767217340785055,42.76867589488783 -0.22671508706084353,1.9761398760058353 l-0.4297698272135361,0.8821849558635305 -0.5801269223068845,0.10117150238710318 l-0.6568301804572011,-0.45250722760280504 -1.845793975202347,-2.463723818073363 m3.801972681751462,-27.54248910046141 l-1.6869701684661575,5.6007372567525815 -2.286775420959969,5.898295837398749 l-2.319203689954408,4.608980377572914 -2.396977857659039,3.4174331405284746 m10.052814415965676,-15.133744607057341 l1.9775055213682051,1.6928361380240975 1.2802623901530414,1.537047252613028 l1.0287112094678907,1.7460153121378812 0.7705862804110656,2.0054834051816592 m2.795802327465496,-26.902067734294885 l0.7957448101212642,0.465349871147455 1.0160211703534545,0.1266463387214873 l7.651904248717559,-1.3395796353456435 0.5822892573785193,-0.02690954363994757 l0.34769604383382224,0.334065016961413 0.0855380975714951,1.249639230415271 l-2.1963337149879525,8.460060580128394 m-7.001803050112734,1.8306579117950157 l7.763939465576565,-1.1729991758247305 m-7.789587657360939,0.3064499479301671 l0.18121886389058547,1.380754479812435 -0.06471069281037169,1.0782953896699057 l-1.9024894341190817,6.454636516725845 -0.012521486551292961,0.737425037708867 l0.2172994575749529,0.4181528884579978 0.5185453654436469,0.15066437806217256 l10.267025872177772,-1.4971957966685094 0.48246078952285143,0.26925227288904396 l0.25592127766926004,1.0646185169378963 -1.2459929795076687,4.607532282702212 l-1.7102830667054172,4.905096589118227 -1.7582528942670257,4.347094315539646 l-1.5526724342096228,3.128008392991895 -1.3921070584974478,1.5241659983373017 l-0.592654936627682,0.040548638704076025 -0.5135571146991609,-0.29699596778264203 l-1.2598776282242523,-2.1964976149720186 " fill="none" stroke="black" stroke-width="1" /></svg>