<?xml version="1.0" encoding="utf-8" ?>
<svg baseProfile="full" height="115.90280065815826" version="1.1" width="101.95386184472106" xmlns="http://www.w3.org/2000/svg" xmlns:ev="http://www.w3.org/2001/xml-events" xmlns:xlink="http://www.w3.org/1999/xlink"><defs /><rect fill="white" height="115.90280065815826" width="101.95386184472106" x="0" y="0" /><path d="M25,25 m0.0,0.0 m13.403799124665404,10.497046155265616 l0.4254465797511152,0.1557049632964499 1.814637427952739,0.09295857197006092 l24.248289784268866,-2.597964648579956 4.434598311462954,-0.18622145580736219 l2.3061583943140396,0.274982732105231 m-26.20661745474557,-5.241208418100154 l0.857925711961694,0.9233042662468262 0.3222665107094412,0.7367403090489963 l1.1175348465976198,11.316301449411876 m13.28011873140554,-14.416859582082035 l0.28077505070544134,1.0251678791134882 -0.02092142830920328,1.1174148460731776 l-2.106821894058749,11.004776001675541 m-15.727571628478735,5.111997988615807 l-0.03433176821222893,1.7672372209125087 -0.5613889483170651,2.929820758438449 l-1.8817072154926833,2.8958797561591947 -2.361323082470596,2.2875486008860038 m7.442516097629426,0.0070180730524428865 l0.03461075680693036,0.9406884620655176 -0.24268675044978416,0.7837647108559294 l-3.274707996843316,10.288988394413238 m-7.943093055760307,-8.560035141681807 l0.9935354470234439,1.5475976226294137 1.223958706779821,2.4242395147414952 m9.518415112605899,-5.792485917147224 l-0.3020364215388894,1.22814406334176 -1.8458775360607267,3.0934438285031804 l-2.4793713583794723,3.6471144212883635 -2.0945371053237047,2.398288140710594 m-8.543632889224424,0.6011019884368035 l0.5013074392608351,1.0953417680079365 0.21528195035575398,1.1376001326590428 l1.2128262020245533,21.367363201631857 m-0.9574661192607423,-22.293550067677987 l13.999636648538091,-2.685388697336542 1.074359668962445,0.058202604494176205 l0.4249788683801582,0.3777296476084904 0.2775671662342059,1.248308280997032 l-1.6387291610709358,18.05620605058606 m-12.88027910395176,-8.751274331686213 l9.07538407471092,-1.211864387351948 m-8.34823359082406,10.491586141576965 l12.139862098085162,-1.3342269653749068 m12.934084975227291,-39.86963118523222 l-0.09067371669892926,1.6958614583075966 -0.507405043790008,1.9274568294003835 l-2.0251611529023816,3.237925010045702 -2.8337048294884872,3.1503118360883824 l-3.7524001951252703,2.8830380164198637 m12.850364896107598,-6.961203238276175 l0.037726718172108924,1.2330534533988897 -0.20996778106743058,1.0918544829096366 l-2.5674261063725856,6.862817465612682 -2.70297009151638,5.202510488892559 l-3.3013799074630747,5.061152820285562 -4.066379254814563,4.480972734490116 m13.11728138144229,-19.85761808373736 l2.7501607864094777,5.7559916763950785 3.468737546510127,6.59649684645032 l2.8603447721385353,4.267165597169486 2.197112624420838,2.3674504181099603 l1.2922612290666065,0.7731452250949434 1.3287987920457391,0.33485973500234345 m-12.458140165895056,-3.100057035477679 l0.19711714787023468,1.181543961108657 -0.03877948097845803,1.519282307701656 l-5.52786065129068,5.11913031905179 -0.6585900600954445,3.1457442500396184 l13.080269597933652,0.20691693172606468 2.414140775181337,1.7841928755313066 l1.2739195123470022,2.2459137956222888 0.43955684580206916,3.569635589207101 " fill="none" stroke="black" stroke-width="1" /></svg>