<?xml version="1.0" encoding="utf-8" ?>
<svg baseProfile="full" height="105.87678281381892" version="1.1" width="119.36232632886335" xmlns="http://www.w3.org/2000/svg" xmlns:ev="http://www.w3.org/2001/xml-events" xmlns:xlink="http://www.w3.org/1999/xlink"><defs /><rect fill="white" height="105.87678281381892" width="119.36232632886335" x="0" y="0" /><path d="M25,25 m0.0,0.0 m2.2641646816613,20.094704542721775 l0.653020378610971,0.08544676879705207 3.373118570170527,-0.002724303929612172 l15.0359687563711,-1.9685925541952525 2.3520342959380054,-0.020559365643363914 m-9.931313934901672,-12.392936845345757 l0.7602948106446886,1.2904136687069903 0.2112765923716656,1.8363976978537944 l-0.1339964928896925,44.71034861128271 -0.3855204940266743,1.488822309828151 l-0.594851335910764,0.6979762911839948 -0.7383370780951177,0.05748599255843704 l-1.6267555430078178,-1.1641153657034626 -1.9158271450584363,-2.126323333275515 m-7.810079287608081,-12.737778005185369 l1.1317239880924932,0.34497850917172324 1.853972869812327,-0.5511395476371214 l15.509901658967888,-9.728755512571043 m20.728909546064095,-22.527324850144293 l0.2771395593557013,1.796363034896285 -0.08874229203289315,3.9926220594990323 l-0.925036614209692,5.452394287613305 -1.5841404537534014,5.506731091996571 l-2.5660558748471796,9.976558699084503 -2.2098058911296494,6.0508962231983325 l-2.595706919180998,5.600043297549201 -3.3382674353023165,5.840942287376893 m2.8567618897397176,-29.158525930471487 l1.7712014291636704,0.2659513512042089 2.443332952811117,-0.16574414814986277 l18.858868189264108,-3.1219628996738717 1.809999839309529,0.39867216345392975 l0.27041223579587403,0.55273385219489 -0.02814476022244869,16.983530634119745 l2.333793435915713,1.8624001712404796 3.8035635380166752,0.393736847490307 l5.333000755831381,-0.22535733131173172 1.6679737213699708,-1.2174403165385743 l0.44423586654679675,-1.6504048520904686 0.09023831921486565,-2.256340168394052 " fill="none" stroke="black" stroke-width="1" /></svg>