<?xml version="1.0" encoding="utf-8" ?>
<svg baseProfile="full" height="98.48930080614298" version="1.1" width="105.25718715957659" xmlns="http://www.w3.org/2000/svg" xmlns:ev="http://www.w3.org/2001/xml-events" xmlns:xlink="http://www.w3.org/1999/xlink"><defs /><rect fill="white" height="98.48930080614298" width="105.25718715957659" x="0" y="0" /><path d="M25,25 m0.0,0.0 m12.930416870947031,5.870879745765974 l0.39821553015484107,0.38554709337062815 0.5571189956865918,3.004864327818173 l-0.0077366044976989,7.659950739501068 m5.886881893759687,1.6277774470310238 l0.09097165053318265,0.9349812790228782 -0.4143835968002158,1.4060290932996562 l-2.337077668477486,4.557922561913228 -2.572478111337946,3.8493129103227024 l-3.742724341034414,4.412450400692376 m6.954026432281713,-7.391017614509723 l0.3222225332895751,1.9986393426536748 0.008802060230602838,18.468132791853147 m13.089514693770774,-36.637821309505746 l-0.0764909898665516,1.4343667509113824 -2.2848766795257096,4.759428459753329 l-2.424310052901374,3.7820046115369714 -2.7174910108571217,3.411424190267417 m6.575682812183501,-6.5327252659679536 l2.031159655817391,0.1078119397994693 5.416282378853501,-1.5566552908967592 l0.9023736173253436,-0.18630436672552242 0.4738773870220144,0.2126582952040719 l0.14296783443534608,0.49487483764282375 -0.41781794340761663,2.0730745953955187 l-1.1767690845295256,3.0574515612536395 -1.5377749470225124,3.2971483537833333 l-1.8163437542936602,5.98130492545927 -2.930337788751481,7.338239276658387 l-1.6492135938188757,3.0686420792395723 -1.876257730742663,2.8494653868619246 l-2.0971577959226897,2.5824523787521967 -2.304141728211039,2.1669892779848343 m5.402829847337587,-21.454466364360247 l2.2235372578844905,2.0896473837764145 1.3222971571600242,1.7242243378710724 m8.45535679556578,-11.927593812023133 l1.781160677572004,0.04499297831888393 10.268567649144579,-1.65662660556726 l1.2306860838828528,0.05566433462016272 m-11.970847141731781,1.758911923107749 l0.4304284347322546,1.3940664889987946 0.0027318183321485916,8.761725151429424 l0.5905243869450901,0.7384151924006604 0.8772284769344427,0.21490447457814493 l2.8011061459226547,0.10141371702666223 4.230525125491884,-0.1141645403516631 l2.391211766960323,-0.267219892691896 1.8227117531497197,-0.44922789305485306 m-4.608101271099705,-25.001581122938696 l0.6278040371791394,1.0669308655086087 0.18526513003770417,0.9340611532013263 l-0.06187956531732064,32.791376947448796 " fill="none" stroke="black" stroke-width="1" /></svg>