<?xml version="1.0" encoding="utf-8" ?>
<svg baseProfile="full" height="85.27687519142734" version="1.1" width="100.30146512354152" xmlns="http://www.w3.org/2000/svg" xmlns:ev="http://www.w3.org/2001/xml-events" xmlns:xlink="http://www.w3.org/1999/xlink"><defs /><rect fill="white" height="85.27687519142734" width="100.30146512354152" x="0" y="0" /><path d="M41.77535791746013,25 m0.0,0.0 m28.18026235413408,3.6889490499999056 l0.36944952533319264,0.3830477818709253 0.664031833022534,1.3324167061850514 l0.0768330960434601,19.099671632376268 -0.17184276161118667,1.1613376464187466 l-0.4086116292378636,0.4267531711952089 -0.6388141323650715,-0.16696307416801964 l-1.5981114051769163,-0.5897549440072647 -1.9618223809062942,-1.1842163950693994 m-8.744324032325972,-8.98425714136999 l-0.07504832072638853,1.0403280944564504 -0.5594584589091868,0.6835059114839013 l-8.459598250740509,3.7417398304211025 -7.295200122788035,1.8826878259816955 m2.648085874241018,-7.877172526589329 l6.4047137250655695,0.5036721881819181 4.692933201760746,1.0140601160292066 l7.529346856497854,1.5671088669862647 5.615181420157845,1.96092885919266 m-38.66802739733382,2.6264975537189796 l4.97536097512129,0.10021157587909088 30.617027851592404,-1.6451937937591858 l6.245204583347431,-0.18549449382059519 3.078593774796843,0.180315562241506 m-23.309494172002307,2.0530269606422697 l0.11346311894159927,0.7013401831772895 -0.119438449026684,0.849746381024522 l-0.8272660040171667,8.994639988826991 -0.26466933265155757,1.1962728104134106 l-0.2699267477096917,0.5308171174698195 -0.3464126502435864,0.19085174603793562 l-0.4359918635112066,-0.044802646348018484 -1.1663037480138392,-0.7419009528128578 l-1.4785447953864554,-1.3885173241624693 m-8.59734571523935,-6.958978918512946 l-0.39465992365981534,0.7757532878305706 -0.526739220291591,0.5264754502725835 l-2.783526634951856,2.079085852591208 -4.27379388691384,2.3459051770447528 l-4.6108740717758,2.143951544099342 m38.61312982156148,-9.039332439167032 l3.599377429859475,1.497835093461304 3.8200105130768174,2.1079946341406943 l2.834679743944283,1.9644390285249917 1.434267615099462,1.5470919405943762 " fill="none" stroke="black" stroke-width="1" /></svg>