<?xml version="1.0" encoding="utf-8" ?>
<svg baseProfile="full" height="93.00989543950064" version="1.1" width="96.6232980577624" xmlns="http://www.w3.org/2000/svg" xmlns:ev="http://www.w3.org/2001/xml-events" xmlns:xlink="http://www.w3.org/1999/xlink"><defs /><rect fill="white" height="93.00989543950064" width="96.6232980577624" x="0" y="0" /><path d="M25,25 m0.0,0.0 m16.791875493681292,3.4829144927757008 l0.06806803472782821,0.4617843590295299 -0.23617243724696568,1.145514534039544 l-1.1519678282823493,2.038734135515967 -3.3891390286170333,4.83522868169471 l-4.243949025564091,4.374198348353301 0.029053114268117627,0.7796187276364499 m10.564557571702732,-11.04931826171677 l1.478986867700797,0.9806957953896962 1.607155815742815,1.741978525516569 l1.2553643509196946,1.8211813297103707 0.847240858493675,1.7038517354596374 m-11.469568534216453,3.353191043120368 l1.747461772199771,-0.013468039438658484 5.550377779211908,-0.9391514133652065 l2.62952228163731,-0.19251981048059683 m-13.630407193796707,8.366719448674646 l1.718803480284229,0.18635619814241328 11.165963955868556,-1.3017035485775512 l2.117970904664652,-0.05483220268475716 m-7.390730104881589,-5.253224224553741 l0.3485305982747084,0.3509598591861227 0.25521709569459644,0.8476340455432835 l0.1685558580902082,17.557698492379377 m-7.253786428033604,-8.159551000532502 l1.5172477818139278,2.6733501272289137 1.1064479728122933,3.1092298554495343 m9.823701236228603,-8.268676053603677 l0.17166705004238605,0.8653139043053076 -0.1525114736302128,0.8531012927467277 l-2.449886304883194,4.25088491824679 m-11.306491616064903,7.07033099746041 l0.7946307325223979,0.26551389255100083 1.496773331722068,-0.15260434890376728 l11.611798438941415,-4.883240283327294 m4.690931018586883,-30.3905902111479 l0.3381814646290368,0.1893306550864115 0.8886773554181655,1.0034713989613306 l1.2575381357206676,2.688295494358509 m9.106409676963686,-5.008270454647633 l-0.14608549979199978,0.8426628809170472 -0.8795630678638373,1.7702624590386828 l-1.0170238994906295,1.444914632344318 -1.214528634230791,1.251641777362406 m-10.525531811078485,2.0900414953564272 l2.378783172383153,0.057362219615418125 11.70300794523091,-1.2551920971803892 l3.190759087110988,0.03841834677778273 m-9.48720692207083,1.4641331994673297 l0.39812693929180143,0.38083664855973787 0.2612847353359777,0.8094062071625853 l0.025871404000297478,6.928597083974542 m-7.146933085594012,-4.059208768220186 l1.9951154481440951,0.05880924694953943 10.026103555992506,-1.1554729103026145 l3.02660916180846,0.010797920526728275 m-18.1639995066476,5.854300268825951 l1.9190911254580525,0.1836510371632922 15.035872369991418,-1.3931106840599887 l3.1797547768734855,-0.1994649669853742 1.4742243804662014,0.17573390687170662 m-15.228666136627114,2.363257029470056 l-0.08317992867281948,0.8071081612557222 -0.505790713907098,0.927066746909468 l-1.7904741896111633,2.3222174112327343 -2.1313423499906397,2.1316571828021678 l-2.9195954761205005,1.9619581725240975 m15.740094216986655,-9.300389941323647 l7.322892438215575,6.570290506583914 0.6308208497694184,0.500306282211738 l1.0807076190535914,0.4079988691283708 m-13.810590021210087,-5.000138648109871 l1.4659432568314112,1.693781745682615 0.7409526357377779,1.5105167281126788 m-6.158365568114883,2.778107808376148 l10.33918161625362,-1.6760078735772534 1.021591948983032,0.05403127751865689 l0.3298236370349601,0.6411614646413955 -1.1110816633147875,6.634252694683338 l-0.7055401959520997,0.3496207203156837 m-6.2193982671524415,-6.50090939112762 l0.35720690798398386,0.9605591651535297 0.03394447828064995,4.633833372917765 m-5.404089541811783,0.704660304179117 l11.635694881201314,-0.8804551668323535 m-12.455518319666842,-5.308551472383165 l0.4274273319783957,0.5025118391028337 0.1713384924744354,0.7928631271412719 l0.1805387199422738,12.739799273391316 0.285197973782567,0.4605117410458179 l1.1014829636889647,0.25860194988910373 4.578400507823091,-3.2249886989637475 m7.156686675720108,-6.931086735795887 l-0.029916469597423542,0.8216599323647423 -0.3110371826148382,0.5423688452887733 l-3.0253726456920442,2.5386750921338423 m-5.296799195940831,-2.5238502011888735 l0.9661967078178669,1.413802170977247 4.308607487348655,5.6767633968257565 l3.1764778717272457,3.2277118748848643 2.2082246459270793,0.7266787225687367 l1.2938674828046137,0.07288761974206406 " fill="none" stroke="black" stroke-width="1" /></svg>