<?xml version="1.0" encoding="utf-8" ?>
<svg baseProfile="full" height="93.11009863467976" version="1.1" width="105.64600961686821" xmlns="http://www.w3.org/2000/svg" xmlns:ev="http://www.w3.org/2001/xml-events" xmlns:xlink="http://www.w3.org/1999/xlink"><defs /><rect fill="white" height="93.11009863467976" width="105.64600961686821" x="0" y="0" /><path d="M25,25 m0.0,0.0 m8.963960126930669,7.077824321719819 l0.44284351276242345,0.15680712090777787 2.1673742398701883,0.21324924055590452 l9.092380330335887,-1.3744703947841757 0.7502641862532212,0.01726352043391795 l0.48463922852087377,0.2990280148294698 0.22030471574725394,0.4946057315519515 l-2.852516709779551,7.657000989417511 m-7.097452325392883,1.0794489946719081 l6.640417914115869,-0.8561248336359573 m-7.543283290232357,0.12734278930832435 l0.211700499012525,1.018901490658654 -0.19595826535866007,1.6467601424781169 l-2.46970231638226,5.100001800642717 -0.14928931853666622,0.5547845805992778 l0.1826770047853907,0.3692887451430839 0.4235815642701235,0.14926563322894076 l0.6986752702631873,-0.09373453755537813 3.833139322863915,-0.8437868041133063 l5.4017889257033875,-0.6220411960731704 0.5108586783235773,0.46167667629769593 l-0.3655023578856508,1.1401452850731117 -1.2374462237244837,5.866996852247761 l-1.365460555633717,4.450868759310911 -1.2922744465448903,3.0770818944545724 l-1.316457354489911,2.178392530435955 -0.719175094139656,1.0903100204337957 l-0.7073714253339093,0.7666148664201048 -0.6481785247851762,0.3307629388815643 l-0.5990309789691239,-0.0013890571805810607 -0.5524336208490505,-0.2589266579306873 l-1.2261285352302813,-1.601317651381274 m13.154509956977348,-29.532690776451147 l2.3528612172128214,2.0891493015650915 1.0991755119245057,1.4904042928895878 l0.47934653804676525,1.0911180182083955 m12.647108044445869,-6.818690586336635 l-0.12676756462062996,0.5219838806217089 -1.8060738974604806,2.441518576152899 l-1.4930181316437643,1.520317654879196 -1.3106515220994766,0.9817455348721623 m-13.495888765468946,5.084641793868317 l1.769595851289594,0.2855865209971878 15.478403064326802,-1.4255805863039042 l0.84846367568432,0.05835437611328159 m-8.758404504849082,-12.456422366703112 l0.6539940625775439,0.5762267735694097 0.35606007051810257,1.1726259784630921 l-0.12925160187429596,34.2049114608392 -0.2894454117618379,1.454779648434636 l-0.5121666956874434,0.6395719171311409 -0.6617170187342416,0.0579154148209351 l-0.749521011656221,-0.3550704895733612 -2.170480862732915,-1.9956785854755024 m4.442591739024457,-22.29419947707346 l-1.9449089494657525,4.529982271124029 -2.7041091453645527,4.646637294265946 l-2.715261984073224,3.62222907157815 -2.8169924676831424,2.737366973183318 m11.613310705791827,-12.052558015777773 l2.346365948518494,1.3602407371944107 1.5228687761683246,1.1854103902635262 l1.208758508281724,1.3706510978800752 0.8916585790294164,1.5687085480428367 m3.508535076679087,-22.045715937203084 l0.9425629883842703,0.37363559847822736 1.177737945263866,0.11605352546276616 l9.328426418751528,-0.9964197134934782 1.403077879690701,0.22342442776874005 l0.15822093867989856,0.41582541800572903 -0.22184987914845933,0.556076340285354 l-2.592367000315057,6.675974065890438 m-8.857598431215695,1.485330212392046 l9.901923329027685,-0.8948727234054823 m-9.814598119463302,0.38361451539960234 l0.19304226907741673,1.0646316689856021 -0.10853887992657002,1.4218922823704319 l-2.14949464076843,5.403518416585718 0.062883810035016,0.4304978958000848 l0.35120606451881736,0.31722383151376776 0.6122443224812478,0.07803372843767316 l11.847257476429489,-1.2089702209164088 0.5222474744095067,0.18245377145989514 l0.5137336831450375,0.8647859396720939 -0.18777197622107153,3.57588679097459 l-0.9578544529688966,5.363422069405496 -1.2794688177399411,4.398612065649525 l-1.4515351296401309,3.2466974106370796 -1.4344198788808489,2.508571419957509 l-0.7648304328563788,0.6333164178734225 -0.6717341518756601,0.16111233283223406 l-0.6195976370910349,-0.16291960195651325 -1.6683318491526447,-1.8907127374959638 " fill="none" stroke="black" stroke-width="1" /></svg>