<?xml version="1.0" encoding="utf-8" ?>
<svg baseProfile="full" height="118.75980402409014" version="1.1" width="96.86055527879628" xmlns="http://www.w3.org/2000/svg" xmlns:ev="http://www.w3.org/2001/xml-events" xmlns:xlink="http://www.w3.org/1999/xlink"><defs /><rect fill="white" height="118.75980402409014" width="96.86055527879628" x="0" y="0" /><path d="M25,25 m0.0,0.0 m14.637593518473816,3.6551914813202777 l0.014918282205084775,0.4604329788304072 -1.0913869382763512,2.214966476176473 l-2.4570353685093265,2.704363083310156 -3.4670492587785495,2.7314519251063607 l-3.977168917794232,2.2523121493676523 m26.588616021466365,-6.120253771483554 l-0.20337634158855533,1.3214099585834285 -1.5758586969686672,2.1362757877153915 l-2.3647179692841545,2.32316426366052 -2.7652987595962575,2.150763004607934 l-4.173785378553331,2.311816507191156 -8.428370958331563,2.210219607053865 m9.820074072646218,-4.531343335999436 l0.31066662852658145,0.6920411228759771 0.16769685635338935,1.1175061930428356 l-0.06938470372212226,4.715049468943561 -0.6616075086823615,3.9469690128778643 l-1.2128624239638126,3.6130801804862487 -1.483541676775317,2.798790713084974 l-2.0505508466085267,4.754679765557665 -1.9152143515582347,4.764688612872467 l-1.903598300493781,4.501209830307766 -2.453710939188003,4.195107028825949 l-3.090380450188031,3.122793519309227 -3.782001937114172,2.3180777907379926 m14.2733507868514,-17.559434759262842 l3.0801443871902046,2.1199361569087483 3.3891789106802737,3.6988247351135692 l2.8664519749501816,4.113772265336846 1.9649942165684249,4.498936862907245 m15.836881738942331,-16.06195066191515 l0.1827085029880253,1.109826961255435 -0.33573397572190317,1.2100520867505709 l-3.2998019754665577,5.036735917294135 -3.2135280918262286,3.7170054759559488 m-8.915225425472128,-12.248179828705897 l0.5905436679923641,1.117003215134428 0.41979119313212493,2.6781844521850275 l-0.1259819102811261,24.078466597042443 0.21157080212422857,1.8739540752813504 l0.4855850825921823,1.3844585436412937 1.3402217176992421,1.0352910604640297 l2.454795536250763,0.48029929950852324 6.632099112936621,0.11585821483127617 l4.757506000531701,-0.38238264364797886 1.4098708348985967,-1.451699501285071 l0.3621578700538525,-1.799840123967265 0.08031066748560697,-2.7537744632487953 " fill="none" stroke="black" stroke-width="1" /></svg>