<?xml version="1.0" encoding="utf-8" ?>
<svg baseProfile="full" height="94.58465719401741" version="1.1" width="96.0843027831981" xmlns="http://www.w3.org/2000/svg" xmlns:ev="http://www.w3.org/2001/xml-events" xmlns:xlink="http://www.w3.org/1999/xlink"><defs /><rect fill="white" height="94.58465719401741" width="96.0843027831981" x="0" y="0" /><path d="M25,25 m0.0,0.0 m4.984993676798221,10.647834477511479 l0.3582390351995033,0.13877926458128276 1.532972898523881,0.0876949186397033 l13.028030397468193,-1.8547621470289877 1.8370381659397927,0.15508699964239056 m-8.651680452895704,9.43330815896083 l3.893188185309332,2.0011500348084157 1.1214217141486187,0.9113186862688183 l0.5264405256669685,0.9651937417467558 m-6.481537105902061,11.912819804128027 l0.684865371528954,0.43860321768110566 0.8858881793784097,-0.14278567823243485 l7.636599974485921,-6.351465261388088 m-5.55066032461353,-21.515399559973524 l0.5255839195943449,1.0084684772678782 0.19110610545968534,1.024884825461141 l-0.037407940146285554,28.816442342480702 m15.470488485226115,-33.710900459440325 l1.8231490016590473,0.8722599889043892 1.2421679789072186,1.2028308911315995 l0.927066738825257,1.32408475898439 0.6427861498360119,1.263230756375346 m-10.737590525960616,3.605169467507505 l1.7830793542332275,3.4711126131922225 1.0907040030224364,3.3686026105562266 m11.916856919968474,-8.317681261869623 l0.012282124127808715,0.9364989971137541 -0.40073896481214577,1.2648364981525455 l-2.9282023870038145,5.5508940295942875 m-14.564211090900194,3.879325053072645 l2.054743943478609,0.24278456727174355 16.91724883893026,-1.7488409574786163 l3.0449100217530334,-0.10878427473709248 1.30447986596314,0.20691228696850517 m-16.581436102906927,2.653777077925397 l0.1865861870896883,1.561376333404732 -0.5979089161288345,3.0149641659876396 l-0.9300609188829176,3.382137600115421 -1.2066518634415961,3.2508495054068063 l-1.1752693857383778,2.6012655724160614 -1.350647291012338,2.5328998431480603 l-1.4848306728454463,2.2597942006836567 -1.3633187976593009,1.5652838252102996 m13.511646660360345,-21.25913529159853 l0.39520156206685547,1.0713420961944005 0.10849151204517245,0.973886173690862 l-0.0864529124252811,16.124773015614686 0.24767013382632896,1.7894188067397323 l0.5591483231006544,1.109848929806193 0.9091790064483843,0.6740441828287456 l1.3661398618763514,0.29862328858826104 3.49131404649383,-0.01101914623353367 l1.7405364816778952,-0.3415273657481827 0.6868734662600684,-0.4218539699094043 l0.5928485553278954,-1.0396506609627958 0.19725132491806496,-0.9923380044087238 " fill="none" stroke="black" stroke-width="1" /></svg>