<?xml version="1.0" encoding="utf-8" ?>
<svg baseProfile="full" height="101.2254928414581" version="1.1" width="101.57503434419877" xmlns="http://www.w3.org/2000/svg" xmlns:ev="http://www.w3.org/2001/xml-events" xmlns:xlink="http://www.w3.org/1999/xlink"><defs /><rect fill="white" height="101.2254928414581" width="101.57503434419877" x="0" y="0" /><path d="M34.54696045596807,25 m0.0,0.0 m15.1713726683536,1.4778848106960332 l0.4048195202822873,0.40779928168966506 0.5351197837042445,1.7214950352679725 l-0.02198532464380168,12.87595168162409 m0.747029620194935,-7.745708560876072 l11.557811852605381,-1.2416251197504355 2.8096897887008168,-0.022902186926544825 m-32.065471769354765,-0.7659159930616346 l0.8512619701189739,0.7241190613705787 0.45590729561756144,1.0532574156748105 l0.2564284861831194,8.5590699415988 m-10.248944347730426,0.47944571036689065 l2.4124255218332813,0.36023852436163367 3.5245783961923096,-0.029760373157043586 l34.9762915302169,-3.1798394327089285 6.120491443783571,-0.1188126411607825 l4.5412474521727075,0.39123500544227263 m-25.469801518195826,3.54397951989121 l0.6297002526200121,0.9260171066055225 0.19036768701607396,1.7498809092703738 l-0.2153034639830289,12.865454753759137 -0.2935088406922244,0.8203001676994959 l-0.4853065426256846,0.26863473451114134 -0.63435267514343,-0.09140675956823463 l-1.6020241232207135,-0.9387342020254348 -1.646475429563089,-1.423147794209866 m-7.869988187746306,-8.959308147901194 l-0.097339092114372,0.9668953623246354 -0.42987952709975863,0.6734525851161927 l-2.5027159625444355,2.6663489372271485 -3.9343225252698146,3.199475683123255 l-4.516059140621122,2.867587969414188 m37.12745145463251,-12.973634653565318 l2.8588464174289494,1.14814643510836 3.112144807579274,1.6869285874525652 l2.498016682527936,1.8615697589432958 1.572257550051829,1.6665902282325518 m-9.963446439176623,-1.2965637073258274 l-0.021979960199954886,0.9685581370839355 -0.44227398475781915,1.1825115816289475 l-2.88344909937911,3.7094869501986327 -4.263274825252699,4.108027599855982 l-4.289339398470978,3.3802715524146008 -5.008735818428896,3.336402678076006 l-5.529210290407011,3.1364841069474902 -5.906110548686974,2.859538335513274 l-5.995407130161499,2.3698122652047595 " fill="none" stroke="black" stroke-width="1" /></svg>