<?xml version="1.0" encoding="utf-8" ?>
<svg baseProfile="full" height="105.69084567121803" version="1.1" width="115.43615105010844" xmlns="http://www.w3.org/2000/svg" xmlns:ev="http://www.w3.org/2001/xml-events" xmlns:xlink="http://www.w3.org/1999/xlink"><defs /><rect fill="white" height="105.69084567121803" width="115.43615105010844" x="0" y="0" /><path d="M25,25 m0.0,0.0 m7.46326414859013,17.271278503679177 l0.5273134928157783,0.08894940985601046 2.9164007403903947,0.029939980123195757 l11.877241148414686,-2.193901823797878 1.9032319410240983,-0.06373797793973018 m-8.011022131958233,-13.230359719873602 l0.7609833862767249,1.3953816776418717 0.19332952827312636,1.9951469597303246 l-0.14602537682637887,48.131123458458525 -0.375713826867242,1.5639422833187162 l-0.5448922441883506,0.7030829200214065 -0.651274078654955,-0.0036462936666645856 l-1.408757107437716,-1.2867766111148118 -1.6648140352229863,-2.2660134776671423 m-6.087040917550593,-15.299946932656649 l1.024926774916149,0.2416884145254793 1.5427426852284765,-0.5815675465571689 l13.195660925864196,-9.744378337360304 m6.705473751385966,-21.768852800031453 l2.029745297324974,0.25521212101248714 1.6186459440314607,-0.1368503489764357 l14.652596019691652,-2.8027784047098407 2.3891653848648278,-0.06103318332800213 l1.1231246343733985,0.801079735842798 0.23736435897728295,1.2909832778674404 l-1.6905749053163266,8.694045614400125 m-17.601730592796656,3.2786670172109194 l18.829536925819294,-2.5376778195258423 m-19.988664747431503,-8.78859843755132 l0.6252692605588545,0.846327785490818 0.3031030237477326,1.173743977960597 l0.05822492246311041,5.577750645692455 -0.5705860322890106,9.368878377507448 l-1.0973081808686818,7.889948539582108 -1.3840413324937335,6.158151058289161 l-1.439223625958903,4.392134069458864 -2.4618849152985014,4.0695689654837714 l-2.5532511449548054,2.487396062945665 m10.613931540563108,-28.50714960738419 l2.870101284892193,0.12498259072529037 16.177780404614147,-2.5232866446898385 l2.642209110156568,-0.21177625819421467 1.6811873967429005,0.20502498894704532 m-13.645335901558086,3.355042495215204 l0.13314676840366174,0.8056715909434476 -0.4192632498358941,1.1893882333739716 l-6.617354290250926,4.311716447448551 -5.413172000149647,2.4749951825753143 m10.981486698522007,-3.933106854079334 l2.486720448339346,2.6820441178200443 1.617468265762294,2.6063177720143704 l1.2074061574428891,2.70841690241345 0.9052313486368194,4.535338422516936 l0.025404232608387336,4.96654744866099 -1.8031222032086807,7.282561035635418 l-1.2767268944349923,1.187504084632815 -1.3705130078910346,-0.03421760760612603 l-1.3558407328566449,-0.8865037997612704 m0.3676897546158438,-21.0811650174742 l-0.05545151132849241,0.9061467900349788 -0.5248030949419902,0.9010036560139378 l-3.038333392388613,3.2255711794493034 -3.667439281014362,2.8526859707023777 l-4.94911124338611,3.062089558321275 m14.650420760500063,-5.1338229504671204 l-0.3363632309699524,1.1044473633841714 -0.5438626476782282,0.8922194060776945 l-4.132832406849351,7.656010883168968 -4.142181226702803,5.003814206846789 l-5.033722685624626,4.450536216022307 m24.82850312633324,-30.944688884202062 l-0.4854459016378716,1.488811321547099 -1.8700763360109574,2.655956485922757 l-2.5181781727828856,2.5856923067031947 -3.0023063906107117,2.2774115664121335 m-0.6292725541474159,0.8142478748015365 l12.314668054092706,14.046881756576957 3.906673766204914,3.1767892743966697 l2.5562911890198925,1.4848375175515223 " fill="none" stroke="black" stroke-width="1" /></svg>