<?xml version="1.0" encoding="utf-8" ?>
<svg baseProfile="full" height="102.91876444730487" version="1.1" width="102.11238621598763" xmlns="http://www.w3.org/2000/svg" xmlns:ev="http://www.w3.org/2001/xml-events" xmlns:xlink="http://www.w3.org/1999/xlink"><defs /><rect fill="white" height="102.91876444730487" width="102.11238621598763" x="0" y="0" /><path d="M25,25 m0.0,0.0 m12.29174000509235,4.358150311133483 l0.10611790884549627,0.4680515848635753 -0.11947003618898606,1.2348028283083219 l-1.2053076810702457,2.214754093703825 -5.913475327848598,8.193065662628015 l0.2588965512797344,0.7515761090311305 3.110556880309044,1.3770695919930493 l2.731028754769243,1.6770907379525974 m8.261257930889094,-10.827230676920067 l-0.1397514402170899,1.5197629525823133 -1.6527639865242,3.563959489721185 l-4.718254118930748,7.254924066051457 -6.781043276469063,8.218811690663866 l-0.44353535011337697,0.947633024183302 1.1354719109416544,0.6940762862705692 l12.751694414298434,-3.5480352532637 m-2.07030744411819,-3.6176640589467324 l1.2950454943385703,1.3630383125339065 1.3515281646979593,2.0093460643369574 l1.4679313148268829,3.361584899901705 m-8.65695381630364,0.8935845140238337 l0.4590822271793302,0.7695267012825849 0.18109648276088644,1.509864679711343 l-0.09033284809151047,18.531020835558348 m-6.206025169755574,-14.715493980855348 l0.06687044464435518,1.346797866038254 -0.38656949184113476,1.2767669287679368 l-1.984743585348605,4.332003503970713 -2.179746440831333,3.900397383978072 m16.172937339376002,-12.522056117949157 l1.7684179255978083,2.9273356473490963 1.5528751263100338,4.682575946728712 m4.3642537011812195,-27.500983464140866 l2.9869484860529854,0.21931487937794933 14.327127507745328,-2.240535467558926 l1.8120283587601844,-0.12187167110568568 1.4767261495078468,0.22698910420590004 m-11.090604850716351,2.791575666929551 l0.6145468900679985,1.043262372736248 0.20610437654150107,1.2771719004195325 l0.01469944207432689,24.477557720053404 m-14.557087624318822,1.8926313490039115 l2.100103613158537,0.3854857066310932 2.1012358195803738,-0.04394485984993049 l11.968457935469216,-1.9086953383655794 11.22849469690315,-0.8614387034548705 l2.1450828514755407,0.42167794142776144 " fill="none" stroke="black" stroke-width="1" /></svg>