<?xml version="1.0" encoding="utf-8" ?>
<svg baseProfile="full" height="98.68583591612055" version="1.1" width="123.70797511497283" xmlns="http://www.w3.org/2000/svg" xmlns:ev="http://www.w3.org/2001/xml-events" xmlns:xlink="http://www.w3.org/1999/xlink"><defs /><rect fill="white" height="98.68583591612055" width="123.70797511497283" x="0" y="0" /><path d="M26.937319445937767,25 m0.0,0.0 m18.913921221818466,4.806693200427583 l0.03104021719563741,0.5192665438926544 -0.36083235904861344,1.2081867952263576 l-1.5776665855757765,1.6648335877672853 -6.092202534263273,4.664289869646604 l-5.861359224290084,3.2756184343663275 -6.990220181774125,3.0580282379479655 m1.8457457188344943,-12.982688383656377 l5.946269367458881,1.7551787562458894 6.1234768808035875,2.743188396701375 l5.0524329218630575,3.094389564737247 3.680442393599789,3.534027004806633 m-1.561167194238854,10.260832204696312 l-0.18721042399240279,2.0286074049733704 -1.461068026180903,4.58260169310383 l-2.06590754445722,4.51362854197294 -2.728861546552973,4.388697892395781 l-6.151680568673585,3.799007205315602 -4.500692218963862,1.7714489655531587 m8.378098271054997,-19.482258167972233 l4.673421694005349,2.052063343252107 5.477210246889613,3.3873051329027613 m9.10650507944103,3.8943348830789892 l4.228814545406944,1.3109351399804563 2.8790070374904277,1.4929890764931804 m6.601280855558211,-19.110947296279296 l1.9984504510338446,1.4866573001746157 2.0661840168075694,1.9373542216821749 l1.7936294155735182,3.0917914697595443 m20.269646137077277,-8.421280175726746 l-0.07762684461110317,0.9964144009566236 -0.931189921245555,2.1945790034304506 l-5.721404955955918,6.7853950521719115 -4.120918110088566,3.461471549487535 m-18.238809449476314,1.3958403145962017 l0.9151127042470343,0.6714200143067446 0.5461760650774342,0.8970970496399678 l0.488513161287432,11.276971200631456 m0.45207307825740684,-11.744814738675156 l27.257294232272606,-1.9039922054465714 0.8962030238035751,0.25964520476532177 l0.7785246215660132,0.9319837327108064 -0.03471557440174085,1.1470531829111523 l-2.949429794750987,9.589679214005109 m-24.70767300430697,1.2253165728774496 l25.942717575769787,-0.8835985446367136 " fill="none" stroke="black" stroke-width="1" /></svg>