<?xml version="1.0" encoding="utf-8" ?>
<svg baseProfile="full" height="102.13560367082093" version="1.1" width="93.991343877424" xmlns="http://www.w3.org/2000/svg" xmlns:ev="http://www.w3.org/2001/xml-events" xmlns:xlink="http://www.w3.org/1999/xlink"><defs /><rect fill="white" height="102.13560367082093" width="93.991343877424" x="0" y="0" /><path d="M27.41263042702305,25 m0.0,0.0 m13.592659762863084,8.324037985313643 l0.03932338282102009,0.39312191840060534 -0.3048074236329353,0.8518832187930422 l-0.9741253489779848,1.199795923908752 -3.2687742177135184,3.201688354934894 l-3.7386930972883214,2.675666122889984 -4.473828231899866,2.2761671767039457 m0.5962042517240357,1.455498399926497 l1.140034957863332,0.9203580779885512 1.5913754976548316,1.7693836344606473 l1.5075094894948167,2.659793633200931 m1.6866376394374194,-9.65954568006444 l2.2015148234673636,2.182908264208648 1.1425646183725318,2.14446706894662 m4.038560376956304,-3.3166334623500324 l-0.1842800559714379,1.3503163865998506 -2.5971351543178867,2.855693117697516 l-2.567132724571511,2.413403979101174 -4.67768577419744,3.4211654447685236 l-5.6900824664305745,3.340932668126635 m9.690081328596285,-5.796184437930023 l0.9926847288669678,2.581710110211438 0.6763972657774265,2.363748271880884 l1.0122642275901699,9.215262729697455 -0.16438667169645543,3.878605254110968 l-0.4591075996106704,3.170367943987035 -0.7677949029002142,3.121204643840594 l-0.6093084820191146,1.6030309142173733 -0.6104348476797868,0.9646027774081674 l-0.6281041823237291,0.4893703181602888 -0.6034854210022248,0.08378291168076649 l-1.0760438881403505,-0.6358612617320544 -1.437827953541792,-1.9826880366726536 m3.29886663606082,-21.66240402593625 l-0.05699951493532439,0.8380527845409395 -3.0661979896076286,3.708520869720571 l-3.029669271636911,2.7785646080477955 -3.4450367608491086,2.3416231789131614 m11.49658534379034,-4.261824932193168 l0.04623345756050517,0.7894215578109333 -0.513320059701671,1.037538859431807 l-3.411693998689517,4.309196539143467 -4.160130619875092,3.8872686569372 l-4.646041556709239,3.303525684155243 m26.252737941860097,-36.618962016833976 l-0.2657399034767036,1.2669748972048402 -1.1669731739032885,1.7566244823682056 l-1.7224085054562595,3.380000114976802 -1.7690252671635247,3.0184548614173217 l-3.1131707016521437,4.329306750327224 m6.144096335497598,-7.066192352831005 l0.9359916811403535,0.26070857140210946 1.7102015724795485,-0.06073499237510022 l15.448399278071468,-2.1534077539487853 1.0669277648596132,0.36430346744363046 l0.32109967148778534,0.3581254621753918 0.1492071836794553,1.0737135810130285 l-0.28831316941672674,10.776232381504109 -0.6463183619986769,6.997780315156475 l-1.145357651924468,6.900695509594988 -1.2806484043190387,4.971926431479516 l-0.9673154643479701,3.1381214152382895 -0.8335247601128848,1.3447527477677916 l-0.4346999374540403,-0.22431349626811264 -1.596131844747829,-2.1200044175221793 m-12.639158240825092,-21.81529321473987 l0.32121885663436683,1.3566212312947448 0.9442200029787975,8.832648494079788 m-0.5692294267358883,-9.235361441198897 l9.973845457537607,-1.5274366663200936 0.8636420379701315,0.12988606402030045 l0.36335588353276105,0.36869176918620045 0.138377824353848,0.9877564223851454 l-1.4884351251107892,7.2292508951100105 m-8.908549678208292,1.372359375433561 l9.669754190045019,-1.1379892578700344 m-23.962382733668417,-12.863264072443416 l0.5554878059585563,0.8002187246583216 0.24637256611451527,1.033918991141174 l-0.1922663010695728,18.314453678229107 0.24047391086494083,1.309732251888186 l0.5849485485454782,0.47096873333044964 18.603639694060817,0.13162829380773255 l5.133049448288336,0.16572662661964588 " fill="none" stroke="black" stroke-width="1" /></svg>