<?xml version="1.0" encoding="utf-8" ?>
<svg baseProfile="full" height="105.58091416026429" version="1.1" width="101.15586397067015" xmlns="http://www.w3.org/2000/svg" xmlns:ev="http://www.w3.org/2001/xml-events" xmlns:xlink="http://www.w3.org/1999/xlink"><defs /><rect fill="white" height="105.58091416026429" width="101.15586397067015" x="0" y="0" /><path d="M25,25 m0.0,0.0 m12.269806290346835,13.351581253070709 l0.40877523285944006,0.14678354371926386 2.7542955652019674,0.03499674735465504 l8.69509522000864,-2.4783220648185154 0.9032060482239344,0.006890063954032447 l0.4296311378434545,0.42175808613950766 0.09730481296484104,0.7139559182309737 l-0.3673027442373357,0.9496491356084192 -6.459111798469432,8.747360743339044 m-0.717410688135698,0.4292552695131202 l1.4333771519924792,2.875157438950843 1.0401058797691698,2.827011029673253 l1.220958923592172,5.444234016812298 0.3204374965742922,6.112061851462448 l-0.4699427588054853,6.1763451226713855 -0.7971225646215053,5.353462586633625 l-0.8374884068320019,2.9653449471419644 -0.5267834901921862,1.002968670514049 l-1.1863363412523515,0.5004198002932148 -1.0792008516696443,-0.6776785605693959 l-1.5031998502705615,-1.8239018308254662 m-4.752717726485092,-15.497484912668206 l1.0370099044181982,0.28429094255371096 1.0785084464726002,-0.5743963283294495 l12.421601092375642,-6.320905642472272 m12.738254255634853,-21.025668723997065 l-0.18395718277361822,1.7191596635345647 -0.8170554825080576,2.8606288977742653 l-1.285578260717184,3.5003305005160503 -1.5105119891860574,3.1814485583904855 l-3.505612873731832,5.2877672792475545 -3.9293242701709623,4.730248360996312 m9.1720050045314,-16.780500381454548 l4.99793215462506,5.990534221622978 6.84566005375113,7.737136627516548 l1.4898728381139663,1.512834295190966 1.7306837414290834,0.7926259988771613 m-20.733515655682737,-3.879120299179342 l1.4528601902345568,0.08421701674521548 7.205266588246065,-0.0609523658808973 l2.1385911569536664,0.06252792490973309 m-13.40449876301933,6.826697280237086 l2.472163011513897,0.6325134400812471 1.4228905648631565,-0.05363948925054545 l10.337453660145743,-2.0963547297908267 1.00909664612545,0.22863591359704852 l0.32281696196803855,0.4467883963736993 0.044190164663583366,0.6802117212457528 l-0.29111235598391794,0.9091288671007689 -2.529779095245898,7.8703674547033105 l-1.6688042193346346,3.6421497059013856 -0.7657875740433242,0.9541911480508484 l-0.9542757538946325,0.0558139275581093 -1.177628504540473,-1.0803254177516488 m-4.872680931389077,-12.249652673463686 l0.6730855194137186,0.8215997622934779 0.3500947458489668,1.0528735591982268 l-0.1037287492229046,20.105381815998484 " fill="none" stroke="black" stroke-width="1" /></svg>