<?xml version="1.0" encoding="utf-8" ?>
<svg baseProfile="full" height="110.94076904400205" version="1.1" width="100.24560286912282" xmlns="http://www.w3.org/2000/svg" xmlns:ev="http://www.w3.org/2001/xml-events" xmlns:xlink="http://www.w3.org/1999/xlink"><defs /><rect fill="white" height="110.94076904400205" width="100.24560286912282" x="0" y="0" /><path d="M25.476118331271635,25 m0.0,0.0 m10.34582171218192,3.2840723395534632 l0.35016773357019515,0.41346633815416456 0.4642822236860259,1.7819795651771888 l0.002257899243779495,7.54762436863803 m-10.192855792257594,1.2578187095579163 l2.8080087990250178,0.11991113460106793 13.209265722836705,-1.8075025575507722 l2.9945524915603574,-0.14253367054414087 m-15.400247843710956,6.954637840783745 l1.7604292251399714,3.508877088107937 1.0301392379733625,4.128387318489221 m9.420271588071246,-11.610951685179813 l0.2994119705318472,1.1001335683599922 -0.2762098883512923,1.4024144093290274 l-3.4096282542199035,8.377833988818146 m-13.881785156552317,3.4347312754642854 l2.2572081121299736,0.23388626082301425 15.63443552905996,-2.403759587431992 l2.8091170742600706,-0.13436678318042802 1.7997870339101443,0.22059012688953036 m-20.69523348140781,15.089496311317939 l0.5645365821910244,0.579954223600417 0.9673135395983227,0.1953969089589068 l17.746152980014312,-6.901905239961461 m-9.690305271397431,-5.494483864003287 l1.0147584281192963,1.7330407052048187 0.05079417008123481,3.811664528827179 l-0.6030536967797376,5.574355086978794 -1.1704658480602368,5.053511995064676 l-1.6006551342912434,4.0241792545619965 -1.6635576008862023,3.1419450108706775 l-2.176502616932916,3.318124202230789 -2.6839723473366455,3.1482398714910174 m22.149954623682863,-48.54999947177068 l3.4998804989246435,0.21710068262489407 18.231786876014795,-2.155286334809548 l3.803623418228406,0.20559457043505341 m-25.366572858423684,3.5656724767583716 l0.48076863434277733,1.105676482445301 0.1817892722601958,1.3104014334030614 l-1.3125536918937868,7.832949462337641 -1.776157681494757,6.355804592231604 l-2.955986119414534,8.00226424804154 -4.017087429817143,7.3748904349352795 m8.729398047790092,-26.415022518498176 l2.8759085962829056,0.1290386355174097 12.585888222260602,-1.9948908503571416 l1.5570573459844284,1.111633697699378 0.03826461180733657,1.6902062644635931 l-1.993568612348241,13.181126319966316 -1.6045259059236834,3.0645741001691498 l-0.7283268558518864,0.751243205790112 -0.6817198031432975,0.2627401607925679 l-1.3025111280235648,-0.2813582960943371 -1.3701326626591397,-1.3068231925564893 m-12.07377797538531,-16.312258530252876 l0.5064309046001,0.9684673233196004 0.24353049512727645,1.3170985771333434 l-0.0069087288806272745,27.858511066085708 0.4689439831383777,3.409380593873037 l0.930098530892365,1.6634634023621448 1.917789171630066,1.071630418973466 l3.314400641591737,0.532701867087641 7.6699348992392595,0.01369785099206781 l3.862191820360935,-0.6176237906129624 1.5966668450070935,-0.9602593116303807 l0.8858577847740599,-1.5170924402928392 0.3887510625327377,-2.5608204661735257 l0.08296801138580356,-3.3699931310020452 " fill="none" stroke="black" stroke-width="1" /></svg>