<?xml version="1.0" encoding="utf-8" ?>
<svg baseProfile="full" height="107.86888628171127" version="1.1" width="109.49778011136911" xmlns="http://www.w3.org/2000/svg" xmlns:ev="http://www.w3.org/2001/xml-events" xmlns:xlink="http://www.w3.org/1999/xlink"><defs /><rect fill="white" height="107.86888628171127" width="109.49778011136911" x="0" y="0" /><path d="M25,25 m0.0,0.0 m13.37891442875486,5.212889085840822 l0.07064389232164416,0.5896189100576856 -0.15068273035899582,1.2511999834485916 l-1.2252271318633867,2.693167218564597 -5.743977301747953,8.426004789617176 l-0.3070465524117934,1.0904046462129875 0.5229054586840546,0.4828967789314617 l3.123597841151604,1.1060585350205219 2.234196094314416,1.2917482575296853 m8.423150337808465,-10.608093421762092 l-0.18340332983718857,1.4369958096071627 -2.005492893369313,2.446816944339349 l-6.124965680860087,7.5433152452055126 -6.525655357675165,7.062545636877695 l0.22442071387666768,0.8782979628806649 0.71648735330584,0.09421065822993988 l13.450503227010419,-3.3511519425864753 m-1.8215991674597287,-3.812457662746994 l1.3511320266048106,1.4125817766711317 1.4599208490425037,2.049761921241943 l1.6159342427327712,3.400536734265407 m-9.296964634688205,0.6200259502486247 l0.5206667343773483,0.7546136519739955 0.20242752932715347,1.083078177562314 l-0.11293041212973436,18.97680044597026 m-5.799445944103907,-15.255282257161603 l-0.002506514213140813,1.2666184889331493 -0.7023808903516872,1.7790529764462737 l-2.1609414425510645,4.2743384868975935 -2.0447370162739387,3.424125451004295 m15.951940828859593,-11.446308129833726 l1.7883078403336035,2.783211639873771 1.7088154530786541,4.873663681302946 m3.6543629337066434,-29.554697776176432 l1.344976434839799,0.19252300553616145 1.9739058319473746,-0.16650232050064834 l19.250829424196333,-2.762588395361475 1.272223649933493,-0.027936974094325395 l0.7500497505236126,0.24167818377503747 0.7269036996834366,0.8715475384066909 l0.17384303187805408,1.1944415982383576 -1.2866729851647276,14.806336915830212 l-1.031553300932067,11.084980830151443 -1.5484647209878721,5.490828010156578 l-1.3443961295746414,2.383249716442176 -1.2147102749376164,0.7754491904563372 l-1.1124812892263103,-0.2748155538599739 -1.9350141551788684,-1.7492254041357325 m-2.1228403186938394,-32.9922604803368 l0.14235636215484546,2.5137015605508695 -1.1745955780395383,5.903345934878665 l-1.692674714363096,5.406154209136776 -1.7098307613959873,8.857678310959717 l-1.5160618726897004,6.420521489227147 -1.6759843414798852,5.372874739038647 l-2.093700629040434,5.064519098511161 -2.0435620551066433,4.9857964242160255 m3.1816180940755165,-29.639767276541395 l1.3425070435755584,0.26974715664158505 1.3551798610221932,0.030215421488181755 l13.074943086692219,-2.8521551064900295 2.0881848169980697,0.22195026974814064 l0.3632917774650677,1.0556755098715827 -1.5076851332632335,10.278669342333588 l-0.4376659518253349,2.9336998012561226 -0.2850803064695911,2.7538639054615897 l0.029458688698791004,3.5073887694775108 1.2020835593587964,3.4271594521259585 l1.480264463598147,1.8409236364431154 2.1821701226068537,1.0301984109954727 l3.1948201604166857,0.13127591673800157 2.7424766953711286,-0.40615304170599253 l1.0529696699305846,-1.983903360798302 0.11532761937617088,-2.2834615503177096 m-23.704912926544583,-17.42671260074708 l2.20038615138719,1.4094546673328159 2.0954391780391277,2.3140533159979726 l1.739358225962801,2.3111550317833855 0.9118827453565822,1.801197235576396 " fill="none" stroke="black" stroke-width="1" /></svg>