<?xml version="1.0" encoding="utf-8" ?>
<svg baseProfile="full" height="96.19650665163698" version="1.1" width="113.43056499898613" xmlns="http://www.w3.org/2000/svg" xmlns:ev="http://www.w3.org/2001/xml-events" xmlns:xlink="http://www.w3.org/1999/xlink"><defs /><rect fill="white" height="96.19650665163698" width="113.43056499898613" x="0" y="0" /><path d="M25,25 m0.0,0.0 m18.899476987918117,4.373410526145006 l0.05232225435342864,0.47102260337163093 -0.16660835865073123,1.5563260705446338 l-1.2049188319219484,2.354981816506426 -2.1615824695840824,3.110185901144205 l-3.9180357402983277,4.262891370234962 -0.333575862257288,0.8831052370077894 l0.24305690564024965,0.735355566749433 4.143795096212499,1.3621004047567142 l2.4486855790570297,1.324084888105167 m8.179264370922532,-10.607413902691864 l0.023210636145895917,1.6109871913712386 -2.429149389461888,2.5372931766067186 l-5.865401556977387,5.888072262661401 -7.330826112949343,6.435220413345886 l-0.4880784975127806,0.7380340170516556 0.40747904823059317,0.5023536961361856 l0.7848309475291559,0.10571158204335887 15.927242931001327,-3.5938858879338085 m-2.7474422805846355,-3.5724758313222424 l1.4791919785365475,1.1701597137262616 1.671197873312155,1.830024347406644 l1.3474692925852307,1.9661493572193625 0.7130653224802342,1.5243783687294836 m-10.153933767274893,0.7650055553444324 l0.5761869425661524,0.7169033117041488 0.2984394456681354,1.3940892347643787 l-0.123368793729485,16.352435660907787 m-6.522577124206772,-13.522073687952899 l0.06440206304012637,1.4274772498385686 -0.8340690412289549,1.681908491565301 l-2.656271871365532,3.862643006266345 -3.17219879674501,3.731299811540182 m18.84652167451536,-11.623924783408599 l1.3332159496721268,1.0922576522094636 1.5211764916527575,1.3668384899805763 l1.6979387282471226,1.8039529800593237 1.3067577497958196,1.7900675846936105 m15.177446190736884,-34.20237041506741 l1.1925701962610502,0.985625724961476 0.330734616461311,0.9522790888019586 l-0.13633057924726344,5.688453012314266 m-14.156511965983714,-0.0027940578026572523 l-0.9029502398094164,0.8982673873793876 -1.7401356277078228,2.0314268507068887 l-2.4497212156960506,1.9698008783924015 m23.46396220274026,0.661290226454398 l2.6366815784465025,0.7119855812415422 2.106143708674583,1.0415113238801206 l1.7690430092352787,1.2479996446554547 m-11.799409252060835,3.1742088401769957 l0.1225141847260019,0.9441277985457303 -0.29211354573827,0.9079177739924182 l-1.9434855131011133,7.254760734312347 -2.917945271283823,3.8218187281141205 l-2.717529304490599,2.403013302447016 -3.371048085837299,2.2562489800778365 l-3.861225089424439,1.8710003655160559 -4.21900945758632,1.4952473280170098 m6.566209613955234,-20.511098414754816 l1.651684257372768,0.7835157255518876 2.737782101886077,1.8580152842921704 l14.632201906022125,11.659763735643581 5.094793410227579,3.448395591629317 l2.220683259483029,1.0572952217548781 2.378640136390867,0.3169966998815322 " fill="none" stroke="black" stroke-width="1" /></svg>