<?xml version="1.0" encoding="utf-8" ?>
<svg baseProfile="full" height="99.16678204093787" version="1.1" width="103.83238843932469" xmlns="http://www.w3.org/2000/svg" xmlns:ev="http://www.w3.org/2001/xml-events" xmlns:xlink="http://www.w3.org/1999/xlink"><defs /><rect fill="white" height="99.16678204093787" width="103.83238843932469" x="0" y="0" /><path d="M25,25 m0.0,0.0 m14.51891605234108,3.4119039334882633 l0.022544093871837027,0.42976401844638096 -0.13235284922049564,0.9825277500934873 l-0.8821958397982427,1.636281492703262 -3.74001813654409,5.093357761111835 l-3.9825941602805695,4.431604642081129 -4.435668141064871,3.461757787095559 m14.225703680892405,-12.330166311240701 l2.1659169781298004,0.9907315358283559 2.430555982664194,1.668059440266705 l1.9541237943329837,1.7222043359622525 1.205430307831632,1.5993101820273694 m-10.571561921939594,1.803056871043668 l2.1898648677352193,1.618709180798955 1.4195831875573894,1.9355824883502526 m-8.257323245042974,3.7900740184308237 l11.727158938845953,-1.7143546876733367 0.846743721551624,0.03254531984006388 l0.5500066899044258,0.3070521526062201 0.2731304745333345,1.084876324029548 l-1.852241796383914,12.219694966011687 m-11.682600320743799,-5.892336609342223 l7.651236019408479,-0.9030944217805406 m-7.7401188777086825,6.838922382161693 l11.415978452325989,-1.4987021881907192 m-12.477706729870594,-11.340485577059845 l0.6385086733863944,0.7641117516259066 0.3366813501950766,1.822306934868393 l0.08386091329973873,21.824392211554883 -0.12781155234097513,2.4494212914698297 l12.639541290443699,-7.09848826662336 m-2.531599944314747,-3.3445744633707166 l2.7654794828296714,3.5984165341249885 1.885357927189485,3.7574008409541992 m6.194653091971292,-36.839369387289146 l0.7998490887842141,1.0844526152959333 0.35587179172067673,1.6444850701883658 l0.844367730758156,5.812178387801528 1.5145564306191401,7.258389276116846 m-2.241729291854799,-14.833594588942983 l21.14623988259803,-1.8070610771683107 1.3495630595932424,0.022751358176565956 l0.6493513543238146,0.22554534373577925 0.6136543880501225,0.86238354963481 l0.07348154874394147,1.1788833636204334 -2.3331729161118067,12.774005088852029 m-11.00733919232146,-13.169327104053762 l0.4852034395521458,1.2950354368325405 0.09913792040593049,11.800328230428482 m-10.302524989337218,-6.190150521033171 l16.438253059041987,-1.3587225400248117 m-15.247470562989186,8.602410129993586 l19.473447737674206,-1.497950881722589 m-22.280543159169753,8.262252232395193 l3.1609700351576997,0.15948345143832526 17.626542275057805,-1.627326160692213 l1.4810340309590198,0.07908067681771919 1.0475682556989452,0.25110971112779434 l0.5903477242950744,0.825201790696287 0.0132597797391511,1.1963115697118385 l-1.262805720333351,6.553743673220875 -1.6582560575870087,5.325954009500203 l-1.8633704065219796,3.9770853333149345 -1.2652558539749492,1.610797339322797 l-0.6849906031286209,0.4402333214027653 -0.6332611355276698,0.09631972054498242 l-1.2026422566450632,-0.5492380835133067 -1.2947246925466411,-1.3238684012763213 m-1.2215284334649905,-22.520175971964555 l-0.17657407757851207,2.247744402524278 -1.2188389185541049,3.3692987215043106 l-1.6737909385342267,3.4367900416450206 -2.307516171036539,3.646590155064983 l-2.320375093038457,2.942555976950159 -2.7995741728627115,2.881443407456974 l-3.3166586277813375,2.72130108082952 -2.849074349938959,1.850277239549731 " fill="none" stroke="black" stroke-width="1" /></svg>