<?xml version="1.0" encoding="utf-8" ?>
<svg baseProfile="full" height="106.05650024745145" version="1.1" width="114.86696023784486" xmlns="http://www.w3.org/2000/svg" xmlns:ev="http://www.w3.org/2001/xml-events" xmlns:xlink="http://www.w3.org/1999/xlink"><defs /><rect fill="white" height="106.05650024745145" width="114.86696023784486" x="0" y="0" /><path d="M25,25 m0.0,0.0 m18.20256572914678,7.521098903070493 l0.10263232151146338,0.5786357323519605 -0.07236145143256914,1.5714972239817184 l-1.3838690767459234,2.8567858110588205 -2.429039079662303,3.849711053028493 l-3.723296251699654,4.933999617450929 0.27710602443191895,1.0298076950680872 l4.051073150576143,1.643562270063086 2.626531260017904,1.4337844026337487 m7.71341452220249,-10.950662818983751 l0.03530385743090448,1.7649324956687091 -2.633306075186764,3.5948076815387964 l-5.614931984745855,6.270126800135311 -7.136232005056813,7.605875659925235 l0.48176523664004367,0.9968676884758787 0.9169268614184473,-0.016527669263955574 l14.429040171466909,-3.552589864363027 m-2.2387363889667924,-4.310056177613164 l1.3036000548850393,1.5638011581856548 1.3775464359106022,2.288900487866875 l1.4601424776111407,3.714619776502309 m-8.752152366566852,-0.03877885970666089 l0.5792981646316161,1.5235070491374292 0.11206887171967755,1.3590264774939511 l-0.1336485843663824,18.823767653744518 m-6.684881318063394,-15.362588368110261 l0.01415692964623223,1.5519491428127612 -0.5219461258762446,1.2866107362055113 l-2.5994131316289395,4.738152043148609 -2.5802861831591586,4.015690309388134 m18.061984153859225,-12.609664488380485 l1.6667072244233054,3.465656374267653 1.491016333435203,5.505845806388059 m5.653027593980909,-34.32686861180443 l1.5004343903527124,0.1961039991546193 1.9772686698667654,-0.24979643947106703 l16.772110974075858,-2.5080154896203815 1.224618535675197,0.0915127131164585 l0.5774945123032194,0.3553602146675676 0.3242675627240413,0.4994545895504583 l0.005401445438930645,1.337455303951838 -2.4027807090566617,6.929786263143042 l-2.1054882670889863,4.2457740923769585 -2.6617631472931382,4.344254025127883 l-3.1024499402187478,4.07091865327991 -3.605676528521181,3.9194713925916385 l-4.218692660806039,3.613898200316914 -4.473558095599839,2.930553841290598 m7.77020780195497,-26.29378640654839 l1.1364438509053114,1.0530448034936142 1.80850691304729,2.006600452160258 l13.916521624848718,17.534796141722282 4.082030839662021,3.8140360970891645 l2.290255113786121,1.496186604348098 " fill="none" stroke="black" stroke-width="1" /></svg>