<?xml version="1.0" encoding="utf-8" ?>
<svg baseProfile="full" height="102.7734182769724" version="1.1" width="91.4061709948627" xmlns="http://www.w3.org/2000/svg" xmlns:ev="http://www.w3.org/2001/xml-events" xmlns:xlink="http://www.w3.org/1999/xlink"><defs /><rect fill="white" height="102.7734182769724" width="91.4061709948627" x="0" y="0" /><path d="M25,25 m0.0,0.0 m16.566217495735685,11.989972461578885 l0.4633529892762858,0.12921387020637062 2.6101653243711165,0.08234437831138444 l16.536240515312535,-1.9792777369106256 3.1422532222882693,0.0909011451718858 l2.0879414478788143,0.3549884889853877 m-14.164315766348103,-5.885970394010054 l0.7922006574528013,0.8829198296451011 0.20480712529719466,1.1995020152006337 l-0.08944866994849626,11.417065095806395 m-20.970468583860036,1.260370250917891 l-0.5822727657674726,0.2789844764523432 -1.3186146037442514,1.8133798199128572 l-2.6521645905269957,3.2303797342751017 m6.747059696419974,-5.270057113098346 l2.372824424988579,2.2940485137446576 2.521980565574594,2.299814223744664 l1.9500032916826622,1.820557976744153 1.5021483126846098,1.190584283399379 l1.9020451241893412,1.0273108016551857 2.2511314811097947,0.7187980454606288 l2.687926601765586,0.3596652654614152 7.945371491808098,0.00594951167923292 l1.4500065171469547,-0.21252488301774264 1.3317178915847427,-0.24869816369230363 l0.6836391712827253,-0.2938188587781154 0.312973393871513,-0.3548146259829913 l-0.37766050413110525,-0.9447528052662538 -2.1117903984103457,-1.3964243781979184 m-13.896713503950968,-5.352851269792974 l0.7528506304462232,1.274617331481015 1.2313574161505434,1.0045227648692951 l0.9319330056560873,0.04177431546926865 0.37496253940508517,-1.1087504687254273 m11.05318716839518,-1.6678801756426715 l2.17639996455537,2.1545711402259924 1.447618092846007,2.2438548635088287 m-24.94509675489388,9.904696249994073 l-0.19164857561033638,1.1887782862107499 -0.6127668708790022,1.4491409382136948 l-2.1323108793635805,3.3566907720079135 -2.5617397364952486,2.9055871031372953 l-2.8418050612768955,2.423542118678698 m9.009261926313377,-8.352953877029915 l2.472171228932319,-0.2129590165328334 12.125138088092283,-1.599720981041914 l0.9624505526407253,0.18805067186200133 0.4412259279103964,0.35677942949366814 l0.17125340923704624,0.9912663054729304 -0.5189331196795093,1.691004065681695 l-1.7415584777308684,3.213066568040681 -1.780104930409732,2.174581672105504 l-1.9565000689987477,1.9292692083695366 -2.605903676555487,1.781317798040195 l-2.7880780793843885,1.466825699623338 -3.0679548992083654,1.3115562206649571 l-3.383784343972153,1.1655948209143212 -3.8782178796540583,0.991034492273269 m8.156106400636835,-12.347760017516704 l3.967802687845229,1.1726839878081667 14.8509794410625,7.028004417948775 l3.569032959201112,1.2733010486796548 2.5035193387464405,0.8226329064327607 " fill="none" stroke="black" stroke-width="1" /></svg>