<?xml version="1.0" encoding="utf-8" ?>
<svg baseProfile="full" height="114.71086914929035" version="1.1" width="115.02508010956988" xmlns="http://www.w3.org/2000/svg" xmlns:ev="http://www.w3.org/2001/xml-events" xmlns:xlink="http://www.w3.org/1999/xlink"><defs /><rect fill="white" height="114.71086914929035" width="115.02508010956988" x="0" y="0" /><path d="M25,25 m0.0,0.0 m11.849058556140223,3.3921684673701757 l0.12547696678984677,0.6024726492072823 -0.12176048593473272,1.5499502192693937 l-1.6208515591775885,3.857009134131163 -5.2507309632736,5.059265424541422 l-0.6016792289102546,0.7870001867911688 0.12515220215801132,0.7892349265731137 l0.5104560600153192,1.780185804017151 3.9985900469305973,1.7838511769498535 l2.97398260283929,1.7428244315558072 m8.425195504836221,-11.555447884734502 l-0.14918620520069947,1.9657493972064295 -2.8749699931021975,4.502595333896965 l-6.21682209959696,7.953442177091305 -6.907403065847291,7.418782535159297 l-0.4843502387717193,1.4713908671712934 0.7427685569892998,0.48002636824024836 l1.0187487751726325,-0.12301888356163367 15.350150899605763,-4.561820666424665 m-2.794098409451403,-4.227503948135626 l1.3979267417911585,1.3563739723546822 1.7365195584767614,2.291917038965355 l1.8131797693089153,3.59919669213723 m-10.55891561853188,1.360137650299947 l0.690748362125638,1.0472556159930924 0.2518958462675285,1.2705738169716831 l-0.1266686276770989,21.574812594398256 m-7.192804803688784,-17.651385180723658 l0.10668189033791424,1.4717733542555629 -0.49092609170324525,1.5761518746209653 l-2.408376713437167,5.076267056724535 -2.330605135210544,4.21591013704298 m19.03965214771653,-13.135370671994467 l1.8411618775745,3.227010694109654 1.7928406846071012,5.499647193692135 m5.881685999703501,-42.814912360323525 l1.6071718630727039,1.057012555351582 1.971992551776588,1.993804607631793 l1.5338324910244974,2.170201409785649 0.7723291096015344,1.6400323844679148 m13.491602859370987,-8.807297591917402 l-0.1973589368203366,1.428248271649251 -1.447030717033877,2.909892228697011 l-1.9441653124689613,2.7611251771905567 -2.209958510784647,2.5913977157025783 m-15.610240035452467,3.396440429562289 l3.3829993687902418,0.06372102743250403 18.289122859210558,-1.9976842162131707 l4.537174664415379,0.07051530618243218 m-24.667385889643338,9.850230136476897 l2.4252942227181813,0.17849064583018215 18.76841129523198,-1.8123800442393605 l3.9234258109991806,0.08014625334706339 m-28.013714066927918,10.044599679883675 l3.7893944917145865,0.1381849350225129 24.391689577682182,-1.9118302470547637 l4.126698011677739,-0.05522698384830868 2.1721713286069986,0.2644419060300369 m-19.560957529879044,-14.567953661801118 l0.7005468490746622,0.8413755292232337 0.2822979442691993,1.1221559022052618 l0.0730067950011273,5.010506464571753 m-2.4286829575999533,2.786985941946688 l-0.1820607428205217,1.8727083042711894 -1.2197516715980647,3.2417937668664223 l-2.054711149927629,3.8334776152437913 -2.4973135287855994,3.69410383323746 l-5.296352554469769,5.959015288290226 -6.216452502661164,5.082713246313457 m22.389812469800727,-21.05902060394791 l13.09603480106535,11.809870060735623 4.8101733174081405,3.1598693868822463 l2.4943097240590117,1.0533749842795899 m-24.52676034388354,-9.631898710130207 l2.5701139837546765,1.6855404272444496 1.6806178382051258,1.8962520176070237 m-8.595985180331276,4.584266188777397 l2.6303633130424964,1.9230106635865467 1.7836167035299006,2.1370461238456073 l1.3563879855209833,2.084424544193798 0.5873218085106505,1.919152207177232 m-9.404152366479567,5.1934400723194445 l2.5928635000452007,1.9615280439648433 1.9334793236406926,2.1286373747087386 l1.6762434525414196,2.196157097084117 1.1204183861185428,2.1047542587824464 " fill="none" stroke="black" stroke-width="1" /></svg>