<?xml version="1.0" encoding="utf-8" ?>
<svg baseProfile="full" height="108.88610760377487" version="1.1" width="115.7813527418417" xmlns="http://www.w3.org/2000/svg" xmlns:ev="http://www.w3.org/2001/xml-events" xmlns:xlink="http://www.w3.org/1999/xlink"><defs /><rect fill="white" height="108.88610760377487" width="115.7813527418417" x="0" y="0" /><path d="M25,25 m0.0,0.0 m12.76905447872061,3.8288321093195465 l0.4846722076141336,0.3501604457587182 2.881804877058658,2.9028680017510875 l1.4937374000063763,2.83979009843757 m-12.153442460883943,7.935932051388941 l3.5110027287984416,0.34284112546826107 13.9096535144987,-2.336203309452558 l2.3847206348188092,0.05213262449159973 m-15.782101909741598,10.838539396251793 l2.890498114522342,0.011062741554650353 7.222080513477412,-1.3314199678187055 l3.2835169965505897,-0.007775762714995905 m-13.211745677706629,10.112328571144824 l3.191505974285985,0.025254805691084434 8.375464032064524,-1.3750116088698545 l1.877535759947894,-5.04093386362813e-05 m-14.171876215301728,10.4687309250412 l0.632382102460656,0.7878765012548753 0.28774742265324726,0.9876450341485844 l2.0649148324940216,12.45257423026688 m-1.5850143216779957,-13.070523436918473 l11.475377760619631,-2.2319393618640526 0.7952803767988399,-0.020443804532421717 l1.071948510853455,0.35197382002048533 0.461521341308761,1.219365244236509 l-2.138864993030902,9.455741418289657 m-10.00658724914314,2.1970366045431358 l10.931086623235661,-1.5464773988074603 m15.6174210626767,-51.87272683512763 l-0.057445063322279465,2.7493874827960068 -3.798821229959958,8.827802259467608 l-3.9046773983460947,6.776956294877233 -4.324549545641248,5.818841231699605 m7.464648947108295,-7.452423389631608 l0.6780340166359023,0.8778002337687519 0.35712548025057594,0.27273611697725936 l0.4174945787785053,20.205820259076816 m4.4081941239072995,-31.533917944547436 l3.1851696955970485,0.19183904789089157 12.992350533060065,-2.0923194073431173 l4.031422070352901,-0.3429183292158617 m-20.830052695673594,18.18824384548555 l3.2695852272306327,0.0543041208677942 14.285878354903737,-2.570160226252043 l3.511140185726682,0.10247191132662781 m-24.958160971137104,17.88859102307362 l3.021293969534056,0.1961151616376293 22.167728758082184,-2.7559397736395197 l3.266587472523295,0.24713924659802017 2.035111794251275,0.5279987800717502 m-17.078085041641803,-39.176373686130596 l0.6352552964691023,1.3761945954795007 0.35996751230557433,1.851719320780767 l-0.056768605186184685,41.412746995327865 " fill="none" stroke="black" stroke-width="1" /></svg>