<?xml version="1.0" encoding="utf-8" ?>
<svg baseProfile="full" height="95.27492269081584" version="1.1" width="107.56928203944422" xmlns="http://www.w3.org/2000/svg" xmlns:ev="http://www.w3.org/2001/xml-events" xmlns:xlink="http://www.w3.org/1999/xlink"><defs /><rect fill="white" height="95.27492269081584" width="107.56928203944422" x="0" y="0" /><path d="M25,25 m0.0,0.0 m13.000281366114766,4.084779421144615 l0.03660816546158928,0.42768535627081633 -0.11580920651689582,1.299418386042371 l-1.0201391505582156,2.106736569861129 -6.572319278200133,8.043585642978341 l-0.11913655126926478,0.7583931082086409 0.3455413888011233,0.36616119129026214 l4.280689047314782,1.1179947975715216 2.389023088557752,1.1908443497560026 m8.762207688177684,-10.012286252794285 l0.05350076797902456,1.4139125391708576 -1.7554154192312845,2.2709176034740444 l-5.34096141309867,6.345941726507217 -7.521790942911298,7.267700767645124 l-0.451931552380302,0.7288730231109322 0.35112267418078225,0.5035368577883301 l0.6967752264790501,0.12404091110628271 14.528138538367813,-3.5476987326349883 m-2.5405088242833784,-3.4925636870865526 l1.3605996015481765,1.154559639912857 1.4949657731277644,1.774883437069822 l1.655041386743368,2.9733083981224193 m-9.156471867366202,0.7370047937631942 l0.5375729346478716,0.7445467763721836 0.21306306725260893,1.4962082901478984 l-0.131700023233174,15.215617695027968 m-5.771649044116614,-12.761147878889515 l0.020421692138859804,1.2355292308198043 -0.5024152930417094,1.101185725016597 l-2.430079935233165,3.888660832987969 -2.596680882137865,3.5285680598637685 m16.62633979650547,-11.039567267969469 l1.7272255638948326,1.1063502283474718 1.638731004302867,1.6595537151451707 l1.866739469891134,4.451742132017616 m2.7368818235041292,-25.774794383200117 l3.8602682973459594,0.11693473752626571 8.829568840052747,-1.037389829855902 l9.11081578190165,0.3383373138556087 0.6634917273824834,0.3369474897690968 l0.23277335651221123,1.0022905891908869 -2.044712348154058,9.800128893273888 m-23.353120852755964,0.6706249093674815 l3.4041010290610463,0.2555429206735461 20.017091993880427,-1.5695697849486445 l5.361833077652337,-0.1183888675067648 3.192710455152102,0.2352604732201794 m-23.033230271727103,-18.595590255268405 l0.8018140124423525,0.9912013502304445 0.24171165614586035,0.9633992610425568 l0.023663168148153797,5.714370163944699 -0.3866712896343867,5.8889058764838085 l-1.152884524165288,6.777612950219011 -1.6556371199627622,5.431412346509706 l-2.382419296631929,4.857219056694916 -3.061444484695326,4.068661167426635 l-4.024117894789505,3.684474852823568 -4.40279480769294,2.972354072176964 m17.357370755016767,-20.240114927532964 l5.687548608064994,6.510256592249417 5.774742369864579,5.669832380493056 l4.453098912244126,3.682325586804114 3.1954234070689624,1.9093143814614857 l1.169683338713458,0.31761263476011714 " fill="none" stroke="black" stroke-width="1" /></svg>