<?xml version="1.0" encoding="utf-8" ?>
<svg baseProfile="full" height="106.58806609982267" version="1.1" width="97.582937239439" xmlns="http://www.w3.org/2000/svg" xmlns:ev="http://www.w3.org/2001/xml-events" xmlns:xlink="http://www.w3.org/1999/xlink"><defs /><rect fill="white" height="106.58806609982267" width="97.582937239439" x="0" y="0" /><path d="M25,25 m0.0,0.0 m11.73258905908425,4.78785825392855 l0.14093000889835056,0.5257720130371396 -0.09378104355731175,1.5150893843778916 l-1.405310249423284,2.8887097393718086 -5.483292143677293,8.710868205020361 l0.20829001469627217,0.7494402487622304 3.3861233064887397,1.6075672919581248 l2.320946281027433,1.606949426050647 m6.9132331007830095,-10.522893772089967 l-0.008148687725708842,1.639696091077435 -2.1495570746899038,3.5830885615722607 l-4.988426044394283,7.059885894426602 -6.425401327160854,7.937738132200483 l-0.0704883240510439,0.8606747570614973 1.2008629853499675,0.47953015828714657 l13.058467624381535,-4.1900072826628865 m-2.136428376110321,-4.077046576120412 l2.3755382885566254,3.6262917961933163 1.3768077249899204,3.9543754112362426 m-8.556124976563533,0.37249101875599605 l0.5318554624183758,0.9019609489274512 0.21133229504786136,1.315297748729713 l-0.07462480839353501,20.080671556554222 m-5.455269953606956,-16.613652991717487 l-0.16583405349528266,1.7478377187669327 -0.8888025601152946,3.751630028081777 l-2.9338115265599822,8.816899516669874 0.17959229232232635,-3.6207500589496178 m8.902643487456952,-9.071184432322642 l1.7047630117085368,3.0510618976682458 1.449664515027194,4.688960283888507 m19.894502430852743,-36.63294772958777 l-0.6690803298716083,1.2821259909035894 -3.0831175890520184,2.2829520056131596 l-3.5430034978114437,1.9380482033164008 -5.388446919475198,2.2993128534516143 m-1.426660910905968,0.3872835118335724 l0.7589394136137334,1.1248864270749592 0.29758809066867514,1.5419306998763496 l0.015193274359811505,27.768273374314827 0.297704476396329,1.0076947951043402 l0.5508999314958274,-0.23602254444537804 1.0482810930440687,-0.9005639220583824 l7.081501474661792,-5.910294443908997 m-7.781321673352368,-16.784493470546302 l3.006497504049771,-0.0120644806733075 15.141138338993208,-2.5472754214639157 l3.5897187446235606,0.020489608050014013 m-14.267906985917511,-10.09774893465431 l0.5183232922454396,0.8548925660924039 0.4508811605031718,1.4725392173589908 l0.865539038632658,7.601689037945889 1.404078913349738,7.026098679282591 l1.8666287172644995,6.538834080151551 1.8746860018322766,4.711805102781333 l1.5639025269218336,3.1160915610853848 1.7305549318356452,2.8136049941518197 l1.9870787490654953,3.6206740324339273 1.9865051932420557,2.6096172834305165 l1.3804610466967506,1.353725023050969 0.6937611170977371,0.17209703111538313 l0.4479321790392974,-0.2712377626412392 0.28959432009674463,-0.5580920802976108 l0.14224487652947146,-1.6527779258446562 -0.20097167358145734,-2.7736673445997306 " fill="none" stroke="black" stroke-width="1" /></svg>