<?xml version="1.0" encoding="utf-8" ?>
<svg baseProfile="full" height="107.40512612310502" version="1.1" width="113.8365446981215" xmlns="http://www.w3.org/2000/svg" xmlns:ev="http://www.w3.org/2001/xml-events" xmlns:xlink="http://www.w3.org/1999/xlink"><defs /><rect fill="white" height="107.40512612310502" width="113.8365446981215" x="0" y="0" /><path d="M25,25 m0.0,0.0 m12.254954574615233,16.113609342123027 l0.3244405004251426,0.39905750429268777 0.4249278959355191,1.4798520630601852 l-0.03662284302041611,7.129749426534769 -0.26244640615936865,12.272637593556302 l-0.41152208876571844,4.714973341598898 -0.8004494101539528,4.9572408343897445 l-1.128044712828418,4.345670042213718 -1.4900960778605028,3.44708775576625 l-1.762657620521522,2.5452482195694293 m6.5560269014171535,-41.7638656531771 l8.073158027341995,-1.4260965001684918 1.394142216210696,0.24339399000886708 l0.586174947839798,0.8072817621591982 -0.42427571733117203,40.36703782988319 l-0.37946679952887935,1.0808447793184628 -0.5629725430144271,0.4328970660524578 l-0.6930390104628255,-0.0970439537319487 -2.6047666618223086,-2.1632212149118795 m-5.380757658226402,-27.9940420687024 l5.865210415581745,-0.7828081416093039 m-6.096977863460975,11.398898440649063 l6.008086196967628,-0.6734941419684672 m12.32708086807306,-24.374929956665632 l1.101804989248399,1.4466308703882682 2.50063671583879,9.04101838221449 l0.24177729495499145,5.915769807245635 m-1.6815668466781064,-15.56630831311793 l21.78715929264538,-2.1345319678641776 1.4807567226733342,0.28475920308175656 l0.5302514619270384,0.8498253437882681 -0.01952553646196004,0.7667224656502442 l-2.532594157198036,14.623707069478916 m-19.48399692819356,-13.51927965971399 l2.6233822978949193,2.2939839918087666 1.6909249410116696,2.8947924380310153 m10.834888280622478,-6.6600241587666025 l-0.12682383350401588,1.041805190544141 -0.6921897432310539,1.7882551218550784 l-1.8538756927793587,2.766415092890755 m-13.90391264123711,2.806830893985971 l20.854679342495405,-1.434934604304733 m-12.436356870289908,8.022827298942104 l6.367093743136254,0.8128727214001181 8.242010663217131,0.22636554478013943 m-23.920820162715284,-10.599852207116237 l0.7108034738861826,0.6820901362300003 0.3019380167718431,0.8823323676347151 l-0.14478911098254685,22.417654239279376 0.2052857513669465,0.9870854350718162 l0.45901696504118417,0.4077148633183203 0.731250067855504,-0.09127068151420566 l8.325486273062014,-5.050374208660589 4.377871256102117,-1.8376287205390585 m9.230004442492913,-13.1434501857551 l0.05604792275762615,1.0129303723451877 -0.47148466918382675,0.7776291929468111 l-6.421140181470697,4.731801366145661 m-8.419577175320818,-5.551853889208629 l2.0353519408866028,0.8235682227426661 2.9800918474910247,2.120466347327364 l12.128022081654448,14.13281932012508 2.121530919525203,1.4388709246928535 l2.247024411557284,0.7224599750986369 " fill="none" stroke="black" stroke-width="1" /></svg>