<?xml version="1.0" encoding="utf-8" ?>
<svg baseProfile="full" height="112.66703162763991" version="1.1" width="87.34159085423519" xmlns="http://www.w3.org/2000/svg" xmlns:ev="http://www.w3.org/2001/xml-events" xmlns:xlink="http://www.w3.org/1999/xlink"><defs /><rect fill="white" height="112.66703162763991" width="87.34159085423519" x="0" y="0" /><path d="M25,25 m0.0,0.0 m13.444227196877316,10.676766039157076 l0.4677350382867161,0.1286237213721756 2.7782610900218994,0.11736718182639273 l15.725633983454902,-2.456270310544544 2.9727796115315384,0.005571205055899912 l1.9529539340628284,0.2859905018224772 m-13.109117920063126,-5.903710549173935 l0.7492396788044292,1.988769043228319 -0.020469299141935,12.581737355870253 m-10.71916333167661,1.4711177298693872 l2.85764878252502,0.022671288920056158 14.752751338878088,-2.005856085009653 l3.0872185223655224,-0.15674950020874082 m-22.82018267602468,7.889522426289262 l-0.5331739784211209,0.9501666523824316 -0.8624456869377635,2.2313481801526316 l-2.48317089978776,2.174443217442649 m4.859777862911895,0.48293384349716 l1.3284058779698296,2.427398276226553 0.8196150758277748,2.7092798416152006 m10.228913022293531,-7.9811338237602945 l-0.40260609532134367,1.3000564323354624 -1.0295602333055611,2.195579809275712 l-1.2060083795819658,1.9476658352029714 -1.2718903291436672,1.5782417099706465 m-15.850746971621039,2.9920845514446053 l1.439877356444222,0.1713106295180679 1.941499540400356,-0.09641055447542993 l17.145996572742472,-2.529390292398202 2.4169704712253743,-0.20887860702059646 l2.4096622714190006,0.2429468920014205 m-23.41493181662477,9.167736151137671 l2.7937486836669865,0.21433392055791067 12.82693147053123,-1.7804800517581931 l2.6589206306908553,-0.2702127399892861 1.6633440571878466,0.1964981153145268 m-24.721491981244714,9.683945307648644 l3.2731641761668286,0.2442458556731901 20.782307804121345,-2.526922113936815 l3.989733392517796,-0.25594511994905117 2.828555024493509,0.26906688642785925 m-16.523484864496396,-12.40225741242771 l0.4468381382320992,0.8717087826626563 0.2042314260387284,1.0337336191339042 l-0.0400102952431223,22.988387785259185 " fill="none" stroke="black" stroke-width="1" /></svg>