<?xml version="1.0" encoding="utf-8" ?>
<svg baseProfile="full" height="102.50379346717479" version="1.1" width="106.86101371084646" xmlns="http://www.w3.org/2000/svg" xmlns:ev="http://www.w3.org/2001/xml-events" xmlns:xlink="http://www.w3.org/1999/xlink"><defs /><rect fill="white" height="102.50379346717479" width="106.86101371084646" x="0" y="0" /><path d="M25,27.664587051760194 m0.0,0.0 m8.477742695948054,17.42610310934591 l0.299709083668153,0.09902391182336366 2.0629356682824347,0.09320816540359166 l15.131928037768056,-2.2516090437313303 1.6385917933350431,-0.017947050825184992 m-9.260827428599335,-14.652552373361704 l1.2779468251171093,1.2474287401662167 0.8080242991183625,1.3867101591920938 l-0.19337306006674335,42.62793243584213 -0.15362151570409668,2.456656822443918 l-0.46298039805853436,1.2134800521962446 -0.6743211216933868,0.2107714869193518 l-0.7757212025040897,-0.47234589611660455 -1.8878753797719288,-2.230758938681708 m3.829610658862388,-30.5439853813353 l-2.627437642950826,5.753112761102362 -2.2637413079998834,4.2062819203894035 l-2.607643256445824,4.035253635623874 -3.9128349199542547,5.244262537584899 m12.882589426242365,-16.12098269776573 l2.6551962263534277,2.669054842936385 3.2923532158965907,4.418084746726051 m2.855783761186077,-14.444039317057168 l2.166602700520248,0.20593730765533974 19.318285763722674,-2.3947527054652658 l4.984090788574372,-0.23382774520773061 m-8.877669840669974,-12.595088537563603 l0.7003969275762931,2.3152249205252113 0.1637525088902777,4.469986421873034 l-0.3206619966964434,39.56131922682422 -0.30657505266456403,1.197647001646892 l-0.4757007930783221,0.5602836537991145 -0.5920679676381354,0.1205004868276319 l-1.4244355855572506,-0.5976789960677856 -2.0285560903928435,-2.367434652722031 m-7.674787111797041,-20.340163760245165 l1.416014914455284,1.5967276476642236 1.4802994684312027,2.211654632402432 l1.2115390836028157,2.316366713483764 0.5183037948250037,1.4670589992480887 " fill="none" stroke="black" stroke-width="1" /></svg>