<?xml version="1.0" encoding="utf-8" ?>
<svg baseProfile="full" height="120.94498627385244" version="1.1" width="100.12972979007733" xmlns="http://www.w3.org/2000/svg" xmlns:ev="http://www.w3.org/2001/xml-events" xmlns:xlink="http://www.w3.org/1999/xlink"><defs /><rect fill="white" height="120.94498627385244" width="100.12972979007733" x="0" y="0" /><path d="M25,25 m0.0,0.0 m12.03303927278591,15.137285118294685 l0.04383157101672494,0.4570544006870099 -0.36633098811797143,2.9342092199655494 l-1.5818560577568057,4.97147183023448 -2.0383097627651554,4.2938604511315 l-2.3379002348185076,3.6059081538389783 m6.031062013775875,-7.86160257831612 l1.5722052273837388,-0.32757332273568646 7.937214994441014,-1.7534003086666288 l1.809324511642758,0.03844361754852007 m-6.614702930192197,-12.898294673551147 l0.5344806484234944,0.8434641521948733 0.2865680811934879,1.6131135910599417 l-0.029484599114588606,45.48589534434255 m-10.257104784283532,-15.330545814084333 l1.1336220570307556,0.2559345819185208 1.1912313051514496,-0.48121582577974364 l12.874077449445632,-9.651913281045653 m12.028519432296353,-21.069575802503866 l-0.16371373889491977,1.7543134047297042 -2.8691879641715294,7.0593086031477155 l-2.468099692167981,4.946394951682754 -2.978822858777541,4.952104659264453 m5.24662947217279,-7.394294478222094 l1.8475667386727745,0.2008904524567053 14.546992376609508,-2.325256208266661 l1.3907222347098835,0.03531478908705007 0.8847664890073359,0.5568654169026844 l0.4433895253785936,0.9898100346841759 -0.08152823637869182,1.4517129786246907 l-1.6540861711320025,3.283825539700811 -2.8016800970650784,4.910551652572275 m-12.211551545175592,1.1159075107825402 l0.16811140815071685,1.0694285963539567 -0.7042040992470379,1.0315923812547705 l-2.062301098867448,2.8826013755241595 -2.1326472255983497,4.5975346017192065 l-2.965207109877416,5.778114113125099 m5.21892239279032,-7.311243973434558 l2.4206766574759357,-0.1582198566926109 9.781380125138915,-1.9053498619804181 l1.3608003673988378,0.8614118269745716 m-18.301932575163192,12.842209593965432 l0.8907407726504969,0.2391698884869083 1.5521062675220214,-0.03254651476620083 l15.863756230262394,-2.5483409956452117 3.1098794688419718,-0.22344314258369763 l1.9879712478286988,0.21689414900189333 m-12.778839790803307,-8.238154421641553 l0.6412375109392011,1.7724703637343842 -0.011820188176345682,15.881584562637615 m-7.634164019242622,1.0885679994273847 l0.33392712410042785,0.6717294215193309 0.15265724573164635,0.9845798978721912 l-0.7590049810660217,9.644428107319548 m1.0254233557090957,-11.328178295092368 l12.972664471392669,-1.6932763161034463 1.29749586072662,0.11133987941139221 l0.75226567238827,0.7184143544600065 0.1729297900120734,0.622311469343528 l-0.060914544667617136,0.7047506953206845 -1.7473072423961717,7.786982651962561 m-12.394637224472477,1.4090144963967195 l13.48960164255486,-1.0914023305700953 " fill="none" stroke="black" stroke-width="1" /></svg>