<?xml version="1.0" encoding="utf-8" ?>
<svg baseProfile="full" height="105.54274334611006" version="1.1" width="94.05873123947057" xmlns="http://www.w3.org/2000/svg" xmlns:ev="http://www.w3.org/2001/xml-events" xmlns:xlink="http://www.w3.org/1999/xlink"><defs /><rect fill="white" height="105.54274334611006" width="94.05873123947057" x="0" y="0" /><path d="M25.40093401761049,25 m0.0,0.0 m12.864739197277421,7.0426405774225085 l0.11232059208854094,0.5811654283507219 -0.15409459585110177,1.580220759682126 l-1.4121460180771157,2.862745343043881 -1.8538825134639159,4.1880667309927135 l-2.306932576339157,4.0846147980834075 -0.0525369629582171,1.3451829606945302 l2.355511027235864,0.4048380616457923 12.111572610302481,1.6625261179858497 m-11.864724218286327,-9.989841658986123 l2.7031555627584902,1.094145962606167 2.9150650338267847,2.149529967570327 l2.1174850908843124,2.289739029901691 1.0563662483159326,1.7360050390419173 m-10.729340244967274,2.699489550245118 l0.6272599260797792,1.4363691739829139 -0.026760621700687576,3.437606274810834 l-0.07368744633027838,22.88040256121243 -0.20308738394325496,1.294755104718938 l-0.38104766199640355,0.4998376665805272 -0.5133020026781482,-0.15412385941881426 l-0.5695710230359124,-0.5149301752183717 -1.563590017460267,-1.9384513601041364 m-3.5118453284667517,-15.970687403806098 l1.20103300660138,0.9770402795372651 1.291443059257818,1.6753341845434944 l1.2478800903128047,2.8630887928333495 m-5.788216846997286,10.206308844899691 l1.309856857128222,0.8518175825523805 0.8972656399616371,-0.15299358683493175 l6.896382326255102,-6.127307524164878 3.4759380785500014,-3.6802053910676733 m12.968869578083488,-30.302137880542315 l-0.1979770085281588,1.0877093047474433 -0.9309524636612739,2.2461413197241464 l-2.9166350905645912,7.760802634129559 m-4.659840843261201,1.0626932266820428 l0.48026110244210124,0.9811013587364035 0.20129166559518358,1.0724279386116364 l1.2495600445998893,15.52699415394098 m-1.1835049312247714,-17.028645830489435 l15.305997158273135,-2.196126693759336 1.6502667638610438,0.2286859775932657 l0.5964839494184683,0.8375984248933568 0.0930654568499878,1.368878595165618 l-1.1044908475040114,8.846913496443104 -1.0417925314731302,5.9765162631806685 m-14.783974503819703,-15.49698145701925 l4.50353892437579,0.9616585569992572 15.34566388747941,5.668606268816099 m-16.384515694466156,5.409277200225467 l13.989167178123074,-0.793225689879741 m-11.831544205309216,8.067003455076218 l-0.06199762864243949,1.0412520672930095 -0.3785128282294371,0.9994892940960427 l-2.181453633123749,3.4158821480210135 -2.9220197712859766,3.3933749267579594 l-4.183876948613387,4.091924453329312 m17.234085801914368,-14.303193053804954 l0.6311870773124187,2.0557053961408256 0.14260597248685258,7.919472244004125 l0.30262659480904525,1.5122673251968688 0.5489580680908733,0.9697841260159737 l1.3221854915217162,0.6619200211687534 2.1807104651261398,0.25870613007047677 l3.7044328858624818,-0.08959811372401846 2.0444694132413734,-0.45650597417497585 l0.8754051691409637,-0.5588279463783782 0.5670579325059852,-0.8177848585435041 l0.3044866861690499,-1.1006715951778452 " fill="none" stroke="black" stroke-width="1" /></svg>