<?xml version="1.0" encoding="utf-8" ?>
<svg baseProfile="full" height="106.58256902359426" version="1.1" width="109.49251170735806" xmlns="http://www.w3.org/2000/svg" xmlns:ev="http://www.w3.org/2001/xml-events" xmlns:xlink="http://www.w3.org/1999/xlink"><defs /><rect fill="white" height="106.58256902359426" width="109.49251170735806" x="0" y="0" /><path d="M25.000000331783667,25 m0.0,0.0 m11.690927743911743,0.585862398147583 l0.14828860759735107,0.6761755049228668 -0.016895810840651393,1.2943734228610992 l-1.405525654554367,2.9842975735664368 -7.032259702682495,11.562223434448242 l-0.04391195718199015,0.7362113893032074 0.8185462653636932,0.9245525300502777 l6.302051544189453,2.5014376640319824 m9.430092573165894,-14.348230361938477 l0.11074475012719631,1.2511476874351501 -0.36133017390966415,1.150287389755249 l-2.144996076822281,3.3469143509864807 -7.605687379837036,10.726866722106934 l-6.84786319732666,8.13674807548523 -0.6209425255656242,0.9413625299930573 l0.011417537461966276,0.7389558851718903 0.5619357898831367,0.39760902523994446 l1.031244844198227,-0.08246355690062046 16.362348794937134,-5.465837717056274 m-2.375362366437912,-5.0169408321380615 l1.5149624645709991,1.808452159166336 1.5664218366146088,2.5486087799072266 l1.7455002665519714,4.319838583469391 m-10.08877158164978,0.9763548523187637 l0.5681109428405762,0.843246728181839 0.2958696708083153,1.8545939028263092 l-0.08431020192801952,21.189920902252197 m-6.954556107521057,-17.048816680908203 l0.059285424649715424,1.8309226632118225 -0.8669180423021317,2.281363308429718 l-2.4595841765403748,4.699951410293579 -3.308834433555603,5.30339777469635 m19.62864398956299,-16.093732118606567 l2.1570031344890594,3.706786632537842 1.8757781386375427,5.735998749732971 m15.994929075241089,-45.844082832336426 l0.734839141368866,1.0055151581764221 0.2765938639640808,1.4117006957530975 l-0.04918117541819811,9.940911531448364 m-16.543829441070557,1.5245682001113892 l5.204938650131226,0.07956629619002342 24.74026918411255,-2.5455641746520996 l2.7836060523986816,-0.06675775162875652 2.688921093940735,0.31270116567611694 m-9.792366027832031,3.4580662846565247 l0.2630321867763996,1.6333188116550446 -0.27702268213033676,1.5629911422729492 l-2.855992317199707,8.737106919288635 -3.251200020313263,6.927797198295593 l-3.187047243118286,5.141815543174744 -3.7208521366119385,4.658097922801971 l-4.265635013580322,4.053622186183929 -4.822767674922943,3.329761326313019 l-3.989126682281494,1.9506514072418213 m5.45331597328186,-29.35514211654663 l1.851506382226944,0.855468362569809 2.943473160266876,2.7760589122772217 l11.435633897781372,14.160233736038208 4.947642385959625,5.589854717254639 l3.3668118715286255,3.0127716064453125 2.9849836230278015,2.010687291622162 " fill="none" stroke="black" stroke-width="1" /></svg>