<?xml version="1.0" encoding="utf-8" ?>
<svg baseProfile="full" height="103.39557197921684" version="1.1" width="99.04804351401788" xmlns="http://www.w3.org/2000/svg" xmlns:ev="http://www.w3.org/2001/xml-events" xmlns:xlink="http://www.w3.org/1999/xlink"><defs /><rect fill="white" height="103.39557197921684" width="99.04804351401788" x="0" y="0" /><path d="M25,25 m0.0,0.0 m12.23041928519944,20.41093116353773 l0.26574319045535394,0.3545047112719172 0.3685000260478773,1.1933185601140566 l1.4211492769152834,13.170950540144206 m-1.2274469662968068,-14.35822416924538 l11.377494238768811,-1.8863495623095634 1.0608228675577118,0.03745207757933931 l0.414245985387837,0.37126675731446585 0.23301680875761902,1.1937831680561695 l-1.6601255824743422,7.014373081382296 -0.7287222204416655,5.903694194717579 m-10.380451973452193,1.5169729494418926 l11.670426824058817,-1.5711535002713741 m-7.505338971658284,-24.411345941493163 l0.7337979254184046,1.0916667890145613 0.3477359399719575,1.455245851479217 l-0.09307211904478203,34.67137322078491 m-8.187368128639047,4.513723721241187 l0.7441051919225408,0.620553834523615 0.7566049067746028,-0.10810788641383275 l12.74630924474721,-9.028774756263754 m-2.233163225799808,-4.370300197468948 l0.9957342497789806,1.5869573026592594 1.343406578949167,2.8779563111365225 l0.908151265363302,2.618168255610836 0.48180692806892317,2.093876303845834 m3.6940601905284343,-38.91811279192281 l0.4480511139742619,1.7837318051781437 0.07072429903967178,39.68915775762986 l0.31249396152831593,1.8201404244599568 0.5746670936703435,1.058350678080324 l0.7757690612217675,0.5822922401894681 2.111616741309265,0.4174990852123363 l12.13591889979994,-0.024954165147522578 1.4725916943207646,-0.6703301022605282 l0.8814294332581594,-1.0862369439575477 0.3877336278792486,-1.4768461395167154 l0.09920585115079023,-2.6663662454370107 " fill="none" stroke="black" stroke-width="1" /></svg>