<?xml version="1.0" encoding="utf-8" ?>
<svg baseProfile="full" height="102.54676282652656" version="1.1" width="84.98646077654244" xmlns="http://www.w3.org/2000/svg" xmlns:ev="http://www.w3.org/2001/xml-events" xmlns:xlink="http://www.w3.org/1999/xlink"><defs /><rect fill="white" height="102.54676282652656" width="84.98646077654244" x="0" y="0" /><path d="M25,25 m0.0,0.0 m14.232036046506972,7.134979417651351 l0.33928039755558304,0.4039153016369503 0.3619465841182572,1.6713352975027331 l-0.03604471011182911,10.540368556727747 m0.23162603757574396,-6.970958444372877 l9.278298796525535,-1.2998435931408427 1.89266605083449,-0.006349531896761277 m-21.384904308361094,8.232433226168787 l0.575486136314766,1.4143817762605566 1.5727445991240898,10.315536246856242 m-1.2176954549957701,-11.052422395199338 l13.945293857476905,-2.1735838628650175 4.066442380465124,-0.42757959092481884 l1.180018526502687,0.1873891579952944 0.6825896305154087,0.9086954321534608 l0.019524023259831484,0.7483368185491349 -1.7693772912878472,9.432680452287045 m-11.037972246971917,-9.02403971560785 l0.4571454188602027,0.9178759635282813 0.05818480700645331,7.5455504697018725 m5.144102633114613,-3.857718565077112 l0.1861666068799248,0.2050072610187333 0.16707963855367816,0.8019526336631211 l-0.5761648858815736,4.753364918106322 m-10.339869397442563,1.5890074244228614 l15.55627045668112,-1.7416410576665502 m-16.422150616228656,6.7967013500203795 l0.5963940672556618,0.22018853684736445 0.4289966172239761,-0.05482431727980759 l12.838756052318633,-2.386427372047566 m-18.000614872979234,8.005506250252923 l1.20111553623425,0.21692761592959786 1.8022241830137635,-0.1085173943605848 l14.647255058021123,-2.405098960767993 1.8611069212058984,-0.10199093528564022 m-9.49309826990184,-3.5167889001635704 l0.330420850028178,0.6143833644859927 0.11041153780180356,1.0765890097154451 l-0.029277709177238247,13.509081589333197 -0.04185960304544171,0.37802985774894116 l-0.24450177933674452,0.026576914298588925 -0.3983726081689858,-0.3238110490672695 l-1.2889599076745595,-1.5822565673258788 m-4.088754212040984,-6.822098091858698 l-0.24105915182538143,1.3014902508075865 -1.5249495147695613,2.4536921578209783 l-1.8553785027065361,2.0882543440820167 -2.256885583277973,1.9466059170774157 m15.867707647605803,-9.176213787511461 l1.9617495586442673,2.7429690803452647 1.324343642526316,3.114094439622191 m5.723951136823706,-36.42837000673835 l0.4599988855874316,0.9092095583856848 0.16344054156576335,0.9608751885764569 l-0.011505464193954689,24.158212865783874 m7.268849620488473,-32.548750756088594 l0.4672951555127164,1.0456455096779675 0.24493722719298908,1.617504562052664 l-0.012590084280514799,41.499757318812094 -0.14672255783509633,1.9699984111867026 l-0.37721969517192483,0.9513115086668552 -0.5279902575989976,0.149631766012443 l-0.5953682246559227,-0.4663088068317004 -1.5438529156157417,-2.3183657256380323 " fill="none" stroke="black" stroke-width="1" /></svg>