<?xml version="1.0" encoding="utf-8" ?>
<svg baseProfile="full" height="103.90033600483224" version="1.1" width="109.73456314882404" xmlns="http://www.w3.org/2000/svg" xmlns:ev="http://www.w3.org/2001/xml-events" xmlns:xlink="http://www.w3.org/1999/xlink"><defs /><rect fill="white" height="103.90033600483224" width="109.73456314882404" x="0" y="0" /><path d="M25,25.50613280006376 m0.0,0.0 m9.002080396661121,18.16179175685584 l0.31299448375398203,0.09438868624289638 2.222999363446642,0.02523913614456589 l15.328196769584412,-2.275437096483737 1.629337881693266,-0.03046485336816134 m-9.277346795532786,-12.448107278133792 l1.2373833472386244,1.304631078303467 0.8076179931096231,1.3177868156788968 l-0.19354031785677855,40.55657095695506 -0.15274138992803923,2.1820305002897857 l-0.4701165581525019,1.1007404909600722 -0.6775748780348246,0.24640509899344068 l-0.7915805999330183,-0.34546108975888307 -1.9345507150364842,-1.9381448383286999 m3.89954798809541,-29.801863863404854 l-2.641577498726609,5.356801845700217 -2.337663669042877,3.979607920758923 l-2.6839747415615243,3.816020405054473 -4.032750282544402,4.808691284741943 m13.24451554983034,-14.523768099456897 l2.770940696258658,2.4675564740633273 3.359908613987228,3.9177843509073527 m3.609439895606404,-14.246997430769206 l2.003340604656204,0.17105446502061486 20.15234528302422,-2.5454139357457515 l5.347331728227746,-0.2525601795788441 m-9.121632921653017,-11.605015401705833 l0.734004631776993,1.3125732756310982 0.3353330703216402,1.7902855439932486 l-0.2620717440185325,42.10701005341425 -0.3111755032684847,1.3049868030649117 l-0.5120600732650069,0.6270342843932731 -0.622757483604525,0.11973458779024591 l-1.4787892717687336,-0.6477801259350872 -2.2223224656682645,-2.1693806490842236 m5.098036642155105,-19.53847359835038 l-0.3590887438462471,1.6929769498532727 -1.0767179533650664,2.4378860988878737 l-1.8789739851612188,5.72776517602745 -1.9534945183879355,4.614270140660872 l-3.6635408242165277,6.152827675049823 -2.660586800084073,3.3450778746210568 l-3.016900851456149,2.98120566001065 -2.7064981665751864,2.042336254803904 " fill="none" stroke="black" stroke-width="1" /></svg>