<?xml version="1.0" encoding="utf-8" ?>
<svg baseProfile="full" height="115.52071729178249" version="1.1" width="110.76931733564278" xmlns="http://www.w3.org/2000/svg" xmlns:ev="http://www.w3.org/2001/xml-events" xmlns:xlink="http://www.w3.org/1999/xlink"><defs /><rect fill="white" height="115.52071729178249" width="110.76931733564278" x="0" y="0" /><path d="M25,25 m0.0,0.0 m22.324751454004534,4.828907895560892 l0.3833046330905751,0.41838406283835433 0.34766954601895866,0.8369095118924788 l0.13787898252122413,0.9606875872078017 -0.05758353665753334,16.480499825839026 m0.8127482309319718,-9.225620993624792 l6.946503585759178,-1.2631326801355718 1.728846583068972,-0.026573540389140244 m-18.633323791533286,-0.2942879083502001 l0.6369393886316767,0.9638632497591693 0.1913442209617617,1.0082373037807377 l0.01243053713570283,11.120301163336098 m-4.941168592122198,1.0094215632933656 l1.0399439491763276,0.5721302811511186 1.0694830804451243,-0.08770749069915368 l20.400878265605744,-8.037129000795437 m21.846188740046582,-14.429540086787144 l-0.7496601353347793,1.627456691660944 -2.4628148669969834,2.39615931511022 l-3.6008688303765144,2.5308507503163313 -4.019756549447116,2.1318054795953367 m-2.1200032652511793,-11.131900886416883 l0.5201287137041809,0.9412308547724516 0.17721870886766494,1.2402168953510946 l0.06764690800701881,14.473114643919402 0.4350651325867012,1.513368709888555 l2.4581607599901503,0.9074037742879543 9.642589637966692,0.19588500581187857 l3.4222317218885254,-0.4179919710878905 1.1735747817794968,-0.5105771865792332 l1.072426987568302,-1.135055554628311 0.42042725207896026,-1.6484039182207504 l0.08611510152633772,-2.469422372557796 m-28.874740477642682,7.483125028554389 l-0.2125936530772512,1.745060831754775 -0.8281600742264698,1.164326071715228 l-6.118937283028296,5.885898576332817 -5.012755734575161,1.322128157260717 l-0.6221423007703775,1.2734791425334349 m9.200089504056605,1.19999928934308 l0.2796041218478864,0.9200353305344541 -0.3542905773503911,0.9736211609582903 l-3.449539933940802,17.564301180031705 0.1926025816671311,0.5738691145854576 l1.174948278898537,0.0036484026906292294 9.467328367912984,-6.709867916547233 l3.691095550375608,-1.9948974238563535 m-3.83817955098517,-8.160589649794385 l0.36161991949954636,1.0795104090288128 0.03933452022482478,1.6523316744749728 l-0.6543289101165591,10.973587961535237 m-7.554778692086069,-16.451313784455905 l0.6350869108086741,0.6723144713087812 0.3017342805746556,1.0865612376689193 l-0.04192439125756971,22.706590714177825 0.2891603914623959,2.3538883230523324 l0.6045199832585061,1.282454715409438 1.4676389767006484,0.9510908079208452 l2.583430821756967,0.45860325915990163 5.788218649706023,0.03146923130342542 l3.487933833582318,-0.47560488468787415 1.309883140757785,-0.6220089776475288 l1.2100934269466352,-1.0464327241816118 0.6728980490825881,-1.3294854583710993 l0.292902020907906,-2.418378969622955 " fill="none" stroke="black" stroke-width="1" /></svg>