<?xml version="1.0" encoding="utf-8" ?>
<svg baseProfile="full" height="109.76299749666167" version="1.1" width="88.2598103300152" xmlns="http://www.w3.org/2000/svg" xmlns:ev="http://www.w3.org/2001/xml-events" xmlns:xlink="http://www.w3.org/1999/xlink"><defs /><rect fill="white" height="109.76299749666167" width="88.2598103300152" x="0" y="0" /><path d="M25,25 m0.0,0.0 m12.201428727595847,4.74242435953828 l0.06916632037256162,0.5465770233694058 -0.14837103314151273,1.331059239355857 l-0.9452691198664446,2.3187312660393533 -3.118825576662164,6.23252665123556 l-3.518682153799292,5.571625680214016 -3.6720968591881284,4.39603538099152 m12.360532159597307,-16.31532992323147 l1.9267556521635922,1.1753239073778832 2.388181200063959,1.9667002042542014 l1.9288351165254038,2.2532479637389438 1.1031142653806036,2.0263950110128364 m-14.896704613334473,5.523970790121984 l2.215595891749605,-0.03105527245641084 6.510922791910303,-1.4680544755742932 l3.329992731505189,-0.2519764903838981 m-16.64307468873088,11.791401134284058 l1.587365265376418,0.2673252024581873 1.514671285507762,-0.10152998122140454 l12.543802317380774,-2.4081970133715918 1.6000915920463206,-0.027228317093832607 m-7.571002992942414,-6.2774650561355525 l0.5443753155099367,1.0060536439722256 0.1787458179694195,1.2777897593207184 l0.057917408718256194,23.173887482961597 m-9.232790977459084,-9.339081063992301 l2.0416106661851763,2.99147508187552 1.468091456920649,3.566260017854621 m12.660289602402985,-11.123494332847924 l-0.10669436657519207,1.1921379302273785 -0.3480683437109822,2.5496296086499606 l-1.2533007542588077,5.29779366039179 m-13.90128789183557,9.552808719088798 l1.1739006314473721,0.5823817059460434 1.264137059775332,-0.09128056183719836 l14.187824582920067,-7.428375377817687 m15.568180511609608,-41.851469609961555 l-0.10574623975789291,0.8799442544549436 -0.5573469572259567,0.92512247188649 l-3.078702991282594,3.6004145338156324 -3.3551057019636223,2.816858554427001 l-3.87160053526188,2.6077671896926837 m-2.3712494841457246,-15.28062661623972 l0.6078152645969159,1.6772191895616784 0.06127477473749934,19.694247392360065 l0.5064366494074318,2.34113622274669 0.9261806594546852,1.139825463901913 l1.9510896688805153,0.8098725695406124 4.362923184223469,0.2756340927016366 l4.461227737436812,-0.2748865353891823 1.671594696157362,-0.5933955793652543 l1.0306896742396654,-0.8989734726266491 0.6423246945052022,-1.240410362039325 l0.3086462368837871,-2.0184934207660583 m-16.00653197209792,11.977536842352249 l0.45447504623267565,2.142803067300245 -0.022847760006399792,24.562377689990413 m0.4610753319544164,-25.429099442197042 l11.063639585450357,-1.9985981784167912 0.5795307844817567,0.10014452016671534 l0.38057790729057683,0.4476673286744594 0.23354714644527008,1.2145118472585699 l0.02296254213807293,24.941052728542186 m-12.26113783087929,-14.142199042964144 l11.803803245536923,-1.3266879265821223 m-11.834262255709417,13.299899011885618 l11.935628902043884,-1.2668289710681981 " fill="none" stroke="black" stroke-width="1" /></svg>