<?xml version="1.0" encoding="utf-8" ?>
<svg baseProfile="full" height="94.95296370207916" version="1.1" width="110.16501731529428" xmlns="http://www.w3.org/2000/svg" xmlns:ev="http://www.w3.org/2001/xml-events" xmlns:xlink="http://www.w3.org/1999/xlink"><defs /><rect fill="white" height="94.95296370207916" width="110.16501731529428" x="0" y="0" /><path d="M33.124322142957645,25 m0.0,0.0 m11.09028483391494,4.28954665818009 l0.0770260692419526,0.441567410277708 -0.23049591582445267,1.010516249152143 l-1.5292593428529362,1.6815956622563981 -5.244900330001718,4.214208749018911 l-4.917330272477385,3.0740041583158604 -5.86096957898668,2.638719346683669 m2.6194448454985912,-10.908421584352578 l5.200983710219448,0.9777613555748058 5.532081273460956,1.868782310627847 l4.652025619181959,2.1509359838870887 3.7885315112241202,2.502154621849688 m-21.93764103663847,7.906473581023133 l3.224913737000737,0.19275871608900133 15.969154664683806,-1.7084452989652712 l2.458940917724524,-0.005147938337683235 m-9.925038405375922,-5.295560667474344 l1.0987940719758864,1.2468489392733864 0.45510740806686256,1.0513001534164221 l-0.17187698940411134,23.72932097191545 m-0.6154344389423507,-19.686127332257044 l-2.7990220426311008,4.171462035242432 -3.5012615451800597,3.764030925756861 l-3.7771540380458424,3.1881915843373863 -3.781226868790397,2.4546471281092193 m16.121482439816745,-10.660315873519487 l3.474703168609438,1.716824173131411 4.166597756173067,2.8577134487711717 m12.792667074737395,-25.40079641767443 l-0.04745834133453296,1.4127472172721447 -0.3633302861205732,4.054391911098109 l-0.3013694144020099,2.333099233149699 -0.8178667801700579,1.9402153313753248 l-1.116331238390751,1.4562364754199526 -1.4295623439824692,1.01011449566202 l-1.831332200796385,0.6934591339172694 m6.340166904508056,-12.293388436224202 l4.29345077904635,-0.43021393237714745 5.229470051342001,-0.7680393709702571 l0.667108041000812,0.05772114193447647 0.5164341807438546,0.3086342702314189 l0.2855895772320079,1.0579844932755267 -0.3395158404547889,5.327472465143011 l0.3048852487036656,3.507405465216232 0.6500472865800556,0.9232897626374389 l1.1062236026320638,0.5836969528398953 1.5938904166501606,0.3140364497452114 l2.074795403782564,0.08716289140373565 2.7244086597975725,-0.10461205509871521 l2.173033681722835,-0.3084523790961004 0.9143083443076445,-0.45959446417199545 l0.5754493043894482,-0.7366696361206744 0.4070718391701018,-3.2494522501795546 m-26.1158670133303,10.05429070756666 l2.2010653777727147,0.25298847188050894 15.830432192874992,-1.7805851835689124 l1.0107301500500938,0.5175241122642258 0.21041818966685422,0.5491466707463059 l-0.14840128266405092,0.6077882858653719 -4.330241232012824,5.945015310735582 l-5.641865383627237,3.1296945789269106 -3.8916144731522277,3.179367513927061 l-7.277314991963274,4.820794663712194 -3.9064679468288865,2.1816773872580577 l-3.2964761747772466,1.5602120645598894 m6.603057892832669,-17.09243828770522 l1.756473720161978,0.4797440305482814 2.551200357431386,1.452593763219168 l11.93059494729135,12.14669481810667 4.219770444395733,3.546129665000169 l3.3697028081917217,2.227861615084459 2.457548280963616,0.992669297559706 " fill="none" stroke="black" stroke-width="1" /></svg>