<?xml version="1.0" encoding="utf-8" ?>
<svg baseProfile="full" height="105.41242976057154" version="1.1" width="98.77864841384148" xmlns="http://www.w3.org/2000/svg" xmlns:ev="http://www.w3.org/2001/xml-events" xmlns:xlink="http://www.w3.org/1999/xlink"><defs /><rect fill="white" height="105.41242976057154" width="98.77864841384148" x="0" y="0" /><path d="M26.038141714656565,25 m0.0,0.0 m39.135082577327104,3.0395515351734206 l-0.005455758939195869,0.5169862870239367 -0.500225040419254,1.130992350927285 l-2.107528704006554,1.5827010134760484 -3.5737137394723195,1.8521417103174378 l-4.913428241458068,1.62055323283189 -8.865285966808965,1.8241488941849975 l-12.49649981068128,1.4277728824829106 m-0.6890173933324915,6.910583989324555 l1.452499913938963,0.9495326985044525 2.08257078717254,12.466004439306364 l1.1109752016389747,8.417894164001494 m-2.293556563256451,-20.03524164755632 l32.19371069033311,-2.3056126759055138 5.445651585086427,0.007974290035946295 l1.561768201998553,0.9397541129641641 0.20295896006383404,0.5415762675562672 l-1.886093753034425,2.9369683532987634 -4.3970051203889255,10.605330591465435 m-32.19092394575109,2.288003935502585 l33.68215677136843,-1.810203882207015 m-26.364236541820148,-12.291538198979284 l0.6883037035480195,0.9596540946887328 0.26531835022690536,1.758776628616715 l-0.05667048520268985,30.078124693536267 m-18.519497392787567,-9.408997927891512 l21.56604511859902,0.23132817282253004 17.443414805858954,-0.2483039083565928 " fill="none" stroke="black" stroke-width="1" /></svg>