<?xml version="1.0" encoding="utf-8" ?>
<svg baseProfile="full" height="111.77892258570219" version="1.1" width="100.22056623908091" xmlns="http://www.w3.org/2000/svg" xmlns:ev="http://www.w3.org/2001/xml-events" xmlns:xlink="http://www.w3.org/1999/xlink"><defs /><rect fill="white" height="111.77892258570219" width="100.22056623908091" x="0" y="0" /><path d="M25,25 m0.0,0.0 m11.636447028367515,3.1567701584923507 l0.42379266199545274,0.30216415531707275 2.758437039290521,2.832810576136265 l1.4613806589620455,2.1889013599394427 m-12.65572491127958,6.935067462016506 l1.7522201853094745,0.10356804432685097 3.2755403604174527,-0.31742703911938325 l12.76611195501126,-2.1466133763751505 2.2872015924039366,-0.007251843976098372 m-15.603208302202455,10.410957194870948 l2.200729207636626,-0.00604638452110417 7.646017259858846,-1.4868853863696763 l1.652820512138169,-0.030294039918496215 m-11.637350253681152,9.533567128695907 l2.7215866896589924,0.11540695242656325 7.5651194698379225,-1.418987279407165 l1.7815585824771636,-0.03575369677910683 m-13.41003539845706,9.570882128404582 l0.5253986845222989,1.0040355506458858 0.410637622607094,2.112001662109486 l1.3535409909382672,10.335348903194417 m-1.0283965555238246,-12.513290157247008 l10.526632765489422,-2.0943645180502943 1.4135553291959697,0.04019794349681573 l0.44928097932826055,0.3756601238597604 0.19749196893630988,0.6616314798240842 l-0.07516854696656781,0.9407144914870892 -1.7405929255341768,8.679613862432236 m-9.163885800864664,2.058294921499339 l10.361261758852956,-1.3674568104216978 m6.741582965779987,-38.01869882943174 l1.8510797050490506,0.33438914900492184 1.741192813935963,-0.0684156110979994 l16.07499264146442,-2.840845965781039 1.3823143289424529,0.3789482641326318 l0.7620598659981201,1.101328814213318 0.21357061510564176,1.5280803223438348 l-2.53296361285803,18.875386282747822 -2.534034643955143,7.065921898906469 l-1.2691360593138519,1.4436664360852853 -1.1772469495091038,0.13486681226669864 l-1.1365949516293095,-0.8971321123776704 -1.3062778437729818,-2.2034377890550134 m-1.8761203406765914,-25.041430438201562 l0.024627910011966517,1.996128015285922 -0.9863884830710019,2.9948770717923328 l-1.8524638121156425,4.402888306376491 -2.125055175371816,4.134987266306456 l-1.8832635653754797,3.159365539575497 -2.147454157182157,3.1053005183412505 l-4.847468900419823,5.443116687760872 m4.0007315494551525,-18.09469097928873 l2.7577568389525764,1.351947334412578 2.543324246706545,1.739499475988175 l2.232723803348017,1.970161581439552 1.2765814603512642,1.6793089211263905 m-12.472788769803254,23.290478831939645 l-0.4453289370939272,4.5840589164909185 -1.0721338750627667,5.003826722433151 m5.919066004937715,-13.812501162795684 l2.097020271202502,5.152361610060399 2.0915840253258167,4.081007137588796 l2.4443597098770895,3.2476099440329746 2.490823343417023,2.132684541289244 l2.2570242007931816,1.2351402826066022 2.6597539591135453,0.8445245023918766 l3.175153314531485,0.4109907198011204 3.6988723630001306,-0.09176401233999427 l1.4543582234144865,-0.7278098344075828 0.1423315468512043,-0.6019560693999328 l-0.16775568993839607,-0.7416683478358006 -1.1713925674105232,-1.7728513937118409 l-1.276771446424871,-1.326864236939076 m-13.254154963076896,-13.500370653047346 l1.1804470156330693,2.529394919217549 1.156964771235194,1.368902213898064 l0.8612939535415726,-0.17830863807220146 0.5558845575706148,-1.4804334122787022 m6.950838187115888,-3.0397490053469847 l2.0570278882075654,3.537781525949564 1.8914781579578839,4.615727299693764 " fill="none" stroke="black" stroke-width="1" /></svg>