<?xml version="1.0" encoding="utf-8" ?>
<svg baseProfile="full" height="108.11529685812054" version="1.1" width="115.31760011487582" xmlns="http://www.w3.org/2000/svg" xmlns:ev="http://www.w3.org/2001/xml-events" xmlns:xlink="http://www.w3.org/1999/xlink"><defs /><rect fill="white" height="108.11529685812054" width="115.31760011487582" x="0" y="0" /><path d="M25,25 m0.0,0.0 m17.87399334137377,5.451305881472389 l0.09891463216916915,0.5410301698021325 -0.05549099462940439,1.4058595324422511 l-0.3532912438596285,0.44543352023099936 -5.271694057497849,7.146366924433863 l-4.159072995745445,4.51108862033459 -0.40506615102420485,0.9217156875859635 l0.30980315487338084,0.859985035670271 4.560576444609282,1.744364293841794 l3.060008611721694,1.6638796061236778 m8.122025519400955,-10.953564168784741 l0.025613973032652084,1.7871481345699605 -2.051293432549947,2.784408607808831 l-6.684623017857327,7.917633888425722 -6.574982082264401,7.259908229105682 l0.10515629308102892,0.7505146384229241 1.2541179680124606,0.2392550778385455 l13.936678563760402,-3.346174273078576 m-2.365942695346738,-3.89813326364876 l2.7910329268733944,3.4746063504170066 1.4249959510348678,2.6085772156008433 l0.5433817321218098,1.5777770820359054 m-9.480758731892216,-0.4215766293524467 l0.44905616311092245,1.3733403513397109 0.11082158243289761,2.014271078910866 l-0.1541173551226983,20.256275266571137 m-6.798845965086638,-16.913076167836685 l0.01186197725061067,1.6528366174519855 -0.47593028015602046,1.3612329575545075 l-4.571387889469509,9.144094229371905 m16.968659956846945,-12.821738752229379 l2.062976850197246,3.217593147416841 1.7952232216364443,5.044130707698511 m2.526342191455733,-40.98857033646867 l2.6117693501604187,0.4733329274989348 1.3842590945716797,0.10844058464928492 l24.562894339654367,-2.1780401755226806 5.148732720667579,-0.1232467193789508 l2.981200447328137,0.3116475731274121 m-20.4661762891293,3.0827941837996717 l-0.2800018878622972,2.5849111725905614 -1.1532143016796277,3.614864881114393 l-1.5436991372412807,3.3244379382940017 -1.9838509741186445,3.0990836138253908 m-9.294985414019026,1.2933808007403254 l0.7282171482938228,1.4391199804991157 0.4571613134020329,5.382580434512539 l1.2285345270540526,26.94288959617215 m-1.670176036307447,-32.62423667397025 l29.330362749843193,-2.599499285824627 1.9642440631003755,0.24677149331645262 l1.0211042481079784,0.8032681063251923 0.5403725113862087,1.1386240522329316 l0.08479484624973076,21.02005796336391 -0.43662938247985145,11.471799804735786 m-20.005786622886372,-30.708809080227375 l0.6442575613127374,2.0464223434062507 0.5975945804944973,28.492702718634913 m9.727426741305091,-32.58089739994454 l0.6546512806048493,1.9829059682340557 -0.749078895649141,29.651029860490453 m-9.913500986138049,-20.847824027120065 l9.957234705676665,-0.8421840290923238 m-9.852840886938633,10.79184395543944 l9.89897171475096,-0.8281742559408865 m-19.384472316886473,12.956034747090905 l27.875283426709338,-1.0504349027756898 " fill="none" stroke="black" stroke-width="1" /></svg>