<?xml version="1.0" encoding="utf-8" ?>
<svg baseProfile="full" height="104.98645104843257" version="1.1" width="103.75028780822377" xmlns="http://www.w3.org/2000/svg" xmlns:ev="http://www.w3.org/2001/xml-events" xmlns:xlink="http://www.w3.org/1999/xlink"><defs /><rect fill="white" height="104.98645104843257" width="103.75028780822377" x="0" y="0" /><path d="M25,25 m0.0,0.0 m14.499562767604026,7.366710578847651 l0.017784474433613348,0.4498985943249209 -0.1697971249770268,1.3014010260388709 l-0.8131365534815962,2.0873337832279195 -3.161618430996802,5.648480515353837 l-4.052395574672925,5.442574051528946 -3.9272052477905905,3.990651696660855 m13.528409037586588,-14.857997925762865 l2.1832496322477404,1.0968946225146687 2.5777210445464394,1.7939540529034117 l2.1072753928821055,2.0753258977352784 1.2819845936335166,1.990877252807776 m-16.846186968461055,6.250746023749447 l2.544407732327123,-0.21329992346194163 6.923351492660706,-1.3537228299731943 l3.5813689471381847,-0.29439934307387655 m-17.338025055376878,10.732586715539506 l1.594367805995034,0.25383144142619163 1.6243931997369931,-0.09827970336365206 l14.003523421831124,-2.5543080035499655 2.2851159689325806,0.061076659721528925 m-9.200135250088039,-5.729961511969217 l0.4658703316784208,0.4669385179053211 0.3315237975686939,1.1241199884162172 l0.20864702648552738,22.80297349522249 m-10.284270643155322,-9.814022099610883 l2.3970402771275863,3.459041793413167 1.756601593797698,4.103707325430359 m13.45349098716155,-11.87118767277813 l0.23641290168063855,1.1692962838310523 -0.19632230286507846,1.1376785052558065 l-3.8325470554150542,5.985448307247624 m-14.407548975954873,10.011792839478325 l1.14241986090432,0.5081192479275145 1.1754496024602394,-0.05262872765307254 l15.365465826906698,-7.693606349816255 m7.640385792421924,-38.28946638125238 l0.6830849562210364,1.1981004528848487 0.38332858739874576,1.234181814003745 l0.9598012058809127,16.16286178539764 m-0.8127429399086141,-18.11098175765064 l19.1090255562259,-2.0482995819869956 1.2205700509756323,0.32279320127911937 l0.3537712789986928,0.5787074094054213 0.040375812252072825,0.8324126056594677 l-1.8848628823011022,16.898845543825825 m-9.584656887148931,-9.486226905909879 l9.91317138992298,-1.4127310558821522 m-10.883909742744262,0.6529660937150283 l0.5799817873790702,0.8296472121188162 0.2937584044703397,1.248919105470696 l0.2734614369079248,9.177872943053059 m-13.811168183239248,1.0621423832386059 l0.7555363958301228,1.934011289117873 0.1697490814102238,1.2465572462414134 l-0.20725393886418622,23.05338495862136 m0.2518377497442727,-24.709348390467415 l25.415169710734613,-2.94227090257846 1.2058038645976958,0.36383450236803494 l0.3626746181753771,0.41020969376712574 0.2671461687906805,1.1284336135618194 l-0.5079694293051942,19.503058838796612 -0.5029664369741589,5.949180841550565 l-0.46618229090631885,0.9779092999266192 -0.585347479460642,0.42801400108755727 l-1.3302198220223638,0.013686063573593418 -1.4717406816442216,-1.041578589185288 l-1.082387182196902,-1.4724896252573283 m-16.53789223628247,-18.56922347387248 l0.4502153397109618,0.6014870863571278 0.4537960605305312,1.8499776910515475 l1.255630397760199,8.280206898779841 m-1.1867019763339428,-9.57485234427423 l9.908688767735878,-1.6439651204884176 0.8072734865150095,0.07785571602052686 l0.5835168668799087,0.39291964939383367 0.34145072666122117,1.2899122486059778 l-1.6696566669218307,6.624700711730458 m-8.724337417425325,1.5847878183665576 l9.804116818149222,-1.298782006707545 " fill="none" stroke="black" stroke-width="1" /></svg>