<?xml version="1.0" encoding="utf-8" ?>
<svg baseProfile="full" height="100.64428165313421" version="1.1" width="112.36107435252039" xmlns="http://www.w3.org/2000/svg" xmlns:ev="http://www.w3.org/2001/xml-events" xmlns:xlink="http://www.w3.org/1999/xlink"><defs /><rect fill="white" height="100.64428165313421" width="112.36107435252039" x="0" y="0" /><path d="M25,25 m0.0,0.0 m19.082652728092746,4.30774939414316 l0.08263412900714483,0.52630994803962 -0.16968699647301377,1.6345508499400079 l-1.178773207582922,2.8141929595180257 -1.9199466783587575,8.97725390926285 l2.571621090430545,1.288544938097846 1.801836221807086,1.2382023089384424 m5.067024962076411,-10.528158103691494 l0.07087003590852055,1.2227814334072438 -0.1778059358556633,0.9816110112460366 l-2.2982664145156857,3.8359877943396223 -4.422449323514068,6.095274680946767 l-5.5950659146357955,6.799419585825792 0.10892356159150852,0.7633979949689432 l0.510494005477731,0.2529967773990546 0.6799914285600591,-0.10891869948023922 l12.004445861976347,-3.9348503740469245 m-2.1086035615585486,-4.007552029640095 l2.308168498629687,3.3036403883857637 1.2013587097409668,2.1419740441163886 l0.4748855664569797,1.3450469411012402 m-7.937140247353975,0.7657825967234756 l0.5003633825793838,0.8392145626058868 0.18772422931018837,1.1676962825821242 l-0.09355076713782755,18.92213245840468 m-4.941073492591983,-15.685823015393124 l-0.08038292199708151,1.6436158615907248 -0.7884481430405985,2.2009644062699705 l-2.0421385951406177,4.712106097739198 -1.8112636718931507,3.6113008001875606 m14.134853918049352,-12.82137407948388 l1.735318688224247,3.0974436580975255 1.669370817349083,5.087383304298416 m20.36387523285641,-40.7985033318227 l-0.48158022552973456,1.2316429375616638 -0.727569537080933,1.7556029869889946 l-1.5370634707809594,6.0903188279581455 -3.236472168067238,8.201540858757138 l-2.905768256590161,6.951520048392028 m-2.7036014707856952,-20.567824699096583 l1.5270839200506792,0.27756355903923646 1.8529454766903566,-0.11959149131574198 l16.983083485377367,-2.1294859919741183 2.6737752375687545,-0.09804085560662641 l1.9244241651932215,0.24560574356362497 m-18.295746765817142,16.811505130561912 l0.5503057805531412,0.957629594423253 0.28368670753246583,1.368698381613516 l-0.00039287523139274025,13.401276208755323 m0.2292286006955531,-15.21860260333599 l12.109804594350745,-2.158061571161758 0.748691312849414,0.008295415555771303 l0.9314237869568567,0.35815156347381527 0.38426713719309424,1.6372403989262296 l-0.09062910952567518,11.937586953115522 m-13.693904234239211,1.6940652300425887 l14.529697079264471,-1.309899463494798 " fill="none" stroke="black" stroke-width="1" /></svg>