<?xml version="1.0" encoding="utf-8" ?>
<svg baseProfile="full" height="112.57187886699433" version="1.1" width="111.84585391737366" xmlns="http://www.w3.org/2000/svg" xmlns:ev="http://www.w3.org/2001/xml-events" xmlns:xlink="http://www.w3.org/1999/xlink"><defs /><rect fill="white" height="112.57187886699433" width="111.84585391737366" x="0" y="0" /><path d="M25,25 m0.0,0.0 m12.24528613384064,3.5152526096312924 l0.07663141114222327,0.5301012433521085 -0.30232599794119164,1.8396991792702224 l-1.8553364171831417,3.657165855131699 -2.532145775237811,3.7651143601234613 l-2.984335558139755,2.940055309107968 -0.34714954032774986,1.0070106472197036 l0.30974013655473764,0.8689104494965167 3.9579231960098284,1.4780952585647116 l2.9118044295857937,1.6473600552329142 m7.869567629060921,-10.50903841461617 l0.0688053151044431,1.5354607324632514 -2.7850747941834433,3.724207544318775 l-5.363342066439958,6.481549404113627 -6.507456512020831,7.2878822984846465 l-0.3560039492906187,0.8557679748478797 1.436499225361087,0.6165073551657655 l13.876521900279341,-3.533793828437164 m-2.5348852917692892,-4.633391142753623 l2.5770918139390497,1.4613801356395288 2.561923585268098,1.878216240751449 l2.08511308509176,2.0900411685563074 1.1273194002372162,1.642920528813006 m-11.380315445323333,0.6006611245058293 l0.42290978457566825,1.5805523186154697 0.07513360800418781,1.243708407841174 l-0.15067520366779172,18.01062797244125 m-6.316912382229581,-15.409194878236626 l-0.08972833954973983,1.685325006206761 -0.9861717183365323,2.580658427675309 l-2.20901327465053,4.427006565166387 -2.3473797119655675,3.7569429662555547 m17.327926146107753,-13.416843046070724 l1.1414388151667894,1.3175266772873622 1.2685460730279563,2.1508466604958705 l2.1370968275231608,5.600833744632055 m4.640497541380853,-38.353220812849294 l0.8961798831313262,1.127044894597212 0.24892071596332577,1.2530523695010256 l-0.049415786600936866,40.124475977024 -0.7921041419088811,5.440321992555154 l-1.2050770928746966,3.5294787403032646 -1.7951073015072783,2.830032840993806 l-2.585577525284456,2.345565953575598 m7.362196809786253,-50.90185877169909 l28.303185948924096,-2.4346040344955844 1.2804401165318584,0.5258608538431438 l0.7355753449984511,1.115185599215276 0.28054441575811123,1.3383069775992678 l0.09656845145184405,45.950869779581375 -0.37350992560554275,1.5987715882216673 l-0.4443756299840081,0.559456974013291 -0.5519875839746763,0.1591628152396592 l-1.5208922324956877,-0.6956726698192124 -2.1644601882145125,-2.0912635338360075 m-18.283893260527933,-36.18447582512959 l2.951363224986824,0.08475745208014863 12.135076843081853,-1.3788963410399147 l3.1583257847422828,0.0921410184872744 m-19.121745812535533,9.385228107574829 l2.5906921942407855,0.05157808987810528 13.04647121074371,-1.3801089992956332 l4.152890079166662,-0.05455233713090082 m-10.492723067141037,-13.241099376713539 l0.583797942618256,0.947429989873112 0.14444735870102124,0.8447329058795436 l-0.09098988653891478,17.296032190509656 m-7.9211841060195685,3.597761637594992 l0.9755095309312196,4.0557528144582236 1.0409148883405632,8.057969529532794 m-1.488935244623673,-11.13735290871308 l9.799109945598742,-1.212576363829622 4.481796468746475,-0.27720985150174104 l0.5823550662795122,0.2043360552882472 0.8948836042232768,1.0524819264332963 l0.10599020619068267,0.5734287342611247 -2.4649223372512017,8.885331122187807 m-11.358919933400674,0.948605006732053 l12.718096708257624,-0.818809933615467 " fill="none" stroke="black" stroke-width="1" /></svg>