<?xml version="1.0" encoding="utf-8" ?>
<svg baseProfile="full" height="109.4626744612192" version="1.1" width="112.07111749675025" xmlns="http://www.w3.org/2000/svg" xmlns:ev="http://www.w3.org/2001/xml-events" xmlns:xlink="http://www.w3.org/1999/xlink"><defs /><rect fill="white" height="109.4626744612192" width="112.07111749675025" x="0" y="0" /><path d="M25,25 m0.0,0.0 m18.14560280130223,5.4280163397279395 l0.022250789426988507,0.48063821516307115 -0.13488607716063783,1.2550700515016688 l-0.8406867321743198,2.134642199632849 -3.072200565534552,5.474956622591272 l-3.888413827508344,4.914734606589812 -4.1143674437930295,3.8502355830255066 m13.684568319030173,-14.808982451130422 l1.9394977023386877,1.0574634799719387 2.6208360917924045,1.9848661916499049 l2.0163899744399694,1.8713327464040057 1.0667282175845725,1.6572337663724916 m-13.727841435986244,2.4637531992621833 l1.098499935309546,0.020275065932174006 6.645193592717359,-1.1110407298036191 l1.6754421471436816,0.04899070413675887 m-12.211070929747416,6.101078135870046 l0.4868273845182061,1.7039827325088779 -0.009072639682313845,33.767276489378546 m0.09902352598070051,-34.62187140263984 l12.306916974069596,-1.5365148788553928 1.2382396490814447,0.47810085359548515 l0.38949242316139,0.8777359994286175 -1.6550666558974805,13.591631012262361 m-12.06044594280191,-6.894570172457676 l8.302441020968603,-0.9055491908268831 m-8.406700759890331,7.873221989068409 l12.146517135854992,-1.4256373560148057 m-12.058271199484684,8.79740539880214 l10.130541340859573,-1.134649386828598 3.1525733630161956,0.016308814505056283 m-13.119650464971295,9.277587360485185 l10.211789777411045,-1.0948598258499578 3.5068454816594032,-0.007492790258473607 m15.432470572026803,-45.62065723375856 l-0.017977832060669517,1.5431832760514688 -0.7041952889279277,1.7509602267293405 l-3.2151791916042147,4.9351745367593445 -3.9088023708452626,4.52089043647437 l-4.29760307301256,3.7479267199162667 m12.805263488857749,-8.990042374420113 l2.8019013719214207,-0.10727399661907601 8.304094250890035,-1.8843087389806803 l0.6946278889984833,0.19311939384760368 0.27882016316098907,0.48339304486823886 l-0.031189298095806978,0.6718156331971599 -0.7412452809559381,1.3709065880626703 l-2.218633863417132,3.013536717369057 -2.7765981310686554,3.2845092236547915 l-3.1743967082638926,3.314455112877918 -3.5261945605136034,3.1483189880977163 l-2.874672486068571,2.2557452235560373 -3.018670347774488,2.0357716380194355 l-3.0633532307490676,1.6626969845738822 -3.128527840320142,1.2292378424127421 m8.226769401805704,-16.836016658618863 l8.10246511723385,6.098801739994948 9.800072467708338,6.754055299819731 l3.6649934363295116,2.241921906346343 2.5209266404255093,0.8225308033042147 m-26.013917847981347,3.611704374535121 l0.5297444163753477,2.4785066510786082 0.8683983015996902,5.974767451693144 m-0.7610604307032509,-8.299789149280567 l14.900170475988341,-1.931359615701316 5.220286649320325,-0.3914322367941163 l0.584007400028535,0.27892375673537917 0.2990222879733864,1.0860867428142464 l-1.7134771060489469,6.70726261560061 m-17.265092417495506,1.9974869974785066 l18.331658070615507,-1.7397256871231532 m-10.690859174236724,-15.67906909801844 l0.7603405838475463,0.88228346212681 0.2458687657672758,1.3927280442810914 l-0.13303533852114813,25.90082365581399 m-14.035325068096537,2.56666782147937 l1.1709485374278228,0.6956604717314775 1.3807348362518825,0.02622576397643358 l23.156529243447153,-5.181847340592873 m-3.0351399603335354,-4.369785502991392 l1.9781535097780523,2.031858287171205 2.1988092554204317,3.019879706481106 l1.7668620561768982,3.048861046006305 0.8047821814343888,2.12993453598103 " fill="none" stroke="black" stroke-width="1" /></svg>