<?xml version="1.0" encoding="utf-8" ?>
<svg baseProfile="full" height="109.43954175261236" version="1.1" width="106.69814737511422" xmlns="http://www.w3.org/2000/svg" xmlns:ev="http://www.w3.org/2001/xml-events" xmlns:xlink="http://www.w3.org/1999/xlink"><defs /><rect fill="white" height="109.43954175261236" width="106.69814737511422" x="0" y="0" /><path d="M25,26.606746007458927 m0.0,0.0 m11.866249965204108,3.5559603520669483 l0.13707569980229198,0.6209548374089835 -0.05790364720225174,1.4733726344295175 l-1.322989500472327,2.8154198896171923 -5.992274168472549,9.561235199247552 l0.11034063611599106,1.0006179160606015 3.3437157538893647,1.7466366843679975 l2.5551104087224887,1.6885569178651383 m7.165717781534755,-11.522339545467002 l0.006230283273572724,1.59493432324404 -1.5552705915408107,2.8287547385267753 l-5.183515610317882,8.075639965582846 -6.970211915893068,9.423723011540229 l-0.419082711599702,1.1955055086502082 0.3642722403729968,0.6167511060714037 l0.7417664602941388,0.09840387300971264 13.239335380140567,-4.588929976818019 m-2.2957650932985714,-4.340027535570618 l2.4682557734680097,3.8879020660746955 1.4495550806618622,4.164783629433384 m-8.668093469084472,0.5692873591819434 l0.5173264900750878,0.9607484571161199 0.19777983836047286,1.4047060898981005 l-0.07270365325427193,21.000198243615674 m-5.288752866525195,-17.034083180209286 l-0.1388827983605615,1.9409256602974962 -0.9026046137883116,3.838812542123727 l-2.6261900833632548,7.677473824174059 -1.863868226089788,-4.409231232655169 m13.3845958058798,-9.359035203134706 l2.109510745625568,0.751753121362907 1.7078306996301256,1.160371830074407 l1.6512083484733049,1.8505004934073939 m2.989887090775456,-37.52986024058265 l0.749856962115002,0.3015839993686804 1.180376801364534,0.03014236726890573 l17.062949220558334,-2.6266428716966077 1.344868739603821,0.5755092927808201 l0.37115424482409687,1.18492906482447 -0.07930257875722078,8.501094738208804 l-0.46325538259273147,14.94919370578132 -0.6901443349011325,6.755276714959877 l-0.8791298437066987,3.254574239879149 -0.45248312453515577,0.9236674469473322 l-0.9960088878978737,0.8094282004036146 -1.1024017622915556,-0.25807095505806193 l-2.1963831235615836,-1.8047235726479107 m-13.235041586040115,-32.806503761583414 l1.648808354256932,1.0990270201499124 2.0554117503400318,1.9269981139382097 l1.5731013502625029,1.9847367500207995 0.6710113093035971,1.4314023062788863 m-7.137641936508965,12.840987986850402 l1.1917408026936072,0.2492062245855305 1.0325232842283234,-0.23787754192282687 l7.655959446588946,-6.196507506778238 m8.539243802094653,-17.39285292366629 l0.06922457153207705,0.3288995748312561 0.07369302805126605,1.0355281595994683 l-1.9920771027196849,6.92401413988284 -1.5158134907194476,5.152816459072824 l-2.466012342126724,6.387651834935848 m2.795776289877581,-23.650658574686158 l1.225707993468041,3.0692057897826177 5.6253437968737945,3.926421736266762 l9.295267021531544,4.802653599038213 3.0941685688674982,1.45428736410391 " fill="none" stroke="black" stroke-width="1" /></svg>