<?xml version="1.0" encoding="utf-8" ?>
<svg baseProfile="full" height="119.30269977957708" version="1.1" width="94.94542910817916" xmlns="http://www.w3.org/2000/svg" xmlns:ev="http://www.w3.org/2001/xml-events" xmlns:xlink="http://www.w3.org/1999/xlink"><defs /><rect fill="white" height="119.30269977957708" width="94.94542910817916" x="0" y="0" /><path d="M28.700432900447172,25 m0.0,0.0 m11.224601155746116,3.9007783419661344 l0.08893613074209296,0.5014191195705602 -0.1064676739222978,1.4177374230913846 l-1.0623055193776787,2.486898562328629 -6.310413939888111,10.138306317767578 l0.28125691113448403,1.109811914830301 4.367950843125749,1.6133510142646412 l2.4753036625867506,1.438482754915949 m7.1329847811829445,-11.617422344402911 l0.10325066830311133,1.7393518069724985 -2.2713419800158627,4.219458529167292 l-4.88932870079007,7.732777555852542 -5.9088022216948115,8.722727632630109 l0.10496961226203114,0.8693044834627097 0.5573209467011605,0.3020136618066676 l0.8376693331951398,-0.1363867519742998 m3.455667470645572,-7.805409463760638 l1.7054551684441537,2.4098385074574566 1.2591684318046075,3.289757565035302 m-6.575653450553565,1.7348157107529374 l0.43336785363611774,1.5009659108478057 0.0782725530256879,1.4306593889374015 l-0.08876278179147465,20.18037036923373 m-5.116218382558882,-16.50031083526643 l0.021504876091833942,1.5535215449756095 -0.34982139233080306,1.3645137869128658 l-3.383981669373313,9.075932503467996 -1.765015586777854,3.872735437501376 m13.956109682014736,-16.288505745033504 l0.8947086295726189,3.4666222755007046 0.7256617355090853,6.188530451447646 m6.344490785034804,-40.056616845153705 l1.9729149280390383,3.4958487103483398 1.322988550543466,2.9106204735798773 m12.136466530415785,-9.73551601124552 l-0.17002069288005364,1.1547754074979413 -0.9886735452553785,2.8624829096063347 l-1.1856553653738306,2.569260260966133 -1.7681908617074187,2.978291373875025 m-13.253594460873499,3.4823209096185304 l3.15009429984497,0.13054012771979429 12.735083507564369,-1.5202063374890231 l4.249552916547516,-0.3063631978790782 1.7246334157280825,0.16046924925290437 m-11.846035881942507,1.4154686175383242 l0.5074011023030852,0.9160230391958597 0.1323653600912554,1.278164179201362 l-0.010653729879391885,13.295531144304482 m-9.481035451308248,-6.94851123763181 l2.717037660973327,0.07153183315484227 12.622001921359901,-1.56568443976169 l2.902911822693553,0.09805129262408054 m-21.83603195613186,9.399313024575168 l3.5352604031022232,0.20268161857951253 18.653740268764025,-1.944797610621253 l3.0724703554189294,-0.10555193499379835 2.1294271780105674,0.2479434878795895 m-20.899321913439696,3.406773196819063 l0.00010798518523985563,1.582762422911428 -0.6317143441052586,3.8277504282650767 l-0.8711040409979043,7.293703339104646 -1.9074001424279898,8.649339650702968 l-2.1624130866520033,6.319208539461005 -1.4793094134981106,3.824444727310611 m6.966601043479333,-19.403940460392885 l1.9644664463014272,0.3199332760419308 12.81472097411788,-1.651969643436866 l1.305489170756986,-0.11879936947237418 1.2435356376504028,0.2551642225821575 m-9.810566870286268,2.7442383696212773 l0.4069341458411914,0.6823137482986776 0.12892092436476174,1.0605890024883502 l-0.11173203503409752,12.00816202074431 m-12.31785390627454,1.236323358864469 l2.0617876257170518,0.2806115024255723 10.643544777987358,-0.7317913729770725 l9.952917846590177,-0.41347344582174744 1.7767480924492722,0.5248795730677516 " fill="none" stroke="black" stroke-width="1" /></svg>