<?xml version="1.0" encoding="utf-8" ?>
<svg baseProfile="full" height="103.72137536353102" version="1.1" width="123.88528558992962" xmlns="http://www.w3.org/2000/svg" xmlns:ev="http://www.w3.org/2001/xml-events" xmlns:xlink="http://www.w3.org/1999/xlink"><defs /><rect fill="white" height="103.72137536353102" width="123.88528558992962" x="0" y="0" /><path d="M30.480593610323982,27.999900215243507 m0.0,0.0 m11.270298989378482,2.944021950241898 l0.10997447952727582,0.6197721368422824 -0.15815338400749424,1.3485682483095656 l-1.2251933622751787,2.352952832212254 -5.949800494838684,9.15696622228646 l-0.1284432592027479,0.8861831133978627 0.2928158256695511,0.4398883080839869 l3.34959990870394,1.5991384344391684 2.810411169076277,2.0699269470509236 m7.237718172367951,-12.081876672581135 l0.04617865366861184,1.0758029083925595 -0.24048427902294092,1.0683438857578857 l-6.598903375169603,3.986407885208487 -7.407311640046311,5.0662743305338696 l-7.548002925529117,3.908223448031315 -0.678891050352738,0.6968234860248969 l0.5594287864117183,0.5266239826474008 1.1008323952155412,0.2105826538699175 l21.193162437137385,-3.4206790180783906 m-2.720348862555506,-3.2878865132989104 l1.613965828826946,1.2548019402844863 1.9282789077144018,2.033680439124312 l1.9085788807916142,3.1653752922040623 m-12.19415076515224,0.17657007365660507 l0.6623061668236402,0.7589722582357158 0.27907210277269284,1.5793269109543422 l-0.15369990836230663,16.991036010816536 m-7.91211214382468,-14.239904545769724 l0.0512028822843192,1.3569465647957712 -0.6644969647418049,1.1358716963063593 l-3.102463920981129,3.8955034662258945 -3.2119628606318473,3.5174113783402374 m21.566456463076875,-11.389068725705185 l2.0955709154426274,3.112344872538586 1.9074855129351103,4.979885533292229 m18.24075642500232,-36.81574300661443 l-0.11976508304685447,1.3505151573144458 -3.0602912818220434,3.8509815816828956 l-3.789185822181476,3.3617018329076576 -4.095475824274855,2.933960569479031 m18.23019759817103,-15.176128084685626 l1.4654414691606856,0.37241075113677197 2.158094753813309,1.084380430242915 l11.400220729863603,8.60751897544772 3.2089443421526207,2.156586226197875 l2.563257083944135,1.4769183819259508 m-21.859529189105526,1.6372404866941304 l-0.08658186756208873,1.2243166651050086 -2.486851683264119,3.1368286725572507 l-5.306045235381652,5.461042040888056 -5.922384544072546,5.0670783820130865 l-0.7601286240936267,0.9073646584338313 0.17256469690395018,0.644053201296094 l0.8444347774327283,0.2399885989883698 1.3484567374022387,-0.12880058212823164 l22.921489394449715,-3.9590691622852456 m-3.519438440574693,-4.138181613875768 l2.2554873420718304,1.7021954480138384 2.2948084443027392,2.317565389642273 l1.898549050641975,2.47847614899165 1.0854411645702338,2.126483285164743 m-30.015995279909333,12.441239346335532 l-0.8699984225228907,4.102049983038013 -1.8992220217164757,4.1415655756005405 m8.447986255475561,-12.191061299967773 l3.1453240320971925,4.376407174366494 3.3584982120055242,3.4937890612545854 l3.6011585951415808,2.417422479970975 3.167599486474853,1.2311718990400085 l4.069032267088357,0.7979846873224486 3.525652245469982,0.3582257174191515 l8.042824660058715,0.13818435470073298 1.2070369990128693,-0.2920005206207534 l0.6075755464403412,-1.057524336842464 -0.4901384539810785,-0.7824001129787772 l-2.4136159046597108,-1.8393497641859635 m-16.219815875741073,-12.722526666489747 l2.1482124987659716,2.6786486635081754 0.7276958952948395,0.648909034797931 l0.6374105987837383,0.2182976439552642 0.4987234829722587,-0.29510718789363594 l0.408173460569161,-0.8717002531401835 m10.89007195690344,-1.824897239985155 l2.2315640464302247,1.2765509652293743 1.67409739944876,1.3410479793065504 l2.7534546040685672,3.370008678596185 " fill="none" stroke="black" stroke-width="1" /></svg>