<?xml version="1.0" encoding="utf-8" ?>
<svg baseProfile="full" height="95.10006631624583" version="1.1" width="112.49971479867143" xmlns="http://www.w3.org/2000/svg" xmlns:ev="http://www.w3.org/2001/xml-events" xmlns:xlink="http://www.w3.org/1999/xlink"><defs /><rect fill="white" height="95.10006631624583" width="112.49971479867143" x="0" y="0" /><path d="M25,25 m0.0,0.0 m19.057346469177038,3.7194732723652035 l-0.003946316137887758,0.43597894696710726 -0.44454639750764924,0.9930956951818332 l-3.372242381942694,1.2114824292137483 -5.199388900700855,1.7778962045342133 l-7.270191536398203,2.0919107944683484 m-2.4378892450821215,5.0466789565114265 l3.4241426096863834,0.07379023404615113 17.17752355805464,-1.8090979777888707 l3.249781333925513,-0.18377843356072066 m-10.879216427741737,-5.058652445343985 l0.7098943855462478,0.7533261885469275 0.20270161585102062,0.7188637142833268 l-0.0491572785441618,17.943234884313778 m-0.6118269019299541,-12.435067220674615 l-2.7169167550139397,3.243490235915832 -3.101737354618325,2.8689198063146852 l-3.5817093949893186,2.510108288230234 -3.8025462227930804,1.9561369261066663 m15.658237212658786,-7.84005875757557 l2.4362911513480188,1.1224036656671739 3.0462115363810995,2.2338152679835974 m-13.055732009509326,-10.383614481909058 l0.7824845429438315,1.8509515609097171 1.238862336762964,21.536749199049996 m-0.8186804618227846,-21.021836446219286 l13.709099922778584,1.6942108888089906 2.386694142867822,0.5379629394481465 m-19.819178047990775,6.516680169860868 l17.764714545833098,0.179919658788871 3.045577264948159,0.13593817581442177 m-21.226741368810888,6.364624208031052 l0.9814115095243822,-0.8975813944675212 2.459989157850101,-0.2665624603974025 l13.860661368162205,-1.332472247048471 2.7247509969428676,-0.017196157982243422 m-10.368076875841307,-16.405711240130408 l0.6691036145323654,0.8057634112600589 0.25182333958407666,0.9123120612410002 l-0.14378621815786197,24.960388585174666 m17.442258182703327,-32.996906470686156 l1.4857931144095895,1.1138546323300154 1.4756225690076725,1.6319816471984696 l1.6024483031849692,1.9133610226190463 0.9461855735406544,1.3972396409783128 m10.76242350305234,-6.410047659491306 l0.09349468623941,1.023416601556066 -1.095751298013661,2.2048817798010725 l-1.92863445619113,2.9037263559472826 -2.076728071709129,2.5326552576922277 m-14.648818714826383,2.140732296573232 l2.6919923366286485,0.17367983404397228 17.42429669086466,-1.6147927780778162 l3.2904822861910987,-0.12191704385761791 1.8410864214517153,0.18009935251419418 m-25.89076751221773,10.334602552331663 l2.720431892240477,0.19296000217817433 17.085465842567096,-1.446863014891461 l4.789648026118196,-0.10229952764852115 2.3343246201153978,0.21401875936918882 m-30.129784057673746,10.493079214736301 l3.0208324533126096,0.20144856079272774 23.19522560160384,-1.7169473148573722 l6.6145753812520125,-0.17192183455398916 3.519818904993155,0.22979279727509358 m-19.627621563143336,-14.704054411497053 l0.6277968784948258,0.8518701805595971 0.19155135402005297,0.9047148447041901 l-0.10202868511311286,27.2032239326664 " fill="none" stroke="black" stroke-width="1" /></svg>