<?xml version="1.0" encoding="utf-8" ?>
<svg baseProfile="full" height="100.46310398199122" version="1.1" width="99.21092167610797" xmlns="http://www.w3.org/2000/svg" xmlns:ev="http://www.w3.org/2001/xml-events" xmlns:xlink="http://www.w3.org/1999/xlink"><defs /><rect fill="white" height="100.46310398199122" width="99.21092167610797" x="0" y="0" /><path d="M25,25 m0.0,0.0 m12.026260159254575,2.777398929721542 l0.08160993425420442,0.5463773673279074 -0.014984720171866417,1.2849767024181513 l-1.0423137077616402,2.9942046089159096 -4.128021265860586,8.778609422374316 l0.07625380639477106,0.8630513045990701 0.4602515344679961,0.2769435075404982 l2.679285312072173,1.2311406406654346 2.4228801389743895,1.5162335655753172 m6.296827478680497,-10.435010451035462 l-0.2314722403464164,0.913276483454886 -0.47028008056193404,1.089631939630646 l-7.238112129973896,10.876701003264605 -2.7964381419863447,6.71265883250737 l12.234208742748791,-1.4164593665049212 m-2.4587693846635355,-5.26649212131546 l1.121624501086656,1.2244224963137662 1.3434918010972685,2.0397561722467885 l1.1420189924950335,2.2610164768762933 0.5887787105864031,1.7223793900333666 m-8.032212753852775,0.40827672348507593 l0.4945725871892366,0.7992117261321442 0.2595933735965993,1.50109445529175 l-0.09019017598344635,17.76370417247223 m-5.41791317163223,-14.996390647750832 l0.03395557628896165,1.4857300764024155 -0.6132895671255332,1.6976779760375185 l-1.9324367819861268,4.340395695148285 -2.1552158392515786,3.7616381531008916 m14.446282086516677,-11.624437956284375 l0.9290944975894162,1.266436251111438 0.9614270396183916,1.5804778477093628 l1.8341319908825822,4.8423485014441034 m2.266136901637906,-30.091623805126336 l2.8561318242368388,0.12555232436301111 6.90379606267106,-1.1069716063432842 l11.782197590075155,-1.408397931532784 2.5917609948502855,0.15511997522661558 m-23.872356488406616,10.671449450549206 l0.7922391397953386,0.17370134588352557 1.19545334751567,0.013246657303949489 l17.520225990978517,-1.8389885139496438 2.5188650122566933,-0.2747575772860171 l1.8304276977756087,0.16403548349030891 m-26.916644148374147,-17.406905589683735 l0.6991697825026567,0.818733444149758 0.268094109487169,0.9344158761594873 l-0.09138704962874007,8.938647861965455 -0.5495042654827903,8.327720272658183 l-0.9458723651475965,5.560005192276329 -1.285880562665425,7.635927744321485 l-1.040207868747225,4.400982002431902 -1.7211187808919615,4.912119494333479 l-1.7288272299587453,3.391288696546653 m10.761259460217879,-37.08224120318731 l0.6571031360921111,0.47693402337173735 1.6304188023851645,1.1858542740730684 l1.5238987785415472,13.42449382734972 m7.5082823102271705,-13.931735444355217 l0.6275902502257933,1.0604776400709577 0.1509570235841568,1.1121213181230818 l-0.02664129619407681,13.6554012888891 m-13.010979681331007,1.8312094920003734 l2.4602514533025652,0.17981247107810397 12.522167871967772,-1.469868533603647 l2.865420040779164,0.183051750970253 " fill="none" stroke="black" stroke-width="1" /></svg>