<?xml version="1.0" encoding="utf-8" ?>
<svg baseProfile="full" height="96.58038714752601" version="1.1" width="111.06231048021331" xmlns="http://www.w3.org/2000/svg" xmlns:ev="http://www.w3.org/2001/xml-events" xmlns:xlink="http://www.w3.org/1999/xlink"><defs /><rect fill="white" height="96.58038714752601" width="111.06231048021331" x="0" y="0" /><path d="M25,25 m0.0,0.0 m14.563104435000156,10.981798849695702 l0.452514847679566,0.15324865047959269 2.336110675776609,0.04866447754261279 l8.878688272947656,-2.2014782949485956 0.9412712997535945,0.016813552037806382 l0.495658323150162,0.3397593936614524 0.22228029804797172,0.6441324679255178 l-0.31130619374419616,0.7937358430253867 -6.317314384219729,8.961373750866988 m-0.4694813520780557,0.30627035232988364 l1.394692053953413,2.7251969760176755 1.0153840036362094,2.640748316130318 l1.0014797779461657,4.387975407376086 0.22058723147813641,4.526261394359819 l-0.41381573376067354,4.481454679615967 -0.6545780318036376,3.593555357168018 l-0.855979050707242,2.4894166279358285 -0.5718988779093855,0.9039313015828974 l-0.6443758115261907,0.6010906075164544 -2.0859674324492996,0.18643743720661154 l-1.3799510959236607,-1.3098945416355359 m-4.707547781928456,-14.56249003835862 l0.9256583381250962,0.21928923275517534 0.8031673289960015,-0.3946970977089862 l10.959877276258846,-4.620144067529247 m15.70896185684386,-17.35265010930219 l0.6099659395053717,0.8545807557241153 0.2782321782408646,0.9572411114451459 l0.007120456791157505,5.621952485880735 m-11.514587098667565,1.4391187682012343 l3.1768523571211738,0.19936031462727155 16.935812217348303,-1.939046318472041 l2.4842945935411413,-0.08464388235679682 1.929854390970366,0.23793635166233418 m-15.084715693971813,2.3878144044086356 l0.1847001938830721,0.8641102860483336 -0.2322435166221593,0.9212956166973894 l-4.671905226301779,7.527878538623813 -0.36242305510348294,0.8795217819189596 l0.055775606130753684,0.6577334163290005 0.37226933600864964,0.4938743217102021 l4.986372328614355,3.397993325315183 m7.433905109946631,-10.070481903531784 l0.047434510083210285,0.984721289608018 -0.3049389754775499,1.1556870420341987 l-2.5773339129607047,3.8441043078086237 -2.8761659092772174,3.7211720429857666 l-3.004919572396515,5.6295356494020625 -4.348338847345841,7.668077129107759 m17.393501274762695,-11.058241375022565 l-0.3211468967268667,0.921745727285725 -1.2641807091218127,1.033245295180375 l-6.83347139147601,3.3237882607629357 -5.965132768548349,2.7103558444953166 l-8.305518393057701,3.704959542425406 m20.341616311568263,-15.012718701556421 l3.418098497747053,2.9716633022168804 3.534892215143735,3.5779454336097047 l2.5185190751204765,3.429303085072508 1.5128955811985252,3.0685794238008155 " fill="none" stroke="black" stroke-width="1" /></svg>