<?xml version="1.0" encoding="utf-8" ?>
<svg baseProfile="full" height="141.6925896705007" version="1.1" width="94.21739906506815" xmlns="http://www.w3.org/2000/svg" xmlns:ev="http://www.w3.org/2001/xml-events" xmlns:xlink="http://www.w3.org/1999/xlink"><defs /><rect fill="white" height="141.6925896705007" width="94.21739906506815" x="0" y="0" /><path d="M25,25 m0.0,0.0 m15.14573247289195,3.5899522796318775 l0.4345940392304734,0.19645726265037392 1.5692353005075517,0.1434133696175783 l13.69260450623075,-2.582497329146235 0.9874444181163952,0.1116478727865452 l0.506549647553438,0.39194576998638525 0.20897726337329758,0.5423729996021244 l-0.31058181512989064,0.6605313852178882 -7.6658119506804585,6.569818216258827 l-4.422674683701608,2.7226478766723092 m-1.285190394516789,0.305619602093172 l1.9705441362126177,2.7000935967226822 1.3344625337938505,3.654435583613497 l0.7312759746747712,3.2779665896081327 0.400197921489666,3.2426600625579582 l0.14883115931588398,3.139000941988052 0.046326890716571804,2.9327179950162257 l-0.16230348814929552,3.08079380175016 -0.45188369361467734,2.8835570972158022 l-0.7891193074719052,2.4811716597762548 -0.5174096275330691,0.8026509631757173 l-0.5208683112607301,0.41275118761380764 -0.5441982155812538,0.04347265078301436 l-1.0534635274868718,-0.6067554312345299 -1.3873207129887244,-1.7075090668818695 m-13.946687272036572,-15.70159884781854 l1.7426620786484543,0.22671949431686447 9.875423013105541,-2.242061773038872 l0.7767671868914463,0.5902501632459838 0.20364281576571433,1.1783267263117396 l-0.5350689977452872,1.533240575317536 -1.555309323686464,3.0939854521094454 l-3.8371152403783952,6.008565145412679 -3.764276242169538,4.517275312599215 l-3.342446108882814,2.998017254412434 m34.33397116387849,-25.21357543491352 l-0.33209243630249075,0.6141144701232862 -0.5066854175853275,0.9429835115556529 l-2.85742744323619,3.1729700951138997 -2.942279249912104,2.4631901429403418 l-2.921564709484371,1.7319141390160244 m-5.182784251541418,-3.7998417944569596 l6.644768788533659,20.436206672277375 2.1595698540522057,10.204794813981533 l0.8408708341402762,4.450932961067538 0.792402010485957,7.45820449919183 l0.6278901777088214,5.736909928421621 0.669636638297016,4.611411836089934 l0.865741137973344,3.8494378074537865 1.062030498696804,3.5447345582534266 l1.2848192954430189,3.237172654541214 1.4726029620695895,2.92245527844808 l1.698860334901331,2.528350309800189 1.9296971623964356,1.608586781651218 l0.6238281477384927,-0.42148525159883005 0.2700011213105898,-1.8013062790359335 l-0.05597825952454358,-3.531755171139895 m-9.749743077695957,-22.0460096220052 l-0.053481123409888656,2.054024664372363 -0.7021436688005173,1.9236678046577533 l-1.6029627678974037,2.991856102587796 -2.2031701180495102,3.3506883666062603 l-4.538101188330095,5.737108597399472 -5.295603849203596,5.004935593030924 m14.998567730138834,-40.62180830311732 l3.1175028484795284,2.7244197945567943 1.7238310278195137,2.4099309629270773 " fill="none" stroke="black" stroke-width="1" /></svg>