<?xml version="1.0" encoding="utf-8" ?>
<svg baseProfile="full" height="102.58149535732184" version="1.1" width="100.9754655564017" xmlns="http://www.w3.org/2000/svg" xmlns:ev="http://www.w3.org/2001/xml-events" xmlns:xlink="http://www.w3.org/1999/xlink"><defs /><rect fill="white" height="102.58149535732184" width="100.9754655564017" x="0" y="0" /><path d="M25,25 m0.0,0.0 m12.728823518956451,22.265972654864136 l0.25567867283787793,0.34179923476259993 0.3326829226914472,1.190160205436997 l1.468320528196746,12.608992026562369 m-1.2106869740359718,-13.84643087574837 l11.601781770414743,-1.782346613118236 1.1130438891057453,0.020517706934210504 l0.4251817149942658,0.35573867600561887 0.24268651270490468,1.1495807875888935 l-1.7714000579922833,6.931903397217664 -0.7071568147070063,5.343560785881293 m-10.330815981791345,1.493134077765791 l11.733455487896247,-1.5333194176857037 m-7.465749995220705,-23.459312432748693 l0.730971430832445,1.0494930473786543 0.3447640541039342,1.382471711553535 l-0.09672665858052339,33.17745706246027 m-8.267674492739042,4.245118277188806 l0.749173968440697,0.597197434488381 0.7508215097712854,-0.1057271992264748 l13.060033089818447,-8.548996624105248 m-2.299372403057364,-4.183167839717395 l1.0147712834668372,1.552617479764206 1.3436740714028583,2.776171809336787 l0.9270275217537657,2.554648598858554 0.48561951321529995,2.0010180084409033 m3.9308893175549273,-37.25921852066305 l0.4621075940154962,1.7030473327757327 0.0723596272540778,1.1775808130670171 l0.1175087732280213,38.97905645306236 m0.32625393880707515,-40.69873011803807 l10.82427429001732,-1.7443592801675782 1.0352571071809373,0.3484802241574121 l0.5899561950478074,1.0151042443706213 0.2133594646158584,1.1318535229119293 l-0.1680930902033709,37.47587659059732 m-12.268858489410205,-25.107721288021935 l11.87320812147665,-1.0350268322062333 m-11.688787730695536,12.343152659551802 l11.404056033997776,-0.9291966929704598 m-19.443828085344666,17.327770235385803 l1.3869219915660893,0.27557403336959885 1.9945996044059562,-0.03304445788931422 l18.25219956900484,-1.8799989147817242 3.1115904391624363,-0.0753767917539775 l1.7915628022404646,0.27124390380241525 " fill="none" stroke="black" stroke-width="1" /></svg>