<?xml version="1.0" encoding="utf-8" ?>
<svg baseProfile="full" height="101.93287730308208" version="1.1" width="105.1449080676416" xmlns="http://www.w3.org/2000/svg" xmlns:ev="http://www.w3.org/2001/xml-events" xmlns:xlink="http://www.w3.org/1999/xlink"><defs /><rect fill="white" height="101.93287730308208" width="105.1449080676416" x="0" y="0" /><path d="M25,25 m0.0,0.0 m6.587429529867935,20.506106957257717 l0.31493052787736636,0.10180352482437674 2.3325327537445077,0.07251901719924983 l15.18012718313785,-1.9892150148249865 1.780702894267333,0.002216285710261246 m-9.568754149518096,-11.579391668340579 l1.209795986428502,1.1038817038751465 0.8111015960428278,1.408942797390958 l-0.211919346449902,38.969871746585206 -0.18294594367679762,2.0550692652418276 l-0.4637995554945515,1.0359769052309726 -0.6726362373592977,0.24509578293193357 l-0.7753203123350468,-0.29446302117656564 -1.9653561079816724,-0.6448210052821426 l-2.0841549441709226,-1.1345241115398064 m6.247081774897508,-26.942227324831055 l-2.8001074564294863,4.758087238480287 -2.53917254154012,3.545437412656072 l-2.880017198794292,3.3608561305294304 -4.3031755441618,4.3879668587977445 m14.035348999956895,-13.9505601826367 l3.1146353414385635,2.3365416849610714 3.5904635540148457,3.772867785644057 m4.483880973769437,-11.965414769315267 l2.239975875230038,0.1906624627558042 19.628413437293908,-2.2656903366620553 l1.8304756982647035,-0.18515843994286896 m-13.086270090606773,-11.340797964787232 l0.9323132084051531,2.8608328764266426 0.12234213964203798,4.793299710618748 l-0.3206225819827721,11.873123143060633 -0.8351254153276999,13.9785353424107 l-1.3676272818442163,3.9901485501980853 -1.2962662071598126,0.18480836042593812 l-3.186963917329624,-1.4274094903312964 -0.9127085876753402,-1.3895809129390029 m4.888226226977918,-15.910089417091166 l-1.4994566154370208,1.4828367709897372 -2.9019014356746897,2.191348652888526 l-3.1831245534292583,2.786681808245141 -2.78863275293192,2.2725695240032904 m13.409846639281536,-9.811679369070129 l3.8922055744475026,2.35639203137009 3.5994608258271765,2.5184793912047354 l2.6769834123068805,2.0651645149961406 2.062692691832272,2.094078087765311 " fill="none" stroke="black" stroke-width="1" /></svg>