<?xml version="1.0" encoding="utf-8" ?>
<svg baseProfile="full" height="108.41425940166566" version="1.1" width="102.15124219512184" xmlns="http://www.w3.org/2000/svg" xmlns:ev="http://www.w3.org/2001/xml-events" xmlns:xlink="http://www.w3.org/1999/xlink"><defs /><rect fill="white" height="108.41425940166566" width="102.15124219512184" x="0" y="0" /><path d="M25,27.80556063610042 m0.0,0.0 m7.445343839637419,4.321079396135767 l0.03784626401749727,0.5555444811674052 -0.31844869702890616,3.2734312817291555 l-1.5799678508336024,5.166949280266066 -2.070829933336046,4.945591325182018 l-2.3070909523305003,4.476118481190849 m5.829830318469931,-8.38280482454996 l1.6704941375895537,-0.31490982507812526 8.687115410743136,-2.1186077380033517 l2.000614934804148,0.04091639494685582 m-7.451673562857934,-14.7688688890871 l0.57306466217856,1.5681318768097898 0.18400080084434076,2.682172754842045 l0.02538499821124333,54.163954770013824 m-10.948417330688356,-20.323074300377826 l0.9966280122639599,0.39890130336669605 1.4744753154437196,-0.5728549319471505 l13.232997373386409,-10.192651924290006 m13.431578279503636,-27.04076528726004 l-0.14076135055080272,2.106427257478544 -0.556107427974721,1.7336960088148328 l-2.3121637898871037,5.7943060099265935 -2.8565273537868174,5.4902091589548006 l-3.9900690354552206,6.483571785976332 0.11992074850959838,6.169095390062 m10.50156828397289,-12.931909640256048 l2.8768244362143003,0.5766480236322935 14.735733643550656,-2.1970483012964204 l2.8598780205108496,0.12572686924862633 m-24.418206609719288,3.840916758697386 l0.5790825772522973,1.3979947146971072 0.12184817589711967,1.3750979170549162 l-0.08060157672254736,7.800817784522237 -0.3022554908335891,6.38443965470999 l-0.8558613655707782,5.900257476909712 -1.15235794242403,4.403493201407665 l-1.379412201824909,3.2123135648564674 -2.317964988195711,3.571139653240226 l-2.358834056534891,2.3874638860662225 m19.098522722254245,-33.569382178000154 l0.6235318588705289,1.0909165427449243 0.1586817750227735,1.2785523777197738 l-0.05727193549627937,30.887282379670186 m7.448513826409133,-30.966234559381427 l0.5035876185877383,1.0318552137411452 0.13229869454073173,1.1833836749443878 l-0.03670646307828563,26.80171413828578 " fill="none" stroke="black" stroke-width="1" /></svg>