<?xml version="1.0" encoding="utf-8" ?>
<svg baseProfile="full" height="104.32303513754394" version="1.1" width="102.29937792626714" xmlns="http://www.w3.org/2000/svg" xmlns:ev="http://www.w3.org/2001/xml-events" xmlns:xlink="http://www.w3.org/1999/xlink"><defs /><rect fill="white" height="104.32303513754394" width="102.29937792626714" x="0" y="0" /><path d="M25,25 m0.0,0.0 m15.608657748740896,6.682980095268231 l0.10181806124092747,0.5157330907016108 -0.21534511876199708,1.6567075075922282 l-1.471275388259238,3.103208693007206 -2.33565611192402,3.3611222592761134 l-3.18316202979828,3.7719727279053403 -0.2581100356411016,0.9313215105541363 l0.2860822474578958,0.8122716282610268 3.6644208706414774,1.3506311140277443 l2.569620895143967,1.351609737504454 m6.451254087684212,-9.726531591860157 l0.060031087764365276,1.670981423396778 -2.6478444606986633,4.132709876851779 l-4.170395503959403,6.131081721739636 -5.023310055256767,6.6903833973204 l0.3842311906647182,0.6764963113632163 0.6262414901053833,-0.03245592438271258 l11.149806364131457,-2.885687768526141 m-2.373583805358436,-4.361206622094406 l1.081090032976539,1.4121703215207395 1.1545040608610968,2.051487387583927 l0.9890438996577897,2.1760875520849643 0.5408223776708803,1.842154717748558 m-7.265851381039072,0.09175553162532168 l0.44767080816927807,1.5658353090508081 0.08548230280794389,1.3200655462189628 l-0.11630975665210135,17.50616541126068 m-5.39080705304322,-14.89865275972581 l0.010912989049787112,1.3798081616524538 -0.46070464335378275,1.1516306918328618 l-2.1953992173377204,4.047624374424103 -2.1970519504461152,3.473414993447226 m14.094050988015697,-10.737012173805162 l1.4577044883061334,2.9443219632870123 1.4683478656881002,5.197868989297152 m12.937332742777977,-39.88514475423486 l0.04573957374743252,1.4265848308669742 -0.6483850062588028,2.060416823387091 l-1.5248313979394246,3.378353196314671 -1.7982905992952671,3.117924327836444 l-3.8942618479433753,5.309229024574007 -5.036591977351795,5.201271259911918 m12.845784007530337,-17.622189036308573 l5.072659363607357,5.012531220268702 7.824951675229445,6.996279454952399 l1.767483091780932,1.2796703962442406 1.780800955133699,0.5663925762478182 m-21.278574704290445,-1.7457169949428741 l1.3051120687040767,0.15180763069006076 8.346989550964116,-1.034360167938391 l1.973687374821738,0.0884675863917729 m-16.139673233071512,6.285500382081893 l0.6854471567485305,1.617301805093963 1.415441127981756,9.133520285141675 m-1.3714304891924338,-10.370830338891974 l19.027053722850162,-1.7402393867138257 0.5005047818050264,0.23992948136501172 l0.3253069215995706,0.4395095674227682 0.05018661767060392,0.582810536329886 l-0.8258000846203978,5.890732810302571 -0.772451671052066,3.4068194152568374 m-9.405150355228086,-8.644052404140915 l0.4725342627604324,0.7299968071126484 0.04160384635098732,0.5871387603384753 l0.09229513626358547,7.069619419930245 m-6.177538298000345,-5.794127838501423 l1.3525687099104715,2.195795076388535 0.6715428161830274,1.9642768342688737 m10.512330618852776,-5.565118581676579 l-0.0719822555358057,0.8489456415736604 -0.616579060054632,1.8023112601718032 l-1.6995423537867298,2.9392418255705137 m-12.12310192756933,2.6937343828854874 l16.947402661976295,-1.442845422639289 m-15.596868237038272,5.327344136178723 l0.3883928826005482,1.1850568420158663 0.2652196069182406,1.95205950106098 l0.5994636715773344,10.32903175994584 m-0.5417955220797347,-12.713482136895621 l12.57001504398942,-1.3842572398852453 1.1287875493772328,0.3543120578797283 l0.33549604916222237,0.9023541659754475 -0.807405073976607,12.291032782701938 m-12.661492956247546,-6.22487182506619 l13.093016602578755,-1.0739200225877443 m-12.823323721474823,6.64735693103049 l12.439423511432773,-0.7737539765907991 " fill="none" stroke="black" stroke-width="1" /></svg>