<?xml version="1.0" encoding="utf-8" ?>
<svg baseProfile="full" height="108.88491834766808" version="1.1" width="99.3926610743618" xmlns="http://www.w3.org/2000/svg" xmlns:ev="http://www.w3.org/2001/xml-events" xmlns:xlink="http://www.w3.org/1999/xlink"><defs /><rect fill="white" height="108.88491834766808" width="99.3926610743618" x="0" y="0" /><path d="M25,25 m0.0,0.0 m12.81992459078062,4.85188641814296 l0.019674263512772412,0.5089486751850153 -0.7971831244030545,2.69650232684627 l-1.9700421085596334,3.47960027608544 -2.730138684917435,3.4052587222247346 l-2.953102144000108,2.5654502044857206 m7.970535353130639,-6.958234118882635 l12.490587846677434,-1.8272117867640385 m-8.270614499202656,3.1309256738223405 l1.6098182535255703,1.0814854375302851 1.8297821437869144,1.8569761178814854 l1.6023872793374516,2.6038864164238906 m11.760238212983767,-13.372157359879546 l-0.05295162114788301,1.1304459033681062 -0.3332962970996452,0.7907506596547607 l-1.739991804570414,3.1148863055621416 -2.535874550508857,3.407327882674283 l-2.792202645613389,2.9884538177112807 m6.506556770485781,-6.298939818624865 l15.99696060869299,-1.9265555228852733 m-8.056428710412114,2.4041754572593943 l-0.3059830508799614,1.1368527979409426 -1.5462903305442681,1.8344315063207772 l-1.950035542245084,1.6262948519882194 -2.470940808463472,1.4077584112488866 m-21.927108195405,1.6472392931306319 l0.24942887988211473,1.2903004583340285 0.006182470422537763,3.053490880589044 m-8.09749615898189,2.4181576342189284 l17.79232089008761,-1.0463245412035471 m-15.165254667395404,1.7805848923753238 l1.727472579278682,3.1367118653179142 0.9253925611219106,3.2850715335235816 m9.662116554216894,-7.784165960257441 l0.13496552837595654,0.49071789545007144 -0.2743251928326797,0.8541384622788689 l-2.5958655003489093,5.0842031302474995 m-14.201184446028071,2.6166241984375773 l0.8047677200018318,0.24553404849083174 1.4750683586571807,-0.0481279688542542 l16.84418295761609,-1.6575999677151572 2.412904836851811,-0.07302734398720548 l0.7671185685314921,0.23920884544044427 m-17.24979772258366,5.222869724227445 l0.35174001883538486,1.3123660296690132 0.03894516151638596,21.177745982633898 m0.8782257219814799,-21.27641277154709 l9.95961965679279,-1.48419989934948 0.7688372010223238,0.10616585938938629 l0.7253462840298204,0.9308532583632286 -0.3501728325870961,20.157806040782464 l-0.2840385066375113,1.0787603813058557 -0.42912648409127024,0.481410711332421 l-1.152265661530235,-0.4925586497464811 -1.4705631981032534,-1.3827617771517697 m-8.92786417338017,-13.942696580722622 l8.089122341012965,-0.34461769756234256 m-7.752264664000197,6.689928297967952 l7.070030381420778,-0.7030461961622015 m17.16310884795903,-28.158413392484896 l10.454528143587131,-1.2621244691906675 1.3690294825917548,0.10891839113398667 m-14.027864577450396,-2.583028617213795 l0.7578044049226043,0.9368625785845737 0.20671139605624964,1.070326211148201 l-0.10266925198184926,6.898301928411412 0.4268319880374476,0.20172706775529647 l0.9711578149064795,-0.007254331280466288 10.427729949646798,-1.3438699530034606 l1.33872540294797,0.12779129865788336 0.2626492006871976,0.36916823827690626 l-1.4931567005063533,5.963528348095935 m-11.873041765014207,1.6663911677652194 l12.633386765444474,-1.0991607470116367 m-13.75391701600955,-0.818239031253989 l0.6482381442890645,1.503036427476582 0.17832489982888308,1.251110533922681 l-0.252665186798509,18.293552705148183 0.4894811192821977,2.4520571436937475 l0.9631753453819222,1.6117703755079096 1.7333702438342335,1.2028847344414648 l2.439093452612823,0.5574780463323699 6.076073082841652,0.025188922549726777 l3.9532924472741775,-0.3813885906483004 1.8268777399198501,-0.6565030734976146 l1.0282466938371615,-0.9684690432401202 0.4866717749901947,-1.2859346568995493 l0.1536165631466872,-2.2150898560658865 m-17.65474648261127,-15.54619938342718 l11.805184949180545,-0.9796309846823353 1.4448272872640657,0.10920549889717178 m-13.288915888300746,7.195830132058892 l11.574358307455356,-1.0722603699830082 1.353510307768227,0.12824200900748814 m-13.099237559704525,7.461519460739385 l13.554455890882746,-0.5159346484696072 " fill="none" stroke="black" stroke-width="1" /></svg>