<?xml version="1.0" encoding="utf-8" ?>
<svg baseProfile="full" height="102.93688916562384" version="1.1" width="111.7677338832432" xmlns="http://www.w3.org/2000/svg" xmlns:ev="http://www.w3.org/2001/xml-events" xmlns:xlink="http://www.w3.org/1999/xlink"><defs /><rect fill="white" height="102.93688916562384" width="111.7677338832432" x="0" y="0" /><path d="M25,25 m0.0,0.0 m10.969314331404286,5.417913874243217 l0.4318177924037976,0.2365589170022384 2.1480472949917875,2.248215214028182 l1.2839181044070471,2.3753600658236653 m-11.860033791469537,5.282812867584578 l3.508422974849064,0.03365601781472637 11.16433017696129,-1.037068895412755 l3.7662155420959844,0.020900435282603592 m-15.417502965768161,8.38830924355896 l3.5574000874737166,-0.054514013667621854 6.610998637211113,-0.895234649003986 l3.6138114589413877,0.05190659381796824 m-12.93226581618797,7.670968315297159 l2.9681351910544937,-0.020320461654581543 6.675913967436828,-0.9238042609562692 l3.280117417728248,0.02440051927277932 m-13.620665929016681,7.576718423512838 l0.5449705868421671,0.6557558059627187 0.23134874335154185,1.0840533831482198 l1.6575442006097212,9.229018801743578 m-1.398718149169388,-10.161352246241002 l11.969143831857382,-1.665406042789896 1.2139947706006557,0.27979162532567664 l0.3393744633690062,0.8044597226848094 -2.0775025063182366,8.094629516974702 m-9.312530673745215,1.2954703216688424 l10.325222361632393,-1.0619483961686418 m8.258258696058505,-38.856416670567775 l0.7403358755487578,5.023116861637048 1.0356756182761722,11.63059017372074 l0.44340624888131097,6.9162206655725145 -0.016011549181826946,5.501122157390085 l-0.6097788110184003,4.637341001628682 -1.2878585481573794,4.136379373888066 l-1.7856411236260334,3.368986155433378 -2.3600172122967504,2.9459632676423144 l-3.054518550858764,2.6823354804260613 m17.818518683019644,-44.909929507340074 l0.9054699596964186,0.8890843304575559 0.40704231498548765,0.983727625400387 l-0.029744778525246693,9.943804693498736 m-9.141560954438885,1.2746441976708125 l11.532278450067475,-1.1253539671455848 m6.756503342639252,-18.355657823776887 l0.8800165125979421,0.9126488003528943 0.3112352761244131,1.120899155641745 l-0.047073258526032606,29.081889975089414 0.2612429222622766,1.972030776637605 l0.5520706492978491,0.6523043505131177 0.8047992467903106,0.1327643504041442 l6.561370950364924,-0.029068010063005943 1.1072673440961553,-0.3250511671042733 l1.3099728516457683,-0.8635121430622364 0.5703709016348915,-1.2310327918399173 l0.2032807223382515,-1.7956059574833156 " fill="none" stroke="black" stroke-width="1" /></svg>