<?xml version="1.0" encoding="utf-8" ?>
<svg baseProfile="full" height="109.19615410021159" version="1.1" width="115.25742535652797" xmlns="http://www.w3.org/2000/svg" xmlns:ev="http://www.w3.org/2001/xml-events" xmlns:xlink="http://www.w3.org/1999/xlink"><defs /><rect fill="white" height="109.19615410021159" width="115.25742535652797" x="0" y="0" /><path d="M25,31.27836874199461 m0.0,0.0 m12.74060559672818,2.637163845313205 l0.10029766594863401,0.5328491741303213 -0.1329727732541233,1.5324561273315773 l-1.4339289164560853,2.848894003589669 -2.1871880191322166,3.515208905016132 l-3.379446058142062,4.468395994732905 -0.24831408524594872,0.848067240509351 l0.21773148625975133,0.8217654794445074 3.6216117092031017,1.6864438093396021 l2.364511765410319,1.582621772679886 m6.7448187146373835,-10.266110473209867 l-0.02441420749084649,1.6348525020903883 -2.588773815640333,3.8253106646464885 l-4.8112775598037905,5.850083195217024 -5.656372173918471,6.82271993288863 l0.12333500939944016,0.7326340798475212 0.6326093463535349,0.21746913009236052 l0.937416372442545,-0.0846302424745268 10.989431998318363,-2.7910455330699016 m-1.8075349699909096,-3.711934632904834 l2.3840781578724988,3.1364231525039434 1.399000071436757,3.4471931517337615 m-7.726280972565066,0.8531228274548397 l0.4981145819322944,1.4239582842603633 0.09716956190312258,1.4094799226553683 l-0.12434799854089577,19.94439304439827 m-5.827555465811116,-16.13140371046255 l0.00478525553870962,1.4847180431173408 -0.44376514618956736,1.3416399778814598 l-4.136988845422281,8.964525864469097 m15.074000052567506,-13.231366413345462 l1.6667357087558023,2.7271765621171884 1.4076655981384474,4.185731331111853 m23.1850514120457,-43.56079069185476 l-0.844206178647205,1.9847130533036255 -2.9425845049466135,3.8238209111510573 l-3.0773826778715723,3.1617700317905526 -3.676222144013961,3.1429367599993165 m16.34523549782135,-17.08962581949029 l1.2421443326791388,0.2800643941548557 1.4606077248390408,1.0715728333691787 l8.193178957195858,8.379862098889921 2.920351995914033,2.3129353745873984 l1.976493296269536,1.5582853384107387 m-23.830655385489255,0.8928065454633507 l1.6476169136354168,0.3093489202427201 1.8334261546924073,-0.06528518486325341 l10.294837691899996,-1.56519330821741 m-16.855724162692233,8.164638682546524 l0.6514182989235069,1.7541332847204856 0.08862647791882138,10.609087033062261 m0.28857138974094837,-11.707148804605536 l13.935357240134728,-1.6746101054620115 1.293557870925526,0.11669570426884844 l0.5452017697677563,0.35963166489496273 0.3649174382011712,1.3199427170935574 l-0.1167835756414315,8.973216869809702 -0.278205150829693,3.4088699308708206 l-0.7865707548394268,1.0109491206520462 -0.6866432026158775,-0.36979418238110884 l-1.2816614232113828,-1.5805601494133397 m-6.051604656204563,-8.12669659180919 l0.41590503078980906,0.8301454401653758 0.052458073718903,0.8989041791071009 l-0.01722827666049544,7.5516032446537436 m-5.570098747871306,1.4046137364251683 l10.480679131275494,-0.985222421101504 m6.765678704858541,9.942500558126993 " fill="none" stroke="black" stroke-width="1" /></svg>