<?xml version="1.0" encoding="utf-8" ?>
<svg baseProfile="full" height="127.29449311251882" version="1.1" width="104.61919794884274" xmlns="http://www.w3.org/2000/svg" xmlns:ev="http://www.w3.org/2001/xml-events" xmlns:xlink="http://www.w3.org/1999/xlink"><defs /><rect fill="white" height="127.29449311251882" width="104.61919794884274" x="0" y="0" /><path d="M25,25 m0.0,0.0 m11.097753823437158,20.629115850760446 l0.2897864696731426,0.3471924262351463 1.421740241340368,1.2315711415834303 l1.4767602868582148,1.634502508925078 1.1115600707494597,1.7727072691173198 l0.6046910479992114,1.563219768793609 m11.21879110042552,4.12153967463287 l-0.3300676796000783,0.7857621630558317 -0.7198091466205719,1.7670458539860079 l-2.6568942576109427,2.1301564705597733 -3.201769461705298,2.179553858334801 m-0.7192826809978073,2.001230015841897 l0.4692197482123803,0.7250921769570159 0.15100948991976837,0.8646829372945298 l0.012543877911001764,7.879463576807635 -0.45927032424376024,6.13890483371534 l-0.6684081834200082,3.961798372770612 -0.8156660919959194,3.485432461487076 l-1.1146593363590829,3.249864508507208 -1.5440419816796773,3.175248912591831 l-2.1235370506466054,3.093954733436405 m6.516746293430948,-14.498822020527644 l8.474229612404832,-1.2847119062122019 1.6023791773077136,0.18594850013519854 l0.41256759746733185,0.40990077504914185 0.17244241896065743,1.233417751124366 l-1.5026386297227636,12.199064429155168 m-9.241728059405117,-6.517600191460026 l9.36876456286425,-1.1330540240540818 m-9.601175687921174,10.479899746190787 l8.884087588660885,-1.1736182340421772 m6.336104957615927,-22.650120004546885 l1.0047819449983186,0.1346555325563266 1.5964618133499837,-0.056555944267380615 l15.728823037441606,-1.4243281529233538 0.4796553995865666,-0.07449821996672008 l0.8872459601562934,0.2648993236144219 m-19.818765123697208,-6.450210389105722 l0.5021355463459931,1.0489486958124397 1.1080616207245981,4.987919838264536 l1.312655377703919,4.310118341600281 m9.370608702346352,-11.497574229126247 l0.2457775061982579,0.9919918416413828 -0.07055307759122935,0.8957109167588525 l-1.8628218178163347,10.031348972029415 m-15.179341578845804,3.855393640875751 l1.0652014094621751,1.0329431818794945 1.1429965105273303,0.25419467793866346 l18.48223655115139,-0.982664201584049 0.813574675154128,0.6975969136281283 l0.029437724803469307,0.9608586556945179 -1.0215295832176288,4.887880469496582 l-1.299076456612542,3.964590743814619 -1.6498971151326665,3.8709083789903636 l-1.776295979055541,3.2043754508764035 -2.2131891140153606,2.2145866846275117 l-0.6183918906394665,0.18305765318712044 -0.9721898167431005,-0.04677921221783277 l-1.5038340448654215,-1.2505719620726325 m-0.6288899927673309,-23.893819947579757 l0.045015396753864644,1.8578343461478997 -1.038582011983591,4.525190539354091 l-1.3322629598180336,3.9824756236619416 -1.8320085365981775,4.116734540007594 l-1.8821754712348622,3.252914022442168 -1.6695881523053324,2.2740522140424 l-2.7179713758129798,2.839683252838292 -2.3375561420753437,1.7912555435439632 " fill="none" stroke="black" stroke-width="1" /></svg>