<?xml version="1.0" encoding="utf-8" ?>
<svg baseProfile="full" height="105.81787646122903" version="1.1" width="104.36570689271184" xmlns="http://www.w3.org/2000/svg" xmlns:ev="http://www.w3.org/2001/xml-events" xmlns:xlink="http://www.w3.org/1999/xlink"><defs /><rect fill="white" height="105.81787646122903" width="104.36570689271184" x="0" y="0" /><path d="M25,25 m0.0,0.0 m7.0985203870517175,11.594645777791808 l0.41386956844414186,0.11382126827547107 2.516176519045771,0.020506739924407977 l9.713574826476954,-0.9467897944247203 1.7301746494002408,0.13335860035163025 m-17.125457872678837,9.697982600384409 l2.4534534591353316,0.17364070290739125 14.531989856673215,-1.43847066201356 l2.1279879603874643,0.08181461382385045 m-9.545121527802591,1.6659190905940713 l0.45003335994918103,0.7989342056488241 0.19122425383244554,1.438241987825412 l-0.11714398568746587,32.48427133014005 m-6.125558333718694,-27.296742173664516 l0.2602054218798929,1.489928665358839 -0.09605958264261938,3.930553606994307 l-0.8021362105222024,6.1846527499639254 -1.3831460128336093,4.605330198552641 l-2.4303170180048626,4.804593204478245 m16.548853589591772,-22.210862026103392 l0.8868942348978772,0.6808883934892674 0.47158145140215035,1.1279008202534966 l-0.17010231855997773,17.428040425088444 m5.904376339620178,-37.052640254922146 l1.9555507761736295,4.015600898234492 0.9424831609872898,4.457884168623096 m-0.6402577702965648,-10.5186067121387 l15.635018725509495,-1.5681675251440519 4.070589113944854,0.1799511029825225 l0.5007528402808529,0.893046536240459 -0.075989952706385,0.6562814954765613 l-1.859575295197234,8.35341890528857 m-12.833924537942307,-8.55251371272704 l0.6784434577064608,1.5094573202952113 m8.430990380174114,-4.197982681185604 l-0.36113918253463306,0.8480216440206917 m-12.409357903045054,0.4342960618559994 l-0.8622861780532198,5.751440419146001 -1.2955156946189876,4.49457047795484 m2.0374190614064926,-7.387410485604812 l13.700254988258344,-1.5087774802112444 7.131730115358546,-0.5343754974903582 l1.3816867840207052,0.11109871365282438 0.569129643288887,0.31157006051503844 l0.16583134465908977,0.47960349078481884 -0.1490331509453989,0.6132888489733641 l-0.9135353895107232,1.3573905921351381 -1.2533601967928765,1.3714297985711943 m-20.1548412318495,3.638783606315094 l2.0764803069258306,0.17809113505863047 13.182677791887704,-1.5953626475482796 l1.845071374387402,-0.07104584851705331 m-18.210167259984377,1.7999011431172707 l0.2064349622612635,1.135751069805026 -0.2884895601142348,1.0017333445881564 l-1.7994747092254189,3.472516812924283 -2.3240313512865054,3.240092688312477 l-2.612840107891187,2.5689470976643745 m6.833745974180277,-7.27558408581949 l1.1712447076900168,0.7004426477710871 1.5913544183660044,1.3034728880689133 l1.3429123175078075,2.6463267375580304 0.5342301129474706,1.9405016210884303 m9.431873700786513,-11.160680996337337 l-0.08018135620860015,0.8493933860065115 -1.436502299609476,2.074889329813564 l-1.8966812744533668,2.173702249902236 -2.113969548988609,1.8905679574440648 m5.1033379546882145,-3.696722717036936 l1.3776597646574051,0.7155736178528668 1.5807916772835797,1.2452947364717815 l1.3346588118595761,1.4816756159717228 0.7538161865226597,1.3514269941162207 m-23.988143520514562,7.304529415113838 l2.3665663604881724,0.23312681392361748 19.24139297343273,-1.7652571759873394 l3.0814795452850787,-0.13678291812309917 1.8269405209814098,0.22493364192279874 m-15.143328017314502,-4.636124864704985 l0.6074088884533254,0.780789673046008 0.25211850688549753,1.2322767354466961 l-0.11002887198852744,17.91502918001676 " fill="none" stroke="black" stroke-width="1" /></svg>