<?xml version="1.0" encoding="utf-8" ?>
<svg baseProfile="full" height="109.49251279351301" version="1.1" width="105.05755477817729" xmlns="http://www.w3.org/2000/svg" xmlns:ev="http://www.w3.org/2001/xml-events" xmlns:xlink="http://www.w3.org/1999/xlink"><defs /><rect fill="white" height="109.49251279351301" width="105.05755477817729" x="0" y="0" /><path d="M25,25.000000190752267 m0.0,0.0 m14.778575897216797,-1.907522673150197e-07 l0.03948779311031103,0.5026157945394516 -0.9049654752016068,2.3138323426246643 l-2.041153460741043,3.159666359424591 -2.3131896555423737,2.807449698448181 l-2.7508893609046936,2.6425892114639282 m7.4094051122665405,-5.789722800254822 l2.0795567333698273,0.09871949441730976 10.516688823699951,-1.9342592358589172 l1.883845180273056,-0.007105192635208368 m-15.261008739471436,6.694688200950623 l0.26086851954460144,1.0425098985433578 -0.1291488017886877,1.1755552887916565 l-1.727982759475708,6.585745215415955 -1.7999686300754547,5.187804698944092 l-0.208244901150465,0.9448148310184479 0.2935674600303173,0.49297481775283813 l10.091201066970825,0.4540042206645012 5.61875581741333,0.9449754655361176 m-11.106394529342651,-15.600371360778809 l1.3034588098526,0.0 8.72636079788208,-1.303257942199707 l1.299281120300293,0.30154135078191757 0.6102732196450233,1.0331904143095016 l-1.6552938520908356,8.694224953651428 -2.1075958013534546,6.098233461380005 l-2.0556150376796722,3.6243611574172974 -0.8406923711299896,0.7410690188407898 l-0.6440166383981705,-0.2170824445784092 -0.7987541705369949,-1.1887313425540924 m0.9872350841760635,-16.299662590026855 l0.1513431128114462,1.3754446804523468 -0.3649909794330597,1.7671893537044525 l-2.6822778582572937,8.506868481636047 m-10.216854810714722,-5.548055171966553 l0.45569639652967453,0.5816717073321342 1.3478071987628937,0.19506892189383507 l20.4349946975708,-4.429462254047394 m10.098592042922974,-12.659233808517456 l-0.14479528181254864,1.7376236617565155 -1.8925219774246216,4.711219668388367 l-2.2559863328933716,4.213102757930756 -2.9199278354644775,4.390818178653717 m6.237063407897949,-7.501958012580872 l3.586118519306183,-0.21808672696352005 9.066687822341919,-2.055293619632721 l2.096589207649231,-0.017082589911296964 m-5.476069450378418,3.2779288291931152 l-0.02582975896075368,1.279999166727066 -0.774330347776413,1.9808974862098694 l-1.462695449590683,2.867545187473297 -1.2894794344902039,1.8973423540592194 l-2.921534478664398,2.9819512367248535 -4.352896809577942,3.2811427116394043 m-0.21065514534711838,-10.736181735992432 l2.8542086482048035,1.615263819694519 11.437400579452515,8.287697434425354 l2.5763878226280212,1.6029715538024902 2.1518640220165253,0.9666676819324493 m-23.673076629638672,-1.7109504342079163 l-0.06314833648502827,0.676153227686882 -0.6936676055192947,1.0746464878320694 l-7.055581212043762,6.199784874916077 -0.20647739991545677,0.6973633170127869 l0.3711772710084915,0.5594975128769875 2.5066515803337097,0.7754551619291306 l2.857261300086975,1.317598968744278 m10.551074743270874,-8.22181761264801 l-0.2880640886723995,1.07721745967865 -0.46212371438741684,0.49554575234651566 l-18.672304153442383,14.097987413406372 -0.43930675834417343,0.7687065005302429 l0.9525275975465775,0.1464623585343361 21.37756109237671,-4.706077575683594 m-2.5927776098251343,-3.5144540667533875 l1.9535814225673676,1.5113823115825653 2.044849246740341,2.1325820684432983 l1.713842749595642,2.276875078678131 0.9613651037216187,1.9445830583572388 m-15.003916025161743,0.06579960230737925 l0.647551640868187,1.0421885550022125 0.09624899365007877,0.7282143831253052 l-0.07897558622062206,12.504334449768066 m-9.347882270812988,-9.317030906677246 l-0.18231472000479698,1.2594318389892578 -1.6707797348499298,1.61903977394104 l-3.9026635885238647,2.792988419532776 -4.583958983421326,2.7335357666015625 m29.4730806350708,-8.818272352218628 l4.664621353149414,3.2772862911224365 3.9111799001693726,3.765440881252289 " fill="none" stroke="black" stroke-width="1" /></svg>