<?xml version="1.0" encoding="utf-8" ?>
<svg baseProfile="full" height="145.1459051408798" version="1.1" width="107.18231653639674" xmlns="http://www.w3.org/2000/svg" xmlns:ev="http://www.w3.org/2001/xml-events" xmlns:xlink="http://www.w3.org/1999/xlink"><defs /><rect fill="white" height="145.1459051408798" width="107.18231653639674" x="0" y="0" /><path d="M25,25 m0.0,0.0 m11.796340702305349,15.765758805111405 l0.5069090166177591,0.1478412342513211 2.529273747076778,0.12779811393953636 l30.919518235515326,-2.057471873175031 6.250709344433459,-0.1495660326149978 l2.7418414843059526,0.258723265258085 m-32.44146277945678,-3.660615963861439 l1.1903782571834,0.7119170908493856 0.4144544553238827,0.505202438595467 l0.8450463620293919,2.8395724252920376 0.5821675114652141,3.6434414366672185 m15.586571438573756,-8.77341507275566 l0.6878213127542526,0.7447274569499096 0.12347376137913019,0.8026080497254695 l-2.0903357045498843,6.565999786735916 m-19.88030815969716,2.758559903895673 l0.7150944043592325,0.46976174496596346 0.446541805958658,0.7702784367810906 l0.12865001505239915,3.146404655157003 m-9.988670112214084,0.8191329811628175 l3.2312457656931284,0.0571616268713088 12.636268858316454,-1.174637953783778 l1.988175797906301,0.05387429199713577 m-14.376745354667518,3.2113133572745154 l1.4270535021641264,2.009643690631482 0.6268709913134723,2.017127771678732 m8.858702852230104,-5.048397038262379 l0.16339732547375424,0.35707931811931864 -0.44450761568425035,0.7886169218921638 l-2.3618405440225696,3.55317108015816 m-14.390864752485044,2.2532352490692613 l3.478354276762875,0.06270945378582825 13.562134159445666,-1.3747604308102956 l4.275666198285416,-0.10796304929613733 m-19.288055946535295,7.339461467214129 l2.8956595818075828,0.1837394763026435 11.295224597815977,-1.2563990625083 l3.5682351682126727,-0.14340418851571154 m-8.48226820524452,-3.922486576168757 l0.5999614377352566,0.6275698704984489 0.3173422251962408,1.3469274788994703 l-0.0982940234347782,17.032504258774484 m-0.7913849205698543,-14.271001790404663 l-0.25961182201055155,0.8132797163288017 -0.5438196622473477,0.9840655087925729 l-2.4958945627614435,3.1122849183847356 -3.3069605631175967,3.1522748291793024 l-3.2107142578172856,2.431878209964793 m12.009224953875716,-8.891220700014436 l2.6397673876279986,0.959656652461098 2.174664117077907,1.2908508246990864 l1.6994045613422597,1.4023484573277458 1.1560034292776165,1.34668559567172 m9.243934727310993,-25.236580862274398 l-0.20618302772141447,0.9205807308494977 -0.6034951839312362,1.1405543924096524 l-2.137651948424095,2.965515095022909 -2.398083332911661,2.402387852342405 l-2.8611774851539233,2.1175236883091118 m7.200849636717401,-5.02183828837823 l3.522995177263181,-0.2860057010699753 7.299005979369488,-1.4784397908405473 l1.139528568340246,0.4005514116900792 -0.12516645235325155,0.5181387907638264 l-0.6036856366941079,1.373493874590101 -3.3229621732332464,4.0818405097976695 m-10.53121131492671,0.9973623821896658 l0.7343918661047389,3.6845189288266456 0.9852678159620929,5.394148685284522 l0.5709545569922408,4.4119613108184215 0.6296364287643864,3.2969600589022288 l0.7009984467775205,2.9818315368366757 0.7413448366715553,2.8095628670636663 l0.8354156018366734,2.8140334207244435 0.9467738746122495,2.9628516632081774 l1.026388478600652,4.120987572765553 1.1537623833919257,4.0850318671662365 l1.2910860341703403,4.083415608629119 1.2680288867613083,4.104087631695869 l1.1825754955258656,4.108129542751655 1.06760088951298,3.7629030734464077 l0.943312363739617,3.366845429018622 0.9557490937283,2.8464331142278407 l1.067332331442758,2.838503843072653 2.429166788493006,2.737903287993776 l1.2208421036247283,0.2068634939018813 0.59779127002525,-0.786916126073104 l0.17129276522317413,-1.8235390548481456 -0.10796622917732562,-2.2608753986169066 m-7.824493346680475,-17.971385874597097 l0.03777456182111963,0.8469466224685849 -0.5179796150699565,1.1739347273280962 l-3.415261912493881,3.4039265089797355 -3.699212948759721,2.925925780576991 l-4.87180734805064,2.828324286632049 m14.325635709817774,-10.95772957624056 l2.273456833314229,1.2153872717404557 2.2835262266540868,1.874011948699061 l1.8657229648082456,2.1042279797895582 1.0801017392217631,1.8288520276617126 " fill="none" stroke="black" stroke-width="1" /></svg>