<?xml version="1.0" encoding="utf-8" ?>
<svg baseProfile="full" height="103.50972392442596" version="1.1" width="112.62997724087862" xmlns="http://www.w3.org/2000/svg" xmlns:ev="http://www.w3.org/2001/xml-events" xmlns:xlink="http://www.w3.org/1999/xlink"><defs /><rect fill="white" height="103.50972392442596" width="112.62997724087862" x="0" y="0" /><path d="M25,25 m0.0,0.0 m20.778046256373475,2.9873593658213773 l0.06162824775874324,0.5516338332171675 -0.2998999292941573,1.3993845893193608 l-1.0896442335588397,2.4888539960815335 -2.765195853863096,4.434161020747373 l-3.1818188901679294,4.172593260724266 -0.32460400279487917,0.973613640005705 l0.221010752757232,0.8158571240115579 3.508092983662677,1.5800427142318114 l2.624334286024815,1.5144081212570915 m7.55071413571531,-11.253287564651503 l0.08226433983157921,1.7019725053879375 -1.438224441143875,2.3057816260040767 l-5.776514977693272,7.524044837654724 -7.55913778804545,8.78805766090646 l0.6805279922448559,1.0885791360472143 0.9895742994243912,-0.12868027229909232 l13.150739707239076,-3.8408654755691845 m-2.1365499633872447,-4.032376951685587 l2.537797418050239,3.6116748436915356 1.1958980780110378,2.432296462565584 l0.48203108839650305,1.5371334759332256 m-9.167441813627805,0.1701010924764733 l0.531059778167531,0.8842676101568708 0.23696923965317382,1.2170881583066449 l-0.09389146034157575,20.58602911408333 m-6.188859655893732,-16.687880571156555 l-0.11909668252850951,1.6350981280078738 -0.9367068881823402,2.362790278969715 l-4.63886094293981,8.423646536112805 -2.5708892279120943,3.38149100609035 m18.442912870308422,-15.655020085895528 l1.3211297524580259,3.4978147681382015 1.0958681941640736,4.864306956687211 m8.291838053978145,-35.377463629294446 l2.392116713047682,0.11632409284297492 14.027853201550085,-1.6316452911426726 l2.841402579936829,0.0506060918685507 1.018623279969596,0.3055351467550573 l0.594739858432282,1.0517673820408817 -0.040059185254821536,0.7102208894404369 l-2.7136162581280296,11.217827394017576 m-19.44935476715121,-4.902968859453562 l3.5211342503536924,0.10196585968017989 17.005576024233083,-1.8040507796659755 l3.817291228180905,-0.24604091646275697 m-22.94254117156222,9.138240954232577 l2.545455498445952,0.048840862560049526 11.89789094844806,-1.474810032615287 l4.199027074546523,-0.148930487315533 m-19.243775867229274,8.336485824804704 l2.949974788803669,0.09932990452141345 16.793967322777846,-1.7698721950373368 l3.158649720758534,0.17683718031946788 m-24.66459653654545,9.279748014888373 l3.00233889384157,0.19548836785612764 20.991062339288174,-2.107857502207686 l3.2586787245072926,-0.15042667059536546 2.1730378567831465,0.25095381048813403 m-17.663727631227772,-34.0215809655547 l0.6722066612574714,0.8984239412459055 0.24577557780852483,1.1625578329175963 l-0.018762526422011174,46.3977844894213 " fill="none" stroke="black" stroke-width="1" /></svg>