<?xml version="1.0" encoding="utf-8" ?>
<svg baseProfile="full" height="108.71465807780623" version="1.1" width="109.49251482379623" xmlns="http://www.w3.org/2000/svg" xmlns:ev="http://www.w3.org/2001/xml-events" xmlns:xlink="http://www.w3.org/1999/xlink"><defs /><rect fill="white" height="108.71465807780623" width="109.49251482379623" x="0" y="0" /><path d="M25.00000285494025,25 m0.0,0.0 m10.207959413528442,5.471315383911133 l0.13412405736744404,0.5963670834898949 -0.01179020619019866,1.1442354321479797 l-1.5337303280830383,2.996886670589447 -6.495149731636047,9.739881753921509 l0.3856902942061424,1.1201532185077667 5.576349496841431,2.376939207315445 m6.999871134757996,-10.307148694992065 l0.07127431221306324,1.6914348304271698 -1.416831612586975,2.22391739487648 l-5.2890366315841675,7.292201519012451 -7.195538282394409,9.009724855422974 l-0.0022472468845080584,0.7177811115980148 0.50237987190485,0.3645766153931618 l0.9592712670564651,-0.139475641772151 12.316668033599854,-4.274242520332336 m-1.6777214407920837,-3.829057812690735 l2.7694442868232727,3.8096582889556885 1.8547415733337402,4.410373568534851 m-8.166516423225403,-0.16439395025372505 l0.602722056210041,0.911107063293457 0.2740177884697914,1.5068051218986511 l-0.2808156982064247,19.837650060653687 m-5.961663722991943,-15.241309404373169 l0.061668637208640575,1.555638313293457 -0.6288110464811325,1.8228830397129059 l-1.8350912630558014,4.033755958080292 -2.221241444349289,3.8902664184570312 m15.326935052871704,-12.672549486160278 l1.2741784751415253,2.1091926097869873 1.067139059305191,2.5721046328544617 l1.0013732314109802,4.736820161342621 m9.445544481277466,-47.60768413543701 l0.5908482521772385,0.8666220307350159 0.25169165804982185,1.1131293326616287 l-0.04109848756343126,6.967092156410217 m-8.669564723968506,1.1579488217830658 l2.390819787979126,0.28766850009560585 1.9442972540855408,-0.13625632971525192 l12.59194016456604,-1.6857904195785522 m-14.11747694015503,6.673424243927002 l1.9314198195934296,3.3688217401504517 1.1034296452999115,3.523014187812805 m9.060230255126953,-10.83160400390625 l0.28430284932255745,1.0017494857311249 -0.2089625969529152,1.052924022078514 l-3.26730877161026,8.562533259391785 m-14.149585962295532,2.5888285040855408 l4.541487097740173,0.16440961509943008 29.33537244796753,-3.7073928117752075 l3.5360586643218994,-0.16439395025372505 2.4864794313907623,0.255182720720768 m-34.635446071624756,11.024260520935059 l0.5351583287119865,0.890369638800621 0.19098462536931038,1.178017258644104 l0.034249608870595694,17.55110263824463 m0.3287879005074501,-18.773354291915894 l10.794812440872192,-1.9931721687316895 1.6620010137557983,0.14268449507653713 l0.3664998337626457,1.2271849811077118 -0.013697753893211484,17.52877712249756 m-12.597626447677612,-8.61604928970337 l12.014304399490356,-1.5411724150180817 m-11.709264516830444,10.109140872955322 l11.575140953063965,-1.2193039059638977 m4.8351553082466125,-49.57706928253174 l1.0747484117746353,2.4329636991024017 0.669407844543457,13.661253452301025 l1.4154937863349915,11.001516580581665 1.6971208155155182,7.98857569694519 l2.1530087292194366,7.1189433336257935 1.8877710402011871,4.689324796199799 l2.1011653542518616,4.066534042358398 2.296498268842697,3.3875522017478943 l2.473769336938858,2.650371491909027 1.6790592670440674,1.022486835718155 l0.5040522292256355,-0.12358812615275383 0.3113952465355396,-0.5084004253149033 l0.13841472566127777,-2.055007964372635 -0.3516993671655655,-3.2470732927322388 m-4.856561720371246,-23.37571620941162 l-0.03257985459640622,1.9911234080791473 -0.36474384367465973,1.2763527035713196 l-4.158514738082886,8.379576206207275 -4.160521626472473,5.971697568893433 l-4.264542758464813,4.2739081382751465 m7.979210615158081,-43.73313903808594 l2.8881826996803284,3.3203229308128357 1.5021225810050964,2.845035493373871 " fill="none" stroke="black" stroke-width="1" /></svg>