<?xml version="1.0" encoding="utf-8" ?>
<svg baseProfile="full" height="96.99611938322823" version="1.1" width="108.10712599496689" xmlns="http://www.w3.org/2000/svg" xmlns:ev="http://www.w3.org/2001/xml-events" xmlns:xlink="http://www.w3.org/1999/xlink"><defs /><rect fill="white" height="96.99611938322823" width="108.10712599496689" x="0" y="0" /><path d="M25,25 m0.0,0.0 m13.07513490713112,20.09142913705899 l0.036172962261412936,0.3162734920275029 -0.7949209371113954,3.6577483709584517 l-1.4408951230511808,3.227879882521595 m9.847218994917823,-7.834824187895231 l2.010781711023665,1.7188948366685666 1.2267179982988339,2.0836154955987634 m-7.412711240888609,-11.947120607541459 l0.6197198960271821,0.6091075747843008 0.3422261004123059,1.2649530941321008 l0.021420631737720425,33.80816229491465 m9.651588276992214,-34.98041396192896 l1.3913804063682167,0.1426035273921601 2.0582120197667053,-0.11906479951616478 l18.45691084002332,-1.3394806208102934 2.9308836548112875,-0.050360416249173666 l1.649252943093234,0.17191705139617391 m-14.745185174443153,2.2610972213628546 l0.10095634839966142,0.555822522817131 -0.2543942257227508,0.7381866974403554 l-1.8560298789367435,2.5251865039340102 -2.508840365274026,2.5510725101321734 l-3.13656668044952,2.430376270710181 -0.5533846013437371,0.5994681374296176 l0.14566068821453929,0.47595041671530613 0.7770708047708083,-0.05381792555012692 l19.703561647501658,-3.1708287639583554 m-4.542188148214526,-3.4013561755783783 l2.0637634407383443,1.2459956016254914 2.336793415974571,2.0249088370393356 l1.7006795210746906,1.9003859321445256 0.8921165899649559,1.5410747865601926 m-22.93262620946126,8.604616388298066 l1.715982205470288,0.1593032275817719 17.108315385657278,-1.3496947469931242 l2.6745455400917875,-0.08765039456539202 1.4997400070291,0.13890432151968907 m-12.526126257550283,-6.700252686614577 l0.6363623038216363,0.7726989261536807 0.10795360264986749,0.47388655825404347 l-0.015680848027069896,14.512193589912236 m-15.884655602170618,0.8357825904675531 l2.4260596764960773,0.18804434689743438 23.136779520577104,-1.3842349804244873 l4.559178089158673,-0.10174187774352092 1.8081911571556804,0.15692503709756897 " fill="none" stroke="black" stroke-width="1" /></svg>