<?xml version="1.0" encoding="utf-8" ?>
<svg baseProfile="full" height="102.25439797382455" version="1.1" width="124.87971196846938" xmlns="http://www.w3.org/2000/svg" xmlns:ev="http://www.w3.org/2001/xml-events" xmlns:xlink="http://www.w3.org/1999/xlink"><defs /><rect fill="white" height="102.25439797382455" width="124.87971196846938" x="0" y="0" /><path d="M25,25 m0.0,0.0 m18.587715974547805,5.680322857333163 l0.1093713028875565,0.5208743549662211 -0.1880264214074303,1.563854963323938 l-1.6599496336306192,3.002414868905543 -2.5953592738546214,3.6092747464541906 l-3.544365731466115,3.5748209009164724 -0.3685339072315523,0.9777883079060564 l0.2723301628653235,0.7761224388378977 4.130622716904987,1.535950074633325 l2.5989467585143036,1.3968757485856864 m7.533675303937818,-10.582706897900522 l0.014787836558348911,1.628180915999447 -2.733905962574995,2.838314533037892 l-6.18383216309057,6.440221733673291 -6.8041992872586485,6.981578436444732 l0.28917662176890807,0.8252339663846139 0.7930587336472713,0.10795056284686037 l14.407700214914021,-3.3111054373234965 m-2.918297624531164,-3.686687287339277 l1.5429003153339467,1.426591356919567 1.6173858086366224,2.0814013126984565 l1.3060746471792983,2.190374054793377 0.6499747223059402,1.7469870560893808 m-9.218298815800404,-0.0999842257100635 l0.5278649370570656,0.7941546524119897 0.1745888652899328,1.4699680917763809 l-0.11846023351572796,18.76562588715944 m-5.91191883631404,-15.599328356726293 l0.07890874657572142,1.49761783336113 -0.8535423079168181,1.4066229620132977 l-3.0693705053579015,4.049448642219504 -3.4200250885217356,3.697183846814832 m18.476699016868718,-11.374021880639253 l1.0968502267541487,1.2597225459875334 1.3221680183556808,2.1050604329849967 l2.188184445451219,5.216501401810343 m3.921702065190078,-37.86353674693797 l0.8035830329297079,1.1488392773936809 1.928159606015773,1.283899614439894 l1.4885956016414414,-4.598688684367856 m9.23563151447181,10.059597789119225 l-1.7504537840310668,4.956470804867499 -4.135621025532128,4.161751104813094 l-3.0845113566118076,2.046219111780705 -3.545672078351029,1.5077620229416546 m3.846759345340415,-13.415635887827571 l3.5790078947893824,1.6717374583697258 2.2602457043018287,1.7146912589203438 l1.9630710377801865,1.5400231618886757 m9.620738397425223,-11.860162552911694 l14.34150462266019,13.014448045559012 2.590907910478935,2.570903019169759 m-25.992000560279713,3.6682589042960534 l2.6919325812459483,0.17414778208255144 16.234780808298645,-1.4227154032267488 l2.8594176033860346,0.11463480826258535 m-23.119346424074763,10.392630334894886 l0.7565717128171358,0.23072567539402178 1.5660239665013642,0.04968255201390181 l19.36804942168596,-1.7110893643995058 3.312846084178041,-0.059257484685632175 m-13.712481241774226,-14.890498080683445 l0.5436394031685421,0.8310721011726011 0.2431103704489026,1.6218998190291758 l-0.04394594823458034,27.095240833167964 m9.920462094141701,-19.397507055254042 l2.3740881867811514,0.8238399880082554 3.5058414887011145,1.394258936422339 l2.2166574522033966,1.4674664270025624 0.9595168968934945,1.3062234701241098 " fill="none" stroke="black" stroke-width="1" /></svg>