<?xml version="1.0" encoding="utf-8" ?>
<svg baseProfile="full" height="105.31011251063754" version="1.1" width="108.43726347126909" xmlns="http://www.w3.org/2000/svg" xmlns:ev="http://www.w3.org/2001/xml-events" xmlns:xlink="http://www.w3.org/1999/xlink"><defs /><rect fill="white" height="105.31011251063754" width="108.43726347126909" x="0" y="0" /><path d="M25,25 m0.0,0.0 m23.296926535986685,4.193941238024744 l0.030746058287597307,0.4458703021698135 -0.24772832707812803,1.5182095419261177 l-0.8146514965185928,2.1254705103877902 -2.4692429806553813,3.906720962449004 l-3.2018880754097343,3.900758671019474 -0.03772428744745362,0.752176432118597 l0.3185352083887186,0.3074895243776897 2.6698901676027496,1.186357185204366 l2.7572784322561987,1.7989899750324636 m6.9490220239160525,-10.74539908367773 l-0.0013614750473153552,1.5416966323261618 -1.615271263056713,2.6149939672501565 l-4.704153450119238,7.005356073232341 -5.028722642802516,6.31301455134069 l-0.32647554664494377,1.0963159954838448 0.4911032426357419,0.5297572929436125 l0.6814370000372657,0.0027802730944332245 10.62635347688079,-3.2946695200730347 m-1.8518558570537729,-4.080775592176729 l1.0149339821066867,1.1612412872339022 1.3375134601775762,2.0285879733491994 l1.1077986963682847,1.9565619891342636 m-7.265411737518101,1.9209401112637925 l0.46954673904302124,0.6230719327229027 0.2967930048826957,1.3972007694941913 l-0.11764375999631284,17.968650207931855 m-5.4797070542496025,-14.631105276717399 l0.11346020672040033,1.2173874278764538 -0.4167063074770609,1.2524932334399788 l-1.80843083768157,3.779180554919946 -1.8509172337635642,3.405629309298622 m14.330902999129568,-11.013554055423233 l1.3631551570894098,2.6849716255790446 1.3254009389473882,4.490262298392667 m10.864277477647843,-36.2110984959183 l0.006869708026198702,1.4002962464200077 -0.4299873988544094,2.174457967943666 l-2.217126567550275,6.317800510584115 -3.071112658827256,6.266421307488948 l-3.4600016374798135,5.404521125248667 m10.177821096026607,-18.77977170148895 l4.021758383182928,5.681982235036671 6.803642313121297,10.015961779183687 l1.73429332034569,2.1269086024482298 2.063924437693429,1.6867475762189634 m-19.41205713510738,-2.001978291724069 l1.3809922481120007,0.1081793735555978 7.717455554870592,-1.076558024579731 l2.190688314239826,0.03623919466700751 m-14.070287721392551,8.294435184069972 l0.5394991912431931,1.2299581808198103 0.17959074786720453,0.9866734830414401 l1.5256612254387616,19.287374926808464 m-1.215645897452774,-20.319026794931627 l14.871964533312761,-1.5157012216698957 0.6943613481757441,0.04262351366486332 l0.8163175510641418,0.4600966020605872 0.35289822668645254,0.4183739354965502 l0.2394876015460707,1.0308041868490385 -0.9195008707538547,17.519878672613796 l-0.46947461766969906,0.547999005620155 -0.5050011430250447,-0.05383438673240307 l-1.4488468304671314,-1.83307228816 m-4.950494883642105,-40.49230539606642 l0.43273141871034015,1.3684219919289 0.1307082931598321,1.228997037050007 l-0.06897299336175461,44.597732152139805 " fill="none" stroke="black" stroke-width="1" /></svg>