<?xml version="1.0" encoding="utf-8" ?>
<svg baseProfile="full" height="106.56849474536337" version="1.1" width="114.82037568592112" xmlns="http://www.w3.org/2000/svg" xmlns:ev="http://www.w3.org/2001/xml-events" xmlns:xlink="http://www.w3.org/1999/xlink"><defs /><rect fill="white" height="106.56849474536337" width="114.82037568592112" x="0" y="0" /><path d="M25,25 m0.0,0.0 m12.898727067653581,20.520551592367752 l0.3222769625320744,0.3759355489035217 0.47202674526044713,1.3363749074355897 l1.7284858285830385,11.686954958563843 m-1.5812043224385623,-12.653071397195651 l13.985172890097882,-1.8692773186505847 1.6007281599815997,0.08816272069662356 l0.5444534035125007,0.3161640826030932 0.4533933248060168,1.0701062592213466 l-0.07115056511294832,0.8482485695712114 -1.695246174128509,9.129637106733908 m-12.868027732799023,2.0121410784624145 l14.136557894498342,-1.5311556151378687 m-9.01195332559111,-22.53804179371546 l0.5644372266885689,0.7538343150479194 0.2440222940522158,1.5597930644489726 l0.011050891240819484,32.38482366106226 m-9.166712024898612,4.335363668391183 l1.0623174387365988,0.5177522209684667 1.1109198037090526,-0.23354539590181078 l14.209815504562403,-7.851701832863774 m-1.7242930332528952,-4.8190930192696815 l1.4251965431169957,1.9748443166792817 1.458809997465707,2.7294142220296767 l1.7277305197510875,2.9061513888162205 0.8869764829804028,2.254791423686304 m6.321259230833065,-34.442391994586195 l1.1065403053189278,0.9573828898608883 1.559997158835425,1.665061835116649 l1.289590190611153,1.8064384293240228 0.5101865147172193,1.3628110705455945 m11.731071568121086,-6.8478802413771485 l-0.1331010765262836,1.4021190405104222 -1.2703035218736738,2.3328015400603848 l-1.761111162245692,2.2583945105589747 -2.014508365035353,1.9004991459964578 m-13.97854248710018,2.286561332503093 l3.1564591206956303,0.15460900285848603 17.27690741848601,-1.5762136135097833 l4.572964332892067,0.1633000180242792 m-13.376355566251698,7.947063604405862 l5.341129331541734,0.693497573520532 m-15.24989819797352,5.913169286129386 l3.389640458444713,0.1025172159188475 17.596445887379204,-1.6068686915821644 l3.0940041484139917,0.21729951301562872 m-26.128127399604306,9.760823381504359 l3.4347987895595287,0.21531088364446033 22.205403469563215,-1.6556585510435557 l3.4214137361111767,0.29131651436008565 m-15.794946909503794,-14.024170044294284 l0.4335845948794943,0.8249541750353695 0.13584745627541828,0.9645995494624876 l-0.01247903731402366,28.19598863644547 " fill="none" stroke="black" stroke-width="1" /></svg>