<?xml version="1.0" encoding="utf-8" ?>
<svg baseProfile="full" height="109.492511972785" version="1.1" width="106.56119525432587" xmlns="http://www.w3.org/2000/svg" xmlns:ev="http://www.w3.org/2001/xml-events" xmlns:xlink="http://www.w3.org/1999/xlink"><defs /><rect fill="white" height="109.492511972785" width="106.56119525432587" x="0" y="0" /><path d="M25,25.000000717118382 m0.0,0.0 m3.8122516870498657,8.836259245872498 l0.5847743153572083,0.19543150439858437 3.2944652438163757,0.2417662926018238 l24.60376501083374,-1.808818280696869 17.437152862548828,-0.9666216373443604 l3.4326356649398804,0.0717837642878294 3.3961504697799683,0.5439398065209389 m-38.657941818237305,-5.2106064558029175 l0.5658561363816261,0.5702479183673859 0.5136622861027718,1.1665082722902298 l2.130786180496216,10.88926911354065 m19.372212886810303,-14.529160261154175 l0.14304758980870247,1.8718859553337097 -2.7374768257141113,11.619476079940796 m-30.442047119140625,5.534917712211609 l0.7209176570177078,1.0641474276781082 0.3168794512748718,2.2225479781627655 l0.0,37.17953681945801 m0.0,-39.26332235336304 l41.33891582489014,-3.334835469722748 2.488415837287903,0.12374937534332275 l1.1131320148706436,0.5773421749472618 0.6712574511766434,1.1151590198278427 l0.22478003054857254,1.7742547392845154 -0.13040028512477875,36.99618339538574 l-0.3614722937345505,1.2040067464113235 -0.5479514598846436,0.55538360029459 l-0.689837783575058,0.028377266135066748 -1.6269631683826447,-1.0377971082925797 l-1.6593943536281586,-1.6864202916622162 m-19.285730123519897,-36.495866775512695 l0.6935538351535797,1.2168441712856293 0.14355434104800224,1.3776487112045288 l0.020755098666995764,36.496033668518066 m-11.761701107025146,-35.97696542739868 l0.07558824960142374,0.7033507525920868 -0.5251483246684074,1.2337353825569153 l-4.28091287612915,5.468028783798218 0.006920125451870263,0.6780139356851578 l0.6479474902153015,0.48883218318223953 3.2377108931541443,1.4805161952972412 m6.351101994514465,-7.183501720428467 l-0.11849196627736092,1.213465929031372 -0.6840947270393372,1.1249558627605438 l-9.54793632030487,9.838802814483643 -0.5624779313802719,0.9229367226362228 l0.24627411738038063,0.5911930277943611 0.9040185809135437,0.04227030090987682 l10.294866561889648,-2.7883195877075195 m-1.514805406332016,-2.441796064376831 l1.5283183753490448,2.2424794733524323 1.0246219485998154,2.600911259651184 m-6.594336032867432,1.3837294280529022 l0.5639981478452682,0.908748134970665 0.14870615676045418,1.2151550501585007 l-0.0761081837117672,12.273504734039307 m-4.345775544643402,-10.232031345367432 l-0.04355825483798981,1.0371214896440506 -0.43123308569192886,1.1222532391548157 l-3.2890602946281433,5.332898497581482 m11.945476531982422,-8.178057670593262 l2.276262193918228,4.801838397979736 m8.286160826683044,-18.939796686172485 l0.7470990717411041,1.777970790863037 0.8855649083852768,6.987563371658325 m-0.20759319886565208,-8.096979260444641 l10.74924111366272,-1.5568223595619202 2.057351768016815,0.0961744412779808 l0.38452882319688797,1.0560397058725357 -0.8283036947250366,5.44877290725708 m-11.329284906387329,2.117484360933304 l12.204927206039429,-1.5428449213504791 m-7.88077175617218,-14.031881093978882 l0.5499784275889397,0.9631378948688507 0.11418470181524754,1.3060298562049866 l-0.048430319875478745,21.536993980407715 m-6.794328093528748,1.8891149759292603 l0.9097616374492645,0.6129827350378036 1.0965785384178162,-0.06663589738309383 l10.494520664215088,-3.909136950969696 m-0.7472679764032364,-3.16744327545166 l1.9669835269451141,3.575873374938965 1.0496209561824799,3.349868655204773 " fill="none" stroke="black" stroke-width="1" /></svg>