<?xml version="1.0" encoding="utf-8" ?>
<svg baseProfile="full" height="100.11272463048957" version="1.1" width="120.02654400836494" xmlns="http://www.w3.org/2000/svg" xmlns:ev="http://www.w3.org/2001/xml-events" xmlns:xlink="http://www.w3.org/1999/xlink"><defs /><rect fill="white" height="100.11272463048957" width="120.02654400836494" x="0" y="0" /><path d="M25,27.50409605700966 m0.0,0.0 m16.901561393876026,3.6519861181546087 l0.07624489446419887,0.5122366803969521 -0.18172689438345588,1.5918887510377493 l-1.1285323991373277,2.687695953176657 -1.8850290073077554,5.556405896482371 l-1.4777268472654104,3.642422288616438 -0.07519765506551288,1.284615290565417 l2.5641902179985046,0.39297957664220257 10.735136160887002,0.8653354100798129 m-11.178766282931687,-9.647113219897767 l2.523443773117359,-1.194083183661435 8.015582455789716,-2.0357454519418408 l1.0870020270580485,0.19725647972365845 0.34659839799621395,1.0862627982717212 l-2.6025900643897137,7.994146963168678 -1.4554552599885229,5.305795721753162 l-1.6595966339398234,5.0740834869326585 -1.5901493024686377,3.7512394061544385 l-1.3549763987589762,4.423216365240726 -1.3555240608441355,4.202724741517308 l-0.4547847591175981,1.7790108848187698 -0.3447422782653484,1.8928742229763154 l-0.24113357049193976,2.1638626417875018 0.06827988828165626,1.2418931306446084 l0.541097398222185,0.7951410718950476 1.0411197515602892,0.3382990119994215 l2.526880256904717,0.05419753694473223 3.9416079793805916,-0.24297514497139605 l3.0005912073317895,-0.2148232138773649 1.161249641770365,-0.289144743812209 l0.908396494400955,-0.8028281877908056 0.46585001678433036,-1.6296048043063387 l0.15681754820804328,-2.5093706734734393 m9.950341810961019,-40.788183993900596 l-0.25248731503767674,2.5303432646749093 -1.1279866236123897,4.042336382304401 l-1.4426989452155738,3.9815980788667638 -1.6056199973010867,3.5979532210721463 m9.29908145914081,-13.58400191535497 l1.0083879147144896,0.0680175852500762 1.5590750755741207,-1.295108455851504 l4.346236971911446,-2.883043085191362 0.5567169044435505,-0.09388894412787616 l0.4224711074310379,0.36940008199678687 0.18697727625830365,0.7430869883468946 l-2.603379129895976,7.948636728048064 -1.9179521561920145,8.053723596971688 l-1.8507616302099898,6.660963739456145 -2.048844676346535,6.079779014524291 l-1.8782248370135985,4.425816895982751 -2.064903646059799,4.262898126316645 l-2.251411481023936,4.088054575506456 -2.204963903513762,3.2317926520124667 m3.2094613698092602,-31.919226385457588 l1.2869249750078064,0.7748471287038229 1.7983517983049753,2.1524467361023145 l10.590332948976759,2.1295378980139517 5.16628320527895,14.251647566266321 l2.303543748478154,4.489419298124561 2.509400445664244,3.0645890785337158 l1.863568733049766,1.222206455690585 1.8219334255982138,0.7051598667391168 l2.1153534906516755,0.5463686220347358 m-13.18701194212959,-41.55098498329075 l0.3408583112276473,0.9283707798193577 0.07361245149220302,1.2295948881269854 l-1.214933260533931,5.399562348957663 -1.514400440064172,4.747226272271894 l-2.178971167364029,4.0724595660446 -2.918162326340677,3.2779050022931133 m11.615678009931464,-20.596830770461995 l0.33588919218520547,1.8366877147187584 0.011505635183082924,2.319724628161651 l-0.2839177527772091,24.276342732955566 0.2849384181693568,1.2242421743840755 l0.914150684861226,1.0937055808026768 1.871785687761211,0.5074679398255605 l3.6769419944042316,-0.04257912663788431 2.3661297585872956,-0.46914474653677635 l0.897238668568346,-0.649279379302535 0.7725697262340995,-1.3766318838976404 l0.2793913125721368,-2.145470077538149 0.06232463688866045,-3.0143424544423834 " fill="none" stroke="black" stroke-width="1" /></svg>