<?xml version="1.0" encoding="utf-8" ?>
<svg baseProfile="full" height="102.58496158176075" version="1.1" width="85.69451638595908" xmlns="http://www.w3.org/2000/svg" xmlns:ev="http://www.w3.org/2001/xml-events" xmlns:xlink="http://www.w3.org/1999/xlink"><defs /><rect fill="white" height="102.58496158176075" width="85.69451638595908" x="0" y="0" /><path d="M25,25 m0.0,0.0 m10.995636913056144,3.1496104470984325 l0.09993930904862178,0.5508590629102026 -0.13218411327213866,1.465016314197333 l-1.435052231624308,3.029948792331817 -2.1544045194518215,9.02448782523066 l11.058498867466811,1.0695299200246386 m-1.2642678411126307,-9.343636798035114 l1.0876570882650676,1.3877552142496257 1.3129700691066475,2.2011239003794105 l1.0670989888346512,2.4596011423517727 0.419263003107459,1.6844513954971947 m-7.218490026067856,0.9646074892308729 l0.31889368128616774,1.884499438602524 -0.026503504451311267,20.986740354532667 m-4.798718643205788,-22.515298072849504 l-0.0012323875759281087,1.54792395817169 -0.7676232009546226,2.7746240447667194 l-1.0696570500917089,2.8362330868250516 -1.174206673235395,2.4666591568591056 m-1.1086989033268322,0.2415715120122193 l0.46935919222140143,1.0299229239015055 0.2561849062360923,0.8696419839976081 l1.0747856009601628,13.677910455639932 m-1.043589108738444,-15.131668546274792 l4.265550740171655,-1.715189646902983 1.0112931532346066,0.0003089597324688756 l0.28003713865163804,0.26337706448740494 0.15713686939189336,0.4251475942012616 l0.0157549553188105,0.5480095768033058 -0.9314515614383202,10.036660951001668 m-4.471084349845073,0.8929368410327488 l5.3975776711696595,-0.8460232069115048 m-5.056977083314639,-27.590405040170392 l0.28651978817436186,0.9156508674910938 0.12448744533167223,1.661957621032631 l-0.009213398334764141,33.3692582181452 m-3.184075087813919,0.5209256800579474 l6.538753684164083,-1.0071521233709229 m8.386273150314564,-38.040902828397776 l0.4920997518176549,0.2521720407005322 0.7780294204003907,-0.0333802628254949 l7.103945385698833,-1.9266162736056547 0.39127540861636456,0.4017512059275789 l0.09629180243569062,0.6982168534698753 -0.0959073894176161,0.8258727537754382 l-1.0909944906393239,10.353773757362509 m-7.837989651247341,1.4177984444612186 l8.777696985392867,-1.2583349686717709 m-8.973261819155795,-11.422090336218544 l0.3482507001000371,1.4632499471002949 0.09732203587697352,36.136750075834684 l0.14325895522601598,2.075024336268631 0.2496699244236245,1.0707467501672163 l0.7646765600443195,0.566877230611828 4.190434172829883,-6.690629193813434 l2.3101861488243327,-2.6509896074529675 m5.189754546116315,-17.488672442478038 l0.020658022155753693,1.0647615834434618 -0.21593112392028802,0.8937829077105715 l-3.424915515309338,5.151162056478571 m-3.0854166057615084,-5.091293387926397 l7.283633685462641,12.424917378775177 1.123673778161591,1.5407064416084177 l0.8665945211475965,0.7031226278023445 m-19.010957925052416,-32.882520868019256 l0.9414075138262324,1.0465287001502348 1.3810314058080302,2.1239515213065774 l1.0472040743415172,1.9882701174764597 0.4364090822272465,1.2744584949892892 m-4.874558580996468,6.895441268653191 l2.310761350827557,1.8824908359641963 1.2143168900009855,1.5821185562985753 l0.5263830502896644,1.0785565625259024 m-4.450798076801346,9.54193981730968 l0.8168909306735959,0.3136015516793679 0.5413832915667356,-0.171080932834896 l3.0709087299743763,-2.4127820262659596 0.3847372029470054,-0.0051845576010466615 l0.44600842324920603,0.9156846785739962 -1.962280067836661,4.9729320086710835 l-0.1951191287350352,0.9711001788088314 0.1885183301226527,1.162717600852341 l1.4544407082846682,3.24880768342803 0.13166934323747992,1.1755536293110842 l-0.44273580866272655,1.0761578306979813 -3.399710051108159,4.649171492918409 m-1.47979096528601,0.5842400863698087 l3.468458755263143,-0.45790703297255075 13.125270669942116,3.516912008395351 l3.0468423952392407,0.2884469266842772 2.698547101680109,-0.2694550739356799 " fill="none" stroke="black" stroke-width="1" /></svg>