<?xml version="1.0" encoding="utf-8" ?>
<svg baseProfile="full" height="111.84513171332208" version="1.1" width="104.36577426351585" xmlns="http://www.w3.org/2000/svg" xmlns:ev="http://www.w3.org/2001/xml-events" xmlns:xlink="http://www.w3.org/1999/xlink"><defs /><rect fill="white" height="111.84513171332208" width="104.36577426351585" x="0" y="0" /><path d="M25,25 m0.0,0.0 m7.017378959024769,13.950504733978912 l0.4260184041984341,0.12579905131767402 2.4760513652276597,-0.011156939065585457 l9.600056892108427,-1.0363180790079534 1.7199522414085946,0.14119624402841074 m-16.575213238283382,10.391062200727518 l2.3474490565972377,0.1542680620014824 14.212159961134358,-1.5643236090678436 l2.168768437828435,0.12469325223964006 m-9.504925546863555,2.025664261574769 l0.5059583687333062,0.9012125411265337 0.19899276629396506,1.5143267139248473 l-0.11514336783286404,35.128203279543676 m-6.036460601896195,-29.0926446747284 l0.2576501500006212,1.5980944830631043 -0.0841404327622644,4.174425575099409 l-0.7811401029249974,6.649047564535733 -1.3456253748135418,4.896000820277 l-2.3735070453047453,5.119617976948572 m16.268545879340685,-23.96606339036601 l0.6916657636823778,0.7239189274354405 0.40136700321417573,1.2164111320330906 l-0.12941694755361244,18.932823713664366 m5.87430491119221,-39.46692823813594 l1.9764541027220235,0.19596491184429113 18.7084399603871,-1.9763567425191668 l0.7708086549329175,0.17798848767029227 1.090977070963813,1.4649873312792296 l0.06499800582782596,2.049099828257326 -0.7857249456483848,9.298658675979366 m-19.168546050409834,2.185825273020963 l20.07360532975395,-2.184915101577118 m-20.578376713406552,-10.50697427031188 l-0.23259159474447627,33.7255711784177 0.33199346642830596,2.6564650652091846 l0.7109949813096164,1.205442735520524 0.8146584815521366,0.5647271809888349 l0.9540395660131918,0.40977102903732204 3.0308225950643166,0.4666463782162784 l13.743934087436983,-0.2522974739915941 2.0030581563283842,-0.6641118735121895 l1.1813761019608575,-1.0879179683924676 0.5597912891226126,-1.634706223742054 l0.12554569972465518,-2.826794341899777 m-22.12383550492332,-35.33270267272909 l16.002052928882748,0.923214473546818 2.4620113587774073,0.31485595157448576 l0.9377890364789071,0.366765101963811 0.46350091204022537,1.0311844464433986 l-0.5815687430793457,0.6362651501885339 m-9.959348847994335,-6.262056761140311 l0.5576828352269291,0.7600887929017165 1.046496938103723,1.4446208861277812 l1.6722316077483659,11.477766539636912 0.16730113265671884,7.37375243763971 m-1.141606162571352,-16.52903838764279 l11.123817838548684,-1.4201462270411254 0.6801016021770653,0.07923101846143119 l0.46214158437387454,0.5402427147564722 -0.21000009650557694,0.9803220872412974 l-1.6241533435711466,12.650557445161338 m-10.883088060019007,0.8114030112994748 l12.052691951586262,-1.0429373859314424 " fill="none" stroke="black" stroke-width="1" /></svg>