<?xml version="1.0" encoding="utf-8" ?>
<svg baseProfile="full" height="108.30709121752355" version="1.1" width="100.57582958540738" xmlns="http://www.w3.org/2000/svg" xmlns:ev="http://www.w3.org/2001/xml-events" xmlns:xlink="http://www.w3.org/1999/xlink"><defs /><rect fill="white" height="108.30709121752355" width="100.57582958540738" x="0" y="0" /><path d="M25,25 m0.0,0.0 m28.69112427238849,2.3272037886569317 l0.4452462465013811,0.4158577133629887 0.5949413617025171,1.0451452871595006 l0.12130245203904451,1.0933644161521325 -0.061836512734037515,6.723948080875553 m-19.30773777861603,1.183442186392475 l-1.009244563240439,5.371200375426821 -1.926875524638197,6.145012252136231 m3.3942375919071837,-9.51328408646679 l23.316954166597146,-2.855884383689429 9.920327373305359,-0.7716189181198492 l4.747291139782087,-0.05226284263764907 1.087426416820912,0.34918435231037975 l0.522890725737063,0.5671573715860662 0.039782217854905516,0.7200402365950709 l-0.9487512373659607,1.6919429060526887 -2.7868131647699146,2.6746761385529743 m-26.22354791102495,3.582013325677978 l-0.08810197314081264,1.0149184430966094 -0.5751510768071716,1.0919873380690988 l-2.926631787519701,3.3985407218723473 -3.355675593881915,2.624006721880315 l-4.620434978972198,2.8508324335855093 m25.88402544160118,-12.097513780042021 l3.0174018219151053,1.907949786607467 3.0956969917427934,2.588904293288149 l2.478363505691358,2.547431628378213 1.6154707569657174,2.2565135109909975 m-16.85142752077674,-1.9059527794448128 l0.07181163601821337,1.4092266923712644 -0.7881679766008,1.9396026963128887 l-2.568269621186893,4.241043746263828 -2.66922981124581,3.5649984834457684 l-6.40423680941449,6.724332314883434 -7.346804736110746,5.97226785755076 m20.022043878541133,-20.85870556917512 l6.866122116084538,13.227116484863162 3.991524514031016,7.846924485436406 l2.387761815489488,4.142413941472706 2.232421266445134,3.1231135657925106 " fill="none" stroke="black" stroke-width="1" /></svg>