<?xml version="1.0" encoding="utf-8" ?>
<svg baseProfile="full" height="92.26156190132173" version="1.1" width="103.33460664332193" xmlns="http://www.w3.org/2000/svg" xmlns:ev="http://www.w3.org/2001/xml-events" xmlns:xlink="http://www.w3.org/1999/xlink"><defs /><rect fill="white" height="92.26156190132173" width="103.33460664332193" x="0" y="0" /><path d="M26.139164192015002,25 m0.0,0.0 m21.409119290446643,5.7394978719956 l0.060818312294221376,0.41474925213468056 -0.28914897916983445,0.7672092505063908 l-1.092389913716141,1.3535133456036745 -3.665123925855931,3.1493066460605523 l-4.601081033126501,2.6606365245406924 -5.6346468038104085,2.2509956449123076 m15.612091814020037,-7.922589961152176 l13.875365482996887,-1.435568279870352 1.0994851859380275,0.0954020523943528 l0.6002640445597955,1.5113990024024644 -8.941699304342517,6.967799558612333 m-19.892827370603023,1.3288106536535333 l0.6689026966410427,0.320956875676057 0.6411799963171172,0.184130118552172 l2.2819082085241496,7.566155424045873 1.7169219612787285,4.592463800939668 m-2.6154410939444706,-11.860910167192841 l29.241847703369363,-2.378294998109199 1.8925441428836567,0.013640613825132396 l1.341876448208142,1.6511345893462426 -2.9576305922538952,11.689223575126292 m-15.119899866745937,-11.767850478907778 l0.1245780951770534,11.599785569015731 m-15.61506343461767,-4.687868281637941 l23.20864997571443,-1.5937699843408109 m-21.907140426136095,7.714437980498772 l29.381702588503632,-1.8076687043893216 m-36.503936124437644,7.07054314616947 l-0.23382581453131673,1.4558168899420247 -1.2594452357068513,2.062455599810467 l-1.778277438632321,1.8425082790484606 -2.1888427812573696,1.713510492109197 m16.09350538249334,-7.724138346639109 l1.5690427883157771,1.275404880132867 1.4149080481322758,1.7232562687479351 l1.1127503268293144,1.8710830638191258 0.8388822291792855,2.0573093519098697 m8.962800964499834,-7.594270452293015 l1.9173344290613907,1.4874494562949843 1.9555146171206097,2.0518143227938235 l1.5491750112969294,2.13185298488669 0.6768735663644487,1.4681825224591798 m8.90701208205674,-6.803152193224964 l2.5755711598119038,1.4447833500890983 2.658042871357387,1.986818555534815 l2.1741373953975605,2.07896755068675 0.9290557714051421,1.4091093060668494 " fill="none" stroke="black" stroke-width="1" /></svg>