<?xml version="1.0" encoding="utf-8" ?>
<svg baseProfile="full" height="100.11260873763523" version="1.1" width="116.23465984896758" xmlns="http://www.w3.org/2000/svg" xmlns:ev="http://www.w3.org/2001/xml-events" xmlns:xlink="http://www.w3.org/1999/xlink"><defs /><rect fill="white" height="100.11260873763523" width="116.23465984896758" x="0" y="0" /><path d="M25,25 m0.0,0.0 m15.459112239987755,2.646624357239989 l0.483176476574529,0.2247799531866557 3.93643870915094,2.6222507395975247 l1.8108780064419796,1.8160921994448975 0.7433325889941117,1.1515724206396658 m21.007953572094458,-7.3097006390616315 l-0.19696541816542007,1.1005327252874968 -1.6030350241762188,2.319828049961089 l-2.5584328222854236,2.525500887783397 -3.040176994980829,2.4188091488560413 m-28.731170604378445,3.296228075525754 l2.855971854542843,0.15032274787564046 3.684371881291962,-0.12732801494517712 l34.23242096519356,-2.290109002302252 6.409888098439895,-0.14715631479662733 l3.48290980038484,0.21441991583413159 m-46.04523662196366,12.408940530105257 l2.4113719490803036,0.1674893698875284 2.9738361755296494,-0.039042040751218476 l30.180256564853433,-2.0513835917034804 3.246894954330303,-0.07540736045890142 l2.6957272903380223,0.20714348112401096 m-52.60478930748597,12.569927016455077 l4.122013951594286,0.1938737943245364 3.961626457981347,-0.0951466229851014 l25.45821182703018,-1.6480858855554688 17.831470675814714,-0.8550521283801971 l9.360119302651526,-0.10620395385303186 4.666483300102905,0.3483192700004607 m-32.88769766611219,-18.945369305126004 l0.8939277515873119,0.946193544190839 0.3098004626908118,1.0276642594458658 l0.02304649756860275,35.446081110788455 " fill="none" stroke="black" stroke-width="1" /></svg>