<?xml version="1.0" encoding="utf-8" ?>
<svg baseProfile="full" height="102.70219543344646" version="1.1" width="118.11853686899825" xmlns="http://www.w3.org/2000/svg" xmlns:ev="http://www.w3.org/2001/xml-events" xmlns:xlink="http://www.w3.org/1999/xlink"><defs /><rect fill="white" height="102.70219543344646" width="118.11853686899825" x="0" y="0" /><path d="M25,25 m0.0,0.0 m14.519579094552627,19.676534772620624 l0.46112755781459985,0.4104382811460805 0.6308374600431372,1.0351765079584228 l0.3751378894018963,1.752757148696983 2.0422946413813694,29.46909143135718 m-1.7052451440204974,-31.184649793876176 l34.273162279557106,-2.5140334204933157 2.040598356715478,0.06039630118574981 l2.001813456969442,0.6146341114828818 0.8116938862820692,0.7632696906144639 l0.25604347006687667,1.9549061182264376 -3.7014781031981907,29.861295510181485 m-23.613173764996123,-29.952036448877053 l0.6261368718737644,0.6901462856618235 0.27202464906828966,0.9453961233116379 l1.4380764924288025,27.015938396496573 m11.26808158807574,-28.96299068381751 l0.5062662110116481,0.9251556487388397 0.15646636347325502,1.0724254920047613 l-2.1829334473789332,27.329772418415658 m-33.21625662287273,1.0783886050427312 l2.345412642261804,0.5056049884721749 3.4420369519859793,0.15457794889599877 l24.65817584442487,-1.467705197245746 16.42211318215744,-0.6834596812400834 l9.846584138026758,-0.024469356318096595 4.143960923891767,0.5463217493618768 " fill="none" stroke="black" stroke-width="1" /></svg>