<?xml version="1.0" encoding="utf-8" ?>
<svg baseProfile="full" height="99.47160682437672" version="1.1" width="105.13649488726011" xmlns="http://www.w3.org/2000/svg" xmlns:ev="http://www.w3.org/2001/xml-events" xmlns:xlink="http://www.w3.org/1999/xlink"><defs /><rect fill="white" height="99.47160682437672" width="105.13649488726011" x="0" y="0" /><path d="M25,25 m0.0,0.0 m11.765351140596744,4.861583409549293 l0.5280085361789784,0.18756315843284763 1.821374965469445,0.11110693209961355 l9.9253666069384,-1.358239282432693 1.339256228283852,0.3866426304515178 l0.3160415443767776,0.4907180116670388 -0.40741554356379023,1.5432736874764552 l-4.269874067269828,8.542548815821771 -2.5015734119200705,3.5173805242012484 l-3.0527238658727045,3.391781889025244 -6.124389163613244,5.2487046732081595 l-3.336028923010047,1.963064295965608 m3.8651216116260247,-16.26602367983672 l3.5222870679207694,2.3990286528613525 1.6210482602038057,1.5550113802908043 l0.7397794257930438,1.1018796675637523 m23.282743725489723,-12.837862785210287 l-0.1506230272000808,0.9203377126064833 -1.6079741588828091,1.8386588878364722 l-1.7903399093370842,1.4317240324473601 m-7.398615204845946,-1.9169383526094577 l5.959662842680212,3.6520339853384787 16.687426353803726,11.98814824755608 l2.044904342767516,1.1365797986059665 2.357679510646715,0.7101941615303322 m-6.671981710994204,-18.10612809911281 l-0.42304829058427645,1.2003598385370569 -1.3885367462998999,1.5576494892361525 l-2.0145082324450834,2.9027020909944414 m-22.527580469878668,7.754054863513702 l3.080181057428178,0.09385895058931552 12.851592114898786,-1.6785717570752796 l2.5070019283294553,0.10401880431015524 m-20.34164992106061,7.879096016389833 l0.7975428038196772,1.3198912623916241 2.096662614854757,10.242906611613348 m-1.7987700226608572,-10.675610684224873 l15.434428581528335,-1.9283745456135675 3.483697597577242,-0.13779899811421933 l1.0737883999966764,0.928463194818518 0.13801389465760502,1.4360746410691143 l-1.868599739024284,6.857638700512039 m-16.01874676640948,2.1232851355518645 l17.53808534263407,-1.7359631428017037 m-19.35545747697751,5.814870607701011 l2.3150286653099967,2.8574975684359254 1.0691421215301709,1.858824231138895 l0.5410272249610948,1.6155208455576615 m14.486419129891354,-8.7004215706763 l-0.03965023108231925,1.4987068055283403 -0.7507054092327684,1.987578726446206 l-1.4022738126199359,2.4627594074320367 -1.9854059433695315,2.5773938529546374 m-24.46326878377593,2.3731645048720815 l2.2976867156621825,0.3335956442059457 3.6925923048092106,0.055663373748832144 l18.72593224456241,-1.234231747213044 10.767578663852516,-0.4307880613844329 l3.5262241913556105,0.07111693970354879 3.0082518414143236,0.38423506132998503 " fill="none" stroke="black" stroke-width="1" /></svg>