<?xml version="1.0" encoding="utf-8" ?>
<svg baseProfile="full" height="113.09033053785112" version="1.1" width="102.66366784043582" xmlns="http://www.w3.org/2000/svg" xmlns:ev="http://www.w3.org/2001/xml-events" xmlns:xlink="http://www.w3.org/1999/xlink"><defs /><rect fill="white" height="113.09033053785112" width="102.66366784043582" x="0" y="0" /><path d="M25,25 m0.0,0.0 m30.444454664790754,0.9907678721908509 l0.36659493670041415,0.4289646766042861 0.4942192276007721,1.1445432266000433 l0.055990335950339996,1.2700445244356025 -0.03691025637856947,7.491552715136652 m-16.79314932891716,1.7574597591065615 l-0.7176611199576094,6.058402432585608 -1.5995640367716635,7.087351238873459 m2.8781518861332924,-10.962194353577148 l20.354572775805128,-3.1667515445438243 9.008760524048864,-0.9003119770511967 l4.1194827466715696,-0.09920552346352206 1.3651374445435545,0.37742173505878485 l0.6394151519628283,0.5765235472960994 0.1764420147513711,0.7367831045975289 l-0.1894048588787012,0.8481399137299024 -1.0680402262947952,1.9139820538517187 l-2.242804067714521,2.592433260119489 m-25.43020827174108,4.758860062753386 l-0.04500341439461493,1.1545741645683687 -0.5312954926554899,1.2805877494033673 l-2.7445467789714266,4.593148857924399 -2.8520383765056976,3.4864910741273536 l-3.612408524496232,3.388130750263537 m22.325448773502146,-17.249357500137208 l0.6066611839352679,2.081838620403551 0.10936338877972408,7.341562005976245 l0.28164226887484684,1.4415475250451149 0.5678653085353174,1.2252176210731414 l1.4501206811727756,1.2619227984355423 2.415141691033651,0.4404814380370159 l4.173544248235195,-0.11289341130515389 3.9214082086592237,-0.7002908515622827 l3.472648200982407,-1.0524646807517941 m-31.195459261087656,13.210035610114065 l2.55056278079945,0.3960305229219621 16.156751927274964,-2.3049670443614594 l3.238064363838479,-0.2420394472028229 m-11.597363811165739,3.090521331330321 l0.5935629172639547,1.0208800525451092 0.21137361154946124,1.4034842135137344 l-0.02985063701817675,12.499728965643124 m-19.025573789844668,1.9239911029203185 l1.8444266897447243,0.540753639143143 2.210458412622395,0.06664870547813262 l17.30505689047093,-2.3206477091710473 14.057882312658958,-1.2004776077813104 l2.5434780958915164,0.03321215245394906 2.436266428445336,0.5873200262224326 " fill="none" stroke="black" stroke-width="1" /></svg>