<?xml version="1.0" encoding="utf-8" ?>
<svg baseProfile="full" height="98.39513283949921" version="1.1" width="102.11564860954041" xmlns="http://www.w3.org/2000/svg" xmlns:ev="http://www.w3.org/2001/xml-events" xmlns:xlink="http://www.w3.org/1999/xlink"><defs /><rect fill="white" height="98.39513283949921" width="102.11564860954041" x="0" y="0" /><path d="M25,28.101226866379786 m0.0,0.0 m14.846612869163213,4.023149404966989 l0.38842777321239114,0.13359190186571418 1.5720092141491473,0.13422876917621432 l21.642975498566173,-2.3830834243866463 4.249429462320167,-0.18303600234399733 l1.9913196061900456,0.24138714260530106 m-24.682514333478583,-3.778584975290368 l0.8313815397426825,0.8268587140134925 0.28363201664700144,0.617126680157553 l1.0896236569976747,8.771986065625628 m12.180983929640886,-11.504851142769667 l0.5452660364724609,1.2394350873043285 -0.0046614139554617745,0.9887325086833765 l-1.6968666394114977,7.963929750587815 m-7.859185309782189,5.798137362373199 l0.05939473399932477,0.6262607334430509 -0.39555295994210243,0.7320549517301583 l-1.8357350065589828,1.9553599041250518 -2.560148363796637,1.7070036227377423 l-3.657510665914888,1.657152732489135 m-2.265969427279395,5.1582050015281204 l0.9431529854270865,0.23739339796980655 1.2336649296089957,-0.08092583779090887 l11.642189046574098,-1.901057479993763 m-5.963923364194719,-5.390729233768632 l0.4309176885888839,1.0095232822942823 0.22322438109761064,1.294630121581775 l-0.04912040848496341,25.40002693420467 m0.013218248574716606,-21.867581991262526 l-1.470396702791669,4.6456705007036785 -1.7147402919358197,4.324359182527659 l-1.8930013705303068,3.655156546460855 -1.893302410794946,2.7628390453681693 m8.660754403772883,-11.1964392354329 l1.733513515611721,1.6103280496549168 1.977450351509944,2.8783109151314377 m7.637106781166432,-23.731779301066744 l-0.2817588252560182,1.9903988528018324 -1.4461043126332087,3.5493156100005527 l-1.9543686838980703,3.3365195547960944 -2.1094833391400716,2.585699375512488 m5.806107189227913,-7.2933482551278965 l3.149134461444024,-0.5691912989851742 2.9663868990366486,-1.153009450678217 l0.4728235227494593,0.042569602055347856 0.317831346994332,0.4602783117709837 l0.1478474802513217,0.6443441063833083 -0.07829295748032425,0.5651289939314866 l-3.0877815252013208,5.734611642353891 m-7.376152143800578,1.012545926022892 l0.7138218833069555,4.570532290296542 0.8156494134296552,9.823373853875358 m-0.9868943549425648,-14.056699731288473 l13.75376445633949,-1.7901294393331215 0.6065107551073952,-0.012565446738003515 l0.8189437195134885,0.4358584579358289 0.2285286869103984,0.7735746339486296 l-1.220406884223686,13.181478729020476 m-6.469359851137276,-13.249499520580642 l0.052439163567007376,12.604360474023615 m-6.975319754651449,-5.373272223459598 l10.48391948797208,-1.2683941284511293 m-10.0250258768141,7.480728790567139 l13.161539359725657,-1.3277682982848262 m-14.24566560589459,6.8212348573515245 l-0.5106067379685956,3.040869370030447 -1.3412863406322533,3.563098129050235 m5.58387827671576,-7.547277448466141 l1.278175740291347,2.221582543560722 1.0854684119166484,3.7311524394410944 m3.0077060566022618,-6.110519793617666 l1.9309367156329367,2.8990760118105885 1.0548320863776206,2.802986827256309 m2.8265419964190346,-7.11943827832886 l0.9334134426112706,0.9621931961560779 1.2953141257771754,1.8578912244085628 l1.0668373542970397,2.0203583033735693 0.4321837708161938,1.2609825155660264 " fill="none" stroke="black" stroke-width="1" /></svg>