<?xml version="1.0" encoding="utf-8" ?>
<svg baseProfile="full" height="95.62230719696448" version="1.1" width="99.0159313498027" xmlns="http://www.w3.org/2000/svg" xmlns:ev="http://www.w3.org/2001/xml-events" xmlns:xlink="http://www.w3.org/1999/xlink"><defs /><rect fill="white" height="95.62230719696448" width="99.0159313498027" x="0" y="0" /><path d="M25,25 m0.0,0.0 m13.48290205213876,6.25515374533088 l0.3710850597262392,0.3983005281674762 0.3193844045534859,0.8367152438416914 l0.025511679391133295,10.397910432952996 m0.2733235485014867,-11.253850705176625 l10.455491271589558,-1.2164515261309987 1.6630983537205448,0.038828699891913926 m-11.921780692606307,5.117385736193498 l8.41697056567837,-1.313878013273931 2.126603699259821,-0.011413513301403838 m-10.277519016097209,4.459890854562889 l8.33376758394989,-0.9847046107358246 1.8114446436118414,0.0342214866997973 m-18.260912474974038,5.466806630348781 l3.0175714616095526,0.02190401762396572 13.792968541768037,-1.7520578986952264 l5.061131840898625,-0.05968894788881412 m-13.091585675546497,2.1280054240856248 l-1.0073738262961751,1.7450080002580355 -2.185776524498245,3.329602944880262 l-0.18829613864777858,0.47809567371258277 0.2586502554001238,0.3732688503649951 l2.159166959416252,-0.3346976259990821 9.810211043585317,-2.8930923645494957 m-1.9943627816385807,-2.194249745343923 l1.429931426421173,0.8684598892370449 1.6987283462066318,1.3733353784823112 l1.3688346753285667,1.466064047476058 0.5357949376010689,0.9100915125601294 m16.1399890812502,-18.39655328671749 l-0.041033453409517584,0.6072804904799283 -0.4010570882551002,0.39325985482456344 l-3.072282570961216,2.1868882442956963 -3.4683652055916716,1.729695992073269 l-4.2794345588737155,1.609470986381463 m13.682981939083447,-1.6723339183777408 l0.06390775236718414,0.33913022299681217 -0.3499702279768017,0.5690045805933572 l-4.324067789094255,3.0541180674040307 -3.686293739808185,1.9096266967136748 l-4.384493900376505,1.730361682279432 m15.651085891397193,-2.618642674422813 l-0.09940793179451342,0.7927658944895893 -0.9136977143022824,0.8601895892497171 l-2.074364237253611,1.4767344580697617 -2.3436527654523793,1.3617820849619147 l-4.85108060268072,2.2850267989431634 -5.2278297556103634,1.8627748035161025 m-18.440886302438724,3.1155353185843726 l0.8935248792954092,0.20142079030193896 1.3679873968256184,0.052169571166337844 l24.547853413597544,-2.50679506278389 0.6323792558236452,0.021522627359901878 l0.5734792820380975,0.29230486575506 0.32965235494481887,0.7454319387364844 l-1.2626745058127002,3.6230832137579174 m-24.756158884544472,2.2312366918161066 l26.57820399228124,-2.1069465359032304 m-27.558362753124317,1.1169531309780283 l0.24764408264567123,0.7066180613857831 -0.08376090704304129,0.8251443650841584 l-1.7414417228799317,3.653700882850077 0.46557536731535554,0.5147425604543939 l29.688452510809466,-2.5586911337428107 1.0692560928919808,0.05496182395722933 l0.7970930202852048,0.7922710374048888 -1.446077795793983,0.5994661038241115 l-2.3333315483485686,1.531618672306451 -2.464336069959466,1.377475043480943 l-1.1270897902136325,0.22671564063246405 -0.875250103739601,-0.3775911900933758 l-0.8534824304801564,-0.8062964428066113 m-15.695508523705168,-17.175984116981983 l0.7042420879178375,0.8670940281723084 0.20204642318253552,0.8894736093801547 l-0.04044915839746539,6.129313257948331 -0.676317533929839,4.731590159419172 l-1.3157233078178783,3.850108307930549 -1.7571509856523009,2.977310482141676 l-1.9465157295440239,2.0727877220801085 -2.9789649421056223,1.653808836029608 l-3.3852479151251336,0.9922683818414698 m19.235251391797494,-24.084073846987355 l0.8159121890108503,0.6569850109511575 0.346140298684299,1.0043411048513884 l-0.12265771571338624,23.96568757235114 " fill="none" stroke="black" stroke-width="1" /></svg>