<?xml version="1.0" encoding="utf-8" ?>
<svg baseProfile="full" height="106.93860107845299" version="1.1" width="141.31319311510356" xmlns="http://www.w3.org/2000/svg" xmlns:ev="http://www.w3.org/2001/xml-events" xmlns:xlink="http://www.w3.org/1999/xlink"><defs /><rect fill="white" height="106.93860107845299" width="141.31319311510356" x="0" y="0" /><path d="M25,25 m0.0,0.0 m14.44705589045529,12.468595401566297 l0.4610425313221668,0.43775539340412434 0.41205731937435,1.0211717393575634 l0.07194252866557764,13.412516623373191 -0.2561450163401215,7.101861443567793 l-0.6773757579914433,5.620158229172026 -1.0858163497177282,4.719493598442543 l-1.540790974101567,3.873532311650704 -1.9624701275508356,3.245959522084914 l-2.5611400910781756,2.6933098813400225 m8.898628390209833,-42.28289334994916 l12.55281449668261,-1.651354405790932 1.5880194500132874,0.5379255034646271 l0.4915096925760033,0.4923984947150243 0.3043836491396348,1.230986442958255 l-0.17821059270281706,39.75542645511537 -0.42165298901658604,1.1927339848153036 l-0.6523596261978517,0.5494850731643904 -0.8204479406876977,-0.002480996309452393 l-1.8996925885325444,-1.0017454429854793 -2.171589055364136,-1.6320367850116937 m-7.648961168357988,-28.667724794571864 l13.527170158586856,-1.0713085699292952 m-13.911696787450076,11.734260012148455 l13.693106749118472,-1.0604202908239617 m23.104792366646624,-24.550959039163214 l-0.4092020708432657,1.6799706037349293 -3.4652188415595178,4.745052506900031 l-4.326837764500285,5.06405352007605 -5.007267417802584,4.924808385082081 m11.238722657941429,-8.159384028685915 l2.772303402331341,0.040772671728221466 10.174910759063435,-0.4077098197479259 l16.06847023680976,-0.528146573039607 2.8688575453754184,0.2643037724863782 m-27.43382364003945,8.239556919711788 l0.8578898136993032,1.2197350210912759 0.053360930213912396,1.7945272010831326 l-7.475482962641695,20.202907488431656 -0.042229338201034035,0.7866199470095536 l0.6853446768246497,0.5134313949657077 11.751316446190932,0.6431745927882139 l8.688613023879624,1.3665734573348771 7.394143689338433,2.2351779938530822 l3.2910344806018474,1.4187898527947618 3.0872297693106807,1.7802234309071707 m-27.68775102469566,-27.912122306660454 l3.7961133250034633,-0.3920604392584559 15.147032328486649,-1.6765811462858577 l2.6555281019437396,0.24019979124747107 0.8612813526871271,0.9170679623002799 l-0.46316452810035247,5.355171397027185 -1.856699043902369,8.919786145204705 l-2.193437472431942,6.906249534607502 -2.3355068484300086,5.343209443674795 l-4.014897646760908,3.246595922284813 -2.636513559968852,-0.9766597915254519 l-1.8900922313323236,-1.3745920344777929 m0.12210693830561267,-24.830915051251417 l3.4375041058700644,1.5247575970530538 2.4495355572181805,1.775112204900613 m-7.239906549803656,6.461732711071575 l2.9073881707602194,1.6829449631834064 2.327229908905016,2.125824099770372 m-24.62842498685053,-6.613423036688278 l4.1357589175472995,0.19834022677942648 34.90950597892525,-1.7842079774391666 l5.892947245613064,-0.06687654852233538 3.0813455224203756,0.3099577026346853 " fill="none" stroke="black" stroke-width="1" /></svg>