<?xml version="1.0" encoding="utf-8" ?>
<svg baseProfile="full" height="102.63949034056316" version="1.1" width="97.78339153542123" xmlns="http://www.w3.org/2000/svg" xmlns:ev="http://www.w3.org/2001/xml-events" xmlns:xlink="http://www.w3.org/1999/xlink"><defs /><rect fill="white" height="102.63949034056316" width="97.78339153542123" x="0" y="0" /><path d="M25,29.465428816196575 m0.0,0.0 m17.956411120085463,3.6351462572968107 l0.4510811334974853,0.1684340875670809 2.869087568148062,0.19540427919677023 l22.139947179586354,-2.121971194258234 2.300306425632431,-0.15524290098574292 l2.0665581084714413,0.25632286459445125 m-32.0890973285642,-5.32365083107927 l0.6964284006972449,1.500581516061359 1.49590827482384,10.05298143770883 m15.34349762127261,-12.67343433229863 l0.07808328328169804,1.7295434932166311 -2.62180769545304,10.05166927085985 m-24.25611079763965,3.0056479102295843 l0.6586406204258768,0.6993813998534182 0.4241084921204287,1.6135485148270103 l1.440844834043138,35.53969975157666 m-1.1930641997739486,-35.19641465866066 l10.155155767953538,-1.5850036718210736 1.1084906267278065,-1.7506737671942543 l1.2312565673233615,-0.4015015410437922 0.3918645850688531,1.163997283895648 l-1.2751435455588318,11.171865503202355 m-10.50971284105746,1.636310954638094 l11.790277213144309,-1.5809640966836687 m-12.141119020475424,11.487442523772492 l10.315690823657663,-1.761975052179383 2.1104589608277284,0.021063240998871913 m-12.089950201030097,11.387106060686646 l10.925231948970204,-1.5162659487646495 1.9564290428957458,0.018570475420794305 m6.296192470097213,-29.809653491762564 l3.3576893979973854,0.14393616245953303 9.587041060092567,-1.8124609609772104 l1.4841561290249083,0.02754270374398865 0.5341290518916381,0.7670645205614874 l0.006637905797652457,0.7364646051931504 -0.19643707997024681,3.913272078792187 l-0.6806936347553251,6.186310050671008 -0.903998804963363,5.538494626988794 l-1.0621897524978658,4.750934710415697 -0.5207263446038516,1.9746754294106164 l-0.46321470058283276,1.0355054869280456 -0.4895943529295347,0.45114410564885865 l-0.5168660933089867,-0.029316956200812073 -1.0312928250966251,-0.9175322550691484 l-1.2411536359099966,-1.7893636646892779 m-7.181874021801262,-20.21264199799407 l0.49172939581744013,0.9723976708920101 0.1996684016868994,1.2541273652466811 l-0.031611290971967715,30.72534642473138 m-19.86863682730183,-13.357014450576585 l1.5967299771973444,0.39046679309852905 2.010754991806579,0.0022247145095407833 l27.069125397978166,-2.5219117752518287 3.7602583102785045,0.19120402817850518 " fill="none" stroke="black" stroke-width="1" /></svg>