<?xml version="1.0" encoding="utf-8" ?>
<svg baseProfile="full" height="107.42895156080137" version="1.1" width="100.45293820308251" xmlns="http://www.w3.org/2000/svg" xmlns:ev="http://www.w3.org/2001/xml-events" xmlns:xlink="http://www.w3.org/1999/xlink"><defs /><rect fill="white" height="107.42895156080137" width="100.45293820308251" x="0" y="0" /><path d="M25,25 m0.0,0.0 m17.622526632029373,13.54666426709989 l0.4087798452903449,0.1387214480371225 2.7214297780592203,0.11928889798647795 l23.68854919415897,-2.2544552626494005 3.6873667125622704,0.21696366793808328 l2.324286040982332,0.36023848279598 m-30.28023406886707,2.290502740928452 l-0.08399032888736782,5.070703129958372 -0.4356452785607058,4.740555976568596 l-0.7911635840247002,8.687456560405051 -0.8402471798338196,6.601533943479255 l-1.0958139319212576,5.9052980198897735 -0.9952566803287163,3.8624993385251583 l-1.2402194862614169,3.4579566888700755 -1.4699492884943506,2.9369032707908276 m10.075483392679285,-36.39209442481493 l0.3552182539524139,2.249422885892028 0.46223227175254816,24.771424565619927 m-0.13378239431170702,-26.095910284699183 l8.740968653276902,-2.1640681785299494 m-6.545571536854373,1.4740202483407108 l0.3259539797319545,0.5213785453234021 0.1893393737121584,1.3450263580137016 l-0.04091701368907579,23.52361296324041 m-4.295316210256754,-23.47571823537241 l8.89613585376011,-1.2708648690474447 m-8.185564568216929,8.392557366754128 l8.4449403528827,-1.3269762866504269 m-10.486536459145476,9.802422669122002 l10.751221684852498,-1.844712774617091 1.2271127603910719,0.05992785921716827 m-19.229149380800607,10.118863286511726 l0.6526840772539968,0.3745435422963626 1.0128435210890419,0.018222174930695997 l14.994070549770747,-5.149314513167478 m3.3863849973259055,-15.858847295191195 l0.5929158144645227,0.34393706240072963 1.0290237429664022,-0.006408868582160614 l11.028690261884234,-2.5167926681872155 0.9403893680685882,0.46280705582720183 l0.28500984315187583,0.5637903037038727 0.07809794605983061,0.677118496667831 l-0.1170654660470387,0.8110693589074331 -2.5150590730564795,8.106430184615089 l-1.7832634569883004,4.484856207793662 -2.015099946802945,4.2874676177857225 l-2.3813320399137776,4.021257221036339 -2.5853897527467486,3.417319657197037 l-5.1250780005371,4.793861198628005 -2.7489857675744234,1.9289272653105582 m2.5422711319500144,-25.17106208350877 l1.3001178216553833,1.8930681353772054 6.556707656666528,11.451856938471243 l3.6094529278584453,5.965427265055081 3.16877704662218,4.100893007706882 l2.58637870407694,2.3817879127426553 1.1169683778698865,0.677593518057098 " fill="none" stroke="black" stroke-width="1" /></svg>