<?xml version="1.0" encoding="utf-8" ?>
<svg baseProfile="full" height="114.35507810410465" version="1.1" width="102.81773237175767" xmlns="http://www.w3.org/2000/svg" xmlns:ev="http://www.w3.org/2001/xml-events" xmlns:xlink="http://www.w3.org/1999/xlink"><defs /><rect fill="white" height="114.35507810410465" width="102.81773237175767" x="0" y="0" /><path d="M25,25 m0.0,0.0 m15.475761120669393,14.630613824154594 l0.4169246937280311,0.16638826797932318 1.8411156072084334,0.20199843238488008 l27.874483853779388,-2.3272470151759173 4.960747751707583,-0.14653955436015823 l2.248699344664845,0.304100495594747 m-27.955461970210635,-4.361738142534381 l1.0067676766592943,1.3056906312547123 1.3960811010879752,8.978864330592092 m13.706738586298991,-11.294356871459241 l0.572499726079927,0.8818861977865975 0.07289224991195782,1.0630048412995488 l-1.6179254926258313,8.579013561382034 m-7.541057107411758,-0.13555081460293508 l-0.2386313406163747,0.6442387485539101 -0.7057723856808732,0.9889731861710169 l-2.397085700686389,2.197444428317258 -2.9980333622261512,1.9342847020181615 l-3.2492903842772867,1.4775878625328827 m21.83171969239184,4.081103895734013 l-0.011801243993292493,0.027881641919594236 -0.3319417827550152,0.3974848033762875 l-1.6831334853724473,1.2980307577265227 -2.538808881387824,1.5826535823727057 l-2.9798036337484333,1.4962622228300484 -5.78578322244681,2.1976811389250055 l-6.951312225922012,1.8954510696190077 m-0.2935646193272767,-4.568490180939626 l1.8749194604058743,0.707972419953773 2.2601369676207375,1.5334432018282644 l1.795738955898107,1.5562644060774546 1.2375401103754409,1.5567710194221462 m-9.860240735858286,3.0541211059079854 l-0.13371332584631387,1.7328507462139349 -0.9786234317520199,3.5421756667539097 m2.2955121136350587,-6.3494888762624235 l12.475056872565373,-1.6158581187754588 2.0065381320072664,0.11263151941116312 l0.3908813856582304,0.6192451029995758 -0.061996134970226636,0.5210308279240891 l-1.4926671781169847,5.531186477376178 m-14.84549483339401,1.4456032400564724 l4.678423857843754,0.2050440671855905 10.325314287346492,-0.7992817325953738 l3.921155674484709,-0.12606695793685443 1.6979125844011467,0.19971117485644593 m-11.113017801808502,6.152276843636867 l4.053237912992209,1.1123078714999934 1.2724941112852888,0.48084426183497203 l0.8567477499426297,0.69983637195172 0.22118602636973494,0.7763822277440854 l-0.42714715680077897,1.0080210671405239 -2.6524124582163124,4.700557489797939 l-1.625120420338735,1.7810590824448458 -1.0363133199690708,0.6801656905464548 l-0.563759910842904,0.03955586365770308 -0.8252600185932208,-0.5835915015165739 l-0.7919428110021423,-1.1063764098815194 m-0.33464934465555596,-12.418890013026177 l-0.004623122401324101,1.057330731476858 -0.7723801691449339,1.7768149556981665 l-1.3108379686390499,2.342710876998898 -1.6555045481303035,2.28551007088532 l-3.42331128109148,3.30854629574743 -4.432286359592621,2.7105770013505226 " fill="none" stroke="black" stroke-width="1" /></svg>