<?xml version="1.0" encoding="utf-8" ?>
<svg baseProfile="full" height="109.49251292739064" version="1.1" width="106.05740919243544" xmlns="http://www.w3.org/2000/svg" xmlns:ev="http://www.w3.org/2001/xml-events" xmlns:xlink="http://www.w3.org/1999/xlink"><defs /><rect fill="white" height="109.49251292739064" width="106.05740919243544" x="0" y="0" /><path d="M25,25.00000039115548 m0.0,0.0 m15.990484952926636,0.7075336575508118 l0.41973479092121124,0.30526166781783104 3.240494728088379,3.521503508090973 l1.4826533198356628,2.3282667994499207 0.5983969196677208,1.467454880475998 m18.108742237091064,-8.330020904541016 l-0.03973413724452257,1.1854758858680725 -1.461472511291504,2.8876978158950806 l-2.453734427690506,3.220769166946411 -2.747354805469513,2.845659554004669 m-22.040927410125732,3.7692052125930786 l2.53845751285553,0.17499390989542007 3.1771141290664673,-0.16835469752550125 l23.626086711883545,-2.44128480553627 4.981520771980286,-0.22346915677189827 l2.520025670528412,0.2541489154100418 m-35.67939519882202,14.321428537368774 l1.8082872033119202,0.30635304749011993 2.3673947155475616,-0.011580702848732471 l12.10310697555542,-1.5224681794643402 11.366469860076904,-0.9425842016935349 l3.947059214115143,-0.07987248711287975 2.5135579705238342,0.3427322208881378 m-43.709330558776855,14.693950414657593 l3.2029837369918823,0.27761349454522133 3.322630822658539,-0.06915578618645668 l34.98932361602783,-2.5024423003196716 7.504133582115173,-0.17257370054721832 l4.380698800086975,0.3803442418575287 m-27.566680908203125,-21.89605712890625 l0.745045393705368,1.1589595675468445 0.24834847077727318,1.1589595675468445 l0.0,42.54406452178955 " fill="none" stroke="black" stroke-width="1" /></svg>