<?xml version="1.0" encoding="utf-8" ?>
<svg baseProfile="full" height="109.82505199487206" version="1.1" width="109.25494659913588" xmlns="http://www.w3.org/2000/svg" xmlns:ev="http://www.w3.org/2001/xml-events" xmlns:xlink="http://www.w3.org/1999/xlink"><defs /><rect fill="white" height="109.82505199487206" width="109.25494659913588" x="0" y="0" /><path d="M25,25 m0.0,0.0 m15.067529630487796,12.512748458307032 l0.5378840584836206,0.11975972346390773 3.6546257211151225,0.09903679800940045 l28.668291874441138,-2.2048880321681654 3.7855509670446006,-0.11844591491598516 l2.9162967616447153,0.24089995674226095 m-35.50910577769373,2.601759592462998 l0.583310061370538,0.8121833488665077 0.17849432572059587,1.4061706214532923 l-0.15572252926094265,5.914968936049168 -0.7344138072671782,7.072019880029288 l-1.1916052201569611,6.005842953288285 -1.4181632658360859,5.067660236390574 l-1.3946448940063974,8.508987280708226 -1.7824147151685357,7.486131184568225 l-1.388513811659261,4.300216971617048 m13.169777606032428,-39.1846813621064 l0.5868308511449178,0.26288525363569604 1.5846668598344897,-0.04200077873259503 l16.6967387614113,-2.241784652293177 0.7278036428137988,0.236208759298108 l0.3194619611203898,0.9313993063752753 -0.3876469902210754,0.8454335285094026 l-7.237351380202799,9.634640484210674 m-0.8490488728930848,0.8880440366948159 l2.1360958196415405,2.5542126483404206 1.6426244272718085,2.866116187816371 l1.1192796832062033,3.4164794488027947 0.597483057029176,4.513666417417102 l-0.3041567795522146,4.80215758252766 -0.7269626227863515,2.6721127431442815 l-0.4552749415685764,1.2546497089226207 -1.1339974212150605,1.1513873399700374 l-1.3958092916512577,0.01838572665342475 -2.250212549723879,-0.9090402259368942 l-1.7022565027934795,-1.314348342561427 m-14.480469541122405,-17.728657471107923 l1.9641011365456713,0.3630331405575023 2.474051030146478,-0.0016547903272770667 l15.857378569738772,-1.8187149374818217 14.405157276268064,-0.9129369647046023 l2.615369052142761,-0.012186969060369535 2.463914379259233,0.5340717480320968 " fill="none" stroke="black" stroke-width="1" /></svg>