<?xml version="1.0" encoding="utf-8" ?>
<svg baseProfile="full" height="129.74667476687858" version="1.1" width="94.08031266316712" xmlns="http://www.w3.org/2000/svg" xmlns:ev="http://www.w3.org/2001/xml-events" xmlns:xlink="http://www.w3.org/1999/xlink"><defs /><rect fill="white" height="129.74667476687858" width="94.08031266316712" x="0" y="0" /><path d="M28.33883197096354,25 m0.0,0.0 m12.254442787483956,14.620432932617442 l0.07476406726216657,0.35176019962094296 0.17172303598149344,0.8772153905305092 l-2.1886069185236936,9.50201048717316 -1.7191194548266548,2.9403207744255804 l-3.3240800178241274,4.477807184770111 -2.4185409334568067,0.5236995174213037 l-2.096562646381785,-0.18643850327872927 m-4.092851890678086,-12.089655805458692 l1.3091956595290233,0.23644524930637012 2.077024191806274,-0.06622202634646657 l10.061762372466589,-1.8534986054838543 0.7237136115448795,0.18105782253082112 l0.16391412596910573,0.41032670451154196 -0.15367023346056657,0.583044369399934 l-0.9468484671412961,4.412371164728353 -0.13386275730661076,2.769368103815554 l-0.24249615640067487,3.253225638771831 0.03584685036591634,2.945189916896238 l0.10464683745354576,2.7346081092168455 0.21656251354930703,2.3951697731179946 l0.3832134652276581,2.5016663476032712 0.5744979094018363,2.5704894935099443 l0.6696640947015783,3.2795612022791967 1.0382440823580041,5.524978801902851 l0.580233351427344,3.1669807415034943 0.5466298900014257,5.446283558707883 l-0.006713206828744089,2.9081318488453825 -0.15137207718884146,2.6019615250800174 l-0.32467668511823533,2.7662212120921184 -0.4658309941858235,2.859826537803197 l-0.5920134612411733,2.452473331480185 -1.0875564762850016,2.47448953516074 l-0.6504053843962959,0.5578959047503737 -1.2374403356429793,0.07803048806975146 l-1.1347602622093091,-0.8178528579200833 -1.0560430061370498,-1.4581511508439349 m26.68606442503309,-26.00269758162799 l-0.18994743441149145,1.804225495647334 -2.23977371743662,3.8917605447227244 l-2.6617303234751137,3.238964665456147 -3.4107178282172383,3.0185348984684226 m-0.5385365636923671,-19.213251416922716 l0.4030598372985046,1.0433688799897827 0.14143053180200546,1.0329677081161661 l0.4388170146490803,31.07294302326882 0.319531948403189,2.1861908586859116 l0.8152365357249888,0.9984332844386193 1.6488592448210295,0.5931004314894566 l4.50392700592211,0.15090905683471104 4.541164463429641,-0.34114332391665453 l1.4680331696045135,-0.5269396042579135 1.118514459974729,-1.097544677305838 l0.545174950034748,-1.4644608048215306 0.18974549144244102,-2.427366149162538 " fill="none" stroke="black" stroke-width="1" /></svg>