<?xml version="1.0" encoding="utf-8" ?>
<svg baseProfile="full" height="107.47904885222775" version="1.1" width="105.82968948911628" xmlns="http://www.w3.org/2000/svg" xmlns:ev="http://www.w3.org/2001/xml-events" xmlns:xlink="http://www.w3.org/1999/xlink"><defs /><rect fill="white" height="107.47904885222775" width="105.82968948911628" x="0" y="0" /><path d="M25.888704460099234,25 m0.0,0.0 m14.413643831123881,3.6218931305125044 l0.45906467445524834,0.26827546850231465 3.495087451099328,3.0836995198269235 l1.6369244153523443,2.000913754101999 0.6771083053943503,1.3117025019373554 m20.616118695234295,-8.486269778766898 l-0.22211326092447614,1.244200652189447 -1.557910561083831,2.73260953406167 l-2.6046509501596073,3.050526973326144 -3.1219046250893503,2.875090463295539 m-26.398125097051828,3.544943948627505 l2.639261803346875,0.19317618802765021 3.5702947659503463,-0.14697137678249625 l28.023883149807123,-2.3587211410625657 5.967782467765034,-0.20563522821734273 l3.263829070690925,0.21531595163307127 m-41.85993890180084,13.38475722962096 l2.2036584584664367,0.23820339391180467 2.766946809917661,-0.026354835741143997 l15.203129735224202,-1.4928142285911399 15.267392164301636,-0.8255091785125624 l2.858202394709924,0.3115368868975139 m-48.186389256828924,13.58149484443038 l3.6901170993956582,0.25251909453494287 3.6915374750181216,-0.08531855140250022 l44.032023511743716,-2.2235004663398072 4.41601140295879,0.3872571201315507 m-29.168218035157285,-20.73702121293267 l0.8404052148437736,1.0785339360675987 0.2705847983223937,1.0899165641327284 l0.020021156890942984,39.600597694807284 " fill="none" stroke="black" stroke-width="1" /></svg>