<?xml version="1.0" encoding="utf-8" ?>
<svg baseProfile="full" height="110.84999871664932" version="1.1" width="102.69134123443331" xmlns="http://www.w3.org/2000/svg" xmlns:ev="http://www.w3.org/2001/xml-events" xmlns:xlink="http://www.w3.org/1999/xlink"><defs /><rect fill="white" height="110.84999871664932" width="102.69134123443331" x="0" y="0" /><path d="M25,25 m0.0,0.0 m32.23300438471293,2.9512098647869216 l0.3375512061011419,0.21406976849735476 2.153462811889768,2.331192810635448 l1.5035751169513103,2.384368672166646 m-19.809671703095688,4.405230668396574 l3.0866189303032976,0.3140085987368084 30.32495240488885,-2.620479679686254 l2.861848082681696,-0.12822154181162929 m-32.89432474399668,3.1646003518442636 l-0.1471700624056062,11.703480699542462 -0.41289282079805784,5.838367531329456 l-0.7234613569206058,5.412728066213952 -0.789927900428358,3.911776922531095 l-1.0208996617118482,4.513795803025166 -1.193303621319049,5.116236839072097 l-1.6846546916836143,5.712272770165888 -1.9907098282250097,5.563569047823809 m-1.2086817820406706,-39.17615974705379 l1.0886871124146091,1.36135133731712 1.3472593832526087,2.315294001109794 l1.181088381434203,2.4174979489821706 m-5.405165771570137,14.93850839208455 l1.3717734928748828,0.20428158483562364 6.376365225207435,-6.8114392608387435 m12.695011657708541,-21.963374238362572 l0.44907071536797055,3.0966116915425648 0.009104404209580672,38.209594812238294 l0.2861460172559007,1.7665162234962053 0.2965370682523117,1.0877337805532497 l0.4506074440575897,1.0596175727963253 0.5761302402157809,0.7177346347494338 l1.657816556513465,0.6159212698118474 9.2390587223321,0.22210152011716838 l2.951871047776567,-1.3787064465037868 0.7818713417105183,-1.5899920683272808 l0.2536499443956943,-2.57168860333761 " fill="none" stroke="black" stroke-width="1" /></svg>