<?xml version="1.0" encoding="utf-8" ?>
<svg baseProfile="full" height="123.89125145889878" version="1.1" width="104.17993285342766" xmlns="http://www.w3.org/2000/svg" xmlns:ev="http://www.w3.org/2001/xml-events" xmlns:xlink="http://www.w3.org/1999/xlink"><defs /><rect fill="white" height="123.89125145889878" width="104.17993285342766" x="0" y="0" /><path d="M25,25 m0.0,0.0 m31.75337913568067,4.437345257174364 l0.4294797761612687,0.33382646219369316 0.6484564041512549,0.9943883438869314 l0.06588210672729011,1.0698820824096837 -0.060094577233976335,6.709379908359379 m-18.785708273764943,1.2276825004363026 l-0.8242227163292851,5.119117914437386 -1.687455074412274,6.238575094902405 m3.1863849598346947,-9.55517532875467 l21.234244515886658,-3.0290573852900446 11.08129625983222,-1.053519169942872 l5.51577222083001,-0.17073616619012355 1.077499682429047,0.3355610552355035 l0.5063823214246551,0.5627098964839659 0.0386361122103749,0.7295547188579967 l-0.9782347811370538,1.7399500325752362 -2.767200762226985,2.758468404275031 m-25.235579304937684,5.200124855030901 l0.02775013165775394,0.93760487403565 -0.48655845594066344,1.191640705323634 l-3.1399113295787373,4.435095381791496 -3.0556160271622077,3.061005273974692 l-4.247198788768509,3.2410360356170163 m25.05219181593685,-15.079224301956135 l2.596098484063292,2.0508101198475357 2.866260433327432,2.8727914291327865 l2.347186893203328,2.9210687426280977 1.5322661707814318,2.6728724268470265 m-15.048376821575673,-2.5717514733008078 l0.05369942310926025,1.50800201113135 -0.704999959010983,2.0503556993631804 l-2.417608288220157,4.483939248648687 -2.5250667721156326,3.840737841592744 l-5.969699718578146,7.144125966245718 -6.845977614723424,6.30381520850051 m18.914298110402562,-13.810473079100868 l3.2147625839525737,1.3413064471803997 3.794847123868874,2.386834672427332 l3.1655183171148,2.75541756587993 2.4431864113130395,2.7278328413318076 m-28.7143694829343,5.964696797566928 l0.9619778315089034,1.0780289536850813 0.5245197690645231,1.7684984396444015 l2.2564650556490498,14.967105154779507 m-2.013019909581034,-16.947109657005992 l19.6079530626434,-2.951599060978005 1.7958058949576794,0.23807897319490226 l0.8980904726501568,0.957190054448312 0.1596934835876441,1.7229068443723627 l-2.596294712837895,12.289825488628551 m-17.38322486170083,2.320631779003244 l18.809593780638906,-1.6929770682669265 " fill="none" stroke="black" stroke-width="1" /></svg>