<?xml version="1.0" encoding="utf-8" ?>
<svg baseProfile="full" height="110.02303805977397" version="1.1" width="96.02742639484589" xmlns="http://www.w3.org/2000/svg" xmlns:ev="http://www.w3.org/2001/xml-events" xmlns:xlink="http://www.w3.org/1999/xlink"><defs /><rect fill="white" height="110.02303805977397" width="96.02742639484589" x="0" y="0" /><path d="M25,27.35792904606322 m0.0,0.0 m13.63875001248708,4.553147660824444 l0.05406536833609859,0.524196654221982 -0.018989240016186657,1.2584615338493945 l-0.4228881689475151,3.768721459966361 -0.5432154142051077,5.926014280621868 l-0.7253314846021073,5.2094264156069885 -1.6513449250838608,6.706745787893751 l-2.53961800910973,6.456028733748972 -2.099330041410304,3.240468144458362 l-2.0651550065955053,2.142928781560755 m8.852587098201987,-24.17969544119304 l1.6567555365462274,0.9183653544984367 1.6827318034041452,1.5991506809422322 l1.4940251400145614,3.7675539713425796 1.4032855844934673,3.9779066941007537 m2.9135669193373492,-14.710779553574122 l1.7089768084020507,1.9657006918341713 1.4338179782567342,2.6338669635223133 m-6.133908156727506,7.098522359600237 l2.0347814035475755,2.2484059457575283 1.179877561246483,2.439861862358961 m5.047873480473292,-29.902928028006148 l2.0870846384183084,0.9948275606657125 1.73213289289779,1.457770509782083 l1.262127549656409,1.5993479566630555 0.5865913005307534,1.4646702421138031 m-6.591640310100895,5.462783217488525 l2.5562602895898934,1.820416883672975 1.4607055598259182,1.6598926089175106 l0.5882457048372841,1.1222268912390747 m-5.283009503520241,8.288904258436805 l0.9348159994154179,0.37070037853760524 1.002637115242848,-0.22707980084936596 l11.397821523329725,-3.946478024487384 2.399857460007352,-0.39292165792028383 l1.248018296564024,0.193146255631239 0.5754169210210126,0.4258670364438981 l0.2920630788552304,1.2030507706110758 -0.11515309739416135,1.7752857952244874 l-1.4940133665677187,11.545833016930471 m-7.510728681514458,-11.691227177946205 l0.3652210804637732,1.497343055570593 0.10421876617929676,10.715185491627594 m-6.272475387061201,1.5086110551790173 l12.024672653369995,-1.4717730739459902 m-13.374488587524258,-11.75531156923559 l0.32956544505139,1.5449355149393469 0.06800818462525468,2.3484681056837426 l-0.12368350780499363,23.09851918598051 0.3568082542036314,2.524961041232945 l0.4996202830974424,1.4956190653389945 0.4198420734098271,1.1086518820732771 l0.648232259265177,1.6759800144391528 1.5092363602994465,1.777370350509036 l2.479654924790318,0.7391946096449349 5.3369631976376475,0.08826660958131945 l4.009752672883709,-0.5953449609421184 1.478796869589862,-0.7768321819169197 l1.3948740946352933,-1.5192144809563237 0.5709450430643807,-1.7910781267048173 l0.1711140955261702,-3.020067305918458 " fill="none" stroke="black" stroke-width="1" /></svg>