<?xml version="1.0" encoding="utf-8" ?>
<svg baseProfile="full" height="97.12562043904528" version="1.1" width="101.27195061223262" xmlns="http://www.w3.org/2000/svg" xmlns:ev="http://www.w3.org/2001/xml-events" xmlns:xlink="http://www.w3.org/1999/xlink"><defs /><rect fill="white" height="97.12562043904528" width="101.27195061223262" x="0" y="0" /><path d="M25,25 m0.0,0.0 m13.94162837975145,11.366046433646716 l0.5054039210348837,0.10780522801284305 3.314542104942244,0.044058329782071186 l27.01858483843619,-2.1504885207528988 3.9318784128750814,-0.14332394316460093 l2.559912955192774,0.22391552472172702 m-34.99527362367096,2.705969258504254 l-0.019642737995498073,2.8229870910405483 -0.9116301594648708,6.2409124079166975 l-2.1030248517572314,9.113102251106369 -2.675192651540832,4.17646251142661 l-1.919127901463314,1.7795913352182084 -2.4240873609899,1.6561015809845636 m26.02695762557186,-22.078861006889106 l0.6129312369114588,1.2397197107521356 0.09054089392169967,8.369759701173582 m-13.335601833157096,-6.489399574805838 l2.431306326446526,2.6420330758385435 1.3345006215827433,2.0963743614914727 m17.911722524518733,-7.245107290352146 l-0.36311323985610267,1.4841327196655474 -1.2274999898879515,2.0483390403541986 l-1.4917884574051565,1.7750514359774412 -1.8531677911958802,1.677522679793773 m-17.86074572281389,2.7964864516539505 l0.6241411172310255,0.7541828972125442 0.2488438431760608,0.7886115298925204 l0.06665550736621996,19.32363521884355 m0.27840487159676697,-19.951673901722277 l20.250321941682298,-1.636936353070683 1.464717385913868,0.18414048355870632 l0.8309535976660318,0.63166002173517 0.301036528064775,1.111476471748991 l-0.3030910627361774,18.291885513774233 -0.35538812180821866,0.9016336727003644 l-0.5459867998388329,0.3091047427602023 -0.6713383186667891,-0.136162648667021 l-2.6680597380152165,-1.9304208636831877 m-17.884270437847476,-12.60106773137105 l14.234712891926497,-0.9635105674438658 m-14.361196705753839,6.371634180483383 l14.173925386135316,-0.906619257872149 " fill="none" stroke="black" stroke-width="1" /></svg>