<?xml version="1.0" encoding="utf-8" ?>
<svg baseProfile="full" height="114.72807183424817" version="1.1" width="106.37886823885641" xmlns="http://www.w3.org/2000/svg" xmlns:ev="http://www.w3.org/2001/xml-events" xmlns:xlink="http://www.w3.org/1999/xlink"><defs /><rect fill="white" height="114.72807183424817" width="106.37886823885641" x="0" y="0" /><path d="M25,25 m0.0,0.0 m16.173555929593334,16.19772021586889 l0.5635474708672341,0.12439353299650784 3.3992112393621854,-0.0008940330729459629 l14.51680926623502,-1.8519267317282755 2.959575054686648,0.1074397014355027 m-10.564894401259005,-8.08421684575709 l0.858462454918749,1.0446108321802463 0.2890152082182981,1.0502182592876845 l0.0763336845758597,15.20464208132863 m-24.292431086559375,2.4569099183528404 l2.441700805265295,0.35448702907982826 2.2822371640926553,0.007879116439256999 l22.17753647696349,-2.3329821267835116 13.18686560649593,-1.1747400668355314 l8.348354434097677,-0.33211667056184435 3.9629889313024202,0.43657305849344585 m-9.150591462893658,-14.865436178162827 l-0.1773102648996259,1.8261053418260644 -1.7254481632578624,2.0758588854792546 l-8.29071190624107,7.640655795014825 -7.4412291864833255,6.085403350773122 l-6.501634840230654,5.197411585143926 -5.890461942106496,4.297344112971919 l-6.396827534382622,8.116209258282012 -5.579514699272285,7.205403941634256 m26.345399182848166,-11.718463293942857 l-0.0047196704113068024,1.2919786721830284 -0.4960330492819771,1.242506454117673 l-2.408968043394071,2.9392248511046817 -3.9298407784440106,3.61861286080532 l-4.802635157317641,3.4916853408241146 m-9.683428198946125,-15.030458537734162 l0.7321325648297807,1.0673366951482646 0.32428022418187585,1.2426163432837072 l-0.039020145121598376,20.9479652511223 0.3595970467627247,2.2922671780034345 l0.9007327525406407,1.387431528152279 2.2622433915673965,0.8009002208203259 l4.021174242702719,0.325650912622115 9.554160471376232,0.04186399405174649 l5.266741290869557,-0.5113447353966369 1.966602293765294,-0.7535882722550138 l1.3323125076864066,-1.2384731341927693 0.7192825050971982,-1.8215492126505501 l0.2456660864127938,-3.2136876357048836 " fill="none" stroke="black" stroke-width="1" /></svg>