<?xml version="1.0" encoding="utf-8" ?>
<svg baseProfile="full" height="106.68014765334189" version="1.1" width="102.76605337076099" xmlns="http://www.w3.org/2000/svg" xmlns:ev="http://www.w3.org/2001/xml-events" xmlns:xlink="http://www.w3.org/1999/xlink"><defs /><rect fill="white" height="106.68014765334189" width="102.76605337076099" x="0" y="0" /><path d="M25,25 m0.0,0.0 m9.700884829365396,14.94166970670426 l0.23921006383387303,0.40277576323838526 0.3573282327012418,1.4714680962644027 l-0.006394386203401122,11.491900076507674 -0.2013313890383423,6.9994189413270025 l-0.4812596499134573,5.656722247556152 -0.7340121986019529,4.970406703342443 l-0.9915598616698588,4.360622889267025 -1.2728222516364058,3.6269564138130552 l-1.786609463908757,2.7582068153215 m5.988443616470123,-41.69890314494862 l8.459444641496257,-1.698684299671497 0.6020325227819086,0.11603982068432753 l0.6273452949216327,1.2424116559129166 -0.3063720469383036,40.06137198484675 l-0.35801289779444145,0.8401212037319298 -0.5135181502065159,0.20554598081877434 l-0.6083468414951917,-0.3411685072452998 -2.0355570006287973,-2.021813153626167 m-5.945004375656325,-27.421256646331226 l9.351586546840753,-1.1060130731958984 m-9.708723341459773,11.441025639267776 l9.65062038431159,-0.9567225605722242 m7.915144769562585,-15.949194461329967 l1.8875115326024776,0.1554822590552054 17.35974596941578,-2.2541283543545303 l1.602577215942863,0.24732837278489603 0.694128802773678,0.7116223964648569 l0.17251153668403763,1.3277474074234854 -2.1532116822240317,13.062154645787528 m-9.319303838890791,-12.632275464298877 l0.5502725400699369,0.9753421001262056 0.16894588542864006,1.09282364012343 l-0.0035132520354071465,10.222982839699064 m-8.810805829219998,1.3034436474014237 l16.9016882809567,-1.3402539665253335 m-18.2586459902659,-12.145957570889056 l0.5016509347962483,0.8619823741850287 0.21037139835841295,1.1549828207696446 l-0.05861605822037123,23.929263504694678 0.4932973566393096,3.247045948485862 l0.802343621793119,1.7634928668725915 0.8973458121338237,0.8750759125430226 l2.271155240472363,0.6308892817065515 4.034704051230057,0.23072099613467284 l7.310580703186741,-0.137039966473884 4.349608374951439,-0.6465643877032707 l1.7612490119862747,-0.8377553767864219 1.0457511669464263,-1.315504466504791 l0.41219353811532855,-1.8015265985148616 " fill="none" stroke="black" stroke-width="1" /></svg>