<?xml version="1.0" encoding="utf-8" ?>
<svg baseProfile="full" height="101.26665202003821" version="1.1" width="104.732504808062" xmlns="http://www.w3.org/2000/svg" xmlns:ev="http://www.w3.org/2001/xml-events" xmlns:xlink="http://www.w3.org/1999/xlink"><defs /><rect fill="white" height="101.26665202003821" width="104.732504808062" x="0" y="0" /><path d="M25,25 m0.0,0.0 m14.19894783469164,13.611828165220556 l0.4992843296109488,0.10040193516574737 3.6547812232654895,0.03019895507258305 l16.079850254473957,-1.9007802229254929 3.009621310662274,-0.22267928882456436 l1.8275797494991775,0.1851452336777737 m-12.93632746991913,-7.882490739091514 l0.8093010499566766,1.438803542116106 0.17557637529853015,1.01492751422352 l0.11305092248656876,16.369574145243394 m-25.047612835506417,2.2719631855398785 l2.464745751888602,0.3834918642195483 2.3468436195496003,-0.0044313708857774935 l22.397931604558615,-2.279008299520404 13.226206847740327,-1.153662023059836 l8.146537039525391,-0.34731898628221947 3.7661872002797527,0.40807701206695834 m-35.72362067279369,-15.825954432825116 l0.7285450068120652,0.9470184725137105 0.292892142474743,1.0540635127011762 l1.3581313784912596,21.730902668187863 m15.965504285977836,-23.71076177951647 l0.4360643526012007,1.0290525137239432 0.09146756820054565,1.237937449066636 l-1.857816230994658,18.712214951460783 m-12.084585403765221,2.3942912628444777 l-0.20243380825722293,-1.1954956121459226 m10.001825189463545,-0.07170573891279253 l0.09976180347115185,0.8133808049763992 -0.022685467153600532,0.8777276723238355 l-0.11141812986588784,8.478269233102804 m-19.389964731675832,2.3410915139400976 l1.602738755186743,0.2559881361469545 1.9711866463647858,-0.07119588604228302 l24.228420039515605,-2.8869737689769397 1.6865859715004299,0.2710540102987814 m-17.74393844368075,4.062038116099145 l-0.43131368528091135,1.761564372060566 -4.12752083683609,2.1021202252886657 l-6.736382187241707,2.7536153654157403 -6.546896225215528,2.1823683363498834 m28.005827270687845,-10.022445013542022 l6.900408601322234,3.1599125451896914 4.314867537448023,2.099914008027234 l2.9332666999524375,1.5817064240808871 " fill="none" stroke="black" stroke-width="1" /></svg>