<?xml version="1.0" encoding="utf-8" ?>
<svg baseProfile="full" height="135.309163061581" version="1.1" width="97.06063558367057" xmlns="http://www.w3.org/2000/svg" xmlns:ev="http://www.w3.org/2001/xml-events" xmlns:xlink="http://www.w3.org/1999/xlink"><defs /><rect fill="white" height="135.309163061581" width="97.06063558367057" x="0" y="0" /><path d="M25,25 m0.0,0.0 m8.36498965449732,4.399178231886196 l0.5655486455005109,0.11229086870713706 3.495071133023269,0.1013303009528338 l14.044591838589152,-2.3282498048895426 6.094852932953498,-0.14729336506610508 l3.404602224651143,0.3722091416829504 1.353436654120771,0.8458168463523064 l0.5472006893480067,1.3277154046637776 -0.04867667193617817,2.2086508883683282 l-1.3629994617531505,12.043505293684422 -1.596019536108231,10.133412925979874 l-1.7354980926924448,7.473909396229319 -0.8123282636220458,4.645618413112881 l-0.6082028446502508,4.166761419902222 -0.5972599235880286,3.700468502682163 l-0.6678832832471491,4.091218891070781 -0.4398265143080208,4.281501082973784 l-0.08559528771348478,3.6575684006421425 0.3651108341793465,4.118604476140239 l0.8519949921741177,4.684714409679765 1.2091337861943936,4.756312172887377 l1.4291310378917472,4.519910546684476 3.7710302702210607,4.426983405620728 l2.8295033936546936,1.277422993867957 4.126128643807812,0.43960221776497777 l1.32550692027872,-0.6583460905504296 0.8941930053823007,-2.132928049844732 l0.342898806821683,-4.678942291046928 m-19.61959282814937,-32.93657940739609 l2.442991410126195,0.506053347950438 11.779754364678737,-2.310925533716416 l1.5467686850756956,0.08024845427266082 0.9244363603055908,0.3200275405573756 l0.7130912280282573,0.48816793926254715 0.36484559810454276,0.6124436247773068 l0.04142309973977654,0.8458738828204623 -0.9882675440501689,5.560995497428125 l-1.6743286666327957,8.461272056490953 -1.7987266595053597,7.326306412561432 l-1.9947235128801455,6.545881672434464 -1.067050610874229,2.560558311403317 l-1.188361120200015,1.526770927191628 -1.1608638003503202,0.07833217065174133 l-1.0820980859466625,-0.9012375709177598 -1.447380536839468,-2.4131098547779257 m-1.1828985045534124,-33.544410957723656 l0.17912825611625752,2.655342980470169 -0.8962834280645684,4.844519386796693 l-3.3800586441189697,11.493604386047847 -1.965310328155666,4.888778125805226 l-2.2990621124374853,4.8844708568052635 -2.6154671995994163,4.608251507491575 l-2.22090095498474,3.2328359034217446 " fill="none" stroke="black" stroke-width="1" /></svg>