<?xml version="1.0" encoding="utf-8" ?>
<svg baseProfile="full" height="124.24406341732218" version="1.1" width="104.8347264439234" xmlns="http://www.w3.org/2000/svg" xmlns:ev="http://www.w3.org/2001/xml-events" xmlns:xlink="http://www.w3.org/1999/xlink"><defs /><rect fill="white" height="124.24406341732218" width="104.8347264439234" x="0" y="0" /><path d="M25.820672974467374,25 m0.0,0.0 m10.719623351352247,3.2290674769550747 l0.0816561814818611,0.4969067779484416 -0.17891154282273086,1.7190319209122422 l-1.0331664777046168,2.6727721688899724 -6.720484791638626,10.297260707601406 l-0.32314130991047774,0.9868076457785472 0.25821522396451446,1.816883184016811 l3.87797703461939,1.4815089062261568 2.998183324614501,1.6443635496233506 m8.357689284232874,-13.342893551595335 l0.10301147844324823,1.9187993363635683 -2.5267739792108856,4.224927558770972 l-6.087916959503296,8.906519475580051 -6.4602919903249045,7.5404981154044135 l-0.461107497315775,0.9726417684555495 0.35579206889263815,0.6533967300884665 l0.6933925930183438,0.12569049842047883 14.925892104045944,-4.688409859480631 m-2.676736921526351,-4.469716601890674 l1.3452499930830315,1.5423804698200188 1.5682835758876756,2.5246727444369257 l1.7034454713888816,4.073451452073901 m-9.549568559790648,0.4095655582743396 l0.5484314695488534,1.0140385725005792 0.3108513270346578,2.0237234181779806 l-0.15634356350867049,20.301377475132924 m-6.813428254905532,-16.745322014454178 l0.023446735483021598,1.7325566407422026 -0.5395084941541629,1.5955320242853213 l-2.451799326241362,5.3886281824857925 -2.7126345230010283,5.040102704683965 m18.172992454256487,-15.34184233128578 l1.9543448894837636,3.5725970092936046 1.745183465928259,5.500546453213271 m13.554005342174133,-46.89921048470186 l-0.01076687325612031,1.8643694150619943 -0.44865166716753146,1.7163853958486763 l-2.90293804291798,15.789991893931855 -2.8057533103269443,11.897607985653305 m-4.738316326585616,-0.18408039953365415 l0.6268514306744638,0.23250632819178893 1.5880280698915683,0.0016972799294325642 l15.640918849804741,-3.361558435041224 m-4.109265818361038,-11.809912389433777 l1.7696213482556058,2.302071850572959 1.9606832212213492,3.473840529031949 l1.7363725113275363,3.979057979547708 0.8932529743043657,3.316427664470379 m-18.21456866596475,14.818259090737763 l3.0983958176677038,0.3497922601601827 17.179274416022633,-2.5958352579499056 l2.007966690580475,-0.14403703603790372 1.6503650144770927,0.29046313984997224 m-14.25336728489689,-9.895443742175848 l0.5327890974741696,1.8855657976220441 0.05014644339790012,7.235102050969867 l-0.478368829558469,12.615542846046624 -0.7410640865248455,5.456549326015243 l-1.2974236320708648,4.44391016741614 -1.9985432122177922,3.541405426380441 l-2.9789552352702175,2.7629893199953246 -3.9433018328497815,2.342541247312975 m13.444870689557682,-25.12959977372222 l3.1489313801502905,6.764301924076659 4.858400308120697,7.956537231747987 l4.3354504616863485,5.792891291645654 2.746120510496851,1.6347298720505636 l1.0610458749381353,0.2249875351660319 " fill="none" stroke="black" stroke-width="1" /></svg>