<?xml version="1.0" encoding="utf-8" ?>
<svg baseProfile="full" height="130.17341707863147" version="1.1" width="100.33099036701077" xmlns="http://www.w3.org/2000/svg" xmlns:ev="http://www.w3.org/2001/xml-events" xmlns:xlink="http://www.w3.org/1999/xlink"><defs /><rect fill="white" height="130.17341707863147" width="100.33099036701077" x="0" y="0" /><path d="M25,25 m0.0,0.0 m8.065543703076463,4.847683642414965 l0.6203677882761989,0.09349817006689191 3.9351231501874038,0.059501778316146114 l14.190060079991632,-1.9800025732466904 10.088684255518885,-0.12175400187137024 l4.849181593693199,0.35219363799238074 3.203620804705131,0.7719061206015426 l1.1708244116471895,1.0849120756085275 -0.09953594633134819,1.4744747464915082 l-3.3676817245505335,8.877609698822093 -2.7133613621982047,6.966215062123699 l-2.6064945376470865,5.624450586814261 -1.3149338888100008,2.3245739261255003 l-0.7445688541617365,1.8727530058928459 -0.9828246603072366,3.8434504177973783 l-1.0482154812106577,4.364461641436857 -0.6785638837188368,4.979276515607968 l-0.18044202761979186,6.691248060008497 0.5143474398677046,4.829725603546522 l1.0114137619245216,4.918334080313561 1.2855278411127047,4.532455400429923 l1.4507898578748706,4.087020344796117 1.737590452045581,4.09770292019593 l4.04936747375487,4.057431282887898 6.636210592571183,1.52429493545852 l1.2589595273186576,-0.6617367799320395 m-24.784912121104654,-36.82452540344569 l-0.03438257923566325,1.0359309833057218 -2.0187906370146824,2.507272142761255 l-2.7827495346934055,4.684445928371641 -2.5515237978057135,3.952866588285743 l-4.6372748216060815,5.771551950403189 -5.817227650524109,5.474574119682669 m23.338645263204736,-23.82363271568057 l4.050821812955743,2.3947070610863053 4.233271500448791,3.476398936694776 l3.4089204063890493,3.836782207285445 1.8371979943924703,3.292625643718574 " fill="none" stroke="black" stroke-width="1" /></svg>