<?xml version="1.0" encoding="utf-8" ?>
<svg baseProfile="full" height="94.29576639289485" version="1.1" width="104.11779888266923" xmlns="http://www.w3.org/2000/svg" xmlns:ev="http://www.w3.org/2001/xml-events" xmlns:xlink="http://www.w3.org/1999/xlink"><defs /><rect fill="white" height="94.29576639289485" width="104.11779888266923" x="0" y="0" /><path d="M25,25 m0.0,0.0 m27.206383654267555,0.8092584253627613 l0.41791020925770417,0.4269592266858932 0.6776003603387406,1.5167829594588191 l0.04201310222767423,5.783237476008239 m-26.907373743872142,2.5961264662262904 l3.0525923196877156,0.33794841091161043 2.6418690658004134,-0.02744776856276455 l23.489845989613524,-2.1606167388790407 16.578049459253492,-1.0328073544815257 l4.076838962315043,-0.10419014526026349 2.8420695037795207,0.43200499446888074 m-29.316790703178963,3.155661207225736 l-0.19403548046109706,1.6561333290510805 -1.0581274355323378,1.3083852199482908 l-8.953426840220006,3.437599320087532 -8.5077662637338,2.2564725084054387 m-2.970573346669645,-7.556576512483117 l0.7702686244681719,0.9226143086173888 0.3268287026969511,1.309733241220902 l1.0176999438179453,6.580529920615512 1.1837476211778464,12.300298802062308 l0.8628862213746898,5.571545430300217 0.7770613840150767,1.4788576456702052 l1.1841623399497179,1.3310220428306914 1.6250059599425803,1.072666613508859 l3.338883724906037,0.7602352490152416 9.857278184517376,0.13333211487966826 l4.9076079931430545,-0.44628873415117937 3.795781658175255,-0.8660574497235604 l2.0015175008409827,-1.203092974775561 1.2347621251864043,-1.7312249382931362 l0.60750851920882,-2.9752670100948677 " fill="none" stroke="black" stroke-width="1" /></svg>