<?xml version="1.0" encoding="utf-8" ?>
<svg baseProfile="full" height="131.51394491570034" version="1.1" width="101.47975021767503" xmlns="http://www.w3.org/2000/svg" xmlns:ev="http://www.w3.org/2001/xml-events" xmlns:xlink="http://www.w3.org/1999/xlink"><defs /><rect fill="white" height="131.51394491570034" width="101.47975021767503" x="0" y="0" /><path d="M25,25 m0.0,0.0 m25.87141008525303,3.0824419973962147 l0.03016407917883902,0.4310275094064134 -0.5012384867687489,2.345788597212835 l-1.4545570106724421,2.809734573663516 -2.1808978999278517,3.150539962877284 l-2.7874400501513033,2.849570734654428 m6.086004534606292,0.23304875823105484 l-0.0688256874429337,1.1086515261766923 -0.3633804054930702,1.001489377374113 l-5.227497893786978,4.975487947993369 -3.8219770085085996,2.298888863382721 m0.1330204972451628,6.472666650945249 l0.7214755369236159,0.7534342085249172 1.1268439248812567,0.08753005901545854 l9.779674529413542,-2.7197495037600166 1.3849933460820052,-0.1383548099585498 l0.42518471644300765,0.22780426528429437 0.25537464090185147,0.4507631636100214 l0.12261366805779367,0.6472542147025936 -0.022866760520177318,0.7539103730040986 l-0.15901737551790673,0.8648140217929928 -5.9479029881008065,14.122476463955788 m-2.7239106398995054,-5.792519295948295 l2.235802424562456,2.158306733944937 1.9139816278549004,2.708043488051176 l1.3168164423485922,2.612213984582526 0.7958277413738174,2.4837328026422334 m-10.981882332597607,3.2813442871623892 l1.237755691914148,0.35406604017949417 1.0939359193707627,-0.15993176676261553 l11.693084495262637,-2.6644692508012695 0.9951280082069676,0.10634638869800132 l0.5098159031839667,0.8021013553842965 -0.10928011491048127,1.6932256090151894 l-1.5995202813701044,7.712492689710144 m-5.974073307571414,2.0914800289824393 l0.6761852962687964,-1.7907833017069752 5.463062761460501,-1.817021737026901 m-9.298196945689488,10.527160019287649 l11.073146421971693,-1.8906934965063633 1.4704624300336635,0.09239884506173351 m4.834958857721095,-38.934836750222985 l0.6249218663786463,0.2664707893849116 1.1019690841607848,-0.10441697409802501 l10.279782413253923,-1.8777141240032893 0.9040116873768558,0.8571848163930182 l0.014091634364121955,0.6860202219752876 -0.2508269937978096,10.190759837463746 m-11.016904369498858,2.528613428950022 l2.409198701452582,-2.059886704612342 6.886537304631626,-1.9350558457160953 m-10.246719788424604,2.2567136740972784 l0.08217517109409715,1.5155249965289732 -0.9686634708279621,5.070004829009045 l-1.0416068951549888,3.4805559197722995 0.09434227764334893,0.9700592086069943 l0.3941501092392247,0.4525729744908727 11.017538653125957,-2.1515430242188813 l1.3117536955978675,0.2970450531242784 0.5501303071186374,0.40936149844193637 l0.43497566017316036,1.1418385175975694 -0.07062973595208497,5.076997944941538 l-0.874027069779976,8.146414260329378 -1.0547124979498201,6.87300045311421 l-1.3260697195798157,5.896817574688496 -1.243332471661357,3.487197596259952 l-0.8138485610839344,0.6575323639668558 -0.8370292472043525,-0.3610882787194309 l-1.2418845067489708,-2.218016321238667 m0.7121586926472686,-22.277169496932142 l-0.23253239917216395,1.764705633384003 -0.8162359550885685,3.8056379902830364 l-0.9596817584847634,3.3185706439421057 -1.2549479562508377,3.3429376828521664 m8.070240909458807,-5.776863917422832 l1.0007282830237916,1.9481773690653414 0.8491334154967413,2.423978587576039 l0.9673053565074853,4.177149212819429 " fill="none" stroke="black" stroke-width="1" /></svg>