<?xml version="1.0" encoding="utf-8" ?>
<svg baseProfile="full" height="110.05955955498997" version="1.1" width="96.37746408206631" xmlns="http://www.w3.org/2000/svg" xmlns:ev="http://www.w3.org/2001/xml-events" xmlns:xlink="http://www.w3.org/1999/xlink"><defs /><rect fill="white" height="110.05955955498997" width="96.37746408206631" x="0" y="0" /><path d="M25,25 m0.0,0.0 m29.468223188149917,4.495437371377304 l0.02631677070303198,0.40582103049763174 -0.4983647796941092,0.9441716405558526 l-1.6793172064336508,1.3779749631244782 -5.683749535188101,3.0898786513920764 l-6.65982346192823,2.518922630060663 -7.529153879973053,2.043021531303578 m2.900434524361293,6.730712326038796 l0.9826917061646013,0.7082579084073766 0.953791430188728,1.8129410741428813 l1.340233150259426,9.5700306711567 m-1.0171575760110774,-12.052827219813596 l19.61981906482136,-2.127167288176086 5.744111862744632,-0.43886148733372254 l1.8921486795899773,0.14905768569247121 0.5210577657245067,0.698562401055071 l0.0025288711693858845,1.143996347335966 -1.2251413927556278,3.638393550799505 l-1.9962845289483062,5.010987414257507 m-22.797289943947032,1.7514278667782703 l13.003984305561852,-1.5129377845727476 m3.8983004221988646,8.58731093649228 l8.740345089254221,2.539271062995148 2.580628412361181,1.0492792678985687 m-17.123300854885464,-8.74542696570792 l0.4319254896069109,0.9334082044119636 0.16431894869939503,1.614976910233489 l-0.01007258304646624,21.483874725417518 0.03815504463104937,1.551133573319886 l-0.06972275282037985,0.7827430383281393 -0.5929667159101975,0.30518751752091466 l-1.2376271756635693,-0.785371474293188 -1.3650822583193116,-1.8469376910588844 m-6.899095019204311,-10.503252362628483 l-0.08071694025223515,1.0550187586088107 -0.3205030028273791,0.7457968324741695 l-2.27782882019687,2.7193653135180775 -3.138933307105529,2.676496560895817 l-3.6130899173244604,2.2404927848633807 m31.95520368553858,-9.274992483832255 l2.24338174902018,1.5472558565099206 2.4658738369045343,2.270184411385953 l2.0683162840781586,2.386800031483293 1.1508954527698825,1.916410944575247 " fill="none" stroke="black" stroke-width="1" /></svg>