<?xml version="1.0" encoding="utf-8" ?>
<svg baseProfile="full" height="144.26785348114834" version="1.1" width="101.76513402342069" xmlns="http://www.w3.org/2000/svg" xmlns:ev="http://www.w3.org/2001/xml-events" xmlns:xlink="http://www.w3.org/1999/xlink"><defs /><rect fill="white" height="144.26785348114834" width="101.76513402342069" x="0" y="0" /><path d="M25,25 m0.0,0.0 m8.092166201807292,5.18689380254348 l0.589628665891312,0.10081342738281697 3.881181575436725,0.0636916113892032 l13.948058738744184,-2.491059702088997 6.508668402275833,-0.21679975207891902 l3.4304997436452735,0.2702835620833538 3.221948290341426,0.6340219823480648 l1.2930439699175738,0.8432610077124959 0.6710115560096425,1.3796524011212157 l0.07344570038191194,2.0612841219086917 -1.4088744205608872,20.908630666708312 l-1.5758145798825556,10.92682819215883 -1.6697599559396255,7.019863038916549 l-0.5163300987274166,2.709665019390414 -0.6671613522977934,4.825445096969114 l-0.5660276928014082,4.86380775998932 -0.48110152892512914,3.517904113058544 l-0.3737124049009572,3.780303122265192 -0.12658285135568806,3.455255624856063 l0.32194277393662235,3.852008815172605 0.8734628448476845,4.424912323428895 l1.2221494345162784,4.55169941765251 1.534194126633741,4.721918879173694 l4.003753927375766,4.5643643125850515 3.1499302429846576,1.599987498826643 l4.02045910833637,0.7132171376751639 1.096621379465328,-0.5660315393367179 l0.906066979550694,-2.110301155071147 0.3122652467138305,-4.6865049748179155 m-21.15194167720989,-35.60306461948873 l-0.3305492583339557,1.3358007207238856 -2.034590698237714,2.359881961112347 l-2.8017531899669623,2.5704533034246344 -3.130486503344667,2.3444001294931858 l-6.121697929743444,3.442017949519222 -8.181354503503027,3.5559312386352038 m-0.6780860050946821,-30.842533035961914 l4.062225898862086,2.542427457222475 3.0977500497237656,3.582157980837502 l2.5992625233106903,2.9864115073449105 1.6932157661298677,2.8148771902014778 " fill="none" stroke="black" stroke-width="1" /></svg>