<?xml version="1.0" encoding="utf-8" ?>
<svg baseProfile="full" height="93.24412910735238" version="1.1" width="102.51876971989041" xmlns="http://www.w3.org/2000/svg" xmlns:ev="http://www.w3.org/2001/xml-events" xmlns:xlink="http://www.w3.org/1999/xlink"><defs /><rect fill="white" height="93.24412910735238" width="102.51876971989041" x="0" y="0" /><path d="M25,25 m0.0,0.0 m6.434217916235769,12.640755193614842 l0.4172581586775354,0.16796404511947408 2.2570956799698196,0.05703787361307144 l8.743861221460248,-2.0781790937743723 1.5488851575911873,-0.09971970591927978 l0.5898447545935236,0.26089635410240136 0.22226871228851006,0.42744395410504404 l-0.08169915208453181,0.6972045350635611 -0.551564384179156,0.9942103089624504 l-4.227488549261926,5.853343091728843 m-0.5032832704341853,0.628880495829747 l1.2006644910205972,2.6158671754773537 0.8131375470612462,2.565595925759659 l0.7285294055917477,4.493891915820252 -0.7042869742854879,5.505596915236928 l-0.8536496802582403,1.482571674663189 -0.6064189984834026,0.47330067596895603 l-1.0554760334650837,0.1686725564141352 -0.9264688660135265,-0.2920242436746798 l-1.273624561081184,-1.2159601420625055 m-5.42965326035638,-8.456646469329527 l1.0663820901071153,0.11985100880023043 1.0560268088269373,-0.3849052376026467 l12.620127310071862,-3.5407398790965527 m15.087252403807735,-11.583832330830372 l0.815031296602567,0.6343590940074271 0.2860916104779505,0.7430679412368716 l-0.04996647813459515,3.97487630576542 m-11.182740715954935,0.9215715197159032 l-0.45355011977972237,2.8427836236252015 -1.0767654502816206,3.0792818672498368 m1.7541815141578456,-5.090476952236187 l19.364021252118015,-1.4605313494912369 4.296190732148896,-0.05214023217068633 l0.5860109458841343,0.25745545145830123 0.113272483948713,0.43579545041335654 l-0.2607700284193701,1.5119307370340218 -1.7340954677273346,1.9471607293578832 m-19.30893727225591,2.8687453824325684 l1.9952569897742116,0.05841797771267353 10.744272784050818,-1.1018211106142688 l1.9059130580320012,0.08363175597624743 m-17.258889086483194,5.594558123404565 l0.6913345196570938,1.1832068457623792 1.6951346169897303,9.668857193675835 m-1.4108863859515801,-10.209631875046092 l15.86380116210585,-1.321110026824015 1.8685016188631427,-0.001657769595527212 l1.1048349992049737,0.22897771957515245 0.5693257492228306,0.6136459568031818 l-0.03901506372241948,1.0236821005733672 -2.2583629992953025,8.52398873810419 m-15.58285677035974,-4.625927145302573 l16.62057096976912,-1.0904695000239684 m-15.765715757518514,5.405678284590429 l14.502407731752598,-0.8801436214878813 m-21.32561083363538,5.846466034281462 l3.624738722982337,0.1288232593983403 21.543809538181524,-1.0461773303000421 l3.7102919260849485,-0.02100150719289611 " fill="none" stroke="black" stroke-width="1" /></svg>