<?xml version="1.0" encoding="utf-8" ?>
<svg baseProfile="full" height="102.41132845981515" version="1.1" width="97.05438896252" xmlns="http://www.w3.org/2000/svg" xmlns:ev="http://www.w3.org/2001/xml-events" xmlns:xlink="http://www.w3.org/1999/xlink"><defs /><rect fill="white" height="102.41132845981515" width="97.05438896252" x="0" y="0" /><path d="M25.46724417892219,25 m0.0,0.0 m14.681680654910693,11.680212538868997 l0.3899753810363549,0.3786198031819897 0.5314211246545589,1.207406558170478 l-0.014307542948065246,1.2091149910322592 m-16.05601379657573,2.6886335280655036 l2.9127075348654676,0.042836353406013536 24.63418509466714,-1.7092018106184603 l2.604321470353123,0.15698082437133487 1.8111615981774332,0.30754824579130585 m-10.850852486147717,5.039395422146722 l3.5428749314189867,0.5586685921036924 6.553772585085281,-0.009266511680579141 l0.7685278282844654,0.2616015344924279 0.36060922763834397,0.6539953032118706 l-0.5632082113955498,0.4716773050322787 -1.925904432283059,1.8547165192538173 l-3.351267291853599,3.031178426087895 -3.1440686553547557,2.275002567130529 l-1.2477860774095886,0.47627671797567317 -1.0885370994180026,-0.08977517403904478 l-1.3399775086830124,-0.8511329882137308 m0.4899151858482826,-11.624591816390817 l-0.05467068055745291,1.1697730780943505 -1.0322531757601152,1.656133129611447 l-1.8270627822631598,2.386146366261345 -1.9802620998092701,2.1061546166507505 l-4.0101605261152695,3.1511431031032147 -2.695771893557908,1.5501650927355637 l-2.197384914519226,1.0256899810314486 m30.802451457068177,-0.22411029016736772 l0.024174469665336214,1.0533521118430087 -0.6737439571583865,0.8568172705578684 l-5.482513012313435,4.4463846420570095 -5.389360085644099,3.290333415526172 l-3.68026022560792,1.8411801301306978 -3.322527232086707,1.3783864974714648 m1.8506764166284073,-11.018612713418264 l3.670184259483986,1.1183968871336654 4.212275637998701,1.6174954549490124 l3.5871632270528457,1.8034262875642282 2.128179155748099,1.6110082414877025 m-25.741265277820634,9.76799408424828 l-0.40025364782231276,0.1768982635745447 -0.8918567534303404,1.4038969373596477 l-2.1004022313908997,1.60432417307938 m12.0828264724653,-4.660829223092399 l0.8625512677600223,0.9083524041600993 0.8609640657299448,1.3613342034815763 l1.3176247077511296,3.020197385000555 m8.431784191349141,-5.939953064020194 l1.9921982974624333,0.8192466593817196 2.2865093459945105,1.2906988890063709 l1.611000157449122,1.2180760272348752 0.9633469696514316,1.0363086229091123 m5.939700502293457,-4.986913537035704 l1.7954752063313921,1.1565744436420315 1.831792061263023,1.6579818832152884 l1.4653768497330195,1.7434648467708824 0.6514090457044164,1.2314103565749246 " fill="none" stroke="black" stroke-width="1" /></svg>