<?xml version="1.0" encoding="utf-8" ?>
<svg baseProfile="full" height="106.89897638574219" version="1.1" width="101.04296255380963" xmlns="http://www.w3.org/2000/svg" xmlns:ev="http://www.w3.org/2001/xml-events" xmlns:xlink="http://www.w3.org/1999/xlink"><defs /><rect fill="white" height="106.89897638574219" width="101.04296255380963" x="0" y="0" /><path d="M25.625810170288453,25 m0.0,0.0 m12.77011596222911,4.094487036996226 l0.4139561754074182,0.44447990919427766 0.445703241207301,1.5559729052959983 l-0.0568548633486315,13.289591611126555 m0.6425387922926253,-8.486028227708346 l8.224257329237684,-1.0693682034854424 2.0920494794737325,-0.17260392096838167 m-20.628783235300027,0.26278767131077385 l0.8200156926933901,1.5696900650651264 0.08944645458256503,9.169944857946275 m-5.438255198763624,0.852884630944443 l1.0346355738826287,0.3423748357779395 1.8806479674823324,-0.062152113721385044 l21.204186311798868,-6.445192241382879 m20.90566457132199,-13.01795168499288 l-0.33888478325117627,1.2321323259263763 -3.0932450931065882,2.330794424706432 l-4.4025058016699665,2.335640453871823 -4.693340497772441,1.926945316256406 m-2.6363298393141035,-9.777983913708153 l0.6615360503671128,0.939618528006765 0.11043755812399235,0.9351270086563649 l0.04287923338697827,13.40596798041557 0.5148400408271067,1.5066072531374293 l0.9553656863300284,0.8367940736514247 1.9736420912277688,0.6430206808162701 l3.776678289771541,0.32047827872634355 5.230820063397217,0.04123508568154349 l4.137908905437299,-0.4142288589626256 1.5559498941096477,-0.5284114549154068 l1.368865130933327,-0.8283203425634864 0.6465539635930885,-1.0749049786115175 l0.2066572369329787,-1.5552201779034718 m-31.40344843809093,6.492056382993521 l0.12324007665331105,1.5347689532216247 -0.5837870237234143,1.0793348939535867 l-2.188273787110925,6.6680196716358715 -2.1408923742580046,4.486836859416773 m5.423014245654165,-8.220320151114255 l16.391057612397823,-1.2089313325488993 3.029433495480799,-0.03172607367395376 m-32.20380654203193,1.8354084946119391 l0.4562977626560462,1.9542363294310299 0.15868615837491712,16.901215758564966 m0.0491416939563913,-17.67281035662606 l26.651165535933707,-2.0934207411331958 2.7767725040657707,0.07651224323064407 l0.671055162777673,0.32703167885671297 0.744174503806836,1.0969391558571682 l0.16134941566234062,0.7039223807218454 0.004805993524371107,17.14358436798043 m-29.082917557391834,-11.622394806476343 l18.34560380688341,-1.4562602832326346 m-18.132136695387363,7.207960257804745 l18.483181501669797,-1.1851317473313174 m-18.464692695002782,7.296516698774998 l27.553918599998102,-1.3254796978233179 m-22.719212774784,3.2348867891053183 l0.1845939793896593,1.1938472670601008 -1.3753435129162723,1.3276855589289152 l-5.670946608524305,3.611972342171861 -5.731028018881471,2.938506676793732 m27.99505134248581,-8.566260524490747 l3.326552384455329,1.5279398040838745 4.13802789234693,2.361700936518097 l3.2153007271756366,2.2317622279563887 1.69449994542489,1.6075950092139217 " fill="none" stroke="black" stroke-width="1" /></svg>