<?xml version="1.0" encoding="utf-8" ?>
<svg baseProfile="full" height="151.07302421595767" version="1.1" width="104.99173579457336" xmlns="http://www.w3.org/2000/svg" xmlns:ev="http://www.w3.org/2001/xml-events" xmlns:xlink="http://www.w3.org/1999/xlink"><defs /><rect fill="white" height="151.07302421595767" width="104.99173579457336" x="0" y="0" /><path d="M40.232035505482,25 m0.0,0.0 m12.385680920367198,4.046306954949982 l0.06893345933776829,0.5277997517513147 -0.21448012679278364,1.0721121459380594 l-1.2418504343689756,1.8884746061299011 -4.099908853731371,4.936583107973003 l-4.2569810175664395,4.243217084266755 -5.0020637605139315,3.6817516122593323 m15.111012403461636,-1.875892997190323 l0.022708764141133892,1.1496580817059014 -0.6666560487825882,1.3858776841742495 l-4.486221915159574,2.5959027729373534 -7.163982417311828,3.084761218605761 l-8.29840710554117,2.719249861435006 m0.5403005452068463,6.4962529533372315 l2.6374377744692925,0.5876638404121507 2.2823320072087236,-0.120093405713519 l15.8397426686126,-2.6287028214585426 3.61805373555524,-0.4076420202414417 l1.9576605119992525,0.1871994904300565 m-12.294098918570503,16.622176321792004 l4.431423098713745,0.292213226910141 2.9352117200815835,-0.1057102021815005 l1.2389132969720835,0.5063249902056343 0.4710635074790198,1.1439366174755459 l-0.4264688687572707,3.802310337713233 -1.98380546215207,7.466754587559525 l-2.3213594644783466,6.231765588424785 -2.3884951645592345,4.935812956571003 l-1.3108241697025182,2.6966943915778083 -1.2132157282545353,2.392238920660901 l-1.5415212353095233,2.6102279843796703 -1.302741380731769,2.1106623287588944 l-1.4134414599394676,2.059405492732489 -0.806961946034835,1.6208294837304864 l-1.5499505264228046,2.4817145100280467 -0.7651282648434311,0.9943193498796966 l-0.7801958454281822,0.5957500473014608 -0.7428227897854098,0.1229806363799333 l-1.290870864466175,-0.6152245566620842 -1.7031293097433176,-2.2279115116488932 m5.899685004439406,-39.65097799542956 l0.22190295751938335,2.5703116397714534 -0.9330775629918155,3.936899432149317 l-1.947461460440926,6.986499903829582 -2.304974126727502,6.483115046558265 l-2.189230279269286,4.9681834454224925 -2.626995004886834,4.9109974483152845 l-3.046519807824241,4.658715887270813 -2.580256559958256,3.1751914408423247 m40.447148490988894,-41.19405156510455 l0.6114463029658149,1.6536023056839344 0.292746800278495,2.559369561182486 l-0.12800379949922064,28.736951833151398 m12.495568042054272,-39.93543189899456 l0.9441718924185286,1.8125637303517563 0.32865806536657804,2.427630854735902 l-0.1946581139557465,56.27728002916317 -1.048842395905335,1.3884216937671559 l-0.8640416020193226,-0.11426938630586805 -1.82815094801204,-1.495462366432251 l-2.0974596117454234,-2.460131315836951 " fill="none" stroke="black" stroke-width="1" /></svg>