<?xml version="1.0" encoding="utf-8" ?>
<svg baseProfile="full" height="109.23299302647308" version="1.1" width="99.53335622990662" xmlns="http://www.w3.org/2000/svg" xmlns:ev="http://www.w3.org/2001/xml-events" xmlns:xlink="http://www.w3.org/1999/xlink"><defs /><rect fill="white" height="109.23299302647308" width="99.53335622990662" x="0" y="0" /><path d="M25,25 m0.0,0.0 m15.0585667930668,12.571321946361712 l0.5382548323056745,0.1267912941242475 3.5204382059940347,0.13687410432301997 l26.122631037356705,-2.0344166911875248 3.8622677170802127,0.1990442089108197 l0.4311976441031823,0.37757717900623433 m-27.26544234352759,12.305828143917603 l19.988009590044857,0.22847666517760032 2.8105950501538466,0.12586245229936135 m-30.827285922229656,-10.371164296616188 l0.8763966904387411,0.9968858458160904 0.3758482246418999,1.1127841576314748 l-0.17058320733779098,34.61053777533285 0.6183406848275342,0.5165811174900582 l0.5625143665457053,-0.15246077147906922 0.8748946054106393,-0.3688087458026855 l22.072409764938676,-2.897638769212103 m-16.530082649867623,-23.5262692320022 l12.309277510395257,-1.8043542397194718 1.4873694277637253,0.15965536882366899 l1.0402757446871596,0.6466163059342407 0.5979259302395007,0.9327102144355659 l-0.5109933295994652,32.835152968012494 -0.24189825683306576,1.3809286675680148 l-0.4350699705707176,0.822757598811619 -0.5867104558936767,0.30171975851565697 l-0.6946011089802274,-0.11922166387201209 -1.4924786892550101,-0.8855655084272259 l-1.880963195435953,-1.5830914428079383 m-22.06353587406522,-23.038556473672784 l1.9008831957177843,0.1678700333085406 8.153449601830545,-1.0383282367703053 l2.354376509047912,0.09631309913793841 m-8.65671168613246,9.4273747413251 l2.348418863346238,0.1306740597805279 7.217424347493724,-1.0247150821379067 l1.83342545379588,-0.1265582046686791 m11.038956032433115,11.5299102141099 " fill="none" stroke="black" stroke-width="1" /></svg>