<?xml version="1.0" encoding="utf-8" ?>
<svg baseProfile="full" height="95.95896618379594" version="1.1" width="101.22862895732622" xmlns="http://www.w3.org/2000/svg" xmlns:ev="http://www.w3.org/2001/xml-events" xmlns:xlink="http://www.w3.org/1999/xlink"><defs /><rect fill="white" height="95.95896618379594" width="101.22862895732622" x="0" y="0" /><path d="M25,25 m0.0,0.0 m3.7716494339804822,17.973350533164638 l0.4428495724681654,0.15166230467738281 1.5062474071421708,0.09503881583925909 l14.616694093963707,-2.0112212198567168 1.914690501383935,0.044479380048816124 m-9.730353519448704,-10.86522312452874 l0.594276963488304,0.7781843354870505 0.3921882365803046,1.1454345065721447 l-0.045053560750155014,22.04531800456867 m-8.630450332870826,1.2424570170657454 l0.766347518067242,0.8595729833245699 1.680110633866731,0.7171108933191137 l12.963760672575253,-5.90473235240673 m2.753218010850488,-15.051973021151916 l2.080801856471759,0.296001876888137 2.154803719392806,-0.12220713974452801 l19.569934346377806,-2.478476182959657 2.279069589797562,0.18342395730247638 l0.9982956122859826,0.3425391976832651 0.831234980345462,0.7556691064863986 l0.3183132213577386,1.0751078349088818 -0.37023481058716723,4.386583380868513 l-1.527912712300881,8.72294953459692 -2.016874459822745,8.510697148530378 l-2.4060581082270285,9.397843784168947 -1.689183372976228,3.029118653151802 l-0.7102514425749351,0.5456468400991511 -1.2584010406736241,0.09460913569195493 l-1.1218153951488627,-0.752707402208034 -1.7576392466437114,-2.028919818145658 m-1.7890503750051128,-30.098087975195885 l0.08198536347290945,1.2493631191814536 -0.17274959281395194,4.044763820183525 l-0.6387268559637497,4.279141507913302 -1.1687837765917013,4.0560764198082495 l-1.548694652344668,3.6220826168345193 -2.006055991025254,3.5328210208573996 l-2.481449246224189,3.3442777669758796 -3.0191078116548935,3.1764018274033723 l-3.4661142622843024,2.9222706457163325 " fill="none" stroke="black" stroke-width="1" /></svg>