<?xml version="1.0" encoding="utf-8" ?>
<svg baseProfile="full" height="102.98296322057791" version="1.1" width="103.3342727025665" xmlns="http://www.w3.org/2000/svg" xmlns:ev="http://www.w3.org/2001/xml-events" xmlns:xlink="http://www.w3.org/1999/xlink"><defs /><rect fill="white" height="102.98296322057791" width="103.3342727025665" x="0" y="0" /><path d="M25,25 m0.0,0.0 m13.116803373630736,21.92085275665442 l0.08322971123497301,0.40677413664019585 0.17972083983414178,2.102997252431751 l-1.3020237682558338,6.42738068440669 -1.775965485177509,5.511562355434983 l-2.219230048132615,4.877358913700508 0.2509883026333276,0.5761765348785841 l3.7991449677333433,1.1014719262671342 3.273165521751226,1.5445404784345351 l2.930392206529209,1.9644986938065 2.640657653085071,2.381812901433154 m-0.7075137691228447,-19.830422989730423 l-0.07171226285210437,2.715305611936184 -0.9667419957782767,3.533387717671922 l-1.4875817515222536,3.821798444914209 -2.0803975184155568,3.864198968914192 l-2.1570528259880875,3.0234032190504023 -2.6380340978194883,2.8739243601441893 l-3.147215745081225,2.5489679152984914 -2.724020809250928,1.616973338290283 m-1.651023459146898,-19.60010043350444 l1.1853864662388462,0.5257840977298998 1.585428047599309,-0.061455583257624576 l17.232866716204473,-3.5506785501429095 m2.7780682552285008,-12.24291265888159 l2.3923938580168023,0.48714301037019586 18.947263540594843,-1.448652680641825 l1.348828808216132,-0.09290157576611033 1.5353366217624633,0.21690230569018568 l0.6313086576428523,0.35605028031402564 0.2506985487824763,0.5070386067719967 l-0.09166991457493219,0.6437430667710421 -2.8021413164567104,8.475527966340364 m-10.645711115067037,-7.969238154993109 l0.4820532442338729,1.0101092638216396 -0.02437827275330903,7.044666608824859 m-10.637029566181033,1.2057319231618355 l21.972528568824494,-1.536262474820994 m-22.48545705195785,-7.9799301110032665 l0.5328390681597165,0.48958147704308497 0.24854264530652498,0.8042947598998227 l0.04323405717577508,21.08040406284178 0.21367309591949615,2.245115272161348 l0.5194206099038943,1.1106937246032373 0.576897306480692,1.104980583553708 l0.8482597790204933,1.212036095527223 1.8966159018249829,0.8493895944298205 l3.1691735829770717,0.4232190314946492 8.433351530388583,0.08694236197937934 l6.6224375747044935,-0.38969185245434 1.7838034845586817,-0.5465025130641182 l1.039182532789608,-0.9993519019932819 0.353185253365203,-1.4319173263731528 l0.052293143748670924,-2.33403654501136 " fill="none" stroke="black" stroke-width="1" /></svg>