<?xml version="1.0" encoding="utf-8" ?>
<svg baseProfile="full" height="99.85406696557402" version="1.1" width="100.27613946698386" xmlns="http://www.w3.org/2000/svg" xmlns:ev="http://www.w3.org/2001/xml-events" xmlns:xlink="http://www.w3.org/1999/xlink"><defs /><rect fill="white" height="99.85406696557402" width="100.27613946698386" x="0" y="0" /><path d="M25,25 m0.0,0.0 m35.506400368032004,4.3743046242911525 l-0.036898020826879215,0.40477111034433283 -0.7383139852415976,0.7757783451728864 l-2.4080658828587223,0.7571931018639589 -7.804283872135979,3.5761805225800245 l-5.680082608819192,1.9590944423533456 m-3.5367867917366436,6.170109130744305 l2.6853116815876596,0.07435891043770672 19.53371745461207,-3.3614482953603053 l2.229957494945938,-0.2482684019512349 2.0713937928458916,0.09868975490104774 m-31.029868658792473,11.37642088399857 l1.6261384482756527,0.22246992984849606 1.8685679639606412,-0.07208034580603011 l16.68963965732323,-4.131531408233329 11.022760101067473,-2.43618737708416 l5.547408131324798,-1.2427190094532108 2.7291441934199905,-0.024231975064893857 m-21.59790189197474,-12.15409869092555 l0.3787189983271998,0.8945858747358154 0.024281053294349746,0.8912217392448338 l-1.3425813591022486,16.542420590084674 -0.5397608203461538,5.139209880186862 l-0.9259423037967763,5.140088891344006 -1.0111626121894455,3.8913807473478714 l-1.6805183659857708,4.550884814775762 -1.8531124925816245,3.4162489050996774 l-2.2960537749086476,3.065419305037279 m19.964296538999022,-39.599712792930774 l0.46413855328681936,1.0457501734743981 0.12132889431389388,1.0906723255739255 l-0.0012837808545715856,37.66709125894257 " fill="none" stroke="black" stroke-width="1" /></svg>