<?xml version="1.0" encoding="utf-8" ?>
<svg baseProfile="full" height="97.25400310711353" version="1.1" width="90.20466001388444" xmlns="http://www.w3.org/2000/svg" xmlns:ev="http://www.w3.org/2001/xml-events" xmlns:xlink="http://www.w3.org/1999/xlink"><defs /><rect fill="white" height="97.25400310711353" width="90.20466001388444" x="0" y="0" /><path d="M25,25 m0.0,0.0 m6.541435247403243,9.289733264379603 l0.392497997293092,0.2214918987261793 2.6768765104441297,2.064457587490686 l1.2366622231458801,1.267723456064507 0.6579433007575333,1.0255654537432723 m-7.591216858198148,7.369973174719388 l1.408835448474971,2.0760028637529717 1.2424349354359416,2.750026828311534 m-3.7292010932753543,21.055595370523882 l0.7507148766840491,0.13343320940151007 0.33292187617042324,-0.7210901497971426 l1.7149436397734343,-4.660275559207206 1.706684816883084,-5.283123651534316 m7.020991558495475,-22.026257914047 l0.2730094901820715,0.12993687165397763 0.8228163307711994,0.07767687472921982 l8.163021387457356,-1.282875827673583 1.0252501770362525,-0.12273359770940437 m-5.031912606758372,-6.381300260899574 l0.46152624164163353,0.6917420358624183 0.1733552052479793,0.8701587145869529 l-0.046305476114177326,17.254387989006396 m-4.786895659273653,-11.705075980215366 l-0.053587665496485845,0.26881131056169877 -0.7784966735658535,1.365217956048715 l-2.468932705781101,1.8441609813193607 -2.679404609625764,1.595640789958305 m12.8913332210238,-4.286037794357336 l1.6731066389963627,1.5547911000442265 1.1780839893866017,2.2290754275731937 m-8.330242216153009,1.5845521547219912 l0.13087192004531037,1.4025821048906166 -0.35148739283883657,2.0109713534327414 l-0.8855374372329226,2.8980841160595476 -1.265304492910501,4.235181803795687 l-1.9172158279362277,4.5788550528815435 3.7123182857606354,3.782672649819425 l2.266329513871618,2.337247263884621 1.5334049727685313,2.228275058788319 m0.19804288804303252,-17.313312520038377 l0.14460127694892652,1.0040835455019073 -0.0917364151688841,1.2832183520271425 l-0.6969805111679125,3.4943595232646643 -0.9945734968647427,3.4091864172691504 l-1.3555362818422194,3.293270042137724 -1.5150537751260313,2.57435303683085 l-1.9794746548564484,2.3285665978668524 -2.458959533499996,1.9729041483515934 l-2.1805412049425463,1.2440567372350195 m0.0777336598251579,-15.86064035326317 l0.6489644529089758,0.6564765489807628 1.1861740005973955,0.06100481232190702 l11.48432227334038,-2.5033764213982637 m7.542239228865144,-25.39779106966953 l-0.12117895700022152,1.2036796713629627 -0.28235205604319236,1.669531030201952 l-1.8700464742480194,6.322831863276821 -2.1671298991986756,4.786565449383039 l-2.652321511357917,4.215364473015308 m6.751187202658684,-8.150005275566595 l2.242204339372345,-0.1500008128912348 6.823965513092614,-1.551225552631738 l1.3994808595583965,0.07774136036019866 m-4.902675119309303,2.9515783918809437 l0.150758578583586,1.4253573081967974 -0.10188762420604738,1.0990095963186335 l-1.2970912894393285,5.401933696280229 -1.5917131772187911,4.784864052393958 l-2.01233251083353,3.6508304247852212 -2.0236976922164382,2.7825106931493493 l-2.315721650173491,2.4266581673384247 -2.5655728426515827,1.9828932870870863 m4.0382446241593355,-19.175647844901484 l9.025901638773327,15.645051943665885 2.0056570041729493,3.1697280526244795 l0.8776908571219081,0.8892108109526062 " fill="none" stroke="black" stroke-width="1" /></svg>