<?xml version="1.0" encoding="utf-8" ?>
<svg baseProfile="full" height="115.1460786919824" version="1.1" width="102.2397353952993" xmlns="http://www.w3.org/2000/svg" xmlns:ev="http://www.w3.org/2001/xml-events" xmlns:xlink="http://www.w3.org/1999/xlink"><defs /><rect fill="white" height="115.1460786919824" width="102.2397353952993" x="0" y="0" /><path d="M29.064618259410878,26.708222441996277 m0.0,0.0 m12.725412818151623,9.337545925101196 l0.502831460262555,0.10906882104271093 2.837127402619498,-0.012746746624350687 l13.290619193180335,-2.00680503110501 2.241812673859255,0.08188463088848977 m-9.384080493215098,-9.217170041299315 l0.6360101417814803,1.4196508348701238 0.16814926675505706,1.22485484568667 l0.05127812230256003,18.132317225341364 m-20.538975396057335,2.8720839444466875 l2.3457339689300385,0.4035660681579244 2.0308862608350795,-0.00929438234109105 l18.93257285489128,-2.543673273057238 12.138347905040565,-1.3054142311275667 l6.758791987921702,-0.17371659263354136 3.438598968629828,0.5206038207557445 m-8.304355286569649,-18.029506323063256 l-0.324232324698769,2.026039694280928 -1.6069804246599175,2.441992133719141 l-7.243628091891853,8.416127972058796 -6.484345710231705,6.846328389969526 l-5.591120945315666,5.867185219147403 -4.971631492926136,4.889747406173089 l-11.206994063845707,9.612722190149023 -6.50644705515991,4.908124032073878 m14.430335154342659,-9.59862167764789 l0.5447969792070598,1.0548732269209586 0.19072140751633418,1.2624379373371275 l-0.019425761728216404,24.907650230764588 m0.5892048700125602,-26.34913739703042 l15.55765426870028,-2.7469023345658807 1.435622984780464,0.030427757737873467 l0.48231596704158747,0.29347466327509775 0.29613768431413146,0.5236055100403212 l0.18521203351896082,1.5685413649026987 -0.19042274540495913,25.638999586604168 m-17.506428443683163,-14.24704347070268 l16.96058104111092,-2.2739226983412775 m-17.020476698923268,13.77728383443537 l16.927905237306764,-1.859340370386744 " fill="none" stroke="black" stroke-width="1" /></svg>