<?xml version="1.0" encoding="utf-8" ?>
<svg baseProfile="full" height="133.09312905695944" version="1.1" width="104.41020950133918" xmlns="http://www.w3.org/2000/svg" xmlns:ev="http://www.w3.org/2001/xml-events" xmlns:xlink="http://www.w3.org/1999/xlink"><defs /><rect fill="white" height="133.09312905695944" width="104.41020950133918" x="0" y="0" /><path d="M25,25 m0.0,0.0 m6.575355340724155,12.017643190404579 l0.3306418321427687,0.1458592748236423 1.8142122419937656,0.1009801429743039 l13.037648327795205,-2.0938334671046834 1.8195189724106982,0.18046639663609484 m-16.422236973710962,18.328087070906303 l2.561835931161399,0.3052536829584875 10.141361756662395,-2.119415335121726 l2.788860229393747,-0.24379887274535733 1.2303300166993776,0.27779881791203415 m-8.544936670381702,22.693835474664915 l0.8746696160616002,0.9650393386445041 0.2032005499075291,1.050999426142449 l-0.008039872342399564,1.3929411714301716 -0.07053185757818829,20.034434830344363 l-0.14765418293080745,1.4731958286630253 -0.2885740487350379,0.6142518430059091 l-0.4283248657449463,-0.11548211680278643 -1.0928364491782265,-1.340701926578465 l-1.3774189759301847,-2.520451722733224 m-3.028321848047544,-20.65724384054473 l-0.04418490878438879,2.44729920923188 -1.154949907608593,4.257522459136009 l-2.0523511400241765,4.622273403465562 -2.482784180031115,4.008166491587331 m18.23229971114919,-17.827208336970227 l1.0785033690615535,1.7884766845992006 1.4284805946477797,2.991152303216625 l1.1127782669524084,2.9547240537797874 0.5474469959908171,2.4010964032436957 m4.726145870220118,-30.5591923283191 l1.3027487810482992,0.35195900491835325 1.6947217581880503,0.02254801629295016 l12.212942000659385,-2.652029798378988 1.3722842550284533,-0.20526212926388554 l1.382188675915168,0.27846648727777934 m-18.223757337615535,17.03802888940846 l2.101969011990401,0.18140537166225287 13.510143975851602,-2.7684197150314285 l2.6762545907934765,-0.3294989374288525 1.2906122500221575,0.19297036189543018 m-22.225092316253722,21.591114310697897 l1.2601372398279642,0.1824223228097877 2.101449403295725,-0.16257131686104134 l20.176880056605583,-2.613208554050422 2.416583414035941,0.3671848918630447 m-14.128144053756376,-38.14985904180992 l0.6326257838411523,1.1998006260340095 0.26157286884328435,1.8659673113862478 l-0.004767044399423216,59.12794140468719 " fill="none" stroke="black" stroke-width="1" /></svg>