<?xml version="1.0" encoding="utf-8" ?>
<svg baseProfile="full" height="92.15606341357173" version="1.1" width="94.47461441856879" xmlns="http://www.w3.org/2000/svg" xmlns:ev="http://www.w3.org/2001/xml-events" xmlns:xlink="http://www.w3.org/1999/xlink"><defs /><rect fill="white" height="92.15606341357173" width="94.47461441856879" x="0" y="0" /><path d="M25,25 m0.0,0.0 m2.9868421367852536,20.974642540538174 l0.4217423006674394,0.12434743351134045 1.5082940279632677,0.09168584633042154 l13.304311090441564,-2.0010151294761696 1.8131658668195274,-0.1536799100910661 m-8.470997540865984,-11.510339807721092 l0.7015320109360194,0.9015812817313212 0.43120883427250384,1.58588877009973 l-0.12188378034556631,20.64150211526118 m-8.095409170921009,1.5569571511720242 l0.7389232416644423,0.7679395139777371 1.4911624886375858,0.5222949335035637 l11.563064474502582,-2.0410688016527514 m2.7081377126726833,-15.917567563906019 l0.5335446818867831,0.4034605619230436 1.1560106542736754,0.10384775304944295 l19.172168553684134,-2.110537374170019 1.5776969392956575,0.2074223132137241 l0.8259822608334528,0.7204450446724704 0.22911763536478877,0.9929650553810834 l-0.3867364142506045,1.796703283722019 -1.6965606652385656,6.588631410133062 l-2.1602009399128,6.8531445846425925 -2.3898607050447023,8.020076726527767 l-1.309849918873039,2.2043562237761107 -1.4008180509061092,0.8323794574220463 l-0.5584526930137604,-0.29628851815540597 -1.4142673828229584,-1.7004776148000567 m-1.0370681407451836,-38.443616404771475 l0.27431262959197134,1.1935226374216752 -0.01921760014592001,1.4985978995257558 l-0.9167523882708056,6.265129458268495 -1.5182137766437913,5.87781738798766 l-2.1120941819899404,5.789597062044016 -2.2356308102464784,4.692167264921618 l-2.727236711664556,4.516010300786346 -3.236860721846995,4.09221905470725 l-2.782815558800348,2.6459318126450526 " fill="none" stroke="black" stroke-width="1" /></svg>