<?xml version="1.0" encoding="utf-8" ?>
<svg baseProfile="full" height="116.572747161953" version="1.1" width="92.97673412969846" xmlns="http://www.w3.org/2000/svg" xmlns:ev="http://www.w3.org/2001/xml-events" xmlns:xlink="http://www.w3.org/1999/xlink"><defs /><rect fill="white" height="116.572747161953" width="92.97673412969846" x="0" y="0" /><path d="M30.570603356938335,25 m0.0,0.0 m11.493882919837235,3.8399580132149636 l0.06500630351213511,0.558079315960198 -0.2936607753256533,1.23282867103417 l-3.5589547052418355,3.6485300855012026 -3.743876858422349,2.912877758915365 l-4.71531537092525,2.9921700418472867 m26.309741106306337,1.304729051592766 l-0.10156367956334886,1.1329098318663466 -0.5738573520207688,0.9001724333842834 l-6.193604569729643,1.9943240119104544 -9.144341174525152,2.969370959939206 l-10.528959714934212,2.461144699640896 m-1.4480778812533601,5.877234443941588 l0.6058302398766754,3.1982592362182274 1.5073664225106127,13.304006774014839 m-1.13872024474665,-16.604585488515752 l24.308488818797155,-2.2903099900212616 0.933673390196623,-0.038907227235898977 l1.4575261823797254,0.35947920366745656 0.4423608860028677,0.3274565254124943 l0.31432898791099595,0.8829574014195081 -2.5444179333692243,14.589033503676696 m-23.199461243815094,-6.510172995080808 l17.24816776044321,-1.3774810368042223 m-16.303448410620923,8.65522935321598 l22.447766160646648,-1.7535408764834641 m-12.667480700385392,10.01098646426346 l2.6572483681068864,1.4915929663800938 1.690451759826091,1.7164162332698245 l1.1521689193443696,1.3527708664152076 0.23544558240454114,1.5342125558343505 l-0.7402680881860864,1.9082397378761073 -3.996043858539918,2.74322962915005 l-2.2415871751913086,-0.2726794617165235 m-1.3335838524771741,-16.407424143444185 l-0.0016943420316966906,1.0807443686145641 -0.6203025949054617,0.9574980342289361 l-1.8885365911150038,3.7240633503695952 -2.0323303203749123,3.1205990549068776 l-4.224509224742394,4.787769911351558 -5.205460502597632,4.2589738922205695 m32.432607310660195,-14.985019698229166 l2.9295504879193937,1.1518961160251602 3.2872023778689234,1.8475119858664473 l2.863570181087044,2.2723583243893577 1.4638037721629,1.7767512947438315 " fill="none" stroke="black" stroke-width="1" /></svg>