<?xml version="1.0" encoding="utf-8" ?>
<svg baseProfile="full" height="103.49593334325186" version="1.1" width="105.31820490711709" xmlns="http://www.w3.org/2000/svg" xmlns:ev="http://www.w3.org/2001/xml-events" xmlns:xlink="http://www.w3.org/1999/xlink"><defs /><rect fill="white" height="103.49593334325186" width="105.31820490711709" x="0" y="0" /><path d="M25,25 m0.0,0.0 m10.946257623686217,9.520566838725408 l0.2604487498195921,0.4300090446584347 0.4131674411801888,1.5825981158956126 l0.007276428910760491,12.171811066187251 -0.23478394497711538,7.799881586989375 l-0.47998026305734176,5.757700468154768 -0.7873158423142912,5.0484361963231965 l-1.0551453407357534,4.401261028075172 -1.3867495725345738,3.889730044349471 l-1.462630855238223,2.8939389538931737 m5.891657337385568,-43.29718820438858 l8.399688963809256,-1.7513931854029345 0.6810350953019751,0.08301430683883439 l0.7885180255442192,0.3349057863171433 0.5584228218448223,1.0182706258766656 l-0.10312146770166915,41.4726122632025 -0.3738176190257471,1.123850531821314 l-0.5225601887838599,0.42677143414573493 -0.6292403039483798,-0.1228392231916808 l-2.389434452237198,-2.3716131268163667 m-5.875016993834563,-29.389139468940357 l9.299405030266467,-1.166214540569926 m-9.594093327528766,12.089562284785409 l9.577184315335723,-1.0036300314186946 m8.3130297700975,-17.506321360851214 l2.0832681000250406,0.164721730122924 17.424699421429622,-2.367551273120179 l1.6618960382661199,0.26439840662129516 0.7217154995640541,0.729641494716447 l0.19859789888841603,1.2677861299105602 -2.1733221973268178,13.234487965244742 m-9.55322443386805,-12.697836156030545 l0.5709901602166141,1.0095279347062052 0.1732460772983566,1.1513142912182635 l-0.008216391368818531,10.394019422637841 m-8.98055832426878,1.392123515002437 l17.094278012442476,-1.4624738511825508 m-18.462090309259438,-12.749453431261909 l0.5218840176019678,0.9050648980166156 0.22001345930129104,1.2241351413307386 l-0.0599324485749151,27.684636719772094 0.9750988352361284,3.4068783369592106 l2.4810030675708927,1.235519199145842 3.3752016473490847,0.3382392108606262 l8.131369498061957,0.010835456350818722 4.818144584770276,-0.5525851133128689 l1.984230533263636,-0.8068009620162545 1.204570278410941,-1.266750236614141 l0.538319783568835,-1.6845353990612095 0.13482066725337813,-2.478431717229946 " fill="none" stroke="black" stroke-width="1" /></svg>