<?xml version="1.0" encoding="utf-8" ?>
<svg baseProfile="full" height="114.92606969250366" version="1.1" width="93.33687231904065" xmlns="http://www.w3.org/2000/svg" xmlns:ev="http://www.w3.org/2001/xml-events" xmlns:xlink="http://www.w3.org/1999/xlink"><defs /><rect fill="white" height="114.92606969250366" width="93.33687231904065" x="0" y="0" /><path d="M31.53252914687485,38.25248795235387 m0.0,0.0 m12.529872057889364,3.46219584693162 l0.05374163454318161,0.4766800168070562 -0.28314611493976266,1.111489772312764 l-1.041399774161662,2.8538062929018753 -2.3748231846424637,4.54591053039971 l-2.8953874285266292,4.047913858079804 -3.493754758004363,3.7756058199538027 m8.13983398734945,-7.3613319673426885 l4.318172108340412,-0.4825377106911746 6.760310439336563,-2.060765080278306 l1.9576140547071548,-0.15261597486976552 m-8.736182979764973,4.482548647695015 l1.0129519457858835,2.5235768052504635 0.9354234285640874,4.347818340760987 m-12.551316142975567,-15.467636372843625 l1.462191151275839,0.3080901284378788 1.802756740142406,-0.1667124620337708 l5.922854095747141,-1.9348277204396336 1.3878160499312513,0.04583028277676649 l0.35618287896121914,0.37085319602244343 0.07662000547634469,0.684648756541254 l-1.4002850336312567,8.639180423915468 m-9.832888928295107,1.9717974967772816 l10.318997913378945,-1.8152142231414394 1.4382755196857389,-0.009906667050540606 m-12.873971099706981,1.099762458042356 l0.32357846437637505,1.618634416248063 -0.07397281535858742,7.374364085763717 l0.3122384375844836,1.9349887041799267 0.6812912585586784,0.9033948649965948 l0.8264851831650005,0.3893884361114118 7.495169541003231,0.33452449866703654 l1.8201206881188066,-0.27295941856696665 0.9715806892859942,-0.44363680596954835 l0.9968791612630552,-0.917588309256148 0.37554269361003356,-0.9247369656510799 l0.1732275078442408,-1.580825354310043 m2.2200783000226334,-34.937755098952245 l0.6293792902027412,0.2516312913285959 1.2671837143175135,-0.050941558272026746 l10.931056559825363,-2.22713123358676 1.0654929663640116,0.18009768364849932 l0.6034755659084989,1.4283114849390626 -0.08483494142693626,0.8727606097000291 l-4.900909444955486,9.487003340483286 m-0.020291680686780268,0.14274825985363593 l2.615248618871581,2.596648454155715 1.7901173622053212,2.9943407553837633 l1.5379061942591872,10.681775341034042 -0.7953288793330038,2.235731715344973 l-0.6684835883641366,0.8583892005157926 -0.754692274690604,0.4447913067658148 l-0.8641175947522125,0.011838144328011268 -2.1360218998144775,-1.551266407723082 m-7.441615814965365,-26.605026266344186 l0.44295249658730357,1.665737240293117 0.02889876279771137,1.2516112271193383 l-0.05843127752452101,41.58206966940661 m-21.502371801166735,-30.805898156066203 l1.5623251052416776,1.1609341535383533 1.927929012270348,1.9484828728798342 l1.5089567405522313,2.0064415283042414 0.6710166033185864,1.3043122489240073 m-10.038747321443308,11.92886936870246 l1.4483735155311,0.39921313428022465 1.0117116854371795,-0.06812653281902156 l6.215755149936869,-2.5015652733204012 0.944990817575122,0.546826166542568 l0.03779146164031482,0.7400564051677662 -2.614467046192237,0.8832797710730181 l-2.854049272617015,3.3214711959387344 -0.278963703859454,3.1537647892049794 l2.8364252453964456,2.5649846798918454 0.3810096748910261,1.6854150801678498 l-0.5385813502321753,0.7784337714642495 -7.03627419418736,5.901226308337289 m-2.5150212797333324,1.0411184234653836 l2.536550968423902,-0.4499215173056015 3.8465077460165773,-0.004620262461227079 l25.81461940549408,10.003915904645297 6.116312387777887,0.990176352147713 l5.022881811328208,0.11971752089588175 " fill="none" stroke="black" stroke-width="1" /></svg>