<?xml version="1.0" encoding="utf-8" ?>
<svg baseProfile="full" height="95.92840452665612" version="1.1" width="87.20073284959975" xmlns="http://www.w3.org/2000/svg" xmlns:ev="http://www.w3.org/2001/xml-events" xmlns:xlink="http://www.w3.org/1999/xlink"><defs /><rect fill="white" height="95.92840452665612" width="87.20073284959975" x="0" y="0" /><path d="M25,25 m0.0,0.0 m6.4191068334187085,9.270276874676574 l0.4275082759098688,0.2316934955180013 2.6774871134291525,2.217597655009065 l1.3320136438055947,1.401108211909297 m-7.292895052347978,6.650180323196762 l3.0222275405038643,2.0052753731122563 1.3419382088646448,1.33496519991844 l0.7009009405799218,1.0597674670375172 m-5.866733623139993,21.258010940497613 l0.9490315036069707,0.4995289857805927 0.4375064527187907,-0.011555796216415507 l0.735335726700018,-0.631330547921975 1.9421257026619292,-3.7090365577451125 l2.1188712521088626,-4.817132949091498 m10.364687678326128,-28.768708628103028 l-0.043480790355328855,1.2225989919877303 -0.4067270087007496,1.0990351556572822 l-2.173573163155718,2.697590246212399 -3.3216191440461307,2.8767188533200847 l-3.8596154323497878,2.501936074385474 m8.301244098449825,-13.055969728062319 l8.556736433735255,-1.0609279225881145 0.7078808664680031,0.06710359120982572 l0.4871209703359672,0.3504558047135981 0.267664394289679,1.083568818438855 l-0.20846210671829749,10.007727347487624 0.7222589039301656,1.409224174061044 l1.1763875358282725,0.7735300928458257 1.754543604463609,0.2558923682996436 l2.626124947120793,-0.08507738005049692 1.9881669865783216,-0.41289072323363274 l0.982308182590596,-1.068491070920436 0.33466137398878676,-1.4656611639086963 m-20.012785212054347,9.640019805907105 l2.198775171701038,0.10767935737503628 11.49026497062443,-2.2553082563860682 l1.2403281874153276,-0.036838131386114775 0.8319404955603051,0.20711762049439164 l0.4482927880635661,0.734419727010966 -0.03311474676576912,1.1172743577097057 l-1.9727723691434755,5.0504081418621 -1.552195174290988,3.380692949924693 l-1.653005132641191,2.691363199873523 -0.9777125111340519,0.9955096747224493 l-0.8797066990796738,-0.020027345516611377 -1.0430216358463817,-1.1945708486788729 m-0.7605548089529313,-14.140487507026373 l-0.07803542564835729,1.7718508305607272 -0.6457052019777506,3.422394092979354 l-0.8572078604780843,3.014596975444617 -1.0867331232547093,2.7089246141857157 l-1.2519986933936862,2.384122938259502 -1.540562335743206,2.2971575639870236 l-1.8860905771387784,2.182190609554057 -1.7159546519587512,1.5166430235778572 " fill="none" stroke="black" stroke-width="1" /></svg>