<?xml version="1.0" encoding="utf-8" ?>
<svg baseProfile="full" height="96.05890483882504" version="1.1" width="104.8819436389184" xmlns="http://www.w3.org/2000/svg" xmlns:ev="http://www.w3.org/2001/xml-events" xmlns:xlink="http://www.w3.org/1999/xlink"><defs /><rect fill="white" height="96.05890483882504" width="104.8819436389184" x="0" y="0" /><path d="M25,26.662274795937115 m0.0,0.0 m6.170779055869297,3.5129947726845105 l0.5282266980800925,0.2390908159468869 3.3214242090927573,-0.18127705455814078 l12.771227479613447,-1.864159899188531 2.013450841937886,0.12787369463328266 m-14.202372427431348,3.739175430058954 l0.5542729021745655,1.9763644924861425 -0.029252730690675965,23.301620561772033 m0.27289522523270704,-18.051041865085715 l5.1874377826668425,-1.1866852304018842 m-5.315903278498055,8.577336584383039 l4.832304700137235,-0.926229565791657 m-9.924152962504191,12.913054965719414 l1.6218886481727395,0.12097879595796567 12.650778454410425,-5.927112849659301 m-0.253078315573917,-22.95340440488422 l0.43238748363499363,0.9080401547761926 0.07721423073600667,0.9328904456987165 l0.07545979012712864,39.13712019834022 m13.027595375220502,-46.05890483882503 l-0.23060198688332514,0.9169828835669958 -1.3966458258867394,1.8725193453993112 l-4.579627622554268,3.927588285373494 m-1.1608753482339975,1.565164757704043 l0.8271982839299902,1.1941034496738456 0.3662174539596888,0.967491775719412 l-0.08077417817758942,20.279590129440386 0.26691828740311824,0.3210692506315176 l0.47912547205138584,-0.34448777302850714 7.2526071260313385,-5.974232760574094 m-0.06283725663143468,-18.042200696819393 l0.5471701252994066,0.7150012298879223 0.3453062771262935,1.070970722442759 l0.2116662826481872,11.638420499343615 -0.23058861856535162,7.405118583301735 l-0.7874615748607364,5.616673778883415 -1.5628873867496011,4.883789423425002 l-1.8291461246807887,3.1274314970064725 -2.470391702301906,2.650172225678098 l-3.2246513626864974,2.051447267552485 m16.40402581703312,-40.23692203886274 l1.4502593637341878,0.1752653712024137 1.1237527633326885,-0.10203678539561306 l7.2837556552168525,-1.434166399066799 0.9993640878349497,0.29440470138597225 l0.8602492360187016,0.8363616743193878 0.26823323310226327,21.195583444071218 l-0.2611824645661172,2.313900206202186 -0.4844576964489274,1.428189013356191 l-0.6565052795737365,0.5862430948914151 -0.7479741942967252,-0.03564852722002812 l-0.755654349188718,-0.44231167791849824 -1.4233100548065614,-1.5456023626067767 m-6.490732308382954,-22.029532756060803 l-0.1098894532797597,37.97542567310437 " fill="none" stroke="black" stroke-width="1" /></svg>