<?xml version="1.0" encoding="utf-8" ?>
<svg baseProfile="full" height="98.76289622669256" version="1.1" width="116.02184689093602" xmlns="http://www.w3.org/2000/svg" xmlns:ev="http://www.w3.org/2001/xml-events" xmlns:xlink="http://www.w3.org/1999/xlink"><defs /><rect fill="white" height="98.76289622669256" width="116.02184689093602" x="0" y="0" /><path d="M26.45200971157339,25 m0.0,0.0 m13.134105301062235,2.930458367400438 l0.10076594971773468,0.4727071988069243 -0.09701942810327463,0.9629068782716711 l-1.1322346880130634,1.8574019007212899 -4.110120912409428,5.017360722789433 l-4.2469129246300295,3.8710653435983553 -5.1005930091975635,3.219995749765219 m15.836875805112127,-12.607006429832303 l5.470548009787066,1.0189658627908016 3.991544240963681,1.602157888174343 l3.022321262308481,1.7890809758675987 1.843168556585636,1.5753981171699731 m-14.083135160508068,1.3541133929190858 l0.9527466375250268,1.5419845558100589 0.019891030110337674,4.478742683740946 m-10.037315961386385,1.5108703796304037 l2.7916918302411453,0.2562587646604713 13.865738121359522,-1.794736997576646 l1.1163205105739715,-0.06101411233370173 1.2618078996498479,0.2815582613910633 l0.4344325295481877,0.4293029374371434 0.08308526674414544,1.4033920144341139 l-2.25755993253478,11.499879336151485 m-14.690409088883735,-5.781458851421549 l14.923254747519975,-1.6430231841947687 m-14.953849742203342,7.915636271499582 l13.82464185340868,-1.5514713837350202 m-15.612642232250717,-10.672287283570018 l0.5586129977989083,0.8876445156830493 0.203702256783704,1.0097984709173744 l0.02251590198057005,22.886306368156703 0.450750812310988,1.0383810938877192 l0.6140175339138377,0.04324209708490418 0.9586390777526579,-0.3657577389511185 l12.578797179448951,-6.015962033775509 m-2.183049886817058,-3.58692998400664 l3.0729771690153562,3.1573974639368427 2.093498490582585,3.300776249393399 m14.091616889586037,-37.168259249527225 l0.10072829343659714,1.534466511479838 -0.271602338876748,0.9404896838347278 l-3.0310488544161975,6.965095882613975 -3.5387408544268797,5.3981386711654284 l-3.605897226300774,4.063317962051428 m7.802015776352936,-6.949250008686822 l2.6201543750638083,0.0012555716189149965 18.79470319796215,-2.5647280422744942 l3.2916959146736393,0.10968061375596476 0.482633997045209,0.2893300150041468 l0.3708443002520678,0.8378700997162536 -0.19591296260894833,1.6586044516746856 l-1.8289487384774272,2.455685308774662 -3.118949861024393,2.984423724461259 m-14.733359196281825,1.8906954959201916 l0.3792812025456541,0.999807332295631 -0.13214395727506462,1.0562013604953346 l-1.4936147393938584,3.744118882175825 -2.01250854931342,3.76047832879267 l-2.690140441085188,3.794701823584745 -2.633638127861151,2.870968438774575 l-3.219785047276429,2.693491285652946 -3.8861082535336857,2.476002399747738 l-3.3994828552775536,1.6871738208970233 m18.7684585588942,-18.178794541655108 l5.042161271671253,4.932431985389532 8.04928685866551,6.7869103128771195 l8.135045291172585,5.080197090401027 1.7114852506026135,0.7224508378581452 " fill="none" stroke="black" stroke-width="1" /></svg>