<?xml version="1.0" encoding="utf-8" ?>
<svg baseProfile="full" height="105.75096842507095" version="1.1" width="107.25849167562416" xmlns="http://www.w3.org/2000/svg" xmlns:ev="http://www.w3.org/2001/xml-events" xmlns:xlink="http://www.w3.org/1999/xlink"><defs /><rect fill="white" height="105.75096842507095" width="107.25849167562416" x="0" y="0" /><path d="M25,25 m0.0,0.0 m19.363264306632484,11.474485684328442 l0.47332217727660697,0.1237767234760678 3.0770796527469924,0.04591964791715511 l14.256612050281392,-2.02543435852354 2.88258175177538,-0.2096267454486778 l1.6912390844679015,0.1579732007370956 m-11.43607111081526,-7.896818009310061 l0.7765204343456691,1.351710331978309 0.17329936825946182,0.9562552790898502 l0.13534856717128485,16.4663430737287 m-22.36300313319483,2.524196291449235 l2.0919104086154308,0.42214876224524917 2.000121277491749,0.004654602212450145 l21.18416207722441,-2.3371326391970166 12.357125387049727,-1.1394970226518215 l7.544852204837321,-0.3415323078685519 3.050127171458429,0.4414580653261811 m-8.518055411919645,-15.922954909268402 l-0.24044202250724955,1.8812924682475802 -1.7158828221859757,2.226238328598944 l-7.897804128073553,7.794384064893996 -7.057956362839389,6.012502575633298 l-6.4024401645357205,5.190301718952505 -5.658598905673685,4.118215609494394 l-6.362801259132095,4.029689536057844 -6.99861150622892,3.8062465080347123 m16.177739099176048,-14.244266463884324 l2.9939733030610314,0.6864301111601567 3.345840278996767,1.1637177495167967 l16.959994924069367,8.630271008282401 4.91555252205503,2.4177698737068196 l3.8393564655928403,1.4635613257667317 m-34.85458757596497,-2.5776763410109313 l0.5887483575128046,0.2641676147220487 0.3566432063429838,1.0241482245698132 l0.0438194519329772,17.768048842107493 m0.6275957240003479,-18.574113349201635 l16.158217211843834,-1.828585478748558 1.317517880862004,0.04001619602421489 l0.49602930553937097,0.26858900368764704 0.3793200363752361,1.1249774177676826 l0.03629531202107247,18.614377111142094 m-17.964910848377496,-10.701396998627692 l17.260912042882605,-1.4854548545289383 m-17.173281843652184,10.584053959850351 l17.24390003617578,-1.206529430660418 " fill="none" stroke="black" stroke-width="1" /></svg>