<?xml version="1.0" encoding="utf-8" ?>
<svg baseProfile="full" height="116.71700510839355" version="1.1" width="100.94355481095107" xmlns="http://www.w3.org/2000/svg" xmlns:ev="http://www.w3.org/2001/xml-events" xmlns:xlink="http://www.w3.org/1999/xlink"><defs /><rect fill="white" height="116.71700510839355" width="100.94355481095107" x="0" y="0" /><path d="M25,25 m0.0,0.0 m35.326385237703995,11.796629952483691 l0.014705757706202797,0.3643041023342764 -0.5553148683962041,0.7735779927144133 l-1.118034847418805,0.8862445007814804 -4.6387794728500875,2.350169531819977 l-6.576661776698951,2.1386739600781643 -6.673941960985141,1.6074585800142818 m-3.4243051005068437,6.1299171078663335 l1.4259632158381614,0.1672895218146208 2.0446734153520687,-0.1526776159692845 l21.328353978122003,-3.4054397021937635 2.5703182293810856,-0.15851711684537448 l2.0026325287152082,0.1538442023707691 m-35.03965874829361,11.432069242955668 l1.875373908152356,0.18134034407969665 18.4022179254331,-0.0856178582409161 l15.674051811499474,-1.2483796309908495 5.915275258895076,-0.2603713180645434 l2.3903003193019723,0.25602812139845 m-24.75099876561007,-10.549878461099773 l0.1693627276272714,1.2941793291706554 -0.20381165996004805,1.061126427496584 l-1.8756853251834031,4.113219072506427 -2.486389075707378,4.528338107372729 l-2.531041560703821,8.2911584127595 -3.7929290353087635,6.822957663989811 l-2.119446728948308,2.6507142591216453 -2.3317701851856962,2.056829328013343 m11.431294073580949,-10.741133815090418 l0.6417555594064939,1.6472923311360166 0.02213687829326484,22.615658534609928 m-0.14328511679560432,-22.832175116882112 l15.494038499717032,-2.3733178806224244 1.3141551995921024,-0.05756295665684871 l1.056936898926992,0.43487909511804745 0.2958755007621351,1.0152280424855487 l-0.06843867883629691,22.18792143524926 m-17.315300668658804,-14.697652515295152 l11.441345176812105,-1.335280156134229 m-11.7918262375666,7.934401502925891 l11.517086735015777,-1.098667598058924 m-11.613637319212962,8.451384204809122 l17.495693158339176,-1.1189343658636377 " fill="none" stroke="black" stroke-width="1" /></svg>