<?xml version="1.0" encoding="utf-8" ?>
<svg baseProfile="full" height="112.31182834205458" version="1.1" width="113.2099011592014" xmlns="http://www.w3.org/2000/svg" xmlns:ev="http://www.w3.org/2001/xml-events" xmlns:xlink="http://www.w3.org/1999/xlink"><defs /><rect fill="white" height="112.31182834205458" width="113.2099011592014" x="0" y="0" /><path d="M25,25 m0.0,0.0 m9.928414783102435,4.11756762181912 l0.37189894275095015,0.6377401652796977 0.3079605226183298,1.7841135039275458 l-0.031226906641771437,13.328769939476636 -0.25054468117086737,7.767404186408909 l-0.5667364720453901,9.914326062292966 -1.421392125663753,9.479467616392826 l-3.0478023431711767,9.491592104457029 m5.968676566979128,-51.275532670259686 l9.742262773199732,-1.842221087634456 1.6705226433369103,0.2960340360996269 l0.3505249990720848,1.0571368165535149 -0.2285267098853057,49.167897177720135 l-0.3745483528057712,1.5386368444951755 -0.5893359804966181,0.6707818058747809 l-0.7277770686404481,-0.014418987542288928 -3.124592564138496,-3.140662623584146 m-6.646547051891871,-34.50510178155069 l11.049355042301038,-1.2757025905642827 m-11.438367225148,14.425851341796415 l11.348663459327419,-1.1680063341669704 m9.655003646191739,-22.856007235972207 l0.4615113480506387,0.7019096880777868 0.23238821441440852,1.6208181302557108 l-0.07843855417926276,47.74068745833909 m0.9925265483877386,-49.20895850066279 l27.17326831199074,-2.642453909424839 1.4150684037602481,0.22880789847303093 l0.8483038372839915,1.081990508247414 0.21938715231260253,1.6978877272265502 l-0.13269203884749148,51.33550659008344 -0.4485627800226599,1.5637453479412036 l-0.6418750926362382,0.592221492178344 -0.7720740704592279,-0.117499512167108 l-3.0157721051489905,-3.2116709510537205 m-19.467322217846455,-38.842811469025605 l4.733644539239965,-0.03866473815023903 12.07580039710447,-1.4897243324425713 l2.8028099885238813,0.2012464858696616 m-19.413812233807885,11.295030395067291 l0.6510602866711969,0.7252450607242119 0.45453396518550326,1.8285975982980376 l1.643065525291418,11.283511293514874 m-1.2661647216423524,-12.76963727821291 l13.639499440290994,-1.9946209872799452 2.3323036338021974,0.0539337096259093 l0.4869733474741737,0.37770774465293117 0.2473444171124574,0.610305256828891 l-0.037133374604616215,0.8493988594240723 -2.0772735313193706,8.860623615033681 m-12.680536876853358,2.298834858274207 l13.9357773240734,-1.504853880286608 " fill="none" stroke="black" stroke-width="1" /></svg>