<?xml version="1.0" encoding="utf-8" ?>
<svg baseProfile="full" height="120.881560247159" version="1.1" width="104.37847959159564" xmlns="http://www.w3.org/2000/svg" xmlns:ev="http://www.w3.org/2001/xml-events" xmlns:xlink="http://www.w3.org/1999/xlink"><defs /><rect fill="white" height="120.881560247159" width="104.37847959159564" x="0" y="0" /><path d="M25,27.78165255037961 m0.0,0.0 m9.28572017823588,3.151987858460857 l0.34666178279370935,0.5879541807840486 0.330709513094012,1.6425761462777861 l-0.026231220106814057,12.895882951271451 -0.21544745432687382,8.03096301644948 l-0.523529403108283,7.781296081750468 -1.451364968946684,8.979489774877688 l-2.9208478474248682,8.78552345676144 m5.805716689968854,-47.822336083576396 l9.354880516809802,-1.6771472190910641 1.6022695925719421,0.29666060010810524 l0.6546609220972596,1.0125238455536023 -0.11500853334927406,47.105315183012856 l-0.3947738025198895,1.444269024090487 -0.602471688209313,0.6070059732097332 l-0.7361277893195924,-0.08231515769283841 -2.9367698907913744,-2.8331327095212493 m-6.558582928735746,-32.36144774643205 l7.1351848997902865,-1.2567791412893994 m-7.25334820123416,13.462720051018517 l7.024387015267986,-0.8129532739654977 m13.235448403285034,-27.4022912836971 l0.6781549737832021,2.305246384468728 0.05506454587860456,47.076157258922535 l0.37896601566318977,1.6997762336591637 m18.05817042986674,-44.731638072514585 l0.10866348047056476,2.588013885334442 -0.48916443214708316,1.7490368551428677 l-5.29820792126964,8.276698204839098 -5.306624455208236,5.182062415040127 l-5.716998722402919,3.3130504329770036 m-0.0342622002109544,-31.77582167660992 l1.961773937517918,1.4082347142265683 2.728535078789116,3.0883643334561515 l1.984475815019448,2.976311658675425 3.3158011621843344,4.6610489027061845 m10.82120043467011,6.057577698037067 l0.09179566314936269,1.4627906871369836 -0.884924816854656,1.8358078122661883 l-5.5656608163508166,4.929418920410682 -5.224773427859503,3.5870045305170692 l-8.309285659212767,4.3097038562877525 -9.588017038354936,3.6001895043273313 m-0.8601230719959929,-1.317052742542069 l3.197101507859291,1.459298588828353 3.6082472115103323,3.1249545957275746 l3.0180097482828203,3.5306425499182468 2.1032792424679516,3.4160676385808535 m16.698211197486703,-15.47042169511234 l0.03354907104355081,1.360610477036975 -1.368409664806868,2.910356936938616 l-4.970999536601698,5.364198664022434 m-1.572557408978042,8.441042995071042 l0.26693119487161254,1.1418921764462664 -0.2779755251226772,1.3201319656246298 l-3.0675681572777114,5.951052527522076 -3.4989520464387747,5.141815336557364 l-5.429228083137696,5.910685135858428 m9.352929735222332,-13.550916398836936 l2.4480944880691022,2.3246811208428464 3.2672972688020834,3.7399594033914862 l2.8399650498155453,4.119082677658996 2.080505442315984,4.0470256755767435 " fill="none" stroke="black" stroke-width="1" /></svg>