<?xml version="1.0" encoding="utf-8" ?>
<svg baseProfile="full" height="119.0243603696581" version="1.1" width="103.7036550405625" xmlns="http://www.w3.org/2000/svg" xmlns:ev="http://www.w3.org/2001/xml-events" xmlns:xlink="http://www.w3.org/1999/xlink"><defs /><rect fill="white" height="119.0243603696581" width="103.7036550405625" x="0" y="0" /><path d="M25,25 m0.0,0.0 m15.189970368338207,13.456585816442969 l0.36620673671867954,0.09870839301198407 2.1433756205319434,0.021280635135508073 l10.57177343849952,-1.9399519674151984 2.5516886262229024,0.04990022941805185 m-8.087910600927236,-5.927151319922404 l0.9639153161787126,1.647970030094189 0.014594295879603756,10.614089453092499 m-6.989572113808425,0.888467118650821 l1.9222675222880705,0.5674150197959457 9.614513950675843,-1.8845420055672504 l1.6108792730693295,0.12282683543531774 m-13.744074576259088,7.095118567835681 l1.3617633117797108,0.5118192435983115 1.1726262367884739,-0.05506732084596724 l3.6891261757732354,-0.7194372190722257 6.104547091973651,-1.494483952044206 l1.4463069540256985,-0.028386214505246803 0.32028300553108024,0.3593410558985717 l0.092102889146276,0.6491246773563127 -1.243103831548116,6.567546427102933 m-5.557502101940846,-5.660487868377166 l0.08223177620472436,7.223907225788407 m-6.159034712021259,1.3095623041801079 l12.443016761688202,-1.888697942646076 m-12.017042355596809,-5.578194308472633 l0.3198818875620322,0.9155152244204051 -0.2917432419926592,3.6733625542923463 l-1.017986051612157,6.728152992803618 -1.5915231614898824,4.5656777333935805 l-2.6273338132441175,4.334857432090211 m24.249539708256336,-37.2985883177307 l0.9240032115490001,1.747010386598511 -0.32218791086801396,4.454857067133964 l-0.868091717161516,4.183779185562053 -0.6592857319667609,1.7862505225801208 l-0.8350917889390556,1.3521566648490746 m2.9231420302917575,-12.57059989283723 l6.370039964962995,-1.5189477036820194 0.6801107313815672,-0.0063806368420271965 l0.5145990962662342,0.3834171008020065 0.335707467155478,1.2284299458902634 l-0.4978289236114293,4.015900065313164 -0.05533418571535821,2.5641313578473977 l0.676047949791905,1.3381553364757859 0.9324984393507999,0.4792710917760085 l2.7799490402452203,0.23486309591523583 1.4545395763521698,-0.3158884184550029 l0.6811307922383334,-1.1291316825776359 0.16406265023644553,-2.815110863870505 m-17.08534213354947,9.851246575534246 l2.6028088137467833,0.19913123883778533 6.8263370800567555,-2.058599445700096 l1.291128149664829,0.4024292011421732 0.3645068852826095,0.5561592198289522 l-0.0053539452443606165,0.5713836429353657 -2.738613605337386,4.520696570406831 l-3.623055626041578,4.159286923658975 -3.762667295056239,2.999782316581941 l-4.909441465708809,2.7496790698859495 m3.835193686529063,-10.73687953364896 l2.1641649268572563,1.128615189349538 10.96998965288366,7.162298967376631 l3.711609594753984,1.913458348382341 1.9605952434739806,0.6334407033374481 m-34.36638829193885,4.708736203420938 l2.5892892799554565,0.6334011175971214 9.387294193452506,-1.4379701232337907 l8.204446004008666,-0.9584156174635047 5.844441602149405,-0.5404722229998236 l2.2788403467930562,0.439812625406352 m-22.50282063298768,3.571840197957158 l0.31752376593245746,0.8178934520184972 0.25640057109795944,1.8978337598252661 l-0.08328346907665542,14.669899254306078 m0.4134563762619455,-12.985101072594288 l16.43828798132356,-1.377964364629445 m-16.903833470248685,7.456503906839377 l16.624558026494725,-1.6521186957420855 m-28.29394682145735,8.453646942710865 l1.4643441816350689,0.9757746389734493 1.5155140666855185,0.337044453801468 l33.165086638893136,-5.256199107720471 m-7.95186989019993,-16.15737329673487 l0.6240648905524171,1.8776270815148377 0.16142397338416606,25.159429092777955 " fill="none" stroke="black" stroke-width="1" /></svg>