<?xml version="1.0" encoding="utf-8" ?>
<svg baseProfile="full" height="107.80733607709408" version="1.1" width="109.49251235986594" xmlns="http://www.w3.org/2000/svg" xmlns:ev="http://www.w3.org/2001/xml-events" xmlns:xlink="http://www.w3.org/1999/xlink"><defs /><rect fill="white" height="107.80733607709408" width="109.49251235986594" x="0" y="0" /><path d="M25,25 m0.0,0.0 m4.730059802532196,1.1928730458021164 l0.34037865698337555,0.690038800239563 0.4502331465482712,1.717243492603302 l-0.004511032602749765,13.323853015899658 -0.24147341027855873,9.613421559333801 l-0.5938108265399933,8.156951069831848 -1.4323748648166656,8.640299439430237 l-3.248501420021057,9.876872301101685 m6.26568078994751,-51.22208118438721 l10.024125576019287,-1.7985005676746368 1.78489089012146,0.32804060727357864 l0.7041393965482712,1.0227424651384354 -0.5059942230582237,50.54917812347412 l-0.5072659999132156,1.5207269787788391 -0.7403726875782013,0.5368951708078384 l-0.8881616592407227,-0.19740892574191093 -3.30490380525589,-3.12534362077713 m-6.562686562538147,-35.023841857910156 l7.757135033607483,-1.0966815054416656 m-7.802114486694336,14.58755612373352 l7.46512770652771,-0.7311805337667465 m14.724634885787964,-25.611040592193604 l0.4458991810679436,2.6245033740997314 -0.12427860870957375,49.14304256439209 m0.5336823686957359,-50.44529438018799 l27.75897741317749,-3.2754531502723694 1.4578987658023834,0.21014301106333733 l0.7767844945192337,1.0177447646856308 0.22931383922696114,1.5942645072937012 l-0.05115943029522896,51.74345016479492 -0.43622732162475586,1.6292484104633331 l-0.6425607204437256,0.6150734052062035 -0.7789263874292374,-0.15135874040424824 l-3.09857040643692,-3.297407329082489 m-20.02504825592041,-38.93060922622681 l2.7237433195114136,0.20079463720321655 13.214974403381348,-1.7247846722602844 l2.981838583946228,0.14946228824555874 m-18.654251098632812,11.366183757781982 l0.6214989721775055,0.694679468870163 0.5690231919288635,2.044413983821869 l1.6828842461109161,10.676859617233276 m-1.5721318125724792,-12.405704259872437 l13.21354627609253,-1.970742642879486 2.3988930881023407,-0.024765359703451395 l0.5540300905704498,0.5404649302363396 0.10075708851218224,0.694679468870163 l-2.3394563794136047,9.963974356651306 m-11.960196495056152,1.9076913595199585 l13.035414218902588,-1.5498653054237366 " fill="none" stroke="black" stroke-width="1" /></svg>