<?xml version="1.0" encoding="utf-8" ?>
<svg baseProfile="full" height="97.40649145630846" version="1.1" width="100.53438457006976" xmlns="http://www.w3.org/2000/svg" xmlns:ev="http://www.w3.org/2001/xml-events" xmlns:xlink="http://www.w3.org/1999/xlink"><defs /><rect fill="white" height="97.40649145630846" width="100.53438457006976" x="0" y="0" /><path d="M25,25 m0.0,0.0 m2.7740845042767885,21.173600911350693 l0.5709927260326858,0.11989787495102121 1.6066480516540755,0.04070648614711612 l13.787836412801227,-2.326273434244132 2.06572548025224,-0.1151083567916378 m-9.022905140742806,-12.039484430050367 l0.7062887120930919,1.0543028151931069 0.30392410354675986,1.1961556392548467 l0.004243411378282041,29.373363518588526 m-9.509968925465802,4.848141187093373 l1.0945987819565681,0.5691228453155259 1.2737946940756066,-0.36475243703623095 l14.118962404383597,-9.025534782737822 m4.458476602328902,-21.635218059445904 l3.1028997921988952,0.17672338568905505 20.395453920183712,-2.482310132543013 l2.8033290391159453,0.269661103016689 m-13.12513919915226,18.023948619129275 l2.040962346202353,-0.9493413214912692 1.922291681941768,-1.459556798197072 m-8.108531054370905,-11.88054004860034 l0.5163285293275165,1.7351694978541137 0.10910250986336649,2.5216415038423476 l-0.15359838116810567,22.906123423326278 m-9.944731984978768,-16.38742830471013 l0.7325607767708628,1.1195805579973168 0.1954613119096087,1.2687914750696052 l0.22733001125095897,18.678004443329257 m-7.52564230140026,0.4713378844285857 l2.5565582394093753,0.5257663905796381 14.673228313645206,-1.6619215500512832 l12.833996875463605,-0.7731372608202874 1.5259019223463066,0.6193026941348233 " fill="none" stroke="black" stroke-width="1" /></svg>