<?xml version="1.0" encoding="utf-8" ?>
<svg baseProfile="full" height="103.23951232076266" version="1.1" width="95.18923434010323" xmlns="http://www.w3.org/2000/svg" xmlns:ev="http://www.w3.org/2001/xml-events" xmlns:xlink="http://www.w3.org/1999/xlink"><defs /><rect fill="white" height="103.23951232076266" width="95.18923434010323" x="0" y="0" /><path d="M25,25 m0.0,0.0 m16.662264023061518,4.569174863473844 l0.5092232297855527,0.11254126537776092 4.237107797474307,0.01855764882225683 l21.463330236085113,-2.1797886395818997 2.317309053696736,-0.20413279910391385 m-28.01442165162522,8.859125710873833 l1.5070635662684135,0.3885636489244246 1.7400309105813434,0.047894296856635876 l22.933911121601856,-2.6401131447205395 1.136296749958169,0.5270718609205773 l0.2411469803399336,0.5564372943611631 -1.512344601786947,7.021282238088218 m-25.535409964518607,2.637237421415702 l27.390016053074227,-2.3304485400797392 m-27.247091754568572,-5.444513528797644 l0.32622750283658836,2.0410613179108834 -0.8403278253443688,5.404492790413569 l-1.3194159789345665,5.261685148426658 -1.232455904469847,3.644670539322746 l-1.5125922702077195,3.561055142337697 -1.819355744701323,3.4095570537082485 l-2.1749346626968538,3.3174320715357495 -1.9238813228354679,2.434023322333155 m15.287076413621406,-14.390071597734561 l0.47294965714542353,0.9778387924962595 0.15257156023533022,0.8867063743011686 l0.09524870234621223,22.81474699617913 m0.7126112904660825,-23.342595047969738 l16.606662765663287,-2.096636121824117 0.8822988528123857,0.03446567599462531 l1.3610283333357613,0.7599207870060604 0.4835979936270957,1.070505163926429 l0.051525818297569144,23.173228054981035 -0.31306786725755553,1.62021859473856 l-0.4993555957434427,0.6944331187779241 -0.6393727525850057,0.02388454707049784 l-2.6755133181739263,-2.424481978826129 m-14.824012109530976,-15.771754651226665 l18.33961928201034,-1.198077104071854 m-18.15242918861241,8.050813513632455 l18.139299037040406,-0.9474615542396045 " fill="none" stroke="black" stroke-width="1" /></svg>