<?xml version="1.0" encoding="utf-8" ?>
<svg baseProfile="full" height="109.91739564088077" version="1.1" width="98.0797492231202" xmlns="http://www.w3.org/2000/svg" xmlns:ev="http://www.w3.org/2001/xml-events" xmlns:xlink="http://www.w3.org/1999/xlink"><defs /><rect fill="white" height="109.91739564088077" width="98.0797492231202" x="0" y="0" /><path d="M25,35.872937801096974 m0.0,0.0 m2.9572107639713057,4.811127446227375 l0.36867806327154,0.17315937321111366 2.340542365387107,0.012078743423702427 l11.823840544988826,-2.2597385418873315 1.9176841293279239,-0.05551904903335797 m-9.321801310636424,-13.554045773038474 l0.9653328479180132,1.6257024277653438 0.6996994081909228,2.173330662682338 l-0.2816836427918961,51.39074541266981 -0.36334232015291096,1.3619321773531703 l-0.5803945492220485,0.3337775390548725 -0.716776931887346,-0.42654927037326723 l-1.8755246451824925,-2.7081256718687987 m3.7254496967552995,-36.597509034486166 l-2.8883165839505436,8.657863589660181 -2.1530789300878306,7.472065205490398 l-2.2752152703697357,6.500370353551228 -3.404125422168929,6.1012573105934615 m12.111636964444926,-21.2432733851383 l1.9376602782241648,2.9061358066211294 2.307604680115839,4.669073577032528 m10.216360801500729,-31.09283532511455 l-0.06159142887539806,3.321273170610959 -2.2482035431992617,8.760154273471496 l-2.8685105723592823,8.163161764725992 -3.3417444242864462,7.534548320916344 m5.577718809396761,-7.946799630721474 l0.5304174311381438,2.556726206347417 0.05413894571349842,2.7388341783173975 l-0.2171362203602372,33.66553598171928 m13.32107064602405,-53.998522878990244 l-0.15995967205626005,2.1534439390456375 -0.842550355271619,3.106858781177333 l-2.9317609040367354,7.872802728738432 m-9.895021740788685,2.2146366615035284 l22.01805056788917,-3.2371795918510085 m-11.605337998234328,3.497105531867953 l0.40880174831182375,1.240046614940471 -0.06046527017156698,32.340221430826595 m-9.935071736721445,-23.058321359849298 l19.83457445818302,-2.479649311873947 m-20.135105243672548,13.735891540200166 l20.281512995836678,-2.2075176763221407 m-20.263469224181264,15.582940351013107 l23.107951017195713,-2.5225090536724553 " fill="none" stroke="black" stroke-width="1" /></svg>