<?xml version="1.0" encoding="utf-8" ?>
<svg baseProfile="full" height="109.1494263223344" version="1.1" width="106.38837740567783" xmlns="http://www.w3.org/2000/svg" xmlns:ev="http://www.w3.org/2001/xml-events" xmlns:xlink="http://www.w3.org/1999/xlink"><defs /><rect fill="white" height="109.1494263223344" width="106.38837740567783" x="0" y="0" /><path d="M25,25 m0.0,0.0 m15.658014989705796,13.560067947227626 l0.459313066460571,0.11837340517488659 3.0692610006869456,0.09321775975433005 l21.770424516869184,-2.045335049694439 3.5249123873494086,-0.11320527973716392 l2.306101107969838,0.25623916503578203 m-24.29632478411463,11.404591373866337 l3.659234054529387,0.1369102617202075 14.25348238885299,-1.7560718687910917 l2.4605891554173107,0.09916657142441418 m-25.55529501723941,10.617791016470788 l1.7904438281444723,0.2208852206609413 2.366409628092123,-0.043046595609779054 l21.837750327795284,-2.2588647799862027 3.5098977347239577,-0.08684126600021999 m-15.206573061274877,-24.184575600989884 l0.6010937396827284,0.9374815048236413 0.21575944957842222,1.3573121257428802 l-0.03270196014255653,24.07350296621244 m-21.88887372186603,-25.351798958573823 l1.7531440298300782,1.0508477054543663 1.7777743175502831,1.5771232093828784 l1.4205327957101759,1.7856153134201274 0.6092398360709267,1.1462384615638066 m-9.695036686903098,14.061086923920948 l1.3705065082987336,0.3536888336395207 1.439038929175417,-0.1352581867420343 l7.88333877532324,-2.8214460348307746 0.6047240453213788,0.12333360325607574 l0.3696656369082957,0.46564395419645116 -0.049067969072280566,1.0044569440180164 l-3.78986188327737,5.4894935499854345 -0.4658428377876536,0.9475966514591934 l0.4548936812336088,0.6590734112251004 3.109455463496372,2.695393460366105 l0.3452706200867815,0.4946262934127141 -0.015009904534978191,1.1165082705775549 l-0.7095267255117184,6.145658345650174 -1.3487147237449884,7.116757290957666 m-1.6030299774028007,1.8237166429259706 l3.1494653671413233,-0.38996525229997175 2.5558198897964117,0.16671213753949188 l26.299990180051264,6.660059871794972 5.5533242447829085,0.5766650027289583 l4.865364961914603,-0.4833107349392461 " fill="none" stroke="black" stroke-width="1" /></svg>