<?xml version="1.0" encoding="utf-8" ?>
<svg baseProfile="full" height="130.21900980585897" version="1.1" width="115.74078702396072" xmlns="http://www.w3.org/2000/svg" xmlns:ev="http://www.w3.org/2001/xml-events" xmlns:xlink="http://www.w3.org/1999/xlink"><defs /><rect fill="white" height="130.21900980585897" width="115.74078702396072" x="0" y="0" /><path d="M25,25 m0.0,0.0 m20.939920102005292,23.70205932240907 l0.44766499448455205,0.29583357385257913 1.5330585548903453,0.40035564208569946 l10.826909847211072,-2.141055250503592 1.3871192195686757,-0.08822407051183377 m-6.691405336147383,-15.265330541067287 l0.6003590242501423,1.7139507299322865 0.15725840776803018,1.7538780299617864 l-0.08816566146291112,54.69272821456987 m-0.21890908969741907,-40.141138120485074 l-0.6145371661562599,4.31234591534043 -2.2214435725802195,7.0335216604853885 l-2.428396457903025,6.048703244575653 -3.748795031173743,8.209277641807411 m10.721860704983143,-20.23555431407047 l2.0048333894395918,2.6099207949959773 2.3885597089754285,4.450531193281606 m3.0516694344484945,-23.107078048222206 l2.5356970026216934,1.0658163358562256 2.486178361318463,1.8018146645422617 l1.7938281689088076,1.7144634962344207 0.7329344920057963,1.0854033259532647 m-7.403320350915825,9.032824145459124 l2.8346205667040283,2.2050314863182088 1.4296938499290452,1.685329808846497 m-5.302848164143487,17.51123271898743 l0.8406020097274917,0.3968335531845447 0.8569048846195056,-0.37251376707360384 l5.75553764368511,-6.1357495188349285 m5.528386513176107,-26.36046938553391 l0.285770827372685,1.3331266171409855 -0.002260395872634483,1.61567510994211 l-0.18469826524219804,6.1778471559895785 -0.46175072679099777,5.326255403397618 l-1.1525110906275926,6.57396378256474 -0.8382008611242336,2.8743378364860472 l-1.1187125417276387,2.774499302414409 m4.577368608207672,-21.73159324223396 l6.690937800932679,-1.7460069490913477 0.9820150515899848,0.1608107986985902 l0.37949958534897205,0.43472858667002223 0.17285420746794558,0.7705881362429335 l-0.576471566357488,13.401202046193266 0.6295996180394398,2.041389456490944 l1.212389627383463,0.7369162839577683 2.2151371511773013,0.09361138077197015 l1.1511498788652492,-0.2691488880331371 0.8438582130993388,-0.537430982391508 l0.5156926375961141,-0.9168566197772439 0.28334321408210383,-3.56695896049075 m-16.118744247656753,13.434247464249864 l1.5804315951458328,0.20460332034381193 8.448799507354826,-0.19460927061967465 l0.4353393800379198,0.5485759285894495 0.16552324639266897,1.2769887826654107 l-1.0371189657482476,3.616992752950015 -1.8083093025872765,4.789668537389071 l-1.9075284568117539,6.51168067691374 -1.6807979608379786,4.5521264610655106 l-1.8483825107242373,4.02347618394749 -2.03589235854052,2.949288614160203 l-2.39972747267777,2.581599558909422 -1.9760400982401578,1.7158843894735747 m3.5772640105709077,-24.23425264987051 l1.1305440089115566,1.0322385084984003 1.7006245343977628,2.4424960131472706 l9.408161230278095,17.668754269495814 1.7377941315437195,2.293082458762102 l1.8603325056792401,1.5844690684681295 " fill="none" stroke="black" stroke-width="1" /></svg>