<?xml version="1.0" encoding="utf-8" ?>
<svg baseProfile="full" height="93.82283617704374" version="1.1" width="96.92382256017757" xmlns="http://www.w3.org/2000/svg" xmlns:ev="http://www.w3.org/2001/xml-events" xmlns:xlink="http://www.w3.org/1999/xlink"><defs /><rect fill="white" height="93.82283617704374" width="96.92382256017757" x="0" y="0" /><path d="M25,25 m0.0,0.0 m10.46547080087788,11.372191392578223 l0.33759240947352404,0.4895186858138492 0.37771741040260376,1.4417070785388557 l0.013543812356085287,12.949520638818862 -1.0073746573860327,6.825218318962745 l-1.1834855767658905,3.6753434329669545 -1.5665047879819485,2.991885306115299 l-2.1790891143278257,2.7830670937818267 m6.900025079177234,-32.61957003316233 l8.114529566897419,-1.1831595867985232 1.4200313809297298,0.2028556928520068 l0.5693224977427055,0.6828167507597569 -0.35765599702904255,32.84121429700513 l-0.4310712872131575,1.0038363795075123 -0.5859519461758774,0.36639072930356603 l-0.7103145262393721,-0.07317384188643099 -2.7619889105315623,-1.8931939916985643 m-5.609665777195459,-22.41076039349572 l9.51905125787395,-0.8145222377043893 m-10.132186996825702,9.545540854587657 l10.1617405488575,-0.7858745576851153 m10.234821013626934,-18.292463856765476 l0.7284995800229307,1.2310906589802217 0.133414297201531,4.205426685154285 l-0.3208507745755094,5.684286389606502 -0.8717477096715424,4.97561163994154 l-1.0030784724544877,3.4065623734491726 -1.3880341539909875,3.1700425961216685 l-1.4805484828729676,2.2865649958218146 -1.8686486248907468,1.8936266531364505 m7.0944508151600765,-27.78740479814571 l11.462481101903226,-1.5774120020211595 1.2159872226471369,0.15618347733504462 l0.7093922644127268,0.6846389093869951 -0.22107748423539691,29.390153497418954 l-0.12333247341585081,1.4232178764073182 -0.9300256429190751,0.9257487163553996 l-0.6835325324025382,-0.12230882923632162 -0.7305313472935718,-0.43680911821816315 m-9.70135867485014,-20.60737148842318 l7.612082746510396,-0.8343642869531893 5.701724705348665,-0.3580556066693774 m-14.537432262599857,8.978279803712827 l14.143060078697484,-1.196208612496096 m-31.41772287983347,-15.14815782914821 l1.9874781618948378,0.9881970799558962 1.957734969893844,1.4909652780641383 l1.5167938962186234,1.5982015620881684 0.5997080450969128,0.9884206729281398 " fill="none" stroke="black" stroke-width="1" /></svg>