<?xml version="1.0" encoding="utf-8" ?>
<svg baseProfile="full" height="101.11234434306577" version="1.1" width="100.34099783595123" xmlns="http://www.w3.org/2000/svg" xmlns:ev="http://www.w3.org/2001/xml-events" xmlns:xlink="http://www.w3.org/1999/xlink"><defs /><rect fill="white" height="101.11234434306577" width="100.34099783595123" x="0" y="0" /><path d="M25,25 m0.0,0.0 m13.01953490755582,11.790490917680735 l0.43032736112311887,0.07222384229987139 6.030056013935954,-0.12782709788640428 l15.504483370673718,-1.395274032080834 4.380469112995337,-0.1804039052410978 l1.9056333141329964,0.19599241198177342 m-15.198727326647463,-4.941205038363136 l0.7168636971782506,0.37635284096047356 0.4296836099844915,0.8854142755273784 l0.13804909856077824,8.278815827690233 m-10.089709939834155,0.8293166419047435 l2.3289420551937527,0.02638116815731506 13.697390432345655,-1.2269447932580608 l4.9357789845293665,-0.10754888054679605 m-19.954987921786252,5.062039525076784 l0.4493365934338379,0.3337292156210228 0.4724360580963036,1.1236062139979937 l1.2433610398958899,4.453803519034523 m-1.180277857280296,-5.544870799358848 l16.422642816119897,-1.7350690029820521 1.8904225038068234,0.08593613116960748 l0.41354762727983635,1.3226671856613321 -1.789721455459466,3.4849053561519074 m-15.08729543945536,1.5638554691587085 l16.480189074987727,-1.3556373141538027 m-18.92671869759124,2.1271792028976533 l2.030313144914225,1.927740987137535 1.098466934711852,1.7825130582925037 m14.390834594491654,-4.568588256857828 l-0.1614980287527818,0.9777881568956509 -0.5459027707914446,1.3134065600109919 l-1.4936669558741582,2.2953338906886542 m-26.631286110078342,2.3216513318045306 l1.9237742478397593,0.24333082520558513 2.715543026463028,-0.021392012387214936 l18.829811382547152,-1.5620298798474581 10.711090263144007,-0.7080534343218603 l5.521383286773614,-0.17479294307800103 3.2904257867873365,0.25167708401032435 m-32.74119611149587,4.834302683065274 l0.5951637288215591,0.3762229971532168 0.4901065363995311,0.9815692037235031 l1.4698699564615048,5.241373469400262 m-1.0417074834462063,-6.16268234258164 l14.248596644983564,-1.2526547309443399 4.176599997206686,-0.21316135114641768 l1.0180587275364317,0.9010159962440171 -1.9828677683901625,4.254950456270472 m-16.048035749676234,1.6315558249446416 l17.36688925815642,-1.3840029822566604 m-26.756479444029253,5.157009319587519 l-0.24449142609739996,1.6790224145745414 -0.663250522602366,1.7716591885706583 l-2.337069011856507,3.819649947806281 m11.316736200416383,-8.20657416329464 l0.9796111962789503,0.9000324663277949 1.2314758302845545,1.7487277995978419 l0.9495123259189461,1.9167188340490051 0.7350648883320907,2.2178125307184153 m7.837353752052098,-7.299647328701456 l1.3439559081337542,1.1739487872699257 1.7789983262897815,2.134144149502779 l1.1471509388831533,1.8075968035508634 0.6465085145470852,1.5576539213676883 m5.2338478218628275,-7.498416594246972 l2.016603032022196,1.4073088636018034 2.1041387443719075,1.9800044385336348 l1.758633699934734,2.1203722909747915 1.007187249378005,1.832015268881278 " fill="none" stroke="black" stroke-width="1" /></svg>