<?xml version="1.0" encoding="utf-8" ?>
<svg baseProfile="full" height="101.25249968977425" version="1.1" width="99.63263568446882" xmlns="http://www.w3.org/2000/svg" xmlns:ev="http://www.w3.org/2001/xml-events" xmlns:xlink="http://www.w3.org/1999/xlink"><defs /><rect fill="white" height="101.25249968977425" width="99.63263568446882" x="0" y="0" /><path d="M30.1488017464348,25 m0.0,0.0 m25.51110286280615,4.129939717214228 l0.020643388834039322,0.4919583124303828 -0.3749135526374656,0.8238187522291244 l-1.9141682757183347,1.656130793788177 -6.056257381214909,3.475959995538903 l-6.913974744025235,2.833033435237543 -7.335156940038742,2.286610427092211 m-3.347317624023164,8.839159721100627 l2.0403484509461127,0.22256028359476715 3.1407424653839224,-0.18621349295741163 l26.2160298527175,-3.1835943192635856 2.7835148066223367,0.19001299427423418 l2.4130703925487684,0.45415655049433384 m-41.33246544863578,15.758202373649524 l2.200108223139652,0.2529497935216864 3.031745943480702,-0.1134156496542544 l31.919445957202765,-3.77140196777079 4.376626967589443,-0.35631026410971933 l3.3899063084429892,0.23383404140784533 m-24.96024125149848,-17.697535707117083 l0.7119887129830308,1.0038880387959515 0.27649156675428666,1.8994121277598304 l-0.025204971157267067,28.409778491355162 0.6725964626152997,1.5255546547961998 l1.7096659306441637,1.1070523675927288 3.508960342296392,0.6570367395013949 l8.166045626094807,0.30992147927223146 8.050842019445911,-0.36395952795102227 l2.7390697716830124,-0.6895279890976993 2.4606237356901164,-1.2703572802014087 l1.0730491144771073,-1.6290532027278088 0.33091522458489664,-2.5714109801337153 " fill="none" stroke="black" stroke-width="1" /></svg>