<?xml version="1.0" encoding="utf-8" ?>
<svg baseProfile="full" height="99.54231916936638" version="1.1" width="100.32155718488903" xmlns="http://www.w3.org/2000/svg" xmlns:ev="http://www.w3.org/2001/xml-events" xmlns:xlink="http://www.w3.org/1999/xlink"><defs /><rect fill="white" height="99.54231916936638" width="100.32155718488903" x="0" y="0" /><path d="M25,25 m0.0,0.0 m9.791567185635916,12.13334733615428 l0.18438224088628638,0.4363021652095364 0.3494200406268248,1.5302109138300657 l-0.019165685253112713,9.693096083345962 -0.1607286586168248,6.5911464380305915 l-0.4667582045610787,6.377522013288401 -0.5863138997187102,3.5802659519731077 l-0.8726366175136642,2.967830099378544 -1.3209895899688264,2.9935284939459175 l-1.9173214616897254,3.239069674209981 m6.092811605887172,-37.66263681512697 l8.34281328424744,-1.1925553435095 1.461319833650307,0.25037763738104013 l0.5699360050348349,0.7221120576701608 -0.39108331619724307,35.860506653846734 l-0.3723446060577079,1.1250870342999688 -0.5559905676292622,0.5023427632458799 l-0.6819994077849626,0.016044687405901942 -1.4698343099768985,-0.8710905063923025 l-1.6213173573875594,-1.4371233298133927 m-5.546837807858809,-24.80189253376545 l6.338064393545233,-0.5959137723903439 m-6.385438258589123,9.988085967830886 l6.044101082554361,-0.5455045727194869 m14.060788766251166,-22.58755539896172 l-0.1822254517807058,2.3509240908137325 -1.30040091800252,2.96198756274688 l-1.53334381358502,2.576499134424346 -2.946939251451382,3.5974544931298955 l0.014664336671147332,1.2470233829072688 m4.211678601901438,-14.182461121242609 l11.580219133539865,-1.0266723125366979 1.144731031559145,0.1506004745032356 l0.6530886999421925,0.44362634929172573 0.10763535630355178,1.1652851205457337 l-3.3305350480262605,5.841258157410127 -1.845688199742363,3.260371033370877 m-10.849504974413701,0.9167394222145695 l1.8280990247068556,0.19184935147227902 16.610773227819713,-1.8130254587273091 l1.5470172839559362,-0.09102340494071093 1.0063595044484364,0.22870875739914526 m-19.4688335886167,2.403293294881952 l-0.7756201999857361,9.456618551239215 -1.2563357085619802,7.001738570218899 l-1.6840963990619198,5.998973950969779 -1.0290673408966973,2.5253192860575906 m9.504867033218957,-19.22911089017023 l1.6564742192787387,0.17316952565870505 10.409559528978287,-1.8093149900848393 l0.5423722616248425,0.11744228904382821 0.7687366606135656,0.6932834336211541 l0.12363329350977365,1.0990192919701443 -0.4842662167394779,6.8617815914638545 l-0.24996257829822324,2.825659504503305 -0.4951156366995473,2.494903379792536 l-0.7731958227932406,1.5158433399289155 -0.6035307898280976,0.24968528142725557 l-0.5595631247749551,-0.1786207070146691 -1.022008052577699,-0.9872400852131272 m-7.008741699501965,-10.565977102811521 l0.29777354902190833,1.817800049678796 0.28130340550661964,13.302590863567056 l0.5162787818764596,2.02041360909831 0.48010375488953416,0.9241769453201665 l0.5942866795850582,0.7160978642650693 1.7263313617261482,1.1182381227927896 l2.4326072215249637,0.3908719649632831 4.980988695249698,-0.0003506370013579938 l2.6639346174458414,-0.9131414466482232 0.8224453004737893,-1.0011921450344878 l0.30298209363573425,-1.433259587476818 0.045142651702996354,-2.0929985273502116 " fill="none" stroke="black" stroke-width="1" /></svg>