<?xml version="1.0" encoding="utf-8" ?>
<svg baseProfile="full" height="108.2091087330262" version="1.1" width="103.12680553406005" xmlns="http://www.w3.org/2000/svg" xmlns:ev="http://www.w3.org/2001/xml-events" xmlns:xlink="http://www.w3.org/1999/xlink"><defs /><rect fill="white" height="108.2091087330262" width="103.12680553406005" x="0" y="0" /><path d="M25,25 m0.0,0.0 m29.246786570482133,3.0082475862254774 l0.36772213237938556,0.41659415637524483 0.40196854127111475,1.5803729853893402 l-0.04953638909195408,9.012642201356792 m-15.772497579077637,-6.1308040811129345 l0.4384685030621116,1.3929145442096698 -0.8729467496726692,5.3612180530517755 l0.1612271853503205,0.6034642983116825 16.239335563215953,0.26656820459538716 l18.379934341525814,-1.278517853210684 m0.626025224345255,-8.040277810627812 l0.6386177064118377,1.7972268483167753 -1.0091544246413635,8.102723711645453 m-35.20203340445302,4.694341403091008 l0.5928377212462106,0.8882136876311711 0.22878261215823747,1.1273091233825299 l-0.006294678181230641,6.023659153588768 -0.2659059892133952,7.222874659101988 l-0.7737996584946982,5.84633541643717 -1.0457005196222717,4.151956056175108 l-3.349917835626795,3.8450727746635947 -2.7498752869252163,1.458621481415437 m9.830324875020985,-29.534212805050377 l10.72892315769345,-2.256500965069791 1.4644713704558912,0.3177195738351234 l0.6220512935246361,1.00484405462786 -0.06686091383381988,29.723650356825594 l-0.39092576471944096,0.9071040758560989 -0.603198974512947,0.2839038772384631 l-0.7394942704569549,-0.1958513775812827 -2.4644965372667316,-1.989884875120795 m-8.051518321660028,-19.388880654200975 l11.84218988407774,-1.1107178512397404 m-12.350282596513873,8.632179771761075 l12.318704076640643,-1.017457137990475 m9.849690621496219,-16.064123654482753 l0.6019112764652943,0.8724763729958305 0.16632752812144813,0.9831343018247088 l0.03810248119525706,14.801242273053813 -0.46276185981726425,4.226942408286451 l-0.9757616198194758,4.035763719454442 -1.3915957722865107,5.7407706262566744 l-1.2711785042363002,3.6479151487871158 -1.560318250323604,3.238334892946209 m5.820377050058485,-32.99199119516355 l11.842676929211922,-1.5833509945304998 1.3217858601132841,0.28690208968858116 l0.6407970594883224,0.8311940808980786 0.1428218694953228,28.47698045381643 l-0.20757534416835843,1.7651269479855103 -0.5172469015151138,0.7961051681681292 l-0.6961691287563404,0.015787751189855422 -1.9356205925026837,-1.6311048932414407 m-10.264690148736914,-21.52553334615391 l13.13851345755838,-1.1743223423477227 m-13.690557589661546,9.627140788616021 l13.705148150978834,-0.9347163569313075 " fill="none" stroke="black" stroke-width="1" /></svg>