<?xml version="1.0" encoding="utf-8" ?>
<svg baseProfile="full" height="99.67037509777688" version="1.1" width="91.53357775926042" xmlns="http://www.w3.org/2000/svg" xmlns:ev="http://www.w3.org/2001/xml-events" xmlns:xlink="http://www.w3.org/1999/xlink"><defs /><rect fill="white" height="99.67037509777688" width="91.53357775926042" x="0" y="0" /><path d="M25,25 m0.0,0.0 m23.629064956662912,3.904358215026127 l1.1063525005910665e-05,0.4674669160692144 -0.40694683686252,0.8534932622529275 l-1.3813934017711529,3.0462043883628245 -2.1733354184276323,3.9164267595695437 m-5.748939115004697,0.42550921668288544 l0.4675165619233486,0.905849249043147 0.2172934046862455,1.0039151727171243 l1.1779076646116944,14.155286216968811 m-1.112472671328678,-15.080080031805112 l18.230627361329027,-2.197191136971692 1.128969894420248,0.31381797527251826 l0.5658640362562021,0.9162475110823276 0.03426758252712294,0.686785232016399 l-2.029516245488221,13.340974682955778 m-16.737488956650484,-6.766557988857455 l11.68666969272974,-1.0610185136995685 m-10.86711221708277,8.076779766471802 l15.742489142305525,-1.31366666776704 m-18.055321793374414,3.1697438462460563 l-0.37963184301425207,1.8245350233041169 -1.9170197012454777,3.7361137424772464 l-2.088654519954546,3.17912733945385 -2.5922050065853033,3.2123024493353993 m6.876316867649206,-7.515113397477724 l2.1250547062228944,0.09329471758150153 18.04113122952581,-2.055714614441908 l2.602711646559387,-0.1335865181239076 m-12.8910701175145,-6.604836600602793 l0.6173271191515648,1.4958144038606969 0.12406285212214267,1.2061789618521106 l-0.11048424030923949,20.230802104783784 m-9.768017540665214,-7.240417289427824 l2.0160206782836188,0.13715947600869907 15.470255153815685,-1.6794272081167152 l2.7592997146497757,0.10867484272376123 m-27.048900840486624,10.667438814869662 l2.4082948973749985,0.24368477808031894 26.817393737667015,-1.4692700295757903 l2.2271944703379227,-0.028507417249553035 1.8763437906890796,0.33129399113630814 " fill="none" stroke="black" stroke-width="1" /></svg>