<?xml version="1.0" encoding="utf-8" ?>
<svg baseProfile="full" height="101.10764613843537" version="1.1" width="105.70530172674646" xmlns="http://www.w3.org/2000/svg" xmlns:ev="http://www.w3.org/2001/xml-events" xmlns:xlink="http://www.w3.org/1999/xlink"><defs /><rect fill="white" height="101.10764613843537" width="105.70530172674646" x="0" y="0" /><path d="M26.55534731115018,25 m0.0,0.0 m3.9882986276605514,14.247434573170997 l0.19356535307712294,0.3950494224210996 0.49285029560702326,1.5176330360367478 l-0.06449947054142335,9.533300855669822 -0.18767445916057787,6.507423624352169 l-0.5384697559282255,6.355275914651319 -0.7096460314205257,3.437416488306169 l-1.0014984779868963,2.9284630112791157 -1.5339858716511827,3.023798352241421 l-2.1942875208060455,3.16185086030651 m7.039636492150967,-37.26292805404844 l9.060664555604797,-1.171543794537259 1.591646021893532,0.13424140742826024 l0.6520353513780244,0.6801077184502725 -0.4114071873880121,35.56623094068998 l-0.41976878246617905,1.1404176409964795 -0.6058460881318524,0.5088073167906401 l-0.7425611779971995,0.018654083807894843 -1.590356572197934,-0.8652273476340291 l-1.8900808956761963,-1.4363642688875216 m-5.966409917968323,-24.47648268534765 l6.969385773639135,-0.5787584372728322 m-7.028631090868665,9.815155806215637 l6.7968036972669115,-0.5460213747909045 m16.67154911397902,-22.807248527958485 l-0.2481433731884765,1.641411130914046 -1.6795910731820802,2.8882913680958535 l-1.7113339992635856,2.1605756191804137 -3.005089301016773,3.0784942230814365 l3.2518952298062476,0.839690395986591 2.005542599815269,1.111362858066142 l3.0562454772226415,3.210506289802916 m10.227132065981445,-14.87700531301779 l-0.32487474580627496,1.257221743984142 -1.6185669664265567,2.2859081846091405 l-4.722629142599993,3.902044165958035 4.105501026811115,1.5661883281963143 l2.077195089652124,3.069030696676627 1.2231863468772792,2.262439151280391 m10.273901943017284,-14.88032071814622 l-0.2449441823752665,0.9442232704838929 -1.149965443705245,1.9226094857317193 l-4.6047025440070595,4.292377736463579 0.04951298899268417,0.2980553181415668 l3.1904177018095075,1.3189703521733631 2.4279686818754933,1.7344299149137945 l1.704787150298361,1.7200563384449086 1.2951969029402801,1.7887785149166309 m-18.59697031482612,-0.8486634058687664 l-0.22929429545631014,1.1442822009436888 -1.7104699482751256,2.0888886264227557 l-2.3794933227045156,1.9633747427750328 -2.3355637439940544,1.3756489518293802 m-5.903028585634279,0.70487771514354 l1.2130571836742012,1.0590973613507415 0.5484681380734154,1.253955090234224 l1.2597385453587686,7.56000871044421 0.8705760046001545,7.682263238451286 m-1.8181419919275477,-16.740375543679345 l23.692280403664558,-2.147546764209126 0.787001059660606,0.02347050357785295 l1.3467897528241883,0.26810492419603504 0.8550109611823055,0.7854870427696876 l0.23819919223910221,0.8965131891618914 -2.131925969431283,15.73183552386932 m-6.881475593352988,-15.487789792637225 l-0.10385527981007031,1.2265442683525916 -0.6329641064963524,1.1743586628922964 l-1.4310883735843822,1.744133629563856 -2.086726595263481,1.9423931873755365 l-4.483639822651211,3.2145797948971526 -5.591329511849211,3.0093281519126203 m-0.35475312922603036,-9.928723434355424 l4.152689122024832,1.7137446994031351 4.875131663747704,2.678296246344549 l3.947899506616578,2.9045059227066536 1.9234223849005962,2.2104478914804666 m-17.237354774747235,4.08885936834106 l13.320274914784289,-0.7808649140030618 8.9508276218168,-0.29894602647172563 " fill="none" stroke="black" stroke-width="1" /></svg>