<?xml version="1.0" encoding="utf-8" ?>
<svg baseProfile="full" height="111.1111076974671" version="1.1" width="106.21253202915555" xmlns="http://www.w3.org/2000/svg" xmlns:ev="http://www.w3.org/2001/xml-events" xmlns:xlink="http://www.w3.org/1999/xlink"><defs /><rect fill="white" height="111.1111076974671" width="106.21253202915555" x="0" y="0" /><path d="M25,25 m0.0,0.0 m6.455948596714826,20.911077349826066 l0.6298019477019464,0.10221683292199214 2.058264243359323,0.056305429873842024 l13.041804079876025,-2.1167477991526393 m-6.341581643801038,-13.642681637144173 l0.839433059774555,1.921514567299665 0.22315027033292517,2.7567102289624223 l-0.02866837919968038,44.84819326816582 -0.36550070622430114,1.4926603898849036 l-0.5480792318366523,0.6858915739032968 -0.6635624398269494,-0.00021646441093604082 l-1.4496986910641891,-1.288903625089564 -1.6208776701799095,-2.280551372568731 m-6.1603068757711705,-13.708969247512664 l1.6402715556178997,0.5979235859078974 1.4335771712719436,-0.4957620385643874 l12.434000421218418,-10.09283430461829 m25.76265376803119,-24.600259572058388 l-0.12204067022534941,0.8649240123043018 -0.891959631936492,0.8967941433513574 l-4.338171721501327,2.152895592537445 -6.560759486498717,2.072188321764164 l-8.010732959582866,1.8586087777818296 m0.5907476992431285,2.913756629424306 l1.8999676937709813,2.328211119138629 1.3011108569759915,2.724993540283563 m18.296722720987464,-9.002696032544366 l-0.023175820435355595,0.8835053077576308 -1.5888373141279988,3.3670960042410822 l-1.8033044411654824,2.6310454762882785 -2.030045340720065,2.3104710797142127 m-20.65348566637341,3.204228773392415 l3.692315972778991,0.23489885574730213 20.703124405927895,-2.2784301453633553 l7.026895044129422,-0.3192693952151225 m-17.774670734148543,-9.289923780060496 l0.9153036420140667,0.7735728780041413 0.3713607533384912,0.975620205191492 l-0.14131973724520372,24.77706783020925 m-0.8281910546122925,-15.339802174801775 l-3.1289786767849153,4.38520188066639 -4.367654487759758,4.486620848092888 l-4.434538929408152,3.447593449353942 -4.6747701779477095,2.632733659992478 m18.654757297911427,-13.99631361649552 l5.154309778346424,4.810181063085864 5.08887534027874,4.1885599590674945 l3.530717389361505,2.427480357901371 3.0183308085694946,1.3709431347147527 m-29.7370384652125,5.511295929085452 l0.5480872215138923,1.2370654612135452 0.5584423117935089,3.4974406544159358 l1.2998247102789766,13.226980731600099 m-1.3753733053158812,-17.03258336717086 l21.510692670554445,-1.8318522801955253 1.5651212757568558,0.2810015275397004 l0.4739277754994763,0.3611636560479912 0.3128961016440752,0.8742764254136918 l-1.1523395846447557,9.253439206819879 -1.2919242266368893,6.755614494488494 m-10.689267310885473,-16.006740626621536 l0.4669611917940067,1.5554822673473103 0.11004002031282574,12.732674344877568 m-10.091585685204235,-7.062381767476938 l16.081355128654035,-1.2236354810048538 m-15.44465419658592,9.315154441407559 l19.958558756357185,-1.1809246910736464 " fill="none" stroke="black" stroke-width="1" /></svg>