<?xml version="1.0" encoding="utf-8" ?>
<svg baseProfile="full" height="103.40436755208961" version="1.1" width="107.63906879571985" xmlns="http://www.w3.org/2000/svg" xmlns:ev="http://www.w3.org/2001/xml-events" xmlns:xlink="http://www.w3.org/1999/xlink"><defs /><rect fill="white" height="103.40436755208961" width="107.63906879571985" x="0" y="0" /><path d="M25,25 m0.0,0.0 m8.895151398021428,18.632580273822192 l0.47438841993900366,0.11700863606835955 2.8513139798999974,-0.05327861040194705 l10.900685097971001,-2.171477550601127 1.84444723836929,-0.09247539928365418 m-7.0200262041865065,-12.659829707215039 l0.7331196475152013,1.4123782083489873 0.18055656791321936,1.8291049324592725 l0.002414367432761476,46.39035676889256 m-0.45559236140755976,-35.10966063605162 l-0.8060099017392609,3.0802108752967374 -3.19483728587378,7.254664153520863 l-2.807844716667066,5.007087931918519 -3.4902028468804356,5.479920003442753 m12.296453471144245,-16.043488580949756 l2.116837807234316,2.31161603175086 2.471117142670813,3.666016793828939 m2.8295559153308645,-20.801828347126023 l2.032713540315396,0.17760652893010148 17.422732434851202,-2.1041373986940135 l3.2378998336389064,-0.216655607982792 1.8639851353427046,0.19208315801302175 m-24.539622110884743,-4.796495558450966 l1.2928907199477448,1.3297276339898538 1.5911208223160227,8.75388796906603 l3.387401862321969,5.655456796098997 m12.344235436142238,-15.72499575710828 l0.012685910107146127,1.9421450820343618 -2.9026832234985136,6.626563956624345 m-16.162249199867993,4.9468289416995574 l0.7007823607825575,1.837270260425707 1.840929897428042,13.043234535902512 m-1.6022260121789662,-13.932082798504858 l18.384629205611468,-2.44542276204937 1.8491424258441354,0.04975372671942755 l0.8591346485840468,0.5285727609689035 0.42277048397402556,1.1849515066026701 l-0.04968513964175678,8.576650012060357 -0.7588332572414027,6.174779937055821 m-19.109522054066073,-7.008133699154809 l19.538074448271328,-2.0483604197584553 m-18.70303018332048,9.52638233086073 l8.339155216792971,-1.0453316046187207 9.303346340620214,-0.6974380407333405 m-25.862980742413598,10.323794607994643 l2.8387603814011517,0.2838225212046254 11.852832249330973,-1.3727363407617599 l10.89427963453788,-0.8765881449828108 6.767023717831327,-0.3887171986833692 l2.7318462761524014,0.35637976294954055 m-18.958152169105666,-28.207147296976125 l0.623440151677603,0.9138307690703065 0.24343980520968178,1.5456887564219601 l-4.392955608411384e-05,39.17296265862872 " fill="none" stroke="black" stroke-width="1" /></svg>