<?xml version="1.0" encoding="utf-8" ?>
<svg baseProfile="full" height="108.68919895597006" version="1.1" width="99.34165315206135" xmlns="http://www.w3.org/2000/svg" xmlns:ev="http://www.w3.org/2001/xml-events" xmlns:xlink="http://www.w3.org/1999/xlink"><defs /><rect fill="white" height="108.68919895597006" width="99.34165315206135" x="0" y="0" /><path d="M25,25 m0.0,0.0 m18.175872697499173,21.217744427396095 l0.540195118762161,0.3269798163522426 0.5284948874085149,0.7538681339791234 l0.1623537100935607,1.036421990552021 -0.10362009604467706,18.083360827573323 m0.6963362279911576,-10.168874580337246 l6.317895040020208,-0.9951368427908613 m-16.134469343473842,-1.0155776098270795 l0.7224842138962126,0.6809738828909935 0.286259766749362,0.814088726124183 l0.1582532259503142,12.01173984324779 m-4.183381109613431,0.8886606613469492 l1.0464972312758352,0.3042669990342492 2.1080537416585576,-0.22290251374313322 l15.772112589997642,-5.489708766051079 m19.222751562649808,-15.692860008509601 l-0.4117040840718678,0.8705145837536458 -2.6258655828721644,1.8427159396583965 l-3.623698131352552,1.8032988064446636 -4.014756506939534,1.4560805469331777 m-2.1717708132947595,-9.895217777640099 l0.5626550561810911,0.6288322699183563 0.230143507503102,0.8983531380183214 l0.051419089132034024,14.183971522296913 0.33962451666524685,1.1116958475473941 l0.8805102238319141,0.854008720096055 1.54743604615205,0.5682262190740173 l2.849716629703799,0.2932972294805709 4.6725721747899795,0.0010465047486515693 l3.1021293195318393,-0.33602398138754086 1.2250201060336081,-0.4478330029254281 l0.9576689771627881,-0.8105152798023793 0.37241632738697056,-1.141112727416875 l0.08204683169723882,-1.633476730466417 m-34.82293865806016,10.251686228420926 l1.5595376823344491,0.18831386991497634 1.8102919712459553,-0.03595611622351638 l24.218337206258003,-2.051174987835888 1.6868394894664418,0.16301359532130785 m-16.422863176007937,2.179920783386484 l0.5089829981815018,1.2969591220149983 0.0670762405388618,12.04777340845912 l-0.15033216015778597,1.3229589982036856 -0.3888340906727979,0.5447972387385679 l-0.5959326094036083,-0.021209764934535257 -2.393472978370114,-1.8715505869204623 m-7.2689689893429685,-8.395348579308767 l-0.07178770522843651,0.8816661805283316 -0.38622374816238136,0.7310275383131082 l-1.9891868397862262,2.2573043431950333 -3.05163440953572,2.5294306927959473 l-3.3696606763310903,2.2284430482545172 m29.776236575263567,-8.683327996640015 l2.3124187734103625,1.5835469548525822 2.501354859433887,2.2384167397981396 l2.0151331043714347,2.29768814542043 1.1440896361792423,1.9405842835830214 " fill="none" stroke="black" stroke-width="1" /></svg>