<?xml version="1.0" encoding="utf-8" ?>
<svg baseProfile="full" height="126.41063635227931" version="1.1" width="107.56830510775713" xmlns="http://www.w3.org/2000/svg" xmlns:ev="http://www.w3.org/2001/xml-events" xmlns:xlink="http://www.w3.org/1999/xlink"><defs /><rect fill="white" height="126.41063635227931" width="107.56830510775713" x="0" y="0" /><path d="M25,25 m0.0,0.0 m21.872580648437143,7.2179520922591305 l0.06453790539366938,0.48604126910269624 -0.35007848630172517,1.104989561578991 l-4.551916387482915,5.01622757439187 -4.108566612043947,3.047808284811783 l-5.180337370009151,3.271269845874661 m1.1589987813785771,8.489447172366301 l0.8241189186216084,0.17997514881418009 1.3872252193839734,-0.175116626566816 l12.844757572519065,-2.605825923666505 m-6.455981134005855,-9.023989521004578 l0.5407211933534061,1.2255291562587325 0.14693083522124917,1.3628320823430355 l-0.05184723398123086,43.79621804898232 m-0.27549192575749987,-35.079440867539404 l-0.24800115977890974,1.845325521767602 -0.8786671803341365,2.760993278709131 l-2.7415899961344294,6.752557141130843 -3.0858580398457907,5.9484977210745535 l-3.9040900889085983,5.923959811212989 m13.148792491448331,-17.63947969621743 l2.2275783144051062,2.2564236444734798 2.577691240739487,4.010745974595654 m10.589920837779717,-31.35996523447065 l0.3850348105530617,1.1848993877390948 -0.052843675954399316,1.2476436240563138 l-1.8336301032980566,5.909217213354753 -2.5274572350970996,5.773454318194243 l-2.8926819440096763,4.799502483653157 m6.086633919483426,-7.822452881731013 l2.7867327969278834,-0.3635260591455236 11.23057255828351,-2.705532243597478 l2.7039749000213584,-0.006671319244764863 m-19.129020724241112,10.426278750579613 l0.7147286317755288,1.1292949520667572 0.23031940718730085,1.146249235215487 l-1.0374055957442545,21.956516941077904 -1.1194543968702633,4.75682235490584 l-1.3740505842480866,6.471786791826913 -1.3466615117917298,5.522486254302851 l-1.6590760924750583,4.825312721406691 -1.6785174099765248,3.3463783673359058 m7.066512342204552,-41.585471446210036 l13.312171438915197,-3.152020583346973 0.6646804738975601,0.16900241462896268 l1.1380774049992763,0.972191144409934 0.3702836056894281,1.609204887728819 l-0.04303754794986965,31.03568125926894 0.3367994351556622,3.0991397013956354 l0.5178685571801662,1.590526012157975 0.6195851181782688,1.0919112627520269 l1.6041102200488977,0.7490261744707056 2.9891585141792834,0.0961855888455529 l2.190668686933653,-0.40612830005334843 0.8470589837938961,-0.5380659891199323 l0.6942846097059021,-1.3938450749900033 0.22145717020228833,-4.229032454649105 m-19.08015073702791,-19.733823426973622 l11.43917252324015,2.3774856152202446 2.0978496324279603,0.9329649810667852 " fill="none" stroke="black" stroke-width="1" /></svg>