<?xml version="1.0" encoding="utf-8" ?>
<svg baseProfile="full" height="111.23198511080857" version="1.1" width="98.57862158319756" xmlns="http://www.w3.org/2000/svg" xmlns:ev="http://www.w3.org/2001/xml-events" xmlns:xlink="http://www.w3.org/1999/xlink"><defs /><rect fill="white" height="111.23198511080857" width="98.57862158319756" x="0" y="0" /><path d="M25,25 m0.0,0.0 m28.037600255737267,6.584622920378408 l0.028858240801673252,0.44462106448531613 0.0063842644571247805,1.8527029180925039 l-0.42918692100256756,2.0519532806653227 -2.669036685435037,15.627173752841163 l-0.8470617603706498,9.551662764223943 0.8394278833614782,8.067571877049861 l1.021713184508715,4.314809801321575 1.2399241132053178,3.6922022513383546 l1.3992048427041754,3.419550959679322 1.5076029643246769,2.8470727015583575 l3.5677402270107996,2.366441137452328 2.9604189349498977,0.41159968172211636 l2.2316382123104694,-0.11430377202169235 2.1697998938380825,-0.5737670703692952 l2.0828264940541166,-1.1837719419997865 1.9430014549953147,-2.0181780239035754 l1.7806857458620045,-3.64499080536757 0.9255314411174073,-3.2799232059601677 l0.5308855588042735,-2.9322595395720312 0.24033344785675542,-3.620443256543178 l0.010329790106262306,-4.082244711535785 -0.4039959952279327,-4.421150482402965 l-0.8406970376528697,-4.264898528163737 -1.2869260371207714,-3.688519005018709 l-1.7101550489806476,-3.0121452216748703 -2.1363486259818245,-2.2980954558404942 l-2.2149796599694347,-1.5642049534756712 -2.576700571732219,-0.8566009871906836 l-2.5842497237544317,-0.11902856443094266 " fill="none" stroke="black" stroke-width="1" /></svg>