<?xml version="1.0" encoding="utf-8" ?>
<svg baseProfile="full" height="101.78248474389076" version="1.1" width="95.14780548442596" xmlns="http://www.w3.org/2000/svg" xmlns:ev="http://www.w3.org/2001/xml-events" xmlns:xlink="http://www.w3.org/1999/xlink"><defs /><rect fill="white" height="101.78248474389076" width="95.14780548442596" x="0" y="0" /><path d="M25.165575493988783,25 m0.0,0.0 m3.8933740438447755,12.882845669527534 l0.22625118649409187,0.37950856649439463 0.362098572986512,1.392513354050108 l-0.003287549209132108,9.570094125502857 -0.1896218456598739,5.702051279378 l-0.49536006596395055,5.753657852595356 -0.620119293956373,4.938795120293517 l-0.9269917660341798,4.6733295521602685 -1.12779694181864,3.235437901310708 l-1.2841218346720122,2.434038559600588 m5.16325310419679,-38.33962915129606 l7.452214722492824,-1.3946391834804528 0.7808121274223397,0.44915707513848413 l0.3471287112102901,0.9633713159463201 -0.2799219734014633,36.797433707740694 l-0.3332024200460927,1.4985594308646943 -0.4764090867022045,0.7204440251262593 l-0.5809605497238279,0.12551554293748474 -1.2784435341208074,-0.864865170220106 l-1.3083869177154965,-1.6747627051516658 m-4.5594911763396455,-26.380261661072428 l8.261325572320894,-1.1426448041945243 m-8.45726277270957,10.757512284823633 l8.384842786638098,-1.0603873046356354 m15.443960273041363,-22.5046212735637 l2.361485627688031,1.5274817583092288 1.5013338903769962,2.046187891904289 m-11.940691739691191,2.7402931231224947 l-0.5829438714933344,3.87361429276445 -1.1651933379704897,4.24954173518729 m2.3643721912029956,-6.63958437212506 l19.109052271307306,-1.826919370700379 2.858078681855618,-0.2152616076362105 l1.235563698010067,0.1274189672663728 0.8472892065764764,0.7228871809694193 l-0.13908760767481834,0.5740734562301519 -1.013284128959903,1.250466465513305 l-1.733222110835251,1.49943974912582 m-19.871056360403045,4.158752372678946 l2.3476996407539974,0.7085134316347366 15.226392986842535,-1.8051619570082174 l2.203111232966856,0.17350253685499323 m-12.859172219248668,1.9718867400685882 l0.0424290006406621,0.35652565521321017 -0.3466268035203286,0.7146185118320059 l-5.679323489270387,5.474489268062886 -0.6495601584763128,0.863560450456808 l0.08029182256782491,0.4158681594511278 2.044966227702471,-0.24135395050651529 l15.224028550327315,-2.8645334153822697 m-4.006240583521962,-4.245731590603017 l2.3739588166393517,1.8729315769448776 2.2295687525235257,2.4783339772973725 l1.7659586691115992,2.6080064219708645 0.8123545847733585,1.9595219171371183 m-21.709292235073764,0.2390568240726585 l0.3451337040359526,0.8470955922923488 0.19918371090080772,1.010620901888902 l-0.6604452407703045,3.360239953775553 -1.133347537121846,3.3143765053924517 l-2.2613854762351413,3.4698466603559623 -3.4051190964733373,1.7692176380034415 l-2.757875051215514,0.8621957704340611 m18.07645498449834,-15.374499211326695 l0.42012992449797343,0.9948709512928248 0.10117101166494788,1.1297513233690664 l0.12715946899030378,10.315465199668195 0.4469817606572522,1.764622749698338 l0.7241256483071504,0.7970926648425116 1.5006669699538915,0.5054385844273582 l2.332016885730206,0.1794244124377398 3.607921734122962,-0.07101908183382008 l2.29665536937654,-0.4258870211558377 0.8296311919292162,-0.4606854528160554 l0.5026282794240136,-0.6732362415857862 0.2579976171193958,-0.9732505128016823 " fill="none" stroke="black" stroke-width="1" /></svg>