<?xml version="1.0" encoding="utf-8" ?>
<svg baseProfile="full" height="114.56369940795184" version="1.1" width="124.91731170952187" xmlns="http://www.w3.org/2000/svg" xmlns:ev="http://www.w3.org/2001/xml-events" xmlns:xlink="http://www.w3.org/1999/xlink"><defs /><rect fill="white" height="114.56369940795184" width="124.91731170952187" x="0" y="0" /><path d="M25,25 m0.0,0.0 m22.97185659679652,1.4140729723929617 l0.04155900183591415,0.5111359510634508 0.006806051203607361,2.6604369835943795 l-1.756257967978267,7.428015931072901 -1.4901815145467197,6.760241285279995 l-1.9075788611038704,6.630154323469752 -1.93410699925557,4.814135830001187 l-2.4469946735095296,8.909763682306627 0.4739616617419543,5.0425194427958795 l5.795029944047455,5.838249925548467 4.119152334036802,2.941539044366134 l6.406728150753867,1.9182256235104682 5.676841718323884,1.0091033227716835 l2.5612643592205284,0.8037575799763502 2.3576364686322604,0.9478336259661047 l2.3100534542796325,0.9320530982800681 2.3147175317855697,0.7974006641892837 l2.744193940428971,0.7183305492600031 2.5394763943085574,0.5559656403496064 l2.359404826645991,0.3884911417992155 2.411908485916999,0.23953378523409993 l2.4718486668893926,-0.004631875513076526 2.518170893025742,-0.24443056970053764 l2.639277764601509,-0.725871193053784 2.4117716870451424,-1.224971438797013 l2.303264319496167,-1.7160584015826168 2.4235371988982006,-2.2562743208409075 l2.2581457503099203,-3.3384356480557265 1.3530406922956089,-3.414896517012581 l0.8289571497851176,-4.203217059512778 0.15382668361051946,-4.178488626387081 l-0.3533981217674438,-27.863906668519384 -19.23175003263578,-0.8683807632809504 l-10.150279946593743,1.487585386830253 m11.118704587974019,35.81054010206811 l2.050995048538609,13.635411643206439 0.18488274310502698,2.408764954874869 " fill="none" stroke="black" stroke-width="1" /></svg>