<?xml version="1.0" encoding="utf-8" ?>
<svg baseProfile="full" height="102.65351281069991" version="1.1" width="102.31534193475086" xmlns="http://www.w3.org/2000/svg" xmlns:ev="http://www.w3.org/2001/xml-events" xmlns:xlink="http://www.w3.org/1999/xlink"><defs /><rect fill="white" height="102.65351281069991" width="102.31534193475086" x="0" y="0" /><path d="M25,25 m0.0,0.0 m6.435347356059766,19.52372690557813 l0.40163591517297936,0.11128684803657082 2.4259584762812625,-0.006428089203928537 l11.635857712625404,-2.215961387528669 1.9538022757812594,-0.07376232939891135 m-7.445620163077577,-11.794596830053615 l0.8049315249065797,1.253796007819972 0.21300950601913413,1.7535811524956464 l-0.029754284639453312,44.101870532954706 m-0.5387110278415866,-33.36724638868407 l-0.5360625227536701,2.536487646817703 -3.3726859606770523,7.4608531735882 l-2.9324510193465705,5.029276540702516 -3.3337484073241033,4.879764661736414 m12.43090649330032,-15.444719301989686 l2.208860741867917,2.043610262181546 2.476721851948609,3.011677882922612 m2.4900534387397086,-17.645357061446028 l2.3707397090412963,0.16686107865061045 14.934926693344991,-2.115969551383723 l3.63572099020356,-0.2777273683597999 1.9612420561448825,0.12764997723364058 m-17.860176109768116,-5.392942212093869 l0.6349433663081423,1.2072958543966263 1.1151309161765763,1.1108576650955686 l1.4357775416718033,2.195475032026452 m8.197162698771248,-7.2973128183797265 l0.10340887931479512,1.4195094592753688 -1.1889487992674115,6.65444564201769 m-12.73031330629782,3.151171908076056 l0.5426417608328439,2.8285784181819293 1.4124230440310985,9.613366788026493 m-1.182327799287619,-11.5072075889926 l16.735245410512736,-2.206222064759967 1.5587112522840543,-0.005028170073979062 l0.5146950384310365,0.27273679845644355 0.3354508968353152,0.37593671412860036 l0.1505127063917383,0.5078338157144388 -0.0679731875367159,0.6611127387731666 l-2.0830469552107913,9.918143264868256 m-16.270175330880807,-4.475793778505756 l17.400768077618366,-2.28793222252532 m-16.74793105984536,7.493189450404538 l8.20193070857553,-1.0522070740276674 7.136665595470948,-0.5921583526617249 m-21.48258532372161,8.067636578250212 l0.5825479637161204,0.21561491070397487 1.4942554179503826,0.03960431050687339 l21.814905368409317,-1.8909645250469347 2.8819253578689588,0.23569048723240232 l1.4890364496184574,0.3969561341520015 m-15.998318565751577,-18.090148723253503 l0.5548564442134104,0.7878622946582167 0.15899880596725693,0.8284031724545617 l-0.0057925410592020495,17.730181510613274 m-11.579783336994813,6.6999397677727766 l-0.3000271001355089,2.685262108673812 -0.8488705588185482,3.4466835580247013 m7.04340330766857,-7.107309099619604 l1.5536771871518806,2.5274606867574034 0.9076936981818221,2.964744679720004 m5.121240949732178,-5.719102642800089 l2.2506665810874624,2.3771926606608047 1.0245858535085406,2.1180893054702996 m4.5360610545470985,-5.13156932670774 l1.2942642986222355,1.1385720747053047 1.4246268059193674,1.842187233419423 l1.1113210830291624,1.9324642301029293 0.44832089645186207,1.1936442770857276 " fill="none" stroke="black" stroke-width="1" /></svg>