<?xml version="1.0" encoding="utf-8" ?>
<svg baseProfile="full" height="107.33734386465865" version="1.1" width="101.44528748986951" xmlns="http://www.w3.org/2000/svg" xmlns:ev="http://www.w3.org/2001/xml-events" xmlns:xlink="http://www.w3.org/1999/xlink"><defs /><rect fill="white" height="107.33734386465865" width="101.44528748986951" x="0" y="0" /><path d="M25,25 m0.0,0.0 m7.789974095225607,10.8678211677959 l0.1903763058717318,0.47316527221267407 0.383031587166037,1.5685155405674411 l-0.04302888109618768,11.24551641751626 -0.18339970288951055,6.182476869056584 l-0.5658656538938744,6.799530995660654 -0.6354868777737073,3.632548247169709 l-0.8932397624996021,3.157395177793295 -1.3546260833742831,3.23838416033684 l-1.916028279764839,3.4825255808624727 m6.304269559626629,-39.40493224102023 l8.362059346919825,-1.3643574861913517 1.4545828288020872,0.2456002623308307 l0.5743192306144251,0.7716514354112566 -0.4252272736445394,37.96484653517053 l-0.4051270985734049,1.1895388399649935 -0.5828539892439448,0.5395452622361306 l-0.6954442387022737,0.017498211530952445 -1.461492097540954,-0.9123714067339869 l-1.7200759233866592,-1.5801019528410234 m-5.47927204769686,-26.40064975899044 l6.488222234817831,-0.6431175747208426 m-6.417678542345107,10.634473989298582 l6.210852379002045,-0.5668846685137187 m13.67575947595337,-24.315101568875782 l-0.21046935470777933,2.633324191712254 -1.286872022680942,3.1717028057863685 l-1.518517959669264,2.660723572193097 -2.8659787296320918,3.575279514395964 l0.028395248362801575,1.2409672978860584 m4.0110787319837575,-15.36064514468783 l11.288959171372,-1.0772896087169253 1.1570013104962484,0.15525955720697315 l0.6455239206864972,0.4539503882229832 0.12476067036065862,1.246045410334611 l-3.227963502312623,6.066975470930409 -3.1730871613422322,3.415250719524893 m-10.40448184157181,0.4938586852088864 l2.1659460745664934,0.24337320856363498 2.4219761089134226,-0.030545217427845626 l19.120400216933938,-2.145861354112079 2.3271109098457994,0.29177505683432803 m-23.68530478592929,2.3954609333226515 l0.6040163489239303,11.32581749051326 -0.34865461221421984,10.351962706007924 l-1.1988278690466545,6.492243484472129 -1.0722012485771657,2.8156036382215137 l-1.6856296810328615,2.618827060076864 -2.0551758771211572,2.2278135409024875 m14.67472961045661,-32.47562167253387 l0.047455317203319664,1.903723742659244 -0.7561967140953838,2.8607064702712637 l-1.1074676105245502,2.343645386218267 -1.5583849019505054,1.9544900059035248 m10.08090962733743,-9.954075754703723 l0.7739954776526853,0.8904161206546181 0.15823554019196842,0.582292870795949 l-0.10469151901096242,3.955710413555015 0.5225947031705311,1.1253837954608144 l1.743190913641726,0.3542774212453862 3.6298583189305,0.017025970240171155 l2.0279504279063145,-0.12033553894242652 1.4965036407785106,-0.33652009356416557 m-15.853519201680385,1.0549546049575516 l2.6285353527864297,1.982083398670762 1.5753779013983997,2.0231895035421945 m-10.91600464901648,3.448475171981441 l1.9212675659708836,0.1904288314540534 1.7290291310616535,0.018392429928612963 l15.215376355975492,-1.5801102097289914 1.9981379471314855,0.16854203964732473 m-18.66866347675441,5.914320944918973 l1.9338191609397897,0.5339520723105675 9.456975668847607,-0.9001076666880544 l2.998421484773045,0.039144555517231804 m-14.392915654624208,5.190167211740669 l1.809150938510622,0.34573403985809104 10.059208146728555,-1.0254324749643626 l1.7710825120460718,0.052097107897768384 m-15.568020663118507,5.325189154955724 l1.0092487194271649,1.62776274045924 1.145872180604746,7.742050556539445 m-0.7970855758160762,-8.724945594806961 l15.563802614652769,-1.5459860842503221 0.7722844211721437,0.5989330646500228 l0.07304339679607467,0.40739475231013544 -1.8267170498942624,6.393375036920775 m-13.442263351374413,1.2031446105491381 l14.696878190043702,-1.152894450425848 " fill="none" stroke="black" stroke-width="1" /></svg>