<?xml version="1.0" encoding="utf-8" ?>
<svg baseProfile="full" height="108.93822250185515" version="1.1" width="108.44295624935076" xmlns="http://www.w3.org/2000/svg" xmlns:ev="http://www.w3.org/2001/xml-events" xmlns:xlink="http://www.w3.org/1999/xlink"><defs /><rect fill="white" height="108.93822250185515" width="108.44295624935076" x="0" y="0" /><path d="M25,25 m0.0,0.0 m9.65028215741444,12.870372301672246 l0.325445108190095,0.5156749134399369 0.35623797004996327,1.5687953165850304 l-0.004418403089035896,12.421976082093177 -0.22653725351878262,7.156255429176646 l-0.5213816713297159,6.589921434899055 -0.744603897501237,5.61990974086469 l-2.213986449963323,4.87892568637945 -1.8487325148022422,1.966402465687387 m6.387620354861252,-40.73351687240843 l8.305914214496324,-1.5110463928598563 1.3350637765614133,0.24364091387387962 l0.5483310246131884,0.3488863194869844 0.45121410060872436,0.9815289241294946 l-0.10982681783203158,39.9030621616284 -0.445089709401551,1.19476232989918 l-0.6155554354885865,0.44564151189892387 -0.7295132570602177,-0.10881475445449683 l-2.80262863229807,-2.4359639276882117 m-5.555302363450836,-27.626341899300265 l9.582361912401364,-1.0360802624534509 m-10.157688798700867,11.823055716427586 l10.161412066383416,-1.0406619598728428 m10.133531352632238,-21.824921961566737 l1.4471863331704062,1.4726864790299339 1.4968600906595146,2.0901411038525555 l1.542422727079035,3.5031815335986805 m12.700262962453559,-10.022218839790304 l-0.22623305654843653,1.8313975464814969 -1.3408989795395443,3.103300142879051 l-3.8984826567705544,6.73153150791202 m-13.777611765399072,2.1250151911066935 l0.5623325048788226,0.49691006651390185 0.41309195931992737,2.6422589756830708 l1.5848473210607832,10.868651228460495 m-1.2749050328977167,-13.250001108619122 l19.275920749213622,-2.104834514919091 2.0169072783095285,0.07879220888554746 l0.9303282978936,0.7712310170854125 0.11385474129189839,1.4262334479279783 l-2.1708573066477204,9.214181551247819 m-18.333080515604955,2.2811428702449916 l19.053697563274884,-1.4727468772363674 m-14.45665135403121,5.462100512490354 l-0.06509042371790043,1.852577171126615 -0.8119473426085052,2.5428864090899963 l-1.3598440331002004,2.9886148537746875 -1.833212832106289,3.1613576775904506 l-1.8587691086853593,2.6303401243588453 -2.154674814525017,2.4992772724655112 l-2.442066922842879,2.274496755208496 -2.0829944687389466,1.5282549778676686 m19.288742876910167,-22.07002805894558 l0.4859882965945736,0.7375792763814193 0.2160569106744015,1.4243928353250779 l-0.08323815128531192,15.51473077127202 0.37141547359898774,2.014504266232621 l0.7818877818200571,1.176698115765414 1.370009211202325,0.7660980808014426 l2.1789121253427512,0.35941682904416256 4.407426753944722,0.045165352071462474 l2.7383254621226127,-0.3875249786423949 1.076263119196393,-0.4589779943357572 l0.9081680091176187,-1.0845286539248498 0.28081614099283264,-1.0716013339364479 l0.10964149050144319,-2.0785367097752108 " fill="none" stroke="black" stroke-width="1" /></svg>