<?xml version="1.0" encoding="utf-8" ?>
<svg baseProfile="full" height="105.45535973186837" version="1.1" width="103.16804144947577" xmlns="http://www.w3.org/2000/svg" xmlns:ev="http://www.w3.org/2001/xml-events" xmlns:xlink="http://www.w3.org/1999/xlink"><defs /><rect fill="white" height="105.45535973186837" width="103.16804144947577" x="0" y="0" /><path d="M25,25 m0.0,0.0 m7.000957290137972,20.227231405219637 l0.49777381645617225,0.08659324677308501 2.7981436399699966,-0.05419846174888407 l9.448780211514773,-2.1145283299913764 2.075934435284257,-0.0620159123576182 m-7.164307242487352,-11.609550762919735 l0.7214625410268162,1.330016579132536 0.18501274502634904,1.7624636570088172 l-0.003962610746673898,42.164838316294 -0.26754697951709544,2.264321610214619 l-0.40242251858442024,1.1304914332991653 -0.5132920043520758,0.3296969509441322 l-0.589785415815294,-0.24662710421571124 -1.9901790691207093,-2.306520389018234 m-5.7465162313883145,-13.534046461850227 l0.8614695988096838,0.3907473581222645 1.3842913050335732,-0.2625466403266326 l11.932906821652063,-8.429646072031504 m6.5816114766285265,-23.418903967828886 l2.7258567684612087,0.30343428995594746 14.24257020377465,-2.33434765305398 l2.455866110477662,0.0031606828234252496 0.49126923067492406,0.8450459675938378 l-0.0672445445428859,0.8142939454007128 -1.5564444360634422,6.659628270897829 m-16.820295152070496,2.759574836898425 l17.69343292430803,-2.147606782841609 m-18.33292619944394,-6.982696424464961 l0.5665473910076106,1.4018791364543772 -0.13819958287103654,7.701764410523269 l-0.42583053817168,6.386579305565254 -0.8829524030750909,6.594427437441751 l-1.079677624316721,5.199263504496323 -1.1975504421519718,3.9984307318581656 l-2.1169522742928777,4.959851086474014 -2.1170315061239418,3.6542225771036976 m10.292311565545273,-26.438798097273963 l1.9794330794262243,0.1655921383252146 13.527160930182234,-2.3379555318077547 l2.468262767244301,0.048544520069534434 m-10.108409904609475,3.01682424934442 l-0.10916791848396067,0.6232271740919666 -0.5835802544422446,1.030229758514975 l-2.8241251415919555,3.2020461127552178 -3.315992706712777,3.5332908979248767 l0.2040404378963936,0.6101416923119846 1.0371633229014303,0.011161611930113812 l13.76685257097414,-3.267639259164728 m-2.2223961837106496,-3.10115444719622 l1.1541247801011523,1.1090121041451175 1.545361261983252,2.0825056864427247 l1.2850611062116752,2.256960634929132 0.5048096346743604,1.4199342515387285 m-19.499175212472885,8.64992592667893 l2.0135249891521343,0.15692102499748287 13.428930860549762,-1.6442256735954546 l4.528524030984001,-0.11700459427889069 m-11.135419782766755,-6.204637961651978 l0.5089330134809749,0.9966420291293201 0.18288841089385685,1.078976566857143 l-0.03171719965094235,13.989801229108275 m-13.630334205288545,1.3210948319117573 l3.335105689104958,0.33439188931919384 10.143018487266652,-1.094900954537526 l12.043749067859608,-0.5950921872601548 2.4283342176653053,0.37670752167746596 " fill="none" stroke="black" stroke-width="1" /></svg>