<?xml version="1.0" encoding="utf-8" ?>
<svg baseProfile="full" height="101.59386579228456" version="1.1" width="91.12218264059175" xmlns="http://www.w3.org/2000/svg" xmlns:ev="http://www.w3.org/2001/xml-events" xmlns:xlink="http://www.w3.org/1999/xlink"><defs /><rect fill="white" height="101.59386579228456" width="91.12218264059175" x="0" y="0" /><path d="M25,25 m0.0,0.0 m25.34642389609623,3.7185092804923756 l-0.016773751545629163,0.4921144070481907 -0.5358719109203643,0.8905361104047624 l-1.3964867011930873,3.1477493371730936 -1.9766368961722443,3.9515909231135793 m-6.524672782556419,0.9867040530356675 l0.5185714077576357,0.8915615813227514 0.2527785857077087,1.0292782488115142 l1.1623476222180729,14.641047865736986 m-1.0418574744042681,-15.733081909989787 l18.54724998535932,-2.24653683419943 1.1255140491701277,0.30256861576025196 l0.5624680037507884,0.8800956389200572 0.052789009157961746,1.447603583013527 l-2.167121213522485,13.092500190559475 m-17.140810112519194,-6.84004154248262 l12.001036251135563,-1.5388642172272595 m-11.193268658021621,8.623865140573677 l16.040528879370928,-1.5661050051771135 m-17.79395771143222,3.5430092577922254 l0.040567808707258776,1.9688761338826422 -1.2527440346808538,4.525128158768046 l-1.5512515122917987,3.9426019322531674 -1.8829842539056008,3.965795929684397 l-1.6951608251281298,2.9353664597801923 -1.9609280486012914,2.6955094127946064 l-2.368050871192032,1.8464830404395873 m17.214620151212866,-21.988262935296785 l0.4439386189916686,1.1497575837810732 0.157388839369453,1.087057738195308 l0.266608807440081,15.145599193231583 0.47975785066579435,1.3275779745815786 l0.995698214791478,0.9466550044922407 1.8149918358009336,0.5792059860549669 l2.6632519101127032,0.20333625024864424 6.422493662170921,-0.08468907319883257 l3.2381657587964283,-0.42526774068620693 1.1648123112705402,-0.5323993872612737 l0.8062052391299371,-1.1372781354983634 0.22533720000863164,-1.3866011652638994 l0.0772135004859546,-2.555389123530672 " fill="none" stroke="black" stroke-width="1" /></svg>