<?xml version="1.0" encoding="utf-8" ?>
<svg baseProfile="full" height="103.6997541542292" version="1.1" width="104.9648572175238" xmlns="http://www.w3.org/2000/svg" xmlns:ev="http://www.w3.org/2001/xml-events" xmlns:xlink="http://www.w3.org/1999/xlink"><defs /><rect fill="white" height="103.6997541542292" width="104.9648572175238" x="0" y="0" /><path d="M29.82270898169945,25 m0.0,0.0 m6.076916258965768,9.670205745923603 l0.39410099995215303,0.3221500406434612 2.784838014537644,0.7817439441795634 l28.57239241370412,-3.3154417813710815 1.4198774766995286,-0.1605089149256407 l1.687297949531058,0.539300977531983 0.5312308913727173,0.5856567719662934 l0.16364745231326291,1.962312871616705 -0.5951449058669686,5.270758844065302 l-0.5319673625361417,8.535010048242468 -0.03708701466599658,7.752057254770173 l0.7743547925307767,6.8025798708992795 1.1464733391469033,4.265725098919383 l1.606832641719268,3.9479235261390286 1.8821585435212336,3.624487439989407 l3.2313273011747605,3.11579241563927 0.5519399624035498,-0.34079172783970824 l0.41722784958743864,-1.7163037465056543 0.06573163173329064,-4.356837719897755 m-22.045320113411204,-31.12267246028129 l-0.10459229251254203,1.1272726494898444 -0.9234034824098064,1.0590563420401335 l-2.2099680096168095,2.3285150587153005 -2.6960887907150233,6.734464237712558 l-2.170259450034423,4.85716236492806 -1.6282178277777648,3.297254140122229 l-1.8630797833980797,3.256939461936606 -2.1267906604690943,3.259445588740979 l-2.4902461710013246,3.3013587442971817 m-0.47045545088809937,-21.567267647353667 l4.337507452948067,2.3768186273382206 4.085569654394697,3.366701521039357 l3.330299998178961,3.7087312073650116 2.1278130616208437,4.283907610181609 m-21.311870527149537,-18.95735888478714 l0.7336451049951526,1.1897973548669132 0.2543111423354778,2.044703962974822 l-0.16727275194862046,29.653581385493663 m-9.62643832066468,1.0335138186850885 l0.7962679784155879,0.5408526104983317 1.5626906270528813,0.19245351368020888 l13.893330086959374,-1.576950749102111 8.751416004980372,-0.8495860746632616 l3.5421979396157077,-0.12518776287111136 2.5349492695956997,0.42616722812767055 " fill="none" stroke="black" stroke-width="1" /></svg>