<?xml version="1.0" encoding="utf-8" ?>
<svg baseProfile="full" height="138.83170526237515" version="1.1" width="92.76637356377634" xmlns="http://www.w3.org/2000/svg" xmlns:ev="http://www.w3.org/2001/xml-events" xmlns:xlink="http://www.w3.org/1999/xlink"><defs /><rect fill="white" height="138.83170526237515" width="92.76637356377634" x="0" y="0" /><path d="M25,25 m0.0,0.0 m30.861362499536067,2.9228919330000505 l0.05530192548462494,0.4796197151450142 0.02079461618219478,2.174111513630083 l-0.5192618916994913,16.34366068950713 -0.18804452495655752,4.3824954247848185 l0.14166004508439178,4.103169502719837 0.4809770343409538,3.6233063800025587 l0.6826770161745355,2.8541085040227214 0.8424845075467983,2.702633204615175 l1.100238262149212,2.8586704042334965 1.3458424030005252,3.07373137167339 l1.489630264488522,2.9975387793825203 1.4772464920112054,3.010742752445812 l1.4762101477949523,3.126711497931143 1.3642872109248494,3.8738447374624565 l1.0687358574892474,4.762261578549237 0.7446253066534314,5.94240713701304 l0.3216063915708864,10.926621254284656 -1.1645566193939099,4.041412606377908 l-1.475334802132486,1.8954749980453705 -2.025114116231291,1.635101318562913 l-5.83759924054379,1.1011899589858205 -3.368533232144406,-0.6733601125849348 l-2.7324665869739477,-1.516453156567611 -1.8749623085963245,-1.796681870920137 l-1.9231455474795727,-2.175209628260261 -1.6799924134383504,-2.2471554441892065 l-1.0731426713647358,-2.895664105951262 -0.5860511657955811,-3.636077259137908 " fill="none" stroke="black" stroke-width="1" /></svg>