<?xml version="1.0" encoding="utf-8" ?>
<svg baseProfile="full" height="94.51031367851462" version="1.1" width="91.64419915253531" xmlns="http://www.w3.org/2000/svg" xmlns:ev="http://www.w3.org/2001/xml-events" xmlns:xlink="http://www.w3.org/1999/xlink"><defs /><rect fill="white" height="94.51031367851462" width="91.64419915253531" x="0" y="0" /><path d="M26.694620290038642,25 m0.0,0.0 m22.49280454810299,3.7831420147206942 l-0.016611675078354298,0.3821172322905905 -0.4462220206905958,0.7028004900351762 l-1.3956927945408033,2.499392924389572 -2.1706247152884974,3.1058028902227397 l-2.2569807259140697,2.3532217389002708 m-5.44349267396791,0.2862481109389226 l0.5634965892961813,0.957557575063914 0.26418660441398634,0.9146696445458774 l1.347867980529966,22.34196446268091 m-1.1033149907371749,-23.405867260858695 l23.028632845919155,-2.458702051678004 1.3608478166500693,0.166726296542229 l0.7207033472642816,0.5479260982762216 0.22866791330086442,1.002751690375847 l-0.07706740280633591,23.16467209612532 -0.4206338408826052,6.109010250939857 l-0.34535229611199464,1.2793504272640117 -0.42204874271253756,0.6080239791362146 l-0.4708643469905403,0.1695050686029547 -0.48696976628984023,-0.19229183420896667 l-0.49086261432462114,-1.0159386654917724 -1.356989147509552,-2.6498882410120603 m-14.475423673015344,-28.595693010702153 l0.5066726834154297,0.9456212206719575 0.13968157668691464,3.2549594559253636 l0.5465366503186955,20.63056075265582 m8.021780316103833,-25.196191337946935 l0.4372992960566586,1.2384653242798502 0.051352508287023216,0.6842062780001169 l-1.0088266102891952,23.117692019461085 m-29.017172929234725,5.586181916497459 l1.3428839457390345,0.43368671825403093 1.8655091401379238,0.11942684890449554 l17.824886374196584,-1.4588650223657202 13.465509285866192,-0.7505070856220636 l4.365209633960304,0.00031967723100930195 2.780200772635269,0.43161715557818336 " fill="none" stroke="black" stroke-width="1" /></svg>