<?xml version="1.0" encoding="utf-8" ?>
<svg baseProfile="full" height="83.74456652679598" version="1.1" width="88.474030090123" xmlns="http://www.w3.org/2000/svg" xmlns:ev="http://www.w3.org/2001/xml-events" xmlns:xlink="http://www.w3.org/1999/xlink"><defs /><rect fill="white" height="83.74456652679598" width="88.474030090123" x="0" y="0" /><path d="M25,25 m0.0,0.0 m33.45016174823744,3.5880584895800083 l0.044159125276175944,0.44510915595994144 -0.00970524105180631,1.9132478998874514 l-0.5773771636069434,2.268307735864018 -3.230302306504832,15.164272867622854 l-2.1323788009656353,9.269815516038538 -2.2032807325486945,1.0957548618431672 l-1.4920946785718847,-0.24681568889846706 -1.9285864559580101,-2.07961370553893 m-6.066604452933821,-15.903021718255532 l1.129544103204952,0.6595121108976185 2.2499415184272915,-1.931661813728267 l7.2750375085041625,-2.4845271341922497 0.8095435339325696,0.29939505740018235 l0.35245150040101925,0.5108647690139634 0.034854758990946186,0.8478641502388584 l-0.4152050645114701,12.677468435919597 0.33492595240676715,1.835572507880913 l0.4618626696972895,1.9555169825573016 0.4935005752241703,1.2242093210150478 l0.4883248024884504,0.7574985256502139 0.7107019866210113,0.556070286955966 l1.402282027253261,0.3626289604374337 2.7455346502388993,0.09331532590716142 l2.3002920050889832,-0.23865652527148673 0.9986158703058474,-0.4541900961210867 l0.8309355879498267,-1.040366847520177 0.3928798345222915,-2.6608373129698135 l0.02401522800472301,-2.4588094435877474 " fill="none" stroke="black" stroke-width="1" /></svg>