<?xml version="1.0" encoding="utf-8" ?>
<svg baseProfile="full" height="108.3312810039176" version="1.1" width="115.50766758658128" xmlns="http://www.w3.org/2000/svg" xmlns:ev="http://www.w3.org/2001/xml-events" xmlns:xlink="http://www.w3.org/1999/xlink"><defs /><rect fill="white" height="108.3312810039176" width="115.50766758658128" x="0" y="0" /><path d="M25,25 m0.0,0.0 m7.852377378930984,11.154819872055528 l0.3944111409459615,0.48211362943340763 0.5585669038953548,1.5590331246649816 l0.02497645377859976,19.542366660259486 -0.5169068681141101,5.404061473989078 l-0.8090612966929941,5.082720281551343 -1.2629486052944268,5.287790525165093 l-1.6073749921999958,5.009113942500665 -2.0551415016272356,4.809261494298017 m6.993617272723143,-47.57569975996107 l10.110971926610945,-1.8255925565774096 1.5364529741261714,0.2670559138452479 l0.6211636229879799,0.9894402237811484 -0.439366883838173,45.819678153734834 l-0.45271152385747976,1.3520684201617585 -0.6588095815974346,0.5239681865849365 l-0.7852642064915695,-0.09273955881241393 -1.6652949043268612,-1.2357300752371192 l-1.9971798988917147,-1.8315385657719736 m-6.328614328041824,-31.565187635964627 l11.349500109202046,-1.1265802199819512 m-11.778964107665502,12.906446550853286 l11.830206413304708,-1.154590229879965 m9.210324268916647,-26.338189605638902 l0.6896211980763308,0.7086378359000356 0.474100085484742,1.2206048515559957 l0.32716336334895996,47.37243115541568 m0.2807402291151455,-46.61415885283327 l26.679678272304194,-2.5705952128188163 2.4458925333979336,0.10695619695581451 m-28.74806175035441,16.924550553046966 l21.46005174354927,-1.7883879834984842 2.797974485873541,-0.13251634993344794 l2.058761519016897,0.2204453222179288 0.9776936233777836,0.8755205360917793 l0.15266506964281984,1.530975713923603 -2.6247559958990827,11.554496087554526 m-24.520207161763043,3.5680633520150287 l20.83345766348411,-2.3657447474417346 6.0126842147778445,-0.2814148280607656 m-27.1730862543957,18.496381431723822 l15.34893120030195,-1.3133865238154476 11.609559069612422,-0.937205821719988 l3.905096689221733,-0.017915891909843815 2.3947780216246324,0.46856978884523287 " fill="none" stroke="black" stroke-width="1" /></svg>