<?xml version="1.0" encoding="utf-8" ?>
<svg baseProfile="full" height="106.74117536277058" version="1.1" width="109.59560485230921" xmlns="http://www.w3.org/2000/svg" xmlns:ev="http://www.w3.org/2001/xml-events" xmlns:xlink="http://www.w3.org/1999/xlink"><defs /><rect fill="white" height="106.74117536277058" width="109.59560485230921" x="0" y="0" /><path d="M25,25 m0.0,0.0 m9.53584551068445,12.70728316011966 l0.3864248969060742,0.39313339571258277 0.4621180765004258,1.3524546903824648 l0.008174197696732135,11.193029099553327 -0.3399399967048345,7.092952995249987 l-0.6555874339151443,5.763823167142121 -0.9870628898716702,5.088193702582939 l-1.3088810247863891,4.354293866651629 -1.7301838141901231,3.8587027338989843 l-1.6022052088276573,2.4219879444670904 m6.98561663854878,-42.01354785031719 l9.1484035639721,-1.8006399456519477 1.298674140203356,0.05912880233871546 l0.8144675266433871,0.29114170246712595 0.6733378286614429,0.9271441746669274 l-0.03642752664430186,39.614876997125286 -0.3876258025504148,1.1926480091330083 l-0.5301512389998686,0.5808887689842204 -0.6703015134586074,0.09888136439491758 l-1.551474458440087,-0.8956612718319527 -1.530785905427977,-1.5129594671854578 m-6.362713090249274,-27.742024032968086 l10.546954312766617,-1.1391671975757838 m-11.275820398427502,12.08815263238229 l11.057928190508948,-1.1404665150824453 m10.25446920315805,-22.107518745358295 l0.588103096839105,0.6830191903102989 0.25295129689412815,0.8790802412766482 l1.6472855222291818,13.630940564037749 m-1.3717897906835892,-14.991873280084802 l14.94170252515028,-1.899934574675694 2.015969428939997,0.2252275944401902 l0.6227528990452258,0.7593221286627342 0.09591708838442077,1.7556676850101696 l-0.939359426308077,8.518352751460121 -0.8616031622620838,4.362144578942847 m-14.744346325890788,-6.8179061096413855 l15.346832176029496,-1.6246784559166654 m-14.484509285692566,8.441508763693472 l13.385814928478078,-1.3216954226901234 m-21.6087760639093,8.097024249067246 l4.178204878106239,0.052487654359844024 24.23009240697873,-2.153190042361549 l4.097108876224223,0.038915104971675336 m-24.240732457631243,3.815335353126333 l-0.8561894035427328,1.6604316675183384 -2.2240814370454163,2.5847067354045725 l-2.730930244945038,2.367256237010155 -3.704283195371565,2.5954182816860207 m8.665233400712479,-4.280325683970845 l1.0736223255212605,0.24515127526485256 1.5693029545801513,-0.032931510599742975 l18.598248970732623,-1.7533942039186527 0.943122652050493,0.05087282464878123 l1.1412015951962635,0.611728266699745 0.2330639163946205,0.5400130577221823 l-0.061462954924628076,1.5673803485148552 -1.5696363014908659,5.133656879968747 l-2.3604237394187906,5.180609883184328 -2.6883942373711642,4.195040677367068 l-2.082857206898451,2.2101726187576554 -1.2136184276676703,0.6889078522412879 l-1.163508840487819,-0.03701633855932914 -1.7711374912285012,-1.3813473913929981 m-6.699707892359383,-15.265751204638438 l-0.24209195855404222,1.045830213836562 -0.5091762919230466,0.6849224291384528 l-2.9082874485144354,2.9023161340774566 -3.7053124010225296,2.5572409281893886 l-4.05447057181541,2.0806393769729317 m21.145429078282838,-9.930887283837802 l-0.08897196700318272,1.1486013823420276 -1.3736392674929028,2.3421023454830743 l-2.2858799720858514,2.7109141791776983 -2.6784309270604654,2.529907738913287 l-5.703982401703876,4.185489671236067 -6.637107740919937,3.499952159282397 " fill="none" stroke="black" stroke-width="1" /></svg>