<?xml version="1.0" encoding="utf-8" ?>
<svg baseProfile="full" height="112.80461865871126" version="1.1" width="99.13940343990268" xmlns="http://www.w3.org/2000/svg" xmlns:ev="http://www.w3.org/2001/xml-events" xmlns:xlink="http://www.w3.org/1999/xlink"><defs /><rect fill="white" height="112.80461865871126" width="99.13940343990268" x="0" y="0" /><path d="M25,25 m0.0,0.0 m12.408568028759728,4.160041101042332 l0.5012788960882519,0.1435370999164919 3.894580065540002,0.09545295045341143 l25.492313281711965,-2.3632046925601022 4.290253028800942,-0.1693047442703801 l2.5524101390018026,0.2547665836141841 m-20.22840562361136,3.1453296150708066 l0.003467714525374121,1.6344068929558657 -0.5531637327282793,1.3532715756192686 l-1.9918660867666345,3.753197870880929 -2.0974457752488522,4.300342976118898 l-5.310066357908838,9.24133891091709 -5.7551337065276975,8.311349328983827 l-3.5087135814902726,4.414953878121571 m17.703357527031613,-20.117485902185386 l2.8212507217339153,-0.06031328207360733 11.411368801283405,-1.9713162183350696 l1.4963612255224097,0.1810770070904194 0.5430736042767617,0.9051983632207591 l-0.20489817250405917,1.5244127661826303 -0.7122326066605057,1.9979036698262282 l-2.207478379859782,4.421586996395215 -3.2233586521855617,5.425933193230389 l-3.9852297710096978,5.788714902296614 -4.535578453103902,5.689827088572598 l-3.6129034766775736,3.946241437957906 -3.9374306439014597,6.833145320101824 l-6.631312121414315,6.475711954829603 -4.0948338731862695,3.4885020147369343 m9.781769394169837,-31.524725879731974 l2.111926958287035,1.6261149652521982 2.7741606433892265,2.6724206616885264 l2.068048303399633,2.6606653446559005 0.9294270759034386,1.8398342051121845 " fill="none" stroke="black" stroke-width="1" /></svg>