<?xml version="1.0" encoding="utf-8" ?>
<svg baseProfile="full" height="93.50383485216881" version="1.1" width="93.017807180432" xmlns="http://www.w3.org/2000/svg" xmlns:ev="http://www.w3.org/2001/xml-events" xmlns:xlink="http://www.w3.org/1999/xlink"><defs /><rect fill="white" height="93.50383485216881" width="93.017807180432" x="0" y="0" /><path d="M26.678542235814987,25 m0.0,0.0 m26.922845512908957,3.515861611536375 l0.012989893986348785,0.38968408132793814 -0.4285851142395235,0.6461454095021969 l-1.9299838833623824,1.3591277259364698 -5.200840892925991,2.670687390477179 l-6.318835577220297,2.257642663714211 -6.997560093908818,1.7760022846509853 m-3.223151837679309,7.744668649465816 l1.6666111525810274,0.21323440467680982 2.412446840686526,-0.13100654263609293 l22.173693259744066,-2.9580520522077367 2.5804089759949904,0.12162261190583394 l1.8301446100115188,0.3352330321922036 m-35.1787250823921,13.031731383059709 l1.869383464277417,0.2599552752373924 2.751308340354886,-0.08205442881578662 l27.143723769642996,-3.8849648020740277 4.944758439566166,-0.4815935241806363 l2.8680077473413212,0.15759468847682367 m-22.468138587853577,-14.598931218668048 l0.5549317468459403,1.1070757055498097 0.14301404871587897,1.7632068362671884 l-0.16605359370214393,23.34620079866191 0.45558656372823336,2.1123349575118606 l1.2370650006496116,1.561344092281131 2.4751425512568668,0.872999763595147 l4.1581445887744835,0.398084054724152 8.560689015591493,-0.02578723588513788 l4.961035068523918,-0.5509676151866261 1.9203578348658659,-0.8388310593645871 l1.0990120421827239,-1.2699073083223666 0.44354255739967136,-2.0409151158776786 l0.06629658227023863,-2.7947182666424752 m-15.6452849752712,-31.482832798753446 l2.1240696159044345,1.0446080639001414 2.0036248259115372,1.5219916014555137 l1.596151600620215,1.5885794253249652 0.9980861656597924,1.5146337863891441 " fill="none" stroke="black" stroke-width="1" /></svg>