<?xml version="1.0" encoding="utf-8" ?>
<svg baseProfile="full" height="116.80530188498804" version="1.1" width="90.19141383429093" xmlns="http://www.w3.org/2000/svg" xmlns:ev="http://www.w3.org/2001/xml-events" xmlns:xlink="http://www.w3.org/1999/xlink"><defs /><rect fill="white" height="116.80530188498804" width="90.19141383429093" x="0" y="0" /><path d="M25,28.254020293441435 m0.0,0.0 m26.460373612413104,2.872797651218149 l0.01929354153955113,0.4737465650884765 -0.00771903255995083,2.0795348905227264 l-0.5558698062091227,2.144279799232177 -3.441501485958537,16.669187528345297 l-1.7471423867249696,10.610873044006343 1.0244798219154483,-2.453943447568926 l13.864215154924624,-7.03068301780428 m-2.4525450569089164,-7.380438480621921 l1.5918469987243815,3.0567312811180747 1.7415859169112726,4.173083945222591 l1.4607809255653597,4.379547679654756 0.7438960709981625,3.737414296887871 m-13.685920828909195,-36.58615202874278 l0.9197819455472341,1.3163342595965446 0.3925170165367288,2.016854447423633 l-0.0771805850173015,56.92448462824262 0.1331700445985567,2.3304842409546875 l0.3863036538059857,1.9878266212447973 0.5779491028205144,1.11769798565917 l1.8182518709263729,0.8214382196773218 4.969523734911449,0.2901814821892537 l3.0549737720427403,-0.5150092841910007 1.509635666502186,-1.0246963834616247 l0.8957643731515749,-1.7991679098896658 0.4646239136849792,-2.7490693018153576 l0.1303258790586917,-3.8773074846833877 " fill="none" stroke="black" stroke-width="1" /></svg>