<?xml version="1.0" encoding="utf-8" ?>
<svg baseProfile="full" height="105.853519754592" version="1.1" width="101.56260845216022" xmlns="http://www.w3.org/2000/svg" xmlns:ev="http://www.w3.org/2001/xml-events" xmlns:xlink="http://www.w3.org/1999/xlink"><defs /><rect fill="white" height="105.853519754592" width="101.56260845216022" x="0" y="0" /><path d="M25,25 m0.0,0.0 m30.5947485030816,3.885153107760979 l0.3492627163405461,0.39027256611153766 0.4960794940016766,1.4792173779335855 l-0.024201221506222673,4.57210913623749 m-20.12803614600073,1.991729627009155 l4.2712747348057665,0.2581207108868834 30.401064379894745,-2.3802457595121376 l2.873066893157282,-0.10713099559918075 2.7189441297886394,0.24982521648307837 m-37.83035038668357,2.641680251176338 l0.5242294459706742,0.7951587825343923 0.15498734617284918,0.9946611854541433 l-0.3742671801467185,5.978667404377558 -0.8807408235499748,6.598895714954797 l-1.309328277062386,5.93063658080543 -1.5061495782112462,4.6705699438849235 l-1.4078937012046304,3.3539523422563966 -2.3895474412007696,4.3305576331670945 l-2.1396220214477846,2.9734110999316803 m13.839841262594437,-26.147700124594717 l3.066146666285141,0.21207839497031453 24.33560354102975,-2.303403998661446 l3.816307275035563,-0.18516980117864545 2.1111888410155815,0.2097372942622723 m-25.844888381501523,-3.749459458924834 l0.6488841711855085,1.0890209581466088 0.16179263636117133,10.450753042768456 l0.2088864171739488,6.2652658724919545 -0.26037497850339075,6.492259430308321 l-0.758078858795442,4.081737922359888 -1.102345954565731,2.5424615299404296 l-1.7576652571957068,2.1246446712881784 -2.8553710701079824,2.3986802782539205 l-3.4162268687066457,1.9892066507359902 m20.620820884789755,-24.566932595860305 l0.5757543580964593,0.8502812840513049 0.19835088240192458,1.0731398425834955 l-0.01133249134752266,23.25303646574613 m11.680328013114215,-21.899631974956616 l0.6002097349654325,0.9802644498539111 0.16619829244123288,1.0474003539287526 l-0.07888948134624146,21.03860734122448 m-34.27115986320673,-21.65768186900126 l19.293495079156735,-0.5883976341527752 13.56280771140112,-0.498733128860428 m-31.18042756324249,8.632301123375763 l3.356012278649717,1.0494529017823566 20.256216064974158,-1.6592865653645885 l7.0245110527275685,-0.10511946735991405 2.7540932140924834,0.37551740036228776 " fill="none" stroke="black" stroke-width="1" /></svg>