<?xml version="1.0" encoding="utf-8" ?>
<svg baseProfile="full" height="98.50904231727354" version="1.1" width="120.39395352724627" xmlns="http://www.w3.org/2000/svg" xmlns:ev="http://www.w3.org/2001/xml-events" xmlns:xlink="http://www.w3.org/1999/xlink"><defs /><rect fill="white" height="98.50904231727354" width="120.39395352724627" x="0" y="0" /><path d="M40.9699985687848,25 m0.0,0.0 m5.9600665809282445,11.816400880123648 l0.45143561109411684,0.35026129325837196 0.4373938662584088,0.794882633087998 l0.20557402046000348,2.9758129879239106 m-16.415094743205792,-5.12562416162194 l0.6495111334055644,0.8063765167623345 0.12140603384969223,0.7140189586885831 l-0.13170053722045516,4.564663522812118 14.918484950689695,-1.547516837857176 l16.861835386122205,-0.7578531500348921 m0.8287021551571081,-5.881403109873575 l0.4550425408255966,1.3221147779921576 -0.7720091589549894,5.833503485100904 m-33.53402496286277,4.45962008849461 l0.5432167525220764,1.0041424484746817 0.057788836632753915,0.9969593034283845 l-0.011083503508528113,4.78075093137399 -0.23500409054011684,5.582252654960194 l-0.7121654942054004,4.159610220329341 -0.9960899637454109,3.160448486126944 l-1.056991109170103,2.346794668033642 -1.7762417791866063,2.8200887906160554 l-1.8200510941300954,2.0716810551342304 m7.6339449530899826,-25.940925568962438 l9.71626599189977,-0.8727486967834397 1.207305184978112,0.35518088355353333 l0.5445783736155507,0.8784210887460447 -0.1285419140416212,24.743676345098784 l-0.3894340531342584,0.7667683046533356 -0.5546101541769697,0.31101028963661514 l-0.6954989383383895,-0.059451706468171044 -1.560670093315183,-0.7773303157332034 l-1.316278862925077,-0.9137255061940943 m-6.356750365603963,-16.507660808982383 l9.949465821848742,-0.7143429524883361 m-10.696794667882008,7.346611282760905 l10.589149565596733,-0.7215887113832895 m9.489870093328618,-13.619103093710159 l2.3415717571334795,1.2302831285066171 1.8209906202404549,1.8857634511163641 m14.696860320013956,3.2196155200501857 l-0.10764666023420903,0.7960066514690546 -0.7411599257462947,1.0802307888712739 l-3.4415117474629975,2.472393833168783 -3.129846094341815,1.7720800608517586 l-5.8894486952657115,1.5890894281784431 -8.358358736322367,1.4807545487793219 m9.06873880067744,-7.5496672545926025 l3.438742036162513,1.0658373830695935 3.8037420972124747,4.758563378093381 l2.59524876793029,3.0279761072396743 2.4316631696832895,2.232752824690759 l1.6647288291206386,1.6049471450370594 1.5464862466041622,1.500287207209498 l1.492348360320257,1.349694454020062 m-23.724088805505943,-27.537737527036107 l2.5178571909806613,0.6153316008103802 6.094258184987501,0.8696992063954226 l2.5790982329383314,1.0131241091638006 1.343299866022139,0.7293945910111225 m-11.257557254671426,5.240342119198978 l1.3101596422005328,0.38539774572865154 1.8876087653556521,0.7869623584568791 l6.177974031112147,0.8456723798840516 1.5795248665176882,0.5985280390327822 l0.5802389201788832,0.37443050617724194 m-9.495075073871156,5.865768477630338 l1.2875243877249731,0.17087422162707971 1.4411875785966792,-0.08898661006144477 l5.393780808464994,-1.2024922450769253 0.7574100636844873,-0.0076524370455363176 l0.6535686315248619,0.2422775299773067 0.2642449907172784,0.39395789251443997 l-3.3771362777007576,3.712524534582872 0.158126802088175,0.7595043394095361 l2.876243332042679,2.9588615822070543 -0.3836885476569828,0.7502583512170127 l-5.9280025371187035,2.7589788492754352 m-2.892267637421242,1.1620846746892257 l6.223050537576508,-0.3966361974910496 23.086330294915264,2.2586107659654795 l5.4968504539221525,0.2105775261920813 5.078281998975297,-0.2096177172936218 " fill="none" stroke="black" stroke-width="1" /></svg>