<?xml version="1.0" encoding="utf-8" ?>
<svg baseProfile="full" height="113.85464868051915" version="1.1" width="103.0945230081162" xmlns="http://www.w3.org/2000/svg" xmlns:ev="http://www.w3.org/2001/xml-events" xmlns:xlink="http://www.w3.org/1999/xlink"><defs /><rect fill="white" height="113.85464868051915" width="103.0945230081162" x="0" y="0" /><path d="M25,25 m0.0,0.0 m30.3105064087477,11.887155675017024 l0.3718341172572298,0.3944111333609371 0.5102816731653018,1.4798440211846975 l-0.02980810544491583,4.8418320878168695 m-19.933682603131793,1.920958575825195 l4.290263696347595,0.1830546018684537 17.508712697536193,-1.8415026985370566 l14.370736208601574,-0.8514828344215336 3.053597248507222,0.008659895254595354 l2.642081666530103,0.4320249215510008 m-24.39103004624546,3.086766733389048 l-0.08696571254138193,1.197698230325763 -0.3948738384896864,1.0468365773874933 l-2.5156752599807617,3.700972282944322 -3.943620600845013,5.204552660508217 l-0.01557999645885641,0.884879064859194 0.42822607765120485,0.37563711292113067 l6.185460833527525,1.054563361316666 3.6135919321136813,1.257787085767487 m8.298330779592154,-9.97632335265839 l0.05997243189474786,0.6717962414765475 -0.35767658945665587,1.0322599675821462 l-3.191340154431678,3.523712525936471 -4.02263359762118,4.0087096293271 l-11.125779129946052,6.113490943150331 -0.6980946343526969,0.6968476675671001 l0.47847762489265216,0.46870343473266046 22.02000206524075,-0.10547319317769595 l8.94950968101114,-0.0788032134902636 m-7.69141460642814,-5.593217107118023 l2.371885820275474,1.7036449240371867 2.4312762663099177,2.4206352111352807 l2.038812087038774,2.6871772864280072 1.0349114872831626,2.0764813765069117 m-27.25338645255439,4.408076061486105 l0.6359457476915281,0.7199022136483058 0.23886859073738154,0.8644931867395576 l1.6716661710903213,11.947886388870298 m-1.2250640452302386,-12.936255503433271 l18.66162410613979,-1.5559225273451132 5.1839335817966345,-0.07733170011219541 l0.9985214566359769,0.6467506094193501 0.23069407727905003,1.208989792375702 l-2.730197957571548,10.123027684213882 m-18.984627257931702,1.6396804750162035 l20.2071529351389,-1.0440668435725797 " fill="none" stroke="black" stroke-width="1" /></svg>