<?xml version="1.0" encoding="utf-8" ?>
<svg baseProfile="full" height="100.29344875138634" version="1.1" width="93.37547728537882" xmlns="http://www.w3.org/2000/svg" xmlns:ev="http://www.w3.org/2001/xml-events" xmlns:xlink="http://www.w3.org/1999/xlink"><defs /><rect fill="white" height="100.29344875138634" width="93.37547728537882" x="0" y="0" /><path d="M25,25 m0.0,0.0 m26.567867034118663,4.184518419187553 l0.029879320758988595,0.44203026447115834 -0.45465625034596224,0.8300414855235556 l-1.3178873372141915,3.206852535594589 -1.6575156341193147,3.705266124699463 m-7.282600692011165,0.5786382443919682 l0.5406940200682842,0.8326604910299312 0.24358330794676505,0.9304938677917494 l1.2331057409617245,14.229019034533305 m-1.1533040011971403,-15.20773765991222 l18.711152357371947,-2.1521231537598164 1.047796865451441,0.1783554877047711 l0.4531802918456111,0.7694765283705925 0.006451658620249576,1.4330280717346107 l-2.0368622995489205,12.83256047735688 m-17.56837430597655,-6.778185182612254 l12.306790320464867,-0.993866335023059 m-11.595330156422223,8.037218163427289 l16.69947318886929,-1.2789198007684273 m1.6818923492488762,3.146628222871951 l-0.020249816854564912,1.0813507476151618 -0.3371574678332742,0.8883768640861852 l-3.4711058735776077,3.2462580170861726 -6.265386970989593,4.698957309133145 l-6.239547111087629,3.8653842813044146 m-0.8545224270609614,-13.035963226505602 l0.44395924998230973,0.9328318940527056 0.2190823785584127,1.4805218427419793 l-0.025065121862310403,14.430176798689285 0.5759133711925148,1.8389981589177133 l0.5899509800550848,0.811446134135644 1.5563759975578608,0.7395997446450326 l2.4878314441407934,0.38955489887090883 7.316736155355868,-0.09382678922171876 l3.407588849327106,-0.5207975396885945 2.854864466867613,-0.8340511693541248 l2.4097825576697693,-1.1370314156262809 1.2645448615066812,-1.424951510680921 l0.7317252600452107,-1.990101483755502 0.2748207234942998,-2.900927550058662 " fill="none" stroke="black" stroke-width="1" /></svg>