<?xml version="1.0" encoding="utf-8" ?>
<svg baseProfile="full" height="133.12589109345421" version="1.1" width="104.2067058258111" xmlns="http://www.w3.org/2000/svg" xmlns:ev="http://www.w3.org/2001/xml-events" xmlns:xlink="http://www.w3.org/1999/xlink"><defs /><rect fill="white" height="133.12589109345421" width="104.2067058258111" x="0" y="0" /><path d="M25,25 m0.0,0.0 m15.050698491374805,4.250684306545485 l0.4553297761233366,0.1619529786961231 2.8803311215652876,0.07344297478351194 l22.945748939903975,-2.6925774184687 3.8588889220703217,-0.2698213657529235 l2.075251081519003,0.2677557011360066 m-19.46187002666199,3.5491165594281973 l-0.02994172739131288,1.672355612431083 -1.407536055313246,1.7318492974386306 l-5.416815382757941,5.630825113214108 -7.226634528857754,6.897677212210802 l-0.9064235509451912,0.6444208884555209 0.11046859697356985,0.6586987408708878 m7.2238753213084115,-8.313579126413865 l3.6307101342524053,3.2672694103265507 1.9249760947209493,3.536933151730576 l1.3909438669279106,3.9132774233922527 m11.237866285540123,-14.607190851886102 l-0.10525865559732342,1.1243989369424203 -1.940642570211103,1.401042336896098 l-5.9361590236928405,4.425372783644678 -0.41305628085587553,2.4756536009292356 l3.030357450374799,1.4748259005726738 12.022350008572143,2.820279383840677 l2.5410756514777924,0.33725972385411535 m-5.89485414296228,9.606448110177736 l2.3007063881948313,0.8369289000469252 3.036362701042712,1.254376811851479 l3.722240692194726,1.4405540665671261 1.133939554438368,1.0741924871870638 m-47.27454869856255,12.183073005445257 l2.0154061120409077,0.37405041629792024 2.4167448521417967,-0.02533399458477995 l18.892028156745628,-1.9698947591512883 16.810194495159607,-1.0463546270928814 l5.621380012396218,-0.1962580976483647 3.3543358283224953,0.3636906109314865 m-25.438530082742876,-7.198433447534733 l0.6325130984080058,0.9450707019568975 0.25530027930427035,1.6536411586737005 l-0.1095561446178356,18.853360503322527 m-2.17164963743118,1.3668034858347013 l0.07411957652138909,1.3540203168305553 -0.31833006713508144,1.2850848011111766 l-1.5424455844789713,2.853705587011465 -2.4620889593457624,3.0616577042115245 l-5.1891326472834916,4.745647115599859 -7.252334267553844,4.437215553307945 l-3.8914381388423327,1.4407214082828539 m25.489337274075513,-20.21192322567036 l8.222250478613068,7.8279056952442865 8.115927547097677,6.687392916385192 l2.850298205225955,1.9655267533802259 3.2739950044238975,1.5682653005732208 " fill="none" stroke="black" stroke-width="1" /></svg>