<?xml version="1.0" encoding="utf-8" ?>
<svg baseProfile="full" height="90.87270321142586" version="1.1" width="96.36909066107893" xmlns="http://www.w3.org/2000/svg" xmlns:ev="http://www.w3.org/2001/xml-events" xmlns:xlink="http://www.w3.org/1999/xlink"><defs /><rect fill="white" height="90.87270321142586" width="96.36909066107893" x="0" y="0" /><path d="M25,25 m0.0,0.0 m14.521101715309973,5.142866747280094 l0.44865569257904897,0.1269734504988769 3.1045087349958327,0.0773532666187708 l22.367182161062747,-2.3020022098219144 3.775766172696636,-0.18879360662301006 l2.151876184434681,0.25495850697162453 m-19.473305126369507,2.6070861354680157 l0.11657505905820817,1.5476518737392582 -0.45057136777799744,1.3935467244586723 l-1.6039555753198913,6.20068562612423 -1.8879936644424202,5.959106193351707 l-3.4552619736399106,4.868789394733237 -2.542874300203979,2.3928602767773017 l-2.2975978750865647,1.5021063140883064 m15.230618570924404,-18.298679320075042 l2.6603295134403417,-0.18699033768479262 7.108978857429232,-1.7931813229641684 l1.4971434857998016,-0.1769837874229349 0.7910470099823916,0.6592471687696668 l0.1753804620486963,1.2647215143430401 -0.389480284198652,1.3381577564692115 l-1.730801317915364,3.2817609321205503 -2.6702849034169165,4.212576963469014 l-3.371123910929983,4.6833748003433024 -3.916998665190117,4.706185116937989 l-3.042215964836735,3.238655178061304 -3.330899683652491,3.106088508619705 l-3.5736118315233316,2.8512307089290188 -3.6799316285797183,2.403350637844828 m9.55901986798303,-23.6562041705151 l2.0056866481825684,1.201096949288302 2.510429131184783,2.1295046972585805 l1.8683297710066404,2.152812236513025 0.8220853985112715,1.4187031864175292 " fill="none" stroke="black" stroke-width="1" /></svg>