<?xml version="1.0" encoding="utf-8" ?>
<svg baseProfile="full" height="107.01301805838762" version="1.1" width="101.30433941402194" xmlns="http://www.w3.org/2000/svg" xmlns:ev="http://www.w3.org/2001/xml-events" xmlns:xlink="http://www.w3.org/1999/xlink"><defs /><rect fill="white" height="107.01301805838762" width="101.30433941402194" x="0" y="0" /><path d="M25,25 m0.0,0.0 m27.60032390869388,3.8792199619240333 l0.4015882248924396,0.42451959252196225 0.500807596242778,1.5763079007863294 l-0.08104316043079912,4.4814963901902996 m-20.39817868006799,2.195683295573685 l2.2105765293565147,0.27745581286570953 2.9572092277182818,-0.02757958837543033 l30.755955241575297,-2.8850227979488205 3.157324274556988,-0.0007239004752322177 l2.592855173636036,0.30248058049612286 m-38.58892526483462,3.0409013685776176 l0.5384526546588171,0.7728446928325239 0.1714749989770057,1.0844675829724701 l-0.29779391843364145,5.945597950793343 -0.8471980378994071,7.096452519671715 l-1.308075833788769,6.107010321600894 -1.508278156236676,4.676484965936368 l-1.4559111183659694,3.3606704776414746 -2.4764406704203203,4.2884818704622925 l-2.2529841547475447,2.9791698346788897 m14.337129995488347,-28.834553384707934 l3.562306944108638,0.17763900021123633 24.328691761510612,-2.4765357582553817 l3.8910151491210567,-0.26423570859724216 2.336348417643125,0.1829958606402084 m-26.253973639954893,-3.3898976677615646 l0.6251723097303287,1.117818619497333 0.1390964273545076,10.689580246259206 l-0.5679573718308939,6.907850462962977 -1.0197680253006742,4.205427609138025 l-1.3936479851696677,3.4628363826898756 -1.7287766704977232,2.794273786278237 l-2.7108792318576134,2.984674004123912 -2.7376382400796286,2.0804931331132126 m22.184724998334957,-29.98401480309829 l0.3099109869017701,0.8327900571545083 0.014445759188359001,1.1810585063478949 l-0.4419601914964406,5.703351522244485 m-9.929011992518657,1.746344727509427 l20.293437068107732,-1.811974947819391 1.3044855220318696,0.10925063159199201 l0.41237530067770645,0.344925250152689 0.19067666903090927,1.0460979310873746 l-1.6383217750815744,7.4436644805159 m-20.347266704303166,2.4276544239216724 l22.53414126676156,-1.8899975423498732 m-23.192680468176537,-6.6810266167455845 l0.6215905622709536,0.7438652463463027 0.2583308644249266,1.0786493465571385 l-0.11853869768207796,23.176587865902327 0.40388563796075005,1.5652288140850206 l0.6681681526209517,0.28293907508604843 0.8839688088815181,0.2133213936701489 l8.795409003266958,0.27001727790947455 8.909947063738922,-0.6672335739643775 l2.277651667324996,-0.6448096563840275 1.343987599814534,-0.8836372256817628 l0.797733316184522,-1.3536816055992664 0.28839032040866386,-2.3709485145314533 " fill="none" stroke="black" stroke-width="1" /></svg>