<?xml version="1.0" encoding="utf-8" ?>
<svg baseProfile="full" height="114.98560804563647" version="1.1" width="98.06214534479349" xmlns="http://www.w3.org/2000/svg" xmlns:ev="http://www.w3.org/2001/xml-events" xmlns:xlink="http://www.w3.org/1999/xlink"><defs /><rect fill="white" height="114.98560804563647" width="98.06214534479349" x="0" y="0" /><path d="M25,25 m0.0,0.0 m11.042106926933807,15.996079960665263 l0.4451500589786542,0.12821639884126768 3.057119896520928,0.14870408322334988 l13.3498256358391,-1.2095462516574274 13.394142464729088,-0.7696450911028822 l3.8189851064380065,-0.03813463740099431 2.95481525535391,0.35190235156457084 m-27.653061656429127,-4.322794509515406 l0.7070013655200388,1.4230850069132035 1.154555814580408,8.199282279307614 m14.670141835414721,-10.62984559352426 l0.20899943637057217,0.89003541600034 -0.09625637900832659,0.9615350421468983 l-1.9291125312436814,7.658598939726643 m-17.0330188306623,4.775736220546753 l0.5872525949624589,0.7386608123725199 0.2650983832069014,1.3740559249913655 l1.316804970474253,8.232767462888502 m-1.2036739381578219,-9.663966140226115 l19.16504349760312,-1.9466143719978362 1.3510166084515165,0.2615624515312263 l0.6310167105372836,0.8375074089450227 0.01745695226353781,1.360887180485937 l-2.1931454368344574,7.6499885374057195 m-17.643676147994736,1.3505856870539539 l18.61840944778799,-1.219077101387304 m-11.26335129726818,2.5467801603700795 l0.2223647490295351,0.7689213692270599 -0.287261928649819,1.0071920701194552 l-1.6097007885374448,4.343092656347369 -1.738569914050689,3.3911349427530477 l-2.0546091062609433,3.0584818345833535 -2.13473813013341,2.550100048791493 l-2.6055616350194333,4.735260284498897 -4.480407261280796,7.324264525337377 l-2.140612218702495,2.7208126858104253 m11.317078377849397,-22.81834382078462 l1.5232323385319968,0.8186752684734834 10.928192614462503,1.8496072323258972 l5.3728082328356015,10.733720139291009 2.222230631083957,5.387237594107197 l0.8608843983459709,2.6407678797292236 " fill="none" stroke="black" stroke-width="1" /></svg>