<?xml version="1.0" encoding="utf-8" ?>
<svg baseProfile="full" height="104.74726267406669" version="1.1" width="99.11887962755512" xmlns="http://www.w3.org/2000/svg" xmlns:ev="http://www.w3.org/2001/xml-events" xmlns:xlink="http://www.w3.org/1999/xlink"><defs /><rect fill="white" height="104.74726267406669" width="99.11887962755512" x="0" y="0" /><path d="M25,25 m0.0,0.0 m9.020990106082989,13.794008668651857 l0.49445794518215125,0.14180237726613953 2.8757116620292975,0.11139520798497092 l27.980217804373474,-2.5500043774041306 6.0374052924254755,-0.17165945960270804 l2.7100968174617295,0.3125472351458711 m-31.038505629365154,-5.190187764398538 l0.9248583104081526,0.8280285401345079 0.34142730632370044,0.6826775270646124 l1.2935193890308812,9.614450395926587 m14.727270201556163,-12.365950791661257 l0.5408425358639385,0.9049848697233288 0.09110010400256734,1.0925633589685813 l-1.936153155279902,9.833495685769241 m-8.951793377204321,-0.13088953564904796 l-0.10443406993401388,1.2861959662062283 -0.5003695276587938,2.134993197414535 l-1.0100580683652576,2.404852761481584 -1.4653614549567497,2.377072151628987 l-3.661625977616745,4.046179624694617 -2.488747033809702,2.011247349917108 l-2.900517983888695,1.833991085434243 m12.359150314127433,-10.81244414714271 l1.6049834324659078,0.28475733926693597 9.237712062910546,-2.4591742546534974 l0.6565463078506911,0.3174324427104401 0.263144066099719,0.5253775486976988 l-0.005122603279559946,0.6867266243566096 -0.5700804895304451,1.403412157333548 l-1.5454887565738606,2.183336087987647 -2.3854197054610866,2.7966497697747377 l-2.967630685383101,2.997984001169996 -3.605827922603833,3.0326460918403844 l-2.995392855350883,2.1078054318849158 -3.2451961638792093,1.9631679880365922 l-3.3664671294097124,1.6512949740418292 -3.433003116756017,1.2498774786621711 m10.344816779865372,-16.20418823198115 l8.828048184455215,6.017804927842009 10.209206131506546,6.249969424620046 l3.62851570655268,1.7885326820103014 2.957567782064079,0.7562179808305667 m-20.643780041410395,-0.5566296070718644 l2.370312947239738,2.0257846026341495 1.3559837507836896,1.8214751020803899 l0.4867286266945215,1.235006728419531 m-9.420100293799452,9.866032155046426 l0.9975361825953029,0.7966396376062729 0.9272154038834747,0.019973663365385856 l0.5530936158650747,-0.32811604083633966 14.4014080600738,-7.801743381763515 " fill="none" stroke="black" stroke-width="1" /></svg>