<?xml version="1.0" encoding="utf-8" ?>
<svg baseProfile="full" height="110.06785638821026" version="1.1" width="95.75048680912482" xmlns="http://www.w3.org/2000/svg" xmlns:ev="http://www.w3.org/2001/xml-events" xmlns:xlink="http://www.w3.org/1999/xlink"><defs /><rect fill="white" height="110.06785638821026" width="95.75048680912482" x="0" y="0" /><path d="M25,25 m0.0,0.0 m14.600321129012137,17.68225178330115 l0.42243535502916935,0.14868254077214874 2.6509221163913756,0.10928850618179368 l11.281054855015991,-1.6728264430809072 11.405265061882377,-1.0658266325278896 l2.93977612627208,-0.1145449492179812 2.4507121655217006,0.4394766808215607 m-24.22200344533616,-5.083288428613315 l0.5975352504116035,0.8565522833608236 0.2660175428913533,0.8676402280167425 l0.9352848207139863,10.064459702117196 m13.130645266148294,-13.35393714493505 l0.10655575543325364,1.0355629631022945 -0.15284669094737116,1.0892891281379498 l-2.0891869172583775,9.996752540554901 m-22.077041924475626,5.587079250675175 l1.2366314749163194,0.29640927234241415 1.701753281147687,-0.018761268116466452 l24.296501575226074,-2.775948994619424 2.2822699654002174,0.260980040138484 m-28.584784137021842,11.083278169353981 l0.5574155644339377,1.1861114947946598 0.35562426917949,1.2615741677710062 l1.5220862094930112,11.32511348724278 m-1.3323446394577867,-12.878298619724612 l9.982214563047151,-2.248146112954943 1.0988735483825367,-0.22138653521054366 l0.9553779619089531,0.342443156067566 0.27393122048334334,0.46808394321337377 l0.12350704787277028,1.3059451979043535 -1.4689311227506487,9.306086484339025 m-9.080121063076906,2.051231966000157 l10.125549802689894,-1.5043521854844883 m9.36210881006698,-19.26387349910784 l0.626288115462791,0.9528381024544514 0.2038028517479764,1.3383370530552259 l-0.025771104053412975,29.995431333575198 -0.28461623991423085,0.8534839744994349 l-0.40627213214076124,0.36466375200985784 -0.4953555599218819,-0.01284231202624412 l-1.1319738628658806,-0.7151873450744758 -1.7290885810792178,-1.6269391515117853 " fill="none" stroke="black" stroke-width="1" /></svg>