<?xml version="1.0" encoding="utf-8" ?>
<svg baseProfile="full" height="111.84250543566135" version="1.1" width="108.51193473565912" xmlns="http://www.w3.org/2000/svg" xmlns:ev="http://www.w3.org/2001/xml-events" xmlns:xlink="http://www.w3.org/1999/xlink"><defs /><rect fill="white" height="111.84250543566135" width="108.51193473565912" x="0" y="0" /><path d="M27.22469390185711,25 m0.0,0.0 m11.096463401721204,3.1293564384672403 l0.02286277052517131,0.5281685260633893 -0.3560913890918417,0.9997255499412161 l-1.0838109661466533,1.8974830857669194 -3.1729957072448776,4.440832661802688 m-3.870535836439042,1.0978319568396135 l0.6260624285549835,1.0171250733261232 0.2595671302579622,1.1062857510870483 l0.2598400751189923,24.358920479904985 m0.1173597540150337,-25.107422008823338 l12.846498595573001,-1.7784025603983633 1.2377633469086098,0.301030704101633 l0.4698870065418878,1.0311061483412571 -0.5302146613219482,41.802411229677475 l-0.5249624315893534,1.2341877552596507 -0.7174129828386142,0.3054620778600278 l-1.7222394889064245,-0.8737590275767061 -1.763747671765394,-1.6564132655268429 m-8.704134564497329,-33.212013685843225 l13.468971743748375,-1.3556445228322562 m-13.255727052040868,8.704795442808875 l13.155010295927392,-1.4275460472034924 m-20.083107698867373,11.617960323612785 l0.9800142705284505,0.438805481737992 1.6357238980608435,-0.14919119350834412 l16.327457161154303,-4.892590090451459 m7.507280824613201,-7.036511616632057 l0.06819754967623408,1.1263630362521104 -0.44603689823644765,1.0881782541980265 l-2.6308469648427684,3.1284805914193283 -3.868466307239573,3.896886649890606 l-4.674543733806318,4.142866237649145 -4.759529584697803,7.45565811288607 l-6.238588451951821,10.464132799532866 -3.064088484456522,4.01794508603037 m27.137463371709305,-45.87528854406281 l0.524038339166699,1.203137343404192 0.23275504356504184,2.010849628949042 l-0.014052487504271988,31.809373552364367 m0.2303084500037031,-36.185084050001166 l16.51823332872879,-1.768302700456571 1.5835363331902885,0.2736635011672976 l0.8343420427361788,0.9986482234831567 0.2679428837937255,1.5104207094848192 l-0.4182434384299164,34.55257498837309 m-18.94329548733101,-25.220772051749986 l11.935491525422588,-1.2100504514738595 m-11.409085208296947,13.4364102780002 l11.113150462212106,-0.8083885278741738 m-20.39296720870553,16.570485340739683 l2.0659822170256716,0.30605254394241194 2.5730147601506084,-0.040443431340781794 l14.605554214929574,-1.2249898761457094 9.047607731937111,-0.28449655042217487 l7.089701220493377,0.026458885501222253 3.093883362060245,0.424762678201845 " fill="none" stroke="black" stroke-width="1" /></svg>