<?xml version="1.0" encoding="utf-8" ?>
<svg baseProfile="full" height="92.29229212500462" version="1.1" width="110.64478036060414" xmlns="http://www.w3.org/2000/svg" xmlns:ev="http://www.w3.org/2001/xml-events" xmlns:xlink="http://www.w3.org/1999/xlink"><defs /><rect fill="white" height="92.29229212500462" width="110.64478036060414" x="0" y="0" /><path d="M25,25 m0.0,0.0 m14.143515206607757,4.497852972782166 l0.43036171287528946,0.4594797383356248 0.6335805941746465,1.2547813988649814 l0.3610468238241927,1.895828627101145 2.2807546417905,34.18434938792071 m-1.8048385132213307,-36.56491440605411 l33.91113840203095,-3.0051713013491232 1.7761806080736693,0.04003972497879276 l1.713873619826637,0.6277779346623261 0.826437084342204,0.942213247747383 l0.2652165648323876,2.2969135938674494 -3.915276870190152,34.25514006170699 m-22.001017729543786,-31.391334610712196 l0.5229728392224939,0.8215730876905705 0.26014377917826553,1.048948772564866 l1.4724023897574727,13.760492772336073 m-1.1801142106711993,-14.996767941472113 l11.9048775306808,-1.96487089175863 1.3609461890206447,-0.08988247333815359 l1.0022212767517678,0.24865587856301005 0.5040894224328243,1.5457373889064352 l-2.00471577599604,9.158176429755342 m-9.995919304336276,2.0323709070686222 l11.355660219939455,-1.231157111699851 m-21.782678190749078,12.759696113122324 l29.678515546271875,-1.5929462718117278 m-44.46098857009867,-18.435754767308268 l0.6901564811105194,0.6755286297122106 0.33652226737794927,1.1777495359396968 l-0.20807263046164956,25.117219862586857 0.33595194673871576,1.4889510861355943 l1.8549125808797917,0.7628586841407894 42.147292683314184,-1.9986018761633333 l8.229631744817338,0.4284821740703219 " fill="none" stroke="black" stroke-width="1" /></svg>