<?xml version="1.0" encoding="utf-8" ?>
<svg baseProfile="full" height="106.78982917013033" version="1.1" width="105.5886721669206" xmlns="http://www.w3.org/2000/svg" xmlns:ev="http://www.w3.org/2001/xml-events" xmlns:xlink="http://www.w3.org/1999/xlink"><defs /><rect fill="white" height="106.78982917013033" width="105.5886721669206" x="0" y="0" /><path d="M25,25 m0.0,0.0 m12.174914605877289,5.039328091110293 l0.42624309836539925,0.4382107649657336 0.6427201359736396,1.3315968069075519 l2.5677319737389053,15.691075849501294 m-2.498264767178942,-17.517817725011444 l30.750474862024355,-2.1970754951070277 1.638890485576967,-0.003636699879463125 l1.4483757844371892,0.32592719709983264 0.8223363091740155,0.7803718021389228 l0.12288459649807515,1.015314152765255 -1.8149938287325451,9.24210479963223 l-1.3727969098538488,6.291229599841692 m-29.720169607280518,-8.006054624744499 l31.766737589094827,-1.8785118912939684 m-30.17027555209684,9.407562477166675 l27.84442281017804,-1.4659727779799994 m-42.873032931991716,13.807259150429854 l2.0569924997771336,0.3127562595057074 3.049465207428957,0.04884899291426418 l35.86495228071876,-2.5328585566306407 9.271818755129686,-0.5437203976401306 l3.589244770061774,0.25066555926953304 m-27.931498595480456,-7.354329337642112 l0.8208405046440864,0.916613230719141 0.3104811269566236,1.585931470391505 l-0.1272750062242161,27.432121158706146 m-2.4384114491719306,-21.2140160753368 l-0.653055675834813,1.5896800641125746 -2.2098702714507406,2.0419682968961093 l-4.214854719477352,5.739288230190157 -3.6292108192498818,4.338591859818032 l-2.830353590034688,3.480867212571086 -2.7132302388386784,3.091130187700134 l-3.020875683001554,2.863330557054376 -3.2911375490979227,2.4420489799883436 m24.812186315304626,-22.791142152201438 l18.389884189279105,16.493029378381888 3.1372722995482984,2.3751669058059917 l2.4510732809326825,1.5228550308179316 " fill="none" stroke="black" stroke-width="1" /></svg>