<?xml version="1.0" encoding="utf-8" ?>
<svg baseProfile="full" height="117.57348514241862" version="1.1" width="106.93387509746665" xmlns="http://www.w3.org/2000/svg" xmlns:ev="http://www.w3.org/2001/xml-events" xmlns:xlink="http://www.w3.org/1999/xlink"><defs /><rect fill="white" height="117.57348514241862" width="106.93387509746665" x="0" y="0" /><path d="M28.67322635209949,31.2921230634352 m0.0,0.0 m9.123853423555182,4.556896045617543 l0.5395976689218768,0.13480466550669637 3.3963926778092435,0.130505775596972 l26.72448087751169,-2.3661430452051904 3.0336955602968008,0.22172130352273764 m-18.445571434300394,-8.969907808473957 l0.6884680867009686,0.9150812833430433 0.33569700330607166,1.6679759174955102 l0.016183033521741375,20.02352340726738 m-29.086023249422674,1.7378051676546906 l2.680002612202606,0.4020538688326728 2.9560505892649527,0.013365510973008416 l44.12824743248103,-3.2230066597022513 3.960823871158149,-0.06946820542416988 l3.208750592359914,0.42385456948256633 m-10.75310726604297,16.858992833205985 l-0.33064864668654464,2.1173905193894913 -0.7161770295806428,5.734230595038878 l-1.8311279067705426,6.570245636907894 -2.824681874341993,6.8230271365476085 l-3.5610008827599486,6.360552764657126 -4.226514197199857,1.2178607967491935 l-3.467555029854612,-1.3443217985969982 -2.1361988940898335,-1.2280072258475687 m-14.372844702066114,-26.803993858236858 l0.019619770450796718,1.4618293311679378 0.04009673303219158,1.3814258908236583 l0.027523423143328285,13.473431012756809 0.4890409697572869,7.388020711199739 l0.7256526611159458,0.9535792574991312 1.068497297917501,0.5613430997945662 l32.739135141315415,0.4019025833767952 5.596190816852237,0.07661808540838015 " fill="none" stroke="black" stroke-width="1" /></svg>