<?xml version="1.0" encoding="utf-8" ?>
<svg baseProfile="full" height="109.49251430109143" version="1.1" width="109.47182624222478" xmlns="http://www.w3.org/2000/svg" xmlns:ev="http://www.w3.org/2001/xml-events" xmlns:xlink="http://www.w3.org/1999/xlink"><defs /><rect fill="white" height="109.49251430109143" width="109.47182624222478" x="0" y="0" /><path d="M25,25.00000366824679 m0.0,0.0 m15.427553653717041,1.4053942263126373 l0.0040210652514360845,0.5387343838810921 -0.2089628390967846,1.5274746716022491 l-1.0638590157032013,2.6049435138702393 -3.840780258178711,6.627422571182251 l-4.669384956359863,6.346743702888489 -4.360779225826263,4.529398679733276 m15.68975567817688,-17.488365173339844 l2.336636632680893,1.3372914493083954 2.3483021557331085,1.9233949482440948 l2.0616136491298676,2.2910350561141968 1.4774543046951294,2.441272884607315 m-19.004173278808594,7.398053407669067 l3.090299069881439,-0.003800127888098359 8.795086145401001,-1.2945179641246796 l4.947943091392517,-0.30183399096131325 m-21.832175254821777,13.44997763633728 l2.9828351736068726,0.4053874686360359 15.931196212768555,-2.2766299545764923 l4.795584678649902,-0.2679090015590191 2.129132002592087,0.17720304429531097 m-12.90700078010559,-8.823366165161133 l0.5189383402466774,0.5302504077553749 0.36472387611866,1.2779033184051514 l-0.1235317625105381,17.827725410461426 m-9.592583179473877,0.6009504199028015 l0.6585709750652313,0.8759736269712448 0.7839751988649368,3.2606863975524902 l1.8729326128959656,12.411041259765625 m-1.6572092473506927,-14.999723434448242 l15.039315223693848,-2.631588578224182 1.6427157819271088,-0.03225689986720681 l0.5557024106383324,0.36976125091314316 0.34022189676761627,1.149936318397522 l-2.8307417035102844,12.92184829711914 m-12.963560819625854,1.8311312794685364 l14.471594095230103,-1.7881369590759277 m15.712379217147827,-56.15281105041504 l4.0076324343681335,3.1602922081947327 1.541261225938797,1.8343128263950348 l0.5687819048762321,1.1015067994594574 m-15.225963592529297,5.689939856529236 l-0.5063007399439812,4.695190489292145 -1.3543477654457092,5.621007680892944 m1.97677344083786,-9.7283273935318 l23.192267417907715,-2.616492807865143 5.214836001396179,-0.2413688786327839 l1.1331450939178467,0.6156206876039505 -0.06924186367541552,0.6023644283413887 l-2.8067922592163086,3.3052274584770203 m-23.23486328125,6.447844505310059 l0.7121262699365616,0.9618742018938065 0.37938863039016724,1.7503565549850464 l-0.1432062778621912,36.29316568374634 m0.34749075770378113,-37.08076238632202 l14.382511377334595,-2.6443585753440857 1.8993568420410156,-0.2803698927164078 l0.8413305878639221,0.16570324078202248 0.5033843591809273,0.5758519098162651 l0.08846343494951725,0.7352805137634277 -2.135583311319351,11.779335737228394 m-15.305145978927612,1.8028514087200165 l16.289645433425903,-1.7881369590759277 m-15.576635599136353,11.498656272888184 l17.10623025894165,-2.9269379377365112 2.0587854087352753,-8.837506356940139e-05 l0.5033843591809273,0.6292304396629333 0.08846343494951725,0.8059805631637573 l-2.374814748764038,11.474971771240234 m-18.370702266693115,2.352897822856903 l19.35131072998047,-1.9401419162750244 " fill="none" stroke="black" stroke-width="1" /></svg>