<?xml version="1.0" encoding="utf-8" ?>
<svg baseProfile="full" height="98.1616365250747" version="1.1" width="107.60058165108799" xmlns="http://www.w3.org/2000/svg" xmlns:ev="http://www.w3.org/2001/xml-events" xmlns:xlink="http://www.w3.org/1999/xlink"><defs /><rect fill="white" height="98.1616365250747" width="107.60058165108799" x="0" y="0" /><path d="M25,25 m0.0,0.0 m13.549560697019391,4.280888096790919 l0.5528762648397638,0.15342386474424147 3.4751904384131436,0.21616660442522684 l26.028782840542654,-2.4721894715724995 3.1000033674075316,0.3545376715990058 l0.9469204259217265,0.8357402402585523 0.26683185317130764,1.3459513497458668 l-2.5439762101417434,12.955197614110855 m-39.456796548769546,3.7131785615430433 l2.584789344958286,0.43380046328583766 5.061198967069476,-0.06502879488161867 l38.15263209030551,-2.164576825317036 5.882568120350485,0.2748400188817011 m-29.134913327477864,3.7162737134633117 l-0.22683415502480436,2.1562770553767647 -1.617998349277853,2.539386396343062 l-6.265683919358571,7.275303637607802 -7.295076124464758,7.269834268463233 l-1.371122469246595,1.518684808465897 -0.08414735780898394,0.611952198045845 l0.6187974999756112,0.35802070979520967 1.4659291685809488,-0.04118312524247901 l33.645585401635095,-2.1703830820425027 m-6.150477407511286,-9.535457147666044 l3.3099888811757547,2.719566256606675 3.9528817713721596,4.07959049121887 l3.3735624650754947,4.474159760359181 1.7497929909156842,3.3276811906657735 " fill="none" stroke="black" stroke-width="1" /></svg>