<?xml version="1.0" encoding="utf-8" ?>
<svg baseProfile="full" height="115.05316658950109" version="1.1" width="111.25410370715133" xmlns="http://www.w3.org/2000/svg" xmlns:ev="http://www.w3.org/2001/xml-events" xmlns:xlink="http://www.w3.org/1999/xlink"><defs /><rect fill="white" height="115.05316658950109" width="111.25410370715133" x="0" y="0" /><path d="M25,25 m0.0,0.0 m15.996958719097215,14.026443235350259 l0.43787922523791695,0.1964595529772598 1.488393435841438,0.24713000287224735 l26.878091901044655,-1.0281524201317829 4.658382235378661,-0.10830024783699377 l2.3594018802143717,0.24560044232394093 m-28.764342568823196,-3.941539245913438 l1.0395650496543063,0.7947828058269021 0.3525994380924556,0.5430102935893946 l1.164267185677963,8.1538721808891 m15.008903320983974,-10.15259839836089 l0.650648235683721,0.7810790308664496 0.08738106648396124,0.8842604934497951 l-2.1099277564009817,7.556075283241764 m-7.256344517713781,-0.34424270657432643 l-0.1193852782306466,0.6446273935019764 -0.5498507970701257,0.5475671599381552 l-2.749306501210476,2.089385910858185 -3.285177831657276,1.724380312702744 l-3.6963443299729497,1.4231254410287575 m23.701869341131253,3.840958477346635 l-0.11773026559505825,0.4235504176545333 -0.4393602122484257,0.42556217721098455 l-5.181015242534177,2.5635336979520478 -6.504927381310073,2.0873683637251204 l-6.996801801337793,1.70130727035193 m-0.8170133050692622,-3.330652925738691 l0.5219291614022918,0.6726791041651439 0.2747119439060946,0.9165380109786107 l1.5975095972823086,12.497026282023947 m-0.7188337248119444,-7.953542419134538 l9.557350651627846,-1.4484760475462195 2.024050377756231,-0.006342426957596446 m5.695106629314607,-6.912971049432649 l1.8900434202863954,0.22293985819362325 8.850707246461555,-1.3093299598131973 l0.6325525834538376,0.1961045818553488 0.5573727887347197,0.5524256261178234 l-1.9839936863572474,14.21007399955485 m-10.162326785051938,-7.955623953065795 l1.9575938098077494,0.2164192832790989 9.521305191298785,-0.8470914162971213 m-26.786257870060574,9.070946843240625 l25.26520483430361,-1.3052254271815011 m-19.976503434227258,2.6565029362652153 l-0.34803055414686096,1.4256444645432977 -2.838516459590813,3.061324111906413 l-3.1863223907318026,2.392128252336536 -3.5814496255432635,1.966702077647567 m9.281269273768554,-5.852268401807762 l2.705120428250316,0.179694403731629 19.753735316283894,-1.632947037204849 l2.8067055085503787,0.08375851311518256 0.9393106035780489,0.2760813327687592 m-10.89618172618073,7.789108603295392 l4.438852865365326,1.1770436857586113 3.083987056574241,1.118689816949327 l2.4004252768056964,0.9020680171784756 1.5375749864857582,0.7056596628089796 l0.6364673937926165,0.6428115359320493 0.3768997501526046,0.7360705505393408 l0.18992002326261975,0.9087918694922703 -0.08339148328980785,1.1978420421557205 l-0.96112147882495,1.490716986785275 -4.131834734742668,1.0165982762211494 l-1.9937219860597133,-1.214060793883095 " fill="none" stroke="black" stroke-width="1" /></svg>