<?xml version="1.0" encoding="utf-8" ?>
<svg baseProfile="full" height="104.99680768882226" version="1.1" width="108.88698217225425" xmlns="http://www.w3.org/2000/svg" xmlns:ev="http://www.w3.org/2001/xml-events" xmlns:xlink="http://www.w3.org/1999/xlink"><defs /><rect fill="white" height="104.99680768882226" width="108.88698217225425" x="0" y="0" /><path d="M25,25 m0.0,0.0 m17.020015953028736,19.498283851910152 l0.34826663123185225,0.33814773280842425 0.4443083480997233,1.383813034301013 l-0.029625953542048986,22.136360323835977 m-10.03239347118484,-12.422115739658622 l0.49718987124327835,1.1511243770906943 -0.024716068177598995,0.7947133778307516 l-1.3818818499616399,11.174216104958647 0.6077745461805717,0.34192544066871094 l17.904108710990172,-3.2726483693565833 m0.38150710814268585,-12.58984804483907 l0.7383585178372409,0.882520513688825 0.2390491078301408,1.4411021272453088 l-1.0488272643561523,13.269284319625324 m6.799278756651199,-21.161016308016467 l2.8364158674611377,0.16579521269250014 19.89208031877776,-1.816827108696776 l3.696073042002024,0.12294307822620008 m-21.474066877700835,-9.852449175191417 l0.806007127532992,0.72948571495091 0.4199337849213716,1.2860160092216593 l0.840622215233233,41.39598121552609 m13.322054723471846,-41.17749474685326 l0.7695618268600222,0.7787013240713762 0.3066305105380195,1.2727182939312927 l-0.08947316807508567,37.37862359008698 m-14.465740394438914,-15.141642935149653 l14.183947475381562,-0.9967613888592621 m-14.314608518989422,15.56806180269395 l14.301168343381132,-0.8332903968779516 " fill="none" stroke="black" stroke-width="1" /></svg>