<?xml version="1.0" encoding="utf-8" ?>
<svg baseProfile="full" height="111.24999694713699" version="1.1" width="112.64996584628148" xmlns="http://www.w3.org/2000/svg" xmlns:ev="http://www.w3.org/2001/xml-events" xmlns:xlink="http://www.w3.org/1999/xlink"><defs /><rect fill="white" height="111.24999694713699" width="112.64996584628148" x="0" y="0" /><path d="M25,25 m0.0,0.0 m32.28086750267696,4.092684374819191 l0.04014053592058645,0.408466917426462 -0.18876465493694353,1.8865138147998277 l-1.5642274844551212,3.0986406000295266 -2.4422729496274553,3.5356862855873517 l-3.4180514605163017,3.7238531458836075 -3.3724834832888653,3.012455756571528 l-3.93192052663763,3.014766049175641 -4.488402023898879,2.8868783393081596 l-3.9152353136455424,2.188512760883645 m24.813759526022356,-21.137896806695338 l9.117851258624453,6.571104573001764 12.4507581148386,9.304614984541434 l3.668677817559799,1.5975648730430316 3.5992689876454658,0.8533789677547562 m-37.79570305957414,-3.1341389844738408 l2.5257061176384252,0.13946812637757325 11.734254414948603,-1.2958184401713224 l3.3821011721061947,0.05967700469879344 m-24.896700671229947,8.723714691185265 l2.1164218839002444,0.2537733148286329 1.996409567220189,-0.07703305658107534 l21.32203634850255,-2.0939875520728344 2.205070287954078,-0.049973015924958855 l1.1407686115190043,0.17501717911801273 0.6472097374020439,0.35486579852500016 l-0.7599645345212742,0.5960724273667487 -13.02065668518202,10.347772926181149 m-7.824952974612418,0.8373506278624216 l0.7516390978857659,0.7046423377777769 0.5359197324328081,0.9513781752233287 l1.354474499465374,6.2044053785517415 0.7613634374648002,4.6733362007524875 l0.25242416873148527,4.093783002437914 -0.5227704983476003,3.812177409096838 l-1.0001543724831135,0.9001068932644372 -0.6399363763836964,0.03618186698232771 l-1.3821784092832057,-0.5654086935556757 -1.739025022233332,-1.6776692732496246 " fill="none" stroke="black" stroke-width="1" /></svg>