<?xml version="1.0" encoding="utf-8" ?>
<svg baseProfile="full" height="113.36393039941896" version="1.1" width="106.75654825280911" xmlns="http://www.w3.org/2000/svg" xmlns:ev="http://www.w3.org/2001/xml-events" xmlns:xlink="http://www.w3.org/1999/xlink"><defs /><rect fill="white" height="113.36393039941896" width="106.75654825280911" x="0" y="0" /><path d="M25,25 m0.0,0.0 m33.753272276517926,0.43835302732029807 l0.0973369780540865,0.5808978426751427 -0.11448640380864693,1.9995189049603872 l-1.6149031459442758,4.6347237187488055 -2.124353113853541,4.596511381231478 l-2.848297541593671,5.041677467094455 -2.6533236387733754,3.992295858338415 l-3.0285398499086944,3.940835789330581 -3.428294621979438,3.9351051591616812 l-3.918206322713761,4.024409112692387 m20.685821084488314,-29.1889762624849 l16.405128750628332,20.507775771318414 3.552857520197338,3.7520551106669777 l1.9925362814985184,1.592733828354631 m-30.910732336020747,-1.248517988182583 l2.0907161803101295,0.23511227555991368 13.54616642764045,-1.8990569103360007 l3.1691473101314194,0.11627512965183316 m-9.112317343919786,-8.713557540345937 l0.5693732494541429,0.9561338219139838 0.3480124349978696,1.5782537312269065 l0.043933616694331,16.57948379929109 m-15.430595226573937,2.4831107966801844 l2.7209460738406768,0.2930806981853069 17.965356754551323,-2.350181660807252 l6.167842394132027,-0.6639338165771131 2.7633069527226692,0.09582556420655426 m-24.409761045521076,10.5831336224631 l0.559971876657511,1.0357441930798008 0.33335995252045086,1.1989308701792276 l2.024675202761677,13.236177103821182 m-1.6833480353542103,-14.02741932570976 l16.935317994793902,-2.9066606289593686 1.3659858803491525,-0.009047085309422742 l0.5142285502866133,0.21691836250874946 0.6420651144679418,0.9856815353515638 l-0.04693771609610565,1.754961019565764 -2.222227061827126,10.17210879389955 m-14.962376802057832,2.440482323031487 l16.408734125297087,-1.9450652844578937 " fill="none" stroke="black" stroke-width="1" /></svg>