<?xml version="1.0" encoding="utf-8" ?>
<svg baseProfile="full" height="110.87721545679918" version="1.1" width="105.26755808578321" xmlns="http://www.w3.org/2000/svg" xmlns:ev="http://www.w3.org/2001/xml-events" xmlns:xlink="http://www.w3.org/1999/xlink"><defs /><rect fill="white" height="110.87721545679918" width="105.26755808578321" x="0" y="0" /><path d="M25,25 m0.0,0.0 m28.299418489997077,12.922503125477462 l0.03501516812668054,0.33550006569365914 -0.20048930447391733,1.4822546871309343 l-1.5030266099914829,2.577432843211421 -2.247033153751375,3.0502309009832596 l-3.084571293948896,3.2016702033050968 -3.000101204526123,2.4943588299418242 l-3.5899569710141503,2.5066197004866475 -4.243064164594885,2.398880232059807 l-3.531460943967431,1.8053192174885204 m22.867785499886104,-17.847381291986768 l8.285601582687624,5.42602819578182 11.695359743549917,7.670458937474105 l2.40710595485141,1.3013549922009748 3.076975292952652,0.7564718732273843 m-33.87228959558884,-3.5430215488799064 l2.0495797198907337,0.08889795085669412 10.269955991082801,-1.0544086214856356 l2.953289697200177,0.03825671011116571 m-21.555531608560237,7.149819891039933 l1.898487704462385,0.20317320426231272 1.8609973136653872,-0.06494453676258463 l18.629778593430093,-1.7765795174333616 1.2247467444158673,0.12700300508172419 l0.95756949721513,0.2934511192017056 0.4425867359669906,0.4312622044498857 l-0.34659542803118826,0.6058004248372223 -0.8314351748874839,0.7713571544250332 l-10.963594096905311,8.029639717344548 m-7.268813387550718,0.5840213401844755 l0.6392306216701855,0.5820078770328941 0.4262194043904775,0.8011544069378288 l1.2311561586551611,4.868159829225853 0.697841693100973,4.534134461105582 l0.14244808835582518,3.110636417986022 -0.4642333660034295,3.140089474695509 l-0.8342079803303195,1.5414594984273124 -0.5351237547417761,0.31492523750279 l-1.2075652743247185,0.01921724417603288 -2.2499585032246108,-1.5756854968737835 " fill="none" stroke="black" stroke-width="1" /></svg>