<?xml version="1.0" encoding="utf-8" ?>
<svg baseProfile="full" height="96.0977935718485" version="1.1" width="92.50581006935916" xmlns="http://www.w3.org/2000/svg" xmlns:ev="http://www.w3.org/2001/xml-events" xmlns:xlink="http://www.w3.org/1999/xlink"><defs /><rect fill="white" height="96.0977935718485" width="92.50581006935916" x="0" y="0" /><path d="M25,25 m0.0,0.0 m6.686027357607479,3.9125203446711896 l0.4591306061243443,0.19149082461915287 2.968883214376431,1.853602679802654 l1.4746751402812515,1.3190434774648263 m-8.061271331814078,6.243242456066163 l3.3876066069811475,1.7430356815841008 1.672507517544085,1.3409281168487255 l0.6622333931968696,0.8105190385965577 m-6.340033691941756,19.010637703909154 l1.0040666664600122,0.4326413320608797 0.4743150137710314,-0.018222021282363218 l0.8016979653720631,-0.5592150780351718 2.122750971976246,-3.472685883274587 l2.295108617555195,-4.381212222435765 m15.240186102453398,-25.302352603931364 l-0.07289369831942694,1.4052370352873729 -0.4159034233276263,2.8658086599587986 l-1.4330041015941763,5.5811508217700565 -1.6517026140730433,4.40415841426624 l-1.3549854056084671,2.680458490657671 -1.7208632092084426,2.6661896967143153 l-2.014064929851976,2.4113506430796092 -1.7051008711571776,1.5906568311422582 m2.0798042304256525,-14.197800704916645 l1.4601204498480096,0.1392110752993083 1.8466225932165772,-0.07283656267609243 l13.205985853004792,-2.7754676621262955 0.5948521529279851,0.11082707527015902 l0.3582647547184442,0.3510251189783141 0.06307502791439282,0.5459124114670321 l-1.5598529386619115,8.759258791962683 0.13246787439532232,2.0329336647775156 l0.592647845023064,1.0130940956973746 1.342649291849652,0.4768507629948386 l2.3531864313913395,0.1519225019304182 2.4318163028782775,-0.1571506037966452 l0.9378781397811357,-0.31610958340209366 0.5620640356097248,-0.8043648965769663 l0.21225381965252166,-2.190405963530052 m-25.97867088311401,13.17238984216296 l1.4024540632238935,0.23145311641535807 1.7925438924729924,-0.06045910024461329 l19.307334131425595,-2.1178981744397345 3.085370337773065,-0.07623941732640564 l1.803576766799258,0.2510884627116331 m-14.275263390050707,-6.023895845743121 l0.6967758367469693,1.426875396328255 0.06133859761149151,19.498595331090833 " fill="none" stroke="black" stroke-width="1" /></svg>