<?xml version="1.0" encoding="utf-8" ?>
<svg baseProfile="full" height="105.79563230505539" version="1.1" width="114.52477091923011" xmlns="http://www.w3.org/2000/svg" xmlns:ev="http://www.w3.org/2001/xml-events" xmlns:xlink="http://www.w3.org/1999/xlink"><defs /><rect fill="white" height="105.79563230505539" width="114.52477091923011" x="0" y="0" /><path d="M25,25 m0.0,0.0 m20.892458624690917,17.85264802431571 l0.25064384410733304,0.3372944095730535 0.3376368185130123,1.2905781262097809 l0.016005557798935005,10.022228758443509 m-8.691768701118184,-6.582968898692383 l0.4412691391512225,1.0551266611133432 -0.6658750363980273,5.328819619896506 l0.160826934243838,0.5477585933167598 0.39606758848327484,0.16689622705032342 l15.050947398339426,-2.3266118038277717 m0.8046294230688061,-5.819185161760193 l0.3545985880755134,1.203408864657113 -0.572736215207336,6.2654368613737805 m-17.665060039167823,5.863371513898448 l2.5605906416861535,0.20915941813359604 13.922901473898525,-1.4895791826851248 l2.454824706203652,0.060897943932852035 m-17.327377844545758,1.677193835441741 l0.3550572805826326,1.1191581854666939 -0.20199185398631378,5.897458056193943 l0.7774687088253958,0.5976974579398167 12.291035158902718,-0.8392709347144103 l3.623133615413631,-0.12427092654820687 m0.5155830550801124,-13.381568070251168 l0.34901049134306056,0.5580590297119244 0.19151886725609754,0.7831203568568762 l-0.01962383495769128,17.21870104327055 m-9.365775058755327,-27.355522593492235 l0.38207094842714184,0.909033456693682 0.1283611570661129,1.503587344813044 l-0.31224446992710336,25.5207459709335 0.16467210668238036,1.9499111067265278 l0.3363480819457305,0.6983709052071649 0.5564766555938024,0.41271069799709964 l0.7701442102467146,0.0994693560906285 2.3514644362033432,-0.13135819943432184 l5.2665194477102615,-0.42548005379330717 3.591487309749654,-0.39556572621502173 l1.125589837991186,-0.36762534591177964 1.0874265319293364,-0.7630584579246148 l0.5200881110085983,-0.90640069138963 m3.8306978543331427,-27.44476968907535 l1.9329320410442479,0.21577411594643692 1.9231475875950987,-0.09283078701488351 l10.298878849602433,-1.6773770325183675 1.2844859286902555,-0.021622049560825165 l1.0922204006692653,1.0338714142547678 -0.005907114059064762,1.1356624429035196 l-1.4993723055989268,9.658828684106501 m-9.863669452503778,1.4759778516518989 l11.41604572731711,-1.106849771173752 2.3968849242467543,0.04781441955568835 m-15.091699331903955,-9.939884244378753 l0.5600519147199898,1.192996891153437 0.15315463454064157,29.299033904014674 l0.3628768924296281,1.629514177390662 0.7219434183701262,1.057246512670903 l1.719157090414739,0.738268381068706 3.2604840027305837,0.3536013054423379 l6.489033562351085,-0.04779033270371803 3.5094510199885725,-0.46668332199904805 l1.3851651692942546,-0.5596837891795841 0.9814644691775695,-1.0230796233140598 l0.3784628691048449,-1.6192891048719171 0.0844770705205224,-2.4048791773529503 " fill="none" stroke="black" stroke-width="1" /></svg>