<?xml version="1.0" encoding="utf-8" ?>
<svg baseProfile="full" height="108.5746185078917" version="1.1" width="103.76022084892736" xmlns="http://www.w3.org/2000/svg" xmlns:ev="http://www.w3.org/2001/xml-events" xmlns:xlink="http://www.w3.org/1999/xlink"><defs /><rect fill="white" height="108.5746185078917" width="103.76022084892736" x="0" y="0" /><path d="M25,25 m0.0,0.0 m23.813998450615923,3.8407042287374997 l0.05112096739605192,0.439539954976449 -0.2900810443741501,5.094069549416131 l-1.1374384084576628,5.368088046297797 m1.9974981488342618,-9.676685406251742 l15.839210384243378,-2.5677819886833517 5.984756312425557,-0.5593229460528818 l2.8811628537568827,0.008604296139787857 0.7409411933649197,0.35779114331707873 l0.28534840828798214,0.5781203652893261 -0.09640651223659831,0.7363332894578076 l-0.8795799533729898,1.7290709298713716 -1.7170108442677983,2.2440895671638184 m-21.651755019894367,5.016091122621639 l1.3613803182831075,0.19007605026034327 12.273757828166767,-2.2655350538128247 l2.85579174817139,-0.22785654506474443 1.4936644545277378,0.22289397798466476 m-19.480631239101076,8.716202475301685 l0.547760479947967,0.8516733449592585 0.22701375669516807,0.9401984863763999 l1.6418018013902862,17.431444226478323 m-1.3018398669392213,-17.938981467168045 l16.12923274018239,-2.566227429830145 3.7513410253946686,-0.3180655931257261 l1.2682243263445208,0.33119289537053 0.409330741954509,0.924757617111949 l-1.0201723557178595,9.60859969287438 -1.116851620925617,6.61106874000795 m-18.401040191878106,-6.478811065008766 l13.326667490323205,-1.8758426833788437 m-13.405425241350711,10.117640303701036 l10.875579080965538,-1.6177382747171825 7.457230820572401,-0.6408634528580729 m-25.240636417899236,10.85070147154419 l1.3046205573280074,0.4336337843087697 1.5010518023529147,0.05120932059969397 l25.844312268716152,-2.570364615159665 3.948474987249456,-0.15928830972368427 l1.6878166178516014,0.3677783759407799 m-18.544444849670118,-38.561979066147686 l0.6531495005402167,1.9445167261698988 0.40927711203007044,2.284128658489711 l-0.1188136908298075,49.309743764106784 " fill="none" stroke="black" stroke-width="1" /></svg>