<?xml version="1.0" encoding="utf-8" ?>
<svg baseProfile="full" height="107.23881533431235" version="1.1" width="103.68731226181285" xmlns="http://www.w3.org/2000/svg" xmlns:ev="http://www.w3.org/2001/xml-events" xmlns:xlink="http://www.w3.org/1999/xlink"><defs /><rect fill="white" height="107.23881533431235" width="103.68731226181285" x="0" y="0" /><path d="M25,25 m0.0,0.0 m30.681600593626676,5.758090816703435 l-0.03579317367138141,0.42561821863965527 -0.7043014304395726,1.213502757595616 l-1.1360726070403984,1.1333547363235434 -4.825631235703807,2.80607815508691 l-6.001854063518751,2.376377330768652 -7.412091574450839,2.058509440567779 m-4.663389735469338,10.38361406606649 l3.5123712366510844,0.3348801383297593 25.215133538664933,-3.182628876574837 l3.5199452101306514,-0.24802554463208581 2.6561105412661843,0.2250435443580868 m-40.68043434078808,16.37583849085941 l2.2176680389395944,0.35876852056419034 2.0889101829244643,-0.05315162642575139 l33.43500480120264,-4.670915028998424 4.37023858472332,-0.387567777692258 l3.398968339950225,0.21049373183105963 m-26.385099030339962,-18.35190907443005 l1.025249791904636,1.0993797010645066 0.45953044729860504,2.095204589519023 l-0.35210912390545396,28.41581942883073 0.3305598702478671,4.153414443795273 l1.1130755908063543,1.97515119251961 1.134754430898218,1.006836051627607 l3.12654482440034,1.231281262631749 5.056964999060685,0.4957566453826793 l10.131810642313951,-0.10141765739316316 5.2996103727423645,-0.6084443988321712 l3.777876652714134,-0.9642872877813431 1.9826512254530015,-1.2564382479777214 l0.9847190498388411,-1.695100450730281 0.36478961138164845,-3.034793089874704 " fill="none" stroke="black" stroke-width="1" /></svg>