<?xml version="1.0" encoding="utf-8" ?>
<svg baseProfile="full" height="105.94680200409476" version="1.1" width="105.04066767013632" xmlns="http://www.w3.org/2000/svg" xmlns:ev="http://www.w3.org/2001/xml-events" xmlns:xlink="http://www.w3.org/1999/xlink"><defs /><rect fill="white" height="105.94680200409476" width="105.04066767013632" x="0" y="0" /><path d="M25,25 m0.0,0.0 m30.26232233627152,4.143698460771744 l0.08991138396571288,0.49437928521402646 -0.13350526681691183,1.8963272808481035 l-1.5334618010080465,3.969485503011332 -2.2186808798659174,4.3397811828658 l-2.824986596080022,4.72970404201609 -2.520261023830109,3.8725459220837126 l-2.9128931177168607,3.959965497810614 -3.26141355648772,3.877956807327217 l-3.7599345556890666,3.906045395675571 m19.82569136152742,-27.667152145093613 l14.611642667330965,19.475159174049175 3.667765601429932,3.805159892983583 l2.128918235719597,1.7678226434114312 1.9279418719262558,0.8171223061515184 l1.6916110094595789,0.3383788164075172 m-31.38940911142005,-3.411279943989396 l2.5082312659902484,0.23042840275547727 11.477409946878467,-1.5393640030570677 l3.3410966052028814,0.07767322685080218 m-20.182262554270675,10.997000300737378 l0.8281477185842756,1.5718579328305327 2.276778337432914,14.294106022433205 m-1.7248519441770782,-14.93309418219166 l16.578459972426327,-2.4572807488379147 5.177806817381687,-0.486269789960949 l1.1807041237172533,0.8737714163186107 0.14611302119976174,1.3354167638681076 l-2.5773465863011538,11.675223496909357 m-19.0709859904128,2.2472140587108855 l20.077458769529837,-1.6039504837670682 " fill="none" stroke="black" stroke-width="1" /></svg>