<?xml version="1.0" encoding="utf-8" ?>
<svg baseProfile="full" height="109.49251239188015" version="1.1" width="108.72674760292284" xmlns="http://www.w3.org/2000/svg" xmlns:ev="http://www.w3.org/2001/xml-events" xmlns:xlink="http://www.w3.org/1999/xlink"><defs /><rect fill="white" height="109.49251239188015" width="108.72674760292284" x="0" y="0" /><path d="M25,25 m0.0,0.0 m4.452100098133087,12.018729448318481 l0.6329695135354996,0.13377980329096317 2.6215744018554688,0.22282831370830536 l3.2650762796401978,-0.15481825917959213 31.00837469100952,-3.036504089832306 l9.11231517791748,-0.2987165004014969 4.329538643360138,0.3570593148469925 m-40.357842445373535,-6.806036829948425 l1.1307153105735779,0.7924860715866089 0.6088467314839363,1.1212021112442017 l3.4791454672813416,14.437260627746582 m21.918482780456543,-18.787269592285156 l0.22546673193573952,1.8292582035064697 -0.22547205910086632,1.3016137480735779 l-4.696817398071289,14.43853497505188 m-18.26540231704712,7.306160926818848 l-0.04261841997504234,1.3872328400611877 -0.38868341594934464,1.1959489434957504 l-2.7411693334579468,4.405645132064819 -4.544605910778046,5.729002952575684 l-5.329447388648987,5.547232031822205 m7.8280287981033325,-6.262423396110535 l0.5854034051299095,1.0359228402376175 0.19395947456359863,1.0515516251325607 l-0.08350487798452377,20.52683115005493 m36.53080463409424,-33.22563648223877 l-0.29346615076065063,1.2292452156543732 -0.6516563147306442,0.9819012880325317 l-2.3212282359600067,1.709323525428772 -5.0868600606918335,2.823900282382965 l-6.259025931358337,2.649264633655548 m-3.4791240096092224,-13.91649603843689 l0.6859718263149261,1.0311661660671234 0.35761676728725433,2.273322194814682 l-0.018928247736766934,24.939780235290527 0.6753543764352798,3.098934590816498 l0.9637242555618286,1.5839527547359467 2.0188434422016144,1.318601667881012 l3.920470178127289,0.7114112377166748 7.28373646736145,0.06531320512294769 l5.173838138580322,-0.5843416601419449 1.983848214149475,-0.720287412405014 l1.6169093549251556,-1.4619795978069305 0.7354066520929337,-2.1088792383670807 l0.1740783080458641,-2.835961878299713 " fill="none" stroke="black" stroke-width="1" /></svg>