<?xml version="1.0" encoding="utf-8" ?>
<svg baseProfile="full" height="115.14151419672766" version="1.1" width="102.58163873715608" xmlns="http://www.w3.org/2000/svg" xmlns:ev="http://www.w3.org/2001/xml-events" xmlns:xlink="http://www.w3.org/1999/xlink"><defs /><rect fill="white" height="115.14151419672766" width="102.58163873715608" x="0" y="0" /><path d="M25,25 m0.0,0.0 m9.650229898151574,13.21471816449337 l0.5375093326398698,0.14779217860639757 2.185879016002043,0.0961402223340747 l31.870539625150737,-2.4601585780812227 5.4825154368233076,-0.1991607944324028 l2.8549654283885526,0.26407588600402426 m-33.263885413694894,-5.147886626598351 l1.0899032215201725,0.8699326022740784 0.3697325455369228,0.6332331974303843 l1.3373790272624821,9.944665450688166 m17.09788585857653,-12.332188144771564 l0.7699012935183055,0.8802763939856568 0.19762872624255087,1.0281097823197163 l-2.1071324497722284,9.568044971264666 m-9.285366183958343,0.07683260015585257 l0.0064760647762775155,0.7371800878244092 -0.4766704762433389,0.6424704787785858 l-3.432367353911663,2.525014353810236 -4.163562212651566,2.119689097675312 l-4.960748577670749,1.8241483171438395 m-1.3707407479617868,5.0316438804721 l1.2276445665781264,0.6813614922592642 1.63331000517744,1.4844053553680783 l1.3984837800715526,2.5091284203134103 0.5018644912864636,1.6239182394354046 m6.916468521744969,-11.11259005359346 l1.746843031776899,1.3915621858026685 1.9595032006857076,2.2364457323893183 l1.4284810469812799,2.130988029477502 0.8195632811945881,1.7142705874219388 m11.025196363576383,-9.330674014583089 l0.05017463695151781,0.9305429667158264 -0.28842359636147563,0.9851364818952242 l-5.697986235126306,3.001417675377448 -4.948597251302212,1.896650824644982 m-2.5139900213825475,6.683248230442212 l0.5939304259125017,0.647339667378827 0.12669146479380217,0.9335595243602015 l-0.03493916052780919,3.342722809915665 -0.6068998786667925,6.051859041894463 l-1.1151545993110186,7.460184499312552 -1.1191304481078848,3.4461358441026935 l-1.4064604274450194,2.6521417184707943 -2.407565177914761,2.4290133247907604 l-2.914248098984064,1.8881720917576497 m13.607248290754269,-18.924391315937903 l5.631204033068351,6.088428752425108 5.413553803379146,5.345320114531878 l3.75275158345382,3.1717642895184217 2.175811282698661,1.5530363105431482 " fill="none" stroke="black" stroke-width="1" /></svg>