<?xml version="1.0" encoding="utf-8" ?>
<svg baseProfile="full" height="102.61545717588203" version="1.1" width="108.6867876227042" xmlns="http://www.w3.org/2000/svg" xmlns:ev="http://www.w3.org/2001/xml-events" xmlns:xlink="http://www.w3.org/1999/xlink"><defs /><rect fill="white" height="102.61545717588203" width="108.6867876227042" x="0" y="0" /><path d="M25,25 m0.0,0.0 m30.328900773789623,3.26344079551227 l0.44247786795963073,0.21446346857667847 1.5924638466737466,0.9658266879335764 l1.529445511649135,1.2611216813026755 1.2185397468037231,1.4216477024932055 l0.5763708596168912,1.2064777083254603 m-21.183565381289412,3.591572643962885 l-0.7900154347951901,4.206746341809839 -1.65551280914855,4.9735348623017 m3.4197310355730774,-7.983398094396533 l32.355744633339164,-2.8472842867648844 6.847608230083973,-0.40182598984807055 l1.1170270226499779,0.2785083997889506 0.5328005588454906,0.4466914154512099 l0.060330301184626046,0.5807004348615433 -0.29915009192526604,0.6639299244047514 l-1.3631344582994138,1.4465675235733706 -2.5240421690769757,1.8467290608083975 m-29.376757324384872,4.774102189189484 l-0.27599999893523514,0.8605097347674524 -0.9002189021655188,1.909989828027512 l-2.4191965570508707,3.334355876325806 -3.233888475216556,2.9302242392406956 l-3.9534446932049807,2.634876227573262 m24.854558502594276,-15.568614543348186 l0.9416267600556986,0.8166586283649987 0.4439386557692361,0.9967720890531501 l0.14913798993017754,7.350097171134365 0.3891367424121174,1.6225027154887968 l0.663124416995858,0.9624213750313433 1.758663490281548,0.9636301220941131 l2.4550113455073386,0.2928418189777866 4.824403627574225,-0.0820111123334064 l4.58564821164355,-0.44244691020099186 4.180178337085492,-0.6765233754966791 m-38.076344279182045,9.171426406110058 l2.711581371698438,0.31322520534288595 24.03676413885495,-1.7476101064965204 l2.7226960463413294,-0.03506277603079101 1.8161189543354133,0.2687246957380667 m-16.109740933324115,2.0062402875999283 l0.6040241684691003,1.3538068586639218 0.09765775970394279,11.693276524951358 m-23.115191572973426,1.2849999692945235 l3.5179588367454167,0.4915937567220691 22.929891204745914,-1.7494775298102927 l15.917273259965532,-0.8980099961264789 2.160730399873909,0.038190443829759724 l2.1814260949241153,0.4440969824259976 " fill="none" stroke="black" stroke-width="1" /></svg>