<?xml version="1.0" encoding="utf-8" ?>
<svg baseProfile="full" height="101.63482638108006" version="1.1" width="100.08604188491258" xmlns="http://www.w3.org/2000/svg" xmlns:ev="http://www.w3.org/2001/xml-events" xmlns:xlink="http://www.w3.org/1999/xlink"><defs /><rect fill="white" height="101.63482638108006" width="100.08604188491258" x="0" y="0" /><path d="M25,25 m0.0,0.0 m11.868005216334767,17.16878916358172 l0.46822115512937623,0.13243550525206207 3.4753225922274726,0.07349123679145926 l27.222742331101347,-2.3534110624419347 4.306794722821903,-0.14724369805641346 l2.7449558672977057,0.24966734051809053 m-29.700489650894703,-4.078321579085215 l0.8314754580402697,0.8063084236465821 0.31681207830512886,0.6255551427414364 l1.256779188798962,8.226818904763489 m15.668955191189372,-10.546499571830667 l0.5848431161364828,0.8030093432889099 0.08591201443433433,0.9151460423498449 l-1.7347431526332693,8.097585573341266 m-9.02137180323671,-0.0829807630757057 l-0.07605980835580677,0.6408309111326695 -0.4775309060771339,0.5200461780470247 l-3.054926762759793,1.9534286050855738 -3.895341912391318,1.719246163899734 l-4.705246682570354,1.4816862453352868 m-1.914111154267369,4.411058464583106 l1.2407716401653073,0.1467113534924938 1.7388465435704192,-0.05442433774872193 l16.215074970053067,-1.9825249520035508 1.9247122011382825,-0.10211073112660507 l1.450816146627309,0.20689180304865426 m-26.389723418540374,8.514313278269595 l3.3264077383657398,0.19232475074337096 21.421834535192268,-1.6467855578048545 l6.037365043947361,-0.22930346644436167 2.696094787950037,0.14921850254317456 m-18.27429860711981,-16.655667565152907 l0.6081124509552466,0.7940941452548028 0.2702205774010405,1.2595428771396693 l-0.06973462715410769,30.42589971100097 " fill="none" stroke="black" stroke-width="1" /></svg>