<?xml version="1.0" encoding="utf-8" ?>
<svg baseProfile="full" height="103.57663416807605" version="1.1" width="100.92524526746865" xmlns="http://www.w3.org/2000/svg" xmlns:ev="http://www.w3.org/2001/xml-events" xmlns:xlink="http://www.w3.org/1999/xlink"><defs /><rect fill="white" height="103.57663416807605" width="100.92524526746865" x="0" y="0" /><path d="M25,36.98884944661694 m0.0,0.0 m13.072955356583238,9.51527714143393 l0.5647525785739316,0.14721715481532083 3.7289328396369297,0.1255094163251399 l23.099878787582185,-2.219759070441601 3.7912150969540805,-0.12249721070395501 l2.6625281467334863,0.29503438934765575 m-36.35105918852873,13.299010156112043 l1.904621944941961,0.2523751846948228 2.2200513491304252,-0.08722434996968943 l28.209240281079516,-2.4920686583762666 4.394731038453039,-0.10631525704000473 l2.622512829049791,0.22078183766380674 m-48.61377297819365,-8.325932754017193 l1.076823117506353,0.5345188846207705 1.7243119116893597,0.12246246012486954 l33.4667925256604,-2.981486556099221 7.760212993419696,-0.38718549457178264 l4.142368362693083,0.116139284018272 1.4481482745035672,0.3989271969033412 m-27.487990783326303,-20.293633201457208 l0.7740632737099337,0.7761560804321211 0.44289809408019787,1.4316978671171405 l0.021319550385196714,20.524519366922515 m-12.73709552034259,1.0871659853427795 l0.957067538510725,1.7868006258593627 0.12992902570869622,1.3001866738751668 l-0.5292730688408372,25.86468013722202 -0.07624901658917277,0.8054274313049412 m1.9407820104058418,-26.421897482953735 l24.07561130373795,-1.8054527987244897 1.8185701171876227,0.10466247247046438 l1.2151513802486749,0.5359499587695216 0.3672607347986696,0.4329760094179201 l-0.6442231814975052,1.0970843523751745 -1.6673220134041395,21.98103068181992 m-25.65072530502457,-14.17559706014304 l16.20300159961343,-1.2134644605131621 m-15.984220434814796,8.943029785386384 l16.073454972089376,-1.136876247558734 m-15.816108697048493,9.798619077493214 l24.468872879555928,-1.3729632831648944 " fill="none" stroke="black" stroke-width="1" /></svg>