<?xml version="1.0" encoding="utf-8" ?>
<svg baseProfile="full" height="118.28012021718214" version="1.1" width="101.43836682100371" xmlns="http://www.w3.org/2000/svg" xmlns:ev="http://www.w3.org/2001/xml-events" xmlns:xlink="http://www.w3.org/1999/xlink"><defs /><rect fill="white" height="118.28012021718214" width="101.43836682100371" x="0" y="0" /><path d="M25,25 m0.0,0.0 m15.071349700518246,13.349772003346605 l0.4209241068412646,0.14894258401121366 2.5961990333314438,0.08277219642144681 l11.468856347351597,-1.8542111562228791 10.136779448253403,-1.0690107007180303 l3.0802817067209776,-0.13123477781973278 2.269492410895914,0.46047378082630575 m-23.57177417178797,-4.989660920546921 l0.6102430251745142,1.8305989732990469 1.3664626164515743,10.395767957000459 m12.860615912281066,-13.912702843631596 l0.09418435527162022,1.666615498665053 -1.7499218159355285,10.57548939980941 m-20.365723504412426,7.517438507899837 l3.429803798686027,0.29400134149393253 10.376894182681255,-1.5724793441900504 l12.120307358382703,-0.9908885702331682 4.177529783885167,0.324690244968633 m-23.40285525893598,3.307639311377606 l-0.13123361497034688,0.9856488594340231 -0.39524409814259953,1.1591155700629547 l-2.09125237785379,4.172220699383682 -2.4326285483003316,3.4831119455070696 l-2.8908716509788825,3.0184084862539686 m7.5935224558400245,-9.076925693658858 l0.9921884280986141,0.08787236205912043 4.470714214177533,-1.3981854189444445 l0.6952800817868611,0.024103667301699674 0.3976191211083639,0.39238652620710085 l0.17968303031792493,0.6682008683413737 -0.43348423419051324,2.8550667555684472 l-1.0601302121566798,3.351204848940182 -2.733930156778109,5.747567657538145 l-3.274596464168014,4.8880262537592785 -1.6412115008976835,2.006211692281766 l-1.8158887781236945,1.898559953515322 -3.732581399972623,1.703114433224327 m6.089161131989383,-14.71429703144052 l1.7804884202275555,1.9136627233820285 1.130554846457224,1.9219527669039944 m23.047973417773328,-11.514518724233227 l-0.3468644473288456,1.0989640191553252 -1.4531867314422922,1.671434409534721 l-1.925027863711312,1.6022333998088212 -2.580211555839052,1.6266926978367318 m-2.1062259395134717,-8.965408263731504 l0.4559048377042141,1.4586447005390024 0.053887219465399684,10.624874273501531 l0.35276817644446445,2.052591574441591 0.8185638101821443,1.941969173697008 l1.0888605079633022,0.8024641689629138 1.7118247721167859,0.3958097878639461 l3.7525761308130847,0.032236870422538755 2.135333764412616,-0.30937165847315656 l0.8654755749466873,-0.4279392367563498 0.848719893959198,-1.0214208724625817 l0.35697070552908494,-1.0285135192253585 0.24844847839627096,-2.062738582466043 m-35.93939287599676,14.960370815025433 l1.8673429619925208,0.32579591721189005 1.7678428604788345,-0.04293734614913847 l13.205707046325466,-1.5868500759077635 13.3561172991519,-1.0988335966851044 l5.8473146637731155,-0.17340204335569329 2.3218363842819447,0.32771383566353746 m-25.485363989837488,-5.042042221683769 l0.4004797758236059,1.483254764820025 -0.19462453116607997,4.898892100088362 l-0.5815417963397199,3.9655097887583524 -1.0019381317768978,3.6234522678549084 l-1.227945941054493,2.7582549298572454 -1.1748947920049446,1.8466226886801067 l-2.001182981859351,2.2275951341997104 -1.8228731293837903,1.3076776290102847 m19.634094341025328,-22.905128336506277 l0.3861782055476992,0.8969049634568296 0.1371956428122166,1.076799529381625 l-0.03331338745540311,19.786975233594944 " fill="none" stroke="black" stroke-width="1" /></svg>