<?xml version="1.0" encoding="utf-8" ?>
<svg baseProfile="full" height="171.11543021219197" version="1.1" width="115.87198988269279" xmlns="http://www.w3.org/2000/svg" xmlns:ev="http://www.w3.org/2001/xml-events" xmlns:xlink="http://www.w3.org/1999/xlink"><defs /><rect fill="white" height="171.11543021219197" width="115.87198988269279" x="0" y="0" /><path d="M25,25 m0.0,0.0 m20.84741449207624,8.64902035373871 l0.0654824161237029,0.5016204372060802 -0.4964620524156653,1.320904420124847 l-2.5977225420500196,3.1826891506343284 -2.8444651471523854,6.451904479636841 l2.1494159824695602,0.7845251419204294 10.996217423764838,1.4217699363214755 m-11.972445685456806,-7.788343046985216 l2.596827401325602,-1.1412275290352658 7.677697787715175,-1.7584320797042934 l0.9716717257825978,0.2034329198146804 0.28167806328214356,5.206071809153806 l-1.4748850820193586,5.41321377521575 -1.4006803623424762,7.099912841296843 l-1.3193344461928806,4.269061604850098 -0.7942164947894483,0.6986120791601265 l-0.9116730534423279,-0.07231064469010705 -1.0666588594105375,-1.297968772095407 m-1.0540179298288403,-16.69883136951381 l1.9302773103432742,1.307815063767919 1.1428565363831649,1.2740121526893262 m-4.270696431114905,5.361780285370826 l1.9734484677251865,1.4779216516313955 1.2262755577225486,1.515080072365338 m-8.879591940963394,-4.710244722308484 l1.1027401448461196,0.3075358138471001 13.00670934598803,-0.19411977186380033 l3.896186127373969,0.18962978143867565 m-16.209975498657784,5.9516355222669475 l1.972754787128253,0.14581391515832964 9.939759086916085,-1.169664791007251 l2.5539267337367044,0.09860399896506808 m-14.11975393314791,6.094541537592445 l2.1114666902251575,0.1424934916342007 10.283173201484823,-1.299255347059332 l2.052101765284539,0.12522532779755133 m-7.302839447285073,6.394019431778184 l2.79728793119041,1.3701085054602906 0.929600823303173,0.9759552538565538 l0.2947570582459907,1.064815351457405 -1.6137382927584105,1.2316026486036158 l-1.7691730952727869,0.9193576449250931 m-0.2675688479425208,-8.832787195482377 l0.1450383054352892,0.7934700639352269 -0.2658296109458787,1.2429344192198004 l-1.448128588851854,3.2849742222293776 -1.9050936968866472,2.8291757687655177 l-2.476943305605933,2.6475931863203597 m18.788662036363323,-10.566216620514467 l0.16078381828276914,0.9440516936200541 -0.41710505740099685,1.1498846119608086 l-3.5360741867542544,2.1750554003256695 -4.127277117282257,2.1189723540411807 l-5.591118494936054,2.0880344879285184 m-0.4798324227491754,-26.168680760283376 l0.5081243020220804,1.2786844094289076 0.07852743152019157,25.22878309650653 l0.755950440687089,4.245503843900808 0.855665910815287,0.5591215570820393 l2.059498955132664,0.36113029497138044 5.085850194253406,0.07086084811049112 l5.519997555073793,-0.18803538106207526 1.87286091689917,-0.41388248330184796 l1.7002380754719242,-0.8642578463192133 1.0365007970587319,-1.1230360447470906 l0.5758125230726255,-1.8579052484511105 0.11199541567626836,-2.1385338345935745 m7.2304398802337975,-34.935873211798935 l-0.16547642729588016,1.92877896967843 -1.826182997304655,3.0205405270413492 l-2.2893466397278206,2.7108635671379036 -2.8650927494385368,3.433275058413211 m4.971385029304221,-4.113133140467515 l1.735791945672562,1.5630348303944075 1.289620139758375,1.8925469119645661 l1.1370529816151786,2.010305971736687 0.8102505688815048,2.0146602885404765 m7.461908180671332,2.2104476317389654 l-0.16860901888952598,1.6532097753635195 -0.30194711552190046,1.201194812020016 l-2.5941659031099626,5.517429505771971 -2.4409733230419293,6.303462173465982 l-3.8718867640403625,5.1630162728897115 -5.434599815371661,4.078211833293378 l-3.1055152902432237,1.6804288460354389 m6.182490703609864,-23.24607556986357 l1.0195151288515225,1.7819388158907572 1.502926537870709,4.563191096222417 l1.9180274414882352,6.901534843984963 2.015950128396975,11.816084000895525 l0.714508736741463,3.9966092635813655 0.7157776708197828,3.203775171574968 l0.8067354089734009,3.157212839041288 0.9393217602176779,3.1989093170861698 l1.0241491479243097,3.2371206167969984 1.0333625925091534,3.237996992672703 l1.0384034697485875,3.2271273602971964 1.0420403712181265,3.1819865944565353 l1.0573953243213892,3.138645069366638 1.0929305316240039,3.0570787895522358 l0.8400187377406129,2.9837820350761493 0.6675457772560262,3.119608179026099 l0.49536812086294335,3.279125343427494 0.3544496397959871,3.364752607554603 l0.22908998373542663,3.3500585331501784 0.13854233295336726,4.152977788624799 l0.028855739336373747,4.926158339110275 -0.09211499394281102,4.474693179428728 l-0.23066593269894872,4.189324438542357 -0.42025643870073437,1.1112891237571159 l-0.5118833886541023,0.4230515608657594 -0.619440101076558,0.0698900898438009 l-1.3267061707450092,-0.7278357555502096 -1.41987108616617,-1.7154658897465291 m1.7667817829689019,-32.93329366669467 l-0.020557268337475128,2.0182532065227656 -1.2050378725737776,3.4022260338525676 l-1.9237181238464556,3.800655388125485 -2.557507940284996,3.9100902603665326 l-5.109298254634931,6.3257406749418115 -3.272597893280954,3.2552274519320346 l-3.440989583300871,2.7773221815766083 m12.773266597931809,-43.885341646099825 l3.278966372105556,2.7930569596600976 1.8332681120546004,2.3009317369120565 l0.7338460631791279,1.6248767862189677 " fill="none" stroke="black" stroke-width="1" /></svg>