<?xml version="1.0" encoding="utf-8" ?>
<svg baseProfile="full" height="99.68451973859646" version="1.1" width="96.76498327242791" xmlns="http://www.w3.org/2000/svg" xmlns:ev="http://www.w3.org/2001/xml-events" xmlns:xlink="http://www.w3.org/1999/xlink"><defs /><rect fill="white" height="99.68451973859646" width="96.76498327242791" x="0" y="0" /><path d="M25,25 m0.0,0.0 m11.560173632437886,15.055872446880318 l0.40486415254781694,0.1276060540757964 2.669661757557507,0.10760220491414552 l12.360603132057975,-1.2861122021511078 11.764282791836635,-0.721090681820027 l3.499078601043362,-0.04403724566883408 2.6137149517143103,0.37622826341801463 m-24.99782839891973,-3.939728625406165 l0.7687526355878511,1.337525473950003 1.0954510786173468,7.731877195040121 m13.264097243044016,-10.335891475059405 l0.21500002869514578,0.8345990403232703 -0.0711926655905666,0.9213693955986894 l-1.509052971516864,7.255472033728585 m-6.8359748808424925,0.2822197192841387 l0.6267365921832747,0.4995930494687988 0.37838578658245703,0.7963384990580077 l0.007221680719621365,3.495570992191046 m-13.566901523120794,1.4503489880491516 l2.6078806414815947,0.20662968269331897 20.151930698161024,-2.085128133347091 l3.2998916414108805,-0.12847189984398927 1.6829611219941487,0.2579278161188448 m-21.92248986814647,5.124368147620011 l0.545145361738956,0.592263037874477 0.49378255523237174,0.8318505785121877 l1.0714217762087308,3.9934319028884633 m-0.6342350140847691,-5.038491391811204 l10.735887486563204,-1.163135825753987 2.4486347136631914,-0.06278579591632906 l0.448814634679371,0.24285860775587642 0.2198961380682519,0.46951026770717647 l-1.3040125074451827,3.6026173741154075 m-11.924892139363036,1.534512956432001 l12.664648447479996,-1.0780178025782994 m-22.46924658570281,5.504373200872381 l0.7697719003480694,0.656783002484263 0.5744545952195745,0.7636229269962582 l1.8229316234759259,11.514437959902152 m-1.5923845773937924,-12.0618103103753 l30.570414605362373,-2.0965970253132626 1.5151365869396929,0.17881243770962815 l0.6253012357026372,0.566706266828561 0.11626457619923393,0.471472859398581 l-0.20141321730542106,2.4396441983508 -1.015310084351314,4.8766140056028 l-0.8223869066045808,3.881492721231954 -0.7658264249966614,1.1633426729011436 l-0.4829354944167314,0.09410590731454747 -1.0436842296660516,-0.5106493665419978 l-1.0978479711755813,-1.0988118688103157 m-18.8693862932406,-7.2795509300315135 l0.5195789683442623,0.8763704379513 0.21616231735599822,4.899605569911355 m-0.19298446577311518,-5.2042337426044964 l10.661058383344647,-1.3185289198908048 0.5042332927133906,0.1955100862091345 l0.26039574760089834,0.7679152676822365 -1.3115510176242795,3.7969278204818577 m-9.467196146995324,1.1061075332636905 l10.235825920052598,-0.8485785384148661 " fill="none" stroke="black" stroke-width="1" /></svg>