<?xml version="1.0" encoding="utf-8" ?>
<svg baseProfile="full" height="114.16525996808974" version="1.1" width="107.22248838067014" xmlns="http://www.w3.org/2000/svg" xmlns:ev="http://www.w3.org/2001/xml-events" xmlns:xlink="http://www.w3.org/1999/xlink"><defs /><rect fill="white" height="114.16525996808974" width="107.22248838067014" x="0" y="0" /><path d="M25,25 m0.0,0.0 m30.681203858778055,14.082122093359839 l0.40098448155612615,0.3524147834662543 0.48002414895244994,1.2959648439326221 l-0.05412718276428819,5.141693351399274 m-20.851531280528505,1.6970055499443555 l2.1368432931683734,0.1571148461393596 2.4570501208309414,-0.060211752147133285 l18.605727820335442,-2.366277159529571 10.021033193273905,-1.0694445589341355 l4.903952241226331,-0.2190103433049698 2.6823483444766083,0.3627316888400734 m-22.836640640406138,10.518333059003172 l0.10792744934634876,0.7651095432927163 -0.21902570481361727,1.0215126224184015 l-1.2205592988325606,3.1569716506425 -1.7678301075506093,3.6912382635700105 l-3.7931970539762108,6.251675374857164 -4.522815728530751,5.86879868436387 m9.267168581671571,-10.710286293762271 l0.5911590269509243,1.1194686575727597 0.19605978289484757,1.094368983500043 l0.17793420228202858,21.777074126063994 1.3352346287053625,0.23689195340141092 l7.800302701079103,-8.430951901677384 m9.03245926651879,-24.993059800200545 l0.030155857155803264,1.5740951698070695 -0.9106484836960447,2.4917578828759104 l-1.8410346577255479,3.1554535595069897 -3.48612801359684,4.392608724610687 l-5.131456737665434,3.100432601222779 m14.011967036041394,-5.03059984426598 l2.1202155867855943,1.194927767903674 2.659705676990572,2.0772353288279017 l2.464172226140696,2.507089415121731 1.6938537455954321,2.2064942574551134 " fill="none" stroke="black" stroke-width="1" /></svg>