<?xml version="1.0" encoding="utf-8" ?>
<svg baseProfile="full" height="125.01183164397789" version="1.1" width="141.2157625184533" xmlns="http://www.w3.org/2000/svg" xmlns:ev="http://www.w3.org/2001/xml-events" xmlns:xlink="http://www.w3.org/1999/xlink"><defs /><rect fill="white" height="125.01183164397789" width="141.2157625184533" x="0" y="0" /><path d="M25,25 m0.0,0.0 m29.231607342135018,2.8701151346717406 l0.04196132553815452,0.39850309209051255 -0.4364753139022099,1.4112637142677993 l-3.1944625661694137,3.512651469855147 -3.777750940127094,2.9328154161558233 l-4.652834607216197,2.9537010127032195 m12.280080334305032,-7.706026549756527 l12.403469059717631,0.03001299823284862 19.606630933265023,-1.01148168871039 l3.741906105422282,0.14599515672900862 m-41.623729981826244,11.957009311725974 l3.89599066698752,0.128725849514379 29.04391917831399,-1.6128072369048754 l6.593661948428551,-0.18341753824426796 2.8411787696274025,0.1924683563330904 m-51.20113041889114,-6.566976669608296 l1.0306004489620615,0.44543433683716865 0.5727080959664369,0.1571071027625504 l38.88485274551832,12.201855851487462 m5.620949033835393,3.9381036667068714 l0.6517286568882893,1.2663006943427682 -0.24349600470059304,0.9716836564373306 l-5.261383949993646,2.063622258298061 -10.743684148338568,3.817350242299132 l-12.283735383412461,3.189213404529275 -7.269419517046322,3.33330571834503 m8.201689985594745,-12.168102895766062 l5.952000584971265,0.441254609924014 7.122725350634182,1.2844375230627203 l11.541093349708769,7.312775093622252 6.740987507047154,4.165847234641933 l2.6681085470910353,2.4927704528850794 2.2277913681809083,2.3194010876316025 l1.4610030895087036,1.8489912950902678 1.4688734734654532,1.9507959383838864 l1.426893450000928,2.3474224149631935 1.2799997380525219,2.5721105229898082 l1.2259997666859033,2.8883471729008896 1.1607891934269436,3.000867186578834 l0.9373974895163669,3.0490276453825502 1.1484648577933838,3.1046587451726824 l2.2252379997334546,3.156073071742526 2.903259808037324,2.5394501917322168 l3.9666772151557903,1.7973962780706603 1.1101162601404957,0.07177931386799909 l0.6933612926786616,-0.6738051392623101 0.00015037774208937052,-1.7870657051451457 l-0.609334904119261,-2.6794190461377267 m-12.126231961072552,-17.554034542918036 l-0.23746830834664864,1.545616980394108 -2.076145958287566,2.218752326965361 l-3.5074001472112752,2.6258324629712417 -4.708241075819502,2.6471969247910634 l-4.7108139846033685,2.150984017080736 -5.432785455101803,1.9974801074786166 l-6.193278899549843,1.8048170986803687 -5.410940520623742,1.2632672536790142 m23.92780102429261,-25.828299002436562 l4.804726802849213,1.3611512580785086 3.199237126094189,1.3431611227044529 " fill="none" stroke="black" stroke-width="1" /></svg>