<?xml version="1.0" encoding="utf-8" ?>
<svg baseProfile="full" height="106.46444087048377" version="1.1" width="98.85940713330533" xmlns="http://www.w3.org/2000/svg" xmlns:ev="http://www.w3.org/2001/xml-events" xmlns:xlink="http://www.w3.org/1999/xlink"><defs /><rect fill="white" height="106.46444087048377" width="98.85940713330533" x="0" y="0" /><path d="M25,25 m0.0,0.0 m14.552324719353175,4.184822117553587 l0.47136919309430747,0.17685843162139425 3.4481799752129882,0.15685661406635368 l24.842157333265867,-2.8401765739405382 2.987887711843096,-0.14513257339350766 l2.5574882005358828,0.30007298550754025 m-33.651274334393904,15.645797550708144 l0.6720974553769145,1.049470205494716 0.30338546966771757,1.1794709492381656 l-0.032385835934432776,36.75640116362791 m0.8686364536036458,-37.6968338467597 l26.05154134641984,-3.156586294055258 1.412545892668639,0.2035386385687433 l1.4098678702080247,0.7944984457036115 0.5626486836446046,1.299881265458133 l0.0933600295865831,0.8129009514128523 -0.05206740121007304,36.149118939710384 m-20.614966551554126,-48.37719255229887 l0.579407986478311,1.6578447163358425 0.08026995138149237,6.30356144128117 l-0.2464887304492864,5.153745239943414 -0.6497416583240354,4.398777187730018 l-0.8459993946591051,3.004717608898431 -1.2254997727150956,2.715932466249692 l-1.6018217592418733,2.4734164432602457 -2.1037135531273257,2.25953006674879 m14.465049949900925,-28.811000903785867 l0.5206669740616906,0.9463701114443058 0.3253239320679667,1.7529492267579583 l-0.04510346904656857,17.43803350440951 0.2170192628573462,3.8187606052599574 l0.40154204289890505,1.250684158594002 0.6122628283957241,0.8985606885367614 l1.3927704222930528,0.549583387997216 3.3087194848336754,-0.07183890333691384 l2.7909184785681442,-0.7346939804762854 0.9968622994031253,-0.7296930588570234 m-26.830016284416537,14.274411541406069 l28.5378308479444,-2.0661333480791066 m-27.431616993906392,13.028732241291273 l27.351868407875806,-1.8605535344404514 " fill="none" stroke="black" stroke-width="1" /></svg>