<?xml version="1.0" encoding="utf-8" ?>
<svg baseProfile="full" height="109.4925140729174" version="1.1" width="104.8883146326989" xmlns="http://www.w3.org/2000/svg" xmlns:ev="http://www.w3.org/2001/xml-events" xmlns:xlink="http://www.w3.org/1999/xlink"><defs /><rect fill="white" height="109.4925140729174" width="104.8883146326989" x="0" y="0" /><path d="M25,25.000001308508217 m0.0,0.0 m6.3510942459106445,8.796046376228333 l0.709381029009819,0.12313844636082649 3.9155113697052,0.07031209301203489 l34.16290760040283,-2.6369184255599976 5.8786070346832275,-0.23418022319674492 l3.218427896499634,0.36440931260585785 m-34.961609840393066,-4.8258620500564575 l1.1599448323249817,1.9886615872383118 2.153790146112442,12.095400094985962 m15.937772989273071,-15.741008520126343 l0.25906000286340714,1.7970769107341766 -2.201039046049118,11.624852418899536 m5.711293816566467,0.16569484025239944 l-0.26682693511247635,0.6194138899445534 -0.8993475139141083,0.8682797849178314 l-6.297374367713928,2.377656251192093 -9.067261219024658,2.5090470910072327 l-10.468547344207764,2.2684334218502045 m-2.3663292825222015,-1.1928733438253403 l0.6504007428884506,2.0391468703746796 -0.14526613987982273,7.066625952720642 l-0.5159355327486992,5.649158358573914 -1.13607756793499,6.0504502058029175 l-1.306626796722412,4.110655784606934 -1.6643916070461273,3.533312976360321 l-2.0265254378318787,3.021988868713379 -3.0488497018814087,3.158881366252899 m11.722909212112427,-24.357140064239502 l2.5410857796669006,0.07454699836671352 33.71307373046875,-2.5163286924362183 l3.1750625371932983,0.07551027927547693 m-19.46914315223694,2.9902738332748413 l0.4184442013502121,0.5514531210064888 0.28244175016880035,1.1922261118888855 l-0.01159479608759284,25.814170837402344 " fill="none" stroke="black" stroke-width="1" /></svg>