<?xml version="1.0" encoding="utf-8" ?>
<svg baseProfile="full" height="109.31077644652616" version="1.1" width="109.71911346824837" xmlns="http://www.w3.org/2000/svg" xmlns:ev="http://www.w3.org/2001/xml-events" xmlns:xlink="http://www.w3.org/1999/xlink"><defs /><rect fill="white" height="109.31077644652616" width="109.71911346824837" x="0" y="0" /><path d="M39.49598744781568,30.535986932909715 m0.0,0.0 m9.980410606109444,4.06166923797839 l0.5476435868861127,0.1635840663937646 3.5239743460207444,0.21108787201294138 l28.068203678387107,-2.246086011942599 3.102893803029281,0.25609565690567954 m-18.84990037925136,-7.982337754257892 l0.7140164867013987,1.8775931476894236 0.08735275362679773,15.810347881279807 m-13.633784959027563,8.997835316731635 l3.629268424577872,0.1286887306670851 16.83519435734609,-2.157465038306683 l5.429932092508117,0.04312365308671421 0.9396967615679316,0.3743748963815423 m-38.994038692518785,2.344064033297736 l-0.6742054340156189,2.1628989871226034 -0.985287245270431,2.9543043636566195 l-1.3786549011847653,6.5088271568331875 -1.4464360175894169,5.266148788069331 l-1.4647286475442127,3.9520897933119667 -1.9206071260491964,3.871641600456223 l-2.3155085887324,3.6533228760086334 -2.7113392269497405,3.5229802602403364 m14.29420659009016,-19.37690132458256 l2.5877867524777503,2.633603236902281 1.9910980174416129,3.0622151844388092 l1.7968076158016468,3.920687832065213 1.1833805151673429,3.9808552367994032 m17.928931920857085,-17.975117329781902 l0.05176353478008152,1.6014953023959577 -0.5977554063218082,1.9423941966209712 l-2.2170673536189005,4.211271235213525 -2.8394745477879693,4.2761274310193365 l-3.3035374577286314,3.644406465539361 m-31.00823904344531,-19.958192844229686 l1.7785335257095058,1.1586678643583057 2.419151576288199,2.4761328514922356 l19.17014928561794,3.7674492046974395 7.099857567907177,1.5550108467710237 l4.748736472216861,1.2611839072685178 m-38.06441269189583,10.334242571553443 l3.472964901046751,0.39734894124410447 23.92189795372887,-1.8023452545230059 l8.109348217737994,-0.2022849963491347 2.7881250132084245,0.3533052701810766 " fill="none" stroke="black" stroke-width="1" /></svg>