<?xml version="1.0" encoding="utf-8" ?>
<svg baseProfile="full" height="109.4925133511424" version="1.1" width="106.43275483511388" xmlns="http://www.w3.org/2000/svg" xmlns:ev="http://www.w3.org/2001/xml-events" xmlns:xlink="http://www.w3.org/1999/xlink"><defs /><rect fill="white" height="109.4925133511424" width="106.43275483511388" x="0" y="0" /><path d="M25,25.000000706641003 m0.0,0.0 m7.020305395126343,9.692314863204956 l0.636715367436409,0.12394394725561142 4.467619359493256,0.22046685218811035 l16.07938528060913,-1.6610561311244965 18.636527061462402,-1.318531483411789 l3.134165108203888,0.00758327660150826 3.739044964313507,0.4203316569328308 m-35.316481590270996,-5.4492223262786865 l0.8797947317361832,1.195499524474144 0.30898934230208397,1.0121121257543564 l1.6977833211421967,11.547098159790039 m17.488449811935425,-15.790541172027588 l0.25924596935510635,1.187208890914917 -0.0895173754543066,1.869024932384491 l-2.2072800993919373,11.375981569290161 m-7.645890712738037,-0.509372316300869 l-0.3931800648570061,1.9648639857769012 -1.6725385189056396,2.924579679965973 l-3.167327344417572,4.109135866165161 -3.5845085978507996,3.8136595487594604 l-7.279779314994812,6.182108521461487 -4.254718124866486,2.8565970063209534 l-4.601595103740692,2.53094345331192 m25.553510189056396,-21.574039459228516 l7.731781005859375,6.258381605148315 8.958784341812134,6.368480324745178 l5.881989598274231,3.5286301374435425 4.1714808344841,1.590876579284668 m-35.316481590270996,-2.560126483440399 l0.6445085257291794,1.409064382314682 -0.0724388100206852,5.485037565231323 l-0.5213107168674469,4.86357718706131 -1.012609601020813,4.390019774436951 l-1.221863478422165,3.110620081424713 -1.6342361271381378,2.703387439250946 l-2.091875374317169,2.250390946865082 -2.592957317829132,1.7509673535823822 m25.256376266479492,-28.270163536071777 l0.6128385663032532,1.0645084828138351 0.1341413427144289,1.380544900894165 l0.03395504551008344,27.43762493133545 " fill="none" stroke="black" stroke-width="1" /></svg>