<?xml version="1.0" encoding="utf-8" ?>
<svg baseProfile="full" height="105.81614759565889" version="1.1" width="107.7534903075118" xmlns="http://www.w3.org/2000/svg" xmlns:ev="http://www.w3.org/2001/xml-events" xmlns:xlink="http://www.w3.org/1999/xlink"><defs /><rect fill="white" height="105.81614759565889" width="107.7534903075118" x="0" y="0" /><path d="M25,25 m0.0,0.0 m27.96400825910973,0.8785405203743618 l0.1042459822415738,0.6249384253857244 -0.17605688247306303,2.052322379617042 l-1.7677864416226874,3.647762975533747 -2.79926075166285,4.559744475872137 l-3.716743742633948,4.89696927838787 -3.4275587947751145,3.8629015944315683 l-3.795551505406388,3.7366213057237583 -4.272815730020234,3.683452596210304 l-4.743822686431273,3.738379629695715 m26.279039403919302,-27.27264032410476 l21.761610375678487,19.755939140370828 3.9570870957861928,2.2953306168413032 l2.3870957258020673,0.8959635201138492 m-39.78379716409261,-1.9681867216606637 l2.542812983730088,0.30065914157309653 17.48418686162593,-1.7242993942629894 l3.845868880043981,0.11861604981558298 m-26.82960402957158,12.62752995982854 l2.7015730799376505,0.20382832057190842 23.499452271250558,-1.9113570370815303 l4.02930800133825,0.0760981301129329 m-15.72800888540098,-8.551035300930996 l0.49632401742734256,1.0988028916710129 0.181717226571946,1.4022236792895844 l0.17339485323014867,25.371398598204376 m-14.168954856758772,-11.649872160531084 l3.1340826995762363,3.5548096190707206 2.5523637440072324,4.152332354775521 m22.3659349757924,-9.677859708402844 l-0.04480539293344218,1.7478264452822518 -0.8327411059591457,1.4131551531156874 l-2.479603100019903,2.9153493832908977 -3.282315355891693,3.1170097444158733 m-31.168423313347812,5.476863443974224 l3.214751059260711,0.3660288690833534 15.721770322917644,-1.1808804945343636 l26.604810427716412,-1.238086471438314 2.5882106490601196,0.3176934544372989 " fill="none" stroke="black" stroke-width="1" /></svg>