<?xml version="1.0" encoding="utf-8" ?>
<svg baseProfile="full" height="114.10144923708799" version="1.1" width="110.04806408344659" xmlns="http://www.w3.org/2000/svg" xmlns:ev="http://www.w3.org/2001/xml-events" xmlns:xlink="http://www.w3.org/1999/xlink"><defs /><rect fill="white" height="114.10144923708799" width="110.04806408344659" x="0" y="0" /><path d="M25,25 m0.0,0.0 m32.41310705454975,11.430159666770123 l0.031631127148420264,0.35825494044137607 -0.2043339949396831,1.5962179746826233 l-1.5415661219175651,2.69888379552517 -2.4117183533278905,3.248870366047989 l-3.248433299923801,3.422832532754824 -3.088917562699412,2.7047028721441957 l-3.6500362941989666,2.7254429827579707 -4.25357599089663,2.6474669305396894 l-3.5831198056189253,1.943990944831423 m23.77162445048264,-18.92646330976146 l8.283613809130665,5.822330717621933 11.00164613628841,7.9210360503761805 l3.4105059766691097,2.0115432605958974 3.1176369527004755,1.1575618822840668 m-34.216057298839765,-3.4035733858902883 l2.357511111266011,0.11208748027697157 10.461977951687293,-1.1065099221841257 l2.937228957681757,0.036813697431480503 m-22.586668125309494,8.071733625855252 l1.9547838842090044,0.22579151051916355 1.8306966156136388,-0.05611612974392368 l19.50357584415217,-1.970220590725778 1.81352616339889,0.12282914284958184 l0.5158984118894807,0.3265010985305168 -0.07524777249491893,0.5667332876500212 l-0.7205754159658221,0.7879515546730484 -11.264396995315234,9.471917435508702 m-7.982681131188459,0.6090904887733134 l0.7390724994839187,0.6298163259843166 0.49730087716994725,0.8388541422197338 l1.352124343330529,5.5003501968622635 0.7432518664392429,4.3783672992397245 l0.22040606697614076,3.9167188384198806 -0.4687755917367513,3.4155573809210718 l-0.8758744406240355,0.8639241523050668 -0.5820800235060806,-0.041544761485164235 l-1.2487130361504888,-0.6529578667888378 -1.4848101999494197,-1.5998026521374267 " fill="none" stroke="black" stroke-width="1" /></svg>