<?xml version="1.0" encoding="utf-8" ?>
<svg baseProfile="full" height="107.49305273128469" version="1.1" width="111.59135998478368" xmlns="http://www.w3.org/2000/svg" xmlns:ev="http://www.w3.org/2001/xml-events" xmlns:xlink="http://www.w3.org/1999/xlink"><defs /><rect fill="white" height="107.49305273128469" width="111.59135998478368" x="0" y="0" /><path d="M25,25 m0.0,0.0 m27.079499557739553,14.405979557697771 l0.38582349606081645,0.19798594865745625 2.593238848944399,2.230207842236478 l1.3004039921130164,1.6728954612971627 0.5206675194793788,1.0430745809297042 m16.02907533775153,-6.29629021623459 l-0.17268214406911972,1.0976857846343886 -1.1069625076798288,1.8290388214152982 l-1.8870171932983388,2.309992994443019 -2.3864443442735754,2.281965746806328 m-19.392399821746544,2.3204658666821745 l2.100612399423499,0.13127491732711077 22.354579482184146,-1.957265972338639 l3.182494038372471,-0.1750108353450476 1.8646952482387504,0.16823264821966405 m-30.63156243990831,9.213667878419024 l2.5471953024469616,0.23073127685861153 24.170565733243922,-1.8300436839414316 l3.7432946715701734,-0.15639830698588422 2.0356637964366113,0.16839395309967817 m-39.45079703488671,9.182693390896617 l2.8516842856820377,0.2657037961643844 35.028570357334154,-0.07972798093057276 l5.923555311327903,-0.0847188853878858 2.548881399327681,0.18068127942230755 m-24.894706038221653,-13.253948665351523 l0.888562895611424,0.5869879202144405 0.44182932327938274,0.8627780597269189 l-0.10387536053644268,11.082102745067916 m-10.290933156466854,7.583573323385282 l0.13635852240076188,1.2900155575061494 -0.6693430649316423,0.8398870349379223 l-2.2184544126493533,2.217541633179662 -3.0777161301802614,2.3906232831123266 l-6.1590765839676775,3.8220553495270004 -6.787683637124933,1.7202206259354684 m20.36886800597201,-9.347168296020875 l3.436516277802762,1.60129112652823 2.565202588993273,1.9395451868591014 l2.2625562046953838,2.3547989870056973 2.2334384697729845,3.040154447763036 m15.363594347137443,-18.32813136032374 l0.06570860903863533,1.124922145117548 -0.3493757090107064,1.0449585872596332 l-2.8564612029241463,3.8042835708347646 -3.5277247403332037,3.489191631960581 l-4.238529859788896,3.1430175981962676 m10.269631661519124,-7.880433131465772 l2.1235460797387073,1.4628118454998842 2.21041586419406,2.117775492664213 l1.8823563960911633,2.447449652921244 1.2840193428577729,2.504185945234057 " fill="none" stroke="black" stroke-width="1" /></svg>