<?xml version="1.0" encoding="utf-8" ?>
<svg baseProfile="full" height="97.5854420227503" version="1.1" width="109.36274149237522" xmlns="http://www.w3.org/2000/svg" xmlns:ev="http://www.w3.org/2001/xml-events" xmlns:xlink="http://www.w3.org/1999/xlink"><defs /><rect fill="white" height="97.5854420227503" width="109.36274149237522" x="0" y="0" /><path d="M25,25 m0.0,0.0 m13.885244095282134,17.871519086184946 l0.3595285098396451,0.126056640886713 2.5760365999037593,0.24846486590180428 l25.6480662862261,-2.0226283243410914 5.091661529236822,-0.15630964319222787 l2.8561204726993337,0.2724934481603386 m-28.59150468496321,-5.1988108753097695 l0.8974162130431254,1.4978295751090833 1.2551874004608798,10.706896155130138 m15.365783290526265,-13.283927084946244 l0.24427390732292367,0.9303272564107598 -0.0473108822966835,0.9835080448352537 l-2.714391943388559,10.216446420316826 m-8.084550564310602,7.080278684615237 l0.5257956039406777,-1.3484558357801546 1.2152131363285075,-1.8921879078314008 l8.393233501902575,-5.371016576131853 0.8540275375627071,0.4718389459910478 l-0.04359632111574402,0.5698309615463026 -1.504201157105272,2.9147241885956396 l-2.0173840652535975,3.6076490009793187 -2.3171604610075858,3.42167011404969 l-2.6286940255448075,3.182716023140249 -4.86986744892387,4.590302100250125 l-2.7876182062641828,2.060336349338177 -2.924852603088045,1.6932180234111576 m6.02364383207249,-16.40571506127096 l1.4271383796061479,0.8986568603363895 1.9704004986574801,1.6864298380515756 l1.4343380711050584,1.600372033884387 0.6444325920995053,1.3167639626173213 m12.63643799145067,-14.003851709201532 l1.1729053939732201,0.04061262182674316 4.623763779939196,-0.13924439881196427 l6.821850996467789,-0.8775303468154111 1.3110844331444378,0.45687454394956545 l0.2905588889864765,1.2107947365674643 -0.42831551679029706,2.108521986331777 l-1.2855777036352882,4.163675990018409 -1.6668965396813056,3.6091801120075537 l-1.8356585434596933,3.10230640723987 -0.6387396447969113,0.6798496040018878 l-0.5989873026498677,0.13801123087937225 -1.0358649464221863,-0.19135096353464642 l-1.0360822273320853,-0.8493151288298674 m-7.094473719055317,-11.883716157088013 l0.30401516762634,2.175946850660762 0.07321988927041216,20.812251613868586 m-21.245522518356765,4.376702584865025 l2.5085822152070083,0.38644517387594823 18.90875549724908,-1.7439662878645992 l9.24424404876616,-0.7645277650943683 3.4716777475109395,-0.06902893732977228 l2.7253550104092525,0.34954375918562053 " fill="none" stroke="black" stroke-width="1" /></svg>