<?xml version="1.0" encoding="utf-8" ?>
<svg baseProfile="full" height="98.00574201133355" version="1.1" width="99.95349944374038" xmlns="http://www.w3.org/2000/svg" xmlns:ev="http://www.w3.org/2001/xml-events" xmlns:xlink="http://www.w3.org/1999/xlink"><defs /><rect fill="white" height="98.00574201133355" width="99.95349944374038" x="0" y="0" /><path d="M25,25 m0.0,0.0 m8.210522606765927,13.70374025796199 l0.5296577517555585,0.12606053008289478 3.667242080991233,0.12888116887516657 l29.856979837158878,-2.098194854771507 4.589311313571171,-0.09254284574945172 l3.0997858534976155,0.2749629042663467 m-31.289153763033486,-4.606891760598127 l0.888003022204153,0.7839033065582 0.3580685749041927,0.9616386039177514 l0.8079808964665606,9.186627340256802 m16.569490978200424,-12.023763850560055 l0.3112675698639237,0.9829927935967095 -0.08134155570225038,1.0627632565368894 l-2.5669752177508847,9.523365644298782 m-22.40442829121966,4.763323267457078 l1.7291597844519127,0.24244707689461492 2.0672784744533623,-0.041299294068461466 l21.754547468633298,-1.9216419028698886 4.259178429711244,0.06119142364749025 m-15.83614466682229,7.608859137462353 l0.7229944681166756,0.7682689399359695 0.2816244501480419,0.8182259024742523 l0.031773620447943254,16.690187437234133 m-13.234876367439734,-10.532963529454703 l2.5822502820031206,0.33754470037787615 18.040112263953873,-0.14728295468461639 l2.9891826338598904,0.15788540038628737 m-31.6346312905001,10.811518654962553 l1.8651639670349534,0.3930726693435922 2.068049048594182,0.082862587562639 l20.808265045532497,-1.5249028552081785 11.173720220027716,-0.5361765527902699 l3.1275495930382093,0.09735928117950768 2.9538952680120945,0.4640038383446342 " fill="none" stroke="black" stroke-width="1" /></svg>