<?xml version="1.0" encoding="utf-8" ?>
<svg baseProfile="full" height="101.33505633658007" version="1.1" width="106.14780941810284" xmlns="http://www.w3.org/2000/svg" xmlns:ev="http://www.w3.org/2001/xml-events" xmlns:xlink="http://www.w3.org/1999/xlink"><defs /><rect fill="white" height="101.33505633658007" width="106.14780941810284" x="0" y="0" /><path d="M25,25 m0.0,0.0 m11.848163596172435,15.067004553476135 l0.4469713141089826,0.11100737162869692 2.8209942208652365,0.1147992523589156 l13.423384019604585,-1.2629681137567634 13.52400251390277,-0.7355918518483936 l3.4420790961226913,-0.00824890551576456 2.896621811099561,0.3738978665213164 m-27.206877254816824,-4.0136361486582475 l0.6376346306651406,1.4388845706988536 1.149873719311687,7.801649425749738 m13.77467311581021,-10.274864508249069 l0.16163628852156572,1.548891281751617 -1.4743770680241124,7.4865505533423935 m-6.781540992730631,5.4519861209450715 l-0.033096348828598195,1.11920382599975 -0.8312403313117601,1.214424224600342 l-2.1176888961582194,2.299447127666697 -2.531570055586725,2.0583243682336763 l-5.122243050142396,3.302061960717848 -6.578804987907346,3.3129532711772867 m20.62185877840695,-12.77883668859972 l16.810711397526287,8.998289297502975 4.1736672630065135,1.657201291280075 l3.0929766384848256,0.7245704617869558 m-25.81861302193639,-0.9140145767040138 l0.28653691196728864,0.8752838916084571 -0.37196625634280084,0.8000885028572446 l-3.1840806236145274,4.517950335988097 -3.5196118284754743,4.176501766075977 l-4.194232338764758,4.014597626249061 -0.5398991887116468,0.8875850881253322 l0.03763030594702255,0.5576481856679009 1.442010310022771,0.3092805591641115 l14.118219779347626,-2.564428052261592 9.037862012933028,-1.4798102726054352 m-4.88412862266707,-4.951188313842457 l2.481548739250177,1.8597656600681067 2.7994320871654756,2.922849657105137 l2.2847211144802664,3.113347622824419 1.063654243052637,2.2025980474493343 " fill="none" stroke="black" stroke-width="1" /></svg>