<?xml version="1.0" encoding="utf-8" ?>
<svg baseProfile="full" height="113.79702358742776" version="1.1" width="107.76749804378426" xmlns="http://www.w3.org/2000/svg" xmlns:ev="http://www.w3.org/2001/xml-events" xmlns:xlink="http://www.w3.org/1999/xlink"><defs /><rect fill="white" height="113.79702358742776" width="107.76749804378426" x="0" y="0" /><path d="M25,25.47061293232096 m0.0,0.0 m9.683226277812842,10.87802639053706 l0.5359901881128631,0.12153227400142064 3.7688010831939858,0.20902183511906125 l13.8578122426244,-2.1555336372617346 13.271604981684382,-1.314528087750208 l4.648443800105959,-0.22614001996925143 2.7774410362220037,0.34804716669230634 m-30.392796074814495,-6.489298771005392 l0.8244919346902894,1.0882216174389079 0.3602185987839626,1.0469859083031896 l2.302834161993582,13.248855670741559 m15.964836534925656,-17.22580327916788 l0.2696173006340688,1.1185593120585935 -0.03915845376475356,1.2003550888086667 l-2.4944955852253905,13.464985171651088 m-7.457181159889528,12.14248401699899 l-0.326813809013778,-1.3135128280673765 -0.33115295211102463,0.5312640496395362 l-2.9957248656631363,1.5517724294920958 -4.700635117290512,2.0257305624513524 l-6.141305867369504,2.079812560561661 -7.302372764697102,1.908409126219031 m-1.7681782618808164,4.432316352648853 l3.430037149245764,1.1298946492384332 2.7649041077159233,1.4254592546861558 l1.9958707698196532,1.7509223806802046 1.3850866613264912,1.807991820347257 m-8.271789898547688,18.20663092337245 l1.1068618100987604,0.3132162438655934 1.0017547735631254,-0.47881921588585147 l7.262527768519501,-8.350964591277865 m27.587084652007228,-17.404397463234822 l-0.31505637345840665,1.5006125567343713 -2.1268486038567427,2.563762239443701 l-3.0688061596702925,2.7555220499356015 -3.6344407811872372,2.6192494614927964 m-1.4598698317196197,6.360261506091525 l2.2353101189861655,2.091576099451795 1.991317384748637,2.5580221456732692 l1.676228388981007,2.7737934957452883 1.1080165861893343,2.6421267821089116 m6.015391804720156,-15.64711413817406 l1.8227984823934842,1.196916821917095 2.488628753689744,2.4276511981356967 l1.8482414241561487,2.4359565465539035 0.937856060426518,2.0318192851081127 m4.579544189991696,-38.87849209428617 l0.8051911234390765,1.3252974358574958 0.28615445314185783,2.2804902401351637 l-0.07248325903874313,43.21746211124921 " fill="none" stroke="black" stroke-width="1" /></svg>