<?xml version="1.0" encoding="utf-8" ?>
<svg baseProfile="full" height="109.49251339770854" version="1.1" width="107.23076880327426" xmlns="http://www.w3.org/2000/svg" xmlns:ev="http://www.w3.org/2001/xml-events" xmlns:xlink="http://www.w3.org/1999/xlink"><defs /><rect fill="white" height="109.49251339770854" width="107.23076880327426" x="0" y="0" /><path d="M25,25.00000037252903 m0.0,0.0 m3.0191025137901306,10.606741905212402 l0.6678557395935059,0.21893402561545372 2.7976489067077637,0.15369702130556107 l37.42452621459961,-2.7355611324310303 6.723485589027405,-0.20871607586741447 l3.313605785369873,0.38067203015089035 m-37.243032455444336,-7.319670915603638 l1.1010884493589401,1.0144418478012085 0.5421648547053337,1.3592451810836792 l1.825638860464096,13.326094150543213 m19.899462461471558,-16.795878410339355 l0.37145689129829407,1.190587505698204 -0.006418261909857392,1.3656634092330933 l-2.738369107246399,13.14566969871521 m-26.10663652420044,7.8160160779953 l2.090213894844055,0.4461583122611046 2.1725815534591675,0.056349216029047966 l25.06152868270874,-1.8528719246387482 3.9008769392967224,0.16737066209316254 m-43.81533145904541,13.17883014678955 l4.081658124923706,0.39692938327789307 36.20042085647583,-2.4840009212493896 l10.960251092910767,-0.3709331899881363 4.986989200115204,0.281793437898159 m-31.400985717773438,3.674098253250122 l-0.09832420386373997,2.129436582326889 -0.726868137717247,1.3902667164802551 l-5.896599292755127,6.756646633148193 -9.086832404136658,9.5286226272583 l-0.5016941204667091,1.0697103291749954 0.2993405982851982,0.625423938035965 l1.0825467854738235,0.1809593290090561 1.848459392786026,-0.26386188343167305 l32.07205295562744,-6.769839525222778 m-6.207171678543091,-6.749158501625061 l3.3695873618125916,2.5869160890579224 3.8017502427101135,4.0278160572052 l3.09574156999588,4.420042634010315 1.6430750489234924,3.547872304916382 " fill="none" stroke="black" stroke-width="1" /></svg>