<?xml version="1.0" encoding="utf-8" ?>
<svg baseProfile="full" height="119.9080109922466" version="1.1" width="100.93055057990634" xmlns="http://www.w3.org/2000/svg" xmlns:ev="http://www.w3.org/2001/xml-events" xmlns:xlink="http://www.w3.org/1999/xlink"><defs /><rect fill="white" height="119.9080109922466" width="100.93055057990634" x="0" y="0" /><path d="M25,25 m0.0,0.0 m14.20381428187652,13.745300693719168 l0.41594548881004184,0.13996960222335203 2.4598806354887723,0.1934224544744579 l26.193739280619763,-2.4015356050234207 5.108935924309726,-0.18350919286107797 l2.5482349688015176,0.311144976064763 m-28.528589248191224,-4.797813651476394 l0.918500953150881,1.5787300428197042 1.2544882777383186,10.945324002412315 m15.5970328911808,-13.927355517240436 l0.2686003566440662,0.9837464362549068 -0.03525685756168349,0.979557666606398 l-2.666589966022904,10.715166985189942 m-8.394103347755216,9.443656786344524 l16.365454959079962,-1.4072432492824754 2.8621691162493015,0.21005780798939794 m-20.911787569862252,-7.345324979983468 l0.7800486928624919,0.9797686722750674 0.3068266066885148,1.0765947921578145 l-0.07717798155723353,15.227360318720708 m-11.711906062591046,0.22355389364894718 l0.730062494630715,0.9333326139034962 0.7817403301091604,2.7880903840027926 l2.054344313564589,11.511978939812831 m-2.2143285091035847,-14.240415324717006 l11.270944952165737,-1.7485720529397153 14.040864837801143,-1.3893735932012214 l1.740122337011888,0.39996018718275017 0.6129585602042494,1.0016057063588302 l0.05643037619060894,0.9930414885862218 -2.6615428039012015,11.72911961945152 m-22.639216967573255,1.8434309914031117 l23.760730943878016,-1.7108225112881394 m-35.087408043925336,10.943843596090334 l-0.31705095751197065,1.9967108633028323 -1.056504484339121,2.7896485610473185 l-1.480107748261239,2.8891118831506915 -1.6350718020132553,2.486746705065753 m13.224562043219443,-12.443498914156889 l1.1178770021071178,1.3323463928801238 1.2565447492132127,2.4780188646917933 l0.9794647392072581,2.7606985667370014 0.7754496089548252,3.266932682836832 m8.125488765347196,-10.896473237482622 l1.4741701004445569,2.109082111936067 1.6281729001906389,3.170198957431734 l1.2302464410027134,3.292430718221283 0.5498092750665432,2.4102411424724353 m6.755029328313414,-11.361592624447203 l2.047928439586513,2.2150648263216066 2.2724206395084905,3.4573977327509384 l1.722347941024051,3.4807328570104445 0.840397592176094,2.695536974185478 " fill="none" stroke="black" stroke-width="1" /></svg>