<?xml version="1.0" encoding="utf-8" ?>
<svg baseProfile="full" height="94.75940439771772" version="1.1" width="106.56459882417028" xmlns="http://www.w3.org/2000/svg" xmlns:ev="http://www.w3.org/2001/xml-events" xmlns:xlink="http://www.w3.org/1999/xlink"><defs /><rect fill="white" height="94.75940439771772" width="106.56459882417028" x="0" y="0" /><path d="M25,26.497241557379553 m0.0,0.0 m14.7672415124079,3.746973113337008 l0.03029043851659539,0.4210255499168548 -0.31180847065838574,0.7631116804827748 l-1.2086022608808378,1.5515693668970754 -3.237162364948262,3.5144942734169327 l-3.529502957462268,2.795307362652973 -3.899690620303501,2.12957593700684 m12.627489696102675,-1.328932098491925 l-0.04906656269306876,1.0552158821096707 -0.6148450514611011,0.892292670640958 l-3.898267851203331,4.3374104565656735 -4.979981440996486,4.416346122171388 l-5.619688346161623,4.071918460098859 m9.102247702613607,-5.436311870494603 l0.7304656004177695,1.1901856368536883 -0.03468489786566892,19.141980297173994 m12.086362763531774,-36.77750120303781 l1.176074093312603,-1.8439139063381407 7.335356448032708,-0.831044831661689 m-7.465404769607007,-5.306944456680071 l0.7043193326635963,0.5313155609249742 0.34685433433773427,0.8583714674919923 l-0.10227956568731457,13.744147185762312 0.1418216294235028,0.5085608466710647 l0.37933013191326626,0.24466806509228078 0.7108544142564518,-0.15149948305821329 l7.908136800290879,-3.5879856949112496 m17.271674109754805,-9.014973012912035 l-0.017325499682684306,0.7809540715607263 -0.30041412383804406,0.5555842514064508 l-2.2479353826457835,1.7328073902933707 -3.2189257693122983,1.8904793559890845 l-3.370829468119623,1.532757297525199 m-1.553151083674518,-7.859694525468804 l0.6072389165925598,0.27644373310145054 0.39127763433088564,0.9354594858820404 l-0.008349879854721855,11.07396697697483 0.3720623143739289,1.683821910659549 l0.5911234591404895,0.9162576639061004 1.0281872752603534,0.6799360830004838 l1.9396882382624232,0.3756901541531707 4.442094982770302,-0.019925249824038396 l2.7485392130619792,-0.27914874530520845 1.3193554196768653,-0.3685407229964742 l0.8194931982066587,-0.5678071901631174 0.40720354866663566,-0.6973602577092645 l0.15400161942981522,-1.3996585610867633 m-18.34888832281947,2.7323968211614478 l0.12634320457998108,0.7561134615681592 -0.6916229320295776,1.1649154318863393 l-3.8390495483629925,3.867891159399214 -3.850815547148311,2.8777110539453004 m-3.6316265142407245,0.17866236599516963 l0.6289999495771845,1.2911759476557287 1.7746239975209084,14.730519446261154 m-1.5615982658412486,-15.020184545245089 l22.663342119969265,-1.8043660906451158 1.6495705560714937,0.22730688449405462 l0.7162515190914146,0.904179950580512 0.014026967593131478,0.6085978450867834 l-1.083740626784373,7.646992836266382 m-21.130194241087942,-4.316675292886905 l21.570808605682352,-1.4061704461871833 m-20.589756571350563,6.815741536007436 l19.629317431415853,-1.1780781224462367 m-30.675460109470592,-9.499130712804151 l2.343610743255431,0.6488286553175452 11.00039707654302,1.1790552624038453 l11.008477329269436,0.002925121353637666 11.04513775099701,-0.36783523500619975 l3.325575791447355,0.16930646984351677 " fill="none" stroke="black" stroke-width="1" /></svg>