<?xml version="1.0" encoding="utf-8" ?>
<svg baseProfile="full" height="119.0964111316036" version="1.1" width="97.92995423952058" xmlns="http://www.w3.org/2000/svg" xmlns:ev="http://www.w3.org/2001/xml-events" xmlns:xlink="http://www.w3.org/1999/xlink"><defs /><rect fill="white" height="119.0964111316036" width="97.92995423952058" x="0" y="0" /><path d="M25,25 m0.0,0.0 m24.60673928499557,13.454231339665416 l0.056148256565978265,0.36455126156998235 -1.8874114889038955,4.610683719890834 l-2.7070564146338687,2.7493545230694454 m-6.919007274959471,0.5969308092099143 l0.5964040692071723,1.0016202263790068 0.2152431956077615,1.0239740016464622 l1.8057637180789725,21.322289399412462 m-1.5677518423480619,-23.057109754523122 l23.495534789611405,-2.4285701404898417 1.4835736748225787,0.026660156545118847 l0.5399201715368507,0.28116498474411517 0.601251163544704,0.9472658933797967 l0.027169643855698068,1.235022157458631 -2.371797890118421,20.037741498515178 m-23.10548251771762,-10.611280988743964 l15.233517583372572,-1.1857024551611401 m-14.843796100189577,11.945701291929533 l22.775552774473276,-1.4764276973583272 m-33.360235145806435,14.126539668344146 l-0.36160752884721603,2.126111036315199 -1.238421432289362,3.131770763544442 l-1.4263582186366879,2.8533087072552785 -1.5705513678187024,2.356521575123054 m10.752499231035495,-13.684615596508264 l2.9317098750864137,4.796078207620029 3.509583522950513,3.8933091016797583 l4.443533237121675,2.8430686738049205 4.100392572573626,2.887386985923386 l3.3496633333081705,1.4875734463614767 3.6642857415339702,0.8911206386967296 l4.249931152399354,0.47268749597524096 4.872825900434441,0.07745020032869591 l3.1649435770178282,-0.3541502856257127 1.6101967760472071,-0.7666540219661011 l0.18433191569008592,-0.5420609385578354 -0.1776851705268126,-1.349645900229283 l-1.3316889848624764,-1.6725259642341501 m-20.12526692035718,-13.63357351098618 l1.6191050607162352,2.5771436240523906 1.1007088281636448,1.1020348111479605 l0.9911156807158672,0.27611244666900875 0.6949923500855579,-0.9393411317126941 m12.193965546332558,-4.745502247860764 l1.7795572234299821,1.1406389505779455 1.8420025932919737,1.6628358376066004 l1.4432648710586355,2.0024462826893856 0.9886452228705679,1.8019382933658838 " fill="none" stroke="black" stroke-width="1" /></svg>