<?xml version="1.0" encoding="utf-8" ?>
<svg baseProfile="full" height="100.71736405780567" version="1.1" width="99.92772656549351" xmlns="http://www.w3.org/2000/svg" xmlns:ev="http://www.w3.org/2001/xml-events" xmlns:xlink="http://www.w3.org/1999/xlink"><defs /><rect fill="white" height="100.71736405780567" width="99.92772656549351" x="0" y="0" /><path d="M25,25 m0.0,0.0 m7.848119488386473,14.858011445209177 l0.4618217733015276,0.12281073163824839 2.7168581517457033,0.10158027311610907 l13.031075549221038,-1.2475870786570233 12.962510877180081,-0.7280368059444859 l4.181485881226401,-0.030611114371054682 2.777208343741525,0.3500472237248015 m-27.04867856169816,-3.8710835239933297 l0.7203226731827274,1.3521677297776014 1.2003777219576706,7.549914933273015 m14.293003288932022,-9.89698641436708 l0.1892520156936902,0.8397866303513916 -0.10167462068822772,0.8957286308852395 l-1.6223132556657283,7.199899726081833 m-16.209855912277913,-0.03856219535658329 l1.6343069615148582,1.207058537309124 1.3644957934066186,1.7114503935613061 m-8.79808537633542,3.031436314752048 l2.7806393698168606,-0.7755535713879308 10.717171501100497,-1.3497723586525334 l3.1356888217191563,-0.044572966514239754 m-14.160433685866991,3.8271338742598995 l1.2963738225386878,2.074083962504704 0.46070397898127097,1.7605286347131854 m8.157232395042541,-5.68288725910164 l-0.4523152217024429,0.847446114895899 -2.6457409840381687,3.2287390292705047 l-2.0934669115219706,2.1018340457166955 -2.2019656544183297,1.5959313346441213 m-10.065343347224271,-4.2640187939413785 l0.8573946717722055,0.26856231068433184 0.426923331633705,0.9435731560137034 l1.3842613868273352,4.374386992099412 0.8647661080585096,3.349873519127199 m11.174390797697923,-9.226512453435785 l-0.010108574257023075,0.6035253563756163 -0.984618332746248,0.9635918135458732 l-4.155830524634183,3.1551625192504993 m-12.049002363372766,2.888363582832636 l1.9479505180094239,0.48062637814027964 11.990788823978237,-1.4191672390615087 l2.402325647515815,-0.148623927362566 1.22333184340495,0.15765630749722886 m-17.595823999815757,7.585500887704148 l2.713104733105278,0.1713021583667034 11.868962597218507,-1.4659762955882527 l2.913241516624736,-0.15359003720109163 m-18.8747862489837,-9.118995837479519 l0.5947434855356084,0.5108593776341754 0.3411152080760511,0.8307275678692613 l0.12133486492272516,16.96169090865524 0.281838512365082,1.7281230356256578 l0.6988938871143557,0.47500800626928635 3.040154231714146,0.07577848684552436 l13.682197937378605,-3.7831328441715497 m1.2039874512274846,-9.49903053532245 l0.36234549174737263,1.2589722982371336 -0.7638260220549009,11.415960409958485 m14.46697817429441,-33.224051620669925 l-0.2124807271284941,1.1364082109525964 -0.8045110095528321,1.4203639667189072 l-2.7799704652729877,7.084440272537507 -2.4959126833123704,5.117141778675021 m4.7811312048960275,-6.945398580953409 l2.517866268935962,0.02052030533085793 9.464645255923026,-1.8629209564092513 l1.3409618013537672,0.019437412758002173 0.42363819616496023,0.5617272066246582 l-0.41378892346562723,1.004147739719951 -1.2207995705967682,1.8157695582446756 m-9.440951892841696,1.2565506939629123 l0.4101939220185928,0.8975764264282323 -0.3943394484902174,0.9441197010160737 l-3.1687899016276053,6.232627857651921 -2.164286229582305,3.6542698341939537 l-2.0156685997599233,2.790365219567931 -4.630489742659897,4.877414169850454 l-3.143317528702154,1.8037989627200728 m13.758624072431886,-15.707200600446894 l3.726892302950272,4.012600084246328 5.748609971173428,5.541693212945078 l4.2543163698439095,3.3098316944550543 1.7303438911849647,0.9424626131830268 " fill="none" stroke="black" stroke-width="1" /></svg>