<?xml version="1.0" encoding="utf-8" ?>
<svg baseProfile="full" height="107.73057981991845" version="1.1" width="114.75635826419757" xmlns="http://www.w3.org/2000/svg" xmlns:ev="http://www.w3.org/2001/xml-events" xmlns:xlink="http://www.w3.org/1999/xlink"><defs /><rect fill="white" height="107.73057981991845" width="114.75635826419757" x="0" y="0" /><path d="M25,25 m0.0,0.0 m11.843126077374455,13.102746183936476 l0.5000986567035423,0.1386899667225002 2.0920579890602506,0.15589694213880734 l31.523364015349024,-2.2799571971446166 5.4556832951730225,-0.1806796021270598 l2.7443585841170073,0.28095015116085026 m-32.58545800770793,-4.661109645790352 l1.1512423803076335,0.9582583536572931 0.39008602588822894,0.6788903797381257 l1.5827697041856372,9.824649371598564 m16.219693607257703,-12.471382779583458 l0.6838763060361065,0.8753695758067389 0.2318532873079992,1.0265277701580144 l-2.3055205457775743,9.422342622404882 m-26.06152334564124,5.504610593556807 l4.079691405239967,0.23637293948139224 29.15897808000942,-2.383412325884289 l4.530955289806922,-0.12767977882367063 2.324503464848963,0.25434387204295866 m-21.813519669622487,2.3653986996853096 l0.01843783808480071,0.8907573936056098 -0.5255437940625196,0.8548654467954445 l-3.0282557197914897,3.556627318067468 -4.586580708027777,5.246948071474349 l0.031673732670952,0.7183934874869725 0.8202841185241369,0.05291688869805973 l20.668712638038688,-4.240212844751394 5.5879405577802315,0.48885911423315 m-6.904795813940086,-6.873113958819195 l2.549066150947184,1.7453458719021 2.9403562805667702,2.8873558297518165 l2.1780433162288357,2.835210260720493 1.1446145294921812,2.348806561835532 m-43.60270518171238,9.251368828963518 l2.6201909201140476,0.3009519572404473 4.03391297748396,-0.0027399754052388897 l39.205087745532325,-2.1897140517587106 6.81020011730012,-0.11184140536868635 l3.0494019590509427,0.27912408326920896 m-36.928335162295994,-5.929216763410359 l0.6787177070087338,1.3226242825427954 -0.3591987243770007,4.441799655736783 l-0.8472582813227811,3.390004538520719 -1.5499487274338066,5.9095889306562706 l-1.5071848788058562,3.635672571496084 -4.039506256289201,2.405165522170781 l-2.7165129023819525,0.6257725172683855 m26.524955521086373,-22.259524337532095 l0.7803095997130995,0.789107065540164 0.32130192315929745,1.0573473402284832 l-0.1389530420355775,21.581503526024218 " fill="none" stroke="black" stroke-width="1" /></svg>