<?xml version="1.0" encoding="utf-8" ?>
<svg baseProfile="full" height="107.44942033793683" version="1.1" width="102.55114884062439" xmlns="http://www.w3.org/2000/svg" xmlns:ev="http://www.w3.org/2001/xml-events" xmlns:xlink="http://www.w3.org/1999/xlink"><defs /><rect fill="white" height="107.44942033793683" width="102.55114884062439" x="0" y="0" /><path d="M26.518601868758374,25 m0.0,0.0 m12.8922360130681,4.035444175212322 l0.3391933857323587,0.4041907610962146 0.5397356297521797,1.9477371376379082 l-0.0829812620299547,14.022928000584258 m0.39007423240775924,-8.203548984793727 l7.56164166645125,-1.3503165640708743 1.5587641234091065,-0.06330600090919342 m-18.774305898859296,-0.1761859042680638 l0.6927642940476527,0.8705798275771853 0.2816634159549121,1.1340316660380148 l0.11722771864644492,11.19377546618167 m-5.675269408165812,1.0747398658291116 l0.6295458292093582,0.33585889680151193 1.4958444905799095,0.1683357491741739 l19.503905569735156,-7.06032996789011 2.694036260407265,-0.4398661433997825 m-12.581672979488154,3.982475741067762 l0.5121835138860923,1.60561665832108 0.10950334330515492,1.656422746558469 l-0.20022688066984629,16.724431147870924 -0.28088314313538904,0.994822498850257 l-0.4565217030952185,0.3006142734750584 -1.1468130480961098,-0.3196077693440977 l-1.5271917871996012,-1.8175660094124304 m-3.1236814898905974,-13.86339783684749 l-0.2905896363413837,2.1286861702082835 -1.7728720018062367,4.238233796175722 l-2.4664308490336806,4.395633209853416 -2.457481267539795,3.4477945870255593 m20.317952282730214,-16.210546000546422 l1.8113824585846452,1.655051548739696 2.044222274829314,2.6436354794853467 l1.372807532276711,2.4766062990038193 0.7141413736952898,2.166944860708685 m-4.3051047499094635,1.425769812191522 l-0.07423936871954313,1.4714853147503504 -1.3915898293328104,2.7286336967504536 l-3.0184886087598106,4.612561946389455 -3.0416016471700766,3.8698791721225256 l-6.263500412796548,6.324328256257717 -3.603429224298952,2.916842757480552 m23.31895910879026,-53.57204163433044 l1.5814846664996847,0.3785938700573797 2.133792086368883,-0.09860563153060678 l12.623755848664949,-2.318369353322177 1.413896911880186,0.47572600087673617 l0.34456332536681317,0.6820142525626166 0.015336043782060287,0.8229694548117137 l-2.176214706298212,12.774563754766591 m-14.573093974358358,2.621096645291739 l15.450427614895235,-2.0273188893829803 3.305367918220155,-0.0834792159584434 m-18.984445154364376,-11.20028904668603 l0.6019784490258712,1.221317288854808 0.18644561910682886,1.423381244830516 l-0.17941331896561225,36.11434837913034 0.25764127227812567,3.161261997993486 l0.7064418664848615,1.2626102799423966 1.809924795566406,0.7262702808183119 l3.8330408778527336,0.31998661401697065 8.52365828214014,-0.07597863698138897 l4.367739247354665,-0.634656019010875 1.7557224837266117,-0.9317213280370747 l1.1282094441028017,-1.593816320436036 0.4537774123280262,-2.623847742788814 l0.0896006390466718,-3.6751462841088487 " fill="none" stroke="black" stroke-width="1" /></svg>