<?xml version="1.0" encoding="utf-8" ?>
<svg baseProfile="full" height="106.11987211939483" version="1.1" width="100.92513464997432" xmlns="http://www.w3.org/2000/svg" xmlns:ev="http://www.w3.org/2001/xml-events" xmlns:xlink="http://www.w3.org/1999/xlink"><defs /><rect fill="white" height="106.11987211939483" width="100.92513464997432" x="0" y="0" /><path d="M25,25.181167711032696 m0.0,0.0 m28.593536327248234,-0.18116771103269583 l0.39638622604993434,0.4221580183890778 0.5565526781255747,1.8895563798995232 l-0.015706669885105468,5.196049540113941 m-15.99659509357631,1.8026980368393632 l-0.969862499911866,4.763909946986194 -1.7493510243498216,5.274281476395493 m3.019123548223362,-8.331891918478735 l19.16364577900777,-2.9003348076453666 11.818204347034351,-1.228676704817496 l3.940430161881847,0.029267428409714066 0.8007353081027391,0.49243755161198977 l0.15095765405419823,0.660579311022042 -0.25855288637897683,0.7531815250650279 l-1.2988471382144744,1.6893019350916276 -2.3938508168537784,2.1841062941964817 m-26.70403407689223,6.706263606013998 l2.789511227877918,0.01232772781893394 13.446089012055221,-2.31126672383832 l4.092508173649307,-0.12692579018219896 m-23.006940068604415,10.470494780604408 l3.1666368727579046,0.16154054466605264 20.292959884367896,-2.612416112397772 l3.4128172140878124,-0.20043552427706213 2.3802256904441603,0.2878805371241468 m-21.181862837455522,3.748373671342347 l-0.05056665184139936,2.0195594149250717 -0.6578629698801126,1.859839109916313 l-1.6197254681170816,3.4087799040847053 -2.2145094223546566,5.8865419104252945 l-3.326562156290307,7.244453148976369 -2.0556700371449312,3.5126132484684933 l-2.4726056720189473,3.355624652645162 m19.615322695348485,-27.279492537514383 l0.4895386402775948,0.8643042659028972 0.2951025327275762,1.7775996547339517 l1.1422096403494295,18.317624830916206 1.3413485563027194,1.1832527355273166 l2.5765733559813833,0.659837989342085 5.2052761642841565,0.1642809484139384 l4.138190565990535,-0.3799086546643558 1.5226538737372752,-0.5971072851614285 l1.477682401815909,-1.0087569900476419 0.8124437699277257,-1.6223095378158232 l0.2615778380332532,-2.3679113813429535 " fill="none" stroke="black" stroke-width="1" /></svg>