<?xml version="1.0" encoding="utf-8" ?>
<svg baseProfile="full" height="99.23775575095974" version="1.1" width="113.1292879490543" xmlns="http://www.w3.org/2000/svg" xmlns:ev="http://www.w3.org/2001/xml-events" xmlns:xlink="http://www.w3.org/1999/xlink"><defs /><rect fill="white" height="99.23775575095974" width="113.1292879490543" x="0" y="0" /><path d="M25,25 m0.0,0.0 m12.524034339551129,5.288560277484755 l0.3720112889512006,0.41000130604600465 0.5750733013328198,1.150081407587982 l2.3605028051327137,15.102173809789972 m-2.2155684098402406,-16.867746552391225 l28.942918117761813,-2.302215515929178 1.654543427706383,0.23486794297840952 l0.9137414669142226,1.486926630395841 -1.4949354200146183,9.258719182043054 l-1.4132382469630633,6.796083935450041 m-27.45597040212605,-8.124598147576434 l18.807349685191433,-1.822475588556789 m-17.546189651111654,9.360737864757526 l24.850102765399065,-1.6955245462391237 m-26.831482746623298,12.679090380567875 l0.6479206854722169,-1.6728372822435136 9.79413867047392,-0.6845717782990832 l2.199388203457827,0.018580028360755067 m-10.770001683315638,9.258911205941043 l1.4859860421163824,0.19128888979795125 8.4767608554545,-1.1394065238615685 l2.1297139447282096,0.0515819470398443 m-16.91433773783511,-12.214165285705768 l0.5480222172415964,0.6347594803836237 0.24616099165043942,1.028965943410391 l-0.02252142922007884,22.229595000096865 0.28079709501666633,0.5803717396304766 l0.638793149596014,-0.05238818462660121 1.223225044227978,-0.5378326813609513 l9.85902737708821,-5.647725964605237 m22.579824890491413,-13.37588242763353 l12.56886838814695,-1.5723808902699277 2.5328859010660274,-0.032167373281795676 m-17.299389689811314,-7.63580978074542 l0.8274159862293792,0.9968302291908516 0.2858066212077645,1.2443183557025288 l-0.15536323022116955,18.17100592894069 0.3639285779670648,2.3161852065799793 l0.7783053906486016,1.8163407602270123 0.898645731182083,1.0240824239832897 l1.1703819322330924,0.745434097264871 2.7364756333241806,0.5028949466920704 l8.486896412131232,-0.09625350843274628 2.120672145465987,-0.44365004010714776 l1.3679675115780061,-0.8393831960531781 " fill="none" stroke="black" stroke-width="1" /></svg>