<?xml version="1.0" encoding="utf-8" ?>
<svg baseProfile="full" height="120.82277092941551" version="1.1" width="98.75711508971986" xmlns="http://www.w3.org/2000/svg" xmlns:ev="http://www.w3.org/2001/xml-events" xmlns:xlink="http://www.w3.org/1999/xlink"><defs /><rect fill="white" height="120.82277092941551" width="98.75711508971986" x="0" y="0" /><path d="M25,25 m0.0,0.0 m6.734102434791944,10.834245850983196 l0.5058716345816482,0.15813702814508113 3.5139651563227425,0.2118657205820042 l18.47827057622838,-2.480413598993221 11.99829180966264,-1.052258192608081 l4.255574644373689,-0.026569228546062494 3.271038833758816,0.5317925609671633 m-31.590769118030337,-6.968548601741414 l0.855618494896825,1.1026998088220838 0.3834093917454255,1.0680444778781615 l1.86176849062767,14.317568476603793 m16.22316328373085,-17.652665854746754 l0.26757092095192875,1.2409729579505138 -0.05354100916755126,1.3199255465360995 l-2.358132757492444,13.859128699257605 m-8.275516912028653,7.2252809145185966 l-0.2108976029704046,1.8496963635154808 -1.503709052728049,3.114510703366201 l-4.772870012189474,5.503965080216045 -6.489806046742221,4.4935676886542995 l-7.238367317162977,3.3332124013108664 m0.6659481591515838,-17.506354604822 l0.7992768679617437,2.529297284818633 0.23778280319492448,9.792301004025013 l0.03600315854107974,9.699192634989032 -0.2229862277618804,7.454916302503472 l0.1670850449239141,5.12170440042238 0.3926047233512473,4.487293712894986 l0.4890809208391032,1.7991152896960751 0.7162124117665003,1.3598978414725198 l1.1088317178348983,2.0223485365492255 2.7037723306539263,1.4411985990854155 l4.310981331078039,0.6008608810281146 9.80530144252991,0.036840244080989876 l5.6803987478489075,-0.8377406389209757 2.181965157627476,-1.143815466790721 l1.4007654599054555,-4.255416143538701 0.1615957855020163,-4.1436464919345415 " fill="none" stroke="black" stroke-width="1" /></svg>