<?xml version="1.0" encoding="utf-8" ?>
<svg baseProfile="full" height="109.4925147620961" version="1.1" width="103.74702949076891" xmlns="http://www.w3.org/2000/svg" xmlns:ev="http://www.w3.org/2001/xml-events" xmlns:xlink="http://www.w3.org/1999/xlink"><defs /><rect fill="white" height="109.4925147620961" width="103.74702949076891" x="0" y="0" /><path d="M25,25.000001080334187 m0.0,0.0 m6.754013299942017,9.648576974868774 l0.554560013115406,0.18699893727898598 4.024520814418793,0.363641157746315 l17.232950925827026,-1.4699140191078186 16.300102472305298,-0.954882949590683 l5.651230216026306,-0.15848567709326744 3.2296517491340637,0.3492613881826401 m-34.477784633636475,-6.443458795547485 l0.8602281659841537,1.2593133747577667 0.3228331357240677,1.1068093031644821 l1.690128892660141,11.66094422340393 m16.562857627868652,-15.548804998397827 l0.2643650211393833,2.1152502298355103 -2.4615199863910675,12.08181619644165 m-25.942842960357666,5.677638053894043 l1.9323773682117462,0.31577732414007187 2.116570621728897,-0.04781222902238369 l30.395169258117676,-2.7962160110473633 4.596906006336212,0.2704356610774994 m-37.203052043914795,9.168725609779358 l1.5372535586357117,0.46807505190372467 2.1812692284584045,-0.028738914988934994 l29.567949771881104,-2.8823426365852356 0.7651606947183609,0.22727057337760925 l0.450579971075058,0.4693954437971115 0.12089738622307777,0.7301706820726395 l-2.6306939125061035,10.069224834442139 m-31.87927484512329,3.372252881526947 l33.801422119140625,-2.7042585611343384 m-33.146843910217285,-9.004998207092285 l0.46972550451755524,1.5765348076820374 -0.7395783066749573,6.363576054573059 l-1.0686832666397095,4.8755064606666565 -1.4063706994056702,4.280675053596497 l-1.7089030146598816,3.7980756163597107 -1.9762802124023438,3.4263885021209717 l-2.7929356694221497,3.929453492164612 -3.087380528450012,3.740638792514801 " fill="none" stroke="black" stroke-width="1" /></svg>