<?xml version="1.0" encoding="utf-8" ?>
<svg baseProfile="full" height="108.91173526364491" version="1.1" width="100.40333363359947" xmlns="http://www.w3.org/2000/svg" xmlns:ev="http://www.w3.org/2001/xml-events" xmlns:xlink="http://www.w3.org/1999/xlink"><defs /><rect fill="white" height="108.91173526364491" width="100.40333363359947" x="0" y="0" /><path d="M25,25 m0.0,0.0 m30.62801451645294,6.399096249879866 l-0.022220058784401173,0.43656043823956053 -0.40203614324794423,1.1714965069638006 l-0.8804426655977617,1.5624342742808652 -3.1207231779500644,3.9142137838726443 m-5.70200327784808,0.7738890165731027 l0.5591290160590268,0.9167227717900909 0.2015787948607723,0.9423742263632048 l0.06817795165768072,19.74924909339117 m0.45637388001939355,-20.725007368095117 l16.511477544048073,-2.311352851065306 1.1662158970052754,0.2332525020931366 l0.7643433569005218,0.7877560590556624 0.22231349497646716,33.784813296725126 l-0.29171693125943593,0.9368159715725435 -0.48101129809804094,0.4636937570627882 l-0.6208268186355038,0.11622034232128174 -1.424337097989663,-0.6216302441190135 l-1.5692626760134858,-1.413797234455834 m-13.69433959897773,-28.08315074683735 l17.821209030463123,-2.099115913860686 m-17.61777924639104,8.552119457031116 l11.194219764038605,-1.8008347579954758 5.680006925316291,-0.660603764121043 m-27.10107345054372,12.115708798507251 l1.2525494625945168,0.651169429649708 1.085209881578794,-0.0503869383771033 l25.806788194349547,-7.220597498739951 m9.913498364615311,-8.85108585991245 l-0.042403776441857784,1.165325925423985 -0.356595209019811,0.9548176135661449 l-2.0991168774660225,2.8416007007431743 -3.6744690131447704,3.768531010054981 l-5.747647897488803,4.974017723887363 -6.3189110825811206,4.989674645852623 l-5.68486989338389,8.456986978563702 -8.370346793900925,12.090757867759342 " fill="none" stroke="black" stroke-width="1" /></svg>