<?xml version="1.0" encoding="utf-8" ?>
<svg baseProfile="full" height="110.34486569588178" version="1.1" width="105.07192131517405" xmlns="http://www.w3.org/2000/svg" xmlns:ev="http://www.w3.org/2001/xml-events" xmlns:xlink="http://www.w3.org/1999/xlink"><defs /><rect fill="white" height="110.34486569588178" width="105.07192131517405" x="0" y="0" /><path d="M25,25 m0.0,0.0 m12.108301553051799,9.653690487039997 l0.5110051585832232,0.17129688761749945 2.0950496002144225,0.14358444378137014 l32.03534873110506,-2.915154442141913 5.4280545774780435,-0.23248186098366047 l2.8941616947415003,0.30855929957226186 m-32.86278398059968,-5.514956441833219 l1.2104623758913162,1.0563807263722498 0.39856856859374307,0.7312182407809825 l1.3218173235861135,11.3782747756794 m15.908450303814043,-14.377091670780539 l0.6587721884111001,1.0141809430204147 0.1613065315407391,1.1851355715224803 l-2.204539710844563,10.963922013245341 m-23.142662811391094,5.762752342222965 l2.6891234834516866,0.3076845395709228 21.392289760590113,-2.7425537973026497 l7.386547305562262,-0.7055382847923227 2.4045260934289607,0.2797141509489519 m-27.063873087595052,3.7493513745401565 l0.5440200355796878,0.8163145083334457 0.3266744217238605,1.9538653483116424 l0.09130492540550868,26.27533454022937 m0.268662961124708,-21.672140345278567 l18.291919840101414,-1.0459409217450086 m-18.498404159251656,9.86831863048618 l18.4664215580481,-1.1778652151950826 m-28.437824680357917,16.363348045267962 l1.137948117509034,0.45899551059937327 1.6745584269364404,-0.09944258118402226 l31.70911826667408,-9.662254395554774 m-6.231609040021267,-23.3540525318144 l0.6933763621229386,1.9929795444890264 0.1428712126493648,39.40943626085595 " fill="none" stroke="black" stroke-width="1" /></svg>