<?xml version="1.0" encoding="utf-8" ?>
<svg baseProfile="full" height="128.65091129285048" version="1.1" width="105.22537745925572" xmlns="http://www.w3.org/2000/svg" xmlns:ev="http://www.w3.org/2001/xml-events" xmlns:xlink="http://www.w3.org/1999/xlink"><defs /><rect fill="white" height="128.65091129285048" width="105.22537745925572" x="0" y="0" /><path d="M25,25 m0.0,0.0 m14.971555994637583,15.051957502381656 l0.4637077278957634,0.13363424705902927 3.15402273651962,0.09046060829768124 l18.014230868905205,-2.1998945526688822 2.9938715497900605,-0.13395979121927298 l2.147289124154564,0.2507348723963382 m-27.753918105452655,13.215372002668389 l1.6441672638851614,0.2135457398167389 1.9565615651128982,-0.10103135978645326 l20.372325985720224,-2.384400083980353 3.5444433786379412,-0.12275968319372027 m-35.96412605972496,12.32074673633675 l2.3285179124522384,0.30778005240375317 2.562260307405318,-0.053916041268585436 l31.273180756869085,-2.9046319777909884 5.639291715144736,-0.36035687665916954 l3.3563050221608726,0.29463252741506846 m-23.4200149546583,-25.271933327652388 l0.5813186053694493,1.6220468147382539 0.04629084485298551,1.5756769472986312 l-1.4085728200176684,19.63257340408549 -1.4824048864450818,13.442498549643918 l-1.7491578774068963,8.600332830855134 -1.659756486531621,4.905398691973445 l-1.7182395511432524,3.971982514372944 -1.8168710715369647,3.6569000455692873 l-2.0151102472597846,4.726024427235598 -2.053647718933854,7.181205606554264 l0.3342990814543557,0.6234219860496351 1.4386074152475832,-0.04529733422530876 l14.372442195628935,-0.24259733814035972 8.695862716335773,0.10129710951604866 l6.794823697178219,0.10388747326135966 5.471012639812654,0.24263220759581874 l4.110808133195535,0.20694676191071004 " fill="none" stroke="black" stroke-width="1" /></svg>