<?xml version="1.0" encoding="utf-8" ?>
<svg baseProfile="full" height="98.11197679645474" version="1.1" width="104.52654633660016" xmlns="http://www.w3.org/2000/svg" xmlns:ev="http://www.w3.org/2001/xml-events" xmlns:xlink="http://www.w3.org/1999/xlink"><defs /><rect fill="white" height="98.11197679645474" width="104.52654633660016" x="0" y="0" /><path d="M25,25 m0.0,0.0 m23.110281843165776,19.868186078274768 l0.04138729265405189,0.27855310652492066 -0.1255612215446395,1.380034244276897 l-0.9437898317624507,2.191680171193865 -1.5429307557467102,2.664745564953053 l-1.881252708938654,2.6142665335930606 m4.759193743582988,-4.766044233631789 l1.2111496709007439,0.030378017262033628 7.290151279923751,-1.2974049933705356 l1.3624753311520488,0.039897025644085995 m-16.069359099995374,10.537470388027002 l1.5363175849655915,0.19095817439333362 2.3166581409599027,-0.12808461941913876 l10.443431197155363,-1.4150189373121724 2.2959362418415155,-0.21469894695988195 l1.0730843814586448,0.10393556541952519 m-7.888188689246728,-7.320063043432051 l0.22682823683539832,0.7623120831488603 0.077562190382014,1.5846426078871902 l-0.32926589851280286,5.184069929779744 -0.6640880046644212,3.8746821139684005 l-0.9569002585315235,3.1772718171686423 -1.2995852348880537,2.750948583385636 l-1.6066389193489385,2.3284638954664416 -1.992531195895572,2.01008860673753 l-2.335611005970688,1.6807070634753265 m9.293610790759654,-10.706987819086324 l1.6797023594869782,1.2685858959239433 1.6293546782732904,1.522551986920377 l1.3863049787593689,1.7217641981638965 0.9668144131713143,1.6407685162146846 m3.5540996207240827,-26.969525171798107 l1.9319455737356988,0.15391992701051557 11.154595317366422,-1.2603997940017089 l2.3031244136625393,-0.06661037132205633 1.142408468585752,0.20081092192436556 m-16.862315434328128,7.6548252113604205 l0.6403807583649309,0.5782541440328133 0.471179193214236,1.2626865213381413 l1.2938231640790359,7.692577581120444 m-1.1152657994810116,-8.838929254339543 l12.336164638882222,-1.325512720799026 2.689187228306835,-0.26182287873664534 l1.0368163985080752,0.08245967501449508 0.7363066818788724,0.5641373447021176 l0.13682626372956103,0.9985891297154915 -1.7082893263244192,6.204478275645394 m-13.580093043901117,1.6934117714761436 l14.577557545586282,-1.0801500654647724 m-15.61535771994766,-21.943962194529103 l0.42327681129861033,0.7684280479923812 0.18426279429030418,0.9795914185561375 l0.07967805671464435,9.557871659118309 -0.1412551901826022,6.122458238877658 l-0.46148726988452227,4.955673581160012 -0.876660010420385,3.831613129224081 l-1.0413254990685479,2.102621092776296 -1.5290958365509182,1.664582866672332 l-2.1882915462352126,1.4368616086269403 -3.3942000542935835,1.5904148451947888 m13.098830259217674,-13.562782653304204 l3.3227252370165936,4.183507673426519 3.9740857314943745,4.5949260604711535 l2.716966301423416,2.7752339478946357 2.171401078756282,1.7674245767153611 " fill="none" stroke="black" stroke-width="1" /></svg>