<?xml version="1.0" encoding="utf-8" ?>
<svg baseProfile="full" height="92.41228839295826" version="1.1" width="107.04364065399736" xmlns="http://www.w3.org/2000/svg" xmlns:ev="http://www.w3.org/2001/xml-events" xmlns:xlink="http://www.w3.org/1999/xlink"><defs /><rect fill="white" height="92.41228839295826" width="107.04364065399736" x="0" y="0" /><path d="M25,25 m0.0,0.0 m18.635002508543305,22.36474810736403 l0.29540066220637207,0.329650931764105 0.42648777150051553,1.257082960215958 l0.15963388609154083,18.460806393614167 m0.30943515790050935,-20.106331569786782 l10.619662120352219,-1.4720943527459618 1.3016260391346979,0.16853023919374002 l0.6515804906443747,0.34252425521395097 0.30704488663846774,0.9969035462047494 l-0.06109397679266753,18.697393380451096 m-12.10072602147995,-18.021721025698998 l11.342297301430962,-1.2370392682272506 m-11.098725460936754,7.726696350176074 l11.258816519243192,-1.150792745553235 m-11.264300701640263,8.524804027121666 l11.52294680751703,-1.1562295658438793 m7.486915396155528,-20.789216672560173 l1.2980856040256146,0.0417913250626999 1.6710599034605202,-0.09095275516661785 l11.972090229723205,-1.5505461873592976 1.4139027848068226,0.047435648580650365 l0.548451457682727,0.20247143829579214 0.3480472877893977,0.7868864328876901 l-0.10155701205337428,0.5885232500937424 -0.9933054788116461,5.055802483920011 l-1.1146989280125146,4.490575429277446 -0.7717622269372916,1.8696347093982535 l-0.5642012503722587,0.8255927122067034 -0.5502624886684623,0.40986067481418703 l-0.5250995154152681,0.08250821244339597 -0.5104795945980276,-0.13999864544062615 l-1.2580829773462199,-1.03309079312132 m-3.5781073284693354,-9.875327444407658 l0.035099193237376675,0.841643171032383 -0.4307695934293125,1.1564329301710925 l-4.567902867550145,5.954715717624006 -3.2294153946277815,2.397703973803934 m1.0605936419397535,4.429523903724967 l0.5351936925448123,0.6142395381249394 0.25210112568845666,1.0583090786856846 l1.2400298702779853,8.67510869786783 m-0.8872780835828888,-9.861404326268525 l12.729198446243707,-1.369351415792737 1.2539459390925183,-0.0526602631425038 l1.1395611865938002,0.24468986452904865 0.6456195671567985,0.7098707559369186 l0.005766407539578495,1.1115279690497075 -2.0538931251321815,6.743854964924731 m-12.617367459854417,1.1109193769936319 l13.93423321500908,-0.7976329889936226 " fill="none" stroke="black" stroke-width="1" /></svg>