<?xml version="1.0" encoding="utf-8" ?>
<svg baseProfile="full" height="119.57010310165319" version="1.1" width="100.14335067020221" xmlns="http://www.w3.org/2000/svg" xmlns:ev="http://www.w3.org/2001/xml-events" xmlns:xlink="http://www.w3.org/1999/xlink"><defs /><rect fill="white" height="119.57010310165319" width="100.14335067020221" x="0" y="0" /><path d="M25,25 m0.0,0.0 m27.18778488238361,13.452579523857748 l0.07243906447001405,0.36673207642348554 -2.032667854879935,5.109411312607581 l-2.7112696870408213,3.063102255215824 m-6.5323811363059665,0.5987988286044821 l0.593888319633295,1.005310715780521 0.19656044380102716,1.0535951594441801 l1.532473248294166,21.436164279130704 m-1.2333861535426043,-23.018882571784864 l22.45225534959972,-2.579546902432226 1.3833503831098204,0.01592669664002684 l0.5109319710282133,0.25907606152154694 0.6143855252957304,0.9648392703912508 l0.026352201964077265,1.2484893786379316 -1.3994168210684033,20.8761056120208 m-23.113397642082333,-11.501066543448943 l14.789183230366293,-1.3581467687040216 m-14.401043992983892,12.387963614193218 l22.479534497820186,-1.5734153187305155 m-32.82770428630976,13.994347845114618 l-0.33390986327885264,2.156666821183505 -1.204791585758039,3.1328103249162917 l-1.3922087996642536,2.8024197873274153 -1.5854877388522925,2.4047348673070856 m10.551718121158999,-13.330076565036162 l2.8845401696464736,4.69811999036927 3.5546952396689595,3.8923583415185457 l4.403987081293045,2.806582953395648 4.074403255901022,2.5292968977007746 l3.382478719350018,1.328570815931103 3.6169812874743115,0.8333056218943564 l4.250636845395038,0.45062470909262076 4.742553629948837,0.06330401156939257 l3.0276673927761646,-0.3864874214626654 1.4049845775316938,-0.7823068217543191 l0.160589523927928,-0.5602279161136305 -0.7377255033848732,-1.3538225077453498 l-2.028202368242311,-1.7299791332268983 m-19.46685401818009,-12.871830849366376 l1.4911561982889976,2.9078459690783234 1.0474974102729844,1.1510311438155714 l0.9145578001526057,0.1203709134958576 0.7359804047657078,-1.2519276285349423 m11.88158860209878,-4.889310753651173 l2.3169725048213285,1.264839444057512 2.0037041596377945,1.5807141914760747 l1.6408541053274575,1.9088658586355014 1.2171119745723509,1.9620878202331438 " fill="none" stroke="black" stroke-width="1" /></svg>