<?xml version="1.0" encoding="utf-8" ?>
<svg baseProfile="full" height="105.79184514662383" version="1.1" width="96.04545172772436" xmlns="http://www.w3.org/2000/svg" xmlns:ev="http://www.w3.org/2001/xml-events" xmlns:xlink="http://www.w3.org/1999/xlink"><defs /><rect fill="white" height="105.79184514662383" width="96.04545172772436" x="0" y="0" /><path d="M25,25 m0.0,0.0 m13.861555346955907,3.7636956575085905 l0.5173992600965365,0.14435691279442245 3.4605645203303896,0.08712629052052882 l22.24544646259395,-2.375742307281351 3.4006604147221924,-0.13141996443887102 l2.5598257230253934,0.30116306336208554 m-33.940631564076625,13.333131098722 l1.7876773754181159,0.25038272688742774 2.2355643125917926,-0.10662861117450381 l25.131742549588402,-2.7783182870235787 1.542872201978124,0.24190481961152305 l0.701915165291157,0.8154638477787587 0.11568504652960163,1.3599873204310586 l-2.237433428940138,12.201251546865265 m-28.145630646204907,2.9037483583347594 l28.46217953737743,-2.241350395193674 m-28.966400129266425,-10.786810590846427 l0.5822944105987246,1.221127541331573 0.21013457970538899,1.3181846941283462 l-0.21870087288389867,7.205592734717372 -0.7746447743247051,6.631948328805768 l-1.3491571675234977,6.136237876565221 -1.6462968699873064,4.863937569659847 l-2.087555502079792,4.326848172253799 -2.7009160470241143,4.343366285425059 l-3.4012480771800706,2.762660456878833 " fill="none" stroke="black" stroke-width="1" /></svg>