<?xml version="1.0" encoding="utf-8" ?>
<svg baseProfile="full" height="101.36994102216032" version="1.1" width="112.42211754351317" xmlns="http://www.w3.org/2000/svg" xmlns:ev="http://www.w3.org/2001/xml-events" xmlns:xlink="http://www.w3.org/1999/xlink"><defs /><rect fill="white" height="101.36994102216032" width="112.42211754351317" x="0" y="0" /><path d="M25,27.302917745660054 m0.0,0.0 m12.976349380037394,4.070741878954928 l0.5667575412994827,0.16019029326166392 3.431641167066969,0.25725019348573563 l25.556114641934084,-2.545251552280884 2.9586714840254995,0.30254456169711136 l0.9988027786215211,0.8912516255607034 0.2199102492945996,1.441850965929518 l-2.5606789552542977,13.481938847907116 m-38.42824171106476,3.7708467241336017 l2.5512211106634846,0.45472044042611076 3.1599985250590303,-0.07227622426561911 l18.313794914360287,-3.3344714079246733 16.348671347650722,-2.4676192526389498 l3.9931414369408134,-0.26944471915784757 3.263925695413919,0.4473329647818453 m-24.143663560541615,-18.892523085530417 l0.690758617102697,1.4165682984358103 0.26094460186155577,2.1705051722685513 l-0.08830130489753361,28.19252017110419 0.03584851527399218,2.942785667445537 l-0.34067657176205923,2.892815339200137 -1.8737031497044865,2.9961787383075875 l-1.3693695217432507,1.3120888313292256 -2.135415560434652,1.9140834102835027 l-4.31733678968748,3.4602455472288716 -6.3063921636772635,4.072149846556914 m21.150361142685032,-26.366526328397686 l10.803881676980343,11.847703608074706 7.347328923968688,7.057212298019313 l4.967669998135364,4.003743834654807 2.832606029898895,1.3791456653960843 l1.5574970540061857,0.3745639752188695 " fill="none" stroke="black" stroke-width="1" /></svg>