<?xml version="1.0" encoding="utf-8" ?>
<svg baseProfile="full" height="101.6236977966415" version="1.1" width="104.5140213521392" xmlns="http://www.w3.org/2000/svg" xmlns:ev="http://www.w3.org/2001/xml-events" xmlns:xlink="http://www.w3.org/1999/xlink"><defs /><rect fill="white" height="101.6236977966415" width="104.5140213521392" x="0" y="0" /><path d="M25,25 m0.0,0.0 m13.87768649971504,13.577792842791553 l0.6012608621597596,0.12912082237919348 4.249312461334232,0.09606622482806215 l24.13718383583755,-2.072896311793225 4.401611090648323,-0.10214173192596561 l3.0389714471436977,0.2684629316053033 m-20.19448544338368,12.389300068193872 l2.7405959805192763,1.0913952480515687 3.7838324228594757,1.0539882709405222 l4.4558244282555215,0.9080661262027581 1.4291701885724222,0.15032204668496685 m-11.315021316589165,0.6404793832851322 l0.52899090466376,1.0890875937368723 0.1244130844805175,1.1430226660629712 l-0.04072912673888261,17.888507007154786 m-12.651662515720847,-16.119993236865174 l0.562548324157014,0.8659315493974074 0.22334619337944375,1.0922117428862244 l0.24313404228801067,14.513120662840661 18.268926736480584,0.2666981874837993 l14.384769489146999,-0.1623804836350643 m1.1863451994931964,-14.520413732584405 l0.3768453175939865,0.6701135149631696 0.10115124584297208,1.2349229946201605 l-1.5722929193026194,15.532913409336315 " fill="none" stroke="black" stroke-width="1" /></svg>