<?xml version="1.0" encoding="utf-8" ?>
<svg baseProfile="full" height="117.63962114804173" version="1.1" width="101.55271299703448" xmlns="http://www.w3.org/2000/svg" xmlns:ev="http://www.w3.org/2001/xml-events" xmlns:xlink="http://www.w3.org/1999/xlink"><defs /><rect fill="white" height="117.63962114804173" width="101.55271299703448" x="0" y="0" /><path d="M25,25 m0.0,0.0 m29.224570931195526,12.756468118626506 l0.4422797238054017,0.35745206985774136 0.5924438844723809,1.5045653440681552 l-0.11847335695719416,4.468343052758261 m-19.80280133720746,1.8561917593006638 l4.17741408660812,0.09947771824337617 31.07354688005007,-2.2454963991435974 l3.274895260192872,-0.06260790517871306 2.6888369248747592,0.2652296284016291 m-23.973396045770137,2.7443037354139244 l-0.003943330216774595,0.9223185450875844 -0.43050206191633983,0.7452352517507013 l-4.726619025516494,5.584240935134536 -0.1826646556709896,0.7057953498347609 l0.2080288549500727,0.5254329127641008 0.6556802528478745,0.2497936304669704 l3.659863548560368,2.379371163408338 m9.527607042017422,-7.795726352453631 l-0.07457847054037105,0.6843386779339397 -0.4351768270354665,0.8437489334506382 l-8.282856289506077,12.478138660387067 -6.990761653032713,6.0883376542926255 l-0.5301640063955891,0.6210402334024238 0.9496774694091638,0.5030032564864326 l16.742302282140525,-3.6491403012628387 m-2.0563476344277576,-3.6452569878384242 l1.3868359758049933,1.3977255797515682 1.757747121214402,2.373803787806468 l1.2492875914967958,2.2379426023858704 0.6524540285698889,1.8427039519172095 m-22.784885588657623,5.893594669543618 l0.5232001655386527,0.7691324801682077 0.2102850518306372,0.9739012856317906 l1.6013938428797982,13.166218105643807 m-1.264557467597405,-14.141057070773298 l17.635620481389235,-1.4863283859783878 4.865532414860031,-0.26804945497316923 l1.1461097622314564,0.1776889281811409 0.8476321770426898,0.6546725667040845 l0.2491259737476214,1.5979035822609091 -2.5289131177064044,11.644293603534498 m-12.182401135646518,1.6980519704036101 l14.64221031137658,-1.051714155643955 " fill="none" stroke="black" stroke-width="1" /></svg>