<?xml version="1.0" encoding="utf-8" ?>
<svg baseProfile="full" height="95.77185011273359" version="1.1" width="94.21450583406539" xmlns="http://www.w3.org/2000/svg" xmlns:ev="http://www.w3.org/2001/xml-events" xmlns:xlink="http://www.w3.org/1999/xlink"><defs /><rect fill="white" height="95.77185011273359" width="94.21450583406539" x="0" y="0" /><path d="M25,25 m0.0,0.0 m7.529834811800186,8.592523626853085 l0.43305565328794654,0.11791672456484951 2.842735896568527,0.11904279062788711 l13.004186164879773,-1.2985817394484338 13.169492771671397,-0.771873247093794 l3.8176912254439688,-0.026035355165477 3.0094671554010626,0.37163197830397515 m-27.25121088436437,-4.261707670323902 l0.7124915332527183,1.46002880223057 1.1952758441519387,7.719277628690482 m14.03260352017742,-10.124083093463575 l0.17905510760586002,0.8885345233481914 -0.09944105274822944,0.9499227007657108 l-1.5956508028684124,7.286768405531415 m-16.180962273677874,-0.2031042879515539 l1.7188278128679506,1.3092270444078153 1.2955572773235513,1.637371358417285 m-8.61040153735082,3.1528765338691054 l2.6777810506870017,-0.8248907167885846 10.497366186541322,-1.3672312282797123 l3.020387397459135,-0.041282408121871055 m-13.590027135057623,4.055552804066956 l1.2564824906520555,2.0410616738550322 0.4899412722140836,1.7606477662236977 m7.967223490721282,-5.778519440566103 l-0.48406178897121943,0.9725347516565552 -2.5523680995854505,3.2755987658729873 m-12.281343388072225,2.950950499857141 l2.750008659047044,0.13935404105038113 12.63222170163742,-1.794889126274697 l3.9418212196790257,-0.20715583246627192 m-17.996046997388092,8.335124241971167 l2.4920848930073514,0.2687820897381827 9.037596314043203,-1.4250306948276006 l4.829283931236721,-0.398028902828928 m-7.535639845639712,-4.494562196599156 l0.5132407038095984,0.7252416916586314 0.2619637660274893,1.039390218112104 l-0.0187987240031578,19.305970526687428 m-0.8729335601821305,-15.554010312426202 l-0.3178860410279959,0.8932448374399463 -0.5325355697044891,1.1929487653977755 l-2.2598048091003538,3.38326415006308 -2.888711225072712,3.4581728997390995 l-2.8571564987253026,2.783468928329188 m10.791542229804564,-9.81094510532284 l2.457174782351657,1.8689278489081518 2.0635894969087234,2.5416209650386543 m16.378819803215446,-27.512861137687405 l-0.19457422498273433,0.7588435464552619 -2.441819535146917,2.5224109985876484 l-1.9912977708389001,1.4571404352442998 -3.5427805678434847,2.245135665333824 m-1.7159607017966645,0.5688059921541601 l0.49502584897575597,0.994314584530588 0.08798500087457989,0.9166075395554735 l-0.057201088178055796,13.419141489655635 -0.4715254306985681,5.612387500420166 l-0.6935882312088726,3.0014525790532276 -2.2763429481628643,2.738607056135132 l-1.6451971107189016,0.9921745092227993 m6.681368201346795,-20.980656289720976 l2.434297901698356,-1.5823576745968126 10.47229256081061,-1.885846401118787 m-6.985432496915087,3.073442224781031 l0.540620916389097,0.7983459245115565 0.18591648279753045,1.038032283323904 l-0.04690938849866653,21.381681061565033 " fill="none" stroke="black" stroke-width="1" /></svg>