<?xml version="1.0" encoding="utf-8" ?>
<svg baseProfile="full" height="111.33950173782789" version="1.1" width="93.65507748041347" xmlns="http://www.w3.org/2000/svg" xmlns:ev="http://www.w3.org/2001/xml-events" xmlns:xlink="http://www.w3.org/1999/xlink"><defs /><rect fill="white" height="111.33950173782789" width="93.65507748041347" x="0" y="0" /><path d="M25.748408509597454,25 m0.0,0.0 m25.022536508567267,11.915727110130163 l-0.0394178868336707,0.2397214381808642 -0.5188491285260173,0.6128428495865464 l-1.7973468424170382,0.8246911367572904 -6.128439986519985,1.614701263817842 l-7.239587728171989,1.3590347695619835 -7.34168378640582,0.9433064527162062 m-2.705619659290196,2.719047820867232 l1.6099050027280133,0.9314786515117451 1.8658515778208318,1.5850931323883304 l1.4604071992937386,1.671917629010688 0.58673379242893,1.146804450569533 m8.167558676794108,-6.9355788850638165 l2.1673813995082485,1.1754669474167077 2.12207786801042,1.7632667268683382 l1.411560754019641,1.478299596951812 0.740909787709852,1.3375916386967615 m15.087581413010636,-7.837878957160177 l0.04793476592536167,0.6266404359495606 -0.43588593245393276,0.842526513124024 l-2.2504560444956914,2.1851940161450956 -3.246932836328114,2.2419075131775443 l-3.763199879212185,2.03006796079776 m-10.55563503031546,4.510311158407119 l0.931420462750616,5.3370816186247145 0.759230761176511,7.9395234928396015 m-0.957801994772399,-13.701317180239009 l20.235982438016478,-1.7919452113171808 1.4613876777279957,0.011751308670815757 l0.9790735625179436,0.37421732610184066 0.3732870975740305,0.7969217712076527 l-1.253173938366382,0.5795902015482813 -5.6036251700402335,8.32010753014684 m-16.48896240596113,1.1714035347292258 l19.968794413884073,-1.2705826393554644 m-17.519073024320033,3.3939388040058525 l-0.06234665802132896,1.5675808493980297 -0.839526162663194,2.3417488992692266 l-1.2725156759824365,2.503819370696391 -1.940649553689382,2.9500126426922226 l-1.9691867017077926,2.3411582540365545 -2.3447487915758405,4.1489525741151345 l-2.099888383310805,3.392066927972699 -1.5634248769520316,1.951290292275305 m18.810301085556297,-19.39505054789984 l0.5525106524264586,1.156871570101164 0.1290643343729885,1.0651820582573763 l-0.024172192187035188,12.499348661818933 0.5414459385639695,1.8685284790657588 l1.0217171292498246,1.1570720855896612 1.9314300657374897,0.658056194691742 l2.8659914956893653,0.18752579542426046 5.772028400710988,-0.11314151579109043 l3.4064549026484396,-0.42820739224407417 1.543049627571627,-0.48320064942852253 l1.2127538054247726,-1.6443746374462889 0.08245664391921588,-2.1440785046627853 " fill="none" stroke="black" stroke-width="1" /></svg>