<?xml version="1.0" encoding="utf-8" ?>
<svg baseProfile="full" height="107.64472702809101" version="1.1" width="90.48382978381886" xmlns="http://www.w3.org/2000/svg" xmlns:ev="http://www.w3.org/2001/xml-events" xmlns:xlink="http://www.w3.org/1999/xlink"><defs /><rect fill="white" height="107.64472702809101" width="90.48382978381886" x="0" y="0" /><path d="M25.297999197785554,25 m0.0,0.0 m18.206931020729986,13.646863796160092 l0.3918941621089584,0.42617451283248164 0.43350422525445703,1.4244966205472511 l-0.01422326261820138,11.555093313506704 m0.9744195609504315,-6.683725473596429 l9.472770082992403,-1.0167494489389255 2.122661764232787,-0.003350437935249477 m-25.480625009739253,-0.27333270184899605 l0.7421165109088037,0.7550625171281606 0.3170787693684888,0.8611660522651723 l0.21112183210083985,8.101073514062765 m-7.67564885407525,0.44795663847778344 l1.7993892433253906,0.4198006868981129 2.3682773318547015,-0.059419774596715186 l28.9798768192736,-2.4589557521289507 3.7910085059345464,-0.11286501725467595 l3.1019432285508453,0.2985397608862189 m-19.929704526802364,2.746511877677562 l0.5677960935078291,0.8149504351549244 0.16450623261158842,0.9059525554924359 l-0.13803833834733778,10.610178492358028 -0.3129699169687279,0.6366160529862449 l-0.4561098622375125,0.2673596993287306 -0.5946508375903936,-0.023414262623432942 l-1.4383354659665153,-0.7544362658938293 -1.4216893438168354,-1.15032876170888 m-6.1065088091499735,-7.069949852972119 l-0.3481069772123537,1.3873693437997843 -2.172188960724104,2.2515022317854334 l-3.6135402254584856,2.633412620523715 -4.071295189924819,2.504310940994055 m31.520591922016678,-10.952190915580392 l2.5865618222641986,0.9523291467339492 2.6391987423713283,1.399870824484954 l2.1054239819626996,1.5107869640649876 1.462394314344878,1.4941463001931126 m-8.384710046361636,-0.18277649689012 l-0.04339718799261599,0.8695600460011271 -0.4055052804017782,0.972038752113763 l-2.4985678808230953,2.846796754792035 -3.893853648325769,3.2886987551817626 l-3.828330055753171,2.7560796141010893 -4.395405229562569,2.739683695962818 l-4.791212635845185,2.6007976513669786 -5.077197495930526,2.3405448405433793 l-5.24570273609001,1.92049718165411 " fill="none" stroke="black" stroke-width="1" /></svg>