<?xml version="1.0" encoding="utf-8" ?>
<svg baseProfile="full" height="109.49251334182918" version="1.1" width="108.32049887627363" xmlns="http://www.w3.org/2000/svg" xmlns:ev="http://www.w3.org/2001/xml-events" xmlns:xlink="http://www.w3.org/1999/xlink"><defs /><rect fill="white" height="109.49251334182918" width="108.32049887627363" x="0" y="0" /><path d="M25,25 m0.0,0.0 m7.98153817653656,11.139228343963623 l0.73605976998806,0.1174954604357481 4.066713750362396,0.08952788077294827 l17.444818019866943,-1.812906563282013 15.918545722961426,-1.1668068915605545 l4.030278325080872,0.025905827060341835 3.3286482095718384,0.5218352749943733 m-33.202245235443115,-5.83499550819397 l0.7392353564500809,1.100747063755989 0.28755471110343933,1.2956257164478302 l1.026831790804863,12.665777206420898 m19.85288977622986,-18.141433000564575 l0.26131460443139076,0.9994635730981827 -0.09023167192935944,1.7388659715652466 l-2.7383294701576233,13.350025415420532 m-9.70716416835785,-0.2737661078572273 l0.7817710191011429,1.7896749079227448 0.026101688854396343,3.879188895225525 m-20.387718677520752,2.3692968487739563 l4.542378187179565,0.14003771357238293 23.722052574157715,-2.603410482406616 l6.85016930103302,-0.4744945093989372 3.767877221107483,0.15166139230132103 m-30.80620765686035,3.5806867480278015 l0.4873638227581978,1.104089692234993 0.07523136213421822,3.2414042949676514 l0.2949086204171181,1.5586952865123749 1.0709970444440842,1.3778558373451233 l1.5162430703639984,0.6112104281783104 4.35184508562088,0.45101210474967957 l8.924307227134705,0.03305082209408283 6.309322714805603,-0.30474865809082985 l3.6958426237106323,-0.5631175264716148 m-28.02509069442749,9.386266469955444 l0.2565094828605652,1.3227014243602753 -0.7086915522813797,2.8473013639450073 l-1.3636493682861328,3.3821311593055725 -1.642095297574997,2.802174985408783 l-1.724492460489273,2.180769294500351 -2.151019424200058,2.088511139154434 l-4.961885511875153,3.3259740471839905 m25.072829723358154,-20.20587682723999 l0.5894829705357552,1.015842780470848 0.20457247272133827,1.4828161895275116 l-0.020541860722005367,15.889716148376465 m13.156818151473999,-19.938461780548096 l0.5894829705357552,0.9249216318130493 0.2581390552222729,1.161583960056305 l0.09006453678011894,13.574655055999756 0.43789204210042953,2.1918003261089325 l0.6304308772087097,0.9600198268890381 0.9874298423528671,0.6297623366117477 l2.3121370375156403,0.4578646272420883 4.697813093662262,0.006622699438594282 l2.516375184059143,-0.4412347450852394 1.0101601481437683,-0.6307651102542877 l0.595165528357029,-0.9840872138738632 0.3537190333008766,-3.3172830939292908 " fill="none" stroke="black" stroke-width="1" /></svg>