<?xml version="1.0" encoding="utf-8" ?>
<svg baseProfile="full" height="105.74075276134349" version="1.1" width="103.19252692818793" xmlns="http://www.w3.org/2000/svg" xmlns:ev="http://www.w3.org/2001/xml-events" xmlns:xlink="http://www.w3.org/1999/xlink"><defs /><rect fill="white" height="105.74075276134349" width="103.19252692818793" x="0" y="0" /><path d="M25,25 m0.0,0.0 m16.564860770939383,13.94456114898233 l0.43991039997774994,0.14479346697532947 1.994481221068374,0.11492248206677902 l26.909643299542427,-2.2122367372789578 4.7218044099557135,-0.1386723359804666 l2.5618268267042823,0.2733856276599031 m-28.042354151536067,-4.667169506856396 l1.0415030909306464,0.9247298877152014 0.3442775383775228,0.657411958294844 l1.124287853852199,9.765911544062677 m13.1622425449155,-12.260163034526984 l0.5904186220468207,0.7879507302483398 0.21730724393451767,0.9779872214939458 l-1.9590906783074327,9.755724422191117 m-20.256091166160058,4.670544387161602 l2.338380342394665,0.24582913037147663 19.286100619159072,-2.062659767074888 l7.3366673168026795,-0.5342805862021316 2.111878634208666,0.23700788493698474 m-24.924477197708097,3.041487965375825 l0.5048993238127059,0.6739901730090756 0.3215622367498254,1.6301129280978244 l0.18329387587823667,21.127831848244625 m0.17848325503282902,-17.72144441079739 l9.89640503568083,-1.1414235136292668 m-9.845106976829321,8.397810358786169 l9.88157087832748,-0.890817062750628 m-18.765519458067505,13.839537467885545 l1.0343815908466736,0.41256170741661635 1.4728840273768524,-0.09360623258189296 l26.95553601377205,-8.717938989987411 m-5.3458749531715695,-19.72201523255385 l0.6036733224064532,1.714821964529977 0.12905934502977046,32.56426586605757 " fill="none" stroke="black" stroke-width="1" /></svg>