<?xml version="1.0" encoding="utf-8" ?>
<svg baseProfile="full" height="113.66365152792852" version="1.1" width="103.98646676939714" xmlns="http://www.w3.org/2000/svg" xmlns:ev="http://www.w3.org/2001/xml-events" xmlns:xlink="http://www.w3.org/1999/xlink"><defs /><rect fill="white" height="113.66365152792852" width="103.98646676939714" x="0" y="0" /><path d="M25,25 m0.0,0.0 m30.493634102762982,20.610326096395635 l0.39021134273675984,0.12813638492467985 2.145320666315284,0.06117951555253295 l11.407221877713146,-1.8923812535158384 2.3342999665682878,0.0454347553432185 m-8.461789999309723,-7.364028561854695 l0.6757811369593221,1.3417685432107225 0.13486696379125995,0.9425797750415075 l0.006503917724178148,13.85227817964366 m-13.828147013252027,2.232816637359473 l2.8848707042503974,0.2345916141600448 21.32353379507946,-3.0629662108445115 l2.1954147946797278,-0.15554867668796934 2.284744513378089,0.29384090175874245 m-5.12693067391231,-13.510134068417683 l0.11294314235067708,2.4041221253231275 -1.3759519265386926,4.098004337453592 l-2.407700869079955,6.149602626401946 -2.9582011912787345,6.035153424630933 l-2.688326413723155,4.3541975017205825 -3.1512657186785673,4.035877601446226 l-3.662200370894714,3.773395244890393 -4.311494913974287,3.549700977257878 l-3.7106598468920446,2.5167073555354134 m10.144767387996287,-8.197349446005747 l0.4358105367634666,0.749540929843391 0.1324241864006534,0.9904333881506596 l0.0064904578461771915,19.446371829210605 m0.4571871619776337,-20.201148849018054 l11.41816089460733,-1.656150739354342 1.2123709273087502,0.04058563537386286 l0.7187657727037778,0.6885482082440411 0.22334586901468254,1.473773797267485 l-0.028609272398594728,18.239982324734463 m-13.146404389346948,-10.185864260664648 l12.741308132510119,-1.12814672205344 m-12.60365246269314,10.72384399871865 l12.36085586321907,-0.9927358821329235 " fill="none" stroke="black" stroke-width="1" /></svg>