<?xml version="1.0" encoding="utf-8" ?>
<svg baseProfile="full" height="109.4925119401887" version="1.1" width="100.78315652906895" xmlns="http://www.w3.org/2000/svg" xmlns:ev="http://www.w3.org/2001/xml-events" xmlns:xlink="http://www.w3.org/1999/xlink"><defs /><rect fill="white" height="109.4925119401887" width="100.78315652906895" x="0" y="0" /><path d="M25,25.000000949949026 m0.0,0.0 m2.2012801468372345,9.931150078773499 l0.5358367413282394,0.18041806295514107 2.221161425113678,0.17598560079932213 l36.96223020553589,-3.166837692260742 5.816061496734619,-0.2221161313354969 l3.046586513519287,0.3429112955927849 m-34.88191843032837,-5.056302547454834 l1.3450093567371368,1.1432496458292007 2.017267644405365,10.288097858428955 m15.087480545043945,-13.616557121276855 l0.1815672218799591,1.94339320063591 -2.575348913669586,11.504400968551636 m-16.516380310058594,0.5043169111013412 l-0.08066177368164062,1.6406716406345367 -0.6508347392082214,1.5858402848243713 l-1.469775140285492,2.4477100372314453 -2.1311986446380615,2.781294584274292 l-4.602876901626587,4.655081629753113 -5.811464786529541,4.204610884189606 m13.479970693588257,-11.326117515563965 l1.03063203394413,0.39834797382354736 1.25915065407753,0.0420674541965127 l26.213972568511963,-2.888043522834778 2.3121091723442078,0.36233924329280853 l0.8493931591510773,0.8438114821910858 0.36764901131391525,1.356336623430252 l-0.05251249298453331,1.8957850337028503 -1.6872946918010712,12.350510358810425 l-1.9667047262191772,9.494685530662537 -1.995597779750824,6.802368760108948 l-2.5747743248939514,6.224505305290222 -1.180022731423378,2.0074178278446198 l-0.5798330903053284,0.4957803338766098 -0.5768781527876854,0.16539691016077995 l-1.166561245918274,-0.45301515609025955 -1.8685336410999298,-1.859668791294098 m-23.95505428314209,-26.74980878829956 l2.3551207780838013,2.425055056810379 1.5581783652305603,2.8331708908081055 m18.953911066055298,-8.788772821426392 l-0.3146747872233391,1.4860276877880096 -1.582556962966919,2.519942820072174 l-2.021864354610443,2.2014614939689636 -1.8636086583137512,1.4715810120105743 m-21.412456035614014,5.19814133644104 l3.435659110546112,0.2936667203903198 20.09716033935547,-2.4120038747787476 l6.700257658958435,-0.30234184116125107 m-15.266094207763672,-11.630808115005493 l0.731193870306015,0.8270666003227234 0.1793869026005268,0.867123082280159 l-0.11715528555214405,27.724297046661377 -0.2114453725516796,2.752729654312134 l-0.5529099702835083,1.29362553358078 -0.7715786248445511,0.19847629591822624 l-0.8687646687030792,-0.5338667333126068 -1.9660480320453644,-2.365299016237259 m3.577498197555542,-17.314879894256592 l-3.3813202381134033,4.4748276472091675 -4.723702669143677,4.645231664180756 l-4.780832231044769,3.630359470844269 -4.980786144733429,2.715464234352112 m19.752413034439087,-14.866843223571777 l3.137533962726593,1.8146872520446777 4.025342166423798,3.221915364265442 l2.993396520614624,3.1467273831367493 1.860489398241043,2.9848602414131165 " fill="none" stroke="black" stroke-width="1" /></svg>