<?xml version="1.0" encoding="utf-8" ?>
<svg baseProfile="full" height="112.79119742208216" version="1.1" width="104.49588339910191" xmlns="http://www.w3.org/2000/svg" xmlns:ev="http://www.w3.org/2001/xml-events" xmlns:xlink="http://www.w3.org/1999/xlink"><defs /><rect fill="white" height="112.79119742208216" width="104.49588339910191" x="0" y="0" /><path d="M25,25 m0.0,0.0 m34.103809145601424,20.60429862952424 l0.35525277002308525,0.13722148126037967 2.115193822300568,0.0445680855454999 l9.727002969884428,-1.9036966483123987 2.219251384150414,0.06303579524565599 m-7.53900983462142,-6.734794625522656 l0.5929438675687585,1.3727953265731367 0.1320542931794824,0.9316033003574321 l0.01531578312074157,12.243657136068752 m-12.000160088495734,2.14755209490349 l2.5955049964293435,0.1950436717029725 18.290893691760328,-2.763050930564153 l1.8295311912352998,-0.18125580289259294 2.0582994069651983,0.2480866053521968 m-18.73720533251526,4.160879375342567 l1.319078548024763,2.9454554399218003 0.8191974939268931,3.0352072185614944 m9.142213059118657,-7.813331711561014 l-0.030816905787887965,1.3575978895389946 -0.42536374955461287,1.643909093006778 l-1.824341998251271,4.601911621496176 m-12.493108369126926,3.118651576899071 l1.331758631715867,0.12731934573158069 15.054983803672114,-2.3457568353580016 l1.4394916706909915,-0.017620099724423605 m-22.08965080964047,10.286003446306374 l1.2762588705807456,0.3061246964510161 1.640246376671496,-0.032188070489938186 l10.448375238189078,-2.4818015273501635 7.079973013255847,-1.1026922746119479 l3.6454090209875636,-0.27712996368622694 1.990941607818391,0.22578942633466292 m-14.388445884440666,-11.730522590032129 l0.5332721571982396,0.9937640433378954 0.1684330175239919,1.0814225057306377 l-0.0035807291747869414,21.64028028192101 m-24.39725376570909,-40.147026870907474 l1.66290569830068,1.1873743197037647 1.7498406785358334,1.6946727136171627 l1.3892273215080053,1.7408476176946346 0.5697764461188576,1.0993722371052366 m-7.900709948255488,16.682943329419782 l1.1886618156003312,0.3285305142856639 0.8428091039818343,-0.18937716407747623 l5.019373101669083,-2.912296658918169 0.47761303501005337,0.27974791408728256 l0.21193258215701619,0.5785669883447012 -0.14555485856851405,0.7242703882145954 l-2.131821263858949,5.708102659852095 -0.24482090444077365,1.1305526285830783 l0.39350528118106554,0.8477119765934823 2.4235746990580327,3.4530788994170556 l0.22060042077766398,1.111788832178706 -0.6337414732715781,1.1018919671938867 l-5.170852569485758,5.1098253537693825 m-1.9231230094571379,0.8636673993353725 l4.52074389247112,-0.25238428218144665 4.297178438000598,0.3736903540945877 l7.378559431286745,1.666325619959729 14.441873710023291,3.709852746186696 l4.143128316263205,0.7711309315216814 " fill="none" stroke="black" stroke-width="1" /></svg>