<?xml version="1.0" encoding="utf-8" ?>
<svg baseProfile="full" height="104.34822777739448" version="1.1" width="102.58926339686928" xmlns="http://www.w3.org/2000/svg" xmlns:ev="http://www.w3.org/2001/xml-events" xmlns:xlink="http://www.w3.org/1999/xlink"><defs /><rect fill="white" height="104.34822777739448" width="102.58926339686928" x="0" y="0" /><path d="M29.663495231584506,25 m0.0,0.0 m8.43457230162672,12.456306953018412 l0.4764487409672796,0.130447196585961 1.8808375801768342,0.13261046527454104 l29.92426853586876,-2.27589315950074 4.847048138883768,-0.1732618045974444 l2.301797991485491,0.2614425509903535 m-30.36758297570451,-3.5148664199053523 l1.0987813263765174,1.187002980205254 1.5417415418987368,8.147873894157227 m15.471446065093508,-10.749661997901205 l0.3283276464460369,1.1481387067883053 -0.035728256492631956,0.9532448469971975 l-2.3960375096424835,7.517843441482649 m-3.523850487134388,-0.22909346985692236 l-0.3401343842609409,0.6737422898670522 -0.7150929956331115,0.4989129274271751 l-3.593995519461403,1.4702430346625983 -5.25469544396561,1.40322987161766 l-5.875571877199686,1.2781644833335943 m-8.109637559696523,3.1291898032799703 l3.539573662647697,0.16197284671656298 15.401192707270711,-1.4658292200398129 l18.667947545214922,-1.103951169148209 4.224111390519091,0.25260015781419454 m-22.693435299051508,5.362523994282441 l5.4742706827050185,0.8802146162643759 4.606421223963369,0.5188659137062082 l0.9781836811567063,0.8333225188325036 0.21718459454587116,2.0628992651423625 l-1.3040712144051896,3.925281405914223 -1.8004262342974837,5.3841494072719405 l-2.2676060866488754,3.13339067943772 -1.321409743380988,0.4627761055106275 l-1.180281955996994,-0.30577035953004184 -1.5914173173733426,-1.4710583593952777 m-1.4674037463337497,-18.306717095288143 l0.039131420426057835,1.2975480028156883 -1.1231084622473027,1.998402398929047 l-1.9777407102718583,2.883204768542709 -2.3915868242112976,2.8131128137713666 l-5.045968037679663,4.474584634152336 -3.149334897550157,2.056930340537647 l-2.525906726968116,1.3006701994710603 m-6.6665878017154405,4.597811629452054 l-0.10075667884894231,0.207720767470913 0.795858935416312,1.7990206209182351 l1.351692705693969,7.148934299915483 m-1.3476406430020273,-9.079630679735917 l10.971581878621212,-1.3652987881640637 15.925207397322273,0.0449140074621358 l0.8657315379467281,0.586078167936431 0.2530496001158651,0.7871846731905058 l-2.032392538220839,8.86896662418357 m-24.010140579882492,-7.9592111899973 l0.6290198299829941,0.7423658395279681 0.9088694410899819,0.7129039311983612 l1.088531948589031,-2.200520882390534 m12.431481601010935,-3.8023411394710163 l0.13955563851560276,0.6305653445707524 -0.16696110771404316,0.7873000754845612 l-2.049199556364704,5.0390248029365985 m-23.051659351806187,1.2039040305899764 l3.161846593879527,0.2503993388932924 16.477930609136607,-0.8746895523407588 l18.56896205417824,-0.40171608927770863 2.8035207715948345,0.29616722354604424 " fill="none" stroke="black" stroke-width="1" /></svg>