<?xml version="1.0" encoding="utf-8" ?>
<svg baseProfile="full" height="116.04019310374323" version="1.1" width="124.05781872357326" xmlns="http://www.w3.org/2000/svg" xmlns:ev="http://www.w3.org/2001/xml-events" xmlns:xlink="http://www.w3.org/1999/xlink"><defs /><rect fill="white" height="116.04019310374323" width="124.05781872357326" x="0" y="0" /><path d="M25,25 m0.0,0.0 m14.418709095657066,4.720810835322295 l0.46211808006808475,0.42357214630497586 3.262169004336755,1.7059511891853678 l3.125359551010854,2.191560005651679 2.187602148378884,2.07908844887762 l1.2921711060473389,1.8337473116768017 m-12.392420780370896,6.426511842562857 l2.275284862008143,1.6024374633787632 2.130417321264234,2.037738324361637 l1.7153516269572677,2.148803157731576 0.7007029674396071,1.332327200384316 m-7.477593362745428,10.769800000574499 l1.694954935336708,0.3811629536510397 1.6522666337397378,-0.384553488104399 l18.113685884492433,-4.5956965464412125 3.4686964454416067,-0.7049050790966621 m-9.811549514880538,-23.302063752774135 l0.8575458684111359,1.0495721432737004 0.5599281351057249,1.9103490808938528 l-0.014127596036615413,40.873518117122536 m-10.379526228227553,1.1416456703516134 l1.9650919331001773,1.1764598044731716 1.554200525200777,-0.057338659841463704 l14.366453766448647,-8.195612221001323 m16.756463801348385,-27.44383699011978 l0.000170187065262682,1.7236577854623458 -0.5134899339947974,2.376673585664286 l-2.779607881456758,7.2076126548113955 -3.3341615440507324,5.800435127254589 l-4.075366982043972,4.770995726858165 m9.367602304061911,-9.19945609128072 l1.5212906719124504,0.3146665101813914 2.579408935158674,-0.2278116661142019 l14.930023287205085,-2.396780662788119 2.0596729979594124,0.36775292115117075 l0.46580604412676074,1.0119523395742613 -0.6231926301035725,1.5339262601141501 l-2.36084781518618,3.3894995431464183 m-13.417049321853105,1.2911151388328834 l-0.13859157227483163,2.8289274139356544 -1.0731350250850054,4.170098528620057 l-1.6889918835736697,4.756446475394798 -2.37122737220153,4.897224718960798 l-2.407325607983468,3.7462447842498947 -2.9883109318790395,3.5325041194176636 l-3.66197014096492,3.1532275246560624 -3.1350970387104087,1.8702314072409467 m16.435999872506528,-20.251147767691002 l5.084060175709345,6.41979075731845 6.547944396494412,7.418052221860261 l4.632761068759734,4.6864049582473255 2.51748825444314,1.525307913680668 " fill="none" stroke="black" stroke-width="1" /></svg>