<?xml version="1.0" encoding="utf-8" ?>
<svg baseProfile="full" height="109.95063400843154" version="1.1" width="108.71929318125137" xmlns="http://www.w3.org/2000/svg" xmlns:ev="http://www.w3.org/2001/xml-events" xmlns:xlink="http://www.w3.org/1999/xlink"><defs /><rect fill="white" height="109.95063400843154" width="108.71929318125137" x="0" y="0" /><path d="M25,25 m0.0,0.0 m9.495555449929872,13.753415698775902 l0.5057263133268542,0.13621107329809692 3.307099725913321,0.14900599041219284 l14.395873600116017,-1.4540999245969402 13.219340061512632,-1.050842424991264 l4.132676946465506,-0.11034792267097634 2.9632355099763554,0.3286971367363707 m-29.26493531911064,-4.422665718925583 l0.6736951155239005,1.4396650447902783 1.4489362286333691,9.238876839246132 m15.417782843872537,-12.15407723861545 l0.1553687634320514,1.57008640834065 -1.8721589311751656,9.20356947781917 m-7.418194863033089,6.273464843592103 l-0.11483480605892961,1.3899000098380347 -0.9521418419798041,1.3191003076074308 l-2.306462937889151,2.336805679333329 -2.843081535559518,2.195298026089435 l-5.688333137837487,3.4997111744594034 -6.988272849517878,3.4289030003442313 m23.88524033001333,-13.528566495049544 l18.325034877650715,9.510537984733812 4.569600837439742,1.5413619744010165 l3.6725427996068265,0.8157694095905349 m-29.059024425604267,0.3775003210121808 l0.2597528387600318,0.9618796319984947 -0.3884983889311612,0.9218700285814061 l-3.258491167543738,3.6630017483112325 -4.320138919922745,3.6858729917676434 l-5.682193650657337,3.896276078112735 m12.530330135802886,-8.158441588126525 l2.499995080072656,0.19980600238296434 8.392781234861879,-1.743008140729166 l1.0604559788790495,0.2987239428607623 0.32912495253633695,0.5370026636432732 l-0.04988972161205541,0.7042296509674998 -0.7559779779473078,1.754454400990818 l-1.782790931613152,2.3752263307472608 -2.5703475826052435,2.5668189723745765 l-3.3595490771945684,2.8061433492937953 -3.950899385297864,2.7395096710764757 l-7.117838633963236,3.8836493553543407 -7.685981999855091,3.0703382432534103 m11.614975802844702,-14.992393541561395 l2.3202512894282377,0.5915611923675695 3.4977779974861045,1.745179278851057 l17.995672054215028,10.067348064677219 2.8843096820722285,1.2233946435779026 " fill="none" stroke="black" stroke-width="1" /></svg>