<?xml version="1.0" encoding="utf-8" ?>
<svg baseProfile="full" height="107.65429309825242" version="1.1" width="105.28146505268663" xmlns="http://www.w3.org/2000/svg" xmlns:ev="http://www.w3.org/2001/xml-events" xmlns:xlink="http://www.w3.org/1999/xlink"><defs /><rect fill="white" height="107.65429309825242" width="105.28146505268663" x="0" y="0" /><path d="M25,25 m0.0,0.0 m32.75449501933661,3.5772984493370865 l0.35787795510508025,0.3956393509915319 0.5731469586651949,1.270923723894607 l0.024419500409957804,4.759099924334554 m-19.483396337403057,1.5324787257065335 l4.658335170666258,0.15873242117497985 17.61516792805261,-1.5065761935244641 l11.420826420909686,-0.8317099764387231 4.011091761991992,-0.1298754451447318 l3.3495006749523046,0.4015000053251767 m-25.810797235831473,2.6620580800719584 l0.16371235735041476,1.3657200997888364 -0.5989492767128451,1.191697813636031 l-2.157285481268364,3.8956274455359594 -3.7993887300536353,4.108584754008201 l-0.39036302976644605,0.6509427638336349 0.13250152428366185,0.5804086403394668 l0.3900612742245145,0.2957089638875865 0.8019512615481578,0.08212561425789047 l3.9460184368930427,2.1987081765101846 m8.974204802685247,-8.862160897330375 l0.013063113429838154,0.8056386752214543 -0.3462963539962137,1.1766780567069557 l-13.562709724630988,14.373811926763187 -0.3661761641690481,0.9340288194317404 l0.42835526069092966,0.27946279332893403 15.718853270174492,-0.11467579976959416 l6.580254800029907,-0.6357989437106204 m-4.487143478148703,-5.051045348567496 l1.6123653651139598,1.6415037031795092 1.8314419961753625,2.508155222990035 l1.492924871780469,2.630660058917824 0.6634538329429346,1.9220494484069297 m-23.59989861147452,5.094407795748964 l0.4938537163787604,0.7245321088179433 0.21259636759623626,0.9498953997078389 l1.4791382959361445,12.618056740882876 m-1.09889636896548,-13.606045628707998 l16.72531553478441,-1.4159705663340079 4.711424228418857,-0.29007109490230565 l1.227195202533024,0.18179202696986405 0.8423464651579606,0.6496665023719101 l0.2351824456579216,1.2051678041857754 -2.658543755259007,10.813591555387827 m-11.892447744086212,1.7670373525952991 l14.353030856920991,-1.0576218039621699 " fill="none" stroke="black" stroke-width="1" /></svg>