<?xml version="1.0" encoding="utf-8" ?>
<svg baseProfile="full" height="95.62206891622108" version="1.1" width="103.33466855145433" xmlns="http://www.w3.org/2000/svg" xmlns:ev="http://www.w3.org/2001/xml-events" xmlns:xlink="http://www.w3.org/1999/xlink"><defs /><rect fill="white" height="95.62206891622108" width="103.33466855145433" x="0" y="0" /><path d="M25,25 m0.0,0.0 m29.701417816551523,4.1771344348110295 l0.3392278585177225,0.25787660447961397 2.5479529280528554,1.4281711013211413 l2.2449583929502834,1.8533587851988087 1.5111162293650362,1.7310039734186513 l0.8912221255078526,1.6854117794254482 m-20.146333215073742,4.38089051827671 l3.961587458673415,0.1845776492666188 24.688307682891363,-2.344039058238397 l4.448965442231175,-0.17367168910150035 3.146245831786849,0.12671793679149443 m-31.01751143207212,8.328146762192373 l2.9639515063197943,0.04686258422927655 14.048644540285204,-1.4713308100843006 l2.875079912971866,0.06485352272904178 m-20.34439796860947,7.909349371807357 l2.8998905457348116,0.05647640246703537 15.321901323072586,-1.5605655734015613 l2.5362844138629304,0.14186133581840019 m-21.406595147415793,7.591510046404678 l0.6491623332648636,0.5398956644567808 0.35184592420202054,0.6749214954047653 l2.021798954540613,9.992656078547625 m-1.7818248304909763,-10.515708267134931 l18.295363387107646,-1.959219745293887 2.522853780600176,-0.0485150845944658 l0.8749741979193637,0.6108144982020646 0.03697309994053937,0.4118598594852038 l-2.9589660739849,7.80709964673287 m-16.82155820594,1.7237262482776932 l18.41410818964703,-1.182887199653781 " fill="none" stroke="black" stroke-width="1" /></svg>