<?xml version="1.0" encoding="utf-8" ?>
<svg baseProfile="full" height="108.03279197510045" version="1.1" width="110.18048712322562" xmlns="http://www.w3.org/2000/svg" xmlns:ev="http://www.w3.org/2001/xml-events" xmlns:xlink="http://www.w3.org/1999/xlink"><defs /><rect fill="white" height="108.03279197510045" width="110.18048712322562" x="0" y="0" /><path d="M25,32.10341742345568 m0.0,0.0 m12.93572642023574,4.321789786327169 l0.43001192159604523,0.1717680789833468 3.4105015279288597,0.10554484573587036 l26.036449475383378,-2.9755494328191157 4.4431379544086935,-0.20412042829200908 l2.7121218458440577,0.3072762386368803 m-27.829784552270475,-6.815370953253456 l0.8489615466075956,1.0310624171909677 0.3484693653155777,1.4684109289561116 l1.0909484395054452,14.41766017911511 m13.515655178798518,-18.931889084036555 l0.33068706622882654,1.2762783064430132 -0.00783108336980749,2.2767285781121567 l-1.0057973271203335,13.70991521805117 m-24.27619575341651,-0.3652911610418963 l2.1579464812621016,2.071936864390661 1.9367440993185694,2.4435160643454314 l1.509391925766989,2.487255022439648 0.6313390502122993,1.4653941453704933 m-9.67246773749032,5.094291209510615 l3.965275923423784,2.960446606701646 1.6924889004632433,2.1963335238600337 l0.732114874693321,1.3297364666916427 m-6.1839621709243175,20.84547542161522 l1.221952505058229,0.2407757086106186 1.5139430206261546,-0.8183075093741035 l5.82880590462163,-9.154712971399404 m27.67229080446218,-33.55346975312131 l-0.1093662067854396,0.5062214347959871 -0.9171989657924429,0.9099325808748899 l-3.874769606117263,2.137396612167752 -5.548270405439193,2.0731337948455866 l-6.593703879089557,1.782424670607951 m-0.9020312324932309,4.641456658415484 l2.0521597768639,2.6105275260338217 1.3140732061396092,3.2820578956154516 m8.60298782414962,-8.484750887683647 l1.9803044634928497,2.889301480600113 1.3395568504974358,3.3125461860250573 m12.504971181826058,-8.714589626102322 l-0.3509634213773378,1.4378513206970525 -1.6680507984763309,1.714273244191739 l-2.532948445411537,2.2809106606599796 -3.2319900904653296,2.304380326464786 m-18.674540268312185,6.549263726706355 l2.695527570337922,0.22598896585957165 20.025759583583874,-2.606546359971359 l3.304967670098322,0.28118787042007415 m-28.583618054762407,10.8892767580969 l2.7803973083005444,0.4414571433541542 22.1039163740105,-2.4734273622667056 l5.409640301964394,-0.25994614722037235 3.064750779313358,0.2926525286777351 m-18.016358883004404,-5.743623264769397 l0.549807234044515,1.8724747107311916 0.04691876192671129,10.391185253258108 l-0.3281215808912036,5.914253275922188 -0.27160823546803253,1.0342299592769526 l-0.4824967271584012,0.4317136008311623 -0.6062910525339922,-0.14655489021815377 l-1.8424420599593756,-1.8945811130398837 m-7.3895932875981485,-11.143155425502892 l-0.2070280930203746,2.353151666564193 -0.9809533867569048,2.715699352031625 l-1.6037176285557149,2.8037834545622444 -2.119190660223773,2.7704177668939756 m19.58647132271451,-11.521987151891313 l1.944711096861871,2.0601624968263574 2.4515128949611937,3.21302285217563 l1.9885070766407054,3.188957860941377 0.8972514187653846,2.2639774596670583 " fill="none" stroke="black" stroke-width="1" /></svg>