<?xml version="1.0" encoding="utf-8" ?>
<svg baseProfile="full" height="99.92069279842303" version="1.1" width="97.57104483416273" xmlns="http://www.w3.org/2000/svg" xmlns:ev="http://www.w3.org/2001/xml-events" xmlns:xlink="http://www.w3.org/1999/xlink"><defs /><rect fill="white" height="99.92069279842303" width="97.57104483416273" x="0" y="0" /><path d="M25,25 m0.0,0.0 m27.482064137595383,18.472150570129962 l0.39723853091938466,-0.012919519047536014 6.6838614296338905,-0.05751415451200612 l5.872727637698618,-1.0128808684531143 1.8408280295224793,-0.8324798858703162 m-14.251632644437727,-5.797985921574315 l0.90342039001523,0.8076865212169463 0.3161832824199831,0.7855132840870178 l-0.022444530572266672,12.520097661571619 m-10.582090599341312,-10.877833207915769 l0.6238145381507643,0.6897288983090267 0.33034281041228836,0.9500813876934372 l0.2664707346214429,8.628635909808729 m-6.403993747483249,0.16759101538842863 l1.8502479393657263,0.3087920000077854 2.348939348709765,-0.13313811087595712 l24.47116992131915,-2.2772112066188557 2.83725022033022,-0.06315324903805071 l2.606647405282949,0.25350186722548984 m-16.99254271574765,2.46676642584489 l0.5958598745714833,0.7915856332823323 0.15122560065498192,1.5841367620693099 l-0.23557932419676386,9.530735539281594 -0.23286551568186742,0.6957419716408628 l-0.379434305498956,0.2690642852595028 -0.5290321179396925,-0.033257326311470686 l-1.264493902545618,-0.7237744616164099 -1.1967272578708232,-1.0651782490778923 m-4.8206553320239385,-6.677824442638603 l-0.0585915267804407,0.8153032931023253 -0.3240311159994451,0.5235946080087561 l-1.9066196042090702,2.2854479268952494 -2.747944492532113,2.5751005618366634 l-2.873122838976582,2.0762824435837812 m23.698528749689807,-9.372561135070985 l2.1841238103600067,1.2191038854583072 2.2881377161065957,1.7419612988154414 l1.7402870633622194,1.814295660169946 0.8193477889265264,1.3399308255361557 m-6.737075341133861,-2.078986998188107 l0.09597576031942968,0.7981176815801694 -0.24122288310828913,0.9156653861212971 l-1.5549447860198125,1.9743522176781694 -3.0682283777386097,2.937563701845581 l-3.9221733336439972,3.0024078163865235 -3.6864999386676804,2.383865156114095 l-4.060023332487541,2.2005933140270053 -4.337477242229897,1.9052970346169147 l-4.30775169436258,1.5066989906391104 " fill="none" stroke="black" stroke-width="1" /></svg>