<?xml version="1.0" encoding="utf-8" ?>
<svg baseProfile="full" height="94.84181207268237" version="1.1" width="102.86487585208812" xmlns="http://www.w3.org/2000/svg" xmlns:ev="http://www.w3.org/2001/xml-events" xmlns:xlink="http://www.w3.org/1999/xlink"><defs /><rect fill="white" height="94.84181207268237" width="102.86487585208812" x="0" y="0" /><path d="M25,25 m0.0,0.0 m28.498654001677107,21.664394291534762 l0.5599832219598098,0.18193794396112797 1.734148790262204,0.08583998660830529 l3.0678474844160446,-2.3955070842092456 3.098527681855987,-2.595358038850315 l4.380973682191862,-1.5945430679593924 2.4764394609862608,-0.33813665255555414 l2.1028415605612527,0.08031542651848991 1.939159401802157,0.4755726240606137 l2.26750117484512,1.0314952677948848 1.3712513551390348,1.5215488281208074 l0.7850610813268294,1.9130333416589655 0.30983872813034935,1.8286464997895473 l0.16417006436526319,1.9462545723167781 0.09927827858094604,2.3364149576337416 l0.009199883987873202,2.803635429442264 -0.0676572966759434,3.0417423763648848 l-0.20318111660368218,3.2194173855759503 -0.4884685591102302,2.648614615527432 l-0.8268154814063605,2.2988449980438306 -1.1746993353897761,2.0604483543852052 l-1.2693541019691037,1.528920927270504 -4.374525152705722,1.0982790896487797 l-13.789218888808652,-0.6077994691739877 -3.0158896001974593,-0.6021741160042312 l-2.245267827577372,-0.977734939155704 -1.8710238110721549,-1.3509732805410612 l-1.4330050684805276,-1.5138708345991532 -1.1323037417375408,-2.0350359355093217 m3.8682640884908026,-37.33422732649282 l1.289614706991025,1.332706540859874 1.740459944231026,1.2830655327523026 l1.6357863333515394,21.901371677051486 0.4176450750407514,2.3802947994332504 l2.0756317718100217,3.0319169701208253 2.326953555402834,1.8037436842368217 l3.0380604481683138,1.6025576622859563 11.013205684116986,0.9797788236569815 l3.854219063760518,-0.5764295910429336 " fill="none" stroke="black" stroke-width="1" /></svg>