<?xml version="1.0" encoding="utf-8" ?>
<svg baseProfile="full" height="99.11796583500139" version="1.1" width="98.93839526534079" xmlns="http://www.w3.org/2000/svg" xmlns:ev="http://www.w3.org/2001/xml-events" xmlns:xlink="http://www.w3.org/1999/xlink"><defs /><rect fill="white" height="99.11796583500139" width="98.93839526534079" x="0" y="0" /><path d="M27.354607047772213,25 m0.0,0.0 m7.0642224819267305,11.306862531482018 l0.4529047863108599,0.09771867849094765 3.1767585165000516,0.09814019375656577 l24.79299768701843,-2.3164091479507563 3.542543434178257,-0.11431300619678247 l2.6213718215856563,0.2434598280986859 m-31.40915789051917,-4.891131725807143 l0.8930252976816573,1.6221028913443394 1.6845022509657732,9.414756842522255 m16.485095132827485,-12.801736942468082 l0.2717453464717404,1.5725365041537067 -2.5146943299550255,10.263325454161807 m-18.694542520666445,5.309484326154049 l3.3678260634300425,0.5819029883236014 19.467302074295386,-1.4638552225259394 l3.456550280426548,0.177919599970532 m-32.38978610606585,8.381304717895073 l2.007143497871801,0.30461043101588914 2.659293258411574,-0.03424484855801603 l26.552292129643956,-2.5786772327914265 7.339452962356712,-0.3115003679140283 l3.064323906430935,0.2775094435779854 m-21.90271539150654,-15.08682743715858 l0.5783963221389232,0.7946988110517137 0.2558265093513476,1.400473822715778 l0.09328204188978752,36.8698547016572 m-1.9504057810237885,-21.763331693925284 l-0.6270241363347269,1.529937851084262 -1.9104621678833973,2.6137318539691115 l-5.370310182631028,5.605245487946476 -5.894026189221988,4.420550524059479 l-6.047238729551406,3.0192114066693714 -3.4710994241264936,1.1636628743591673 m25.665034914925553,-16.969103151728635 l16.228530085870137,11.63951474115579 3.826274056094847,1.9006002463326657 l3.2185562084502415,1.093377449556304 " fill="none" stroke="black" stroke-width="1" /></svg>