<?xml version="1.0" encoding="utf-8" ?>
<svg baseProfile="full" height="105.86791208923965" version="1.1" width="98.46991550997633" xmlns="http://www.w3.org/2000/svg" xmlns:ev="http://www.w3.org/2001/xml-events" xmlns:xlink="http://www.w3.org/1999/xlink"><defs /><rect fill="white" height="105.86791208923965" width="98.46991550997633" x="0" y="0" /><path d="M25.13695967051645,25 m0.0,0.0 m25.82881865413034,11.918128039203598 l-0.08157882521385597,0.29364788390946794 -0.6043692553034489,0.6794318690574624 l-1.8567762277974924,0.8838077404288454 -6.357387062122497,2.035091245796662 l-6.857308013841707,1.6420594259099748 -7.53644845465175,1.173049300758225 m-2.6719104857160363,3.6200268419679564 l1.6682876670352522,1.0326586084788845 1.8931139079941994,1.7848543977859634 l1.4918453896004018,1.9050113374569577 0.5942695544840839,1.314904322938907 m9.194578498518625,-8.11567359763617 l1.9736722195033714,1.2621867346399622 2.022831902983574,1.9792520092987724 l1.437831183165245,1.809967100632334 0.7650582092342554,1.5163354480487463 m15.659272187157415,-8.814535897456492 l0.11162853801001865,0.7682318966954721 -0.42717755416757497,0.9302272607128179 l-2.2936300527192888,2.6202720962773163 -3.3557286282578445,2.6135247766646343 l-4.00302325073664,2.4100051077489972 m-11.014062790234185,5.1798591312953945 l0.9441288639773804,0.5978803852683501 0.3559138637691488,0.9114926719584662 l-0.05345093668360911,10.717763077442273 -0.5071203680865142,2.9867703988241505 l-1.0889910792155353,2.351239418019341 -1.7938419890111894,2.132785320239695 l-2.343921382116938,1.7965252322512972 -3.092708920692145,1.5968395237393243 m19.178320706505374,-25.81473904885824 l0.5768683699149677,0.6042673552936555 0.23991320515378478,1.1100266222015889 l-0.041483989688144575,21.729093288662256 0.6770082146897055,1.355846106880152 l0.8696057560882732,0.6748215084559962 2.024292546297365,0.5088252738891491 l12.483933672114901,0.16615187435751524 1.7635589492892414,-0.3814319430206703 l1.582321597867052,-0.7769947200899302 0.6850288062223772,-0.907640031788984 l0.29177264200993325,-1.6755414363822978 " fill="none" stroke="black" stroke-width="1" /></svg>