<?xml version="1.0" encoding="utf-8" ?>
<svg baseProfile="full" height="102.3055394277475" version="1.1" width="106.73705422230569" xmlns="http://www.w3.org/2000/svg" xmlns:ev="http://www.w3.org/2001/xml-events" xmlns:xlink="http://www.w3.org/1999/xlink"><defs /><rect fill="white" height="102.3055394277475" width="106.73705422230569" x="0" y="0" /><path d="M25,25 m0.0,0.0 m2.2838549160423547,20.64223199198159 l0.6046348970576996,0.09212533130873711 3.3473466076052247,0.009768089221453254 l13.014175894258425,-1.9712768877123625 2.3619648661977224,-0.11355978544444857 m-8.124198410074682,-11.960275776906233 l0.861989735811687,1.2836735933299022 0.21374591313761837,1.7595367297270037 l-0.029279658211313186,42.56331614224186 m-0.5138175839785589,-31.296524832539856 l-0.6312142409501609,2.2087803871067653 -4.241006107332124,7.513526194434634 l-3.504672562969913,4.729361982062786 -4.172459988990174,4.689500129438011 m14.852910307258979,-14.495154874777999 l2.7496985903223967,1.723258082268458 3.222527369913111,2.9454284476712913 m12.540829300729568,-17.274954523114097 l-0.21993967688734475,1.108324279715359 -2.5260377303775883,3.3887077229498566 l-2.464497014338454,3.6126970917210666 -2.561029879480264,3.2030509512225382 m12.099545257985548,-13.760741144948947 l1.5759082092988612,0.4672522883903797 2.096686857835743,1.4437136962408903 l8.560996789837224,7.398574741059605 2.802038479663532,1.8120970406827777 l2.5363530829405723,0.8561525578014206 m-18.03180606379157,4.53837202951888 l0.028688352138329383,1.3856882447476617 -1.5508144672843232,3.152659646715626 l-3.904106179247051,6.389592233196548 -4.974331212986678,6.509440293324668 l-0.37754874874436806,1.1278465410528111 0.21137297570258756,0.5116727575702884 l0.5911623181267338,0.24597682645236568 0.9482983703752806,-0.020206528736880357 l11.133884187280726,-5.121073299677297 m-0.7536776624119762,-4.246388650936572 l1.9860409613849512,1.9043549069504455 1.9636000720373408,2.4893925356985056 l1.6522272641210534,2.8108026328543705 1.082454229154078,2.9010648459998105 " fill="none" stroke="black" stroke-width="1" /></svg>