<?xml version="1.0" encoding="utf-8" ?>
<svg baseProfile="full" height="106.25101815447336" version="1.1" width="108.80798647898322" xmlns="http://www.w3.org/2000/svg" xmlns:ev="http://www.w3.org/2001/xml-events" xmlns:xlink="http://www.w3.org/1999/xlink"><defs /><rect fill="white" height="106.25101815447336" width="108.80798647898322" x="0" y="0" /><path d="M25,25 m0.0,0.0 m8.10550708573909,18.77994968842339 l0.5428322548142062,0.08116401908535677 2.8694531243454566,0.006904864775915251 l11.587316793370388,-2.0684835143675686 2.1192377089803793,-0.050302468700617504 m-7.190115251236435,-12.747702141498486 l0.766314980771983,1.2025873794553754 0.20061172673478697,1.727509941793162 l-0.015979186113627662,45.303896268274414 -0.2784389292362058,1.4330658633339177 l-0.4644991944121835,0.6953441375020509 -0.6075660079349025,0.10909115650273037 l-1.4200122702550768,-0.9327460777659886 -1.7329515291920228,-2.0034476775894654 m-6.659373221446339,-14.122756168468658 l1.5836890885931039,0.22136595422540234 1.144092679714599,-0.5485020657428162 l13.02592113997458,-10.575040774400827 m15.15260875930594,-20.969995116555754 l-0.17077708522998522,1.7931322604013114 -3.365266226133777,6.951300206039373 l-3.1807238994191502,4.988178120274698 -3.561723095100726,4.497421923212299 m7.012550607883661,-6.827540611696204 l3.399190014172535,0.06768126528280374 16.944970247865882,-2.424945097869162 l3.0011161624270652,0.03574206144395003 m-25.21191425993186,14.349037668140252 l1.0710855931846965,0.827462974700895 1.1018311263516216,0.2041198972055329 l19.276772438060473,-2.302678458524306 0.5183743910162106,0.24273608150641496 l0.3226795723153026,0.4081551687092183 0.09688359266625245,0.6223802067376678 l-0.6192862461181813,10.031864139289592 -0.8787545734221366,6.452609249630728 l-1.0431933693767022,4.633869044447835 -1.3005752879838133,2.963084812365467 l-1.196046832089392,0.8746384945775252 -1.2468089855211812,-0.3881111110707282 l-1.8184691577678869,-2.019407428442829 m-3.7671555367466567,-20.274348435481254 l-0.009480295335408844,2.0240638009898495 -0.9469372873271625,2.8469969304947043 l-1.5887220561432784,6.424672884073795 -1.4370594386873277,5.018329088834422 l-1.3626705693851267,3.6928399581785896 -2.96977249375986,3.4591042701954637 l-2.026497972374309,1.5367255225439338 " fill="none" stroke="black" stroke-width="1" /></svg>