<?xml version="1.0" encoding="utf-8" ?>
<svg baseProfile="full" height="109.49251436628401" version="1.1" width="105.63990250229836" xmlns="http://www.w3.org/2000/svg" xmlns:ev="http://www.w3.org/2001/xml-events" xmlns:xlink="http://www.w3.org/1999/xlink"><defs /><rect fill="white" height="109.49251436628401" width="105.63990250229836" x="0" y="0" /><path d="M25,25.000002114102244 m0.0,0.0 m5.118390321731567,8.551555275917053 l0.5607856065034866,0.15145184472203255 2.320275455713272,0.14683793298900127 l36.66160821914673,-2.402704954147339 5.92168390750885,-0.16680393368005753 l3.1856197118759155,0.29151376336812973 m-36.27164125442505,-5.3840720653533936 l1.244387999176979,1.0719149559736252 0.4509623348712921,0.7921841740608215 l0.7777010649442673,4.455828964710236 0.74761763215065,6.899251937866211 m18.474807739257812,-14.406960010528564 l0.6390771269798279,0.9583673626184464 0.13775497674942017,1.1510339379310608 l-2.471809983253479,11.280266046524048 m-10.27025580406189,-0.508480928838253 l2.1438299119472504,1.7576690018177032 1.5380224585533142,2.310013025999069 m-20.94305992126465,4.711394011974335 l1.9756603240966797,0.22411562502384186 3.363058567047119,-0.10412313975393772 l26.619770526885986,-2.0167510211467743 6.4897531270980835,0.12046318501234055 m-31.94955348968506,4.014880955219269 l2.8072383999824524,4.693186283111572 0.8698135614395142,2.4189260601997375 l0.4044095426797867,2.0405445992946625 m19.173967838287354,-10.847593545913696 l0.25080591440200806,1.6677910089492798 -1.7417789995670319,5.350305438041687 l-1.4580757915973663,3.1508606672286987 m-33.49618434906006,3.5937950015068054 l4.101613759994507,0.26435796171426773 25.337975025177002,-2.289571315050125 l12.006241083145142,-0.8237987011671066 7.2597575187683105,-0.292724147439003 l3.659672439098358,0.2735857479274273 m-43.263254165649414,10.217288732528687 l0.9222838282585144,0.8203227818012238 0.738389790058136,2.268301695585251 l2.115773856639862,13.088088035583496 m-2.461630403995514,-15.063748359680176 l29.17177677154541,-2.8221353888511658 2.518569529056549,0.12384084984660149 l0.5710479244589806,0.9159939736127853 -0.23955045267939568,1.7167852818965912 l-3.377127945423126,11.436518430709839 m-26.017274856567383,2.0537863671779633 l27.606940269470215,-1.6746187210083008 " fill="none" stroke="black" stroke-width="1" /></svg>