<?xml version="1.0" encoding="utf-8" ?>
<svg baseProfile="full" height="89.73597144496492" version="1.1" width="95.06143869101817" xmlns="http://www.w3.org/2000/svg" xmlns:ev="http://www.w3.org/2001/xml-events" xmlns:xlink="http://www.w3.org/1999/xlink"><defs /><rect fill="white" height="89.73597144496492" width="95.06143869101817" x="0" y="0" /><path d="M25,25 m0.0,0.0 m15.349171145851152,3.1401598931190615 l-0.0067561788591763774,0.368301460171154 -0.5155670019090844,1.8267211781432668 l-1.8680986115754745,6.2661453242331655 -0.6506248347226385,2.922611328887942 m2.0999912056689314,-6.670226196460752 l1.3547981833855796,-2.044027206619455 4.256801120992534,-2.151648173688465 l0.7775246191491978,0.01691115105020514 0.27971909428763403,0.3615459033831141 l0.11562918184403204,0.5919756463760679 -0.20500696226436735,0.7926348103305666 l-2.888254621609428,3.53247288448881 -3.6211690564373344,3.6613139543417472 l-4.105745674401111,3.4180504728970718 -3.752353837849167,2.152584689886704 m4.953574304108648,-10.97403887734804 l1.6068879265917237,1.5417646794330175 1.0126300110343611,1.5600634467357677 m6.865364438184056,-7.649123861611797 l10.367836299085804,0.09934308705929935 4.589999372229001,0.08956155414126549 l1.6347377580218947,0.17777349165133657 1.6751235876494264,0.4595680468259185 m-15.907225395072377,4.577697757583358 l0.43962611504831334,1.0003334931734966 0.7337814377321357,3.904330487438833 m-0.48551877581085895,-4.897005727715386 l11.69567500517178,-1.2481839693824546 1.1017334183257843,0.0808623564136178 l0.26035360196167995,0.6031264122878367 -1.1327410220602379,3.6321495528141354 m-10.306632558201276,1.1977950138992024 l10.903702156140392,-1.0121208973966878 m-15.605568582701412,3.8920700327848157 l0.47064110655173663,2.0731489070315603 -0.09069561572181782,13.870560949564851 m0.3236876643382808,-15.098862065889254 l12.92119579098618,-1.196913900721077 0.9714508787185678,0.04708470874547351 l0.7103464405625949,0.3117698566481337 0.2779999203932224,0.6817096459581921 l0.028726271275079738,13.524892510112542 m-15.214092282870078,-8.9757515040262 l9.820336337786303,-0.7456185658007985 m-9.782965466153218,5.022837310882606 l9.441103348964361,-0.6944229513392447 m-9.446724600965709,5.193192324447924 l14.646472966386922,-0.9059495589877576 m-11.824494406774496,2.4240741664177543 l0.1314068268464266,0.886699486543401 -0.6121478111656684,1.0675424434050798 l-2.744555975314812,2.7449011656037627 -3.246183126596015,2.341422461857237 l-3.9560063012564397,1.9421608551829954 m16.217591587119358,-10.181651096349174 l0.34666241757768235,1.0684678589273344 0.05260171735073472,5.259918798481792 l0.29692558781055434,0.8788819424008091 0.7856364467316169,0.7364685024481732 l1.4455794732288414,0.4638269871204588 2.3185022484171087,0.21327380412921107 l3.9839350918649696,0.02478550324477027 2.7010153260937977,-0.21171691616864308 l1.339187106927363,-0.28021000966311227 1.0119770403708073,-0.48984047837955763 l0.5377678033148859,-0.6819393808372796 0.1751580092289165,-1.2059783974293008 " fill="none" stroke="black" stroke-width="1" /></svg>