<?xml version="1.0" encoding="utf-8" ?>
<svg baseProfile="full" height="106.85180668413659" version="1.1" width="103.14666997480595" xmlns="http://www.w3.org/2000/svg" xmlns:ev="http://www.w3.org/2001/xml-events" xmlns:xlink="http://www.w3.org/1999/xlink"><defs /><rect fill="white" height="106.85180668413659" width="103.14666997480595" x="0" y="0" /><path d="M25,25 m0.0,0.0 m29.37579988313787,13.463982328968935 l0.3782732832317867,0.3522295311106651 0.5247703472831791,1.3733994164222336 l-0.018087218628145454,4.038109504814068 m-17.882008437076856,1.4661002722778937 l4.130255900045248,0.11334544907870424 15.30269627181303,-1.3365135575299818 l12.41778122887337,-0.8172346884933603 3.367347662598011,-0.06009292340633768 l2.5687326494698834,0.405613278463545 m-29.52438121543832,6.236859119176881 l0.67367406729403,0.9219668670673714 1.9273039631975586,7.184774872545018 m-1.7252773143705304,-7.613100947121467 l16.15947431450585,-1.6615460050202302 2.2134958492132255,-0.1318552547158515 l1.1213591755913694,0.15284563464035797 0.7872081038073943,0.6793385302895394 l0.030578822995962887,0.52352407230172 -1.9715472329615495,5.1493175035607495 m-16.370806122621353,1.7312398728078893 l17.369084112239776,-1.4937527861968087 m-29.130841385124384,6.377138110918643 l-0.7705608272824669,3.509308509901569 -1.6940501302693762,4.546226615221555 m3.1770865996042907,-6.8717875700011515 l26.06956338749557,-2.3423576274995574 8.386662815613807,-0.5107436903760444 l3.5064362133773295,0.020645661655848718 1.63382087475419,0.23087909232063103 l0.7650244311137914,0.3236463173024089 0.3477999013223729,0.4337129888219815 l-0.014406162868334125,0.5380253144238716 -0.922369892832261,1.2790679721335296 l-2.696958071449325,2.095848202892645 m-30.69876782384533,3.4415289036687513 l1.6880758040213817,0.25638077419986555 2.2520142877292155,-0.04500738053718713 l17.910256894196625,-1.8955925186116511 3.658385115171406,0.07770002905141331 m-12.469721688899375,1.965945256086018 l0.575024566121781,0.8554426082640935 0.13080913848690826,0.8956649545657713 l-0.2209050631414853,10.327476800276655 -0.4332820968223833,0.6326609594847932 l-0.6248960565339887,0.0314463089306017 -2.7979557867154017,-2.6615141460493916 " fill="none" stroke="black" stroke-width="1" /></svg>