<?xml version="1.0" encoding="utf-8" ?>
<svg baseProfile="full" height="112.74336369602683" version="1.1" width="100.82938367156834" xmlns="http://www.w3.org/2000/svg" xmlns:ev="http://www.w3.org/2001/xml-events" xmlns:xlink="http://www.w3.org/1999/xlink"><defs /><rect fill="white" height="112.74336369602683" width="100.82938367156834" x="0" y="0" /><path d="M25,25 m0.0,0.0 m29.28970740027052,18.707110105472662 l0.45366982106405235,0.07470953324324525 2.221439304350876,0.043808829069402755 l10.829875113818103,-1.8031093432175862 2.6280612718112972,0.012982681983158238 m-8.135843396596828,-7.262073807104745 l0.4755156216922374,1.2122558615699686 0.1313412633258533,0.940430235220911 l0.006794098922399323,13.885648172724814 m-12.958574671332661,2.170415125527164 l2.642781640511147,0.21773254910338397 19.04456429966805,-2.8650536818159456 l2.0829986756265377,-0.19649055852378347 2.1170532284367467,0.25304298115784485 m-5.511903393720128,-12.950605447552475 l0.14252670065111753,2.0938642095871707 -0.7623159241780906,3.958608468316797 l-1.7314045120014527,6.46749367463213 -2.252185188094935,6.402623009043755 l-2.104576606331813,4.757648094363618 -2.5316120514206197,4.481906203517878 l-3.0256897742678612,4.189176999002891 -3.622558337952042,3.828959511811208 l-3.056829187714119,2.633458825089504 m8.692265982047642,-10.884333173084654 l0.41006869525434814,0.8362478270960724 0.14956812025904018,1.114810253291953 l0.032301821481312845,20.422096556500495 m0.46523298786248907,-21.003430348453886 l9.902067549280826,-1.8609514748455194 1.2244069949883014,0.015140410722201876 l0.6318167617418359,0.6247543283635338 0.20901617213281504,1.6084183411335233 l-0.0073622137421800165,19.198739472210377 m-11.846823299326909,-10.62430699871173 l11.458268073982381,-1.241446568071239 m-11.393896547878638,11.199152775045171 l11.237172445277771,-1.0797711601282098 " fill="none" stroke="black" stroke-width="1" /></svg>