<?xml version="1.0" encoding="utf-8" ?>
<svg baseProfile="full" height="109.49251592159271" version="1.1" width="106.89894367009401" xmlns="http://www.w3.org/2000/svg" xmlns:ev="http://www.w3.org/2001/xml-events" xmlns:xlink="http://www.w3.org/1999/xlink"><defs /><rect fill="white" height="109.49251592159271" width="106.89894367009401" x="0" y="0" /><path d="M25,25.000001974403858 m0.0,0.0 m10.164166688919067,9.604218602180481 l0.6428871303796768,0.1409589685499668 4.222419559955597,0.17771415412425995 l16.663951873779297,-1.877548098564148 13.436182737350464,-1.1429104208946228 l5.399934649467468,-0.2331061102449894 3.1912600994110107,0.34052181988954544 m-32.50945568084717,-4.571641683578491 l1.300378143787384,1.950567215681076 1.7879803478717804,9.590288996696472 m17.55510449409485,-13.979065418243408 l0.3735888749361038,1.487688571214676 -0.04847448319196701,1.113067865371704 l-2.763303518295288,9.427741765975952 m-4.147495329380035,0.650189071893692 l-0.24370186030864716,0.8892478048801422 -0.6184415519237518,0.6750314682722092 l-3.8544654846191406,2.0205704867839813 -6.231402158737183,2.1085111796855927 l-6.5291935205459595,1.5175311267375946 m-0.6308230757713318,4.056062400341034 l2.516307830810547,2.7404454350471497 1.736033409833908,3.15030574798584 m7.411139607429504,-8.523572087287903 l2.1807366609573364,2.4448761343955994 1.4538773894309998,2.8347355127334595 m13.684448003768921,-9.199159145355225 l-0.4162892699241638,1.495625376701355 -2.0702552795410156,2.925533354282379 l-2.2975675761699677,2.3585227131843567 -2.9982352256774902,2.4394790828227997 m-26.413931846618652,10.077930688858032 l4.578943848609924,0.2530227228999138 27.860982418060303,-2.7855664491653442 l4.699901640415192,-0.23228265345096588 3.255707621574402,0.2484937384724617 m-20.887322425842285,-5.077062249183655 l0.9132172167301178,1.4397497475147247 0.22441523149609566,1.1606891453266144 l0.0,27.79510736465454 m-2.113114595413208,-23.569355010986328 l-0.2454082854092121,1.1727531999349594 -1.1995797604322433,1.6972221434116364 l-2.832513153553009,3.0010923743247986 -4.026537239551544,3.5985806584358215 l-6.807301640510559,4.917372167110443 -3.9151030778884888,2.236294746398926 l-3.0788740515708923,1.4195901155471802 m24.869730472564697,-17.55510449409485 l18.763415813446045,14.239871501922607 2.52710223197937,1.5132452547550201 l2.3639197647571564,0.9041692316532135 " fill="none" stroke="black" stroke-width="1" /></svg>