<?xml version="1.0" encoding="utf-8" ?>
<svg baseProfile="full" height="98.89030068818619" version="1.1" width="92.00297944219116" xmlns="http://www.w3.org/2000/svg" xmlns:ev="http://www.w3.org/2001/xml-events" xmlns:xlink="http://www.w3.org/1999/xlink"><defs /><rect fill="white" height="98.89030068818619" width="92.00297944219116" x="0" y="0" /><path d="M25,25 m0.0,0.0 m22.366734916317927,14.423570690704134 l0.36230359784366345,0.29128553985009703 0.5650068333856065,1.1268250263842565 l0.001384559983553848,3.5629454280691486 m-15.513898358984141,1.0077681241790992 l-0.9125220565723726,3.0395476277057836 -1.6329515027711943,3.46881298557142 m3.0355287303587475,-5.655505511706963 l18.06076874578727,-1.6860606857263118 13.301620962335463,-0.7467167716024222 l1.5238754524176552,0.1667372087850057 0.690654708695396,0.3215710475507981 l0.15447285339359515,0.44617354684463884 -0.7870184559413681,1.1025527986382289 l-2.492802801501139,1.6553100173108104 m-25.6237100760405,2.6484321304101575 l0.6182129366289152,0.6101427376727538 0.2557113342376564,0.6180009077769595 l0.08682200315354488,7.371862587065978 -0.5946457390190524,3.879737172217007 l-1.0870994896225832,2.8878318567387415 -1.6579776696861086,2.43907912838213 l-2.2396885594293257,2.133749191184346 -2.3533044756219312,1.6122715215874455 m-3.9887171848224194,-20.161012361435688 l2.0854112706750163,0.18970632421367573 9.050292315595097,-0.8074280883404709 l1.0276206729920772,0.31424261590804425 0.18218744990087887,0.44886428599693745 l-0.04664095609024765,0.5523603745834781 -1.2979397901769831,3.4980293136648637 l-1.3066521197032028,4.205981176059407 -1.3578207651759295,2.573358438143501 l-1.5092558445039495,2.2195181848924492 -1.581867268245284,2.1893346899412665 l-1.5539849997506345,2.3949995752018136 -2.130294786527478,2.6923517628596296 l-1.7752419496427023,1.8540700909040444 m24.502827521809138,-21.508446869017035 l0.360654631233428,0.14828724313671102 0.23588353633387463,0.6172858430600536 l0.08150375952582643,9.861959241937402 0.13702578704879864,1.138218232693527 l0.45866923469358184,0.9013325407008225 0.9265690806433655,0.5345654921034954 l1.3824785690123247,0.31757498555393265 7.067879515821317,0.1677384137268649 l3.076320691895842,-0.3070064606837292 0.9999130685150732,-0.4164869473544473 l0.6199718408436774,-0.9112784687300225 0.1938253731868137,-1.5429039366639101 m-23.68057679887717,9.10818054052796 l2.7987604264605834,0.21611774333095946 13.442646835858305,-1.1880262035958196 l3.1374581494083342,-0.046715205162052006 1.8342930649496558,0.1618639405139591 " fill="none" stroke="black" stroke-width="1" /></svg>