<?xml version="1.0" encoding="utf-8" ?>
<svg baseProfile="full" height="108.94849377158224" version="1.1" width="92.0600684342487" xmlns="http://www.w3.org/2000/svg" xmlns:ev="http://www.w3.org/2001/xml-events" xmlns:xlink="http://www.w3.org/1999/xlink"><defs /><rect fill="white" height="108.94849377158224" width="92.0600684342487" x="0" y="0" /><path d="M25,25 m0.0,0.0 m23.731250193825204,13.286535245550942 l0.3300516008568082,0.38239594970908775 0.37568608173162876,1.426718465576426 l-0.010070217125938958,10.371007932650867 m0.7612310793902096,-6.531448900111695 l7.5181854583264505,-1.006673692160685 1.8175608014280253,-0.07170829714775033 m-20.420962199315404,-0.468416074970153 l0.6733891517919897,0.6826831266986575 0.324618676037481,0.920799868953762 l0.2990358620506693,5.48614764349936 m-6.5267689480439435,0.6010130619742599 l1.3991569354919213,0.2619572355399552 2.2661622505786516,-0.058356694100770934 l23.665115558351886,-2.0612519476744646 3.0725985992997553,-0.07369496097116776 l2.7838275495733202,0.24737835391613358 m-17.230666793533885,5.269808857250931 l1.31940074589898,0.694940173764754 0.24257749055827785,1.0809476213086937 l-0.07652466671717745,10.466927081219648 -0.2555881034116501,0.5997447157588472 l-0.3696690094007417,0.18896192413313695 -0.4678330722364933,-0.056799249597621525 l-1.1590551771811932,-0.6887909862647081 -1.29215866499395,-1.1382196048465454 m-4.840717833954627,-7.546396619746473 l-0.3068441143837127,0.7764115067496367 -0.4186936193082157,0.5450764229638962 l-1.7936461129419972,3.8144049952386014 -1.972117312186752,3.070105655725266 l-1.9648218772755166,2.3981015919581385 m21.495342012888646,-11.383871238614224 l1.7263093273288925,0.9856905712638389 2.0171708569945013,1.5657665569505703 l1.496193418995865,1.5650483588118906 0.7618887593224186,1.314862321062042 m-5.739453842092535,1.8684823355118425 l-0.03326896163749409,1.6415531784623418 -1.4178254005179403,2.383813959398746 l-2.923876652340214,3.398137353736386 -3.629985714014552,3.2976800184006136 l-3.342689043489734,2.6288056266457938 -3.6911073435141653,2.584783470960497 l-3.929108474562018,2.3346097679403 -3.9312471812465923,1.8928210885026298 " fill="none" stroke="black" stroke-width="1" /></svg>