<?xml version="1.0" encoding="utf-8" ?>
<svg baseProfile="full" height="91.21906256727095" version="1.1" width="102.13530941532335" xmlns="http://www.w3.org/2000/svg" xmlns:ev="http://www.w3.org/2001/xml-events" xmlns:xlink="http://www.w3.org/1999/xlink"><defs /><rect fill="white" height="91.21906256727095" width="102.13530941532335" x="0" y="0" /><path d="M25,25 m0.0,0.0 m28.289001648595402,4.2046263556273304 l0.3439221544856281,0.3647537930493398 0.4883399230281092,1.609334264626359 l-0.04689674035576027,5.313309344117609 m-18.198468082123433,1.8283210654149833 l3.993101275365798,0.12126000497833636 17.26819774863559,-1.6931776135733994 l10.463684498272627,-0.8268656097422146 2.9167640562703836,-0.12314405966683882 l2.736863395978644,0.36598793180302636 m-23.86039213661108,3.272050904539375 l0.11797879047070209,1.4751765156261403 -0.562240297250049,1.3643315025298266 l-1.8891914750308847,4.672100928987223 -3.340462395647748,4.541399793003918 l-4.109478532085473,3.7568354177138024 -5.589205472095192,4.035111335738288 m11.77910864327059,-7.964662647776196 l0.45530315849079606,0.755827833747217 0.14573751437602492,0.9672177094257517 l0.24437630355761317,11.957307358473974 0.16763694342818616,0.8220208865488521 l0.4043305503664899,0.39993955207826115 0.9679851653387201,-0.18905984097032874 l7.147675420201344,-6.695853328256261 3.4900171569379226,-3.4388497435117316 m8.648889966328307,-15.810628539531232 l0.01836862769608256,1.5690866603313436 -1.348342421888804,2.094032792172504 l-2.2806730870706726,2.443657452057988 -3.994182049234537,3.326184336907268 m-6.244639997552692,-3.553541982136137 l1.3687053331934766,0.7100592507711252 2.979762700356735,2.0467072949165717 l17.187180908597938,13.459708735017143 1.9765502190265554,1.1866089246827731 " fill="none" stroke="black" stroke-width="1" /></svg>