<?xml version="1.0" encoding="utf-8" ?>
<svg baseProfile="full" height="96.44042377194455" version="1.1" width="94.7651761572323" xmlns="http://www.w3.org/2000/svg" xmlns:ev="http://www.w3.org/2001/xml-events" xmlns:xlink="http://www.w3.org/1999/xlink"><defs /><rect fill="white" height="96.44042377194455" width="94.7651761572323" x="0" y="0" /><path d="M25,25 m0.0,0.0 m9.429739072495968,12.98944711834238 l0.460056512232909,0.12246361899026013 3.3345721451686887,0.060811312560896086 l25.017148324563028,-2.5832770842161126 3.9965435866211387,-0.14026175943530123 l2.5271165161505804,0.32464370006332094 m-27.31066363752037,-4.199071590408365 l1.0613978800004702,0.9727469186277508 0.3131873379484693,0.6317440915022707 l0.9691162958442445,3.9507401975500187 m14.801036131283286,-7.529945153804969 l0.3522014056912068,0.710052125737244 -0.05494729586698601,0.7864170161772067 l-2.1433399907824455,6.086604128981244 m-18.49539054742953,3.2762251682881653 l0.7389703239695217,1.2132894243876284 1.795578089899721,9.170671234788111 m-1.418391974532073,-9.698380216301116 l20.17852593915037,-1.7779374667707695 1.667277305911818,-0.0380738725922471 l0.5249672989862434,0.16893390769323496 0.5823192023177117,0.6820717498709692 l0.1112485958232291,0.5751762617506218 -1.1970522814761413,5.379218017028699 l-1.0970239128878827,3.305962732139843 m-20.57135748445699,-4.141696279102208 l14.574830734348884,-1.2336409678930826 m-13.62249794959992,5.6006562430041855 l19.783488910899052,-1.3839069394120889 m-31.084998310273363,7.7371975546199385 l1.9654906014583458,0.09854629199707633 2.1472598580874425,-1.928842558689875 l12.38700190654016,-4.794285733499402 1.4891456302722916,-0.22555503981250047 l0.587574626971665,0.17003594439014355 0.5370478863434929,0.4061041434057172 l0.15775377762842124,0.5319419174425997 -0.48845647270513803,1.1038942516827663 l-4.6134906103160604,6.65641209889287 -4.606776370805233,4.429739477653117 l-5.395626905654085,3.777082021760698 -6.587970421347611,3.1274919029569594 m6.142506873237139,-13.963672803177243 l3.097441835302979,1.548512855894903 11.175157825735633,7.815110859465215 l5.371661516075725,3.472488748654048 4.22150939988756,2.1329425989125297 l3.4066401551872976,0.785292207038812 2.052758312077724,0.2783033948084015 " fill="none" stroke="black" stroke-width="1" /></svg>