<?xml version="1.0" encoding="utf-8" ?>
<svg baseProfile="full" height="112.79615740920786" version="1.1" width="98.99590717366755" xmlns="http://www.w3.org/2000/svg" xmlns:ev="http://www.w3.org/2001/xml-events" xmlns:xlink="http://www.w3.org/1999/xlink"><defs /><rect fill="white" height="112.79615740920786" width="98.99590717366755" x="0" y="0" /><path d="M25,25 m0.0,0.0 m16.08432226214299,14.560056952586535 l0.3444600624400116,0.15636467112364702 1.8863948504376271,0.13849712988430884 l9.17692467473516,-1.8757026349189503 1.9843097595768373,-0.15676894945015968 m-6.812273594211047,-8.440511145990461 l0.6882680872508619,0.9295818730335387 0.30129142518149316,1.5832913851164738 l-0.09120926400439729,16.39712543368571 m-10.079377956369582,2.047294004518175 l1.5756877188576037,0.20249004342156915 12.588805573566017,-0.1480712747060631 l4.129533919447941,0.09893917466243095 m-9.860468257947756,1.8402500616422557 l1.526194312692675,0.968325204187308 1.3587439708962956,1.507231304327287 l1.0324559754000695,1.528298057195311 0.4289893138714502,1.3574456570078113 m-4.995273167988665,4.54064145002736 l0.2604787799949528,1.5024603095553515 -0.04710104040017278,1.5870106961239834 l-0.06798985316276954,10.795274174256903 -0.19185859287245172,8.211752668875807 l-0.22548348397474108,0.9949797176100994 -0.4172865036160506,0.2741372499797553 l-0.57436184210031,-0.29262978288664154 -1.6223074653127785,-1.8723018178486142 m-3.2050395244851217,-14.178659602002154 l-0.20839903298449278,1.6520890497509115 -1.3404792074967937,3.7822392651497236 l-1.7719582488837886,3.4922391077896484 -1.9471620563943381,2.973964565296278 m15.875054726770621,-13.318465938179852 l1.7815808658922234,3.362448556377301 1.074102648160983,3.0276882684294257 m7.4943330378700335,-32.21299218395567 l-0.21544223639334922,2.737466951463212 -1.1822680437608648,5.234961189511476 l-1.4477670425794427,4.591818914062147 -1.7985867463554766,4.207231297376876 m3.0485791967447544,-5.185416761746532 l0.8927457875022917,0.18602768636719733 1.2511803128991217,-0.12625027721981116 l8.960338990683828,-2.2032662829486904 2.7978863845198023,-0.2922050393694774 l0.5553376974262895,0.1922842833761889 m-5.496283878436303,2.983103381354849 l0.21041713221994124,0.7543025766707169 -0.018776339168160874,0.9787202763755533 l-1.2823689304238797,5.376408569599006 -1.8098440662338615,5.358717793106027 l-2.16833305914096,5.010725340974227 -1.965318955659509,3.5395256785034657 l-2.228145070583483,3.120504136934401 -2.499939834354599,2.747558076775539 l-2.850872884119651,2.3519704576806864 m4.784683776332852,-23.120381651764845 l5.392370999436225,11.815238681813005 3.9503772564091264,7.473088582133845 l1.9484550913867449,5.548870991525022 0.7319343513129587,1.633487951078551 l0.598163867127725,0.6502421065824981 0.8686111929598068,0.2154097973163981 l1.089815460859534,-0.1912061567601227 0.4422721698576543,-0.816886098586982 l0.13986064516656802,-2.894728485407832 -0.09546397150853685,-1.946484481645041 " fill="none" stroke="black" stroke-width="1" /></svg>