<?xml version="1.0" encoding="utf-8" ?>
<svg baseProfile="full" height="106.79157970560196" version="1.1" width="102.18299967078481" xmlns="http://www.w3.org/2000/svg" xmlns:ev="http://www.w3.org/2001/xml-events" xmlns:xlink="http://www.w3.org/1999/xlink"><defs /><rect fill="white" height="106.79157970560196" width="102.18299967078481" x="0" y="0" /><path d="M25,25 m0.0,0.0 m16.008337056209268,1.4552193147526287 l0.046701659442934015,0.5274533128272252 -0.38204148031806784,1.5966296128414696 l-2.1378268590860796,3.5397364015779598 -2.4358511364713764,2.7605408977828048 l-3.064804258241396,2.436652327275667 m8.502704885764079,-5.693543540048919 l10.418749432404478,-1.1875162040622131 2.221482309188663,-2.646475887051528e-05 m-9.444194651306326,2.725101094351563 l1.7182517608500714,2.1247960909255776 1.2016667050351453,2.378407061680059 m14.942075674181098,-12.50056102004718 l-0.29095162584854994,1.4603122762425336 -1.5666163473140478,2.648948958369608 l-2.0372935565766177,2.631506930164929 -2.4016179537792883,2.449314657357752 m6.168811201619217,-3.877922376430926 l5.505605685363168,-0.26909760788776516 9.209811169668441,-1.1105629178753489 m-9.902264774346019,2.5529195273755345 l-0.03008811911148994,0.7737264148590264 -0.6754435942115686,1.288848428068365 l-2.6941173134466414,3.034971021741549 m-26.07874280871979,5.03688015865632 l0.8645105943771381,0.2976688534707594 1.7491545407193922,0.09312571017977955 l11.838138185450017,-1.3756797706710728 1.3504905553582447,0.018186108263915632 l0.4856499128617096,0.22275717302227274 0.47018540202725545,0.4444848882750167 l0.20539629391080247,0.6271087310898094 0.021075444621824795,0.7331004908884634 l-1.7375563727259864,12.175209200216552 m-13.314094131608833,-6.777288663686663 l13.912696487317673,-1.0650373951552958 m-13.826458854095799,7.127459108105551 l12.689063696947906,-1.0270421143431696 m-14.20002712010371,-11.22250696820519 l0.5409582091763537,0.8031159158986845 0.13214118886892057,0.8468370053413234 l0.21875209242612187,23.814616354276467 0.24084867878427724,0.9503985740746497 l0.4146490870586168,0.10168278559509848 0.694397853406864,-0.22562117762254602 l0.9289382016839474,-6.1654428441912 m7.245662317810591,-4.453653940258097 l0.07083390400496051,1.1046523480826413 -0.5755316327346646,1.6444743870911986 l-2.3721314089791643,3.602158038747521 -2.8505419157508216,3.198771346332531 m-4.386071337831883,-4.787729064267527 l0.5048175711188525,0.7471596742542869 1.0763901837225835,1.7245071016525126 l1.0947878040977437,2.871027512364288 m8.714444964508624,-7.057399513207492 l1.5096268632215397,0.47369798435614824 1.5007414190912796,0.028322535439630064 l12.985919209430499,-1.6098279678591625 0.6418029010669144,1.1244142661348002 l-0.4631789457269171,2.3116853180563712 -1.3248293611089135,4.154770376695369 l-1.6213756351007151,3.2572600475929114 -1.8909782152594912,2.537839919765919 l-0.5911890244698441,0.5520744625391217 -0.46492595198616626,0.16549686096244 l-0.40337025867414095,-0.12584913357739835 -1.1173277826603485,-1.2931979891913465 m-7.520276078550211,-8.853936822675125 l0.4144294141283961,0.6425792379231672 0.1533711284179604,1.0131799509791148 l-0.04231102892329064,16.639236447105603 m0.3953763620151294,-14.469366864147768 l1.839579606135889,0.34830890905918743 2.0680596950981798,0.9311954038466765 l1.6372366342920226,1.039545189363555 1.0739977162305523,1.0683317977113587 " fill="none" stroke="black" stroke-width="1" /></svg>