<?xml version="1.0" encoding="utf-8" ?>
<svg baseProfile="full" height="102.83127929177712" version="1.1" width="99.73765124875561" xmlns="http://www.w3.org/2000/svg" xmlns:ev="http://www.w3.org/2001/xml-events" xmlns:xlink="http://www.w3.org/1999/xlink"><defs /><rect fill="white" height="102.83127929177712" width="99.73765124875561" x="0" y="0" /><path d="M25,25 m0.0,0.0 m17.169991195942124,4.734497546463784 l0.374289776339464,0.37507544132399967 2.7929422848007226,3.4014013814520454 l1.620388290057992,2.6026837495122206 m12.87252284442855,-9.604855284931714 l-0.32418982631372095,2.267431029045963 -1.3128498985191144,3.442380901753655 l-1.5302827162608719,2.7991687973521198 -1.6749548025654164,2.3378137606683325 m-18.297162419133073,3.319247289432859 l2.3063575282048863,0.16734198260129576 23.825885127898978,-2.665709608601096 l3.097891234792679,-0.0822555821705074 1.728679264310662,0.2570837179695797 m-27.6378305388712,10.448637520627454 l2.1390542635783363,0.24649750843108154 19.06344652457071,-2.4611521126905673 l3.1664426054244776,-0.14073338283967665 m-27.64462707798329,11.119432578710278 l1.5755443427484113,0.2708363750257904 1.689238534035404,-0.0890358607352722 l23.753882637688257,-3.198327939997776 3.717037317033449,-0.21909582783355186 l1.908025645013321,0.30339608073866003 m-17.833963406271884,-15.790968920687973 l0.8118243289942007,0.9478273288623286 0.3852424209518247,1.2464513238830404 l0.0009889839662440177,13.454453096099256 m-21.319522408230117,3.351763520657597 l2.1940766190831407,0.126647102049664 30.075430706479732,-2.885248686913844 l9.142838352839394,-0.5921842581209086 1.901013513721335,0.3049603025381117 m-30.96124889687357,9.06233765307943 l0.6398541256342328,1.0333995597937304 0.22918795951679707,1.0100084821312143 l0.03897510164942994,11.414437677714988 m0.2510933250253274,-12.62080034617907 l17.845113518309745,-1.952089168752016 0.8411844257236107,0.09783365065882985 l0.568268184536927,0.42987868058605666 0.37122348009757017,1.0853336443825734 l-1.7888265476410288,11.334672074225066 m-17.71745265933982,2.140806514460093 l18.107365490939262,-1.5767287448839042 " fill="none" stroke="black" stroke-width="1" /></svg>