<?xml version="1.0" encoding="utf-8" ?>
<svg baseProfile="full" height="118.33346642507406" version="1.1" width="94.24612931312623" xmlns="http://www.w3.org/2000/svg" xmlns:ev="http://www.w3.org/2001/xml-events" xmlns:xlink="http://www.w3.org/1999/xlink"><defs /><rect fill="white" height="118.33346642507406" width="94.24612931312623" x="0" y="0" /><path d="M25,26.610987809721635 m0.0,0.0 m13.215526571417186,1.4290665731015884 l0.4819016927934097,0.49332648309719507 0.6816634521919962,1.162655199363473 l0.20974766499702416,1.2603195706272665 2.0201026046975032,13.622521448961928 m-2.1807379946431924,-16.166521005386738 l23.0114807286129,-3.0306014631031117 4.028359906649537,-0.38175461638323444 l1.568798273549078,0.20373993445879326 0.9870376202871994,0.7862719312638108 l0.222248792573609,1.6510762524926128 -2.932380868927374,12.217782490161966 m-24.671139237363413,3.0788347039327157 l25.748347564573137,-2.4092047224717383 m-15.280036411468902,13.212581269240086 l6.439344161427234,-1.2002927698240176 3.2843575868492745,0.11937362749346227 l1.1128723561135616,0.22590314471931147 0.9576871395756426,0.6893982866354509 l0.30252032168317494,1.5596201109228154 -0.30138345047055815,3.8968036368332597 l-1.5855819472014954,14.894648934467263 -1.2059833312246868,5.820477168952599 l-0.9875968589602683,4.926316718789636 -0.8522528319616459,3.939303043229927 l-0.992510784220984,2.473868975230845 -0.6886417823301014,1.3582919859848548 l-2.097934648453691,0.8886717025604194 -1.1249645139860738,-2.6470975136970303 l-1.1373575378213858,-2.6317798659735274 m1.3630606678886925,-34.270585823626185 l0.09183866750422091,1.4027177956238908 -0.22343761581284607,1.5090078569622927 l-1.2887985237634874,4.88605396845422 -2.194994900291105,5.4931655629529095 l-2.5807964652678863,5.099605279138194 -2.473078627520798,3.8939970901130514 l-5.931536854806471,6.607189388162912 -2.8179092967027475,2.236574195747157 " fill="none" stroke="black" stroke-width="1" /></svg>