<?xml version="1.0" encoding="utf-8" ?>
<svg baseProfile="full" height="109.60922141458461" version="1.1" width="116.4425023975911" xmlns="http://www.w3.org/2000/svg" xmlns:ev="http://www.w3.org/2001/xml-events" xmlns:xlink="http://www.w3.org/1999/xlink"><defs /><rect fill="white" height="109.60922141458461" width="116.4425023975911" x="0" y="0" /><path d="M25,25 m0.0,0.0 m25.350384710013895,5.784336539396618 l0.42863568442815675,0.35644629055712956 2.8014896454262033,1.4384794633833713 l2.529675749935999,1.8177122461389474 1.9363545814262844,1.955899608914305 l1.047987593041583,1.5376304023175884 m-24.829531511092696,8.022047249114474 l3.431409410630862,0.25476079089176346 29.530672207575574,-4.1188426798979805 l4.99017579118982,-0.3599114509644073 3.3566452623889935,0.3960372453575736 m-35.687918504058565,3.6882431148610877 l0.7072443648313163,1.8192624008540603 0.1589048380645632,4.483359986027837 l0.42036088753050793,6.747482638942959 -0.2720718270353356,7.043603357597662 l-0.6273828433460689,4.69181993127247 -1.1107311519800922,4.06525694935515 l-1.4853618226121357,3.270713631437899 -2.6366348938011317,3.948938457003002 l-2.5628410745388672,2.7659452420231037 m33.39025094055595,-32.21046864744949 l-0.018355546550924303,2.0820252094729828 -1.3377507901267043,3.7608484093750048 l-4.480708168975342,10.308948283199063 -6.0245613271888585,10.516074068279694 l-0.5514920070258992,0.8722980130027883 0.1364021990089632,0.4474989198445782 l0.8160233873861323,-0.04060197632620333 24.85006365703406,-5.899499604244141 l7.849067662977146,-2.0636734723043424 m-6.65465945039562,-7.425713141043024 l3.0830844981538688,3.0495843758678745 3.63063215659465,4.907502789056978 l2.805867710625445,4.831199294891929 1.4711703774993683,3.901825402095576 " fill="none" stroke="black" stroke-width="1" /></svg>