<?xml version="1.0" encoding="utf-8" ?>
<svg baseProfile="full" height="94.5669793310072" version="1.1" width="99.17715604325619" xmlns="http://www.w3.org/2000/svg" xmlns:ev="http://www.w3.org/2001/xml-events" xmlns:xlink="http://www.w3.org/1999/xlink"><defs /><rect fill="white" height="94.5669793310072" width="99.17715604325619" x="0" y="0" /><path d="M25,25 m0.0,0.0 m16.747739459125448,9.412451093264648 l0.38380379581219826,0.12700016225389285 1.526395670078085,0.1362353227193222 l23.463015841137516,-2.37755548324971 3.9527317893535967,-0.1925905678326179 l2.162422592625085,0.2716503250205479 m-24.232373047913363,-4.366774199168235 l1.1033950638843888,1.3237174215254914 1.2902586400915472,8.916343414441632 m12.282951306532267,-11.515219983002336 l0.2329748826991626,1.2386500071543283 -0.0410861926784419,0.9612382430366321 l-2.1812458848104255,8.110753089927298 m-23.137127893936285,0.22067501649909532 l2.247562927560538,1.6883141892380666 1.454331612971414,1.752998216757064 m-8.791661129343742,4.52038514951919 l3.324281682477961,1.6495875756654932 1.4948670190719655,1.306104323004302 l0.6446249879697864,0.8706777933634587 m-5.378443572044646,15.78139774377148 l1.0434378547317174,0.23395203589255378 0.7924878127016929,-0.41752375561004035 l5.000862651651336,-8.872506983395338 m9.183908857767298,-19.115784336367945 l2.433774719296095,0.24597576240949415 12.67782755471226,-1.804062652616082 l2.196781193194708,0.14999569860024778 m-18.141357024348743,5.950993552990825 l0.4596928344904376,0.7835697151771023 0.3616141600681355,0.9006075784278728 l1.3041541171485744,9.625543230785658 m-0.8815450422376532,-10.421757282616424 l14.87422913567952,-1.7600008276100114 3.1231921435660395,-0.16888933908402742 l0.8420128382315397,0.7123910231331866 0.07652918325468892,1.2182509328596198 l-2.070551414995848,8.326672657219417 m-15.923262822897982,-3.862099692647008 l12.113754393247659,-1.7391950555961395 m-11.303040767888408,6.469559614580385 l14.704737249987788,-1.7206957419397206 m-8.485544357556904,-18.403544156956723 l0.5094504510015616,0.6773767448822688 0.22686292632309138,1.0033874417527646 l0.119133003344556,17.195242949617615 m9.871080011503222,-19.66562730593128 l1.0783252675649415,0.8748636852033929 1.5059784783781285,1.588852388125902 l1.4589856181065746,2.4100988209993144 m-28.866885237893545,23.405318316294437 l1.4263840855285215,0.267307749377787 1.781979272196741,-0.02074002013920289 l24.294610051934704,-3.0581519774790764 1.3013347829916666,-0.05275819185080516 l1.5368025118080078,0.33772417063170607 m-10.501257676157262,-4.6814800111490396 l0.45235702311044385,0.8028826053637578 0.12616983432432524,1.040264547813455 l-0.16691651612512784,15.254777847973404 -0.3181184262029608,0.826341565336492 l-0.4885617949725108,0.19380717263835917 -1.2255159779817975,-0.8246088347297544 l-1.3971712880953417,-1.5257396607322609 m-8.072933447223205,-6.0735442184146216 l1.9184090014301702,1.832475198318953 1.473749410767818,2.311938504452917 " fill="none" stroke="black" stroke-width="1" /></svg>