<?xml version="1.0" encoding="utf-8" ?>
<svg baseProfile="full" height="91.78468526865687" version="1.1" width="101.53137875394034" xmlns="http://www.w3.org/2000/svg" xmlns:ev="http://www.w3.org/2001/xml-events" xmlns:xlink="http://www.w3.org/1999/xlink"><defs /><rect fill="white" height="91.78468526865687" width="101.53137875394034" x="0" y="0" /><path d="M25,25.483374456580293 m0.0,0.0 m11.390829918769136,1.0235479263061125 l0.4251765017266565,0.5229762008291974 0.5557484516484027,1.1197911852555547 l2.684337553721735,16.99159602923853 0.2966767776609503,2.408798880641352 m-2.750592001833886,-20.14797126204498 l30.709886389493917,-2.402113416806061 2.003981711461983,0.15342507716170045 l1.0726713383590534,0.8161317169897427 0.26937704220307795,1.8193349855682694 l-3.2366379522862663,18.190258970776192 m-28.017687914700804,-9.431053729783434 l20.02500163607938,-1.4818103032220264 m-18.9825594722133,10.815989549417761 l26.434079954443057,-2.0521858590235964 m-25.787805987411655,12.141263006483705 l2.804930607787932,0.2970187483816067 17.884191119495267,-1.7063869106898273 l3.105674019579934,0.21033427339700445 m-33.17827547391989,11.739328686677384 l3.549201542364234,0.2730370565223837 31.53780434691629,-2.388747512648852 l5.758428329213556,-0.18562904073563471 2.976940315381599,0.2267075645711108 m-23.0849245037676,-36.92429286935622 l0.7967384839331711,1.6111572324871504 0.18059615518498912,1.3134613328607472 l-0.05803189314202399,32.734361356829126 " fill="none" stroke="black" stroke-width="1" /></svg>