<?xml version="1.0" encoding="utf-8" ?>
<svg baseProfile="full" height="117.84705566918802" version="1.1" width="94.92850374154" xmlns="http://www.w3.org/2000/svg" xmlns:ev="http://www.w3.org/2001/xml-events" xmlns:xlink="http://www.w3.org/1999/xlink"><defs /><rect fill="white" height="117.84705566918802" width="94.92850374154" x="0" y="0" /><path d="M25,25 m0.0,0.0 m8.423714742719989,12.90020797992895 l0.5412375579263939,0.1281366067108638 3.140824408034238,0.08693227930661594 l13.267831105933269,-2.431992290898249 12.102421643615285,-1.4290140130862912 l3.2947332972635213,-0.1812730679167799 2.589124017390159,0.3863552126929951 m-26.798780597280263,-5.00164011524684 l0.7717643029507976,2.1036352114232892 1.6284122993378831,11.702464076800682 m14.976789425870654,-15.805603928618805 l0.2175989632551017,1.9910203707497005 -2.059165290312845,12.589019954008144 m-7.335924876653481,0.7464029792023213 l-0.25037144974518577,1.8276776014320801 -0.42771255705210426,1.4711803702693145 l-2.3544790249545047,2.745828925026584 -3.6910291468184844,2.893003708434523 l-6.250560313204231,3.682180210307159 m-1.5213063722930904,6.1204771160939195 l2.472995085072498,0.3604739303783653 2.1653820315957053,-0.15088084328890955 l19.78954995586266,-4.21229094737337 2.2709950359522777,-0.25840126909635763 l1.8647988635396244,0.26648476483002104 m-14.14439261961021,-6.327049259842295 l0.5149894387814132,1.2468979891631014 0.17897279913570224,1.3137788598873308 l-0.04802706616305994,39.08304325790997 m-1.240118298493526,-31.463545607461025 l-0.399041712457626,1.9482405290715417 -1.4423289552615481,3.061301570438154 l-4.375965550047824,7.3603448504833375 -5.207903937118659,5.943318181925292 l-5.271869716777505,4.280273760926732 m19.86312783469569,-21.900102471749243 l6.295920187934188,8.179357392760242 5.421191062910324,6.902734429473695 l3.234514709808647,3.8817820892091257 2.7205924561981267,2.2844090686048424 " fill="none" stroke="black" stroke-width="1" /></svg>