<?xml version="1.0" encoding="utf-8" ?>
<svg baseProfile="full" height="98.81915309745068" version="1.1" width="102.82795198435792" xmlns="http://www.w3.org/2000/svg" xmlns:ev="http://www.w3.org/2001/xml-events" xmlns:xlink="http://www.w3.org/1999/xlink"><defs /><rect fill="white" height="98.81915309745068" width="102.82795198435792" x="0" y="0" /><path d="M25,25 m0.0,0.0 m15.916996873501729,15.542699810011246 l0.44199636765829486,0.12920498966950084 2.7735179936144205,0.1126071239893261 l24.418453975857112,-1.3072341917990484 3.6206551416405217,-0.05488197384589607 l2.419271150252584,0.23702252217305916 m-25.517413724366524,-3.9276475364622865 l0.8497525924257874,1.267184147895526 1.121012554757005,7.468536870307547 m13.40657594832647,-9.615451749747162 l0.2464335275986034,0.7655033898052788 -0.07049996398154214,0.8629904988974354 l-1.8942064022489848,6.9281947423443775 m-15.792773255286134,3.775258822352246 l2.495015018805066,0.7185476780922373 15.206432086022922,1.0656135377747369 l1.5942356713113348,0.077754127816303 m-9.602525721286481,-4.880797892974303 l0.5114729725513348,1.2020858534344294 0.025973952652018108,8.678711091352955 m-17.59946325013983,1.1091061554854065 l4.370231638816635,0.17806523111236525 28.60525238377788,-1.725528157095712 l2.733105942468892,0.014823288742743506 2.5484485096288068,0.23503728047096253 m-6.560301953512715,-8.054636970172782 l-0.5608856211650761,1.3776546264114797 -2.980082089942489,2.439538859196032 l-4.951629860468209,3.6851845754425754 -4.818234382772602,3.0530523512674024 l-4.178383876764252,4.63538059997025 -7.881830128462721,8.776769293919498 l-3.977423306688453,4.048804101612952 m24.423955869116163,-13.850328857395798 l-0.20270657405722944,1.7175998133078767 -3.0071734254502016,1.3893576657850408 l-5.258483525899773,2.2042233900997323 -5.98304078384202,1.7239265814873441 m-1.5037925104040677,-7.3328484851994045 l0.4513514688049163,0.3014356198012115 0.27227161455291926,0.5874428842598376 l0.2258478202956667,7.9667451336750466 0.44783612573902465,1.1614202461113294 l1.1267745535840916,0.8510946311181355 2.004787264571315,0.5154688681396746 l2.8798948798757418,0.19204496763864884 6.153582158949532,-0.06377702833315244 l3.3261077309910267,-0.36441426578083475 1.4311123752929051,-0.4697886932882495 l0.9974858617666579,-0.7061259060600902 0.5305575265836528,-0.9564932314056414 l0.16938452607711715,-1.3745435515556708 " fill="none" stroke="black" stroke-width="1" /></svg>