<?xml version="1.0" encoding="utf-8" ?>
<svg baseProfile="full" height="105.48474871797421" version="1.1" width="103.01489002910054" xmlns="http://www.w3.org/2000/svg" xmlns:ev="http://www.w3.org/2001/xml-events" xmlns:xlink="http://www.w3.org/1999/xlink"><defs /><rect fill="white" height="105.48474871797421" width="103.01489002910054" x="0" y="0" /><path d="M25,25 m0.0,0.0 m11.607938945483228,12.72702255807528 l0.4808128675668153,0.14308520832345364 3.801016999658162,0.09430694950158626 l32.57603822788904,-1.2362495755629184 2.007208571401403,-0.00900997062685705 l1.7742246559474055,0.33718661916074877 m-31.25410622294761,-5.298376468129156 l0.8925161105188841,0.8002748636667492 0.3273582449065357,0.6122805796165937 l0.6604426449035805,3.5689569483705874 0.5813008607997643,6.115070407721966 m15.10801531769139,-12.51673377187407 l0.6007747054081213,0.8360194842054226 0.05380107238912089,1.5703096637986582 l-2.426093074821069,7.748775042314489 m6.418499104778916,0.2586802501781897 l-1.072344253509608,1.4050366503129044 -3.618917247951713,1.4314249077717258 l-4.09786718693182,1.280919542101316 -8.587730054411011,2.005867823616255 l-8.825667988935168,1.3030100196850916 m-6.934343189151628,4.213030632652231 l3.5479829869175585,0.24597972309444138 30.852747770891906,-2.430682436500067 l5.212588383429577,-0.18247609351402092 2.5050833751230908,0.23944346294789748 m-35.68981046925069,6.424183712661554 l0.670071084943393,1.2953857814461038 0.7154117400586247,2.4553717977115066 l1.635433045406406,8.533842333752787 m-1.9585168949036587,-11.758141218871208 l27.108465322523703,-1.5680926625292197 1.0835168488325475,0.7376242802891453 l0.28580161865853815,1.3401137517128543 -2.7522610606028564,9.942427614513573 m-24.900797406669845,-5.347028150211857 l19.570426202288843,-1.1049693408325272 m-18.752291907964953,6.508029536943597 l23.683154808701005,-1.1613724018190612 m-13.3228538195837,-19.573484325296786 l0.8099699405894274,0.6863111168985925 0.5721066512459769,1.3915195170661399 l-0.1590667720303184,30.386577795572904 m-14.45211632319911,-5.609825043429759 l2.7590642981096134,0.1264861503320865 24.400366040724435,-1.3094947889206605 l1.9662080339046555,0.14339178769709193 m-35.20852456146865,7.519910424094996 l4.434673324048362,0.16282802828386803 31.987100902671134,-1.5855473183175 l3.9198594593498135,-0.0792248116955709 2.418218295672955,0.20535138196677177 " fill="none" stroke="black" stroke-width="1" /></svg>