<?xml version="1.0" encoding="utf-8" ?>
<svg baseProfile="full" height="114.80511705184931" version="1.1" width="107.23526650518718" xmlns="http://www.w3.org/2000/svg" xmlns:ev="http://www.w3.org/2001/xml-events" xmlns:xlink="http://www.w3.org/1999/xlink"><defs /><rect fill="white" height="114.80511705184931" width="107.23526650518718" x="0" y="0" /><path d="M25,25 m0.0,0.0 m11.344523917015973,11.86129904950706 l0.5481462137206905,0.10656680007993505 3.823048523311924,0.06914348762981014 l13.525674869544337,-2.3565378273119424 12.469800616018741,-1.465898756777258 l4.236401660043592,-0.06345968057496112 3.2954686297400295,0.4429107932293623 m-27.66042994355911,-4.948145037344569 l0.47591344326628926,0.7552902583762048 0.3934586173558975,1.2782791265725375 l1.3668434808809693,12.194506883883887 m14.360985048307175,-16.654069679279118 l0.14702914527182073,1.9773094797619541 -2.1459168734762586,12.00977604973049 m-5.741160067949027,0.5702122636180871 l-0.19039795861776418,1.5900619009471832 -1.2449772791714857,2.53965307477025 l-2.054514065094669,3.2209872987272226 -2.6398499643937035,3.327050234577943 l-5.162226588766686,4.921200561001397 -6.838489837099284,4.829878675825712 m19.73626821207646,-18.3958596314886 l17.175540990787876,12.454643113651555 3.672259710332864,2.512441386148932 m-28.185964129223812,-1.5527799827192983 l2.4208573118779753,0.05211284333657095 8.972744527824316,-1.55983917401233 l2.5463655157936724,0.07985517400469651 m-17.373278159758982,8.37456386398444 l0.7723793665923867,0.3690682739613747 1.4829130381304347,0.11575411116452829 l15.067633805292557,-2.5035679471887042 1.032995633927734,0.010217864862211878 l0.9234355052982359,0.32172748765635456 0.5131725261512482,0.513867376041964 l0.19632514757106412,0.7207174500591519 -0.17187141025679206,0.8960346845470024 l-2.55481347515948,5.211571172796147 -2.658168388730822,4.187155228164828 m-16.411669375103425,5.623775029623613 l-0.6605062916990136,1.694573491045064 -1.1330653039076646,2.9886676052990735 l-1.3934801606687055,3.0258494393667457 -1.2637713546358804,2.2061861501534525 m9.69232520699741,-11.625542987705153 l2.197298755487682,4.207046268381673 2.523969585689945,3.3765460520282042 l2.942020086728775,2.670166864653353 3.4113188862416832,1.6837516046212915 l3.5151227507864133,0.8086379595169337 3.008254452204684,0.13176132294306367 l5.4283275234235155,-0.26651874207517234 0.9765834677154345,-0.34083322369305097 l0.4913974864167206,-0.44911586165536566 0.1306306888259102,-0.6054460986074841 l-0.22694932412238494,-1.6436938299407677 -1.5194089658746897,-2.060381704702295 m-12.858230441981133,-10.21436878586412 l1.1249276734089975,2.2765417393271004 1.0764515889477266,1.1407317191916422 l0.8268832427722209,-0.019183780749305015 0.3720131604688954,-1.278339490121105 m10.530196416984655,-4.546266736225763 l3.8997961531346417,3.0220028177690006 2.7636094496919044,2.0903144009412777 l1.9130938323764624,1.9899499347291063 " fill="none" stroke="black" stroke-width="1" /></svg>