<?xml version="1.0" encoding="utf-8" ?>
<svg baseProfile="full" height="101.4972410994373" version="1.1" width="102.65967313270644" xmlns="http://www.w3.org/2000/svg" xmlns:ev="http://www.w3.org/2001/xml-events" xmlns:xlink="http://www.w3.org/1999/xlink"><defs /><rect fill="white" height="101.4972410994373" width="102.65967313270644" x="0" y="0" /><path d="M25,25 m0.0,0.0 m14.924706160534093,5.059085072734098 l0.5247496951616157,0.14314047661366713 3.963916240305425,0.1949231303150821 l27.41751143062368,-2.224652763396832 3.0602156159450726,-0.06460657218386796 l2.768573990136554,0.2800378716548661 m-35.934167301247896,2.6880176090219923 l0.5770075968068813,0.8519107352920572 0.1435096751064653,1.1311307178301881 l-0.19490782903574938,7.2832107481188775 -0.6278473858405267,7.783719642614901 l-1.1205085135597286,6.859815694735843 -1.3998289500465506,5.422452093672861 l-1.3971680486755405,3.9646793684909265 -2.4032804140885813,5.077153778033097 l-2.2316885793723626,3.367041385736529 m13.73699904446871,-36.980838871225515 l0.6887751600295756,0.188613306758335 1.7443977049392634,0.0270016368087748 l17.115296039625687,-2.0271849092707286 1.6130126312975204,-0.0013580571286174697 l0.6161664476489795,0.26406614578100684 0.6026401728394686,0.9222072966507369 l-0.13308364053374824,0.7032984967202117 -2.00648185460982,6.844629040707728 m-17.864611706477444,2.1189321331784963 l18.9602207489277,-1.7204820816375754 m-20.961252375905794,-8.040108030509318 l0.44951346103910245,0.7516546444272562 0.1943461639078061,0.9757577269547788 l-0.045462166717678346,7.995756152751885 -0.4737100764746684,6.403525799799521 l-0.9142982901072699,5.960203153242389 -1.217082252209526,4.551464241309117 l-1.6617905543096725,4.015167829192853 -2.2039965763137532,3.6078630912027525 l-2.0335506033961153,2.4170416847140754 m10.503379772626966,-23.429377910294555 l2.6695190292009428,0.1805588903430271 14.492675185013974,-1.8670206275495131 l6.167277203141454,-0.18783482866065143 2.4064562997079935,0.2515917664226863 m-14.540754869439153,3.285933192033495 l-0.2896110612957506,1.1678197030002717 -1.2892987403632021,1.746713483614058 l-3.6357249939752716,3.398835957333476 -4.391671412684464,3.0421683953932974 l-1.0588531989843082,2.6173346468732 m7.173778882604328,-6.271268776892584 l1.284384966703576,3.379906616641495 0.9157348718997919,4.512322774253804 l0.5379110752427937,5.624404524395894 -0.6054548985163845,5.188041346668799 l-0.5251077419891075,1.464933230560841 -0.5082569630580952,0.5542738469155045 l-0.6059743175197497,0.04363544867229657 -0.6199013715161675,-0.3837489614462139 l-1.4597823001958223,-1.7577995938155218 m0.37492757472745886,-18.579286715794385 l-0.1776480235551841,0.8813422227539786 -0.47364246589686937,0.9227936712962518 l-2.5320249848467147,2.578990174946455 -3.367239234823106,2.409286979929379 l-4.299801644040595,2.1774638766051786 m13.162134335458552,-4.081901151526934 l0.021087992491427992,0.8497579001821306 -0.5645453022410198,0.9214640043153408 l-3.909280227765478,3.389105749330744 -4.839152061058186,2.8006982051860545 l-6.326317353581515,2.763462168340401 m26.997974648243144,-21.209708249563047 l-0.24020549104722488,1.0438209454137544 -1.5847746332489236,1.8178156086407078 l-2.2789037504278404,1.8723928617884813 -3.0118520557177395,1.84375010933465 m-2.155839900840719,1.2468623775300853 l12.19565802795816,10.968130802389165 2.13294555649495,1.9100828272987342 l1.9380153450808313,1.1721785583803401 " fill="none" stroke="black" stroke-width="1" /></svg>