<?xml version="1.0" encoding="utf-8" ?>
<svg baseProfile="full" height="118.74760817603412" version="1.1" width="104.23273744066407" xmlns="http://www.w3.org/2000/svg" xmlns:ev="http://www.w3.org/2001/xml-events" xmlns:xlink="http://www.w3.org/1999/xlink"><defs /><rect fill="white" height="118.74760817603412" width="104.23273744066407" x="0" y="0" /><path d="M25,25 m0.0,0.0 m13.232138517785677,12.682275640995128 l0.4527689803895417,0.1321413991643694 3.541684931093384,0.09882886137475691 l32.01983113018719,-1.2291358870235622 1.9012564970688894,0.2382502616777423 m-28.735666376955702,-5.537255027641412 l0.8979758844524908,0.7838078900108075 0.31462735789617435,0.6040392304449104 l0.5440057874159051,3.6811338505492555 0.5257886290429578,6.236632949445214 m13.953569544428865,-12.48728884441142 l0.5370376940109686,0.8484763484731628 0.03266901553023669,1.5418147243028495 l-2.2169996270333727,7.701556598799663 m5.834212170512682,0.14341394444384847 l-0.9757047223054702,1.3855308986655963 -3.369871295152086,1.4314297072308153 l-3.831490697600488,1.240768809992573 -8.225656210087955,1.9205065692869423 l-8.357043428646444,1.2822298794168974 m-6.404157758793119,4.128827494759985 l3.342843896865633,0.23663486653346388 29.00263154333791,-2.383614079579056 l4.860141683548333,-0.17996360122680607 2.3676052255813147,0.23208777097034103 m-33.28608417964494,6.25780849122156 l0.6374475220804213,1.274311612953894 0.6515215301233621,2.3959815054945564 l1.520064521145931,8.41865800731524 m-1.8071519878881015,-11.577422595937254 l25.169673829730748,-1.5417508043232167 0.9869978576921326,0.7059174329523168 l0.27847905181592014,1.3185665620795475 -2.5360143221369302,9.729152180420947 m-23.11174690225482,-5.199325554840066 l18.169324418600883,-1.124024169464981 m-17.398653032716364,6.38280135322854 l21.938023273519413,-1.1475088084260188 m-12.347783521298012,7.231171945530731 l8.084246340627356,0.02447731324392496 8.051397962354505,-0.5113983243682372 m-11.529188861162757,6.101023879082606 l0.3951553029005215,0.6849914313304722 0.19562582522943822,0.7238068569046748 l-0.06504068798195828,3.325674080217079 -0.3325129861467037,4.000970677205214 l-0.7262571846938838,5.759105776842717 -0.4767281352887107,0.632593662758881 l-0.5968934569250334,0.1488954079549211 -1.346910129676932,-0.5850370979864827 l-1.6510035035201955,-1.3060121146677595 m-7.6450442267009855,-13.147773045934915 l-0.05418448948499911,0.8359538577333498 -0.42523394698815004,0.8156275338786758 l-2.299949946405718,5.238604431786441 -1.629423680720145,2.6852844895276418 l-2.0741323168495835,2.420812748712007 m32.008942393982025,-10.96316026844316 l1.79586047370918,1.8105097431704065 2.084407891201415,2.8451941217152554 l1.5647878568200535,2.7871018748011505 0.7965205150421679,2.1755321667410774 " fill="none" stroke="black" stroke-width="1" /></svg>