<?xml version="1.0" encoding="utf-8" ?>
<svg baseProfile="full" height="119.07964789251446" version="1.1" width="105.39527246450433" xmlns="http://www.w3.org/2000/svg" xmlns:ev="http://www.w3.org/2001/xml-events" xmlns:xlink="http://www.w3.org/1999/xlink"><defs /><rect fill="white" height="119.07964789251446" width="105.39527246450433" x="0" y="0" /><path d="M25,25 m0.0,0.0 m18.052945543358668,11.53955814481127 l0.5074916516799313,0.12499394982932045 3.2306566285602223,0.1527900292598365 l27.118574266454914,-2.4782793441695308 3.6447656643019757,-0.13473372419445387 l2.84083871014861,0.35973494180848725 m-28.25420379572709,-5.633178451038239 l0.940692071361315,1.6242085799078314 1.4996687033893168,10.557673339926929 m14.616829690076633,-13.445308770253614 l0.30366979480623596,1.1284704486128727 -0.10173927370359813,1.163314811551836 l-2.466006019120239,9.807509724064282 m-16.376884679576502,5.764933136037329 l3.0147503239087268,1.0734409191780696 16.97702943350795,1.059720352003296 l1.2693033586181306,0.134044370776817 m-10.408420696549548,7.058465025379532 l0.42610757249080716,1.3763226785434253 0.06496542325580731,3.713701488059249 l-1.1074720881702478,18.623897419696178 -0.5992080204332249,0.7588064630535918 l-1.2118447242317765,0.08708276475120669 -2.1085710015687718,-1.942596928474998 m-6.1265742106409515,-18.76267063045512 l-0.009598713066612467,1.1157715213788528 -0.3790928786152624,1.3583973369262476 l-2.035906116086569,3.8001859105750473 -2.921563413944789,3.89154356683871 l-3.2308288271447596,3.3111712604110486 m30.319176973585535,-13.28205682386032 l2.2317700168147536,2.2929019121078444 2.363387143326762,3.467852751026804 l1.8326460982664607,3.2964197495753926 0.9517992686110907,2.7440736080653365 m-7.833095605899956,-4.872499063850819 l-0.08260492273699187,2.487163015182314 -1.329875895011236,3.1094809466217668 l-2.6771409626272438,4.956601839896328 -3.3866358206195866,4.825134353106857 l-3.311824320422479,3.763653798318752 -3.7928380920846916,3.5366269666388805 l-4.154095139428626,3.107657241234867 -3.9202627535357064,2.4576672636551615 " fill="none" stroke="black" stroke-width="1" /></svg>