<?xml version="1.0" encoding="utf-8" ?>
<svg baseProfile="full" height="114.08326822207958" version="1.1" width="102.9503761219787" xmlns="http://www.w3.org/2000/svg" xmlns:ev="http://www.w3.org/2001/xml-events" xmlns:xlink="http://www.w3.org/1999/xlink"><defs /><rect fill="white" height="114.08326822207958" width="102.9503761219787" x="0" y="0" /><path d="M25,28.67540783953505 m0.0,0.0 m13.293860398143606,3.5477604458339367 l0.479575858478751,0.1733029902247392 1.6549190970603391,0.12247368749654268 l25.852276125764728,-2.237062463710614 4.925309429240363,-0.20434484205542225 l2.567965374634434,0.27338748941224855 m-34.59273395950795,7.890607868752479 l0.7037436100117156,1.5730661674943907 1.9036080933836887,11.983245929324903 m-1.5296754763388747,-12.56162388880871 l27.27384543625984,-2.5361473049617436 2.885164466521093,-0.2921988511427647 l1.471587842007514,0.1326898993247544 0.9750554105862427,0.699511107670497 l0.13441105570291198,6.47369385928956 -1.2639365026805423,5.519656453799671 m-29.036813135170956,-22.45242575098609 l0.6328386902491221,0.665362159665758 0.43652325345397186,1.1879592084579966 l1.5863640126055183,17.85899843957823 m11.485554184749475,-21.493320444195415 l0.5674578236983928,0.6725837037466605 0.30499545831589964,1.5361567143202777 l-1.6243966590162688,18.223850623254002 m-20.61388036566797,-3.0021482517966116 l23.914814710788622,-2.091099521763007 m-21.903491955142638,7.4635860259522095 l27.265529324494054,-1.9948399960644077 m-25.77807455737025,6.52245415914381 l0.8110832188383706,1.576675498024378 -0.02193893057909599,16.925169545208814 m0.506180533860266,-18.344203855193467 l19.74514610599416,-1.8206937011826514 1.619226721170492,0.037914823500519605 l0.5977920766372605,0.618989184877605 -0.36944236715449347,17.585997235806865 m-20.93510977197234,-10.131247507639396 l13.714107591304954,-1.0976452272524224 m-13.747294660118913,6.966802086673042 l13.891378556454702,-0.9446560346987715 m-13.962693199906907,7.409320080345602 l21.732967326345143,-1.3995810759976675 m-17.042657636814976,4.132563794669277 l0.10935095936257856,0.5156506155276965 -0.3941511412643131,0.7427727524602618 l-1.2885911773313201,3.6453755521227547 -1.1558025749543854,2.3914547975814133 l-1.4687818172170386,2.0001579763485817 -1.8674582171566319,1.7412842670749098 l-2.4711527367751636,1.6674646970010556 -3.017503781235237,1.5045774546278892 l-2.8677260681226135,1.0285818054003464 m24.144550716946544,-16.032993679578592 l0.6271435695925444,1.8495860907966633 -0.04334553229720858,7.717175651937722 l0.3132259652953232,1.615967230873336 2.576256843936439,1.3985451775377093 l2.7594362195730726,0.299489988619633 6.442801466661365,0.06650548302519815 l4.5258247284269935,-0.27942952127333587 2.0820895033065994,-0.43934130139802896 l1.8997688207781827,-0.7155630689741301 1.0248982567294287,-0.8833897403399854 l0.40497480409118225,-1.1187627869401258 0.10342470431890446,-1.9284156303861324 " fill="none" stroke="black" stroke-width="1" /></svg>