<?xml version="1.0" encoding="utf-8" ?>
<svg baseProfile="full" height="98.44860097906397" version="1.1" width="100.18677797999776" xmlns="http://www.w3.org/2000/svg" xmlns:ev="http://www.w3.org/2001/xml-events" xmlns:xlink="http://www.w3.org/1999/xlink"><defs /><rect fill="white" height="98.44860097906397" width="100.18677797999776" x="0" y="0" /><path d="M25,25 m0.0,0.0 m11.3900255846354,13.639851230363238 l0.48885095414254903,0.12392981444434134 1.9582439994148741,0.08943016201081833 l28.789518026748954,-2.0952769910158966 4.823181021898322,-0.1720775850242014 l2.736958393157658,0.24214221279496898 m-30.13849522438491,-3.7568946252426643 l1.0807307825356678,1.2351404149317364 1.658798268150788,8.271138790101237 m15.90499678306703,-11.036188175027581 l0.29484404323501207,1.4091446587204304 -2.5421768668891622,9.183447272117105 m-18.42221486207887,-0.17693132020918212 l3.02538806531582,1.3573179701300633 1.6366538911221775,1.1446168645596033 m-9.717907519561324,3.647194736064042 l3.33095306394664,1.3587284652677785 1.767972211568341,1.1971719097248543 m-6.903680831903099,-4.759445978287826 l2.5779660407051272,1.2192835607679304 1.6272344355128494,1.4475097477809258 m-5.2568391113617405,7.597077915865831 l0.955843526159117,0.21424001130993786 0.91159479088955,-0.2914991204019103 l7.520780393328506,-2.384487655164423 m8.216938986942836,-9.432841740272364 l2.225308078577378,0.1584268559558117 12.895692935851901,-1.3125159994050142 l2.722012134269354,-0.06814427476185204 1.3441192181457509,0.16942611009636616 m-11.28808356161698,-4.0250653333475475 l0.6592565844522452,0.9967897631853064 -0.0014097338849256458,8.633253012211208 l0.0515653588269586,2.226783778776038 -0.15743060529191752,0.7542490160028656 l-0.3591515824073097,0.18270287732191545 -1.3901953732312127,-1.0767621284796915 m-5.790543557850702,-4.820271251985327 l-0.20440796094127994,0.9543401661476798 -0.8818958598133653,1.1199896454242415 l-1.682801213287092,1.9983526373114482 -1.7729685553993395,1.540581296060321 m13.460339875272643,-6.173561349462946 l2.2152273282440773,0.6291076573870011 2.3387730404729954,1.0917876811626837 l1.9146428785597864,1.2451080421529899 1.1995626953528526,1.055830063504641 m-32.30242066524399,2.6816967227758703 l0.7258586619800544,0.8789004021481415 0.17128143331774864,0.8416444019675292 l-0.09884763924632026,13.431562050066796 -0.38287662828694563,5.403673653112973 m0.888309653535844,-19.057824854734335 l22.527495928329987,-1.8103911719359558 0.7273868060000906,0.018401601217057355 l1.132195730215043,0.46213867476158776 0.5356329832927059,0.828710505901456 l0.11380515274206045,17.66668061780412 -0.17283864978432645,1.658139926406185 l-0.42900854134821703,0.7509337502231136 -0.6007396792220512,0.1422038877824977 l-0.7088184306358593,-0.2632380443532737 -2.1776842963726692,-1.580603808038152 m-20.52889888977066,-12.954505254073567 l16.257687810636654,-1.245124397567431 m-16.323137456821883,6.653937969849772 l16.33274523941199,-1.1096849496867427 m-6.060580497054079,-9.770951869651789 l0.5501745675815044,0.5607595872872323 0.1665698899355055,0.7040390835681879 l-0.10147094736516392,16.987513485621133 " fill="none" stroke="black" stroke-width="1" /></svg>