<?xml version="1.0" encoding="utf-8" ?>
<svg baseProfile="full" height="97.4196630634886" version="1.1" width="104.61530084659321" xmlns="http://www.w3.org/2000/svg" xmlns:ev="http://www.w3.org/2001/xml-events" xmlns:xlink="http://www.w3.org/1999/xlink"><defs /><rect fill="white" height="97.4196630634886" width="104.61530084659321" x="0" y="0" /><path d="M25,25 m0.0,0.0 m15.898534185834974,13.657345277666874 l0.42252657284966666,0.12575365733953586 2.5670350413583636,0.07071601455310224 l24.461463184829277,-2.2304178003157835 3.9038666069827044,-0.12451180984398892 l2.1434474402706503,0.21890134028725458 m-26.651430326280902,-3.130232402561675 l1.0170801578043016,1.0887182410169682 1.3762854152852382,7.698565934647805 m13.64739729814855,-10.745639042910657 l0.33345748352126225,0.6960803687522138 0.03768346038748304,0.8319359918222653 l-2.4126674927018437,8.07163218699103 m-16.067221577613058,4.544322726052757 l2.554304430916355,0.10814759377357869 12.699165852691513,-1.4773376894288117 l2.0396352531279396,0.04744917505412609 m-8.044644952047687,-3.980362859337686 l0.5880297200246557,0.7877327295330446 0.13215802548866035,0.6833419537941361 l0.10498398916923894,9.168827926227268 m-19.999514914131947,1.6120125024395773 l3.203549787418849,0.2919484979545495 35.64149657599587,-3.5549845336264805 l2.765495294387764,-0.07688919420496985 2.2531843328753296,0.27774077964540167 m-9.040854623316305,-10.289916610542573 l-0.003259739678243629,1.7621544728057128 -2.6589150434058717,3.420159974957465 l-5.052736394709001,5.201638491482871 -4.878438311423353,4.002786114700573 l-4.508813230932544,3.0263397860117025 -5.012874897592607,2.775532369613436 l-5.564628196700805,2.536437767800063 -6.260018539390131,2.207266434792375 m15.103702932317368,-6.974977375471678 l0.4750791654435752,1.3282920787131172 -0.14433676132293097,13.7631519933041 m0.5019177338582862,-14.807538561189304 l16.232507081107183,-1.5546576207403817 1.1866025170095849,0.37159014347002073 l0.3940201155350607,0.6740781490668186 -0.019030794783844035,14.768522328437289 m-17.659333972113707,-7.7533052784111165 l11.209253418021063,-0.6636382769872547 m-11.143498962794679,7.7734577169865275 l16.824834484094257,-0.7433739701753811 " fill="none" stroke="black" stroke-width="1" /></svg>