<?xml version="1.0" encoding="utf-8" ?>
<svg baseProfile="full" height="104.76425061815803" version="1.1" width="100.65756609902633" xmlns="http://www.w3.org/2000/svg" xmlns:ev="http://www.w3.org/2001/xml-events" xmlns:xlink="http://www.w3.org/1999/xlink"><defs /><rect fill="white" height="104.76425061815803" width="100.65756609902633" x="0" y="0" /><path d="M25,25 m0.0,0.0 m8.792977442302767,16.030131882694374 l0.391269384005187,0.11962621566543093 1.4328834781772044,0.052484793873973215 l8.448504410687825,-2.0080998048061947 0.7830094718915,0.0561919149012024 l0.41039282667465693,0.36207787580776035 0.16361185356307514,0.504897315300008 l-0.15583010795002092,0.6968886179245007 -5.268971610861867,8.241692719833564 m-0.01215001245153619,0.39651575705616116 l1.9215165245195378,1.442105090739127 1.3521979561450648,1.9378650540789555 l1.1477090645869397,2.8773089037554556 0.3370685666250006,2.6723508850837177 l-0.37280013913685517,2.5405074916898895 -0.9383007421831736,1.690715473982824 l-0.746187398062986,0.5578393239552365 -0.9025868454253705,0.2478399504353396 l-1.631440954849594,-0.11997301032087186 m-5.839285042661189,-21.800785174052173 l0.4629263485620881,0.8763633958253926 0.14927787503530437,1.0465845822483744 l-0.055144169695867384,34.016829359375784 m16.165252969494574,-34.433710239750766 l2.097697325885964,0.19447991626790093 15.108633709888824,-1.606451949723076 l2.3083305061131303,0.15707722480612266 m-11.434780877254562,7.458734870695879 l0.00025154702304175424,1.1839392741853059 -0.6739557440482167,1.677043166995199 l-4.748654562361545,7.755750105029008 -3.0571138019698005,3.6299967479835407 m6.75439614537818,-6.991551192120094 l1.661239780733745,-0.16008125535622783 8.089417305440673,-1.402177445290727 l1.5318770763529612,0.160459224997289 m-16.642332545149493,11.314387989003448 l2.105544054193593,0.18483941969528866 14.333214445246018,-1.7624715828752076 l3.557066090850074,-0.18222200250606801 1.7467615885188816,0.19466673138003107 m-11.847134022763825,-8.110346054080567 l0.47555906526848946,0.9241498069079485 0.13521427321650395,0.983940604003657 l-0.033172506988213675,19.79560623619161 m-12.44634514613475,1.2364587790354202 l3.061528804714953,0.12377362763527384 9.580091398121345,-1.1726335993910315 l9.10002688670464,-0.6854019552319857 2.0809513872304453,0.0431874706968877 l1.7773527658230026,0.31736141051096545 " fill="none" stroke="black" stroke-width="1" /></svg>