<?xml version="1.0" encoding="utf-8" ?>
<svg baseProfile="full" height="119.53849099509651" version="1.1" width="111.22375909142013" xmlns="http://www.w3.org/2000/svg" xmlns:ev="http://www.w3.org/2001/xml-events" xmlns:xlink="http://www.w3.org/1999/xlink"><defs /><rect fill="white" height="119.53849099509651" width="111.22375909142013" x="0" y="0" /><path d="M25,25 m0.0,0.0 m21.103285888106143,15.242648060145575 l0.503212997289958,0.1217074181277307 3.2840333068360987,0.06428436120802954 l25.166691443612603,-2.153132120406084 3.6285128771055586,-0.07156115444625091 l2.681162645955216,0.2941866849875499 m-27.04573284193362,-4.759346597954515 l0.7384950141651003,1.4771729081541911 1.4383007648862207,9.317275193718663 m14.545199199965905,-11.668262780016384 l0.18028988877060212,1.033010476673019 -0.1412036401316104,1.0518278620104797 l-2.5476307466098573,8.424032778102616 m-15.96147961315376,9.366251917445286 l2.921327767893765,0.17640322691013657 11.946974379790715,-1.6950589268735163 l2.424072321589193,0.08026742358439902 m-7.64287842926912,-6.093968928942069 l0.5293022021445429,0.7866730913535939 0.22074687206778015,1.1158575156933694 l0.04793350928976765,12.761901000153811 m-19.334749285416958,2.0611122675306257 l4.031616032246734,0.2148270375149593 33.00835086308566,-3.671456776604076 l2.858275922481969,-0.04811945089872578 2.639649750651519,0.3157202327837239 m-7.885731822747621,-11.818089866792945 l-0.23563330190403353,2.0085715332799654 -2.729718110380466,3.699044779541607 l-5.224804318115518,6.0865824893318585 -4.998823745083835,4.790639657445566 l-4.376675680545407,6.951415398578331 -8.018088741521021,12.33007204367722 l-4.038549242103716,5.474884530178346 m24.982021334576565,-12.571323185243665 l-0.3588092393044702,0.9704457840967607 -0.6204958816559273,0.790632413619218 l-3.1984462943419856,2.061790094542208 -5.145758518638575,2.597105649891909 l-5.34041019121344,2.0944087951978823 m-2.490382799114183,-6.957631596215255 l0.464618773092716,0.862610465661104 0.19387412644770474,1.046439755863614 l0.08088951119390946,11.702632916903339 0.5383003416025233,1.6913767263736479 l1.1579185852707032,1.0424361223882803 2.0693917055691555,0.6480488944718945 l3.1759569388232958,0.29214487234948244 5.906851135415465,-0.013718153770193389 l3.787732948181465,-0.4800856421840905 1.514101906444261,-0.6418992861448631 l1.1745982361361884,-1.0002035871760921 0.6138195767651167,-1.3470493976096964 l0.1882547667010507,-2.132062244805088 " fill="none" stroke="black" stroke-width="1" /></svg>