<?xml version="1.0" encoding="utf-8" ?>
<svg baseProfile="full" height="121.02393675337618" version="1.1" width="98.69176627279825" xmlns="http://www.w3.org/2000/svg" xmlns:ev="http://www.w3.org/2001/xml-events" xmlns:xlink="http://www.w3.org/1999/xlink"><defs /><rect fill="white" height="121.02393675337618" width="98.69176627279825" x="0" y="0" /><path d="M25,25 m0.0,0.0 m8.826642413847043,13.059585705344388 l0.5625126278564855,0.14605169678467642 3.65258408843981,0.10732671105483385 l13.686830988832375,-1.4212288997232374 14.91776754540987,-1.0902549527402166 l4.168613678493324,-0.062403771243327716 2.8768149299193384,0.2975144840746148 m-30.849868647639198,-4.349261173328739 l0.8171088589530597,1.7378153973265198 1.6089246452179657,9.131657816532899 m16.66668485523819,-12.27272807850222 l0.2397268794771181,1.63074353806896 -2.248252594078973,10.203028078048648 m-7.787599583278404,-0.026942507940443793 l-0.19128748601607867,1.3702385391570229 -0.49883124813224944,1.0600860711344482 l-1.858811048096243,2.429655811627297 -2.4363154865913006,2.48598266194625 m-9.991288664550401,1.6973498019097126 l0.7377093867319086,1.0808269886073891 0.3937176073008436,1.1278318733598691 l2.657331164806438,16.43447445988018 m-2.353486969109025,-17.942323846723486 l26.56441430056624,-2.905119440174061 3.578484426401015,-0.03329977252131981 l0.9748228308012238,0.8509522615052835 0.2024502695770198,1.481037538529772 l-3.1320382510680878,14.905580940257591 m-14.004707931778263,-14.689741160661574 l0.5974487959574463,1.0293595868010066 0.07967986260746548,1.0325700002542721 m-10.20510890440096,0.7614843123606116 l17.420794000847234,-1.399320920608596 -12.61147462759984,0.0929918265546429 m-4.3910734288043045,1.824930571217982 m0.18122007544878171,1.22444547616469 l0.37187124744270966,0.9447746400679797 -0.03608933253406478,3.6850461511549417 m-15.799430658689353,1.5013864859257766 l2.0131380711158493,0.21349734613508853 2.8338229217270636,-0.061179972945467426 l29.422630548382717,-2.573354040474894 3.0407143037976163,0.3330204670097687 m-19.0868714796959,-8.70777773426886 l0.6412244639310433,0.9242668388054257 0.23645692297976648,1.1667098776323352 l-0.0016301187508842416,22.756270351322563 m-2.105594431334368,-15.016486149688108 l-0.42188979198116133,2.396695370804304 -1.0871803555274466,2.205211342581342 l-1.7744145868581453,4.8966871223452495 -1.8080791077600658,3.7228486928948636 l-1.8116420314865085,2.7339758592891603 -1.7179420139083394,1.9009900246940785 l-2.5264839529922476,2.1390108324489225 -2.3702366873974796,1.4904308073350654 m15.961308951612034,-17.16548299257565 l12.602355683855404,5.402462053215554 8.851629100317226,2.2333606767966288 l3.2188026380429817,0.6348760353781159 m-36.05281155898874,7.725755545199566 l1.5641199311483782,0.30250097101250456 1.903546084061534,0.0016811375956562952 l21.18690374167779,-2.2293474466661243 4.64480023783236,-0.13739665476703272 l2.472149056489527,0.31262906145387215 m-16.837432158150506,-6.85887538464477 l0.6175725368001606,1.0208717509048242 0.21159276949273323,1.119398806471803 l-0.14924138200713932,20.99858125659536 " fill="none" stroke="black" stroke-width="1" /></svg>