<?xml version="1.0" encoding="utf-8" ?>
<svg baseProfile="full" height="104.3818281353247" version="1.1" width="108.05433519587436" xmlns="http://www.w3.org/2000/svg" xmlns:ev="http://www.w3.org/2001/xml-events" xmlns:xlink="http://www.w3.org/1999/xlink"><defs /><rect fill="white" height="104.3818281353247" width="108.05433519587436" x="0" y="0" /><path d="M25,25 m0.0,0.0 m15.826394394487961,14.6535122724629 l0.44818279603562355,0.1397038931455246 2.6137253379734573,0.09706446217963476 l25.86174435839589,-2.8305483217895637 4.3061548881590275,-0.15503501203464978 l2.2110900386043166,0.2571078146488292 m-27.63509132313482,-3.4857451851490775 l1.0932592545184994,1.3121616620602585 1.6298855681100617,8.700281643668404 m14.524444528398803,-12.28506593813463 l0.3368686119995297,0.8137066674169624 0.009445064087926522,0.9316728310307022 l-2.7975006701882865,9.554082327038651 m-16.050589693347714,5.656034660028798 l2.6908418023227134,0.15039890288590763 12.284700640480711,-1.5929827745179916 l2.103036948121698,0.05749276840462698 m-7.956932540342462,-4.75605816042328 l0.6394874761294819,0.8888326258232628 0.1666973010715086,0.8109804392445957 l0.09982227886841794,10.922782508838745 m-21.15039798885326,1.999321667620472 l3.410345545946406,0.33861312598205645 38.0279172471572,-4.180371138628728 l2.957696567777779,-0.0944923509843106 2.403106763093891,0.32253548531185017 m-9.574762578579842,-12.029595012213456 l-0.006146085490777192,2.107836680347714 -2.787386752521274,3.863658164104725 l-5.465332424269845,5.953824884125374 -5.375335180621976,4.6794996718553685 l-4.913129232122516,3.50995986300327 -5.425036366112366,3.1966988512351966 l-6.012748190900399,2.9089730910925495 -6.659208802747221,2.5737102651249493 m16.179485857898232,-8.634010348951175 l0.501822980804195,1.6110300984195047 -0.1640260062714931,16.414255051050727 m0.5986034235007128,-17.65116323996879 l17.286750707589604,-1.7838515430442439 1.2533853563272248,0.40908290164709105 l0.4235022062667582,0.7656543755448538 -0.02015766465580382,17.288013359929487 m-18.73419319132473,-9.032589849639518 l11.850560602577254,-0.6908127194245439 m-11.784220802658526,9.072895993434665 l17.824208145749747,-0.8491514917654597 " fill="none" stroke="black" stroke-width="1" /></svg>