<?xml version="1.0" encoding="utf-8" ?>
<svg baseProfile="full" height="111.76730097791531" version="1.1" width="103.7347865075612" xmlns="http://www.w3.org/2000/svg" xmlns:ev="http://www.w3.org/2001/xml-events" xmlns:xlink="http://www.w3.org/1999/xlink"><defs /><rect fill="white" height="111.76730097791531" width="103.7347865075612" x="0" y="0" /><path d="M27.41821318983104,25 m0.0,0.0 m15.27009246054741,12.28336183652279 l0.45133630723942597,0.1249110582375838 3.0279753877493545,0.1841978519521791 l12.602721148566461,-1.0919726500501998 13.780839541036054,-0.7784927370094604 l3.3624211624677596,0.043026494499578516 2.821187310123699,0.35884932774325334 m-27.09130067708946,-4.443766440528905 l0.7715066301493896,1.5369739828426627 1.238649612146786,8.366544975127441 m14.323212120101237,-10.819733195516474 l0.23438813002012732,0.8271979374820041 -0.05954207354600699,0.8851526935691147 l-1.7136681829539924,7.931886816903599 m-16.682847538116974,4.573892363689945 l2.7213852329958153,0.398918793527592 14.146815697452814,-1.5786368553858028 l2.290445553718555,0.4870917197985575 0.05194308283474018,0.4380334323047937 l-0.41577833543904025,0.615096552952458 -2.259330649334517,4.557855046967465 l-1.635223005297566,2.465587595120532 m-18.956662931898382,-3.2820389396457093 l2.4272343901942435,0.7512890256654128 2.9801622989633523,1.200075245795721 l2.061888936724076,1.1785113054472576 0.9468072905629432,0.8971320506347175 m-9.0780213909763,3.2121973554857655 l1.1835927175412784,1.0470082590272933 1.324764764464974,1.3848050991151999 l0.8426623709289384,1.269653539324881 0.5232510410518207,1.1037528791452795 m-17.043467361067,-6.878398456908422 l0.5594598309081633,0.7360661012068029 0.21975201852473197,0.8681494980662955 l-0.08838586002938863,5.2414848139399615 -0.449836921835547,5.553380681668805 l-0.849106775144329,4.570699813292536 -1.0946832533134376,3.6816959537427394 l-1.460043880991713,3.0990628913960165 -1.9456402454372592,2.862067996633429 l-1.759169144374264,1.980942520818335 m34.78620276248362,-15.190552806897607 l-0.4324281752032837,0.6426097380161807 -0.6373986539238309,0.7489514180712112 l-3.3719832615474297,2.605467143410772 m-9.75581661978078,-4.65481886753168 l0.502049179073525,0.583001267163343 0.1546369437649356,1.4517173210054197 l-0.011927020062730923,10.223612944795057 m-8.06955732794456,-11.08962364728582 l0.4228679627452926,0.35292360286593233 0.2746989978645314,0.8326042712527577 l0.036215592810276455,12.97997427022266 0.2852270674724043,2.15653924766018 l0.7550292833656503,1.0399179729681403 1.816858093651894,0.6760300528676907 l3.939495203615614,0.46151966072746803 6.9539151652677464,0.10391315400057784 l4.455039075209728,-0.3153402856137684 1.5912502852028734,-0.4439809029088327 l1.1934833349939307,-0.7925256742762565 0.631636878830932,-1.0708875453153428 l0.25234004793952675,-1.7928220098497576 " fill="none" stroke="black" stroke-width="1" /></svg>