<?xml version="1.0" encoding="utf-8" ?>
<svg baseProfile="full" height="107.12168450796906" version="1.1" width="111.23793887335545" xmlns="http://www.w3.org/2000/svg" xmlns:ev="http://www.w3.org/2001/xml-events" xmlns:xlink="http://www.w3.org/1999/xlink"><defs /><rect fill="white" height="107.12168450796906" width="111.23793887335545" x="0" y="0" /><path d="M25,25 m0.0,0.0 m6.4216951851806625,14.71201067500741 l0.41760680530213456,0.14496835981997638 1.6388436608765091,0.10318692806238436 l8.873133845891125,-2.234450206407604 0.9143684499087626,0.04763824676923354 l0.47807028882292824,0.3521464753869297 0.16276432826913517,0.6015984818131547 l-0.21854679130934032,0.7835929362445907 -5.855175170674382,8.51134287536363 m-0.04692702583873107,0.4383799746327291 l1.951747391598807,1.5998160038684444 1.8868134334993696,2.1430114577785275 l1.5269466804171474,2.2598091064870456 0.9906651914243714,2.791880122974347 l0.10497892223748344,2.858433906664634 -0.8431950886194431,2.245187801556289 l-0.7346922085366394,0.741995982574202 -0.9339160348614451,0.4303859200111046 l-1.1044290720285792,0.07345143595659218 -2.107025839805319,-0.6342316323427125 m-6.4380690970921215,-22.542032315609976 l0.5808773744338719,0.8585345622251145 0.18594368785750834,1.067809950648293 l-0.05365723401117754,37.12939477451918 m19.59132346830621,-42.34274241044877 l2.6697586292638067,2.8163297126202194 1.3431698657137328,2.491735024831625 m17.656169915297703,-6.641286901762854 l-0.2696111233663246,1.172312143544851 -1.0522572855399295,1.4687617665059498 l-4.063923391959649,4.014951269441618 m-19.932384922482523,3.6685738858729775 l3.1228102914689884,0.20365936594817663 20.08278513523609,-2.1976656874396174 l2.9522158543146935,-0.2025727213717513 2.447466472513687,0.12378544234626693 m-14.732939807627938,-9.698809218470286 l0.6027459902269648,0.7841896299732817 0.15458937713946838,0.8383928442750733 l0.011822998306748088,20.31279515281599 m-2.3168311879052252,-10.740303647454258 l-0.3888857042498743,0.8550323492905677 -1.4709737088827504,1.7085820845532822 l-3.771604256959216,3.505064717499337 -4.017901524548733,2.8365663080286865 l-3.664950142627208,1.646973735795962 m16.80026660541704,-10.404364020107844 l13.359749511344747,7.683167599633309 3.9038767888736525,1.7416310969634536 m-28.540213103491272,2.1234630967533517 l-0.10530499345813883,0.8584663235488506 -0.5673735676514735,1.098229645462807 l-2.4579424447167257,3.597925829792568 -2.443665193329781,2.7097873545319353 l-3.2981250477308612,2.8250894833165927 m9.519691153286873,-7.872058671325672 l2.890000995052593,0.016727286582498384 4.002813781427692,-0.8091388076532271 l0.5759712995436431,0.22338024635018314 0.25783489318276637,0.5241755469314018 l-0.16211399111797595,0.8323722324219349 -0.9382996881185542,2.4194155144642426 l-2.930361781114942,4.908140310414025 -4.102398763980314,4.866966670527272 l-4.608818198319187,4.00042682759683 -4.14033481256659,2.514309538638362 m5.8169699692763706,-13.067120711366009 l2.2879592165874385,1.7264597193893194 1.5435026302028956,2.0103936484817986 m11.276071892875295,-7.047974295744603 l2.1728934558634507,0.06635663821315495 11.054315415446,-1.2414430553363962 l2.2747501756681454,0.03209582180203002 m-13.917314462314051,1.9325283983786556 l0.4861451280443394,1.0936424014334358 -0.012979124050241013,5.869345251293003 m-6.155538236740454,0.7376573549095115 l2.9299984802639902,0.1407503440018177 18.39416293633373,-1.6764056875214701 l3.3203313287839618,0.15532610855596102 m-11.190958473959089,-13.29832390810765 l0.37982292453630173,0.4504233379351294 0.21798715993188697,1.0065460566180244 l-0.03193294098486955,23.265127309790618 " fill="none" stroke="black" stroke-width="1" /></svg>