<?xml version="1.0" encoding="utf-8" ?>
<svg baseProfile="full" height="99.71768763546021" version="1.1" width="104.85210812950855" xmlns="http://www.w3.org/2000/svg" xmlns:ev="http://www.w3.org/2001/xml-events" xmlns:xlink="http://www.w3.org/1999/xlink"><defs /><rect fill="white" height="99.71768763546021" width="104.85210812950855" x="0" y="0" /><path d="M25,25 m0.0,0.0 m8.832553718857763,8.58242019277471 l0.4658920155971355,0.15498939650231225 2.748959030285764,0.09553462826845584 l27.602434855846653,-2.2403344816300375 5.459211876112724,-0.13951099985496734 l2.6343820646208242,0.30485731703076 m-29.42481698934581,-4.370876418111235 l1.0276611277251226,1.2763690682329227 1.3124269101861692,8.949962291519945 m14.573860843674833,-11.572755649453779 l0.5823113815292594,0.9024514412287328 0.09691522695165963,1.0973854627425528 l-1.5439315008228283,8.610330256416594 m-8.20229496734742,-0.55291928870768 l-0.05695927023202523,0.6756518756547162 -0.49317232139108075,0.6698744534510028 l-2.5401037163038143,2.1786299451079576 -3.1853984588015747,1.8995605452001334 l-3.5783072180755116,1.485925437054808 m20.878277606505147,3.917768403196764 l0.0013071973711647636,0.07240129417600247 -0.3322744849826809,0.36808451835061223 l-4.4647162051738,2.7792579362677103 -5.802172586308874,2.337174410958023 l-6.316080383012761,1.841135085131575 m-0.45295888951202123,-3.554268119809643 l0.5030392539030585,0.7181544614595512 0.24474911723791198,1.4790737185545013 l1.3210210782145966,11.641209223523687 m17.26908449486928,-7.873971591374833 l1.890169305928943,0.1775499444093855 2.263129605703528,-1.5726705091029538 m-10.279360806161995,-3.7788923902461136 l0.4184839455007815,0.574955279600509 0.21867487568905317,1.1213587029479686 l-0.02907082406499175,13.782005346874367 m-15.854853466021131,-11.848002924922346 l0.5218515473154871,0.3289982557636183 0.4007846476781664,0.9399599069108451 l-0.12679715282424306,10.399060424545654 -0.3649414227032043,6.024627636367118 l0.15916698489181674,0.8380059462954749 0.4397648268931318,0.5971663043789358 l24.532497751326353,0.2741162400990785 3.338468669867743,0.12588465767680268 m-37.82301333683254,-21.77710908470481 l1.8587629200670555,0.4999733845239168 1.0221068539867972,-1.4603730804003046 l6.933892740549499,-1.6179367209450228 1.4371533527250069,0.42684025659538255 l-0.2806783604763203,0.6630067816524772 -6.0128534525021635,10.753157517471879 m-0.032462826885757044,0.17152254494097594 l7.13671707323956,-1.8324550499197128 2.151662950190475,0.0324190211650595 l0.3844976779628161,0.8733447207472367 -0.6453949756919806,0.8986390490400553 l-5.451882300647874,4.92692709454993 -4.801558932058972,3.1702141795785255 l-5.231028219006777,2.639104737701794 -2.682727556023335,0.9382730557317581 m2.959492282785227,-11.638669649139759 l1.5669921490223697,0.33213616533609686 2.6862121169006796,0.925896558308447 l22.889493345776096,6.819721371796796 8.253192998188974,2.053924462011015 l6.708211113864212,0.9060898296357636 5.136451217177214,0.5321222893453567 " fill="none" stroke="black" stroke-width="1" /></svg>