<?xml version="1.0" encoding="utf-8" ?>
<svg baseProfile="full" height="99.92199408727728" version="1.1" width="104.86689821809661" xmlns="http://www.w3.org/2000/svg" xmlns:ev="http://www.w3.org/2001/xml-events" xmlns:xlink="http://www.w3.org/1999/xlink"><defs /><rect fill="white" height="99.92199408727728" width="104.86689821809661" x="0" y="0" /><path d="M25,25 m0.0,0.0 m15.358201885102734,11.081806342053053 l0.4269490789121972,0.1561323350866282 3.025395136837526,0.13099327299302346 l25.98661311799405,-2.084535755482967 3.762025317408902,-0.11771556039847024 l2.405705789943656,0.2803950947773058 m-27.510252606848066,-4.737978575893494 l0.838051610178778,0.8140110912450125 0.34140344458381666,0.6459543302390075 l0.9366591196559501,9.658299366720883 0.1349158126895738,4.079607987490238 m12.208401232437557,-14.791647667648883 l0.2675161323587605,1.6095648501329363 -1.7184545523041923,12.185902722795122 m-24.343434980725814,8.328756320204684 l2.8308550281238607,0.3201340116399366 25.78787384726843,-1.5542766820745082 l4.6288430488372185,-0.09234647214528402 2.3805504369222867,0.21519265358739953 m-19.016180503271254,2.3604258127700337 l-0.029584476408091857,1.5999452695326124 -0.9894831022599172,5.088635426163455 l-2.74743532518862,5.625573046394383 -1.8967689699664987,2.5608723097814194 l-2.5135037365404234,2.5608055011215423 -3.053620069715935,2.4042513248570394 l-2.6451316773698386,1.5932357313351664 m20.291785091357763,-21.194548038677134 l0.4275197985744373,1.280710216879946 0.17052977109343587,1.1276974076635216 l0.4796217802615805,12.986053686756213 0.5389573775607017,1.1510459009791256 l0.9100991163835339,0.8711848154329499 2.1000514162165653,0.6768493922950025 l3.1843634742774505,0.21935689371890058 5.27082538657292,-0.11629777680579628 l4.070693564236258,-0.5004003053944237 1.2265554286393636,-0.5197908502749587 l0.8456662106554559,-0.7863067000000564 0.37445944098552664,-1.0530522253616668 l0.1196603226249841,-2.0626645979807114 m-12.783221006837001,-8.311441047642335 l1.7905948757621617,1.3110355480114477 1.735789729812426,1.8541909999160635 l1.4059286526696304,1.9155681000791538 0.5911468049273667,1.5205023373829232 " fill="none" stroke="black" stroke-width="1" /></svg>