<?xml version="1.0" encoding="utf-8" ?>
<svg baseProfile="full" height="96.69186137096553" version="1.1" width="98.29459321496817" xmlns="http://www.w3.org/2000/svg" xmlns:ev="http://www.w3.org/2001/xml-events" xmlns:xlink="http://www.w3.org/1999/xlink"><defs /><rect fill="white" height="96.69186137096553" width="98.29459321496817" x="0" y="0" /><path d="M25,25 m0.0,0.0 m14.649130795915829,14.415038639559956 l0.4282824419359427,0.1389013712755377 2.908085747934971,0.131825091101824 l23.997163283503397,-1.9384404140236566 3.8594844981254055,-0.1241838887479248 l2.452446447552624,0.21438293075632278 m-26.27230377985865,-5.043052060137222 l1.0011219770296969,1.2002337989164853 1.6285244613134808,9.275780104992904 m13.127422949387201,-12.133150003636707 l0.12337222503495889,1.5303242901107077 -1.9349043975360238,10.189990745246865 m-18.329572730313014,4.967116361746221 l3.191165080465339,0.1591998338299669 17.72164120431159,-1.8988733919744971 l1.6036109178788631,-0.02404230602963492 m-28.539068745523622,-4.15935343043873 l0.501043974062494,1.1067271773675402 0.020792481799280404,10.65262836156869 l0.46526964411187266,4.519785669366255 1.1024389809639616,0.3180677137332689 l17.9624499730976,-0.8563946334896292 3.9734322483173212,-0.3057285017062842 l3.353213131154772,-0.40481591824411856 m-25.537378647098993,7.440367478166381 l1.703023270435624,0.22250365978308145 13.929841834902806,-1.4500983185460254 l2.569565527738267,0.2047022544421672 m-9.952738302266235,8.342418755975787 l3.364307971551289,-0.39067698608847745 5.622525801556872,-0.9716074789867174 l1.9615276150750693,0.10506527120127601 m-17.518608395612898,-11.478074486015343 l1.6083259109016392,0.5144191662728234 11.951865842096618,-1.60063083692623 l2.468289527948698,-0.13117995194202461 0.4660558816100527,0.3385722785478524 l0.2671130137078233,0.6016487081937479 -1.4212725711890242,7.268291539283973 m-17.824824887575474,1.919665868298393 l1.0410818856186814,0.30473746102360905 1.5686924106258004,0.043084254970657626 l16.42947181584263,-1.9535882459811889 5.3460307900891255,-0.24556141452181596 l3.0874384186964634,0.15221287221570245 " fill="none" stroke="black" stroke-width="1" /></svg>