<?xml version="1.0" encoding="utf-8" ?>
<svg baseProfile="full" height="122.41488191475203" version="1.1" width="104.05575005679401" xmlns="http://www.w3.org/2000/svg" xmlns:ev="http://www.w3.org/2001/xml-events" xmlns:xlink="http://www.w3.org/1999/xlink"><defs /><rect fill="white" height="122.41488191475203" width="104.05575005679401" x="0" y="0" /><path d="M25,25 m0.0,0.0 m13.345070463202301,12.61749185412926 l0.5672679725407521,0.14750781553116468 2.791524659695404,0.13632963740814152 l16.028188713511668,-1.9432113930975417 2.6345107521940574,0.1101674931713105 m-11.588330488638011,9.425567183710335 l-0.18695172795793857,2.6003958963168374 -2.6744174163459333,5.236761308905235 l-2.888224279376,4.292013607656127 -4.2676917690864595,5.608587146647471 m9.230543390742808,-10.195906700685812 l1.8771169067705051,-0.10289152729109634 5.79399111982414,-1.457496383190269 l1.04884335127665,0.8220358233548347 -0.13497020410275734,0.8560485966204696 l-1.7571536356169117,3.373001055220968 -4.2504719129745805,7.013658506417278 l-2.9437788082216065,6.957448122341067 -3.636533898304666,7.992140834117298 l-2.0487878395056276,7.2148321065601655 -2.9514777868317523,7.1000186873084825 l-2.1662406415321915,4.6103822436003 m3.5157979265371475,-32.072966626522614 l1.677126966518851,1.8465895888911934 1.6516129819543586,2.5312203000615496 l1.3838428312793687,2.7605455050422236 0.5392290803793184,1.7847201039547114 m12.891113864006194,-42.0130785617095 l0.6621031529930823,1.2339507884082794 0.545029338209931,2.421529851054757 l1.388750682806035,10.57185318979392 m-1.473239185410835,-13.121305775245943 l13.857913790518097,-2.404902089002254 3.828459271626794,-0.4774969293602964 l0.6629096394200185,0.20817785900284133 0.47902413916949926,1.3190594069188657 l-1.9768910969641147,10.220278092825984 m-15.119255023075251,2.3214548916995787 l16.197482907327895,-1.7366520014400428 m-18.574912473001024,9.471127636473028 l0.7163631443282342,1.2013809281397376 0.252317129879603,1.3618952403193776 l0.058221803800174894,31.55614024371497 m0.35952038067752473,-33.401453151363384 l16.258029208279552,-2.269214077931958 1.382687618250293,0.29038821926747327 l0.8169193260934734,1.086002598190189 0.25356572992594356,32.9983126026823 l-0.3298811808876409,1.3193004199152498 -0.49325205162934793,0.5411928411811009 l-0.6089515456706722,-0.052407704796381856 -2.541836702167886,-2.7101644491306254 m-14.693576713312119,-21.52256162857903 l18.104511335212422,-1.9813759648801559 m-18.505424335351652,11.378178290646538 l18.534480047239892,-1.7889054072101085 " fill="none" stroke="black" stroke-width="1" /></svg>