<?xml version="1.0" encoding="utf-8" ?>
<svg baseProfile="full" height="108.63173058270311" version="1.1" width="99.81572989179" xmlns="http://www.w3.org/2000/svg" xmlns:ev="http://www.w3.org/2001/xml-events" xmlns:xlink="http://www.w3.org/1999/xlink"><defs /><rect fill="white" height="108.63173058270311" width="99.81572989179" x="0" y="0" /><path d="M25,25 m0.0,0.0 m14.777730799337228,11.666004353917003 l0.4317162685663555,0.14318360321858223 2.8522372656249173,0.06081979226546016 l25.476210175791653,-1.8397002340645254 3.7502187319988383,-0.10715636412179752 l2.5276166504710074,0.19263647653545732 m-26.950729242198268,-4.572473551934488 l1.029928232608303,1.173591315526325 1.5721495301296766,8.682488990881746 m12.883962456972075,-11.250558918492414 l0.15134974815456637,1.4338796730797057 -1.7932605426633863,9.472108268571585 m-18.731337395173686,0.5994175657322692 l0.9407420520414467,1.4740216633298011 1.8148701123297721,8.600182973799338 m-1.4241515210505173,-9.122186302014525 l20.025758119751618,-1.8586587472134701 3.6640491750400255,-0.14269563588785367 l1.3263213841235302,0.6338544795633267 0.3966446935394145,0.8517953241328521 l-2.2201259036181433,8.199505823119097 m-22.049750498034054,-3.9930696690548206 l22.754324354182177,-1.1049189848614112 m-21.61301589706828,5.59459657771941 l20.552018239858196,-1.059534556226275 m-30.39561020268314,6.670994564839103 l2.2151214392605314,0.17101563599733466 13.84634721082115,-1.7923971886766858 l1.5818645186771243,-0.13053340948584188 0.9584257695748936,0.20173685519695328 m-14.110096781066392,5.755420618692506 l0.6688816486550404,0.1466882689623417 1.0021918239059657,-0.10464722028143555 l8.86754222876784,-1.2400256633001683 1.6744982377941964,-0.14501163676836368 m-7.657539249875526,-3.192085572050554 l0.46478516194240066,0.8642520408689097 0.05479180297090233,1.195401822694798 l-0.009344987453993417,10.921432127355246 m-8.154568714311521,-20.484773652525224 l0.610203641101649,1.0809963599833938 0.057815681783033916,0.9347381409460168 l-0.06817891427106909,20.914354804663024 m9.356404555542136,-25.588335427384553 l2.2372645837279483,0.27122840378511553 13.794135681929937,-1.7272437729632635 l1.4909555128004586,0.12035276555352543 0.5695567386489958,0.3273566100377996 l0.25997382143376446,0.5081148436306876 -0.06486505670321281,0.5972945025420319 l-0.981145123320105,5.394860421896645 -1.132744354436429,4.144652557456015 l-1.376573266267348,3.6779487761721956 -1.2240090731692983,2.044506054167691 l-0.5593728128335205,0.42408838173690855 -0.5488000575392763,0.052835465944591 l-0.5187694821152511,-0.23552115558331288 -1.2003753992567605,-1.4080309513496976 m-2.0665878127246953,-14.89059561977062 l0.008626642969651868,2.2967338243951176 -0.6608249464919767,2.9880908368934676 l-1.0701593261695503,3.015444753314998 -1.4472120236618096,2.975912954502551 l-1.6296306307759123,2.5335276734791616 -4.051658865809726,4.337020338436783 l-2.0935509246955575,1.464886189732824 m-11.53277764478853,6.906798353975001 l-0.11044036359838266,1.3314990477170712 0.4746398064629358,2.6054583093190917 l1.4028936110193024,8.968155630433554 m-1.4443665905991212,-11.789799311480053 l19.81079707410011,-1.460402631300592 5.430889116695783,-0.1307035188847761 l0.8490331621845368,1.378007892634131 -2.085909808435647,10.163436969349366 m-14.948596687274454,-9.930779230444022 l0.5743552289800322,0.7645096548468419 0.17472850249258828,0.66696736864086 l0.8668255376838591,8.603209885616508 m7.0334553110553,-10.755239609439972 l0.41444557452999004,0.9182508050137039 -0.7006591866008802,9.048606130590025 m-22.124970036523788,1.0964977174936805 l2.5823776392868547,0.25735463421918175 28.350336211891005,-1.3381930550213477 l3.1534919356111155,-0.08772759212033336 2.2002018932397194,0.22904573586840227 " fill="none" stroke="black" stroke-width="1" /></svg>