<?xml version="1.0" encoding="utf-8" ?>
<svg baseProfile="full" height="104.8575955889762" version="1.1" width="103.3826351882015" xmlns="http://www.w3.org/2000/svg" xmlns:ev="http://www.w3.org/2001/xml-events" xmlns:xlink="http://www.w3.org/1999/xlink"><defs /><rect fill="white" height="104.8575955889762" width="103.3826351882015" x="0" y="0" /><path d="M25,25 m0.0,0.0 m10.404783998626893,12.587631383918918 l0.4847398963807748,0.13682628404235697 3.8364670035947066,0.08310665346492584 l32.001053437985064,-1.2465113052234327 3.5539777507035546,-0.012448557922970551 l2.1458386047169715,0.2774949036716146 m-32.30374717387721,-5.11818814365535 l0.9892066507081843,0.7978831198272857 0.35207264528501603,0.6067322619333781 l0.6112444376938038,3.461035767230325 0.562360211883485,6.1434543666081565 m15.664941852616842,-12.386817278548767 l0.592389646178856,0.8185810279422331 0.05779084124668621,1.5428368342673864 l-2.512636642368755,7.655866186522062 m6.354173177408027,0.10402643816481674 l-1.0438295938441673,1.3551308599750307 -3.6924585803842396,1.3949826101135925 l-4.171470554464148,1.2355767607278443 -8.824773486784764,1.958770988958484 l-8.954464012441193,1.2898030624136696 m-7.280211293921635,4.215354231085027 l3.671436079039818,0.25091354306715474 31.773313575964288,-2.44608434029329 l5.390184972405219,-0.1844889329732985 2.588644624885509,0.2379620016774888 m-36.783515900365096,6.319566721298289 l0.6749622401111571,1.2840261705919147 0.7423134607208673,2.4428277671069636 l1.674088677160947,8.375585319280647 m-2.0129743094920793,-11.592535909368195 l27.859490454481016,-1.5411045563167227 1.1167843971513414,0.7000460754494611 l0.30997984603546563,1.3116270246636592 -2.8418754072373997,9.806581710636998 m-25.587227458218987,-5.242074982485141 l20.143128754697813,-1.1243298460092395 m-19.34334366652316,6.444086166911793 l24.501716145918657,-1.1477724029223488 m-13.765866320396286,-19.055721168964944 l0.8340581764796546,0.6803015097478584 0.5754600229275684,1.3794288813885471 l-0.16067649355150718,30.031988227810594 m-14.959451526491298,-5.53020499254184 l2.875260290460098,0.12913270214537892 25.270178641285586,-1.2982295366238288 l2.0310816817743076,0.1386851010079912 m-36.638097660586574,7.422505114912099 l4.555318509071419,0.1637497642616216 33.382242010918134,-1.5949958473140042 l4.166152344825858,-0.08172139224833253 2.5124202078064117,0.2001572593368938 " fill="none" stroke="black" stroke-width="1" /></svg>