<?xml version="1.0" encoding="utf-8" ?>
<svg baseProfile="full" height="109.49251336045563" version="1.1" width="108.83204835001379" xmlns="http://www.w3.org/2000/svg" xmlns:ev="http://www.w3.org/2001/xml-events" xmlns:xlink="http://www.w3.org/1999/xlink"><defs /><rect fill="white" height="109.49251336045563" width="108.83204835001379" x="0" y="0" /><path d="M25,25.000000023283064 m0.0,0.0 m3.496585786342621,8.711366653442383 l0.5953279882669449,0.14816682785749435 3.809766471385956,0.12402060441672802 l22.065715789794922,-1.97077676653862 17.740774154663086,-1.2000930309295654 l5.162724256515503,-0.03534240182489157 3.7006783485412598,0.49555234611034393 m-37.611424922943115,-4.54976886510849 l0.5337996408343315,0.4666173830628395 0.5151749029755592,1.1407680809497833 l1.314627230167389,10.685970783233643 m18.241647481918335,-14.016481637954712 l0.23663457483053207,1.1450917273759842 -0.20262770354747772,1.2930922210216522 l-3.2079532742500305,11.088398694992065 m-16.35788321495056,4.217183589935303 l-0.12563415803015232,0.6179437786340714 -0.7732611894607544,1.0646060854196548 l-3.203795552253723,2.263243943452835 -4.768942892551422,2.6299193501472473 l-5.745081305503845,2.6270925998687744 m-3.7063324451446533,7.375414967536926 l1.247195526957512,0.32668206840753555 2.0034947991371155,-0.06666259840130806 l19.92519497871399,-3.63898366689682 1.9985060393810272,-0.05394120700657368 m-11.164228916168213,-6.050394773483276 l0.6350719183683395,1.1417658627033234 0.11407681740820408,1.3303418457508087 l-0.027246023528277874,32.08743095397949 m-0.4905635863542557,-25.94698667526245 l-0.5150085687637329,1.664922833442688 -1.531555950641632,2.8243157267570496 l-3.635491728782654,5.172368884086609 -4.278046786785126,4.5165106654167175 l-4.779585897922516,3.9537760615348816 m17.41151452064514,-13.931339979171753 l3.020208477973938,2.4027636647224426 3.1163257360458374,4.026944935321808 m5.592756867408752,-17.475370168685913 l1.8122582137584686,3.635491728782654 1.7023387551307678,5.11749267578125 m21.78567886352539,-11.781507730484009 l-0.20782433450222015,1.7663614451885223 -1.544194221496582,2.3058149218559265 l-2.9580149054527283,3.5872668027877808 -3.443257212638855,3.4099987149238586 m-6.082322597503662,-17.847867012023926 l0.6665012240409851,1.1979728937149048 0.19161080941557884,1.1926514655351639 l-0.2800889313220978,10.260926485061646 -1.1089231073856354,7.866311073303223 l-1.630832701921463,5.765701532363892 -2.4242153763771057,5.232899785041809 l-3.339157998561859,4.6435582637786865 -4.374163746833801,3.9956817030906677 l-4.03492659330368,2.5376272201538086 m16.719735860824585,-24.286720752716064 l5.651292204856873,8.608642220497131 5.259838700294495,7.219099998474121 l3.179849684238434,3.8077709078788757 2.9377275705337524,2.2083674371242523 " fill="none" stroke="black" stroke-width="1" /></svg>