<?xml version="1.0" encoding="utf-8" ?>
<svg baseProfile="full" height="100.86857184119378" version="1.1" width="101.53393552745425" xmlns="http://www.w3.org/2000/svg" xmlns:ev="http://www.w3.org/2001/xml-events" xmlns:xlink="http://www.w3.org/1999/xlink"><defs /><rect fill="white" height="100.86857184119378" width="101.53393552745425" x="0" y="0" /><path d="M25,25 m0.0,0.0 m11.588298288022242,13.243570028039763 l0.5086808164891968,0.10842281648012879 3.925557659576592,0.11738351887736583 l26.20202580754322,-1.9090554595643563 2.975171483029908,-0.11514792799903475 l2.7543242219742963,0.21497463329985314 m-36.08500906804733,2.3135709136108917 l0.5886050938997878,0.6972620722279793 0.1927693337421939,0.9348813077580455 l-0.18714080531224325,8.576962693528962 -0.6621681188883688,6.486423146193997 l-1.14079911711421,5.277657767562213 -1.560252363434455,4.641282249571219 l-1.5337643973356978,3.243480957041998 -2.479522276479175,4.042501449238586 l-2.3868819043119403,2.9944016753261686 m14.861482876665859,-32.069049733249734 l1.4034121951638712,0.20234984678121307 2.2361407560034303,-0.06203579613655316 l19.674657351953734,-1.9224724463307334 1.9080459085665904,0.17658811664920124 m-28.005058989712666,8.699562911787728 l3.2087733666987264,0.2681517831285628 24.557918089218862,-2.2323535227076645 l3.427667123789874,0.09327220779907959 m-27.049733254776495,3.581635113341193 l0.5836529012938575,0.6567843925656097 0.3252188162805811,1.3535919206542015 l0.03191034729127631,16.538515755139187 0.1991097837719497,-0.05737851163307738 l0.5430602850985922,-0.2624423615998249 0.7244560209095603,-0.6132508173448368 l8.245500004207026,-5.810398770483974 m11.093761376316493,-11.579851431298843 l-0.09271561849451895,0.6855977535251809 -1.1083454653308196,1.433093213625779 l-1.7133857150813299,1.4817030947507894 -2.318847999347483,1.5034560020879484 m-9.795678462223908,-3.4171096113103254 l1.87832896093209,0.7167319564140875 3.126541837211869,1.7893026797113947 l13.895744525837928,9.573805999767247 3.996767767584174,2.4220541208350146 l2.9956560842710966,1.3977427410579042 " fill="none" stroke="black" stroke-width="1" /></svg>