<?xml version="1.0" encoding="utf-8" ?>
<svg baseProfile="full" height="106.1055084535584" version="1.1" width="101.86788493732193" xmlns="http://www.w3.org/2000/svg" xmlns:ev="http://www.w3.org/2001/xml-events" xmlns:xlink="http://www.w3.org/1999/xlink"><defs /><rect fill="white" height="106.1055084535584" width="101.86788493732193" x="0" y="0" /><path d="M25,25 m0.0,0.0 m10.6285057069957,13.730936104079518 l0.4650615936894509,0.14188408828537188 3.679883419289217,0.1046559881806701 l31.823821845850365,-1.2639675925865363 2.1268174047782953,-0.011454207930816819 l2.1449591563254784,0.3546665996281902 m-31.117655394404036,-5.262866789323553 l0.9034751914861531,0.7945749836469046 0.3364247508368841,0.617510215353926 l0.6162730495334925,3.5360953107205733 0.5901508231224698,6.069263051756271 m14.966920732412591,-12.282544194324426 l0.602505213753419,0.8340587323737845 0.06015049206195253,1.557738230158366 l-2.4108917289928535,7.6206237241615025 m6.232264073262956,0.241439299132378 l-1.0255279657967515,1.3857463552572573 -3.494996134903303,1.4226569735379848 l-3.982339303931892,1.2713652312914216 -8.46613160621067,1.9711786083264338 l-8.695458117766048,1.3006749596642477 m-6.82344759035274,4.244852744855224 l3.473558049023478,0.23874454056850972 30.509141934554027,-2.371030902146094 l5.128855347411757,-0.1728225034597522 2.502057541536941,0.2345130407154153 m-35.48444099639118,6.315770448887101 l0.655406390944804,1.283986244491952 0.7087239387202305,2.416349180792591 l1.6071613181633553,8.448288767013128 m-1.911857731376358,-11.614056200072836 l27.05056441302649,-1.5328194276594245 1.068146703056735,0.7517049622334221 l0.27530392598668185,1.3195577800923113 -2.7023499860281124,9.810957270425916 m-24.73539762152127,-5.286651570086572 l19.54437614175644,-1.0661598007635582 m-18.785253997687697,6.393829905635034 l23.61972935697587,-1.1275600014048512 m-13.242930692318575,-19.12310095657273 l0.8017079036268544,0.6863838862065099 0.5487150989844255,1.3887043045634908 l-0.15446217242176036,29.70004252658115 m-14.264882809562156,-5.4757159169740675 l2.7224164569934906,0.12675785289212393 24.151599044247906,-1.297248758893077 l1.9468395910489047,0.13991397032359862 m-34.988960102845596,7.383617025481588 l4.374103345894144,0.15446436844283526 31.92329261859702,-1.579850887665957 l3.944903278419981,-0.0772063931820932 2.4210530374649673,0.19940718932138157 " fill="none" stroke="black" stroke-width="1" /></svg>