<?xml version="1.0" encoding="utf-8" ?>
<svg baseProfile="full" height="127.39713710210216" version="1.1" width="90.2304613060392" xmlns="http://www.w3.org/2000/svg" xmlns:ev="http://www.w3.org/2001/xml-events" xmlns:xlink="http://www.w3.org/1999/xlink"><defs /><rect fill="white" height="127.39713710210216" width="90.2304613060392" x="0" y="0" /><path d="M25,26.20745802440048 m0.0,0.0 m3.9421839826249125,9.225400059855735 l0.3995526463521593,0.10261509270825045 3.0837193630728277,0.1053729915299844 l12.388486268511864,-2.2286948433752807 12.506330511964082,-1.25860908403528 l3.037909582443197,-0.06669216513681797 2.9216146784477575,0.3601325743799662 m-26.15939519141435,-5.282332679218214 l0.6409969683963853,1.087840609281046 0.2430993890479074,1.0189178208095222 l0.7916433783589896,11.79838396248985 m13.247541435774217,-16.069792363689242 l0.12506875371512224,2.109573111297706 -1.5727833887688674,11.615354545490636 m-22.7752608484431,7.895686355661124 l0.9115494806612041,0.3819785209244785 1.242669642911514,0.019644084783229245 l7.528781022962076,-1.9536386078300894 0.6698968203763644,0.24776663801375798 l0.29371721657761224,0.6108969240565925 0.005966182560013133,0.7843407764640161 l-0.26831393219663807,0.8875780640766491 -4.599550280063774,10.167430980895539 m-0.0393545075589862,0.05233425823608168 l1.6459833205214338,1.8713938167901638 1.7351522159160488,2.6158615644689256 l1.1745814962928542,2.912434904161621 0.6775513674438074,3.061271071352923 l-0.008981557224981484,6.494988551411028 -0.7225836432424856,2.6780730505561183 l-0.6435246300555861,1.0719967734165943 -0.7806534625988581,0.5183547708210171 l-0.9251171291191352,-0.06532691074133141 -1.5075166031041343,-1.2442132747240269 m-4.706472205079583,-29.933080441837017 l0.4023782989273659,1.0350152909334234 0.09101814803146491,1.2950352871157866 l0.022571382063102108,41.935738211682896 m20.598067731648808,-49.99969591799594 l-0.024747837828461596,1.1830854458918916 -0.2820231983899871,1.2069759386260832 l-2.0198776258870983,4.831684566638 -2.412379784875639,4.155534010850164 l-3.4622391222297177,4.740785629467876 m9.087806428540738,-10.961980300403619 l2.0774172166148195,-0.14287781511275718 6.44207928809101,-2.1613979920249027 l0.3295181085671934,0.20234171144003582 0.20032330005495902,0.6543942514886497 l-0.7932585457167498,2.147380961596415 -1.3067131460210997,2.4060532814243647 l-1.9079872511209546,5.736715958661803 -3.164525888581263,7.446956811570944 l-3.707882263294379,6.253547861003202 -2.1455853037096686,2.5738945709669516 l-2.3943962629703774,2.167364571892936 m5.0421027905253775,-21.595033669088604 l3.010683399712747,7.329915065515061 3.2222689489693006,7.780123541990567 l2.7826469148371933,7.779275408841054 1.258865891285022,3.0898571123091565 l1.4012733229571896,2.119373474210784 1.830267622791363,1.5396205186279202 l1.5483003969850795,0.9332259378724997 m-11.682087974585365,-25.638466780005757 l1.8937156254212364,2.0057122509262872 1.2882850829600903,2.495227863593593 m-21.461759775230956,27.89475619042606 l0.829106006737716,0.9581277585983122 0.6266370586354197,0.31205926597963646 l1.6290264609745624,0.09600702511344472 19.728590681165066,-7.39654636548625 m-2.347138525831852,-17.079479074280073 l0.4587814506212926,1.37662919102935 0.10040398713225425,2.1400109504375666 l-0.0770291078256205,31.749489572031603 " fill="none" stroke="black" stroke-width="1" /></svg>