<?xml version="1.0" encoding="utf-8" ?>
<svg baseProfile="full" height="105.59339002646169" version="1.1" width="107.32732260850568" xmlns="http://www.w3.org/2000/svg" xmlns:ev="http://www.w3.org/2001/xml-events" xmlns:xlink="http://www.w3.org/1999/xlink"><defs /><rect fill="white" height="105.59339002646169" width="107.32732260850568" x="0" y="0" /><path d="M25,25 m0.0,0.0 m11.614332605733267,10.967634956664 l0.5144590605367032,0.1828365262026957 2.1759632155045217,0.1646510645888718 l34.55859461439831,-2.335242799856695 2.9040134197789906,0.30579652166912175 m-31.757998044119937,-4.355193411679764 l1.141705070763779,0.8657996208468077 0.4001958157019193,0.6213150811693438 l1.3670867793031607,9.0852126763283 m15.886801809108807,-12.007255436594658 l0.7121471856190972,0.9258865476633944 0.13872678912285472,1.1165918359692033 l-2.316565959812726,8.639445720783266 m-24.929864141899184,3.6759796485519707 l3.7892313435035434,2.055278048303303 1.6009223217951913,1.1250387467231344 l0.8055915148913831,0.9153947091771913 m-9.948917921250734,6.289526646685666 l4.2763781660915505,1.8464799212271017 2.2154789520538842,1.6718930112627755 m-6.8974750802661555,18.277384355530963 l1.2054280163535553,0.4228216904810923 0.5783067040534051,-0.0147279350026702 l0.9083915815891466,-0.543373377379908 2.5242661635746844,-3.490663563519377 l2.432045341659561,-4.007880497140078 m12.109136988507988,-24.271291505112117 l0.674431509510506,0.8125888241257886 2.443154063459279,11.49343638350228 m-2.0428760898592415,-11.863920670040057 l14.733997105077368,-1.406373753411176 3.1963200796038973,-0.2673406909821762 l0.5515454480302773,0.13455759995288327 0.6802664348596568,0.8472678258078129 l0.028092428107447224,0.8714475415724646 -2.0761627534645597,10.671640304079778 m-16.34046259051543,-5.528804822716633 l11.574406527218628,-1.0506379528181367 m-9.959392185635277,6.583695625886213 l14.369329867214883,-1.3577931414719948 m-24.25098292441576,5.783545428460695 l2.797199881913175,0.16644512158114208 26.536914248522834,-2.2169235455616847 l4.555477311603257,-0.15725516261570333 1.8476819349781677,0.16646243074702938 m-26.1756155108637,2.880012758285591 l-0.18707572827287025,0.9199415310167239 -0.5290002071194347,0.827182130047365 l-2.4910671277315903,2.461462017503793 -3.8500762127235446,2.8420661747196583 l-4.525035939003384,2.6112263547263597 m10.996474864049276,-5.107362187887796 l1.36341396517158,0.24730639465572124 19.219950256356455,-1.719055138733079 l1.2120358835174079,0.06617010655049577 0.5917119417675728,0.2675593291129969 l0.29009243947175833,1.1425941978207057 -1.029204123754904,4.7798650314468265 l-1.4424370720550765,4.096429060576412 -1.5880865089365972,3.215067768359488 l-1.473829155930944,2.431994882506647 -1.492895066236118,1.7245586762351168 l-0.5192209330872846,0.09499478987721467 -0.48565468178608606,-0.22483570300031736 l-1.4568975846670973,-1.4630799474672218 m-10.013054211510468,-12.631777826093986 l-0.4235848514164776,1.5894436023864034 -2.757680410861601,3.0217208753582523 l-3.623597069059288,2.596102624548818 -3.8309310868476203,1.8988180500718426 m20.564561163456595,-10.074373891672975 l-0.22120444011420662,1.2089316050879313 -1.2425545449363347,1.9539167777987154 l-1.8661681696113077,2.1208961678538154 -2.506389154214624,2.302693427241815 l-5.29835306251807,3.811461243642601 -6.848161061665789,3.7089695777448664 " fill="none" stroke="black" stroke-width="1" /></svg>