<?xml version="1.0" encoding="utf-8" ?>
<svg baseProfile="full" height="122.9469460678946" version="1.1" width="97.85937963625969" xmlns="http://www.w3.org/2000/svg" xmlns:ev="http://www.w3.org/2001/xml-events" xmlns:xlink="http://www.w3.org/1999/xlink"><defs /><rect fill="white" height="122.9469460678946" width="97.85937963625969" x="0" y="0" /><path d="M26.89696951682699,25 m0.0,0.0 m9.334603500764112,15.186581387913304 l0.5209711253904503,0.14447181432769315 3.8666547877808104,0.0643722500625499 l13.513125090465525,-1.9004775044710691 14.663248423689154,-1.0401672926600936 l4.063807191342647,0.3644895663445655 m-28.86782895065324,-5.403987156082152 l0.8843785945034436,1.8485073796212874 1.6821566054758468,10.47977241443304 m13.797048170079242,-13.758555013656412 l0.14039148140207572,1.6368639465062307 -1.9142213235525718,10.558083129308894 m-24.19482145551985,5.631486397180125 l0.6140325996880289,0.9137380195325614 0.4297260667557251,1.6597133376227746 l-0.10833254630064681,16.21324271007074 m0.36920578078902294,-18.285095276171695 l9.195928921792463,-1.846590669453711 1.058101455147717,0.23063823591967 l0.37116046731818547,0.46824737080806855 0.24020715269745643,1.4554150685006433 l0.06422309811730006,17.61309922063144 m-10.437365108314976,-10.906615433418306 l9.85002394475277,-1.4833025873770058 m-9.808531818058263,8.225526168244022 l10.153757916397094,-1.5000269205898165 m-18.361122752589345,-15.075343934058553 l0.599981073618681,1.0638470410920349 0.32850074379875766,1.6522999979218356 l0.005566878768521212,25.291489100769933 m-3.9515466323731285,0.7015257032822027 l0.6333621558171488,0.5059890021114739 1.0139554498846177,-0.16630971557675908 l13.413652714457568,-7.5815160764232346 m27.253185369590465,-5.253845955383355 l-0.888733644274778,0.3992392486192507 -3.8107387710193077,2.483317597358978 l-2.7874748748708744,1.6382530578038412 -3.1400185520079105,1.6892465110889399 m-3.8168333955296383,-9.339912967186276 l0.39951627376317533,0.43195654864127925 0.2664335073122122,1.0650806047194576 l0.009683723990692242,20.237363598166016 0.2522074868762786,2.7812443256407593 l0.42702362335511834,1.0466933056561287 0.8923316985016116,1.3167871817045629 l1.2766171815700806,0.8210563138589878 1.8735210995067821,0.4484338347800519 l4.083326769332502,0.08286508159928328 3.263260983233619,-0.4219691107652039 l0.9832715190529928,-0.44655909021439527 0.9659741906851314,-1.0608329293287049 l0.4095370578195541,-1.0434384141231583 0.20615458540268353,-2.1038541804804396 m-39.74693272967684,14.778757889201852 l1.9270168896540432,0.39511252292979626 2.1861899678912913,0.0405394113406642 l12.810828436718833,-1.6504203133763358 17.289309644035953,-1.168899484218453 l2.897814946383215,0.3370459499006771 " fill="none" stroke="black" stroke-width="1" /></svg>