<?xml version="1.0" encoding="utf-8" ?>
<svg baseProfile="full" height="114.94716727604946" version="1.1" width="99.67402042828351" xmlns="http://www.w3.org/2000/svg" xmlns:ev="http://www.w3.org/2001/xml-events" xmlns:xlink="http://www.w3.org/1999/xlink"><defs /><rect fill="white" height="114.94716727604946" width="99.67402042828351" x="0" y="0" /><path d="M31.551809890265886,25 m0.0,0.0 m9.94690822667969,11.461951602579088 l0.4563171810400718,0.13400129593617152 2.586915331701825,0.11698747626010762 l12.262216089425285,-2.1980783098713226 11.226600694529164,-0.24215162405059032 l2.032338185899033,-0.033774796970944224 2.6934881132550963,0.7558377740771056 m-24.98251960481977,-5.011534466195289 l0.7601320726682376,1.942003177451498 1.167914781943718,11.023389016808347 m14.063798552841513,-14.54333422804604 l0.15314090234839986,1.838745930656252 -1.7649688583876213,10.099114585161564 m-22.107998183637577,8.502721897704074 l3.9965662211331887,1.707001559244541 27.67915575152628,0.9032126027987045 l2.952205079871082,0.48997080820230354 m-33.58480611282257,5.895138393955632 l0.5948727321077163,1.6389666384020984 1.4444303578054367,8.506079561668592 m-1.3315631424255852,-9.06017916002195 l10.141388429801141,-1.7443440404284682 1.3177121691679012,0.21962542326743073 l0.3431306397161267,0.443149216093749 0.058451725653139094,0.7187935553660221 l-1.4891816397052309,6.797390093841462 m-8.354207901879912,1.6089204118105276 l9.151991849518186,-1.0595730144043347 m7.820237910402863,-16.412548425557866 l0.4131104418839285,1.0801569385277736 0.19461269431619263,1.6665242055114053 l-0.08388427151930337,10.550056173614374 m-25.219520259853446,0.9560294281150109 l2.116869781370333,0.48224815180547753 2.3497602980441146,0.03597975008054205 l26.596282250883448,-3.01854098389322 4.304696100050259,-0.12162642744099438 l2.955813516399322,0.4472818185613627 m-32.40261210922496,-16.792599020694887 l0.7985761715250767,1.1124576450173178 0.2741890563448005,1.0540235890492364 l-0.5403447484844696,10.263753972741473 m-10.713226039104025,0.9728008229761892 l0.8715424873766534,1.7720778400864483 1.844349518731211,9.358189211243934 m-1.543950467112949,-9.874460336841109 l20.68539129404594,-2.1992572497094796 4.843738972285756,-0.26182147664210964 l1.0468874004542135,1.4823619815839495 -1.6390266732785899,7.170997886612299 m-22.421231905237583,2.7749340743239226 l23.254767194423177,-2.2895052032655365 m-13.149987448779394,8.583815490382527 l1.477636352403548,3.034599702604498 0.7428873276673466,3.4109597661868287 l0.07351139984578052,4.205546318544624 -0.8065688998840801,3.5135157746680243 l-1.304795203058267,1.0791844765611074 -1.37672428024904,-0.3683182259860357 l-2.20275998453849,-1.7407479546850753 m-7.4838583224140915,-10.317658684053619 l-0.18267785585135826,1.91548419930938 -2.2502679017118634,2.6255136127990095 l-3.1017643954112954,2.705707104562846 -4.20789893796062,2.8975095749969726 m34.08331746518696,-10.031381210393825 l2.600296327035903,1.8499799434299415 2.7939045025176106,2.735498475474366 l2.1026659273622417,2.719673288927873 1.0449355718884121,2.1591941406205994 " fill="none" stroke="black" stroke-width="1" /></svg>