<?xml version="1.0" encoding="utf-8" ?>
<svg baseProfile="full" height="117.77425892224717" version="1.1" width="96.43495048915986" xmlns="http://www.w3.org/2000/svg" xmlns:ev="http://www.w3.org/2001/xml-events" xmlns:xlink="http://www.w3.org/1999/xlink"><defs /><rect fill="white" height="117.77425892224717" width="96.43495048915986" x="0" y="0" /><path d="M27.1162885795444,25 m0.0,0.0 m8.353626195048866,14.17296727282677 l0.5134112691028098,0.1394158713386763 3.7389955640380994,0.06645869883701508 l12.873586486684196,-1.9882576963879013 14.350200001643318,-1.165879392674846 l4.066295263596039,0.44173731103631403 m-27.906732329632497,-5.412098871573687 l0.7222014835393771,1.7082156952370333 1.4885825019706285,11.161655731076145 m13.882995358349879,-13.872457667622692 l0.16246134761770784,1.6935690255382418 -2.011039332582117,10.67106650115964 m-22.739333911787778,5.336853436038244 l0.5673675743909441,0.8852882704833679 0.39991904308221504,1.8758202346136439 l-0.11952967096828929,16.73886353038691 m0.410874537461116,-10.673369060160018 l6.446130461195794,-1.35462801896009 2.581323832912049,-0.13705009506466614 m-15.94734412526544,-0.3819531933099078 l0.6383870955664392,0.8225515225612176 0.30992598600569476,1.1974679471477252 l0.3148396744242192,16.868332131622505 m-5.21343288593767,0.5895419041010725 l1.423597197980563,0.5942136216967177 1.3650487743009334,-0.25331606400016016 l17.07579082087071,-7.3093497295393846 10.751607459996883,-2.750085333554622 m12.624971506735418,-11.721028579001837 l-0.40735511039259265,1.5790368504628804 -2.470334883392892,3.1538904486443418 l-3.002250829122011,2.7897106706464125 -3.4324888955724844,2.2564227210287595 m-2.5124428694324306,-12.41159836478183 l0.5688233114843061,1.0654449892308742 0.1460260119849643,1.0774398966973024 l0.03805990436665832,16.829425805171173 0.39139056936481553,1.800934525353733 l0.795607498772448,0.9714371862880394 1.5784767893663072,0.6673001330602696 l2.5100057073335056,0.28667357700208584 4.281451841716061,-0.02115412620601883 l3.1250270877833475,-0.45246143011147605 1.1474598945421213,-1.3701346778412142 l0.28988703561092133,-1.2275876263061938 0.14659166486229702,-2.1138196129561546 m-34.96591020114495,10.820727109952957 l3.1813062352763892,1.8644381681060234 2.2242494454600292,2.087713011800822 l1.406023842099137,1.8568993239270015 0.9149719678646429,1.9146191169578508 m20.188607990294884,6.404356222268098 " fill="none" stroke="black" stroke-width="1" /></svg>