<?xml version="1.0" encoding="utf-8" ?>
<svg baseProfile="full" height="106.21372406274233" version="1.1" width="94.97396152343737" xmlns="http://www.w3.org/2000/svg" xmlns:ev="http://www.w3.org/2001/xml-events" xmlns:xlink="http://www.w3.org/1999/xlink"><defs /><rect fill="white" height="106.21372406274233" width="94.97396152343737" x="0" y="0" /><path d="M25,25 m0.0,0.0 m6.766023414967918,17.190925292875725 l0.4963326945321753,0.11930944305410966 2.9249677439795723,0.09467672872056425 l14.681340162747238,-1.7977731530446461 11.240547824665121,-0.08000511070807921 l3.501974649344569,-0.1798502531419006 3.0730136366370413,0.3556162925170728 m-27.165162634525302,-4.03508919424005 l0.551712607345589,0.802926410106189 0.2144712402262822,0.7820736209593044 l0.9320417126792163,7.909106331210534 m14.141439089806706,-10.692504826560123 l0.14103394689598744,1.4845927894065862 -1.6707135973239478,7.555871988868762 m-21.306486250901656,5.108826277647132 l0.4812623357444539,0.7046964978414268 0.17343395897069175,0.944079374343069 l0.023767355996937013,21.242667275092046 m0.38246781481163006,-22.389194655396402 l8.942840405706916,-1.8591956339913451 1.0573348495163348,0.10276699493780157 l0.34979984507866857,0.39885869981808764 0.19111658329805659,1.2395080537304408 l-0.0421250240997288,19.36822820119784 m-9.7985611301267,-11.384229787074347 l9.257055203699714,-1.3885181838188445 m-9.229031320444713,7.998862856887015 l9.450798592270552,-1.2543027970611664 m-14.632832285292249,11.57118407587172 l0.9044062480258598,0.47068790125246074 1.158533214482942,-0.2947152656743463 l11.151693817651811,-3.9421579558372812 7.787056898238252,-2.7425786072563407 m-0.2762675290635712,-13.307521378347595 l2.120964276516817,0.20596733618230847 2.8465088420815,-0.18333232393391255 l12.070202766214905,-2.0745057239429854 1.1536838321860003,0.14667076549804428 l0.7198705315277728,0.7331872384766291 0.1769302425951666,0.5398472264763823 l0.03051495677282812,4.537505510896637 -1.0066501464752962,7.197831837162929 l-1.560306275867983,6.888904295244332 -1.7183397745835784,5.674170645176854 l-1.0694423404036195,1.870993278894529 -0.5269023999839754,0.4378287086963463 l-1.0792910304782073,0.14082696372882114 -1.0646471864400457,-0.5681517426151892 l-1.729098031697797,-1.572970457113908 m-0.28612737427343715,-29.49970732786924 l0.440245272808653,0.9428278206756847 0.1543494380823183,1.056033574016467 l-0.28486030902854814,3.3864327269082293 -0.8469071151110298,4.037358247358865 l-1.6761185506491931,5.1616301859263 -2.2100941661664724,3.9713880196205045 l-2.4541151620764854,3.1812483288102436 -2.875908782612644,2.7869975261898587 l-2.6584871610964846,1.9127472260967122 " fill="none" stroke="black" stroke-width="1" /></svg>