<?xml version="1.0" encoding="utf-8" ?>
<svg baseProfile="full" height="103.5536752700663" version="1.1" width="87.80456397486095" xmlns="http://www.w3.org/2000/svg" xmlns:ev="http://www.w3.org/2001/xml-events" xmlns:xlink="http://www.w3.org/1999/xlink"><defs /><rect fill="white" height="103.5536752700663" width="87.80456397486095" x="0" y="0" /><path d="M25,25 m0.0,0.0 m13.561181152840355,11.38184221994726 l0.45181236114721207,0.1742551045244505 1.8635754200844838,2.1283685203308598 l1.2381680770377097,2.02814067778881 m13.330267864066746,-5.933873185307689 l-0.19568532395204738,1.2991725605216875 -0.9123777069689282,1.9815792844650073 l-1.2152988441403405,1.7872373645096067 -1.3343361429416716,1.4042879671259019 m-17.617603708488613,2.6256234958009794 l1.6622330647204766,0.18419739366716295 2.608309084840155,-0.12903195303880613 l19.174480159831983,-1.8515142644853637 3.3256503156339856,-0.13268397740604268 l1.8641882011494462,0.17190175025011054 m-15.215561099294305,6.818180637114251 l3.8149479585147166,0.8866543093396785 5.657182963581793,0.5732008574445807 l1.1493474926058866,0.33564918617945877 0.4050293316109349,0.8150659661057197 l-0.4867615300519152,1.1426483662782643 -1.5975372737445799,2.910925137938908 l-2.265068753120823,3.7424143237773415 -1.963859264663374,2.753259479720227 l-0.8845729038250295,1.0825242472803445 -1.0224776015661965,0.7563320588503444 l-0.9828608559575258,0.08501982389521506 -0.8748887054127577,-0.4039590166623265 l-1.0961792410687212,-1.199374335924843 m-0.2628473904774015,-14.916718409817042 l0.055326419147299966,1.1525272131285984 -0.8820768370009253,1.9184335458227613 l-1.6282038849228802,2.770438021343186 -1.9155773246681875,2.563995404800982 l-1.7662156972788123,1.8915260484605536 -2.1031877052626764,1.812171923156062 l-2.4808616047363907,1.6779152723070905 -2.0192342488387602,1.0899008382358277 m5.049122167717896,1.5011625434558633 l0.5309247396131662,0.9007178197376043 0.14033056120403042,1.5909592512462092 l0.9173090057391439,10.162548278377185 m-0.7489160581972428,-12.045053070774122 l13.747058873769184,-1.4962131441033846 1.3958413625869137,-0.020432527038987496 l0.8013514277172901,0.19688209141391816 0.5720084395275713,0.7129229311975334 l0.0380081367801275,0.6017237507972429 -0.9270865485358357,9.322935687426188 l-0.594448095357176,3.6210190987131594 m-14.963661194288056,1.1262687021487523 l16.0353786057387,-1.0645581814748724 " fill="none" stroke="black" stroke-width="1" /></svg>