<?xml version="1.0" encoding="utf-8" ?>
<svg baseProfile="full" height="106.47268566105103" version="1.1" width="98.38025716436238" xmlns="http://www.w3.org/2000/svg" xmlns:ev="http://www.w3.org/2001/xml-events" xmlns:xlink="http://www.w3.org/1999/xlink"><defs /><rect fill="white" height="106.47268566105103" width="98.38025716436238" x="0" y="0" /><path d="M25,25 m0.0,0.0 m13.259801051228441,12.979659563489966 l0.4384065620428302,0.13265500882674178 1.6366488809314117,0.11962089373984672 l28.15958045763405,-2.212152327400274 4.6149161105398795,-0.15513830655296829 m-27.054474153309002,-3.676545308246775 l0.9102301830791443,1.0845306817689215 1.3022898449106537,7.6748723242915755 m13.363174303335997,-9.89747146265393 l0.21111881974697216,1.1565506381865298 -1.5931452014847183,8.050070674051316 m-6.822979449210452,0.0812854050527419 l0.04754441700822648,0.5937322040684312 -0.4390336232459338,0.6849588722051944 l-2.2017340892114126,1.9143662525897644 -2.89581921159984,1.8129704337229207 l-3.261737794206784,1.5067621624229373 m19.075224792460553,3.4569480781641797 l-0.0423270232152896,0.5183126774541116 -0.35764411969351945,0.4229187664593903 l-11.698106442620162,2.9121940680547866 -7.759444853207778,1.387802376204035 m-1.1197426987443009,3.722331934597655 l1.284783731840491,0.2497647110918053 1.824884702032185,-0.05365030657717163 l17.89379754341741,-2.176259095616052 2.6468356248918945,-0.13736301707525045 l1.8132062373752316,0.2185383740308593 m-26.73112673381736,6.674698547859448 l1.6315159037265798,0.2398977383319919 1.7067324551504786,-0.043605102565387695 l20.51230365278569,-2.1530975304505526 4.083947386711097,-0.14524584218330722 l1.8470709773048972,0.18040621128100245 m-16.18902904801787,-12.704076346640045 l0.5763801529258913,0.6785654358271577 0.26846717777128326,0.772507168487484 l-0.0810955586935497,0.5115053715739473 -0.36862961812398853,28.994210557834883 l-0.2308529777436983,0.8492815502813634 -0.39545153765727814,0.2453716250617557 l-0.48016845373325495,-0.22541421938324244 -1.312319223928173,-1.6544585253049622 m2.0604233034654515,-15.697583967304695 l-2.4791705653735447,3.711936127781811 -3.829052870803765,4.2590751033173 l-4.044218686801954,3.4651450231998746 -3.7760948456205043,2.512167231799341 m15.572391033942942,-13.482083427656754 l13.95554205980145,11.451685760881519 1.4133838887115968,0.9215811403360253 l1.4330546896537872,0.46471220895440357 " fill="none" stroke="black" stroke-width="1" /></svg>