<?xml version="1.0" encoding="utf-8" ?>
<svg baseProfile="full" height="95.48231594599422" version="1.1" width="106.51484457666092" xmlns="http://www.w3.org/2000/svg" xmlns:ev="http://www.w3.org/2001/xml-events" xmlns:xlink="http://www.w3.org/1999/xlink"><defs /><rect fill="white" height="95.48231594599422" width="106.51484457666092" x="0" y="0" /><path d="M25,25 m0.0,0.0 m14.524711160207794,12.719954252670291 l0.4450269879843467,0.1504517344314927 2.5988426001171736,0.12807597355569908 l26.42786106972558,-2.191095272851387 3.734939096969071,-0.12035890811170015 l2.4447291830909967,0.260595077202697 m-27.270314551653463,-3.8411702287964666 l0.9245933984412463,1.3309789180638467 1.602051701736046,8.402719602674171 m13.907937063413334,-10.975096379008752 l0.17588797269509815,1.405979270704322 -1.8162667637225944,8.568128625380167 m-6.5906637736182665,-1.0435926434423484 l-0.004655506449251628,0.5640125294523677 -0.447653143753004,1.1310713112874493 l-1.7533355471495518,2.649110994286089 m-3.3298838976308924,1.0112556479313177 l0.40794029882700994,1.3526793527426055 1.2334823118489255,15.305539164066966 m-1.0129851781148032,-15.528909708751216 l8.837783652809302,-1.799799713934292 0.7308526154538189,0.2231471287898292 l0.3792906938274116,0.3969940021958713 -0.3679812792136389,15.599890472519018 m-9.331453007193131,-7.0026546057270505 l5.919131780767911,-0.9685555931934257 m-5.342922996362367,7.598539790661662 l8.310052628728863,-0.7331815656477264 m-19.08761995521097,-13.684222759837676 l1.5190567892475872,2.0173702162892804 1.0996440607508207,2.2356217470086315 m16.063203144676073,3.3899310847539814 l-0.18783848763313632,0.1173498934057081 -0.5803270168039729,0.5570534048471999 l-4.171383959041149,2.2896627551643522 m-3.497848412356918,-8.726787378149629 l0.23680227299486364,1.371612057040726 -0.48986578912339107,3.0876230999265046 l-1.6444224051830751,3.5221637017321816 -2.4928063583858995,2.9540566428595265 m23.059424203688152,-26.699730145950387 l2.0149209780396773,1.06143454527079 1.8355719084146551,1.754412039821302 l1.3355027495272027,1.711478171854353 0.624059295954912,1.4809097234831476 m-6.6307485184913215,3.606308070443358 l2.2473264004834768,1.3391999991305248 1.8102974321953427,1.5938826892962912 l1.5338601116192436,1.7226777962263258 0.8851307565607847,1.5990207737098345 m-32.21453092068857,8.15520417452368 l1.9012115866302584,0.24865314960976165 2.117619840794888,-0.0632068408964146 l26.159879454037814,-3.090554800662846 4.865033785715897,-0.24664007539504706 l2.7931190131445653,0.30204146492541345 m-19.073524562640845,-4.950379826040153 l0.6879537972377989,0.9927205677962908 0.21373989120442596,1.0092004309161617 l-0.09042502122924422,20.22954034373954 m-1.288056125113057,-15.807750094130762 l-3.1871313509373125,1.1074717734108095 -2.5009342677458544,1.5139450184164764 l-5.660326174069424,3.2031194979804054 -5.905566944821592,2.8263072526279753 l-6.190212120601553,2.101314251255354 m23.2822160338103,-11.64688764529522 l15.357224153443054,9.400715237228878 2.3219406283665864,0.8607763490623918 l2.1066761064168507,0.5209763807981869 " fill="none" stroke="black" stroke-width="1" /></svg>