<?xml version="1.0" encoding="utf-8" ?>
<svg baseProfile="full" height="109.06183411476138" version="1.1" width="100.50185413841072" xmlns="http://www.w3.org/2000/svg" xmlns:ev="http://www.w3.org/2001/xml-events" xmlns:xlink="http://www.w3.org/1999/xlink"><defs /><rect fill="white" height="109.06183411476138" width="100.50185413841072" x="0" y="0" /><path d="M25,25 m0.0,0.0 m13.108308212018708,14.040075695798263 l0.42336093286224685,0.12995671710458673 2.262284329083346,0.08743453954027705 l22.229747039591985,-1.9279969517952094 3.6030388629166286,-0.12454870555329597 l2.336733388465793,0.24274381597659814 m-24.2665246622232,-3.9591707566577092 l0.7396289044933969,1.1395068086338696 1.1827305406693709,7.772230085822243 m11.962017445311446,-10.312235959564605 l0.1457208051169486,0.8202876064110133 -0.09175608077997863,0.9205169601183002 l-1.8652631713094232,7.500634227617937 m-17.64624488512616,4.686077824832333 l0.47704231138403885,0.1725766052714496 1.260993775472187,0.10250494826922185 l7.449985138724496,-1.614393581420113 0.5520142342200435,0.43227675416962585 l-0.25408647570984977,0.5196247772090636 -4.559999133161116,5.662908035968132 m-0.8410839993340149,0.47733523372017755 l1.3021210002495183,1.1969311369286784 1.091674219355608,1.9299753355128417 l0.6430388979891882,2.131576351158139 0.19984117271362017,2.3066589423407744 l-0.28628830246630677,2.161450445804752 -0.5844044648192981,1.4669331917180473 l-0.8704000258906469,0.548471654176222 -0.6638997710336573,-0.16610923716212292 l-1.228359588752868,-1.1286890523020443 m-4.511550853609471,-5.97483232057013 l0.4642206225963853,0.28540775378310645 0.6590573514103151,-0.06648623063071901 l8.843646898253464,-4.706792206073471 m4.81493921935652,-13.63910059130391 l0.36216867244776174,1.2043166964459833 0.015545330337345138,8.430072297957087 m0.05623488405033734,-9.086176859947978 l9.074705699938754,-0.8466751119639194 0.9529091075060032,0.2873162307295322 l0.30909453188613295,0.6034089957736386 -1.0801352539001807,7.3508791352642175 m-8.486007325377825,1.1373970283396073 l9.290415945317564,-0.8779371285668404 m-7.391305021361679,1.6729158476934807 l0.07944257169716927,0.9525187707963217 -0.20205865949780388,0.7975818099084719 l-1.6693556325330676,3.071984619347984 -2.175604462770715,2.824286215818171 l-2.669469186947289,2.7304093254549064 m5.787580079218111,-5.017770494082645 l1.6372690972061956,1.4595781487964699 1.1019035778801576,1.564165457611078 l0.875104562993817,1.8086081226286084 0.64983797232819,2.0138655513017887 m6.899754437782599,-10.66623808584364 l0.020997273444472556,0.8913276033310757 -0.3505800144547458,1.042785320045324 l-1.5813433155795078,3.172056241238535 -1.8193369608920078,2.5953772736141154 l-2.078785469796317,2.067656652116511 m5.63165738109584,-5.232983678795602 l1.3978972398473246,0.7885899648517025 1.4787390094163901,1.209517022184284 l1.3337842263926272,1.4806232951770222 0.8308900259696711,1.353965680965283 m-26.9986037374885,7.116485143879108 l2.2134489956081063,0.23744184249796427 12.02339084907555,-1.1470658729056231 l14.839545871022986,-0.7807268370951337 2.0598379485079974,0.3317625019060553 m-23.950827747997874,5.222573544128829 l0.24707874943249655,0.7181891771795085 -0.1284594694429344,0.8692152958397371 l-1.0472777643491316,6.30173969136899 0.30494773974125267,0.9920741708313771 l0.8628993211630656,0.10873192630703914 6.912177192175879,-1.4131837370754048 m8.103952035380239,-5.023071304300616 l-0.03119156851562222,0.986785431501035 -0.7467774074395278,0.5935548732584754 l-4.730115787004121,2.5228466324259244 m-5.820979193280776,-3.5005492534203007 l0.9509882211956324,0.49464342292367014 1.8917373989255992,1.323159791242055 l9.96713157146599,7.521265181589188 2.2552205028931733,1.230146991314119 l1.570890824359941,0.45865369832246294 " fill="none" stroke="black" stroke-width="1" /></svg>