<?xml version="1.0" encoding="utf-8" ?>
<svg baseProfile="full" height="104.45861062140881" version="1.1" width="105.43443013481152" xmlns="http://www.w3.org/2000/svg" xmlns:ev="http://www.w3.org/2001/xml-events" xmlns:xlink="http://www.w3.org/1999/xlink"><defs /><rect fill="white" height="104.45861062140881" width="105.43443013481152" x="0" y="0" /><path d="M25,25 m0.0,0.0 m11.020869088368249,12.860698483566326 l0.5377168250116563,0.11805943739551662 2.950474554607168,0.13477437473030035 l31.219015506018096,-1.7779981294103604 6.741176470657996,-0.09876306710475184 l2.9651776901483617,0.23872375835291243 m-33.331941475365596,-3.602223764041775 l1.1742359414965875,1.0900851189672502 1.3792889313592387,7.948504343513339 m16.81259891407265,-9.736591604007495 l0.712588692959886,0.79450574448789 0.07626473253503306,0.943742154371189 l-1.8131854862355123,7.4186760036088994 m-9.235154121804312,-1.071542590514319 l-0.08625144994811001,0.5608651135059975 -0.7026128820582955,1.0398759529314743 l-2.6060954204389333,2.304595504770419 m-3.5354803672388924,0.4530607061891557 l0.4918801753496627,1.434860635044756 0.08454046916282733,14.274189292759367 m0.10047751440339144,-14.807610356941074 l15.726819990604342,-1.3191888698942813 1.3195846660746948,0.2430135835368462 l0.42433479527285584,0.6417458265734144 -1.3122491644318346,13.520385971788697 m-15.803661497570387,-7.092694545987852 l10.521175970907041,-0.8277105396403603 m-10.201784423481374,7.504794399192196 l14.73976539752598,-0.7991024048761394 m-32.02613756828312,10.533356810913833 l1.9436911742424403,0.2902208513699073 2.3377976818197532,0.0007121284128043634 l26.710713956204053,-2.1256601940871342 8.062173110886393,-0.21621615999662658 l2.8556823136504828,0.23648761795044568 m-20.926494211860202,-3.8711384409054137 l0.3868355530362392,1.3816089152839894 -0.224376713289067,4.888226754610241 l-0.6733599432199214,2.675656548302059 -1.4197488196417356,2.556649806704195 l-2.01298067765605,2.006365298288871 -2.6758057290895154,1.572751785697687 l-3.292926518430935,1.1756577534161017 -3.9388463361425323,0.9622006125802965 m16.413858392309454,-11.775280268142541 l12.827836906929369,8.796026236653548 3.130318286698596,1.8416932324267914 l2.2723736965398826,0.7162105422355941 " fill="none" stroke="black" stroke-width="1" /></svg>