<?xml version="1.0" encoding="utf-8" ?>
<svg baseProfile="full" height="93.75496161143508" version="1.1" width="101.42596629114959" xmlns="http://www.w3.org/2000/svg" xmlns:ev="http://www.w3.org/2001/xml-events" xmlns:xlink="http://www.w3.org/1999/xlink"><defs /><rect fill="white" height="93.75496161143508" width="101.42596629114959" x="0" y="0" /><path d="M25,25 m0.0,0.0 m9.699009811941632,11.855682323411626 l0.5530331322248561,0.12417226594844341 3.1980087300561952,0.13278466008794504 l29.242169245900484,-1.4714954304913586 4.895344105317008,-0.07721170967495831 l2.6669050882355427,0.22146437809691397 m-30.390745846996786,-3.551856692882216 l0.9819081524477447,1.1677067921399937 1.2980760555712847,7.746934194162228 m14.944120864162347,-9.668689602867302 l0.2596255324440813,0.8293233866630979 -0.08819172432498892,0.9635349385875008 l-2.4271882516204455,7.010919382646375 m-24.022116111530966,-0.3651153682840645 l2.7195801034437705,1.0595430676581474 2.0748841614980416,1.2224681876763432 m-10.55331976177112,3.5013478735505053 l3.7274494593886867,1.2110029731938161 1.8471396998562535,0.9706791076376633 l0.8129438404118361,0.6714378788682187 m-6.234908471397271,12.615679157069817 l1.2493434840540945,0.10358303622620653 1.0091811620511297,-0.4187941249851397 l5.848465379997483,-8.171601952665721 m7.468724284427465,-16.259059491959455 l2.866432097287077,0.18622088374887943 17.09429062021534,-1.4068628396689582 l3.334688351279699,-0.14522298092745914 2.0009904537861547,0.13809340039729814 m-24.634920245372758,4.288634328535126 l0.648427918163131,0.9813270203834917 0.2426490616405356,0.8602477982805854 l-0.005211222293335744,8.293446025326135 m0.7209467814014898,-9.270823743794484 l19.08743297664984,-1.2386453470044207 1.9134046740508532,0.02584399407000046 l1.163052971717539,1.2319972097141125 -0.11356790163532499,7.460808157259254 l-0.27556945919460885,1.0114440175125143 -0.4818449190001756,0.43726368791522063 l-0.6399488628518303,-0.01907355099762678 -0.6651041795037479,-0.37254333995885236 l-1.216203057885757,-1.04772566727879 m-8.792910942212412,-16.418733382915804 l0.5568292822097745,0.5235778323526147 0.2582722110237756,1.0457603729831706 l-0.014433940282401357,20.024260309957377 m-1.1643906812908191,-10.662280515013908 l-3.026858784562476,3.0011045715489075 -4.5090331296182855,3.3650219480208308 l-4.499056666220672,2.5568059080247285 -4.306867903039042,1.7224114332688119 m18.171815281955663,-9.943549112493288 l4.411267147184688,3.0169420919474965 5.33616662637418,3.567991787691943 l3.871707959393597,2.3612594772062914 2.5899202757539466,1.2344965237446315 m-37.34358392816943,5.941124270670642 l-0.2343912871489879,1.3333078459070165 -0.9417552765445364,2.1532685382062398 l-2.326146571451807,2.3715169935677602 -2.119230250567491,1.3275804526690644 m11.129998161499257,-8.45808426568124 l1.3875690440370458,3.1457363646414294 1.1258659582727686,2.747205127125122 l1.7783013867503872,2.661089340891215 7.345258675225451,2.164672290298299 l3.3460503798290655,0.1336071234890797 3.7308488601029435,-0.06477449863330731 l2.6407832299705083,-0.3904926875351082 0.6496487930700859,-0.30453048400902133 l0.2486592321717991,-0.37980445313789035 -0.12995157582976016,-0.46832065895414066 l-0.501345185517932,-1.2647273443545572 -2.044394185264579,-1.6281870975044288 m-11.792372701528677,-6.662429498025274 l1.2016062083522165,1.9999310997633668 1.1594846641217575,0.8984614019602817 l1.1763130665083166,-0.07086654438169568 0.9593463478128114,-1.3917149623342064 m8.792871418049499,-1.486894912548143 l3.8743892074257618,1.987063139983507 3.0811591388081694,2.459714623159882 l2.573060994251255,1.7716732404958273 1.9561075660016807,1.5372697744259738 " fill="none" stroke="black" stroke-width="1" /></svg>