<?xml version="1.0" encoding="utf-8" ?>
<svg baseProfile="full" height="95.7063783003923" version="1.1" width="108.04393918961887" xmlns="http://www.w3.org/2000/svg" xmlns:ev="http://www.w3.org/2001/xml-events" xmlns:xlink="http://www.w3.org/1999/xlink"><defs /><rect fill="white" height="95.7063783003923" width="108.04393918961887" x="0" y="0" /><path d="M25,25 m0.0,0.0 m10.205199492253007,14.12154402858013 l0.45104947575073134,0.11505809839015908 2.3567993827057188,0.09239251549273991 l10.990304994546031,-2.4107330902003214 1.064752843092145,-0.27177212840041975 l0.7735530744826424,0.16431950325045663 0.4612308749276269,0.4759169053285367 l0.01645389131741348,0.6465168803155298 -0.4476880714381917,0.7545046140989977 l-4.488118625082848,5.235635237439798 m-2.790350427457207,-1.4154002506067511 l1.899778204906735,2.0226042240632465 1.108780480301823,2.3833952781346976 l0.7084310778877474,8.112190522067392 -1.4512963840710713,4.778025686242429 l-0.6267310266431247,0.8204739833449143 -0.6298017379881135,0.3578854419124636 l-0.6797763238069238,-0.07379761712763434 -1.198704629510903,-0.3957409379212691 l-1.4409812148955294,-1.1892647534453409 m-5.881377898262606,-7.456831064543971 l1.2679975229436962,0.2656413835320018 1.5796508295476919,-0.4223425832230153 l14.453881678020801,-7.588177598274326 m6.382768271420516,-13.98450139149002 l0.4831526834363663,-0.005368196437668001 0.646067306610463,0.5940332555893643 l0.3218372479918039,8.78024017429589 0.0036169230828582083,3.96755523271506 l-0.10613033568096941,4.119773433819079 -0.43201473950208336,3.395773858044902 l-0.7752472999680988,2.994007206274325 -1.2715831516591993,3.158491894088625 l-1.7024358658892436,5.347157926478279 -1.8122908781371134,4.501349307971759 l-2.0251957823268634,3.715821320592265 m-1.4025254563246832,-35.93096322099636 l1.530992488702419,0.32813669145304536 1.5890453051942866,-0.05451489744349427 l12.735075491680753,-2.6965756882007756 1.8086883680416226,-1.1238326062434452 l2.161748269697544,-0.3949733441778764 0.6660456685542313,0.13449346345447538 l0.365544874042474,0.3686131998917404 0.08666933304845577,0.6269869538319557 l-0.2532295422803943,14.047729506695012 0.8357749054814274,2.641835257973836 l1.6814522326190577,1.6924777688788644 2.320867372324097,0.6129325151957143 l3.4751168849015572,0.004226557274649977 1.4980483370411213,-0.30410770280586413 l0.8073770364565991,-0.5046919454470783 0.50835303127446,-0.9123646454818348 l0.21331272625809797,-1.7608767944578931 m-28.126583037844526,-11.067160865858884 l1.9052485743496406,1.1412475340136017 2.0368788435369107,1.890428257338261 l1.7987078595118628,2.1202706769065394 1.0012436294431277,1.611620420233766 " fill="none" stroke="black" stroke-width="1" /></svg>