<?xml version="1.0" encoding="utf-8" ?>
<svg baseProfile="full" height="95.35883718717153" version="1.1" width="101.01713664270245" xmlns="http://www.w3.org/2000/svg" xmlns:ev="http://www.w3.org/2001/xml-events" xmlns:xlink="http://www.w3.org/1999/xlink"><defs /><rect fill="white" height="95.35883718717153" width="101.01713664270245" x="0" y="0" /><path d="M25,25 m0.0,0.0 m16.582757726623495,16.051287910006 l0.45326546706738174,0.14548034022568085 2.399939309232225,0.13025240169021618 l25.000295694274655,-1.8536816614179155 3.9763155279479077,-0.11568734831966877 l2.604562917556783,0.22054393475416442 m-26.622976744268247,-3.9103793804453546 l0.8214345244421302,1.1559853756287526 1.2773105388547359,7.791355759008714 m13.365766028988148,-10.064498028477173 l0.1666064358839129,0.7933273629215352 -0.10663136166317992,0.8952729590357659 l-2.2103420645107223,7.205964810162927 m-19.803254507012486,4.168712385245919 l0.5504718710318337,0.16326280534468407 1.513998678895832,0.07628341459029155 l8.758797572633927,-1.4601396026571334 0.5977201507603523,0.17944986617158265 l0.24537647904052717,0.39096355914506337 -0.2529029012964257,0.5189807555758699 l-5.2053660353880815,5.689564413805865 m-1.0595594702570381,0.09257130955686851 l1.5352191047639152,1.1604359440944845 1.2268643161380786,1.779820260624227 l0.737769720659865,1.9034892659312412 0.29030558259439526,2.1093533659675403 l-0.24873589533070053,2.937044926959698 -0.6040520361358218,2.029616030376758 l-0.8232549116138225,0.793641391174091 -0.614573012330179,0.014302120470041715 l-1.0056308527344575,-1.1580754634402222 -0.545211326738266,-1.082052088726611 m-4.9176657397047885,-5.658366998273824 l0.5092950205006103,0.28735091358391485 0.7895728196049259,-0.12541637594279192 l9.456357994898541,-5.293222046424036 m5.580292466549748,-15.048925906027458 l0.44849930873695615,1.1388029564018247 0.035701174581803774,8.919517814954935 m0.09809541813273835,-9.442266059585357 l10.082701322716119,-0.9534472280247128 1.084057565956115,0.26952599085821816 l0.40592125833614057,0.624106237280435 -1.3603280618285156,7.23058023315336 m-9.006839166619686,1.2543472769724469 l10.02881072325541,-0.9708740462077167 m-8.132514909211707,1.7814424886593623 l0.03726679444579396,1.0050647331097422 -0.260619534447759,0.8449966077309946 l-1.7847868823509583,2.8796490922754274 -2.356205491757774,2.8672026398298733 l-3.2065635442116127,3.107435130727231 m6.019564530981721,-4.9790533619032455 l1.8208529894455778,1.117384425318593 1.552127438750728,1.4881657721894008 l1.336746943146326,1.810900440196063 1.4697427935460883,2.00542407725942 m-1.6296832805275352,-11.657454706421992 l0.022055560042028792,1.2042794199421432 -0.3623280436505827,1.0534432005018315 l-2.0319199519477213,3.402856459786222 -2.4850410625540946,3.044785700337934 l-3.2023622783585335,3.223029060126437 -4.250769247326301,3.3552098914283524 m8.624882193716278,-6.6708022224113535 l1.386611967220111,1.1249523282487437 1.4920450064679815,1.7945976433475679 l1.2616355163453237,2.0439839214032163 0.8205094226673341,1.9795946751094087 m-25.37244424784009,-16.917464639906054 l0.3685165012355749,0.8660773389954183 0.11553966033876414,1.3993743246236774 l-0.4425031156507069,18.189671054972163 0.06749937336889146,0.9241867687522137 l0.2623768177882808,0.6180905521759694 25.741986627596603,-1.5605163243665445 m0.199456288196974,-20.24511220100841 l0.6823458983142761,0.7499063372879134 0.23554832541847542,1.3651194654251286 l-0.8933155349535017,21.158255235725534 " fill="none" stroke="black" stroke-width="1" /></svg>