<?xml version="1.0" encoding="utf-8" ?>
<svg baseProfile="full" height="116.50037147737217" version="1.1" width="99.42434269766335" xmlns="http://www.w3.org/2000/svg" xmlns:ev="http://www.w3.org/2001/xml-events" xmlns:xlink="http://www.w3.org/1999/xlink"><defs /><rect fill="white" height="116.50037147737217" width="99.42434269766335" x="0" y="0" /><path d="M25,25 m0.0,0.0 m6.760656386367324,10.693142755630413 l0.5161916384251843,0.1254686772058195 3.389015780863787,0.13226070525327865 l15.301007788988823,-2.0289542182248823 14.021960045018247,-1.158045746296604 l4.158890197256963,-0.12465194173179604 3.0205762760558987,0.4104236983882896 m-30.59340323686471,-5.127106999736261 l0.7571995927454039,0.813191665690229 0.34800387407038597,0.8593366811583337 l1.638092569032226,11.323579470919004 m14.80614694283313,-14.518525957482835 l0.1788938540311525,1.7762691976376814 -2.210521479967986,10.574343585718506 m-26.893261562297663,7.799127443349853 l0.7700232508925487,0.2516016220176384 1.4445332554843382,-0.06521119457140184 l8.956460515175168,-1.9379079206833076 0.8831287349620272,-0.059712676303585954 l0.5632639980471084,0.34266668444647547 0.3207563711723994,0.6128182685413819 l0.04893297894027293,0.7750615866896018 -0.27102793539838427,0.8495100187079977 l-5.020590807269769,9.20008605461902 m-0.07053896104022518,0.5375636038896431 l1.76486322077339,1.6535150758766375 1.9553985379658056,2.9995867184564817 l1.1559255464490212,3.3264895475877774 0.43798254804954045,3.3069749400693538 l-0.4172124009917412,3.6652462726858253 -0.9898863575083796,1.957192259467783 l-0.9388721790286683,0.6646620345081033 -1.0787861306607387,0.05545203595990589 l-1.9773862785701937,-1.1947195522069158 m-5.5954644258811275,-26.935975738041186 l0.47983442354590017,0.9795919313104557 0.15140927292293543,1.2144437651761057 l-0.047833445146562306,37.70053079683431 m25.31502931000236,-45.00176940044639 l0.5746994180753531,1.8061481297605382 0.033144240789361235,4.416557694271079 m-10.34344046796033,1.6859037559525902 l2.6517340789108843,0.08222904600826893 16.166376214432308,-2.2805017303982975 l3.10226749145438,0.08492371827096323 m-17.945867438311385,4.942331177611637 l1.7963099763386419,2.0183286886172276 0.6814853298951921,1.7388774559376476 m10.140622339874065,-5.650804456382296 l-0.32477889367426527,1.371514824438705 -2.390566882655421,4.686230682673795 m-16.4457151685914,3.027805384735951 l4.243350417960016,0.06813891272433689 20.40397006354975,-2.472515387731966 l4.041360268130984,0.1008628120534057 m-26.190191951372793,4.570597865752821 l0.3771909803797222,1.0740711100304052 0.007410708490771055,1.7684707849974823 l-0.3411477549158518,12.385393138953535 -0.5152808739202541,3.9850274999123823 l-1.82363991248653,5.91710771033875 -3.2182519991432716,4.7261169067724715 m11.48771397880195,-22.246997287527552 l2.376349311882378,1.8138262770082458 m-8.99980913015082,-27.46904246798954 l0.40956034459307605,0.6901501896612684 0.15214189232471562,1.5142563082612996 l0.07056400400207237,29.26088820327286 m6.979705829125877,-19.205026066314623 l1.8147880219072468,0.23884315807627413 7.758036373193119,-1.448890505886068 l1.1231305496835016,0.05225039660740641 m-14.633213369699824,8.284295849500378 l2.598112555121473,0.13011575047256277 12.497789449219669,-1.7016648092053779 l2.028333186628351,0.08317192143882811 m-17.166361305398325,2.5781066353746764 l0.4427161860846651,0.9092604018828391 0.17916643182630804,7.1631468084839875 m-5.2171921135793475,1.0082468231111192 l1.5644226053263661,0.22631739935168957 14.823330680500183,-2.0038704056976133 l3.2102393086046264,-0.12651911555966294 1.6414129843011134,0.35008883793483864 " fill="none" stroke="black" stroke-width="1" /></svg>