<?xml version="1.0" encoding="utf-8" ?>
<svg baseProfile="full" height="109.49251257115975" version="1.1" width="101.18215874935686" xmlns="http://www.w3.org/2000/svg" xmlns:ev="http://www.w3.org/2001/xml-events" xmlns:xlink="http://www.w3.org/1999/xlink"><defs /><rect fill="white" height="109.49251257115975" width="101.18215874935686" x="0" y="0" /><path d="M25,25.00000006519258 m0.0,0.0 m5.57088315486908,7.162760496139526 l0.5513152107596397,0.1879197359085083 2.8491970896720886,0.24439508095383644 l19.72196340560913,-1.6633179783821106 12.052695751190186,-0.7489223033189774 l6.906247138977051,-0.14164862222969532 2.92260080575943,0.40533483028411865 m-33.872807025909424,-3.833373486995697 l1.184225156903267,0.8313833177089691 0.429159514605999,0.6136925891041756 l1.7742899060249329,9.845702648162842 m16.139988899230957,-12.903926372528076 l0.7587672024965286,1.0541146248579025 0.10565562173724174,1.2623544037342072 l-2.02592596411705,10.264859199523926 m-7.641544342041016,-2.419486343860626 l0.096795205026865,0.5872294679284096 -0.48602376133203506,1.3477294147014618 l-2.1465064585208893,3.2981252670288086 m-2.8706195950508118,0.4388469085097313 l0.5935302004218102,1.7226237058639526 0.32902441918849945,15.801796913146973 m-0.15484081581234932,-16.230720281600952 l8.897281885147095,-1.509796380996704 1.0399380326271057,0.43207358568906784 l-0.25931505486369133,16.42848491668701 m-9.405753016471863,-8.206090927124023 l6.219780445098877,-0.845244973897934 m-6.053755879402161,8.291780948638916 l9.05133605003357,-0.5613274872303009 m-21.2914776802063,-17.541275024414062 l0.14339118264615536,1.1101913452148438 -0.22084111347794533,0.5607663094997406 l-2.877550423145294,4.3638962507247925 -1.7676740884780884,2.0042669773101807 l-0.20930780097842216,1.1042056232690811 0.20934225991368294,0.3670183941721916 l5.4910993576049805,1.7935071885585785 m4.768403768539429,-6.245298981666565 l0.12614288367331028,0.9482622146606445 -0.4805893450975418,0.8732832968235016 l-4.977273941040039,5.965230464935303 -5.507166385650635,5.788179636001587 l-0.2806982025504112,0.7403375953435898 0.5903798341751099,0.20808210596442223 l11.207765340805054,-2.8970038890838623 m-1.7553876340389252,-3.349476158618927 l2.2688983380794525,3.115403652191162 1.5184009075164795,3.6144226789474487 m22.88430690765381,-21.61407709121704 l0.14340102672576904,1.06482595205307 -0.22084111347794533,0.5352483317255974 l-2.877550423145294,4.369566738605499 -1.7676740884780884,2.011197954416275 l-0.20930780097842216,1.061045452952385 0.20934225991368294,0.35189662128686905 l3.3283689618110657,1.0725443810224533 1.5172195434570312,0.8242949843406677 m4.768403768539429,-6.230176687240601 l1.968982815014897e-05,1.2903925776481628 -0.9832312911748886,1.355920433998108 l-3.9552929997444153,4.808728992938995 -5.578050017356873,6.055331230163574 l-0.19737085327506065,0.5922700837254524 0.2786504477262497,0.514770895242691 l0.5510001629590988,0.13192185200750828 1.3723023235797882,-0.39174884557724 l4.309079647064209,-1.6036184132099152 4.558274149894714,-2.0890119671821594 m-2.2392848134040833,-2.2254233062267303 l2.9468584060668945,3.2411035895347595 1.4052237570285797,2.3029224574565887 l0.5641530081629753,1.4561022818088531 m-44.31692123413086,7.908695936203003 l4.083828032016754,0.32257847487926483 28.912229537963867,-2.171000689268112 l8.241374492645264,-0.44947944581508636 3.87369841337204,0.026719097513705492 m-24.356162548065186,-3.767845928668976 l0.8468201756477356,1.012214720249176 0.21061226725578308,0.913214311003685 l-0.1341246534138918,19.2572820186615 -0.23088784888386726,2.8098171949386597 l-0.5869144201278687,1.0629357397556305 -0.7888533174991608,-0.12908652424812317 l-2.0266346633434296,-2.4109801650047302 m2.9033836722373962,-16.89607858657837 l-1.6731630265712738,2.2017954289913177 -2.1643060445785522,2.270158529281616 l-5.700599551200867,4.5267704129219055 -6.356821656227112,3.6638832092285156 l-7.4934762716293335,3.080119490623474 m24.678759574890137,-15.444387197494507 l17.248605489730835,12.003865242004395 3.327738642692566,2.025217115879059 l2.6425325870513916,0.8816318213939667 " fill="none" stroke="black" stroke-width="1" /></svg>