<?xml version="1.0" encoding="utf-8" ?>
<svg baseProfile="full" height="109.49251521145925" version="1.1" width="107.19693448685575" xmlns="http://www.w3.org/2000/svg" xmlns:ev="http://www.w3.org/2001/xml-events" xmlns:xlink="http://www.w3.org/1999/xlink"><defs /><rect fill="white" height="109.49251521145925" width="107.19693448685575" x="0" y="0" /><path d="M25,25.000001271255314 m0.0,0.0 m7.24828839302063,8.69103193283081 l0.5695664510130882,0.16078021377325058 3.289158344268799,0.12691122479736805 l17.440695762634277,-1.8314631283283234 16.10200524330139,-1.217804178595543 l3.9565840363502502,-0.03847362007945776 3.611518442630768,0.4877772182226181 m-33.709635734558105,-4.722828567028046 l0.9760341793298721,1.7096588015556335 1.296755075454712,9.457170367240906 m16.926453113555908,-12.822761535644531 l0.33315323293209076,0.911114513874054 -0.005756427417509258,1.0534261167049408 l-2.1089309453964233,9.03791069984436 m-28.224401473999023,9.220516681671143 l0.6142587587237358,1.52321457862854 0.07491474971175194,6.725425720214844 l-0.23293541744351387,8.29820990562439 -0.5701261386275291,6.195194721221924 l-0.7600882649421692,4.47274386882782 -1.0742132365703583,4.033976197242737 l-1.4299923181533813,3.586893677711487 -1.3306939601898193,2.390836179256439 m5.822945833206177,-36.636459827423096 l7.603280544281006,-1.6898511350154877 1.1135488748550415,0.2600385807454586 l0.7440181821584702,0.9251857548952103 0.20099524408578873,0.6632683426141739 l0.10262380354106426,33.52511167526245 -0.19363980740308762,2.01986625790596 l-0.5097636207938194,0.9114342927932739 -0.7189137488603592,0.07383417338132858 l-0.8218898624181747,-0.49313388764858246 -2.019226551055908,-2.177528440952301 m-5.173109173774719,-24.130942821502686 l8.730580806732178,-1.303231120109558 m-9.14888083934784,11.390049457550049 l9.15015995502472,-1.002098023891449 m8.739535212516785,-22.370755672454834 l2.500847578048706,2.0753517746925354 1.6711227595806122,2.4045874178409576 m15.708649158477783,-6.98958158493042 l-0.1325377356261015,0.9715569764375687 -0.8396387845277786,1.7342835664749146 l-2.996859848499298,3.718971908092499 m-16.087294816970825,5.0298380851745605 l2.8625431656837463,0.157302375882864 14.719504117965698,-1.969897300004959 l3.9134109020233154,0.07699220906943083 m-25.625054836273193,8.560446500778198 l1.8414171040058136,0.32523810863494873 1.9693377614021301,-0.006555931176990271 l20.06338596343994,-2.4325300753116608 5.571901798248291,-0.4274746775627136 l3.1158259510993958,0.20299401134252548 m-17.92935013771057,-15.237901210784912 l0.32545801252126694,2.095979005098343 -1.018567755818367,4.5664456486701965 l-1.7166945338249207,5.486514568328857 -2.0576028525829315,4.732422828674316 l-2.1413908898830414,3.642539083957672 -1.9341595470905304,2.533467411994934 l-3.0656173825263977,2.970955967903137 -2.6965662837028503,1.8276655673980713 m16.332902908325195,-15.422106981277466 l1.077091470360756,0.45319870114326477 2.10365429520607,1.5385650098323822 l11.224392652511597,9.532963037490845 3.8219475746154785,2.209188789129257 m-20.3035569190979,-4.009031653404236 l0.5313501879572868,0.8250878751277924 0.25464193895459175,1.7358826100826263 l-0.22221706807613373,18.17479968070984 -0.4643517732620239,0.8314839005470276 l-0.6549534946680069,0.15862153843045235 -0.7489751279354095,-0.30349161475896835 l-1.8391785025596619,-1.5715046226978302 m-6.119721531867981,-13.72332215309143 l2.221341133117676,1.6014060378074646 1.4795616269111633,1.8567675352096558 m-6.488132476806641,8.140866756439209 l0.5935515835881233,0.4253360256552696 1.1378537118434906,0.042613549157977104 l6.697282791137695,-5.477879643440247 m13.08883547782898,-9.84476923942566 l-0.12901992537081242,0.918789729475975 -0.6909310817718506,1.1548032611608505 l-3.4829580783843994,3.5587510466575623 m-0.24240951985120773,3.7148141860961914 l5.398569107055664,3.3662307262420654 2.5849556922912598,2.162497788667679 l1.5136204659938812,1.688871830701828 " fill="none" stroke="black" stroke-width="1" /></svg>