<?xml version="1.0" encoding="utf-8" ?>
<svg baseProfile="full" height="126.44618902732452" version="1.1" width="101.41748127121033" xmlns="http://www.w3.org/2000/svg" xmlns:ev="http://www.w3.org/2001/xml-events" xmlns:xlink="http://www.w3.org/1999/xlink"><defs /><rect fill="white" height="126.44618902732452" width="101.41748127121033" x="0" y="0" /><path d="M25,25 m0.0,0.0 m12.398534170288992,3.7451673352512485 l0.39566265515255705,0.4502367153205095 0.531731187953796,1.177089796797015 l0.11740852160677254,6.106110285376469 m-12.112526880077116,1.222786003513185 l3.3269992502039707,0.09783947129642259 16.563829644634744,-1.7345216866262962 l2.624790326218478,0.11367441391629302 m-18.8185957515453,5.5577601475911615 l2.964672235107321,3.7077885114812625 1.2558347183349308,3.325272626354434 l0.4451614612337324,2.570012741181823 m11.057366818511744,-12.118234332220709 l0.3617982025820794,1.1386974097180211 -0.42582465286168386,1.657980602455067 l-4.021467595262412,9.548851681947795 m-14.81331373945161,4.032372085838129 l2.712263799538085,0.13805931657825074 16.690138549814364,-2.1622047979968406 l3.569937158333757,0.08586797188555197 m-23.297112627729348,15.385382160473133 l0.6930573762016232,0.3620261920336402 1.3345166603309135,0.0969668923452695 l19.649765086422697,-6.399051096986342 m-10.587255479140548,-6.1985859378105355 l1.0408388951200997,1.5305600203679208 0.20625162735451064,3.7078698136832497 l-0.49919816903337455,5.459094445892891 -1.1461914078239488,4.926592120178921 l-1.5581996834948109,4.138205256721508 -1.7282861686742017,7.014345597300756 l-1.5326931474886767,5.1984647425486115 -1.6892484819087643,4.213213986815766 l-2.041586421166069,3.563458757575868 m36.30585295478571,-58.46112189208555 l-0.17484791394211158,1.3953461521816795 -0.4309946244048472,0.7116203980572655 l-4.579117346360595,6.572573368935921 -4.016372285744333,4.50327417281377 l-4.5637957169098415,3.7531966176485745 m-1.2833049329071369,0.08251910716707439 l0.6830816955389898,3.1248035886745464 0.006806098790701155,12.374687053549424 l-0.5090207563424514,8.339147786012058 -0.9401881399109892,6.351726909524121 l-1.364511097547429,5.205784803430544 -1.396979158910754,3.497267581451669 l-2.442651156770334,4.271473430430403 -2.2829534537933065,2.6641293229800205 m15.21921486496261,-45.36771425845108 l0.6414141905680517,0.8960573139830815 0.4428462672711307,1.9767989600842133 l-0.11455497237646477,37.685237295529085 m-7.714932371177026,2.5218086652945364 l1.0300568480669636,0.4793779360523793 1.479249415720365,-0.11104890407506167 l11.630044862780174,-6.308286525365669 m-1.8490267654743053,-6.674167933332671 l2.160617135137862,6.552028714549068 1.3885955438978241,6.567116137925658 m-3.0560628877303886,-45.25166145198386 l0.7682515591469089,1.3522517169448804 3.5140327566902383,18.976892706659527 l2.9826461280124885,11.923253724073769 3.208246963693202,9.79194237059667 l1.4617104493748503,3.210776898982376 1.5450689777872868,2.179948008286651 " fill="none" stroke="black" stroke-width="1" /></svg>