<?xml version="1.0" encoding="utf-8" ?>
<svg baseProfile="full" height="106.60665979243682" version="1.1" width="104.54854697385642" xmlns="http://www.w3.org/2000/svg" xmlns:ev="http://www.w3.org/2001/xml-events" xmlns:xlink="http://www.w3.org/1999/xlink"><defs /><rect fill="white" height="106.60665979243682" width="104.54854697385642" x="0" y="0" /><path d="M25,25 m0.0,0.0 m13.948022342571708,13.00440335647826 l0.4550603404352943,0.16015465152170397 1.7920738860628993,0.173153347100892 l30.788395602013036,-2.462981042617484 4.992588189871325,-0.14883473839403133 l2.5724066129021486,0.27671138252485544 m-30.91523446511275,-4.425806348099355 l1.0938339927499774,0.9250731451290868 0.38712892223208684,0.6434311352462675 l0.804609468889683,9.340939599866976 m15.052971411323863,-12.332165814711537 l0.6683973530842633,1.3690463943135773 0.017531894630032113,1.0811725217197474 l-1.9337298456878886,9.20143679849092 m-7.991190778068124,0.34132155899662664 l-0.10100774587616625,1.3553992521032725 -0.5830309311729766,1.058879022864249 l-3.4785268745432427,4.322055021356816 -4.349327289681689,3.8806957661192376 l-4.759954206519975,3.301079997113898 m12.234659776764166,-9.964154628437898 l1.2651861877586636,0.4148693199268234 1.127679759088993,0.02975737661991887 l8.132586898152287,-2.5540888587251662 1.3265420649881001,-0.26661739998110484 l0.9052412323933903,0.2603994701766497 0.3667943245366891,0.611287930252605 l-0.1102848397779009,0.8121838614209459 -0.8098133687237993,1.5096388217887913 l-1.9707805215469056,2.421688003233211 -2.6854255910920104,2.660717558544175 l-3.2918612150531383,5.105838634320095 -5.774698202083226,7.430917842212083 l-2.8069744405410106,2.92223503512428 -3.1752141311519897,2.704195703080116 l-3.4190575867557564,2.2791664317969187 -3.6012055765258038,1.2177414120949757 m12.257608073544999,-22.428210761485822 l2.010169168885083,0.9554243299745822 2.6117058393455372,1.8705816280387149 l1.7465168729954919,1.7856074930504906 0.8422269522340495,1.2493190654110349 m-4.976201510908727,8.504509454922434 l0.4957031446865962,0.9286799932530566 0.23513171020951495,1.6150445565272404 l1.3747428847065861,13.464762512173682 m-1.1072921497503168,-15.248129325728584 l16.543571301502162,-2.2413884341190866 2.4440508874002442,-0.17739538016928486 l1.0700999507130327,0.30581040817037947 0.7322063068743077,0.9376727880569694 l0.13376075857265957,0.6955465890380513 -2.211778518256083,12.205044538272062 m-17.90981021296369,1.8820172209364017 l19.01022571525661,-1.3408392729925025 " fill="none" stroke="black" stroke-width="1" /></svg>