<?xml version="1.0" encoding="utf-8" ?>
<svg baseProfile="full" height="89.28148540580958" version="1.1" width="93.36423328171117" xmlns="http://www.w3.org/2000/svg" xmlns:ev="http://www.w3.org/2001/xml-events" xmlns:xlink="http://www.w3.org/1999/xlink"><defs /><rect fill="white" height="89.28148540580958" width="93.36423328171117" x="0" y="0" /><path d="M25,25 m0.0,0.0 m14.828392553053176,12.213034126254394 l0.442432512666346,0.14119954946811578 2.1825368317447147,0.12386141739194143 l9.923219782695014,-2.0556618080119 0.8493083132804686,0.04640382660459662 l0.5397237134433488,0.3566059833793137 0.20103606174178046,0.5844255910956903 l-0.2864273635278883,0.6783509309006466 -4.167455648217946,4.552940440402408 m-4.425161842215998,0.7506179412143505 l0.6046676454432381,1.3673991748437098 0.0712394496180012,3.2456357877098645 l-0.15788853153630725,16.41419955944272 -0.6867874161405862,0.8624728851137229 l-0.5666618396535125,-0.14507784593900003 -1.6820466360112734,-1.77644669679785 m-7.94837928493236,-11.419973629437301 l1.094363383205356,0.2372303104156706 1.3585049837489394,-0.505169826688012 l13.603131426299058,-8.106499945211946 m6.264201527254896,-15.677335350447335 l0.5796899611118722,0.72380337108809 0.22401333672088278,0.9514513221535972 l0.004497049554673923,6.5105476978195576 m-8.236431200327644,1.832095825958887 l2.1390455301030182,0.1265514342879702 13.051124576860605,-1.9996145086120032 l2.1303572115352645,-0.12550347349009072 1.4299871941940283,0.1937725603150274 m-11.417930387797998,5.419463153119019 l3.46320924284206,1.5866087795267958 3.559138685049271,1.349038558318687 l0.7657262010307458,0.9991759475642848 -0.3048351908164583,1.0572343895128833 l-1.1808597839974675,2.883520855472256 -2.129431924624948,4.619379077850132 l-2.160923595910032,4.0675834781331295 -1.9757145801349056,1.575043669148555 l-0.8965891612256917,-0.3802335841818319 -0.9772979330229487,-1.070459558449917 m0.6528423881554736,-21.517280705780866 l0.07493785000168085,0.9288402638746793 -0.13181594152801646,2.4710913466782682 l-0.69249696603638,3.8424496620088955 -1.0627661693534154,3.844616783961413 l-2.496898507074452,3.337975836150465 -2.052817644414148,1.537348287635096 l-2.053858504431615,1.1516218292460008 " fill="none" stroke="black" stroke-width="1" /></svg>