<?xml version="1.0" encoding="utf-8" ?>
<svg baseProfile="full" height="117.7224467325569" version="1.1" width="106.89797146116717" xmlns="http://www.w3.org/2000/svg" xmlns:ev="http://www.w3.org/2001/xml-events" xmlns:xlink="http://www.w3.org/1999/xlink"><defs /><rect fill="white" height="117.7224467325569" width="106.89797146116717" x="0" y="0" /><path d="M25,25 m0.0,0.0 m9.684730740753999,17.39108204526632 l0.4914743334610712,0.11948423850644499 2.694306393163679,0.1306313075247525 l28.946363093260732,-2.2504206894527865 5.835855156463739,-0.15743099765784516 l2.6519420196761403,0.27151358810013976 m-30.63364634124876,-4.4447160860381025 l1.103527712533539,1.3352064273261723 1.8411779126683343,9.546374258239645 m14.349531883041337,-12.225213371452046 l0.15231450433202467,1.5272121255192777 -1.8463776117094135,9.543525615558805 m-8.588304378665372,1.2545999934745167 l-0.047560576268750925,0.6243313610622431 -0.5421291286211336,0.6711078738138998 l-3.1266892030104008,2.1575885912063795 -4.208898391459179,2.042050267222494 l-4.688603052974869,1.600303515870486 m-1.7733872887195237,4.870200913823354 l2.827517619682033,0.15374043218922906 13.80888182902189,-2.2160277162567947 l2.240204278540299,0.051441829715932336 m-8.114814141094868,-4.723768701520389 l0.608162815128614,1.7855593597927335 -0.17071170282160125,20.058123586044204 m-0.4991966340928671,-16.079677232176785 l-2.029446063922126,3.879765436372081 -2.1709104133008723,3.4987373036028306 l-2.292884121793848,2.889644623878569 -2.4526442168961755,2.275504686232336 m10.871512872754874,-9.74814626513689 l2.023935074777311,1.731184146852091 2.0625865384424307,2.6569150217421202 m7.9734971319129695,-14.88855466186273 l-0.24871128615178406,1.9874551003830332 -1.4837324769751397,3.414840092296809 l-1.8225884828636847,2.7994238328614234 -2.1452143084908055,2.3215887714246044 m11.022155163360058,-11.944066286535207 l1.4134461935332978,0.4481190654668819 1.6793454211809806,1.0090560879975612 l7.4780940800021956,6.952054476288577 2.3683193941121505,1.2252023067448923 l1.6555391204446557,0.31374812301144583 m-13.682783128450025,-2.616514559275244 l-0.03912577918221607,0.9382886995120366 -0.49634954563430034,1.145548636001187 l-3.338785044952085,3.914306991371628 -4.647027950397813,3.773704620046406 l-0.4813043789869768,0.6727207247348913 0.1293013763411345,0.5100938717959593 l0.6288598369769575,0.10743075942780062 8.576656501659293,-2.0537538676206326 l5.873115361671473,-1.0983939598750225 m-2.7242153422514663,-3.7066197597136634 l1.56866123171794,1.477683066112774 1.7334613802394656,2.328453745488476 l1.3931931287739319,2.4836110627833063 0.6082042701890497,1.801008651978524 m-10.484432885701374,7.682177321669668 l0.43207729532718825,1.1815156723120952 0.02210350835632287,1.0118674876781901 l-0.1323537876382723,14.310023170805827 m-6.70975621127438,-12.011985508284951 l0.0705228802235329,1.2405274691662205 -0.528869864434751,1.022122277423994 l-2.829581615898299,3.6257980583887375 -2.9263925628231258,3.1459767181749645 m19.662863638323135,-9.261399313876678 l1.8002794937931945,1.480942639665183 1.7651179457173582,2.139258578673832 l1.7210228252213073,2.63580347796359 1.121767247702483,2.3162917524744695 " fill="none" stroke="black" stroke-width="1" /></svg>