<?xml version="1.0" encoding="utf-8" ?>
<svg baseProfile="full" height="124.4616070339861" version="1.1" width="102.66522537430004" xmlns="http://www.w3.org/2000/svg" xmlns:ev="http://www.w3.org/2001/xml-events" xmlns:xlink="http://www.w3.org/1999/xlink"><defs /><rect fill="white" height="124.4616070339861" width="102.66522537430004" x="0" y="0" /><path d="M25,25 m0.0,0.0 m8.740406501840328,13.681957959882475 l0.45453281002781803,0.12710152149930562 2.5361306186581576,0.10568090136600479 l12.799583108348322,-2.074664611125359 2.4273107292781346,-0.17019310658375428 l0.8346493012930192,0.21400419166618836 m-15.122482558592223,-6.305351950902356 l0.5927624379639473,1.610658712349749 0.9396965145386049,12.899888373134305 m8.005030082380179,-16.639973537861355 l0.16574270672493,2.498976970099493 -1.535129293351011,12.833172104018852 m-6.560024020533277,1.2259407747519335 l6.5034443667997275,-1.0409975915097935 m-12.243180947677136,7.278233221037711 l0.3706201970722607,0.7044495150588623 0.7025670674117375,3.586329943704082 l0.8668453513954983,6.7073051928208 m-1.289751953870228,-10.034085833939313 l11.407747583366064,-2.228702588039348 4.27593877597831,-0.760581951449575 l0.8863369031637458,0.15826982210895546 0.44312958503483446,1.006569500144014 l-1.670337570345527,8.16655735732984 -0.8013405169327265,2.4695485038908283 m-13.271783700221391,2.241281020041526 l14.925938004946552,-1.9845650387404679 m-16.612183855038268,9.56548481759087 l2.458231340004866,0.18929607910100948 11.548512783465053,-1.9759567456329785 l2.065241101145069,0.10805191897569762 m-17.379028976753425,10.148177753457514 l2.302053435207415,0.30078784798249886 14.889877189352116,-2.6932937836624564 l1.394689181878285,0.23335011823891255 m-9.762392288100015,-26.208876044634746 l0.5013499169675537,5.415228116301788 -0.16072996221962713,13.503571560359179 l-0.5177624150472584,7.214493646817461 -0.9532393801800817,5.8208760746896315 l-1.3864859814220893,4.53948180429576 -1.818176566035364,3.5265071583903542 l-2.270395550886238,2.8725927882769766 -3.2592887160062958,2.6055703448406597 m9.514098665858684,-14.2103147465505 l2.4889859330064352,1.8982429205794897 2.4523051092709522,2.5066490950174973 l1.949621488317254,2.8029750285305948 1.2951644836619682,2.7711313734988883 m10.049223959305104,-56.400483799256776 l-0.17300441909417721,2.828548433493189 -2.3341976932529906,9.013085100212365 l-2.550939238782149,7.700608202321868 -2.6910002451870296,7.744019071186573 m3.91880955765594,-9.142369777336711 l0.49479008576536077,2.476031406409303 0.036305666113588195,36.07278447367877 m7.505029151957035,-55.037526630722645 l1.7756799265559156,0.23241076037530187 9.164418546434831,-2.257978094697002 l1.4174349865246738,-0.2176558863529568 0.5993807730210934,0.2121249807198321 l0.34782642384294876,0.5325046494374939 0.15654584372920557,0.7418058292219448 l-0.37871609221488484,8.252552320851846 -0.9753275070502543,15.29373636743411 l-0.8146792469710902,6.572129773731164 -0.39873417008953316,3.0242443497708806 l-2.010497066893234,3.668099848934958 -0.9676340256808089,-0.3510325588822234 l-1.5842969761467598,-2.3082521005448853 m-6.1996208718971175,-33.98260678376596 l0.3916895990371018,1.1059728032837917 0.11500875369434342,2.39020017703102 l-0.14757747158877016,52.36355899089429 0.2902352534701874,3.0432055052929874 l0.6175099340124188,1.6920918232937714 0.6286155886072773,1.0044989136853772 l2.0432743620023857,0.9284947647168436 4.9857613149328674,0.05596761834987294 l2.8440518397337424,-0.6249707239167174 1.0733627237935124,-0.7697758918661519 l0.9716651059013595,-1.9231842434842088 0.29995015035679573,-2.814709652948944 l0.04005183155551002,-3.9185113481346714 " fill="none" stroke="black" stroke-width="1" /></svg>