<?xml version="1.0" encoding="utf-8" ?>
<svg baseProfile="full" height="102.24808753104784" version="1.1" width="110.15649126759726" xmlns="http://www.w3.org/2000/svg" xmlns:ev="http://www.w3.org/2001/xml-events" xmlns:xlink="http://www.w3.org/1999/xlink"><defs /><rect fill="white" height="102.24808753104784" width="110.15649126759726" x="0" y="0" /><path d="M25,25 m0.0,0.0 m22.02548791931226,3.814216590132926 l0.018696747730730472,0.423402019373972 -0.4635060612424206,1.007966428120494 l-2.850683538404749,3.944068289145957 -2.2964248886005287,2.486567532443523 l-3.0952329857408625,2.40726318142828 m8.11253917167233,-5.78209053159783 l11.194937182185253,-2.102864388709832 m-7.7077242407137945,2.521729602541891 l1.573154607746268,1.9640898645026978 1.22889004112354,2.2806018963828754 m13.757702883258117,-11.53875875548239 l-0.21676270664800715,1.1990111395453218 -1.6448864432260768,2.9095787264961706 l-1.9731220776243408,2.5789558591558768 -2.3175168500768475,2.540207529659136 m5.683626188614886,-4.0914911569943 l15.82027181465332,-1.7563119725157068 m-8.758636604409011,2.713276554990146 l-0.2743456533785097,0.9508184850748632 -0.8416031210272974,1.3779361065332758 l-1.2247503283753582,1.4721400791803698 -1.3287931543499167,1.1415790916553243 m-27.371114561273274,6.924050631144759 l2.6466440526036914,0.1382923343744063 12.90595808277199,-2.1427610309905134 l1.2921987633277034,0.0369930570394388 m-11.974316386792609,-4.109910254537127 l0.6112766497108373,0.7193039138522273 0.16701113941191573,0.6927996249116867 l0.12226326982564181,24.256448286617534 m9.291726254880903,-24.613634605166105 l0.4854418773303468,0.8685086798634857 0.02385817086231528,0.86110402053655 l-1.0796162594130416,21.1676355332255 m-8.54946772677243,-10.421515079042981 l8.988421776410785,-0.9539054373533252 m-9.193927104520602,6.523326450709602 l9.0669426569676,-1.0063464837711233 m-16.982833860171784,7.698993258738552 l3.9156024487392935,-0.20302585252546487 15.561090691265193,-2.1093751873996434 l1.7344685351395799,-0.1108022091998666 1.210305002549205,0.19363972263961896 m-13.311781539894545,4.654557514643751 l-0.04936119696474076,0.7343558420455646 -0.392353790222366,0.802565928635381 l-1.6103591739537217,2.1078067872024677 -2.5450968509803737,2.369228570677763 l-2.753604280686314,1.7987021352301218 m13.499416704868423,-8.75193424991519 l1.1539387459883337,0.7469615689412668 1.674779370174964,1.5502598597521806 l0.9961492402324003,1.2084640052282873 0.5669116091102522,1.051903550489458 m6.792442644467009,-24.366543430739284 l0.40514672186181794,1.2815653458766152 0.19335474849931403,1.6556884286317521 l-0.3434245746115864,6.776021055214687 -0.5334337819105885,5.151956200326208 l-0.7554724809756804,7.078974467378409 -0.7037889196827363,3.419084396611905 l-0.9528137627522616,3.1721443192922885 -1.2136965187367654,2.934613690793965 m3.089438700629069,-29.011237594444463 l1.6965861254288352,0.009435780106998262 10.103316797667638,-1.7583972914689696 l5.251392003773739,-0.08367894762369255 0.3890607859664086,0.40954204372336367 l0.10004752714123614,0.5411395883332459 -0.48966784964977444,1.267379613681552 l-1.6859822885795817,1.903491987545329 m-8.091087816071317,-9.33214202497803 l0.8287373972412861,0.6882073399856826 0.4172949699623831,0.9559820816501474 l-0.06181701926388142,13.485375088610152 m-5.539843738997262,0.8856320132167335 l0.6559103963034374,0.236742620696647 1.0436165779420357,-0.06372802182686876 l10.149721149317878,-2.567963192481713 0.5283882918572973,0.11520585677928562 l0.37680810261371467,0.42443858629566833 0.1731222232299315,0.5930024726390256 l-0.10438546224885516,0.6432831724795627 -1.3099459459417786,2.9390725769344175 l-1.6600146837687293,3.016302722435711 -1.9365521488026394,2.9528857968930557 l-2.236308330466017,2.8265522591127072 -2.446972890586732,2.5622299135944395 l-4.869485649342835,1.6615995316236505 -2.2515592068474266,0.25773521316236625 m5.422229315805384,-13.16007109290831 l1.7910435407068053,1.3464902747346421 9.27212553238203,8.883983249987054 l2.522045087515328,1.912074740713135 1.6190254835165918,0.7715656171313384 " fill="none" stroke="black" stroke-width="1" /></svg>