<?xml version="1.0" encoding="utf-8" ?>
<svg baseProfile="full" height="108.95590738150877" version="1.1" width="94.85323477086499" xmlns="http://www.w3.org/2000/svg" xmlns:ev="http://www.w3.org/2001/xml-events" xmlns:xlink="http://www.w3.org/1999/xlink"><defs /><rect fill="white" height="108.95590738150877" width="94.85323477086499" x="0" y="0" /><path d="M25,25 m0.0,0.0 m9.619256669680547,14.623820445201991 l0.41677678065780877,0.11501684968557566 1.6861164095588128,0.11115708307399554 l28.45496115220329,-2.080548962142465 4.67612375876454,-0.1453836577309962 m-26.86030774745641,-3.9404416314126367 l0.9402333167849637,1.260385451618999 1.3915230544065273,8.682582317382545 m13.182581438360366,-11.170043936426609 l0.24728725803930296,1.4037480413917116 -1.572934788375199,8.648763451341681 m-7.869465320554685,0.06798806366509251 l0.03863291650026092,0.9722695977348569 -0.38956198563186756,0.9694370444600016 l-1.5608317732923627,2.422687806085726 -1.986836159293422,2.393163345032963 l-4.398655580614595,4.226810377555146 -5.182814531086675,3.7029937772241728 m15.4880943972942,-13.89518776707798 l5.158891413080961,4.507436466615163 7.666151997269644,5.985776001558114 l1.6959754121927713,1.0764029907736228 2.005118242488535,0.5632362254692336 m-22.514093566354997,-2.639449666069467 l3.5671084650877107,0.03465527141143233 5.5150617484682085,-0.7196780929062991 l3.8914134507124256,0.057245663255026405 0.4683618456782336,0.304122751465012 m-17.90573882157795,5.674147404958759 l0.6789680568676771,1.5343966236067392 1.4989440376675094,8.854663743128828 m-1.2706334087905693,-9.537107745903484 l20.608193679168956,-2.0114811330307627 1.1552275566549384,0.10029078258033239 l0.4007219232914384,0.3734117636823557 0.10762455859430822,0.8566034852032562 l-2.080776658780513,8.477574067881434 m-10.679394045249394,-8.527898549682423 l0.4926704926717915,0.6906961362886296 0.06602248205010149,0.5707125076038452 l0.0933968283136577,6.853988735696868 m-7.4975108233932195,-4.984115807268245 l2.0197636025364583,1.536489438549367 1.3253303025510839,1.7450499358435752 m10.7351105550603,-5.15159996860608 l-0.19089655764980124,1.1478994180609732 -0.8548989717412953,1.68126768046043 l-0.9956275057419817,1.3954472368160205 -1.2390102916152723,1.2494415220084232 m-12.723366673953263,2.5836747012890453 l19.71056911339262,-1.5976127031575422 m-18.033414750740373,5.454522409442983 l0.5164351138678083,3.357725060139947 0.6413860411596631,9.088755327679868 m-0.7054594839629317,-11.421892337755768 l13.306969927908494,-1.6330559127087554 0.9246698178698767,-0.02012140025186903 l0.5090316774280161,0.24624679798663957 0.34692832687156266,0.38348681593197 l0.21141906780145955,0.8947785860973168 -1.2207512784138435,10.806815470409115 m-13.630637487420701,-5.595633991069253 l9.483091658074859,-1.1942013506492737 m-8.903193702413585,6.285238290373402 l13.076931253398945,-1.191178179736057 " fill="none" stroke="black" stroke-width="1" /></svg>