<?xml version="1.0" encoding="utf-8" ?>
<svg baseProfile="full" height="109.49251528829336" version="1.1" width="102.10950034845155" xmlns="http://www.w3.org/2000/svg" xmlns:ev="http://www.w3.org/2001/xml-events" xmlns:xlink="http://www.w3.org/1999/xlink"><defs /><rect fill="white" height="109.49251528829336" width="102.10950034845155" x="0" y="0" /><path d="M25,25.00000291969627 m0.0,0.0 m3.0531474947929382,8.243518471717834 l0.7124198973178864,0.11381661519408226 3.8520529866218567,0.2257164753973484 l17.42050290107727,-1.337263286113739 16.858636140823364,-0.8823658525943756 l5.150611996650696,-0.05133868660777807 3.142913281917572,0.3929256647825241 m-34.90988731384277,-5.510430335998535 l1.001061499118805,1.9214344024658203 1.497902125120163,10.203479528427124 m18.35760474205017,-13.319495916366577 l0.2678954601287842,1.0328777134418488 -0.0999072939157486,1.1840865015983582 l-2.4049092829227448,10.076215267181396 m-30.33360719680786,6.64925217628479 l0.6071313470602036,0.9279170632362366 0.5430889874696732,2.1533316373825073 l1.4761720597743988,8.977081179618835 m-1.4707599580287933,-11.041852235794067 l13.301129341125488,-2.015325129032135 1.7285694181919098,0.17638295888900757 l0.5359549075365067,0.429026335477829 0.4236963018774986,1.3779355585575104 l-1.9225823879241943,8.254493474960327 m-11.797568798065186,2.015243023633957 l12.924253940582275,-1.377115547657013 m-7.866795063018799,2.660750448703766 l0.6253354251384735,1.7049533128738403 0.03967796452343464,20.402696132659912 m0.940709188580513,-13.770827054977417 l6.7594605684280396,-1.5956467390060425 1.798761785030365,0.13792475685477257 m-18.221155405044556,-0.4300103336572647 l0.6254994124174118,1.0594457387924194 0.1872890256345272,1.0496057569980621 l1.1956895887851715,17.24502205848694 m-3.7680846452713013,1.0745339095592499 l1.0866699367761612,0.43755438178777695 0.975477322936058,-0.12177065946161747 l16.074711084365845,-8.545103073120117 m11.251773834228516,-34.301114082336426 l-0.40822897106409073,2.591214179992676 -2.5597259402275085,5.598662495613098 l-2.6946988701820374,4.084606170654297 -3.829420804977417,4.371280074119568 m10.42783260345459,-11.965504884719849 l1.9653867185115814,-0.06769136525690556 8.168883919715881,-1.8106518685817719 l0.6382914632558823,0.2776535227894783 0.3140617161989212,0.5412029474973679 l0.004786776262335479,0.7320999354124069 -0.9367730468511581,2.1106915175914764 l-2.1539877355098724,3.5460272431373596 -2.283220589160919,3.12454491853714 l-5.223428010940552,5.699359178543091 -5.7544636726379395,4.7094497084617615 l-6.964790225028992,4.122982621192932 m8.764207363128662,-18.011233806610107 l4.184318780899048,2.800397276878357 13.995835781097412,10.787322521209717 l4.8340904712677,2.795723080635071 m-26.450064182281494,2.68699049949646 l0.7102879136800766,1.0053254663944244 0.41820228099823,1.2519827485084534 l2.0285680890083313,12.68251657485962 m-1.90765842795372,-13.875788450241089 l16.725794076919556,-2.048822194337845 1.7580896615982056,0.12738769873976707 l0.4437864199280739,0.41754625737667084 0.07511241361498833,1.7187292873859406 l-1.948084533214569,10.257927179336548 m-14.872913360595703,1.7738336324691772 l16.363680362701416,-1.081462949514389 " fill="none" stroke="black" stroke-width="1" /></svg>