<?xml version="1.0" encoding="utf-8" ?>
<svg baseProfile="full" height="128.73824132390456" version="1.1" width="103.5738984031718" xmlns="http://www.w3.org/2000/svg" xmlns:ev="http://www.w3.org/2001/xml-events" xmlns:xlink="http://www.w3.org/1999/xlink"><defs /><rect fill="white" height="128.73824132390456" width="103.5738984031718" x="0" y="0" /><path d="M27.379427506034254,25 m0.0,0.0 m7.696121748079476,15.66292125016232 l0.5578183905803985,0.12616527711415623 4.327899067833288,0.08276374180629995 l14.80053587992475,-1.9042838569337952 15.718082991602353,-1.1249869767162086 l4.650397539419704,0.41008913812285375 3.443615279697564,0.5802236879501188 m-33.027784885425696,-5.596996554020317 l0.8954963469985056,1.649852810113648 1.9001525579914635,10.735857150498976 m15.849704107814123,-13.472547980541789 l0.177048024937736,1.7454767206281692 -2.2650438533422235,10.2529812753384 m-26.437435178604787,5.4799832342940284 l0.7189381021001908,0.944560418937625 0.4717835488436052,1.7268889405785972 l-0.10453564107533343,16.816647322733655 m0.3762070243184673,-10.203907701819467 l7.11336701847016,-1.5236721823588897 2.656136103047204,-0.14120662675483714 m-17.262193216443674,-0.685611680664139 l0.6722887821558671,0.8575927333164459 0.30403266599853734,1.1562398398076112 l0.38421210385496124,10.8306461972769 m-5.996272014810901,0.607026376840902 l1.600234769107392,0.5039977598012271 1.709168459837001,-0.21467129882461705 l18.881328290436883,-3.200165699674385 2.6832746429784793,0.23487441134028247 m-11.0101718549672,2.1871917759960193 l0.47335421583674353,0.9952569994098313 0.16805519290750237,2.306961061130284 l-0.2600159132777695,13.061959683412159 -0.27411276362875514,0.8298800591309419 l-0.5081453594557525,0.17570914269276947 -2.5354204146273993,-2.3487085933294574 m-3.251671589392905,-10.601908759332987 l-0.3082523331392081,2.3065441166220584 -1.559317878053884,3.688142776122443 l-2.3239249136074474,4.048530568425293 -2.4682322940063526,3.2404604466461966 m21.291251623310572,-13.868679091384674 l1.847523705805464,1.6995231174268866 2.2068839493539456,2.7887939710020335 l1.5806777157687257,2.652000211089182 0.8001178168996318,2.176706773140417 m-4.580744774095126,-25.26670930947932 l1.9334844287019428,0.3913970747630792 1.9134159244915951,-0.12007143499292587 l13.405356361841744,-2.316110305183669 1.4651030862253873,0.14081423205873703 l0.9327088015778257,0.39183457077139994 0.7114899137220487,0.5325547117125825 l0.3005793742778713,0.6396537694636969 -0.019089614839517516,0.7869198289402518 l-0.3216660379650037,11.062352181289729 m-10.062897895876919,-3.0682955697301355 l11.099584596282778,2.778560591485122 2.6959066833391923,1.435901286490751 m-18.30513756353066,4.667902337472687 l0.694387933960079,1.221961312123926 0.19066067108791193,1.1273855270424709 l-0.1181661101340407,26.233990929089195 m0.6678177021327947,-27.789215469574547 l16.262945525709775,-1.8741994668304551 0.8447119319043913,0.07549796450080612 l1.1360146577928731,0.8218489211137793 0.5043437227222966,1.4878941289301924 l-0.35281089838582896,26.505188524119827 -0.42758515071759734,0.932678290568921 l-0.6000777775759649,0.2634047112052961 -1.455303582628536,-0.878868239272427 l-1.449329962799281,-1.4991626403987972 m-13.548215045341227,-18.6773245225013 l17.276198074732562,-1.4270309502713048 m-17.21260578913261,9.173557982605912 l17.597593924849477,-1.407428853312114 " fill="none" stroke="black" stroke-width="1" /></svg>