<?xml version="1.0" encoding="utf-8" ?>
<svg baseProfile="full" height="105.08027439591564" version="1.1" width="107.17933440727546" xmlns="http://www.w3.org/2000/svg" xmlns:ev="http://www.w3.org/2001/xml-events" xmlns:xlink="http://www.w3.org/1999/xlink"><defs /><rect fill="white" height="105.08027439591564" width="107.17933440727546" x="0" y="0" /><path d="M25,25 m0.0,0.0 m9.115169253844654,9.57817124132633 l0.5303126618150842,0.1574502816782324 2.189455067174072,0.13313751057700032 l34.18068156034073,-2.4442262089101807 5.907952062168818,0.28703102458969315 m-33.31387338981937,-4.541433911975374 l1.0722310157453774,0.9189809638678292 0.397128620684556,0.7601920900273227 l1.1631410627692178,8.995513530711728 m16.515879347852806,-12.104253297645803 l0.7446299068397542,0.912585082152591 0.1582279909967201,1.116144900366658 l-2.5079777059106556,8.853172450846433 m-25.76104514252105,3.420654727364839 l4.023543464311696,2.430616633698352 1.5785641755136433,1.408768165919639 l0.7596178382067955,1.046430819491449 m-10.31906820972508,6.189501504098332 l4.332144397858074,1.9128750939475998 2.357050349322669,1.8063666787886583 m-7.032771794042533,18.84703386971641 l1.24404393836795,0.4514632781830748 0.5962983055138942,-0.008529122453942583 l0.9326831748251326,-0.5539690731555301 2.579708583368945,-3.5656137756530883 l2.468564960250065,-4.104865153949894 m12.769854381041005,-24.901769441546126 l0.7066805250058539,0.8640005777637696 2.5756026190679098,11.69375268434021 m-2.13770288128483,-12.166622882695574 l15.243051504851252,-1.4584226701052132 3.3055397468946337,-0.26119976250940685 l0.5526604286440895,0.14636677164631037 0.7015253015761017,0.8568563161227889 l0.03455759082761094,0.9181031323246885 -2.1866765942910784,11.064389698835246 m-16.835136793252794,-5.7215654815878345 l17.937396440674533,-1.0610299785224806 m-16.297431487209707,6.9347391064199755 l14.884803099786334,-1.2047811060227869 m-24.973906757554207,5.602942532769389 l2.859178995601102,0.17395311340185543 27.48475160441763,-2.193378317162553 l4.745444609102263,-0.14887081406305616 1.8968505776258087,0.16605910849524036 m-27.126835636522095,2.8227348966734898 l-0.20426287404764767,0.9333982946122934 -0.5503123895949668,0.8355190803817841 l-2.5215665117948007,2.5180035977950546 -3.886116754466159,2.8703920061444492 l-4.6188082338842635,2.5937817009632984 m11.07895407275411,-5.291110908974651 l1.4132056140926388,0.25723240593234675 19.778141637663442,-1.7356347309110354 l1.222963661409771,0.07230054854834632 0.6047868277195152,0.2700576735529443 l0.30031718090751763,1.1877626342932648 -1.0932223862805943,4.932586575365321 l-1.5700914104569532,4.2253256786762305 -1.7253494086689227,3.218003932682355 l-1.5381894918910182,2.4114257916854336 -1.5534134908977144,1.702370225384225 l-0.5401489160582612,0.04940310159769614 -0.5122985991228841,-0.27771334865753783 l-1.4282544543632552,-1.5807721030932609 m-10.455837556056817,-12.721467324571027 l-0.43781486031023564,1.5808354559962419 -2.850419313878113,3.037914115241077 l-3.769962381167854,2.6384696612695455 -4.007414161627289,1.9266940330980682 m21.425191293161692,-10.159750606205783 l-0.24882229777375248,1.2713038851812997 -1.3070004534381088,1.9928369085733424 l-1.9589176410545979,2.181241384224453 -2.5921899916754714,2.350583897009396 l-5.485185771115912,3.9086025438757614 -7.037908068204338,3.7910543441722013 " fill="none" stroke="black" stroke-width="1" /></svg>