<?xml version="1.0" encoding="utf-8" ?>
<svg baseProfile="full" height="91.09019950113525" version="1.1" width="102.55156313209746" xmlns="http://www.w3.org/2000/svg" xmlns:ev="http://www.w3.org/2001/xml-events" xmlns:xlink="http://www.w3.org/1999/xlink"><defs /><rect fill="white" height="91.09019950113525" width="102.55156313209746" x="0" y="0" /><path d="M25,25 m0.0,0.0 m15.140285299595183,12.933101915526649 l0.474154898589061,0.1262783512054539 1.749213785941013,0.11740108146669312 l27.892148049450586,-2.2962587623181485 4.704291063797315,-0.17190855304557429 l2.591470034724297,0.25306092759322085 m-28.75841280301682,-3.861515996030024 l1.1545125401782574,1.0597952463645832 1.5886813488874385,7.735514967520382 m14.420491507928354,-9.87127353958425 l0.2581725603380816,1.1357024476036555 -1.7491955477016587,7.56780628415812 m-7.730761520276797,0.25776295990880227 l0.040337773975834934,0.5407742972314457 -0.4939798422595773,0.6338873405132911 l-2.4386493800165163,1.7487923041032853 -3.284630145956256,1.7372952036530342 l-3.690236062353032,1.42537258094537 m-5.462606266206491,3.7415865896536658 l1.0901639735924433,0.18070416680439438 1.4778286682620136,-0.052456012503668034 l20.841707807819986,-2.4343949993188296 1.6593457674491412,-0.1453861397955761 l1.4603549325319634,0.24833402038789712 m-27.347932383752884,-2.600192652167669 l0.5422873075350673,0.4893158347189367 0.3534601949346551,1.2216709056921868 l-0.08691298312982165,18.118887396864885 0.18191774049615064,0.5688790178379557 l0.8801451505883177,0.09308768048105524 8.233062148611422,-1.3520073148109704 m-8.567072850379963,-12.864695735014823 l7.145040392736895,-1.9305723420224767 2.528936934067001,-1.6589474530515629 l2.132534224123271,-0.5101464659321481 0.5238581900676,0.17140264588713602 l0.27215749155108976,0.35987976078212897 0.055539594357713516,0.4494904413104539 l-0.522948581738087,6.429265734915053 -0.6319383533238518,5.014469240375917 l-0.7389414839925253,4.081328063859108 -0.48571598298299273,1.5374717270379958 l-0.872180888302288,0.8616363323282089 -0.455559741442543,-0.06600178618926983 l-1.6661371833164043,-0.5993112872432343 -1.2636690930431522,-1.041493782078255 m-1.2850587519716323,-18.512222884948347 l0.13361564366999165,0.8069894302172829 -0.1713637644975017,0.9518298847925725 l-1.591413820918226,3.3156257593498837 -1.9003542731800254,2.864819150098373 l-3.5564592805567297,3.9250052083366493 -4.386960828154698,3.474720973421235 " fill="none" stroke="black" stroke-width="1" /></svg>