<?xml version="1.0" encoding="utf-8" ?>
<svg baseProfile="full" height="105.85015685801581" version="1.1" width="105.23945628339385" xmlns="http://www.w3.org/2000/svg" xmlns:ev="http://www.w3.org/2001/xml-events" xmlns:xlink="http://www.w3.org/1999/xlink"><defs /><rect fill="white" height="105.85015685801581" width="105.23945628339385" x="0" y="0" /><path d="M25,25 m0.0,0.0 m11.5912548903853,10.161647718592434 l0.5092609677617229,0.1747112173037484 2.0279655228341342,0.1475356024568302 l33.257419232966896,-2.368440912207366 2.7193509163405847,0.316502934412859 m-30.634457605253605,-4.481228846379555 l1.1246768022302103,0.8690788456342794 0.3873173894576324,0.6171737676842254 l1.3755800566538514,9.458923215184328 m15.463180106620328,-12.40321140541068 l0.6957834327109276,0.9263791924347207 0.13538799454413966,1.1484110796654399 l-2.2847460714556016,8.839738535268227 m-24.855230345328618,3.764969102859437 l3.8698923146552002,2.1809565112042875 1.4288290000318995,1.0610942480706025 l0.7955098696981183,0.930169111490039 m-9.840689132143332,6.565851676382402 l4.23038416565116,1.9074115828757277 2.123280476458274,1.7080531306673379 m-6.692089919817137,18.95757241212468 l1.1788245541775018,0.4332697824402773 0.5700007219325421,-0.015270370089662812 l0.9022031982553448,-0.5656928672580421 2.434651668460273,-3.5285606615259133 l2.4270574476605096,-4.087363189860984 m11.793001217668104,-25.25652011196963 l0.6827807806797526,0.864910632597917 2.4097769044850716,11.829441500942456 m-1.9741899865729844,-12.282574257610138 l14.152032010017447,-1.4844003066440863 3.122592149259662,-0.2843492729240435 l0.5217180522243178,0.14125785287068157 0.680854221606478,0.8826099283472616 l0.023342684543294495,0.9129621199189558 -2.042570110480543,11.075465854432842 m-15.784484783418652,-5.722542106973068 l11.210797929619153,-1.0796929901184775 m-9.657751936734243,6.86669854481708 l13.86734452092926,-1.4068353632969768 m-23.76535109486989,5.9777863159403575 l2.75213158522716,0.18739476443661796 26.02257723263094,-2.2803780903873263 l4.462233824663619,-0.1651698706419367 1.8220234264276474,0.16596330407387025 m-25.75006403480015,2.9434345692477195 l-0.1916279822298398,0.9522644702358709 -0.5193930387112312,0.8423556475494494 l-2.4247282777460555,2.5516481743685624 -3.710073040792936,2.880938129467785 l-4.512493245758608,2.620191096605203 m10.717260687573384,-5.127085351212042 l1.3412726091888088,0.2633669216760684 18.79661481756757,-1.7833064553307258 l1.1796769074157016,0.07240568296364651 0.5813118676613891,0.27305619475451376 l0.29838625302185867,1.1746489922805965 -1.0086451800877216,5.089162721394551 l-1.4309044078339608,4.052349683808193 -1.6167281509098455,3.1774889860383317 l-1.4949026416772129,2.2986286119023602 -1.1419075954119442,1.5623617769914515 l-0.5452955149853198,0.34453714344223607 -0.5069774739754477,-0.010888145881672761 l-0.4877085358997095,-0.3087881908333351 -1.3531648656146038,-1.5809275850232931 m-9.798366082310258,-12.786982129469013 l-0.3983245564331785,1.6170570326665585 -2.679459739057682,3.1236006592869714 l-3.485508734975563,2.6901236615705693 -3.6928674078986203,1.985455456148016 m19.995882885452176,-10.39219181401991 l-0.20748701471287323,1.241194328512578 -1.2048900793681279,2.0093795128500447 l-1.800289855417613,2.1994458865398614 -2.4088720156465393,2.3836534559288984 l-5.109877517500202,3.9129303866522327 -6.704349071836759,3.7569870605051263 " fill="none" stroke="black" stroke-width="1" /></svg>