<?xml version="1.0" encoding="utf-8" ?>
<svg baseProfile="full" height="109.84983220137785" version="1.1" width="112.84817864380324" xmlns="http://www.w3.org/2000/svg" xmlns:ev="http://www.w3.org/2001/xml-events" xmlns:xlink="http://www.w3.org/1999/xlink"><defs /><rect fill="white" height="109.84983220137785" width="112.84817864380324" x="0" y="0" /><path d="M25,25 m0.0,0.0 m13.39907714049878,13.800176991410664 l0.4844134583648897,0.14911020179013842 2.8135990006479314,0.10617215914390324 l26.77969130014124,-2.042564481181738 4.168496641302719,-0.12502010286179574 l2.6312620271785523,0.2807433973596974 m-28.81317281789664,-4.026203894621252 l1.005134633193231,1.370586792595903 1.4733180383869644,8.33073841024935 m14.293398307405548,-10.854307783191175 l0.21329452641663502,1.3016975548788885 -2.0190144797121663,8.469477804416572 m-6.7092923278047385,-0.963484560600454 l-0.007773982572438255,1.1422751410671348 -0.592822660693087,1.6039475239869652 l-1.6426859619790348,2.8590033721895067 -1.9735417711206216,2.4689403995906654 l-1.9895125243105545,1.8705756117622907 -2.4699249346297534,1.8748334311537567 l-3.010305907483626,1.7543705865107089 -2.541889661493904,1.1436472909964828 m14.278670916867316,-11.100184229038721 l15.892109380847778,0.7656214905864154 11.538315351691955,4.026223346176778 l3.5141692559959075,3.200362602876874 2.1331656945603665,2.042114515896935 m-33.601841822132975,-0.10096508269048142 l3.6826398597455166,0.1190884827078239 13.459503437849635,-1.1327930628194254 l4.936365966228,0.10313195874651286 m-26.060818708401555,-4.81689248360152 l0.671183047616123,0.7774259000099185 0.21874545053240305,0.7683304067385816 l-0.11647910533641379,17.359924462863994 0.0636235517743747,0.8294580169058252 l0.28393633296280146,0.36285057340458815 0.5302893497984884,-0.0984502478947909 l1.961967819246155,-0.4467013046792618 8.499041555910528,-3.78959762503339 m10.085036178447888,-10.576904288236962 l0.09073672903522523,0.8237866086079617 -0.3795319884157428,0.7966716085948564 l-1.754539493369905,3.1840019640139636 m-10.45577789675684,-3.132257989275347 l0.9268650954844855,1.5946809924166874 1.3323995618134206,4.328288167681829 l1.2715795779804875,4.433734638161486 1.3820289408190047,3.8614498528139096 l1.6402978298594024,3.3353394387158755 1.9217055191795551,3.0887009673489985 l1.5877860505092216,2.026446260695902 1.845620226291691,1.8680601827546421 l2.1296838096719006,1.763594088632109 2.43146335456446,1.5099361581027437 l2.6275139076586784,1.244131779728457 0.9282447062510126,0.3165082028178679 l0.726159209566191,-0.1577223431506012 0.30399645958578625,-0.992910452549349 l-0.16509415276807723,-2.44270095284581 " fill="none" stroke="black" stroke-width="1" /></svg>