<?xml version="1.0" encoding="utf-8" ?>
<svg baseProfile="full" height="89.56847862020913" version="1.1" width="117.98023287518174" xmlns="http://www.w3.org/2000/svg" xmlns:ev="http://www.w3.org/2001/xml-events" xmlns:xlink="http://www.w3.org/1999/xlink"><defs /><rect fill="white" height="89.56847862020913" width="117.98023287518174" x="0" y="0" /><path d="M34.62398391385647,25 m0.0,0.0 m16.029329569799,14.584595357046206 l0.05864669951233826,0.37046184594941983 -0.2853682141021626,0.9952156639367787 l-1.0911239774989228,1.486008201809127 -3.6443352668776683,3.5431022655221875 l-4.199266855628737,3.139299596346433 -4.891001230192675,2.782774784318948 m11.881180937918714,-8.30185147592781 l13.381528687236425,0.18982045597275532 23.68598736757871,-1.0627318206944487 l6.3972268553252984,0.21818235188063867 m-51.31016532272719,-9.16946009298996 l0.8712289601337379,0.7637338911825303 0.2659759105199113,0.8242952460073563 l-0.1093249972069879,15.162671462681084 m13.188756330321223,-17.452632142837043 l0.8379885054776599,0.6587123394555363 0.3422468441869515,0.8573651953646791 l-0.15609059852741503,16.156650457918307 m11.005951594864333,-6.249932549192053 l0.9112550542076867,0.7212062690171147 0.24550307092927515,0.7643951221222428 l-2.2355323166066148,8.083015727973123 m-40.80458152249937,1.672790669746913 l4.725271295610083,0.20976401988038537 22.67809279086987,-1.5526619356251188 l17.99567188806756,-0.8327640587053666 7.095665039106699,-0.20568973125717005 l3.904257653886074,0.2127638598683568 m-47.96896509842553,5.589477913614066 l-0.4187141286853673,1.156133048091733 -1.0940875447597198,1.2344360772557499 l-2.0209317056113663,1.6477591745604863 -2.219389822646213,1.3715714299159383 m18.1008960922931,-6.488813331155483 l1.6021121175960762,1.0245742581815438 1.4816857451401444,1.5802888638928074 l1.3253846087632992,3.1677143009037803 m11.375669800700159,-6.309280038020297 l3.09776325678489,1.1190166413743556 3.416334050671046,1.5107600489506614 l2.535134846150769,1.4734031977098438 1.510131296872137,1.2944891952258444 m11.836004267425173,-5.3270927908456365 l2.6283709179034447,1.1702876841914722 2.9783052369098604,1.88565320255489 l2.3246467200314607,1.9044336492053962 1.090923550528082,1.362481935699136 " fill="none" stroke="black" stroke-width="1" /></svg>