<?xml version="1.0" encoding="utf-8" ?>
<svg baseProfile="full" height="107.42208514268162" version="1.1" width="110.4035299727228" xmlns="http://www.w3.org/2000/svg" xmlns:ev="http://www.w3.org/2001/xml-events" xmlns:xlink="http://www.w3.org/1999/xlink"><defs /><rect fill="white" height="107.42208514268162" width="110.4035299727228" x="0" y="0" /><path d="M25,25 m0.0,0.0 m15.116252489842786,6.663316399536698 l0.5153732852149369,0.1638770180592729 3.33295171605959,0.12559138921460414 l23.33085037099478,-2.742687494916536 3.530719193446391,0.20871440785563847 l1.044564802149305,0.4841778471522735 m-40.61715102819701,13.72164368003749 l2.1714046284552686,0.32495443590184486 2.5924905842692327,-0.1292383953011217 l38.935249408457004,-3.9423013191736667 4.183454365553468,-0.14439920425160396 l3.053102093400784,0.3965967053903165 m-27.06037160584313,-7.779626733230757 l0.06744283749665578,0.8692409963414173 -0.2558480878611144,1.557220038392221 l-2.1402003423244236,6.325809896576954 -2.433397445088424,4.698526776194999 l-2.9364690639968942,4.129096489906658 -3.5189886662373087,3.878434786691826 l-4.125222925103098,3.7018762039053765 -4.680527457689917,3.5951343087490195 l-5.652459569391084,3.595414104053583 m30.99585632517761,-23.11421966236601 l17.398453445655772,15.645483198859662 4.423079483659749,3.396602190827177 l1.9907206629044865,0.9724779503458211 1.1422004717174032,0.2260509936494004 m-40.55278991667637,-1.7672575681380338 l0.9966178169347365,0.8003649530940983 1.9285847607765445,10.726816369005638 m-1.5402338656096133,-10.798410069398164 l19.442974647003293,-2.392098038814137 2.6460465928875885,-0.19756121457543513 l1.5864703297955078,0.31120959641362134 0.4301764825503032,0.6760951289280815 l-2.3286490454931976,10.054783146552097 m-20.053264781476045,1.5483432599821993 l20.863380219676984,-1.5527954282199534 m-12.579380564153503,-19.253840758525243 l1.1915411872104065,1.3202988274225196 0.36703852792804403,1.4679642805508502 l-0.21297657301175185,26.336347911807554 m-16.175959738014065,2.57360263727802 l0.9514627597074073,0.7228695661379221 1.3016120021216686,0.01758553477744433 l28.942983196472454,-6.127310437555505 m-2.8742472169876674,-3.088949937371265 l2.1056870268467374,1.5839579604653 2.5637350451088503,2.733256151344921 l1.8469132006496736,2.59718208086154 0.9532970556590323,2.061608854480974 " fill="none" stroke="black" stroke-width="1" /></svg>