<?xml version="1.0" encoding="utf-8" ?>
<svg baseProfile="full" height="104.32056506792745" version="1.1" width="94.92322317503091" xmlns="http://www.w3.org/2000/svg" xmlns:ev="http://www.w3.org/2001/xml-events" xmlns:xlink="http://www.w3.org/1999/xlink"><defs /><rect fill="white" height="104.32056506792745" width="94.92322317503091" x="0" y="0" /><path d="M25.87083205005068,25 m0.0,0.0 m8.27330972094177,4.084513006578891 l0.3387302930236132,0.4377025377675008 0.5218342245406309,1.7644643174526327 l0.023819586748011944,7.36197547690963 m-10.028525875304707,1.5085751199446498 l1.4787192380689798,0.14119552995158466 2.110484610328705,-0.1637466008769955 l12.768591063149605,-2.0576170594143917 2.010877733594394,0.042676344141036555 m-15.141632326668452,5.850044104804672 l1.7214960449329635,3.864037268261624 0.9026053795395714,3.919840150781667 l0.48072816818098274,3.590850364267981 0.26665100814534565,3.309417853007847 m7.51298684765914,-18.50462808199324 l0.21038276169280923,1.5789569342502647 -0.3547555842275788,2.148018918094685 l-1.9579193437885973,8.357649085950237 -1.8472743328574484,6.916376026581686 m-9.268752576988499,4.723405967994829 l0.8886271320483871,0.5118005578504915 1.292996284766641,-0.136650194695598 l14.470007488002835,-7.372262122696954 m13.533633427328446,-28.605827141776324 l-0.24709024186793668,1.3306923543968718 -1.512159396985845,2.4560768450508497 l-4.147162811703437,8.327960234883719 -4.151498378589406,7.041307195801217 l-3.9190738269464664,5.591189718115987 m12.819543107473304,-21.33425450783573 l2.741207511578934,6.053577671596786 5.280506505912321,10.272636155752537 l2.809931674940412,4.146957557449496 2.5884712546624393,2.5445795934269086 l1.5820947536483656,0.8427241575204997 m-20.938211868802203,-0.8293349000035163 l2.544121003894819,0.15423196138434994 9.152089053823987,-1.1026156714136266 l3.000821842184028,0.11651914690583413 m-17.434414228719486,9.440289118449625 l0.8067319833518958,1.4210553655620124 2.1430410768801913,14.576204707745214 m-1.6082262045227151,-15.25850697002123 l15.848053430370603,-1.550445285221792 1.1100069028983035,0.22992330718669074 l0.4227314250856158,0.38602388508430985 0.26918912542177925,1.1142640898203422 l-2.4238911095611773,11.797597358526586 m-13.578388693269085,1.4420363943887422 l14.682170551022233,-0.9962623123897546 " fill="none" stroke="black" stroke-width="1" /></svg>