<?xml version="1.0" encoding="utf-8" ?>
<svg baseProfile="full" height="101.96465842442052" version="1.1" width="101.28580498174834" xmlns="http://www.w3.org/2000/svg" xmlns:ev="http://www.w3.org/2001/xml-events" xmlns:xlink="http://www.w3.org/1999/xlink"><defs /><rect fill="white" height="101.96465842442052" width="101.28580498174834" x="0" y="0" /><path d="M32.89805543616439,25 m0.0,0.0 m15.70784782488848,4.435793094381136 l0.49052939960551606,0.42693777809233824 0.7144699287240637,3.1909112725377935 l-0.06451119952323968,8.22760895074942 m9.450387961743102,-11.850017342049743 l0.5453973717669419,1.324221937180662 0.16535074388777432,1.4367073778166977 l-1.3486874129140765,9.631031465284568 m-21.174632108115592,-9.355386810644056 l1.4737427257198392,1.1019756237257046 1.879777864613963,2.00707766601992 l1.8225505337225507,3.1163113306673234 m25.85783650000784,-8.475955707169557 l-0.11976861996029493,2.114699746888032 -1.070222427862193,2.744873142192391 l-1.4163069319228332,2.2293215874946375 -1.6024473457813881,1.8107299064169458 m-34.73949688323847,3.9332029097426604 l1.8492427336974888,0.38278662912323935 1.904794075943768,0.00283133409977484 l20.825089320535763,-2.234972883487933 19.445433383312686,-1.3339768668185905 l2.7913721067322683,0.33372852926835644 m-32.879552934098655,5.331697307243339 l-0.08840072252581443,1.0169422296313042 -0.6629648948590685,1.1172944846230648 l-6.802624763567528,3.0519526410828317 -6.530214881544088,2.5540714998582295 m-2.085878501913504,4.992655216881199 l2.270149326951135,0.231641566143344 3.3983933034799407,-0.15906784882319955 l27.439867453076793,-3.1208430373741027 4.07066684420055,-0.08560004438790988 m-18.32193241577168,-10.309742715788838 l0.5737327784789686,1.0437150843002931 0.1691057913716546,1.2740956473888334 l-0.05532007534729506,29.825405722130405 m-2.102051428730037,-19.67045682236435 l-0.4380829898125614,1.473115296251473 -1.6274390261009348,2.153244240531427 l-2.804912330885282,3.062699487993648 -2.909747681963491,2.6894205258774964 l-5.683084620196544,4.1391586587568305 -6.215513211990902,3.3005284488553874 m23.361863413169747,-16.70367680289628 l15.493351984190978,11.724114491457806 5.6349041989578375,3.432790551101965 l3.2533184209786152,1.3118890779872296 " fill="none" stroke="black" stroke-width="1" /></svg>