<?xml version="1.0" encoding="utf-8" ?>
<svg baseProfile="full" height="104.39163358239571" version="1.1" width="109.57668481686261" xmlns="http://www.w3.org/2000/svg" xmlns:ev="http://www.w3.org/2001/xml-events" xmlns:xlink="http://www.w3.org/1999/xlink"><defs /><rect fill="white" height="104.39163358239571" width="109.57668481686261" x="0" y="0" /><path d="M25,25 m0.0,0.0 m14.873652383681305,5.648485502544518 l0.4200268758658979,0.3834540565092321 0.5919331612623302,1.6307885932276647 l0.0026974574272881514,10.857625709140981 m7.4100144872827745,-6.506140380119005 l0.3122229733593455,1.1127752650923255 0.087767731993823,1.13797790839874 m-19.99355191674565,4.286470681373153 l2.802548376041275,0.21687259861143957 19.089938222826266,-1.969611069041231 l2.8158539454344704,-0.09431783377802386 1.5789305332923833,0.25867443264082024 m-13.474940640852285,6.160208534587245 l3.790277129273062,1.873203448933739 3.98889685317129,1.2569478838189045 l0.5350161523574108,0.5349862083953846 0.1585374400952385,1.0187320454317417 l-0.5525964675206518,3.2330049311047984 -1.4579512405396415,4.537265169609093 l-1.8570384849714185,4.450938266115965 -1.705523363585551,3.0650211548296817 l-1.3385571190206407,1.3407664306818847 -0.7869845288474816,0.30309566479039995 l-0.71361470160653,-0.08804507404956835 -1.408950202687599,-1.4352874879992297 m1.68983921526128,-23.119954075422402 l-0.006625881333638201,1.7239555362256902 -0.6566753882706845,2.6555487437039864 l-1.3139053882192477,7.381408211225538 -1.1221119877539238,4.9858570748415625 l-1.2212623103109033,3.8553371336600675 -1.5098195014377152,3.500290485777551 l-1.9277504355980013,3.214236904093263 -1.6656204709908875,2.0696067291850415 m29.218278742544268,-35.77257202832443 l-0.19273030186696136,2.0960458526459558 -1.7391045683007613,4.430710218889686 l-2.234667157635018,4.155357807640259 -2.5841933902292773,3.679627442270106 m5.401681907536133,-6.036884077551918 l2.160472239484238,0.14734528303407332 11.655916633040832,-1.72276797549685 l2.2239154743502376,-0.023901201617424563 m-18.845226071420804,8.771787486819775 l0.6033128348972918,0.1693158139049749 1.5831831562929761,0.12588433309375616 l12.698740747071845,-1.8062177259582335 1.3294587962677364,0.4617018270345209 l-0.04318272477481026,0.6041837096866182 -0.4987990324638326,0.7252307474418398 l-6.107884082921802,6.406441572162785 m-0.8841148755939044,0.72670142239123 l1.9043892410337353,0.6913443176263081 1.8005336066830482,1.9380381101212125 l1.7216514680150075,5.658240696353438 -0.2205834846793842,3.510873245855813 l-1.1206538856769444,3.18786124012811 -1.4646211480683269,2.4238471170472753 l-0.6896199105760779,0.3632589630558972 -0.6502453092971201,-0.012587239341292694 l-2.2333882879396083,-0.21640901469725637 m-9.393087005002586,-11.676260067483126 l3.327233159050406,0.21085775670519535 20.239910862962713,-1.486620089462729 l3.2540622080208292,0.012440951619768235 1.9213720677255464,0.27906160241080075 " fill="none" stroke="black" stroke-width="1" /></svg>