<?xml version="1.0" encoding="utf-8" ?>
<svg baseProfile="full" height="102.36036422394862" version="1.1" width="100.34865935065913" xmlns="http://www.w3.org/2000/svg" xmlns:ev="http://www.w3.org/2001/xml-events" xmlns:xlink="http://www.w3.org/1999/xlink"><defs /><rect fill="white" height="102.36036422394862" width="100.34865935065913" x="0" y="0" /><path d="M25,25 m0.0,0.0 m29.588613565692786,1.1488906677305306 l0.4071690071743476,0.4091272911228362 0.589898054027095,1.4477009970249277 l-0.0201542544544244,7.524120706195437 m-17.5440019464153,-4.3289385066408315 l0.47895755266966433,0.8650728872740946 -0.001052532408733581,0.940884936870711 l-1.8609591141013586,4.684084436256472 0.5560058598423546,0.7216563881554147 l16.487383413511857,0.08251780817068868 20.628031381028563,-1.0594938153334719 m0.42236446974182124,-6.893263977603359 l0.6164038943504627,1.4045824544371355 -1.153323202552693,7.385381297987245 m-36.642300200045575,9.191440445730198 l0.6258517492564765,0.17692293822465338 2.026123352814187,0.10786768682836508 l25.196448273660785,-1.7952561492801096 5.240172549278826,0.14288883145689013 l2.401627521757784,0.6601203911966499 m-37.645481261390294,1.8530331955902175 l0.43091916064695435,1.515652183068077 -0.5168377499851364,5.406404076276077 l-0.8216728446109675,4.068854594690361 -1.101783244765432,3.5442182111849716 l-1.4268262062608539,3.2592238242114884 -3.9810705669908653,5.852849976010406 l-2.141278761107198,2.307603226327244 m14.924652875058433,-18.112887985950874 l2.861300135346007,0.21092125197891765 19.015481166883482,-1.5177334858721394 l3.811475679985563,-0.17239581509006371 m-13.603001717738803,10.886235750738757 l11.19014107866041,-0.8299450020262278 2.227117301275431,0.12857486742449123 m-13.054588483651559,-6.99630760343902 l0.5613343350577464,1.0883423533071586 0.21756930547516903,1.8093800666720097 l-0.1844797037883134,12.878833498366351 m-16.06975685785141,-10.663952169596095 l0.7785737405977463,0.8032210244981465 0.18395875975473586,0.9658330882685595 l-0.11062947614405955,10.554434152985817 m-9.6498349748039,0.2778876258348599 l4.18862565050836,0.42577560268466047 18.977016417991848,-1.0363633332121052 l14.257096611414028,-0.5492291933860044 3.438141271082998,0.10167608941028847 l2.8265954606523302,0.5756900088270251 " fill="none" stroke="black" stroke-width="1" /></svg>