<?xml version="1.0" encoding="utf-8" ?>
<svg baseProfile="full" height="115.23985928705157" version="1.1" width="101.93472487481112" xmlns="http://www.w3.org/2000/svg" xmlns:ev="http://www.w3.org/2001/xml-events" xmlns:xlink="http://www.w3.org/1999/xlink"><defs /><rect fill="white" height="115.23985928705157" width="101.93472487481112" x="0" y="0" /><path d="M25,25 m0.0,0.0 m12.852895891304922,18.408758454577665 l0.3693792981911784,0.12692309783950692 2.3792204285350813,0.03755867728698766 l11.799760501678072,-2.0308527109171246 2.5633850374863347,-0.08313314247007014 m-8.450588770938028,-8.52608124485871 l0.5972594609175551,0.9432781289251035 0.26426968644238186,1.5957178689529987 l-0.037134885499164515,16.345156582406698 m-7.721484140807728,1.7804497287047905 l0.5816724461660877,0.9931877879212884 0.23599193206643368,1.073753999466896 l1.3897286941112992,13.245229039509661 m-1.2415069914128984,-14.474670213806968 l12.039991843340095,-2.620582565726212 1.2625442959366922,-0.10115846511087581 l1.0626532000224242,0.3081044373999234 0.5471714785132387,1.0395577478036477 l-0.023538230271233727,0.8106428428742686 -1.4262694015993675,11.73872193926369 m-12.40989799880912,-5.2515094753748 l12.862165338578004,-2.104255091678792 m-12.076011444215489,8.296584078961237 l11.098872189360419,-1.7574614986295256 m-16.588270671965216,10.349226813912173 l2.0832223308102464,0.2830857595715916 12.986312445369977,-2.675996214863155 l3.504146905345568,-0.533207255618439 2.0297463911275635,0.12295880108809207 m-10.051933536739332,-5.493023891305165 l0.46863628104306543,0.9725621827059916 0.1845756990386572,1.3247254729974038 l-0.017878731358109915,18.978018620964896 m18.45723203507325,-50.88392122422802 l-0.05526392784844089,1.8819951396956498 -2.7182143127480045,8.286427708381884 l-2.278996238817671,5.469070044791149 -2.7551801882909146,5.225747245769387 m5.686845394596419,-7.3592643321562985 l2.8989840586191655,-0.3368582835601581 7.582600933992151,-2.3198572731791 l1.997630148465569,-0.24194695901918603 m-16.536247634010838,5.415232898365627 l0.5404226900378062,1.1739526447821738 0.11703208303960028,1.2063126355488356 l-0.3354808899464573,8.213606032167238 -0.630374127304145,6.4642741213493045 l-0.9487312836670139,5.462778892164658 -1.17288751556765,4.437026486990028 l-1.57639726634829,4.080015078436243 -2.053877687825926,3.647719458762236 l-1.8173546785672747,2.295278679215236 m13.31719235043809,-27.76181518654035 l0.4432550131150941,0.9738206917489045 0.17530368740652177,1.1358871202561942 l-0.03159230277812111,25.59310403449523 " fill="none" stroke="black" stroke-width="1" /></svg>