<?xml version="1.0" encoding="utf-8" ?>
<svg baseProfile="full" height="102.0382848303768" version="1.1" width="112.74825662298751" xmlns="http://www.w3.org/2000/svg" xmlns:ev="http://www.w3.org/2001/xml-events" xmlns:xlink="http://www.w3.org/1999/xlink"><defs /><rect fill="white" height="102.0382848303768" width="112.74825662298751" x="0" y="0" /><path d="M25,25 m0.0,0.0 m8.763603887351922,21.427456346756493 l0.2760629613038459,0.35763552609716337 0.4244380712342773,1.4983833112966443 l1.3534752951435973,13.317248872099562 m-1.2640739323601107,-14.628065402646966 l12.724964327636426,-1.713701061629997 0.7675404461119312,-0.015351618881180229 l1.0386146037757449,0.4105233752821531 0.2870766491031392,1.054720515635474 l-0.08929983230300928,10.951554999115572 m-12.261578390404395,1.9267535080467575 l13.259814350968929,-1.5124965411837736 m-8.515924841985825,-23.465684664652596 l0.8107580106807828,1.038694835798094 0.3695126341113052,1.3478914683024745 l-0.10169904323506458,34.63957950311221 m-8.481887395995122,5.13997237155895 l0.9349605728779699,0.2631694862697614 1.179254275399285,-0.29292188188053486 l12.588435936223645,-9.476589650473393 m-1.5204004490731542,-5.016083205073429 l2.5985106002098624,4.72491440431032 1.5176441353694687,4.428583253012965 m12.386469887346074,-37.44731094597533 l-1.0399876882382904,1.514027012630408 -2.861557536100712,1.9050559496576305 l-3.8618750039162464,2.028654119018628 -4.874763975316466,1.868550808237704 m-1.0619338175504982,7.536257482845148 l2.7228217002239683,0.13876794938408551 13.49386429140838,-2.367449844191087 l2.287333083179583,0.06489092141014088 m-8.461043820531263,-7.40477775766822 l0.4882222530745234,1.013168686735942 0.15769505112921847,1.1507539791308696 l-0.02938866935582824,33.014892164389515 m-0.4757679664491882,-27.328834362339077 l-0.6556760082294077,3.011602932295834 -2.959356577658009,6.350331176356032 l-2.607654599314747,4.401315739454115 -3.258309729157474,4.336346170992835 m11.88291188686343,-13.226571315645922 l2.3088095219416513,2.527365998885414 2.2202844698588855,3.679678355709526 m1.1553405804147583,-17.154349090559656 l1.5917208454187364,4.368202165144255 1.30131802410617,5.1533832441519065 m14.489145068825666,-12.133954436629095 l-0.26538879675439303,1.000122666501907 -0.6270075188345077,1.3705286087679869 l-2.928732115583473,4.1347928334643225 -2.3583974575054283,2.881393356062266 m-4.150489889500142,-19.617901167708887 l0.4289862945626136,0.8463689881295784 0.18553562349359698,1.344444022888676 l-0.2420550340858184,11.471402824377943 -0.7015825725061462,8.729160276128301 l-1.0009178175847129,6.653084885772716 -1.5044548713659394,5.957408463985217 l-1.5091566418257478,3.993375748449795 -2.5824277373157067,4.653298677590285 l-2.441832472574986,2.997554635288285 m9.947861755571207,-24.764232816953026 l2.907016208716852,8.194673386780355 3.180186402692027,7.430506230108956 l2.9606799952054788,5.565725732177223 1.0783283977413682,2.8739441552568317 l1.373680726322994,2.1189385741754876 " fill="none" stroke="black" stroke-width="1" /></svg>