<?xml version="1.0" encoding="utf-8" ?>
<svg baseProfile="full" height="110.35106509491351" version="1.1" width="103.68625014092837" xmlns="http://www.w3.org/2000/svg" xmlns:ev="http://www.w3.org/2001/xml-events" xmlns:xlink="http://www.w3.org/1999/xlink"><defs /><rect fill="white" height="110.35106509491351" width="103.68625014092837" x="0" y="0" /><path d="M25,25 m0.0,0.0 m14.097402529697618,7.6046165225130276 l0.49231629239357044,0.14233345764044536 3.287716359140963,0.10703933345545671 l26.046033477097172,-2.643426954321298 4.320728694886222,-0.13888125199406792 l2.4634719584305302,0.33976913062364167 m-34.886127928730154,12.988074759413134 l0.7783382056576452,2.134450055602073 1.806009533033161,4.142453537162187 l1.7798284221914022,5.079964782384005 m-3.2764385775278075,-12.38184570220261 l22.506770657119556,-2.609880475532616 5.634707471353477,-0.4148082421425196 l1.4899328304304837,0.7547054374621505 0.44886917128859233,1.0808293191996028 l-3.0259655930275953,9.465288263811212 m-23.960003833016952,2.877590462699359 l25.859487316559882,-2.3649237767907794 m-34.2577671589317,11.722202288205532 l0.7205650801214156,0.9598826884848988 0.37103243909129546,1.2068728893221914 l2.534163123014253,20.298758569918487 m-2.1822079379549963,-21.319296295385037 l36.138187795221,-3.1727522093842118 2.7313036759992912,0.06878753516656325 l1.2204078637466016,0.6039253084317112 0.5474882736434264,1.3053966071370995 l-0.09235774255174282,2.558212494080062 -1.1869433761405737,9.010006041869719 l-1.6858644092290789,8.939755859396154 m-18.743048507005227,-19.437771014620644 l0.711550800241011,0.6065838361976497 0.3887928340256969,1.232551537763139 l0.15468411315909902,15.739691837145237 m-17.768036710287845,-8.383819932785546 l26.192286848601174,-1.8526694071890697 m-25.23968718742195,11.88541130026919 l33.4832863210507,-1.9018810196343263 " fill="none" stroke="black" stroke-width="1" /></svg>