<?xml version="1.0" encoding="utf-8" ?>
<svg baseProfile="full" height="103.61415983966742" version="1.1" width="95.47410558032871" xmlns="http://www.w3.org/2000/svg" xmlns:ev="http://www.w3.org/2001/xml-events" xmlns:xlink="http://www.w3.org/1999/xlink"><defs /><rect fill="white" height="103.61415983966742" width="95.47410558032871" x="0" y="0" /><path d="M25,27.69881402410424 m0.0,0.0 m29.592330222736695,4.320563926601878 l0.3708670584566458,-0.010375357614452381 7.468605727679072,-1.5266914936181666 l1.7570612566516115,-0.09140022023216102 m-11.330052757698668,-5.39091087924134 l0.6805986941435322,1.0318344903645567 0.2455295669716798,1.1951310091353058 l0.01685741870352842,10.120721596770027 m-10.79823545490835,1.7741759429292825 l0.38298228130512796,-0.11036489404951966 0.3725781915525007,-0.03238402168255434 l12.32045703021059,-2.337509224739023 5.390134595410732,-0.8577482964724223 l3.8916144621526443,-0.0814104847510762 0.6586649937569146,0.38347007508574993 l0.18300313085615819,0.5991858308643886 -0.17040336328244718,1.5004393024682472 l-2.224717654313844,3.0249742224636345 m-22.065172409880216,-3.9464864072155583 l0.32881232383755854,0.839166598948746 0.09857757697359909,1.3153806249052475 l-0.3008872722243292,8.058384104331632 -0.7139704482214219,6.964496125207303 l-0.9063184118669028,5.348316878379817 -1.1949060568836216,5.039471225317219 l-1.5062464050838311,4.689052290419018 -1.8058876852596564,4.224540758524193 l-2.1143329496562675,3.6240267435082996 m11.401634266223905,-28.9661670204259 l1.3526397296636672,0.22166771519398598 12.932639343549269,-3.311799513716825 l1.7548427558447872,-0.21641576124698395 0.7420637440854928,0.22448794034918773 m-11.192193730882503,-5.919833845281729 l0.5849558041767512,1.7483464271218423 -0.023666614765828254,8.562806207861302 l0.17847372997451458,1.403038702422363 0.39620830005839053,0.9167722823489378 l1.037820689920609,1.0782915739862091 1.5528306418191609,0.4089635154613364 l4.204735178866688,0.02647062124533603 2.646600054199351,-0.4957782190506334 m-11.135394223735954,6.470593793548963 l-0.026134551397411596,1.7847638942777266 -0.4985913805662377,2.3106162103346684 l-0.9236866283099607,2.9689987861266274 -1.313784220482707,3.271445189302876 l-1.2893714222455133,2.598845783648423 -1.5225448293506132,2.4828741995924517 l-1.744150983217896,2.231194147986084 -1.4689882240023837,1.4471127178686618 m15.188719869373278,-20.383126133444154 l0.3621134593018201,1.0673753983106138 0.16941066877787284,1.2854954512427932 l-0.17683963018327434,12.921713188648546 0.43864556124201237,2.47051727917324 l0.8684716476661597,1.3410102204593215 1.2224164293006017,0.6671082672068909 l1.9433958115700827,0.23491684599548276 4.326503694397077,-0.14958072470274142 l2.5562265635769768,-0.5121626586013975 1.232199111351883,-0.5476637794087833 l0.6865266112834152,-0.7355596616141591 0.3228888364964056,-0.937231611177447 l0.05894585462979486,-2.0407355538398906 " fill="none" stroke="black" stroke-width="1" /></svg>