<?xml version="1.0" encoding="utf-8" ?>
<svg baseProfile="full" height="100.63661202379777" version="1.1" width="103.98947600714564" xmlns="http://www.w3.org/2000/svg" xmlns:ev="http://www.w3.org/2001/xml-events" xmlns:xlink="http://www.w3.org/1999/xlink"><defs /><rect fill="white" height="100.63661202379777" width="103.98947600714564" x="0" y="0" /><path d="M25,25 m0.0,0.0 m13.454656263437355,6.471359305438726 l0.48119452343541036,0.15313760058991743 3.039281916981776,0.20396519713372627 l24.769093668245468,-2.760359417900221 3.579009007129799,0.2421468941707153 l1.084898658565562,0.49192928128688923 m-34.90834979034332,13.413739854046964 l2.0677964179715533,0.3232002986069518 3.8872975180264113,-0.15504971570392886 l29.101520181273628,-3.1392834526449014 2.676543432795423,0.2574013226147311 m-21.289183632153225,-7.469742734528338 l0.03575217859333035,1.2223545230405797 -0.3562349722829187,1.2309959455848487 l-2.5146492304915724,5.815940589881597 -2.733412297628094,4.86855516888116 l-2.8119205952849406,3.9698907241874735 -3.328920743801076,3.7655114163668566 l-3.781357678759111,3.56365675381936 -4.2099284973501305,3.323518334555234 l-3.6704270581405365,2.4348606496199467 m29.617828457256017,-22.468204418914926 l10.50126857678996,9.698461715794457 9.297719702878872,7.70711281371262 m-33.34347115111361,-2.16480319703651 l0.5943240639631727,0.7737652825536785 0.25043270766368797,1.136938813271784 l0.9696094471828605,9.281218146423752 m-0.4558220801823523,-9.862975117063382 l14.230321069774247,-2.1263572934955377 2.6382498951190057,-0.09457922995614258 l1.234628163178257,0.2596783378026339 0.7780389635690995,1.438433701095463 l-1.5754906967992914,7.013590391760509 m-16.16171345107691,2.0524717175261475 l16.846355701154312,-1.4048506511513594 m-9.609847685482444,-16.027971139630147 l0.382566605012201,0.931626795261814 0.08176060654538496,1.2940953771237977 l0.12552926070049802,21.871006691100153 m-14.051574700373921,2.2392387192463055 l0.7336975125752959,0.5698909364754581 1.1330481118869011,-0.009362402515521862 l24.08740908890215,-4.538216870039384 m-2.7790263729904345,-3.0095675491857974 l2.0319535308338956,1.5817469095594234 2.1243161494338008,2.310953207513157 l1.6994410905501356,2.3648192195200957 0.7250778341278643,1.5907225779969432 " fill="none" stroke="black" stroke-width="1" /></svg>