<?xml version="1.0" encoding="utf-8" ?>
<svg baseProfile="full" height="107.84255285637128" version="1.1" width="104.43534390011838" xmlns="http://www.w3.org/2000/svg" xmlns:ev="http://www.w3.org/2001/xml-events" xmlns:xlink="http://www.w3.org/1999/xlink"><defs /><rect fill="white" height="107.84255285637128" width="104.43534390011838" x="0" y="0" /><path d="M25,25 m0.0,0.0 m15.316125704273759,11.862447715924864 l0.4224561377335315,0.11454657253795597 2.964738022629481,-0.12627167895627542 l8.72240023346019,-1.6544660510779108 1.6416982520408574,0.08986385031895192 m-14.271186587156906,-7.018081688406884 l0.6307851042560194,0.908661790941108 0.25478910163855845,1.0355325575149703 l1.324982020494936,16.00964891603295 m7.352381854334943,-19.532061026945076 l0.4280090339629944,0.9988733903343816 0.12190687007195661,1.2464291693658442 l-1.8923976581014519,16.17911429395667 m-13.87523975700674,2.150457808006069 l2.321817260065635,0.19851322674020475 15.83603489016312,-2.4627278563582555 l2.305000731163261,0.2115263554273561 m-15.8415492965936,8.793652334842061 l0.4289138941983381,1.8044316196663015 0.016171407737608168,25.132832741558783 l0.13332076025713896,1.6102204463746406 m0.6122725832457457,-28.61548356316311 l9.762251789305468,-2.06185277246857 0.5593855476401596,0.11576995027879372 l0.6725716486031277,0.9911939548151066 -0.2761842423787379,27.707577017623876 l-0.2147619923706517,1.580720783461314 -0.3932433893434063,0.5714829980251684 l-0.5286724152820429,-0.18187611885427907 -1.4727499053575912,-2.0601427110896795 m-8.264492979709885,-18.667507722241815 l6.546253901660555,-1.6964607386187769 m-6.2231035580359935,9.288638830668475 l6.27766906719522,-1.2054048810858042 m16.544325825997753,-39.141240975378935 l-0.1731608189718277,2.364491789384432 -2.2237564308473696,7.6820676723582535 l-2.370644031667205,6.15327375002584 -2.3959439223526613,5.0576904086930625 m6.664577500571483,-11.343155022945405 l2.665922512713133,-0.19975438711534066 7.609168966139533,-2.266200081765773 l1.6997243975682907,0.0069686773350138035 m-4.930734597967438,4.107756828069658 l0.2212836774417755,2.212393643316386 -1.0191575937758324,5.861602460089169 l-1.6921511024658613,6.552412268525523 -2.0613711196558717,5.848520680684612 l-1.896435263508789,4.250041344616576 -2.1009891052258878,3.8277869200940193 l-2.3126618014564624,3.348959761418233 -2.5533222708630565,2.816694728962304 m3.5565432318616486,-27.74834065675768 l9.922869661229978,15.273513072178094 3.7313694205618475,5.557638568585637 l3.7402019075507353,4.479371622703113 1.4249913055182977,0.6459445552095339 l0.9863395169265784,0.08729480130471749 " fill="none" stroke="black" stroke-width="1" /></svg>