<?xml version="1.0" encoding="utf-8" ?>
<svg baseProfile="full" height="104.46641202077731" version="1.1" width="100.93750270743833" xmlns="http://www.w3.org/2000/svg" xmlns:ev="http://www.w3.org/2001/xml-events" xmlns:xlink="http://www.w3.org/1999/xlink"><defs /><rect fill="white" height="104.46641202077731" width="100.93750270743833" x="0" y="0" /><path d="M25,25 m0.0,0.0 m14.394117175193127,3.9671223447031303 l0.39687591192264754,0.4053416935494637 0.5207472614287454,3.003607733557725 l0.00780648317561552,7.85990953596767 m5.937126224632885,-11.382697896227349 l0.41741559368845926,2.9005369691625993 -0.48250143695838094,9.343627737952636 m-16.711356424663713,-11.148734062188419 l1.2513776153490301,1.0148982497641468 1.5979316013894924,1.9814952359072864 l1.523065535653555,3.2753038726722283 m20.337610309430904,-8.312507695592375 l-0.2556667028161964,1.3488710909188502 -0.9518242235031212,2.168682670907043 l-1.4019753722145385,2.174412904294433 -1.4249676068189692,1.6138454004955805 m-23.223431002604364,5.265689890402641 l1.2573774776838582,0.3158669450831703 1.4995096202744624,-0.03479942364244065 l23.95474279903255,-2.8425338980776664 1.3010091546993614,0.22623855746404908 m-18.82176877384663,4.874103402318662 l1.5755388515965218,2.2906739709655475 1.0402891775476768,2.6433212601405045 m8.766890169451962,-6.941479435823381 l-0.051009737969456334,1.2865295539225152 -0.5123624969642375,1.6355756367043846 l-2.0498758423875088,3.760166317897217 m-14.68185216581842,3.1184140792769743 l1.3520435721449293,0.2446591166948678 2.003277426263712,-0.07751621901408587 l16.26949267288305,-2.544693991448641 1.9780948057905834,0.18287555141188602 m-21.705703658084452,10.515698867503719 l1.6088910747475493,0.2968989981227137 2.5327883238455966,-0.18961557894759043 l16.55700337867123,-2.8086541991678287 1.4606001805259288,-0.049708742042716296 m-22.134237776007037,14.321404775403833 l0.7335311338495313,0.5919108556403069 1.1489759159428972,0.16157174645770758 l20.203513012839437,-7.316464380518315 m-10.643821519875269,-12.854028089399062 l0.8273959297050483,0.887757584457259 0.3321915603470238,1.1225933619878454 l0.01082970037307044,14.957158156974765 m17.180911036424686,-31.982729074469056 l-0.10898085427500505,1.3330825214253474 -0.4019870840598512,1.5737696425437815 l-2.343123088648885,6.596330782837359 -2.5317495830634256,5.094402505297455 l-2.7693128737547847,4.181637763304449 m5.9288484001437185,-7.691157853359985 l1.3086331048673232,0.20458495354407502 12.667547670895853,-2.6676021066486237 l1.7435766240808452,-0.04033716397700258 0.7088592358134774,0.6834664725433683 l0.0013263016541404601,2.0149122097850616 -1.3047738708942003,2.5878375898569463 l-2.247795164038482,3.0691503028391165 m-10.540090552776174,1.4078927023225234 l0.3542615128358941,0.9471771329682195 0.05217922700056051,1.0305942623555235 l-0.5808952779390242,3.3047098318982147 -1.337725683553929,4.426224134849551 l-1.9179167925461198,4.176942649238495 -2.040761496007694,3.2856441584829166 l-2.5179732599603355,3.066266183810307 -3.050472051028289,2.7842165113342845 l-2.606687161301644,1.8260654514014998 m13.453394783011428,-18.497786964107352 l3.9506686210079627,4.9696583937473795 5.658647947132273,6.188689107462162 l4.635062879256826,4.185490350221661 1.8481252476130285,1.1076594110865585 " fill="none" stroke="black" stroke-width="1" /></svg>