<?xml version="1.0" encoding="utf-8" ?>
<svg baseProfile="full" height="109.44072334701126" version="1.1" width="107.95728272738323" xmlns="http://www.w3.org/2000/svg" xmlns:ev="http://www.w3.org/2001/xml-events" xmlns:xlink="http://www.w3.org/1999/xlink"><defs /><rect fill="white" height="109.44072334701126" width="107.95728272738323" x="0" y="0" /><path d="M25,25 m0.0,0.0 m6.7345787828017505,13.593565185181212 l0.4750997643194534,0.1325938099231543 4.441105193831429,-0.07439649840524744 l13.18254225815226,-1.5042048384164002 2.1384496595578586,0.14141359376062065 m-10.353492342704675,-6.028794368655604 l0.7964716014247326,1.4198824282398186 -0.009815674106211699,11.401500982958261 m-15.039555088013094,1.377547294492717 l2.8822756083334804,0.31424397993094405 22.325637028642923,-2.3074648387385794 l2.9119513131103636,0.293968009668282 m-20.681156020572057,3.534723242336478 l1.3272774199673156,1.4128936505335015 1.1669049009467056,2.23004666681383 m11.062754258034406,-5.488268039924438 l-0.7485611790103893,1.1963134779684126 -2.5770387341894545,1.9126650677995816 l-2.1291417315703045,1.3802137160760146 m-13.849640939408326,2.3606913363507114 l2.4384419426281956,0.1321766196361604 14.580420031435525,-1.1889992132245035 l6.640162981514202,-0.015766497474758355 m-23.538141749663588,7.627594147956443 l2.277408604005699,0.19407663905585773 16.373445189505137,-1.5996080864596947 l3.2930278236786963,-0.17096678319119202 1.5877164538113504,0.1713631292266245 m-11.184504846011256,-4.965528265380194 l0.8224465491002547,2.193073191460501 -0.19747887160121305,13.044207680933077 m23.487629136812302,-36.276776359958326 l0.3915774710447504,1.1660621254395704 -0.37661527442452286,0.9046577590991922 l-7.330420665119011,5.335113279629165 -5.613421748655787,3.0651559992975868 m10.66966769832341,-5.5283737207863215 l3.1285228953226727,-0.6328135638515501 8.175647917380186,-2.09208056417427 l0.6910725724458839,0.12436755414024982 0.25507035443231224,0.5232261030320075 l-0.16921688226411094,0.7889704091841024 -0.9754672981822233,2.67453579520045 l-3.8221210730300124,6.026913223779655 -4.784713879807849,5.0837869484272735 l-5.206422630849716,3.7867387106452646 -3.203768977728241,1.666021426142297 m4.062372482871378,-13.31142066373312 l3.018122161488677,1.7396164393551987 13.03394319099672,8.630847303642923 l5.376235088375236,1.9938091157298965 m-36.25685022067919,1.6840935642767867 l0.6412411111841506,0.814585562003645 0.32895279437520136,0.8576961118068828 l-0.11154810396982728,18.067174815983897 m0.4156736844078205,-18.97992150477378 l21.275423470852292,-1.7093623249517136 1.6009830050748641,0.03980739449945048 l0.5660201591559717,0.31003923628175706 0.39055281124203706,1.5705697733053972 l-0.28114762937217447,18.95839277648702 m-23.644438189491613,-13.287305338490945 l15.420582614710415,-1.123718864580221 m-15.429640494381957,7.15068530120208 l14.691300005398668,-0.984224197719518 m-15.241760628262636,7.423484421017627 l23.413427572725215,-1.05549259312895 m-20.25082281356047,3.8557220072309715 l0.1659381625325898,0.8801700183328959 -1.4808976662063607,1.0679249924580865 l-5.689183227414501,2.9504140496093694 -5.8357532791915485,2.560874405487675 m28.20334052509717,-7.649079484368199 l7.42656735225399,3.5627965940324646 3.4757613198417885,2.2038729299344473 l1.8144379555631451,1.5470920566367532 " fill="none" stroke="black" stroke-width="1" /></svg>