<?xml version="1.0" encoding="utf-8" ?>
<svg baseProfile="full" height="93.43237186139687" version="1.1" width="102.2585717535498" xmlns="http://www.w3.org/2000/svg" xmlns:ev="http://www.w3.org/2001/xml-events" xmlns:xlink="http://www.w3.org/1999/xlink"><defs /><rect fill="white" height="93.43237186139687" width="102.2585717535498" x="0" y="0" /><path d="M25,28.944500647591966 m0.0,0.0 m14.690694436694793,4.56579289276813 l0.3598964296603194,0.13224653567268993 2.594876037104381,-0.12164034847452321 l7.8933004301438565,-1.5989080549156502 1.226851799626824,0.0952190984628967 l0.34790846840529444,0.35101858655263507 0.10293113909367743,0.5485777963429899 l-1.5030940346117996,0.6472179276429575 -6.845758118547145,4.1184860154273695 m-0.9913605552118661,-1.8501886850849083 l2.3807444758435548,1.1975840389808239 1.4492209132466443,1.5574824786597745 l0.8547318304502517,1.2971935499202099 0.5672070085340621,1.4667649447831377 l-0.4244286981222967,1.6007129008855117 -0.6826312127515125,0.920808546302549 l-0.972566614451702,0.36308776603005444 -0.5186668058278202,-0.151060249499717 l-1.0695295635484703,-0.9194592748499256 m-8.635535387639294,-3.7947544024984907 l1.0987964931832552,0.2755906162958153 1.1003151156950515,-0.20719167783202572 l13.453260513518643,-1.620243587290267 1.0148378362112183,0.03291000438164359 l0.6952181968366868,0.6209477203237984 0.0020508256737206813,0.9608861899238352 l-0.762081301908903,3.050602940846595 -1.1688387414142007,2.8534507287843467 l-1.3623716516082363,2.3863699203371738 -1.0448476429502036,1.080198126122264 l-0.5211450537778186,0.20637837120138966 -0.5200995095121086,-0.017777222619528174 l-0.943036361104293,-0.8676874151600542 -0.5655277634253212,-0.8608104359391506 m0.3692668095627269,-8.814798635083562 l-0.08503756806141359,0.8859989049932699 -0.5189198434244466,1.201332210569131 l-2.0098045408873624,2.948905048859077 -2.278115498786278,2.404167272401799 l-3.053173782737859,2.343071065302346 m23.117987058014478,-18.312118859276705 l1.5335248088071298,0.06440855960045361 2.721344899805419,-1.4626374266517668 l1.1613554700159336,-2.5678515213023605 0.9173357028089452,-0.8029303338417471 l0.4783387383822489,-0.15185327564624918 0.40161196421068024,0.11877082570386 l0.226021259966423,0.3885929339921699 -0.055246614252920836,0.5475435206986323 l-2.056486247896465,9.060866500492661 -1.0866012857414449,2.6135562922141933 l-2.427594627898024,2.2870627175063305 -1.7970263378447087,1.0466797240478443 l-2.186394174292597,0.9931460006983995 m1.3659481848388015,-10.324533621218954 l2.0836674835436475,1.1244570793951496 9.670111290287457,6.496191174619155 l2.6969052661044044,1.4340036180799678 1.7682304055157854,0.6261235194169757 m-27.340990755570413,2.9468078725879936 l1.466991433798967,0.1679148674137334 12.699541172084409,-0.029590888379656035 l4.1675102701711975,0.47250890310090904 1.692272120933983,0.31655160353340056 m-23.13267707914712,3.913700188799608 l0.6997466125668991,1.0021237721900726 1.2620219599446851,7.057727683313071 m-1.1421073141894973,-7.267717141874037 l20.053853651112274,-1.6264772679948976 2.0915118034644977,-0.04736443931339611 l0.4893874957068575,0.20293163203977507 0.3123729220593655,0.7806770183356699 l-0.5653554471237863,2.560379398619073 -1.1615397292366003,3.5361095567779954 m-19.599003580346526,1.1869152867868877 l20.47068590424943,-1.1441917077616175 m-11.809484313684923,2.04818583900198 l0.7153339850722201,1.0564354923129105 0.13716247741952264,0.9228399305669099 l-0.13699747227095904,8.470474998464402 -0.29335749316229837,0.4405537139648769 l-0.4546618965317095,0.052415263264813765 -0.5549503088285392,-0.21575577230575238 l-2.1163776010338995,-1.5970804111407848 m-6.212200960918138,-6.455768089766117 l-0.049270813969901565,0.6524978656962183 -0.39335547148132893,0.6683462023592199 l-1.9402646260665501,1.8640873824952715 -2.7794966690538607,1.8922171300406854 l-3.048636635782787,1.502517103897723 m26.446167729944204,-6.792124180206773 l2.5444429843308116,1.4206345957849733 2.4997716755063495,1.8958455286727507 l2.060638777418349,2.0214657688124467 0.928791809716947,1.5347396269942872 " fill="none" stroke="black" stroke-width="1" /></svg>