<?xml version="1.0" encoding="utf-8" ?>
<svg baseProfile="full" height="103.74957782704192" version="1.1" width="103.95901138119531" xmlns="http://www.w3.org/2000/svg" xmlns:ev="http://www.w3.org/2001/xml-events" xmlns:xlink="http://www.w3.org/1999/xlink"><defs /><rect fill="white" height="103.74957782704192" width="103.95901138119531" x="0" y="0" /><path d="M25,25 m0.0,0.0 m15.102631535072241,12.345933225528555 l0.4342375812829855,0.09924429837973378 2.791717440801289,0.14106051267613878 l10.392706770195513,-1.4187497924207821 1.2629909556500163,0.06300102006557742 l0.5064625255123075,0.30244127892749234 0.16718091298640952,0.4561092253903776 l-1.5920643848810494,3.8726377445652527 m-12.167530530968037,1.3794195135541343 l13.164945890929483,-1.0720655910327792 m-13.804572003965312,-3.828947845827889 l-0.4255050876435683,2.5066708298834395 -0.8133752864133499,2.9289019307823585 l-1.810748314871922,4.273571666814135 -1.2464990523179584,2.039665850961012 l-1.4629469106256043,1.9089177181582109 -1.7127878765745064,1.7161243657556282 m7.313995438724481,-6.5453614802025255 l0.40951484505565283,0.9414551279481026 1.2020536877077777,6.519581061705476 m-1.226546018002026,-6.816675494002058 l9.907363429515689,-1.1595323245059652 1.2300136861262916,-0.09211683206525643 l0.5096770504428517,0.12296146618258377 0.3063958397323953,0.7237869511855413 l-1.6343141155829648,5.185241281205328 m-9.071189671825367,0.9591557212465631 l10.066613328894954,-0.7818068687080293 m13.257194321525478,-18.82908833009658 l0.8920950555694049,1.0436373481413435 0.02392564152791122,3.2804633062252533 m-8.815939569340463,0.7273213880843363 l1.9503603224981738,0.17075265870431638 13.91602664993113,-0.9713094513257154 l2.5208661456342245,0.13235280327532226 m-15.037770132885575,1.9441214530007522 l1.3736094671674142,1.5753303938055234 0.6406021379820238,1.5668445505269213 m9.023748277510117,-3.919040470565776 l0.08005258829686052,0.7202629645982457 -2.4526843531054396,3.2879905012768256 m-13.661515874199962,1.3703466869656313 l2.882496296876581,0.20012585334356292 16.009876503627673,-1.083989239360383 l3.555646237621102,0.1592186835656762 m-20.64860971522333,5.438297690537291 l1.8328712151714177,0.12862299542370587 14.045607465701307,-0.9249037950627174 l2.8031229812321237,0.09318758740462821 m-10.802532715124515,-3.4910103833238706 l0.6233568057838195,0.6810647170968511 0.25566880366161066,0.8633825851638003 l-0.14090427115014012,8.123656196176443 m-24.785812272434377,3.511262304737344 l3.647258119060872,0.22937973462485114 25.979198165090214,-1.469550175432618 l3.063116657473719,-0.10804503643848268 2.7183727045811095,0.20600910022470958 m-19.230759799141605,1.2717940535547683 l0.4980429639850409,1.470714377181044 -0.04400343367251345,11.371321326230893 m0.8038092507268061,-6.956086383758782 l10.735991348548112,-0.8823400372004453 m-11.306787498906182,5.845771351523957 l11.601430438149906,-0.9927196096463734 m-24.377285752478052,6.476707664976439 l1.2613717551335295,0.5025488366142626 1.208143538799636,0.09169103066830521 l29.752262226027106,-3.392704109842619 m-6.111964705434009,-9.872850054373993 l0.6433612314260484,0.7273044979808807 0.2749107864537841,1.2387343308640493 l-0.004170210774399313,15.422371368821986 " fill="none" stroke="black" stroke-width="1" /></svg>