<?xml version="1.0" encoding="utf-8" ?>
<svg baseProfile="full" height="110.67724586198179" version="1.1" width="115.31171689871951" xmlns="http://www.w3.org/2000/svg" xmlns:ev="http://www.w3.org/2001/xml-events" xmlns:xlink="http://www.w3.org/1999/xlink"><defs /><rect fill="white" height="110.67724586198179" width="115.31171689871951" x="0" y="0" /><path d="M25,25 m0.0,0.0 m2.3922874118921733,20.167053106396423 l0.3027296977410248,0.3747968156401671 0.4165645473478118,0.9408541763016035 l1.921523389389817,13.019131081508952 m-1.560143958097028,-13.695874726794592 l15.349714879757654,-2.107217943054728 1.762754599107715,-0.07320612323822379 l0.581027318669697,0.3717902420038856 0.3500365952699109,1.1893064026036422 l-2.148930463359265,10.534092474441943 m-14.376392211393062,2.0741416968965685 l15.767117563270897,-1.943261403717418 m-10.253903686468755,-23.451341302117285 l1.0004734119735954,1.1822181569253092 0.4803223175302466,1.5199057705424468 l-0.13304715671742282,35.3251428981513 m-9.374646690518901,3.3372841231549804 l0.9878389569159518,0.5859395718793678 1.0046354673946782,-0.09042078163611449 l15.97358880895139,-8.374968749525559 m-2.5807140630520333,-4.392687933505102 l1.4000226743631143,1.948170798576381 1.5440787536356093,3.0274047775947066 l1.6787182588567964,5.10454013675505 m2.517078825754079,-30.777016588171993 l1.6676910539730383,0.2573970065225482 2.0044821984247947,-0.07387206658834052 l25.152581131328485,-2.4757248585402603 2.271584638229247,-0.05375799851368837 l1.7179505598443783,0.24393928500577394 m-19.246415349385433,-7.635271374583342 l0.6632584568902657,0.8175914264231324 0.2434223283582123,0.923616246238161 l0.6875802004794175,16.051854832586514 m8.402491365960199,-18.627432074880463 l0.5538131615210707,0.44876047423329907 0.33486858416212056,1.087876639906793 l-1.3879254650744524,14.515140436102849 m-7.168106579093374,1.0834908540199528 l8.37936029202266,-0.7717262320099378 m-19.459718220213528,-12.869578727507369 l0.6544905517012801,0.7977073656289903 0.1714173925925264,0.7927631405483383 l0.12082733616898665,16.18569098018112 0.3154337683545925,1.2608412610566735 l0.37203762142747765,0.3101010229279817 0.6888999486974599,-1.1979692272418605 l15.548289556391047,-2.1741705341714637 m3.4381679430796983,-5.060390604588424 l0.18417713082873366,1.3761736813525542 -1.2074412582988407,1.960031590929155 l-2.298450435953566,2.516051855247271 -2.85668665501907,2.267523207949582 m-20.472176617343727,5.67989011206627 l2.832332438973949,0.2407667878812214 23.20766040421552,-2.0689687509103187 l3.201881579290378,-0.15326147650841454 2.433847236267431,0.23714353059749083 m-17.849703015761804,-4.169410476917901 l0.47459752142984785,0.5900395020664758 0.2650267501847161,0.8420625455260274 l-0.07788628080700635,22.497586945208663 m-1.4528216764731257,-18.422690809113057 l-0.33371504111865913,4.11317771522676 -0.9314798611649896,4.103734561138628 l-1.403924900348303,3.6362724165690543 -1.763109143242109,3.0323158874771328 l-2.0369247973151605,4.245716798134536 -3.637699696842608,6.109072480053606 l-1.9923782148241735,2.4113638076383617 m13.052326515366383,-20.915155013018644 l4.469673567953805,0.5652383899763563 13.79889951704023,6.746310330613812 l4.987836441868624,2.9087124213855957 3.5886376657571475,1.7415397976074793 " fill="none" stroke="black" stroke-width="1" /></svg>