<?xml version="1.0" encoding="utf-8" ?>
<svg baseProfile="full" height="106.67290522165672" version="1.1" width="99.27402247825114" xmlns="http://www.w3.org/2000/svg" xmlns:ev="http://www.w3.org/2001/xml-events" xmlns:xlink="http://www.w3.org/1999/xlink"><defs /><rect fill="white" height="106.67290522165672" width="99.27402247825114" x="0" y="0" /><path d="M25,25 m0.0,0.0 m13.135020600460239,12.753606363290972 l0.3920161857672972,0.11107325015503465 2.804684191964512,-0.17059180014776673 l8.087463218678613,-1.1280588892844159 1.562214467408662,0.10024152405401979 m-15.153028908126727,-4.984001059951201 l0.6664442320875696,0.8562935659318036 0.26919131420035025,0.8547570678640745 l0.6248544789675096,10.723582076187821 m7.2886626142960464,-13.416849901899944 l0.43146844651099164,0.78908479070953 0.12744171148946015,0.9517051125302195 l-1.5547012250513643,10.574724443032517 m-13.705764435421818,1.5542928461166639 l2.288196974917486,0.16797400537606721 7.198311026927813,-1.0364081260428533 l8.19876301463527,-0.8997415226777442 2.1646458978837058,0.22476074600894838 l1.411065840118501,0.3353639865788073 m-17.445646793795788,6.011766773020781 l0.4583760249035997,1.4129943926884165 0.0233102555756389,18.510356163828455 l0.14243796791681268,0.7745570960563906 m0.42266993366094285,-19.281973283109693 l10.230886260959107,-1.536822780613592 0.5420366671316038,0.0626763449953849 l0.6841571780904593,0.7068952933028952 -0.2707404152389345,19.74214316811906 l-0.2533505762466839,0.9423347928502369 -0.39461352243931064,0.28877459866193794 l-0.5035467622493444,-0.19249509753351915 -1.3860493958518356,-1.4310897128404192 m-8.468189185744862,-13.41972407648672 l10.47046321978859,-1.202697327699203 m-10.189238685280024,6.956745016890756 l10.25804293055956,-1.099191513272671 m12.341033976172428,-26.39244434448748 l-0.1258074168668571,1.6568060505379125 -2.1257392745286774,5.404224338618595 l-2.319125631596121,4.268439619011191 -2.346331723781634,3.4476569732598636 m6.175899052353963,-7.369117134706557 l2.7084195953862134,-0.15435866769731368 7.9786870806329695,-1.6678509754455395 l1.8267294563532634,-0.010597233556316343 m-5.632919103058205,12.613285400830293 l0.32999323402340197,0.9763066482071222 -0.08889662862903168,0.77555326341777 l-0.16474923631703553,0.9526693383857578 -2.3523764790340076,13.77643813317519 l-1.4358097997594967,3.9315374338253926 -1.7414249996097497,3.4267351413988414 l-2.0729905668317783,2.9940829210234607 -2.3996471045120424,2.436479989167476 m2.411502973964392,-24.041371237476838 l1.676898898258592,2.291148800580547 6.868365498082143,10.735875808588961 l3.397403505469854,4.756641255923196 2.393291494217483,2.6566614305332212 l2.109705315825184,1.3626944238080845 1.3039556125822296,0.272208223478765 " fill="none" stroke="black" stroke-width="1" /></svg>