<?xml version="1.0" encoding="utf-8" ?>
<svg baseProfile="full" height="118.44829352158563" version="1.1" width="112.17242988378858" xmlns="http://www.w3.org/2000/svg" xmlns:ev="http://www.w3.org/2001/xml-events" xmlns:xlink="http://www.w3.org/1999/xlink"><defs /><rect fill="white" height="118.44829352158563" width="112.17242988378858" x="0" y="0" /><path d="M25,25 m0.0,0.0 m13.241918207496157,4.58676962063852 l0.448816348760287,0.3807210091150536 0.5899536851666756,3.127797082716173 l-1.7353593572559267,8.152998363692086 m6.557170851560048,1.6776557740259441 l0.23771005599222786,0.8841630248736543 -0.22635290276058082,1.0288759988660394 l-2.04112850354455,4.855742606448519 -2.1190827948512987,4.382338917909285 l-3.0109889351432138,4.829392159459311 m5.839657733433216,-7.5147838461356 l0.3146862964123774,1.080332494690681 0.08003589003463579,1.789272199502087 l-0.05479994470057889,19.20398334565373 m11.686009147137431,-31.96899665410842 l0.21510729615401042,1.285119226430244 -0.26858795561274124,1.83893163351385 l-1.5217223604699495,5.576326999776687 -1.8540737693584193,4.7535856857545005 l-2.3546401963243904,4.171879309136476 m5.517660523556289,-8.207270274565621 l2.0048763946522565,0.11407756944842101 8.130153327531575,-1.8753232032342475 l1.765916751909502,0.05792733805399946 m-15.27319434565029,3.163505168538198 l0.6691147164061184,0.9577737064474928 0.19636850287591331,1.1026098111334846 l-0.054995676558589335,21.923480669151758 m0.179803294385662,-22.80514479364204 l8.732648403173231,-1.541290275784083 1.3116182257803224,0.043385585681244405 m-7.237393405704629,8.659006394459988 l6.883637074190783,-1.0543798042904573 1.4871523471409192,-0.02167026252680862 m-10.498117275125953,8.724924013763657 l9.666158444945898,-1.4242309694439872 1.6545589845700026,-0.0013640540549343081 m2.4994806917889267,8.48266748603687 l3.370911670636004,1.3420087583221185 1.211628678937099,1.201667071024845 m1.7520571801859541,-24.193065378752596 l2.4416314737191227,-0.03623540764023081 8.400479718095854,-1.494205043238876 l1.865866920616287,-0.005866816265897914 m-12.67845030047882,7.905993926927818 l2.1077367254418102,0.05219045880270252 9.891349947470642,-1.3882668595143783 l1.8523126065210038,-0.014592182506710938 m-13.230518184522563,7.692999018475685 l2.1374390442283793,0.18330276380821353 9.217318195430266,-1.6529136568896707 l2.172890435514201,0.013236037996983786 m-7.2958685371206045,7.820709800861839 l0.45401351799009393,1.4767756847088256 0.06013721941667137,2.3371739493952917 l-0.14125616520124673,16.389446209591906 -0.2558763582990957,0.3971461293460087 l-0.4645754353132342,-0.02786061051014354 -2.332908639676098,-2.3964034194131303 " fill="none" stroke="black" stroke-width="1" /></svg>