<?xml version="1.0" encoding="utf-8" ?>
<svg baseProfile="full" height="106.76311634516611" version="1.1" width="119.66875324744063" xmlns="http://www.w3.org/2000/svg" xmlns:ev="http://www.w3.org/2001/xml-events" xmlns:xlink="http://www.w3.org/1999/xlink"><defs /><rect fill="white" height="106.76311634516611" width="119.66875324744063" x="0" y="0" /><path d="M25,25 m0.0,0.0 m3.0834668034739052,24.271581417686104 l0.32181008876119893,0.3238214884693131 0.4040999537179908,0.7073105674757844 l2.4293964520907463,10.88873633818087 m-2.0160964668405197,-11.115211991136224 l15.155009879372404,-1.708141605537319 3.7234407084544534,-0.13269023048932715 l0.5712747111844035,0.3100549393205385 0.3213766557155462,1.0065195196296646 l-2.473335703770025,8.969479271152295 m-15.246266304022422,1.6270879569193648 l16.584962605255665,-1.732908184156574 m-10.947740358223296,-19.581706917617293 l1.106130588761322,1.0128141623601679 0.5217250484933252,1.2959388413929098 l-0.1444208389516344,28.880382363550655 m-11.030845234065847,3.710714478410304 l1.104553354131258,0.48458190846654325 1.0916476568330675,-0.07435979724326888 l17.75463115920763,-7.73355692285842 m-3.016906410498251,-3.5046734397978954 l1.8170724345723888,1.7070222648299016 1.9542183448623067,2.4698877729881605 l1.5041188716014149,2.4699183212231555 0.679079768101808,1.7004494889288142 m6.483826026654538,-33.3010855784631 l3.1762822592311357,3.141554394198558 1.761959155281191,2.190090794862598 m5.298628862139988,-7.403833848843318 l3.210418155629815,1.5964584064623546 2.932466685321212,2.058327427965621 m11.689394827728577,3.4684085028657052 l0.07201532149317828,0.17828836770841752 -0.3474793227088621,0.551842479510773 l-5.926512972216713,1.8755745269318225 -5.369777221157391,2.0276408622714137 l-8.430045135774234,1.8247898636458888 m-1.6919787479371264,5.503290449083911 l1.7117466188265555,0.6470048034013179 2.1143527217122693,1.328364811670016 l1.7911384603129934,1.511183716217579 0.9267560387648067,1.1589555106502678 m16.465593264356375,-8.011852574164552 l-0.23233780275667598,1.0599649950608732 -1.3804872710257394,1.8544946651849499 l-4.249756769652577,3.686151913609497 -3.5609148735375067,2.5359375854468666 m-18.446986070105186,3.5967633446818637 l4.41634777905522,0.19494327589725116 25.577565286347596,-1.4971057661822353 l3.2786924609134864,-0.08257078614624523 2.5748469181431344,0.18969034897455794 m-19.515402063228965,-4.844861920402321 l0.7861284498088028,0.727773139150806 0.3743512922820933,1.2065797155372728 l-0.10573216084548258,21.537300906229472 m-1.555919068770943,-16.947990944467648 l-3.2905257296219514,3.793376490885173 -4.871828639554037,4.019113530690921 l-5.102091848395107,3.0663816221297915 -5.329702082285741,2.2378817183826225 m20.598841797348335,-12.286695782367287 l15.261380180962645,10.274142193215546 1.5489772586731587,0.816103416895623 l1.7721174378089304,0.508945214120607 " fill="none" stroke="black" stroke-width="1" /></svg>