<?xml version="1.0" encoding="utf-8" ?>
<svg baseProfile="full" height="118.39936019801355" version="1.1" width="119.61583429598909" xmlns="http://www.w3.org/2000/svg" xmlns:ev="http://www.w3.org/2001/xml-events" xmlns:xlink="http://www.w3.org/1999/xlink"><defs /><rect fill="white" height="118.39936019801355" width="119.61583429598909" x="0" y="0" /><path d="M25,25 m0.0,0.0 m13.315650975776903,5.371182837248507 l0.46994073390114943,0.5138634571280466 0.5058066662582691,1.0672021152459892 l0.4291010979777887,13.731294618746709 m0.34803249646234774,-14.589861116924787 l10.888685244507302,-1.7607265083402546 1.3438636823640049,0.13835413989658038 l0.7230882463443595,0.31427670377798406 0.4628555504367693,1.5816853829598005 l-0.06654056044511612,13.388718167745239 m-12.653205640935399,-7.405636668590497 l11.917720016301544,-1.5402500942328894 m-11.43744979934128,7.192896292230979 l11.369030334942245,-1.2305155373722216 m-21.063830457538323,6.978836817479085 l1.0126962629512672,0.7836917605943018 1.2407549837264218,0.2357046629500429 l20.536682662486456,-2.447356335985961 3.5520614582597374,-0.24587623966765795 l1.2757055260778822,0.27400466799691864 m-13.90392435538843,2.3264614339828213 l0.07246812071892451,0.8255541764338126 -0.4405074653425825,1.08850448058088 l-5.197748695172244,6.589070575774018 -0.2896815735778512,0.8537587946872278 l0.24163166087323223,0.4874172634435796 0.8313899156501784,0.06343311758372436 l12.9419999661718,-2.6305606463443114 1.7541126639943407,0.301302782951228 l0.5430831615243309,0.4534410955561749 0.27991558873748645,1.2836070793390375 l-0.6560598265579295,2.656012580660961 -1.24438142388012,3.640180237271158 l-1.6708702485788585,3.7408972250029 -1.4794397218605781,2.195841514681875 l-1.2642496093065239,1.0775159150868683 -1.2034357719864046,0.19188096404705565 l-1.0472164238356798,-0.6654374764973037 -1.0842305739327263,-1.5447886317799346 m31.813484999612587,-38.5451183924151 l0.025405969837454096,1.2840186315135123 -0.564931412196381,1.059541503306235 l-3.4960774172883515,3.715336850502656 -4.31232789327735,3.4432044909764863 l-4.7722473833078745,3.03904366308996 m14.51747438405155,-5.061122399140648 l3.282820264522406,0.14812358206879228 10.57996960054105,-1.577085652389996 l0.7813935493667359,0.14039608972289253 0.4073647653625496,0.4312493064159187 l-0.3253326014675057,0.6620466597399247 -6.111935658101582,1.887680210981855 l-7.126698748573387,3.0037698605112655 m-5.0707048322176895,0.6158662945334948 l0.4882519714057191,1.6546611848839368 -0.6116413240927785,3.7238241440546362 l-1.036832383392795,6.505283628825265 -2.1960690254442037,4.980690348333556 l-3.648016584164896,2.453031798262139 -2.49223206563292,0.9903184247812011 m13.229879902112115,-13.129145127976136 l4.502879183624522,9.132614770775959 3.332091400509253,5.836850010457916 l2.4161645982668913,3.2124739456589277 1.6028384086524972,1.1792623288090247 m-37.829244054459544,5.2037333981646245 l0.8547938848286942,1.5478848901015914 1.2377169749708672,3.9831317346839756 l1.6298694763694728,11.592212413432001 m-2.187556022120649,-16.173813703454172 l29.45657777655367,-2.464691802584993 2.6096016530939417,0.2950651133073391 l1.0322117990683533,0.8123778788418765 0.26150005076979094,1.1057537459309001 l-2.838645043832088,13.242437267152129 m-28.78499294010027,-13.28700801545834 l0.8402719338673489,0.4255083210459293 0.4869065318018487,0.8718546577338524 l1.4673024894145261,11.11948739292202 m12.113091647273016,-13.026738789466773 l0.5559989800525441,1.1444857368623584 -1.229379258047505,11.833417101704073 m-30.66699798533615,1.2508954416924385 l3.2141379551930918,0.27450290868355814 39.06490238608313,-1.5785831510882804 l3.924926716053455,0.1560292343082219 " fill="none" stroke="black" stroke-width="1" /></svg>