<?xml version="1.0" encoding="utf-8" ?>
<svg baseProfile="full" height="124.15745348091271" version="1.1" width="102.52439044166941" xmlns="http://www.w3.org/2000/svg" xmlns:ev="http://www.w3.org/2001/xml-events" xmlns:xlink="http://www.w3.org/1999/xlink"><defs /><rect fill="white" height="124.15745348091271" width="102.52439044166941" x="0" y="0" /><path d="M25,25 m0.0,0.0 m20.762866687297954,7.268889099817659 l0.0244022685193563,0.4701133994731861 -0.48756641476632034,1.6953770398404393 l-3.570157474022656,8.113425364273192 -1.717051718466945,3.8552103543834297 l4.466116196552985,3.841318785312356 m5.7299257959975325,-9.249923922193625 l-0.11796282746488813,1.44056625062883 -2.5600165398331862,3.0668132267834882 l-4.0801518713182885,5.333170449869391 -4.437973126564321,5.943542224522131 l0.5140383562884002,0.8237440772908652 0.7541114375085614,-0.0413636877201317 l10.838036230572872,-3.5550146249976438 m-1.954163841979986,-3.997884097083789 l0.8164389165076992,3.3976240455926643 0.6208206062905032,3.854820625358196 m14.79378012981083,-20.869203034793202 l-0.5967361384247047,1.0126406388282345 -2.2816771428406706,4.585552247807061 l-1.8999128933936682,2.196244374410056 -2.1006653696118756,1.7730210044825525 l-0.30115802534309066,0.6787938150970171 0.260183287130007,0.5337886823289654 l4.772931466667618,1.2135798124652233 1.8029965852292344,0.7951987653608867 m6.344278921864646,-9.53911355712842 l-0.0006849204939104326,1.8066516509506751 -1.5779391821602775,2.893532143351672 l-2.972206676862279,5.110370494566137 -5.180303458950761,7.624977989810821 l0.13903971178892233,0.8881695271906022 0.6703541660169801,0.17947635114915464 l10.075014097267369,-3.361484434437265 m-1.6363306891028175,-3.30207506012946 l2.5779187408594106,3.673072085389677 1.1803882067702964,2.159042282426046 m-38.79991856437755,11.281676963193949 l1.9144059176936945,0.3787776882815311 2.077241821053369,-0.08120425483035267 l17.83994944845984,-2.3010499711254258 12.851888998145643,-1.359087860695516 l4.186881598720598,-0.2866408384756545 2.782957724633298,0.29090899222432204 m-31.35515113242608,5.600747127031429 l-0.1377831149665077,1.544395172992256 -0.8967596654776802,2.5939265664135163 l-2.786118994841158,6.411568968980841 -3.0364914679280055,4.925933958496165 l-3.5964708540923818,4.0565544333391275 m10.473529501161947,-12.764450349780367 l1.645306361655899,0.9889210727744548 1.9128883312099925,1.597884875437174 l1.801409311526787,1.9894001599061701 1.1633689514195438,1.8048312128211352 m2.02334731466196,-49.573397832071656 l0.8324538110647786,1.4280887001030866 0.33829596218313995,1.1916711787004948 l1.2972525514399436,13.29367919486373 1.8324170553916985,10.733020933726326 l2.4194080836269047,14.902261210029053 2.132303232809011,7.845097808864055 l1.9668254908995844,5.127356264523424 2.313152155893683,4.476511971285471 l2.6590367945560045,3.6171538283036924 2.047655070517582,1.5879190352981716 l1.6576539616172936,0.5423328800250327 0.6143325579334532,-0.709366762714572 l0.130235443142879,-1.8771667613742609 -0.2663426730278935,-3.97617822776811 m-6.0223830886293435,-19.296426928124593 l-0.2555546696741894,2.0813111132573536 -1.472491705274127,2.9913645454087954 l-2.356590437688404,3.3577605055160036 -3.112670291763025,3.50821425787977 l-2.9681433197715776,2.766914394548511 -3.3552715297337596,2.6385815233178813 l-3.877662390367972,2.511123841092041 m15.062905827716028,-32.81935044760756 l2.264971852094968,1.5736953351910645 1.5196991545657417,1.5622026218213625 " fill="none" stroke="black" stroke-width="1" /></svg>