<?xml version="1.0" encoding="utf-8" ?>
<svg baseProfile="full" height="103.61441388134385" version="1.1" width="96.72681040976423" xmlns="http://www.w3.org/2000/svg" xmlns:ev="http://www.w3.org/2001/xml-events" xmlns:xlink="http://www.w3.org/1999/xlink"><defs /><rect fill="white" height="103.61441388134385" width="96.72681040976423" x="0" y="0" /><path d="M25,25 m0.0,0.0 m14.574706893773998,12.613751527305785 l0.4468284460065261,0.16695425669390918 1.510544733935331,0.07901636068555526 l23.697679933251663,-2.2446391021007006 4.2078862206588274,-0.15845436159626602 l2.2891641821378874,0.23417833843743413 m-24.981448384241393,-4.949193402218288 l1.059687109483543,0.7293668686897183 0.35392549804791396,0.5822660938549578 l1.4615747733001152,10.723949113221567 m12.356356159448781,-13.362921696741088 l0.612027942002187,0.7972022165095677 0.16442918229769724,0.9966935086442892 l-1.7741910522547049,10.802903539174643 m-22.125859052234187,-0.08020811606478971 l1.707726881879868,1.4588384795358083 1.7380191313194897,2.016309330335099 l1.3787150948020777,1.9158940426758975 0.60213101988836,1.3779876752837072 m-8.272537123116454,3.9658915441390596 l3.2493579009875972,1.9332963578076467 1.7113209697551546,1.7755084239114052 m-5.066490050157067,16.3427451650164 l0.9969077246866006,0.33224600538867566 0.4722451706108252,-0.021027261023996453 l0.7666694618041298,-0.5948736864482872 2.315823286651451,-3.5383528005828593 l2.1436596964190033,-4.004992918924174 m9.270306787981806,-19.55573594796493 l0.47621074403427,0.18196400439928284 0.5506719020436613,0.9297598248401613 l1.18876851144971,5.1637085243045915 m-1.3245839521129632,-6.054914803034879 l11.465864149793799,-1.2333050993726304 0.9653666813019527,0.11771294629772133 l0.37952929697909066,0.3229092208983947 0.08146392736226582,0.37347345655785236 l-1.610686095968188,4.682673762080507 m-9.481483282401419,1.3075438859232948 l10.25653275725293,-1.1173068385942762 m-18.67454426433423,5.60710399924345 l0.37894334666468077,0.3067273764291099 0.5892098432654997,1.6414091575260896 l1.2164506046187067,5.051633646357178 m-1.166114426255509,-6.537194949959861 l8.110917758867325,-0.9385051287385441 0.6439517582601403,0.16678167049841833 l0.19974058141228476,0.43238654042916475 -1.303432821846235,4.9500319220094875 m-6.685094911611,0.9721265381566139 l7.848446268679582,-0.8052977436442943 m4.946974346179683,-6.508137792973098 l0.3825113748565287,0.3839485387153535 0.3403579905062318,1.1968464804633678 l0.8999093119248948,5.486576950808805 m-0.6912829304739416,-6.377855343999319 l6.984130409396698,-1.2417153894475688 0.8638835007201818,-0.07229459457359089 l0.8545203907888623,0.30421013009150827 0.3691311658847885,0.7442131271963195 l-1.410724774129836,4.837315072618117 m-6.9898536004793925,0.7333210651424502 l7.835330306496395,-0.5675233788137848 m-25.68884470199294,6.995540720805153 l1.6540911734458659,0.33177241881058317 2.267480623685465,-2.3599645056124037 l15.446407720429741,-3.638203788666963 0.989975509779835,0.30563745627896527 l0.326490732588826,0.4321697916427276 0.04673032012749678,0.5686107905696572 l-4.0476445065399735,0.5237031319473755 -4.438069235262885,1.6410060660005243 m-2.3339522308079985,-2.027816034027344 l0.6258538070226547,1.4032204700713737 -0.022865101435269448,11.861168244196087 l-0.03038828149182114,0.8147101386542016 -0.23484030521878171,0.44979793800091383 l-0.4127577518820403,0.09477915707999933 -2.0929441340443864,-0.1813233661726695 l-1.9932282381060544,-0.869158832716273 m-5.669492166189114,-8.369057618598067 l-0.13631162121055368,1.23196700431552 -0.7032145577032067,1.5810586058719107 l-2.2230416831769357,3.1699388310666268 -2.6707084026570893,2.6751698922401577 l-3.2120970578216976,2.170206645328576 m24.682366669094666,-6.569289117169732 l1.87234690534427,1.1877708618589877 2.1578293800360884,1.919210937382585 l1.7472400954703626,2.0509249699434546 0.7978157484270034,1.4459367407607986 " fill="none" stroke="black" stroke-width="1" /></svg>