<?xml version="1.0" encoding="utf-8" ?>
<svg baseProfile="full" height="107.06309889791305" version="1.1" width="103.63127936996358" xmlns="http://www.w3.org/2000/svg" xmlns:ev="http://www.w3.org/2001/xml-events" xmlns:xlink="http://www.w3.org/1999/xlink"><defs /><rect fill="white" height="107.06309889791305" width="103.63127936996358" x="0" y="0" /><path d="M25,25 m0.0,0.0 m13.876284951570135,11.336933767421668 l0.4002189149044427,0.3496407282880541 0.5138634381069281,1.3138617723423243 l1.9550804195410205,9.78659734370148 m-1.8882625111929654,-11.407741685351963 l23.79036930815329,-2.0174522985117456 2.160709471790226,0.13512047645622655 l0.7051445593011376,0.7068996533885697 0.027958856448663243,1.3070919569461443 l-2.4405832826502807,9.528300386516614 m-24.315820176144815,-4.688354669173276 l13.027012797482335,-1.599981807060247 11.525112013089837,-0.8989799625074554 m-22.99935600301591,7.2839462652615214 l11.766417904348199,-1.0395391924201525 10.326849916681939,-0.5974793261857516 m-12.96029780906058,7.516110706259269 l13.08044911156296,1.0487012980768284 2.537971322726225,0.22850720416673928 m-18.535241822137834,-4.698749208200892 l0.5527631518197346,1.018039954335297 0.1855183797403014,0.9370788451831541 l0.01940080023152397,8.261923271517912 1.8589821687258206,1.507956146594333 l15.288060979113533,-0.13437466452099553 2.3599384878085363,-0.05860192707848515 l2.4561264235283584,-0.08017842790827605 2.145373144572075,0.06949722551788333 m-32.32223458148565,8.029221302277216 l3.116857016105772,0.15014726473357629 12.497417639479286,-1.2211159105995746 l11.515762034993946,-0.7873972812947929 7.172817704798083,-0.16815643640574848 l2.921320869592,0.19250951359784085 m-19.405894910017324,-5.482200990838631 l0.6569625387804975,0.7160990760276315 0.3019841572552634,1.218240980272776 l-0.05393655577765104,19.30097754708798 m-1.622707276426472,-15.054188027762294 l-0.5575270649903294,1.2617563392250808 -1.5545406015812837,1.7017267885140541 l-5.284636490968482,2.2169666118550078 -6.922024480312177,2.2019590022271758 l-7.829957468186522,1.9611164099834988 m23.925154692294168,-8.840516181246342 l6.575700656082328,3.4989574775030445 5.979781003370795,2.721313498261139 l3.79757886846392,1.7698848735177013 3.303356701448588,0.9561281536913219 " fill="none" stroke="black" stroke-width="1" /></svg>