<?xml version="1.0" encoding="utf-8" ?>
<svg baseProfile="full" height="101.0922855823405" version="1.1" width="115.16794488719285" xmlns="http://www.w3.org/2000/svg" xmlns:ev="http://www.w3.org/2001/xml-events" xmlns:xlink="http://www.w3.org/1999/xlink"><defs /><rect fill="white" height="101.0922855823405" width="115.16794488719285" x="0" y="0" /><path d="M25,25 m0.0,0.0 m16.67762354937466,2.479844430983712 l0.4381119151803663,0.09797817993058545 4.486107982782803,-0.06726861830830021 l13.026813365923886,-1.1981522829624458 2.2021508985616167,0.10568435931640582 m-16.479532505725512,1.249328124862159 l0.14560771205698478,1.1839207707056938 -0.2756135303694211,5.132281770228458 m-6.176812127221927,0.006692194602590977 l3.37385235615698,0.23022927372690016 14.625770660540367,-1.6216327080626536 l4.078713995756622,-0.27750134443938074 1.928400131934103,0.10212592139521255 m-9.319326287572554,-4.050160575401662 l0.23300718095293377,1.1438802308164981 -0.610811069216417,1.6673243325546083 l-1.5071873655177925,3.1823097975501122 -1.6005758352007078,2.5688964798731417 l-3.4002557736337082,3.6890869960810155 -4.784550829639266,3.341361932599395 m11.36176229073636,-8.782610014761792 l0.3789898253150765,1.1644209948708824 -0.115162867917102,5.953058295332017 l0.2773165059993091,0.5406544263649152 0.8533603169669213,-0.2876635939096678 l7.107569949537529,-4.635179440705515 m5.436362055683916,-9.976484970569231 l1.7743699860402362,0.12436429786677979 12.511452527754793,-1.0528321756166068 l4.013748582670457,-0.005651699870045259 m-16.180735740779426,1.1507871593273777 l0.3566452742726562,4.8138388486253 m-3.5493912017830413,-0.2626828668737851 l3.1801456099296512,0.32733795473876853 16.301183382466387,-1.2562994141736175 l3.591529280709509,0.012419141075664828 m-11.489641348228457,-3.3711903795285836 l0.20991366319628602,0.920703797530327 -0.514510392241373,0.9629476071957895 l-3.1650489576889465,4.832816381445806 -3.469482151124315,3.420230975435653 l-3.9298701780469747,2.6638176341244115 m10.52779134088104,-7.125527741106053 l0.6352474236279205,1.1126443746239285 -0.16298908852651842,3.1477030422791943 l0.4523753965698441,0.7899734435089857 1.1480607266707357,0.5007318920732958 l7.225292808190707,0.13427385883752793 1.8552012637570092,-0.32529994339473955 l0.858953773189355,-0.3690201730568336 0.47865748043748785,-1.481819690150255 m-40.128221092343054,7.88289703834231 l0.9533635613230738,1.6667105617055333 2.2632570628298954,9.100551133761996 m-2.3117171708416433,-10.361735256836168 l16.563217777295453,-1.1302402445409339 11.127022521692506,-1.0081720567295442 l1.6474062359299873,0.17947534882702912 0.5226544726918305,0.34589804565830445 l0.3478607234333071,0.9374729928252495 -0.7811777245736595,4.645174183529486 l-1.2358932464961876,4.917732264926504 m-27.13234726925026,-4.409333187577542 l28.305856923558668,-1.7101655091933603 m-27.171641770377637,6.64899361171318 l26.410968907085596,-1.6235904359128652 m-37.95267994155992,8.857912989695373 l0.48861786507055727,0.6825957191636465 1.5377619767668156,6.348947169961701 m-1.3383641857311712,-6.199732093253825 l15.704008963237555,-1.3999057987921975 2.576896774624036,0.015220060267176485 l0.22824898286213938,0.3868037928733825 -0.17077902098762573,1.0772744034630015 l-1.4218405252798654,4.210226384913484 m-15.874197633612335,1.1353458647091208 l16.684407579920272,-1.2231803655818103 m-10.154630165578373,-9.30816118510639 l0.36937877969149585,0.36982958268051164 0.4304783845757042,1.2533909675872918 l-0.09749331377827208,13.500633377439769 m-10.218532066831731,1.4855256145531441 l1.9873384175240127,0.6852120677335556 16.385140326671866,-3.744193002366333 m-1.7850505052983097,-1.7968420234426437 l1.308429572503324,1.0454904056969558 1.8076197293559677,2.039449435377422 l1.719037995096874,2.982082436677055 m5.293223280359114,-14.752300734637338 l0.7481798606586726,1.177709280110504 1.1251052167009312,6.159576159740486 m-1.0211444360593762,-6.7480137741581725 l16.121917517687855,-1.1519273473528822 3.058293852651209,0.0343456904734722 l0.35734470421697795,0.4136827254940108 -0.049460031468686376,0.6107605927080981 l-1.530279647393431,4.843253135743333 m-16.931799521747134,1.0211563047640744 l18.23104443877096,-1.0685243518046175 m-10.633492929998871,-10.548820768695965 l0.4035343881582433,0.3620014109655308 0.461336606451333,1.2579451620644935 l-0.09926775860330246,15.468931317782868 m-11.223083741385823,1.5725362512917702 l1.674535108091287,0.6835395311959749 18.971376054893927,-3.536923478355617 m-3.621912892717601,-3.041655633674916 l1.9609704886906631,1.2626271784992686 2.580299321078455,2.2781951675450327 l1.7141874196562625,1.896520710356692 0.9620377239092438,1.6452325707671511 " fill="none" stroke="black" stroke-width="1" /></svg>