<?xml version="1.0" encoding="utf-8" ?>
<svg baseProfile="full" height="106.3293683533347" version="1.1" width="93.44015260814952" xmlns="http://www.w3.org/2000/svg" xmlns:ev="http://www.w3.org/2001/xml-events" xmlns:xlink="http://www.w3.org/1999/xlink"><defs /><rect fill="white" height="106.3293683533347" width="93.44015260814952" x="0" y="0" /><path d="M27.56439088998185,25 m0.0,0.0 m28.622257994167192,2.3119150760775096 l0.022907517056734043,0.5096546627427906 -0.5291314943197452,1.1485473605460905 l-2.2919284351747833,2.0116309528153753 -5.71479454603248,3.3210171185189505 l-6.8916661084204485,2.9363517890688695 -8.471189761963002,2.6283373479179377 m0.13148701442523214,10.26932539343611 l1.116135376198297,0.30279450638878574 1.8204071336632228,-0.05468602738220457 l21.094873512702875,-3.603090864856906 3.0780997962542993,-0.35222590331013415 l1.8030893359389248,0.3949053759262575 m-36.354938224478175,17.45582537899828 l1.9006098697273748,0.4314056521109542 2.6558125185809036,-0.028217765301926188 l28.95345846922192,-4.78808656299241 3.7747832086579556,-0.4292482322671301 l3.035890580096924,0.36870369004405307 m-22.28038972367789,-19.929612173466136 l0.638312994788589,1.0445419304750034 0.2856614500723539,2.0375932370532355 l0.03443888825902753,30.194218440159453 0.26370926422337876,2.7156075673656654 l0.6861766489482224,2.632441794226338 1.5017117040541905,1.6240706253688453 l3.0245845884992937,0.9155383543921356 7.1567700967166115,0.26010962927891296 l7.101564660255617,-0.48393145474982374 2.0453036379355463,-0.8285170286406188 l1.6826763672939882,-1.5495613970157651 0.7262579471383129,-1.7520729701504225 l0.2528194373571796,-3.0160595287159655 " fill="none" stroke="black" stroke-width="1" /></svg>