<?xml version="1.0" encoding="utf-8" ?>
<svg baseProfile="full" height="101.48153760903475" version="1.1" width="107.10783833753248" xmlns="http://www.w3.org/2000/svg" xmlns:ev="http://www.w3.org/2001/xml-events" xmlns:xlink="http://www.w3.org/1999/xlink"><defs /><rect fill="white" height="101.48153760903475" width="107.10783833753248" x="0" y="0" /><path d="M25,25 m0.0,0.0 m18.43965294776445,4.104266708536773 l0.022599706664153996,0.4650047946348099 -0.20386208449087423,0.9568737888315906 l-0.7021593365243581,1.4320341704222808 -2.5184693559965643,3.5210703277183613 l-3.3193349173733044,3.458626675668268 -3.488838993749049,2.845367568200872 m11.590313003091293,-8.782745508721126 l4.134150434366184,-0.18216423967693704 14.484969393393659,-1.1536714384977518 l4.8818201234433385,-0.0810034037561782 2.2375464474471074,0.2695985097670375 m-35.42094513774797,9.900688247678215 l3.4017461179739037,0.14383440825846425 27.745751056151608,-2.092397957946952 l6.714993969330479,-0.2337721001681051 3.1725015153334417,0.22205683971426948 m-22.105899473737665,-5.241560265157557 l-0.17194340281312434,1.410218452146524 -1.5545069962600673,2.4425312707185913 l-2.88633850781208,4.295933758284485 -3.175216968134649,4.013913869216386 l-2.8234706069609943,3.131378577824037 -3.1857096536791367,3.158268448086735 l-6.859142715594399,5.664367244056805 -3.4330641550005594,2.313604529947978 m30.51785862037488,-18.72843909926863 l15.774375445440713,13.030128906913333 3.1359066110056837,1.850115526578841 l1.576336269923209,0.7462133562231663 1.1262189817031638,0.3011305137285595 m-41.36102180266261,0.21069276452942445 l0.8139461384812016,0.29116115994254455 1.4945844334765084,0.029369389647610964 l21.35507289163619,-2.1602381767379795 3.3854896206710037,-0.1695194714908159 l1.9725718467314148,0.18957454885039254 m-18.672386306533433,-9.343900279460597 l0.6141565349498278,0.7653244679156807 0.20298221118343998,0.8805513091870433 l-0.16176013342983261,25.547174126957767 -0.28128497783076256,1.445185210738807 l-0.4900169533887781,0.6146900789917111 -0.6455561773106557,-0.0004895056844797784 l-0.7186224936176694,-0.38982316513212045 -1.7888217913232891,-1.668281036296132 m3.464211111461121,-16.310844434525293 l-3.4865719807675735,4.030971850799808 -5.0219885884428805,4.176867947411645 l-5.074530624949383,3.2221880665644744 -5.224343664261831,2.3163553479952044 m20.40073668909008,-13.956366031414122 l4.177309038589343,4.202334007334516 6.451724318205317,5.220182202546539 l5.050183240850967,3.650039882820271 2.4352493346554502,1.7594526855030703 " fill="none" stroke="black" stroke-width="1" /></svg>