<?xml version="1.0" encoding="utf-8" ?>
<svg baseProfile="full" height="113.13422192352834" version="1.1" width="103.64641162015657" xmlns="http://www.w3.org/2000/svg" xmlns:ev="http://www.w3.org/2001/xml-events" xmlns:xlink="http://www.w3.org/1999/xlink"><defs /><rect fill="white" height="113.13422192352834" width="103.64641162015657" x="0" y="0" /><path d="M31.816600746454164,25 m0.0,0.0 m30.069681404939033,2.3102676566939206 l0.060762501737250986,0.5158532619993602 -0.5263757255167281,1.1715467449363226 l-2.293823362862291,2.126447447301306 -5.34735934293373,3.6522331593408017 l-6.33675458299548,3.0991890089427363 -7.790993001602744,2.8471543818213756 m-1.573679865444113,-0.56119963752266 l0.7133944361585159,1.3145608125969876 0.2601224645555324,1.2152956858388255 l-0.40069245549780225,9.671245741311743 -0.9161014593373625,6.775179705548308 l-1.2857900964148163,4.861277425097673 -1.8274417860601955,4.277184198387031 l-2.1478778043126168,3.2741494396470916 -3.7389412675013287,3.6406950874589703 l-3.734730803365286,2.425555302494027 m15.3781384351002,-26.67714319079891 l3.953114399456888,0.07890746579860175 28.87276141090239,-2.9634950362204835 l2.8873641971397834,-0.07210927997976938 2.5550331775573163,0.27881514204017366 m-20.931085286080066,2.987797314917502 l0.78178572626179,1.259569899716552 0.16832742606151335,1.9457301623568861 l-0.06729504990731872,33.679514023803975 " fill="none" stroke="black" stroke-width="1" /></svg>