<?xml version="1.0" encoding="utf-8" ?>
<svg baseProfile="full" height="97.0344151474461" version="1.1" width="104.61153189509503" xmlns="http://www.w3.org/2000/svg" xmlns:ev="http://www.w3.org/2001/xml-events" xmlns:xlink="http://www.w3.org/1999/xlink"><defs /><rect fill="white" height="97.0344151474461" width="104.61153189509503" x="0" y="0" /><path d="M25,25 m0.0,0.0 m17.082702925001392,12.154699363132035 l0.48862222830557694,0.10273481830626201 3.2545439261074303,-0.001795056021276437 l21.147821293387825,-2.3213199647383864 3.3381198563847674,0.17668160057488325 m-15.471943401866005,-5.872153538247938 l0.658927544359571,1.128841265499798 0.20643700044700097,1.1215585917837285 l0.04223647463120838,19.47397858597298 m-12.84933663939886,-6.040785702022977 l3.3635033881819467,0.1334305907424099 17.970398943734985,-2.349873806539955 l4.4082376863511135,-0.2445906563604694 m-35.81744054004496,10.294391181398405 l2.28389449530359,0.2880089976273024 2.5874754875264308,-0.0591967856750894 l36.27209020950129,-3.399474809429387 3.1592272810185227,-0.04416973227791146 l2.4860137361621923,0.3044579978900668 m-28.386865390730755,3.122950568037716 l-0.14613328342188991,1.0191657734218367 -0.2985444052814791,0.789816969916178 l-3.1622627968613215,6.351570548656211 -3.8151853072268693,6.326023085731421 l0.030501231163636434,0.7444285465975536 0.5366612783089005,1.0068556974984628 l2.7670063149125443,1.0726006851559162 3.288066468699545,1.2944136616007809 m10.360890411910015,-13.570141344085021 l-0.3445291526766778,1.6644010821178912 -1.648632210153064,1.5917376100017115 l-16.619206157528872,5.966534033775504 -11.596362797544836,3.8053929250634635 l-0.5564451564693812,0.4988631367701892 m33.86842853768895,-8.837729235344693 l3.342198077413137,1.5607781772376919 3.597827354724882,2.655388505762555 l2.872085794252538,2.961170684244645 1.3504278911839163,2.164771093671607 " fill="none" stroke="black" stroke-width="1" /></svg>