<?xml version="1.0" encoding="utf-8" ?>
<svg baseProfile="full" height="124.05583629398697" version="1.1" width="125.33579642941892" xmlns="http://www.w3.org/2000/svg" xmlns:ev="http://www.w3.org/2001/xml-events" xmlns:xlink="http://www.w3.org/1999/xlink"><defs /><rect fill="white" height="124.05583629398697" width="125.33579642941892" x="0" y="0" /><path d="M25,27.95494002245151 m0.0,0.0 m19.748505176558144,6.603195329778777 l-0.0018904033832761583,0.51729217945255 -0.1580077779889509,1.5746037673966706 l-0.9009889400206523,2.062687794020116 -4.082526354973061,6.855874902438874 l-4.389480174162748,5.478888026953258 -5.553198346083979,5.40807745741836 m16.819544537259873,-19.73461889990829 l2.2224489663004907,4.000078822520055 1.9726913804981996,5.071601872817822 m27.79318185501226,-20.7926212753397 l-0.06328901784568969,1.7415584857259903 -2.5860819014382117,3.7552122186425305 l-3.730616155358418,3.6237193791109714 -4.519866914902025,3.1843835550979236 m-28.448518874349617,6.028338846284956 l2.688013041403502,0.41824738467375766 3.3355821165707664,-0.04494498773407513 l25.638887082318547,-2.4538688215811764 13.727526110103469,-1.1153128983613063 l7.273371806929899,-0.24893625146661644 3.810982804399444,0.39539109114246 m-28.88891057577336,15.762192230071232 l0.7674228274072482,2.16668708442605 0.03502852705349723,7.555274724458266 l-0.33265237083567306,6.439416329682525 -1.0639725769488966,5.9519607778640475 l-1.7222054004303418,4.781349437262303 -2.2767228872608705,4.438509378444738 l-2.920146191444294,4.290347340644822 -3.0898414211987983,4.015459543316703 l-3.8473399699860664,3.370851446280886 m25.127380648934736,-48.93719803563658 l0.8772665155010708,1.1646495044903598 0.4837231528947028,2.1217366052407636 l1.0305640021660676,42.683015892395815 m-24.732738960778562,-36.5572577719868 l2.368037903342871,1.1688840187737224 3.0290774726722507,2.369651202510711 l1.967544657928258,2.0415532332490205 1.031968176146896,1.6675977579457837 m-12.283327795441512,17.902716276299977 l1.6249385458695136,0.47781557047457884 2.0251001633909573,-0.2480208678755338 l13.887243665974557,-9.083031844101939 m28.185192265214535,-20.41768319155328 l-0.014136776946573086,1.3929373202907296 -0.6758228831859467,1.3276223030831737 l-2.744412500107321,3.5330043386801524 -4.042156717449171,3.474678942351447 l-4.356557009998889,2.59877669165805 m0.42835715702232835,7.845301596030453 l4.130684829525765,2.4112881489776647 4.726144168613291,3.574400400412406 l3.8179132908792406,3.8400825612516654 2.1868824798194297,3.240058055772893 " fill="none" stroke="black" stroke-width="1" /></svg>