<?xml version="1.0" encoding="utf-8" ?>
<svg baseProfile="full" height="108.05835991426753" version="1.1" width="111.84629850974085" xmlns="http://www.w3.org/2000/svg" xmlns:ev="http://www.w3.org/2001/xml-events" xmlns:xlink="http://www.w3.org/1999/xlink"><defs /><rect fill="white" height="108.05835991426753" width="111.84629850974085" x="0" y="0" /><path d="M25,25 m0.0,0.0 m21.914775824887506,14.470518416514517 l0.4255116335342527,0.3896443684705546 0.4635456488944689,0.7953076775946577 l0.10895763890647414,0.9599557715904868 -0.12355137427661625,19.720313681885553 m0.9575614219811887,-20.081110676518296 l6.264936995730253,-0.5420717692224286 10.800439253352051,-2.0143684885238446 l3.3205898176450046,0.029741780985923925 m-21.382737745559854,9.485966175269818 l17.845241947642634,-2.3070440363927434 2.668272964641366,0.11550502137679923 m-20.14037122435635,8.811675665584927 l17.45106407405606,-1.9933768490638204 2.941602906542159,0.07483924974627112 m-34.88137815785043,10.22927687894024 l2.495611774413315,0.28181427273847787 2.391591644322185,-0.09734192006140543 l34.673708438043676,-3.515028136291572 7.056767272813977,-0.5223978297901861 l3.3896246974111586,0.22933534220190113 m-37.64565430190297,4.315875015894211 l0.5879940682946194,0.7053524318517338 0.31298798588871307,1.4252606374165078 l-0.3830652888185872,15.475258376457631 0.5327686422531097,1.5753773744229749 l0.5431106448603736,0.040081481188614244 0.7037302133835577,-0.2850732101483378 l12.170520440252307,-6.864292999539369 m12.860328605037404,-15.558504002524886 l-0.2561803793884302,1.3385372366934722 -1.1645914176585657,1.349855402037916 l-2.4519311996938367,2.0860893259302147 -3.3282844808739402,2.2795982798129657 m-11.220386869524045,-3.2062038347569626 l2.6375912378678983,0.6729486897517003 3.457698217217753,1.7633333824716397 l15.473784916648682,10.171328664618885 4.200872438180429,2.455873265518316 l2.819737900689948,1.0160813845559877 3.3535016842519276,0.6971736049746668 " fill="none" stroke="black" stroke-width="1" /></svg>