<?xml version="1.0" encoding="utf-8" ?>
<svg baseProfile="full" height="105.3269393605196" version="1.1" width="113.64830048761371" xmlns="http://www.w3.org/2000/svg" xmlns:ev="http://www.w3.org/2001/xml-events" xmlns:xlink="http://www.w3.org/1999/xlink"><defs /><rect fill="white" height="105.3269393605196" width="113.64830048761371" x="0" y="0" /><path d="M25,25 m0.0,0.0 m7.952403025309056,19.386837797158616 l0.601829022529318,0.10614371815744984 3.693853396508281,-0.10494060309519264 l11.77365147104242,-2.0633142647041613 1.7557233541331096,-0.015108054253151164 m-7.509883173730685,-12.99342787692812 l0.7937106878165066,1.3034205118535365 0.2362093111390254,1.8175232969805857 l-0.15902889599902653,45.80709582597034 -0.3976636721996916,1.4727827489052931 l-0.5720495209352646,0.6099262604744047 -0.7112364088076848,-0.029791483854530044 l-1.5861134318486558,-1.2755955612678882 -1.8001116006500653,-2.1875223455863493 m-7.61118790320735,-13.083525996376531 l1.8188572797732854,0.3007768093806628 1.9525675850248063,-0.5382397194480493 l13.268435455615279,-8.39753533779458 m6.362677685242595,-12.451454580267269 l2.2328779869175936,0.10396108530014454 3.330496456627104,-0.2340662155910773 l15.943160239760072,-2.1632183326823644 4.387350095408711,0.11539253105372724 m-28.75112813337453,9.759517763307604 l1.8351063995740609,0.21862508441846945 2.323964524486357,-0.037825683301209334 l20.848726719518258,-2.297984940095046 7.269996664320729,-0.5617726622111653 l3.4913645132863507,0.021572305554927132 m-20.575386079531697,-20.093732783135714 l0.628492813093608,0.829838785054063 0.2819019093414639,1.2277549639326606 l0.021090163366064892,11.174488203345435 -2.073330020294576,7.632704737952518 l-2.4496116645134225,4.770269633529751 -3.160550530630935,4.182128952215454 l-3.737944447610059,3.6011374844099784 -4.635950774378361,3.2285807938017386 l-5.748550159675232,3.1384857836093194 m20.2053805445474,-19.625242787859296 l7.228207919543578,6.501839473349423 5.95927630567459,4.746058607815533 l4.66937642566128,3.247830103832657 4.261338949740031,2.106056589165016 " fill="none" stroke="black" stroke-width="1" /></svg>