<?xml version="1.0" encoding="utf-8" ?>
<svg baseProfile="full" height="119.57348683576686" version="1.1" width="112.9620983513885" xmlns="http://www.w3.org/2000/svg" xmlns:ev="http://www.w3.org/2001/xml-events" xmlns:xlink="http://www.w3.org/1999/xlink"><defs /><rect fill="white" height="119.57348683576686" width="112.9620983513885" x="0" y="0" /><path d="M25,25 m0.0,0.0 m17.753720702700058,1.200443041346726 l0.02513714566654104,0.5071738988900552 -0.1634857672054373,1.0246720109478662 l-1.0753783442421083,1.6001322391460877 -4.682474718158844,5.470456215954491 l-4.401058625534985,4.009379727745621 -4.907761676070526,3.152504231023408 m17.22301706390944,-2.017371400499345 l0.033569039002974595,1.2741156298413139 -0.454450501208549,1.1009229117734907 l-5.10675113455089,12.747917605467407 -5.241435499440137,8.606468244161379 l-6.094540542084879,7.134743673019772 m10.626349807821152,-10.935765807422952 l0.5991891132009928,1.893517849848717 -0.06375106956814157,32.80417676452282 m22.710552838335378,-61.251587364200034 l-0.14412172951698157,3.485994629593241 -0.558443070913332,6.26434233818634 l-0.8953313618474746,6.163013517631152 -1.0685961106948267,5.519964550446679 l-1.3487123123462177,5.040718064314631 -1.8163208874147136,4.954784731396773 l-2.3244290175934625,4.727847816414406 -2.92911007953985,4.528207548161819 l-2.8264445339552413,3.430573276051759 m3.7026160188616797,-28.21928710404841 l1.785077524429003,0.3328445314039151 2.513859732150883,-0.07644858756769901 l19.841960101159664,-3.9528140060643002 1.3351970680012473,-0.026670697611918745 l0.6351043303849788,0.37723020832732085 0.2643691411298002,1.3672311147498324 l-2.893975305412908,22.885902763416876 1.1284679147015642,2.2158312851088824 l1.492030997408037,0.9265901300284785 2.7272710884614146,0.48233230803372423 l3.9236683293239265,-0.04240426621314832 1.6091960425274268,-0.44019616061776456 l1.0157154702466658,-0.7682307023880826 0.6602081141439903,-1.1694959619743779 l0.35239305512119445,-2.2920662985869273 " fill="none" stroke="black" stroke-width="1" /></svg>