<?xml version="1.0" encoding="utf-8" ?>
<svg baseProfile="full" height="108.65510556449358" version="1.1" width="100.63578621672725" xmlns="http://www.w3.org/2000/svg" xmlns:ev="http://www.w3.org/2001/xml-events" xmlns:xlink="http://www.w3.org/1999/xlink"><defs /><rect fill="white" height="108.65510556449358" width="100.63578621672725" x="0" y="0" /><path d="M25,25 m0.0,0.0 m15.067040777585522,13.572205319460197 l0.5228185490270734,0.10909288726324656 3.1203785932940744,0.03277434070281724 l21.969729124365323,-2.249266227586759 3.370447146786553,0.14568420061312626 m-15.812190463347582,-5.529704688865749 l0.6356520018640075,0.933376812946419 0.2224895732673277,1.28982238437361 l0.05498977934167164,16.918787680743392 m-13.884741479526147,-4.6004588268061495 l3.8227510246944294,0.05570425522857615 20.06826940607146,-2.3195744962488862 l4.076162234611252,0.004794000385699496 m-37.48563488260289,9.6625867347915 l2.3549640684777997,0.25122522689035215 2.6319707853198153,-0.05754858196312118 l35.258944713012475,-3.3109798180492254 2.3734347698404945,-0.08454160273126234 l2.2683104946446018,0.2515010198896773 m-28.209269823940172,3.288065818759406 l-0.14262303735619627,0.9164296262315972 -0.33926694600155305,0.6871136433682014 l-3.3077417199506587,6.279811712925186 -3.7552157713338543,5.810103526255955 l0.8719523442969982,0.5737921532730458 m13.911651069804561,-11.219188850977568 l0.15459926015189981,0.7158579519685748 -0.24591446012047816,1.142267479902627 l-9.873792419554322,5.702624666936777 -10.511382302616758,5.002548353479503 m13.203773723610025,-5.65678606427753 l0.39104335228187576,0.6482394776502485 0.11657743566681766,0.9240823433886958 l-0.04549395127153648,14.498536212103762 m9.909439699666137,-18.139177510807535 l0.32370229823809316,0.8011566764283717 -0.009046478615735902,0.913964827155084 l0.005738191570330682,14.021404621032318 m10.517425227529904,1.5110183932658705 l1.9766053799316226,1.0112135549867836 1.6172913779247726,1.2769694591846519 l1.489121540587456,1.4154958045696113 1.2333712182935521,1.4540810666524946 " fill="none" stroke="black" stroke-width="1" /></svg>