<?xml version="1.0" encoding="utf-8" ?>
<svg baseProfile="full" height="104.72861358648498" version="1.1" width="114.90187920811115" xmlns="http://www.w3.org/2000/svg" xmlns:ev="http://www.w3.org/2001/xml-events" xmlns:xlink="http://www.w3.org/1999/xlink"><defs /><rect fill="white" height="104.72861358648498" width="114.90187920811115" x="0" y="0" /><path d="M25,25 m0.0,0.0 m47.844284937434075,8.383982332580938 l-0.08295188370844866,0.4607238024514455 -0.6545274385489576,0.8528322541835984 l-1.3017339640824035,0.7169028000188007 -6.64399796841011,2.7063166719830978 l-8.418231426054131,2.286679348864242 -10.515168449512844,2.090809084069799 m-4.608926105531432,8.840548276825762 l1.8734264985475393,0.22986758496797227 2.787592883043634,-0.04649002051788512 l31.407101067228268,-3.368365336512298 4.539040183473356,-0.281617815899064 l2.8990582073011226,0.26080177168005153 m-21.813006931941537,-8.281613336498218 l0.6870526613937717,0.8716023393507344 0.29729575267988484,1.6292447638620167 l-0.0688407987321638,37.37638906507399 m-1.534329540008082,-28.125361397407794 l-0.4808872565635248,1.3384767067583154 -2.0100194961449844,2.469868639700308 l-6.544513692996389,6.23545838015787 -7.220698940976991,5.332456831958268 l-6.569389191014726,3.9033816652550524 m25.406133251090974,-19.045038160876455 l9.80728856716846,9.652619347712442 6.3967351776750325,5.120614841287991 l4.998868917648529,3.751537480004348 2.37882014411515,1.2133968050583763 l2.046404043538081,0.7332263473390827 " fill="none" stroke="black" stroke-width="1" /></svg>