<?xml version="1.0" encoding="utf-8" ?>
<svg baseProfile="full" height="98.23353938754755" version="1.1" width="92.79531604548072" xmlns="http://www.w3.org/2000/svg" xmlns:ev="http://www.w3.org/2001/xml-events" xmlns:xlink="http://www.w3.org/1999/xlink"><defs /><rect fill="white" height="98.23353938754755" width="92.79531604548072" x="0" y="0" /><path d="M25,25 m0.0,0.0 m20.303624290138337,2.9724607642521352 l0.01734962218902002,0.4514544028665031 -0.9423299935755269,2.293418073176686 l-1.5627042094762749,2.7248915119792243 -1.905172081749751,2.320581213828047 l-2.3276721930756348,1.98300870017312 m6.015265906875724,-4.202034800865696 l3.196660453853571,-1.5903021341767412 3.337327937794994,-1.4432335142317925 l1.4221640556102477,0.06081901507075752 0.24767409358911233,0.44130849624453217 l-0.024952169848969228,0.6691939498808295 -0.3078215661520804,3.894405500010866 l-0.6468737402534442,3.6349502058358807 -0.8487909776605176,5.625412646969733 l-0.7721679821970518,4.692642106173628 -0.8704753601976221,4.110672132751889 l-0.3701822178393581,0.4134550402078775 -0.6487541001137048,0.02960293248122479 l-0.8905888449406407,-0.7697868928882525 m-0.7572935560511171,-16.173673660674485 l1.7715882978228803,0.8669197225842366 1.4264598263570996,1.1239030114827935 m-4.098815048415141,6.8093466604359625 l1.7706152219043043,1.4233936377441718 1.223075605014596,1.5925504361223457 m5.66126309664275,-14.12860083008041 l0.88686619551582,2.324583248480219 0.6270236792156386,2.81235431770275 m7.939730101208953,-5.922617028519743 l-0.006612229950045242,0.8459877829723303 -0.22700244346719278,0.9146412167659493 l-1.698071902247943,3.2651395749430465 m-4.1706836258332425,-4.9873707776581595 l1.3449401493868791,1.2499658507219835 1.3840619085591226,1.49214803114826 l1.5605470660677894,1.7446342430904582 1.0806538571733209,1.9102521102648278 m-18.759774200639068,4.1202449230632805 l1.9368610560851653,0.22389275689321217 14.403842381063923,-2.320871767540438 l1.72586832486259,-0.19475065190473492 1.3818091071702983,0.23310352617636967 m-18.623096545588115,2.6672270387209176 l-0.03221812671698788,2.280941079980917 -0.5209119289201237,4.8383487610313844 l-0.6693094886087926,4.291731342503589 -0.8018817617229268,3.8563769288359704 l-0.885594961054876,3.568239278636541 -0.7641786966701375,3.263055373775642 l-0.8266458707781845,3.1303764202929028 -0.8857054530947903,2.7991474798150104 m7.7246716474199095,-23.94954538182187 l0.7922342236928449,0.2038878063637737 0.9851931633365321,-0.04432009015643311 l10.735827431065276,-2.0494614736388606 m-14.273653102589842,6.78017270075942 l1.5187360972334154,0.19639362559528714 14.108094168581088,-2.3973242984667 l2.7220024010754194,0.10214137578986886 m-15.76220567909731,3.3788867393301145 l0.20410014666809606,0.6896560406148223 0.06215754024937078,0.9538333115679294 l-0.19529453579153214,13.3574851264268 0.20256362954464496,0.7249742785406095 l0.8748757399183696,0.38943219942104007 5.471323345367858,-5.685484668983711 l2.1229831073727885,-1.8695345596605577 m6.150549634143894,-9.983082901110809 l-0.06922078542163852,0.7256227973143599 -0.41865587157068457,1.0967799264005669 l-2.034345114051345,2.9934867174743696 m-5.93897884354478,-2.801706856942702 l0.7938122257103545,0.5067786395760234 1.3402695253058012,1.4152667272604207 l8.193764756602842,8.995582926519289 2.6655202369964734,1.9650075917492726 " fill="none" stroke="black" stroke-width="1" /></svg>