<?xml version="1.0" encoding="utf-8" ?>
<svg baseProfile="full" height="107.96403828672585" version="1.1" width="116.83093183588858" xmlns="http://www.w3.org/2000/svg" xmlns:ev="http://www.w3.org/2001/xml-events" xmlns:xlink="http://www.w3.org/1999/xlink"><defs /><rect fill="white" height="107.96403828672585" width="116.83093183588858" x="0" y="0" /><path d="M25,25 m0.0,0.0 m6.325235923198922,21.623462756882734 l0.5133303135463063,0.07218267746726906 3.4955788071306846,-0.2835969206224386 l9.594689414182325,-2.404441968119112 2.446403526875219,-0.06386119264616269 m-6.894454028452951,-13.13078883468265 l0.7380056364783851,1.2858562486195693 0.2527580535606204,1.8931566534240398 l-0.12327298797405103,46.74862321155133 -0.3530400639985469,1.5612487707273055 l-0.5261898140990867,0.662196884123967 -0.6423506795703174,-0.057479661604028065 l-1.4034590128541171,-1.329632634234417 -1.629248618963444,-2.2863527094911844 m-6.843081466693815,-13.808865253795455 l1.620407292430586,0.332240197457401 1.7650590903233094,-0.5987161469726406 l11.999467160276042,-8.998651638236423 m5.262211654684699,-14.224904390297347 l2.2402116508549876,0.1638265575153758 2.8198863398564598,-0.22674243550435827 l15.178142812543564,-2.629520774412356 3.8662677614474226,0.13449832202388573 m-25.714515623177356,10.232534766699409 l1.5791358914167408,0.20293438995817137 1.9417586628211214,-0.053557654413665265 l18.04025717271283,-2.4677518657227298 6.5414045940926036,-0.6372818799751198 l3.037856078782181,0.007600370702133308 2.0463758380311607,0.31968931240396253 m-19.126782733871963,-21.608757874525793 l0.568637151088424,0.8115980728196832 0.27367245584961736,1.2653624016528333 l0.02137737991861833,11.52412911773226 -0.5524740868138799,8.215076147848682 l-3.1698086144610227,7.384864299214455 -3.031827583575104,3.409955222971195 l-3.7869585768841882,3.026309920733309 -5.194416846023194,2.937214775636877 m16.200840497051683,-17.970764170264854 l12.687553798241568,6.010351465288039 6.754344558684853,3.592617394206008 l4.012988883345574,2.0474514253609497 3.998954173875099,1.4230511378821498 " fill="none" stroke="black" stroke-width="1" /></svg>