<?xml version="1.0" encoding="utf-8" ?>
<svg baseProfile="full" height="102.97396751011753" version="1.1" width="119.05166591002181" xmlns="http://www.w3.org/2000/svg" xmlns:ev="http://www.w3.org/2001/xml-events" xmlns:xlink="http://www.w3.org/1999/xlink"><defs /><rect fill="white" height="102.97396751011753" width="119.05166591002181" x="0" y="0" /><path d="M25,25 m0.0,0.0 m29.36876815751079,3.511943608019197 l0.09116834203085403,0.4313993429155329 -0.4367875163502827,0.775229005471578 l-1.1161024455509065,1.4540256390374946 -3.0353963015685634,3.015797436161125 m-1.2681324522620445,0.6774919810664346 l0.5005319873084871,0.742893115008911 0.19837900816104934,0.863339970003962 l-0.06975422776619486,15.370084444944801 m0.33195572457237543,-16.558499281841815 l8.862210647957403,-1.2255754322554948 1.0658060679487291,0.13575088209704933 l0.5949297486028002,0.6987048481576964 -0.00846522659618669,28.91152668665865 l-0.27009859251397916,0.7673446479004572 -0.4755478889455545,0.26423673303610007 l-0.6083194711781723,-0.20463864841748927 -2.087481707648485,-1.6988259758857065 m-6.225162155305434,-22.873962143561286 l9.44339730499415,-1.0173182188987155 m-9.342862822973434,6.088834254968181 l9.367711440936365,-1.0342552128365252 m-14.102247370201868,8.350617567655204 l0.9059931264247519,0.2537328933649531 1.3206537215855803,-0.13684104190694948 l11.447230154822947,-4.024245367690886 m5.1564409720846545,-5.220224978127581 l0.09673562027778806,1.373576081933188 -0.4671604185754896,0.9434639167262593 l-4.503566649369846,5.964028116583077 -2.975297585967448,3.4543042634602066 l-3.326107082851819,3.40965979387745 -3.4242603818854227,2.9006837604023983 l-2.5216122549329287,1.6791407620876437 m20.995558875062027,-28.781211805157543 l2.398270612239811,0.1766563515133806 11.456850800828757,-1.3469125834638285 l2.532677642106059,0.06314046259500151 m-17.003325113807254,7.10590739509964 l2.4019351674729683,1.3111766361634396 1.523273198695097,1.2664464075996247 l1.029243825452525,1.140871427427882 0.545100171844701,1.2571333180939397 m-5.26305067964515,5.134912823285964 l0.6638851087355006,0.20194675944508073 0.7250605514935962,-0.052235929341904824 l7.0186850398085765,-1.5681814297773207 1.087091087974561,-0.03005086766801218 m2.9545305918164826,-17.84804822606184 l0.5757969625777862,0.1896179087413502 0.48764958278120235,0.888577003853166 l0.9113496306525481,5.782251149491464 1.0725738265127587,5.327279414732439 l1.2032619236712243,4.252472059798375 1.4740343141289305,3.674866545530866 l1.3143056536224447,5.46624768419981 1.0854010419988827,6.099713546499552 l0.9833107199194238,4.510736606040136 1.0540458530003411,5.063985888188395 l0.9938901129512719,2.9760380285321175 1.3117708526989242,2.3447023899773667 l0.5865220750786609,0.32250509466389143 0.3137368138556424,-0.3006697273031773 l0.1306801937188208,-3.8979184149075934 -0.12948757890040943,-1.761047760318041 m-2.808508963144348,-19.19840769560872 l-0.036029362208544156,1.793237091740449 -0.7639033370660551,2.425852514696869 l-1.5560293188311174,3.46199628017957 -2.0441608921062007,3.6454098907909325 l-2.010244801479709,3.021085777874876 -2.3208572954368094,2.981915609754991 l-2.581938466341725,2.757694793186666 -2.108963135080184,1.8484152384688681 m9.123276779826625,-36.15820474252655 l2.9392375985486585,2.233128192348961 1.5689776565952576,1.9155761549789219 " fill="none" stroke="black" stroke-width="1" /></svg>