<?xml version="1.0" encoding="utf-8" ?>
<svg baseProfile="full" height="114.7824446815537" version="1.1" width="103.14820178375331" xmlns="http://www.w3.org/2000/svg" xmlns:ev="http://www.w3.org/2001/xml-events" xmlns:xlink="http://www.w3.org/1999/xlink"><defs /><rect fill="white" height="114.7824446815537" width="103.14820178375331" x="0" y="0" /><path d="M25,25 m0.0,0.0 m15.382989289797129,14.265698022574508 l0.5040699404891485,0.11340977073231329 3.0522148830508447,0.03450030244550668 l21.561271485646877,-2.2864927902504237 3.2862486968865854,0.15034976784707269 m-15.860179585079491,-6.040393383204248 l0.7245282085092534,1.0295766871199725 0.20572436771652292,1.0384865178715574 l0.03829602150110671,19.418975105468668 m-13.87306757419029,-5.72384458572255 l3.5332133789757756,0.07926966345825052 20.45682812868261,-2.364157456059437 l4.349949605713663,0.02788065813241129 m-38.09346892914428,10.189234312432191 l2.3758436538635284,0.25780021698347977 2.739613140306797,-0.05919642886857125 l37.22386941232281,-3.5132848980229707 3.05348665473124,-0.08170662379395999 l2.486771003973463,0.28589724741224376 m-29.439208211945708,3.3733795384425433 l-0.16076087440038345,0.9695751334272906 -0.3599105920748624,0.7372087450353583 l-3.243764793799611,6.8857806320723745 -3.6378772221144096,5.94033742242608 l0.11831906907502213,0.5679194297334674 m14.23918630984146,-11.045894009449732 l0.24931128858063945,0.6374025687555829 -0.06685367055697052,1.1352859613048125 l-0.07532524760025229,8.363315167468967 0.663977672455466,0.9705297046249454 l1.0594982263831105,0.27092341840538003 1.491484043350586,-0.06701279073478762 l5.77885354013209,-0.9692362715445215 2.597121938104286,-0.4246120565531093 m-26.927010239449704,10.991366121422232 l1.5034893421719664,0.20004740146870129 1.7545019598421363,-0.09305565797418223 l18.81830804637392,-2.080290583499127 2.2607727965813686,0.15016742438103078 m-12.708519132630665,-8.62735134133637 l0.5599523748530115,0.8625448882982989 0.20461819605074505,1.1315437761586304 l-0.020251294987419954,15.65492450135666 m-19.066709296426534,1.883808301682114 l1.5686496358133861,0.4703302770534719 2.1720518652427248,0.07150487257156873 l27.63248218471527,-2.0589436472974523 4.0878296394470786,-0.008903530450895114 l3.05884426930158,0.44222233226468344 " fill="none" stroke="black" stroke-width="1" /></svg>