<?xml version="1.0" encoding="utf-8" ?>
<svg baseProfile="full" height="99.83264145023267" version="1.1" width="93.18943331730883" xmlns="http://www.w3.org/2000/svg" xmlns:ev="http://www.w3.org/2001/xml-events" xmlns:xlink="http://www.w3.org/1999/xlink"><defs /><rect fill="white" height="99.83264145023267" width="93.18943331730883" x="0" y="0" /><path d="M25,25 m0.0,0.0 m32.16215813098286,2.223366783539013 l0.01418457276739555,0.4970976249095573 -0.596708174071392,1.1505786545880297 l-2.524259860470218,1.9039418088871995 -6.489377702752189,5.882499729126463 l-5.183655722800125,3.6536116178093985 -0.05591336016546648,3.255897589837373 l4.743687331037956,2.6691290680640587 m12.012489255254714,-11.870755759064467 l0.2110673211114253,1.2520957936843404 -0.9252605277847101,1.3230819578531567 l-7.154588495880475,6.9197845015685475 -12.190796160350216,9.196369346720378 l-0.5909713130506336,0.892338676754044 0.24211578789360352,0.3590773991461986 l0.852876714082065,0.01049361577563848 24.765975403732167,-4.56807105019693 m-2.10944682531079,-3.61607187775155 l1.6759017020241256,1.4101747446654116 1.9960380825623476,2.2741145684983968 l1.5933610277793615,2.219522431338764 0.7405561307170168,1.5968437017798427 m-16.329842710723128,0.32821929119893967 l0.6285197352508923,0.9035739811831198 0.22250530019118409,1.0053139505435478 l-0.045224521121815624,16.84125453567091 m-10.830480660524984,-12.548314878517026 l-0.11323240521829525,1.4303074701960243 -0.48498163389446414,1.4925060309579576 l-2.516228617224723,4.474557861827374 -3.109254816059546,4.014988869696088 l-3.3791302473176925,3.255113409942863 m27.43983891486192,-13.681913471607272 l1.7659052722888786,1.8898488650080554 2.531512575910054,3.1863742298206468 l2.187600381882551,3.3897603548275947 1.2413037380620964,2.560332688796219 " fill="none" stroke="black" stroke-width="1" /></svg>