<?xml version="1.0" encoding="utf-8" ?>
<svg baseProfile="full" height="102.11121795808666" version="1.1" width="102.51244527367491" xmlns="http://www.w3.org/2000/svg" xmlns:ev="http://www.w3.org/2001/xml-events" xmlns:xlink="http://www.w3.org/1999/xlink"><defs /><rect fill="white" height="102.11121795808666" width="102.51244527367491" x="0" y="0" /><path d="M25,25 m0.0,0.0 m29.423839293613778,3.119627348258424 l0.03513359131917743,0.4110239938475513 -0.1631165553721506,0.9185451239963283 l-0.7388102172335731,1.3627553506272911 -2.6565359565521764,3.0724332815269584 l-3.7235126574291364,3.1758443545382966 -4.365757389248411,2.605540607254331 m10.787610038245356,-9.386661253532674 l10.909417426129764,-1.4322801815400132 0.7653842335132908,0.13833822538234591 l0.44260140642662305,0.5344772449454159 0.07528715186827864,0.6443228109381528 l-0.317775209315386,0.8745507647004689 -7.64763336180699,10.033775069409009 m-13.102733754122264,1.1762025751481455 l0.5713430103758652,0.9836006043592685 0.5277089887652094,2.484312917920073 l1.2380193376431596,9.138069433781842 m-1.1105009789674558,-11.652860223478973 l16.59047720951135,-2.6727650635558406 7.7388195371291495,-0.910027658099102 l0.7602768671311735,0.08026665493491107 0.9096537208303465,0.7934434834719607 l0.38360097939152304,1.052690493814028 -1.0330234500664461,4.074395648286237 l-1.9474248654984674,6.398688325575277 m-21.925100830433294,1.3305639262742497 l21.602395973165365,-2.539303509931258 m-11.941717836976764,-7.486470886797756 l-0.11408515892577242,3.3000980166432723 -1.1605156198006739,5.369775644297801 l-1.8155433884013294,5.592318738790983 -2.5611023590750834,5.66853728064439 l-2.7118560173497275,4.647415550450577 -2.498476082910497,3.375433637924983 l-2.645936852674061,3.1468585865233756 -2.832857330680608,2.6876810407563294 m17.88831089500684,-21.719021096583432 l0.580915342536062,1.3857840876823604 0.15472051516691127,1.2053585947690753 l-0.2770721492205645,12.055470086478435 0.24506550801426102,2.4945159696253807 l0.6133966798362828,1.8367617270630954 0.6235217119080896,1.0182115472028124 l0.9227755319350612,0.8021655020151848 1.9555515606353364,0.565326067933156 l5.188248971021905,0.07848958387013927 3.801626755669028,-0.451824076438328 l2.3377893168151354,-0.5857858449163722 1.3439335600665143,-0.6165645438986103 l0.9810117213563643,-1.0885363551460996 0.31140481715721124,-0.9341430689857533 l0.093691643551331,-1.948839344897913 " fill="none" stroke="black" stroke-width="1" /></svg>