<?xml version="1.0" encoding="utf-8" ?>
<svg baseProfile="full" height="109.20793754814419" version="1.1" width="99.65955894465915" xmlns="http://www.w3.org/2000/svg" xmlns:ev="http://www.w3.org/2001/xml-events" xmlns:xlink="http://www.w3.org/1999/xlink"><defs /><rect fill="white" height="109.20793754814419" width="99.65955894465915" x="0" y="0" /><path d="M25,25 m0.0,0.0 m11.928322842969411,16.785001985596427 l0.3689540788545535,0.11161704560138569 2.19033095668097,0.0274661896237362 l12.156820861084142,-1.9279147152015403 1.3955273634806855,0.07594091753306081 m-7.654749551334646,-12.947376523930672 l0.7627366207606269,1.4077529621904943 0.21649859307915492,1.4554218686581724 l-0.06307678706418157,47.6685550400652 m-0.39699306503058146,-35.74704339539059 l-0.2492765942700322,1.6288317134970771 -0.5920089878314821,2.287492938144445 l-2.568482969255537,7.196450320139765 -2.5212041019158526,5.733436130304475 l-3.501362143491225,6.277697473338189 m11.0091848109123,-17.59660074660183 l2.342440581066428,3.2785714624211537 2.164892654324063,3.4848328608704504 m9.226277828341205,-26.845813220391747 l-0.1811643882134359,1.5720702007761702 -0.42124434021347357,4.8800747537809315 l-0.3852818716577948,6.695373843309863 -0.5300197191017748,4.935000659130985 l-0.6650892073583572,3.8628248190347882 -0.9962087486203686,3.760982280619947 l-1.319777582628205,3.4685215646112493 -1.6880778560174796,3.2587065205728436 m0.7576124623075233,-23.14900499715222 l1.6032063092639062,0.13326424491045374 9.257186952588217,-3.146814743037064 l0.5332829507440332,0.3101760262978844 0.27218727785586344,0.6052376147741807 l0.039846243183574354,15.756214388501393 0.8593902512667079,2.5360108034475153 l1.294355218346799,0.7364243414177027 1.9805569778639398,0.23290021273394246 l1.5774168895086944,-0.13486042232450737 1.1285560100274314,-0.8968551912008818 l0.327992124153361,-3.2390191259905956 -0.02400518712740415,-1.8790880372323917 m-21.86835844067053,17.325826706916317 l1.3194077095666412,0.27361894026822753 1.664116313875005,-0.04526401475318841 l15.967639115851826,-2.4703320654460375 0.8183553889751047,-0.10498548901510152 l1.3236163904839577,0.4313966388303503 m-11.389209384128813,-8.456835038433312 l0.5831896284891024,0.9457465459648671 0.24057259809731363,1.8736976056872734 l-0.02093609845416777,26.78260765467493 " fill="none" stroke="black" stroke-width="1" /></svg>