<?xml version="1.0" encoding="utf-8" ?>
<svg baseProfile="full" height="109.35863250866532" version="1.1" width="109.49251416604966" xmlns="http://www.w3.org/2000/svg" xmlns:ev="http://www.w3.org/2001/xml-events" xmlns:xlink="http://www.w3.org/1999/xlink"><defs /><rect fill="white" height="109.35863250866532" width="109.49251416604966" x="0" y="0" /><path d="M25,25 m0.0,0.0 m28.986706733703613,0.044816602021455765 l0.46696700155735016,0.5226970836520195 0.9724533557891846,2.306423783302307 l-0.07399942725896835,8.964892625808716 m-30.35212755203247,3.0218085646629333 l3.0065101385116577,0.3647269308567047 2.8673669695854187,-0.06351588759571314 l44.768004417419434,-4.4744327664375305 3.5485124588012695,-0.054489350877702236 l2.877201735973358,0.3487227112054825 m-32.10052251815796,4.4613200426101685 l-0.25810444727540016,1.8915441632270813 -1.6393019258975983,3.0953866243362427 l-2.6655730605125427,3.681827485561371 -3.5907649993896484,4.154622554779053 l-7.388423681259155,7.080269455909729 -9.007145166397095,6.826023459434509 m17.670440673828125,-11.912394762039185 l0.7122886180877686,1.1655962467193604 0.220006313174963,1.4449751377105713 l0.27879834175109863,25.972399711608887 0.446569100022316,0.5154120922088623 l0.7685650885105133,-0.1531666424125433 1.1095019429922104,-0.7926055043935776 l11.540313959121704,-9.517822265625 m14.395114183425903,-29.722704887390137 l0.055547947995364666,0.7722076028585434 -0.6148520484566689,1.3615621626377106 l-2.9892081022262573,3.239993453025818 -4.2642611265182495,3.5849371552467346 l-6.316074728965759,4.528341591358185 m-8.811907768249512,-4.639073014259338 l1.779719889163971,0.9179981797933578 2.909983992576599,2.147611230611801 l21.751482486724854,17.71597146987915 4.483903348445892,2.864270806312561 l3.948822021484375,1.7176154255867004 " fill="none" stroke="black" stroke-width="1" /></svg>