<?xml version="1.0" encoding="utf-8" ?>
<svg baseProfile="full" height="95.40207872405887" version="1.1" width="110.2402386270802" xmlns="http://www.w3.org/2000/svg" xmlns:ev="http://www.w3.org/2001/xml-events" xmlns:xlink="http://www.w3.org/1999/xlink"><defs /><rect fill="white" height="95.40207872405887" width="110.2402386270802" x="0" y="0" /><path d="M25,25 m0.0,0.0 m15.736388708866793,12.601149602252397 l0.5190934810715376,0.1132050467428964 2.903870957663786,0.05765402032603521 l22.663686419423218,-2.394721906784039 3.674734956336604,0.16258316066841758 m-16.844766901743917,-5.931964778568903 l0.7266847895357675,0.9663663534058509 0.26178288115898185,1.3504228873708968 l0.05454097199021289,19.16382965601236 m-13.734571872645077,-5.54926993988166 l3.8914092483880496,0.06696821560239802 19.862246641232915,-2.4902028285687474 l4.446315147921097,-0.001466960197006217 m-38.96654934593035,10.596989998541128 l2.4134697644668544,0.27677351250184334 2.764663725369099,-0.059855270047674825 l38.754345775816326,-3.68245128548267 3.2992941724202822,-0.08081305551966883 l2.647975582744251,0.30638086453371327 m-31.04455840147171,3.715114797239626 l-0.1625680000412343,1.038155181439372 -0.35056188855847664,0.8361548742380495 l-3.13109849097357,7.3098737723617795 -3.7473400753953165,6.459133442980854 l-3.985635785055263,0.5720693628916096 m-2.3905745915670815,-11.7020763347985 l3.4512366395173637,1.997243114944931 2.5224917177793493,2.6423237513386564 l2.433860297406537,3.0226732342786957 2.000941997476455,3.241587427130803 m27.52990479387835,-22.574607675830052 l-0.08685096218078077,1.094278774025415 -0.39917681820059125,1.2197077607349907 l-2.6391892587528374,3.9333991296879947 -3.2026083352963406,3.523438157982178 l-4.062009842797656,3.27202778381273 m8.770848352649333,-13.134161847064158 l3.4024089148501093,0.9029393172962658 4.1219817198430935,8.358432596933891 l2.285967121821773,4.226895599436662 2.3553466364080475,3.6808119037520446 l1.4928077816542242,3.1208779165012994 " fill="none" stroke="black" stroke-width="1" /></svg>