<?xml version="1.0" encoding="utf-8" ?>
<svg baseProfile="full" height="97.22724486435095" version="1.1" width="107.95093130799067" xmlns="http://www.w3.org/2000/svg" xmlns:ev="http://www.w3.org/2001/xml-events" xmlns:xlink="http://www.w3.org/1999/xlink"><defs /><rect fill="white" height="97.22724486435095" width="107.95093130799067" x="0" y="0" /><path d="M25,25 m0.0,0.0 m30.46705043946922,2.6154985661327923 l0.04024766127870748,0.4015300084761932 -0.43004759433969936,1.655556707358928 l-1.2935968043580763,2.3537982105893525 -1.7594757775269882,2.2967774558348304 l-2.394129065487492,2.2291041215337706 m0.0066965570151621134,0.7294245878192129 l0.5505539601951073,0.99236919563713 0.2520451479595565,1.662493055264183 l0.06439331400040965,23.348073284743187 m-0.07605486991276918,-26.937480567808702 l7.250261463361657,-1.4760046749048272 1.4947495659261403,0.051625782003354284 l0.4050607639997254,0.43191649118220354 0.19636684949228367,1.1480631630005733 l-1.0035157818045888,3.171232557884567 m-8.516969984796976,1.985413524448244 l9.27296332619089,-1.1824664485683605 m-9.514774289023057,7.253397418375711 l9.002229234141252,-1.400668186104075 0.8553808591907336,0.6648370200523408 l0.11588824408022128,0.4733447047372873 -1.0654605550820107,6.352112136010863 m-8.758570000748264,1.3215481578616166 l9.714264888350401,-1.1344359611042178 m-5.270193905028124,8.870576605949298 l3.319109886693713,0.8148582062269891 1.246162029767452,0.15447641426835207 m10.926714921613577,-30.02044087305301 l2.0476272517250007,2.020830439143582 0.9833600833878654,1.6137698926280755 l0.4492384803135792,1.1678782840858928 m-8.105645430196452,3.8005623437724 l1.700462323288346,0.12302408934658206 10.827255719822366,-1.3899169675735483 l2.376714868732662,0.03601901872501333 m-12.560568788615873,3.5650927755127624 l1.6955886432864766,2.931247040767105 0.7125225092700638,2.8000019675793753 m7.3667627317140765,-7.411040484733962 l0.20747382498692724,0.5708118199365905 -0.1815681578439088,0.854118126498662 l-2.3961529634196124,5.964963555717298 m-11.416217066027889,2.2123874373247934 l2.6220387061917583,0.0498383002100924 13.301202153802553,-1.4704234385431958 l3.223485932954544,0.0024813490622338204 m-17.496429878172943,7.775963098137516 l1.707798240020463,0.1829283141373717 11.712043118056409,-1.1084996329269534 l1.5127731225391898,0.10777399790525682 m-8.416443484239673,-5.553319664638646 l0.45662597936696814,1.837214902307059 0.05243533429856653,17.717007636121814 " fill="none" stroke="black" stroke-width="1" /></svg>