<?xml version="1.0" encoding="utf-8" ?>
<svg baseProfile="full" height="104.43575585665768" version="1.1" width="109.29593504373476" xmlns="http://www.w3.org/2000/svg" xmlns:ev="http://www.w3.org/2001/xml-events" xmlns:xlink="http://www.w3.org/1999/xlink"><defs /><rect fill="white" height="104.43575585665768" width="109.29593504373476" x="0" y="0" /><path d="M25,25 m0.0,0.0 m49.91712547281479,6.30619528889712 l-0.09091103298757365,0.41436018189113705 -0.6582788263323448,0.9866355441297321 l-1.1691354423625924,0.9539058209945346 -6.643985899281166,2.8561324465542235 l-8.603964380281687,2.5263293060627783 -10.069694050872457,2.103347423036591 m-3.996195279156943,8.203642789197596 l1.6644178238870038,0.17516390059940523 2.541424463587003,-0.03843755027964828 l29.65554195520154,-3.0954245148219575 4.087784372486305,-0.3133095502671601 l2.66180586703289,0.24288771760195982 m-20.124430810574253,14.337481161063794 l-0.4907620758847851,0.8745709968019041 -3.350405073908794,0.8888572265715184 l-7.4917506149882405,2.946063422391444 -7.4282304055902175,2.3114574565471604 m-2.646582759625944,-11.299556574674094 l0.723737218943933,0.9579610105594577 0.33815902932120057,0.9124270536240973 l0.573563685078106,15.723007494092874 1.0391319001333081,2.8857981541387754 l1.895979747055968,1.3866845055995873 3.1115516493387307,0.8615509090385973 l4.233459466525615,0.3255508645319201 9.853469881570195,0.0024733727743158533 l5.191726023351275,-0.5375351110351876 2.5425750969308116,-0.7941238070023277 l1.764470910568113,-1.1368599249837479 1.0886230759301059,-1.4773635164230174 l0.4858437545785684,-2.5497346051601375 0.07446690243350172,-3.7582194640648017 " fill="none" stroke="black" stroke-width="1" /></svg>