<?xml version="1.0" encoding="utf-8" ?>
<svg baseProfile="full" height="107.55186612175768" version="1.1" width="100.86574180797473" xmlns="http://www.w3.org/2000/svg" xmlns:ev="http://www.w3.org/2001/xml-events" xmlns:xlink="http://www.w3.org/1999/xlink"><defs /><rect fill="white" height="107.55186612175768" width="100.86574180797473" x="0" y="0" /><path d="M25,25 m0.0,0.0 m29.414331501999698,3.4886061379400046 l0.3310494903280834,0.36067766349699243 0.4031803036807355,1.484908813188366 l-0.02999021743065508,4.2744389654717745 m-18.08092428598612,2.2610450705711935 l4.798661659536687,0.15978445024372875 15.048935911141417,-1.7586840165176902 l10.456578779564719,-0.9956485309174399 2.9585801894646955,-0.13076732053068593 l2.453099981571668,0.4333596272415093 m-28.843471342785477,7.406061636763632 l0.7297966313366901,1.2022207740406903 0.42778395702110616,3.0546678816417954 l1.3039145233701226,11.071588433324832 m-1.3552926023431102,-14.582658983028596 l18.972125686601686,-2.6092050965481053 1.6905505344743748,-0.020932694112357902 l0.9926001653409329,0.2436302373037487 0.7832334337919352,0.9636496958796179 l0.08935528560226788,1.4916419094167481 -2.1817222304596524,11.882531543826907 m-27.26450034838389,-5.0822809720688555 l3.2626763544245794,0.26638109445710056 27.5382511979348,-3.043563733864377 l4.501280561353835,-0.22826298567533426 2.465656686823606,0.28289729900649985 m-29.18536690975977,9.697379209325774 l18.100891113134896,-2.2435734538969565 3.375352994587047,-0.060209962054997825 m-16.687356551007213,3.7455239753416225 l-0.08364414662177122,1.3552898250256242 -0.6362978707617346,1.3507804033510966 l-1.8341321371923143,2.8709697801797684 -2.044467696726621,2.689218944020996 l-5.16728871345131,5.524842252507985 -6.39591788012803,5.434221055719225 m12.794304519345948,-9.065811732723578 l0.4662743760167496,1.3944418656464836 -0.030390918029229344,11.776199180362639 l0.16671874310183413,0.8547765856712821 0.4616842341088584,0.3517312927290107 l0.6478574798580236,-0.4354910516386082 6.957061716959264,-7.131271172390898 m11.493151889932014,-15.448184315150586 l-0.1950576761719565,1.1996807810122128 -1.4070433667184357,1.3610892945204522 l-5.829755606218134,4.310206974003004 m-6.343839877824086,-3.7290486300807832 l1.2413124750872684,0.6773832104660998 2.4765274889881073,2.160597635707359 l12.786138332552543,12.56290998930286 1.9648039906636732,1.7056764133928355 l1.9374914628789779,1.1914675090534255 " fill="none" stroke="black" stroke-width="1" /></svg>