<?xml version="1.0" encoding="utf-8" ?>
<svg baseProfile="full" height="104.71214244612293" version="1.1" width="92.55127419798947" xmlns="http://www.w3.org/2000/svg" xmlns:ev="http://www.w3.org/2001/xml-events" xmlns:xlink="http://www.w3.org/1999/xlink"><defs /><rect fill="white" height="104.71214244612293" width="92.55127419798947" x="0" y="0" /><path d="M27.95914761467248,25 m0.0,0.0 m16.512111255679525,0.6700215375599137 l0.44945525178008583,0.5304738250585933 0.5782214554649279,1.397090036280421 l-0.03498218168263932,6.9541034375358945 m-20.46395339591438,2.120537369889753 l2.291917058419531,0.21011693645434612 2.539785603671406,-0.09079190272746142 l17.441328158296987,-2.0246389960304043 14.933623039016931,-1.073654657620315 l2.9911975298899716,-0.0598174823051782 2.353422808694646,0.4165841977678332 m-32.21091945589604,11.637679805288622 l0.7731644481160074,0.8449275897043457 0.37676047541999,1.1360495967224826 l1.9588878787178405,10.658997047044505 m-1.6454214482708087,-11.40125375610697 l16.734014768500995,-2.5119920741804727 2.880096034844136,-0.18133171859993905 l0.715092480370795,0.32968864564301786 0.6729878503174181,1.0811767765798053 l-0.003361901188995726,0.8280510971385894 -2.215128494138119,8.02467050327772 m-16.535696601934944,3.0821345105459117 l17.98710517802063,-2.4208364395096926 m-10.317813059456524,3.636866974939328 l0.5403354629799889,1.1499705062264187 0.24034723439060995,1.7793214097131294 l-0.19242449134655856,16.47189880699179 -0.3471897317231654,1.108337601529686 l-0.5393740704265251,0.4077612613112532 -0.6518767941461293,-0.09293013923364249 l-1.4439323368546397,-1.0603554869537395 -1.8906306238166948,-1.9932378552241758 m-8.418370057308117,-11.989660931842973 l-0.05892144385552663,1.0679740919652487 -0.3643484065458226,0.9575248084159586 l-1.797183052841389,3.06343330885057 -2.7110075546658665,3.3382682514758075 l-2.965961707130209,2.858830033905636 m33.313187156957504,-11.06077774828456 l1.9416186746808268,1.9713756270019582 2.1926577030174514,2.88590608716713 l1.700597102250533,2.70920169688084 1.0113167206435687,2.2549928081960653 " fill="none" stroke="black" stroke-width="1" /></svg>