<?xml version="1.0" encoding="utf-8" ?>
<svg baseProfile="full" height="100.40962453204224" version="1.1" width="103.00583137746989" xmlns="http://www.w3.org/2000/svg" xmlns:ev="http://www.w3.org/2001/xml-events" xmlns:xlink="http://www.w3.org/1999/xlink"><defs /><rect fill="white" height="100.40962453204224" width="103.00583137746989" x="0" y="0" /><path d="M25,26.818151601366736 m0.0,0.0 m20.84971585974608,4.0481940224188495 l0.013891623824257356,0.44758599320845793 -0.3084568829450452,1.2296973000484392 l-2.2023313161970792,3.1905235540590784 -2.4860960980521374,4.845724821121474 m4.156345211463977,-15.149403104213885 l0.9456922075107294,0.39454585300408357 5.227171280603,-0.8250200410132339 l0.7536775077328404,0.38959182682631194 0.182929260386972,0.5144111602785965 l-0.0745010071457447,11.344607545554085 0.3523120165817495,1.204872359866406 l0.6324253013404432,1.3203031469409334 0.8640392501058666,1.4578698795762997 l1.2039431020261948,1.345523684787016 1.4163190450292886,1.1087361543932694 l1.5913333762428319,0.73532527776985 2.8511492147020383,0.23112724485804045 l0.6064092528778681,-0.34976655171778487 0.6273897142575469,-0.8665327471792411 l0.26224929067943936,-2.1553438112784655 m-13.399197703078626,8.292587980158197 l0.9712980300461316,0.06131433820691756 7.902506440179367,-2.54649304801778 l1.0572155603756255,0.06749404786757521 m-5.556185448546236,8.257324427504303 l0.3038703875276161,0.5839611234011008 0.16235006789193562,1.2894824478101041 l-0.08729204018318998,6.2862204273271445 -0.12707418003666132,3.139268998001027 l-0.3561533047831679,2.5009688968863886 -0.723355111965072,1.8836871099499333 l-1.1388634087127958,0.8276739288083925 m2.6999061139926592,-16.768682983916445 l0.02583113397768415,-1.32803821056701 3.0645785009066366,-1.2306084861256912 l3.040289172889304,-3.217361212608342 m2.9506658706104565,-8.893642014112032 l0.7601309003372192,0.2941272281458677 0.6024533491399988,0.025048624812728626 l8.938786082894428,-1.9661002275228159 1.7299235301826528,-0.0248719238061029 l0.5887724673007187,0.6226108360593295 0.2235507741233498,1.354530823181594 l-0.1788549483239959,3.6430759137354194 -0.8036978432122017,7.710935619526262 l-0.9876596947966979,6.263677211372348 -1.141487851976281,5.505942529545709 l-0.7530372546298172,2.241075867576214 -0.4260039201331485,0.9258026554933426 l-1.2258810897050252,0.7602746737569727 -0.7807331899327442,-1.6311600682290264 m-0.4006929179851444,-35.9717273635434 l0.25015722971290455,1.0591570691351706 0.03416227282196814,1.8061053192160876 l-0.47594360412515097,7.812440899857411 -0.8451171699718424,5.991980278974953 l-1.0269332281947663,4.959895767426924 -1.2953698062508592,4.551591597419086 l-1.187020137071821,3.25500846906401 -1.952824557167054,4.033362625399535 l-1.6752268841375986,2.5935343414777554 m-10.269437266171439,8.840610779856096 l1.622317733377296,0.2668120428616772 1.9406025136601348,-0.058725465076878876 l21.307019587120248,-2.482465510567932 2.177879008721765,0.3445622040376481 " fill="none" stroke="black" stroke-width="1" /></svg>