<?xml version="1.0" encoding="utf-8" ?>
<svg baseProfile="full" height="99.48266060731626" version="1.1" width="108.32045399430206" xmlns="http://www.w3.org/2000/svg" xmlns:ev="http://www.w3.org/2001/xml-events" xmlns:xlink="http://www.w3.org/1999/xlink"><defs /><rect fill="white" height="99.48266060731626" width="108.32045399430206" x="0" y="0" /><path d="M25,25 m0.0,0.0 m43.22704731634578,6.439712193519067 l-0.0684055856016145,0.4022113973100531 -0.5409259036995061,0.8173479336920904 l-1.0749195568191676,0.6899185317835663 -5.564102846119985,2.499401861059533 l-6.774726454586621,2.3604542425496837 -9.132488321908307,2.0671244682903733 m-5.601273572356124,9.180232795427676 l1.892170162858715,0.1951947589426928 2.6252311129299626,-0.10506750505491527 l30.04500256930952,-3.2707779258916583 3.931948100253021,-0.3154777923998292 l2.8667389095332694,0.26969211421308276 m-20.973271308313493,-8.477546980933468 l0.5839848763703829,0.8768233272564819 0.22551924464106082,0.9575614156245932 l-0.03159831803742406,34.895855771927245 m-1.8539953692548423,-25.966588317581635 l-0.5375383565346544,1.1025610682954472 -1.8095352558083617,2.2122139605813604 l-5.896512049556649,5.695976514826984 -6.716821648060455,4.73565914471308 l-6.03110623946378,3.385856015784872 m24.170064624719185,-17.28228315334272 l9.198917156079943,9.188470541933121 5.5039952102909835,4.409796718954286 l4.326235579273485,3.3498296707654527 2.3308199178177182,1.2356660189371576 " fill="none" stroke="black" stroke-width="1" /></svg>