<?xml version="1.0" encoding="utf-8" ?>
<svg baseProfile="full" height="98.67241426129087" version="1.1" width="95.42051271159194" xmlns="http://www.w3.org/2000/svg" xmlns:ev="http://www.w3.org/2001/xml-events" xmlns:xlink="http://www.w3.org/1999/xlink"><defs /><rect fill="white" height="98.67241426129087" width="95.42051271159194" x="0" y="0" /><path d="M25,25 m0.0,0.0 m13.230419278236347,8.635945110370734 l0.4716224433558842,0.3414877848218102 0.504338566093189,1.4282997948591452 l2.266993173846222,9.645402896812612 m-2.1291915056479813,-11.114607334168038 l23.437872139994536,-2.0034247198046105 2.328271145372683,-0.17946014848258524 l1.4217531903659377,0.24818801226678608 0.7717541155083097,0.7265182719010719 l0.002164496364059842,1.212694008046038 -2.656792351337506,8.947698221744183 m-24.782972852937405,-4.244305974292272 l25.673603987770147,-1.7721224101928656 m-24.34921710095922,6.679618787191117 l13.224875466485797,-1.0767468060173442 9.717002630057879,-0.5138806397354345 m-12.970360906861,7.3108176901277595 l13.97952632735985,1.1356144783843545 2.585699760689413,0.24211806092221974 m-19.489329564875842,-3.9577651586135945 l0.5819881812124302,1.0160921352531553 0.17905323091865674,0.7337125743139928 l-0.12542379717412355,7.348657291687182 1.4993306341486796,1.435353862860527 l1.206649603177536,-0.07026698936415489 10.065380826843963,-2.0039203110606887 l5.509662870287906,-0.5302015781361086 1.8513471626493434,0.2605923405884438 l0.83289499552764,0.5895570002726496 0.41251908498462025,0.5155296680900042 l0.16907748013399312,1.3379184028968454 -1.0418861877425956,9.487031777807955 l-1.2616612426624767,4.9133992149629035 -2.1624328112329185,1.9468689449770684 l-1.2299139451219745,-0.36559321683483165 -1.9068316548317548,-1.6288144207690938 m-23.021383713694455,-12.768248132405548 l2.1298773767417067,2.236219599241656 1.3976207260861464,2.257692232691748 m23.32303963317463,8.82166005104636 " fill="none" stroke="black" stroke-width="1" /></svg>