<?xml version="1.0" encoding="utf-8" ?>
<svg baseProfile="full" height="100.69408448110119" version="1.1" width="102.04567984243901" xmlns="http://www.w3.org/2000/svg" xmlns:ev="http://www.w3.org/2001/xml-events" xmlns:xlink="http://www.w3.org/1999/xlink"><defs /><rect fill="white" height="100.69408448110119" width="102.04567984243901" x="0" y="0" /><path d="M26.04900225278062,25 m0.0,0.0 m22.96555187964741,1.999673216639431 l0.4121154991393792,0.36910867070716225 0.8522672551471311,1.8662597855224343 l-0.050085195056101546,6.9949712345937165 m-25.228851691658438,2.669757073195406 l2.897166827835718,0.2844362193752044 2.5335885249986756,-0.05787172712386022 l37.36715454061333,-3.364256777644694 3.9517725252519864,-0.0560122963997264 l2.7171451378437,0.3259684425611149 m-28.16554961823962,3.7294028697806425 l-0.19384839101544296,1.5997191070343735 -1.3337512187556004,2.6186150798317565 l-2.1550568275261908,2.8786694101800014 -2.8713460343272255,3.225977659431496 l-5.899710379409153,5.6101098570558605 -7.6356217523044805,5.768782471943174 m14.947232157363906,-10.254849942682746 l0.5954219552392274,0.9277376621966732 0.14115971176467507,1.190956813962598 l0.18812575106074683,21.721950184495668 0.3329793712152715,0.5819418570188076 l0.6343050967789516,0.06303760942670054 0.8571198095407012,-0.5309684492620451 l9.774851201797542,-7.610920353178459 m12.521032616910903,-24.28445785475543 l0.07109787604988466,0.6742455816581929 -0.561029277302672,1.1302546070888304 l-2.1199922771791124,2.59180321852987 -3.2292487868048885,3.061629783303966 l-4.933834549086247,3.885442463797244 m-7.864852691343298,-3.9856576844289204 l1.5047260247729548,0.7238120386203728 2.339542661219439,1.6842418495935587 l18.297084814264572,14.921381068213968 3.94608608526901,2.1921096132104787 l3.391928955941753,1.3115634197190746 " fill="none" stroke="black" stroke-width="1" /></svg>