<?xml version="1.0" encoding="utf-8" ?>
<svg baseProfile="full" height="108.3710949216038" version="1.1" width="109.49251505546272" xmlns="http://www.w3.org/2000/svg" xmlns:ev="http://www.w3.org/2001/xml-events" xmlns:xlink="http://www.w3.org/1999/xlink"><defs /><rect fill="white" height="108.3710949216038" width="109.49251505546272" x="0" y="0" /><path d="M25.000003296881914,25 m0.0,0.0 m15.043376684188843,0.09190321899950504 l-0.1358704548329115,0.6747377663850784 -1.220441311597824,1.7774246633052826 l-3.2479017972946167,2.781156897544861 -4.082266092300415,2.817218005657196 l-5.306980013847351,3.150143623352051 m16.800764799118042,2.625119686126709 l-0.08464130572974682,1.684451699256897 -0.4776829108595848,1.0773927718400955 l-4.518589675426483,6.542290449142456 -5.5411213636398315,6.0278624296188354 l-7.228649854660034,6.370016932487488 m10.199682712554932,-7.700350880622864 l0.6667052209377289,1.1122576892375946 0.19427765160799026,1.1700239777565002 l-0.09800002910196781,28.169445991516113 m16.691385507583618,-53.77120018005371 l3.660811483860016,0.24505816400051117 14.997020959854126,-1.955295354127884 l3.6126157641410828,-0.24924535304307938 2.0474565029144287,0.1394648291170597 m-29.488842487335205,17.89456605911255 l4.032019674777985,0.26593809947371483 28.379321098327637,-3.670552968978882 l2.4507953226566315,-0.13882925733923912 2.147265672683716,0.30233312398195267 m-17.13984251022339,3.1774884462356567 l0.9468205273151398,1.5244834125041962 0.28526386246085167,2.1646982431411743 l-0.35650502890348434,32.00287342071533 -0.47409385442733765,0.7458347082138062 l-0.6990063935518265,0.16193365678191185 -0.8497457206249237,-0.2847297675907612 l-3.9004218578338623,-3.3155807852745056 " fill="none" stroke="black" stroke-width="1" /></svg>