<?xml version="1.0" encoding="utf-8" ?>
<svg baseProfile="full" height="105.42361728387344" version="1.1" width="111.50749746721854" xmlns="http://www.w3.org/2000/svg" xmlns:ev="http://www.w3.org/2001/xml-events" xmlns:xlink="http://www.w3.org/1999/xlink"><defs /><rect fill="white" height="105.42361728387344" width="111.50749746721854" x="0" y="0" /><path d="M25,25 m0.0,0.0 m45.58949021339,0.6999242001979196 l-0.020677047891017753,0.47523240070133926 -0.448417908584265,0.9451518071580959 l-1.0060273738726173,0.9865561526705621 -5.349545035482395,3.2724767478544883 l-7.075379007285562,2.9613642768391646 -8.718731424910011,2.2256433792378054 m-3.880432128811111,10.412586084341008 l1.6468732228236582,0.3299678965760762 2.39104582651272,-0.07208951626622005 l28.07051836960574,-3.6132881161359864 3.03935745656756,0.26547747410890915 l2.460756452193844,0.7284705492242484 m-19.134763616698002,-10.952386598493131 l0.5174023208254552,0.9235412602869704 0.2534838779949772,1.706186388420281 l-0.0695677857531368,44.128802897151914 m-1.2211127711379233,-33.94906335986042 l-0.4352922842072405,1.4358723859482287 -1.8440005849132417,2.6596452310662104 l-5.999908257882602,6.702172211343793 -6.561313698741554,5.757199379204627 l-5.957591868073584,4.325010129539277 m23.276639331140274,-20.17537622756935 l9.302517076230505,9.574226726190634 6.124233559179646,5.333536769313394 l4.1262942188765726,3.8237954924147246 2.4316463361218754,1.4618948601594688 " fill="none" stroke="black" stroke-width="1" /></svg>