<?xml version="1.0" encoding="utf-8" ?>
<svg baseProfile="full" height="116.27228317260013" version="1.1" width="107.78972088499036" xmlns="http://www.w3.org/2000/svg" xmlns:ev="http://www.w3.org/2001/xml-events" xmlns:xlink="http://www.w3.org/1999/xlink"><defs /><rect fill="white" height="116.27228317260013" width="107.78972088499036" x="0" y="0" /><path d="M25,25 m0.0,0.0 m19.46980149453757,1.7527110410597884 l0.3416338866830193,0.4290124168670463 0.43439037516217527,1.5761052019032573 l-0.046930263278993065,28.39815713823427 m-11.492698480569917,-28.79613272160716 l0.40810538213552794,0.3499953083697874 0.338834042657557,1.2442206787377004 l-0.6452782577299423,6.815291946924283 0.35586369924878697,0.8012857538100706 m15.237385025651168,-2.2339519269465495 l-0.003256419450970952,0.8413970266925672 -0.2634271113842138,0.7561611436160681 l-2.174480820070434,4.327570114231016 m-6.869817489311154,2.225822310805426 l0.36087272840061696,1.0566015357489784 -0.16067723035417175,1.030094342169659 l0.05381288624697538,5.946064524343281 3.1515340916173527,0.2337158863814416 l8.10881680320664,-2.9651517347893868 m4.028324073783797,-13.94881302130718 l2.131051303448007,0.49069110964402796 13.35373037205819,-1.6493509749041182 l0.7871072919640716,0.10148155487072823 0.8000387156227693,0.5603191353396699 l0.23321942629263365,0.949510832380508 -1.4118045320556776,13.590689741207944 l-0.994083323209692,3.832339688801588 -1.0989862540097994,1.6434280331578617 l-0.5319117700332573,0.02956671301590447 -1.2040583312686945,-1.4501340487228775 m-3.143182853432605,-14.235476028080917 l-0.09583591603375048,1.4569954907653009 -0.7733857454618855,1.5173123962961481 l-2.655098035203692,2.2188229574121627 -3.3006244479252604,2.0816295897772084 l-4.881011949993909,2.003748483690458 m14.166825454848913,4.98149373458676 l0.003891482222270975,0.9073921208470627 -0.6745024880836451,0.6444587487410214 l-10.579883700448795,2.5696096214337714 -9.604269326989462,1.3566676310816694 m-4.912918228303842,4.2068159532527885 l2.947764192556717,0.2448710388953447 26.244412746818302,-2.2793369915126913 l5.405016176263209,-0.20258378551563275 2.3390874106300754,0.22099015410861017 m-19.725488393711785,6.409390584956511 l6.145315823188549,0.8082869595556494 6.467910925098722,0.5566258330848858 l1.385304033126215,0.387976127885617 m-12.001982151244887,-10.137429114150708 l0.6562330737781517,0.8764839967403893 0.19844267710032704,0.874135261863793 l-0.043090578726764917,21.116930372208337 m-0.9217490375362039,1.3890224512434217 l0.006196463669348878,0.4897015137508965 -0.3336293715666934,0.6842982866633388 l-2.474090236545575,2.6472115238713987 -3.0074740167626235,2.440754321209645 l-3.579638065631968,2.0967851879022836 m21.73018703170424,-8.549178825294218 l2.8336703930118667,1.3354202281416638 2.9853822496023272,1.8497022297899406 l2.7899971065946803,2.1630368658775403 1.494826872389861,1.6056425857800578 " fill="none" stroke="black" stroke-width="1" /></svg>