<?xml version="1.0" encoding="utf-8" ?>
<svg baseProfile="full" height="96.77313232974541" version="1.1" width="105.26153274367417" xmlns="http://www.w3.org/2000/svg" xmlns:ev="http://www.w3.org/2001/xml-events" xmlns:xlink="http://www.w3.org/1999/xlink"><defs /><rect fill="white" height="96.77313232974541" width="105.26153274367417" x="0" y="0" /><path d="M25,25 m0.0,0.0 m43.974722170859444,0.43164733858555626 l-0.05368376359305258,0.5275322753049297 -0.5312126239711393,1.0381705264444983 l-1.0600196497129437,1.1597696867881278 -4.8438792226307,3.436967491023266 l-5.994848416541903,3.170328895697883 -7.503380528735733,2.8160177873124206 m-4.300179353408619,12.40004782284049 l1.9078322558857286,0.33643950885247925 2.326202524111286,-0.11906743060680407 l27.625794950989388,-4.2785216750052175 3.1846388844827036,0.29415873589522323 m-17.02678981735356,-13.414308250627736 l0.489298719339754,1.1158409540257448 0.19415270097585716,1.1978285430562856 l-0.02332435828283043,29.812609507374674 0.14771830981598602,2.044618798974925 l0.3912360292472157,1.6368811091678217 1.1203366893825688,1.7968133442873648 l2.0650834964645113,0.9872136316514704 5.163172221272836,0.3821437287020119 l3.997494478319851,-0.33326629566734045 1.8058970587823042,-0.6172295295819724 l1.8694697202115795,-2.7696565431791407 0.28157722057553153,-2.620040580491144 l0.054223047188085606,-3.4876497610437887 " fill="none" stroke="black" stroke-width="1" /></svg>