<?xml version="1.0" encoding="utf-8" ?>
<svg baseProfile="full" height="95.04837114784831" version="1.1" width="112.48450409826145" xmlns="http://www.w3.org/2000/svg" xmlns:ev="http://www.w3.org/2001/xml-events" xmlns:xlink="http://www.w3.org/1999/xlink"><defs /><rect fill="white" height="95.04837114784831" width="112.48450409826145" x="0" y="0" /><path d="M25,25 m0.0,0.0 m44.84935098816886,3.630719028073464 l-0.03433382711132309,0.5049773760020176 -0.5385599862337661,1.0081300065033745 l-1.2082806240931159,0.9424142614246335 -7.137815519736517,3.0575917435753617 l-8.587664646830525,2.8440526202298924 -10.917877951580227,2.5744192933272156 m-4.932348020688458,7.634192954171066 l1.9677076478663416,0.26228647691115253 2.6965320807427666,-0.0633107761503608 l22.119111924876517,-3.509757025009728 11.170731986923851,-1.4452979309723837 l4.471403611713271,-0.33755272081199666 3.0595080796080287,0.3001566728374482 m-42.22975820212741,15.73109803693071 l2.2908542852808322,0.2790640731929895 3.0560498055572483,-0.21024878020668522 l29.301319742671392,-4.30690294520012 4.089735054807884,-0.45711542790553517 l2.9728997698478703,0.17702846028080774 m-23.91631650274283,-16.992397627714812 l0.6032743708733076,1.1768312359268196 0.17762355458162868,1.228613426853878 l-0.24812556705147262,26.025735959539332 0.893843553962695,2.7707146041374147 l2.0378636733713673,1.333953674550663 3.7056850744864147,0.828296402267368 l8.862646966765249,0.060678075084309016 7.771994593618758,-0.5329206423772065 l2.506024997888018,-0.8407244079163817 2.332774076368398,-1.3950491219800871 l0.9851201962328118,-1.6536376078206665 0.3135289102435662,-2.677182246679067 " fill="none" stroke="black" stroke-width="1" /></svg>