<?xml version="1.0" encoding="utf-8" ?>
<svg baseProfile="full" height="95.7847488080312" version="1.1" width="118.45351994609521" xmlns="http://www.w3.org/2000/svg" xmlns:ev="http://www.w3.org/2001/xml-events" xmlns:xlink="http://www.w3.org/1999/xlink"><defs /><rect fill="white" height="95.7847488080312" width="118.45351994609521" x="0" y="0" /><path d="M25,25 m0.0,0.0 m13.389577320014913,11.506841091442816 l0.45938032267847184,0.4363956460418678 0.5637061922974447,0.9604330557045083 l0.36260528171291256,1.7349469387581733 2.728604809961762,14.462366675225873 m-2.771484787741303,-17.919756983656054 l29.50344784330982,-2.7806371966211576 5.044226711170833,-0.27674355378843024 l2.2091642543808074,0.2435188087023721 1.0728696308054224,0.7564740062796386 l0.3276830665166026,1.5254591544821021 -2.082802410020758,7.720171874921047 l-2.371542721824432,6.352389473916403 m-29.80552794667715,-6.109441690520376 l16.98650534505494,-2.3950336092953033 14.116195682256933,-1.1943403460704412 m-29.2912889311676,10.278517606313535 l27.246777567049392,-1.3031294210011428 5.8528712450319516,-0.02700037708147384 m-19.297732684080362,12.740820945033091 l11.585023132433092,-0.9313606965384363 9.987473754196987,0.29724863412961194 l1.716319821964545,0.13640559573168912 m-40.01809555088425,-9.539500855207002 l0.7517172906270382,0.9156633225578887 0.37087759332005826,1.216166883475297 l-0.2597639600266037,14.384388547615536 0.5307921690530708,1.8428388447001223 l0.6577660168663425,0.47800459986488275 1.8800351521115732,0.2726418329145673 l42.40424463351504,-2.5245533187826594 2.4275405565842565,0.28411839900021746 l2.1763535456034298,0.36170493470850484 " fill="none" stroke="black" stroke-width="1" /></svg>