<?xml version="1.0" encoding="utf-8" ?>
<svg baseProfile="full" height="113.89287339182557" version="1.1" width="98.4229332935788" xmlns="http://www.w3.org/2000/svg" xmlns:ev="http://www.w3.org/2001/xml-events" xmlns:xlink="http://www.w3.org/1999/xlink"><defs /><rect fill="white" height="113.89287339182557" width="98.4229332935788" x="0" y="0" /><path d="M25,25 m0.0,0.0 m14.60802746047297,4.1500574945726365 l0.3457286579003877,0.43056249323579665 0.4496441600552271,1.7978219056509632 l1.835123416234724,27.31129089631658 m-1.3311255971419405,-30.040949449656047 l27.182467277623633,-3.1696218615420766 1.5129196668385272,0.0664762491371675 l1.5612611731213522,0.5679837701676501 0.7619658317063888,1.0591487917348892 l0.2206164900169376,1.5847181165251774 -3.3052391524621094,27.09328341061728 m-19.67469580736564,-25.195723272648916 l0.6509475246824139,1.2200396629885923 0.2139197362436697,1.2486576046470537 l0.014765600219386745,23.993325349802365 m8.473863237847473,-27.459723641763944 l0.41353765134489057,1.2426398442117814 0.14668689930470588,1.4873356797628974 l-1.314339102170942,25.43904364226765 m-20.38019914708994,1.6558303010964388 l17.268317668562286,-2.0752330242284818 13.45245022594999,-0.929561390451726 m-35.69880798128594,19.834783066043375 l-0.40714371070842253,2.259663321368286 -1.166909964915908,3.7952383286787215 l-1.5711744940735954,3.723249194084328 -1.5632579400427467,2.8025369092071464 m12.509027044246649,-16.212595727247585 l1.3641132805557994,1.737450938296771 1.6581745247510289,3.258514906423574 l1.2176326081392783,3.3858661793014493 0.83418466251683,4.048567665923862 m8.094568487021624,-14.387428691113628 l1.55953980422259,2.6715702866433677 1.6837096775729647,3.794828480199005 l1.3254202805348871,3.869177471124452 0.6277626569865125,3.110571690149713 m8.040976215604788,-13.927339113422319 l1.9631164094809699,2.6734135516656288 2.2359961851413774,4.147681764028086 l1.7850525068071834,4.214963028930298 0.8243091691285416,3.246119975389107 " fill="none" stroke="black" stroke-width="1" /></svg>