<?xml version="1.0" encoding="utf-8" ?>
<svg baseProfile="full" height="111.13591639710593" version="1.1" width="104.58242620637685" xmlns="http://www.w3.org/2000/svg" xmlns:ev="http://www.w3.org/2001/xml-events" xmlns:xlink="http://www.w3.org/1999/xlink"><defs /><rect fill="white" height="111.13591639710593" width="104.58242620637685" x="0" y="0" /><path d="M25,25 m0.0,0.0 m7.04920163221945,13.251213852524929 l0.5777109908222913,0.08479242616552388 5.150710095366738,0.13837436585163712 l26.8867415287127,-2.2904613881836138 8.731310385650227,-0.9511391421862128 l3.972870555196569,-0.1651570142376703 m-46.16834815261363,18.11008113694373 l0.8815748412811187,1.4058023002322355 0.41754612068904334,1.4710709113245062 l2.3089968007389197,30.08133894867086 m-2.3202756305669197,-32.43706596969594 l39.348410298605785,-3.609839923292617 4.741986474693709,-0.12361638981464283 l1.8902697844028118,0.8536592987860215 1.004731181932407,1.5524349331138467 l0.10898929924561926,2.2474841904169294 -4.8133352798488875,28.787253713181336 m-28.121274560616573,-47.966205583186046 l0.5977780137011052,3.4007527938527335 0.01650808079042372,6.747108890323197 l-0.40919681222420445,5.685672220680084 -0.927425202557037,5.524461610416112 l-1.200557891268303,4.164482485212449 -1.6776072080137663,3.8186836823487305 l-2.2067005399345585,3.399740584212071 -2.0428192664529137,2.1620912360760816 m20.30144030520031,-36.60746905019851 l0.9223122309008787,1.8707482529593822 0.254216672734852,1.4761201336781615 l-0.29036556330575675,22.748208534576133 0.26978201246030664,4.428903543430995 l0.7007787983849535,1.7671325316550348 1.0224707423509858,0.9407854573951414 l2.6636384412636893,0.6760014469148837 6.105826174301431,-0.014640145236217466 l1.8843563790075126,-0.37722414818179645 1.1735001835330447,-0.7216115545930447 m-38.850722227180775,16.359786257933557 l39.113532804453364,-1.9247664833029539 " fill="none" stroke="black" stroke-width="1" /></svg>