<?xml version="1.0" encoding="utf-8" ?>
<svg baseProfile="full" height="108.22462532929346" version="1.1" width="103.6475158347549" xmlns="http://www.w3.org/2000/svg" xmlns:ev="http://www.w3.org/2001/xml-events" xmlns:xlink="http://www.w3.org/1999/xlink"><defs /><rect fill="white" height="108.22462532929346" width="103.6475158347549" x="0" y="0" /><path d="M25,25 m0.0,0.0 m32.600202588517156,3.039894370181745 l0.02592381929110519,0.39973127114384316 -0.67080716339469,1.8624151466773948 l-1.8907703014235602,2.433157998832219 -2.5526364309984406,2.292885786061581 l-3.226265527633866,1.9398085351709982 m1.3924265894740586,-6.826088860174721 l2.4465366964253663,0.7723841847146709 2.40625882480258,1.3386288801568706 l2.0298642199101846,1.5954254645657242 1.3471954554817,1.5750329924230393 m-0.5049158374119022,2.2578200622465694 l-0.060208561730747866,0.7684237840795525 -0.46122711414522233,0.829259779575437 l-2.001540326279273,2.1989741148362025 -3.2040383834164223,2.5114939524739675 l-3.357332134366536,1.9083107060154492 m1.1935645569144997,-6.662717074812555 l2.284888414217524,0.7399580317224397 2.883176244299629,1.6270522417849267 l2.4777738028715377,1.9962945081673635 1.6314148549126768,1.9665183265261932 m-15.647314198091308,-16.42345165548753 l-0.035776346627027965,0.5112064314055549 -2.7349280465823522,2.4245542696563946 l-2.1200585155267837,1.3327716117031523 -2.7211083056796124,1.2544989565251237 m-0.7772493786721455,-0.2026401574055608 l0.8807454146933436,1.6261704008370088 0.786430078393379,3.599003157818446 l0.8947866116306428,5.510147056815044 0.5318221111085567,5.269922106480318 m-1.2901538989919632,-11.348644536022256 l5.772290328997546,-1.2571523328887104 2.0870531638315764,-0.07064523183383245 m-7.135427638281855,6.078025796967492 l5.819754922088722,-0.9784294342637013 1.8098542452256843,-0.018537346910992996 m17.37343438759174,-11.144377170691996 l1.9135346170773893,0.21788691163226107 7.509522320384138,-1.3720060684087647 l1.1282161211807744,0.39979260148903506 0.16482359005830846,0.46634739709810996 l-1.6894382668338677,16.090160648468917 m-9.005238291165766,-10.320804773721045 l1.574284075621461,0.2422191067094483 8.107116767574535,-0.7350054728576423 m-9.749294380569923,5.429058405615117 l1.602009071496537,0.23475427387413164 8.147477231972822,-0.7128601006475588 m-37.81503742761777,8.56608845314 l-1.0077623245731444,5.040768897305901 -1.90719966651613,5.143083514420564 m2.9214996740391865,-9.239565807984116 l34.8938005792737,-3.3124808212398364 7.054228957580895,-0.3269495410124794 l1.097503573952831,0.3474385946973953 0.42383039039340764,0.5639063038469164 l-0.12246431655402165,0.7202725808752414 -1.2731285100877134,1.6172947929473513 l-2.4588489383930283,1.9584452606881386 m-29.88913050691104,2.2510316039026885 l0.5608881516235458,1.6409274968865075 0.3201913646491697,18.74816182756887 m-0.42850482283896724,-19.201361509289793 l19.025014185017444,-2.081189651230685 0.9502702520520637,0.06918409886013353 l0.532433839771694,0.3043758126403222 0.3397790189799144,0.4955631826318098 l0.23492080018472014,1.3947686117279594 -0.35236902408248616,17.628495108144968 m-20.431482818990652,-12.32781109101301 l13.336723960954894,-1.6944395039136562 m-13.144765338246193,7.58342499893439 l13.267609413026648,-1.5633410178159515 m-13.564616347064648,7.909189684128974 l20.462515613368637,-2.309111798860645 m-15.681259246575019,3.5516974137409023 l-0.07185004748466355,1.1336505198027087 -0.8762136769294119,1.3856584223169095 l-3.62870855351878,1.8142613064139448 -5.856179435699023,1.959484391839619 l-7.383877022011531,1.7870741398665468 m25.663395921440408,-9.472918238644143 l3.72320384266005,1.6514581875104146 4.287437236454757,2.3421519929030876 l3.355487375348818,2.332980697241318 1.8631340085534942,1.966948060970828 " fill="none" stroke="black" stroke-width="1" /></svg>