<?xml version="1.0" encoding="utf-8" ?>
<svg baseProfile="full" height="86.96951657913814" version="1.1" width="106.90977498534008" xmlns="http://www.w3.org/2000/svg" xmlns:ev="http://www.w3.org/2001/xml-events" xmlns:xlink="http://www.w3.org/1999/xlink"><defs /><rect fill="white" height="86.96951657913814" width="106.90977498534008" x="0" y="0" /><path d="M25,25 m0.0,0.0 m13.875926646985294,10.175885304641264 l0.41879727859494514,0.15976092762004596 2.6567505506369384,0.08929491071979243 l21.99147740515889,-2.5426187199367423 3.445501080848282,-0.13988224848179567 l2.14493179648114,0.2485090264527648 m-24.400523694432295,-4.5012703865188755 l0.8029940737021392,0.8841167367026942 0.30918331160654944,0.715446302400622 l1.001268218510447,9.423407841647625 m13.16820201848715,-12.369878131645624 l0.23367787793402417,0.9452762660380842 -0.05852212235323896,0.995723182097828 l-1.9513893640749969,8.986969134716581 m-22.971248214621824,4.562863947456664 l3.6227778523887713,0.21040155226850848 27.832952106010413,-2.409623632246299 l3.343837151264326,-0.08917747731107008 2.3455880954163,0.23612527803456582 m-20.609107981118903,8.704671623501486 l0.16454069870552798,0.8291541418478224 -0.3387362104283784,0.8383031119826717 l-2.707138353211979,3.2029601999250206 -3.259283159578572,2.9152151883410915 l-4.175941136577499,3.1726628782036883 m20.039286524226057,-12.003960609453967 l2.0367105383991557,1.7044580473037108 2.337608500184297,2.4431016435639377 l2.017761085877763,2.7508088894818643 1.2645300338279466,2.359143210152368 m12.327362376491424,4.47166843963181 " fill="none" stroke="black" stroke-width="1" /></svg>