<?xml version="1.0" encoding="utf-8" ?>
<svg baseProfile="full" height="115.31161088347605" version="1.1" width="108.86481681235679" xmlns="http://www.w3.org/2000/svg" xmlns:ev="http://www.w3.org/2001/xml-events" xmlns:xlink="http://www.w3.org/1999/xlink"><defs /><rect fill="white" height="115.31161088347605" width="108.86481681235679" x="0" y="0" /><path d="M25,25 m0.0,0.0 m13.516211507932576,3.969098992300959 l0.060226107395559746,0.43170032631846167 -0.29066657083860314,1.8322451884227782 l-1.2463121046198373,7.349818881143393 -0.9392395278569668,4.978731166711388 l-1.1526001972256334,4.491469770633205 4.136711655637291,0.92572304736738 l4.909140217325146,1.1073454236006786 2.8687072531906535,1.6079285473051343 l3.1032342998194653,2.4718237252121056 m-1.5026526160198745,-18.321020461285332 l0.1555800600405481,2.0046827528369326 -1.6102608418735433,4.180502614438626 l-2.0420484907839715,3.5789685703874756 -2.8420402067750943,3.66901482968962 l-2.917193020516325,2.8402395951741997 -2.560826658402615,1.9832414964269132 l-4.064883150850227,2.3819187820464993 -3.4782148780329116,1.4700734847832433 m-2.615265293030645,-16.903204393909498 l0.883637004342808,0.6150740595841373 1.623989923115251,0.095184864913349 l22.773762769442545,-3.4535983940374546 m5.163947825291013,-5.100770910207635 l2.889013904258762,0.11720562843454176 15.972163744590263,-1.8238816991422757 l0.7288047195600584,0.12829286684399188 0.45972410669733454,0.35586883771619743 l0.11067256593698806,0.5581405157162204 -0.5489775162838846,0.6324900180334815 l-8.448032157533618,4.432192196999435 -4.710106895130055,2.325819367866294 m-0.7600860281786416,-12.342149032385352 l0.741064375876766,0.8698722218412749 0.31248655718466506,0.9508480467712661 l-0.027298658471056798,12.293519763195228 0.14120693643778084,2.191312986592008 l0.2578606890733251,1.8536727403593292 0.33051497914534406,2.6792273268285363 l0.6839269523152393,3.1033035055239115 1.0406226144412,3.4581009378758942 l1.3657491907517119,4.8689295331793465 1.0590963792021724,4.403692784320216 l1.0767204784966873,4.973653619328522 1.10059554763653,3.6750950717581454 l1.3400220459948289,3.64244748548167 1.6086689271407069,3.5489607462852284 l1.874113312386379,3.305823293252854 2.175158891809196,2.9963781447991105 l2.4944758153525837,2.4685519713864155 2.610461390862097,1.4380500447579936 l0.7388948439128507,-1.1583315120601305 -0.07112464790772567,-3.6729640159212664 m-6.2947133770476205,-18.779708851318993 l-0.22387102253844737,1.8143127171146838 -1.217535234090113,2.117648129859165 l-2.1352939881619117,2.8136340933093638 -2.705435557323213,2.7216320950852135 l-6.221681865946547,4.504684040956952 -6.97622498447676,3.693291583600523 m19.982469723604073,-30.18988049843268 l3.916143527466745,2.2476013404378268 2.261621458605493,1.859761938022091 " fill="none" stroke="black" stroke-width="1" /></svg>