<?xml version="1.0" encoding="utf-8" ?>
<svg baseProfile="full" height="113.70840383720714" version="1.1" width="98.30395440305332" xmlns="http://www.w3.org/2000/svg" xmlns:ev="http://www.w3.org/2001/xml-events" xmlns:xlink="http://www.w3.org/1999/xlink"><defs /><rect fill="white" height="113.70840383720714" width="98.30395440305332" x="0" y="0" /><path d="M25,25 m0.0,0.0 m15.26699910495878,11.601860426180926 l0.3606908932568161,0.1439801354273539 2.2704474010037434,0.21603452511379426 l21.631148875357926,-2.0676024690205232 3.6932937931955356,-0.15539912620272273 l2.145107301567907,0.24452455978803583 m-23.684653674043464,-4.71115673496479 l0.8296952576669033,0.7987894467113239 0.3018625566953045,0.884457134476826 l0.9880711253341945,9.83468932558492 m12.08482753204907,-12.596583860964971 l0.25789209253118794,0.8685957885617102 -0.022025672872928073,1.0619441228402449 l-1.6859076818172902,9.60692632331283 m-7.162721178436202,4.805090683845865 l0.019151265057478183,1.290835230228576 -0.9288817243651165,1.4090263476019174 l-2.0437141229548685,3.9025208226486017 -1.9779873144614393,2.9636579368874414 l-3.846931976159909,4.3580287038188334 -2.50148707419536,2.1062000967243963 m10.099973368976961,-10.246033070266124 l2.2838359770499346,0.2466204876453205 7.647316147082428,-2.4577432272344395 l0.5107604303050425,0.2743705032727403 0.21233471744640992,0.518610084505998 l-0.038100071708171424,0.6517429943415594 -0.4390506369935891,1.969025130740684 l-1.2536198664572098,2.9531922469128538 -2.0154740697556535,3.586563511437076 l-2.652950771195464,3.86712657898438 -2.2197714869524945,2.724416807506758 l-2.488376717767801,2.5880887896716285 -2.7445476678101377,2.35695638490307 l-2.9172306743600562,1.977573885842401 -3.031719659500516,1.5743205148808563 l-2.2993972959366724,0.7613161682275283 m9.565705834154574,-18.801712150136176 l15.734328710509955,15.245128328667843 2.2731039856350623,1.9742530208415991 l2.1900339793270884,1.3906286278762963 m-17.866165322960537,-2.932140002190949 l2.1472046226333426,1.0356880498621495 2.1802264691857043,1.5870645740429137 l1.7219166573292133,1.6697488630713948 0.7934100960777729,1.1930784871745779 m-9.408888573765172,10.703963273557028 l0.8279333058922514,0.7152001031428199 0.8742345027450168,0.014935451324752469 l0.479359455665144,-7.035880434593864 7.707237783315561,-7.179014250180362 m14.435454395517079,-11.62417989935297 l-0.16094256194733456,0.8900160366096912 -1.1840950321199868,1.2088139590824527 l-4.035636398950611,3.134772742883011 -3.9503083234953134,2.3000263662414846 m-1.4305822302539455,4.953706601219959 l2.7632462398095394,2.076712485242394 3.013137361461525,2.9301269424486702 l2.214290311053769,2.9095678870941497 1.2259209901008745,2.43273514482508 " fill="none" stroke="black" stroke-width="1" /></svg>