<?xml version="1.0" encoding="utf-8" ?>
<svg baseProfile="full" height="113.60729487308006" version="1.1" width="104.13812496761639" xmlns="http://www.w3.org/2000/svg" xmlns:ev="http://www.w3.org/2001/xml-events" xmlns:xlink="http://www.w3.org/1999/xlink"><defs /><rect fill="white" height="113.60729487308006" width="104.13812496761639" x="0" y="0" /><path d="M25,25 m0.0,0.0 m13.57864257799803,13.43254939231218 l0.4177354374958976,0.14580281784118876 2.4489667732006515,0.10280285359699626 l22.997161947058338,-2.4113122160389664 3.536181330870867,-0.16533967321904827 l2.0898213129429455,0.22984989951038579 m-24.47823350270916,-4.297331951506778 l0.7849145893001713,0.7921842744341148 0.27416974926390353,0.6892002829173333 l0.9851500624737342,9.398145217032683 m12.62829473007376,-12.277457179655983 l0.2753316077805994,0.8637586877228448 -0.031376555675850896,0.9976910412005676 l-1.8023902202947961,9.499664086940909 m-6.73508526411684,4.704671441507706 l-0.013084349087139326,1.3273602050085815 -1.0619637440408969,2.2045447966760015 l-1.9275415517657952,4.249881204076818 -2.2036065609551234,3.7050164959463916 l-1.9074744560940837,2.5739025504208644 -2.246590424453381,2.489002274105982 l-2.561844493606368,2.2341059678946777 -2.2270534717724533,1.5072405825632065 m1.5915944677944607,-18.071975063590777 l3.801452826863486,0.25876803653618097 24.48449802127263,-3.1860576213969063 l0.9281485528391155,-0.026287091120917372 1.1062338136041572,0.358518450213653 l0.4484959707164631,0.5078410714946251 0.09645150513572125,0.6240495336693633 l-0.16060011365029297,0.6867348609002536 -3.9106695215378675,7.518063332407158 l-0.3250759716713695,2.121112987390217 0.4070687078503522,0.8856868552299265 l0.9322086217160122,0.49374192905670455 7.564183396654546,0.216940037145358 l0.9936990659184755,-0.3318910254785365 1.074585977563477,-0.5010571303455293 l0.6263309959698163,-0.5955955127529262 0.36733692463341727,-0.8379808637922823 l0.16460489759774782,-1.5374109442693036 m-33.86226504131239,15.663100656477344 l1.4574349725035989,0.2694490349469478 1.9498222046654712,-0.0032939906428996876 l24.32404634185365,-2.645517377063247 4.855155756702479,-0.20909707908647746 l2.403257070046213,0.29850636861741575 m-17.801702843853853,-7.301765553809712 l0.6736920345648968,0.8596781665901835 0.26602328992160246,1.465395966000424 l-0.054094088801828706,24.631703788465177 " fill="none" stroke="black" stroke-width="1" /></svg>