<?xml version="1.0" encoding="utf-8" ?>
<svg baseProfile="full" height="118.05543169394385" version="1.1" width="107.91588822668436" xmlns="http://www.w3.org/2000/svg" xmlns:ev="http://www.w3.org/2001/xml-events" xmlns:xlink="http://www.w3.org/1999/xlink"><defs /><rect fill="white" height="118.05543169394385" width="107.91588822668436" x="0" y="0" /><path d="M25.731023210324196,25 m0.0,0.0 m13.198914904957803,12.335237515544982 l0.03809235927690019,0.3630516588714253 -0.2422772403431556,1.530624805879775 l-1.2305270512662791,2.2535414140715204 -2.1209437677513887,2.936089358613011 l-2.7155382895844093,4.0449857940025975 -4.045938378559141,2.94636396742733 l-3.6128057470545287,2.185658183364102 m14.413685019888613,-12.384604435228008 l2.891679851701022,0.9949481085359025 3.085273164002649,1.5112367772810231 l2.6045545792571656,1.631151637106343 1.828138536718004,1.3269389189961673 m-17.81098687179501,4.944145468135928 l2.775704896551004,-0.02692154591441758 7.220485445426665,-1.0634187814586211 l3.9911384827622802,-0.23988042312958452 m-18.699368548949266,8.643541509638341 l2.748178993590425,0.2159960098447121 15.255719848284649,-1.5532119135686369 l3.180316802616591,0.021784330877785182 m-10.294503211019618,-4.855537126039362 l0.4780392194702601,0.3603980791245205 0.34742750227409364,0.8794489651050722 l0.2325461747043549,17.815940142146367 m-10.851811630268754,-8.129758815948524 l2.3363336316824554,2.5936448620402968 1.6969557261461645,3.131816424036975 m14.795863549016884,-8.47513592806797 l0.20753234552494618,0.8692027539128364 -0.24411314655589092,0.847924245280016 l-3.770297184055203,4.516227454039931 m-16.07603875597351,7.7679289238109 l1.1699496814261734,0.5074877907295821 1.7327047563723001,-0.008602984893243449 l16.85637180778936,-5.7522392558675195 m6.881465477967241,-22.539797241720073 l1.1279860335116842,0.21999957176187163 1.9412109140421812,0.002689633447204092 l20.290209284597083,-1.7307904690526812 1.067272561929515,0.0736253056943999 l0.6069966446784902,0.2765333941485156 m-26.20492504107151,8.047389641094549 l0.7111293323176372,0.23625219478819878 0.9729623637475959,0.042974809922255386 l24.72774044786711,-1.9719226872242956 1.0883520842208187,0.17705746421316912 l0.7261670573200663,0.2870200694018109 0.33937445015052087,0.8818408254698452 l-2.2775546350920526,4.671899244094537 m-23.91894894355196,2.0313615043787543 l17.939171123348565,-1.544323685200887 7.772440564150595,-0.39877511527117276 m-27.10584462991234,-4.385377736038867 l0.3158325088718911,2.3226497628135747 -0.4191203722560497,5.674747048848517 l-0.6861337692949939,4.476209338300308 -0.8735107761654607,6.4602368516229145 l-0.8884155178033657,6.8823190946139885 -0.6595524612576862,2.9926664193274637 l-1.2031325939748643,2.605781270667573 -1.3260427086214357,1.6098583963930413 m9.066039548326248,-16.8155701047673 l0.6440982436988335,0.2331895234080574 1.5092830367113341,0.09992476980420176 l20.54760214837986,-1.440387513414705 1.6955224597480334,-0.11344821729666202 l1.4067327235119889,0.19458013697078813 m-14.872715293535911,-4.926421995854972 l0.5190644121746257,1.0324911675469777 0.09861225869044143,0.8056547804766861 l-0.04326739979591689,10.483271842542305 m-9.989340432683147,0.6266972047134662 l0.6585059885380795,1.2977505117996158 0.18418381689921873,14.056603242497786 m0.06009080797304834,-14.815861518817137 l16.483388173970056,-1.2581623329101757 0.7142431559323632,0.10773487630253047 l0.9511497335493166,0.9635096381976788 -0.42969577929755953,15.435746887948637 m-17.80561762907895,-9.620864329827166 l11.463003555355181,-0.6038214784845539 m-11.677148597481107,8.336502735421849 l16.862984445904985,-0.9072882444395782 " fill="none" stroke="black" stroke-width="1" /></svg>