<?xml version="1.0" encoding="utf-8" ?>
<svg baseProfile="full" height="112.99371370513694" version="1.1" width="101.42992124928247" xmlns="http://www.w3.org/2000/svg" xmlns:ev="http://www.w3.org/2001/xml-events" xmlns:xlink="http://www.w3.org/1999/xlink"><defs /><rect fill="white" height="112.99371370513694" width="101.42992124928247" x="0" y="0" /><path d="M25,25 m0.0,0.0 m33.66843059993881,2.621162883436903 l0.03454188366015255,0.40882330971358527 -0.7000358902240986,1.9524643598105997 l-1.6146711412114303,2.5832988557776306 -2.1707112991401307,2.3787141507773146 l-2.740362207775349,1.9478613491966594 m1.647149599068552,-7.056177132921866 l2.032734516728068,0.783800653540978 2.0687489073050105,1.2703250172314409 l1.782698305451178,1.5232801950100372 1.148286034681645,1.5094779823403195 m-0.3732543170231032,2.467372674815599 l-0.04246629011822167,0.7796657481058492 -0.41513572517174857,0.8115504885082027 l-1.719860833987353,2.2291175225980395 -2.7742505451733495,2.538870120594022 l-2.9163181506373093,1.9259465061799725 m0.958979865748481,-6.70843151005704 l1.9327005556392545,0.7388323308087746 2.497828773036063,1.6615418079679223 l2.147674172486386,2.0290686542977006 1.4167431020606736,2.0096860807294408 m-13.432293228988685,-16.632544416912943 l-0.024527592564618367,0.5273628098601121 -2.296056452800678,2.441430828285932 l-1.8101371362213914,1.327033751447009 -2.3505332442699585,1.246752704094758 m-0.7019737833634784,-0.31315440258935945 l0.7263580778201341,1.6571215770502057 0.6248734768596005,3.6238569166632604 l0.7505244679167916,5.533050828366035 0.4678146831321934,5.255619069466688 m-1.1522133746065861,-11.497130478836972 l5.031089573025678,-1.30666955985998 1.81585383342044,-0.07899023810397728 m-6.214176580118297,6.05376591720485 l5.039189891652674,-1.003492985284351 1.5613731013176746,-0.01827116917561033 m14.890165685478522,-11.112930017936261 l1.6586031512013077,0.22187176618379023 6.388988604092045,-1.367019578519391 l0.9572720725981682,0.4118845790981257 0.12876138777819657,0.4740194276628741 l-1.4834139606273822,16.131821134703763 m-7.752358183709427,-10.274556228886322 l1.3686526737207687,0.23912141190141392 6.972724742443322,-0.7447458731991248 m-8.439134383808396,5.546886343218312 l1.3559883162446797,0.24390949853559585 7.0297541714112475,-0.7340767712470883 m-33.368517608265066,8.677546594461212 l-0.8618694531695253,4.969531659699187 -1.641602473036226,5.120631403143927 m2.4735882452712095,-9.273041540830885 l30.330940057557257,-3.339387960958411 6.194536020059352,-0.3559455803044196 l0.9674757470909585,0.34776922475243083 0.3547508093977921,0.5763595070690453 l-0.12214894333941739,0.7352704999404243 -1.1074846860320227,1.641917096283247 l-2.103401649504861,1.977764335399927 m-25.422716886711232,2.51496366762517 l0.46152417882720875,1.6101906548126588 0.2943431128039467,19.289627144921095 m-0.38725774650789085,-19.491317942674144 l16.380214147625722,-2.1313464321800404 0.8179656755579204,0.06407555998735304 l0.45228596630615614,0.30229882773033023 0.2994066182882395,0.49905097735006493 l0.19877908649920167,1.4068129485264926 -0.31689764348924826,18.003479861619788 m-17.642964385075796,-12.510211786270853 l11.557432411927099,-1.6923184072751902 m-11.39626688941541,7.676610364561426 l11.481882304205799,-1.5405967717707836 m-11.75639184551295,7.9527031999366855 l17.707806746335237,-2.352720504030404 m-13.603528738556067,3.6788537201759817 l-0.061444104248646686,1.1257871139745312 -0.7434672794795973,1.4103202636340242 l-1.3655845162510076,1.8561103940842723 -1.9351882197263637,2.072061748820197 l-4.194803319772157,3.408427116586426 -4.638732782806865,2.504257854682724 m18.96211689432787,-13.452915241794656 l0.4130369130094034,0.8046866336077277 0.19146708434183665,1.0228449247295628 l0.057391510718410935,6.354913959269154 0.27346890991221795,1.3704862453932014 l0.7504923779464584,1.286784548629033 1.1871305085940478,0.7952745022229764 l1.674032730564416,0.38580362367084453 2.9273267824288762,0.0893010515456954 l4.481862487981451,-0.1763276777757134 2.575144085952777,-0.4243405518846169 l1.1789832685804331,-0.46011249505627 0.7359008657909546,-0.7063641516888145 l0.28826748081949294,-1.0861920632527613 0.0033715909108747045,-1.5432738097801142 " fill="none" stroke="black" stroke-width="1" /></svg>