<?xml version="1.0" encoding="utf-8" ?>
<svg baseProfile="full" height="100.3919893923552" version="1.1" width="103.24210159852825" xmlns="http://www.w3.org/2000/svg" xmlns:ev="http://www.w3.org/2001/xml-events" xmlns:xlink="http://www.w3.org/1999/xlink"><defs /><rect fill="white" height="100.3919893923552" width="103.24210159852825" x="0" y="0" /><path d="M25,25 m0.0,0.0 m20.913193378066694,2.273700899827896 l0.05232899500095416,0.503405626916125 -0.2019972585246546,1.0811234285206133 l-1.1367278584710712,1.8775104156571323 -4.158006213058159,4.217714517941599 l-4.61421971589807,3.1880977517357514 -5.2757114972454175,2.453672244716929 m1.6225165583573464,2.050732278626806 l1.2925519180104907,2.8964981600435014 1.09497033339652,3.509244734923859 m7.017842267128836,-9.534922381899701 l1.594886756893286,2.5724080268536884 1.0313413852216606,3.694541344331213 m8.858591720255525,-8.902982745768412 l-0.17799373911235572,1.5750066160282319 -1.3288550646627963,3.0767839867260003 l-1.900646505512711,5.902349000427871 -1.5374384351219619,4.153364354179325 l-3.855613627464603,3.7204807780357916 -6.074719446916849,3.590350209249469 l-4.4806490736703175,1.9962322842469475 m12.44844646499348,-8.213641553978558 l2.4775216721476756,0.9719254886397397 2.4259072667542005,1.6659303007612354 l1.9331818680174933,2.065026492127414 1.2982413936412467,2.118977879401762 m4.835698471836762,-25.01963927106725 l0.6118386131639699,0.41626631976309425 0.6078315425476838,0.2311465598508703 l13.114119632026728,0.08130983723712845 1.2607933520075072,8.765538156911143 l-0.5348626557783078,7.124641637374132 -1.0806774256778566,6.249729952195683 l-1.5235910115822344,5.3222551301559005 -0.5597692745101943,3.2474944881418955 l-0.980471794419099,4.212819179920491 -1.0630627734421583,2.755207630746675 l-0.6088843157463756,1.2025980017045803 -1.1698685870443533,1.1829813445022486 l-1.1430246600000817,0.11611028664636698 -2.4457781566455425,-2.1271311695731074 m0.3456775447669267,-32.31992698583961 l-0.06816682294025762,0.7654372776916643 -0.40164368377692095,0.9555669235984346 l-2.599875216720183,4.617408727267778 -2.740380412188702,3.9657712955923423 l-3.769259567733048,3.524920556666245 m17.484674283409216,-6.8768950312725705 l2.043826995589996,1.8868341292772133 1.9916195751176013,2.45068880890524 l1.583220087835209,2.7586433413211924 0.733174316205523,2.0756179397879544 " fill="none" stroke="black" stroke-width="1" /></svg>