<?xml version="1.0" encoding="utf-8" ?>
<svg baseProfile="full" height="96.94003360871159" version="1.1" width="97.5966289722616" xmlns="http://www.w3.org/2000/svg" xmlns:ev="http://www.w3.org/2001/xml-events" xmlns:xlink="http://www.w3.org/1999/xlink"><defs /><rect fill="white" height="96.94003360871159" width="97.5966289722616" x="0" y="0" /><path d="M25,25 m0.0,0.0 m15.025670790723826,9.543059533053523 l0.40236608253961065,0.1538008192541632 2.486270446126944,0.16109142056464512 l23.66544622620656,-2.1634699981985825 3.7265802885429724,-0.15634516768632464 l2.2902951381216816,0.2148572895944636 m-25.031928099669393,-4.134347672348649 l0.8376386177398477,0.7781355980927481 0.3471150783612526,0.5779495437055293 l1.0697129049017033,8.610341628061548 m12.220923022852867,-10.927900987157797 l0.2767631197841114,0.7947900246368819 -0.028754189212459886,0.8596564997370648 l-1.7536379456175313,8.238481152481798 m-15.04230904240513,4.309943277641859 l0.6972827603607912,1.3814666436277339 1.3849119008140727,9.04587079780679 m-0.9521287704091628,-9.714403077807576 l15.282206486159374,-1.8435215011487198 2.0541013113900064,-0.11839006373494139 l1.2031092954788347,0.18400758945366288 0.9268217198893864,0.6306568386753388 l0.25090337410673363,0.5129619356713293 -2.0689819123387965,1.1871234889722397 l-2.191390076418994,2.822276448888321 m-15.630764969154939,1.7650637386599188 l17.189860376357217,-1.5234143834254716 m-14.288493377844171,6.3831982134948255 l8.300977473480803,-0.8610226333931629 5.546915495944958,-0.41169575617732823 l1.9245144433073416,0.0770825751942007 1.057572763776991,0.31280048734783117 l0.6400660312052645,0.7517651301771007 0.04694903333402242,1.1788426026235173 l-1.6341354286786494,8.701585953316506 -1.2246035153387897,3.884584286133158 l-1.3458667779485673,3.4066636224865374 -1.110278185119387,1.7705224480475923 l-1.0243411656139996,0.5559652623893016 -0.8637947057019704,-0.3649345749666541 l-1.1352992808161866,-1.3068713502103528 m-1.4348303998120548,-18.327676151924635 l0.011499650523336468,1.2513535222227172 -1.104086304750882,2.4292795136454974 l-1.8301622220507754,3.08055804791783 -2.2072839005900238,2.892323904624371 l-2.0060124189379565,2.116794001132314 -2.344676538609225,2.041548999165488 l-2.737294933720377,1.977476113823865 -2.232416403571923,1.2641286652133281 " fill="none" stroke="black" stroke-width="1" /></svg>