<?xml version="1.0" encoding="utf-8" ?>
<svg baseProfile="full" height="109.92683303472069" version="1.1" width="102.868659110888" xmlns="http://www.w3.org/2000/svg" xmlns:ev="http://www.w3.org/2001/xml-events" xmlns:xlink="http://www.w3.org/1999/xlink"><defs /><rect fill="white" height="109.92683303472069" width="102.868659110888" x="0" y="0" /><path d="M25,25 m0.0,0.0 m26.700113327057966,4.099439734701144 l0.4618202574102471,0.22982105260539598 2.5261736792588807,1.6829664464570377 l1.4769020374242918,1.7077904484772872 m-7.730002964492582,3.102825375789197 l2.733447160557334,0.011087108870009311 8.15985146177996,-0.849318917341727 l2.7654223122191626,-0.021277782290377918 m-11.400267253590531,4.997274788364384 l2.2134448837854332,0.003561648366146666 4.635223597823102,-0.5391403835880137 l2.408206813291412,0.032558583162728465 m-9.558123444568382,4.153705459314476 l2.048040071389871,0.017663282227179406 5.10641165393178,-0.7251187114437598 l2.1606402293487528,0.0144709629765816 m-9.671140904095864,4.422396803349538 l0.4660571331734194,0.36787206473693645 0.22811733388342395,0.7736579531281286 l0.8746258635279169,5.151027459933892 m-0.38857852539150484,-5.596126007282056 l8.36328431245943,-0.9880486560693045 1.053983897398079,0.09091449423489588 l0.29749565748415857,0.33691925498361736 0.03565189452231946,0.3998522435141936 l-1.398957316468127,4.231970270228294 m-7.34410117882911,0.7749921351528152 l8.023292883754236,-0.58851953499302 m-20.763034395153397,-21.764535588330098 l0.142668856926883,0.9500337188641734 -0.22716881859653654,0.549607062341222 l-2.075920635332841,2.976565941357409 -2.1256539710584996,2.4299914521188657 l-0.10691672638779082,0.6899570806398299 0.26245915329924724,0.3288066976494398 l2.795164995350383,0.747403930057759 1.8704348971709333,0.909478941885448 m5.1487581402221965,-5.991944034005141 l0.028063821558424695,1.099598634430584 -1.5436452677276258,1.8406519592950876 l-3.436443981618667,3.4217507009907715 -5.5324837497873975,4.977804157535355 l-0.32807171448061373,0.49558070928354153 0.46941413490441425,0.372048432860886 l0.6806966383578748,0.0159226465056798 10.490700769034442,-2.1904456547877027 m-1.6114798488635766,-2.3294288345148115 l1.9219967070507376,2.4246197022688247 1.16655890750849,2.5980275212331314 m-6.9380550110396815,-0.1819357678325964 l0.42382738172849527,1.3333645162062038 -0.07357373821394325,8.871336682142015 m-4.041650743973677,-6.993215220096698 l-0.006632252805527888,0.7542784155032672 -0.3103882537718969,0.7463602446345899 l-3.596890877219148,4.6141524103911 m11.995013172944512,-7.156294441313658 l1.5705853775225787,2.0113350260758063 1.5155808672349662,3.62173276090328 m22.44891727250783,-24.39635298611352 l0.08299455730313358,0.8536346247496263 -0.1863363174275847,0.4155116203628272 l-1.9712836650281356,2.866025322360315 -2.7635015160159337,3.07573285807631 l-0.17103758950613848,0.8587659070820802 0.20974934772034037,0.3259535027667904 l2.4071373293587595,0.8664226378108926 m6.287355361675313,-5.890564297083148 l0.014862605610265391,1.0463802336614516 -1.3453167255614986,1.7181727119888857 l-4.266281680445141,4.490906218076687 -4.374351854315319,3.86964226103304 l-0.29950770972228014,0.5750306684019874 0.396263864742241,0.3311203131522643 l0.6274505132688469,0.03016828005188924 10.654339345875195,-2.0902769205000755 m-2.0449738606055323,-2.4352237248442754 l2.12300648205632,2.2406747495802524 1.4099914828411293,2.563693331149274 m-7.6596833598240694,0.40400905507666773 l0.4082403812001172,1.3332896888931334 -0.07025645736848488,8.224563051363784 m-4.016621533682223,-6.790192110670128 l0.023833708156696224,0.7120395973220258 -0.3036489336654363,0.7660716324142905 l-3.4559562761476585,4.695963826572817 m12.42517246470992,-6.105826457558414 l1.8211486246443416,2.0459304416340878 1.4460045397041676,3.072525332172061 m-36.100990169007,4.866816218070416 l1.3830410616794242,0.6894534679945371 1.4992123547898453,0.1275597787431371 l22.8143665020002,-2.472387286692638 0.5909961704948786,0.2732164186035545 l0.2949382226209303,0.4806885750644778 -1.7375437903882318,4.842660281610456 m-22.92525851144008,2.0876444367223344 l24.552447109463788,-1.8905903899246714 m-25.60057332218693,0.7374979580290925 l0.40212518373285105,0.8821149472417386 -0.2724322893644828,1.6885080872039882 l-2.1315714643011088,6.442634595730998 12.259008860738852,-0.2021233228872641 l20.78833995029177,-1.1372800333806836 1.3488056856714536,0.19523825617646626 l0.9992766322720515,0.8143253893644584 0.19233733523731564,0.9133501014574104 l-0.19002038635057894,0.9500596089945884 -1.8767696592074627,4.230318378728205 l-2.234456733962372,3.839465725089595 -2.259925507608864,2.334475458526058 l-0.6340122698546654,0.09156763341136202 -1.1263008350378738,-0.4167855421554326 l-1.575285300481079,-1.8310343345888005 " fill="none" stroke="black" stroke-width="1" /></svg>