<?xml version="1.0" encoding="utf-8" ?>
<svg baseProfile="full" height="108.74696387909353" version="1.1" width="109.49251405894756" xmlns="http://www.w3.org/2000/svg" xmlns:ev="http://www.w3.org/2001/xml-events" xmlns:xlink="http://www.w3.org/1999/xlink"><defs /><rect fill="white" height="108.74696387909353" width="109.49251405894756" x="0" y="0" /><path d="M25,25 m0.0,0.0 m1.9394312798976898,3.302471935749054 l0.6697750836610794,0.08142540231347084 5.492395758628845,0.04404822364449501 l37.90240287780762,-3.1522762775421143 10.53667664527893,-0.12224574573338032 m-56.540679931640625,23.119821548461914 l1.2778446078300476,1.8915057182312012 0.627739429473877,1.780874878168106 l4.817827641963959,31.80133819580078 m-4.677642285823822,-34.149343967437744 l47.785277366638184,-4.107414484024048 5.366188287734985,-0.15596134588122368 l2.586841583251953,0.9170966595411301 1.5080922842025757,1.8615514039993286 l0.20034343004226685,2.522939145565033 -6.232662796974182,30.730974674224854 m-33.22915315628052,-50.993967056274414 l0.660838782787323,3.916007876396179 0.002421294921077788,7.393086552619934 l-0.5132146552205086,6.396611928939819 -1.1539342999458313,6.0435521602630615 l-1.4917173981666565,4.492326080799103 -2.0852090418338776,4.116900265216827 l-2.7613744139671326,3.675176203250885 -2.56327748298645,2.4266867339611053 m24.500110149383545,-40.33507823944092 l1.1436500400304794,2.1275444328784943 0.27947235852479935,1.6918112337589264 l-0.3602362796664238,23.873069286346436 0.2086806669831276,3.4770792722702026 l0.7253900170326233,2.2269922494888306 1.5496286749839783,1.251484900712967 l3.879263997077942,0.6248438730835915 7.487742304801941,-0.12398527935147285 l2.205824702978134,-0.34602049738168716 1.8575575947761536,-0.7338770478963852 m-46.18852138519287,18.352715969085693 l45.52713394165039,-2.1102458238601685 " fill="none" stroke="black" stroke-width="1" /></svg>