<?xml version="1.0" encoding="utf-8" ?>
<svg baseProfile="full" height="112.57944624425865" version="1.1" width="100.76301202944589" xmlns="http://www.w3.org/2000/svg" xmlns:ev="http://www.w3.org/2001/xml-events" xmlns:xlink="http://www.w3.org/1999/xlink"><defs /><rect fill="white" height="112.57944624425865" width="100.76301202944589" x="0" y="0" /><path d="M25,25 m0.0,0.0 m29.76045177204129,3.404176722867556 l0.399099975926793,0.4062995918040811 0.5318885208885896,0.9442193132172456 l0.10067732737369453,1.059995669926559 -0.05394793810275461,5.242027395392261 m-16.00792789590528,1.4152071052567987 l-0.9492661020603338,4.753692215091311 -1.7156065035871115,5.123168855759164 m3.092686668297025,-8.520848910108239 l19.026475330505612,-2.434183337532382 11.33642674518662,-0.9128308826981919 l1.3857709597851458,0.11720885895385898 0.857441806938421,0.4004393730718703 l0.31774507093715776,0.6186828251293388 -0.5592164486689667,1.5587413921334194 l-2.5015680975491366,2.546928369038682 m-24.011749793463313,3.851629007070677 l0.1572351598917488,1.4899403735716237 -0.30243986652965416,1.2648079271454078 l-2.2993527588967235,5.884271323293602 -2.7733533981387564,5.335155915779064 l-3.502023478297723,5.628863024847768 m7.942160729862971,-12.625473899049933 l5.095769991096973,-1.2218414883804816 0.5129694390145018,-0.005752310555563993 l0.43070588346148536,0.2815706661319539 0.2541562618243393,0.5171818420664547 l-0.0008091259490083848,1.4660634715240106 -1.550305579563264,13.445900225180134 l-0.9967581663770189,5.267834947511357 -1.1404695708396801,4.4481060058747675 l-1.3020278481020713,3.7291205526155657 -1.6363989630385174,3.460243540295487 l-1.9656185503376207,2.7054010690373653 -1.9268378163381767,1.9334994929960527 m4.291618615795237,-23.935787948076353 l2.1806400083610153,2.3761577442226587 1.1512247498688661,2.176444850800664 l0.5107136608808118,1.6861584391836455 m10.934789077835688,-17.785821956043257 l1.7248925359896832,0.1440344885480491 9.943435994467661,-1.6616670959661377 l0.6333307213973486,0.14402016172632687 0.7147030293436729,0.818832789799781 l0.10706195489844905,1.4187669319658598 -0.6785806608827122,4.217183223759409 l-1.393441436273455,5.498352645404384 -1.471016587820913,4.588126717782475 l-0.6500501084701784,1.0184359495449422 -0.6152718776160615,0.15892991428660708 l-0.5530565249986493,-0.3166890834407566 -1.1071653308528349,-1.3598317069738188 m-4.996496896401119,-14.501382597506996 l0.3854198256767008,0.8918120209162895 0.1259820576189887,1.6628909844915967 l0.14159965474678016,23.87557890593982 0.4362152044843238,2.577358750582545 l0.925660880529738,1.4752363454575113 1.7682912584093404,0.9198507724593725 l4.23153916987534,0.3153811956786291 3.2603718607942747,-0.3489433460749937 l1.5054676543853935,-0.7190238040698168 0.7690098909311261,-1.1765047839668366 l0.3792512179671069,-1.833046980209662 0.10088868721702318,-2.7021410631826868 " fill="none" stroke="black" stroke-width="1" /></svg>