<?xml version="1.0" encoding="utf-8" ?>
<svg baseProfile="full" height="116.31156137164467" version="1.1" width="98.27077754724331" xmlns="http://www.w3.org/2000/svg" xmlns:ev="http://www.w3.org/2001/xml-events" xmlns:xlink="http://www.w3.org/1999/xlink"><defs /><rect fill="white" height="116.31156137164467" width="98.27077754724331" x="0" y="0" /><path d="M25,25 m0.0,0.0 m29.544286288845058,2.710017791524808 l0.014355456630616076,0.4126682109896615 -0.670728138331475,2.05443694407027 l-1.852186718108672,2.685927019914574 -2.495076816763214,2.514214593644568 l-3.106378627998481,2.0877068322124317 m1.5353255153069938,-7.362732710033515 l2.23114167952524,0.8751823449443868 2.248704688023625,1.4617298262499663 l1.871996732998267,1.707826147760401 1.228963670916864,1.7004324628217415 m-0.24140415802202164,2.405929333556669 l-0.058245721678836064,0.8254336417838393 -0.4318082781469921,0.8708163890573182 l-1.9074433832503197,2.3494505128639442 -3.0643261809745246,2.689608481541699 l-3.114646687952932,2.0825595026707235 m1.1106646011781334,-7.05713135507403 l2.105947162120378,0.8067268631673957 2.656055867681315,1.7281312497132497 l2.3116607146809915,2.1215976320501597 1.5448926542435515,2.1068843159128705 m-14.665633251647998,-17.617488991110026 l-0.017650872689684443,0.550066155358849 -2.473383879896137,2.599938437985452 l-1.9709350677727566,1.4124283135448847 -2.581527274184825,1.3110254857165562 m-0.7661674186381293,-0.24693346702153218 l0.8433226483941555,1.7592130749159165 0.7334048058271384,3.818953537878814 l0.8233558687917106,5.97256083109441 0.4963654606279924,5.705976037018208 m-1.1705346344339946,-12.511362631098498 l5.3228566661286045,-1.375119320208115 1.9404914603663415,-0.0798200059498026 m-6.5968280025782855,6.490373349693851 l5.329489326746844,-1.046624798782033 1.6750673020179656,-0.024054034328592357 m16.03725379687458,-11.789157563988264 l1.7886827778858507,0.23467624117692154 7.0122980785242035,-1.44344461259945 l1.027434077608006,0.41618685090004276 0.1423628685152207,0.49784215726147585 l-1.5731058661716861,17.088092558610267 m-8.296580792050161,-11.030370681377985 l1.4730124653946515,0.2564495977519989 7.497000589026516,-0.7713499522379073 m-9.129783467430718,5.8907504021437695 l1.4470223870882637,0.25732328521763403 7.669165804016022,-0.7570364880277032 m-35.417497317337045,9.264465460458192 l-0.9256262102653732,5.255624885122978 -1.7468823585949877,5.386310351002309 m2.7000906895386425,-9.760447259901191 l31.883910658723586,-3.5148185349849923 6.906373857862764,-0.3880771195652442 l1.0305385705424581,0.3658907965273382 0.36166347951000555,0.592180906619153 l-0.13655105684736968,0.7700612858475133 -1.207032278071828,1.7209177118983991 l-2.183378834111663,1.995964934419126 m-27.566553449551314,2.4217490680926774 l0.46978793347939307,1.7461235525019205 0.30707106751207885,20.185817147965015 m-0.3896712647492397,-20.603684427765707 l17.37167661833813,-2.235887937041301 0.8764440208116473,0.0647327305524213 l0.49715035521447337,0.32088643949346 0.3040434749504611,0.5286141038878504 l0.20587186479453143,1.4675656215468837 -0.3355397683536932,18.8922307723306 m-18.71813107176921,-13.131186666381248 l12.198635764974627,-1.809610893009025 m-12.034596133586303,8.092392756116174 l12.131511437688012,-1.6412819638972924 m-12.393950073964373,8.3546972152932 l18.71824616248619,-2.2995826816499276 m-14.229412144195443,3.716789428734728 l-0.05402948042353868,1.2068861298005562 -0.7819193684518329,1.4596864574095827 l-1.4408036568339484,1.9595493106229982 -2.020332246794467,2.2035635559657134 l-4.4270229062210475,3.663118111529523 -4.84247444303182,2.7138103212200204 m19.86442309700897,-14.27900790995061 l0.44194046413040977,0.8309250105168636 0.20760241272717592,1.0659429491503378 l0.0576724497972658,6.771208150938895 0.30943959025551415,1.4601927188077979 l0.805144823783173,1.3424398226135938 1.2631575077366908,0.8437901366776263 l1.7810953369131037,0.4170944987708683 3.0977689664935872,0.10798320532992671 l4.826378712539257,-0.1718052948785518 2.775507400922686,-0.45074334313729714 l1.222483870759519,-0.5007290184590679 0.7677157924789054,-0.776453261055651 l0.28981997761052464,-1.1903814114749964 0.0016825180651659694,-1.6561704932220107 " fill="none" stroke="black" stroke-width="1" /></svg>