<?xml version="1.0" encoding="utf-8" ?>
<svg baseProfile="full" height="87.63478469264614" version="1.1" width="94.88513747466394" xmlns="http://www.w3.org/2000/svg" xmlns:ev="http://www.w3.org/2001/xml-events" xmlns:xlink="http://www.w3.org/1999/xlink"><defs /><rect fill="white" height="87.63478469264614" width="94.88513747466394" x="0" y="0" /><path d="M25,25 m0.0,0.0 m20.90820993353147,13.229414198782253 l0.005526962633903747,0.36259638264262944 -0.2826650036615401,1.7589011094269458 l-1.0685079098508243,2.2180857144307233 -1.7184102293161663,2.4946130196255556 l-2.058655364230504,2.0074776985868703 m4.9930997161628605,-3.535419524044257 l1.754841752243629,-0.024047998604750723 m-3.981590865590357,-7.276736584840952 l0.0166477335386145,1.7483935354914006 -0.8758613565506148,4.9176255633668084 l-1.1755586299162817,4.634171066387725 -1.5039969557201767,2.20882981568807 l-1.2246052493788118,1.065616618667118 m4.416898954000618,-5.664011897262877 l1.0183361209098645,0.5788095024684612 1.1382452471856714,0.9646316906434984 l1.05446999517462,1.282775187748792 0.7045236176212316,1.2160232877440267 m1.9922672948884095,-12.83746207337399 l0.21069287645311965,1.1957842155905236 0.21091844199999016,8.000089264267716 m-0.1861655208265613,-8.425316704202958 l7.505388777758879,-1.091867737652349 0.6695527787116917,0.07405997287050894 l0.30524324964209343,0.2283731853741708 0.16478226028151494,0.33496789894932644 l0.010682494997373768,0.3881745856341585 -0.9832473127894571,6.2650675656137285 m-6.4173037014330045,0.9655426599355996 l7.017916105836872,-0.7562654452870035 m-9.619870376575063,5.66099260259731 l1.1532664900646739,0.6399017338933366 7.944990789613966,1.1640081140839735 l1.2674054353391506,0.557642487458004 m-11.793469369872975,3.2262296643899595 l0.3472094838379157,1.314247465199777 0.6065498353150709,6.062033456224275 m-0.46838926776266065,-6.641307242414431 l5.495578537487683,-1.1356703223647049 1.15343606467393,0.011567608440190055 l0.21039105808347144,0.6662789589990092 -0.08513788862918978,4.217972932911346 l-0.24005968227541577,2.2473663233472005 m-6.014374202140696,1.1146251352134229 l6.456487968687005,-0.8050492380258345 m3.956031587210858,-22.893397754552094 l1.21061962894931,0.30588962366456646 1.121626669774987,-0.05651702685003767 l5.711626380320354,-1.3623394768568053 0.42422766380913285,-0.027172608083976854 l0.341198380120651,0.2465428960412825 0.16781920300239425,0.40688781388015527 l-0.15739187537867086,0.49516894953820306 -3.6374929961919156,4.848245362383075 l-1.950878097608469,1.9591390658815335 m-0.1893514373797845,-0.4116026093184598 l1.5894704836059859,1.8879075202221642 1.0672252708401901,2.434306309943898 l0.5657080061404551,2.21012343661113 0.27330744057706063,2.909367605000291 l-0.19318234091835715,2.8903316765475005 -0.4936958245295907,2.0631163629253395 l-0.30927632394126353,0.7176910447523271 -0.6104399051490071,0.6777844397994556 l-0.38709538500796115,0.13186756555630486 -0.3591035514056938,-0.08827575360287443 l-1.2474633603251264,-1.1982482790672782 m-3.8875842757116783,-9.559350954524566 l0.9886512586233044,0.16119108017983227 1.2222020339878021,-0.08297386947438301 l9.529106777719521,-1.2971751991544447 1.103580973374444,0.18219111173336966 " fill="none" stroke="black" stroke-width="1" /></svg>