<?xml version="1.0" encoding="utf-8" ?>
<svg baseProfile="full" height="149.914900854273" version="1.1" width="104.9759295299441" xmlns="http://www.w3.org/2000/svg" xmlns:ev="http://www.w3.org/2001/xml-events" xmlns:xlink="http://www.w3.org/1999/xlink"><defs /><rect fill="white" height="149.914900854273" width="104.9759295299441" x="0" y="0" /><path d="M25,34.409341276685716 m0.0,0.0 m18.475297375790927,14.45849459125108 l0.3587026121483631,0.3588552062577675 0.4078418665293466,1.213114945890333 l-0.0011491335115869773,20.57436672949776 -0.40045916277688204,7.753668379268657 l-0.7448907866532933,5.961807935904911 -1.1278754547877232,4.81748840700488 l-1.3770441321272158,3.487597678660948 -2.14670733701248,3.7981757303282397 l-2.6809518511716703,3.309715238651086 m-2.875512278112741,-49.84600531805633 l1.7143415133544864,0.3593669777444829 1.943589141040021,-0.07462868188671687 l7.683839161045247,-1.508283600090017 0.9618091615393682,1.3955205627262102 l-0.7362303754735172,0.8324202474587264 -10.550193456514041,7.635253275018892 l-4.780155403924542,2.579865181604467 m-0.2592320347932244,-22.769132226342546 l3.4359301435844047,6.062076615022511 3.340322288281662,4.254067043196392 l3.6372126584934237,3.9108847442975905 3.5752453822711736,3.8114001748350743 l2.574590387796561,3.381523167266797 1.9304442262676407,3.1146044989123913 l1.5075787728248617,3.1302447626925733 1.242604634460952,3.3559471498351865 m14.484554180981304,-44.76775069363708 l0.5372786501132937,1.4610237615499702 0.05008943908907508,1.8644556585462062 l-0.6848119701140559,4.114423957193474 -1.530110985572143,6.370912393764279 l-2.4314229781504793,7.634327881715307 -3.0915769436208427,7.630870013884402 l-4.708542261249942,6.382691880554075 -3.2437219582254095,2.643327987962645 m3.9484759724109852,-29.867659966831283 l1.3223634584495392,4.1084143166591955 2.1635139674344237,5.744357871054856 l2.835129189177044,22.17556519692952 1.2074881154781045,6.522560142891661 l1.1224631568267314,5.1583059882149245 1.2521706977015385,4.738039946832022 l1.4231819585713785,4.647466902506958 1.6458771026795016,4.590477660305335 l1.8686623036850076,4.45456664833108 1.9890712569741464,7.072355179613807 l1.6344457410256565,4.84351810150408 1.69617143337537,6.580316907118805 l1.5760953115353045,5.130336622485726 1.6694525079666496,3.493886040265927 l1.2072355063998113,1.7850963802779352 1.0233583264210873,0.6352633809420875 l0.437742647570934,-0.053137999490627565 0.2780115364892269,-0.33489663654927243 l0.18433624795132836,-1.6841334811305109 -0.16653448213648578,-4.386530529804741 m-12.280835783664052,-33.923963440316776 l2.487615912849427,2.3696817590272787 2.0214393656526672,2.631903313505445 " fill="none" stroke="black" stroke-width="1" /></svg>