<?xml version="1.0" encoding="utf-8" ?>
<svg baseProfile="full" height="103.30959554685005" version="1.1" width="98.77205688630158" xmlns="http://www.w3.org/2000/svg" xmlns:ev="http://www.w3.org/2001/xml-events" xmlns:xlink="http://www.w3.org/1999/xlink"><defs /><rect fill="white" height="103.30959554685005" width="98.77205688630158" x="0" y="0" /><path d="M25,25 m0.0,0.0 m15.867731370475244,15.67587125835976 l0.447313860921872,0.10760014834393518 2.6308679576102043,0.09058400419382065 l23.777526391572266,-2.0495691009413277 3.8618403653362963,0.20962410563926384 l2.1867769403856983,0.2937742484877399 m-25.584968097485923,-4.210281815835262 l0.9447099488358244,0.762445982684695 0.3090972103968471,0.5989122843059732 l1.0176197439126726,8.400803484963287 m12.894154713072501,-10.586063615678892 l0.2648804187624325,0.7807069980354914 -0.059144328443283996,0.8379889978973909 l-1.9154907674390231,7.918961789321972 m-23.97987719801168,3.935962449988458 l1.639656741943114,0.19361758524418343 2.310759742051529,-0.09677674704585033 l27.52145957289419,-1.4463681047421384 4.094998767067236,-0.026692968621501178 m-31.35062726384039,5.555247779181749 l0.7812639348406203,0.7764728423898667 0.5097560211113596,0.7653092887742997 l2.033063804396875,7.880782443249907 m-1.7768332976129952,-8.713092940744874 l19.516618953477213,-1.530888765280432 3.835250834495366,-0.18587152201280946 l1.1324710632653263,0.25129690557373163 0.6109079845324593,0.5318590396309271 l0.08821393362146453,0.9090878409395514 -1.1875700059355814,3.6089461396583036 l-1.4855009431009447,3.357123538973187 m-21.02142010751378,-3.4527050555975127 l13.727223234451076,-1.36933373693399 8.696183203153232,-0.4943013291788596 m-21.3116064220861,5.6675257394434615 l11.968973533728269,-1.0114289098543472 8.055890012825564,-0.3656812973943161 m-11.276159614344243,-13.513814719788037 l0.5393289623732053,0.6689632619105177 0.23772610563342678,1.3285728832185697 l-0.01512414430757917,12.781211822419753 m-2.7688368369525937,1.2265425723807277 l-0.1423380062722795,0.922849068518751 -0.8936517462781937,2.377315249918667 l-1.399579855301161,7.057295887138453 -1.5582361510974085,0.4467163119837037 l-1.5370229837263516,0.3080720831999482 -2.9356873166752027,0.2858011435024099 l-3.278224063446596,0.16347550701520192 m-3.796280286313617,-9.247283254342397 l1.612634528977033,0.7184204849655231 2.086763908585252,0.09189926671375637 l19.135110389728307,-2.3067326022855386 1.196449333677126,0.13691905999419604 l0.28760140116516064,0.38888185203269476 -0.09453085346471793,0.5438632619923292 l-2.3450107334357595,1.6862187559207544 -6.128282693310678,4.347389173517041 m-6.9808713674086835,-2.3652778603490887 l0.7987818693838259,0.7115879995587279 0.32632684783679616,0.8447754697423506 l-0.06652920139371593,10.134483882552173 m0.4177689121194021,-6.232586398895544 l-4.551071059562575,-1.0917122886816595 -1.0620863203776234,0.40568053784227687 l-2.6671032745080225,1.8323762293347536 -2.95124684940988,1.2551662038050966 l-4.108088113790833,1.4841739601747446 m19.805862607304046,-5.876784201957004 l2.390631511299625,1.0223285204185706 2.9300851627746343,1.624445573782355 l2.5069009742111685,1.7732722956117626 1.4157374302077597,1.4826125616759245 " fill="none" stroke="black" stroke-width="1" /></svg>