<?xml version="1.0" encoding="utf-8" ?>
<svg baseProfile="full" height="110.39430436033005" version="1.1" width="98.87899453908682" xmlns="http://www.w3.org/2000/svg" xmlns:ev="http://www.w3.org/2001/xml-events" xmlns:xlink="http://www.w3.org/1999/xlink"><defs /><rect fill="white" height="110.39430436033005" width="98.87899453908682" x="0" y="0" /><path d="M25,25 m0.0,0.0 m23.195808505135027,4.391287934296108 l0.33098583032992934,0.3909592360156504 0.3998749065253361,1.5343573924546139 l-0.01453760000224281,24.60846468838571 m0.7442055291393731,-26.65961843042359 l15.66930753677351,-2.0343291096820435 1.411785881651978,0.005208178506207122 l0.9252255713640153,0.5714251935504777 0.3097493342435828,1.4840075510659936 l-0.05265557096747987,24.988251722545662 m-18.63139425343339,-16.843998441543672 l17.73768857076294,-1.824341309159249 m-17.56557754219055,9.689152813970818 l17.27975055562901,-1.6003344754020024 m-17.126057910153474,9.722057953850461 l16.99054315849243,-1.4538831954065181 m-28.173358462362067,5.278147085286065 l2.7771195511911015,3.8748478334625105 1.8844671535845086,3.9157744811533717 m25.510224129552828,-10.022187760085917 l-0.35440722796741625,1.2959224187943397 -1.5799448585320592,2.746049153165414 l-1.956844586670063,5.037078693014694 m-26.257514040234177,4.529520096969108 l1.860138120804699,0.34404053838747634 2.1848746765184,-0.026688306106839105 l28.732594142328278,-2.5929956476276743 2.646943437572775,-0.10233138076575218 m-19.542136083379205,-5.674988566074896 l0.5808165504359194,1.0598204335966417 0.21324717229950352,1.6069540889502343 l-0.020661918753348087,22.156673495186663 " fill="none" stroke="black" stroke-width="1" /></svg>