<?xml version="1.0" encoding="utf-8" ?>
<svg baseProfile="full" height="105.45320661298905" version="1.1" width="101.54684591554859" xmlns="http://www.w3.org/2000/svg" xmlns:ev="http://www.w3.org/2001/xml-events" xmlns:xlink="http://www.w3.org/1999/xlink"><defs /><rect fill="white" height="105.45320661298905" width="101.54684591554859" x="0" y="0" /><path d="M25,25 m0.0,0.0 m28.098266413105115,3.1506667559711965 l0.025974133530866274,0.4864650003136559 -0.1338095049327926,0.8275787739654691 l-1.017608547091629,1.6100354390559457 -3.5162659251017963,4.074107822361488 l-4.0878536034862485,3.318776395856745 -4.890823573175359,2.698020289172316 m15.307484492307616,-11.586129892361798 l6.963256460470879,-0.30730173372555003 7.0472019630891936,-0.8515192080135795 l0.697121273075804,0.26594829578872503 0.344445108649385,0.49754621814683836 l-0.057663932460578146,1.2405678325868998 -8.933306979123886,10.368075359056576 m-18.319274876277802,1.752923941331071 l0.7089749760318322,0.8205232684066422 0.3077300836013853,1.1154291793038824 l-0.49131599637853335,18.98369481566879 -0.5303093893105946,3.8783283206731993 l-0.85448861414373,3.39649840194351 -1.3103925391446354,3.188661693128864 l-1.9280918450232276,3.022502866122009 -2.145801626599607,2.3868405625892053 m7.2825282635495965,-35.15239982247348 l28.104682996919205,-2.1603192683376093 1.8827934541850406,0.15037838588847852 l1.2521520821589844,0.2943949597046181 1.124961857502926,0.8222289865676383 l0.616279309621172,1.8248931033392661 -0.5798592241799914,32.83376588051431 l-0.308143851181076,1.515604517829376 -0.4654755870676729,0.7983884570830148 l-0.6040224488990015,0.18803101553133278 -0.7091321622601579,-0.2584245865628222 l-3.72174625421016,-3.1350872141482165 m-11.637610567579264,-32.95792427742856 l0.5848650878117803,0.828706285910173 0.27414588928262523,1.7567764568119173 l-0.19171755375997523,16.101194292183752 m-15.02784469417113,-8.64954606563602 l21.891656761739668,-1.307838918427572 m-21.77915617543418,11.387487829636289 l30.60223956810999,-1.5971729292918102 " fill="none" stroke="black" stroke-width="1" /></svg>