<?xml version="1.0" encoding="utf-8" ?>
<svg baseProfile="full" height="110.8685847815127" version="1.1" width="101.58968268869258" xmlns="http://www.w3.org/2000/svg" xmlns:ev="http://www.w3.org/2001/xml-events" xmlns:xlink="http://www.w3.org/1999/xlink"><defs /><rect fill="white" height="110.8685847815127" width="101.58968268869258" x="0" y="0" /><path d="M25,25 m0.0,0.0 m28.500021987947303,3.458390508444936 l0.38511651593784624,0.4632858516615501 0.628596623409963,1.733966520142383 l0.0017743501811277721,6.773063481748937 m-21.83471109681661,1.9265232140228705 l2.1868021757878586,0.271070321086504 2.258145389168439,-0.02924592973455796 l20.04838361621136,-3.088815117706245 11.846938251346092,-1.5172289817394315 l4.772619479968679,-0.2947138145879862 2.795995395550522,0.4111733991275505 m-36.32828664319894,14.12942630342683 l0.708462669568467,1.1115622294703027 0.34389480241842146,1.4311713462273161 l-0.0007838376044986455,22.584794514768184 m0.7892134460092778,-22.831656729771865 l21.789249834516884,-3.0622150153511543 1.565932504610901,-0.020329326798043997 l1.1586105146458374,0.3927522494225403 0.7611343650393129,0.9993486694543676 l0.2206073227317898,1.4034201435795461 0.013364013257067894,12.392922404584649 l-0.3526157788164468,9.458722333934805 -0.204860564713357,1.3420108026602953 l-0.3972875472040806,0.6402270408931288 -0.5418556039984637,0.046584548257151276 l-1.3543448868776877,-1.0178949215717632 -1.5386508713463103,-1.7164371888333692 m-10.559451948660175,-30.518117184634495 l0.5627441407243744,1.0940105454672895 0.29184814830342487,1.9660824728677513 l-0.11385277822459859,40.934730090992716 " fill="none" stroke="black" stroke-width="1" /></svg>