<?xml version="1.0" encoding="utf-8" ?>
<svg baseProfile="full" height="103.92308071167153" version="1.1" width="93.27398832087452" xmlns="http://www.w3.org/2000/svg" xmlns:ev="http://www.w3.org/2001/xml-events" xmlns:xlink="http://www.w3.org/1999/xlink"><defs /><rect fill="white" height="103.92308071167153" width="93.27398832087452" x="0" y="0" /><path d="M25,25 m0.0,0.0 m21.66480415505564,4.2604760325564115 l0.4498818798875346,0.4581712739845712 0.5810499327076672,1.333083856257804 l0.037488486018904185,1.3898311950618474 m-15.327396762289048,4.241658584598332 l1.8759513451311594,0.05555426024757848 2.5033602855089696,-0.15717963364201135 l10.243443752168817,-2.312454018054961 6.9045980531896065,-1.3967446071272094 l3.5556964582340167,-0.386737558870205 2.1287072530324234,0.20501501967351027 m-24.210465602298008,8.176907139666842 l0.7109519557428393,0.6785610908151644 1.9504190118659448,8.697058988858327 m-1.6763228976954352,-8.888988068675072 l9.69194123220352,-2.237184296302435 1.418776268438643,-0.36494205989775114 l1.1351889352682354,0.8517393224997014 0.008255266242704423,0.6635385333206889 l-1.5408105644310515,6.108479504388212 m-9.301434056312983,2.0723394796558825 l9.335544743922656,-1.5868960450824654 2.069446499440155,-0.12807984239726614 m-13.040157228924274,3.595116508444578 l0.5541153009749625,1.3141910107097943 0.0488257276881757,14.923332452410621 l0.2672338475727155,0.6587340484298124 0.44601717756543746,-0.2802182226640638 l5.4710574704926715,-6.632578983570028 m6.276031081622461,-12.242209126713982 l0.09684929375160821,0.8642595506577213 -0.28850111901356984,1.1299792996212181 l-2.2578804816586606,3.6090176139872714 m-4.056602043355835,-3.1888995365583632 l2.0163218219830026,2.2330658714978866 1.7958766005864806,2.4733979133569965 m3.86545766283406,-15.387562758987814 l1.2949172615410616,0.2558560158949648 1.2884282496752955,-0.08088132345984309 l11.895342048968429,-2.1282319247276824 1.8827646627523278,-0.11803039433523158 l1.5088153547852656,0.37162292226149085 m-9.32606199596706,-9.538756088882687 l0.5229628301365096,0.8449898668634287 0.22825191400984257,1.6079304970427022 l0.009850970455107005,16.566862653908935 -0.5301800196145898,14.277963004409155 l-0.34657022751984684,0.9789478205127514 -0.4540321809637382,0.29921633334834097 l-0.5328478488877646,-0.19660546924685254 -2.044355041697856,-2.1422244063307003 m-4.9960474706432,-18.634044529140542 l1.772558163521384,1.17436410403474 1.5956085458343374,1.5322351438396966 l1.322230473955623,1.5854513396729881 0.9017222907670411,1.564192982473084 m-22.982859785963548,15.703738733696381 l1.2736363633593457,1.6742472109415136 1.255919460759173,13.521402426737751 m-1.1836939841643959,-13.706491360995864 l19.100965457917766,-3.0224937064211663 3.0452242897760375,-0.2933693066156161 l1.7864139176841576,0.2586897494008444 0.8288335739584891,0.5879027150377849 l0.5357938868769111,1.066362293037925 0.07619160899409498,0.7457347667861886 l-2.409250845054796,11.060600585768594 m-20.98364334105668,2.2343665585043695 l21.84787001024817,-2.3012534297681 " fill="none" stroke="black" stroke-width="1" /></svg>