<?xml version="1.0" encoding="utf-8" ?>
<svg baseProfile="full" height="102.86751568737603" version="1.1" width="102.72661323645258" xmlns="http://www.w3.org/2000/svg" xmlns:ev="http://www.w3.org/2001/xml-events" xmlns:xlink="http://www.w3.org/1999/xlink"><defs /><rect fill="white" height="102.86751568737603" width="102.72661323645258" x="0" y="0" /><path d="M25,25 m0.0,0.0 m10.54645760514082,6.037707930269414 l0.3531629246924817,0.2922145309159202 2.00439660782773,2.329915441818121 l1.2431230810484937,2.4710604686156166 m-10.970760527154264,6.0371853854757935 l1.4184333577176758,0.16158923457221622 2.636540427338017,-0.21812008464944055 l11.760760113722043,-1.5259666933914011 1.8009827253300155,0.03791874449166796 m-13.713301181502816,9.599094327869452 l2.3871053779921367,0.10291207003630773 7.569213906402423,-1.3597166922065567 l1.3198506759277013,-0.018935295927074915 m-10.883351495780795,8.735205776105785 l2.2089826708602773,0.13331688464514535 7.781732512913708,-1.276772951808614 l1.4000393543355762,-0.004567055156422732 m-12.547736837189102,8.780165234339611 l0.5889355824887929,0.884680356831866 0.27537858252708225,0.9864996704478881 l1.567678135366864,10.440199319855555 m-1.196301254472419,-11.482464310787629 l9.968149925435284,-1.7863332455821412 1.4988158119418555,-0.03980061229680665 l0.4725855056236931,0.26700802108906313 0.25647300714460336,0.570069155352697 l-0.057957535484365295,0.950129304190615 -1.652699278254156,8.165227282440002 m-8.96234524203465,1.7751412737481411 l10.003176511828261,-1.287817964597319 m13.822771636247143,-45.27561507282205 l-0.07589649330854521,1.4360674025501026 -0.44904431468169886,1.496180947719348 l-2.8132203696697937,6.554649524056473 -2.84835911529057,5.058223020119434 l-3.633556284956069,5.049824251369008 m7.060366357503696,-7.592822560781849 l6.373865329809731,-0.6329614083809771 8.963159867538595,-1.8899528856695502 l2.1487042023234157,0.025528313090462926 m-24.686424713120527,15.693927236187106 l2.1979025073103515,0.2906023017011285 2.072158229435038,-0.039166658817250934 l13.540734001842502,-1.5587019707715317 6.891173893723976,-0.5919647766406968 l2.823080470273785,-0.04463403620654397 2.261676979738593,0.30502052802497787 m-15.57459823824161,-10.664136414864185 l0.5492169157652392,0.8777377899508106 0.2956147904170191,1.7083611973599002 l-0.06215246252215695,32.90460345349443 " fill="none" stroke="black" stroke-width="1" /></svg>