<?xml version="1.0" encoding="utf-8" ?>
<svg baseProfile="full" height="109.48503219997716" version="1.1" width="102.92914438397979" xmlns="http://www.w3.org/2000/svg" xmlns:ev="http://www.w3.org/2001/xml-events" xmlns:xlink="http://www.w3.org/1999/xlink"><defs /><rect fill="white" height="109.48503219997716" width="102.92914438397979" x="0" y="0" /><path d="M25,25 m0.0,0.0 m11.367196499605642,4.349051274557829 l0.06368473239019351,0.4665405720852762 -0.26424405567485026,1.5839437254050142 l-0.9864881956791138,2.443362061943145 -2.999541978100824,4.88796346421779 m-3.775208245119117,0.7954981247999757 l0.654923393841411,1.864538840620582 0.9733781908763048,27.920962947465917 m-0.7053131500185019,-28.21376381322994 l11.843761820977404,-1.348289221268667 1.3669282010543866,0.300386302383964 l0.6365136387903982,0.8593542288468982 -0.4286495795140662,27.430501493964428 m-12.698229117916418,-14.590871017293287 l7.960450964205608,-0.7120493030138628 m-7.3853034019796056,14.233318405051905 l11.68440587865539,-0.794016036638511 m8.436373910270916,-33.35713324940266 l2.8761347300043414,0.1808040807232849 17.31215293021908,-1.6491993130351992 l3.474451662713477,-0.19587291574765123 1.8349721186372476,0.19179531880711484 m-24.732129963703617,1.7975000519369162 l0.35301977343864616,3.6188525610212117 -0.423384974515142,9.456652278872317 l-0.7099128190336471,12.748959882896903 -1.0273146944034672,7.571821977912384 l-1.3078051911675765,5.751823536095249 -1.3140627975848986,3.9718288173426943 l-2.299913239651427,4.797304671245637 -2.211813676227413,3.123462451410495 m10.800514924183055,-33.75110283256614 l1.8650931222542524,0.2930976778338833 15.360532405369602,-2.404552537848101 l0.9376129178969785,0.1303259675967101 0.9305727474332877,0.8791018652868866 l0.34906395130119106,1.499192747510208 -2.070186111148036,5.283183948730539 l-2.4629322666065345,5.127119338407781 -2.503805643999478,4.392823897894453 l-2.3495995273565184,3.1205316805731256 -3.109374292990549,3.844043433790495 l-3.611807350726584,3.8053443891892758 -3.9017387732679922,3.0224403405767557 l-4.26416950718679,2.3831248529619784 m5.583464913391319,-28.22925910515931 l0.8998000855238284,0.751078556395431 1.8584567369858347,2.2834018831363365 l9.5095064937435,13.215983043003426 5.110388256472496,6.57850935931372 l4.202392591641416,4.659726600627174 2.2263253456747694,1.509617375453692 " fill="none" stroke="black" stroke-width="1" /></svg>