<?xml version="1.0" encoding="utf-8" ?>
<svg baseProfile="full" height="101.01539907229056" version="1.1" width="103.8741741168291" xmlns="http://www.w3.org/2000/svg" xmlns:ev="http://www.w3.org/2001/xml-events" xmlns:xlink="http://www.w3.org/1999/xlink"><defs /><rect fill="white" height="101.01539907229056" width="103.8741741168291" x="0" y="0" /><path d="M25,25 m0.0,0.0 m10.321004304009415,3.9855597375680656 l0.41740941429613654,0.27213370631869604 3.0350006477284763,2.70278542466718 l1.4418318960994287,1.8807670740358267 m-13.213477658964644,6.355798331755785 l3.207750722277335,0.11692068680493437 13.72675677306083,-1.8344413978779377 l2.2278998657459135,-0.026039883928547523 m-14.970344479284027,9.576992304249945 l3.2577167248092644,0.07777586815852273 7.66058625061026,-1.2763616485199827 l2.232914648312464,0.02258017228808482 m-13.142610105959385,9.172117060828938 l3.188608744790027,0.04473444171690107 8.134884821224846,-1.288251168233025 l1.8704386244149787,-0.020039580867427007 m-14.151092360356419,9.08653351537942 l0.798090998535333,1.38138935628969 2.0510955344328488,10.3619618137403 m-1.5032024198078169,-11.078311332345674 l10.73171912431245,-1.8460358987332277 1.7107491167096782,-0.008278626519550055 l0.532189651584075,0.30764417506300307 0.2667900698125759,0.534966102395607 l-0.04028103576837859,0.8150408844020277 -1.944721141198175,7.7371958085107035 m-9.58446540037715,1.9152967702257762 l10.775680847992843,-1.4613833526998043 m5.56267857247871,-35.715893076215515 l2.144836726448485,0.24534438795302677 20.189211357961742,-1.4357773850110516 l6.938523280896974,0.15655886872121028 m-15.903176859739489,2.258551662827225 l0.7352618751885205,1.654455448211191 0.1678095359840686,1.434948620571801 l-0.08697793704916965,34.050762485831925 m1.304629201851814,-18.992953624158442 l10.55545412588733,-1.1765540189198147 1.572647405991078,0.08457856547869178 m-24.94876144790185,-0.8799838372330854 l-0.16732731186135474,1.3135364661987847 -0.7108216065952614,2.3223500998564894 l-2.6415877113989765,5.967740557952026 -2.96583505127283,4.6836770261953165 l-3.688486848634183,4.284967040397119 m7.508946772520649,-9.504569981683645 l18.44077495972947,9.434186515620539 4.825814288054276,2.1453959476998508 l3.9435949380448045,1.1750269573226584 " fill="none" stroke="black" stroke-width="1" /></svg>