<?xml version="1.0" encoding="utf-8" ?>
<svg baseProfile="full" height="103.77503300711001" version="1.1" width="103.85075995322387" xmlns="http://www.w3.org/2000/svg" xmlns:ev="http://www.w3.org/2001/xml-events" xmlns:xlink="http://www.w3.org/1999/xlink"><defs /><rect fill="white" height="103.77503300711001" width="103.85075995322387" x="0" y="0" /><path d="M25,25 m0.0,0.0 m9.658341719756208,4.465827082561951 l0.40167779387828684,0.2884225231036316 2.218881668957432,2.5938758646243003 l1.334936147469253,2.6290747233726153 m-11.88568065301232,6.191459180892374 l3.3927399546731762,0.08974807293056866 11.529566834927492,-1.6203701910396744 l3.1990628944989297,0.05420977900611625 m-14.399854140903907,9.851044430128008 l2.8972693272138095,0.006746188410794135 6.008290468578915,-0.8620243230941846 l3.2422486154876378,0.025680603031440243 m-11.685632701402053,9.248972320543158 l2.7453752195757946,-0.03856127782826877 5.417118590184504,-1.1365673697356637 l2.979175575169889,-0.012765750923248153 m-12.153388062290766,8.974140321855112 l0.5171359214431889,0.7272240192943628 0.18437997467239706,0.8891383237965204 l1.7881717740159444,11.40975848618011 m-1.8377203901611272,-12.072927069998924 l11.748791892760408,-1.9287553245741933 0.7645006628650023,0.13025531097137194 l0.46031753435335515,0.5168853393776308 0.08667099343626566,0.6607404310959859 l-1.9310504786132445,9.75349277164352 m-9.121485720325158,1.2096012636716411 l10.264141430254035,-1.1862487705603488 m17.339217720465346,-47.78812032832819 l0.06862345094741787,1.5264075014126761 -0.9040182415863174,2.555797513281787 l-1.9305237436219143,3.919216306489713 -2.2062199139389906,3.6638307469709734 l-4.6205477026607555,5.981095301262973 -5.081818255278121,4.818803877419555 l-2.7984622957992613,1.9618224079733255 m16.703253772932253,-21.483049563334166 l15.723474689001257,15.944290981522618 1.5966817212890776,1.2283368422911243 l2.1371159040105194,0.7420691475066805 m-28.325930613063715,1.9631503970362965 l1.183129750983054,0.17135652744835944 6.991941295266476,-1.0172562313715305 l9.416640700103889,-0.9460894722160015 1.8185095570003103,0.320673267810012 m-19.730423941782405,13.776787019752051 l2.139981906806754,0.18201590997326134 16.446834348264147,-1.6731608501772224 l2.362201012992889,0.16341116057963323 m-24.780827394505927,15.504998525825208 l6.2757678721701415,-0.16174004730986605 22.6756660082287,-1.7791837249424594 l2.8566196805800894,0.5435800531513525 m-18.10272113223616,-24.607106802898965 l0.4505929992716663,1.4611951941121784 0.13659476214958421,23.346204595606935 " fill="none" stroke="black" stroke-width="1" /></svg>