<?xml version="1.0" encoding="utf-8" ?>
<svg baseProfile="full" height="103.01656369183746" version="1.1" width="87.85107272399998" xmlns="http://www.w3.org/2000/svg" xmlns:ev="http://www.w3.org/2001/xml-events" xmlns:xlink="http://www.w3.org/1999/xlink"><defs /><rect fill="white" height="103.01656369183746" width="87.85107272399998" x="0" y="0" /><path d="M25.18017569409966,25 m0.0,0.0 m7.3122456802580675,4.698571179232346 l0.3978008901436975,0.2629142358109763 2.554888904015771,2.516943118963794 l1.2916342977398332,2.5803542065381504 m-11.73674546625703,6.186345782213887 l3.482024429764812,0.05945783489036703 11.023116036744161,-1.5643185215778 l3.498385067624281,0.04655829571057315 m-14.741832804913098,9.820266501297898 l3.45563414193858,-0.06588044690962118 5.802615926463606,-0.9784344101197767 l2.4035750673249985,0.05701979541000609 m-11.89053435044924,8.735385548839169 l2.791369069458837,-0.0024609933689117287 5.939142108489001,-1.1148831905103669 l3.08644522755022,0.010526386870932441 m-12.255768123208286,8.573830804949116 l0.540220645187808,0.7161637954010016 0.20409772478932547,0.8809013440503377 l1.7623839396065037,11.597302424145392 m-1.537571581590377,-11.781976002956451 l10.305643033151359,-1.9129126891166315 0.7449609796921048,0.13201306492443526 l0.43261477173841656,0.507419132655726 0.08626412551197425,0.6469440853488765 l-1.736937439425101,9.28936674190732 m-8.170590821386071,1.7774026065823323 l9.395690724824572,-1.3468578582807693 m6.253762459769179,-38.31988862501395 l1.4487006753054323,0.20171590781381865 12.744177959330184,-1.523974350480602 l2.7834837307067986,-0.12165823633244661 m-9.008325093724086,-7.940076842117689 l0.8739120387779599,1.596488782773038 0.12240671470974372,1.0407490051048747 m-8.802574812910922,0.7769108908292378 l0.6578286893034844,0.6366572046113524 0.3334998491776507,0.7739599432801655 l-0.01901182466456155,6.298790401410256 m-8.268940995487638,0.7578022797093482 l1.8112897804411556,0.2577835854774009 16.523232298312845,-1.9964070153420639 l3.189392989629977,-0.15663652200981262 1.8263986503996432,0.24840671390977628 m-21.431066792524554,6.852128636067256 l0.7080765424082981,2.535256672067563 0.10129931743917714,19.815561829635477 m-0.014801209658115757,-21.159211102692524 l14.006108667760701,-2.2579244408893135 1.145621578819385,0.16035223924631178 l0.6288949135986057,0.633252893979976 -0.11880363090989515,1.5354034941800245 l-0.2890473205261314,18.7502510183986 m-14.977132130696708,-12.87176601247703 l9.81834573544948,-1.0648203608896574 m-9.93832346638371,7.306781700397004 l9.87672843105931,-1.0209699153183596 m-9.95446837273212,7.792286654179215 l9.90807255005245,-1.1002928767091653 m-8.54467039665541,3.624669919799015 l0.1023594047630692,1.0252865276786856 -0.5483763864922777,1.1277791800676145 l-2.750690030831793,2.9790652899398493 -3.4557491186782863,3.2075976738613843 m14.193907570536332,-7.806071039535444 l2.0270031127812316,1.7042913446411412 2.1457520900958613,2.138420135746318 l1.8383429741897228,2.1787095534723524 0.9651348434741914,1.5011143878704005 " fill="none" stroke="black" stroke-width="1" /></svg>