<?xml version="1.0" encoding="utf-8" ?>
<svg baseProfile="full" height="108.8518885395024" version="1.1" width="109.49251113459468" xmlns="http://www.w3.org/2000/svg" xmlns:ev="http://www.w3.org/2001/xml-events" xmlns:xlink="http://www.w3.org/1999/xlink"><defs /><rect fill="white" height="108.8518885395024" width="109.49251113459468" x="0" y="0" /><path d="M25.000000931322575,25 m0.0,0.0 m10.753840208053589,0.23254215717315674 l0.5056227371096611,0.2785008028149605 3.301178812980652,2.7492809295654297 l1.6846151649951935,2.3722757399082184 m-16.24525785446167,7.507442831993103 l5.059289336204529,0.18814116716384888 17.149661779403687,-2.3136237263679504 l2.857142686843872,0.013929293490946293 m-18.575339317321777,10.327497720718384 l3.650282919406891,0.01057988265529275 8.92971932888031,-1.2754979729652405 l1.9415095448493958,0.003522197366692126 m-14.612021446228027,10.158729553222656 l3.4131234884262085,-0.026550721377134323 8.412527441978455,-1.4438404142856598 l2.8363871574401855,-0.18121905624866486 m-15.907721519470215,11.389100551605225 l0.5983429402112961,1.0006974637508392 0.713605135679245,2.7802446484565735 l2.2000202536582947,10.46870470046997 m-2.2225624322891235,-13.457866907119751 l12.215585708618164,-2.320471554994583 1.9217745959758759,0.008251246181316674 l0.5437316000461578,0.3695197030901909 0.23562835529446602,0.6982085108757019 l-0.09484679438173771,1.0908656567335129 -2.0068392157554626,9.288691282272339 m-10.381938219070435,1.6999267041683197 l12.00020432472229,-1.0173701494932175 m8.258731365203857,-47.25496768951416 l2.0007145404815674,1.6361284255981445 2.096666991710663,2.307966947555542 l1.7567497491836548,2.464485466480255 0.9819833189249039,2.1065345406532288 m16.24525785446167,-11.002568006515503 l-0.11303993873298168,1.1755898594856262 -2.0337194204330444,3.5339149832725525 l-2.615729868412018,3.7819626927375793 -3.0140015482902527,3.70982825756073 m-15.918610095977783,3.8871023058891296 l3.3161500096321106,0.20091146230697632 16.16223454475403,-2.2878067195415497 l4.715629518032074,-0.42857564985752106 2.064342498779297,0.22275704890489578 m-24.171898365020752,12.009731531143188 l3.428094983100891,0.13546504080295563 15.013524293899536,-1.915012001991272 l2.5638407468795776,-0.07555844262242317 1.3222408294677734,0.23826535791158676 m-26.67619228363037,11.944401264190674 l3.8408270478248596,0.1940850354731083 25.69897174835205,-2.4346278607845306 l3.6924749612808228,0.3312699869275093 m-17.76961088180542,-17.007434368133545 l0.5318225547671318,0.9564639627933502 0.15052144415676594,1.237516775727272 l-0.048226192593574524,38.58384609222412 " fill="none" stroke="black" stroke-width="1" /></svg>