<?xml version="1.0" encoding="utf-8" ?>
<svg baseProfile="full" height="107.20593069865735" version="1.1" width="105.650007472065" xmlns="http://www.w3.org/2000/svg" xmlns:ev="http://www.w3.org/2001/xml-events" xmlns:xlink="http://www.w3.org/1999/xlink"><defs /><rect fill="white" height="107.20593069865735" width="105.650007472065" x="0" y="0" /><path d="M25.35505598949449,25 m0.0,0.0 m12.188199916363482,4.033868202347402 l0.08503041122723766,0.5005098941169702 -0.26189426453540254,1.0647207827779532 l-1.0645129094279118,2.209922798075008 -3.3423708956434455,4.295736600804951 l-3.752000985810309,3.6860985259413215 -4.207507261668139,3.366220419388036 m14.650181258725858,-12.873048824039818 l2.0665033131147523,1.3510277528249306 2.5007337985594535,2.0467191466082992 l1.7370944045381804,1.97782855992912 1.0375729999861785,1.8802334080572192 m-11.21131286764377,1.4772953082710234 l1.361210530664845,0.12884016826503933 5.292276801232461,-0.9985054074191458 l1.5201237268924572,0.42213282240850064 m-12.826350982490302,5.831958482596239 l0.4857676102721435,1.6405973014988011 0.0030162795939575136,34.59593798974348 m0.09924741930600135,-34.91576102442821 l12.603396859622316,-1.5008145917945053 1.244636675916106,0.45770361894484757 l0.39317708445331473,0.8681111275968063 -1.602391710351241,13.445687510599825 m-12.234709909270043,-6.943473396442849 l8.370910993484209,-0.8586408284584854 m-8.434413631235262,7.7796489048708395 l12.141590461723096,-1.3412122056575553 m-12.033411882150178,8.828935042117626 l10.188133653029574,-1.3667180363348126 3.1177211767697437,-0.009935995976785746 m-13.03612722381442,9.542938323527181 l10.252281415665768,-1.1794295466819416 3.7554773493135043,-0.01347562180188517 m5.816881317775089,-45.61884373062425 l1.4851368231639843,1.431520716719067 1.637817371008412,2.316132595933103 l1.3526086481526012,2.397055630321876 0.5337096816141137,1.545865755870584 m15.031129543906756,-9.928194054955885 l-0.16227887504211716,1.5734954787367597 -1.3104876314997755,3.2739677956706994 l-1.8381451484576516,3.4974422155312648 -2.2423551937229504,3.3553068182197774 m-15.17975359310735,3.555198330490435 l1.497219050256914,0.3108631325708513 1.394105422938251,-0.08312698071262423 l16.030361588703894,-2.7188204108483625 3.3623640739095704,-0.2108856617630538 l2.239051199745833,0.2776041767209698 m-28.89812085192098,17.065147266917613 l1.293777346169225,0.31270896596338943 1.934758954965972,0.053989504335524234 l22.576845957913825,-2.1328021542366717 5.601419977260039,-0.26267406832952434 l2.051626202422652,0.37810130858144586 m-24.004128137809804,-12.181697319368286 l0.7052608741911557,1.859375340227815 0.15297334219610034,1.0688184751985959 l-0.04126001521618236,9.683144134985215 -0.5143480453912568,6.196272496101692 l-1.0518542350113083,4.950911942741634 -1.8061030568995573,4.578295555461774 l-1.9608107061006286,3.1824669921622952 -2.58734130127553,2.899285959556112 l-3.236877594772176,2.465611138729709 m21.11565367409263,-38.072356911789086 l0.5064642590761637,0.7368001580345477 0.27651028092949476,1.463440173753708 l-0.09862564421592858,38.55485271947321 " fill="none" stroke="black" stroke-width="1" /></svg>