<?xml version="1.0" encoding="utf-8" ?>
<svg baseProfile="full" height="131.9603838481758" version="1.1" width="109.36412630262706" xmlns="http://www.w3.org/2000/svg" xmlns:ev="http://www.w3.org/2001/xml-events" xmlns:xlink="http://www.w3.org/1999/xlink"><defs /><rect fill="white" height="131.9603838481758" width="109.36412630262706" x="0" y="0" /><path d="M25,25 m0.0,0.0 m6.802442512657891,20.20855197287074 l0.4485544152120387,0.10606628266463305 2.5454690877796646,0.10817725830821096 l13.578963955092238,-2.5500833220000296 1.8842167841370856,-0.03174609943538935 m-8.663853173537625,-14.530758704746685 l0.6408800857404319,1.3907933954643332 0.17886180073916932,2.2594223172392636 l-0.08292342593750483,51.766588406405795 -0.26391379258044234,1.6845769238163937 l-0.4502358371371463,0.9181168717567617 -0.5875497983707342,0.21115936184325657 l-1.3743503061222955,-1.0594449634075909 -1.5762182841748191,-2.480004606429198 m-7.159379543579236,-15.944729495593558 l1.18626004390876,0.3587829399570686 1.4111012786727186,-0.5192613205125355 l14.212300564066568,-10.896760004617772 m5.738497308873567,-16.172627236844544 l3.1101208387076387,0.21325207336650942 21.262172828313858,-2.790172580293449 l4.065838559425774,0.48445098078441695 m-27.180836818044448,20.883466321050424 l3.787625805775545,0.16846122610345532 18.784446913890733,-2.4028191456587598 l3.75323127430324,-0.22362553894466447 m-29.142496240571855,23.133572043138095 l2.9711215402454902,0.12121253520827549 13.238236016427393,-1.4628197745787956 l14.09831221649517,-0.9023227275721208 2.1472296922182,0.42093621807691733 m-17.195364638540962,-15.031123823213434 l0.6358673217485673,1.272937218135393 0.2243019131666075,1.8454778255251927 l-0.012309807828959561,41.40268102030922 " fill="none" stroke="black" stroke-width="1" /></svg>