<?xml version="1.0" encoding="utf-8" ?>
<svg baseProfile="full" height="120.47869739008938" version="1.1" width="95.70428583037223" xmlns="http://www.w3.org/2000/svg" xmlns:ev="http://www.w3.org/2001/xml-events" xmlns:xlink="http://www.w3.org/1999/xlink"><defs /><rect fill="white" height="120.47869739008938" width="95.70428583037223" x="0" y="0" /><path d="M25,25 m0.0,0.0 m10.733360628081627,3.5061143842861635 l0.39378183289339136,0.2937089925756899 2.6382290977391345,2.844649466920567 l1.4196886054039182,2.5592465927842043 m-12.72877874204383,6.762930973179509 l3.042379049354045,0.11963219835415306 13.462951576977341,-1.9606786978052482 l2.2175146964874917,0.033291750768176843 m-14.99507639299429,10.370989988690171 l2.025742422573129,0.0444448780188786 7.5033183425857,-1.3915275090688006 l2.103975169555797,-0.028600734190091938 m-11.605605310776102,9.907362663835334 l3.143326895156581,0.04152825193216062 7.2956099642496115,-1.2664978227984482 l1.5145609723356641,-0.03535176032561329 m-12.813539209943423,9.843870975913765 l0.6618216134039374,1.623844047967447 1.4785054378767237,12.231924386598125 m-0.9718269336061996,-12.92265102166126 l10.286374915791507,-1.9714286139397104 0.5796517686475102,0.03423599655177686 l0.9412783413235224,0.3707019429110563 0.3585031344758683,1.1997253871896996 l-0.10460842647007838,1.050871032646048 m-10.142760265338593,2.8659618579717048 l0.21999803728060782,1.4951501673116665 0.012937347741202396,9.567921285402983 m-5.447536417759437,1.9091404877994607 l11.156697602020346,-1.9826338920349451 2.000850162957028,-0.19987929885031716 m4.212985309260813,-33.552708318536006 l1.9979613094522666,0.33985685389224396 2.3922904571933143,-0.06607039601855885 l18.40961427321438,-2.6285505661727684 2.3101085652717295,0.17039096405174758 m-19.20200255452272,-6.938221006297873 l0.6052794087518887,1.2615896053859827 0.13639790920405118,1.1212161427366623 l-0.4095641097467793,25.42509134044672 m10.459409785816717,-29.557098167893272 l0.5496345378351075,0.9079643660875981 0.20194650023334068,1.6845757699465482 l0.0336666234896744,26.110983306309755 m-10.03242496431955,-9.501692396041195 l5.520226922403803,-1.37376937531725 m-6.1316292456844455,-0.42317442649389975 l0.6738042514031654,1.437862142564292 0.1309627330834352,7.795648524567594 m-11.321069572588694,1.7196901751528106 l1.4735910278372781,0.2819669093480145 2.497977160668119,-0.06462488094866448 l21.15305002297907,-2.057939364634861 1.7857567433834869,0.23466392531368807 m-23.432044289467946,8.09976387875619 l0.5842878726058607,1.8332320326936113 0.038406163536160984,17.55579950102507 m0.276877867446763,-18.266966678187185 l14.027664919815388,-2.1291630077483346 1.3389700398188582,0.23748341301643786 l0.4705851969846187,0.8707524072246315 -0.21228837337770623,18.631329039121756 l-0.7530117560474529,0.6318958591980279 -1.7505143840569652,-1.9668781208326536 m-7.299703820335559,-22.828211333441132 l0.5595666820987181,1.17383974424486 0.09624431469776458,1.110586772836544 l-0.045170870205568106,26.279584395797954 m-7.110330273944579,-22.844903836311534 l-0.0390674227309347,0.9606202405342419 -0.3625651107313539,2.2915209486876136 l-0.9849045827969752,2.1426081957044874 -1.4515951662686615,2.0900442220942996 m13.680051621661864,-9.510001187173932 l1.5756823249090903,1.2312453608429434 2.04471628389011,2.195878547467514 l1.4555330513158504,2.1468145751379777 0.7463794817295966,1.6634267575888828 " fill="none" stroke="black" stroke-width="1" /></svg>