<?xml version="1.0" encoding="utf-8" ?>
<svg baseProfile="full" height="116.05315256064334" version="1.1" width="108.90526881431086" xmlns="http://www.w3.org/2000/svg" xmlns:ev="http://www.w3.org/2001/xml-events" xmlns:xlink="http://www.w3.org/1999/xlink"><defs /><rect fill="white" height="116.05315256064334" width="108.90526881431086" x="0" y="0" /><path d="M25,25 m0.0,0.0 m30.834619855010178,2.8816767385730824 l0.39065972985427855,0.459738753342895 0.5636084662656818,1.1448367336959495 l0.13148523762026287,1.2454161643553359 -0.04932450260812444,7.384441133924844 m-24.69099768087908,2.3604660908365367 l5.060355689250076,0.28454620544346293 38.8933948045849,-2.139366692566151 l4.608509983733423,0.030602637000972797 3.1629572314792562,0.38872690973455915 m-29.012110751421396,2.439336826638218 l-0.05549380971365791,1.5187258053840442 -1.13459009212329,1.1752734121920996 l-12.757173827151536,3.5900212892709926 -10.12786232983712,1.9829091518866078 m17.267754386583285,-1.1837600219555793 l0.5025877326131442,1.6055690514997005 0.012192429897378568,1.5880328266436041 l-1.0332409088934034,5.872336991676625 -1.515155003854734,5.170708654304022 l-1.6051788794355795,3.418243955031642 -2.0754414267084,2.831195617436333 l-2.27208307400158,2.229480528626921 -3.563738191155407,2.7517483874670994 m11.36567948443283,-20.706327725763714 l20.56358818301326,-2.1575792060810475 2.255043605486128,0.15236040849072288 l0.5877554721748599,0.8533801676654998 -0.5430302881391055,1.173420810754759 l-5.5898831799085125,12.41424660952676 m-20.1397400985148,1.1547724294781574 l25.495189344027054,0.2735270625297938 2.441307578353112,0.6487755821506241 l0.7480614240076728,0.8690357367650072 0.05985007496253342,3.64779797440303 l-1.008167977749699,6.0344624521015096 -1.5942464730181733,5.213121007763928 l-2.102556423233676,4.613518752435256 -1.5109879046257693,2.086046760283644 l-1.476535379717347,0.7516865876955671 -1.3891257687961067,-0.18535861919134536 l-2.738411432301165,-1.7559900302228144 " fill="none" stroke="black" stroke-width="1" /></svg>