<?xml version="1.0" encoding="utf-8" ?>
<svg baseProfile="full" height="133.65706202681042" version="1.1" width="105.6666681164617" xmlns="http://www.w3.org/2000/svg" xmlns:ev="http://www.w3.org/2001/xml-events" xmlns:xlink="http://www.w3.org/1999/xlink"><defs /><rect fill="white" height="133.65706202681042" width="105.6666681164617" x="0" y="0" /><path d="M36.59324485585333,25 m0.0,0.0 m10.673942182543502,4.131079994707192 l0.3555587642946097,0.42279924572033695 0.44642363543687147,1.315782360559902 l0.034286858515862106,6.711505799119411 m-11.757069064186718,1.485678709503775 l3.185610310297703,0.0863490471891182 16.259022073097697,-1.7498049470509858 l2.7860723047631044,0.0798641813923224 m-18.228785454927003,7.19287700015055 l2.5238333068431267,1.1782121032442376 9.204165226947238,1.0116932906230889 l3.28844742231152,1.9632700718291047 0.5560943541827336,0.831141452177584 m-13.597996034234713,5.383709520985615 l1.8047101313635971,2.0307472896318566 1.2432929271085569,2.0600618437136093 m8.817120127518898,4.114599920542395 l-0.1459092538689837,0.769500532462556 -0.35504147954720566,1.1386294245040398 l-2.687168032923969,3.8972741965467015 -2.568476388834875,3.159991529856122 m-0.39941585273034524,-0.03377647337269157 l0.5814363334003745,1.5680752214801046 0.09194010395300045,2.0541278749258893 m-10.751775865218054,1.101468839612989 l1.829531670382476,0.09463505360372736 13.519120992765751,-1.318315587520646 l2.683836363832337,0.06791741472600658 m-18.010540907849276,6.188375689913628 l2.396751132736211,1.133777398344016 1.4846570252905158,1.0926491402001395 l1.163878135003264,1.0067987359973378 0.7837508396292928,1.1502859008990693 m-18.804548743750427,2.7770562669057086 l1.6807707114909476,0.31011804642943536 1.7981561862119406,-0.04677586375802526 l20.317997275736683,-1.6453280730322164 1.7876388755508184,0.03338995801732877 m-12.67881712441151,2.1543912824552547 l0.3846114495884729,1.346428690538125 0.008950068097053367,2.8624296096515387 l-0.49482104583347775,4.713294152343054 -0.8744903994972633,3.3668243842499987 l-0.6607632975814067,2.6159158603515262 -1.3334299921824382,1.8483364038351262 l-0.8036003379341168,0.02026749196790306 -0.8018898594563325,-0.3430989191077741 l-1.8601135058957636,-1.3871814844841472 m29.870603374355106,-36.7333922869399 l-0.40754697125910877,1.2919359654816447 -0.5767924462116313,1.563426087053205 l-2.2972249319175955,3.8995149320956646 -2.7758629866058695,3.4837444704299783 l-3.5586987179321006,3.5368578450869714 m6.444456792047283,-4.790907671967813 l3.189431607349001,0.1565508045442527 15.044117024930502,-2.051153034186342 l2.5827636499139053,0.0618473272099598 m-10.18674966193107,3.8628176225059097 l0.22632086039562266,0.7396030528639531 -0.1044504147544395,0.9099198374261683 l-2.1541264454040627,9.084061134538963 -2.2149806546794877,5.792990951599719 l-2.1705896019075097,3.9577236275189436 -2.625974601910446,3.4625750339805927 l-3.081445361082572,2.9674669467769914 -3.6204368684510455,2.5144297982106116 m4.582470024760917,-21.611858921922973 l2.371537141042476,1.7156245282587084 10.043963565716675,9.48840994906597 l4.9926948657067864,4.129091156608116 3.588536594136199,2.437537279997902 l2.034453276270532,0.6481315338847865 " fill="none" stroke="black" stroke-width="1" /></svg>