<?xml version="1.0" encoding="utf-8" ?>
<svg baseProfile="full" height="106.56443882254464" version="1.1" width="99.65528610063343" xmlns="http://www.w3.org/2000/svg" xmlns:ev="http://www.w3.org/2001/xml-events" xmlns:xlink="http://www.w3.org/1999/xlink"><defs /><rect fill="white" height="106.56443882254464" width="99.65528610063343" x="0" y="0" /><path d="M25,25 m0.0,0.0 m6.599418808996363,22.09548039610609 l0.5227599873099269,0.10605444848099277 2.8435720386148655,-0.03348347548962281 l11.742377915727033,-2.067795708945437 2.359432817051352,-0.036249137051052684 m-8.225555290132615,-12.623385423356678 l0.5969512730528975,1.0432560632925747 0.2621755274891033,1.9601333629162014 l-0.049448775353574476,46.12042829659158 m-0.27853275261843713,-34.455148816930524 l-0.780191113029027,3.261798164047687 -3.013576373132129,6.905382890962224 l-2.7453069396377265,5.044596780332382 -3.8038722154345743,5.833512776547934 m12.3225496171626,-15.80145102819548 l1.8518286522805167,2.823314682670862 2.5569784012843333,5.037260507815244 m3.4360572131132363,-19.98467096570108 l2.6285139193113443,0.18667390735863468 18.528442577334022,-2.009800126776077 l2.300710811243917,-0.1946489734558081 m-13.644652088543909,-10.887799658759661 l0.6731541326344765,1.1938945725128436 0.2784504438476302,1.2722107190602698 l-0.01656677496667781,21.21283361896791 m-9.150223390245568,1.3489300544319553 l3.0201294808321286,0.11716188601006393 13.242968824008855,-1.782005767759286 l4.400092077884922,0.16479066523285243 m-20.530605020114,9.385027576803115 l0.5319619485880746,0.9373288704429485 0.24213483115569273,1.0044362132741347 l1.8636407293221795,14.777024967756384 m-1.2742321632634963,-15.853598944429352 l16.23348433619027,-2.077815065311202 1.1790322065447294,0.20217692458285796 l0.48873335908056303,0.33201894418512157 0.5221579912877263,1.1432465391815594 l-0.0470173386044693,0.8192930417128671 -1.9173403131268418,11.621810678432425 m-14.686763425417148,2.2510590818350535 l15.92828397053888,-1.541436198665266 " fill="none" stroke="black" stroke-width="1" /></svg>