<?xml version="1.0" encoding="utf-8" ?>
<svg baseProfile="full" height="109.49251309037209" version="1.1" width="109.43688778206706" xmlns="http://www.w3.org/2000/svg" xmlns:ev="http://www.w3.org/2001/xml-events" xmlns:xlink="http://www.w3.org/1999/xlink"><defs /><rect fill="white" height="109.49251309037209" width="109.43688778206706" x="0" y="0" /><path d="M25,25.000001829521352 m0.0,0.0 m12.1417236328125,2.4181029200553894 l0.44084493070840836,0.3199409693479538 2.8764376044273376,3.1613531708717346 l1.4688657224178314,2.7265703678131104 m-16.72583818435669,7.694748044013977 l3.496786057949066,0.09698472917079926 17.837212085723877,-2.6213687658309937 l3.566162586212158,0.013786929193884134 m-18.827345371246338,10.119563341140747 l3.3344581723213196,0.03329911734908819 9.895604848861694,-1.754918247461319 l1.634056270122528,0.04559158347547054 m-14.570447206497192,9.419060945510864 l4.015763998031616,-0.00027363368644728325 9.35810387134552,-1.3121788203716278 l1.59296914935112,0.13305965811014175 m-14.742878675460815,10.453648567199707 l0.6552053987979889,1.010676622390747 0.4229956120252609,1.3946057856082916 l2.4603459239006042,11.747558116912842 m-2.1729041635990143,-13.438866138458252 l13.581660985946655,-2.5312381982803345 1.6185644268989563,0.11265289038419724 l0.7215510308742523,0.9177253395318985 -0.04253951832652092,0.6523427367210388 l-2.0278361439704895,9.201838374137878 m-11.930092573165894,2.5110313296318054 l13.684042692184448,-1.848558783531189 m4.014416933059692,-26.27422332763672 l3.325028419494629,0.365016832947731 23.90531301498413,-3.324565291404724 l2.2005201876163483,-0.1516983099281788 2.2281360626220703,0.26264624670147896 m-16.531853675842285,-21.553916931152344 l1.0883043706417084,1.5616485476493835 0.2569630928337574,1.3006441295146942 l-0.18622878938913345,56.63022041320801 " fill="none" stroke="black" stroke-width="1" /></svg>