<?xml version="1.0" encoding="utf-8" ?>
<svg baseProfile="full" height="104.10387153469112" version="1.1" width="102.07096105288525" xmlns="http://www.w3.org/2000/svg" xmlns:ev="http://www.w3.org/2001/xml-events" xmlns:xlink="http://www.w3.org/1999/xlink"><defs /><rect fill="white" height="104.10387153469112" width="102.07096105288525" x="0" y="0" /><path d="M25,25 m0.0,0.0 m12.970422891377664,15.249797841183751 l0.38681914013394214,0.19179242602584054 2.8206400050667426,2.1826126529901644 l1.3101350016784497,2.101354870941823 m-12.28620100387535,4.529562123348827 l2.9858517506741515,0.07755331033541195 13.354264128943202,-1.361792553070123 l2.0709136717519474,0.01924324856283885 m-14.693518834004667,7.483301130750129 l2.823843294525613,0.08246967449446332 7.357485367360998,-0.9267835094902177 l1.9806626906653562,-0.01277042885815898 m-12.312497968742298,7.174581905896621 l3.128397974649674,0.03897109574617322 7.493982167008483,-0.9497479427682091 l1.6895693184288474,-0.0215426985890032 m-13.250871925135034,7.0176018023006055 l0.6567083870940815,1.0878779676063146 1.634464988982395,8.40942252881073 l0.34237400352142167,1.7303660884731493 m7.8060878258451325,-16.227626627375844 l0.12004862136423088,1.0358141362302706 -0.6721451101939437,1.4897042999427947 l-2.4941446965973078,5.347878878196451 -2.5450446319094353,4.786387387913709 m-8.74462718621759,0.7332436308302034 l0.9486541539204474,0.24971898541716198 1.4478819178981928,-0.14845812298860717 l15.244791551698178,-5.06523153714684 m21.854142018407256,-32.001747625850115 l-0.4611687200722549,0.6831158994121594 -0.6330183089974376,0.5345064086230229 l-4.087886536509735,1.8905144454888556 -4.9436030382906155,1.7586553967375513 l-6.351219968210377,1.6207629298515194 m-2.0666839842516818,3.986493584554485 l2.565333905729186,2.4208113986277073 1.5689276697907701,2.430019806137947 m4.601343913100944,-6.50933880016938 l1.6994574704000642,2.193728227433698 1.3458378884316087,2.769831582624515 m12.847747458928804,-7.388537235086283 l-0.30271852211949307,1.1257977131283663 -1.632033715660004,1.842139661005433 l-2.5409755844772683,2.218430404272615 -3.1385169624383114,2.271453974465332 m-15.662154684547513,4.705408021729616 l2.18088985778468,0.23739282623756047 15.710757363840408,-1.3896007346474917 l3.0824462248445674,0.0992327868461441 m-25.50111295648506,8.324421068736546 l1.3586005205732679,0.2695381618911072 1.8785706935713236,0.018940168295458477 l23.186815569415337,-1.487120952079073 3.9362359842132535,0.21283426155405868 m-16.258410914111693,-5.440854874063758 l0.47840377590544503,0.8119193980721249 0.1173371342196904,0.9252808503732075 l-0.015121911006989393,15.926920192832107 m-10.74962535660926,-6.040927172703362 l0.3122629634358978,1.0698883579175016 -1.085733163161291,4.945153504951945 l0.06451795974134628,0.5483608219452689 0.37504366129405636,0.22333981295175406 l11.388273613403245,-1.5578475262774034 10.244281980009777,-0.7121562791793654 m0.1352077345270322,-6.56869389749805 l0.5741069539261784,1.307733859026176 -0.8138211373443418,8.135159935214688 " fill="none" stroke="black" stroke-width="1" /></svg>