<?xml version="1.0" encoding="utf-8" ?>
<svg baseProfile="full" height="106.78549604802964" version="1.1" width="110.27250133613262" xmlns="http://www.w3.org/2000/svg" xmlns:ev="http://www.w3.org/2001/xml-events" xmlns:xlink="http://www.w3.org/1999/xlink"><defs /><rect fill="white" height="106.78549604802964" width="110.27250133613262" x="0" y="0" /><path d="M25,25 m0.0,0.0 m20.551607397382206,2.7944140459437072 l0.023273372316266097,0.41773893788565764 -0.1493760519694586,0.9227585060847734 l-0.8781675593923357,1.884869369194316 -2.6538190757982174,4.191580579367673 l-3.075918699165633,3.637545259893387 -3.5426567759364267,3.0015356565586093 m12.092474324138033,-11.24720607862709 l2.5111138103733333,2.691591517619215 2.494774108933712,3.5153079762644768 m-7.067975818403989,0.2845500325383959 l0.36870308327675255,1.3461495333484021 -0.030770521547750562,3.62672489381663 m-6.200873337608961,1.2518601823206958 l1.8531829468460381,0.2416020118666866 7.8382430915596295,-1.4900888388418712 l1.2010633876488919,-0.08080950922455345 0.4945790880374049,0.36338767684156725 l0.2032742258344609,0.5024158231502582 0.009916948814190689,1.3708730332365775 l-1.3231641244193175,11.024037554217173 m-8.73925301060686,-5.8495138051345545 l8.941355005354131,-1.3580340251807224 m-8.998608735507732,7.3016177748453535 l8.345919531545539,-1.2103273262386853 m-9.500942625914996,-10.159648690370586 l0.4308354107035368,0.8535973197283664 0.1057377954113838,0.9066143118288758 l0.9109144812008109,21.604463106214233 1.009204115949229,-0.9297361108228983 m7.780636689764352,-7.014579888076442 l-0.2773367875552109,0.985650013140626 -1.9491469650214104,2.3801767754709826 l-3.3356974814663403,2.170521326999223 -3.323309339590285,1.6963034356588151 m11.340925018326194,-2.258625380286777 l-0.04084229748782359,1.1106188344174612 -0.562529583029148,1.1424471946586177 l-3.8428739239244925,4.521898045561035 -4.684544402607655,3.980188774246876 l-5.377392391461463,3.5790263910943954 m21.943906659735795,-33.07812983357574 l2.8621652168812197,2.5059171919342687 1.3757605462071916,1.4597957458435507 l0.6465400538965533,1.1100281600171065 m13.568460985047182,-6.312584131495818 l-0.1507614980717437,0.9973740270105776 -1.182397895029675,2.195500698359595 l-1.4916697202736013,2.0341009825450156 -1.887798919242903,2.069957507658776 m-13.485783404834976,2.6149047694972936 l2.701449847644836,0.17169375782635352 13.831528327755644,-1.5187637566943113 l2.8098165822391468,0.1293525051979619 1.7686294148404058,0.23068544675147837 m-22.42718735656288,10.157470650325603 l2.9371232926740243,0.13730470764618524 15.811214603902012,-1.230735492078154 l2.757048342976032,-0.09603843643861798 2.298201850447391,0.15480144095037182 m-12.264646219964588,-6.8201169763015645 l0.4389054829585843,0.66444456428782 0.1271796364038772,0.8669946193655421 l-0.04118977527467592,20.76582738289876 m-1.6535745024931296,-6.646863439593549 l0.06519068107854241,1.844477534015898 -2.5720984719119397,2.9649093877242727 l-3.294278571391567,2.9507149923876144 -4.191292575555359,2.758975800754464 m13.457300761690336,-10.865030359985672 l8.135946980978082,7.770422281345768 2.246682817543221,1.60687106292149 l2.1795938368390133,1.0602637498362548 " fill="none" stroke="black" stroke-width="1" /></svg>