<?xml version="1.0" encoding="utf-8" ?>
<svg baseProfile="full" height="115.56862109931592" version="1.1" width="109.50282209426383" xmlns="http://www.w3.org/2000/svg" xmlns:ev="http://www.w3.org/2001/xml-events" xmlns:xlink="http://www.w3.org/1999/xlink"><defs /><rect fill="white" height="115.56862109931592" width="109.50282209426383" x="0" y="0" /><path d="M25,25 m0.0,0.0 m10.58335572391119,5.244189428960788 l0.5247012969880711,0.21619771671533164 3.843037770259435,2.4458773926284323 l1.7668625062114431,1.6082200070553754 0.7276107001457562,1.0428049143261173 m-10.821912559224533,9.564204453192112 l4.377029605947176,2.215861042226242 1.9828201116650734,1.5410396298557678 l0.8040678088807748,0.9591801456634244 m-6.2180625037229005,25.32384025527206 l1.1028801643287018,0.13826471936843993 1.241909615222018,-0.9991846524818161 l2.345471616141521,-4.856476385477479 2.422622188096285,-6.008755371999503 m19.991623019028637,-34.10361937303126 l-0.12190593287722772,1.5683324142020423 -0.43207393237243197,1.5398743416643104 l-2.469890296505357,5.447750652152299 -3.4484324959507795,5.376663404026992 l-4.106792947284957,4.7382122935318645 m8.98307764359147,-9.189925020108472 l2.279253942899855,0.1590056477713721 2.1700876836917615,-0.24026817665018135 l15.237867330561379,-2.5414039682374843 2.7717723124071556,0.12099123769545365 m-24.726287748223356,11.087619928322747 l0.6786738176371794,0.8553555782248091 0.2559393206600486,1.0580058974428144 l-0.6363262443357356,29.74241193976316 0.05161031939281965,1.7572317866865699 l0.4384998230213251,0.45404951830118345 0.7775965507424205,-0.08706232840550077 l9.588202810826608,-0.3235295161287773 6.402851578622282,0.24797944466266617 l3.2960123852197114,0.6674248428741872 3.8563702212658013,0.753957619406307 l3.5345969388886394,0.6989894828929372 m-14.543551004644412,-34.49411473883048 l0.7334849488592299,2.1944872691119675 0.08350192651536713,1.4412063749725164 l-2.0917979769078183,11.010864828854304 -2.3001485158946267,7.385039936449065 l-2.463192962349403,6.081070196115009 -2.4216034985285986,4.275427906413221 l-2.7515389802078314,3.5254118105364176 -3.4417986085135532,3.1823935851590037 l-4.199498547606952,2.7435229881695786 m-2.911231764333445,-29.03805632776 l3.2878267438884072,0.3008421146292671 16.091254739711808,-1.7099490075216734 l9.488023258987289,-0.7242209928075539 5.149784530222104,-0.18956015157436282 l2.7385876593090095,0.45534153150269574 " fill="none" stroke="black" stroke-width="1" /></svg>