<?xml version="1.0" encoding="utf-8" ?>
<svg baseProfile="full" height="109.83080359774999" version="1.1" width="111.61822061501861" xmlns="http://www.w3.org/2000/svg" xmlns:ev="http://www.w3.org/2001/xml-events" xmlns:xlink="http://www.w3.org/1999/xlink"><defs /><rect fill="white" height="109.83080359774999" width="111.61822061501861" x="0" y="0" /><path d="M25,25 m0.0,0.0 m9.971988784355231,6.6267154492570635 l0.44641941786397743,0.2443545826597185 3.2676108857898325,2.614644829060101 l1.5434953507961506,2.3942735394860573 0.6017774550075026,1.2955713232549373 m-12.925592540686583,6.626326368705576 l3.7032926570808122,0.12297010807460167 12.824003521266425,-1.7456186950471082 l3.721880586860487,0.04026949009936833 m-16.751361123905095,9.958343913708505 l3.8182745629029693,-0.05416040854224959 7.3136895006297635,-1.1554523199671607 l2.467710191983682,0.06449397810213231 m-13.746252129801638,9.80062726947429 l3.0432069592055164,0.0038903634083282544 7.922969319215882,-1.360280816922313 l3.3750289129816604,0.03069253225497814 m-14.357614521139718,9.646100304473965 l0.6040614982582323,1.026726969820548 0.25651423675734103,1.3804339070821525 l1.9153044458127928,12.269880909306496 m-1.8315757139073725,-13.596055056361376 l12.741638529190356,-2.1800655307847854 1.214739009683099,0.37893694215292273 l0.3131468893630378,1.0028650699185466 -2.091758653258776,10.613234109937437 m-10.037003280510303,1.6485989073404017 l11.135837463696378,-1.1100617502839651 m7.201403298476466,-42.87207618094104 l2.926556997215164,0.34632819223770217 19.815244179209238,-2.234159986111636 l4.172119836739958,-0.16480680057558847 m-7.217306639556998,12.717343892414895 l9.658460557238172,1.3552932700244786 2.723823704048648,0.4646591114220004 l1.625710025826364,1.0041248846581674 0.2507764403299674,1.1231343455440506 l-1.8275862504170144,4.030892186191768 -3.385750355381626,6.131223562096906 l-3.4811829672147265,5.157932780795585 -3.485139772102311,5.716906043757693 l-1.444892970451412,1.8312119776253835 -0.8709373927498251,0.7739414713290933 l-0.7168402461670688,0.2691541324824469 -1.0699586206889375,-0.16457947324579839 l-1.637594320090695,-1.764584636620347 m1.3902868468182288,-39.63271942827713 l-0.006490151661867218,2.7935847990285634 -1.564536227157199,5.080543600913138 l-2.3269584302701087,5.521379092930429 -3.0528132396377985,5.755102124795905 l-3.0128825436359934,4.615121896139812 -3.5569247156657373,4.388647275304099 l-4.150190082862719,3.9582899122738704 -3.4160081310918993,2.506115500975471 " fill="none" stroke="black" stroke-width="1" /></svg>