<?xml version="1.0" encoding="utf-8" ?>
<svg baseProfile="full" height="103.50728818141286" version="1.1" width="103.39333083173489" xmlns="http://www.w3.org/2000/svg" xmlns:ev="http://www.w3.org/2001/xml-events" xmlns:xlink="http://www.w3.org/1999/xlink"><defs /><rect fill="white" height="103.50728818141286" width="103.39333083173489" x="0" y="0" /><path d="M25,25 m0.0,0.0 m14.499808839004217,19.5374796906899 l0.07993389816552413,0.3885010439070351 0.023035377515232918,4.296106909351589 l-0.7364018432639354,5.070343921697417 m11.40339388242213,-13.670093412201338 l-0.08188700428796099,2.0567154331778714 -0.5706459373722669,2.9094972471525606 l-1.7612561873780093,3.036846722336122 -1.7855438770239087,1.9440705862742425 m-2.1315627426606847,-19.9104933714226 l0.4883430120806309,0.9482247904086255 0.20269065363762592,1.1727723187809316 l-0.07662326865090245,10.17931002183467 -0.35264835959260044,9.8828572087917 l-0.8274148417023158,8.131778703427521 -1.044134093545555,5.227168152356659 l-1.4126592542935617,4.321293357323667 -1.7838357534005804,3.6413985173422825 l-2.7996970165906725,4.343510340184 m8.560510064751298,-17.19425380759981 l1.1863643646247946,1.472287347164598 1.523220841286859,2.592221025298118 l1.2355045543872756,2.716597977165436 0.7965186392023108,2.60825526274082 m5.266333903681812,-36.09400464589661 l2.0756817960266782,1.5962318885688656 1.4802361025276056,1.449476532284283 l1.199626271645307,1.247843334738042 0.7753175306944119,1.4574630376268287 m12.22962054013849,6.398515197538429 l-0.31417358248059063,-0.12957215883094073 -0.8844875343613195,0.6448215149553558 l-4.531409370589253,1.765432520445815 -4.620858742000899,1.67477182421289 m-1.544935428853394,-12.155614281565681 l0.4868535143453437,0.7460107438669866 0.21796190559156317,0.9760482694234837 l-0.02740223779363011,19.05196984680849 0.15304552721341536,1.9397753231668604 l0.22606957349045653,0.717570615565773 0.37442332211448554,0.45236166649358517 l1.1948173251897682,0.2558937891662923 6.549657839595409,0.03966515119052492 l2.3121068980068493,-0.36539054121139153 0.9645798658432333,-0.5487960156167865 l0.5853159733237447,-0.892022854670064 0.27452188644615017,-1.2415807900453497 l0.05583416593159175,-1.8923212071998976 m-21.160514191962356,9.978488746144782 l-0.283311880203198,1.8148358192447358 -0.8794485390482212,2.064920499757132 l-1.4183252903334636,2.316584597204882 -1.555497777628298,1.9335016087326709 m9.436832881974452,-8.700920749520446 l1.1038333488700252,2.9662538755206906 0.8482978970280713,4.631113738767356 m5.254617712115885,-9.362611825966473 l1.603583324631255,3.7003000281008793 1.0519798648871048,4.142219527870109 m4.147096312404984,-9.143622843379472 l1.1959420816380473,1.8538139130261078 1.3253107493012066,2.73828351386541 l1.0781000390521274,2.8842774184072333 0.5171097427219445,2.1980436041364553 m-21.35489903446468,-33.796390103364324 l0.04384037380907926,1.1333328770062912 0.07921275674560604,1.877792371654338 l-0.36465073784104257,27.385906117255956 0.2099581329847843,1.6180662250068425 l0.9109657226689636,0.6029751962383039 18.982186844529554,-1.8644033052679065 l3.487359504810886,-0.002945776479528427 " fill="none" stroke="black" stroke-width="1" /></svg>