<?xml version="1.0" encoding="utf-8" ?>
<svg baseProfile="full" height="108.2059263630082" version="1.1" width="113.94657183974792" xmlns="http://www.w3.org/2000/svg" xmlns:ev="http://www.w3.org/2001/xml-events" xmlns:xlink="http://www.w3.org/1999/xlink"><defs /><rect fill="white" height="108.2059263630082" width="113.94657183974792" x="0" y="0" /><path d="M25,25 m0.0,0.0 m20.27005274463397,10.895685943339219 l0.0274425436894366,0.48243622449851226 -0.35662393594965675,1.3117821789690525 l-1.098916777302451,2.065928647429496 -3.3561525710092526,4.384440578223603 m-3.847434510272666,0.8787830623799855 l0.7029290021149088,1.6374696047870445 1.0649708287950077,24.75443819016715 m-0.8423185929650456,-24.668119905894372 l13.422804888535017,-1.469415217669501 1.623951364332127,0.22839584213402017 l0.6615028549678257,0.8303468440623676 -1.0180221466885635,24.476054160619473 m-14.21612878480031,-13.242778098802646 l8.940342529737366,-0.6591382821857283 m-8.533244792523007,13.141796497693349 l13.562692070885504,-0.7641926327840437 m17.367863936106417,-31.66622275674593 l1.4784840635449816,1.4261290175461327 0.244667612334754,0.9406565048124452 l-0.07461588156154561,7.505935220797751 m-14.872175948840352,0.6582532418325882 l5.125751499068105,0.06654511457046579 22.479618162361017,-1.0483873891726858 l5.189131680554319,-0.007405259678506669 m-22.69690744169568,4.690438263503892 l15.1490410482771,3.5456465571537485 2.0297049069189788,0.7305306052130683 l1.5363039510546839,0.8231988595295159 m-12.647734502092645,4.308266795727424 l4.729404919286113,2.1089044929910066 3.168533728946828,1.6061240546994537 l0.7241602259707077,0.742235246269404 0.1709067674616068,0.9782236155645203 l-1.1477846861017276,3.145973178559293 -2.6456435421487225,5.218636295859473 l-2.7511889086484187,4.482872108635904 -2.2500422376587688,2.716225423953331 l-1.4661670144292052,0.8757633008819404 -1.4411190292820455,0.07347023353697157 l-2.0623359053984816,-1.2889516952938285 -1.372619628049817,-1.543785373233924 m3.3851719941626657,-24.48758115676687 l0.0685394561761005,1.6712525422093476 -1.0578957354445753,2.892845194895975 l-2.200662779926892,4.714566142305338 -2.427444046260262,4.075103985251573 l-2.3792561121731177,3.2137128906500987 -2.845659067258704,3.0837277584007876 l-3.418201574065731,2.846215656784808 -2.817041492411352,1.7909263241310587 " fill="none" stroke="black" stroke-width="1" /></svg>