<?xml version="1.0" encoding="utf-8" ?>
<svg baseProfile="full" height="110.14228789085091" version="1.1" width="104.40739069803314" xmlns="http://www.w3.org/2000/svg" xmlns:ev="http://www.w3.org/2001/xml-events" xmlns:xlink="http://www.w3.org/1999/xlink"><defs /><rect fill="white" height="110.14228789085091" width="104.40739069803314" x="0" y="0" /><path d="M25,25 m0.0,0.0 m14.793589176977887,0.2108162491301679 l0.36131367320318275,0.47711443355954186 0.5554397647035244,1.145769272240372 l0.10644451940536524,1.2634109605678545 -0.04528513429936156,8.283710766389314 m-13.098092787476187,2.4210560647872423 l3.5235700918883484,0.1349170780358476 15.845295293583778,-2.7676171329361443 l3.1665320773461927,-0.1837292940526854 2.204485531405056,0.26111171423175056 m-20.41341827729589,10.743544023445502 l0.7317074828350212,0.8495754008170977 2.111261711864574,11.3140772682955 m-1.9052853658774167,-11.18554199786999 l13.296361072820002,-2.584579269539649 1.355032214234097,0.14961002353844136 l0.682046587019889,1.1176381397698045 0.021205736560161264,0.8675810339839921 l-1.7928248940688722,7.539771273254782 m-11.575888165034064,2.3910856187937433 l12.842720342566889,-2.0519688938727465 m-7.605516112149986,2.971927931982515 l0.5591780539010349,1.2075847039279572 0.288712321453457,2.078736942870181 l-0.1618901352431597,20.423379977394376 -0.3085762154243612,1.2692041559419498 l-0.5225950578222334,0.3812370415839718 -0.656466719944202,-0.2712177286426212 l-0.7129468740838405,-0.7189687115875918 -1.7451129387225846,-2.4423707254515863 m-3.8524187280155595,-14.397376790925593 l-0.19746892912950761,1.73018445448604 -1.7614419967535417,4.444875989270549 l-1.9817184546745559,3.7582824984710816 -2.3214981513013146,3.4952685366524627 m19.343673243181225,-15.203899013348574 l1.9606827487294043,3.9514527863131064 1.2553854820492845,4.558872935781319 m4.334270528970359,-27.211159979692116 l2.7143301930558548,0.2611734453547489 14.845716361428654,-2.2237520760321874 l3.544586309946068,-0.3104157030267782 1.4411853921110065,0.15918652371434214 m-13.801668572746967,-17.624871571185643 l0.6152013960695705,1.0386054164874596 0.2538762847085911,2.021319894755683 l-1.0090832885730923,15.246108092155053 -1.43578237700463,9.980432827614772 l-1.7943950394872843,7.899454933530074 -2.486007061623205,7.3036830979350915 l-2.5231808048863766,5.0739131507288615 -3.0050901947596778,4.138438515271037 l-3.7649679832623364,3.4548047525383185 m15.784926229896122,-27.67128524884604 l0.5717086513417267,0.9790929896957752 0.4294592009315995,1.9411560703367485 l0.015968154517617326,20.292839325429387 0.26758248814162416,4.280119729812453 l0.4677383031576236,1.6745400826976742 1.183678906842674,1.2094319761994274 l2.283205496888294,0.5503279189803759 4.875557965380964,0.044616009107112393 l3.193324193976769,-0.4616535259253378 1.2439743966539054,-0.5932218281010636 l1.0744450106311854,-1.3049556945009113 0.45903633430513946,-1.2385092579844708 l0.28160203300962167,-4.270494617155016 m-8.319840533933341,-48.67699180342573 l2.5257241009361175,2.563305222669244 1.5069517894368347,2.3587132727939424 l1.071234896956095,1.9075503659065391 " fill="none" stroke="black" stroke-width="1" /></svg>