<?xml version="1.0" encoding="utf-8" ?>
<svg baseProfile="full" height="107.78939099856495" version="1.1" width="107.59482973025547" xmlns="http://www.w3.org/2000/svg" xmlns:ev="http://www.w3.org/2001/xml-events" xmlns:xlink="http://www.w3.org/1999/xlink"><defs /><rect fill="white" height="107.78939099856495" width="107.59482973025547" x="0" y="0" /><path d="M25,25 m0.0,0.0 m29.749502761794528,5.640210750081441 l0.39938887341035845,0.45750855195740875 0.567358363636894,1.1018350453804275 l0.19931596180332167,1.2100623510233819 -0.06650922352435272,7.673536289073681 m-25.26952641372399,2.0754654129791708 l5.128353313237526,0.27661902399983823 40.72572857567378,-2.10753889797738 l3.2126660908034563,0.02204304995658035 2.948551427143956,0.39579150243839 m-29.698829917331512,2.547846884624867 l-0.028214254802636795,1.4597171689997719 -1.0697911339700945,1.1267104364860043 l-4.19034721632262,3.358881620455794 -5.23424292828349,3.4063306273335363 l-0.4045572002976817,0.8005102694454928 1.4086963272092285,0.6677856651751319 l4.5823384793275865,2.8205294845241995 m12.25402637702857,-9.114780294542546 l-0.0016148076471567433,0.9611831784188736 -0.5172977043141561,0.9565694829955355 l-4.741227231375271,4.158710362617432 -5.930193746104655,4.614147106628528 l-8.15965617434124,5.264875099943882 -9.622263708091108,5.447428378260531 m31.568958625839095,-10.172164333300719 l-0.5336086564621032,1.701144273953542 -3.053395292442168,2.808760193128307 l-5.935202407336415,4.599709542490021 -5.7408470741726845,3.7953386022327096 l-4.783214091408617,2.786771934653647 -5.3214210224821,2.6112631401572455 l-5.994693373743913,2.3949954040212655 -5.73711741381125,2.041593690948965 m27.960591177518513,-11.276472021938874 l5.038719928948755,2.050644812252984 6.002042729812247,3.2440217838912826 l4.9407807494675815,3.3714042304574146 2.36002801385903,2.4360010775286534 " fill="none" stroke="black" stroke-width="1" /></svg>