<?xml version="1.0" encoding="utf-8" ?>
<svg baseProfile="full" height="101.14659651736201" version="1.1" width="106.73642060884154" xmlns="http://www.w3.org/2000/svg" xmlns:ev="http://www.w3.org/2001/xml-events" xmlns:xlink="http://www.w3.org/1999/xlink"><defs /><rect fill="white" height="101.14659651736201" width="106.73642060884154" x="0" y="0" /><path d="M25,25 m0.0,0.0 m32.277364957607524,6.649786001118027 l0.375790639142136,0.412221893781905 0.6051105301270956,0.8858733818317338 l0.2727361389498875,1.0306118542273097 -0.030456045561797193,6.27854213224291 m-22.509764484980103,1.1944547470811528 l2.3939821759178805,0.29644865519634955 2.5761016411293993,0.010468965714532808 l21.083621992784902,-1.7249616327262975 16.279455485277477,-0.8882429169102387 l3.412477578447144,0.42072553006926755 m-37.090826422808775,8.567290329399437 l0.7146599020627192,0.7684350503056916 0.3606927853904267,1.4543163162808572 l-0.0019188359635296344,19.005150646194853 m0.560718763066782,-19.69319780813758 l21.79469300266569,-2.065143882888629 2.0942938337900405,-0.00655957876490919 l1.059675220123749,0.32590320580403737 0.6888964528077962,1.6842378654819252 l0.0010603715639477102,19.09545944648136 -0.2976752485815274,1.2076331176480053 l-0.4942454305309503,0.4760745683746835 -0.6396889192788882,-0.063644749415851 l-1.4999175071090312,-0.8998022672737241 -1.7158396368851594,-1.368646784437965 m-11.190386855593525,-23.464751254311818 l0.5483034173533685,0.777530517653072 0.234612073047662,1.3439524437565213 l-0.08626532140897414,29.436430723585396 " fill="none" stroke="black" stroke-width="1" /></svg>