<?xml version="1.0" encoding="utf-8" ?>
<svg baseProfile="full" height="110.76972391986092" version="1.1" width="106.20505588367959" xmlns="http://www.w3.org/2000/svg" xmlns:ev="http://www.w3.org/2001/xml-events" xmlns:xlink="http://www.w3.org/1999/xlink"><defs /><rect fill="white" height="110.76972391986092" width="106.20505588367959" x="0" y="0" /><path d="M25,25 m0.0,0.0 m10.164763377132049,2.934870463223831 l0.39646046844112925,0.2677852418196246 2.8635694065699755,2.865334886336868 l1.504958600046913,2.074295403709165 0.5639241363307079,1.3424793268909674 m-11.472083558680023,6.115547895296053 l3.0386682476822724,0.0975803605435552 11.243725230984642,-1.5469389517567962 l3.403464459540967,0.035677755324953486 m-14.609099384734915,9.662080201413204 l3.4511782639389432,-0.03521263126932572 7.016592417059884,-0.9950736835800824 l2.276676949395299,0.07552272286909083 m-12.967916522680385,9.109873968014782 l2.701495200733211,0.005408032952737317 7.689013214352536,-1.3161633322105697 l2.9120790906074014,0.05853612111486689 m-13.405267063291001,9.933630455280989 l0.5318080323329553,1.0319605818456634 0.29245287892617566,1.3743460704516652 l1.7650630741619877,11.892853016930209 m-1.8651330481093056,-13.35080191481621 l10.821816164371123,-2.01196970267497 1.0639718400259868,0.37596590792961015 l0.25605299085503813,0.9934125395280909 -1.6320798846844922,10.22866219202848 m-8.581609017919355,1.8141472065270772 l9.87778731787839,-1.2314395565432394 m14.627948296688166,-48.705194037616835 l-0.14024338211831044,1.7351749082103833 -0.4507376199494988,1.5737855342968943 l-5.304460017891307,9.50506924019621 -4.041754838301203,4.687798182897587 m9.227653440487467,-11.844199786396358 l5.59365636877014,-0.4211843634140681 8.017127689144708,-1.7292285258551292 l0.6410370827980505,0.07173131625540234 0.43233081133900153,0.4222663761607594 l0.14335585798447878,0.6524842869030795 -0.20472426951910974,0.7672175088151431 l-6.365876559915173,10.691547828890604 m-14.430057796635882,1.5164284527387386 l2.4198699062044247,0.33845984325322415 21.531410896922694,-2.600261409672137 l3.5361731565718033,-0.14694618515625998 1.6700139798310325,0.36930840395312886 m-26.57219151484936,2.8172057606046685 l-0.05479841636531717,3.675031203388807 -0.7140640874771815,8.495119428481956 l-1.6342818635285838,11.43814867312549 -1.2176628942396088,5.347900697973618 l-1.1581266115810258,3.872795483258116 -1.344687448708546,3.4876383105342126 l-1.585576988628099,2.94925621085338 m11.230563775296016,-35.67582749544417 l2.093916396589046,0.2909998139702288 13.064713076484441,-2.431018463367615 l0.6759837335278985,0.1424228989967019 m-9.370211280098369,2.227133008595842 l0.2790153854229463,1.5788100340809268 -2.2358861122910114,6.329185918625839 l-0.04312637675100033,0.9703922163246272 0.5300299159227718,0.40777435146645985 l1.1816341688189647,-0.09966321478870667 8.182467226204041,-1.8143078396593921 l1.9523033671142902,0.0015041902950327173 m-14.66605957358254,2.3971750311759874 l0.28180761982266195,1.5968683223265008 -0.2713884703311522,3.6956203010791002 l-0.6078019704177291,3.25229862592351 -0.8286568597910371,2.8065978236277553 l-1.0844183373281857,2.695326107765353 -2.6400185722520297,2.4678945003362784 l-1.8294336638598725,0.9816944109715382 m13.8453058689686,-19.412997451748844 l0.4622957259371816,1.0315661456763499 0.21859156546388792,1.3769306278827353 l-0.17889947438212692,16.314307271666497 0.2917852341026648,2.0431593059013053 l0.6346259115745458,1.8760565092850607 1.213967759265061,0.9340309156616764 l1.7304797129454466,0.3642764820465529 4.092510649806731,0.02082017905504386 l2.010343657937752,-0.4117888971211016 0.7952586415696109,-0.5643992499969611 l0.7454255569158749,-0.9045329623932081 0.3977938729814346,-1.1443576733612129 l0.19890292428889914,-3.0075330262715103 " fill="none" stroke="black" stroke-width="1" /></svg>