<?xml version="1.0" encoding="utf-8" ?>
<svg baseProfile="full" height="89.40772766469198" version="1.1" width="86.6303969095974" xmlns="http://www.w3.org/2000/svg" xmlns:ev="http://www.w3.org/2001/xml-events" xmlns:xlink="http://www.w3.org/1999/xlink"><defs /><rect fill="white" height="89.40772766469198" width="86.6303969095974" x="0" y="0" /><path d="M25,25 m0.0,0.0 m11.523463901534413,19.73615563641829 l0.3573510258499295,0.4018150981418146 0.5103614812000541,1.095895305038869 l0.21400542869448785,11.838084057809168 m-10.241403143361731,-24.58300460007751 l0.7333925279988548,0.9571868546665265 0.22306663298632173,1.4672147465582137 l-0.5039248468955927,20.235799425283133 0.3093623359318434,1.376179236718045 l0.5761491124534199,-0.12134048016208529 1.0914445222635298,-0.20564325568300748 l10.718156232942086,-1.6430738093365294 m1.4813280568771439,-15.83236895265845 l0.559324023237495,1.4197917767666826 -0.019847556078377796,1.992077812227413 l-0.42844152765715143,6.768158692064411 m5.416148014532564,-15.097420789588597 l1.3963908432438794,2.7747362003788303 1.1187436513103282,3.1445126256284497 l0.3427114006305352,3.2392097945951726 m9.247291814635101,-10.751752372234959 l0.08525736086467825,1.2017298620921668 -0.45256824430900916,2.2705394102599246 l-2.173415448417624,7.07579332440492 -1.7428740609871751,3.579252818113819 m-10.480479512399953,3.257372523326126 l0.5716713341160431,0.694213600721669 0.2953074463813177,0.7594888971549293 l0.2068502466002919,12.35562449982947 m0.10842507414923111,-13.261795253465182 l13.752641746117154,-1.7887394558717964 1.1802169675898204,0.3446206260586017 l0.5950816018879999,0.8168635042342567 0.05920846567547922,0.5990258475445075 l-1.4150055944633837,11.817487423657957 m-13.903521851511222,1.4740370340767144 l14.810868264066892,-0.9091192313251819 " fill="none" stroke="black" stroke-width="1" /></svg>