<?xml version="1.0" encoding="utf-8" ?>
<svg baseProfile="full" height="102.43991805534887" version="1.1" width="112.94636539538558" xmlns="http://www.w3.org/2000/svg" xmlns:ev="http://www.w3.org/2001/xml-events" xmlns:xlink="http://www.w3.org/1999/xlink"><defs /><rect fill="white" height="102.43991805534887" width="112.94636539538558" x="0" y="0" /><path d="M25,25.912322984840692 m0.0,0.0 m19.82417529927425,0.6767864614909143 l0.35375138674078555,0.3480916764868275 2.785567332883112,2.9690567075254526 l1.4880403988158142,2.9546837514648385 m-12.314276077681589,6.379877247997562 l3.112683109981157,0.09802992697720621 11.760018854686882,-1.8683863071340745 l3.1618017401393215,0.03375717981216946 m-14.142580283671972,10.468805652660622 l2.934965535965839,-0.06173629847203247 6.120109628757609,-1.1574142668586895 l3.1384103251107267,0.01535233387525101 m-11.370258970959783,9.620857450049385 l2.7341859534983284,-0.03640719725345994 5.4864596500409775,-1.1801652327783045 l2.9679867641188205,0.0003492341059778772 m-12.04105797766472,9.454810395649599 l0.49900455910876723,0.7639906118826665 0.19090129673546843,0.9731656496300737 l1.7335718513359613,11.07409009339617 m-1.4591863833374021,-12.178128795318228 l10.172486483951248,-2.252259181821023 1.290367151833804,-0.002560872793378995 l0.4520273579808957,0.5251708991025301 0.08660222855716558,0.6752033095929564 l-1.9310902737444715,9.727254392058725 m-8.2553753076768,1.9884725809092447 l9.207224032674018,-1.57344312987538 m13.016110516538536,-49.3496272572043 l2.0003557243309342,1.3424919919692608 2.4573176930186085,2.350038651815334 l1.5990866056776079,2.0717007195880868 0.9093027850867655,1.8294188751243952 m-13.60081461535838,9.174349849040167 l2.4923697396864988,0.05027153809053179 16.638030065526515,-2.5257963207426664 l2.93362326798714,-0.2035532829986244 1.838099434615116,0.3350879952488853 m-22.620760835369992,18.220492876733765 l2.578602553638514,0.19644958849537994 15.776236932120968,-1.8271278954449846 l2.8305797512720785,0.18131954101376455 m-24.972878812900987,19.6140175584581 l3.557153888831728,0.09234072073783818 11.830446245471032,-1.0013946730443237 l11.681048658881958,-0.6072840954921965 1.9767626543411925,0.08946803801097325 l2.0391774745355375,0.49046635381257014 m-18.30217586774916,-32.92638175074403 l0.650116733589939,1.1511647712913848 0.5022523158395936,1.6783660924609594 l0.1523336303348543,29.268358577452087 " fill="none" stroke="black" stroke-width="1" /></svg>