<?xml version="1.0" encoding="utf-8" ?>
<svg baseProfile="full" height="135.96978185912513" version="1.1" width="92.92935234218943" xmlns="http://www.w3.org/2000/svg" xmlns:ev="http://www.w3.org/2001/xml-events" xmlns:xlink="http://www.w3.org/1999/xlink"><defs /><rect fill="white" height="135.96978185912513" width="92.92935234218943" x="0" y="0" /><path d="M25,25 m0.0,0.0 m14.803406084423916,7.973843529772063 l0.013352354641857139,0.4875388179920159 -0.21380936071986742,1.28642645638258 l-0.7732577638558927,1.9094762111366677 -3.0308061422289665,5.652603566417896 l-3.703549109523012,5.347049850923593 -3.8043205697323588,4.361798524733424 m12.309993180441078,-15.311906471369783 l1.9481885802031886,1.070193103044314 2.129138324350958,1.8815254214809067 l1.7790329198942891,2.178354179550863 1.0278381119876339,2.0195046028298083 m-14.425428863018524,5.834839229816995 l2.2679710419962262,-0.04162127888632569 7.183515213875494,-1.3812988492448337 l3.0753482203536917,-0.23921307343347153 m-16.345508643486436,10.963869021410941 l1.5221770701073123,0.2567404496872472 1.5866769372788143,-0.11951347260606747 l12.538008951150466,-2.332392310019601 1.6658588299149049,0.027256373979614366 m-7.650813031748223,-5.545921867315791 l0.5184329215750578,0.953663827938041 0.1734180536576115,1.3078583371729535 l0.03531234099665149,20.259876832303334 m-8.945656036522928,-8.039959949720018 l2.016119772257322,2.601617499960516 1.4087562312879334,2.968996325726825 m12.791643030364465,-10.075968464032226 l-0.09447073644557354,1.429597216975054 -3.3026723901144037,5.905035153086674 m-14.034757219317,9.145566814202606 l0.9881425933811903,0.5103676909720137 1.1131400807743945,-0.20576890660127078 l14.733345793499359,-7.152992794513253 m4.962727813152975,-37.11307186643218 l0.6883102520903753,1.9417661581877936 0.05161475013207465,42.93032643972989 l0.4370510356190125,1.6881312156513877 0.4338660621535083,0.4825967608955821 l0.5315668395274694,0.016476556170245127 0.6347949013514917,-0.1294854544785659 l7.858780470638109,-6.8232365242920965 m-11.752184932940017,-14.433770462823352 l6.240051515912014,-1.3098803174958034 7.883488699395594,-1.512356313426586 l1.9609323541180064,0.050290828261618375 m-9.058600091613984,-10.532135301626312 l0.46956054059624147,0.8196517219188028 0.25403880071453155,1.2349702155141946 l0.4999906752287346,8.294515908105618 0.8386893013309561,16.15204113806815 l3.520570662398198,5.636663047559951 3.243091799456481,1.5886646421069512 l0.786688468217599,-0.055776227679767226 0.6107787098360578,-0.4424684216213669 l0.3645588323723516,-0.8846678687794415 0.16521811080102325,-2.074897472536419 m-19.53414025148539,8.998367134158544 l0.5411787435703413,1.9304029066343458 0.9235038323164294,23.28499529977691 m-0.5234790259786554,-23.99668361503811 l13.91565240427075,-2.4612229156271894 0.6183387650005926,0.07780773438079754 l0.8107774997454115,0.497300053301294 0.3553421616693559,1.1800535389088995 l0.023247168784663423,25.047371721897022 m-15.125126502035839,-13.758395866830787 l14.437244188624495,-1.7073580292526354 2.3972244933094853,0.02053513843440908 m-15.80739056370177,14.086308474091226 l14.592900134651453,-1.4010795549080712 " fill="none" stroke="black" stroke-width="1" /></svg>