<?xml version="1.0" encoding="utf-8" ?>
<svg baseProfile="full" height="108.1094498350285" version="1.1" width="109.4925142894499" xmlns="http://www.w3.org/2000/svg" xmlns:ev="http://www.w3.org/2001/xml-events" xmlns:xlink="http://www.w3.org/1999/xlink"><defs /><rect fill="white" height="108.1094498350285" width="109.4925142894499" x="0" y="0" /><path d="M25,25 m0.0,0.0 m10.462486743927002,1.1333202570676804 l0.45755088329315186,0.31458768993616104 3.0161285400390625,3.078943192958832 l1.9246827065944672,3.284892737865448 m-15.860848426818848,6.7331719398498535 l2.0110957324504852,0.22578811272978783 3.354572355747223,-0.2235623449087143 l16.77526354789734,-2.121235728263855 2.625168263912201,0.07339092437177896 m-18.749632835388184,11.170694828033447 l4.213038086891174,-0.023501829709857702 10.788658857345581,-1.248825564980507 m-14.388996362686157,9.896554350852966 l2.098624110221863,0.09979964233934879 10.556279420852661,-1.122123822569847 l1.9592651724815369,0.05931771360337734 m-15.168858766555786,10.094265937805176 l0.6161319464445114,0.9985112398862839 0.393449142575264,1.6802036762237549 l1.936095952987671,11.858909130096436 m-1.44164577126503,-13.54323148727417 l12.30238676071167,-2.1369822323322296 1.0764288157224655,-0.0599398510530591 l1.4272291958332062,0.5398448556661606 0.3580086678266525,0.5340954288840294 l0.02076656324788928,1.4327213168144226 -2.354859709739685,9.54712688922882 m-10.64346432685852,2.073223739862442 l11.95742130279541,-1.391831636428833 m4.55560028553009,-31.326274871826172 l1.8610960245132446,0.2785894460976124 1.811324805021286,-0.0877966545522213 l25.268959999084473,-3.457375466823578 2.126084268093109,-0.056829159148037434 l2.1470223367214203,0.3006860986351967 m-10.972983837127686,-17.585331201553345 l0.903259664773941,1.4076639711856842 0.3339383378624916,1.9455352425575256 l-0.1467335782945156,51.7396354675293 -0.38581185042858124,1.2933622300624847 l-0.5818070098757744,0.6212806701660156 -0.7283743470907211,0.07817495614290237 l-1.694963425397873,-0.9586943686008453 -2.9437032341957092,-2.776884138584137 m-9.91303026676178,-22.91255474090576 l3.0772268772125244,3.212810456752777 2.370648980140686,4.519902467727661 " fill="none" stroke="black" stroke-width="1" /></svg>