<?xml version="1.0" encoding="utf-8" ?>
<svg baseProfile="full" height="109.49251462705433" version="1.1" width="109.46501638740301" xmlns="http://www.w3.org/2000/svg" xmlns:ev="http://www.w3.org/2001/xml-events" xmlns:xlink="http://www.w3.org/1999/xlink"><defs /><rect fill="white" height="109.49251462705433" width="109.46501638740301" x="0" y="0" /><path d="M25,25.000002848682925 m0.0,0.0 m9.927912950515747,1.104964092373848 l0.4964122548699379,0.3069482557475567 3.2693713903427124,3.002963364124298 l1.3353490829467773,1.731816977262497 0.7476796209812164,1.4720278978347778 m-15.631030797958374,6.248176097869873 l2.683935761451721,0.18974842503666878 17.301621437072754,-2.040461301803589 l4.392255544662476,0.02054939977824688 m-19.591737985610962,10.065916776657104 l3.3683228492736816,0.013775440165773034 9.412969946861267,-1.2999382615089417 l2.0213907957077026,0.03907695412635803 m-14.720278978347778,10.018261671066284 l2.3301590979099274,0.05790442228317261 11.05278491973877,-1.5477721393108368 l2.226574420928955,0.039475117810070515 m-16.308797597885132,10.065916776657104 l0.8569730073213577,1.3370037078857422 0.3803345188498497,1.615656465291977 l1.5416496992111206,11.185160875320435 m-1.301262080669403,-12.782285213470459 l12.49072551727295,-2.12125226855278 1.624922901391983,0.09895151481032372 l0.48648402094841003,0.3772733360528946 0.21875234320759773,0.6314364075660706 l-0.08678941056132317,0.9120748192071915 -2.2906944155693054,9.088978171348572 m-10.425982475280762,1.6136708855628967 l12.240865230560303,-1.0776283591985703 m9.557591080665588,-38.73869180679321 l3.6152052879333496,0.11909757740795612 18.35831880569458,-1.888124793767929 l4.121214747428894,0.11522711254656315 m-14.82617974281311,-9.975901246070862 l0.6719767302274704,0.9054559469223022 0.4191374406218529,1.6361749172210693 l0.18301066011190414,18.87591242790222 m-17.251319885253906,1.6136708855628967 l4.2413464188575745,0.18143868073821068 25.448410511016846,-2.4996426701545715 l4.875430762767792,0.2036014199256897 m-33.25300455093384,12.379860877990723 l3.7492361664772034,0.20888615399599075 24.83252763748169,-2.6691260933876038 l4.493524134159088,0.09487162344157696 m-11.0560941696167,-7.910826206207275 l0.7381650805473328,1.0702648013830185 0.4275350645184517,2.020729035139084 l-0.040147341787815094,32.19597578048706 -0.40639620274305344,0.9081035107374191 l-0.6046301499009132,0.2771635353565216 -0.7432946562767029,-0.21064426749944687 l-3.173729181289673,-2.853708863258362 m-11.225535869598389,-17.367810010910034 l1.3790333271026611,1.1549858748912811 1.9442814588546753,2.2212794423103333 l1.5842169523239136,2.3953546583652496 0.6362350285053253,1.5143883228302002 " fill="none" stroke="black" stroke-width="1" /></svg>