<?xml version="1.0" encoding="utf-8" ?>
<svg baseProfile="full" height="102.93385191820562" version="1.1" width="109.49251005775295" xmlns="http://www.w3.org/2000/svg" xmlns:ev="http://www.w3.org/2001/xml-events" xmlns:xlink="http://www.w3.org/1999/xlink"><defs /><rect fill="white" height="102.93385191820562" width="109.49251005775295" x="0" y="0" /><path d="M25,25 m0.0,0.0 m8.441324234008789,1.5623469650745392 l0.4420860856771469,0.29989466071128845 2.9123392701148987,2.935606837272644 l1.8546287715435028,3.1311199069023132 m-13.650377988815308,6.514953374862671 l2.5235748291015625,0.20115341991186142 16.149392127990723,-1.850629597902298 l2.486734241247177,0.054493253119289875 m-16.28738284111023,10.516996383666992 l2.368456870317459,0.0722166895866394 9.341331124305725,-1.3328830897808075 l1.8038922548294067,0.06287527736276388 m-12.688647508621216,9.482876062393188 l3.220635950565338,-0.04065786488354206 8.2302987575531,-1.3189467787742615 l1.6461890935897827,0.1218978501856327 m-13.981297016143799,9.720723628997803 l0.6639371067285538,1.0034191608428955 2.056282162666321,11.796395778656006 m-1.6145192086696625,-12.161246538162231 l11.138436794281006,-2.1508878469467163 1.7030656337738037,0.02270215656608343 l0.4921763017773628,0.35515543073415756 0.13475870713591576,1.614196002483368 l-1.813344657421112,8.656226396560669 m-9.565606117248535,1.9596566259860992 l10.384175777435303,-1.2839241325855255 m19.58622455596924,-48.31406593322754 l0.5771679803729057,1.0134371370077133 0.2276274934411049,1.2561321258544922 l0.022500178311020136,7.8428274393081665 m-12.90581226348877,1.9661197066307068 l1.080331802368164,0.27832359075546265 1.2932957708835602,-0.05241036880761385 l21.814751625061035,-3.040069043636322 1.8236051499843597,-0.03645675256848335 l1.7935511469841003,0.3751511126756668 m-14.736204147338867,1.7411987483501434 l0.6396999210119247,0.9339392185211182 0.33911850303411484,1.7699602246284485 l0.013794993283227086,33.538756370544434 m-12.243975400924683,-18.0764102935791 l2.7501118183135986,0.21151985973119736 18.819037675857544,-2.035316973924637 l3.2552143931388855,0.2222246117889881 m-28.789889812469482,21.06501579284668 l3.0222144722938538,0.34193605184555054 14.603060483932495,-1.3318328559398651 l14.349055290222168,-0.7901521772146225 1.960625946521759,0.03258890239521861 l1.8048617243766785,0.4038317874073982 " fill="none" stroke="black" stroke-width="1" /></svg>