<?xml version="1.0" encoding="utf-8" ?>
<svg baseProfile="full" height="86.09565866505417" version="1.1" width="102.71794941277116" xmlns="http://www.w3.org/2000/svg" xmlns:ev="http://www.w3.org/2001/xml-events" xmlns:xlink="http://www.w3.org/1999/xlink"><defs /><rect fill="white" height="86.09565866505417" width="102.71794941277116" x="0" y="0" /><path d="M25,27.551901667215354 m0.0,0.0 m20.161350763994086,0.7678823750969366 l0.0019992475150804262,0.531789120481205 -0.16828669481018915,1.0081882951636632 l-1.0626941774896548,2.0781867095584703 -3.2328410176095392,4.81978461108772 l-3.4894532681608315,4.204223563459104 -4.024531194903931,3.483683230587673 m13.236410173495445,-13.304201186809134 l1.9171280014025043,3.0905299640733506 1.9850824775085365,4.03617642573419 m-7.170605228788923,0.071896728848516 l0.44119358776164974,1.4695611172748235 -0.00741643087315656,11.22823186024772 m-6.871567452507173,-9.330649659347552 l0.7651084895871035,0.2938739155951309 1.2993082504543174,0.02538484952179917 l8.30587031172016,-1.2431944637844443 1.6315895511714542,-0.04628592918300587 m-6.6477290932029005,7.001512004512309 l4.39076287007939,-1.5375248395331078 2.37536142857622,-0.1256359654182991 m-5.995331821916461,-4.8711906497617345 l0.3813390132783175,1.4331807949000435 0.023080527664557815,10.468885152869602 m-5.4235406917016205,-6.629761372901945 l0.439655364629266,0.6911250069979759 0.14501058837294561,0.7954101647275958 l0.19050225291390394,7.471565086542123 m-3.299926659280791,0.591700807872018 l0.6073860999686945,0.2122850225662518 0.835373672795901,-0.08886292791985805 l10.821399240643673,-4.675588473558018 m3.7045957248211216,-24.9943233966085 l2.0002842812054227,0.202245039290748 11.91906766523955,-1.5443728754513941 l2.048715237481805,-0.1376117739473239 1.175403471583042,0.18392948535430748 m-9.777570056499266,1.9439893581703631 l0.04251878080552431,0.6760613415153606 -0.34034244124680163,1.1876534314933092 l-1.4716483284489839,3.0691636816423022 m-4.288558303704271,0.7212057700460306 l0.4665866742677173,0.7395394855293483 0.16562515104453424,0.8753002947087637 l-0.0005026407508232222,15.684084817818148 m0.4655699164222322,-17.03491957736184 l10.887971367389488,-1.4207858935227684 0.9409385924509193,0.05548515132630376 l0.39473614796712886,0.20120120698387903 0.3471075982941722,1.3307182569457658 l-0.04141670762280296,15.606130696376441 m-12.392516788344063,-10.805721384583775 l11.845367359942417,-1.1619486151164737 m-12.025663740662777,6.302385767888876 l11.820849345684136,-1.0183179073684678 m-11.654929014610564,6.503281441167783 l11.71715462353128,-0.8664024344666496 m-9.647304707581968,2.7009365623083137 l-0.11996716713374893,1.0514124487141536 -0.6529350194344087,1.2408431360397003 l-2.2551212122068254,3.0753520479047123 -2.9192777469035156,2.7852156146808165 l-3.706217081215826,2.469864480859461 m15.139951730630777,-11.561643368107127 l3.0512462802988654,1.325867169131673 10.377331222005882,6.217453574517508 l2.9399110157837547,1.4214249015907245 " fill="none" stroke="black" stroke-width="1" /></svg>