<?xml version="1.0" encoding="utf-8" ?>
<svg baseProfile="full" height="102.99132892115293" version="1.1" width="98.14083730423974" xmlns="http://www.w3.org/2000/svg" xmlns:ev="http://www.w3.org/2001/xml-events" xmlns:xlink="http://www.w3.org/1999/xlink"><defs /><rect fill="white" height="102.99132892115293" width="98.14083730423974" x="0" y="0" /><path d="M25,25 m0.0,0.0 m10.405587827377962,3.6451371904677967 l0.4343848260774905,0.2733422560015957 2.626773754413266,2.4761020318566143 l1.377101047508163,1.8839759974546166 m-11.718582959463376,7.065258214216974 l2.6279053655546756,0.13484692747023955 12.655633742593157,-2.030333512844775 l2.0760256347608443,0.01323390574458139 m-13.304493319819542,10.019251128075696 l2.4768911523096726,0.013085764066522136 6.153521171058679,-1.2025764303080737 l1.9296883657695656,-0.06692942514110424 m-10.63498476520975,9.346190977013972 l2.851224761421377,0.011371074505692448 6.384340810948624,-1.1670727578398687 l1.5833982668744067,-0.04867251781711973 m-11.757411357359592,9.323495906845675 l0.7809029455441561,1.6135667775237046 1.422907236233018,10.824137815551325 m-0.9950996627780417,-11.677858709438794 l9.354927419842692,-1.8535892311877724 0.6076504929083298,0.03648407649397187 l0.8628648119733884,0.3616143501242118 0.38540679751807183,1.1018281675592272 l-1.832848918080851,8.137750979720494 m-7.973092957132645,2.2020061294287654 l8.959955765410857,-1.4255429169890745 m6.340462779682255,-36.877910602026084 l1.0694542705219579,0.10602781223992325 1.8291924276599658,-0.10366843070396094 l12.940696252182256,-2.54148903911239 1.2878167547239574,-0.18240034747811293 m-8.813369659983065,-6.968536261500381 l0.6121150446825608,1.0664658884821687 0.22852443361739022,1.2890314804793304 l0.009924874539884257,20.451036322814513 m-13.490860140921308,-7.48586872832427 l2.465038256954497,0.18990961563176492 19.544252811191722,-2.266307920777171 l2.8526854394889956,0.1878886274505387 m-27.830961799772194,9.665146795366471 l2.631143948136574,0.2435847086518206 23.21465388340928,-2.81499730823111 l3.4692576493010967,-0.23475440854584043 2.0402318225693086,0.2830660111369583 m-25.736932872410947,3.78301308872138 l0.4460250415595245,1.0565631555427109 0.11600110178905651,1.2031703507794012 l-0.1487846126069907,22.650280411521763 0.04739087538637516,0.793978518383301 m1.0803541870739513,-24.57942360119673 l14.878892353273182,-2.1037829960911485 1.280829441650321,0.09334667810789739 l0.874536537807605,0.7333781370133947 0.2788239142493236,1.6413902940554626 l-0.3126898813509885,22.434028523669856 -0.2732402305219419,1.6356175364797325 l-0.5093094649245123,0.6334404400566455 -0.6626642782850548,-0.06788316314122772 l-0.7156188460458002,-0.5375447587030944 m-13.092991681048478,-17.922356036757968 l9.649369351025879,-1.2649901696753274 m-9.167095828805053,8.445282933490601 l9.403464076705955,-0.9249032006291916 " fill="none" stroke="black" stroke-width="1" /></svg>