<?xml version="1.0" encoding="utf-8" ?>
<svg baseProfile="full" height="119.88461498022272" version="1.1" width="106.23615326640117" xmlns="http://www.w3.org/2000/svg" xmlns:ev="http://www.w3.org/2001/xml-events" xmlns:xlink="http://www.w3.org/1999/xlink"><defs /><rect fill="white" height="119.88461498022272" width="106.23615326640117" x="0" y="0" /><path d="M25,25 m0.0,0.0 m11.712766690249083,3.3671135053964942 l0.39918416428853276,0.3201409734522443 2.7771293603578866,3.187217856093345 l1.3103895838148294,2.1672847188914255 0.701478477827128,1.7359009587341148 m-12.429156525993058,6.64023418164285 l3.295700235985644,0.10057687174551984 12.66174734689296,-1.954103220324614 l3.5749984840471227,-0.0021848029995180443 m-15.973483293016558,11.027299630565542 l3.300141436753206,-0.054322991777606876 6.473994975951453,-1.1401699071907585 l3.3506047784573845,0.038359754585692955 m-13.02288325325442,10.321868892507009 l2.8849399771985222,-0.01730556507327767 7.5520768809209455,-1.3947272828933521 l2.9983271498514856,0.03717016191949088 m-13.747391078012756,10.501856883467227 l0.5765345520275509,1.0281771538006172 0.2119472524206311,1.5036129059276864 l1.7322466149009892,14.701843250045583 m-1.7104652377330658,-15.675785371056412 l12.143408206029576,-2.12070338093286 1.1357577289127967,0.4796404336961419 l0.2780466493867484,1.0780629318943664 -1.9483115314127624,11.886750470505406 m-9.627894288846042,1.6389648344081005 l10.844385481095635,-1.240066150435991 m15.431638966505878,-45.103207596464955 l-0.29405451001312954,3.278520524709494 -3.523901989414037,8.963460565805452 l-3.6143262456690683,7.2939785143499 -3.6583401938294458,6.012390695643137 m7.77924525290131,-9.496162926658975 l1.091773514146103,0.42445610780778464 1.3642428398405173,-0.07915672465977687 l18.742469419815357,-3.4404366471818646 1.2615218347080641,1.0665885009584228 l0.19966355830817156,1.5859023274142932 -0.14883013245838123,3.0997372471114484 l-1.4567813534958114,11.948504590475137 -1.6414312529531574,9.480236845957732 l-1.924239068486805,8.275041102983401 -1.8886496736761451,6.0898457154579395 l-1.0845676877087223,1.9999450003329156 -0.5435278037080805,0.3222634395867828 l-0.5742873911730086,-0.06784346547927744 -2.4441255609647907,-2.4840126348169167 l-1.2778782430148767,-2.241310765056402 m-14.73026141890808,-27.362898159490168 l0.49399698096154276,1.632846892507192 0.0894719577670706,1.721422683315887 l1.1044239430236025,13.763500282217581 m-1.359102724897017,-15.920718491175823 l9.367788991830048,-1.889726591174566 1.2362234295813213,0.04271232250948522 l0.4550767573891169,0.48057142112604767 0.12420578270975474,1.5112411825631424 l-1.913503597776799,12.087893849864104 m-7.89343633968929,1.3796481780512773 l9.295149862880022,-1.3148999856943238 " fill="none" stroke="black" stroke-width="1" /></svg>