<?xml version="1.0" encoding="utf-8" ?>
<svg baseProfile="full" height="113.96963595866629" version="1.1" width="104.481236689475" xmlns="http://www.w3.org/2000/svg" xmlns:ev="http://www.w3.org/2001/xml-events" xmlns:xlink="http://www.w3.org/1999/xlink"><defs /><rect fill="white" height="113.96963595866629" width="104.481236689475" x="0" y="0" /><path d="M25,25 m0.0,0.0 m23.41795327572445,3.3021628128453044 l0.07742717119529112,0.4422940209477972 -0.30398030486761185,1.610027986079664 l-2.9175113716094603,7.6908609124779534 -1.4775067277881717,3.2712174822104445 l0.23148371552601563,0.8685956626410177 2.618965994946091,0.5876884046868797 l2.02348304630887,0.893906927283201 2.089053187752119,1.1812569346580764 l2.2188815594503444,1.6652902855967906 1.8490011277504228,1.971314300047999 m0.4470820579794298,-15.612729015257063 l0.028615700427159028,2.112249624182076 -0.7529650385344483,2.7889217268193893 l-1.2589159018538734,3.0519538063193967 -1.7963980056707143,3.138130931378268 l-1.8543519701968558,2.410890264101419 -2.2337957647453712,2.222812863941861 l-2.596904201783199,1.9338777039392911 -2.2210182062099273,1.213877918190835 m-3.2211804574934724,-15.251492089287405 l0.6974409911643135,0.76458233100229 1.0696138716924355,0.0945595806896827 l17.438078071059,-3.9913182976473904 m4.109257846046015,-2.4029816581455123 l2.0752055715430493,0.13173190519280925 9.879844261651867,-2.168409593162211 l0.5822415170696288,0.03429643286529843 0.4425965381779338,0.3084282671017391 l0.24235842191673482,0.4758540735564891 -0.057781262936379606,0.5789796586697602 l-2.778151581563234,4.613145014832255 -3.704100587016486,4.56024837688348 l-3.921349937353889,3.505663721531842 -2.3672403359414087,1.568724066519586 l-1.9502216408852269,0.9457529843258969 m0.7767660026640334,-11.504463568382414 l1.9951897378143848,1.3241702621518787 10.93472589912965,9.097942590067698 l2.806608718981379,1.8320544723882886 1.842735699954124,0.7519361164689983 m-31.776540344068273,5.355835503377502 l1.1234407233859138,0.3299045983769212 1.3948973450770321,0.0037862833935602873 l16.597429802813235,-1.424167900383249 1.7838144638004905,-0.1814717223466471 l1.2215521110804388,0.10988183112707815 0.5270581545232409,0.2796075000061122 l0.24964879556767394,0.5057948967547039 -0.054299757078063046,0.7433236644806499 l-2.2152802023093665,8.231447942106982 m-23.631771737451288,1.634361236763748 l2.9061698343114575,0.2846345056915314 25.27491245287248,-1.994370195848866 l2.468314366779725,0.2214748253147895 m-28.540858821027463,1.4421037390342122 l0.06575731667961292,1.3875778577076492 -0.7231590854241465,3.803120125027713 l-0.9267047494999157,5.054101418463942 -0.8143976694014016,5.319106539744137 l-0.8133974772504866,3.4376973253635192 -1.0065643382185074,2.8843748581730115 l-1.2677311933444895,2.461500518445698 -1.5335804619213667,2.0660044071779513 " fill="none" stroke="black" stroke-width="1" /></svg>