<?xml version="1.0" encoding="utf-8" ?>
<svg baseProfile="full" height="114.80115441536961" version="1.1" width="105.02250746626855" xmlns="http://www.w3.org/2000/svg" xmlns:ev="http://www.w3.org/2001/xml-events" xmlns:xlink="http://www.w3.org/1999/xlink"><defs /><rect fill="white" height="114.80115441536961" width="105.02250746626855" x="0" y="0" /><path d="M25,25 m0.0,0.0 m11.85759909993661,3.303430948690661 l0.49294012142866067,0.2634179439307212 3.3018155700445866,2.8587477815989746 l1.635907483056014,2.8158575621826407 0.6173815339595673,1.495534919466463 m-14.848021073277868,6.696418812080234 l4.03948128859002,0.11169235823213397 14.675518753728998,-2.0547606088933947 l2.3331147253561375,0.028710309794474462 m-16.848956508204253,10.212430213989613 l3.5057952991761026,-0.03140151765743376 8.229117228617039,-1.1849756230664725 l2.3701874779024354,0.0361873404177482 m-14.362953306045576,10.287914270890575 l3.1731145996175503,-0.019902428798600567 8.88587731569702,-1.405726340666719 l2.0985689745965153,0.03538681751693502 m-14.35096697103805,10.636584407179239 l0.5930731674654736,0.9140067667700165 0.2439253917569407,1.4308714389926618 l1.8520784906583403,13.42307841409147 m-1.628400936296308,-14.485863898858877 l12.667356894937937,-2.27972998252269 1.2909007546125533,0.42189323096220627 l0.3135400103618612,1.0687281682916434 -2.1048697622733616,11.312000907495973 m-10.413051467806062,1.782659476106551 l11.385179961386704,-1.2127277334197788 m8.14368800548531,-43.03397945340607 l7.497205137197118,0.3321521310797808 10.168885436779034,-0.8439149952670225 l8.207474768861498,-0.5105541440036596 m-28.09539637752355,-7.836389104424288 l0.806317994919459,0.9307805842556738 0.33774548086855355,1.7124342766639236 l0.9720771116114973,15.473276631385371 m12.35859547240912,-18.572510908391337 l0.35988421529760184,1.053565756496583 0.041443594428722336,1.317908745644382 l-1.5519831233170314,15.857817825649402 m-10.046352781374862,1.474352510885037 l11.040015851982444,-1.1417523901082942 2.8515855942297654,0.05990283570192526 m-22.553368855219897,10.903669125823107 l0.7271402207220249,0.6560871264904989 0.836629101736391,1.3121168707078819 l1.8278067761138772,10.701337462454381 m-1.60110925107388,-11.928098895955909 l20.900571121071092,-2.3409878040288454 3.820902043602197,-0.019164909050645003 l0.7602936177412498,0.9940256294521955 0.07704340723784314,0.8364402135855288 l-2.3242047734946882,9.376776550062333 m-21.458781974643397,2.083980919239063 l22.200673578058343,-1.7617286882391037 m-13.641197206740978,-18.23275276041026 l0.7635202755193558,1.028158098187793 0.39814154664857065,1.4035219779968915 l0.039302235161301664,34.38059715505443 m-12.225838792787552,2.1610012949257404 l1.2369617933421735,0.39048831444904525 22.647305729827497,-0.05099398884872177 l7.0848385221697345,0.1731264665158196 " fill="none" stroke="black" stroke-width="1" /></svg>