<?xml version="1.0" encoding="utf-8" ?>
<svg baseProfile="full" height="108.87545831099006" version="1.1" width="100.05826660773775" xmlns="http://www.w3.org/2000/svg" xmlns:ev="http://www.w3.org/2001/xml-events" xmlns:xlink="http://www.w3.org/1999/xlink"><defs /><rect fill="white" height="108.87545831099006" width="100.05826660773775" x="0" y="0" /><path d="M25,25 m0.0,0.0 m10.805481374223522,3.41180810571317 l0.3998981048418678,0.2826882049982642 2.6722068358919353,2.7284387117044915 l1.4595545520915714,2.528708628173623 m-11.711510603861687,5.636389142210838 l2.5951479132768482,0.11825129009746707 11.73472937168077,-1.801624294138295 l2.7353820282514194,-0.01434716820327784 m-13.85179984863962,10.055088197186889 l2.5501676316617714,0.014901793710708445 6.768291384924259,-1.3396408874875423 l2.210329410953923,0.04167485910611949 m-11.132424403790179,9.29457888041145 l1.8977473510518184,0.04151929489390448 7.232589424775675,-1.4334610135528387 l2.1145289225887307,-0.018172044887641625 m-11.519378175090864,10.539366421511529 l0.7255249957066218,1.5692594248959608 1.524588435611143,12.047154746924459 m-0.9944430673143843,-12.64776911341125 l9.31450365890153,-1.9714417520552534 1.2918069078890317,0.029809651294914353 l0.46973348728519065,0.3528436429066182 0.20521562923252615,1.6238324852472112 l-1.6432056954272396,8.278848314977397 m-8.30719209118995,2.2573539982180417 l9.61048780657813,-1.6268558803191382 m22.76570659292405,-48.57917133024029 l-0.1879579418991627,0.9533642117488447 -4.592728513397921,3.040023655407639 l-4.649507965002783,2.2689383464204247 -5.206023583752139,1.987554928820624 m-3.583501971034797,7.457325408048635 l3.0256460096535744,0.03167580732167339 19.612340293567886,-2.8857655109782874 l2.0793910345640456,-0.06893529601846325 m-12.697815032148595,-5.776945598664822 l0.6084204723400854,1.2370586351947304 0.14015701219356883,1.1419830052110607 l-0.16822284220737818,17.285969670459302 m-0.7886088142910272,-11.844331720702794 l-2.3017720307865246,2.8074665238759344 -4.608594245489336,4.431034515559092 l-3.9390773134365684,3.0337182216723146 -4.527473515357746,2.6941119681211183 m17.377516695871595,-13.362149581162063 l10.461782911891433,7.6959082617784675 2.0806280114311386,1.263626900830266 m-16.963983762227326,6.945746284221326 l0.11269224755899751,1.4104719708479758 -0.07622137976972004,1.3243109885198963 l-0.9451885329297512,4.694851820603348 -1.2437438987181448,4.0003169360940065 l-1.720414434593143,4.09559712151157 -1.7499738562638267,3.2240448578530154 l-2.0682379429156814,3.1409807893358774 -2.4608491920040456,3.0490110054194566 l-2.1651974125608673,2.1784618737523584 m6.044636408687822,-27.5656588456586 l1.42614378150603,0.34090462468951566 1.7353036522848821,-0.13424223969770668 l11.518554929047262,-2.4777929035659985 0.7804295897993289,0.09717142706463582 l0.38902422793015373,0.42309973381264887 0.05486647979926032,1.2126818566574908 l-3.4477995787646076,8.460528513879138 -0.08562174040254426,1.0367285367461614 l0.7314013706081205,0.16720095643785896 7.712289292292499,-1.9044579360939442 l0.7380764840025446,0.01946667847903496 0.5634158849557279,0.3163858219086844 l0.3266522954834907,0.5299481947972038 -0.07982742743500144,1.9150208629107757 l-1.8648541625508552,5.607448744344685 -2.218169124794704,4.966616854281059 l-2.161533715660505,3.7617370493502134 -1.435133847689813,1.9200457590479896 l-1.3229507141325114,0.9938049509691939 -1.1104971361216083,-0.06409216491545584 l-1.1086406458671056,-1.73358411101532 " fill="none" stroke="black" stroke-width="1" /></svg>