<?xml version="1.0" encoding="utf-8" ?>
<svg baseProfile="full" height="85.2032820916063" version="1.1" width="119.17122569205367" xmlns="http://www.w3.org/2000/svg" xmlns:ev="http://www.w3.org/2001/xml-events" xmlns:xlink="http://www.w3.org/1999/xlink"><defs /><rect fill="white" height="85.2032820916063" width="119.17122569205367" x="0" y="0" /><path d="M25,25 m0.0,0.0 m19.822715979150555,0.42926526522420716 l-0.02501221624377052,0.4061906320556383 -0.3924883714957965,0.8682723815739388 l-1.118204930207675,1.5468892181739757 -3.2963936532538156,3.6757023422521207 l-3.475325291616638,2.831792553488588 -3.868425627002963,2.431654111263599 m13.64012218857965,-7.033118941215566 l2.4809044657994486,0.04096399756836958 7.686910629602351,-1.2813860593978315 l0.7631227937760576,0.03878089611047849 0.5292384477579171,0.30083023151315247 l0.2289873390959886,0.46505673374690837 -0.4604505330899253,0.5148932152395479 l-5.103811468119412,3.1771587397834824 -5.486930962056709,3.3853685532029756 m-9.094763552265826,0.69797307192693 l0.7357250346888494,0.881281186797111 0.2701640517844222,0.8473259888471538 l-0.96733543489148,10.914438438931812 -0.8778860187472134,2.751936872268985 l-1.363002371064016,2.7665909707426555 -1.8618754225502212,2.283006764802168 l-2.416270416763273,1.931765736028036 m7.966061435401089,-23.148726849563914 l16.900642814721344,-1.5939762267765867 1.0565835586821855,0.032005076229244964 l1.3488262149769916,0.7666455203850517 0.2240785341938862,22.941348734189976 l-0.35195276485053967,0.9379496097277086 -0.5793728128596536,0.39540332648638754 l-0.7518363420450843,-0.04140244739856852 -3.334690425705079,-1.885745053627871 l-1.0607906838200827,-0.8530530643114305 m-6.389049370215559,-22.29005085421908 l0.5971823329722076,0.7041374020447805 0.2076911420205194,0.7897617601050366 l-0.040363446397336626,10.738545182921845 m-9.663419796588439,-5.428593736438708 l20.36829958015474,-0.9966315611247373 m-20.55207315704684,7.559538531928325 l20.36537427046965,-1.029424767699459 m8.072446223828141,-19.206216282527077 l3.2935721726945077,0.03241786147956977 17.42714942621157,-1.4222381244715783 l1.2136220620274922,0.07353597959436423 1.1373884826485803,0.25741874140982685 l0.8147530407280207,0.6946169449971052 0.09786052697575297,0.8240858218202359 l-1.3235126274168192,2.2998503514637982 -2.350883005732147,2.7161282848178234 l-1.7206180108505298,1.4658449006138015 -0.953522701649854,0.45879414969417864 l-0.7594125109534028,0.07023838796275533 -0.6033974282644144,-0.23935484563234483 l-1.2245566062363433,-1.1126083381631273 m-4.804708691996244,-6.168413217992034 l-0.011764025702240834,0.8438494487947796 -0.6684236043725168,1.044783250771592 l-2.342251111646211,2.6068968593595288 -2.8151701635909947,2.2012977025254123 l-2.9865500115110866,1.7482053503227302 m2.7271260055935063,2.9240109576379383 l-0.25836382893804577,1.3933906287741116 -1.3108520528040202,2.127358479729339 l-1.8492168799370203,2.078286039409361 -2.206462141745412,1.8136895597991016 m4.655925812783471,-2.9480607502770733 l3.3549745856462936,-0.012995122364020258 15.216900074109768,-0.9436199658491684 l4.364862234066247,0.025893068335179584 m-26.182294468721462,7.009373810650894 l3.1452096727259575,0.11233034906756377 20.68274777454274,-1.4287603927641974 l4.677741724609895,0.05536759255619191 m-15.238806539764136,-10.506151057355748 l0.9868704574530849,1.0497871629170061 0.03764604236739461,19.463861713662812 " fill="none" stroke="black" stroke-width="1" /></svg>