<?xml version="1.0" encoding="utf-8" ?>
<svg baseProfile="full" height="101.05897618911789" version="1.1" width="105.38012482135424" xmlns="http://www.w3.org/2000/svg" xmlns:ev="http://www.w3.org/2001/xml-events" xmlns:xlink="http://www.w3.org/1999/xlink"><defs /><rect fill="white" height="101.05897618911789" width="105.38012482135424" x="0" y="0" /><path d="M25,25 m0.0,0.0 m9.195871336041877,3.254951431750639 l0.5291858337955971,0.22791077789951558 4.151916999921319,2.429132397237791 l1.836566358572346,1.5987096812904515 0.7623842340655967,1.0249124451405285 m-11.475015086248831,9.724347597418763 l4.609281455797308,2.1995876487279666 2.0480712119707696,1.5189970420717602 l0.8439372890693138,0.9582799693478994 m-7.317322474375474,24.741176314022944 l1.2875924386985673,0.14384787442019445 1.3524098809843095,-0.909638840556688 l2.690741814501066,-4.29816005483708 2.8204193665145096,-5.696563430305351 m22.672197898623452,-33.68472636208207 l-0.09131048873051274,1.6979908004386652 -0.49884693360133375,1.5698905666739442 l-2.8521426029197516,10.512240791664778 -2.907482115064121,8.879615773738367 l-2.1878776513984484,5.466950044018664 -2.1322336045011117,5.261522197386039 l-2.208509360902441,5.297916044556727 -2.2907298782648264,4.959037748042587 l-2.4683135327476085,4.18104773105086 m2.982422294637496,-23.683302792724437 l1.8701399328657944,0.17123563352240662 2.4705768334391998,-0.1638207174252768 l17.907501811630162,-3.8150066043690813 0.8161438634727836,-0.19070072747344977 l0.663576495594262,0.22159728529171227 0.3872897813697971,0.5100886796046954 l0.10084720538205243,0.7492145602652439 -2.82367376284197,17.774241690482437 l-0.19252043454767934,3.9247706218492797 1.4446274479499999,2.227822531667847 l1.936966500716913,0.5499655766249079 3.543272669040246,0.19325277294917734 l3.1912407805080356,-0.27994600798753666 1.2467249320389195,-0.4313986435273978 l0.949162947038186,-1.0373930919232126 0.4182076564225427,-1.628030106160015 l0.09682547683591995,-2.30993674308829 " fill="none" stroke="black" stroke-width="1" /></svg>