<?xml version="1.0" encoding="utf-8" ?>
<svg baseProfile="full" height="110.47847191056547" version="1.1" width="105.73962548184909" xmlns="http://www.w3.org/2000/svg" xmlns:ev="http://www.w3.org/2001/xml-events" xmlns:xlink="http://www.w3.org/1999/xlink"><defs /><rect fill="white" height="110.47847191056547" width="105.73962548184909" x="0" y="0" /><path d="M25,25 m0.0,0.0 m11.9771748634446,21.248703483432905 l0.4863723050442934,0.0895295521259141 2.8821884234920736,-0.04761535512469516 l10.442530627899306,-2.2164011094289817 m-6.597689646751085,-13.686349255400778 l0.7383721556852432,1.4989855858789405 0.20303855655820777,2.1293995899710225 l-0.10827866031572274,46.774062694542614 -0.3193034329532568,1.4828153042088972 l-0.47550968427716067,0.6746956961064674 -0.5708468653297201,0.011101301834011371 l-1.2497680288609663,-1.2625088823010977 -1.4278987386535138,-2.188688894252252 m-5.34922390077258,-13.59823475409371 l0.9127327129891936,0.43895308963311314 1.0560373006616346,-0.44003764304379284 l11.292227977303702,-10.943483329524943 m6.039191667081939,-24.10931382012043 l-0.5313593148775316,4.334062008004012 -1.0602859491679462,4.81501634454965 m1.998448698139012,-7.682303856227712 l17.762959798725344,-2.310963011794614 4.765787959263003,-0.24639871840166602 l0.777532795996134,0.38937116656791115 0.20562826708626053,0.6376806445433628 l-0.22610944059079693,0.7923691018068191 -1.2035023581108684,1.7281321644590502 l-1.2757371539149958,1.3881828419424418 m-15.754325085214655,2.1489664007181597 l-0.3133623664307637,2.2393671136351547 -1.7068455266385323,3.5985925241241343 l-2.0150084565802686,3.1692741804560622 -2.8922948939318642,3.410919713329477 m13.971872628307848,-14.460172886681645 l0.5982202355006039,1.5377798215618994 0.05652327014373215,6.444402660894209 l0.22835942244603713,1.001859905304443 0.48721036169370613,0.7359526781023137 l1.546258673064809,0.7501928221457932 2.2362372315946963,0.20629238896472024 l3.4703881663851486,-0.2177056751967391 2.2877372534898197,-0.6243681129780574 m-26.085601500556105,12.54625182491201 l2.7868410665643455,0.11483702575229845 18.978228155826393,-2.2051969120336854 l3.1937547094157304,0.10562405352763059 m-13.054923218881537,-7.406349966650662 l0.4450409906743298,1.0334835504326594 0.12796131013226103,1.2108652675511817 l-0.023618067664209944,35.43684159280165 m-1.123522900998626,-28.534142635548083 l-0.3627064054534882,1.6350199990534047 -0.7157437384486518,1.8805332088414601 l-2.1852733807374944,4.337126025209302 -2.150118532956978,3.6228479459552934 l-3.6997983835466566,5.123090524056195 -3.9079628649381517,4.0566768383347425 m14.51746954950653,-20.324525038900475 l11.34499150372998,16.162417255856035 4.3089253415572975,4.966816419601045 " fill="none" stroke="black" stroke-width="1" /></svg>