<?xml version="1.0" encoding="utf-8" ?>
<svg baseProfile="full" height="106.62929557919625" version="1.1" width="104.97477133354549" xmlns="http://www.w3.org/2000/svg" xmlns:ev="http://www.w3.org/2001/xml-events" xmlns:xlink="http://www.w3.org/1999/xlink"><defs /><rect fill="white" height="106.62929557919625" width="104.97477133354549" x="0" y="0" /><path d="M25,25 m0.0,0.0 m12.433150984263484,6.047528206894707 l0.3967188452393681,0.22723559723625242 2.8983836971999186,2.6147819470126312 l1.4172795771291504,2.342890233037395 0.5290244748373243,1.3179247925297226 m-10.782944177976274,6.0573192602579935 l2.785127104480696,0.15129194186156045 10.435540469239175,-1.535920883683325 l3.161752678725887,0.05418223452407841 m-13.342844361470828,8.924192984572809 l3.0157886544394064,-0.03837583500699108 6.1972203552216065,-0.9752465094811331 l1.9567965037301949,0.05231919758225245 m-11.125374285754003,8.813841276212322 l2.4521080937534783,-0.007325998207011999 6.63910382853157,-1.2091171197723354 l2.6347819444021283,0.04734537378351199 m-12.105646308945483,9.759788759405273 l0.5095891224682692,0.8900004170652968 0.2734241837065615,1.4091500861612873 l1.7767927914633668,11.685489617209967 m-1.9805139012620494,-13.044524408894235 l11.013602328286023,-2.116167255655176 1.0544115615183591,0.373052954902359 l0.291249417765189,0.9731154555790157 -1.830316920705753,10.320940170145569 m-8.54103538919759,1.6145028710944702 l9.631338171797088,-1.3707169426373267 m23.51497761563828,-46.985991823309604 l-0.12014038615043988,0.8194579391486881 -0.5645873287949923,0.8913891672467151 l-8.551838629371188,2.096809228537065 -7.876640470174722,1.1526265215264577 m0.0828653011363366,2.884583084355859 l-0.35425324096448507,2.349827200019848 -0.9983728207809176,3.0038940734089112 l-1.402465527940219,2.9229892365392076 -1.710535263552141,2.5707088454091673 m10.55688258699893,-11.879794064847271 l2.122179795255409,3.5615654634419696 1.1456216205954621,2.7773539137566483 m5.268730246097499,-9.206566029889819 l2.1692746246948293,1.6145985416046984 2.5649794525734486,2.7107552680356997 l1.9772025427722006,2.777855218298016 0.9253365169565371,2.000445055739198 m-20.917476847478458,4.228269635350206 l1.81070840003146,0.3515349912636262 1.0895620842822367,-0.12277427136305372 l15.003524149964734,-2.5353483057601682 0.7205406927312805,0.3658673686266935 l0.21712265156653507,1.6435078101859637 -1.5627361620432303,12.900668103916699 m-21.36218772682166,-5.401574397987466 l2.8324340227197258,0.2416211450671623 22.042108108790625,-1.6750974570651378 l2.2215252606158113,-0.029248376381092827 2.335920621310343,0.3423501047776903 m-25.87228940744128,8.874862126744441 l2.766968979206036,0.3470504301186216 12.07176305505721,-1.0500212869059844 l5.905253890210705,-0.051708786116827984 m-10.577259373973217,-13.88379039098448 l0.6210129386741361,1.8672532238232304 0.14943230657930492,1.5331334173631088 l-0.07213532944188804,24.633661203486803 -0.20242298796610095,1.5790671093031472 l-0.4460681217463236,0.7752025084318213 -0.6242512199628512,0.15872098247207228 l-1.4620947894680754,-0.9472692950054673 -1.3401172948588775,-1.634703082822766 " fill="none" stroke="black" stroke-width="1" /></svg>