<?xml version="1.0" encoding="utf-8" ?>
<svg baseProfile="full" height="99.7840275269566" version="1.1" width="102.18669351295912" xmlns="http://www.w3.org/2000/svg" xmlns:ev="http://www.w3.org/2001/xml-events" xmlns:xlink="http://www.w3.org/1999/xlink"><defs /><rect fill="white" height="99.7840275269566" width="102.18669351295912" x="0" y="0" /><path d="M25,25 m0.0,0.0 m8.117933365265273,2.61053010582511 l0.3854780658041787,0.27794967980211344 2.060006771021203,2.3127778877669933 l1.2713525584148522,2.4602741178846537 m-11.763307067442243,6.128589321270628 l3.573832079148103,0.09969081721439525 11.709498524221665,-1.5463088965104557 l3.3871982694137768,0.048506837315131605 m-14.834767243470797,9.408118722094153 l3.0190340815060948,-0.0018296268766268434 6.362460670199625,-0.8227036594449005 l3.312318471850666,0.021461192940621446 m-11.97036844461953,8.91972027580922 l2.813595802744614,-0.033438437096120086 5.595458305065135,-1.0893658872435945 l3.078705655513692,-0.008626728965955259 m-12.507027340761582,8.631258370960712 l0.5316101512689131,0.6826693606498497 0.19270989045218215,0.850977119502217 l1.7920590030899013,10.833776954058466 m-1.8322399080506506,-11.461088009030961 l11.995656755532364,-1.8213747555010207 0.7865244607560609,0.1256631545799746 l0.4715177685656948,0.4985147347525421 0.08340043616998918,0.6354534407365156 l-2.006664708036936,9.297334217293459 m-9.386929948011774,1.1329667275263056 l10.596604142706033,-1.11877509693169 m16.617996966003904,-45.62260108179405 l0.06555829805576699,1.5664094203461765 -0.9086337647728618,2.3754422597051708 l-1.9808771805393828,3.8762959351762563 -2.304074480222928,3.6331001047993143 l-4.765511560140715,5.803815235420204 -5.192569208576012,4.576965925516685 l-2.7741856472315876,1.8651290372414213 m17.026082822462758,-20.95749938934562 l15.803055631328233,15.387720072722024 1.618703179748511,1.1912637488947393 l2.145497888526935,0.7109101204616994 m-28.34153779661933,2.1121637862984737 l1.1964492242092208,0.16735479325848346 7.017531643813438,-0.9424541110670049 l9.69544382820015,-0.8918221677819795 1.8176830729584952,0.3106907660488999 m-20.226152794438928,13.163276726020252 l2.18374261722524,0.15700092780746538 17.271971707271508,-1.5961105297984175 l2.3753696955748818,0.17446984490771775 m-25.398165299897897,14.758581724043369 l6.36379227696311,-0.16041143432964994 22.702367024143992,-1.6872310098540528 l2.9589067785647827,0.49354422787119606 m-18.229602190365792,-23.498188805386473 l0.46058978591008537,1.4276638817998701 0.13371774801678787,22.643763232858145 " fill="none" stroke="black" stroke-width="1" /></svg>