<?xml version="1.0" encoding="utf-8" ?>
<svg baseProfile="full" height="111.8268392138837" version="1.1" width="100.05663425362793" xmlns="http://www.w3.org/2000/svg" xmlns:ev="http://www.w3.org/2001/xml-events" xmlns:xlink="http://www.w3.org/1999/xlink"><defs /><rect fill="white" height="111.8268392138837" width="100.05663425362793" x="0" y="0" /><path d="M25,25 m0.0,0.0 m12.133333453207113,2.7920265889031204 l0.40516360161488363,0.3123128388764775 2.9697130173668356,3.0358342596217307 l1.3426727463035153,1.9303964436045646 0.7087246401037001,1.5361181809523319 m-13.349725283809676,6.58461934723381 l4.036115696017433,0.07753166644012671 13.09265177957351,-1.9054436001664148 l3.9803974299213007,-0.03013630852239062 m-17.1157546568333,10.022410254277318 l3.4767057366603615,-0.04639142827731115 7.240748484743787,-1.1109033308171046 l3.6422771662973763,0.03999715653124231 m-14.022101849011614,9.832214989948296 l3.032072018343264,-0.01314950937799396 8.154612218516009,-1.3907859013485053 l3.198618316510109,0.03084923351907432 m-14.347196055611299,10.156437274619629 l0.6003563420471167,0.9034714124218313 0.22201847580859013,0.9788060839728863 l2.2093399436604435,14.482837002326217 m-2.063771347475496,-14.692765016772032 l13.100600147073491,-2.115703441280638 1.2177807936562595,0.435512193419365 l0.2815218266978957,1.0537982974907345 -2.158037598952377,11.02093915001059 m-10.479183953608992,1.50780006702896 l11.995565711404105,-1.2359396489412855 m7.573197412549157,-43.66936747484182 l0.6177159824286376,1.7906184921556756 0.19700979955944586,1.5952921484993527 l-0.11755370478005411,44.81427471817512 0.3179657622730501,1.321100425131232 l0.5735333626448527,0.7280150240153278 0.6911826485194524,0.4092963620847032 l0.8052139077508624,0.29360286691239407 1.0305618864782276,0.23250052469233556 l3.276934903754312,0.11881187136474591 6.178713350715499,-0.2922454842179172 l3.1936939749526716,-0.6053228235010364 1.4427510138188215,-0.9936517520022159 l0.6834020962527265,-1.8854771556573107 0.08709305648592787,-3.0789673421667043 " fill="none" stroke="black" stroke-width="1" /></svg>