<?xml version="1.0" encoding="utf-8" ?>
<svg baseProfile="full" height="102.76945365015365" version="1.1" width="116.49728648483797" xmlns="http://www.w3.org/2000/svg" xmlns:ev="http://www.w3.org/2001/xml-events" xmlns:xlink="http://www.w3.org/1999/xlink"><defs /><rect fill="white" height="102.76945365015365" width="116.49728648483797" x="0" y="0" /><path d="M25,25 m0.0,0.0 m18.9732804699942,4.5214736554131605 l0.05113581526554751,0.508171844456201 -0.1690552926963765,1.0581578599156352 l-0.8613085723784143,2.2344175043262795 -2.5551744437664063,4.9761613891893 l-3.101996015799783,4.136115889668198 -3.4850059770067054,3.5712178322512216 m11.651318354295276,-12.764350172702716 l1.9205328795354772,1.0195016821259018 1.8902235916276133,1.6411519213838714 l1.5611283763458368,1.7099148311549832 1.0358286914987684,1.6274091876390233 m-8.76119266905144,1.8980902039115546 l0.6708179049088425,1.6116722948155566 -0.003807602075603313,4.664371170901876 m-6.816896115011485,1.404968965687466 l0.7997106900423709,0.29988396291972347 1.1653589285677015,0.035372055117980514 l9.062523276398226,-1.6368258611773885 0.6355308893550538,0.5592662448595525 l0.12836198656092712,0.5781419572660335 -0.030262199421206924,13.292027180986624 m-9.790153206409114,-6.9216076113892795 l9.069899119762601,-1.4302742007046099 m-9.027811808649666,7.706750072850623 l8.993017407637533,-1.2641768780238754 m-9.806669706661056,-11.303990398405556 l0.3646644101672035,0.7766493684646455 0.09815693155646535,0.9540497647189246 l0.23328888849015267,25.088276630059426 0.6889348560642401,0.29471021185044133 l8.109898714503483,-0.3801144657047163 2.0108521666956176,-0.022891406949211927 m-1.9083339556444263,-6.730789278915227 l1.9849041420668592,1.8186019983622086 1.5376140834482133,2.1400262272661386 l1.159512062022485,2.123791930304638 m8.560872247343621,-34.81803025915562 l1.8557490840111264,0.8079238878592796 1.9765520350367152,1.5020672190071784 l1.4445724626387575,1.617866614743705 0.824846569201056,1.5292449692318877 m-10.472545947165694,4.632336147769156 l2.67484321175013,0.1632257291465601 11.994812240263885,-2.5157183839672306 l1.7147717138669263,-0.14262397363145923 2.386723839233145,0.21615813538827067 l0.4451191007561056,0.4334263294618442 0.1738667413766335,1.1789805335880308 l-1.6227807703714021,3.06759134761573 -2.082561973239114,3.034587443761848 l-2.4977937723705343,3.0832722032917124 -5.786998729194395,2.996766636532516 l-3.215047176421948,0.9315927179775859 -3.1863573023502827,0.7142548389263855 m5.325737011582762,-13.486099416324553 l13.085639035325016,0.609589617423302 11.333811139647857,1.4199181219230672 l4.08462865167859,0.7622961879735635 m-24.696322253842265,4.65804995720671 l0.26975762126562924,1.048074462224198 0.07527121988337285,3.228473932347178 l-0.13787487731930065,4.098803604367334 -0.5542611486285914,3.537746248221111 l-0.7486098669812932,2.574314488611367 -0.9922087116917768,2.3230956112491774 l-1.4413486190933567,2.1479641510708185 -1.60827553586349,1.6189809824183792 m10.403865511833827,-20.07448782617896 l2.181677215957762,0.12094347501533528 m-5.115567523978677,6.384960071687214 l6.632276749890301,-0.414264088971603 m5.069733172956656,-11.03552942567409 l0.5071159138929874,0.7326697603869893 0.1385928198923871,0.8883284683681981 l-0.054455267719150525,17.647111992042543 " fill="none" stroke="black" stroke-width="1" /></svg>