<?xml version="1.0" encoding="utf-8" ?>
<svg baseProfile="full" height="109.62505906477051" version="1.1" width="100.41218853493575" xmlns="http://www.w3.org/2000/svg" xmlns:ev="http://www.w3.org/2001/xml-events" xmlns:xlink="http://www.w3.org/1999/xlink"><defs /><rect fill="white" height="109.62505906477051" width="100.41218853493575" x="0" y="0" /><path d="M25,25 m0.0,0.0 m12.158621501783346,20.658418752312365 l0.3080411172358116,0.4083826973597199 0.4460518366505035,1.133118799550877 l0.03831089007679177,12.732181061132412 m4.45169526904246,-26.70494713943539 l0.5992542189222788,1.3841688960351946 0.12291589357436243,1.3961264876637987 l-0.04757374404609372,16.557322090163556 -0.3894059222916337,6.574859262224592 l-0.9366062340235816,5.860536002333638 -1.1247163948244494,3.8871987752602304 l-1.5499692391757516,3.957970617568011 -1.9004511917276727,3.233842242041427 m14.790527784126931,-43.10407338378981 l2.281011946329732,0.3588680667084499 15.250481709755924,-2.0813750512544313 l1.4845999166042625,0.2885072557011398 0.3848358861552562,0.4864286879601945 l0.03996091797102104,0.6706532126910006 -1.9854163728893,13.342982534041404 m-17.650349017052893,-6.175835668430228 l1.312890609365366,0.2529568205475795 13.672904037118382,-1.3867459652886933 m-15.431393049286687,8.350156149650777 l2.967053064284413,0.10971519257047427 11.658443481421918,-1.5200083315089392 m-16.874113201536666,8.211596814903013 l-0.3888189153151001,3.1286845370232723 -1.0740116137853928,4.376903899155062 m1.8829593841391123,-6.089812826511404 l15.474089778900781,-2.844630325670543 6.97904886225428,-0.7788918824579883 l2.4792883517884357,-0.03914027282434993 0.7045096909560479,0.30119139320558047 l0.27751728243354884,0.5116797293561657 -0.07141340205574377,0.6601129866697556 l-0.8942408165667499,1.583737911569998 -2.1423345994040908,2.2692025576149657 m-20.219801589902485,4.073774983256302 l0.7501194813992136,1.8324320243011876 -0.08475322955033521,11.796038460584803 m0.5888535566051569,-12.391281543349947 l15.23611216398724,-2.2161679775743 1.3504674991867438,0.11059756202272295 l0.7299702621579476,0.8319418215085956 0.1910422797886895,1.0325345376887989 l-0.1505842030450593,7.020874482925166 -0.41161930454750556,3.582361110614892 l-0.4282363453340139,1.1198758854589383 -0.5288357190773094,0.137593816665967 l-1.4735437212838838,-2.2358604843944216 m-7.1437946100885785,-16.73135328793843 l0.47830843501941894,1.0560682720080976 0.11167587019856533,1.149964421613911 l-0.07674810099613044,27.49362239353535 " fill="none" stroke="black" stroke-width="1" /></svg>