<?xml version="1.0" encoding="utf-8" ?>
<svg baseProfile="full" height="110.63640543018087" version="1.1" width="114.83445679619948" xmlns="http://www.w3.org/2000/svg" xmlns:ev="http://www.w3.org/2001/xml-events" xmlns:xlink="http://www.w3.org/1999/xlink"><defs /><rect fill="white" height="110.63640543018087" width="114.83445679619948" x="0" y="0" /><path d="M25,25 m0.0,0.0 m10.811365290296653,19.039754745609127 l0.45298776409510705,0.11232586280608582 2.74500356454706,-0.049309519107044744 l9.573115953596819,-2.278228614934912 1.6772010234426267,-0.06700124221551969 m-6.353681811437639,-15.638471936072467 l0.6875499565786273,1.5276396309565843 0.28270268200568704,2.254752667048664 l-0.10991143398528082,53.345621606733644 -0.3322720660356641,1.6650514674722394 l-0.4930225554960721,0.7242707618844674 -0.6039254544855452,-0.03284754801492035 l-1.3082582150101667,-1.4528042055208459 -1.4688060429871488,-2.436141969286701 m-5.388372661147463,-15.314533239076663 l0.8399634463435942,0.483476601563159 1.0472475462233872,-0.42746787984897466 l11.963467411816906,-11.983061968471759 m5.550830635651018,-25.532713395444983 l-0.5789511182155638,4.958823848488593 -1.1128819394043763,5.334826125718177 m2.0453264164269234,-8.429778144099844 l18.418896456207932,-2.8115167329790274 4.785821978642421,-0.3082271600848627 l0.8285351896933715,0.38652703867869076 0.29837022116741413,0.6414269337568154 l-0.12847552452730193,0.8289851758368048 -1.1272613310943653,1.8790565653038078 l-1.4157143990115102,1.6198250724286725 m-16.295629052173254,2.3932265873433103 l-0.31379045335642636,2.6544636603331444 -1.693891258555138,4.199658396843583 l-1.9969509356219397,3.7853975696021025 -2.9128326630471726,4.089264464732547 m5.930094029487165,-7.9123139513884055 l2.1163824680154044,-0.21518915976104933 5.649374799333282,-2.369800104622529 l1.1186504094952978,-0.04648628756701422 0.4293316044355941,0.27380955351141184 l0.24940663160125598,0.6257682754755265 -0.017035646666846233,0.9141675579176014 l-6.02793620204283,12.495707281400367 -4.279975833455062,5.559572367089165 l-4.515468717532425,4.305269032956596 m5.396101017326753,-18.68002347054296 l1.9375398595448126,2.568388586757888 1.3052668830139458,2.618257967133755 m10.512516505767167,-13.021846533106354 l1.8790289802716849,0.23587724697831602 8.97713137550365,-1.8121777697114743 l0.7516629388004894,0.8362576565040895 -0.001051677859185688,1.9192230713521121 l-1.9025386480837037,3.753473254233318 -2.505438072689973,4.24394000585615 l-2.451506949799585,3.447830598229662 -2.741004047340759,3.0351604787370787 l-5.223821385598167,4.470140359389743 m3.1060762776567463,-15.191757232696538 l5.214403609291853,6.0078800395300656 6.077660207589279,6.475786563187379 l3.2592097043361226,3.327265725454718 2.216640054654015,1.9297119671372864 m-29.40913674763959,5.530846567722247 l2.5285618223186046,0.26494388246355016 14.999709653605128,-2.0432446997634455 l3.00299776264146,0.11543537604677437 m-10.269105145890013,-6.272347595044733 l0.5551661192437188,1.1724586350722008 0.1471790778461675,1.275920068300989 l0.009066798310566265,24.237775610260663 m-1.467465036741204,-19.710224988488765 l-0.26139483896641375,1.7058880073255556 -0.6919058479612674,1.4525021910076918 l-4.106812691994353,3.6831209556163826 -5.42895329758542,3.3748052171896497 l-6.239371483555756,2.766857965519787 m19.85433359356282,-12.717783014279208 l3.6250548089705235,10.263785524915448 1.7964056653584672,5.539826905426642 " fill="none" stroke="black" stroke-width="1" /></svg>