<?xml version="1.0" encoding="utf-8" ?>
<svg baseProfile="full" height="108.52607601783204" version="1.1" width="102.94712910557472" xmlns="http://www.w3.org/2000/svg" xmlns:ev="http://www.w3.org/2001/xml-events" xmlns:xlink="http://www.w3.org/1999/xlink"><defs /><rect fill="white" height="108.52607601783204" width="102.94712910557472" x="0" y="0" /><path d="M25,25 m0.0,0.0 m10.745629513383035,3.9004569679150105 l0.4282231639933228,0.2757484959956361 2.60935273183832,2.416112561330009 l1.449824862169683,1.9398399595648579 m-12.065743470638628,6.556364843103595 l2.657393414091087,0.1065157938823949 12.783843891514541,-1.8867254681308294 l2.7515729490530036,0.0005755057569585098 m-14.282847378770608,9.795489154995552 l2.7352941366721573,0.012848320755370441 6.15420273680759,-1.1617104313183197 l2.2535566965060485,0.03487723582763576 m-11.018600493468483,9.118458692657251 l2.483465656977541,-0.005822802754103003 6.457603947722915,-1.1395866370898595 l1.8426381201601743,-0.00234436542941746 m-11.697939739675624,9.209798617461061 l0.724681767179432,1.6009153388649355 1.6951180528259682,11.010106925439823 m-1.4016187992418876,-11.537571499341736 l9.828483857034366,-1.8502453920524782 1.5786135319440635,0.030390078261300902 l0.4838115655268252,0.3675459415508922 0.2373542342353794,0.5825329534940762 l-0.04888725863582881,0.8560225016057333 -1.7394287622093414,7.989417022469556 m-8.534592192802405,2.016814561638991 l9.446359308233552,-1.3809436963309625 m6.937878876395179,-37.685659323973695 l2.273424505789351,0.07496700966942733 16.522067656682765,-2.3250186967156417 l3.1446976630283623,0.12803545189944884 m-12.891660038595965,-5.505889363911196 l0.9861049930207483,0.9755733787636998 0.27268391931144603,1.293624722361139 l0.08786975612926834,18.276604453588693 m-10.069511683852745,-6.480817461983301 l2.325516045370699,0.06840068310154876 12.819582376283943,-1.6817293438232594 l5.353894132450982,-0.22386714482000852 m-25.08672869813128,9.882550447157401 l3.2544767151208864,0.1648036303932434 22.97215976085248,-2.495143687128258 l3.5066383255863025,-0.10472773142783003 1.980668757706107,0.2617187466049059 m-26.178257937687558,7.271879852811561 l0.5354274945145846,0.9926975855599802 0.20224049840247754,1.121509766069799 l0.010305676148253224,25.30143239383599 m0.2214804321589777,-26.821722144283626 l15.265335408767685,-2.1077593393657135 1.531851391375136,0.16464221051688913 l0.895114027992447,0.8353115452258122 0.3106201021072443,1.3909123634463227 l-0.09783616293194523,24.62806276715763 -0.2751167517643797,1.5467842743889288 l-0.5079394201780726,0.7036642357671703 -0.6733844440941529,0.019353556822045575 l-0.7516114042006262,-0.49115854037546935 -1.706497553611606,-1.803126227258678 m-13.344992269684282,-17.81326165274696 l16.50498268231458,-1.0615376693092495 m-16.28722468357961,8.513180929208845 l16.38665762075928,-1.105673350198055 " fill="none" stroke="black" stroke-width="1" /></svg>