<?xml version="1.0" encoding="utf-8" ?>
<svg baseProfile="full" height="106.27146206673771" version="1.1" width="116.10695206464231" xmlns="http://www.w3.org/2000/svg" xmlns:ev="http://www.w3.org/2001/xml-events" xmlns:xlink="http://www.w3.org/1999/xlink"><defs /><rect fill="white" height="106.27146206673771" width="116.10695206464231" x="0" y="0" /><path d="M25,25 m0.0,0.0 m20.668756923900563,6.329289420702708 l0.3602814470520097,0.29677736471934907 2.816815999228346,2.9285291337257244 l1.4155830842221921,2.8231742904265302 m-12.763357765618068,6.405377145919127 l3.187119464448579,0.12446744365278055 12.65661816519357,-1.9040870593834847 l3.157653339467376,0.030414333404610933 m-14.625713467421898,10.306107871343416 l2.9671460521234465,-0.04646255234158547 6.217369767647322,-1.1325734904531848 l3.242794725254084,0.015379515536935454 m-11.738507691492828,9.310809088768224 l2.8056592760214007,-0.03447535880947245 5.947450728670837,-1.1386241805671204 l3.061292870520306,0.00662884643896019 m-12.642927669952924,9.311421636827522 l0.5239246252346828,0.7442254493678794 0.19470012579542592,0.9382594565188065 l1.7868338024381643,10.956823710939997 m-1.4884913189716278,-12.105173536064827 l10.540522488999247,-2.184726660645032 1.3669709738295428,0.01004678101100093 l0.4621836065871117,0.5353303493440879 0.0778744927075312,0.6777703240257362 l-2.0340547103853437,9.660032906966917 m-8.656131919014209,1.9276762009944803 l9.664667675321871,-1.5293926504874227 m13.741809595532859,-49.15555249936422 l1.9970887592973245,1.3471845206518542 2.50361445746795,2.34867858773583 l1.6019153330162101,2.0245183666747746 0.9344912155427906,1.7746016165812173 m-14.048664301895792,9.058757552969375 l2.5892484414181385,0.04335941252656688 17.2408854676962,-2.3567013765430525 l3.1426851469058885,-0.18326485918608845 1.8852660451608185,0.32239210238515575 m-23.321029662127692,17.7719776452629 l2.657301264241049,0.19334440296453279 16.64171042218185,-1.732954824457128 l2.898280047736425,0.18071479502687482 m-26.22430047661818,18.915930347062922 l3.6731526154160665,0.09484469954351393 12.563889188651205,-0.9521998968470983 l12.251788456095548,-0.572710893447593 2.017791907375763,0.11596522477102579 l2.1869930497411896,0.49004367041835395 m-19.09465428494637,-31.558278894404953 l0.6769080375707041,1.1247916875703101 0.5169476756679111,1.655934444034678 l0.15395980102706258,28.633541736600304 " fill="none" stroke="black" stroke-width="1" /></svg>