<?xml version="1.0" encoding="utf-8" ?>
<svg baseProfile="full" height="103.83453812958159" version="1.1" width="103.13729659628422" xmlns="http://www.w3.org/2000/svg" xmlns:ev="http://www.w3.org/2001/xml-events" xmlns:xlink="http://www.w3.org/1999/xlink"><defs /><rect fill="white" height="103.83453812958159" width="103.13729659628422" x="0" y="0" /><path d="M25,25 m0.0,0.0 m9.670644512274096,3.4024729545687835 l0.37045307759134977,0.29004405996699195 1.9957782325467193,2.7031590698560137 l1.2224364679282809,2.6652646019965833 m-11.118313315476328,6.195382615335426 l3.1801933004390097,0.1130270516421953 10.91387129384643,-1.6448170310203107 l3.030445483799248,0.05558228280250065 m-13.945735426428163,10.063832324482402 l2.748085465695582,0.007876934955801012 6.025049850371948,-0.906328045233274 l3.0492663594236933,0.027009813348391944 m-11.158983408435505,9.503296983594378 l2.6164894653547126,-0.03576222166343205 5.156012578509903,-1.1639950945342652 l2.8222808453359836,-0.01195030017853336 m-11.501627731667815,9.211874770778916 l0.4882047224994199,0.7412680390887546 0.17728498907453727,0.9145286423551122 l1.6967092324355397,11.702770677439153 m-1.722747780847504,-12.31068349163172 l11.170418457575174,-1.9937474809698787 0.7228648852543057,0.1311185486821343 l0.43189966320911405,0.5373772709480069 0.07707154465820852,0.6860725629496564 l-1.8397252953000687,10.011424755896066 m-8.736467078802441,1.264309566971972 l9.841867710354085,-1.2332712678663618 m16.377830082430403,-48.999159900467966 l0.0829591090421321,1.630398479159146 -0.8563095500907549,2.5959628247963265 l-1.8600950887453855,4.121014396621732 -2.1385967803988324,3.9001590701760205 l-4.388422595255268,6.342466450306567 -4.744380355507365,2.9746128553415563 l-2.73151813611257,1.1528291905770716 m17.171905515808294,-19.06304779771953 l15.190754197223086,13.475423370646741 1.5747630270741144,1.0820072231109117 l2.0746790695968413,0.6734806503252291 m-27.501438115550343,2.006910966042069 l1.2718031970077575,0.16795985963655635 6.569640782967633,-0.9940757769592299 l8.920009370779782,-0.9742693522280302 1.7193434849310432,0.28428589258808323 m-19.18675686377095,9.608808038947457 l0.5360760611140434,0.6364832777084551 0.34368175810865736,1.397758857260178 l1.4737035675294987,9.853889793616796 m-1.5105285214644983,-10.59096081268104 l16.49884332017426,-2.156537083034702 2.916685548498265,0.019359262798721414 l0.6180920842387754,0.8005769665380327 0.08200333394122561,0.6475747209410027 l-2.1688779052334994,8.251333091124243 m-16.565497746453985,2.049496312537348 l18.035998201122794,-1.7082454853996176 " fill="none" stroke="black" stroke-width="1" /></svg>