<?xml version="1.0" encoding="utf-8" ?>
<svg baseProfile="full" height="99.59133224157421" version="1.1" width="107.85677159224974" xmlns="http://www.w3.org/2000/svg" xmlns:ev="http://www.w3.org/2001/xml-events" xmlns:xlink="http://www.w3.org/1999/xlink"><defs /><rect fill="white" height="99.59133224157421" width="107.85677159224974" x="0" y="0" /><path d="M25,25 m0.0,0.0 m12.58890406473709,2.763293410380383 l0.4574801417694548,0.2532625796622799 3.195494414775134,2.6059669066809965 l1.6243535912061116,2.524029877154275 m-12.580358617660421,5.689863617579681 l3.474475372775479,0.09153373430699457 12.060125327854418,-1.5560232666302167 l3.5690561650842736,0.023146449147106056 m-15.436123914650844,8.963564142423973 l3.472333456520823,-0.03514094461474833 6.903200403055037,-1.0558743878127603 l2.4114101323771266,0.06655907672805363 m-13.267726999349264,8.827588375821254 l2.8469261064552813,0.005679316040953291 7.338793074365424,-1.1242582734968634 l3.297852939621617,0.031270610720308664 m-13.624410604227936,8.86515063960499 l0.5437220736827123,0.8273656966495122 0.2713869841569133,1.2699505430495321 l1.7939558243390947,10.554404138178498 m-1.6388358980265518,-11.781316563947568 l11.156105445340275,-2.028751605818306 1.253559035396764,-0.06176739452990709 l0.5496091700835742,0.4133965859146744 0.15842343698920322,0.5746236761346422 l-1.9360009777747735,9.171303608620146 m-9.248154795151912,1.7828454524879223 l10.302840455521942,-1.261945677621572 m16.5661841555847,-43.640049281310816 l2.978166968041343,1.728156752703175 1.7911216765830873,2.3457297770137195 m-14.374626348296108,4.011785063078609 l1.413753380566185,0.12997531763788084 2.727872039540915,-0.15867187863824497 l18.72525580861444,-2.0187172323017104 3.1564463935212785,-0.13208722689152108 l1.995335160510302,0.1813069690605834 m-22.80954044572859,2.867214653672435 l1.9458505090943197,2.99830008418549 0.849410167660144,2.7955092221217606 m12.475979856981928,-7.213461353871862 l0.16953696718467062,1.2629781097213424 -0.47896149253965864,5.6303483643428835 m-18.59322856344448,2.565746677763701 l-0.5494675521448789,0.1641855965335322 -0.01628315155694497,1.6473262878287926 l-1.016718343402869,4.192461348328916 m1.8673040859443457,-5.02055179337217 l15.983918458344975,-1.890730955426127 7.5186011191596345,-0.6393496475746943 l2.891252242398846,-0.045362308985185895 0.83033211082056,0.2744479055109071 l0.27088057954555594,0.44706867387434096 -0.1521541192680506,0.5754539118146035 l-1.0876446690613353,1.3282306474694088 -1.920221866326799,1.6669518256805156 m-23.3441359008963,3.5120628222186276 l0.9975429900791645,1.771167996480411 0.025159128264240046,14.627183872466315 m0.20709702939398558,-15.247927557289852 l17.69463578149571,-2.0340466021036554 0.8342325450922713,0.05395310862017151 l0.516241644930385,0.3597733321373979 0.4346778649009589,0.9820076487561178 l-0.31965377417336915,8.2872603689238 -0.478875820525449,4.128913995637071 l-0.4034695689178473,1.1065050013811608 -0.5661946601233557,0.36859170088301363 l-0.6572720087223142,-0.2121005329102242 -1.313960683588841,-1.560030435430187 m-8.064028033732956,-18.556413925730414 l0.8539784580538347,1.7272852421978624 -0.05330734259333434,25.471904963972907 " fill="none" stroke="black" stroke-width="1" /></svg>