<?xml version="1.0" encoding="utf-8" ?>
<svg baseProfile="full" height="103.26812776624759" version="1.1" width="102.60882569281974" xmlns="http://www.w3.org/2000/svg" xmlns:ev="http://www.w3.org/2001/xml-events" xmlns:xlink="http://www.w3.org/1999/xlink"><defs /><rect fill="white" height="103.26812776624759" width="102.60882569281974" x="0" y="0" /><path d="M25,25 m0.0,0.0 m9.402003341609305,3.6680219296262444 l0.3781867198211744,0.28379365062187956 2.1424145661117,2.5543177017855117 l1.2166960768040425,2.5405283288088363 m-11.278417002966476,6.256223441170109 l3.286370796696038,0.10249789649555145 10.77782305446083,-1.6249242123000385 l3.211464812503054,0.045966732428511146 m-14.111812878337126,9.903105983670546 l2.8356529716238814,0.013554065008625575 5.840485030929466,-0.9079545230553393 l3.116260836822914,0.033794025460650044 m-11.276090783440512,9.377930816352618 l2.6503985220597293,-0.03319461345748365 5.159459926780448,-1.1439605515977451 l2.860160092798638,-0.018918412913511123 m-11.663832391887704,9.127161749503575 l0.49525729516174183,0.7160987716394314 0.17798452707004503,0.8936043890226419 l1.7170328622040787,11.480480597976971 m-1.7668253212285814,-12.11467844775723 l11.290340375048364,-1.9563391109008705 0.7376279929045112,0.13527668938094378 l0.43509360334967734,0.5237898562445759 0.07739454578428596,0.6640411734681223 l-1.8436964011185715,9.78375342915699 m-8.827411489409146,1.265625228807396 l9.934923979903568,-1.2211412383981834 m15.895359198005956,-48.453345303186346 l0.059092363336606224,1.6693603793189487 -0.8446776115829416,2.5177550085978084 l-1.8309931571191307,4.137267613998125 -2.11364354730904,3.9292723454514564 l-4.383894924741679,6.239275522160812 -4.801536362678451,2.896947588483219 l-2.713915549516354,1.1445518327798054 m17.33235496101285,-19.284929901499552 l15.288505953223122,13.43788963571587 1.646315871787524,1.1102527299896796 l2.1009128363419043,0.671997251105545 m-27.45756220296383,2.015786482032204 l1.2299452068398138,0.16843580940773442 6.565396115037069,-1.011975287121369 l8.870881506658925,-0.9523514466355335 1.7390817231670443,0.2706508367694553 m-19.478887083968655,9.498254862897044 l0.5586090724781654,0.6503960513080899 0.3350933648853985,1.392041420274113 l1.437079050652025,9.836560261313197 m-1.4591796847945777,-10.623006889028478 l17.077772935653368,-2.1739983359407584 2.7554681929328164,-0.23904819928426926 l0.9796819766449238,0.2998435427806635 0.44800111680287025,0.9993437607846289 l-2.237721545199406,8.733024593401682 m-17.703642418885117,2.041787398606519 l19.21150788471449,-1.7318878984350383 " fill="none" stroke="black" stroke-width="1" /></svg>