<?xml version="1.0" encoding="utf-8" ?>
<svg baseProfile="full" height="113.24206120355338" version="1.1" width="95.49885458525904" xmlns="http://www.w3.org/2000/svg" xmlns:ev="http://www.w3.org/2001/xml-events" xmlns:xlink="http://www.w3.org/1999/xlink"><defs /><rect fill="white" height="113.24206120355338" width="95.49885458525904" x="0" y="0" /><path d="M25,27.94628553830315 m0.0,0.0 m2.410048303137285,15.092589053564845 l0.45268084338691367,0.12129169487185201 2.6836057461380527,0.08253682284992424 l16.092897765722675,-2.8132705698207197 1.4600625634793114,-0.011388987875237492 m-9.615442319924023,-15.418043551893813 l0.7404584976301589,1.4056366391709867 0.24934829079695797,2.3468602889009795 l-0.09694447984740154,54.794393576933594 m-0.5272407584993111,-40.61765208134512 l-0.18683220070792073,2.0457554927377926 -0.75429537311524,5.2022053414099 l-1.8316832478088287,9.41801743416883 -1.71760061380871,9.262498333373072 l-2.00054044172622,7.302933639947212 m10.581219300775624,-20.750534401536875 l0.7249553683630281,2.6624789001658464 1.2670333709850858,5.38941113694616 m4.218004646767266,-27.50546532637536 l2.4380452505818084,0.2832947530044169 16.367171177796003,-2.0850474089349147 l2.0600258997806433,0.2428906219831863 m-10.936553140116116,20.98625782088528 l9.891328370768345,-1.0418820245817901 1.5291017647036564,0.16565283873391123 m-19.522387095753125,-16.92546566004669 l0.7071704769985591,1.8057950025512073 0.21203302085916353,1.3745332097802903 l0.0306567225632059,40.98836193383042 m-8.213711730022931,-33.70914439617527 l0.49247826096094666,1.2251073797118444 0.08029921469051547,1.9982910655714987 l0.0894566488190433,35.97329228200519 m-6.746704459516663,0.46852959815194223 l2.1941926060735364,0.5350552125858363 11.827912859736042,-1.570297567707571 l14.081647543367849,-0.905323777906503 1.6376116174964894,0.7060162710187213 " fill="none" stroke="black" stroke-width="1" /></svg>