<?xml version="1.0" encoding="utf-8" ?>
<svg baseProfile="full" height="105.62594352861834" version="1.1" width="110.6674263217378" xmlns="http://www.w3.org/2000/svg" xmlns:ev="http://www.w3.org/2001/xml-events" xmlns:xlink="http://www.w3.org/1999/xlink"><defs /><rect fill="white" height="105.62594352861834" width="110.6674263217378" x="0" y="0" /><path d="M25,25 m0.0,0.0 m16.06283748631167,6.72380801390383 l0.3918168113392185,0.27850301975878544 2.754502037812582,2.7159078317735776 l1.4407220747954397,2.729992130137715 m-12.501872356813509,6.425580440600882 l3.1422629012924572,0.049216012551260825 12.113803584169972,-1.782368840377519 l3.1371922121573212,0.028354972515394677 m-14.236672056257365,10.021978301512412 l2.9666883251841396,-0.0467078350158642 6.0744495943563415,-1.0959373326554414 l3.1794894072485502,0.016963228099487943 m-11.514626474132879,9.225105729652899 l2.758554704602376,-0.03225660110124248 5.727104799892288,-1.1323756127131086 l2.989526746223702,0.00411824576991934 m-12.32965170024531,9.19654708970894 l0.5118582314210579,0.7289713675527462 0.19477685590127186,0.912253590890731 l1.754235094283505,10.658289776052936 m-1.4758690326580766,-11.700775283010502 l10.280814067705505,-2.1368812333546634 1.3326105647614228,0.0058624219501901735 l0.45952296334491827,0.5114435622605377 0.0857660360301443,0.6526009242297174 l-1.967592609785968,9.311715738718446 m-8.447909479727436,1.8790515975316036 l9.391771106629307,-1.500490199288973 m13.497685481919072,-47.69422548698399 l2.0139632452251073,1.2990540878449424 2.4786023982765384,2.258406015269668 l1.6007084070830837,1.9567205158670027 0.9167243767761202,1.720220431225456 m-14.010721605540862,8.616853512278078 l2.5479834744483085,0.060619565206185055 17.226938906240836,-2.332219080121346 l3.0509614689069866,-0.17843270391059782 1.8799101156500608,0.3222084676546162 m-23.156732315683204,17.43255809854353 l2.6261111115793057,0.18603945673818076 16.352183006803298,-1.7285309061734806 l2.8190047522256476,0.1816949438409208 m-25.802147349261084,18.591094628998963 l3.6195672390362374,0.0758712135791688 11.95260601352325,-0.9635431101750587 l12.664016710911708,-0.5561644203249961 2.021393854147695,0.12625377926214534 l2.09255513362707,0.4857236734089891 m-19.025372779694187,-30.977430503965223 l0.6663875927224713,1.0886383724002182 0.5120185349608755,1.6095518346340234 l0.15521706531045165,27.936656673568322 " fill="none" stroke="black" stroke-width="1" /></svg>