<?xml version="1.0" encoding="utf-8" ?>
<svg baseProfile="full" height="98.43397533607862" version="1.1" width="106.06058388158134" xmlns="http://www.w3.org/2000/svg" xmlns:ev="http://www.w3.org/2001/xml-events" xmlns:xlink="http://www.w3.org/1999/xlink"><defs /><rect fill="white" height="98.43397533607862" width="106.06058388158134" x="0" y="0" /><path d="M25,25 m0.0,0.0 m18.042810082216977,3.321456924786043 l0.45148007921526095,0.5065967948302027 0.6334261569650229,1.217616021699481 l0.17530754460884582,1.617358417988222 -0.09093574559805288,29.722562545326447 l-0.7211567918665038,2.474859084828037 -2.9428057890270853,3.4740087032985443 l-2.815574922934839,1.7520571963716784 -4.228708730936186,1.8229451655928932 m24.11597473657638,-42.00328116144199 l0.8353383342511785,0.7393593081188954 0.3584857616032397,1.537464801718521 l-0.18076375649137036,42.250971532961636 m-25.62289952233812,-31.85028526669066 l2.4723545011995367,0.11008764902321509 10.601674760743748,-1.4041740629102732 m-13.499998088437973,10.103866189399175 l2.85545007839722,0.032405834209880226 11.34470841698276,-1.7716695766826014 m-17.37398944998357,12.51474012042011 l1.5218968288678139,0.7600994263522189 1.5828610596874455,0.01911133803124841 l13.023852009511746,-4.434861816366503 m18.518040980705727,-19.40083312684396 l13.601402760225326,-2.0226944440472083 1.2244182288773886,0.008788682945197974 m-14.19902309111837,11.001153529524172 l13.199204523193053,-1.838400336478672 1.2231525048206244,-0.0031267178599022915 m-14.054532256194005,12.529420813190503 l16.009132677858116,-1.8095637544465382 " fill="none" stroke="black" stroke-width="1" /></svg>