<?xml version="1.0" encoding="utf-8" ?>
<svg baseProfile="full" height="112.8897054514158" version="1.1" width="104.43003339679615" xmlns="http://www.w3.org/2000/svg" xmlns:ev="http://www.w3.org/2001/xml-events" xmlns:xlink="http://www.w3.org/1999/xlink"><defs /><rect fill="white" height="112.8897054514158" width="104.43003339679615" x="0" y="0" /><path d="M25,25 m0.0,0.0 m7.364434490622142,19.71601730996261 l0.3865471244844562,0.11934547603435985 2.173944991820209,0.1049365919240823 l13.349758220657481,-2.5276066876622405 1.8417613149362817,0.006764553271393395 m-8.704763390544654,-16.719914019337814 l0.8186895706479639,1.4247788114232556 0.46827094727258617,2.352581238012806 l-0.16691454376383197,52.07321929705597 -0.21080585060116244,2.282190359262124 l-0.418488850169443,1.241896428860612 -0.5920735252572883,0.43054498959765386 l-0.6734794875513713,-0.8671544002774193 -1.57831843255146,-2.8584883864763837 m3.6470770173443428,-35.70271659837189 l-2.694526199954276,7.026020270339395 -2.2473545434147346,5.059723927018633 l-2.5899433691351916,4.859380792197936 -3.9046614682883543,6.353730846238524 m12.842111253398528,-18.947892268132527 l2.6467553685746963,2.4669865141440064 3.241022578594015,4.437186644379038 m2.6222899120672087,-19.911518763152564 l2.3512638949135636,0.3568034335649526 19.84878353784793,-2.9774068406521184 l3.263233744137525,-0.23756260693985393 1.345419090708983,0.2952586361093111 m-14.060474871873742,4.068232449954297 l0.6644028871490849,2.170668299392538 0.15377913345085456,2.410051498007093 l-0.3523496251627793,42.912919975017694 -0.4156846253093531,1.047455594585664 l-0.5409870232985612,0.42327208606464634 -0.6433624479347866,-0.09923010974321568 l-1.4156892642095238,-1.221767505341586 -2.14258442891657,-2.7012128631944425 " fill="none" stroke="black" stroke-width="1" /></svg>