<?xml version="1.0" encoding="utf-8" ?>
<svg baseProfile="full" height="108.00554948283587" version="1.1" width="112.33897556567769" xmlns="http://www.w3.org/2000/svg" xmlns:ev="http://www.w3.org/2001/xml-events" xmlns:xlink="http://www.w3.org/1999/xlink"><defs /><rect fill="white" height="108.00554948283587" width="112.33897556567769" x="0" y="0" /><path d="M25,25 m0.0,0.0 m10.184903202472873,2.5264162658733293 l0.44993311131795305,0.30651181240678765 3.2091149798976963,2.83331953969541 l1.5879877451172701,1.8071914341941786 0.8388312628171981,1.4693399442561375 m-14.795169305321835,6.815700300947609 l4.266316256592911,0.17641612729228195 15.629443299949491,-1.9300443936852776 l2.5224889586595043,-0.03196319333105828 m-17.49982782228539,10.42234669067414 l3.1753594166413426,-0.0035502383240909943 7.920688395921278,-1.0195298763433043 l2.5302367341527923,0.03431567768786067 m-14.029394824893059,9.757225665165631 l2.954338184175417,-0.006539841787138878 9.860859675119698,-1.3919784305230856 l2.083631302104032,0.058779980781072244 m-14.683399187639846,10.599583727354434 l0.6048417820572629,0.7329026108764686 0.21547498496524703,0.8550156086730035 l2.1442092145984724,13.994090070951497 m-1.8203149368095928,-14.12583784609081 l12.821449495652542,-1.9483954101324092 0.7760473948540599,0.4270391320918913 l0.2660980739945711,1.0844418912515124 -1.9884533935153044,10.417426991909236 m-10.104378647172924,1.6154446422211926 l11.29594488553215,-1.193324911427503 m17.07114632300694,-50.43213199768488 l-0.16975138792382385,2.064897677125269 -0.5857993967251703,1.8256370570694516 l-2.9322719821082415,6.508190296899473 -3.707236955177815,5.843687725774924 l-4.03668060818808,4.8803278663197345 m10.110291815441341,-10.281634245782923 l2.5705072788147176,0.31670950067045156 19.181309033031205,-2.948890491307231 l2.9747703327286477,0.16917552030357164 1.015531223053899,0.8157909342094173 l0.4298996507682661,1.425241869434425 -0.1035151860224721,2.0540242478022495 l-3.511403653303301,17.592969990811774 -2.0731885071122873,6.953852168712454 l-2.265430799359025,6.002325794585572 -2.0311008123641137,4.41165367868486 l-1.1627370165093398,2.0553094355909476 -1.178130307772591,1.3846073111314252 l-0.625762343637173,0.29902527163050324 -0.6262759975314511,-0.08530188837155318 l-2.411752312330043,-2.0919614254533276 m-17.172938853518215,-29.414867006213942 l0.4316811514040908,1.2955996525755926 0.05561488085770762,20.057956349121454 m0.31795779858685047,-20.293336304989722 l11.55429392631814,-1.6348600566868765 1.1607947768737756,0.2350227030188258 l0.4630457240022987,0.5317643437072475 0.18666654400275115,1.45728447529921 l-1.0446273715712568,18.72068555046033 m-12.014722689283804,-10.629143810502551 l11.883300307852142,-1.120518539137872 m-11.841681688143321,10.452561169701502 l11.625445717478648,-0.9882706610691009 " fill="none" stroke="black" stroke-width="1" /></svg>