<?xml version="1.0" encoding="utf-8" ?>
<svg baseProfile="full" height="103.37317139410926" version="1.1" width="110.04261475618836" xmlns="http://www.w3.org/2000/svg" xmlns:ev="http://www.w3.org/2001/xml-events" xmlns:xlink="http://www.w3.org/1999/xlink"><defs /><rect fill="white" height="103.37317139410926" width="110.04261475618836" x="0" y="0" /><path d="M25,25 m0.0,0.0 m9.402595773533774,3.4537113897590497 l0.5465735569469818,0.2429998211550298 4.253218593747583,2.7467062482573894 l1.8804656880668271,1.7909897978874902 0.7739643066775381,1.1456504047478449 m-11.76373611269205,11.17580501977848 l4.768896518573056,2.4093518237867904 2.2246461626710823,1.556160078193779 l0.8820848819036184,1.0038606261397405 m-6.690685526349328,27.708414053953344 l1.338449274934408,0.1395221304503204 1.3674077025253855,-1.0116592879376884 l2.60940379437111,-5.126941050081993 2.749268021218157,-6.657126464433125 m21.597653973805773,-37.36637772965622 l-0.1462158795864956,1.8863566120458568 -0.513243164646144,1.7643774262139815 l-2.6385811846577356,11.39499159400785 -2.712607779072802,9.310778515107122 l-1.9942708940161362,5.559373094575582 -2.3889983654697633,5.471945214280763 l-2.8209409955389266,5.189589918272777 -2.5163869463041677,3.9170785828699763 m2.9508830001365096,-22.855530772989923 l1.5589183733340854,0.22681983507836465 2.3609013070082567,-0.1261016545271306 l17.54051836717841,-4.062488990679769 0.7767906957157716,0.21165722832774791 l0.39214640643830656,0.5417489676521877 0.06137518298280648,15.124567309259689 l1.9618033106836112,7.645848556517244 2.275464287246894,0.9740903313898072 l5.6704159236730565,0.14316297630279953 1.8908674942335415,-0.41584873715361054 l1.0735813634697962,-0.6247976898184304 0.8034802870403263,-1.060514148083093 l0.4279198215598094,-1.915339876377083 0.08858753484542209,-2.612252612018247 " fill="none" stroke="black" stroke-width="1" /></svg>