<?xml version="1.0" encoding="utf-8" ?>
<svg baseProfile="full" height="110.27200906148164" version="1.1" width="102.11101018095619" xmlns="http://www.w3.org/2000/svg" xmlns:ev="http://www.w3.org/2001/xml-events" xmlns:xlink="http://www.w3.org/1999/xlink"><defs /><rect fill="white" height="110.27200906148164" width="102.11101018095619" x="0" y="0" /><path d="M25,25 m0.0,0.0 m11.157057361654573,3.033512405945731 l0.4224465927552884,0.26841182367515914 2.8677432922166366,2.7331260882027513 l1.4711351788659317,2.4402954778643138 m-12.839970948728503,6.751049929576913 l3.5624419458285193,0.10547731922344081 13.038658836676044,-1.8701926420597907 l3.7738746323659957,-0.029440289035066725 m-15.945874823071755,10.340092628901253 l3.189317998195831,-0.03624549133350214 6.846418233262524,-1.2513989437983652 l3.4465952554960144,0.019163396237632795 m-13.144798462029627,9.698222164891835 l2.978381593066837,-0.016031814721292205 7.082135975599979,-1.267056493392386 l3.270895568723197,0.014596405658755321 m-14.182770137473849,9.573755851728459 l0.5705330411791493,0.7083162213992311 0.1994098472359471,0.893550262772454 l2.04799789537549,12.06107908439149 m-1.7254117747441426,-12.482204854713052 l12.705491998187123,-1.8634878711587293 0.861286354817466,0.11898200241699425 l0.5137937804237214,0.5232850671899544 0.12152640737200199,0.6607632901051205 l-2.2289709013535006,9.556098376346924 m-9.585411962849744,1.7115241150470921 l10.695896224261059,-1.4866567765058132 m7.368205019078606,-48.286042682152 l0.6657733644313493,6.217728393221013 0.9228558929581223,13.281106371797819 m-1.1527962982539697,-18.612062942723238 l20.502506159723488,-1.9740590357171945 0.8093504796446318,0.057597287133186945 l1.079958842783632,0.3973755892042429 0.4479914728170646,0.4140545881710806 l0.2973362444650419,0.9558402005724921 -2.329893886464159,16.359489175057856 m-19.543606090628586,-15.432359187396791 l0.6410522015366032,0.3485580182265545 0.40718008045423726,0.7124459851309664 l1.7092511190690411,13.475604425900995 m7.477864800159316,-15.810974012319402 l0.46157164429643827,0.9889970560980672 0.036079772701523134,1.3201106181142135 l-1.2357459894720149,13.994496773340007 m-14.2760296235635,-5.656214634888348 l16.61947299856242,-1.9366794348565912 m-15.2362761475622,9.255809333292682 l19.0776000343741,-1.8961465749803696 m-21.933099568958784,8.456082554996454 l2.5517810245500474,0.28330769683084367 19.133424691601725,-1.9941718021240518 l2.6544673146287736,0.18490342464432832 m-24.396413423015,2.2428335318930834 l0.5153734891546683,0.3035249607860189 0.34022882166935986,0.9275758628234672 l0.4871194044896218,4.810805029614 0.09727941116778434,7.449854549830417 l-0.4475492601620227,2.4159047106048903 -0.8689148809910583,2.663718746782732 l-1.1574788203591744,2.2210467096382516 -1.554110039375262,1.893480792738003 l-1.977167611327213,1.683547183660114 m11.55142452592287,-21.337760577424785 l1.7371043829518646,0.20713801973618082 10.800301363100854,-1.8217191912476538 l1.419724597069908,0.10197246691408333 0.4963636620972389,0.41015970628780585 l0.20719200708954258,0.6320525886737621 -0.3484504005673717,3.951032615781847 l-0.862631587855074,5.373502555517091 -0.9775683748091748,4.190252758979193 l-0.47859074686824404,1.7278846011271671 -0.5038947582114042,1.6407427762987203 l-0.5399328529607785,0.9843678262737222 -0.57780997950718,0.4759528256074901 l-0.5834794884838275,0.03726808028555247 -0.5494190143510561,-0.3110570715428404 l-1.2365492565459006,-1.5913565679168598 m-6.442949602720353,-15.824263351476358 l0.3236986106704066,2.313318545603442 0.45557489385046257,20.47283377638313 l0.3944927926696684,3.273542049691737 0.7867566828727812,1.5071257248849574 l1.722565526922924,0.9126636785327725 2.8001597898768305,0.32067922670817767 l5.368659314684557,-0.09959861900588798 2.885952305522946,-0.520651314758859 l1.1762866287343754,-0.517980404655921 1.3886782626991183,-1.3144416293472838 l0.46947290276199305,-1.4188925731453763 0.16576434243123275,-2.5703752794992463 " fill="none" stroke="black" stroke-width="1" /></svg>