<?xml version="1.0" encoding="utf-8" ?>
<svg baseProfile="full" height="104.20142902662306" version="1.1" width="98.5023108391703" xmlns="http://www.w3.org/2000/svg" xmlns:ev="http://www.w3.org/2001/xml-events" xmlns:xlink="http://www.w3.org/1999/xlink"><defs /><rect fill="white" height="104.20142902662306" width="98.5023108391703" x="0" y="0" /><path d="M25,25 m0.0,0.0 m11.339046554723687,16.50344034952984 l0.39856832679247456,0.11771078241021313 1.7366937471217827,0.08970860868842634 l8.973757025156514,-2.084856101874982 1.888723505151672,-0.2047757047233154 m-6.454060056972653,-10.181191985737707 l0.43178168041179465,0.9878660759411756 0.05718613825135306,1.6092222092018387 l-0.02902149472537614,27.48521557605388 m-7.086170715099819,4.933568724208295 l0.7924712806797024,0.34569533987779555 0.8807206148869691,-0.4417513864058495 l9.820652913661228,-8.98648388823805 m3.6050738437157763,-20.39029343736071 l1.977380959420401,0.15613636221583865 15.186035038651475,-2.7082084343108845 l2.465477759161069,-0.156228750377566 1.3679417330494636,0.22694214907628255 m-20.11503040399772,10.943469076423646 l0.41250960425996464,0.8899927835059146 0.24778843341207876,1.4202911055607603 l0.6101376800340855,11.616545854980853 m-0.37907375831992135,-12.582466714617281 l7.800006523429772,-2.703074913305126 1.2940085780319346,-0.2567850669126385 l0.9193902693373105,0.2305910924978239 0.3120066448965676,0.40192778610447605 l0.2042221966900826,1.7553095306546778 -1.1681544336758127,7.900742878147736 m-8.584913337061863,2.3267274657756567 l9.452032534269845,-1.7920755623010827 m-12.303229325821889,10.727089277290759 l0.6318526876259143,0.3624168879394962 0.9049557839687896,-0.25565286786277147 l10.636602223780264,-2.775247618610084 1.3198361188503078,-0.23703701491967383 l0.8106343438901472,0.19153092389733206 0.3185442068987713,0.9242530364498739 l-0.5524160210941207,0.8312422681834333 -6.356891373273348,8.107731012057386 l-4.891169458099152,4.541931042906664 -5.141669676496563,3.8973849709281487 m3.745922771463136,-14.090474587442134 l2.6982283923133057,1.5131314483859786 11.827200650865018,8.740670031026104 l3.8364718576149897,2.8113740378581067 2.6602482713408873,1.4581743738445119 " fill="none" stroke="black" stroke-width="1" /></svg>