<?xml version="1.0" encoding="utf-8" ?>
<svg baseProfile="full" height="98.51908136150365" version="1.1" width="109.62876488552321" xmlns="http://www.w3.org/2000/svg" xmlns:ev="http://www.w3.org/2001/xml-events" xmlns:xlink="http://www.w3.org/1999/xlink"><defs /><rect fill="white" height="98.51908136150365" width="109.62876488552321" x="0" y="0" /><path d="M25,25 m0.0,0.0 m16.245877176675656,7.722846521089999 l0.36290385351471927,0.25005683450654226 2.7608799112837987,2.278202534042666 l1.3853738919808585,2.3399412253312697 m-11.865133137222891,5.203909024516163 l2.9383444221212707,0.10810559946511027 11.96712664342143,-1.469761483884097 l3.008516979487933,0.018828921923124253 m-13.776573446546056,8.258407807856566 l2.7667647327102753,-0.03205501099099509 6.050648956985892,-0.9023341342054116 l3.0691587770234467,0.010663761561205949 m-10.951079244556762,7.737419750607961 l2.607428965427128,-0.027311259640189843 5.313036603245871,-0.9384316516246706 l2.8690937274580195,-0.0017395397339050878 m-11.689668936087006,7.602378020492806 l0.48802963150046774,0.6230045291572083 0.18806364987619098,0.7750696413908265 l1.6597089839036012,8.961880269641473 m-1.3941096125734989,-9.826278562154647 l9.94883106502411,-1.7708294753513631 1.2664211674367394,0.036162591160664385 l0.42907975526941433,0.4455113182406255 0.07298465552415564,0.5529242044467128 l-1.895787547460449,7.828190053885016 m-8.113452632628906,1.5791363998660668 l9.041872267676947,-1.2545217913175921 m13.12344302591745,-39.87380383763424 l1.8980878659208469,1.0619413290313358 2.379479083112272,1.912459991601975 l1.5036441505915268,1.6229919494276126 0.8718450771726179,1.416642937605462 m-13.44303810243905,7.4383051288028765 l2.4808840888686103,0.044885271318416756 16.366233134284684,-1.97918964057672 l2.8906193574009245,-0.15387805901165297 1.818376594734582,0.265043931324368 m-12.97397868596381,1.1978964774586998 l0.6537335990258945,0.9110554288982337 0.5218488358755868,1.3036593575078508 l0.16661433066518033,23.430909694023878 m-10.430145708582602,-12.62310693772749 l2.47626153049625,0.13766259458627234 15.927802515876337,-1.4863431918143724 l2.7259080566841867,0.1471002821041728 m-26.530070652361214,15.507972364308792 l3.8179789889265123,0.0130052025241043 12.984240728086588,-0.9484919924160057 l10.339960547800004,-0.4649191991104326 2.6833558186172612,0.008625073692993259 l2.6213394443402254,0.4553392231734628 " fill="none" stroke="black" stroke-width="1" /></svg>