<?xml version="1.0" encoding="utf-8" ?>
<svg baseProfile="full" height="97.76385026187691" version="1.1" width="94.49355429719188" xmlns="http://www.w3.org/2000/svg" xmlns:ev="http://www.w3.org/2001/xml-events" xmlns:xlink="http://www.w3.org/1999/xlink"><defs /><rect fill="white" height="97.76385026187691" width="94.49355429719188" x="0" y="0" /><path d="M25,25 m0.0,0.0 m4.730264022525168,4.292962419106818 l0.5685238833281395,0.22733354534578396 4.594921034747205,2.433682130369368 l2.107328285003173,1.586362942483841 0.8375120750308869,1.000182750731065 m-12.655075482858905,9.498730992817391 l5.3395621517543335,2.187384746086157 2.2985728478312564,1.4465769636244912 l0.9093195824227736,0.9180131100506969 m-8.48294194724347,23.988289401826098 l1.39866214543229,0.1843312594351909 1.4957005887779002,-0.9012636897035915 l2.909691615899277,-5.118215738342908 3.073065486794259,-5.986688120646402 m24.54536341385586,-32.76976368278385 l-0.17728798050594957,1.6053361920820859 -0.5765185627298335,1.579418259966705 l-2.999379821213264,9.569242914889577 -3.1660020664404973,7.983026268926397 l-2.4547609368940364,4.760067838903632 -2.877897866278803,4.433563243755689 l-3.5530906039101433,4.13824559501107 -3.070047824151927,2.9126563746671645 m4.10583326100576,-26.09831965137848 l1.5838006895766747,0.22287118607304887 2.1864442298462845,-0.06184641875614884 l19.46040139777601,-3.403628229260093 1.1272953642146053,-0.11775999475240555 l0.7717796217878842,0.21573165064729644 0.4625156918089669,0.9740465027609944 l-2.840141508833803,0.8819430882090219 -2.487119763530043,9.46501506832194 m-14.2152416790636,1.1553370347947942 l13.353498791724299,-1.953355510377333 1.913801715822007,0.09675750860985803 l0.3566354482888709,0.38049567891901737 0.14097674509796326,1.1936832877337529 l-1.1014265758814739,4.255251176376535 -1.6018961152863456,5.078811018962715 l-1.836204996863725,4.212199312228571 -1.1377155661766243,2.2054208703814773 l-1.295164238532042,2.2008853005719393 -1.993424787385204,2.091612440647023 l-0.7188902702008296,0.14804399029259632 -1.251185178760457,-0.5979689057033019 l-1.331908865766002,-1.329175827143258 " fill="none" stroke="black" stroke-width="1" /></svg>