<?xml version="1.0" encoding="utf-8" ?>
<svg baseProfile="full" height="108.08263590341656" version="1.1" width="107.59810591101956" xmlns="http://www.w3.org/2000/svg" xmlns:ev="http://www.w3.org/2001/xml-events" xmlns:xlink="http://www.w3.org/1999/xlink"><defs /><rect fill="white" height="108.08263590341656" width="107.59810591101956" x="0" y="0" /><path d="M25,25 m0.0,0.0 m13.321545460163389,12.940992630660787 l0.3912728733770244,0.2382511388962039 2.494936874729826,2.2887611195600646 l1.2719112330773603,2.161775017017418 m-11.108763549897533,5.124909418326934 l3.30406431245268,0.09778491133662703 10.907086415544125,-1.4952311799538909 l3.285091593899146,0.016897695638631756 m-14.292001637549259,8.68860393283586 l3.5450698283734217,-0.08408110502264407 5.917047753959197,-1.1330591565265484 l2.504017828228056,0.04684916383477821 m-11.703985617985587,7.855288076544367 l2.75066582095106,-0.024698374653505783 6.1791288099736095,-1.0732518998053293 l3.024656912590089,0.008339125097830595 m-12.273229333725022,9.141597052023918 l0.5244600005445873,0.80770608621058 0.2694056200418184,1.1613733191862075 l1.5156440008867484,9.301041386246357 m-1.4650561013581753,-10.514265927475952 l10.250882194918804,-1.889545969701026 1.8510849129334166,-0.041995314490103144 l0.44817071195245944,0.9585758152769561 -1.9218622830590004,7.643872577053575 m-8.862447295248922,1.930330310682901 l10.419259143941124,-1.4484205357867268 m25.58429077079791,-41.382263640677316 l-0.07818034963624405,0.5418257319935412 -5.316763052590705,2.2256755257012504 l-5.289019652417723,1.7207829010017697 -5.53597014518888,1.3881422819425155 m-3.7302991504498437,5.807804812045559 l3.0434002424075826,-0.017329479300225714 23.17181147204253,-2.604010266896444 l2.0089402309372506,-0.04547618409785959 m-14.699067279327354,-3.936357002417569 l0.6044214107102434,0.8888364430108204 0.1648358321121986,0.8354373909722781 l-0.28717749757804784,13.089792317567627 -0.5383076947920237,0.6433946131608215 l-0.6762421858526436,-0.29359856095871706 -1.3299969156988152,-1.310429395653452 m1.3706256081228134,-8.123316577427305 l-2.5846683118811575,3.641494962661008 -3.338930126982177,3.4833254015673862 l-3.626225898771699,2.78842953655009 -4.349868365424955,2.4911771769162687 m15.505823025729129,-12.699806259409483 l12.701456081445876,8.004300503543101 2.2751613795918493,0.8752883785186303 m-17.85949302482851,6.030777227724588 l0.21563290211717948,1.2894698805941098 -0.6190297872284523,1.5421441987751678 l-1.9337130607237198,3.97795452785647 -2.1977630675583284,3.602628922854121 l-3.9444954182908285,5.035867502141335 -4.79451704212067,4.515215277859139 m6.04349826109433,-22.1526995429062 l1.6432194267229983,0.24642924182618325 3.0899752678698116,-0.3528719104482589 l5.387746886789848,-0.6905840012054407 5.174622972411794,-0.9630332585747903 l0.6125855417034235,0.054924243022015005 0.31935470657559784,0.3601488745900243 l-0.09447070477609763,0.5620156453269108 -3.6681257835378682,6.740611290371296 l-0.1680147087781525,0.8117892022531821 0.3746989527909667,0.24203511370627817 l8.186392012908325,-1.2393360798575734 0.7393278018906271,0.28774947425723774 l0.3493697006051431,0.4083699808035425 -0.06336950603326896,1.876592899174427 l-1.7221158957346143,4.595260936826371 -2.0869747479608156,4.181016509739639 l-2.1153148852587282,3.283281944981117 -1.3543436549395682,1.8171726024884054 l-1.380301584325502,1.170767072283602 -1.1648854672920301,0.12741820362508802 l-1.0926891692001062,-0.6489659564135821 -1.263597613843117,-1.2681856742864752 " fill="none" stroke="black" stroke-width="1" /></svg>