<?xml version="1.0" encoding="utf-8" ?>
<svg baseProfile="full" height="99.65591574659948" version="1.1" width="106.71911507101136" xmlns="http://www.w3.org/2000/svg" xmlns:ev="http://www.w3.org/2001/xml-events" xmlns:xlink="http://www.w3.org/1999/xlink"><defs /><rect fill="white" height="99.65591574659948" width="106.71911507101136" x="0" y="0" /><path d="M25,25.498433305525047 m0.0,0.0 m15.657452059540425,3.0768674668159144 l0.365974390947389,0.2708657431859324 2.2186442920685607,2.396586060382452 l1.3335496085910636,2.4600758082666854 m-11.267257981353271,5.831104863614974 l1.6980743867310732,0.05509060032081218 3.36252894581383,-0.3354691380546342 l10.563518571704584,-1.6551791815779653 1.8329569786930835,-0.03983712436719678 m-13.775921079879128,9.891349861725441 l2.4490874025682188,0.07171194088117004 7.730474726201764,-1.2711817948273167 l1.4929385361070173,-0.001126140254869971 m-11.256750660606144,8.939920331788615 l2.6485235097240394,-0.014917897209171188 7.237190386464462,-1.1318199240334708 l1.3578409079147207,0.004467831786691002 m-12.047287699485135,8.785529540119791 l0.6612638935706167,1.6785914500319272 1.681819627525745,10.144852142478637 m-1.2669147382389396,-11.099902456398425 l9.346956017264953,-1.5318318413156375 1.499918691404682,-0.03753168863093195 l0.49305668410093095,0.28510572154621383 0.24987469343605065,0.5629276133995896 l-0.051136166513821024,0.8682469084873303 -1.6408979171760931,7.521323150931419 m-8.209791571776718,1.7361627193699383 l9.307743785029677,-1.097180795771065 m5.799734989856298,-42.7723052647823 l2.0720392809087267,1.0851388656180285 1.8786419755493546,1.6465757448367375 l1.510176140782144,1.71789854680854 0.5918474395166018,1.1138358317245811 m-7.481171848995422,15.122889799284795 l0.9581725725424156,0.1330136462516358 0.8810581092703337,-0.42814386685153805 l5.4437876698796765,-5.998512073291856 m7.656042750872183,-18.483626307816525 l-0.0987609972309871,1.6241794826622447 -1.2094066404764607,3.56578519244587 l-1.6089918127970422,3.514071938954378 -1.8465824843840783,3.1172715838103326 m4.085310023346355,-3.6669189520948384 l1.6216821887652413,0.040888387187556566 7.7650351519727145,-1.7904871199862256 l1.708700604170072,-0.08102735930642616 0.2825536362930534,0.32918841198807436 l-0.1415913187308363,0.5885392291856271 -0.578221893363726,0.7765447523621135 l-2.446742089220021,2.6943192431352205 m-7.0450287771509865,1.0799151759798784 l0.27816115014040227,1.308962913588508 -0.31540636644309233,2.2223592311884377 l-0.8397611107223544,2.9004670013159854 -1.1899868997201783,2.7084225249699476 l-1.3232633922255201,2.133910601664614 -1.6757060182706345,2.1006141086141166 l-2.0229525274040085,1.9178961292342804 -1.777894195512321,1.285923055134607 m9.34595012973802,-10.67363864773337 l7.544401799913782,5.591343958122159 5.223857549768043,3.011250528652965 m-23.59833308162174,6.363544287466631 l0.5310898235224621,1.0231806659353389 0.32691089715595073,1.0652884430819622 l1.4242130141374598,10.214274001431269 m-1.0480713423467178,-11.626674786297695 l14.860308559424622,-2.240502479818476 3.6023890990578042,-0.06155887530007733 l0.7607975870167668,0.8026296570256217 0.12731122771266798,0.6826238294096462 l-2.4091981827668887,9.735730110546893 m-15.659655418076284,1.6551528600445593 l16.77839777655893,-1.241650251385259 " fill="none" stroke="black" stroke-width="1" /></svg>