<?xml version="1.0" encoding="utf-8" ?>
<svg baseProfile="full" height="95.28990465979746" version="1.1" width="100.1074384258819" xmlns="http://www.w3.org/2000/svg" xmlns:ev="http://www.w3.org/2001/xml-events" xmlns:xlink="http://www.w3.org/1999/xlink"><defs /><rect fill="white" height="95.28990465979746" width="100.1074384258819" x="0" y="0" /><path d="M25,25 m0.0,0.0 m21.665398107948967,4.634223295589586 l-0.005267032529575159,0.38379901503168196 -0.3253776552451038,1.308617618608624 l-1.2145847178848845,1.9345358517552897 -4.0578716190124,4.33030025823082 l-4.318294983048314,3.9713454276173565 m7.686419909247579,-5.552149238532576 l1.7997747889729234,0.5510540057323241 1.3359120287473885,0.4793374334612805 l24.265644804754913,-1.6935983825245478 2.551365564600798,0.04601400654259253 l0.6713090833230204,0.48040742075013065 0.05301014600659544,0.9705806479295573 l-0.77123453228067,3.9138584969386905 -2.151744869376101,6.534988794762739 l-2.3611221086274745,5.039708410643484 -3.077076207963732,2.024958424091046 l-2.120247380089705,-0.5066300620782915 -1.9339833332974228,-1.6040269712764201 m-8.505566716250122,-11.332058635459902 l-0.12898039014398469,1.0892230595244072 -0.7806953149760324,1.119507653310846 l-2.9356415781955745,3.040988549107145 -3.6159974023410557,2.6501778218403147 l-4.052493278506929,2.32273982144196 m20.936069274763877,-11.143511452994805 l-0.16241853473904172,1.5342830130122127 -1.0766774210388816,1.7203637144220056 l-1.9622300255124585,2.3601627229774254 -2.7922876742096494,2.6157933106551994 l-5.667916761495793,4.030506586283129 -3.44971474883725,1.8624123559524621 l-2.893994228600894,1.2753973563269456 m-6.594908359234784,9.639350856798094 l-0.5441671583478908,-1.1624852854086514 -0.4532639730812269,0.1468509165937878 l-0.144447065793575,1.2124395270962314 -0.41544827811429214,2.0595891223051375 l-0.9088898128651808,3.000849192740158 0.11566625008031045,-1.5358278962266547 l9.006882272313915,-1.8433553457817204 m4.702905785076047,-4.823101241742964 l2.6473469897168878,0.7549590839746635 2.289992589776251,1.250310955801528 l1.917642660250044,1.4385174176388427 1.1699795135239188,1.319094076259476 " fill="none" stroke="black" stroke-width="1" /></svg>