<?xml version="1.0" encoding="utf-8" ?>
<svg baseProfile="full" height="105.51947638235319" version="1.1" width="105.91189425912236" xmlns="http://www.w3.org/2000/svg" xmlns:ev="http://www.w3.org/2001/xml-events" xmlns:xlink="http://www.w3.org/1999/xlink"><defs /><rect fill="white" height="105.51947638235319" width="105.91189425912236" x="0" y="0" /><path d="M25,25 m0.0,0.0 m29.969504895688797,5.146199458976732 l0.3615414204635498,0.42275084777905025 0.590725382906559,1.0800372159540692 l0.22578855290782565,1.1484134081042223 -0.048279139216465136,7.015317742611314 m-22.621270924732155,2.1770675792776335 l4.79036642066051,0.2654348503094518 35.50251993688075,-2.061863645292785 l4.17493467661495,0.016793568107445773 2.966063036948031,0.38035735769916046 m-26.394364506091616,2.459263653182394 l-0.03389726346315137,1.4391962017455353 -0.9549150727175862,1.085130893670823 l-12.103953006003511,3.3658736530856905 -9.296217980835033,1.7823137432745977 m18.220902983689236,-1.2174397580936183 l0.2792109225839477,0.8058457468763464 0.09712492177242724,1.0855919803383773 l-2.1113181524849645,4.921719966475074 -2.7191240371789487,4.527634844300062 l-4.294754832281709,5.380770368221051 -5.654889454298213,5.088505748315746 m29.488194091688808,-11.203886562492618 l-0.009052247993703057,1.334597394578786 -0.3763020549687822,1.1975870043577554 l-3.2835656820427275,3.6247279637654675 -4.491782742374127,3.830656222803174 l-8.218387999083063,5.401399826189033 -4.964333495753054,2.5783575164175287 l-5.7821906567778925,2.441121591815692 " fill="none" stroke="black" stroke-width="1" /></svg>