<?xml version="1.0" encoding="utf-8" ?>
<svg baseProfile="full" height="98.56375040570796" version="1.1" width="109.46093912580199" xmlns="http://www.w3.org/2000/svg" xmlns:ev="http://www.w3.org/2001/xml-events" xmlns:xlink="http://www.w3.org/1999/xlink"><defs /><rect fill="white" height="98.56375040570796" width="109.46093912580199" x="0" y="0" /><path d="M25,25 m0.0,0.0 m9.37790411495165,2.9537095212113478 l0.39898865387497195,0.27989995986854344 2.4182776779615742,2.342133525066328 l1.461526291134078,2.29730474191387 m-11.867612679847783,6.037915573775414 l1.7917047162451532,0.13308005551594265 3.2870845167840836,-0.2549358845122566 l12.626914817438362,-1.6192253549961737 2.0568915413225977,0.03493421368506269 m-15.492628345349617,9.757179279795762 l2.141538534678644,0.12174505942138775 8.465611571046798,-1.2628005330382992 l2.237278184536024,-0.05241993860863166 m-12.422723209516858,8.762515827546439 l2.9828492969087432,0.00612700371096848 7.860849440402436,-1.073619831749158 l1.5339283296316077,0.010146490446053575 m-13.404172954161039,8.48463144019289 l0.7587343635556699,1.6233622209964782 1.773026794825856,9.98206703546599 m-1.3878657767360103,-10.93467951147567 l10.719278923292125,-1.583291569294688 1.6415198344826933,0.016763040714734608 l0.5132110105518702,0.3232290949689782 0.23885920122943036,0.5699588761150948 l-0.07285728758428658,0.8544589475139215 -1.8414558007653195,7.546744255558037 m-9.19437531143451,1.6656979632623732 l10.392035231654463,-1.0126827730041883 m5.52917790882471,-34.89236083315042 l2.3901697384469958,0.16719732988708186 10.066124128913938,-1.4328365593754424 l1.2064233845934842,-1.2259199248495987 m8.289937915547693,-7.184790956560524 l1.7633506623437074,0.31640963564319713 2.4667725690995708,0.02749834320416487 l1.1090444817882168,-0.569808111720733 1.5888788499228574,0.5352526208849839 l-0.29673889469831416,3.757250808299802 -1.639922120672428,10.007936051770852 m-14.193230485807579,-10.281749239150042 l0.8854805951910397,0.4517122324512876 0.793720297147529,1.232308555823229 l1.5440703026633251,10.016643101734026 m-1.20516558412873,-12.055036027091328 l12.876354642291897,-1.4546058972057085 1.514090227248395,0.08913155744119589 l0.5250841550724052,0.34495548442758184 0.30601859406502563,1.1029050598635946 l-0.13222511117899713,0.8662946848285199 -1.736314708045223,7.867160389023525 m-11.503586094070219,1.5863437566937915 l12.481073009754638,-1.0414672986033264 m-16.660215306989645,-9.33346980958628 l0.5242581028057977,0.8487544168969254 0.1533984814775058,1.0281533762080075 l0.2376723435769043,21.219093068941355 0.9140131978634709,0.6385893441568058 l0.8526702548252708,-0.014138699891106752 1.0107473169184156,-4.696820190623183 l2.5290226151223107,-4.300282982008271 m8.490456123117006,-10.541801368743004 l0.0803296858020488,0.907541757198956 -0.3870496366558185,0.959259122766858 l-3.828596388967123,4.030533040074982 m-5.3442967341735,-2.7007341735426973 l2.470861314652545,0.8229482539017031 2.7293085873351566,1.8121721589042732 l9.929100086831127,8.512429348154317 2.1363489368331674,1.223118417470614 " fill="none" stroke="black" stroke-width="1" /></svg>