<?xml version="1.0" encoding="utf-8" ?>
<svg baseProfile="full" height="101.60802954470775" version="1.1" width="114.06269377325278" xmlns="http://www.w3.org/2000/svg" xmlns:ev="http://www.w3.org/2001/xml-events" xmlns:xlink="http://www.w3.org/1999/xlink"><defs /><rect fill="white" height="101.60802954470775" width="114.06269377325278" x="0" y="0" /><path d="M25,25.383294070645107 m0.0,0.0 m20.320546768026464,1.396225258337617 l0.36322961025096456,0.32374807424459756 2.8604094425107065,3.1543249037121006 l1.4052380422291004,2.1704776260079837 m-12.625704540965703,6.789913032887896 l2.9203908183176046,0.14414978583621654 12.474226442327284,-1.8790147021747379 l2.98624151528043,0.0350442517875949 m-14.365354424526751,10.282201569018493 l2.844881167343079,-0.03799329534260259 6.131655425182026,-1.1668295549905783 l3.134270242191698,0.00904055806979614 m-11.307548943033865,9.341538036602733 l2.7007907420136803,-0.03680361023527936 5.65217490020584,-1.1467879880643068 l2.9642854057263026,-0.00301700351207645 m-12.27825839993758,9.354031651135934 l0.5105966766569068,0.7612157474952703 0.1920238577896241,0.9521822586070978 l1.7216516711739949,10.781088874638893 m-1.4602901134186057,-11.8984479188672 l10.21382832942833,-2.178269666983831 1.3274659282852523,0.0058771198604711415 l0.4576185509498918,0.5195326742668707 0.08128191430188653,0.6564976744722573 l-1.925071841025219,9.50386203955946 m-8.33886905575152,1.921037953768602 l9.272417998245428,-1.5232860006075237 m13.307470197642175,-48.61483342017685 l1.9511670075228427,1.355705818537359 2.4309241687898853,2.325681150088371 l1.569993569722334,2.0129669875287206 0.9098329475192357,1.774050048655192 m-13.6973903984756,9.204696905721779 l2.528607027369621,0.04925709342975005 16.57895474449369,-2.4001377639717805 l2.98926554503243,-0.18843366808787834 1.8336464839157287,0.3218967130376602 m-22.794856509580644,17.97507497379054 l2.585779869895252,0.19616127681046427 16.43561731762773,-1.7712985008949338 l2.8008538792995132,0.17881655158442078 m-25.697201885709447,19.376895980584862 l3.5919370252627782,0.06712637057668877 12.079220736293195,-0.9781489325556308 l12.302682426877027,-0.5415988757922278 2.0199788397474765,0.13585387495896503 l2.1020826502302956,0.49306032768338204 m-18.822550197834822,-32.18998772417923 l0.6522556391708635,1.1212822488083543 0.4996573537290548,1.6475619474057697 l0.15365143062492304,28.794338430738186 " fill="none" stroke="black" stroke-width="1" /></svg>