<?xml version="1.0" encoding="utf-8" ?>
<svg baseProfile="full" height="109.47494210280351" version="1.1" width="103.99087662452551" xmlns="http://www.w3.org/2000/svg" xmlns:ev="http://www.w3.org/2001/xml-events" xmlns:xlink="http://www.w3.org/1999/xlink"><defs /><rect fill="white" height="109.47494210280351" width="103.99087662452551" x="0" y="0" /><path d="M25,25 m0.0,0.0 m12.966969046861948,21.20406809338191 l0.39551950226282606,0.10367061824766562 2.504283971423725,-0.004679666318171084 l9.054198524130804,-2.0883422735244075 1.6030113663434709,-0.07228310526163374 m-5.888414236914022,-13.781912961671926 l0.6497573707155476,1.4373278795623052 0.13408234610461486,2.0684322553134487 l-0.09267016542107119,47.944071293082835 -0.280597596753783,1.5473697561745394 l-0.429254634029157,0.7190684039262976 -0.5263458181179381,0.038024211871478295 l-1.1933111111563333,-1.250581788883503 -1.361842868453899,-2.3041037669602495 m-4.885954901504601,-13.862491381451617 l0.7931827856184964,0.4174241680308637 0.9795882361151792,-0.4560545697711424 l10.684441693818052,-11.138621373329197 m5.112156598322282,-23.23030629854474 l-0.3480042326205446,4.559997626833294 -0.8559555695406613,5.199160795430773 m1.747718586497892,-8.169178474809216 l16.66058948888857,-2.544869459444159 4.286320034365265,-0.245431532765341 l0.7262307374167329,0.36849640819808227 0.24364051027813755,0.5973380843889204 l-0.14535309359194065,0.7668357683806933 -1.0583587972193749,1.7255324820224938 l-1.2400865342467053,1.518645167706147 m-14.507898215814924,1.9619688397777786 l-0.2950313158013862,1.117294009772962 -0.5030357736466797,1.8447931853775679 l-1.5382198567510348,4.011530504059302 -1.7138774601917257,3.0181858726902697 l-2.366255418394555,2.798025579237898 m12.5638895383534,-15.33261734622189 l0.36317081877158464,1.3214403412696711 0.018869112635995406,6.662152797396784 l0.18714293653951128,0.815007322264244 0.5186348140566178,0.7898081524055279 l1.5137217459671048,0.5352652747810167 2.857842194374062,0.0876898995868271 l2.5527787817543706,-0.25637328081144567 1.8278087273330779,-0.5924431129727664 m-23.681936183227698,12.511748193532128 l2.8019549204771255,0.10272615823355216 16.679378549953146,-2.3182649260360635 l3.0107861272033207,0.05103989548757978 m-11.700018403100572,-7.142450614107774 l0.43612222902213826,0.9819694989945288 0.13774650393549068,1.212635922590852 l-0.010325852113213269,34.2272035756785 m-1.0680404101451042,-27.488572058842575 l-0.30685481596783964,1.5630025041129316 -0.6670454668319693,1.9367070172259788 l-2.0323118088056136,4.133690941253967 -2.0771600620840833,3.465980315218301 l-3.6020080250179825,4.711492951324208 -3.9200774418090627,3.634525938963943 m13.990129339221095,-19.192924482001825 l10.448709441285619,15.358960760671168 3.8367461137518015,4.80711000650689 " fill="none" stroke="black" stroke-width="1" /></svg>