<?xml version="1.0" encoding="utf-8" ?>
<svg baseProfile="full" height="112.20070555284846" version="1.1" width="102.85999841596393" xmlns="http://www.w3.org/2000/svg" xmlns:ev="http://www.w3.org/2001/xml-events" xmlns:xlink="http://www.w3.org/1999/xlink"><defs /><rect fill="white" height="112.20070555284846" width="102.85999841596393" x="0" y="0" /><path d="M25,25 m0.0,0.0 m13.810107411826422,3.810907100601675 l0.060445311069664116,0.4834914558175152 -0.3957951918163949,1.3982707544952278 l-2.3860246980169713,3.2705098155675247 -3.0091040879666022,3.0472116694984694 l-3.5883172493066495,3.6546046643156616 m8.35432120617658,-5.969565589378357 l2.9148033019169297,0.016091103806388438 9.886936536470973,-1.2730872543684728 l2.3077779075728,0.07004089937323946 m-9.061178784816192,10.01858092134149 l1.2676218401278867,1.2375923055474773 1.1879464683833132,2.0214211274559157 l1.181461607741036,3.2261938953925906 m10.908385168773833,2.7074446197844373 l-0.21243818724265967,0.8323747888052885 -0.3925606520306491,0.9324244766315163 l-1.4025779130401375,5.437639912273755 -1.5111616721889127,4.324946607699834 l-2.006682390132645,4.128517845657634 -2.1924239932318907,3.6666792099195744 l-2.5682540375787415,3.2382126846542594 -2.8660950453130156,2.841784325427622 l-3.3698121771744325,2.5053777905473975 m3.681370851562192,-21.567400318963163 l3.336833557304053,1.0601145484045462 3.7590899211923334,1.8773281244363467 l4.034741430169078,2.624442028373396 3.7567426613985897,3.1051743704223944 m-18.775377176552997,-23.07074309672118 l0.633040572286773,0.9815390967284506 0.20903516696109586,1.0016829722934992 l-0.02273161084407633,30.27959184049409 0.4209757143661373,2.274316308771939 l0.5368268641804144,0.4361285822576307 1.0342686187463421,0.22113781491545834 l14.749577225483126,-0.0346365743946154 6.062354703317221,-0.1172782731335699 l4.8186276423320695,-0.19448594790106716 4.866995547366734,-0.45708659858658884 l2.8402460464912846,-0.5355346467719808 m-45.21531019826512,-38.83774903283993 l0.15368360787190097,0.9567348517199167 0.16024410479651519,2.1374391908619104 l-0.1274517054325786,38.9679195379534 m0.4173325399648765,-35.64852649579673 l11.5540664072864,-2.037186964344766 0.7155076209958295,0.11180743591967877 l0.8168154729151587,0.8402813734256489 0.22090907375187863,1.230026171339295 l-0.2730812915134249,35.91662211530642 m-12.87796204371023,-20.262718775041943 l11.578451127830474,-1.1315382925778428 m-11.31975641453204,12.891879174872207 l11.10288445025613,-0.9607984116771724 m17.130863874358628,-38.55285950387896 l0.6735574158192714,1.132795345691019 0.28715502401426635,1.3651670853305242 l-0.018604794968151792,23.00499676752875 -0.6523923503593927,8.546002798435124 l-1.180575225474717,0.7260915337737973 -1.6817752310592842,-1.281959029345462 m-1.5973388441911747,-18.916564048570354 l-0.19303731323901135,1.0046830169251804 -2.3465759861992805,5.319152812779795 l-1.8838756053066585,3.5298005476251264 -2.13234178796392,3.323071715140762 m18.488192258003526,-13.501798680758219 l2.4189748337867756,2.3262904287455064 2.5376542846148924,3.4349727427001775 l1.9546225773545636,3.6517082058685704 0.94666442664257,2.8060633495565983 m-3.879448920351657,0.7553056368819712 l0.07592556024557308,1.7492863391028082 -2.0235320250552933,3.72736849519624 l-3.256725793566389,4.507277052774968 -3.7055180807523627,4.197921712149637 l-3.4919964198105093,3.3751303292360078 -3.972035423003064,3.236144542064803 l-4.3439919044222925,2.9056594877357433 -3.909428556822722,2.142849629545024 " fill="none" stroke="black" stroke-width="1" /></svg>