<?xml version="1.0" encoding="utf-8" ?>
<svg baseProfile="full" height="103.6715747987213" version="1.1" width="103.73265246432476" xmlns="http://www.w3.org/2000/svg" xmlns:ev="http://www.w3.org/2001/xml-events" xmlns:xlink="http://www.w3.org/1999/xlink"><defs /><rect fill="white" height="103.6715747987213" width="103.73265246432476" x="0" y="0" /><path d="M25,25 m0.0,0.0 m27.9784238043593,1.8626701539777535 l0.06102660005677578,0.4890757135989857 -0.2398932640420432,1.4746331732792801 l-1.1114361544354663,2.4663222104608664 -3.713771315922442,5.952379839434879 l-4.324090702407932,5.339628199035485 -5.215166515972629,4.552242686454192 m12.548311867950934,-18.388447081765566 l1.7748873505291625,0.46021530522878307 9.966084644863136,-0.0791469322824738 l12.822464574603082,1.5445378881892964 2.636023480457571,7.7175249547385025 l0.5497880942853212,17.036508480163477 -0.5062896825565402,7.393104509112158 l-0.7457399267706684,7.555682996752504 -0.9706530070804926,4.036909631858688 l-0.7393901217851693,1.2377898234213647 -1.0656641211407731,0.02732592926588808 l-1.2159784659204258,-0.876167360497818 -1.826964612260431,-1.995364423218087 m-24.98118610370602,-32.251244466019905 l1.9839300742250756,0.19157037515381353 16.841182770240763,-2.0289580683240516 l3.7304585915836967,0.06867876964362296 m-20.52344930331423,8.047954665916297 l0.4733476330677678,0.5453357682733442 0.5575707285046633,1.5904218125615661 l1.3673460771093255,7.420420055407731 m-1.2477465645977057,-8.928010987179956 l14.757611838099857,-1.9966561621263423 1.211943112029102,-0.06428444828176082 l0.4966362048503069,0.27827480399772425 0.29919724548471804,0.8519189917565686 l-1.906064166884043,6.2901406341484885 m-13.459927184345291,2.2565382395754408 l14.354686079207728,-1.6546921743140064 m-18.57801138308789,8.106071355554088 l0.5580519701979405,1.8513233072265063 0.6578078168315495,3.8843194704521236 l1.2253673297150787,11.405027158091844 m-1.723818584164552,-16.539785005134025 l18.03086665209686,-2.4517781306353057 2.467001693515981,-0.2831070137831372 l1.4072511194360897,0.2464608452739885 0.45942124174659166,0.3439071432532965 l0.3315243285302971,0.951353409144017 -2.1921969964204,17.045913866513647 m-10.493874389937867,-16.732270098444108 l0.7431946323280448,0.6082063108264155 0.26900975048146797,0.9375224414472996 l0.10460682011836628,13.361677357081264 m-9.572863995754211,-6.414319644702422 l19.910201665988822,-1.9760715844020071 m-19.049070658316523,10.245518126419281 l18.148554408654718,-1.633195704726065 " fill="none" stroke="black" stroke-width="1" /></svg>