<?xml version="1.0" encoding="utf-8" ?>
<svg baseProfile="full" height="102.43359171544466" version="1.1" width="104.39619801216534" xmlns="http://www.w3.org/2000/svg" xmlns:ev="http://www.w3.org/2001/xml-events" xmlns:xlink="http://www.w3.org/1999/xlink"><defs /><rect fill="white" height="102.43359171544466" width="104.39619801216534" x="0" y="0" /><path d="M25,25 m0.0,0.0 m9.763703986352315,3.0660648553137353 l0.40347457775046686,0.2850719848958031 3.226892535540549,2.723294588954711 l1.5727263093514532,1.9572912084491012 0.6130435667179137,1.215523361872072 m-12.599223559642258,6.1629842020031465 l3.9848437252029556,-0.015943940604924572 11.651639988222248,-1.8344023272306142 l1.8942074383696186,0.13680600717832384 m-13.61682941913067,8.003318597031054 l2.8841144626496,0.01223876351139626 7.518232474357416,-1.1228060469152035 l1.8258903423503343,0.06960844046143586 m-12.47445478742596,9.406979758764011 l2.5923419052783374,0.011656782226264468 8.485656371644374,-1.1540082130496954 l1.6165899168987514,0.0650699513891138 m-12.476996836393628,9.097986039266578 l0.44275678037937544,0.8171120085113678 0.19833861615934398,1.2614544356538504 l1.4952326477236058,12.26829125776313 m-1.4533696212524982,-13.21022448458169 l10.134429375207636,-1.9731263921001463 1.2959131301145501,0.03005598951181383 l0.45541885619351685,0.47770559833839776 0.08145424648792202,0.6132544564562502 l-2.2263409715732205,10.984424652083117 m-8.493055816172118,1.3854063599396773 l9.926588739672578,-1.0621176997364097 m7.775650448317088,-44.94726721338434 l1.370426768236226,0.18766743813718081 8.566138933299419,-1.4295295844447968 l0.591936031158764,0.15148181490018772 0.2956021491125119,0.4005078756857726 l-0.2323660527790314,1.5546577387392058 -1.0770716184408546,2.5669027520398937 l-1.7925755875586693,3.290284697797364 -4.185662718886619,5.760856102630966 l-3.9879876089051,3.8562857180689245 -2.2514016781851467,1.5967236516109895 l-2.413286798848782,1.2755827597321725 m3.208014078354151,-14.338961606731559 l3.163490529702535,2.1990079437204004 1.31372254918598,1.3620783737551219 l0.7432572382156977,1.1773179362913149 m18.107710235206543,-11.09695813074362 l-0.16221981645900066,0.889090891769668 -1.0826852113233563,1.5638143653622876 l-1.9099425174257207,1.817869753697851 -1.8159254906513849,1.2900881732521854 m10.037755457139742,-0.35015337209493197 l-0.3416530649830295,1.1200118256747857 -1.3192165711424837,1.4486401728489617 l-2.1440969330628254,1.635992950818843 -2.0148727919099993,1.1453896371147887 m-9.980628846147459,-7.804275389364858 l3.9445394813142043,3.711123360161991 10.616590734050218,11.257034455937935 l1.2371992854832654,0.970698878695924 1.4125384190639692,0.569621874677565 m-24.4499368168577,-1.2733177352019802 l2.524742719487869,0.1721524530529766 9.910653672775526,-1.124193187703621 l1.9252464293025517,0.18660707184204417 m-16.570901905086608,6.70530506983601 l0.610127450287233,0.6456239304576084 1.4603210851986008,8.354330810938428 m-1.1170183482740044,-8.013287283325173 l12.918773220111298,-1.9986085218617393 3.1107067642880017,-0.179561921954945 l0.39798171074182237,0.27401262061042153 0.3325557987946674,0.9889103033418426 l-1.4269631651955401,6.179236925537477 m-13.800035004788649,1.3422542202959569 l14.997013771355029,-1.3359995612225033 m-16.608638110402175,5.71988468308365 l2.2826031280388226,3.651980539859124 1.2977435453098698,3.7136859397833355 m11.627109739789207,-9.288850087640887 l-0.21869158212278306,2.296782289814677 -0.8909877955454117,3.354142281311802 l-1.1685576013126515,3.0203609545987207 -1.1377465646504255,2.11846722592976 m-17.909964438872052,2.0469796783700986 l3.176369137558313,0.2873311204972778 21.12017250249276,-1.6275639890614757 l3.426871906796478,-0.08184939410020224 2.1307777457533827,0.2754726086030656 " fill="none" stroke="black" stroke-width="1" /></svg>