<?xml version="1.0" encoding="utf-8" ?>
<svg baseProfile="full" height="108.25753435982485" version="1.1" width="105.77195325304191" xmlns="http://www.w3.org/2000/svg" xmlns:ev="http://www.w3.org/2001/xml-events" xmlns:xlink="http://www.w3.org/1999/xlink"><defs /><rect fill="white" height="108.25753435982485" width="105.77195325304191" x="0" y="0" /><path d="M25,25 m0.0,0.0 m10.335599381897818,3.760201649101456 l0.4367386633911827,0.2946282382507804 3.199435744362428,3.0346957944093793 l1.5580260369982135,2.2044143627393717 0.6060590652089611,1.3460081149073337 m-12.984079829097103,6.8605109558490085 l4.039444393137691,-0.004798150439177512 11.749515080851488,-2.027632885097081 l1.931059623497034,0.1451303558196486 m-13.911552678870565,8.789422991980729 l2.883942074981297,0.0026103864828478773 7.712908398984208,-1.2157677467370454 l1.854886425033529,0.07303348101567647 m-12.722188489383763,10.355676086947199 l2.6348973719646755,0.012496094350306974 8.67127294313987,-1.261902510993293 l1.624569836961202,0.07078000765337499 m-12.670488298521533,9.979639845719458 l0.44889974804655247,0.900804522422083 0.2038879791435715,1.3903306619470064 l1.516272256779977,13.547252103495783 m-1.4799336526702804,-14.615525576546561 l10.385936323077427,-2.1509116517524576 1.3332347346114888,0.033810708027326414 l0.4616776148333513,0.5206473665550108 0.08677333843016857,0.6699183477669063 l-2.28864632039518,12.102431577393133 m-8.651124075099853,1.51755893052501 l10.133560650022226,-1.1715650425147754 m8.084134691683342,-48.46021110329052 l1.3917284054065548,0.20675824596521583 8.689280279297854,-1.5670404232826385 l0.607553282645886,0.15601809739777964 0.3057209262889092,0.4237482193408465 l-0.2238845803940639,1.6697006812118056 -1.09639387449331,2.79435536472869 l-1.822306577937596,3.597495853912991 -4.2586531616515755,6.364242178321276 l-4.090340484892212,4.334477141587102 -2.2744997452630846,1.7492232201778883 l-2.4326078181634463,1.3976088880542483 m3.2261946461414195,-15.863802419143493 l3.267529933269261,2.391316435131344 1.3682875092524154,1.4808273004129862 l0.7681919353739669,1.2747532298538782 m18.41559713396935,-11.230200120977154 l-0.15974756148553196,0.9175146828445785 -1.1123940500116969,1.7140724329951407 l-1.9258971174800232,1.9525918676585308 -1.8356113821200672,1.3865047101741903 m-5.667498074292839,-3.2612598742321457 l4.073472808405399,4.047519581719788 10.711314974238304,12.251015420594484 l1.2298305948018973,1.049842483157899 1.432366219136702,0.6206248742917213 m-1.5294597555834668,-15.203279778806301 l-0.3547524951197648,1.2100090520961182 -1.377004698167134,1.6247057580419526 l-2.220891986844218,1.7741581817060204 -2.088619629665014,1.2169209762589401 m-17.32912891065293,8.145838022597326 l2.5942250499966844,0.18990218094262287 10.297739851205467,-1.2306299400102925 l1.9678723946850523,0.2049532800687741 m-17.004255650865854,7.33193193160661 l0.6277118177854174,0.707478518437379 1.5062074445257967,9.110822689641802 m-1.1671474398537853,-8.752398285954719 l13.265771987961774,-2.1770548294392 3.179520725340285,-0.19588798371344274 l0.40543871898625133,0.29412323326365 0.3403086445316534,1.075016588421826 l-1.4465259453849282,6.7851953115738155 m-14.102579562766815,1.4736504436226772 l15.351981769617785,-1.4794605473685774 m-16.965547286695987,6.357307386062352 l2.340805595659301,4.0560726235887605 1.331041874795822,4.0707639250869185 m11.794896046291756,-10.154840703844897 l-0.22717043878050547,2.4969063201396793 -0.906419340162399,3.643201996795017 l-1.193606631983583,3.2953157720683284 -1.1522043197882637,2.3281120004711187 m-18.209309862238708,2.254425204513196 l3.221840612747358,0.3134482256345332 21.531509955238537,-1.7798686909309624 l3.4898072348348523,-0.08806683635820485 2.1688657587519646,0.30161687396358866 " fill="none" stroke="black" stroke-width="1" /></svg>