<?xml version="1.0" encoding="utf-8" ?>
<svg baseProfile="full" height="106.22231886234489" version="1.1" width="100.46907209755517" xmlns="http://www.w3.org/2000/svg" xmlns:ev="http://www.w3.org/2001/xml-events" xmlns:xlink="http://www.w3.org/1999/xlink"><defs /><rect fill="white" height="106.22231886234489" width="100.46907209755517" x="0" y="0" /><path d="M25,25.970382083340226 m0.0,0.0 m10.122281821036818,3.7566389905593405 l0.4006084499111316,0.25098948772849733 2.7978216360367756,2.518206954935307 l1.3472678419946464,1.917146932698876 0.5493051437702747,1.2173947678006654 m-11.126402404831854,5.810056451742695 l2.0359391459204437,0.06292201235930132 3.0769364803380665,-0.22257318485762811 l10.386768355326543,-1.640684810040786 1.867249624357631,0.1704776022699326 m-13.875237413856222,8.70437296499994 l3.302188110699861,-0.010095693845531719 7.399201508481539,-1.2283844407524778 l2.173160428384154,0.08349622999222997 m-12.464304741718522,9.016059938320998 l2.50484451066741,0.011530321980118578 7.780798101502746,-1.2670327363159153 l1.9014116350748622,0.05982857310849733 m-11.823129141846188,10.234699786565015 l0.5712383108262581,0.8859498776447988 0.25937784622780313,1.3867391811422647 l1.3240150981972922,11.694948289116047 m-1.023390827122976,-13.31011200732592 l8.68189554996277,-1.8145569399116082 0.48225447881543343,0.04880896943636595 l0.3462024440613438,0.35343632379002027 0.20660445271075373,1.1252316698893101 l-1.484297806113344,10.18921949897134 m-7.124862143228478,1.585261900512251 l8.446763779425263,-1.1569230836750122 m5.3528518098982545,-44.52999266978346 l3.2081908333249674,0.18953246248964434 21.95918522374357,-1.2858298183289603 m-13.628952261979341,-5.777145886556386 l0.3187689398449074,0.3339183768435417 0.38304106545718264,1.173321684395292 l-0.10276808964260327,9.29351865179146 m-9.070521054238782,0.8695095195357516 l2.099408325224852,0.21373463115437255 13.130688189802948,-1.4301583800514677 l3.5055177577261003,0.12325139495849086 m-22.07528238765791,5.603740478366553 l0.311976038759122,0.5281090572239653 0.7928696584082465,3.164758665398296 l1.0217787692828164,5.611499800324584 m-1.3532276466763917,-8.232546829361016 l12.034587906749397,-1.5470952840470367 12.279229673590294,-1.3432335957042179 l0.5648165931848171,0.12307044466658475 0.44555354194522667,0.49544780386985654 l0.1194010264398114,0.7843018956316418 -1.5743073105171268,8.08050897279728 m-15.125501133683414,-6.31259905093033 l-0.23297735829962515,0.9126858256518403 -1.01504562541732,1.6195899712985908 l-1.2268854039385702,1.172093806240099 -1.8536676837706325,1.2132505470838348 m9.958157176215648,-6.393643389948329 l0.5433961209188364,0.7981695375161194 -0.010055196494777116,1.9955612584915734 l0.6581064470288107,0.5210573496202403 2.2227588821633946,0.270178167590873 l3.7423606530881517,-0.27795668716979943 m-19.742810236243493,5.262183633514133 l22.188669167360064,-2.107817846722429 m-21.254577988260348,5.995338698919241 l0.6474611604056236,2.004790254107127 -0.1871396474443113,16.9859229930677 m0.6360056093208967,-17.637990164788945 l14.917403165551512,-1.8976332559508313 1.2873297134525659,0.349492038501143 l0.4376228262582897,1.015801761964265 -0.32159998879052343,16.508685535702924 m-16.6063632538791,-10.536827302533315 l16.55043463182409,-1.6190440303747469 m-16.39024838259538,7.299665441876206 l16.399644564857056,-1.4698928526156891 m-16.571539905317128,6.671351004773922 l16.599019747605162,-1.266387042533597 m-12.99488957838225,4.034184398974805 l0.057333301054058504,0.5908669238351577 -0.2863677797949383,0.5528012081073431 l-1.0899061050956582,0.966071736951567 -4.261972488719581,2.9520229135652607 l-3.8152468493460745,2.2046881907649953 m18.59184773592272,-8.577784247189197 l2.306036466602226,1.3580066141921476 2.7158225684413377,2.1292084567179765 l2.650459461291664,2.6434241406034475 1.5806804259835912,2.13907751851317 " fill="none" stroke="black" stroke-width="1" /></svg>