<?xml version="1.0" encoding="utf-8" ?>
<svg baseProfile="full" height="98.4410853613683" version="1.1" width="104.58214639369882" xmlns="http://www.w3.org/2000/svg" xmlns:ev="http://www.w3.org/2001/xml-events" xmlns:xlink="http://www.w3.org/1999/xlink"><defs /><rect fill="white" height="98.4410853613683" width="104.58214639369882" x="0" y="0" /><path d="M25,25.710935952270685 m0.0,0.0 m26.753623375368235,1.9443123217010763 l0.07838250650807187,0.4027661643894483 -0.23370683225752129,0.6243239834564293 l-1.4084184654200766,1.450765699851674 -3.9106915797814294,2.8259959966382397 l-4.559009591890731,2.33729730815934 -5.124472134974265,2.101951039661328 m29.958161237689147,-9.64042509530172 l3.8284422005655685,1.531144473700184 4.060640849145205,2.1392254037309137 l3.337261967773919,2.2259627007169405 1.801932860972691,1.9415876956861655 m-33.98250780555293,-1.2419284142802614 l2.478057706282432,0.1566895623312739 16.009157022767415,-1.3080585628825798 l2.352983951947511,0.17124301505307848 m-30.97247170259563,7.902073487694456 l3.935215161606065,0.22239594067407895 27.989989925914067,-2.1264818380787145 l7.599577820392092,-0.3965646299731378 3.5694274465570275,0.214418995248125 m-21.896627045917242,-14.189631200447021 l0.3071402777993654,1.3933679940145818 -0.2115227118285252,1.072068109315323 l-2.462735708309242,4.977735923944815 -3.0535474234138835,5.062363166200652 l-3.7373254069346573,4.79041931256291 -3.6121540834135377,3.6991616231059568 l-3.310893942442759,6.062424781898585 -6.498944911060385,6.010035276652304 l-3.417724648329237,2.1909471001951877 m27.645777568188173,-20.247774350292556 l5.7794135426673225,5.407423286542753 9.660506743727918,8.143866928844563 l2.0110143601028305,1.3342855802513378 2.166149422273696,0.681866180213507 m-34.27941604099621,-2.6595657842213365 l0.655512135394884,0.13017317827731695 1.3231202292303257,0.018290381058313713 l15.130794392754193,-1.8735452547829994 1.6989342702715784,0.47032029110011925 l0.4532443436177903,0.46834495341438326 0.1569312298944495,1.1786609117550961 l-1.2262540298024254,3.996553840588678 -1.2561299484385071,3.3118147567865823 l-1.5323026908195991,1.7918910113839475 -0.6327156761564885,-0.02513152087051671 l-1.168036073551352,-0.2578790978298748 -1.1095598264247684,-0.8018216919136102 m-11.391881352608006,-8.322809749363223 l0.33169487996985364,16.293356854503084 0.7228155789775529,2.094936630542898 l1.221515411176561,1.089179660465104 2.309674626783685,0.7066653463577356 l3.939328385321022,0.25345973066667243 10.47696487013651,-0.02368303721482908 l5.264141930784506,-0.4196335798777709 1.8907354809710222,-0.5994416192657803 l1.1775815774528622,-0.9755531285126675 0.5921128520900094,-1.3298111421153485 l0.18549988523697644,-2.0627667659284135 " fill="none" stroke="black" stroke-width="1" /></svg>