<?xml version="1.0" encoding="utf-8" ?>
<svg baseProfile="full" height="159.91980347179657" version="1.1" width="92.19278566057604" xmlns="http://www.w3.org/2000/svg" xmlns:ev="http://www.w3.org/2001/xml-events" xmlns:xlink="http://www.w3.org/1999/xlink"><defs /><rect fill="white" height="159.91980347179657" width="92.19278566057604" x="0" y="0" /><path d="M32.95954741962301,25 m0.0,0.0 m6.8136852839627675,20.339526025641728 l0.2861193385377969,0.35822900160103965 0.7116139233272734,1.4459864175347932 l0.17503136503025615,12.320418868931005 m0.10064947473689712,-8.086052724877955 l10.92625793622327,-1.7895984209711906 2.268789796054243,-0.0012800207166947352 m-21.059772321849326,8.53534204440725 l1.5890963941096838,0.18661364508495448 1.8952787132992643,-0.08145608502611919 l13.99929195866395,-2.2236863022627227 2.4112656690803025,-0.14943088322762482 m-10.779480152963364,2.7450422368674086 l0.228288689822711,0.7356694843341072 -0.18202905445560777,1.3620447180051767 l-4.459132373072456,4.328769423422075 -4.28795989613598,3.1834442119820054 l-0.4837549263529974,1.9075792545866204 m5.3729462648823105,-4.986541853431593 l2.3022069349495555,2.138586269291623 1.3463354859517687,2.9714942077111117 l1.125583619821255,9.763293658820196 -0.3557051949700679,3.8848321919220927 l-0.5461859203054126,2.767548643382361 -0.8355585233550167,2.432502360860679 l-0.6048440957362816,0.8586936334607045 -0.6470665157960339,0.36594091347987284 l-0.6585797361625018,-0.03206286632541325 -1.2296799123744078,-0.6597562464896787 l-1.0416801937474731,-1.1529817907505098 m1.5301478674264002,-22.7137172196048 l-0.03632592204423364,0.785601117997019 -0.4957134975640249,0.979322636769351 l-2.4979528540500326,2.7236471883556534 -3.258411369433197,2.6190430001520895 l-3.71831017402094,2.1263526699760327 m12.026843419328863,-3.5095317052922015 l-0.03602054608337036,1.0836579419190473 -0.5803479181594301,1.1072956514100047 l-3.4637187531826346,1.7260361793829082 -5.354473453870134,2.035758998662433 l-6.456276249146653,1.870306052073751 m24.665738753399477,3.5099134834939862 l-0.5167712482360879,0.21349353555917747 -1.0051613080841544,0.7581322041292526 l-5.825974499283763,1.392245880401502 -7.206066057440307,1.6841417778067849 m-0.8486266399330558,2.42792708096844 l2.847614878392253,2.0453874395712366 1.957482046673293,2.461646951728067 l1.3826412595857989,2.4920346519784857 0.8664138182866029,2.7520065383192476 m13.158811364465107,-21.28770484325648 l-0.2857371552648977,0.3734035362124441 -0.6542197122874568,1.8156370872033782 l-1.8368243625808762,2.817680055823848 m-3.6361493085729246,0.960288030532518 l1.3839433862720578,1.326510553529985 1.441402792646654,1.6018681708499498 l1.3336366920629985,1.659787824107001 0.8766829805226245,1.4155784259463702 m-5.837353057890134,3.3160598768434277 l2.258587366092262,1.4346497657530868 1.4744310825841662,1.4913263278872368 m-5.8898901154120535,4.67214042636827 l2.2433384123870517,1.3844706438073233 2.427945528618804,1.620169609359772 l1.7804361955486938,1.6163894035025483 1.0881786975847458,1.3982356198616843 m-8.709968349600114,5.5718528627365735 l2.1623319566936687,1.0579597509925989 2.5877123624714917,1.4494860035114312 l1.964701271049273,1.4791675465487637 1.3743170541409058,1.397041419130084 m-8.804352211901142,5.640983831625671 l2.1834217259520194,0.31581846224500126 14.904671641352218,-0.02933405325572014 l6.885438420280848,-0.10605388514165627 m-10.710891962998822,-20.248700314920793 l0.6120070052331078,0.5952216392866225 0.3274924858298696,1.2329368749002123 l-0.1341597191522128,29.90752074680059 m-19.83383202881202,-19.937639117391868 l1.6883265177288944,2.4832819656974903 1.2414585995574132,2.416354149106882 m18.113320028574027,-6.833417240796709 l0.018917798408675593,1.2061728634321953 -1.1661154374792098,2.156813148217926 l-1.697980750716023,2.106530627820001 -2.041267988941088,1.9492699119023997 m-17.605914089530998,3.834311962527716 l2.5356664393421737,0.2639443666268563 11.451417362563344,-1.5828661856988409 l9.02791587376233,-0.6989975913064835 2.2111670442525213,-0.08686183713234194 l1.7304476059975218,0.2669154174471915 " fill="none" stroke="black" stroke-width="1" /></svg>