<?xml version="1.0" encoding="utf-8" ?>
<svg baseProfile="full" height="91.42020829454214" version="1.1" width="98.6972633414409" xmlns="http://www.w3.org/2000/svg" xmlns:ev="http://www.w3.org/2001/xml-events" xmlns:xlink="http://www.w3.org/1999/xlink"><defs /><rect fill="white" height="91.42020829454214" width="98.6972633414409" x="0" y="0" /><path d="M25,25 m0.0,0.0 m25.52415886623061,1.5719314064216012 l0.03583437671053766,0.5119006545949532 -0.26468365052383985,1.4233574554690178 l-1.0903030781760943,2.0518971144929354 -3.815106919620647,4.921297954870814 l-4.539406568258209,4.5774823253406565 -5.780198513048112,4.39020335283996 m12.763430562534307,-16.267431492274067 l1.951030380621234,0.4544148632315879 9.699130642522302,-0.09508250294668716 l12.392154663713772,0.6891116282728018 1.4701943840117406,4.933576492644736 l0.3510281947233125,19.31379058604699 -1.1708642049171585,6.502308951492237 l-1.9757260693057546,5.068714173348505 -1.0841167062497263,1.1807321907335442 l-1.9982484106360516,0.1918666076396202 -1.3303434492330393,-0.6367355497029599 m-18.12477593172338,-27.155863055747197 l1.7726197333836262,2.078467364754563 1.3944518960306669,2.6984721397091636 m16.580445012511813,-8.03206132775113 l-0.18265490389890948,1.2051919275532879 -1.4282262449746452,2.240568687653257 l-2.0078727830019307,2.2095064778927624 -2.1005948507301317,1.6416459192833905 m-18.618974376604722,5.272586788089504 l2.8592184731337276,0.26159992570878454 18.38900800131669,-2.044109963689811 l5.975546115065829,-0.2665357307338459 m-14.022048728836198,-12.160020422606799 l0.6515500542008563,0.9066670795121717 0.18481641059747744,0.9036391380761474 l-0.13670583323658322,30.877117134321644 m-0.8979175810374967,-19.571292490405316 l-0.4743208515561569,1.4524498452876524 -1.2624241498001536,1.866864789061805 l-4.332295327796476,4.81012804085516 -4.84452742731502,3.9703880842093513 l-4.592968801340761,2.709648822692815 m17.524841896261734,-12.19035358223919 l2.5914089507578564,1.2868182726286514 2.985210458440916,2.054400629742806 l2.612788394358093,2.325404179303582 1.6388844180782547,2.1416667643363647 " fill="none" stroke="black" stroke-width="1" /></svg>