<?xml version="1.0" encoding="utf-8" ?>
<svg baseProfile="full" height="110.5142376570115" version="1.1" width="96.26090942681655" xmlns="http://www.w3.org/2000/svg" xmlns:ev="http://www.w3.org/2001/xml-events" xmlns:xlink="http://www.w3.org/1999/xlink"><defs /><rect fill="white" height="110.5142376570115" width="96.26090942681655" x="0" y="0" /><path d="M25,26.013712690092376 m0.0,0.0 m9.585646371325797,2.646705765319482 l0.38136191836918093,0.25303626345046637 2.7067903900598824,2.8208573653355815 l1.3396055883052556,2.123397204710676 0.5287074862535104,1.349834182936558 m-10.42822575034199,6.4537752406816224 l2.927499568330805,0.04505366942872153 9.651983786719804,-1.6908002119693981 l2.914257940381715,0.05469750524667708 m-12.770605086458453,9.245968442907289 l2.62932122579434,-0.013582527322724199 7.005238586341466,-1.2969100336195494 l1.8799895674903935,0.07349092838929659 m-11.188856750284456,9.225693307938988 l2.2462745366295955,0.007727923777868042 7.156676306849026,-1.3000412144882612 l1.6516128935130072,0.06832759006246711 m-10.716690019658445,10.956884786163831 l0.5204527578799841,0.8717660996799028 0.22042726323019932,1.435590884343181 l1.2982010861618134,12.879644804738032 m-0.9867211925430575,-14.471973285867703 l7.97712648565288,-1.7534544784649269 0.4459722895542467,0.06632458838286628 l0.31872210199503453,0.38899470876033554 0.18791921638694387,1.203811409924938 l-1.3862392018815286,10.961282313560485 m-6.468064356635653,1.6276289856513304 l7.67041596428679,-1.1809915201262022 m4.597004881615322,-46.535325742073624 l3.0821272405587963,0.25719152505206605 20.341939908058706,-1.4361503790429093 m-12.36332879284673,-6.352168793559733 l0.28814030919806927,0.42966408218327395 0.33358526546781125,1.2764748984821843 l-0.09005392896657302,10.415676656375888 m-8.493675836637783,0.9217566206444207 l1.9620462131436789,0.23613974138997343 12.061380347303169,-1.4886351143764636 l3.2190227750707683,0.11782221751387822 m-19.63643676125905,6.01549523225611 l0.29550292558708147,0.5307789171944743 0.6842448807406631,3.107689009551987 l0.9475416083762667,6.088996180324325 m-1.2257132251509124,-8.635558910027644 l10.734859544780013,-1.6083623688253448 11.199555994576667,-1.378003827156085 l0.5017221545469769,0.14219000571276283 0.4079259609553156,0.533759595543513 l0.09636895287781753,0.8385548958264807 -1.4274508879004277,8.498957662821875 m-13.763115939264056,-6.681703449617182 l-0.21146243413152208,1.0291689044129566 -0.9205307546877873,1.7493015668047518 l-1.1219852964579244,1.2457063255197256 -1.707433090280935,1.3032550564364622 m9.143816658463862,-6.8147473683741495 l0.5005650146221422,0.8510984383617021 -0.0014615613653384016,2.17853998979851 l0.6280742380930135,0.5744890200488381 1.9061715017739511,0.27729711928033296 l3.463719763104077,-0.2770657218186792 m-18.105691267617583,5.492441857872673 l20.587818416929284,-2.215645748121112 m-19.712526089658372,6.337481798817734 l0.5904362168548012,2.133096311189367 -0.17835929277281212,18.125239407847822 m0.5840558342436288,-18.844697450567864 l13.789668624613398,-1.9934835127887742 1.1860950714738514,0.3716620175509404 l0.409217396700947,1.0828273623681777 -0.3015609624800559,17.637602731920566 m-15.339540662391924,-11.281373319446754 l15.287512242413118,-1.683836777609184 m-15.180289473921315,7.704956991067654 l15.162537804220847,-1.5351687808594596 m-15.32706967765429,7.047777870283925 l15.3218221714577,-1.3178200444256516 m-12.051170230415659,4.193820936947145 l0.05126624862001797,0.6354806678661316 -0.25820722241322186,0.5972933921718453 l-0.9936859967645448,1.0186687167489794 -3.869849420260879,3.157568940359207 l-3.4789295670231843,2.3716089115292682 m16.879571416628046,-9.044217949573463 l2.0982931510861356,1.4364813797324218 2.4797094706301173,2.251314983199319 l2.4389898762257345,2.7992900927586626 1.459326744419518,2.2522969354396274 " fill="none" stroke="black" stroke-width="1" /></svg>