<?xml version="1.0" encoding="utf-8" ?>
<svg baseProfile="full" height="104.03134492001823" version="1.1" width="97.31682759351065" xmlns="http://www.w3.org/2000/svg" xmlns:ev="http://www.w3.org/2001/xml-events" xmlns:xlink="http://www.w3.org/1999/xlink"><defs /><rect fill="white" height="104.03134492001823" width="97.31682759351065" x="0" y="0" /><path d="M25,25 m0.0,0.0 m26.505948559960085,8.408135446807425 l0.05573870061987275,0.45212145840874307 -0.24560584280274128,1.0967128504403485 l-0.8816960995844761,1.5282274731635292 -3.255078854415736,4.165061417637017 l-3.7235448356451193,3.5632260303500454 -4.353329198820093,3.56352835568335 m10.014274453337709,-12.534965761933895 l1.9075567396751874,0.3223645405963134 7.781933298630849,-1.1236489280106254 l1.6864842122914199,0.45103386316225486 0.1627368653409463,1.047170456650036 l-0.30028037793086876,3.645105563906884 -0.9873964109905959,3.976867676394005 l-1.3986788497917453,3.322375352835194 -2.028545515619807,3.525848008850075 l-4.6403442092416345,3.6895389121723348 -2.8609645349897694,0.037700725117430015 l-2.2689102563460444,-0.7321198582108799 m-6.319773621064189,-10.668268056059752 l1.5628855262077395,0.7582472186761774 2.0299200327851916,1.3780970082971744 l14.209116029896288,1.2098035177645443 9.589512679276751,6.33444277710987 l5.074869102731434,2.822877050366815 m-30.5122601957273,4.4997807185279965 l3.561537747804399,0.1683169451776829 16.716212534572758,-1.3333748276704829 l2.937240037734794,-0.06624813404444985 m-24.81006468168583,7.652360838361356 l1.6990326390915944,0.25337844984286667 1.9097043064904695,-0.0031912619520116704 l20.641788271102204,-1.7192326036782892 1.999299398165171,-0.08769671540822775 m-13.876362173905724,-13.179576710568321 l0.651740979042399,0.7046513065958152 0.29412686724126924,1.28431319308185 l-0.03400706741985093,25.618380621578023 " fill="none" stroke="black" stroke-width="1" /></svg>