<?xml version="1.0" encoding="utf-8" ?>
<svg baseProfile="full" height="107.30594604180567" version="1.1" width="97.76350296565758" xmlns="http://www.w3.org/2000/svg" xmlns:ev="http://www.w3.org/2001/xml-events" xmlns:xlink="http://www.w3.org/1999/xlink"><defs /><rect fill="white" height="107.30594604180567" width="97.76350296565758" x="0" y="0" /><path d="M25,25 m0.0,0.0 m25.225630587141705,1.1171847062676743 l0.3852019867540665,0.4280815981351088 0.6144580438948463,1.891118166068659 l-0.03378218821096222,5.256697823675216 m-18.687551796417434,1.0622192808166142 l-0.6863778919761522,4.878642068452184 -1.540970257106618,5.766395195004402 m2.75440285951819,-9.396467024719696 l22.531281235373733,-2.566059917050703 11.441745022275542,-0.8384138918011348 l4.48651127476839,0.005723778532182573 0.9999627244883502,0.4475678203313019 l0.27299136515393435,0.6352432270541309 -0.20603495521775228,2.5289714660264706 l-2.6751838292612016,3.391831877017241 m-20.72882740280326,1.962938595766733 l-0.02361915207004996,1.4678796097616966 -0.3238838882163043,1.666465908258535 l-3.0863549686883465,5.994404694215346 -3.65811315845057,4.848112459710145 l-4.574452745684158,4.13926828611233 m12.342569382881955,-13.673434773277462 l2.883292240117623,-0.32272491290893257 7.342540197332257,-1.881760150863995 l0.7465416065909045,0.17029230281658098 0.4707690306961794,0.46652349689792194 l0.1463511370761939,0.6780122920183053 -0.17671965172864088,0.7750724194854767 l-2.1700258243385884,11.388476052987109 -1.730420611842712,5.029931023067326 l-2.315585685600005,4.751886294981647 -2.709515546784799,3.9252592402478816 l-3.2423907312738267,3.5617153425050065 -3.614944304531287,3.159582779267737 l-3.926604819772632,2.6137509538376595 -4.133090379704818,1.975557953108968 m10.477509121528593,-25.69749889701156 l1.9849219286422408,2.513670386838357 1.6037563685976792,2.856409497544382 l1.4155320308278747,2.7719070933051415 0.70727824890638,2.4291743154226753 m-13.029993014335863,-18.63713213195705 l2.080062254279341,2.040688445138943 1.9970720101009192,2.728287068470394 l1.8503508670830087,2.9472234981410588 0.8177468818996216,2.5321914583214666 " fill="none" stroke="black" stroke-width="1" /></svg>