<?xml version="1.0" encoding="utf-8" ?>
<svg baseProfile="full" height="113.56985598387126" version="1.1" width="93.84530865981937" xmlns="http://www.w3.org/2000/svg" xmlns:ev="http://www.w3.org/2001/xml-events" xmlns:xlink="http://www.w3.org/1999/xlink"><defs /><rect fill="white" height="113.56985598387126" width="93.84530865981937" x="0" y="0" /><path d="M25.496080250240325,25 m0.0,0.0 m12.980937537057581,4.479428771895035 l0.06620253655047603,0.5569595030187084 -0.3349252309555871,1.4858432459206072 l-3.538066489420807,1.8642216214755385 -4.998718557580163,4.042710718134121 l-4.507592374025318,4.99307041928702 m24.887552315852634,-11.512299937571852 l3.7818335902233606,1.7814994017467418 3.4468643850860152,2.7984447138908184 m-13.61064414866276,1.8095027688236978 l-0.23669307133564638,1.0433531735521995 -0.815553026168089,1.3472435645695662 l-2.328485298546084,2.730862390547385 -2.7425471290495183,2.6614279484402097 l-5.799460737684134,4.317480908982955 -6.746784551582287,3.756826608222253 m19.055262173356564,-13.27768577517921 l6.138492590388208,4.467735854090889 7.33233549854997,4.524625237511373 l5.699405875033287,2.4449126053976453 5.619812522491331,1.2493516500317732 m-36.27665748352316,6.307239425953363 l2.19989098239369,0.13707363457850638 9.170122745969197,-1.9223708012532208 l1.7318015131961306,-0.09470557813245038 0.5160881261351153,0.28016743018930834 l0.22830471421647824,0.4885589783226274 0.01371026361480517,0.6343110353449497 l-0.3963475495705078,0.7044131528745238 -6.225146592163324,9.451913941235858 m0.07332906693966476,0.5024931725489422 l1.7046828254277473,2.8178674193115 1.3503439285351237,3.5667570550882015 l0.6500292670073735,3.539989881519801 0.058395062553032506,4.13876368322334 l-0.7367421283349951,3.259247496239567 -1.1236317590053528,1.8297598940990092 l-0.7065796910549699,0.3628607699399645 -0.699619320863677,-0.1020575563191805 l-2.2433936363560396,-1.8843632840870155 m-11.151910681916828,-8.464853615984708 l1.3743698573193646,0.3052684404441622 2.3515048157424037,-0.3206051473902713 l18.5667078881491,-2.78405758944762 m11.65364378700935,12.300001902951001 " fill="none" stroke="black" stroke-width="1" /></svg>