<?xml version="1.0" encoding="utf-8" ?>
<svg baseProfile="full" height="100.35792723521041" version="1.1" width="95.64588122291411" xmlns="http://www.w3.org/2000/svg" xmlns:ev="http://www.w3.org/2001/xml-events" xmlns:xlink="http://www.w3.org/1999/xlink"><defs /><rect fill="white" height="100.35792723521041" width="95.64588122291411" x="0" y="0" /><path d="M25,25 m0.0,0.0 m21.937768968675424,2.6744714575927095 l0.019010916459125317,0.4357920429470625 -0.4191475638487378,1.8475791685178382 l-3.231705782878918,4.358443184126217 -3.4123177447394824,3.7161043572139216 l-4.499834075528095,3.8782195335516665 m23.702330429034966,-7.629286207650708 l4.5116529294758685,3.9458524722621284 2.731224986887598,2.888073451422605 l1.848474793233582,2.7246672102475986 m-21.605850086296538,-3.172132011434087 l2.226852903100759,0.34026303232615257 1.9531487778072443,0.6984677734519571 l1.735213159461412,1.073043330917236 0.8840880567195099,0.8590390492053013 m-16.248432193042035,4.071709904091496 l1.444204251875106,0.2685459180228255 1.862590718600047,0.005106083645150948 l20.04694946041969,-1.6270375240160506 1.7076686609932505,-0.07384305182497305 l0.7417508064819774,0.20994914319916602 m-7.749881406787523,2.3843327621066748 l0.08799663752243166,0.7016427109996318 -0.18087454616444545,0.798833327208168 l-1.3902915618935947,3.1851654406979173 -2.1860943342117376,3.133780372613394 l-2.8991777469823337,2.8503053706277846 -2.8446399292158913,2.5412364357061112 l-3.142670621965719,2.399388985506602 -3.4913709863840694,2.1744202788986087 l-3.932215293738496,1.894575546356876 m6.679850835013383,-15.9408907165247 l3.0544515154701095,1.6089398392961514 3.9901097461939496,7.471929043439629 l2.900059692178251,4.564525419593961 2.6637450731631143,3.5802419452266245 l2.1100809395444533,2.1585395442079647 2.2277541534532443,1.5208349616072507 l2.380195748178466,1.085426642964151 4.7824035542849925,0.751671006862402 l2.364603345876066,-0.5180382914898114 0.4467540334270369,-0.8282845219590312 l-0.33104917259948524,-1.2174477643340116 -1.2582212051669732,-1.4160528580975176 m-16.63991113953894,-13.358847163738174 l1.1541051661499202,1.5273798481053913 1.0283343851062436,1.0191091976688071 l0.8001027296984554,0.24300018997611325 0.32558709847794215,-0.2582939948742846 m-12.84501506084727,2.504072938234183 l-0.03865429721650354,1.3309741523822587 -0.5200429330688733,1.8009202068837793 l-2.210507639555074,3.82713330152492 m26.196522596673727,-6.331780714915112 l3.497805716200718,1.9304416142012104 1.6292327655753152,1.3705278639626621 l1.0511609931714812,1.190761442067155 " fill="none" stroke="black" stroke-width="1" /></svg>