<?xml version="1.0" encoding="utf-8" ?>
<svg baseProfile="full" height="114.47716549307926" version="1.1" width="92.62013280895454" xmlns="http://www.w3.org/2000/svg" xmlns:ev="http://www.w3.org/2001/xml-events" xmlns:xlink="http://www.w3.org/1999/xlink"><defs /><rect fill="white" height="114.47716549307926" width="92.62013280895454" x="0" y="0" /><path d="M25,25 m0.0,0.0 m14.097091763171818,3.6456947645340247 l0.2919041921672824,0.476567284449128 0.5456939581715364,5.9662849988455955 l0.8126455288740333,13.793477711451386 m-0.9057231441559724,-19.763686926490053 l18.52701536333942,-2.8528412473368103 1.1312293850989323,0.12092734123563448 l0.4917822573103466,0.35293864945892717 0.31425539747827996,1.063857841909222 l-0.09861656945031626,1.2123684449651047 -1.0964407847586644,10.555394786517729 l-1.0672206419316377,7.261976362110631 m-18.15400064074878,-8.698719497910385 l13.452455700900435,-1.6282618470852257 m-12.576836222074231,10.48780033661327 l17.063956459859195,-2.082804951923201 m-10.36278915083492,4.3212958934920875 l1.6698160415618537,1.440974473398657 0.9361767565382801,1.7187023793858947 l0.5040769515306858,1.5753316085312674 m-15.233954842577937,5.747789052172664 l2.389454638923627,0.2895684270010146 2.992914617985868,-0.20106386688474243 l18.049041365756676,-2.846790693700618 4.238230924061428,-0.19921240966165127 l1.831027811173094,0.30120143874555805 m-9.871693071941992,3.1034371072979448 l0.1285966711387429,1.0851102430460458 -0.18559360675189576,1.2806452651860596 l-1.4549348459252582,4.145965286382358 -2.5494468675867177,5.1816654318710675 l-3.1918209969612263,4.888949643005354 -3.6343764172073594,4.3309366237917635 l-3.2662751898945044,3.16933125749233 -3.5814215646661838,2.8084030791865535 l-3.797583503581595,2.423951201994675 m7.622320992250164,-24.022793254321925 l3.005160964774736,2.561418639816506 12.027436939275455,12.164011799160088 l6.2947596694813175,5.7538712319809875 2.4034292186689656,1.5793279777873532 l2.82838730051156,0.47874677865003434 " fill="none" stroke="black" stroke-width="1" /></svg>