<?xml version="1.0" encoding="utf-8" ?>
<svg baseProfile="full" height="107.72849910400237" version="1.1" width="93.81372046428035" xmlns="http://www.w3.org/2000/svg" xmlns:ev="http://www.w3.org/2001/xml-events" xmlns:xlink="http://www.w3.org/1999/xlink"><defs /><rect fill="white" height="107.72849910400237" width="93.81372046428035" x="0" y="0" /><path d="M30.1499528687755,25 m0.0,0.0 m15.24720612173705,3.5949988431994617 l0.4218275155037309,0.41896356821183317 0.4399176534182672,1.0448198846537442 l0.058771279698741075,6.5516861395155805 m-21.31767543913329,1.3974320754588427 l5.010426380065623,0.24512390527502198 32.09025826685513,-2.6340516952452866 l3.7349644788356193,-0.09125835388424111 2.978071338523967,0.3158739766578407 m-36.60195891350559,2.8242175074030875 l0.6976058494519286,1.1690960199107165 0.18185040030507646,3.442104819999207 l0.2386990397906152,1.4258603137861676 0.8636467353113995,1.0861951987101173 l2.006927219169278,0.7161866366795933 4.614322760987067,0.5516559607478533 l9.253928478692991,0.08674270241196329 8.353581147262595,-0.3382009968350084 l5.735249175207141,-0.6963202814398676 m-29.785834641826874,7.660483218311526 l0.629838493956588,0.9491553441932815 0.1955518781993062,1.1503245073029382 l0.03971745476475676,26.857409808977994 m0.3330163030823847,-28.22185638612555 l23.24534495567636,-1.9442557706317694 1.360765364775624,0.048364346677682614 l1.090878553273714,0.5016343186787451 0.5576606944385276,1.161781631670588 l0.07986437570368592,0.8823347057056122 0.007686388032906312,25.34894278479813 m-25.90973154255351,-18.03063714917724 l24.930062933881544,-1.696180149664644 m-24.810512564906933,10.228745046690127 l13.898214613893382,-1.3614921179286057 10.749720434322661,-0.665012739542988 m-24.863147021173692,10.886668050777093 l25.12379948173216,-1.6562008521855558 " fill="none" stroke="black" stroke-width="1" /></svg>