<?xml version="1.0" encoding="utf-8" ?>
<svg baseProfile="full" height="94.04385113033943" version="1.1" width="113.2541104559109" xmlns="http://www.w3.org/2000/svg" xmlns:ev="http://www.w3.org/2001/xml-events" xmlns:xlink="http://www.w3.org/1999/xlink"><defs /><rect fill="white" height="94.04385113033943" width="113.2541104559109" x="0" y="0" /><path d="M25,33.01119369014678 m0.0,0.0 m16.686520930850193,3.1618305570459464 l0.428165264181372,0.4222430071073181 0.622721189042316,1.0671975846918569 l2.512652510808427,1.1498549932222097 25.484179279976605,-2.5361653500657124 m0.9896819795851828,-11.276154482148401 l0.7134872827269156,1.1998357937932786 0.3219404978824672,1.361757405475958 l-1.20759632694016,15.489099760613565 m-32.692531833888424,7.127740896532526 l2.5092856713202814,0.5028997428182609 2.6610498783025975,0.020185826118353428 l41.287983624414935,-3.20028979029952 2.9365705076481916,0.32620888103157486 m-27.686099689292497,-7.53886684620516 l0.7929421970693563,2.5276564300339097 -0.020335705134816872,3.745393878081221 m-17.365613537186565,0.6749030675915119 l0.8786595664591326,2.2216337517272535 -0.052562209911694004,18.485394313441724 l0.3891950166067594,1.0272766894478003 0.6952726760114697,0.0730213301371872 l0.9264123006706784,-0.33333557623368815 12.338327761604146,-7.789923902974714 m13.149922732689918,-15.704845620824495 l0.10063541281536861,1.325995431945351 -1.0392244107784565,1.911061653932539 l-2.479301494340284,2.8073047435255036 -3.3997640108688953,3.0307048501558502 m-12.738761217196274,-7.9532864824527305 l2.157172349506037,1.1084406381171168 3.705688098349054,2.9028030330378205 l18.084551526732355,15.033822762068606 4.560759127485694,2.0971884865357935 l3.4639326488509257,0.8511814445786832 " fill="none" stroke="black" stroke-width="1" /></svg>