<?xml version="1.0" encoding="utf-8" ?>
<svg baseProfile="full" height="101.53963398018648" version="1.1" width="97.96403051605988" xmlns="http://www.w3.org/2000/svg" xmlns:ev="http://www.w3.org/2001/xml-events" xmlns:xlink="http://www.w3.org/1999/xlink"><defs /><rect fill="white" height="101.53963398018648" width="97.96403051605988" x="0" y="0" /><path d="M25,25 m0.0,0.0 m15.038632637813896,16.43789983941317 l0.4345355890829028,0.12986431657785075 1.5667741694012733,0.1295108553984256 l22.15276771697889,-2.0470102109098764 3.0005190142657288,-0.16077600332775285 l1.8234940082904842,0.17205745102776482 m-30.60727522558837,8.403742548767509 l2.6245560121015212,0.20769020112779418 23.103417109837746,-2.4066314611884194 l1.4442412127464588,-0.10556548592222814 1.2272794858485487,0.22105699550657373 m-36.103614997384625,9.516925874915719 l1.74784019794342,0.267494224047386 1.7338211461848696,-0.04399057091793124 l30.357841700900206,-2.912243459904092 5.765059172151805,-0.31510860181295025 l2.654141565485134,0.25298534683932583 m-22.073550799168924,-17.812341682708162 l0.774009861605639,0.730126441023129 0.45019377774861097,1.3428764867318803 l-0.013770023379100516,18.1012166815965 m-3.0701971030787214,2.359030471627905 l0.16194522856723492,3.638423045004956 -1.0766396421142512,15.432400677272003 m-10.374908108904634,-12.70979269987071 l1.0131882172987032,0.2425579303867754 3.5221463064657486,-0.09451889525572091 l15.855633308607615,-1.5686017948542796 2.2969950053089394,-0.03896945819809237 m-29.54745800731942,12.638307671614974 l2.5635289168333433,0.2569069717336985 14.956057043263007,-1.296227707817457 l13.926013969131827,-0.8990465950981915 4.962168810013418,-0.1122262965463307 l2.4561343275090954,0.2796370257121645 " fill="none" stroke="black" stroke-width="1" /></svg>