<?xml version="1.0" encoding="utf-8" ?>
<svg baseProfile="full" height="117.995541215016" version="1.1" width="98.12248203125841" xmlns="http://www.w3.org/2000/svg" xmlns:ev="http://www.w3.org/2001/xml-events" xmlns:xlink="http://www.w3.org/1999/xlink"><defs /><rect fill="white" height="117.995541215016" width="98.12248203125841" x="0" y="0" /><path d="M25,25 m0.0,0.0 m19.567867601332928,4.003305048557351 l0.0654568273099501,0.41552723101163047 -0.33443486755561896,2.0040488798867706 l-3.010955943328557,9.029625654670014 -2.088005315030274,3.423071024236258 m4.590260964027365,-6.802426314576464 l9.352113992077761,-1.7956111608858816 2.010970390978992,0.020470632726588008 m-7.579373316823268,3.3256554183476106 l1.4371728170253897,2.8735427196337726 0.9864919646199769,3.0202904422064094 m11.39434951331131,-15.584691651292971 l-0.18802227217971876,2.0648159766038408 -1.0734951724130282,4.662477794093813 l-1.2471604692392022,3.6533590144062282 -1.5669679359853563,3.5449112122374857 m4.529200208621101,-6.197711337413164 l9.245034598862965,-1.8881153030880276 2.0319784456456835,-0.05214501195029507 m-7.363449818304709,3.575306322472323 l-0.09347239336573838,1.1053905744830634 -0.7641031278072213,1.660450851218242 l-2.549051622866246,3.5204328882226834 m-10.74617648062875,12.780629999202603 l3.047484142861984,-1.2058460918524894 8.45691140144341,-0.24287195448266757 m-7.761208054516693,-8.082940648512672 l0.49165352320337735,0.753637403243196 0.23272472174016437,1.094900846739738 l-0.04213114201307282,16.00184449702489 m-11.903736493466491,1.5321609689473463 l1.961908643332502,0.3590552177071721 1.3512828230918208,-0.2064501129056745 l9.271003927418358,-3.6293996039885923 7.11541337837986,-1.660324508141788 l4.457688467832223,-0.15959168579550212 2.1535419224399566,0.43723868925474974 m-17.614135555298784,5.070441407230086 l0.35261201245726126,1.1374234897676536 0.08589036184316143,1.343883391298214 l-0.09624184776245781,21.43361957346607 -0.013439810161809196,1.0551686668471727 l-0.7403072058145951,0.600980764159228 -1.9620321134194363,-0.4761759822776816 l-1.6610654570219812,-1.26670513262326 m-6.1635991734529405,-14.28857032157239 l-0.18844701620687876,1.8799993704703377 -1.2769671958632869,3.242168842618989 l-1.925862188866531,3.4916288194194114 -2.2723496089213597,3.239497950965567 m22.964709178019266,-13.032775684333737 l1.3553181016691924,2.2350601371168453 1.475847476288355,3.3415943501122456 l1.33698563458741,3.589777141440378 0.6875793685092192,3.028473190565437 " fill="none" stroke="black" stroke-width="1" /></svg>