<?xml version="1.0" encoding="utf-8" ?>
<svg baseProfile="full" height="106.88241896058946" version="1.1" width="98.34627338807832" xmlns="http://www.w3.org/2000/svg" xmlns:ev="http://www.w3.org/2001/xml-events" xmlns:xlink="http://www.w3.org/1999/xlink"><defs /><rect fill="white" height="106.88241896058946" width="98.34627338807832" x="0" y="0" /><path d="M25,25 m0.0,0.0 m16.92321476072192,11.675533273119495 l0.4133929223640201,0.1307518312162865 2.2794176651012856,1.6043401562237014 l1.284933415941229,1.497989512342875 m-7.632302822507839,-3.913872638627245 l0.528224050108021,1.0531848054568471 -0.3794518212969177,5.634193266436687 l0.8481230880911789,0.6880400390761785 7.427026801311568,-0.6893578422897628 l3.0546941421240983,0.12172069945123844 1.5095949250253284,0.2605923999983526 m2.3638137594182775,-5.522628895494071 l1.196153433326664,0.2651014565855194 1.6646089935815944,-0.03951728599146114 l8.293770424031143,-0.8996820632227954 1.3339502995104051,0.10251939207408027 l0.8258339999397724,0.5287553984066921 0.1565684462730284,0.7323058978898848 l-0.4945355879682116,8.991097028660231 -1.5490658020674508,0.10999954569933894 l-1.0924231562539581,-0.8384474919664532 m-2.338208332360776,-6.977693585481037 l-0.1485625273402465,0.5750219226465642 -0.3850163285314063,0.5016817454081834 l-1.8305911160899284,1.6981985643886988 -2.1057937811054446,1.381974267860135 l-2.5678997761698352,1.2864221741221396 m9.741233806356592,2.94726514449545 l0.005480909516331622,0.5951225959457385 -0.36376808948373296,0.5199192486694557 l-2.606840989178112,1.61418143655227 -3.1898991612473173,1.4842832920038942 l-3.6062502478691587,1.23166312853866 m-1.3744589960479485,3.066267809372741 l5.244932932764395,0.6086933828861515 3.7280068257257595,1.16549484491643 m-14.93556392312188,-4.50489857311328 l0.3537798326416097,0.2788890791630341 0.326237663655171,0.5736350416196658 l-0.025297168801646393,8.12801766383421 0.49335772839756936,0.2797675489124867 l7.194953554300479,-0.6257894706065499 13.091782658619186,-0.7439829492079808 m1.4539865694918537,-7.814983892919623 l0.4543060353774762,0.5259681170565962 0.17984168087204946,0.914439837407566 l-0.5398243786314294,7.986997349698904 m-21.75084466561196,3.5680535152649266 l1.0968960828296885,0.6729020679633466 1.0091856484532413,0.47407521311803125 l18.29332465388843,-0.08448840115926393 2.90752788024803,0.22946694395755626 l0.9828327978960908,0.33416570158801123 0.474186752918528,0.5025161021467094 l0.12769691894148746,1.8741686523216678 -0.852935102655897,3.85613876723904 l-1.3171477839687367,3.27935008333969 -1.5824977232551563,2.4458073519918653 l-1.0594629050040236,0.6736898078657644 -0.9156522257251681,-0.08377593740649802 l-1.398424442747194,-1.0964545064251423 m-4.46343574900908,-13.692600713049298 l0.04649223446685377,1.1869010411265115 -1.036419911425231,3.07181548797301 l-1.3243029121378016,2.605659511273202 -1.7784430493679853,2.547791290814634 l-1.9652500381222944,2.0729501006297135 -1.7605746490262881,1.399762567844549 l-2.82294533311562,1.7329323443895894 -2.515421804577939,1.1224177585657136 " fill="none" stroke="black" stroke-width="1" /></svg>