<?xml version="1.0" encoding="utf-8" ?>
<svg baseProfile="full" height="112.75108212427922" version="1.1" width="109.03233568338072" xmlns="http://www.w3.org/2000/svg" xmlns:ev="http://www.w3.org/2001/xml-events" xmlns:xlink="http://www.w3.org/1999/xlink"><defs /><rect fill="white" height="112.75108212427922" width="109.03233568338072" x="0" y="0" /><path d="M25,26.226958139349726 m0.0,0.0 m11.437840784060644,4.986695974912909 l0.2660629456684589,0.6004988520127285 0.3282668867802453,1.9973109457771165 l-0.06949404635003639,36.36051460432897 m0.42833639109102334,-38.770331397235495 l10.105049041043603,-2.328006383536554 0.5945932360114046,0.06439720285493147 l0.7756576161065345,1.032191884811312 -0.27475107988060316,38.0799670252303 m-11.438845978595499,-24.84310921599955 l11.33528646199973,-1.6108880561278334 m-11.526914302002327,13.197071791990018 l11.434843915596336,-1.539464120261117 m-11.10781318457693,14.144792852107768 l10.817622384415444,-1.2568257303298658 m-8.102475400013368,6.981341684373016 l-0.0005325340385149268,1.0722535749790238 -0.5806403526159089,1.145909823155747 l-2.7613214559368116,4.311676296576675 -2.538201298804675,3.4549258578123063 m11.31788923154672,-11.682600630616449 l3.3538192054376514,5.094401687506518 1.8717899550777635,2.878517725843353 l1.0866836048700774,2.3993414012508065 m2.608171209542017,-43.76564173475838 l1.2723187221576533,0.28986202240418996 2.1612207959080063,-0.19305362366935025 l16.464791629706248,-5.179793641083879 2.162710066185679,-0.34643197240358975 l1.2772454404588873,0.47096358922739534 m-15.861596540039598,-8.273446430482748 l1.0651162734611745,1.2663482820792138 1.3930768406082146,6.535021306622265 l1.8225694323778836,5.235384802587757 2.3967269831541214,4.594986915954609 l2.3836037096190936,3.329034379761127 2.1255295688490805,2.182033565930241 l2.388586469320427,1.9469250954908115 2.7245046904322736,1.660477316163137 l3.052287699196413,1.2791973219353274 0.8702678028268903,0.048455254645055866 l0.8859030709170984,-0.7153965871475942 0.047322615064344674,-1.7192704497698241 l-0.454403723779692,-2.6546836545819072 m-7.7352152950186275,-11.131221875068293 l-0.4881063459611054,1.3945284459311735 -1.4298726645071407,1.9190299013744272 l-4.153871086590213,7.454662299970792 -3.779334144461809,5.572885019065202 l-4.418427590666869,4.929415147525334 m7.071220396897552,-32.78578503455051 l1.3307395213364888,2.398528376691083 1.020360838332299,2.7477580707194313 m-14.033761277439949,34.394715465776024 l1.4959033588630684,0.34051527124120246 1.6918837760827687,-0.22005059925789625 l19.12841977841243,-5.010184723061022 2.1666859512132843,-0.23118718768571322 l1.142112450973689,0.3174578172072508 m-17.39823228082582,-7.9503122077802635 l0.7125954275946994,0.8692207923914961 0.4112129601732146,1.1683755046436843 l1.567082826372056,7.419029247196501 1.621468141835785,5.69319140480304 l2.2015246997034117,5.144166303699722 2.225427381978529,3.7431103732832063 l1.9451051439994884,2.5714314047678 2.1569771848405193,2.334095098545775 l2.38877500540436,2.9884400531125688 3.3907310240692703,3.308056406084879 l0.5250608204306514,0.38269779798210335 0.4538225264889371,-0.03276750278119013 l0.28334237099255744,-0.5475847083709114 -0.04947725792417411,-2.7114590213841807 m-6.074820531536316,-18.8867126405809 l-0.09899827286244496,1.8264014935943298 -1.146507639429701,2.296524369301088 l-2.0900514761021793,2.908462438087153 -2.9491808455471777,3.2599036906858974 l-2.8580352357144014,2.6815725686410645 -3.2927331684117536,2.631606926821075 l-6.770404419580005,4.185276175404371 m12.365089813892274,-33.43972248357519 l3.3083830949563207,2.6135988957190075 1.7305307241798957,2.312349219420564 " fill="none" stroke="black" stroke-width="1" /></svg>