<?xml version="1.0" encoding="utf-8" ?>
<svg baseProfile="full" height="109.94646485052245" version="1.1" width="107.5778519700824" xmlns="http://www.w3.org/2000/svg" xmlns:ev="http://www.w3.org/2001/xml-events" xmlns:xlink="http://www.w3.org/1999/xlink"><defs /><rect fill="white" height="109.94646485052245" width="107.5778519700824" x="0" y="0" /><path d="M25,25 m0.0,0.0 m20.119149148301226,4.980043755718504 l0.4843307115563664,0.45375160295927813 0.4595723856255829,1.2350995968026313 l0.09177564340837878,13.557178952672292 m15.440479227056679,-14.928241559359385 l0.49933906292332064,0.9676078210777104 0.09330579828946019,1.108740661843513 l-1.0502631868669914,11.76290896212732 m-22.12416800973213,-7.447025073380731 l1.4918179117377874,1.0827612649768459 1.9143112267430424,2.085968786667272 l1.6940561661332505,2.24554857171299 m28.579830389358413,-8.192534627996137 l-0.4791903494436405,1.60055336863553 -1.6036797781599825,2.125358616708343 l-1.9751110844309043,1.9132406891992855 -2.3487140478605717,1.7286547542520176 m-36.99462417019092,6.0566457877253495 l1.8474616510645543,0.2921106077494214 2.7393442294420343,0.010188150253615174 l22.625768834915217,-1.9467897325126788 13.790693951530901,-1.0234792694105677 l8.153832850913874,-0.20169215402115528 4.1285334077674705,0.3565214166225371 m-33.71032896621983,3.7729473630615598 l2.101091688461873,1.3382570438645873 1.8177603492272612,1.9627756577865385 m-19.128180458060637,4.465811699914169 l3.432892813314784,0.2235867127504053 16.643401399450713,-0.16914324015166562 l14.020111095358489,-0.5755935547067431 3.091573040962444,0.2714586508233192 m-33.37440199875225,1.9653219453591022 l0.6603318395325866,0.974968252843661 0.10660152623571767,1.0365123212320748 l-0.09158989890961318,16.163464273741273 m16.292931052629218,-18.480366269892297 l0.5943389626582134,0.8010000541435364 0.12615144738801537,0.8685042978351145 l0.005471419915368796,17.079202060499885 m-15.741717781519606,-14.839477778492167 l-0.055791774798461306,1.8635036968115748 m-6.480409077371816,1.907737063889246 l9.715787237630538,-0.6713902960915143 9.550320014674229,-0.06477820791077786 l1.2650202501332137,0.6294490087971512 m-28.305285895314878,6.435725830420645 l4.588661364047962,0.216816642669791 26.44586517708355,-1.6247633001040918 l3.792680912967268,0.0988760621132303 m-21.40478490010936,7.434066455579634 l0.07909369532902161,-0.5599007195969667 -0.3039391971112321,0.1511068495772921 l-2.557582699839348,2.967817897852415 -2.4733065975032207,2.308056870736382 l-3.1258685494006797,2.1717905541423024 m21.378976862110637,-7.512469558163432 l2.4777556380427477,1.212610360678431 3.0618741765359667,1.9428111329712683 l2.4404074565774447,1.9692833364183404 1.1660304500624796,1.4287324669648498 " fill="none" stroke="black" stroke-width="1" /></svg>