<?xml version="1.0" encoding="utf-8" ?>
<svg baseProfile="full" height="94.27544596039374" version="1.1" width="103.79134150046904" xmlns="http://www.w3.org/2000/svg" xmlns:ev="http://www.w3.org/2001/xml-events" xmlns:xlink="http://www.w3.org/1999/xlink"><defs /><rect fill="white" height="94.27544596039374" width="103.79134150046904" x="0" y="0" /><path d="M31.647820654905132,25 m0.0,0.0 m27.54544285461824,4.49177522014629 l0.39177319233126157,0.36244469750406605 0.47488932781426546,1.4421123713127753 l-0.07774434005105055,4.2835041859972085 m-14.707111949708228,0.4596037844180027 l-0.7817163354190111,4.149806665568434 -1.7318677020413138,4.903653021770524 m2.69047667721613,-7.617687947105274 l18.386529767964763,-2.422357339599939 9.54782822739159,-0.7675253869998192 l4.313359064930691,-0.06860109506427628 0.8121337005591374,0.3386828885815353 l0.27952835995743247,0.5502369081410733 -0.17852443802102033,0.7010510347264698 l-1.1674043476260998,1.608633198003562 -1.8128960515799404,1.6691939991479716 m-29.019737885271706,0.5084642737507372 l0.2038460320595171,0.8418197423917179 0.10311702919147316,0.9118471479573437 l-0.5481665164904939,3.831245796546206 -0.9712405108526406,4.163924147998344 l-2.1050636534811775,5.955861396339748 -2.9551792198243136,5.583639658975836 m3.760599619999017,-12.529059906963186 l12.950921217388746,-1.8857905290601018 m-9.444563902426518,10.814087117688437 l8.690785747173392,-1.5480157356084083 1.5310022320224959,0.0903975519400074 m-14.992011356213185,-11.755677297862395 l0.4465368516779206,0.8223747424965211 0.20970592984832137,1.080464341616876 l-0.015339643488831038,20.47615375365248 0.40018525782668696,1.7249703742291747 l0.5307720391134055,0.5918461001104888 0.9326120605948025,0.37146348867664436 l2.492684669670245,0.14090358896866975 6.9849476534649195,-2.7883730777885645 l0.8989830288400819,-2.794776104257298 m-27.56023860995532,-23.210296524126125 l1.497488668483195,0.8683202285613478 2.0213451351584113,1.6075827453999536 l1.5591011105792552,1.5906012892579704 0.7255264401186587,1.1365980255491486 m-8.961136088448338,11.82101733065203 l0.8921493091753671,0.31386220324569597 1.4089114745182674,-0.1660861515529412 l7.815574299380825,-5.025750815775692 m18.589067553980197,-13.194308605806052 l-0.12543057440978062,0.8910837125864011 -0.3835686904967527,0.8737483133759214 l-3.104093827542027,2.5319396876092024 -3.405000623410184,2.0062422687360923 l-3.693501802055068,1.503510104043803 m-0.8393814869073472,4.467288334118576 l2.9256787703036755,1.8930079578848602 3.1060277056996437,2.4319900773319048 l2.388510760206973,2.5419173353484905 1.3260509222790708,2.2420430077573617 " fill="none" stroke="black" stroke-width="1" /></svg>