<?xml version="1.0" encoding="utf-8" ?>
<svg baseProfile="full" height="107.20939811663568" version="1.1" width="96.56108523562722" xmlns="http://www.w3.org/2000/svg" xmlns:ev="http://www.w3.org/2001/xml-events" xmlns:xlink="http://www.w3.org/1999/xlink"><defs /><rect fill="white" height="107.20939811663568" width="96.56108523562722" x="0" y="0" /><path d="M25,25 m0.0,0.0 m15.991385594231225,17.842222450636662 l0.4315642816496537,0.12926899503068512 1.4139372336199931,0.1771848974452416 l1.9501009498540274,-0.16885057175044685 19.626691662293368,-2.3995490621155544 l3.147783262456313,-0.19761551360413082 1.914217014794105,0.1794922250052174 m-28.467768183955364,8.701425461606593 l2.484535813566524,0.24866895028286087 20.770542321187698,-2.6158595608655415 l1.4060728531881035,-0.07575002236413723 1.1442132314700004,0.22894041550986574 l0.5163027948578972,0.35727428575945164 0.33174851930741933,0.9910476983761562 l-0.769285046894179,4.048907696756376 -2.3854015970851052,3.0794451826274862 m-24.751319086475746,-2.938311538490863 l0.5199937189210629,0.7964955557841925 0.15606473882376412,1.5221233691976457 l0.8918378514892247,6.662031447372452 0.632987225832425,4.912017017952325 m-1.4605067488182224,-12.943020971252771 l21.426702990348563,-2.163856878174769 2.0110193923952533,-0.031019675380390972 l0.9854655935169727,0.2348049268052652 0.5933817897252016,0.6625002672649131 l0.047299703770626186,0.4875227744651027 -2.32202355009245,11.91507366650619 m-21.704996772616653,-5.410536645004698 l16.221588594020464,-1.578019910988731 m-15.388227671466224,7.885519113990447 l20.844239623732427,-1.7402755899668492 m-28.343307650405798,8.326355105287947 l1.4627529062075544,0.264282563524399 1.7038266714236265,0.03250228659859422 l28.433796534880486,-2.2036595085514685 3.095587769662687,-0.14293470421178292 l1.998280906210287,0.2497793540585968 m-19.235718409306383,-26.692444652247683 l0.674318574860861,1.055576552511893 0.3600183697984874,1.461528760114518 l-0.09901082659320412,36.05911190113442 " fill="none" stroke="black" stroke-width="1" /></svg>