<?xml version="1.0" encoding="utf-8" ?>
<svg baseProfile="full" height="106.02497665779947" version="1.1" width="106.20491089730939" xmlns="http://www.w3.org/2000/svg" xmlns:ev="http://www.w3.org/2001/xml-events" xmlns:xlink="http://www.w3.org/1999/xlink"><defs /><rect fill="white" height="106.02497665779947" width="106.20491089730939" x="0" y="0" /><path d="M25,25 m0.0,0.0 m31.822568314379964,10.359126316781646 l0.33067238696480794,0.340867992472212 0.44992111057201645,0.8333109580652783 l0.09135590535196778,1.0311789483707456 -0.022161984344515197,9.61062485836895 m0.9170132091664442,-6.4779038571679965 l10.773699991324536,-1.404274376884736 2.447606530095295,0.01402544306668281 m-27.943966720665284,8.512402400859834 l0.6437704773544445,0.8479620200004001 0.5501043823891025,0.9400198323499771 l2.178244331808739,12.332371627177247 m-1.8202538961848052,-13.142270797996693 l21.173638906978383,-2.2027683047833113 3.150372031745046,-0.22301133468341985 l1.3889903892108304,0.241208271790987 0.7318606624892684,0.7036631069558942 l0.0503054842561399,1.2735364161546203 -2.7964356536738055,11.183225286302715 m-22.56090439566933,-5.559929811563786 l12.60545301150248,-1.0432731682078693 10.987849331245142,-0.6621126688521503 m-22.4077781865494,7.898287387472088 l10.385300965287941,-0.8913792140717514 10.558180275454554,-0.633519229079158 m-35.097315695553114,10.166576403402502 l1.8302029796929438,0.2953896710027754 2.351931697626365,0.024947079994780172 l17.59977621921007,-1.3058210135812094 17.06736899154406,-0.9533328321734023 l5.2525881951283875,-0.09124247713473708 3.514951649170718,0.33837716903745113 m-24.556014272711217,-6.246319499118928 l0.5357278813497801,0.7808135599453276 0.15621547864861582,0.9557858307681789 l-0.034356654028072156,18.17843466275832 " fill="none" stroke="black" stroke-width="1" /></svg>