<?xml version="1.0" encoding="utf-8" ?>
<svg baseProfile="full" height="119.10799551612602" version="1.1" width="105.27529634471469" xmlns="http://www.w3.org/2000/svg" xmlns:ev="http://www.w3.org/2001/xml-events" xmlns:xlink="http://www.w3.org/1999/xlink"><defs /><rect fill="white" height="119.10799551612602" width="105.27529634471469" x="0" y="0" /><path d="M25,25 m0.0,0.0 m14.14682769140082,4.073085413947091 l0.017951725534176167,0.5041098750883363 -1.001108358713904,1.0850568384558654 l-3.3586286852843927,2.5514841344357078 -3.3150957158530825,1.946626041989185 m-1.784218782791361,-0.20236781329832038 l0.5562910512437489,1.4281556199097378 -0.008502867843784083,10.695838245721886 l0.09366003838276511,1.0920183723358918 0.4033666493005843,0.37659912838017884 l0.7125626066388822,-0.11216825831419694 6.713021050338906,-5.70324056598109 m-2.0513491111178057,-5.442649089369423 l2.4306220336168303,2.922238683139369 1.9324815653244354,3.574290265623393 m1.2055321337676843,-11.70276126267742 l0.3146047119849977,0.22648922088890525 0.37694571750816364,0.8395900832713183 l-0.018424437555370717,5.507930025067844 -0.4305428549550307,5.2257373996988274 l-0.8025813982517089,4.357932030078449 -1.0961748648560443,3.3180742523207174 l-1.1168197359093495,2.3450675284049716 -1.768303317981396,2.7031445252672706 l-1.7126404513539495,1.8875911761314217 m4.449760369470401,-24.870617462263763 l7.7584239125188965,-1.4274876940395005 1.169574447947845,0.39196578114912295 l0.3577966821755753,1.065557901155037 -0.1655630539534831,29.024150601416984 l-0.3213006691745347,0.7709691893052695 -0.4809398938238222,0.16364025096109613 l-0.5453590202032301,-0.3121213443791036 -1.2358455205741388,-1.7528055548792711 m-0.1141100858530435,-19.819773943857054 l-0.23531533035429322,1.6109244318565614 -0.9852916872371461,2.5067485978505704 l-1.2133868336833764,2.3053289190110684 -1.5171480985259382,2.084779272810992 m5.992870222680861,-1.2235709008727935 l-0.022682859198544483,0.9338195419389101 -0.31789637960372,1.0701970305616153 l-1.4655276916836137,2.9852988219865897 -2.1155339747528004,2.9739002301075366 l-2.4134211725578907,2.392473495502511 m20.19706180666053,4.831652947571919 l-0.2030368403581006,1.3840638706139865 -0.7499106482896764,1.2709940954844636 l-3.647913478775353,1.9698663964468155 -3.4320862190419903,1.680106085864026 l-5.54547508941166,1.432530329973027 m-0.7572593764783067,3.785099478866675 l1.910920189046094,0.8982826763553015 1.718965404863422,1.4280400241429652 l1.304076109054771,1.540162368738235 0.696967419042843,1.3153904130427914 m7.350446943418916,-7.338606979759073 l-0.07479456947469226,2.0608150888716334 -1.1479156036593392,2.9737682143797386 l-1.5369088224862084,2.902650938454429 -1.7658836573671661,2.4647209170078987 m-3.1457864943282745,4.683014889552595 l0.8559826018220151,0.9415590939279235 0.9824000382676606,1.3620289799447933 l1.051208948057033,1.6534997301412613 0.6880872952927172,1.4971069206663241 m5.832173020673298,-37.022968888984956 l1.1055257050049332,0.3264683767084346 1.3261148662309834,-0.09969346797015231 l11.083379471624152,-1.9776949381462874 1.0341946357414025,0.009011347305293337 l0.5338597845313208,0.2779138478770506 0.43142414836781706,1.0733436100832738 l-0.08093625125845849,0.6762657852291137 -1.7954174479869018,11.858598518886692 m-11.815435736680062,1.8386791127253623 l2.195202983029008,0.2371428931650514 9.378985061531955,-1.3279603969733267 l1.8609192531335432,0.12384825009040322 m-12.885270664096703,1.5739177438362113 l0.39161092622072713,0.8404456364427895 0.08518661455280231,1.1278487119070264 l-0.6958492829228922,10.642718555762768 0.13647586815196683,2.6397888376398653 l0.5078091025458209,1.1945705127988144 0.7699375851006982,0.6988205987058379 l1.031647552501841,0.48695618878873514 3.16482199312391,0.36513822362046794 l4.5819962904456375,-0.041689183959416135 2.607368263928878,-0.3394134669148783 l1.064913941444175,-0.5224522354046125 1.101017005019424,-1.0803193894725078 l0.4319999194235192,-1.456855711308146 0.12391602328784487,-2.223340157634524 m-25.433785566629012,-15.12010755339193 l1.1776496668594634,0.957389461192116 1.5345408729149297,1.7157039347643026 l1.2644400894434542,1.6380577300678438 0.5847465849867871,1.130436605785763 m-6.6402873370250886,11.020301359689661 l0.8546224686399241,0.3208692308743956 1.043593760072463,-0.18016144889702326 l7.527056441654698,-5.305682656993023 m13.695961145155213,-12.917669386615934 l-0.1542746692517596,0.9922817816828357 -0.4385160453768308,0.9363741055166214 l-2.4930720224591316,3.2731836772293645 m-3.7382144056131716,4.705222325491533 l2.1472421129409,1.41871516285335 1.9394938332703007,1.9765827880413036 l1.6562493417382553,2.0640819486488757 1.066478584758096,1.9552523810746847 " fill="none" stroke="black" stroke-width="1" /></svg>