<?xml version="1.0" encoding="utf-8" ?>
<svg baseProfile="full" height="89.4347379285441" version="1.1" width="111.14574075978818" xmlns="http://www.w3.org/2000/svg" xmlns:ev="http://www.w3.org/2001/xml-events" xmlns:xlink="http://www.w3.org/1999/xlink"><defs /><rect fill="white" height="89.4347379285441" width="111.14574075978818" x="0" y="0" /><path d="M25,25 m0.0,0.0 m29.486373021892195,3.2006918398299598 l-0.021818173510260545,0.3931680187685111 -0.5349447892869746,1.55823427694359 l-2.1266469730179502,2.8735619742614107 -2.552504567295362,2.4896184527019303 l-2.9595461887801986,2.0475980768049484 m23.730364163445838,-9.943674807436587 l2.599581000123501,1.5913647227599348 2.604462268661686,1.901315688319995 l2.3042621160240935,2.1569950667735904 1.2623928329644578,1.6485829162504162 m-15.574395192474972,-0.8512133125505564 l-0.11022871997249463,1.6466852656135493 -1.071426946614879,2.098754910371304 l-2.3936129215518496,3.2781631345827145 -2.7725512910072108,2.8661911831062663 l-3.4147000932498717,2.790134470702003 -3.1108958039411703,2.1528913210723983 l-3.399618062279127,1.9800185245016704 -3.7350457986204963,1.7522627719510504 m19.69534549688464,-15.533522508938065 l7.312326317158704,5.14410607880361 7.8227671794911275,4.79276238388408 l4.533277946078708,2.30119733818541 3.572523938666053,1.0688433555394556 m-33.80907360532618,1.2278453022384477 l0.7298653718304002,0.8672163579066364 0.5507145837327414,1.6593451315241883 l2.005471078614397,10.275599994072234 m-2.057913214115343,-12.189023736091706 l18.836397498608004,-1.959548558946966 1.356603051903022,0.24920049958189097 l0.6829651204053938,0.7375493168895995 0.059835769275973276,1.023538798977302 l-2.496696307121714,9.267186568016864 m-15.960796389189321,1.6111978267909235 l16.98766380923569,-1.2826035592745673 " fill="none" stroke="black" stroke-width="1" /></svg>