<?xml version="1.0" encoding="utf-8" ?>
<svg baseProfile="full" height="108.83241061121225" version="1.1" width="109.49251338839531" xmlns="http://www.w3.org/2000/svg" xmlns:ev="http://www.w3.org/2001/xml-events" xmlns:xlink="http://www.w3.org/1999/xlink"><defs /><rect fill="white" height="108.83241061121225" width="109.49251338839531" x="0" y="0" /><path d="M25.000000004656613,25 m0.0,0.0 m2.5556346774101257,5.573534369468689 l0.3607768565416336,0.49795370548963547 0.3587360680103302,2.118876427412033 l-0.014535109512507915,33.8814377784729 m0.5015029013156891,-36.139442920684814 l15.482704639434814,-2.122536599636078 0.8695556968450546,0.08087755180895329 l1.123678907752037,1.0065550357103348 0.11468096636235714,36.13411903381348 m-17.251983880996704,-24.05510425567627 l16.392720937728882,-1.9336079061031342 m-16.61596655845642,12.890719175338745 l16.60212516784668,-1.8826323747634888 m-16.35474443435669,14.26497220993042 l16.419341564178467,-2.0640410482883453 m-12.163841724395752,7.155200839042664 l-0.0317654013633728,1.358281522989273 -0.8974169194698334,1.3140937685966492 l-4.327547550201416,4.926653802394867 -3.1236568093299866,2.947971224784851 m18.308228254318237,-11.476714611053467 l4.449995160102844,4.315125644207001 2.797839641571045,4.102173149585724 m2.4929629266262054,-35.82143306732178 l4.435443580150604,0.2839476428925991 22.482805252075195,-2.5547191500663757 l4.525238573551178,0.09008330292999744 m-12.163841724395752,-14.844202995300293 l0.9339737892150879,1.6145341098308563 0.34529346972703934,2.0344053208827972 l-0.007270327769219875,52.237935066223145 -0.1811870001256466,1.6922616958618164 l-0.4922749847173691,0.9178248792886734 -0.7258128374814987,0.2873082831501961 l-1.843457967042923,-0.7398321479558945 -3.0888745188713074,-2.702365815639496 m5.619103908538818,-33.41365337371826 l-0.12352903373539448,2.071317136287689 -0.728297233581543,1.4810839295387268 l-1.9971385598182678,2.907865047454834 -2.9181578755378723,3.322412371635437 l-7.35537588596344,6.525216698646545 -8.53655219078064,5.766041278839111 " fill="none" stroke="black" stroke-width="1" /></svg>