<?xml version="1.0" encoding="utf-8" ?>
<svg baseProfile="full" height="104.24616929988832" version="1.1" width="101.32845711993023" xmlns="http://www.w3.org/2000/svg" xmlns:ev="http://www.w3.org/2001/xml-events" xmlns:xlink="http://www.w3.org/1999/xlink"><defs /><rect fill="white" height="104.24616929988832" width="101.32845711993023" x="0" y="0" /><path d="M25,25 m0.0,0.0 m15.280089973043992,3.547829569009594 l0.333308263688173,0.47118833295152823 0.5540411483745996,1.683623039911722 l0.02659464301156226,27.76143408146551 m0.5432233889574521,-29.794350257497168 l20.53978743045701,-2.275460501974805 1.475914214818696,0.23489814268034204 l0.8742963154199382,0.7705250254594094 0.3031666546842496,1.9938472334932011 l-0.09158038834854418,26.84864068345162 m-23.081249081772008,-19.597014592744245 l22.435337973898807,-2.004554028627453 m-22.357627813703964,10.770368225684194 l22.2437681298605,-1.9306603564659808 m-22.07731033194986,10.73229439155976 l21.971478969709327,-1.7255074545364795 m-34.88465533511432,11.270734278155272 l2.9196823245359758,0.3169007209871417 3.630188329020824,-0.04819802362813512 l29.467440164275455,-2.377836226037128 6.436463968900534,-0.22485828521447587 l4.78609817816183,0.3447645364249151 m-31.806589525009244,5.646182876688028 l-0.06397912825748801,1.2186182546421933 -0.24216213767418507,0.49791577504389456 l-2.988038234295978,3.3548295139021267 -4.697445772981488,3.476921403268365 l-5.806718818140297,3.283092941835369 m29.47629786383326,-10.89369126769094 l3.2273580979321195,1.864598444263172 3.2230321872086933,2.6089821051685256 l3.2507110742101357,3.409941617387138 1.820306493927595,2.6944427640352866 " fill="none" stroke="black" stroke-width="1" /></svg>