<?xml version="1.0" encoding="utf-8" ?>
<svg baseProfile="full" height="100.85065726139966" version="1.1" width="96.15003950701467" xmlns="http://www.w3.org/2000/svg" xmlns:ev="http://www.w3.org/2001/xml-events" xmlns:xlink="http://www.w3.org/1999/xlink"><defs /><rect fill="white" height="100.85065726139966" width="96.15003950701467" x="0" y="0" /><path d="M25,25 m0.0,0.0 m20.980948539961624,8.014148933015607 l0.0380022341642121,0.36197865629311266 -0.5305390524975051,1.54878355940069 l-3.3529646119171317,3.7151823422135215 -3.490157646513108,3.200749870389415 l-4.367563852063316,4.7508099344590375 m24.530263117634703,-11.258182014829334 l2.8549403582697406,3.6347365598929113 2.7144671613388005,4.390949707909037 m-13.303740648337104,-0.06182853999524757 l0.039892802728392365,1.5257218330144158 -0.9007457484541482,2.6115556170970624 l-1.7789465849213564,3.847213740463399 -2.243525375534728,3.767654990131396 l-2.1829156481085277,2.8866669740609505 -2.596721116508303,2.7368922812079224 l-2.9925923018023615,2.414558785692586 -3.4601520659449427,2.2174574017920023 m-4.554717453135189,-16.944650523640604 l1.9025148181604363,0.27415891188164065 2.2429422590572345,0.45691067464418245 l29.59707570142035,-1.7840343712245403 4.158761442063844,-0.1368637843549548 l2.8455131779530594,0.3432836295658524 m-28.397924025460643,7.672884247852127 l0.618703673931667,1.4295573411058904 0.08651260631999878,19.234360503361582 m0.24806456681810268,-20.54654555964513 l14.704394570421215,-1.9077769342647215 1.2632403356593565,0.24177370547809768 l0.6443507214541849,0.5077298000837513 0.2938810139021131,1.2178866953252612 l-0.42773015335097214,19.764579489708495 -0.40295810693725825,0.6285053273356406 l-0.6293683463191055,0.009506150193818699 -0.7196567423685685,-0.4728707248241358 l-1.5225368324542123,-1.6707475295295748 m-12.465918956115324,-12.923043908933801 l10.208786434348971,-0.9934653869845264 m-9.999649948315193,6.682885283710316 l10.053666051511609,-0.8844199502093875 " fill="none" stroke="black" stroke-width="1" /></svg>