<?xml version="1.0" encoding="utf-8" ?>
<svg baseProfile="full" height="114.27986612468467" version="1.1" width="100.72488893426623" xmlns="http://www.w3.org/2000/svg" xmlns:ev="http://www.w3.org/2001/xml-events" xmlns:xlink="http://www.w3.org/1999/xlink"><defs /><rect fill="white" height="114.27986612468467" width="100.72488893426623" x="0" y="0" /><path d="M25,25 m0.0,0.0 m29.983411804019838,4.131978374660329 l0.023723336586409245,0.3686001777523083 -0.41964729632947145,1.5449419180869162 l-1.6964396554958596,2.40427102091883 -2.468431735591724,2.673750875355555 l-3.254099126376709,2.9507993348272574 -6.827280571530815,4.895826035920243 l-4.290345364440593,4.483040285123412 m19.254667911696377,-17.562481241990923 l2.476846527879954,5.3953335877682544 3.202220804597974,4.915488848507665 l5.166343835888136,3.5035282624969915 4.5179957842624985,2.1244157292808024 l2.8564862664210335,1.2106105398112421 2.1994364126791868,1.021207691494987 m-28.447633466936317,-3.0189456301998185 l2.0494007723560146,0.03650070073993992 10.460739332211864,-1.511743618135732 l2.631725680587203,0.11354615222849457 m-21.024494922016636,8.028182583736012 l0.4104130322557238,1.5311225595214113 1.4186688336593845,11.35631892832116 m-1.125910146262423,-11.911199855294775 l15.550878168359601,-1.8949726940332456 9.51799072776946,-0.8713672401219631 l0.559429231600215,0.9683366616827722 -2.2192363184168107,10.791776667764449 l-0.44325152264380163,0.7268258737344474 -0.8481173250525171,0.1299429494225509 l-1.1745424684173384,-1.1254377160062259 m-9.103178266985132,-10.499535379231892 l0.5925648355950995,1.7622475446784809 -0.042697246764143895,9.88981244822774 l-0.010494180603385642,1.4112067906963746 -0.1179898535975412,0.6360625053870337 l-0.19702150550723335,0.21541251875699194 -0.2615739351778781,-0.04287504502370698 l-0.3071213505632063,-0.3302207624277816 -0.908544491252181,-1.4012746718858322 m-5.097616406103341,-9.801711479735808 l-0.114947611998635,0.8591154254661912 -0.23070438802784948,0.9395529123902471 l-2.045651887581253,3.322794537778857 -2.5722391033136227,2.748764641684103 l-3.1684060403649528,2.2516509423680895 m18.995141186805384,-10.31254523769575 l2.252641997779084,1.0909854096213067 2.745268814353264,1.8305197066586172 l2.05084667154529,1.7342318399031964 1.2641483645351053,1.587401261054844 m-32.05477998916811,4.707698741103847 l3.4419680441811633,0.2800446535610134 15.610428567094488,-1.968184599519931 l13.257033790283801,-1.1520865111050198 5.2376173895045195,-0.19666565251514628 l3.1146110408858343,0.2638631728616775 m-26.16783462102399,3.0763444090639602 l-0.0879997742065801,0.849531349759204 -0.4195204934649909,0.95365037728759 l-2.906549382869138,3.606891495731125 -3.941824025092221,3.370611923952614 l-4.375526116460002,2.7471038926952276 m11.433277249012779,-12.496542017881657 l2.112735821836773,0.3306157903786888 8.196663702120938,1.0467799848590835 l3.937703395589885,6.238697514953736 2.3171634319757604,2.879006988160513 m-23.37115305813237,0.17809613269312818 l1.5588591492308894,0.22414851568090458 14.86058783134907,-1.5035549754164057 l1.4826348020293523,0.12411142057579404 m-10.71300954083965,1.4399652228502238 l0.42711113482530183,0.6750770862002481 0.18727696763399285,0.9570773928904127 l-0.104785962097744,10.663958613474396 m-10.31515263539042,-6.6174273864873765 l1.8994134325774321,0.2720917953892925 17.319095440214493,-1.6893286354413433 l2.141904024954668,0.1622295427983128 m-27.1463039856703,9.272756010076835 l3.226256824307886,0.2815102040090896 14.216814595918027,-1.7238885595571645 l15.44017208795298,-0.8131608140481092 2.913842666775479,0.45095169947863034 " fill="none" stroke="black" stroke-width="1" /></svg>