<?xml version="1.0" encoding="utf-8" ?>
<svg baseProfile="full" height="117.88897036532599" version="1.1" width="102.14228546104152" xmlns="http://www.w3.org/2000/svg" xmlns:ev="http://www.w3.org/2001/xml-events" xmlns:xlink="http://www.w3.org/1999/xlink"><defs /><rect fill="white" height="117.88897036532599" width="102.14228546104152" x="0" y="0" /><path d="M29.546510198093507,28.373546949360236 m0.0,0.0 m22.694082029493536,3.6024329115987155 l0.01354285559720249,0.48732213700455945 -0.43732300673978775,1.1010404456825695 l-3.2157631166454284,1.9525209418136436 -7.751022014662295,2.0539364507081603 l-9.082479870335899,2.0820383453437556 m-1.9698613839083086,3.395752878293956 l0.4768308855371725,2.7693165534221063 1.9396457651374004,18.30292191685493 m-1.186785967164216,-21.997614421521522 l2.4048604177304713,-2.7604347203085955 12.107694819844262,-2.1665957590781524 m-13.582135866126354,10.402681348009942 l11.973967874930493,-2.38184182259046 2.6724991583053326,-0.06633015019577898 m-21.60426277908709,12.84435810947728 l1.3864198482682613,0.47429718599109033 1.3300635873259232,-0.3509968761563082 l16.772717820526886,-8.493117554399433 m7.542374938423771,-24.6252348693107 l0.4175091652720207,0.44135504504898354 0.28910672241208507,0.19655072475654853 l0.45656442658955415,0.36118905966917064 0.39860297341896017,0.3174775645702563 l0.21155869197132782,15.050445194032504 1.8199470780938236,6.814850562239865 l1.546470777724372,0.7289163850390854 7.398951050277845,0.21873025899680626 l2.553074767463044,-0.5165209164243489 1.233316045508813,-1.065517072393124 l0.5000677534077661,-1.2473135409589449 0.16815088016552063,-2.1744365738844564 m-8.37665274156919,13.366127396359033 l0.2590286953657705,0.8056275710764385 -0.2281262121860977,0.8768277074068493 l-0.87149854215152,4.735872640025786 -1.196459113651025,7.78076220455153 l-1.2619998534121029,5.786911815069936 -1.2051681427941803,3.8038194493394997 l-1.3154786231093774,3.300246140452586 -1.6527922182883197,3.1303426383727895 l-2.0354565716853505,2.779341882691904 -2.4480619006173074,2.3973642292872936 m7.833554622945131,-40.67938802598095 l6.1448834812753494,9.663247343310612 6.075077896723832,8.58207248201668 l5.317313132027032,6.6707071757430585 1.8090638207526528,1.7981347174221258 l1.2701612045662516,0.8035645389617192 " fill="none" stroke="black" stroke-width="1" /></svg>