<?xml version="1.0" encoding="utf-8" ?>
<svg baseProfile="full" height="118.66797984570098" version="1.1" width="98.86621241880039" xmlns="http://www.w3.org/2000/svg" xmlns:ev="http://www.w3.org/2001/xml-events" xmlns:xlink="http://www.w3.org/1999/xlink"><defs /><rect fill="white" height="118.66797984570098" width="98.86621241880039" x="0" y="0" /><path d="M25,25 m0.0,0.0 m33.59750376223878,2.646719514291381 l-0.011865145517127754,0.3628308238328632 -0.4561897299340713,0.7847019026492416 l-1.0881951085449855,1.2430508598573484 -3.6550454666319707,2.6751405341539045 l-4.643246285239262,2.4174906057940015 -5.038967697577328,1.7299662819609207 m-3.4600594002232854,7.738756937409322 l2.595580020093547,0.28071342696524004 22.01051750829053,-3.614692399238608 l1.8243316023759455,-0.20860569994247757 1.7744630244174864,0.2686810075664929 m-29.55217584180744,14.995537832191244 l1.1198811738448633,0.3134155700183998 1.381316579616691,-0.07525143844656183 l25.994995324007952,-4.119437574150441 1.861185635520688,-0.17076057765657024 l1.5088956421103823,0.285804996352393 m-18.578012124190685,-15.68593332329921 l0.5889721748246312,1.035355133606612 0.21279244490369104,1.913211957204607 l-0.2128445172675108,21.98634823523988 0.8177213714823959,3.568398500370803 l1.5281817016689658,1.4213583707483712 2.5599502250023347,0.6493491074163618 l5.99628719350584,0.15140016786655836 5.364477816501629,-0.479949185097966 l2.760971692850428,-0.6290130639055865 1.3643634655211818,-0.9670472275404075 l0.5713511048391632,-1.3431656492675943 0.12907427211692052,-2.282399321906391 m-30.412945652485845,13.587114072352762 l0.541172328820645,1.613272249649948 0.6979320621878954,3.1630937180510093 l1.5544429633348884,13.412523500603143 m-1.9617002008622964,-17.378918489021963 l19.169986338784238,-2.976647023053786 1.121673687902556,0.04997902661003351 l0.4864209380850821,0.7112065693103586 0.12587653866449916,1.120483151642347 l-2.3629538993306665,14.204655376035623 m-16.47634910455605,2.3168107895601255 l17.295791278904876,-2.106560934319215 " fill="none" stroke="black" stroke-width="1" /></svg>