<?xml version="1.0" encoding="utf-8" ?>
<svg baseProfile="full" height="102.2158218958019" version="1.1" width="92.53475816931308" xmlns="http://www.w3.org/2000/svg" xmlns:ev="http://www.w3.org/2001/xml-events" xmlns:xlink="http://www.w3.org/1999/xlink"><defs /><rect fill="white" height="102.2158218958019" width="92.53475816931308" x="0" y="0" /><path d="M25,25 m0.0,0.0 m10.133189654130605,4.715111824643519 l0.4430201920057282,0.1629117451897039 1.5626813836822822,0.06488694675768941 l7.377464003519553,-1.4250477142521558 0.8251136392144617,0.48955367526623145 l0.11802174359566335,0.5776973440254133 -0.42192562974979436,1.8860242817829935 l-1.3160420786894722,3.289125519013296 -1.5606238478939642,3.1412838583154117 l-1.9662926535070546,3.4489567512345976 -2.3400129969546013,3.427800266335629 l-4.596548838971111,5.352947599526652 -2.3263203031054824,2.0474646197034887 m2.836874973250844,-15.608095701533479 l2.9046789156524526,2.1781431159050024 1.3952322682027412,1.399032786220992 l0.6449434384723303,1.002258082261912 m18.09475014535667,-10.917350107514514 l-0.17946553331192996,0.912546230005455 -1.1104364920583585,1.3445120331763345 l-3.0078714238537856,2.448360857275777 m-4.662820499153469,-2.3595767215414063 l15.752026867393596,15.60637163714239 3.935121242085176,2.6916101961476095 m-4.339896313142838,-16.201662643905983 l0.011163673372063216,0.6391125279717208 -0.5562532077953847,1.031172580018128 l-3.109952225745168,3.1964980758919794 -2.414937309879598,1.705201644388924 m-19.134122582876028,8.513864929961 l1.8105854672704491,0.13986393590198615 13.61468988084294,-1.8551740672154706 l2.386123879553138,0.06913849573246961 m-21.331661370577617,12.40814770438809 l0.7730105018090255,0.22560672672362475 1.9697107305670898,-0.0028150773908113933 l18.57602291256376,-2.283759510170914 3.1858922753662346,-0.11439368213636197 m-13.314947507303536,-6.47325384594447 l0.46458742724180146,1.0003783898789331 0.19097803132090338,1.4234431250715451 l-0.21659715253928083,5.623299028717157 -0.7810691380537493,4.026739080807411 l-1.2387056174737607,3.6460677091502807 -1.6891025215015372,3.161243225703488 l-2.1501527486869163,2.6196756549883453 -2.522816819787782,2.107013075772868 l-3.1061130900746883,1.7338856864094234 m12.59636792904649,-16.29169771601897 l9.943659516179176,11.385841378058506 2.8407956351441066,2.614805208512204 l1.924093100065876,0.9596813467772639 " fill="none" stroke="black" stroke-width="1" /></svg>