<?xml version="1.0" encoding="utf-8" ?>
<svg baseProfile="full" height="133.0083864427873" version="1.1" width="98.21357243339257" xmlns="http://www.w3.org/2000/svg" xmlns:ev="http://www.w3.org/2001/xml-events" xmlns:xlink="http://www.w3.org/1999/xlink"><defs /><rect fill="white" height="133.0083864427873" width="98.21357243339257" x="0" y="0" /><path d="M25,25.85236358080284 m0.0,0.0 m14.628114033450585,2.6122770804598865 l0.3873562612496138,0.4660826412974528 1.7788037241680148,1.872180964994573 l1.852180921223018,2.750118562680267 1.4660192834110752,2.726336949062479 l0.8425861563689108,2.1877479295516595 m14.334072182293788,-13.46710770884916 l-0.2597229645252301,1.9459787245147144 -1.5093417051236002,3.9615074386772706 l-1.9876243325655811,3.907018470483675 -2.4736610841104696,3.9680586021872446 m-17.53395099085715,4.588662504307908 l3.278803747951987,0.17964088858768243 20.57418072031486,-3.3585937441677896 l3.5249823820999926,-0.17899315415251202 2.01253822859924,0.32470796414924713 m-29.334941159690107,18.338769123427724 l1.698011719554869,0.32920611239974 2.1357758440653187,-0.0875619437185803 l20.72179225186564,-3.100789772720226 2.2178376915726896,-0.0672905049181114 l2.0074012165726804,0.33988022820602776 m-37.3876603803716,16.960221698218245 l4.498421952096064,0.3280403776995847 19.09452195421444,-3.0746017854089494 l18.921563270768832,-1.3367010214723756 2.7255115087946833,0.5331807775181112 m-23.003269394237485,-25.735490870599595 l0.6978916396451046,1.2255971540639181 0.2989887740109077,1.604586474413225 l0.015739457745194894,20.528116307688315 m11.268720287126005,16.197405538869383 l0.3852395713070138,2.0524238692610433 -0.27702482677061924,2.0608327441942866 l-1.49633977595544,5.229601838381832 -5.416615429937767,5.989349882907349 l-4.162912985318097,3.1443292856463168 -4.918622030300975,3.0771956089495975 l-6.185908953157312,3.1340976251930153 " fill="none" stroke="black" stroke-width="1" /></svg>