<?xml version="1.0" encoding="utf-8" ?>
<svg baseProfile="full" height="112.0942615639001" version="1.1" width="108.17660098197116" xmlns="http://www.w3.org/2000/svg" xmlns:ev="http://www.w3.org/2001/xml-events" xmlns:xlink="http://www.w3.org/1999/xlink"><defs /><rect fill="white" height="112.0942615639001" width="108.17660098197116" x="0" y="0" /><path d="M31.97833217389631,25 m0.0,0.0 m11.716898195310163,9.533609981397335 l0.09307262925920508,0.5674071276519193 -0.2715007375197253,1.2029149166753466 l-1.2824544312934465,2.069233836576271 -4.401835537898884,4.95476420499429 l-5.173748074096305,4.139831981555948 -5.966641247338927,3.0027966430267714 m1.429784915635949,-14.308156224253649 l5.239007664728248,1.3334163098232346 5.8653229204226935,2.4346252693715518 l4.983142784166891,2.7994798216305647 3.6009636395623414,3.2380348035839965 m-22.17555446737525,10.667198097467276 l1.7720636490260728,0.17595389108774007 1.8153083514486297,-0.12546586132733767 l15.970555518962959,-2.528620228420023 2.3732918797680695,0.017487280255369244 m-9.241546523632152,-6.292400660355231 l1.0183208110329847,1.5069672370360923 0.389790834677886,1.8794235437817024 l-0.08405994032053674,34.72728095650722 m-0.7961990083587878,-30.722830858520684 l-0.10071265388179956,1.2095781360572917 -0.6384781157799754,1.4473593162176748 l-8.826766814749115,10.915609886670154 -4.286358415653502,3.4291352877982817 m16.891833046624722,-12.724860295236608 l3.0597425790858948,2.2661931372239077 3.3681536129199605,3.6707455909904705 m8.165593206907795,-29.519255268337705 l0.6380295046948898,0.8947292192452464 0.034577878008996255,1.7459896814458626 l-0.2518841863971755,5.669486772125651 -0.41433375387941174,4.546092789129218 l-0.9076429791649827,4.821188252686496 -0.9586991413712246,3.277802962168064 l-1.2833107610000374,2.9751656718685697 -1.7478083191204423,2.7273832802661637 l-1.6353582597673835,1.856868276546606 m7.976864150940465,-28.44160257128765 l10.978442566835112,-1.80576013143243 1.2651250815812767,0.5772558572273776 l0.42334150922201175,1.1942116560941924 -0.594544322166652,8.58610163167581 l-0.11878942213527886,6.17682663480243 0.42008513646515094,4.060127467440791 l1.0985257837653661,1.4739197579284804 1.179375744776436,0.5869723648772469 l1.7118850290504208,0.3394565909058107 3.3449029977125626,0.08383065595674502 l1.7475291761093197,-0.29450356777357867 1.4183406351405117,-0.5670357490354564 l0.8694676926975593,-1.492271546391844 0.25433518780745623,-3.8574885440769955 m-24.68268951956436,13.824213700646824 l2.9905825143175417,0.13795036317281717 12.499961376356605,-2.3951345303249205 l0.896674835450312,0.3721103430805804 0.3497355816912826,0.589139897358839 l-0.11036594214008065,0.8542100522284919 -1.6925133927754188,4.02570555329444 l-2.6096866609609726,4.869946389032373 -2.7899195148030165,3.239752697591527 l-3.309775420909165,3.113692405347338 -3.6539336349172,2.758681608760967 l-3.817628371227816,2.440326210446179 -3.9923084412093957,2.1614615999426854 m5.4750191652657305,-19.17880259248059 l1.9063140080013736,0.8432916814587261 2.8927100206515153,1.9180621643008928 l12.48136857759451,9.925319292078779 4.930502262367147,3.4158734015975845 l3.4787741634392435,1.841135278440567 " fill="none" stroke="black" stroke-width="1" /></svg>