<?xml version="1.0" encoding="utf-8" ?>
<svg baseProfile="full" height="96.72121820773712" version="1.1" width="105.22434606863638" xmlns="http://www.w3.org/2000/svg" xmlns:ev="http://www.w3.org/2001/xml-events" xmlns:xlink="http://www.w3.org/1999/xlink"><defs /><rect fill="white" height="96.72121820773712" width="105.22434606863638" x="0" y="0" /><path d="M25,25 m0.0,0.0 m9.726039199234897,11.918368606701621 l0.4557221507075788,0.10955491479669598 3.042794826981391,0.03399090491433438 l14.548505766071413,-1.8382616960274525 1.6762238718883764,0.06084050045624006 l0.4553174842385446,0.32731201017618433 0.28489346263733545,1.0068381539709244 l-0.34360620767452943,3.2338545168146506 -0.9030886209310582,2.71132694316968 l-1.421001595825167,2.5193687133347735 -1.5123607603739044,1.5421615020892656 l-0.7420489617934702,0.21604589719054132 -0.6445444509525495,-0.1865067981439216 l-1.2474868956067477,-1.0099826186825367 m-3.128849938876126,-16.316252852611647 l0.33421218632143934,1.3711858898636975 -0.5330636270787279,3.1736705339162423 l-2.358447000687866,3.6483479084699555 -2.021425622387416,1.994205479188528 l-5.488055190129997,3.678601222139646 -2.800107437370465,1.1961110063872067 m30.135803250228825,-11.877195217025301 l0.6716779673000536,0.7662056090800168 0.41044851090734347,1.24341041404689 l1.4423890981823622,7.647300720012833 m-1.4839157195534383,-9.056417141537882 l13.314497939950574,-1.3244732624991913 2.567668106763275,0.05206485624446666 l0.7861542764644234,1.0580614444822762 -2.3206777544355637,6.356978642395965 m-12.910363611408163,1.3492983718338305 l14.360753561807016,-0.9441886866542379 m-33.88216854307576,6.443839122432027 l0.517822033002045,0.7340698233962774 0.23228846764911978,1.3669258384413032 l0.020468015094313684,16.406966496900218 m0.6240712514769351,-18.035196463493293 l22.36466603540353,-1.5714490704646418 1.77132087828794,0.058004466942801515 l0.9920577872564126,0.4212307590890138 0.44429039077036797,1.6418862663259033 l-0.04402638895206424,15.882986554935052 m-25.200985498014976,-11.154040288597917 l14.778565090919635,-1.0583034085083365 m-15.293622321167376,6.516008925342154 l15.616550591842026,-0.9898257091391142 m-15.843452809851168,6.284173068794525 l16.120547566191032,-1.1166435084245172 m-14.586967028853364,2.880854485752007 l0.2279588370622674,1.07088996132919 -1.1379098161248786,1.0646308275642202 l-5.061994906523287,2.849724185138927 -5.373326737513116,2.362659385487019 m26.197810896003595,-6.473415833469209 l6.33770683088268,3.1249338616301463 3.0177422762419672,1.959870839124121 l1.5054071047617856,1.3369400054772755 " fill="none" stroke="black" stroke-width="1" /></svg>