<?xml version="1.0" encoding="utf-8" ?>
<svg baseProfile="full" height="100.42552488277192" version="1.1" width="100.06253594929787" xmlns="http://www.w3.org/2000/svg" xmlns:ev="http://www.w3.org/2001/xml-events" xmlns:xlink="http://www.w3.org/1999/xlink"><defs /><rect fill="white" height="100.42552488277192" width="100.06253594929787" x="0" y="0" /><path d="M25,25 m0.0,0.0 m17.168478907211455,4.728171954175077 l0.38725324704988073,0.3503844540670315 2.0988552165361467,2.512295281378704 l1.2337002655838507,2.438830771445384 m7.164762410014333,-7.192812654842509 l2.0897273572110913,3.2234259627743764 0.9162663426569565,2.353132043599055 m12.932622268135052,-6.652870164393155 l0.03402917347806956,0.8129382632309804 -0.6150619542719891,1.0736665134322523 l-4.495700161065801,4.908347796480229 m-25.220200269205375,4.672184705309024 l-0.6684696239208929,3.585316347857713 -1.4831378514560236,3.7380490112832208 m2.9798303132231143,-5.85071540731674 l20.046164743461834,-2.1361030248960944 13.857824462291195,-0.8534845491512044 l1.3694340525046682,0.46109882594935064 0.2661570498602886,0.4318215605536109 l-0.05864791985218901,1.1137279955171713 -0.8054924999687793,1.3687639164188807 l-1.7916001473895289,1.7913661140185806 m-18.863283850578718,-1.6778972179224538 l-0.06839728421149072,0.7845392040778706 -0.7154491908665895,0.566405885134529 l-3.34701733256755,2.066135301981955 -3.8668975923064024,1.7173245007934435 l-4.842128156939485,1.5566993112080987 m-1.406015238572793,-8.263472533036817 l0.4930909576338847,0.6501260567101974 0.2743655878832184,0.9095783494986321 l0.13206634630468303,12.511474832033729 0.34477922558245594,0.8839100179188758 l0.8640895743986321,0.82645549428704 1.5251126086370081,0.5947756874364827 l2.8456527978540174,0.4126505237216842 6.602111692168631,0.07072759952126595 l4.398228284251044,-0.2687487699940398 1.8474747145198613,-0.4633244660807591 l1.1969112056130489,-0.7912309295651071 0.6803033160019867,-1.093395880472282 l0.2737892616213185,-1.7549110334199387 m-35.21559917272287,11.341097938989071 l0.7560344819262749,0.22787863816520953 1.4929084537860382,0.09148811416533364 l27.965381341632554,-1.4395477173641824 4.983532341997676,-0.12358956180919799 l2.3241661520487367,0.24816366694574518 m-19.38844318789275,-5.157221706058272 l0.4775234435752401,0.6634853712963558 0.2243297737253538,0.9173627847705492 l-0.03254214500840291,17.541049702947966 " fill="none" stroke="black" stroke-width="1" /></svg>