<?xml version="1.0" encoding="utf-8" ?>
<svg baseProfile="full" height="106.48195088963674" version="1.1" width="104.43606730959104" xmlns="http://www.w3.org/2000/svg" xmlns:ev="http://www.w3.org/2001/xml-events" xmlns:xlink="http://www.w3.org/1999/xlink"><defs /><rect fill="white" height="106.48195088963674" width="104.43606730959104" x="0" y="0" /><path d="M25,25 m0.0,0.0 m28.946141626780964,3.7171189868706254 l0.34250907239986755,0.40833307774434174 0.44693115483360724,1.0757591904145418 l0.09777059491525734,1.314262180543739 0.012940212935196814,11.703298082845148 m0.8100741775254836,-8.53555941220748 l11.751573884711112,-1.572537225906155 2.5268370979781296,0.008003039576783482 m-28.230154741237758,9.68094656133385 l0.6922953618065382,0.9786407021210783 0.1839367450477219,1.073840255108198 l1.7282005545342651,14.697453430227473 m-1.3375774955659376,-15.915401531921997 l21.445642400404427,-2.462630359109721 2.960780046952418,-0.1944490460172498 l1.3292777008034569,0.3065005310895727 0.6797583944403913,0.8099011125561095 l0.03195035559705128,1.4596596388299476 -2.832171840014995,13.245184239912989 m-22.76484139858603,-6.591907082901899 l12.704222112187297,-1.3070900049089806 11.11061657565607,-0.7537208551999228 m-22.671463893839004,9.336046782696766 l10.506491367612814,-1.0441716486694284 10.65061302046348,-0.7098988803730747 m-35.158885578948365,11.925898507879202 l1.833831099381712,0.3562108064413726 2.2903155746072668,0.027978934191567353 l17.453830526890147,-1.5757938296482346 17.67052997761791,-1.1099567290529193 l5.6043979816896,-0.09045765048646719 3.6196946400109455,0.41493785276140477 m-24.96353135045306,-7.2800725523079866 l0.5456874640255852,0.9204501300957086 0.15589374693052976,1.1758871122483618 l-0.05108470830756945,20.98928654285948 " fill="none" stroke="black" stroke-width="1" /></svg>