<?xml version="1.0" encoding="utf-8" ?>
<svg baseProfile="full" height="109.49251310899854" version="1.1" width="101.67988908477128" xmlns="http://www.w3.org/2000/svg" xmlns:ev="http://www.w3.org/2001/xml-events" xmlns:xlink="http://www.w3.org/1999/xlink"><defs /><rect fill="white" height="109.49251310899854" width="101.67988908477128" x="0" y="0" /><path d="M25,25 m0.0,0.0 m10.052869319915771,7.834164500236511 l0.6686969846487045,0.05672855768352747 2.724272906780243,-0.12125017121434212 l19.792650938034058,-2.7982154488563538 7.738198637962341,-0.5177880078554153 m-15.512207746505737,-4.453639090061188 l0.6594186276197433,0.9841630607843399 0.31389936804771423,1.5828651189804077 l-0.08667993359267712,16.52957797050476 m-14.93922472000122,-4.560422599315643 l3.7009480595588684,0.023410958237946033 19.438117742538452,-3.025943636894226 l5.56932806968689,-0.4378201439976692 m-38.69196891784668,11.188791990280151 l2.431921511888504,0.2639668434858322 2.4911729991436005,-0.08811951614916325 l21.90877914428711,-2.985086143016815 13.299061059951782,-1.4735588431358337 l6.881979703903198,-0.4588542506098747 3.2386553287506104,0.22082528099417686 m-36.52504920959473,9.355247616767883 l0.6182354316115379,0.9392361342906952 0.24836037307977676,1.0743428766727448 l-0.07334220688790083,20.289452075958252 m0.6602325290441513,-21.481647491455078 l18.809138536453247,-2.7470213174819946 1.3328363001346588,0.14110922813415527 l0.48150092363357544,0.3730899468064308 0.4256676509976387,1.4659896492958069 l-0.066673350520432,20.342519283294678 m-20.84615707397461,-13.157769441604614 l20.23052453994751,-2.5671911239624023 m-20.231502056121826,9.230232238769531 l20.00296115875244,-2.3602986335754395 m-19.99189257621765,9.454216957092285 l20.335357189178467,-2.19353124499321 m-17.73121476173401,5.008390545845032 l-0.35314951092004776,1.140756756067276 -1.4528045058250427,1.362462043762207 l-4.473173022270203,3.0973628163337708 -4.782453179359436,2.8999117016792297 m26.669747829437256,-7.412314414978027 l6.781381964683533,3.6325809359550476 3.241910934448242,2.299419194459915 l1.5844929218292236,1.5421703457832336 " fill="none" stroke="black" stroke-width="1" /></svg>