<?xml version="1.0" encoding="utf-8" ?>
<svg baseProfile="full" height="108.29197372309864" version="1.1" width="109.49251412414014" xmlns="http://www.w3.org/2000/svg" xmlns:ev="http://www.w3.org/2001/xml-events" xmlns:xlink="http://www.w3.org/1999/xlink"><defs /><rect fill="white" height="108.29197372309864" width="109.49251412414014" x="0" y="0" /><path d="M25,25 m0.0,0.0 m3.988429307937622,8.22549283504486 l0.18037151545286179,0.592348501086235 0.3729812428355217,1.9303962588310242 l-0.15093420632183552,31.536765098571777 m0.524621419608593,-32.92446851730347 l12.188236713409424,-1.8469984829425812 0.6797268986701965,0.1251897495239973 l0.8876454085111618,1.0239768028259277 -0.2882731147110462,32.81621217727661 m-13.486454486846924,-21.492984294891357 l8.315687775611877,-1.0205553472042084 m-8.2086580991745,10.914932489395142 l8.128297924995422,-1.0635866224765778 m-7.798786759376526,12.1501624584198 l7.541564702987671,-1.0529275238513947 5.085844993591309,-0.34131646156311035 m-9.544951319694519,6.322126984596252 l0.2316054329276085,1.5022771060466766 -0.733417272567749,1.4566577970981598 l-3.4965404868125916,4.499462246894836 -4.4169968366622925,4.938810467720032 m15.462820529937744,-12.779005765914917 l3.034031391143799,4.226097464561462 2.2556088864803314,4.598771631717682 m3.4558340907096863,-36.40557050704956 l2.4002745747566223,0.3089827299118042 23.05246114730835,-3.7417879700660706 l3.5912880301475525,-0.404958613216877 2.1921806037425995,0.30183276161551476 m-32.61004447937012,19.460471868515015 l3.16351979970932,0.010099840583279729 9.427745342254639,-1.6414159536361694 l2.0914673805236816,-0.014387611299753189 m-6.906053423881531,-7.742639780044556 l0.8121104538440704,2.9322654008865356 -0.19402988255023956,23.853604793548584 m4.7724756598472595,-48.87015342712402 l1.0972308367490768,2.120242565870285 1.174432635307312,10.230644941329956 l1.968119889497757,9.950611591339111 2.766983211040497,9.233337044715881 l2.746630012989044,6.717961430549622 3.1856274604797363,5.999282598495483 l2.657146155834198,3.9569440484046936 2.8726091980934143,3.438989818096161 l3.135095536708832,2.8585726022720337 0.8141282200813293,0.39267648011446 l0.558309480547905,-0.059217303059995174 0.33986344933509827,-0.47759849578142166 l0.17464717850089073,-2.076728790998459 -0.2491513080894947,-3.350558876991272 m-6.462493538856506,-28.208138942718506 l-0.09344270452857018,2.961040437221527 -0.7204332947731018,2.899278998374939 l-1.6296601295471191,4.541572332382202 -2.3637792468070984,5.19217312335968 l-3.0178889632225037,5.451149940490723 -2.8301483392715454,4.281893372535706 l-3.1554487347602844,3.9927372336387634 -2.5539764761924744,2.684517800807953 m10.140106678009033,-52.733049392700195 l3.768150210380554,3.423900306224823 1.9598732888698578,2.9294580221176147 " fill="none" stroke="black" stroke-width="1" /></svg>