<?xml version="1.0" encoding="utf-8" ?>
<svg baseProfile="full" height="105.91825609785506" version="1.1" width="103.01264314581559" xmlns="http://www.w3.org/2000/svg" xmlns:ev="http://www.w3.org/2001/xml-events" xmlns:xlink="http://www.w3.org/1999/xlink"><defs /><rect fill="white" height="105.91825609785506" width="103.01264314581559" x="0" y="0" /><path d="M25,25 m0.0,0.0 m26.8432452565704,4.39980269368449 l0.3545660434187232,0.4072116259192269 0.5837791200281641,1.0444633852117207 l0.11979010810842089,1.191881106837061 -0.0495390834720481,12.047547139989524 m1.035229940579663,-8.34102333326785 l11.018531270123516,-1.4753878349449403 2.4716110204439112,-0.023849278785056528 m-27.979483546646286,9.798220728499897 l0.755206940821114,0.9493048708205959 0.6434028536286479,1.0310640591519933 l2.4197139057991026,13.696178812611285 m-2.0694861704583647,-14.706040860222124 l21.055477136207283,-2.4309294375379147 3.2461748249047675,-0.2390286075645615 l1.4308224769433464,0.2980464941324327 0.6883936799063195,0.8125575945771457 l-0.00042166111935859727,1.518070364652484 -2.717749999206908,11.828466403882244 m-22.452931737649305,-5.856782878116993 l12.715471782169217,-1.2231435038492589 10.895104594929249,-0.7173769964948036 m-22.301134612478858,8.866652775604376 l10.852758965988366,-1.044001403777702 9.740265281929622,-0.6398771654189026 m-34.20865515818473,11.466706690114744 l1.8481095483401466,0.3313877290042146 2.296237888033478,0.01781355799188451 l17.337524938734976,-1.4656136826711585 17.654179400537643,-1.0842293541291674 l5.100286642028072,-0.10609868915375642 3.686161494857299,0.37554577609440676 m-24.498815375796877,-7.157559411287558 l0.5444609144095977,0.8974558699195334 0.1529711733787906,1.0962229957618326 l-0.04926302287041447,20.354597860615716 " fill="none" stroke="black" stroke-width="1" /></svg>