<?xml version="1.0" encoding="utf-8" ?>
<svg baseProfile="full" height="108.0954556831905" version="1.1" width="105.58862232516556" xmlns="http://www.w3.org/2000/svg" xmlns:ev="http://www.w3.org/2001/xml-events" xmlns:xlink="http://www.w3.org/1999/xlink"><defs /><rect fill="white" height="108.0954556831905" width="105.58862232516556" x="0" y="0" /><path d="M25,25 m0.0,0.0 m19.409905462635272,3.1811916655359727 l0.05979239423995309,0.4463912136948278 -0.17046752704389295,1.119782381889984 l-0.7220902144485086,2.2453411911070598 -2.045540942935751,4.937888597610757 l-2.2706359443655844,4.06883534489211 -2.514758721676027,3.421039065983258 m6.316015886651076,-6.888131275564799 l8.120060076363997,-1.9697166588545378 1.8422622577512031,-0.03617361341331216 m-7.716472766707512,3.7683091883056328 l1.797050520718736,2.7355122277962156 1.0826246723816864,2.926931581032267 m11.400981872854276,-14.940754218022585 l-0.12998133943560752,1.86577406677269 -1.1324552654508295,3.6120966666632746 l-1.5257496134355737,3.5044063575359834 -1.9643938575757294,3.4515239452576707 m4.661549239297022,-5.621133861814112 l12.354556063802923,-1.94523600156588 2.3404292511633997,-0.01139482476462022 m-8.428197355931998,3.541288017794083 l-0.1606071433548405,1.2056253910116073 -0.9544643817625407,2.112790756418131 l-1.3785428161212905,2.042662392822074 m-11.601244161497549,1.821538308686343 l-0.1474395713308018,1.7347338684889742 -0.5207696653469553,1.9565471813084292 l-1.1954403410203267,2.7807799129883763 -1.5414320165178808,2.874907991964169 l-3.3850834692888507,5.093144897703604 -3.686006683959373,4.186762588814615 m9.466699697927995,-11.9721196822531 l2.4465188321521247,0.189763305647594 7.277509771665829,-2.2864554884586874 l1.1629771603772994,0.0583157690826185 0.370656564804335,0.4126066635311503 l0.1139729975501004,0.6473681484220937 -0.4257468706560405,1.3538155821849536 l-1.6579648543144365,8.65741071621242 m-13.593445688422015,2.7003862882404044 l2.2917381516222814,0.2370697897574323 12.681357921225322,-2.354675764516639 l1.1389507296863972,0.07142050136370015 0.41952733582020013,0.31254871856636474 l0.21850192041249675,0.5326753105757974 0.049841574069968995,0.7045595447732731 l-1.6089271508739262,3.1417576284995112 -2.5624298830614665,3.693545759706698 l-2.8310306486534995,3.3022425973231733 -3.1773309214810856,2.9955834272373227 l-3.249489132726673,2.4725097535940996 -3.543831227075026,2.133308478762128 l-3.7673532469736313,1.868554286859931 m6.365764740608721,-16.94861283885554 l2.5729241540451047,0.580664781411343 12.425445146174624,1.6265419670144454 l10.257918012418118,2.844767611462359 6.55241334019031,0.8053527774869236 " fill="none" stroke="black" stroke-width="1" /></svg>