<?xml version="1.0" encoding="utf-8" ?>
<svg baseProfile="full" height="82.95959250734" version="1.1" width="99.02168171430537" xmlns="http://www.w3.org/2000/svg" xmlns:ev="http://www.w3.org/2001/xml-events" xmlns:xlink="http://www.w3.org/1999/xlink"><defs /><rect fill="white" height="82.95959250734" width="99.02168171430537" x="0" y="0" /><path d="M25.54823115515427,25 m0.0,0.0 m16.55642393301913,11.656272351732925 l0.457665970151898,0.11794838614896039 2.882651303967694,0.03531023942969952 l21.77952108869765,-2.185540142745539 2.285271846038191,-0.061443657505176386 l2.0324006485040904,0.2048943083769885 m-16.364870306595865,-4.538213134025348 l0.2696764029596895,0.6961193790665319 -0.05304629076477584,1.2573866198735966 l-2.8159889738054824,4.045778002749004 -2.5799836026222787,3.129746976439392 l-2.572217703202072,2.536308163098369 -2.705421750164362,2.554743376893528 l-5.927809330615568,4.377971103818877 -2.7551918631334336,1.3963690124870467 m22.109456660517342,-13.63666828081125 l11.537642529509965,8.67578774232611 2.439205723099964,1.5748757772556756 l1.8980642735893367,1.0210047166753518 m-27.160934104753405,-5.549536993340285 l2.310425459395153,1.525884696386061 1.3621359803004407,1.6026166274689262 m-18.54762115997161,-5.594079124667576 l0.5964994343925039,1.3937035017442803 1.2398647005921362,7.035273562971926 m-1.19846843620703,-8.09493403271766 l16.3937426292812,-1.2648331174358325 0.45265432467617883,0.0907733340490768 l0.33732724068067044,0.6207169989665317 -1.101764049528642,6.7044370031477785 m-14.675242191631122,-3.06357660785352 l14.75469816231377,-1.1513817868209115 m-14.058366743536444,4.544374829988683 l13.042048498619625,-1.019817582829214 m-7.304070360255211,1.8516344924286783 l0.4469407835717577,0.5127476332669738 0.18655711727667368,0.6722527685389035 l-0.029954356059757624,8.92535774795514 -0.21441569421666348,0.35932761480730274 l-0.35580016805160447,-0.013441513922534641 -0.45380459783965643,-0.35862881746834585 l-1.2551971515418474,-1.5639631033895367 m-4.552926066513239,-5.7515315472683115 l-0.2844609853576257,0.6269450264096983 -0.5443407445365106,0.5712243814686243 l-2.037497761718095,1.4931393157013302 -3.0557207979565773,1.6778092054449456 l-3.3139906757304476,1.3651820255096074 m21.797166064496054,-6.130655953067931 l1.99558954914753,1.0864559737347161 2.2534973388802872,1.661281904876274 l1.8108007184098613,1.7685774919433606 0.9676028795074779,1.4151832075542092 " fill="none" stroke="black" stroke-width="1" /></svg>