<?xml version="1.0" encoding="utf-8" ?>
<svg baseProfile="full" height="116.75115261850114" version="1.1" width="95.3378828242513" xmlns="http://www.w3.org/2000/svg" xmlns:ev="http://www.w3.org/2001/xml-events" xmlns:xlink="http://www.w3.org/1999/xlink"><defs /><rect fill="white" height="116.75115261850114" width="95.3378828242513" x="0" y="0" /><path d="M25,25 m0.0,0.0 m13.036360247294615,13.210554983154244 l0.35949045799564466,0.3668897467151139 1.7082584351092114,1.5825410663837771 l1.73064779933303,2.0696153373284645 1.3579018037035147,2.051666810888275 l0.5832311555270373,1.3109997942051057 m12.535168071750329,-9.147385053963028 l-0.276837698613522,1.386297321082094 -1.183943743380205,2.8410192937626255 l-1.4666222072519468,2.672443814529968 -1.9190614452636978,2.6551007875373687 m-17.41539716117039,3.5598792181712766 l3.241912725924289,0.18939122360299135 19.446435254102692,-2.3893073588356963 l4.716629191432943,-0.10763950740998106 2.144820568290553,0.2968182674072307 m-15.89206165139114,1.601393841130874 l0.7388625181426097,0.8778703092269371 0.23425015508344252,1.079612849830612 l0.013533466930496516,16.055251013845446 m-12.499197516596864,-8.19937843342665 l2.8307168769159468,0.2686228153299858 17.516864935439603,-2.6122700581424105 l3.1028118234706663,-0.21457265528958513 1.74813221176995,0.2527340286947698 m-30.50453577717418,12.055559347895887 l1.7214261001260078,0.3599376151147046 1.9730738496552875,0.06638479528961917 l30.6304354305297,-3.1620788748018978 3.0540800946480977,0.42257171488639284 m-24.05251024701369,3.437892063594934 l-0.027681789348509137,1.8650971686566498 -1.0675071045713025,2.0876759564754135 l-2.413086184224378,3.6535439223770525 -2.8224207184353127,3.6029542933729606 l-5.41297666170719,5.620083699415379 -3.0480081111637545,2.5367646904664487 l-2.5175989753300287,1.7225312346412085 m23.714942223022557,-14.364321439143644 l2.867106895834569,2.254702401432176 10.997250970930693,10.819163173424188 l3.504737242136229,1.47759553712133 2.34824931178768,0.6369458625225255 " fill="none" stroke="black" stroke-width="1" /></svg>