<?xml version="1.0" encoding="utf-8" ?>
<svg baseProfile="full" height="100.96753488752181" version="1.1" width="94.06960934598067" xmlns="http://www.w3.org/2000/svg" xmlns:ev="http://www.w3.org/2001/xml-events" xmlns:xlink="http://www.w3.org/1999/xlink"><defs /><rect fill="white" height="100.96753488752181" width="94.06960934598067" x="0" y="0" /><path d="M25,25 m0.0,0.0 m23.212248962588617,6.128021190441932 l0.014956593813098936,0.44810218835407595 -0.45287373906227313,1.7605684776052528 l-1.541979895012953,4.700148354219236 -1.4704627589272286,3.4746301288767887 l-1.9771328359210665,3.6196067258990605 -3.786364048772931,5.037402954811641 l-2.309107778295393,2.3189204854932712 -2.1030805214324313,1.656358811384212 m4.914132686545516,-18.14209292803999 l2.3549258385144545,0.16040992804653312 16.701534083817872,-2.3880521526193887 l1.1565968056244702,0.06422487264762244 0.503608662610979,0.3222924441952524 l0.31988975093587974,0.5564131451020337 0.014478293637794513,0.690040472341883 l-1.332955290655004,8.82869195419286 0.49961053407058725,2.673865715190143 l0.777173173576983,0.6360166622789472 1.0023738430434201,0.3024826296987008 l2.5748853391453523,0.1918952583448035 2.2175767397486226,-0.15192553781084744 l0.9228625159322787,-0.28677640226661905 0.5980152583946352,-0.9195027459754036 l0.19054505005090253,-2.039491369038534 m-34.36469606844264,14.392299268521938 l1.489476093691554,0.3072174672263391 1.9105738075689442,-0.014969184934724251 l14.88652180333868,-1.6538617195837515 11.399817085876844,-0.7842366681584618 l3.498900276610607,-0.07499945542189769 2.24755908336449,0.29390973239260393 m-17.541920044271393,-8.435647137197451 l0.5716844411099185,2.169458492166447 -0.07562312132008316,25.1261128291373 " fill="none" stroke="black" stroke-width="1" /></svg>