<?xml version="1.0" encoding="utf-8" ?>
<svg baseProfile="full" height="93.64899656767764" version="1.1" width="105.74621045220684" xmlns="http://www.w3.org/2000/svg" xmlns:ev="http://www.w3.org/2001/xml-events" xmlns:xlink="http://www.w3.org/1999/xlink"><defs /><rect fill="white" height="93.64899656767764" width="105.74621045220684" x="0" y="0" /><path d="M25,25 m0.0,0.0 m26.371038019308333,3.7747749088257576 l0.04013757391352999,0.45543381295368346 -0.17833955602262383,0.8636932734435196 l-0.8832910788330252,1.6389175397956586 -2.9042692604501417,3.629192226511613 l-3.661925816998818,3.473991540387136 -4.012713845668634,2.8966325086554914 m11.293385825980993,-9.012255473730312 l11.26777372446846,-1.543366607506611 0.7856066715671515,0.0681837219628165 l0.8165140504589292,0.41107795172526396 0.4735888746682946,0.5455503954437366 l0.014145773487460088,0.5319559525078413 -0.2895007398944982,0.5732246137451034 l-3.229500969932119,3.552268564605211 -3.7076446424627227,4.718755967512462 m-14.019735670040081,1.7644644136421912 l0.6799879985027322,1.5749790452111645 0.48139022929387365,2.2530957563402803 l1.5247063327812127,11.092307206937345 m-1.7040142981595592,-14.428999812984484 l21.86816827711232,-2.52825753068015 4.802155403426122,-0.36954074846699253 l2.041171980184136,0.1736016916635992 0.5191274964225217,0.8431888336936108 l-0.1872126070803561,1.715518240779224 -1.1101428584705257,4.791587257431691 l-1.8481376852372224,7.352742072246437 m-12.691135630988457,-13.276115275902166 l0.21365354573805403,13.210046261842816 m-11.980362602602042,-5.365314682918015 l19.186588097517795,-1.948308455688274 m-18.017298975784357,8.871646152588536 l24.016338165232362,-2.1190393773231078 m-28.233037176157705,5.75800532898021 l-0.16051688575354459,1.6022949724254316 -0.8252884613646075,1.933812981616512 l-1.289813328234913,2.103964906018762 -1.6331961127676926,2.0652864333846486 m12.39197689586288,-8.202226577601573 l1.410732023745827,1.409661267213153 1.181551442158419,1.793649420619764 l0.9138070077065366,1.9576072277978906 0.6870017998361445,2.2038073203314146 m7.042501933979744,-8.085791611588553 l1.5247036927217086,1.5814639879070505 1.579439342354183,2.2142621579296518 l1.2658630482845936,2.3370608474777357 0.5340422574595318,1.5859442222774394 m6.981187002605538,-7.336333114920406 l1.9644857421982347,1.5501622081517237 2.074339537549443,2.1903110294861015 l1.6601316786460223,2.266894335729355 0.7060472099374052,1.520737619693996 " fill="none" stroke="black" stroke-width="1" /></svg>