<?xml version="1.0" encoding="utf-8" ?>
<svg baseProfile="full" height="97.89836936228755" version="1.1" width="89.03499637005308" xmlns="http://www.w3.org/2000/svg" xmlns:ev="http://www.w3.org/2001/xml-events" xmlns:xlink="http://www.w3.org/1999/xlink"><defs /><rect fill="white" height="97.89836936228755" width="89.03499637005308" x="0" y="0" /><path d="M25,25 m0.0,0.0 m17.725948104387356,4.158793753341164 l0.39550864667542374,0.3882778557503962 0.5272052973891104,1.0457321832692406 l0.09510166260947385,1.272819580269683 -0.1355757326809992,6.903795497731833 m-18.33924425834802,2.1011809980043252 l4.3864578954492774,0.22243403157520694 28.07312490359185,-1.9194326527791266 l3.7556708134724297,0.0025570795715591657 2.5507990375071765,0.35611042106172613 m-22.554731267906096,2.1535667837970727 l0.05493575834216801,1.2701971494807969 -0.3548300740529205,0.7534292466782878 l-4.788724980987173,6.5189583287975505 -0.2571804264221131,1.5248832606274356 l0.3382044957886988,0.4808515343547299 3.73944277223795,3.133045816549001 l3.1113328543986256,2.528712094631863 m8.032222515900255,-11.40763855142462 l0.11333503578796064,0.9559158272107054 -0.26574657692762266,1.1501486515154975 l-2.741429130710032,9.514766304317854 -7.473612428194914,11.586404889432167 l-0.6662037753938536,0.6745209041841064 -0.1672812585990708,0.6432265776412573 l0.3023794456870945,0.2851608791702961 0.7790169562897945,0.011355721468999746 l14.172515626532453,-3.37145807225146 m-2.1856203988412672,-5.572022952191836 l1.4677366862984347,1.8881562719558505 1.6487533243263786,2.902642079311374 l1.393969252852047,3.1831543040451202 0.7227135936292802,2.5581235651894842 " fill="none" stroke="black" stroke-width="1" /></svg>