<?xml version="1.0" encoding="utf-8" ?>
<svg baseProfile="full" height="107.99230722474033" version="1.1" width="113.73324877683038" xmlns="http://www.w3.org/2000/svg" xmlns:ev="http://www.w3.org/2001/xml-events" xmlns:xlink="http://www.w3.org/1999/xlink"><defs /><rect fill="white" height="107.99230722474033" width="113.73324877683038" x="0" y="0" /><path d="M25,25 m0.0,0.0 m28.000989169139423,15.668834814505615 l0.36214650179412533,0.13868071248866348 1.8089724067042139,0.16600474248335662 l21.14751661542578,-2.1952285664747984 3.062782524184212,-0.1443223514047814 l1.7223980448430305,0.20092625742555548 m-15.631821785393312,-4.281000439266454 l0.46636556723403333,0.3998297479282681 0.42425390841361527,0.893232722604383 l-0.036037909707306706,10.024011196952529 m-10.643483219519197,1.1699508078589134 l2.1342535836813017,0.0902963208050356 15.26091411001951,-1.7813521266855172 l3.3886099463202313,-0.15218489806820507 1.282795323284029,0.14528716534127264 m-28.675073865342295,6.297169682481026 l-0.8044168228611815,3.7402291406837285 -1.6791453375443013,4.48728297916583 m3.069356572080343,-7.053108603202398 l25.752040961079075,-0.36439053022776063 7.286041825942635,-0.19477090874040212 l3.522815282444297,0.06587410863792903 1.5912899069535549,0.21575677076440164 l0.6901825196072282,0.3027137700556516 0.22950294804733268,0.41346588481782587 l-0.16971290327296976,0.5109790450256343 -1.1847248382454771,1.1502118985965224 l-2.4267881729217113,1.6581045800844336 m-18.409333385656307,-1.3188395194159976 l0.014841855973205717,0.7160670556475486 -0.3383496423379928,0.7096398408786089 l-6.03830928478623,4.917877457315705 -0.3910819583902979,0.8349357418310135 l0.23858097394792133,0.46384882979724407 3.4251447270695436,0.058551605852953735 l3.0954022045816623,0.31172221560713875 m7.807495299899801,-7.1509390888221 l-0.06600476373095772,0.7612307357860376 -0.26684294903832495,0.6622988668442068 l-6.482657575140281,6.99714588628402 -7.387282936601759,6.17420674538578 l-0.4940855020024776,0.313379485129089 0.47211478400052925,0.19803831816320341 l16.96481109505236,-2.9953302876469126 m-2.98164746821164,-3.2308601973143563 l1.5080679260131973,1.02554992538429 1.8643317649431017,1.7797897872198847 l1.3549308526159043,1.6118073113668812 0.7189916968205603,1.3891463738478365 m-12.147821804898259,0.18744007724225215 l0.528869381326854,0.7134681053436731 0.16054148377624444,0.8793522488727099 l-0.12107870654821433,10.410295779503377 m-8.628614243730048,-8.19436236725426 l-0.26978675977475886,1.0574401884956923 -0.8305273221510381,0.9405379686463052 l-3.3318920058808374,2.5833699180923317 -3.51742886148286,2.3105445863727283 m23.845872903469576,-7.712400218248661 l2.0776682020618273,1.264760409654703 2.5032404289844417,1.9500171760180314 l2.2218782456997745,2.0747990468977155 1.2664193644887858,1.512129856207269 " fill="none" stroke="black" stroke-width="1" /></svg>