<?xml version="1.0" encoding="utf-8" ?>
<svg baseProfile="full" height="109.49251183308661" version="1.1" width="109.33751034957822" xmlns="http://www.w3.org/2000/svg" xmlns:ev="http://www.w3.org/2001/xml-events" xmlns:xlink="http://www.w3.org/1999/xlink"><defs /><rect fill="white" height="109.49251183308661" width="109.33751034957822" x="0" y="0" /><path d="M25,25 m0.0,0.0 m38.40632200241089,8.41897964477539 l0.39389465004205704,-0.05559399724006653 12.722631692886353,-2.0610080659389496 l4.072239398956299,-0.09579368866980076 m-19.52919840812683,-6.206583380699158 l1.0098329186439514,1.4476045966148376 0.6986229121685028,1.6975697875022888 l-0.17018908634781837,13.533023595809937 m-14.402252435684204,0.5989858135581017 l1.0482252389192581,1.4466072618961334 0.11584159918129444,0.6092902645468712 l-0.006050728843547404,19.249316453933716 -0.3411468490958214,8.75709354877472 m1.1368099600076675,-29.336345195770264 l25.543155670166016,-2.532227337360382 1.7145220935344696,0.0884808786213398 l1.0523802042007446,0.5105672776699066 0.3558763861656189,1.054707020521164 l-0.5971835926175117,28.55104684829712 m-28.804504871368408,-18.41233253479004 l19.074807167053223,-1.9469530880451202 m-18.859078884124756,10.865509510040283 l18.325575590133667,-1.7768056690692902 m-18.678252696990967,11.147385835647583 l28.891592025756836,-2.301105111837387 m-24.61359739303589,6.206583380699158 l0.07312812376767397,1.1870024353265762 -1.4509284496307373,1.597849428653717 l-5.518514513969421,3.6028897762298584 -6.575880646705627,3.6467665433883667 m30.44257402420044,-9.796509146690369 l4.141710996627808,2.0435985922813416 3.986479938030243,2.399599701166153 l3.7757378816604614,2.7678993344306946 1.9023284316062927,1.9315798580646515 " fill="none" stroke="black" stroke-width="1" /></svg>