<?xml version="1.0" encoding="utf-8" ?>
<svg baseProfile="full" height="111.63968886753896" version="1.1" width="108.7384271271205" xmlns="http://www.w3.org/2000/svg" xmlns:ev="http://www.w3.org/2001/xml-events" xmlns:xlink="http://www.w3.org/1999/xlink"><defs /><rect fill="white" height="111.63968886753896" width="108.7384271271205" x="0" y="0" /><path d="M25,25 m0.0,0.0 m27.114216704629797,11.315160963229227 l0.36894274616654016,0.36475045475658674 0.34009986850239604,1.5438316948027366 l-0.051918408855311945,3.935734437442218 m-13.817941952187308,0.7198363768680694 l-0.705245197353969,4.205741007436497 -1.6171222004994104,4.399449010098921 m2.597475571081022,-6.975659617606029 l18.986175395146226,-2.2779002006039084 8.074140489944096,-0.6047528065196556 l3.6295510397012,0.004819955224312809 0.7965592105546504,0.3441658557271293 l0.27261390145230185,0.5227265569545981 -0.1380822291354797,0.662994361184141 l-1.112695667286218,1.4861832251296587 -1.7733226610485842,1.568852165421191 m-29.472059997170618,0.7557988037553829 l0.2898938953848444,0.7442737857601568 0.1520861612287862,0.840675257486881 l-0.2434406535579764,3.9851751915136777 -0.5554189068082902,4.452144964128785 l-0.8820711578637025,4.0093891181513195 -0.9569389031152393,2.913453254584355 l-1.3157574284306308,2.7191176007880626 -1.7450121746311997,2.5522628877135523 l-1.7197889196551763,1.9172090468435103 m8.078474611987476,-21.259963573077243 l3.438239513051191,0.062086392025051916 18.782729828088716,-1.945561494771369 l3.3551540929850523,0.08956260076999144 m-13.693842929986994,2.339422303755359 l0.13342570210569418,1.0749336802701417 -0.34752185415941916,2.6045677060917565 l-0.6303129654190338,2.2083611859221106 -1.1214519699784222,2.137187407099471 l-3.055179352245983,3.5210381392375982 -4.7316299423904296,3.445963739086252 l-3.178608144526448,1.6501116121462729 m15.37913305442202,-9.35300515634089 l2.365737417062684,0.0011980182847641215 8.304224611914254,-1.4434517267382352 l1.1619375154481246,0.10638297005490673 0.3468634580967592,0.3738019636755118 l0.06223984589613646,1.1309730283293253 -0.6429826066135339,1.951325466665991 l-1.7848628763242431,2.8651208885659627 -2.3929162400712323,2.9079025916612853 l-2.9994589931775395,3.0207218987247133 -3.4860241733614004,4.819263124363776 l-5.095633008722797,6.172308548065888 -2.769960647365016,2.714775849319727 l-2.968428671503712,2.404158216725259 -3.04176632163218,1.9350701373542194 m8.044338117089053,-20.683173560205894 l3.4689518300727062,3.392959667614545 12.992439836774363,2.501911679273584 l8.792861037701394,2.7123354793949166 6.4920987829034456,1.881054165618299 l2.965220042807069,0.6282464450487064 " fill="none" stroke="black" stroke-width="1" /></svg>