<?xml version="1.0" encoding="utf-8" ?>
<svg baseProfile="full" height="149.77650910746655" version="1.1" width="100.19897088832496" xmlns="http://www.w3.org/2000/svg" xmlns:ev="http://www.w3.org/2001/xml-events" xmlns:xlink="http://www.w3.org/1999/xlink"><defs /><rect fill="white" height="149.77650910746655" width="100.19897088832496" x="0" y="0" /><path d="M25,25 m0.0,0.0 m30.708928718443016,3.1829941013392964 l0.3149404108021374,0.3062089144366155 2.0502050450384712,2.569600125733289 l1.1059797864753835,2.6341556067147356 m-17.72875365154534,5.182642253034213 l2.605802748643149,0.34556787963860636 16.681026030272896,-3.221405209188899 l8.810627167831665,-1.5299227066829693 4.036418160501937,-0.2651408842652038 l1.6137964718616467,0.4463640262392103 m-27.495957527574596,4.745683375180759 l-0.15857058123701695,0.6816265891920477 -0.4464621442395141,1.0522291227237666 l-2.588695502740182,8.738466338857007 -1.6227927693159905,0.6452248614023148 l-1.6376142420742679,0.21212838706990858 m16.506075276502397,-11.484584179078086 l0.10475485929975259,1.1041951226914204 -0.9919086967131618,1.3843145429092385 l-4.405335479673725,4.926512016394158 -4.9817147520091565,4.7949951650626526 l-5.643727701608824,4.188159069589335 m7.854871624135763,-6.234314346076883 l0.5180836223873483,1.1441167606975022 0.1768888098252396,14.256421643187702 l0.6853416407430934,0.23749822707783141 0.7604614110374321,-0.26660101760507265 l6.714992458218482,-6.551657671543835 m9.225985895036498,-15.232645091345592 l0.00906485158336696,1.2194538795474668 -1.1561297640929367,2.0058366844194917 l-1.9109000189198915,2.1454479196944254 -2.6730920380276006,2.4215368526884538 m-5.402034620284661,-3.0560609205627802 l1.3251725856743173,0.7733094522730839 2.563828749955017,2.2072184736819267 l13.150263695223012,11.892417611254604 1.278541731163001,0.7095262671468374 m-30.252235985485683,6.1792021768374354 l1.720940252680893,0.9937310670252788 1.7143561512163688,1.7757717161111575 l1.3340557305670737,1.8851735030318977 0.6043646229483299,1.3793245764638506 m14.541566155520313,-8.945561403169506 l-0.1703214020374609,1.189544644910004 -1.0392060452549219,1.9499423501696327 l-1.6095988882811534,2.273806317564276 -2.1250849644516476,2.1833736982523537 m-1.3248607871956741,-12.723280622035722 l1.1516582244482232,1.6006426273136247 1.2193750331333144,1.8006464322629767 l1.0553446820678205,2.2153049939643736 0.7582873352779388,2.419936711318891 l0.7258659674079816,3.0307808195615014 0.7973905709612933,3.9070624864457613 l0.8006407374338712,4.6649072875162885 0.7644587361954105,5.229269979766525 l0.8685669172382408,5.490753667971792 0.9848514829668148,5.954362703098166 l1.0474562287560818,6.464667397550315 0.9953011244587645,6.499311973584791 l0.9404700987863176,4.554880191648694 0.6607783674516222,3.915714258297973 l-0.005191005998404789,3.7235469888099875 -0.5861248250750197,1.5843619427415625 l-0.6022025107165625,0.2678113769240716 -0.6574071048702044,-0.27441703974007314 l-2.015248359408029,-2.6449632938852417 " fill="none" stroke="black" stroke-width="1" /></svg>