<?xml version="1.0" encoding="utf-8" ?>
<svg baseProfile="full" height="103.49322075973099" version="1.1" width="100.01026693078768" xmlns="http://www.w3.org/2000/svg" xmlns:ev="http://www.w3.org/2001/xml-events" xmlns:xlink="http://www.w3.org/1999/xlink"><defs /><rect fill="white" height="103.49322075973099" width="100.01026693078768" x="0" y="0" /><path d="M25,25 m0.0,0.0 m16.36893660785499,17.619531150419476 l0.4916996156010635,0.11136657253940585 1.6861636720865927,0.12121051681638921 l21.90711106220786,-2.139839871353 3.6990884497270042,-0.18459378433003437 l2.042996049770304,0.18735597197754086 m-32.84916925574623,8.946774723752522 l2.697381888064588,0.2382580683363646 25.570217382077214,-2.7139841603935633 l1.6296469285965458,-0.10074589037076855 1.2825174402197481,0.2461920270406826 m-37.57831554213253,9.714390297637022 l1.7000819049118214,0.27035146212771494 1.871796319519931,-0.042496500602574115 l31.8232789026315,-2.9634096118013002 5.082836030586964,-0.22896770768525385 l2.58399947481032,0.2682856653914449 m-22.704896511272096,-18.175895286952144 l0.8029218334929069,0.7418014639287991 0.4955325302944869,1.428210615245186 l-0.050802590142233726,18.608132990125473 m-2.9690402442067287,2.3954614134553385 l0.13350475038852574,3.735097654109898 -1.122839475586223,15.41073298031637 m-11.686592754313589,-12.928910970980755 l2.0967118796464113,0.23620011762273027 17.43074033467367,-2.1194546627172226 l2.2103924471405216,0.1296363465590042 0.5187487516761575,0.3039234492249223 m-29.066937211836603,12.734541238282672 l2.282433746906023,0.31788233705227004 29.34410214908323,-2.315517114013544 l4.842889387553194,-0.18633047050261178 2.0270816907450744,0.2690812898298106 " fill="none" stroke="black" stroke-width="1" /></svg>