<?xml version="1.0" encoding="utf-8" ?>
<svg baseProfile="full" height="95.6142169363873" version="1.1" width="96.9744814563606" xmlns="http://www.w3.org/2000/svg" xmlns:ev="http://www.w3.org/2001/xml-events" xmlns:xlink="http://www.w3.org/1999/xlink"><defs /><rect fill="white" height="95.6142169363873" width="96.9744814563606" x="0" y="0" /><path d="M25,25 m0.0,0.0 m18.908426677230597,3.8720484022137467 l0.01241046849497601,0.44909390454999965 -0.6304060695247506,1.5666887438849075 l-2.3740903116683825,3.204940710979629 -2.5657767530383984,2.609619352925892 l-3.395213011028811,2.8248357937236195 m7.042821192087341,-4.5078828170617875 l0.4280840019261243,0.682743698978714 0.1813837809720859,0.8450278289130772 l-0.029247492921647775,9.229192584059827 m25.264089452408037,-16.704042144824655 l-0.2612941106906644,0.696857417030937 -2.4707876869826393,0.5973855630622223 l-11.213554755259905,1.2904864209402491 m-2.746241271280279,-2.0953033326844204 l0.6700533458769038,0.5394241278360558 0.23735079986286675,0.6867969113491079 l0.05637866247485312,5.756238973995136 0.19355257559578162,1.179160422977948 l0.4343894151219721,0.6433423692052304 0.7908479301192382,0.4563011889365099 l2.1560325896493624,0.4132674426234615 3.9496552260968025,0.15514604572378868 l5.566572008613526,-0.015668644051003173 3.562592103936977,-0.2073312196537102 l1.6944811231992318,-0.41281326824491527 0.9483430685447598,-0.6612443468477277 l0.45332435762512097,-1.0171391830487624 0.11030413891952123,-1.4146130497923792 m-29.82227313098518,8.491388129336183 l0.6669121655314738,1.6416900339184803 -0.03662496158624823,17.235603609814124 m0.3960453894147829,-18.10578532400165 l17.060911737735076,-1.5959322909338558 0.7600418876951271,0.0006049013630761131 l0.9844055997494886,0.4180200930408465 0.4894399379398083,0.8654494467405386 l0.03837563280898166,0.5483450010826921 -0.047947091312155715,16.96826576848866 m-19.252565163654918,-11.710056852166998 l18.71894845489355,-1.3937725228203017 m-18.605779295489956,7.059702344017551 l18.520560455565757,-1.467990551812567 m-18.520816397481326,7.141062048060336 l11.883505011913293,-0.8950709685681749 6.572033920642788,-0.305371497434586 m-15.34539936403157,3.8814759451477947 l-0.16159008827722582,0.8838621567047463 -1.4693164327806156,1.226013346991016 l-3.6905917532754566,2.1596816629459177 -3.918882106345918,1.9044725587727591 m21.678524261602306,-6.163707241599192 l5.184158092017421,2.9928615207152345 2.273531688427995,1.7192383606063766 l1.3371081186663503,1.3543654406017525 " fill="none" stroke="black" stroke-width="1" /></svg>