<?xml version="1.0" encoding="utf-8" ?>
<svg baseProfile="full" height="98.63018608103445" version="1.1" width="108.70198308101627" xmlns="http://www.w3.org/2000/svg" xmlns:ev="http://www.w3.org/2001/xml-events" xmlns:xlink="http://www.w3.org/1999/xlink"><defs /><rect fill="white" height="98.63018608103445" width="108.70198308101627" x="0" y="0" /><path d="M25,25 m0.0,0.0 m12.69793122399036,16.184836561645593 l0.5023814712102287,0.1460313579887017 1.7770264401752922,0.18994390554269314 l2.0823039552410774,-0.13521736548431035 16.2636790890911,-2.850443516485542 l12.437968450983101,-1.515250019381026 3.572784688766575,-0.29878716518550985 l2.414794287236089,0.3038406452296673 m-34.880737160212746,18.14560590314275 l1.7079097376694465,0.3227875215911058 1.7922146154776402,-0.08105617428952212 l20.332857526187826,-3.292523814233997 3.0883437297478404,-0.2767662941696011 l2.080329053316853,0.1809589405778688 m-38.11590797719942,19.869707897295015 l3.88623805929432,0.26759642037840814 19.84320540812332,-2.076844736765092 l17.120326173743027,-1.330538621336923 6.861431192698817,-0.17741009325810805 l3.2369031154755135,0.5717313008200211 m-27.080238196625967,-33.53219157995247 l0.895980541838754,1.3800848210279384 0.2634239047467611,1.4121880659439692 l0.04135805222168399,35.22190212039281 m12.81126756357371,-12.318191682151607 l2.221392092592878,1.4925176327556418 1.9269030498371749,1.8070554749247474 l1.466770231157646,1.874829606204594 1.0838549506996407,2.1010522691161424 " fill="none" stroke="black" stroke-width="1" /></svg>