<?xml version="1.0" encoding="utf-8" ?>
<svg baseProfile="full" height="109.49251424812246" version="1.1" width="101.20850700885057" xmlns="http://www.w3.org/2000/svg" xmlns:ev="http://www.w3.org/2001/xml-events" xmlns:xlink="http://www.w3.org/1999/xlink"><defs /><rect fill="white" height="109.49251424812246" width="101.20850700885057" x="0" y="0" /><path d="M25,25.00000111758709 m0.0,0.0 m0.5865979939699173,8.445212841033936 l0.49446459859609604,0.16007434576749802 2.3889897763729095,0.2254733070731163 l3.0790919065475464,-0.20056089386343956 36.402878761291504,-3.5217171907424927 l5.989564061164856,-0.21095717325806618 2.2669199109077454,0.3541655093431473 m-28.270742893218994,-4.833317995071411 l0.7101213932037354,0.7799454778432846 0.3665149211883545,1.1162887513637543 l0.010149605805054307,13.237425088882446 m11.864545345306396,-15.552033185958862 l0.760088711977005,0.7750625908374786 0.3000478632748127,0.9850229322910309 l-1.139909252524376,11.806278228759766 m-11.427046060562134,1.1464807391166687 l12.800089120864868,-1.08659528195858 m-25.499918460845947,-13.020790815353394 l0.7101213932037354,0.7799454778432846 0.36295458674430847,1.0845505446195602 l-0.5499707534909248,16.80446982383728 0.40519077330827713,1.2125612050294876 l0.5123681575059891,0.3015940822660923 23.696539402008057,-2.192823439836502 l6.466776132583618,-0.06759876385331154 3.069651424884796,0.6301249563694 m-32.87489414215088,6.708312034606934 l0.7757136225700378,0.9544239938259125 0.1575515791773796,0.5921204760670662 l-0.005925477598793805,14.472284317016602 -0.27404699474573135,6.580382585525513 m0.9134085476398468,-22.062430381774902 l20.473079681396484,-2.533215582370758 0.7402320206165314,-0.008799207280389965 l1.1679650098085403,0.5821921676397324 0.5919577553868294,1.1262985318899155 l0.06280497182160616,1.4907179772853851 -0.5427737161517143,20.189144611358643 m-23.08326005935669,-13.96870493888855 l15.292593240737915,-1.433345079421997 m-15.124951601028442,8.21872353553772 l14.753859043121338,-1.3132283091545105 m-15.031201839447021,8.359348773956299 l23.157804012298584,-1.6866807639598846 m-19.729102849960327,4.833317995071411 l-0.09000622667372227,1.1031866073608398 -1.9498635828495026,1.7216742038726807 l-5.397769212722778,3.4358614683151245 -5.609031319618225,2.972646951675415 m27.5832462310791,-9.848926663398743 l3.824206590652466,2.2268809378147125 3.6526575684547424,2.582348585128784 l2.972972095012665,2.5204998254776 1.7840111255645752,2.043125033378601 " fill="none" stroke="black" stroke-width="1" /></svg>