<?xml version="1.0" encoding="utf-8" ?>
<svg baseProfile="full" height="108.90501870666104" version="1.1" width="119.58967156145673" xmlns="http://www.w3.org/2000/svg" xmlns:ev="http://www.w3.org/2001/xml-events" xmlns:xlink="http://www.w3.org/1999/xlink"><defs /><rect fill="white" height="108.90501870666104" width="119.58967156145673" x="0" y="0" /><path d="M25,25 m0.0,0.0 m8.25709703924057,4.209485573687551 l0.3213604083399646,0.55116154774704 0.3383701353466451,1.9477186411871183 l-0.045560536973334544,34.118537842732486 m0.4120382903670035,-36.912277895841996 l10.462119061010997,-2.1135944297992824 1.5490221659571046,0.0651884483782793 l0.9497976521709491,0.8961067873353193 0.2995602254475174,1.6253460215145157 l-0.018150652165296977,34.694665482001845 m-12.85739786550198,-24.12082091228048 l12.34152843332926,-1.5350742104849948 m-12.573838049983973,12.74779422867373 l12.597199904731124,-1.5543013831740937 m-12.341164751247229,13.35365999439584 l12.060160083520618,-1.1885456862444161 m-9.135771494324104,6.603919523397868 l-0.09458392543915978,2.375557376749191 -0.8735734580996031,1.7861122520527424 l-2.7350346762476154,3.9699948267805123 -4.354896237848562,5.55163974965998 m14.870373124334321,-13.160623653592047 l2.7844951612208804,4.978406791004649 2.1590588719206782,5.375419368042788 m4.21619132191604,-42.32883949578835 l3.3550136172118976,0.20051266967302742 18.57326923850805,-3.1650789646775648 l3.6868446690998016,0.13400171368426894 m-24.8593615872825,13.530168839784814 l3.1497700747765793,0.16224541119326447 17.313676318608213,-0.2768830890587691 l4.9632195040968385,0.3183147730198188 m-28.47309307160048,11.055302617158386 l3.2592669387620368,0.30639946955164493 24.132884562961074,-1.7233478610040738 l5.217931778883984,0.2718289615323346 m-17.870632746209694,-28.96741227393279 l0.9307114650834071,1.8493944365449484 0.10540759072950297,1.4868688746411323 l-0.061161927584351385,51.786066340414806 m-0.6095303576906623,-29.215956943187926 l-0.38533533338871373,1.659359454184382 -1.6202853608591654,2.30258159463994 l-2.775434591717057,3.1974087544235017 -3.4122017601233345,3.3825708322621617 l-6.325081408221063,5.08886998411189 -6.829083689931942,3.9722268553647413 m23.005275931591573,-18.51010959973575 l10.798805154994337,6.351117900450796 11.099772306803192,4.501667030914377 l4.6306240129323655,1.2672856635415444 " fill="none" stroke="black" stroke-width="1" /></svg>