<?xml version="1.0" encoding="utf-8" ?>
<svg baseProfile="full" height="102.5180155781621" version="1.1" width="123.0454614742491" xmlns="http://www.w3.org/2000/svg" xmlns:ev="http://www.w3.org/2001/xml-events" xmlns:xlink="http://www.w3.org/1999/xlink"><defs /><rect fill="white" height="102.5180155781621" width="123.0454614742491" x="0" y="0" /><path d="M36.46987960212465,25 m0.0,0.0 m12.028017563719128,5.73537455120704 l0.06335336631415503,0.5224394564453191 -0.35201366125666245,1.3358459732709915 l-2.4025192263488093,1.999934818984785 -10.161987973379247,4.6642791684605385 l-7.720614603113687,2.500929663839917 m-2.9241150680595274,7.128457954506862 l2.1927305553800105,0.279916329724136 2.0296913630961275,-0.09614799872684934 l20.474277447704388,-2.3564413727770677 3.704012343429557,-0.17577092077865375 m-12.030831480802098,-6.874785757697543 l0.7425437158740633,0.8035466711752407 0.4448907565515371,1.1069009645565986 l-0.07015399029808839,34.679609671751855 m-0.8372305651292207,-29.072192110824577 l-0.30127250038139003,1.4376848965699964 -1.3721400161505526,2.2758024765202034 l-4.901984122961782,6.705788458920043 -4.602127397042114,5.056380815558946 l-4.998763298657876,4.307305226867144 m19.432446834050985,-15.73436151395589 l3.352212059713846,2.0909595246493824 3.977085480687971,3.702882055963797 m26.898674451462636,-24.53838506709826 l0.6660952574332532,1.0319247486778 0.16168263005021197,1.2387936088907063 l-0.01093640828760117,15.826809870534486 -0.6736439342775569,10.699644133960035 l-0.7102024306085933,0.378118446100314 -0.9474862549873836,-0.06981932515508835 l-4.066862160637704,-2.295704487598603 m-3.96807101093879,-17.841156160130463 l-0.4859821992068504,1.8996848460999345 -2.5084483511195734,3.5148761170798495 l-3.0912033560774432,3.1129066586150897 -3.5383083502996873,2.6983955637517707 m28.42382567247988,-12.087617519012413 l2.823025488786519,1.7738785280945535 3.041039686847186,2.5144052070416545 l2.5086409038368283,2.7287498976483175 1.2882346547284076,2.1680516678468273 m-7.693587486581597,1.8820877929700979 l-0.5309229633470589,2.596893658602002 -2.3103461997939485,3.577176472780824 l-4.0276683619541656,4.06254526237617 -5.198548529914162,4.2576615660151855 l-4.88429088636213,3.3471965027807706 -5.38909250083113,3.1094798635798337 l-5.7142466765826105,2.7146494066062563 -5.9056932120713155,2.1924293128922367 " fill="none" stroke="black" stroke-width="1" /></svg>