<?xml version="1.0" encoding="utf-8" ?>
<svg baseProfile="full" height="122.26824220142737" version="1.1" width="93.36792860458085" xmlns="http://www.w3.org/2000/svg" xmlns:ev="http://www.w3.org/2001/xml-events" xmlns:xlink="http://www.w3.org/1999/xlink"><defs /><rect fill="white" height="122.26824220142737" width="93.36792860458085" x="0" y="0" /><path d="M25,25 m0.0,0.0 m27.78092177725011,1.1697524958513665 l0.038823358412831396,0.3456459424142405 -0.4444863393536432,1.6072651869147365 l-1.6282487095327094,2.429839619142887 -2.1976558469178182,2.3835594020087467 l-2.802713779178032,2.3003863740862975 m-6.71749614210421,-9.611978319280178 l0.5851904354690144,1.3642238784082996 0.1058733229284672,19.820110035073352 l0.4290782782710732,2.007980927370095 0.6718457811461201,0.7515855942385633 l0.8589250031515886,0.5532992915227578 2.3546303822121737,0.5293862303396571 l12.566430559202573,0.163928638276111 4.269038377453331,-0.4539258182663247 l1.6637861020469285,-0.6742443731737588 1.0970220071124746,-1.0756088618189188 l0.5377322088992964,-1.5735415551647987 0.12676140150201548,-2.2326552034460536 m-34.04791955767406,13.829488491097827 l1.7389973403800503,0.38015364923535344 2.391612922643257,0.02302825546182057 l27.20180371931284,-2.787305699580751 4.286513882521501,-0.11181597559748999 l2.5014621194256708,0.2800229011668922 m-19.47767785934168,-8.419795737445186 l0.5959830973223982,0.8633959986788506 0.3098167938909316,1.1538004578626864 l-0.088140920245273,24.4026952735716 m-0.6645272614399526,1.1875203053019967 l0.23380510571469662,0.7482126898734659 -0.12001823280982901,1.0206062392236563 l-0.1553823599528966,10.779592298281237 -0.4677261210164166,2.1257030285768685 l-2.0235117409595937,0.6006720625804746 -2.1291647862315846,-1.3172742682934104 l-1.267080502185166,-0.9493053542877395 m-8.250075837925591,-13.211890544074231 l1.1576279248560206,1.0272913102153136 1.6138316584060903,1.865286459409008 l1.4178471593505662,2.901353074564313 m-9.48064603042777,10.55982782062585 l1.6733459776140776,0.4044611274349512 1.2812399305300055,-0.33298999648529964 l9.780252980434826,-7.16983519565811 m18.351726916996327,-11.46550568384589 l-0.1292683840453176,0.9958663554310404 -1.194004102424308,1.7641960769236404 l-3.9160798793134792,3.8436464745135694 -3.1298250592580423,2.4271920587974947 m-0.6080372696399556,3.5399030428805065 l3.1206071482968434,1.9344744695109923 9.589261282178501,8.087165523634331 l2.1691753695992406,0.9964175401890963 1.7245937276121248,0.48697818715557156 " fill="none" stroke="black" stroke-width="1" /></svg>