<?xml version="1.0" encoding="utf-8" ?>
<svg baseProfile="full" height="111.90407599398267" version="1.1" width="91.91330078668848" xmlns="http://www.w3.org/2000/svg" xmlns:ev="http://www.w3.org/2001/xml-events" xmlns:xlink="http://www.w3.org/1999/xlink"><defs /><rect fill="white" height="111.90407599398267" width="91.91330078668848" x="0" y="0" /><path d="M25.49343448497138,25 m0.0,0.0 m30.293528691048827,3.697271508085016 l0.0036440111466842133,0.44870091302794224 -0.4645744213864937,1.1351913487382088 l-1.9942622436731066,1.9092939155190651 -5.80729586806559,2.2675890854139458 l-7.043520419178216,2.3221034033769357 -10.93529812340463,2.8312696236313526 m0.6257772490530459,-10.00923703850249 l0.6041045710229428,1.66527472411799 0.07441655166061885,5.55580529414264 l0.041312179961669505,1.5800517037497315 0.4422432644749453,1.9476789669566137 l1.2953991839436354,1.0600678070976726 2.4030428854767076,0.5948558159694748 l4.298137766673819,0.380630318205073 9.01885435841463,0.08291927928918721 l5.775560268380789,-0.1908066264987628 4.147915745488544,-0.5129635572505612 l2.1752710057772804,-0.7830886506773439 1.3406800327955921,-1.11077867410843 l0.6822959323631456,-1.458670024171202 0.18648440292139898,-1.9509506760647626 m-25.806001953488636,11.317603611109146 l0.7050374546214496,2.0342731741427857 -0.008193711017338673,21.513796630754744 m0.546911718086537,-22.188590161995663 l17.877117671962043,-1.5044631575976435 1.4344640689603252,0.034151300182047484 l0.4994511365589447,0.2565000294174035 0.3345886419457015,1.0852231323725265 l-0.08237128112001761,21.05405907562835 m-20.65832745382912,-14.167089245803627 l13.616446116168898,-0.9778266791579157 m-13.715081215266338,7.838302591158944 l13.556851539630635,-0.9939351933380944 m-13.298822930177664,8.155944447359195 l20.590739138545175,-1.3858068065963396 m-32.35313030436048,-14.186965932605382 l0.6724345660647163,0.9187785962268008 0.3443363945501966,1.3111046897162277 l-0.6953976401367301,18.349782149890185 0.2558342305835191,0.3805280106642698 l0.8985049725978529,0.3720055378132351 33.43643254936366,-1.7710996679546267 l6.104325566577532,-0.08028699053420359 m-28.939782457451322,4.9554453938701215 l-0.09977997004919086,0.7771703533106126 -0.7064267318227792,0.8754753057519225 l-2.9192812530959613,2.264560676019432 -4.090012251940792,2.2262259107979667 l-5.1580181223284365,1.977000753332978 m25.95884824810513,-8.752506607875556 l3.4362615112657426,1.4015501609206378 4.223952419614479,2.3986272617082594 l3.511090732804548,2.5899624672989106 1.6053455084493253,1.8400230926180965 " fill="none" stroke="black" stroke-width="1" /></svg>