<?xml version="1.0" encoding="utf-8" ?>
<svg baseProfile="full" height="110.21476835650671" version="1.1" width="98.90799720676206" xmlns="http://www.w3.org/2000/svg" xmlns:ev="http://www.w3.org/2001/xml-events" xmlns:xlink="http://www.w3.org/1999/xlink"><defs /><rect fill="white" height="110.21476835650671" width="98.90799720676206" x="0" y="0" /><path d="M25,25 m0.0,0.0 m27.56769870442063,6.12772340140274 l0.398646839012019,0.4037286177600813 0.5513687797344242,1.5107333777841307 l0.0023248585911125994,5.459800827592329 m-19.740805791498726,2.020134076090875 l4.1823112642523625,0.14989231115192464 29.448509049350236,-2.694903900146277 l3.944760892033338,-0.1453952853571112 2.5531826108666658,0.2650185501656217 m-32.54267182270954,3.573818667372841 l0.5853539166068533,1.1010911638378489 0.14554880980243398,3.2344140034008593 l0.5000552565565225,1.4455746816548287 0.9671913542789081,0.9297090976119463 l1.924755399236423,0.6851878862294364 4.369615812375631,0.6805944420135943 l8.696448482383747,0.14565984613167499 6.801543775793985,-0.2657794338451221 l4.855806222115293,-0.6437091498877796 m-27.89530231435909,7.550791773208607 l0.4524676024809174,0.9504412508751093 0.09995446277970155,1.2606313648319822 l-0.015277317872958843,26.46961078662656 m0.2944945271945994,-27.814433355722844 l22.081190407718697,-1.9588949946778436 1.2621645494841873,0.05524855532634005 l0.9613902841685845,0.48031711396550353 0.5423400890877738,1.9179895327540242 l-0.03704019976977424,25.72488630888832 m-24.392725514495783,-18.189627690034072 l23.623862150208872,-1.7042600990679362 m-23.614433040276214,10.28326160451646 l13.950395016431463,-1.3466954787303522 9.679046253770302,-0.6169756039975238 m-23.69792450135919,10.948402199813208 l23.76178947325079,-1.6401808411355328 " fill="none" stroke="black" stroke-width="1" /></svg>