<?xml version="1.0" encoding="utf-8" ?>
<svg baseProfile="full" height="124.85382059561644" version="1.1" width="92.65883887686635" xmlns="http://www.w3.org/2000/svg" xmlns:ev="http://www.w3.org/2001/xml-events" xmlns:xlink="http://www.w3.org/1999/xlink"><defs /><rect fill="white" height="124.85382059561644" width="92.65883887686635" x="0" y="0" /><path d="M25,25 m0.0,0.0 m12.715937147766954,11.012015087420243 l0.4453357578198455,0.14370606449015205 1.473830397831926,0.12809127062077616 l9.100258546024767,-2.424701715669706 1.1920264664441338,0.0884136613314674 l0.3880010741087851,0.4286446585875382 0.07627304664000571,0.5821721678387248 l-0.3544208905576313,2.328755192666049 -1.187206148725773,3.7068549620611813 l-1.1173294877657929,3.0292633424608417 -0.8775192980122942,1.875328176962251 l-0.5170332035912182,0.5572538304565317 -0.4462308019009767,0.08991791940547579 l-0.8906067181544128,-1.2854950929649445 -0.5248262343065833,-1.4182734214873396 m-0.06717611534700584,-16.43122205155699 l-0.006829527421416282,1.5506896045038 -0.49423449402725783,3.442404989307302 l-0.7693691049749191,3.404368994359111 -1.0334844575862507,3.328250375643386 l-1.0980349412411563,2.6497807232218142 -1.328908913401371,2.5033800520766656 l-1.5593772496464737,2.350903874431257 -1.3318170663576983,1.5725015381826541 m16.8090354327479,-16.531652912117597 l0.9601488441956704,0.35613798076239855 1.2588269546063875,-0.01191221131549413 l8.417313798681496,-2.115956410772253 1.0056221554996798,0.09810992060100016 l0.4164525941532769,0.36354596380958876 0.3556821087430917,0.5644558267104425 l0.07004238231208039,0.7305664949149421 -0.44248972161641936,3.3886810368895617 l-0.8720114848789574,4.114903283877319 -1.0547138455763487,1.7038926373870689 l-0.7810093266691879,-0.06836352915617198 -0.7416138045787809,-0.9751532784756928 m-2.627807060646891,-10.111278427110372 l-0.18968463599487387,1.7897728485529936 -1.2248015977862463,3.3177036506738298 l-1.446299172774036,2.6271859463652727 -2.1247702314162584,2.4585165636186783 m0.16071285887855022,3.569167085318546 l0.33777490947736893,0.8908627558849702 0.1405172678706737,1.1800306778607537 l-0.4276672584954753,16.37164700961238 m0.6122608386088441,-10.522995451145746 l5.14783114549062,-1.263449311257933 1.5358617677199986,-0.12164846176228171 m-14.063058505033652,-0.48493524496450613 l0.4144069340748663,0.5547646802184364 0.3344725056742798,1.1534879453352997 l0.09866428078069826,12.535933150147596 m-6.609478075928961,0.41489413415953996 l1.403408192780188,0.39458788040418974 1.2352763725846578,-0.0698667287329486 l20.346900703469498,-2.10955248442138 2.4157737662944445,0.2335826173914281 m-20.899839836926866,7.562938330836979 l0.28929854866637295,0.9233409595738168 0.1486150424227186,1.3582579444257747 l-0.019035472873056784,15.787449136343021 m0.4372935741944962,-11.262662277416853 l10.019387702814123,-1.5879844520921198 3.021462789359984,-0.07022934227777136 m-19.74734084460527,9.272598142150873 l2.4374018031527847,0.3508939345477376 17.644580962686543,-1.9679216297303226 l4.129697351270477,-0.11226941534428651 2.0034247389828748,0.360697951891323 m-13.804919902649335,6.5098533382945565 l-0.357737673219341,0.7636591536198779 -0.43877798440470034,0.8590363829032062 l-2.085865688465885,2.833052558586869 -2.3323095239251623,2.567056631572416 l-3.5370614968251095,3.0673834041192265 m15.088901766083522,-10.489826344630565 l2.3380172839086923,1.8082849489333732 2.536055364205266,2.666138975915372 l2.11104028526937,2.7791327038840734 0.987640731069838,1.9252459125402657 " fill="none" stroke="black" stroke-width="1" /></svg>