<?xml version="1.0" encoding="utf-8" ?>
<svg baseProfile="full" height="111.91252923513898" version="1.1" width="110.26959404843903" xmlns="http://www.w3.org/2000/svg" xmlns:ev="http://www.w3.org/2001/xml-events" xmlns:xlink="http://www.w3.org/1999/xlink"><defs /><rect fill="white" height="111.91252923513898" width="110.26959404843903" x="0" y="0" /><path d="M27.603558795000545,25 m0.0,0.0 m12.144475378286286,9.740514967042225 l0.08700269725146513,0.4588094646365132 -0.1213112433065915,1.84473616884299 l-1.0111925111750746,2.3368104688523297 -2.028784770417531,3.709275400471735 l-2.6478830979873234,3.464802689294991 -4.936022718837045,0.9959402419620661 l-4.089842528814729,0.6064572193232609 m18.38716228257641,0.9325378755573516 l-0.16427298295493262,0.2775040121557885 -0.4515328871661847,0.8622609054158988 l-5.299923760707044,8.877122665497945 -4.434206447164177,5.306474430609696 l-4.620004385191532,4.297956901233322 m8.395023818701857,-7.393199416176257 l0.6945182601955547,0.8996378548412062 0.1254942491478901,1.0006831244674859 l-0.06924913332727667,23.694204261110432 m21.645141788060382,-49.193742804489204 l-0.10764433033150425,0.9434974283824423 -0.5875154845850673,0.9447539163140062 l-2.9806429755702673,3.0750063797270486 -3.307608679100311,2.492930048659109 l-4.083767997757652,2.4307420822349504 m-1.59165811337545,6.981570575117699 l2.553588990244927,0.19779887405179608 2.1459676199318567,-4.449900712100114 l6.505389358129597,-7.173772482946254 m6.122214751646899,-4.060169947337159 l0.034878788810260665,0.9305006196878971 -2.693482324741573,3.8244093177908227 l-4.496208561314326,5.593440828582761 -4.77650906116646,5.303962957347707 l-5.782460610790637,5.375623177510264 m9.435433960286082,-7.48909040731006 l0.44134597012423404,1.6088005720461798 -0.03947247226045313,22.05569268909186 m9.478373798737348,-31.044020975487133 l2.7650999399298386,1.8475894429679065 2.0601565597943194,2.559995786074163 m5.480831273292215,-6.874651814412266 l0.07444722936471616,1.5110201866559982 -0.2908963968418074,1.205509144609997 l-3.605232938127967,9.224623074646248 -3.0968520590249553,6.913398055193803 m6.4642969978420295,-9.773186833150213 l2.097122115829254,1.7173802053697576 2.0185500607125793,2.6076104341912254 l2.105206485564006,2.7822921701336187 1.4590155473264343,2.5247724450368336 m2.2594758036899227,3.7900137272101264 " fill="none" stroke="black" stroke-width="1" /></svg>