<?xml version="1.0" encoding="utf-8" ?>
<svg baseProfile="full" height="110.91067946211415" version="1.1" width="89.06007519080512" xmlns="http://www.w3.org/2000/svg" xmlns:ev="http://www.w3.org/2001/xml-events" xmlns:xlink="http://www.w3.org/1999/xlink"><defs /><rect fill="white" height="110.91067946211415" width="89.06007519080512" x="0" y="0" /><path d="M25,25 m0.0,0.0 m25.6905755054668,2.829117120831295 l0.33101440337523974,0.4204252603517234 0.36679247400490317,1.442818801660113 l-0.04315000801821419,4.411664917056728 m-12.417764926570914,1.1774825859679687 l2.9679910477713043,4.64125793655477 1.248239127312062,3.4200841151969943 m14.301160477677769,-9.546908153627562 l-0.08140059510163654,1.0386802582898884 -1.0476401058848732,2.5172867987726004 l-3.3781102060071966,5.579066702899085 m-20.416468497469527,4.520573807912265 l3.810305723354309,0.16754764736525632 11.018169146130143,-1.633652176537609 l7.825781247168548,-1.1014362416897305 5.131584917552947,-0.4462350053624529 l3.75299546004346,0.06337928827276852 m-16.713219842005913,2.960223765670025 l-0.16596659142896228,0.9290052627130533 -0.8760407165999945,1.479849687306224 l-5.67563084608814,3.5580427113399713 m-2.0600519228475966,0.47360485734143143 l0.4661248418321787,0.8831162380376115 0.20714436775530332,1.195448097831347 l-0.04225301901503611,18.790179387807555 m0.37710046926999014,-19.713406936544345 l15.754148214074997,-2.32214918712604 1.0927202719713724,0.09522881249063794 l0.4324319155180793,0.3336666214149195 0.4871679193987799,1.8301804162119895 l-0.02706730857087139,19.21136360594818 m-17.152698130387343,-13.079653729199967 l16.472058755294388,-1.802312822580926 m-16.454031845412292,8.213580703804656 l16.318458336095514,-1.881030367535509 3.40787833438192,-0.033088173944922715 m-19.18475772413697,9.007158712408717 l11.441067735990135,-1.3684308441297621 5.6276149662042725,-0.47086169814885065 m-14.610802921015548,5.2185691380652965 l-0.4093962578003223,1.4556884367384209 -1.1668412676508624,1.036792568774958 l-3.598899489375221,2.856900290639402 -3.740864518678855,2.5518602428659776 m20.080376675761425,-7.333973039167853 l4.754638091240985,3.359636103376608 2.1805201907009466,2.0061350429245075 l1.2065070392464639,1.4144677882426138 " fill="none" stroke="black" stroke-width="1" /></svg>