<?xml version="1.0" encoding="utf-8" ?>
<svg baseProfile="full" height="98.78645156601984" version="1.1" width="96.4502914903174" xmlns="http://www.w3.org/2000/svg" xmlns:ev="http://www.w3.org/2001/xml-events" xmlns:xlink="http://www.w3.org/1999/xlink"><defs /><rect fill="white" height="98.78645156601984" width="96.4502914903174" x="0" y="0" /><path d="M25,25 m0.0,0.0 m12.13354595135702,5.718539983822986 l0.08228077974788771,0.42849854214375344 -0.0888948237428083,1.213979950905744 l-1.359575646465453,2.616132513845551 -1.9364767398455776,6.272790497590883 l1.9850530114696485,1.3124074992308836 1.8929633489306013,1.3515761055129971 m5.426969800493869,-9.92611231728651 l0.043800396151883206,1.1443936427523127 -1.0864000022490123,3.288911528759715 l-2.845613561684268,5.858295023767479 -4.6939843377770085,7.811404554737418 l-0.25256864826450803,0.7915376905223406 0.1591962108420463,0.5944329241822788 l0.39235323071227124,0.2075855493886611 0.5953709631490423,-0.09982499070535447 l7.412287778036234,-2.9050140540539426 m-1.197094874290284,-3.882863565188235 l0.8448890869676066,1.3183323129397153 0.9376697098480585,2.0055434512667127 l1.0957512851922118,3.517136134570664 m-5.841413566127474,-0.06743968090572658 l0.3643655942192442,0.749373138869089 0.126594908231342,1.0614163084728356 l-0.04435886992147496,18.40541882087758 m-3.749219340991312,-15.432811839239973 l-0.02381322347369547,0.9928008061431235 -0.7447158275807009,1.9535987197774545 l-1.4567812918450396,3.373523408767356 -1.6529007842044796,3.161697163516724 m11.070398164923402,-10.394101191933544 l1.3310603321341348,2.518928451850292 1.2728277589824548,4.864694203008108 m8.799942032659326,-34.62701152749127 l-0.09129336198853966,0.7965663912380303 -0.2820557508305353,0.8091384443971525 l-1.9491763860277358,3.3595684943887676 -2.0713592983568083,2.7106192487452687 l-2.52625017477819,2.4517688270635376 m10.975902966368313,-12.690742655956779 l1.0090668319397533,0.624828861567242 1.4917761932415745,1.2960870150404904 l6.531183739017431,7.987560194857295 1.8763775842918073,1.6408909913352598 l1.5291402074531986,0.9549098581619343 m-11.947856628179007,-0.4081275467783114 l0.0100231055271353,1.0593873338028645 -0.2591952796791326,1.1274841739771335 l-2.418643548291889,4.813772442975324 -3.1857663000812333,4.247016790603853 l-0.39050034825734836,0.8206926751640284 0.033966209420653856,0.6078507296093283 l0.4061261853600905,0.25471858628656996 0.66278808043619,-0.04678973027020071 l10.95616457292981,-2.874887332725914 m-1.394953658251018,-3.565925413567684 l1.2512866881668545,1.3842655169723024 1.3114554183561888,1.9264242170104395 l1.0881840954862159,2.132558139943991 0.5922768685518884,1.7985480300207457 m-16.762962606631593,10.573066761481737 l-0.6526732689706788,3.792311802624974 -1.230703209581461,3.6680804279803785 m5.12866812343929,-10.84719234726796 l1.9199031829344564,3.9550486366613673 1.9401491760344065,3.1143422255108812 l2.031444047361508,2.362256208154364 1.897933361135105,1.4851228228306463 l2.2287653765194815,0.838574473090667 1.9561165516449945,0.3648950262132046 l2.1330646751567532,0.10534335287692796 1.622441754728853,-0.28432189020335746 l0.40277343199732973,-0.3670312945058827 0.04340874801275171,-0.5584672509857044 l-0.2740367895739118,-0.7112278297390415 -1.4383296180218836,-1.4192056917212996 m-7.996699945567441,-10.340276341805492 l0.6790571919999947,2.0999555725502685 0.4280094276589565,0.7589482401344891 l0.36520051230545736,0.11690150947874382 0.3163453453957758,-0.2975800964021254 l0.24927331042778797,-0.8087407395583046 m6.014394571999027,-1.327186238874973 l0.9439951028484596,1.012588633271559 0.857676893387726,1.246383863293996 l1.4448993262654144,3.2452446246936986 " fill="none" stroke="black" stroke-width="1" /></svg>