<?xml version="1.0" encoding="utf-8" ?>
<svg baseProfile="full" height="109.94576568504687" version="1.1" width="101.47069276050803" xmlns="http://www.w3.org/2000/svg" xmlns:ev="http://www.w3.org/2001/xml-events" xmlns:xlink="http://www.w3.org/1999/xlink"><defs /><rect fill="white" height="109.94576568504687" width="101.47069276050803" x="0" y="0" /><path d="M25,25 m0.0,0.0 m30.955533938030666,3.405568115337195 l0.341037214555399,0.2965699459271974 2.338584459452271,2.420772939780814 l1.1838519479464624,2.627720217379802 m-19.33557921433697,4.868562505802195 l3.096957470554077,0.37865180919517805 26.958002012932567,-3.4740790115713525 l4.047946145146391,-0.25217828830865774 1.884358786227169,0.44105199506574694 m-29.244721425701837,3.6003452534581406 l0.5291642554403907,1.2799458959308312 0.16421040005443263,3.4953476980993563 l0.45901210163665607,1.4745440628484265 1.0269738163272244,1.129733895669416 l1.9963603343172744,0.7200379689485157 4.41709346406823,0.3595613815060451 l7.000582264677762,-0.07398664060703576 6.938258214034754,-0.36114256300596537 l4.275674000096298,-0.6609522054545822 m-25.537556244611984,8.469594971737651 l0.32564699264112523,0.9739859758119758 0.1210936673955101,1.202798384092968 l0.023634216726160923,27.623311377403013 m0.22309534162450045,-28.7206725152528 l19.957722694722502,-2.05468280784965 0.9889385201252868,0.05017210818800397 l0.9998285509369826,0.6276534312010463 0.46416388476019343,1.686646619433926 l-0.1732928298744573,27.288268295759536 m-22.358579975978767,-18.739615849458257 l14.599811503698975,-1.3845842475561365 m-14.739855195547992,10.284216180047649 l14.519448950945801,-1.4160298734450878 m-14.622448701421712,11.162889275973459 l22.14374089402068,-1.6316356589991823 " fill="none" stroke="black" stroke-width="1" /></svg>