<?xml version="1.0" encoding="utf-8" ?>
<svg baseProfile="full" height="104.24365623903427" version="1.1" width="102.94002756006148" xmlns="http://www.w3.org/2000/svg" xmlns:ev="http://www.w3.org/2001/xml-events" xmlns:xlink="http://www.w3.org/1999/xlink"><defs /><rect fill="white" height="104.24365623903427" width="102.94002756006148" x="0" y="0" /><path d="M25,25 m0.0,0.0 m32.31577952200143,6.690485586774013 l0.3969874892823264,0.3782363367661736 0.5522368999337472,1.561812921586469 l-0.01340260807396403,5.66611351531345 m-18.448062951040345,1.8068169312815123 l1.8000518978865923,0.19708959267422638 2.356685733759436,-0.07531481230493854 l28.954745613382954,-2.3958900936298213 3.1083301227943747,0.2295743461039883 m-29.996509182580063,3.2147095858072343 l0.5444024910592404,1.18720313921857 -0.036717787757757185,3.175653290812258 l0.15691829966592677,5.855160732471065 -0.36209506873378333,6.232599411046343 l-0.6223690453086612,4.028841880168362 -1.042470690394266,3.6275315966981734 l-1.5271611529284417,2.7340141855185363 -2.2410061360458866,2.2590917722787776 l-2.530018141439874,1.7102649116547832 m31.061161260330802,-23.52974408620182 l-0.2726849802857072,0.912511664964838 -0.6669214524069559,0.9747356677225939 l-2.8529114147017345,3.3538277098233618 -3.0920557003253157,2.673208106595779 l-4.992057682185218,3.529051918634825 m16.35420452616802,-0.6142144978730358 l-0.3115936070969407,1.161506576583026 -1.1485074146774341,0.8575543673475642 l-5.601109084793814,3.11493312448896 -6.3816173778676815,2.7503132240511383 l-6.917979706084344,2.4482982884223645 m24.395774888524837,-3.246830269142862 l-0.3663590831683716,1.1690328397342657 -1.3630277488132183,0.9803292237289435 l-3.262905211300604,1.9161975914577911 -3.6981777384997963,1.773230081860666 l-7.590633050111273,3.108045753797186 -9.137312051629275,2.827674122799493 " fill="none" stroke="black" stroke-width="1" /></svg>