<?xml version="1.0" encoding="utf-8" ?>
<svg baseProfile="full" height="100.3223340517608" version="1.1" width="115.229632978925" xmlns="http://www.w3.org/2000/svg" xmlns:ev="http://www.w3.org/2001/xml-events" xmlns:xlink="http://www.w3.org/1999/xlink"><defs /><rect fill="white" height="100.3223340517608" width="115.229632978925" x="0" y="0" /><path d="M25,25 m0.0,0.0 m29.402650981004037,2.9851427742054173 l0.04158739843115371,0.4421742754801432 -0.4594858670450455,1.814571335687354 l-1.9705045729199826,3.7065584196372328 -2.3202670383630335,3.1741613758119156 l-2.753063993366068,2.9719197985892367 m7.0246087750060555,-6.0513425032637125 l9.697698988526579,-1.4110568540014714 1.9859466418158127,0.004626376226015258 m-8.451192265161232,2.7384269188238513 l1.656045382443696,2.3720437471006117 1.1594170497452956,2.8129642302497464 m13.590065299701312,-12.985448548314587 l-0.1523100087252559,1.0519083899894377 -1.404124505239862,2.543485843329419 l-1.8631971794879756,2.551584636506572 -1.9008699318994011,2.0600419972776045 m4.703321344451867,-2.6251216494354783 l12.975599764731209,-1.6766266814989612 1.8992797652557964,0.05788104970239524 m-8.742900225948068,2.6929168168808704 l-0.10790993109155621,0.8275008622182891 -0.9487264210536663,1.9446737215509737 l-1.1957825012862664,1.7119001424611748 -1.176293282224952,1.2720873877755978 m-9.880172992603311,-1.4501026841709477 l-0.2274124479300692,1.80618334232371 -1.0060190847164998,1.993295932540231 l-2.2043606548703734,3.31326294281608 -2.4432620691498284,3.019541547388147 l-4.917190659741088,4.895395883969258 -6.745568212078768,5.203165076078111 m18.388784425574016,-19.042241652218003 l11.834499451144348,9.339152427674355 6.5751778047922675,4.600783181319113 l2.6700858334490327,1.3240035132633872 2.4954779177548385,0.6867444770644371 m-29.816987954938725,-1.5779310756018776 l1.883483281832851,0.19059682883757742 10.880325850960805,-1.3560259480351036 l2.3158246252810675,-0.06656616426482173 m-18.19003540001236,8.666619200963833 l0.6854478406424352,1.0944207914789668 0.3904548683070719,1.7198309526638018 l1.6121547698233742,10.975231614680887 m-1.3370283249597015,-13.022110655045083 l18.403574525377852,-2.0080013301103916 1.321311243128704,0.24806824898530547 l0.8535095201204493,0.89105616957628 0.14093947401906468,1.0357535556273685 l-2.4785569831138186,9.333350128778939 m-16.312252273337844,1.734632719922379 l17.293893699873404,-1.0943032399061905 " fill="none" stroke="black" stroke-width="1" /></svg>