<?xml version="1.0" encoding="utf-8" ?>
<svg baseProfile="full" height="109.49251439538784" version="1.1" width="102.03156435396522" xmlns="http://www.w3.org/2000/svg" xmlns:ev="http://www.w3.org/2001/xml-events" xmlns:xlink="http://www.w3.org/1999/xlink"><defs /><rect fill="white" height="109.49251439538784" width="102.03156435396522" x="0" y="0" /><path d="M25,25.000001713633537 m0.0,0.0 m13.886144161224365,6.201872825622559 l0.5642081424593925,0.13662190176546574 4.141218066215515,-0.05159909836947918 l27.768027782440186,-2.0810119807720184 2.242276519536972,0.2267719991505146 m-18.409069776535034,-4.432657361030579 l0.4556700959801674,0.3575744107365608 0.513874776661396,1.1667051911354065 l-0.1207604818046093,9.660680294036865 m-12.434730529785156,0.7259076833724976 l4.747828841209412,0.013794699916616082 16.006044149398804,-1.4861489832401276 l5.459496974945068,0.04668937064707279 m-33.19303274154663,6.435074210166931 l0.4730740934610367,0.486048087477684 0.5943488329648972,1.912548542022705 l1.3370278477668762,6.764485239982605 m-1.1986654251813889,-8.10080111026764 l38.12582015991211,-2.703266739845276 1.0157645493745804,0.7426789402961731 l0.05699831526726484,0.5996491387486458 -1.2677279114723206,4.444049000740051 l-1.239960491657257,3.1444400548934937 m-24.646687507629395,-7.103390097618103 l1.1729548126459122,7.2853416204452515 m11.705657243728638,-7.933722138404846 l-1.0434924066066742,7.15433657169342 m-22.07468271255493,1.6201601922512054 l35.1875376701355,-2.352278083562851 m-30.05397319793701,6.73379123210907 l0.8747915923595428,2.151775360107422 0.002867715375032276,11.121355295181274 l-0.2621190622448921,6.694236397743225 m0.8556471765041351,-19.15839433670044 l19.239245653152466,-2.0738327503204346 0.83476223051548,0.02893425989896059 l1.1322135478258133,0.542057529091835 0.38581646978855133,0.9451989829540253 l-0.45365773141384125,18.33977222442627 m-21.689894199371338,-12.14107632637024 l14.367846250534058,-1.3674452900886536 m-14.196654558181763,6.971752047538757 l14.199185371398926,-1.2248506397008896 m-14.459929466247559,7.953974008560181 l21.768372058868408,-1.3998258113861084 m-17.943273782730103,3.6301714181900024 l-0.09311174973845482,1.0160809010267258 -1.9837470352649689,1.5870924293994904 l-5.498418807983398,3.1645336747169495 -5.715811252593994,2.735286056995392 m25.396010875701904,-8.440022468566895 l3.3491748571395874,1.603863686323166 3.7222549319267273,2.3910021781921387 l3.028940260410309,2.4622006714344025 2.136111706495285,2.3443275690078735 " fill="none" stroke="black" stroke-width="1" /></svg>