<?xml version="1.0" encoding="utf-8" ?>
<svg baseProfile="full" height="106.6929115546574" version="1.1" width="101.18793959793149" xmlns="http://www.w3.org/2000/svg" xmlns:ev="http://www.w3.org/2001/xml-events" xmlns:xlink="http://www.w3.org/1999/xlink"><defs /><rect fill="white" height="106.6929115546574" width="101.18793959793149" x="0" y="0" /><path d="M25,25 m0.0,0.0 m31.557912533804735,13.995374356112233 l0.2901305739710319,0.3409588255762598 0.5561358481672042,0.8737232359714281 l0.22097646002110402,0.9861231306577181 -0.02405150082127501,9.247835589935068 m0.9892857682175324,-6.743196982235938 l11.114732707703283,-1.4045990101344612 2.5123958422676242,0.00731900024001277 m-28.550436666233544,8.449148821680831 l0.6777712733050887,0.8080893076486685 0.19599369302018863,0.9353550859140766 l-0.06863531968046359,19.47985847861328 m0.5626827835779585,-20.584526298213774 l23.956305684839567,-2.131902319846201 1.5419860337915736,0.09066175712003323 l0.5328999474738579,0.3098723155293963 0.4621109750749766,0.9832057904104033 l0.023278408667273376,20.837056572403068 m-25.948927354552193,-13.677836305935262 l14.166428810115729,-1.323816391909327 11.169395022555108,-0.7866436377983197 m-25.222398581728942,8.881124374790268 l14.000470800639802,-1.2565336007123384 10.710749221350323,-0.6695563260330186 m-24.78410603089497,8.622401662732859 l24.84264879322638,-1.3075095613974588 m-21.574004225544122,4.259636537513631 l-0.39164835321119595,1.2080976964920556 -1.430954243139077,1.0086893744686056 l-5.110419528422405,2.7379403950170733 -5.314026181508218,2.387298172296329 m26.726410196664478,-6.785556471789933 l3.662693694998318,1.4250413470501788 4.186410381334769,2.0617869544424434 l3.303004793499537,2.0304731781034637 1.6447373353804433,1.3975164999440508 " fill="none" stroke="black" stroke-width="1" /></svg>