<?xml version="1.0" encoding="utf-8" ?>
<svg baseProfile="full" height="108.53384435689841" version="1.1" width="100.18856981553637" xmlns="http://www.w3.org/2000/svg" xmlns:ev="http://www.w3.org/2001/xml-events" xmlns:xlink="http://www.w3.org/1999/xlink"><defs /><rect fill="white" height="108.53384435689841" width="100.18856981553637" x="0" y="0" /><path d="M25,25 m0.0,0.0 m27.930815951281048,4.091123220383236 l0.41465136031129346,0.4270419532172133 0.6220822173185754,1.5984387123767165 l0.03374126697392802,5.537786224640962 m-20.25270641391514,2.17566176383246 l4.336629689748888,0.1609196004593793 30.660582716459047,-2.609581073049382 l3.5996720323908638,-0.13928856246360297 2.8431009949678647,0.2754489256183219 m-33.13045371714635,3.3502542601927607 l0.661449369023559,1.0954036308378619 0.20017225558940513,3.0895800815852623 l0.42233492689399466,1.3996107724632119 0.8480627315538798,0.8925287170735846 l2.090922566635218,0.767042701154004 4.6259336231292885,0.5963102576355498 l7.833616665867483,0.12693450090501196 7.273612467238571,-0.271335074698612 l5.488532291675348,-0.6640514837411315 m-28.51639467234448,7.820128627357896 l0.2850369719563965,0.9505437119536231 0.05659128685144167,1.2894978247032358 l-0.017004270819312647,25.568703449134144 0.16839570820235947,1.005141615326703 m0.8604767152880988,-26.0404560950009 l20.290607977929163,-2.312124612483157 1.3373136088530528,0.07129796433790367 l1.0072542298700877,0.5681670115449714 0.3338459760507179,0.5302539400570653 l0.17525888360781194,1.2837885313239132 -0.404287252912061,25.293687181847986 m-23.0357027266512,-17.133108330012544 l22.24255260223262,-1.69652411833439 m-22.757117875790026,10.166574718589553 l13.64348667724154,-1.4739308429506122 8.894529277325887,-0.6154892182172994 m-22.587238237840754,10.855942334206379 l22.427038341073903,-1.770225053766663 " fill="none" stroke="black" stroke-width="1" /></svg>