<?xml version="1.0" encoding="utf-8" ?>
<svg baseProfile="full" height="98.90458602555795" version="1.1" width="99.38257273388868" xmlns="http://www.w3.org/2000/svg" xmlns:ev="http://www.w3.org/2001/xml-events" xmlns:xlink="http://www.w3.org/1999/xlink"><defs /><rect fill="white" height="98.90458602555795" width="99.38257273388868" x="0" y="0" /><path d="M25,28.251347543308995 m0.0,0.0 m18.812317907518683,3.712658123793541 l-0.02908968605813757,0.555934480111061 -0.3852578210127966,1.5239608839486325 l-1.3138590791532807,2.819157755024653 -3.44428132211155,6.404846578725971 l-3.9717591231945746,5.9864939524497895 -4.625335339884567,5.596975231250272 m8.363114719914957,-10.324666709168136 l0.5028547548918174,0.8598155392216522 0.1481934294946772,1.0813025177560542 l-0.040164190375261165,27.436760129135454 m13.074778957870882,-38.570526184657254 l3.028863886122135,0.03368169673299273 15.238072580570547,-1.5874074650126835 l2.4106440467354506,0.06330389059083885 m-22.656170668463233,-6.617047760941716 l0.6244738742900576,0.8079917439405182 0.25509405919732253,0.9805775712391714 l0.871242528849898,15.097633113433977 m12.068596973029857,-19.112792630883792 l0.4877611522417812,0.9275557980699602 0.05932912779453764,0.9359905171277653 l-2.699992983013908,16.608510200702426 m-20.67231134063931,2.22127731250201 l3.668424168650465,0.1939098968320118 11.987601159422821,-1.313755804211511 l11.444849598995898,-0.9519294912452942 3.8982959229512493,-0.17512110218005814 l2.2762854392522605,0.23805502194664457 m-26.92824488022005,7.685579751486109 l0.5573980844070905,0.8030438526435743 0.21317529874058344,0.9208875203137087 l0.010377258320541176,17.583321972841805 m0.39743311274460996,-18.698874690735803 l15.433413217584487,-1.8219945140463094 1.3327548374301057,-0.0029523806604897776 l1.012565613843027,0.4147748832744541 0.30726151961680276,0.3694021690328956 l0.24479474558079337,1.201173139518954 -0.10044246635069619,17.91757655844247 m-17.76750215254032,-9.739276612079754 l17.110082985747884,-1.7299543845395184 m-17.117576645022954,10.980956014746027 l17.06663191614014,-1.5575730048294192 " fill="none" stroke="black" stroke-width="1" /></svg>