<?xml version="1.0" encoding="utf-8" ?>
<svg baseProfile="full" height="124.13329810250167" version="1.1" width="104.68635627004869" xmlns="http://www.w3.org/2000/svg" xmlns:ev="http://www.w3.org/2001/xml-events" xmlns:xlink="http://www.w3.org/1999/xlink"><defs /><rect fill="white" height="124.13329810250167" width="104.68635627004869" x="0" y="0" /><path d="M25,32.337061204457086 m0.0,0.0 m13.353679965227702,2.6757404343620284 l0.46888915547399795,0.13252530789827097 1.9415602128372105,0.18722851128954698 l27.7206879897017,-2.8145132314991677 4.450802353717535,0.28791959993266436 m-19.326699600914676,-7.8059618264404325 l0.7439945158122635,0.8517043380594538 0.4166980116149276,1.422781633954437 l-0.05757382230055446,16.286145807326797 m-13.923690069602559,1.8616764860049595 l3.657598012635954,1.445122636269968 2.312804771508646,1.003585454387325 l25.05051043153188,0.9484344512060455 -0.7441014865837327,5.612861837337426 m-29.219863576796467,2.8033510870508382 l2.339813727407293,2.0580293365730418 1.9956713227339997,2.3506528523363923 l1.54307304798094,2.2537912430591613 0.7095031984227375,1.6952105581025048 m19.833586443452454,-10.129033945169319 l-0.05608784679838891,1.087912115210102 -0.8942022712012535,1.9114629855728045 l-3.568910955554606,5.272715470119336 -3.2621168330108063,4.193424109228723 m-27.682107389773364,3.4579368114573743 l2.320080343942462,0.30559964691218927 2.1678316342833917,-0.027802425566519375 l32.5791263453639,-2.523925543381429 6.22617717864078,-0.1815578561513061 l3.589621460295335,0.2961854331888868 m-38.853691771987236,14.168865775500212 l2.160550972939922,0.36031219069131043 2.4100483583911574,-0.06748801301485707 l23.44714747203771,-2.553839771388149 4.370814930427554,-0.11112378875127012 l2.6673983696422843,0.3366885318273239 m-18.510284872839314,-10.047268333630674 l0.6293106525229156,0.8506992721116793 0.3504510402330358,1.5673555406362971 l-0.10465499362595299,25.372832175430606 " fill="none" stroke="black" stroke-width="1" /></svg>