<?xml version="1.0" encoding="utf-8" ?>
<svg baseProfile="full" height="108.86298863240484" version="1.1" width="96.51341492435519" xmlns="http://www.w3.org/2000/svg" xmlns:ev="http://www.w3.org/2001/xml-events" xmlns:xlink="http://www.w3.org/1999/xlink"><defs /><rect fill="white" height="108.86298863240484" width="96.51341492435519" x="0" y="0" /><path d="M25,25 m0.0,0.0 m13.252816825177275,3.8945877601086036 l0.46323183598271234,0.5258202831052822 0.649298598876293,1.1356305419093877 l0.47237419674250475,1.755748095556452 2.996936721730728,13.397505896417488 m-3.239544667847484,-16.774499766657716 l21.87712968291365,-2.826436913048096 6.068043127987718,-0.5465998907933942 l1.63797489585175,0.13731718794472114 1.0773819698321847,0.754598204599399 l0.49875314229204604,1.635298935731502 -3.1085153057793615,12.604595972309701 m-24.094881501865547,3.5199704112337695 l25.521762497150487,-2.6560072034876567 m-14.887704453732153,3.6194084181674646 l0.6999348746477599,1.0724824007702813 0.2444257249546238,1.5891655026527791 l0.15092689531105877,23.945879269606085 m0.8908673562072178,-13.932268274699783 l13.056310491318902,-1.9246550779900466 2.2858920166028316,-0.08096095009879321 m-28.932381342966902,-1.4822426322130615 l-0.031611977434850225,2.647268466469728 -0.3733423751254898,1.7838254721497404 l-3.345569537649065,8.636655911148038 -3.8194442623584846,4.010392451676133 l-2.4006411423363674,1.8609273058368252 m10.09628625332177,-11.032277757934565 l2.8838005659609456,2.8771512051572667 11.590944486018717,11.785560033218788 l5.251298974100368,4.13927316008807 4.025111199666885,1.9082522416250414 l4.631017140471824,0.881621971845393 " fill="none" stroke="black" stroke-width="1" /></svg>