<?xml version="1.0" encoding="utf-8" ?>
<svg baseProfile="full" height="104.00480942272551" version="1.1" width="97.04926537182308" xmlns="http://www.w3.org/2000/svg" xmlns:ev="http://www.w3.org/2001/xml-events" xmlns:xlink="http://www.w3.org/1999/xlink"><defs /><rect fill="white" height="104.00480942272551" width="97.04926537182308" x="0" y="0" /><path d="M25,25 m0.0,0.0 m12.597995595256121,7.626852569815191 l0.4449290155149172,0.20668666893697182 3.113763349574837,2.1630648740522127 l1.2993708028493394,1.1890799421480676 m-7.677683058356946,5.654344549823033 l3.108892788616642,1.6185838589837431 1.5636737176669886,1.1257871888912774 l0.694569884427416,0.8904557521370193 m-6.095086667136756,16.775594668613518 l0.6615591744721423,0.387080328167414 0.9790697948248842,0.11723334232536253 l1.0752085258712876,-0.6650780529528869 2.19024849205552,-2.9429591354594766 l2.487870901267051,-3.873848067128397 m16.935999826210278,-23.67196387718242 l-0.14133604480633125,1.3211378423058462 -0.5066046848759689,1.1032342310928838 l-2.472062810120862,3.920940397420225 -3.0239475796741204,3.5413020911193036 l-4.0018321296528745,3.231823141900843 m8.42700224606695,-7.422955197781237 l2.2096015799535946,-0.2953203349864242 6.967486409590811,-1.9670012740884242 l1.1390647889090513,0.03108498165294739 0.4032698704413458,0.3149621218726809 l0.13410819174084343,0.4868245304023247 -0.5943125858842475,1.9867583056819964 l-1.8504575708719309,3.099114752593025 -2.280121173008705,2.970741223891619 l-2.6646731089414613,2.9585122504325683 -3.1600431379286147,4.993865147010437 l-2.167024503973598,6.245248190422024 -3.3119136890730094,5.568344738237219 l-2.3638909633707206,2.7843022384797127 -2.695371041047143,2.512581244328768 l-2.4801788763894113,1.797666978914746 m8.203390665156322,-19.53557637712221 l2.7533493664540014,2.0894606172883474 1.2459760480951503,1.2693272244711309 l0.6040713121176926,0.9666677117373218 m3.211970100719482,2.336687335203868 l1.432374153971644,1.0893275094377697 1.3172131368824516,1.7890695710390048 l1.1238186764436966,2.0914882091209326 m-13.242285079162617,-19.36914794865392 l0.40305672161378736,0.9129779422268816 0.12386394106443074,1.5299865020838312 l-0.11340437983192281,31.119030284423154 0.6695342840396774,1.727357264136083 l0.8976782327863209,0.20407136525959726 17.11653468033812,-1.049572185144313 l2.3549781809375125,0.030668491834706435 " fill="none" stroke="black" stroke-width="1" /></svg>