<?xml version="1.0" encoding="utf-8" ?>
<svg baseProfile="full" height="119.4359917021412" version="1.1" width="104.37457274227704" xmlns="http://www.w3.org/2000/svg" xmlns:ev="http://www.w3.org/2001/xml-events" xmlns:xlink="http://www.w3.org/1999/xlink"><defs /><rect fill="white" height="119.4359917021412" width="104.37457274227704" x="0" y="0" /><path d="M25,25 m0.0,0.0 m11.749754017055265,18.13361523553246 l0.514834450821724,0.11307305672382292 2.05830865012774,0.08706644653016592 l29.797212872052715,-1.8957515337851634 5.393080023900128,-0.1437029941662234 l2.8044063730309166,0.2543532141291491 m-30.832427044464758,-3.9698843763753757 l1.0538220876084365,0.7587210591916042 0.37870755895242303,0.5562473294202241 l1.3602309736837486,8.11855677393015 m14.983654137949628,-10.485263018879406 l0.3072174429892873,1.2508111775522461 -0.10883133526756854,8.314029151980234 m-24.319019060211833,7.594054648735067 l2.284733633819416,0.09943652843877557 10.396335821656134,-1.4512420301264868 l2.7789664691501184,0.059004446173314476 m-8.06481655410118,7.941788558543415 l3.1616764014698076,0.4643135248431272 5.455889865322528,-0.13736990724701245 l1.8726824907384727,0.07820859798033113 m-7.891047350416032,9.576784680364538 l3.612293672397047,0.4409635949398345 5.289929922348975,-0.28313269253654527 m-7.552354661668566,-14.416280562545513 l0.4768619595695811,0.7613892192876367 0.19168819246511565,0.8751290672160014 l-0.02361846323705677,16.97967104380311 -0.7104067852124232,8.39519764319331 l-0.6064307432029259,2.9925471485770507 -0.863194026478727,3.0390342642141777 l-1.2348571568921656,2.846147399582323 -1.5909639535059934,2.488475006920844 m9.585993191181196,-12.852945586878777 l1.5696045465882036,2.6777421839143143 1.3123555813807564,3.5689376570902525 m5.368004469961019,-27.55614970369843 l1.6642909831543569,0.2492675623832913 10.76966374695662,-1.2755845665501921 l0.8316883579600531,0.051728479724412926 m-13.443917438579748,2.0775577018501967 l0.2723964941378292,0.5936481304695299 0.1440727743358662,0.8309042955259974 l-0.17642196671246815,3.845811980077406 m-4.562157286301302,0.5237653516695676 l2.5357678986057244,0.1451492351067517 12.949563178681984,-1.5026065210189468 l3.044233212085141,0.12034971178154212 m-9.62466155957052,2.118866489462358 l0.46697588432219367,0.5699280155266854 0.2027170242168727,0.6683551325447268 l0.018396181310477697,12.681780778412017 -0.11370285002466496,1.2935819421660777 l-0.3049015314045655,0.46625352381594365 -0.43985522992177617,-0.027569898388818195 l-1.8712605117093153,-1.943815204652235 m-2.536964929473561,-9.079740420922425 l-0.03607505048007139,1.349561839217786 -0.9962891181481667,2.014358254576208 l-1.8029695466784004,2.508921174010361 -2.2290654748651426,2.3827913074708293 m14.57204646804561,-8.294200620713928 l1.5088939909455752,1.5187092399364357 1.6579104396475954,2.219999564061038 l1.3228868678367056,2.3361325367460726 0.591034062342974,1.6951676459092813 " fill="none" stroke="black" stroke-width="1" /></svg>