<?xml version="1.0" encoding="utf-8" ?>
<svg baseProfile="full" height="97.61774377647825" version="1.1" width="103.32054696549716" xmlns="http://www.w3.org/2000/svg" xmlns:ev="http://www.w3.org/2001/xml-events" xmlns:xlink="http://www.w3.org/1999/xlink"><defs /><rect fill="white" height="97.61774377647825" width="103.32054696549716" x="0" y="0" /><path d="M25,25 m0.0,0.0 m13.18518384066306,3.3413201377008694 l0.45271002882208283,0.20818567698423224 3.1421483063019955,2.2927987140460306 l1.5304400742819262,1.545975390323996 0.7992646260834644,1.0950712932755235 m-9.055578512521016,8.860887987402517 l1.6559777312287,0.8399384252835813 2.1838848181010393,1.4351457085548305 l1.5086333405988621,1.319876326841087 0.8388363042473932,0.9748771896374753 m-6.3133918219524165,24.757296160083506 l1.101293216000579,0.5634161071536279 0.5425660015912052,-0.015124897958352469 l0.8725146733151007,-0.6951889150108006 2.7558470832475437,-4.607911047307072 l2.7050416836370608,-5.400060917368262 m27.68386596216262,-34.04041851805791 l-0.17072478099613783,0.5960263697877164 -0.4918791503361844,0.7368347621276872 l-3.410499053226286,1.9539285441750172 -3.8875858086428994,1.722352185167462 l-6.057001480998141,2.177078874797416 m-1.479720979333888,-0.7075560038368822 l0.37958480955749474,0.8326210020899864 0.25290779835328053,1.3971964128020586 l-0.01365420203339391,5.770239792053937 -0.33533283571201916,7.179778737371699 l-0.7677395543976514,6.46166918409365 -0.9635747946967893,4.435930621971722 l-1.1011884527639422,3.3082026326267564 -1.9315442526883948,3.8564665299897065 l-2.018355944493598,2.7565611853523535 m8.927148672789881,-24.79193018693584 l1.3242434731017412,0.028195561069268415 13.504278174449182,-2.202525588264709 l4.034492358474261,-0.4126388772264457 1.9374556132814296,0.12096026497559763 m-10.24045746062034,-7.445750050811671 l0.6734076798400448,0.984201231924367 0.43196696045474997,1.1346586584918867 l-0.08209966760878315,31.529274759524004 -0.18512284297808548,2.512524169290025 l-0.3696365736437329,1.0114394758029042 -0.5379211636978887,0.19591870648368745 l-0.6430955349197199,-0.40854248410551225 -1.7900657976138505,-2.161344815652242 m-4.0744769678181925,-15.612133609547492 l1.7175155142050391,0.871435705103967 8.70738890061421,1.8848206373041165 l4.451171521474169,1.8778367755547922 1.7854158031222989,0.6854166631256159 " fill="none" stroke="black" stroke-width="1" /></svg>