<?xml version="1.0" encoding="utf-8" ?>
<svg baseProfile="full" height="101.79980935538532" version="1.1" width="109.8367227408727" xmlns="http://www.w3.org/2000/svg" xmlns:ev="http://www.w3.org/2001/xml-events" xmlns:xlink="http://www.w3.org/1999/xlink"><defs /><rect fill="white" height="101.79980935538532" width="109.8367227408727" x="0" y="0" /><path d="M25,25 m0.0,0.0 m16.24788202306159,5.283456602373877 l0.04546441674141956,0.45965510385128877 -0.22874793636736399,1.1171529761565784 l-0.8848096879649311,1.94395180566884 -2.987708060486963,4.540669411133894 l-3.5623099668618,3.9641319180433765 -4.066008152510086,3.4029038521544552 m13.351526154372312,-12.6752079902734 l2.574695929171057,0.9733967218216344 2.910085628178523,1.5513430476800187 l2.0974620431618556,1.5070747905172706 1.5290312124766883,1.5821516442559753 m-16.881005491499096,5.640301228543821 l2.8044114037333028,-0.19645107161361133 7.948409925756037,-1.3434222258268336 l3.765823701032842,-0.10077022928668872 m-18.277073084460902,9.832187935778093 l1.7431975092881575,0.21667873764772988 1.4388164073963718,-0.0979473869486422 l14.20095783850543,-2.3078341653445174 2.4558610198436868,0.06628339519552703 m-10.14548295498924,-4.843304347195711 l0.5050221242883762,0.4106732929551062 0.357279243674786,1.0039938247936047 l0.24147218156738642,21.220289271833064 m-9.586360065207991,-9.56895007974866 l2.8250555052588098,3.155650799112016 1.9639381923552963,3.7157586826987363 m13.08468476972574,-10.379957026761085 l0.26721688540719013,1.1044359811761717 -0.2454033964904978,1.0339002661625003 l-3.86221655634472,5.511726418349259 m-14.637524800205927,8.829836527049396 l1.2880142447892597,0.4593890365106965 0.9919795246909047,-0.033584295997963934 l16.63038633733197,-6.768571346023314 m15.353141291639906,-34.85201119784558 l0.7092154202868234,0.8590432144488909 0.20387310106420245,1.0338526563221389 l0.06843171632697692,10.006398153900752 m0.4437932428686865,-6.6174485716055695 l10.053822630811421,-1.4767674898226717 2.1804412548572536,0.18448020721749228 m-23.47706242722892,8.443456938478986 l5.584046168047544,-0.16803583840171166 14.302361895095284,-1.6306060257945414 l5.071358165277604,-0.3168459021299303 2.1312975282520568,0.11663159109331622 l0.9541693621744529,0.36824778206473074 0.27727772268112594,0.5625945193286382 l-0.2553152702626561,0.6970091380651252 -1.3518749876484366,1.5042993991299127 l-1.9667715387512907,1.448141054906206 m-26.251604575885228,-2.953475619124002 l0.4874440991422231,1.5399106363601063 0.031932696440259964,6.650869576816443 l-0.3668054979993904,5.933985113164761 -0.8004365107709395,5.6436493749688195 l-1.0539535566002127,4.351611214730654 -1.4504418390552898,3.888583862130721 l-1.940089665496122,3.432443384301768 -2.5251105233156914,2.93879907623736 m11.921062864735942,-27.42823341564372 l1.878631790223061,0.17341483784486744 13.892208346030092,-2.35369348834278 l1.2341012774508493,-0.15378918371566974 0.9031774927946116,0.22578072230466673 m-10.692840205199367,-3.3682462971424423 l0.797517912749899,1.2619909588862517 -0.03337701918861382,5.417372177924005 l0.2482215716669599,0.8894039076263507 0.5872855854452865,0.5880291797360622 l1.6934594863518373,0.40719770345092915 2.862914236229006,0.10109710473638452 l5.786945163741933,-0.09024445879875886 2.8793700219262033,-0.31873765956165134 m-18.23235627083598,5.053388912351555 l0.7376254407171063,1.2825464744422537 0.08694701363904922,0.8956806672272608 l-0.18330174852561543,14.511958789158248 m8.181433009751785,-16.71771772228887 l0.6045228384128193,0.968791245394001 0.13016708780731806,1.2082123618632878 l-0.09957749382514725,14.605045769646798 m-16.3556316172398,-11.254921541720783 l2.0481448804018756,3.213393394781055 1.1604330644161571,3.305505394031503 m22.448195261175847,-8.843996567932782 l-0.3366143533773561,1.7208256339964667 -1.299401042192271,2.2872276853775997 l-1.5733016025149555,1.973415602279879 -1.9557271822244153,1.7650671963949818 m-23.719520372987805,7.0753250824405605 l2.3817755114906767,0.281214489943994 11.102819288124138,-1.5469531459359231 l12.351100148081253,-0.909425347061596 3.989172275997147,-0.1413896744751019 l2.093976109252052,0.24817937026431494 " fill="none" stroke="black" stroke-width="1" /></svg>