<?xml version="1.0" encoding="utf-8" ?>
<svg baseProfile="full" height="109.49251512589399" version="1.1" width="109.20302788494155" xmlns="http://www.w3.org/2000/svg" xmlns:ev="http://www.w3.org/2001/xml-events" xmlns:xlink="http://www.w3.org/1999/xlink"><defs /><rect fill="white" height="109.49251512589399" width="109.20302788494155" x="0" y="0" /><path d="M25,25.000002635642886 m0.0,0.0 m13.627572059631348,12.32920527458191 l0.6973854452371597,0.1480081770569086 2.1134397387504578,0.17072152346372604 l2.8271424770355225,-0.20978540182113647 21.685636043548584,-3.1704699993133545 l3.301052451133728,-0.188989769667387 3.3386528491973877,0.2576175890862942 m-17.90074110031128,-9.336310029029846 l0.87261863052845,1.2032204121351242 0.5567377433180809,1.892801970243454 l0.030971753876656294,19.6419894695282 m-28.968100547790527,3.9388442039489746 l2.6912835240364075,0.4033200815320015 2.811179757118225,-0.0760104926303029 l33.22903394699097,-4.566437900066376 13.597596883773804,-1.311233639717102 l4.691566228866577,0.00024387205485254526 m-36.39174461364746,6.072857975959778 l0.6154444441199303,1.242949366569519 0.2562984637916088,2.0478160679340363 l-0.22090375423431396,9.389517903327942 -0.5899930372834206,5.455639958381653 l-0.7912983745336533,3.4259146451950073 -1.2276963889598846,3.340781331062317 l-1.766165941953659,3.3287206292152405 -1.7388521134853363,2.533431649208069 m18.7180233001709,-32.98640251159668 l1.108686700463295,1.6299521923065186 0.35144180059432983,2.01695516705513 l-0.16366032883524895,28.443820476531982 -0.33503588289022446,1.6430769860744476 l-0.5125747248530388,0.7449182868003845 -0.6523356586694717,0.03582702483981848 l-3.2535195350646973,-3.155261278152466 m-20.14826774597168,-18.967748880386353 l0.10626170784235,1.8083778023719788 -1.5150219202041626,4.09314900636673 l-2.020857036113739,3.519916534423828 -3.312048614025116,4.461705982685089 m43.24782848358154,-13.927844762802124 l2.339043468236923,2.881060242652893 2.3823197185993195,3.7820565700531006 l2.056506723165512,4.077186584472656 1.1984316259622574,3.1857675313949585 " fill="none" stroke="black" stroke-width="1" /></svg>