<?xml version="1.0" encoding="utf-8" ?>
<svg baseProfile="full" height="90.49685026203983" version="1.1" width="98.14153871532375" xmlns="http://www.w3.org/2000/svg" xmlns:ev="http://www.w3.org/2001/xml-events" xmlns:xlink="http://www.w3.org/1999/xlink"><defs /><rect fill="white" height="90.49685026203983" width="98.14153871532375" x="0" y="0" /><path d="M25,25 m0.0,0.0 m19.167932604964594,8.595424350735927 l0.01676810458663927,0.3806163381061116 -0.1967821384648747,0.756236932192086 l-1.0199430591043657,1.5817857313008772 -2.8388025011647677,3.390680050140483 l-3.049290647999271,2.823865302095714 -3.500462088801478,2.4723847167898354 m9.209832854302753,-6.863980167925026 l1.5481264097617198,-1.4579195690511797 5.279361711292867,-1.6083399762816353 l0.9545697468252637,0.3528272695432778 0.07535452346007701,0.5722383784677856 l-0.5626031269930278,0.7442274427655918 -4.2822002250322475,4.1577940363538275 m-7.357580282850768,1.3406517771113462 l0.6104704212508449,0.8092016339237315 0.22476414159204783,0.7471613636041009 l1.4378079677996594,11.31999273956602 m-1.2770498414513953,-11.657147155637851 l11.53297590511258,-1.628812469952004 0.6413799163128604,0.010355248842225145 l0.8683823163267024,0.2976651085918486 0.4514399342855223,0.8038314292529802 l0.004366239330006076,0.6390352328666752 -1.5384279784080963,10.24700620369917 m-5.7722976291452515,-10.108430539360015 l0.3977644950871074,0.7208228158764254 0.08323155350868053,0.9509412166674472 l-0.03522733836750411,7.450323851283458 m-5.645610355163679,-4.197280227009193 l11.665678396979825,-1.467358283768401 m-11.003819208399507,6.520377158939099 l9.847855108282332,-1.1313889204438838 m-13.18765959932445,6.338329532982417 l-0.3712462320861264,3.2050776017712206 -0.8146454147735285,3.3886541079993364 m4.99415657549896,-7.464656367040453 l1.2155754926790479,2.1152838285196967 0.9063294789954343,2.5251537627847136 m2.3060087813635657,-5.364118139245604 l1.6921017451793103,2.0051850379425864 0.9558512015829165,2.0348385841062298 m1.460246276270938,-5.107656899119558 l1.8316276277603383,1.9133698104242851 1.185949725292335,2.037254050064165 m2.4996258285833197,-32.00297196464573 l0.44917259483703403,0.8002173841142579 1.6524700834843398,2.7131032393309393 l1.2966576772871876,2.8518338787472817 m8.667932971404175,-6.038451070824555 l-0.11249194933483639,1.037604104097084 -0.7664882717786671,1.682512879857319 l-1.1096097183227775,1.7679771483511635 -1.2676201179174418,1.6834945913660275 m-11.168788540537777,2.5839327341367038 l0.7111871151953322,0.18252773260685004 1.428098630022981,0.0006706174189211636 l12.622679050013916,-2.000147942623914 2.8575038853685544,-0.11673696777692598 l1.2788968135157552,0.20426848594240515 m-18.036247222345036,9.399520408908971 l1.7724284235408927,0.19790496864486934 11.229024069685783,-1.1404016593744934 l2.1669255382717147,-0.09825941010579578 1.2948454753320153,0.15835555503211232 m-18.46660629862356,7.969737111994997 l2.227109782493859,0.18395795713222216 14.079924473934552,-1.5431696712040883 l3.1802099334559806,-0.13149046915329357 1.542436899601859,0.1835141790410591 m-11.811872192029123,-12.91402115408721 l0.43313580719453937,0.6039989368994257 0.16070738949448535,0.791610412866157 l-0.04381037444102367,24.67252708724589 " fill="none" stroke="black" stroke-width="1" /></svg>