<?xml version="1.0" encoding="utf-8" ?>
<svg baseProfile="full" height="117.66863978899376" version="1.1" width="106.71102875361555" xmlns="http://www.w3.org/2000/svg" xmlns:ev="http://www.w3.org/2001/xml-events" xmlns:xlink="http://www.w3.org/1999/xlink"><defs /><rect fill="white" height="117.66863978899376" width="106.71102875361555" x="0" y="0" /><path d="M25,25 m0.0,0.0 m21.67192805015211,5.812680190479883 l0.3096394453414675,0.4416051356337345 0.4080669535001835,1.5481843933683215 l-0.005145429496597703,4.921747786091428 m-15.815547509386429,1.3728718606590566 l-0.6974918996980478,4.623937351345218 -1.5692129707546043,5.243433637567728 m2.8428090279568585,-8.584661351957855 l18.555595091440413,-2.4012422442606827 12.566147088160188,-0.8391110002159544 l1.3935784110308949,0.12092968499128831 0.8389939941722787,0.36157083179135574 l0.30657567857470436,0.5546840390778217 -0.5615742714098564,1.452508045155484 l-2.7020190849965444,2.4721255527948984 m-24.618241984440957,3.0241910866062995 l-0.06377149063023617,1.3708114752261127 -0.4239604422957577,1.6254335556561623 l-2.345734959845624,5.523524992485021 -2.947595997492992,4.925574987429238 l-3.2494342267317045,3.8999856988474715 m9.147762108833627,-13.184699313684908 l5.244912976572809,-0.07867428699487505 6.219570157326033,-1.150472727907473 l1.3142242979515402,0.05435254987641092 0.5687718217149802,0.361773779538975 l0.24172786986392797,0.5481709195076993 -0.07056185000263285,0.6628269911929852 l-1.6477555113769533,4.297440094041489 -2.1704942832191962,4.291506934647514 l-2.607059205494924,4.368589944601396 -3.2952166544870773,4.565597293246191 l-2.897711982958409,3.290627331955489 -3.192953262966846,3.0332132629567408 l-3.4385785189578346,2.690422430560354 -3.628942787865506,2.309742028344704 l-2.6770553838089914,1.29541642564583 m10.015626734804016,-23.612064791377332 l3.2572304536588916,2.1970590953901565 1.6159959837958588,1.6236733669909553 l0.8296889123640586,1.1144601794123765 m16.13319041403596,4.845963312488295 l0.2977075749401946,1.4461175524506378 -0.3250845013215724,1.7803765457870826 l-4.138374463946433,7.619819768543095 -2.6719809311144918,3.6851773872267293 l-3.0550396839986327,3.441574322781352 -3.521112817414639,3.2672915580667516 l-4.147696123026094,3.0930509827591366 -4.181786493218657,2.339521142173958 m6.7170041387767965,-25.19368665084163 l8.363872293640307,3.7404574737598977 18.047317300582915,13.480268193181232 l4.77595536480222,2.4746576117134444 3.158475953241592,0.9051217330242651 l4.535795378738957,0.20092483673754674 " fill="none" stroke="black" stroke-width="1" /></svg>