<?xml version="1.0" encoding="utf-8" ?>
<svg baseProfile="full" height="94.7137771817579" version="1.1" width="95.43623103901896" xmlns="http://www.w3.org/2000/svg" xmlns:ev="http://www.w3.org/2001/xml-events" xmlns:xlink="http://www.w3.org/1999/xlink"><defs /><rect fill="white" height="94.7137771817579" width="95.43623103901896" x="0" y="0" /><path d="M25,29.197369477251968 m0.0,0.0 m11.244890145583472,4.481480314321686 l0.4803495535953517,0.14772705376221087 1.7172788900425306,0.11526165786177607 l27.438448946810865,-2.4174492638753664 4.555263502986748,0.22652344792712348 m-19.056592940416294,-6.750912687249399 l0.7371994273540065,0.6798520502170324 0.48798608027062906,1.2191663990265142 l-0.05181614208279884,14.128699935949246 m-13.930613315219562,1.4601593192554412 l3.5429888117018025,1.4187527933182904 2.2695899106919777,1.037835460526642 l0.9649285031884405,0.9376002044342078 0.5185915079404113,0.9628388272266348 m-7.619611847028683,4.606045858294971 l1.156112522942996,1.797151999864325 1.1177564661648063,2.4316323043074575 m12.523529720266339,-6.9356115379456345 l-0.3054674996097752,0.9077548885928416 -0.9143741349372819,1.5938442644501523 l-2.6285796109811552,2.8994712031797762 -2.9834924096100113,2.714095796385201 l-5.595937811784438,4.008709403592056 -3.5670124512432375,2.1114580424862157 l-3.9322406998022945,1.8881571416418812 -4.859938769380642,1.1735428000730292 m5.744526848149956,-13.266216917166924 l3.942610147423625,4.157486886457109 4.359674984127424,3.883305880206108 l4.347724240696891,3.0050123165068374 3.6816343363725124,1.8222245272006394 l3.065528702317222,0.9540732958637841 3.316400929185689,0.48155002269772157 l4.098722398660205,0.06724499891459182 2.2197747653836775,-0.40942388849108086 l0.5840938434391161,-0.31400086725460746 0.2776795210940197,-0.3831044333842916 l-0.39919099528149715,-0.9739560214495797 -1.4030990792347637,-1.3090690780672487 m-31.066530450659297,-7.767753157461998 l-0.5519398007777844,3.53111182602965 -1.539770559655559,4.259299747580114 m31.102072580673553,-9.606209410129233 l1.6660305090983958,1.002706131704905 1.5593971077852982,1.2869025409881196 l1.3043410044331882,1.4305503796553558 0.9265364236936898,1.4275788063992072 m-18.6027871532594,8.663622235138536 l6.578005611966421,0.908273644136248 2.1867517931356715,0.8214105608076518 " fill="none" stroke="black" stroke-width="1" /></svg>