<?xml version="1.0" encoding="utf-8" ?>
<svg baseProfile="full" height="102.04679273095941" version="1.1" width="98.25770927423305" xmlns="http://www.w3.org/2000/svg" xmlns:ev="http://www.w3.org/2001/xml-events" xmlns:xlink="http://www.w3.org/1999/xlink"><defs /><rect fill="white" height="102.04679273095941" width="98.25770927423305" x="0" y="0" /><path d="M25,25 m0.0,0.0 m20.3277904447575,8.625943920137304 l-0.022371641948818452,0.4291066942821614 -0.3815258272861033,1.3376137148748546 l-1.176453612400618,1.8931823209078535 -3.969640807162123,4.355010656175981 l-4.877513142515091,4.1395004176091765 -6.475408814846359,4.363942158267033 m3.726047595934192,-15.369475448950288 l1.7781856447459727,1.3621306596365526 3.0921493989802853,3.154057338957358 l1.2920729124346746,1.6885958391172629 2.268712187193353,3.862004610067449 l2.3251229314538944,6.113416962945314 1.1855450452575795,6.153320144028127 l0.26896089635391524,3.954644995377139 -0.13546183927110442,3.8376427153239776 l-0.4809865101235229,3.5589564780097382 -1.2814545972307503,4.44185990160056 l-1.8028588709905313,2.9518500948734716 -1.3902951601212912,1.0325643919808891 l-1.5098968251941187,0.1609241657374907 -1.561835967151957,-0.854646409477347 m4.245119634444601,-26.657939143742663 l-0.061399496880198176,1.4639220246330893 -2.009986428004107,3.3860034241473933 l-1.9232313854749687,6.966560784373886 -2.0205736042717124,6.991573082109157 l-1.702516432261771,4.61964230546259 m23.41561924285683,-36.92040520591764 l0.88238113331301,0.9282470524441442 1.0196988031267489,0.9412477269179137 l1.16635230880115,2.130526425563831 m-11.294918787496883,4.162525589430877 l2.180553293685933,0.20207347126666875 14.635556617716434,-1.1427188544856814 l3.98196491857958,-0.12353338203035 1.6761946060359558,0.18220254233617786 m-12.724007856028612,3.702616408139019 l-0.08483708363765305,1.6697696669928233 -1.3463098210243056,3.4189710637575734 l-1.6388479956461601,3.2116381725881924 -2.0120913453605946,2.929863063409759 m4.974210492360025,-5.673600282246159 l1.7928454247061243,0.7821721705306641 1.8152239348998307,1.6757900031538835 l1.3396898686967023,1.7208362302546292 0.8323623721883927,1.711029846914326 m-15.459705410760334,-10.486005334478312 l0.4394974524271665,0.7606686513602978 0.1934454161070057,0.9617886353139896 l-0.11901148026732272,15.029771425024672 0.24897741315281402,0.9379319160397576 l0.46794775393012633,0.1843813484825706 18.382525488137077,-1.973794144097023 l1.9447976856123663,0.12924739158365364 m-25.520124629245426,-22.032673485339636 l0.6846024608923191,0.6418566316494193 0.3330968394161966,1.4096714858641681 l-0.10940061633997476,15.621623083598699 -0.5512151716837888,1.4441070800236369 l-0.11438693207247372,0.6946451186756788 0.26823114830150363,0.36179575391387203 l0.5632836895110723,0.13982852642022903 21.83520799763303,-2.1290473736911744 l5.357300166260424,-0.04210591664384312 m0.5439823219414286,-25.45230568489869 l0.5307218250865231,2.4135871233188566 -1.3053505060305362,24.53795804741314 " fill="none" stroke="black" stroke-width="1" /></svg>