<?xml version="1.0" encoding="utf-8" ?>
<svg baseProfile="full" height="105.10153096231969" version="1.1" width="103.80483768881669" xmlns="http://www.w3.org/2000/svg" xmlns:ev="http://www.w3.org/2001/xml-events" xmlns:xlink="http://www.w3.org/1999/xlink"><defs /><rect fill="white" height="105.10153096231969" width="103.80483768881669" x="0" y="0" /><path d="M25,25 m0.0,0.0 m12.649696727299737,4.686515611737598 l0.4470866625739088,0.5597019449355283 0.7050545432544867,1.6900592729290032 l1.130702796545737,15.496641947014835 1.0506514719572235,5.035197854885214 m-2.8019047066760554,-21.775565932262452 l25.347286535307934,-3.3324935969536265 1.5510678865925913,-0.6061410090570816 l2.0044477058515104,0.12874592927037928 0.8412676634792621,0.8909382528914357 l0.2583577886911792,1.8675156119176306 -3.111911525464038,18.051719410886687 m-24.19452453591634,3.020840321013719 l25.51735152247699,-2.5655032546333647 m-25.88453003364969,4.033091478343134 l0.41466941345103453,1.385140734454762 0.10448647172153881,1.6088639668571736 l-1.5457261737116494,7.904023184933779 -2.1165797941615674,5.227716148567006 l-2.0274216770000666,3.5042012846111295 -2.5391917612928054,3.201305788239015 l-3.075148356068463,2.898402882633703 -2.8991313950075472,2.061498489888851 m27.08602263111557,-28.949932189876854 l0.6495310550558867,1.6151392728083716 0.1897093984016724,1.6732386302121143 l0.07277098730076602,19.755551749141855 0.5335503495756346,2.625713395652403 l0.9180150908866225,1.622127314599719 1.9777951115062125,1.1331569241560953 l3.304892041730595,0.5859492179345477 7.7598173147842315,0.06817032458737746 l4.9725315718668766,-0.543483602828185 1.9558625335694446,-0.7230987397748648 l1.7465459336320743,-1.4889924133046744 0.5933340422416699,-1.4689705805892344 l0.2184023968945141,-2.958448961367941 " fill="none" stroke="black" stroke-width="1" /></svg>