<?xml version="1.0" encoding="utf-8" ?>
<svg baseProfile="full" height="99.7800217689223" version="1.1" width="102.22194021250566" xmlns="http://www.w3.org/2000/svg" xmlns:ev="http://www.w3.org/2001/xml-events" xmlns:xlink="http://www.w3.org/1999/xlink"><defs /><rect fill="white" height="99.7800217689223" width="102.22194021250566" x="0" y="0" /><path d="M25,25 m0.0,0.0 m15.23807368457434,14.289564673931194 l0.5651589832629919,0.14422275725641237 2.070861174741424,0.1395778767497316 l2.6233487571056973,-0.21282063480142488 17.453076633699965,-2.850940026186731 l3.1614078550398492,0.16376014498920685 0.7490691743530009,0.38925068836999066 m-14.275101723539578,3.264446567805431 l0.8405542015176071,2.687821069517145 0.062071415344926655,7.890082630051431 l-0.27449799462573526,22.45737412704558 -0.8142617108495017,1.4108619562621372 l-0.6244249565746368,0.006819937932189511 -1.3279509388149335,-0.8717070065301117 l-2.0445091641695514,-2.309848921752442 m-7.411766960991924,-21.30983639688149 l-0.07367192955482292,1.063932806255787 -0.3180253011714388,1.3961205129217702 l-2.3684802855665144,4.427511488784388 -3.1663248292225443,4.030384688709297 l-3.9184769616645254,3.7688679649805166 m37.68677217608862,-14.85724307579795 l2.7164620816657123,2.212510868137348 2.5908041880645443,2.9979616736659214 l2.0865860877971474,3.081096464546793 0.9951865559955377,2.5320983309487843 " fill="none" stroke="black" stroke-width="1" /></svg>