<?xml version="1.0" encoding="utf-8" ?>
<svg baseProfile="full" height="104.52528264365723" version="1.1" width="100.50212110204953" xmlns="http://www.w3.org/2000/svg" xmlns:ev="http://www.w3.org/2001/xml-events" xmlns:xlink="http://www.w3.org/1999/xlink"><defs /><rect fill="white" height="104.52528264365723" width="100.50212110204953" x="0" y="0" /><path d="M25,25 m0.0,0.0 m9.964357977018535,14.139881858619626 l0.49399563665555896,0.13634566348190805 2.8984173507382387,-0.03181772093390269 l12.204726199684949,-1.8891155022405925 2.7539766777235197,-0.004536781670621112 m-8.9366000337696,-9.35476782078934 l0.6640726987060808,1.2438235867051963 0.15398320578825528,1.2883073290333207 l0.00908398972022407,17.599223083320954 m-13.586868608056152,2.2446711185988266 l1.6321329781791294,0.37951448769620255 1.7388275776266637,-0.02311890830251533 l17.149587899052,-2.6544826512848867 2.225607727810068,0.21009671481746262 m-10.127578483857196,2.877597970995379 l0.5432996270302122,0.9565896359085981 0.2797002346677645,1.710415794442446 l-0.03064097978657839,16.709894367837563 m0.6315594297376284,-9.872760267632575 l6.729278043491385,-1.201121170269135 1.804935553783359,0.11015277862633659 m-16.204449194420885,0.3765605368527776 l0.04252806309801741,1.1927654264311904 -0.3973394231959859,2.046011432392809 l-2.288839766748968,6.884652078120538 -2.8230049733609897,5.408928488972364 l-2.881265492331464,3.9543838179663418 m7.844468156454256,-11.733601270893526 l5.9329092395195255,1.8998459368808096 21.32499263224317,7.949575237617164 l4.756507956056819,1.2892821913770776 5.099427900659635,0.6820852009794468 m-17.668291816119172,-45.72435186714413 l2.5785921036344206,0.25975447238813176 11.826743647382933,-2.158113695602669 l1.4588364927122344,0.16066188812438612 0.7938730067803486,0.7691905784707596 l0.14802695608121835,1.2554843290340418 -2.0217756987789834,9.888732110827144 m-13.907369486727525,2.5411980444570235 l2.418409781684655,0.1102074495923229 9.97022432207405,-1.6459568353637821 l2.400126810943546,0.07047639238038024 m-13.885150612028344,1.9217793429602588 l0.5634995868450208,0.8119370485536648 0.28968237299402777,1.0963654193146248 l-0.17711594995938587,10.328149960996532 0.19683859080283905,3.291748034919402 l0.5234762400925326,1.640442159675694 1.1696195929902087,0.9884166187026917 l2.391784487235224,0.5593801552411934 5.080489440976189,0.1637824318865596 l3.696655576167123,-0.3603101090404271 1.1910810530100036,-0.532685824882014 l1.213829823330209,-1.0947987703502766 0.5111417728939269,-1.4732935647166803 l0.13710320711504848,-2.0816571634373617 " fill="none" stroke="black" stroke-width="1" /></svg>