<?xml version="1.0" encoding="utf-8" ?>
<svg baseProfile="full" height="95.17933729795104" version="1.1" width="103.43266531917047" xmlns="http://www.w3.org/2000/svg" xmlns:ev="http://www.w3.org/2001/xml-events" xmlns:xlink="http://www.w3.org/1999/xlink"><defs /><rect fill="white" height="95.17933729795104" width="103.43266531917047" x="0" y="0" /><path d="M25,25 m0.0,0.0 m9.852767823546744,13.635064054762317 l0.5543264144402397,0.12934725547593648 2.247985714555855,0.08021830744921546 l25.823268847085473,-2.001944805972123 4.2462368128356225,-0.13573547306289768 l2.5334237043635244,0.25400758197706336 m-27.648134682201885,-3.6697335469945824 l0.9533532377357231,0.7574990186913791 0.34698179126009243,0.5290283967587333 l1.2062550242171348,7.9388719141794 m14.799825875249676,-10.27727785705626 l0.24354076745884182,1.2573061169834048 -0.12159221078185171,7.769899113272019 m-10.482500346762324,6.596564258155384 l3.3791109618560777,-1.1718309698741465 2.5534822245969093,-0.286039634636476 m-8.620667217022193,-3.34921418046354 l0.5635942852484908,0.5107584909689966 0.3040642074098351,0.7501170429307386 l0.09249861614530988,7.6800807589432125 m-9.424780370545951,0.837941753461571 l2.772384360050545,0.21428543231975897 13.984863056134,-1.7015885426407018 l4.367013552616252,-0.19548309874154945 1.6464290529606291,0.17389433819583372 m-10.64977667658621,1.6689813273941911 l0.4490195287825716,0.973067583857707 0.09119996915901556,1.6229941892631543 l-0.19852241655694342,10.517274143546109 -0.2832187686100392,0.6368290149224798 l-0.5021729659029903,0.03694256903892505 -2.1582203244318787,-1.6528348280537564 l-0.9821224387069517,-1.2129930518396024 m-2.960255356225586,-7.538498959066518 l-0.24282052187296319,1.448530531654152 -1.499840799136445,2.6596568147698694 l-2.2186502570441893,2.770575526992252 -2.2926071560982657,2.11515025551745 m17.69990194362644,-9.971002946206582 l1.4196026626033853,1.0457847486568475 1.8289551137397522,1.7882907751744717 l1.3038469349250483,1.6404289672299304 0.663833041581069,1.2623745348996065 m1.9021514925044551,-17.029293159728425 l1.6262315702297276,0.20950302079557107 1.6304307410370835,-0.07528359759454167 l11.212302035535048,-1.6729663141734974 1.179891650769835,0.5488163590445231 l0.23977481339674772,1.4441479775050692 -1.0265862676458042,4.918245542715063 l-1.3798230251330448,4.855109848888081 -1.5378406195090781,4.326554198268294 l-1.0372507715817962,1.837666991634227 -0.5526269505356101,1.0872760985903054 l-0.5365222654297932,1.2331026461346868 -0.531652200308794,1.4491141551434195 l-0.5372841908853402,1.9320843395848442 -0.994010850823901,2.6083288149573813 l-0.527901571799857,0.8206596011456483 -0.5085840340933715,0.38016413517972003 l-0.4756081859035106,0.03562299891560066 -0.4448247845761004,-0.1780920253868833 l-1.2971208789628932,-1.4031475667464266 m0.7273767890400118,-30.108297660781844 l0.22503250745555278,0.8256432408158416 -0.009630713934620403,0.9551951127997944 l-0.7325816463704878,6.8692871304633805 -1.1496253900127422,5.422298877971743 l-1.42462876003551,4.6466727965550865 -1.795054713671831,4.420239898260774 l-1.6534411487938667,3.0594454496936794 -2.5637239644351575,3.4723246056348644 l-2.2954487953178613,2.1513268588316854 " fill="none" stroke="black" stroke-width="1" /></svg>