<?xml version="1.0" encoding="utf-8" ?>
<svg baseProfile="full" height="122.0072369081067" version="1.1" width="104.90986863781953" xmlns="http://www.w3.org/2000/svg" xmlns:ev="http://www.w3.org/2001/xml-events" xmlns:xlink="http://www.w3.org/1999/xlink"><defs /><rect fill="white" height="122.0072369081067" width="104.90986863781953" x="0" y="0" /><path d="M25,25 m0.0,0.0 m6.842811639808026,10.549530825662698 l0.4254274146676991,0.11640920182016522 2.7237208991834585,0.10083925355614284 l12.906860838744324,-1.555036171391409 2.8188425117200744,0.09944378457642729 m-19.29408526552574,9.040922053751054 l0.6880417564438308,0.7919106612455803 0.3354879998706471,1.5006187933888437 l1.6864568596563116,23.041478349200947 m-1.3429008864740182,-26.053235907949713 l15.997783025425806,-2.0251604016014735 1.2506299630254984,0.008653460108651976 l1.1784311941694854,0.562086110293331 0.6492860270595435,1.049931316497042 l0.04421775534507685,2.1939610674062013 -1.631803405246082,19.685974149524405 m-15.642521157970123,-11.494869688592596 l11.773803147365642,-1.407003969333265 m-11.292809013157413,14.416548099535582 l15.247580398058613,-1.5780722766794948 m-20.571237160376885,-35.898628727693946 l0.6350327586691443,1.0412308677428117 0.25421278698099836,1.7020826087375134 l0.19197731785165428,51.23135698910211 0.20093757191778694,1.6855706768673402 l0.3561870713202703,1.1649463381412275 1.330494059542961,0.6003691140636297 l12.674155863946527,-0.038279061438466454 4.063451087348343,-0.4901466137790362 l1.571940223491229,-0.6205183429494125 1.2168431336178929,-1.033494673266325 l0.7927373938772553,-1.434786019690521 0.420939841639869,-1.957365465369202 l0.09614038445539767,-3.3855995648650716 m11.784721232403147,-49.531402231801074 l-0.1566526687398677,3.156890844852881 -3.7123070566178877,10.739912125472918 l-3.5897238172879846,8.456281430397844 -3.528614936050577,7.780643448615414 m6.12496827503355,-12.384545421549955 l0.6278534213987105,0.366030727659796 0.9346378081028187,0.04146366100787201 l15.477839684904811,-3.4839055790608446 1.2469998681429662,0.3186874314226751 l0.5137061559569669,0.40470815362184726 0.42293861614144906,0.5763823169460487 l0.16442801797832438,1.695198178987608 -0.39121845576992065,5.755462185079119 l-1.28057276549742,14.589393633412735 -1.4924197704232103,10.90334523225006 l-1.9427197622883177,9.554966655216788 -1.0643932045496818,4.825006933807135 l-0.818459745984426,3.360301144991181 -0.997671247427171,2.3727524084396077 l-0.5516886259388247,0.6382374916021993 -1.1597994780396528,0.2597593001130787 l-1.210972165479779,-0.8223088272738324 -1.8490821066415157,-2.6762357780889006 m-12.705061399680226,-33.41526865862485 l0.6238135474058215,1.6220854713277133 0.12174003571201245,2.1928544608057132 m-0.37273562014330786,-8.5780096974358 l8.456302970038717,-1.8045502285024828 0.9900143394086378,-0.0025791564578679085 l0.60622857979384,0.4370150577085728 0.134798319545283,1.4270717376710935 l-1.5722335221695696,7.944725480868728 m-8.346819320152086,1.7767019567333808 l9.120027319828937,-1.3486327918789576 " fill="none" stroke="black" stroke-width="1" /></svg>