<?xml version="1.0" encoding="utf-8" ?>
<svg baseProfile="full" height="100.54886188916527" version="1.1" width="122.18480964404374" xmlns="http://www.w3.org/2000/svg" xmlns:ev="http://www.w3.org/2001/xml-events" xmlns:xlink="http://www.w3.org/1999/xlink"><defs /><rect fill="white" height="100.54886188916527" width="122.18480964404374" x="0" y="0" /><path d="M25,25 m0.0,0.0 m14.522066318587962,3.413870605515264 l0.45789767870653564,0.13442661337411518 2.9086396113052264,0.08033511874943101 l24.27448631622154,-2.337636272600806 3.9611163763842576,-0.1443769523957441 l2.501428103256632,0.265296603852647 m-33.876190679074355,10.25122227619697 l0.7223222512952834,0.8537192979667962 0.43425510429905223,1.389208659850792 l2.0103524725704895,8.093784835748387 m-1.6805259851835086,-9.326954592457652 l19.5836567559908,-1.964529411976287 8.891579740106607,-0.6998679758701851 l1.317662382020475,0.13085778671985163 0.9184994356264848,0.6660183903520833 l0.22547594668223167,1.1673433488836116 -2.5345903780974153,7.6372347832838265 m-25.5791852556455,2.4046877298008087 l26.380029265880083,-2.048478150253864 m-15.617342495539775,8.780182485411103 l0.4271783095594443,0.844898153904731 0.052868770986281725,0.9349096883559151 l-2.3740667714545283,4.214478599494235 -3.2549803122934167,6.357938200673419 l-5.119594061008705,5.276412387032304 -3.4774728927054843,2.46037699022663 l-3.168726818247736,1.7135026893268892 m14.198974023843926,-22.71725612986898 l18.404854702331743,0.743522096191481 23.429922362929084,0.794505507397239 l1.7792714633926405,-0.009099928216990799 1.4649479013173674,0.6424032177665084 m-24.52324924860623,-16.566232269639663 l0.6693910359460908,1.0003611364773348 0.2830382209513658,1.502974451092899 l-0.061230711845171315,32.165033865652404 " fill="none" stroke="black" stroke-width="1" /></svg>