<?xml version="1.0" encoding="utf-8" ?>
<svg baseProfile="full" height="106.25208666248344" version="1.1" width="94.65856700758353" xmlns="http://www.w3.org/2000/svg" xmlns:ev="http://www.w3.org/2001/xml-events" xmlns:xlink="http://www.w3.org/1999/xlink"><defs /><rect fill="white" height="106.25208666248344" width="94.65856700758353" x="0" y="0" /><path d="M25,27.233860166688547 m0.0,0.0 m6.6677035750532765,4.721670200291497 l0.41722286442405443,0.14490613764747862 1.723836552074528,0.0007284042701857427 l7.980672863862963,-1.1926481997346232 1.409837857472388,0.23009242602889482 m-14.866044170186019,10.819870759010776 l1.9610205858555618,0.23338725009171718 13.35805979667825,-1.8196000272307673 l1.9438598112949486,0.3218270788862613 m-8.553592870003246,2.61170001414494 l0.4047531091528773,0.9013145063392017 0.1777488656025589,1.5351584750656713 l-0.07091377823482962,35.50981947098366 m-5.649603127050155,-30.412960201867733 l0.2574136369561466,1.726597668659673 -0.09294435707298519,4.385643955014588 l-0.8076722426379801,7.1270681831617395 -1.3583100170321023,5.3101297133729775 l-2.344884909284992,5.4254659325148085 m14.697588471790512,-24.827061621146267 l0.5775696540652955,0.7122535446787543 0.3009836478663167,1.215176699954128 l-0.11306625400519722,17.98854586624813 m4.348893306723847,-36.9307445081248 l0.5526572905859075,1.710619036018558 1.5574025520506207,14.575837172758298 m-1.5556919336819615,-15.496447957386376 l18.603801675095195,-2.1371887474714977 1.2835263672072865,-0.08190859760134932 l0.8473580269624628,0.4006135059095562 0.5772789373043247,0.9778982747395069 l0.010732968887551542,0.6473076733688571 -2.562329890540619,14.05528599970388 m-17.893213400767483,-20.995043392332217 l0.8753805336382211,1.5634992607647502 1.0716004160085157,16.76318112545997 m6.74858592245005,-19.955855248881374 l0.5061821377294464,0.4192819515203528 0.19242721924562228,0.6489092273509517 l-0.8118741091309881,19.698308571385244 m-12.280998852444807,-5.624253405029367 l19.151336278337396,-1.9019038416809269 m-18.13938023735633,9.09267253817258 l17.025668779939185,-1.5574070451828783 m-19.46155906839199,7.2232198652799235 l1.184881871084357,0.2620272671411574 1.910286220571511,-0.06628724560527526 l13.375833013478363,-1.7217053382652974 4.612055026266451,-0.14808766638133025 l1.86018144813618,0.2744397474696191 m-20.39728865724448,6.749439319704324 l0.6272084166441048,1.7184411088382086 1.2353383657382833,9.037209819412853 m-0.8842648268080124,-9.698943836873251 l11.27166683492462,-1.6218513984775895 3.7157652164911923,-0.24153614920907535 l0.6873990801584493,0.6449783136528994 0.060085354361428776,1.3487121849840802 l-1.6603972396539097,7.265427662719011 m-12.829709657871364,0.8755719587419915 l8.214213443766669,-1.2350455174377097 4.67848816252376,-0.3990626434527873 m-12.209162840103254,4.777894798378686 l1.2238780079483838,2.6231924352934275 0.5936520330940577,2.3285416376777324 m8.429243712357396,-7.373335020664032 l0.4343135410885606,1.1680531560955982 -0.19016966534379828,1.341874025722511 l-0.9997878000768756,2.984857174320406 -1.1791826517010442,2.408931620978788 m-15.513124429286206,2.1012086543974253 l2.5167021668687344,0.2735938309382768 19.095138054425995,-1.4660167550898513 l4.434164340022679,-0.14552142841032 1.692135979227657,0.26266392363142227 " fill="none" stroke="black" stroke-width="1" /></svg>