<?xml version="1.0" encoding="utf-8" ?>
<svg baseProfile="full" height="107.1195695037236" version="1.1" width="107.03967682485715" xmlns="http://www.w3.org/2000/svg" xmlns:ev="http://www.w3.org/2001/xml-events" xmlns:xlink="http://www.w3.org/1999/xlink"><defs /><rect fill="white" height="107.1195695037236" width="107.03967682485715" x="0" y="0" /><path d="M25,25 m0.0,0.0 m6.369161986690469,14.662829065420528 l0.5328151108522209,0.1279754432559326 3.033216377126782,-0.012423288340736678 l13.730906786839567,-1.701954295926536 2.7056305682583597,0.08427349470695653 m-20.406055516186633,8.520869518660348 l0.5352392452309287,0.6878782414760505 0.2714371784447282,0.8808090660075388 l2.0471401070839237,13.253821314536113 m-1.7556063210147523,-13.78574621916956 l14.528962919275163,-2.0647358618823906 3.3817091593951387,-0.20886532524666893 l0.9290126538350314,1.2799052007400797 -0.6862565613576129,5.661606193331507 l-1.2560122518545584,6.15837667459904 m-15.292303988845882,-4.797692807730707 l8.322438590210574,-1.4066576031137836 7.503834344313188,-0.8709336867005758 m-15.03484248649747,8.201892821440403 l13.894307810559287,-1.8114137062117743 m-19.235948712769428,9.763871859511045 l2.9486120694952165,0.1687519038377175 16.94280106539281,-2.1409845890695705 l3.2517057088434758,0.12515358513182423 m-11.751334865278107,-35.85462125406895 l0.7085176098978868,1.3090538265977052 0.28681786474045395,1.260861923571327 l-0.0815620104726593,47.14262467654971 m16.85776939126513,-40.82973724634121 l1.1920781656182011,0.19540576687363664 1.458656352498046,-0.0819109979797623 l11.336631182405583,-2.3399579748140216 0.6244131945610378,0.3565482860395239 l0.27685645346584475,0.5611014293770209 -0.4138481139887718,3.3906310105843507 l-1.6762244050239221,5.030933842773089 -1.8415023925957692,3.7743856589476836 l-2.268888377913821,3.6739513918538274 -2.587821166710534,3.3932990715357825 l-2.9716328043835913,3.1440704202447103 -3.247096991368974,2.7168570790138693 l-3.5278916484385094,2.286390767029763 m4.13234607124424,-19.566689622830527 l2.8679098112340133,1.9717088729264516 12.37725860925304,10.733012478081747 l4.412712875098084,3.325598884307314 3.6136061764297267,1.8793165974786408 m-24.209376881842005,7.973618013291684 l0.6828567689317542,0.20731847503075349 0.9585542049025403,-0.00678207615517383 l13.833752680319241,-1.9011083345991142 2.2108543273574957,-0.13672721646795588 l1.5769203380195278,0.23705352078262826 m-10.290714461605694,-7.516427299734558 l0.6097682362578812,0.8587534065976391 0.22374483281962415,1.665844779130946 l-0.06529061493346042,15.9264794850609 m-13.624889675769785,1.1993553375223176 l3.224192195547453,0.36274952624903645 10.804414706999097,-1.0183358045824458 l9.537607929089225,-0.42848792215397064 3.863459376527522,0.06380155170905503 " fill="none" stroke="black" stroke-width="1" /></svg>