<?xml version="1.0" encoding="utf-8" ?>
<svg baseProfile="full" height="104.70550916600195" version="1.1" width="93.60999017079756" xmlns="http://www.w3.org/2000/svg" xmlns:ev="http://www.w3.org/2001/xml-events" xmlns:xlink="http://www.w3.org/1999/xlink"><defs /><rect fill="white" height="104.70550916600195" width="93.60999017079756" x="0" y="0" /><path d="M25,25 m0.0,0.0 m15.588582170698984,13.442870837956104 l0.37916202994779086,0.15201055411646436 2.1948804927735974,1.8545472894766923 l1.101455031051278,1.331071056915555 m-6.714609600484827,6.2627131301682 l2.518070387069525,1.8052481770405362 1.2453150558817638,1.3046193443733884 l0.5521775615820631,0.9673813582113407 m-5.29018019620375,19.534421461474764 l1.1975100685878783,0.4474764390528338 0.7544378740811403,-0.2969947739279766 l2.3441343614771535,-3.792906335493902 2.1575926436147057,-4.347032312461309 m13.48802040053556,-26.047895040661537 l-0.1365389988512078,1.6573402692197343 -1.729613842730926,3.3363896254814933 l-2.9008046354333725,6.201102241399192 -2.9869521306142137,5.963627352124688 l0.705604361964379,0.41066343400290567 1.1906518949625384,-0.2028537828810873 l15.75420323694707,-4.933577605012653 m-3.4931647396310894,-4.61892200440869 l1.6624300514314894,1.749243861685078 1.846641025676653,2.491426988593906 l1.4646633425203872,2.435967404111673 0.7163223239429813,1.8628110304489358 m-18.064993883429516,5.338432346548519 l0.2557438839724264,1.2990714912130703 -0.3307268351421429,3.9819442066709563 l-0.5934221560227154,3.4775944234067557 -0.8185200689775385,2.9973728383885554 l-0.9932528101238742,2.452807393406211 -1.271157670961112,2.2434644927771754 l-1.514532283781202,2.06857175620764 -1.5490896538742522,1.609162136891143 m13.253078483414718,-22.20337621272267 l0.4632347207024219,0.9149090021016795 0.13259009767341323,1.076197361619554 l-0.049251959080161244,17.186029509245625 0.2854189241290613,1.8935952490633527 l0.5683210401143471,0.8486658901765459 1.1327549443146108,0.4688729244855079 l3.3700443910272595,0.0814443555159895 1.8607039917867711,-0.32213037908715275 l0.6505535995841503,-0.3493162863910125 0.6770073946774577,-0.8256307317917013 l0.32330465854615226,-3.0250955498364807 " fill="none" stroke="black" stroke-width="1" /></svg>