<?xml version="1.0" encoding="utf-8" ?>
<svg baseProfile="full" height="105.2616744111088" version="1.1" width="97.82399330720777" xmlns="http://www.w3.org/2000/svg" xmlns:ev="http://www.w3.org/2001/xml-events" xmlns:xlink="http://www.w3.org/1999/xlink"><defs /><rect fill="white" height="105.2616744111088" width="97.82399330720777" x="0" y="0" /><path d="M25,25 m0.0,0.0 m1.7989712425001347,13.248634081787548 l0.300865362277001,0.28208356103452237 1.0349878512107307,3.36645791283024 l1.2202733794209262,7.105826556218426 m-1.6783382230923272,-10.057751505059752 l11.330440598434418,-1.9198043677006216 1.5764586401255836,-0.19592250090021085 l1.1386139811337816,0.33148691405084263 0.25623235428429936,0.774838755952868 l-2.1207484391795566,8.343786303545379 m-10.326346149030146,1.4492818333220816 l11.242434330521563,-1.2909795881256774 m-6.619810758040314,2.066608800861777 l0.8135661376073283,0.757443672522677 0.33651326632862805,0.976205405064061 l0.1625300705012427,18.183652957360376 m0.12646200702296473,-11.93325565770699 l2.7188063709509334,-0.7857998067741013 3.4725349124586704,-0.21853246776915325 m-13.722493334896667,1.6164247344419735 l0.8159251073336512,0.772649759272865 0.33188656486230655,0.9742502480337326 l-0.03986654981522441,13.03518265850181 m-3.407299069287984,0.2593524988049061 l0.9466499928481387,0.6512502344065294 1.1325277236815294,0.12327010537762544 l14.059150970212908,-8.110419190443087 m14.478196930119493,-31.311911819773222 l0.8448681956133095,1.8457987573754369 0.055987143668591276,4.586640879567174 m-11.715248399712351,1.5884845446692155 l2.689883801318425,0.028191877675588076 19.698060479000155,-2.1617420363925666 l3.2302500854466514,0.04773218637940429 m-20.879001065351943,3.8724305912744397 l1.7733773413025744,3.1307110443945367 0.908212167972387,3.0079030412425865 m11.230017536948282,-8.14824349098691 l0.22494255438291957,0.5698646364415059 -0.14290219776874705,0.5271023633575597 l-3.3275195216948554,6.50789867122339 m-15.85420736813926,1.6517053874626768 l-1.1633458612729275,8.04096468861505 m1.5034684038895647,-6.392911849369166 l17.042729745344822,-2.418700907035274 8.02797585478058,-0.673533429244215 l1.309806007779271,0.09176810495178812 0.7379711495501473,0.286718053291562 l0.24954198365617422,0.4407612173994385 -0.5633503074895628,1.1966901610250982 l-1.9400067905752383,1.9704351627523575 m-22.696395568515317,6.775986231508067 l0.8467222726782911,1.5959988505404006 -0.08757182235502953,13.245236791686656 m0.010233580415345825,-14.039839574553277 l18.821667304034236,-2.1399983207088327 1.4055883778172114,-0.0005081722459464864 l0.7586746005353315,0.7175938349727834 0.2677543095406124,0.9873591057241773 l-0.3098292242028779,8.107214796362518 -0.4174583888935475,3.6556149572378986 l-0.5370626626277053,1.6351724252993056 -0.5796531357947731,0.38651884149897847 l-0.6294536868710752,-0.24399365227201744 -0.6148100278656449,-1.4702315521806881 l-0.6664125763462312,-1.3972939413268508 m-8.418121119477696,-17.94746467576264 l0.8599341332365015,1.7376095113856973 -0.0823864644637313,25.56571920873447 " fill="none" stroke="black" stroke-width="1" /></svg>