<?xml version="1.0" encoding="utf-8" ?>
<svg baseProfile="full" height="100.77324058342683" version="1.1" width="107.29822823576723" xmlns="http://www.w3.org/2000/svg" xmlns:ev="http://www.w3.org/2001/xml-events" xmlns:xlink="http://www.w3.org/1999/xlink"><defs /><rect fill="white" height="100.77324058342683" width="107.29822823576723" x="0" y="0" /><path d="M25,25 m0.0,0.0 m18.429844443398444,3.8487798240610727 l0.4726510451440896,0.09751953658788892 3.03528509870416,0.07452707024128186 l22.57633677178274,-2.3213628266239925 3.7770312759895432,-0.1646334130715502 l2.680416874883104,0.2517249511603696 m-33.04143960941035,9.967810068264429 l0.7042377041289257,0.9426502976879143 0.39718770155580513,1.485067490437181 l2.004377915106354,7.850627304894077 m-1.6358457161379492,-9.386898953035377 l21.446622346796556,-2.082307403721083 6.768884796902479,-0.6656205707130542 l1.3408619200068745,0.09733527220891676 0.876933728249196,0.6042379144694446 l0.2081427770932966,1.1482150975930432 -1.2694991119044226,3.969715102067267 l-1.5534783242193824,3.604870458784113 m-19.80505633756363,-13.605380949029444 l0.6493520927783536,0.8843996801877602 0.2556988649165683,0.9368777090120864 l1.1843674362620593,11.801415909634285 m9.564647668202833,-14.882237594359177 l0.5500244074816618,1.0007258770444936 0.09308440046560021,1.0984791106725351 l-1.6943276641141052,12.2709951617572 m-17.324063862118717,1.9490239791503678 l14.606253802001872,-1.154807921267491 12.474658385589656,-0.7293542331030531 m-26.625219741899137,7.08093273773954 l1.4805796710469403,0.8896553369733464 1.7559562597557468,1.6603756641918779 l0.9985241948626247,1.284901678515571 0.5485091024430074,1.1879326220702495 m19.82220638355465,4.483631369688548 l-0.4572697115898984,0.5103745414340184 -0.3939416191614873,1.002147880737643 l-1.5899368240124383,1.9573052638630255 -2.4376095110792004,2.186688186319754 l-3.0553159213502568,2.2219366016320676 -3.377617365067532,1.986477919904794 l-3.985195314650453,1.9519306356387824 -4.487339450102253,1.8033148505952223 l-5.219762880734007,1.6732413431308746 m10.491111503291306,-15.49050174735628 l2.037351128476511,1.2772270917651434 3.086921038729161,1.9931672048743916 l15.979759750918264,9.96222553880921 2.530730406628893,1.0918815088268712 l2.422596303735193,0.7910694169031254 " fill="none" stroke="black" stroke-width="1" /></svg>