<?xml version="1.0" encoding="utf-8" ?>
<svg baseProfile="full" height="91.67717929968961" version="1.1" width="97.95768333016926" xmlns="http://www.w3.org/2000/svg" xmlns:ev="http://www.w3.org/2001/xml-events" xmlns:xlink="http://www.w3.org/1999/xlink"><defs /><rect fill="white" height="91.67717929968961" width="97.95768333016926" x="0" y="0" /><path d="M25,25 m0.0,0.0 m14.249412089187096,4.291660299708395 l0.4535471801325325,0.21909404403233596 3.046842230129032,2.099824335437065 l1.4240395176834433,1.4320087986423662 m-8.3750646697332,6.88932016169102 l3.460505466642555,1.9525036020946256 1.6658861115219705,1.5999625589342077 l0.6354925799942643,0.9288638647661736 m-6.344703268171655,22.26394163438342 l1.3466583667979717,-0.018262723390115147 0.8837717554401062,-0.7534664143941833 l2.2198859017347643,-4.173675545649208 2.392016732104163,-5.311625118007327 m16.034047802073612,-28.816111128276624 l-0.264842683073381,1.6029444451055685 -2.067527481366933,4.066226385008759 l-3.3744133958871494,3.3622562502205855 -3.9855811446736413,2.988524681594174 m9.805583290407283,-8.06831180503691 l4.822096988118549,-0.38937068136133157 5.776056695189041,-1.5230876153551016 l0.6315870193424679,-0.02519595635657785 0.4956559624838794,0.2929666800551789 l0.21116563954282583,0.5216742749300324 -0.7098162323091243,0.6025824523621647 l-7.773101746933616,3.2190881343883304 m-3.7350412614677873,0.9217322533055913 l0.5787444546767009,1.1236767293529522 0.3078863322218682,0.8410857252117565 l-0.026523678900686815,15.818036425796977 m0.5537779509939925,-9.817536988784289 l9.058601880864225,-1.1224969451124038 3.108097116528649,-0.018635196437366552 m-19.76225284828442,9.467269389701384 l0.5771039834686721,0.6808990910929593 0.26406292014337657,0.8133167103225615 l1.6248527376998052,10.556635116499626 m-1.3985728974844025,-11.285089791085966 l16.552280943844906,-2.1292150564333823 2.2361609651633088,-0.07537411259439328 l1.022818673722266,0.5552085632562035 0.3364853506019179,1.0899441946725092 l-2.0408146843013766,10.25415732576366 m-12.304341721375096,1.4260030858897392 l14.093835082785745,-0.9988270442143136 " fill="none" stroke="black" stroke-width="1" /></svg>