<?xml version="1.0" encoding="utf-8" ?>
<svg baseProfile="full" height="109.22860955948569" version="1.1" width="112.64427093537564" xmlns="http://www.w3.org/2000/svg" xmlns:ev="http://www.w3.org/2001/xml-events" xmlns:xlink="http://www.w3.org/1999/xlink"><defs /><rect fill="white" height="109.22860955948569" width="112.64427093537564" x="0" y="0" /><path d="M25,25 m0.0,0.0 m1.4652004166443788,12.094595310134467 l0.48006710663906144,0.4030658522786538 0.6619487362078255,1.0724495530034188 l1.1677391378052004,2.4981674626144055 1.8950651937601415,8.770733200639858 m-2.2705080878586794,-11.960089640142225 l14.095478243804672,-2.0778177029067244 3.3512262553789887,-0.30031804493371844 l0.9331485370100943,0.16319355801302304 0.5836128276739552,0.9546472914248246 l-2.6654166104487147,9.883967073949716 m-13.843354853003897,1.8121351258820806 l15.974494127381673,-1.5887093099159224 m-8.647934872169152,2.6773045200859804 l1.0169212879129033,0.9273263695959583 0.5506484578301291,1.4759793891807254 l-0.17575748170003513,23.103010126615946 m0.5738228050357841,-15.118722406671928 l6.595465097805517,-1.1018859462031918 4.186756889540179,-0.16289095440662169 m-21.273633051467407,1.6277828885178158 l1.1056580144846517,0.9064566559990058 0.44181719612626613,1.0793130136395206 l-0.16246949744672176,16.409503372604075 m-5.576942262004114,1.1408172605746574 l1.2573570427038434,0.5982417128304571 1.5212035363955168,0.12556365827879526 l20.201257143936594,-7.696345972830074 m6.531865743602123,-35.53093132754194 l1.3894576734334292,0.6348506719505898 1.5056730799619449,0.2422956841194242 l21.36021404316113,-3.4384005639779973 2.2607369568091573,0.08129535485128958 l0.710818114473451,0.4056507600145645 0.3101346434846398,0.6097855483053068 l-0.4179336124855808,0.7894598132771387 -11.259607560769908,10.493920377219041 m-5.788653620405655,-3.0369727250339 l4.509516193392473,2.601825482801896 1.669469802249824,1.3439781385217768 l1.0142609564394927,1.2579829232519641 m-17.272309403020373,1.8002146398383614 l0.6549982961470571,0.8262659024734925 0.2216582922831429,0.9064156819760273 l0.11748217263274259,31.523499779585674 m0.6882225628058932,-32.22467741333286 l28.059164825013973,-2.0256471777942857 1.2120805262403762,0.07392839727930403 l1.4606421596948937,0.9023033552749512 0.2635077522527725,31.972396712507816 l-0.3562961257576053,0.9029207680898822 -0.6421520484131422,0.28839574350745634 l-1.7437287882944443,-0.7704892596799112 -2.1010013910198735,-1.5962876112411142 m-25.78853804939521,-20.300467465936666 l22.47897304907057,-1.672067484100222 m-22.745122757295178,10.724444760963662 l22.552840609046633,-1.6154281511820519 m-8.97287749754934,-16.8657347816867 l0.821164419561618,0.8471168864766929 0.21723601047717153,0.89098062881867 l-0.12695414263921825,27.510976662860607 " fill="none" stroke="black" stroke-width="1" /></svg>