<?xml version="1.0" encoding="utf-8" ?>
<svg baseProfile="full" height="96.2051237611915" version="1.1" width="103.27376633674908" xmlns="http://www.w3.org/2000/svg" xmlns:ev="http://www.w3.org/2001/xml-events" xmlns:xlink="http://www.w3.org/1999/xlink"><defs /><rect fill="white" height="96.2051237611915" width="103.27376633674908" x="0" y="0" /><path d="M25,25 m0.0,0.0 m15.30337074670082,12.27057642708953 l0.5101713484380515,0.1192968580165051 3.2227662937544803,0.049935301642048346 l27.56213274952623,-2.3262568388128657 3.895401076466972,0.23763369024886546 l2.779924121862516,0.4007640226526185 m-37.33681013093733,13.242651071540278 l0.6926032664467849,0.2631144298438794 0.887896867433149,0.1274333405548824 l13.476074133679177,-1.6411494642379423 m-8.880049814358586,-6.412723746838435 l0.7061322636306775,0.8650772039336158 0.24480695677559178,0.9314295510483009 l-0.05262384660775308,11.649936183191782 m-10.297236450619662,3.086291113016313 l1.6864341681678596,0.46004998802419295 1.2942136511977178,-0.16781370480197885 l15.903543647620838,-5.48098989325626 m3.7937424472143904,-23.50109575195929 l0.7742980447336091,1.2766356635187872 0.18546579225713497,1.0831735605790578 l0.11078361378425398,36.394142578135366 0.012236183016819167,2.2524871389555434 l-0.6687767818331367,1.0194277320195266 -0.6573078897404833,-0.04756369345523266 l-0.7217368870181737,-0.4549675004392232 -1.81009853292495,-1.8241524166975422 m-4.9791454581549255,-24.678460657015897 l-0.2519672596685525,1.9490741325106689 -1.4097874969114925,3.4797987666643335 l-1.8889683794766383,3.4722661030059987 -2.1758162460395765,3.0679260731933264 m20.378219996139357,-11.596389158180322 l1.933546703680142,1.935612880988339 2.2065328824381254,2.993299440496523 l1.6777040981756275,3.0811995932142935 0.8165093975963725,2.3609053445626436 m-5.701077502757495,-13.022468138815759 l0.157854184838467,1.8140839883591482 -0.7333579199783233,4.5776182836305574 l-1.157783742473984,4.44171886742863 -1.7414343164809467,4.601822104583981 l-2.0071974833199158,4.09293955410065 -2.4267434272387742,3.868241451490051 l-3.0065912933460552,3.5273132631474495 -2.661438211020153,2.3652790243145594 " fill="none" stroke="black" stroke-width="1" /></svg>