<?xml version="1.0" encoding="utf-8" ?>
<svg baseProfile="full" height="94.58925248133869" version="1.1" width="106.95392299735693" xmlns="http://www.w3.org/2000/svg" xmlns:ev="http://www.w3.org/2001/xml-events" xmlns:xlink="http://www.w3.org/1999/xlink"><defs /><rect fill="white" height="94.58925248133869" width="106.95392299735693" x="0" y="0" /><path d="M25,25 m0.0,0.0 m14.903973927314361,7.965654285847009 l-0.0018245982610983966,0.3691661380103031 -0.8427659105491487,3.084452090000232 l-1.79949509275986,3.7065286307888834 m3.6946276777463525,-6.6396784976062735 l27.33103635343962,-1.9567326826901443 9.159360833777738,-0.3983761605628556 l1.0391653741227658,0.23103814472292297 0.4950935906232773,0.40247620166824527 l0.029051442464744583,0.5175333784139856 -0.8679864270701523,1.2054392295422387 l-2.4536899396096645,1.9298808224501467 m-30.553162688079702,3.2875431844330727 l2.0572285806673585,0.15870178913362692 16.68337300153977,-1.4137304847351455 l3.2957900048575914,-0.19322981538460088 2.4355348249877373,0.16075140750213573 m-27.51060520542553,5.4760462813419535 l0.9050932462377648,1.045961958184577 0.14502723464953726,0.707870180243545 l1.5211139347332192,11.08894477879357 m-1.1687886093505595,-11.842004938077146 l23.19776208098615,-1.709485982443305 3.0884806527805155,-0.14398802146282835 l1.895353814831953,0.22586719391964885 0.5438886098329735,0.5645656856126359 l-0.2715754600138509,2.463001760119754 -0.9537291446263658,4.3060309301236 l-1.3655910211390325,4.060070644256739 m-25.06981159534866,-4.406855279357899 l18.764751643838036,-1.0253125355208748 8.075907529306779,-0.1254310633830783 m-26.818586585165225,6.7269893981335755 l14.861891813920156,-1.0680997135176236 9.805061960314546,-0.38713378735346343 m-35.82796657446129,7.341592477523521 l2.112044270915025,0.22718200493283436 2.7709707490774313,-0.008871793223006793 l37.71135591764009,-1.5722496110733288 3.537647014573429,-0.04049396083526603 l2.3989157640381444,0.2608173879674821 m-25.481440632037113,-26.082857842762632 l0.9210197810254708,1.1098673134927544 0.2136860200804232,1.0279085564686445 l-0.1401645715487556,33.951902797700505 " fill="none" stroke="black" stroke-width="1" /></svg>