<?xml version="1.0" encoding="utf-8" ?>
<svg baseProfile="full" height="101.35508460931005" version="1.1" width="93.92817732314046" xmlns="http://www.w3.org/2000/svg" xmlns:ev="http://www.w3.org/2001/xml-events" xmlns:xlink="http://www.w3.org/1999/xlink"><defs /><rect fill="white" height="101.35508460931005" width="93.92817732314046" x="0" y="0" /><path d="M25,25.780912001082218 m0.0,0.0 m6.695402156065409,3.95839189341813 l0.4027949165306844,0.11737826794998375 1.70531093238452,-0.014745500117028052 l7.708753338909406,-1.062550176756718 1.2875893043532385,0.22738738480976323 m-14.152158523932021,10.426022316540884 l1.924567809830187,0.30902873737809783 12.766389451156686,-1.608240693311 l1.9299328834542508,0.3326328426879427 m-8.355833892961355,2.3801576499916 l0.4332474165322878,0.7894286130698543 0.22525986422530622,1.4558561963475538 l-0.0718260589474712,33.26342507621877 m-5.497947300011306,-28.51638422877578 l0.25348351894779836,1.5755510234736405 -0.08683252627080346,4.109767560348082 l-0.8091878768807576,6.582827818155093 -1.3594415681817302,4.921378063392335 l-2.292859939012174,4.985179930166357 m14.671913859923125,-22.809144287808866 l0.5701638708894664,0.6633379138548986 0.29537266977968063,1.1153134807489757 l-0.11475916405654625,16.45146890683364 m4.217882067053955,-33.15225248463945 l0.552512347185205,1.5743136829491315 1.5662578532226203,13.823991695367752 m-1.5554825780012054,-14.62286618057069 l18.153476111133465,-2.0107825541800795 1.246744201275587,-0.0782125985879278 l0.8260200962370837,0.36195944977333117 0.5466744100904967,0.9105790043269013 l0.002918903612876281,0.6012229475336545 -2.4976119343525993,13.202618216586263 m-17.412976908432228,-19.60499565664028 l0.8655558995211382,1.4394491495145714 1.075621545705914,15.895001521032379 m6.544292576511321,-18.774406982163985 l0.49343244554443905,0.3891986892400677 0.18678324160350862,0.579176172552549 l-0.7662760387901685,18.505592422491183 m-12.109237204038884,-5.246364771981932 l15.322334164001093,-1.716929913704302 m-14.393977027560867,8.33174553833213 l16.815003850741686,-1.51420044587262 m-18.84380670935443,6.6236769238098585 l1.145344625715674,0.25135494831555044 1.8128606780693595,-0.06925902636837339 l12.967790054421828,-1.5749247919385017 4.294230112561126,-0.13343098444727636 l1.7884165239428311,0.24824829851221697 m-19.832694077666684,6.240417752880143 l0.6143680198614286,1.5946143230544925 1.2182706240175074,8.311032031822124 m-0.8737860762620087,-8.91991798765092 l11.000666285910748,-1.482352313781023 3.621781042205472,-0.26657987934323446 l0.7063609518722949,0.565474024104094 0.07988396713176149,1.2121330732559719 l-1.6152034243486137,6.7842151231076 m-12.617704696273188,0.8377649539971035 l8.104815983057101,-1.1434801905416132 4.547847351334273,-0.38232109882734966 m-12.03402055827783,4.292947076351505 l1.205905614853999,2.432890395681606 0.6003128696155496,2.150113753225402 m8.257026513203819,-6.73779368836026 l0.42596087514366393,1.0756521780384065 -0.18858267713340449,1.2365868629021421 l-0.9526049309289171,2.742056436392669 -1.1365809665535769,2.2280869062120945 m-15.158022065869213,1.9257454808430865 l2.4480021011524102,0.2525949706714481 18.572215386785913,-1.3597728172282941 l4.308911286198779,-0.14336217837202533 1.650929473760449,0.2432427207536542 " fill="none" stroke="black" stroke-width="1" /></svg>