<?xml version="1.0" encoding="utf-8" ?>
<svg baseProfile="full" height="109.4925162452273" version="1.1" width="104.69054009299725" xmlns="http://www.w3.org/2000/svg" xmlns:ev="http://www.w3.org/2001/xml-events" xmlns:xlink="http://www.w3.org/1999/xlink"><defs /><rect fill="white" height="109.4925162452273" width="104.69054009299725" x="0" y="0" /><path d="M25,25.00000074505806 m0.0,0.0 m6.061433553695679,2.7056479454040527 l-0.036865402944386005,0.5176481604576111 -1.116306558251381,5.12437641620636 l-2.187744528055191,6.409301161766052 m4.762362837791443,-11.279281377792358 l29.381301403045654,-2.8140732645988464 12.804980278015137,-0.6636197865009308 l1.2375877797603607,0.3494125232100487 0.6702181696891785,0.5772457644343376 l0.19854530692100525,0.7499086856842041 -0.17691988497972488,0.866379514336586 l-1.0959155857563019,1.8587654829025269 -2.469726651906967,2.661801278591156 m-35.1128888130188,5.042982697486877 l2.5943708419799805,0.25807909667491913 19.661433696746826,-2.050457149744034 l3.949110507965088,-0.24409495294094086 2.3709648847579956,0.25112027302384377 m-31.930718421936035,8.543919324874878 l1.0373397171497345,0.6596608459949493 0.350349023938179,0.8006518334150314 l2.5037822127342224,17.210779190063477 m-1.855359971523285,-17.425670623779297 l27.127487659454346,-2.540818154811859 3.624899387359619,-0.19335178658366203 l1.9404993951320648,0.3646950423717499 0.683329626917839,0.9658224880695343 l-0.3501574695110321,3.7955185770988464 -1.041000634431839,5.997226238250732 l-1.546899527311325,5.964532494544983 m-28.530588150024414,-6.146391034126282 l21.48852825164795,-2.1829767525196075 m-21.49057149887085,10.380208492279053 l18.625117540359497,-2.177187204360962 9.914324283599854,-0.5569400638341904 m-41.06312274932861,11.519033908843994 l1.9956699013710022,0.42884767055511475 2.0011188089847565,0.03137922612950206 l30.279693603515625,-2.5836431980133057 10.723490715026855,-0.6751136481761932 l5.865770578384399,-0.195985808968544 2.8416159749031067,0.44874899089336395 m-29.010090827941895,-39.40664529800415 l1.1131138354539871,2.1308712661266327 0.5418064817786217,1.9629763066768646 l-0.17630793154239655,52.05122470855713 " fill="none" stroke="black" stroke-width="1" /></svg>