<?xml version="1.0" encoding="utf-8" ?>
<svg baseProfile="full" height="154.81191416122056" version="1.1" width="104.59161095382149" xmlns="http://www.w3.org/2000/svg" xmlns:ev="http://www.w3.org/2001/xml-events" xmlns:xlink="http://www.w3.org/1999/xlink"><defs /><rect fill="white" height="154.81191416122056" width="104.59161095382149" x="0" y="0" /><path d="M25,25 m0.0,0.0 m30.307440817461632,2.365126519113337 l0.08222365241465641,0.4893712700989831 -0.22706395296269805,1.2103574374373443 l-0.7597166677533992,1.9089768238910623 -2.3542860576464717,4.970405168910934 l-2.5579096803365236,3.763662314578403 -3.4560274815260055,3.8355741814339184 m7.5274879423615015,-7.908976600495857 l6.442404075799693,-0.547302506434646 12.545219277705772,-1.80500766121118 l2.7433142057044373,0.017139094351279655 m-25.289054238097435,11.277135648288983 l3.083128678233853,0.6886940630362173 16.43606888394413,-2.721997589372252 l0.891762953422848,0.22457309406560627 0.36543935230480645,0.4068442848907146 l0.13824933760416694,0.5168378481482289 -0.3955742764262725,0.6263103268376294 l-5.3931413211622745,9.925614227524354 -2.3394670312442942,3.3505641681135625 l-0.7778724933169741,1.1980896361153095 -0.6855749665523209,1.5626160450054583 l-0.634535537131267,2.6123081182713603 -0.4366252180575733,2.850743294371699 l-0.22963701045661436,3.1421084245897477 -0.058213760907050334,3.0800986789674356 l0.14727243527426487,2.9874505844392365 0.4028215013252878,4.244000349734386 l0.6711877996122959,4.019948782120079 0.8506533774692956,3.883211837611428 l0.9835603435151403,3.8683260198699663 1.111792374919022,3.632534788485763 l1.2305197377049504,3.6856057053318216 2.717906242594793,3.6465825683976565 l3.1493130220638315,2.0398164783675274 3.6828482254262074,0.7505868067748945 l0.9767412284016492,-0.293291267165313 0.5145706521643688,-1.1831052226777683 l0.025888929650944494,-4.016890287026459 m-27.336992549086983,-20.002691252686493 l1.954179136103247,40.4966041033827 0.4716144496606398,1.554951252334958 l0.7532882444582817,1.006417396661787 1.0836463415405369,0.6403740010934246 l2.8588832537230795,0.4581730762454534 6.209440283698788,0.025818877676423723 l4.207648462062719,-0.4435529392005305 3.562999058850972,-0.6847122166066085 l1.9808308692814462,-0.8357776975746701 1.3437838590517976,-1.3281786358911103 l0.6518064732933174,-2.1922295675477272 m-41.70829654873245,-43.5100717224226 l2.006071182430351,1.3986557914958708 2.355622128081189,2.2130771558097377 l1.7779911822104855,2.217825075903108 0.7775150340720633,1.8022153545745374 m-9.205008264285198,16.679260023833876 l1.2092559859089063,0.45075738693609313 0.9068240189740062,-0.14291848376983715 l6.860670037928482,-3.166117273817347 0.6190139869840633,0.37842502166421854 l0.3039532156632038,0.6917874225463078 -0.06137376139331478,0.841722480616171 l-2.6017005936706754,7.12213696676032 0.18501318751274082,1.3676723652438385 l2.555617636651338,5.695376272917045 -0.34533782589864204,1.334790377567921 l-5.921061764903147,6.78799009987025 m-2.5835029217160552,1.1898167565531714 l4.180023063349026,-0.640293690244945 3.107442929714639,0.09954202385866695 l29.122226351074552,8.317175208125118 6.298512558476339,0.6832496945205699 l5.57789689924938,-0.6204037852258356 " fill="none" stroke="black" stroke-width="1" /></svg>