<?xml version="1.0" encoding="utf-8" ?>
<svg baseProfile="full" height="114.43546071242439" version="1.1" width="107.61162754138141" xmlns="http://www.w3.org/2000/svg" xmlns:ev="http://www.w3.org/2001/xml-events" xmlns:xlink="http://www.w3.org/1999/xlink"><defs /><rect fill="white" height="114.43546071242439" width="107.61162754138141" x="0" y="0" /><path d="M25,25 m0.0,0.0 m10.379546992802023,15.179752751532702 l0.5293841430281665,0.10127709360185803 4.638883754150653,-0.047249546374684565 l13.89751919369593,-1.77375240798658 3.0895112680074424,0.1466578180735352 m-11.347706099388068,-6.749407634240892 l0.9789969788157862,1.434241483016521 0.14910261857579465,0.9023022842723297 l0.07283541574344017,12.723755064610126 m-16.582969279055163,1.5437994582301622 l1.8728320741012254,0.34871442701227956 2.0095748046063475,0.011959551930977851 l29.798343374619154,-2.446245608270891 13.172840458081502,-1.038968455270321 l3.4135178733769957,-0.24902465348078837 m-45.05969555286563,9.168692810080406 l1.193022202488712,4.774314569001887 1.0373613055329942,7.513557268593127 m-1.2908136302492628,-11.595934063545378 l15.837368331323233,-2.1269087711916623 3.7831650494970646,-0.33786153859001833 l0.8003714654339985,0.1546830830117108 0.6768514169917927,0.44591379240167184 l0.31859588954063045,1.0417747521310068 -0.880867003763894,5.837297218121142 l-1.1778510641044686,4.2386082459089796 m-9.675330587732661,-9.956230660585558 l0.6112322021055353,1.53784097269282 -0.10654034094526049,8.228108832114348 m-9.119161839248182,-3.798197091971973 l19.329082513655358,-1.7534060368997357 m-18.864525768120874,7.273045743307659 l17.68433039193952,-1.5414260205997166 m-19.473878709139424,8.998647967605184 l1.438647288705703,0.1155293891134817 17.502353747360395,-2.170507791907579 l4.060836712971443,-0.025889553775433536 m-17.451912922483316,-2.622238048912772 l0.49319873599629516,0.6764794270210891 1.098769829119956,7.94276416858666 m8.102681473762962,-10.241163536374351 l0.38832339121533904,0.4279969592490443 0.36125484173801764,1.1433236050202495 l-0.7048741754661527,8.299805726677855 m-19.010828993904816,3.0331220498763902 l3.150544403719512,0.05806037298642881 20.90667286420322,-2.46661718582411 l2.4670876718876236,-0.15904586253175554 2.024747310069468,0.15405304036383766 m-17.8497928322914,4.997466696549758 l-0.17602195691757758,0.9500683307471899 -1.4940907591619712,1.8197959478035757 l-2.4744583323320475,2.1110791472616306 -3.0670846783236176,2.201045132250968 m14.39424858196051,-8.314148672912806 l2.043375062670745,1.3003975470545466 2.1085682393368366,1.8060021948960696 l1.769993348986973,1.9017073630764225 1.0226104286525255,1.6374133745605912 m4.731386188015183,-54.16974430058912 l1.0128206754969893,1.5663692388675425 0.3399583982222066,1.0016508887451727 l1.6558259157016724,13.262206533102189 1.8943855424425553,9.527015159587993 l1.9277639046211603,7.109579857360142 2.3588578779053537,6.753287577010125 l2.0599937841733436,4.605780228748971 2.289006279891268,4.109449961790524 l2.5045953243831236,3.6516532312471166 2.653746790689731,2.7678304653247707 l1.1300616514309354,-0.010162915475934653 0.2534460834308657,-1.5713737459694044 l-0.2607149970627297,-4.315279318617628 m-5.209726886209209,-27.90871033787215 l0.022029752358224425,2.1920694896102595 -1.1738696097323653,4.35341818408889 l-2.069359740659405,5.408049952453078 -2.4239616859765087,4.909267397073407 l-2.4612203065822422,3.9910731120750333 -2.1687644989066532,2.922112657336369 l-3.362464427987437,3.653994214534589 -2.8326524307414767,2.465989752646867 m10.827079752443549,-49.58755593656291 l4.056794543839824,2.961238448583764 2.1668147762780925,2.6466057146118125 " fill="none" stroke="black" stroke-width="1" /></svg>