<?xml version="1.0" encoding="utf-8" ?>
<svg baseProfile="full" height="109.48305396221258" version="1.1" width="109.4925148319453" xmlns="http://www.w3.org/2000/svg" xmlns:ev="http://www.w3.org/2001/xml-events" xmlns:xlink="http://www.w3.org/1999/xlink"><defs /><rect fill="white" height="109.48305396221258" width="109.4925148319453" x="0" y="0" /><path d="M25.000001461594366,25 m0.0,0.0 m35.31096935272217,0.00034615488402778283 l-0.1267333049327135,0.6311032921075821 -4.37196671962738,4.2814019322395325 l-5.921815037727356,3.789277970790863 m-3.4053760766983032,0.8088147640228271 l0.7368568331003189,1.256890445947647 0.23528724908828735,1.6130727529525757 l0.10365311987698078,22.721619606018066 0.5988267064094543,0.25954220443964005 l1.2513844668865204,-0.644773468375206 12.456697225570679,-10.470257997512817 m5.079204440116882,-18.03239107131958 l2.8149032592773438,0.3655211254954338 12.088172435760498,-1.669723093509674 l1.3939714431762695,0.3163585811853409 0.7638173550367355,1.1665159463882446 l-0.40295373648405075,10.853307247161865 -1.8279023468494415,14.079452753067017 l-0.561993345618248,1.8090111017227173 -0.7845123112201691,0.7753989100456238 l-0.9022271633148193,0.010632306803017855 -0.9174161404371262,-0.48452939838171005 l-1.8035049736499786,-1.7296484112739563 m-9.599453806877136,-24.958579540252686 l0.6269263476133347,1.0370296239852905 0.18957782536745071,1.3814403116703033 l0.007778434664942324,40.56282043457031 m-38.203396797180176,-45.494117736816406 l4.565436542034149,3.1029245257377625 2.175445854663849,2.2020266950130463 l0.873178169131279,1.3909335434436798 m-12.44283676147461,17.02384114265442 l1.6707910597324371,0.4269060865044594 1.2318287044763565,-0.12853698804974556 l7.798987030982971,-2.4137234687805176 0.8384333550930023,-0.003037801943719387 l0.7613490521907806,0.4279503598809242 0.44921495020389557,0.7093267887830734 l-0.09749445132911205,0.8414711058139801 -3.8288646936416626,7.2174376249313354 l0.22191379219293594,1.0956971347332 2.9432502388954163,5.356024503707886 l-0.22019317373633385,1.4228303730487823 -8.261871933937073,6.597725749015808 m-3.1198224425315857,1.493079662322998 l5.35374641418457,-0.681677982211113 5.922574400901794,0.3239293396472931 l14.382094144821167,2.7540048956871033 22.29898452758789,5.149074196815491 l5.383744239807129,0.7432647049427032 5.76384961605072,0.19604502245783806 " fill="none" stroke="black" stroke-width="1" /></svg>