<?xml version="1.0" encoding="utf-8" ?>
<svg baseProfile="full" height="96.05733839936855" version="1.1" width="105.5900228243485" xmlns="http://www.w3.org/2000/svg" xmlns:ev="http://www.w3.org/2001/xml-events" xmlns:xlink="http://www.w3.org/1999/xlink"><defs /><rect fill="white" height="96.05733839936855" width="105.5900228243485" x="0" y="0" /><path d="M25,25 m0.0,0.0 m39.95489028531169,2.1383400325546984 l-0.01817229412727139,0.5502365801205698 -0.4657956800656122,1.5791610799398044 l-1.0352042646683148,2.551844999056787 -3.0433550312585087,5.658901022286821 m-4.925855856462535,1.328853329341925 l0.5672208841744023,1.7364013019863644 1.4042632786589553,26.657724530882607 m-0.8806314203612315,-26.77428808880027 l16.867480247001332,-2.976108676434265 1.1787528349408896,0.027749194833129324 l0.8384586551105477,0.7639400550231424 0.3323590466142285,1.9914381244486783 l-1.2221301809202296,26.0553801505983 m-16.64021171809722,-13.857856820966656 l10.618379687788181,-1.5137277222832002 6.2845201153046855,-0.571978388308945 m-16.341128129836058,15.316762054983192 l15.78370859609761,-1.3370296514913593 3.182946735520208,0.051139280985282885 m-34.73425527779754,-38.54433524022937 l1.795381843155122,1.331379882302353 1.8905775644859935,1.9580330269424984 l1.4391589003554621,2.0363533593248695 0.5842063675841053,1.2835606604429222 m-8.14669616218592,16.00473499501302 l1.1312818559146427,0.3080066241907391 0.8920287311851782,-0.08859995365576173 l5.804561726095053,-2.626508172269223 0.6250727181175617,0.2787309060234544 l0.2862865658789807,0.6839903376056142 -0.17232183414804036,1.1578120574355981 l-2.6143707970361545,6.067413967390658 -0.28770346005145997,1.1175008829774897 l0.3668558790639429,1.3266266176274895 2.580510139725393,4.045965995414226 l0.2729423963441859,1.204658306700524 -0.7109152709045609,1.231077915479764 l-5.936853217563727,5.555345919018069 m-3.196533708550399,1.1888429868092645 l3.9029687125446793,-0.7620766395454561 4.378590543848423,0.0779658781658309 l22.548982440978264,1.8439756974473689 4.924945006481254,-0.05964356208269061 l5.524825370102297,-0.3091242244509271 " fill="none" stroke="black" stroke-width="1" /></svg>