<?xml version="1.0" encoding="utf-8" ?>
<svg baseProfile="full" height="105.08240531114882" version="1.1" width="101.66892200512682" xmlns="http://www.w3.org/2000/svg" xmlns:ev="http://www.w3.org/2001/xml-events" xmlns:xlink="http://www.w3.org/1999/xlink"><defs /><rect fill="white" height="105.08240531114882" width="101.66892200512682" x="0" y="0" /><path d="M25,25 m0.0,0.0 m17.36909379195743,13.658574413209436 l0.4462575381264776,0.11618291157265137 2.5686833877204416,0.09713718149979429 l21.434370283572896,-2.268907194788414 3.1762706121374804,0.15611213673243754 m-15.529089167380612,-6.544324137993193 l0.6188344938054743,0.8012256007272985 0.3769178041065544,1.3087130145101846 l-0.01208989655166129,12.66430510818915 m-10.800430189114369,1.055246052283081 l3.277972644979231,-0.014735182327083408 14.872143683960513,-1.6536398892538675 l3.3337502898869213,-0.1475988305612367 1.3638214161677358,0.1557009548798559 m-30.716996561727772,7.452343270539982 l-0.9700842251479833,5.154568787195466 -1.6804924481227794,5.16374955838431 m2.946972402766604,-8.791867993583196 l25.08000488343415,-2.4425172377922597 9.778974507130576,-0.6278895323317968 l3.6567503525656506,-0.04534291492540184 1.0772864008538556,0.7766452664465419 l-0.05162586633954278,0.6523453207748464 -0.912704997407049,1.4999821477944737 l-2.5541765398188567,2.354159117101935 m-7.27652553388094,3.263887230390981 l-0.670525671812878,1.312266714291535 -4.020988011573826,2.6271626180833265 l-5.533102128714474,2.6212727174268373 -5.514082106966312,1.976946266350186 m-1.8437220602753936,-9.96244366861634 l0.48526764507901815,0.8218712849243849 0.17946633430614126,1.0986201025116433 l0.10531376726851778,16.539694287311068 0.6328242951646681,1.8851612628465142 l1.1923287914085405,1.129387072534169 2.1177723789414857,0.7448213922442898 l3.888818027826799,0.4576479761878095 7.875632503430303,0.0359421263774255 l4.623880761389234,-0.5144011784247435 1.9378573589669112,-0.7223130376110865 l1.8874143391888276,-1.1445883560869432 0.8965686981329042,-1.4519963006171672 l0.3730186993918147,-2.701160529061904 0.09612400578390319,-3.6007086156520827 " fill="none" stroke="black" stroke-width="1" /></svg>