<?xml version="1.0" encoding="utf-8" ?>
<svg baseProfile="full" height="117.78909491815959" version="1.1" width="108.60963825376662" xmlns="http://www.w3.org/2000/svg" xmlns:ev="http://www.w3.org/2001/xml-events" xmlns:xlink="http://www.w3.org/1999/xlink"><defs /><rect fill="white" height="117.78909491815959" width="108.60963825376662" x="0" y="0" /><path d="M25,25 m0.0,0.0 m26.464302244813236,14.749707264586958 l0.5553308098853819,0.09198624796182679 2.7891197573808615,-0.04779944256268988 l22.635784476901428,-2.339428671119264 1.638934993438781,-0.057256582166221474 l1.312378703295687,0.22970756102227946 m-29.558081718595222,18.924007485573913 l2.50521474414644,0.3130888325906221 22.568493257307747,-2.4538381118036026 l2.6862193486883488,0.19004854485249387 1.8005232907134723,0.3736943741559321 m-16.038094452466776,-15.760743398029579 l0.8959951883104168,1.6329600184749031 0.22155690138284714,2.0311309680462366 l-0.09997267857501317,39.61392434752935 -0.20045788809720497,1.4607287271844804 l-0.4741385741589225,0.7107720544749788 -0.6613388817653021,0.10215203836733461 l-1.577413690285684,-0.9136805074114316 -1.7906109444696463,-1.872104513289478 m-22.904120731384882,-43.20042062902484 l1.950963962956213,1.4556750577824402 2.0688634886695203,2.120491076226079 l1.6226983189222413,2.129564381577896 0.6539367155015883,1.3630527752831914 m-10.599133729684379,15.884996902477114 l1.419889828339379,0.4645575284901249 1.0360987698820672,-0.15800366505164595 l6.755959792966142,-3.126943054030214 0.9819727404815418,0.24566194513476713 l0.3796558743045664,0.7036505548206548 -0.13103030709942878,0.8484220704770453 l-2.83814260643021,6.3303744274851335 -0.26495135094122574,1.1426417858279243 l0.43845751578550846,2.003048523478065 2.4874816523080603,4.384819980561827 l-0.08978534399962354,1.751443002381347 -0.748215524128297,0.9069992564945146 l-2.642834755559474,2.7332277576228226 -3.8826620770266738,3.605967566974296 m-2.18689814012843,1.2079538812499087 l4.362760799381144,-0.753642772363263 3.1162468365777567,0.07386523158419032 l30.73113972585416,8.692634094261178 5.853295210357101,-0.026109224774514585 l5.364246700011376,-0.7543807372815057 " fill="none" stroke="black" stroke-width="1" /></svg>