<?xml version="1.0" encoding="utf-8" ?>
<svg baseProfile="full" height="91.75077989886276" version="1.1" width="99.46083344375586" xmlns="http://www.w3.org/2000/svg" xmlns:ev="http://www.w3.org/2001/xml-events" xmlns:xlink="http://www.w3.org/1999/xlink"><defs /><rect fill="white" height="91.75077989886276" width="99.46083344375586" x="0" y="0" /><path d="M25,25 m0.0,0.0 m6.907467612981179,21.06584534166423 l0.5387656345413596,0.11317210333748023 1.6138798689065421,0.18699635146966959 l2.4994144043841104,-0.2010917774995633 10.400283106723775,-1.9521832244493738 m0.01538328584804894,-13.877786197395267 l1.1719503073748643,1.147585371711456 0.4755335600374684,1.0288194951505836 l0.17075864208130523,28.63203070773059 m-16.968601606431438,5.213026864074404 l2.101159623810336,0.3943648630685435 1.1482375966358382,-0.262891498251855 l1.2394200014845194,-7.071476514878717 m3.5368766000434912,-7.013775722469684 l3.4447393370148682,2.5002729339172536 1.9066172636501437,2.484810980294462 l1.5411955113504197,1.9351497948220542 1.2801501566304823,2.1227692561671843 m20.253200497813772,-33.30484260956809 l0.11130541101936205,1.105159643681513 -0.21711339514428807,0.9342651261743697 l-1.4492458049853103,2.6939415434700713 -2.3323951463890413,3.3001509830678457 l-2.8247425612424437,3.0687434902069763 -3.5615320798419585,2.912315944775848 l-4.011301762461282,2.42514934027519 m20.46942737791974,-0.8631786574003748 l-0.11748201878651135,1.7046308936895729 -1.5512656595259955,1.8886354864030321 l-3.1002972442152688,2.9392510950398836 -3.4417292808119617,2.769101231033807 l-6.815734629730828,4.219229925237995 -4.388725276597096,2.103532671180076 l-4.727130235380064,1.667428463522056 " fill="none" stroke="black" stroke-width="1" /></svg>