<?xml version="1.0" encoding="utf-8" ?>
<svg baseProfile="full" height="109.69962926360213" version="1.1" width="110.17649482760275" xmlns="http://www.w3.org/2000/svg" xmlns:ev="http://www.w3.org/2001/xml-events" xmlns:xlink="http://www.w3.org/1999/xlink"><defs /><rect fill="white" height="109.69962926360213" width="110.17649482760275" x="0" y="0" /><path d="M25,25 m0.0,0.0 m30.74318490814524,15.214268509494143 l0.3929808274014827,0.3144770530878731 0.6376453791069615,1.4257951540225202 l-0.022049795291739213,4.415665175528753 m-19.165562169211967,1.7183028018095614 l2.0529086138163435,0.14567235764461756 2.415135784704568,-0.057508397765741584 l27.378196461495108,-2.3011896915874117 3.348973308470449,-0.12017087867548969 l2.4593933171116076,0.21571964018247605 m-31.01121839393838,5.828401236190854 l2.4670268120754257,2.2080632958450424 1.4478806379497813,1.8955503736079766 l0.8854051222807643,1.874846457858616 m18.04634367228162,-10.186837484237842 l0.2685566061886123,0.8316613867884678 -0.212164012632084,0.8461563891875541 l-4.488842597457549,7.474752643929899 m-32.982775504345696,3.7730326350661647 l2.407042843569853,0.26630603727613344 2.443509922722362,-0.016512657795086483 l20.074378497295726,-1.4618626732424425 17.519173875536506,-0.9444356001116035 l8.973300786097106,-0.1749163444049486 4.098069924230663,0.30673613276844564 m-45.05006376891629,8.190136129707396 l0.5105600436878518,0.5750337428994414 0.43563498072085577,2.656105540603039 l1.406660244550525,7.227378886707259 m-1.3649957169603255,-9.81184790478589 l12.965096200722495,-1.6253364244596629 0.6687533725512858,-0.006372628917446087 l0.5220131131576845,0.281610351685339 0.20722245026811653,0.43886181308203587 l-0.10129874197267999,7.7168714208125895 m-12.41340947632907,1.7373951123541735 l13.288745848872647,-1.1848758389507588 m11.875481391857265,-14.811450416302309 l0.6598673783165839,0.7156080853509557 0.4334434720691177,1.4202203553292838 l-0.03592882896121636,21.30261005383991 -0.4657903985165608,0.9853894949472409 l-0.6773876391737916,0.40031793723101905 -0.8162778109316566,-0.02365232448460537 l-1.771982662941109,-0.824999566572567 -2.067038118296034,-1.5446106928789376 " fill="none" stroke="black" stroke-width="1" /></svg>