<?xml version="1.0" encoding="utf-8" ?>
<svg baseProfile="full" height="90.55888401400418" version="1.1" width="103.8013804699475" xmlns="http://www.w3.org/2000/svg" xmlns:ev="http://www.w3.org/2001/xml-events" xmlns:xlink="http://www.w3.org/1999/xlink"><defs /><rect fill="white" height="90.55888401400418" width="103.8013804699475" x="0" y="0" /><path d="M25,25.035795361882585 m0.0,0.0 m39.883548224579336,-0.03579536188258313 l-0.04975356208637478,0.5083709992155644 -0.4812218524211465,1.3740449181432535 l-0.9958689262064775,1.9020742632061405 -3.3743225679396613,4.692185687024175 l-3.6533008063013903,3.82112545599241 -5.131608775892378,4.163641877046729 m2.582177735187513,-9.42834450135222 l0.6711433219616656,1.1679997035860494 0.2095028224119808,1.7538724816012865 l-0.14514073518859522,24.41427993429168 m0.8627961414269538,-27.87423861547716 l15.823002298707417,-2.3878722515400317 2.294801804937218,0.020137013885277964 l0.48823503384801875,0.7917091964799278 0.06589540847852561,1.3915168459504625 l-0.15785659296357668,7.5414184336746075 m-18.002815156541658,-4.110786189749288 l10.97998545368744,-1.8093955057623796 6.915212788229271,-0.7143311498217326 m-17.511806184830206,8.33352837826812 l16.61101302324453,-1.8811257957366152 2.786550509260911,0.015454247603667258 m-19.029935343457876,9.684407208218651 l11.343353020884305,-1.2830943895534186 7.828819345260711,-0.8476538149044934 l1.8980902702428997,0.08903048431421881 0.6960678584477415,0.33925736666849465 l0.39481591298041085,1.0304188056362285 -0.08447845063329028,1.9642556947062468 l-1.1772795099255289,5.5457115455252275 -1.5797752079040375,4.7682048336062905 l-1.6324353184093854,3.929700510313812 -1.2268539546161237,1.507507514004534 l-1.1491056288491492,0.1458728289384677 -1.1190939545416823,-0.7210504049125079 l-1.1650110222760985,-1.431316807435386 m-20.838363771804207,-7.01028859485128 l-0.5352445574592932,1.6491685951067252 -0.7755602600554641,2.1760118865068274 l-0.9328103169881754,1.9155053140482086 -1.026633277283394,1.4446437328632613 m8.252815787246671,-8.251400570332938 l0.9766250823223394,2.603039811339538 0.7819499937349509,3.8931551344042936 m4.465315209245555,-7.616423499555457 l1.4664637163142307,3.006971890095471 0.8692798469350673,3.0635315470656233 m3.2261162755951545,-7.2750584441461195 l1.9013051456562646,2.2563665401112774 1.134827352239638,2.157917113771714 " fill="none" stroke="black" stroke-width="1" /></svg>