<?xml version="1.0" encoding="utf-8" ?>
<svg baseProfile="full" height="147.5387367412564" version="1.1" width="97.78874201181057" xmlns="http://www.w3.org/2000/svg" xmlns:ev="http://www.w3.org/2001/xml-events" xmlns:xlink="http://www.w3.org/1999/xlink"><defs /><rect fill="white" height="147.5387367412564" width="97.78874201181057" x="0" y="0" /><path d="M25,25 m0.0,0.0 m28.819931618760446,6.352790392146802 l0.011994595858530067,0.42143736374843105 -0.2377262601090777,2.265272043172293 l-1.1081458646616809,5.261011195352097 -1.2651839119786714,4.136514036605337 l-1.4830159916926304,3.924820936558855 -1.6115160027391207,3.102269351530246 l-1.5614685963580603,2.2568298777634763 -1.4992698350530171,1.7433257804955133 m9.387120449649084,-14.23028426019188 l2.6250844438708536,-0.4280570560197095 5.1375860859997475,-1.625193400056525 l0.961784459890662,0.10586369845393909 0.38620819118877414,0.45591970149415906 l0.09155184941521326,0.7602786936998837 -0.6208488434412199,3.206050582552303 l-1.4439095772151482,3.984243144426438 -1.884577979106227,4.187296370465094 l-2.3741125492164503,4.3794685382390455 -2.834591468339361,4.041095735982631 l-2.323525392346916,2.7116451896026654 -2.435272970412992,2.372390993116403 l-2.4629395321578533,1.9236310453609602 -2.1672776416321957,1.5066981219740376 m6.543622078634855,-19.82413045416238 l2.466104569867129,2.4131400751360674 1.2601252806441483,1.839603388746569 l0.5664570345750647,1.3668516107222843 m3.461386875324269,3.5349826055185485 l-0.0040011692395940665,1.2998452183184488 -0.4626029849524633,1.7408610174929464 l-1.056372499738516,2.8175668281693347 -1.4605229425615036,3.041560315783386 l-3.237229845670221,5.067000082800757 -4.422675185824816,4.969478025569883 m10.922729105868001,-12.479148543680083 l2.1138748389857485,0.23476124771724674 6.476778759184292,-1.501609302516939 l0.9393719625473329,-0.050205167275297176 0.4386163175440991,0.34985769125698996 l0.18302762660873137,0.697826966111709 -0.2899032852773298,3.458504761565732 l-1.2095067029444262,5.205084585169975 -1.4615291903426826,4.698562460534027 l-1.8564605296195862,4.7509891346190445 -1.9683477400075513,4.0483858873627465 l-0.7428471976945311,3.931381123853759 0.2883243605042168,4.8375190307859 l0.7423441751173511,2.6776689486843743 1.2084594839773817,2.5176953144769 l1.5593703124932772,2.553592275309086 1.7291182667350762,2.209912810731913 l3.8848911160961976,1.7581569899304097 0.6691968909842486,-0.6177497979407363 l0.33507860237810755,-1.5564781867765027 0.06398434944158068,-2.5502688488152696 m-20.258760273061792,-16.806186693006406 l-0.02978467510935913,1.6620337738850277 -0.9129342503370772,3.2824335524459167 l-2.2421850060361495,5.684909146586682 -0.055025530364990784,0.11036237725764994 m12.264728453815366,-6.166900048325636 l-0.19809485314685488,1.4872067125886546 -2.9278833284463177,1.9807515309737644 l-3.8727452680163736,2.058549354974643 -5.6770560435038995,3.0176075103841704 m-0.8802477768085557,4.479996140283263 l0.48712246362469347,2.090554863541491 1.0936328226772423,11.664794198399978 l0.5582965092119738,5.986283877459867 0.48804484106106116,0.7498242721339998 m0.35190515460673755,-15.396675222598143 l9.429141077129993,-1.8992066906894605 2.0103749077767743,0.023920787257239475 l0.38483031512513827,0.4091475199591758 0.23425996591620482,1.4043076188649828 l-1.4948549486829943,11.234415645547486 m-9.101118637146937,1.9274203291715037 l9.914261464837852,-1.426125680346583 " fill="none" stroke="black" stroke-width="1" /></svg>