<?xml version="1.0" encoding="utf-8" ?>
<svg baseProfile="full" height="101.39158821829848" version="1.1" width="105.96765320730294" xmlns="http://www.w3.org/2000/svg" xmlns:ev="http://www.w3.org/2001/xml-events" xmlns:xlink="http://www.w3.org/1999/xlink"><defs /><rect fill="white" height="101.39158821829848" width="105.96765320730294" x="0" y="0" /><path d="M25,25 m0.0,0.0 m25.893368274827164,5.986163782053693 l0.5610554121352815,0.1508452162410315 2.990083492764191,0.04283972127218838 l18.0757112867692,-2.2912342864330246 3.2777602100947116,-0.11855302724273621 l1.9335379357071492,0.252749025309038 m-25.546894962529734,2.676424261772377 l0.6598482759832747,1.5700525634688394 -0.18879845840340004,4.0653050734204665 l-0.8423054057241215,6.796909496582987 -1.3369793351507244,6.297918737701493 l-1.273953591222108,4.001445605538613 -1.6199104436864067,3.7873037068769375 l-1.9921438827208255,3.542954304765634 -2.4706096694030957,3.3559262135158265 m13.190086178987254,-22.5904606515517 l1.7476624165191927,0.18089120986199173 2.207001856855988,-0.22442535057184335 l12.422766153945458,-2.682863986398985 1.109889471664651,0.027196827672275 l1.2530996840228459,0.6278741607297719 0.49227782975012446,1.1454251390249937 l-0.15914365204276643,4.680608029009487 -1.0184694808711279,6.517448665334857 l-1.212553725929148,5.011049699588541 -1.7394150884920212,4.869829526252523 l-0.7659193111155573,1.2672727764146692 -0.7674892452406862,0.6382797906029423 l-0.7642641030423876,0.12314641041666748 -1.3496697767709744,-0.7289976715902093 l-1.4070224108329865,-1.5036032561088863 m-13.899258447918491,-18.711566552659296 l0.4245784722792005,1.129270686761441 0.10346397084644163,1.2728203828608735 l0.22766193593743123,26.377742842660336 1.1851258859188492,2.395639259078274 l1.8067431022577711,0.7344702144661259 3.325816146276803,0.5226880124015323 l7.947116182137504,0.19480165919871423 5.0670888404238275,-0.3230564891477575 l4.161251105775016,-0.6373961682260681 2.196322569950088,-0.8640705959071068 l1.3977796658232595,-1.3207200863810689 0.6653578407468378,-2.1305093956844567 " fill="none" stroke="black" stroke-width="1" /></svg>