<?xml version="1.0" encoding="utf-8" ?>
<svg baseProfile="full" height="115.48040122648138" version="1.1" width="102.6167028644465" xmlns="http://www.w3.org/2000/svg" xmlns:ev="http://www.w3.org/2001/xml-events" xmlns:xlink="http://www.w3.org/1999/xlink"><defs /><rect fill="white" height="115.48040122648138" width="102.6167028644465" x="0" y="0" /><path d="M25,25 m0.0,0.0 m16.97888629660052,14.105208748503232 l0.4100070110658188,0.3644440222810579 0.5370380383517477,0.8466542191522891 l0.25708280829186636,0.9444338649858545 2.0116703144494696,22.105709891811998 m-1.9669568640539106,-23.622795670289587 l23.96130151372939,-2.3445668920412914 1.2406912975467126,0.10232827749514335 l0.9125615865097639,0.4578647526504422 0.6052561468369441,1.011408818417104 l0.04372919946309105,0.7081809693127877 -2.390601021730331,23.139762308070022 m-14.115748339511619,-20.803277626958344 l0.5636546865558095,0.8715515077724619 0.18770155615384962,0.9839497704322744 l0.04542319130312751,20.167947729332216 m6.163702599306172,-10.484474900531996 l8.400993191886831,-0.947225454546575 1.9978166799521435,-0.040000898235158615 m-22.815491789999644,12.860545109217371 l-0.5495722229514158,-1.703342527375143 0.5809140899054602,-0.2560052426928465 l1.5994353534414756,-0.47345767110436765 16.936068604628687,-1.7623710696788542 l6.2011149434239,-0.11467524172620022 2.0294120242013762,0.25211738059775407 m-26.06272347864798,8.54047640295498 l1.633945272617911,1.3793805627887485 1.5555391004447845,1.9975262968549703 l1.1744956896822907,1.8371344942549113 0.5494781500726315,1.4542099468077059 m14.905938967234441,-8.912898901786411 l-0.07840377404038765,0.9886333299822617 -0.9805939058072162,1.758937285988177 l-1.843564735363847,2.2534302726622757 m-21.00810758824995,4.77795246802499 l2.54009866218575,0.29779572345436284 12.561493550925654,-1.6073621855389 l9.935054476135306,-0.9261766933992501 5.040007206941349,-0.1622862739671391 l2.8679543749585306,0.2795341208421215 m-17.578927282857702,-12.09275665899125 l0.507879904400468,0.7387912652873052 0.25607772481493746,1.4340283050446667 l-0.03207178038089273,25.0741372903652 " fill="none" stroke="black" stroke-width="1" /></svg>