<?xml version="1.0" encoding="utf-8" ?>
<svg baseProfile="full" height="90.73571974782094" version="1.1" width="111.82500620083177" xmlns="http://www.w3.org/2000/svg" xmlns:ev="http://www.w3.org/2001/xml-events" xmlns:xlink="http://www.w3.org/1999/xlink"><defs /><rect fill="white" height="90.73571974782094" width="111.82500620083177" x="0" y="0" /><path d="M25,25 m0.0,0.0 m6.789664036574092,22.138386086773608 l0.6106835456038099,0.12079949204977995 1.6083215354877982,0.19407273025655844 l2.4582694955039663,-0.1706644253936522 10.565781297649597,-2.083363490121782 m0.18791345016672042,-13.765998380077724 l1.2661306805468069,1.0597617440373224 0.5382657577364446,0.9763187546350406 l0.18811910346334218,26.98183620873784 m-17.291282860791,4.900147830930422 l2.0652782834427486,0.3844231959935282 1.2181826294535345,-0.19305272243673136 l1.2286974526777632,-0.2463361235951181 15.184513573256174,-7.564886533497946 m18.626061314712825,-14.487085896276364 l13.4031532522557,1.058295212307926 3.1772536530914444,0.1537786156138653 m-16.89516984440783,-11.447677152153872 l0.8522137432301539,1.0073475575911601 0.39184100626219925,1.0464494910169455 l0.20039909156825714,24.601623518823015 m-12.934850070640453,1.1093737207591516 l2.317382575330567,0.2228316072207865 21.334163255844988,-1.628458484099126 l2.658542467490298,0.2198264293278585 1.691564596406651,0.2980290604722176 " fill="none" stroke="black" stroke-width="1" /></svg>