<?xml version="1.0" encoding="utf-8" ?>
<svg baseProfile="full" height="104.49254669815241" version="1.1" width="108.06080658863684" xmlns="http://www.w3.org/2000/svg" xmlns:ev="http://www.w3.org/2001/xml-events" xmlns:xlink="http://www.w3.org/1999/xlink"><defs /><rect fill="white" height="104.49254669815241" width="108.06080658863684" x="0" y="0" /><path d="M25,25 m0.0,0.0 m31.533807443270415,13.254709430251607 l0.07808952673699437,0.3685624639953459 -0.03380332994386185,1.3993365563293187 l-1.0156568860360382,6.080096035989177 -0.8563965118750334,3.371250328158558 l-1.161486351397825,3.274257182110998 -1.1789714000817735,2.214198181294024 l-1.1242205945736916,1.5540000514235592 -1.187555880670253,1.100947720211784 m7.512093568396972,-13.00213595587772 l1.937808613881591,-0.2960579226325807 5.812459751289216,-1.1344567919340942 l0.7642469550074193,0.3522137939354141 0.1961985830110928,0.45412399834118555 l-0.5521440720731843,3.3334578376059047 -1.2267906131659254,4.301378280598407 l-1.4734106719625812,4.186759192732314 -1.6876992275778964,3.951598575311315 l-2.0432976571888224,3.787290703561682 -1.8778247703088968,2.747535097416364 l-2.0036934997313645,2.2912858195860424 -2.1085571538616286,1.741276641093858 l-2.0544259158957012,1.1870779786370578 m4.350758208033106,-16.2584684460237 l2.2988835486070025,1.8960633667684372 1.0639646646662135,1.202678173440616 l0.5633757574089262,1.001110525497247 m10.780321661944182,-21.446495697817138 l0.6219237649009178,1.099303362905734 0.25370694281544676,0.9216298109815653 l-0.08378113512924414,34.039885586951726 m1.7060081638747464,-22.460422116842224 l2.6481453885938455,1.5414065623686157 2.6909240450568426,2.1503451020463333 l2.1795937913194328,2.3452910765370714 1.2123708082131452,2.041026052800056 m-38.223429447796974,-21.608098688539283 l1.6793999013068897,1.0681507371913392 1.738624315661962,1.488723199143114 l1.3965607103664213,1.5588175794612371 0.5577603167050627,0.9758396880502174 m-7.933573291794877,4.764841196960639 l1.918843659727756,0.9046635036633417 1.945277349505516,1.2291299611896778 l1.6521553261685207,1.3258230236507964 0.8954570443878676,1.1346533099418161 m-7.385847488170368,7.252788798667169 l1.1995094430680076,0.25343010577577746 1.2236397289615681,-0.15715083775386401 l4.743224904906312,-1.7384375362977855 0.6141721131302805,0.0009878843412310654 l0.5615143238313162,0.27353537007582746 0.32099809572017846,0.435116905118494 l-0.10698091326965105,0.4935477731542311 -2.4574263384809036,3.705737948671395 l-0.2097731661909795,0.8326184000733285 0.3287233235850365,1.013716428172458 l2.0066621994099068,2.925883866589797 0.23081540684569019,0.9438033298183841 l-0.6029121687969605,0.8364644066848673 -5.416210960813173,3.8419027327253468 m-1.798287989127904,0.8140741150569023 l3.8993776359967103,-0.5483006945565189 2.7483065633737005,0.05611747551446864 l25.797923490655972,5.692685883025292 5.499073592869435,0.1294222748288412 l4.702263391340721,-0.5714292531707333 " fill="none" stroke="black" stroke-width="1" /></svg>