<?xml version="1.0" encoding="utf-8" ?>
<svg baseProfile="full" height="90.99151056679207" version="1.1" width="102.38170640352024" xmlns="http://www.w3.org/2000/svg" xmlns:ev="http://www.w3.org/2001/xml-events" xmlns:xlink="http://www.w3.org/1999/xlink"><defs /><rect fill="white" height="90.99151056679207" width="102.38170640352024" x="0" y="0" /><path d="M25,25 m0.0,0.0 m25.6260889434981,13.343280434118242 l0.5805503562776121,0.30602492718655644 1.6343736306472192,0.08397571231596061 l3.2490207297383287,-2.757052117215424 2.8938083852695304,-4.176529375470965 l3.0264539940893656,-2.304171079630084 3.791962286708175,-0.4335874403358303 l4.350850597230209,0.8540111389263025 2.2571890459866717,1.3015154499396855 l2.0091102500767,1.6911440723910705 1.2110990471922185,1.7369698999111032 l0.8481658137568072,1.861793769036184 0.530118549202483,2.254041447551207 l0.2945646228264575,2.905297295438303 0.07835015102035336,3.204316546374251 l-0.08962316056627424,3.251771237214504 -0.23415658272951986,3.359270388387091 l-0.6704890423149391,3.1393687493226916 -1.0307962144589,2.7111184467993343 l-2.4220462966755667,2.412859960979593 -3.130114771211018,3.0150133915610486 l-6.834140957746187,2.5822266960099958 -11.947329887955766,0.6307998203416327 l-4.791880549779492,0.018051195639607262 -1.016004391788399,-1.0383762762192643 l-0.8018951952821604,-1.0726885490569533 -0.43101500759188144,-1.3050070351766052 l0.18631683203657787,-1.3299284974255456 0.46611563464469885,-1.6852297942818435 l0.5940239017715891,-1.312025428236975 1.5100340895285376,-1.2741880586246372 l2.2366418395159973,-0.6926612046507022 2.4884938560154843,-0.02860476505801017 l4.039082148463341,0.6814063897312813 4.196407327166709,1.3024316895571377 l4.3306509847375665,2.0047861736095185 3.7722848943656095,2.65512347665248 m-6.428073961571128,-29.70475526717064 l2.485158123117531,2.503208315213178 2.10434744734796,3.0686002115068605 m-0.6754145757977621,-8.563984547328468 l2.8850985794660744,2.0422220648134206 2.342217494369495,2.5109161588642173 " fill="none" stroke="black" stroke-width="1" /></svg>