<?xml version="1.0" encoding="utf-8" ?>
<svg baseProfile="full" height="132.68605711300324" version="1.1" width="141.95050085200936" xmlns="http://www.w3.org/2000/svg" xmlns:ev="http://www.w3.org/2001/xml-events" xmlns:xlink="http://www.w3.org/1999/xlink"><defs /><rect fill="white" height="132.68605711300324" width="141.95050085200936" x="0" y="0" /><path d="M25,25 m0.0,0.0 m23.859715410749168,6.55580439718533 l0.5062331233480462,0.15657010185583306 2.7279816718520666,0.03053598760163814 l12.953552232733633,-2.417348772838929 2.7487221822856576,-0.2778185826707502 l2.4513714006693412,0.22504847733102495 m-11.412844954595963,2.9954965618452105 l-0.10353108457147307,1.3160278457858898 -0.6734897856364964,1.801731774566762 l-2.6046395993756755,5.173899063166861 -3.365401232356157,4.154814015915833 l-3.984347604087605,3.414118863341941 m8.427846758682035,-6.472354817819483 l2.807972093642764,5.467916827122956 2.165299633464443,5.325100252283657 l1.2471449123881455,5.8210752759577105 0.2842698235533028,5.75208005889085 l-0.3408579193856186,10.18714812267164 -0.6240962841301579,5.059770165578093 l-0.47522946877143074,3.3761437206302567 -0.5150640054669691,2.7326298276585135 l-0.5574265024571173,1.7704547387514784 -0.5961394601951724,0.8352426930114145 l-0.5701238736350664,0.2032957951293602 -1.0517358010194373,-0.5809760644975895 l-1.0935019245117499,-1.8637506763627032 m0.542867197483724,-33.97890601133675 l-0.06931906507699497,1.684448503943497 -0.5097585699265157,1.794417096361085 l-2.197933993898313,4.757768934670592 -2.8298708067490064,4.429887373582264 l-3.5930317008290857,3.9974223572152394 m11.974131395360043,-7.822400047814938 l-0.03758313669200957,1.9350852703304995 -0.5616271338133562,2.0189268745685265 l-2.85666737143516,2.983597764097774 -4.022288498629334,3.1532332083701147 l-5.557106258044883,3.102094168290941 m23.953368001680165,6.379125956406688 l2.4521312911012316,0.7227716995541136 0.5728779592579066,0.6245287315350635 l0.01244034016234243,1.511694621049237 -2.8808790480793576,3.560144153778407 l-2.9787788697163466,3.1860283610876903 m-3.2211294883939,-42.1991627835869 l1.1137227847186704,1.136011078492117 0.6936074073030098,2.3401567989977097 l1.069127034684198,26.368087740814662 2.389974640005927,7.678732556324715 l2.092325585108478,4.34446818135183 2.4445965234349445,3.2800665028082254 l2.55438330644181,2.398862451009913 4.837204572391438,1.8404554648900477 l1.0955420327792365,-0.5516357923836954 0.6144000293931943,-1.600738145401788 l0.06494441843556832,-3.8880553205796495 m-5.604157209482074,-42.93255009651381 l-0.15016265712762514,1.852755330557145 -1.3687009652704714,2.987820124310275 l-2.070512122709441,3.398648254795061 -2.7370701273855684,3.4345097933648776 m11.608095103352852,0.5854380750518522 l-0.02964864873228501,1.9364088125631453 -0.5314628522392586,1.9666560675401386 l-3.650454624140714,3.2514175149568874 -5.358140321269165,3.3257168257766643 l-6.996533468915918,3.0116041633899475 m31.14586602665159,6.1564296679035895 l-0.3117136547160475,1.029265463177968 -0.7312150371220281,1.5033313036237712 l-2.032656305011846,2.7353598873608553 -2.8903892104987463,3.1599977626520386 l-3.5680214489330497,5.215013074136068 -5.842576914232936,7.745115900319633 l-6.521230094599433,6.393345787517093 m-12.681623824863001,-57.52389276599498 l4.022743707830927,1.5826227889582667 17.667598638979165,2.2163765532227373 l6.436180927607585,1.7534756852354174 3.0869437650190723,1.6603534267169824 m-15.551761456323355,-10.114353121033268 l2.343642095311198,1.6777537257244362 2.9594700937097977,2.2357362146306414 l2.11776838646222,2.2751213150154928 1.2743907479735117,1.9966757483791158 m-10.957542973676087,8.837923710861263 l2.8900907197734464,1.7804743373479106 2.37897269776274,2.4932660377982616 l1.844622000518626,2.3795036165360135 0.7517860436507114,2.0769086919930912 m-8.7644098046485,10.686017698443742 l2.037096383843001,0.43400329465761944 1.036138614360366,-0.23131534256189373 l5.200213744419518,-2.9056764284492176 0.9571902953133721,-0.016962267166497274 l0.5258635384576087,0.45992329971942925 0.1598119712662475,0.7769311663418188 l-0.21249244162296116,0.9434958184894224 -3.4353211409795814,5.760844797227389 l-0.8645321369660326,0.7261555519815712 -3.5759289576167594,2.3007319521123075 l-3.4655830693175997,2.861161836023468 -3.2063506391825083,2.6629963709076137 l-3.1585277143702184,2.067421121013341 m-1.0654792107180617,-17.193659453938242 l4.885903426916338,-0.3366386468575076 13.773503475435312,-1.7851566856380314 l4.445218327143132,0.8582199457105725 7.097096752661948,4.1382084090684135 l6.191191157294387,5.144055669897314 6.346670316408883,3.746688318782483 l6.727280604926965,2.6453865730790453 " fill="none" stroke="black" stroke-width="1" /></svg>