<?xml version="1.0" encoding="utf-8" ?>
<svg baseProfile="full" height="106.23714342881529" version="1.1" width="109.81315847868211" xmlns="http://www.w3.org/2000/svg" xmlns:ev="http://www.w3.org/2001/xml-events" xmlns:xlink="http://www.w3.org/1999/xlink"><defs /><rect fill="white" height="106.23714342881529" width="109.81315847868211" x="0" y="0" /><path d="M25,25 m0.0,0.0 m28.128084696655307,15.994153700015028 l0.41688358514152996,0.09537914485734399 2.524184673761752,-0.0020272078731202407 l17.234800976586076,-2.7289201366700833 2.533268703683245,-0.09773050346699086 l2.1298824723664302,0.22103399294641285 m-13.283467806447437,2.755869840827948 l0.6767520014908691,1.218754181410473 0.2462555239469571,1.1157291811263603 l-0.022262760856638694,27.19192758835388 m0.8190773824201112,-15.588853576453268 l10.198026865056239,-1.1939507245510321 1.7949248622350822,0.12368041477990148 m-23.165090435075143,-0.9474141174540369 l0.6763669293898923,1.101965896160146 0.2548539474536029,1.2030920530638136 l-0.01109511864917913,15.131117037735603 m-6.718621221612969,0.3435991191217962 l1.8395808910414062,0.4760533712894846 1.9148863698830305,0.0008880862993205921 l28.956829980519885,-2.093945976817014 2.669035959692061,0.44255659458005153 m-12.296254861916033,-33.23161056103919 l0.39253250907746245,1.4495835012036498 0.06429213245171442,1.642097419414378 l-0.05229254958352314,41.61411510995443 " fill="none" stroke="black" stroke-width="1" /></svg>