<?xml version="1.0" encoding="utf-8" ?>
<svg baseProfile="full" height="97.15051371634007" version="1.1" width="101.86406890652445" xmlns="http://www.w3.org/2000/svg" xmlns:ev="http://www.w3.org/2001/xml-events" xmlns:xlink="http://www.w3.org/1999/xlink"><defs /><rect fill="white" height="97.15051371634007" width="101.86406890652445" x="0" y="0" /><path d="M25,25 m0.0,0.0 m25.42510874028998,2.019256797743613 l0.044281245273125845,0.4153862455819758 -0.1645643954473379,1.0104607780013013 l-0.7266142563477709,1.643709534862107 -2.535531893406887,4.13464247020948 l-2.972055828461551,3.4888519717852984 -3.946863745269542,3.5630118271827236 m8.33762438991239,-7.67926768738878 l7.022115491530065,-0.5200455726373034 13.659694295581101,-1.4282000069385563 l2.866968815169069,0.04832731964984417 m-25.994352807374263,9.718844926628323 l2.940141799167662,0.6508788170542557 15.782237463385657,-2.1826271945138442 l0.9759867353685351,0.21509721123251482 0.30904918125754177,0.4157718919908394 l-0.23832606540375892,0.5207176577492736 -9.63196005335488,8.472016893807666 l-3.889210703284725,4.2741941268007775 -2.406166408576874,1.9781107041473447 l-0.6826855176743631,0.6153695915764509 -0.12690491406286064,0.21563457314038587 l0.3124151913291012,-0.08901117807832643 1.0130388505871453,-3.541646068454021 l11.416680161220215,-5.93851547732746 m-26.07648750345869,-9.333135908260278 l3.2833758816708074,1.0768304919632274 2.4639140060492957,1.1850469831302142 l2.020007908744185,1.2779084034731838 0.8216299520198935,0.8695189264487064 m-10.329340835882945,10.241892248915375 l1.3193328946307041,0.3324859543761183 1.0036101531880675,-0.11264777414532613 l5.776246999109314,-2.149238364116303 1.0522511808146018,-0.06166894121772947 l0.5498493300660732,0.25364496582608487 0.29494084328999,0.489023758372365 l-0.1469643698386073,0.5821079816523446 -3.0230241879451474,4.246869443986719 l-0.43218705111982947,1.9573441448857316 0.3365642189298488,1.5183735922208366 l1.6949206374723007,2.572577450730834 -0.5791927653616511,1.724336568621473 l-2.1187473999998896,1.5058506673298915 -2.2198559374931173,2.1404859908522416 m-2.054929623617727,1.1224257451442603 l3.5357945202439587,-0.41234944340139207 2.784403226162321,-0.00340326346675159 l24.98889302381399,3.733614534746912 5.340605348736555,0.3716494044654566 l4.7883526848933915,-0.3061094517060289 " fill="none" stroke="black" stroke-width="1" /></svg>