<?xml version="1.0" encoding="utf-8" ?>
<svg baseProfile="full" height="92.9127382986382" version="1.1" width="116.62496355735905" xmlns="http://www.w3.org/2000/svg" xmlns:ev="http://www.w3.org/2001/xml-events" xmlns:xlink="http://www.w3.org/1999/xlink"><defs /><rect fill="white" height="92.9127382986382" width="116.62496355735905" x="0" y="0" /><path d="M28.95121033046635,25 m0.0,0.0 m31.88456730040378,6.348041979726672 l-0.014376816596946826,0.448085441767753 -3.131893080149787,3.478928129057115 l-4.533350936846577,3.022029986996418 -4.55884747379117,2.3740493646927656 m23.337805649344602,-12.81694375136031 l1.9926022165006978,0.4570054839479165 2.5411831659215434,1.4114546066741276 l10.751382283150896,7.880891761685946 2.4015585581347243,1.4473985292342206 l2.003122360820942,0.6617607712449208 m-34.07085571775749,-1.8011463377438175 l0.9072728093595436,0.2784104693617575 0.9714420140503078,0.9053684848014805 l2.4771864439926605,3.310296035884024 m-10.239682298205134,2.8783323265759506 l1.7223851569307005,-1.6372172047044558 12.632614643476693,-1.2560844972590604 l3.396917031623642,0.09199727606477459 m-17.462692816148355,6.098289677231715 l3.3482948704505255,0.154975355217718 10.678268624457067,-1.2150453198272315 l1.738797761141434,-0.04955016320916734 0.7049620600940382,0.1842215075629638 l0.572645246636248,0.387195428670901 0.18236376299677212,0.5231745517797509 l-0.10189526439739563,0.5916596953451085 -1.7315593506717213,6.087505932007784 m-14.278666262781831,-3.453182712096946 l14.37537488647556,-1.1851051927786054 m-14.493647158262815,5.256208209924527 l14.1528430326628,-0.9848225542686224 m-16.833369658155746,-7.924189809263494 l0.6093582698030082,0.5181878398464251 0.21337381656591234,0.7536618526098691 l0.13751458000537542,15.81614841828091 0.42143642835126466,0.2453165432006373 l0.652517417551799,0.1340348282877698 0.8010714022624127,-0.25269286727281004 l7.518509355841126,-3.8494029035135138 m10.678087710898255,-7.073984510207583 l-0.13162932729189714,0.7279477087398419 -0.4682222226530911,0.7686224535215567 l-4.458935227968711,2.601215432034919 m-6.267974011377337,-1.3674636985868966 l3.051064022280779,1.1549002325926248 3.124170393815632,1.7124668279342448 l3.1441668442044155,2.0408893014619065 2.7304439528450395,2.301844443521656 m-41.476734732320935,-28.79018005168369 l1.985422247700245,0.9249699898372821 2.2820765511960004,1.3680986959811936 l1.8627828052079132,1.4405158254384034 0.7382138151902646,0.898920822885077 m-11.915389763549149,9.906556798963623 l1.6297375250335615,0.2672773946608523 1.15876718043122,-0.06466206054010383 l7.840176763172788,-1.9201868864109368 0.7579077583021749,0.1981586703248133 l0.4750782017309039,0.43067774103041473 -0.05883353876650209,0.5072194043765321 l-3.445881181521149,5.417486637713614 2.7322155064640765,4.246311632880653 l-0.2505631263348422,0.6693677333143935 -3.455042125731388,1.4245503841959823 l-4.710561875532812,2.0269128030282224 m-3.178288791132917,0.5645057743349866 l4.935931082835762,-0.41085860032018456 3.714686854872208,0.0412683045424301 l30.16865062098897,5.055759550711617 7.4153953917330995,0.5243823679768886 l6.135719968117918,-0.33496883263517974 " fill="none" stroke="black" stroke-width="1" /></svg>