<?xml version="1.0" encoding="utf-8" ?>
<svg baseProfile="full" height="107.2479118094298" version="1.1" width="109.50428952314948" xmlns="http://www.w3.org/2000/svg" xmlns:ev="http://www.w3.org/2001/xml-events" xmlns:xlink="http://www.w3.org/1999/xlink"><defs /><rect fill="white" height="107.2479118094298" width="109.50428952314948" x="0" y="0" /><path d="M28.951811294036354,25 m0.0,0.0 m18.802545195843248,25.256449471089546 l0.5333389106542218,0.14744035734703673 2.4084772657805464,0.10394261433801306 l26.51624798761849,-2.2902426496557404 5.044016218667081,-0.17463542108105595 l2.247852650549549,0.22262817147566896 m-20.062365781349566,-17.636629023924588 l1.0307539008803912,1.6735148935989248 0.4105893478686459,1.327736530498497 l-0.15692402285409404,39.2424376028463 m-34.09954725220736,-38.4183267063041 l2.391073884201575,1.2883848181318915 2.4255866764345138,1.8043764345137316 l1.9231781013565545,1.8682812916430207 0.7719431614375614,1.1704091775912724 m-13.18423570935677,7.630229719182775 l5.548030719835617,1.6171603948237596 2.490400312408227,1.1265360053340228 l1.0236672851767978,0.7168497885907317 m-10.01644014698158,10.202424876057583 l1.7079670876485933,0.3077486907929708 1.7459683809420719,-0.18803131063435427 l6.9813293217916215,-2.0804108978456 0.8906752390840544,0.0056545420204154925 l0.8055622449339942,0.33110448787333324 0.46324920864988256,0.5310206911418919 l-0.13658032463327072,0.6114631842984308 -3.49245364368626,4.508660918546812 l-0.2945142811453426,0.9929439893304378 0.4705743229985389,1.1998179156407929 l3.2385924895338247,3.3427360653786073 0.3345515256565933,1.0788314642806371 l-0.8798477532847038,1.0050672178494902 -7.805332049791754,4.658960475327198 m-2.985496157735275,0.48571264399157904 l8.697126769523459,-0.30845885975938736 32.309366763888185,3.54057406431267 l7.778298492949299,0.34554818078658717 6.481561980095407,-0.25727448089561566 " fill="none" stroke="black" stroke-width="1" /></svg>