<?xml version="1.0" encoding="utf-8" ?>
<svg baseProfile="full" height="97.30565208375876" version="1.1" width="105.91051691113725" xmlns="http://www.w3.org/2000/svg" xmlns:ev="http://www.w3.org/2001/xml-events" xmlns:xlink="http://www.w3.org/1999/xlink"><defs /><rect fill="white" height="97.30565208375876" width="105.91051691113725" x="0" y="0" /><path d="M29.815518784345944,25 m0.0,0.0 m32.5126783226474,0.8196133361286919 l-0.0042092697360074285,0.3590197988731191 -0.328850226625071,1.3091400396547874 l-1.202972302976751,1.9692003314522704 -1.8336758602334957,2.0039013397372103 l-1.868096307926749,1.4800555154797759 m-4.780686050703451,0.5664646632230625 l0.5758273802343017,0.8324056500022343 0.18731586734720448,12.22477911171032 m0.022017382543659033,-12.320377542604968 l16.1933795652052,-1.6484080253963396 1.4091275581754303,0.026500272352540013 l0.6138019331719277,0.4696964769393292 0.33269166591052074,0.823719174660992 l-0.4675296295784823,13.77349934770491 m-17.73272723881079,-9.244843568350353 l11.392928136605875,-0.9614509894624813 m-11.139519207000001,5.27317592254651 l10.895231657029855,-0.988703591562776 m-10.826740300257338,5.1240763470247614 l16.62172291841503,-1.0269222728826704 m-28.133284156886535,8.1253184567429 l3.3600550218971486,0.15469581581262543 31.02877727612664,-1.6259037756417194 l3.219553033074758,0.20051308852820304 m-19.69868303541145,-4.054828857042869 l0.5781102941278993,1.3077777272935582 0.000796830920578334,13.689990595015388 l-0.24591691583233297,1.3894948005414234 -0.497793428467604,0.5325753524791071 l-0.6846318119128288,-0.11164448487916115 -1.9457564238665717,-1.715907408407094 m2.1145978934922507,-7.011576831253345 l-2.2851378553323487,2.0980836868184984 -3.305149879120616,2.3389009268038317 l-3.7112249378110675,1.9219272148423128 -4.109625931976213,1.4386044636027622 m22.40742997731994,-6.366305116694587 l3.068177316475758,1.3023197024620647 3.2238153191628536,1.962757370126627 l2.634153441897704,2.0665050634387483 1.227956055878923,1.5522455565978792 m-46.46054436084862,-26.853965443478096 l1.9711623098421922,0.890371603773191 2.264934170593038,1.3610249035870192 l1.816811842224582,1.440753022826066 0.7245612633405853,0.9039906493562148 m-10.722182759532433,10.244685504236228 l1.597734401324092,0.26805038663203007 1.5808556740682096,-0.1468579033239469 l6.426633370813205,-1.6262179137168482 0.7754580357126493,0.005728837968944243 l0.7412890037967996,0.28071648743463956 0.4263314591618331,0.47416888228175846 l-3.402468635719812,0.5285656231546786 -4.277452241882256,2.4904314981384665 l-1.3155708433201436,1.2234722658102275 -0.5841436854787222,0.6222699874878563 l0.29983166607858835,0.4301350285656684 4.31683708623211,2.770268271416306 l0.48808994403889844,0.8671717009339898 0.1057977349032646,0.49585609358224497 l-0.015325535965196455,0.5334731806010157 -0.6766744565039967,0.5843807827805224 l-6.821384689947825,3.9117983664129365 m-2.8940336144721392,0.6256076784582918 l4.710033904521217,-0.40495217815086665 3.520722592619344,0.045578367880021224 l34.21084166783479,4.874905234993466 7.052974842859867,0.40415647969867313 l6.415943903302026,-0.35627849054845256 " fill="none" stroke="black" stroke-width="1" /></svg>