<?xml version="1.0" encoding="utf-8" ?>
<svg baseProfile="full" height="120.79129781428888" version="1.1" width="126.81945712577672" xmlns="http://www.w3.org/2000/svg" xmlns:ev="http://www.w3.org/2001/xml-events" xmlns:xlink="http://www.w3.org/1999/xlink"><defs /><rect fill="white" height="120.79129781428888" width="126.81945712577672" x="0" y="0" /><path d="M25,25 m0.0,0.0 m41.42654771538664,2.7329594310350425 l-0.006126035758617547,0.5340248589726005 -0.46676853055930234,1.642640661621611 l-1.087006922125456,2.3008431715298543 -3.5997084832816264,6.404200820502452 l-3.7990296070617866,5.108170757396643 -5.117561562476355,5.540603099088111 m11.102717880636758,-19.176172085432732 l4.780559724379637,0.40422599348655747 22.516732202377845,-1.418519513559178 l5.1276798744205365,0.3372826445782313 m-29.816597544509225,10.144431571066097 l3.7661505799017307,1.0827288180252663 14.027988479784957,-2.718249757360255 l0.9856277036672992,0.13376710430671354 0.9359010484638806,1.6378043626204886 l-0.26258991635081147,0.6098730587064453 -9.74229822984955,12.829004623863757 l-1.0445541229530242,2.5787942650970357 -0.6120518956787802,2.765588076927277 l-0.28083545508166013,2.999626258659761 0.14168107089272458,4.024084297357977 l0.5189032487216805,3.4393062818981472 0.7313952497341536,3.383556938652532 l0.9666059026953788,3.709035684246025 1.1214764210023853,3.3244935497947337 l1.3993863612483508,3.2544437235640213 4.359462728314963,3.223508113946939 l4.667874623840963,1.1294456797933083 3.6909072099660514,-0.47569169774407616 l1.1809722343199307,-1.4108027857786312 0.23107871950237036,-1.5016690203322158 m-50.00016140065404,-41.22007879435349 l2.490507992625023,1.2642883992576903 2.9092573008797378,2.0721825875364437 l2.2271197600726795,2.0458765466164164 0.9486529222253878,1.327314328413989 m-11.953056493986365,17.915909206159863 l1.684131386152229,0.4313829282246967 1.1858320211379922,-0.14648657051370492 l8.246455096733868,-3.027997598327142 0.7169416576573198,0.009262128632867796 l0.6240163913067419,0.43530338019039316 0.2935739822213522,0.649489795717353 l-0.15397134611234273,0.7849564263078703 -3.1877910232162536,6.970918726670321 l0.20086229341880094,1.3607241079093864 3.5149518321419273,1.095263751518108 l2.882601078613761,3.4716055605825225 -0.0021378016220837933,0.8918581398350637 l-0.9974794995993003,0.7383428659660224 -9.39698102741956,6.531347809686189 m-3.5858045126134708,0.8127502600692077 l5.368905947081893,-0.6453946206396929 4.046231097141177,0.07990240831899417 l36.137243898026306,7.714944732191442 7.876603019046048,0.6542923217875165 l6.898431880945835,-0.6390682276945656 " fill="none" stroke="black" stroke-width="1" /></svg>