<?xml version="1.0" encoding="utf-8" ?>
<svg baseProfile="full" height="109.70534364995218" version="1.1" width="104.07242723296406" xmlns="http://www.w3.org/2000/svg" xmlns:ev="http://www.w3.org/2001/xml-events" xmlns:xlink="http://www.w3.org/1999/xlink"><defs /><rect fill="white" height="109.70534364995218" width="104.07242723296406" x="0" y="0" /><path d="M25,25 m0.0,0.0 m28.011489354263023,21.387865821158133 l0.4651213293059212,0.06130478957776556 2.8008571772551116,-0.03015519835994353 l18.76615718702882,-2.6557760922181166 1.4407355595487537,0.1348829447624802 m-12.874288119992736,-11.957813935726987 l0.7795890764353877,1.5302187627417452 0.19022893000941274,1.1095922371750377 l-0.05895468246736837,40.645865507100766 m-6.073964096940891,-23.99179716921477 l0.018153068556867127,1.4208045237717748 -0.2137238622301648,1.0771303969051005 l-2.120345460802121,3.4078161170778576 -2.906561248578915,3.322540530825374 l-4.386003636760165,3.0017612911326688 m23.149543407738562,-12.767751618350912 l2.388964456713647,2.678630228158948 2.105021386989539,3.2806829265481556 l1.7557517816361814,3.449935065921831 0.8346556252551942,2.75254078231433 m-46.94676841930684,-30.444715190496314 l2.0203185119429934,1.2246139400190341 2.0409309565466924,1.7012530607902514 l1.5983824610006843,1.7956276818211963 0.6265935055604707,1.1298642569248356 m-10.454874158445957,15.622025485843958 l1.3774526419677504,0.29008007774515165 1.012441086490481,-0.11976523835592863 l6.474019868071719,-2.49317540038092 0.609882073556283,0.2509297234863562 l0.2745203414754696,0.5615063185929625 -0.1515603229743147,0.7667783787718825 l-2.7720528809104903,4.599880403410992 -0.3996051151971511,1.1597717392192335 l0.40312194018471703,0.7391669398536203 3.159812493121839,3.5777032749527473 l-0.3139515986761691,0.9705562726624537 -7.181156913044962,5.991212054085585 m-2.41519898833625,1.2143192196825368 l3.8700118345657017,-0.4454452404448662 4.676660879750566,0.18593994467915695 l7.610759239058569,5.546262347277251 9.272764813079787,6.256572579108488 l4.630507642914797,1.3331853011042154 4.267026784909348,0.43291780829708193 l4.161693770462936,-0.12585859347129774 " fill="none" stroke="black" stroke-width="1" /></svg>