<?xml version="1.0" encoding="utf-8" ?>
<svg baseProfile="full" height="110.14211116665966" version="1.1" width="110.70381404587785" xmlns="http://www.w3.org/2000/svg" xmlns:ev="http://www.w3.org/2001/xml-events" xmlns:xlink="http://www.w3.org/1999/xlink"><defs /><rect fill="white" height="110.14211116665966" width="110.70381404587785" x="0" y="0" /><path d="M25,25 m0.0,0.0 m23.48275067106901,5.537389226937775 l0.40762051174351444,0.11590040135004866 4.03572120603301,-0.02251490507699687 l16.216110204370743,-1.871082021667242 2.423014043641735,-0.17685961504349013 m-12.272094646182778,2.1462187638362673 l0.6233749221137876,1.0971798432040998 0.19592087276281459,1.042970357497673 l0.023628501292893102,20.320893901731644 m0.28244993661831125,-11.221035227821487 l9.296053375277689,-1.1092325202002509 1.813505028202584,0.10062414846487559 m-21.425652156474232,-0.17210620667483204 l0.5970005354113034,0.8866089416928647 0.25533934064093883,1.2173413735409566 l0.026710725772551454,10.847525042633452 m-6.5521090034099005,0.2136930240967489 l1.6349608999895955,0.44993839391341556 1.8836247465478284,-0.018369785607517942 l26.379627008508333,-1.99278594406799 2.821042991483496,0.33351953596794226 m-39.15421919036673,8.212911356701625 l1.1284732824177324,1.6359633800364133 1.4759072675648215,2.147055110823016 l1.6994348604854472,2.418941425515309 m23.16740675624024,-9.719046294113124 l-0.3307312852465068,1.108215598064091 -1.0627633871390565,1.7035392720587408 l-1.8013243851178777,4.186175449058303 -1.7328228249030648,3.056488856125891 m-24.342746719849895,3.0966878417642785 l3.593755808247264,0.3070837725430149 15.091612655969605,-1.1969079213501372 l11.03276688094257,-0.5745661113518263 4.332630951767989,-0.06531724703073376 l2.760816000748553,0.31043563844095623 m-19.44781190900726,-5.220341439145559 l0.7019989987718186,0.870275335759331 0.2592910929137589,1.141452043790655 l-0.0537796137002999,18.997248370261453 m-1.9070208572515934,-15.671303588629364 l-0.3940487501628404,1.3513161069574948 -0.7862723538099877,1.7145388972574338 l-1.6567191774929093,2.233605150585883 -2.299848338252859,2.335488522898648 l-4.9919107164897625,3.750528768968562 -5.8409300480305415,1.752935581096875 l-3.426053458264621,0.5803084561384794 m23.556854938701175,-13.144720473462492 l15.344667920448062,3.8994716706594237 8.564801596696574,2.2259367837689585 l5.073798333634817,1.076234457300272 " fill="none" stroke="black" stroke-width="1" /></svg>