<?xml version="1.0" encoding="utf-8" ?>
<svg baseProfile="full" height="123.81776231887002" version="1.1" width="102.29651669363359" xmlns="http://www.w3.org/2000/svg" xmlns:ev="http://www.w3.org/2001/xml-events" xmlns:xlink="http://www.w3.org/1999/xlink"><defs /><rect fill="white" height="123.81776231887002" width="102.29651669363359" x="0" y="0" /><path d="M25,25 m0.0,0.0 m26.92800448329536,13.793948198396395 l0.4385375048550663,0.1685341338716165 2.3269444204861656,1.4510972803684385 l1.4826332522220402,1.8947098284089554 m-19.635535017523814,3.7526907713273685 l2.7829128726717967,0.19418988632263315 29.385797277027578,-2.513594505315618 l3.9492674802909455,-0.12449578818266077 1.7558687658511165,0.28533524962636236 m-30.534271578436307,2.7859444143574374 l0.01356880056920295,1.3937392112644345 -1.3007676800795425,4.195709056685685 l-1.405297722029531,5.021229520044985 -1.0259049690438007,3.9377771101510404 l-1.1238481046949822,3.845221258082224 -1.1268739683001654,6.2296670311365965 l-2.5239024582480063,8.500754978709715 -1.3566043510727228,2.856360706615036 m9.530178778795403,-29.22005097006234 l2.4897118148783375,-0.1599219609197991 9.553687700503737,-1.4537985780420097 l1.1302463207968816,0.05000113120230265 m-6.837123820251934,-4.121929806526474 l0.5155244940569633,0.44162071991619684 0.31739331428448686,1.0990206567414444 l-0.12611059302770447,17.014237217030164 m-0.38788376722619466,-13.013467054003886 l-1.4549689085226647,3.017064973813227 -2.068083213995733,3.3282087696348794 l-2.374751109959384,3.0665715512117333 -2.1555089474955986,2.041499614782624 m9.97630073476547,-8.684658961195732 l2.4058487596159592,1.6198148865667266 1.8392678962708986,2.093629480141389 m2.6062185747381874,-7.8821339252860065 l3.418571956890397,-0.03480135766340944 10.63444719229752,-1.2986727123015531 l1.8569248963882594,0.00572812835396714 m-8.914715982071133,-4.397833647770279 l0.44643350144451577,0.37298483511460856 0.29206895424283674,0.9329992880164976 l0.10432111898861121,17.448002439018435 m-0.32920220021439367,-13.1359355983967 l-1.3901046407715836,3.2380417253748606 -2.3756743154312714,3.910438301903502 l-2.7484292300905016,3.4699361876505153 -2.3175860844834513,2.09039497659238 m9.015158803662091,-12.012178948677596 l2.8614346696269735,3.3708800150819234 3.173564193685397,3.168264936833223 l2.4223783343470764,1.9887307173539308 2.156448489054751,1.1928639938749401 m-33.899807935414444,3.796097445499254 l1.8517361297536268,1.0813481473223296 1.7924585089446672,1.595322989864007 l1.5756284975327308,1.7826142999339616 m19.13754094916244,-6.638698505124015 l-0.028809683820890494,0.8371631613835941 -0.36082535668038873,0.841747830741885 l-2.7151524073243243,3.3122312836135896 m-26.38841819703352,3.5079304875363637 l3.344659983586763,0.22299481654935108 24.958162030577128,-2.0597436118478525 l5.355455177874401,-0.23353044407950152 2.0796066193183393,0.1667456415461078 m-19.78190496815669,2.649910266929663 l0.5837275516369725,1.2883115443227668 0.1950074308653108,1.3084575079514806 l-0.09328508777253006,12.98556841241472 m1.083013822235932,-8.473632043726552 l8.97491155917104,-1.0227736585829263 4.5170122780743265,0.0001133918406465487 m-24.913407989887716,-3.56733757004115 l0.08906688720937002,1.3308262581563641 -0.36072959605828697,1.5274078526327346 l-2.182699545153591,4.308248849679413 -2.6102804994243027,3.598992124554655 l-3.7331718676981804,3.6939483657422167 m7.66336973231324,-8.819841138168915 l1.8761294673267992,7.7369979237646085 0.5324360694493708,2.252532547365911 l0.2193072171859977,1.9101839738555864 0.144688773065014,1.9955163489406258 l0.20607856100210348,1.1803416806216138 0.4114979816815091,0.9699693763461736 l0.6490552339499404,0.8259512775299749 3.3845933247204827,0.7093302888290882 l6.031466815242782,0.002145827737857097 4.015585020045267,-0.3283391517738611 l2.257466584705482,-0.5590707238975424 1.3226297519977304,-0.7377197343029316 l0.874887662867736,-1.0502077877403637 0.4812535791058473,-1.3888638526170531 l0.16399318072394134,-2.4970816713934285 " fill="none" stroke="black" stroke-width="1" /></svg>