<?xml version="1.0" encoding="utf-8" ?>
<svg baseProfile="full" height="96.97517040740823" version="1.1" width="98.62831327130442" xmlns="http://www.w3.org/2000/svg" xmlns:ev="http://www.w3.org/2001/xml-events" xmlns:xlink="http://www.w3.org/1999/xlink"><defs /><rect fill="white" height="96.97517040740823" width="98.62831327130442" x="0" y="0" /><path d="M25,25 m0.0,0.0 m32.35666788656857,7.6589236414461626 l0.0016142559961305222,0.5016659446005761 -3.278070513250629,3.7229231521292294 l-4.529439373423808,3.4029271712729994 m-2.301399912898767,0.13637570001965002 l0.6746703121370491,0.9506932125251794 0.20125989625949045,1.2074021860005157 l0.016239758872398428,19.254433315343867 0.3061772764224112,0.8575449610707071 l0.5060099561865569,-0.17098294696158137 9.27900115953924,-0.7095347508354625 l8.034654341005803,-0.8655857579939952 1.8539945984852726,-0.5117579353575733 l1.2238430819336565,-0.7458738887698063 0.5121243268065581,-1.3564096280063893 l0.11955694559954062,-2.247681131508166 m-36.302067955522425,-28.64641711331379 l1.8275012947780767,0.8503892159879042 2.1868498470494866,1.5043025428864614 l1.804447753555128,1.572418229686768 0.7308777240580175,0.9776897832835791 m-9.59180533877639,6.080031872195373 l1.9865398423921705,0.7785938019476536 2.2359006135041457,1.2211028673255482 l1.850412045937171,1.3277700526138936 0.7686240178657694,0.8243679955945351 m-7.8726169120881115,8.80153917279352 l1.278277487693599,0.2821441354857821 0.9440419526665125,-0.12139418829988675 l5.729614531878249,-1.9299623666550583 0.999236165194708,0.4991463353287213 l-0.034083591158816144,0.4669889163415012 -2.6631428433370523,4.025156219870908 l-0.1837399646284655,0.8624817661060167 0.3713471066819431,1.0047497897747295 l2.4337870992922044,2.874723130406607 0.27509839461636776,0.9167097400533111 l-0.6887428269836605,0.8100532060273836 -5.766161186737295,3.914035800410245 m-2.245508372921426,0.9904391300876494 l3.8355335970768425,-0.5263024668528107 2.943407145710587,0.046466878201669844 l25.847185710987993,5.882578250928736 5.858941113286551,0.6003044642153689 l5.09165482299306,-0.37359277277839537 " fill="none" stroke="black" stroke-width="1" /></svg>