<?xml version="1.0" encoding="utf-8" ?>
<svg baseProfile="full" height="102.94792674566429" version="1.1" width="104.97507063362553" xmlns="http://www.w3.org/2000/svg" xmlns:ev="http://www.w3.org/2001/xml-events" xmlns:xlink="http://www.w3.org/1999/xlink"><defs /><rect fill="white" height="102.94792674566429" width="104.97507063362553" x="0" y="0" /><path d="M25,25 m0.0,0.0 m31.26242208161737,21.59873729292203 l0.3949590350581188,0.05132731565514149 2.3293066403543623,-0.009650981121845037 l17.72728937629271,-2.6213073762006 1.255819404534312,-0.08050665941228936 m-11.9085889881262,-13.12023389409637 l0.6894378082943965,0.954380486961849 0.3554729549137135,1.5938081269641062 l-0.12289490914858558,41.09387751233514 m-0.3392574966468979,-24.75789762263591 l-0.35620462435023986,1.488141289699217 -1.1047090577271619,1.9961674389540753 l-4.006982893360266,5.606351381536437 -4.713509563949729,4.627848790310865 l-4.8552687077980305,3.228409625401583 m16.982019075778986,-16.557396729324132 l3.3562217187362346,2.603295345506923 3.241676592878074,2.992111040420262 l2.759736590254133,3.175096776235168 2.0281255960202285,3.2268865084965404 m-42.123929848803144,-29.620216227583953 l2.130540898972405,1.3609431549391695 1.9225017331367962,1.7295074676323112 l1.489339015008199,1.7826014417677856 0.5880259794126907,1.131632432093159 m-9.878576341089191,13.039787519611346 l1.220745948427682,0.26345117165102827 1.4548898726667696,-0.14401479516075075 l5.8692686718156315,-2.2700257940165973 0.6282031169911197,-0.03524241591120239 l0.5573564909463015,0.32390926483221605 0.32472233719233745,0.5945546761873328 l-0.1346066447627823,0.7016082291743172 -2.44718200274337,4.6723561086035055 l-0.32200811886561354,1.1671119637936282 0.3678054312353409,0.725266196738494 l2.5327175596408367,3.439126189188351 -0.2176429176433664,1.0805378767147884 l-7.158725364935169,5.530727946192481 -2.3291927353442436,1.5478226077451611 m-2.3285650211724533,0.8324833179821389 l4.388690658124044,-0.5143994213607174 3.6659646469804295,0.16060561655539501 l6.905311424854162,1.9171277423535271 15.67290370635058,5.011068668756002 l4.3705742238312935,0.9613576486804513 4.5100565431721655,0.46879248989672967 " fill="none" stroke="black" stroke-width="1" /></svg>