<?xml version="1.0" encoding="utf-8" ?>
<svg baseProfile="full" height="100.99188438406603" version="1.1" width="107.30944644182685" xmlns="http://www.w3.org/2000/svg" xmlns:ev="http://www.w3.org/2001/xml-events" xmlns:xlink="http://www.w3.org/1999/xlink"><defs /><rect fill="white" height="100.99188438406603" width="107.30944644182685" x="0" y="0" /><path d="M30.342265010706626,25 m0.0,0.0 m34.350652255532694,2.18932466736396 l0.0180909420226785,0.4705724890015449 -0.40532480348669253,0.9344833864862114 l-2.1866708033947155,1.7910505944864255 -5.846930368163169,2.729959926154633 l-6.898748634969117,2.2653034803109358 m-3.0218357682718437,-0.5504044250757336 l0.6853389205169755,1.053276110157087 0.25548430916280035,1.8189867778958162 l-0.14890366851712225,8.848719533153771 -0.5317131473502548,5.877279871794487 l-1.9106982293635966,4.959657428130922 -1.9413111712822466,2.3994539513257394 l-2.092500863128851,1.6286843235379962 m9.149649276125993,-18.73898973812212 l3.536123350652766,0.08339308930356194 19.214134247144482,-1.9561602701193028 l6.258309213932152,-0.20180185711181958 m-14.750513077979132,2.6831021419452075 l0.7606292365520797,0.8475808223844716 0.3995676416826581,1.3334448162269978 l-0.08338371898180612,23.489399435291045 m-34.339336155584824,-39.47004693452995 l2.24008641464603,1.3018043941248663 2.2844573219067232,1.7368174828727994 l1.8367853291149139,1.7889001366669082 0.7436259804695085,1.1224688016848843 m-12.917329039695714,12.739966245540865 l1.5002442678730061,0.35626996932040783 1.1242407929589733,-0.10493945160799108 l8.201008996593332,-2.4291022927551764 0.712234082856828,0.34133432191055757 l0.31420294467553606,0.5888329608719169 -0.16681725004739176,0.7172540153035856 l-3.0390734053386304,4.8906206527337845 -0.35155649504910336,1.1721515536747702 l0.45259375021644,0.9379330455085051 3.636892008829551,3.649309126263243 l0.20225292262485914,1.9593321118378866 -0.8417675581525547,2.9593314406438864 l-2.100245929566511,2.7047620615541255 -4.18922351902178,2.009200455211238 m-2.84515238322996,0.9567053428468312 l4.9678612724760765,-0.677121408253147 3.6110484569515244,0.05341576446139309 l32.71712307401373,7.1566955525338 7.0354595488037015,0.5736724811242038 l6.368120863359238,-0.5092061127240971 " fill="none" stroke="black" stroke-width="1" /></svg>