<?xml version="1.0" encoding="utf-8" ?>
<svg baseProfile="full" height="115.0441312399965" version="1.1" width="100.36991735399735" xmlns="http://www.w3.org/2000/svg" xmlns:ev="http://www.w3.org/2001/xml-events" xmlns:xlink="http://www.w3.org/1999/xlink"><defs /><rect fill="white" height="115.0441312399965" width="100.36991735399735" x="0" y="0" /><path d="M25,25 m0.0,0.0 m24.724321029859237,16.583496144453953 l0.4392053523581387,0.1385957288716565 2.5201984263823483,0.02399692101163935 l17.02339682089745,-2.9901705278830537 2.522237643161375,0.14566645807978942 l0.642785426530945,0.3243804192447661 0.5014590137021387,1.0169718684203188 l-0.9266877460035056,3.308277482440421 -2.499902691932211,6.99775895554535 l-2.403408632063845,4.942735300282082 -1.1601464399883266,1.468998123335406 l-0.6798016832130407,0.24320319051625883 -1.0905246321476263,-0.5161530290520377 l-1.281537087065981,-1.4062637910691593 m-4.643070496623687,-13.56015477998033 l-0.015737117833015568,1.3905748406993783 -0.6269886056890867,1.7608120646498062 l-1.2373073392430127,2.57504019442957 -1.5775575311998802,2.506097056246078 l-3.459467813581124,4.006656398123554 -4.816823614056731,4.068191597276023 m1.9960841080132734,5.305484825955132 l0.5606037114380489,0.7679246446310611 0.5218848280482968,2.8547711329301695 l1.6150373570887795,13.1866119175976 m-1.9517325335246232,-15.787328266148137 l18.290163499769537,-2.3452647335889885 1.564223905489538,-0.07285270216449076 l1.2680271392871063,0.3815847202255144 0.7591080215885716,0.855972899108175 l0.05591239960732604,1.59502851224896 -2.9238691886259716,12.191713973164584 m-16.566741988037677,1.699225303305233 l17.964463496196306,-1.2857638883434885 m-40.14754406870877,-40.138409110685224 l2.048725573041988,1.266793052669149 2.056908162174328,1.7540969141928646 l1.6305659005982287,1.8147759490313888 0.6537118171360735,1.1471213306914618 m-9.148716855689365,6.575518102166787 l2.2745115103653997,1.3452790786816156 2.1373952032384875,1.6744998380168015 l1.7658376664468438,1.7793989704193385 0.7136572501383466,1.1078140464135195 m-8.044757574368779,9.107842918763463 l1.3619401852344861,0.337364655307737 1.0101530883357,-0.1399363639308196 l5.767342893170649,-2.205761857663211 1.1136032899400856,0.16863474923083158 l0.43068493937040875,0.45233021159562997 -0.035495164339337096,0.6004189177079949 l-2.915499886018314,4.725856990780989 -0.27443513990035046,1.0755673695272447 l0.38206200543035507,1.223156358168171 2.371456286232268,3.688900990784416 l0.2895210098432498,1.1867280597848158 -0.6988984832978086,1.0580769659182123 l-6.018869745808512,4.784684761839155 m-2.573147249289264,1.2244127699222394 l4.344674861356808,-0.6476803626071614 3.158682543175243,0.06903253523407892 l31.243197154217594,7.622246113134963 4.98820987564437,0.009548330337261421 l5.376633267737866,-0.6937522873567353 " fill="none" stroke="black" stroke-width="1" /></svg>