<?xml version="1.0" encoding="utf-8" ?>
<svg baseProfile="full" height="111.45755610096575" version="1.1" width="99.31328184921583" xmlns="http://www.w3.org/2000/svg" xmlns:ev="http://www.w3.org/2001/xml-events" xmlns:xlink="http://www.w3.org/1999/xlink"><defs /><rect fill="white" height="111.45755610096575" width="99.31328184921583" x="0" y="0" /><path d="M25,25 m0.0,0.0 m30.327312931683938,4.577089603257684 l0.028887175310039592,0.5042723961278864 -0.16897820882593817,1.6835108702673263 l-0.9712185373079399,2.5892905062798244 -1.7968666878103385,3.2663789080489956 l-2.11921003336479,3.0488998583544618 m-4.219619141167314,0.5741767936035624 l0.4825212585244324,1.123758174058892 0.17053948780600717,26.302669963426954 m0.2854500641957592,-26.238289480834894 l15.772205236805323,-3.1152962983365016 1.3271180765997093,-0.02385724127851271 l0.9955822718898838,0.33879492327212435 0.6765764966949764,1.4524141722255657 l-0.6230575833700196,25.170557870166725 m-17.896392526100893,-15.928751406081036 l3.1527935693707345,-0.18548878003653227 8.365287613880207,-1.5007940382044116 m-11.55886288355599,9.51619182216008 l11.08156971133926,-1.7209309368830878 m-10.96668880307858,9.909914880876764 l17.40130953865132,-1.8202090500955517 m-12.965771813539517,6.116975073831243 l0.04285522084721374,1.5267466832133325 -0.7059758922598914,1.9568697479736432 l-1.5786034396776678,2.8109006084744674 -2.1819172720593385,3.0466694999045174 l-4.154108392205225,4.439964088584826 -2.5717555458323695,2.035126888607388 m18.528074748774632,-18.467010908881164 l0.5456588460961422,1.5146773114462233 0.09573981980210658,10.71084158523718 l0.3799551812171968,1.7015317141746322 0.5812807948312622,1.0900022141792591 l1.3141531463516145,0.7739585056306687 2.1257206545952045,0.3303577345445073 l4.417983233030355,5.5057049549024455e-06 2.9611052774717104,-0.5013745134076184 l1.4689841959885233,-0.7632055184655554 0.8147545633187157,-1.094997560728297 l0.30404795604113277,-1.0939680746251679 0.14484153825421917,-2.1388052751801867 " fill="none" stroke="black" stroke-width="1" /></svg>