<?xml version="1.0" encoding="utf-8" ?>
<svg baseProfile="full" height="106.64715187357254" version="1.1" width="104.44518224583989" xmlns="http://www.w3.org/2000/svg" xmlns:ev="http://www.w3.org/2001/xml-events" xmlns:xlink="http://www.w3.org/1999/xlink"><defs /><rect fill="white" height="106.64715187357254" width="104.44518224583989" x="0" y="0" /><path d="M25,25 m0.0,0.0 m17.853862165602045,14.114389325862398 l0.5284354776625493,0.15927980045590456 2.883942311807873,0.05593479521865494 l22.239152781131793,-2.38849419954087 3.8331844606046466,0.21252872544792822 m-16.47540305568767,-6.16838450928863 l0.7122707353007333,0.8873416487462935 0.29712124350486274,1.1288825901622772 l-0.02890043665436816,12.67222554409364 m-12.732444247491234,1.556425153090855 l3.5147310282332658,0.02839178213571731 16.879551942542033,-1.7933735062370717 l3.9132796123778446,-0.16969103922199408 1.7283859677391145,0.1619754934738229 m-33.28504607697546,7.905520467387026 l-1.057418269848855,5.226050322451816 -1.8288618384515412,5.00528084633971 m3.4157627578111365,-8.737427692741342 l10.721586782319214,-2.6363449247033532 11.0758831179085,-1.5255192831263311 l12.29154841056468,-1.0435370964759567 6.753649979383059,-0.0628653063417716 l0.8667868219711969,0.4004099363546057 0.3441205744844737,0.5622218903823372 l-0.09212471302871186,0.6947296924499908 -1.008767209655978,1.633374774514707 l-2.412359134009808,2.4628189536646 m-8.256908366106096,3.3392528450998165 l-0.8218646321583302,1.4272000815386678 -4.033777967250798,2.514267069820247 l-5.820152263145084,2.925646948051248 -5.863759344334675,2.2899005163345234 m-2.4682178308122276,-10.564797428189777 l0.548958104400218,0.9013116589620296 0.2025762165678687,1.196326966521406 l0.1062934202124176,17.594950727477315 0.731954919738689,2.107870273558631 l1.3003051283915095,1.1839261863344286 2.3560018750408247,0.8310641261155184 l4.262497591860102,0.49914594995401085 8.959534413030136,0.05894176743950411 l5.041323731432927,-0.5125021464550348 2.0753306844879083,-0.7711806453988327 l1.7930739338215824,-1.2765552092517718 0.8134480764372479,-1.7134711066713233 l0.30977533478176417,-3.121971726376659 " fill="none" stroke="black" stroke-width="1" /></svg>