<?xml version="1.0" encoding="utf-8" ?>
<svg baseProfile="full" height="118.25880021332989" version="1.1" width="102.69477030228762" xmlns="http://www.w3.org/2000/svg" xmlns:ev="http://www.w3.org/2001/xml-events" xmlns:xlink="http://www.w3.org/1999/xlink"><defs /><rect fill="white" height="118.25880021332989" width="102.69477030228762" x="0" y="0" /><path d="M25,25 m0.0,0.0 m42.30645769823204,9.8735702209807 l-0.062168135043470914,0.4712137205584059 -1.2164247347593387,1.527685228012976 l-2.606907369952405,1.9750445475491352 -3.7996338795775357,2.096278962157415 l-4.991369592018488,2.104146459560454 m-1.7150969949267703,-0.3326150312103768 l0.6497226823818073,1.0700259858943437 0.2544586111039441,1.7912189624303125 l-0.1590373526004602,9.463994381207726 -0.5150485635052585,5.666908519422682 l-0.6625788393871518,3.5122785710109654 -1.0276282450571532,6.05639366897947 l-1.1428676929201944,4.389885047684817 -1.093481157414251,2.893517778229869 m5.552146314462544,-23.6575048907356 l2.1279879447294268,0.10907434602623844 13.770603076002375,-2.183731739444097 l4.9333134102843665,-0.22954119751709537 m-10.183841302458593,2.9761630839271014 l0.5610337420408918,0.9669204092719036 0.2859578282145929,1.4716566575078038 l-0.04754303023653561,26.253161665814957 m-27.849272002157957,-44.122130942890614 l1.5931500585717542,1.3499920280180333 1.6826387389007202,1.9623922088096584 l1.357308439361465,2.0318820671258537 0.5385140046268541,1.2843234041732836 m-9.31349159541687,14.800821568685597 l1.6814511432581272,0.35646938972435877 6.014018085372506,-2.6546722645725698 l1.4523660486717127,-0.1785251595352297 0.4081530615711516,0.34077012193517175 l0.17452392163486588,0.6385334204038423 -0.15663492617388086,0.8177413773957041 l-2.2534967212251003,5.050377734657868 -0.31933215803661363,2.628212153195452 l0.38946418649517023,1.161841557001719 2.3150886674729794,3.6781902702035367 l-0.0035764248576321267,2.623529470556275 -0.6079224090197979,3.3243567581972586 l-1.656727997062225,3.240515518686165 -3.4448564643211386,2.231843595172696 m-2.179961567328595,1.115378366719304 l3.71144020021101,-0.7262685943357425 2.718020136311321,0.06039337525870983 l24.94761727874237,8.298547542587995 5.50831502062669,0.6785398888354516 l4.769919158464339,-0.5761288345332297 " fill="none" stroke="black" stroke-width="1" /></svg>