<?xml version="1.0" encoding="utf-8" ?>
<svg baseProfile="full" height="115.92160847171269" version="1.1" width="100.7922517258157" xmlns="http://www.w3.org/2000/svg" xmlns:ev="http://www.w3.org/2001/xml-events" xmlns:xlink="http://www.w3.org/1999/xlink"><defs /><rect fill="white" height="115.92160847171269" width="100.7922517258157" x="0" y="0" /><path d="M25,25 m0.0,0.0 m29.562561857633128,9.015599465072828 l0.04873439097874544,0.43519068440676795 -0.1584955356595773,1.613954511162644 l-1.1705188055031785,6.855012986789437 -0.9187389233353824,3.929544273448478 l-1.2729469321934577,4.019758336558468 -1.2963008788398378,2.6079616579123144 l-1.1666655677489164,1.7074656547131055 m6.411123494459366,-15.01484904455988 l1.7316893090229064,0.09003366925002444 6.796380955989996,-1.5008548781051851 l0.7615130761151878,0.07522121831103915 0.36963217404028004,0.3060527489160075 l0.15682817184030107,0.5585628328383435 -2.468401636409101,1.4918121833028002 l-2.4384251715984817,2.2434208444008017 m-5.05388620171186,0.44708680118272126 l0.24444146685279397,1.4391141275763786 -0.33743816082550976,3.861411864458745 l-0.5591041996178634,3.664234816164379 -0.8484595160211396,3.636526134933801 l-1.774376863724817,2.5854558805746395 -1.5103710574589437,1.2903479542531449 l-1.5055869810817417,0.9008548131820321 m6.135099594489724,-13.391306062871772 l1.4822334505476513,1.4297604582510317 1.33450240839497,2.0041344148318463 l1.2457699132839937,2.348696683733046 0.8401359070595232,2.3304787499041333 m4.1749489826031345,-25.169383142651398 l0.318974927320829,0.8856869397791541 0.0829607330959542,0.966208817855787 l0.009798769679494647,5.836205233987967 -0.2551592410828817,4.396279681364343 l-0.3741250099690977,3.623600353299987 -0.5591736515285108,2.751033110263524 l-0.8275582988144873,2.1910248515692694 -0.9308496599847969,1.7092383839972791 m3.3423637349195157,-16.80384976133271 l6.252585138368538,-1.3238062895503628 0.8624956510110788,0.025733574827864227 l0.35581352633431884,0.21163810809458422 0.19231474996402967,0.4749057580425127 l-0.044010228588911904,0.6693411390129953 -0.7620954684664866,4.095874037034619 l-0.5924595605352442,4.623355384163914 -0.4111431802991315,3.6404153482743893 l-0.34246219082032386,1.343686576384459 0.13517111059667736,0.8905753715397365 l0.3641189987911377,0.5385056696801196 0.6928496863552231,0.3050980598023858 l2.046872561248608,0.08656934000022518 1.1519953555955456,-0.2502548637725305 l0.7475418206807722,-0.483541502319548 0.34993326693732874,-0.8015425936544397 l0.16961946342463374,-2.091699573074731 m-11.79427560609676,10.529615013132236 l1.3503740427026125,1.3933725719694101 1.1789994400278931,2.0291102070799543 l0.867131569034936,1.9271582187468 0.5229346797213263,1.8270321454263616 m-20.64695199474454,13.575338191452984 l-0.1961505365046855,1.7589277667848893 -0.641933629154536,2.8262478917485714 l-1.0389097882980627,3.1379675604677812 -0.9059862711427202,2.1094099427962734 m6.3211524941704145,-12.412475578928422 l1.950219274852864,4.462501900537241 2.159645841374795,3.382952168354283 l2.5872658177188357,2.643152696482432 3.0984208513367895,1.7923796334628745 l2.276798583493862,0.8297941629080153 2.5926273432501428,0.5507160507841142 l3.017233032484095,0.23682613529537266 2.096462195250217,-0.2501441901543627 l0.6534807405757107,-0.3341380565573277 0.3240365801560295,-0.4690067064119742 l0.0009710396506287084,-0.5917692031720472 -0.294738652996298,-0.6876327841554847 l-1.4504601839208566,-1.7014146696139378 m-10.006554425627327,-9.962778506167801 l0.8847970117618355,1.7190270975304371 0.7944887740660254,0.8605624116624655 l0.6868294635198776,0.09242675635428156 0.30164890365900143,-0.8874087011124012 l0.16676408219404934,-1.110293499897604 m7.509144190034262,-2.2045357077173224 l1.4872468835007706,1.1028280280667753 1.1692819028125245,1.2495813473965494 l1.05320359746286,1.7438238777555652 0.8029869282726183,1.9962722275096958 " fill="none" stroke="black" stroke-width="1" /></svg>