<?xml version="1.0" encoding="utf-8" ?>
<svg baseProfile="full" height="85.138273052681" version="1.1" width="110.13448532787213" xmlns="http://www.w3.org/2000/svg" xmlns:ev="http://www.w3.org/2001/xml-events" xmlns:xlink="http://www.w3.org/1999/xlink"><defs /><rect fill="white" height="85.138273052681" width="110.13448532787213" x="0" y="0" /><path d="M25,25.127013271518592 m0.0,0.0 m33.0796359042405,1.82311592776405 l0.07060431937936165,0.41124453236294645 -0.20305487898668348,1.0227451842516393 l-0.739627545642809,1.7118267254342097 -2.5118116256381686,4.3677855395011305 l-2.936862763021855,3.6231290187680836 -3.889526128022232,3.77182667396501 m8.03127903589559,-7.446463839863607 l6.9889720756995555,-0.4907737071218172 13.72217396810081,-1.470272879071876 l2.85760372995715,0.039202763400274176 m-26.51581739674596,9.978508767474233 l3.19138913847213,0.609261965877456 16.078645779257187,-2.2380397389183857 l0.9474725426918131,0.22176300487117453 0.35310573487525704,0.40557840183531385 l0.04724822011693225,0.4903333529614735 -0.47352317154041823,0.5901227388122825 l-9.861396485780567,5.583895996821628 -5.858767863038553,3.816560801637028 l-1.014769465567842,1.0891974765253216 -0.20544789464826874,0.6253601917020494 l0.2917707022799074,0.17122772792724802 1.0470153881476283,-0.2198072395679134 l17.031059196077464,-3.7064207212167037 m-4.418149220643088,-4.179332438904965 l1.8170980777109293,1.3712697698648115 2.0783607229646375,2.174481764978726 l1.8074409031478968,2.4339211048339955 0.7684656128867613,1.9186773695118555 m-41.169949111596026,-28.626939507935262 l2.3504713909614052,1.2153018620866696 2.1783992429038626,1.4935281394868951 l1.7824212375569837,1.5406072516132436 0.6921236145232221,0.9710995475146408 m-11.139741893060297,11.808158064646404 l1.5492125452971934,0.3125721158763673 1.1567317709020737,-0.09062820517459227 l8.445819321898004,-2.4783887786636565 0.6664601344726004,0.277102914348743 l0.290527765455465,0.5167816935412797 -0.17857213148570658,0.6793274836155849 l-3.9101961351264163,4.789254990648979 -0.36416170669345505,0.962127048141798 l0.4947445654651138,0.6241314855302588 3.633355552061892,2.866889869843668 l0.33540578301683893,0.48788414940178354 -0.030596233812142024,0.9730935508983074 l-8.052107299162069,2.0641794802334976 -3.4746917799890835,1.137115198740939 m-2.968959832619778,0.19851881143558314 l5.043882494618918,-0.4422783851032165 4.8416069033507645,0.048511200289589745 l32.6094468276707,4.715383411959453 7.258831983543469,0.46800015176877047 l6.51343370509351,-0.327724561012035 " fill="none" stroke="black" stroke-width="1" /></svg>