<?xml version="1.0" encoding="utf-8" ?>
<svg baseProfile="full" height="115.5540411096767" version="1.1" width="119.33353433861582" xmlns="http://www.w3.org/2000/svg" xmlns:ev="http://www.w3.org/2001/xml-events" xmlns:xlink="http://www.w3.org/1999/xlink"><defs /><rect fill="white" height="115.5540411096767" width="119.33353433861582" x="0" y="0" /><path d="M25,25 m0.0,0.0 m34.05343135892524,11.318199650868651 l-0.0649659108656379,0.47781251577576456 -0.5462343447507771,1.271241274179397 l-2.4702490929590923,2.9617001862413055 -2.6463980378795586,2.555337459436476 l-3.177519283118145,2.6216012695096333 m19.99989659093516,0.3238642415195849 l-0.03488208163263807,1.0371546327694998 -0.9738957080747577,1.0520131330502536 l-2.18253458840854,3.252487370078399 -2.305564530045219,2.9251617257347786 l-4.403014813170675,4.704601970631918 -5.486464123974991,4.708536797635152 l-3.6675751970349615,2.291621414551045 m8.76772030423135,-7.420581448942053 l0.5616651203001277,1.3116765241955697 0.06479037217182695,17.175943368161118 l0.3267842791730253,0.6130697981773677 1.321888366408086,-0.5066221783025893 l7.892217978762212,-7.232269616261504 m4.119541629624912,-6.878208784925748 l2.967965218315657,0.3316186429959504 8.950617401521445,-1.5075682264083075 l2.3512690169980086,-0.14861935199413423 m-10.871614360486216,-11.648700622173376 l0.9240234552514329,1.454557111236824 0.10403021073315297,5.629599888926009 l-0.06136172220846921,15.436126767476907 -0.3139950603587882,0.8238790717960299 l-0.20205164291520894,0.8024927700040175 -0.11220923392661834,0.4217289049285708 l0.05150348931267391,0.19252349861927467 0.43384017450269236,0.01846312578097107 l0.8150566988613781,-0.9594132641435233 m-28.81054642594809,-22.167374580376542 l2.02241104759756,1.2850019260495111 1.7746681351239717,1.5958408258412007 l1.4643226697615723,1.6395979129830245 0.5945759893020096,1.0265163495730896 m-9.569790518544941,11.314988047004494 l1.263942806387733,0.3238146774551375 0.9421289142652952,-0.07459763697383573 l6.490638722938879,-1.9941937189737147 0.6477415452564153,0.2587955913928056 l0.39600658663575355,0.45093667235173834 -0.0278144908712037,0.5545616947930626 l-2.7622917344571865,4.304956511151061 -0.2407750434191345,0.8689323274246071 l0.38637040271084555,1.424339790023204 2.499813879461474,3.188753721173326 l-0.3261326883179282,1.206803769605776 -2.581624200330171,1.847495132203011 l-4.0914544133890685,2.5959454324120044 m-2.389511496617259,0.744724680684927 l4.218969449381891,-0.521901849904289 3.0467710627054676,0.04227766466617271 l29.084873377320395,5.754271224734159 5.668520708470386,0.4725253232535441 l5.44600811897306,-0.38854605491146027 " fill="none" stroke="black" stroke-width="1" /></svg>