<?xml version="1.0" encoding="utf-8" ?>
<svg baseProfile="full" height="110.41464457521013" version="1.1" width="100.4317155288245" xmlns="http://www.w3.org/2000/svg" xmlns:ev="http://www.w3.org/2001/xml-events" xmlns:xlink="http://www.w3.org/1999/xlink"><defs /><rect fill="white" height="110.41464457521013" width="100.4317155288245" x="0" y="0" /><path d="M25,25 m0.0,0.0 m39.074564766315085,10.533264413124733 l-0.08220622249066341,0.4121201754184832 -1.1794825222974354,1.247621178830915 l-3.5089024938345967,2.2097512800992596 -4.359718102662224,2.128375108193139 l-5.262609551594957,2.0753051670929685 m-1.667745018222726,-0.41167763923477074 l0.6862273396903459,1.0606290762812636 0.2532486689928091,1.647318771837563 l-0.14237585267763816,16.64053564103212 -0.49999037478694747,4.4272902586020795 l-0.8206778341773459,3.6402058954562793 -1.1204739221150062,2.891727934871202 l-1.3897260161951188,2.447895733178651 m5.885831602449262,-22.09789970519458 l1.978971096556232,0.07140495612327019 13.95582165866017,-2.0672165371000992 l5.286820072555361,-0.20852475052684583 m-10.25162352022717,2.754056632410191 l0.5919849870309253,0.9340656432621597 0.29350886085267835,1.433869073468143 l-0.049959562869315924,25.29280189979149 m-30.167387323771763,-42.27376074572146 l1.6921680154970578,1.3200977179389832 1.7418868892220303,1.8558514721405188 l1.4083823631972587,1.9358542708468858 0.5671723762643722,1.2234184588258294 m-9.770647477416567,14.013939404393675 l1.7388865126076716,0.35643436571692505 6.333496779461376,-2.5220613153166087 l1.5349320889740208,-0.14763679752960387 0.4257849252103816,0.3231365716493615 l0.18788167818738316,0.593089669181055 -0.15202514405436116,0.7490803679147066 l-2.4244214983981585,4.813508822063032 -0.17354995105746693,1.9452632504544332 l0.47445798014044127,0.9009350704447908 2.5755671291622684,2.8985414354618464 l0.265697193986585,0.6393448212898002 -0.06654778385810141,1.0171871344492336 l-0.7349661238025795,0.9070275647336647 -6.119188442631532,5.275968104480755 m-2.0093889191057794,0.8988599310792592 l3.777875124110164,-0.5890532009983819 2.8339672285353923,0.07096677738929388 l28.098496439124755,7.0477621391047585 5.628210540136488,0.09796907819976847 l5.093486870151432,-0.6634393292727412 " fill="none" stroke="black" stroke-width="1" /></svg>