<?xml version="1.0" encoding="utf-8" ?>
<svg baseProfile="full" height="109.49251117912354" version="1.1" width="109.4512116163969" xmlns="http://www.w3.org/2000/svg" xmlns:ev="http://www.w3.org/2001/xml-events" xmlns:xlink="http://www.w3.org/1999/xlink"><defs /><rect fill="white" height="109.49251117912354" width="109.4512116163969" x="0" y="0" /><path d="M25,25.000000251457095 m0.0,0.0 m21.76093816757202,21.912591457366943 l0.5873384326696396,0.15809465199708939 2.686065435409546,0.14692542143166065 l27.037909030914307,-2.9298818111419678 5.133853554725647,-0.20120518282055855 l2.2026099264621735,0.2894694171845913 m-20.201246738433838,-19.375994205474854 l1.002688780426979,1.8931403756141663 0.41879530996084213,1.524827927350998 l-0.14950773678719997,45.12408256530762 m-33.312296867370605,-46.58607482910156 l2.3987525701522827,1.5308211743831635 2.4819315969944,2.1593858301639557 l1.9770458340644836,2.245470881462097 0.7968297600746155,1.4140436053276062 m-12.680989503860474,9.385792016983032 l5.481825470924377,1.9405415654182434 2.6130566000938416,1.378084123134613 l1.0488186031579971,0.8695660531520844 m-10.228480100631714,12.134696245193481 l1.752208173274994,0.37530455738306046 1.7809031903743744,-0.21911682561039925 l7.0674943923950195,-2.5442251563072205 0.8949919044971466,0.0043019725126214325 l0.8252523094415665,0.3926486521959305 0.47655414789915085,0.6312889605760574 l-0.15110253356397152,0.7199164479970932 -3.5332930088043213,5.400643944740295 l-0.30043432489037514,1.1979234218597412 0.4850899800658226,1.4391063153743744 l3.163164258003235,4.028553664684296 0.3486981615424156,1.3370394706726074 l-0.9066151827573776,1.2146318703889847 -7.81083881855011,5.556831955909729 m-3.1615298986434937,0.6472709774971008 l9.190739393234253,-0.33977072685956955 33.49536418914795,4.227624535560608 l8.041124939918518,0.40815960615873337 6.737502217292786,-0.3085331618785858 " fill="none" stroke="black" stroke-width="1" /></svg>