<?xml version="1.0" encoding="utf-8" ?>
<svg baseProfile="full" height="112.53315452693431" version="1.1" width="98.37490873115325" xmlns="http://www.w3.org/2000/svg" xmlns:ev="http://www.w3.org/2001/xml-events" xmlns:xlink="http://www.w3.org/1999/xlink"><defs /><rect fill="white" height="112.53315452693431" width="98.37490873115325" x="0" y="0" /><path d="M25,25 m0.0,0.0 m40.11054772053701,11.38316428314494 l-0.05420673791865637,0.4957344989481327 -1.1448750202566766,1.4641153853105604 l-3.4154125432399045,1.9499081368013116 -4.99817019085437,2.1688139212960555 l-6.187016264121574,2.214209400815764 m-1.6247207750409867,-0.7246523502268134 l0.6468375769568849,1.082197835578551 0.28871081057237064,1.7435683395845143 l-0.1092794017108567,18.378013476935358 -0.5419637697247642,4.851842698505401 l-0.940448317123662,3.876433302871798 -1.2553321750962954,2.9544698945139256 l-1.5602332530654486,2.5423002745964918 m6.489817883049764,-23.523837176696215 l2.1113254936320245,0.06771592240501079 14.668957010205009,-2.149464127469049 l5.890370684353378,-0.23726789367347215 m-11.04183950495116,2.89529086635681 l0.633529318389944,0.9902557601956875 0.31584893697434113,1.4857029460169047 l-0.05251904641256723,26.795072111016637 m-31.38923470679526,-44.58902678773954 l1.8150908465551145,1.3812423946739363 1.870928444029093,1.9749365211923702 l1.5066725425147092,2.0455147095385837 0.6049522875448851,1.2846843638166823 m-10.309399779467133,14.8134632874989 l1.8513182990859012,0.37264622333222674 6.783550203205713,-2.68872051639557 l1.7746230035015769,-0.1435122912939068 0.41616440510208297,0.3917775537950635 l0.129442264603428,0.6485596446409365 -0.19920153436761837,0.7988685009865302 l-2.4556038123675568,4.876158420697029 -0.32489402788005556,1.3110924586613117 l0.4727925153206562,0.9501744605793451 2.86096454860713,0.8895619272126931 l1.67320016775032,1.9531209407599837 0.3279090678766467,0.9410725875692946 l-0.18138911869569696,0.6562822838869111 -0.8406755704309841,0.7372336480912967 l-7.411278473336749,5.601790093377939 m-2.0959118613448484,0.8264958764042472 l3.8908609624444503,-0.6072280484097249 4.641453934273703,0.0847033724047325 l23.931661432561892,6.547107163837493 5.436414541766902,0.771568230987237 l4.952076945322299,-0.2897831187736356 " fill="none" stroke="black" stroke-width="1" /></svg>