<?xml version="1.0" encoding="utf-8" ?>
<svg baseProfile="full" height="106.30630363710225" version="1.1" width="109.49251532554626" xmlns="http://www.w3.org/2000/svg" xmlns:ev="http://www.w3.org/2001/xml-events" xmlns:xlink="http://www.w3.org/1999/xlink"><defs /><rect fill="white" height="106.30630363710225" width="109.49251532554626" x="0" y="0" /><path d="M25.00000356696546,25 m0.0,0.0 m37.85701513290405,14.245816469192505 l-0.05614909343421459,0.8144866675138474 -0.5043208971619606,1.8851245939731598 l-2.1149182319641113,4.361624121665955 -5.397737622261047,8.683897852897644 l-6.290925741195679,7.820407748222351 -5.5699896812438965,5.113001465797424 m9.331329464912415,-42.6710844039917 l1.3910125195980072,0.5471983924508095 1.3947248458862305,1.0019595921039581 l2.8295430541038513,3.1803587079048157 3.6837515234947205,5.696209669113159 l8.270342946052551,14.33927059173584 3.800690174102783,5.794215202331543 l5.613424181938171,6.937985420227051 2.5514888763427734,2.5552013516426086 l2.0547781884670258,1.572916954755783 m-55.073256492614746,-38.20439577102661 l5.147154331207275,2.865552604198456 2.4527406692504883,2.0317618548870087 l0.9839547425508499,1.2844684720039368 m-12.354656457901001,17.225241661071777 l1.795285940170288,0.41587449610233307 1.318250596523285,-0.11118448339402676 l9.836207032203674,-3.636140823364258 0.6593109667301178,0.4261762276291847 l0.1746654324233532,0.8011222630739212 -0.28863416984677315,0.8649744093418121 l-4.023801386356354,5.734817385673523 -0.4732765257358551,1.3368123769760132 l0.5776859819889069,1.3583439588546753 3.7349817156791687,5.1579201221466064 l-0.1308598741889,1.467115432024002 -8.998517990112305,6.878959536552429 m-3.421289324760437,1.117413267493248 l4.940006136894226,-0.7207037508487701 7.147361636161804,0.21338393911719322 l11.837527751922607,2.0484207570552826 25.153679847717285,5.061770677566528 l4.491555988788605,0.6025586277246475 5.162375569343567,0.2074499987065792 " fill="none" stroke="black" stroke-width="1" /></svg>