<?xml version="1.0" encoding="utf-8" ?>
<svg baseProfile="full" height="104.01181633532231" version="1.1" width="100.05610281829858" xmlns="http://www.w3.org/2000/svg" xmlns:ev="http://www.w3.org/2001/xml-events" xmlns:xlink="http://www.w3.org/1999/xlink"><defs /><rect fill="white" height="104.01181633532231" width="100.05610281829858" x="0" y="0" /><path d="M25,25 m0.0,0.0 m28.1785052492343,13.76159295951812 l0.4116759935692213,0.17044998634120573 2.231072722937232,1.5375124214242077 l1.498115008935968,1.936548849818281 m-19.170280629297327,3.469374326450375 l2.7509846609029687,0.15429084250230546 26.94155330798183,-2.326815710429538 l3.8241927170292866,-0.15533960365691757 1.8926521661370295,0.2495887593401737 m-28.94062549346888,5.020115445284375 l0.578231758491228,0.4363160402872316 0.39173390101175654,0.6610804967785836 l1.5532459004377803,4.833794159214137 m-1.0683163809962233,-5.588857753832684 l18.1960648319564,-1.6713942428355788 0.9939163352017334,0.44695187820427196 l0.09643162380323189,0.44584704547454035 -1.7536875354904846,4.0178152376019485 m-16.152420190853373,1.7232567119851223 l16.898525695242704,-1.5255777264385624 m-26.819634316444798,5.523710843313215 l-0.8014238442621064,3.3069331988670063 -1.7113878290618945,4.288863855804113 m3.2526939639590644,-6.388915413114516 l25.41009634787357,-1.9930118712684208 6.1464358128446825,-0.32790035225642283 l3.358748793824405,-0.004623462926517524 1.073810662985644,0.18672114159176864 l0.5873760752150196,0.3040210680922296 0.2078155085986233,0.40720546120999773 l-0.08428912898356837,0.4770330012718385 -0.863502621853994,1.1281254508220762 l-2.4241853147226835,1.8264509759396792 m-32.146156857677745,4.510983107981874 l1.9059318620762955,0.1724718809409085 2.5229444736784217,-0.10335278472123414 l20.567028602299974,-1.8018911511932296 3.2539027499087,-0.1204602529490736 l2.3365851596148666,0.16821574649402213 m-15.869984788322586,1.559074697555404 l0.5456038032917107,1.1180183164641602 0.0888915679721139,1.1232335956774355 l-0.40303128657227055,10.50350583401062 -0.45501278252491045,0.5508533246837858 l-0.6190257449812568,-0.000311993530589911 -0.731135370305591,-0.33654989592195844 l-2.1328931457866815,-1.7187095555499037 " fill="none" stroke="black" stroke-width="1" /></svg>