<?xml version="1.0" encoding="utf-8" ?>
<svg baseProfile="full" height="117.38572595980328" version="1.1" width="100.4376058563984" xmlns="http://www.w3.org/2000/svg" xmlns:ev="http://www.w3.org/2001/xml-events" xmlns:xlink="http://www.w3.org/1999/xlink"><defs /><rect fill="white" height="117.38572595980328" width="100.4376058563984" x="0" y="0" /><path d="M25,25 m0.0,0.0 m32.726410141621436,13.207370491062909 l0.3726702017943926,0.3783548283969823 0.5950542588551853,1.44185931847588 l-0.024267519868466057,4.674962548766768 m-17.90324170030521,1.7153254078450102 l1.9169876255107243,0.19207206933511872 2.4631344373915045,-0.07131083753589423 l14.890944076503935,-2.372481004908133 8.378663362154128,-1.0907241433725439 l4.711981139281316,-0.24274138169606677 2.309269833459462,0.3219088951842586 m-27.9916605408252,8.483902220800022 l0.6989716061770584,0.7406068416889329 0.3660631322965326,1.2419323733667862 l1.5262418589758278,8.697567748135828 m-1.167785550289232,-9.815917061351755 l14.683233114049758,-2.1010368172829375 3.6921359112528345,-0.29794199887860595 l0.5437706236537961,0.17250310930163987 0.6595778688798738,0.4056732511257472 l0.31050278504458867,0.5323454833385304 0.03201404316872615,0.6988671585558601 l-1.911574372736016,6.522874367156626 m-15.639244975537817,2.665136881414559 l16.85437668767599,-2.1162550070912594 m-1.0259773686956615,8.811795085261299 l-0.1910089470126143,1.0318758968636783 -0.40293504685615045,0.774023798736822 l-3.8999972972670576,3.559594159172646 -6.3549979053699746,4.04718538898146 l-7.132031508917634,3.0966263392200357 m-1.7892925341565782,-14.405084050752325 l0.46044541154389274,0.982068452018924 0.17628530832217051,1.5491500056074374 l0.22015012087658675,19.27893381440575 0.6407255187730633,2.25421041222099 l0.8823630229582692,1.1585305757983635 2.0059095081772345,0.8253405921183672 l3.768143453540248,0.43662074831555736 9.433421202891527,-0.08046597735870795 l4.205847256230534,-0.6513302376211718 1.73526435720532,-0.7961529982014749 l1.255983311326007,-1.2591162890675784 0.7109857920888052,-1.824731533927776 l0.3228977782566634,-3.200985792777363 " fill="none" stroke="black" stroke-width="1" /></svg>