<?xml version="1.0" encoding="utf-8" ?>
<svg baseProfile="full" height="109.7116547451773" version="1.1" width="115.62699412350104" xmlns="http://www.w3.org/2000/svg" xmlns:ev="http://www.w3.org/2001/xml-events" xmlns:xlink="http://www.w3.org/1999/xlink"><defs /><rect fill="white" height="109.7116547451773" width="115.62699412350104" x="0" y="0" /><path d="M25,25 m0.0,0.0 m31.142240798872457,6.4328914147473615 l0.3981114713536002,0.4874504757217173 0.5605430618935345,1.8383835586396424 l1.5064979527756857,7.960629556445165 m-1.3539178046670308,-9.874037045216744 l16.559661283121486,-1.7602385303370982 5.6761802052914145,-0.25223340557309676 l0.9093807035947266,0.2398405406895597 0.5681363840318117,0.8782780684776385 l-0.06372675653553606,0.8148267364999991 -1.6235736107148884,5.815667448749878 m-19.693353955564614,2.1428506618483607 l21.000259517940158,-1.8555932508222408 m-12.648352606458214,-12.80047903193259 l0.667172848087173,0.9833668316631774 0.2491711191493465,1.252885281110872 l-0.05478519273548502,16.921410286554366 m-16.59008686054045,2.1944353754053814 l3.4936078912078354,0.24332210316840064 13.730251522640756,-1.6157402491780508 l11.717870068039623,-0.9607246667037352 5.820807796980789,-0.1312080130530055 l2.920901886547339,0.33815440760866855 m-29.429147568351674,6.948305372680271 l0.5396457762434141,2.937265665870933 0.05797249991147155,14.505022069279535 m0.09398993547164569,-16.4986984858752 l16.597955146039638,-2.063190165034133 2.3591024748980325,-0.04111497097412759 l0.6742363000745757,0.2649857896672618 0.4153005175411098,1.0893099593373183 l-0.5303976258407341,17.169769761823105 m-19.098125589718197,-10.899503386671446 l18.591707985365574,-1.8861006493904724 m-18.62406627436082,7.230696290792425 l18.882709069253387,-1.8562059316333306 m-19.075771024467976,7.717085002679291 l19.156121705556572,-1.5897322007184405 m-14.676428277993105,3.500732123362432 l0.2234529349230931,0.63702423237351 -0.40305693040253643,1.073809562450975 l-5.410557021408127,4.884769223110993 -3.8354513571054083,1.9330979367332706 m19.01398260972172,-7.576727537413161 l5.080156765057828,3.708041765598407 2.6280541171920473,2.5147528837336455 l1.2201008536190954,1.6444753494661373 m-43.049241916339035,-47.35160602490902 l2.2421809460694377,1.4061806902999596 2.3544881936587623,1.9833111515209778 l1.8917675638447857,2.0765642751353988 0.7517512145314761,1.286516824081679 m-11.35892216139298,14.815322256060936 l1.5932276962051173,0.39555876496400866 1.6552871079867932,-0.2134565378862776 l6.798690019261519,-2.6758146151673183 0.7787557752389581,-0.00048303234395204024 l0.7636145059871737,0.4122812743481956 0.4641973358758101,0.672631965692393 l-0.10442345033103564,0.7497474161490622 -3.42746810106218,6.021205168631394 l-0.2788013778314989,1.1239301576917327 0.49732905900878355,1.8663841863437425 l2.645211512104529,4.198615185743737 0.30954481715249926,1.8175697255841012 l-0.7113908104392419,1.0672464324097723 -2.9590287962946364,2.670902325351501 l-3.9994378843166967,3.3135849472010594 m-2.930598738392312,1.1097520618712873 l5.0528774557715215,-0.6662287822981672 3.598225510408884,0.06366474896888864 l29.979185096469404,8.095754886288686 7.623891653842796,0.8305110776806924 l6.101597150950237,-0.5720084140744572 " fill="none" stroke="black" stroke-width="1" /></svg>