<?xml version="1.0" encoding="utf-8" ?>
<svg baseProfile="full" height="111.3992069498064" version="1.1" width="103.08781992117852" xmlns="http://www.w3.org/2000/svg" xmlns:ev="http://www.w3.org/2001/xml-events" xmlns:xlink="http://www.w3.org/1999/xlink"><defs /><rect fill="white" height="111.3992069498064" width="103.08781992117852" x="0" y="0" /><path d="M25,25 m0.0,0.0 m27.86560909122566,12.644788807019003 l0.4849717792755828,0.13671991909097703 1.371238761015249,0.02808594226062266 l2.5209361812523614,-0.30588234574131884 18.38743964900428,-2.7468008115490687 l1.2262909057198232,0.2947688173818557 0.7151895490169566,0.9462436098114951 l0.11632462056399138,3.165848543417457 -1.256800394883082,18.52275409570822 l-1.351574646051525,8.887030088160461 -1.3082978579733855,5.697640885279168 l-0.908507930094475,2.397708092512405 -0.5010362094483181,0.8925735120159115 l-1.069610577342576,0.6886286647218751 -1.0198404300080695,-0.7051333126283827 l-1.687150080618861,-2.3721524724776213 m-5.339730286316968,-31.99308968876669 l0.1647293613676284,1.9752937374115147 -0.9625835699619802,5.491305476147559 l-1.2931225251163558,5.032460704783808 -1.6880744359137807,5.077441990994306 l-1.7030177240735114,4.168954311483072 -2.027990701656098,4.064866683084662 l-2.3608705104038274,3.731699521119399 -1.9789512291692475,2.5302511780272323 m-12.107647634454647,-36.53908880015889 l3.2472142849351617,2.6096116472282804 1.6654941739129792,1.9591022091800943 l0.8271756972854072,1.4098851858122154 m-8.541834340326448,15.640372378904194 l1.2148056945368897,0.3061498541157638 1.0995595442047008,-0.14978613380354194 l5.978828134965358,-3.3478670823448375 0.8020452381163974,0.22887364953222847 l0.16511935250056553,0.6229759069154013 -0.46637655961980035,0.9999029361353596 l-3.4897823184760925,6.4378176272448036 -0.42152299828269724,1.343091485941102 l0.3359328695829989,1.3544208265138176 2.825912982194804,3.6253423755829677 l0.28650324278188466,0.5167438943441556 0.057564143478398035,1.0882836982116908 l-0.6737171065509864,0.9505000090766388 -7.585911522194245,6.922368163067072 m-1.169615856453039,0.9320736835122739 l4.032061237419944,-0.6293113204425411 5.026252285963151,0.23619245187539972 l8.686689687005842,2.065415254590562 20.337673135115136,4.398592446827818 l4.559825764127367,0.165538652676456 " fill="none" stroke="black" stroke-width="1" /></svg>