<?xml version="1.0" encoding="utf-8" ?>
<svg baseProfile="full" height="96.89432332307896" version="1.1" width="96.96334400316842" xmlns="http://www.w3.org/2000/svg" xmlns:ev="http://www.w3.org/2001/xml-events" xmlns:xlink="http://www.w3.org/1999/xlink"><defs /><rect fill="white" height="96.89432332307896" width="96.96334400316842" x="0" y="0" /><path d="M27.017340575206322,25 m0.0,0.0 m44.94600342796209,0.7654213442710912 l-0.13756939007346072,0.5617249048806698 -3.380682982727347,1.4972164504498113 l-5.428028274242456,1.800815885990373 -6.727979109658229,1.6596614225876334 l-7.845027104948619,1.4769071758546517 m-2.4814619779307656,5.779776902068977 l3.0770724731568646,1.2648784288447459 2.813644997664502,1.663889376575315 l2.041472925587422,1.800860270607545 1.276874182930106,1.6870251056412449 m-7.762290938003501,-10.62630906333888 l0.4754327319556066,1.5284282417412764 -0.05106815480177196,2.000620065859724 l-0.37899515739183903,11.899403692390754 -0.7918389853778796,8.995283764131505 l-0.007070213507143893,0.8232660208330744 0.5630678692950303,0.8114303748750097 l1.668038555324149,0.29674264020754115 3.2259221901202744,0.03109699955967194 l5.559547198306238,-0.24886169192237537 2.7839067448909716,-0.4509489773913265 l1.3200172915291137,-0.6122666359805315 0.6971772392505285,-1.0256968765269765 l0.24900186053837128,-1.7756910945576567 m-34.380440019812106,-25.488515037546055 l1.5496828188998695,0.9805665691015304 1.8840002178779913,1.744661506221902 l1.5131972422528197,1.721358687919365 0.6277507328631377,1.2882002969983986 m-8.916698967136284,12.67076291136773 l1.1459987249802988,0.3376750894681222 0.8855503524798611,-0.09487132589022552 l6.494145070070381,-2.3566253212535595 0.5591304876497836,0.4962782810974964 l0.028790994676989926,0.630952704517608 -0.2873187925164675,0.7157665479543887 l-2.476224240852866,4.414149623886165 -0.22843758411560658,1.0455671827571247 l0.38033613309576725,0.7603475874142209 2.9187565195747616,3.0347707863225546 l0.3037677142671406,1.003875004711396 -0.7597468687308273,0.9637431607564237 l-6.579427393687076,4.662951057521753 m-2.296046272369573,0.7734632330194777 l3.8860992616823684,-0.4413383800988719 3.000469007889635,0.0706492920476787 l26.809864681460706,5.780854869278483 6.02047692147718,0.5744042678529974 l5.233007529611818,-0.38543890359247446 " fill="none" stroke="black" stroke-width="1" /></svg>