<?xml version="1.0" encoding="utf-8" ?>
<svg baseProfile="full" height="100.60260552064297" version="1.1" width="93.416325533744" xmlns="http://www.w3.org/2000/svg" xmlns:ev="http://www.w3.org/2001/xml-events" xmlns:xlink="http://www.w3.org/1999/xlink"><defs /><rect fill="white" height="100.60260552064297" width="93.416325533744" x="0" y="0" /><path d="M25,25 m0.0,0.0 m12.00995720072147,4.221660223845891 l0.31700701426183486,0.4739298960616973 0.41747404107745345,1.2857465059487905 l0.06092225502125988,1.6556097565745909 m-8.965916917465547,4.310741134780077 l2.317984469956864,0.07318356246013562 11.156774806641886,-2.2574084145183106 l1.9810746485518762,-0.18046521740894336 1.2127426328349964,0.12605376816047267 m-13.602737665042632,5.729827869965119 l1.5505775507728408,0.4996613269664872 6.953934438238516,-1.366155818821661 l2.1217503714515,0.06602452231942435 m-9.919606367542388,6.049914924635648 l1.2703042049983273,1.4074876613988676 0.6294850196767943,1.3880497486031176 m7.48725504363672,-4.9657431456218495 l-0.11499257747826837,0.720441353157949 -0.3300044988199874,0.977060816551853 l-1.9392099696955516,3.8881775021497833 m-10.403196448565186,2.6848657796511333 l0.7772745919401539,0.16690308877935295 1.5232894178886547,-0.0937112290068274 l11.912123214325122,-2.854603763219062 1.7345708768509345,-0.24302708415073945 m-14.987918688393028,6.969767129975673 l0.4230371749829466,1.1477646362055265 1.1826963814175115,18.720848985198774 m-0.5546470472419739,-19.027595992581933 l10.772075708673613,-2.5837963469523118 1.0782625658511704,0.24530337243139805 l0.48593091086486384,0.9481856937713801 -0.09494393299181589,17.537498277524975 l-0.14187544472853822,1.4776095511829967 -0.3169839306123203,0.641703895747405 l-0.427311300218638,0.04182152802042057 -1.6902549781417455,-1.7616669032428702 l-0.5728378560849927,-1.0129435250705885 m-6.859297791708944,-12.26349451133996 l6.280127409416509,-1.088504656060325 m-5.980755388408678,6.848509685696998 l6.003766632241648,-0.9803665764590188 m13.164666969106184,-26.911849773316504 l9.52551056829945,-2.0022020673461225 1.1751535510529674,0.13828897450149133 m-12.14401827235522,-2.7880317489765805 l0.5386041667764927,0.8007930041922878 0.3336426869347104,1.4253110798428004 l-0.09411589435595752,8.280063364259943 0.22679275013099215,0.5066753646671085 l0.5268306355281612,0.18928073347629257 8.675602019361309,-1.716829232514945 l0.8777845649020721,-0.03390206516827915 0.4579158440978657,0.2994526931052376 l0.20717440379562158,0.5650047663285651 -0.034259506746937965,0.8076920813347175 m-9.106983859642078,1.5572559553825687 l0.454780457700142,0.8947635604995852 0.18598130180969785,1.3764628684168358 l-0.03725088087534516,16.942872910554467 m0.4769728553858494,-18.99938019401045 l9.838025823298326,-1.4174604876645986 1.0820560176481393,0.11679328166678699 l0.43932031532852167,0.8426369492166558 0.07630833244877941,17.418964115699705 l-0.3204027954134726,2.4640722959688075 -0.37101219768640875,0.9070986604266302 l-0.4606808178632911,0.28508154120450024 -0.5183339367480249,-0.11002726681523992 l-1.754975501208507,-1.9196710265121144 m-7.657801685241621,-14.577507462505425 l10.276672282355825,1.9857807090051678 2.1451405799467893,0.8769086872283238 m-12.10116412816623,5.4356233236551965 l3.281230161693106,0.7903955789120526 7.657031385789803,-0.9197396281087823 l1.4356833576363084,0.0687596681325087 m-24.624199849376527,10.143298236157733 l1.9195761836418757,0.24151400047913213 17.11712924937356,-1.8691438669868625 l4.074484878307019,-0.22771791845414754 1.7135457379188246,0.25907598858578057 " fill="none" stroke="black" stroke-width="1" /></svg>