<?xml version="1.0" encoding="utf-8" ?>
<svg baseProfile="full" height="94.25364073495874" version="1.1" width="105.16931540253546" xmlns="http://www.w3.org/2000/svg" xmlns:ev="http://www.w3.org/2001/xml-events" xmlns:xlink="http://www.w3.org/1999/xlink"><defs /><rect fill="white" height="94.25364073495874" width="105.16931540253546" x="0" y="0" /><path d="M25,25 m0.0,0.0 m24.1081736374583,5.43071782408025 l0.5082197540641351,0.1251129156191286 2.5728588261054197,-0.04525263475762585 l17.44965997663586,-2.2093866365454384 3.0074913447231446,-0.14608683271237446 l1.6544781441516447,0.22056003169871677 m-24.481736434440688,2.5737363608336365 l-0.1181138342116615,1.4512374377331851 -2.22102216214617,5.0110122369844206 l-2.5183695584169623,4.563766007760217 -2.904240336016158,3.6332845261354887 m6.894590357969409,-8.004964489377656 l1.4754500783763846,0.7916705207924657 1.6219120705592596,1.2406997766987817 l1.3579499249008922,1.4857312349059262 1.2968256467251775,1.4605377616463833 m15.082419286383546,-10.499482964865436 l-0.0704427683054119,1.2541281583050847 -1.6223177504630275,2.859005245994386 l-2.1321637795615693,2.681696142959592 -2.1785561688394215,2.018161056823149 m4.875718690801618,-4.049795418855662 l2.801646118770827,1.0218300996000789 2.596538869543149,1.2244430970374276 l2.112209609779781,1.360969675185391 1.4186421299087704,1.399712263213005 m-31.218029461450776,5.748234545792772 l3.3153147354405488,0.2067810634991428 24.07259116160864,-1.658247348996174 l4.049525708526613,-0.09567113731353376 2.3620915839541956,0.24765497070779136 m-18.039814336810274,7.027464911935236 l5.848572038030651,0.7264216737760217 4.030140791842764,0.36327506935325926 l2.1930005396409187,0.31685773898171377 1.036642719485718,0.28360316930492124 l0.6410975403080611,0.7699372521842719 -0.2864737821141679,2.116984053286244 l-1.3516461340053199,3.294708221521696 -2.064570487574278,3.749035845421617 l-2.049389089204814,2.9678436743022476 -0.8898274899908792,0.978708239633095 l-0.7611674401882568,0.3570053946759118 -0.6699084813683193,-0.0907924666661306 l-1.5241002452759318,-1.213729274381857 m-2.6592454766949274,-16.46971157633865 l0.07820348507191627,1.2035966061865941 -0.8667925450170575,1.859645900045121 l-1.5870220352041682,2.5784370028664725 -2.090044365100204,2.6829352192240212 l-4.284003619840678,4.0439459314795885 -5.310342551961496,3.400193367763861 " fill="none" stroke="black" stroke-width="1" /></svg>