<?xml version="1.0" encoding="utf-8" ?>
<svg baseProfile="full" height="109.91846924810389" version="1.1" width="105.75195129454949" xmlns="http://www.w3.org/2000/svg" xmlns:ev="http://www.w3.org/2001/xml-events" xmlns:xlink="http://www.w3.org/1999/xlink"><defs /><rect fill="white" height="109.91846924810389" width="105.75195129454949" x="0" y="0" /><path d="M25,25 m0.0,0.0 m32.261316993689796,6.7487220438990665 l-0.02392386219268888,0.47561183930779394 -0.47694586338477907,0.8792466936364002 l-1.353042952570525,1.549589207955511 -4.17948846161982,3.086719894078589 m-1.3366596230198873,0.27072617259356785 l0.5267635494712043,0.8879600100769214 0.16319619819411874,0.9606664295386614 l-0.15728863260832643,19.35007230360777 m0.6050720372476291,-13.745702892680574 l7.493046066843288,-1.3116227084413694 2.151275650491543,-0.06687416970703738 m-12.390552476846125,9.400197937457378 l10.160393952832685,-1.5320869463664684 2.2265191603846675,-0.028999403199740235 m5.576613217234539,-17.59107425775611 l1.783626961143991,0.2740169257362231 10.047735591971014,-1.561779853138128 l0.6983008183918752,0.07049465616165031 0.8245925523420289,0.6286197956685474 l0.15214972082223574,0.5176364880080807 -1.5167244383126284,17.435330687984656 m-10.127819642008307,-9.866093847945855 l1.772814305078742,0.297590354051941 8.254532942790771,-0.62120532647807 m-10.42902278594719,7.2407776308299105 l1.8378757021253984,0.2828980384353331 8.185257978217397,-0.5682801187165681 m-13.988505406570205,8.93766099760942 l1.8705151264275166,-1.116263559255132 10.375303307058692,-1.8931064512937008 l0.7082463779082055,0.02642815558369946 m-14.975296530444224,9.157897969608573 l0.457031263904724,0.7227391493150501 0.16557385600997196,1.4147721312452777 l0.9035113336569391,8.134393375332868 m-0.498074177749777,-9.410316421866193 l10.738024638602239,-1.983960149340766 3.833828438184724,-0.555097169414884 l0.772843742959869,0.6173498945736785 0.12328497241489206,0.5343202409932893 l-1.7817595980592842,7.856835125280382 m-12.908820987532858,1.8690165652207593 l14.001013621192225,-1.5773017229447364 m-30.764912626357948,7.438609421930142 l-0.38033567194008494,1.5695929945074063 -0.9534763012709535,2.1378418863688697 l-1.561283912333314,2.573899230051809 m11.59971160132334,-7.413287129055453 l0.6684393263684909,0.9662720784319414 0.7277766912441477,1.89425515249463 l0.9680618817479995,4.486456118115186 m7.865227840409564,-7.881764690093743 l2.0100814497632418,3.4984719892535807 1.091539469099757,3.4404089814576264 m6.673993853760323,-7.730525737276553 l1.5762986027175436,1.504017930359889 1.7176285780012757,2.3218831953349435 l1.3599253765352273,2.38782333210312 0.6269404967545666,1.6928518745095669 " fill="none" stroke="black" stroke-width="1" /></svg>