<?xml version="1.0" encoding="utf-8" ?>
<svg baseProfile="full" height="159.50738125514175" version="1.1" width="95.399184210668" xmlns="http://www.w3.org/2000/svg" xmlns:ev="http://www.w3.org/2001/xml-events" xmlns:xlink="http://www.w3.org/1999/xlink"><defs /><rect fill="white" height="159.50738125514175" width="95.399184210668" x="0" y="0" /><path d="M25,25 m0.0,0.0 m29.724662625321983,9.178383754671527 l0.3554673459208237,0.3486014275174404 1.5331242569041066,1.3774760179310923 l0.7007281966179738,1.9591880840758873 0.9533767142825448,4.235409409150346 m-1.6158413958989173,4.041262165412387 l0.19116735700269177,2.170304626547518 -0.3046839138072723,4.588815071286463 l-0.6857219252768598,9.085125211712336 -0.7641437631048976,6.44776944542883 l-0.8072982779718965,4.278243932011435 -1.0340008273542092,3.7636453111872097 l-1.346668673837123,3.4930479330415434 -1.3581814339471012,2.479690763606806 m1.9738220122523036,-35.719003875444656 l0.7852790964869111,3.9451762637846866 1.1099166600578914,5.859847674276142 l1.0679934844312335,4.359949629690307 0.8354700935558708,3.64655060073446 l1.1531855811715046,3.4531881285823096 1.2746968007251307,2.859267563065964 l1.4009995262499713,2.3789595782268833 1.5130590538135842,2.110313864828651 l2.6442506877200476,1.7638501316498705 2.2471881901511965,0.0018494721557331568 l0.9400718220687683,-0.7901475465962555 0.37910150251308494,-1.0832387066394351 l0.18904666018410846,-2.0202163385955223 0.020885640106284742,-3.0256313670807327 m-25.293643181612193,-34.308903164564946 l1.063298365892831,1.690995452537856 1.0916783172606952,2.385893831697785 l0.8809811195607171,2.3426980014230625 0.37144941668765963,1.895360047781955 m-4.718582342332465,13.35699060461436 l0.8116455594612387,0.35951851000307994 0.7895818064742768,-0.11083780619683135 l5.103051631134697,-2.3060063469930876 -0.23739667435991027,0.35399194112484283 l-2.260200339929582,0.7373263966700103 -2.3644694324564286,3.275887419471302 l-1.201415992683738,2.968579693086809 -0.40741717112984466,1.9739119595172232 l-0.29483961377726053,1.782427523991426 -0.36236013702296277,3.640967463494297 l-0.4315759506393219,3.7666230653991297 m8.899203468503089,1.2727446761385255 l-0.24847832474079326,0.8003382282878383 -0.4502166977520051,0.8488581373726909 l-5.885247355031515,4.454026840672961 -2.9363061932640253,1.5716116428904938 m-1.0674727577407306,-0.33451983266291896 l2.592086799196508,-0.1577354574141693 2.773324281076942,4.2747709677663845 l4.647250087485213,5.628196717765097 2.4750378041180245,4.8627107382050365 l1.5340910568079493,1.4271721220981686 0.8856943598362766,0.8305478982846121 l1.1010163841431315,0.849121375571372 1.9464199717123376,0.933802858559151 l3.209635175266948,0.6496838535443276 3.0877465164910203,-0.23720440473958695 l1.4855344942194448,-0.8078955487368645 m-6.958669251930159,1.4856348847023886 l0.06220731290876019,2.6925846782776097 -0.7925627020889969,4.825218071559501 l-1.2694985007098698,8.49145909216818 -1.0540110361180008,5.6649054221328115 l-1.0672603500678606,4.038654181359256 -1.141823783361652,3.5213776408886255 l-1.2819161632417804,2.9282136511727264 m0.010016942443328647,-29.37273707706675 l1.629478277165869,2.601211199832173 1.2178475029112696,3.486422031405986 m16.379318415561126,3.36384322960478 " fill="none" stroke="black" stroke-width="1" /></svg>