<?xml version="1.0" encoding="utf-8" ?>
<svg baseProfile="full" height="102.86365907382114" version="1.1" width="108.11988040394931" xmlns="http://www.w3.org/2000/svg" xmlns:ev="http://www.w3.org/2001/xml-events" xmlns:xlink="http://www.w3.org/1999/xlink"><defs /><rect fill="white" height="102.86365907382114" width="108.11988040394931" x="0" y="0" /><path d="M25,25 m0.0,0.0 m12.807224705063968,8.75939556464686 l0.49159940460769247,0.16614119477302547 2.0337053274064636,0.1351191782822681 l30.41367030664248,-2.4442296429482884 5.273957262389872,-0.18317915690798284 l2.708727219824821,0.304843918888699 m-31.529455998624663,-4.438692606573882 l1.0156806705798245,0.858226512288047 0.3855809765324278,0.6289619202632037 l1.3346883919204444,9.547135425297368 m15.760884835704207,-12.410861005077386 l0.7266250744459368,1.4164750346872617 -0.0081016971324892,1.1959270491636578 l-2.7236994383536115,8.345442648039239 m-28.578824928691635,5.128967890445046 l4.534026929640049,1.9432860443683646 1.7251494825621054,1.0629943881457444 l0.8918078246139577,0.8845363450277827 m-10.341337789227284,6.479887766136679 l4.568705674178221,1.9118157154623872 2.0561104412996025,1.3640966828085743 m-6.675353673701766,17.09042380846863 l1.2272123069836671,0.4064646185515001 0.6045415556808553,-0.017514773355140244 l0.9641532052929339,-0.5971584842219655 2.6118662229841405,-3.5190442833223545 l2.5580664161675246,-4.075945275452985 m12.356207920127025,-24.46723320013757 l0.713263559287363,0.8459366170684705 2.7007821999611856,11.374713772836763 m-2.1711494159700626,-11.716030228506899 l15.93484452765387,-1.4984047460318528 3.3403377492759376,-0.24066074379179286 l0.60017158713334,0.1370092090425963 0.7460482425793614,0.868707237183451 l0.04773721018192205,0.9855576671067013 -2.139560330443423,10.529877363922164 m-17.670083100576644,-5.462849232959779 l12.35123326154254,-1.1262054041918168 m-10.621511164348327,6.563253010346514 l15.363616251268786,-1.439332744264011 m-25.701110020689278,5.788516742369227 l2.8942448300046566,0.17449213003235645 27.811669773729726,-2.233466165957992 l4.82518601189041,-0.1738019787863661 1.9007406025511826,0.169067756852484 m-27.55709374483698,2.916593637965928 l-0.17033608384283278,0.9510919192949499 -0.558841067215464,0.8530841192413783 l-2.5504267011938135,2.604759561960359 -3.90838022254524,2.955661491908074 l-4.565075523852378,2.611489494220816 m10.92822870272369,-5.3435238321658005 l1.452595089206657,0.27215601052679345 20.09227356382422,-1.68726498862822 l1.2337916421211261,0.07170490445788022 0.6231719540361638,0.2724832242728474 l0.31281504352043205,1.1209110942696612 -1.0840859935125338,4.796697617808813 l-1.5385968357894468,4.122919514141779 -1.6754154019059424,3.1355047091940977 l-1.5506446236314757,2.2698351303856326 -1.5858854488879484,1.6702060981148874 l-0.5572315465415179,0.10890493150830606 -0.5188430801244535,-0.2191678936442195 l-1.5502827217870219,-1.522207782223305 m-10.572845636084072,-12.558101862459386 l-0.44551562180270654,1.5739325750793582 -2.9561651666103073,3.0535389205380703 l-3.873929803137811,2.6477540829146844 -4.0879570711040785,1.9416380612634767 m21.56971824416749,-10.071244363050068 l-0.22656345786770352,1.2355835112681846 -1.3113969127369565,1.9655847182367951 l-1.9664512428771956,2.1644127879043085 -2.6031156683907435,2.3474407155226875 l-5.5345734628738015,3.8661620212327934 -7.144762460337182,3.7124554027425853 " fill="none" stroke="black" stroke-width="1" /></svg>