<?xml version="1.0" encoding="utf-8" ?>
<svg baseProfile="full" height="116.13943859404722" version="1.1" width="93.62801915634634" xmlns="http://www.w3.org/2000/svg" xmlns:ev="http://www.w3.org/2001/xml-events" xmlns:xlink="http://www.w3.org/1999/xlink"><defs /><rect fill="white" height="116.13943859404722" width="93.62801915634634" x="0" y="0" /><path d="M25,25 m0.0,0.0 m31.95868027675815,7.342799476144795 l0.010749398778275207,0.40728767369352686 -0.3718840367680576,1.4337379535258912 l-2.0115271358252245,3.4602516011114015 -2.399991156196121,5.08060369824158 l-2.4987057528472243,4.94847031776461 3.2031420914781785,-2.411599521820413 l11.343668321490226,-3.3811492607755067 m-2.709673923019331,-3.203884188502666 l1.3203521452412899,1.2997189633599184 1.6915357851808148,2.256070812050549 l1.2117675575956792,2.0588111041900037 0.6175347253772163,1.6362236270169266 m-14.304148225997949,3.101850800942593 l-0.13019377375827243,0.7541397467684646 -0.28178008499441887,0.9394254608721581 l-1.506678597645266,3.1095601770734116 -1.7037463402147592,2.5482450770543705 l-2.3997045766599445,2.660222001629598 m13.31705606475752,-12.357704591553654 l0.32536300752072106,1.0836925353788258 -0.02584017841127449,5.805878038287913 l0.6551189902444906,0.748495767169411 1.8306388233865367,0.24305175885273791 l3.8716769925036587,-0.17309790546358025 2.0151698057279934,-0.5256342459547151 l0.5994389526434261,-0.5376430847004091 m-14.04885931635851,1.6876590456177154 l-0.11053675170363397,1.2842963167723154 -0.5285582438661286,1.6195340343032611 l-2.6365765427047516,5.1092192651190524 -2.8257275857531314,3.8979069803693225 l-3.4398711687987547,3.4914521272112298 m9.220744897386627,-9.963571040878799 l2.0327918340516873,0.20368371026938337 7.409130490950604,-1.5522971171015445 l0.4057494113575084,0.23755417850952354 0.16005576008296707,0.4466298037091385 l-0.06043421720565903,0.5807492736713524 -1.0879902263398011,2.4597967125769027 l-1.6056267685003902,2.9661716621993595 -1.9786655159384305,3.2422124537160055 l-4.771850579184845,6.282877263605534 -1.977252753917511,2.20931775433791 l-2.0152941925349133,1.9810016616790849 -2.100587626356058,1.7134667612034804 m4.082490512827346,-16.19641889497574 l10.868313883578878,13.23254291105458 3.0391565579044797,3.078886187721215 l1.8875639414965608,1.0947575019515121 m-33.306686132179145,-47.08802543415659 l1.5662737590157343,1.1048814603995207 1.7200400071520678,1.6450093315497263 l1.4351952230807319,1.7124998519512957 0.8143219782227619,1.4780254658926208 m-7.38255306975331,7.537201057224313 l1.6908783418276123,1.0860681120638738 1.7311130119912834,1.5109027681140512 l1.4870196589467515,1.6336714043830818 0.8335216419230471,1.437535165410762 m-6.315297047915121,9.683349957670059 l1.0442191024531606,0.35026372297610436 1.0376290967371418,-0.2302796820711895 l4.008804950717066,-2.3657745622031983 0.5285800931365787,-0.0055799566170046345 l0.48404810050374897,0.367146012084882 0.27525012247302605,0.5874544308147204 l-0.08410869724315055,0.6695579038466432 -2.130557827042907,5.104604319650795 l-0.16622585068139892,1.1285385294169465 0.2908681493578103,1.317302088598063 l1.8348731274215775,3.6082672624062937 0.21914011779168618,1.2446518693017157 l-0.5354153807247403,1.1338750006028606 -4.559510729104942,5.203881343426746 m-1.9471119534425747,0.7488113283895651 l3.207099473858285,-0.7290102891207514 2.362793769013464,0.0551015711949559 l20.294550923399875,7.99204973476564 4.657334547990868,0.7822064810812072 l4.030815135533746,-0.5550360213844392 " fill="none" stroke="black" stroke-width="1" /></svg>