<?xml version="1.0" encoding="utf-8" ?>
<svg baseProfile="full" height="104.0534979377769" version="1.1" width="105.63051588006694" xmlns="http://www.w3.org/2000/svg" xmlns:ev="http://www.w3.org/2001/xml-events" xmlns:xlink="http://www.w3.org/1999/xlink"><defs /><rect fill="white" height="104.0534979377769" width="105.63051588006694" x="0" y="0" /><path d="M25,25.319492554836494 m0.0,0.0 m28.36797587852068,6.961305807930273 l0.4969887257490856,0.12210627142949095 2.3267342692829915,0.08053358443584419 l13.501361464771293,-1.9258197010855345 2.68992303056139,0.1268635907378179 m-10.272698313081502,-5.684482108284384 l0.6920977215495278,1.2977340137347133 0.17287396748529682,1.1714102978043697 l-0.012091375983778645,10.780400957867268 m-16.55338985854557,2.270341365944991 l3.6015127958386115,0.08774926104283058 24.249699233160964,-2.8419565225226893 l3.5227849148770294,-0.16529037856084208 2.846743425880928,0.25521924248424493 m-25.33754356765654,4.137291645147451 l1.9817612485815552,2.5473484523108674 1.0073626755195961,2.360967232629974 m11.82224646338005,-7.217172976886648 l0.1178435230187816,1.1353883369523863 -0.2890617477950827,0.8409239386851667 l-2.275060277179775,4.458057360530712 m-16.871872304846427,3.1223219646087874 l2.969500571977724,0.0805431275366489 16.19372503196687,-2.0534016391187024 l4.998133077832607,-0.05743890434727572 m-22.84406427197382,9.423057537377778 l3.340457436817519,0.1068522340159308 11.739686633161893,-1.8312371320542689 l3.821387336575333,-0.35911618111553245 2.237653934731094,0.042220920791309395 m-25.425106787212236,9.534351753779543 l3.681164637462616,0.09819786463286931 21.178677344821452,-2.509177426493624 l4.952506611975207,-0.385806308433566 2.723534329590115,0.14865359880606538 m-17.212468463018766,-11.303755370998916 l0.6352176253403609,1.0610562114258901 0.17491634103666973,1.1195636379657807 l0.053384164674638114,19.66340186262813 m-30.932376243990582,-39.34120707613064 l2.242106736960078,1.2160977387406169 2.310004931898164,1.714264296368193 l1.8439154161646634,1.7859555050547906 0.7368321256332699,1.108016390565702 m-9.322633518984127,17.550125146554375 l1.5204819675718244,0.3323378568798494 1.516169163267775,-0.18331684309291732 l6.131987377109807,-3.294254079077694 0.6461091852173834,0.18251012974578465 l0.27928491835666397,0.5137450754012499 -0.1447053080075406,0.756517674940311 l-3.1323584015092454,5.511983580667989 -0.48638714965186847,1.17743853925366 l0.4518434930225535,0.925045033473353 3.5630065338354275,3.4288398559669586 l0.3256279635589739,1.04101579953758 -0.19514810894428442,1.1179890091701323 l-3.617672204435596,2.2212808350287125 -4.082648458243179,2.473643198061303 m-2.560091495294393,0.7053813785725569 l6.3926580099768335,-0.41932547600163744 5.0520372604069275,0.2929054743998825 l9.032040375752437,1.5911083238932873 21.086384465873742,3.8852444313900896 l5.4286645629344426,0.7414561602417616 " fill="none" stroke="black" stroke-width="1" /></svg>