<?xml version="1.0" encoding="utf-8" ?>
<svg baseProfile="full" height="143.52652071832756" version="1.1" width="119.52344746113545" xmlns="http://www.w3.org/2000/svg" xmlns:ev="http://www.w3.org/2001/xml-events" xmlns:xlink="http://www.w3.org/1999/xlink"><defs /><rect fill="white" height="143.52652071832756" width="119.52344746113545" x="0" y="0" /><path d="M25,25 m0.0,0.0 m21.021495504176254,2.0439082339110723 l0.36136790786382783,0.4579855020130484 0.5266607850321299,1.6644784173349487 l-0.03454259083574404,6.41594038983643 m-14.562265608501932,2.5125063281070648 l3.7848734334719905,0.09313465559217621 18.587475644833916,-2.641277484253187 l2.9208079255493735,-0.16555942560750153 2.54658765753905,0.17860867287769436 m-22.484874724300205,3.4686553585990314 l0.7385729907669095,1.5181527789844498 0.9590714550986758,3.6088608745011106 l0.911061230829047,6.794607644708971 0.8404341525765056,11.489244006506329 l0.4318270901238242,5.1609558827949416 0.4337755911706581,6.137048145272077 l0.4262488524299943,10.88995794105613 0.3551999896371404,5.948771585988732 l0.5939737888840132,5.186106595188252 0.9007695258596972,3.993292462562524 l1.1935284610945178,3.6845853736587184 1.5624273625952059,3.484910288772286 l1.8672625343841405,3.3201202602100066 2.1327953733599427,2.8493145064416003 l1.5341278023556437,2.091761962958687 2.143136898140475,2.0633591710896777 l1.4218638050582173,1.071625471591005 1.55727336103661,0.20546511763128278 l0.37475304270268506,-1.0945491997339307 -0.04344550644495288,-4.631241676662648 m-3.8162524825019126,-32.561362713408286 l-0.05248454882734243,2.6988768272733785 -1.0313574481951464,5.964843613634871 l-3.2220088203375306,12.1179499092771 -1.9885052739931204,4.9186109734888666 l-2.4972016629419223,4.666237131363792 -3.0662094615820705,4.318824201485214 l-2.6887375930212913,2.9553708585656446 m36.004541690764796,-52.61808383527673 l-0.051135858369733535,2.6996961978430916 -2.498391658991549,7.100353457010626 l-2.8803210493682276,6.055217474798483 -3.7804067356871895,5.904530440955725 m6.692766593479052,-9.100534440936721 l1.533125270978208,0.29576597180040615 1.5110534493359524,-0.15651290049215077 l14.398544317219676,-3.014588181980543 2.8019800716925247,0.08350914990310374 l0.5648378084469723,0.3471198312974405 0.587367116547701,2.5242838104793086 l-0.37685777767742135,3.080928565786525 -1.659137110895133,9.850623753795908 l-1.9301921552282626,8.08477270016186 -2.3380243647914623,7.167360426599878 l-2.814522296994773,5.465488155538261 -1.213124121422469,0.72189324183554 l-1.2366800824460666,-0.06740930898869325 -2.6273454082921837,-2.304243547127498 m-6.191883737559327,-27.537261503005197 l1.737904400967009,1.9362769222211444 1.9688986148775593,3.000894108751731 l1.5185043081779643,3.1394926321127294 0.7911766409287109,1.807362098684977 " fill="none" stroke="black" stroke-width="1" /></svg>