<?xml version="1.0" encoding="utf-8" ?>
<svg baseProfile="full" height="104.0927315212554" version="1.1" width="112.78671414471117" xmlns="http://www.w3.org/2000/svg" xmlns:ev="http://www.w3.org/2001/xml-events" xmlns:xlink="http://www.w3.org/1999/xlink"><defs /><rect fill="white" height="104.0927315212554" width="112.78671414471117" x="0" y="0" /><path d="M41.747576698510635,25 m0.0,0.0 m27.583909676479465,6.729071368625957 l0.38690249813438166,0.40848890698622137 2.484946487349566,1.4500811922126904 l2.172820460789342,1.8311029034464605 1.668981052529029,2.0031025661876756 l0.6834553604007695,1.262710734126959 m-14.81434444568055,-9.39291230709418 l0.8463396354247921,0.8306032629239477 0.2524616280748968,1.4106141426881624 l-0.02890268451486491,11.75780175362345 0.6170769279757133,0.6114402705955938 l14.313133502508423,-1.8648104909196042 7.079710282807776,0.019035616835886924 l2.7926470639217986,0.2759038282728259 m-38.5696653944774,-16.623997999973813 l0.6894468932811556,0.8661630081771363 0.3311929060233024,1.3944084259195346 l-0.21820773863954027,38.39639896594775 m13.236468701835781,-31.60974462010783 l0.6255776682634412,0.4743435219773608 0.30428809609739055,1.0168412081523264 l-0.06221534084979807,28.494088103671835 m-37.99673405223449,-19.336970925017383 l2.6640469785074847,0.19103271107151487 10.26490824602645,-1.2348546633446689 l1.3929732666823058,0.3577294303157434 0.30778356216203173,0.5834198459371268 l-0.19496699953509017,0.7420158827337637 -6.050943185971052,11.516525626326883 m-0.11628471643132836,0.38671381446317216 l6.909917113462994,-1.9659264438795983 2.2170844651146773,0.09996234844064725 l0.4210853951170425,1.0424458883580878 -0.2285089137458233,0.9722728088900895 l-8.754590079386238,13.191351549951081 -4.381339719573239,4.055158358757281 l-5.578031296441235,3.751120925975324 m2.5407191662377824,-16.918518372448023 l1.4917994298212707,0.3598122908799514 2.674521540818109,1.0955735064109906 l27.33367163035007,8.815242445598637 9.377762469911879,2.2344795085872518 l5.606205542266879,1.0293027718953407 5.143192351740358,0.7668075144467934 " fill="none" stroke="black" stroke-width="1" /></svg>