<?xml version="1.0" encoding="utf-8" ?>
<svg baseProfile="full" height="103.95449744251873" version="1.1" width="95.70107660578032" xmlns="http://www.w3.org/2000/svg" xmlns:ev="http://www.w3.org/2001/xml-events" xmlns:xlink="http://www.w3.org/1999/xlink"><defs /><rect fill="white" height="103.95449744251873" width="95.70107660578032" x="0" y="0" /><path d="M25,25 m0.0,0.0 m31.06072341804021,14.602502646940385 l0.39056736988947516,0.12158512556058171 1.4576752690887274,-0.018356930002739226 l8.488328091995777,-1.9530110359320956 0.8780045258575642,0.057545267653350225 m-14.438362648467212,-5.093668877226198 l0.6425874208641948,1.0405894190851044 0.24013718956540137,0.9481698565445551 l0.6700211552696879,9.701823670876317 m-9.808930524988634,1.169399208195178 l1.3679871493663998,0.2155372731657543 1.8662128504114435,-0.09663768003452165 l7.9929259267555945,-2.2648668936306873 5.401575692418937,-1.3822507523756515 l3.728117280419662,-0.368940661450728 0.8922974746186171,0.30601904630253474 l0.3651402553247944,0.48388038716786264 0.049935633596205946,0.7123210567524326 l-0.6149911811981358,1.6476083856610473 -1.3543661826184352,2.06991390856753 m-8.32278504275874,-1.6065354429793122 l0.4462243569242157,0.8168724187287741 0.19757030729051583,1.0111186795538216 l-0.033891110716188076,16.37592129459898 m0.22479723695060994,-9.867834131866319 l7.786158908072999,-1.456739680158871 1.1515300938270618,0.08130172870826076 m-13.527866319431313,-0.5041746991705209 l0.041313625203751245,1.48355890371623 -0.3716649230863858,1.8524702112604 l-0.6592954262705681,2.4993843034445926 -0.9061897300217464,2.7597721438541045 l-1.9707603679085317,4.325505070648487 -2.433592920041848,3.701756666442742 m5.315325729252602,-9.813842433488116 l7.723077007745247,8.584618409000205 3.6426914196876923,3.1710700936025136 l2.935876769602291,2.0848795938241764 2.5497301644785972,0.865475481069315 m-27.619378450644952,-38.224825392064574 l1.2029900888324736,1.0006663362233974 1.443441299405721,1.6722155629575879 l1.1696670369635824,1.6823331519913378 0.49470957594786436,1.1103008791417222 m-7.2003173050692535,13.510741298133414 l0.930127192535793,0.3068801175987919 0.750779975152839,-0.1412450641674059 l4.8989843816425145,-2.4583805548875937 0.4258002310990823,0.2735229432379896 l0.1029855614656583,0.5236104727994096 -0.17891379907342814,0.7943057237333426 l-2.126943404221448,5.342209314527457 -0.3285479236475075,1.2088063158762676 l0.30081389777655,1.0555813537478431 2.151696285292842,3.4692052806967704 l0.20595225253351537,0.972702531065214 -0.517176205999119,0.9476003140545595 l-4.829072333671965,4.747930474416082 m-1.9635658478457603,0.9735174039853369 l4.012910211624295,-0.42518239081910586 3.1062096571546847,0.334264799733251 l6.05404002557263,1.8179507942730333 12.834709560000725,4.410070984775185 l3.563148145912666,0.6070687543991067 3.7521905520297665,0.17890500448082408 " fill="none" stroke="black" stroke-width="1" /></svg>