<?xml version="1.0" encoding="utf-8" ?>
<svg baseProfile="full" height="113.72779761359368" version="1.1" width="119.60543062085044" xmlns="http://www.w3.org/2000/svg" xmlns:ev="http://www.w3.org/2001/xml-events" xmlns:xlink="http://www.w3.org/1999/xlink"><defs /><rect fill="white" height="113.72779761359368" width="119.60543062085044" x="0" y="0" /><path d="M25,25 m0.0,0.0 m27.051116403904267,13.634045985972236 l0.4859193938393334,0.10664047995790069 2.839968067338664,0.06094480721812221 l19.543260071302743,-1.9798272143805287 3.40674246020224,-0.14280262757725115 l1.6840642828605172,0.19188661818969416 m-26.989458836965195,11.656323106091039 l0.6288920764927877,1.3361666545720559 2.662672249070487,14.245314469572655 m-2.3808675526634393,-14.946222223726458 l20.399437440152475,-2.4882691911518986 3.1119697694571893,-0.21372030522836497 l1.7928422289082027,0.2568859673468729 0.7784860418216017,0.8733490586824975 l0.07714013635278484,0.629831226178467 -1.2459305231476498,6.650185975896721 l-1.657253990094182,6.746385623171328 m-21.026985918744433,-5.973582058864394 l22.296898861758397,-2.0582519537103297 3.071939429580831,0.019925165753492992 m-24.108816079593744,9.046032211046207 l13.04516387148269,-1.492051606940193 9.115345636712844,-0.5941937785667872 m-13.282713581828208,9.623702670701428 l13.934211770975795,0.9555321523792627 2.096928984887451,0.2627795405821622 m-28.332796540519844,-32.08003029243988 l2.3814412755058116,1.022236466841164 2.269705239106129,1.3803316135833854 l1.7185110972686668,1.4927710157563452 1.0168906923861256,1.3305901791640118 m-9.288756318285015,7.0052419300879585 l2.0761343744008545,1.0167638692700982 2.260456915634429,1.4442934460443175 l1.8585974724644352,1.5028929375894544 1.0264776235452078,1.2748099122364078 m-7.6582036061317424,8.455522617704421 l1.3494362814527205,0.2972764657025787 1.388632363762245,-0.15581091428610458 l5.675410177500562,-2.0197706919745184 0.8914051817434016,0.2545394162573103 l0.2874398966535334,0.5071399829466244 -0.13721775821928325,5.384406145775983 l0.08167096604703669,1.3086038978507024 0.740867709003325,2.678420549592376 l-0.15848262777482405,1.1807392382377797 -3.3074680858943073,4.195870410231832 l-2.2505360227193996,2.2994121240751033 m-2.38426226736045,0.8501564825622938 l3.917881149088609,-0.47295137486901273 2.9543339962566164,0.1106587899700041 l24.577745058745307,6.352625310616656 4.612140282219517,0.650442623179246 l4.707003400906358,0.05360470872124587 " fill="none" stroke="black" stroke-width="1" /></svg>