<?xml version="1.0" encoding="utf-8" ?>
<svg baseProfile="full" height="119.25880381703843" version="1.1" width="94.92772465465966" xmlns="http://www.w3.org/2000/svg" xmlns:ev="http://www.w3.org/2001/xml-events" xmlns:xlink="http://www.w3.org/1999/xlink"><defs /><rect fill="white" height="119.25880381703843" width="94.92772465465966" x="0" y="0" /><path d="M27.2598083759665,25 m0.0,0.0 m31.234178706688475,14.401052439747385 l0.39383199511281025,0.11846202651867095 1.4436832421914862,0.015527208642867208 l7.832635971864674,-1.798085722315859 1.7635863628357022,0.1738081474694488 m-14.856799655125577,-5.6903227590409875 l0.6556343030525866,1.1098260316404567 0.22389472863053766,0.9611559769356692 l0.7674540044790126,10.720405386165814 m-10.04022202546115,1.0716884826791444 l1.4849036251793615,3.3099030998948544 1.2543958880443151,3.779403075374751 m12.419388456807857,-8.679874750811836 l-0.0023317513763236033,1.0175262037022625 -0.3988889738547578,0.9870636541037812 l-2.647047388123399,5.566117614002227 -1.9798775601644563,2.5808504436962756 m-11.434592387361112,4.106493762807911 l1.8957720857912623,0.14717624095264856 12.874809161669402,-2.40392978235587 l3.2743538117387296,-0.26127636468630955 1.4325468420317469,0.2188985187037896 m-10.551559887820849,2.115468135372164 l0.43953953153327896,1.3427992922220402 0.0459420603172649,1.2051175179915752 l0.0037018129731131127,17.028638819959063 m0.9325027538466354,-11.024712703324807 l6.994041794077833,-1.529764454460243 1.1535380396001356,0.05958642666899936 m-14.822436638725934,0.622406056383933 l-0.018510723970228203,1.4486595030040146 -0.46079943660546674,2.122733892501272 l-1.8617975317932856,5.49651520176673 -2.225221564993797,4.15874380610758 l-2.7298810801398523,3.6090553406981454 m6.305844655546,-10.099866630458678 l8.887137590015456,9.51190170314364 3.1048089660533615,2.473228767600719 l2.7961371440489673,1.5610133037831433 m-34.80947986635489,-43.23854015507096 l1.4505998863276817,1.1853719917550343 1.6347222466496383,1.9098579153601363 l1.3635025289682046,1.989888159647827 0.7294042344926247,1.7084638610396963 m-8.21285433466357,15.552737037346366 l1.0556955558983885,0.36697319497629427 1.1455642367403565,-0.16519004614937582 l5.043600799885624,-2.8341761288669503 0.48960305971044926,0.36604176282178547 l0.1603589822750951,0.6766381770319052 -0.11220694047359879,0.8403401937558587 l-2.168123387517448,6.463593951467314 -0.25726753224833854,1.7398417965506865 l0.33350166237112844,1.1695855945943205 2.23216346335302,4.119465182080315 l0.23045090856934883,1.1637716517442642 -0.5490909293997572,1.1830313958723493 l-5.128120327794152,5.605809236401656 m-2.211024040690418,1.0892064426984815 l3.3334859871264104,-0.5358697105589069 3.8325865402177866,0.2859912406085478 l19.118486678037943,6.131161533620313 4.225389386246972,0.768056118059656 l4.534074125975392,0.16336050746542405 " fill="none" stroke="black" stroke-width="1" /></svg>