<?xml version="1.0" encoding="utf-8" ?>
<svg baseProfile="full" height="94.33701329656736" version="1.1" width="111.11421184581995" xmlns="http://www.w3.org/2000/svg" xmlns:ev="http://www.w3.org/2001/xml-events" xmlns:xlink="http://www.w3.org/1999/xlink"><defs /><rect fill="white" height="94.33701329656736" width="111.11421184581995" x="0" y="0" /><path d="M25,25 m0.0,0.0 m8.940445266772816,12.138122685168016 l0.4214414763512043,0.17537140199574064 2.0166031667315814,0.11945616034427539 l13.573720923317545,-1.7719079397723974 1.2688433668558703,0.20030860174449389 m-16.956353928841388,14.561977693018866 l2.5636460217341437,0.1347476902839301 11.631167483426989,-1.869501195483293 l1.991130411494694,0.044900104450377745 m-16.65697726730549,19.07111261582938 l0.9902321651698762,0.4647603217653524 1.3542816470845633,-0.04316284041857688 l13.414045084950214,-7.08707836395261 m-7.237994592122976,-25.995613059915065 l0.6280005642768777,0.9786323036948487 0.224264526301999,1.039484657318462 l-0.10059330709932074,28.869833088144734 m10.147891100598482,-26.12376338319938 l1.6468560447893905,0.33030078914117705 1.6356878051773196,-1.448813819721302 l7.393903711207123,-6.037745016320609 0.5494951656466814,-0.4327968720331617 l0.3906655990298475,0.05422302409095027 0.2632254943073889,0.270154093731379 l0.131885898533688,0.5543455117798191 -0.9778281394423057,5.3684142349830575 l-1.5136312537896968,5.15047785017494 -1.9431786872652053,5.334014247244992 l-2.2406411177478867,5.09343455731302 -2.3266402317153547,4.3202327864962795 l-2.502331740667323,3.8521758034320284 -2.6560415906548283,3.376604667967559 l-2.4496603441709763,2.821030523348438 m4.197841755487029,-26.065664027357663 l1.528447417423204,2.443481961257131 1.3346041210640782,2.597575758566751 l1.2634644042798342,2.666440474332078 0.9519118612535727,2.719180059752567 m8.219310390573437,-19.019855361002424 l4.237732891597299,0.17103738644436137 8.830880194915409,-2.0172714094312685 l1.3844551068199553,0.3318396317403495 0.4708160654951571,1.1604633447033053 l-0.4817577587690284,2.851880950825965 -1.4006253783953093,6.584107364479711 l-1.7290484839891986,5.343044870636736 -1.9163871113267594,4.566858804249338 l-2.1907662203848774,4.1723434213063495 -2.5369402538005663,4.022307515833228 l-2.492133516918011,3.099699611168968 -2.6139373386275158,2.6908214130165806 l-2.9581432689202045,2.504988603399599 m3.5080256395168785,-26.47324420927805 l2.3499412476791894,2.5463871784625556 8.111620412161757,11.645207304057523 l4.0127304356616085,5.394471813139877 3.238822949526904,3.5845893790588934 l2.177785560560551,1.4797097693126227 " fill="none" stroke="black" stroke-width="1" /></svg>