<?xml version="1.0" encoding="utf-8" ?>
<svg baseProfile="full" height="107.87411315395697" version="1.1" width="114.59780376492155" xmlns="http://www.w3.org/2000/svg" xmlns:ev="http://www.w3.org/2001/xml-events" xmlns:xlink="http://www.w3.org/1999/xlink"><defs /><rect fill="white" height="107.87411315395697" width="114.59780376492155" x="0" y="0" /><path d="M25,31.51324750242226 m0.0,0.0 m26.164560384564872,2.0979055952839367 l0.42906154603187213,0.40194283984085755 0.5713281955341364,1.1530218640020282 l0.13306835937218764,1.1539742738189862 -0.053686154304835726,6.993985305041082 m-11.572618192607706,1.9361983419015305 l2.793628867207934,0.1280306430737616 15.11575601594092,-2.847004008912646 l2.7510593863633446,-0.24934957265136512 m-9.53451308572149,10.421730561253428 l7.127469915599846,1.7140449216282372 1.1748038658445075,1.2772834259173604 l0.1140319342621287,0.7054516764078905 -2.388928701322899,12.65085992855209 l-2.0254807839415765,10.136117188688308 -0.9414519343477649,2.540571919684689 l-1.086313079726599,1.1260653366284104 -1.2649767482904264,0.020035411376127958 l-1.3879282532357764,-1.1279010896080948 -1.2484419093986605,-2.116771157004382 m2.5916522218568243,-32.74840084105943 l0.37514051058711123,2.0095170830503117 -0.4629512254278778,3.2147757236880956 l-1.3268087018936585,5.501757305321644 -1.7714185182127342,5.3382978142377056 l-4.101532026467345,3.9524057109377053 -2.976977956366257,1.7626002555647047 m30.2675401425806,-34.760073222836574 l-0.1126757937346295,1.3416341978733044 -2.3037547871991713,5.166079295364746 l-2.2882604563845494,3.700628975235011 -2.9725281467251983,3.7698055974565747 m7.435139881046422,-6.032365607818215 l2.0625883547345527,0.13688782081494472 10.083513560357916,-1.9485610899290677 l2.884952424710706,-0.19120779632034818 m-18.12902890763838,12.546000304264965 l2.842634604383585,0.05794118223848102 11.780741986141082,-2.80621049879616 l1.1040897701987846,0.010870948554007184 0.42589178879675826,0.4634580089913054 l-0.3032151200227963,0.7756148462986798 -7.8751736358391,0.975024162273375 l-9.250809111287918,3.2361922052321144 m-5.186099603107879,4.560884245630686 l0.6333318710337772,0.1881476763369668 0.8372745804435344,0.0030774925787704008 l13.976345559093337,-2.2734715152740703 2.880374476396933,-0.3164546964919225 l1.8154140178288076,0.17690263140788623 m-10.682909144429772,-32.44119912217069 l0.45756171957478786,1.1008834141481174 0.14344102648491058,1.402089133760597 l-0.05297140342238009,40.56705827265035 m-29.202220880792538,-42.48257227616245 l2.1171629421642026,1.2362154346541347 2.246618647820129,1.8333101437291526 l1.8526606337354494,2.000779264240054 0.7462123933245457,1.2839202776573917 m-10.830572680630318,14.376971701881263 l1.4939774236914674,0.426345530927949 1.0849859187277966,-0.17645408589033823 l6.9423570198055105,-2.862853066795855 0.674554354983168,0.3423350180120344 l0.21149581178398885,0.6498788587779686 -0.23190388917105753,0.9162622270413696 l-3.3546256922128603,6.5060875235286835 -0.4377802920819289,1.3077789428611166 l0.3990557100413175,1.1053004211810207 3.3176235852687097,4.0602674332413375 l0.050520644050770225,1.095805760151656 -0.8024945225411546,0.9975253097708126 l-6.526252433314542,5.365275540027565 m-2.742149009915632,1.072514033964227 l5.080044431962356,-0.6484947398997699 3.593830452271088,0.09511768739619811 l30.416227167910694,7.6301826941534046 5.145082743179574,0.7329704875233586 l5.682449698946026,0.10183381137868863 " fill="none" stroke="black" stroke-width="1" /></svg>