<?xml version="1.0" encoding="utf-8" ?>
<svg baseProfile="full" height="98.65264038779424" version="1.1" width="89.61568610934721" xmlns="http://www.w3.org/2000/svg" xmlns:ev="http://www.w3.org/2001/xml-events" xmlns:xlink="http://www.w3.org/1999/xlink"><defs /><rect fill="white" height="98.65264038779424" width="89.61568610934721" x="0" y="0" /><path d="M25,25 m0.0,0.0 m16.526563324070718,2.18956292890508 l0.2685936604508514,0.4393020859352265 0.3580487551014242,0.9749541674508686 l0.24937027399362813,2.356508935695275 1.2596579341320802,12.86741053355148 m-1.1311619770245864,-15.500287303889943 l16.99105466168063,-2.5656734055990498 1.8564755534894377,0.17285517737861109 l0.6746407029949995,0.8674365104958828 0.026687862058321365,0.6937107962995274 l-1.7834716467452412,11.032923618466521 -0.7818271058870703,3.5767881745501904 m-16.46693283174273,2.060443229739791 l17.269746687921142,-2.0964579217830477 m-12.637106973480398,12.140475603702345 l9.93744830065998,-1.8288193572703875 5.336119593288375,-0.8206755663632782 l1.0604205757277856,0.08004480221745272 0.48774429719096585,0.7508978563891971 l0.11361446146690346,1.4845218042863684 -0.9998021831828516,2.59114078311965 l-2.2883116969152693,6.550529613680272 -2.042137499150359,5.212374981007335 l-1.7907184205445605,3.580465809055825 -0.5302412109812025,1.0780390410515435 l-1.0000623402146733,0.7641674897215023 -0.7117593572036544,-0.4286658961456441 l-1.1115828329442545,-1.5593902454723678 m-0.7818731297383071,-29.744447133832317 l0.015989105134654787,2.060965383053611 -0.8107811498532836,3.492087677348871 l-1.4138910056934906,4.415848769660944 -1.87463855860822,4.548564984509863 l-1.7937000897985815,3.4370892058723923 -2.116541638473565,3.333635432647516 l-2.475953266776863,3.18060841948182 -1.997045503487497,2.0721749184579994 " fill="none" stroke="black" stroke-width="1" /></svg>