<?xml version="1.0" encoding="utf-8" ?>
<svg baseProfile="full" height="109.49251281097531" version="1.1" width="105.47745277814101" xmlns="http://www.w3.org/2000/svg" xmlns:ev="http://www.w3.org/2001/xml-events" xmlns:xlink="http://www.w3.org/1999/xlink"><defs /><rect fill="white" height="109.49251281097531" width="105.47745277814101" x="0" y="0" /><path d="M25,25.00000039234287 m0.0,0.0 m16.410127878189087,-3.923428693042297e-07 l0.3727937489748001,0.45788079500198364 0.3661308065056801,1.7461051046848297 l-0.02712252549827099,8.12928855419159 m-10.244874954223633,0.7528712600469589 l1.130962297320366,0.45754972845315933 1.9351506233215332,0.16977056860923767 l14.212514162063599,-1.4673374593257904 1.479918360710144,0.19415652379393578 l0.5393259599804878,0.3658411279320717 0.4132680222392082,1.5477894246578217 l-1.4645853638648987,17.71101474761963 m-16.198982000350952,-9.57212507724762 l16.467816829681396,-1.5729513764381409 m-16.379088163375854,10.541521310806274 l15.763945579528809,-1.5865668654441833 m-17.226648330688477,-16.45324945449829 l0.6118320301175117,0.9525112062692642 0.13392101973295212,1.1561241745948792 l-0.08135464042425156,36.295742988586426 0.24963276460766792,1.2044615298509598 l0.6171293184161186,0.2734703756868839 0.7873033732175827,-0.35921957343816757 l13.655641078948975,-9.404434561729431 m-2.508246600627899,-5.784593820571899 l2.0665884017944336,2.5453272461891174 1.82986781001091,2.9648029804229736 l1.6050659120082855,3.2932323217391968 0.9195689857006073,2.5943267345428467 m7.585657835006714,-40.915937423706055 l1.9798462092876434,0.34510739147663116 4.341425001621246,-0.26075491681694984 l11.459600925445557,-1.7123351991176605 1.476607620716095,0.5399053543806076 l0.4743519425392151,1.265379935503006 -0.5498376861214638,1.626254916191101 l-8.916425108909607,13.641735315322876 m0.0067767518339678645,0.0 l3.5213449597358704,3.6398708820343018 3.526642322540283,5.117141008377075 l1.7914627492427826,3.8087204098701477 1.2835891544818878,4.703955352306366 l0.05880771670490503,3.8954630494117737 -0.4169926792383194,1.5136884152889252 l-0.7075135409832001,1.1551309376955032 -0.9929027408361435,0.7444287091493607 l-1.2733258306980133,0.28166456148028374 -1.5487825870513916,-0.23324443027377129 l-1.8176178634166718,-0.8003809303045273 m-11.34670376777649,-38.56395959854126 l0.5643223971128464,1.081300601363182 0.08645272813737392,1.122354194521904 l0.020340601913630962,50.34371376037598 " fill="none" stroke="black" stroke-width="1" /></svg>