<?xml version="1.0" encoding="utf-8" ?>
<svg baseProfile="full" height="94.4936736151649" version="1.1" width="101.19111834539419" xmlns="http://www.w3.org/2000/svg" xmlns:ev="http://www.w3.org/2001/xml-events" xmlns:xlink="http://www.w3.org/1999/xlink"><defs /><rect fill="white" height="94.4936736151649" width="101.19111834539419" x="0" y="0" /><path d="M25,25 m0.0,0.0 m7.8825827498581065,15.171942279107938 l0.48991427089541423,0.17142584492130797 2.2710434478490846,0.05043802519200414 l14.136954151679472,-2.0010920723977486 1.4877778997182514,0.13581500110836628 l0.539818730193339,0.7600188320766101 0.04339337696842367,2.050762499045211 l-1.0413245355252148,7.861091469674296 -1.013186796041207,6.193616269392884 l-1.3391700844950853,5.42364864482874 -1.553243325517292,4.411955711036306 l-1.3601304797042926,1.9665764906209517 -0.7059097845610887,0.3049034836348996 l-1.1915260166140504,-0.37710444441707386 -1.5232110796424525,-1.7910564042948243 m-0.2173218527145293,-22.250072366105265 l0.034297479442917896,1.98916823590632 -0.9978379244293082,3.3912916603896837 l-1.5767376429166062,3.8013797485721947 -2.0600013682570855,3.768687670260361 l-1.990418910488342,2.9399345297152544 -2.346533472453593,2.8387418721935656 l-2.743414967680292,2.6237234866264605 -2.307622579357142,1.823411507416458 m28.910924654467895,-19.153253972282858 l0.7975952297715091,0.9666301159639001 0.39711399652690343,1.678737033214935 l2.0518478901082093,19.25007697588664 m-1.9018379805981602,-20.631319018320433 l14.791635240351825,-1.548355333350407 1.6531873544239235,0.03236185107615043 l1.0856662961260841,0.5365242899881784 0.48679437800857933,1.304159859528935 l-0.07229263444151214,1.3601544723533945 -2.3782971185405226,17.859428475517916 m-12.788571752876422,1.579320891083636 l13.899123525882935,-1.1029458483760184 " fill="none" stroke="black" stroke-width="1" /></svg>