<?xml version="1.0" encoding="utf-8" ?>
<svg baseProfile="full" height="112.23859334839021" version="1.1" width="107.78299865520461" xmlns="http://www.w3.org/2000/svg" xmlns:ev="http://www.w3.org/2001/xml-events" xmlns:xlink="http://www.w3.org/1999/xlink"><defs /><rect fill="white" height="112.23859334839021" width="107.78299865520461" x="0" y="0" /><path d="M25,25 m0.0,0.0 m28.698522668853226,16.37252355323515 l0.43438939946924177,0.12909299616167433 2.685988147210512,0.043643686428033235 l19.481518118848566,-2.2459537740757543 3.340600777257706,0.1883134257130495 l1.72666284467663,0.31944056728595016 m-26.657852244522708,11.753555266997449 l0.6061322074248343,1.4589244752110702 2.484050185794425,8.000623203355474 m-2.4036997824716226,-9.654453637949233 l17.47638973958179,-2.1158844393505056 5.104641820300114,-0.39097574713821404 l1.1378554894322916,0.592834299587596 0.3684043675562979,1.1349802985280797 l-1.6946740329854595,6.367777015630832 m-19.310673198466436,3.4179386705831063 l19.90284804358718,-2.492925280411007 m-11.819452176607488,-14.713850908839037 l0.6594191963726472,0.9564499100316233 0.2522975274913246,1.5557799773366603 l-0.02332976722249842,33.57571147966676 m-23.80916045353158,-34.55145855635631 l1.3614188536329856,1.3031846033551138 1.6286153923313973,1.7913397502207051 l1.3967258963927505,1.8638787218887012 0.8165854311918491,1.1740429997245672 m-9.764444365829537,11.912207813987639 l1.2446641106137746,0.3487474635255572 0.9576817441554628,-0.10016781918557195 l7.524527239070678,-2.5215910484329696 0.434213798467713,0.12222846954200936 l0.28839000938732023,0.4967809987988898 -0.13489007857216082,0.816840938470809 l-2.677762402866809,5.862314110417957 -0.36536081914464574,1.1489495045933988 l0.450225024396701,1.4466038794868912 2.6179525296209984,3.572212051980408 l-0.31458916835016654,1.064646927698225 -2.4594133970127654,2.027014030175951 l-3.6650078185170285,2.8256892032287686 m-2.4674515445554412,0.9731998709654003 l4.146713947831446,-0.5508737235181652 2.960187328729592,0.15008207275709876 l25.800083474867325,6.160137924590569 4.647499432370186,0.6490381224858085 l4.715555158943993,-0.26352693294199575 " fill="none" stroke="black" stroke-width="1" /></svg>