<?xml version="1.0" encoding="utf-8" ?>
<svg baseProfile="full" height="107.88155196613849" version="1.1" width="103.59465952586686" xmlns="http://www.w3.org/2000/svg" xmlns:ev="http://www.w3.org/2001/xml-events" xmlns:xlink="http://www.w3.org/1999/xlink"><defs /><rect fill="white" height="107.88155196613849" width="103.59465952586686" x="0" y="0" /><path d="M25,25 m0.0,0.0 m13.319657986256543,13.943905493819727 l0.4057699736794461,0.19854975943710787 2.68297998805726,2.1518288012193203 l1.1832411075027036,1.4285950382658332 m-7.2477440358527385,6.1450709438721445 l3.1149599269386665,1.8133294393564319 1.3989942468334875,1.2175486727292066 l0.6273404397604195,0.8831521919729568 m-5.311142529688227,19.529853732958056 l1.2597618875278853,0.44347881536587175 0.5749582890937541,-0.33808491123863 l2.374830054486002,-3.7441758660823212 2.186001877611829,-4.215009562419051 m15.48122288490054,-28.284849836996997 l-0.19281844282154753,1.4016385894852461 -0.36700854454218673,1.2344185277023454 l-1.8599490650613333,3.7637599498310306 -2.5251879644401747,3.754893586663477 l-3.7276632857755287,4.4293892764565905 m7.255543240190385,-6.818412105638181 l1.4522329553431963,-0.3102234968390846 6.3207576041677775,-0.4222751680817474 l7.579391447065584,-0.8389460171797195 2.3536897089328614,0.08602492955835034 m-17.872128590014622,7.185523030072367 l0.3954370742574129,0.65950214846787 0.08836973922378528,0.8557828371697712 l-0.6295023377765835,4.162476833279311 -2.2670656154756474,8.502279453824304 l-2.2209956987933896,5.890768659563004 0.04826195769480759,0.7159526256248211 l0.6800769936929749,0.5125031823756245 8.015798960441709,0.6017160207415464 l5.83619415846982,2.4583598145374324 2.1412988315176853,1.6274037492688769 l1.7922394329785036,1.6927761097300789 1.6126148119755828,1.8481017668883803 m-16.485159423695574,-23.848254703378696 l4.807499855469196,-0.25695428925097363 9.925459470884775,-1.1565162619269036 l1.267798722316258,0.1545596656812096 0.631192956600139,0.7505245924265292 l0.02494615345773942,4.242500387177381 -0.9776426266006957,7.7316123823189065 l-1.4942386431052972,7.004016171414885 -1.4947882462802158,5.326714470376125 l-1.1697918471760524,2.8575543583461176 -0.5344363487549071,0.6467159656628232 l-0.5426806722106257,0.26247221152971734 -0.5406570626358231,-0.014360221675524362 l-0.5338454647277766,-0.27024135354100015 -1.3282454286044156,-1.518638731162233 m-0.5345626863202054,-23.96732903810174 l0.4901148206495978,0.9890491148014668 -0.02703628086145574,1.5111259395394252 l-1.537770949611397,8.183288640614196 -1.644644645845216,7.182091053524863 m-13.030227372304743,-9.119401591076594 l3.4584151862329673,0.21159477660928075 22.375382351527538,-1.6543738854588501 l4.388652573025835,-0.09599126215159977 2.1405056660785715,0.23167866908416962 " fill="none" stroke="black" stroke-width="1" /></svg>