<?xml version="1.0" encoding="utf-8" ?>
<svg baseProfile="full" height="102.18060730953499" version="1.1" width="103.844637377288" xmlns="http://www.w3.org/2000/svg" xmlns:ev="http://www.w3.org/2001/xml-events" xmlns:xlink="http://www.w3.org/1999/xlink"><defs /><rect fill="white" height="102.18060730953499" width="103.844637377288" x="0" y="0" /><path d="M25,25 m0.0,0.0 m26.55402788235231,2.814301807452141 l0.4785790199886412,0.136232913100897 3.1752678594509276,0.05046697014983123 l16.689156457944403,-1.8183303104951336 2.5604085173139737,0.08008459659449436 m-22.75181239947181,9.60534030732417 l2.4826736796851248,0.3016797257086429 19.289471051410192,-2.302401169506175 l1.6000359892632703,0.23762533066339256 0.44135782535776297,0.4288738618156826 l0.20176953013152268,0.7424482021317143 -1.8486148696812967,6.334425784927992 m-20.225348925787745,2.8508652345275403 l21.259213589464174,-2.398565243385307 m-22.258763526060967,-5.564370164560318 l0.561515712335546,0.7887347275109503 0.3250443973131258,1.0123113289892465 l0.010250613062506084,2.6454878820114085 -0.4992736551861963,5.269283596743304 l-1.0047690976823007,4.627365844918931 -1.1169907857145196,3.387303146266875 l-1.4077660245040715,2.868700993684617 -1.655535082338793,2.3553222048619036 l-2.3352873619195416,2.413686393287733 m8.45260918680187,-11.546880168064547 l0.4982255241619478,0.8491927212085243 0.12346596623686688,1.077544446710955 l-0.04597683271865089,15.086263640547223 m0.6354291946005545,-16.143970387460993 l19.663466208386428,-2.639949560990642 1.5462896212086918,0.011911185366229107 l1.1641856335227685,0.487549681537472 0.6330860880658924,1.0463795103879159 l0.11402944509898547,0.7497247018064191 -0.0166598658888117,14.341451033370173 l-0.2005523089684973,1.4606792066288492 -0.4681798905447672,0.596855124758009 l-0.6282468709465281,-1.3930556070239266 m-19.87324818910208,-7.5798854770975685 l12.082033982358716,-1.582904445015081 8.460530548227,-0.7119864204005525 m-15.145590639310406,-4.271247958843911 l0.2816892042956075,0.4748289710827061 0.1914708099264715,1.2103112736613642 l-0.0342592216480633,12.947203016705044 m6.70892917926489,-15.50456421508271 l0.3436976014548926,0.4864265672625942 0.26656149123767414,1.0686716690483464 l0.05068617041757333,13.562183066326043 m-35.210006249707625,-35.74614765385284 l2.0782298277235225,1.0740584723940803 2.174505758286383,1.5257039993539152 l1.7425857997946443,1.5992674670259834 0.6919098614873559,1.0017203156738967 m-9.136834488814378,12.669142000337995 l1.4212460901095596,0.35013118102339325 1.0376233073134435,-0.1284518184621951 l6.713938151587314,-2.8238255266424086 0.6400510175956958,-0.007791226893646037 l0.4929612774142896,0.3850700049624629 0.210494646341792,0.618850589550464 l-0.2040387826434655,0.7147484744579472 -4.093164229208052,5.3156984393958 l-0.4836963445504551,1.241938764826282 0.5104727818793636,0.9080993770344883 l3.8059368851192987,3.608686868304872 0.30219638986257,0.5576494996093232 l-0.13687498909765686,1.187200087653001 -9.895557543356034,7.669169314724337 m-2.1278620414424694,0.9631403190234851 l4.858395825609761,-0.3834564475851073 6.526067450526547,0.6172181212706042 l7.871418825756163,1.9442783474613794 18.3638197804827,4.954214118722813 l4.678510397323201,0.8465425074000511 5.684025539029258,0.5681461716121115 " fill="none" stroke="black" stroke-width="1" /></svg>