<?xml version="1.0" encoding="utf-8" ?>
<svg baseProfile="full" height="106.45656818082603" version="1.1" width="102.03288463791982" xmlns="http://www.w3.org/2000/svg" xmlns:ev="http://www.w3.org/2001/xml-events" xmlns:xlink="http://www.w3.org/1999/xlink"><defs /><rect fill="white" height="106.45656818082603" width="102.03288463791982" x="0" y="0" /><path d="M31.174738241306134,38.87150519322461 m0.0,0.0 m31.62752035602724,12.085723007435131 l-0.059321283982339,0.42889070864518614 -2.7003889719567917,1.1115726432555386 l-3.839388531857907,1.4050478788017944 -4.524378925530115,1.1800012547943557 l-4.841335959598614,0.8141568196161272 m-3.6299544753761728,4.0386718443880545 l2.5737489394392497,0.9410345526080189 2.1288312448183135,1.2436996031063254 m6.5527275963247,-5.083339762838846 l2.0094073745454635,1.6468218732468156 1.1473495712308406,1.7551886178635336 m10.549438499373064,-5.212104871239176 l-0.2338466148075565,0.7159741924998227 -1.166946213757919,1.6814733899824792 l-3.7234262155520494,3.486437130358172 -3.1352839393442533,3.709748640604679 l-4.626559776322101,4.690731171937122 -5.493394721215027,4.6025785499144405 m1.419416655389101,-9.90647362321882 l3.1336438385532626,0.225055125684749 15.809583982368638,-1.9655893804555302 l0.905365370564877,0.0865217665181749 0.8674751366982719,0.30577257972217237 l0.3847443286214161,0.39310854301022224 0.05235581009292933,1.099714793624435 l-3.362612936893994,4.578131285538323 -1.04194466343924,0.8448457753467439 l-1.3698156888583464,0.5665702588295557 -1.2232134624630413,-0.21070264722707954 l-1.366037147740326,-0.5250238029709646 m-23.932637676363807,4.350395265122636 l-0.3234058882789687,1.3925029153886672 -0.922663523653844,1.5741475565422915 l-1.37228258424364,1.65999595920179 -1.4725811425424489,1.2809677533160395 m8.994747690083056,-7.069579384113137 l2.4178930297551946,2.88301339608557 2.6378101930726694,2.039686774476256 l3.119843161679078,1.6207811810589903 3.099322313567632,1.0843872877459573 l2.6854259995025913,0.5877981185733351 3.014412854962008,0.35269429539603425 l3.4347074834689972,0.09403394942544119 3.8896400521054364,-0.20703263201583824 l1.2132311868700234,-0.18538444102320656 0.6496769536151401,-0.244598486362892 l0.2770791547139471,-0.3341798267699707 -0.09762621069042973,-0.9529710992181942 l-1.4858950561209152,-1.2140855629640763 m-15.303249473294686,-5.955854879858365 l1.3133016034295963,1.379874883136049 1.1289346163898937,0.6160478391644246 l0.9743267680197006,0.02841149101978435 0.7830016323350423,-0.8290672432873373 m11.396118321469856,-2.052343046977127 l2.3494827355179173,0.7571644801476215 1.7612987011798926,0.8256968341200805 l1.6138708129770847,1.1526474796985606 1.1906035117360936,1.1988461245113453 m-41.54383192856653,-23.14044467416201 l2.037054190096184,0.7529565243405701 2.16007248787063,1.1464454126371573 l1.7555058506795178,1.2104621565379587 0.7249382390551496,0.9933585763041305 m-10.397637661404726,-25.20057134256496 l0.9024347880215801,0.8417393089142474 0.3219062196634169,1.1492691261598331 l0.004010442511802605,10.713391212123149 0.07182407596006336,7.225074886723333 l-0.36221862022848395,5.03609747352782 -0.6899012546693953,2.1820389926198684 l-1.1699223126545424,1.8573498672835536 -1.7784763120541793,1.7067331357527717 l-1.978031000699483,1.4034828374634936 m-2.0906118415008255,-35.80383810028806 l2.5486612824995785,0.28104969718063993 3.0192745173009037,-1.1626754929866046 l5.777952284101475,-1.6316596917137611 0.7145716600555555,0.28204537991350587 l0.42309803221610404,0.5127491246672738 0.12938275536066923,0.6385710215468651 l-0.14561515810055622,6.866604340605647 -0.5233010600408176,4.916325687968528 l-2.8133185566544032,5.933696266563017 -1.2205351002264233,2.2326794126265583 m-5.770580120597098,1.3808961879315467 l3.941290704911419,-0.3062843117085623 3.041788364261684,0.009488672609008873 l26.387427151509996,5.5172420722754385 6.871430245427558,0.5432818675127611 l5.55724615505371,-0.4138467697741376 " fill="none" stroke="black" stroke-width="1" /></svg>