<?xml version="1.0" encoding="utf-8" ?>
<svg baseProfile="full" height="85.98890888381112" version="1.1" width="99.72936156115091" xmlns="http://www.w3.org/2000/svg" xmlns:ev="http://www.w3.org/2001/xml-events" xmlns:xlink="http://www.w3.org/1999/xlink"><defs /><rect fill="white" height="85.98890888381112" width="99.72936156115091" x="0" y="0" /><path d="M25,25 m0.0,0.0 m7.100125719778645,10.093379226561787 l0.4472946081029018,0.17899486407737686 1.8715437329513036,0.13824657277554492 l14.997642956660037,-1.9858274022681721 1.626785487127575,0.2840597904272838 l0.4196884679109304,0.9916025209973459 -0.2897098580181966,2.0948045023018245 l-1.1279084962386843,7.0733710923392605 -1.06411173065084,5.191197688439964 l-1.368894916232641,4.648920994962228 -1.3669563195934165,3.518319643762696 l-1.32214520806748,2.0193998039321945 -0.7425114730477435,0.40080680143651154 l-1.2178480713092723,-0.2807796217936024 -1.4203982966502193,-1.4805011204432506 m-0.8823369611855445,-22.33506727912114 l-0.013856455123832927,2.029537128514769 -0.9509900068570456,3.5137212576330037 l-1.484747471796858,3.8860651851419523 -1.9398250369616499,3.897591795005762 l-1.8946111460124277,3.0248919822795477 -2.2800984751789555,2.8907718989014946 l-2.707219302661373,2.687613067573975 -2.27226290479292,1.86006910931731 m28.35258167959124,-18.357000229985204 l0.8130759063177299,0.8884790886616717 0.3860819561270197,1.447023074536748 l1.9221954768205847,17.669217447842236 m-1.8681681671710597,-19.04687183586478 l14.308438149724134,-1.5728654017811063 2.2014978317744536,0.014245714313965112 l1.0257155424056752,0.5583115278933977 0.47129434340884,1.0713272730107206 l-0.022884110209395396,1.34346859279653 -2.314715827445677,14.303738755852006 m-12.803242283106972,1.565450331623383 l13.804883243126222,-1.080294151080562 " fill="none" stroke="black" stroke-width="1" /></svg>