<?xml version="1.0" encoding="utf-8" ?>
<svg baseProfile="full" height="107.3865609203592" version="1.1" width="93.91851630536408" xmlns="http://www.w3.org/2000/svg" xmlns:ev="http://www.w3.org/2001/xml-events" xmlns:xlink="http://www.w3.org/1999/xlink"><defs /><rect fill="white" height="107.3865609203592" width="93.91851630536408" x="0" y="0" /><path d="M25,25 m0.0,0.0 m9.944080080312657,13.217130893480986 l0.477591126337617,0.136098210112202 2.2373332015522793,0.048154517334743574 l23.747139413135823,-1.7911443540623073 5.1463147675819405,-0.150427423871399 l2.366057716443769,0.24474015904554608 m-26.375366163898843,-4.051296725360483 l0.9259953093758505,1.1850040334376246 1.1519512439822732,8.199860165764248 m13.919549185124566,-10.603775910339401 l0.19082200612766184,0.8331158729798374 -0.07845615701372449,0.9353964574525893 l-2.4816189771279626,7.593547103682174 m-21.371552162232863,4.929473671000332 l0.519375576645654,1.534329512211765 -0.023607092535976856,9.898354410987228 m0.26329690078382467,-9.99535440563884 l28.661289367128173,-1.9689805744146485 0.5052691550859056,0.1762469027339233 l0.29884295272619904,0.4832053875281367 0.041921410898426645,1.1481421955598656 l-0.7487852833167519,4.560469014283785 -0.9963193358525869,4.116064910486487 l-0.5334273530168765,1.4848306763601977 -0.761348698774399,0.5730173953800582 l-0.9307147345271073,-0.37771201039511515 -0.8517960061805564,-1.0734856073415049 m-11.787280461798687,-15.962232167447846 l0.5180008664050079,0.9236217923955257 0.17790240435692734,1.035962171265683 l-0.005067082027922305,22.162396508434558 m-9.684231727826704,-12.647552888387864 l2.3127454154550193,1.2098057763283938 1.5790478296503485,1.339037868271488 m-6.405107083194281,3.0812299208532505 l2.21441315040812,1.2251441743283435 1.7056884925193199,1.6235360970949322 m12.119349255183291,-8.918780378697933 l2.4295221064461625,1.2350080918405486 2.41627246188151,1.6131298337821547 m-6.4071305513129895,3.675462025312363 l2.001274127062074,1.1939619526331509 1.9506216583254627,1.7755805863432588 m-21.270897784537794,7.878693339791757 l2.8494656649332986,0.2371980293567829 18.390099179272468,-1.5034076297768484 l4.3665294759695845,-0.11319843213719143 2.1105010760475857,0.21879124256688304 m-19.87378394545378,1.7517681628089259 l0.5015402086957341,0.6513848198698008 0.29338136816016125,1.3537061364832963 l-0.011846203629009766,11.061309408647741 m1.0648404325568903,-8.009870471850903 l10.18786307842364,-1.065755097263788 3.819455356469893,0.026838231520041795 m-22.503766215925484,7.313078890703262 l20.92629688259647,0.2617488643442333 2.933574324106061,0.22400705453086006 " fill="none" stroke="black" stroke-width="1" /></svg>