<?xml version="1.0" encoding="utf-8" ?>
<svg baseProfile="full" height="108.80155069012433" version="1.1" width="98.0943632126388" xmlns="http://www.w3.org/2000/svg" xmlns:ev="http://www.w3.org/2001/xml-events" xmlns:xlink="http://www.w3.org/1999/xlink"><defs /><rect fill="white" height="108.80155069012433" width="98.0943632126388" x="0" y="0" /><path d="M25,25 m0.0,0.0 m33.30775763543882,14.00981445472555 l0.0070325505676335125,0.374841578387258 -0.5403268414604202,2.116393898888994 l-1.1526682062466065,2.2037833566391387 m-5.351239304827914,0.510282608617516 l0.6197220321005584,0.8576156162384188 1.4719308431145421,11.707443080893977 m-1.2914804895245398,-11.76027348362763 l14.082995520415903,-1.4892994708750613 1.2035352365245562,0.23543302128405658 l0.49560695758203105,1.373221872095818 -0.9810726867798001,5.99176712986806 m-14.293557487253832,-4.510103674496142 l14.853954928202501,-1.1954904454849307 m-14.151363168104826,4.131534428152837 l13.663099156261712,-1.0628075516005593 m-13.040833084641822,3.848333870646555 l11.672849924902435,-0.9487074420912287 m-6.842328917178107,1.758082272995826 l0.570837089278633,0.5529607047563956 0.16628496848751853,0.6354477228677842 l-0.056367915033502525,7.139746587680995 m-11.508072080291873,-5.153786004552581 l1.0663503661352696,2.2218950556412236 0.8306701215733122,4.145790685234731 m-1.103343017020551,-5.620674559406695 l15.458913247278698,-1.5063947464868417 3.771141419193275,-0.19981762399272524 l0.7851011394745409,0.18810911435539368 0.3978741666747995,0.3345652533992428 l0.05699683489324776,0.7987293700300521 -1.507674280289681,4.365159242486313 m-15.409518736870666,0.8708936123456003 l10.048976977528811,-0.783422556999737 5.382596530682054,-0.20408326651255917 m-26.514126506150244,5.810225640304035 l2.517325026071576,0.1916545920320674 26.637155436249177,-1.2962326837747 l2.7696278256815803,0.12953082582499462 m-16.59587688705808,4.0064840771209 l5.427351621077572,0.9539895415924637 4.095202296547506,0.29957555556678417 l1.173797420857956,0.19906486852158597 0.7741002680333223,0.19004061907488898 l0.540147234440682,0.4719311210254047 -0.37140432128978923,1.3978681290287505 l-1.4514456555022688,2.718956030591895 -1.9805959083369877,3.831891908483852 l-1.491227980207529,1.885224280057364 -1.0157556017455747,0.28953854929642686 l-1.255879443677233,-1.186922671261402 m-3.161760080247519,-12.48330368494128 l0.09438165270881387,0.9046277160401391 -0.62946781687376,1.5924426878243831 l-2.378327722611212,3.8647116945358118 -2.2175007540946754,2.8667296130814606 l-3.1362313042933923,2.9072982727599093 m-20.506155708090876,3.132537154660241 l1.6406694010173706,0.18670314057329856 1.7368021861894325,-0.0021442753791335047 l14.807777039389126,-1.684486769213945 10.39680446426104,-0.7293208654465718 l5.319777113987848,-0.17053731183823842 2.4653067693595565,0.2840049697069179 " fill="none" stroke="black" stroke-width="1" /></svg>