<?xml version="1.0" encoding="utf-8" ?>
<svg baseProfile="full" height="129.77425266853518" version="1.1" width="110.7212316923598" xmlns="http://www.w3.org/2000/svg" xmlns:ev="http://www.w3.org/2001/xml-events" xmlns:xlink="http://www.w3.org/1999/xlink"><defs /><rect fill="white" height="129.77425266853518" width="110.7212316923598" x="0" y="0" /><path d="M25,32.647753763644 m0.0,0.0 m9.02759336286499,13.967513306930833 l0.520130579651185,0.29672411505794816 2.0912902111722342,0.2532472922864426 l10.11408051632093,-3.486504773644934 1.9176971977575636,-0.28203771420364937 l1.5216999438658263,0.17125934072384177 0.5224153960114196,0.47218010741515754 l0.007580398828470371,0.7644274953258007 -0.498420681807752,1.1073644108404266 l-4.515598043308047,13.796472776183624 -2.374193300169152,7.603550749904158 l-2.743048914215206,7.6553293725949745 -2.2492046167907485,6.397857180065222 l-1.801418912087856,6.377149237838773 -1.092277427599682,4.27072931522575 l-0.7190438434538504,3.5131412880581 -0.13578001142408302,3.2070107440765514 l0.10947664195126772,1.9859433282027583 0.746854534684642,1.6845354028098232 l1.0210330354205726,1.0438683678907836 2.2282461288595528,0.8050240860480781 l8.011734143803617,0.5217134752607167 8.615706147980365,-0.9335758834179878 l2.969525054015593,-5.013469640573902 0.9870758657703288,-4.285426816533781 l0.4987558186080316,-4.5824315608051345 0.5508698531924244,-4.95855625131647 l0.36508716320782575,-5.844337290723001 -0.09990615335071291,-12.927973301933493 l1.1957044424337275,0.948649850455395 5.722574976622854,2.479208194744923 l4.071885039823632,2.266400551606029 4.224535452908305,2.7580233042723457 l4.476815344148122,3.3511342322540187 m-5.619408502108454,-48.308537920895525 l3.0157496245228987,3.240335309650465 2.4633137240484184,4.015171880351878 m-0.807163040670647,-11.97886732567095 l3.572153506359185,2.978543328834823 2.8071110345119945,3.688840446859908 " fill="none" stroke="black" stroke-width="1" /></svg>