<?xml version="1.0" encoding="utf-8" ?>
<svg baseProfile="full" height="98.60512976995082" version="1.1" width="109.91550138743617" xmlns="http://www.w3.org/2000/svg" xmlns:ev="http://www.w3.org/2001/xml-events" xmlns:xlink="http://www.w3.org/1999/xlink"><defs /><rect fill="white" height="98.60512976995082" width="109.91550138743617" x="0" y="0" /><path d="M30.235772462290264,25 m0.0,0.0 m30.513335900589098,5.1620531962251865 l0.04390111928149693,0.38404788590015604 -0.39458493045493553,0.9717878735010372 l-1.0257722090014565,1.136501808799324 -3.987311078969188,2.9516585301940976 l-5.47356563752724,2.723952388379324 -6.077054938140664,2.3691601580148993 m15.02365856654644,-8.104839904432989 l5.7796563335264945,0.15392588849733624 10.52792753416196,-0.9142951987144413 l0.7140473744935303,0.31669115462949793 0.05641811916322619,0.5046367348006783 l-0.4771435532715807,0.5390229322129498 -6.711356671454965,5.864206887733674 l-3.8306555138487686,2.644376226118723 -4.232719065755028,2.615165362371288 l-7.62521858411665,3.7329646435113295 -4.27268267190422,1.570390797767011 l-4.549810643073944,1.2825717799493965 m12.57965971187135,-13.330738420857939 l2.542702851454671,1.1758477706020487 2.4200587268045126,1.7444825481955057 m-12.060985160833138,1.3855221446605377 l2.9426651318621904,1.7841769937187186 1.8892299525290326,1.5042691405463853 m4.210549273364318,0.4646072225084631 l-0.47139923656598287,1.5752321314335838 -1.8129834055026888,2.248985746299109 l-2.399233171879487,2.1990877330027234 -3.0302810089555723,2.1944862917854633 m7.499227698058927,-4.387829442605546 l3.432051590946151,-0.03711523446694719 11.559799774179268,-1.314903787287909 l3.039651911709443,-0.027451585603573005 m-31.67388684900601,8.36147410142954 l2.4172919176852683,0.15909639258282926 3.13151052567925,-0.11408122476764608 l25.62454011615877,-1.7885658258713362 6.037459349157138,-0.15451537532436904 l2.8010297761849006,0.14789483524654778 m-21.492882333431993,-5.26838580515888 l0.8655168742587233,0.7112973969245096 0.19692117967613434,0.41028687356947025 l-0.11505732087912203,13.973058798464612 m-12.90886074433876,-5.123353451620086 l0.8049229704709152,0.8655452462909542 -1.099683481470967,5.1667062454952255 l0.1045863934238397,0.9562246277579687 0.6254614894349053,0.05791703656041316 l13.012507673911552,-1.3363340348004515 11.996618713439387,-0.6939802050291062 m0.18435153359476653,-6.501677748302318 l0.7683803329485801,1.116124597802213 -0.6901395214281311,7.441100169349728 m-48.646409590646165,-33.84287051230169 l2.5806073069385658,0.8397039211601516 2.6830668044079444,1.195630546980499 l2.117455746523411,1.2430206358605442 0.8734026225702568,0.7903185100706701 m-10.18695883798084,8.754368159451067 l5.003320486578374,1.3202909059525219 2.4446672664696876,1.0159464856716933 l0.9745604358617523,0.6025428674725285 m-10.011857387768984,8.681246724152874 l1.649516595996713,0.26312278549215934 1.2047977677667843,-0.07792704691143366 l7.921143280104692,-1.7416606152596905 0.8513359783482062,0.20273778997017605 l0.47441889482091615,0.4000963792084815 -0.09466805862783197,0.46793225535733457 l-3.6495788433190417,3.7529273732345234 -0.3111200902007637,0.8002222407098186 l0.47529913309186916,0.9765723245679259 3.296342484765177,2.4820872718779428 l0.3548365199456106,0.9368017681391679 -0.8731352135933979,0.8681249911001054 l-7.721286077034433,3.6447329101592367 m-3.0911141724359528,0.5723819404745007 l8.725443997930478,-0.17926490827589592 32.29861593750522,2.8612606063416477 l7.858088235778894,0.3063124113050443 6.485236746134014,-0.2001680263983975 " fill="none" stroke="black" stroke-width="1" /></svg>