<?xml version="1.0" encoding="utf-8" ?>
<svg baseProfile="full" height="104.50352564061089" version="1.1" width="84.5200827099679" xmlns="http://www.w3.org/2000/svg" xmlns:ev="http://www.w3.org/2001/xml-events" xmlns:xlink="http://www.w3.org/1999/xlink"><defs /><rect fill="white" height="104.50352564061089" width="84.5200827099679" x="0" y="0" /><path d="M25.589576145725335,25 m0.0,0.0 m14.450971529048372,5.4958018629458305 l0.4369533105390346,0.37123971061060207 0.6163905011219604,1.4025088811098598 l0.10507488165539956,1.614641490257675 -0.4651954107460078,43.92434625856199 l-0.635839127553926,1.5116524541561676 -0.6522067530293973,0.18333498296875964 l-0.8434302149461745,-0.3116366419854402 -1.735471316117602,-1.2023255335362892 l-2.0216839100402892,-1.8969266670450147 m-7.693576683504905,-26.351224985519902 l2.905368233369139,3.912845836922032 1.380063212060369,2.30485849044732 l0.7723873563081651,1.7499733138746782 m-7.209381753889475,16.306389641034325 l1.3463393599350766,0.3006774167604988 0.761233990848006,-0.4916690685001789 l7.82860452434636,-8.596475292807542 m20.3278916793576,-18.424063246523886 l-0.07513114403604806,1.132527337688983 -1.3690166708671225,2.3808660346151678 l-1.9643385062409586,2.5117280349314086 -2.815304792556199,3.0352606164988263 m1.1555887086288512,8.06303300993131 l2.7604087889213305,1.8786031417653055 2.843166042272654,2.8529433827830033 l2.214688719172042,3.047776860655512 1.5059520101863089,3.0751227139467567 " fill="none" stroke="black" stroke-width="1" /></svg>