<?xml version="1.0" encoding="utf-8" ?>
<svg baseProfile="full" height="107.94874954465986" version="1.1" width="109.25541763069214" xmlns="http://www.w3.org/2000/svg" xmlns:ev="http://www.w3.org/2001/xml-events" xmlns:xlink="http://www.w3.org/1999/xlink"><defs /><rect fill="white" height="107.94874954465986" width="109.25541763069214" x="0" y="0" /><path d="M25,25 m0.0,0.0 m23.536426880524814,2.339165587117298 l0.4651424649064241,0.35337582262227746 3.3970145964321063,1.0348328524026713 l3.065606599599609,1.659566603557109 1.9445232123924676,1.509658947265004 m-11.01715792890055,5.434086684235068 l1.866860711804609,0.44989389707416033 2.2279927359588907,0.8543540596587897 l1.8202795537871614,0.9913371889654451 0.7417460285958725,0.6455734860652601 m-7.172975508541974,14.854599968551486 l1.3532985088833875,0.3101525168383279 0.6492473743798236,-0.05247888549023135 l1.0207719659823806,-0.6622353262620558 6.390905352145999,-4.700096691806903 m10.56825618836876,-20.448150342999913 l2.432994191262252,2.0035091297677288 1.5546902543814474,2.6799091064861518 m14.409794448728652,3.0635264606021675 l-0.18362274185355915,0.3838668040999946 -0.8920600177585758,0.6054199736609015 l-5.095282921056561,1.9867739253689902 -4.874360238616309,1.8509739378921326 m-1.7308101910716533,-6.531627878976558 l0.47242388398646845,0.41088475685847237 0.31402117327783297,0.7909029246215055 l-1.5022354489246215,3.648516089786614 -2.9607314681655996,4.26933812828547 l-1.669638124308092,1.5961760778620961 -2.0099279447196676,1.4530059836636877 l-2.503794910330629,1.3418424324908103 m9.77673977003686,-6.118258062646711 l3.266079493033823,1.0249014415781335 2.966612317008519,1.4204301683737286 l2.549894537754435,1.5815709745378166 1.8503828637301933,1.5745650379164935 m-38.187322809355706,5.4399096470629065 l4.0763909466467165,1.2089259675298738 2.227904336439126,1.0662178695542839 l22.30252943800928,0.8880839042311257 m-41.0096676773663,4.412050319424686 l3.902281405952679,0.20227310000289575 37.28105612365188,-1.5036983086047866 l5.28121596191559,-0.1074682272182464 2.6501560038219605,0.18009564004360976 m-32.1206972638489,1.3415823147943935 l0.07644269550956138,1.3362646373931513 -0.669280819915133,1.7499675710984504 l-1.3173711207114198,1.923882996792811 -2.0253767124187654,2.08592781068061 l-2.3477126256804057,3.19279130460972 -1.9212377243956498,4.485595915993084 l-1.319328566298862,2.7048277200924344 -1.4158329450536251,2.0596949670017697 l-1.7179105664958112,1.671960614153673 m10.660074558571338,-18.34326009462664 l2.8049836866068145,0.1916304614609062 15.307151057414861,-1.2673851747644318 l0.9268081241949946,0.12321735485585684 1.021270697977379,0.719687420634493 l0.07315000525126981,0.5508502728911573 -2.246004920164125,10.996442981612292 l-0.19217011017507543,2.424795427453546 0.17094723499382694,1.5822071752826912 l2.520973490118601,0.9755240436453916 3.1321869919829948,0.15623524148547596 l3.968075932511089,-0.10995531503302057 3.03604793985524,-0.4133774773734228 l1.0520620791835769,-0.37197410958254384 1.0205967355755954,-0.8379906393429326 l0.33866317610687285,-0.8389704930978473 0.08450228401640944,-1.7296285261364976 " fill="none" stroke="black" stroke-width="1" /></svg>