<?xml version="1.0" encoding="utf-8" ?>
<svg baseProfile="full" height="109.49251165264286" version="1.1" width="109.46830978617072" xmlns="http://www.w3.org/2000/svg" xmlns:ev="http://www.w3.org/2001/xml-events" xmlns:xlink="http://www.w3.org/1999/xlink"><defs /><rect fill="white" height="109.49251165264286" width="109.46830978617072" x="0" y="0" /><path d="M25,25 m0.0,0.0 m27.567334175109863,1.991768628358841 l0.4460371658205986,0.35559073090553284 2.94065922498703,3.4886476397514343 l1.876453459262848,3.7247642874717712 m15.213407278060913,-9.560770988464355 l-0.2682085894048214,1.785210520029068 -1.3260754942893982,2.902073562145233 l-1.6956491768360138,2.585245370864868 -2.140270322561264,2.33355313539505 m-20.265662670135498,5.511036515235901 l1.9565454125404358,0.32727088779211044 2.970041036605835,-0.12884411960840225 l14.915339946746826,-1.8805688619613647 7.507584095001221,-0.6584800034761429 l5.765207409858704,-0.19074946641921997 2.1501821279525757,0.31297825276851654 m-19.042245149612427,2.1678821742534637 l-0.30448228120803833,1.7614926397800446 -1.0435853898525238,2.2464697062969208 l-2.48718798160553,3.880169093608856 m-6.0491132736206055,-0.2826671861112118 l0.8192392438650131,1.8634441494941711 0.0,25.779531002044678 m0.550820492208004,-26.30344867706299 l17.87883162498474,-2.1097269654273987 0.9954416006803513,0.057214885018765926 l1.3030657172203064,0.7209163904190063 -0.5362623184919357,26.749484539031982 m-19.67661142349243,-17.966092824935913 l12.861446142196655,-1.0730335116386414 m-12.709934711456299,9.951584339141846 l12.136458158493042,-1.0730114579200745 m-11.950963735580444,9.118981957435608 l18.349826335906982,-0.7757196575403214 m-42.706289291381836,-41.822710037231445 l1.9282257556915283,1.117393895983696 2.5526776909828186,2.086462676525116 l1.5282082557678223,1.6708692908287048 0.8779144287109375,1.4687366783618927 m-11.056057214736938,16.040345430374146 l1.7076851427555084,0.403645895421505 1.735650897026062,-0.22961178794503212 l6.887910962104797,-2.726048231124878 0.87225042283535,0.003625711251515895 l0.8042828738689423,0.4170093312859535 0.4644450545310974,0.6725957244634628 l-0.147263053804636,0.7702990621328354 -3.4433358907699585,5.791934132575989 l-0.2953668497502804,1.0396913439035416 0.551307238638401,1.92008376121521 l2.751801311969757,3.74529629945755 0.5945391952991486,1.8853919208049774 l-0.883578360080719,1.2977556884288788 -7.61272132396698,5.966277718544006 m-3.0811962485313416,1.0294254124164581 l5.250140428543091,-0.7056502252817154 3.822467625141144,0.06756932009011507 l33.82837533950806,8.980568647384644 7.17659592628479,0.9873881936073303 l3.366164267063141,0.0019691124907694757 3.2858070731163025,-0.38563627749681473 " fill="none" stroke="black" stroke-width="1" /></svg>