<?xml version="1.0" encoding="utf-8" ?>
<svg baseProfile="full" height="109.49251701356843" version="1.1" width="105.38340546190739" xmlns="http://www.w3.org/2000/svg" xmlns:ev="http://www.w3.org/2001/xml-events" xmlns:xlink="http://www.w3.org/1999/xlink"><defs /><rect fill="white" height="109.49251701356843" width="105.38340546190739" x="0" y="0" /><path d="M25,25.00000332482159 m0.0,0.0 m25.508530139923096,8.067267537117004 l0.597040057182312,0.09716869331896305 2.808654308319092,-0.06210167892277241 l14.147282838821411,-2.382386326789856 3.124794661998749,0.028055747970938683 m-11.008802652359009,-5.748007297515869 l0.9894783794879913,1.4996139705181122 0.25083377957344055,1.4017610251903534 l0.09810157120227814,11.98870062828064 m-18.535953760147095,2.5291231274604797 l4.160120189189911,0.09195100516080856 27.68315553665161,-3.4592396020889282 l2.685140371322632,-0.16525521874427795 2.875030040740967,0.2670321427285671 m-26.71454906463623,4.576508700847626 l2.2146935760974884,2.753569185733795 1.127447634935379,2.515779733657837 m12.28431224822998,-7.899404168128967 l0.15422108583152294,1.324094533920288 -0.35753972828388214,0.9672391414642334 l-2.718328535556793,5.010004043579102 m-17.82429575920105,3.336581289768219 l3.1319797039031982,0.0840924121439457 17.44280695915222,-2.522023618221283 l5.232055187225342,-0.07769860327243805 m-24.98466968536377,10.778882503509521 l3.770076632499695,0.11207330971956253 13.061319589614868,-2.261139452457428 l3.979126214981079,-0.45564934611320496 2.543151080608368,0.025797069538384676 m-28.094069957733154,10.954059362411499 l4.133775234222412,0.10505402460694313 23.297221660614014,-2.9994848370552063 l5.310748219490051,-0.45026056468486786 2.9325100779533386,0.15638086944818497 m-19.083383083343506,-12.733204364776611 l0.7234619557857513,1.2245308607816696 0.18740897998213768,1.2351372838020325 l0.05605804268270731,22.211427688598633 m-34.61942672729492,-44.932990074157715 l2.552046775817871,1.3511237502098083 2.641688287258148,1.9067645072937012 l2.1028126776218414,1.982378214597702 0.8452650159597397,1.2484808266162872 m-10.505167245864868,19.652711153030396 l1.6504991054534912,0.37866707891225815 1.6775286197662354,-0.2173892967402935 l6.538016200065613,-3.720722496509552 0.74929378926754,-0.19519273191690445 l0.6760751456022263,0.24685638025403023 0.3436829149723053,0.6292014569044113 l-0.24822495877742767,0.9518425911664963 -3.4765180945396423,5.630994439125061 l-0.5404153093695641,1.3938917219638824 0.6141044199466705,0.9533822536468506 l4.02702659368515,3.486439883708954 0.21024705842137337,0.5717214569449425 l-0.22339817136526108,1.2235043942928314 -1.9243848323822021,2.2838065028190613 l-5.693606734275818,4.658280909061432 m-2.62766033411026,1.051064133644104 l6.432293653488159,-0.43407823890447617 5.679236054420471,0.33824071288108826 l10.230084657669067,1.7056699097156525 21.374716758728027,4.174960553646088 l9.536559581756592,1.0468728840351105 " fill="none" stroke="black" stroke-width="1" /></svg>