<?xml version="1.0" encoding="utf-8" ?>
<svg baseProfile="full" height="105.8679826695526" version="1.1" width="145.5473126998026" xmlns="http://www.w3.org/2000/svg" xmlns:ev="http://www.w3.org/2001/xml-events" xmlns:xlink="http://www.w3.org/1999/xlink"><defs /><rect fill="white" height="105.8679826695526" width="145.5473126998026" x="0" y="0" /><path d="M25,25 m0.0,0.0 m26.55312307168016,7.7306783299927995 l0.4337052700458043,0.3349643381694207 2.805996053667281,1.40555934888361 l2.6199176415268313,1.7313227556964832 2.075012219126884,1.816363932101253 l1.156866155919457,1.6049368634953305 m-11.614975213551576,5.829531312297814 l2.1771935429940625,0.6854197924437523 2.473881179787848,1.1064574077352618 l2.0245317111646335,1.1417567195371203 1.133873752585988,1.0212220954858922 m-9.416782478415456,19.532462804363153 l1.5497687577637635,0.4006224652256422 0.7794235308055133,-0.03804422867553692 l1.2187031483983275,-0.6600397550684004 4.731108026310282,-5.70048010291431 l3.6087244196661037,-5.432515559850791 m32.69952129315739,-24.172198608609456 l0.0033027245550137888,0.6832166621249117 -0.7833096831030517,0.6424240327562788 l-6.082517978574683,2.0583970919016337 -7.905327456773086,1.9005218841865603 l-8.86151377539656,1.6202239733773596 m-0.5252627110682936,2.9567206130707766 l0.17888133191517402,2.28912199465648 -0.9662400324163833,4.711762506703229 l-1.4042638595740253,4.348537673709256 -1.7450793646128921,3.541969572770041 m5.479563766474944,-13.483206405141638 l19.66589383836483,-2.0664568394727434 2.7478502816969663,-0.017783661142180072 l0.7835035968620125,0.24664629370728025 m-27.788439323956045,2.3690098806800406 l0.6754562057993676,0.7440039721764359 0.31710552736161096,0.934266429159854 l-0.1390961553384339,18.941743693239705 0.24052007056306493,1.13059825825235 l0.5381652197062096,0.5748685698824425 0.997518733939041,0.33304932384310965 l3.06472234571372,0.12593651186312868 20.74962367040276,-0.5668973374415903 l1.968278909293989,-0.5369842671438352 1.145912080487415,-0.8677059424410385 m1.519751918225522,-33.42240553740428 l0.4526029669099138,1.0508358279423182 -0.04211888049135093,1.037720117127341 l-0.027055336974602582,26.98501232443962 m-39.753945785948446,-25.06823032037176 l4.282515148527602,1.10039672758743 3.5013153570728304,1.534833818864954 l2.699921212789958,1.5886456175597847 1.504054479764412,0.9836152398324638 m-12.928804124360148,12.963808521108776 l1.8918554115668136,0.31651108577862697 1.9343168041119363,-0.19528568239205216 l8.060671712571407,-2.3566730929192508 0.8906693760265729,0.008480794012525718 l0.8288652133779763,0.3726001493439968 0.3997066479857486,0.5934811907548567 l-0.2358243464580203,0.6956589242886649 -4.419379121944006,5.0835361252211 l-0.3355908091095193,1.0113939190315606 0.5377842333361712,1.316065745875065 l2.9492320402727987,3.5477567444546962 0.3398416173048688,1.2507565327238928 l-0.931047002045108,1.0619706303173677 -8.542173573553788,4.953192934554866 m-3.342055551714996,0.9144802446912346 l5.964824229760938,-0.6041279316362111 4.15115236012074,0.0758137037702366 l39.43565140426829,7.570766957441156 7.950513991100013,0.5453669619667401 l7.445221062352068,-0.5573501240479833 " fill="none" stroke="black" stroke-width="1" /></svg>