<?xml version="1.0" encoding="utf-8" ?>
<svg baseProfile="full" height="102.37073418043138" version="1.1" width="97.70397268351914" xmlns="http://www.w3.org/2000/svg" xmlns:ev="http://www.w3.org/2001/xml-events" xmlns:xlink="http://www.w3.org/1999/xlink"><defs /><rect fill="white" height="102.37073418043138" width="97.70397268351914" x="0" y="0" /><path d="M26.19343917404183,25 m0.0,0.0 m18.34546629521046,5.701718408425161 l0.024030112116203414,0.33102060147626094 -0.20955124408500767,0.6280884000960419 l-1.033060763986436,1.1550286961579488 -3.253262012962118,2.4182056499484434 l-3.979240945796766,2.098881912442196 -4.658490207099216,1.8465566042350685 m-1.8127157061756922,-0.44137723972869247 l0.5874009368881833,0.9355682636336538 0.2549218480274357,1.3405235502329567 l-0.036480294637053,22.964879086128455 m0.2878349094713254,-16.70918626809162 l16.522653690026587,-2.404626904466282 2.2845005190768477,-0.015918354345514075 m-6.134238117795281,1.3349205662758181 l0.41248973172640535,1.9545809296585304 -0.08312607648138584,14.828468921043157 m-18.712571847566323,4.271638188746034 l0.8654243747032705,0.4863030034843059 0.9001857772674561,0.02457225323589566 l23.481027749658814,-6.119313728554232 m5.55373980277632,-24.88450220636914 l1.9164462019651252,0.22483083714449106 12.684160213208415,-2.1435812753571524 l0.7057941155209925,-0.012559347782969398 1.1213768504346289,0.4267589602766017 l0.4758175979841213,0.9068934560387807 -0.130627219612905,0.5403579093578763 l-7.52741329251495,11.693551706659816 m-0.2582509748424504,0.2734666522399708 l3.198409989844475,2.244502716259513 2.259761797613204,2.732445112243703 l1.4305524264691905,3.00206286046228 0.7332358688912586,4.117670661441877 l-0.10012168584180016,1.7397020069822504 -0.6939671059338827,1.9645544860321542 l-0.7428528149047806,1.0271946109644585 -0.9614620845504025,0.7199082969441717 l-1.1415990300579582,0.269283610594273 -1.3008237661246587,-0.2437492562727771 l-1.50103812405085,-0.8576547490254189 m-7.867889915492282,-28.33014363472869 l-0.13199780002416983,40.32920822629174 " fill="none" stroke="black" stroke-width="1" /></svg>