<?xml version="1.0" encoding="utf-8" ?>
<svg baseProfile="full" height="93.23479877721711" version="1.1" width="96.80308556956581" xmlns="http://www.w3.org/2000/svg" xmlns:ev="http://www.w3.org/2001/xml-events" xmlns:xlink="http://www.w3.org/1999/xlink"><defs /><rect fill="white" height="93.23479877721711" width="96.80308556956581" x="0" y="0" /><path d="M25,25 m0.0,0.0 m27.299105896316423,3.3676031949637584 l0.07597060451419377,0.45463588170405755 -0.3906286793071233,1.9009934007859963 l-1.1428023019923836,2.2885386424270138 -2.1168071621693807,3.15996852515915 l-2.5237555432374523,2.9220636954682426 m6.080752986505444,-6.3974347496373625 l1.693246947763223,0.06958638032698554 6.2780533098583895,-1.6753751318779897 l1.5500303505222726,-0.10656629181467124 0.3026025186528806,0.2719484677683219 l0.07436198951276617,0.5664424156893462 -0.4690276850318107,2.3421720278290907 l-1.0157171212550333,3.264017505546548 -1.1904695463013468,3.0412051598605676 l-2.899607877361922,2.9467582591922947 -4.059390640412379,2.672987625265715 l-2.2087734715669223,1.0435023179780751 -2.2521014933624417,0.6863095085681207 m5.070254520370463,-10.363507508923384 l1.0278822663810487,0.3410117410817654 2.0207273607840426,1.1138669291440224 l10.432260696292074,6.3123990811895 2.5612046491855622,1.0060289648648335 m-17.946628786135445,3.6209169646621397 l1.6449068620859193,0.18866852845951634 9.75541856793801,-1.4505814306244351 l1.231760750117222,0.12765454590609074 m-13.040973715916152,6.65445243442898 l0.7873154035763097,0.19063566010980026 1.2981053422492224,-0.05848920433452359 l9.365994295420387,-1.5618420757342302 1.1670704474751565,0.05504579559180257 m-15.229284894869457,7.574047041956275 l1.62114137100183,0.3023596747758278 13.892848863710414,-2.1045560691361023 l1.6519300816935578,-0.05564146026052742 1.177513295053001,0.24889388366102774 m-9.844629796004613,-15.70258745208035 l0.4535129335996115,0.8706481953092663 0.11123257207912998,0.9837060637603504 l-0.018307360324475632,22.122311638206202 m-20.327262237733372,-39.18017420865116 l1.4619362049996882,0.7607200128180298 1.669558277060386,1.337612171322598 l1.3429951585982174,1.3852201833909061 0.5404383737698976,0.8948892027165898 m-7.107543225847156,6.607349149746861 l3.2364985683202434,1.3253079488377653 1.5525484672176866,0.9546844362757558 l0.6336528539108035,0.5965264106585633 m-4.6965733067900555,7.853408319515558 l1.0027233386164414,0.26146629344414574 1.0293574578597187,-0.1591255310964407 l3.8604866536358395,-1.8574671681483328 0.5130447349271811,-0.006364599733599264 l0.46345088254307415,0.2721448007992965 0.2789804243439457,0.4457863635721668 l-0.07384293744849263,0.5167696611689615 -2.3240451146584755,4.268236140106719 l-0.18396893633313802,0.9088924491818652 0.2835286235507116,1.0558633903051684 l1.6944589063873532,2.664210322348211 0.2160972258194633,0.9574627828374482 l-0.551268724600128,0.8715535499392848 -4.7684873153321,3.950179715958803 m-1.5869081191415613,0.7200930284034013 l3.6344624627696085,-0.5401799436275561 2.591985597657796,0.10972308310419561 l18.822902366597607,1.6698261021880114 6.862832311360499,0.13511184461713827 l4.454747790093911,-0.2887009488620951 " fill="none" stroke="black" stroke-width="1" /></svg>