<?xml version="1.0" encoding="utf-8" ?>
<svg baseProfile="full" height="107.87365159755495" version="1.1" width="102.18634261099602" xmlns="http://www.w3.org/2000/svg" xmlns:ev="http://www.w3.org/2001/xml-events" xmlns:xlink="http://www.w3.org/1999/xlink"><defs /><rect fill="white" height="107.87365159755495" width="102.18634261099602" x="0" y="0" /><path d="M25,25 m0.0,0.0 m28.154886743036737,17.06174185819039 l0.4119287341503791,0.08796231649335111 2.6550906109825725,-0.09298316098951628 l15.793189911672837,-1.8432874329679498 1.9754574264180258,0.136449754552093 m-11.47109979205011,8.586139812358919 l-0.01811734682159776,0.11937020810523297 -2.2250262874809694,1.0207917127460822 l-3.520758574540144,1.2546491825903032 -4.155532710627674,1.3167258147213863 l-5.430020930143971,1.7126434628109706 m-1.4696295029605324,4.100628101314288 l2.314130136576549,0.26774267556119846 15.515569138102947,-1.8553770507931981 l5.841763374332971,-0.26868061025202916 2.0682382106886825,0.14767258839409061 m-13.397016881698963,-4.862471032114065 l0.5413317208164283,0.8648205292630148 0.14959249174155956,0.8812522970625827 l-0.01838312046752755,16.489909157605524 m-1.386714553516248,-12.295906158896825 l-0.18838426337617822,1.1804667339831916 -0.9966722987688033,1.857624803120227 l-3.6313971683967297,4.641636605227739 -3.8401012232812723,3.395124184866132 l-4.25841286491184,2.7260306161898393 m15.029937988547477,-13.243458596685782 l11.385347697087361,7.8781484452029344 4.070846267801771,2.3449433038797074 l2.2862996780822926,0.8917764572604288 m-39.582403285004084,-29.15267003711292 l1.7348780561179362,1.012639760827379 1.710203680608668,1.4999539635116537 l1.3340568286928047,1.5313271276154101 0.5357589811275786,0.9812871793952577 m-9.517969734498585,11.342449259299222 l1.2282504520583097,0.2614341570033162 0.9179080827445305,-0.11776088886145776 l6.259378948752355,-2.197256083488282 0.4917055331457054,0.256661381596654 l0.1722737819759576,0.5149003819820421 -0.19958061636966828,0.6683058866293758 l-2.4763141895699636,4.331284629270862 -0.3825313852214939,1.1571659833689734 l0.5273694373067904,0.8212234011755488 2.8464251311853492,3.0428066810113688 l-0.2837723003686407,0.8558466718843716 -5.469130130190477,4.905838262166533 m-2.4665762201631978,0.8991122031003298 l4.68321164507574,-0.3800188755300904 3.936725814719688,0.29151598014022717 l7.910909392309358,5.358330832842829 10.92639174872105,5.018043386069706 l3.20071466262973,0.46914377485638187 3.535103037113184,-0.018026130841445994 " fill="none" stroke="black" stroke-width="1" /></svg>