<?xml version="1.0" encoding="utf-8" ?>
<svg baseProfile="full" height="113.08025808860285" version="1.1" width="102.05041507520353" xmlns="http://www.w3.org/2000/svg" xmlns:ev="http://www.w3.org/2001/xml-events" xmlns:xlink="http://www.w3.org/1999/xlink"><defs /><rect fill="white" height="113.08025808860285" width="102.05041507520353" x="0" y="0" /><path d="M25,25 m0.0,0.0 m27.214697897048627,15.128563122609378 l0.38269344125680205,0.08823175127063072 2.4550900239462434,0.04963912838659759 l11.467986368980489,-2.015255319830623 2.317816369397272,0.09824675242943673 m-8.86461328471446,-6.15673248644404 l0.6730669764365907,1.1980327181120891 0.16846246036243462,1.1243651971078517 l0.030014550418476182,11.405164232975917 m-13.966012557706648,2.0845259382686763 l3.15258563303231,0.08655562427068583 20.832838939503862,-2.652495059299961 l3.201239439257366,-0.1760416615728401 2.6060824793381343,0.25074089610072237 m-22.378150363434596,3.884117730102039 l1.7292225341784098,2.651026328745009 0.9357517992153715,2.506152750588458 m10.565433685118839,-7.104672619551826 l0.038140534998671705,1.212821780190541 -0.3256054103245262,0.7899194018008001 l-2.176064110463787,4.2958053895143555 m-15.262518641684268,3.00310861029083 l2.6824355927372667,0.1045581293989626 15.121216070939033,-2.1320834329220886 l4.440843883141971,-0.0710962334683437 m-20.997195116670035,9.74765124335409 l2.963698103376653,0.13338879469933929 11.238506490471453,-1.9314120888039616 l3.388129469762925,-0.3742191595423817 2.025584886657229,0.05999808672259008 m-23.221451384822103,9.668769995424439 l3.311304628685786,0.1352925022758326 19.405997260382705,-2.5068526875858765 l4.472366236666581,-0.3700993330239031 2.4208201897124497,0.1711299207251729 m-15.646048062962485,-11.665247080598517 l0.5817445864174347,1.0594055998386056 0.15896373647572296,1.1365133381084653 l0.046846686211807806,20.378699765791954 m-28.016804119753854,-40.86773903497347 l2.0116815335606715,1.2233040829270725 2.093220345087864,1.731778513782877 l1.6766116040657166,1.7925975565388086 0.9365073298628787,1.1121288324711043 m-8.663331371485686,18.36795441594246 l1.3845829852434461,0.3346903152643816 1.3520032295375688,-0.17076953938109296 l5.533424336787605,-3.1259353929476323 0.5835876400005147,0.18676261228915775 l0.2681736464263994,0.4827645246062953 -0.1325894424468331,0.7509251757327262 l-2.76012834569903,5.604869949741144 -0.41912412118086273,1.2334245793200709 l0.41498948567159594,0.92359305447911 3.082237432991726,3.690710165594125 l0.25352887203146657,1.0091722760930903 -0.7040151950622655,1.0993403494600107 l-5.999904554550463,4.823716893582854 m-2.3206679737576343,0.9574826126025278 l5.223868746761658,-0.2669710113045538 5.099740027814856,0.40593922530643756 l8.11314919156736,1.6940779086897724 16.285813099988975,3.714265249782068 l4.929982432693688,1.0759572065443896 " fill="none" stroke="black" stroke-width="1" /></svg>