<?xml version="1.0" encoding="utf-8" ?>
<svg baseProfile="full" height="93.99097014330383" version="1.1" width="124.56495829400406" xmlns="http://www.w3.org/2000/svg" xmlns:ev="http://www.w3.org/2001/xml-events" xmlns:xlink="http://www.w3.org/1999/xlink"><defs /><rect fill="white" height="93.99097014330383" width="124.56495829400406" x="0" y="0" /><path d="M25,25 m0.0,0.0 m27.346861774725756,7.789396294340236 l0.5119914673004482,0.3397056308909129 3.0677325275575407,1.483814937666304 l2.89874735130721,1.6408194071739872 2.2065185555717997,1.688806712185675 l1.2800068282086785,1.5616537501794474 m-13.645739288949095,5.536064912136448 l2.2992800228999957,0.6958558559157663 2.753731485456857,1.129437870878914 l2.2135826873351983,1.1386463281505614 1.2067909041857579,0.9873232319139206 m-9.493637889349639,19.620338950879503 l1.6724271821506087,0.3791062609921525 0.7986868680372828,-0.03682533152510253 l1.336172367425508,-0.6740589010538948 5.359072946466382,-8.1440583069852 l3.8217502410688518,-5.587334279579621 m5.921834408877453,-23.5197387803771 l0.7307406321775147,1.5926429552339942 0.304348516975045,14.565190096765727 m0.26441526755996303,-15.749641266914693 l19.01688860455696,-1.5158675781972808 1.569242509085201,0.15062391631584177 l0.5666913295553329,0.3953992481395117 0.28267404670995505,0.913709243160181 l-0.6744335432397432,16.75176563178418 m-21.191121582106124,-11.03330482802837 l14.071518275110444,-1.0645796495902293 m-13.710856784162539,7.056950124492672 l13.769012752476964,-0.8851055904486202 m-13.603240434995254,7.065283993471591 l20.66400578461313,-1.012871858871579 m-15.492725186618813,3.5028824175340447 l-0.0019978683743194915,1.3742596710512849 -0.6985877551528186,1.3175191576502476 l-1.8610861771656644,2.244712440612181 -2.649865749574504,2.515181903452636 l-5.15272222973371,3.820583696212696 -6.33234201696449,3.4186053392270224 m24.0590840209889,-16.121749226755412 l0.636244533157797,0.690961244018817 0.25141597423828593,1.006717559570306 l0.011098087454090204,11.339332320094412 0.4786235897290923,1.5804297697865326 l0.7782957548994146,0.80888839684167 1.9558835645107444,0.6459034025649009 l3.1590429459693037,0.2768433917969764 5.410643799221711,-0.01652695148472305 l4.488695034535314,-0.3779054958884479 1.5518523060361484,-1.0219452382371428 l0.2979039477561195,-0.9300143889305569 0.059805904498005255,-2.052996461378278 " fill="none" stroke="black" stroke-width="1" /></svg>