<?xml version="1.0" encoding="utf-8" ?>
<svg baseProfile="full" height="89.8215513851478" version="1.1" width="106.60738026263192" xmlns="http://www.w3.org/2000/svg" xmlns:ev="http://www.w3.org/2001/xml-events" xmlns:xlink="http://www.w3.org/1999/xlink"><defs /><rect fill="white" height="89.8215513851478" width="106.60738026263192" x="0" y="0" /><path d="M25,25 m0.0,0.0 m33.025686836142256,4.580036592463168 l0.03449265201087026,0.4246857405297444 -0.5893172742776781,0.905167703600272 l-2.41825356748204,1.2906731924510801 -7.050558357275867,4.627075360383274 l-0.6422269110491227,2.886714433323704 19.527962777795572,-1.0728287940344212 l6.437047778838611,0.05235385055610522 3.34888030480675,0.5000828142565922 l2.5661090415225516,0.6712005319328213 2.2190398472743134,0.5112743755087205 m-28.002475928792823,-9.936158258100184 l0.4153238859567257,1.1141755541644456 0.03639156104310698,3.334795101446811 l-0.19513645927199202,2.831564481691855 -0.7553014829755123,3.3260473986475696 l-1.104016582910875,2.522060692865751 -1.3559472171282339,1.9759156005588914 l-1.6740287373948082,1.7743554235195051 -1.980943656685159,1.5375342116960093 m6.2910473455674785,-19.448677167364746 l17.279817400041523,-1.0826303884574393 1.2054320499690392,0.3419838769744087 l0.3406073089176161,0.6684746100137408 -0.3280387593309701,18.24281682795122 l-0.31624638661857557,0.4560509419871081 -0.514977057048888,0.19815687098173168 l-0.6693456028710966,-0.10073991701125239 -2.56077656712989,-1.6636889362103024 m-14.736317543000515,-11.618952306865694 l11.13166455138634,-1.0088352673821464 m-11.755100041339777,5.86709704054481 l11.3055712049914,-0.7384663913787674 m-32.69616791713586,10.707544480710594 l3.0263912022502275,0.290005731525347 40.26547482300094,-2.303229524315678 l5.0140451936240105,-0.1234534365696244 2.4815705472122502,0.23420403759121108 m-25.530992664524526,-3.9463736666238374 l1.0068574805818664,0.7320939904731305 0.3678986095998978,0.8439199684269324 l-0.14550330240640094,17.989122382551404 -0.37989686849427867,1.1345492363990224 l-0.6297121910520672,0.29385238373490646 -0.7523196009502898,-0.28673521601823154 l-1.906609567999319,-1.7961100467809565 m3.0163839107149495,-13.964037304702748 l-2.1506068576155655,2.1252461876473583 -2.48759095351687,1.9875850184813575 l-5.8376504812079215,3.8042046796154128 -6.164074151499702,2.9442501699725447 l-6.1023410826850855,1.8250974308287515 m23.97800829847237,-12.407732491086154 l19.120929413854522,10.335198292045709 1.7803961756240385,0.7947785148674015 l2.0687691253984033,0.44083684139508406 " fill="none" stroke="black" stroke-width="1" /></svg>