<?xml version="1.0" encoding="utf-8" ?>
<svg baseProfile="full" height="111.29517237734137" version="1.1" width="101.90619576450402" xmlns="http://www.w3.org/2000/svg" xmlns:ev="http://www.w3.org/2001/xml-events" xmlns:xlink="http://www.w3.org/1999/xlink"><defs /><rect fill="white" height="111.29517237734137" width="101.90619576450402" x="0" y="0" /><path d="M25,25 m0.0,0.0 m15.701014054160986,11.431518820997347 l0.4562036430096917,0.12585617675033114 1.926444496400738,0.10742915013852057 l26.11786582787572,-2.556835421301141 4.714976595523937,-0.1970628950915052 l2.365440445204724,0.2989152896316352 m-27.88380603216785,-3.803871192209068 l0.926514461337089,1.3368599402487162 1.1918377825896753,8.737963798544573 m14.248999913518025,-11.766553451947633 l0.2810200641951201,0.8826031744452983 -0.011462627397692094,1.0484929767315965 l-1.7801541891768813,8.45328794259672 m-5.493564631507051,6.636134063986539 l10.200468758683044,2.2347067829613665 2.135595196481209,0.4989369542952134 m-19.241215760032365,-7.010400500391494 l0.8302360726014726,0.8098245372981902 0.3409365785634763,0.9183826111510821 l-0.07022991139547341,12.162314421329041 m-11.186617821455863,-0.08731839146477419 l2.749297106792246,0.7962855199631187 23.74100510153915,-2.040472186187484 l7.21497327375898,-0.154387428856567 2.4304173654019077,0.29478775364790366 m-20.160064946995195,7.48353345571706 l4.497804274933244,1.1302737412775168 6.730815742541723,0.7085184709920844 l1.03299430467064,0.37639408878753655 0.5204833861714255,0.982230488258682 l-0.39750138857891626,3.053687735816296 -1.828427057351328,5.47061196386017 l-2.3351101422070624,5.23560201732959 -2.0121723331442234,4.433958228159664 l-0.6365546301587194,1.7406763543934252 -1.7096794586130475,1.5222873854818169 l-0.9048114840916721,-0.8644680199505331 -1.0266344097407338,-1.9816302282499711 m-2.052101922245448,-24.239750579367673 l-0.010146617517143445,2.05899412388166 -1.192398635378687,3.4955472520762854 l-1.9575561240052979,4.42344160156384 -2.3268465788535417,4.178937070940296 l-2.2977863570761965,3.2925256691239615 -2.6708368190143537,3.0189860180569665 l-3.0934488752727094,2.696402346299728 -2.6007019780023293,1.7017386233895395 " fill="none" stroke="black" stroke-width="1" /></svg>