<?xml version="1.0" encoding="utf-8" ?>
<svg baseProfile="full" height="115.73402687564388" version="1.1" width="102.44548180683334" xmlns="http://www.w3.org/2000/svg" xmlns:ev="http://www.w3.org/2001/xml-events" xmlns:xlink="http://www.w3.org/1999/xlink"><defs /><rect fill="white" height="115.73402687564388" width="102.44548180683334" x="0" y="0" /><path d="M25,25 m0.0,0.0 m14.303158895780248,9.951539750143374 l0.47603927224858406,0.13743082509961105 1.8421238591506808,0.06844325010871541 l28.51981241362355,-2.586995171137908 4.800609375013602,-0.18868648268002378 l2.5037379910166773,0.2826022447814779 m-28.958516530264788,-3.936320382437921 l1.0040191403324512,1.3572706662102467 1.3780925794162717,8.843711205037673 m14.9673393641653,-12.076810097552004 l0.3431326032749313,0.8966406677566888 0.018737894141687292,1.0633408657762848 l-1.8483280450190727,8.650204169060663 m-7.182651382795955,6.727076086816517 l11.606671971450943,-1.148157361726786 3.5031335124077865,0.21824599490645177 m-16.405342770395098,-4.450482009115693 l0.7365582644419943,0.7432139435265336 0.32319292448603365,1.0001592815353493 l0.0100656872365943,9.608489108476475 m-11.674603007275746,0.19962993834420795 l0.48092182547585244,0.8986931715217102 0.1000101759577797,1.0773475998607804 l-0.137860545803557,9.37227548937804 m-8.292964778023853,0.409004395627865 l1.7768046611179995,0.3733762362362286 1.8040649197238015,-0.05357510094692435 l32.851021754188366,-2.662923080243942 1.9993794123441273,0.3646296826518422 m-19.15743911043506,2.738378362593302 l0.5956860944293373,0.8215626815739441 0.20305551451689505,1.660645078975261 l-0.2723297326100321,10.505007797084037 -0.2882206091583974,0.7700260712575703 l-0.4266761899611003,0.19114207104576456 -0.5247772816637678,-0.19617817120641523 l-2.3992929603877498,-1.7535117495151638 m-6.205689039839631,-7.847339701848277 l-0.10277630925897364,1.0780275397835422 -0.34872368716577024,0.7049409860367726 l-2.057232362817519,2.6907332892175444 -3.171296460677787,3.02863319057095 l-3.300069251054108,2.3607595047198235 m31.030973739544354,-11.710923900181735 l2.486583431991448,1.688425088118615 2.403294608908002,2.2785706219740183 l1.893089618313249,2.3427492801565144 0.9150745822225183,1.9214526581920621 m-8.308830865062678,-3.7846094462800517 l0.06813609681738807,0.9598986780567866 -0.28414023738434,1.0601419701632286 l-1.7801409972377513,2.457457351883238 -3.42021533239224,3.4753666256117524 l-4.32318968414995,3.4793133829437584 -4.2565415939557365,2.831037349340946 l-4.7434390749193165,2.6527312661036984 -5.141247562053489,2.3251981350074122 l-5.066859326024962,1.8650159772494148 " fill="none" stroke="black" stroke-width="1" /></svg>