<?xml version="1.0" encoding="utf-8" ?>
<svg baseProfile="full" height="92.09267455213234" version="1.1" width="96.49080089160391" xmlns="http://www.w3.org/2000/svg" xmlns:ev="http://www.w3.org/2001/xml-events" xmlns:xlink="http://www.w3.org/1999/xlink"><defs /><rect fill="white" height="92.09267455213234" width="96.49080089160391" x="0" y="0" /><path d="M25,25 m0.0,0.0 m7.218953637061216,11.69833096447571 l0.43728273904889925,0.18046632786118116 2.1257134761982623,0.09997759481689329 l13.015788146351964,-1.8910632134995553 1.3815248318190168,0.17440178197464615 l0.49974016499365836,0.8044798849185752 0.037875511196638845,2.1734391273542286 l-0.9196191486094709,7.675671032732479 -0.9815188548785034,6.049573357173659 l-1.2659696501936468,5.44413450693115 -1.4665708438433345,4.564958063153208 l-1.1319561057882017,2.0487132381724797 -0.6827299026385523,0.6319354347384617 l-1.181644760057994,0.10600336419084325 -1.103879249494267,-0.968599492661097 l-1.05563138509062,-1.8800335540041546 m0.7185859989106633,-22.32645271983995 l0.08735736192896804,1.9887273779760952 -0.8690898654962449,3.884901514366561 l-1.2699851080119602,4.0302603106157875 -1.733694038764725,4.140972851188967 l-1.7067339996218136,3.23210712227593 -2.0443934474894685,3.1050154909795826 l-2.4438571222727226,2.9090129215675997 -2.041508041750982,1.9978429660054065 m24.95999794557231,-20.929294592519778 l0.772356273155082,0.9443602104868806 0.3665737869142757,1.5894291305092223 l1.8878756480863759,20.263709996885243 m-1.6138648953911643,-21.568739904541467 l13.10690765162,-1.7477388219546575 2.048420694435687,0.03149651325076283 l0.8924679393457191,0.5261481130223077 0.44602550435885074,1.0678876982866248 l-0.03475772612898,1.3393594716594275 -2.224891316703911,19.26755437389461 m-11.151432393270133,1.433726109688473 l12.141865817142971,-0.9833963791099706 " fill="none" stroke="black" stroke-width="1" /></svg>