<?xml version="1.0" encoding="utf-8" ?>
<svg baseProfile="full" height="98.40614171747035" version="1.1" width="118.50512888941839" xmlns="http://www.w3.org/2000/svg" xmlns:ev="http://www.w3.org/2001/xml-events" xmlns:xlink="http://www.w3.org/1999/xlink"><defs /><rect fill="white" height="98.40614171747035" width="118.50512888941839" x="0" y="0" /><path d="M28.99650374372017,25 m0.0,0.0 m12.341732816310095,6.6545205083051835 l0.027457516103298663,0.4609841393491425 -0.43357879033564184,1.3584776738811628 l-1.2092375579859012,1.9336293426798294 -4.403510444499293,4.294201656782533 l-5.097003337564225,4.225152514946249 -5.222363945748501,3.20029680301383 m17.918140587416236,-13.193636787145527 l2.5752756521335862,1.136431668179021 2.4595148623198813,1.482794403469407 l2.123867536197438,1.5971281176620307 1.6773822689085194,1.8762491764876388 m-19.187015322070494,5.060143996339425 l2.9239109942608263,-0.04788900746403941 9.601113766509076,-1.082741761809134 l4.260387600967892,-0.18168991648322047 m-20.915506347782195,9.023144613253038 l2.6867588474204034,0.1782481343136622 16.345158181914208,-1.7043808834793235 l5.9810899376358755,-0.06776571717440424 m-12.106889290549448,-5.4736331020938165 l0.5587932438066825,0.4114990575138059 0.3928347655777233,0.9628890255786843 l0.26902874810898914,20.81851941520962 m-11.28119178317713,-9.499603982565215 l3.0063541137405037,3.423254077701693 1.997586645693094,3.7636443778944826 m15.408737539619489,-10.641634497237561 l0.24428970934179445,1.4293774665669703 -0.23114900858856235,1.007703435793306 l-3.9509788085388386,5.784273775298254 m-17.719795525543066,8.424218715023741 l1.2536083295831753,0.3253199876879616 2.3841172611488632,-0.2199659554238892 l18.600362630915356,-5.6724375095581845 m6.524295614112748,-35.251188910918025 l0.6534084994022571,0.1985272204790367 0.8928690840929118,1.3517843019839577 l1.455791550269693,6.4028575793666285 m-1.3694669824652685,-7.279209166312871 l10.19641762142666,-1.0400350167291694 22.160662926026635,-0.18814809187166318 l0.7153634395828691,0.7202730068907016 -0.042212153857883926,0.582112356801564 l-2.5916170180488978,6.4267027324118935 m-21.167057737811955,-6.192277123280912 l0.571119657996463,6.203711325423138 0.34865104549752424,4.693535298260968 m11.278957196076323,-8.778172581611958 l0.05498349660300391,1.8457341952291157 -1.1118055299402967,2.1261153558444863 m-18.045837850002695,1.5755479466236533 l26.373805579810927,-1.5604432343542334 m-25.308553423237313,6.175662071526444 l2.387611859513356,0.13508996757104635 17.09147597157095,-1.1472998980732392 l4.047513497227755,0.05549295693185627 m-13.49188011782391,-2.9844840407486926 l0.6001889111945685,1.3027900771812209 -0.06388250621725577,6.955023615898398 m-15.681736035914655,1.0814544879747268 l2.7164717677172865,0.23350395868080354 24.1496197111908,-1.650820907747644 l3.789013881222351,-0.20166788541137073 2.0078703802304836,0.182562134431343 m-26.66200596167477,2.737819638441936 l2.1835769240279803,2.3501626920656644 1.2703504372594394,2.2952169960958666 m13.813671956923638,-5.801559822202771 l-0.18929212933950768,1.009561297607248 -0.8745214073358838,1.7942199678780815 l-2.3708091233580206,2.8062391313416235 m-19.831098671210164,1.994904732780129 l2.856384603111725,0.18236964346005796 25.56058023985758,-1.722732890111432 l3.222809612821751,0.27846026693462556 m-32.38341445960925,7.4714699959026225 l3.5112759017292126,0.260512563969052 21.15232563963019,-1.357390696747831 l5.387348599076487,-0.11828002980476193 2.9344092347531285,0.2542869625931328 m-18.43521515882985,-5.299916629573391 l0.692883270541887,1.6923250757337451 -0.0838041722233106,14.557016126159178 " fill="none" stroke="black" stroke-width="1" /></svg>