<?xml version="1.0" encoding="utf-8" ?>
<svg baseProfile="full" height="98.90498473057703" version="1.1" width="99.56909384152934" xmlns="http://www.w3.org/2000/svg" xmlns:ev="http://www.w3.org/2001/xml-events" xmlns:xlink="http://www.w3.org/1999/xlink"><defs /><rect fill="white" height="98.90498473057703" width="99.56909384152934" x="0" y="0" /><path d="M25,25 m0.0,0.0 m28.82782791340168,14.741848686268714 l0.4739910335330492,0.1563170785603193 1.6961891053948546,0.10532655557358593 l14.428374763215981,-2.064620021194317 2.7279048930695637,-0.2024920635292413 l1.4148061329142108,0.18203265001307678 m-11.39367202395866,9.001415283750774 l-0.0877091140324418,0.9879691918113546 -1.4753523363920855,2.0701530404045188 l-2.951962454572644,2.7507811909022717 -3.8497393164179887,2.475472418113383 m-0.9140107860910709,-7.648861172241849 l0.4455343291624664,0.8143259877289358 0.2206406898426302,1.1145327257028603 l0.020403757017760284,14.779983021204588 0.2187048279944344,0.9070073830694275 l0.39118527126593255,0.4183491169347701 0.47559619609501513,0.10465191806612134 l0.5638346251173679,-0.17726848934873266 6.073976164695744,-5.866132699567108 m6.241146854085331,-11.682821256065901 l0.08851083619986086,0.9086822468610811 -0.45276647496933414,1.102674517683496 l-3.4321240919142415,4.366546861444627 m-1.6099121957365918,-2.0571646895917794 l2.737690092021468,2.467356126151878 2.890078355498411,2.6476609279492633 l2.804955244887155,2.7759717774759296 2.325187973757387,2.334954077894421 m-34.62432951810993,-32.084857276926776 l1.551043148359328,1.0566222119951074 1.628296157936936,1.542484618696303 l1.2652730598126332,1.5789503543678685 0.5050023154476188,0.9905298560656212 m-9.064780167434856,11.627435575017712 l1.0574143674060117,0.2770817156223302 0.8216529124107782,-0.0995336596418846 l6.276419581937962,-2.293382756486975 0.46557583509843325,0.2604513819782912 l0.12448130769342036,0.5805565874562506 -0.2595313011850862,0.7698190407493031 l-2.565840369462291,4.39589838738087 -0.35497849763753425,1.0822626805077646 l0.43977107285842487,0.9103427056027786 2.7107385617658863,3.073824735686724 l-0.1027687493126263,0.9166193639008531 -6.074925035900228,5.2342731480325195 m-2.255952927326803,0.9203250196904816 l3.5964988564384353,-0.420639756058165 4.522354558103951,0.09094680356834337 l6.886394712184856,4.810884242346563 11.590759271187878,5.517931959318535 l3.2484425153620067,0.6515053996801482 " fill="none" stroke="black" stroke-width="1" /></svg>