<?xml version="1.0" encoding="utf-8" ?>
<svg baseProfile="full" height="108.74440255980934" version="1.1" width="109.6772549435301" xmlns="http://www.w3.org/2000/svg" xmlns:ev="http://www.w3.org/2001/xml-events" xmlns:xlink="http://www.w3.org/1999/xlink"><defs /><rect fill="white" height="108.74440255980934" width="109.6772549435301" x="0" y="0" /><path d="M25,25 m0.0,0.0 m25.949361451415072,12.739095011125176 l0.5222862761434524,0.12023895166954401 3.0173850757427534,0.054388995350849734 l19.105068045042707,-1.9130306222961617 2.4312852617070058,0.1609721582815101 m-24.2855859053789,8.740583227224873 l0.6964184604036611,0.634803376986429 0.72147346279329,1.686603634770726 l1.9390269095085135,7.26348846143377 m-1.8400263426515107,-8.7133404562297 l17.20258679135844,-1.9353256616131171 3.013363396543734,-0.0937307490621941 l0.9197486427108479,1.3443092790562328 -2.3507490009164806,6.049609879799531 m-16.680585704059684,1.9650823650525246 l18.30036465844116,-1.6569678104963244 m-22.72642075327708,7.677587833914742 l0.6250564534827355,1.4694395579650548 2.0634807192974005,14.227527818084926 m-1.6879602315162645,-14.814400411177738 l23.460331184645863,-2.237855648889141 1.4156353054132478,0.20680023403960704 l0.9435863164035266,0.7382620328517081 0.24922750455609854,1.8275357345598802 l-2.6859490022575083,6.944428155959057 -2.3389032862017354,5.641328992934556 m-11.541915374641937,-12.832490219889628 l0.497880258287987,0.45431267907631484 0.28002211051094594,0.9796092531086528 l0.09493769205659179,11.36448401943437 m-11.018150433168856,-6.209555369235565 l23.33678347402279,-1.7140019475942518 m-22.797674692921994,9.250238206433052 l21.50288222717473,-1.4952615521166062 m-38.834622403195155,-33.54706799912812 l2.0605099838792973,1.1415871458685578 2.158453950677566,1.6255615656453837 l1.7293941326476208,1.6696763461938964 0.6930153314403256,1.0433019262915362 m-10.728441911896077,14.53489079451573 l1.4756400218811085,0.3626731111091773 1.4817775358100926,-0.20077752935241602 l7.400485805992149,-2.7465147883408716 0.7242118337119794,0.002935928998795258 l0.677542950085644,0.3582307174625718 0.4034759099226708,0.588139316693964 l-0.15420207699366856,0.6713392237691563 -3.349701676977695,5.151060612819825 l-0.2524025211088228,0.8816366943191218 0.5083900725041616,1.5980888220604772 l2.753050393085159,3.2726137752766338 0.2359455320022765,1.4020128867180737 l-0.7187404213861346,0.8063771852448132 -2.724657924584635,2.1276173689529942 l-4.197052655251123,2.888430920411085 m-2.929861452711857,0.9160627535099225 l4.778384453201038,-0.4563701226534992 3.452827187938814,0.05293958963417065 l31.605445744376848,6.157080726036345 6.978367495863128,0.5181061772393475 l6.115748701944803,-0.44041923673400524 " fill="none" stroke="black" stroke-width="1" /></svg>