<?xml version="1.0" encoding="utf-8" ?>
<svg baseProfile="full" height="87.66815349104519" version="1.1" width="109.24645242806827" xmlns="http://www.w3.org/2000/svg" xmlns:ev="http://www.w3.org/2001/xml-events" xmlns:xlink="http://www.w3.org/1999/xlink"><defs /><rect fill="white" height="87.66815349104519" width="109.24645242806827" x="0" y="0" /><path d="M25,27.853289365549937 m0.0,0.0 m22.74797575346179,13.251745838534072 l0.43092699130414086,0.10806430182722115 2.812278692677027,-0.020308906171348264 l16.456063429623544,-2.03435220594506 3.1151991449180625,-0.19977271930103055 m-12.139546917724292,9.424392302813702 l2.098159467590855,0.487858503075634 6.27059810277163,-1.2087198691421863 l3.432255113545141,-0.059693015071756776 m-18.24668660146958,-6.870037307297992 l0.585714320324035,1.2489561029000646 0.16294787722805004,12.675068866436249 l0.4237145023925239,0.6399692936665328 0.8967096744480104,0.029308314400814616 l12.270264806046999,-1.813657302040951 4.983619949149778,-0.32690788444041635 m1.7935914187178483,-16.064788120284383 l0.5291481216633146,0.83316062543049 0.1585309165459816,1.0059681564168281 l-0.8046718413724988,13.362366093930222 m-27.947841843536168,-27.321910435286643 l1.4648165714472383,0.8444852664788051 1.8025928174240948,1.4051425699174331 l1.3279484485589093,1.413729487041372 0.5897904522894722,0.9496203085537184 m-9.481967418864418,12.178634624628577 l1.2671927067059887,0.2883140825255473 0.9112004644065571,-0.11125857504844867 l5.615419673822682,-2.22844313623892 0.6494123948207214,-0.005462311730240243 l0.6290664403725484,0.32196260792585085 0.3142797871509581,0.532960461854096 l-0.15100203073922808,0.5922418243068196 -2.6144512985340116,4.495487736196024 l-0.2810894085900852,0.8948042246505641 0.27582203924569976,1.0739471698832752 l2.554813257957167,3.3418406783844254 -0.3280716483168136,1.184874496516762 l-2.5029060374557477,1.8612626874307452 -3.1216746111067732,2.3042965504218658 m-2.2724112600959367,0.9356340187861023 l3.7393433738825843,-0.4770032044636748 2.68561665218301,0.033913900157633355 l25.906544307241365,5.384837646297884 5.312393899680809,0.4523303765689641 l4.924821776275293,-0.4117500057855869 " fill="none" stroke="black" stroke-width="1" /></svg>