<?xml version="1.0" encoding="utf-8" ?>
<svg baseProfile="full" height="110.93145625022129" version="1.1" width="109.221131349681" xmlns="http://www.w3.org/2000/svg" xmlns:ev="http://www.w3.org/2001/xml-events" xmlns:xlink="http://www.w3.org/1999/xlink"><defs /><rect fill="white" height="110.93145625022129" width="109.221131349681" x="0" y="0" /><path d="M34.50362202747436,31.220927706208307 m0.0,0.0 m23.634607931996506,15.583197518227454 l0.41554756646628704,0.08923168723302576 2.6328277528304054,0.061815148533004016 l18.408372351092204,-2.3038268982084644 3.1850064092749877,-0.19122174230614902 l1.4411473105462316,0.18666743507929642 m-24.952153767982956,12.709777614416577 l0.5636463105899714,1.4426786733438928 2.401580962895923,8.061185465456985 m-2.199507892329628,-9.811798091280695 l16.631419571916453,-2.1645836521689983 2.8158836966835197,-0.17191752078417794 l0.6083404935633914,0.623622111317983 0.20387786900520655,0.7182365860743839 l-1.6128307873545813,6.46176571726073 m-16.196373732240293,2.711558007732128 l17.17338701717059,-2.1211079056422677 m-10.490482662452303,-27.263626695143735 l0.5709047852812119,1.064418545178094 0.20760286965206232,1.6824691035325303 l-0.0357549013199244,44.9200379886498 m-21.400088706875557,-37.97206653185446 l1.2277431398532188,2.864649378035638 1.0729981511602542,3.448271744998863 m-7.683262751849133,-7.534361649042944 l0.7779239536718197,1.6363587843865017 0.08175639460245987,1.8206916839958303 l-0.03536554517026624,10.243281198953188 -0.27740177564760843,6.276357310332173 m-7.128554505797743,0.5379988748534599 l1.2852819458645528,0.3330752716622253 1.5824648757951267,-0.04646001283954874 l9.12376743909198,-2.2962967370907164 11.435585857790048,-1.1154098745220815 l2.405880921127451,0.4038641026008636 m-33.84593425604135,-37.1094603471787 l1.6536773829427571,1.3487819058561923 1.86629861547497,1.9478361151791548 l1.5560613895607773,2.126774400793668 0.8626767786137135,1.842396661179085 m-9.043974153531117,8.1499009336999 l1.9884000843229979,1.1927534121997991 2.061793309926923,1.696395332195726 l1.727619409563636,1.768176819182815 0.95071840195365,1.1069761483929272 m-7.156737539163194,10.74057390720057 l1.206093720847613,0.387044204861941 0.8751499091857105,-0.1893800400954865 l5.013525303686159,-2.4534813908731614 0.5512904116863618,-0.018440772684427398 l0.49754538763250855,0.36828056758543126 0.26406412188155315,0.6325503348604536 l-0.11582399464216966,0.7435695674814499 -2.6928138363692926,5.832761310534803 l-0.2598943772580667,1.3146380083800804 0.32297782164406375,1.4479883295815303 l2.33843977194928,3.9567931577583626 0.27554694706358085,1.3242185105313644 l-0.6065667929378544,1.194508182549398 -5.255511722084922,5.4496194980009225 m-2.2874688763148883,0.9461405160516773 l4.951497801999579,-0.603176800937736 3.991993930851584,0.4640856303496042 l8.2286149697677,2.1538612580321854 13.52941468281187,4.716522054694929 l4.0211011911998495,0.9191578870044927 4.254903531477713,0.4236306006736489 " fill="none" stroke="black" stroke-width="1" /></svg>