<?xml version="1.0" encoding="utf-8" ?>
<svg baseProfile="full" height="126.17268535049938" version="1.1" width="101.85018530788278" xmlns="http://www.w3.org/2000/svg" xmlns:ev="http://www.w3.org/2001/xml-events" xmlns:xlink="http://www.w3.org/1999/xlink"><defs /><rect fill="white" height="126.17268535049938" width="101.85018530788278" x="0" y="0" /><path d="M29.73442431590845,25 m0.0,0.0 m27.536490097523306,6.761464519407639 l0.46731629912046074,0.15652988983160124 2.1355459876036873,0.16112657763841137 l14.226085838036248,-1.9456814949451577 2.7503227696906185,0.1462655708312408 m-10.775736928620864,9.556491661912467 l-0.03502110990497433,1.375562023466474 -0.6802457812908796,1.517551999176711 l-2.6489871774577103,4.375216787006375 -3.3370998141056663,3.633539807840768 l-3.8323355562891672,2.8022464558451787 m0.024465087563014694,-11.497641980460145 l0.543026431171915,1.056421817106237 0.2174431140003444,1.9695578186447509 l0.44502388669845744,15.169098058252436 0.21434324134860272,0.8093534061502095 l0.8736047379094974,0.9368885965204268 1.5968121846043861,0.13429399021893737 l4.633219185262958,-0.8437477759711446 0.9826574526440808,-3.597579205817115 l0.5595969713012777,-1.7344780494383683 m-23.061058043268858,20.285805970596343 l2.1633062555533913,0.11911149293907314 16.796214124005562,-2.50233720789562 l3.834782854066594,-0.2346576708093242 1.7650905946254627,0.23683702329037487 m-12.883119101295819,-8.806895379440673 l0.4170007396583312,1.0030432425375184 0.19403125663651427,1.7305827864722982 l-0.022483222764343603,23.622334841409376 m-25.98404499628708,-47.714840040999114 l1.6436143447921288,1.3911836552569263 1.7652311843966206,2.134723211687365 l1.3962634866016623,2.2241873492852147 0.5530876753772895,1.395034228314877 m-9.208868384815492,17.183298005310654 l1.1495873353124892,0.43503017257513116 0.9015761507092257,-0.1531369400135978 l6.058654296230119,-3.05494262310808 0.551715800649372,-0.010770469277004903 l0.4432283988684371,0.4863049427616434 0.16779676558401352,0.8589674990877101 l-0.18002504260858565,0.9594557111239084 -2.5642531076809307,6.863581833088637 l-0.3209954146116384,2.2734771850167945 0.361696761217594,1.2220353264067099 l2.5061296489538707,4.9985609045640125 -0.0390270595915213,1.5837212612259948 l-0.6326860161675,1.1411701931724265 -5.265626720582251,6.597841183834213 m-2.0777030707121034,1.2420752432347995 l3.9749259578254605,-0.6864267552355758 3.8288749250187606,0.1587640010617692 l5.95356756445518,2.001153428331755 18.55367875046997,5.810068644267439 l4.367918346668237,0.43586262720747543 " fill="none" stroke="black" stroke-width="1" /></svg>