<?xml version="1.0" encoding="utf-8" ?>
<svg baseProfile="full" height="112.21884243221618" version="1.1" width="100.7405581427279" xmlns="http://www.w3.org/2000/svg" xmlns:ev="http://www.w3.org/2001/xml-events" xmlns:xlink="http://www.w3.org/1999/xlink"><defs /><rect fill="white" height="112.21884243221618" width="100.7405581427279" x="0" y="0" /><path d="M25,25 m0.0,0.0 m29.086115012260844,8.781641122751656 l0.012739254246640682,0.49419926224305233 -0.13302113899204973,1.404800718335763 l-0.9793646506109862,7.445253443355708 -0.9959559888976722,5.260788242986219 l-1.1454826383049848,5.125952884562532 -1.0771404071858242,6.24489867343862 l2.168274942011219,-0.22897874271326904 2.1866924346248306,2.5942228895429755 l1.6667175318412446,2.9453834858866137 1.383025423211684,4.104686675439817 m6.346858991071469,-30.01341950774515 l0.1382105194274373,2.3053892228590622 -0.9686255222980036,2.5896202919056535 l-7.143603400789009,10.125710855076727 -0.24865156747163067,0.8116212596754488 l7.845806989656035,0.5225863537821994 5.564626766307429,1.3042810553699342 l4.502645884903975,1.4495650632561414 2.53068970771525,1.4846245781168768 m-16.482151893448393,-28.20177024985849 l2.133355549759225,2.3630277171103615 1.537566486646529,2.270451186968313 m-6.855340122159082,6.23345465525084 l2.15372086380237,1.9790673775030623 1.511420705443729,2.3139917952736626 m-21.808321709708025,6.393081560979079 l2.8682021090944536,0.2919130902202859 26.63726158626524,-2.254478188847684 l3.52410703874963,-0.1449883989966267 1.9553437676517942,0.28191025646212037 m-18.482236630606486,15.091688384846492 l5.612583758895069,1.3791785009685291 3.358987004159079,0.9119977244600133 l3.697212549247504,0.49097570261852747 1.1765708543725384,0.2165531222194677 l0.7573301318777321,0.3933273963284277 0.2897959084147229,0.6132058395646027 l0.08038805667128579,0.9952083966725744 -0.6327356641117041,3.266643019622282 l-1.5503925049551988,4.906313135958698 -2.1484401178097534,4.921692925262329 l-1.3931505223761105,2.0937352742300224 -1.2457354611177751,0.6598343792727057 l-1.1628740282438819,-0.5437810605963705 -1.3298568634125791,-1.4441588959833862 m-2.205599597222833,-22.362056299104836 l0.06714841749727031,1.8572443390250286 -0.7485970942590096,2.817177052018861 l-1.401987501404996,3.8439792451825214 -1.8210799059194833,3.826731501312439 l-1.771188205849324,2.9251301741894085 -2.1533475529692274,2.8223398484923936 l-2.5495231241341765,2.6510316516011145 -2.3054945933431954,1.8135011018279574 " fill="none" stroke="black" stroke-width="1" /></svg>