<?xml version="1.0" encoding="utf-8" ?>
<svg baseProfile="full" height="118.05619593548955" version="1.1" width="86.75059113639132" xmlns="http://www.w3.org/2000/svg" xmlns:ev="http://www.w3.org/2001/xml-events" xmlns:xlink="http://www.w3.org/1999/xlink"><defs /><rect fill="white" height="118.05619593548955" width="86.75059113639132" x="0" y="0" /><path d="M25,25 m0.0,0.0 m23.656103481758876,7.684065895894309 l0.01547062979293724,0.5487717832099939 -0.1944967619468313,1.3392452602446725 l-0.9535113472169368,5.888387834598268 -1.3924442769886631,4.9752692789083985 m2.741024345958396,-7.6712983627213704 l7.876661856232008,-1.9927075971063835 3.8411011744328163,-1.3407502843683756 l1.160682034368722,-0.1377453739539517 m-6.149026981445096,13.952319602539768 l0.31849817098132865,2.337611365959673 0.007873306719437803,3.1327723306886535 l-2.0308341533465977,14.759862053018905 -1.2188928782442783,3.910495298870426 l-1.3980824586862723,3.1774790191122593 -1.5938175503256242,2.692037449066219 l-2.0193255188246826,2.407138812855796 m2.368110275014992,-38.080519747173156 l0.9444512360291164,14.980102645620017 1.5049481907415987,13.209136629443476 l1.5137225362317446,11.636845850745217 0.7401260903087394,2.109873485717338 l2.314179285697401,1.8838753107757358 2.389894997653755,-0.17506590872579214 l0.9619109198401696,-0.6357074894484575 0.8393430376810549,-1.4640421727767063 l0.28040388180916237,-1.4115732519363766 0.1127188382540659,-2.76159692748695 m-25.555625293589287,-43.282447497088164 l1.1519878040935905,1.8500630406988743 1.1825764699147017,2.61479567536164 l0.9595280510712432,2.627004981659835 0.5361241967386915,2.150925672634369 m-5.123375091333157,16.62569381579314 l0.7931536880214787,0.43854473391525706 0.7343085148749512,-0.14102603228631994 l3.8532202628028487,-2.8879619931611327 0.30264752947602613,0.30330178881557107 l0.09401134903348811,0.621307787779648 -0.11196226997023817,0.9375033127907998 l-2.0069942039456468,6.6865800100218 0.25459129142615183,1.338077714166246 l1.6727055216485016,3.374496763636615 0.06418813889580013,1.3864955899409255 l-0.15223373790935993,1.3402799857485495 -4.196539490933804,7.044210933312018 m-1.7083566326985906,0.9845894922616589 l2.6470981709766215,-0.7007544558306978 2.5691776307424274,0.05706612346024442 l15.113390366365524,8.675080641197379 3.258146012939908,1.0580850590896622 l3.3239835712646517,-0.2349548643761055 " fill="none" stroke="black" stroke-width="1" /></svg>