<?xml version="1.0" encoding="utf-8" ?>
<svg baseProfile="full" height="115.67917783005663" version="1.1" width="107.61231800349401" xmlns="http://www.w3.org/2000/svg" xmlns:ev="http://www.w3.org/2001/xml-events" xmlns:xlink="http://www.w3.org/1999/xlink"><defs /><rect fill="white" height="115.67917783005663" width="107.61231800349401" x="0" y="0" /><path d="M25,25 m0.0,0.0 m27.84311969540206,15.368969983702609 l0.4384734347194184,0.10419969755886234 2.7932669007155853,0.09435557059484138 l18.745870902221107,-2.2563963644789973 3.2964632216598697,-0.17269586468258588 l1.6315422865066758,0.1670250993422296 m-26.040474583750214,12.998271169815991 l0.6110861490236843,1.4911068939593157 2.4668707344578666,8.250289242395956 m-2.284325841047376,-10.016182808263718 l17.64647265338895,-2.1246710472439836 4.437120077043537,-0.3149664593519963 l1.0143788746658522,0.612534928722639 0.3576946420147246,1.1942817390324234 l-1.7473794248078023,6.573808983392231 m-18.798042514816473,3.653155377594044 l19.600600701201024,-2.5640645338049577 m-11.729002580019294,-15.532997090759565 l0.6201800857815967,1.0031972283747945 0.22621977376682872,1.0904891199714695 l-0.04098192364320337,26.39863907076876 m-12.497792611922751,-28.852182628452823 l0.6982241458309071,1.3884210171893907 0.15256368438348944,1.3385767888532003 l-0.12251656176916495,24.878102095393213 0.376700894770532,2.1064830896594775 l0.5050366603578004,0.5441035966773078 0.9511042336870471,0.20495026196282787 l10.039560482171607,-1.1749220501694553 13.744818340167477,-0.7121903314913856 l2.675465471332629,0.34789326787179775 m-46.61364008424343,-36.895075921866486 l1.9214872165862318,1.6801017611575755 1.8421653719130386,2.033142029406928 l1.5862296519760626,2.2071925915461663 0.9069892995626819,1.8693029827063217 m-10.997456002895982,13.605589420031684 l1.4137878270110305,0.41546728459115184 1.0538307324415865,-0.1307572888628372 l7.067297263432424,-2.639507915109688 0.6459745220110682,-0.016983622051357002 l0.5614263637589799,0.42307331858812364 0.2707202483553689,0.7387430321595498 l-0.1854752865049879,0.8732203228359421 -2.952778713683324,6.972900063445493 l0.26961319947937135,5.593064175767529 2.5912645972232577,4.875983405117143 l-0.032611942697834656,0.7391995172617597 -0.6341292006759437,1.0044003099710896 l-2.4075149067346664,2.717761756044379 -3.6757406332495606,3.657118576976986 m-2.542265431374414,1.2114669442673975 l4.631795431245105,-0.6688658289171995 3.2149841222219386,0.2223482657922779 l28.434113578987596,8.283587764266317 4.959867924244837,0.8191198407964674 l5.151958581641935,-0.3884960323587364 " fill="none" stroke="black" stroke-width="1" /></svg>