<?xml version="1.0" encoding="utf-8" ?>
<svg baseProfile="full" height="94.98352272023834" version="1.1" width="100.89066056312282" xmlns="http://www.w3.org/2000/svg" xmlns:ev="http://www.w3.org/2001/xml-events" xmlns:xlink="http://www.w3.org/1999/xlink"><defs /><rect fill="white" height="94.98352272023834" width="100.89066056312282" x="0" y="0" /><path d="M25,25 m0.0,0.0 m8.314167701493258,14.799898465976522 l0.45486800656455534,0.1574969312100576 2.1379489929722593,0.05997568114121524 l15.160114538779325,-1.9083504260797126 1.5814559265754258,0.219422256833596 l0.4484950991754084,0.8819947170276378 -0.029665313936124347,2.2130346900030164 l-0.9767229764869219,7.2128724166124965 -1.0794770240354665,5.586735859219749 l-1.4051340815230888,5.059297841360585 -1.0887076395961486,4.108677025205649 l-1.2772092496124658,3.062906530121492 -1.3663398373168458,1.2284358830674758 l-0.6365075978699438,0.0236522764904067 -1.2031389955363263,-0.7479745051008532 l-1.4301898135109414,-1.7816856153444967 m0.4535665510673526,-23.500481200248295 l0.08186493883567153,2.0319487436713155 -0.9994157641245827,4.760452973314511 l-1.3414451130967213,4.328815394110239 -1.7919889940490097,4.339819425042539 l-1.8716751036194141,3.5809767589469303 -2.22201377723971,3.41177118243036 l-2.6191393387541444,3.2117460630408283 -2.2248517988402012,2.257020892691155 m27.21234443120642,-21.978345560478996 l0.8248674106236293,0.9280529630393605 0.36749638671591217,1.6008700815165766 l2.0052937723562634,19.834484975416984 m-1.924600612223356,-21.25764627330894 l13.870163409551514,-1.6175780717056112 2.0409631832788424,0.09022941970521542 l0.8996810885995834,0.4843608360926338 0.5255921566988047,1.400056230734253 l-0.0758967939791354,1.2698312467817834 -2.2812844725976325,17.362892773613954 m-11.99004618192407,1.5410288090057667 l13.218316461660509,-1.0095550634703705 " fill="none" stroke="black" stroke-width="1" /></svg>