<?xml version="1.0" encoding="utf-8" ?>
<svg baseProfile="full" height="92.66090772393551" version="1.1" width="89.3593891329443" xmlns="http://www.w3.org/2000/svg" xmlns:ev="http://www.w3.org/2001/xml-events" xmlns:xlink="http://www.w3.org/1999/xlink"><defs /><rect fill="white" height="92.66090772393551" width="89.3593891329443" x="0" y="0" /><path d="M25,25.020148369187552 m0.0,0.0 m16.42329762574428,1.2820386586959833 l0.29502830816377457,0.40609443364479497 0.3553736778829915,0.9400239640943088 l0.33013177014653255,2.660067576596886 1.319140742248665,12.723591522545005 m-1.2582051290328016,-15.433044945214798 l18.19344977128675,-2.5989195795497357 1.823279710208971,0.173049368421165 l0.6763306717255679,0.837680934729503 0.0674662778630557,0.678719377675025 l-1.9419692335864924,1.3542243770006661 -2.5787571621354686,5.096625071689185 m-16.49192817067176,2.853793587652114 l18.3682232936258,-2.4371509280673243 m-22.368168131037745,10.629896739858674 l2.6558672040100775,1.0150776888053026 21.405005562054225,-2.7802906018456617 l1.7001112368063365,0.4635396208029857 0.3717315572406263,1.1650204641950306 l0.013979550400906515,1.85647288387812 -1.179612125604464,8.137570845176437 l-1.5772748451728886,6.9992692571151744 -1.4860040700588695,4.790411260678446 l-0.8648195155121243,1.3955761682362149 -0.47929794404138654,0.2754268685717869 l-0.44318454571410404,-0.10884072693509728 -1.0168671607283948,-1.7145622217096517 m-4.284893144332917,-29.67330826759304 l0.13033413234567537,2.8415638388772457 -0.8399072028497685,7.073040978190407 l-1.1359116207817037,5.29581712338769 -1.4014990022312972,4.409392642049094 l-1.8754057985015726,4.171510513268555 -1.7336323006975354,2.9094224990801174 l-1.9748281733740547,2.656923813928288 -2.2489261780207213,2.295034546819055 " fill="none" stroke="black" stroke-width="1" /></svg>