<?xml version="1.0" encoding="utf-8" ?>
<svg baseProfile="full" height="102.23567564731243" version="1.1" width="97.6144931201955" xmlns="http://www.w3.org/2000/svg" xmlns:ev="http://www.w3.org/2001/xml-events" xmlns:xlink="http://www.w3.org/1999/xlink"><defs /><rect fill="white" height="102.23567564731243" width="97.6144931201955" x="0" y="0" /><path d="M25,25 m0.0,0.0 m29.507944886740546,14.041699105898498 l0.4281909082097496,0.10620057666780508 1.6598804324481364,0.021755534882664743 l9.014045192872084,-1.9301091803999808 0.8991885570887111,0.023164046313231598 m-6.653620542347755,-5.1270396573016015 l0.573267599243123,1.059840228553799 0.1631994708145667,1.0629361844815557 l0.0001495681763572865,9.625168348615981 m-10.094916334330314,1.7579558668449857 l2.1916489328940463,0.1206662717718644 15.35231237961784,-2.270726869752724 l2.1037863793293834,0.17732950796592892 m-16.136085929209994,3.4754139933240866 l-0.3996973847163933,2.61364235831436 -1.1446572973012825,4.130966135357212 l-1.2953658726620991,3.2332023469282727 -1.9300074295731742,3.5315474225798327 m4.534713019212953,-7.992805806563169 l1.5062049863820153,0.7814905413992774 1.5030201353403307,1.1574376538676974 l1.2790001289786541,1.4770552734107096 0.6108270775342911,1.4240126741793242 m7.40641205653581,-9.856150023804444 l-0.13467561135152256,0.8286968798883702 -0.3156137032697445,0.9926768449292702 l-1.421293381576937,3.156083550537269 -1.6391337220203566,2.5456227739647708 l-1.8254704085709912,2.1561974517669187 m4.822683386350415,-4.185000809192412 l1.094976430384816,0.7520420450690679 1.2848577076875418,1.2197180970793455 l1.1337860157796553,1.5562614892069422 0.5990711797375898,1.3329441073502724 m-23.304385258898748,6.7788468944552225 l1.3535728356223302,0.26304216696501415 1.5073338119451118,0.003928382851396421 l21.32433454209486,-1.902967421077092 2.0550083750039003,0.33232532277611404 m-14.116192599800389,-4.276757042401405 l0.42317844276340955,0.867772243377465 0.12817557530642115,1.0285836478868136 l-0.041377387561656584,16.14100648834393 m-0.8905820691000389,-12.918143549927194 l-0.35734095807101474,1.0658258648184213 -0.9426185094061768,1.5873088941224034 l-3.0978812858272686,3.998745338389505 -3.3538993468604525,3.2435214795128724 l-3.7183194400315593,2.6472901130635753 m13.262188079204963,-11.568503678333636 l8.664885222368907,8.506713640983488 1.698716092490495,1.5084195215225473 l1.7434651890648203,0.974366402710724 " fill="none" stroke="black" stroke-width="1" /></svg>