<?xml version="1.0" encoding="utf-8" ?>
<svg baseProfile="full" height="96.22535657261943" version="1.1" width="83.6778017154445" xmlns="http://www.w3.org/2000/svg" xmlns:ev="http://www.w3.org/2001/xml-events" xmlns:xlink="http://www.w3.org/1999/xlink"><defs /><rect fill="white" height="96.22535657261943" width="83.6778017154445" x="0" y="0" /><path d="M25,25 m0.0,0.0 m6.694028356631492,16.986070507570048 l0.4217887467113532,0.11758319477654243 2.3107460320331077,0.06262689247539954 l13.302906332022948,-1.677709587937434 2.0096566160147504,0.16074327037007793 m-18.4085347248916,13.641677051794776 l2.716027376753988,0.05600169384223613 13.963790889436924,-1.9496703525643972 l1.3814776737883145,0.0756550246818627 m-17.95926739836576,-9.250966838956526 l0.4477908198375309,0.49088460239392884 0.21207275171254053,1.3140945706935927 l-0.2032072446145228,24.438572898673964 0.2869266879506836,1.2480229373022476 l0.9676482727349184,0.5117707075031058 0.6745992169775697,-0.17092270813431706 l9.367998887319557,-6.5781126625984205 m15.027045666633718,-25.31509386222604 l0.09495793188879727,1.0753514788453271 -0.4230159814468457,0.7503160088368386 l-4.488293828464043,2.603284151532257 -5.187600022653887,2.53832123572827 l-4.689885619260874,1.9001621165467213 m-1.829314647675098,-12.084917232442537 l0.5489772765062721,0.8330094922632525 0.22419699323622236,1.0529801597248678 l0.005376440299716899,21.959763575730776 0.3845289788499548,2.5644223937645547 l0.7762793444684064,1.374135186375841 1.2379834539787555,0.9305029605115365 l2.0185504199505075,0.6251880891186079 4.761034705892386,0.26623940457998707 l4.054158262723831,-0.30808997270293137 1.4775221041176536,-0.49832289192803614 l0.9099322848486221,-0.8573566229360239 0.4591053413410271,-1.2038460555749513 l0.12981331815558933,-1.9513568181284713 " fill="none" stroke="black" stroke-width="1" /></svg>