<?xml version="1.0" encoding="utf-8" ?>
<svg baseProfile="full" height="85.93311765176452" version="1.1" width="104.12892047718492" xmlns="http://www.w3.org/2000/svg" xmlns:ev="http://www.w3.org/2001/xml-events" xmlns:xlink="http://www.w3.org/1999/xlink"><defs /><rect fill="white" height="85.93311765176452" width="104.12892047718492" x="0" y="0" /><path d="M25,25 m0.0,0.0 m24.432841739857565,15.570776293591368 l0.44491451589815056,0.1049980655022087 2.8104913393079265,0.03251657197594323 l17.66918162897169,-1.7680115428014025 2.329037124939281,0.14950705370091225 m-12.722254879211915,8.865105973862606 l2.4750960522387224,0.5267271932367009 6.089627595459592,-0.9853844121620549 l3.49103277904074,-0.023139687663811543 m-17.89308910868499,-7.736693083805461 l0.567537627575411,1.1996310616630323 0.14864811256747998,13.454152275925761 l0.5327980010259927,0.8041005350417457 0.7696254758198185,0.013034259024014738 l6.561459425899798,-1.5441853705069253 4.8443996618610505,-0.48044510606652585 m2.661309112164517,-15.69097180075244 l0.35903065946609986,0.6861492955947712 0.11579477395050061,0.5986795448219917 l0.03133910931775525,11.543303011992716 m-29.78258652261469,-22.43370814126669 l1.5843677854901002,0.7175928962018588 1.9657107714444062,1.2746967909047806 l1.5133289518286819,1.2344311603539584 0.6480773292961944,0.8419937218854865 m-9.567429359205569,10.114530516928784 l1.364212540711602,0.24322162362339933 0.9705010556966162,-0.10017905077250022 l5.810004872763392,-1.767783969577879 0.6356742891179713,0.01416696889598424 l0.624409348256388,0.27255643876347424 0.34374635869247083,0.4365210190796188 l-0.14201875826757585,0.48972013730444425 -2.6168033699537587,3.687991419065401 l-0.2539690482967947,0.7756394115874383 0.3437187819528826,0.9032607188311956 l2.470731823610131,2.889274887497143 0.22036703354243842,1.0469468188539803 l-0.6478175774798814,0.6827906297402447 -2.4072330976306078,1.6275366099058344 l-2.92963732638335,2.0277533840763065 m-2.13883433828188,0.7939201434662496 l3.730589333600108,-0.45490308300013577 2.670969029442475,0.038863383874377724 l23.467562137484563,4.774024215568019 5.787003089800715,0.4824088677985923 l4.745454595102716,-0.36110590578050056 " fill="none" stroke="black" stroke-width="1" /></svg>