<?xml version="1.0" encoding="utf-8" ?>
<svg baseProfile="full" height="102.78683117313699" version="1.1" width="102.58558212515067" xmlns="http://www.w3.org/2000/svg" xmlns:ev="http://www.w3.org/2001/xml-events" xmlns:xlink="http://www.w3.org/1999/xlink"><defs /><rect fill="white" height="102.78683117313699" width="102.58558212515067" x="0" y="0" /><path d="M25,25 m0.0,0.0 m26.707865002752616,12.871851370754932 l0.45954418381172046,0.10365842406943543 2.4916256435379247,0.03215795284164565 l18.67553155994769,-2.150695685765373 1.9653641495188772,0.12961613187296822 m-24.41349067457005,9.682743769641853 l0.6749462426508164,1.3342364818634214 2.685090197348597,13.672864468596119 m-2.3507207105117858,-14.453130099368966 l18.459583422591294,-2.52669549053935 2.7288760890842494,-0.21227291636543597 l1.714727380752531,0.2452009427466151 0.7185522685168879,0.8138480301971079 l0.0503789189511967,0.6636857625758038 -0.13434938390529458,7.714991547849036 l-1.0192736220976821,6.152685765565824 m-19.564786687535534,-5.920839144167112 l20.06397470966399,-2.2049401237036794 m-18.99823237138026,8.81287199251162 l17.695977379106317,-1.9159310969994858 m-22.42871746088411,8.719601527872966 l2.8648668441116962,0.2238040535837302 20.487318700148673,-2.016236926577813 l2.556317840910074,0.2212702719856162 m-14.500681191297847,-33.084996910819974 l0.7327726308603002,1.0718075210754356 0.28869522172754003,1.4834025350287996 l-0.10066274225363292,43.2288596404066 m-24.777646922449485,-39.07291490511071 l1.6713864678583767,1.2180476082790366 1.7015635126417774,1.6655233282142012 l1.4456033339002041,1.82554033794818 0.8257977681423746,1.5870830943468857 m-9.854282117264095,12.482204409685203 l1.3253025821536601,0.201349045051496 1.4276786954119576,-0.17758981903566606 l6.6569108827929995,-2.4320275126304507 0.42108370234280806,0.2548549111036835 l0.18623873518869066,0.6458720388336233 -0.23464806254420956,6.846963172991661 l-0.09691079208476688,1.2461074909935277 0.040054011538863954,1.2367323255714935 l-0.2648571942577376,1.1077075199257007 -4.089285359532439,2.4160337993216925 l-2.6219874853878387,1.945996969997417 m-1.793986043610835,0.6502328281128534 l3.775538242985671,-0.6110483163624127 2.831781445149933,0.07034563877260629 l26.281356361007,6.42868972604794 4.402715005601792,0.5577076843466897 l4.815081814009165,-0.3526147251359578 " fill="none" stroke="black" stroke-width="1" /></svg>