<?xml version="1.0" encoding="utf-8" ?>
<svg baseProfile="full" height="98.58320427757727" version="1.1" width="95.68234019264894" xmlns="http://www.w3.org/2000/svg" xmlns:ev="http://www.w3.org/2001/xml-events" xmlns:xlink="http://www.w3.org/1999/xlink"><defs /><rect fill="white" height="98.58320427757727" width="95.68234019264894" x="0" y="0" /><path d="M25,25 m0.0,0.0 m26.077223782279965,3.917753124693804 l0.048588286911015556,0.42476535502206786 -0.2558903903673086,1.6961919489904627 l-1.0610367521659367,2.1712036967155224 -1.9676899712910307,2.9478828254519627 l-2.251942618328939,2.5663479193722263 m-4.561293443481712,-5.69717772035824 l0.5053481527453596,0.8949118101277599 0.13883218176137113,1.0526068244589222 l-0.2344512513443008,19.663240853434115 0.28727040343125887,0.8538389755934861 l0.4697674713706263,-0.035355738888280475 8.319980736172639,-7.0990917345701865 m1.348030114117555,-7.289048092082167 l14.324469384842425,-1.8339661049618843 2.379591191663891,-0.05191033732517799 m-13.383930336606058,-6.59503377374793 l0.5730688965258529,1.2687229887012366 0.15248356666759083,1.0799549316599144 l-0.005587519842004006,13.639637253381341 0.29456599893290314,2.394869075805006 l0.37567212611705103,1.245218684501173 0.6087978736983347,0.8653531869954835 l1.2646427010287011,0.6094578061293234 2.028438719098805,0.26952176709751335 l4.957953190188269,-0.1082198709191347 2.6463088244943966,-0.31209233263654 l1.3657062135609603,-0.4217294206232486 0.8818946913215242,-0.832160425629481 l0.35552796914572204,-1.3727542496884741 m-37.40318299733014,8.378370890008624 l-0.17981559303414502,1.5770235248824205 -0.7018371582512672,2.158935213295906 l-2.261684062468199,4.56599768202605 -2.259424135846599,3.28145901654402 m9.259134444739969,-10.669962961989242 l2.6940080894510685,4.006904717185812 3.0819584376609104,3.2434293232449 l3.444234542446352,2.443102297529557 3.285312947477128,1.636104262801203 l2.798226176338155,0.9757119710001734 3.1573171985159636,0.712725591606023 l3.755730809862785,0.36046352274126464 4.558612279934697,-0.010595255472825159 l2.3082660366161636,-0.4512388114279513 0.6547040955417547,-0.3637455033418264 l0.25233925038453425,-0.49469040835557077 -0.16979472443241234,-0.6049214945976404 l-1.5408239349624115,-1.4297160010978376 -1.774164610834186,-0.9999827852019235 m-14.17232791269352,-8.66613707024051 l1.2644937324603214,2.0065387735116826 1.0835950809200616,0.8578347025563149 l0.976576125622828,0.015074306849665138 0.7348107712652986,-1.168905366421235 m9.99174992919247,-2.8343801874187635 l2.169807541141008,1.0196975022395403 1.8084850801628949,1.2630022560439038 l1.613540457515077,1.6711776839419326 1.0485717292696453,1.5991547254527019 " fill="none" stroke="black" stroke-width="1" /></svg>