<?xml version="1.0" encoding="utf-8" ?>
<svg baseProfile="full" height="108.6163680478227" version="1.1" width="105.55345325566041" xmlns="http://www.w3.org/2000/svg" xmlns:ev="http://www.w3.org/2001/xml-events" xmlns:xlink="http://www.w3.org/1999/xlink"><defs /><rect fill="white" height="108.6163680478227" width="105.55345325566041" x="0" y="0" /><path d="M27.001788045503872,25 m0.0,0.0 m33.96399346281217,7.715265945981935 l-0.0021667250393392432,0.5074536653190111 -0.43944691626027005,1.4428882353969068 l-1.8729891344311478,5.559546158061306 -2.623580184978891,4.735305981625701 l-3.331910202238352,4.758507051781071 m6.464692847735105,-7.561958566617693 l6.417572249806412,-0.4746460244238261 12.186978572029593,-2.016894297996348 l2.788521240721258,0.011693931351358043 m-24.506818260719623,-10.590579351364434 l1.0111939109758783,1.3418519226756578 0.6879765676005806,1.7765638854928123 l-0.12026256994768035,17.823668005619442 m-10.123620943617661,1.1103375556551172 l2.1724416514201836,0.3664377188598621 19.751178790040456,-2.7467287514606453 l2.67038086132287,-0.1213968987174692 1.7570129170407551,0.28179394152289633 m-26.38999326325151,9.921745254318177 l0.7249857894660213,1.605866678093846 1.08255085306374,12.46532914783254 m-0.6693570410309178,-12.887670163769089 l18.12030202053913,-2.541153079403995 1.275984410044644,-0.24545243960362556 l1.2971640875126724,0.27903157745677254 0.46281534149125536,0.9215769380977695 l-0.017530212994318783,1.6430007550671728 -1.9537972101140073,9.537574706142086 m-17.679849412887805,2.4551803137847905 l18.778539786198557,-2.041869778177671 m-39.18767942566466,-42.31188339002858 l2.111316845520056,1.400145199479964 2.212204582022076,2.034950534833464 l1.7563408713499922,2.061537684347142 0.7046544142703515,1.3058991968871094 m-10.85221515583958,7.339293555505578 l5.057283806419477,1.4758528491732426 2.4673372135861102,1.224629633340069 l0.9404839146521217,0.7670633820288867 m-9.094478394129576,10.850373512154405 l1.5078612176128574,0.3516575818953564 1.5361310463713753,-0.18172266151471417 l5.907258288594426,-2.4482578644449284 0.7212201346915206,-0.025871031622557588 l0.6306274443862443,0.34598687603249384 0.360498768391329,0.6027603692231228 l-0.13582913639195143,0.6977741931045476 -2.8298305645011,5.122899614823347 l-0.2941944363190251,1.2161760739681073 0.3937652346685529,1.3775241683774835 l2.6557238480789174,3.792023452443962 0.30361014288969906,1.3416595001778766 l-0.7413364115362121,1.160039217657619 -6.402593126231742,5.374410512300958 m-2.7366851092843163,1.0996980050754617 l6.33688131728314,-0.5585293333879937 4.78586419083441,0.44134385609858856 l8.44607914250628,2.063629212952256 20.928061104665467,5.21328638560332 l5.475823827365504,0.4497477427356911 " fill="none" stroke="black" stroke-width="1" /></svg>