<?xml version="1.0" encoding="utf-8" ?>
<svg baseProfile="full" height="89.12278435334986" version="1.1" width="111.0668512089982" xmlns="http://www.w3.org/2000/svg" xmlns:ev="http://www.w3.org/2001/xml-events" xmlns:xlink="http://www.w3.org/1999/xlink"><defs /><rect fill="white" height="89.12278435334986" width="111.0668512089982" x="0" y="0" /><path d="M25,25 m0.0,0.0 m32.645070401823325,8.566822278399531 l0.515157305632602,0.35286277203023353 0.6194997143998867,1.3756724909838776 l0.06977656803632214,7.906530373675856 m0.5885810608276569,-9.446087883000393 l17.159913757264828,-1.2470397807418168 2.5351724651491145,0.07042356894221866 l0.802506047643665,0.32245600795269397 0.48462059352568787,1.4098520557256051 l-1.5335468537058894,6.150316335996442 m-19.04223091395037,-3.0524136194582727 l19.53466841247362,-0.9428195618068437 m-19.626794054761028,4.636093051787002 l18.258218769630044,-0.9046635849738123 m-14.676990611677395,4.570888215793724 l-0.20135371589012468,1.0585929221797448 -2.081323958052588,2.320099032539911 l-2.6257388674709095,2.3034812067736152 -3.0961608100140228,2.224161989803176 m8.518608767325276,-5.228242286393179 l2.661153891883955,0.10850986426877031 16.794050807985506,-1.4759043298000247 l1.5541105344922779,0.08252721930350218 0.5852916947399055,0.21106919654039083 l0.5715665989825529,0.7195023996005837 0.05302360270429458,0.5115331398253303 l-1.3224876285467353,6.094451040926068 -1.7601568649267991,3.6206371366027277 l-2.173963669831082,3.2779150826843773 -2.5196213892318484,2.1593897871245837 l-1.2751111051030688,-0.06221706779726192 -1.574261532844052,-1.169727916543128 m-6.91954795217865,-11.838024975884563 l-0.07685318267753587,0.5526299762275861 -0.6452968228297954,0.8044553028461163 l-2.217407535495248,2.103508837673783 -2.8860953822255566,2.0248494372530477 l-3.5834336351979768,1.9406308985799954 m17.73763390684755,-8.201193882482269 l-0.2603097651620714,2.118165039783318 -1.1965516407466152,2.0397291064605674 l-1.9834265546903265,3.886361334546478 -2.104537607880236,3.2735823143446523 l-3.910811630391952,2.692379093568969 -2.3604986755445667,1.201040731486962 m-23.401679765773846,-25.566441219301552 l2.775791804457912,1.2475671864066618 2.0776423333265384,1.238143567162379 l1.5926660663366317,1.186905985204933 m22.44325421068319,10.194326634198468 " fill="none" stroke="black" stroke-width="1" /></svg>