<?xml version="1.0" encoding="utf-8" ?>
<svg baseProfile="full" height="109.4925091550084" version="1.1" width="102.93688324037248" xmlns="http://www.w3.org/2000/svg" xmlns:ev="http://www.w3.org/2001/xml-events" xmlns:xlink="http://www.w3.org/1999/xlink"><defs /><rect fill="white" height="109.4925091550084" width="102.93688324037248" x="0" y="0" /><path d="M25,25 m0.0,0.0 m34.72036361694336,6.976750910325791e-07 l-0.01940625603310764,0.5857310444116592 -0.9367741644382477,2.7285772562026978 l-1.2510648369789124,2.3297396302223206 m-7.357072234153748,0.8102008700370789 l0.7898469269275665,1.1744286864995956 1.8092574179172516,15.938920974731445 m-1.2756213545799255,-15.948233604431152 l17.708559036254883,-1.9492368400096893 1.6528691351413727,0.3603032976388931 l0.8108600974082947,0.9407295286655426 0.032111997716128826,1.5348659455776215 l-1.105085238814354,7.48331606388092 -1.3716226816177368,5.867198705673218 m-17.424921989440918,-8.976155519485474 l12.880480289459229,-1.039656177163124 m-12.39363431930542,5.838192701339722 l12.400885820388794,-1.0396767407655716 m-11.222832202911377,5.210599899291992 l15.02662181854248,-1.2420622259378433 m-9.134372472763062,2.4708159267902374 l1.3445115089416504,1.3778029382228851 0.6267684698104858,1.1536628007888794 m-14.271137714385986,1.6810514032840729 l-0.7552576810121536,3.797198534011841 -1.216043010354042,3.3920979499816895 m1.903873085975647,-4.9284473061561584 l15.84209680557251,-2.281285673379898 12.720944881439209,-1.1209790408611298 l1.6744589805603027,0.2152405120432377 0.727137103676796,0.5132151022553444 l8.240448551077861e-05,0.7165893912315369 -1.299024373292923,1.6652297973632812 l-1.56172975897789,1.3441818952560425 m-20.198986530303955,-0.539914183318615 l-0.28985776007175446,0.9483107179403305 -1.4593833684921265,1.7248906195163727 l-2.1646009385585785,1.7334607243537903 -2.09472194314003,1.2301341444253922 m15.389201641082764,-7.499467134475708 l0.24985039606690407,0.600893460214138 -0.09451794438064098,2.565086781978607 l0.15401397831737995,0.727137103676796 0.4186147451400757,0.46014662832021713 l2.1929481625556946,0.37879280745983124 4.228833317756653,-0.36460377275943756 m-12.741711139678955,-0.5669428408145905 l2.0126470923423767,1.702476590871811 0.9779763966798782,1.7535674571990967 m-13.880870342254639,3.2592621445655823 l2.726929187774658,0.1957724429666996 21.560966968536377,-1.3568104803562164 l2.38280788064003,0.24978859350085258 m-14.387164115905762,5.5903202295303345 l7.485952377319336,1.1340916901826859 0.6229778751730919,0.21787745878100395 l0.7622414827346802,0.8787614107131958 0.008322853245772421,0.8260224759578705 l-0.9238366782665253,2.303370237350464 -2.7918636798858643,4.537520408630371 l-0.7179078459739685,0.4192740097641945 -0.6480288505554199,-0.1086915098130703 l-1.428893655538559,-1.8699225783348083 m-3.293542265892029,-11.043519973754883 l-0.040501803159713745,1.1272932589054108 -0.5090948939323425,1.3754956424236298 l-2.0314353704452515,4.0107908844947815 -2.1461422741413116,2.9174482822418213 l-2.6982522010803223,2.3620420694351196 m-20.48377513885498,-49.06824588775635 l2.3910483717918396,1.3212734460830688 2.472464144229889,1.860363483428955 l1.9671598076820374,1.9332091510295868 0.7907534390687943,1.2169494479894638 m-8.12705934047699,6.15462601184845 l4.366119205951691,2.6974284648895264 2.0818667113780975,1.9163985550403595 l0.8362406492233276,1.2116754800081253 m-11.307213306427002,9.419162273406982 l2.223272919654846,0.3597264736890793 7.733001708984375,-1.7638680338859558 l0.8121785521507263,0.004006917879451066 0.7488919049501419,0.3975192457437515 l0.4324587434530258,0.640777200460434 -0.1371210627257824,0.7330702245235443 l-3.544216752052307,4.806488752365112 -0.4008565843105316,1.569310873746872 l0.7382617890834808,1.8122394382953644 2.7002301812171936,2.706822454929352 l0.3164331987500191,1.3504445552825928 -0.24523574858903885,0.622648261487484 l-5.3999656438827515,4.897463023662567 -2.2659584879875183,1.6896215081214905 m-3.206523358821869,1.417357176542282 l5.3892529010772705,-0.4763391241431236 4.47654128074646,0.12643937952816486 l5.304211974143982,1.0930954664945602 14.883238077163696,4.049191474914551 l4.015240967273712,0.8331917226314545 7.549569010734558,1.1546103656291962 l7.660980224609375,0.3215371444821358 " fill="none" stroke="black" stroke-width="1" /></svg>