<?xml version="1.0" encoding="utf-8" ?>
<svg baseProfile="full" height="105.1019090689181" version="1.1" width="124.83501526201756" xmlns="http://www.w3.org/2000/svg" xmlns:ev="http://www.w3.org/2001/xml-events" xmlns:xlink="http://www.w3.org/1999/xlink"><defs /><rect fill="white" height="105.1019090689181" width="124.83501526201756" x="0" y="0" /><path d="M25,25 m0.0,0.0 m26.270133032466074,8.33026695868305 l0.3905032740295912,0.38034627015464717 2.3377084260097263,1.43774599093681 l2.059367048967024,1.7279858695957135 1.5932498343111436,1.9442812703786707 l0.6520666373136671,1.2250224765910123 m-17.19943104418199,-8.555114486066937 l0.9301387606455563,0.7776086869441524 0.339393279467834,1.325935020544035 l-0.31860783753825456,10.905914099328326 0.5950065819728908,0.8281719286519723 l16.45303451898728,-2.196227150769384 8.430275563101711,-0.6119347118798298 l2.986662746982953,-0.12824655574407284 m2.3708245218074944,-10.1818539864469 l0.514839040144051,0.6936595577488004 0.1974584972156742,1.0809702806592074 l-0.9144631733652389,4.520230958218929 -1.4282213127524448,3.846660646263911 m-26.25920101596773,8.693360112501205 l1.9822046615280577,0.24061652836316125 2.400334810749456,-0.07814673660251148 l19.75200853301268,-1.9310523872324092 3.54500166481915,-0.15649133100434312 l2.4538488257193873,0.18695519126177798 m-16.582856143370467,2.528133287252391 l0.6889981260436168,1.4043180158159918 0.1159712691724743,11.737836649520716 m-13.180024169108835,0.6469009308357067 l3.6031413445488125,0.15839907193212924 21.831955095493342,-1.9754906759469266 l3.5690590269064826,-0.018642455461798327 2.050081186822825,0.2774712998760874 m-32.62556479326133,-33.384456479652954 l0.657529287752206,0.46273743261285666 1.4077932898859793,1.2147742569205109 l1.664082653120363,1.7979107249906514 0.5205980269994211,0.9655173501115736 l0.21103814455541395,1.08238684975398 m-10.065985653812481,6.87455907491624 l4.174707770004882,0.8678510535659241 8.553035813320049,1.0470234886222278 l3.3552832093357075,0.927951462301376 2.0944594815321347,0.9321427910799414 m-12.199126042372587,10.419836490768581 l1.5171570788224626,0.27759230589698075 1.557867886833676,-0.11852476341457897 l6.854293531922259,-2.015347949894987 1.0092720836030218,0.31825427044051896 l0.3458048492320399,0.5290937241499462 -0.20366431255268652,0.5994349702338979 l-3.6617162736510993,4.468153759318778 -0.29430097449046777,1.0562646248132153 l0.44653284146708494,1.1542941971090055 2.8959636822144876,3.030314995119178 l0.3422229856139231,1.067120363918353 -0.8435564217113508,0.9702377982049893 l-7.150865761702675,4.374980062286147 m-2.79004228991001,0.8302246368380762 l4.900895660999579,-0.4870500326196764 3.669673501237956,0.07580900568673878 l33.11525627660782,6.697231979937337 6.981592910457362,-0.0007642436196703822 l6.164315208010407,-0.6904264139944414 " fill="none" stroke="black" stroke-width="1" /></svg>