<?xml version="1.0" encoding="utf-8" ?>
<svg baseProfile="full" height="96.62051058533986" version="1.1" width="129.24131024208134" xmlns="http://www.w3.org/2000/svg" xmlns:ev="http://www.w3.org/2001/xml-events" xmlns:xlink="http://www.w3.org/1999/xlink"><defs /><rect fill="white" height="96.62051058533986" width="129.24131024208134" x="0" y="0" /><path d="M61.18557701141608,25 m0.0,0.0 m29.484403168821032,6.041167088450647 l0.039796947842595534,0.42205071892506474 -0.2629038583643744,1.3535405170293469 l-0.9001643158412673,2.112672626277192 -3.0762583810961317,5.525493952796861 l-3.329909118819543,4.456136272568059 -4.524125044664916,4.515319620350737 m9.52071503820083,-15.552968221915808 l1.2928844519836458,0.29888770895736566 6.983912410367317,-0.16369759181606075 l6.891678039742044,-0.722650843080639 0.6155011776737065,0.2854869637803105 l0.3202027148203227,0.5321945765013425 -0.5956702384944075,1.4200019383261693 l-4.887316643225716,6.087842377474346 -3.5928411351856626,3.2695893408742984 l-4.082898018652434,3.2318859131935693 -4.165730483943624,2.9188221333801305 l-3.5206642421132677,2.063177882821602 -3.7351947911008025,1.730138716377347 l-3.9633306493729186,1.3801069803954276 m11.06452916959098,-15.719034371806503 l2.5566625448428497,1.6846017510023015 1.9510347809268698,2.27609775672097 m-10.580006500021188,1.3488741378170233 l2.6969412882028463,2.3437863894074433 1.7638477854098682,1.9592176027607868 m3.5653527746128586,0.7809454039447269 l2.4062099599649422,1.8721340023723902 1.7875372703862382,2.044915763439874 m-19.33479622148072,-16.92867490333782 l-0.11762225498685415,0.6787488658218194 -1.657457178229047,0.8038626955881578 l-4.844802888503022,2.3853363665572096 -4.112400386279906,1.5638052322363805 l-4.943021978395341,1.376516255632659 m-1.3622805583219624,-0.9062282670380147 l3.7869374390142556,1.5533823760503487 4.2274635481512,1.522673085840427 l5.596011247753065,1.6593558464900782 5.490246858026172,1.2142187702002665 l5.346118072825555,0.8840991423462049 4.950212102954765,0.5837265184047269 m-43.78326505514235,6.308145190768249 l5.057813843791042,0.21345568283357708 16.147597023641264,-1.5032200890949423 l11.039173368474826,-0.8555278851989047 6.306920802354175,-0.17830104627529056 l3.3280140486959855,0.19787278892311674 m-21.343731088212152,-12.4610298539345 l0.7730394880872917,0.658313772227136 0.28699724947430666,0.8990238740862277 l-0.11544098395370829,23.116589205553073 m-33.205639220395895,-34.91538135949989 l1.8551520781575195,0.9696798679904503 2.3122407123748214,1.567531551185808 l1.8879474287304465,1.6443779999975152 0.7435849149524838,1.0172691862465948 m-12.224785527466999,10.676197015250857 l1.6914765308371933,0.29913367814504643 1.2146207297668001,-0.06423526069262538 l9.497449131253772,-1.9487808581883326 0.8035992903731873,0.2512685883759243 l0.38320890146927594,0.4940307488929616 -0.16806026123180837,0.571767145157894 l-4.768303936838884,5.266033859039629 -0.5825175284302669,0.9770116766710354 l0.5546065704280573,0.8013569165360547 4.668318222007525,3.0102644045815277 l0.44355161648127,0.4534463522668694 -0.0055459833730182005,0.3780059280351337 l-0.4686742474723725,0.6030274588632609 -9.651329745652273,5.506087365315933 m-3.0918148901597298,0.795331327582585 l5.107580111082844,-0.454263460888938 4.041892404041927,0.10088616799847447 l34.55887003235601,5.469623525828826 8.091662651640648,0.5679600286407391 l6.840251809313911,-0.3614390599034107 " fill="none" stroke="black" stroke-width="1" /></svg>