<?xml version="1.0" encoding="utf-8" ?>
<svg baseProfile="full" height="99.40584797955444" version="1.1" width="101.21437504117574" xmlns="http://www.w3.org/2000/svg" xmlns:ev="http://www.w3.org/2001/xml-events" xmlns:xlink="http://www.w3.org/1999/xlink"><defs /><rect fill="white" height="99.40584797955444" width="101.21437504117574" x="0" y="0" /><path d="M25,25 m0.0,0.0 m24.34619097404969,13.42648184470009 l0.41709209249351237,0.16927476114707368 1.657977402338923,0.08074779288777055 l18.725706627892905,-1.9052863987300923 2.9746790877358698,-0.14073554118867804 l1.5657192100263262,0.23091531938318707 m-20.24786719613627,7.6859528905825245 l-0.05369654507526939,0.71025114632705 -1.6211380561576494,2.2618832689428516 l-2.306045000890304,1.619694457609356 -3.0801950092180044,1.4755740878194374 m20.21802277904567,-7.2571746040922065 l2.2847290025715483,1.9407335402303862 1.5089775375943804,1.8022718865002851 l1.1656399785638345,1.6399783265601802 m-22.88181130657601,3.9368204252019257 l2.619231537415231,1.0313180616704536 1.7939841229281068,1.1120309907732455 l1.0541794252141719,0.9441986624190681 0.5424963337685373,0.9817106578287219 m-7.529711108078172,6.611952904613673 l1.3199917532806573,0.386450771312815 1.5261695491089817,-0.10071291730542589 l9.768020002071358,-2.1788531233690245 -0.5603866723996423,0.3274019260735548 l-2.8935837588677518,2.5877871916061355 -3.2370466859606704,3.0385235606720253 l-3.551209240673429,2.9905846196698085 -3.76029033522489,2.6146414146656496 m2.8874479038623773,-8.731710529856615 l2.2349851500044404,1.294542469551573 2.372051019216099,1.87360759362629 l2.23823818566698,2.3865496002926436 1.7879179583948328,2.6373240602136527 m4.6881782465837745,-16.760986653607 l1.2019086048012688,0.14579904903835392 8.870811008791554,-1.1411196590872716 l0.8688871981948746,0.08203366525276376 0.3841624120799601,0.2962564237883539 l0.12449363639835921,0.43640744607699383 -0.14700357814777687,0.5263848635185917 l-4.331671901664993,4.66944895063815 -3.09054553716243,2.85629197237233 m-0.4689123569656265,-6.577022134323007 l1.0729695897075304,1.521829090149081 1.0541116194390054,1.893238197765488 l0.8046421226881824,2.0226366879171773 0.4969471874384063,2.135061792057259 l0.11196654449667168,3.0605538065897866 -0.2603578709215384,2.5437411907719696 l-0.3938228464856372,2.1405673750136676 -0.6928551712352651,1.610245234436454 l-0.4849284365885222,0.42154736996561787 -0.5246905258220276,0.03820219288027929 l-1.6960177642446645,-1.5421689252522843 -0.7594525743772357,-1.1332791122926618 m-18.606977288226155,-9.536824799337928 l2.0130933211577964,0.20291943818015482 22.82718364454157,-1.6777541728921008 l3.3272815747700135,-0.08320422093779226 1.538507463942283,0.2070693147778943 " fill="none" stroke="black" stroke-width="1" /></svg>