<?xml version="1.0" encoding="utf-8" ?>
<svg baseProfile="full" height="102.30054302297522" version="1.1" width="101.87641993427421" xmlns="http://www.w3.org/2000/svg" xmlns:ev="http://www.w3.org/2001/xml-events" xmlns:xlink="http://www.w3.org/1999/xlink"><defs /><rect fill="white" height="102.30054302297522" width="101.87641993427421" x="0" y="0" /><path d="M26.739974246751807,25 m0.0,0.0 m24.930586943109095,3.1042110383197086 l0.40930685168090564,0.1148783358425091 2.908679179047918,-0.037796732230525196 l16.067755622998305,-1.83549365826592 2.2770684633003366,0.06729174148920203 m-21.44601740695607,9.729228156654225 l2.3849317575878826,0.29128853921463244 18.35197457620293,-2.3570908649690008 l1.4752207360288572,0.524996967978612 0.30670721825659214,0.5468986612310482 l0.023071532307552718,0.8997126160848038 -1.7510418778739112,6.086311619375696 m-19.046240466554025,2.8776195017696997 l20.074709073748824,-2.3572460555334223 m-20.692364970410885,-5.916729730207485 l0.511920053396416,0.8224575315421695 0.29882269745730533,1.05866659302508 l0.015138336057280929,2.729620886788769 -0.4327030479177259,5.465389043347801 l-0.8599295899646214,4.757211583904905 -0.9915136694782736,3.4423041460973574 l-1.2848342595445505,2.9350697057772517 -1.5871359502448152,2.4805074144183292 l-2.131577450690829,2.334531945772994 m7.828849023559134,-11.590680273041013 l0.4601310892140281,0.88416240162632 0.10962180752679469,1.1003178905022375 l-0.053730491641152824,15.461455956772095 m0.511337640814343,-16.579621268560505 l18.16126523565961,-2.6534297705244563 1.4678449444817512,0.011053319366686708 l1.0910947104399182,0.4933606962463369 0.5939559525222834,1.0304152554940373 l0.13797022411383258,0.7414896341415991 0.01557119928735691,14.04680748079557 l-0.16339573269933325,1.642391293048806 -0.42789727261356886,0.6747664283650138 l-0.5823470837152925,-1.3184309986423832 -0.8542578821821536,-1.5228156599569593 m-18.43383302724715,-7.116851090081316 l12.348141214808935,-1.6409908499136172 7.477753767393421,-0.6887365474285445 m-14.570307880365062,-4.235201779242095 l0.2769543159257407,0.4973412790096847 0.17350670623563122,1.1912093919913431 l-0.035367645700071455,13.528192719150951 m6.090702648568796,-16.189072902556134 l0.3272993256496812,0.4660353433559268 0.2817832588023283,1.0459331484085672 l0.02841937574169622,14.052596447432093 m-34.23745472999267,-36.18995786057412 l1.986322735937301,1.107024090739284 2.0252466546841537,1.5439230489113658 l1.6336965959989205,1.6129225653550172 0.6518506691327715,1.015632581995996 m-8.706348376936864,12.803187497533976 l1.3345971519137445,0.3628776064903445 0.9733267228214662,-0.11801777161818534 l6.5754623855611305,-2.857142765870965 0.561600579269812,-0.004867248551519833 l0.4471683447766578,0.4043869509462268 0.1694403919025568,0.611885905668916 l-0.18868217163378792,0.744087644885615 -3.8299730833287846,5.499640399235066 l-0.4305842981769062,1.161235125802417 0.4964639771916038,0.7545757355225883 l3.7894686968179263,3.7158994269625314 -0.0011202257940712192,0.5071463496451093 l-9.759459400112311,2.02123249172657 -5.473190298342372,1.3837100707997112 m-1.8314063445680941,0.2249947161683155 l7.347550094522333,-0.35805756770408886 6.745508302728488,4.147521346781105 l11.170040103500668,8.195701629147374 7.081238932623003,2.3340659817588363 l4.419396970923433,0.531763625092159 4.342878069750318,0.04963491293690711 " fill="none" stroke="black" stroke-width="1" /></svg>