<?xml version="1.0" encoding="utf-8" ?>
<svg baseProfile="full" height="109.4439642271027" version="1.1" width="109.4925132743083" xmlns="http://www.w3.org/2000/svg" xmlns:ev="http://www.w3.org/2001/xml-events" xmlns:xlink="http://www.w3.org/1999/xlink"><defs /><rect fill="white" height="109.4439642271027" width="109.4925132743083" x="0" y="0" /><path d="M25,25 m0.0,0.0 m8.008251786231995,2.9940515756607056 l0.14311691746115685,0.6981931626796722 -0.2692500129342079,2.1141450107097626 l-1.77428737282753,4.108723402023315 -2.23660945892334,3.9116209745407104 l-3.8712218403816223,5.6869953870773315 0.09180315770208836,0.7659472525119781 l0.3771764785051346,0.464133583009243 3.2036450505256653,1.5480178594589233 l4.126839637756348,2.933896780014038 m7.118889093399048,-12.011675834655762 l-0.15579815953969955,1.9887816905975342 -1.6925840079784393,2.8438597917556763 l-6.452942490577698,9.554412961006165 -6.213810443878174,8.231215476989746 l-0.24293644353747368,0.8442086726427078 0.3226471319794655,0.755077600479126 l0.662323385477066,0.2259073220193386 12.665666341781616,-3.4504762291908264 m0.35616185516119003,-6.817438006401062 l0.3116416186094284,2.6931342482566833 -0.5827032402157784,4.50546532869339 l-0.9775428473949432,4.60003137588501 -1.5188509225845337,4.914526045322418 l-1.663779467344284,3.8695916533470154 -1.5391409397125244,2.723206877708435 l-2.4771907925605774,3.2181379199028015 -2.2003772854804993,1.9833467900753021 m19.13056492805481,-48.55685234069824 l12.806971073150635,-2.1889641880989075 1.0601522028446198,0.05240072030574083 l0.6634103506803513,0.4279014840722084 0.3320448473095894,1.4713868498802185 l-2.2484302520751953,18.238892555236816 m-12.417476177215576,-9.269628524780273 l7.9478806257247925,-1.142716109752655 m-8.011648654937744,10.469635725021362 l12.02870488166809,-1.8327569961547852 m-13.507338762283325,-17.530553340911865 l0.756889209151268,0.9811661392450333 0.40387503802776337,1.8195776641368866 l0.09504707530140877,38.72852563858032 0.4097853973507881,0.5905837193131447 l1.0876885801553726,-0.5094237253069878 12.933602333068848,-8.778320550918579 m-2.976831793785095,-6.498594880104065 l1.6518227756023407,2.4076250195503235 1.7612439393997192,3.4047332406044006 l2.152279168367386,6.06018602848053 m6.063809394836426,-36.24372482299805 l10.745000839233398,-2.4203063547611237 1.0087025165557861,0.12128706090152264 l1.3931253552436829,0.9702964872121811 0.20561734214425087,0.7391354441642761 l-0.24058135226368904,0.8347883075475693 -6.923235654830933,13.728172779083252 m-0.007421926129609346,0.0 l2.6790037751197815,2.1909570693969727 2.6771923899650574,3.7224888801574707 l1.6605186462402344,4.192057549953461 0.6514084339141846,4.176115393638611 l-0.35095348954200745,3.67538720369339 -1.3465671241283417,2.6895111799240112 l-1.04421004652977,0.8228316903114319 -1.290588527917862,0.39429616183042526 l-2.3960308730602264,-0.345088392496109 m-8.753682971000671,-36.54517650604248 l0.9695718437433243,1.066673919558525 0.5134432762861252,2.054543048143387 l-0.19161703065037727,49.377875328063965 " fill="none" stroke="black" stroke-width="1" /></svg>