<?xml version="1.0" encoding="utf-8" ?>
<svg baseProfile="full" height="115.3385034938545" version="1.1" width="107.0331980379045" xmlns="http://www.w3.org/2000/svg" xmlns:ev="http://www.w3.org/2001/xml-events" xmlns:xlink="http://www.w3.org/1999/xlink"><defs /><rect fill="white" height="115.3385034938545" width="107.0331980379045" x="0" y="0" /><path d="M32.23149723227174,25 m0.0,0.0 m6.073578556839514,16.86932867406582 l0.10266329465488878,0.46106579939800174 -1.1220988500859745,1.69335157413455 l-2.625447155231649,2.5061821264536386 -3.1811478347077675,2.4237014435975266 l-3.938346014960053,2.348975635898056 m11.043364987202368,0.6805895915409288 l-0.038367828643363196,1.2731394611207276 -0.4990491066450684,1.3391823540199916 l-3.2439268181126026,5.282032170653106 -4.279816100304982,5.393738637664742 l-5.522904362277054,5.351693008312305 m8.870180394108859,-7.418468907117104 l0.5491823823023183,0.8443651887505649 0.28266748841925193,0.9743644449677664 l-0.04586718329493007,25.31526229039388 m35.00872788097879,-50.17339074118433 l-0.435364884164299,0.9071373552473039 -0.7704577706281535,0.623989912291084 l-4.033365531566068,1.865383323047783 -5.665889810041948,1.7156258406038831 l-7.934579300983168,1.9222965255716333 m-3.4799617729784402,4.942280699311563 l3.4287629002479645,0.12250551252683536 22.758308239204727,-2.547432701613963 l5.975132619737364,-0.394182216498904 2.525722386562225,0.1425201967654909 m-32.97024326290862,-4.291156994586854 l0.5372799067191276,1.0993339173755308 0.15237389570168122,1.8691860692541955 l-0.06053753088334752,22.034055967754078 m16.950727177041525,-26.075222008964147 l0.4329544789745295,0.9534805390152756 0.02692036022933219,1.206305137064907 l-1.7607769188052338,23.289111483328384 m-23.019775358755567,-11.5104851104656 l16.523579123619413,-1.7840529722297176 m-15.834826977187056,8.813315557813752 l15.918302763740312,-1.6078179799478047 m-28.030729421983196,9.097381155360628 l5.511162932213298,0.06409666673763531 30.791772851537903,-2.467272786574856 l4.775154033986628,-0.10651901513872868 3.0065946064287394,0.2902479800378367 m-26.843514151042715,4.032565340080767 l-0.08235845244348618,0.6880922523979965 -0.6270798725958915,1.0012468081507593 l-7.601299800616108,2.618378505747038 -6.865731593120443,1.9930815148564187 m27.442310451168048,-5.845429116364121 l3.342663138854399,1.2150733024629505 4.188209041832169,2.0498859447465567 l3.195338101963403,2.1237615179687834 1.420700634669029,1.6823509108830785 " fill="none" stroke="black" stroke-width="1" /></svg>