<?xml version="1.0" encoding="utf-8" ?>
<svg baseProfile="full" height="124.1424571820734" version="1.1" width="96.5834387793474" xmlns="http://www.w3.org/2000/svg" xmlns:ev="http://www.w3.org/2001/xml-events" xmlns:xlink="http://www.w3.org/1999/xlink"><defs /><rect fill="white" height="124.1424571820734" width="96.5834387793474" x="0" y="0" /><path d="M25,25 m0.0,0.0 m25.172065089705356,3.59117691215378 l0.028974387209448862,0.4918931300949099 -0.3427396373570871,2.004331284936035 l-3.3746595130380745,6.335721610769814 -2.9073753564276297,4.594129886351063 l-3.751999594294765,6.839082119020839 -5.725621196026078,5.980062732559915 l-3.1564546924769554,2.319468004915125 m20.78623443396622,-24.91859222577176 l7.033765893707152,8.643461876638522 8.051550855139576,8.937218702331927 l2.75530238237433,3.0623962436013854 2.014395726865915,1.9298057332392695 m-28.385686205218946,-5.464401404471785 l2.021540010914233,0.15401469562658465 9.533332371722041,-1.310920003470204 l2.6023124801663666,0.05310350451172352 m-19.952182646714977,11.68958324574953 l1.7892697251393108,0.330804713560833 1.4293374538271788,-0.0685504386694578 l17.395087646840242,-2.7401762999332284 1.225933068653065,-0.08180940061241256 l1.1205746763756153,0.1934042568287866 0.8834075662407749,0.33107122438188225 l0.4875490554320135,0.49477932708290273 -0.4368096568374995,0.7098124904705753 l-0.8488582985244084,1.008462413604529 -10.644349424660204,13.167084339105593 m-5.1356928291146104,1.1777814070717267 l0.5231158740447795,0.9137582489825827 0.35070150004976414,1.217869305317986 l0.17295199910790748,6.429799107958638 0.15989125284955405,5.84890637279945 l-0.37701964350079264,5.141902105140821 -0.8232870063685791,4.09747714339503 l-0.4132752202324584,0.7834512480405205 -0.45636594743353176,0.2550935687599932 l-0.5104255504112257,-0.16128175869707517 -2.0101670484960485,-1.9691166895431005 " fill="none" stroke="black" stroke-width="1" /></svg>