<?xml version="1.0" encoding="utf-8" ?>
<svg baseProfile="full" height="106.90874763864636" version="1.1" width="114.95856469624901" xmlns="http://www.w3.org/2000/svg" xmlns:ev="http://www.w3.org/2001/xml-events" xmlns:xlink="http://www.w3.org/1999/xlink"><defs /><rect fill="white" height="106.90874763864636" width="114.95856469624901" x="0" y="0" /><path d="M30.736407517871342,25 m0.0,0.0 m26.194215428131134,13.299481371932455 l0.0375125826981037,0.35208010779739507 -0.25708272095561485,1.6516134848805881 l-3.479745699256605,2.8443775668113735 -4.4733189895018475,3.0090631973081097 l-7.479318279886688,4.360527358600644 -5.011752292199337,2.636394224613939 l-5.301236127773803,2.668292576499882 -5.965681419126681,2.6001437774785767 m32.177599473294336,-18.897837123161896 l10.371131866448398,6.054330710014521 15.231671871984185,7.682674287344869 l3.250897467037567,1.4242886370802288 3.927264017484531,0.8648828644565146 m-32.29188920720506,-3.341886348473343 l0.8941730634941616,1.0239628703227694 0.3276170599917135,1.445692206512757 m-11.59353685777042,2.592634206860631 l20.45774477501896,-1.561881308266827 1.5877217551615836,0.2978114512303992 l0.42940173206503535,0.679388831849963 -0.22863142548216966,12.831068475173847 l-0.3046246463902176,1.0133233877419567 -0.525951227436835,0.4671176062800024 l-0.6699652947249753,0.09716630869397408 -1.5176431691828074,-0.5177569501841992 l-1.8999727512071978,-1.1064164653900121 m-8.910725260281845,-9.462482196711417 l0.5954047769004053,0.7087323712582089 0.15300465674776711,0.8308470837751915 l-0.04692259313951529,8.161099360753882 m-11.018240294185254,0.8948215567226292 l21.68187722118183,-1.0230160745211003 m-25.415250797386943,-8.1396964568044 l0.6648202093566574,0.6082913300918067 0.3592416070172933,1.0491843821075033 l-0.05045991108270559,17.313176748859586 0.37744994730144543,1.0702876016527705 l0.5612126631745724,0.4000099579069343 1.459037326426821,0.02695465954565147 l13.003017038810464,-4.2090816212834925 m15.522766087416384,-11.375783654787949 l0.2856653660614641,0.4162039768906628 -0.24414853008115855,0.687388502492298 l-2.247550617433077,7.935685282474794 " fill="none" stroke="black" stroke-width="1" /></svg>