<?xml version="1.0" encoding="utf-8" ?>
<svg baseProfile="full" height="116.43936929510313" version="1.1" width="92.8904591286744" xmlns="http://www.w3.org/2000/svg" xmlns:ev="http://www.w3.org/2001/xml-events" xmlns:xlink="http://www.w3.org/1999/xlink"><defs /><rect fill="white" height="116.43936929510313" width="92.8904591286744" x="0" y="0" /><path d="M25,25 m0.0,0.0 m6.544319250722937,13.621119074453794 l0.13848543328598745,0.4781932158919068 1.2765261247366502,1.7846185982595433 l1.3813309398613274,2.3385570612839652 1.204144984510577,2.6600401801893128 l0.6671426864212505,2.079175728341894 m9.871395700836535,-11.451383497853591 l-0.20537834026034277,2.0692124237045992 -1.0302215497471017,3.180923486733865 l-1.36343304590915,3.0228409564335315 -1.7558384141703838,2.7237409353033506 m-11.204931523118544,4.889262880366754 l2.7360873821339853,0.14903024649087918 12.562664452969935,-2.4126681722389165 l1.4641101971786779,0.055768638337860624 m-16.777956736561613,15.81721788182096 l1.1753175883672005,0.32175224406277725 1.299393152480011,-0.19581585767870657 l12.919375744392903,-3.096445364813967 1.1528023035119446,0.21697368692885127 m-8.236164637015136,-26.677420839878472 l0.38435697313847506,1.2429109233937792 0.16045407006180284,1.8408651074559461 l-0.0421905229319053,51.78089975811322 m10.789624593938935,-49.65705555858336 l1.4498313530563214,0.19988175374563272 1.6883328403503421,-0.21335526055460385 l11.157426026086489,-2.886155093880161 1.0255146400383104,0.3347688896426515 l0.20187973971993645,0.4422111246326245 0.07945446536918034,0.6819774337339687 l-0.72749504924045,0.8315448437447457 -7.25883296453896,8.358675281096435 m-4.013725163686642,-2.9325829473467095 l3.399959688020484,2.6605250034585457 1.3013845668690427,1.5382218369376277 l0.7641689462742915,1.355838776666163 m-10.654591532339325,3.316127221042411 l0.5634783261291745,0.20147124878116515 0.9952194725082262,0.018355130981192836 l15.598205864046646,-3.49991609301819 2.032458956714535,0.16486429982800022 l0.17637214446184818,0.48086166338998 -1.1925279130651545,0.7218537945653154 l-1.912804865887504,1.8772213041816292 m-6.884531105413155,0.0524543740914251 l0.5697809967077676,1.0982983416546475 0.20535727144240126,1.2936050674234285 l-0.05703982297550989,25.290878950577387 -0.1499078246456534,0.9692778667692871 l-0.32290160126347517,0.4641612716003067 -0.4628226988056112,0.04108220423277135 l-1.1791103883228793,-0.9241079763939067 -2.1200445496870657,-2.2851969841883544 " fill="none" stroke="black" stroke-width="1" /></svg>