<?xml version="1.0" encoding="utf-8" ?>
<svg baseProfile="full" height="104.17629828685617" version="1.1" width="105.31160250411324" xmlns="http://www.w3.org/2000/svg" xmlns:ev="http://www.w3.org/2001/xml-events" xmlns:xlink="http://www.w3.org/1999/xlink"><defs /><rect fill="white" height="104.17629828685617" width="105.31160250411324" x="0" y="0" /><path d="M25,25 m0.0,0.0 m5.648241810626047,11.392426331330192 l0.33222401045602434,0.32594216634147366 0.42448674211254606,1.491888494025747 l-0.005282423082064265,36.54692318610428 m0.38339090824469163,-38.56300754129959 l13.237293570175273,-1.9817255403907958 0.8784039701594385,0.03599041867445236 l1.057685931382338,0.5695309931197751 0.2024225719474477,1.337513184158677 l-0.7460183916371229,11.674268666800415 m-14.155739884716056,-6.025870711914618 l13.900854892596858,-1.6351747719337935 m-13.999104635235216,7.762587368565713 l13.500037007367595,-1.413547747327406 m16.847211818044883,-13.184623381798145 l0.578891997213055,0.915727423719516 0.08721900425582897,0.7451326368852658 l0.01411749602041963,11.617943833971468 m0.6563268566531283,-12.279304012571554 l14.246841477685518,-1.7243227876975546 1.3752450497939919,0.2537170883214271 l0.8468527240486069,0.7605980998614449 -0.09022772842186524,41.06493166085852 l-0.3374092273035703,1.0167162223111095 -0.5415439044303145,0.5302685453545222 l-0.6988428407280126,0.05191263969324424 -1.6299536581053549,-0.8416493348722535 l-2.273187190698859,-1.8720745901833071 m-10.617103482801612,-33.56831640368109 l15.12851470946456,-1.1381741699562322 m-15.133639493722821,6.9203967135171895 l15.263131388789756,-0.9702921253799492 m-34.82428875951973,11.881739688132484 l0.6522920337759339,2.7549167486548978 -0.05502179564122644,8.29738572424029 m0.05405785963144467,-11.157425604949847 l17.75736445065319,-1.4280185555261307 1.647613882123143,0.09558099757809087 l0.9912726859903723,0.675496574491234 0.2566898089844055,1.1849581880350017 l-0.39758982247691116,8.645720749759013 m-18.7576948539249,-4.764833855651796 l18.593797310666297,-1.453213901957441 m-18.012814100399208,6.6058364831080905 l17.589682144196654,-1.1062174189882361 m-9.484535456603785,2.125977623405829 l0.6095135982751801,1.2624957690433196 0.022819575204587387,9.955878271505707 l-0.3654012124857795,0.6212359908277478 -0.5743239045492199,0.16245226053974998 l-0.727677966464111,-0.23173229553810648 -1.6099363702089877,-1.1825748411997214 m-4.366110346193867,-7.880571145593334 l-0.264997218159987,0.7596202578722849 -2.296154815866968,0.6054550137195778 l-5.4676188895732665,1.7523790966653445 -6.0277247333356065,1.6295697546643217 m25.515140452982852,-5.866787402737637 l3.0707449630492176,1.3369112160340209 2.799514855168373,1.726215523944601 l2.225154909216467,1.8210160039989336 1.0338247791966682,1.4578499189753618 " fill="none" stroke="black" stroke-width="1" /></svg>