<?xml version="1.0" encoding="utf-8" ?>
<svg baseProfile="full" height="94.30581122358868" version="1.1" width="99.39530481583148" xmlns="http://www.w3.org/2000/svg" xmlns:ev="http://www.w3.org/2001/xml-events" xmlns:xlink="http://www.w3.org/1999/xlink"><defs /><rect fill="white" height="94.30581122358868" width="99.39530481583148" x="0" y="0" /><path d="M25,25 m0.0,0.0 m24.084745639988963,14.006038728220243 l0.3393793767282539,0.2979572065821272 0.44434707462816725,1.0868404356061474 l-0.054683859720361,18.72229660774006 m-10.24132636032912,-18.62605225659867 l1.7698418228797175,0.3177593301713154 7.790613337179271,-0.7620402075620792 l1.2715585426293856,0.07475433233951546 m-11.050561555884816,6.606117808164367 l1.5547636986516293,0.16813717816708623 7.934209456265127,-0.980769109073298 m-7.488429471509927,6.0506399193911005 l1.3021407754305583,0.2289929123878848 5.9263732850035,-0.867849589023286 l1.327299688608139,0.001966128062194397 m6.8637452395731176,-15.239053885332554 l2.123254451073286,-0.9472161488108717 7.684380838871437,-1.0158401343296823 l0.9187976593966559,0.12037970333839523 0.38135969134719716,0.4049659068327637 l0.0230220634706853,0.5336998904195076 -1.2259454249842223,7.401903238201208 m-9.11088347002278,0.9981648679276933 l1.4440511502904843,0.12580754497116348 8.693529742733231,-0.6570003842886916 m-9.188277765652208,6.0293511605598855 l0.29336206038190127,0.20432507755170615 0.08951958260006672,0.14740529115557713 l0.0878490037761017,-0.9145775637811241 m-12.697895301053022,4.909261664536009 l0.3916724734113444,0.2802735256936582 0.20235314152014328,0.593406593889201 l1.1013938179878964,6.069764974316765 m-0.8457742487061504,-6.967960136486789 l10.47587662115561,-1.4361599351099807 4.202431619185918,-0.41581368187504536 l0.7536124939942956,0.15790146721058365 0.3532480454114946,0.6663927474921825 l-1.649321900735169,5.678085883139657 m-12.741622108562703,1.563497833383013 l13.876108754208444,-1.4593084677924013 m-27.573607320698414,6.897086069971797 l-0.45345178643349676,0.29050843355541756 -1.01655682692128,1.381053937010301 l-3.01201809747535,2.580716325664627 m13.511581153732465,-5.130676842029281 l2.0348261946000457,0.645272230090644 1.7064856179173078,1.0132422131867307 l1.323615769371697,1.1713469456381889 0.9639957049749995,1.3019929666958856 m7.848894971361624,-5.329773045307338 l1.3359589415168678,1.023911957090801 1.4686403512810797,1.6179071092539856 l1.1749088440649442,1.6185963066677977 0.5890693503709311,1.256033427782222 m6.581455921004512,-5.661814012325188 l1.5900639384599518,1.1926419376776238 1.9234221383369838,1.9400494391650303 l1.2849116360411965,1.7552380480620924 0.7029886331038845,1.519978435340545 " fill="none" stroke="black" stroke-width="1" /></svg>