<?xml version="1.0" encoding="utf-8" ?>
<svg baseProfile="full" height="95.70658275535716" version="1.1" width="98.7921255352395" xmlns="http://www.w3.org/2000/svg" xmlns:ev="http://www.w3.org/2001/xml-events" xmlns:xlink="http://www.w3.org/1999/xlink"><defs /><rect fill="white" height="95.70658275535716" width="98.7921255352395" x="0" y="0" /><path d="M25,25 m0.0,0.0 m5.799999437481265,12.515794899072393 l0.3847214564406104,0.1053397719983268 2.389212037909581,-0.023897779800434886 l10.860374675187462,-1.9622518040516714 1.9101850108922518,-0.07478880048867796 m-7.679339233605867,3.519882514766167 l0.05786791453896788,1.2167812125066746 -0.43031572241679095,2.769919728402238 l-2.1946362481567974,13.25401487746101 -2.110559675309052,8.667504753657399 m3.4175162205492,-11.410464101508957 l0.4997799684766417,1.8331364714457556 1.0487876333910289,15.295611011896936 m-0.7289110258621957,-16.715046667107327 l7.4795743600742135,-1.8631257486130919 0.5838131827764312,-0.027038180068086497 l0.7351979258387301,0.5478945563658622 0.2736786587234033,1.3358188331617873 l-1.295385687646108,12.124140347781069 m-6.642899333048482,2.1887624686122042 l7.5804840692037745,-1.4716671961056678 m6.938876556107234,-40.1138993401018 l0.9383048325135196,1.0104304355513558 1.1867313224642977,1.875734286789186 l1.2991796750142752,3.0447011771543164 m9.688517590825649,-7.498614946413221 l-0.08358675360878165,0.8895685243146592 -1.046558260908096,2.440465715073619 l-1.2715504756404532,2.1323097287062813 m-12.342875959534153,2.9678067105712933 l1.7241912193663522,0.10176730819878001 14.02815151668885,-1.7486603828767922 l3.3601787575477524,0.1009072296129485 m-10.647083305703005,1.7208363851988278 l0.32295195135532145,0.5943788369195699 0.17934554058037294,1.0577307291627607 l-0.00011039988949388116,8.681902540962897 m-8.184439272715254,-4.74219099701652 l2.305565295581354,0.0722192875454867 11.717749746957233,-1.58859718002078 l3.3174530606115185,0.03759556973151811 m-19.978206617535236,7.46892423382323 l3.1700176819926753,0.155380672254192 16.401689468736187,-2.0314406847162734 l3.8284867389931176,-0.20453163945384936 m-15.913350850943122,3.8189189689733403 l-0.1299958130795045,1.1648230648620268 -1.275948029246157,1.7287943450099912 l-2.077068801418012,4.15029432506302 -2.144463090332533,4.48487726982777 m5.033514319584308,-7.664164554269857 l2.010893795321473,-0.10775261821391754 11.130587629044136,-1.75719690695609 l1.1472802207715127,0.07150333105386329 0.7927523282546556,0.26833526765894006 l0.3840811463811976,0.9884012714350822 -0.036737884602375245,0.7431750421196084 l-0.7059306021253731,5.302025375645002 -1.0222992206761445,5.16491631652298 l-1.3318630640036995,4.695223127092485 -0.7822690360079807,1.8045293062259933 l-0.7795884300876544,0.73140357002453 -0.885367619719055,-0.38151112489030625 l-1.1647568971535291,-1.5773446845305743 m-11.73970183713669,-13.240241733027478 l1.0771898549435364,1.0341664387192095 1.0907741156026114,4.758669895015874 l0.3685452363035356,4.096386386745505 m-0.8933861619505741,-9.00476837471287 l9.180271956555202,-1.573443841325291 1.131963104795048,0.37408546176315016 l0.3133862384458539,0.8794796514281201 -1.010933315746354,5.653831046590329 m-7.854198976296984,1.6017913713044503 l8.352650100010221,-1.3005296173931973 m-17.14479699601328,-5.7833414392259 l0.3994979654767425,0.9538556361604394 0.054422882448647826,1.0787472665083588 l-0.7361417585252439,8.020551736483167 0.07199870863139114,1.0829705961034712 l15.764140288493897,0.17627065886806592 2.851902518040379,0.08471863265852986 m1.0212592240336995,-17.197780248503783 l0.44162237147329536,0.6711159433220912 0.1874041376261263,0.9900286270279652 l-0.0728794103377528,18.740413051305786 " fill="none" stroke="black" stroke-width="1" /></svg>