<?xml version="1.0" encoding="utf-8" ?>
<svg baseProfile="full" height="90.54107312329816" version="1.1" width="110.50043149047042" xmlns="http://www.w3.org/2000/svg" xmlns:ev="http://www.w3.org/2001/xml-events" xmlns:xlink="http://www.w3.org/1999/xlink"><defs /><rect fill="white" height="90.54107312329816" width="110.50043149047042" x="0" y="0" /><path d="M25,25 m0.0,0.0 m12.696921871259445,3.7560801601417024 l0.38075531859152595,0.4690073845301502 0.5745778592879777,0.9645174926512903 l0.808125660982066,4.158366041631864 1.9136672799011538,13.820529058134237 m-2.165655495918152,-18.627694041922577 l34.90253716041157,-2.8844372624775803 3.9700675381532267,0.23378788001974066 l1.0906975540664592,0.815111557119986 0.24452889230586453,1.1472553986820229 l-3.123918230142596,16.45853792038055 m-35.77684191297628,-7.736365559689598 l25.974019428730255,-1.497740021990882 11.54879915864899,-0.399639863811815 m-35.671080705994434,10.290359124623999 l34.4427129794346,-1.8084033889736566 m-18.90958419942706,-14.741571295316552 l0.9617945717478896,1.1569877495903909 0.3323247327054053,1.1219232532375238 l0.10054072896314378,31.90212639902989 m-18.97628900502357,-8.950777955614853 l4.803633946544334,0.25340948938773716 25.888444392858432,-1.8555769664998827 l5.044115313532667,0.105864435711879 m-43.931879685643516,12.101985253399663 l2.4195483467312995,0.272617636595356 3.500602075022685,0.014813244727570013 l35.70430007618848,-2.05079378482447 7.847123800204875,-0.11550999841338119 l3.905842039323666,0.3032422645677904 " fill="none" stroke="black" stroke-width="1" /></svg>