<?xml version="1.0" encoding="utf-8" ?>
<svg baseProfile="full" height="109.23834656803405" version="1.1" width="109.53260659820526" xmlns="http://www.w3.org/2000/svg" xmlns:ev="http://www.w3.org/2001/xml-events" xmlns:xlink="http://www.w3.org/1999/xlink"><defs /><rect fill="white" height="109.23834656803405" width="109.53260659820526" x="0" y="0" /><path d="M25,25 m0.0,0.0 m16.569554683194767,7.6963552072348245 l0.005443924488886389,0.4714584975369528 -0.17324710823985062,1.357893241287862 l-0.8397530591214911,2.2441882612240205 -3.0642013907502235,6.087080568363619 l-3.7378176571077173,5.763857747413394 -3.5760465804129873,4.049631016144803 m12.44953183609517,-16.372649855347348 l2.2505933110415763,1.4295632160940652 2.1487993488957344,1.8099186208022746 l1.881823445780595,2.133852100586516 1.4217158586162952,1.9012220858795097 m-15.032571472808169,5.483180320840179 l2.907035833010153,-0.041188435213827465 9.67964740037527,-1.2146239313959997 m-16.9118867427002,10.018430764091658 l3.6744874574662365,0.13963268719029653 14.482077264800314,-2.011899570222143 l1.7322668469874418,-0.02175896126826158 m-9.6711184287273,-5.787364390823387 l0.5824484877464503,1.0113619744471647 0.1303335472222069,1.239416049713931 l0.009899520644313905,22.52968802456458 m-9.004242903519728,-9.499403930545405 l1.9838163549753651,3.2479818736390014 1.4294245135214623,3.877590033865453 m13.083452420491982,-11.333552833792695 l-0.15385284789978723,1.4015406651168718 -2.697090272417585,4.95953599816554 m-15.171896471414014,11.656214449852977 l1.148577460404583,0.3701464110273067 1.120250432005715,-0.15168581808069057 l15.176383555175136,-6.610938445855093 m4.131956204112557,-24.963210015601824 l3.3362001030781623,0.09011975574466005 19.837727657412252,-2.1261156806352863 l2.6967212487448777,-0.031758042270982806 2.0545690522069027,0.25111733233872513 m-14.799018432888506,-13.458352379453476 l0.5865059830710595,0.885169941072565 0.2866712593074581,1.587797588728306 l0.014980324827527118,49.1689044255734 m-0.9444024380014165,-36.05771672878825 l-0.37036678053401423,1.7420287147918123 -1.5992584383183217,3.0361842343458947 l-4.79158947403215,7.574806692125016 -5.066046180855493,5.578416196864702 l-4.846847931419514,3.931284365678345 m18.221727209706987,-20.928651483318305 l4.589078904167249,6.4310108327011095 5.801826644741643,7.469554316305771 l3.6544470527191675,4.452610381264108 2.9038860623382345,2.6361216080291485 m-26.310172182492977,0.2172742226084955 l2.798018650786192,0.29277807011553386 12.62823830883861,-1.1373097807298143 l2.295148847752765,0.08022574680478005 " fill="none" stroke="black" stroke-width="1" /></svg>