<?xml version="1.0" encoding="utf-8" ?>
<svg baseProfile="full" height="116.31977880288518" version="1.1" width="106.7026001912239" xmlns="http://www.w3.org/2000/svg" xmlns:ev="http://www.w3.org/2001/xml-events" xmlns:xlink="http://www.w3.org/1999/xlink"><defs /><rect fill="white" height="116.31977880288518" width="106.7026001912239" x="0" y="0" /><path d="M25,25 m0.0,0.0 m11.675191326640372,3.105701298863518 l0.504659468855115,0.23918405640939475 3.3054102804295806,2.322377794712006 l1.3646528171163652,1.433489989238797 0.7326321925590971,1.1928381460191195 m-9.48158464433737,9.165010139418817 l3.7587883195456375,0.9574489139637221 3.020494149995366,1.2034750546944029 l2.6597567314419925,1.2734142583549102 m-8.859138839033642,24.66789615456756 l1.8690301044332025,-0.10048332942839074 0.8391460013771584,-1.008047302237629 l2.7928949325418095,-5.013646173640345 2.9685158699646688,-5.923796346379224 m7.705094772182967,-21.07318055977429 l2.1428124722532758,0.2477182104320992 2.797704274675857,-0.0417453534130096 l22.170777238326988,-2.4603671091759445 2.541756503539099,-0.08454947616176195 l2.1940062187163636,0.21540277927939588 m-29.861847745141826,9.85295304623126 l3.1588446481177144,0.2283931222341575 19.976091241719878,-2.625548515062024 l2.2290143437998706,-0.18843463414782535 0.6816532272521039,0.168814698540538 l0.47338181015857417,0.3283969074551374 0.27996825469032943,1.111565959730267 l-1.942737255254176,5.490052032830752 -1.361656443396182,3.7000491414442496 m-23.441140870968454,-3.9263431129795667 l16.536972642898522,1.1003984853828066 3.257658628776448,0.719908205312799 m-21.880143668049115,6.058372476370649 l3.292485147379711,0.7167035071282742 4.260080576209826,-1.5701670722987855 l13.422182580707906,-2.3161803745258758 m-20.99509024417043,-4.4640164615726405 l0.6435839617412576,0.7104094955690827 0.20580967962374513,1.307098512459315 l0.3691423201783972,9.950523059572308 0.852389155693758,1.210052674430175 l1.2452693917914135,0.6554901045583041 13.712932952867346,0.7261871438109043 l5.091193881700199,-0.20615750875458602 3.31947802502927,-0.3875384529655514 l1.4779489107980759,-1.2031153316661853 0.3022628984348376,-1.2992803144951182 m-40.848925065083804,13.33961135245597 l-0.40939118501058874,1.6704904253414568 -1.1442595739706656,2.463327007883563 l-1.683262276943564,2.486989021979102 -1.7303996775581398,1.8685644227275322 m11.2866049361892,-10.92358475016011 l1.3559786406999377,4.210895478293064 1.592103582358364,5.037079279012751 l1.96997079845555,5.113348558143082 1.8885537493237565,2.729100005879067 l5.081523002523,1.8397628589546993 8.414956529696157,0.31746720203904993 l3.3834833933091106,-0.5208083617877218 0.7651925206482365,-0.8964885339436731 l-0.2554050228660612,-1.395088312260076 -1.7424433663450416,-1.7618420859429595 l-1.5537409606028803,-1.0906795758649683 m-14.052313284655643,-8.963615380188905 l1.5503299277750555,2.6093834658517827 1.186369892030337,0.8775975172788661 l0.5850213289088824,-0.09742335122697478 0.5392574114335332,-0.53696380460908 l1.1324935451786693,-1.8987809348995668 m9.714758842030053,-2.3586622491216134 l2.7758029308039935,1.3959709550078558 2.1332701185391314,1.4354242365351382 l2.0093738885448174,1.952715580682628 1.695951471329698,2.1393439793561178 " fill="none" stroke="black" stroke-width="1" /></svg>