<?xml version="1.0" encoding="utf-8" ?>
<svg baseProfile="full" height="102.60373747635805" version="1.1" width="101.75654987931159" xmlns="http://www.w3.org/2000/svg" xmlns:ev="http://www.w3.org/2001/xml-events" xmlns:xlink="http://www.w3.org/1999/xlink"><defs /><rect fill="white" height="102.60373747635805" width="101.75654987931159" x="0" y="0" /><path d="M25,25 m0.0,0.0 m28.580943502266187,3.594984332582819 l0.029910226417796063,0.42008163337460797 -0.34645699389606127,1.9655244501892588 l-1.419548259562602,3.141808933044613 -2.344570214781947,4.201347472874956 l-2.9426821816068998,4.519201160250799 -2.9946794312338914,3.6984806113372204 l-3.3279783014591855,3.5696137346462473 -3.7171483846291355,3.4706968622679923 l-3.0537240902053666,2.4253219313174443 m20.66688682843524,-24.32360587372286 l7.075538618833954,7.983000318495296 10.6459056820894,10.897137439195351 l2.0621642352265344,1.8734324876598103 2.8419886434175776,1.1631631813244454 m-31.18050890977504,-5.11186825465317 l2.250037369540743,0.1066585604984513 9.748829313416454,-1.4160036199652581 l2.818729075478871,0.03251308623743461 m-19.163480581526056,11.357619391294442 l1.907173206392928,0.2748082958719039 1.5073587781341475,-0.07665771778130735 l15.82564676125764,-2.6923628902491985 1.5354214188855824,-0.07712729496450392 l0.72844105804979,0.1665793028888888 0.8219949723998036,1.7455885716099735 l-0.44388965656011803,0.9781654302671681 -3.3712998573953494,13.496269541231879 m-17.921324859562333,-5.846894534103294 l0.8164827001665866,1.055193743573201 0.18757851166023826,1.0191222042584125 l1.1667545066739629,8.991944985505032 m-0.9007450788973722,-10.520636793044135 l15.271515497581673,-2.2645505883435004 4.256101826891922,-0.473428513522437 l0.6441218171096654,2.1966307704779107 -2.221027380598067,7.8531227357999445 m-16.81486972591092,2.3684713611201103 l18.13603185443033,-1.8720040126176354 " fill="none" stroke="black" stroke-width="1" /></svg>