<?xml version="1.0" encoding="utf-8" ?>
<svg baseProfile="full" height="97.66301952995249" version="1.1" width="105.69552507477255" xmlns="http://www.w3.org/2000/svg" xmlns:ev="http://www.w3.org/2001/xml-events" xmlns:xlink="http://www.w3.org/1999/xlink"><defs /><rect fill="white" height="97.66301952995249" width="105.69552507477255" x="0" y="0" /><path d="M25,25 m0.0,0.0 m14.152233784279186,14.978271740555211 l0.45523001885612746,0.10409097290594652 2.513008307237948,0.09819129504013348 l23.072796241552364,-1.8661482684800474 3.5972990889640246,-0.08588620870095551 l2.5871879432243796,0.21020581755943782 m-25.007612487666933,-3.6280558614040546 l0.8401464842056691,1.1130520369255736 1.1124128234083952,7.613886135802647 m12.86701298721103,-10.199469843247622 l0.11889672698591214,1.1911180233309495 -1.2325398811728787,8.093923216665114 m-5.704281564897749,5.10897432287819 l-0.029276975908309803,1.2245738434705227 -0.8407194214151821,1.0819226097473096 l-2.1421499680203646,2.051111430835488 -2.7390164008271793,1.850071818982595 l-5.297860248043796,2.7175399192449965 -6.545027751955986,2.6495657429276647 m21.92289900135125,-11.036722788430291 l16.469014827951955,7.623096871784838 2.66870774961717,1.274084496225164 l2.8571637898355284,0.7321196953749063 m-31.92886837159007,-0.8768100308526097 l2.3502759396475987,0.1812485806278888 12.271393321712722,-1.1569472542669235 l2.7258250078387496,0.10181048160876277 m-22.429883288310126,6.208740481608756 l0.5853129642578323,0.9786107553743191 0.19775970530004988,7.969211540848311 m0.2093058674929888,-8.231536970329506 l21.854652040214592,-1.824648637082688 4.188664491161812,-0.39573971834733396 l1.3028435036018682,0.09367413501480018 0.9123284719277717,0.5860833832191681 l0.25836268172424376,0.4944066161062376 -0.6401340237448747,3.852079297434355 l-1.1162472710536369,4.562270697425733 m-18.24109430013989,-7.311817615112497 l0.4708721309448997,1.042456324156184 0.44173600820681624,7.157715583947026 m7.9296987671738455,-8.707376151568647 l0.44284842137746505,1.2309176462927298 -0.34367686389453966,7.144171268935254 m-23.84183415105883,1.3625648084339494 l3.467023173085748,0.30241728648550903 17.411480188534963,-1.0886293687155797 l18.103470834297717,-0.43216925367074865 2.9082644741391497,0.38581575163990994 " fill="none" stroke="black" stroke-width="1" /></svg>