<?xml version="1.0" encoding="utf-8" ?>
<svg baseProfile="full" height="108.77340739435388" version="1.1" width="101.5390169380025" xmlns="http://www.w3.org/2000/svg" xmlns:ev="http://www.w3.org/2001/xml-events" xmlns:xlink="http://www.w3.org/1999/xlink"><defs /><rect fill="white" height="108.77340739435388" width="101.5390169380025" x="0" y="0" /><path d="M25,25 m0.0,0.0 m7.9714891157388506,10.411884581553414 l0.1401255495400914,0.4253156040077148 0.39448686904159463,1.3247678810127983 l-0.07089374042513266,27.630503281214754 m0.4247039645708715,-29.835280395879284 l11.193899104161195,-1.9621973264179327 0.659729677718039,0.045746489709872225 l0.8471053242776586,0.7478306257369396 -0.23561688810211937,28.73725781151596 m-12.340680698728125,-14.653176326644056 l8.098648172268355,-1.091324643183007 m-7.944368409508162,14.697636166146923 l11.745638436610761,-1.4389691647953442 m12.081621665529546,-30.209348353555185 l-0.1322625551222393,2.3086906138000467 -1.746584831030067,4.2895651014047385 l-2.841213668603925,4.933137497433904 -3.3171523365419198,4.373170661335354 m5.208212701917914,-5.936786786274891 l1.3998434077005097,0.26260204940834836 1.882551997999217,-0.12707464350679196 l16.27838609527674,-2.1438555424922776 1.2919114473029147,0.7026640482208799 l0.4805870761224193,1.189698218823643 0.0688494602875143,16.15941632258058 l-0.6210168017689869,18.063375294432664 -1.0284835243575294,7.194126839977679 l-2.0193464359658733,2.6740314887864423 -1.1806591632861307,-0.8935518302645951 l-1.857977563388102,-1.980583244080463 m-14.740929417669836,-30.910506383588803 l0.351059897655404,1.5042608625839133 1.1251970957514141,20.70585689489163 m-0.8213988901513083,-20.571079834351593 l10.53260232064095,-2.150307881108393 0.7060110624622077,0.3085555315560994 l0.309547105025636,0.5646645558667843 -0.7158857091730761,21.421299449105835 m-10.298169114382857,-10.873574352544948 l6.747648342768888,-0.7914645039726543 m-6.648988434011538,10.36293898748528 l10.288988099295837,-0.8893234144699743 " fill="none" stroke="black" stroke-width="1" /></svg>