<?xml version="1.0" encoding="utf-8" ?>
<svg baseProfile="full" height="107.81904903538354" version="1.1" width="100.74027829273412" xmlns="http://www.w3.org/2000/svg" xmlns:ev="http://www.w3.org/2001/xml-events" xmlns:xlink="http://www.w3.org/1999/xlink"><defs /><rect fill="white" height="107.81904903538354" width="100.74027829273412" x="0" y="0" /><path d="M25,25 m0.0,0.0 m16.58977061209308,7.488733313014491 l0.006857475024459377,0.5088141114027911 -0.17560450315782647,1.449193167218159 l-0.8200965029622077,2.3920303830184864 -3.0161137221218315,6.395908504993427 l-3.6634929894437156,6.0943686424989005 -3.4903934589477714,4.309736054356567 m12.056815050841116,-17.45737751944757 l2.1415545031240555,1.5549811532036413 1.9894077686824867,2.1649810018495272 l1.7035899713488303,2.488969599843701 1.2568970325485043,2.3980645399031544 m-14.197846906652538,4.929608259167181 l2.054829616881714,-0.04519434936920081 6.082033623565911,-0.9668553644826974 l3.3545829266447083,-0.20889083416710982 m-16.006184964886614,9.788265193819221 l1.8731978037070074,0.28824569518456006 12.926623642496857,-1.6576102250328757 l1.4278459625037072,0.05989723280618386 m-7.686060680481915,-6.260093089762223 l0.3861240636290878,0.4740353319241349 0.2736124843330735,1.1124140335005572 l0.1803859639886829,24.544238657314523 m-8.132235286834778,-10.881186266530385 l1.975870457999818,3.8185101869967952 1.3043162063715854,4.156587848825977 m11.005983304606662,-12.354670234078048 l0.14155372416930095,1.4909766701454474 -2.991608778380858,5.97659777527144 l-2.668412597107851,4.936686979084539 m-10.434270225594613,8.417231337414734 l0.852302651968323,0.41185124549551133 1.53675634145243,-0.22837812093112894 l13.218902269738534,-7.249396607433162 m22.11546447015531,-40.92388133227705 l-0.1559467306645089,0.881107539861431 -0.5077122883768982,0.689707382986062 l-3.8736721272609724,2.608977158757381 -4.974611581976711,2.28379176678858 l-6.340607433894723,1.9047378894365565 m-2.092748020774565,7.226136178542706 l2.0892250560002945,0.24794861383653852 16.807163572212957,-2.002570975070328 l2.312394280648991,-0.15431293469787322 1.2989131695558664,0.23894928359410084 m-23.074868864044426,12.342971608917027 l2.833666072420792,0.28216348228918187 19.832714738822155,-2.159139067619024 l1.8721395813427169,-0.018050712756659277 1.541271557420439,0.2763776882130177 m-15.10590098296642,-6.598743311880231 l0.5543770333289508,1.1982578834175166 0.16931194959693685,1.1091813729779005 l-0.05994423373580018,16.012130497680552 0.10941010235305731,2.674614572600807 l-0.10397540282748269,2.06708914185344 -0.7092405974473766,1.9919880029854204 l-0.601154855286864,0.16466443629570082 -0.6703435618968409,-0.39828081039450614 l-1.5695146792813353,-1.7309219080463762 m-4.8922738813820725,-17.046103242024277 l-0.012444487099163397,1.7427014898210582 -0.8931698150283487,2.5875484352416724 l-4.9485193135538905,4.895889377715784 -4.431509245668903,2.6240738805930572 m21.482093219008327,-11.917440523671159 l2.4897724157688748,1.8506938640496768 2.9633820578164474,2.9241105821888302 l2.4174490332521663,3.217105630060866 1.1225138137068782,2.560924499391742 " fill="none" stroke="black" stroke-width="1" /></svg>