<?xml version="1.0" encoding="utf-8" ?>
<svg baseProfile="full" height="100.54791877388371" version="1.1" width="91.78683202266384" xmlns="http://www.w3.org/2000/svg" xmlns:ev="http://www.w3.org/2001/xml-events" xmlns:xlink="http://www.w3.org/1999/xlink"><defs /><rect fill="white" height="100.54791877388371" width="91.78683202266384" x="0" y="0" /><path d="M25,25 m0.0,0.0 m22.268637440516653,8.876586461465946 l0.3852937545222109,0.4005769895138487 0.39067440444312024,1.2115764766725927 l-0.062449825115828694,21.213322666700225 m-10.788473638669746,-20.764643158104498 l1.9484528141012447,0.3033466792100142 7.911569444012245,-1.0064253246622687 l1.3218278094049354,0.09261899371333919 m-11.338826636480874,7.763371575442082 l1.718060033790958,0.20315786519088472 7.982538555823618,-1.257489880803411 m-7.536065498440989,7.530857791564558 l1.354761291071194,0.24893445524140945 6.328023091508552,-1.0665412655283761 l1.347358653655483,0.005896117973175456 m7.022439149881868,-18.402831660815433 l2.2187147686023887,-1.1380951448838597 7.675613086029559,-1.2110802144478698 l1.1754168256149398,0.13166089083949764 0.4212609109861819,0.444045925476418 l0.04200558740612924,0.6447807541904902 -1.3288815033051018,8.940114285773483 m-9.362418841358535,1.237159692734539 l1.5575200136788254,0.15325519478735852 8.759101381740138,-0.8566171017085145 m-9.34726339359773,7.512053394483902 l0.29670930569137227,0.25810765652767076 0.0676258995809858,0.14439162743666967 l0.09287248295824307,-1.2494097908456696 m-13.309252216817208,5.797886350261263 l0.39626081852916173,0.32697886197677234 0.17680000963158415,0.7404858099399311 l1.1245930461047124,7.319838062179495 m-0.8170973228458874,-8.273531886570995 l10.756586387112467,-1.699136614343096 4.4491283442310285,-0.48457713771626726 l0.7339334676349558,0.174753588222032 0.3651338831658888,0.7974478166137023 l-1.7077966712424137,6.88642220996502 -0.7839811021100144,1.8818436424988212 m-13.737601590301093,1.490687931829119 l14.797607782649834,-1.4696489137262108 m-27.295196371018307,6.80580883557125 l-0.5048619501376909,1.4953325007493992 -1.0955612750868329,1.8138225087901005 l-1.591669128524021,2.077377005722314 m11.819370970433907,-6.563856347473755 l2.369467013604066,2.980772621600876 2.361402922821243,3.145422990819179 l2.494494742184906,2.205958907927106 2.5538110934694966,1.4006516790252534 l2.2746379380439987,0.7411752358418939 2.5999574376915655,0.4496114196352119 l3.0575254413695645,0.1437097414070948 3.014130859365051,-0.19480214118970543 l1.3216220804423155,-0.5533218174548928 0.13366068532611666,-0.41520715614612613 l-0.6560919424793751,-1.1023030388363657 -1.741168681515432,-1.522877721337337 m-11.942204202377424,-6.840607863619851 l1.460748999828987,3.183491101187253 0.6051752245259452,0.3699989784709951 l0.39257902561292607,-0.21741145805418738 0.35298928369080806,-0.7857750332913812 m7.733543360187574,-2.596261356321209 l2.7185071007631416,1.793786770121827 1.9688649576151558,2.5311144875452687 " fill="none" stroke="black" stroke-width="1" /></svg>