<?xml version="1.0" encoding="utf-8" ?>
<svg baseProfile="full" height="119.27243808386693" version="1.1" width="87.14662123017627" xmlns="http://www.w3.org/2000/svg" xmlns:ev="http://www.w3.org/2001/xml-events" xmlns:xlink="http://www.w3.org/1999/xlink"><defs /><rect fill="white" height="119.27243808386693" width="87.14662123017627" x="0" y="0" /><path d="M25,25 m0.0,0.0 m7.110701076990962,15.963196318725744 l0.11143596045447697,0.4288520907903066 0.3261466438864216,1.3372344408998398 l1.0615547463844826,23.369191559312636 m-0.6134895437643293,-25.012370144332134 l10.567509341220426,-1.6251651613383071 0.5056762496837597,0.06303291570643227 l0.6805216544835992,0.7155213221745266 0.2554132752587972,1.1890220284447346 l-0.9396132942131115,22.284215680577457 m-6.048154855600099,-22.530365070075568 l0.286137696052265,20.159581346108546 0.08455292576285602,1.8417651365411658 l-0.3600651215480388,0.8222728539224873 m-6.8117814757996,-25.796602513189182 l0.3312288588983218,0.9218343214058174 0.17465298013478403,1.1606732295296296 l0.033502588491878676,31.600491669209145 m-3.5389389955943216,0.7753904915729865 l9.389293796465768,-0.6910959331282843 2.8071174736068003,-0.02424131309814996 m12.910116659315504,-25.57107919561169 l-0.1390843960232327,1.3792888778903212 -0.4032645262408922,0.8850954565686531 l-2.74156709667469,4.045952218045104 -3.132113955804461,3.330206903815074 l-3.7702712946604686,2.9626249614967137 m-0.4065661153729221,-1.4447657820892248 l0.5340399198925164,2.213475960255758 0.09566998905437336,8.119386690262877 l-0.19839097072021278,6.104478522176518 -0.5879352920427902,5.831208598947338 l-0.8077172465969946,4.000910979678444 -0.9355763683857372,2.736775192602424 l-1.6245939103853586,3.0432533722557165 -1.6145966322521526,1.9006096068285567 m10.797439462418312,-34.856411602074736 l0.4876202892955007,0.7054132944919402 0.30726658939565504,1.458449908406642 l-0.4344685943289779,28.26990349147952 m-5.018469317159597,1.9386859523771631 l0.6292439146204095,0.4610250619708124 0.4970179112437294,0.0641991799015491 l8.567982661537874,-4.171687851064304 m-1.2341792671404903,-4.319718356011507 l0.8437876332714256,4.766103321328441 0.7449723223671282,5.070893666022716 m-1.5673574127714944,-31.193821689340723 l0.5036703302253767,1.1792169425049803 2.73252322298844,14.696281116499792 l2.4395312506221836,9.636362441418752 2.551847382077186,6.725068397325554 l0.5759821865013719,1.1239600438913828 1.1306599206536527,1.228657131856556 " fill="none" stroke="black" stroke-width="1" /></svg>