<?xml version="1.0" encoding="utf-8" ?>
<svg baseProfile="full" height="118.58439795591462" version="1.1" width="107.48882523664813" xmlns="http://www.w3.org/2000/svg" xmlns:ev="http://www.w3.org/2001/xml-events" xmlns:xlink="http://www.w3.org/1999/xlink"><defs /><rect fill="white" height="118.58439795591462" width="107.48882523664813" x="0" y="0" /><path d="M25.80456951566421,25 m0.0,0.0 m21.206542799789354,4.758517843253989 l-0.031215860025563907,0.4421187071745501 -0.48863285952258906,1.0313955189556623 l-3.77090938512057,2.322039184828596 -4.833978659159402,2.252709282800973 l-5.46260092922622,2.0475724513409688 m-2.376783699983259,-9.199859046300553 l0.6157096796890981,0.5753789942454041 0.3110743038280624,1.2267664553728037 l0.09448026145258508,13.196612601269345 0.434229157194696,2.462889354368331 l0.8207314352709116,1.1315532985799963 1.4929948304919534,0.6481217035584999 l2.737649055041219,0.2992022028136139 10.35093137891898,0.044477669159039716 l1.532325609044632,-0.6865489807879174 0.5081443354344887,-1.2129470953464645 l0.13945637088966498,-2.0128960335667667 m-0.39947980184402165,10.454164688313051 l-1.118346905339167,1.2319422230560948 -3.820443233914247,1.5255567085399748 l-6.0060862002202615,1.7170802697999192 -7.362180633403161,1.4676076071761752 m-4.319885790297327,7.7705659710998525 l1.7173209861526844,0.3065018981543238 1.9121720776899447,-0.09642177628660435 l21.22861969365048,-2.3688913639010587 m-11.141222627549995,-5.879015940936647 l0.42607354013980414,2.3437263256278915 -0.06353434598407816,22.492741459089427 l-0.1444346219530715,3.149126168046053 -0.5083686983010954,1.1870023508562055 l-0.7827700181719877,-0.031003971791051733 -2.25356510030669,-2.719086527829785 m2.9048486693383424,-18.928056452477744 l-3.0800636138614403,5.524353954749473 -3.6372857308708273,5.014776672310341 l-3.8309404318888656,4.069672932132613 -3.8051445527372656,3.015883530005962 m17.345220007382316,-13.225153265238095 l3.2627517458932496,2.0538465711301637 3.929029494820673,3.7609548653526583 m5.631048580319035,-42.845481337235235 l2.673266637475815,0.3285811898783989 19.951990065368562,-1.885382642455019 l2.3921490444464433,-0.0921903801033288 1.6851693189872747,0.33699280340009075 m-14.71077355321981,2.5837428425213282 l-0.059969544464783406,1.3231037936820258 -0.5284114058266808,1.9074684386822585 l-2.7571634938527954,5.768841646132159 m-7.136915774908388,1.2737663506169057 l0.829934362819856,2.4455918953612272 -0.03479702723689584,30.793091422410743 m0.6483314652841662,-32.01451638304951 l18.983097381612758,-2.182572774917152 0.8375967393909075,0.10790679260007556 l1.2645560600625105,1.017246423619305 0.41976154577651414,1.3368271092290733 l-0.6584965400437665,31.620638903484036 m-20.781571664018482,-21.70411682102897 l13.186550576078721,-1.1383585101888547 m-13.39564683109229,11.40915977476416 l13.386210388316572,-0.9826708638616528 m-12.573380546750174,11.15181517938073 l6.183257987695295,-0.7395725444614921 13.661811182957463,-0.8372001321979319 m-16.026943379962393,5.351795573138774 l-0.008711419531446642,1.2886128442371427 -1.4851248613100394,1.721139649801502 l-4.838767769999411,4.439141194068802 -4.614894242787549,3.6360175097057827 m21.66787064017875,-10.303667458182995 l5.303638051015677,4.585703689541395 2.385292873860675,2.677852413083835 l1.471859141909767,2.2209025065226595 " fill="none" stroke="black" stroke-width="1" /></svg>