<?xml version="1.0" encoding="utf-8" ?>
<svg baseProfile="full" height="94.65269607059707" version="1.1" width="101.9465708539287" xmlns="http://www.w3.org/2000/svg" xmlns:ev="http://www.w3.org/2001/xml-events" xmlns:xlink="http://www.w3.org/1999/xlink"><defs /><rect fill="white" height="94.65269607059707" width="101.9465708539287" x="0" y="0" /><path d="M25,25 m0.0,0.0 m20.41289778449221,4.626130917160327 l0.024490657754613804,0.4285814599146929 -0.1997493140367422,1.0117206996598056 l-0.683389839715049,1.485545309525154 -2.5930489647995363,3.8984168691733743 l-3.0561307277268495,3.4811650330794124 -3.4103261403876473,3.3495498185361416 m8.790114169003434,-8.031680176242185 l10.501388550637847,-0.1937646259091085 20.69463132437842,0.13900439854283014 m-25.14126660867844,6.35071972531668 l2.9497983809874153,1.1284592128471445 12.503437291744014,1.1728389949482676 l2.561427324082547,1.2561205195132223 0.37546063919994366,0.6577232907917249 l-1.0366918381736734,15.397162721343932 -0.8387212949452906,3.8192770242360523 l-1.2829586450295183,3.328284150801927 -0.9223862394632988,1.0662155219597802 l-1.2112304700725847,0.2812252053979042 -1.2886539717915528,-0.4452126745189848 l-2.39695311977574,-1.6332261291475898 m-2.9461021512855603,-20.822428424551948 l0.04872756467138304,0.8244442394709062 -0.3017785228035397,0.8891402953158241 l-3.0599811434578537,3.400902406241436 -3.7646031400975604,2.96056115280964 l-5.4271149710999556,2.6376546237582015 -7.698814971747378,2.8546473537773296 m-1.710197700109743,-10.71786482935066 l4.80122798808864,0.20569845103294349 32.68704562459842,1.1749994617965858 l4.5660233294873365,1.0420292088815475 " fill="none" stroke="black" stroke-width="1" /></svg>