<?xml version="1.0" encoding="utf-8" ?>
<svg baseProfile="full" height="109.49251531623304" version="1.1" width="109.43033535557333" xmlns="http://www.w3.org/2000/svg" xmlns:ev="http://www.w3.org/2001/xml-events" xmlns:xlink="http://www.w3.org/1999/xlink"><defs /><rect fill="white" height="109.49251531623304" width="109.43033535557333" x="0" y="0" /><path d="M25,25.000000583934785 m0.0,0.0 m14.410514831542969,-5.839347849700971e-07 l0.004409710527397692,0.5615353211760521 -0.2054646797478199,1.5995578467845917 l-1.0838176310062408,2.756793200969696 -3.9211153984069824,7.070983648300171 l-4.744882583618164,6.768953800201416 -4.3934231996536255,4.785225689411163 m15.561615228652954,-19.283376932144165 l2.9210740327835083,1.763293445110321 2.916349172592163,2.5518053770065308 l2.4987411499023438,3.0264753103256226 1.4220109581947327,2.551078498363495 m-18.79489541053772,5.582642555236816 l3.0740877985954285,-0.059549552388489246 9.41743791103363,-1.3881643116474152 l3.8914942741394043,-0.2273627370595932 m-22.086327075958252,12.88659930229187 l3.6127257347106934,0.17610447481274605 17.19279408454895,-2.2155658900737762 l2.597963809967041,-0.07442841771990061 m-10.292997360229492,-7.652872204780579 l0.7545290142297745,1.2095724791288376 0.1684151589870453,1.4996081590652466 l0.04466216079890728,26.966779232025146 m-10.502345561981201,-11.200176477432251 l1.9353887438774109,3.733755648136139 1.339779645204544,4.223690629005432 m15.991942882537842,-12.677249908447266 l0.007456471212208271,1.6896942257881165 -3.8035383820533752,6.393870115280151 m-17.992390394210815,12.072464227676392 l1.2477350980043411,0.6411315500736237 1.543949544429779,-0.26894405484199524 l18.424172401428223,-8.373781442642212 m14.898675680160522,-46.335930824279785 l0.1870080642402172,1.1147111654281616 -0.23170145228505135,1.14814892411232 l-2.5772470235824585,7.756819725036621 -2.953784763813019,6.750780940055847 l-3.735572397708893,7.123684287071228 m7.391185760498047,-10.525606870651245 l3.2401859760284424,0.23399008437991142 16.85550808906555,-2.3891372978687286 l2.190532833337784,0.677386075258255 0.8195871114730835,1.2437370419502258 l0.18790533766150475,0.917356088757515 -0.6415858864784241,9.09142017364502 l-1.756933182477951,11.85657262802124 -2.2872114181518555,10.773482322692871 l-2.8142186999320984,9.449058771133423 -1.437821090221405,2.5637993216514587 l-0.7120049744844437,0.656760111451149 -1.402202695608139,0.29533984139561653 l-2.028796225786209,-1.4040200412273407 -1.9055856764316559,-2.503466308116913 m-10.467454195022583,-27.54103660583496 l2.4991045892238617,2.295025736093521 2.615046203136444,3.241276443004608 l2.190532833337784,3.461892306804657 1.2261096388101578,2.9563289880752563 " fill="none" stroke="black" stroke-width="1" /></svg>