<?xml version="1.0" encoding="utf-8" ?>
<svg baseProfile="full" height="123.39297605535305" version="1.1" width="113.34787263303174" xmlns="http://www.w3.org/2000/svg" xmlns:ev="http://www.w3.org/2001/xml-events" xmlns:xlink="http://www.w3.org/1999/xlink"><defs /><rect fill="white" height="123.39297605535305" width="113.34787263303174" x="0" y="0" /><path d="M30.486195055044714,25 m0.0,0.0 m24.684482476035026,3.3215949704158807 l0.03733325535848741,0.5021776924629275 -0.45608147171781244,2.2572261451437603 l-3.3245552583570417,4.946086075085641 -3.452953220694771,4.331139598379943 l-4.488447253012149,4.614576465412049 -4.182974903657446,3.7887537655599712 l-4.600732520143754,3.797769567205904 -5.265218738583586,3.6903012623448292 l-4.437047420271668,2.678853002971565 m29.957369567935963,-27.563634100833866 l10.399307908323468,9.015168035517748 15.624241299350953,11.15270672694953 l3.2485555689194743,2.0538027766068776 4.118398288501881,1.2511090309608563 m-32.74925119444712,-3.552988605751871 l4.076922912758165,0.9590395283655928 3.6906868511451627,1.518975269376851 l2.419279299689815,1.5847559208869844 1.1486924617020522,1.3268174637272134 m-26.85637835896199,6.138055262367626 l2.297810904330738,1.9283804953059962 2.387844868392788,2.8362568569080198 l1.9317915442894023,2.9281437041702567 0.8852710646846971,2.162718113328253 m23.056748022966726,-11.877760148819684 l-0.17099728496054364,1.6979764788975897 -1.7724013257584958,2.5178189917101523 l-2.834722992260149,3.131611895755756 -3.6863367435546817,3.2466427595203085 m5.808541159974097,4.531715835675467 l-0.2778964545304712,1.2650698820806199 -0.5282215508729842,1.260415463698324 l-2.0838789798923605,2.6057367266156937 -3.498955200815662,3.1856864579431368 l-4.79464294770527,3.2572976311243678 -5.453340481966042,2.751236023764423 l-5.574684731343087,2.529403513629446 -6.376307095799928,2.4784413791039794 l-7.208624387261536,2.316206894888853 m15.901603471289839,-19.446650827204994 l9.054481184984313,6.268542018968116 8.546132868232514,6.152255663079867 l6.903855816201406,4.2473609957707845 3.2008418485264802,2.6395156809974516 l1.7418601313693287,0.9666677152848389 " fill="none" stroke="black" stroke-width="1" /></svg>