<?xml version="1.0" encoding="utf-8" ?>
<svg baseProfile="full" height="106.85709203185979" version="1.1" width="109.49251565150917" xmlns="http://www.w3.org/2000/svg" xmlns:ev="http://www.w3.org/2001/xml-events" xmlns:xlink="http://www.w3.org/1999/xlink"><defs /><rect fill="white" height="106.85709203185979" width="109.49251565150917" x="0" y="0" /><path d="M25.00000085972715,25 m0.0,0.0 m13.677685260772705,2.0547370612621307 l0.003940348397009075,0.5064430087804794 -0.20381562411785126,1.4389632642269135 l-1.029946431517601,2.4480389058589935 -3.7146663665771484,6.229041814804077 l-4.515726268291473,5.96854567527771 -4.217471778392792,4.258694052696228 m15.19744873046875,-16.9710373878479 l2.2897320985794067,1.3104473054409027 2.301163524389267,1.8847857415676117 l2.020229697227478,2.2450459003448486 1.4477966725826263,2.392267882823944 m-16.849104166030884,7.094359397888184 l2.483718693256378,-0.0058915786212310195 8.270055651664734,-1.0393859446048737 l3.6188852787017822,-0.189155675470829 m-19.276703596115112,11.905221939086914 l2.5540387630462646,0.38312584161758423 13.110709190368652,-2.084357887506485 l4.213314950466156,-0.29869791120290756 2.241928279399872,0.15560046769678593 m-10.159344673156738,-7.271718382835388 l0.7697102427482605,1.1562974750995636 0.10996170341968536,1.07142835855484 l-0.13478915207087994,25.16956090927124 m-11.25120997428894,-9.255922436714172 l2.1579253673553467,3.3081606030464172 1.495513767004013,3.743591010570526 m14.898154735565186,-13.235414028167725 l0.20121758803725243,1.1576830595731735 -0.2141427993774414,1.197519525885582 l-3.0875012278556824,5.611749291419983 m-17.680474519729614,12.038241624832153 l1.9516417384147644,0.6463903933763504 1.5955379605293274,-0.11440000496804714 l16.494299173355103,-7.626089453697205 m6.141054630279541,-37.28972673416138 l2.5398361682891846,0.2979942783713341 24.23513650894165,-3.3685651421546936 l4.238602519035339,-0.2530970424413681 1.568172127008438,0.2872557193040848 m-14.67645525932312,3.297768533229828 l0.7660730183124542,2.776603400707245 0.1390271820127964,4.38201367855072 l-0.39174534380435944,37.89143085479736 -0.44062625616788864,1.0946374386548996 l-0.6578217446804047,0.4569072276353836 -0.8126644045114517,-0.05278334952890873 l-1.8414850533008575,-1.1237353831529617 -2.797214388847351,-2.7397114038467407 " fill="none" stroke="black" stroke-width="1" /></svg>