<?xml version="1.0" encoding="utf-8" ?>
<svg baseProfile="full" height="105.17251352593382" version="1.1" width="102.31138683319708" xmlns="http://www.w3.org/2000/svg" xmlns:ev="http://www.w3.org/2001/xml-events" xmlns:xlink="http://www.w3.org/1999/xlink"><defs /><rect fill="white" height="105.17251352593382" width="102.31138683319708" x="0" y="0" /><path d="M25,25 m0.0,0.0 m20.089182187619656,7.308817699894387 l0.031381513675615494,0.45682764384947216 -0.2320498906748255,1.3178973514602026 l-0.7328914078475286,2.085512349603153 -2.5606017783977486,5.005073670473941 l-3.2709864539005093,4.971596211825792 -3.348565804805285,3.7738957180293453 m11.700145544217914,-14.608972657292728 l1.713205111569215,1.3433752006678927 1.8919415074578099,1.9195467429238784 l1.3599638693463492,1.8042038365415984 1.105063487366023,1.9910653323099483 m-13.105971767822414,4.234345525029096 l1.8267153537330678,-0.019577199974477755 6.968582249982281,-1.221708809597766 l1.9463179715060432,-0.10664834283456286 m-14.190008383409111,9.948344228604322 l1.743573506166615,0.2892710221138392 11.164702723821993,-1.9777320175755122 l1.68179964965848,-0.06615163063011259 m-6.959130412402796,-6.236053029860629 l0.4946334456151259,0.8265401704093635 0.1291141144678099,0.9729993715204678 l0.02474386770793239,21.429321334414507 m-6.944460704316394,-8.14360421400914 l1.4615359550076907,2.7643103306055954 1.0055734361925843,3.1181803335520133 m10.60495153793109,-8.927820739204515 l-0.05227739728244453,1.285542708491478 -2.823177942594857,4.934958517427718 m-11.779267594622814,8.300758313293969 l1.0637416281511676,0.6459036178354639 0.9932633866876884,-0.22175651506327973 l12.216984677649165,-5.557022006363768 m12.932171011074383,-37.67018007185699 l-0.17444049201192358,1.4439124139913735 -1.036859239218133,3.5710820301799044 l-2.9729689321888966,7.519066506587341 -3.2169592504406057,6.317314294559114 l-3.2980098067437167,4.942431584212135 m10.874209934994276,-21.16815574879502 l10.795016146800759,15.569784095467577 1.3466513701144929,1.5026201426592494 l1.84484890336186,1.6333737890717077 m-17.55533937794619,-1.0863234140134033 l1.1077289996785107,0.14147402842439766 8.912048608598425,-1.2996026352203567 l1.7275030968407008,0.1492327747780662 m-12.485041493393618,6.607548359147731 l1.6054059977136128,0.49988683920469484 0.7172195706663737,-0.024524154570976665 l9.926156129327556,-2.317941193050476 0.9989357107134322,0.0267762006221634 l0.4978007728131315,0.2743216077206599 0.29334312696058884,0.5398964407892487 l-0.0730845439208041,1.9744162155401057 -0.958302456468631,5.525457386899053 l-0.9222027993166754,3.827825105794116 -1.1295477109054664,3.2807447885748346 l-0.7649253189439971,1.210330644187998 -0.3713931509201349,0.1694026990993315 l-0.8333633154024941,-0.30801970291572905 -1.1001384053615064,-1.0902315128422728 m-3.968729947100496,-12.867593153510656 l0.6056889883814937,0.851128156769267 0.2833413078166045,1.125485381018159 l-0.08691244664949045,20.660333558940494 " fill="none" stroke="black" stroke-width="1" /></svg>