<?xml version="1.0" encoding="utf-8" ?>
<svg baseProfile="full" height="119.89628204957312" version="1.1" width="95.92135706043057" xmlns="http://www.w3.org/2000/svg" xmlns:ev="http://www.w3.org/2001/xml-events" xmlns:xlink="http://www.w3.org/1999/xlink"><defs /><rect fill="white" height="119.89628204957312" width="95.92135706043057" x="0" y="0" /><path d="M25.081624203949918,25 m0.0,0.0 m10.861728558998918,16.04131279509754 l0.06146944676430642,0.3594517812331137 -0.028631709822475072,1.3399049561405574 l-0.7296148474001644,2.1233179466516447 -2.961342362964182,5.742283202345911 l-3.5034151960172792,5.4558941418972795 -3.781818093509043,4.5947617436596175 m11.68212066587055,-15.114317916034423 l1.84182709093664,1.8176157196340574 1.8659443306671213,2.40262970988553 l1.6285793844191334,2.7148513249544357 1.133143915742187,2.6310309854112526 m-13.210435764929542,3.2867728364922377 l1.411310139006483,0.05138844461497398 8.282585565442147,-1.007221263007209 l2.275873977132619,0.05439350864848846 m-15.255291597033889,8.120788389034931 l2.4874895687580976,0.2193797767892005 10.751568158549649,-1.5248812850758964 l3.0805501156749027,-0.1244138746817854 1.7150039935262213,0.15580950716566166 m-9.145913184956239,-5.336028416225543 l0.35566609325068865,0.3950058957283187 0.2459840498644214,0.9562404031083501 l0.17464475240565555,20.524462283329186 m-8.455052601791989,-9.468170447047937 l2.3513831166580066,3.2536347137154484 1.6283255635860454,3.6726229658291634 m11.576096522011602,-9.382033026519114 l0.1875916207997579,1.4018756204551377 -0.28634321476806474,0.7729777858961518 l-4.332933545301807,2.053555467959386 m-12.423905274816299,10.190762099489874 l0.9219667186922882,0.38132571380959007 1.2875746262016945,-0.15067721848526122 l13.37854105093467,-6.274537717158524 m5.2002283654620705,-26.01038595668001 l1.3420482374393565,0.17572635642357226 1.8627363728759343,-0.11608710868398642 l12.411273949123302,-2.0741106186431 0.9277336470682043,-0.10535189848006438 l0.6195951875023042,0.2489855179888203 m-18.051085714639406,8.756032182195042 l2.599859990153191,0.24208094901824231 13.885043111322686,-1.8896341728914712 l1.3197321458943008,0.16555859040164414 m-21.960659500619418,9.592378225629073 l2.188499489615535,0.201056835228996 20.253496922224226,-2.2809900624041712 l3.8871312734260326,-0.18128828240386002 1.4742488803939442,0.24199774226517842 m-16.17702693715784,-20.096849523813297 l0.43644654158217067,0.7250643526005471 0.12759275391949476,1.0164807173052135 l-0.794355264821767,7.682619026231743 -1.3743021534106965,6.445920215459237 l-1.8997690014346873,5.836859748755395 -2.1847143608977673,4.924562299617105 l-2.0674481094457184,3.510404081038893 -3.296038923705181,4.085284835814957 l-3.020245302092184,2.626124029808684 m16.06336326911985,-20.177858332693347 l4.823093833109398,6.70328546328198 6.652672126471971,8.232590621078103 l1.4938055034787274,1.6032028519444053 2.024504891939794,0.8193152449594066 m-22.522259318431587,-3.3521923419639803 l1.1906477648101836,0.10384677447227413 8.235181395783062,-1.2221131224302837 l1.9153254042003436,-0.04974685345485595 0.8644691200608754,0.23294467905043936 l0.5569973500834896,0.8343461497821975 -0.014569235387588276,0.6694654010278115 l-1.3292555505774875,5.607596525293824 -0.950327425450348,3.070342743049944 l-1.1217738660766163,1.904662044398368 -0.628813391794466,0.47352695433443365 l-0.5782811593244677,0.06586970766859103 -1.0402083029549996,-0.6438452552485 l-0.8379319481305492,-1.021606792721285 m-6.957384566669603,-8.242575783954967 l0.3285686216623984,1.311658563685997 0.18799695871210054,12.701876822394752 l1.2018442616226217,3.378253682655109 1.6062560612347099,0.6104709060239102 l2.910063294247736,0.22875876041507115 5.845195006198576,-0.049574268876209034 l3.1458529274217533,-0.4239435689275193 1.2656827198422131,-0.5543267634424105 l0.7969698794995234,-2.3084302639480847 0.034113289035399584,-2.2053325794419556 " fill="none" stroke="black" stroke-width="1" /></svg>