<?xml version="1.0" encoding="utf-8" ?>
<svg baseProfile="full" height="104.59868735567004" version="1.1" width="119.99848640845792" xmlns="http://www.w3.org/2000/svg" xmlns:ev="http://www.w3.org/2001/xml-events" xmlns:xlink="http://www.w3.org/1999/xlink"><defs /><rect fill="white" height="104.59868735567004" width="119.99848640845792" x="0" y="0" /><path d="M25,25 m0.0,0.0 m13.981498286163651,3.8729705422072893 l0.003428470335860087,0.5354430417232322 -0.2532628458931121,1.5174643770310605 l-0.9752768513550322,2.3858668148897784 -3.697510128621433,6.173096853855451 l-4.416263018249131,5.696711367419243 -4.566814692255344,4.32195669741406 m15.169310652966756,-16.57381070604095 l4.988067934107085,1.2175096025574121 3.4214065972846512,1.4662989989429815 l2.8266555954083263,1.7630748950429602 1.9007509726462994,1.714528079187192 m-20.881539022813886,6.843034138981339 l3.953503981135832,-0.2898126395429382 10.37946954595124,-1.6232451476817522 l2.5571369192616946,-0.08732274497945183 m-21.925654412450612,11.303623726029045 l3.099938458753795,0.2530192618292883 16.988395775994558,-2.275030403842827 l3.691326938757951,-0.19645974333363356 m-11.117477444914973,-6.1566533959185294 l0.781720680248052,1.0074905376330638 0.2439388074151168,1.3574410013144391 l0.039525244239173064,22.06505275244235 m-12.304930865303172,-9.54840164324918 l2.709401997350339,3.262441152490355 2.041091378316567,3.8802217373129357 m17.653894110994468,-11.33563824447477 l-0.170886733115223,1.5878465363366263 -3.6491588284464136,5.455577599928712 m-18.898916905460464,9.97009659671607 l1.6748988137257814,0.3946000335869772 1.5819346021268128,-0.25239776392560775 l19.2816828876155,-7.115105721519533 m15.857552694979686,-40.290293647549845 l-0.09307817697844738,1.6461793764067572 -3.0676485008356145,6.455245609599172 l-3.0112111650335995,4.944004873434101 -3.3694504798842386,4.318132975745826 m7.492785646773187,-7.824900744849597 l3.4186617504035763,0.1406036469746755 17.968620785136775,-2.2493510286145155 l2.15317327096976,0.37920004514120426 0.48867387974659104,1.0576813543885055 l-0.418795001409636,2.1413807441005193 -4.38737630121078,6.861963620040332 l-3.206065341379801,4.3589392443661 m-11.523482870622784,0.8308533776297947 l0.4348246017869584,1.1481317966080693 0.06937348915449172,1.2678824359519936 l-1.3091503031969822,6.4314549284386535 -1.7362242803755135,4.968468250422163 l-2.5356093246889726,4.106657039910843 -3.0477676487791165,3.4137028128859774 l-4.043366129782979,3.1965422254184244 -5.0963169314013,2.8562371126185546 l-4.563065588827784,1.848483116239648 m23.241243911163764,-22.28516408507664 l6.907037963554351,7.270041541803853 8.846324899036127,8.148559494921765 l4.762613732066039,4.009047440513111 3.6549209261734275,2.3031863123188554 " fill="none" stroke="black" stroke-width="1" /></svg>