<?xml version="1.0" encoding="utf-8" ?>
<svg baseProfile="full" height="103.73679353772175" version="1.1" width="118.92424361078031" xmlns="http://www.w3.org/2000/svg" xmlns:ev="http://www.w3.org/2001/xml-events" xmlns:xlink="http://www.w3.org/1999/xlink"><defs /><rect fill="white" height="103.73679353772175" width="118.92424361078031" x="0" y="0" /><path d="M26.312939851298996,25 m0.0,0.0 m12.372560934381973,4.112148188803936 l0.002235721294972582,0.5839355271904644 -0.23823657533371712,1.5136109924507164 l-0.986248111893635,2.435160214747895 -3.644568574998032,6.365210171061418 l-4.3367794550015715,5.9268745322407455 -4.481903789748986,4.6016476363397 m15.030508765573257,-16.63887414652935 l5.049308273657638,1.2432693368616428 3.2372387398202216,1.436772613264652 l2.6549194744451077,1.712170952573392 1.7741679141014122,1.618489791432875 m-20.159466335894688,6.664992488794617 l3.737292844289653,-0.28602584511318124 10.207036589640182,-1.5168367931801965 l2.550817000760832,-0.09054826664011338 m-21.64121576368576,11.141194473230255 l2.0577858071035147,0.25751823197464 2.0678420552516856,-0.11763096844575643 l16.64885684269261,-2.456911467657726 3.3780078020530846,0.049408091670476474 m-11.756938646004048,-5.896207007825846 l0.560700238003925,0.47547459478373083 0.43468202882371054,1.1914765172841812 l0.25278871536357345,22.828417576004266 m-12.411944844987547,-9.707519757649129 l2.8021151930247514,3.325745688401843 1.9873602558119459,3.789712709782174 m17.205821186970145,-11.104520414953935 l-0.19533824804085456,1.5575233240660604 -4.364471507430682,5.913690680306091 m-17.792433584078456,8.974997301470163 l1.658600691144088,0.6680554239580067 1.6403532575938085,-0.1557197817741869 l18.949406754306253,-6.677720789526745 m15.77012376029829,-40.11278020323124 l-0.15943498411977222,1.7226602702688416 -3.029995616540294,6.13055997355991 l-3.0549560930309116,4.9413494617812725 -3.3906936177223983,4.395601123188624 m7.388772548432918,-7.862910170746079 l3.2976338446088573,0.1509550544533512 18.23242587516415,-2.3173736028026024 l2.122528556234453,0.43631062770289036 0.3002284083252483,1.0514364847081865 l-0.5848485121450208,2.1153307656388534 -4.3773103103256235,5.849568511080438 l-3.3382163950959125,3.8852538952479603 m-11.103039656453781,0.5687399423246418 l0.27581064692853524,1.072274254341315 -0.19124304129144717,1.2273635830637912 l-1.7271065311063474,5.485121555366039 -1.9159048108308223,4.241279303991895 l-5.0131059335732004,7.727416454032281 -6.1540868185474356,6.141599172152734 l-4.423860857421651,3.1480552622008764 m20.515006561847343,-22.612952514246246 l6.801085698976267,6.9688383656094555 8.624204311586015,7.811175414206924 l4.9196124740488765,4.037900569390294 3.5768126022246154,2.335724898508994 " fill="none" stroke="black" stroke-width="1" /></svg>