<?xml version="1.0" encoding="utf-8" ?>
<svg baseProfile="full" height="124.4467301543412" version="1.1" width="132.57427000749277" xmlns="http://www.w3.org/2000/svg" xmlns:ev="http://www.w3.org/2001/xml-events" xmlns:xlink="http://www.w3.org/1999/xlink"><defs /><rect fill="white" height="124.4467301543412" width="132.57427000749277" x="0" y="0" /><path d="M25,25 m0.0,0.0 m13.587928589077524,19.84010709294804 l0.4756716927456615,0.1061312749041453 2.4920198471794293,0.02157355568117795 l10.62174312507665,-2.039935121749592 1.7270955155176122,-0.02925602099657171 m-6.88819856297838,-14.965695730097485 l0.6936571690415546,1.5533368754279715 0.21849759331091792,2.077040885778875 l-0.09960655850371378,50.183024962816965 -0.26490353021499796,2.213473872572797 l-0.41696805256466296,1.17631564487304 -0.5363549264330703,0.3802370529513855 l-1.2981097899316085,-0.8403255001055332 -1.6189583846404567,-2.398926867097083 m-5.444844798111956,-16.088690352543193 l0.7574506541675492,0.40745337528345943 0.9219376054659271,-0.3562822371310951 l11.675575016721611,-10.153487969233183 m4.744187588431295,-23.933214084289325 l1.9806133157024342,0.20113888562492083 1.6165612001037268,-0.13790855867759816 l12.088449047087323,-2.8842649441850052 2.9433719938844116,-0.0514944151084702 l0.6419069392377309,0.9676257917435934 0.04411526209918625,0.8269227791042267 l-1.2311269487616,8.483880998003439 m-15.836933506838125,3.498752490520823 l17.099272815000106,-2.7358342563460303 m-17.72857000486777,-8.551870703939459 l0.5416684454016845,1.7058809761069598 -0.09096353058531653,7.505645865414847 l-0.49398112357861884,10.368969147353146 -0.7781129254755161,8.050842197165709 l-0.9269026242342963,6.424869694843478 -0.9798473097855446,4.736317600378785 l-1.7796501756176237,5.810742662713177 -1.6641694587589477,4.043957753118301 m16.35180604851525,-31.229131148432074 l0.6174442120950333,1.7287596358215298 0.06120822322620774,1.2972281604586395 m-7.370166273188096,-6.300093618664293 l0.03772632196045989,0.31899147047594933 -0.08897998617779516,1.320512301455752 l-1.1814749543139271,4.150818483082152 -0.10496205463586698,1.103929736647321 l0.23187459916008588,0.585095052837297 0.5233075060750607,0.2856910255864415 l8.592593332765622,-1.737762942698687 3.7739849520215167,-0.3825673701553928 m0.01529024624492211,7.859001224366333 l1.109802465020609,0.39253569848454556 4.504489439180544,-1.0518098159655758 l0.9426134499610178,-0.1549797020595457 0.7629358084377408,0.11938826538299087 l0.3897001040580714,0.8633655570273981 -0.07277702403773857,1.4955858166774518 m-17.289960483425045,2.7898196198798773 l0.06175295244140516,0.8981616032042009 -0.2639064553601304,1.2213799771501885 l-1.708570042907577,4.015810063758087 -2.027753545553396,3.4396444692470367 l0.21020432154483143,0.5855779698875136 m6.450262689164679,-6.32338280062106 l2.4059999203853426,0.89604294266333 4.84629287450757,1.7115170037665406 m-13.85102158313592,-6.758467651063786 l0.5761027019697149,0.7418773659085041 0.2980123361747534,0.9943082214903406 l0.259998822278569,15.881868861786307 0.2757895048215762,0.7043001324039466 l1.6790960787776583,0.5197457295058023 8.94497166401499,-2.2285437391614273 m1.5372895650452805,-12.203484540325402 l0.30250228884648667,1.4126019748523744 -0.08808739399593327,10.387758653198954 m-6.802073651776241,4.5519246047947854 l0.3828117606259124,0.8735507012619226 0.05566148556552781,1.0006731843802759 l-0.035612609393245086,9.858922286020674 -0.00692403803849113,1.3453866767296536 m1.1459972812852008,-10.923967042136573 l7.810364798799092,-1.7971528213477899 1.115472467636116,-0.008670436358775006 l0.44078354610617326,0.3473458594436535 0.22572422752496088,0.6157780119291352 l-0.021382811820406942,0.8553199982903817 -0.17623560090712753,7.33091836767693 m-9.997096037311355,1.3951532819087709 l10.716318742669847,-1.2842250262807378 m9.91210857005956,-35.694596132434086 l-0.001508899940578243,1.3498702351681808 -0.3211950184938279,1.8521098657681307 l-1.7458910191761574,6.754764130691 -1.9605842515171958,5.185647851453585 l-2.5984216687372244,4.267798635910434 m5.944713870552466,-8.625608346261401 l1.8704678836659334,0.0551781012321805 6.5992141656853125,-1.9725898691168027 l1.6908247620388643,0.013968089869150014 m-5.112633711356504,3.498861874181315 l0.1877109123170593,1.9682919062904298 -0.8619957970111695,5.204125883188355 l-1.241913260883946,5.239468095215531 -1.560867646056554,4.776116045927569 l-1.5291748267353893,3.4269952107292423 -1.834215248284772,3.1675066398954126 l-2.2669557380234373,2.8061564763185847 -2.793284353540851,2.243559452312879 m3.691548801950083,-21.9370406030285 l11.30685526431576,0.483655185445242 9.664845882633376,2.1145614060169007 l2.171897937732296,1.84969445529723 " fill="none" stroke="black" stroke-width="1" /></svg>