<?xml version="1.0" encoding="utf-8" ?>
<svg baseProfile="full" height="118.65076408646237" version="1.1" width="107.42263226634559" xmlns="http://www.w3.org/2000/svg" xmlns:ev="http://www.w3.org/2001/xml-events" xmlns:xlink="http://www.w3.org/1999/xlink"><defs /><rect fill="white" height="118.65076408646237" width="107.42263226634559" x="0" y="0" /><path d="M25,25 m0.0,0.0 m15.513341980252013,7.503190947272357 l0.0038172616373062566,0.4565301656638987 -0.17948717231552255,1.2619442828296557 l-0.911705298162697,2.1212491481716276 -3.3163142721652448,5.698831634250026 l-4.04394829458977,5.479683015774095 -3.788945541714577,3.9279248050673785 m13.421890596497096,-15.351819549300505 l2.0049106642397216,1.072699463482532 2.426250942037363,1.8163301792273239 l2.115739445976644,2.0461853368865954 1.233380785488186,1.8878729590023258 m-15.751875402366418,5.836291368638671 l2.456294872858964,-0.046070624346332 7.003347074744216,-1.2207427059272868 l3.3431512536692534,-0.22181622348178698 m-17.718873068583214,10.570136784425456 l1.6178955790322036,0.2764369198837831 1.545220307901787,-0.07886144583944339 l13.798499769557832,-2.203242269233762 2.980777046570578,0.05371971095355945 m-9.309213101377669,-6.041970899659542 l0.4702808990877464,0.45097678857896145 0.3249062853322677,1.091136796030958 l0.22543803452522757,22.04024447419755 m-10.3538682561895,-9.193189262467069 l2.2392236010637947,3.0963537405552897 1.5922697894561588,3.63483573452016 m14.036568302441887,-10.822874244034178 l-0.05497359615393668,1.0499243252564765 -0.39048987575275124,1.009411965262516 l-4.27411802332479,5.11438901937123 m-14.283514235534565,9.880138433471608 l1.1050140136550102,0.5093323403353205 1.2200252927761812,-0.13703200968654064 l15.856387801826912,-7.693581496349587 m12.799556338346349,-36.68719356851264 l-0.07162801741994487,1.0113906292902097 -0.5282900660686329,1.5274877564209388 l-2.2480118983337416,4.677037480744645 -2.9146782919829586,4.118118479325862 l-3.150716478262321,3.3361643981362756 m7.717023252101045,-7.551231495953122 l2.998363533530463,0.2198544342230449 16.704069806124945,-1.8680326550531001 l1.8310756434872626,0.2057519819774938 m-24.15263978097488,9.135342787208389 l0.6687671496530608,0.8398145084662781 2.0755017423302733,12.454454877620176 m-1.4165563467471238,-12.306905085733684 l16.472809899552697,-2.217285384022228 1.7115320659657218,-0.15810139673204 l0.8702355227193167,0.16409790958423529 0.562117441972669,1.0134227669403235 l0.007146986041983829,0.7081908329607128 -1.9859166217488462,11.571631641357213 m-17.016102305005116,-5.656492213742293 l11.975443751835536,-1.1934715923894452 m-10.643962120186826,6.945406215805199 l15.28626225075707,-1.178767630215455 m-14.170180521546023,4.06317952355246 l-0.045760737587299684,1.3301993429467955 -0.45592896474307126,1.3269021261710419 l-2.286341961301713,4.2505941927132636 -2.8794919283912623,3.9410885505866524 l-3.6994261383699913,3.4939092336150055 m10.49069792274893,-10.814190316343613 l3.068723663422477,-0.2029178159233092 9.209752887594128,-1.4232576692010213 l0.5828927594925379,0.19852940699315122 0.22912891541087438,0.41900257506089233 l-0.7657772624161033,1.6505870626725794 -1.7919284025606943,2.4202790265504652 l-2.6114500545513333,2.8382445203679345 -3.256643139458376,5.719949976466132 l-3.002493579698996,5.108979862035486 -4.3707623665982105,5.957969833954155 l-2.4458950144974323,2.434966005555099 -2.6696179558141697,1.9514933621988764 m5.533683017093763,-18.883767263156873 l7.8066496222004345,6.363571440358962 9.444231261235242,7.174615058740722 l3.202087278227526,2.1597764309304943 2.5977740463686674,1.006570403258853 " fill="none" stroke="black" stroke-width="1" /></svg>