<?xml version="1.0" encoding="utf-8" ?>
<svg baseProfile="full" height="105.65029381774366" version="1.1" width="109.49251308920793" xmlns="http://www.w3.org/2000/svg" xmlns:ev="http://www.w3.org/2001/xml-events" xmlns:xlink="http://www.w3.org/1999/xlink"><defs /><rect fill="white" height="105.65029381774366" width="109.49251308920793" x="0" y="0" /><path d="M25.00000018510036,25 m0.0,0.0 m14.04185175895691,2.1211810410022736 l0.015963093610480428,0.6420128792524338 -0.34464579075574875,1.8520677089691162 l-0.8371464908123016,2.0101284980773926 -3.927967846393585,6.826272010803223 l-4.321374893188477,5.929896235466003 -4.626680016517639,4.892556965351105 m15.475302934646606,-17.619067430496216 l2.2627466917037964,1.3067056238651276 2.8356733918190002,2.397429794073105 l1.9630242884159088,2.2955451905727386 1.4136496186256409,2.42499440908432 m-18.300158977508545,6.157740950584412 l2.3838219046592712,0.191633440554142 10.241153240203857,-1.5238210558891296 l2.4522101879119873,0.174427330493927 m-19.76283311843872,12.371309995651245 l2.6448142528533936,0.18155837431550026 17.182916402816772,-2.487887144088745 l3.261006772518158,0.10536295361816883 m-11.22685194015503,-7.888385057449341 l0.6038061529397964,1.1130549758672714 0.23935915902256966,1.4665110409259796 l-0.05716973450034857,25.022976398468018 m-11.466909646987915,-10.495514869689941 l2.693662941455841,3.1259748339653015 2.1590301394462585,4.070501327514648 m15.452971458435059,-11.455743312835693 l0.06934786215424538,0.7117969542741776 -0.4266420006752014,1.2316878885030746 l-3.751937448978424,5.638896822929382 m-16.379703283309937,12.482963800430298 l1.396029144525528,0.37552524358034134 1.2725114822387695,-0.19382508471608162 l18.947755098342896,-10.36449670791626 m5.674836039543152,-39.2353630065918 l2.024434208869934,0.4637147858738899 2.053045779466629,0.024936881382018328 l12.200688123703003,-2.1251411736011505 0.921148955821991,-0.06481190212070942 l1.3471804559230804,0.44810056686401367 0.6489913165569305,1.126662865281105 l-0.017882153624668717,1.8140354752540588 -0.9669883549213409,9.80430543422699 l-1.017625331878662,7.0387643575668335 m-15.106843709945679,-8.41316044330597 l15.643482208251953,-2.265319973230362 m-15.531129837036133,11.478074789047241 l14.39993143081665,-2.1438956260681152 m-16.41319990158081,-16.82632088661194 l0.7843723148107529,1.2425043433904648 0.2590731531381607,1.3227559626102448 l-0.021439502015709877,43.31039905548096 0.31607795506715775,2.8751012682914734 l0.5111679062247276,0.33025283366441727 2.116549164056778,-1.5401332080364227 l6.388726234436035,-7.145882844924927 m12.270821332931519,-21.21433973312378 l-0.2814040333032608,1.321011334657669 -0.8333955705165863,1.2083102017641068 l-5.0947558879852295,3.9145341515541077 -4.581320583820343,3.066833019256592 m-9.155662655830383,-3.352423906326294 l1.7514042556285858,0.7441592216491699 3.278452754020691,2.624228000640869 l15.344806909561157,14.559736251831055 3.8813865184783936,2.5535714626312256 l3.1189966201782227,1.2056060135364532 " fill="none" stroke="black" stroke-width="1" /></svg>