<?xml version="1.0" encoding="utf-8" ?>
<svg baseProfile="full" height="118.25336804211372" version="1.1" width="116.21922134339353" xmlns="http://www.w3.org/2000/svg" xmlns:ev="http://www.w3.org/2001/xml-events" xmlns:xlink="http://www.w3.org/1999/xlink"><defs /><rect fill="white" height="118.25336804211372" width="116.21922134339353" x="0" y="0" /><path d="M25,25 m0.0,0.0 m14.64672425650399,4.226387122070693 l0.0009701972370568268,0.6006663381997942 -0.27917125420452,1.5395538926905705 l-1.0522254085552796,2.4794697577998446 -3.627100609151057,6.579101890489453 l-4.262213062259662,6.084795145202178 -4.387965068542727,4.844665538234665 m14.57482565940538,-17.311155128419664 l4.830938888028434,1.246143187392493 3.438793797740538,1.6357033661377058 l2.7755791646162264,1.8918349355066584 1.7110319174032502,1.780871766387509 m-20.24415555089413,9.376936024187565 l3.6380047635280377,-0.31545655863098043 10.543127613078518,-2.013657937139972 l2.4278459753798742,-0.12345249067981776 m-20.88258691566973,13.67105081086738 l1.8663756538501524,0.3165316668579714 1.5479207646698645,-0.1192454958505908 l17.622029038613277,-3.109135548472553 2.526872471164409,0.058466117560508034 m-11.834114442097647,-6.779389046598842 l0.555955473248654,0.5558962342123341 0.41573200355325146,1.3170075896627789 l0.24473470901661748,26.30245237580734 m-11.56558131915329,-10.542758361457967 l2.5468231886728407,3.484731410728453 1.6778021306085793,3.9629039963395316 m16.970453319131725,-12.174924261113507 l-0.12139613434255497,1.6913635472075599 -4.012988811291057,6.708999437027557 m-17.68287045920615,10.111256513216077 l1.5372610844602292,0.7149605434350594 1.5604834964770977,-0.15540768210655675 l18.404506965351874,-7.637636448041811 2.4144800367737638,0.12012535479508384 m3.5444702366471845,-28.06659389462356 l2.602023344606062,0.26951168714646856 2.966003092197641,-2.899980597516446 l1.2457449618306276,-6.432594072967331 0.48746998106502,0.1680039120939135 l-2.736520108307321,2.4882628475063675 -5.040808951255987,3.0430324732930107 l-4.597247626378616,2.5426311988238535 m-1.235309490521614,8.647035438751514 l2.164324052569165,0.2803218491761501 8.605599581862933,-1.3880432424625844 l1.3496176781274394,-0.21366355584571078 1.1227968167700708,0.17156266829524208 l0.6989972392762098,0.9688429756343397 -0.06074974206206958,0.9357441942172331 l-1.9739321836784098,15.531523085160778 -2.68458885224151,8.273429799074442 l-0.6696157848596205,2.0792769176354056 -0.6760707747396374,1.2046098530049434 l-0.7637352300699359,0.6091036610633686 -0.802028984985774,0.01299456738052472 l-0.7649590453237504,-0.4795650552534459 -1.4558181658674758,-1.9567818658892926 m2.7682511893994692,-27.001206256537486 l0.09273858589751269,1.7051594479000944 -0.6005607728907001,4.4350611675173655 l-1.8446633231389487,8.399499043582301 -2.670136027526074,6.900906011055841 l-3.5011852522644262,5.534959444292422 m15.766127031949859,-30.19888403653106 l2.5131848757955444,0.2887817055883802 12.252642569971457,-0.17742702772944213 l6.670022920787422,0.7206176948203411 m-12.249319647549642,-14.397141120526763 l0.9536545785295644,2.2557041940517455 0.0829713770677186,11.116973712557702 l-0.7361808003039995,9.059106784275412 -1.3197480096757404,13.41990435931731 l-1.6000193687295008,7.00242450285699 -1.6565673053165113,4.422523465135253 l-2.943602979613215,4.891172223903818 -2.7531869308391665,3.0669122793798134 m10.871874237573675,-32.20110863083298 l4.59710845571244,10.39052335445772 5.006056957451189,9.529468564946422 l4.031842818568528,6.252852434396005 2.635350584730616,2.7812591831211684 " fill="none" stroke="black" stroke-width="1" /></svg>