<?xml version="1.0" encoding="utf-8" ?>
<svg baseProfile="full" height="105.67118609520725" version="1.1" width="99.09927561912629" xmlns="http://www.w3.org/2000/svg" xmlns:ev="http://www.w3.org/2001/xml-events" xmlns:xlink="http://www.w3.org/1999/xlink"><defs /><rect fill="white" height="105.67118609520725" width="99.09927561912629" x="0" y="0" /><path d="M30.673708363985686,25 m0.0,0.0 m12.199708815306233,5.179177953820383 l0.045533505722577666,0.5115631244260153 -0.25332839758624026,1.7961696861753165 l-1.141555597955094,2.017120109524067 -4.830200573803479,6.585865027911664 l-5.731058474722818,6.197254900563244 -5.962807640946864,5.135271327399461 m19.11375367005236,-17.94245268601734 l2.733607197269875,1.2274170801089677 3.343099579721521,1.9497138515465167 l2.5336268981084085,2.05029752798758 1.4861140295238995,1.9134969005036777 m-20.540391182054034,6.552980110087621 l3.0054964353914935,0.010143521509650148 8.47559865450323,-1.6228685128100775 l4.574061906156644,-0.28353923426679684 m-21.36077015639506,12.213425351623636 l1.9525232592312507,0.27289864344496656 1.6061952301003346,-0.08685958762587571 l17.279874395168797,-3.1429914184167 2.80116709401072,0.010523550236585348 m-11.212940574515601,-5.500008019357077 l0.5755849156954791,0.47855350053219403 0.418467109119522,1.1892610330775606 l0.24554732497551732,24.382052468405252 m-12.01972095221189,-10.755716690559458 l2.7335134693545595,3.1101927146080355 2.031229667357933,3.9690904982836277 m16.389195653457403,-11.689975935915513 l0.2681150494634596,1.1644151582232511 -0.25879135302887923,1.156726274098981 l-4.1888991098547494,6.017927989614493 m-18.661230458923068,11.013620547744386 l1.365069258673083,0.5904393287189582 1.4367033449809479,-0.15135402549486804 l19.180810915049108,-8.836276327137771 m7.463837936215795,-44.204823767472114 l0.7415241465495527,0.36207102283604703 0.6767344696312688,0.05063305797497496 l2.574922716884119,-0.32548087544565374 7.113445852034133,-1.449928571432016 l5.222199227429148,-0.04690775945018369 -1.162492968761574,11.149216961896652 l-1.8991839666508064,5.831830027476926 -1.204099816259533,2.9889735337309085 l-0.7533272086023135,0.959309803391388 -0.6686768378654003,0.2932830398137285 l-0.6746238130065799,-0.20181752255792032 -1.5092284397319555,-1.746477614784418 l-1.145785053754593,-1.6939254231082164 m-8.312694187677655,-13.694984297659971 l2.5508345272451662,2.4472561265701773 1.9170796264447643,2.8774168492794447 m-8.453926642512851,10.661084744435598 l1.4347171774208103,0.40131242520543436 1.7382303259008824,-0.1440090935204128 l10.308949394316876,-3.490483421359738 m-21.300685913229664,-13.83660595534446 l1.073420409431764,0.31261773291936107 1.0052123453581574,-0.06978832631097562 l6.838525146061863,-1.6207559317713918 1.0429736183318798,0.00852267745099868 l0.44231839571684534,0.4355736905560154 0.12273786782746866,0.6815642015985198 l-1.943123719144711,4.132190752948287 -3.3997498305907157,5.141360272336069 l-4.016684817212986,4.4011038389337465 -5.215333430664519,4.396685873726274 m2.28766897200873,-12.379198057445624 l3.106372158597429,1.955723102738628 12.591562383078235,9.27788347101585 l4.73113376416194,2.8190129440631564 2.5246673933422894,0.9456572820771194 m-27.4120793303962,8.320538337994128 l2.2209050371576624,0.20583006572111673 14.284612158584999,-1.806199455593364 l3.45030583161977,-0.11328481345013952 1.7808858312680202,0.23508648302300414 m-11.816001088885036,-6.9022412818057965 l0.6147354002735242,0.7436693462715319 0.29532734273683703,1.12325605470914 l-0.0691688084177032,15.346050650239127 m-15.035125529306823,1.3217923918227255 l2.8738606106569713,0.3368665269397311 23.270915116659083,-1.8868048163411137 l2.8791749062750838,0.35395578456648014 " fill="none" stroke="black" stroke-width="1" /></svg>