<?xml version="1.0" encoding="utf-8" ?>
<svg baseProfile="full" height="107.56879383845168" version="1.1" width="110.79686366521321" xmlns="http://www.w3.org/2000/svg" xmlns:ev="http://www.w3.org/2001/xml-events" xmlns:xlink="http://www.w3.org/1999/xlink"><defs /><rect fill="white" height="107.56879383845168" width="110.79686366521321" x="0" y="0" /><path d="M25,25 m0.0,0.0 m16.66801098571473,6.692943452473991 l0.0016109912733228648,0.4881205616676186 -0.1760562025574966,1.3555093786723076 l-0.9649719226566396,2.293371357029428 -3.611148866380675,6.082815021695807 l-4.373548348218352,5.731573985247242 -4.111927834541291,4.1133554678311235 m14.4461300141854,-16.517192126186007 l2.1521148099978307,1.1717274043933592 2.5074722259143534,1.9884267827584137 l2.0936219891796273,2.2526303934699285 1.2213966686126407,2.1122487900390556 m-16.3008118514817,6.114423211759172 l2.6266068940873946,-0.03838704260589332 7.133608235883422,-1.311292905258638 l3.6262186251860733,-0.25173581348088014 m-18.405718815914838,11.536493445908295 l1.6352654432418792,0.2905862151272426 1.524962350840286,-0.07912553997033808 l14.79114806714326,-2.410580299161482 3.110861971150328,0.04468983695503328 m-9.999732519874627,-6.420955876036676 l0.49019623693226333,0.48277737768878765 0.34568654029003815,1.1911080074767262 l0.23161815729875487,23.899788675806857 m-10.286505343059925,-10.003342784504165 l2.1272010727082424,3.5066180212146323 1.4963116543427801,3.9773004576096262 m14.882796420694131,-11.953479262823302 l0.05883922766373024,1.0977321797628403 -0.25646388563359335,1.0902549621190007 l-3.3500470688901496,5.6098963275700715 m-16.43049427368491,10.691786104238085 l1.1992116785317453,0.6081043640119802 1.4118934202781057,-0.09149214416382379 l16.366078034503026,-8.156928650836385 m7.169360681008349,-40.140051268756096 l1.6365170521444223,0.3252272390275375 1.99795349169264,-0.04783877930450294 l14.426550557543464,-2.3073393362033325 2.840844312956169,-0.11529949890619617 l0.9023892505567658,0.7679943793489314 0.21458506868371033,0.7418276972150134 l-0.22102263771722988,0.771543923905106 -3.2769240233617563,8.306848025727337 l-2.337858462948945,2.913313028857526 m-15.951470210236703,1.386150281290081 l2.2580658898473613,0.1490417144413578 16.916183506843232,-1.7310709724396607 l3.189374596258332,-0.12879561782697374 m-22.586350388562682,10.098329210304748 l2.0727491569176584,0.25145128794475946 14.498182698564662,-1.8339295504138182 l5.850027478050502,-0.40052732207557873 2.052729952204182,0.22701978923092822 m-13.906700437187348,-6.860757266927201 l0.6583923233863572,1.6581920366326168 0.11058697362176483,2.9014111570109344 l-0.18067412474980257,31.735638108560604 -0.265068345476708,1.2098083401580975 l-0.5177333033977085,0.5008378941504064 -0.7000334414133619,-0.08137292189195203 l-1.6554627933465256,-1.0404337886763073 -2.0609162882291323,-1.921744438871487 m-5.939394428554623,-20.9414545940003 l2.6414892552868934,2.593418119331665 1.3923080383056121,2.202814984534329 m-8.21365223621925,12.09209278412888 l1.257146925494362,0.9587723311130272 0.9916050442305204,-0.42894182706286393 l9.186368864051474,-7.814307958200737 m16.913647523052646,-12.42540781872156 l-0.406662118197403,1.3752206342465019 -1.5153607969991427,1.9016908893453939 l-1.9352940946816513,1.7233550084672966 -2.4405420521858754,1.630640862210844 m-2.390711281042744,2.5515243870279747 l2.872465739737456,2.1121069958251932 8.674228657912137,8.37623646387374 l1.6321372496521982,0.932581098428747 1.061370058959759,0.3068203182726296 " fill="none" stroke="black" stroke-width="1" /></svg>