<?xml version="1.0" encoding="utf-8" ?>
<svg baseProfile="full" height="104.57560064924657" version="1.1" width="109.11551748196601" xmlns="http://www.w3.org/2000/svg" xmlns:ev="http://www.w3.org/2001/xml-events" xmlns:xlink="http://www.w3.org/1999/xlink"><defs /><rect fill="white" height="104.57560064924657" width="109.11551748196601" x="0" y="0" /><path d="M25,25 m0.0,0.0 m20.51017595199394,7.935286408992358 l0.0036624616999931803,0.48605617825568953 -0.17686239954065322,1.3272221326537443 l-0.9934521432109346,2.2663828515721023 -3.6672743886986425,5.893585235539445 l-4.46600729237108,5.63722218008263 -4.192997109277622,3.998688512375007 m14.217899377030848,-15.875859517943237 l2.250825856326079,1.0771512465219517 2.6550367003591373,1.7772297371407924 l2.1878870706182765,2.060910255063107 1.292718577421517,1.9670341679231906 m-16.934725475558615,6.0343610508853445 l2.658377728967432,-0.06175007000668947 7.358536575095705,-1.3727889142832308 l3.668575252646502,-0.2407727032902398 m-18.828082019742308,11.090565139452378 l1.6962012425775632,0.28770018565994177 1.4806545777905085,-0.07160281682565305 l15.221880577265845,-2.4141468592502613 2.4032197736096674,0.04270988827991492 m-9.560509820281197,-6.112805143745979 l0.49618460385274493,0.4554900415696095 0.3424708398546339,1.0954826751083302 l0.23019820741181254,22.843721362981373 m-10.386201571424362,-9.437880671109896 l2.1126725691256856,3.1128138544171726 1.4982025638241037,3.7307276793969613 m14.847026390671077,-11.454290797365783 l0.020088630372686756,1.0330282962125432 -0.24876928485167651,1.0400053935046871 l-3.218169027170119,5.398537470530679 m-16.310193483579045,10.537162216366381 l1.2334410235268676,0.4884239825822015 1.3121179091431203,-0.19032951182184019 l16.449123858164718,-8.139775806990887 m6.85522741402701,-37.66931570333442 l1.6512382942869157,0.31553911920941813 2.003133957560993,-0.04757923266692375 l14.487146070182547,-2.300502041881372 2.727707590720975,-0.12357723688919524 l0.9195653335981211,0.7094780032357212 0.20385436323167577,0.7227814082695401 l-0.27000968975165146,0.7260747122641268 -3.3912646042972683,8.058075523691718 l-2.312298100308886,3.363031493685372 m-15.837088334469872,1.2681749504898299 l2.301098193999828,0.14723635713460026 16.83211942731963,-1.7079425924786287 l3.1246052208140482,-0.11398757715564739 1.860100959636566,0.22174391950356287 m-24.636730790506224,2.5465548043360897 l0.6825919359599675,1.5690181253084337 -0.019781833578459338,5.688051739693421 l-0.47735983110993185,4.663503491409519 -0.8946025630463185,4.858591302886064 l-1.137270057779614,3.919233966089893 -1.5806868182373401,3.490004851386803 l-1.6896234179345406,3.0370506581674026 -1.8802794844000386,2.774766818023918 m8.165443717033488,-21.617812932667476 l2.557149446381902,0.22309199537226146 18.39150981724238,-1.8233553772925393 l3.316086961745887,0.12742787993557164 m-13.711457635662933,-7.281396262425256 l0.7336196572336764,1.6764848620028527 0.05381478849033419,12.68901215352814 m-9.9016541325954,1.195944118047722 l1.1660939895455955,1.5774919519134345 1.9333694393593162,10.102810269645985 m-1.9323440677490156,-11.343686274939287 l15.79172915335393,-1.9046666344167078 1.5755911194738097,-0.056860876195612496 l1.0957427770725146,1.0817875740654652 -0.052449332987469864,0.6708472141641562 l-2.0706309673387624,8.376784007831516 m-14.950920631414528,1.8841995196230226 l16.048545155621202,-1.3760113122110775 " fill="none" stroke="black" stroke-width="1" /></svg>