<?xml version="1.0" encoding="utf-8" ?>
<svg baseProfile="full" height="100.27782518231601" version="1.1" width="107.22048991265478" xmlns="http://www.w3.org/2000/svg" xmlns:ev="http://www.w3.org/2001/xml-events" xmlns:xlink="http://www.w3.org/1999/xlink"><defs /><rect fill="white" height="100.27782518231601" width="107.22048991265478" x="0" y="0" /><path d="M25,25 m0.0,0.0 m15.924470870196403,2.824769733439494 l0.014096992316035171,0.4582230799697142 -0.22779378606380232,1.3493153640032647 l-0.8929099442689284,1.6708068450295035 -3.4187560337534575,5.065642484815434 l-4.39015231420623,5.129277439317099 -4.316266901854883,4.044797484016289 m15.145144890385133,-14.594702032373746 l2.212880170169712,1.403683831303564 2.2933489484008844,1.882812140849988 l1.677420053601423,1.8070831839236206 1.4074854329840092,2.046057575115539 m-16.5315432066731,4.186469167076916 l2.2531478169726227,-0.026980825457162756 8.88641705392938,-1.2437566285512869 l2.43397329664932,-0.10397704909223694 m-18.140950669858537,9.828216062390998 l1.0340030230398247,0.28757070892365927 1.7655854084343998,0.015110339005456237 l14.542785002708674,-1.841998036203876 1.8484043050246892,0.00857590279198843 m-9.047576657919407,-5.931627300637621 l0.6372541764780811,0.8189765801824362 0.16077555480460515,0.9695827480675815 l0.043296044848426356,21.325064219120833 m-8.766515154458364,-8.01762696619367 l1.7635275506882664,2.6688318091558028 1.2263127747109397,3.0872616401262314 m13.589973318020126,-8.68747418723354 l-0.07974698674475938,1.2865819403656502 -3.5866296910605864,4.919627302934815 m-15.021437169015206,8.058087719240515 l1.387443293839842,0.6507378985370056 1.268362247430447,-0.23851747741436927 l15.386579774034814,-5.50358238248241 m16.516089595240153,-37.04268324672446 l-0.2330702526180862,1.4544717723158886 -1.3755789875390663,3.5336901951550397 l-3.912435350120852,7.410229831114746 -4.2063895308337145,6.149095344132919 l-4.347478308709779,4.801425581909356 m14.220778606446764,-20.684641244500572 l13.98705925539216,15.171668759078377 1.751729660628939,1.5256817521799237 l2.3373757409774645,1.6272307648075397 m-22.88272460900198,-1.47381720707729 l1.399784538457685,0.14854182268280444 11.30823546523736,-1.3175164779114252 l2.1517730366934007,0.1644310053922541 m-15.826863468289867,6.471554449658259 l2.0793640987149753,0.4762823593281214 0.8712605121921048,-0.03173041163079186 l11.512004796135077,-2.326017827874699 1.3551113704490898,0.018266335326176043 l0.6055283216214754,0.2387677557896102 0.3786984750836434,0.5126015077290816 l-0.08728266011315136,1.912883150860077 -1.13521078012078,5.3989970091688555 l-1.1064554746771493,3.6602691015440123 -1.3802988279467188,3.2043071289591185 l-0.995674697517205,1.2815281616302103 -0.4859193031609836,0.18905948899194253 l-1.0844606557759355,-0.2997673813557885 -1.3826307983254056,-1.0879992776854528 m-4.992271971572149,-12.827231547070452 l0.7638303515909731,0.8484210621643214 0.3608014647072083,1.1182192206491726 l-0.11110479932550277,20.448685929515673 " fill="none" stroke="black" stroke-width="1" /></svg>