<?xml version="1.0" encoding="utf-8" ?>
<svg baseProfile="full" height="113.77672176664777" version="1.1" width="125.21754715625755" xmlns="http://www.w3.org/2000/svg" xmlns:ev="http://www.w3.org/2001/xml-events" xmlns:xlink="http://www.w3.org/1999/xlink"><defs /><rect fill="white" height="113.77672176664777" width="125.21754715625755" x="0" y="0" /><path d="M25.696493007777878,28.12223909616305 m0.0,0.0 m13.456761250585675,3.3599771058786354 l-0.012318927140503548,0.6319835903607033 -0.35321592123879936,1.7501012312555775 l-1.104257058335243,2.7279318249418063 -3.640153063241224,6.490478588884637 l-4.4140157992985145,6.15730486497802 -4.629293489109269,4.933296225832347 m15.19078170514692,-18.092823646162415 l5.239664545068221,1.2378129850106274 3.4568149274786975,1.5504147376207207 l2.7916954937742493,1.8734412122864954 1.860403583750771,1.806748587222486 m-20.858677541814238,7.128533791845635 l3.854484806236674,-0.2188397848403602 10.578022140819924,-1.6535464944489127 l4.106678211246217,-0.11462662657309483 m-23.05045537533088,11.4703156683349 l2.226998594562465,0.24719945873755209 2.165441088364152,-0.13431530770919428 l17.671455778234,-2.6533648317099123 3.4314603089279716,0.05196248556429835 m-12.520560655950227,-6.212199147256883 l0.6592441353829837,0.5164652398738678 0.4708961469939149,1.2643623289643262 l0.26218484897065175,24.669158404895136 m-12.592808038682463,-10.554313094174686 l2.792019815611307,3.811771940302618 1.8555266752389405,4.2029830176191165 m18.07341406010572,-12.070606120076237 l-0.1959452709102752,1.5988118740995174 -4.398239961366473,6.3659528387296715 m-18.5006392838414,10.133417466664032 l1.6261398456857135,0.7001672560437087 1.6389619282057821,-0.18911120737006265 l19.366347836404813,-7.052440747860924 m15.21665676926888,-43.39800764104588 l-0.1749590945759849,1.8425978999064458 -2.9400291686002444,6.45903670302706 l-2.962675927847467,5.264991296525432 -3.340689435941132,4.868244702763642 m7.303937204556448,-7.982392983065254 l3.5491766142852,0.13653859300279966 18.715260450224097,-2.5367372172152516 l2.2483372214294204,-0.06959308136052282 1.1429116372314574,0.231661274078928 m-34.454951367154365,16.148539379691538 l4.782730007216583,0.1425740235341521 30.651151911927137,-2.8702773703334348 l5.207537398085212,0.21196183424483153 3.071842587838192,0.42060266041890043 m-23.827168932071487,-27.726384888100206 l0.8055918442931409,0.9607779588812863 0.37721085076857774,1.7722336874985023 l-0.07733015226941452,56.68934258820505 -0.24969455436710183,2.272840091927788 l-0.578552092822498,1.2185217706830547 -0.8044517306398694,0.25586340001307606 l-1.9864198694120285,-1.0608267311220465 -2.39500249333552,-2.555669471620792 m5.200584521757146,-27.013217523289594 l-4.203124377015841,6.912001619796998 -5.968442024983576,7.275841140175309 l-5.951440307931649,5.632358901341062 -3.5583408244267702,4.223581025747647 l23.299064331621814,6.6611105185022 m-5.266838779415178,-15.832232463551978 l2.2506939009308535,2.833297592706511 2.549077968505727,4.978013099530674 l2.000819150531788,4.907406061244761 0.9140012504088624,3.6454784999782484 " fill="none" stroke="black" stroke-width="1" /></svg>