<?xml version="1.0" encoding="utf-8" ?>
<svg baseProfile="full" height="109.20924215344712" version="1.1" width="109.49251293204725" xmlns="http://www.w3.org/2000/svg" xmlns:ev="http://www.w3.org/2001/xml-events" xmlns:xlink="http://www.w3.org/1999/xlink"><defs /><rect fill="white" height="109.20924215344712" width="109.49251293204725" x="0" y="0" /><path d="M25.000000617001206,25 m0.0,0.0 m14.236887693405151,0.3197689354419708 l0.00405104598030448,0.5943907797336578 -0.21203439682722092,1.6920015215873718 l-1.0632436722517014,2.8804272413253784 -3.8229408860206604,7.332125902175903 l-4.689953625202179,7.023000121116638 -4.4527667760849,5.008695125579834 m16.262588500976562,-19.898024797439575 l2.2942274808883667,1.2553790211677551 2.894672453403473,2.2860363125801086 l2.5011426210403442,2.7810651063919067 1.4131471514701843,2.364030182361603 m-18.598841428756714,7.293663024902344 l3.398960828781128,-0.14585991390049458 6.843507289886475,-1.3923132419586182 l4.899361431598663,-0.6498367339372635 m-20.72995662689209,13.903545141220093 l2.0905177295207977,0.3484789654612541 1.9491317868232727,-0.07636888884007931 l15.997980833053589,-3.0663299560546875 3.9801746606826782,-0.37104908376932144 m-11.897788047790527,-6.769430637359619 l0.6900133192539215,1.09761081635952 0.2142157405614853,1.557382345199585 l0.043761590495705605,26.24222993850708 m-11.020269393920898,-10.427659749984741 l2.591956853866577,3.3850717544555664 2.0763613283634186,4.4121673703193665 m15.68137526512146,-13.242557048797607 l-0.17504079267382622,1.7140820622444153 -3.559221923351288,6.111648082733154 m-18.177175521850586,12.262470722198486 l1.211574301123619,0.5114111304283142 1.2610772252082825,-0.2051120065152645 l18.499122858047485,-6.578720211982727 m19.191449880599976,-48.59403133392334 l0.09291808120906353,1.2877874076366425 -0.3816886618733406,1.2842260301113129 l-3.673185706138611,6.717791557312012 -4.532541334629059,6.138002276420593 l-5.466330051422119,5.8783793449401855 m14.006112813949585,-13.253953456878662 l3.434218466281891,-0.033654842991381884 8.461432456970215,-1.6730374097824097 l1.9680070877075195,0.18198544159531593 0.433417372405529,0.5374090746045113 l-0.0960676558315754,1.7315326631069183 -1.7382992804050446,4.168214499950409 l-2.637186348438263,4.7565507888793945 -2.505772113800049,3.787861466407776 l-3.9623677730560303,5.121234059333801 -3.381154239177704,3.743700385093689 l-3.6838695406913757,3.529306650161743 -3.9431366324424744,3.1988126039505005 l-4.158954918384552,2.752218246459961 -4.3313246965408325,2.187742739915848 m9.618518352508545,-22.46220350265503 l4.312805533409119,2.902863621711731 2.0584653317928314,2.0591777563095093 l0.827125608921051,1.3027450442314148 m-7.9774439334869385,13.3451247215271 l0.7931146025657654,1.159578412771225 0.5336696282029152,1.9861698150634766 l2.247128337621689,15.914288759231567 m-2.0570409297943115,-18.222761154174805 l19.128059148788452,-2.71602600812912 1.9412967562675476,-0.09399205446243286 l1.424899697303772,0.47054458409547806 0.8077161759138107,1.0723251849412918 l0.10194390080869198,0.7578571885824203 -3.2881134748458862,14.22940969467163 m-17.413620948791504,2.0128799974918365 l19.329276084899902,-1.495192050933838 " fill="none" stroke="black" stroke-width="1" /></svg>