<?xml version="1.0" encoding="utf-8" ?>
<svg baseProfile="full" height="98.95360722632796" version="1.1" width="101.28933883882554" xmlns="http://www.w3.org/2000/svg" xmlns:ev="http://www.w3.org/2001/xml-events" xmlns:xlink="http://www.w3.org/1999/xlink"><defs /><rect fill="white" height="98.95360722632796" width="101.28933883882554" x="0" y="0" /><path d="M25,25 m0.0,0.0 m12.971023661977084,3.5796260329792453 l0.01761938775367685,0.5209454360769092 -0.1837480197283391,1.1810252421862373 l-0.8766248534278235,1.9614893711096317 -3.3633011595826936,5.533549829903559 l-4.035465957292,5.216859703971909 -4.150417225255645,3.904621036526357 m14.409438105405618,-15.138444300876692 l2.1912569210336974,1.2104267443168661 2.8408309989044844,2.0077489994069624 l2.122394695905059,1.963234945381065 1.2967552379108682,1.8911796272977168 m-17.00710238142017,5.1060565118967665 l2.5684688377018183,-0.20367011352360512 8.396784192682714,-1.5731996338630139 l3.367886452336938,-0.04791137400650793 m-20.03974068749728,11.586792899749208 l1.8220926019652695,0.26484126064834024 1.7882420827038785,-0.05111855033598952 l15.24300274227038,-2.2047427646934312 3.441906014471004,0.041642380474916106 m-10.158700666398179,-6.930011429536168 l0.6441026461222921,0.9344642964028105 0.20346648798482334,1.3112686043289905 l0.020452707184106803,21.93580484622044 m-10.907332111091167,-8.795595277179329 l2.360636579881255,3.0529505564375774 1.6407372823087378,3.58630498346023 m15.080220860991753,-10.564739100884063 l-0.006023776416695754,1.3765020414653362 -3.8692625233836577,5.564778428363055 m-17.037420971708954,9.496568829865067 l1.1884208694794347,0.36741305879867747 1.289504868428412,-0.20390577109562605 l18.036765959728527,-7.484205688246869 m6.297472160574713,-37.09514408005542 l3.342059820162127,0.21984610810589947 13.762775481964601,-1.7112649461653344 l1.6114041304509479,0.4179890690992418 0.44099790291127916,1.3774205297579374 l-0.15121036403291288,0.9668138972688534 -2.8121888434172595,13.732374729480245 m-15.993044218345426,-6.560167918002802 l3.2538098895853453,0.249655872395006 13.458098703172348,-1.4731477559996644 m-19.581607054315946,10.578970475092426 l2.571077053728424,0.05904010244798139 17.854313817762304,-1.8988090262903279 l5.928510496695769,-0.33971163911614016 m-15.836343685048162,2.609591097384568 l0.6790134795230629,0.880397673032087 0.37116826204591585,2.005790938541833 l-0.1981063216300745,23.110934238541518 -0.35786269086957123,1.1233047814994845 l-0.565937773166486,0.3011714162839785 -0.6962833278939857,-0.25559724782233434 l-0.7499630429485589,-0.6281800012320069 -1.8835867232133852,-2.1465999957303445 m-6.88265041118887,-18.81759334693592 l1.3670113694650945,1.990186509705854 1.1542845182805694,2.664783224093233 m-7.047896146762711,-9.44171367230724 l0.7542945864408088,1.8759765547499465 0.7086392052994712,4.567382389091326 l1.1021354386674393,5.005009583397613 m10.48145473532887,-10.697756892670846 l-0.05563275958836517,1.3078003657087636 -0.8510536509561321,1.6964864005483637 l-2.8159682041431635,3.461174488555814 -3.0002076278212266,2.8679026194299615 m13.082014959793916,-9.22280649664618 l1.7347206564112319,1.1990130047581293 2.0754602375915985,2.190516883571652 l1.4822657865636297,2.1505442168006903 0.7755275907860332,1.8376704827902028 " fill="none" stroke="black" stroke-width="1" /></svg>