<?xml version="1.0" encoding="utf-8" ?>
<svg baseProfile="full" height="116.97634772903089" version="1.1" width="102.79543819911841" xmlns="http://www.w3.org/2000/svg" xmlns:ev="http://www.w3.org/2001/xml-events" xmlns:xlink="http://www.w3.org/1999/xlink"><defs /><rect fill="white" height="116.97634772903089" width="102.79543819911841" x="0" y="0" /><path d="M25,25 m0.0,0.0 m14.200481068261805,4.3107838986811995 l0.32845398040258506,0.5486441939637278 0.4906640360490165,1.3966599304495537 l0.11641004246734106,1.4991028597115437 0.017691295679456744,49.69317069098443 m-11.43021765125377,-48.89330831101519 l0.6882237199360502,1.045388548338711 0.16964388063771887,1.3203799802916796 l-0.7041060601508392,12.687768534134982 0.38750028050404495,1.3068063585234049 l1.252441417571646,0.25161168017111035 9.454709533861202,-1.4764044967252747 m-14.202237905640521,12.364371596415886 l1.4838593348907438,0.27593123884822396 12.410718503671486,-0.15004572443438366 m-8.366720721848692,2.1808908369043447 l0.26529400876569503,1.8245345579390164 -0.28763037124568525,3.9266276473936625 l-0.5486246643500897,3.213180010181518 -0.7095830294083796,2.585161013349227 l-0.9670758456120555,2.382281093188462 -1.182106851486932,3.793857636531238 l-1.3244505993736202,3.0143388962630335 -1.405583678402696,2.2023271565384444 m31.57615452095725,-52.076137538432235 l0.11287230692123369,1.5714708599125216 -0.432886144811861,1.225323085260725 l-3.1788775774151983,4.754526493083443 -4.15439506943933,4.375324679266905 l-4.276655057176078,2.9821576453662466 m11.507211189590763,-10.652782329260178 l1.4913912801423075,0.3728598005258824 1.9280677248208091,-0.06696082289805612 l9.571288159400178,-2.092765315245729 0.6519998200168071,0.41793907335245917 l0.018589019245081294,0.7524275117203774 -1.0835524090299622,2.64982545153271 l-2.4127790463636556,10.13253459082765 -1.7306607406046974,10.608908568524189 l-0.10946709140121802,2.1840579072810486 0.43773356250810136,2.139143377962685 l1.0459255101433662,1.1580621271563596 1.7462281448749797,0.6059240773718075 l3.2862661792822716,0.09729460192407756 3.155083122022048,-0.2794959398751848 l1.534620091413922,-0.48016199716232183 0.9831823953463124,-0.7392409530163936 l0.6441721673400792,-1.0451623141129225 0.34617241740939125,-2.033094898078509 m-23.101972853283,13.011586444843257 l1.1320375386245631,1.9157746123424382 1.158942163231771,14.182949102229086 m-0.7955569821923245,-14.623822003285799 l15.153816886308494,-2.181514100239372 2.0682679911121493,-0.16247737890372912 l1.2089308122327853,0.33982395171193097 0.708238589294844,1.033986956359924 l0.048263591061399755,1.3436433638767324 -2.367117481214431,10.990211921734609 m-14.899290025876128,1.8694834859035008 l15.987440320489966,-1.4987231977730313 " fill="none" stroke="black" stroke-width="1" /></svg>