<?xml version="1.0" encoding="utf-8" ?>
<svg baseProfile="full" height="111.83045242878143" version="1.1" width="96.62863146045913" xmlns="http://www.w3.org/2000/svg" xmlns:ev="http://www.w3.org/2001/xml-events" xmlns:xlink="http://www.w3.org/1999/xlink"><defs /><rect fill="white" height="111.83045242878143" width="96.62863146045913" x="0" y="0" /><path d="M25,25 m0.0,0.0 m11.489649621114703,4.551846735266947 l0.3760478977864346,0.25637304508467723 2.510808097933227,2.1811064294475533 l1.298146098579409,1.3128487812168879 m-11.243402249173737,5.352555275204168 l3.1858698772451057,0.09001370668535445 11.449551790177583,-1.3754089825558449 l3.0493594837525273,0.020762834770394825 m-14.186818435417916,7.693637957251441 l3.039581003534274,-0.05028143364858354 5.993697792432396,-0.8879234214267295 l3.1766065236400456,0.03226382777188936 m-11.90156089504951,7.1215108845870345 l2.7189768054027783,-0.019917837199116974 6.695679094698011,-0.9015816389586675 l2.958938849270254,0.0010519882725910923 m-12.74036380681253,7.282121031146961 l0.5320737882022119,0.5971893950521825 0.2540705818261508,1.0129828980104432 l1.6337973256533218,8.101728908619355 m-1.5253819780411355,-9.000705024518583 l10.436148076288003,-1.5323364738163596 1.13573521680637,-0.06811312626707144 l0.8868707269585833,0.9497932162665771 -1.7828789814367496,7.132061635651919 m-8.80878359132115,1.470474261441499 l9.682231602239648,-1.158787667841285 m12.487101003959959,-35.52206150435189 l1.918415968092772,1.7711338802473575 1.4147829086304566,2.1855733003524485 m-10.807381778067947,3.6252882747238817 l2.338359211536112,0.10965323225938728 16.359976710536877,-1.7182338297863198 l1.5471469709744083,-0.09736021930348657 1.0555801485081768,0.19052645360068304 m-7.563827645375605,3.3016830236864982 l0.146403676024743,0.9950730557911799 -0.27272646374465614,0.6007117638648979 l-8.35277462458306,8.882579629757496 -2.871456789164453,3.4881531574569995 l-4.573151101762898,4.653149397390792 -3.144120267710291,2.3565800737074536 m4.1216840256799365,-17.145928002699858 l3.0262442817038795,1.8766457039103064 10.313663577970228,8.529370640301066 l4.701478480794459,3.627984626186059 2.2162866952603624,2.0992604210509325 l1.8771530324508385,0.7319680007242713 m-23.611422504918774,0.5074323522521399 l0.4713345304342049,1.157707972910542 0.00660945616396837,3.594492275955085 l-0.3026138638164187,7.945304794272443 -0.5298870245848613,2.83951770961173 l-0.8058853901452802,4.162270101759568 -0.7971896717430058,2.7221213404552036 l-1.0759420737001335,2.4373227544861398 -1.2726466145719568,1.7572648426927897 m20.562537062482054,-19.86259163209084 l0.07657054104033621,1.7552020231897791 -0.16958187186351137,0.9847171389518115 m-8.64168663840807,-4.595296836955682 l0.7565940265581851,2.2673201346148177 -0.08557666960467276,7.96663106826498 m5.365268031103441,1.0706602961133194 l0.10676145651731798,0.6040466021915425 -0.31527900157180605,0.7343372139899491 l-2.7960006667822768,4.007331418507536 -0.17584495609972003,0.32753115976136926 l0.25026738485475525,0.3845880226796461 " fill="none" stroke="black" stroke-width="1" /></svg>