<?xml version="1.0" encoding="utf-8" ?>
<svg baseProfile="full" height="95.39181012975443" version="1.1" width="118.91891214709871" xmlns="http://www.w3.org/2000/svg" xmlns:ev="http://www.w3.org/2001/xml-events" xmlns:xlink="http://www.w3.org/1999/xlink"><defs /><rect fill="white" height="95.39181012975443" width="118.91891214709871" x="0" y="0" /><path d="M25,25 m0.0,0.0 m17.6240917916225,3.658581749906993 l0.006511100363755158,0.45374333852873694 -0.16446853686405863,1.1092706608557283 l-0.8643379315961616,1.80500787042708 -3.3120426118473394,5.465584018544624 l-3.935593446764054,4.143811881809712 -3.9867937772886552,3.3086717498546467 m14.421613789382238,-13.404472052191977 l2.124459960031996,1.0418992079296598 2.1806410939069174,1.6972874195197445 l1.8586485581150747,1.9443850684978432 1.3038577552411819,2.0127697972562166 m-16.1923906937406,4.951911118255525 l3.1688421979347248,0.07114363671332706 10.135563459189122,-1.286865824038939 m-17.037123472162953,9.098350167508263 l1.792958066184862,0.20252074134077125 2.576735297369922,-0.08502053973932927 l12.623745896101065,-1.6853589093990196 2.1386833990031726,-0.01867060545895262 m-9.329414713467662,-5.505108781203726 l0.5957100166212953,0.8375451524308628 0.15147273327332858,1.045057604556408 l0.0460568147195565,20.030546309547418 m-9.7568306454552,-8.475314605687352 l2.390358800985253,2.8602303825574675 1.768322061622602,3.4846197760703017 m14.159926033549185,-10.017895922096908 l-0.1969359118352305,1.3997141787854799 -3.857199742723197,5.381809610398516 m-14.939560151003883,9.437154674878633 l1.1097205162031507,0.4289012533966706 1.161205140195093,-0.2871606389290153 l15.888178790959238,-7.31442435120939 m16.387491135572876,-35.93581162199136 l-0.13614534906526943,1.2600673481376312 -3.0190092532515167,3.9257299856048933 l-3.012048032727824,3.146758774900605 -4.40753492064205,3.6921932239473523 m14.933233701557358,-7.52432855588203 l3.0582123753063466,0.4706769344022713 11.407348400530855,-1.1608355523007379 l1.5366722244162057,0.7433446133944327 -0.12623328447791576,1.8544159287733792 l-1.7355030720912552,7.845947837558094 m-18.965220290688432,-1.342597659915884 l14.673735397844947,0.09368974696625872 6.836240872059756,-0.6340383165596974 l1.7666220434792694,0.14501949263235941 m-25.39880047549944,-7.190004132009077 l0.6657414431071799,0.6225952715726759 0.3261599415951717,0.8835737492078131 l-0.06943788810666278,16.490202769442597 0.25499058828567167,3.5444863851735997 l0.8472234692245967,1.2361694799291039 1.3574146223058676,0.7315352646518765 l2.1373648519891395,0.3785178364780957 4.567323290852633,0.18861874795865546 l9.841168184835771,-0.2912069815569905 5.022173391508386,-0.44095470438614154 l1.9641565265934116,-0.3930272634160045 1.5282123663891574,-0.8092039898947437 l0.7731381824691432,-1.3222207740804905 0.24961006589907192,-2.1403416715374526 " fill="none" stroke="black" stroke-width="1" /></svg>