<?xml version="1.0" encoding="utf-8" ?>
<svg baseProfile="full" height="104.19444984654453" version="1.1" width="107.48596073416334" xmlns="http://www.w3.org/2000/svg" xmlns:ev="http://www.w3.org/2001/xml-events" xmlns:xlink="http://www.w3.org/1999/xlink"><defs /><rect fill="white" height="104.19444984654453" width="107.48596073416334" x="0" y="0" /><path d="M25,25 m0.0,0.0 m14.155609266641376,3.6937897535997752 l-0.0018328829949345508,0.537501319878383 -1.3963731574788532,3.0404342615224578 l-2.935646602458847,4.499469652656982 -3.273935175885552,3.8405618590078188 l-3.569002027897814,3.200733591052576 m12.762196245846278,-12.92139461405772 l5.006268067730934,3.0024672224755355 1.692458347936479,1.5115165119264506 l1.065193597081992,1.4508076782073915 m-10.415517729097283,4.8017476545339415 l0.894232240169079,0.04675647010070476 7.376156241640742,-0.9444338730245634 l2.0314009366918953,0.06764340348581445 m-14.114901414265503,7.579422389559672 l2.748513752356184,0.1764550474014374 10.980513464926037,-1.233098705928428 l1.9392503439869009,-0.007074224280166786 m-8.167695149289427,-4.969407336058891 l0.5837691077284779,0.7550786532772056 0.10061254181873744,0.8736834845961303 l0.008268355224368515,20.126236496923866 m-7.909917319341713,-9.720000485150464 l1.8493921723975777,2.653233344212667 1.4188346616030674,3.485473744024604 m12.039066492392019,-8.10908741832396 l-0.10046513435183459,1.2703028798167784 -3.5063442689984408,4.893268081518469 m-12.946920984964216,7.769272294111762 l0.9236860296106982,0.5430210854550843 1.4453139951484457,-0.024321431713480196 l13.961331204083303,-4.958044644045461 m8.549967979925185,-34.24988757287197 l0.5919547633040437,0.7706417198643972 0.23172442954693553,0.935927359115967 l1.1824299322791774,11.89897843942224 m-0.5115217979702247,-12.821847711776483 l14.229965974675945,-1.3206984588071247 1.1984172608224375,0.10475323594678562 l1.0057765873037567,1.861687509199558 -1.595651636711094,11.520463530188497 m-14.40988846167938,-6.1668084177699 l14.832676582784531,-1.2127462815453247 m-14.418970510804012,7.1370506105276625 l13.36766264772359,-0.9545136989028139 m-9.483861071586116,1.8981916984131988 l-0.4431384077726951,1.3984911654090573 -3.149332670943522,3.6063757454962957 l-3.0420950452759126,2.7319630737488763 -3.745376219021903,2.59689129290112 m7.345242817200997,-4.074695005106095 l2.8187064539479842,0.09937915855176456 14.31578892902183,-1.5635334778073713 l1.3181571976720234,0.18985730806436013 0.8401198545323044,0.23432922901730555 l0.6033431749565802,0.7259030601826141 0.07611889054355742,1.2292390127673687 l-0.5186830731544739,13.214762034101527 -0.44868725944593485,5.804476707566775 l-0.8949884562564822,5.134490170108255 -1.1662401730225376,4.035434949118179 l-1.3415593606992264,2.2535305552338354 -0.6010574319877504,0.24434875942360926 l-1.242511472770897,-0.37706685435939735 -1.4924756165738402,-1.6176979728986198 m-4.010277841521847,-19.066411486712312 l-0.413194558133622,1.4703694978990263 -2.072943198898439,3.154660261831509 l-2.1108258925132883,2.3761636316790478 -2.650651654088126,2.298956697135076 m14.49438578049716,-9.63262203404986 l1.190679114080539,1.3065945141233681 1.545208796155208,2.2411296330281747 l2.062260614633777,3.9862847373461583 0.8057895453969532,2.1108622863481328 " fill="none" stroke="black" stroke-width="1" /></svg>