<?xml version="1.0" encoding="utf-8" ?>
<svg baseProfile="full" height="106.4112890938068" version="1.1" width="125.70957511114763" xmlns="http://www.w3.org/2000/svg" xmlns:ev="http://www.w3.org/2001/xml-events" xmlns:xlink="http://www.w3.org/1999/xlink"><defs /><rect fill="white" height="106.4112890938068" width="125.70957511114763" x="0" y="0" /><path d="M25,25 m0.0,0.0 m12.38760907011938,4.125328693579013 l0.06380432307956796,0.5710262862312124 -0.36894734666647644,1.4714391558919817 l-1.3860479422482124,2.5777002132228533 -5.944702298122977,8.628129688437268 l0.11880120378260156,0.8635741738539343 4.021197076083234,0.32057614479445645 l13.56799441217468,0.7341568924391746 m7.130547197320361,-9.430897554620893 l0.18119929674910304,1.1467476216272794 -0.3585266384290551,1.0363389686978886 l-2.766147471559116,4.827299228130677 -6.576036912055914,8.947518077766325 l-7.082376380954627,6.329101527296694 -0.6315474522947309,0.7684213217017857 l0.21056888785548475,0.6883667065092703 0.7966341936698887,0.2573059854365937 l1.301020305767793,-0.193384578939338 15.264821519894124,-4.595851068356065 m-2.2706103874540267,-4.495680051347098 l3.3764588205880197,3.461274029803124 1.952620818720513,2.703366894683236 l0.7299576267439309,1.7124885383377177 m-12.441459098334414,1.0444280968470006 l0.7973264490015066,0.9949011917043895 0.26467190462054696,1.7178345021051262 l-0.16037315828540796,19.175949149159493 m-7.670813113945428,-16.39715127181665 l0.0546806032176133,1.6098136842951527 -0.7451625128453413,1.3267350141333303 l-3.5650954230732754,4.763462824353429 -3.806876094906271,4.420987052918448 m22.494741254080896,-12.992786913864027 l2.1842813232949343,3.2504857177290463 1.8935398308922073,5.086173776664797 m7.637221531939662,-44.35029698420061 l1.857668298437971,1.9415606250941586 1.9752980144100754,2.564791494204196 l1.7318783149558141,3.9996690497235114 m17.97498140360421,-10.55891783657541 l-0.15609933503281329,1.3904775414325068 -1.7291213366535099,3.560806843049289 l-2.1149986381328514,3.1357086422810077 -2.5578209590926364,3.2127724121004695 m-19.08370889263463,3.335308208373329 l4.5946413829584705,0.07448567852869525 22.09471641056432,-1.7516289785817074 l5.721665778021815,0.09595851399356915 m-32.441276680526386,11.521346426944907 l3.376279734719501,0.1707797320496831 26.12539621584947,-1.985044965258881 l4.05767491877764,-0.0824785513833051 2.690118113816876,0.24511255537918353 m-19.622978724426133,-22.969246990480727 l0.7971554319666826,1.0328316471180834 0.2500588699846333,1.276690130362171 l-0.02952534491810408,51.39225387408788 -0.37028899802527493,1.608844233735887 l-0.635169993486242,0.8667848759324311 -0.7953941172266663,0.22754119648986917 l-1.8308712749640799,-0.7387712888441635 -2.826741127452909,-2.445994769444419 m4.438515222961367,-24.216195630236744 l-2.964313331821166,2.0920064571271793 -2.851888332305316,2.7072441042781734 l-7.00279397039246,5.651828065252847 -6.322615927453322,4.555429722753843 l-6.473424461364081,3.3596256078638276 m24.89513210915581,-18.718678305174592 l17.57429703732553,14.969600120995779 2.1719856973732976,2.0407575421432513 l2.536168183751953,1.5040571793114261 " fill="none" stroke="black" stroke-width="1" /></svg>