<?xml version="1.0" encoding="utf-8" ?>
<svg baseProfile="full" height="102.31989116304936" version="1.1" width="106.69929912460816" xmlns="http://www.w3.org/2000/svg" xmlns:ev="http://www.w3.org/2001/xml-events" xmlns:xlink="http://www.w3.org/1999/xlink"><defs /><rect fill="white" height="102.31989116304936" width="106.69929912460816" x="0" y="0" /><path d="M25,25 m0.0,0.0 m14.92465002238522,8.55486249558805 l0.0042061944376308785,0.4301111694274343 -0.18046783660337645,1.1560606609863513 l-0.8655785251583886,1.9764374404869656 -3.2703197767777317,5.314895814930043 l-4.029179826665967,5.144095280410523 -3.7833231051582694,3.6817904614411945 m13.386636152770352,-14.31362022055097 l2.104967981008289,1.079377320672018 2.121607877359306,1.5039391501101043 l1.8228244928684914,1.7809137091072762 1.3117198721903847,1.949842173901062 m-15.072127787502327,5.481351825946841 l2.3274932336847356,-0.021104827935591684 7.236533527655984,-1.1566739992546684 l3.3180027067253928,-0.21457685539796123 m-16.555828870842447,10.232828249324577 l2.398022715097483,0.24037655500992994 14.472267120406379,-1.9657891744253553 l2.3235454893971377,0.08866847697558003 m-9.64982175414449,-6.528223123630736 l0.4679033297879894,0.43748975231926435 0.3316408046410421,1.079822859958941 l0.21970297025533853,23.056625343147115 m-9.147468057739617,-9.619582939806234 l1.8500707361322162,2.985937292609694 1.1818452948724232,3.205093470791814 m13.801022687540026,-10.407435575631286 l0.23788762817800152,0.9688163032742699 -0.20531787762118267,1.0125313072028777 l-3.206258200812843,5.077602250469604 m-15.712238984238255,9.548590526052005 l1.7449482274702839,0.5588379895386306 0.9465305989019882,-0.15709046261005014 l16.75456470187429,-6.265684960708075 m24.670453692245903,-38.34239633324319 l-0.5039639987737657,0.7861650348797572 -0.8005019388168862,0.6136165739832822 l-4.566517405637511,2.1396533517895344 -5.51536455752256,1.8652405327633033 l-6.087645956753724,1.4783493470776445 m-4.350744191129165,4.852977741188311 l1.5176598876652314,0.19753535792691668 2.4605224926314175,-0.05991038561242295 l22.892291727521958,-1.9926118010508258 1.8603291294034696,-0.0473744814323453 l1.512116481398292,0.23897608253388006 m-16.569398879451843,-3.8175475094653053 l0.5221621899529358,0.5210847294618309 0.29437485497890603,0.7360066127613504 l-0.06185260522519413,13.814255231696704 m-0.44391087510494953,-9.812423163219176 l-2.745051911484566,3.3770728998789123 -3.4876636547009263,3.37477076295855 l-3.6439590800502786,2.643427458235435 -3.5221983728658293,1.9029148072368767 m14.416749840483284,-11.323373453877723 l12.52192742786542,8.878736623115762 1.3423612415720247,0.7373280891898049 l1.234996209328129,0.3316347346083527 m-18.569000571684967,3.728560343337524 l0.1167608370954418,1.3241489305282312 -0.9028776245597806,1.9838855511044562 l-1.6885736035892658,2.786431065932664 -2.165081836630389,2.7840891061767117 l-4.374708376115583,4.207376816971704 -5.387431318947178,3.8333058362913466 m17.77097232345643,-16.596229236182808 l12.368532487918516,0.28660653966073435 0.895413738787418,0.30477594239256606 l0.43649557494777336,0.9448481684443969 -0.16824268006116072,2.153723705624058 l-2.9591243778125635,5.411472497108017 -5.396429662379832,5.611011123524073 l-0.7014366102759718,0.15171926582852974 -1.058307916361974,-0.10162919513813852 l-1.6773834968852368,-0.6540168812048659 -1.6664295379396283,-0.8028500194045077 m-17.148714033276537,-10.41308524915448 l2.550915857904007,0.8155729787346828 10.094947492497994,1.7875274746725902 l8.293600455912642,2.026302036734906 5.144223847119062,1.7361049038805525 l3.022062461451515,0.6546041384939423 " fill="none" stroke="black" stroke-width="1" /></svg>