<?xml version="1.0" encoding="utf-8" ?>
<svg baseProfile="full" height="105.52792849998106" version="1.1" width="108.65275141463097" xmlns="http://www.w3.org/2000/svg" xmlns:ev="http://www.w3.org/2001/xml-events" xmlns:xlink="http://www.w3.org/1999/xlink"><defs /><rect fill="white" height="105.52792849998106" width="108.65275141463097" x="0" y="0" /><path d="M25,25 m0.0,0.0 m14.240372162828526,5.711973146631311 l0.008408572844459566,0.46942596886585813 -0.20591773510230468,1.1304059557478323 l-1.020619124410853,1.933756105783686 -3.643862995986712,4.9575716081756305 l-4.341757903077221,4.488815041384486 -4.800739015899029,3.6768247546827357 m15.995814977693744,-13.079957058902313 l2.2487124753064647,1.0417601407638617 2.481343742505277,1.6946605235277405 l1.9938151869010003,1.8340310829264355 1.1393180934465208,1.6759151240345471 m-17.34031793148227,5.292927743410207 l2.610494599701878,-0.005566872966358276 8.831132900075024,-1.2036873872148117 l3.7218501345512647,-0.1964627315214606 m-19.424611111658496,9.781483233089132 l1.8637955981201484,0.21558823460635998 1.935943640501615,-0.06655725189110516 l14.512932875357356,-1.8786532644172438 3.320617491632204,-0.05049390979829604 m-10.385264634059762,-5.420423007862773 l0.5276358679921382,0.3999940926120237 0.3870615052191746,1.00409728402244 l0.23977962609249465,20.63184815680531 m-11.534060679430986,-8.699353226489814 l2.718232148709425,2.802294963282142 1.8672505572024918,3.1976301372425895 m14.871171070246433,-9.382830429405715 l0.20495456678675625,0.9713388179904959 -0.2674864444247249,0.9539315360771614 l-4.614129650793797,4.946563808212036 m-16.283709267607005,8.582542914749748 l1.2276287759415923,0.45650011141247115 1.2069157949834868,-0.16496784403601703 l17.70606032505608,-6.800705728360429 m6.514676581206285,-35.32380335539117 l0.6886379578806879,0.33588406345495153 0.4599136755098626,1.200446613466147 l1.3464289967019605,7.402569163799125 m-0.912242193419246,-8.190634734529173 l9.606162328471097,-1.0842052793999308 18.172822162013052,-0.18852691212973569 l0.7561125961527587,0.6554081690861705 0.021473114352118315,0.5734043728199707 l-2.7172808109546343,6.692206404961461 m-18.738156779566324,-6.650842320253732 l0.6078524167310673,6.213006124106403 0.2037694603745999,4.250429665121162 m10.410698653561747,-8.60757073839209 l0.21203253598869995,1.741171733849165 -1.3844807813490112,5.5259043611087675 m-17.276257604357877,1.7415855787751267 l25.376342587681844,-1.7363458660466649 m-24.51575348888839,4.628396416977723 l0.010590551512603243,1.2389377912403525 -2.0321018428392033,1.2502581149716663 l-5.465116523329034,2.8088521757617824 -4.740111700537121,2.1209177020107637 l-5.219015024747092,1.5708716342873148 m25.735015928307934,-4.057530244814048 l0.09799342139565911,0.8132009713607155 -0.7288882636476712,1.0669403999063216 l-5.394788928560084,7.253392902131863 -5.830632641045403,5.783936722169184 l-5.9168662463864035,3.979127393434123 m-5.340208033284797,-6.902718369816166 l3.6575443856804,0.8832854970364191 27.614187261584803,1.324610473296109 l5.115194311067402,0.3379297694429076 m-32.48484808162668,4.738962077228204 l0.7079370821343779,0.8397130889308976 0.3244568759252117,0.9756021755348917 l1.6862215671802332,9.420932991314185 m-1.5329300553027363,-10.75808227017984 l21.647188584639302,-1.7748718237566976 1.9957929611846248,0.09385796113292766 l0.6068445205504261,0.30856173974453044 0.3673061919640654,0.4562826385137804 l0.05160256984842048,1.2574616058232928 -2.5487534564474235,7.902356637046662 m-19.60092468961032,1.2958352969731253 l21.5013768393529,-1.0236649109022278 " fill="none" stroke="black" stroke-width="1" /></svg>