<?xml version="1.0" encoding="utf-8" ?>
<svg baseProfile="full" height="104.65407454350023" version="1.1" width="99.24267295676894" xmlns="http://www.w3.org/2000/svg" xmlns:ev="http://www.w3.org/2001/xml-events" xmlns:xlink="http://www.w3.org/1999/xlink"><defs /><rect fill="white" height="104.65407454350023" width="99.24267295676894" x="0" y="0" /><path d="M25,25 m0.0,0.0 m9.727040232564187,3.806627806016105 l0.2944999885561357,0.37503101135669736 0.6256540143092577,1.284720679606931 l0.1095588900756383,1.137884027110551 -0.15976528350697586,47.78978981695545 m0.23269198337288868,-50.20638472595492 l11.85410365362458,-1.6606581197503025 1.4227887152177299,0.3224434362886917 l0.3206253796070512,0.3366363362979806 0.1730693236954572,0.8039330878754478 l-0.5659677821094032,14.129311724470197 m-13.071510571648066,-7.529243226596922 l8.053713844130762,-1.1066977771087232 m-8.386498411489347,8.538343507032247 l12.438287901368184,-1.6411498314747812 m11.840580358440489,-14.801634309040576 l0.48410549086362176,1.5390040061294834 -0.02899871710301841,13.767460925017968 m0.444370121938923,-14.590588722624544 l11.853582080595132,-1.65442089614066 1.154808264892182,0.3626368893459995 l0.425933479373533,0.7160436765477625 -0.34348991207444873,50.56686548636618 l-0.2844383551567035,1.472170459277386 -0.4529279117405356,0.737659859100591 l-0.5717012183667664,0.15828941739598792 -1.340113712048326,-0.9429553157716705 l-1.72791914779218,-1.9823379606648386 m-8.773789652829814,-43.153120828098196 l8.32061916838215,-0.7735160383082914 m-8.409595217084032,7.825308044340657 l7.1931747145509535,-0.8040416979724053 5.318892159281552,-0.35289849551395264 m-27.077897045258513,7.586032952821431 l1.7192716982792138,2.8049042481035125 0.8727629248712967,2.4558267086567303 m8.297028224431218,-6.740214500396087 l-0.06887659532695407,0.833558103492382 -0.7947027040838862,1.8599248265801671 l-2.3574541426658575,3.5103440488246243 m-10.425561690694739,2.8719103870265363 l2.227971218571797,0.16180058759126514 12.131899557784637,-1.8494717565253729 l2.7861509741012163,0.0717276617577231 m-19.025236115437824,9.369173372930652 l1.524570179835197,0.17913040142425343 17.808330276898438,-2.055260029939303 l2.5319698571267173,0.1299398385508781 m-11.502591872062064,-5.102710822578193 l0.3528585387009528,1.47301952189902 -0.7592534138568453,3.7856817314530766 l-1.0355510645312538,3.3525671428951656 -1.7046773817110972,3.5506539122858753 l-1.6418103879062378,2.3097127932705113 -1.9006561012556578,1.9865905864766877 l-2.1712456742161064,1.684170681660713 -3.0302885491740508,1.761059292235841 m12.379796501515786,-13.435895190589559 l7.397440871887852,9.34925116336942 1.8406672081936581,1.8508181093367753 l1.3938716014833674,0.8675647260199361 " fill="none" stroke="black" stroke-width="1" /></svg>