<?xml version="1.0" encoding="utf-8" ?>
<svg baseProfile="full" height="107.50125531175537" version="1.1" width="95.80669930404899" xmlns="http://www.w3.org/2000/svg" xmlns:ev="http://www.w3.org/2001/xml-events" xmlns:xlink="http://www.w3.org/1999/xlink"><defs /><rect fill="white" height="107.50125531175537" width="95.80669930404899" x="0" y="0" /><path d="M25,28.00140245543854 m0.0,0.0 m7.842151705242464,4.6577507198750085 l0.30079123281243636,0.4098833147710587 0.37291301669441074,1.94658972371827 l-0.01702769603073038,46.01819399346301 m0.48057920111023794,-49.516501936611256 l11.107133414089809,-2.4200256722738085 0.7724320873487958,-0.012618943504031768 l0.8653498582835552,0.3074069693996838 0.47487933091098067,0.38747940742795045 l0.2504634417039446,1.592782426653197 -0.6130334214477084,15.953057278812622 m-12.677196693155363,-7.44740438658568 l12.670029042407416,-2.154467360148508 0.9093938149146389,0.09662857045286362 m-14.085333741103227,10.632195997805935 l13.322101413354696,-2.2958090890663962 1.6713827980205989,-0.2939612336273434 m-14.813435362639865,11.487566563698925 l1.345635648527001,0.14476369972705067 13.07149073485776,-2.374378593091195 l2.2243325507363076,0.10089919031591693 m4.213432140508028,-27.94374354145815 l12.922956557370178,-2.277689555193671 2.3583348061606166,0.1359461024740824 l0.5496978254580122,0.5559354497991259 0.2872455979139941,1.499105778089386 l-0.25623741686875867,51.97544922961058 -0.2876313457557623,1.2711410119514106 l-0.45736885334409877,0.7373508320609147 -0.6080206520177758,0.28614849312237606 l-1.4231067757464604,-0.6608075904817553 -2.6350368162217013,-2.6223784772609573 m-11.445269541711548,-43.9310036462808 l0.1664196595125758,1.2706464172142007 -0.3459824956566022,1.1722178286932299 l-4.057113622222492,4.992955743162327 -5.499411020724423,4.3972903392713265 l-5.565271001900203,3.627404834798305 m-0.4389712706811908,-16.502516847243875 l5.867906536953987,1.7468361151994254 18.964427783270178,11.319869600064129 l2.4905451039932527,1.3572500561845158 2.746553398211527,1.287844582972402 m-28.179462915647946,8.567763258934752 l2.6613628148297583,0.28426217038194457 15.496295342999824,-1.7065459836959758 l3.431738561157349,0.10975821985654821 m-11.324418302167631,-6.843420630411937 l0.5775356681329317,0.9854993426155987 0.23224792741064162,1.27098153074958 l-0.01913542562137011,30.91627154992452 m-0.6593020638061626,-23.792645467018136 l-3.1422492749326074,5.023258648096698 -4.357247468954607,4.625908309232452 l-4.596569431053766,3.9259727295741143 -4.574736124891145,3.3001280716485235 m17.54556905888394,-16.75694710757504 l13.57311026416629,13.526835053860996 1.4780879613629638,1.2172387784850698 l1.563094653970874,0.6678892236912918 " fill="none" stroke="black" stroke-width="1" /></svg>