<?xml version="1.0" encoding="utf-8" ?>
<svg baseProfile="full" height="96.77728396760405" version="1.1" width="97.23712383307999" xmlns="http://www.w3.org/2000/svg" xmlns:ev="http://www.w3.org/2001/xml-events" xmlns:xlink="http://www.w3.org/1999/xlink"><defs /><rect fill="white" height="96.77728396760405" width="97.23712383307999" x="0" y="0" /><path d="M25,25 m0.0,0.0 m26.46233584485657,6.801202451621762 l0.3511508042160503,0.1871589111262382 2.2332626149752683,1.8127618956165417 l1.1124589372928428,1.4291888473300174 m-17.885732600340845,2.9979269839769587 l-0.8516938334632007,3.617838672904952 -1.6801057513898805,4.078721355514722 m2.9474547738263137,-6.446612553890006 l19.57671237179994,-2.0399681491316257 12.276178652513005,-0.7093453605303113 l1.5530122306657606,0.19426230705036157 0.7770118922076137,0.3695519668385001 l0.20172384829452697,0.5095682034859431 -0.7969730958222498,1.2328169619478404 l-2.1540371478874842,1.4568159880915768 m-26.19959238679501,2.678576919925769 l1.953768214476284,0.7886600902387106 1.6394614825772025,1.3939643207949215 l1.3328413345486025,1.5134727875337879 0.5521085581482262,1.333874617234882 m11.916398596622946,-7.152167527579789 l-0.02719186429792502,1.21408738270047 -0.7238594455866393,2.046107459222973 l-1.2240054446509587,2.0880070237071027 -1.6202914790315253,2.0087580197087185 m-17.14992707472686,2.818540958238871 l1.4988501063878628,0.15050123097275023 2.067143153552903,-0.0706954454170104 l19.05464876873067,-1.983456320928418 2.0900248820175014,-0.06864028136085344 l1.633257988184363,0.19464476253111784 m-27.89538494611697,9.326137521803506 l1.6741290859890485,0.19959918854736444 2.238493542152202,-0.09936878907428802 l24.494607834153456,-2.2494432296344193 2.1114261113879405,0.19580859071105117 m-16.607388488063922,-5.265261943447777 l0.5658223455219594,0.6016515787147345 0.2726642637630665,0.8686083078789556 l-0.09854141964610294,16.593068551288113 -0.25837897723562253,0.8766292832739379 l-0.4259588097553008,0.3848681837308285 -0.5408810317825123,-0.04784139021579333 l-2.065201822848374,-1.7034287400273533 m-0.9315101281357399,-8.40021066000352 l-1.6140175115406519,2.6696415340792345 -2.419558573404726,2.967862331808927 l-2.564261894101599,2.433721951309553 -2.7137945435614075,1.9700551941665523 m18.583606530600587,-10.175564030864782 l2.548625784196953,1.8007789214616445 9.155146984231164,8.09878003748397 l1.3941979315006183,0.8395664401341526 1.4168866338740649,0.44550065500199243 " fill="none" stroke="black" stroke-width="1" /></svg>