<?xml version="1.0" encoding="utf-8" ?>
<svg baseProfile="full" height="108.68892011236676" version="1.1" width="99.57959086946727" xmlns="http://www.w3.org/2000/svg" xmlns:ev="http://www.w3.org/2001/xml-events" xmlns:xlink="http://www.w3.org/1999/xlink"><defs /><rect fill="white" height="108.68892011236676" width="99.57959086946727" x="0" y="0" /><path d="M25,25 m0.0,0.0 m26.502330582496143,7.080614668980121 l0.3935976801392849,0.19363397590965148 2.4882722647378865,1.9183161074622246 l1.3086266133367455,1.5316553493079257 m-20.162748962892547,2.9518005870691604 l-0.9018730726599231,3.6880198145097562 -1.8570303120020815,4.256830562946499 m3.189750962366613,-6.652707206794954 l22.14516137261592,-1.9485502594783322 13.61555440794746,-0.7459998817105413 l1.7453774166341691,0.1825659550330393 0.8743757194222626,0.36738658936843166 l0.23819619732533995,0.5211786512141597 -0.8009146068731626,1.2108339636985603 l-2.5378256519623634,1.6386125943869638 m-29.669506251560787,2.898922884894468 l2.1585822844057203,0.11742566165326418 15.791638259079509,-1.5358928984244502 l4.235217345905807,-0.12593199483804943 m-11.6745510073614,-3.373148199617187 l0.7144056803644473,1.2020630456126689 0.048323021915563334,12.603542902989174 l-0.2112768533146885,0.8102210348042086 -0.5016410580830731,0.1613579154248113 l-0.6565173648196488,-0.33811980762448435 -1.6936960890781434,-1.5099659157413854 m2.473269467070698,-3.7286809362513416 l-2.091043824702492,2.464824278659371 -3.4983265946829567,2.691696131330915 l-4.0777677835172765,2.3080612147514 -4.082576970336637,1.6015060845387659 m17.1977064693499,-9.85595043460876 l15.527951982402872,8.151935336668444 1.5433362943543565,0.5939108455422715 l1.615934614474891,0.3107810914008167 m-21.23465690266194,0.6390352987453826 l0.04114868001938791,1.0589964551370825 -0.743198025120709,0.9995486226359576 l-4.744309632783599,2.5189522563954996 -6.372213352059657,2.285818039873283 l-7.377721444703924,1.8617809279468693 m-2.0022200311612224,-8.79507089278369 l0.5372359338058962,0.2684927214387901 0.4879431307104191,0.6565077259389768 l1.8037575157131427,7.27488873572095 1.3441685883080394,0.36950542171571127 l2.9459004225474916,0.4292634318311515 3.712501110206765,0.199963147113348 l6.913558582727718,0.00392748689119016 4.4212497524107475,-0.2897964508364824 l2.275036850417486,-0.41411842029690815 1.7437273758382312,-0.6324533184928446 l1.0833514252740912,-0.829587696921564 0.5143057341757882,-1.2792976494107322 l0.11172151888439781,-1.8567200262793098 m-24.02514750538718,9.638957539177884 l0.6868350814137976,0.6746567652843057 0.27803993181974107,0.6709672302041092 l1.4286699097870477,11.591953048270211 m-1.027630217633655,-12.053052279319086 l17.644123986556817,-1.5331921438656255 1.1369446697247316,0.22707323668438043 l0.3896947445577555,1.2250833008338473 -1.9936421161652158,11.260391934171041 m-16.251156170730447,-6.163638838110113 l11.074767229917494,-0.5952805814665033 m-10.019862766364577,6.015879228928072 l14.7961307916307,-0.7402260414318648 " fill="none" stroke="black" stroke-width="1" /></svg>