<?xml version="1.0" encoding="utf-8" ?>
<svg baseProfile="full" height="109.6077934289865" version="1.1" width="100.4853860718856" xmlns="http://www.w3.org/2000/svg" xmlns:ev="http://www.w3.org/2001/xml-events" xmlns:xlink="http://www.w3.org/1999/xlink"><defs /><rect fill="white" height="109.6077934289865" width="100.4853860718856" x="0" y="0" /><path d="M27.861616329455842,25 m0.0,0.0 m5.694932725527256,7.962771672477584 l0.26597333085880676,0.42013440310551975 0.46332525765852645,1.3643246783912233 l0.11089360005336994,1.2190938793475727 -0.19935492820081324,46.565594467007706 m0.16376312925907444,-48.449685534199375 l16.597616278559624,-1.6355500667560847 16.777339560569846,-1.0768889906334493 l5.710101103664744,-0.13230336770988613 0.6249809226391552,0.07935194706845061 l0.8650197828591616,0.6441463058753216 0.43427644397637816,1.1664441204573337 l0.11490253500462629,1.5147854768458118 -0.3630641088659072,28.348168975615103 l0.07557021001244973,16.91633331912072 m-31.634476223651387,-43.0569018803443 l0.35622712361200987,0.618299575965077 0.5838463247226771,2.7780237580969214 l1.185819409235746,12.120353265047422 m-1.1801857228344037,-14.220204749470152 l16.244138313953695,-2.3078223919501855 0.6665310291024179,0.04873651167644494 l0.4943448626571161,0.40835265288872186 0.19038194152522933,0.5655102484731509 l-1.6649602408379762,10.713708563375212 m-14.710834971994846,1.7376552742417777 l15.526537335083438,-1.5748665673202304 m-18.44466730476535,11.32308863922933 l-0.22666129497620874,0.1525812433572433 -0.8222753527998992,1.3406646294594817 l-2.449626735752116,3.3520666568651256 m-8.428965190333932,0.7673011885383069 l0.6729440773397944,0.9414585761353115 0.2584622698910187,1.0163690687818896 l1.344464269753845,10.193230141973842 m-0.8878817212606227,-11.460101930753055 l12.024325247291184,-2.6317691187582035 2.336778562048611,0.04189883865756841 l0.38417767345965137,0.9095671716742146 -2.0531419499488734,6.0941130767232625 m-11.743825655273733,1.9541566326489535 l12.814660298772955,-1.4105390881678528 m6.8722756838572945,-14.18209718035814 l0.5751022840301332,1.11095717537984 0.2773927603528788,1.8999211860448983 l1.0779038265742376,11.014864224100917 m-0.7091228737418873,-12.298177488678487 l10.929312528935103,-1.9044242891192622 2.113177308203909,-0.04940101195429047 l0.4478574556778303,0.322500267980287 0.26074493273743915,1.1041202972614332 l-2.032604162173396,9.349032792173045 m-10.310665316689636,1.6390953643225288 l10.995808861348364,-1.1490560118193067 m-30.975081195159053,-35.51745652243841 l0.5537098645064891,1.1105954713808852 0.26642092211603696,1.8745742252874236 l-0.22522845379654052,27.30051852968041 m-11.151032973831372,1.5998960787506091 l2.306206083350795,-2.221659367613944 m15.63157112014322,-8.011693676337979 l6.779250403289006,-1.0368650736068257 9.078866854512544,-1.4691718324091323 l1.2401758132082261,0.13015829185654812 0.7962654659674612,0.4559300260243653 l0.3157309546925698,1.4396973717032382 -1.630154792165794,6.5161187548903365 l-1.607412494794578,4.466358155642273 -0.9633830789064498,3.999714943283757 l-0.8476975591103,4.189768825362135 -0.9185501617511951,4.342204010695893 l-1.1124718290229512,4.0140582902548285 -1.235500028341332,2.791499897858916 l-0.5808475440850143,0.9689184270068253 -1.176418718374921,0.4856420033220246 l-1.5563986428223815,-1.8444346719912037 m-10.281905029336038,-22.397631897594987 l2.3465063456330526,1.8578655937267992 1.9896281338976634,2.6940561668338434 m-7.200041043781722,9.826540963102856 l0.903213704362327,1.7406293000359598 0.18591336127470673,1.0445758400659364 " fill="none" stroke="black" stroke-width="1" /></svg>