<?xml version="1.0" encoding="utf-8" ?>
<svg baseProfile="full" height="105.14617733068994" version="1.1" width="94.74804893741845" xmlns="http://www.w3.org/2000/svg" xmlns:ev="http://www.w3.org/2001/xml-events" xmlns:xlink="http://www.w3.org/1999/xlink"><defs /><rect fill="white" height="105.14617733068994" width="94.74804893741845" x="0" y="0" /><path d="M25,25 m0.0,0.0 m14.31333272470384,3.8711792698136196 l0.29908836932373767,0.4042227947667033 0.5758194375712413,1.6524543413071635 l2.0337535325498566,14.922433718158459 0.15585735582793606,2.022992894656631 m-2.2510662527994394,-18.45174572435141 l23.09472220154813,-2.1239146774176256 1.5337593776783858,0.1502062376906923 l0.9330153021518178,0.7686872960249791 0.2991010618585585,1.3178304770227969 l-2.7768347574141403,16.850817578250446 m-21.588197095425805,-8.423521169216869 l15.124903711759352,-1.4040875716292107 m-13.95038751342207,9.840678965534822 l20.29613004578792,-1.7318231045402177 m-20.68076157357567,10.908721791933683 l2.0154621105143913,0.2779058375206098 15.249293293705009,-1.5878373368824523 l2.3785898985251306,0.2021941750622063 m-27.414008854366156,12.691209016982796 l2.788274588758522,0.27739818462305704 24.604269875017042,-2.2152904559856768 l5.007276103743866,-0.20141947191438844 2.706655993397015,0.19207474763189444 m-18.293323546067693,-34.2492430208246 l0.6956954998801304,2.899847283025843 -0.06533979736425084,46.284205253446 " fill="none" stroke="black" stroke-width="1" /></svg>