<?xml version="1.0" encoding="utf-8" ?>
<svg baseProfile="full" height="121.71885540309032" version="1.1" width="99.64576404233229" xmlns="http://www.w3.org/2000/svg" xmlns:ev="http://www.w3.org/2001/xml-events" xmlns:xlink="http://www.w3.org/1999/xlink"><defs /><rect fill="white" height="121.71885540309032" width="99.64576404233229" x="0" y="0" /><path d="M25,25 m0.0,0.0 m7.882843228270706,5.662661257570539 l0.32613642583038016,0.42963407009211146 0.39074348089461874,1.8068776216526898 l-0.0046920623984835035,45.913441096902474 m0.5453505789041853,-49.68478997630751 l11.193161975976325,-1.8952748131013104 1.3551786744328644,0.008006415735209474 l0.5142598024508213,0.3122896631889639 0.3657161088028151,1.4724779023956558 l-0.059940392243269906,13.711096118262597 m-13.132115404844601,-6.95335853855439 l12.640673430963258,-2.0263189029634763 m-12.413230162165238,8.991051745916494 l12.121788564519163,-1.7707516648544064 m12.182550048061904,-14.607231386200343 l0.4547377020516286,0.8563833016399978 0.14171014581373506,0.9142807474179123 l0.001202510803058171,14.009934727850526 m0.6352522792130653,-14.98881398524061 l12.300924341856142,-2.0025678168419394 1.0944445328101224,0.3162827597425528 l0.6770711054950266,0.4735086620956569 0.4319971268340647,49.2189075127439 l-0.19060467607725576,2.4525151783484422 -0.47088633525746393,1.2679339539049328 l-0.6355632774944443,0.34619816795410024 -0.7359570664460011,-0.24243656818061046 l-2.369211340358314,-2.1630022490976706 m-9.848837369064508,-42.192515706067546 l13.384777814325973,-1.3768457803283123 m-13.393580882386372,8.35142444902138 l13.514316078683228,-1.2024453495235434 m-31.195788584224058,9.275940744316667 l2.068123053186723,0.10665386293702521 14.062678939141461,-1.8033574102747687 l2.6542474145873154,-0.0028778255547484296 m-20.649838322883845,2.681137774626648 l0.5712151058891544,1.1157103090321878 -0.0720962253784572,8.229076390351446 m10.163445432654296,0.6960076093220775 l0.37512237456273817,0.48879925798475515 0.05184275128371907,0.4965296971231299 m-6.718566530966472,-6.870012078947962 l0.4251407357883046,1.2073645952150631 0.02441276841479365,9.116694387379468 m-5.9138001090677665,1.205928846166356 l0.6383092427511925,0.2879095553541784 1.2326798551696987,-0.12681141324311485 l11.084092286797029,-3.682410972680027 m2.974265608615093,-15.539834781179584 l0.5306298996239226,0.8937589943549052 0.1306004440484881,4.383095886306354 l0.554963109725431,5.267749150835998 0.7854075625090834,4.647888629977116 l0.9963015912289162,3.6432692578371744 1.51494998868971,3.5108678109634255 l1.3489066560731027,4.476793655488243 1.2197545436926207,3.2637743469901306 l1.3811775856976733,3.5246372858259076 1.4177209711291456,3.4614811470202516 l0.512774047247563,2.8775283091109176 1.0891499601589834,3.638534658757653 l0.4295102138353724,1.490106457346001 0.4011901807981328,1.8260311521662542 l-0.014643899408283145,1.5258633517658353 -0.009428386636090141,0.6913792814359568 l-0.10532927461298848,0.3050948638049222 -0.21353534692157816,-0.09717733583732112 l-0.3876014791738486,-2.587846120560615 m-1.3339113784409162,-18.623547876364107 l-0.07219637809926169,1.5820811991493324 -0.5914015645180384,1.7639384785341754 l-3.059802018916015,2.642157202003437 -5.623444011687733,3.409505697959708 l-5.845173251103508,2.475306567522322 m15.26968994193834,-22.45373589559908 l3.1299645100362885,2.2154979635867553 1.6568494600789236,2.0457150148167473 " fill="none" stroke="black" stroke-width="1" /></svg>