<?xml version="1.0" encoding="utf-8" ?>
<svg baseProfile="full" height="101.78288911705302" version="1.1" width="104.42028877656996" xmlns="http://www.w3.org/2000/svg" xmlns:ev="http://www.w3.org/2001/xml-events" xmlns:xlink="http://www.w3.org/1999/xlink"><defs /><rect fill="white" height="101.78288911705302" width="104.42028877656996" x="0" y="0" /><path d="M25,25 m0.0,0.0 m6.322130315851524,7.484337773112425 l0.3567166681193177,0.45048785558221033 0.6035784367483064,1.7023273592778416 l0.05293077038235774,28.223089514304373 m0.8041449334354237,-30.66414896617946 l13.802347433732068,-1.8666321716471646 1.3387803363606705,0.028234751512000715 l1.0527020419315365,0.7823183795885249 0.1916881158981399,1.54111733642673 l-0.0037235660417733875,27.27152098851388 m-16.088902209313083,-16.03138696680033 l15.697061746235809,-1.7416704471257793 m-15.536369679488887,10.717669614367574 l15.530806465679136,-1.6295836355109574 m-15.071346941413381,11.541440138645735 l15.082823853714125,-1.5764653425779174 m-11.687101613122499,6.540561403192975 l-0.14531078258915142,1.425118688021676 -0.9376497647553134,1.1399933097172987 l-3.7203714957633376,3.4765233527255233 -3.7815429329882266,2.9680361819058643 m17.9659458499353,-9.670700580634971 l3.364636676394325,3.803778649216735 2.490836652249979,3.9848717571762884 m12.794286268454835,-43.553809704325076 l0.6350194791923927,0.8976416943330463 0.4250812301676055,1.6550677727330234 l-0.10843015027931131,20.254749939601872 m11.920218796394858,-28.44517524677413 l0.872169224629153,1.3887727152985312 0.19713261681806898,1.1117659904576571 l-0.11201668730004177,43.8534003836787 -0.36217525878080925,0.8727362833557609 l-0.5115812711325638,0.3635321341710714 -0.6371353664827258,-0.01960995051742224 l-1.531400370911002,-0.8053261800440494 -2.145534864228559,-1.782842405579328 " fill="none" stroke="black" stroke-width="1" /></svg>