<?xml version="1.0" encoding="utf-8" ?>
<svg baseProfile="full" height="110.11497916010235" version="1.1" width="97.71048400648434" xmlns="http://www.w3.org/2000/svg" xmlns:ev="http://www.w3.org/2001/xml-events" xmlns:xlink="http://www.w3.org/1999/xlink"><defs /><rect fill="white" height="110.11497916010235" width="97.71048400648434" x="0" y="0" /><path d="M25,26.226217344538806 m0.0,0.0 m5.893520842341742,3.464489298412391 l0.26973411087810767,0.34867781492966077 0.5640141565780917,3.1611658508720133 l-0.15584257253480369,51.76536850156084 m0.2534759820053558,-56.11655771153059 l12.446509899837755,-1.7254263549497189 1.451098867182744,0.33200634348343083 l0.3784794608888071,0.36569268349146133 0.1561258365135919,0.8570466345800971 l-0.7499152849884586,14.995432567115456 m-13.326138880140936,-7.739379841181467 l8.491068698450379,-1.238372655841836 m-8.829080540955806,9.206726357667739 l12.86506679223587,-1.7817274693020728 m12.538099202693518,-15.988671168124093 l0.5168833704667241,1.7845253095782698 -0.018982052431069894,15.050813500952982 m0.46354667453146786,-15.995615615621972 l12.77184522955058,-1.972411390631398 1.282365568296321,0.4269998899034464 l0.4486086450843538,0.8191866205805339 -0.4276338625046247,56.60292530240467 l-0.36268962650064357,1.5275999900999893 -0.549206228907954,0.707164805465907 l-0.6682582648177451,0.03110255164780894 -1.4879564940361838,-1.1746901908675451 l-1.6386027424634444,-2.2902672538019972 m-9.379437542048997,-47.57836585567898 l8.948290606037425,-0.9823893270356601 m-9.045225090070474,8.583139024948503 l13.70369869500853,-1.1730990142742772 m-31.11141386652799,8.218718047543373 l1.9306170852093703,1.7779340296366353 1.3253925656455012,2.3675147593341825 m9.160103785439022,4.671985041555769 l0.3064157758352723,1.4974955700026393 -1.2326868079222864,1.5385382915085222 l-4.236222815730229,3.8718774090217623 -4.013005778190052,2.8507436904962713 m-0.02819439250509717,-9.942549525859526 l2.7246293928162557,1.2535009595371618 2.934593843626858,1.9748600542428278 l2.731899697952423,2.3181027680573814 1.884741564327538,2.1504505159321323 m-17.258781548340334,-19.830723420509315 l-0.0279635766327285,1.1672029824481396 -1.849526079206854,1.9570350044650948 l-2.3032879734899736,2.0049587468688284 -2.6825428307718457,2.4953523688318793 m25.09132553792587,-1.0453398901471163 l-0.1504542317244344,1.6545517094726818 -1.511536704806291,2.3873481988567424 l-2.514818704265177,2.813920154506918 -2.925491434312654,2.776338378562245 l-5.5701985962421805,3.9084420606979644 -7.210569660429352,3.3270110580756844 m33.30273994193741,-22.994521184093294 l-0.3317728190443084,0.36513010577600213 -0.38088485588865884,0.5290657771415402 l-2.583503718860654,2.281721949551293 -3.0028092459910747,1.7927769687425117 l-3.4067525238527656,1.3817351895477694 m-0.5624344111009746,0.2698768220363529 l3.802122644905883,1.5776689039575271 4.139987311984714,6.934176933646211 l2.1345144588078777,4.2146289281799465 m-29.834462912457774,0.12480277095925617 l2.7871692416077445,0.2490524682358117 19.182998728913386,-1.5831261780737296 l3.7613609730278523,-0.16604336009113474 2.0102262578398373,0.21128008685739566 m-28.407460361934124,9.581456995314982 l2.9969254236809126,0.31007185307445007 21.090403657881254,-1.765744274176913 l4.0662987380924775,-0.12309265153212817 2.467331989945529,0.26123930650598476 m-16.350144664871117,-5.949426987070073 l0.5736673118750814,1.547405772856401 0.028482481530052436,15.78063210668501 " fill="none" stroke="black" stroke-width="1" /></svg>