<?xml version="1.0" encoding="utf-8" ?>
<svg baseProfile="full" height="103.75214582671528" version="1.1" width="96.01667586452277" xmlns="http://www.w3.org/2000/svg" xmlns:ev="http://www.w3.org/2001/xml-events" xmlns:xlink="http://www.w3.org/1999/xlink"><defs /><rect fill="white" height="103.75214582671528" width="96.01667586452277" x="0" y="0" /><path d="M25,25 m0.0,0.0 m24.238476109088907,5.439948087072871 l0.3679297233353361,0.22335345425713965 2.3004342272453893,2.0060180000541417 l1.1516807057426883,1.5833154699526202 m-19.234071113493556,3.2904351288778715 l-0.8693599766361477,4.11886657653967 -1.7549461928173178,4.71322662045631 m3.132654950401595,-7.3091669603531955 l21.830019592914102,-2.2404381172242496 12.14232483333383,-0.7237702478778089 l1.6311740553966574,0.21150124436065362 0.8538071413905143,0.39805094106369915 l0.22655180862078358,0.5472929981150427 -0.7441837611259606,1.3369123565586107 l-2.427402739031787,1.7353088748835546 m-27.646519430222043,2.9451737273328806 l2.115944276915098,0.8742999451845747 1.828257727165088,1.5794099955483853 l1.4377876146756046,1.618311902849206 0.6073231476817785,1.4903969229741023 m13.125417512849205,-7.933842329396066 l-0.013552074367155534,1.4185137390069231 -0.7354473020548588,2.268914443405563 l-1.2296132161039002,2.3089961332501296 -1.6803713312810769,2.2003180438671923 m-18.41367641931076,3.1149392223049457 l1.5953926254244502,0.1660367304312713 2.21393991781122,-0.08380951877952973 l20.347442991869286,-2.1746319046925824 2.294856368331437,-0.07733820338085737 l1.7680177555530332,0.20937335995075387 m-30.01583600370156,10.559184211588036 l1.8180339683727424,0.22060726830564398 2.4216280738333147,-0.11365720481597197 l26.7766234053193,-2.5010919907728906 2.262377073449604,0.2238023744413382 m-17.97055338668576,-5.903518079155924 l0.6272798678750741,0.6908269284674131 0.2782815597519405,0.9574477405926966 l-0.11123239619580255,18.536117885481545 -0.279763836334257,0.9338592786157003 l-0.4603496997627821,0.40924879137187015 -0.5912586504761649,-0.057735498014937894 l-2.2219188411703827,-1.875505985066695 m-1.4018451406588743,-9.437919336325677 l-1.53725920956502,2.915024347005719 -2.378956162730383,3.373775432814955 l-2.480093933812972,2.722931093582489 -2.6739259586875583,2.157472862270427 m19.48439088052836,-11.533252896979084 l2.6712579916237176,1.986332503143697 3.1237566623498867,8.96814872430396 l1.6226688485666907,4.0108613830718784 0.9121336100708882,1.2532693561952613 " fill="none" stroke="black" stroke-width="1" /></svg>