<?xml version="1.0" encoding="utf-8" ?>
<svg baseProfile="full" height="102.42037557155072" version="1.1" width="100.45518922071494" xmlns="http://www.w3.org/2000/svg" xmlns:ev="http://www.w3.org/2001/xml-events" xmlns:xlink="http://www.w3.org/1999/xlink"><defs /><rect fill="white" height="102.42037557155072" width="100.45518922071494" x="0" y="0" /><path d="M25,25 m0.0,0.0 m7.302950423354564,3.58107080655383 l0.23766423228551414,0.3090044751031786 0.7231403521274699,2.7767312326103957 l-0.15622220974642798,45.75356905728332 m0.23558020010062097,-49.74425353054637 l11.45577169087747,-1.5953107588066573 0.7405402204125836,0.05790691176692238 l0.8828623834925289,0.5749159989788613 0.06051080522375449,2.2082471305012508 l-0.8631223427293013,14.233076157311402 m-12.064290052226845,-8.362254028062273 l11.964817532634726,-0.9173553575278849 m-12.140593495577543,9.003663097338203 l11.52242348713813,-1.3063597129337916 m14.764454103798279,-15.114215590074854 l0.5275960171917959,1.4680975200817687 0.019139621991167078,14.070923583830037 m0.3252327555880802,-14.857482523355554 l13.142366246875758,-1.7217755459963062 1.3162533776252063,0.3720607829272366 l0.45811387027739997,0.6978773098388937 -0.4053223249040869,48.67881943249787 l-0.315030150612988,0.9488470992179112 -0.45933986421137885,0.4765544199575143 l-1.144650853504424,-0.10322562404744148 -3.8153386501188535,-3.1153865537621455 m-8.43591551041695,-39.63883435720284 l13.726200969461743,-1.1313595058290906 m-13.900678536705954,8.062581807351558 l14.287052230471,-0.5100306426646508 m-22.795629268530984,2.896457941491638 l0.713177704344575,1.4499208237311496 -0.020053801677757232,4.981446913796736 m-13.203944180315212,1.0842234713238934 l2.132120794032036,0.23314252496706547 1.6427139289049988,-0.11350748423702521 l18.87233808598409,-2.1304420083686275 2.639921354663679,-0.09045945579005392 l1.6035690285808362,0.31520324652183745 m-8.673140717407113,2.0383303165524147 l0.3338050668193391,0.9255065596242326 -1.0168468190889766,2.2633755495332615 l-2.8808818139512264,4.519802489913271 -2.845478485178944,3.6531697414786177 l-3.20098316121923,3.402096015240167 -2.760959092376548,2.4760435306191297 l-2.9544523937408185,2.2320960219740025 -3.120970279970956,1.9635221016441806 m5.067340469130267,-21.086777206181253 l14.900806077675494,16.11771168947668 2.9110885814542917,2.4827161679523018 l2.1845094207354845,0.48612706007279743 " fill="none" stroke="black" stroke-width="1" /></svg>