<?xml version="1.0" encoding="utf-8" ?>
<svg baseProfile="full" height="105.44743213907344" version="1.1" width="93.00330960603972" xmlns="http://www.w3.org/2000/svg" xmlns:ev="http://www.w3.org/2001/xml-events" xmlns:xlink="http://www.w3.org/1999/xlink"><defs /><rect fill="white" height="105.44743213907344" width="93.00330960603972" x="0" y="0" /><path d="M25,25 m0.0,0.0 m7.8904443271482645,3.6018132794165063 l0.2866736805267188,0.37483399924629635 0.5546916876632876,1.2401667173932402 l0.10034672549581916,1.1433223344776728 -0.13836893087050928,47.72051033521574 m0.18933823987775114,-50.06440598501518 l10.641454740153806,-1.548501732095181 1.2657324593357278,0.3313976451075429 l0.3242078100262186,0.32497614700060545 0.18674139121626604,0.789945290415556 l-0.465939962939249,13.992226812496444 m-11.61151406854891,-7.390722651696233 l7.272105557671772,-1.0371973685978377 m-7.533685080300631,8.54463744383851 l11.023654191407019,-1.632699142734089 m10.215615526374792,-14.932318781007874 l0.44614291810430645,1.4883120518963915 -0.019514847539018047,14.039802269647152 m0.3797129607909368,-14.749175740248454 l10.578383350592707,-1.6185796922284394 1.027706356289491,0.3525738419661234 l0.38938057356315714,0.702342289470349 -0.2576505074763176,50.560091998627286 l-0.2273488103190996,2.068803481704244 -0.4093739261496511,0.9522800820582409 l-0.5313678061860783,0.1929972127188369 -0.6182856023313112,-0.33404743140528315 l-1.8654133742970487,-2.5271618979357515 m-8.028972930515595,-43.40490517584044 l7.132242428826823,-0.8842812601375089 m-7.384672799668779,8.03910293592602 l11.181892887096835,-0.8374228266988917 m-25.64045032568008,9.497652618915353 l2.2690534129661484,0.15309069102389683 11.772292888168675,-1.7038622499151093 l2.2988702235676586,0.013343080380860654 m-18.752567834604207,10.662925963111269 l2.2826919687847833,0.21751531924844517 15.580676755235551,-1.943380354448081 l3.6155244137801406,-0.11866684976662076 m-15.504501839210995,-5.641266054950488 l0.6508948824304113,1.4387484208384997 0.05189023654062789,4.697388199110565 l-0.3160644077681736,4.135656577049106 -0.7156413129943907,3.368321642115964 l-1.0287872184304447,4.348388479077209 -0.9221921416679653,2.653404709090244 l-1.087691172329267,2.2553528546322315 -1.3027331207686732,1.8130870167750637 m11.910376812537786,-25.012933062812827 l0.44748029389580896,0.8541486282451183 0.259110184395622,1.4523984047648109 l-0.10705964543755904,22.85650395791578 " fill="none" stroke="black" stroke-width="1" /></svg>