<?xml version="1.0" encoding="utf-8" ?>
<svg baseProfile="full" height="104.0195461761082" version="1.1" width="108.00556217204485" xmlns="http://www.w3.org/2000/svg" xmlns:ev="http://www.w3.org/2001/xml-events" xmlns:xlink="http://www.w3.org/1999/xlink"><defs /><rect fill="white" height="104.0195461761082" width="108.00556217204485" x="0" y="0" /><path d="M25,25 m0.0,0.0 m8.77990356037055,10.611531075958013 l0.30398297333374175,0.3916291642988133 0.5914982246316416,1.6872590247470611 l0.053693008872955576,26.73888152822067 m0.6650575143223966,-29.17208240657823 l15.26940312823839,-2.126559069279632 1.391565753884985,0.03496640066088757 l1.004518167818691,0.7367954164867017 0.27887435842785036,1.043367689718199 l0.05220066077599983,27.43227118399825 m-17.247651246281315,-15.971460014718705 l10.458702106927326,-1.8088824857473902 m-10.441971971113299,10.502954253009655 l10.74581731904867,-1.4326757206428047 m-10.169052983437124,11.201984270334945 l16.128118392992015,-1.8115953738102555 m-13.627536043890277,6.852086304843295 l0.14469870297382167,1.3202483627729216 -0.8145510265959055,1.021984749498641 l-3.8880393087394194,3.7159335425972366 -3.873721761549934,3.0509082797399234 m19.216296286595213,-9.352014276802816 l3.68468765910407,3.7004698567705097 2.433998069533796,3.6482489632137747 m11.532596156646537,-42.66468401041673 l0.7843157582473893,0.8437360816245089 0.4764321182292745,1.6845041418014268 l-0.10002943543619215,19.841366868945666 m12.956489835768595,-27.567439776959855 l1.0074926620659386,1.5241381441098623 0.2077735302784714,1.2055715326287402 l-0.16384665938503962,42.55783560958094 -0.33620363739729797,1.367552152299554 l-0.47414376034385347,0.6999567537015428 -0.6163130721655175,0.18749905460341285 l-1.5418555993932033,-0.6546678104312599 -2.8977072080739643,-2.0122328865119896 " fill="none" stroke="black" stroke-width="1" /></svg>