<?xml version="1.0" encoding="utf-8" ?>
<svg baseProfile="full" height="92.72217052779561" version="1.1" width="93.77883494737475" xmlns="http://www.w3.org/2000/svg" xmlns:ev="http://www.w3.org/2001/xml-events" xmlns:xlink="http://www.w3.org/1999/xlink"><defs /><rect fill="white" height="92.72217052779561" width="93.77883494737475" x="0" y="0" /><path d="M25,25 m0.0,0.0 m7.153895273319102,5.553334461828918 l0.523277878589401,0.13627179619207688 1.3035482404028713,0.09608185458450383 l2.007243636394532,-0.28857902428985377 8.364724841302914,-2.1056819447624084 l1.3604481083775888,0.39126232644232567 0.669367727272818,1.230042620987749 l-0.15892680360691816,0.7681968648359883 -6.069458492652822,11.716077884526298 m-0.013339147111330748,-0.018292361889849663 l2.198925092946302,2.059893687190326 1.6465244721263017,2.585709383233079 l1.2567498633710483,3.829434437077681 0.4423932012679469,3.851187926593056 l-0.38333861157223775,3.4650767770933735 -1.0836520743541338,2.691630902043157 l-0.7801114517591748,0.8644425561001529 -0.9316530949281001,0.5017648825593667 l-1.0804198649050964,0.03510517191609911 -1.2548169419242856,-0.5313142358240427 m-6.573642216425936,-30.192840798133837 l0.45179238212403205,0.9794558034592006 0.1587777161893217,2.4675077573282747 m-4.296223356651654,5.5494908606478965 l0.28485334308233873,0.3578061567058438 0.24267114642407328,0.7525392081482374 l0.006450209687965805,25.976565573201995 m15.16442811856367,-33.64791913328085 l12.149353333172796,-1.6402630459390999 1.886387942401521,0.08433920662646743 l0.4809147312479388,0.31273710791742004 0.24053372428631914,0.9074731109865666 l-0.018942666688126,11.682852088950781 m-14.327160955337341,-5.505373036495605 l9.061047183571805,-1.082232318025248 m-9.016634466948442,6.987202725289348 l13.806627218462486,-1.6584788237430963 m-15.275817121802552,-11.483489123052104 l0.6655211683483895,1.0995194179820695 0.18867825392274779,1.374349879482472 l-0.09872860536157713,30.00161251193456 0.20812305946336543,0.9971022440433049 l0.34150978971062645,0.4366871789174698 0.521266901071448,-0.10412752980097441 l0.8541366555369031,-0.6218228072742862 6.670263922070047,-5.190683903092253 m10.32776396920503,-15.209837157887819 l-0.21661249889226564,0.9889963281772235 -0.6968344389752691,0.7310567966473356 l-6.639668486732351,2.640661456330049 -4.439030966234142,1.4355012328361065 m-6.815104187109267,-2.7300181498916225 l1.5887660423752772,0.5531613643533593 2.8342040299199525,1.8925382518405605 l13.922411868483197,11.243539831304387 2.557436181091484,1.3101307320353601 l2.407934171564202,0.8910118192473372 " fill="none" stroke="black" stroke-width="1" /></svg>