<?xml version="1.0" encoding="utf-8" ?>
<svg baseProfile="full" height="101.75131110172705" version="1.1" width="101.02835010763894" xmlns="http://www.w3.org/2000/svg" xmlns:ev="http://www.w3.org/2001/xml-events" xmlns:xlink="http://www.w3.org/1999/xlink"><defs /><rect fill="white" height="101.75131110172705" width="101.02835010763894" x="0" y="0" /><path d="M25,25 m0.0,0.0 m9.05001815621029,19.121356627282367 l0.034359801986112125,0.3596598233393742 -0.7122753040360499,4.631375476578899 l-1.2368168136500048,3.594895583611545 m10.331013500809071,-9.859228501678741 l1.8478746859923336,3.377519882533715 1.1598855921157136,3.4012405179310576 m-8.166716385130828,-17.409726154829748 l0.6970604477172622,0.730198189362335 0.3889045154091642,1.5686852945781842 l-0.13800630859219976,42.235334363018076 m19.66763857241868,-44.41587884190218 l1.9362836415193259,1.4782855019209886 1.205150560512696,1.8836491514514324 m-13.963928046277351,3.385187208412355 l2.156246713205162,0.2108142513201146 21.52109368045697,-1.847974828042587 l2.1636213727585054,-0.06606789156544028 m-21.75655895780017,4.413889332118169 l0.3280403811928396,2.339484236816012 -0.49226080117655235,8.742627804965599 m0.8378138771181488,-10.78645300870327 l14.472124473210801,-1.1290868947319503 5.073168585795793,-0.1864992663607242 l0.6915793206715078,0.5685476913265467 0.135521347867147,0.8286328824815962 l-1.6573061173845782,8.839582017602924 m-12.476605537090661,-7.767102187938746 l0.4147740865227021,1.1395737053984134 0.5921164490247858,5.239710936241033 m-0.642541138009641,-6.248398828913717 l8.239179087000652,-0.9044848017970403 0.6433495861746683,0.08364804555737193 l0.23852693941366104,0.3457001517694301 -0.9142694027097418,4.513907200519491 m-7.350459282990409,0.5572865018092837 l8.381252962802005,-0.6390439683657789 m-12.959546772062817,4.654566885624466 l17.404367547819728,-1.3251510327929854 m-19.62519791617207,5.538428979425721 l2.585316896418186,0.15510653938306349 15.2012418037718,-1.203057167588933 l2.0131672666149782,-0.06732487131897565 1.4621125015663454,0.16914924959702918 m-23.867992544349327,6.244501121995219 l1.9394892944183364,0.22023209907661623 17.4182050565914,-1.416961406405042 l4.057301368048791,-0.1291813719753396 1.735764937331738,0.1968650401564652 m-12.89900636703217,1.6227382197626434 l0.4246511879131932,0.9616147022735821 0.2046075652888881,1.1334290053318596 l-0.1528223772351054,9.71785268223109 -0.2701002203589902,0.6611090562594829 l-0.43481438177069104,0.23817294799819047 -0.5686855242778889,-0.12015628424298885 l-2.1802650881762333,-1.7427830796824828 m-3.6365873556791737,-6.829631991303442 l-0.2916675502350564,1.2634760515938543 -1.7919279431792479,2.1335700540349025 l-2.6231367274331343,2.296357992646187 -2.8095600332679154,1.8850586742999027 m21.52739426643497,-7.634703570690586 l1.886327249143185,1.3722251278386002 2.1648468998088943,2.119345625103796 l1.6099463823911582,2.084271773631592 0.8060664422493609,1.5905537206791156 " fill="none" stroke="black" stroke-width="1" /></svg>