<?xml version="1.0" encoding="utf-8" ?>
<svg baseProfile="full" height="106.34167453914415" version="1.1" width="109.49251395417377" xmlns="http://www.w3.org/2000/svg" xmlns:ev="http://www.w3.org/2001/xml-events" xmlns:xlink="http://www.w3.org/1999/xlink"><defs /><rect fill="white" height="106.34167453914415" width="109.49251395417377" x="0" y="0" /><path d="M25.000001518055797,25 m0.0,0.0 m3.16019207239151,5.770853757858276 l0.7106419652700424,0.1572311855852604 3.2640567421913147,0.0685301749035716 l16.821835041046143,-2.6015931367874146 2.546466886997223,0.02462682081386447 m-17.563575506210327,4.756139814853668 l0.5718550458550453,0.9945017844438553 0.0991224404424429,1.1059945076704025 l-0.9350127726793289,12.602314949035645 m-7.92954683303833,1.5443558990955353 l3.837069571018219,0.11243353597819805 19.31073546409607,-3.1670793890953064 l2.3760850727558136,-0.008053859346546233 m-6.0715556144714355,-15.118013620376587 l0.7190783321857452,1.2767073512077332 0.1617802307009697,1.4676013588905334 l-0.1821216382086277,44.25731182098389 -0.4711145907640457,1.365703046321869 l-0.6848365068435669,0.42744383215904236 -0.815848708152771,-0.2684757672250271 l-2.9348719120025635,-3.179031014442444 m3.760976791381836,-28.330395221710205 l-0.7046868652105331,2.6149508357048035 -1.6753681004047394,3.2958170771598816 l-2.3112405836582184,3.8317763805389404 -2.9193225502967834,4.13614809513092 l-5.87007462978363,6.672358512878418 -6.270720362663269,5.243135094642639 m35.82588195800781,-48.445401191711426 l-0.365990549325943,2.947443723678589 -2.708081603050232,7.102780342102051 l-3.293997645378113,6.730586886405945 -3.882725238800049,6.595604419708252 m5.7645368576049805,-9.252902269363403 l0.5440645664930344,1.0308939963579178 0.07253642659634352,0.7715163379907608 l-0.027100357692688704,39.80785846710205 m16.85425639152527,-55.898542404174805 l-0.18969476222991943,1.8768490850925446 -1.0375107824802399,2.3171956837177277 l-3.840874135494232,6.877148151397705 m-11.243228912353516,2.067081332206726 l21.912784576416016,-2.2319218516349792 2.8716814517974854,0.06378987338393927 m-13.148860931396484,2.4799685180187225 l0.5817802250385284,1.0418117046356201 0.19056320190429688,1.3164079189300537 l0.0,34.41915512084961 m-12.21721887588501,-24.730868339538574 l19.67068910598755,-1.8903720378875732 3.5439464449882507,-0.05421622656285763 m-23.12166929244995,14.334588050842285 l23.442251682281494,-1.86324343085289 m-23.523969650268555,15.933201313018799 l26.818463802337646,-1.9107186794281006 " fill="none" stroke="black" stroke-width="1" /></svg>