<?xml version="1.0" encoding="utf-8" ?>
<svg baseProfile="full" height="105.45828879307406" version="1.1" width="100.40338642381488" xmlns="http://www.w3.org/2000/svg" xmlns:ev="http://www.w3.org/2001/xml-events" xmlns:xlink="http://www.w3.org/1999/xlink"><defs /><rect fill="white" height="105.45828879307406" width="100.40338642381488" x="0" y="0" /><path d="M25,25 m0.0,0.0 m16.112226543079213,3.0237927005395835 l0.5590729762085683,0.07412018347359287 3.1517625562701004,0.014855040735460524 l18.252105037341124,-1.7403576333059614 4.508064831471297,0.10889734069105202 m-33.11085429640362,8.504945014135624 l-0.5867509169823187,4.073572675081712 -1.5694886420512268,6.3589755743793015 m2.4377045104510953,-9.021715357638044 l24.183670644854555,-2.5886233810046915 14.18805220506361,-0.8284931198706417 l1.9045614393189316,0.3712783223029304 0.3732595351935484,0.5389974005405783 l-0.6287545130997814,1.5181772791980104 -2.341369063324412,2.455249162779508 m-19.57734649813971,-9.125274632584842 l0.5847170187289921,1.4483304021412007 0.05844962241869399,16.653623173460605 m-12.08724150409217,-7.433014929802655 l2.487361517843465,1.196818374298616 2.808341330079185,1.996283794534578 m-7.260735792226139,2.444853519300357 l3.283985903766285,1.5986758122273685 3.0406350636585824,2.178805766708791 m14.69177793544266,-11.259604887337975 l2.803582578459162,1.5350772074101797 2.5394597333203497,1.9348557980722296 m-6.242628475386798,3.127718096376001 l3.119212784327084,1.5428256727634082 2.9022737481156082,2.182031443876708 m-23.32784224964721,0.24531251891103864 l-0.03785750735502543,1.913947520692777 -1.686298308083847,3.467209361049231 l-2.7954643949547413,4.038967696471209 -5.004914294059699,5.9440886335548715 m7.101456631856296,-6.0292333538165614 l0.33986641758275565,1.2688861999881484 0.07195809479172185,1.0484538798707452 l0.013782245632795155,20.67498052287002 m16.88654514040341,-32.1449614778695 l-0.14181882337346866,1.0696486542739958 -0.6320206931528812,1.6066069478258638 l-2.3802387311101936,3.9534508562622164 m-13.641696316052956,2.0339444619723897 l31.59021230441349,-2.8241687889955696 m-17.323903464766108,2.2931951645402044 l0.5403135832663697,0.8236708166056622 -0.053801770335696004,20.6687391425659 m-13.800176068133846,-14.634745594216271 l28.251437426318684,-2.4181609655991365 m-28.484473138346512,9.706591136252866 l28.337694660199237,-2.380675478615877 m-28.739135410410768,10.477085433032062 l32.17298402313892,-1.851794003559823 " fill="none" stroke="black" stroke-width="1" /></svg>