<?xml version="1.0" encoding="utf-8" ?>
<svg baseProfile="full" height="104.43955784146756" version="1.1" width="100.18602877537755" xmlns="http://www.w3.org/2000/svg" xmlns:ev="http://www.w3.org/2001/xml-events" xmlns:xlink="http://www.w3.org/1999/xlink"><defs /><rect fill="white" height="104.43955784146756" width="100.18602877537755" x="0" y="0" /><path d="M25,25 m0.0,0.0 m7.351763619322109,10.812203987820004 l0.615417124465234,0.08783755030351567 1.6285327600310162,0.022834226834088082 l2.6081870687031152,-1.915249790586653 5.046523007064364,-0.7425161116690494 l0.733695591034563,1.5079748557852624 -0.20164586831186884,0.8891414555076197 l-4.830520712430202,10.908867729549435 m0.0029533126345296368,-0.008730446816888875 l1.9515649953412142,2.1093161014254354 1.4553307607631911,2.575249729569754 l0.9059161417711417,2.851616907844936 0.4111954163606604,3.7335162626351623 l-0.397684701290028,3.277284401612276 -0.9737028911241796,1.3112725681710002 l-0.84293965589058,0.3382027838781732 -1.5915925368520645,-0.45495312751216666 m-5.8668366038277995,-26.56943863463152 l0.49851190624609676,0.9828836581324063 0.1548628187546103,1.1707390411659888 l0.013312267801204794,41.55150469244878 m14.331667882477822,-44.82690069904418 l0.5515815742512595,3.0219758934333 1.1185330575202133,13.197344913349475 m-1.2367864394060935,-15.933180653158402 l17.97375186662339,-2.1826777169686316 1.2234914187322365,0.004490395815616103 l1.0564731129710168,0.4986082312553568 0.5266367675129695,1.0156617060236846 l-0.03130685670615189,1.5685048423635883 -1.0907657746780446,13.993874476074346 m-9.450251211044542,-15.580306864125202 l0.4414310209708,1.1579903327636714 0.09243635266210826,13.267982343464896 m-8.663226230615036,-6.618804648997464 l12.849183305182995,-1.2453921184713752 m-12.29311133883387,8.720758615341726 l16.708011276233325,-1.3297112673775604 m-21.619073125134783,7.970604092904254 l2.6821469041066996,0.3402178732870774 12.206415567351167,-1.7179055622461543 l8.115539189608166,-0.8382534327544259 3.420213499824505,-0.10868516683693516 l1.8731334949627347,0.28366991054413165 m-23.206269205089445,2.992785711254965 l0.3852560613033267,0.7541188595130394 0.13647249546277693,1.0192023600356341 l-0.03565865750886883,17.580794909970262 0.3034965845079927,0.39189099862896554 l0.7015014000017722,-0.2765109157082482 6.7507862508438,-6.0540442423477865 m8.814358637201067,-13.854212677698321 l-0.15581012235155545,1.020891620024347 -0.5691131223906801,0.8650766424099902 l-4.756191193443868,4.269997428331252 m-8.610878404079802,-4.8781503408321445 l1.6077616047101324,0.8098265975667969 2.495115906046931,2.176538291646165 l12.549305508437953,13.073564302585432 2.0000390138054747,1.3710229383790224 l2.316886882781322,1.0406954627162384 " fill="none" stroke="black" stroke-width="1" /></svg>