<?xml version="1.0" encoding="utf-8" ?>
<svg baseProfile="full" height="95.62178466475015" version="1.1" width="108.86566840268813" xmlns="http://www.w3.org/2000/svg" xmlns:ev="http://www.w3.org/2001/xml-events" xmlns:xlink="http://www.w3.org/1999/xlink"><defs /><rect fill="white" height="95.62178466475015" width="108.86566840268813" x="0" y="0" /><path d="M25,25 m0.0,0.0 m27.31585777236056,3.253740876492262 l-0.037719034994892986,0.3886347919194602 -0.8457095303731758,1.0959871419570362 l-2.8972211592147277,1.881983876132039 -3.782400915890053,1.7111899212795727 l-4.328197991375669,1.5864210216058716 m-1.927613616336984,-7.259993856055701 l0.4979970895478696,0.6580659466749784 0.26051725219623445,1.3063726494090926 l0.014357145083322899,8.878678678619817 0.4220861161197134,1.077114257960758 l0.7339037872188748,0.6188065757041652 1.7059606808870427,0.5653242211269268 l2.9932670701583257,0.27594472593197444 5.530288457723899,-0.0034079896061296223 l2.5830993945290004,-0.30246909180619885 1.1570244107518401,-0.4226699568647444 l1.0192875080485355,-0.857282765429986 0.37449270026473647,-1.2126841186139086 l0.08949226889073715,-1.26791597607107 m-14.02486915209914,7.827338443266745 l0.4398785033542022,1.6869028643888024 0.0022854760829641952,17.120606825797452 m0.3862897008923116,-17.793048811611197 l8.749345431278206,-1.2057226945282817 0.5987604909712455,0.07436099024400054 l0.3191070390206574,0.29938357055963793 0.1287064638500415,17.83176918135652 l-0.10202193398357813,1.532037067914343 -0.3870153459727596,0.6520626217756171 l-0.5630510438734596,-0.04818584255798596 -1.80186581003887,-1.663171570400436 m-7.214644261044932,-12.632635289544064 l9.43690964586777,-1.018053263173624 m-9.562893705021777,6.167435820104421 l9.215111527438,-1.0004755332992294 m-13.278262655300127,-10.595124383465624 l0.5083302184147462,0.727299851825919 0.1825576688301274,0.814829041668764 l0.3998308274561163,18.83015116557891 0.5840312709570553,-0.5020357074537712 l10.985226235830522,-4.654252109145821 m2.053301098627386,-4.056013851822427 l1.8758657334001663,1.271351686716274 1.5442572394784306,1.6729638670084506 l1.3281306193787583,1.9163892573371062 0.7004680392951362,1.5156322830717486 m4.070308106762155,-31.704475709303534 l1.8336939086593569,0.21225337721417228 14.443918727373388,-1.5461998271885358 l1.6490850743484498,-0.10693464087185421 1.334522045838245,0.18292952987458952 m-10.944955042021673,2.0181642335075423 l-0.007733460850209376,0.8860087706851605 -0.49623927292753317,1.561455615469689 l-1.8991221180961144,3.841201560086477 m-4.823208888165134,0.44808514186586323 l0.5495608569123703,1.6426910195520301 -0.1302925767344359,21.61794726925618 l0.14822804524236605,1.1945009894448433 m0.4173656041355184,-22.681704138847724 l13.56768192980289,-1.5230821902621288 0.5879634450639409,0.10050967965685356 l0.8271801424491783,0.7044161004838682 0.2683064928733299,1.00991922008594 l-0.3568533687704119,22.326933421271356 m-15.032463015719213,-15.651981866035852 l14.683113423177657,-1.222783582502973 m-14.741285704259106,8.335701823056048 l14.397684591084685,-1.2359985836244083 m-14.310481817913884,8.66132501442643 l14.63799078199518,-1.1134997173492922 3.064950261071038,0.014472563441365102 m-12.226815381574562,3.7387901844686935 l-0.006263269790815381,1.077471139440695 -1.880945994046598,1.2721818935363431 l-4.005053880766914,2.379621764004343 -4.03879271546993,2.0275767479593494 m17.117840809073964,-6.647074545704568 l3.956675819571407,3.415450186277668 1.7846853970715537,2.0520827878946792 l1.0428807186035987,1.5901930215023774 " fill="none" stroke="black" stroke-width="1" /></svg>