<?xml version="1.0" encoding="utf-8" ?>
<svg baseProfile="full" height="96.25310702341307" version="1.1" width="100.81859017024833" xmlns="http://www.w3.org/2000/svg" xmlns:ev="http://www.w3.org/2001/xml-events" xmlns:xlink="http://www.w3.org/1999/xlink"><defs /><rect fill="white" height="96.25310702341307" width="100.81859017024833" x="0" y="0" /><path d="M25,25 m0.0,0.0 m13.484907543717718,2.4232046753167293 l0.5730787939189246,0.06943207302389458 3.612823776993218,0.10851841834043391 l19.355822684219866,-1.8215530799710946 4.607332886322286,-0.18056584184801522 m-35.079932664532606,9.418346366725965 l-0.6092449647330287,4.147621364979261 -1.6290147835565052,6.625382493654134 m2.440877429448542,-9.650142591262663 l25.947130866351376,-2.6592324724367686 9.269600311055987,-0.6784032883831403 l6.589230413277184,-0.15095530570627974 1.660317276126076,0.30695441556451475 l0.5767392648637016,0.4506388693992203 0.018921336775580385,0.5930935287580555 l-1.0519534658252734,1.5189811743044295 -2.4983245623375825,2.2153960834553965 m-20.583813516187014,-10.243976683618627 l0.6408708196435414,1.527079877294101 0.06134727242201228,17.593002909633533 m-12.71785148684569,-7.618754433252454 l2.6780967523000556,1.24728847633557 2.753203575005553,1.9339555243147706 m-6.763319752007531,2.8023052138848534 l3.205130319196384,1.641060081590359 3.0290993604456786,2.2599744165881717 m15.627978874158716,-11.51274041742184 l2.8262392754403596,1.570377353857089 2.749225576173542,1.991089670147853 m-6.763699811793522,3.5669058077276508 l3.245971763466704,1.584787209874506 3.0203607603459406,2.2556776366012077 m-25.145390669367604,0.6342138023747786 l0.04114021675428292,2.0836698210937694 -0.4227682297380708,3.731204307773571 l-0.8859987272184309,4.331940260756572 -2.65506142296598,4.035511737256091 l-2.2933259533422947,1.683795955389063 -3.177523993190448,1.6129449145181418 m3.5024223379959376,-10.431201713695026 l2.136498318697146,0.2902237739475162 1.9918133115554064,-2.5207390006130503 l2.396398648116342,-5.456809422524502 2.0123352992128667,-3.5231671397147295 l1.3697748894611355,-1.6417105612119098 1.4053558156263917,-0.29010969729097624 l0.5965846725891825,0.2516547625722575 0.33685059655141497,0.7019240436557306 l-0.033331782756159084,0.9652396537441018 -2.6025794844742114,6.794037723773054 l-3.96601821215125,6.980705910990689 -4.3649271150113,5.9199467230628215 l-2.3557703599059976,2.6071666927270902 -2.577245475577449,2.3733539251276485 l-2.6889425961600923,1.784561022229556 m6.221105725399225,-19.223977765906188 l2.9351096795705116,2.500947048977569 1.5272457449436754,1.8961692026654215 m12.668219868617072,-10.79051612838595 l2.0958663369071555,0.23694925541002526 13.074323325794813,-1.6084006178970005 l3.0453842770884947,0.05965881487833341 m-16.99046773155823,1.6668781367789653 l0.5608355787004062,0.8209074229165852 0.1557600461381584,1.0292091330099973 l-0.06940960197706007,9.050864882145737 m-7.052192382007452,0.5383935320236617 l3.4145027224362545,0.28792246242564473 20.21639426597459,-2.163445722016858 l3.5880453831849355,0.21516824497988205 2.097458121968437,0.43498810211668326 m-13.194079184687224,-17.724022219187674 l0.5391934388823932,0.8915374854579073 0.31302659367716507,1.8766786800380943 l-0.07230221235621823,29.484863450235217 " fill="none" stroke="black" stroke-width="1" /></svg>