<?xml version="1.0" encoding="utf-8" ?>
<svg baseProfile="full" height="106.256799556649" version="1.1" width="94.3245231785599" xmlns="http://www.w3.org/2000/svg" xmlns:ev="http://www.w3.org/2001/xml-events" xmlns:xlink="http://www.w3.org/1999/xlink"><defs /><rect fill="white" height="106.256799556649" width="94.3245231785599" x="0" y="0" /><path d="M26.832483511884725,25 m0.0,0.0 m2.4701380835725253,4.717456123050033 l0.5247528563915316,0.21749226849818684 2.236281660931923,1.9981740623535482 l1.3919769675540719,1.8690312956004669 0.5810379446526742,1.8058054864634538 m-9.036671024987452,10.539810688732633 l1.6076173043576616,1.0218650109467364 2.0212935009956747,1.7268123093408538 l1.417509913605281,1.554746128376511 0.6894905995962486,1.1126311434935143 m-5.596853425924542,27.652982205469037 l1.048471813776725,0.6394001511656424 0.5061288116407235,-0.019945510051524663 l0.81377326240017,-0.7874591965197326 2.166020129767981,-4.985646790469122 l2.359598749205305,-6.180011465147794 m18.736718642532974,-39.61797642169841 l0.7900737865000304,1.094554506961637 0.3534132496883123,1.3736690973413952 l-0.003778704232434408,7.668739958672379 m-12.534798262713837,-0.4885119808419766 l-0.5854426985761838,4.5012933397935555 -1.3213396603587035,5.65847812884478 m1.9645736170090469,-8.42197663604658 l17.347227364850006,-2.22666344429873 8.546329543230021,-0.7270261749623687 l0.6990875044929681,0.1763160382185951 0.43951039936357494,0.4505429543507514 l0.09421298798970684,0.6234343984357221 -0.57387289731106,1.5893251395304497 l-2.2232928866708574,2.7852215861499734 m-29.106039616664294,5.9161754722043485 l2.8409203111031647,0.26309728174542396 20.07706589086543,-2.2403323495539724 l5.299299453073301,-0.07410871310741315 1.8863416472335208,0.3238601779526888 m-17.381071317619664,2.952811455420906 l0.0368719893150579,2.3030035738747103 -1.0359293697098297,6.1874708978331645 l-1.2705578848139065,4.580594796677062 -1.6585533727415118,3.848476157706442 l-2.0155737471260657,3.3848701752075536 -2.492186281027825,3.213304657271139 l-2.934385995797978,2.927579466710919 -2.730122340902073,2.044142552617817 m19.275102053809302,-28.419394774493735 l0.5241531442597525,1.5827167686809474 0.152382408384156,1.4031518717370217 l0.06318968317117078,24.907311669588957 0.8179316440285869,1.7182744364822802 l0.7975496543750052,0.8943209672110242 1.6601685137860291,0.8588900262185053 l3.9853317508644013,0.35801858690959515 4.390898131371284,-0.36318207210758613 l1.9391923533859101,-0.5395645089083245 1.616455836112185,-0.9915022983532581 l0.6366401170795679,-1.4152465498223965 0.1877758775304223,-2.0824697254700744 " fill="none" stroke="black" stroke-width="1" /></svg>