<?xml version="1.0" encoding="utf-8" ?>
<svg baseProfile="full" height="101.91738836464532" version="1.1" width="109.7460504225422" xmlns="http://www.w3.org/2000/svg" xmlns:ev="http://www.w3.org/2001/xml-events" xmlns:xlink="http://www.w3.org/1999/xlink"><defs /><rect fill="white" height="101.91738836464532" width="109.7460504225422" x="0" y="0" /><path d="M25,25 m0.0,0.0 m11.934846782378552,7.5571665758028645 l0.4133393774164735,0.3575453846552289 0.6601553934817285,3.427349966430905 l0.977492744340559,7.192707520745636 m-1.008853353139203,-10.195896482652277 l11.735471696027538,-1.7797594672332868 1.4155769492565229,-0.08816496371670766 l0.9761574282363568,0.24527186449767135 0.49701196354412086,0.9320536306461883 l-0.10512918560797495,0.8355532843198402 -2.024693837509942,6.537149426722424 m-10.781227908127175,1.8707643474227467 l11.588220886326758,-1.3953222906024156 m-6.239055519618139,1.7799917081411925 l0.6071552672483125,0.8234960561813526 0.2889435084760633,1.1734975873044167 l0.01917360888492393,12.928502198011557 m0.5477788392566967,-8.567103226996803 l5.825511092142792,-1.1283472647603114 2.1210611878146928,-0.005893085945109226 m-16.20964022685554,1.1055811406923943 l0.6995701366861429,0.9046404937332837 0.2834915899818753,1.1113244521832568 l0.11182521163054886,9.735344940668448 m-4.9962485128055105,0.9489088230675915 l2.4064103942855946,0.43167858341780624 16.305706856054513,-1.8270266098820538 m5.4240056098679945,-27.13949470352823 l2.3900903174683967,0.2861899574613781 15.67122717134224,-1.5859734383084971 l1.5487169494468052,0.12003204315586416 0.5614448123414606,0.35047422468256345 l0.33359675057302596,0.5575570243730211 0.03989083346490737,0.6911150964591412 l-2.185944903532186,9.758034807419014 m-20.69706878667754,-3.7574662252012767 l3.9803954826493415,0.034544227362643884 18.40393972933495,-1.8168063506395586 l3.921008369707769,-0.23398675097865254 2.2964025556387155,0.1507059854862722 m-26.0039543186344,7.717565667288362 l3.029409262735035,0.15382951751613858 12.051469368832063,-1.4820496741415579 l4.1309246352747415,-0.07655410098437762 m-19.526963781004046,6.452682041930162 l-0.4183717654934545,3.16335321090346 -1.1851761789590942,4.0489903531542115 m1.8043901304408212,-5.7363035466453205 l15.624960892342207,-1.7769776095642076 8.625232396965275,-0.5911286841574618 l1.3176221176985075,0.2523901122788644 0.5016844213264668,0.4329369129517258 l0.057065979584920816,0.5989151474540891 -0.8038439448480561,1.4094785935352712 l-2.1456457306544716,1.934716497062522 m-21.16663284594406,4.311166907527592 l0.6166256567753187,0.6860804466050047 0.19931151944053066,0.7960412137050874 l-0.04209034735238517,10.807658130535055 m0.41915764481201645,-11.687226357351621 l16.163158457668025,-1.570970702178592 1.536587586877976,0.15162108128563578 l0.8380725821330484,0.6854896884010222 0.20889775303371147,1.2064030098672456 l-0.1241720527253945,9.797674333291628 -0.2661340807114951,1.4073642293185855 l-0.549672356341217,0.42069795041103153 -0.6936870061289738,-0.24398503332686283 l-1.8155439652966843,-1.9043241532021298 m-6.921304183890918,-15.580743569732062 l0.5106340061478479,0.8029547407233801 0.12785449030498722,0.9871631005280704 l-0.015756221980096075,22.016538419055863 " fill="none" stroke="black" stroke-width="1" /></svg>