<?xml version="1.0" encoding="utf-8" ?>
<svg baseProfile="full" height="111.11418528744207" version="1.1" width="105.50564952850848" xmlns="http://www.w3.org/2000/svg" xmlns:ev="http://www.w3.org/2001/xml-events" xmlns:xlink="http://www.w3.org/1999/xlink"><defs /><rect fill="white" height="111.11418528744207" width="105.50564952850848" x="0" y="0" /><path d="M25,25 m0.0,0.0 m8.817067551796107,4.634214222727552 l0.48440185785377926,0.2733081947070945 3.446591969409916,2.4598658814285543 l1.6006301701215515,1.5306224558709083 0.8574242487152764,1.2163273026365657 m-9.932638719798405,11.679436969499077 l4.188903834053179,2.3720926538392284 2.084849375302239,1.766684263609898 l0.8044218600818642,1.095852001811355 m-6.349870721940851,27.21952313648912 l1.258083541294356,0.09422953773939052 0.9790490964365428,-0.8824187474381225 l2.7774258196338955,-5.599232715871345 2.8585708498110485,-7.057855190034574 m19.951306882673062,-35.75891680696971 l0.9038179866384427,1.658583557115959 0.14115516280051985,6.4617091547328736 m-14.18771175046132,1.7937829156124359 l3.728326807653511,0.19824389763496522 22.615443692955903,-2.3681746460754223 l3.242056581829057,-0.10581588137918461 m-23.86528657715295,4.666605911389783 l2.5571351961239173,3.74291707527871 0.9803351205585557,2.9522718180628846 m13.426433459310264,-9.005013093037567 l0.19029922108421293,0.6099387585798838 -0.48121409813747174,1.514881902965765 l-3.32837457386299,6.683812623698777 m-21.04160730586715,2.616692311110813 l1.7518661237908761,0.2796428299561526 2.0238387914505496,-0.07250131776935785 l24.662460708894102,-2.961100204874903 5.786962793774238,-0.44111387034658506 l2.5734945716826645,0.22206612558193284 m-33.58246618913997,9.007054717927106 l0.7196454159214741,1.0282750505722553 0.3584597337771922,1.030767581771797 l2.2543502436123184,15.48271289883441 m-2.1457561924384105,-16.738369899363907 l22.430072256998077,-2.526110930968164 2.257005312096946,-0.004509478726020759 l1.2468703329346218,0.4741100817285982 0.7224041437828335,1.0561826825712917 l0.08194073594120008,2.0902238084122353 -2.611316460213501,13.620567681512831 m-22.632001472155196,-7.231866615932183 l13.537219816899057,-1.5855852969790767 10.117550237247027,-0.851206579373984 m-22.369083331344356,10.333629690590392 l10.504578910782781,-1.4063298107991486 10.299453151841842,-1.0311949502824411 m-11.6598650167583,-13.120738168380678 l0.573669326391222,0.9553342770922796 0.2758466170653861,1.9785406589181922 l0.06540126589190588,18.765669977088365 0.44786290207151025,2.96410395456535 l0.8089926966138627,1.5649040546878212 1.7432069575511757,1.182966996884986 l2.9874278127566005,0.5756743472186545 7.276596516796941,0.008215529588208127 l3.0710657010716207,-0.4683586214447318 1.417230145089264,-0.8373423350874878 l0.8269727647451138,-1.2598584561734099 0.37394206321830714,-1.6873900804477322 l0.09202086275350528,-2.40924902215174 " fill="none" stroke="black" stroke-width="1" /></svg>