<?xml version="1.0" encoding="utf-8" ?>
<svg baseProfile="full" height="136.55219258862854" version="1.1" width="85.81712677546959" xmlns="http://www.w3.org/2000/svg" xmlns:ev="http://www.w3.org/2001/xml-events" xmlns:xlink="http://www.w3.org/1999/xlink"><defs /><rect fill="white" height="136.55219258862854" width="85.81712677546959" x="0" y="0" /><path d="M25,25 m0.0,0.0 m5.9368731850403105,4.61289868693886 l0.4863371348277759,0.150074083268213 1.449489537211242,0.07207952295181703 l2.206773851710609,-0.3878128961045992 5.804307931585664,-1.776102103744442 l1.173576325774397,0.20634471376211316 0.8816766647343861,1.0030824816136341 l-0.08519282547751149,0.7055817634170821 -0.3556793060696465,0.9485620123191605 l-5.209786362051238,12.40439492577623 m0.00622180156971129,-0.004059467169966605 l1.9299182076907235,2.3391588939042607 1.3958639936947692,2.941880419749562 l1.0097631681487407,4.326007233104583 0.2924692681276327,4.163020385349108 l-0.36776623108443685,3.8139775008397363 -0.9768406422408399,1.6165486172119525 l-0.8004623877355388,0.3297941940033718 -1.4570086106408144,-0.32987769094559705 m-5.3833496726263785,-32.273712448864494 l-0.035789234312871135,45.82415239643442 -0.08619878528515108,4.778227884474352 l0.024658457716951885,2.5012103879778778 -0.11797460415700817,2.459008417560282 l-0.13415223668996035,2.210325160765563 -0.10089547338439403,1.708240556998989 l-0.06504242227817886,1.2515872619937853 -0.37896513042986757,0.664323822414605 l-0.38491287607398156,-0.04073453211838862 -0.42509577802202053,-0.5700033244943912 l-0.8743197707528778,-2.15075036778893 m-4.0328629409257015,-15.948498561674386 l0.02377077907744261,0.4763230364512811 0.2637795986740361,3.1843339969768456 l-0.10312610343898451,30.300920298282854 m24.952457310019007,-49.21131524707777 l-0.13226442223709292,1.0232033500340016 -0.6087557727260912,0.8031813754160535 l-3.466401562129017,2.469552350419275 -4.607385302167204,2.207502677240858 l-5.597877617485543,1.941716865263067 m0.5434365479886007,3.1843496409997574 l1.3290067550481393,2.8230705454930995 0.9983371126468369,3.5129624316577317 m4.219296130877885,-7.622313680319553 l1.6468366459012902,2.992888766805691 1.0285652449528402,3.262814358096989 m7.961069015735314,-9.004787105881906 l-0.20202044561807803,1.1834649585167087 -1.1783201859647,2.8545269183453614 l-1.4009831704267375,2.4860967271053998 -1.4457423192555332,2.0683071715341597 m-13.202725692504595,3.7363655808901943 l1.968506245748507,0.23351515580019197 14.069464444940397,-2.2388299546774095 l1.0984019734405777,0.24893840955847985 0.38506091150009336,0.4572773663638236 l0.17291889936412633,0.6459387826133158 -0.03715191684429432,0.7766226732814974 l-1.7549896036063521,13.497097161953379 m-15.710096119423683,-6.893872428388016 l2.0561594312632834,0.19926916232816358 15.003461822871516,-2.0639479193652197 m-16.31549410911881,9.449402103045216 l2.0045993143944045,0.1861836768639886 12.080852568109313,-1.9177289593357152 m-17.44005831842393,10.457426679135954 l-0.11763273714783273,1.8927231777936662 -0.5420538250270021,3.258167319978629 l-1.4036039655970338,5.3321392437546065 m6.713203833959914,-13.124966292806654 l1.3703451365983514,4.192473151443689 1.9608448713943083,3.909607450689497 l1.8883073278340403,2.477844045209422 2.683213550613253,1.9530519265409618 l1.7716248585524077,0.7353078244757183 2.030057426709043,0.48576510870622674 l2.7527788040974785,0.18069277749064994 2.2775171268303596,-0.35494405662154765 l1.2501480709699748,-0.459793336464583 0.674149812810646,-0.5369908396235284 l0.28753324972156763,-0.6188176173597392 -0.02077189137295856,-0.7131666014208768 l-0.9434117076267732,-1.638687365432066 -0.9227160625113556,-0.9500992999574661 m-10.707790063236823,-10.162791331017283 l1.6302176099228218,3.6488100178285934 0.4730475972851106,0.4283229443070012 l0.365355811016602,-0.24481008136045196 0.28436344712962786,-1.025991752989922 m7.336371716207874,-3.966918616113986 l2.7284311480942716,3.35198180632334 2.069373299464239,3.8433364329723223 " fill="none" stroke="black" stroke-width="1" /></svg>