<?xml version="1.0" encoding="utf-8" ?>
<svg baseProfile="full" height="186.044307410179" version="1.1" width="116.59594878896381" xmlns="http://www.w3.org/2000/svg" xmlns:ev="http://www.w3.org/2001/xml-events" xmlns:xlink="http://www.w3.org/1999/xlink"><defs /><rect fill="white" height="186.044307410179" width="116.59594878896381" x="0" y="0" /><path d="M25,25 m0.0,0.0 m22.276961144708327,8.011740373998483 l0.04656669844146069,0.4651640837132373 -0.45272816858756126,1.0177347798621987 l-1.117075017397625,1.4877588350690611 -3.6364185035700904,3.6938134300863634 l-4.241159473311463,3.1220557813014658 -5.1227973178130615,2.865303532197777 m13.869842999898085,-9.509603790569535 l3.034881291831025,0.03612416494328277 10.93678097722917,-1.3892395594006026 l1.2674688952268809,0.29355281339507877 0.35668097147784805,0.46883393395777134 l-0.046768052589484,1.2434061822276603 -2.8896833716886343,8.542650882527848 l-2.4023296067625752,4.436240309210861 -2.8743257230674937,4.410170774587309 l-1.0317064877175903,4.618597033779713 1.500567234874554,5.887113004223884 l1.0668623987835217,4.023992379252504 1.263571944885489,3.450964693546632 l1.1908706311440784,3.270733163229491 1.2681263434154835,3.329485749473351 l1.3281026064510586,3.330151224315801 1.3912628386157881,3.505816901299743 l1.3563651075722705,3.3565747589662984 1.3766566647403438,3.503419649285849 l1.339367832378014,3.515711839638785 1.2976634183798164,3.5982331969767687 l1.2647453949330782,3.718025108063858 1.2100233485330756,3.6433934133074035 l1.1809374624640876,3.8406498153588555 1.1343686878329466,3.907658640441775 l1.1016574039585758,3.966487420771566 1.1101024153067354,3.890156651525806 l1.1303478008771766,3.9944636534481504 1.1264181307434133,3.992726155790498 l1.1279554394740103,3.9724895924164216 1.1569648420775778,3.8859592808555976 l1.2265702042759634,3.71362460585851 1.3103800107066534,3.549570724630681 l1.4257381068538133,3.5270913131528467 1.514602296756235,3.268241695868426 l1.6142441352179056,3.074027098854022 1.7085491125905996,2.667475221314795 l1.85961433339079,2.1298491709914282 1.4141456477512275,0.7159177264312597 l0.49414876439072736,-0.35014704278889613 0.1308269732815565,-0.6099273705890207 l-0.09207940788638479,-4.694604002463768 -0.39276689544398113,-3.5620949032032883 m-23.32314789482383,-28.53912802328491 l-0.16650479490733733,1.8462244091715485 -1.2769634114645845,3.312131557285212 l-2.0329746474161934,7.275529531475751 -3.2196720342725604,8.193684643735429 l-3.541746034854784,5.921801221996539 -2.704810238305665,3.140521825342169 l-2.4169484892523965,2.112369125030081 m2.2568165637777935,-44.921482609314275 l3.461359036829668,2.7616258407675742 1.9284006904842248,2.400005265770958 l0.736572237364899,1.5701282777995045 " fill="none" stroke="black" stroke-width="1" /></svg>