<?xml version="1.0" encoding="utf-8" ?>
<svg baseProfile="full" height="109.49251259677112" version="1.1" width="109.04894644394517" xmlns="http://www.w3.org/2000/svg" xmlns:ev="http://www.w3.org/2001/xml-events" xmlns:xlink="http://www.w3.org/1999/xlink"><defs /><rect fill="white" height="109.49251259677112" width="109.04894644394517" x="0" y="0" /><path d="M25,25.000000152018824 m0.0,0.0 m12.319732904434204,-1.5201882419546564e-07 l0.5957065895199776,0.31699247658252716 2.23620668053627,1.7221832275390625 l1.661348044872284,2.293624132871628 m-16.787782907485962,5.222258567810059 l2.261155843734741,0.2030118741095066 23.25101137161255,-2.8757452964782715 l2.7731284499168396,-0.1453861128538847 1.2180712074041367,0.26329170912504196 m-10.953072309494019,5.0253987312316895 l-0.2659190632402897,1.7570438981056213 -3.18530410528183,4.363388419151306 l-3.3213290572166443,3.4802523255348206 -3.194873631000519,2.5222688913345337 m1.8756382167339325,-8.66730809211731 l2.4231553077697754,0.9689202904701233 2.549610435962677,1.4400513470172882 l2.8517359495162964,2.114194333553314 1.6035887598991394,1.664082258939743 m-15.759737491607666,-6.381545066833496 l0.7841077446937561,1.1898751556873322 0.029979711398482323,0.9080851078033447 l-1.7556340992450714,10.08480191230774 0.28463102877140045,0.7009720057249069 l21.683309078216553,-3.2101252675056458 m-0.44088438153266907,-12.675596475601196 l0.7893945276737213,1.2856563925743103 -0.39726052433252335,13.252334594726562 m-22.770140171051025,10.083606243133545 l0.3572786971926689,1.8715371191501617 0.06266020704060793,20.714387893676758 m-0.08399018086493015,-21.381185054779053 l21.391096115112305,-3.779173493385315 1.461070328950882,0.27580371126532555 l0.4138844832777977,1.1374133080244064 -0.07759266067296267,2.9626402258872986 l-1.056370884180069,15.11823296546936 -0.5440991371870041,2.0971058309078217 l-0.6121115759015083,0.9453381597995758 -0.6408203393220901,0.09031293913722038 l-0.6305672228336334,-0.46720072627067566 -1.0721351206302643,-1.4193741977214813 m-6.567468643188477,-26.204252243041992 l0.36717403680086136,1.6931328177452087 -3.5023820400238037,14.917271137237549 m-4.03562992811203,3.0321907997131348 l10.137948989868164,-4.89894300699234 m-0.8469080924987793,-3.3274808526039124 l2.6760658621788025,3.2181140780448914 1.4325325191020966,3.018520176410675 m16.809656620025635,-43.5498046875 l-0.18973620608448982,3.3172276616096497 -1.9885934889316559,6.41298770904541 l-2.6586350798606873,6.535683870315552 -4.010680615901947,8.140981197357178 m4.683627486228943,-9.580519795417786 l0.7528357207775116,2.2854214906692505 0.09275874122977257,2.5099650025367737 l-0.18059652298688889,36.899287700653076 m15.792546272277832,-56.17072105407715 l-0.1469721458852291,2.092662900686264 -0.8346898108720779,3.040735125541687 l-3.0849942564964294,7.77357816696167 m-11.713169813156128,2.120346277952194 l22.901036739349365,-2.827555537223816 m-10.428111553192139,2.7724450826644897 l0.4409698024392128,1.2741217017173767 -0.11898964643478394,32.85443067550659 m-12.106889486312866,-22.34360933303833 l20.965077877044678,-2.2187335789203644 m-21.556169986724854,12.5881028175354 l21.536688804626465,-1.9738547503948212 m-21.534297466278076,15.77067255973816 l24.637064933776855,-2.3868846893310547 " fill="none" stroke="black" stroke-width="1" /></svg>