<?xml version="1.0" encoding="utf-8" ?>
<svg baseProfile="full" height="86.9112880780439" version="1.1" width="95.56023705799355" xmlns="http://www.w3.org/2000/svg" xmlns:ev="http://www.w3.org/2001/xml-events" xmlns:xlink="http://www.w3.org/1999/xlink"><defs /><rect fill="white" height="86.9112880780439" width="95.56023705799355" x="0" y="0" /><path d="M25,25 m0.0,0.0 m5.716461014809952,4.626673912847812 l0.4093519360251491,0.20545553970722805 2.6896071952276177,0.2756427133501908 l10.806193650414745,-2.278124415014523 0.7988165241306668,0.3300402257755209 l0.3172007568912487,0.6054798793291479 -0.012272912513110185,0.7630599454264204 l-0.42470549399478313,0.8425681109135661 -7.326774212284147,8.528866135962316 m-0.934746659824301,-1.4454512031728057 l2.796902319929998,2.5712644212680695 1.490466875751107,2.1995429661437127 l1.0378099414677666,2.383115199556668 0.9076022279718322,8.277169045622816 l-1.1503909567474098,5.788239654640958 -1.0678699018017879,2.1727400799274608 l-0.6760759309052842,0.7122891936726827 -0.7626268316769811,0.3527166720866522 l-1.2544173789889081,-0.05739904714356224 -1.261353793361151,-0.7223087676218019 m-6.455883951743356,-11.205668130005852 l1.2838537393770715,0.26613296735085623 1.207006919152337,-0.41509398209457776 l7.856773374839655,-5.0341588389859755 m21.06018456338652,-16.823960238330347 l-0.7073974211833086,0.6989994668116791 -4.300349462148996,0.31080126268612857 l-6.227101594066382,1.3386583604502404 -7.072466775920706,1.2164015164083917 m9.03722909498564,3.1337113648382546 l-0.1438830706903979,1.319005263094684 -1.4277495757427294,2.133039704211923 l-2.139228996936845,2.1943116274354755 -3.487500946653809,2.875614359019231 l0.300943977182257,0.4596296133069586 4.4113449258578585,0.9527441499728114 l2.673640304734414,1.2712460523111373 m9.552336811728397,-8.862803636447953 l0.10216407736433418,0.7716280132859982 -0.3157073964125474,0.7677919782534259 l-9.260007621199273,3.609774885290217 -8.443163818600869,4.3955646468782055 l-8.67921912770728,0.9800211342896112 -0.13592071515074594,1.6023093538391504 m23.98804862168027,-10.763988843935133 l2.044498803044607,0.9203212875902043 2.553962180621683,1.6218409941268321 l2.154173854956384,1.825495025469333 1.0070787448653105,1.4426176131699426 m-13.958648727317936,2.2032601439271176 l0.4801282590288639,0.7913073917668765 0.13745108996395783,0.9024599179700238 l0.008072672191997943,12.599733745003103 m-9.616560063535252,-9.453511436041234 l0.1782719393042669,1.1001622682664376 -1.4663718745078935,0.8246706724450766 l-4.53854147445798,2.627057990571949 -4.398448383824521,2.3238769440917952 m27.64332104608521,-7.5426307177625205 l2.2283813222640325,1.3956499355750196 2.8045625555878355,2.1666180083601163 l2.2989673543611397,2.137582452852985 1.2228134527081047,1.5716336729919482 " fill="none" stroke="black" stroke-width="1" /></svg>