<?xml version="1.0" encoding="utf-8" ?>
<svg baseProfile="full" height="108.85403784453473" version="1.1" width="111.0270160944166" xmlns="http://www.w3.org/2000/svg" xmlns:ev="http://www.w3.org/2001/xml-events" xmlns:xlink="http://www.w3.org/1999/xlink"><defs /><rect fill="white" height="108.85403784453473" width="111.0270160944166" x="0" y="0" /><path d="M25,25 m0.0,0.0 m17.843021266066657,15.974570121556658 l0.4082745613340414,0.1625446924787498 1.6652555826697806,0.12902521642398213 l13.770796430897253,-2.119195950263188 2.705915204710202,-0.1769650226549884 m-18.964590444529964,-6.42676050197244 l0.6152301580681058,1.009719646126143 0.24809736755126585,1.09340266159112 l1.1383819583720556,15.347902729155503 m8.936222169768735,-20.526315700170894 l0.47884690549394127,1.106633026669357 0.08221367793151935,1.2452639279238953 l-2.086150802064357,17.141490925884725 m-16.765813719916526,2.266473826879148 l2.295190374845024,0.25576193395336955 19.936358198789073,-2.4806442894637506 l2.806038100695339,0.24389629335823643 m-19.38446300441912,8.162151678312318 l0.500373676870181,1.7917808349573598 0.02928140916596335,24.653301793789417 m0.3210594777125981,-26.212543401936784 l11.6074793674705,-1.9523949847232982 1.0329469988233453,0.3608314254176662 l0.3512346562372491,0.9953959333486274 -0.2943154823019172,24.460751089860533 l-0.2792850083696573,1.1062739609075052 -0.4696913309363446,0.26177778398890905 l-1.820055043193405,-0.9237296263541007 m-9.823618782064539,-16.840074180241935 l7.754902696908653,-1.1611141899366664 m-7.516349802690395,8.680227444225972 l7.546847700765236,-1.0171680197327626 m18.77362171543859,-36.65768734856845 l-0.06186083690901029,2.4708022959786566 -2.8262470230327588,9.003665096131238 l-3.0666673917892133,7.099967065782421 -3.0797665676396533,5.503236804127399 m8.433155403689678,-12.141726995939793 l1.3413247309684122,0.24594550129366913 10.098829084788022,-2.305379055011287 l2.0326151675804485,-0.22429560834888554 m-6.796158525557241,4.039796457222889 l0.2567359898025072,2.1859831720934757 -1.227580631605357,6.467947800327256 l-1.832703488134298,6.595037747178822 -2.2869542241811667,5.927738245523269 l-2.1909810330137676,4.331532274913817 -2.48919103424646,3.800504053183743 l-2.8071183098189536,3.22720850951344 -3.0350592930596223,2.55802770335095 m4.264995969245793,-27.51228598111903 l11.442090818352115,15.605929356822656 4.344101693613097,5.5738388650648885 l4.504923016380009,4.755765531191054 1.3049496864789791,0.5390439126066208 l1.2603266564059616,0.15934627459906875 " fill="none" stroke="black" stroke-width="1" /></svg>