<?xml version="1.0" encoding="utf-8" ?>
<svg baseProfile="full" height="96.86533125912788" version="1.1" width="116.27878424061205" xmlns="http://www.w3.org/2000/svg" xmlns:ev="http://www.w3.org/2001/xml-events" xmlns:xlink="http://www.w3.org/1999/xlink"><defs /><rect fill="white" height="96.86533125912788" width="116.27878424061205" x="0" y="0" /><path d="M25,25 m0.0,0.0 m6.90403215428359,19.775982303844007 l0.45095134141808857,0.36705847412522324 0.4996780151349096,0.8713950535036605 l0.45891167938832866,1.0400763500328407 1.7623723341354025,9.432544692635563 m-1.780762531546848,-11.218514634279485 l13.596115238253898,-1.6121169701250073 1.6937824966957742,0.01882317932373116 l0.9389063224448488,0.4486864990126276 0.2574414241545662,0.44863958284164324 l-0.04597472820022354,0.6041946083765918 -2.1571802541237117,8.351108970501299 m-11.876507784463541,1.7358905394456174 l13.341517823895197,-1.3793575562835703 m9.51646054632686,-12.724301764934527 l0.22519818536995778,2.009710506359803 -2.2085878741260885,6.3068184767009114 l-3.153955486675796,5.027891958451723 -3.4728332942632245,4.496100173736404 m7.626996338387319,-8.05050180231931 l3.4488449316061462,-0.03185139815448602 18.00398869194444,-1.8371974521468861 l4.362023924779777,-0.17498748657208776 m-20.97190500231325,13.01008355162366 l6.799007438730047,0.23202610961999695 5.573813515294659,-0.6202142448927477 l2.173393141375639,-0.16355105206920328 1.2174881525844545,0.5578952684420604 l0.01700506819451878,0.49538900591490803 -8.181467718230374,3.1700720525747164 l-7.090539483978745,3.2990156033821143 -8.782584902379519,1.9373943302656962 l-5.261405099854832,1.0411283301904017 m7.396625025408226,-11.088922766758861 l1.9869398649942775,0.4328153794565027 3.543292958764155,0.9423547016025438 l18.841395820339198,5.545864058123032 6.404338961185234,1.8948772962973621 l4.2219670056786995,0.7483418594920558 " fill="none" stroke="black" stroke-width="1" /></svg>