<?xml version="1.0" encoding="utf-8" ?>
<svg baseProfile="full" height="94.56114692503525" version="1.1" width="103.71567919876739" xmlns="http://www.w3.org/2000/svg" xmlns:ev="http://www.w3.org/2001/xml-events" xmlns:xlink="http://www.w3.org/1999/xlink"><defs /><rect fill="white" height="94.56114692503525" width="103.71567919876739" x="0" y="0" /><path d="M25,25.158488699925307 m0.0,0.0 m13.649775784773782,3.2695804336381693 l0.5340022299894628,0.0925466813654933 3.1692240433146925,0.08095835635341202 l26.699052909843637,-2.0748771801826362 4.179108086903927,0.2341150892489135 m-38.21041873369162,7.6662133366336365 l0.7099266493582448,1.333180803919563 1.2427931808536559,9.18008642114885 m-0.984525057238628,-9.277112923291734 l39.65167588087811,-2.3095158186745812 0.6863278263482978,0.19478861476030357 l0.41658649382736873,0.8887756491308808 -0.8876056222717571,7.8865267572939235 l-0.4783553504488836,0.7616261500489907 -0.6147735583169539,-0.2199549064295394 m-20.8067798136732,-17.86542616488895 l0.8174415861784743,0.8795275134204551 0.33385079821525204,1.0480119808790826 l-0.0136935531621301,17.958471097589292 m-1.743825324082669,-12.637876926872158 l-4.383423212281313,4.582625997601094 -5.576277823334386,4.498770066249757 l-5.508821211819211,3.378166815633999 -5.356900923724155,2.414613966737328 m23.71330099627448,-13.475255275263187 l18.27766690153111,10.71442012092152 2.1148556667538467,1.056601118315924 l2.0854903477679465,0.4701241495797989 m-35.388490218937676,-1.5674830548363101 l2.32901741511126,1.4331391215326665 1.7917769846558251,1.6887949631574677 m-10.867352108372593,2.5387070456847383 l21.464095929162266,-1.581257456172777 1.3763643644488004,0.16081692941456582 l0.4616963782266171,0.3440035764890852 0.12822262094438458,0.9632697972885715 l-1.6197919968531065,6.663426681049318 m-19.685188979624204,1.1871556911160868 l20.782351585208325,-1.2212873385556953 m-12.336770711485023,-11.83078508526906 l0.5856776167267455,0.6295825786205852 0.3220989255720119,1.1481791061395958 l-0.09021883649613241,18.98280432416742 m-15.157333088850532,1.6783935049936232 l2.3438549844145298,0.5609725227124996 23.608994145400704,-3.715606758957911 m-2.8821971275361493,-3.1197866096327895 l1.9260046383291334,1.6107967409801411 2.4169829951823116,2.6185658420898754 l1.9083769584848405,2.603104773127441 0.9133835183584383,1.8974394051031853 " fill="none" stroke="black" stroke-width="1" /></svg>