<?xml version="1.0" encoding="utf-8" ?>
<svg baseProfile="full" height="109.4925121543929" version="1.1" width="108.58247277443297" xmlns="http://www.w3.org/2000/svg" xmlns:ev="http://www.w3.org/2001/xml-events" xmlns:xlink="http://www.w3.org/1999/xlink"><defs /><rect fill="white" height="109.4925121543929" width="108.58247277443297" x="0" y="0" /><path d="M25,25 m0.0,0.0 m0.07372181862592697,9.923732876777649 l0.6964803487062454,0.14846491627395153 2.6473304629325867,-0.05458747036755085 l18.410003185272217,-2.4931350350379944 3.868551254272461,-0.2607393264770508 l2.631813883781433,0.26213061064481735 m-21.192750930786133,-5.532345771789551 l0.8810035139322281,1.9430920481681824 1.357872188091278,11.173659563064575 m11.098545789718628,-15.11027216911316 l0.3138018399477005,1.89689502120018 -2.4587519466876984,11.948075294494629 m-16.577290296554565,5.069671273231506 l1.011042594909668,1.7262132465839386 2.0151202380657196,8.65998387336731 m-1.6898904740810394,-9.603317379951477 l11.91774845123291,-1.9393891096115112 9.006283283233643,-1.0929369181394577 l1.1242426931858063,0.711115226149559 0.17694126814603806,0.692601203918457 l-2.131582349538803,7.543851733207703 m-18.100730180740356,2.3401737213134766 l19.320892095565796,-2.0582976937294006 m-20.03042221069336,10.111130475997925 l2.8289443254470825,0.19790731370449066 14.56331491470337,-2.040378600358963 l2.8441083431243896,0.06583502050489187 m-23.31428050994873,11.047765016555786 l2.925570011138916,0.16967890784144402 20.024073123931885,-2.9243797063827515 l3.590664565563202,0.1331247203052044 m-14.670168161392212,-23.099873065948486 l0.5527761206030846,0.8819733560085297 0.2670428901910782,1.1997094005346298 l-0.21763907745480537,10.209167003631592 -0.812060758471489,7.780125737190247 l-1.1528071761131287,5.1818132400512695 -1.6810742020606995,4.422914683818817 l-2.2848080098629,3.818475306034088 -2.963656187057495,3.368496000766754 l-3.717617988586426,3.0743876099586487 m12.548635005950928,-11.961828470230103 l3.4041136503219604,1.6458094120025635 3.0775615572929382,2.053118199110031 l2.5168508291244507,2.3250100016593933 1.4525581896305084,1.963898092508316 m13.654540777206421,-55.15982627868652 l-0.1874215342104435,2.731613516807556 -3.1625494360923767,9.180845022201538 l-3.595954179763794,7.972671389579773 -4.241653084754944,7.904258370399475 m6.189681887626648,-10.24654746055603 l0.6453462690114975,0.9778936207294464 0.2573671005666256,1.838708072900772 l-0.014444802654907107,37.80354022979736 m14.65888261795044,-56.92025184631348 l0.003746887668967247,1.331247240304947 -1.0146571695804596,3.2306107878684998 l-3.293382227420807,7.550199627876282 m-10.545593500137329,3.1061258912086487 l23.761792182922363,-2.4483487010002136 m-12.53735065460205,2.499570995569229 l0.7239868491888046,1.0776931047439575 0.21485093981027603,1.2621280550956726 l0.07222677581012249,31.328916549682617 m-11.245248317718506,-23.04344892501831 l20.957531929016113,-1.5600056946277618 m-20.933198928833008,13.259574174880981 l21.176176071166992,-1.6755200922489166 m-21.373307704925537,14.218777418136597 l24.259026050567627,-1.4516986906528473 " fill="none" stroke="black" stroke-width="1" /></svg>