<?xml version="1.0" encoding="utf-8" ?>
<svg baseProfile="full" height="98.48627088387298" version="1.1" width="87.4056523451145" xmlns="http://www.w3.org/2000/svg" xmlns:ev="http://www.w3.org/2001/xml-events" xmlns:xlink="http://www.w3.org/1999/xlink"><defs /><rect fill="white" height="98.48627088387298" width="87.4056523451145" x="0" y="0" /><path d="M25,25 m0.0,0.0 m12.751497569266993,4.585835993597112 l0.05819343243313461,0.3480292349942127 -0.41367249654989485,1.311707581501296 l-1.3086513437408238,1.9659044361317595 -1.5607085343550509,2.849895421747778 l-2.007952491295863,2.779807862319335 m4.095607572174762,-4.237817629791038 l1.1270258737640735,-0.005947889950455171 7.178855812192283,-1.339098618502466 l1.3583556637153282,0.017195281558528574 m-14.08733643591647,8.3161709433538 l1.7293114277426205,0.12306407755400271 11.90422651364373,-1.8570187728049081 l1.4420730672537247,-0.15482947222752969 1.1550126878913853,0.1190156690604276 m-15.883497218759983,6.491773482907049 l0.5510454534399849,0.9287564889111372 1.1931750077462777,8.564089601996479 m-0.9376043121205454,-8.89476324373604 l10.221347431160908,-2.0343683320947834 2.4917138810102055,-0.2646781844394681 l0.3325598423581872,0.25455882542271024 0.1245597733201366,0.7623146965795128 l-0.41388345668305004,7.7996457610254595 -0.1290796564024347,0.8341203098019193 l-0.26072207040978007,0.24075328162246717 -0.3223332944685293,-0.13068218265128545 l-0.9651881597534424,-1.3375590128504933 m-4.392059478029413,-25.92693517196093 l0.6113066273261915,0.8128762351832859 0.2025670471660592,0.8703120770782221 l-0.10049545611641533,28.71544813573232 m13.456347718816733,-27.89894565115006 l0.42392151714175574,0.8057623237761061 0.15735168962733145,0.9456786160201992 l-0.01813170215757221,13.305607111861715 m7.113179037603775,-18.572292707918518 l0.3595056821640558,0.7740271456583465 0.16822812291412767,1.381392259557704 l-0.052572610853830644,20.32263515931984 -0.17637579620410462,0.737720912151657 l-0.3375298923113752,0.29527602903839373 -0.4304300627062176,-0.11179568121016666 l-1.7352445571617214,-2.0532743724211513 m-10.925914717449976,4.768336804017694 l0.32536715576236913,1.0013104784441706 0.03749626663032502,2.6428469609776952 l-0.19209900148313425,3.345510824648313 -0.5766973496229887,3.50438358326324 l-0.8925711581019511,3.1031850445241593 -1.0996176652738894,2.3202292292308213 l-1.4711711911799918,2.0252245816919943 -1.8264190106859737,1.8528891848855769 m5.883262144639847,-22.88018416824219 l10.070190675630379,-1.7686059396046405 0.48077124997538556,0.050490785020333835 l0.6398708728913223,0.6286872011200875 0.24438001572794857,0.9847247348605648 l-0.28709587364824635,21.44722974130476 -0.03102428653942268,1.4646001674681868 l-0.494079561398394,1.3440554550721175 -0.39167022312911115,0.21198818343663026 l-0.4505600941475595,-0.14910943692175696 -1.5181808859070334,-1.5466363345111367 m-8.883833757452612,-15.739470149685845 l7.270302360928046,-0.8474110141479442 m-7.270161786217103,7.294524865280825 l7.440964545806097,-0.6557855120077769 " fill="none" stroke="black" stroke-width="1" /></svg>