<?xml version="1.0" encoding="utf-8" ?>
<svg baseProfile="full" height="100.9159965082692" version="1.1" width="97.63615433499687" xmlns="http://www.w3.org/2000/svg" xmlns:ev="http://www.w3.org/2001/xml-events" xmlns:xlink="http://www.w3.org/1999/xlink"><defs /><rect fill="white" height="100.9159965082692" width="97.63615433499687" x="0" y="0" /><path d="M29.976837483084115,25 m0.0,0.0 m26.623194427883806,2.6991330099674986 l-0.162465911261285,0.5060835227502449 -1.7831835071262214,1.1296102081484922 l-5.173289025144269,2.4991225827997523 -4.787441349758758,2.2079720041106263 l-7.067774750093647,2.9473187448299742 m-2.093864268555409,-0.4060200356528206 l0.7691469494974099,0.9088239991892846 0.308162836284458,1.2047099714081007 l0.07612945911102288,28.222130071069973 m1.2022238069950444,-26.26355545696397 l23.826733787295396,-2.6518763012235005 3.1649711066291983,-0.03906852766094283 l1.2259315556355506,0.246677017693287 0.8492298035841697,0.7448490913901712 l-0.034800950288666324,2.4984719882364455 -1.5621004407693142,4.868217339760281 m-27.67521510296703,3.348058266656744 l28.39671927673643,-2.7119800841243173 m-29.163341078150573,11.159783959586989 l30.17484426265373,-2.529086162665032 1.9331738140384807,-0.04817136047515408 l2.370772605850573,0.2568994222126811 0.9619981660657092,0.6648901083791495 l0.27956137776695383,1.1230630736154361 -3.0166862425984102,8.205063756246417 l-2.5003874777843818,4.366070397264578 -1.0680427962223507,2.236616213019028 l-1.071907019851774,2.166856075015627 -1.0741625162130102,1.1096173482099219 l-1.0078285399959024,0.2457162654742336 -1.1528206381238248,-0.4668253475214672 l-1.873800307943229,-1.654312289127992 m-34.37006558916159,-9.271011540566898 l0.10868955529760149,5.496066875337796 -0.6091427624000106,4.05455402281612 m11.096700491740602,-10.111682159127621 l1.129323340651278,1.1362508946399923 1.1307421794846624,1.7746645717341931 l1.5694781899971562,4.207677105674501 m6.900628654858406,-8.510606537753349 l2.490988281802294,3.200163882815917 1.4601078254417734,3.200124833557204 m6.092722735834302,-7.611501308183489 l2.6033509389963387,1.118818434762996 2.6006922606010896,2.0618191826488217 l1.8527592594045428,1.8898178893622666 0.8388551076528541,1.4101567389485454 " fill="none" stroke="black" stroke-width="1" /></svg>