<?xml version="1.0" encoding="utf-8" ?>
<svg baseProfile="full" height="100.08909767964984" version="1.1" width="103.49078403957768" xmlns="http://www.w3.org/2000/svg" xmlns:ev="http://www.w3.org/2001/xml-events" xmlns:xlink="http://www.w3.org/1999/xlink"><defs /><rect fill="white" height="100.08909767964984" width="103.49078403957768" x="0" y="0" /><path d="M25,25 m0.0,0.0 m6.8660415363473115,5.969618567128722 l0.5708665520790005,0.10811470863590505 1.7075525576344863,0.03521316644696794 l9.604536903917987,-2.1825853475935877 1.006368203156029,0.3685961626359312 l0.3514586058131187,1.2510330915958208 -0.27763818868090767,0.7857790106251833 l-5.6304459445283115,10.533837655330055 m0.0012120534681951635,-0.014941802729880561 l2.191638002439341,2.1440858484983765 1.6130200582856085,2.645082984344909 l0.9726036388779693,2.857023879309213 0.4385051670618964,3.6666595244703553 l-0.49566925773877624,3.330047392433549 -1.0760809037674635,1.2947877470456464 l-0.9560462928558141,0.3258590397606542 -1.854677433409302,-0.46137968353930725 m-6.643645337728851,-26.64363314998352 l0.5327472571791741,0.9987077778109478 0.16716835029515079,1.156348284651354 l-0.030930175114210923,41.920842822772535 m17.536425174259968,-45.22614202894619 l17.769556349974316,3.1099713543312673 2.575701343711206,0.6771756169097604 l2.3152173836931795,0.45119083084356665 m-22.973940976400737,6.959350257837565 l2.480892163400425,0.08172058237374721 15.391029947717483,-1.4312504233481909 l2.965839885459206,0.09467240556347603 m-21.139848669169357,7.6853361823772 l1.032396041587462,0.2689348244851028 1.8357751965067488,0.06832767189560139 l15.75737883758769,-1.663995522515009 2.4061644324351152,-0.022905585027449313 m-23.54536428764078,8.589038291242538 l2.412731970863684,0.1845350955603472 20.156147452951114,-1.8684368998403535 l2.4537993523862487,0.11232484386863005 1.6296075073913896,0.288016442710126 m-15.241158736331167,-18.419729569000747 l0.6531406600142675,0.7422121663550699 0.2996915374909556,1.3288618663377605 l0.023541593062485617,32.187463018796 m-22.566348532745266,-8.648160061440079 l3.4652809230302273,0.30819183331301586 28.191056315814162,-2.1158926208845887 l5.21116989574995,-0.18070903217936032 3.3363159240460614,0.24279521882608432 " fill="none" stroke="black" stroke-width="1" /></svg>