<?xml version="1.0" encoding="utf-8" ?>
<svg baseProfile="full" height="118.50859854389128" version="1.1" width="103.19901804539978" xmlns="http://www.w3.org/2000/svg" xmlns:ev="http://www.w3.org/2001/xml-events" xmlns:xlink="http://www.w3.org/1999/xlink"><defs /><rect fill="white" height="118.50859854389128" width="103.19901804539978" x="0" y="0" /><path d="M25,25 m0.0,0.0 m8.674200768004358,12.225162535177873 l0.4463317458444674,0.42805365095525544 0.5750080157863945,1.0432543383809239 l0.13570481279211613,1.1480635435707427 -0.11121258823028066,41.44710268149121 m0.6877113392988282,-42.75659063917992 l36.59692322532577,-1.8618992752266807 5.210456191721238,0.01173049369467841 l0.9838945348568998,1.7019560415610782 -0.1074596101761531,41.438574700503764 m-26.350934937483846,-31.789799545149585 l-0.10619685842301912,1.8652851239145567 -1.6239700839014162,2.876687123377899 l-2.168141425125006,2.676740382866268 -4.037206937278544,3.925062350592704 l-4.95003688476632,4.000108040401714 m11.156284729945298,-9.357371341968546 l1.8204230258754386,0.0874076595395722 9.953617093693605,-1.480523609676297 l1.2407354692905492,0.2195194968596648 0.46122532947669354,0.43626791368715623 l-0.046693774201661056,1.3285658120784611 -3.6150919225100524,5.234498982133251 l-5.081315337019588,5.207207164457533 -3.818526168337407,2.81331318209174 l-3.179114416720528,2.056743495094888 -3.4457951193256235,2.063099274403027 l-3.757344454450896,1.9803174966287214 -3.998829549010742,1.870357361064096 m9.889646057702945,-16.525880520730304 l3.675114320132501,2.378283451499006 2.523516158530578,2.9004004358488533 m-12.582091001293477,1.9120561417922657 l2.505727530933821,2.5064810244053564 1.6433020106788525,2.557301677014411 m1.3845178036677919,-6.841345748126211 l2.5464514494547665,2.0248114013719722 1.9526746954392067,2.047569445276012 m10.093557258629072,-6.050887786299442 l3.5374584576566446,2.5517836123799342 1.8322580659438652,2.799647946705364 m-31.24206539506296,3.519219222150932 l32.95062157743718,-1.4795386819271799 m-22.818584923032414,6.389462876032252 l0.6983249052434524,0.8183296520586337 0.24074544059423628,0.9272089005836814 l-0.008648812568812413,14.632785921382034 m0.38121872307526394,-15.98381636210573 l17.3089933141201,-1.5624324346733303 1.7018032015304614,0.2455298550019908 l0.49225273386394747,0.8554498381894263 0.03171358969547506,14.915013960433711 l-0.20922341710922818,1.4133938333716802 -1.0620837368578184,0.7188764489302198 l-0.7883346604246938,-0.3394355887590454 -1.8483462530759094,-1.6096304149666814 m-16.789760455539156,-17.396653033192962 l12.346031538530303,-0.9370902946860833 7.832101386802407,-0.4156860934217386 m-19.123619488794404,6.768636482197605 l18.011697743100754,-1.1998881838670667 " fill="none" stroke="black" stroke-width="1" /></svg>