<?xml version="1.0" encoding="utf-8" ?>
<svg baseProfile="full" height="109.32483387730682" version="1.1" width="117.56249764962507" xmlns="http://www.w3.org/2000/svg" xmlns:ev="http://www.w3.org/2001/xml-events" xmlns:xlink="http://www.w3.org/1999/xlink"><defs /><rect fill="white" height="109.32483387730682" width="117.56249764962507" x="0" y="0" /><path d="M25,25 m0.0,0.0 m20.24595957925123,13.796621482335715 l0.03961807793069058,0.4296789620287646 -0.3477253497913872,2.4584221505456783 l-1.2979874258515944,7.870119239956472 -0.8876407299453524,5.35625528915983 l-1.1406761390421642,4.890662073135865 3.5458874288738507,0.8306230376717667 l5.407059252826181,1.2485831913544252 5.063994629050725,1.1035453324736326 l4.086451784738393,1.4407835314876498 m-14.416034677634265,-18.68027584223296 l12.209866365666047,-1.7227559413577287 1.3090045624777285,0.20685139903619842 l0.4549414646144276,0.35929360520512943 0.27510865681562596,1.0680557716848889 l-0.9068446842154332,16.660707988665994 -1.0646556901134907,6.199773578481487 l-1.2262908033307687,7.2063991499074636 -0.5848409450036526,4.111807243919076 l-0.5914485419961587,2.5533755271540013 -0.8823554895359601,1.6189345406295692 l-0.6168016530402605,0.31737256606389636 -1.1768781404231028,-0.11370262443146051 l-1.5458394283068677,-1.7992450833708442 m-0.9471348481359668,-29.797250549048403 l2.2037360825518246,1.826215129153608 1.0258389087762425,1.5820529631225455 m-4.60361423225956,8.002736804668707 l2.3826309196066524,2.0577205313478406 1.344895070301001,1.9853120337946806 l0.5165148483825541,1.5419671150197405 m-17.192453824884637,-9.44922185242119 l1.533786706106835,0.24771611291211695 18.218093642624563,-0.27579236769286003 l5.075683238232898,-0.06970583338185897 1.420602728619882,0.1854544070308917 m10.68451719314874,-24.35446473335432 l0.6356654606919149,1.003960935013987 0.1760831494634193,0.986067092576013 l-0.049719883437138776,20.984393972627412 m0.5128598218908305,-14.147026735245273 l10.321618628208332,-1.2491757901064104 2.280109269639866,0.04584985305138017 m-19.41536989588661,0.8607302766027828 l0.5027868818010939,0.6211039861774047 0.3707960418907433,1.098950744340644 l-0.03685349305999213,17.496028413990803 m-7.21159788583915,0.8153831354081368 l2.173747420233597,0.2802967256615893 25.03405710389743,-1.9440655014463786 l2.60793824003087,0.022252610464901974 2.0454082530144078,0.3700275631298096 m-15.725889715324618,-26.98434150788252 l0.6012264309922019,1.0708972438916255 0.24738572983307525,1.5131810371089185 l-0.01049735442301687,35.80374735916126 " fill="none" stroke="black" stroke-width="1" /></svg>