<?xml version="1.0" encoding="utf-8" ?>
<svg baseProfile="full" height="93.41628881948793" version="1.1" width="121.1070949552909" xmlns="http://www.w3.org/2000/svg" xmlns:ev="http://www.w3.org/2001/xml-events" xmlns:xlink="http://www.w3.org/1999/xlink"><defs /><rect fill="white" height="93.41628881948793" width="121.1070949552909" x="0" y="0" /><path d="M25,25 m0.0,0.0 m19.429986682840998,2.6921263717318302 l0.13317794349393322,0.5129253818362101 -0.05430345421199985,1.2133944892691575 l-1.1756990106535208,2.16911566698719 -4.324769439848849,6.273806135986455 l-4.401963726113956,4.730464022921927 -5.819604626671332,4.951163623055486 m10.802196162982362,-6.908446993390897 l0.5144209011917732,0.9370293932930229 0.14783847775603495,1.1411736163958628 l-0.21143225735691934,25.70353711140169 m12.694874086915544,-34.06190796311619 l3.9716735244058325,0.05655629182664284 23.274853802487907,-2.034826400726548 l3.231571552013089,-0.1647706405249467 2.496237200909853,0.1400154575322149 m-36.43314210452891,14.10091807781231 l2.362267426876736,0.2830460395392924 2.361567937956817,-0.03822460566525096 l34.63535191465674,-2.357462163919716 3.012122454282262,0.17152955059026095 m-23.394874057183326,-8.780116475338748 l0.5638053215552277,2.0667913737236865 -1.0717280849120654,5.657594683234298 l-1.8340642653436574,5.5587369796461905 -2.5565684547383163,5.093168402261964 l-2.7447071563446768,3.824076517642143 -3.272634489946935,3.283733122842799 l-3.7926911353703106,2.7819241685113085 -4.207721444397021,2.3732666106292983 m20.245980135560004,-20.03715688968833 l16.896077824039537,13.25643346862865 4.203786700942992,3.065608072914938 l3.700282803783333,1.8237487719968628 1.7249258082617196,0.465903097948235 " fill="none" stroke="black" stroke-width="1" /></svg>