<?xml version="1.0" encoding="utf-8" ?>
<svg baseProfile="full" height="90.4389391776293" version="1.1" width="98.63336228890951" xmlns="http://www.w3.org/2000/svg" xmlns:ev="http://www.w3.org/2001/xml-events" xmlns:xlink="http://www.w3.org/1999/xlink"><defs /><rect fill="white" height="90.4389391776293" width="98.63336228890951" x="0" y="0" /><path d="M29.069548823631393,25 m0.0,0.0 m7.190062318438355,4.6125811964840135 l0.46787683431729565,0.13820260965326797 2.8658113717768257,0.26504781467125577 l28.966977752895897,-1.8140890542501478 2.5666275751269705,-0.08126478393054884 l2.50645761272276,0.2870113192561721 m-39.04550391711192,2.1749444074127333 l-0.007009687469472859,0.7162668198338759 -0.4692307144278819,1.3211356103167728 l-3.3270195141198635,4.756572708165474 -2.4960918934735,3.1378456251256557 l-3.288506562306864,2.905659489140712 m8.554045483727704,-8.169622361822514 l1.6120280585633175,1.2776877969384177 1.542406190430107,1.7687025304201094 l1.248676048864859,2.013291424877227 0.7344676506614279,1.8887734648198689 m18.751559570602566,-16.463014732717163 l-0.03691962858445268,0.8424364367351576 -0.5168454007270465,2.473847924290807 l-0.9354848170349562,2.3914346034685097 -1.3150787937695743,2.2483383764640195 l-1.9178107295016162,1.9681071208601468 -2.5132626600662125,1.7076966066498351 l-2.980801255507881,2.781885048465107 m8.33517673645576,-6.18896499834348 l4.014791408840096,2.117351871122624 1.8240412245605164,1.1369838586504002 l1.52394866470857,1.3769867444671782 m-32.328892870308614,8.122780228054438 l3.5695088487799476,0.19849303608391483 25.65486449622876,-1.6698355015768602 l4.0022227605103815,-0.26214017393714156 2.6705005472257946,0.23250017632205772 m-19.37837470708392,-18.560812627176652 l0.6878248776781432,0.7838025455638983 0.24745889622824777,1.2373529564257384 l-0.08713330304449578,36.76496306064441 " fill="none" stroke="black" stroke-width="1" /></svg>