<?xml version="1.0" encoding="utf-8" ?>
<svg baseProfile="full" height="114.27214903947512" version="1.1" width="88.96473398140064" xmlns="http://www.w3.org/2000/svg" xmlns:ev="http://www.w3.org/2001/xml-events" xmlns:xlink="http://www.w3.org/1999/xlink"><defs /><rect fill="white" height="114.27214903947512" width="88.96473398140064" x="0" y="0" /><path d="M25,26.902651508784082 m0.0,0.0 m19.220414981484794,1.5380067758382625 l0.08120879498482284,0.5278567510984405 -0.2856925502502018,1.047636363102829 l-2.939366922747483,2.0607361858446316 -3.562153425046689,1.8758721510622096 l-4.7947104263924905,1.8099264406826638 m-1.8851926759509565,4.120188146088201 l2.5813980899579323,0.7572871540670819 15.380858935707577,-2.4748970464765483 l1.767073605400314,0.0491397334855592 m-19.9521257047082,-5.725828825818821 l0.6742735814025628,1.240597054093823 0.21939078994925365,2.073240552220852 l-0.09457412455195072,25.33265284186702 m10.073076779199043,-25.066083078113348 l0.4681202712617031,1.422884840242213 0.05300565570003801,1.3359898568514816 m-6.862249050494791,1.472356787477841 l0.3274122128870534,1.5831460198112906 -0.038301480456970245,9.217319575463891 m-5.31310348168367,1.6091630044355834 l9.900740219549384,-1.995406793623129 1.524788109026598,-0.18308126057425408 l0.9958683324475853,0.261754473213795 0.42136728004242496,1.0265128904275704 l-0.08603257038731177,0.8759902482330729 -1.372623265829851,8.035484208951688 m-13.002350061740051,2.1847599998543 l8.908747946553259,-1.7034902277766488 m-8.862615131933982,-8.348181000720153 l0.3608863952655914,0.9823078979451806 0.14838822182620287,1.1246550098574664 l0.25571917026328567,20.826306072903275 0.42372504498565067,1.68371314243633 l0.5806839226858408,0.506358595070168 1.2880486756666154,0.09049427482048317 l4.586921991463401,-0.30778533424031457 2.3492088075907467,-0.5382764628650364 l0.9005062311392756,-0.6346414617185275 0.684755878178034,-0.9426550867313241 l0.39234985991945154,-1.6904136556724474 0.12468775160896563,-2.1972128639797828 m5.333375102436589,-46.76703545792096 l1.0973135354239654,1.365799655255749 1.2415824125930675,2.061154127277546 l0.920403628253885,1.8468083217936038 0.2547814412022049,1.0670919655745845 m-6.803603301109225,4.743214509657957 l1.6315630574695021,0.8318160982921747 1.6770084115234645,-1.1583397675419485 l5.265678654180276,-3.5205250842462275 0.8078834592958748,-0.28738066501963966 l0.9058864428821924,0.171313366438029 0.5366451663328887,0.9857888703132681 l-0.20279477728747047,0.8301502981804201 -2.2231147647413168,6.927315262684802 l-2.9794836312574806,6.93309439161686 -3.2814123618345548,5.7390760945959185 l-3.8978250566029935,5.083003147502255 m2.8884707189796615,-18.97486239775092 l1.2417007794272907,0.5275080543170636 1.9828878625694715,1.5890132818777958 l9.123483636330366,10.42541142990512 3.2724510299938383,3.216481199287197 l2.1716049659145575,1.2880949218027338 m-16.614034074080436,4.1928331737403495 l0.07469905752967933,1.6333128753081578 -0.6081476964612875,4.329647701252503 l-0.9470213655328926,6.021606843949546 -0.9745517694502326,4.5439849005007735 l-1.9069092746838872,5.628367702006572 -1.2836021580540702,2.3652184078199787 m9.855493776101435,-26.554064791640005 l0.41190356611578977,1.2988985443629908 0.11877489873395329,1.3664868111829458 l-0.03465043018179504,23.111542431333152 m5.3727991214074695,-26.05486992950246 l0.33365978479759595,1.1111831877821703 0.11877682195172289,1.3099562659012247 l-0.0462447565837735,21.92979755658447 0.11461613756976308,3.1170842433407997 l0.24080092405370257,1.267464117951015 0.4079575283875343,1.0034112196235914 l1.0714451117142365,0.7285222728003521 1.7418871594631147,0.2307384233626403 l2.5734449769540566,-0.24509261529923504 1.213862827708782,-0.5555493812902887 l0.5951277700202008,-0.8242961375482516 0.35534707469006116,-1.2173101857788358 l0.17227589328107584,-3.8461304171363 " fill="none" stroke="black" stroke-width="1" /></svg>