<?xml version="1.0" encoding="utf-8" ?>
<svg baseProfile="full" height="90.05415619366644" version="1.1" width="98.73475532107854" xmlns="http://www.w3.org/2000/svg" xmlns:ev="http://www.w3.org/2001/xml-events" xmlns:xlink="http://www.w3.org/1999/xlink"><defs /><rect fill="white" height="90.05415619366644" width="98.73475532107854" x="0" y="0" /><path d="M25,25 m0.0,0.0 m23.478378806945532,4.0427839913917945 l0.32028726934281143,0.38798581447394775 0.46302706712889874,1.600281486651074 l-0.03182974391526336,10.69342252193906 m0.9366091983835911,-6.715669355941337 l6.952966358543563,-1.2993796160711473 2.514444461657664,-0.04169634931039769 m-20.69604226976601,0.24055930501030456 l0.6770627484034666,0.7472872607775546 0.326827065187842,1.0272678746153476 l0.24004798467632793,8.129402748767033 m-6.532117290697066,0.5676519708161728 l1.2410623127639877,0.32684376643292745 1.9307297414097087,-0.08780768739682578 l23.82264010912455,-2.5902753071746702 1.9041945640174374,-0.09879921150671475 l2.3733795081119458,0.3300683505176645 m-23.17852987130035,2.920042469122689 l0.3919222032331769,0.9550027098056616 0.09135807952059379,0.9666688493989168 l-0.021743642853173255,16.721714632472448 0.05437758075774486,0.7956441033031528 l0.5477483779777146,0.3988245228984778 0.507060070370464,-0.20164844849285582 l6.890982970789057,-0.4524347368178652 6.540113520126945,-4.047917401743122 m7.299828046807549,-11.526931860948997 l-0.07319262108134518,0.9902376202018001 -0.6975359478734731,1.5433438161708595 l-2.8414777898361088,3.316017104112089 m-8.21938523341691,-3.9916562203823727 l1.6161379934607951,0.5845607060917096 2.2006172736311203,1.4983724639636498 l11.207979397404829,8.934438005520892 3.846812556260254,2.370504763645317 l2.6500144657806723,1.0194455313522057 " fill="none" stroke="black" stroke-width="1" /></svg>