<?xml version="1.0" encoding="utf-8" ?>
<svg baseProfile="full" height="101.03854855426489" version="1.1" width="98.6223067192617" xmlns="http://www.w3.org/2000/svg" xmlns:ev="http://www.w3.org/2001/xml-events" xmlns:xlink="http://www.w3.org/1999/xlink"><defs /><rect fill="white" height="101.03854855426489" width="98.6223067192617" x="0" y="0" /><path d="M25,25 m0.0,0.0 m3.955147971675738,4.796103274019264 l0.5235939953895068,0.1927387592247028 1.5068567149403447,0.1959246644665072 l2.3869694677837825,-0.2769179346753194 5.756512182381146,-0.9986176299656732 l0.8480937771474693,0.0785473388273946 1.1919517133473816,0.8341096470951922 l0.1629095592736221,0.6091845527946025 -0.2167964127603506,0.6722133998510933 l-3.6539579947607925,6.5997101310579325 -2.9995138584162806,4.997201827723586 m0.23191148588720803,0.40448516636466203 l2.070367020463372,1.917255332562127 1.9903729349500316,3.3489655516022614 l1.0074792963119568,2.8303308966126117 0.6531249371965664,3.8455506423947607 l0.04860808212511683,2.503735222441488 -0.1879659387878395,1.4916422847053423 l-0.37958568117644337,1.2534201359189348 -0.5542416006025362,0.97065563709853 l-0.7351295880877715,0.6453896712322149 -0.9115155279362428,0.25435931241894966 l-1.7096159359999759,-0.5729220984850577 m-7.0687425815225495,-30.75135595413999 l0.4003465804098365,0.9377461507468129 0.17256164256755172,2.3398957893605483 l-0.15210169841552756,41.919196783011415 m28.40418179049959,-48.71478567550928 l0.5523538246434968,1.2352198217953259 0.14078881789366504,1.3758101673549354 l-0.15470300893041805,13.326829207596015 m-7.886296808340916,-11.899373148572542 l-0.041223105801027844,0.9526192935221373 -0.3618907007411735,0.8752811482349955 l-2.242274866753504,3.1240628083490316 -2.6708736752890894,2.635437402311155 l-3.459565159625531,2.4376963013985447 m22.55338465414367,-9.764190388270336 l2.290604390459666,1.4836798185701616 2.8897790904617886,2.520387212212619 l2.3450095767084513,2.6855136965581394 1.0826615493966134,1.9023693304171008 m-25.24002959927471,4.434412995172645 l0.8581764897858131,3.4254601095140056 1.078751566836027,8.338290850723137 m-1.2410502032065736,-11.400872851505428 l18.896930632044246,-1.842786242244509 0.8164987724002645,-0.009094685043832292 l1.0614965861482588,0.35494906671313986 0.31141949921770706,0.6455734325661623 l-1.6520869986718747,11.155733817486839 m-18.510610329439036,-4.982733452077848 l19.03497362269737,-1.4711063386234386 m-18.513397038962037,7.014357843957404 l17.925313952626087,-1.3940103949293083 m-9.807763449332917,2.232847532406581 l0.49651405182688746,1.243195603443532 0.04071690479244211,1.4151506260276232 l-0.2769167321421383,13.703245698975445 -0.42478584305983147,0.500643558086829 l-0.6017661754413746,-0.026426984013358752 -1.4159997341582875,-1.0469798967280324 l-1.263520901761786,-1.4289485169542555 m-3.5416672268899108,-9.653728701954456 l-0.04564322663794606,0.9113730314819146 -0.3813957625267857,0.8515672720562334 l-2.3428027315996705,3.102410299092323 -2.7057981410293377,2.50871472945612 l-3.4552195934400887,2.3076460177916736 m23.40837492641046,-9.302648487469938 l2.553084101169979,1.8827088162755552 2.656898618372677,2.668848301714488 l2.1524265718014224,2.7783368727206086 0.971607198596785,1.932718632852232 " fill="none" stroke="black" stroke-width="1" /></svg>