<?xml version="1.0" encoding="utf-8" ?>
<svg baseProfile="full" height="108.35566380061209" version="1.1" width="109.49251427548006" xmlns="http://www.w3.org/2000/svg" xmlns:ev="http://www.w3.org/2001/xml-events" xmlns:xlink="http://www.w3.org/1999/xlink"><defs /><rect fill="white" height="108.35566380061209" width="109.49251427548006" x="0" y="0" /><path d="M25.000000298023224,25 m0.0,0.0 m2.7765414118766785,17.925161123275757 l0.5900019407272339,0.20112933591008186 1.9147104024887085,0.2753455564379692 l1.908949464559555,-0.1015919167548418 15.248551368713379,-2.7295640110969543 l2.718549966812134,-0.15770945698022842 m-10.020204782485962,-10.42686939239502 l-0.08323907852172852,2.831738293170929 -1.5329545736312866,9.515942335128784 l-1.6825731098651886,7.755086421966553 -1.6930785775184631,6.106740236282349 l-2.0655150711536407,6.037607192993164 -2.4969179928302765,5.982030034065247 l-2.986270785331726,5.942718982696533 -2.5965508818626404,4.436706602573395 m18.522197008132935,-24.660117626190186 l-0.13191170059144497,2.01264888048172 -2.91002094745636,8.150566816329956 l-2.2481751441955566,5.019592046737671 -3.3409157395362854,6.050824522972107 l0.38531433790922165,0.5022303014993668 1.1176487803459167,-0.17944056540727615 l11.222237348556519,-4.428064823150635 m-1.588701456785202,-5.170057415962219 l1.1676345765590668,1.8387998640537262 1.5390545129776,3.3007577061653137 l1.2626923620700836,3.551533818244934 0.548657737672329,2.399996370077133 m10.974510908126831,-49.23347473144531 l0.018130445387214422,1.2820087373256683 -0.4691040888428688,1.7439115047454834 l-3.364298939704895,6.983441114425659 -4.09273624420166,6.603209972381592 l-4.840998351573944,6.589992642402649 m7.938084602355957,-7.309110760688782 l0.519682951271534,0.9831106662750244 0.10659049265086651,1.152215227484703 l-0.06413433235138655,37.57661819458008 m15.399017333984375,-53.70136260986328 l-0.16662642359733582,2.01264888048172 -0.910588875412941,2.470145970582962 l-3.642185926437378,7.912329435348511 m-9.873806834220886,2.117365002632141 l24.61707830429077,-3.005205988883972 m-13.468717336654663,3.4702011942863464 l0.5108718946576118,1.1373041570186615 0.09978098794817924,1.2362591177225113 l-0.07634484209120274,31.141326427459717 m-11.527574062347412,-22.94670581817627 l22.52868890762329,-2.408468574285507 m-22.599685192108154,13.143386840820312 l22.916882038116455,-2.15146541595459 m-22.92501449584961,15.952080488204956 l26.33929967880249,-2.3944896459579468 " fill="none" stroke="black" stroke-width="1" /></svg>