<?xml version="1.0" encoding="utf-8" ?>
<svg baseProfile="full" height="104.33783229433078" version="1.1" width="109.10080722063552" xmlns="http://www.w3.org/2000/svg" xmlns:ev="http://www.w3.org/2001/xml-events" xmlns:xlink="http://www.w3.org/1999/xlink"><defs /><rect fill="white" height="104.33783229433078" width="109.10080722063552" x="0" y="0" /><path d="M25,25 m0.0,0.0 m11.942528908193577,10.778007059537492 l0.4425322064818061,0.17191146775330254 2.2882394005531324,0.0628350802021448 l12.063405373440657,-1.951982059715324 2.1717805026004955,0.11561431682592474 m-17.30859595457766,10.358633146437734 l1.0185673421739312,0.2961802930906034 1.5007696956725736,-0.037935067256472166 l13.784161192544275,-2.6098998150167128 2.1251591419214386,-0.06272443499302513 m-21.34501989729386,11.526696935229586 l1.4275495246670313,0.4394019001491625 1.5000221481845049,-0.06525959145369872 l18.05314570214019,-3.4714766759945617 1.8522021981274346,0.09068436504454688 m-11.001276232473826,-24.643515199060268 l0.6466165266286692,0.9808590757757293 0.32977776582512786,1.1758655077066917 l0.0038630628801941146,48.089786525585616 -0.24997652907180876,2.0881313104541372 l-0.4672975287003249,0.9189052373483643 -0.6112972452310426,0.08711291667981846 l-0.6859472737965856,-0.4611181201279807 -1.9714462247684723,-2.2824068951713294 m3.489474089633867,-23.174571461771677 l-2.5223156221942116,5.519986656425903 -3.590824538487675,5.921767542184183 l-3.6015191743770307,4.664402796509616 -3.568004551472089,3.3581891301202673 m16.037821665494654,-17.071479371969776 l2.7811439454484455,3.5347400769848063 2.5142962436113216,4.100921911833357 m20.300142315960237,-35.92888188469679 l0.021375335708905725,0.5561764248560866 -0.4619325361802324,0.7886897643389593 l-4.118245852932102,3.378899947687571 -4.811353569819661,2.902382987966595 l-5.376586123741887,2.388673440627145 m-0.30943683152216495,11.107022559117667 l1.7646743350556207,0.23118589060099998 15.918876954321377,-4.016138708314074 l2.0515413715607376,-0.2858385659794222 1.333627927507978,0.3068118813913766 m-22.652257776121616,14.788339860346943 l1.0911140249325628,0.45726404879689264 1.604168220358563,0.08357350451820793 l17.511771095999322,-5.6450096389420645 3.142747373590789,-0.5585284574009654 l2.559805070984847,0.1935410152804049 m-16.44147137379491,-18.129795745511277 l0.5107211966456884,1.4771624544384878 0.132027079121609,1.785018563906068 l-0.34581198658358747,30.57370253912032 0.3593193395876824,3.364103732987314 l0.5746972715216605,1.7189929738929843 1.4388554999970655,1.3380134559677626 l2.0516075042180626,0.5438624173662577 6.589708472952945,0.1518725856179116 l3.279415105384881,-0.4229485700347228 1.3094688122193692,-0.6996493303957182 l0.7433925537263645,-1.1851231642030222 0.25090316114080474,-1.7726600969719044 l0.028407385055877223,-3.041059600757037 " fill="none" stroke="black" stroke-width="1" /></svg>