<?xml version="1.0" encoding="utf-8" ?>
<svg baseProfile="full" height="106.53470736035663" version="1.1" width="113.91024729374374" xmlns="http://www.w3.org/2000/svg" xmlns:ev="http://www.w3.org/2001/xml-events" xmlns:xlink="http://www.w3.org/1999/xlink"><defs /><rect fill="white" height="106.53470736035663" width="113.91024729374374" x="0" y="0" /><path d="M25,25 m0.0,0.0 m21.250925359541693,15.244236471046257 l0.3501855579394674,0.1819074905522334 1.4483665184404373,0.21393856554518323 l12.92468756744243,-2.3983091771109146 1.7786405589247936,-0.21960480910825256 m-16.934631296368085,-6.48142174750584 l1.090285433995651,0.9234347116443848 0.33537038347518505,0.7960188977781241 l0.7670556098690814,14.219784950235113 m7.990120688268254,-17.878816280703873 l0.49647567191840397,1.06565380851722 0.1304922088544907,1.17817127261525 l-1.2321655337149056,14.192415102953923 m-15.910598575516742,2.101185747722302 l1.9967735623394207,0.25385714978112817 18.2299099348149,-2.7315058995346497 l2.4991628032870667,0.2342686382363776 m-17.684212529873562,7.243400510525584 l0.47835875653340576,1.69517699481043 0.03296021485128599,23.23480603082044 m0.2665252795386079,-24.759929758995263 l11.440455953234826,-1.7931036484339207 0.6051102059617415,0.0797229628426505 l0.42483911763857357,0.8519228858080239 -0.2119591439202322,23.178778409263867 l-0.2470182129740966,1.2297628527446958 -0.42044099207847635,-0.03563739291473106 l-1.4886724045098716,-2.231135284028566 m-4.098570878596761,-23.989299753232817 l0.4678040866873842,1.3923416579937045 0.0034278057912688303,13.687299293746525 m-5.949206222977197,-5.202663979182114 l8.9716353296235,-1.622751928970651 m-12.199329794972611,8.36013961526111 l1.01419412198972,0.30547546128825753 1.4652336529128698,-0.14890180513550172 l12.10568449060463,-5.020612428271429 m21.916217141507907,-33.95722284177919 l-0.19666208232529295,1.8871709714526137 -1.493955131932078,2.7810764751905346 l-2.3135310416699806,2.9733516771004243 -2.656473741578972,2.532330807356993 m-0.46228340156074865,5.697354962608596 l0.38305567958239956,1.2629310217360197 0.0685989200345135,3.137067934665531 l-0.33192376351278097,6.968713485974485 -0.683157002973197,6.205592868016152 l-0.8276853594678031,4.522597901673802 -1.0681936595738497,3.930260445177333 l-1.1507339131144612,2.8517062825872594 -1.7362499610463484,2.9641516978196103 m6.104095619542833,-27.020762666791658 l1.5938113816785777,0.12395344683132382 10.136753091843994,-2.22742437654999 l4.44068922933247,-0.3260760407432593 m-7.887273451905111,2.866787822653468 l0.4935419784176662,0.945406157216799 0.2535024128460679,1.7201291780387775 l-0.07537533090679696,29.34560456151674 " fill="none" stroke="black" stroke-width="1" /></svg>