<?xml version="1.0" encoding="utf-8" ?>
<svg baseProfile="full" height="122.71147241469556" version="1.1" width="98.30598016100453" xmlns="http://www.w3.org/2000/svg" xmlns:ev="http://www.w3.org/2001/xml-events" xmlns:xlink="http://www.w3.org/1999/xlink"><defs /><rect fill="white" height="122.71147241469556" width="98.30598016100453" x="0" y="0" /><path d="M25,25 m0.0,0.0 m15.729233886508265,3.7766807702693117 l0.513136692000474,0.04426381436302434 2.889280037918971,0.07323346057934887 l18.16466576477894,-1.9197945879540448 3.692911949214621,0.0868229486994994 m-32.46634322840885,9.38277940978088 l-0.5340917750773451,4.14268029670191 -1.4332253604390657,6.57262552920783 m2.2584725974574225,-9.336799220259119 l24.074229928894233,-2.7426758546925565 8.309507022879536,-0.8077749797113396 l5.549561802782836,-0.25949544116439666 1.5071163265045624,0.6600797490182498 l0.05152451598990816,0.5994828519452102 -0.9144115667183402,1.5275910520348472 l-2.2538126619843557,2.2736856886351826 m-19.08231590854199,-10.133606700655502 l0.7344448153800345,1.4845205890242086 0.11848219879026685,1.148860109567486 l0.04140356971325166,18.122468859745734 m-11.973749094584063,-9.05553013905422 l2.3959028257642014,1.0661393370670995 2.315701387945984,1.641028796776733 m-6.054007904879843,3.1948184691427532 l2.34657201793259,1.1056357721954353 2.537667422107262,1.733490788371978 m15.837747135083022,-10.453467879787263 l2.8517399347519494,1.3843027544823912 2.436902181098739,1.5896584227850723 m-5.825076733574402,3.939440053609188 l2.4205751263359527,1.0094794367737052 2.893421620789825,1.8768708189463357 m-25.985510681767245,7.215970403834462 l3.076819700470065,0.32646868670500445 16.864636215550533,-1.9228520023113143 l2.613153805013358,-0.15266974653490603 2.893573294070729,0.2504194840610006 m-33.18650623974859,9.543210661630717 l4.838781176887295,0.1720257883181848 12.282616892874444,-1.444195634123922 l19.461926309115913,-1.372227012627233 5.081565722666477,0.028331196873410663 m-26.92604303165176,3.080559166767061 l-0.1508965286481461,1.6182949213317215 -0.5004511842477116,1.18582448729433 l-3.57304275689323,4.85646741802855 -0.01944278854179731,0.9430664856833934 l1.0818764435612833,0.3090217662034395 17.80923544298702,-3.095082748076412 l1.2884057684771777,0.5171760098404192 0.2656264998403407,0.58793914500886 l-0.01984770266031661,1.5259960973315796 -1.2972310197306893,14.122179355561162 l-1.2725775423731829,4.754291635911413 -1.3176901235616234,3.446631404088352 l-0.7772627765529602,1.4519095028377078 -0.74461442395123,0.8249722058078315 l-0.6794626399764188,0.21024875880577387 -1.156670678287504,-0.5384154892678102 l-1.1333822701881768,-1.659065409761779 " fill="none" stroke="black" stroke-width="1" /></svg>