<?xml version="1.0" encoding="utf-8" ?>
<svg baseProfile="full" height="100.16177531602649" version="1.1" width="105.18978178523903" xmlns="http://www.w3.org/2000/svg" xmlns:ev="http://www.w3.org/2001/xml-events" xmlns:xlink="http://www.w3.org/1999/xlink"><defs /><rect fill="white" height="100.16177531602649" width="105.18978178523903" x="0" y="0" /><path d="M25,25 m0.0,0.0 m13.58994008799861,9.802321318132975 l0.4095283650494573,0.19896000268786773 1.9105256156849793,0.14723248300049716 l10.835140093124679,-1.8706780125885574 1.910924895295048,0.13154524959226943 m-15.8162348114628,9.495138856786593 l1.057993844391214,0.24024228785997193 1.556402187156432,-0.03774181031520238 l12.142128131002577,-2.5486334767729715 1.8732854184387966,-0.10903641515702278 m-19.46899545292148,10.50864679306046 l1.2496632775715821,0.38201216350081424 1.354454977246421,-0.06842284904240496 l16.29201289528506,-3.360736032971098 1.6949112603364516,0.11239064598441345 m-9.680148770078956,-22.176436813990456 l0.5835074312765357,0.8765984839324068 0.28309261878891,1.1329220276468503 l-0.02882978095474913,45.45887701574214 -0.2894791908566646,1.3621733446517081 l-0.4773822150711371,0.4844000542852435 -0.581415621907796,-0.13307225065462 l-0.6479824899707926,-0.5214084096526522 -1.6427034354024705,-2.088382282242938 m3.253006969056198,-21.53172018702396 l-2.3281357803681724,5.469038845689805 -3.2381340177503257,5.861504863015861 l-3.1894575698877907,4.600881637533181 -3.122565186202697,3.342557722530729 m14.168847486282285,-16.783023720316994 l2.545112362695774,3.3536670579672405 2.340419568631802,3.926435012259315 m17.891496751462643,-33.24216719688229 l0.06412688012608347,0.47867661167725656 -0.3783334859433775,0.7545905038231548 l-3.6992041615833604,3.306198671065591 -4.320999915091228,2.7368191281789076 l-4.859664708201327,2.178989836777433 m-0.29150402557302174,10.16382142872546 l1.5431630760311537,0.23582850393396526 14.281027070894902,-3.940169136440834 l1.901543838139567,-0.24547214218185615 1.191046714487382,0.2900110641108089 m-20.31671896813042,13.975041535734611 l1.0052830950680498,0.4144716585563352 1.422770484019952,0.04652508008670856 l15.890588370713838,-5.431536996140747 2.7514570185182285,-0.5309974260943185 l2.421519989805395,0.15996984616453427 m-14.992141344450145,-16.80478736565164 l0.4680860823557433,1.3799464733860094 0.1278010912449809,1.7193692061438148 l-0.3351548452955627,28.16671879769759 0.30274375976152296,3.3806179315083495 l0.541875111834897,1.8301368768923523 1.2748512572005892,1.3708654497000219 l1.8537905347158514,0.5755932815415521 6.146159505870357,0.1635379352153803 l2.7426010210997096,-0.42119078290819084 1.177341290590841,-0.674257550069603 l0.6287767325149436,-1.1113241989506577 0.1893621335782921,-1.6449969022215671 l0.026658266995574605,-2.9192100946463717 " fill="none" stroke="black" stroke-width="1" /></svg>