<?xml version="1.0" encoding="utf-8" ?>
<svg baseProfile="full" height="94.88973891790576" version="1.1" width="100.22586926354185" xmlns="http://www.w3.org/2000/svg" xmlns:ev="http://www.w3.org/2001/xml-events" xmlns:xlink="http://www.w3.org/1999/xlink"><defs /><rect fill="white" height="94.88973891790576" width="100.22586926354185" x="0" y="0" /><path d="M25,25 m0.0,0.0 m14.41677359463025,1.3623339006372077 l0.04899908422424605,0.4271543251027486 -0.24710968679998688,2.0544864171515087 l-1.1497205759190965,4.4435928207183055 -1.3219354842673305,3.443063471336701 l-1.6565417945941632,3.2339291637377925 m3.4431734732205244,-6.349908997325106 l1.1719801667944856,0.04273717294528686 7.85998507523846,-1.464866778994388 l1.5177585546827912,0.10417135838025353 m-14.19242397046163,10.63131201634405 l1.6795750427690683,0.12571655792581232 11.831467889234647,-1.736598067437696 l2.027224708722429,-0.108865121769217 m-17.065323554880408,9.17831358059184 l0.9125451777278523,0.20382859097952094 1.9184166139237337,-0.025034655454229567 l13.694654988953824,-2.1905975757227947 2.0693651932130557,-0.05527889214464212 m-8.939691512709363,-17.717791599888223 l0.5211710222600107,2.0451066441055623 -0.048433620869239455,31.850979269970487 m-6.892300342200229,-8.895665465703892 l0.4147178177885855,1.3450863911007134 -0.09737813717899502,9.035739540041199 m-4.217165857635474,-10.958098844130665 l0.32127886360549146,1.3190612534558002 -0.005259127841182176,8.92294522482088 l0.237717827513527,0.7494523211142498 10.998040998418412,0.08206799473359953 l1.6383763561159563,0.17379835779382583 m1.1299601724016255,-22.311333411850793 l0.5794671469871766,0.5479996293221359 0.30168251900032567,0.8953953661436221 l-0.06495924858280797,14.693161019424503 m10.42270560241476,-32.6266405182923 l-0.031849562834501556,1.0849243416127101 -0.4601696126326857,1.6572781264084209 l-1.7674133038241475,7.543014306042902 -1.746893950069099,5.26044371191254 m2.5970619196114386,-5.72659868725987 l1.9915569473682437,0.185676064964362 9.027906698771304,-2.233154233291019 l1.5611354120876921,-0.10253339160905714 m-14.826976731532934,3.4557029948409665 l0.3760171638329621,0.9481418736172905 0.006073600368640113,0.9562560843513236 l-1.47610545021565,16.695534035055708 0.16120511492891484,5.15594886607473 l5.694044000693343,1.9388440685158437 5.9629690153008035,1.4724810458425224 l3.4934084514143096,0.7151311859453069 2.032216908687771,0.6854095893698064 m-12.866151716026094,-26.092668891221145 l10.735728807188499,-1.7831956560735678 1.0814849043869772,0.22397444940506944 l0.37159141690998415,0.7447502718570932 -0.03686708268218269,5.027498459118331 l-0.8584857933479867,9.40116198177946 -1.1756182864408524,7.341226609242808 l-1.2359341403544595,5.269916036633959 -0.9737183408061534,2.1940261765324074 l-0.5031544949464608,0.39979703907319847 -0.5202236296837273,-0.0010768767117577368 l-1.4087301246959096,-1.5178781013799347 -0.6341253165047429,-1.2540029741981478 m-1.4120268727955325,-24.08853181293738 l2.0659228132272234,1.6066816780031294 1.171756824655538,1.5107418988074819 l0.3834714963437419,0.9530623844326476 m-3.8058327269567616,6.590591036436339 l1.2139275435113202,1.2715165946969105 1.1898522070378355,1.747881434051524 l0.9565051260662613,1.8681150180688089 0.4831043568782182,1.5315717353258445 m-14.526178124921918,-8.968604416965887 l1.481914740130778,0.2381608392294188 18.686634513128773,-1.6710734928480115 l3.2450398764627164,-0.17185981673932557 1.262999689919024,0.222695791195411 " fill="none" stroke="black" stroke-width="1" /></svg>