<?xml version="1.0" encoding="utf-8" ?>
<svg baseProfile="full" height="125.16690512482245" version="1.1" width="106.19730013323797" xmlns="http://www.w3.org/2000/svg" xmlns:ev="http://www.w3.org/2001/xml-events" xmlns:xlink="http://www.w3.org/1999/xlink"><defs /><rect fill="white" height="125.16690512482245" width="106.19730013323797" x="0" y="0" /><path d="M25,25 m0.0,0.0 m15.980704609458138,14.485701502007785 l0.2990537214323636,0.2537185309141711 0.5698226792991143,0.9818820087504033 l0.11194429395228774,0.9700937337895944 -1.9886575170568939,12.096071582692623 m-10.745117197763605,0.7481895420836804 l2.1434688504833233,0.36145725889839553 2.611136505044164,-0.17458639125609923 l15.129018798174428,-2.1607029478940545 1.6088140234648445,-0.016208014765386684 l1.1191861001157157,0.1694948605149887 0.9138531809060941,0.8524061536570452 l-0.13818608914386252,0.6683368013736443 -0.44412151940595973,0.7576845962134134 l-3.22037363523194,3.7327111211824806 -6.344928305098365,6.005828494599565 m-1.2412544268774037,0.4375769733333624 l1.6524789290599664,3.5216574154541345 1.3944268009568253,3.80872329498132 l0.8481090281451403,4.113171027944708 0.2357829228895282,3.9762825009194818 l-0.3213634169656297,3.4001608886250825 -0.7946013607575437,4.88458200314754 l-0.8856675424341743,2.966990806858534 -0.704513308987429,1.5916327289199776 l-0.7084922025318819,1.0646902027222864 -0.7224720524410395,0.6253945641921478 l-0.7448553311767045,0.21508765763307666 -1.4356187051543061,-0.2057338634990256 l-1.3963573459887302,-0.9642908264332579 -1.5745901555064017,-1.8899249422692759 m-6.7650541239250455,-11.081677969305442 l1.1136655095678496,0.24563891715564293 1.964053406089586,-0.40723288114670053 l18.655835675142587,-10.308385051912706 m6.710238248087424,-25.4709741033395 l2.1516824767732055,0.9017755888567998 0.6039462813636084,1.5208503218107476 l0.04971900046676201,9.171242246287768 -0.6870236057662356,8.446240495780035 l-1.037061865362338,7.635087350702406 -1.467873572891733,6.478955378790504 l-1.9391148183734346,5.94814096148369 -2.2595328258437886,5.313435797707726 l-3.1809501354849057,5.042462006992435 -3.978435732169753,4.453266799666693 m9.232308681302877,-33.50861177778299 l3.1413664062305156,4.126059238182931 3.8000765358606006,5.057774072771092 l4.019900723606477,6.0386662291915725 5.322581441363151,5.7088833941877475 l4.653020958287117,4.701731323104818 2.6196113501881992,1.9469031177406195 l2.267709787865198,1.193176924440273 " fill="none" stroke="black" stroke-width="1" /></svg>