<?xml version="1.0" encoding="utf-8" ?>
<svg baseProfile="full" height="108.54772052688111" version="1.1" width="101.28351274534347" xmlns="http://www.w3.org/2000/svg" xmlns:ev="http://www.w3.org/2001/xml-events" xmlns:xlink="http://www.w3.org/1999/xlink"><defs /><rect fill="white" height="108.54772052688111" width="101.28351274534347" x="0" y="0" /><path d="M25,25 m0.0,0.0 m5.745858960148589,4.5406849572684305 l0.46284963119224976,0.16873200982211137 2.297327022822013,0.07403293224676433 l8.778273253003489,-2.507650205976001 0.6698214417059534,0.15276886655605032 l0.42612765435629657,0.5363847269667237 0.04475676090550482,0.7937788798969436 l-0.34894067484598046,0.9269507975828112 -6.075836375958126,9.981370193016433 m0.013842341312475982,0.3474719472252469 l2.0889740698570316,2.0805783649565432 1.4891380617793348,2.4589396769311005 l0.9760892334988409,2.7268786970856067 0.5194292050089278,3.3937511673363443 l-0.31955298589211656,3.383173724533286 -0.9078138055200361,2.4522863200041445 l-0.7644825800191719,0.9173712443108711 -0.9148080674313156,0.4824908831978997 l-1.0658797919929919,-0.0003637868500550513 -1.1310380963863231,-0.9607747193473267 m-6.111503408465314,-26.642969030551555 l0.4688950877571816,0.9778495951295513 0.10035905981823069,1.1945592559945495 l-0.020094903301882197,44.5418436365402 m26.847656268942277,-48.8409942167803 l-0.2972807573803974,2.7627528899408613 -2.367997617090071,5.753978858096353 l-3.067315000298644,5.968483154152831 -3.7037158075558576,5.959026842458888 m6.545983833840091,-7.43659329289995 l1.7775393880659303,0.10306366785127394 1.9728266798495302,-0.2812348065974565 l14.678005220796036,-2.8857689488004614 2.476019442821719,-0.01580475047079608 m-14.640437193322526,3.8533085272179437 l0.45276105938683364,0.9470461206724297 0.1540137244936975,1.767545642723507 l-0.06846358308058725,36.48723149861005 -0.21775211448051618,1.4765716397861939 l-0.4070190691978314,0.747353272272453 -0.5691734336058655,0.16161429477060885 l-1.388540056747792,-0.8638603710915436 -1.7430133046054659,-1.9171542490722315 m-4.392976601901763,-23.8602592843683 l-0.3078910875232027,2.276992492787473 -1.3764446210885588,4.806241932998046 l-1.7905627421290076,5.440701210250601 -2.063942698611819,4.643025153586811 m21.007387414654264,-17.424631527049797 l1.9873616184534466,3.2763338837458744 2.2608733969799,4.958917175363879 l1.7330758845291483,4.9862402102512124 0.8579503111064074,3.816953934863531 " fill="none" stroke="black" stroke-width="1" /></svg>