<?xml version="1.0" encoding="utf-8" ?>
<svg baseProfile="full" height="92.1734336567322" version="1.1" width="125.15671053585908" xmlns="http://www.w3.org/2000/svg" xmlns:ev="http://www.w3.org/2001/xml-events" xmlns:xlink="http://www.w3.org/1999/xlink"><defs /><rect fill="white" height="92.1734336567322" width="125.15671053585908" x="0" y="0" /><path d="M25,25 m0.0,0.0 m23.64077069751355,4.361304959788821 l0.008182826213879146,0.4791161666373287 -0.9004873988831145,1.0434377585791106 l-3.2735053926592417,2.5361385992260135 -8.866434105691017,5.37671242235668 m-1.8630981968600793,0.31566470257978346 l0.6346199978211834,0.7937512027694813 0.31619448605639255,1.0206983992582572 l0.017725313975087816,26.246609445536723 m0.9216734841328873,-24.37636511340844 l15.941809104070146,-1.9519041462670301 2.9342290426790907,-0.028556641164987077 l0.5601353437657643,0.31049149279585453 0.25634171256452576,0.9138189389802606 l-2.630145508102393,6.1474023514704355 m-16.83469706062928,1.9434571762118495 l18.544026021196167,-1.5284395033221867 m-18.46634005721902,9.038640634990989 l16.44749376285038,-1.7335065631356128 1.7630062507218849,0.27309288608029825 l0.6065482315555377,0.36584787714676503 0.2717198225332053,1.036427433518427 l-2.389056103074893,6.49806957907468 m-16.594523042028584,1.9877121855690156 l18.175172875198353,-1.4364849312716557 m7.573609373937546,-32.0990298659013 l4.072875924376244,0.1659072753875842 24.621585431952074,-1.9789986166935416 l5.307017245497141,0.01807958621780596 m-31.738181449462914,11.586742202692575 l1.0764902926642745,1.3312601076199388 0.19060824581901453,11.145354242535408 m0.5371625233771108,-11.121743082835602 l26.939301223335427,-2.5608679253940627 1.8720818428008417,0.10114855855692596 l1.2196406373850461,0.3245584958258041 0.9431988582608312,0.8726101431466999 l0.0748408087892062,0.5826607052688985 -0.21004925902216703,8.825338554431692 m-30.98766003881212,-4.3941107918202755 l21.344380921590762,-1.124355093045788 10.676929084476125,-0.28938635965348825 m-30.849609896941484,7.426273402901005 l27.905521824655718,-1.5241121018067056 m-14.718157262781665,-22.225748730677974 l0.6637010154146179,0.7933507762978188 0.19474520252553146,1.1122580695101645 l-0.08147555128291381,23.10663082863478 0.5318582285735378,3.21029616920399 l1.4413794721009827,1.0504828210342485 2.9856962032339998,0.5439594686699042 l4.61593687521325,-0.3629132809902803 6.47735629465121,-0.5536105393556101 l1.6572383830857096,-0.5378367637407281 1.04917115410068,-1.00691389557102 l0.46639454270016933,-1.5112911973907739 0.0817602759448927,-1.9737291660961722 " fill="none" stroke="black" stroke-width="1" /></svg>