<?xml version="1.0" encoding="utf-8" ?>
<svg baseProfile="full" height="87.05429901265575" version="1.1" width="117.52826991557352" xmlns="http://www.w3.org/2000/svg" xmlns:ev="http://www.w3.org/2001/xml-events" xmlns:xlink="http://www.w3.org/1999/xlink"><defs /><rect fill="white" height="87.05429901265575" width="117.52826991557352" x="0" y="0" /><path d="M25,27.99575514921549 m0.0,0.0 m7.220194797244714,5.390275132054332 l0.49552007653515956,0.1455719373586381 1.778036114338936,0.0747774039150276 l15.591601635292193,-1.8561511553126855 2.0349583733409893,-0.09984320787055037 m-15.28551407543752,2.590617547855695 l0.5394843584894714,1.6398336303918903 -0.03823051825267531,20.212008980536968 m0.41070450409955356,-22.5886678540587 l11.970772669636727,-0.9668397078492604 0.7548439124873587,0.3038751939172856 m-9.131389670599614,7.36262488728842 l8.90602000788038,-1.2334164527993845 m-14.288112938715937,11.303751539707676 l1.547192442469773,0.19412604132307057 12.66445494451316,-5.077488072062733 m-0.5335399524683555,-20.390810993611183 l0.43070957011707633,0.8124985968098566 0.0204390553150234,0.5565201474235751 l0.06602599685395288,35.685280268422325 m4.839412254615992,-32.621220324315836 l1.2343886639600241,0.2457248392945273 1.3854230535477814,-0.08402954746687498 l11.038090301382265,-1.8407713847795417 1.0828252845789668,0.963305056615387 l-0.12545696263544,0.5857056604501109 -5.538564648870157,7.834653979675253 m-0.40168935509769615,0.10064808769576593 l2.611483466765343,1.8372633392670137 1.8442887009230127,2.059595454406937 l1.2087054371468497,2.1293326635525602 0.7313909674498928,2.81142839090272 l-0.0755934076877988,3.015568236866624 -0.6598500342709785,1.5561648905254915 l-0.7115307655898597,0.7396743780111077 -0.899395246004823,0.45865219869488305 l-1.0425255477465674,0.11775715426805751 -1.1694645762598839,-0.29045873959905305 m-6.292458190262294,-22.44366020953476 l-0.15142680405300155,32.10189398479086 m12.833642517559841,-27.19768567180122 l2.349730251463572,0.20137403353113204 11.091555492470611,-1.2813976648545666 l2.7441563995068274,-0.11513051468788667 1.0803574473947997,0.17491114905590305 m-19.08229125125903,8.78980656270111 l0.5767639843413281,1.3882399366509368 1.8265038169768815,10.391574905739667 m-1.6419799878193622,-11.046771017685199 l14.53001438022093,-1.3822494922194153 4.066258738326156,-0.17616283031112803 l0.8672961304837129,0.6531981237576351 0.12337611049204265,0.559584910365432 l-2.2787359074063334,8.527835708009588 m-15.667052812985872,1.1036405116132357 l16.79700314945847,-1.0992652937200464 m-10.686425275463144,-21.288289948215574 l0.6487821600556435,0.7338633329414462 0.33092851703085663,1.3656274270983784 l-0.11112164100368682,19.488846185577174 m-11.441524144283106,1.696934473440637 l1.1695902864689007,0.42731033710709526 1.3466894692454336,0.03961689703367935 l18.852620365333983,-3.9612129425208424 m-3.047367963791451,-3.52346534952031 l1.725141819018059,1.3582797180059927 2.06670561334348,2.2337178061859615 l1.6053058056040752,2.2066642818516917 0.790122549757903,1.7890643934748518 " fill="none" stroke="black" stroke-width="1" /></svg>