<?xml version="1.0" encoding="utf-8" ?>
<svg baseProfile="full" height="96.22619996922691" version="1.1" width="107.46165320224897" xmlns="http://www.w3.org/2000/svg" xmlns:ev="http://www.w3.org/2001/xml-events" xmlns:xlink="http://www.w3.org/1999/xlink"><defs /><rect fill="white" height="96.22619996922691" width="107.46165320224897" x="0" y="0" /><path d="M25,25 m0.0,0.0 m6.011374598372599,20.888256764882048 l0.4162662468147578,0.11741685317147742 2.3738885401940677,0.12296722460661415 l9.686579993683019,-1.950795640313389 2.0684889011675365,-0.08836765592377321 m-7.529756588432402,-13.806421917670574 l0.5551060095851118,0.9060300844447923 0.2813062461529863,1.6704379139080139 l-0.0026105391331404967,30.04921334261409 m-8.005946364046356,5.524728773264651 l0.9072497173619493,0.538325718034479 1.0578222045579917,-0.40156934634101193 l11.769661134541488,-9.830226009341294 m3.779624105057572,-20.82361950514106 l0.5638416439922515,0.16764149615724178 1.4789524391979805,-0.04717057136683578 m-3.630812977565505,-6.390203360045297 l0.45824940245318624,0.42550664769081076 0.24530217308895036,0.8879548712858123 l-0.015217884330636674,12.49861608807961 m-7.262695403596082,1.4615776741872246 l0.8032769121893283,0.2696369664636328 1.598936240055299,-0.06613707441338412 l11.754852882107182,-2.304172820710709 1.4740420610766587,0.20694873463982355 m-7.181124402161406,3.0707639144880594 l0.30065306078674414,1.3874593028749531 -0.10617376619031946,3.5288264802991973 l-0.6342593249855438,17.215809029495823 -0.7211257275491612,0.9967659899058997 l-0.6261016007561394,-0.19623182272428485 -1.7479283718754153,-1.727919385100596 m-1.8792481966961443,-14.79757144585271 l-0.14799284047341796,2.061169310040337 -1.2857660614619673,3.8137965679260577 l-1.7689761576898018,3.780999081641521 -2.0204718169113685,3.3375619418456557 m14.673486326292775,-13.750916955460099 l1.0757932230193972,1.6800259743591033 1.1691066369513397,2.459205754081633 l0.9234755944234763,2.4490266044323428 0.473856974170383,1.979567982612564 m2.6589424693834554,-25.162246672417798 l1.556887614321473,0.23361548600692847 1.3362471324330063,-0.10298559501977232 l6.81914945801074,-1.6444526466191371 0.5729140863946244,0.04063547397636308 l0.41104284662270246,0.31336823575880424 0.23810353245008595,0.5390792629937214 l-0.030097979469809178,1.3618524077410057 -1.527178971126345,5.5947069401817044 l-1.8051750760278558,5.002082197710481 -1.8841288146482131,4.282418217283728 l-2.094171935911649,6.882842263063893 -1.9375403564402844,5.6788589858729095 l-3.4478246289527914,3.643524495541496 -2.176271860802809,1.2657080385358301 m5.077323710315183,-29.364563426983974 l1.2442499579125583,0.9375395606147058 5.541000244641188,2.310712395764477 l13.058544457919462,14.35024937938627 2.5146520717850307,1.9466977676569879 " fill="none" stroke="black" stroke-width="1" /></svg>