<?xml version="1.0" encoding="utf-8" ?>
<svg baseProfile="full" height="109.39860614056782" version="1.1" width="107.51491586837125" xmlns="http://www.w3.org/2000/svg" xmlns:ev="http://www.w3.org/2001/xml-events" xmlns:xlink="http://www.w3.org/1999/xlink"><defs /><rect fill="white" height="109.39860614056782" width="107.51491586837125" x="0" y="0" /><path d="M25,25 m0.0,0.0 m26.450524106250985,3.6648750616769488 l0.4746246169299677,0.10818215246382958 2.7089621585995687,0.03977101607703201 l13.936907473814477,-1.5268437561215604 3.5825513087820973,0.0030065170340621596 m-27.573655566281126,7.68080297930708 l-0.5314671710510797,4.198927009614708 -1.4811959123162066,6.112877469803058 m2.4078859025833763,-8.808653344961172 l22.347835165457294,-2.565321691302256 9.254922034992035,-0.6830432578678377 l4.683401663802529,-0.05219624137242027 0.9366760352156058,0.3544865853330849 l0.31694405159171396,0.5681632762608055 -0.16792538876387328,0.7433329652769034 l-1.2847152660585488,1.6546113719035704 -1.8143905440488572,1.7476145857022787 m-18.02786677743298,-9.057044373570239 l0.5215397212214585,1.1589201320417815 0.17614513370545473,1.1536605229982346 l-0.1464639856518145,16.099063659878706 m-10.878289760860929,-8.612299298716737 l1.9582625378923624,0.849413635598153 2.476384877323642,1.7215106731127154 m-5.828498672435794,3.468296662466359 l2.412478011871752,1.2140807099539344 2.3788580148913905,1.7855544700567128 m13.81221115059008,-10.484392873958077 l4.683381137743605,2.264078308964864 m-4.830446720302824,4.243260684607819 l2.0259737150271184,1.133896155423525 2.254188198512307,1.8669514353705146 m-27.518493315767458,7.495602947678512 l1.9017643570827605,0.2951439009931112 1.907709363394128,-0.06594035516085305 l13.455889535448817,-1.7890843919391415 13.117920264704354,-1.0014519572366074 l2.6682969341333944,0.22396305406934736 m-17.24744176373035,2.9372106959280484 l0.3689281642097497,0.7843861086725953 0.1945270954836827,1.74596929134204 l0.0022328136237900124,26.727263643164395 m2.2761310725602337,-22.984669686837844 l3.8178950362337374,3.006611582185427 3.1773368299447124,2.859795946209021 l1.7879510535440146,2.0339653005748706 1.4332198499423991,2.1934576586022447 " fill="none" stroke="black" stroke-width="1" /></svg>