<?xml version="1.0" encoding="utf-8" ?>
<svg baseProfile="full" height="104.84915700669359" version="1.1" width="98.95539978046767" xmlns="http://www.w3.org/2000/svg" xmlns:ev="http://www.w3.org/2001/xml-events" xmlns:xlink="http://www.w3.org/1999/xlink"><defs /><rect fill="white" height="104.84915700669359" width="98.95539978046767" x="0" y="0" /><path d="M25,25 m0.0,0.0 m7.116855295709198,5.61488419860372 l0.4385731628615244,0.4102917177566096 0.6752754572236548,1.1577737245887667 l0.14014594350199444,1.1731553350364945 -0.09187244908796743,46.49305203070799 m0.8022105689458975,-47.261468246236085 l34.23086963496376,-2.311584381354427 4.790597823597614,0.06315478776596113 l0.8527443427519954,2.438164432266733 -0.08844791461756087,43.597603579276836 m-36.24294286626151,-32.871999113095626 l2.781432216954418,2.69303379306617 1.138904935090844,2.0127818082671585 l0.5553692493630688,1.5867341692792325 m4.140055765977601,-9.806786637422759 l1.3095826493226648,1.1110678822174491 1.7946834409114047,2.115097611481186 l1.4895087558801527,2.231108309640528 0.6155708788809625,1.4230072018739108 m10.339219706258318,-5.832883678228949 l0.21497773179708254,1.0195546355027303 -0.18264420288524022,1.2213733796511583 l-2.035731093325138,4.682327763065118 -2.851578195244613,5.254247643746785 l-3.4867504757339387,4.989680698551601 -3.332553902408558,3.748356809881158 l-3.8115198630751825,3.4667433920192616 -4.253211238457479,3.0888418638969677 l-4.7947732116083746,2.6798409237539547 m4.202319862852619,-15.567791614924236 l4.9913218293317545,2.2299572685873317 5.750198920167107,3.5135127532151627 l4.744568254338062,3.53059238386507 3.767727066267617,3.7149066438084968 m-30.18655580268334,9.759439118950903 l40.62842745786144,-1.6963371129906941 " fill="none" stroke="black" stroke-width="1" /></svg>