<?xml version="1.0" encoding="utf-8" ?>
<svg baseProfile="full" height="104.8517934057618" version="1.1" width="103.41822598141042" xmlns="http://www.w3.org/2000/svg" xmlns:ev="http://www.w3.org/2001/xml-events" xmlns:xlink="http://www.w3.org/1999/xlink"><defs /><rect fill="white" height="104.8517934057618" width="103.41822598141042" x="0" y="0" /><path d="M25,25 m0.0,0.0 m7.155971003832538,4.030704912705484 l0.5177142938444498,0.2483414411619907 3.8271615235031056,2.3212008874330454 l1.6602082000055478,1.4196583449678017 0.8969877947693325,1.1268564822785132 m-10.707853810331391,10.254029865597904 l4.310757825273758,2.3714406941406976 1.848356471978926,1.658115334753482 l0.7876462602464341,1.10199608847527 m-6.3090589745382815,26.251004825166635 l1.2288751682286019,0.07809093705590724 1.020970791267651,-0.9112110875608759 l2.801421470702355,-5.144102653637842 3.0216600823695448,-6.606007732235489 m8.888880478817798,-34.40412449262745 l2.435379839903974,0.34873801103846636 2.5946509445553043,-0.08484686174660945 l22.5724978940867,-3.0216136226605284 2.6608231658883734,-0.10178632605191289 l2.2051755570056852,0.27938021816321607 m-30.925362972314225,17.94171866640592 l0.7062401646489594,0.9369844598174333 0.30582547722061176,1.8428787996861145 l1.5451523362646882,12.93983640726165 m-1.1173548776697522,-14.64225626709164 l10.98371271717774,-2.5065628281970334 0.6965403309760049,-0.030845787521474138 l1.1128076613616404,0.46528000942913567 0.5194946838512571,1.171189274429026 l-0.03703125738496531,0.8318521686683439 -1.5463589555535011,9.588251873918093 m-9.222363249071575,2.1701024939803575 l10.967574197411073,-1.915344187225805 m8.834518033479787,-26.0523465108193 l0.7531485842740576,1.5164127745449163 0.23580071120639984,1.7461411672914924 l-0.11413775445640245,45.616243886692565 -0.3622576828736619,1.2708129342971919 l-0.5503899872585652,0.6274521696912455 -2.2110939160829712,0.11812663408586722 l-1.5895368389650084,-1.2144247368223882 -2.252697928516106,-2.33342834224336 " fill="none" stroke="black" stroke-width="1" /></svg>