<?xml version="1.0" encoding="utf-8" ?>
<svg baseProfile="full" height="100.27558810307406" version="1.1" width="96.22898280598551" xmlns="http://www.w3.org/2000/svg" xmlns:ev="http://www.w3.org/2001/xml-events" xmlns:xlink="http://www.w3.org/1999/xlink"><defs /><rect fill="white" height="100.27558810307406" width="96.22898280598551" x="0" y="0" /><path d="M25,34.49795796305105 m0.0,0.0 m6.894179543136139,4.925209668272838 l0.43716126170686326,0.15051226836539355 1.5891843095346783,0.07461993084202453 l12.787686197570386,-2.2986144267487227 1.3685394998070437,0.19674543962641805 l0.7531980149584905,0.8910945443861399 0.0513277025217573,0.6669914971617482 l-0.34436484448666316,0.8249794217649494 -7.050928782403019,11.059122472003699 m-0.01883404767949593,-0.0469752830716128 l2.559916051101644,2.292871455432369 1.8902517313420226,2.7032140073013733 l1.5564878064383907,4.102224386596771 0.48351664067580197,3.8115332497309145 l-0.4503451563038739,3.065035703863453 -1.1910346863704613,1.4567137404091293 l-1.050910068263583,0.36721907518852526 -1.3033173103153084,-0.06808893451411699 l-1.4727761252263516,-1.0915559131468884 m-7.988162964567691,-28.417138058835842 l0.4925623912061964,0.9145823113867135 0.1696877122950823,5.32496560160082 m-5.211792175183041,1.1759990714618425 l0.49670452999055403,0.8012863284973257 0.20781357246369378,0.9821177547030818 l-0.06356299681316964,25.64042687199202 m17.72385606049978,-40.199400610828754 l2.895770968505982,-2.065045169194051 8.990894694152304,-1.6127083612482125 m-13.390887563264151,-5.125896006050394 l0.49414083348061394,0.7543736270875012 0.18127385571910268,1.1857321411604909 l-0.16090867739360737,13.582845112453409 0.20112429552530744,1.0706692359392511 l0.4640215963586681,0.5792126335455029 0.8255824057211556,0.3153939164987067 l9.068603205848195,0.09307245050728628 2.3090135063183497,-0.22684787270231782 l1.8068750364898507,-0.4354485583705649 1.236698632713545,-1.543780835465181 l0.2878106177363025,-1.6628548646352255 m-15.771586455121565,9.497666914839765 l0.5742137817699129,1.9408385952452825 -0.016935535971853263,19.718301604673915 m0.31598460568474374,-20.599529569552168 l12.376802253046217,-1.573141169363506 0.6102219937333295,0.07856838978563757 l0.4108770041874555,0.35136050822355025 0.2806147387643668,0.9292846757087938 l-0.28330923859357204,20.72013221375685 m-13.131754092678484,-11.781914525574697 l8.377085452210764,-0.8715481172801754 m-8.41203860328335,11.040635134633732 l12.949235694866926,-1.1722118016823448 m-22.505068347706505,7.993826151066209 l1.512014266022076,0.29095211257433773 2.1489737260297974,-0.0010839952161599937 l26.204290694557503,-1.7241081776779559 2.063303592920248,0.30007565395261415 " fill="none" stroke="black" stroke-width="1" /></svg>