<?xml version="1.0" encoding="utf-8" ?>
<svg baseProfile="full" height="108.91968960408121" version="1.1" width="109.49251314392313" xmlns="http://www.w3.org/2000/svg" xmlns:ev="http://www.w3.org/2001/xml-events" xmlns:xlink="http://www.w3.org/1999/xlink"><defs /><rect fill="white" height="108.91968960408121" width="109.49251314392313" x="0" y="0" /><path d="M25.000000043728726,25 m0.0,0.0 m-4.3728727305847315e-08,2.9781970381736755 l0.7513841986656189,0.28713880106806755 3.0767562985420227,-0.1481854822486639 l9.77929949760437,-2.879772186279297 0.9661731123924255,0.18492568284273148 l0.6194962933659554,0.5392331257462502 0.2196875587105751,0.829763263463974 l-0.23287635296583176,1.0558568686246872 -5.857800841331482,13.697876930236816 m0.0,0.38586631417274475 l2.3773735761642456,2.447085678577423 1.7412970960140228,3.036436438560486 l1.1229312419891357,3.337140679359436 0.5661994591355324,4.419375360012054 l-0.459652878344059,3.7606891989707947 -0.9927390515804291,1.977187991142273 l-1.5287691354751587,0.9348025918006897 -2.0469002425670624,-0.3956165909767151 m-8.5975843667984,-32.62982130050659 l0.7736167311668396,1.3196326792240143 0.16012605279684067,1.573987901210785 l0.02315250923857093,52.09364891052246 m17.279576063156128,-54.02128219604492 l3.2286158204078674,0.3117971308529377 2.904171645641327,-0.1401588600128889 l27.38746404647827,-4.093188047409058 3.4392595291137695,-0.0787853542715311 l2.7922552824020386,0.40433064103126526 m-36.75376653671265,16.73695206642151 l0.9390418231487274,1.1632512509822845 0.4554842785000801,1.8973016738891602 l2.070074826478958,13.524538278579712 m-1.6278734803199768,-15.253777503967285 l12.255023717880249,-2.477184385061264 2.205919325351715,-0.06632077042013407 l0.7777617871761322,0.27074702084064484 0.5079568549990654,0.5460158735513687 l0.199339147657156,0.8757356554269791 -0.14865650795400143,1.2600946426391602 l-2.654809355735779,11.312967538833618 m-10.96704363822937,2.1991366147994995 l13.13528060913086,-1.7902840673923492 m11.184093952178955,-27.87883996963501 l0.9211427718400955,1.6440768539905548 0.2441103756427765,2.0374795794487 l-0.20761746913194656,50.1362419128418 -0.5369721725583076,1.2412534654140472 l-0.7792691141366959,0.3521406650543213 -1.909736692905426,-1.0260877758264542 l-2.3295170068740845,-2.352503389120102 " fill="none" stroke="black" stroke-width="1" /></svg>