<?xml version="1.0" encoding="utf-8" ?>
<svg baseProfile="full" height="105.3608664557626" version="1.1" width="115.57793725435747" xmlns="http://www.w3.org/2000/svg" xmlns:ev="http://www.w3.org/2001/xml-events" xmlns:xlink="http://www.w3.org/1999/xlink"><defs /><rect fill="white" height="105.3608664557626" width="115.57793725435747" x="0" y="0" /><path d="M25,39.598103541057625 m0.0,0.0 m12.217413340426289,8.536381867678797 l0.10816242326122726,0.43105847622215504 -0.09137875060946456,1.5811793355944836 l-1.0681360972465481,14.478469920833206 -0.9126035889359749,7.787645426167891 l-1.0264329593021133,6.050410237649138 -1.251767540958963,1.3067433009274094 l-0.9603980614191052,0.3177007532011554 -2.8189310026898444,0.2731735964307278 m-2.6596468012776313,-21.161499421031056 l1.3071830349812243,0.2011905881832528 10.66019480294118,-0.1879828713209788 l4.9907971240752,0.2191363090025471 m-13.537846930028811,8.48877567025066 l1.8078902557261294,0.07284756241580645 8.757209743809849,-1.2325555770761785 l1.4476184679443653,0.07575062909537447 m-12.432132854984172,9.228980192879137 l0.5382586218123673,0.18580716857754034 0.9784741111624707,-0.039326147195625716 l10.17977096584457,-3.5995980479618273 m6.013225685476258,-20.317690785731006 l0.6816405009183332,1.4095915351688495 0.02117292784744905,23.49127967079286 l0.20292240915514367,1.3421949617564073 0.30696549413710933,0.6864868887064021 l0.4575669594880672,0.279928964539943 0.660869256725537,0.11413470821500123 l7.2716271429065005,0.06910628532322646 3.2692439465230114,-0.2937830231125267 l1.3350696278997534,-0.4082345369392796 0.9567424796380866,-0.7152571688365376 l0.5375528674838278,-1.3342225918115997 0.11394977855561823,-1.981959048709239 m-4.649316237558281,-25.390776811973126 l0.14988967746188708,0.311376847702985 -0.10300107691621584,0.7990426846409178 l-1.7797244191303745,3.973580010395622 -1.8889838143326823,2.9322139834153225 l-2.182238867855992,3.337636567737856 m10.143055251006242,4.823917101754531 l-0.010537615587741805,1.1212004836713387 -0.5040446035263307,1.2034829913830931 l-1.3976581430069437,1.9781248774832967 -1.87723330521186,2.066331368859471 l-4.086399364989287,3.3380453207392833 -4.610721422546746,2.753095156328259 m20.841232383039067,-35.75140494634121 l2.2018820886396897,3.003099557291227 1.2225176352297107,3.46001897044253 l0.3535561103851335,3.062790157244203 m-11.332240105255373,-26.97574269171934 l1.6903163522817761,1.0770863089201455 1.6890164982627545,1.451858052758897 l1.396399057773669,1.5098831194957814 0.5691391776234798,0.9646870097483503 m-6.70010562546618,6.585539360207102 l2.847687264970707,1.4751110020346525 1.6738301987345798,1.2938664406609126 l0.6742570582295833,0.7571532751329624 m-6.438228021368206,8.899422372533321 l1.030810063988531,0.27914132953781146 1.075959460461272,-0.16001319616177345 l4.0727810385575705,-1.9523224368260523 0.5146289875563003,-0.005640410252520847 l0.5167520641852802,0.2895015049559296 0.27188726080244324,0.4624341126619533 l-0.07870318452241817,0.5423371510706898 -2.02446131905915,4.006451773266679 l0.21257304817856856,0.8680543622076187 2.074354994871647,3.685886670503028 l-0.30899141632845867,0.9180950385377219 -3.8932231355037166,3.529215241504895 m-1.6900191329744447,1.1914818713434003 l2.9839854383160107,-0.45951160992803836 2.0935021504221853,0.041123202560239755 l18.523046026179532,5.6404277516339825 4.248461397053287,0.27740910469774394 " fill="none" stroke="black" stroke-width="1" /></svg>