<?xml version="1.0" encoding="utf-8" ?>
<svg baseProfile="full" height="110.35700983627132" version="1.1" width="109.36962042207878" xmlns="http://www.w3.org/2000/svg" xmlns:ev="http://www.w3.org/2001/xml-events" xmlns:xlink="http://www.w3.org/1999/xlink"><defs /><rect fill="white" height="110.35700983627132" width="109.36962042207878" x="0" y="0" /><path d="M25,25 m0.0,0.0 m14.914428888770079,4.0899176308850365 l0.5266376258450605,0.12185172583753578 3.757349518404803,0.17864015183176185 l28.788442912927145,-2.2565616250276608 2.7138556676664285,0.17014779552779488 l0.9358467906999737,0.36946958774508837 0.6534023897518698,0.9590261790325073 l-0.1764912481550981,1.735056524859972 -1.7799746434256152,6.307566336438707 m-32.293928953958094,2.9917849999142256 l33.47302003939784,-2.4201658757231184 m-34.40442801063458,-7.140846641381347 l0.528659875006639,9.954591481479497 -0.484451485279568,11.365158636696428 l-0.8498183462998016,8.12817284607748 -1.10060574113845,5.461081080084482 l-1.4685436151250177,4.50707369671887 -2.035325776784828,4.216393643877548 l-2.753667939104146,4.083620436143558 m18.653603050561216,-35.97815143361245 l2.295010690788136,3.0476094200644366 1.5107708390879715,3.4520761452371582 m13.654353050289108,-8.799451423446458 l-0.23811256367497766,1.8032482537799748 -1.0231253378667828,2.5612724407217384 l-1.5193823087079439,2.621029236026049 -1.4573042640197102,1.7617780443398539 m-18.265084966388997,2.505556628537145 l1.6276091369366035,0.3076529451391567 1.576606188013349,-0.06524634366738617 l22.0755106970607,-2.674326030059545 3.974224028130198,-0.17199249318356716 l2.577567914348019,0.260450457056943 m-34.68161728994966,14.492836851026336 l3.4275018961830064,0.32525827117633815 27.903121184481183,-2.3827392393099958 l6.034097060812658,-0.27656716319541313 2.29986346743008,0.3083714078934115 m-27.557525708912117,-9.568576864273183 l0.7891476247835922,2.023247451133039 -0.012704705316752397,6.868718299003503 l-0.3987010734414671,5.198647790993789 -1.079560470973112,5.028983753333361 l-1.6398150248246823,3.923504955627193 -1.8221587167974096,2.7840582636139386 l-3.3685208725404667,3.441605664834149 -3.335527359154687,2.299178838758774 m23.924363484539047,-33.29943549612144 l0.6951012900155168,1.047869036170951 0.19386747747922312,1.0564497702832876 l-0.10825443514602189,33.63211378737187 " fill="none" stroke="black" stroke-width="1" /></svg>