<?xml version="1.0" encoding="utf-8" ?>
<svg baseProfile="full" height="105.18133699866257" version="1.1" width="105.63859493266574" xmlns="http://www.w3.org/2000/svg" xmlns:ev="http://www.w3.org/2001/xml-events" xmlns:xlink="http://www.w3.org/1999/xlink"><defs /><rect fill="white" height="105.18133699866257" width="105.63859493266574" x="0" y="0" /><path d="M25,25 m0.0,0.0 m26.708221170665603,3.5143877118713243 l0.4500260622786404,0.11962301712575113 2.3179365356708854,0.03869295183100533 l12.454278610455006,-1.6125465687728795 3.5296439889445943,0.04147419063165165 m-25.00264393145436,8.339700383751012 l-0.5271408118463312,4.475549065438358 -1.3179398278108696,6.616999627562308 m2.2504926248596444,-9.519112982770817 l20.677350010988434,-2.7108793165720493 8.14662739893276,-0.716550009394174 l4.753914152226014,-0.07542073864981959 0.8544485115211511,0.33309730562363127 l0.34338043723456946,0.58869652588058 -0.11800352119866186,0.7708288649722791 l-1.1617307307690177,1.7357092634069662 -1.7050949706747844,1.8931571706423096 m-16.67723195611419,-9.782645547813301 l0.4876565056912338,1.1869561030232385 0.18065057093604,1.1703245641100055 l-0.13395479935235946,17.433890679218003 m-9.993579121530308,-9.243733272285953 l1.8526358007828987,0.9342810959680021 2.2872106656372293,1.8219746717149925 m-5.531740333327873,3.699757699977783 l2.262125278502621,1.270021651277953 2.2538552430766465,1.872077051686446 m12.518654219099856,-11.137071410609902 l4.337747705813911,2.3490667543195607 2.151955416004144,1.6320987432507161 m-5.534010520513863,4.546091454785371 l2.302882018554909,1.4120335901509253 2.3961465368054182,2.1958248150819997 m-22.83289562972658,6.92824772478061 l2.636322549036748,0.2521178496712209 15.685513662505246,-1.9362793942330474 l2.7022727035679694,-0.15538581648379313 2.5485748709280998,0.2669340606966824 m-30.430594642548215,3.182188842175424 l0.5550750171637047,1.7139820505199743 0.567833905735346,3.2949668929538753 l0.8998610980972668,16.440209682148346 m-0.8734274735124349,-20.174258845128346 l23.29844552291882,-2.590237829559374 3.3010391515802917,-0.09040363942436828 l0.8916797187534012,0.7348933503862024 0.22340773846419834,1.0691778385135864 l-1.0427530470633328,11.169163998909651 -0.9531452817492017,5.897930271807997 m-18.85649176012466,-13.497060811270293 l0.47365332390354126,0.5237856194463607 0.2615424445354993,1.049453719855985 l1.0437045360369028,8.245933009833296 m-0.6422515149624765,-9.531636849074939 l9.113285154510047,-1.3028672471648632 2.4796981665614606,-0.11033245209387624 l0.39350946347587307,0.35257608913253013 0.1047870093287815,0.861225771723344 l-1.6596334545930214,6.623203024212628 m-8.759249688502068,1.424770188780868 l9.540014867310225,-1.0944900044528043 m-16.301063590709663,7.218790489196893 l26.1644991736271,-1.3476541438277103 1.3553972205810632,0.12014929376221627 " fill="none" stroke="black" stroke-width="1" /></svg>