<?xml version="1.0" encoding="utf-8" ?>
<svg baseProfile="full" height="102.51894304683077" version="1.1" width="96.89022289205317" xmlns="http://www.w3.org/2000/svg" xmlns:ev="http://www.w3.org/2001/xml-events" xmlns:xlink="http://www.w3.org/1999/xlink"><defs /><rect fill="white" height="102.51894304683077" width="96.89022289205317" x="0" y="0" /><path d="M25,25 m0.0,0.0 m14.129285812007199,4.838719183854354 l0.39139552651163173,0.42921470104067 0.4466769652527204,1.4114413232968386 l-0.0029281494662336473,9.515732238328404 m0.688484320982583,-6.85984182589857 l10.304570745778827,-1.0121031202881443 2.325863617619662,0.03471642403543326 m-24.319177964978145,7.272012288170943 l0.7027374943386206,1.382205250276778 0.027335414650621188,9.431076768532407 m0.6294125517271533,-9.79887269273168 l14.03780219361391,-1.7425961653904538 5.801017095218676,-0.4207785724976177 l1.3628431777294796,0.12566590321519652 0.890136833042492,0.9072063961591701 l-0.05772198597219183,0.7531090706144126 -2.018693448723764,7.925560856961376 m-12.949453125231596,-7.355425604975366 l0.5669814844341826,1.3546676055033835 0.7116537705739603,6.306069592785424 m6.056625421473118,-8.27610585386067 l0.35339630434834457,1.460845975237604 -0.646408643707759,6.150780912703425 m-12.111421609601528,1.541929422369889 l18.20687820976976,-1.7884405700360522 m-18.848015461808238,7.398283913416456 l2.5866888223045095,0.1786205391146206 12.987639557639948,-1.6037380287130665 l2.3832058097679676,0.08444270603610486 m-19.976039519799244,7.370682083166869 l3.1714546471286584,0.23891114912123523 16.82847343032127,-1.784222153978419 l3.363081029157847,0.11283629617129233 m-12.40873577478164,-4.608213386981313 l0.5275725060131725,0.744253926664545 0.17557321806990606,1.0867032299432462 l-0.04766675539172466,13.92737796660533 m-11.843549624893143,-38.31855054689523 l0.5864833167815938,1.135337536468745 0.13049803071857852,1.145786744852031 l-0.06934604299447997,29.47465794139668 0.3901477458077505,2.079946942655113 l0.5657976111178747,0.5497198301166784 0.8385815113582609,0.18259594205859736 l0.9777240072119733,-0.05957708117803667 6.95275880353714,-6.100855655627402 l3.3177536520997046,-2.935742123211934 m12.66118648538161,-13.8390159974097 l-0.17729813678912093,0.3229142403244601 -0.4642138057366714,0.6839742429305149 l-2.9227223790135883,2.1990270431528023 -3.5893845846755013,2.1599113228896925 l-3.7319977754269806,1.775370084687769 m-1.9042532878002156,6.16468020573782 l2.3620523509776548,2.2488993263230816 2.26705973215724,2.4490624254587248 l1.9318125252065501,2.720187723273418 1.2074538240494248,2.412808107637403 m4.992415211272968,-39.37902488321407 l0.6596926759752089,1.227693981964678 0.16806691530092865,1.2539288089932459 l-0.02866299256737511,40.7302916555498 0.24187844300823902,2.3025155465914406 l0.7125771695843003,1.5952638858162507 1.0058183082956014,0.939436734482319 l2.514510027609268,0.5934021540371165 5.362939214232268,0.07156915899470617 l3.1645479117320807,-0.5050774604605178 1.2546507204019963,-0.7863360669317621 l0.7142039688940818,-1.187715478328965 0.3145191216623734,-2.035791805552284 l0.05599871756141326,-2.971955791999302 " fill="none" stroke="black" stroke-width="1" /></svg>