<?xml version="1.0" encoding="utf-8" ?>
<svg baseProfile="full" height="87.10698196813554" version="1.1" width="96.59510346593939" xmlns="http://www.w3.org/2000/svg" xmlns:ev="http://www.w3.org/2001/xml-events" xmlns:xlink="http://www.w3.org/1999/xlink"><defs /><rect fill="white" height="87.10698196813554" width="96.59510346593939" x="0" y="0" /><path d="M29.444288053116935,25 m0.0,0.0 m6.307899215117666,3.9664412148856996 l0.43339491220025217,0.13402373741592452 2.6440237087474325,0.2328064640793326 l27.317889194554468,-2.237529733538078 3.072203482799814,-0.04972283078264098 l2.3754048994028123,0.2658426637469381 m-36.177273701630035,2.9699166368236996 l0.03798440375165755,0.7722594886097003 -0.47624161229019,1.0373825637466516 l-3.75518588419576,5.074559561539755 -2.6399316634810455,0.6106496335278856 l-3.5844550080940087,0.6565720332880814 m28.44256389388426,-8.338554868010638 l3.5066061144599763,0.984593876735739 3.543756028647058,1.4101534194697753 l2.860803653127906,1.387712021084782 1.3511937840764916,1.0622701101261949 m-36.35408502717805,3.4593129988115625 l0.581257320333131,0.7694730107971544 0.152019836276457,0.9001977297849653 l0.003833563389711347,22.038622235993063 m0.20080641980515443,-22.890956751327938 l31.96914502467643,-1.7239584955397835 1.6930669784806234,-0.0238435705968622 l1.211568774320257,0.37357705619351994 0.6205616975270045,0.30582469206741064 l0.14920856971998292,0.7794789492099402 -0.4545941415524431,20.866125714258274 l-0.5112057833491993,0.5861988765629786 -0.6304476303421577,0.06289987180964737 l-1.4756212429099074,-0.6387438851395513 -1.7969151237400511,-1.3994137881112494 m-14.393478203362942,-28.484139801806332 l0.5755597841785066,0.6917958603040262 0.23392211355753265,1.2744856657859043 l-0.07345720506480607,29.810378202708094 m-6.510884496735556,-20.074974228145066 l-0.2994777733273544,0.6495380104938386 -0.5275310222045345,0.7205922642585109 l-1.6625049441147144,1.9670099605222064 -2.3770548134209517,2.179710993230096 l-2.9956698030529316,2.1492752047357735 m1.03225858808907,-6.1061656901367565 l1.7153610178280747,0.6072784485507441 2.053408558848233,1.0331537337548002 l1.9691532016430302,1.2504775554105012 1.024594129699872,1.0107864089423788 m-0.7981843596638255,3.4162159406813486 l-0.08900791833462605,0.8114201760458204 -0.43656575383773777,0.8090253534923083 l-1.9971072063601147,2.4766378788596803 -2.984367315869223,2.295825081279574 l-3.227200649467589,1.7244365465606721 m1.9609726591512666,-6.522710723890786 l1.7422290903317112,0.6849846552158095 2.2960390345927393,1.405105012051398 l2.0319296144486754,1.6775445661923485 1.1880475670037283,1.3917501246922732 m16.599627315306893,-17.49209487581403 l-0.29687379914497825,0.8499420839200652 -1.8192642445950447,1.7622555074698203 l-3.0709208193038897,2.1955282106496896 -3.09976106166633,1.931546972552947 m0.8790448619592813,-4.923098062734003 l1.8204449117625205,0.6067788006854372 2.421340805915798,1.1788337021325728 l2.058831337987518,1.404674089382288 1.1875961390558414,1.136656742588535 m-0.5021566191183978,2.806620357110372 l-0.3103480519297143,1.2476933426219234 -1.6336543958144512,1.8415622605460686 l-2.657161670765812,2.1574235658676457 -2.8823557611781836,1.9070398487491473 m1.1182595017466985,-5.675142573372201 l1.7880720841845945,1.4829513060154131 1.8957832022409382,1.743295675303365 " fill="none" stroke="black" stroke-width="1" /></svg>