<?xml version="1.0" encoding="utf-8" ?>
<svg baseProfile="full" height="104.83790218032375" version="1.1" width="138.52293883439918" xmlns="http://www.w3.org/2000/svg" xmlns:ev="http://www.w3.org/2001/xml-events" xmlns:xlink="http://www.w3.org/1999/xlink"><defs /><rect fill="white" height="104.83790218032375" width="138.52293883439918" x="0" y="0" /><path d="M30.02713200209753,32.06708339985808 m0.0,0.0 m13.317773605488618,6.137725064595376 l0.4230773388811608,0.4097265874985288 0.3639941173634552,1.0142988060325515 l0.06174243882440969,4.688107324703145 m-15.570613531931151,1.3124593960068933 l4.4191633051088015,0.13366096191277815 20.667196971444728,-1.6978558881500252 l3.5550709154727236,-0.12027197532971587 m-24.036854470221733,4.7799988723245015 l2.5108106792686717,2.947955581593759 1.1937642343270989,2.789388612293509 m13.25033381617338,-7.863955251476351 l0.20972865550508923,0.864359040722976 -0.47579572056200087,1.0837997393354066 l-4.677538041926763,6.540824443225676 m-19.555171520690095,2.266082982547124 l4.3759748774496465,0.08854769947118883 22.97684062765957,-2.119654465111217 l4.094402513095842,0.01021584554706302 m-29.14079776058938,7.803851127684896 l3.2931723279270164,1.0663797593684519 17.79619747086321,-2.0016758337920653 l2.569740080475572,-0.18140441853745812 2.442089401769756,0.17366388626633122 m-13.037262356439724,-4.160344059285476 l0.7202021314429006,0.6785460424036752 0.35774236049021496,1.2794793636121078 l-0.17046791191568725,19.846909535002034 m-0.8705710335205294,-16.36653926512114 l-0.17441324650114853,0.9954708565076161 -0.9982552975125221,1.1697746842647452 l-5.028902133578177,4.470440892206589 -5.075833206497317,3.5822879933845657 l-4.8136736392431745,2.556341511678267 m19.11390867834178,-10.107204510154016 l4.034532269965328,1.8853788600450243 3.2722803907771434,2.263356486382321 m24.63801271778513,-29.03763143443858 l-0.7446012876756333,1.7740717365877836 -3.7253980715861754,2.818982120773532 l-4.376764587061217,2.652534914211017 -6.020146056191307,3.1573824636346646 m31.90521092716655,-26.652549490286138 l0.14539461630499967,0.579020731474337 -0.14930309664508484,1.3353772310471037 l-1.1180837122445235,4.649989184890582 -1.5756057990414332,3.7943047871506854 l-3.7607690775343032,6.003855989555609 -2.619615744889135,2.6460894009131546 l-2.2058471675119513,1.8434879799986572 -3.5343035982274253,2.2498073316323226 m17.70605599954979,-16.040792109400204 l14.776592415528848,11.748939403476312 2.7613890175878044,1.5490600889638486 m-29.26366439373585,-0.10517429537265727 l3.2890393960958684,1.2089892406774854 3.3321593777665237,1.5451188240115934 l2.5645357378524594,1.5101886325473601 1.5120287182673058,1.4124831589906508 m-13.806959253482722,4.598912631324209 l5.068325976218687,1.6125493111780145 5.176617766751368,2.0989729866072815 l3.955259361110371,2.2788074460485226 2.389905012038515,2.0521791959186984 m-13.438445055734435,5.4387199427793105 l4.611251088349547,3.298525234381957 2.556892772929076,3.2761183093292603 m-11.087182616298092,-36.188830356389644 l0.8347208007259728,0.9149697061175835 0.30369850599206283,1.5772697813460912 l-0.038042579790290465,31.15359832182071 " fill="none" stroke="black" stroke-width="1" /></svg>