<?xml version="1.0" encoding="utf-8" ?>
<svg baseProfile="full" height="111.08327088885541" version="1.1" width="97.69118996080346" xmlns="http://www.w3.org/2000/svg" xmlns:ev="http://www.w3.org/2001/xml-events" xmlns:xlink="http://www.w3.org/1999/xlink"><defs /><rect fill="white" height="111.08327088885541" width="97.69118996080346" x="0" y="0" /><path d="M25,25 m0.0,0.0 m16.82012470285068,4.789740079390167 l0.3811989985247791,0.4047929651760411 0.5358401931590954,1.0149680786231297 l0.19159375086524405,1.6646976742487896 -0.008014602330269644,33.009824389428374 m0.7588778842591818,-35.61829412022835 l23.316602663100625,-2.4189546166839646 1.483598038699433,0.12810979557901883 l1.4613622767243677,2.325057714008597 -0.41938423126192403,35.623477288499444 m-25.473051932445053,-20.3011843947494 l14.001219407033144,-1.476009861130891 m-14.489886771196796,13.026315152612252 l15.204560202922398,-1.3751515536292873 m-15.584040681370835,14.642303954491492 l17.612921285570437,-1.3487545529737328 7.616775328504947,-0.37272600136372463 m-19.795475155981038,6.041192275709884 l0.18564037309123335,0.5591604481140836 -0.17283222608298696,1.1395261429012944 l-1.3896716781579688,1.5581103438481405 -5.365526326497997,4.22121842428808 l-5.6426586924642095,3.6386496511030995 m26.833392011271293,-11.046269065842763 l2.8194837768475853,2.4763463184036802 2.7954677081032795,2.9751866626050574 l2.6736995152698033,3.4248113748577205 1.3393741417950018,2.3771263215691816 " fill="none" stroke="black" stroke-width="1" /></svg>