<?xml version="1.0" encoding="utf-8" ?>
<svg baseProfile="full" height="118.89401895971119" version="1.1" width="95.98842244556582" xmlns="http://www.w3.org/2000/svg" xmlns:ev="http://www.w3.org/2001/xml-events" xmlns:xlink="http://www.w3.org/1999/xlink"><defs /><rect fill="white" height="118.89401895971119" width="95.98842244556582" x="0" y="0" /><path d="M25,25 m0.0,0.0 m14.342068235766057,3.6024292055491527 l0.048590755433994035,0.4355913922181568 -0.4089578975485356,1.6070176024077005 l-2.2193683793228782,3.7857343382941075 -2.485851515220555,3.430347656299758 l-3.0810350610344086,3.3606776416552764 m6.485649539188816,-5.813680509177546 l2.5226682021064715,0.0522141695929465 18.28427837456788,-2.183383461026156 l3.4937866737970062,0.027766502119734984 m-32.20890800092255,13.06316329439178 l2.2064570008422737,0.23674189676095775 2.7137744881640606,-0.13880941758297485 l28.551454467131045,-2.55756458766443 2.693037888516277,0.21053567842104967 m-18.874000849883654,-6.712221634324629 l0.23858931540426626,0.8800216702942132 -0.03748518232060664,1.1146802694941353 l-0.8542498169006657,8.841319197828312 -1.1761295304935526,5.264865645390529 l-1.6207025034719618,4.161724267925818 -2.1915971508012655,3.718968866594062 l-2.7435979150507737,3.2489805111789964 -3.3691178594331297,2.8200658112038237 l-4.178386339195074,2.474161769433839 m18.098517618784715,-21.043350803433665 l7.1840275135222,7.836892068656794 7.156423869548983,6.918060278455989 l4.1543520151631945,3.273398740968883 3.264134489228181,1.8010831001860663 m-37.5645853396933,3.635944439194443 l2.3180592062660623,0.332586580441272 2.111210747252935,-1.428282803811835 l16.12246229392712,-3.5378865033800397 1.355134351322071,0.2860781880199874 l0.4141289060076501,0.4856980553200735 0.25772304398193474,0.6017165378462072 l0.0769569212999802,0.6581627628156304 -0.18089328100803007,0.7251102783685123 l-3.584014640614752,4.680891172688903 -2.9118226501828746,2.8946314544938443 l-3.0635658077780836,4.67019676054889 -3.188839770764478,3.394144319219159 l-3.3569157897463096,2.882929225774825 -3.829913234992556,2.616660360730057 l-4.1331261907036305,2.278006969328579 m5.403674199508924,-19.798209589614945 l3.371435411117747,0.5243592614061057 4.160980910610119,1.8738562065719573 l17.644057840839437,11.115595067518742 5.029164411640464,2.937168035872349 l2.9787531624790087,1.5244076042487742 " fill="none" stroke="black" stroke-width="1" /></svg>