<?xml version="1.0" encoding="utf-8" ?>
<svg baseProfile="full" height="98.27713359871194" version="1.1" width="90.58728948087857" xmlns="http://www.w3.org/2000/svg" xmlns:ev="http://www.w3.org/2001/xml-events" xmlns:xlink="http://www.w3.org/1999/xlink"><defs /><rect fill="white" height="98.27713359871194" width="90.58728948087857" x="0" y="0" /><path d="M25,25 m0.0,0.0 m27.22984701849779,1.1125258645579377 l0.3955672874138511,0.44590455038212823 0.541956152283351,1.1935650136502958 l0.018935405069088477,1.2344311832555066 m-17.35149452226942,2.5785124059471656 l4.058478831629686,3.378604014304232 3.718168324422629,2.7698772756523087 l5.824997553105493,2.2603349890584172 m-10.014072892049896,-9.129297943716189 l0.567553085962396,1.259969153720052 0.025342741088315086,1.5729142058775358 l-0.7026893278955643,9.584347055764786 -0.8104063325357931,4.412818273826454 l-0.9847717937676338,2.9696158668131054 -1.345521740972814,2.617238505462708 l-1.8037485255651433,2.2826035895818033 -1.8683962221539134,1.677944637758938 m23.159901912729836,-25.109406548250423 l0.01927683940077783,3.017670703962905 -1.4735483915316827,4.653563964665071 l-2.4079153423341806,5.937982202657048 -2.650748829724966,-0.03202681168360602 m6.777856876632953,-5.860939250566073 l1.24610160385493,-1.0755845302092495 6.999576920682493,-1.9394813592964328 l0.9842287194609103,0.0046597768152261635 0.4328141294450773,0.8108829965312626 l-0.5838232310969815,3.3456253419759845 -0.5196442075343228,2.5084102640289405 l-0.5201242591813702,2.13640277711138 -0.7203687417997021,2.2791286420178114 l-0.848640325541641,1.0903110951910624 -0.3853460742116599,0.5223440757115583 l-0.7036213243348736,0.40799487686823094 -0.9761211367154943,0.17150891210433014 l-1.041843572168963,-0.3481348098533094 -0.8881755244909423,-0.5839726306944438 m-0.6090860813405534,-9.701871198277832 l-0.21921478364506372,1.2332383704411563 -1.0169726686575835,1.877486735870786 l-1.4974399361016335,1.9472192752477373 -1.7715385933572776,1.6871789483529838 m-9.768548169348866,-0.11107983723802646 l-0.18629420789463313,1.074800449124998 -0.38315614796684927,1.7916462350950764 l-1.4209456750443727,3.197956581411241 -1.9149288118126684,3.0761764130239366 l-4.0432422938572765,4.998977799125542 -2.47289636202251,2.345081647113129 l-2.332268483624046,1.7260572149162796 m4.3893802188643045,-11.036022776347988 l3.087549876585376,0.26159878073669246 22.025207583385527,-2.178009540292243 l1.7634328001609545,0.14815100221055616 0.7828643262128062,0.7463760534910935 l0.07574359662452548,1.4199894637803752 -1.049356323058657,6.095058377787903 l-1.2038173490221564,4.450815756605363 -1.527930016923751,3.8523666534090117 l-0.9767029951447553,2.153680941625372 -2.187004719693742,1.8888471309436718 l-1.0445335565442737,-0.5615607012444863 -1.4447424051711846,-1.457274941269131 m-17.122723008397386,-12.193569539070172 l0.493630812498493,0.6562220138384963 0.16541642046634256,0.7212523346981393 l1.0521550573987668,6.550990469335881 m-0.8432146465875812,-7.4129294123643374 l11.776672752116873,-1.6473355327927088 1.1980503663983784,0.08194605112474038 l0.4442472399720311,0.3220128289775488 0.14982398294214025,0.47976101197451254 l-1.4275192961903496,5.511851527141715 m-10.466964430299736,1.628927563983297 l11.202655015998117,-1.313406384953257 m-6.404900542376529,-6.959228264655983 l0.4733632513857415,1.335436561309883 -0.04646213136988809,13.562805585362128 m-9.739196598579358,1.5937675781181893 l1.721589041864066,0.27289604005621126 17.694835782281704,-4.22357936260771 m-2.162009472899757,-2.8319801468862127 l1.8503025867113831,1.893530178052852 1.500362204150677,2.0036693777825403 l1.182786050046655,2.0137869366221897 " fill="none" stroke="black" stroke-width="1" /></svg>