<?xml version="1.0" encoding="utf-8" ?>
<svg baseProfile="full" height="100.00362903847349" version="1.1" width="104.95088487783349" xmlns="http://www.w3.org/2000/svg" xmlns:ev="http://www.w3.org/2001/xml-events" xmlns:xlink="http://www.w3.org/1999/xlink"><defs /><rect fill="white" height="100.00362903847349" width="104.95088487783349" x="0" y="0" /><path d="M26.95913915751663,25 m0.0,0.0 m12.079576494902339,5.365685597303999 l0.39717483451897556,0.3978335210798988 0.4249229071367658,0.946635221720449 l0.05878559883129066,5.137137564857353 m-13.340051190322987,1.1910521135834902 l3.85116359414365,0.09707577227224175 17.45317751592558,-1.824361061904699 l3.249413817916722,-0.130120211163995 m-19.536776185183484,4.571298943685816 l2.076228070258386,3.227345938847607 0.9425196680569677,3.124428699226215 m11.26249484351625,-8.53290756075275 l0.254349102209152,0.8618954730434969 -0.37360438480938857,1.2366326744664469 l-3.9665858566606986,6.878803777714696 m-16.766500757238692,2.2266575262049706 l3.592981867194987,0.1625930456036448 19.816866338307932,-2.1278689346296913 l3.6047492702945525,0.01764582757893902 m-25.23292445970432,8.518066890253445 l3.043872423690984,0.18309695690543737 14.693399340095407,-1.92162317322439 l6.245751746301685,-0.3052601795281874 m-11.676538300582942,-4.663617604654232 l0.6435322202869089,0.8200127056000691 0.3021880344004847,1.41480315528195 l-0.13311257848833005,22.388343499829997 m-0.7091068429486556,-18.22913728751575 l-0.16292495145521382,1.1009341115076405 -0.8184601582508866,1.3210447625186486 l-4.331857121332514,4.905343141967578 -4.539982804354065,3.9707513024904655 l-4.36386125417348,2.8870567988154985 m17.323458523279047,-11.093110619129988 l3.6640974330844767,2.168416826569842 2.815790132986447,2.5090078156958207 m22.6113444893648,-31.324857916802387 l-0.7109926457245958,1.8779865936019762 -3.3213766628922547,2.85438486451386 l-3.8962863196073196,2.7236305721822975 -5.28581766744291,3.2905312877348822 m-1.2172271131408308,-0.10415935475265449 l0.7402272415659483,1.1731463878500752 0.1294850353554187,1.1074109095207747 l-0.07250774627802974,10.940772980144638 -0.5350520915497311,6.155027057441287 l-0.7184349193582821,3.335395527643968 -2.2335494434025382,2.570252457668291 l-1.931204972447812,1.1950756850214896 m7.894787589889024,-21.238983759758987 l2.6285154173065455,-1.8976720265998772 14.772567149588612,-2.1874662013365334 l2.293061447257475,-0.017132580563011448 m-9.495594203707897,2.734909975499376 l0.7447164888107108,0.9362628506437052 0.22080420419636138,1.1095472937825386 l0.006804971832259645,25.96797340291582 " fill="none" stroke="black" stroke-width="1" /></svg>