<?xml version="1.0" encoding="utf-8" ?>
<svg baseProfile="full" height="94.25613795820837" version="1.1" width="105.4576086564129" xmlns="http://www.w3.org/2000/svg" xmlns:ev="http://www.w3.org/2001/xml-events" xmlns:xlink="http://www.w3.org/1999/xlink"><defs /><rect fill="white" height="94.25613795820837" width="105.4576086564129" x="0" y="0" /><path d="M25,25 m0.0,0.0 m13.035762701979028,3.814189466499854 l0.5402083663691657,0.12622242895694794 3.64377661266139,0.16133977597071977 l26.873690687342386,-2.2730047069122303 4.455754797285168,0.285607075338312 l0.7841356679307062,0.42438458776502047 m-36.663223795797194,14.315237184843518 l1.6824656137527811,0.3510807521440021 2.1896991075506387,0.00988180355178839 l27.27206200838939,-2.5924209223520105 3.8631107288621678,-0.1807192848721962 l2.274559823706276,0.25568898546458474 m-18.771616873740324,-9.333462798152969 l0.6012452437942487,1.1525520937013785 0.22207648565770696,1.4440997246312464 l-0.07689055505873472,34.76557476715107 -0.2933130251595452,1.0996187886142064 l-0.4873748625051702,0.43026823586512286 -0.6138180962332725,-0.10948160293573103 l-1.4209168557125147,-1.1114973489854194 m-9.874065184770394,-24.26797613253417 l1.364545428902214,1.203302863459098 1.633710320003844,1.8648117546772929 l1.2475449724886571,1.8942915478911726 0.5306413297602754,1.280140926033384 m-9.188775991874708,12.426748904572538 l1.753901042919412,0.3492534136960489 1.1181065491756086,-0.44079214436307385 l9.128429321234622,-8.07680100346533 m19.23614018093925,-12.90534776026402 l-0.1926172831041103,1.1670928857692342 -1.3732547880477874,1.7833194236004142 l-4.704571097710099,4.04223621900323 m-0.46099980837376753,4.549938113051647 l3.007294230759055,1.8559624699276924 9.481097088950273,7.976340527275584 l2.0212227818539517,1.09018135266686 1.6178657822323264,0.918874192838837 " fill="none" stroke="black" stroke-width="1" /></svg>