<?xml version="1.0" encoding="utf-8" ?>
<svg baseProfile="full" height="107.89670533167745" version="1.1" width="97.65998426732554" xmlns="http://www.w3.org/2000/svg" xmlns:ev="http://www.w3.org/2001/xml-events" xmlns:xlink="http://www.w3.org/1999/xlink"><defs /><rect fill="white" height="107.89670533167745" width="97.65998426732554" x="0" y="0" /><path d="M25,25 m0.0,0.0 m9.993324231426435,15.017642170965223 l0.4020944739366202,0.11956845691515267 3.2289973526730744,0.1260597593169172 l24.661535072815386,-2.28224249044787 3.412943635361886,-0.05061321406941129 l2.6520924366694314,0.3526894210212503 m-26.19433012669898,-5.049762356613692 l0.9288798319320143,0.8356384524406398 0.2974194331362006,0.6003637087465402 l0.9394012990125287,9.256205527951424 m13.122771621417545,-11.516999196625916 l0.5267474222094978,0.8686562592320698 0.06922058174491008,1.0151510921520555 l-1.5421260860820232,8.257904742695864 m-20.361013542928436,5.212674566348363 l1.7027223966020903,0.2711195882544919 2.4017140384396614,-0.058827861441933055 l20.968937722284696,-2.200827401197463 3.5450211814672965,-0.01761066872092912 m-29.043047627334637,6.738947993972349 l-0.5130540717368774,1.158097676138236 -0.932282849921405,1.6091237658056838 l-2.344752105704699,3.2243986203653354 -2.482770379125664,2.3795276585473233 l-3.137897860092853,2.002033516731322 m26.0175787396211,-11.459448135907452 l2.6616952603594495,4.329306824474539 1.4726959170048481,3.9589331288241767 m10.564390723204575,1.1510587724321037 l-1.1970369685560807,0.7180750477562977 -2.2829964084897516,1.468810399750922 l-3.1122660736584877,1.4775139872046887 -3.924653810464279,1.3431963826357243 m-5.397181365512174,-9.879887931448295 l0.47948106695727116,0.7764035969153987 0.1664915064710114,1.529605401257963 l-0.32566997184132507,6.225385489528619 -1.0053734462284432,4.440505347828212 l-1.6883004925906313,3.7518334993066174 -2.323565835316133,3.0474433513714425 l-2.914538245382409,2.5352795598310167 -3.4671701607637355,2.1513807278135935 l-4.486381546725102,2.46239009361885 m16.89452994451184,-16.25883448730275 l7.074863626327817,6.312517139109451 6.498684221841424,5.254864419293571 l3.977163797331813,2.745278859756553 1.6749957077192459,0.6217867081706345 " fill="none" stroke="black" stroke-width="1" /></svg>