<?xml version="1.0" encoding="utf-8" ?>
<svg baseProfile="full" height="116.38929649230232" version="1.1" width="107.62799902734815" xmlns="http://www.w3.org/2000/svg" xmlns:ev="http://www.w3.org/2001/xml-events" xmlns:xlink="http://www.w3.org/1999/xlink"><defs /><rect fill="white" height="116.38929649230232" width="107.62799902734815" x="0" y="0" /><path d="M25,27.74106344647125 m0.0,0.0 m11.374056628873483,4.062544598560911 l0.42552067587782366,0.42294483203485705 0.6848533108563528,1.8467010817185505 l-0.016046392815693512,7.842603079272569 m-12.346202316534484,1.9644337308287887 l3.6994695362715047,0.058134017711760855 17.130022075692626,-2.3221253929173082 l2.7761670756491252,0.08854969285724688 m-18.94787121820081,8.080054110236222 l2.6214590512368843,5.757119394831629 1.1703803556262256,5.291749260494194 l0.6285103107625092,5.067645901647753 m10.292133738590707,-20.329742004893085 l0.36142842280426357,0.9791654818823259 -0.46561861895991996,2.1774808729959774 l-4.702302737536231,15.95171480895496 m-12.563135528720982,5.445034650766153 l1.1372967650814365,0.46692101134370345 1.1967433602985198,-0.1789957423649504 l17.58855567530912,-8.542288975289402 m18.23558477246926,-36.87070785714411 l0.718857687747747,1.504646939604742 0.1308707998636307,1.8988720919185234 l-0.5117236900986832,26.469887204224094 -0.34651965835332316,1.540871618594326 l-0.5791049150897792,0.6497629656757501 -0.7774723812914192,0.009792989684316961 l-2.8388617085439574,-2.268989504548471 m-4.553749508043001,-16.39554348863349 l-0.03191883410272394,2.1018919160634812 -1.8085551852733843,4.077301524271126 l-2.68768282114264,4.567818454051788 -2.8615369550261303,3.8255621104618855 m24.92236357544965,-15.282171947481473 l2.566412947487341,2.0545464768114408 2.8093265308363025,3.1226576818130236 l2.0967401658525278,3.182148395899472 1.0995480344442747,2.8391933222415755 m-6.552806908405033,0.6787330632359939 l-0.3468576853488785,2.9298182427494015 -2.2172520427700433,5.143977780890312 l-3.290455917740625,5.312210374790501 -4.35414592314623,9.093896173164909 l-3.374361570574819,6.229702755218773 -3.4498985710374694,5.240886874096571 l-3.7358043274627506,4.385944671954113 -4.171356132141448,3.4758778055496196 " fill="none" stroke="black" stroke-width="1" /></svg>