<?xml version="1.0" encoding="utf-8" ?>
<svg baseProfile="full" height="108.00713736563921" version="1.1" width="109.49251413345337" xmlns="http://www.w3.org/2000/svg" xmlns:ev="http://www.w3.org/2001/xml-events" xmlns:xlink="http://www.w3.org/1999/xlink"><defs /><rect fill="white" height="108.00713736563921" width="109.49251413345337" x="0" y="0" /><path d="M25.00000533182174,25 m0.0,0.0 m28.26707124710083,0.10027069598436356 l0.40642261505126953,0.4778211936354637 0.7327792793512344,2.0808564126491547 l-0.06326754111796618,6.445780396461487 m-17.838656902313232,1.8906889855861664 l1.8391996622085571,0.3532598540186882 1.4018835127353668,-0.0580368097871542 l25.396606922149658,-3.175176680088043 4.073837697505951,-0.3111673332750797 l3.058810830116272,0.20350497215986252 m-30.14118194580078,8.177882432937622 l2.5960931181907654,3.1816986203193665 1.3410402834415436,3.7995707988739014 m17.618969678878784,-12.522211074829102 l0.2917729876935482,1.0459203273057938 -0.1300964318215847,1.1615998297929764 l-3.2618504762649536,9.131808876991272 m-35.589439868927,4.830387532711029 l2.759486138820648,0.2738804370164871 2.730652093887329,-0.08259749971330166 l23.621256351470947,-2.450592666864395 15.089812278747559,-1.162286251783371 l11.27719759941101,-0.508725494146347 4.014109671115875,0.4505854472517967 m-44.17923927307129,9.534454941749573 l0.759124681353569,2.28475421667099 0.08435940369963646,22.85320520401001 m0.24611908942461014,-23.967950344085693 l22.553365230560303,-2.586996853351593 2.2754859924316406,0.27237866073846817 l0.641728937625885,1.0884848982095718 0.07783473934978247,0.9027799963951111 l-0.14060347341001034,23.852269649505615 m-25.000483989715576,-13.719508647918701 l24.422428607940674,-2.0034828782081604 m-24.121732711791992,13.01650881767273 l23.861196041107178,-1.8277861177921295 " fill="none" stroke="black" stroke-width="1" /></svg>