<?xml version="1.0" encoding="utf-8" ?>
<svg baseProfile="full" height="117.27505146010557" version="1.1" width="109.57026349718855" xmlns="http://www.w3.org/2000/svg" xmlns:ev="http://www.w3.org/2001/xml-events" xmlns:xlink="http://www.w3.org/1999/xlink"><defs /><rect fill="white" height="117.27505146010557" width="109.57026349718855" x="0" y="0" /><path d="M31.585864228571467,25 m0.0,0.0 m14.364984157243335,7.826793936801285 l0.37484576085511284,0.4058760490601266 0.527128116401596,1.1765378055970335 l0.09376154768612929,1.4266266350201202 -0.08910860180783756,42.14743573599405 l-1.753562598348893,2.4616820957674497 -1.502866816934815,2.050902998285913 l-2.5350419049289217,3.8088820948268145 -3.014663987716231,3.3948978144547337 m22.747184132277287,-40.05765797373281 l0.7938618798228803,0.9704766799062542 0.3864101245386834,1.0778254116398474 l-0.002590405477810103,40.58477217648475 m-31.676889606535802,-41.493466710814445 l2.8533029521426756,0.16978150644065612 9.727523148094571,-1.1940288504569374 m-13.150750520252014,10.585609120282227 l3.4820329414719695,0.0832863568429099 10.106504972890157,-1.7190922238346344 m-18.31792951999354,13.003296983025413 l1.5095511977111669,1.0225317132087341 1.6410719932168183,0.09068590099294119 l14.648600678682216,-5.277409649142862 m17.00027817584364,-19.771583317663676 l13.699778553511726,-2.2229416021890582 m0.5405364336047852,12.011894656230572 l-0.20642888682622726,2.2349099758854245 -5.073354583444997,6.737819711192805 m0.08913329020788727,-18.853898702415908 l12.875839377233902,-1.6228189307720253 1.407609433957393,0.05911865150014038 l0.9470468039017302,0.3957563461110118 0.49060102958851143,1.1142604781283272 l-0.02516256663770958,26.299206458435663 m-17.402513317986678,-14.775453251292655 l16.332845367378205,-1.4193222336396367 m-16.86800972001334,14.514063607152309 l17.61390935631462,-1.2177512014678242 " fill="none" stroke="black" stroke-width="1" /></svg>