<?xml version="1.0" encoding="utf-8" ?>
<svg baseProfile="full" height="108.63032502973404" version="1.1" width="97.876336820176" xmlns="http://www.w3.org/2000/svg" xmlns:ev="http://www.w3.org/2001/xml-events" xmlns:xlink="http://www.w3.org/1999/xlink"><defs /><rect fill="white" height="108.63032502973404" width="97.876336820176" x="0" y="0" /><path d="M25,25 m0.0,0.0 m7.428329292429147,14.724221315786032 l0.4336200077748008,0.14781433406765554 2.549263823479363,-0.01472985060094516 l13.720940982054048,-1.732085170480734 1.7557843813449763,0.1314976854920976 m-14.407283906324313,-5.396665118706701 l0.4909544015279573,0.8829369153607571 0.22449403805810528,2.084069927745003 l0.8213953381866312,10.809675022985093 m7.438753236407061,-14.9926726269932 l0.4449824349298652,1.3837917056091937 -0.9377750746866365,11.818672176786421 m-6.714000557733814,0.9491717509254199 l7.525818860270431,-0.8746643451225357 m-11.960551627403737,7.437148226657567 l0.3651712970195931,0.8949202362994735 0.9153310337708443,4.329199973125737 l0.560088471337831,4.751018463105617 m-1.29724646245866,-9.360655970267114 l5.660309160359738,-1.0481331831381908 8.027486545618693,-1.1426692817839095 l0.4768413644662986,0.07599476738492009 0.5639603217083361,0.9525777209533116 l0.021484940054676986,0.6484509074472228 -1.3684651501309022,6.257995878465328 m-12.084497564123275,2.6921472170393943 l8.052644738520186,-1.5678959431553636 4.856145010432518,-0.676013167908699 m-16.974090397781197,8.712471078084015 l0.7675661191879458,0.3130306955438045 1.2315384339729871,0.029288068459967172 l14.762949332680964,-2.389205841360309 1.0394796386993677,0.2707299583981039 m-8.584867206774778,-18.907908109663243 l0.25613674577289575,1.8197276987880078 -0.047398830204799736,31.848346158674133 m11.90461428892123,-40.50230204802988 l0.8620202591290511,4.881338951572567 0.833258314895597,10.254141642970671 m-1.3511757458020317,-14.391086680602832 l14.566287908721325,-1.620473615693883 0.90655192534036,0.25330001961777304 l0.5228219009786295,1.3054833556195857 -1.5656630534824172,13.750888413836485 m-13.431314874881947,-6.911484908346434 l9.453310799920041,-1.3314994177865913 m-8.86267382755224,8.056441710780984 l12.51744474288396,-1.1534772646488107 m-10.153427353813237,3.028930222319538 l-0.031793170654788025,0.7861365226684448 -0.4373897131554819,1.2416864705362165 l-2.207236166405713,3.9279631382660085 -2.614502113353284,3.359908455935604 l-3.070662879437566,2.9994298684833414 m7.955616583567734,-7.662762382351751 l1.0961212550809925,0.2569999818097998 13.467729658391999,-1.8555686671277183 l0.8632280487332397,0.227596173174576 0.5749370933992348,0.8364387100244689 l0.06293976630814666,1.449020573112562 -0.9838864070835542,7.354652312407431 l-1.1970676189100686,5.702603977521202 -1.6171854124144474,5.280064785901921 l-1.0215116692171184,2.3138623089001826 -0.9976177679783547,0.930493144859261 l-0.9812579262592822,-0.11674534203504687 -0.48748201745257824,-0.4056802304020374 l-0.7982914118419905,-1.395319001629078 m-3.4489600366037996,-18.05016422058081 l-0.038545910947251474,0.8549152446434795 -0.41843634908296407,1.2722101779300632 l-1.532385298280127,3.522397062963667 -1.7292278800298937,2.534714615670247 l-2.1838380735772622,2.3734588209257 m5.031862518214277,-5.659389416434702 l1.3853164672015585,0.8645057263807422 1.5666511102078522,1.3674987399274614 l1.3541506953257432,1.663747140143829 0.8728321389361228,1.640793496179049 m-13.94597431808657,-7.111888012380071 l0.5137741802591724,1.4937145217397676 -0.19523057837018187,8.515358505552745 l0.31510298815298354,1.0129804214522908 0.9580246282932786,0.21334711713551102 l11.774296563164167,-0.9155263094953109 1.6493430418912962,0.20195782367677417 " fill="none" stroke="black" stroke-width="1" /></svg>