<?xml version="1.0" encoding="utf-8" ?>
<svg baseProfile="full" height="133.53006130883057" version="1.1" width="118.09568504883676" xmlns="http://www.w3.org/2000/svg" xmlns:ev="http://www.w3.org/2001/xml-events" xmlns:xlink="http://www.w3.org/1999/xlink"><defs /><rect fill="white" height="133.53006130883057" width="118.09568504883676" x="0" y="0" /><path d="M25,25 m0.0,0.0 m30.882720295923836,6.0374967371751 l0.39867218824262796,0.39511319994249766 0.6298150233714063,0.9357307720849168 l0.09988692143140342,1.0215655300955213 -0.07141833284739646,6.125127705070194 m-19.851386716522136,1.623363727431162 l4.356213665327367,0.21345397260083937 16.661252857376134,-1.7088595923342347 l17.18345932296135,-1.0015560681049223 4.03787500749035,0.37955246509039325 m-37.11921532853407,3.0582026262754383 l0.576338884231084,0.7962338167181072 0.2621367730069668,1.1175078066526118 l-0.07246840077908813,6.578164768927983 -0.6496441969369974,8.068647340475495 l-1.013480876373516,6.728069708010767 -1.237897270476415,5.101811014743543 l-1.3781063492436765,3.8801476597244293 -2.355205403577322,4.659222477360617 l-2.2140074756525485,3.287795518103449 m40.899155236166486,-35.43569590876852 l-0.20392902508114186,1.0961694648161793 -0.7218503539457228,0.9612610664825944 l-3.7315377112862866,3.391435371289163 -4.322987807282057,2.773226803288451 l-6.12552226576167,3.0399703935757976 m-1.8113097315577713,-0.7308259992230532 l0.8020451933695625,1.2898691325419482 0.19513894747633861,1.2662941572272102 l0.0027688828827234576,21.734373941835827 0.30031738112161516,0.6787933307339392 l0.6265878697446439,-0.04628105790516979 1.1375346055017415,-0.6270009116940242 l7.851382008805424,-4.962105942040937 m-7.543207471358302,-12.135264562875761 l26.205432150108273,-3.634696035957068 2.845567944826595,-0.11006585827639402 m-18.963416654774434,-6.708003402106697 l0.6833719283283255,1.6821238644089938 1.1509682780489172,6.788811550542333 l1.6217329832675556,5.734689733449175 2.215988380833683,10.528567233446521 l1.9265817619662575,5.73166961370964 1.7668686982810018,6.816960825996145 l1.6837899137296737,4.6234931013513085 1.9266816076687723,4.136453870314125 l2.2272922673892324,3.7359906123028708 2.4540451399278886,2.850755053580448 l1.9116706496866145,1.5306641280193547 0.8769561789862954,0.23163655272226763 l0.5704480599547476,-0.22759542378521924 0.346183618208511,-0.60461311378929 l0.1653957951838995,-2.017022271964429 -0.25017748364968395,-2.654932729053805 " fill="none" stroke="black" stroke-width="1" /></svg>