<?xml version="1.0" encoding="utf-8" ?>
<svg baseProfile="full" height="98.05367213129679" version="1.1" width="82.23966707095062" xmlns="http://www.w3.org/2000/svg" xmlns:ev="http://www.w3.org/2001/xml-events" xmlns:xlink="http://www.w3.org/1999/xlink"><defs /><rect fill="white" height="98.05367213129679" width="82.23966707095062" x="0" y="0" /><path d="M25,25 m0.0,0.0 m27.551670991534575,3.2828759141311035 l0.3458391343106301,0.3556836556852739 0.46448491253665875,1.5133833523820241 l-0.036023268440301896,4.729427390770513 m-17.617214979010715,1.3431177331371125 l-0.7081971755428004,0.1865317145100153 -1.1394887920466685,1.4324744107309308 l-2.881365265645595,3.179069120170145 m-4.97205184946881,0.5969409076105266 l0.49018894108456973,1.5298872617567163 0.03816252433753356,4.999813906069432 m-0.14855291915573265,-6.113508418614378 l23.53549431084443,-2.1650984471504975 1.2616085993069803,0.0617067394563304 l0.5949213281149878,0.6222296353755727 -0.04888038728406945,0.5542114275740206 l-1.3545966472736153,4.794199368323476 m-16.8501646271963,1.870258817527764 l17.610890218303553,-1.3469349453145563 2.5030585589172563,0.006925872406154055 m-17.394993310490225,8.069878778664071 l5.8323262225776,-0.6245684692538059 9.994572822453982,-0.15682117028773956 l1.8516805419853806,0.13727994765246473 m-22.879463425671265,-5.412244222757644 l0.35093574607326705,1.146737962209611 -0.4987385392839745,4.218011060202765 l-0.618220549833188,4.366180936688636 0.2905897406933993,-0.02884689319615233 l23.72862285910313,-2.2597643414231845 1.67312502768231,0.09446988635531954 l1.0129561844878328,0.60510985592867 0.2564901429457987,1.0624653729763516 l-0.5777356517539711,5.110342783650667 -0.9434999584134092,4.579349286903442 l-1.1146933996557442,3.8597683656316955 -0.5408489020720655,1.028992614672991 l-0.5120855589397469,0.5685685627804937 -0.49910337526498605,0.2555663973604562 l-0.4737826575457699,-0.018194008153675927 -0.8901020284397618,-0.6006946098728042 l-1.2739989908030618,-1.689360298939149 m-23.14502963899053,-6.873422079195657 l0.8471151834040614,2.342695275975598 0.6911800815642505,2.090108781364671 m11.564486945659358,-6.29313073933977 l0.7570457798493561,0.8263213044242227 0.7660375314477004,1.1884647783886462 l1.2622041803634667,2.6782880430473237 m5.18939165273153,-5.327209267649442 l1.3883568517285705,1.2300139184221355 1.2122486366200302,1.6220085797552313 " fill="none" stroke="black" stroke-width="1" /></svg>