<?xml version="1.0" encoding="utf-8" ?>
<svg baseProfile="full" height="113.56749858309496" version="1.1" width="119.4863989286174" xmlns="http://www.w3.org/2000/svg" xmlns:ev="http://www.w3.org/2001/xml-events" xmlns:xlink="http://www.w3.org/1999/xlink"><defs /><rect fill="white" height="113.56749858309496" width="119.4863989286174" x="0" y="0" /><path d="M27.39828822070125,25 m0.0,0.0 m15.140401303256175,3.0666757059126186 l0.41472797224730823,0.4166835983626808 0.44793631495662967,1.1337119487429392 l0.03178915376899791,5.120007457385802 m-15.161890230150973,1.2978793163676323 l4.180547287496527,0.21385298734238228 21.80584344648766,-1.8949883648219548 l3.348683640448218,-0.15882421795578697 m-25.149830492910343,4.232512528533248 l2.9973507810907387,3.222492431780575 1.215699575790372,2.9817288329951106 m13.211347221778055,-7.99341857954039 l0.2288840230973805,0.9599277003559668 -0.47796531549329807,1.112986161397139 l-4.606013355121407,6.385819684599232 m-20.025799547443288,1.9751671004955684 l4.1789030561025875,0.13806275436159565 23.44503353783223,-2.1606555985044538 l5.812323694129914,0.060632984830631204 m-29.98617739802539,7.623953537870778 l0.6883146317652681,1.0923175642474696 2.4181329377012295,11.163838243527701 m-1.9286621262638215,-11.553335505457843 l22.163077045932376,-2.5258522898321365 1.520134538673245,0.34657030091833246 l0.4077480849433693,0.4947385999155814 0.042466189789665196,1.1323030598035129 l-2.8070292951897278,10.858508803819877 m-19.011247418773493,-5.4439351014257475 l13.987536936612258,-1.7938361053663594 m-12.996278081126936,7.387305787461563 l17.415493298129746,-1.9678201463398417 m-14.1342177545061,3.9885609947764054 l-0.13555692654309176,1.6495433371279196 -0.7309429380529799,2.300362246209906 l-2.6970846062229157,5.648139139350952 -3.2688478385103297,4.7533205671398155 l-2.265459314115512,2.4930286121682346 -1.799518052261308,1.5853896102579197 m17.758234373166573,-19.407065067119394 l1.121643855576779,2.4690462413567382 -0.2628313787593827,11.934360471133822 l-0.00827803837757151,1.603391560973634 0.2759161384165554,0.8396491202099694 l0.6034742988812716,0.4935371391354269 0.7938789705755591,-0.09893538602061146 l1.0257846086355045,-0.6349736464969504 9.172178108593956,-8.323569347070272 m17.30132421697939,-45.19044199839467 l0.7067610026988372,1.4105526486353255 0.026379398762893635,5.49172832624405 m-12.278882649533323,1.2399424044164258 l3.677079063711457,0.015909244975608843 18.912374051398206,-1.7034549500167824 l4.375518863150393,0.024321682110677305 m-22.52365021772078,3.819845796138571 l2.044287845150461,2.368740599189546 1.0820711033539967,2.9573716614490917 m13.597031625152704,-7.776713200930143 l0.404819093341402,0.7339023382705911 -0.6324751644553196,1.4935660064512901 l-3.7440213629028034,6.495933331681923 m-18.86502491768814,1.7040597857358355 l4.757846032516686,0.13339037251533184 21.66438809735843,-1.9510870575794774 l5.316028699683282,-0.18969636329626388 m-30.33830462093694,8.292166095092355 l0.6811513427363449,1.3371962105107886 2.3655981191807434,11.712830451186626 m-1.918180401151266,-12.379585083304963 l23.016486489383688,-2.5807332744480194 1.9427150377647646,0.5775614784922122 l0.41520985499645297,1.003837725322819 -2.191028015524243,11.086411095241644 l-1.244854485111832,3.103841838193411 m-20.098826531193286,-6.364567034907253 l22.015283435455974,-1.7092946358631749 m-21.565918367830207,7.906285582987416 l19.32211046632224,-1.3891532413194314 m-16.218868440709205,3.6427126694662313 l-0.11445783039682991,2.1238411188741853 -0.7324475015981442,2.75917713863186 l-1.3452658657268806,2.9652004763990467 -1.5270636711815777,2.4391279044783922 l-2.0135468099922784,2.4352898524779456 -2.4118124594102186,2.2494267394241674 l-2.7858011503968427,1.943911824831327 -2.372265220111317,1.1744000102732877 m21.387921340990562,-19.378412631506787 l0.6574339074307548,0.9015011061963618 0.24279302696119212,1.1876832410285807 l0.010155173322481127,15.337910813097857 0.5412581088487753,1.8460622528032078 l0.7035702671703311,0.8523974937037646 1.746758764822008,0.8899609345754017 l2.8988419990343237,0.30384302864185536 5.624980006477368,-0.024036480121296805 l3.0574631353218256,-0.3752450824122709 1.4449159536656988,-0.48863461943566305 l0.9995781551108813,-0.6894020810431979 0.5979991021404022,-2.4170504742515373 l0.07281869306437078,-1.775041152570902 " fill="none" stroke="black" stroke-width="1" /></svg>