<?xml version="1.0" encoding="utf-8" ?>
<svg baseProfile="full" height="96.54483430465055" version="1.1" width="98.99268207047511" xmlns="http://www.w3.org/2000/svg" xmlns:ev="http://www.w3.org/2001/xml-events" xmlns:xlink="http://www.w3.org/1999/xlink"><defs /><rect fill="white" height="96.54483430465055" width="98.99268207047511" x="0" y="0" /><path d="M28.657218409453684,25 m0.0,0.0 m16.14859373406799,9.300451567627 l0.4907133941803747,0.4365331240874019 0.5881038966109261,1.1908574948572532 l0.025900441507948648,11.86356311478749 -0.4089230087426505,6.58596772960197 l-0.7131505771763769,4.587908477275742 -1.2291320820617087,3.9918223648846496 l-1.594693955027276,3.0494063778013425 -2.4853317892045603,2.984852936293219 l-3.0602367566576425,2.553471117434481 m21.931810418203703,-39.22131331751279 l0.8896603007988153,0.8179385348882815 0.3192735382959865,0.9031505522338057 l-0.09871346003706137,36.91500658814468 m-31.80388881281744,-25.84376080037634 l2.656645488860259,0.07711807997615397 11.320960808559638,-1.136320725324527 m-14.037491084338935,9.569459713418059 l2.7694857704243425,-0.001448836653775884 11.123621638839959,-1.603800352553752 m-16.490426313739974,11.34726694259726 l1.3103804350417196,0.8747542096741024 1.1780088944179776,0.11960081754998632 l12.562768439638576,-4.392296435600155 m18.501350460670906,-17.371148168221495 l12.555284804669421,-1.6755440622844653 m-12.341267892116125,10.156492697602372 l11.304362535946991,-1.746601070929227 1.9273091330063956,-0.039195113190187154 m-13.392849229033432,11.074623177456717 l15.387334488232698,-1.846881459944523 " fill="none" stroke="black" stroke-width="1" /></svg>