<?xml version="1.0" encoding="utf-8" ?>
<svg baseProfile="full" height="143.0015049715302" version="1.1" width="94.8017535426489" xmlns="http://www.w3.org/2000/svg" xmlns:ev="http://www.w3.org/2001/xml-events" xmlns:xlink="http://www.w3.org/1999/xlink"><defs /><rect fill="white" height="143.0015049715302" width="94.8017535426489" x="0" y="0" /><path d="M25,25 m0.0,0.0 m9.860911781272797,15.359868675604696 l0.4484623720429919,0.12607601668974383 3.5168775680750217,0.1148994663595657 l13.391200615586536,-2.6211909228668815 12.219742327443285,-1.520437748796188 l2.7351488979521146,-0.017163693027820413 2.629409980276144,0.5133854287225326 m-26.706645868620182,-6.248750030493449 l0.727769048888415,2.0117493427905773 1.5489982916216922,12.277280213157866 m14.100490371158271,-15.852463413949728 l0.19331840206252401,1.9208891389253169 -1.8536634521187951,12.036644554484498 m-5.043101265959106,-0.2645999267129209 l-0.098925429747244,0.687294416068551 -0.5677269296337041,0.7503589416036125 l-9.193988355450568,1.9449354088232187 -8.00038172069402,1.4895775093934678 m-0.05595587639423048,3.3019064871151786 l2.3416895815590077,2.5444575274227668 1.1692701141378463,2.405375384201532 m10.96701098720564,-8.149307458668558 l-0.08486524648899753,1.0255123162050914 -0.8250993415169061,2.394218470359262 l-2.6571932311732254,4.176712985958091 m-19.67308704919716,3.520574806099924 l4.306294551005125,0.29622397223935426 13.42406182742411,-3.224168946966183 l9.379029358025601,-1.7964145142088817 5.146627901569529,-0.28938009608852566 l2.8636554281413176,0.39882833890797487 m-17.755055724405178,-9.05085967219835 l0.6032764780119607,1.2778298685620622 0.18145070382284528,1.3855737758590752 l-0.04356098603932809,20.702462046373572 m-2.423385016995625,-12.4340329485609 l-0.32207018119368835,1.435421910101451 -0.808649038580773,1.7400854244410395 l-3.6355469813975017,9.909597077126936 -2.3744286736488327,5.949848350837259 l-2.602913615961778,5.2583758061714 m12.828798155547995,-21.46410013810624 l8.67498209796479,13.092437866995668 3.1932611739688177,3.6854129016084003 m-16.68937449478091,7.817118821699466 l0.050278862954457056,1.506648710962294 -0.3182740192909914,1.3008465237732643 l-1.2873450223572125,3.3368710343711414 -1.773631001180527,3.63748160080163 l-3.977443642185166,6.073869837793035 -4.09923856972479,4.889614643765801 m10.759384753233435,-16.082112159938358 l2.7272070667486115,0.29690984505137413 6.2896241156682295,-2.206678161356206 l0.5507836321900239,-0.3275306303614022 0.4785243441594957,0.25134505876495167 l0.28295332476419816,0.6575495428573849 0.012881077779760133,1.0047726477517 l-0.538296438390146,2.3264919306455676 -1.4846423365629298,3.9877259270084178 l-1.9670684290312617,4.264210721519737 -2.4328651373175783,4.451913086688289 l-2.936457346205226,4.451633389276742 -2.52147205641975,3.20029024360107 l-2.701947799957801,2.916652959677861 -2.901417792738056,2.5035400946454964 l-2.9937901690295723,1.9413943839658923 m7.424693400844425,-23.757278367054305 l16.83030171404015,19.03118024775953 3.0306620663245045,2.792121389702962 l2.4610121881275346,1.7955535443317534 " fill="none" stroke="black" stroke-width="1" /></svg>