<?xml version="1.0" encoding="utf-8" ?>
<svg baseProfile="full" height="103.80074095575176" version="1.1" width="123.66716359129188" xmlns="http://www.w3.org/2000/svg" xmlns:ev="http://www.w3.org/2001/xml-events" xmlns:xlink="http://www.w3.org/1999/xlink"><defs /><rect fill="white" height="103.80074095575176" width="123.66716359129188" x="0" y="0" /><path d="M25,32.55686570042741 m0.0,0.0 m13.394737934150328,3.8087641222602895 l0.3840194536565346,0.41951994966479056 0.5705804028039854,3.3406562555845998 l-0.009196775082093767,8.395451863417467 -0.26676586707149125,6.567428367598387 l-0.7082653280167511,5.959404190298627 -1.0472072561579533,4.912442552370518 l-1.329986445378504,3.886758135415808 -1.7055158549470464,4.089476875000129 l-2.2712214334271863,4.457062405020753 m7.362803547775616,-44.10913410733053 l9.060691785285698,-2.8947298467246494 1.4442998325897776,-0.04478941154126265 l0.62443905430685,0.3634122067144112 0.5710182054537486,1.1856463329393807 l-0.0559308605983798,43.76293840275443 -0.3274356874933336,1.3511580976606947 l-0.5348699563343984,0.6641092847778224 -0.6658804867792152,0.1282995794426956 l-1.5011379664541369,-1.0145836189390594 -1.6309089367032539,-1.7962484900871318 m-6.260166041162492,-30.192079736430262 l10.444145499048085,-1.360185396739268 m-10.74730253082901,12.64733324341531 l10.799716935368519,-1.2002035849181276 m16.71145356925421,-25.069255618390862 l-0.37480486465841456,0.9501184648486943 -0.4959983511517782,0.9312710331700293 l-2.1720657005452106,2.5894512739400315 -2.809358099856453,2.4332384367179842 l-3.296077362363439,2.05943081663062 m-2.2417233464447444,0.031199042464132142 l0.699593392105996,1.0213421876576656 0.27625382249214253,1.2299465332870558 l-0.07338569646935524,23.308398344985168 0.30793969715239444,1.407375144632503 l0.5367288620729818,-0.13112178134528144 0.921287713495045,-0.8587238317279489 l9.437090295004289,-6.998090520828587 m0.3460892199373546,-20.253373106251242 l2.2751544116016476,1.0395397988057726 2.079909356673774,1.7330950537978957 l1.669869716341398,1.8962651984460983 1.1987499873144576,2.102088482025384 l1.236634252662621,5.397809366646295 1.037542709764316,5.840753529698494 m2.57310976739672,-30.18898687226072 l2.4808938615432243,0.365313720737374 13.594087305335623,-1.7218580697397845 l0.7594750578378003,0.12156945567760861 0.9894387628357213,0.8354065521510728 l0.40461402795565554,2.1852607889583324 -0.5825776987474798,6.246719955220099 l-1.3315518306296903,9.416610331050165 -1.5584034692370208,6.482087917796668 l-1.2501319533812445,1.5527378502539941 -0.8188452883462447,-0.010495272754804863 l-0.7513091444410726,-0.5220811002753593 -1.391133722968693,-2.0156787034551664 m-8.561236812643841,-24.225993573469577 l0.033046537376565495,1.0766891269107897 -0.000236288756260242,2.243969931693673 l-0.08482860466241465,44.48370995849143 " fill="none" stroke="black" stroke-width="1" /></svg>