<?xml version="1.0" encoding="utf-8" ?>
<svg baseProfile="full" height="161.0392923622075" version="1.1" width="100.08658094877737" xmlns="http://www.w3.org/2000/svg" xmlns:ev="http://www.w3.org/2001/xml-events" xmlns:xlink="http://www.w3.org/1999/xlink"><defs /><rect fill="white" height="161.0392923622075" width="100.08658094877737" x="0" y="0" /><path d="M25,25 m0.0,0.0 m19.51428900692455,5.443874313406063 l0.023574743866868583,0.38721883063992796 -0.1976050317082552,0.7902808565973068 l-0.7423420360204042,1.1757728748918768 -2.6329346466424535,2.7914500698319613 l-3.278472592650271,2.5703899276878497 -4.235714174026017,2.459989801810906 m-0.42143261483225214,-6.450649643771494 l0.6847541586257717,0.9380697330588001 0.23660697393922625,1.7820520559270758 l-0.04390801772398972,19.611665555983677 0.2418634193028789,2.46790820886068 l0.3326436078114463,-0.9901797615054128 3.5117026164377627,-7.092107255443397 m1.6844609999568043,-15.06722299230673 l0.44376489046565587,0.6291953540642942 0.2673136922008301,1.4240578050533916 l-0.02916335237801316,12.463045297762024 -0.4739277668639205,5.314738839259799 l-0.8894526931962354,3.5461270497958575 -1.1674770046996383,5.751111775225053 l-1.0770961224011428,4.309722714946021 -1.2035116482651387,3.4501791574611023 l-1.5885595585044643,3.0640920837909174 m9.811801196803847,-39.420483787387994 l1.618428711866145,0.3221319270430792 7.250918460847664,-1.594768012739475 l1.0757608127622396,0.1744269640566222 0.7010322272059771,0.9856195840505864 l0.16258940599106755,1.4847753149588327 -1.0630216086111715,13.189356398054773 m-7.5807507053650145,-6.688880741492397 l7.529954607847632,-1.500004204876016 m-7.325970752080355,9.773663185314083 l6.936032798926046,-1.4021999955903612 m-8.307158760898075,-15.688731070678775 l0.4405123841817055,0.8809292659788288 0.17937498129795776,1.559415720781376 l0.03506684737460462,35.31619772554143 0.23189087330244323,0.8587831098574352 l0.3267558666311739,0.02546310105349175 0.5060027854226626,-0.43089368249574944 m19.177999364126926,-11.162759939139107 l-0.017560074766843365,1.0830120902675409 -0.5367124566802381,0.584575171295407 l-4.645016174925446,3.6312971488464676 m-3.9145977530991694,-2.539709307185737 l0.8890599155885299,2.040722516677504 1.0603083285150405,6.549505752787644 l1.149448208314808,4.464617830714512 1.256100752090652,4.419245384750452 l1.3496846410857322,4.224407748729947 1.3665610195563898,4.278017445365506 l1.2027851575654496,4.400503398014376 1.2454807672261015,4.726347723814144 l1.2136510245909762,4.78861575678737 1.141035896128917,4.758998544155593 l1.1185569336756755,5.1705442217629045 1.103094675274437,4.87418312268269 l1.1257745090164017,4.7228471316050396 0.7955473444110805,3.892928941748417 l0.7210999677402515,4.1194782045586935 0.6098374913094993,2.5658482964895533 l0.686540672473239,0.8304817230212621 0.27369394295717026,-0.0787351929683918 l0.22560981347563297,-0.5975538490521536 -0.010520856888119552,-4.653784458433427 m-2.909336835482527,-24.376921866885656 l-0.05719682975660161,2.223042849754812 -0.663596960285269,2.8109046558982067 l-1.2409576614756368,3.648036613747614 -1.7105387244678505,3.975727003818743 l-3.8185093339078113,6.605547843056445 -2.238093800116919,2.876088852139346 l-1.8468171163580005,1.8811660973890805 m7.8548376814897445,-42.83956587663836 l2.2792570836377264,2.580751670726563 1.3061636237412235,2.248867617780653 l0.5147755675996062,1.5384066820755211 " fill="none" stroke="black" stroke-width="1" /></svg>