<?xml version="1.0" encoding="utf-8" ?>
<svg baseProfile="full" height="113.54884571749723" version="1.1" width="106.01562737624377" xmlns="http://www.w3.org/2000/svg" xmlns:ev="http://www.w3.org/2001/xml-events" xmlns:xlink="http://www.w3.org/1999/xlink"><defs /><rect fill="white" height="113.54884571749723" width="106.01562737624377" x="0" y="0" /><path d="M25,25 m0.0,0.0 m18.683438456422188,20.31511380239382 l0.5334996617100968,0.3352553384479969 0.6073856861017504,0.6943708183299921 l0.24654265308930798,0.8494336149084332 1.8856932008297027,16.509533935027328 m-1.6127308318168345,-18.572936883663445 l24.20782117576401,-1.995415387618487 1.5534019995716657,0.16489137208576105 l0.8004304789633223,0.43284582291600815 0.5326095190329984,0.9694460436495341 l-0.0369002608889165,0.6436748295251788 -2.534756844285863,16.182174023893644 m-23.51399343952484,-8.470913917004697 l24.36064382711694,-1.5958772745807 m-23.495424367053605,9.8251079456382 l21.9486242518347,-1.4596143241139115 m-34.15628809090169,11.34814073374021 l2.0989820061887694,0.30661171775333357 2.784006419225565,-0.007804166252117041 l31.608789176426814,-2.62960753928406 5.80542899622875,-0.18704750216761637 l3.7084237022089415,0.23265629302682006 m-23.68959984848125,-26.79874519301043 l0.637113022902502,0.9079382571793206 0.2870191638206261,1.6252909972043073 l-0.011971683799059111,43.924322359472804 " fill="none" stroke="black" stroke-width="1" /></svg>