<?xml version="1.0" encoding="utf-8" ?>
<svg baseProfile="full" height="112.99391714326987" version="1.1" width="103.40626131302636" xmlns="http://www.w3.org/2000/svg" xmlns:ev="http://www.w3.org/2001/xml-events" xmlns:xlink="http://www.w3.org/1999/xlink"><defs /><rect fill="white" height="112.99391714326987" width="103.40626131302636" x="0" y="0" /><path d="M25,25 m0.0,0.0 m15.171820999213574,6.118389674111545 l0.02162999799743201,0.5234603933856082 -0.11498302708172914,1.3363789266729722 l-0.8080318473668109,1.9656287188570247 -3.382667655158197,5.95283019878113 l-4.0255074116078005,5.2767630561049135 -4.382083176403367,4.254026090054506 m13.796516619759812,-15.830930073297402 l2.7771145615441233,1.6130911383072113 2.8139982453075785,1.9723285079041468 l2.3505835821661223,2.1420222281673444 1.5143210000094627,1.9276365711334587 m-11.16456764968271,0.8279187397665922 l2.154744252395047,1.7025466768820503 1.1930370504153065,1.891879099552461 m-8.257676780095183,4.217698288201433 l12.585475182792822,-2.1440356224152226 0.8614681638844897,0.03335950821928614 l0.5802522963056614,0.3401720946282561 0.31063411320010326,1.185963716670821 l-1.6283429812360366,14.736700373738076 m-12.554100545576402,-7.5043330880212356 l8.017401351796943,-1.153687602374864 m-8.11841284667449,8.502799702892647 l12.207202556449205,-1.910294008563439 m-13.454570318967864,-13.34245526894926 l0.6683658160603629,0.8373152661448642 0.3530082926342338,1.4841058909104368 l0.09884299450796381,24.76655850992201 -0.32666342912156954,4.153888693703154 l12.30783832702377,0.13075305982440755 2.253827084911674,-0.24976448283519728 m-2.718259140130771,-7.365310050763055 l1.771858125677307,1.8584658078532061 1.5749555425676736,2.297622941879951 l2.096550199239048,4.400764280852421 m5.4408841266048436,-38.763870206613255 l1.7417191506540446,0.26491788078749134 2.1250505296971487,-0.07479931619552149 l15.80718649590214,-2.288023441222254 1.4118128199616256,0.7700380994546822 l0.33402864344977357,1.2660310620225552 -0.8203477049482362,44.244136437262874 l-1.0766970256725448,0.625228669871052 -1.4658682593933525,-0.37077497058378295 l-2.7945556883165654,-1.954627655313922 m-16.773656438580307,-31.39791502159067 l2.0670521646408435,0.06576606425853847 11.139072651507153,-1.7616196240134399 l2.1666543680040045,0.05754603581512781 m-14.74220932863612,9.855970489535801 l0.525846580990146,0.8129603776329289 0.3312351324685779,0.891023845078626 l1.2225817415783735,9.244455981828068 m-0.9883825075223873,-10.07670031159311 l9.260252835998376,-1.789669564542328 1.4627685253713587,-0.06466014066964137 l0.46469403070817084,0.29343399453289326 0.24301562420014022,0.9921352763671548 l-0.09659380019267375,0.847868483736049 -1.544673997294953,6.9450330586385185 m-8.680888895414885,1.5800326358483288 l10.078585545383648,-1.1186372279018542 " fill="none" stroke="black" stroke-width="1" /></svg>