<?xml version="1.0" encoding="utf-8" ?>
<svg baseProfile="full" height="104.15009169011194" version="1.1" width="103.21350416228765" xmlns="http://www.w3.org/2000/svg" xmlns:ev="http://www.w3.org/2001/xml-events" xmlns:xlink="http://www.w3.org/1999/xlink"><defs /><rect fill="white" height="104.15009169011194" width="103.21350416228765" x="0" y="0" /><path d="M25,25 m0.0,0.0 m14.391476452149263,7.5116982976242115 l0.03066221591114459,0.5049509619934416 -0.12964563394756318,1.1724159022975356 l-0.8964336848138701,2.134237129413592 -3.2555703795237867,5.467870302365194 l-3.848485173586836,4.784878967963384 -4.248904090309377,3.8889418616663667 m13.756721374729867,-14.760747300617716 l2.665446628193675,1.5492984717120755 2.5203780814080923,1.967884947981449 l2.159614915938103,2.280250381617806 1.4062968994236642,2.0113897228142377 m-10.62680502617779,0.3068977169900811 l0.7247102290423619,0.8577076777682541 0.43755472462258976,0.8680796045367314 l0.0926078538773989,3.6536811035096264 m-8.307185493752437,1.2789043141130236 l1.8979064896033948,0.25561271939060765 11.662529836005344,-1.5717403545018784 l1.4228414762069623,0.06094391753992817 0.5457658013971328,0.27195449158096735 l0.33593640309775796,1.127928694284254 -1.6880249814712267,14.400649493102483 m-12.145214218707721,-7.655257552338084 l12.220797157789432,-1.4176024927351434 m-12.144923634322891,8.618225746890197 l11.488603606294394,-1.3662940323188033 m-12.959189882512431,-12.435188517308823 l0.5081245200732449,0.9377348458402649 0.18779860149105732,1.116081905522639 l0.5918150869997805,26.11192734398243 0.7222445222506337,-0.24010546279365808 l10.767189478706067,-7.1554106545318215 m-2.390152115241567,-4.221848008620966 l1.7259929281095372,1.8375024728332618 1.739222638832258,2.448544274778658 l2.174230426097755,4.500219866803954 m5.323963924507359,-39.48699162550179 l1.75787603628758,0.25091220208269094 2.1978996452664474,-0.14993931191506726 l17.600868873627835,-2.853013929206899 1.6353344009985697,0.36235323318803053 l0.8516268229722934,0.9162276456929592 0.3100004247441489,1.274374592351288 l-0.12889076672238226,40.04488367618895 -0.309110005183701,1.523185797636848 l-0.4060097846252578,0.8267757934639902 -0.5197330053407688,0.3391048549811698 l-1.3108296910050332,-0.2156256278718515 -2.8258979034752656,-2.0009875010380354 m-17.092457253869522,-29.672467233437036 l2.2984939932269666,0.005728383503650484 10.475109106736852,-1.4226325229657704 l2.1631073832353622,0.013986877288686108 m-14.952390011084415,9.253715821199508 l0.5839757990718866,0.8919520888505842 0.2849324073510958,0.9485746775607556 l1.2057146126138096,9.049030056633608 m-0.9110369423074302,-9.880867579890452 l9.91328049716261,-1.6510281838800451 1.4952594941713961,0.09137142123274129 l0.43989813993141863,0.33992382176899344 0.23020816380191453,0.5495314369791443 l-0.01652692732628819,0.762542657373484 -1.5037735013165825,6.931629054321921 m-8.880713455472542,1.6061015903478526 l10.262681457516525,-1.0152308949793802 " fill="none" stroke="black" stroke-width="1" /></svg>