<?xml version="1.0" encoding="utf-8" ?>
<svg baseProfile="full" height="115.53502025174924" version="1.1" width="97.69766664424117" xmlns="http://www.w3.org/2000/svg" xmlns:ev="http://www.w3.org/2001/xml-events" xmlns:xlink="http://www.w3.org/1999/xlink"><defs /><rect fill="white" height="115.53502025174924" width="97.69766664424117" x="0" y="0" /><path d="M25,25 m0.0,0.0 m12.87519453496238,3.4933870019224442 l0.06825649647872985,0.4107244221171789 -0.17125016039263252,1.62019005391978 l-0.9754076990115415,2.193507643542026 -1.9225375021898201,4.946230308988668 l-2.020817752551395,4.2499082519960085 -2.767390984614192,4.457706123383029 l-3.730677207172436,4.695260707311735 m11.950262865463396,-18.07259137472973 l2.1898156132245608,1.865766241156381 2.3404512210676334,2.571932181714607 l1.9925223359905846,2.9924172170958534 1.3306563474962703,2.6749470321014006 m-13.455698950390842,1.778619125895104 l1.4820873797068161,-0.00020212222136666404 5.959968514900374,-1.2122601568552065 l2.1710020970762867,0.0351598867362124 m-12.84294349626666,7.566373381407139 l0.4014328873290647,1.9089182083957652 0.007268776576671452,37.359026117872205 m0.07997667503151565,-37.993634525763994 l11.75806647762674,-1.7162488473923894 1.1020482240467895,0.5469833510638853 l0.36116347075623517,1.0412802586757168 -1.4294630781763151,15.530117731972544 m-11.446125577548925,-8.16106012424956 l7.882148192546984,-1.1270889997373326 m-7.917999176720449,9.173144372027027 l11.429910120568529,-1.460194211487953 m-11.429617046099704,10.309346262756574 l9.545990020638989,-1.572160921492554 2.7735514627394844,-0.006751446873511286 m-12.269191709181802,10.693035252027677 l11.044735288217113,-1.06746604526621 3.4617710758153177,0.057901800141116955 m4.120619361218627,-49.58602768465888 l1.2838680859104303,0.30748208823318374 1.6433452738634835,-0.06280782163589631 l15.579785142128443,-2.838220059704529 3.4664025041893924,0.14162136277054738 l1.7744865389870397,0.4351177194023401 m-19.32346194729542,3.761977810276169 l0.5098157414770913,0.9631298304092712 0.1803679970155312,1.3790928970927125 l-0.1206605882318088,31.993532464051217 m12.240743411180201,-36.75738822088608 l0.48489315944345524,2.1156165072318713 0.10931060385688511,49.41800897150122 m-12.471844432413414,-39.06504053193442 l7.047160006380844,-0.9540628728348095 m-7.232604248486429,12.493438244496419 l6.999600451056709,-1.23235404802072 m-11.547248942022822,15.061145424552759 l0.964974058819373,0.4568044696349055 1.4685162667541747,-0.0925810525753306 l20.538379993946382,-7.2372316248994935 " fill="none" stroke="black" stroke-width="1" /></svg>