<?xml version="1.0" encoding="utf-8" ?>
<svg baseProfile="full" height="111.46352783086536" version="1.1" width="114.8341873919017" xmlns="http://www.w3.org/2000/svg" xmlns:ev="http://www.w3.org/2001/xml-events" xmlns:xlink="http://www.w3.org/1999/xlink"><defs /><rect fill="white" height="111.46352783086536" width="114.8341873919017" x="0" y="0" /><path d="M25,25 m0.0,0.0 m20.054403244132775,17.354048618473932 l0.3067830747074966,0.40720851883376624 0.35357878477839305,1.6104079341942283 l-0.05479921308123696,23.604660564396305 m0.6645472116003048,-24.9706482909196 l11.703010574320789,-1.8486419323607373 0.6181805555453558,0.034868472001083325 l0.8290559551204005,0.38795891845303965 0.3852464306731059,1.0414257824236357 l0.005876120788800843,24.57459780650348 m-12.90423661747778,-13.526524547166805 l12.32689896556476,-1.448276719335705 m-12.461316915794113,13.392453194550228 l12.288869961333148,-1.4874876846076983 m8.436275346521393,-25.30565948061595 l1.6284783063844999,0.2541102267570654 1.9498650778020583,-0.05942232588535341 l13.559508938523503,-2.069108004829237 1.184775626702694,0.2976552953733116 l0.5237386359938916,0.8145737272874861 -0.035143546152743135,0.6043044466771328 l-2.115841963836147,6.7959017266997135 m-15.152279161624826,2.482078197591539 l2.7909724616013722,0.12425595218004223 11.984786974779484,-1.5446445710504004 l2.3995677996086173,0.023681881705924505 m-17.64939059894313,2.2675444425636044 l0.45935458336426577,0.6938375944520094 0.09353932930200824,0.905857739667176 l-0.2822746674741113,8.626899765047224 0.2303546331441289,2.7809857917947376 l0.6555179893999782,1.2572008002914896 1.3748924300105554,0.7950908095018483 l2.3704613198343516,0.4409995344619519 3.664150972799814,0.18504285120522299 l6.375825341241057,-0.08281147346912435 3.632377490347818,-0.4560919273550488 l1.3350131179558355,-0.5281854436697694 0.9717069735390483,-1.1078421049613567 l0.3318558488640711,-1.5874750799856379 m-35.265872706909796,16.998395403786947 l-0.21068890289477385,1.8978992145603637 -0.9553889541017948,2.522441304837072 l-1.3113037885484642,2.377844889898888 -1.5238160924481399,1.9321160109073212 m9.608746444685577,-11.83453079015829 l1.2001490756154836,4.253961669291697 1.0226256814969694,5.680433880131568 m8.7404006649268,-10.106191847728542 l1.24806498611777,1.5042204028239141 1.496969180526651,2.7182282005443015 l1.227274461889013,2.753124104060328 0.5819388255015525,2.0289874877416114 m5.5846882479390665,-10.20972264762878 l1.8302983734838474,1.9869916792159927 2.0539406148855455,3.0431575260830637 l1.581513260391452,3.08952310078597 0.8404245496891745,2.467960697690576 " fill="none" stroke="black" stroke-width="1" /></svg>