<?xml version="1.0" encoding="utf-8" ?>
<svg baseProfile="full" height="106.84884526524478" version="1.1" width="107.35068948555929" xmlns="http://www.w3.org/2000/svg" xmlns:ev="http://www.w3.org/2001/xml-events" xmlns:xlink="http://www.w3.org/1999/xlink"><defs /><rect fill="white" height="106.84884526524478" width="107.35068948555929" x="0" y="0" /><path d="M25,25 m0.0,0.0 m12.346574301891806,21.293133281317694 l0.5843017548457736,0.09681811465228997 2.6589395842392984,-0.018390019091184266 l11.613076679592906,-1.876452096551788 2.2763346700547054,0.06830840680518042 m-8.507067713867395,-11.602161324281843 l0.645894100898182,1.3610047606754507 0.19475085826497765,1.4285976001640992 l-0.022586608600211843,46.09798654155488 m-0.6403468777570749,-35.555215553645574 l-0.4685424338293462,3.003010964431386 -3.2492838734543343,8.060859002326316 l-3.116343665714643,5.849442001059436 -3.386576403054398,5.435153452441997 m12.376149222997,-17.53099086604048 l2.3391291950764845,2.317754028631805 2.679667883617406,3.3661642425926113 m3.5435537724632047,-19.472259802040842 l1.5616330297167385,0.13140028839084877 2.2129927393118374,-0.16496996632657182 l18.66377370967836,-2.6529650240187697 3.044665559187996,0.13142588628771018 m-24.104067352362268,10.782059118864407 l1.568700018929089,0.8151558922011144 1.569178510886723,0.14623330936458723 l15.364960177134362,-2.803689349970152 1.474970935315613,-0.21866188776470544 l1.7627833237769623,0.06825274677101305 1.0194080151202707,0.6216028534678093 l0.3186734513365455,0.5463633202416515 0.05198641295090137,0.6550941167216313 l-1.9053593533767672,9.793377145786126 m-18.83323636726149,3.2173863959957574 l20.421303704187007,-2.327710088645654 m-20.75961759007753,-8.501157335612081 l0.47060631268653186,1.0353730447337375 0.1157478653178239,1.2675500992619722 l-0.6399095492718806,8.440602517534895 -1.016168664245974,6.3973968895406745 l-1.1422972753349694,4.812408135394335 -1.497075602495547,4.2797308592300976 l-1.8747544844078459,3.801365832208409 -2.2599779379767453,3.513128231883014 " fill="none" stroke="black" stroke-width="1" /></svg>