<?xml version="1.0" encoding="utf-8" ?>
<svg baseProfile="full" height="116.73413958640725" version="1.1" width="83.6920753673754" xmlns="http://www.w3.org/2000/svg" xmlns:ev="http://www.w3.org/2001/xml-events" xmlns:xlink="http://www.w3.org/1999/xlink"><defs /><rect fill="white" height="116.73413958640725" width="83.6920753673754" x="0" y="0" /><path d="M25,25 m0.0,0.0 m6.528867167127251,15.24786307352434 l0.4598936111625102,0.1471431333619582 1.829967449684882,0.06780500570841874 l3.2570957289138174,-1.5533657461670032 8.25857298748906,-1.770985968507674 l1.4799274770650168,0.2804579040157224 m-14.778077281480307,10.400741178898377 l2.251597191794655,0.3061832068928609 11.528941157925638,-2.46788306374789 l1.9852625070719447,-0.17405987040127427 m-18.64837913153901,12.60450366038402 l1.221713544256672,0.36331000345618786 1.3648709159434436,-0.13283289518404787 l15.375939746678453,-3.533508795924684 2.4171564964305623,-0.22448982497175488 m-10.20249871698938,-27.776786097443726 l0.4878930575024427,0.967123121601543 0.2729576263118509,1.6284344909776953 l-0.023037742172850133,26.836584348641416 m-6.561193324742526,4.332445024455585 l0.13025409379222527,2.0122446257148905 -0.20682722688776536,2.66641791588672 l-1.256110256710902,6.435614592905499 -1.6340630155823104,5.65966288451175 l-2.022848847099534,4.861929425486314 m5.0266847574585105,-11.985761167225297 l2.2565341297795425,1.3565327674801686 1.9160456769210343,2.1228930883349086 l1.734280644100713,2.556375977498313 1.1333268091745439,2.50457193693325 m2.980941199571906,-35.45741258876613 l0.4298306462811778,0.3910348089933018 0.9206019991733517,-0.021661559230489166 l11.61298815390845,-2.598042228265277 0.8631236535537941,-0.09136130931667194 l0.49688917542829647,0.34037804762971274 0.268133542010394,0.5721008831743268 l0.08941812607413975,0.7375310095208938 -0.29354976345544964,0.781762052696309 l-6.097185888633023,12.236834366959624 m-4.073667375493608,-2.6411442365109004 l2.664045256167183,2.5922352205834542 1.9005069437157014,1.9638654951441685 l1.1636056097520908,1.6769533963597623 0.8597122079744293,1.7988597914323816 m-10.436389656838884,4.280904236871777 l0.6239492675146159,0.853964451707588 0.6728070189530474,0.30395046416364635 l13.445410602439233,-1.1531420052772519 0.01615741589837804,10.15724986852794 l-1.1604084413763145,6.728707645111305 -1.5457710213408575,6.020525237220104 l-1.0509703011246174,2.444769380730288 -0.5435036396084508,0.7333852895819293 l-0.5478564976761883,0.34272793026886766 -1.008639682969655,-0.26983770451633793 l-1.502330206570173,-1.6235278827905453 m0.22427089188452926,-27.060020584821135 l0.021327280557112832,2.2568630952752953 -0.6710788442221816,3.5658065942784303 l-1.0992017540233314,4.51492679794389 -1.3482925321843264,4.533084064858133 l-1.308334166298644,3.6698489655408086 -1.5510362779501519,3.6665700257625704 l-1.8241112615229007,3.4858373885859697 -1.5725486251403011,2.4677984377276303 " fill="none" stroke="black" stroke-width="1" /></svg>