<?xml version="1.0" encoding="utf-8" ?>
<svg baseProfile="full" height="107.0848091840775" version="1.1" width="103.3698019484597" xmlns="http://www.w3.org/2000/svg" xmlns:ev="http://www.w3.org/2001/xml-events" xmlns:xlink="http://www.w3.org/1999/xlink"><defs /><rect fill="white" height="107.0848091840775" width="103.3698019484597" x="0" y="0" /><path d="M25,25 m0.0,0.0 m6.980581961366148,4.711974611132874 l0.3902142404459157,0.10867762405497701 2.1883593279207294,0.052514961733858494 l9.242866635374426,-1.605452102665363 2.658802810961587,-0.2568360870070044 m-7.292401131106253,18.519514437674598 l4.927925095815594,0.29873633403957767 1.2921326646169136,0.16713648639045856 m-6.316533060204701,-21.110553622674683 l0.5867572728646651,1.6069826994531005 0.20569304583196266,2.4339752530105137 l-0.0727986508868048,36.56475888074226 m-6.900946716655041,5.661958971669874 l0.575590063295918,0.7367020873691795 0.9128339493591126,0.19499310470184528 l11.039692966910232,-10.793755357674453 m4.686637750001088,-32.61937316380487 l1.5741075698888247,0.2642266462313514 16.35669633553705,-2.2585164355938456 l1.8194199031455174,0.2590564058767089 m-11.359982717298251,3.2490924513683663 l0.15929028959737876,1.6964657922856574 -0.12338010346467859,7.477658091618649 l0.09235606784953668,4.760953731354533 m-6.3624149157412235,0.7538528262693274 l2.1824149346895276,2.286049263434826 1.0073002589469555,0.043719049500889895 l5.562468100939349,-0.9482884442131138 m8.84616251670847,-9.912785659916201 l-0.14075006439356427,1.2122517693603014 -0.3597683152489612,2.117742973945917 l-1.8310640699127203,6.110382239185091 m-15.019196891037843,5.891738163713079 l2.2838339237994334,0.2030140899231514 14.189587018869615,-2.0857509475108698 l4.6226093540593,-0.2729996945156919 1.8796494547085998,0.22390105549553202 m-12.824113439862057,3.154129964676551 l0.42052009197206436,1.1004724323441966 0.15355011621124778,1.3319351837643874 l-0.053722834403604085,21.886491807727356 m0.6402847198272277,-12.688350804429664 l7.04845906399577,-1.3054128710937292 1.2408852035454372,0.17829504855835054 m-15.902565502837858,-2.1303089019581494 l-0.07909253255689437,1.915067616286105 -0.5543529825189347,2.4071125135123506 l-1.9017446039059778,5.632890141845769 -2.171318173141096,4.956456785900491 l-2.7469985296052735,4.9023117809831005 m5.869322967006189,-12.0152791965828 l8.653164410280809,2.4534896326327216 9.797866277421633,6.717311281901552 l2.3264033196197347,1.2460340665518055 2.968507499857483,0.6713701352558578 " fill="none" stroke="black" stroke-width="1" /></svg>