<?xml version="1.0" encoding="utf-8" ?>
<svg baseProfile="full" height="118.94992171973391" version="1.1" width="110.48668988961413" xmlns="http://www.w3.org/2000/svg" xmlns:ev="http://www.w3.org/2001/xml-events" xmlns:xlink="http://www.w3.org/1999/xlink"><defs /><rect fill="white" height="118.94992171973391" width="110.48668988961413" x="0" y="0" /><path d="M25,25 m0.0,0.0 m20.825618464501456,21.244959234685 l0.5237471842850239,0.3062942105360939 0.6290956452725496,0.47789674281336886 l12.359283002889116,0.5719215586352822 -0.5354394158856388,9.459047046976673 l-1.1496738953533694,10.578823420521104 -1.274535395902272,5.681369282086181 l-1.349370366467806,2.81504033885122 -0.6160673212335924,0.48965888440834054 l-0.5652769941585595,0.16840447384390342 -1.0840275853882113,-0.5437261435812192 l-1.1708117413128618,-1.4141950964885437 m1.1690718508192048,-25.76585818502955 l0.06303168229479565,0.9983687495639999 -0.07266591166725492,0.9846984750488247 l-3.1781771859792807,8.093898423255894 -3.3010902962106696,2.970772786021339 l-4.819162815931653,1.5419382528497068 m13.718159205580333,-19.456321774297493 l2.1505705666819055,0.3269242550946012 1.6655188763378443,-1.9766250587695195 l1.1172982480824516,-1.8399500840612393 0.4673470111152209,-1.1557332972514467 l0.6727297082950352,-0.6817910004731627 0.5386101646870637,-0.3647394917313638 l0.610621868916883,0.07305777399328552 0.4004614893132193,0.2741704927606375 l0.06262923720471676,0.49601385399841114 -1.2200444919374016,3.7465822122123287 l-1.63539953359227,6.91547983340366 -2.540532313483406,7.356916570749337 l-2.923041517094952,5.783189184832118 -3.8746248799782057,4.933403735678961 m2.8929168190152743,-19.516639124239667 l2.6272580775372822,2.3081297633212348 2.1912955044408275,2.111949950378957 l1.9212962207084476,2.3610610561530962 1.6577933860542522,2.810770941481083 m10.016178645497648,-17.826480712729996 l1.6432831729555248,0.12618104209074094 1.3913517075466166,-0.13520485761734627 l8.624694756601533,-2.419955334963986 1.027021008932558,-0.003884951104026833 l0.5527583105552756,0.2786661173325247 0.2769897350694558,0.5278966179977281 l-0.5407960205600717,13.286508630107729 -0.7718463298863878,6.513254990584018 l-0.8861180533077126,5.132475338928699 -0.43476351569369803,2.6315053626405103 l-0.39898565515359047,2.3655648110746688 -0.41650398813935957,2.6387132803074036 l-0.40278618102479186,2.7821797710725416 -0.37309082565615326,2.6780482889776955 l-0.36136338210120006,2.8622020435301057 -0.354890751983107,3.338399466241171 l-0.3188757885385044,3.349850867684288 -0.2779975847455347,3.663887843957608 l-1.552499938133052,3.9949508553903987 -0.4241687600802833,-0.12715233542436524 l-0.8877978450089163,-0.809413900481315 -1.1628156905092166,-2.0067883937549826 m-0.47618694722928834,-30.796433166069818 l0.14294042112109953,2.0374863931107896 -0.6123520500102286,5.734563481138426 l-0.7975137247006199,4.550259524685573 -1.1484751955606298,4.454239113990272 l-1.209249062765229,3.5165388685498993 -1.421483637368769,3.388742830447432 l-1.6958558639223238,3.1961717218690504 -1.5655167164976047,2.289926636519059 " fill="none" stroke="black" stroke-width="1" /></svg>