<?xml version="1.0" encoding="utf-8" ?>
<svg baseProfile="full" height="120.15415936476344" version="1.1" width="98.82629938177686" xmlns="http://www.w3.org/2000/svg" xmlns:ev="http://www.w3.org/2001/xml-events" xmlns:xlink="http://www.w3.org/1999/xlink"><defs /><rect fill="white" height="120.15415936476344" width="98.82629938177686" x="0" y="0" /><path d="M26.7842161821446,25 m0.0,0.0 m2.5589977352746276,19.958948131076884 l0.3246956743646783,0.3755232809285358 0.47952226497325307,1.2981079274000518 l-0.019589722874408737,10.883343328909708 -0.25318321231973734,6.100271109189312 l-0.6257485821649348,5.709206567416969 -0.7098257059282939,4.590980598075994 l-1.0284001069440123,4.278350878988512 -1.171342914589207,3.191963313397422 l-1.3393416119365655,2.6232984264692116 m5.546281752527978,-39.44301631928743 l8.192838938063844,-1.7483989433038212 0.6200711264823969,0.46453148115331366 l0.3120131312061049,1.1700209520659082 -0.2817237860080851,38.02638054493029 l-0.33618381285654036,0.92060059333848 -0.5221600211631425,0.3334373757811447 l-0.6203308521396849,-0.16699276839271604 -2.3087718939529345,-2.0011232226685802 m-4.894508172178641,-26.77035641777903 l8.569954030839744,-1.0314500982562411 m-9.13767182097844,11.150764212356533 l8.967546228006986,-1.047698207912495 m7.994750260383002,-15.091821129721374 l3.0751983875252185,0.08962007699389223 20.28615005046709,-2.4197397045923195 l1.2804133054943116,0.01990965201835189 0.5955175937025182,0.2633804040521772 m-13.314347913735283,-5.671665577593026 l0.6384718357539174,0.9036268989367692 0.23114630526275526,1.1560485518594605 l0.12712464705963836,12.866587790880756 m-9.724834608715753,1.272342195297812 l2.622732795174634,0.14845465780679284 14.102499332436937,-1.5693381972856142 l2.7473710277381906,0.05120912984574463 m-19.389415816976594,7.162323531325286 l0.7544356517588539,0.9705890640399446 0.6366324143592389,1.194823824205185 l1.7053117705050316,7.609109605516178 m-1.5810419112709817,-9.139570421831184 l13.666796270036276,-1.8257993648859885 2.501897362764677,-0.14703423521172695 l0.5482325801891055,0.25588347916294996 0.37551262130047125,0.9488172786701533 l-1.6043974346674772,5.889968102264558 m-13.622863585564,2.051939534654881 l14.806961625571272,-1.570434558068979 m-17.42609549206203,5.7612065885336 l2.1387930049350916,2.3588814933441036 1.5234768476448362,2.788297018858369 m14.266721698609212,-8.16559727963933 l-0.07354398557043487,0.9109045308917547 -0.724277055997243,1.1856804342825322 l-2.963421121319619,2.106954754813194 -3.2672345465017743,2.0771740122338 m-1.8293100378675502,4.661181170717314 l0.20805983513810886,1.3186724591661132 -0.05714515771870527,0.9146434360999267 l0.053953179793617294,9.950237413243418 m-15.286454184742238,-11.479894159089215 l1.5346036112152588,0.44799741288798667 1.74177781766559,0.013529166368883768 l16.777503151891313,-2.0012900553214474 6.4010077479008025,-0.32964715592815785 l2.2402746543599883,0.14385908101162667 " fill="none" stroke="black" stroke-width="1" /></svg>