<?xml version="1.0" encoding="utf-8" ?>
<svg baseProfile="full" height="98.84192805244398" version="1.1" width="120.00803972627642" xmlns="http://www.w3.org/2000/svg" xmlns:ev="http://www.w3.org/2001/xml-events" xmlns:xlink="http://www.w3.org/1999/xlink"><defs /><rect fill="white" height="98.84192805244398" width="120.00803972627642" x="0" y="0" /><path d="M25,26.760560017283336 m0.0,0.0 m15.03649227105179,5.0155428114382845 l0.5311216960235912,0.1408238037198637 3.4843977880466506,0.18416291464741377 l29.25169218814388,-1.9449943460055337 4.712629202602651,0.2517226249116164 l2.9236666932352056,0.33578846218134817 m-32.58721604244464,-4.733300773879958 l1.0597679062836693,1.6433999273075144 1.6043366560856211,9.79368462858711 m16.843457562590523,-12.447390070190995 l0.2564081046267198,0.9420154551057427 -0.10518620349605713,1.0276059333164853 l-2.770012438339732,9.370997241818712 m-26.235679252841944,7.113855712634805 l1.366410450366549,0.2972019016310575 1.7875707275386978,-0.02074840275069658 l12.008329743936061,-2.608684425636715 0.7991732676945963,0.34587045245671844 l0.19671973191410067,0.556035624226399 -0.42560739591765545,0.7511407107107244 l-6.332522014743002,5.709020060487107 m-3.803727894771885,0.87228718917527 l0.996690171000747,0.43160538118371655 1.2101174154341676,1.0630189654510989 l1.709828294222756,2.2120634400687798 1.4592823387547822,2.0515788040892207 l1.0686565157489407,2.2480665594723757 0.7240170309707145,2.470471408157806 l0.36702651191280944,4.183988143568287 -0.32028631343550973,2.9591205989501494 l-0.6636592628819932,2.6379633325111 -0.9813309090709468,2.623192227736378 l-0.6023382891309711,1.0036187124333409 -1.2670701823180088,0.6006430256461202 l-1.2787907741502271,-0.3577599185874728 -2.057577681215758,-1.6282366418364305 m-6.220537498803207,-11.51606563337948 l0.6611108052882947,0.37444776203097385 1.640951678151454,-0.04149142553524302 l14.179450092576058,-6.688202541113075 m20.745370842096385,-16.25584338736033 l-0.30557672441437,1.0410949512647465 -3.6041150264540134,2.519183945711761 l-3.584457578732662,1.7011484850844132 -4.563042226869452,1.8210651431057512 m-2.4589049127780953,-0.20044227422584843 l0.5831027526381758,1.2001677735134393 0.027477978830726557,4.5621632551325435 l-0.3973547595542902,6.6849686202688305 -0.8508583592915355,5.044767332670863 l-1.0011104837330904,3.436787148648688 -1.4211322752900601,3.0846651232662716 l-1.9583821684993925,2.7971887710208847 -1.8076605155978378,1.7910092762448622 m13.90285555845452,-27.661273914058356 l0.48092021817878194,1.7367842607812702 -0.08497444583578706,23.65092278216893 m-7.151047527393348,1.447248770254719 l0.8603868027263989,0.2930692648393475 1.2067134762960896,-0.04849385727404115 l10.945292801774695,-4.089466743839771 m-1.1133261907515062,-3.4176643834154308 l0.9852435280449592,1.3185879006535532 1.2333139402238673,2.2233474992180913 l1.2853086051603857,3.884184119144373 m-2.737417993678882,-30.30209460758475 l2.840847571592451,0.9287272297306846 9.122827340270273,7.6966087791792965 l3.9377898842208308,2.9323512544902046 2.703284872123353,1.9415274531934217 l1.9589020518793743,0.9113782373288072 " fill="none" stroke="black" stroke-width="1" /></svg>