<?xml version="1.0" encoding="utf-8" ?>
<svg baseProfile="full" height="95.75843984686452" version="1.1" width="104.59075042093532" xmlns="http://www.w3.org/2000/svg" xmlns:ev="http://www.w3.org/2001/xml-events" xmlns:xlink="http://www.w3.org/1999/xlink"><defs /><rect fill="white" height="95.75843984686452" width="104.59075042093532" x="0" y="0" /><path d="M29.409457589594343,25 m0.0,0.0 m18.167320165619053,3.5441686839045285 l0.41950379600449933,0.4151643768410825 0.57511521513811,1.7107291860129132 l-0.04769549748376463,5.10438221559105 m-15.662595938235215,1.6963451341542117 l-0.9471009492244573,0.27591176261994704 -1.6538481513490835,1.799500898003364 l-3.1839167529486776,2.8892435938610688 m-0.5305132547456672,-4.735930707011835 l0.440156451167759,-0.5793524691895732 6.8298970999576465,-0.17305348098107737 l11.298508252761614,-0.7533232641382906 1.3510389474080036,0.13526986902495453 l0.7870365574892372,0.26200149277069135 0.3806116121153272,0.8764014802260187 l-1.746390644505541,6.734082461266572 m-20.13489042200743,1.051795268075288 l2.2647028602988897,0.0918370833117339 18.78396664471901,-1.4754685056521106 l4.46449951362112,0.047126334515478194 m-22.910635353590347,5.566933230045386 l0.784015956199603,1.3789894263707043 1.4929035116598237,6.300965434303265 m-1.034905513961864,-6.951113123369557 l15.987043250253835,-1.5299053192512249 1.4216338188687432,0.21028038588853584 l0.39901805537547563,0.6786890216110477 -1.5927953336601648,4.4603153459174845 m-14.535699037922791,1.3742050315736636 l16.110669788960372,-1.1081756886381298 m-17.70235552222874,5.222910830559095 l1.5162718626957639,2.3358515489276455 1.1748269685988026,2.698287640828708 m11.440747003626525,-7.30395094829695 l-0.07015309836334906,0.8222689660821486 -0.7771977929778576,1.6288595866008784 l-2.6998291812683672,3.9904772892775573 m-15.268422477660232,3.9951642233938203 l1.7701481207311582,0.4838223890165169 1.5387284605500642,-0.11753048085076455 l21.8519684483992,-6.023865847172598 m4.707273563308057,-30.026918895674964 l1.6087898681723782,0.16730262740632265 17.579130836759106,-0.17930580868237028 l5.534711123015368,0.09074729954591781 m-14.391211470523546,1.595451300024658 l0.019277122207066146,0.8281160122484366 -0.5685593679301024,1.3018486265053197 l-2.7557280770670682,3.1569572465373628 m-5.087083419916056,0.6494292721236902 l0.7060192893152901,0.7739266728314464 0.1138224756079389,0.8317992044951339 l-0.06161638608110695,19.903752774147492 m0.603557913902541,-20.566852485003064 l16.139579132644783,-1.4352220121218378 1.4972175854666987,0.063334409235172 l1.1178825092590094,0.4908736573592482 0.4798183484205341,0.916405893890864 l0.03319707265048729,20.059935907184638 m-19.291444932294183,-13.955009884231943 l18.450637045751755,-1.211773743734962 m-18.325594558396215,7.809295642284713 l18.472443314984734,-1.1073384895991152 m-18.53666437725825,7.716978525332392 l18.457230612307796,-0.8392930479803135 m-13.894697580779171,3.1594887719819167 l-0.464639176948916,1.2810738093190683 -1.4395490532999933,1.1495112693731808 l-3.9971668412834043,2.5224094815147815 -4.628020075947498,2.5104798863900037 m20.206348981619026,-6.886138596489018 l2.637885575579884,3.2441111835997614 1.6666733630226138,2.6119356016477377 l1.032021595533653,2.1008173793795986 " fill="none" stroke="black" stroke-width="1" /></svg>