<?xml version="1.0" encoding="utf-8" ?>
<svg baseProfile="full" height="84.15917901261633" version="1.1" width="120.62962019834627" xmlns="http://www.w3.org/2000/svg" xmlns:ev="http://www.w3.org/2001/xml-events" xmlns:xlink="http://www.w3.org/1999/xlink"><defs /><rect fill="white" height="84.15917901261633" width="120.62962019834627" x="0" y="0" /><path d="M25,28.010654486227086 m0.0,0.0 m20.098952569173946,5.525654163909604 l0.29995067887747767,0.23130375654825994 0.4217474546324673,0.6412564477996653 l0.13691387615868528,9.236779378786549 -0.44308776632711583,4.55823738256667 m1.0764578997136394,-14.886140750876597 l15.414250944890457,-1.2609694344382008 1.4585803712945946,0.05390328890910658 m-18.158453636433347,6.4635510785404025 l14.25926727782251,-1.2567739582424475 1.5570482917743844,0.037224339771900344 m-16.606003888868955,6.225026782385166 l15.2633172603926,-1.250271572210086 1.5820765933452803,0.0786931143491601 m-27.635605399164085,7.498443773063355 l1.8454451351237688,0.14365293669432794 3.076137011550906,-0.127588837095563 l20.796485323603807,-2.0348060059662294 4.3697873993466745,-0.20575458097391175 l2.1317009859256864,0.1419520413085409 m-17.17148825259453,2.891864161905014 l-0.28880360574979086,1.2482013455523298 -3.983576672703939,5.774366076371076 l-0.21073277024825937,0.8003396313955979 0.3076772942468158,0.5215206921277034 l0.7823986765555191,0.09885927420785523 9.05523774000439,-3.936013937613285 l6.582820362575174,-1.895842632726908 m-3.823503781760813,-3.789169693618222 l3.0548957122043663,1.3118219436744565 3.0360316593768037,1.8867034332200632 l2.544096558002931,2.1134322930899816 1.3840335916813946,1.6745481515818639 m5.7598071329123055,-30.322870921127382 l0.8177670839193858,0.303858724362071 1.503530344040146,0.04155815506682374 l18.53688063894772,-1.5472045285257978 1.3012673975783406,0.19705166834676283 l0.4963127065249315,0.6666433858137053 -0.05453061268866558,0.5426548578456413 l-2.4397082960534258,5.487237569436384 m-18.25104888064331,1.6096820074973217 l20.067343490465927,-1.3341619268874583 m-20.08015006390686,-5.62807387580859 l-0.14865386968588354,1.0533478253301953 -0.4382351794324636,1.4809655837955038 l-4.085371952928538,4.728014185806992 -3.9749798362807796,3.268533706161849 l-4.696439480558259,2.9081357568148025 m7.698538257903269,-5.721872915999016 l2.8411601273612184,0.0989887535284849 15.156214826596758,-1.0571400927222876 l1.6443030571936796,0.11135041523370547 m-21.885504960857148,1.2354307549820716 l0.5160324245559511,1.1478776640434891 0.05803894993294986,7.103255869487464 m-8.926763128061253,0.5211463965823804 l2.9883571076528104,0.13073760582576133 23.811451858681007,-1.4052002282808633 l2.9809365285484195,0.1159097579902728 m-15.76600640897813,-9.089771339861537 l0.91962441698154,0.7186791120644961 0.2826385518072939,0.7427611903557853 l-0.11057943422776394,21.90829431361764 m-12.584425691412493,0.8559296477497843 l1.9586653617560015,0.2700118985625613 19.481261608850122,-1.3814647173644738 l2.052599282579326,-0.035538817320074155 " fill="none" stroke="black" stroke-width="1" /></svg>