<?xml version="1.0" encoding="utf-8" ?>
<svg baseProfile="full" height="113.92279505476998" version="1.1" width="98.95749030366946" xmlns="http://www.w3.org/2000/svg" xmlns:ev="http://www.w3.org/2001/xml-events" xmlns:xlink="http://www.w3.org/1999/xlink"><defs /><rect fill="white" height="113.92279505476998" width="98.95749030366946" x="0" y="0" /><path d="M25,25 m0.0,0.0 m6.462130963344703,13.455318857137751 l0.40195715637308493,0.137933404630654 2.024750892539591,0.04826805617519388 l13.18742845526715,-1.9453675087481277 2.315875987125693,-0.1324858361999472 m-17.381913242878266,8.80006505422395 l1.0086306269995826,0.7207146558998628 1.3593758643787661,1.4500468287575576 l1.20304746339351,1.69832699544228 0.47238076436026244,1.436095693811723 m11.773419962789665,-8.60725472491455 l-0.29672198339724243,1.2963914520163622 -1.12767913279117,2.1243016566323103 l-1.3626132454475994,1.9754271290652616 -1.595984739305455,1.694529703651354 m-12.484274509456199,4.3825487456250976 l2.7197571979996527,0.11536764274386979 13.003107386561373,-1.9740858771464425 l3.1280826566862996,-0.01817710201254124 m-20.229493846863306,11.156346605482424 l1.7299581718025074,0.21947097500329418 15.450994180312785,-2.248527462416665 l3.091641676327538,-0.1927645371402376 1.8625424728608075,0.2244523652756269 m-11.20273315604317,-15.191808511839607 l0.4618515156248375,1.0540555895401764 0.11534888459205032,1.0912015690577943 l-0.2163795634744502,8.5142339110465 -0.5772332138412899,6.25490061232254 l-0.8113190497087122,4.389430683796724 -1.2516180873826124,4.076813012983951 l-3.7470207782057194,6.270237792225211 -2.4332361726687144,2.384329726155499 m22.07090574309437,-43.25534275245168 l1.0166150908999716,0.29849221520900443 1.6504968824166524,-0.06101756463959591 l12.82313306922822,-2.0191662443642584 1.26728048226224,0.586251018516377 l0.25735508839897553,1.1345427649712265 -0.1756620840005011,0.6767402449221205 m-15.776163349980463,7.110744861184029 l2.592222548123632,0.2004883087324554 10.83943586174272,-1.691268989922328 l2.7517091310751143,0.09548644471581688 m-15.597925490516724,8.306473174179741 l0.7877241700864999,1.3214727665823107 0.31683905317380706,1.6694115259096878 l-0.08910674921265517,23.7995932932545 0.08261584638546429,1.3431148921273939 m0.5387809556664073,-26.80345290868571 l11.553062238920702,-1.767068821420198 0.6619102777501931,0.05366880055998521 l0.8800092928542242,0.6885247687286052 0.2672154537567306,1.1973319878572226 l-0.36918669396280346,26.26463364686001 m-13.553785042738568,-18.056706522853535 l8.501995295789055,-1.3557623018406775 m-8.373373313713918,9.321639109980039 l8.530034817375642,-1.0436133471826392 m-8.217461049329122,9.260864620089745 l12.911532553595704,-1.1008405790768823 m-10.07916926774434,4.6337216847145575 l0.15591189121749827,1.1229419755581502 -0.6922058904615203,0.934764963543075 l-3.3181776975757953,3.633077633358895 -3.1214821095125758,2.762717227367678 m14.454908628487246,-7.528705441699582 l3.6578077591762184,3.5546863374256867 1.7959414985454616,2.253762884842444 l0.9016838545197438,1.5539818847005262 " fill="none" stroke="black" stroke-width="1" /></svg>