<?xml version="1.0" encoding="utf-8" ?>
<svg baseProfile="full" height="119.11094058376833" version="1.1" width="120.0825072930758" xmlns="http://www.w3.org/2000/svg" xmlns:ev="http://www.w3.org/2001/xml-events" xmlns:xlink="http://www.w3.org/1999/xlink"><defs /><rect fill="white" height="119.11094058376833" width="120.0825072930758" x="0" y="0" /><path d="M28.586510021291378,25 m0.0,0.0 m13.879160563691842,3.8041483904114535 l0.0327133097488771,0.42681610911143375 -0.3576992951509853,0.9323685972718015 l-1.242373366289061,1.510612628075077 -4.569998665561521,3.771028499544139 l-5.259288913262865,3.200904869451937 -6.0690236544676655,2.921033695753972 m18.487053963563724,-10.880937259762456 l6.1151011171511165,1.058527275175208 4.883743408692905,1.7731017002540268 l5.579655305963311,1.7675603943248055 2.9427795854171728,1.6083397011011151 m-14.72772052471939,0.12007372505182838 l0.4865299204489413,1.2363303823351046 -0.14457436465766393,3.304481369850234 l-1.0923679915002795,3.860751961114537 -1.790183516161358,3.8612919126122973 l-2.6679360569820685,3.7725988082367983 -3.014680362672685,2.985166013459209 l-3.5737587361157734,2.6419035286880734 -4.255326077015269,2.3397332118819105 l-4.892408363729963,1.990669242669691 m6.962522185912208,-17.81787047540612 l4.518959223341281,0.262754049876277 19.186983935133952,-2.4403864695824096 l1.8086456095198302,-0.09402816353294668 0.9212916434979868,0.19917748565928295 l0.5590722391708761,0.37482549199915044 0.18454263189786008,1.1196519122143482 l-2.6931727109614605,9.970885448702907 m-19.052222052205178,1.3157151342677236 l19.706505163341134,-1.208583868346118 m-20.704736467192077,0.8498572803821766 l0.784024346263262,1.22389394297991 0.3265217187488344,1.0709873050934764 l-0.1447044201374112,17.855629857362956 0.48173199252729504,1.5790126961043789 l0.8239627072699297,0.5111371773644924 1.1334271415855384,0.03626268799947771 l1.3359700375059993,-0.365167668111209 14.258562080549977,-4.677324139063279 m18.64311335933764,-16.771666759157778 l1.6782079868113438,0.42277758647153274 2.192415572928996,0.004171102704049451 l12.773926432149855,-1.754174393351236 1.8933381259831228,0.9246356236941661 l0.1677115024123086,17.631170916368415 -0.902252934279984,8.341893333223735 l-0.6511936184256922,1.7507013435756318 -0.7813375117488439,0.7837253208007747 l-0.881533392602393,0.20705882613891813 -1.940189244479998,-0.5960852502580701 l-2.309498580235724,-1.4912542260870572 m-12.122101845112697,-24.964640256097105 l0.7527612061209038,0.6935129095542878 0.410869275445095,1.3066877523352907 l-0.0769626167679074,34.849492311276094 " fill="none" stroke="black" stroke-width="1" /></svg>