<?xml version="1.0" encoding="utf-8" ?>
<svg baseProfile="full" height="105.74880196281688" version="1.1" width="104.37597454932208" xmlns="http://www.w3.org/2000/svg" xmlns:ev="http://www.w3.org/2001/xml-events" xmlns:xlink="http://www.w3.org/1999/xlink"><defs /><rect fill="white" height="105.74880196281688" width="104.37597454932208" x="0" y="0" /><path d="M25,25 m0.0,0.0 m18.379040580800527,15.61112319551452 l0.29721712455125027,0.3315450905478216 0.43919190115637957,0.9667887114452561 l0.07216402557584371,1.2612623336731592 -0.06411457614349736,37.57808263163612 m-11.650839332888411,-38.95751367439516 l0.6881099629446417,0.8600994656688028 0.15675069691210541,1.0771303548034712 l-0.6534319608517493,9.265718884956884 0.29882503258933846,0.9362777733707719 l1.1383527670660654,0.18993447981500594 10.887080073523753,-1.1163395002100036 m-16.57755729806678,9.27934404373762 l1.6904589646543795,0.20875709632764036 14.44796838413779,-0.11585414468862475 m-9.430235345791045,1.9267945739880177 l0.31786211804108694,1.4438230940670465 -0.8222291393230072,3.130292804998658 l-1.998679110945967,3.1645647001902653 -2.740807971420031,1.7144683530791034 m18.650318655287332,-18.149962079754964 l2.6047382895341085,0.16009741790693566 21.18117829794323,-1.6940747776885072 l4.986541733654654,-0.2420503277910205 2.078070676380083,0.16598108416574586 m-11.418250860469582,-10.7234647294837 l0.6892469483776579,1.0305449385104999 0.347319987612823,1.2344173000710503 l-0.39520090622330545,30.803176524218134 -0.34970749705443477,0.8501924223802905 l-0.5442904245619948,0.3335689473516053 -0.6851804286560823,-0.03563999072302997 l-1.6010164765025132,-0.7246889262540438 -1.8429070205010702,-1.2893977087923352 m-9.446535523309128,-15.921539105335949 l1.7714725378481815,1.2853997504390098 1.7939548883004355,1.7677521233645868 l1.4586426081420367,1.9023453502273797 0.6177495221040188,1.5127219499583657 " fill="none" stroke="black" stroke-width="1" /></svg>