<?xml version="1.0" encoding="utf-8" ?>
<svg baseProfile="full" height="109.06858855376011" version="1.1" width="104.75915927989845" xmlns="http://www.w3.org/2000/svg" xmlns:ev="http://www.w3.org/2001/xml-events" xmlns:xlink="http://www.w3.org/1999/xlink"><defs /><rect fill="white" height="109.06858855376011" width="104.75915927989845" x="0" y="0" /><path d="M25,25 m0.0,0.0 m14.229459018699385,18.732605066171253 l0.4054939348375045,0.36400947791608507 0.48044910399465807,1.33482972100324 l-0.028946602036520983,6.757044502509446 m-10.99491654627488,1.3125596574240734 l3.1237363604428583,0.03984205717828017 14.004148585469505,-1.560032626212478 l2.679088003631682,-0.1719888529692844 m-16.032573926281362,6.386798269530615 l2.0757227518306163,3.263740845918642 1.1173485970980883,3.319778174753716 l0.6173135804275199,3.0205129381018505 0.2867076932611089,2.999083061992146 m8.059274486539687,-15.894739869332772 l0.2993404139515471,1.4130660647447795 -0.4396109499623883,1.910652384768022 l-2.2603029399689745,8.085661987554488 -2.0798426092495523,6.3313315587335035 m-9.95899880379112,3.9219116417228403 l1.0006104374879483,0.46059502932400537 1.4916852670386516,-0.1301888419388471 l16.229590805837972,-7.218198799882176 m13.71565646163455,-27.875948404973904 l-0.1928448904265118,1.1327456185653468 -1.2928210325590577,2.2332738071569813 l-1.9950941553740889,6.655321967905086 -3.1536088802055344,5.097036775468143 l-3.4793325344922867,3.5330296025601604 m11.288909479825723,-15.258116899804772 l2.893289139026228,0.18278803470631744 7.646197231662398,-1.2012763078747881 l0.9462158699373188,0.19953919878529294 0.3869111700945325,0.3609744747618608 l0.06457712583673211,0.5279827252318506 -3.3623944870566147,2.525593267426817 l-3.2921599093243326,2.6585648544773424 -3.6362427319260386,2.726683438378029 l-3.9894055704003932,2.593624600207071 -3.217087439547902,1.8039365157109524 l-3.3680074394490567,1.609034628307166 -3.4685042523831675,1.3320146976655374 m7.6399514056375315,-13.433810013060073 l1.860630692868599,4.479913870382776 1.0714211808560337,9.614090996473346 l1.1331562410823874,9.482675771379883 2.6994591882542442,3.088958509744631 l2.5683194410006838,1.5654345012789361 4.587266925803413,1.0131448510517134 l3.4898725272198483,-0.2632565632245519 1.3006749159788278,-0.45828501202165056 l1.0783567962283456,-0.931685685176747 0.45352939494534683,-1.234438115666987 l0.07749075216673981,-1.6465635525362612 m-26.331638993418313,11.988644692953368 l1.553953638905407,0.28808825850981323 1.7728404825529236,-0.0779326776022352 l16.13185664414512,-2.0987812617331842 2.7092535285797745,-0.05826148953642316 l1.5651647773865107,0.23708772627062713 " fill="none" stroke="black" stroke-width="1" /></svg>