<?xml version="1.0" encoding="utf-8" ?>
<svg baseProfile="full" height="99.8407116469913" version="1.1" width="104.56426869895961" xmlns="http://www.w3.org/2000/svg" xmlns:ev="http://www.w3.org/2001/xml-events" xmlns:xlink="http://www.w3.org/1999/xlink"><defs /><rect fill="white" height="99.8407116469913" width="104.56426869895961" x="0" y="0" /><path d="M25,25 m0.0,0.0 m6.661128764923661,14.094754587053902 l0.5290728942055347,0.11496242347622054 3.034810078180999,0.06391357684529757 l13.779764245597613,-1.554976176892681 2.475015807894089,-0.0838948441426654 m-19.584836173965886,8.242216180702778 l0.5771436174729725,0.6138959463335297 0.5102670352963831,1.5735709072399506 l1.5931410799892682,6.904760675759693 m-1.4439493030937625,-8.159863866048612 l13.275247368808841,-1.7659714215544005 3.2074901354696195,-0.3058820173877583 l1.2682346097910961,0.21306433798811036 0.845080378171726,0.8010995618401318 l0.15475446581280425,5.94153360596812 m-16.535165114649743,2.179837123391142 l16.496701259890976,-1.4778495777894407 m-9.77267257700962,-18.670940934298752 l0.6030927991960827,0.6913141901546699 0.29923954223028054,1.0869123974527934 l0.017751056663399933,39.33825497089927 m-0.5460696532239488,-20.447106916733013 l-0.31391463947604337,1.1446174253762023 -0.9157438769034988,1.300857979418904 l-4.161969146197519,4.455406624611659 -4.508299573524588,3.6262587363285372 l-4.988779908482801,3.0724923827829023 m16.714267533257402,-10.72112124434482 l2.2561991298649966,0.9775073376520705 1.979278357763588,1.2637488754428965 l1.7115111198488682,1.4889689833292452 1.7360570604120555,2.003889558841312 m3.542433129467498,-27.406492478864244 l3.204472003248248,0.2854254707758576 18.010889098917506,-1.5082415749456737 l2.767400506193346,0.09732729504635095 m-13.181443805115203,2.764874053210831 l-0.14979453186773758,0.9594188954608369 -0.8913004292726923,1.745512668715733 l-2.183582874831563,2.9874122166878174 m-5.0929030752854985,1.1075596619503087 l0.5278680674909112,0.7155608721338247 0.1265027159796102,0.9026826087953036 l-0.003298334538646652,20.253605265364392 m0.45513242540519844,-21.32163875670989 l14.730708887972558,-1.2200543895924696 1.1376056606740514,0.1994571168386743 l0.35579964221149074,0.3017819554572738 0.28235898228318096,1.147840885048159 l-0.03884682344474459,20.302655534366306 m-16.053842198390136,-14.009383608337403 l15.27926311726896,-1.232371428630073 m-15.321010506758556,7.595099850059707 l15.308052249491567,-1.1081771288525593 m-15.325455691542606,7.996847751506591 l15.33377674158464,-0.9309909057595791 m-11.890841434177252,2.9601097690590095 l-0.36932633751713256,1.1920250228943283 -1.8498033414461712,1.7603577839166664 l-2.884307993246683,2.0053651188041526 -3.5264185148462195,1.9169993252314446 m18.329920767793617,-5.546718434990547 l3.8626195805594277,2.8384770732748676 1.9725489253353925,1.9251961065871315 l1.1452437151483912,1.439037074779035 " fill="none" stroke="black" stroke-width="1" /></svg>