<?xml version="1.0" encoding="utf-8" ?>
<svg baseProfile="full" height="110.92945886012197" version="1.1" width="104.92120365767204" xmlns="http://www.w3.org/2000/svg" xmlns:ev="http://www.w3.org/2001/xml-events" xmlns:xlink="http://www.w3.org/1999/xlink"><defs /><rect fill="white" height="110.92945886012197" width="104.92120365767204" x="0" y="0" /><path d="M25,25 m0.0,0.0 m5.916863403161463,20.758223802339312 l0.3106617716089652,0.10498217014610664 2.214455438033341,0.02144891997754186 l13.32438564094143,-2.035786904942649 1.6492931604898105,-0.00634050789985487 m-8.402986805367414,-11.9299432284905 l1.0037064829909041,1.0436822329193562 0.6467161263041089,1.7013535822585815 l-0.198732875519266,41.8579423756544 -0.1858040269116521,2.1284185395459536 l-0.44286019470317334,1.0330136560954861 -0.6371027257294372,0.18694063241069148 l-0.7496489044145482,-0.43685227910458607 -1.9531941724376392,-2.2011491473649474 m3.8168502333656855,-29.988022067475352 l-3.1196199705790217,6.8661399352695485 -2.246720739660949,4.313665807116315 l-2.6716579399183784,4.263556434595859 -3.498838927560171,4.670523477443488 m13.18241293073068,-16.21707983216804 l2.8146162458695287,2.594180437440179 3.0824078039809475,3.7895517721201375 m3.0035892709643064,-16.0405753460161 l1.2924401947600332,0.2215767336297137 1.8751482817610876,-0.012299628143350201 l21.952337872210475,-2.898886457107664 1.4034473791217053,-0.0804194206523739 l1.539038704179216,0.336525975020346 m-26.23670519263005,-10.491771105052802 l1.2011338523573094,1.0508911502161762 0.8896421049701705,1.5785174052998698 l1.464272566538314,19.27949758271833 m13.055885632548078,-23.981747812299762 l0.7155837601917017,1.740534662050723 0.0016278554309168856,1.3098405130875548 l-2.2122243856313495,19.30567493820266 m-21.947565796186257,2.2135620488381513 l1.6849319380861605,0.4089424477222144 2.190207633152598,-0.024835004455915147 l23.588903152205745,-1.6217934437184138 4.4982980478837575,0.18121603845153184 m-30.761418337563295,8.155804717517015 l0.7852826022100926,1.6498744784795096 0.35083564735818823,2.8798802706870066 l0.9724380231887654,15.198911812870085 0.2998768647600207,7.721713501685479 m0.9074254324521933,-25.563478347451998 l21.301898014971748,-2.141919344372133 0.7384528401502557,0.009584778834462754 l1.1309750561839682,0.6682414809069271 0.5337330509633823,0.9231582827937326 l-0.3386855813039248,24.377639867533293 -0.7544151403995208,2.0040432599320273 l-0.5824672238442338,0.05310301502864363 -1.387398030989428,-0.9590926691537469 l-1.3635688930878178,-1.6297718939628905 m-10.72522002293881,-31.303823491447613 l0.8259920146690877,1.3461657563325504 0.20559847472263837,1.2005773356778686 l-0.12304667569854738,30.11411381109808 m-6.760576714053002,-17.66585737453714 l-2.241807696086665,3.357371675601345 -2.675174751809296,2.5190141776041344 m1.7138950933806096,-11.158914785610678 l0.6230734837235824,0.5438872946312096 4.94326994099134,7.777699894613918 l1.325809992648061,1.639964958283765 0.7038483526176753,0.48898010023798105 m9.365221373395656,-6.4915186143942165 l-2.0405054253817925,3.289432683655499 -2.417236838750103,2.4710955906286336 m1.0136239069278612,-9.921155680437849 l0.7132802113483757,0.4877242204421199 4.892649247846708,6.069750757033543 l2.5857681747318875,2.408289057148134 0.851103657399453,0.4571985528075035 " fill="none" stroke="black" stroke-width="1" /></svg>