<?xml version="1.0" encoding="utf-8" ?>
<svg baseProfile="full" height="127.64869749650109" version="1.1" width="96.09724224725741" xmlns="http://www.w3.org/2000/svg" xmlns:ev="http://www.w3.org/2001/xml-events" xmlns:xlink="http://www.w3.org/1999/xlink"><defs /><rect fill="white" height="127.64869749650109" width="96.09724224725741" x="0" y="0" /><path d="M29.782703844814485,25 m0.0,0.0 m12.988914955979562,4.8778412654351815 l0.3901593699888924,0.45549083658540024 0.5276772062216333,1.0938749157659016 l0.12577026831966703,1.1891516912316642 -0.03477296549769204,44.4898486721456 m-11.357107713446286,-44.93337145511394 l0.8614579002946843,0.9429822757443379 0.20299425698338333,1.0689052678853455 l-0.8142405595613426,11.176260516012446 0.31575095130908254,1.036924162176686 l0.43983444124511756,0.2588058417368055 0.8821745761315781,0.058129976480187175 l10.037151032655004,-1.5237457479227605 m-15.996347707067345,12.362104792601771 l1.5206178528897323,0.26083242008218693 2.147148660915658,-0.17808710307377273 m-3.3061178063456578,0.6803677397351704 l0.43142270672970773,0.5635970734308557 0.2210543621954231,0.6647070389205209 l0.11146420298023432,9.150924143046423 m-4.477709837735516,1.342268948658686 l0.9059774953353101,0.35431714379004536 0.9692820588887575,-0.0742382900898905 l7.899476485841226,-3.011875888916023 m-4.454434913149906,-24.33451038017854 l0.3618161924472507,1.851048665489179 -0.17912632904998657,2.550347250603068 l-0.5411727569815474,32.442483191432544 -0.506643485104908,3.768176086868821 l-0.7268106543737418,3.0494158132883458 -1.079686039039093,2.921290453361241 l-1.4751838280483516,2.7089744907269724 m15.356437571850924,-40.542448091421285 l7.472270062120529,0.914556989751343 5.6068147909464505,1.7657172572263662 m-11.990035612193678,5.801852635497703 l1.4935666180773894,0.12641845593593834 8.842910851638571,-0.9001878728868826 l2.6133072812252838,0.08970910577177361 m-12.805437125286367,6.644796374538333 l1.539054038582911,0.5423201995148782 9.155505040084885,-0.9242625336630944 l1.1204856423930158,0.13869068213593003 m-10.539220515610532,7.5782083116412045 l0.4681088335900167,0.7323284531445523 0.20902745359322428,9.243590782841355 m0.2079977648406466,-9.002952614179781 l6.07947317741843,-0.942365349168722 0.5740387934738365,0.08616577547782911 l0.410239570283459,0.9348185612497075 -1.201210259627421,6.801174613804123 m-5.50879454775485,1.107744333352666 l6.562068033509949,-0.8956901490728201 m2.6422475650723487,-37.855727242171916 l0.5704268207509102,0.3155533264570956 0.8503106204661246,0.0253726212947546 l8.59324388359833,-1.6271908382092182 0.5058558587762394,0.2811054948036372 l0.3023375525685628,0.5286338476034012 0.11304596397685389,0.6662307662477374 l-1.8461931922189985,16.554592847678908 0.08561228913730505,1.217470658626855 l0.32891797862668026,0.9714060701762881 0.7932732534073115,0.8373770732918238 l1.2321965776812465,0.7292785410793963 2.6665021732110974,0.5350489209051627 l0.8703607398605923,-0.33116603526112715 0.5361770204206059,-0.7521735582882686 l0.15154431894789072,-3.0916714585085536 m-4.992407298263364,-14.411337573836903 l-0.01850103074103597,1.63217738722404 -0.6328244598942027,2.3500023009598547 l-2.143755278641418,5.87935173120343 -2.40668378949519,4.695572965032102 l-2.995809520833309,4.142594833549061 m0.30268787357681387,3.8019811793818796 l1.2910004149729553,1.7134921575562014 1.0217096476051952,2.3603096135649357 m1.0473520935799805,-7.800814856254542 l1.3146258515636389,1.6930056938181555 1.0605241033987127,2.090424374764531 l0.8396059727306147,2.323314733355379 m-20.490833504548178,13.226093177579644 l2.3820074596752834,0.31373122722436286 20.104363166911163,-1.7326292349050754 l3.3421074215393576,-0.017387176299688938 1.8361120099156085,0.25920901748229763 m-15.187587278551288,-7.164891586439821 l0.5248759235184338,1.4555714686805883 0.08509362819254244,1.2515020774032608 l-0.08995852374856989,24.019855220299842 " fill="none" stroke="black" stroke-width="1" /></svg>