<?xml version="1.0" encoding="utf-8" ?>
<svg baseProfile="full" height="112.4322222163193" version="1.1" width="113.69054766017696" xmlns="http://www.w3.org/2000/svg" xmlns:ev="http://www.w3.org/2001/xml-events" xmlns:xlink="http://www.w3.org/1999/xlink"><defs /><rect fill="white" height="112.4322222163193" width="113.69054766017696" x="0" y="0" /><path d="M25,28.94964047828384 m0.0,0.0 m10.476109516475702,4.916323377015274 l0.478695844004952,0.2475668624070925 3.7147945665993864,2.655148299975566 l1.7192244193967057,1.7327008917204525 0.7274551605739918,1.1404066441196363 m-10.299990742401423,10.98183641233765 l1.9805295943138002,1.1565047775269772 2.1842136964452368,1.6668054332124862 l1.876346613765885,1.8048540075016135 1.0168938994281602,1.4894101173063758 m-6.895342020484059,23.874653372158285 l1.2219425292936112,0.5849449970540163 0.5907109650100234,-0.019379223080610637 l0.9501469161526201,-0.7314367171637505 5.494634664844884,-11.34194587983685 l3.167787126818616,-6.230137733043956 m4.092719623803381,-35.63239448062813 l1.2681328138766712,4.911840202162823 1.7153704553494071,10.816006353833602 m-1.8212254227287041,-15.602121022237766 l25.191030930198444,-2.371227170624625 1.56119236209619,0.2559565067418278 l0.9398330461067845,0.9511240913326998 0.1017472564370783,1.0943086923502752 l-2.872889576455131,12.95975621068573 m-15.912885501504116,-6.031734106356248 l17.470138124929086,-1.4922524884820614 m-17.384755805482808,7.683323100866077 l16.76299425236484,-1.563253773979516 m-14.614085634847171,6.742179317550857 l-0.06834528784316747,0.8381458991865532 -0.5678963284442309,1.0667328181596483 l-2.832802200377793,3.4107312209648035 -3.4918924883219242,2.979887478206845 l-3.988146866911091,2.5185457780412532 m9.781100743686123,-1.3582432096280188 l2.236500718337646,0.20842670122035922 21.14615132038713,-2.3577251325670896 l3.025133726086611,0.12279797146917873 0.8363043002217141,0.3512371020354894 l0.6633067678305457,1.085768850409601 0.1190680853788672,8.793626349170093 l-0.9407028025281622,15.671591455126729 -1.0759548930724827,4.8969227582907076 l-1.2928922662996114,2.975551929204966 -1.1033495603118655,0.6288166963185471 l-1.3922842210972615,-0.4561369864383107 -1.6342317894549574,-1.9232630912470474 m-6.879010105722658,-21.33428543801147 l0.010240975112764079,1.150046243415312 -3.274289228209617,4.4964908629809885 l-3.057614167391496,3.0827153058064676 -3.4935147602363403,2.7680699094300065 m19.079715759197857,-11.442446646484496 l1.8237294954822265,1.581777182175779 2.258070636054978,2.551298798063107 l1.975415987439483,2.921623983849096 0.9272664368016266,2.1787826383093782 " fill="none" stroke="black" stroke-width="1" /></svg>