<?xml version="1.0" encoding="utf-8" ?>
<svg baseProfile="full" height="92.79840649468355" version="1.1" width="94.85105803621735" xmlns="http://www.w3.org/2000/svg" xmlns:ev="http://www.w3.org/2001/xml-events" xmlns:xlink="http://www.w3.org/1999/xlink"><defs /><rect fill="white" height="92.79840649468355" width="94.85105803621735" x="0" y="0" /><path d="M25,25 m0.0,0.0 m14.508484439166343,4.44733403841985 l0.39837645889982265,0.428755911759043 0.45861692702140533,0.6982761106354884 l0.15078537951189772,1.0324168768276814 -0.04353386294779293,6.091157209946272 m-12.815458564887322,1.7137844689398514 l3.1605747607977412,0.16116420582967309 10.61295177949937,-1.120742102265333 l7.489819855453163,-0.90729977051638 2.793997898263988,-0.08741051760956715 l1.0502418429057983,0.2952262026566459 m-14.057996467653076,7.636374630702449 l0.059552431403496586,1.873792100532657 -1.462470567221726,3.876700277048921 l-2.0638143662296216,4.138646257270029 -3.4960440168069975,4.106530497259496 l-3.4277294467955564,2.9555932911060334 m8.080113559471299,-8.203605712269768 l2.196872640649389,0.9718395562391104 2.110456546733036,1.4219792959812618 l1.8916237394782687,1.7752644120352914 1.365060427330157,1.9206491321980836 m4.00034618377011,-14.016398887043481 l-0.09944841016351201,1.690729205713043 -1.3548775386621543,4.20661372687228 l-1.5491316742863719,3.639350519743936 -1.7292208496238943,3.148629393437449 m4.659927681839942,-7.0018802090848995 l2.0763586087207235,1.6059711627280384 2.104635291963383,2.514765761777274 m5.456884146762133,-20.43032046715386 l-0.04510297151336352,0.9596454698131055 -0.37266396789565903,1.1664353811123989 l-4.052062898191309,4.690567159158799 -3.5568127946172794,3.383805996546533 l-4.022408405464988,3.0067747972024215 m7.9037314625677455,-4.059513910757584 l2.2979122851329157,-0.07514518890375271 8.795273425993297,-1.9780471173473904 l2.2263682457582203,-0.26346638922817817 m-6.293108896852441,3.509126582372344 l0.24466467634063926,1.3639472381059476 -1.1449493811152107,3.1188419169295143 l-1.9876491730300698,4.124134391231001 -2.227589540245646,3.6046535343753563 l-2.0951459818124465,2.756102120062982 -2.335803416031836,2.5310039385962795 l-2.6447486944782197,2.318197882510665 -2.994673591792177,2.0574561131865283 m4.748636359480303,-17.42745165973042 l2.531266100797192,1.766257097326956 12.083038257258,10.713671872046545 l2.8808244950615345,2.0583570912713194 2.3861076065047233,1.1586796798149555 " fill="none" stroke="black" stroke-width="1" /></svg>