<?xml version="1.0" encoding="utf-8" ?>
<svg baseProfile="full" height="109.02496500406414" version="1.1" width="109.49251173064113" xmlns="http://www.w3.org/2000/svg" xmlns:ev="http://www.w3.org/2001/xml-events" xmlns:xlink="http://www.w3.org/1999/xlink"><defs /><rect fill="white" height="109.02496500406414" width="109.49251173064113" x="0" y="0" /><path d="M25.000002946471795,25 m0.0,0.0 m4.7593289613723755,3.132537007331848 l0.5486365780234337,0.13205712661147118 4.036033451557159,-0.15038983896374702 l13.765573501586914,-1.6566239297389984 4.17820930480957,-0.25454796850681305 l1.574481576681137,0.18114276230335236 m-23.074710369110107,8.930565118789673 l3.9428365230560303,0.6199106574058533 16.339030265808105,-2.15917244553566 l2.567673623561859,-0.10193399153649807 0.7268669456243515,0.8600294589996338 l-0.00490005942992866,0.6979554891586304 -1.5465055406093597,5.481604337692261 m-20.33186674118042,2.570054531097412 l21.265873908996582,-2.3334062099456787 m-20.93050241470337,-4.813580214977264 l-0.048756119795143604,3.447941243648529 -0.746084526181221,7.304723858833313 l-1.7061135172843933,11.052323579788208 -2.1901246905326843,7.975468635559082 l-1.4277136325836182,3.475492000579834 -1.6972699761390686,3.204745054244995 m15.423048734664917,-26.274690628051758 l-0.33437322825193405,2.4380825459957123 -1.9695475697517395,3.7176674604415894 l-2.9300865530967712,4.286712110042572 -4.009842872619629,4.861539006233215 m5.670718550682068,-5.134667158126831 l0.3343599662184715,25.278098583221436 m12.549593448638916,-35.87464094161987 l-0.6337073445320129,3.126174211502075 -2.1736280620098114,5.073442459106445 m-10.253007411956787,1.929241567850113 l18.772519826889038,-2.2152945399284363 m-8.614920377731323,1.5115568041801453 l0.34829750657081604,0.8149617165327072 -0.09752287529408932,21.454308032989502 m-9.697908163070679,-14.955023527145386 l17.825416326522827,-1.867082118988037 m-17.926435470581055,9.257094264030457 l18.062829971313477,-1.9226090610027313 m-17.893784046173096,10.655726194381714 l19.4971764087677,-2.0827484130859375 m1.4979512989521027,-49.197020530700684 l1.691487729549408,0.3183656930923462 18.33629846572876,-1.5937203168869019 l3.73909592628479,-0.2222990058362484 1.9993092119693756,0.28565965592861176 m-12.810817956924438,2.431279718875885 l-0.23412929847836494,1.7999905347824097 -0.9472739696502686,2.570054531097412 l-1.4559447765350342,2.8050872683525085 -1.2914898991584778,1.8108747899532318 m-6.546904444694519,0.34829750657081604 l0.7592222094535828,2.48706191778183 -0.34828953444957733,30.999157428741455 m0.8707436919212341,-31.95629596710205 l17.233922481536865,-1.8858955800533295 1.2613879144191742,0.07604658138006926 l0.45782070606946945,0.34319549798965454 0.4544619098305702,2.1078121662139893 l-0.3901127725839615,30.268547534942627 m-19.047518968582153,-21.24614715576172 l12.14279294013977,-1.212068423628807 m-12.22306489944458,11.580891609191895 l11.869665384292603,-1.0797137767076492 m-12.092454433441162,11.482932567596436 l18.876771926879883,-1.1075090616941452 m-15.716923475265503,4.805417060852051 l0.02152412198483944,1.6105356812477112 -2.0283906161785126,2.456449717283249 l-4.313922822475433,3.4720906615257263 -4.643513262271881,2.7911418676376343 m21.387643814086914,-10.133280754089355 l2.3350217938423157,1.7741404473781586 2.8867197036743164,2.7391013503074646 l3.812224864959717,4.76545125246048 " fill="none" stroke="black" stroke-width="1" /></svg>