<?xml version="1.0" encoding="utf-8" ?>
<svg baseProfile="full" height="98.45629082742477" version="1.1" width="115.01702105081263" xmlns="http://www.w3.org/2000/svg" xmlns:ev="http://www.w3.org/2001/xml-events" xmlns:xlink="http://www.w3.org/1999/xlink"><defs /><rect fill="white" height="98.45629082742477" width="115.01702105081263" x="0" y="0" /><path d="M32.18130759514669,25 m0.0,0.0 m14.548203961501482,7.781049504583661 l0.01644286249670314,0.3886169749286596 -0.44717885706992383,0.8493138341696425 l-2.865095668574427,1.1589461144066853 -8.10887426385232,3.1809108101395225 l-7.168486215547191,2.2459827128540897 m-3.15631941410101,5.592696979213256 l3.3288902778923735,0.08913434685542437 19.923390893082974,-2.11619423698061 l3.7077094327312965,-0.2124131941775724 m-12.589170858780138,-5.493946963286327 l0.7907937060128736,1.6855632488352352 -0.11056352035576104,13.677589501766134 m-10.280039417471846,0.9471872076314627 l0.5484766630672964,0.7068515166833528 0.6212321519572684,2.5134387390927793 l1.8789511720722978,9.666488465936173 m-2.0995024351892884,-12.241052671874364 l15.659216788646683,-1.903466896658247 1.5932528228667597,-0.1692535217432374 l1.3736467803588808,0.2396668744886924 0.5201295852902702,0.9860395993454923 l-0.031926043245626666,0.651554115913763 -2.5294911091076666,9.793335698207828 m-14.921463594407085,1.8277867192986044 l16.362561558324142,-1.589659027093893 m6.898842802619877,-25.641334775855167 l2.6924072610820904,0.2922351578752458 19.70510673230753,-1.905598035007712 l0.9910003618900795,-0.03884517342083918 1.7876996294184133,0.5647838089409687 l0.35699194018538644,0.4777760024569491 0.07847336298429833,1.142158129076885 l-2.2891997134941513,6.757202857629125 -2.461259482657431,4.7244355423124755 m-12.177879364450247,-5.7694550183680136 l3.1778762643399405,0.9870494076099757 3.0967234718553485,4.113804266206775 m-9.240056798597754,2.7206531525806197 l16.31511386074153,-1.1548107348111654 m-19.032522444087903,-8.919539241311961 l0.6824040973866259,0.8256010419492267 0.21046665336891057,1.0478954517039538 l0.0031419774138794375,23.415012192476613 0.6278532708903165,2.057070123889213 l1.007021918280222,1.2154559715327347 2.1595595381555013,0.8234266817356428 l4.465645565988672,0.4354609742223429 9.868341941327273,0.029686591464686586 l7.552323715003735,-0.48744483123398835 2.2902118638008226,-0.7032551155685065 l1.8695160719649402,-1.2906616593260891 0.5739321828539253,-1.7034078275517097 l0.061189516495074106,-2.582730397670111 " fill="none" stroke="black" stroke-width="1" /></svg>