<?xml version="1.0" encoding="utf-8" ?>
<svg baseProfile="full" height="107.04367856639857" version="1.1" width="105.5988093532778" xmlns="http://www.w3.org/2000/svg" xmlns:ev="http://www.w3.org/2001/xml-events" xmlns:xlink="http://www.w3.org/1999/xlink"><defs /><rect fill="white" height="107.04367856639857" width="105.5988093532778" x="0" y="0" /><path d="M25,25 m0.0,0.0 m7.803281721057369,12.778992338856199 l0.45153214407334874,0.13314758130532006 2.8431777439911965,0.04448262921554576 l12.20141423828292,-1.6597054845294246 2.119364712537904,-0.12169155481735336 l1.2263826023747666,0.14399733480182042 m-18.3397146272928,8.552543613770998 l0.4572112616444657,0.5452079179594436 0.5766121834725076,1.8905603053207432 l1.1417029295173697,6.475732830971884 m-1.1458871920471603,-8.24510135721757 l13.061843673980073,-1.7215725667633346 2.8807865046750294,-0.283128240476357 l1.0557674146293412,0.2442585248902795 0.7442056818994572,0.8941764226420055 l-1.9196234739072753,5.998194258010248 m-14.00533924476718,2.0409498762798957 l15.068857594823719,-1.6391903970982098 m-9.416500775915395,-20.36413357848111 l0.7084707267327518,1.9714862052814446 0.007454359516827155,18.47436268818112 m-11.273000567373192,1.8338596221137533 l0.8066752352292031,0.6847988982860864 1.2855760800069527,0.06113343400570366 l17.936836107172773,-4.550972018557996 m-2.17921757671605,-3.293740357895747 l1.518379714543066,2.7936590710181433 0.9173228718911713,2.6705542027440434 m-11.078544784841952,4.631160954217108 l0.4446839765378584,0.7176154412488736 0.17121109097782658,1.3146963065335195 l-0.0024457016442722547,17.83430324452619 m0.18613468807302233,-19.568535325713714 l10.31582668323547,-1.569250509317031 1.2149981508009977,0.2844630678917145 l0.36755216564325693,0.45854057256718167 0.2413543107769545,1.3730074630106563 l-0.22536477007309166,19.163056185868683 -0.2684696196363384,1.4549152513545787 l-0.5158046531970297,0.6069941489428656 -0.6505188160528109,-0.05052223398295822 l-2.06460730684785,-1.9617095546691115 m-8.818865527690798,-13.750672171688766 l11.553666321277793,-1.472813259029743 m-11.618996588538995,7.688821188725147 l11.6924140525188,-1.2076377820401722 m14.499874686239593,-35.36694524420037 l-0.15005136974178232,1.4367428619634597 -0.39181531132316777,1.760634768377928 l-1.6955909392839024,4.682315793041927 -2.031521197181178,3.7368271194680913 l-2.795447358258151,3.3981740230190405 m6.107387372357327,-6.6140405319358795 l2.9638492846532687,-1.9312468189576264 5.459965655960626,-2.463706719463733 l0.5675549961011165,-0.047184396579046405 0.4603285900873242,0.283054693701241 l0.2967466566636701,0.522810952261008 -0.5637554774241923,0.7101823439893479 l-1.7730251506242316,2.311771551825043 -2.0824646355663403,4.758021885503198 l-1.74161743424207,3.8315193490471957 -2.1117663712796957,3.7113986251973263 l-3.769255351725972,5.111063581682649 -2.254189189815416,2.2978140634733446 l-2.6079254618863006,2.236651092567806 m4.423563124424679,-19.04826583697036 l2.7013629003230437,6.1478795647394895 4.871903093774155,6.38864257968204 l3.8619697713685675,5.8989029919119425 2.0250971053097198,2.6206144500821176 l1.3603264389245089,1.0473506915345534 m-12.863346144851066,2.1949923534667057 l0.030657117019713364,1.4811891905178394 -1.0064341449696703,2.4778215290870675 l-1.7777311249238763,3.415596234253784 -2.142775150502062,7.75380063584884 l-2.1532378217125108,-1.0107732065343993 m9.746788256588662,-15.9235945973626 l0.43260576872902484,1.884874814759992 -0.020948200673030912,10.3110863723786 l0.24058998717937197,1.6684172054223547 0.48420554881448824,0.9855260702682157 l1.1975394833117503,0.774070524876684 1.9454135248967745,0.38534957846421286 l2.9839314740128153,0.04151581866264746 2.513550414949633,-0.39273578727033565 l1.5226822428787181,-0.5095176632261964 0.7138041052598021,-0.5965372303829669 l0.4319563694004085,-0.8382276052800827 0.21025750468165771,-2.546283009722495 " fill="none" stroke="black" stroke-width="1" /></svg>