<?xml version="1.0" encoding="utf-8" ?>
<svg baseProfile="full" height="100.90818321622419" version="1.1" width="104.85325505467398" xmlns="http://www.w3.org/2000/svg" xmlns:ev="http://www.w3.org/2001/xml-events" xmlns:xlink="http://www.w3.org/1999/xlink"><defs /><rect fill="white" height="100.90818321622419" width="104.85325505467398" x="0" y="0" /><path d="M25,25 m0.0,0.0 m19.2024777310737,0.8316180193373663 l0.2856577047610558,0.327469290319283 0.3566076059528525,0.8069890589919688 l0.040144468194992476,5.343082598114137 m-9.486299616177954,1.1184514841848994 l1.3091702748557168,0.22750041574652954 2.834219134233989,-0.22038816936801714 l13.636074314302206,-1.6097777417673353 1.9449099260645413,0.2931899181748664 m-5.695205872950663,2.5308257864368797 l-0.14852299116304563,0.583072123570594 -0.8805945749735813,1.3617210006903735 l-2.347049648339676,2.289002142222973 -3.96782894469476,2.954142816292156 l-3.484747377507873,1.9223988084967252 m2.5375306707859226,-7.443967470116482 l4.005523706758846,1.5482330595269738 2.8823977435522252,1.4935451364897725 l1.9108488650371698,1.3647500155241101 1.0649017665042353,1.3618509100074354 m-15.80768242563573,4.83523721917956 l2.3240300972896666,0.13767319593058916 16.096544420975533,-1.9256032986834863 l1.8370936780569929,0.13191343251045845 m-17.730510676789255,1.826790903343562 l0.18539373840569326,1.932987959870121 -0.07959864398794163,4.4169942805669695 l-0.281680557980491,3.720695926994746 -0.6149313873412809,4.326878727568799 l-1.6185096721118877,6.021823701788047 -1.0961457931153937,2.512708726103261 l-1.5668952073825453,2.698151726581638 m17.883955581053335,-25.005472142205967 l-0.05484988191739697,0.8272962445708169 -0.3973983860276765,0.8641584127592785 l-1.9977592794972954,2.693897308170363 -2.750582349560942,2.498854733253273 l-2.867219917067606,1.830920718865866 m10.114742610540558,-1.413063609648248 l-0.062181769823698094,1.0071387596732184 -0.575924962571421,1.0861702035924943 l-2.8108471907844024,3.1436165723904197 -4.0296181446134804,3.1135493106281498 l-4.427533226129663,2.4457264150646387 m13.464171547953,-3.6665165948193876 l-0.0822693954202883,1.2772140013171245 -0.7003077715597883,1.2314591389585807 l-1.600926598959362,1.9149637792621876 -2.3376630520169708,2.19681151741297 l-5.018049396875333,3.6777709633712745 -6.2461394692218875,3.386877446906428 m18.80027747926069,-47.355714973543115 l2.3073196192953738,0.2019292792572193 16.674839222281978,-1.354291024955863 l2.4946152655324405,-0.08222272644730885 1.4252820641505652,0.1826215662455797 m-12.004902927429951,2.419518472200828 l-0.08372296662435538,1.0559186059905312 -0.6576523783633362,1.7986869400449819 l-2.6384209166543573,4.707773113462037 m-5.0942627864931085,1.0041868095574886 l0.6094061449205301,1.9039125751238428 0.011372613274270452,24.547557987780795 m0.3958531475870736,-25.583982173670105 l14.31863365893163,-1.4536399808722644 0.5936435910474774,0.08236152294666105 l0.9033812413905558,0.7818837265729957 0.2900490543775312,1.0178802134847076 l-0.5136392857284243,24.58472491275007 m-15.674946243261966,-17.59057821297295 l9.772633654457271,-0.610862757560782 m-10.187523189540643,8.339599497387633 l10.430192990077568,-0.5480161591880144 m-9.617906084869091,9.555324137090771 l14.762034635530974,-0.8463358913651107 m-12.753590598974297,4.306441486764315 l-0.02464071007487971,1.3851047008448605 -1.4083066799916284,1.557928012133406 l-3.2108934651880494,2.2598615182130364 -4.160172471862851,2.297723755144366 m16.65651216018145,-7.84666894523785 l2.178687592118862,1.905495607688559 2.5331613172908605,2.6712528883250117 l2.089656236465047,2.649630908645523 1.2564412718592115,2.131842940229384 " fill="none" stroke="black" stroke-width="1" /></svg>