<?xml version="1.0" encoding="utf-8" ?>
<svg baseProfile="full" height="106.5752681811143" version="1.1" width="111.16773826850813" xmlns="http://www.w3.org/2000/svg" xmlns:ev="http://www.w3.org/2001/xml-events" xmlns:xlink="http://www.w3.org/1999/xlink"><defs /><rect fill="white" height="106.5752681811143" width="111.16773826850813" x="0" y="0" /><path d="M25,25 m0.0,0.0 m12.97481338227974,12.945589788848919 l0.05368279446637933,0.4745178244183702 -0.17183335878074166,1.1982025048094753 l-0.8631099099783366,1.8772177453267265 -3.292039993302961,5.637120319602171 l-4.027595467736049,5.215918109438678 -4.57849992677176,4.687216082425026 m13.36713824483665,-15.62144805605509 l2.5057032195346176,1.0272072837937272 2.889483986879554,1.7662622677763529 l2.5592790357905773,2.171144781683123 1.5618362010105027,1.8870798065627066 m-16.948742703213085,5.468869136158199 l1.5328380456496917,0.03669518181948301 10.945311815849792,-1.2917269197359467 l2.1005196619227284,0.08557184929329138 m-17.812831859378456,7.6171583783178765 l1.5363913741849737,0.37459348259481845 1.3167262850242516,-0.05988032943900528 l15.304187450494677,-2.2926136799350214 2.127153084487343,-0.03050032283828176 l1.1707193959765176,0.24308026296824312 0.75204128224408,0.39681467087181543 l0.26996215696948805,1.9871126469859826 -1.1961889760713034,5.671058835996239 l-1.2949983981123196,4.007971757614745 m-9.807217230125628,-9.227104007003064 l0.8463765657847041,0.7985307411369004 0.415299232188678,1.3994554808429296 l-0.047679548147432534,15.759657038486251 m-9.395431198279663,-8.334138760197904 l2.8233416419934154,-1.2481550515314492 13.468025545764899,-1.5869400581797573 l3.3435589809218222,0.06308418287788634 m-19.04729494918503,12.152962803345817 l1.0656153240817003,0.3717976302170716 1.5257781213117871,-0.18272890830881955 l18.366549609995584,-7.192743041485368 m5.419520976809122,-31.865846501753897 l3.0559209924053254,0.28455861775094893 19.86208176733727,-1.9104055992251674 l4.515433117314196,-0.1273923456360191 1.9759124940808406,0.2890615078283479 m-16.388488974103605,2.733954476354581 l-0.09555020498281383,0.8147156181802347 -0.6127154175215531,1.1935681301347232 l-2.5968170387780862,3.5857641829132403 m-6.1736241922505934,0.7920330766922319 l0.7367342852235044,0.9015892424377538 0.1874982529054258,1.4995489334473193 l-0.02673133968787316,21.794819299743526 m0.4319457254902227,-23.28913011743712 l17.29441141568827,-1.8109175475975532 0.7612353313370179,0.0662569578419096 l1.1388900901464256,0.6333223543909628 0.39337684170246834,1.041950329401518 l-0.41416885306251183,22.10725377383989 m-19.178410074259677,-15.121834266110108 l18.934533750502982,-1.7000790845278173 m-19.12141884661861,8.919573547230959 l18.861862516068257,-1.43945020254184 m-18.75477238510483,8.941882232152837 l6.961252417966658,-1.324621543414048 11.163706532837656,-0.7840307934306854 m-14.298091065981136,4.163486029242012 l-0.2431747988341782,1.1988788743091567 -1.9735978483381684,1.4231511517003441 l-4.482643356985368,2.5128099131674633 -5.128792492782628,2.382368350885368 m22.27555930072008,-7.472029496818495 l2.600458333854894,1.832795629557706 2.479340776649288,2.1230508846460534 l2.091503709664105,2.1903752220805743 1.2499058523384121,1.7403258841742548 " fill="none" stroke="black" stroke-width="1" /></svg>