<?xml version="1.0" encoding="utf-8" ?>
<svg baseProfile="full" height="103.42798304380558" version="1.1" width="96.07291513884809" xmlns="http://www.w3.org/2000/svg" xmlns:ev="http://www.w3.org/2001/xml-events" xmlns:xlink="http://www.w3.org/1999/xlink"><defs /><rect fill="white" height="103.42798304380558" width="96.07291513884809" x="0" y="0" /><path d="M25,25 m0.0,0.0 m15.099863118543992,4.2892146438406265 l0.5082289620952091,0.18973550659587368 1.9517829171210481,0.09852939594313839 l12.181136331407533,-2.2596913203416182 1.926201234594635,0.004017539690095856 l0.7380367131205702,0.3059211710256851 m-16.960634282476356,3.6955997135235763 l0.539820543505027,2.3970031498712365 -0.09447386935114215,23.56762783763226 m0.6009941395505536,-18.126299508512663 l5.343868587889165,-0.7933257301216486 m-5.727867279318941,9.747099735180436 l5.475073362191606,-0.9130705989419665 m-11.440293237834195,11.924594138557088 l0.5085717679233329,0.5774918152461034 0.7085652075649549,0.1333119851968309 l16.0158174340484,-5.496484885299995 m-1.4453122060803596,-23.356327506246018 l0.5103641515176255,0.7877797811580994 0.10340526333692399,0.6947478392398748 l0.07838580823024963,39.2497800131387 m5.943685407390419,-31.81704667901328 l1.380049259556646,0.2679045184093936 9.959541687287732,-1.7096174338884877 l0.5960598078586639,-0.11556798758805363 0.5007623321380488,0.23436668458778906 l0.41202176187759604,0.9620629805540194 -0.09401344971330422,0.626897882461181 l-1.4941648825893523,4.571509671664805 -1.6755455084044917,4.068687049305624 l-1.9473894662798952,3.6889019390171773 -1.7064875793917278,3.3656833528999277 l-2.2746498005255678,3.672520349611669 -2.4353875542468164,5.612831437101873 l-3.928056360684714,8.497029880228911 m1.0015254613311535,-25.649919445211115 l1.2560210701370524,1.7073385185255519 5.6967252077376935,10.460396759698979 l3.397227069353444,10.187688611416183 2.4598171404904585,5.018446451885675 l1.6720459125229215,2.3866954327015946 0.7315929554222916,0.6739183530604477 " fill="none" stroke="black" stroke-width="1" /></svg>