<?xml version="1.0" encoding="utf-8" ?>
<svg baseProfile="full" height="166.75541864249027" version="1.1" width="119.93361742159412" xmlns="http://www.w3.org/2000/svg" xmlns:ev="http://www.w3.org/2001/xml-events" xmlns:xlink="http://www.w3.org/1999/xlink"><defs /><rect fill="white" height="166.75541864249027" width="119.93361742159412" x="0" y="0" /><path d="M25,25 m0.0,0.0 m13.988186954932216,12.991333976234536 l0.41520742819935325,0.1862776004160758 1.2597579434145705,0.037496992651261773 l11.916213591965318,-1.9957104017077965 1.6291225430658118,-0.19487516968803492 l1.0910613154625552,0.16301164378764701 m-16.64394343820721,2.949895979343252 l0.6263190440878149,1.5212440030689103 -0.0006466766706434671,17.917171114400734 m0.4062479120156429,-13.50997474006721 l4.863955628468333,-0.9979407195529711 m-5.159306421197723,7.270902569327036 l4.991159286020558,-0.6853518419030431 m-10.51244749620238,10.474320913810894 l0.5819610550466076,0.4100346523210645 0.8635451165671859,0.014852788542487127 l12.711380963335985,-4.339129784480299 m-0.775106069837958,-20.25175318421157 l0.5116576295896494,0.5466104611577924 0.18379015382394956,0.628196311102586 l0.053915099765747904,33.65613088252226 m12.206744726563684,-39.46500000129374 l0.0648789610478138,0.8003171232063214 -0.9310108323080216,1.7994620762541176 l-2.6089129214984967,3.8222922640819736 -2.4174305006134342,2.733352089593918 l-0.2558487539851094,0.5796887473983032 0.22916641449584724,0.42122158090546263 l5.404735894371498,0.13022166614507127 10.224236910087004,0.6620660375529965 m-2.9530752920640335,-7.66863591588584 l1.6009699043384373,1.2630270318406336 2.0344650457027216,2.136844477897111 l1.5355115881350778,2.0811046854784796 0.7476295173793999,1.5327425492144449 m-14.744723372904604,2.1416989518582583 l-0.02227222910058885,1.161492205656799 -1.2918281591616132,2.913768266758874 l-1.760014511585353,2.582620723627385 -2.022534957612011,2.095476705945267 m12.495188890224444,-4.595333976180654 l0.1366609596032379,1.2011327592039216 -0.27236514494359587,5.358659822375792 l0.8395218538335614,6.035955674601854 1.1171367638011238,3.9917235377835185 l1.070757181499952,3.3017220290743143 1.125662924399988,2.4759346282203802 l1.2592624608106853,2.453335128825507 1.3149830749218623,2.3771407075853377 l1.3237764523038102,2.325185366842686 1.2536022492556345,2.1989473412686533 l1.3084570358535035,2.1203407952150624 0.9417497666532748,1.8895969931989256 l0.7497079902916948,2.0801879055684194 0.579548354601204,3.3097155461699215 l0.7056276864679965,4.36380544939112 0.7445124008118744,4.7288557764664745 l0.7800551111736723,4.133085205732181 0.870252848589618,3.7252256682994416 l0.9746717888948125,3.6967075705673973 0.7171239747554339,3.6275786946753046 l0.5889399590640798,4.112367779056287 0.5020956008708072,4.072597282487586 l0.41040561891346566,4.413032507484044 0.3038652437058439,3.278453168743162 l0.2390036522974051,4.051126746753901 -0.04683760392219478,3.172468973481811 l-0.4139693712623409,2.809727520523334 -0.4458649724733405,0.9800839026326116 l-0.5577165663526583,0.5017769691739757 -0.5919021273955702,0.04777585395648749 l-0.5951008310563447,-0.308125950445728 -1.736511828932944,-1.9172548367807718 m1.1434306755231038,-26.126967764982165 l-0.0005097884054383313,1.5999612106879948 -0.49347160833996095,1.5048245120917008 l-1.0717481397662,3.7676912366224125 -1.3383167484918383,3.3171243726944333 l-2.741957050731995,4.637047986062009 -3.372495134969681,4.1786308025368495 m19.04943856701267,-30.27849749037881 l-0.19106918729332206,1.6546242009378926 -1.3588670764132265,2.8595407656439518 l-1.782823308280335,2.6810208698356854 -2.417975932397967,2.772994775501188 m-0.6764607733504361,0.3448261541522456 l2.854185434815802,8.38815097672058 2.936474561651532,6.640704493701373 l2.168678263052035,3.930963966487267 1.4920842757858077,1.6392352177783498 " fill="none" stroke="black" stroke-width="1" /></svg>