<?xml version="1.0" encoding="utf-8" ?>
<svg baseProfile="full" height="104.49033614128373" version="1.1" width="108.42978300935494" xmlns="http://www.w3.org/2000/svg" xmlns:ev="http://www.w3.org/2001/xml-events" xmlns:xlink="http://www.w3.org/1999/xlink"><defs /><rect fill="white" height="104.49033614128373" width="108.42978300935494" x="0" y="0" /><path d="M25,28.06448873172163 m0.0,0.0 m15.130316910036205,4.41056324431211 l0.5317816753711723,0.1504970736662641 3.4096244600426404,0.1369046489032858 l28.0053745692049,-2.1234791858978412 4.612067611118554,-0.14378618201892215 l2.910890498829629,0.2921068446501053 m-31.246930123486155,-4.482272364793139 l0.935547296783583,1.671961840270752 1.5764615476140358,9.987211283657462 m16.231571586760136,-12.964195934471707 l0.16387078101078179,0.9797908901469589 -0.13965079966863272,1.08008025686657 l-2.8479283957680748,9.859574904052884 m-25.278416396505307,6.943189412123789 l0.6126419725913658,1.7201000945175475 -0.1668219508033109,10.7595148383392 l-0.417175139357498,5.902533417509846 -0.7516355267275485,4.5852625623583725 l-1.050092304706159,4.025268588134871 -1.3342295656926828,3.406249714366972 l-1.7154259103878162,2.9832408592144843 -1.861758518198611,2.245530603652245 m5.425854905037464,-33.80141658348472 l3.222642164060968,0.260640610167907 26.975299380567492,-2.7235834038715945 l4.194418511130726,-0.2801326782708656 1.9497572107233903,0.2788362517985814 m-29.02022501957281,7.466296986543355 l10.026688273377992,-1.1438474156710148 5.470742136259862,-0.2523661546411771 m-16.005446583606915,0.5251150443128652 l0.36920064617735576,0.49929120152821505 0.20336619821005195,0.9720015754998188 l-0.06766190336625558,26.279003081220946 m7.968529089672681,-27.20599890230824 l0.021903696926620624,6.956530019943861 m-7.551338256679767,1.2332052585164626 l14.592034651833252,-1.8521706391888682 0.5014832084193372,0.2926463439404962 l0.1913700858563585,1.1209769238578293 -1.2218499096143058,5.715457776444975 m-14.148629232803502,2.4024983688804715 l15.21463016609777,-1.9361700635002999 m-7.267128332361469,1.2609869951365622 l0.050143861434698365,6.742488155863729 m-8.131051783728811,1.4818533561991378 l11.207586754443236,-1.4709820400232865 5.47905358528233,-0.3036129729967883 m1.3623102468205779,-34.23351711596703 l0.8927109106361026,1.1607401884375428 0.303644770566625,1.0710566181114582 l0.9851063185039596,8.250588116849924 1.6759008257466779,7.492027202798656 l2.4018685392213146,6.958024375601077 2.4341392230459236,4.9880652270143795 l2.1167615746581205,3.302328476928248 2.3494349967098414,2.769965845184713 l2.566003579484734,2.2864217165077756 1.8930128196139895,1.1508813095152954 l2.224047770413195,0.6027753520584425 0.26338365209492204,-0.39646484135961707 l-0.03154880823766101,-1.7682709398897225 -0.3438747671221088,-2.169735874637878 m-7.879004179487412,-22.822623310493892 l-0.054681082308314095,2.2204917412566147 -0.616725258893045,2.339722826358931 l-1.3497533652958376,3.6111556374428155 -1.9110727415749125,4.056477109408364 l-2.4297286164600775,4.251259695717573 -4.455065032918173,3.3430325792831104 l-2.701243144170875,1.3260322710839878 m13.017807937638041,-34.49449747766842 l2.935490782801218,2.539511576014176 1.986792243040585,2.8465846212332417 " fill="none" stroke="black" stroke-width="1" /></svg>