<?xml version="1.0" encoding="utf-8" ?>
<svg baseProfile="full" height="121.82980619398299" version="1.1" width="80.45177802856657" xmlns="http://www.w3.org/2000/svg" xmlns:ev="http://www.w3.org/2001/xml-events" xmlns:xlink="http://www.w3.org/1999/xlink"><defs /><rect fill="white" height="121.82980619398299" width="80.45177802856657" x="0" y="0" /><path d="M25,25 m0.0,0.0 m18.16730521617421,2.823257097156185 l0.35072888695183146,0.469749715754484 0.2728880300619783,1.0398133460285393 l-0.07077618322723794,2.5969323992330238 -0.5572347036078439,6.521327379450492 l-0.9011476856449337,5.7312240999596495 -1.1413494959287258,4.879929388569925 l-1.4995403474156865,4.172070380746138 -1.714239554187397,3.922821259087235 l-1.941788159927426,3.999967580346173 -2.212484514126545,4.047313293239469 m-1.7427297901886547,-38.825730920484226 l1.8446323145372496,0.3026583258362772 8.835913946757714,-1.625037137456632 l0.7119487336311084,0.2568603118421017 0.2789962040154804,0.5157952450964353 l0.034933408396101956,0.6859386291482961 -0.39279779505137113,6.2407605484102575 l-0.21995186324738514,7.383398111159504 -0.050925868717877854,5.9698822954996515 l0.09132346685084733,4.568923815741394 0.17511444388026465,2.4122420157751256 l0.33326738351691626,1.6072102771920083 0.5206825338318127,1.2967003202744913 l1.068184682202157,0.9540872738587028 1.9300051176792976,0.556961566607476 l3.5868650954460213,-0.027462169206365444 2.3076626704913736,-0.48134675689211875 l1.367767894220946,-0.8608690728067295 0.6819156463378678,-1.340848118653356 l0.28019820340420654,-1.9041644571335659 0.0564101114502666,-2.4434915226059775 m-22.33441447719694,18.479978039187877 l1.2250540631833553,0.41966842933878495 1.4826472329766716,-0.11936379382229123 l12.636021881966332,-3.705234698254193 0.7744463508648802,-0.8389246349059137 l1.0182223999954512,-0.08847132526786029 0.4333244465042047,0.7686850994235778 l0.10986753429616909,1.6710306224120466 -0.8416396685643935,5.300521517103321 l-1.5687898737727726,8.138134402037474 -1.5618761190928077,6.626465553690107 l-1.6839761273393667,5.726810148701379 -0.9515617214391044,2.2511362890238065 l-0.5668879135294836,1.1600435801648774 -0.5106887296492483,0.5652739662940187 l-0.44068944597606685,0.027178478081937164 -1.4434386026353736,-2.4437428895069813 l-0.47833083810234184,-1.5509679135974643 m0.7152745859900317,-39.393312214242826 l0.08829813992126542,1.5247242421932388 -0.14029607218163598,1.9965133486296687 l-0.9677077603024317,7.287364041677558 -1.2555246328135197,6.451910754518458 l-3.2872375469982233,6.638271752484329 -2.478945904786137,3.1796558874165273 l-3.0322223915517967,3.043141680210425 " fill="none" stroke="black" stroke-width="1" /></svg>