<?xml version="1.0" encoding="utf-8" ?>
<svg baseProfile="full" height="95.44554543119942" version="1.1" width="117.7000536093285" xmlns="http://www.w3.org/2000/svg" xmlns:ev="http://www.w3.org/2001/xml-events" xmlns:xlink="http://www.w3.org/1999/xlink"><defs /><rect fill="white" height="95.44554543119942" width="117.7000536093285" x="0" y="0" /><path d="M25,25 m0.0,0.0 m17.869952849680075,4.1889222717260965 l0.10131940712859669,0.4948632964871678 -0.11367324078283413,1.1270812227666351 l-1.5041197296844366,2.265558973932559 -7.624637585395946,8.107005754575285 l-0.4760253487874244,0.8520235648010945 0.25586412086487725,0.49880901578185294 l4.278899582518044,0.11384933237868387 16.935202930618555,0.7713603953971621 m9.286465629552577,-7.4922092903795985 l0.11356388435588116,1.0116854882330917 -0.39104022325694804,0.881354183069126 l-2.5839038746237524,9.849856052357984 -3.182928635205462,9.497756112486941 l-2.4898735313574467,4.064678865754738 -6.034542355272608,2.2944705536434347 l-3.879215025372107,0.5979201573774093 m28.429073245224593,-15.315289836681309 l0.11448471172067799,2.861515953129957 -1.689825095392149,4.38528713806171 l-2.402982218158672,4.337458161092867 -3.1173240979361547,8.933981519136385 l0.5517970252725649,0.7639712294241804 1.378378948844241,0.3150530170923978 l3.1081238827248434,0.038582299553573104 14.51485048399821,-2.831899962637364 l3.7679906018762677,-1.122632364967447 m-6.138884630562008,-6.384817911848565 l2.274135930283101,1.7805831868846205 2.821672423340411,2.970640599457662 l2.3292434601895153,3.217481591130318 1.1980100829234137,2.36385644364393 " fill="none" stroke="black" stroke-width="1" /></svg>