<?xml version="1.0" encoding="utf-8" ?>
<svg baseProfile="full" height="114.45112256024738" version="1.1" width="95.46956535584457" xmlns="http://www.w3.org/2000/svg" xmlns:ev="http://www.w3.org/2001/xml-events" xmlns:xlink="http://www.w3.org/1999/xlink"><defs /><rect fill="white" height="114.45112256024738" width="95.46956535584457" x="0" y="0" /><path d="M25,25 m0.0,0.0 m20.929585072930045,3.7035607539187207 l0.034615971278822606,0.5173165400466769 -0.3194627754998172,1.1970840843338926 l-1.0887518851713973,1.362660732000656 -5.23694555534392,5.484642919093943 l-4.687205726854744,3.8781707035413118 -5.998575640836208,4.020390676296216 m2.5718077559815353,-14.934978127390325 l1.848959122995218,1.4091560992305496 3.2745689598129393,3.5173428492494967 l1.3511536715331565,1.9277605139151792 2.2654841507614742,4.25067511067676 l2.3249741622226288,6.879315122217749 1.1633501187002677,6.995228518239061 l0.21510570605640822,4.506398824359 -0.14933779442187123,4.298921472540764 l-0.48847328831016557,3.9987574571081383 -1.278487201551956,4.99489561494348 l-1.789954221937902,3.4286604582852784 -1.376521202180762,1.1908286494116873 l-1.481783528499054,0.21251842933965684 -1.5579414673132932,-0.955183796658631 m4.278719086178493,-28.9831582573123 l-0.059923612061976335,1.6499708921301388 -2.0655671890979,3.8293452440169604 l-1.9949659987797808,7.709263380425686 -2.195052673527425,7.672624971105408 l-2.021979256511832,5.257360716908305 m23.322536793748643,-40.21773501986463 l1.0190408668595032,1.1508938010961862 1.1623355411652128,1.8749216644774875 l1.2597103805490177,3.4593308764353767 m-12.78271653830742,5.246559175185987 l2.2132985535019976,0.3329047565904284 10.502132997683171,-1.2090801748473012 l10.829266721367024,-0.7181125058105977 1.4765652787264296,0.44355515521220645 m-14.630969727277805,6.102202953352581 l0.042395782790579456,2.148966226628816 -1.3069812042797682,4.909209977116277 l-1.6125846457710786,4.61756614923613 -2.139031553874805,4.670525341959248 l-1.9124997868634166,3.18258347149039 -2.154610549965244,2.9511381910565637 l-2.3769746604068875,2.586645416744262 -2.2798257080774915,1.7025511087829581 m5.94051930145394,-23.02521482142839 l1.7445275398857119,2.489119679808561 2.2903208276421307,3.5417532338905087 l8.237308820728472,18.119455826352617 1.718213239309424,4.529389209489672 l0.7426326291189042,3.2723898137915564 0.6745299869238036,3.270072501527027 m-3.5612386639046054,-38.72180211159158 l0.09612856595608149,2.870449101662429 -0.9497756203217169,6.709604609439728 l-1.326290541075778,6.245339600123053 -1.7344201335769698,5.807748668424145 l-1.8885803095994398,4.706886044440483 -2.278450634728664,4.3786256939517605 l-2.7588118821186245,3.922121262836529 -2.5161084899120394,2.6066826626416293 m2.8028262456345314,-27.95971513500219 l1.138729610841204,1.0488624795016157 1.6173093197893675,2.3639957832805933 l9.982129276865908,15.630875234889245 3.5332583939754327,4.7553345786585455 l2.410815965641285,2.507708397050267 1.974617385207709,0.7620022394890913 " fill="none" stroke="black" stroke-width="1" /></svg>