<?xml version="1.0" encoding="utf-8" ?>
<svg baseProfile="full" height="107.65293963087747" version="1.1" width="120.45808655738006" xmlns="http://www.w3.org/2000/svg" xmlns:ev="http://www.w3.org/2001/xml-events" xmlns:xlink="http://www.w3.org/1999/xlink"><defs /><rect fill="white" height="107.65293963087747" width="120.45808655738006" x="0" y="0" /><path d="M26.55143101065255,25 m0.0,0.0 m18.62785981863207,17.053438324740466 l0.04215113875366893,0.3805177652273513 -0.32088877657271186,0.9027773637759606 l-1.4044191716448406,1.3448648556641736 -5.528549287879428,3.8884192725488846 l-5.557073735142238,2.8287217794225117 -7.410510996799076,3.067426153650484 m2.6382365212351213,-11.727964406848278 l2.093850554846656,1.1782042538467896 3.798244119423271,2.656879372956614 l1.5412308176403628,1.3980335721469705 5.294559457016639,3.2791810693040757 l6.329887546374846,9.821959695139759 1.1587094898365697,2.9407538415898204 l0.715960767008628,3.2323693658439314 0.13723787616945443,3.143530323582749 l-0.30233649779576394,2.7763324400224745 -1.3327583489893342,3.5754482720275162 l-2.1683060904635174,2.422649153415906 -1.7446872140045322,0.8903053519386352 l-1.991680101128005,0.2417854261817252 -2.0879507233435404,-0.6027859882951275 m4.23158776682003,-21.310225610905967 l-0.09758396955760877,1.2046374506690705 -4.264718767256458,5.009550241682213 l-4.115154647282924,3.499194798692731 -5.052059104973054,3.5672430804878443 m30.00953728825521,-28.746586856876295 l1.6427557366946228,1.241526292479802 1.7984485320552106,1.7604693164427831 l1.53819286027391,1.99634280473611 0.8655132574109127,1.664918763551341 m17.043802676220384,-8.167981485551683 l-0.21117688577721463,1.0097359405922328 -1.4437753847359864,2.3957865986528146 l-1.8679190091380182,2.251499550714609 -2.2537043251303284,2.255722884511765 m-24.412560545888436,2.662348425023652 l2.3946035115941577,0.26814756430120196 2.5664346647559753,-0.055397628690406014 l32.27313889265614,-2.423843427472033 3.1103748148309442,0.019267549984142707 l2.622151021725732,0.28214207429611016 m-37.89182749199265,9.35943207856123 l0.6565851023709531,1.3947341692130089 -0.24009131125512928,21.821427797897794 m0.86281674485183,-22.21984419290348 l26.726634527745638,-1.666293135615066 1.111409125150727,0.009230321613189749 l1.3764824783022922,0.35765634078661834 0.8037324907756074,0.8042926684866949 l0.11582747397415205,0.5577831326105755 -0.04030435828271594,20.880233306077347 m-21.29017539844094,-28.74482750653214 l0.5505399487593213,0.8990779125879456 -0.05997018413956426,2.8100933245220014 l-0.3612746029754583,2.8798805143204222 -0.8075092893329566,2.5907095407618055 l-1.0591801916834793,2.0290319617722052 -1.3993004999376624,1.8279635667867582 l-1.7929389341989828,1.5750194899351957 -1.7248192098052473,1.013947656302241 m14.483330614151779,-17.534940610929503 l0.6380953004220186,1.0689848656525327 0.16862254422275602,0.8964624774689165 l-0.2411288409569389,10.286170513095938 0.3368144843391537,2.47972065521078 l0.7908571779415663,0.7816121080507086 2.2563816039934936,0.43832034177163376 l4.316045287003756,-0.012987844299873022 3.1405216729057495,-0.44951690691169166 m-24.199052603088628,7.265406577026674 l20.574152016988425,-1.0004099417319794 m-25.096560567072423,8.309091030009158 l29.550183823848517,-1.2975532339561893 " fill="none" stroke="black" stroke-width="1" /></svg>