<?xml version="1.0" encoding="utf-8" ?>
<svg baseProfile="full" height="106.78737666797187" version="1.1" width="109.23781307250911" xmlns="http://www.w3.org/2000/svg" xmlns:ev="http://www.w3.org/2001/xml-events" xmlns:xlink="http://www.w3.org/1999/xlink"><defs /><rect fill="white" height="106.78737666797187" width="109.23781307250911" x="0" y="0" /><path d="M34.08461595389963,25 m0.0,0.0 m16.076048329358024,2.6389106058616023 l0.3844063444220345,0.43007450108112466 0.5180981194058398,1.8026472915248288 l-0.05552218973844288,13.559575307805165 m1.0830173592286463,-7.402109014975557 l11.671158627803614,-1.5697316705082858 2.929065309926285,-0.05464740528221914 m-33.10484063508422,-0.251751452146038 l0.8831147089747461,1.9912566451007596 0.2855889633537594,9.465145231345492 m-9.754750891549909,0.9842772651282958 l2.294357505714728,0.39239930598737494 2.3443311708103365,0.05917379240466131 l34.027601749778675,-3.4619091854357076 16.97953367051575,-0.2121206044754405 l3.5919889756896173,0.3480218252113318 m-42.60698128431501,8.074647992924623 l0.6196172331203639,1.0553976364218494 0.15854766921542673,1.042887857128046 l0.0046552646954796315,26.25783161539691 m0.8412380897990079,-27.5231121682366 l22.535416815767924,-1.8829980061859726 1.6822073708019003,0.23491696712410298 l1.0065298709037251,0.7638118509144645 0.35192662410107545,2.0859168885609436 l-0.07693867188909308,26.523646208314926 -0.4041956564827577,1.01284473480329 l-0.669711621210938,0.4223726521779088 -0.8609526127611913,-0.10007225932105064 l-3.372210653878002,-2.3504987293243667 m-19.039677272172774,-18.918712379899173 l23.29807816915852,-1.2496639893703096 m-23.21790168988694,9.431329947643356 l22.955973883620377,-1.3810025937340147 " fill="none" stroke="black" stroke-width="1" /></svg>