<?xml version="1.0" encoding="utf-8" ?>
<svg baseProfile="full" height="87.41164287732289" version="1.1" width="103.7255268901058" xmlns="http://www.w3.org/2000/svg" xmlns:ev="http://www.w3.org/2001/xml-events" xmlns:xlink="http://www.w3.org/1999/xlink"><defs /><rect fill="white" height="87.41164287732289" width="103.7255268901058" x="0" y="0" /><path d="M25,28.630089851185716 m0.0,0.0 m10.74489039323328,5.1638526775302145 l0.518559558811803,0.1415905847577921 2.9498294851794307,0.12895641946267195 l25.913063046766364,-2.6430469742565093 3.2254371195101577,-0.2305609856839308 l2.536871329699588,0.26575124905853165 m-27.009909120988766,10.406465546721979 l1.3663146593487165,0.8628771853499001 1.5236705891953786,1.7040367862298025 l1.2763996163639404,2.214235673077663 0.7221951027018183,1.9905049106477684 m17.917061726149292,-11.369465935131263 l-0.09493699391175056,1.793095721568775 -1.0081609140957462,2.3689804502645613 l-2.8839964100335806,2.7107809818485276 -3.240838021149775,2.390203178725723 m-0.08268695617521249,6.17544889332435 l2.2050306131536948,1.3456984722618395 2.2067644256523353,2.094183960756848 l1.9557773562156768,1.5933546716836904 2.6500426003915476,1.8296459472757571 l3.1216925924658354,1.4986416733181862 3.3916626715441245,1.0097073116365043 l1.727786437428593,0.33661462570778306 1.3068611755351174,-0.07888946388920301 l0.6558888735285784,-0.7930483030941233 0.13025593358534704,-3.0024360808622474 l-0.0007050007507765051,-2.693293375962069 m-11.138553779887625,-30.843975653515237 l-0.18037987565545094,2.1348561821727667 -1.5567129168466822,3.3525647969014214 l-2.601360173325289,5.4033896748955135 -3.064869722993058,5.471940073380874 l-2.795025973000483,4.175817725895692 -3.209216977971782,3.801993057052359 l-3.7496392681084245,3.3874534329028347 -3.1524699306906854,2.0724210277356065 " fill="none" stroke="black" stroke-width="1" /></svg>