<?xml version="1.0" encoding="utf-8" ?>
<svg baseProfile="full" height="98.60484694846576" version="1.1" width="104.74814821178883" xmlns="http://www.w3.org/2000/svg" xmlns:ev="http://www.w3.org/2001/xml-events" xmlns:xlink="http://www.w3.org/1999/xlink"><defs /><rect fill="white" height="98.60484694846576" width="104.74814821178883" x="0" y="0" /><path d="M25,25 m0.0,0.0 m31.333249545108426,11.69740450769238 l0.20368174157876728,0.11404509692864856 1.920295626565678,0.9992443897983505 l1.1737835597655657,1.2410597227313909 1.1969179964806504,1.146244471297497 m-17.030482864560515,2.9666387015254867 l1.6117998245356817,0.1428297123417712 1.7620866383103664,-0.10825624245816248 l23.213082925279675,-1.8391725848665155 4.010232807222358,-0.11273083691327992 l2.0409845369322794,0.17935345156781435 m-30.278884401113597,2.502760193108172 l-0.04687057111828041,2.678867158553556 -0.6540591873237178,5.734356122251878 l-0.7669936536648538,4.626269336311014 -0.8557837094424315,3.794321087381185 l-1.2238743873040192,3.7881635270295626 -1.1282102846933884,2.536940841147593 l-1.3539935785566337,2.271679815414173 -1.5860848147479403,1.9064091150728142 m10.768904181717655,-25.031356127962063 l1.6549534673190291,0.008871158640467754 7.6681803689226875,-1.0801291312656545 l1.9094693930479756,0.006612694944190278 m-5.84011072853838,-2.156812496576776 l0.6043270818343702,0.18319412341021044 0.42423318990824865,0.8061539187995661 l-0.132248918631347,10.624749722451371 m-3.944655646250415,-7.939240713035864 l-0.18413552887290888,1.1406191902353962 -0.6778148231086576,1.7260334060856457 l-0.9776749037244253,1.7793569267942955 -1.0879268919219318,1.4384247737844686 m10.394752484313825,-7.061094095014373 l0.38014462091455625,0.3157275042451513 0.1922466884428476,0.5070846383111663 l-0.07761408539918103,4.527282536871155 m3.5059655155150753,-7.712913010232823 l1.768885945946314,0.05444298552888441 10.053191899816385,-1.1423978209330268 l2.356306131533536,-0.06296360644787684 m-8.339101153869448,-2.239877545589041 l0.39200655634711923,0.25046725902324635 0.4593586754464669,0.8387514412325721 l-0.09635293516005589,10.831596965806682 m-4.28723968198033,-5.634408485057289 l-0.10868833545827641,1.540701977519728 -0.5454597154837375,1.5865150933175345 l-0.8762153719665742,1.3099089263803523 -1.3023481227948968,1.1806839503872617 m11.175931912956313,-6.776880918042765 l0.3976158615511019,0.28221935626664374 0.32827993799315563,0.7861815093889282 l-0.07870872507800081,3.432106161670059 0.07070871208339212,0.5624765724713421 l0.5100993985340146,0.763200707316579 1.3785539573097594,0.4306662068572115 l2.365369306735151,-0.1380557093825328 0.7243323958912053,-0.4036883016067056 l0.27974834669312176,-0.7381739457020114 m-22.053555752434175,4.19482882555403 l0.3597177838367922,0.3381527785031512 0.25863405034962245,0.9069997374040164 l-0.15470491841555253,5.173231068260981 -0.28341858687744376,3.657126401099504 l-0.6143329012322976,2.909075498679583 -0.7131564572046356,1.8387648660307632 l-1.046446585095628,1.690862454642832 -1.4701952041479507,1.5210040721453137 l-1.9526028618892948,1.3123358593389425 m-3.871813719003865,-19.74515392691226 l2.4634730601489756,0.2399677541627269 7.283023798196644,-0.6762558528578256 m-10.339132187676205,5.818325157402776 l1.877175847510189,0.21520658555742486 8.482846224664753,-1.000126472176173 m-12.056051597875609,6.686429585664813 l1.1098545802739974,0.4369336046847107 0.988239397785301,-0.056111606587167864 l8.162681601909009,-2.498113165216281 m8.910233550712263,-13.467628212566025 l0.6684150680796542,0.5009724102046687 0.1724832586485888,0.550626306087981 l-0.09707995373586371,19.531373797219942 m0.28041344078339064,-16.723563652640223 l11.453945482711456,-1.0572098480616825 m-11.209335660074348,6.888575310694898 l10.212888248717785,-0.9097124837844087 m-10.368579919925358,6.8171089975610855 l12.765267720287019,-0.7328252741204022 " fill="none" stroke="black" stroke-width="1" /></svg>