<?xml version="1.0" encoding="utf-8" ?>
<svg baseProfile="full" height="109.31264526556625" version="1.1" width="107.28096408703196" xmlns="http://www.w3.org/2000/svg" xmlns:ev="http://www.w3.org/2001/xml-events" xmlns:xlink="http://www.w3.org/1999/xlink"><defs /><rect fill="white" height="109.31264526556625" width="107.28096408703196" x="0" y="0" /><path d="M25,25 m0.0,0.0 m7.851940376247207,18.60754354416156 l0.4985433960577214,0.10298471625951879 3.252527835948163,0.009799454837207497 l13.195861682755368,-1.9308242459006086 1.9877691331695204,-0.09291122506033392 m-8.36368257344699,-13.016656349735584 l0.7160784052999761,1.3879892901399387 0.2174377458662575,1.9154408030825687 l0.0056331037925436145,48.74384588372874 m-0.44181436845547345,-37.0801224396648 l-0.6175573383396497,3.4225816231003336 -3.0628971332720947,7.334741171519223 l-3.0417518144544378,5.623078575059167 -4.199010012995927,6.622913701115754 m13.238210260562939,-18.04814004756044 l2.491233748709931,2.481778620440669 3.1136820248258883,4.05553640095197 m2.9508104821330354,-16.822108640659994 l3.2013657927373287,0.17879884331767987 20.032957496689576,-2.4148383262421835 l2.417119193494375,-0.18564145384120573 1.8365066497067135,0.19887673936465478 m-28.433443803458005,16.756523636444935 l0.7863788252982796,0.11489201663624668 1.877715873071545,-0.14916393028753583 l12.463882589253755,-1.7116529984985978 2.1167064773353226,-0.05007493297706355 m-18.199511592729387,14.555835105277076 l1.5226725759299724,0.3057232510115977 1.7897742424922787,-0.09133916118001935 l13.890338905112769,-2.546032128296774 m-11.55259038521213,-20.452179178955493 l0.639544669869847,0.8990233184539899 0.26474133496682284,1.5998770385541499 l0.03510427451410136,38.98654659096989 m7.922776993461915,-42.059333942630715 l2.4396091159290103,1.9025350380244368 1.6478267692057769,2.2643141527179993 l1.5238126106100225,2.41464539751732 1.3450620154159565,2.5702806728856706 " fill="none" stroke="black" stroke-width="1" /></svg>