<?xml version="1.0" encoding="utf-8" ?>
<svg baseProfile="full" height="109.49251348152757" version="1.1" width="103.75353156588972" xmlns="http://www.w3.org/2000/svg" xmlns:ev="http://www.w3.org/2001/xml-events" xmlns:xlink="http://www.w3.org/1999/xlink"><defs /><rect fill="white" height="109.49251348152757" width="103.75353156588972" x="0" y="0" /><path d="M25,25.000000956933945 m0.0,0.0 m6.410883069038391,8.391137719154358 l0.5163884907960892,0.0963740237057209 2.7128347754478455,-0.13349351473152637 l16.424221992492676,-2.429424971342087 1.2253617495298386,0.017667210195213556 l0.56698277592659,0.27777912095189095 0.28120648115873337,0.45567527413368225 l0.05641878582537174,1.0996919870376587 -0.601215548813343,3.6320194602012634 l-1.105893850326538,3.2873252034187317 -1.5932314097881317,3.0366384983062744 l-1.691156029701233,1.9526143372058868 -0.7899241894483566,0.3590564802289009 l-1.2129579484462738,-0.3626878187060356 -1.1112797260284424,-1.0877779126167297 m-2.1922028064727783,-18.59259605407715 l0.015117092989385128,1.9509823620319366 -0.8836053311824799,4.202919006347656 l-1.3773079216480255,3.9391759037971497 -1.5602636337280273,3.238036334514618 l-1.9979861378669739,3.1610023975372314 -1.8024633824825287,2.2352896630764008 l-2.830996811389923,2.6857423782348633 -2.4585574865341187,1.715310662984848 m29.01698350906372,-18.717939853668213 l0.8623883128166199,2.0521709322929382 2.1458519995212555,11.438559293746948 m-1.9519615173339844,-12.022515535354614 l14.431785345077515,-2.560235857963562 1.4378578960895538,0.196909811347723 l0.7355761528015137,1.0526882112026215 0.04349479451775551,0.8193015307188034 l-2.391071319580078,9.395855069160461 m-12.095632553100586,1.4375314116477966 l13.081732988357544,-1.4105615019798279 m-32.98619031906128,9.139618873596191 l0.45893944799900055,0.9596600383520126 0.06998030934482813,1.1972900480031967 l-1.11737959086895,20.063748359680176 m1.891901046037674,-20.94278573989868 l27.206687927246094,-2.6940351724624634 m-28.16047191619873,9.421641826629639 l26.732568740844727,-2.2394004464149475 m-26.927928924560547,8.627800941467285 l27.07383632659912,-2.23282128572464 m-27.826223373413086,9.630547165870667 l33.1164288520813,-3.3158454298973083 2.5995686650276184,0.35246696323156357 l0.9704316407442093,0.8219128847122192 0.33400412648916245,1.800178587436676 l-1.4198234677314758,6.508714556694031 -1.7804303765296936,4.904058575630188 l-1.1834174394607544,2.0084314048290253 -0.8160373568534851,0.6711091101169586 l-0.6887355446815491,-0.0312746362760663 -0.5862412974238396,-0.5376054346561432 l-1.3866108655929565,-2.6929235458374023 m-14.978530406951904,-30.8135724067688 l0.4679974541068077,0.7084836810827255 -0.1270085759460926,17.635221481323242 m-19.731130599975586,6.596193313598633 l-1.0153952986001968,4.830614924430847 -1.4850248396396637,2.756247818470001 m8.993384838104248,-8.162985444068909 l1.53920978307724,2.5391820073127747 1.33552685379982,4.373307824134827 m7.134125232696533,-7.729505896568298 l2.3596537113189697,3.22106271982193 1.2637154757976532,3.016074299812317 m5.567333698272705,-8.053309917449951 l2.6690950989723206,2.9352864623069763 1.4285551011562347,2.7536365389823914 " fill="none" stroke="black" stroke-width="1" /></svg>