<?xml version="1.0" encoding="utf-8" ?>
<svg baseProfile="full" height="104.49294385907247" version="1.1" width="105.92954254807296" xmlns="http://www.w3.org/2000/svg" xmlns:ev="http://www.w3.org/2001/xml-events" xmlns:xlink="http://www.w3.org/1999/xlink"><defs /><rect fill="white" height="104.49294385907247" width="105.92954254807296" x="0" y="0" /><path d="M25,25 m0.0,0.0 m21.46222114133871,11.663872982794668 l0.4232288498440934,0.15855001288174678 2.3181006083857016,1.6132239898622496 l1.2564770032235613,1.685091201534224 m12.39429953909252,-3.665742682576177 l-0.1127738164912218,0.6579867534260636 -0.8106568776142816,1.5181405945706645 l-1.0423601501193753,1.2881076993438079 -1.4006231093728672,1.2317662644501586 m-16.035660467078046,2.1984424209552897 l1.9616877669678612,0.14842521794954563 24.065819236845492,-2.1094707636281043 l1.6883990616739732,0.13668456855363117 m-14.98863411897243,1.8949501684507901 l0.6530334071954521,0.6480793671833902 0.3168449950669062,0.9100141561273858 l-0.0867803833709449,7.224362969860594 m-12.587976821179627,-3.9583528388341827 l1.7922541056565577,0.16523718633777518 21.56813089104957,-1.8880481942658525 l1.6769531513712561,0.12943311001815294 m-34.04728435795852,7.178070421008178 l2.5393636385982967,0.26533154322296176 32.86568867194029,-2.752016351795578 l6.215869244682517,-0.3959550942505032 2.076463166674647,0.23566456476330988 m-30.021367280885784,2.5743593431212233 l-0.09402049814862326,1.1061168661068415 -0.8228507409640508,0.9592004731189816 l-1.9458776745595903,1.8423749237701144 -2.5046781504870705,1.920718958076978 l-5.736153726054881,3.4872411087583925 -5.844692146340926,2.5580509329933747 m30.879425882929155,-12.914706837437883 l14.739809015619812,10.038481839982904 1.209898866465525,0.6003019430727894 l1.907964623049283,0.4543332528781884 m-26.776346500152524,-8.763377497833918 l1.8356780940380486,1.039568666977628 1.0233117622210868,1.3712543270649338 m-8.032062718523928,2.648896941174946 l13.71602668437678,-1.261791195708484 1.2844082790541966,0.2263013419214705 l0.33773475029341726,0.8624127767758181 -0.8744661779666568,7.833892912497845 m-14.431720517134378,-3.8333057024718302 l9.806802196866032,-0.8060079885492913 m-9.859193384872588,4.818117902816923 l13.89690190029837,-1.152324453373195 m-14.966799627786102,-7.137438946271915 l0.4688052027907625,0.3532148709981682 0.3455669171718097,0.9684225157502755 l0.13738305818805405,15.21716178621832 -0.057639843892247224,1.999107628117224 l-1.0979579961311565,0.7143254711916609 2.5374033637147986,-0.9911842999670017 l6.379792495505156,-3.1508822666046976 m11.650959894852303,-6.11255578276221 l0.28028531566754133,0.9597394618582309 -0.33838428282429195,0.3926336073780995 l-4.064630159281864,2.3346354849076945 m-8.638250577787531,-1.6910620999055463 l1.3633789098555105,0.357613708264768 2.7270103190370665,1.271635916664621 l12.237941886035648,6.149181169450644 2.525145299932041,0.7241564181974075 l2.155833439049894,0.3422791119077849 " fill="none" stroke="black" stroke-width="1" /></svg>