<?xml version="1.0" encoding="utf-8" ?>
<svg baseProfile="full" height="105.12644663072777" version="1.1" width="101.76575441600002" xmlns="http://www.w3.org/2000/svg" xmlns:ev="http://www.w3.org/2001/xml-events" xmlns:xlink="http://www.w3.org/1999/xlink"><defs /><rect fill="white" height="105.12644663072777" width="101.76575441600002" x="0" y="0" /><path d="M25,25 m0.0,0.0 m8.302643678109655,8.358914624235116 l0.23701243804076066,0.3479336100148895 0.3367738732679279,1.6030337146214964 l-0.0021330317355890255,23.369720196108588 m0.630158374979425,-25.620502793970527 l11.181910293246858,-2.0828912695255837 1.579243436995368,-0.014876403525285 l1.0041019700357439,0.3383104480009992 m-7.525272993657149,1.7959701501534242 l0.3907766284073517,0.9164879889077527 0.04967988054250659,1.3587662164829244 l0.002419172736626847,21.136422233716534 m-6.507491862470414,-15.069315456061716 l10.963096092118674,-1.4827246636017826 1.4314744257532697,0.039267414071145895 m-12.232828147460904,9.216224570384407 l10.925056173724297,-1.498205021489162 1.618367019926227,0.12859205365519136 m-12.883593069398977,10.462443386306198 l12.74455850352797,-2.2215671627460374 1.0481174075033606,0.25493611311408454 l0.6462581269839203,0.7894576094226544 0.22954878115611144,1.3903148642948195 l-0.059551863681688834,0.9323681086334604 -0.7180929866515765,5.102940790068764 l-1.0916498626528344,4.802385189710354 -1.2379366923373032,3.7686873079123906 l-1.8156734034774074,2.741123550382463 -0.7424640930129923,0.3346506544744515 l-0.5292666531249082,-0.022468782944653706 -0.44115036589625306,-0.2898432900997701 l-0.8667149374183865,-1.3574608506266885 m-8.655743794707519,-10.55338943873744 l-0.24716228520843375,3.7969360539715304 -1.110975598192826,3.5689423690814808 m4.168440392323898,-8.445327032780195 l0.8991976614761763,2.778728263694313 0.5122817818474515,3.6883054110972444 m2.3300771899962447,-7.977713729594734 l1.37367449942877,3.1965864912250805 0.5887731049839457,2.7062078567437196 m1.6307720274442186,-8.063746442314487 l1.594469032327182,3.1081829205528244 0.582325968978298,2.315438032102469 m15.76131643034301,-35.96046576674905 l-0.09113145378081039,1.4078377667780286 -0.7804148030130403,1.594217362904814 l-2.8279653494157864,5.801127477975186 -3.1724322695419724,5.255054850626448 l0.5759679404540581,0.13993722439425227 15.82077096787842,-3.3904444411581625 m-3.6663225977547866,-5.121170902546038 l1.8135470901347843,1.7954890050763828 1.932801070867071,2.448150719392604 l1.6211266866665452,2.6438935239398753 0.9109012221371778,2.1997544803758715 m-15.24790106202297,1.8238394894838479 l-0.27768987683381724,1.257118581723633 -1.9733886383358827,3.0921284284059305 l-2.4329435230497896,2.8470397966402103 -2.508124320524936,2.2924179466669146 m13.793715200913104,-12.141684625678243 l0.4726528654918079,1.1781437361188525 -0.03214469155105924,6.4401716402037765 l0.11240900472294345,0.6945317322646085 0.5409138091181152,0.9167211344629859 l0.7914667471930423,0.5389533452220746 1.0503898991445628,0.2975430197318753 l3.907006208322499,0.04255125113274702 2.225490844203869,-0.39299811805486656 l0.9246249887180122,-0.7923194501883549 m-14.618012533961645,2.2040006653969604 l-0.285856930502624,1.824571514358359 -2.5662445720891163,4.384707395577465 l-3.4883090717946676,4.837903521969586 -3.9849204733841925,4.351812632291754 m10.543734564194267,-11.171476024820556 l1.7541680568480267,0.2807880858880724 7.896455987803451,-1.6929572417850771 l0.457770953663263,0.2774788953401472 0.15920175060672134,0.5095357685969186 l-0.5619139723442332,1.9038106038151474 -1.175909343446263,2.7390257904172426 l-1.9411997368386982,3.278678767446174 -4.841764364473662,6.0176656502558545 l-5.579470847825396,5.0054792630607565 -3.3817366373290625,2.206767057260341 l-2.4732184509342723,1.265895343818591 m6.928591619878071,-17.38678048948956 l1.236642108546639,0.8423672825831897 1.9983591005768067,1.943475091246692 l12.538271929620327,12.783151490070424 1.8084965927399335,1.4160660322418401 l1.7644700011850802,0.748694470918533 " fill="none" stroke="black" stroke-width="1" /></svg>