<?xml version="1.0" encoding="utf-8" ?>
<svg baseProfile="full" height="102.77553339352943" version="1.1" width="92.05954569757965" xmlns="http://www.w3.org/2000/svg" xmlns:ev="http://www.w3.org/2001/xml-events" xmlns:xlink="http://www.w3.org/1999/xlink"><defs /><rect fill="white" height="102.77553339352943" width="92.05954569757965" x="0" y="0" /><path d="M26.072771391657305,25 m0.0,0.0 m11.481350001968584,3.468236520949145 l0.47136499997807085,0.1835631969500781 2.8604000232706337,0.2192002069190202 l15.46032782696424,-2.862807143976984 1.3571175687719088,0.002586961200708362 l0.9904683291648816,0.3227986419085968 0.47076984187240967,0.5242204116712929 l0.1570202841311546,0.6602554080165218 -0.35494009255752285,0.7530697594420047 l-0.733509022647044,0.7514104256863269 -6.303296931343119,6.488676410287774 m-4.644260124132533,0.7974699601685973 l1.0620967936369567,1.1546500459386428 0.940395566862117,1.4889134634546182 l0.7758745894118946,3.466244548549615 0.4151783705873362,5.892974145572299 l-1.221388645360562,6.004630079640032 -0.5743131098313955,0.6823368670170017 l-0.5820570503006159,-0.006246663226193196 -1.7314951512127126,-1.9419669894763718 m-16.952490646607608,-10.384427185301007 l2.1534296216327737,0.34130376521403966 2.45811653069547,-0.10135060542812653 l11.895706278039636,-1.7567234600236186 13.170850133443404,-1.542695196385071 l4.30599289082523,-0.08535187681444639 2.963968755865905,0.7425514643833333 l0.6940966727928249,1.276967632912496 -0.0030409004276167545,1.74761116186888 l-1.2424285420829726,2.4069988081609206 -2.60623282652089,3.3708159596722713 m-11.58629691744161,-3.836182417492449 l0.5889901974724436,1.7377033705333613 0.04004427586586975,16.186357937957567 l-0.22952821816428812,2.1385199336064002 -0.4268777754485123,0.8627655287731834 l-0.587909489869852,0.09944707438912043 -0.6835600734275158,-0.5054209718239091 l-1.8450715950428942,-2.466221994923759 m-16.548953130395738,7.592387080604862 l-0.4315252660770465,0.3683708612858788 -1.0365083356280897,2.295766797151449 l-2.762846386064473,2.4869672140333763 -2.697800714326474,1.7491562544819375 m34.12971559513122,-7.852407171294877 l1.907270229399291,1.435574954118927 1.927309323094895,2.0968769851120794 l1.6558037056658004,2.3237197085403487 0.9708737695779577,1.8750989915653018 " fill="none" stroke="black" stroke-width="1" /></svg>