<?xml version="1.0" encoding="utf-8" ?>
<svg baseProfile="full" height="97.83974004661292" version="1.1" width="111.3878162678938" xmlns="http://www.w3.org/2000/svg" xmlns:ev="http://www.w3.org/2001/xml-events" xmlns:xlink="http://www.w3.org/1999/xlink"><defs /><rect fill="white" height="97.83974004661292" width="111.3878162678938" x="0" y="0" /><path d="M25,25 m0.0,0.0 m14.213520911129637,13.649436334739804 l0.4305653652714065,0.36809617599718375 0.7032365272343447,0.7023363907491492 l0.6800057304907484,1.5400696117896766 2.7995131746031654,13.510656406783754 m-2.8288107935996223,-15.795671326783332 l30.947061521369736,-2.391556772702723 1.8744669506077893,-0.1329397159946059 l1.555240790103028,0.2468663702717494 0.9075137258401597,0.7529746694388775 l0.15258148561817014,1.4312922486768147 -3.316615524532276,12.350386095300468 m-28.97805204158715,2.6454636989121214 l30.7586033146121,-2.0995241614972158 m-24.306334800936593,7.005071838305068 l-0.006272475939860097,1.196649308552994 -0.4551135851475317,0.9032479827377499 l-3.8960202720159844,3.6711260328423427 -6.606448564280467,4.559805052213543 l-6.964520473662013,3.725953806279499 m37.43096700969515,-13.446136768802695 l4.554008159466046,2.1639153146274506 5.214790912237932,3.4452876393931446 l4.360259223141034,3.7419612668439837 2.163669998174842,2.886667732290499 " fill="none" stroke="black" stroke-width="1" /></svg>