<?xml version="1.0" encoding="utf-8" ?>
<svg baseProfile="full" height="98.47310361222634" version="1.1" width="101.19509048017451" xmlns="http://www.w3.org/2000/svg" xmlns:ev="http://www.w3.org/2001/xml-events" xmlns:xlink="http://www.w3.org/1999/xlink"><defs /><rect fill="white" height="98.47310361222634" width="101.19509048017451" x="0" y="0" /><path d="M25,25 m0.0,0.0 m7.4078989910659825,13.634667827673619 l0.12625693503552568,0.4149008000984819 0.2532020761512456,1.2795293655235818 l-0.002457601588932443,21.77712668077527 m0.42321681097964814,-23.31856536923872 l10.320265230191811,-1.3964323737716715 0.5889550185093384,0.07597060710128585 l0.7688959284733845,0.6743119873384168 -0.2981753525476359,24.034963086463925 m-11.36319797516925,-15.489939587278641 l7.196221623177373,-0.807837960791989 m-7.251580217306612,8.22942963665882 l7.14620292817227,-0.6655567891060427 m-6.7458129192980705,8.875879393143144 l10.546805377155186,-0.6508760929026078 m-7.594602317464538,4.331645271263005 l0.18562457148613046,0.7916871923403314 -0.5972247539876301,0.8151427424100517 l-3.3454119715032635,3.5159623819612866 -2.6789856800669853,2.351094812564799 m12.049957600358292,-7.890638207437628 l2.714300017211916,3.3597196483359903 1.9480694529202716,3.5375730320704517 m4.307251684079143,-31.616653752443884 l2.40748749597694,0.17392552191778213 17.832866775768014,-1.6261434119854952 l2.835803655674745,-0.0767784065930391 1.246187541312356,0.1600089407479513 m-18.32365982354391,1.5573455721185285 l0.6253602136487169,1.271648262781855 -0.004390741528602652,6.075032303757806 l-0.3365053702808296,4.704353391199074 -0.7022755572877306,3.9403953488338987 l-1.0683176482105572,3.2433666307732545 -1.1863801451047336,2.391912044241816 l-1.9523326766473996,2.760906341520766 -1.9159536643595236,1.9698423690721216 m14.540228391833358,-19.477448903707597 l0.5660766832710135,0.8625203090221737 0.18002026618229272,0.7804894913878297 l-0.10473313008433394,19.160629153562667 -0.05888845385654652,1.082622520274708 l-0.20936199418877324,1.0258315183501603 -1.009844960102141,1.1469060911007571 l-0.6227525535957723,-0.13462486339635507 -0.6654351794505661,-0.4280216024824912 l-1.4057196671721006,-1.297313360213318 m-9.883825150353317,-15.826693555372437 l1.533261661210228,1.3423406885427442 1.2876813696108251,1.6321611387291461 m-6.561091254128972,8.751522403174175 l1.0894070237157245,0.4931148258323163 0.865199136835545,-0.1827730083016964 l6.838091596817339,-5.168280441366645 m13.168247160904372,-10.691578856452123 l-0.06910684282383074,0.7927188602180425 -0.8592013415798666,1.430054040943463 l-1.206691455354802,1.4147632080103794 -1.6213849741012465,1.3886159105605091 m-2.1301694525320056,2.629278975397239 l2.428962077728501,1.5168467460558894 6.953497828141,5.917329465109726 l1.593021907344752,0.9073939680629437 0.9960362744517621,0.3081923252942749 " fill="none" stroke="black" stroke-width="1" /></svg>