<?xml version="1.0" encoding="utf-8" ?>
<svg baseProfile="full" height="108.86326277968999" version="1.1" width="96.91795724188027" xmlns="http://www.w3.org/2000/svg" xmlns:ev="http://www.w3.org/2001/xml-events" xmlns:xlink="http://www.w3.org/1999/xlink"><defs /><rect fill="white" height="108.86326277968999" width="96.91795724188027" x="0" y="0" /><path d="M25,25 m0.0,0.0 m13.207177932859206,16.383506542765893 l0.4623875877093933,0.10529897334132403 2.5441003971098155,0.08422699064098677 l22.98511348595513,-1.7979616929717583 3.6345008355591992,-0.1413116206635546 l2.1445707293856153,0.17890286204433767 m-24.19209743326541,-5.093228149226456 l0.90827353150529,1.11047939077973 1.4657173313691907,8.490233384367125 m11.999827416343228,-10.870308125680923 l0.12167267127022306,1.3920789555046758 -1.575829128369074,9.172567263058506 m-16.709070951803817,3.867680687070255 l0.663984283677502,0.2006470797054905 1.559254516628204,-0.1521609973812557 l5.169484132743963,-1.2300413698745902 0.6207206282651079,-0.12955075032199456 l0.4806976112630538,0.15538078628679558 0.23096870108317263,0.37344925976832294 l-0.1958711046306058,1.052721959912312 -1.2700307376903188,2.290607091001798 l-1.6175005095896258,2.201462623618986 -2.082227868569024,2.3697559112777173 l-2.5320606298880586,2.410226131109979 -4.625253181245835,3.4390303795288837 l-2.390970316275874,1.3218758174524219 -2.3599159718670686,0.9613441840302125 m4.957827016580228,-11.53233668749221 l2.451390675041962,1.7822887387286115 1.3310514158825544,1.6470889274963525 m11.203038841723982,-8.825032320504052 l15.219287605369116,13.53078470244161 1.396496161257064,0.8960641900658629 l1.7112415664927776,0.6426465110991526 m-9.60244854536651,-16.03044053658189 l-0.13702818312659662,0.6939011376888339 -0.9906853135237625,1.2250476046907413 l-1.3305647180207276,1.0610461406182112 -1.6931091090884813,0.9564205846425603 m10.02233665077807,0.24903715335388246 l-0.31187437929940814,0.7190952454077189 -1.417255640195011,1.1764067090308485 l-1.948687333832905,1.9463274208545347 m-17.869454988247924,5.092265176441216 l1.6002622845133645,0.16053225843277544 10.706468136401154,-1.106241304771367 l2.191303959381553,0.07123034630124671 m-19.59647776756445,6.341257608672912 l2.7052934153609023,0.1709743221254344 17.784422232831155,-1.2934006212793172 l3.6052127392199265,0.18485899921362578 m-25.124423163018264,8.440436213569802 l2.9449851293367066,0.23329944975925346 11.327387752190143,-1.5343765178082582 l8.52557210350187,-0.8414105197178218 3.3395722002853026,-0.11876419028490565 l2.8697669411627813,0.2717207077227878 m-15.211585317115345,-5.59764824058079 l0.37041661777392754,0.7847342298464619 0.17121154633024566,0.9869295958006522 l-0.5435126469299123,4.413448654004919 -1.0637743662566264,3.393767854260313 l-1.5101540045511601,2.8530543828707264 -1.9910226661599761,2.4461821984955057 l-2.4654983780543525,2.0805714783829417 -2.8479765907167325,1.6996861737318836 l-3.76298243779903,1.4448954358140127 m15.247828646533598,-13.5996472657475 l10.726439022249933,10.101433173135028 2.7619016864561496,1.984712428126251 l2.0167807972446226,0.815962373131666 " fill="none" stroke="black" stroke-width="1" /></svg>