<?xml version="1.0" encoding="utf-8" ?>
<svg baseProfile="full" height="99.06191772544422" version="1.1" width="113.49372331760219" xmlns="http://www.w3.org/2000/svg" xmlns:ev="http://www.w3.org/2001/xml-events" xmlns:xlink="http://www.w3.org/1999/xlink"><defs /><rect fill="white" height="99.06191772544422" width="113.49372331760219" x="0" y="0" /><path d="M25,25 m0.0,0.0 m14.54713908798384,14.186629826310215 l0.46533532706478586,0.391809895400308 0.7339960971493005,0.7840539790763346 l0.54772818302706,1.453782781286364 3.1403573109249407,14.497656589349656 m-3.1287492424443117,-16.419081795236792 l32.04280254300883,-2.4899666124552327 1.8962134936075408,-0.20929437051136945 l1.726145991961077,0.23796938204908652 0.9579913477978019,0.7156879825321052 l0.22158394998641864,1.4270178614702584 -4.8987466032821,13.056994965468997 m-29.75139833634157,2.3307721589340358 l31.507824427958212,-1.9406591645025812 m-25.491302735957124,8.793858871707192 l0.08474829129914781,1.2499776821376551 -0.44878048063056053,0.9257217938980214 l-3.8777823134193903,3.522104586094366 -6.753792394897286,3.715640154068264 l-7.886617339316609,2.8312411583673396 m41.4297987687787,-11.680908664535904 l4.541254093823592,2.069387008608067 5.235540309255766,3.0515884893373966 l4.396662226519962,3.384689995310256 2.255771313744157,2.574659524531793 " fill="none" stroke="black" stroke-width="1" /></svg>