<?xml version="1.0" encoding="utf-8" ?>
<svg baseProfile="full" height="101.59125077860145" version="1.1" width="95.35622858552188" xmlns="http://www.w3.org/2000/svg" xmlns:ev="http://www.w3.org/2001/xml-events" xmlns:xlink="http://www.w3.org/1999/xlink"><defs /><rect fill="white" height="101.59125077860145" width="95.35622858552188" x="0" y="0" /><path d="M30.338488618167325,25 m0.0,0.0 m6.088710675640825,10.550352560952096 l0.057896620695132954,0.48263625001146204 -1.0362592159918234,1.5852680242084023 l-2.657554912250207,2.6742451233781086 -2.8913452271926743,2.299182008624229 l-3.33393791896497,2.1545113378222047 m11.17712261637908,-0.3368449792831982 l-0.18319703046561303,1.0682676357564884 -0.6074850963630509,1.277240800336678 l-3.1651025013543945,4.454208170454301 -3.996730481337122,4.504914780209972 l-4.790606146962509,4.458912518325702 m8.351768485148977,-6.3122030177824655 l0.48582245248905537,0.8017435490080389 0.13097691442081136,0.9148742965963783 l-0.05019642968674935,20.71387384797843 m11.262477434691277,-42.62182906659611 l0.5846040797289861,1.058246397178562 2.1301382079339883,12.06843491042455 m-1.8474741347640569,-12.824946379306335 l15.893673379254135,-0.7895151915721761 1.3567748102742552,0.17378451751605775 l0.949763697352826,1.6285543177026731 -1.986873606575364,10.521709830586794 l-0.8986453964397554,3.338591351838807 m-14.33991164813596,-7.196416291767134 l15.709405057916724,-1.1373026355469562 m-15.015094500275458,7.762194077475245 l13.497754467636756,-0.757039135588325 m-23.861639864782447,7.374312845044093 l4.040117486009929,0.19345953457684048 26.00501494022592,-2.010203537923747 l2.9577727530980167,0.15644924242310143 m-29.236664232631856,8.763354883568386 l3.0581527709746474,0.1997267317972 16.91469946875869,-1.547944875352319 l4.260160216034373,-0.19401570347638813 2.21118363422562,0.17543685323623803 m-8.455311429324452,-4.486392698533126 l0.6488331072591333,1.3479897341923135 0.14483231121416845,1.3461921852408014 l-0.08019101725176235,16.462977603089627 -0.22805282964167178,0.7591474592207695 l-0.40831751484165185,0.42252667619752865 -0.5325184175136927,0.11258423635766908 l-1.314103139917913,-0.5373947765451621 -1.7556872242279034,-1.387748071340323 m-9.200552416005285,-7.9478305413842865 l2.5844947319359934,2.1908701657165435 1.1089217529937845,1.3226186005736422 l0.6206206115829604,1.1320292567870611 " fill="none" stroke="black" stroke-width="1" /></svg>