<?xml version="1.0" encoding="utf-8" ?>
<svg baseProfile="full" height="102.44390808650788" version="1.1" width="102.59292410912506" xmlns="http://www.w3.org/2000/svg" xmlns:ev="http://www.w3.org/2001/xml-events" xmlns:xlink="http://www.w3.org/1999/xlink"><defs /><rect fill="white" height="102.44390808650788" width="102.59292410912506" x="0" y="0" /><path d="M29.70332300227153,25 m0.0,0.0 m16.700445131109976,13.232797891925605 l0.41869744471887776,0.13970991261199903 2.3229844559117225,1.7109518452809072 l1.2089122704091948,1.711544146744441 m11.315978915963155,-4.210584895456426 l-0.12300574632878788,0.6812359862531714 -0.8162528999823987,1.542864020757188 l-1.033374548344751,1.3343081050555818 -1.4066734862942922,1.2944291873786264 m-14.778385700458395,2.2200841684051076 l1.8322626312154215,0.16911315885044068 22.845262611993878,-2.2074590771407188 l1.5836034162893102,0.14386739229299936 m-14.076940007496379,2.034027647818346 l0.646327728422545,0.6784648696204583 0.3043720005736839,0.9285626607728601 l-0.08055182419397543,7.418474438452171 m-12.156665803375423,-4.08603482929441 l1.6863218104267814,0.17225151092234756 20.868354038644895,-1.990910168150436 l1.5982263133267038,0.14341179686714223 m-32.37802940900501,7.42825864173736 l2.3269843834064203,0.26971702555209104 31.214279619516947,-2.91861447376753 l5.938510674965991,-0.3784654808206642 1.9279570854374324,0.25634214055541504 m-28.579019156855374,2.643802821048259 l-0.10755833499350376,1.1586012721428403 -0.7980627875465987,1.0331914455933633 l-1.8081226993426627,1.8713024088661452 -7.616191065476614,1.9812038796781728 l-7.0349391043685525,0.3829418317620107 m-2.273518816277412,2.436619756262846 l3.106357630086696,0.3196426391079663 3.01359870012782,-0.09577416747838145 l32.28273674739183,-1.702474455365573 1.8451549428880991,-0.0579548984546923 m-28.424047550366964,-3.2463954421104826 l0.648540849059739,0.6140428153022556 0.2847745796424154,0.984558812515425 l-0.12075325129708674,16.402251744413665 m-1.1445240695824295,-14.695181047603878 l-2.943349400456348,3.3703818462584776 -4.068234986854343,3.3978942008545214 l-4.353057622662006,2.6800622356321417 -4.502708712241778,2.1957212407186613 m19.58967650672832,-11.517630692770297 l15.692796808609463,9.728899631961733 1.6010631365185348,0.7854842167243096 l1.6081400578938865,0.4252624289009553 " fill="none" stroke="black" stroke-width="1" /></svg>