<?xml version="1.0" encoding="utf-8" ?>
<svg baseProfile="full" height="116.9705665428657" version="1.1" width="113.32285138876667" xmlns="http://www.w3.org/2000/svg" xmlns:ev="http://www.w3.org/2001/xml-events" xmlns:xlink="http://www.w3.org/1999/xlink"><defs /><rect fill="white" height="116.9705665428657" width="113.32285138876667" x="0" y="0" /><path d="M25,25 m0.0,0.0 m8.05560474407066,21.899701692384625 l0.5480362780675624,0.10281752935762535 3.259255206511823,-0.09358133261619282 l13.57203398693831,-2.031273540729402 1.8195283555995527,0.05638638016211475 m-9.213372685218445,-13.28010067144947 l0.8032200232069321,1.400171322618872 0.23067354933943343,1.8495491292364152 l-0.002093441542033839,49.10201258154892 m-0.3474109239555709,-36.93930594049186 l-0.626365702546624,3.206945444092793 -3.0895567590956174,7.527840948341252 l-2.9516556356055816,5.59840772491363 -4.182668359223273,6.740923001110126 m13.215976120577478,-17.84168734799352 l2.2762924019206423,2.5076617617492936 3.1193574394763792,4.2076946651826646 m4.3033549535340425,-20.188804217277564 l2.773489966281426,0.16395851191469976 19.2188849425595,-2.288513477659514 l2.814201515842434,0.17567146488881935 m-24.871647171056498,17.580043064203835 l1.9312483921938661,0.24900947620682765 2.1202501360384893,-0.09191111550643036 l17.115409628238286,-2.378180169526011 2.48415667990218,-0.17648237266815014 l1.688805878281494,0.13421210194578828 m-28.90529332239647,19.49888437230901 l1.8254605623160198,0.28730282953787345 2.0313310960525794,-0.03131038188982174 l13.061532036411327,-1.5308960935760987 16.488221575016937,-0.9338940098443983 l2.7565899210294447,0.3108747993636232 m-25.152468638949664,-33.0334073319653 l0.7641688810715624,1.0249434868650482 0.372039550419046,1.7920412729153685 l-0.037805980549420116,52.39286098521022 " fill="none" stroke="black" stroke-width="1" /></svg>