<?xml version="1.0" encoding="utf-8" ?>
<svg baseProfile="full" height="105.25569642989808" version="1.1" width="99.04995303132085" xmlns="http://www.w3.org/2000/svg" xmlns:ev="http://www.w3.org/2001/xml-events" xmlns:xlink="http://www.w3.org/1999/xlink"><defs /><rect fill="white" height="105.25569642989808" width="99.04995303132085" x="0" y="0" /><path d="M25,25 m0.0,0.0 m15.322915176578785,12.173638849314749 l0.452157823645378,0.10163319440905837 3.2785776729694605,0.06105442523338151 l12.918781478313091,-2.045476603911698 10.880827132634122,-0.6692284394525883 l3.6073263320765023,-0.28984831690860835 2.589367415103508,0.26210611704297504 m-18.499613362697417,-6.803836526739091 l0.4709833587848497,0.9286230184039099 0.15968221270296262,1.168662887962616 l-0.00474541118709069,14.803424197478469 m-10.823211449901441,1.627006754970984 l0.4383918818026986,0.15713450336541135 0.4094327895914288,0.6839298120113207 l1.5879328482133375,9.53516758740887 m-1.109179745603353,-9.996624309198578 l14.251288293613946,-1.9607355003954787 3.521499262931303,-0.25119240823034217 l1.0444134032113146,0.12631178074884436 0.7816876227428655,0.7387175055293188 l0.04335365688577134,0.6273804073293572 -2.021915167847173,7.146950443932548 m-15.9733868723551,2.2434368573960244 l17.105371504693974,-1.7264468433842433 m-19.97312202946425,4.531624559730399 l2.066161040765002,1.5329743069249526 1.5749505066862481,1.5334526913100528 l0.9050439908409819,1.2419585455268394 0.4272145007725298,1.3609318643879453 m15.693685469040139,5.089402139794481 l-0.33946684048827214,0.888179214728725 -0.26274181993030493,0.5839957174726753 l-2.7674299068769446,2.086147723801031 -3.4699279010117317,2.2693606988719086 l-3.995653481477166,2.164853741782231 -7.506999076118404,3.3310258312496197 m-6.893463416588711,-21.105091923909892 l0.5861013807458915,1.6829326252695702 0.09703149862529588,13.055152344370288 l0.21170508558135243,1.8383853900743325 0.44229459263260207,1.1675740864503077 l1.563971151722578,0.9514028906778871 3.1657330916369655,0.4870884588159059 l17.92852432542158,0.1254450001296546 5.314651948711753,-0.6010590830532321 l2.2356755599781,-0.6359705508530853 1.4424791205194978,-0.9120565539114203 " fill="none" stroke="black" stroke-width="1" /></svg>