<?xml version="1.0" encoding="utf-8" ?>
<svg baseProfile="full" height="104.9819437463912" version="1.1" width="110.76752942819745" xmlns="http://www.w3.org/2000/svg" xmlns:ev="http://www.w3.org/2001/xml-events" xmlns:xlink="http://www.w3.org/1999/xlink"><defs /><rect fill="white" height="104.9819437463912" width="110.76752942819745" x="0" y="0" /><path d="M27.09996006005556,25.40662285638423 m0.0,0.0 m12.670009722161208,4.374656937946668 l0.04319493544937988,0.4722680945099992 -0.2358697526016725,1.3387574632870236 l-0.9448610094856814,1.9482587100602238 -3.994723256772044,5.918025146583885 l-4.222930222733798,4.8546664365039796 -5.414780476072953,4.877838655923267 m10.355379409241573,-16.972702215289903 l1.6858820832858574,0.4335839495648186 2.314655627192086,1.202299275660627 l3.6957741666462196,12.674984601290122 1.2246630947954085,4.498051939025737 l0.8648933285328645,5.572549237012605 0.48976869225153047,5.067358866786643 l0.09618548433004015,4.851481349586547 -0.31829197527052133,4.97859018253019 l-0.9872229793508165,4.320024094698922 -1.6513130510609748,3.2412792477863688 l-1.387087068536913,0.9233489165392417 -1.5820716234753847,-0.3015787558989891 l-1.691323586130348,-1.6019644263237764 m3.6374751314933986,-31.557063341436344 l-0.08088097935774118,1.9425164731497815 -2.071338356830276,4.216665647932818 l-2.0895479624306312,3.4082773597056053 -4.146329305633493,5.135787788325105 l-5.093041722749361,4.957315249676294 m23.409723957512163,-29.65506268582181 l3.157599525787776,0.09366468067759402 23.626674773847906,-2.926993472651838 l4.555983414598066,-0.19097158140319725 2.4179711684603764,0.2717998081977964 m-18.82918063417639,-8.774336490520234 l0.6376517446062964,1.441378721263839 0.2057993040982434,1.403075143981004 l-0.025817391098020403,18.69316001114236 m-17.525646557191003,1.679879969417082 l4.879700815191557,0.3626938654690682 13.91608187799434,-1.4622939456288249 l12.448661084033867,-1.0087391727657917 4.626097937589757,-0.11133814170775432 m-32.35695587170609,14.793193878312417 l3.1342945735721592,0.2775011901603443 22.18559730151667,-2.2876970171905264 l3.8242886800754725,-0.20238326913833252 2.405786961710473,0.27159085914586817 m-17.819283682500505,-8.904957491467043 l0.6411903118044324,1.1175735711141237 0.19630498803462534,1.3328340193156412 l-0.1034800518295503,19.58503829810344 0.054803208377197564,1.351982148294043 l-0.15311090300132432,0.779108673582462 -0.1979064280915019,0.37945347014687214 l-0.18675969129004466,0.03124801816182924 -0.3800819265978869,-0.3455552198164553 l-1.581289529148775,-2.3698767518696062 m-8.691442700518545,-11.036280395375536 l-0.0904135154528788,2.5847395961215005 -0.7646063879774013,2.9108593141364105 l-1.4937766342289,3.4149022745484396 -2.071253263010461,5.003879780376804 m22.923082846396905,-13.70981737758082 l2.164276009109821,2.942783604037482 2.1824039155019115,3.902451791947755 l1.7651268542439538,3.8952366283101463 0.7954160540960679,2.894574759413501 " fill="none" stroke="black" stroke-width="1" /></svg>