<?xml version="1.0" encoding="utf-8" ?>
<svg baseProfile="full" height="110.57442301254903" version="1.1" width="105.09601186102094" xmlns="http://www.w3.org/2000/svg" xmlns:ev="http://www.w3.org/2001/xml-events" xmlns:xlink="http://www.w3.org/1999/xlink"><defs /><rect fill="white" height="110.57442301254903" width="105.09601186102094" x="0" y="0" /><path d="M25,25 m0.0,0.0 m17.730885776353286,3.7941858945428835 l0.05695373065598353,0.487880821912142 -0.18514339071391878,1.285943695589339 l-1.0564964078788894,2.1964902740614387 -6.827230641977835,4.681704322581932 l-5.603151184579152,2.6326299663338935 m-0.7917349971348009,8.391534274687325 l1.0665812400243042,0.23760729443546166 1.0640750458605415,-0.09978345269797763 l14.184480434337239,-2.8162651304541053 1.7218829977336476,0.014247190496754214 m-8.17443212064059,-7.882431637469833 l0.7640807303318689,1.3926131145136182 0.3082086579997764,1.1273740762808944 l-0.04334061140705239,41.23647860382782 -0.21216881793937473,2.4219680822813507 l-0.4624861445785254,1.2425037000153527 -0.6494717723225194,0.2297419216107302 l-0.7325018641001154,-0.49892714797677123 -0.7300837556796625,-0.9091132772302014 m2.8631133079773834,-33.27853056283408 l-2.0883218913674804,6.489189174693162 -2.4436997006808103,5.964756627707152 l-2.559201295804349,4.9476454732874675 -2.5246666083886673,3.780297903857062 m11.30451469738338,-16.420084805359327 l2.5006555989880574,2.1848349059363734 2.776964925364588,3.7137690734913678 m4.650633916951438,-22.8055945971988 l1.7932647350397195,0.2657260094868851 17.24359403625634,-2.0185464466192116 l2.1506646526489592,-0.16643150530598402 1.6686378147023118,0.2665890056402333 m-23.218601826099913,9.075454277797267 l0.6572630423580503,1.8668323288833324 0.34679755571210075,2.2734373606100577 l1.3253014299185666,13.409041668457276 m-1.1516139463175317,-16.41368771784527 l18.656896242034748,-2.4201672921144852 2.596901724761569,-0.2127151737105258 l1.123671170191446,0.26335378259645664 0.657059126532853,0.9510377953307303 l-0.03451798745130558,0.7804913201900805 -1.433683894149718,9.953457855415632 l-1.0967904888257967,5.221446212056242 m-19.495430677918353,-7.054037051897623 l15.64930766395265,-1.825298320832253 m-14.730199040129365,9.521211077227138 l18.445867119570078,-1.9894042814315138 m-10.68872011159221,-29.444653746666873 l0.5356945453018366,1.0525185478331227 0.3479228560548106,1.8251214068204347 l0.11827704351982002,27.585127867089955 m-12.214478122463055,11.695771134985554 l-0.687726316181011,4.332357413825507 -1.4216805037862823,4.967241648264602 m6.490367609612855,-12.899077490734946 l2.4144162583166633,4.624806976700926 2.3935254841051337,3.4629987489396674 l2.83392510964486,2.894087797293312 3.308000285718476,2.1869778117527345 l3.006171824782388,1.0164804443483872 2.6296821671824246,0.4350894318196805 l2.404671446587675,0.07209341369944008 1.8985589750448253,-0.5317872773861441 l0.385265748883514,-0.5144243673573998 0.07528296943239361,-1.4785618603739725 l-0.4152041233976112,-0.9396247877514244 -1.4652041980355124,-2.257309410208364 m-10.739113029236435,-10.963430972048736 l0.8969366023211304,2.9030926258484935 0.9987442736566182,1.5450768510410129 l0.4889312866278259,-0.09653213946834745 0.47212157765116464,-0.8262176961083291 l0.44613843835374517,-1.7534307180716957 m6.854020573172975,-3.3088151205611935 l2.387092166349735,1.774678860231682 1.452685443623919,1.555741845047488 l1.4210402644341726,2.2011572870079497 1.4053770077789476,2.9867124442648745 " fill="none" stroke="black" stroke-width="1" /></svg>