<?xml version="1.0" encoding="utf-8" ?>
<svg baseProfile="full" height="112.51393274026988" version="1.1" width="93.76551203779499" xmlns="http://www.w3.org/2000/svg" xmlns:ev="http://www.w3.org/2001/xml-events" xmlns:xlink="http://www.w3.org/1999/xlink"><defs /><rect fill="white" height="112.51393274026988" width="93.76551203779499" x="0" y="0" /><path d="M25,25 m0.0,0.0 m6.4918815448697575,12.093555048570634 l0.1111168437565443,0.43438073107096725 0.4273795143866381,1.4328031155677285 l-0.019069767174602077,21.898003626520186 -0.03321458352419618,8.469178969013681 l-0.4320620807593152,6.7178175439541565 -0.6522181371662422,4.634332241325605 l-0.8449286080928275,3.772501513352209 -1.0649186665647865,3.0613599508947087 m4.109461310356827,-50.11568728338121 l7.297175318390716,-2.079470432070493 0.552844857878769,0.07247452158279652 l0.4116207841585193,0.43733215841984563 0.33491377417754603,1.4155597506090491 l-0.21018707393053035,47.33407313096036 -0.2855201422346551,1.4493780161013528 l-0.4228533419775222,0.6056579616452655 -0.5273438963919717,-0.026679954820543684 l-1.1825528229724858,-0.4850054884032677 -1.4405610465992043,-1.5309465036847472 m-4.357886211826685,-34.582952152552394 l4.723637195905896,-1.2075244338572106 m-4.931641053609033,14.533564691530337 l4.966031388317338,-0.9784163158437845 m9.435714379496828,-28.048310104298107 l2.511050825133194,2.3309971520932837 1.4556931352134277,2.0292442593732964 l0.5693900981000324,1.4256861920275024 m12.317152301461498,-8.761115295223282 l-0.2941858891906178,2.008157391268181 -1.018940284093915,2.6748466192564178 l-1.2608837721459953,2.367432586368335 -1.5565098688922014,2.0663550295731903 m-12.421211081861069,4.058462797879897 l1.5480002417907484,0.23105988607479638 13.811102941439206,-2.1047809075741917 l2.350310477612718,-0.13905815188639412 0.9806454849002885,0.23637945482875872 m-20.31387986493153,10.207403099185516 l1.5690841670658509,0.28027267947676915 17.369742410030433,-2.476719820705708 l2.520234470456089,-0.12427110606888622 1.1718967668354956,0.27189046481347445 m-11.945679222188321,-20.64619160205887 l0.5405226743320057,2.3763913595112918 -0.02333922723979442,8.529554703326369 l-0.3982798857519837,6.3081495820913185 -1.000026722705127,6.301372775663403 l-1.38809674666636,5.0208718402717585 -1.43741940516317,3.476326617036063 l-2.2424528009422673,3.8906419221687503 -2.1260312722011427,2.5809312600067127 m-0.15963659609672504,-18.591574159962853 l2.288739096758435,0.4730246676422177 16.298336156487935,-2.462833299483186 l0.8651044837492717,0.30560518081468474 0.29947840729826786,0.5080621949468095 l0.05122625287903607,0.7722292399719854 -1.3052399254722375,18.941557956839077 l-1.4322670926456216,6.582038729586542 -1.881825358184887,1.9486336936472195 l-1.4471586971125228,-0.8441699516020315 -1.051057351356122,-1.783828261036437 m-12.70698709379463,-17.95664984843332 l2.793390305407181,2.414548367220321 1.0897529700449755,1.8400606640651496 m-6.2683974626390215,8.251110526514639 l1.234898643255649,0.2953876481902486 1.460519300290224,-0.33090727813248 l7.911963961457815,-5.170568204573603 m9.478210923622333,-5.557913144674177 l-0.17235086643411063,1.2169478876887834 -0.79545457875072,1.814132537434735 l-2.390522085825467,3.9396976917500974 m-3.907377875551566,-5.216887758894027 l1.688204056411983,1.584387278863076 1.793296356888114,2.1006019224070602 l1.4370519554849175,2.2297018310324783 0.9845460537466305,2.064266973604929 " fill="none" stroke="black" stroke-width="1" /></svg>