<?xml version="1.0" encoding="utf-8" ?>
<svg baseProfile="full" height="100.0582911439992" version="1.1" width="101.40623755799183" xmlns="http://www.w3.org/2000/svg" xmlns:ev="http://www.w3.org/2001/xml-events" xmlns:xlink="http://www.w3.org/1999/xlink"><defs /><rect fill="white" height="100.0582911439992" width="101.40623755799183" x="0" y="0" /><path d="M25,25 m0.0,0.0 m15.784532390998704,11.346075564619435 l0.3926930063360992,0.3934938697332142 0.5773392387066695,0.7827556659942693 l0.522644917171228,1.5972288362385985 2.7417621380290216,13.710173042824227 m-2.602291267740154,-15.912088055969594 l21.61190611790257,-2.4738632437205297 5.379658999348865,-0.35577556220516215 l1.3382771212009863,0.23748929475308497 0.8869394180460977,0.7932307014074019 l0.24672341272980658,1.6663296297433652 -2.523934066678773,11.228610796358312 l-1.2370733465769126,3.2319052034579867 m-23.169296943165353,-6.7297512793472585 l24.9092076978155,-2.0525895291766107 2.05028397695643,0.0016154864232908518 m-24.826728565914546,9.239552351611836 l12.079506796900125,-1.394547879477935 11.235194369860254,-0.8849125056664915 m-12.893474724658596,10.438062139247839 l7.390643622751529,1.0032402026994869 9.585875718423384,1.102432886902182 l1.3909807867324988,0.7055054013713808 0.5348667428163972,0.9991664439513078 l-0.31174928972701144,3.1491289411501664 -4.171093920852551,4.819176099921868 l-3.693228752286971,2.8011304659973204 -1.469950268064048,0.5656642571674806 l-1.5254956112965494,0.04985191798871959 -1.4989779074325644,-0.6026383583175606 m0.7043327188468296,-20.106086399972714 l-0.05861515939918438,1.1824922183435 -1.307515435029571,2.1126293707557706 l-2.2945966590196694,2.8233159477927385 -2.7652997324707123,2.714224598090701 l-5.727877876058663,4.198210715839439 -3.6814232887289036,2.0569039342841813 l-4.117806081735666,1.9529301784162059 " fill="none" stroke="black" stroke-width="1" /></svg>