<?xml version="1.0" encoding="utf-8" ?>
<svg baseProfile="full" height="101.89907628945642" version="1.1" width="100.77457773892796" xmlns="http://www.w3.org/2000/svg" xmlns:ev="http://www.w3.org/2001/xml-events" xmlns:xlink="http://www.w3.org/1999/xlink"><defs /><rect fill="white" height="101.89907628945642" width="100.77457773892796" x="0" y="0" /><path d="M25,25 m0.0,0.0 m13.649397407657457,4.342058494746562 l0.5464318690477638,0.4175084826533585 0.3100093529258915,0.7134415457346663 l0.087756290645341,12.451546438836857 m0.681387830356365,-12.968990078163163 l11.265796359669622,-1.5531882291574188 1.8049990836923557,0.1069259381402813 m-13.304690985293771,6.053195054986902 l9.594565430356509,-1.451133183375647 2.3809595464390534,0.016945134565539168 m-12.0631537876609,5.360545700603024 l10.080429129117192,-1.2821940759659203 2.016481707955012,0.050758918560226914 m-20.40707294813118,6.5165254011343405 l1.6659384235062025,0.11960051766936045 2.8430292931900705,-0.17483369693608392 l13.84218565903591,-1.7295998572102849 2.99434409990244,-0.1297093757958161 l2.0132310859505695,0.13687447702713662 m-13.999055150599814,2.2073047353508963 l-1.4688493809005887,2.5367680728145 -2.4886515441947594,3.0112848398453305 l-0.28388902087844625,1.1343145559301209 1.6184853605095189,0.1609150061552458 l12.995807117387622,-3.6798089570945374 m-2.506078114309931,-2.7485004485066513 l1.636452497274843,1.1635359508026677 1.7764960417308984,1.730958987227658 l1.3777516355640418,1.7727029529207299 0.5755699340103129,1.1299946889966652 m15.554517035380542,-22.603182279278318 l-0.06300405352977455,0.7686694489325736 -0.428038816579674,0.514611287651136 l-2.9955470960924537,2.7205843770450193 -3.0147725139453323,2.00307176034613 l-3.9608221569184887,2.008671304246453 m12.891591054685103,-1.641301456603374 l0.06806459740503286,0.44211244831105684 -0.350725552471653,0.7221970623811724 l-4.413637900350206,4.013975659382828 -3.70345537052526,2.4358417044130474 l-4.558554615243376,2.2091558905079727 m16.512898903157886,-3.9553223565635944 l-0.10005129248280387,1.0311266561019983 -1.0242654190249698,1.0541782041815346 l-2.349835308147276,1.8982572601212548 -2.6308476650543287,1.7491045244609997 l-5.549500788645415,2.895351925747079 -6.044292710526118,2.2722949652115303 m-21.98493653499859,7.310654694006429 l2.959908494684305,0.2875464070226934 28.40421459202224,-2.428929053640295 l3.0892586399753372,-0.05277041256074298 3.274629876343354,0.30608155188890196 m-23.959997608611918,-4.558361495211874 l-0.056180432124740186,1.6351549097939315 -1.366227760177176,3.5062198154354163 l-1.9277097606350782,3.8850702391264917 -2.4441916039543536,4.0479974926860045 l-2.2925199100864937,3.204256929257182 -2.58714921445338,3.1252786080059582 l-2.8821277917361288,2.931465178998206 -3.152581953890535,2.6130034605706185 m30.67043120474576,-16.96408862404102 l-0.10781948695397718,1.6047550797210246 -1.9820070451649243,3.5240146352920907 l-2.5216934764032155,3.1129275485064647 -3.419036641855427,3.047974970950523 l-3.308781872048417,2.197685024789028 -2.911353251432825,1.4236354771860629 l-4.275441792942717,1.4200037218367507 -3.4819477294372945,0.6633078592509286 m6.535557308516276,-16.541253431182565 l11.120243930032508,8.212332165125073 5.60751674057498,3.8897236761635905 l5.519896300656841,3.227941350695819 2.0384292126092434,0.9319231358380056 l1.3744811411992013,0.3803789948526663 m-7.726761474840332,-25.396981596619014 l2.5325251071755828,1.4663664854922436 1.2337715648643506,1.2453716956665262 " fill="none" stroke="black" stroke-width="1" /></svg>