<?xml version="1.0" encoding="utf-8" ?>
<svg baseProfile="full" height="110.20983861519773" version="1.1" width="110.70392315937065" xmlns="http://www.w3.org/2000/svg" xmlns:ev="http://www.w3.org/2001/xml-events" xmlns:xlink="http://www.w3.org/1999/xlink"><defs /><rect fill="white" height="110.20983861519773" width="110.70392315937065" x="0" y="0" /><path d="M25,25 m0.0,0.0 m8.658955416406053,4.6297417359354425 l0.29518435462420556,0.43754150281362547 0.3064548857778426,1.8935522651019443 l-0.07377488423736124,7.178660294376523 -0.23991837155605505,15.495359882975048 l-0.35443486437128774,7.421878709708571 m1.1184281461555006,-31.342460489753194 l16.783033121607293,-1.5994383230556943 m-9.595910224491346,2.870809858367853 l0.6004550472641232,1.1167247266461644 -0.16575300666651013,26.294652938167758 m-8.153990090725358,-18.441474304957204 l14.436640309287329,-1.9357422150149513 1.2038629298861951,0.06269172181296498 m-15.463122656342788,10.689909806944788 l14.542652329167238,-1.8790980294589354 1.2127734614896142,0.06081090695457283 m-16.534760911540236,13.211613144627378 l15.838059743364607,-2.412039472685007 0.6872412367022215,0.1155954617294415 l0.8382175368645545,0.875007985641801 0.18259876775685852,2.734932364273298 l-0.7513655018615379,7.6894390495618135 -1.1784938984503301,6.658292690743349 l-1.3672794967306605,5.064865650537039 -1.461685257169573,2.9487017462939296 l-0.7410173703267677,0.3693090069094093 -1.3396194801173271,-0.20891510060809332 l-1.4911933956399421,-1.8010982227372614 m-10.929431608000279,-13.07716416624038 l-0.1577855963067558,4.5288377836863765 -0.9482855516509906,4.974697272788033 m4.676090630512219,-10.697509652015716 l1.1430891655145776,3.3749528215476077 0.6277752303162889,4.482203413266213 m2.13781500949233,-9.353817720134037 l1.541367327991955,3.0613831431893725 0.759300076130949,3.035320882515639 m2.0401471824022708,-7.513510900363026 l1.7200378900662328,2.922750615479249 0.6627331832256137,2.0259852714296254 m11.086235193219448,-43.329072540933645 l1.230268441200979,0.28697284312415094 2.5541682866323576,-0.07179000654839303 l18.4212735762107,-2.264866548506507 2.628318680347612,-0.15130390926568538 l1.5302638480057076,0.3060065033368325 m-26.394946243386155,11.64671767301562 l6.6923390491314745,-0.1023399155313282 18.177005578346442,-2.2309768655203364 l1.283295704252041,0.15981791669883222 0.5058989365597072,0.39963275091151845 l0.2593660957808261,0.6862006852484094 -0.11175330822358048,1.049023314624305 l-2.338450805528273,7.883478521348069 m-23.16947359057987,2.8992566001754985 l25.204483182871765,-2.5093097695642617 m-25.556727349366287,-8.000539778612339 l0.20795229560975875,3.7658983459527833 -0.15863604184104504,9.623677298976398 l-0.5081814354008185,7.265148457334201 -0.6780107033483898,5.26542336237164 l-0.9383734191839012,4.6913621961419745 -1.2386994569173704,4.0879416935538675 l-1.5632140905924667,3.448697101656578 -1.4340662508136337,2.1542308674787973 m7.453874095837676,-19.257761072491892 l0.34258416680005904,1.19026384266751 0.04360875273501867,25.00045786545418 m0.7977270067005244,-25.89171739147882 l23.31933744509436,-2.106870183266519 0.7183594313535977,0.0681657181464075 l0.5625705054128413,0.41315342557879636 0.7104347666285832,1.6407248507088124 l-0.27675536404151313,14.189180553871244 -0.48058968917782996,7.546374834800325 l-0.4376367737170915,1.4557190544695153 -0.5589749065410674,0.8609593798000315 l-0.6274773984059518,0.2635990258790601 -1.3154398631132131,-0.6631055315972247 l-1.153340749777092,-1.2573211395599162 m-21.163102517338665,-11.842336993467514 l15.846451426006206,-1.5341725913681041 9.076605253420263,-0.5489737716258164 m-17.900841189812965,-7.892352845403139 l0.700150973400461,0.8379730140074221 0.16560415523351518,0.7820200730292232 l-0.1061134591688281,21.792386184796655 m6.963871427927401,-24.36902563666606 l0.690081307572893,0.8586781717083767 0.17068043199116367,0.8236347504265092 l-0.10868375100392882,22.28741651541963 " fill="none" stroke="black" stroke-width="1" /></svg>