<?xml version="1.0" encoding="utf-8" ?>
<svg baseProfile="full" height="91.71425997763876" version="1.1" width="107.65872813358602" xmlns="http://www.w3.org/2000/svg" xmlns:ev="http://www.w3.org/2001/xml-events" xmlns:xlink="http://www.w3.org/1999/xlink"><defs /><rect fill="white" height="91.71425997763876" width="107.65872813358602" x="0" y="0" /><path d="M28.095326391384265,25 m0.0,0.0 m9.710705262097532,4.269352789628069 l0.04573374878037852,0.44592981469114296 -0.27852954348104475,1.1019208929500452 l-1.21107990325876,1.6636131450194929 -3.6315896376843857,4.855653860457078 l-3.782314383195201,1.0178189806270455 -3.8512839714237113,0.4751338412701245 m-0.09696796321907358,1.7563720158213052 l1.7537112084663358,0.784268092397841 2.170743332477411,1.4872836854606915 l1.803717368605302,2.2842259261853326 m3.467385587360939,-7.812176294472875 l2.4524402651576525,1.9137323041169607 1.2267215380867846,1.7904419880764648 m4.115881564961337,-3.183427966596294 l-0.20326311118679316,1.237960381084494 -4.561922423123562,3.637554503401364 l-5.446052600735807,3.6281205524406133 -5.584955102827874,2.934046895184873 m9.689794699970822,-4.989334230390443 l1.9219597103155472,0.7252857182621044 1.9486565925312334,1.2634588169365435 l1.597707251234717,1.4845514254012175 1.2574077014215574,1.7192158531526536 l0.8411267690977206,1.8847707356140677 0.49057795881823174,2.1518144913347603 l0.08252186386778905,3.8829109922524143 -0.4238816910119493,2.3905740830782523 l-0.8281744259763594,2.4351815012857334 -1.2471441509979597,2.31592216569365 l-0.7872021710958471,0.9999191714643688 -0.7583030236259837,0.6108571387058032 l-0.7354021809805502,0.2829911838737631 -0.6974936979490745,-0.010779586219890292 l-1.2582443655036801,-0.5977051318686718 -1.5631011293525134,-1.4862535624162423 m3.5908035946107364,-17.285131246093812 l-0.08422675964010706,0.7561399690403177 -0.43406140588767606,0.6084806193025132 l-2.5313803796915355,2.166337789998929 -3.5910737692117602,2.183660927523766 l-4.915213623570964,2.0732867094473257 m14.164727794554691,-3.619082921019102 l0.06750401237478376,0.6409662830306274 -0.5938259451740744,0.835456206044763 l-3.9603361915852258,3.2907726549959193 -4.9416328388086495,3.023507563187781 l-5.619834574710851,2.645813184418702 m31.90283742294738,-29.98934937398401 l-0.3268108842882202,1.1000095863798907 -2.994110234767438,1.4705551201432214 l-3.7855600506442055,1.5534177959479207 -4.460290627955022,1.434501817283555 m10.40506089482009,-0.19664624730654093 l0.1624278628875048,0.6416353392869268 -0.3131905420078839,0.6497725386595544 l-2.9462760207860237,2.6231525952932846 -3.9420821529105448,2.495812273637108 l-4.8946393544857525,2.378500455464089 m9.223992493265364,-3.6312332295424112 l0.3932441928559499,0.7145764715869821 0.01112332087909437,0.9637827846812488 l-0.6407427492292764,8.799869014081501 -1.2537856625494026,3.713814501010239 l-1.4422882544364846,2.622298185025989 -2.120364410061478,2.802128014082951 l-2.6271636323606926,2.6494916633973444 -2.549039060089836,2.2467567587283352 m1.878669332077969,-26.102408622123388 l2.4377883463678716,0.22750323552108634 2.897330530266832,-0.0992886732884504 l20.916427517157043,-1.6963125059071464 2.193750808829011,-0.13837965303083008 l1.893187875017236,0.18822895572464632 m-8.84892255572977,-9.172769235716428 l0.5688929856632863,1.4959881169899427 0.036829834241686114,13.886474770790409 l-0.32226236118139034,14.021924505471825 -0.30100178734639477,1.286061036567983 l-0.4750607671926183,0.5562830687364456 -0.6352213557770978,0.08106335178815449 l-1.5444743375538552,-0.7058814819438038 -1.8945492291866686,-1.4440770736267106 m-5.192293277115055,-20.687154671053975 l2.3167620336796713,1.4459629309155277 1.6475718518532336,1.6910370638467194 m-6.517568226418933,8.993989170353775 l2.416534642253609,0.2859923778417912 8.202108805999893,-4.133760594353559 l1.272489573628363,-1.968101686282186 m12.180106911093871,-10.546382848993643 l0.06289935036179514,0.7963216340398938 -1.544950664798646,1.7593218704613773 l-2.1189863999591334,1.7008590651616606 -2.488813240886232,1.5951389586259848 m-2.765710551633349,2.3830627063011645 l3.134033156972463,1.5809173616565586 3.7320799561171967,2.3932292619307227 l3.0273142542828677,2.2710007099385816 1.8147593201533276,2.0684750777482996 " fill="none" stroke="black" stroke-width="1" /></svg>