<?xml version="1.0" encoding="utf-8" ?>
<svg baseProfile="full" height="143.09874502118907" version="1.1" width="123.9251783069686" xmlns="http://www.w3.org/2000/svg" xmlns:ev="http://www.w3.org/2001/xml-events" xmlns:xlink="http://www.w3.org/1999/xlink"><defs /><rect fill="white" height="143.09874502118907" width="123.9251783069686" x="0" y="0" /><path d="M25,25 m0.0,0.0 m13.563601506985611,5.133291905347353 l0.06346389815665258,0.5125797961963465 -0.32214151315613676,1.2628146225757324 l-2.463116716403066,3.852357476537614 -2.3538322887881367,2.736050852677353 l-3.260707721827102,3.467552589956725 0.03655102298141309,0.6178577619909739 l4.565310465558018,0.32484639359695344 14.124325669667574,0.6544528570755046 m7.689514350870706,-7.15358079316822 l0.09833131760144152,1.0214990937130595 -0.3864848202613644,0.8690049646831327 l-2.5735117728040238,8.12740696040533 -4.214375610724401,7.982584961526644 l-5.653685927336387,5.793612833118103 -1.3035097421619786,2.5054299515256044 l0.6922083818016039,0.11829733278654979 1.2911134960031512,-0.3180258330381394 l13.476988157733526,-5.153349615757728 m-1.7811055589404656,-4.126511256269 l3.3086507257144127,3.658212414647921 1.9933693605086347,2.7555925920681714 l0.824381970441758,1.812609035593136 m19.92006404944252,-33.82876948514835 l0.012818508174918863,1.1289952450857985 -0.6441458611540402,1.633003101406309 l-4.748857106638655,6.122115230448385 m-8.194807571784548,0.4554080494704804 l1.0130375242604357,0.8519058571833011 0.4282352862634328,1.3461224754709233 l1.0683543088433485,22.976350324226733 m-0.8988272809279361,-24.628086174517748 l22.66735430186943,-1.95096528949873 0.8101687297067933,-0.0063693054699326375 l1.3033417857724918,0.5053542569441037 0.5659752752213182,0.9558263144428525 l0.029678647305259917,1.2542529687984227 -1.5947169615010408,22.767731678432334 m-23.14235482581001,-13.535075830415902 l23.92683137043047,-1.364980312425057 m-23.3228686306436,13.783862240597745 l22.28391945382307,-1.0689672261714571 m-36.378629224855274,14.544412411782265 l-0.7498201953945873,2.0220833357845733 -1.7312855019215174,2.608544157188182 l-2.3015220420820857,2.470554666882696 -2.4784349852242724,2.0251246946444543 m13.987685516495098,-11.669227934744738 l1.6017496253286196,4.701082115891517 1.1243842146675131,5.933791347355385 l1.6634832457626347,7.220619870100136 0.9621781684777848,6.29322950686604 l0.7913112964229054,3.445018156066041 1.0065336855825595,6.184764025446099 l0.8213766283236255,3.416549755663228 0.9592711194365247,2.929432647787602 l1.2417334468427894,2.7195226694675343 1.3951576324892716,1.8202916758766143 l1.8460923130364837,1.3301486027691283 2.5217707327849452,0.8985194943554162 l9.063974114832302,0.35198280535756854 0.9303960166521092,-0.5581848096409316 l0.41431682459357255,-1.301265142569525 -1.0868620188288596,-1.7865118366004784 m-16.900250731235438,-19.52789102999913 l2.4757043586562077,2.339126907864965 1.7061778883668601,1.1266945278438893 l1.3897739779441938,0.3609866337158517 0.9648497356914895,-0.4738908350851778 m10.686060195872603,-5.105442068183046 l5.012871676031428,3.85251133567085 4.086590937944003,4.013302230230127 " fill="none" stroke="black" stroke-width="1" /></svg>