<?xml version="1.0" encoding="utf-8" ?>
<svg baseProfile="full" height="114.57973796223747" version="1.1" width="99.34078755394913" xmlns="http://www.w3.org/2000/svg" xmlns:ev="http://www.w3.org/2001/xml-events" xmlns:xlink="http://www.w3.org/1999/xlink"><defs /><rect fill="white" height="114.57973796223747" width="99.34078755394913" x="0" y="0" /><path d="M25,25 m0.0,0.0 m13.031601069261614,18.828423683179476 l0.47026383631505186,0.10434776370074765 2.574774484601714,0.03333421604871071 l11.4548357653287,-1.3781893269914187 2.3075222687570394,0.11585886666316036 m-8.345793310423087,-10.751426459230595 l0.6697091693506504,1.042704123024418 0.27171681569428524,1.243227414748056 l0.07434879433245635,19.965208818180955 m-14.329504128928402,1.8661844765003834 l3.936796911925607,0.21589817337944495 19.192607355289187,-2.3528543615140576 l3.8278849739034353,0.1544081741030555 m-13.023517713048166,3.2316005901141236 l-0.38058241266808057,1.9144576674443554 -3.693439008375968,6.414628095203971 l-3.63476285908074,5.738713397466626 0.0354478863104316,1.028229526125149 l0.640327071931587,0.19995408298854178 3.24260976315227,0.04239859696863533 l11.39340995805846,-2.892355613734688 m-2.5022541909256466,-6.33542259009551 l1.17890872271927,1.6164658452251797 1.595876150553492,2.81210090272634 l1.330202277123626,3.0601541232667664 0.5524574739089441,2.1961449407015774 m4.406626229826249,-24.655173364721364 l2.032891456660117,0.2602114386053468 2.5710332962584173,-1.7509704365962788 l7.207694905521535,-5.270387657901768 1.0381027640768687,0.8420677052462517 l0.21299177653820273,1.2781667135661714 -0.15906686842129258,4.597449161473805 l-0.7909205213229786,6.879921363385437 -0.949959145808596,10.787494590877204 l-0.6850692612999701,5.584035295966026 -0.8988272849001281,4.275957005451217 l-0.5277197880330772,0.9386858416935446 -0.5670054971623034,0.4432714314524917 l-0.5738187408235161,0.056475220463765415 -1.0645955386793968,-0.6550660787118648 l-1.198674812185121,-1.555322276069713 m-7.234037311836186,-27.61206551888567 l0.5678810808970779,0.8669386584085631 0.11406367905223093,1.0668486643085044 l0.014098989506467959,40.08700507803238 " fill="none" stroke="black" stroke-width="1" /></svg>