<?xml version="1.0" encoding="utf-8" ?>
<svg baseProfile="full" height="104.10080316194156" version="1.1" width="103.31691009733892" xmlns="http://www.w3.org/2000/svg" xmlns:ev="http://www.w3.org/2001/xml-events" xmlns:xlink="http://www.w3.org/1999/xlink"><defs /><rect fill="white" height="104.10080316194156" width="103.31691009733892" x="0" y="0" /><path d="M25,25 m0.0,0.0 m33.89074994501409,3.299149982344262 l0.04400299143118643,0.4122129946615048 -0.4621895471119465,0.9127062934736383 l-2.1351323353768703,1.3476377353224205 -6.725941143846866,2.8413245232044835 l-7.797449379404822,2.2050188308638536 -10.434097684771483,1.8759517147906857 m-2.992147446876942,6.063232283560997 l1.3624717928133552,1.0035120171665468 1.954373767170863,2.2913426132711443 m-0.46474634543812465,-6.526420339848529 l14.698366652674126,1.4483707930381475 2.779654234104877,0.49030711241359337 l1.5482426795991107,0.5909665175233991 -0.5509240562738854,0.90259744847627 m-19.911914702922275,3.679509648046766 l1.5766373064085129,0.18131138868461855 1.9375738005550236,-0.04260565839424807 l15.408285855574393,-1.3334035140618206 3.151475411319956,0.05541661129586552 m-10.583609975374783,-6.500858944527265 l0.5330571905777591,0.5844671908983958 0.25435820762400735,0.7600068559182666 l-0.06913879709898288,17.571860967922625 m-0.42546156855272954,-11.49818361156516 l-2.42073293926025,2.880020358604604 -3.0400675292329957,2.6108395297114426 l-3.292023844605152,2.117996988075298 -3.349290446871201,1.561080323465831 m14.456361210374778,-7.244609988743812 l2.850557154400982,1.273844444851349 3.1231795210468687,2.282784836644036 m4.938103821939149,-10.338856769014956 l2.519420974022649,2.2494899034921167 1.7298621725774623,3.146760721966229 m14.820705147603919,-7.630795629400105 l0.0802529155367112,0.738468582926129 -0.35285370517869186,1.0887087321415643 l-2.9442283302886145,3.119973476268732 m-6.276858671282698,-8.631061464456806 l0.32630826051523515,1.2539212007385503 -0.23380268437783688,5.14051077651074 l-0.8043577879559072,3.686928485190563 -1.1356640927255461,2.6751338916601677 l-1.6188697547777935,2.3693427920951344 -2.1815821472260035,3.4846355460147485 l-2.3786566106503173,2.8177684585480933 -1.889231396163631,1.5690942364261566 m9.231258201996656,-11.453853502053747 l4.339590747568599,3.7575765705869606 4.539759330283411,3.715200511492641 l3.386191153989182,2.2824197989398116 1.3442447504179804,0.5678810199844053 l0.9628378238444247,0.20127717631368935 m-47.93657894155057,5.950589881392083 l4.067966516618028,0.31842624883666215 36.07937170085118,-1.1767247593795345 l2.5578697737133185,-0.05911105741527251 2.636646719090797,0.26141392591305795 m-24.727616413882465,-4.7912979054700475 l0.5348055039531975,1.973256115826335 -0.13680206023121294,17.716338248778225 " fill="none" stroke="black" stroke-width="1" /></svg>