<?xml version="1.0" encoding="utf-8" ?>
<svg baseProfile="full" height="99.63768848545809" version="1.1" width="97.03522689710502" xmlns="http://www.w3.org/2000/svg" xmlns:ev="http://www.w3.org/2001/xml-events" xmlns:xlink="http://www.w3.org/1999/xlink"><defs /><rect fill="white" height="99.63768848545809" width="97.03522689710502" x="0" y="0" /><path d="M25,25 m0.0,0.0 m13.067899362907118,8.402328331318003 l0.485301595499411,0.37229285018042096 0.2744641846780705,0.6736269701156001 l0.12315271732415112,10.79131503504895 m0.4812376360581666,-11.26415666325092 l10.396015889191654,-1.3027683840799098 1.569744368319992,0.08793668650615187 m-12.023534424388949,5.048243206387207 l8.711101702140967,-1.3069491973219778 2.124783411540091,0.014967248839410294 m-10.980311101806546,4.62924578051106 l9.137057090801052,-1.0302029283466072 1.822481448210564,0.047280276663041756 m-18.14468416336659,5.626449622131054 l1.5362116402682053,0.09015952253510921 2.5186330312351743,-0.16166346029530543 l12.353319876848072,-1.4557708408658514 2.8098675569025557,-0.11702213753403094 l1.7721064375208535,0.12317269123296297 m-12.729501396464196,1.8476632698111441 l-1.378330164044309,2.311520819542594 -2.2526156635212624,2.6257783163130513 l-0.2529550107404639,0.55415051866498 0.23868403955864675,0.4034561159617635 l0.7342712716521494,0.016470679630757698 1.3513608243948096,-0.37054434508582756 l10.776307600156514,-2.9323610731590444 m-2.216216372051728,-2.418613050294285 l1.5242522753724177,1.0527814865056864 1.6038646838085893,1.496896613848835 l1.253782210110288,1.5456677226081261 0.5173953193655667,0.9696195711883349 m14.20912258623571,-19.57714782722336 l-0.05213320027624206,0.6606344950086612 -0.38895896020424137,0.451925257646483 l-2.7456914807057045,2.3177492893232587 -2.790084844575656,1.7018154979026394 l-3.623028048191018,1.7094154418281333 m11.900432356050427,-1.3087923114688962 l0.0647080666125252,0.3691885391043247 -0.3275111449647447,0.6084274427285866 l-4.085006445609426,3.32619921356611 -3.3742238652081666,2.030585494517662 l-4.186919144721509,1.8786079440402998 m15.023704038478726,-3.1990583532669348 l-0.08733289141507866,0.8856812837702149 -0.9096179297152509,0.9057677044720613 l-2.09683983253114,1.617826972016961 -2.376609791361446,1.4900160147532262 l-5.016657797832442,2.4828515899618138 -5.436901142447712,1.9566936469671077 m-19.30823559991793,6.435213947793757 l2.6434094897883087,0.24180792010724006 24.811914705608043,-2.062768527507598 l2.757327422580019,-0.06472461158644809 2.887329050758552,0.25883900476418503 m-21.321379368857674,-4.049265152952463 l0.015364500232627108,1.3976589179091417 -1.1300548505849757,3.067471655277286 l-1.727973667718543,3.4983020276702526 -2.1553069882675655,3.6266804623741713 l-2.0279330955269117,2.8828873319097026 -2.2950020599802587,2.7934187548983136 l-2.5383511656350586,2.5891205728217472 -2.807550962359707,2.3436875910199575 m28.87420167384052,-14.766453672344266 l-0.16021112494886428,1.3333694447627793 -1.806850630846178,2.9868884925983785 l-2.2586094203249223,2.5647074012090023 -3.0362090061204547,2.516307650628209 l-3.034675384950382,1.9047200497627639 -2.680022221819963,1.264382464048579 l-3.811422852867472,1.2602922504234266 -3.154795562341155,0.6019034583260939 m6.175360023238847,-13.787255165774736 l10.017032920566962,6.9471808995326105 5.027619682557041,3.181811449759864 l5.020769009525002,2.6717328366150097 1.9147645470501602,0.7406879353205507 l1.239119429328324,0.27302133705279386 m-6.954079955548806,-21.802687148504916 l2.23637929528498,1.274984229989717 1.1359715065335718,1.0994656564590009 " fill="none" stroke="black" stroke-width="1" /></svg>