<?xml version="1.0" encoding="utf-8" ?>
<svg baseProfile="full" height="101.04572230295922" version="1.1" width="108.26500671948656" xmlns="http://www.w3.org/2000/svg" xmlns:ev="http://www.w3.org/2001/xml-events" xmlns:xlink="http://www.w3.org/1999/xlink"><defs /><rect fill="white" height="101.04572230295922" width="108.26500671948656" x="0" y="0" /><path d="M25,25 m0.0,0.0 m13.534356313410987,3.696169139918134 l0.026488599578168605,0.370260295625636 -0.10616099673803632,0.9750306562942476 l-0.5964908615769019,1.4634846210484165 -2.6813611316036368,4.049026321630361 l-3.246617148184151,3.6612132103097044 -3.9623146153801945,3.3849578366807975 m9.224775092170608,-8.850875824975843 l10.0533397804376,-1.937362989456714 0.6670448644386213,0.1417570849797005 l0.35363910048331854,0.5210827805542062 -0.14310201563004024,1.2911946540671553 l-6.678816505061894,10.409613796839299 m-11.026277509846274,1.2523565867706161 l1.1998860669045635,6.481623565562873 1.1040009302065075,9.888753930894834 m-1.6601869565743055,-15.424103481658097 l18.209698010257448,-2.464491269167278 0.9219210448088201,0.0022682307452065757 l0.6469168344308,0.28224343450430667 0.46378135497020057,1.0287081436417516 l-0.15894447038651374,1.5031714735365775 -2.1073536302291305,13.56856440573963 m-9.107551151886126,-14.446355135463854 l0.6102578965298783,0.7275484175093534 0.427813846178635,1.6394443147561422 l0.020801161371472802,10.987470377412471 m-8.26936580998078,-5.950728708993248 l13.251055364184802,-2.2060475626368694 m-13.021572118724416,9.412767613712054 l16.265898137368104,-2.181162894841664 m-18.947766771798953,8.467989930815877 l-0.522783767830415,3.9074595974822746 -1.445474576348357,4.764408861927267 m6.540104781314444,-9.099139920590503 l1.4606785689790018,2.735306195522497 1.2002303603484195,4.44928606507341 m2.9631473554636583,-7.932968290033096 l2.3852406802696424,3.2415420351404283 1.3184570302880894,3.1396779605365275 m2.843685200809465,-8.403235512401567 l2.286202415414926,2.7212811261567826 1.5342382675635995,3.156023849565529 m12.95334095011533,-40.6802170011908 l0.03403127483441027,1.413938056212553 -0.3419849356410196,1.4295991653117526 l-2.63757133077693,7.018606218446993 -3.211715337604023,6.098274713662343 l-3.194262305014025,4.5844839138289935 m6.118533549433241,-7.852720688368486 l2.0824421439642613,0.08085953440357448 18.217382395253495,-2.449671504859889 l2.4132912945201856,0.10178290648447143 m-18.338883767264356,2.170796934061181 l0.6467207874859576,0.7910722171502332 0.35256566260230804,1.478769294055278 l-0.13033968514561403,32.43493361902569 m0.40933401639416755,-24.45623424879873 l12.47499437553118,-1.7083958400998167 1.5879632358858555,0.17930522733105086 m-14.280294405072356,12.391845393093776 l14.084627680338343,-1.576046785276824 2.353970835775223,0.11272763155905786 " fill="none" stroke="black" stroke-width="1" /></svg>