<?xml version="1.0" encoding="utf-8" ?>
<svg baseProfile="full" height="103.27207590285995" version="1.1" width="95.8314058085638" xmlns="http://www.w3.org/2000/svg" xmlns:ev="http://www.w3.org/2001/xml-events" xmlns:xlink="http://www.w3.org/1999/xlink"><defs /><rect fill="white" height="103.27207590285995" width="95.8314058085638" x="0" y="0" /><path d="M25,26.030106654373974 m0.0,0.0 m12.866221252846234,3.982901638291081 l0.05939394317808461,0.48126638888680334 -0.08579222092370456,1.1263119144161577 l-0.7904657103866836,1.77562129786681 -3.0269098054937826,5.335919403523051 l-3.6330866072176087,4.847940975309438 -3.9111240759338806,4.145034051666512 m12.3937823488566,-14.401434431874533 l2.0390467234393155,1.129898407828203 2.4784790523152305,1.886743307999268 l1.9059551195825548,1.7623424020819152 1.0925758400856764,1.6157481139718888 m-9.97433456701804,1.554890315408591 l1.1247161625704496,1.7281628860920064 0.9821468950972025,4.58724647718431 m-6.68150498421969,2.4663225971391594 l9.678581539819968,-1.8591633927063558 0.7392060095813965,0.030206086811756905 l0.4744982171820803,0.3452753136856652 0.24947927694280045,1.1370209082281841 l-1.480160750833132,12.842379379048943 m-9.68088583687068,-6.3390510034104945 l6.327542717004587,-1.1299271426383677 m-6.432817455486691,7.637340859751145 l9.497866583762667,-1.7077309299091037 m-10.431426142023827,-12.34133664534257 l0.5467692204254644,0.834225115980386 0.2732390747621826,1.9798660663803724 l0.09874503651572904,23.635083594522488 -0.2986623791922011,3.152865292293284 l11.525748349699484,-7.7989569710823385 m-2.4436189255016396,-3.644362567738472 l2.283843582555041,3.7947297373166813 1.5381252406250796,4.128136210642039 m5.392835840388641,-39.904707137144804 l0.3705768199187931,1.4612228808915984 0.06909948615564648,3.9973505884053853 l-0.27425130048855506,7.259741233605448 -0.6204266112591994,5.183439792332206 l-0.7084305470299954,3.3112696106835724 -1.0671235745836887,5.6277239502133645 l-2.614137686267106,8.169825852051583 -1.356663614342341,2.830031639436089 m6.200672747519335,-36.62248389324506 l8.703713571743519,-2.3247593694743025 6.397740978556664,-1.0947214425347096 l1.3995454666430496,-0.17131450683124155 1.4089724033146314,0.26011569359611264 l0.37398325305479885,0.43453103626990663 0.06034865396223655,0.6366619687117548 l-0.2586599234353861,0.8032368604588981 -1.8778626484175258,1.6075035821036305 m-8.829289347412312,-11.216290651527295 l0.4801269540804827,0.6572859151140866 0.4395489156008949,1.690302093757961 l-0.040281466734322126,19.91128416753849 m-6.364635910896867,1.2385954412395357 l1.019673285532136,0.3140384223514426 1.3026080771833772,-0.16683753772044385 l10.033701374499673,-2.9611035135187866 0.5361710131084504,0.3372312197153774 l0.4029856573028623,0.5573110225095953 0.1674275569222947,1.4739040616587167 l-1.300757115140066,4.943407009424128 -1.7668912601542643,5.07560533308813 l-1.875512775651137,4.304100630365369 -2.1934985290060225,3.9910167280476814 l-2.5030852703937443,3.6787496172257748 -2.062608772430086,2.531669484580982 l-3.081430111627155,3.034320736658105 -2.5849093125421496,1.9400654262600319 m5.012394602987178,-23.396836578343596 l0.8984014016420525,0.5198297609747843 1.5306022040434974,1.7478702971264717 l7.631767829867799,10.74776937593219 3.714835013409642,4.874591254109875 l2.6741590707802576,2.865013802952324 1.6847966824115639,1.2803046988522764 " fill="none" stroke="black" stroke-width="1" /></svg>