<?xml version="1.0" encoding="utf-8" ?>
<svg baseProfile="full" height="105.82143237670348" version="1.1" width="95.80330511808725" xmlns="http://www.w3.org/2000/svg" xmlns:ev="http://www.w3.org/2001/xml-events" xmlns:xlink="http://www.w3.org/1999/xlink"><defs /><rect fill="white" height="105.82143237670348" width="95.80330511808725" x="0" y="0" /><path d="M25,25 m0.0,0.0 m12.375771555729395,8.455319309923178 l0.449353627332978,0.40971195024965157 0.6320293593928012,1.0275988979738944 l0.5026146814371781,3.2651987696261986 1.9936378733605813,12.093256776167829 m-2.2098496388115643,-16.25317006245396 l28.77999389410353,-2.655818860619313 2.410688237810823,0.3218413990915743 l0.8690655277315221,1.7013498325315637 -2.930663141364614,12.969697123524819 m-27.130511242644257,-6.225038384733386 l19.001936393458365,-1.4244226892358502 9.946550171541228,-0.5312544006483836 m-27.702486060018416,8.491297825633428 l25.72956353459589,-1.9058598517053515 m-25.345252361924903,8.041183016571315 l2.6367853593034387,0.9613291491703614 2.080755600344261,1.1719451666407266 l1.6905494922527426,1.2449119033493117 0.8938811415016545,0.9533084451682001 m-12.800315822798886,5.553251182151967 l1.5929438000834422,1.2300558906012404 1.7069100400648634,1.7062132995342332 l1.5016445837699712,1.6991880567981545 m-5.564414447076148,11.988431174747985 l1.087686618781234,0.04698959329379236 0.8993032584868739,-0.6144328075555502 l4.3413349945956,-5.144326032909978 m17.96809238287236,-12.887286664030082 l-0.3156674190631174,1.0718054678879243 -2.001646173457582,1.8184199197319135 l-2.726641807320201,2.0413660165548175 -3.407584530133972,2.294656156655445 m0.04944374803462372,5.302413139814091 l2.764717568617086,1.3075282701159725 3.671906347250716,2.2338710831094635 l2.821388848734315,2.211742385894023 1.5146775795062353,1.8491609280822714 " fill="none" stroke="black" stroke-width="1" /></svg>