<?xml version="1.0" encoding="utf-8" ?>
<svg baseProfile="full" height="107.60933855144162" version="1.1" width="104.97576907792501" xmlns="http://www.w3.org/2000/svg" xmlns:ev="http://www.w3.org/2001/xml-events" xmlns:xlink="http://www.w3.org/1999/xlink"><defs /><rect fill="white" height="107.60933855144162" width="104.97576907792501" x="0" y="0" /><path d="M25,25 m0.0,0.0 m15.965577779746503,3.5036078804492 l0.4396622910391826,0.3791828580451406 0.26732957866412954,0.7443042680632098 l0.1636652577490873,9.901268931127483 m0.1123948951280083,-10.294610084001269 l9.821085479922044,-1.2541355071924023 1.4122691544499961,0.10035067606587521 m-11.386508707859852,4.673899818226912 l8.157084620127566,-1.0650102023642671 1.749736077977816,0.04107214103624626 m-9.831205301401551,4.167261362404891 l8.36497892130223,-0.9330134311321084 1.622033747687723,0.05464366999588381 m-15.980295961536283,5.473871391136444 l2.7676942361766104,-0.008307422355208609 11.967108622280444,-1.7036161098053317 l2.648787659721635,-0.15821969177076922 m-10.817803590781537,2.220158834308116 l-0.7962198665297827,1.4519564086520713 -1.9381828097208988,2.312249145976741 l-0.21205174206049865,0.47430323798954427 0.2049244118706676,0.35568360458225123 l1.7412867776418286,-0.1894657111388535 8.78627481727874,-2.5488223852931533 m-0.8375877741831561,-1.9296786370204826 l1.1033412073318916,1.7437658902030917 0.721139244249145,1.9732127129819388 m14.119393876469598,-15.978423740101993 l-0.053415315324597125,0.5599449485197173 -0.37003677457300393,0.6605919136462087 l-2.2843141346882376,2.070183433809142 -2.5883084231767586,1.6810129507575338 l-3.5391968351225254,1.6909244850111163 m10.951878081400329,-2.082170623116143 l0.06093780705333672,0.9817993049046093 -0.31283051295103653,2.438212132334442 l-0.5215672119652439,1.9114144035842588 -0.9314490325675417,3.177241965867613 l-1.8989824512725741,3.708735398345806 -2.4077539871755467,2.6569337211387394 m1.2054482796554804,-14.14499663300501 l4.736546776221111,0.4870692710471665 3.4880758751260785,1.1180211441052474 l2.744144642479147,1.5427307029177375 1.8335400013761176,1.4753382169361409 m-14.842679162193814,2.0188483311597127 l0.13799619753567113,0.9636320286301453 -0.6235739705755844,1.9343709140182022 l-1.0221485666865324,2.0462330795826773 -2.165166063016945,3.018698315385182 l-2.926674355891289,2.8898210667287016 m6.054985275813621,-6.9162678216262 l1.6329518280632076,0.12783684319663557 5.7835934692718665,-1.4627359267246691 l0.26301545541511834,-1.3193132749084275 0.7059286135147159,-0.13523119887475432 l0.30521302945791046,0.28115458074941496 0.07520523237406296,0.5549199882817212 l-0.486189061938599,0.657957415226433 -3.1287096597045605,2.527340786459896 l-4.16033671325476,2.987003060250498 -4.736596428215384,2.8357869133346805 l-4.940615291233751,2.2269836074995797 -2.5343679038618663,0.7841517756804604 m6.446700682706992,-9.570189305267569 l14.255503123474258,7.664938384864791 2.897543608191747,1.1394637518964397 l2.234547380211244,0.5052313088068696 m-20.756055755648248,0.45682040990704836 l0.39283895033155114,0.5875981549430326 0.1531943307753201,5.3521982643876465 m-0.18875269884988605,-5.391607006731172 l11.852367235600093,-1.357104492440532 0.7672121197365951,0.10759869528987272 l0.3348029202462495,0.673343527657421 -1.2130103448548046,4.2158059312898395 m-10.816155777261779,1.2752279850321115 l11.544992028002111,-1.2010607021052049 m-2.2492713510268243,2.389807297758611 l-0.06507353781486008,1.2790497188886873 -0.7718571649596023,2.417215998620193 l-1.1902376654712439,3.325306128533073 -1.3384544229171085,2.5532441113440734 l-1.3886552635784122,1.912667768520601 -0.48337981492949034,1.4498072136747278 l-0.24185300288908843,0.5352239010781762 -0.16723305162930654,0.18238254423410596 l-0.136614153058175,-0.003200413715250934 -0.0761774047125965,-0.13188586453315762 l-0.5282893640793407,-0.8447997774357588 m-5.47108058474678,-10.345681627274692 l0.15608740188754988,1.2751357495973994 -0.5804369447556904,3.0723536478089932 l-0.8891356802450959,2.5150126877988708 -1.1120235477230183,2.140067195386258 l-0.0889471603591252,2.874901976913223 m11.923209030048817,-9.367780846871003 l1.1358612059531241,1.6823206957382255 1.0973155882046761,2.2680568651083957 l1.3373908135217543,3.687534258930406 0.9264068735606943,2.711597327475046 m3.3821925867109086,-17.209119209354395 l0.5149555409281092,0.8214585259161863 0.20329546455147354,0.9022261566513209 l0.7713944707932815,7.3601511555252825 0.679630683621852,3.5215829417193487 l1.0076888121451213,3.714283703147947 1.209806420606615,3.2605109313709 l3.077676648052428,3.207871854105851 1.4057172174387493,0.5321038973259496 l0.5510668807303578,-0.05039050082865884 0.4171089834485575,-0.3636094294261378 l0.2114951558463119,-0.6615232441608945 -0.011948371840138612,-2.4505445687064995 " fill="none" stroke="black" stroke-width="1" /></svg>