<?xml version="1.0" encoding="utf-8" ?>
<svg baseProfile="full" height="110.71116888018732" version="1.1" width="104.66446138241629" xmlns="http://www.w3.org/2000/svg" xmlns:ev="http://www.w3.org/2001/xml-events" xmlns:xlink="http://www.w3.org/1999/xlink"><defs /><rect fill="white" height="110.71116888018732" width="104.66446138241629" x="0" y="0" /><path d="M25,25 m0.0,0.0 m13.224324307877305,3.477680458633119 l0.025832600089662275,0.4542624666365716 -0.09350363754427932,1.1268872027019097 l-0.6068487987007883,1.9080235964892218 -2.481060320663043,4.917465470174734 l-2.9886157084392218,4.361923217621532 -3.6751551875539406,3.938747139631661 m8.820772776388111,-10.947324505519013 l8.9944718789322,-1.6825486962641036 0.6498837107183931,0.1726486712730415 l0.30897185687068657,0.5707652773211657 -0.14706657238112741,1.4251760835457785 l-6.428849440190539,11.848360026019579 m-10.114761271843484,1.1821718521884128 l0.5491469318355944,1.7603469282711839 0.487137447445936,3.7931088662907206 l1.142130504939677,14.846550459368691 m-1.204834499243049,-19.53411680057033 l16.691806944476095,-2.8727508100354346 0.871307352238701,0.00022235176420553194 l0.6097043282578687,0.33425890312007006 0.44704634786237196,1.2561811740251012 l-0.14057957996803455,1.7922800172650506 -2.0152456039610276,16.78201423746531 m-8.417416135172138,-18.103839378412548 l0.5656991233532785,0.8699952416000286 0.3958081670993622,2.0113746664468994 l0.017322655187259832,13.83721057489506 m-7.675630832967385,-7.355164237637049 l12.16893503512948,-2.1998978040690345 m-11.893125024199454,10.895825662758726 l15.178472490777336,-2.3160850515369593 m-17.838267010426218,11.666580664667011 l-0.4865272869339677,5.001921350801834 -1.2176621541788986,5.490913603255156 m6.773054118838166,-11.847254659949527 l0.6532233171007954,3.6391637767412943 0.4738662805459163,5.083086672888586 m4.328113161145817,-10.000655483037903 l1.2522598370803621,4.239477319964878 0.6828286958416488,4.073379706747334 m4.339603171770969,-9.828908674443484 l1.6549470041521177,3.578008963340812 1.0992105841230244,4.128972296948541 m4.689649242776054,-37.40681048042882 l2.507077187703045,0.3461388400646066 14.166694270541447,-2.209554093936924 l2.895100058112964,-0.18594751109602056 1.369239817273194,0.33428916311294565 m-11.828465218378776,-13.594765626107273 l0.7490392437287576,1.1664843047790505 0.3753819544234109,1.4813430757590997 l0.08439461613915351,24.463969220687456 m-12.08835026610353,0.9733151529000363 l1.6914170020011343,0.38538016612525555 2.2599056337057113,-0.065684863921002 l18.952325453147605,-2.5389277348303545 1.8924607861339215,-0.009431506495283418 l1.3714625577582376,0.323695831746666 m-24.65385176745502,17.342152558035085 l1.1241580882974682,0.25934947585135176 2.2195272177033605,-0.06081705882756965 l14.728821742398516,-2.413489954041584 2.437867584205087,-0.15672796348290377 l1.4001429400409109,0.28159215316509045 m-12.869780891773269,-10.155902932273518 l0.8590089219594419,1.4350829162951446 0.14418771296400065,0.9146575707871724 l0.07366769475826311,22.692498149856604 m-14.27628940339286,1.036723294218765 l2.702217714282532,0.37508514437588336 20.95867983589251,-2.16729229980032 l3.7539438197048325,-0.07891577712795501 1.9940962681566425,0.3484384991977355 " fill="none" stroke="black" stroke-width="1" /></svg>