<?xml version="1.0" encoding="utf-8" ?>
<svg baseProfile="full" height="106.9991754665531" version="1.1" width="99.94136845479747" xmlns="http://www.w3.org/2000/svg" xmlns:ev="http://www.w3.org/2001/xml-events" xmlns:xlink="http://www.w3.org/1999/xlink"><defs /><rect fill="white" height="106.9991754665531" width="99.94136845479747" x="0" y="0" /><path d="M25,25 m0.0,0.0 m14.236891294660493,4.060520393156869 l0.4711574776987208,0.4258137572095986 0.7071666786611516,1.1444301125627665 l2.554362825003438,1.232109423440695 29.61647348946712,-3.0496174349995617 l0.7571487445075809,0.037080858972834245 1.2698511319893613,0.9619689961292002 l0.292550502634213,0.6992844945844338 0.035766310175400565,0.7834354287275838 l-2.6642205938318084,9.114834921052118 -1.3792679117493818,6.941744244558066 m-32.5511958754908,-6.689629090593177 l21.20060451822172,-2.7385262316009045 12.378811107413984,-1.2351862735586234 m-33.67968726871256,13.35943761908044 l32.85487841698679,-2.8916028010559716 2.4388377138396264,0.08298324835125044 m-38.914417527893235,-10.282741738998036 l0.6831432659784756,1.161112831225235 0.26214014618532955,1.4320471759441096 l0.020122758409011784,39.0514022482034 0.9975731453188937,2.0318804435708415 l1.5110476608022132,0.16934180222497658 13.400860724670128,-9.779199286329291 m-16.121949462103572,-13.261383394460285 l26.599581735066337,-2.9408415170723226 2.116124145459065,0.11806821213542353 l1.2407713175088841,0.8909534821282734 m-19.648032876587273,-9.945818109751707 l0.6933385819044954,2.0217626808903413 1.3105185448112984,7.862690911779677 l1.6020475459984207,5.940693936816959 2.3667619535102244,5.761094131861967 l3.001688588673326,4.755868976388076 2.4870873865664964,2.8809051582330167 l2.8364712873364772,2.5682086033479368 3.2286640391942583,2.239612783306847 l3.575530071080997,1.8174055074480657 1.3339491907099172,0.2670289616419625 l0.7884747103148848,-0.1827995264609616 0.49879309821809714,-0.5224270714833782 l0.3244601829371686,-1.6821523902104314 -0.27133326610037395,-2.847489485532942 " fill="none" stroke="black" stroke-width="1" /></svg>