<?xml version="1.0" encoding="utf-8" ?>
<svg baseProfile="full" height="104.61315093967377" version="1.1" width="100.47850973145653" xmlns="http://www.w3.org/2000/svg" xmlns:ev="http://www.w3.org/2001/xml-events" xmlns:xlink="http://www.w3.org/1999/xlink"><defs /><rect fill="white" height="104.61315093967377" width="100.47850973145653" x="0" y="0" /><path d="M25,25 m0.0,0.0 m13.021601090682772,11.132098342347351 l0.3424319017420953,0.33176917989961036 0.3602408048593267,0.5560152141326298 l0.1712776569128352,0.8285759278242466 -0.017298265459162115,5.050141186063153 m-11.17320759613569,1.4319675285030904 l3.25447256775263,-0.02362374982608841 13.566560924881196,-1.7073479066756727 l2.908092305993706,-0.11237205840751442 1.7797123804795085,0.12196333276633256 m-17.778538845410665,5.979233390788124 l0.5104181133998182,0.47234047699534154 0.6389252335343638,1.4859281026812035 l1.2001116492209847,4.589661632920694 m-1.182046462607803,-6.1936313923712945 l10.319364027033625,-1.9580364711732139 1.5643901787183516,-0.1792696179976048 l0.5377734475991316,0.1996651602057065 0.297225296277048,0.40172684673317927 l0.05346296006173591,0.4890052895143095 -1.1740759581975644,4.633249959116869 m-9.762852346387133,1.707683730309642 l10.554416608582608,-1.4986776007464826 m-14.180835224741141,6.956257285343379 l2.3886885240452616,0.1649011887165322 10.094982591742223,-2.236708954907427 l0.6850747775679047,-0.04620104251527722 0.4210138692048049,0.30695334562985854 l-0.42041473518651173,0.6032297357172179 -6.2095665967300455,5.720274530368615 m-0.8297031611356845,-0.18937501708538973 l1.54772684140192,2.2541962835378735 1.0952263240252125,2.6181076408405324 l0.5520944912803097,2.7316531006353584 -0.010788927713242398,2.659916874960621 l-0.5047710611338915,2.8943753694993055 -0.72384149563102,1.7699821472926442 l-1.0152353623102242,0.6675219480363022 -0.5616909697738113,-0.13997116538460108 l-0.4868158275754126,-0.32319350411176867 m-8.531628750034743,-6.918984596494908 l1.2147974901924026,0.3527941916522887 1.356420584649905,-0.28833526912642743 l15.937913227032686,-6.463646206216388 m10.57950449163457,-26.599830209241606 l0.4153289400503603,0.8197233901967022 0.17147620871130714,1.0373359356882539 l-0.5772205619071277,11.823718725742532 -1.1462004464846893,7.724183528944888 l-1.5041329835741302,5.73428844411923 -2.0481304313779893,5.108957805491133 l-5.43371383309454,4.282133930377474 -3.943673450248882,1.7160219191040311 m6.701674643815982,-26.206187425556056 l1.040972400585967,0.15107178571253113 1.4198204208142111,-0.26024995304848886 l11.871779113887001,-4.77742948700827 1.2443339657236192,-0.1022479651585142 l0.9797193267162962,0.2955540838621421 0.5919422550131833,0.8895423141915151 l0.0623278058236694,0.809171666948328 -2.03473731559229,11.72858156918354 l-1.0652527527523825,7.469828927251368 -0.07188339217428306,3.0855734296016 l0.4707794412022931,2.3175855769773306 1.1176211695677347,1.3701906962534742 l1.858837096543496,0.6422357030123129 3.4092027853718565,0.15584756774968847 l2.4400742473024652,-0.2286059659086069 0.9564189158257888,-0.41221254854751493 l0.6978690963820019,-0.6748969026133117 0.4626682909804236,-3.363378404189575 m-23.759817493630266,-11.275749325627107 l2.8578983447848425,1.1194739349939054 3.029765142488599,1.615676059439744 l2.652693196864914,1.8991152097485042 1.3628134170983248,1.5595678770649262 " fill="none" stroke="black" stroke-width="1" /></svg>