<?xml version="1.0" encoding="utf-8" ?>
<svg baseProfile="full" height="119.126511026607" version="1.1" width="92.3773096116775" xmlns="http://www.w3.org/2000/svg" xmlns:ev="http://www.w3.org/2001/xml-events" xmlns:xlink="http://www.w3.org/1999/xlink"><defs /><rect fill="white" height="119.126511026607" width="92.3773096116775" x="0" y="0" /><path d="M25,25 m0.0,0.0 m19.004077060509236,2.903957749818251 l-0.008283627867180116,0.490335029422249 -1.3776273624017692,1.2048827062043377 l-3.683033077275785,2.6925088901513936 -3.383323305597079,2.1282972000193245 l-3.94014522150967,1.978975757627515 m-2.04956889746229,-9.541748120666494 l0.5412899796810116,1.404059823513654 0.04547059794183657,12.466439943942524 l0.25899416492241817,1.5024594066210228 0.5460741063721742,0.957451684539087 l0.7963297580272123,0.819266232821593 1.4031976639779644,0.47103364754421123 l2.2878481546690725,0.17368418907013594 4.391076711660817,-0.2957381308763389 l1.5028546275787196,-0.4013097348754672 1.0629487123605776,-0.5122597996928783 l0.8395988797639028,-0.9503470705374619 0.3537788451388858,-1.3473385163180664 m-12.75481909067687,8.44855060121798 l0.40496984586114704,1.8551744595525395 0.01755892759215197,23.35520496057323 m0.3658971349968569,-24.844501018985497 l9.019100711155055,-1.6418510059482208 0.5717351150239203,0.08484627732902679 l0.32082326301606595,0.37235590509154154 0.177914561579985,0.6076949590535946 l0.02883413360350486,28.902983224483897 -0.19873174049743872,1.0736465267334472 l-0.4664617924719132,0.24134229819768865 -0.6185099048472095,-0.438671223895831 l-1.2410654127059466,-1.8276095597957038 m-6.995427427091592,-17.298798277257248 l5.770227930160382,-1.2039354386546373 m-5.907469849592487,8.519635328491345 l5.70037501892614,-0.9234278648449351 m-9.2138614997488,9.440618805160884 l1.175508894576084,0.28801661023027614 1.483817815275947,-0.18432126324679401 l9.458153361023118,-2.1452104167006243 m2.880590553780309,-6.438951313187282 l0.23912265928900575,0.3788439927180458 0.2007687801378765,0.898066052040743 l-0.33480632514326736,2.422476852080084 m4.646073060395042,-18.823880183139238 l1.5652161503818358,0.22117201419622556 11.86653373975294,-2.0221935751595934 l1.61466243129746,-0.053553295695782946 0.991704570740269,0.2583790475454338 m-9.43583290883418,-5.703443571743542 l0.4492888335779126,1.584468248806507 -0.10887968772673509,12.1030271404406 l0.01889753388697179,1.4969737474432354 -0.09841619792885437,0.63913335770263 l-0.07973886622047824,0.429611624688155 -0.019399364623450165,0.23031351687555163 l0.06858489812252848,0.06139746377702829 0.19731032547077637,-0.09137497186090855 l6.435748941171122,-0.22363883844250823 2.8443564707785542,0.12467509765244515 l1.466293645477577,0.19576205011178507 0.7815999065787238,0.5468118311226883 l0.4002364706624841,0.8629643263387012 0.09726622500490315,1.248069744626896 l-1.8028821843183866,7.679476531159028 -1.3659009697249096,3.834035360890875 l-1.6435924393921648,1.6530409276088964 -0.9056020527529757,-0.40631921840645047 l-0.9957912896778034,-1.227229487908814 m-1.1073156046447488,-14.031275614565248 l0.006823861627746863,1.4972385523585074 -0.5125691794215687,2.32704452314943 l-1.7053906823129663,2.5535198480533596 -2.1778608036114537,2.1160083058789656 l-3.673323265893827,2.5859778680839374 m-0.5832710942356506,5.099023940710808 l0.49371825548406256,0.9143251379552909 0.20543358126757105,2.29702175670251 l0.6683926827887382,13.063157460883458 m-0.7755224245656757,-15.330345603243108 l12.801364525411193,-1.7122635291424322 1.0011919603034247,0.013791312957996009 l0.8055078497547505,0.3057243581328463 0.5330286504527179,1.4017885160263488 l-1.27345597075554,13.879469312238948 m-13.108417161486896,1.3829344903646819 l13.69306738232457,-1.1232159867864209 " fill="none" stroke="black" stroke-width="1" /></svg>