<?xml version="1.0" encoding="utf-8" ?>
<svg baseProfile="full" height="113.16892111730037" version="1.1" width="115.27138247214464" xmlns="http://www.w3.org/2000/svg" xmlns:ev="http://www.w3.org/2001/xml-events" xmlns:xlink="http://www.w3.org/1999/xlink"><defs /><rect fill="white" height="113.16892111730037" width="115.27138247214464" x="0" y="0" /><path d="M25,25 m0.0,0.0 m12.74842024431153,3.121474606341953 l0.000541223604610913,0.48965293173636715 -0.1117648889501718,1.2699882190437095 l-0.8051291942660894,1.9859820305014089 -2.910715676311476,5.0705294222044195 l-3.649358300958714,4.741325483251264 -4.247700416233767,4.084630645758092 m9.21995835084806,-10.363111131138748 l3.4322904249450072,-0.33899060845779444 7.0658216859178795,-1.4172371692693388 l0.7210473132727997,0.14072806508522537 0.4005380763450124,0.5475976585843911 l-0.10819484815158667,1.5161304368694968 -6.6512639443505694,10.784825271302973 m-11.067687798494399,1.3760291372837192 l1.0147764551937044,7.0019342355526 1.1229866631090037,14.415776907296411 m-1.3875204884059862,-20.479235538190913 l18.820007650798793,-2.798932060281319 0.9677273174545112,0.014792196808203935 l0.6889467947203352,0.3567918034563514 0.4955313686554869,1.3124357854667228 l-0.15933730143691113,11.66923880629515 -0.7096705996486058,7.88021132315157 m-10.129795355668147,-18.95766495432641 l0.6484278804674838,0.9066383842187531 0.45109587618428415,2.0853980149989138 l0.014964551926133109,14.674435177268185 m-8.80980132329727,-7.65638682052574 l13.938919659389619,-1.716065823342124 m-13.677200393101282,10.834980002522562 l17.2542993181542,-1.8262291032068674 m-20.34443289906179,12.372069576305108 l-0.519169560478905,4.2718723580808815 -1.67050609643175,5.797305846655202 m8.066223661304198,-12.578678559240732 l0.830253408833915,3.989704561017068 0.5744129561509879,5.5215643917531105 m5.060076605040103,-10.878124759623724 l1.5088993854274717,4.418482505470764 0.8446428367156364,4.320493067540729 m5.200594217410128,-9.849508574310448 l1.9747276970728922,3.7194379179162134 1.309654202840722,4.288126082216708 m5.840092015458504,-44.65578664461779 l2.9193788791852953,0.277219954545435 21.620992999994687,-2.235924350590437 l2.759349758089512,0.04208634335318573 m-15.501155321622896,-7.492239983412313 l1.3765805773003286,1.197307464851875 0.19276828241321975,0.9938577691430234 l-0.04883695085106743,15.02440494524141 m-16.22054616960505,1.1696246421254963 l3.0959614917241565,0.26734099302936853 25.69881096811911,-2.940839203383465 l4.303359844438237,-0.16555265980106915 1.8180893566535157,0.36055746385664544 m-32.34198996883824,9.365137447099178 l0.6592018491192175,0.9017168104273262 0.35007546041213544,1.1783167625810949 l0.11960536062378743,28.45850857703396 m0.7186576635464583,-29.599463031540168 l18.916132906020664,-2.2694134590500328 1.0459980962974447,0.03315411504379157 l1.3737481319574651,2.178743655676202 -0.4147544582165003,28.74391421005729 l-0.3875218208848603,1.642616607450453 -0.7312196565463763,0.48917899444550345 l-0.9199942160119253,-0.3818989493800948 -2.30009960596521,-2.4529625462818196 m-16.208333279073763,-20.219567649615175 l12.431463655952607,-1.125474596441937 m-12.10854259395511,10.161722866232923 l12.084404808162025,-1.0954302783065384 " fill="none" stroke="black" stroke-width="1" /></svg>