<?xml version="1.0" encoding="utf-8" ?>
<svg baseProfile="full" height="91.31437155025674" version="1.1" width="97.51162155708005" xmlns="http://www.w3.org/2000/svg" xmlns:ev="http://www.w3.org/2001/xml-events" xmlns:xlink="http://www.w3.org/1999/xlink"><defs /><rect fill="white" height="91.31437155025674" width="97.51162155708005" x="0" y="0" /><path d="M25,25 m0.0,0.0 m13.185854169895714,3.905405588242498 l0.41053005582762075,0.3991736741466668 0.4586237532743329,0.7558109543604813 l0.12243038796113904,1.4038406127496856 -0.04754753682161625,23.88003539381206 m-12.488579963995766,-14.31678380554324 l2.0346939118736875,1.3882403103107137 2.464941170496253,2.2758593658966433 l1.807765401092763,2.3375848250047007 0.8074821609529814,1.7180142124635949 m-7.882935665629234,17.19664188650998 l1.283475362804888,0.3705485323029387 1.0730606633563504,-0.373719991453767 l4.111851343110089,-4.667002519390672 2.9814671960590724,-4.100219693600649 m22.512558236298535,-24.498558290451353 l0.22948462773342004,0.7953810350464326 -0.13811592339388148,0.891369870529034 l-1.3940062312882795,2.4959806608753325 -2.8272433622783777,10.896742406385936 l-1.4907742255076974,6.493559527732049 0.2868733547488141,0.8957921045358249 l1.0964330398504172,0.33449418080043875 2.2012641573079272,-5.61782472484266 l3.476879671069422,-5.502011523469272 m0.3994858766106532,-5.5486136585958565 l1.3739340535217983,1.8143659452952776 1.4020365663294645,2.260136238845508 l1.1961967810890604,2.4312364929843175 0.753514174573969,1.9975349395142274 m8.109988350156518,10.738740924537844 " fill="none" stroke="black" stroke-width="1" /></svg>