<?xml version="1.0" encoding="utf-8" ?>
<svg baseProfile="full" height="103.30693416589494" version="1.1" width="92.7994774041989" xmlns="http://www.w3.org/2000/svg" xmlns:ev="http://www.w3.org/2001/xml-events" xmlns:xlink="http://www.w3.org/1999/xlink"><defs /><rect fill="white" height="103.30693416589494" width="92.7994774041989" x="0" y="0" /><path d="M25,25 m0.0,0.0 m13.677636456781302,5.71906526097491 l0.04563520346097202,0.49710860195900475 -0.13918698181339526,1.183662557357456 l-0.7144327204601377,2.3094514395368946 -2.271776950011428,4.473930264548223 l-2.943522617132658,4.026204039588996 -3.590028757008937,3.836039926727619 m11.412427126743962,-12.784174904002233 l1.949970471099387,1.0727156087037786 2.218870654072437,1.6968690374453568 l1.7159441540497427,1.6435719637609019 1.0588637583063736,1.4777767132422115 m-9.4576459334304,1.5174027950532827 l1.1560001973102376,1.5377576152856465 0.9760051379489524,4.278811090297944 m-6.188501829742818,2.3831849747788536 l9.185768821731282,-1.810173820814975 0.6871087820515268,0.033703283559002525 l0.42840051405238544,0.33079794035928134 0.22287796375989558,1.1154175791355674 l-1.3546548539430963,12.069760202313264 m-9.153259738877495,-5.904711110689771 l5.98840753468537,-1.0003145524004002 m-6.095168583161869,7.194407527004663 l9.005818595135755,-1.6160638384543853 m-9.830059142430942,-11.637374910761672 l0.44561745581539197,0.7704844469285534 0.22471516857485746,1.7999554068168735 l0.09442793100074114,23.953921031069438 -0.016889151892965137,3.137747996570662 l9.813230287178762,-8.218710893253931 m-1.6835992623282727,-3.1150940255173185 l2.114263156712027,3.65683589960421 1.2951418944113207,3.780119534882303 m4.76394733736462,-38.79020035297831 l0.15512568514376024,1.511735789611257 -0.008503992496215881,33.094745054100784 l0.3295822495496234,1.396452343325682 0.3880211375843583,0.5309760426066468 l0.5590790221022787,0.15458082509069096 0.7118738414147305,0.029506396781640392 l12.899498115384267,-0.10373514348193714 1.2844808826410792,-0.4236452992125231 l0.9912466294966811,-0.8107385768440553 0.44672175336545317,-1.4159773242471123 " fill="none" stroke="black" stroke-width="1" /></svg>