<?xml version="1.0" encoding="utf-8" ?>
<svg baseProfile="full" height="112.71236164500661" version="1.1" width="110.78597839608713" xmlns="http://www.w3.org/2000/svg" xmlns:ev="http://www.w3.org/2001/xml-events" xmlns:xlink="http://www.w3.org/1999/xlink"><defs /><rect fill="white" height="112.71236164500661" width="110.78597839608713" x="0" y="0" /><path d="M25,25 m0.0,0.0 m12.407295418811056,4.857374548890246 l0.045441518389580694,0.5113506289139191 -0.7562884668345171,2.503847486771592 l-2.0797526641671147,3.6488606545680224 -2.740730211832955,3.2675546271524203 l-3.322684799970946,2.6425195797379186 m8.297325147516824,-6.630433460409902 l12.125079030966791,-1.4465973935005028 m-8.088105370897539,2.7433958019140703 l1.7715740639999813,2.4825171805162403 1.1733464492119021,2.686073347237979 m14.195467476143882,-14.166578521716895 l-0.2290191704808272,1.5409065342241595 -1.6922832912252164,3.5287075472734246 l-2.181621925150868,3.299810335891356 -2.2965415640207163,2.8180627240300797 m6.070765723489423,-5.098393833393999 l17.75761231690805,-2.2313302327504267 m-10.041986814203556,3.24236207653865 l-0.07789645671656133,0.7025866621674942 -1.0943600014836492,1.767056293233962 l-2.740417976864358,2.8026149304877914 -2.3300181315904,1.8829353310870403 m-7.714251545725538,5.83352412496487 l3.77414775204579,0.748291866086247 12.146939584710687,-1.2734926021853288 m-11.468274901428279,-7.4209759062393985 l0.6824770973473843,0.7459345462105644 0.29644716824221945,1.1234876117191677 l-0.06711047640911183,20.707993918135614 m-10.199303166495701,-12.875090952808314 l0.5174557657587311,0.8221789194227969 0.2778714519005378,1.285673039031319 l0.3726702919823079,10.793457373712045 m-6.453971724809283,0.8568857545154253 l1.671938954946624,0.42775737746274745 1.4349487965926806,-0.26696671837772923 l19.13499125468035,-6.62148815212952 m4.004766785121332,-11.64643971581575 l12.443162083032561,-1.7199857836306212 m-12.441758014198635,8.029985568999951 l1.6975061940782925,0.5438990496195084 10.736113497708887,-1.098433925185008 l1.5006726490363846,0.05811808891349585 m-16.20014465641379,6.770687763626971 l2.6956145798504614,0.126830140399008 12.791571495720007,-1.3121736262132047 l2.392060403296078,0.08328323617234047 m-19.723615593450052,7.221669696426127 l3.091096562786657,0.5747650029198595 13.878927202342869,-1.4935085557959866 l1.051590325029918,0.14744543563502588 m-20.073666053753243,7.744878723901186 l3.157999245991804,0.062036836664324635 14.800488754833442,-1.1867927917271517 l1.7272114447268823,0.16519589511839716 m-23.93723182396389,8.685422497103527 l3.568136597938197,0.567795486012862 20.316743165359984,-1.4922569604834384 l3.1443014208243123,0.36495625000862214 m-14.473031468003951,-6.197257664352338 l0.4424070600181122,0.7795883497452939 0.14350139119429528,1.0095466004240663 l-0.015382547280861681,8.31770391967068 m-8.14050923610862,-3.4345729837374095 l0.23001928157700638,1.2804876074971885 -0.150813943405081,6.4039465373874505 m-7.17977524291642,0.67501278206838 l0.6277281957468457,0.3568014331633734 0.9358880754477568,0.08135370208473477 l18.955886971463904,-4.02646880284574 m-25.04923647335448,-30.06908999117445 l2.3806906249036266,0.32422885439751276 7.464499258168205,-1.6316131483526481 l0.7159526623497949,-0.014440128398510478 0.4733630708397236,0.4122785579511679 l0.05473157590915764,0.7158344715128703 -0.3182692568182733,11.675967682320758 m-9.400892557978914,2.042287277044631 l1.6474986558243032,0.3251802770354884 10.732856135104972,-1.3412224264932506 l2.1425713538572624,0.3585923162821076 0.331132194176008,1.3473184450078801 l-1.84994642024538,2.4788324383252354 -8.032128903349532,4.657545461015273 l-6.093309606353634,2.4047221917117985 -6.926808854982827,1.8733768493206964 m5.552992966919586,-10.874512133973933 l2.087014925060046,0.3311941090371309 2.8657623425697887,0.8404410616762568 l17.832564713926413,7.1442350076367465 6.658774008209114,2.1984698615115486 l6.9395245743830545,1.5171037876618276 " fill="none" stroke="black" stroke-width="1" /></svg>