<?xml version="1.0" encoding="utf-8" ?>
<svg baseProfile="full" height="109.49251463171095" version="1.1" width="107.2416225913912" xmlns="http://www.w3.org/2000/svg" xmlns:ev="http://www.w3.org/2001/xml-events" xmlns:xlink="http://www.w3.org/1999/xlink"><defs /><rect fill="white" height="109.49251463171095" width="107.2416225913912" x="0" y="0" /><path d="M25,25.00000085681677 m0.0,0.0 m11.546452045440674,0.3653492406010628 l0.6336945295333862,0.5182185024023056 0.2668406255543232,0.9140007942914963 l0.29805028811097145,12.375552654266357 m-0.10369115509092808,-12.462553977966309 l15.226702690124512,-1.7105680704116821 1.918167769908905,0.18792539834976196 m-16.927205324172974,5.902249813079834 l11.999701261520386,-1.3087548315525055 2.3130010068416595,0.07775971665978432 m-14.46709156036377,5.112583637237549 l12.323349714279175,-1.3087944686412811 2.3130010068416595,0.07775971665978432 m-23.97346019744873,6.828588843345642 l4.406122863292694,-0.04961614031344652 17.464407682418823,-2.163119316101074 l3.9306148886680603,-0.23650838062167168 1.801426261663437,0.12959416955709457 m-16.36026620864868,2.7081504464149475 l-0.38217823952436447,0.9782245010137558 -5.53367555141449,5.429588556289673 l-0.36034852266311646,0.69981649518013 0.31051982194185257,0.58149304240942 l0.931401252746582,0.07320074364542961 16.58141016960144,-4.373615384101868 m-2.5664156675338745,-2.8321686387062073 l3.00554096698761,2.505830228328705 1.2885861098766327,1.5669940412044525 l0.7207761704921722,1.3373075425624847 m21.78668975830078,-21.604459285736084 l-0.08581610396504402,0.5182185024023056 -0.5873459950089455,0.7717912644147873 l-3.85373592376709,2.3637787997722626 -5.030010342597961,2.101980298757553 l-6.097134947776794,1.9224387407302856 m18.97223949432373,-2.585397958755493 l-0.4341128095984459,1.302190124988556 -2.9593506455421448,2.102613002061844 l-3.1988444924354553,1.869920939207077 -6.391044855117798,2.9422661662101746 l-6.304675936698914,2.137097716331482 m22.81933069229126,-4.613979458808899 l-0.1554922480136156,0.9083060920238495 -1.2012672424316406,1.211707517504692 l-2.7208054065704346,1.787663996219635 -3.1713202595710754,1.6612730920314789 l-7.734047770500183,3.088746964931488 -7.772645354270935,2.214767336845398 m-19.478435516357422,4.224208295345306 l1.2106792628765106,3.195047974586487 0.8106260001659393,3.3225461840629578 m-1.0104944556951523,-6.150285601615906 l33.45435857772827,-2.3195064067840576 0.7061439007520676,0.14149770140647888 l0.47234445810317993,0.40748804807662964 0.2330085076391697,0.6336945295333862 l-0.3540012985467911,2.367100715637207 -1.102558970451355,3.0523639917373657 m-23.08255434036255,-5.249256491661072 l0.4276568442583084,1.263592541217804 0.298042856156826,4.0818411111831665 m10.79210638999939,-5.826320052146912 l0.14255556277930737,1.302190124988556 -0.7904967665672302,3.9524441957473755 m-19.802401065826416,1.5097306668758392 l32.21243858337402,-2.0150569081306458 m-42.47999668121338,6.347702145576477 l4.078044593334198,0.3411140665411949 34.97437000274658,-2.116098552942276 l5.545381307601929,-0.055656880140304565 4.968317151069641,0.340377502143383 m-37.580018043518066,5.099928379058838 l0.4147646203637123,0.35623569041490555 0.5435283482074738,1.445823311805725 l1.1282642185688019,4.703829884529114 m-1.0433971881866455,-5.689647197723389 l23.66436243057251,-1.9112670421600342 0.743475928902626,0.22557375952601433 l0.7080421596765518,1.0443463176488876 -1.6003714501857758,3.8031163811683655 m-22.31313467025757,1.5552882850170135 l23.079705238342285,-1.5873011946678162 m-15.196013450622559,1.0364370048046112 l-0.12314808554947376,1.0171382874250412 -1.2014253437519073,0.9992632269859314 l-6.043035387992859,3.5784918069839478 -6.764681339263916,2.8590604662895203 l-7.437922358512878,2.2819964587688446 m16.31977081298828,-4.2697665095329285 l0.5248623341321945,0.5702618137001991 -0.16844375059008598,6.596371531486511 l0.0909571535885334,0.7460068911314011 0.4767736792564392,0.2551545947790146 l9.57913339138031,-4.428743422031403 m13.414204120635986,-9.54180121421814 l0.11012242175638676,0.73841392993927 -1.0868984460830688,0.8842617273330688 l-6.927930116653442,3.482789099216461 m-8.959675431251526,-3.576277196407318 l20.186636447906494,10.813381671905518 1.7455865442752838,0.7543907314538956 l2.0940710604190826,0.45842405408620834 " fill="none" stroke="black" stroke-width="1" /></svg>