<?xml version="1.0" encoding="utf-8" ?>
<svg baseProfile="full" height="102.82410904509435" version="1.1" width="103.78617480254849" xmlns="http://www.w3.org/2000/svg" xmlns:ev="http://www.w3.org/2001/xml-events" xmlns:xlink="http://www.w3.org/1999/xlink"><defs /><rect fill="white" height="102.82410904509435" width="103.78617480254849" x="0" y="0" /><path d="M25,25 m0.0,0.0 m13.850417464374805,14.588316160303005 l0.32334128139586615,0.13057314903232453 2.115390572045355,0.07017586547722363 l10.21357107049262,-1.8634447662775662 2.483089083389222,-0.17630732161741047 m-8.396657481034868,-6.839979704388526 l0.6625825711613678,1.6573350654929149 -0.07432549286836423,12.98520113754662 m-7.264307085396725,1.6721162629485837 l0.5714908711876456,0.8953613596218775 0.285161085512151,1.3783511860036157 l1.319372902569117,10.580970206244093 m-1.2256193771805601,-12.436941873607577 l10.861782432068642,-2.338923292421639 1.304388647336299,-0.1121088249194182 l0.9730244520916117,0.31141252087478044 0.3962200926647043,1.0543454559600955 l-0.031490470333285274,0.7403693399972051 -1.5141279010130426,10.608477345990792 m-10.975327373655901,-4.754884913921388 l11.435919141332388,-1.9000609725603461 m-10.616857362048465,7.426851718853884 l9.742066331256822,-1.5191649509923257 m-14.506734176321286,9.013938229938855 l2.137057612129106,0.15600567176529465 11.522449392067399,-2.153415626728268 l2.824896609168133,-0.2884530021929474 1.566529139103751,0.13445377558948376 m-8.696787881656615,-5.4340702333745945 l0.3896439680727887,0.8915141884659262 0.14178343846774735,1.0965070170105415 l-0.013835883046069024,17.249588870979235 m18.674906906993485,-46.2294360114308 l0.010787041857043357,1.5073801019887896 -2.776339436071401,7.080190671955857 l-2.45824746457226,4.657890632643033 -2.8372839678412953,4.318392225505208 m9.144173176627449,-6.100745194894285 l3.3327322645959003,-0.07660041946420162 6.7083272946795285,-1.506010083851248 l2.1830113129476882,-0.028853505835473303 m-18.979413407514528,12.864141284308614 l2.7089706875179513,0.1872499540293603 8.034744454701809,-2.171587021531902 l1.3579351679874547,-0.10994283379698346 0.3301921403739642,0.22953163547641356 l0.1327955448841233,0.5107615581763308 -0.049993340339370675,2.023824093963872 l-1.318409092633409,9.26655616895419 -1.002618193875408,4.309939438749968 l-1.0502976707585787,3.3004752322178166 -0.9467075994750838,1.764211898007945 l-0.5455371004180385,0.4799448543546706 -0.4588793481274203,0.03181774677312481 l-0.38473260323820857,-1.3802646975976125 -0.3257585883442333,-1.8919374734011163 " fill="none" stroke="black" stroke-width="1" /></svg>