<?xml version="1.0" encoding="utf-8" ?>
<svg baseProfile="full" height="115.00137494535367" version="1.1" width="107.72614150228817" xmlns="http://www.w3.org/2000/svg" xmlns:ev="http://www.w3.org/2001/xml-events" xmlns:xlink="http://www.w3.org/1999/xlink"><defs /><rect fill="white" height="115.00137494535367" width="107.72614150228817" x="0" y="0" /><path d="M25,25 m0.0,0.0 m12.254000273483499,19.120793929108746 l0.5142591606686561,0.3855854165131378 0.5463339366341613,0.9832889083042301 l0.2258249936095811,1.3066364979277518 -0.0589120641079339,39.528322350523325 m0.5557851876490056,-40.59301276347247 l30.831894765691555,-2.078874865207222 2.754010063125857,0.09294255055141827 l1.6466586896254776,1.853777378908491 -0.008320122334577683,39.55592457881935 l-0.33574053118851127,0.805291619590949 -0.501544930433292,0.35895762899027556 l-0.6330553814437185,-0.009304361941036494 -1.561348053228097,-0.8274128529550556 m-21.52359523569594,-33.41628620906612 l0.7540528137329064,1.056392913325358 0.17975865363369392,0.9193835324314523 l0.06259889598541478,34.97879090069482 m11.508213490955987,-38.096411401148465 l0.5880695441990967,0.7722686881558862 0.17767152304424383,1.0629292560874293 l0.05466359210870972,37.24139124921143 m-33.474887857307195,-21.19373276426084 l1.8984045657252548,0.32096449231259166 1.8625948631862805,0.041217543698791444 l18.297409759828692,-1.3350043922804111 24.758270241899815,-0.9592502088602411 l3.469762045134849,-0.053115456483202525 2.8833086181047083,0.3146763520729904 " fill="none" stroke="black" stroke-width="1" /></svg>