<?xml version="1.0" encoding="utf-8" ?>
<svg baseProfile="full" height="100.70223180254237" version="1.1" width="94.73827574792217" xmlns="http://www.w3.org/2000/svg" xmlns:ev="http://www.w3.org/2001/xml-events" xmlns:xlink="http://www.w3.org/1999/xlink"><defs /><rect fill="white" height="100.70223180254237" width="94.73827574792217" x="0" y="0" /><path d="M25,25 m0.0,0.0 m12.93642258836527,8.03002184244121 l0.42698708993723883,0.34496283207774486 0.6142932419696013,0.9912230753478749 l0.42026634607588864,3.0032247724070817 1.9527280837091745,10.785294617883467 m-2.05750298115046,-14.60593170640734 l27.446012967701552,-2.418385361994239 2.2314747337116376,0.26709910188414776 l0.7675936776022724,1.3875907663389409 -2.7133956138636806,11.942678958606642 m-25.608493295124294,-5.549975736553227 l17.88243486975099,-1.3617821357174966 9.249751193075427,-0.5047415311580815 m-26.07032963478143,7.7440634689052565 l24.732690784230623,-1.764723745444228 m-24.3303778614607,6.849886162001423 l2.429114889021858,0.8380664827967523 1.9700008091057697,1.1956750620351637 l1.5550684424258323,1.260961167643532 0.8023569279101955,0.9521095721333755 m-12.56587439740397,4.659576493512206 l1.473362562937336,0.8949549237293689 1.7017450936520209,1.3253614426252271 l1.4353408476635605,1.1474340293083525 m-4.984898144239789,11.150045187666166 l1.1454466602843916,0.03914753725720791 0.8390690771550541,-0.605641509665126 l4.196757463523979,-4.766269992932328 m17.86379920785714,-10.596411725917456 l-0.2638500681919045,0.9375451560268263 -1.755478661154767,1.5399521463220214 l-2.595277359227927,1.7944805938794406 -3.2382145865906184,1.992698217255502 m0.4999707136616266,4.7377714830711115 l2.617870500759254,1.1674478548899987 3.470163717649736,2.0620703468822548 l2.760604252785349,2.1249747941200745 1.4101087648105364,1.7097771592835058 " fill="none" stroke="black" stroke-width="1" /></svg>