<?xml version="1.0" encoding="utf-8" ?>
<svg baseProfile="full" height="135.6491304577686" version="1.1" width="100.50497097157393" xmlns="http://www.w3.org/2000/svg" xmlns:ev="http://www.w3.org/2001/xml-events" xmlns:xlink="http://www.w3.org/1999/xlink"><defs /><rect fill="white" height="135.6491304577686" width="100.50497097157393" x="0" y="0" /><path d="M25,25 m0.0,0.0 m5.1780976114848185,18.275040288246398 l0.5771700035396318,0.14529618909890457 3.4206909061898148,-0.004892501115744434 l12.448868994024934,-2.2832656758876553 1.700367258134719,-0.029180129297136335 m-8.506381317386234,-13.876110437176642 l0.7537195221347809,1.1998092047031161 0.30922987968052246,2.041668218655762 l0.017509655459141318,48.6988875867325 m-0.5492858864784773,-36.02744164104936 l-0.6243951820002995,3.1379741528930274 -3.41305045198973,7.767574906604165 l-3.053933045411213,5.321939770128284 -4.089501470357315,5.990607561454949 m13.504901357257326,-16.21919080694504 l2.1960934666579837,2.3186651369592908 2.911057954254464,5.093939765671068 m13.555137672770211,-18.58130820399713 l-0.2879419641741311,0.8866068335876272 -1.4301901349213542,2.6774719846535233 l-3.002883681134226,5.783340315601955 m-5.076750995614995,2.8173065664849304 l0.652896026875219,2.1014305382318557 0.07484217040110559,1.2169268067153294 l0.07082282820003799,21.20109179405703 0.31247013179718525,8.228113522647499 m0.9496671247728302,-32.92150244506691 l14.25068976382586,-2.2266889118327717 1.320348924323818,0.04512232811634104 l0.5756391180673371,0.35342906240708155 0.6042653896584474,1.1674848932807813 l0.0822131415983906,1.4484633688889876 -1.4105697388916798,17.49482911874696 m-14.84106736869854,-9.102064179512642 l15.396147868900728,-1.762090218846455 m-15.208073732587428,10.646792296478248 l14.360572655051605,-1.58009085145132 m-14.252258164043763,11.23609006801723 l16.437147107235713,-2.3352644767107513 2.424389256051339,-0.03932945550153628 m-19.318716638512036,12.072311821973637 l18.053174786570647,-2.806144476043371 1.5083562314466437,0.02047221720006892 l1.050672051751161,0.5893767174738053 0.7155285360531575,1.1858633877931293 l0.15728334960579662,0.7811274522993333 -0.4281630425042517,8.052287332789897 l-1.1806778961968654,6.8371206782669365 -1.6805302234928865,5.435614590851546 l-1.0776960092732093,2.2223723344298363 -0.6217452782492472,0.6970208188439361 l-0.5792478490522552,0.25422523721806367 -1.1518250834380914,-0.4700737184620399 l-1.7540326510494202,-1.8697954585795356 m-17.2619855513585,-9.448214781362386 l-0.6020543208745436,4.635347679226146 -1.4024032157119297,4.493218498505478 m6.72268607336626,-11.176512995196699 l1.3448500702335764,2.823451156641742 1.0824518629571631,4.294199619962549 m3.4803505864137523,-8.531357752576207 l1.7908135348881127,2.684526336242199 1.2483811289002353,3.1078814425841808 m2.6027817944644376,-8.012016883198152 l1.79919310483749,2.6413928364130714 1.2835249000434508,3.144396870212745 " fill="none" stroke="black" stroke-width="1" /></svg>