<?xml version="1.0" encoding="utf-8" ?>
<svg baseProfile="full" height="113.23627908092524" version="1.1" width="103.04115177997647" xmlns="http://www.w3.org/2000/svg" xmlns:ev="http://www.w3.org/2001/xml-events" xmlns:xlink="http://www.w3.org/1999/xlink"><defs /><rect fill="white" height="113.23627908092524" width="103.04115177997647" x="0" y="0" /><path d="M25,25 m0.0,0.0 m12.65418558883643,3.352685272058889 l0.006687337258475405,0.46343185656215136 -0.08163580839851972,1.1928515838339828 l-0.6692235624428073,1.9358400742469397 -2.431917238300981,4.95135732745127 l-3.039556317710159,4.557179310334947 -3.5233400504201504,3.799478684449283 m7.640127368293055,-10.017210389034139 l2.8933998379075043,-0.3639194669436663 5.378443806480957,-1.293619592418748 l0.5975145466664029,0.13235702421166753 0.32447535545037753,0.563102721861359 l-0.14572663962675403,1.4288773242150932 -5.36220054919002,10.302535409608216 m-9.105919229797005,1.3382607813950727 l0.8450101086398071,6.871199588353309 0.92236446554747,13.792609017546544 m-1.1451999639111927,-19.703976788018988 l15.281107188319266,-2.6983322773447336 0.7967578438548981,0.012157536761197582 l0.5707486943106567,0.3526919763467254 0.4048037965939869,1.281626332490942 l-0.13071671531072207,11.379042146011473 -0.5360314301769619,7.663978694386549 m-8.253984017723672,-18.526648446002966 l0.5288141087796483,0.8776865386536766 0.3751562724522099,2.0113801930620516 l0.014341636591893931,14.252853377751867 m-7.223795473498913,-7.411755898025973 l11.324234660762047,-1.7018278594644767 m-11.083239259577322,10.545770231747051 l14.08041669454404,-1.7930896614446072 m-16.655727111551062,12.008348136696071 l-0.4077957339923239,4.089282919996421 -1.3332465361143067,5.603540369552443 m6.578086927403373,-12.03523392251187 l0.6401581423441547,3.806267897442127 0.4487369390931156,5.2845611622511655 m4.163228479723223,-10.416047138655374 l1.2218794250081295,4.276234245045858 0.6805831465025466,4.163185405480688 m4.264665877709128,-9.563831233477922 l1.6140723773921617,3.5880445828167495 1.075190306277867,4.162165208936359 m4.805937473688086,-43.40678812498716 l1.5822173441532998,0.26424131134331985 17.310859815179626,-2.098167435796331 l1.9482356991204837,-0.029621632483541143 m-12.030068449003688,-7.467992138565776 l1.1961206175499357,1.7724914626594945 -0.09345255285041193,21.74730845138975 m-9.536850973507908,-6.416162745432315 l2.4549656444569856,0.11508822998426264 14.028933259494826,-2.401893777718965 l2.704032558115874,-0.12247926847048266 m-20.9075829503717,9.79624272631113 l1.5894491813934093,0.21657570442096494 2.619526973339198,-0.12862418058300787 l18.525543318868397,-2.2854988516697947 2.6473495253501103,0.41877137295630207 m-22.143188244770446,8.870532645915844 l0.4579124821705264,0.8206817384376586 0.16959565709203195,1.053624286233395 l0.10399681563582787,27.52391913754908 m0.4791796347313546,-28.976620395303122 l13.59084509248108,-2.0437538027747317 0.8584094447130786,0.07047627584565834 l1.0329270809625484,0.9236431892170778 -0.19511393816814293,28.388512242620305 l-0.2418893730794099,1.6221187869010838 -0.540517571857607,0.4945636147104604 l-0.7063905788610922,-0.3668546994001698 -1.669791220542775,-2.3313405491800165 m-12.154749493853709,-18.721482049646465 l9.082626809916961,-1.0824102748174018 m-8.754546232019313,9.337138427326613 l8.774288838297105,-1.0070940967303954 " fill="none" stroke="black" stroke-width="1" /></svg>