<?xml version="1.0" encoding="utf-8" ?>
<svg baseProfile="full" height="113.0769431371082" version="1.1" width="105.50842514539559" xmlns="http://www.w3.org/2000/svg" xmlns:ev="http://www.w3.org/2001/xml-events" xmlns:xlink="http://www.w3.org/1999/xlink"><defs /><rect fill="white" height="113.0769431371082" width="105.50842514539559" x="0" y="0" /><path d="M25.791803631007724,25 m0.0,0.0 m13.16477134120465,13.115604697345788 l0.4020923912341146,0.3786794875704472 0.4294013701290055,1.2139121428611597 l0.02107133456881929,6.042189821846371 m-13.138011423455264,1.357752454154936 l3.4165928387154536,0.05892083745941816 16.656269336048652,-1.8206380702199199 l3.257203635808129,-0.10351031489745759 m-18.81982053690513,5.1681965286108555 l2.530526958134574,3.635870016232022 1.0213707028933552,3.221201101194665 m11.045175969475226,-9.463671462763342 l0.15727574709178896,1.0037277896997512 -0.2994136851860142,1.1275201980784417 l-3.452610794869173,7.567114831822986 m-17.183698815895912,3.2955751778909685 l3.3596184979479005,0.0986485775457345 19.19371154813145,-2.148980101259014 l3.7145082676305816,-0.2288179048772542 m-25.801719168521483,12.812345414567424 l3.1801438170068588,0.2560698661564157 17.621954702319673,-2.120938801308385 l3.699439782402363,-0.21851795307821362 1.9708056927664515,0.15555577039961244 m-12.940242503584376,-7.361002055865884 l0.9806254597279779,2.380365007169368 -0.12935362422271895,23.653770080771313 m17.554076630071396,-46.027104206105335 l0.7543916709665374,0.3542755840037931 1.5503195206765834,0.08559630361975712 l16.232674634995778,-2.130689141232209 1.3062521734779946,0.22851443028320445 l0.48035379213758544,0.9869510039201407 -1.7671617245284328,3.6134723315905317 l-2.744359878368837,3.555858057144386 m-16.378143106696285,1.4378565028061197 l3.0476098322077605,-1.7851362114629667 m7.636676721859237,-1.1629856106214689 l2.5130333196122603,1.9881925111962129 m-13.327261067958208,3.916020435325893 l1.351468190898271,0.22595745214860813 1.9271416701770299,-0.21992812058211972 l16.516008548172437,-3.029843785981383 3.566639653411899,-0.14179477373674257 l0.4392120926779203,0.8945286369582054 -0.9598972046638491,1.7887119186583973 l-2.1005235547231984,2.07667375780361 m-9.591261422295773,-0.8563714993147675 l0.8103083715479742,0.8969962150853755 0.28983793399741453,1.1984954441932765 l-0.25671330853377594,22.58042007000001 -0.253867360124162,0.9388468410186152 l-0.5062928262960925,0.4272624674770354 -0.7380095896498946,0.004295620005295921 l-1.7800746247323695,-1.0074754812528322 -1.6533002266278076,-1.764463914098694 " fill="none" stroke="black" stroke-width="1" /></svg>