<?xml version="1.0" encoding="utf-8" ?>
<svg baseProfile="full" height="90.98756304470587" version="1.1" width="97.23790536189944" xmlns="http://www.w3.org/2000/svg" xmlns:ev="http://www.w3.org/2001/xml-events" xmlns:xlink="http://www.w3.org/1999/xlink"><defs /><rect fill="white" height="90.98756304470587" width="97.23790536189944" x="0" y="0" /><path d="M25,25 m0.0,0.0 m13.538107783090455,3.7568305887817433 l0.4622969308424911,0.3819157143721094 0.26576837317005636,0.7525612888940869 l0.14934471677309719,10.357572145390671 m0.1146147586685296,-11.123929922176867 l9.284923791430867,-1.3619109193446417 3.4179701257332895,0.08014961044718595 m-12.71705674348052,5.012606099678388 l8.763849037363629,-1.1470993055224923 2.163794780211099,0.026953550796055346 m-10.73843617115419,4.930971886405818 l8.86344841921398,-1.2878256668874635 2.105396224509551,0.032150471125842975 m-18.432708518528663,5.967853809026928 l2.9673656505042967,0.030850553771887036 14.409576012585054,-1.8809955486700116 l3.0607788513192906,-0.05049301450183401 m-12.520648850753995,2.4549834727269357 l-0.8660931579302324,1.433985654397053 -2.13136528184903,2.4114152057924847 l-0.20987933943516437,0.48384783279159616 0.2402835698691925,0.3811039496168881 l2.076344093514466,-0.24237483219193418 9.910775642853876,-2.591827642992029 m-0.9221278995734942,-1.99344148191186 l1.3593604446670349,1.8128824931060756 0.9475159262836088,2.163814043917093 m16.604656332686478,-17.250874603114948 l-0.03955708385797657,0.629945794846787 -0.40209434274294287,0.4168299906898269 l-2.987525814725414,2.1879696232063686 -3.0272570892719277,1.611051726689114 l-3.9586909103848216,1.5937874772135476 m12.667402375169932,-1.4464292076805834 l0.05934197559698448,0.3349792096489138 -0.33456796532832805,0.5724649427246106 l-7.779142310021206,3.1363259981043945 -4.786619510821866,1.2229575022643655 m15.65876053570194,-0.20239990392781507 l-0.08131032955491391,0.570891418763948 -0.8648005736389421,0.6017007712854587 l-3.933711770156781,2.014779808186944 -4.139650822346656,1.5257304761985784 l-4.612346869933044,1.3244633457162158 m-10.311011445206333,-0.4052583411478212 l1.4456627008412137,1.6414272003478059 0.8138746585348451,1.5990886440018228 m-18.825059412823535,2.8171343897008354 l3.2876562718504707,0.11560159444380144 28.347019330995675,-2.3862118911265564 l4.091704757025137,-0.12119897904016065 1.962235606265538,0.31699301207272806 m-20.329590555090302,3.775380103401772 l4.4860431890199495,0.6001066993789519 7.51389428369587,0.4574121792734896 l0.7321055828256541,0.7321337730561043 0.1662292296839659,0.9386096542838137 l-0.5118967404926469,1.974567542363516 -1.3844537469635412,3.0414987404401685 l-1.6829810535975138,2.9914528971318832 -1.513785801698766,2.4692186954063535 l-1.0679172034985722,0.7600792592428751 -1.1482435669706117,0.03280346381904924 l-1.014853837420584,-0.6067877111056815 -0.8625544376294837,-1.29969468469457 m-2.1773860855726292,-13.6652544800388 l0.08182023278936172,0.8456678612170273 -1.0094855800262408,1.9477023256788106 l-1.8330531552050482,2.73500411883809 -2.029853057385154,2.4593428086512916 l-1.9676267618967225,1.9571195244576602 -2.2509433871391513,1.8356954939940546 l-2.5385146306779016,1.6225182370593405 -2.0823320260337717,1.0303964578157494 " fill="none" stroke="black" stroke-width="1" /></svg>