<?xml version="1.0" encoding="utf-8" ?>
<svg baseProfile="full" height="112.82469852447187" version="1.1" width="99.58999155971713" xmlns="http://www.w3.org/2000/svg" xmlns:ev="http://www.w3.org/2001/xml-events" xmlns:xlink="http://www.w3.org/1999/xlink"><defs /><rect fill="white" height="112.82469852447187" width="99.58999155971713" x="0" y="0" /><path d="M25,25 m0.0,0.0 m12.443038062910237,8.217551105074842 l0.4140325767961364,0.383460871664344 0.5755903653703166,0.9649342411348167 l0.41450693061768445,3.129321294684012 1.7796649974834593,11.40034620176116 m-1.9573301974090433,-15.139076077764297 l26.753593869065377,-2.4387757728072335 2.249963619405392,0.305313772697162 l0.7428386253856176,1.6285046194624815 -2.594244206733143,12.389322565671334 m-25.42107252665147,-6.004177461366665 l17.725601943042683,-1.4659543715482986 8.849797230828692,-0.5641685225451288 m-25.35016666935687,8.202808481992195 l24.020135721608973,-1.8581255208161935 m-23.602252400821655,7.369091550006541 l2.310279750091587,0.8715658976813604 1.881402825378704,1.2086884131244946 l1.5430044819183535,1.304265012837127 0.7953903338238008,0.9616139918519132 m-12.205369757617667,5.075046020708374 l1.4861574323344917,1.0084249735643196 1.624668860503855,1.4172624296256697 l1.3917448578723357,1.312204513528451 0.6398869501711514,1.0092085023038164 m-5.331744134077503,12.500992754552657 l1.0871291153408484,0.026826109337442252 0.9141341520592844,-0.5932360911708847 l4.364566866492188,-4.848137969671084 m18.217684178821173,-12.94714629640373 l-0.2945806312999752,0.9986790963500523 -0.6816705875939288,1.6867287437638274 l-1.5636007295944068,6.238906780089164 -1.2601415155946973,3.4827242365863333 l-1.6385471718957456,3.04105837627567 m4.86608296100522,-9.786977873412006 l2.28653928528579,-0.08361170272076544 10.254912848059234,-1.4304778348460527 l1.2971237596907073,0.15251351203822724 0.4099898356055824,0.31481875433533435 l0.15124965139434923,1.0946528241099656 -0.6393908240896697,5.9017486732017606 l-0.6565937843147797,3.8073605815608906 -1.0129725419082325,3.795464059356324 l-1.3145559172673944,3.5099317158879786 -1.0186099457207063,2.4992994681711207 l-1.150638620211044,1.8859619477678329 -1.6841322008187254,0.8879619267852059 l-0.9712824026128049,-0.45042204457369484 -1.3006875702476886,-1.1704728465744234 m-6.414396635495015,-15.312255565449224 l1.7754136462258108,1.1838051612599612 1.730206415465252,1.817576047549905 l1.284336592435598,1.831488101715728 0.6389221969267351,1.1407340788262617 " fill="none" stroke="black" stroke-width="1" /></svg>