<?xml version="1.0" encoding="utf-8" ?>
<svg baseProfile="full" height="99.96023164023154" version="1.1" width="105.83402412595795" xmlns="http://www.w3.org/2000/svg" xmlns:ev="http://www.w3.org/2001/xml-events" xmlns:xlink="http://www.w3.org/1999/xlink"><defs /><rect fill="white" height="99.96023164023154" width="105.83402412595795" x="0" y="0" /><path d="M25,25 m0.0,0.0 m12.799235268460706,3.812803944640918 l0.024238778364356815,0.37315750598690034 -0.1068900941505001,0.953291006781184 l-0.5608526263564163,1.4005858368424753 -2.489471775048683,3.966240732485245 l-3.082527363625241,3.5162496132335765 -3.7725934385616746,3.256236205270339 m8.882205879030787,-8.714635660937079 l9.546266978439524,-1.9335529941311338 0.6510538368169949,0.14220622953281137 l0.3228810392490248,0.5239171278080534 -0.15542410655037892,1.2757719849988418 l-6.311376335032479,10.309621443035887 m-10.347301339135875,1.1372008434217449 l1.1306380114462402,6.373351109330818 1.063829379880195,9.769340774082448 m-1.576987439881356,-15.18672716940403 l17.244919852527666,-2.469602719220111 0.874335416573382,0.005532833425795182 l0.614892796225374,0.2792481653342933 0.44107730919233373,1.0172493736222779 l-0.15165180395913133,1.487421355665555 -2.0014913805778427,13.37849355478359 m-8.643013623679526,-14.22750870620057 l0.5797994046029472,0.7120526845242394 0.4049066909083117,1.6218761998834001 l0.020986476177024926,10.801265927867949 m-7.795365819197279,-5.868564812043251 l12.504883808817723,-2.1558579006944942 m-12.30193323428456,9.222029042740843 l15.482870529533415,-2.131485055758903 m-18.078228328392413,8.350987171882679 l-0.48954033269949165,3.822379171720688 -1.3685652108289081,4.671609122463522 m6.260168197961551,-8.837425093557352 l1.3946035088158537,2.6552173700350195 1.1506633287172414,4.366190959988591 m2.774475488701046,-7.763890271316845 l2.2774347412221014,3.1803609157995805 1.2635333664466335,3.0760908334817283 m2.679375986431153,-8.287155704464354 l2.163214985471332,2.674089380058241 1.4581148360748635,3.1000170732834484 m12.42582131756386,-40.16832457577835 l0.04322900264108682,1.3780469439756438 -0.32557691151567747,1.4033586388441461 l-2.5007081280561625,6.947975190905584 -3.021078832917902,6.035037923824469 l-2.997317912751971,4.530150763061436 m5.839866637392619,-7.767829629803887 l1.982814210419134,0.082906697718273 17.3240190905993,-2.4297489200395663 l2.285564008457636,0.1050201849494344 m-17.426519563847844,2.152166642758285 l0.6175072800663326,0.7783321088014261 0.3346816150688002,1.4487055751068014 l-0.12444493545595986,31.808754689623278 m0.38427479270622766,-23.96091278405108 l11.839912898395259,-1.706735698310872 1.5203839870454394,0.1796128878864922 m-13.580466904130423,12.076557407184918 l13.38480060559314,-1.497213483229334 2.2232886194424264,0.11226215578155856 " fill="none" stroke="black" stroke-width="1" /></svg>