<?xml version="1.0" encoding="utf-8" ?>
<svg baseProfile="full" height="97.90830836896914" version="1.1" width="106.45670277680057" xmlns="http://www.w3.org/2000/svg" xmlns:ev="http://www.w3.org/2001/xml-events" xmlns:xlink="http://www.w3.org/1999/xlink"><defs /><rect fill="white" height="97.90830836896914" width="106.45670277680057" x="0" y="0" /><path d="M25,25 m0.0,0.0 m6.628025516281197,9.744632134760133 l0.45797384070203934,0.1778777653586618 2.596379101551997,0.09449169331874718 l11.384816748731174,-1.867478468388847 2.2078223163989463,0.00869000806942282 m-8.428145679824759,3.6293076385791383 l1.0018488595588222,1.335705414344599 0.2518782124751898,1.0228589991738157 l0.02275433699768896,27.025262207607295 m-7.843948550242212,-15.563163716142014 l1.2596754884498507,0.19543799537062057 1.5286142737674093,-0.08030678015482262 l10.342127233562875,-2.4513926976321483 1.3326890397948383,-0.16345537312890598 m-15.429701450495488,21.920527780671403 l1.652995049313052,0.8498110990230958 0.38781044213205174,-0.1265035009639529 l12.504286205417074,-7.470451679387664 m5.596677176652107,-32.80156633075984 l0.5968411638962575,1.684050235264515 0.5063974117176712,3.0840087034526813 l1.2545829213994397,15.527233914036033 m-1.302175207071207,-19.73908990985935 l22.05772534693101,-3.002692381189551 0.8627255352382568,-0.03917938728786024 l1.2099821277469263,0.4180478340352195 0.3539634193897191,0.3799867183667586 l0.23851234850282876,0.9474245030515744 -2.145891745571634,19.497224479853937 m-21.775644886407324,-9.030407519523772 l16.805416887589438,-1.6229486786685712 m-16.020433679951427,11.265125096702715 l21.019481057428035,-2.0875273929653972 m-21.919146746519033,12.157903109112068 l1.3483544246507557,0.234598389921577 1.7089186291059866,-0.034256378591876926 l14.943617133778085,-1.7609112028052403 2.650118262050752,-0.12306904987942939 m-27.256532350964726,14.353829917077025 l1.7801637923879732,0.3186731791473567 2.5787602646224452,-0.10321532090256168 l13.208116187593403,-1.7824579282844255 8.509889516326863,-0.8316844515629901 l5.25601698605192,-0.1634443724598184 2.5323658156542987,0.3102355403946923 m-17.786447186605987,-41.37455764942441 l0.5875612483493623,1.372300616609387 0.08358848192873293,1.2549070134101006 l0.05702497723318717,39.111037354401184 " fill="none" stroke="black" stroke-width="1" /></svg>