<?xml version="1.0" encoding="utf-8" ?>
<svg baseProfile="full" height="114.96058129237636" version="1.1" width="103.96614965685865" xmlns="http://www.w3.org/2000/svg" xmlns:ev="http://www.w3.org/2001/xml-events" xmlns:xlink="http://www.w3.org/1999/xlink"><defs /><rect fill="white" height="114.96058129237636" width="103.96614965685865" x="0" y="0" /><path d="M25,25 m0.0,0.0 m25.252130028753598,7.464152782731614 l0.027664215155938473,0.4880603776413328 -0.2197012951579732,1.0716380450874148 l-0.9029074725977534,1.4697655099906883 -3.2078630200821667,3.7631884416939037 l-4.176885608096838,3.538016785735075 -4.570534373917072,2.790456050062219 m12.464065787458974,-8.773644767847133 l11.326402472840899,-1.6696525092516492 1.044219738447935,0.12456328895603604 l0.48665012590543805,0.48492084205945407 0.09471819116448187,0.5931486451688526 l-0.2749781026471805,0.5529822414630582 -3.652702722981324,3.510946693628408 l-3.44348652601543,3.718009547030164 m-13.903839090991017,1.2487544041954959 l0.6434435594366352,1.43725581654355 0.45645283057907216,2.0655637406328236 l1.3156173249746446,10.380411973423772 m-1.8569184397845075,-13.205561291924305 l27.41938658265987,-2.7087640729158973 2.35405499823327,0.04008355221519208 l0.8163453245456217,0.6881221502987415 0.08118924288386002,1.6800257742570752 l-0.846786486866655,4.886142056558205 -1.611634319661865,7.309846662427028 m-13.52538935974097,-13.073013417356686 l0.15896031211907732,12.349721494426781 m-13.018607687943737,-5.218078317234466 l20.285050062302783,-1.78989869323826 m-19.395717627998092,8.397608079036972 l25.599069792077785,-1.8861020573647853 m-32.02978970501592,5.386561107571386 l-0.23602721540302524,1.9455639229121995 -1.0314210736085376,2.755833780145648 l-1.3461443352432805,2.5181118563172724 -1.6393562444550982,2.314024401711472 m13.588857417418337,-8.881310622710018 l1.8457528886115688,2.355085400326203 1.3325014171805596,3.3790209925272574 m8.83925449616012,-7.424829291392877 l2.4676250056577462,3.2583970725151525 1.1737008194045173,2.30902681902077 l0.4661685708428874,1.4444891715512427 m7.339367404819474,-6.76971717618182 l2.4420698514163983,1.6143110551028306 2.5585935392450176,2.289958617102479 l2.0771561747095144,2.3792990979376736 0.9003721900610748,1.624666119997425 m-34.96569127483163,3.422844267099924 l0.6383544297466046,1.2931000422940375 2.0429052978884767,16.01747483039741 m-2.144030619070808,-16.547399306989366 l21.710842669669013,-2.009869601267999 1.4525644095358148,-0.09195528945412092 l1.3243003319839757,0.31351549617142793 0.7033845576216005,0.9670263556606645 l0.07722716808818574,0.8694023776749095 -2.723385661734249,15.796651248899135 m-21.508774050690413,-8.786243565106961 l15.027609062739163,-1.457501472203119 m-13.68998091857221,9.198272629479915 l20.27150969433497,-1.139632312350406 " fill="none" stroke="black" stroke-width="1" /></svg>