<?xml version="1.0" encoding="utf-8" ?>
<svg baseProfile="full" height="109.49251494370401" version="1.1" width="105.28753559337929" xmlns="http://www.w3.org/2000/svg" xmlns:ev="http://www.w3.org/2001/xml-events" xmlns:xlink="http://www.w3.org/1999/xlink"><defs /><rect fill="white" height="109.49251494370401" width="105.28753559337929" x="0" y="0" /><path d="M25,25.000002341385112 m0.0,0.0 m30.713727474212646,-2.341385112458738e-06 l0.40517687797546387,0.5052794143557549 0.4095861315727234,1.6124451160430908 l-0.04023466259241104,4.461712539196014 m-22.209413051605225,1.9461201131343842 l5.127791166305542,0.28057506307959557 35.13630390167236,-2.3661336302757263 l4.807781279087067,0.3544304519891739 m-43.68664741516113,2.394833564758301 l0.7313045859336853,1.6454948484897614 -0.27065418660640717,8.985711336135864 l-0.6308048218488693,7.36373245716095 -1.2363455444574356,7.88108766078949 l-1.5765352547168732,6.280718445777893 -1.6006869077682495,4.499846696853638 l-2.0134906470775604,4.178247451782227 -2.474915534257889,3.7269917130470276 m12.579232454299927,-37.01568841934204 l2.452988475561142,0.12391659431159496 11.89821720123291,-1.9006767868995667 l2.0303334295749664,0.039028069004416466 m-7.555674314498901,-3.8261407613754272 l0.5604152008891106,0.9632087498903275 0.15537738800048828,1.0413840413093567 l0.032540769316256046,12.873661518096924 m-0.8980626612901688,-9.686110615730286 l-0.45566510409116745,1.7433728277683258 -2.2461099922657013,3.218216598033905 l-3.173726797103882,3.3825117349624634 -3.0926913022994995,2.4199388921260834 m11.419950723648071,-9.497981667518616 l2.939200699329376,1.5846388041973114 2.2998157143592834,2.01412633061409 m3.729534149169922,-6.36588454246521 l2.9156845808029175,0.22991305217146873 12.336761951446533,-1.8889585137367249 l2.9582679271698,-0.10462104342877865 m-9.808140397071838,-3.0253207683563232 l0.5850436165928841,0.9997540712356567 0.13098733499646187,1.0048386454582214 l0.03253828501328826,12.938965559005737 m-1.0480576008558273,-10.174230337142944 l-0.4228934273123741,1.6070427000522614 -2.4167609214782715,3.105720579624176 l-2.9566791653633118,2.7370887994766235 -2.4431371688842773,1.6097438335418701 m10.062369108200073,-8.943763375282288 l5.521528124809265,5.7611387968063354 4.1242241859436035,3.1872326135635376 m-24.731361865997314,0.5726500228047371 l-0.0325531791895628,0.6638544797897339 -0.5494515970349312,0.988631546497345 l-2.2230705618858337,2.662409245967865 m-8.06921660900116,1.0741159319877625 l0.7081855833530426,1.0601333528757095 0.49010515213012695,2.0532140135765076 l1.4244350790977478,9.831339120864868 m-1.4185957610607147,-12.213143110275269 l20.951616764068604,-1.905403882265091 3.2433217763900757,-0.169578455388546 l1.3455049693584442,0.249263234436512 0.7035777717828751,0.8043158054351807 l0.08675551973283291,0.6756126135587692 -1.860000342130661,10.393819808959961 m-12.528387308120728,-10.453881025314331 l0.5140383541584015,1.7376527190208435 -0.058566927909851074,8.16804826259613 m-11.226736307144165,-4.230364263057709 l23.723344802856445,-1.7507414519786835 m-22.799224853515625,7.606521248817444 l21.619603633880615,-1.8026795983314514 m-16.98247194290161,3.1295543909072876 l-0.12050039134919643,1.3480472564697266 -1.218072846531868,2.0948438346385956 l-1.997283697128296,2.57787823677063 -2.459026575088501,2.5658023357391357 l-5.472906827926636,4.402286410331726 -5.84852933883667,3.4511536359786987 m23.246665000915527,-16.74858331680298 l0.7166069000959396,1.3480472564697266 0.26450948789715767,10.512036085128784 l0.5718555301427841,1.4154179394245148 1.1483189463615417,0.9808457642793655 l1.9149769842624664,0.6152332946658134 4.074013531208038,0.37073682993650436 l5.863783359527588,-0.0038531527388840914 4.388621747493744,-0.34233473241329193 l2.044951468706131,-0.48486165702342987 1.2126705795526505,-0.6830805540084839 l0.5928293615579605,-0.883762314915657 0.19384436309337616,-1.4945465326309204 m-12.335172891616821,-10.087791681289673 l-0.08965532295405865,1.0277192294597626 -0.6517786532640457,1.0722092539072037 l-4.250066876411438,5.26729941368103 -0.2988775447010994,0.6711635738611221 l0.23325476795434952,0.5294311046600342 0.6641722470521927,0.09422348812222481 l10.348058938980103,-2.7462252974510193 m-1.288939118385315,-3.8337677717208862 l2.0047517120838165,2.9994210600852966 1.1450617015361786,2.7342286705970764 " fill="none" stroke="black" stroke-width="1" /></svg>