<?xml version="1.0" encoding="utf-8" ?>
<svg baseProfile="full" height="104.56236073725992" version="1.1" width="102.87899718327895" xmlns="http://www.w3.org/2000/svg" xmlns:ev="http://www.w3.org/2001/xml-events" xmlns:xlink="http://www.w3.org/1999/xlink"><defs /><rect fill="white" height="104.56236073725992" width="102.87899718327895" x="0" y="0" /><path d="M25,25 m0.0,0.0 m13.769433851059375,12.435513421772736 l0.36456376452744527,0.14452708835513695 3.393505906336152,0.030730091654922593 l9.608886196281665,-1.339535183229833 1.5471429481976977,0.1679194678522649 m-8.22209482226508,6.846745979721585 l-0.1132941045645076,1.74641812616938 -0.6663223135627705,1.8829758858237022 l-4.97238169738012,7.882376781757717 -3.867191313557897,4.06050449374479 m7.730838089232966,-8.406240120488473 l1.5498703972544998,-0.19044804316637562 5.9534793557147925,-1.4545652849023616 l0.8081877032748231,0.200625551707043 0.30547875362791277,0.4148119186866406 l0.10675071565695891,1.2536034243974175 -2.993891334262361,3.8218685352237958 l-4.6439311122022,5.211237351128034 -2.9817274816874466,5.028749465804563 l-3.765284030165875,6.307153326052151 -1.9231459210379258,3.0682821768942503 l-1.891564407148975,2.88783829635074 -1.9870987119120094,2.561267985950103 m4.637189502373326,-23.074215153750615 l1.219350266421503,0.9692610870887097 1.5774767425815253,1.8068440279129876 l1.2661891873293518,1.876945536705914 0.5152245363190786,1.2530947350329562 m16.918250968107476,-28.732887827224094 l-0.06373841603971629,2.8914524255810075 -1.0029172483271491,3.719937810456879 l-1.3982078373629074,3.3460494830492093 -1.8626900358705567,2.9580610604151336 m3.925496022856304,-6.075594698229053 l1.9295407109066969,0.20266869223349626 11.327537908617758,-1.6366088410504032 l1.9188232347832086,0.024673022005112445 m-18.387428060248972,8.975332174852989 l1.7700242647595192,0.16029088715708942 13.465835458224499,-1.4702093715303615 l2.406853167395261,0.1270849505079441 m-21.445075161357412,7.323638346591892 l0.5934757169562818,1.6226291106294388 1.1247517278593053,10.911031511680674 m-0.7909098686496003,-11.611100005944394 l12.795419534964546,-1.6755911161965864 5.254141617264909,-0.43213866841435666 l1.1151054050619775,0.7192970316353561 0.3106994454257413,1.1542107248708298 l-0.501693874704386,10.383144255003929 -0.2838304290259393,1.3721784784490358 l-0.3946044193871948,0.5068041252872709 -0.5062869197809876,-0.029592035792967486 l-0.5434626041923576,-0.4060557160394732 -1.0264029515390787,-1.5660934428080286 m-6.610183552022623,-20.671758244679047 l0.8236386958618075,0.7864663519528771 0.28102659372180483,0.9647264638356797 l-0.10165024442261592,30.043702977305273 m-6.689914472515897,-35.18901342358543 l0.04320399924504525,0.9833947194088645 -0.2732007894769592,1.088944682429751 l-2.5189562382767616,6.174469864491422 -3.037909417926575,4.744211101863947 l-3.7033087060843783,4.195200124906671 -2.2054928910459957,1.7601259370404676 m13.232411187583574,-10.502447468822506 l8.75801204060048,1.02884121904307 8.336913529321265,4.282763710353885 l3.5700594255776608,2.056055152071481 " fill="none" stroke="black" stroke-width="1" /></svg>