<?xml version="1.0" encoding="utf-8" ?>
<svg baseProfile="full" height="96.18565484542276" version="1.1" width="110.4288816400963" xmlns="http://www.w3.org/2000/svg" xmlns:ev="http://www.w3.org/2001/xml-events" xmlns:xlink="http://www.w3.org/1999/xlink"><defs /><rect fill="white" height="96.18565484542276" width="110.4288816400963" x="0" y="0" /><path d="M25,25 m0.0,0.0 m14.124233050196237,10.783711729918425 l0.44450675265121214,0.1519165272218229 2.395454980362409,0.0029985524973108403 l10.819575178191434,-1.4281718000891201 1.798992956253858,0.14240842023740888 m-16.401564692255096,8.130707060804001 l2.596235258206692,0.13841011878969522 12.088030668376328,-1.8149843532345136 l2.4509171563940644,0.06024376306881193 m-19.812815693097683,8.646070874172915 l1.3624499937384271,0.24117282365166215 1.0143150522740314,-0.15239492690493261 l16.885119883437458,-2.7551045997678267 1.610327161023936,0.13164827019011446 m-10.243901179326249,-20.34075999592757 l0.7210787031219881,0.74730072532122 0.4267732368322581,1.1052669797501011 l0.0861430146214458,39.330058121641166 -0.10529194738015954,2.021015125181237 l-0.38213586355978163,0.9072000203630733 -0.5473257597299758,0.13694140853775896 l-0.6342194623440535,-0.35117864133802124 -1.6305586128182072,-1.843965419073484 m2.999610565336571,-19.30885098818421 l-2.3619628400861155,4.659785198545143 -3.3373299426736884,5.1030011375765 l-3.3520332893232583,4.0107515636642335 -3.2836165233304127,2.8436851960231113 m14.606922736484687,-13.913627658731125 l2.8997065862882234,2.8708481654260454 2.566259919615115,3.6428850889660804 m10.98989374630309,-30.648643533512445 l-0.05452189976682732,1.8146930818813423 -0.6479316294641676,2.0172738397650463 l-2.3654329125775875,8.597677966462795 -2.4937567985666123,6.395007714055074 m3.391824647877796,-6.059913104659493 l0.5225512065784801,7.084803948637678 -0.22471198310059787,21.36897920242656 m12.209200301098674,-42.350515270351735 l-0.11472974070940523,1.5139414583358104 -0.8053571284786811,2.351639211771199 l-2.675490026634665,5.511298271605316 m-9.434578162491093,1.7768372715015817 l19.667482201720745,-2.3017876106513104 m-9.443155591362514,2.4644274559113812 l0.37245010085808117,1.00402253206755 -0.12646032889935427,25.67192155968062 m-9.72654431209437,-18.394902910289687 l18.021243400057298,-1.80039305491697 m-18.149264284225705,10.606747975973791 l18.88657961733653,-1.626804174315666 m-18.713927800625786,11.277901971265974 l21.539621969781283,-1.7019546631959397 " fill="none" stroke="black" stroke-width="1" /></svg>