<?xml version="1.0" encoding="utf-8" ?>
<svg baseProfile="full" height="97.35806142113583" version="1.1" width="111.56500472632828" xmlns="http://www.w3.org/2000/svg" xmlns:ev="http://www.w3.org/2001/xml-events" xmlns:xlink="http://www.w3.org/1999/xlink"><defs /><rect fill="white" height="97.35806142113583" width="111.56500472632828" x="0" y="0" /><path d="M25,25 m0.0,0.0 m18.362198701423534,4.505861376831059 l0.042085234719065494,0.3788650938987914 -0.15528660578922204,0.8494808108052583 l-0.6495522307796362,1.2253262443603543 -2.6523775133211114,3.403440372386773 l-3.283494874629392,3.146934618878999 -3.9932525353151953,2.8747943179495214 m9.669371774689806,-8.006802335964647 l10.098486828782379,-1.2837480413169902 0.7636602637928525,0.11645739762203222 l0.4116431381862099,0.4114256861990094 0.03177854919764295,0.5721039274392714 l-0.7374361896312289,0.9155130035537409 -7.564663138006417,7.969118495960206 m-10.101111334658707,0.8359369959336496 l0.5887227530882585,1.3616635023069015 0.54924168429976,2.8461045482924243 l1.2917816116444503,10.900020446677427 m-1.4651702861207863,-14.254269920732682 l18.25942712900726,-1.9612098011596892 0.8962771376649525,0.01683652899215389 l0.6535688040742306,0.2796237479110723 0.4557605103971804,0.9537036380104269 l-0.17952608261227176,1.3277599338593906 -2.358083376394669,12.627116926227947 m-8.903823420535879,-13.856870349486833 l0.6084554332103583,0.6880186171488892 0.42484178219934954,1.519336555047174 l0.017196405809565142,10.428968831120384 m-8.734992355400966,-5.609048970654432 l13.482112135426002,-1.3958932220251548 m-13.132910372365671,7.833224416055565 l16.526963731875018,-1.383677545589483 m-19.021674572134373,8.59644370762223 l-0.5481207753388023,3.7006822324593656 -1.312663284474715,3.986511718278145 m7.16688581757067,-8.73061816609385 l0.9702155736310156,2.6257973793190903 0.716196818245577,3.7638262852522013 m4.374622648017337,-7.19471760258003 l1.643983469882429,2.9987349165244845 0.8911025518095766,2.9068311946450924 m3.4925199404137386,-6.95905182878692 l2.1956416553646845,2.591191954664893 1.507074281702579,2.9919778087466784 m5.271935151838392,-31.643275726122184 l0.6650223856326178,1.0696295680756795 2.363090081254482,11.933362554622464 m-1.8956724080307985,-12.30489720179087 l21.506965115538346,-2.165016017315292 1.8093187934779043,0.1458958737962018 l0.5466681880008825,0.8018431661217431 -0.03963197073973367,0.747547765560179 l-2.5734251526761454,11.32546386320358 m-20.227138090600103,-5.656343891883655 l15.274808281751708,-1.3056763382472785 m-13.906071852224759,7.20647296365253 l18.645725990956592,-1.2287861382214804 m-20.226879128537977,7.967934580584487 l0.3953187357614346,1.120088696371182 -0.05683945840085404,17.830092256138663 m0.42486449348740934,-18.376830425958413 l17.485601462656298,-1.5239030368294422 0.7917427174132522,0.04015937246062282 l1.0208117706708135,0.47997726271048996 0.3941416520174107,0.8428689545361875 l-0.4887241309719097,17.369764445221797 m-18.96009679507729,-9.996385192570118 l12.214599624172347,-0.6725001244230211 m-12.023785695550226,9.257064169955585 l18.331980640091942,-0.9996025405487264 " fill="none" stroke="black" stroke-width="1" /></svg>