<?xml version="1.0" encoding="utf-8" ?>
<svg baseProfile="full" height="95.60223363359334" version="1.1" width="91.39440669538939" xmlns="http://www.w3.org/2000/svg" xmlns:ev="http://www.w3.org/2001/xml-events" xmlns:xlink="http://www.w3.org/1999/xlink"><defs /><rect fill="white" height="95.60223363359334" width="91.39440669538939" x="0" y="0" /><path d="M25,25 m0.0,0.0 m10.310109618308749,4.9052576101239005 l0.03055006495363796,0.4333437045271055 -0.13913331090254613,2.180045820911787 l-1.327979882699314,4.78946006915473 -1.8032592674640409,4.099007866690965 l-2.0434574537392844,3.558621758066343 m4.7265931878110665,-7.189559366896865 l1.2531803498651908,0.08708470790295582 7.208624636234085,-1.4735315893653724 l1.389561556107493,0.09000053458632906 m-14.640948682008638,11.4441722913568 l2.4144524212832725,0.18364291901230645 11.906182618151437,-1.9118502059938431 l1.5001600667006298,-0.09768379073495483 m-7.315308443935269,-7.432436316880053 l0.21644225694901645,0.6763557110576992 0.11862116984632334,0.8974718329218027 l-0.1971853945810588,12.76370877344469 -0.6224873322677175,3.6997265719159222 l-0.9827525735369527,3.265709377455051 -1.3530263757582657,2.7884705470572406 l-1.665042812032319,2.3837852243283995 -2.5068327391314758,2.4292608537395908 m8.728044695438307,-12.291035562871789 l1.8889068472945472,1.4268669074850797 1.798816499275721,1.7086794640123322 l1.4618872498331914,1.8436351953021315 0.7545052500994276,1.7149961671648002 m3.1611144013425676,-30.90868277970695 l2.3984980860908425,1.2636492021902106 1.2679983978413292,1.0100276341305032 l0.5763691691971075,0.8359189207519977 m-5.126348806496202,5.986028161107022 l2.766682890573259,1.4838585495367587 1.303262560791072,1.1943761565106257 l0.5707353727467912,0.7841971088604364 m-4.931568741546724,10.242604111588681 l0.8630188929218192,0.3407013341409002 1.1067606309745288,-0.1857583850222322 l11.86589845035476,-3.9259876682668495 2.8104709850501597,-0.6312850932232967 l1.652290185452877,0.022507450144240094 m-7.209283250921281,-23.870804442241944 l0.4869002799492234,0.8103776284551687 0.2616118385622347,1.1959170493060851 l-0.09181503337842412,42.98138161985691 " fill="none" stroke="black" stroke-width="1" /></svg>