<?xml version="1.0" encoding="utf-8" ?>
<svg baseProfile="full" height="123.91191755145613" version="1.1" width="102.1679948511763" xmlns="http://www.w3.org/2000/svg" xmlns:ev="http://www.w3.org/2001/xml-events" xmlns:xlink="http://www.w3.org/1999/xlink"><defs /><rect fill="white" height="123.91191755145613" width="102.1679948511763" x="0" y="0" /><path d="M30.10220170121264,25 m0.0,0.0 m16.632192501609477,4.610999719611259 l-0.012201020235825338,0.5548090961883106 -2.4343227817355695,1.3513913871756433 l-4.689494897103088,1.9474311147074674 -5.059863522509805,1.5924804551833218 l-5.405438199888943,1.3816054522103345 m-2.0183685438794985,5.165977951065455 l3.439777331276125,0.2779130381827563 16.10905391306031,-2.0373814898916622 l2.794833041844623,-0.041526787646674765 m-9.156957445680986,-5.664506915711987 l0.7106789486207974,1.7839547650847756 -0.06451211694673044,20.780282635569336 m-0.7135802594207076,-15.46140409068671 l-0.8935311290907412,1.8854962162582893 -3.9645054112042026,2.7132601696165235 l-4.888991512450365,2.6246605545796635 -5.486970597477514,2.071221136205595 m18.43952349461758,-6.908267489086552 l2.7029274865437114,1.5164385373620617 2.762874610718822,2.561065750127545 m10.707446314446623,-14.090124891601338 l0.5407869399286169,0.8521247186374633 0.07760301667698756,0.9790736736204179 l-0.028307922113665205,14.925689065784926 0.2082083583752028,1.3906004944508366 l1.4558014486376094,0.8519832329239603 2.5224764535204014,0.24325228190572665 l5.467776544198345,0.05215132048848872 3.765776642500348,-0.20074711821431743 l1.5568307240200578,-0.3821953953520126 1.3917041946860091,-0.9873533603584326 l0.507422358354781,-1.439647954968022 0.08914418606489154,-1.8718674693401096 m-32.48218493938756,8.117936404209795 l0.17580469274213556,1.3490949742038478 -0.6542382666217731,0.9409877332585705 l-5.363092487863635,9.718469490524836 -2.9594733640391278,3.8332200604404614 m7.783574812553469,-8.44528416587895 l3.021487725973154,0.08398107740697973 17.673311873952038,-1.968653916601894 l2.107639189732992,0.0840270667761048 m-36.899429243829346,2.782842440191827 l0.795860669682097,0.428389891288644 0.601854501717234,0.33533861920012376 l1.6911995147864474,0.11544263089230984 24.073445863426095,-2.1949929896002542 l3.1754569072005543,0.25143420292988383 0.6142960627727886,0.8760319731999627 l-0.08269619592471891,0.6160701165866852 -2.3508831271172017,5.800385811368325 m-17.6261753505627,2.627152932375179 l16.0099407363396,-1.914385692646159 5.023769027651828,-0.043586627457446646 m-27.20649760184298,-0.013665944752114401 l0.506184547630685,1.1534050446181978 -0.197155262461772,1.099322064147785 l-2.7625958134305093,6.634584053712167 0.2672907664594924,0.8102710524838369 l0.7848446217127684,0.3393071800904914 29.63613685892697,-2.6316150959330353 l2.4087622078916637,0.6077404123369738 0.5504921537799538,1.1149086189656527 l-0.0529531364779671,0.7956909238946771 -1.6427055387212843,5.310297862728535 l-2.813140325768922,5.432959932981494 -3.000301418972327,4.135998578695971 l-1.4477372567868079,1.6713150692018224 -1.413608219244882,0.9747357550478634 l-1.3972580328929198,0.05392020648464915 -1.3346540449033906,-0.7035591647274003 l-2.1661433399843464,-1.964867862927451 " fill="none" stroke="black" stroke-width="1" /></svg>