<?xml version="1.0" encoding="utf-8" ?>
<svg baseProfile="full" height="109.49251492784242" version="1.1" width="107.33057599049062" xmlns="http://www.w3.org/2000/svg" xmlns:ev="http://www.w3.org/2001/xml-events" xmlns:xlink="http://www.w3.org/1999/xlink"><defs /><rect fill="white" height="109.49251492784242" width="107.33057599049062" x="0" y="0" /><path d="M25,25 m0.0,0.0 m1.3605797290802002,19.45323944091797 l0.3374749422073364,0.4027123749256134 1.119493916630745,4.771460592746735 l1.4532338082790375,10.988436937332153 m-1.4554747939109802,-14.299774169921875 l11.466512680053711,-3.055783212184906 1.8724630773067474,-0.33029548823833466 l1.1593334376811981,0.44010352343320847 0.302511490881443,1.123477891087532 l-2.168853282928467,11.558475494384766 m-11.070107221603394,2.1420446038246155 l12.068421840667725,-1.7473417520523071 m19.44174289703369,-31.446754932403564 l-0.3091410733759403,1.56868577003479 -1.5520860254764557,2.5902405381202698 l-1.9853420555591583,2.2217239439487457 -1.8306313455104828,1.452154815196991 m-3.9361563324928284,0.8293284475803375 l0.45549988746643066,1.1762652546167374 -0.05140246823430061,7.465948462486267 l-0.7577001303434372,24.002718925476074 m1.1221498996019363,-31.744225025177002 l16.230337619781494,-2.0578834414482117 1.9272425770759583,0.45146793127059937 l0.8029347658157349,1.007278859615326 0.17299117520451546,1.2446566671133041 l-1.6656392812728882,13.544647693634033 m-17.274467945098877,-7.171134948730469 l3.371761441230774,-0.13014023192226887 8.391223549842834,-1.093805581331253 m-11.835029125213623,9.051566123962402 l16.65363311767578,-1.6996896266937256 m-16.48829936981201,9.662439823150635 l24.060819149017334,-2.7151960134506226 2.3621584475040436,0.002427727886242792 m-27.813379764556885,11.803157329559326 l10.580743551254272,-1.3178619742393494 17.322938442230225,-1.6809216141700745 l1.6699448227882385,0.1546016614884138 1.1892131716012955,0.7353733479976654 l0.5926145985722542,1.2337008118629456 0.03631216939538717,0.7782009989023209 l-1.9101446866989136,6.242207884788513 -2.5167030096054077,5.6167250871658325 l-3.322625756263733,5.0868576765060425 -1.1264658719301224,1.0119268298149109 l-0.6729578971862793,0.16906946897506714 -0.7702330499887466,-0.17380042001605034 l-1.7682158946990967,-1.4375470578670502 -1.3273239135742188,-1.5203802287578583 m-29.98065710067749,-6.878977417945862 l0.14929489232599735,2.054065465927124 -0.3405044227838516,2.755574882030487 l-0.855141207575798,2.4604296684265137 -0.9119957685470581,1.4468428492546082 m11.016987562179565,-9.91210162639618 l1.5379761159420013,2.6861876249313354 1.338030844926834,4.54171895980835 m7.208318710327148,-8.430067896842957 l1.7072944343090057,2.8286144137382507 1.141405701637268,3.2216989994049072 m6.289350986480713,-8.15915822982788 l2.2396518290042877,2.5460848212242126 1.5002943575382233,2.8933537006378174 " fill="none" stroke="black" stroke-width="1" /></svg>