<?xml version="1.0" encoding="utf-8" ?>
<svg baseProfile="full" height="95.29371887749184" version="1.1" width="108.91601177748517" xmlns="http://www.w3.org/2000/svg" xmlns:ev="http://www.w3.org/2001/xml-events" xmlns:xlink="http://www.w3.org/1999/xlink"><defs /><rect fill="white" height="95.29371887749184" width="108.91601177748517" x="0" y="0" /><path d="M25,25 m0.0,0.0 m12.648650548913906,10.739390918908635 l0.4754916887866237,0.16017230074942956 2.461226828328178,0.03081985709546841 l12.432034540082848,-1.6190742384424541 2.0472515289703033,0.15740306457436 m-18.41214466138924,8.263994727573838 l2.8367084506782416,0.1952656330770586 12.88914151214223,-1.8035913670110117 l2.8210978275357057,0.041087555422610736 m-21.592664697669406,9.105021579049012 l1.4553067452122554,0.251439028308071 1.1627796291921522,-0.18425653479387927 l17.925769240857743,-2.839536463002762 1.7930117359834046,0.1473073095529528 m-10.996591682202059,-21.12884216892815 l0.7475004953764397,0.802606291455394 0.42383117704900647,1.1592291630661566 l-0.0947734750967569,41.815282220837105 m-0.5872999173998644,-21.368227545311743 l-2.783124163427634,4.338515745268974 -3.6666003138609495,4.627097690997459 l-3.7139568244786325,3.7178291973733866 -3.5234117193955816,2.60624664199861 m15.988707054676931,-12.448213369988865 l3.301083508881316,2.758763873143513 3.0243140380222266,3.5463148542561798 m12.78619724675825,-32.108933492621055 l-0.13612136890374305,0.8651406492352627 -0.5357749371514994,1.4739269527851584 l-2.1045630398043986,3.726553963638984 m-4.990733388446961,0.9162157136849783 l0.4576759942671161,0.8371298114124781 -0.012320801533849098,22.956978353716355 m0.3601480149350324,-23.14119541967678 l14.117696509566544,-1.7805114883370212 1.253377678605044,0.09811718320045822 l0.569562067918993,0.261581510105207 0.6685055627441578,1.5937361309886477 l-1.919326883331914,6.361718454253485 m-14.102737187415705,-3.5821410164331935 l15.183672509790506,0.0360944842767825 1.3891500960242422,0.12340136682899663 m-16.608103861410257,5.963986152338179 l15.58279635794074,-1.4101174954454954 2.9076975927446407,0.007867568039804911 m-17.645459670469236,7.6428801174228695 l20.54222684270185,-2.299819158704823 2.0891073461862253,0.008534603662162623 m-23.477846959069137,8.130114109454563 l20.105471647094355,-2.352616041195127 1.5732651441794059,0.05627715767821778 l0.9698239449679691,0.5083474164781008 0.3476488944539503,1.0008740654477621 l-0.07915897191565724,0.7108513041110084 -1.2449641347429756,4.9522008660861285 l-1.4068699967238423,3.4550869365932804 -1.772973133355122,2.9253238485215136 l-1.355341796352762,1.6353694097384186 -1.3871424623566844,1.0454064238437648 l-1.3227667784098567,0.18487928121006303 -1.9300503498862587,-0.5205810925413852 l-1.5024679863007655,-1.0664048800416743 m-16.442679212222316,-7.430595327736847 l0.0662914898154441,3.8046456955951746 -0.2737862060776486,1.6261346958930405 l-0.6124569029424244,1.474637557923754 m6.286389382997299,-7.2880731961010925 l1.2755947010220148,1.9966184857223908 1.1015141629916636,3.2772555375125916 m3.4700111526910273,-6.194520254732449 l1.808323363536437,2.3147180044560876 0.9913700141784606,2.173012714572954 m2.391652437689168,-5.778246356602756 l1.931462918166688,2.1520634000388155 1.2463941608714657,2.258994361507899 " fill="none" stroke="black" stroke-width="1" /></svg>