<?xml version="1.0" encoding="utf-8" ?>
<svg baseProfile="full" height="102.07460449940072" version="1.1" width="115.79142680224626" xmlns="http://www.w3.org/2000/svg" xmlns:ev="http://www.w3.org/2001/xml-events" xmlns:xlink="http://www.w3.org/1999/xlink"><defs /><rect fill="white" height="102.07460449940072" width="115.79142680224626" x="0" y="0" /><path d="M25,25 m0.0,0.0 m11.96740405859158,12.269399972525807 l0.018238576697900116,0.3762710580415644 -1.1800035884442701,2.2959204688813757 l-2.7875741017099096,2.8529768480586513 -3.400624500151411,2.46758933696946 l-3.901322873483567,2.134258099175779 m9.864417561116142,-5.7022997036379115 l12.0159111282314,-1.6168037111815974 0.8771971860153152,0.0658329291105591 l0.35291944142805554,0.37761782891837625 -0.20961155903409043,1.1306024172767422 l-5.26675884444199,5.021183435100416 -3.2502600084960944,2.777041233619065 m-11.921157918171067,0.796545206183238 l1.150097429109407,1.3935029459827837 1.318252148618349,9.785713268980587 m-0.9555725516096232,-10.648421990034453 l18.227544732694025,-1.657053986417627 1.8298921498068181,-0.0053528275566069585 l0.6504298772318632,0.1612056849405879 0.7854405233773554,0.8044438666577525 l0.040716748161194,1.080205866686364 -1.0611138449718185,5.247601156171807 l-1.5221296851290946,4.1647554125442525 m-9.22085456494551,-10.043630956926359 l0.6507843012103842,0.624219449124585 0.27381147194924277,0.9298132680335358 l0.02262499677616959,7.653094242328026 m-9.38628497812894,-4.128074030236163 l19.171760458984124,-1.3315670501700405 m-18.074913300693634,6.625794999754431 l16.4231488312985,-1.0879480639599606 m-20.0928558924414,7.185910032493324 l-0.6002670534078778,3.696059117342388 -1.3014079247841759,2.5480645296220032 m7.666848332372358,-7.105253770663205 l0.9907993871434918,2.1403076895548243 0.7263734674485604,2.943934239727342 m4.551110032648517,-5.6325336524596015 l2.1593945553290883,2.454791322379658 1.1737353948827745,2.31823073597028 m3.0821074252385765,-6.189177205139993 l2.5331468649681534,2.0038825905335576 1.5606638214150361,2.15845947597746 m6.827736002100561,-25.053509152662635 l0.671154222365366,0.7886982678386809 0.6252790427102886,2.6136679302302257 l1.6511137050988907,10.547443224216465 m-1.5386241705691166,-13.136251551494782 l9.004773323562596,-0.9951797878055187 10.350444086073711,-0.7804251245713608 l4.777346086710311,0.03377624444997547 1.0355738866222117,0.8118567646211917 l0.06284924269798565,0.5556514267606307 -2.53034392946556,7.973168587053633 l-1.7720489138670588,5.054674242876997 m-10.590932748053218,-6.496253170772673 l0.49639671781886513,-1.2812890829076586 7.915298387974192,-0.034500855872831034 l1.7730608053784886,0.06560800359379611 m-8.58537064554166,5.941912078264063 l11.834405301606,-0.9693551313612278 m-17.75524744870058,7.06059117907837 l0.7492673104180312,3.0809251797446593 0.7985478450207791,12.482676684463256 m-0.7882098776871718,-14.654637096188617 l18.940882993275892,-1.6258990888354163 0.8087132730471339,-0.00932359720403506 l1.2379947609674835,0.3454383708088642 0.6959212797564651,0.7022250621593363 l0.1958443374588939,0.8854926611345216 -1.8394793025958578,14.360246968262489 m-19.818039072817896,-14.684805311617858 l0.6122562898659907,0.7508983927739811 0.22278120263980658,0.881757457294051 l1.0633180498549848,13.522212944787086 m7.6056732306427355,-15.285098564888315 l0.541215891781059,1.0390926371015474 0.03508681256285575,12.651168154978212 m-22.619732708442267,1.1509920335758599 l4.5429002046668305,0.1814281409836717 24.676564929100614,-1.0864770893001812 l5.268876310790314,-0.11296516819388841 2.6561223747173965,0.18075883365734352 " fill="none" stroke="black" stroke-width="1" /></svg>