<?xml version="1.0" encoding="utf-8" ?>
<svg baseProfile="full" height="105.5509746923214" version="1.1" width="108.81707884759601" xmlns="http://www.w3.org/2000/svg" xmlns:ev="http://www.w3.org/2001/xml-events" xmlns:xlink="http://www.w3.org/1999/xlink"><defs /><rect fill="white" height="105.5509746923214" width="108.81707884759601" x="0" y="0" /><path d="M25,25 m0.0,0.0 m15.562850181925668,1.9281054493063776 l0.015216253272146615,0.528404862377882 -0.49904781629570766,2.3325563217966705 l-1.8739413731283423,3.9606663910926687 -2.2381159721919017,3.4362021409067403 l-2.6280575630474203,3.189247361073673 m6.776498715135015,-7.270482947296244 l9.455923156238132,-1.5301635228707926 0.641428006521201,0.06504428047409241 l0.36150986749179553,0.4223533639429562 -0.03415546106418329,1.2094165563691321 l-4.356583409222055,9.694831299237197 -2.2028363349173223,4.0545521444709465 m-9.279995678020509,0.7719146711634265 l0.7417533155606139,5.445127743267609 0.9057537163902694,12.622121704548537 m-1.0951224267863677,-17.135192718812363 l14.941014263907647,-2.1364709237066033 0.7993022481518652,0.01624062150562618 l0.5627570750917962,0.30284783428505174 0.41505449006195083,1.067339952323844 l-0.8661576786197625,1.4898394958083483 -2.346900399667453,12.39730384556853 m-7.250458545507452,-14.567536427283342 l0.5264349598845353,0.7564957128921835 0.377261106388784,1.7389951675819875 l0.020742759532869404,12.008113524095444 m-6.814691762096617,-6.590284663064017 l10.862155572758214,-1.697726194753199 m-10.597499121138922,9.544437487330315 l13.257120029025327,-1.576247404770152 m-15.752921270376104,9.775982723546091 l-0.4811388102926398,4.491356590257118 -1.1502272923766348,4.805582249655664 m5.981996172136933,-10.793153718758756 l1.2458312590076457,3.162989078792458 0.9266187090755847,4.817180377081956 m3.5252299009089763,-8.651933402462948 l1.8672942249533222,3.197364806506105 1.0899538425816357,3.256417370707667 m2.39790344120832,-7.760335349717867 l1.9989504637562727,2.7843466326515047 1.4040421526222957,3.3449167354853127 m10.343180753868753,-44.65438543529971 l-0.2220577996114199,1.1342220347951977 -2.309651455868298,2.898276725943798 l-2.1628629004156283,2.061755543497607 -2.1741391015104283,1.4561611379200623 m-1.3050094965171826,-0.2962665154616963 l0.5852742143729663,1.7940512774612127 1.6494516901410063,14.977788818297118 l7.626965313122295,-8.570550507470603 2.670409241347035,-2.1018490810640533 m-3.482769795700114,-4.45524848054123 l1.435182323709835,1.5654353583634872 1.28259068355323,2.007585166756388 l1.0413976841279189,3.6850146455699138 m2.278800281782874,-14.020928651921604 l1.799651803178818,0.1136323294862373 11.084329692291856,-1.9217821891312163 l0.616069914661725,0.08335637788938956 0.708290989588943,0.900723346543508 l0.1592298426323912,1.7168526332232463 -0.8046897450076886,4.773842688421092 l-1.3975374250129928,5.336648939927276 -1.4315175359896306,4.051522896490434 l-0.5531522485735682,1.4868416061435323 -1.1717457806129765,2.124231842281016 l-0.510887242903347,0.5590027948630258 -0.5180205331400638,0.17726127620583426 l-0.5025727512344849,-0.13711289162783574 -1.0313111077967025,-1.1237341396696618 m-1.1245729920245975,-15.895414587632956 l-0.05494761942853838,1.6557806536824817 -0.716504381216197,2.96882858079163 l-1.9796796056131842,5.900707716541152 -2.6086516167961897,4.516872989735954 l-3.541007810093349,4.17909092956668 m-7.77811869401083,5.663448012968014 l0.527144331531158,1.7632854044604211 0.924999713508692,6.667404687174519 l1.2984222726201404,13.338181048945465 m-2.2198494502911967,-20.7761987678437 l20.42103885578267,-2.640246188549239 1.267797136747864,0.14179888817474126 l0.4338335345440335,0.33421943402029175 0.4491128874364199,1.2460625489176995 l-0.07885436075087608,2.6311841084935548 -1.8766735853668184,16.63056258250945 m-10.01769498194454,-18.569857150000825 l0.3783159320424648,0.787410511598194 0.15094230767501557,1.2009151100703008 l0.09991297887088128,15.246266807436015 m-9.542748516211953,-8.766832278916818 l14.865273746115,-1.2375440298919318 m-14.116127265023419,11.245998926646447 l9.817903153680522,-0.7646232522080233 8.621244023913798,-0.4024137364830495 " fill="none" stroke="black" stroke-width="1" /></svg>