<?xml version="1.0" encoding="utf-8" ?>
<svg baseProfile="full" height="105.25284756924475" version="1.1" width="108.86347828767154" xmlns="http://www.w3.org/2000/svg" xmlns:ev="http://www.w3.org/2001/xml-events" xmlns:xlink="http://www.w3.org/1999/xlink"><defs /><rect fill="white" height="105.25284756924475" width="108.86347828767154" x="0" y="0" /><path d="M25,25 m0.0,0.0 m19.83647386818823,3.5943748932548685 l0.03915851309423629,0.3964909926430281 -0.15046268040658528,0.9155909106044204 l-0.6099509055525171,1.3901062314559727 -2.3810848115943952,3.681872678910704 l-2.989730699687078,3.3481323684677475 -3.580643616618935,3.054337979697923 m8.598593941278839,-8.683220222035143 l9.128354117148518,-1.3005947322479228 0.6864849601833151,0.10819507684459252 l0.40545779195073867,0.41680119760420636 0.09720979509820149,0.5864576793116183 l-0.6676827672525992,1.2921766879818215 -6.5443614098083325,8.961004896552978 m-9.781702463340851,0.8321525834689036 l0.5821785975011798,1.512844746956084 0.5133872608345807,3.0565402090098304 l1.152112932025375,11.643351139622563 m-1.3770774044776664,-15.313553864077726 l16.89521105342966,-2.168121405215512 0.8252590050398246,0.014310477326437667 l0.607892489921617,0.3004310118847747 0.4178416758468129,1.023513427014826 l-0.16772748979940205,1.4345555972817343 -2.1514469279593023,13.624300169086272 m-8.17878394207411,-15.031638134051292 l0.5607203109001468,0.7438882568868439 0.4007210415061566,1.6511091085123835 l0.01792988695100125,11.354175436131987 m-7.974451028793155,-6.130164705024078 l12.40440289666582,-1.550131805833494 m-12.065468223154776,8.65047902259491 l15.15130904215308,-1.5488088243388909 m-17.424653691574335,8.54999865681914 l-0.47635606005207615,3.8603043341845416 -1.144855017470691,4.225460732043127 m6.532870115950824,-8.794310657851415 l1.3660297226396179,2.8166701705345503 1.007376917321708,4.322475624729604 m3.491901112407615,-8.0785045984559 l2.066496429741526,3.228894301646042 1.1261143628102381,3.1029279914114696 m2.3754810853121087,-7.6968636787441564 l2.381555166296395,2.9297779738867837 1.55817167573338,3.414999853504339 m5.028590867918916,-39.90802173948456 l0.6556123752206923,1.8481977140938533 1.6393172104599556,21.989716264956137 m-1.2621530166156039,-22.14167010538147 l18.13869964458782,-1.8770646297534346 0.7510927615033942,0.1555477644247068 l0.49053990363532035,0.4160929062586412 0.5426117199559165,1.2885136691429588 l-1.8423604563502574,18.572750342469494 m-17.889531082833237,-9.355232505005215 l18.911172662537506,-1.7953913333993612 m-17.94543822008417,10.868636224993677 l16.83831916248339,-1.5146572683658328 m-14.402589358676007,14.687761229901236 l6.708905171856941,-0.7744750106534027 7.971146328356046,-0.7821404160501056 m-11.926174068252587,-18.25476436738166 l0.6233945038997997,0.853344378562077 0.35941761650589243,1.4751067632029782 l0.027365912089112245,33.931315702704275 m-9.994581848279504,1.4620215509106662 l1.8928255186525869,0.36447064310759986 16.29427936471055,-1.5759247821159297 l3.434839756823701,-0.10526135465569701 1.2579192292514167,0.25089681332626074 " fill="none" stroke="black" stroke-width="1" /></svg>