<?xml version="1.0" encoding="utf-8" ?>
<svg baseProfile="full" height="95.35587768714855" version="1.1" width="83.45779287737821" xmlns="http://www.w3.org/2000/svg" xmlns:ev="http://www.w3.org/2001/xml-events" xmlns:xlink="http://www.w3.org/1999/xlink"><defs /><rect fill="white" height="95.35587768714855" width="83.45779287737821" x="0" y="0" /><path d="M25,25 m0.0,0.0 m22.610018252480426,1.8784836209550537 l0.020982136924954427,0.41945631694695357 -0.3198515428006331,1.5607120240314871 l-1.3737392553504368,2.4685751838401355 -1.8300884412529501,2.543393290855592 l-2.1769915516655867,2.214992816459231 m-4.308022519278177,0.9249652141863047 l0.5165399554819522,1.038892344989877 0.2543664340250087,31.109551031255116 l0.3276341664140137,1.1968558436287953 m0.3063006146884073,-31.20648782485035 l16.70588921100663,-2.6686485534698727 1.2762910393098006,0.07728009600155984 l0.49432176638069303,0.2598735721358757 0.6055415010170242,0.4535779965689572 l0.3005493084228992,1.1385101584698094 0.048051801574174866,1.4595220230996133 l-1.0438143284757766,27.790072010149185 m-18.59701497088204,-22.512826684695074 l2.2112636193751563,-1.8281568331197853 m-6.910928471962464,-1.4743860698490456 m8.669150908243179,-1.8371687498867397 m-6.914537725900807,7.981668406423045 l13.172696936520707,-1.5507237108512808 m-12.80072657280724,11.121888296612653 l10.061529719496406,-2.2664761526490085 6.0086592397575815,-1.089727584419794 m-13.99284638941971,5.824776857664487 l0.246936373001038,1.2504306462226802 -0.47106041055501646,1.6547942383189407 l-3.2423381413845163,3.459543809580215 -4.522584896392724,3.8472571578817987 m18.692307308320235,-11.594444233977065 l1.8514336265080489,2.102539012432333 2.2168954517335857,3.0649610233929616 l1.9837144261927198,3.332478958707055 1.0633176297927138,2.429207275303874 " fill="none" stroke="black" stroke-width="1" /></svg>