<?xml version="1.0" encoding="utf-8" ?>
<svg baseProfile="full" height="98.35977601504817" version="1.1" width="105.00851121505471" xmlns="http://www.w3.org/2000/svg" xmlns:ev="http://www.w3.org/2001/xml-events" xmlns:xlink="http://www.w3.org/1999/xlink"><defs /><rect fill="white" height="98.35977601504817" width="105.00851121505471" x="0" y="0" /><path d="M29.497702080952756,25 m0.0,0.0 m11.638908785104402,3.5858717117507677 l0.017866380045016356,0.5201794917177599 -0.2522101311753471,1.1398348174858581 l-1.1293258470421048,1.6927172570994755 -4.492666704780188,5.38693248331958 l-4.994837349137844,4.365112144878784 -5.285437213966688,3.681561522051076 m18.052030870046192,-14.290773402535638 l2.5721060010796992,1.0803977099433213 3.0848678241771563,1.7556237616498829 l2.360884786729548,1.6185911594939606 1.2478781762954287,1.5392998905241222 m-12.27669336993012,1.9199651363923016 l2.4910873384358654,1.6230686579539726 1.697958522245685,2.066951223686113 m-10.778061654524015,4.141190207183569 l15.31018416280079,-1.9863573598892676 1.0696992876546945,0.036012690821267436 l0.6806941744806868,0.34056004228823966 0.34918744696261983,1.1464413887514553 l-2.240768122148258,11.831510377262813 m-14.716295051995445,-5.741949506005871 l10.006930213163999,-1.043845354926641 m-9.807336470632197,7.1310645859026165 l14.05243735566159,-1.463109818244959 m-15.486302170807557,-11.736408087012368 l0.7400879388910484,0.8431494023007285 0.34487866213462764,1.0528183148989303 l0.07382114882836424,21.23747028901893 -0.31345062604333407,3.5223998490436714 l14.717973252126628,0.32562383774241727 1.3358669194349382,-0.18005846675648537 m-3.1958681957759003,-6.719549034665354 l2.939935174863065,1.630416337211208 2.0024440224099402,1.831898526887178 m7.818960189980668,-30.396289112136465 l1.8813080618204527,0.19784330269188746 2.4048845739968248,-0.09767953281048454 l15.048047200054414,-1.2331288092437143 1.0380955883806202,0.6246567506514358 l0.179917554324518,0.5341172726895191 -1.9439797159299383,3.2349097322376728 m-16.30859735540085,1.670074293492671 l2.7908621811234338,0.12670008707983677 11.808616843113159,-0.9083318073666303 m-15.981643680810874,0.7209760592772175 l0.20727147604003754,0.7087292466540719 -0.19685617135264571,0.8798270141824877 l-2.662811029187753,5.752637864645106 0.0138574562511924,0.7997270410635343 l0.4757372673900229,0.4915649660760618 21.260976071238726,-1.602160737003862 l0.8576870874569611,0.8831262572788939 -0.20489679551724094,3.114535552593787 l-1.4831022679152983,5.888662913978657 -1.7943171941249847,5.319400229944088 l-2.125857046464642,4.900193124382724 -1.466420955293632,2.056838049759933 l-0.685544580291918,0.5140371357668212 -0.6877824330788126,0.27718040987712683 l-0.6745977083056512,0.01701692206238543 -1.3243197747573894,-0.1963012758262402 l-1.9265153748274666,-1.4619774575697249 m-7.124570931114969,-17.52099412671689 l3.083984584549931,1.6049307618974642 2.039678157172768,1.9672820203058383 m-8.338289414805008,7.223045816728956 l1.205583019699416,0.39045336433937206 1.3778970601274156,-0.21073376807777364 l9.404711067024834,-5.145484706603397 " fill="none" stroke="black" stroke-width="1" /></svg>