<?xml version="1.0" encoding="utf-8" ?>
<svg baseProfile="full" height="105.97983004540873" version="1.1" width="109.76794735643159" xmlns="http://www.w3.org/2000/svg" xmlns:ev="http://www.w3.org/2001/xml-events" xmlns:xlink="http://www.w3.org/1999/xlink"><defs /><rect fill="white" height="105.97983004540873" width="109.76794735643159" x="0" y="0" /><path d="M25,25 m0.0,0.0 m25.436998950285606,4.9031736604132945 l-0.11206219824263212,0.5979463645978944 -2.3269827923838795,1.316285145434249 l-4.592798638044754,1.4436480332479484 -5.558064574557378,1.2754198578666043 l-5.5996073641225586,0.9900495542369194 m-0.19255112046230644,2.719329972641152 l-0.20594207256063868,1.565782713108026 -1.1008405030144026,2.1926572997418643 l-1.9535203114490018,2.669973063403729 -2.1739016433689904,2.334591981668047 m12.069893776943763,-10.522997829115507 l1.3967691053569753,1.0643465146955458 1.9047208356999947,2.089050701902555 l1.7907660523878877,3.0847830393519184 m4.991679590323504,-7.312927787477067 l1.4530394120105365,1.0144906310328137 2.0365867659810455,1.919049933150001 l1.681160086582681,2.060528006001633 0.6745453019388296,1.2887904903237049 m-17.25291795896776,2.083132952731576 l0.1651994860584666,1.10970878895107 -0.2517656720314627,0.5476131155227887 l-5.295565720166826,6.423555886124889 0.2544650728585783,0.7212087623023076 l3.120993097090448,0.6505941955096909 2.2194655423351572,1.0629663811190764 m8.363350139257097,-8.810448410324975 l-0.12148679905693371,1.1277953278875736 -0.4333186316929545,0.6630410947898976 l-13.452389900727534,13.19185500765481 -0.3421955076259184,0.7077550387260336 l0.7348184721008622,0.08766239644514869 17.461092580840827,-4.078776921672013 m-3.1568495335294213,-3.3662411772492766 l1.668336341938838,1.4471042329992883 1.7229714810230068,2.0537823485468256 l1.3751580248424684,2.1471149004726544 0.545969663215643,1.355004271424205 m-25.68741375183186,7.79265703588013 l2.8212144720959085,0.3569926354918933 16.479092367536037,-1.8131523859877665 l3.884804707206018,-0.24622740257280054 2.255266884024353,0.15276237668057718 m-11.973202684040881,-4.844430733183436 l0.02893967773221231,2.972862910003589 -0.5211628357751424,3.7196646103327105 l-0.81215023168691,2.6658833966830877 -1.1834730230840802,2.4375386449887424 l-1.5811764256783924,2.2055016469757533 -1.9817562335508527,1.945670336347149 l-2.4352782133716424,1.7085400237597137 -2.1249871259960917,1.1071674118224812 m10.372737594317757,-10.595487834543595 l2.449718077676403,1.1391950364178112 3.0226488676343344,2.0285860148464674 l2.4987990004068434,2.254796536187158 1.6792378998401858,2.0636155689090567 m18.82642101481699,-49.96377773063867 l-0.27961049655221026,1.4347250711027095 -1.1093848148322714,1.945642376172153 l-1.7920812264112567,2.1015325574245662 -1.6803917802567243,1.3773111152050777 m-3.774215678242107,1.19750864561562 l0.41241278717270474,1.053364871561313 -0.11057724390439533,25.285143427780596 m0.3935895191867471,-25.532052845964824 l13.884282418136761,-1.5263788345222506 1.2382159087390794,0.11316071642653151 l0.560175061200648,0.28485552319789226 0.7069806437374868,0.9126312350248603 l0.14432959981049706,1.1125577733730796 -0.367506713684275,6.082947990186144 l-0.7112316183734703,5.445970130691696 m-15.435467251799182,-6.434783581699801 l15.903818496562527,-1.553526511003247 0.9095467685325421,0.07040124353126152 m-16.87722250398063,7.845029247428563 l15.857011486579566,-1.7312423284652696 m-15.724402883530354,8.537973650768679 l22.398399430076264,-2.7990231287167493 2.257778572925595,-0.0047541023816237045 m-25.201329321714343,9.399595371331257 l9.20974989563847,-1.1642084019645749 12.465764629642159,-1.1999488683659676 l1.6493461267987388,0.07782983150823945 1.041199631250443,0.611815925155339 l0.3819231551341634,1.2274035149058233 -0.08146443915387092,0.8641764863115682 l-1.2462768762974574,5.676516178057618 -1.5537722188543326,5.3073418337741245 l-1.8415056391775908,4.570508493263715 -0.7264129468853925,1.1593788938206795 l-0.7394777835187333,0.605608310051467 -0.7178297068386321,0.15566727610096448 l-1.317954332804862,-0.5701760405702488 -1.4412623707173955,-1.389541620277446 m-18.43093086087965,-9.780139508422115 l-0.7520717190134458,5.174107342998397 -1.0714969857557137,3.1764007961067744 m6.884778595974655,-8.905067734616866 l1.0195384693539948,2.568063319447614 0.7431149370321214,3.6444631356943704 m4.374629567998154,-7.4387632724079795 l2.1011720924796906,2.994728292670149 1.1067372717987622,2.7279007289494155 m3.2713762671823736,-7.091726735363234 l1.8719965325116985,2.3649641498465614 1.274736845754975,2.742593569669538 " fill="none" stroke="black" stroke-width="1" /></svg>