<?xml version="1.0" encoding="utf-8" ?>
<svg baseProfile="full" height="107.51074162384593" version="1.1" width="92.11546785971318" xmlns="http://www.w3.org/2000/svg" xmlns:ev="http://www.w3.org/2001/xml-events" xmlns:xlink="http://www.w3.org/1999/xlink"><defs /><rect fill="white" height="107.51074162384593" width="92.11546785971318" x="0" y="0" /><path d="M25.461061552310717,25 m0.0,0.0 m22.439825950311118,5.235906372500477 l0.024331930451342264,0.3693631904836627 -0.4255870210301162,0.6583797883826448 l-1.15422230881243,0.7550152373685838 -4.453164448209809,2.0137782654185425 l-6.4567926225216405,2.0250465432969778 -6.9530834245011075,1.7611518440496672 m-0.2546668808122267,2.8991087748507387 l2.351170209773734,2.7487591755900067 1.3934486322491242,2.9327434663998084 m10.953747854693075,-8.697665614277398 l-0.022960830594073625,0.8735288626757761 -0.9436708370351748,2.657183496012309 l-1.2033206652070645,2.2883664872462535 -1.3774239554680725,2.0150444597078176 m-14.378693135597404,4.2445043298865945 l1.753400478826054,0.20169278379733424 14.919795268671297,-2.39146051720576 l1.5113292617595324,-0.013808307102120346 m-8.984116051450222,-8.556774958112262 l0.38250787435865635,0.4457523860874411 0.24588009511038159,1.1119652349027616 l-0.0816215886078192,21.704797721772433 m-0.27129874100808044,-12.907946188536052 l-1.8722590599873623,3.625377559401967 -2.205746462636047,3.3019563764355344 l-2.5338319192357153,2.9803253016931985 -2.1669038450208364,1.8806887040514548 m10.795184177069745,-9.426739886768521 l1.590651050004483,0.9366299733606556 2.031473507299103,1.7062314221668888 l1.880826107045454,2.0014389426332513 1.1975360280078942,1.592933673347054 m-17.488431443701895,7.484487882861031 l0.9407010706444902,1.4955737937403142 1.0481243124189523,14.630180986423655 m-1.2823345164258204,-15.049452859463543 l13.804117592084141,-2.129462473629317 1.3156105896829877,0.00501634926911434 l0.5081898740186804,0.26126232489774953 0.39007536315431696,0.9267830057580154 l-0.8919628054801328,8.758098633350262 -0.8673962557737112,5.572841976177246 m-6.978005897653226,-13.384522444863425 l0.3638495993732281,1.7483422371422797 0.06307713373814813,11.47880876421325 m-6.901228167258185,-6.48908169534216 l9.835524510476452,-1.5049069587240338 m-8.988926440546702,9.002721689409778 l12.117126756178678,-1.4507151924309805 m13.474718703832936,-48.482709168022375 l-0.20833591880802332,1.586011993106385 -0.7863053258046352,2.1612464860748073 l-0.8606284668481936,1.6805053647051311 -1.0977536070060825,1.492420522889896 m-2.42842494714311,0.515771938712289 l0.2971317613303028,1.0409787712920728 -0.08318726615219853,27.38520889682349 m0.2669097633341827,-27.65214088593708 l10.908199290281404,-1.8255156240724124 0.9874902338413872,0.14643301067946196 l0.4566018843154666,0.3701361276932778 0.5052384411887562,0.5240762353760484 l0.2204151040467217,1.230826322250498 -1.633966595822779,7.6487847641553595 l-1.1579046096224914,4.806941118430971 m-11.01013959177925,-6.946559174023095 l12.133082918424867,-1.4297454722013974 1.147032727267871,0.06611615242542172 m-13.119190887171346,8.493294719103085 l12.068229091208469,-1.6739669527752523 m-12.07399395966101,8.103695665848921 l17.199191602970654,-2.3266789292739287 1.7301400583523465,-0.00092879574767505 m-19.11709606869633,9.51852625967151 l15.847793472275656,-2.3809234336919087 1.227091690809452,0.07505236295961457 l0.7843598028863522,0.6069929569637047 0.2847842017911232,1.2095646244407705 l-0.0544679961940809,0.8578208759514442 -0.8702190664260868,5.568195309313864 l-1.000290894832226,4.190666731904929 -1.315949208809665,3.5617384674377037 l-1.005098718256438,1.9362163820796048 -0.6055227564566721,0.782239468194611 l-0.552270540059274,0.3411976107992083 -0.9489391426815926,-0.3629326101834014 l-1.0613536020675127,-1.5247929694490636 m-13.819603846954253,-9.600596643011695 l-0.07627103267958822,4.684306513853456 -0.38679293727299835,2.4044348211421993 l-0.5819889678906953,1.9261168953760917 m4.7040202185809505,-8.928554774469646 l0.9661625933360649,2.6001443782272338 0.8171360768965783,4.280906273442113 m2.2623373039397343,-8.191270030756025 l1.636309543652386,3.110777806934241 0.8877009823499754,2.8000653681701873 m2.6328124275046294,-7.121592530716461 l1.541905250773361,2.370801290069772 0.8412427633778958,2.204776626991968 " fill="none" stroke="black" stroke-width="1" /></svg>