<?xml version="1.0" encoding="utf-8" ?>
<svg baseProfile="full" height="111.6214900726425" version="1.1" width="103.39264851136089" xmlns="http://www.w3.org/2000/svg" xmlns:ev="http://www.w3.org/2001/xml-events" xmlns:xlink="http://www.w3.org/1999/xlink"><defs /><rect fill="white" height="111.6214900726425" width="103.39264851136089" x="0" y="0" /><path d="M25,25 m0.0,0.0 m10.997472402855092,13.269580128004291 l0.5160007357704541,0.11305280353940186 2.3689718891802523,0.04785380252285508 l26.663389571375255,-2.06120629086262 5.1873428562160555,-0.13650822323684775 l2.3144537396466,0.24095787184627043 m-29.69869049268562,-3.4514604482252036 l1.0006804702601093,0.7825443296790215 0.352734336618436,0.562895080847891 l1.3421425379052432,7.080445058881553 m15.02333695266549,-9.378163366013549 l0.2798039021875197,1.1851000825320683 -1.4059534826196942,7.00555793144373 m-19.171324490535287,4.230126118511121 l0.6694473742019428,1.101034255361392 1.7818052889966376,8.186296033423789 m-1.2642156496375356,-8.619476152621152 l18.951644900917465,-1.6891689192618833 4.780654208451422,-0.27093375041327594 l1.1560889548286295,0.6015159696947254 0.3547119883844547,0.8915703989370353 l-2.4095012689622535,7.659084143535788 m-21.84625608910574,-3.491110674009005 l15.523039807682647,-1.2489005653075163 m-14.477293575984449,5.011682628729714 l20.418768874258966,-1.2271923052991611 m-32.17486430803593,7.408521583933427 l2.1993620808412264,0.016113467965119022 30.170124372003126,-2.251047670655557 l13.784214637232607,-0.665548552522256 m-28.384736628848845,-2.342796172044886 l0.10369247568503487,1.100360000670324 -1.5328063697630723,2.4845033061585258 l-2.513959161582623,3.083735550887651 -2.8346910294969585,4.5624330840746 l-4.659831511364645,5.979617255476824 -5.637858367176907,5.0086833543097615 m24.597461390001268,-18.243704715708013 l1.5811542193138963,0.5453733293213313 2.243693181542008,-1.72021491424333 l1.4241776414846632,-0.7193459917711851 1.1685461660714016,1.1276979284432154 l-0.28738197205113186,0.7416861487725601 -1.3038595812488667,6.8240614039989875 l-1.2386566959264598,4.071821703125387 -2.4359427242611256,3.916812942536137 l-2.1214315543273408,2.2638082352386664 -2.336178169571029,2.000066824227802 l-2.7835756657661923,3.58215090874654 -2.79854368231676,6.451525119460435 l7.436546595660276,-1.1612655439725494 17.503757681648196,-1.5411889039412656 l1.6296310447330853,-0.31668726399061997 1.7864573065606866,-0.46908016919029033 l0.9076096682851085,-0.498413878637436 0.4398414288532549,-1.0384749640331514 l0.05144030031083034,-1.776939851051903 m-15.014050243531623,-6.185537565637029 l2.150862024363911,1.3271293232688604 2.116006299379164,1.9066096108532964 l1.694111803149484,2.109699438036637 0.6925291484720525,1.6586890948798283 " fill="none" stroke="black" stroke-width="1" /></svg>