<?xml version="1.0" encoding="utf-8" ?>
<svg baseProfile="full" height="109.49251250363886" version="1.1" width="107.01511427294463" xmlns="http://www.w3.org/2000/svg" xmlns:ev="http://www.w3.org/2001/xml-events" xmlns:xlink="http://www.w3.org/1999/xlink"><defs /><rect fill="white" height="109.49251250363886" width="107.01511427294463" x="0" y="0" /><path d="M25,25 m0.0,0.0 m1.3736560940742493,12.121964693069458 l0.3792938217520714,0.4676632955670357 0.5659619718790054,2.0864468812942505 l1.922367662191391,30.098257064819336 m-1.1862033605575562,-31.51911973953247 l17.143683433532715,-1.897917091846466 1.5648353099822998,0.13534682802855968 l1.0121121257543564,0.8611889183521271 0.3040390834212303,1.6402967274188995 l-1.8368735909461975,29.338676929473877 m-9.659084677696228,-29.888086318969727 l0.4236440360546112,0.5374983698129654 0.2812020108103752,1.326204538345337 l-0.0610074307769537,25.683090686798096 m-8.42522144317627,-13.94848108291626 l10.473275184631348,-1.0709837824106216 7.386962175369263,-0.44064775109291077 m-16.82926058769226,16.90339684486389 l10.240932703018188,-0.9406635910272598 5.655317306518555,-0.2523816004395485 m18.163739442825317,-41.241750717163086 l-0.3253660723567009,1.355661004781723 -1.2189695984125137,2.126825600862503 l-3.3496013283729553,4.3734630942344666 m-4.501218199729919,1.3152824342250824 l0.5211152881383896,0.9369815140962601 0.0889693945646286,1.1504583805799484 l0.047447928227484226,27.45809316635132 m0.4269537702202797,-28.723068237304688 l15.705280303955078,-2.1556201577186584 0.9260594844818115,-0.008460469543933868 l1.4208625257015228,0.48975568264722824 0.7880441099405289,1.1256355047225952 l0.08460469543933868,1.7144344747066498 -1.9926579296588898,12.906249761581421 m-16.744531393051147,-7.085446715354919 l17.29758620262146,-1.4438442885875702 m-17.199947834014893,8.780022859573364 l15.948543548583984,-1.2133844941854477 m-15.960789918899536,7.980394959449768 l26.159358024597168,-1.8301506340503693 m-26.181201934814453,9.272509813308716 l21.719038486480713,-2.0130540430545807 2.5802570581436157,0.16968516632914543 l1.0064855962991714,0.6652536243200302 0.43125640600919724,1.210695281624794 l-0.0012773448543157429,0.8373589813709259 -1.204572394490242,5.651345252990723 l-1.8541046977043152,5.924397110939026 -2.1698519587516785,4.742165803909302 l-1.8259721994400024,2.6702815294265747 -1.738264560699463,1.1085904389619827 l-1.1855414509773254,-0.16933349892497063 -1.9361856579780579,-1.6690914332866669 m-18.650931119918823,-11.544300317764282 l-0.5711540952324867,4.1262272000312805 -1.8620480597019196,4.224525690078735 m8.059828877449036,-8.928298354148865 l1.0104572772979736,2.0990240573883057 0.9416151791810989,4.571053087711334 m4.413841664791107,-7.895665764808655 l1.8911737203598022,2.497183084487915 1.5789015591144562,3.5083022713661194 m3.08465838432312,-7.440248727798462 l2.1061398088932037,3.273974359035492 1.1272076517343521,3.0091965198516846 " fill="none" stroke="black" stroke-width="1" /></svg>