<?xml version="1.0" encoding="utf-8" ?>
<svg baseProfile="full" height="109.07789639045234" version="1.1" width="110.64529161859106" xmlns="http://www.w3.org/2000/svg" xmlns:ev="http://www.w3.org/2001/xml-events" xmlns:xlink="http://www.w3.org/1999/xlink"><defs /><rect fill="white" height="109.07789639045234" width="110.64529161859106" x="0" y="0" /><path d="M25.847217542245673,25 m0.0,0.0 m23.389078187066204,2.489382480471362 l-0.008035375153756,0.4791677489625812 -2.457523373641841,1.4496974314888746 l-3.5561356410483422,1.373629814167568 -4.904875524583316,1.4865702062774802 l-4.833994012021127,1.158223245051126 m-2.662140033381377,2.9098049639994383 l3.667634018684791,0.6121394819542356 2.2126462260087494,0.972314224137156 l1.6913768503475717,1.221774602242945 1.7593339465143043,1.308584679264662 m7.120748401930164,-7.13519696431967 l3.1494504222101662,1.1497926361985553 2.2695419836796606,1.2738340840354574 m11.818628888523532,-4.353294698627702 l-0.03226039957235744,0.8315161037657667 -1.139484837837309,1.3283666572182296 l-5.5797870635919455,3.374284145525394 -3.526524943641559,2.0330719907900887 m-23.134911338419837,3.2483880290707403 l1.9461988787261575,4.134829225321764 1.6511263487146146,7.475598003202861 m-2.31470718811617,-11.85802323365052 l33.21827220008107,-2.1661863013554896 2.436489220085657,0.0010985762918859362 l1.2594386492077043,0.532774258560165 0.2802815059717558,0.7573702455185252 l-0.570527001429093,0.8057323097707549 -3.383012836920521,9.269999883451968 m-15.78135915827955,-9.512472461614793 l0.08373095153322518,10.124506360515593 -0.3738560695585418,4.15994622582861 m-0.944203708126717,-10.027247782958732 l17.443903503810475,-1.5910843306602453 2.8603287159123685,0.0675238412743638 m-23.504464583953375,8.190131846443482 l23.5028847078025,-1.5705300043969839 m-38.77272748836165,7.198333653949687 l2.4428578461363872,0.3386870542166879 2.876686149014488,-0.05750912830889689 l41.93780066028561,-2.5354459486713887 4.998537201738895,-0.11759707086865434 l3.261629189997726,0.27249168083105596 m-37.13152397622841,-3.817329929736362 l0.9339310103853959,1.4239296400568038 1.2104169476330775,3.9350899802732457 m19.928273837341845,-6.811496826125743 l0.30832581016645716,1.1266504650672242 -1.2249949433155807,6.1601393565726 m-32.70644322742624,2.480500752443906 l2.238039592407142,0.24915031958111364 3.437700958324532,-2.1035510297302698 l29.180516546252456,-3.2255091167222925 4.254108425437378,-0.09145069967131547 l2.522037836395261,0.24675020186781516 m-39.77534532146277,7.095447387004308 l4.704385671731493,0.2502769875794819 30.491397229650126,-1.9692957819440944 l4.034786731375087,-0.12790799431553065 m-41.97818694633381,7.363385577579827 l-0.92663808871635,0.2912882867839164 -1.4765285047034045,1.5519171295452883 l-3.8722389433050712,1.812043317211508 -4.7973122641996735,1.5572121641053562 m33.13620230572058,-6.697315608339176 l2.829020699920232,1.2146102662835225 2.995765478285407,1.7060691718982015 l2.4642174257705767,1.7939111875560336 1.3998764371951584,1.4842466109933172 m-25.116953559737187,-6.7675568772450205 l0.626032280411243,1.647782608740845 0.04148318848660085,4.127788981669452 l-0.6897292055346205,2.8757078856111495 -1.501069058373963,2.580558809915073 l-2.2266955938560935,2.1746648769699064 -2.3609228902255284,1.4728297365454095 l-2.9372429096481834,1.587905444543397 -3.4644911952361634,1.3744753435174397 m24.97275640468413,-19.51321954154347 l0.682201135916087,1.0816957404205525 0.19552924640486985,1.1168686031074866 l-0.14873086305115574,15.666461637657157 " fill="none" stroke="black" stroke-width="1" /></svg>