<?xml version="1.0" encoding="utf-8" ?>
<svg baseProfile="full" height="109.29537154445828" version="1.1" width="113.0731519318615" xmlns="http://www.w3.org/2000/svg" xmlns:ev="http://www.w3.org/2001/xml-events" xmlns:xlink="http://www.w3.org/1999/xlink"><defs /><rect fill="white" height="109.29537154445828" width="113.0731519318615" x="0" y="0" /><path d="M25,27.224127387741838 m0.0,0.0 m8.611037875491622,9.489024299049392 l0.4863096042618534,0.3893993985550684 0.54107562038251,2.852886689480113 l1.1855983279584903,32.53295553846998 m-0.9304092266806432,-35.75305365428969 l16.469711272215537,-2.02354038966452 1.4637333885422903,0.14644781852741875 l0.8191589679108411,0.7926758271348947 0.3253410547876859,2.1277690082169065 l-1.4974726561168856,30.35831821213348 m-10.144756339149465,-32.83355773353531 l0.48191716596195266,1.13922594414156 0.13788386374961636,1.586703922623325 l0.06149149241956105,31.07951032001406 m-8.493668547019734,-16.993809064877443 l16.369297397163738,-1.5185534380963162 3.7847199680626167,-0.02576234737039977 m-18.49035088348362,17.4137242015722 l16.88153596177096,-1.1604198366010368 m17.4541180218359,-41.824072103225525 l-0.2588842719871111,1.87664041224738 -1.0131477012850425,2.2974730537807377 l-1.538757442569443,2.60229719546932 -1.6384744832158176,2.0421067669333284 m-3.394142853171881,1.041049855147162 l0.377773436182527,1.07913946653107 -0.10083578853567098,30.181076045231574 m0.42738697263332803,-30.217627987134183 l14.669243664385819,-2.0283095847810286 1.2738846658983722,0.34446178918201026 l0.7914886673408272,0.954668125704954 0.20681291383723066,1.3492764072557772 l-1.8335740255013715,13.868298438865375 m-14.80019150534921,-7.322801145311573 l2.852630107333312,-1.6220313448315804 6.69722034372428,-1.1719705718096218 m-9.316013518639371,9.08851414533533 l13.506293333891021,-1.4274797444706833 m-14.041198933813245,9.003751633608697 l20.100131740988736,-1.8383148895890724 4.589234279649358,-0.16956184288629664 m-25.03534828473123,10.360410777999688 l8.384844181313468,-1.290180820796889 11.832496975494053,-1.37032188716822 l1.5726052785742006,0.07279518929049923 1.0220614512258894,0.6547890826371802 l0.3816132075379439,1.327475069779321 -0.0609018746316794,0.9430531189790967 l-1.1678959361917676,5.966587469176186 -1.6112351275427053,5.27761374875339 l-1.7635466075956456,4.215713554524971 -1.92887401628263,2.8316931969019445 l-0.7389642410195716,0.3750868199024045 -1.2690479284290253,-0.32923667756468256 l-1.448178561460273,-1.6735598355583776 m-17.345866950920755,-11.014925385975381 l-0.0906316557014613,4.220582438935246 -0.8688505995505331,3.603468618922037 m6.65461842039508,-9.390111439156383 l1.5294451245065317,2.7802783027098124 1.0980324511524215,4.020556636489722 m3.4080953150817863,-8.4203797155382 l1.7108971510046347,2.8388285243293163 0.9720390495183301,2.791603735820268 m2.5759840052695715,-7.389356974267553 l2.051611488517555,2.750641235806426 1.1111962385089116,2.5183745706607796 " fill="none" stroke="black" stroke-width="1" /></svg>