<?xml version="1.0" encoding="utf-8" ?>
<svg baseProfile="full" height="115.34199011814604" version="1.1" width="117.53854968167627" xmlns="http://www.w3.org/2000/svg" xmlns:ev="http://www.w3.org/2001/xml-events" xmlns:xlink="http://www.w3.org/1999/xlink"><defs /><rect fill="white" height="115.34199011814604" width="117.53854968167627" x="0" y="0" /><path d="M25,28.249363789750763 m0.0,0.0 m15.100379123515951,2.548521797148801 l0.3177430724031852,0.5173078818713068 0.3934029389231471,1.7862276457977413 l-0.018306516082891956,28.236864386617214 m0.547577884847084,-29.821634164635277 l12.164515460265012,-2.1819243782626025 0.6725066576688944,0.0340494261946021 l0.8987720833962117,0.753818634630807 0.1994824861177736,1.4344522768994827 l-0.0461422215639678,27.97380865971536 m-13.55670290027672,-16.277356105903742 l12.868729757445635,-1.8965858620559461 m-12.933439275840497,11.022280201741403 l12.929507551631119,-1.654589316801622 m-12.717421792156493,11.680582224813618 l12.712568858756576,-1.4832060722140212 m-9.601718802372819,6.207458192109461 l-0.12136777719318557,1.3018857843334446 -0.8097723328489324,1.2279828097258922 l-3.4072443837803332,3.6945799159232267 -3.4314230774299435,3.0457786385661345 m14.971907807955633,-10.207095837059287 l3.0143599412294186,4.284730512714111 2.0998689006600526,4.617734298533419 m12.904672880222138,-49.193620396739 l0.6591059093270453,1.8330585452593022 0.14135045910762445,19.86236775933803 l-0.26217532935738264,7.168477041610003 -0.6654443401586838,6.171325677380124 l-1.2132806008901313,5.8423683531693325 -1.773300486855816,5.048672058013799 l-2.3433080671198114,8.107621717235666 -2.3929050199185773,5.905772558236465 l-2.6575310173483846,4.50091146448802 m-1.6485851730400114,-54.65635322285252 l1.3891322782586286,0.40144333445168473 1.66953276690547,0.05737403885733543 l7.831280539614977,-2.895204394288001 m-8.939970335699703,13.182216680751992 l2.247832495997899,0.7419714818478115 6.537685709438273,-1.9309783296737841 l1.051803133186732,0.5646262374133993 m-9.891908828621034,19.703660792955716 l1.4014356979336813,0.310832550522095 0.9169164499158918,-0.28562225354063436 l7.398300001085166,-6.194280679480893 m7.79147748840083,-34.34167635511023 l0.5097123032062695,1.1304312008803625 0.17484506641660416,1.1517504131704914 l0.0018985376563835114,54.54986220852071 m0.8221382412705669,-43.78115928657744 l10.123758958998037,-1.851299724178982 1.9141984674119688,-0.014657713183400825 m-12.037626136410037,14.350720654741997 l9.646198036135527,-1.6092154208013114 2.0583866832073685,0.024345143945041694 m-11.355023860499843,14.451620136832606 l11.151462276811037,-1.3981220449865985 2.1287010518176843,0.08816671386095797 " fill="none" stroke="black" stroke-width="1" /></svg>