<?xml version="1.0" encoding="utf-8" ?>
<svg baseProfile="full" height="92.97193897103092" version="1.1" width="102.98315050304464" xmlns="http://www.w3.org/2000/svg" xmlns:ev="http://www.w3.org/2001/xml-events" xmlns:xlink="http://www.w3.org/1999/xlink"><defs /><rect fill="white" height="92.97193897103092" width="102.98315050304464" x="0" y="0" /><path d="M25,25 m0.0,0.0 m29.52180156125455,3.917473763890218 l0.35228246528314006,0.2183851585246749 0.8901365120863839,1.1886491935239465 l-0.07190582491259838,3.512317702012963 m-20.2452245497509,0.922886598952255 l2.1786740049217865,0.27074185672700457 3.025764201694748,-0.1233233269614314 l29.605880396154113,-2.5524737693649846 4.94620547214197,-0.17975811517519766 l2.779536264171447,0.2394577914019528 m-40.363778222190206,2.828316386456769 l-0.059108980324820995,2.5491942855006675 -0.7863016384145727,5.475821768312443 l-1.9090471574659267,8.571595357537037 -2.5773613857233317,4.075893492054612 l-1.7934833549061309,1.5120861193612567 -2.33360691269883,1.31870289927517 m12.356500233706164,-20.119627213995955 l1.6746763783188319,0.11090148464568711 2.002417677433901,-0.043066167562689155 l26.495700511896565,-2.5517171906933935 1.3826784616189616,0.1833932735656256 m-23.10045242772685,-2.913153558081 l0.8928389892734881,1.1198283471430108 1.2734309574237217,7.830534943187175 m11.542866285555847,-10.381293409331557 l0.6344255982133926,1.2910281662062344 -1.107268239354135,7.421350230490386 m-11.223496905609553,0.8281875921687482 l13.260730540026993,-0.9419892348667065 m-24.796964375191408,5.3622960313605565 l3.1585606546657368,0.20856803800535595 14.196121284484109,-1.2879609777512484 l10.315751735580234,-0.6855750132276476 6.079288098034579,-0.20721847535904048 l2.876370829369597,0.19677477548036124 m-32.527484896867584,5.846047946330393 l1.0504398598146596,1.1628964777270174 1.4706270309109006,10.071378839907487 m-0.8780144661645897,-10.47374564892614 l19.49833395148705,-1.7654724975930658 4.76063977517106,-0.23499088412393082 l1.4772310368217596,0.27142849531445934 0.5091311700960385,0.607270621084918 l-0.40201649073536555,1.4944549192251777 -1.3694263199815344,3.6316178562940657 l-2.1172526382881167,4.599868603315962 m-22.389489933031193,-4.260081125429567 l18.26648942806625,-1.35296121315752 m-17.105764969757544,6.07465424105143 l11.693837700926705,-0.9949019230957423 10.051120915308866,-0.5055014354824323 m-12.420804009868826,-11.895391476591634 l0.36172422595228876,0.3222131752319336 0.3891235364061926,0.9260843743065589 l0.057819321017315795,11.715050921607148 m-5.694888504050263,2.0018906890244668 l-0.10226037763343299,0.6927720151413849 -0.5196032101729275,0.6317816422949737 l-2.5648013815485786,1.8422264859331332 -3.599045092507992,1.7662537381106884 l-4.385268280265203,1.6298653301164845 m23.435439333213985,-6.510301682765285 l2.756595802686042,1.0511851982547227 3.001375356502559,1.5868594046810225 l2.5037486312055193,1.7101694795968025 1.3328244939708278,1.4290155189088365 " fill="none" stroke="black" stroke-width="1" /></svg>