<?xml version="1.0" encoding="utf-8" ?>
<svg baseProfile="full" height="95.45621522995255" version="1.1" width="102.25075048348916" xmlns="http://www.w3.org/2000/svg" xmlns:ev="http://www.w3.org/2001/xml-events" xmlns:xlink="http://www.w3.org/1999/xlink"><defs /><rect fill="white" height="95.45621522995255" width="102.25075048348916" x="0" y="0" /><path d="M31.315185378031064,25 m0.0,0.0 m12.735607414533247,3.8940826288506014 l0.020119376744131737,0.42274673081477615 -0.15545528141222234,0.8278426127592106 l-1.6574546738640243,1.5067124371803533 -5.801907573016677,3.700656884647137 l-5.463702399469566,2.8285652133548664 -5.992392241545952,2.3784154231161847 m2.4646120414996795,2.323821020549741 l3.1263607951052177,1.1262709861882891 3.2753949755591347,1.6792002187605137 m2.3957904767702956,-6.816663275055414 l2.2384012458017404,1.5207535209529712 1.5125848271841746,1.7954058565980442 m7.015432274404759,-4.202496184569653 l-0.4020140969903385,1.6252338026553372 -5.291883390702867,2.9226694135109215 l-6.847421138821281,3.1682568353912415 -7.779658661599722,2.616983355869064 m13.34534648997355,-5.036295577375551 l2.8355712416362593,2.3922153586391337 2.2346626620902863,2.891683495803535 l1.3994904802052746,2.790420979318422 0.8779801895453883,2.6922515751412757 l0.38409702018215397,7.01412318477861 -0.5196568327171233,2.5961450389899063 l-0.9395695840462196,2.5229246081440895 -0.8603458264848782,1.6870404826559477 l-0.8388994849152598,1.095441749598137 -0.8362281928096232,0.639673488356133 l-0.8241392687587015,0.29095597594972217 -0.8169827630551891,-0.006151202187355523 l-1.4654526641211232,-0.6443129382116749 -1.7876949361437422,-1.6825158924994787 m3.701703835049243,-20.07444819747575 l-0.07260828167584538,0.8977751542523156 -0.7282770947539219,0.896700495949497 l-3.350504909557395,2.659700815260243 -4.564118931428955,2.566802498819739 l-5.851330365368323,2.4161649140610564 m17.382588814292163,-4.113534923143056 l0.07805978021958167,0.7432532173141494 -0.6926444459569212,0.9551062588655588 l-4.51163451236263,3.777578405432165 -5.696545376011942,3.5443430140369037 l-6.240612022263837,3.0581514470838815 m37.01491018274103,-36.6222638503498 l-0.2050654572745439,0.933839615432397 -3.4460991164847625,2.0107906798589257 l-5.485929752102422,2.2650728943961695 -6.828738423286009,1.966585913539945 m12.711187823736362,-0.33011949581277994 l0.3424979694758101,0.6937399018365361 -0.25233032244868325,0.7325594109447743 l-8.072361145100793,3.2830636250290466 -7.303216640840692,1.3280130994547683 l-8.112918884041838,1.352609386745725 m-0.44024978871563414,3.1097860979313867 l0.6807696395386231,0.7816907769991838 0.6919224243625228,1.4087692318052458 l1.4485797954379287,9.521956363988155 11.900924708645661,-1.6707632639572483 m-1.8274226566804375,-10.850166054650266 l24.33473770737277,0.5718334813677133 1.7496980501811845,0.12776388114429044 m-32.07885248274968,-8.15360618649902 l0.9819677337316547,0.7321919259581705 0.6752455668260795,1.181295205002526 l-0.07518387643885686,27.648943538820543 0.2317050713786714,1.088661710348944 l0.571945165287961,0.9620313907486316 1.0890280416735165,0.7612131382304499 l2.8139692145730364,0.5555211386910269 7.144152322182151,0.1755507638153857 l6.956066579101929,-0.3598083292067054 1.9486872509563335,-0.43951810808875363 l1.366882261937571,-0.9198969912229938 0.6172229527630981,-1.436847355155111 " fill="none" stroke="black" stroke-width="1" /></svg>