<?xml version="1.0" encoding="utf-8" ?>
<svg baseProfile="full" height="102.81577214214153" version="1.1" width="100.077231550937" xmlns="http://www.w3.org/2000/svg" xmlns:ev="http://www.w3.org/2001/xml-events" xmlns:xlink="http://www.w3.org/1999/xlink"><defs /><rect fill="white" height="102.81577214214153" width="100.077231550937" x="0" y="0" /><path d="M25,25 m0.0,0.0 m10.240871697554908,14.435680727855567 l0.46238608783969415,0.11364629541670973 2.395089486898005,0.03975675886629655 l11.994259123337624,-2.1099178274719734 1.1204420658681147,-0.30837727096429274 l0.6101848199162967,0.13977558156938605 0.33254979971741305,0.4223745209516147 l-0.14921096130527742,0.6333302795823221 -4.810672237087031,4.571251925633015 l-3.0590310055348624,3.2273401051011668 -2.776870365411207,2.550022081358086 l-2.652898442369127,4.199277944156666 -4.4121211418375434,4.365485293479916 l-5.86159055797126,3.984017186637525 m6.204770390944989,-18.31846539804578 l2.9933438410610567,0.9341130074022165 3.713587143204109,1.8859626171546209 l22.306847179192197,2.3058284307630124 11.425294626918907,3.200367429265355 m-44.39807350182541,10.866307886398788 l3.8466551732315035,0.13403639922480592 13.745531058568167,-1.37209839283351 l10.963983951454997,-0.04171791358838561 6.021604994148317,-0.028169957788886393 l2.9289729049714497,0.22452817282509482 m-19.272647552030964,-7.91267173274195 l0.824584513109587,0.7426860093495758 0.42068906578701837,1.2095088386577673 l-0.07681055277160961,22.721893143926792 m15.241918541433185,-9.853873200699738 l0.4975761492443482,0.593878147757258 0.11671214625960405,0.8049995577324304 " fill="none" stroke="black" stroke-width="1" /></svg>