<?xml version="1.0" encoding="utf-8" ?>
<svg baseProfile="full" height="107.47797938736632" version="1.1" width="101.5820426951944" xmlns="http://www.w3.org/2000/svg" xmlns:ev="http://www.w3.org/2001/xml-events" xmlns:xlink="http://www.w3.org/1999/xlink"><defs /><rect fill="white" height="107.47797938736632" width="101.5820426951944" x="0" y="0" /><path d="M25,25 m0.0,0.0 m10.904311813289436,11.769257661609686 l0.3966285502061405,0.4185201752624288 0.46852884698183817,0.9668185893863741 l0.13974961588579676,1.2498503367840348 -0.021138412011279015,43.07353262432379 m0.725701572191724,-45.54608978231565 l34.60834332889566,-2.459942849828191 1.772116009582495,0.024477301597716807 l1.5804308331757517,0.28026516603824037 0.9060783238143657,1.4127573462920018 l0.10129221318247426,1.492171032473557 -0.19131009229067367,42.975403944458904 m-33.123648418349916,-40.12822889226671 l2.9649385719362917,2.170043490378394 1.5659505246542487,1.7654281074444684 l0.7184070981428751,1.1914594704077435 m3.245505016340199,-8.689987941722686 l1.3530531229322287,1.0300327905165612 1.8190626691881917,1.8892756172537108 l1.4465260753101532,2.0103001818667057 0.5748426432078829,1.2321023958166573 m9.8777287513164,-4.97154824843885 l0.15472508106238977,0.9882223419023923 -0.825532101370546,1.1366414261850097 l-5.939112523572963,5.1781200858281595 -7.0462629611846905,4.534369433875947 l-7.573283196520589,3.6686539476572357 -4.494960748624497,1.6453529415693984 m10.250796695957948,-9.707453898572131 l4.423443732117373,1.6882749738716045 4.731273478704689,2.2375218609811234 l3.7128714703493397,2.404494860128028 2.355633026310906,2.1309328403683145 m-27.819783339606456,7.67826750745319 l36.4163188928855,-1.412984033561703 " fill="none" stroke="black" stroke-width="1" /></svg>