<?xml version="1.0" encoding="utf-8" ?>
<svg baseProfile="full" height="109.49251404032111" version="1.1" width="108.18889716989361" xmlns="http://www.w3.org/2000/svg" xmlns:ev="http://www.w3.org/2001/xml-events" xmlns:xlink="http://www.w3.org/1999/xlink"><defs /><rect fill="white" height="109.49251404032111" width="108.18889716989361" x="0" y="0" /><path d="M25,25.000000693022244 m0.0,0.0 m32.0426869392395,-6.930222440360012e-07 l0.33200785517692566,0.4142039641737938 0.49196794629096985,1.5623709559440613 l-0.01849412568844855,2.987748384475708 m-19.938522577285767,2.066829651594162 l1.781238317489624,0.32129012048244476 1.8808405101299286,-0.04884423688054085 l34.53784465789795,-3.3339792490005493 2.5790241360664368,-0.027066925540566444 l2.5654858350753784,0.30934348702430725 m-42.0637845993042,3.532821536064148 l0.45868657529354095,0.7787679135799408 0.1430172100663185,1.1030396819114685 l-0.30405640602111816,7.0824044942855835 -0.7051137834787369,6.120548844337463 l-1.2263339012861252,5.8717042207717896 -1.4364980161190033,4.512728154659271 l-1.9069500267505646,4.344468116760254 -2.439129501581192,4.17298436164856 l-2.2151048481464386,3.0151471495628357 m22.05305814743042,-35.89553117752075 l-0.02639140235260129,1.0098841041326523 -0.383259579539299,0.8496822416782379 l-2.1901237964630127,3.1521406769752502 -2.8694504499435425,3.02449494600296 l-3.5492607951164246,2.954869866371155 m6.080578565597534,-4.198126494884491 l0.4006658121943474,0.4986564442515373 0.23965809494256973,1.2374544888734818 l-0.01980614149942994,10.680983066558838 m12.119898796081543,-20.712132453918457 l-0.2273639291524887,1.229073777794838 -1.5809053182601929,2.318575382232666 l-4.753192365169525,4.9214524030685425 m4.72676008939743,-3.055761456489563 l0.40034346282482147,0.5473294854164124 0.1936645433306694,1.2809701263904572 l-0.039607249200344086,11.684743165969849 m11.61447286605835,-20.021040439605713 l-0.14086158946156502,0.9064136445522308 -0.6620816886425018,1.3818617165088654 l-1.5075735747814178,2.1019643545150757 m-8.700539469718933,2.198343276977539 l20.252156257629395,-2.9180026054382324 m-12.078639268875122,2.7798405289649963 l0.31621329486370087,0.39969880133867264 0.17895787954330444,1.2042538076639175 l-0.03961228299885988,9.658366441726685 m-8.623178601264954,-7.184263467788696 l18.258659839630127,-2.3832443356513977 m-18.69042992591858,6.570532321929932 l19.4082772731781,-2.0595768094062805 m-19.41246747970581,6.761355996131897 l22.881464958190918,-2.4161629378795624 m-26.178979873657227,3.4735113382339478 l-0.390169657766819,1.5723633766174316 -1.6163624823093414,2.43493914604187 m-8.282790780067444,1.2545384466648102 l0.4874149337410927,1.375415176153183 -0.051679802127182484,16.92192554473877 m0.5808525905013084,-17.545487880706787 l23.11870574951172,-2.433931976556778 2.0052629709243774,0.19972851499915123 l0.5992258340120316,0.42258474975824356 0.3368429094552994,0.6466094404459 l-0.04150098189711571,0.8877181261777878 -2.5876468420028687,7.486293911933899 m-23.063907623291016,-3.385835587978363 l24.109573364257812,-1.927589625120163 m-24.177908897399902,6.157940030097961 l22.62359619140625,-1.6964836418628693 m-22.610056400299072,5.992903113365173 l29.035537242889404,-2.6579564809799194 2.537442445755005,-0.015693819150328636 m-31.70771837234497,7.395716309547424 l22.065308094024658,-2.298429310321808 8.459431529045105,-0.6327086687088013 l1.8373249471187592,0.23579003289341927 1.0875674337148666,0.8896521478891373 l0.17130235210061073,1.3915319740772247 -2.093261331319809,4.09916877746582 l-2.9297277331352234,4.461476504802704 -0.7446001470088959,0.8348546922206879 l-1.3860522210597992,0.5606258660554886 -1.243901252746582,-0.5963248014450073 l-1.0953035205602646,-1.3670343160629272 m-31.02694034576416,-4.205862581729889 l-0.09490830823779106,3.4445008635520935 -0.8820772171020508,2.8204551339149475 m10.041464567184448,-7.5710684061050415 l2.09358349442482,2.599976062774658 1.3061930239200592,3.0309414863586426 m5.2553945779800415,-7.137846350669861 l1.7116133868694305,2.5874048471450806 1.147119328379631,3.0038651823997498 m5.709245800971985,-6.699467301368713 l1.6768008470535278,1.724829226732254 1.1220575869083405,1.992047131061554 " fill="none" stroke="black" stroke-width="1" /></svg>