<?xml version="1.0" encoding="utf-8" ?>
<svg baseProfile="full" height="100.39066534169015" version="1.1" width="101.95393710407623" xmlns="http://www.w3.org/2000/svg" xmlns:ev="http://www.w3.org/2001/xml-events" xmlns:xlink="http://www.w3.org/1999/xlink"><defs /><rect fill="white" height="100.39066534169015" width="101.95393710407623" x="0" y="0" /><path d="M30.288322676675783,25 m0.0,0.0 m30.173977032814555,6.842452032704862 l0.02269236690334647,0.48255482144799955 -0.48735183722754905,0.9795364084783283 l-1.9879126011267463,1.5238474298509324 -6.111347463567013,2.875982779662832 l-7.464489901095997,2.475467993727184 -9.289344459071131,2.0911734392748595 m-0.129465307967635,-1.6192422359935792 l0.4472817959975872,0.869848898179873 0.2606734730811038,1.1306431481822505 l0.09252182200634826,6.202657847415869 -0.47154208568363143,7.209031664370884 l-1.0790037096769818,5.949257617637505 -1.415654289448374,4.1669616918923325 l-2.0646083243719566,3.6158092648166416 -2.549220899022585,2.9845884767940305 l-3.2355282892191184,2.5809383288392844 m13.57962551074436,-23.73460925483088 l3.81911116436397,-0.0657452044821566 29.236336183043374,-3.1464510183019865 l2.8910565259376257,-0.10209339114110409 2.427807719986892,0.2503038315178856 m-20.35076593261189,13.729457532187956 l0.5716940894535691,1.8706745164115606 0.017711770576630183,11.227618723046783 m-0.0798289808800002,-12.67028820108567 l15.872704097497996,-2.151317861867971 1.768480728958496,0.009223599858903576 l0.5551037404791831,0.3048692595708788 0.36126017707428104,0.9569175097452381 l-0.05549150095128653,9.625625403485337 m-17.896702169335313,2.239475461119488 l18.864808715638276,-1.6710484393850034 " fill="none" stroke="black" stroke-width="1" /></svg>