<?xml version="1.0" encoding="utf-8" ?>
<svg baseProfile="full" height="107.35870693317017" version="1.1" width="101.98176624011077" xmlns="http://www.w3.org/2000/svg" xmlns:ev="http://www.w3.org/2001/xml-events" xmlns:xlink="http://www.w3.org/1999/xlink"><defs /><rect fill="white" height="107.35870693317017" width="101.98176624011077" x="0" y="0" /><path d="M25,25 m0.0,0.0 m7.464385915164122,12.786771179696851 l0.4154097665130115,0.09680837787825576 4.460604951209105,-0.07785705111729224 l11.878161846342055,-1.1384153532533807 2.9088224129911597,0.07077397003686065 m-17.551461296223813,7.129840773832132 l4.013059569748306,-0.065394736945493 9.82090216088303,-1.1678893922586182 l1.4500921792238204,0.11592168293112633 m-17.694669617041722,8.721301240811131 l2.2173570871244794,0.337254794994996 15.318923987335182,-1.7935237637895114 l1.8370980193286661,0.10289446375825045 m-9.748677487946388,-18.838330968809498 l0.597317857845587,0.7219561450234431 0.31852400698233085,1.1755809290653039 l-0.1173839296430203,18.41381064245697 m-1.194253219707047,1.9427088258266814 l-0.07256155268315759,1.2829313538324842 -0.4351284025023074,1.2297872389862607 l-2.304085309488455,4.084526822472717 -2.9314656507971724,3.635459471117777 l-3.5985747439522555,3.2438279246920736 m8.722757626260792,-8.087396077257942 l1.3428858113237396,0.12566169491191137 0.9120666557899628,-0.14938691691840028 l5.633856966551589,-1.6177617405137712 0.4621638246710139,0.18695120732118467 l0.3259723603569646,0.4006793750256051 0.119331117728176,0.5680387902172834 l-0.5372826855310893,1.67075642487944 -1.4729068829195284,2.770887927954584 l-1.6079222900220276,4.555422681918644 -2.9719554811168094,6.254079981530914 l-3.601963146270494,4.863553529272284 -4.647822319782938,3.8064754835888897 m5.873121589951107,-16.70518074634224 l23.571232563524518,12.345925488583239 4.534762399006971,1.775999633349666 l3.511400416243305,0.7229708575927131 m-14.255721556233855,-36.50105306549514 l2.6828186253262354,-0.0009276295654860338 10.810566954828879,-1.3713188714038556 l1.4922340763044413,0.08456799848935136 m-16.342385694365774,12.000468554200335 l2.526699760551838,0.02808683790097412 13.033208522766518,-1.2972016366524148 l3.7959373525938678,-0.030316778100279045 m-11.225942718914524,-20.54577073916548 l0.45738625440823844,2.269135121486464 -0.14813120244701586,12.27054542054511 l-0.47187075068508866,7.794044600537446 -0.7320085952282691,4.774968920055291 l-0.784407958831236,2.966406093740249 -1.4529940678495048,2.6574871367367074 l-2.059198425886356,2.121841786596484 -2.985501865423096,2.0706831585400294 m9.439348552627322,-13.182673727480463 l3.2153323385730586,2.9455450994451104 3.2706477091884545,3.8966510845146387 l2.725357788997793,4.161815270553439 1.7682940633380888,3.555619916404984 " fill="none" stroke="black" stroke-width="1" /></svg>