<?xml version="1.0" encoding="utf-8" ?>
<svg baseProfile="full" height="109.49251268059015" version="1.1" width="107.95962900447194" xmlns="http://www.w3.org/2000/svg" xmlns:ev="http://www.w3.org/2001/xml-events" xmlns:xlink="http://www.w3.org/1999/xlink"><defs /><rect fill="white" height="109.49251268059015" width="107.95962900447194" x="0" y="0" /><path d="M25,25.000000298023224 m0.0,0.0 m8.481392860412598,7.693913578987122 l0.6137064471840858,0.18131479620933533 3.3422529697418213,0.22784799337387085 l38.16235065460205,-3.778182566165924 3.6076483130455017,0.3546585887670517 m-36.783761978149414,6.1856818199157715 l-0.08182266727089882,1.0026425868272781 -0.7941888272762299,1.8784146010875702 l-2.282002419233322,3.5280629992485046 -3.3299320936203003,3.6559325456619263 l-3.6119771003723145,3.076191246509552 m10.165616273880005,-7.32585072517395 l3.3196091651916504,2.0608948171138763 1.4621731638908386,1.4485204219818115 l1.049095094203949,1.5434235334396362 m20.959925651550293,-12.79759407043457 l-0.46611763536930084,1.675288826227188 -2.001788467168808,3.3722221851348877 l-2.363252639770508,2.9210165143013 -2.2070787847042084,1.9952952861785889 m5.519695281982422,-4.145099520683289 l3.9353138208389282,2.7588486671447754 3.4851068258285522,3.883366584777832 m-20.171396732330322,-21.39681100845337 l0.5151404812932014,0.3772812709212303 0.5013212934136391,1.0958806425333023 l-0.11592845432460308,24.61185932159424 m0.006815954693593085,-9.004136323928833 l-4.7381603717803955,5.501713752746582 -6.682507395744324,5.849358439445496 l-6.575283408164978,4.574993550777435 -6.480713486671448,3.3276009559631348 m24.593544006347656,-18.69024157524109 l22.406115531921387,14.945733547210693 2.1218326687812805,1.1561524122953415 l2.396885007619858,0.6541651487350464 m-29.3247127532959,-6.10576331615448 l-0.09550661779940128,1.8141469359397888 -0.7763736695051193,1.7582041025161743 l-1.756039708852768,2.713894546031952 -2.547065019607544,3.0835169553756714 l-5.501713752746582,5.160728693008423 -3.3146142959594727,2.4484990537166595 l-3.6296257376670837,2.21207395195961 m16.644331216812134,-12.28611707687378 l1.4458563923835754,0.12278083711862564 1.345958560705185,-0.25798648595809937 l11.635115146636963,-3.0868884921073914 0.5421129241585732,0.2835436910390854 l0.1931360550224781,0.5404479429125786 -0.9329637140035629,2.3895591497421265 l-1.9906333088874817,3.5636934638023376 -2.5630486011505127,3.7168702483177185 l-3.141457736492157,3.7594932317733765 -2.737204134464264,2.781825065612793 l-4.162414968013763,3.570353090763092 -3.5090821981430054,2.512100636959076 l-3.842075765132904,2.318298816680908 -4.176400899887085,2.078876495361328 m7.608228325843811,-16.441872119903564 l4.753144979476929,1.889902800321579 5.262624621391296,3.0475538969039917 l4.153757095336914,3.175090253353119 3.868381977081299,3.8900265097618103 " fill="none" stroke="black" stroke-width="1" /></svg>