<?xml version="1.0" encoding="utf-8" ?>
<svg baseProfile="full" height="111.44874182408014" version="1.1" width="102.63297534739318" xmlns="http://www.w3.org/2000/svg" xmlns:ev="http://www.w3.org/2001/xml-events" xmlns:xlink="http://www.w3.org/1999/xlink"><defs /><rect fill="white" height="111.44874182408014" width="102.63297534739318" x="0" y="0" /><path d="M25,25 m0.0,0.0 m14.994498649030534,3.5653171073642653 l0.4836722447293247,0.17681075425720846 2.915021006655292,-0.013774961483899286 l10.900800768595108,-1.6254474251758761 1.8954817149068837,0.11413172994680307 m-14.314016207833001,8.360862252293666 l0.2915578402545664,0.31393589034304487 0.23420622092691404,1.0907714793506007 l-0.012630822010483801,8.962682241274896 m0.44555701116444085,-9.89902224415089 l9.43629854228365,-1.674782486234017 1.408612752516656,-0.042122407204062004 l0.8731379637466337,0.21907193010211753 0.44779018782719404,0.9636506686906673 l-0.026793577240749992,0.7843643243362698 -0.9467867242166585,8.04893378579021 m-8.254112678586925,-4.479847549423929 l2.168917490177553,1.97201863487656 1.1361799498615284,1.7525732653732669 m11.209571104764084,-14.726272205638123 l1.999313256743663,0.17626496087499166 12.19954880468655,-1.5614186372871588 l3.1471498484104314,-0.05839457567661763 m-15.9486623885158,7.58617433556439 l0.42739179215683687,1.3380596814987384 0.011081483735701066,9.282548333069506 m0.27204157646597504,-9.989926549300852 l10.820601663326105,-1.6262462291686615 1.2848370710662118,0.039171991697029965 l0.7254681831825739,0.8311126428566765 0.13792801377076275,0.7983123952016827 l0.08866146738566641,9.095556543905316 m-8.863995870782771,-5.425533029300713 l2.035003643559353,1.6987557408199065 1.276420111273348,1.9318395323072615 m-11.391693372936729,2.017266613166184 l0.38395856873493656,1.6074994338266895 -0.02151988018428997,3.4509943161765837 m-16.89991113287289,2.0300137239026848 l2.2244875624886644,0.3310716008716665 2.905382246036513,-0.12772351933205667 l23.922977354218514,-2.8596515840133923 2.8228378588958405,-0.19155795931602224 l2.499536021205751,0.2541203320010614 m-30.774688849459622,3.643781556070246 l0.26241212189667656,0.7545196645845392 0.10568626995198234,1.281587709538924 l-1.3914054032793268,4.197804558240759 -2.141827869673578,4.538825378480048 l-3.3847059970296294,5.652701073824289 -4.354050148215698,5.254800558329036 m21.580096168073595,-19.507449360276958 l0.05822702212951482,0.26522245530811694 0.013123520428481262,0.9406254056231497 l-1.0944674156596552,3.46374642346858 -1.6183355869012455,3.395862190284946 l-1.9823233924313488,3.055972363465357 -3.83372161308714,4.404708547797415 l-5.1671784552973286,4.182162677912032 m11.676437365778623,-11.048102062101188 l2.299155535147675,0.16092527114122 12.874279036567685,-1.78172963307202 l2.603294210873235,0.18390806552152814 0.4484538835723427,0.3461472975378446 l0.25720136515759384,0.5165424541947765 0.11314434112686743,0.6434296898742486 l-0.07635373127209744,0.7525779671718128 -1.597550139730553,4.164174429600599 l-1.9469263620045236,4.192862206144792 -2.290147423810424,3.806934468785578 l-0.6208806406862302,0.9551322337607147 -0.5881583889279621,0.14597945034327492 l-1.0805344720541188,-0.2145546476329055 -1.669117197956929,-0.880948516145435 m-16.74766062025203,-8.850168860255701 l1.666109538468591,0.2720790564466036 2.1854628867865817,-0.021007027565294437 l12.715322116791238,-2.203099826548475 1.4794425695986917,0.017091385961901153 l0.38587342047951323,0.3827113486255673 0.10624066647247608,0.627430771020537 l-1.745694515133357,5.43034176619873 m-14.108662953194619,1.7022020655778318 l2.2517045061889207,0.39376757292090897 11.296569105584364,-1.1174562744614607 l2.1589700836764405,0.05424230260728358 m-14.319299629645434,1.4660241273354297 l0.5139623953538832,1.3575923544286934 0.07198645590257846,5.7335152448300315 l0.27512025294940434,1.1011716532006353 0.6414438571062471,1.4156051456697583 l1.1579650951186855,0.8593048145895078 2.285720670342254,0.5800356989011379 l3.5965677986297444,0.26829958233524176 6.250491707994304,0.018744165452306404 l3.914621152402107,-0.3016617598260119 1.7546604008554625,-0.3875781496801901 l1.9789955223577897,-0.8969307031124332 0.8564235136907462,-1.1965164502202121 l0.3184594268430641,-1.8979177221249328 " fill="none" stroke="black" stroke-width="1" /></svg>