<?xml version="1.0" encoding="utf-8" ?>
<svg baseProfile="full" height="100.04384076069883" version="1.1" width="108.96976525750529" xmlns="http://www.w3.org/2000/svg" xmlns:ev="http://www.w3.org/2001/xml-events" xmlns:xlink="http://www.w3.org/1999/xlink"><defs /><rect fill="white" height="100.04384076069883" width="108.96976525750529" x="0" y="0" /><path d="M25,25 m0.0,0.0 m36.133189715424336,11.101242395169178 l0.011795089183500779,0.3672539451744259 -0.4117185019869219,1.3206667462623494 l-1.6130479735685732,2.1883802878316208 -2.3643441779682037,2.682143874022618 l-2.712587668342229,2.607269660031658 -5.474481941429792,4.070246811654508 l-3.7882595301959543,2.2039873346975636 -2.8745589573599575,1.4386830308418748 m19.77143248441293,-15.13837928624301 l7.165249010749079,4.718284467957843 10.408562672082375,6.586940518217792 l2.1524933647334503,1.1878940234165043 2.566041671771244,0.6562793223352328 m-27.15144326761465,-4.191831851349022 l1.6953795902768467,0.5508934135790509 2.3588287250682947,0.9133518539462572 l1.801258726312025,1.0289133588944726 0.752739802303487,0.7264410033303161 m-11.039532337629643,3.9629137797766494 l0.8834348311868302,-1.792393123730021 2.207602443409061,-0.5468033053678609 l12.910457204775865,-1.420086054196716 0.95234194809494,0.06573113969845114 m-18.438586470163052,5.654270252051441 l2.4768123437541005,0.14845241137124854 14.729154992230345,-1.441911394043678 l1.4817719372703886,-0.05662132680672871 0.6526216475608595,0.1305966890954525 l0.5412396957970497,0.28130854525302257 0.1921280366150288,0.41166466279406877 l-0.36224795231824564,0.5196148186224068 -3.4418073582949247,3.0046559195021563 l-2.8682138990769244,2.2346422765275906 m-16.108042124918846,6.483375521145391 l-0.4488576500205689,1.1298564101617659 -1.3315917993481758,1.9678528755615037 l-1.6854870863467997,1.9207772007647206 -1.5329300342726477,1.3119802608110915 m10.106569547674505,-8.399702532452684 l2.3723983248545446,1.2556781901909704 2.8272543605059597,1.713449923160866 l3.0515413230071458,1.685282734681635 2.9633433620468144,1.3808747603882436 l2.5535948102879695,1.5431617370784667 2.161005376513047,0.9418919308626807 l2.418976454770291,0.6104183970810738 4.676589999879089,0.32424715094439766 l2.5454589179986007,-0.25649073621873336 0.7373453857245229,-0.6194254979828955 l-0.08225235009373155,-0.9843449298599062 -1.2501881406271116,-1.2699937351898622 m-14.133360404303607,-7.2881208091386425 l1.1990250723889055,1.425577450273108 1.080038163153742,0.5998801113604031 l0.84637668623358,-0.1200011240142391 0.32170107154420235,-0.853353790086338 m10.134298831710446,-2.6784107453692885 l2.2248646588438654,1.7169473195214597 1.9977581591613371,2.5924971057133304 " fill="none" stroke="black" stroke-width="1" /></svg>