<?xml version="1.0" encoding="utf-8" ?>
<svg baseProfile="full" height="92.86712896249836" version="1.1" width="105.31294232154735" xmlns="http://www.w3.org/2000/svg" xmlns:ev="http://www.w3.org/2001/xml-events" xmlns:xlink="http://www.w3.org/1999/xlink"><defs /><rect fill="white" height="92.86712896249836" width="105.31294232154735" x="0" y="0" /><path d="M25,25 m0.0,0.0 m29.841995106562955,6.6021379832783795 l0.0014640567451975586,0.4574065964752198 -0.4275174103186361,1.068388221719253 l-1.126266899255724,1.6184900865111236 -3.5039392353387377,3.5831047310068747 m-5.697635787426743,0.5600200458504684 l0.6434505365640408,0.9254865437840867 0.0930188202042689,0.9041398530293115 l-0.10244052048156885,19.520796545644057 m0.550222858551847,-20.71136350922128 l18.81805144651584,-2.242667456432598 1.3829718609609105,0.2107008331755208 l0.5632077489091044,0.7768844876292424 0.03342824264658625,0.9848153663623214 l-2.328253631120574,9.56812357045319 m-18.183058744035037,-4.4944018746643595 l18.53115715484668,-1.6525282543265747 m-18.550056726060024,7.027876789011227 l17.738019182280006,-1.7057979613996848 m-17.94920896714938,6.824953051756087 l23.727179676461837,-2.412116629228138 3.9473635930198223,-0.06965233322564295 m-28.406350865716714,8.108533789574084 l12.551522331621555,-1.4702746115400522 15.279557839874466,-1.4330410190977911 l1.7961542918470086,-0.0813185151310793 1.1213862955125982,0.2680081551401019 l0.7476167406974299,0.2939889310050348 0.5716928065903585,0.7676019808867826 l-0.05334330036995209,1.3736665514475572 -3.7195750817432374,2.4467243387420288 l-3.1682952680874665,3.0158928375577108 m-25.015928596107248,-5.5638502165598265 l0.6282595819177369,0.7120932020499583 0.25662649013989397,0.8147493363605287 l1.0786091473179695,6.2695575148752445 m10.701135770343301,-7.531314667752113 l1.1138613509060886,1.3785964856503645 0.9344940105312273,2.211631614640197 m7.558097102944608,-5.011882394168707 l1.2155610689709222,1.2244683431039745 1.1175217395551833,1.5377714089842687 l1.4354618609927516,2.509671619378853 m6.211418755431055,-6.557201652256393 l0.8281447125287913,1.0511647457569195 1.205914907260118,1.619809009307524 l1.3202462655062532,2.560401063775001 " fill="none" stroke="black" stroke-width="1" /></svg>