<?xml version="1.0" encoding="utf-8" ?>
<svg baseProfile="full" height="139.74156515955735" version="1.1" width="110.87366702659105" xmlns="http://www.w3.org/2000/svg" xmlns:ev="http://www.w3.org/2001/xml-events" xmlns:xlink="http://www.w3.org/1999/xlink"><defs /><rect fill="white" height="139.74156515955735" width="110.87366702659105" x="0" y="0" /><path d="M31.367780420515324,25 m0.0,0.0 m30.90386265348287,2.4655582590536897 l0.0101692006525018,0.43982729557939726 -0.4975868916856508,0.945506965833904 l-2.187896442245003,1.2249231183770308 -7.165975964027971,2.607421481919022 l-8.55383513551462,2.249754827513384 -10.428181973099488,2.0182041350328865 m0.715943448670662,-1.3401239603488282 l0.23351348205019223,0.7337673503584669 0.27853143119368695,1.1162076945455615 l-0.7175125998232336,5.351264449148544 -2.4038484499380157,5.1929813637225 l-3.142765995380544,4.183684665748142 -3.4121971848507124,3.2335055867265563 m21.690329375071762,-15.823805309100646 l1.8571351412351156,0.9799022873680002 2.5234644204676036,1.7245901543831987 l2.341263555642592,2.045821500972594 1.2392162515499534,1.4289799197950044 m8.082894916462582,-8.16438378240385 l0.013160961805552025,1.4689196990551707 -1.8295943150649812,2.6687402411663617 l-3.1097539642603693,3.177529053625684 -4.443451717810548,3.5976618243819836 l-8.448944797975413,5.121886014792631 -5.190319290963742,2.3813686594420167 l-6.088034085454962,2.442862434856325 -5.6617080236690605,1.8037120739557035 m9.46926298440623,-16.65630849574187 l2.2230193265559395,5.237740307827918 2.1209565108830857,5.464336877072183 l2.7441060752618642,11.677177944741867 1.5143375951650442,4.135211444393169 l1.977860053265708,5.699734498855444 2.196710086834456,3.682435159979136 l1.9862768496490792,2.9469970580415903 2.1767723052458265,2.848041709622228 l2.247187543001276,2.8016886230330544 2.2788647030297637,2.705458499059111 l2.323738248509274,2.630068239547666 2.3731736155430827,2.6382927676371395 l2.2989190110577638,2.540489971556053 2.319278817111813,2.535735699793802 l2.238254997241297,2.4803645802148577 2.217707884660232,2.378603652651513 l2.1670426543378047,2.157576300404733 2.1217439896880808,2.0083197553420216 l2.0466091284171926,1.8068637057661399 2.8963339312714274,1.6536443830449177 l2.457934220206045,0.941241407122069 0.9269692973662487,0.07179873105192171 l0.40067994407172625,0.04757721138932764 0.1742688267746951,0.03220712165093636 l-0.04989885344292892,-0.03658068030790625 -0.6461551887408029,-0.7125329802694034 l-1.8800821088741277,-2.650721929687666 m-21.336919115425452,-22.549411462973534 l2.5831231158057166,1.9881378214871286 2.0309331228492065,1.6979713916149353 l1.531212910590787,1.442237429339016 1.0824647567491683,1.3368063744755192 " fill="none" stroke="black" stroke-width="1" /></svg>