<?xml version="1.0" encoding="utf-8" ?>
<svg baseProfile="full" height="105.1500191125121" version="1.1" width="81.51625469534042" xmlns="http://www.w3.org/2000/svg" xmlns:ev="http://www.w3.org/2001/xml-events" xmlns:xlink="http://www.w3.org/1999/xlink"><defs /><rect fill="white" height="105.1500191125121" width="81.51625469534042" x="0" y="0" /><path d="M25,25 m0.0,0.0 m28.905531482656052,4.579958278497398 l0.3943512782352763,0.3978372007397305 0.579617929184133,1.1423367629544972 l0.011310879806209938,3.5867175659082737 m-17.14690591719076,1.5529632807422646 l-0.9935423716665733,0.10544109984634689 -1.2931772499694032,1.3050440491482875 l-3.175602685122279,2.697083324374071 m-0.5828632913628758,0.4542438791580396 l0.49520939311661494,1.4965539999113642 0.06029755209333456,11.048717793767192 m1.6299779153876728,-12.616292022838307 l16.579753098707258,-1.631864367491726 1.5311730505245886,-0.35223608403222434 l1.291205178570908,0.1756745080649564 0.7995715296212393,0.6471258786201458 l0.16901310056168645,13.285695797691996 -0.33806546018905664,1.7085557941217429 m-6.229851755290459,-10.718382951737146 l0.005667566954572912,0.39838065841909465 -0.4842312785623686,0.6715625456662807 l-2.152676047635158,1.7387405046393134 -2.7066962119481666,1.579444810792961 l-3.3104093005796478,1.4632206787314452 m12.271232683793952,-4.574637238986954 l3.6406147687697166,1.8535640116632046 1.565748856873956,1.2435055229606229 m-15.198875279729233,2.4494174818914325 l0.3665114667396756,1.3675641139091967 m-5.820369560672005,-3.0058491281609787 l0.4266248171793137,0.8749917576107288 -0.3328446462996124,8.471522669804626 l1.3665031254415851,0.6714498157891653 7.334110223244814,-0.8946018529154128 m8.214008344320668,-8.090313096642992 l-0.022378051083864262,0.9608643060418554 -0.9974440756649428,1.3298180892791758 l-3.8758438191004507,3.3694364400662282 m-4.0710150714607005,2.7246610076239453 l2.230210277690392,1.03788818220459 1.7180826638374285,1.2940074206725745 m-7.582878153527373,3.1071411895005863 l2.01952585584975,1.1081325448671482 m-5.1892110196632935,3.7022067301864134 l14.420661782306977,-1.1129317653997632 0.6472879652002331,0.06651952963536122 l0.7706516527634725,0.2650280699113545 0.3881028559880856,0.3108923860892382 l0.20139314378078316,0.8991751293387965 -0.638033641038855,3.4169590148745885 l-1.2725350637123205,3.381964560359208 -1.6100352518159493,2.7341517415323002 l-0.9867844930814714,1.2168626441644725 -0.4699117731380635,0.2541048489454107 l-0.40538271526739783,-0.029467956406321633 -0.6780850907305911,-0.4954245349227947 l-0.7543359527169347,-0.9902147042404448 m-1.9069296110311795,-13.01018485942576 l0.021636080554737695,1.2218296876146728 -0.7483553696588588,1.9480985510927191 l-1.258104382657655,2.4506786511955623 -1.6252133610696555,2.3952682279599316 l-1.6000782093497425,1.8781944165606996 -1.8804713284026433,1.803404773306167 l-2.159740518846614,1.6683217027532815 -1.8195832783453405,1.0619044645972406 " fill="none" stroke="black" stroke-width="1" /></svg>