<?xml version="1.0" encoding="utf-8" ?>
<svg baseProfile="full" height="116.38182981000212" version="1.1" width="94.59690578769448" xmlns="http://www.w3.org/2000/svg" xmlns:ev="http://www.w3.org/2001/xml-events" xmlns:xlink="http://www.w3.org/1999/xlink"><defs /><rect fill="white" height="116.38182981000212" width="94.59690578769448" x="0" y="0" /><path d="M27.355645584381143,25 m0.0,0.0 m26.993075543819298,2.916702339701223 l0.030097853602321766,0.4323062952136848 -0.5394050314509582,0.852699568078182 l-1.16408234511905,1.1568204777030355 -4.144386788312045,2.513027175077284 l-5.92728943383265,2.4422357513351995 -6.432267517359494,1.871592940136098 m-4.736834500710329,8.345170584029017 l2.7637303546802325,0.24905926269769027 25.418487144378716,-3.2517285573989145 l2.9528045825272455,-0.26887623560830576 2.2001850883465743,0.21242048167402594 m-37.52316798408553,14.275469505971078 l1.725128345416726,0.42364940785532684 1.915507583239289,-0.029428686379055317 l30.157394554727123,-4.319298152189691 5.0841880553923176,-0.7889697919128277 l3.4680946980535534,0.1266769451513721 m-24.03398862068878,-15.982626338740014 l1.156531942070092,1.0310164776951363 0.5833991078565837,1.9644776262723302 l-0.30666386382844024,22.699592978519977 -0.308503706821052,3.7303673133070068 l-0.7024125551223487,4.038369623010999 -2.7866878606012766,2.0522417242320006 l-2.1983347796332957,-0.5929458306047267 m-16.000245450925963,8.790194927084082 l4.50551737522891,1.5208536922576699 4.329329653126915,1.5098314282730574 l5.600176741198866,1.702168821519402 17.344269622737514,5.451624381833516 l3.13485206912107,1.3071336742072577 " fill="none" stroke="black" stroke-width="1" /></svg>