<?xml version="1.0" encoding="utf-8" ?>
<svg baseProfile="full" height="172.38469432264043" version="1.1" width="137.32943249316642" xmlns="http://www.w3.org/2000/svg" xmlns:ev="http://www.w3.org/2001/xml-events" xmlns:xlink="http://www.w3.org/1999/xlink"><defs /><rect fill="white" height="172.38469432264043" width="137.32943249316642" x="0" y="0" /><path d="M25,25 m0.0,0.0 m34.833644472311676,13.813635046106649 l-0.0033457081979370337,0.3459464817226513 -0.40526755986683705,1.2494130999886828 l-1.5224178413082101,2.0673847981029922 -4.398068113685086,2.506783920184188 l-5.33576415884294,2.2317471282770684 -8.538707714925579,2.7729980387961204 l-5.575514025818594,1.6408589123170805 m27.375021302045578,-11.022135412563465 l8.893340051213105,0.6724377868946049 18.722398611613276,-0.8130241661899581 l1.5469260629345272,2.1248338134687406 -3.6569770797356154,7.218922155259892 l-2.6121229043778094,3.6725172922248897 -1.4186016659058789,4.22921528787529 l-0.18362571598945754,5.148055421097746 0.608760807767834,5.273986155308805 l0.7681540585572721,3.906265485050019 0.9048262776154831,3.830140963426052 l0.8912005846757621,3.6410222805683587 0.9436206613766542,3.627606594026827 l1.007960966228742,6.226945205223423 0.7654028792862481,6.662758081077549 l0.6065670276852921,5.7909952749651845 0.6102417898622186,3.6156052464382324 l0.8554564136480877,3.4665648098555346 1.0465499890502443,3.437754503515853 l1.1704687336846074,3.3812682589197656 1.266816430024107,3.3420960566935474 l1.4027251769730023,3.3557781020626147 1.5750116511641712,3.5689387398969163 l1.7412274047464011,3.588005328152896 1.8803388629859912,3.4451816404296776 l2.035495695281167,3.1516838095717024 2.252027032274494,2.8875220116080067 l2.371392982603817,2.2285903639363602 2.6273899850199625,1.5586801567847286 l1.0017153392169365,0.4776564137469339 0.7174385258284085,0.076901977194693 l0.3938953700007176,-0.3616681598640997 0.16382983614456106,-0.773799036846635 l-0.225195697552006,-4.888461651732177 m-30.872984580165703,-26.519037253860617 l0.1461264438094526,0.7184931414947835 -0.781526086105046,1.3278001971616817 l-2.291649140237103,2.1321268656033796 -3.068657450254369,1.98078009748959 l-6.860617780786555,3.3064239007526557 -8.221066472168658,1.515896189205217 l-7.132533598873545,0.2833665409832163 m0.24713069950659655,-12.300432798914041 l5.5995855423885725,1.8114478000388068 5.91811884951093,2.225114718688339 m-12.656794361504739,4.32798039609083 l1.653408528676638,1.3437418707593363 2.030491455461786,2.147472434659353 l1.769681633506245,2.219879538325813 m19.412607150383423,-7.719587213630723 l-0.2013932968835539,1.3462557903320607 -1.6354945375040602,2.056394825939766 l-2.4399485271588657,2.1113241224736954 -2.6693257191819084,1.4993649627621786 m-26.23856894562721,3.0145902347304063 l0.9249036219880425,1.4499949150821518 2.2436554381655047,7.973150928198375 m-2.0500156397193394,-8.664691195317836 l27.497436485337147,-1.7914723376690094 0.9235669569124314,0.1262125939749854 l0.6341853132299337,0.394912130173654 0.3088571576038035,1.0500830016127862 l-2.6703200187385128,7.29717655665124 m-23.581245256804408,1.6041847758103436 l24.92153884787577,-1.4399475697383284 m-15.17136816537309,-12.891945557067494 l0.8132436298741491,0.7928504243382569 0.28380684263927747,0.8403706580202273 l-0.16337367101393263,21.192351473593533 m-18.51014595578261,2.338811398247312 l0.9794133174270625,0.6687944024314424 1.5494934777265086,0.18224042220846706 l31.24178804417791,-5.678564330580258 m-4.2141083774797305,-3.8553020586939906 l2.735313845617589,1.915285488778498 2.948433117203562,2.7229131566844793 l2.4257674504939355,2.746006506424612 1.3854276275623558,2.204273964817258 " fill="none" stroke="black" stroke-width="1" /></svg>