<?xml version="1.0" encoding="utf-8" ?>
<svg baseProfile="full" height="112.1009063806219" version="1.1" width="99.16783503966217" xmlns="http://www.w3.org/2000/svg" xmlns:ev="http://www.w3.org/2001/xml-events" xmlns:xlink="http://www.w3.org/1999/xlink"><defs /><rect fill="white" height="112.1009063806219" width="99.16783503966217" x="0" y="0" /><path d="M27.334775012971647,25 m0.0,0.0 m33.06204330310896,3.7792342992620234 l0.06688578134745482,0.43156998322646734 -0.4346009633937551,0.9256083172270149 l-1.924919316681557,1.2237742853904308 -6.37705599422441,2.502435108651985 l-7.91066603540529,2.103687592470844 -9.964949371717116,1.5668930631448366 m0.9012888710420297,6.276337168652713 l1.374534854996759,0.8584641907155872 1.9220173158577543,2.0273696102153234 l1.8586606881499783,3.1074994241257747 m24.50444169446356,-11.734465758206582 l-0.15044828128015084,1.1060113205553037 -2.474846085627197,4.323112443293428 l-2.4571171847834683,3.3923707232773053 -2.948932747567966,3.4462893925718476 m-31.267334756444747,5.062380184390825 l2.0949430129980433,0.35699465949825404 2.5179909331792474,-0.04327419108993218 l32.08239790511525,-3.3632223237011636 5.017730414583694,-0.3531716601985152 l5.013170369950718,-0.08926014271060191 m-23.868111929382575,-14.040969755573377 l0.9849797274052371,1.0190927849420666 0.4777747178829829,1.8090592692187395 l-0.2054482150350965,43.25920532761417 -0.31447568876790516,1.9635431701122854 l-0.5404936081779016,0.9535441823555624 -0.7225053691674541,0.2307937111892722 l-1.6472382017405929,-0.9413466547724749 -1.771491308432998,-2.1564579771914936 m3.674421671920519,-28.293835763722413 l-1.9405577561585834,3.5280215703341993 -2.456979049041115,3.5674298833222777 l-6.137090889275883,6.992329089694249 -6.109617228609363,5.574322316028495 l-3.652914918470079,2.72077421996737 -2.6102613755886215,1.674556005354383 m26.46018290604987,-22.802740727302044 l18.73222194482566,19.526040074374517 1.8586819431345698,1.5549087207336576 l2.116748245652058,0.8693609513872145 " fill="none" stroke="black" stroke-width="1" /></svg>