<?xml version="1.0" encoding="utf-8" ?>
<svg baseProfile="full" height="101.90473108346644" version="1.1" width="106.18770615734337" xmlns="http://www.w3.org/2000/svg" xmlns:ev="http://www.w3.org/2001/xml-events" xmlns:xlink="http://www.w3.org/1999/xlink"><defs /><rect fill="white" height="101.90473108346644" width="106.18770615734337" x="0" y="0" /><path d="M25,25 m0.0,0.0 m16.385324967918844,13.995873821695616 l0.436200229480267,0.14633153516265554 1.7117459890971942,0.14596135617324082 l25.1235836384797,-1.941994739747459 4.320132065358128,-0.14997266898437295 l2.24186193248077,0.22218527961475867 m-25.756699860222422,-4.691124739385051 l0.9169851306586563,1.2533713778650808 1.3738772944386084,9.092016638758466 m13.261784247501783,-11.439382560673636 l0.17759116015872456,1.42892337119909 -1.8731111506401195,9.42609893993795 m-6.977302404499401,0.3163752456272334 l-0.03083681152812365,1.1877868663731956 -0.9579392676359292,1.0016726069687059 l-2.4643421915123147,2.105714875337893 -2.930539945109898,1.9260590465811824 l-5.486768706809422,2.7913082607495743 -7.013843445566173,2.93074843041854 m20.923087263667597,-10.892390925410908 l17.129778994201654,7.770500363079527 2.7755494318557528,1.3231324178159072 l2.901587595569494,0.7642495226267328 m-31.67430035103147,-1.092109226870268 l1.5239708256835738,0.12923465292284 12.371255223987548,-1.1922959566741496 l2.4774983811502906,0.11432303748892957 m-22.272065755453543,5.658934486518904 l0.46255491308694135,1.2243126352315787 1.3812155069992804,14.168544013173507 m-1.127334128069546,-14.502553109710753 l24.09062694287333,-1.9753571507907115 0.6468965115962366,0.08442708101803645 l0.9758292969734785,0.3099491029403123 0.6908543164503902,0.738854099308176 l0.1772756405876569,0.8675509210487972 -2.2148813190169028,14.2171731772488 m-14.66080371705296,-12.595110504972386 l0.3449432317235371,0.9656351923904885 -0.1652076386863945,1.5294928288489555 l-1.3722062908097448,2.029055518271317 -2.19664767516617,2.1171928114290592 l-3.33670143012715,2.1352239840924105 m13.22460078109786,-9.618010524481383 l0.5145497198198499,1.261332769023438 -0.09055366310983128,4.519965531693579 l0.1939259464174763,1.0761578001391041 0.5843818424128874,0.5307418584852055 l1.666612708850778,0.3919489657174514 3.0220990791778144,0.04368884236043273 l2.2835689957142744,-0.28799570738680347 m-23.113300525748336,6.010061350640746 l25.6997116020077,-1.5328803914107343 m-24.49922062804476,5.863798673987637 l24.20843907628747,-1.1615633404547105 " fill="none" stroke="black" stroke-width="1" /></svg>