<?xml version="1.0" encoding="utf-8" ?>
<svg baseProfile="full" height="113.4161445679143" version="1.1" width="104.01036161687617" xmlns="http://www.w3.org/2000/svg" xmlns:ev="http://www.w3.org/2001/xml-events" xmlns:xlink="http://www.w3.org/1999/xlink"><defs /><rect fill="white" height="113.4161445679143" width="104.01036161687617" x="0" y="0" /><path d="M25,25 m0.0,0.0 m29.880392465230592,1.056932779294265 l0.3804640690274655,0.29581419266304226 1.6782744162886103,1.5322934893352007 l1.316706869790567,2.1679591159253513 1.4636950543616662,2.0148055334150414 m-20.11932015570486,4.602136482098589 l-0.8740220787320783,5.0104605112700895 -1.747827435553865,5.742027821434925 m3.668403876093765,-9.21052816554103 l29.905164657937117,-2.927154460674352 5.476214387487697,-0.44112349489266967 l1.6117288154768163,0.18965885124370163 0.961748798219594,0.4182018014174047 l0.40873787695308395,0.6122357778056372 -0.056716068327953374,0.7207179883409559 l-1.1132796781952825,1.7096645843695542 -2.679537461223609,2.3297955213411785 m-28.01395964919089,3.5881158157403568 l-0.14335494673525587,1.5764816617483859 -0.6319783754795364,2.0720772607766764 l-2.622117741979462,5.265349399752687 -3.4934095624419235,4.756154075182426 l-4.123849019328929,4.3571601879661905 m10.120524912482955,-12.531876043902729 l6.080857023308278,-0.14800984062906575 7.5881434951729405,0.8151700835219433 l1.9915932083825176,0.39622611562954363 1.0051993721396408,0.4466863788291809 l0.3877335579043693,1.1582099965034713 -0.21282015523741693,4.95678206370626 l-0.8539441950684756,6.181633719782971 -1.1581437011029003,5.3482745925064545 l-1.6532934900685463,2.8929562148077457 -1.3069469656456982,1.138180395809571 l-1.3752031327632332,0.021847131813523116 -1.4273001601364448,-0.9589380123341865 m-9.802985299886373,-13.537769909097097 l2.1855718461415496,1.8422967325686386 1.6493955854722846,2.1967127484833573 l1.395467873584657,2.2561657163359183 0.6974546229042096,2.0688370360510526 m-9.47789361998478,4.733091868980682 l0.7153845808017345,1.6533516802153503 0.4255383258422058,1.8575656571617138 l1.5539577667930118,13.189513511156395 m-1.415947014831065,-15.050445811538976 l18.372309673757968,-2.1252661999710454 1.9044533282368652,-0.132698567001788 l1.6128878091332524,0.3790378678882277 0.6326053043389571,0.8653073733691447 l0.040123687630548244,1.4285013912389555 -2.840674225451594,11.092048117392098 m-17.875806392957294,1.7610391725000385 l19.01635507668779,-1.4221903214143483 " fill="none" stroke="black" stroke-width="1" /></svg>