<?xml version="1.0" encoding="utf-8" ?>
<svg baseProfile="full" height="116.01434903730292" version="1.1" width="115.5038941876466" xmlns="http://www.w3.org/2000/svg" xmlns:ev="http://www.w3.org/2001/xml-events" xmlns:xlink="http://www.w3.org/1999/xlink"><defs /><rect fill="white" height="116.01434903730292" width="115.5038941876466" x="0" y="0" /><path d="M25,25 m0.0,0.0 m15.926075945670233,13.701585019363044 l0.48178833985834046,0.17327215348988526 1.7919893702284875,0.24204945624004923 l28.486652846438353,-2.2948218653120853 4.6184618459426545,-0.1630560124717606 l2.4658607235037757,0.27534771345280656 m-28.764406737035472,-4.516257634581117 l1.0649622815346513,0.8867056308624556 0.36622280398466606,0.6365938520909518 l1.708722224523638,10.071221830687001 m14.852413986546306,-12.830174637510133 l0.3094383461035259,0.8804213829877534 0.0022668692555674564,1.0234713831682565 l-2.242730279849492,9.563274843743672 m-7.191602301966654,-0.1509551859504205 l-0.038635608409371885,0.7421514824725357 -0.4683008788236248,0.7187548773016911 l-2.45536212603536,2.3609783807389704 -2.85025213347028,1.8473754509522602 l-3.4601381442531096,1.5403871321512277 m20.514623057512228,3.5136912350851683 l-0.13012677966824954,0.579791783710702 -0.41720981624054604,0.5176998487598576 l-4.9410620462773736,3.0432592034810915 -6.5445466425973,2.5860020348647694 l-6.730867512740476,2.10441192987173 m-0.4544211887590959,-3.951344480811411 l0.5122119370674763,0.7744036007240751 0.2708182477726731,1.4884425564469042 l1.5349996843057692,14.626449906914322 m17.724863645519918,-9.069641459470525 l1.8629210696034364,0.18267398675419616 8.85986872765517,-1.53614970306462 m-13.479889988291832,1.7468118595301396 l0.47022821085121697,1.2192918208954981 -0.006170150284611952,12.764463387849933 m-18.724510255810543,-7.28693652137515 l1.6216419080156512,0.21938658511538014 2.930529885875316,-0.034435333625288576 l24.68779246701484,-1.4831647859779622 2.3490186594331837,0.15047795475775588 m-33.54973510293885,6.911749730402373 l3.040184664369148,0.28426660708614104 27.363011127710763,-1.3947506363074664 l4.466206884171144,-0.12925666069405756 1.9958838365857872,0.20623645444243419 m-33.4563396386244,6.441292615481293 l-0.47127532426432733,1.6237805736862503 -1.0100780397844822,1.699613788049105 l-1.6391652610113823,1.9441328073446973 -1.7663191954677975,1.5633730934985348 m13.428297741567656,-7.886265781255191 l1.2225275622235838,1.2905185683740805 1.097094766490257,1.7111288539661909 l1.5062328549265402,3.8471035091693064 m8.564111693300775,-7.495664306596131 l1.322987161938587,1.2642397252830213 1.644663440670054,2.179321521880797 l1.3204624921777979,2.2598434928577626 0.5764969478605145,1.6285658782793144 m6.526844213834325,-7.493044818604044 l1.9776623499845425,1.546959180767431 2.2871684481280408,2.497058758974222 l1.7073009856592232,2.435474506435438 0.8355290844354275,1.815565508433265 " fill="none" stroke="black" stroke-width="1" /></svg>