<?xml version="1.0" encoding="utf-8" ?>
<svg baseProfile="full" height="105.71607579113838" version="1.1" width="98.91546642167413" xmlns="http://www.w3.org/2000/svg" xmlns:ev="http://www.w3.org/2001/xml-events" xmlns:xlink="http://www.w3.org/1999/xlink"><defs /><rect fill="white" height="105.71607579113838" width="98.91546642167413" x="0" y="0" /><path d="M25,25 m0.0,0.0 m16.1709701535023,9.339916062704035 l0.4690146352956998,0.13291971185594767 1.8747909749454428,0.09106065679489089 l24.554553757943193,-2.238373476330525 3.687904694583391,-0.15156303786028238 l2.1582322054040906,0.24610199963119703 m-25.152326397120383,-4.843994344147468 l0.8376257897135772,1.4032158079409953 1.3981619509035483,10.276202780720045 m13.230848716316729,-12.952712137445138 l0.18282074105857796,1.4156189842674818 -0.10762717942375213,10.212157744851826 l0.03298608700992532,4.779270284555751 m-19.90704523600675,-9.951510410708792 l2.023643352226633,2.3688125933625526 1.2222689946378835,2.0774853135367493 m19.621678529511282,4.024417945440774 l-0.25360922198012825,0.026456601899948997 -0.7767056821550811,0.5368800118555301 l-3.950191345127334,2.102007929286852 -3.612592112148643,1.7880119611647678 l-4.204452316004898,1.6215941714824595 m-1.673705420442626,-7.389836582266958 l0.46791253639356034,1.2463870013536438 0.0016203993642727047,7.864650033969984 l0.04887910877572399,0.9340964621483989 0.28851447194258345,0.6175543926150442 l1.1103083888528644,0.5922706769672736 2.076423337886954,0.42156359225874307 l10.612195545507083,0.2003536309605234 2.866739674512017,-0.572102856508648 l1.1155939208105963,-0.7695832362532055 0.6029548152681752,-0.9111829381049393 l0.2818408088449405,-1.54834788723673 m-29.78618192115214,10.240773061508492 l1.327744742967736,1.7311353898048487 1.106413527908704,9.544858082395884 m-1.0258699308874746,-10.147183685187695 l20.439331358042722,-1.646295942752739 3.5743013284554506,-0.15253024743685292 l0.9757301144286962,0.6240862002880228 0.19535887335839122,1.05710740402343 l-1.7475019087496928,7.389035322032004 m-22.305449262031722,1.8302165074178085 l23.194088639015153,-1.6589217761443593 m-13.499858679034714,-12.636763011895527 l0.6423604073139091,0.7614922623592363 0.26425130168008293,1.021893771038533 l-0.09087283673371083,21.215256189094735 m-15.644951419330585,2.518223720389757 l1.254718789011539,0.5867770933232336 1.1198984012136446,0.06768118033605451 l26.03925514393709,-5.301403665961791 m-3.7683340186799263,-3.305170959476208 l2.33831860707745,1.6696645351045232 2.7608721915127052,2.710015130637118 l2.0183151257150165,2.5534279411132044 1.0929127568171237,2.0529018443639453 " fill="none" stroke="black" stroke-width="1" /></svg>