<?xml version="1.0" encoding="utf-8" ?>
<svg baseProfile="full" height="100.57595338528512" version="1.1" width="103.7884283022303" xmlns="http://www.w3.org/2000/svg" xmlns:ev="http://www.w3.org/2001/xml-events" xmlns:xlink="http://www.w3.org/1999/xlink"><defs /><rect fill="white" height="100.57595338528512" width="103.7884283022303" x="0" y="0" /><path d="M25,25 m0.0,0.0 m29.573546859437208,13.18310452372414 l0.4544636947954009,0.31751715921787643 0.5399110670228074,1.2641257023385377 l-0.06356051622500575,8.436702594344345 m0.9207297600327861,-4.979051257700136 l10.45012279681199,-1.1916355574983086 3.2937489746407245,-0.19419558248184315 m-31.036744493942184,0.2359758873157998 l0.7306873309608498,0.5797358807584458 0.46913759606777156,1.1526926246465035 l0.27839603285739684,6.085830257013907 m-9.272959390991907,0.388848696846452 l2.1579961360539968,0.22777009972820564 3.188967005880765,-0.09567419299860973 l34.344448078998354,-2.7056229241325704 3.830678897876194,-0.028198075391489056 l3.928858471953167,0.3567573782892966 m-24.09481075279391,2.8845656339183248 l0.6204922569256679,0.7774256646307124 0.18561804211085559,0.8576865390114128 l-0.10695131573418867,10.049273426648865 -0.3045718015321842,0.6151278998748503 l-0.46690364425118924,0.27229112348093876 -0.6070444372654673,-0.01090824307946746 l-1.463565804092815,-0.6737764130565869 -1.4600150985626306,-1.114748495728495 m-7.189054780840213,-6.680237765961499 l-0.07530738290683396,0.789867125738079 -0.4211346371804995,0.5438880147264255 l-2.36116837837706,2.0635559862129993 -3.6396068656462015,2.415090506515101 l-3.697569379829707,1.975589006709661 m33.42274517370889,-9.846367212415487 l2.7033215947484317,0.9378102086216977 2.779289620588924,1.3728610391083347 l2.238501806059717,1.5034579381859865 1.3343467940047022,1.2705695947838382 m-9.772973685158371,-0.7925576758166056 l0.0031014986009855867,0.7601571188772804 -0.4040066170678062,0.8995596464360934 l-2.7149177741418975,2.6721897679643107 -4.143130047238328,3.0229738663816943 l-4.115716617432442,2.4968984017064852 -4.719296132397576,2.4675664835999926 l-5.146612150566077,2.3166602313507854 -5.478295088114554,2.0537917250055284 l-5.606238876186264,1.6410090278332836 " fill="none" stroke="black" stroke-width="1" /></svg>