<?xml version="1.0" encoding="utf-8" ?>
<svg baseProfile="full" height="109.49251218466088" version="1.1" width="106.36819364503026" xmlns="http://www.w3.org/2000/svg" xmlns:ev="http://www.w3.org/2001/xml-events" xmlns:xlink="http://www.w3.org/1999/xlink"><defs /><rect fill="white" height="109.49251218466088" width="106.36819364503026" x="0" y="0" /><path d="M25,25.000000642612576 m0.0,0.0 m11.814247369766235,11.450825929641724 l0.5228297412395477,0.09792814031243324 3.692915439605713,0.15040061436593533 l27.766683101654053,-2.8596657514572144 3.8473057746887207,0.24168582633137703 m-28.342289924621582,-7.568084001541138 l1.2692143023014069,1.1784156411886215 0.5433168262243271,1.3993480801582336 l1.678381860256195,16.803977489471436 m13.636186122894287,-20.894832611083984 l0.8560312539339066,1.390661597251892 0.15771450474858284,1.4626121520996094 l-2.181912660598755,16.782671213150024 m-32.51706123352051,2.921290695667267 l2.506304979324341,0.3467229753732681 3.199586868286133,0.015754548367112875 l24.52153444290161,-2.388463169336319 13.05533766746521,-0.9381433576345444 l6.0163116455078125,-0.18992016091942787 4.3255555629730225,0.36145318299531937 m-43.34209442138672,9.262117147445679 l1.0571321845054626,1.4137709140777588 0.6751715391874313,2.341425120830536 l2.2688597440719604,14.451079368591309 m-2.295861691236496,-17.37040400505066 l24.668385982513428,-2.4140721559524536 4.516003131866455,-0.13486630283296108 l1.3567349314689636,0.48120006918907166 0.7435983419418335,0.960761085152626 l0.05084888078272343,1.4022982120513916 -2.067635804414749,9.46075975894928 l-1.7656567692756653,6.106782555580139 m-14.108208417892456,-22.59411334991455 l0.828496664762497,1.3691911101341248 0.17852423712611198,1.255446970462799 l0.08726974949240685,18.29510807991028 m-12.566269636154175,-6.1625075340271 l27.54526138305664,-2.4771875143051147 m-26.265392303466797,10.636224746704102 l13.045504093170166,-1.30051851272583 10.97385287284851,-0.7135028392076492 m-20.61161994934082,5.9736984968185425 l-0.04023658111691475,1.00337415933609 -0.3335293009877205,0.5860937759280205 l-1.5358738601207733,1.5004721283912659 -1.8713699281215668,1.3388702273368835 l-4.418321251869202,2.3278215527534485 -6.650263071060181,2.560882568359375 m30.041565895080566,-9.566308856010437 l3.535902500152588,1.7502504587173462 3.667675256729126,2.439435124397278 l3.254656195640564,2.7780452370643616 2.2970090806484222,2.7662447094917297 " fill="none" stroke="black" stroke-width="1" /></svg>