<?xml version="1.0" encoding="utf-8" ?>
<svg baseProfile="full" height="109.14153371059922" version="1.1" width="100.88756011866806" xmlns="http://www.w3.org/2000/svg" xmlns:ev="http://www.w3.org/2001/xml-events" xmlns:xlink="http://www.w3.org/1999/xlink"><defs /><rect fill="white" height="109.14153371059922" width="100.88756011866806" x="0" y="0" /><path d="M25,30.312827249231113 m0.0,0.0 m15.10604184143869,3.1412726385194434 l0.49948960710371115,0.16690320439839335 2.8675656451675344,0.0832647230859972 l11.354805590246292,-2.133556595280093 2.12756472547785,0.11196463525709709 l0.3724608915402615,0.4209545662159729 0.04613869738254004,0.7067887356306621 l-1.6202898705956472,6.766716790920908 -1.1697736888010417,4.038168273532478 l-1.4762513622795805,3.3022223272831743 -0.7692047227411506,1.5106703554807606 l-0.7133235065039589,0.9058120830640037 -0.6322477574325137,0.26700340153791585 l-0.5530717138225438,-0.17704015785500066 -0.9866074996411974,-1.3450691350379473 m-1.3453663266954787,-23.07890309598488 l0.19315189944642366,2.0752074231924635 -0.5481344135997842,4.508562220822633 l-1.0422992288963127,8.543342746578881 -0.9296130560078338,4.719423481914422 l-1.2089535983947162,4.212997656285948 -1.1379811372401532,2.9599884652174127 l-1.9014708493766523,3.5327150570492227 -1.695140623339496,2.26019812745802 m21.54614655193121,-20.604188144820228 l0.536721296911656,0.9101756747350676 0.3600070845098455,1.8811737298874032 l1.4563542261171083,12.399683865269449 m-1.346095948323932,-14.531471138273133 l10.73717596422398,-2.0002844461818987 2.0378662429095455,0.050076463127057894 l0.681608101604796,0.9717590350033152 0.04028705634861769,0.8076946653562512 l-1.8047696196956082,10.169949434245963 m-9.665726956517812,2.0402455832087076 l10.673620429239527,-1.3800494631381068 m-29.80136578276856,9.87235616223237 l0.4681729186912962,1.058495576795245 0.1939370873398383,1.1433520051868091 l0.02266060843896538,23.540129529445935 m0.6328099330294595,-25.133531723487547 l19.550366335446643,-2.5868259076437674 1.4394655407312653,0.02635081151273933 l0.8916103413162879,0.6117623197885779 0.45246564871011863,1.4493443044807992 l0.08316372561395831,1.0281387228997056 0.028268171079048405,24.154445029550544 m-22.427525500944576,-16.49412314779219 l12.853666974814267,-1.7914607600199945 m-13.064219221137158,9.588863331119525 l13.006305009679355,-1.6317186721561907 m-13.48150421435623,9.390652509868186 l21.811247215857687,-1.9690005300599522 " fill="none" stroke="black" stroke-width="1" /></svg>