<?xml version="1.0" encoding="utf-8" ?>
<svg baseProfile="full" height="104.10498698846112" version="1.1" width="101.8658830888594" xmlns="http://www.w3.org/2000/svg" xmlns:ev="http://www.w3.org/2001/xml-events" xmlns:xlink="http://www.w3.org/1999/xlink"><defs /><rect fill="white" height="104.10498698846112" width="101.8658830888594" x="0" y="0" /><path d="M25,25 m0.0,0.0 m28.774027265006417,3.374993666309928 l0.39689865406003144,0.38467966746884524 0.6157970870901075,1.6591905179338073 l-0.014386161046856527,5.401672534295164 m-21.63341947654875,2.028804111095817 l2.3424221519947843,0.24639416330935277 2.3996997987117985,-0.05027560810099691 l19.010312580464966,-2.9570020954152367 11.267226428764957,-1.2841491101399138 l5.259948725913309,-0.24363565796464373 3.1520913000127115,0.4287333504522535 m-34.325925867553856,11.367611774492667 l0.6846750781500545,1.6264789419491679 0.42547039077056265,11.992022586693809 m0.29526046965315117,-12.27378384323707 l17.28581602552331,-2.5860769501700602 4.754150381481501,-0.3248133553981496 l1.1079926470667982,0.8559839967158096 0.20704082870131119,1.3671773175910176 l-2.151575035819883,8.389872086221114 m-20.348278337446253,3.0032991966647273 l21.549570130678458,-2.428135471655011 1.6412232862449778,-0.08742100339463078 m-11.865459199355497,5.263243669511568 l0.6163329302992568,1.2715453635423406 0.18107742417041564,1.6337136347967403 l-0.3162047437088928,14.606647873990193 -0.3879073427314504,1.0496140880861162 l-0.5453037528446384,0.3886015428163944 -0.6680424872103432,-0.09510048643990372 l-1.4662618601405608,-0.9811332730017875 -1.618255496524408,-1.5067508339736124 m-8.510051469612758,-11.588326929943902 l-0.05563967591227511,1.133539960248462 -0.314613916483308,0.8661297787081524 l-1.8216865164511509,3.017410865023056 -2.891931709430159,3.293348057980282 l-3.412054170257727,2.899025601220933 m34.24353412555791,-10.662319373447561 l2.608069521610841,2.4409727358139097 2.407034747699973,2.6849534064651213 l1.6917896638221048,2.3387019385614733 1.295418664488442,2.223271945840034 " fill="none" stroke="black" stroke-width="1" /></svg>