<?xml version="1.0" encoding="utf-8" ?>
<svg baseProfile="full" height="110.60610090943695" version="1.1" width="107.16006274102385" xmlns="http://www.w3.org/2000/svg" xmlns:ev="http://www.w3.org/2001/xml-events" xmlns:xlink="http://www.w3.org/1999/xlink"><defs /><rect fill="white" height="110.60610090943695" width="107.16006274102385" x="0" y="0" /><path d="M25,25 m0.0,0.0 m19.189049057707084,5.629512262705043 l0.02657608911933632,0.41453922000234356 -0.18310274215778558,0.5263897882483164 l-1.1136397851151714,1.240797327174697 -3.202418936475251,2.5363170328993148 l-3.87542374359527,2.292035048410149 -4.60806724087223,2.0285037448289427 m-1.2526077699020983,8.041134887564203 l1.0366672680866897,0.3342385448136438 1.4248116657204457,-0.06702197463436718 l15.290177188900033,-1.6731801789314027 m-7.729654355282693,-8.729870984637643 l0.6838218130864994,2.605260063995672 -0.03709146664827257,41.89519990027553 l-0.2303726183005051,2.1731315449550004 -0.47341064584393744,0.9622254496126755 l-0.6383040882895891,0.03169165079673992 -0.7096728596672943,-0.5662107399351579 l-1.6548118167837684,-2.254692132295606 m3.395129883235013,-31.26454272457095 l-2.2756633904928383,6.830141714891696 -2.64090872360678,6.268471963039684 l-2.7684293008818055,5.195255273322415 -2.7079336923903807,3.91717316515857 m11.989880237256699,-19.09004457584773 l2.3706357173743253,2.66942148133325 2.4102193020771536,4.154690273005057 m11.911816860044079,-33.25504820572947 l-0.05745384025894501,0.9811799156842732 -0.4141511192951908,0.9279457532169281 l-2.5601624969821395,3.2309335593318083 -3.0812599381030035,2.739805652049403 l-3.840559466929666,2.4418303672983255 m8.726276171894188,-6.512073105718664 l10.575493423318466,-1.6916219995551942 0.9667191787551752,-0.10025776378734763 l0.551568024076544,0.2396749307662572 0.04255902099087806,0.5724491793774095 l-0.5250123511137933,0.9274921840252771 -3.713374537994402,5.219809928562904 m-12.423574709473689,1.6098520957341327 l0.6528344693938937,2.6935708826765814 0.475172237427776,5.164205014810439 m0.19480680718110469,-7.5347957949280975 l23.338848562918653,-2.564536599475469 0.4350201280341791,0.3753127803744228 l0.22499040801275358,1.2728940361162795 -0.9817421984665579,4.219503588414852 l-1.1295546288107219,2.837774411896792 m-21.585524111751003,1.0144896059488697 l7.431778858471662,-0.9592837571306835 m5.791561372172294,-0.8926105170710456 l7.930569340622454,-0.4621380804221999 m-8.288333580394433,-4.759499454946933 l-0.12390965551159126,43.83628342290351 m-4.796533792044534,-43.72150126524251 l-0.00454152508447315,36.87722037937816 0.20812527292456343,2.780877558537127 l0.5108507943414278,2.6526338618291203 0.7001272391989536,1.810016123958806 l1.8819451931314226,1.6500535219156487 2.9796077056967607,0.7308057452312344 l6.249458525406029,0.1522859272259218 4.863219351691226,-0.4897303683788905 l1.383070422981766,-0.6753875202844742 0.7128649696074503,-1.1490586238317329 l0.21426040687066308,-1.6388349208455226 0.0167509018160106,-3.1057390489010186 m-32.26522960223287,-25.3204299005855 l0.9612568159230247,0.5625334330849556 0.48759564499157654,-0.017479213155184085 l4.700250271464578,-1.262218657904285 2.4264151863788945,-0.24476336806410967 l0.5373738292865593,0.9571983812624398 0.03136002702740848,0.6850232693609335 l-1.0635939939498913,8.720634787228049 m-7.429281132366847,-4.930945622952607 l1.2902330434007765,0.5198474697522467 22.105248950647958,-3.197924541124301 l4.885630748409083,-0.24639200285007734 0.9872418446669105,1.3806035265030336 l0.11671277353060854,1.3795902514733132 -1.4541596057423838,16.104975104570165 m-28.028541194625042,-10.077535722676469 l1.2704691252758178,0.17607995140144717 6.70134261029228,-1.5992161530529925 m-7.667170896624433,6.132696555800024 l1.3615436426094958,0.20756032932842514 5.616427938882223,-1.2896210115109088 l0.5555130266525664,0.09732411598414314 0.2522059415063511,0.5649032597302797 l-0.015488334541812953,0.9069355411331068 -0.631065281286694,11.104116029031866 m-7.4772334437078,-5.848043845801821 l2.083611978376457,0.4354979541358443 26.147181841291893,-3.2545592100972276 m-27.774789253685892,9.381288617874098 l1.0554901020490899,0.2278774345488434 5.954256470305151,-1.1526110553049702 m18.818346983577303,-22.26083103812448 l-0.3297024261914434,2.3566260582173384 -1.3033179659169816,3.3611546686288665 l-1.6851573970540552,3.0656422603110767 -2.145976520662504,2.746449393076414 m0.6278555082956317,-8.80443984479538 l1.465761228404239,1.6341569236807132 1.472524042941399,2.291458138323977 l1.165697714203377,2.3988635309208717 0.46451739771587236,1.5037733317699016 " fill="none" stroke="black" stroke-width="1" /></svg>