<?xml version="1.0" encoding="utf-8" ?>
<svg baseProfile="full" height="130.7845720025307" version="1.1" width="97.24957878849199" xmlns="http://www.w3.org/2000/svg" xmlns:ev="http://www.w3.org/2001/xml-events" xmlns:xlink="http://www.w3.org/1999/xlink"><defs /><rect fill="white" height="130.7845720025307" width="97.24957878849199" x="0" y="0" /><path d="M25,28.285997989676247 m0.0,0.0 m15.483706317486762,14.72642742915172 l0.4250394466067661,0.16890264854701606 2.5343787201217207,0.025102342110759148 l9.563082147523344,-1.7369765449835428 1.0932690310705646,0.0986199824144336 m-14.943130254900062,-12.173184641728586 l0.8248201097777832,1.1478390317064504 0.31835911812230755,1.1044876197993225 l1.6999503721302405,34.065262718230066 m7.931947602996918,-40.712478574923885 l0.6790525963157941,1.0623416791525484 0.2045350128873577,1.1623204138282746 l-0.08287797920630413,44.99606768519827 m-7.968783409179517,-34.91024545123255 l0.4663962753074004,2.4774842096338276 -0.035146399111105724,8.902272829407819 m-4.331448283511201,1.5216633008459426 l10.696978814091493,-1.8119739363005043 0.9808813891955395,0.15229381864934471 l0.3714603704362172,0.44612031469789565 0.1633889923607804,0.6542900702548539 l-1.3366816683550093,9.20988994093908 m-11.759804899120248,2.2241640096089568 l12.540717810873181,-1.8310160858805413 m-12.736707392468473,11.055544234066579 l1.399643366829701,0.2862514045329141 11.004382486560644,-1.9955623849118589 l1.1123810861208459,0.22438335172761603 m-13.310292477545241,15.097170837270761 l0.8941648812401765,0.4703800048958518 1.0754975767445607,-0.30562778261452755 l11.730035008533598,-7.384513883385251 m9.414958407111087,-46.306972944420124 l-0.11204403537158315,2.2314887858982706 -1.9003347179142676,8.981708824128543 l-1.685509882767184,5.9067805500156805 -1.9517921732615053,5.0509623360832645 m3.935788293256005,-7.5370615048481575 l0.7227788662940828,0.2934143830390623 1.0233309786621414,-0.09043297426756548 l8.943502529603284,-2.760357262453861 1.1412049522012024,-0.24974852772615214 l0.4950850420506726,0.20159217391193585 0.3972840906106989,0.43938358786984366 l0.1361306680808317,1.3490498788279255 -0.39827911510143066,2.6974157170460957 l-1.0996614450844369,8.412461437769885 -1.0531849406168186,7.316930186071799 l-1.2258572565135228,7.247836477019228 -1.2344536380840483,5.961052761987232 l-1.2657241146950842,5.0985409419729 -1.2337785031770714,4.29180237465081 l-0.33631337579606546,1.647682107492249 -0.2088998207708978,1.0471948249166203 l-0.16274454616785466,0.5263472042207403 -0.1443258994762113,0.1874968981659781 l-0.15228007593308293,-0.09373203784183683 -0.9093910365724883,-2.096092134329545 m-7.79227863937468,-26.458838776365766 l1.3226417673691944,0.8535807082874872 5.747362705805754,1.6990599527086832 l1.7878767580004595,1.164880176300233 0.9537293885516318,0.8719467756237615 m-10.795956579234343,12.436333394236843 l1.45817523874561,0.19150865976665946 8.145568373842261,-6.286362969476198 l2.4276971114848336,-3.599719925583927 m-9.095515364472021,2.0249896083427585 l0.37239785784413354,2.700772786438584 -0.15751433357556358,6.68291340130214 l-0.5036821668884588,5.752741762641832 -0.7342754089410184,7.97757239169173 l-0.729408667583354,4.459195028170058 -0.8937709943950986,3.30257244925257 l-1.2050587726510482,2.980041032189312 -1.514475558095361,2.5729429014178233 " fill="none" stroke="black" stroke-width="1" /></svg>