<?xml version="1.0" encoding="utf-8" ?>
<svg baseProfile="full" height="91.97053808857206" version="1.1" width="82.53705404212074" xmlns="http://www.w3.org/2000/svg" xmlns:ev="http://www.w3.org/2001/xml-events" xmlns:xlink="http://www.w3.org/1999/xlink"><defs /><rect fill="white" height="91.97053808857206" width="82.53705404212074" x="0" y="0" /><path d="M25,25 m0.0,0.0 m15.393600462635252,6.171257701685613 l0.084844652154504,0.387617106062202 -0.27625574889741683,1.1281206838829445 l-0.9577175190241802,1.8594558764336904 -2.5705787225905428,3.7218195107314656 m4.2154500832169335,0.47788503383939657 l2.0853623424166883,0.5666529458304612 3.531783592758314,-1.6424637411772551 m-12.503034593215263,-2.9180462633496305 l0.40860309217011126,0.4867422705822947 0.2831567734198742,0.7703194984973764 l0.011818180646823856,8.122860452388025 0.4764144314141662,-0.42808552501890973 l8.356043896778962,-3.89418938428664 m13.89365532542315,-9.064836844664418 l0.10390779281337244,0.516363594480141 -0.13648016375061828,0.5995767714388487 l-2.4208106092212303,1.3749074100966834 -7.3493376560698165,1.6938264946653494 l-5.190071220204847,0.8842170797356914 m-1.3981771369445513,-5.682202358972026 l0.5027782870879409,0.5260750934849159 0.2273466692913447,0.7242952944977602 l0.09451234339959018,8.917729611796702 0.2606251041424449,0.8728188547576851 l0.49547952065790474,0.6497947553086991 1.062385793468123,0.5070798537419638 l2.030652922703491,0.33430001726418523 4.464296419650696,0.08094340118441097 l3.0849975398082923,-0.21549498547320725 1.2694478912791491,-0.30729493579010186 l1.080586170495844,-0.5879307883147977 0.5082459277086845,-0.741486261727894 l0.20210204930500095,-1.176165984746256 m-28.051519334074662,8.264014185597114 l1.2736377915150099,0.6977391884355018 1.409559838327559,0.15743240781565734 l20.76854204030241,-1.9154355274699315 1.23413639649033,-0.029586328806201566 l1.1843423980516798,0.22910290838044411 0.5510211357039273,0.6063170808297166 l0.06515058662363798,0.9827053141087216 -1.8393892940845102,7.0704834743112155 l-1.367472554192793,4.657858769014262 -1.0506632035927979,2.497840650300177 l-1.172363642339847,2.29531438047406 -1.7762525750171676,1.69150070751724 l-0.40945438747543067,0.008732477343904302 -0.8167839006889507,-0.12609323775327289 l-1.4671503941877202,-1.2536717687819499 m-3.541673753353809,-19.89600851486627 l0.022401009400380718,1.3867087060549457 -1.2039489459743054,4.210811487459642 l-1.3466949630141003,3.187944864105648 -1.5103725661314977,3.1407486125970294 l-1.807659664074281,2.9940348514111546 -1.6138659838799545,2.097190945852776 l-2.4465916699491577,2.5195425618637026 -2.237020218205702,1.778847653911398 " fill="none" stroke="black" stroke-width="1" /></svg>