<?xml version="1.0" encoding="utf-8" ?>
<svg baseProfile="full" height="113.29727014786488" version="1.1" width="89.26060252856135" xmlns="http://www.w3.org/2000/svg" xmlns:ev="http://www.w3.org/2001/xml-events" xmlns:xlink="http://www.w3.org/1999/xlink"><defs /><rect fill="white" height="113.29727014786488" width="89.26060252856135" x="0" y="0" /><path d="M25,25 m0.0,0.0 m18.502040357590694,1.3550600637310233 l0.3239546772691079,0.510590835927309 0.40210290466828646,1.964840906439969 l-0.011558234839563275,14.771241901485007 m0.6670894878356932,-8.756230210069257 l9.842052459682197,-1.7003374984949604 2.2157154161121415,0.024953732226191173 m-24.318340193921806,-0.36820227453499443 l0.6721094549542902,0.9210190863635282 0.34320378584331623,0.965938712019479 l0.2896777966201629,10.814184920409216 m-8.329749614586786,0.821662213488926 l1.6648389204731409,0.5470462965420163 2.144886453655877,-0.053444164020838854 l28.533075213601045,-3.2738849165994646 3.131006064209129,-0.14304614444642386 l3.1884975793944323,0.36130748182099676 m-19.303962865912048,3.541217110801707 l0.5647879891069509,1.0839283855305273 0.1515266399837664,1.248765557134628 l-0.11477136205667864,14.59201084295848 -0.2856341129847925,0.8006604268339199 l-0.4146574364749157,0.2892811185872646 -0.5228247996955426,-0.09628768863899982 l-1.3044401467394164,-1.0461276899912377 m-6.193548572589623,-11.124955524180129 l-0.3586146913906503,1.2226593598819038 -0.43399618769942333,0.7376224785367658 l-2.04444437517851,6.133913041832882 -2.1954120393776617,4.537998451152326 l-2.345398565184307,3.532461221717525 m23.546032545294405,-17.05496848849807 l2.064608532147658,1.5727295775301726 2.349677241402751,2.3881124413484036 l1.780970696543851,2.3392443545749573 0.9076176085103463,2.023511290152372 m-6.601284677976651,2.418548947306128 l-0.027148456079219847,1.2900288690347774 -0.3449054730257734,1.351613629607152 l-2.0986423705015493,3.344000620375201 -3.7130333333304764,4.2082728823746836 l-3.665517899119791,3.45744348996073 -4.099141202256804,3.344003140661118 l-4.499345444414698,3.1707054739272142 -4.793787478076855,2.855360622882991 l-4.94539503808369,2.372815262181768 " fill="none" stroke="black" stroke-width="1" /></svg>