<?xml version="1.0" encoding="utf-8" ?>
<svg baseProfile="full" height="110.351998170515" version="1.1" width="100.40557861420419" xmlns="http://www.w3.org/2000/svg" xmlns:ev="http://www.w3.org/2001/xml-events" xmlns:xlink="http://www.w3.org/1999/xlink"><defs /><rect fill="white" height="110.351998170515" width="100.40557861420419" x="0" y="0" /><path d="M25,25 m0.0,0.0 m29.639390935876726,1.3678788959779766 l0.3908899971882266,0.44666141605754495 0.576214551420621,1.5805680044085035 l-0.0034278070605647426,5.547810045538118 m-20.34574752333133,2.0776956035803993 l2.2233160651216,0.281623611367544 2.2754042444716953,-0.05712476101293247 l17.087986587505153,-2.983435237814849 12.176523884896113,-1.454007402473873 l3.0701465670104704,-0.2251447187069378 2.4227761079027865,0.43576174776637583 m-30.7913593746819,14.068006285189227 l0.6589493920250838,1.0817817665176177 0.3103074010369589,1.880850681021772 l-0.013571489146375628,14.155123343607034 m0.7284818546350339,-15.653602326903501 l16.054290226973944,-2.7717377745200045 1.6749556269997792,-0.3339090117195856 l1.4997473373683903,0.1308947072964121 0.8726812093033866,0.9618135827011016 l0.14918909465988028,1.5104277296377904 -1.5750773748770701,11.379915522764165 m-18.299958849056164,3.115387574391141 l19.527138754860463,-2.3821268698083866 m-10.62417585519678,4.409226644813795 l0.5213737315761555,1.2126678841446397 0.22027423514294187,2.1217688925311435 l-0.2010041587622497,17.339387195123997 -0.3508988910667674,0.8635708571176816 l-0.5335478028364273,0.244264281921105 -0.6395816309562808,-0.2796596883665113 l-2.6626211663741173,-1.3312443951633217 m-8.228881522952147,-13.341969474782296 l-0.28429558909386077,1.2277395125395585 -0.41063816890000804,1.0814626410361907 l-1.6682942433084806,3.352966718570228 -2.563992820089409,3.9563169947461985 l-2.905193798487659,3.5818911522647094 m33.135559338301725,-12.985195644946065 l2.1102533518354507,2.4894578663199454 2.2819285616944116,3.4743873232598887 l1.8311626127884224,3.4098920226395437 1.0689050097863384,2.7972644490079968 " fill="none" stroke="black" stroke-width="1" /></svg>